<svg xmlns="http://www.w3.org/2000/svg" viewBox="0 0 256 256"><path d="M154.7,142.8a36,36,0,1,0-37.4,0,63,63,0,0,0-32.5,22.8,4,4,0,0,0,.8,5.6,4.3,4.3,0,0,0,2.4.8,4.2,4.2,0,0,0,3.2-1.6,56,56,0,0,1,89.6,0,4,4,0,0,0,6.4-4.8A63,63,0,0,0,154.7,142.8ZM108,112a28,28,0,1,1,28,28A28.1,28.1,0,0,1,108,112ZM208,28H64A12,12,0,0,0,52,40V64H32a4,4,0,0,0,0,8H52v32H32a4,4,0,0,0,0,8H52v32H32a4,4,0,0,0,0,8H52v32H32a4,4,0,0,0,0,8H52v24a12,12,0,0,0,12,12H208a12,12,0,0,0,12-12V40A12,12,0,0,0,208,28Zm4,188a4,4,0,0,1-4,4H64a4,4,0,0,1-4-4V40a4,4,0,0,1,4-4H208a4,4,0,0,1,4,4Z"/></svg>