<svg id="Flat" xmlns="http://www.w3.org/2000/svg" viewBox="0 0 256 256">
  <path d="M211.68628,44.20117a28.02993,28.02993,0,0,0-39.59766,0,3.99779,3.99779,0,0,0-.62891.81445L142.78589,75.34277,57.25464,44.24121a3.99914,3.99914,0,0,0-4.19581.93066l-24,24a3.99981,3.99981,0,0,0,.60987,6.15625l67.94043,45.29395L78.23071,140H55.88745a4.00164,4.00164,0,0,0-2.82862,1.17187l-24,24a4.00013,4.00013,0,0,0,1.54639,6.61719l39.936,13.51172,13.5581,39.9834a3.99974,3.99974,0,0,0,6.6167,1.54394l24-24A4,4,0,0,0,115.88745,200V177.77051l19.48144-17.69922,45.21582,66.18555a4.00062,4.00062,0,0,0,6.13135.57128l24-24a4.00075,4.00075,0,0,0,.93067-4.19531L180.5476,113.11133l31.7295-29.793a3.98575,3.98575,0,0,0,.75048-.957A28.03809,28.03809,0,0,0,211.68628,44.20117Zm-5.65674,33.94141a3.96731,3.96731,0,0,0-.34375.39062L173.14917,109.084a4.00086,4.00086,0,0,0-1.021,4.28321l31.1294,85.60547-18.78809,18.78808-45.08691-65.99707a3.99992,3.99992,0,0,0-2.83594-1.71582,3.9595,3.9595,0,0,0-.46729-.02734,4.00181,4.00181,0,0,0-2.68945,1.03906l-24.19238,21.97949A4.00232,4.00232,0,0,0,107.88745,176v22.34277L89.60913,216.62109l-12.126-35.75976a4.00019,4.00019,0,0,0-2.50586-2.50488l-35.708-12.082L57.54419,148H79.88745a4.00165,4.00165,0,0,0,2.82861-1.17188l24-24a3.9998,3.9998,0,0,0-.60986-6.15625L38.16577,71.37793l18.749-18.74805,85.60547,31.12891a3.99517,3.99517,0,0,0,4.27344-1.01074L178.50464,49.209c.0913-.09668.17724-.19726.25732-.30078a20.00067,20.00067,0,0,1,27.26758,29.23438Z"/>
</svg>
