<svg id="Flat" xmlns="http://www.w3.org/2000/svg" viewBox="0 0 256 256">
  <path d="M234.01465,132.42236,156.21973,93.5249,156.1123,48a28,28,0,0,0-56-.00928l-.10644,45.53418L22.21094,132.42236A4.001,4.001,0,0,0,20,136v32a3.99993,3.99993,0,0,0,4.78418,3.92236L100,156.87939v25.46387L85.17188,197.17139A4.00163,4.00163,0,0,0,84,200v32a3.99985,3.99985,0,0,0,5.48535,3.71387L128,220.30811l38.51465,15.40576A3.99985,3.99985,0,0,0,172,232V200a4.00081,4.00081,0,0,0-1.15137-2.80811l-14.623-14.832V156.87939l75.21582,15.043A3.99993,3.99993,0,0,0,236.22559,168V136A4.001,4.001,0,0,0,234.01465,132.42236Zm-5.78906,30.69825-75.21582-15.043A3.99992,3.99992,0,0,0,148.22559,152v32a4.00084,4.00084,0,0,0,1.15136,2.80811L164,201.64014V226.0918l-34.51465-13.80567a3.99842,3.99842,0,0,0-2.9707,0L92,226.0918V201.65674l14.82812-14.82813A4.00163,4.00163,0,0,0,108,184V152a3.99993,3.99993,0,0,0-4.78418-3.92236L28,163.12061V138.47217l77.78906-38.89453A4.00121,4.00121,0,0,0,108,96.00928L108.1123,48a20,20,0,1,1,40,.00928l.11329,48a4.00119,4.00119,0,0,0,2.21093,3.56836l77.78907,38.89453Z"/>
</svg>
