<svg xmlns="http://www.w3.org/2000/svg" viewBox="0 0 256 256"><path d="M211.8,44.2a28.1,28.1,0,0,0-39.6,0c-.2.3-.5.5-.6.8L142.9,75.3,57.4,44.2a4.1,4.1,0,0,0-4.2,1l-24,24a3.9,3.9,0,0,0,.6,6.1l67.9,45.3L78.3,140H56a3.6,3.6,0,0,0-2.8,1.2l-24,24a3.9,3.9,0,0,0-1.1,3.7,4,4,0,0,0,2.6,2.9l40,13.5,13.5,40a4,4,0,0,0,2.9,2.6H88a3.8,3.8,0,0,0,2.8-1.2l24-24A3.6,3.6,0,0,0,116,200V177.8l19.5-17.7,45.2,66.2a4.2,4.2,0,0,0,2.9,1.7,3.8,3.8,0,0,0,3.2-1.2l24-24a4.1,4.1,0,0,0,1-4.2l-31.1-85.5,31.7-29.8.7-.9A28.1,28.1,0,0,0,211.8,44.2Zm-5.7,33.9-.3.4-32.5,30.6a4.1,4.1,0,0,0-1.1,4.3L203.4,199l-18.8,18.8-45.1-66a4.3,4.3,0,0,0-2.8-1.8h-.5a3.9,3.9,0,0,0-2.7,1.1L109.3,173a4.3,4.3,0,0,0-1.3,3v22.3L89.7,216.6,77.6,180.9a3.9,3.9,0,0,0-2.5-2.5L39.4,166.3,57.7,148H80a3.6,3.6,0,0,0,2.8-1.2l24-24a3.9,3.9,0,0,0-.6-6.1L38.3,71.4,57,52.6l85.6,31.2a4.1,4.1,0,0,0,4.3-1.1l31.7-33.5.3-.3a20,20,0,0,1,27.2,29.2Z"/></svg>