<svg id="Flat" xmlns="http://www.w3.org/2000/svg" viewBox="0 0 256 256">
  <path d="M244,216a4.0002,4.0002,0,0,1-4,4H96a4,4,0,0,1,0-8H240A4.0002,4.0002,0,0,1,244,216Zm-21.07812-28.148L46.294,138.396A36.11994,36.11994,0,0,1,20,103.72949V51.09961A12.00071,12.00071,0,0,1,35.79492,39.71484l13.46973,4.49024a4.00065,4.00065,0,0,1,2.26465,1.9126L66.75781,74.6709,92,82.55908V51.09961a12.00071,12.00071,0,0,1,15.79492-11.38477l13.46973,4.49024a4.00193,4.00193,0,0,1,2.208,1.81054l31.18359,54.57081,46.97852,13.0498A36.10691,36.10691,0,0,1,228,148.32275V184a4.00026,4.00026,0,0,1-5.07812,3.852ZM220,148.32275a28.08386,28.08386,0,0,0-20.50586-26.97851L150.92969,107.854a3.996,3.996,0,0,1-2.40235-1.86962L117.28516,51.31152l-12.01954-4.00683A4.00029,4.00029,0,0,0,100,51.09961V88a4.00033,4.00033,0,0,1-5.19336,3.81787l-32-10a3.99911,3.99911,0,0,1-2.33594-1.93555L45.22168,51.29,33.26562,47.30469a4.02734,4.02734,0,0,0-1.27734-.20948A4.00877,4.00877,0,0,0,28,51.09961v52.62988a28.09229,28.09229,0,0,0,20.4502,26.9624L220,178.72607Z"/>
</svg>
