<svg id="Flat" xmlns="http://www.w3.org/2000/svg" viewBox="0 0 256 256">
  <path d="M131.03955,157.397a3.99993,3.99993,0,0,0-6.07422,0l-48.00293,56A4.00016,4.00016,0,0,0,79.99951,220h96a4.00016,4.00016,0,0,0,3.03711-6.603ZM88.69678,212l39.30566-45.85352L167.30322,212ZM227.99951,64V176a20.0226,20.0226,0,0,1-20,20h-16a4,4,0,0,1,0-8h16a12.01343,12.01343,0,0,0,12-12V64a12.01343,12.01343,0,0,0-12-12h-160a12.01343,12.01343,0,0,0-12,12V176a12.01343,12.01343,0,0,0,12,12h16a4,4,0,0,1,0,8h-16a20.0226,20.0226,0,0,1-20-20V64a20.0226,20.0226,0,0,1,20-20h160A20.0226,20.0226,0,0,1,227.99951,64Z"/>
</svg>
