<svg xmlns="http://www.w3.org/2000/svg" viewBox="0 0 256 256"><path d="M234,132.4,156.2,93.5V48a28,28,0,0,0-56,0V93.5L22.2,132.4A4.2,4.2,0,0,0,20,136v32a3.9,3.9,0,0,0,1.5,3.1,3.6,3.6,0,0,0,3.3.8l75.2-15v25.4L85.2,197.2A3.6,3.6,0,0,0,84,200v32a4,4,0,0,0,1.8,3.3,3.8,3.8,0,0,0,3.7.4L128,220.3l38.5,15.4a4,4,0,0,0,1.5.3,3.4,3.4,0,0,0,2.2-.7A4,4,0,0,0,172,232V200a3.6,3.6,0,0,0-1.2-2.8l-14.6-14.8V156.9l75.2,15a3.9,3.9,0,0,0,3.4-.8,4.1,4.1,0,0,0,1.4-3.1V136A4,4,0,0,0,234,132.4Zm-5.8,30.7-75.2-15a3.6,3.6,0,0,0-3.3.8,4.2,4.2,0,0,0-1.5,3.1v32a3.6,3.6,0,0,0,1.2,2.8L164,201.6v24.5l-34.5-13.8a3.9,3.9,0,0,0-3,0L92,226.1V201.7l14.8-14.9A3.6,3.6,0,0,0,108,184V152a3.9,3.9,0,0,0-1.5-3.1,3.6,3.6,0,0,0-3.3-.8L28,163.1V138.5l77.8-38.9A4.2,4.2,0,0,0,108,96V48a20,20,0,0,1,40,0V96a4.2,4.2,0,0,0,2.2,3.6l77.8,38.9Z"/></svg>