<svg id="Flat" xmlns="http://www.w3.org/2000/svg" viewBox="0 0 256 256">
  <path d="M220,216a4.0002,4.0002,0,0,1-4,4H72a4,4,0,0,1,0-8H216A4.0002,4.0002,0,0,1,220,216Zm24-80v24a4.0002,4.0002,0,0,1-4,4H63.80859a35.77737,35.77737,0,0,1-34.48144-25.65527L15.25879,91.44824A11.99986,11.99986,0,0,1,26.752,76H44a4.001,4.001,0,0,1,3.07324,1.43945L65.87305,100H90.4502L79.71484,67.79492A12.00015,12.00015,0,0,1,91.09961,52H108a3.99911,3.99911,0,0,1,2.94824,1.29688L153.75977,100H208A36.04061,36.04061,0,0,1,244,136Zm-8,0a28.03146,28.03146,0,0,0-28-28H152a3.99911,3.99911,0,0,1-2.94824-1.29688L106.24023,60H91.09961a4.0001,4.0001,0,0,0-3.79492,5.26514l12.49023,37.46972A4.0001,4.0001,0,0,1,96,108H64a4.001,4.001,0,0,1-3.07324-1.43945L42.127,84H26.752a4,4,0,0,0-3.83105,5.14941L36.98926,136.0459A27.82817,27.82817,0,0,0,63.80859,156H236Z"/>
</svg>
