<svg id="Flat" xmlns="http://www.w3.org/2000/svg" viewBox="0 0 256 256">
  <path d="M168,236a3.99053,3.99053,0,0,1-.78418-.07764L128,228.0791l-39.21582,7.84326A3.99993,3.99993,0,0,1,84,232V208a4.00163,4.00163,0,0,1,1.17188-2.82861L100,190.34326V156.87939l-75.21582,15.043A3.99993,3.99993,0,0,1,20,168V144a4.001,4.001,0,0,1,2.21094-3.57764l77.79394-38.897.10742-53.5332a28,28,0,0,1,56,.00781l.1084,53.52539,77.794,38.897A4.001,4.001,0,0,1,236.22559,144v24a3.99993,3.99993,0,0,1-4.78418,3.92236l-75.21582-15.043v33.48047l14.623,14.832A4.00081,4.00081,0,0,1,172,208v24a3.99993,3.99993,0,0,1-4,4Zm-40-16a3.99845,3.99845,0,0,1,.78418.07764L164,227.12061V209.64014l-14.62305-14.832A4.00084,4.00084,0,0,1,148.22559,192V152a3.99992,3.99992,0,0,1,4.78418-3.92236l75.21582,15.043V146.47217l-77.78907-38.89453a3.99965,3.99965,0,0,1-2.21093-3.56934l-.11329-56a20,20,0,1,0-40-.0083L108,104.00781a3.99984,3.99984,0,0,1-2.21094,3.56983L28,146.47217v16.64844l75.21582-15.043A3.99993,3.99993,0,0,1,108,152v40a4.00163,4.00163,0,0,1-1.17188,2.82861L92,209.65674v17.46387l35.21582-7.043A3.99845,3.99845,0,0,1,128,220Z"/>
</svg>
