<svg id="Flat" xmlns="http://www.w3.org/2000/svg" viewBox="0 0 256 256">
  <path d="M172,216a4.0002,4.0002,0,0,1-4,4H24a4,4,0,0,1,0-8H168A4.0002,4.0002,0,0,1,172,216ZM247.93555,92.71289a3.99731,3.99731,0,0,1-1.92481,2.74512L94.60352,183.48584a35.78229,35.78229,0,0,1-42.7168-4.85938L14.19141,143.28711h-.001a12.00032,12.00032,0,0,1,3.48145-19.78418l16.75292-7.17969a4.00251,4.00251,0,0,1,3.1504,0l26.16992,11.21533L85.21191,115.272,58.625,91.34375A12.00078,12.00078,0,0,1,61.9248,71.394l16.5-7.0708a4.00808,4.00808,0,0,1,2.83985-.11816l58.27441,19.4248,42.80176-25.17724a35.81374,35.81374,0,0,1,46.11523,8.2334L247.0957,89.4668A3.99849,3.99849,0,0,1,247.93555,92.71289Zm-10.00293-1.812-15.668-19.14893a27.85578,27.85578,0,0,0-35.86719-6.40381L142.02832,91.44775a4.00787,4.00787,0,0,1-3.293.34717L80.17773,72.27539,65.07617,78.74756a4.00039,4.00039,0,0,0-1.09961,6.6499l30.69922,27.6294a3.99945,3.99945,0,0,1-.6914,6.44628l-28,16a4.00142,4.00142,0,0,1-3.55958.20362L36,124.35205l-15.17773,6.5044a4.00056,4.00056,0,0,0-1.16016,6.59472l37.69531,35.33936A27.82907,27.82907,0,0,0,90.582,176.56982Z"/>
</svg>
