<svg id="Flat" xmlns="http://www.w3.org/2000/svg" viewBox="0 0 256 256">
  <path d="M188,128a4.0002,4.0002,0,0,1-4,4H128a4.0002,4.0002,0,0,1-4-4V72a4,4,0,0,1,8,0v52h52A4.0002,4.0002,0,0,1,188,128Zm5.05371-65.05371A91.99945,91.99945,0,1,1,128,36,91.39744,91.39744,0,0,1,193.05371,62.94629ZM212,128A84,84,0,0,0,68.603,68.603h0A84,84,0,1,0,212,128Zm20.65186-70.71045L198.71045,23.34814a3.99992,3.99992,0,0,0-5.65674,5.65674l33.94141,33.94141a3.99992,3.99992,0,1,0,5.65674-5.65674ZM62.94629,23.34814a4,4,0,0,0-5.65674,0L23.34814,57.28955a3.99992,3.99992,0,0,0,5.65674,5.65674L62.94629,29.00488A4,4,0,0,0,62.94629,23.34814Z"/>
</svg>
