<svg xmlns="http://www.w3.org/2000/svg" viewBox="0 0 256 256"><path d="M188,128a4,4,0,0,1-4,4H128a4,4,0,0,1-4-4V72a4,4,0,0,1,8,0v52h52A4,4,0,0,1,188,128Zm5.1-65.1A92.2,92.2,0,1,1,128,36,91.8,91.8,0,0,1,193.1,62.9ZM212,128A84,84,0,0,0,68.6,68.6h0A84,84,0,1,0,212,128Zm20.7-70.7-34-34a4,4,0,0,0-5.6,0,4,4,0,0,0,0,5.7L227,62.9a3.9,3.9,0,0,0,2.8,1.2,4.2,4.2,0,0,0,2.9-1.2A4,4,0,0,0,232.7,57.3ZM62.9,23.3a4,4,0,0,0-5.6,0l-34,34a4,4,0,0,0,0,5.6,4.2,4.2,0,0,0,2.9,1.2A3.9,3.9,0,0,0,29,62.9L62.9,29A4,4,0,0,0,62.9,23.3Z"/></svg>