<svg xmlns="http://www.w3.org/2000/svg" viewBox="0 0 256 256"><path d="M128,20a92.1,92.1,0,0,0-92,92c0,23.2,12.3,53.3,32.8,80.6,15.8,21,39.6,43.4,59.2,43.4s43.4-22.4,59.2-43.4C207.7,165.3,220,135.2,220,112A92.1,92.1,0,0,0,128,20Zm52.8,167.8C162.4,212.2,141.7,228,128,228s-34.4-15.8-52.8-40.2S44,133.2,44,112a84,84,0,0,1,168,0C212,133.2,200,162.2,180.8,187.8ZM116,140v-4a36,36,0,0,0-36-36,12,12,0,0,0-12,12v4a36,36,0,0,0,36,36A12,12,0,0,0,116,140Zm-8,0a4,4,0,0,1-4,4,28.1,28.1,0,0,1-28-28v-4a4,4,0,0,1,4-4,28.1,28.1,0,0,1,28,28Zm68-40a36,36,0,0,0-36,36v4a12,12,0,0,0,12,12,36,36,0,0,0,36-36v-4A12,12,0,0,0,176,100Zm4,16a28.1,28.1,0,0,1-28,28,4,4,0,0,1-4-4v-4a28.1,28.1,0,0,1,28-28,4,4,0,0,1,4,4Zm-32,68a4,4,0,0,1-4,4H112a4,4,0,0,1,0-8h32A4,4,0,0,1,148,184Z"/></svg>