<svg id="Flat" xmlns="http://www.w3.org/2000/svg" viewBox="0 0 256 256">
  <path d="M220.00488,39.99414a4.0002,4.0002,0,0,1-4,4h-176a4,4,0,0,1,0-8h176A4.0002,4.0002,0,0,1,220.00488,39.99414ZM204,80v96a12.01375,12.01375,0,0,1-12,12H152a12.01375,12.01375,0,0,1-12-12V80a12.01375,12.01375,0,0,1,12-12h40A12.01375,12.01375,0,0,1,204,80Zm-8,0a4.00458,4.00458,0,0,0-4-4H152a4.00458,4.00458,0,0,0-4,4v96a4.00458,4.00458,0,0,0,4,4h40a4.00458,4.00458,0,0,0,4-4Zm-80,0V216a12.01375,12.01375,0,0,1-12,12H64a12.01375,12.01375,0,0,1-12-12V80A12.01375,12.01375,0,0,1,64,68h40A12.01375,12.01375,0,0,1,116,80Zm-8,0a4.00458,4.00458,0,0,0-4-4H64a4.00458,4.00458,0,0,0-4,4V216a4.00458,4.00458,0,0,0,4,4h40a4.00458,4.00458,0,0,0,4-4Z"/>
</svg>
