<svg id="Flat" xmlns="http://www.w3.org/2000/svg" viewBox="0 0 256 256">
  <path d="M208,140H132V116h52a12.01375,12.01375,0,0,0,12-12V64a12.01375,12.01375,0,0,0-12-12H132V31.99512a4,4,0,1,0-8,0V52H72A12.01375,12.01375,0,0,0,60,64v40a12.01375,12.01375,0,0,0,12,12h52v24H48a12.01375,12.01375,0,0,0-12,12v40a12.01375,12.01375,0,0,0,12,12h76v19.99512a4,4,0,0,0,8,0V204h76a12.01375,12.01375,0,0,0,12-12V152A12.01375,12.01375,0,0,0,208,140ZM68,104V64a4.00458,4.00458,0,0,1,4-4H184a4.00458,4.00458,0,0,1,4,4v40a4.00458,4.00458,0,0,1-4,4H128.04834c-.0166-.00024-.03174-.00488-.04834-.00488s-.03174.00464-.04834.00488H72A4.00458,4.00458,0,0,1,68,104Zm144,88a4.00458,4.00458,0,0,1-4,4H128.04834c-.0166-.00024-.03174-.00488-.04834-.00488s-.03174.00464-.04834.00488H48a4.00458,4.00458,0,0,1-4-4V152a4.00458,4.00458,0,0,1,4-4H208a4.00458,4.00458,0,0,1,4,4Z"/>
</svg>
