<svg id="Flat" xmlns="http://www.w3.org/2000/svg" viewBox="0 0 256 256">
  <path d="M220.00488,216.00586a4.0002,4.0002,0,0,1-4,4h-176a4,4,0,1,1,0-8h176A4.00019,4.00019,0,0,1,220.00488,216.00586ZM140,176V80a12.01343,12.01343,0,0,1,12-12h40a12.01343,12.01343,0,0,1,12,12v96a12.01343,12.01343,0,0,1-12,12H152A12.01343,12.01343,0,0,1,140,176Zm8,0a4.00427,4.00427,0,0,0,4,4h40a4.00427,4.00427,0,0,0,4-4V80a4.00427,4.00427,0,0,0-4-4H152a4.00427,4.00427,0,0,0-4,4Zm-96,0V40A12.01343,12.01343,0,0,1,64,28h40a12.01343,12.01343,0,0,1,12,12V176a12.01343,12.01343,0,0,1-12,12H64A12.01343,12.01343,0,0,1,52,176Zm8,0a4.00427,4.00427,0,0,0,4,4h40a4.00427,4.00427,0,0,0,4-4V40a4.00427,4.00427,0,0,0-4-4H64a4.00427,4.00427,0,0,0-4,4Z"/>
</svg>
