<svg id="Flat" xmlns="http://www.w3.org/2000/svg" viewBox="0 0 256 256">
  <path d="M43.99414,39.99512v176a4,4,0,0,1-8,0v-176a4,4,0,0,1,8,0ZM68,104V64A12.01375,12.01375,0,0,1,80,52h96a12.01375,12.01375,0,0,1,12,12v40a12.01375,12.01375,0,0,1-12,12H80A12.01375,12.01375,0,0,1,68,104Zm8,0a4.00458,4.00458,0,0,0,4,4h96a4.00458,4.00458,0,0,0,4-4V64a4.00458,4.00458,0,0,0-4-4H80a4.00458,4.00458,0,0,0-4,4Zm152,48v40a12.01375,12.01375,0,0,1-12,12H80a12.01375,12.01375,0,0,1-12-12V152a12.01375,12.01375,0,0,1,12-12H216A12.01375,12.01375,0,0,1,228,152Zm-8,0a4.00458,4.00458,0,0,0-4-4H80a4.00458,4.00458,0,0,0-4,4v40a4.00458,4.00458,0,0,0,4,4H216a4.00458,4.00458,0,0,0,4-4Z"/>
</svg>
