<svg id="Flat" xmlns="http://www.w3.org/2000/svg" viewBox="0 0 256 256">
  <path d="M224.00488,124H204V72a12.01375,12.01375,0,0,0-12-12H152a12.01375,12.01375,0,0,0-12,12v52H116V48a12.01375,12.01375,0,0,0-12-12H64A12.01375,12.01375,0,0,0,52,48v76H32.00488a4,4,0,0,0,0,8H52v76a12.01343,12.01343,0,0,0,12,12h40a12.01343,12.01343,0,0,0,12-12V132h24v52a12.01343,12.01343,0,0,0,12,12h40a12.01343,12.01343,0,0,0,12-12V132h20.00488a4,4,0,0,0,0-8ZM108,208a4.00427,4.00427,0,0,1-4,4H64a4.00427,4.00427,0,0,1-4-4V128.0484c.00024-.01654.00488-.0318.00488-.0484s-.00464-.03186-.00488-.0484V48a4.00458,4.00458,0,0,1,4-4h40a4.00458,4.00458,0,0,1,4,4Zm88-24a4.00427,4.00427,0,0,1-4,4H152a4.00427,4.00427,0,0,1-4-4V128.0484c.00024-.01654.00488-.0318.00488-.0484s-.00464-.03186-.00488-.0484V72a4.00458,4.00458,0,0,1,4-4h40a4.00458,4.00458,0,0,1,4,4Z"/>
</svg>
