<svg id="Flat" xmlns="http://www.w3.org/2000/svg" viewBox="0 0 256 256">
  <path d="M220.00586,39.99512v176a4,4,0,0,1-8,0v-176a4,4,0,0,1,8,0ZM188,64v40a12.01375,12.01375,0,0,1-12,12H80a12.01375,12.01375,0,0,1-12-12V64A12.01375,12.01375,0,0,1,80,52h96A12.01375,12.01375,0,0,1,188,64Zm-8,0a4.00458,4.00458,0,0,0-4-4H80a4.00458,4.00458,0,0,0-4,4v40a4.00458,4.00458,0,0,0,4,4h96a4.00458,4.00458,0,0,0,4-4Zm8,88v40a12.01375,12.01375,0,0,1-12,12H40a12.01375,12.01375,0,0,1-12-12V152a12.01375,12.01375,0,0,1,12-12H176A12.01375,12.01375,0,0,1,188,152Zm-8,0a4.00458,4.00458,0,0,0-4-4H40a4.00458,4.00458,0,0,0-4,4v40a4.00458,4.00458,0,0,0,4,4H176a4.00458,4.00458,0,0,0,4-4Z"/>
</svg>
