<svg id="Flat" xmlns="http://www.w3.org/2000/svg" viewBox="0 0 256 256">
  <path d="M172,156a8,8,0,1,1-8-8A7.99993,7.99993,0,0,1,172,156Zm-80-8a8,8,0,1,0,8,8A7.99993,7.99993,0,0,0,92,148Zm144,20v24a12.01375,12.01375,0,0,1-12,12H32a12.01375,12.01375,0,0,1-12-12V169.12893a109.42633,109.42633,0,0,1,37.18213-82.29L29.17139,58.82863a4.00026,4.00026,0,0,1,5.65722-5.65722L63.41016,81.753a106.64706,106.64706,0,0,1,64.20849-21.75244C127.74561,60,127.876,60,128.00342,60a107.15753,107.15753,0,0,1,64.77392,21.56592l28.394-28.394a3.99992,3.99992,0,0,1,5.65722,5.65625L199.01953,86.63723q2.67152,2.33862,5.21485,4.8623A107.27637,107.27637,0,0,1,236,168Zm-8,0A99.99959,99.99959,0,0,0,128.00244,68c-.11914,0-.23682,0-.35644.00049C72.70117,68.19045,28,113.55666,28,169.12893V192a4.00458,4.00458,0,0,0,4,4H224a4.00458,4.00458,0,0,0,4-4Z"/>
</svg>
