<svg id="Flat" xmlns="http://www.w3.org/2000/svg" viewBox="0 0 256 256">
  <path d="M93.92969,84a6,6,0,1,1,6,6A6.00029,6.00029,0,0,1,93.92969,84Zm62,6a6,6,0,1,0-6-6A6.0003,6.0003,0,0,0,155.92969,90Zm56,14v48a84,84,0,0,1-168,0V104A83.76619,83.76619,0,0,1,70.61621,42.67041L53.24707,26.96729a4.00015,4.00015,0,0,1,5.36523-5.93458L76.7666,37.4458a83.74537,83.74537,0,0,1,102.32666.00049l18.15381-16.41358a4.00015,4.00015,0,0,1,5.36523,5.93458L185.24316,42.6709A83.76325,83.76325,0,0,1,211.92969,104Zm-160,0v12h152V104a76,76,0,0,0-152,0Zm152,48V124h-152v28a76,76,0,0,0,152,0Z"/>
</svg>
