<svg xmlns="http://www.w3.org/2000/svg" viewBox="0 0 256 256"><path d="M172,156a8,8,0,1,1-8-8A8,8,0,0,1,172,156Zm-80-8a8,8,0,1,0,8,8A8,8,0,0,0,92,148Zm144,20v24a12,12,0,0,1-12,12H32a12,12,0,0,1-12-12V169.1A109.6,109.6,0,0,1,57.2,86.8l-28-28a4,4,0,0,1,5.6-5.6L63.4,81.8A106.7,106.7,0,0,1,127.6,60h.4a107.2,107.2,0,0,1,64.8,21.6l28.4-28.4a4,4,0,1,1,5.6,5.6L199,86.6l5.2,4.9A107.3,107.3,0,0,1,236,168Zm-8,0A100,100,0,0,0,128,68h-.4C72.7,68.2,28,113.6,28,169.1V192a4,4,0,0,0,4,4H224a4,4,0,0,0,4-4Z"/></svg>