<svg id="Flat" xmlns="http://www.w3.org/2000/svg" viewBox="0 0 256 256">
  <path d="M185.24316,42.6709,202.6123,26.96729a4.00015,4.00015,0,0,0-5.36523-5.93458L179.09326,37.44629A83.74537,83.74537,0,0,0,76.7666,37.4458L58.6123,21.03271a4.00015,4.00015,0,0,0-5.36523,5.93458L70.61621,42.67041A83.76619,83.76619,0,0,0,43.92969,104v48a84,84,0,0,0,168,0V104A83.76325,83.76325,0,0,0,185.24316,42.6709ZM127.92969,28a76.08614,76.08614,0,0,1,76,76v12h-152V104A76.08614,76.08614,0,0,1,127.92969,28Zm0,200a76.08645,76.08645,0,0,1-76-76V124h152v28A76.08645,76.08645,0,0,1,127.92969,228Zm20-144a8,8,0,1,1,8,8A8.00916,8.00916,0,0,1,147.92969,84Zm-56,0a8,8,0,1,1,8,8A8.00916,8.00916,0,0,1,91.92969,84Z"/>
</svg>
