<svg id="Flat" xmlns="http://www.w3.org/2000/svg" viewBox="0 0 256 256">
  <path d="M228,128A99.99968,99.99968,0,0,0,57.28906,57.29,100,100,0,0,0,127.98486,228l.01514.001.01343-.001A100.00078,100.00078,0,0,0,228,128Zm-18.92285,43.55811L148.07349,160.4209,210.40332,87.044a92.25448,92.25448,0,0,1-1.32617,84.51416ZM106.853,152.89551,95.8667,122.1333l21.14722-24.895,32.13305,5.86621L160.1333,133.8667l-21.14722,24.895ZM206.24243,79.585,166.114,126.82568,133.74658,36.19629a91.30856,91.30856,0,0,1,59.30713,26.75A92.674,92.674,0,0,1,206.24243,79.585ZM62.94629,62.94629a91.33444,91.33444,0,0,1,62.25879-26.87842l20.8352,58.33838L51.324,77.11426A92.91923,92.91923,0,0,1,62.94629,62.94629ZM46.92285,84.44189,107.92651,95.5791l-62.32983,73.377a92.25448,92.25448,0,0,1,1.32617-84.51416ZM49.75757,176.415,89.886,129.17432l32.36743,90.62939a91.30856,91.30856,0,0,1-59.30713-26.75A92.674,92.674,0,0,1,49.75757,176.415Zm81.03735,43.51709-20.8352-58.33838,29.87866,5.45508.02661.00488,64.811,11.832a92.91923,92.91923,0,0,1-11.62232,14.168A91.33444,91.33444,0,0,1,130.79492,219.93213Z"/>
</svg>
