<svg xmlns="http://www.w3.org/2000/svg" viewBox="0 0 256 256"><path d="M228,128A100,100,0,0,0,57.3,57.3,100,100,0,0,0,128,228h0A100,100,0,0,0,228,128Zm-18.9,43.6-61-11.2L210.4,87a92.5,92.5,0,0,1-1.3,84.6ZM106.9,152.9l-11-30.8L117,97.2l32.1,5.9,11,30.8L139,158.8Zm99.3-73.3-40.1,47.2L133.7,36.2a91.7,91.7,0,0,1,59.4,26.7A95.4,95.4,0,0,1,206.2,79.6ZM62.9,62.9a91.6,91.6,0,0,1,62.3-26.8L146,94.4,51.3,77.1A104.3,104.3,0,0,1,62.9,62.9Zm-16,21.5,61,11.2L45.6,169a92.5,92.5,0,0,1,1.3-84.6Zm2.9,92,40.1-47.2,32.4,90.6a91.7,91.7,0,0,1-59.4-26.7A95.4,95.4,0,0,1,49.8,176.4Zm81,43.5L110,161.6l29.8,5.4h.1l64.8,11.8a104.3,104.3,0,0,1-11.6,14.2A91.6,91.6,0,0,1,130.8,219.9Z"/></svg>