<svg id="Flat" xmlns="http://www.w3.org/2000/svg" viewBox="0 0 256.00004 255.99998">
  <path d="M134.39355,31.06886A36.2255,36.2255,0,0,1,168,8a4,4,0,0,1,0,8,28.17793,28.17793,0,0,0-26.14062,17.94287,4,4,0,1,1-7.46583-2.874Zm87.82081,133.38037C208.82324,197.15626,184.88477,220,164,220H92c-29.97412,0-68-48.96582-68-104a64.00223,64.00223,0,0,1,104-49.9624A64.00746,64.00746,0,0,1,218.31152,76.439a4,4,0,0,1-1.07031,5.896,44.0172,44.0172,0,0,0,3.03027,77.00635A4.00415,4.00415,0,0,1,222.21436,164.44923Zm-8.80176.25293a52.02345,52.02345,0,0,1-4.19922-86.62109,56.00663,56.00663,0,0,0-78.47217-3.88819,3.99764,3.99764,0,0,1-5.40723.0669A56.00071,56.00071,0,0,0,32,116a123.19453,123.19453,0,0,0,20.81445,67.26074C64.792,200.98732,79.80713,212,92,212h72C180.7832,212,201.20312,192.30177,213.4126,164.70216Z"/>
</svg>
