<svg xmlns="http://www.w3.org/2000/svg" viewBox="0 0 256 256"><path d="M134.4,31.1A36.2,36.2,0,0,1,168,8a4,4,0,0,1,0,8,28.1,28.1,0,0,0-26.1,17.9,4.2,4.2,0,0,1-3.8,2.6,3.5,3.5,0,0,1-1.4-.3A3.9,3.9,0,0,1,134.4,31.1Zm87.8,133.3C208.8,197.2,184.9,220,164,220H92c-30,0-68-49-68-104A64,64,0,0,1,128,66a64.1,64.1,0,0,1,90.3,10.4,4.1,4.1,0,0,1,.8,3.2,3.8,3.8,0,0,1-1.9,2.7,44,44,0,0,0,3.1,77A4.1,4.1,0,0,1,222.2,164.4Zm-8.8.3a52,52,0,0,1-4.2-86.6,56,56,0,0,0-78.5-3.9,4,4,0,0,1-5.4.1A55.9,55.9,0,0,0,32,116c0,23.2,7.6,47.7,20.8,67.3C64.8,201,79.8,212,92,212h72C180.8,212,201.2,192.3,213.4,164.7Z"/></svg>