<svg xmlns="http://www.w3.org/2000/svg" viewBox="0 0 256 256"><path d="M146.6,140.9a28,28,0,1,0-37.2,0,20,20,0,0,0-9.3,6.4,19.6,19.6,0,0,0-4.2,16.6l9.6,48A20.1,20.1,0,0,0,125.1,228h5.8a20.1,20.1,0,0,0,19.6-16.1l9.6-48a19.6,19.6,0,0,0-4.2-16.6A20,20,0,0,0,146.6,140.9ZM108,120a20,20,0,1,1,20,20A20.1,20.1,0,0,1,108,120Zm44.2,42.4-9.6,48a12,12,0,0,1-11.7,9.6h-5.8a12,12,0,0,1-11.7-9.6l-9.6-48a11.6,11.6,0,0,1,2.4-10,12,12,0,0,1,9.3-4.4h25a12,12,0,0,1,9.3,4.4A11.6,11.6,0,0,1,152.2,162.4ZM188,128a60,60,0,0,0-120,0,61.4,61.4,0,0,0,4,21.7,4,4,0,0,1-2.2,5.2l-1.5.3a4,4,0,0,1-3.7-2.6A66.3,66.3,0,0,1,60,128a68,68,0,0,1,136,0,66.3,66.3,0,0,1-4.6,24.6,4,4,0,1,1-7.4-2.9A61.4,61.4,0,0,0,188,128Zm40,0a99.7,99.7,0,0,1-46.2,84.3,4.2,4.2,0,0,1-2.1.6,3.8,3.8,0,0,1-3.4-1.8,3.9,3.9,0,0,1,1.2-5.5,92,92,0,1,0-99,0,4,4,0,1,1-4.3,6.7A100,100,0,1,1,228,128Z"/></svg>