<svg id="Flat" xmlns="http://www.w3.org/2000/svg" viewBox="0 0 256 256">
  <path d="M224,52H32A12.01343,12.01343,0,0,0,20,64V88a12.01343,12.01343,0,0,0,12,12h4v92a12.01343,12.01343,0,0,0,12,12H208a12.01343,12.01343,0,0,0,12-12V100h4a12.01343,12.01343,0,0,0,12-12V64A12.01343,12.01343,0,0,0,224,52ZM212,192a4.00427,4.00427,0,0,1-4,4H48a4.00427,4.00427,0,0,1-4-4V100H212ZM228,88a4.00427,4.00427,0,0,1-4,4H32a4.00427,4.00427,0,0,1-4-4V64a4.00427,4.00427,0,0,1,4-4H224a4.00427,4.00427,0,0,1,4,4ZM100,136a4.0002,4.0002,0,0,1,4-4h48a4,4,0,0,1,0,8H104A4.0002,4.0002,0,0,1,100,136Z"/>
</svg>
