<svg id="Flat" xmlns="http://www.w3.org/2000/svg" viewBox="0 0 256 256">
  <path d="M164.76953,147.23047a3.99943,3.99943,0,0,1,0,5.65625L130.8291,186.82715a4.01542,4.01542,0,0,1-.60449.49609c-.05518.03711-.11719.06055-.17383.09473a3.96946,3.96946,0,0,1-.51318.27344c-.08106.03418-.16895.0498-.25244.07861a3.93275,3.93275,0,0,1-.49414.15039,3.97064,3.97064,0,0,1-1.582,0,3.93275,3.93275,0,0,1-.49414-.15039c-.08349-.02881-.17138-.04443-.25244-.07861a3.96946,3.96946,0,0,1-.51318-.27344c-.05664-.03418-.11865-.05762-.17383-.09473a4.01542,4.01542,0,0,1-.60449-.49609L91.23047,152.88672a3.99975,3.99975,0,0,1,5.65674-5.65625L124,174.34277V104a4,4,0,0,1,8,0v70.34277l27.11279-27.1123A3.99913,3.99913,0,0,1,164.76953,147.23047ZM220,72V208a12.01343,12.01343,0,0,1-12,12H48a12.01343,12.01343,0,0,1-12-12V72a3.99973,3.99973,0,0,1,.10156-.87109c.01709-.07764.04834-.15039.07032-.22657a3.94525,3.94525,0,0,1,.21386-.5913c.01514-.03223.02051-.06788.03662-.1001l16-32A4.00047,4.00047,0,0,1,56,36H200a4.00047,4.00047,0,0,1,3.57764,2.21094l16,32c.01611.03222.02148.06787.03662.1001a4.00817,4.00817,0,0,1,.21386.59033c.022.07666.05323.1499.07032.22754A3.97335,3.97335,0,0,1,220,72ZM46.47217,68H209.52783l-12-24H58.47217ZM212,208V76H44V208a4.00427,4.00427,0,0,0,4,4H208A4.00427,4.00427,0,0,0,212,208Z"/>
</svg>
