<svg id="Flat" xmlns="http://www.w3.org/2000/svg" viewBox="0 0 256 256">
  <path d="M212,92.22754V72a36.04061,36.04061,0,0,0-36-36H80A36.04061,36.04061,0,0,0,44,72V92.22754a35.99865,35.99865,0,0,0,0,71.55176V200a12.01375,12.01375,0,0,0,12,12H200a12.01375,12.01375,0,0,0,12-12V163.7793a35.99865,35.99865,0,0,0,0-71.55176ZM80,44h96a28.03146,28.03146,0,0,1,28,28V92.22754A36.04775,36.04775,0,0,0,172,128v4H84v-4A36.04775,36.04775,0,0,0,52,92.22754V72A28.03146,28.03146,0,0,1,80,44ZM208.29639,155.99854q-.14723-.011-.29639-.01075a3.99989,3.99989,0,0,0-4,4V200a4.00458,4.00458,0,0,1-4,4H56a4.00458,4.00458,0,0,1-4-4V159.98145a3.99979,3.99979,0,0,0-4-3.99366q-.14941,0-.29639.01075A28.00005,28.00005,0,1,1,76,128v40a4,4,0,0,0,8,0V140h88v28a4,4,0,0,0,8,0V128a28,28,0,1,1,28.29639,27.99854Z"/>
</svg>
