<svg xmlns="http://www.w3.org/2000/svg" viewBox="0 0 256 256"><path d="M159.1,185.5a3.9,3.9,0,0,1,0,5.6,3.9,3.9,0,0,1-2.8,1.2,3.8,3.8,0,0,1-2.8-1.2L132,169.7V232a4,4,0,0,1-8,0V169.7l-21.5,21.4a4,4,0,1,1-5.6-5.6l28.3-28.3a3.9,3.9,0,0,1,5.6,0ZM125.2,98.8a3.9,3.9,0,0,0,5.6,0l28.3-28.3a4,4,0,1,0-5.6-5.6L132,86.3V24a4,4,0,0,0-8,0V86.3L102.5,64.9a4,4,0,0,0-5.6,5.6ZM98.8,125.2,70.5,96.9a4,4,0,0,0-5.6,5.6L86.3,124H24a4,4,0,0,0,0,8H86.3L64.9,153.5a3.9,3.9,0,0,0,0,5.6,3.9,3.9,0,0,0,2.8,1.2,3.8,3.8,0,0,0,2.8-1.2l28.3-28.3A3.9,3.9,0,0,0,98.8,125.2ZM232,124H169.7l21.4-21.5a4,4,0,1,0-5.6-5.6l-28.3,28.3a3.9,3.9,0,0,0,0,5.6l28.3,28.3a3.8,3.8,0,0,0,2.8,1.2,3.9,3.9,0,0,0,2.8-1.2,3.9,3.9,0,0,0,0-5.6L169.7,132H232a4,4,0,0,0,0-8Z"/></svg>