<svg id="Flat" xmlns="http://www.w3.org/2000/svg" viewBox="0 0 256 256">
  <path d="M226.82739,170.8291l-47.99927,47.99951a3.99992,3.99992,0,0,1-5.65625-5.65722L214.34277,172H88A60,60,0,0,1,88,52h88a4,4,0,0,1,0,8H88a52,52,0,0,0,0,104H214.34277l-41.1709-41.17139a3.99992,3.99992,0,0,1,5.65625-5.65722l47.99927,47.99951a4.01763,4.01763,0,0,1,.49927.61084c.06543.09765.11011.20361.16589.30566a2.33467,2.33467,0,0,1,.32727.78809c.0337.11377.07776.22314.1012.34131a4.0123,4.0123,0,0,1,0,1.5664c-.02344.11817-.0675.22754-.1012.34131a2.33467,2.33467,0,0,1-.32727.78809c-.05578.102-.10046.208-.16589.30566A4.01763,4.01763,0,0,1,226.82739,170.8291Z"/>
</svg>
