<svg id="Flat" xmlns="http://www.w3.org/2000/svg" viewBox="0 0 256 256">
  <path d="M202.82812,82.82812a3.99853,3.99853,0,0,1-5.65625,0L156,41.65723V128A100.1127,100.1127,0,0,1,56,228a4,4,0,0,1,0-8,92.10478,92.10478,0,0,0,92-92V41.65723L106.82812,82.82812a3.99957,3.99957,0,0,1-5.65625-5.65625l47.99744-47.99755a4.04817,4.04817,0,0,1,.61218-.501c.09961-.06641.20752-.1123.31141-.16895a3.97948,3.97948,0,0,1,.3767-.19824,3.93266,3.93266,0,0,1,.41114-.12744c.11218-.0332.21948-.07666.33557-.09961a4.01269,4.01269,0,0,1,1.56738,0c.11621.02295.22376.06641.33618.09961a3.93688,3.93688,0,0,1,.4104.12744,3.98751,3.98751,0,0,1,.37781.19873c.10364.05664.21106.102.31043.16846a4.04817,4.04817,0,0,1,.61218.501l47.99743,47.99755A3.99854,3.99854,0,0,1,202.82812,82.82812Z"/>
</svg>
