<svg id="Flat" xmlns="http://www.w3.org/2000/svg" viewBox="0 0 256 256">
  <path d="M208,36H48A12.01343,12.01343,0,0,0,36,48V208a12.01343,12.01343,0,0,0,12,12H208a12.01343,12.01343,0,0,0,12-12V48A12.01343,12.01343,0,0,0,208,36Zm4,172a4.00427,4.00427,0,0,1-4,4H48a4.00427,4.00427,0,0,1-4-4V48a4.00427,4.00427,0,0,1,4-4H208a4.00427,4.00427,0,0,1,4,4Zm-40-80a4.0002,4.0002,0,0,1-4,4H97.65674l27.11279,27.11328a3.99992,3.99992,0,1,1-5.65723,5.65625l-33.94091-33.9414a3.99943,3.99943,0,0,1,0-5.65625L119.1123,91.23047a3.99992,3.99992,0,0,1,5.65723,5.65625L97.65674,124H168A4.0002,4.0002,0,0,1,172,128Z"/>
</svg>
