<svg id="Flat" xmlns="http://www.w3.org/2000/svg" viewBox="0 0 256 256">
  <path d="M227.66016,101.62738c-.05591.1023-.101.20862-.16651.30682a4.02287,4.02287,0,0,1-.49841.61011l-.00012.00012-.00537.00434a4.012,4.012,0,0,1-.60352.49322c-.10156.06793-.21167.11481-.31775.17243a2.30158,2.30158,0,0,1-.77478.32055c-.11487.03394-.22485.07825-.34387.10187a4.01546,4.01546,0,0,1-.73486.07416c-.01636.00018-.03162.00482-.048.00482h-48a4,4,0,0,1,0-8h38.34326L187.39746,68.603a84.00035,84.00035,0,1,0,0,118.79394,3.99992,3.99992,0,0,1,5.65625,5.65723,92.00019,92.00019,0,1,1,0-130.1084L220.167,90.05908V51.71582a4,4,0,0,1,8,0v48a4.011,4.011,0,0,1-.0791.78345c-.02331.11773-.06738.22656-.10083.34033a2.336,2.336,0,0,1-.3269.78778Z"/>
</svg>
