<svg id="Flat" xmlns="http://www.w3.org/2000/svg" viewBox="0 0 256 256">
  <path d="M208,36H48A12.01343,12.01343,0,0,0,36,48V208a12.01343,12.01343,0,0,0,12,12H208a12.01343,12.01343,0,0,0,12-12V48A12.01343,12.01343,0,0,0,208,36Zm4,172a4.00427,4.00427,0,0,1-4,4H48a4.00427,4.00427,0,0,1-4-4V48a4.00427,4.00427,0,0,1,4-4H208a4.00427,4.00427,0,0,1,4,4Zm-47.23047-76.76953a3.99943,3.99943,0,0,1,0,5.65625l-33.94092,33.9414a3.9997,3.9997,0,0,1-5.65722,0l-33.94092-33.9414a3.99992,3.99992,0,0,1,5.65723-5.65625L124,158.34277V88a4,4,0,0,1,8,0v70.34277l27.1123-27.1123A3.99972,3.99972,0,0,1,164.76953,131.23047Z"/>
</svg>
