<svg id="Flat" xmlns="http://www.w3.org/2000/svg" viewBox="0 0 256 256">
  <path d="M226.82556,106.83057l-47.99744,47.99755a3.99957,3.99957,0,0,1-5.65625-5.65625L214.34277,108H128a92.10478,92.10478,0,0,0-92,92,4,4,0,0,1-8,0A100.11269,100.11269,0,0,1,128,100h86.34277l-41.1709-41.17188a3.99957,3.99957,0,0,1,5.65625-5.65625l47.99744,47.99756a4.013,4.013,0,0,1,.50134.6128c.06446.09643.10865.20117.16382.30175a2.34679,2.34679,0,0,1,.32923.79175c.03357.114.07751.2229.10095.34082a4.01026,4.01026,0,0,1,0,1.5669c-.02344.11792-.06738.227-.10108.34106a2.34342,2.34342,0,0,1-.329.79126c-.05529.10083-.09936.20557-.16394.302A4.013,4.013,0,0,1,226.82556,106.83057Z"/>
</svg>
