<svg id="Flat" xmlns="http://www.w3.org/2000/svg" viewBox="0 0 256 256">
  <path d="M220,128A92.03027,92.03027,0,0,1,62.94629,193.05371a3.99957,3.99957,0,0,1,5.65625-5.65625,84.00052,84.00052,0,1,0,0-118.79443L41.48975,95.71582H79.833a4,4,0,0,1,0,8h-48c-.01642,0-.03162-.00464-.048-.00482a4.01493,4.01493,0,0,1-.73486-.07416c-.11883-.02356-.22864-.06781-.34338-.10168a2.29746,2.29746,0,0,1-.77429-.32026c-.10645-.0578-.21686-.10479-.31873-.17291a4.02214,4.02214,0,0,1-.60358-.49322l-.00531-.00434-.00012-.00012a4.01888,4.01888,0,0,1-.49835-.61011c-.066-.09875-.11121-.20568-.16748-.30859a2.33914,2.33914,0,0,1-.3266-.7879c-.03327-.11316-.077-.22132-.10028-.33844a4.01559,4.01559,0,0,1-.079-.78345v-48a4,4,0,0,1,8,0V90.05908L62.94629,62.9458A92,92,0,0,1,220,128Z"/>
</svg>
