<svg id="Flat" xmlns="http://www.w3.org/2000/svg" viewBox="0 0 256 256">
  <path d="M226.82812,98.82861a3.99971,3.99971,0,0,1-5.65625,0L180,57.65674V192a4.0002,4.0002,0,0,1-4,4H32a4,4,0,0,1,0-8H172V57.65674L130.82812,98.82861a3.99992,3.99992,0,0,1-5.65625-5.65722l48-48,.00538-.0044a4.01468,4.01468,0,0,1,.60351-.49316c.10132-.06775.21106-.1145.3169-.172a2.30059,2.30059,0,0,1,.77429-.32068c.11535-.03406.22571-.07849.34521-.10217a4.01025,4.01025,0,0,1,.73487-.0741c.01635-.00024.03161-.00488.048-.00488s.03162.00464.048.00488a4.01025,4.01025,0,0,1,.73487.0741c.11963.0238.23034.06824.34582.10242a2.29395,2.29395,0,0,1,.77466.321c.10547.05725.21484.10388.31592.17139a4.01468,4.01468,0,0,1,.60351.49316l.00537.0044,48,48A3.99971,3.99971,0,0,1,226.82812,98.82861Z"/>
</svg>
