<svg id="Flat" xmlns="http://www.w3.org/2000/svg" viewBox="0 0 256 256">
  <path d="M208,36H48A12.01343,12.01343,0,0,0,36,48V208a12.01343,12.01343,0,0,0,12,12H208a12.01343,12.01343,0,0,0,12-12V48A12.01343,12.01343,0,0,0,208,36Zm4,172a4.00427,4.00427,0,0,1-4,4H48a4.00427,4.00427,0,0,1-4-4V48a4.00427,4.00427,0,0,1,4-4H208a4.00427,4.00427,0,0,1,4,4Zm-53.17139-54.82812a3.99991,3.99991,0,1,1-5.65722,5.65624L104,109.65674V148a4,4,0,0,1-8,0V100a4.0002,4.0002,0,0,1,4-4h48a4,4,0,0,1,0,8H109.65674Z"/>
</svg>
