<svg id="Flat" xmlns="http://www.w3.org/2000/svg" viewBox="0 0 256 256">
  <path d="M132,40V216a4,4,0,0,1-8,0V40a4,4,0,0,1,8,0ZM96,124H25.65723L50.82812,98.82812a3.99957,3.99957,0,0,0-5.65624-5.65624L13.17432,125.16943a4.021,4.021,0,0,0-.50147.6128c-.06445.09716-.10889.20239-.16455.30371a2.347,2.347,0,0,0-.32861.7915c-.03369.11328-.07715.22168-.10059.33911a4.01026,4.01026,0,0,0,0,1.5669c.02344.11743.06738.22583.10059.33911a2.35233,2.35233,0,0,0,.32861.7915c.05566.10108.1001.20655.16455.30371a4.021,4.021,0,0,0,.50147.6128l31.99756,31.99755a3.99957,3.99957,0,1,0,5.65624-5.65624L25.65723,132H96a4,4,0,0,0,0-8Zm147.32715,6.21777c.06445-.09643.1084-.20117.16357-.302a4.03508,4.03508,0,0,0,.20362-.386,3.96368,3.96368,0,0,0,.12548-.40528c.0337-.114.07764-.22314.10108-.34106a4.01026,4.01026,0,0,0,0-1.5669c-.02344-.11792-.06738-.2268-.10108-.34082a3.94946,3.94946,0,0,0-.12548-.40552,4.0404,4.0404,0,0,0-.20362-.38623c-.05517-.10058-.09912-.20532-.16357-.30175a4.021,4.021,0,0,0-.50147-.6128L210.82812,93.17188a3.99957,3.99957,0,0,0-5.65624,5.65624L230.34277,124H160a4,4,0,0,0,0,8h70.34277l-25.17089,25.17188a3.99957,3.99957,0,1,0,5.65624,5.65624l31.99756-31.99755A4.021,4.021,0,0,0,243.32715,130.21777Z"/>
</svg>
