<svg id="Flat" xmlns="http://www.w3.org/2000/svg" viewBox="0 0 256 256">
  <path d="M178.82812,85.17187a3.99854,3.99854,0,0,1,0,5.65625L73.65625,196H164a4,4,0,0,1,0,8H64a4.01005,4.01005,0,0,1-.7832-.079c-.11768-.02338-.22657-.06732-.33985-.10077a2.34959,2.34959,0,0,1-.79-.32782c-.10156-.05572-.20752-.1004-.30517-.16565a4.01911,4.01911,0,0,1-1.1084-1.10852c-.06592-.09863-.11133-.2055-.16748-.30835a3.914,3.914,0,0,1-.19971-.38,3.83691,3.83691,0,0,1-.126-.40515c-.0337-.11414-.07764-.22345-.10108-.34162a4.01527,4.01527,0,0,1-.07812-.77093L60,200V100a4,4,0,0,1,8,0v90.34351L173.17187,85.17187A3.99854,3.99854,0,0,1,178.82812,85.17187ZM216,36.00391H40a4,4,0,0,0,0,8H216a4,4,0,0,0,0-8Z"/>
</svg>
