<svg id="Flat" xmlns="http://www.w3.org/2000/svg" viewBox="0 0 256 256">
  <path d="M115.99219,144.00684,116,203.999a4,4,0,0,1-8,.002l-.00659-50.33789L42.7998,218.85645a3.99992,3.99992,0,0,1-5.65722-5.65625l65.19409-65.19385L51.99951,148A4,4,0,0,1,52,140h.00049l59.99219.00781A3.99989,3.99989,0,0,1,115.99219,144.00684ZM208,36H72A12.01343,12.01343,0,0,0,60,48V96a4,4,0,0,0,8,0V48a4.00427,4.00427,0,0,1,4-4H208a4.00427,4.00427,0,0,1,4,4V184a4.00427,4.00427,0,0,1-4,4H160a4,4,0,0,0,0,8h48a12.01343,12.01343,0,0,0,12-12V48A12.01343,12.01343,0,0,0,208,36Z"/>
</svg>
