<svg id="Flat" xmlns="http://www.w3.org/2000/svg" viewBox="0 0 256 256">
  <path d="M227.65784,101.63159c-.0553.10071-.09937.20551-.16394.30206a4.01719,4.01719,0,0,1-1.10852,1.10877c-.09864.066-.20557.11121-.30848.16742a2.33715,2.33715,0,0,1-.78735.32648c-.1134.03332-.22192.07721-.33911.10052a4.01545,4.01545,0,0,1-.78345.079h-48a4,4,0,0,1,0-8h38.34375L187.39746,68.60254a84.09569,84.09569,0,0,0-118.79492,0,3.99957,3.99957,0,0,1-5.65625-5.65625,91.99945,91.99945,0,0,1,130.10742,0L220.167,90.05957V51.71582a4,4,0,0,1,8,0v48a4.01058,4.01058,0,0,1-.0791.78345c-.02344.118-.06738.227-.10107.34094a2.3461,2.3461,0,0,1-.329.79138Zm-40.26038,85.76587a84.09569,84.09569,0,0,1-118.79492,0L41.48926,160.28418H79.833a4,4,0,0,0,0-8h-48a4.01754,4.01754,0,0,0-.78375.079c-.116.02313-.22333.06659-.33551.09943a2.33364,2.33364,0,0,0-.78785.326c-.10394.05664-.21185.10241-.3114.169a4.01817,4.01817,0,0,0-1.1084,1.10871c-.06488.0971-.10931.20239-.16479.30365a2.34894,2.34894,0,0,0-.3288.79168c-.03332.11334-.07715.22174-.10046.33905a4.01513,4.01513,0,0,0-.079.78345v48a4,4,0,0,0,8,0V165.94043l27.11328,27.11328a91.99945,91.99945,0,0,0,130.10742,0,3.99957,3.99957,0,0,0-5.65625-5.65625Z"/>
</svg>
