<svg id="Flat" xmlns="http://www.w3.org/2000/svg" viewBox="0 0 256 256">
  <path d="M220,99.999a4,4,0,0,1-8,.002l-.00684-50.33789L146.7998,114.85645a3.99974,3.99974,0,1,1-5.65673-5.65625l65.19384-65.19385L155.99951,44A4,4,0,0,1,156,36h.00049l59.99219.00781a4.00021,4.00021,0,0,1,3.99951,3.999ZM184,140a4.0002,4.0002,0,0,0-4,4v64a4.00427,4.00427,0,0,1-4,4H48a4.00427,4.00427,0,0,1-4-4V80a4.00427,4.00427,0,0,1,4-4h64a4,4,0,0,0,0-8H48A12.01343,12.01343,0,0,0,36,80V208a12.01343,12.01343,0,0,0,12,12H176a12.01343,12.01343,0,0,0,12-12V144A4.0002,4.0002,0,0,0,184,140Z"/>
</svg>
