<svg id="Flat" xmlns="http://www.w3.org/2000/svg" viewBox="0 0 256 256">
  <path d="M204,32a4.0002,4.0002,0,0,1-4,4,92.10478,92.10478,0,0,0-92,92v86.34277l41.17187-41.1709a3.99957,3.99957,0,0,1,5.65625,5.65625l-47.99743,47.99756a4.01352,4.01352,0,0,1-.61231.501c-.09863.06592-.20556.11133-.30847.16748a2.33784,2.33784,0,0,1-.78735.32617c-.1134.03369-.22193.07715-.33911.10059a3.91941,3.91941,0,0,1-1.5669,0c-.11706-.02295-.22534-.0669-.3385-.1001a3.8899,3.8899,0,0,1-.40832-.12695,4.0207,4.0207,0,0,1-.37867-.19922c-.10327-.05664-.21044-.102-.30944-.168a4.01352,4.01352,0,0,1-.61231-.501L53.17187,178.82812a3.99957,3.99957,0,0,1,5.65625-5.65625L100,214.34277V128A100.11269,100.11269,0,0,1,200,28,4.0002,4.0002,0,0,1,204,32Z"/>
</svg>
