<svg id="Flat" xmlns="http://www.w3.org/2000/svg" viewBox="0 0 256 256">
  <path d="M173.17187,133.17139,214.34277,92H88a52,52,0,0,0,0,104h88a4,4,0,0,1,0,8H88A60,60,0,0,1,88,84H214.34277l-41.1709-41.17139a3.99992,3.99992,0,0,1,5.65625-5.65722L226.82739,85.1709a4.01763,4.01763,0,0,1,.49927.61084c.06543.09765.11011.20361.16589.30566a2.33467,2.33467,0,0,1,.32727.78809c.0337.11377.07776.22314.1012.34131a4.0123,4.0123,0,0,1,0,1.5664c-.02344.11817-.0675.22754-.1012.34131a2.33467,2.33467,0,0,1-.32727.78809c-.05578.10205-.10046.208-.16589.30566a4.01763,4.01763,0,0,1-.49927.61084l-47.99927,47.99951a3.99992,3.99992,0,0,1-5.65625-5.65722Z"/>
</svg>
