<svg id="Flat" xmlns="http://www.w3.org/2000/svg" viewBox="0 0 256 256">
  <path d="M236,80v72a4,4,0,0,1-8,0V89.65625L122.82812,194.82812a3.99853,3.99853,0,0,1-5.65625,0l-96-96a3.99957,3.99957,0,0,1,5.65625-5.65625L120,186.34277,222.34375,84H160a4,4,0,0,1,0-8h72a4.01238,4.01238,0,0,1,.78369.0791c.11621.02307.22376.06665.33618.09961a2.34186,2.34186,0,0,1,.78821.32617c.10364.05664.21106.1023.31043.16858a4.01673,4.01673,0,0,1,1.10839,1.10877c.06446.09643.10865.20117.16382.30175a2.34679,2.34679,0,0,1,.32923.79175c.03357.11389.07751.2229.10095.34082A4.01,4.01,0,0,1,236,80Z"/>
</svg>
