<svg id="Flat" xmlns="http://www.w3.org/2000/svg" viewBox="0 0 256 256">
  <path d="M218.82812,178.82861l-48,48-.00524.0044a4.01039,4.01039,0,0,1-.60389.49316c-.10131.06787-.21118.11475-.317.17212a2.31221,2.31221,0,0,1-.78162.32275c-.11255.03321-.22046.07691-.33691.09986a3.91941,3.91941,0,0,1-1.5669,0c-.11633-.02295-.22387-.06665-.33642-.09961a3.933,3.933,0,0,1-.41065-.12744,3.9753,3.9753,0,0,1-.37036-.19483c-.10632-.05786-.21655-.10473-.31811-.17285a4.01039,4.01039,0,0,1-.60389-.49316l-.00525-.0044-48-48a3.99992,3.99992,0,0,1,5.65625-5.65722L164,214.34326V88A52,52,0,0,0,60,88v88a4,4,0,0,1-8,0V88a60,60,0,0,1,120,0V214.34326l41.17187-41.17187a3.99992,3.99992,0,1,1,5.65625,5.65722Z"/>
</svg>
