<svg id="Flat" xmlns="http://www.w3.org/2000/svg" viewBox="0 0 256 256">
  <path d="M196,32V176a4.0002,4.0002,0,0,1-4,4H57.65723l41.17089,41.17139a3.99992,3.99992,0,1,1-5.65625,5.65722l-48-48h-.00012a4.02834,4.02834,0,0,1-.49841-.61035c-.06592-.09863-.11108-.20556-.16748-.30859a3.90126,3.90126,0,0,1-.19971-.37964,3.94472,3.94472,0,0,1-.12683-.4082c-.03332-.113-.077-.2212-.10022-.33838a4.01026,4.01026,0,0,1,0-1.5669c.02319-.11694.0669-.22534.10022-.33838a2.33843,2.33843,0,0,1,.32666-.78808c.05628-.10279.10144-.20972.16736-.30835a4.02834,4.02834,0,0,1,.49841-.61035h.00012l48-48a3.99992,3.99992,0,1,1,5.65625,5.65722L57.65723,172H188V32a4,4,0,0,1,8,0Z"/>
</svg>
