<svg id="Flat" xmlns="http://www.w3.org/2000/svg" viewBox="0 0 256 256">
  <path d="M210.82825,178.82861h-.00013l-48,48a3.99992,3.99992,0,0,1-5.65625-5.65722L198.34277,180H64a4.0002,4.0002,0,0,1-4-4V32a4,4,0,0,1,8,0V172H198.34277l-41.1709-41.17139a3.99992,3.99992,0,0,1,5.65625-5.65722l48,48h.00013a4.02834,4.02834,0,0,1,.49841.61035c.06543.09814.11047.20434.1665.30664a3.97146,3.97146,0,0,1,.20093.38183,3.91958,3.91958,0,0,1,.126.406c.03345.11377.07751.22266.10083.34033a4.01026,4.01026,0,0,1,0,1.5669c-.02332.11767-.06738.22656-.10083.34033a3.90157,3.90157,0,0,1-.126.406,3.94471,3.94471,0,0,1-.20093.38183c-.0559.1023-.10095.2085-.1665.30664A4.02834,4.02834,0,0,1,210.82825,178.82861Z"/>
</svg>
