<svg id="Flat" xmlns="http://www.w3.org/2000/svg" viewBox="0 0 256 256">
  <path d="M210.82812,82.82849v.00012l-48,48a3.99992,3.99992,0,0,1-5.65625-5.65722L198.34277,84H68V224a4,4,0,0,1-8,0V80a4.0002,4.0002,0,0,1,4-4H198.34277l-41.1709-41.17139a3.99992,3.99992,0,0,1,5.65625-5.65722l48,48v.00012a3.99865,3.99865,0,0,1,.49854.61011c.06543.09814.11035.20446.1665.30676a2.33028,2.33028,0,0,1,.32715.78784c.03321.11377.07715.22266.10059.34033a4.01026,4.01026,0,0,1,0,1.5669c-.02344.11767-.06738.22656-.10059.34033a4.08562,4.08562,0,0,1-.126.406,3.949,3.949,0,0,1-.20118.38183c-.05615.1023-.10107.2085-.1665.30676A3.99865,3.99865,0,0,1,210.82812,82.82849Z"/>
</svg>
