<svg xmlns="http://www.w3.org/2000/svg" viewBox="0 0 256 256"><path d="M212,48V88a4,4,0,0,1-8,0V57.7l-49.2,49.1a3.9,3.9,0,0,1-5.6,0,3.9,3.9,0,0,1,0-5.6L198.3,52H168a4,4,0,0,1,0-8h40A4,4,0,0,1,212,48ZM101.2,149.2,52,198.3V168a4,4,0,0,0-8,0v40a4,4,0,0,0,4,4H88a4,4,0,0,0,0-8H57.7l49.1-49.2a4,4,0,0,0-5.6-5.6ZM208,164a4,4,0,0,0-4,4v30.3l-49.2-49.1a4,4,0,0,0-5.6,5.6L198.3,204H168a4,4,0,0,0,0,8h40a4,4,0,0,0,4-4V168A4,4,0,0,0,208,164ZM57.7,52H88a4,4,0,0,0,0-8H48a4,4,0,0,0-4,4V88a4,4,0,0,0,8,0V57.7l49.2,49.1a3.9,3.9,0,0,0,5.6,0,3.9,3.9,0,0,0,0-5.6Z"/></svg>