<svg id="Flat" xmlns="http://www.w3.org/2000/svg" viewBox="0 0 256 256">
  <path d="M212,48V96a4,4,0,0,1-8,0V57.65674l-49.17188,49.17187a3.99991,3.99991,0,0,1-5.65624-5.65722L198.34326,52H160a4,4,0,0,1,0-8h48c.0166,0,.03174.00464.04785.00488a3.99438,3.99438,0,0,1,.73486.07422c.11963.02368.23047.06812.3462.1023a2.29014,2.29014,0,0,1,.77441.321c.10547.05713.21484.104.31592.17139a4.01333,4.01333,0,0,1,.60351.49316l.00537.0044h0a4.00638,4.00638,0,0,1,.49854.61035c.06543.09814.11035.20434.1665.30664a2.33028,2.33028,0,0,1,.32715.78784c.03321.11377.07715.22266.10059.34033A3.99092,3.99092,0,0,1,212,48ZM101.17188,149.17139,52,198.34326V160a4,4,0,0,0-8,0v48a3.99092,3.99092,0,0,0,.0791.78345c.02344.11718.0669.22534.1001.33838a2.34645,2.34645,0,0,0,.32666.78784c.05615.103.10156.21.16748.30859a4.00638,4.00638,0,0,0,.49854.61035h0l.00537.0044a4.01333,4.01333,0,0,0,.60351.49316c.102.06812.21192.115.31836.17285a2.324,2.324,0,0,0,.78076.32227c.1128.033.22022.07666.33692.09961A4.00558,4.00558,0,0,0,48,212H96a4,4,0,0,0,0-8H57.65674l49.17138-49.17139a3.99991,3.99991,0,1,0-5.65624-5.65722Z"/>
</svg>
