<svg id="Flat" xmlns="http://www.w3.org/2000/svg" viewBox="0 0 256 256">
  <path d="M228,200a4,4,0,0,1-8,0,92.10478,92.10478,0,0,0-92-92H41.65723l41.17089,41.17187a3.99957,3.99957,0,1,1-5.65625,5.65625L29.17444,106.83057a4.01659,4.01659,0,0,1-.50134-.6128c-.065-.09716-.10932-.20263-.16486-.30371a2.35084,2.35084,0,0,1-.32867-.7915c-.03333-.11328-.07721-.22168-.10053-.33911a4.01522,4.01522,0,0,1,0-1.5669c.02332-.11743.06714-.22583.10046-.33911a2.346,2.346,0,0,1,.3288-.7915c.05548-.10132.09992-.20655.1648-.30371a4.01659,4.01659,0,0,1,.50134-.6128L77.17187,53.17187a3.99957,3.99957,0,0,1,5.65625,5.65625L41.65723,100H128A100.11269,100.11269,0,0,1,228,200Z"/>
</svg>
