<svg id="Flat" xmlns="http://www.w3.org/2000/svg" viewBox="0 0 256 256">
  <path d="M227.69531,134.46973A3.99968,3.99968,0,0,0,224,132H180V104a4.0002,4.0002,0,0,0-4-4H80a4.0002,4.0002,0,0,0-4,4v28H32a4.00016,4.00016,0,0,0-2.82861,6.82812l96,96a3.9997,3.9997,0,0,0,5.65722,0l96-96A3.99854,3.99854,0,0,0,227.69531,134.46973ZM128,226.34277,41.65674,140H80a4.0002,4.0002,0,0,0,4-4V108h88v28a4.0002,4.0002,0,0,0,4,4h38.34326ZM76,40a4.0002,4.0002,0,0,1,4-4h96a4,4,0,0,1,0,8H80A4.0002,4.0002,0,0,1,76,40Zm0,32a4.0002,4.0002,0,0,1,4-4h96a4,4,0,0,1,0,8H80A4.0002,4.0002,0,0,1,76,72Z"/>
</svg>
