<svg id="Flat" xmlns="http://www.w3.org/2000/svg" viewBox="0 0 256 256">
  <path d="M228,184a4,4,0,0,1-8,0A91.99984,91.99984,0,0,0,62.94629,118.94629L37.77441,144.11816H92.11816a4,4,0,0,1,0,8h-64a4.03169,4.03169,0,0,1-.78375-.0791c-.11542-.023-.22211-.0664-.33368-.09863a2.339,2.339,0,0,1-.7879-.32568c-.10455-.05713-.21307-.103-.31323-.16993a4.026,4.026,0,0,1-1.10834-1.10888c-.06494-.09717-.10931-.20264-.16486-.30371a3.972,3.972,0,0,1-.20221-.38428,3.9069,3.9069,0,0,1-.12646-.40723c-.03333-.11328-.07721-.22168-.10053-.33935a4.01022,4.01022,0,0,1-.079-.78321v-64a4,4,0,0,1,8,0v54.34375L57.29,113.29A100,100,0,0,1,228,184Z"/>
</svg>
