<svg id="Flat" xmlns="http://www.w3.org/2000/svg" viewBox="0 0 256 256">
  <path d="M187.32275,130.21887a4.01684,4.01684,0,0,1-.48437.5929l-.01367.01684-72,72a4.00009,4.00009,0,0,1-5.65674-5.65722L174.33936,132H31.99609a4,4,0,0,1,0-8H174.33936L109.168,58.82861a4.00009,4.00009,0,0,1,5.65674-5.65722l72,72,.01367.01684a4.01684,4.01684,0,0,1,.48437.5929c.0669.1001.1128.20862.16993.313a2.31645,2.31645,0,0,1,.32373.78186c.0332.11389.07763.2229.10107.34082a4.0265,4.0265,0,0,1,0,1.5664c-.02344.11792-.06787.22705-.10107.34095a2.318,2.318,0,0,1-.32373.78161C187.43555,130.01025,187.38965,130.11865,187.32275,130.21887ZM216,36a4.0002,4.0002,0,0,0-4,4V216a4,4,0,0,0,8,0V40A4.0002,4.0002,0,0,0,216,36Z"/>
</svg>
