<svg id="Flat" xmlns="http://www.w3.org/2000/svg" viewBox="0 0 256 256">
  <path d="M60,156V56l.001-.01221a4.01527,4.01527,0,0,1,.07812-.77093c.02344-.11792.06738-.227.10059-.34094a3.97336,3.97336,0,0,1,.12646-.40607,3.85529,3.85529,0,0,1,.19776-.37573c.05664-.10443.10254-.21289.16992-.313a4.0149,4.0149,0,0,1,.48388-.5929l.01416-.01684c.00684-.00708.01563-.0116.02247-.01862a4.02182,4.02182,0,0,1,.58691-.47919c.09863-.066.206-.11139.30908-.16772a2.30534,2.30534,0,0,1,.77588-.32282c.11719-.03485.22949-.08.35108-.10412a4.02377,4.02377,0,0,1,.73437-.074C63.96826,52.0047,63.9834,52,64,52H164a4,4,0,0,1,0,8H73.65723L178.82812,165.17139a3.99992,3.99992,0,1,1-5.65625,5.65722L68,65.657V156a4,4,0,0,1-8,0Zm156,55.99609H40a4,4,0,0,0,0,8H216a4,4,0,0,0,0-8Z"/>
</svg>
