<svg id="Flat" xmlns="http://www.w3.org/2000/svg" viewBox="0 0 256 256">
  <path d="M208,36H48A12.01343,12.01343,0,0,0,36,48V208a12.01343,12.01343,0,0,0,12,12H208a12.01343,12.01343,0,0,0,12-12V48A12.01343,12.01343,0,0,0,208,36Zm4,172a4.00427,4.00427,0,0,1-4,4H48a4.00427,4.00427,0,0,1-4-4V48a4.00427,4.00427,0,0,1,4-4H208a4.00427,4.00427,0,0,1,4,4ZM158.82861,97.17188a3.99943,3.99943,0,0,1,0,5.65625L109.65674,152H148a4,4,0,0,1,0,8H100a4.0002,4.0002,0,0,1-4-4V108a4,4,0,0,1,8,0v38.34326l49.17139-49.17138A3.99971,3.99971,0,0,1,158.82861,97.17188Z"/>
</svg>
