<svg id="Flat" xmlns="http://www.w3.org/2000/svg" viewBox="0 0 256 256">
  <path d="M228,112a60.06812,60.06812,0,0,1-60,60H41.65723l41.17089,41.17187a3.99957,3.99957,0,1,1-5.65625,5.65625l-47.99847-47.998a4.045,4.045,0,0,1-.50018-.61182c-.065-.09765-.1095-.20312-.1651-.3042a3.97021,3.97021,0,0,1-.20215-.38427,3.93036,3.93036,0,0,1-.126-.40577c-.03345-.11377-.07757-.22265-.10095-.34082a4.0123,4.0123,0,0,1,0-1.5664c.02338-.11817.0675-.22705.10095-.34082a3.93036,3.93036,0,0,1,.126-.40577,3.97021,3.97021,0,0,1,.20215-.38427c.0556-.10108.1001-.20655.1651-.3042a4.02228,4.02228,0,0,1,.50049-.61182l47.99816-47.998a3.99957,3.99957,0,0,1,5.65625,5.65625L41.65723,164H168a52,52,0,0,0,0-104H80a4,4,0,0,1,0-8h88A60.06812,60.06812,0,0,1,228,112Z"/>
</svg>
