<svg id="Flat" xmlns="http://www.w3.org/2000/svg" viewBox="0 0 256 256">
  <path d="M212,48V88a4,4,0,0,1-8,0V57.65674l-49.17188,49.17187a3.99991,3.99991,0,0,1-5.65624-5.65722L198.34326,52H168a4,4,0,0,1,0-8h39.99951a4.0001,4.0001,0,0,1,.78418.0791c.11475.023.22119.06592.332.09815a3.99678,3.99678,0,0,1,.415.1289,3.86152,3.86152,0,0,1,.36963.19483c.10645.05761.2168.10449.31836.17285a4.02181,4.02181,0,0,1,1.10791,1.10791c.06494.09668.10889.20166.16455.30273a4.0293,4.0293,0,0,1,.20313.38574,3.94351,3.94351,0,0,1,.125.4043c.03369.11426.07812.22363.10156.34229A3.98649,3.98649,0,0,1,212,48ZM101.17188,149.17139,52,198.34326V168a4,4,0,0,0-8,0v40a3.98649,3.98649,0,0,0,.0791.7832c.02344.11768.06738.22608.10059.33936a2.34269,2.34269,0,0,0,.32666.78857c.05615.10254.10107.209.167.30713a4.02,4.02,0,0,0,1.10742,1.10791c.10108.06787.21094.11426.31641.17188a3.91915,3.91915,0,0,0,.37256.1958,3.86382,3.86382,0,0,0,.40625.126c.11377.0337.22314.07764.34082.10108A3.99025,3.99025,0,0,0,48,212H88a4,4,0,0,0,0-8H57.65674l49.17138-49.17139a3.99991,3.99991,0,1,0-5.65624-5.65722ZM208,164a4.0002,4.0002,0,0,0-4,4v30.34326l-49.17188-49.17187a3.99991,3.99991,0,1,0-5.65624,5.65722L198.34326,204H168a4,4,0,0,0,0,8h40a3.99025,3.99025,0,0,0,.7832-.0791c.11817-.02344.22754-.06738.3418-.10108a2.32248,2.32248,0,0,0,.77881-.32226c.105-.05762.21435-.104.31543-.17139a4.02,4.02,0,0,0,1.10742-1.10791c.06543-.09765.11035-.20361.166-.30566a4.08485,4.08485,0,0,0,.20166-.38281,3.96368,3.96368,0,0,0,.12548-.40528c.0337-.11377.07764-.22314.10108-.34131A3.98649,3.98649,0,0,0,212,208V168A4.0002,4.0002,0,0,0,208,164ZM57.65674,52H88a4,4,0,0,0,0-8H48.00049a4.0001,4.0001,0,0,0-.78418.0791c-.11475.02246-.2207.06592-.33154.09815a4.00537,4.00537,0,0,0-.41553.1289,3.94939,3.94939,0,0,0-.36865.19385c-.10694.05811-.21729.10547-.31934.17383a4.02181,4.02181,0,0,0-1.10791,1.10791c-.06494.09765-.10986.20312-.165.3042a3.892,3.892,0,0,0-.20215.38427,3.97738,3.97738,0,0,0-.12646.40577c-.03321.11377-.07715.22265-.10059.34082A3.98649,3.98649,0,0,0,44,48V88a4,4,0,0,0,8,0V57.65674l49.17188,49.17187a3.99991,3.99991,0,1,0,5.65624-5.65722Z"/>
</svg>
