<svg id="Flat" xmlns="http://www.w3.org/2000/svg" viewBox="0 0 256 256">
  <path d="M204,88v88a4,4,0,0,1-8,0V88A52,52,0,0,0,92,88V214.34326l41.17187-41.17139a3.99957,3.99957,0,0,1,5.65625,5.65625L90.82983,226.82666a4.0064,4.0064,0,0,1-.61132.5c-.09888.06592-.20606.11133-.30921.168a4.13973,4.13973,0,0,1-.37939.19971,4.05445,4.05445,0,0,1-.403.125c-.115.03369-.225.07812-.34387.10156a3.91575,3.91575,0,0,1-1.56616,0c-.11878-.02344-.22852-.06787-.34314-.10156a3.8105,3.8105,0,0,1-.40381-.12549,3.99692,3.99692,0,0,1-.3783-.19873c-.10351-.05664-.21105-.10254-.3103-.16846a4.005,4.005,0,0,1-.6112-.5l-47.9983-47.99854a3.99957,3.99957,0,0,1,5.65625-5.65625L84,214.34326V88a60,60,0,0,1,120,0Z"/>
</svg>
