<svg id="Flat" xmlns="http://www.w3.org/2000/svg" viewBox="0 0 256 256">
  <path d="M226.82812,106.82813l-48,48a3.99957,3.99957,0,0,1-5.65625-5.65625L218.34277,104l-45.1709-45.17187a3.99957,3.99957,0,0,1,5.65625-5.65625l48,48A3.99854,3.99854,0,0,1,226.82812,106.82813Zm-47.50122-.61036c.06458-.09668.10865-.20117.16394-.30175a4.01088,4.01088,0,0,0,.20325-.38623,3.933,3.933,0,0,0,.12573-.40528c.0337-.11426.07764-.22314.10108-.34131a4.00772,4.00772,0,0,0,0-1.5664c-.02344-.11817-.06738-.22705-.10095-.34131a3.96592,3.96592,0,0,0-.12586-.40528,3.87558,3.87558,0,0,0-.20337-.38623c-.05517-.10058-.09936-.20507-.16382-.30175a4.001,4.001,0,0,0-.50134-.6128L130.82812,53.17188a3.99957,3.99957,0,0,0-5.65625,5.65625L166.34277,100H128A100.11269,100.11269,0,0,0,28,200a4,4,0,0,0,8,0,92.10478,92.10478,0,0,1,92-92h38.34277l-41.1709,41.17188a3.99957,3.99957,0,1,0,5.65625,5.65625l47.99744-47.99756A4.001,4.001,0,0,0,179.3269,106.21777Z"/>
</svg>
