<svg id="Flat" xmlns="http://www.w3.org/2000/svg" viewBox="0 0 256 256">
  <path d="M231.37268,150.03418c-.0553.10059-.09936.20508-.16394.30176a4.0238,4.0238,0,0,1-1.1084,1.10888c-.09985.0669-.208.1128-.31225.16944a3.95936,3.95936,0,0,1-.37574.19775,3.85247,3.85247,0,0,1-.41259.12793c-.11182.03272-.21851.07617-.33423.09912a4.03108,4.03108,0,0,1-.78369.0791h-64a4,4,0,0,1,0-8h54.34375l-25.17188-25.17187A92,92,0,0,0,36,184a4,4,0,0,1-8,0,99.999,99.999,0,0,1,170.71-70.71l25.17188,25.17187V84.11816a4,4,0,1,1,8,0v64a4.00492,4.00492,0,0,1-.07911.78321c-.02343.11816-.06738.22705-.10107.34131a3.93524,3.93524,0,0,1-.12573.40527A4.01311,4.01311,0,0,1,231.37268,150.03418Z"/>
</svg>
