<svg id="Flat" xmlns="http://www.w3.org/2000/svg" viewBox="0 0 256 256">
  <path d="M226.82556,154.83057l-47.99744,47.99755a3.99957,3.99957,0,0,1-5.65625-5.65625L214.34277,156H128A100.11269,100.11269,0,0,1,28,56a4,4,0,0,1,8,0,92.10478,92.10478,0,0,0,92,92h86.34277l-41.1709-41.17188a3.99957,3.99957,0,0,1,5.65625-5.65625l47.99744,47.99756a4.001,4.001,0,0,1,.50134.6128c.06446.09668.10865.20117.16382.30175a3.87558,3.87558,0,0,1,.20337.38623,3.96592,3.96592,0,0,1,.12586.40528c.03357.11426.07751.22314.10095.34131a4.00772,4.00772,0,0,1,0,1.5664c-.02344.11817-.06738.22705-.10108.34131a3.933,3.933,0,0,1-.12573.40528,4.01088,4.01088,0,0,1-.20325.38623c-.05529.10058-.09936.20507-.16394.30175A4.001,4.001,0,0,1,226.82556,154.83057Z"/>
</svg>
