<svg id="Flat" xmlns="http://www.w3.org/2000/svg" viewBox="0 0 256 256">
  <path d="M29.614,103.04205a4.02144,4.02144,0,0,1-.60382-.49328l-.00525-.00434-.00012-.00012a4.01888,4.01888,0,0,1-.49835-.61011c-.066-.09875-.11121-.20568-.16748-.30859a2.33914,2.33914,0,0,1-.3266-.7879c-.03327-.11316-.077-.22132-.10028-.33844a4.01559,4.01559,0,0,1-.079-.78345v-48a4,4,0,0,1,8,0V90.05908L62.94629,62.9458a92.10516,92.10516,0,0,1,130.10742,0,3.99992,3.99992,0,1,1-5.65625,5.65723,84.09567,84.09567,0,0,0-118.79492,0L41.48975,95.71582H79.833a4,4,0,0,1,0,8h-48a4.01484,4.01484,0,0,1-.78339-.079c-.11639-.02313-.224-.06677-.33649-.09973a2.31811,2.31811,0,0,1-.78106-.32239C29.82581,103.157,29.71564,103.11005,29.614,103.04205Zm198.47394,52.45868c-.02331-.11773-.06738-.22656-.10083-.34027a3.91023,3.91023,0,0,0-.126-.40613,3.97362,3.97362,0,0,0-.20092-.38183c-.056-.1023-.10108-.20856-.16651-.3067a4.02287,4.02287,0,0,0-.49841-.61011l-.00012-.00012-.00537-.00434a4.012,4.012,0,0,0-.60352-.49322c-.10107-.06751-.21045-.11414-.31592-.17145a2.29868,2.29868,0,0,0-.77466-.321c-.11547-.03418-.22619-.07868-.34582-.10242a4.01546,4.01546,0,0,0-.73486-.07416c-.01636-.00018-.03162-.00482-.048-.00482h-48a4,4,0,0,0,0,8h38.34326L187.39746,187.397a84.09567,84.09567,0,0,1-118.79492,0,3.99992,3.99992,0,0,0-5.65625,5.65723,92.10457,92.10457,0,0,0,130.10742,0L220.167,165.94092v38.34326a4,4,0,0,0,8,0v-48A4.01058,4.01058,0,0,0,228.08789,155.50073Z"/>
</svg>
