<svg id="Flat" xmlns="http://www.w3.org/2000/svg" viewBox="0 0 256 256">
  <path d="M204,224a4.0002,4.0002,0,0,1-4,4A100.11269,100.11269,0,0,1,100,128V41.65723L58.82812,82.82812a3.99957,3.99957,0,0,1-5.65625-5.65625l47.99744-47.99755a4.03373,4.03373,0,0,1,.61218-.501c.09961-.06641.20752-.1123.31141-.16895a2.33848,2.33848,0,0,1,.78784-.32592c.11218-.033.21948-.07642.33557-.09937a4.01269,4.01269,0,0,1,1.56738,0c.11621.02295.22376.06665.33618.09961a2.34186,2.34186,0,0,1,.78821.32617c.10364.05664.21106.1023.31043.16846a4.03373,4.03373,0,0,1,.61218.501l47.99743,47.99755a3.99957,3.99957,0,1,1-5.65625,5.65625L108,41.65723V128a92.10478,92.10478,0,0,0,92,92A4.0002,4.0002,0,0,1,204,224Z"/>
</svg>
