<svg id="Flat" xmlns="http://www.w3.org/2000/svg" viewBox="0 0 256 256">
  <path d="M208,36H48A12.01343,12.01343,0,0,0,36,48V208a12.01343,12.01343,0,0,0,12,12H208a12.01343,12.01343,0,0,0,12-12V48A12.01343,12.01343,0,0,0,208,36Zm4,172a4.00427,4.00427,0,0,1-4,4H48a4.00427,4.00427,0,0,1-4-4V48a4.00427,4.00427,0,0,1,4-4H208a4.00427,4.00427,0,0,1,4,4Zm-47.23047-88.88672a3.99992,3.99992,0,1,1-5.65723,5.65625L132,97.65723V168a4,4,0,0,1-8,0V97.65723l-27.1123,27.1123a3.99992,3.99992,0,0,1-5.65723-5.65625l33.94092-33.9414a3.9997,3.9997,0,0,1,5.65722,0Z"/>
</svg>
