<svg id="Flat" xmlns="http://www.w3.org/2000/svg" viewBox="0 0 256 256">
  <path d="M114.82812,189.17187a3.99854,3.99854,0,0,1,0,5.65625l-31.998,31.99854a4.0363,4.0363,0,0,1-.61133.5c-.09912.06592-.20605.11133-.30957.168a4.12418,4.12418,0,0,1-.37939.19971,4.00212,4.00212,0,0,1-.40284.125c-.11474.03369-.22509.07812-.34375.10156a3.91693,3.91693,0,0,1-1.5664,0c-.11866-.02344-.22852-.06787-.34326-.10156a3.811,3.811,0,0,1-.40333-.12549,3.983,3.983,0,0,1-.37841-.19873c-.10352-.05664-.21094-.10254-.31055-.16846a4.0363,4.0363,0,0,1-.61133-.5L45.17187,194.82812a3.99957,3.99957,0,0,1,5.65625-5.65625L76,214.34326V32a4,4,0,0,1,8,0V214.34326l25.17187-25.17139A3.99854,3.99854,0,0,1,114.82812,189.17187Zm96-128-31.998-31.998a4.01482,4.01482,0,0,0-.61133-.50049c-.09961-.06641-.207-.11182-.311-.16846a3.80146,3.80146,0,0,0-.37744-.19873,4.0525,4.0525,0,0,0-.40332-.12549c-.11523-.03369-.22509-.07812-.34424-.10156a3.99819,3.99819,0,0,0-.75781-.07666c-.00879,0-.0166-.00244-.0249-.00244s-.01611.00244-.0249.00244a3.99819,3.99819,0,0,0-.75781.07666c-.11866.02344-.229.06738-.34327.10156a3.908,3.908,0,0,0-.40429.12549,3.83906,3.83906,0,0,0-.37647.19824c-.104.05665-.2124.10254-.312.16895a4.01482,4.01482,0,0,0-.61133.50049l-31.998,31.998a3.99957,3.99957,0,0,0,5.65625,5.65625L172,41.65674V224a4,4,0,0,0,8,0V41.65674l25.17187,25.17138a3.99957,3.99957,0,0,0,5.65625-5.65625Z"/>
</svg>
