<svg id="Flat" xmlns="http://www.w3.org/2000/svg" viewBox="0 0 256 256">
  <path d="M196,80V224a4,4,0,0,1-8,0V84H57.65723l41.17089,41.17139a3.99992,3.99992,0,1,1-5.65625,5.65722l-48-48v-.00012a3.99918,3.99918,0,0,1-.49853-.61011c-.06592-.09875-.11133-.20568-.16748-.30859a2.34841,2.34841,0,0,1-.32666-.788c-.0332-.113-.07666-.2212-.1001-.33838a4.01026,4.01026,0,0,1,0-1.5669c.02344-.11706.0669-.22534.1001-.33838a2.34766,2.34766,0,0,1,.32666-.78808c.05615-.10291.10156-.20972.16748-.30847a3.99918,3.99918,0,0,1,.49853-.61011v-.00012l48-48a3.99992,3.99992,0,0,1,5.65625,5.65722L57.65723,76H192A4.0002,4.0002,0,0,1,196,80Z"/>
</svg>
