<svg id="Flat" xmlns="http://www.w3.org/2000/svg" viewBox="0 0 256 256">
  <path d="M234.82812,98.82812l-96,96a3.99853,3.99853,0,0,1-5.65625,0L28,89.65625V152a4,4,0,0,1-8,0V80a4.01459,4.01459,0,0,1,.079-.78345c.02332-.11731.06714-.22571.10046-.33911a2.348,2.348,0,0,1,.3288-.79162c.05548-.1012.09992-.20655.1648-.30359a4.01768,4.01768,0,0,1,1.10839-1.10877c.09955-.06653.20746-.11242.31141-.16907a3.94469,3.94469,0,0,1,.3767-.19824,3.93608,3.93608,0,0,1,.41114-.12768c.11218-.03284.21948-.0763.33551-.09937A4.013,4.013,0,0,1,24,76H96a4,4,0,0,1,0,8H33.65625L136,186.34277l93.17187-93.1709a3.99957,3.99957,0,0,1,5.65625,5.65625Z"/>
</svg>
