<svg id="Flat" xmlns="http://www.w3.org/2000/svg" viewBox="0 0 256 256">
  <path d="M204,80v88a60,60,0,0,1-120,0V41.65674L42.82812,82.82861a3.99992,3.99992,0,0,1-5.65625-5.65722l48-48,.00538-.0044a4.00735,4.00735,0,0,1,.60351-.49316c.10132-.06787.21106-.1145.3169-.17188a2.3041,2.3041,0,0,1,.77429-.3208c.11535-.03418.22571-.07861.34521-.102a3.99993,3.99993,0,0,1,.73487-.07422C87.96838,28.00464,87.98364,28,88,28s.03162.00464.048.00488a3.99993,3.99993,0,0,1,.73487.07422c.11963.02368.23034.06812.34582.1023a2.29395,2.29395,0,0,1,.77466.321c.10547.05713.21484.104.31592.17139a4.00735,4.00735,0,0,1,.60351.49316l.00537.0044,48,48a3.99992,3.99992,0,1,1-5.65625,5.65722L92,41.65674V168a52,52,0,0,0,104,0V80a4,4,0,0,1,8,0Z"/>
</svg>
