<svg id="Flat" xmlns="http://www.w3.org/2000/svg" viewBox="0 0 256 256">
  <path d="M77.17187,170.82861a3.99971,3.99971,0,0,1,0-5.65722L182.34277,60H92a4,4,0,0,1,0-8H192c.0166,0,.03174.0047.04834.00488a4.02377,4.02377,0,0,1,.73437.074c.12159.02411.23389.06927.35108.10412a2.30534,2.30534,0,0,1,.77588.32282c.103.05633.21045.10168.30908.16772a4.02182,4.02182,0,0,1,.58691.47919c.00684.007.01563.01154.02246.01862l.01417.01684a4.0149,4.0149,0,0,1,.48388.5929c.06738.1001.11328.20856.16992.313a3.85529,3.85529,0,0,1,.19776.37573,3.97336,3.97336,0,0,1,.12646.40607c.03321.114.07715.223.10059.34094A3.98826,3.98826,0,0,1,196,56V156a4,4,0,0,1-8,0V65.657L82.82812,170.82861a3.99971,3.99971,0,0,1-5.65625,0ZM216,211.99609H40a4,4,0,0,0,0,8H216a4,4,0,0,0,0-8Z"/>
</svg>
