<svg id="Flat" xmlns="http://www.w3.org/2000/svg" viewBox="0 0 256 256">
  <path d="M228,64a4.0002,4.0002,0,0,1-4,4H84V198.34326l41.17187-41.17187a3.99992,3.99992,0,1,1,5.65625,5.65722l-48,48-.00524.0044a4.01773,4.01773,0,0,1-.60389.49316c-.10131.06787-.21118.11463-.317.17212a2.31221,2.31221,0,0,1-.78162.32275c-.11255.03321-.22046.07691-.33691.1a3.92525,3.92525,0,0,1-1.5669,0c-.11633-.02307-.22387-.06677-.33642-.09973a2.31381,2.31381,0,0,1-.781-.32239c-.10632-.05774-.21655-.10461-.31811-.17273a4.01773,4.01773,0,0,1-.60389-.49316l-.00525-.0044-48-48a3.99992,3.99992,0,0,1,5.65625-5.65722L76,198.34326V64a4.0002,4.0002,0,0,1,4-4H224A4.0002,4.0002,0,0,1,228,64Z"/>
</svg>
