<svg id="Flat" xmlns="http://www.w3.org/2000/svg" viewBox="0 0 256 256">
  <path d="M226.82812,162.82861l-48,48-.00537.00434a4.02146,4.02146,0,0,1-.60351.49328c-.10156.06781-.21143.11457-.31738.17212a3.89769,3.89769,0,0,1-.37159.1955,3.96491,3.96491,0,0,1-.40966.12726c-.1128.03308-.22071.07678-.33741.09991a3.92277,3.92277,0,0,1-1.5664,0c-.1167-.02313-.22412-.06677-.33692-.09973a2.32424,2.32424,0,0,1-.78076-.32239c-.10644-.05768-.21631-.10467-.31836-.17267a4.02146,4.02146,0,0,1-.60351-.49328l-.00538-.00434-48-48a3.99992,3.99992,0,0,1,5.65625-5.65722L172,198.34326V68H32a4,4,0,0,1,0-8H176a4.0002,4.0002,0,0,1,4,4V198.34326l41.17187-41.17187a3.99992,3.99992,0,1,1,5.65625,5.65722Z"/>
</svg>
