<svg id="Flat" xmlns="http://www.w3.org/2000/svg" viewBox="0 0 256 256">
  <path d="M220,128a4.0002,4.0002,0,0,1-4,4H40a4,4,0,0,1,0-8H216A4.0002,4.0002,0,0,1,220,128ZM125.16943,98.82568a4.0167,4.0167,0,0,0,.61231.501c.09863.06616.20605.11157.30908.168a3.99825,3.99825,0,0,0,.37891.19922,3.90415,3.90415,0,0,0,.4082.12671c.11328.03344.22168.07715.33887.10034a3.91693,3.91693,0,0,0,1.5664,0c.11768-.02319.22608-.06714.33936-.10034a2.34654,2.34654,0,0,0,.7876-.32642c.10254-.0564.20947-.10156.3081-.16748a4.0167,4.0167,0,0,0,.61231-.501l31.99755-31.99756a3.99957,3.99957,0,1,0-5.65624-5.65624L132,86.34277V16a4,4,0,0,0-8,0V86.34277L98.82812,61.17188a3.99957,3.99957,0,0,0-5.65624,5.65624Zm5.66114,58.34864a4.03677,4.03677,0,0,0-.61182-.501c-.09961-.06616-.207-.11182-.31055-.16846a2.34234,2.34234,0,0,0-.78857-.32617c-.11231-.033-.21973-.07666-.33594-.09961a4.01269,4.01269,0,0,0-1.56738,0c-.11621.02295-.22315.06641-.33545.09937a2.3428,2.3428,0,0,0-.78809.32592c-.104.05665-.21191.10254-.31152.16895a4.03677,4.03677,0,0,0-.61182.501L93.17188,189.17188a3.99957,3.99957,0,0,0,5.65624,5.65624L124,169.65723V240a4,4,0,0,0,8,0V169.65723l25.17188,25.17089a3.99957,3.99957,0,0,0,5.65624-5.65624Z"/>
</svg>
