<svg id="Flat" xmlns="http://www.w3.org/2000/svg" viewBox="0 0 256 256">
  <path d="M208,36H48A12.01343,12.01343,0,0,0,36,48V208a12.01343,12.01343,0,0,0,12,12H208a12.01343,12.01343,0,0,0,12-12V48A12.01343,12.01343,0,0,0,208,36Zm4,172a4.00427,4.00427,0,0,1-4,4H48a4.00427,4.00427,0,0,1-4-4V48a4.00427,4.00427,0,0,1,4-4H208a4.00427,4.00427,0,0,1,4,4Zm-41.17139-82.82812a3.99942,3.99942,0,0,1,0,5.65624L136.8877,164.76953a3.99992,3.99992,0,1,1-5.65723-5.65625L158.34326,132H88a4,4,0,0,1,0-8h70.34326L131.23047,96.88672a3.99992,3.99992,0,1,1,5.65723-5.65625Z"/>
</svg>
