<svg id="Flat" xmlns="http://www.w3.org/2000/svg" viewBox="0 0 256 256">
  <path d="M210.82812,50.82812,161.65625,100H200a4,4,0,0,1,0,8H152a4.01467,4.01467,0,0,1-.7832-.079c-.11719-.02331-.22559-.06714-.33887-.10046a2.33981,2.33981,0,0,1-.78711-.32593c-.103-.0564-.21045-.10181-.30908-.168a4.0222,4.0222,0,0,1-1.10889-1.10889c-.06445-.09716-.10889-.20251-.16455-.30371a2.34963,2.34963,0,0,1-.32861-.7915c-.03321-.11328-.07715-.2218-.10059-.33911A3.99092,3.99092,0,0,1,148,104V56a4,4,0,0,1,8,0V94.34375l49.17188-49.17187a3.99957,3.99957,0,1,1,5.65624,5.65624ZM107.81982,150.87573a3.95868,3.95868,0,0,0-.12548-.40552,4.0404,4.0404,0,0,0-.20362-.38623c-.05517-.10058-.09912-.20532-.16357-.30175a4.025,4.025,0,0,0-1.1084-1.10877c-.09961-.06628-.207-.11194-.31055-.16858a2.34234,2.34234,0,0,0-.78857-.32617c-.11231-.033-.21973-.07654-.33594-.09961A4.01052,4.01052,0,0,0,104,148H56a4,4,0,0,0,0,8H94.34375L45.17188,205.17188a3.99957,3.99957,0,1,0,5.65624,5.65624L100,161.65625V200a4,4,0,0,0,8,0V152a3.99092,3.99092,0,0,0-.0791-.78345C107.89746,151.09863,107.85352,150.98962,107.81982,150.87573Z"/>
</svg>
