<svg id="Flat" xmlns="http://www.w3.org/2000/svg" viewBox="0 0 256 256">
  <path d="M202.82812,141.17529a3.99992,3.99992,0,1,1-5.65625,5.65723L132,81.66064V224.00391a4,4,0,1,1-8,0V81.66064L58.82812,146.83252a3.99992,3.99992,0,0,1-5.65625-5.65723l72-72c.00684-.00708.01563-.01172.02247-.01855a4.01055,4.01055,0,0,1,.58691-.47925c.09863-.06616.20605-.11133.30908-.16772a3.91319,3.91319,0,0,1,.38037-.2002,3.85776,3.85776,0,0,1,.39551-.12256c.11719-.03491.22949-.08008.35108-.10425a4.01928,4.01928,0,0,1,.73437-.074c.0166-.00025.03174-.00488.04834-.00488s.03174.00463.04834.00488a4.01928,4.01928,0,0,1,.73437.074c.12159.02417.23389.06934.35108.10425a3.85776,3.85776,0,0,1,.39551.12256,3.91319,3.91319,0,0,1,.38037.2002c.103.05639.21045.10156.30908.16772a4.01055,4.01055,0,0,1,.58691.47925c.00684.00683.01563.01147.02246.01855ZM216,36H40a4,4,0,0,0,0,8H216a4,4,0,0,0,0-8Z"/>
</svg>
