<svg id="Flat" xmlns="http://www.w3.org/2000/svg" viewBox="0 0 256 256">
  <path d="M148.0791,104.78345A3.99191,3.99191,0,0,1,148,104V64a4,4,0,0,1,8,0V94.34326l49.17188-49.17187a3.99991,3.99991,0,0,1,5.65624,5.65722L161.65674,100H192a4,4,0,0,1,0,8H152a4.01005,4.01005,0,0,1-.7832-.079c-.1167-.02313-.22412-.06677-.33692-.09973a2.32424,2.32424,0,0,1-.78076-.32239c-.10644-.05768-.21631-.10467-.31836-.17267a4.02146,4.02146,0,0,1-.60351-.49328l-.00537-.00434v-.00012a4.00157,4.00157,0,0,1-.49854-.61011c-.06592-.09875-.11133-.20568-.16748-.30859a2.34743,2.34743,0,0,1-.32666-.7879C148.146,105.00873,148.10254,104.90057,148.0791,104.78345Zm-40.25879,46.09283a2.32954,2.32954,0,0,0-.32715-.788c-.05615-.1023-.10107-.20856-.1665-.3067a4.00157,4.00157,0,0,0-.49854-.61011v-.00012l-.00537-.00434a4.01739,4.01739,0,0,0-.60351-.49322c-.10108-.06751-.21045-.11414-.31592-.17145a2.29486,2.29486,0,0,0-.77441-.321c-.11573-.03418-.22657-.07868-.3462-.10242a4.01,4.01,0,0,0-.73486-.07416C104.03174,148.00464,104.0166,148,104,148H64a4,4,0,0,0,0,8H94.34326L45.17188,205.17188a3.99957,3.99957,0,1,0,5.65624,5.65624L100,161.65668V192a4,4,0,0,0,8,0V152a3.99145,3.99145,0,0,0-.0791-.78345C107.89746,151.09882,107.85352,150.99,107.82031,150.87628ZM161.65674,156H192a4,4,0,0,0,0-8H152c-.0166,0-.03174.00464-.04785.00482a4.01,4.01,0,0,0-.73486.07416c-.11963.02368-.23.06811-.34522.10223a2.29541,2.29541,0,0,0-.77441.32062c-.106.0575-.21582.10425-.3169.172a4.01739,4.01739,0,0,0-.60351.49322l-.00537.00434v.00012a4.00157,4.00157,0,0,0-.49854.61011c-.06592.09869-.11133.20556-.16748.30847a2.348,2.348,0,0,0-.32666.788c-.0332.11316-.07666.22138-.1001.33844A3.99145,3.99145,0,0,0,148,152v40a4,4,0,0,0,8,0V161.65668l49.17188,49.17144a3.99957,3.99957,0,0,0,5.65624-5.65624ZM104,60a4.0002,4.0002,0,0,0-4,4V94.34326L50.82812,45.17139a3.99991,3.99991,0,0,0-5.65624,5.65722L94.34326,100H64a4,4,0,0,0,0,8h40a4.01005,4.01005,0,0,0,.7832-.079c.1167-.02313.22461-.06683.33741-.09991a3.96491,3.96491,0,0,0,.40966-.12726,3.89769,3.89769,0,0,0,.37159-.1955c.106-.05755.21582-.10431.31738-.17212a4.02146,4.02146,0,0,0,.60351-.49328l.00537-.00434v-.00012a4.00157,4.00157,0,0,0,.49854-.61011c.06543-.0982.11035-.20453.1665-.30682a3.948,3.948,0,0,0,.20118-.38177,4.0963,4.0963,0,0,0,.126-.406c.03321-.11377.07715-.2226.10059-.34033A3.99191,3.99191,0,0,0,108,104V64A4.0002,4.0002,0,0,0,104,60Z"/>
</svg>
