<svg id="Flat" xmlns="http://www.w3.org/2000/svg" viewBox="0 0 256 256">
  <path d="M228,192a4.0002,4.0002,0,0,1-4,4H80a4.0002,4.0002,0,0,1-4-4V57.65674L34.82812,98.82861a3.99991,3.99991,0,0,1-5.65624-5.65722l48-48,.00537-.00434a4.01739,4.01739,0,0,1,.60351-.49322c.10108-.06775.21094-.1145.3169-.172a2.29541,2.29541,0,0,1,.77441-.32062c.11523-.03412.22559-.07855.34522-.10223a4.01,4.01,0,0,1,.73486-.07416C79.96826,44.00464,79.9834,44,80,44s.03174.00464.04785.00482a4.01,4.01,0,0,1,.73486.07416c.11963.02374.23047.06824.3462.10242a2.29486,2.29486,0,0,1,.77441.321c.10547.05731.21484.10394.31592.17145a4.01739,4.01739,0,0,1,.60351.49322l.00537.00434,48,48a3.99991,3.99991,0,1,1-5.65624,5.65722L84,57.65674V188H224A4.0002,4.0002,0,0,1,228,192Z"/>
</svg>
