<svg id="Flat" xmlns="http://www.w3.org/2000/svg" viewBox="0 0 256 256">
  <path d="M218.82812,82.82812a3.99853,3.99853,0,0,1-5.65625,0L172,41.65674V168a60,60,0,0,1-120,0V80a4,4,0,0,1,8,0v88a52,52,0,0,0,104,0V41.65674L122.82812,82.82812a3.99957,3.99957,0,0,1-5.65625-5.65625l47.998-47.998a4.01672,4.01672,0,0,1,.61157-.50049c.09961-.06641.20752-.1123.31153-.16895a3.86943,3.86943,0,0,1,.37658-.19824,3.93427,3.93427,0,0,1,.40418-.12549c.11475-.03418.22461-.07812.34338-.10156a4.00113,4.00113,0,0,1,.75818-.07666c.00842,0,.01612-.00244.02466-.00244s.01624.00244.02466.00244a4.00113,4.00113,0,0,1,.75818.07666c.119.02344.229.06787.34387.10156a4.04788,4.04788,0,0,1,.40356.12549,3.88928,3.88928,0,0,1,.37769.19873c.10351.05664.21118.102.31055.16846a4.01672,4.01672,0,0,1,.61157.50049l47.998,47.998A3.99854,3.99854,0,0,1,218.82812,82.82812Z"/>
</svg>
