<svg id="Flat" xmlns="http://www.w3.org/2000/svg" viewBox="0 0 256 256">
  <path d="M132,40V216a4,4,0,0,1-8,0V40a4,4,0,0,1,8,0ZM99.69434,129.52966a3.95348,3.95348,0,0,0,.12548-.40527c.0337-.11389.07764-.223.10108-.34094a4.01026,4.01026,0,0,0,0-1.5669c-.02344-.11792-.06738-.22693-.10108-.34082a3.95868,3.95868,0,0,0-.12548-.40552,4.0404,4.0404,0,0,0-.20362-.38623c-.05517-.10058-.09912-.20532-.16357-.30175a4.02777,4.02777,0,0,0-.50147-.61292L66.82812,93.17188a3.99957,3.99957,0,0,0-5.65624,5.65624L86.34277,124H16a4,4,0,0,0,0,8H86.34277L61.17188,157.17188a3.99957,3.99957,0,1,0,5.65624,5.65624l31.99756-31.99743a4.02777,4.02777,0,0,0,.50147-.61292c.06445-.09643.1084-.20129.16357-.302A4.00758,4.00758,0,0,0,99.69434,129.52966ZM240,124H169.65723l25.17089-25.17188a3.99957,3.99957,0,1,0-5.65624-5.65624l-31.99756,31.99743a4.02777,4.02777,0,0,0-.50147.61292c-.06445.097-.10889.20239-.16455.30359a2.34888,2.34888,0,0,0-.32861.79162c-.03369.1134-.07715.2218-.10059.33911a4.01026,4.01026,0,0,0,0,1.5669c.02344.11731.06738.22583.10059.33911a2.34963,2.34963,0,0,0,.32861.7915c.05566.1012.1001.20655.16455.30371a4.02777,4.02777,0,0,0,.50147.61292l31.99756,31.99743a3.99957,3.99957,0,0,0,5.65624-5.65624L169.65723,132H240a4,4,0,0,0,0-8Z"/>
</svg>
