<svg id="Flat" xmlns="http://www.w3.org/2000/svg" viewBox="0 0 256 256">
  <path d="M159.1123,200.88721a3.99913,3.99913,0,0,1,0,5.65674l-28.28222,28.28271a4.04709,4.04709,0,0,1-.605.49658c-.06055.04053-.12891.06641-.19141.10352a3.95568,3.95568,0,0,1-.49609.26465c-.08252.03466-.17139.05078-.25635.08007a3.56719,3.56719,0,0,1-2.56152,0c-.085-.0288-.17481-.04541-.25782-.08007a3.91168,3.91168,0,0,1-.49707-.26563c-.062-.03662-.12988-.0625-.18945-.10254a4.0264,4.0264,0,0,1-.60547-.49658L96.8877,206.544a3.99975,3.99975,0,1,1,5.65625-5.65674L124,222.34326V160a4,4,0,0,1,8,0v62.34326l21.45605-21.456A3.99943,3.99943,0,0,1,159.1123,200.88721ZM102.544,55.11279,124,33.65674V96a4,4,0,0,0,8,0V33.65674l21.45605,21.456a3.99975,3.99975,0,0,0,5.65625-5.65674L130.83008,21.17334a4.04709,4.04709,0,0,0-.605-.49658c-.06153-.04053-.13037-.06738-.19336-.10449a3.9184,3.9184,0,0,0-.49365-.26368c-.085-.03564-.17579-.05224-.26319-.082a3.55674,3.55674,0,0,0-2.54883,0c-.0874.0293-.17919.04639-.26416.082a4.005,4.005,0,0,0-.49511.26416c-.0625.03711-.13086.06348-.19141.104a4.0264,4.0264,0,0,0-.60547.49658L96.8877,49.45605a3.99975,3.99975,0,0,0,5.65625,5.65674ZM33.65723,132H96a4,4,0,0,0,0-8H33.65723L55.1123,102.544a3.99975,3.99975,0,1,0-5.65625-5.65674L21.17334,125.16992a4.04019,4.04019,0,0,0-.5.61182c-.06543.09765-.10986.20361-.16553.30517a3.87372,3.87372,0,0,0-.20166.3833,3.95744,3.95744,0,0,0-.12646.40674c-.03321.11328-.07715.22217-.10059.33985a4.00772,4.00772,0,0,0,0,1.5664c.02344.11768.06738.22657.10059.33985a3.95744,3.95744,0,0,0,.12646.40674,3.87372,3.87372,0,0,0,.20166.3833c.05567.10156.1001.20752.16553.30517a4.04019,4.04019,0,0,0,.5.61182l28.28271,28.28271a3.99975,3.99975,0,1,0,5.65625-5.65674Zm201.66943-1.78174c.06494-.09717.10938-.20264.16455-.30371a3.85343,3.85343,0,0,0,.20313-.38476,4.07826,4.07826,0,0,0,.12548-.40479c.0337-.11426.07764-.22314.10108-.3418a4.00772,4.00772,0,0,0,0-1.5664c-.02344-.11866-.06738-.22754-.10108-.3418a4.07826,4.07826,0,0,0-.12548-.40479,3.85343,3.85343,0,0,0-.20313-.38476c-.05517-.10107-.09961-.20654-.16455-.30371a4.04019,4.04019,0,0,0-.5-.61182L206.544,96.88721a3.99975,3.99975,0,1,0-5.65625,5.65674L222.34277,124H160a4,4,0,0,0,0,8h62.34277L200.8877,153.45605a3.99975,3.99975,0,1,0,5.65625,5.65674l28.28271-28.28271A4.04019,4.04019,0,0,0,235.32666,130.21826Z"/>
</svg>
