<svg xmlns="http://www.w3.org/2000/svg" viewBox="0 0 256 256"><path d="M148,104V64a4,4,0,0,1,8,0V94.3l49.2-49.1a4,4,0,1,1,5.6,5.6L161.7,100H192a4,4,0,0,1,0,8H152A4,4,0,0,1,148,104Zm-44,44H64a4,4,0,0,0,0,8H94.3L45.2,205.2a3.9,3.9,0,0,0,0,5.6,3.9,3.9,0,0,0,5.6,0L100,161.7V192a4,4,0,0,0,8,0V152A4,4,0,0,0,104,148Zm57.7,8H192a4,4,0,0,0,0-8H152a4,4,0,0,0-4,4v40a4,4,0,0,0,8,0V161.7l49.2,49.1a3.9,3.9,0,0,0,5.6,0,3.9,3.9,0,0,0,0-5.6ZM104,60a4,4,0,0,0-4,4V94.3L50.8,45.2a4,4,0,0,0-5.6,5.6L94.3,100H64a4,4,0,0,0,0,8h40a4,4,0,0,0,4-4V64A4,4,0,0,0,104,60Z"/></svg>