<svg id="Flat" xmlns="http://www.w3.org/2000/svg" viewBox="0 0 256 256">
  <path d="M82.82813,149.17188a3.99957,3.99957,0,1,1-5.65625,5.65625l-48-48a3.99854,3.99854,0,0,1,0-5.65625l48-48a3.99957,3.99957,0,0,1,5.65625,5.65625L37.65723,104ZM128,100H89.65723l41.1709-41.17187a3.99957,3.99957,0,0,0-5.65625-5.65625L77.17444,101.16943a4.001,4.001,0,0,0-.50134.6128c-.065.09716-.10938.20215-.1648.30371a2.35318,2.35318,0,0,0-.32886.7915c-.0332.11328-.07715.22168-.10034.33936a4.00772,4.00772,0,0,0,0,1.5664c.02319.11768.06714.22608.10047.33936a3.90524,3.90524,0,0,0,.12646.40723,3.9712,3.9712,0,0,0,.20227.38427c.05542.10108.09985.20655.1648.30371a4.001,4.001,0,0,0,.50134.6128l47.99744,47.99756a3.99957,3.99957,0,0,0,5.65625-5.65625L89.65723,108H128a92.10478,92.10478,0,0,1,92,92,4,4,0,0,0,8,0A100.11269,100.11269,0,0,0,128,100Z"/>
</svg>
