<svg xmlns="http://www.w3.org/2000/svg" viewBox="0 0 256 256"><path d="M159.1,200.9a3.9,3.9,0,0,1,0,5.6l-28.3,28.3a3.9,3.9,0,0,1-5.6,0L96.9,206.5a4,4,0,1,1,5.6-5.6L124,222.3V160a4,4,0,0,1,8,0v62.3l21.5-21.4A3.9,3.9,0,0,1,159.1,200.9ZM102.5,55.1,124,33.7V96a4,4,0,0,0,8,0V33.7l21.5,21.4a3.8,3.8,0,0,0,2.8,1.2,3.9,3.9,0,0,0,2.8-1.2,3.9,3.9,0,0,0,0-5.6L130.8,21.2a3.9,3.9,0,0,0-5.6,0L96.9,49.5a4,4,0,0,0,5.6,5.6ZM33.7,132H96a4,4,0,0,0,0-8H33.7l21.4-21.5a4,4,0,0,0-5.6-5.6L21.2,125.2a3.9,3.9,0,0,0,0,5.6l28.3,28.3a3.8,3.8,0,0,0,2.8,1.2,3.9,3.9,0,0,0,2.8-1.2,3.9,3.9,0,0,0,0-5.6Zm201.1-6.8L206.5,96.9a4,4,0,1,0-5.6,5.6L222.3,124H160a4,4,0,0,0,0,8h62.3l-21.4,21.5a3.9,3.9,0,0,0,0,5.6,3.9,3.9,0,0,0,2.8,1.2,3.8,3.8,0,0,0,2.8-1.2l28.3-28.3A3.9,3.9,0,0,0,234.8,125.2Z"/></svg>