<svg id="Flat" xmlns="http://www.w3.org/2000/svg" viewBox="0 0 256 256">
  <path d="M228,144a60.06812,60.06812,0,0,1-60,60H80a4,4,0,0,1,0-8h88a52,52,0,0,0,0-104H41.65723l41.17089,41.17139a3.99992,3.99992,0,1,1-5.65625,5.65722L29.17267,90.8291a4.0148,4.0148,0,0,1-.49939-.61084c-.06574-.09814-.11072-.20459-.16675-.30713a2.33847,2.33847,0,0,1-.327-.78857c-.03333-.11328-.07728-.22168-.10059-.33936a4.0123,4.0123,0,0,1,0-1.5664c.02331-.11768.06726-.22608.10059-.33936a2.33847,2.33847,0,0,1,.327-.78857c.056-.10254.101-.209.16675-.30713a4.0148,4.0148,0,0,1,.49939-.61084l47.9992-47.99951a3.99992,3.99992,0,1,1,5.65625,5.65722L41.65723,84H168A60.06812,60.06812,0,0,1,228,144Z"/>
</svg>
