<svg id="Flat" xmlns="http://www.w3.org/2000/svg" viewBox="0 0 256 256">
  <path d="M228.00391,128a4.0002,4.0002,0,0,1-4,4H81.66064L146.832,197.17139a4.00009,4.00009,0,0,1-5.65674,5.65722l-72-72-.01367-.01684a4.01684,4.01684,0,0,1-.48437-.5929c-.0669-.10022-.1128-.20862-.16993-.31311a2.318,2.318,0,0,1-.32373-.78161c-.0332-.1139-.07763-.223-.10107-.34095a4.05554,4.05554,0,0,1-.07764-.771L68.00391,128l.001-.01221a4.05554,4.05554,0,0,1,.07764-.771c.02344-.11792.06787-.22693.10107-.34082a2.31645,2.31645,0,0,1,.32373-.78186c.05713-.10437.103-.21289.16993-.313a4.01684,4.01684,0,0,1,.48437-.5929l.01367-.01684,72-72a4.00009,4.00009,0,1,1,5.65674,5.65722L81.66064,124H224.00391A4.0002,4.0002,0,0,1,228.00391,128ZM40,36a4.0002,4.0002,0,0,0-4,4V216a4,4,0,0,0,8,0V40A4.0002,4.0002,0,0,0,40,36Z"/>
</svg>
