<svg id="Flat" xmlns="http://www.w3.org/2000/svg" viewBox="0 0 256 256">
  <path d="M53.17187,114.82471a3.99992,3.99992,0,0,1,5.65625-5.65723L124,174.33936V31.99609a4,4,0,0,1,8,0V174.33936l65.17187-65.17188a3.99992,3.99992,0,1,1,5.65625,5.65723l-72,72c-.00683.00708-.01562.01172-.02246.01855a4.01055,4.01055,0,0,1-.58691.47925c-.10059.06714-.209.11328-.314.17041a3.961,3.961,0,0,1-.37452.197,3.91774,3.91774,0,0,1-.40918.12695c-.11279.03321-.2207.07715-.33789.1001a3.91693,3.91693,0,0,1-1.5664,0c-.11719-.023-.2251-.06689-.33789-.1001a3.91774,3.91774,0,0,1-.40918-.12695,3.961,3.961,0,0,1-.37452-.197c-.105-.05713-.21337-.10327-.314-.17041a4.01055,4.01055,0,0,1-.58691-.47925c-.00684-.00683-.01563-.01147-.02247-.01855ZM216,211.99609H40a4,4,0,0,0,0,8H216a4,4,0,0,0,0-8Z"/>
</svg>
