<svg id="Flat" xmlns="http://www.w3.org/2000/svg" viewBox="0 0 256 256">
  <path d="M196,100V200a3.98826,3.98826,0,0,1-.0791.78314c-.02344.11817-.06738.22748-.10108.34162a3.83691,3.83691,0,0,1-.126.40515,3.914,3.914,0,0,1-.19971.38c-.05615.10285-.10156.20972-.16748.30835a4.01911,4.01911,0,0,1-1.1084,1.10852c-.09765.06525-.20361.10993-.30517.16565a2.34959,2.34959,0,0,1-.79.32782c-.11328.03345-.22217.07739-.33985.10077A4.01005,4.01005,0,0,1,192,204H92a4,4,0,0,1,0-8h90.34375L77.17187,90.82861a3.99992,3.99992,0,0,1,5.65625-5.65722L188,190.34351V100a4,4,0,0,1,8,0Zm20-63.99609H40a4,4,0,0,0,0,8H216a4,4,0,0,0,0-8Z"/>
</svg>
