<svg xmlns="http://www.w3.org/2000/svg" viewBox="0 0 256 256"><path d="M156.1,104a4,4,0,0,1,4-4h80a4,4,0,1,1,0,8h-80A4,4,0,0,1,156.1,104Zm84,28h-80a4,4,0,0,0,0,8h80a4,4,0,1,0,0-8Zm0,32h-80a4,4,0,0,0,0,8h80a4,4,0,1,0,0-8Zm0,32H72.1a4,4,0,0,0,0,8h168a4,4,0,1,0,0-8ZM80,172A51.9,51.9,0,0,1,35.8,92.7,24,24,0,0,1,48,48a3.9,3.9,0,0,1,2.1.6l63,39.4A16,16,0,0,0,112,56a4,4,0,0,1,0-8,24,24,0,0,1,0,48,3.9,3.9,0,0,1-2.1-.6L78.9,76a44,44,0,0,0-3,87.8V114.5a4,4,0,0,1,4-4h0a4,4,0,0,1,4,4v49.3a43.9,43.9,0,0,0,38.8-33.2,4.1,4.1,0,0,1,4.9-2.9,4.1,4.1,0,0,1,2.9,4.9A52,52,0,0,1,80,172ZM40.6,86.2A51.5,51.5,0,0,1,68.2,69.4L46.9,56a16,16,0,0,0-6.3,30.2Z"/></svg>