<svg id="Flat" xmlns="http://www.w3.org/2000/svg" viewBox="0 0 256 256">
  <path d="M156,104a4.0002,4.0002,0,0,1,4-4h80a4,4,0,0,1,0,8H160A4.0002,4.0002,0,0,1,156,104Zm84,28H160a4,4,0,0,0,0,8h80a4,4,0,0,0,0-8Zm0,32H160a4,4,0,0,0,0,8h80a4,4,0,0,0,0-8Zm0,32H72a4,4,0,0,0,0,8H240a4,4,0,0,0,0-8ZM79.92969,172A51.96729,51.96729,0,0,1,35.72388,92.65869,23.99635,23.99635,0,0,1,47.92969,48a4.004,4.004,0,0,1,2.12011.60791l62.96827,39.35547A16.00023,16.00023,0,0,0,111.92969,56a4,4,0,0,1,0-8,24,24,0,0,1,0,48,4.004,4.004,0,0,1-2.12012-.60791L78.82739,76.02783a43.98886,43.98886,0,0,0-2.94824,87.77832l.05054-49.33349a4.00031,4.00031,0,0,1,4-3.9961h.0039a4,4,0,0,1,3.9961,4.0044l-.05054,49.34082A43.89113,43.89113,0,0,0,122.6333,130.6499a3.99995,3.99995,0,1,1,7.76367,1.92969A51.89511,51.89511,0,0,1,79.92969,172ZM40.48828,86.16943A52.04077,52.04077,0,0,1,68.15869,69.36035L46.84131,56.03662a16.00367,16.00367,0,0,0-6.353,30.13281Z"/>
</svg>
