<svg xmlns="http://www.w3.org/2000/svg" viewBox="0 0 256 256"><path d="M191.2,128c8.5-11.7,15.5-23.3,20.4-34.4,10.4-23,10.8-40.9,1.3-50.5s-27.5-9.1-50.5,1.3c-11.1,4.9-22.7,11.9-34.4,20.4-11.7-8.5-23.3-15.5-34.4-20.4C70.6,34,52.7,33.6,43.1,43.1S34,70.6,44.4,93.6c4.9,11.1,11.9,22.7,20.4,34.4-8.5,11.7-15.5,23.3-20.4,34.4-10.4,23-10.8,40.9-1.3,50.5,4.6,4.5,11.1,6.8,19.2,6.8s19.4-2.7,31.3-8.1,22.7-11.9,34.4-20.4c11.7,8.5,23.3,15.5,34.4,20.4s22.5,8.1,31.3,8.1,14.6-2.3,19.2-6.8c9.5-9.6,9.1-27.5-1.3-50.5C206.7,151.3,199.7,139.7,191.2,128Zm16-79.2c6.9,7,5.9,22.1-2.8,41.6a182.1,182.1,0,0,1-18.3,30.9,287.9,287.9,0,0,0-24.2-27.2,278.1,278.1,0,0,0-27.3-24.3C168.3,45.7,197,38.6,207.2,48.8Zm-26,79.2a291.7,291.7,0,0,1-24.9,28.3A307.9,307.9,0,0,1,128,181.2a307.9,307.9,0,0,1-28.3-24.9A291.7,291.7,0,0,1,74.8,128,291.7,291.7,0,0,1,99.7,99.7,307.9,307.9,0,0,1,128,74.8a307.9,307.9,0,0,1,28.3,24.9A291.7,291.7,0,0,1,181.2,128ZM51.6,90.4c-8.7-19.5-9.7-34.6-2.8-41.6,3-3,7.7-4.5,13.6-4.5,14.1,0,35.3,8.5,59,25.5A278.1,278.1,0,0,0,94.1,94.1a287.9,287.9,0,0,0-24.2,27.2A182.1,182.1,0,0,1,51.6,90.4ZM48.8,207.2c-6.9-7-5.9-22.1,2.8-41.6a182.1,182.1,0,0,1,18.3-30.9,287.9,287.9,0,0,0,24.2,27.2,278.1,278.1,0,0,0,27.3,24.3C87.7,210.3,59,217.4,48.8,207.2Zm158.4,0c-10.2,10.2-38.9,3.1-72.6-21a278.1,278.1,0,0,0,27.3-24.3,287.9,287.9,0,0,0,24.2-27.2,182.1,182.1,0,0,1,18.3,30.9C213.1,185.1,214.1,200.2,207.2,207.2ZM136,128a8,8,0,1,1-8-8A8,8,0,0,1,136,128Z"/></svg>