<svg id="Flat" xmlns="http://www.w3.org/2000/svg" viewBox="0 0 256 256">
  <path d="M191.17773,128a195.08161,195.08161,0,0,0,20.46973-34.35938c10.34668-22.99218,10.7749-40.92382,1.20508-50.49316-9.56934-9.56934-27.50147-9.1416-50.49414,1.20508A195.13426,195.13426,0,0,0,128,64.82251a195.13426,195.13426,0,0,0-34.3584-20.47C70.64941,34.00586,52.7168,33.57715,43.14746,43.14746c-9.56982,9.56934-9.1416,27.501,1.20508,50.49316A195.08161,195.08161,0,0,0,64.82227,128a195.08161,195.08161,0,0,0-20.46973,34.35938c-10.34668,22.99218-10.7749,40.92382-1.20508,50.49316,4.58887,4.58887,11.09815,6.87891,19.16943,6.87891,8.75928,0,19.3584-2.69922,31.32471-8.084A195.13426,195.13426,0,0,0,128,191.17749a195.13426,195.13426,0,0,0,34.3584,20.47c11.96777,5.38574,22.56445,8.084,31.32471,8.084,8.06982,0,14.58105-2.29,19.16943-6.87891,9.56982-9.56934,9.1416-27.501-1.20508-50.49316A195.08161,195.08161,0,0,0,191.17773,128Zm16.01856-79.19629c6.94922,6.94922,5.9126,22.0957-2.84375,41.55469A183.98362,183.98362,0,0,1,186.125,121.3291a299.093,299.093,0,0,0-24.18359-27.26953,299.08541,299.08541,0,0,0-27.33008-24.231C168.28418,45.66772,196.95508,38.563,207.19629,48.80371ZM181.186,128a289.75721,289.75721,0,0,1-24.90186,28.28418A292.20174,292.20174,0,0,1,128,181.2373a292.14365,292.14365,0,0,1-28.28418-24.95312A289.75721,289.75721,0,0,1,74.814,128a299.468,299.468,0,0,1,53.19141-53.24243,292.34718,292.34718,0,0,1,28.27881,24.95825A289.75721,289.75721,0,0,1,181.186,128ZM51.64746,90.3584c-8.75635-19.459-9.793-34.60547-2.84375-41.55469,3.03174-3.03125,7.67383-4.542,13.58643-4.542,14.06054,0,35.28955,8.56543,58.99316,25.57129A304.38531,304.38531,0,0,0,69.875,121.3291,183.98362,183.98362,0,0,1,51.64746,90.3584ZM48.80371,207.19629c-6.94922-6.94922-5.9126-22.0957,2.84375-41.55469A183.98362,183.98362,0,0,1,69.875,134.6709a299.093,299.093,0,0,0,24.18359,27.26953,299.07389,299.07389,0,0,0,27.32959,24.23047C87.71533,210.33032,59.04443,217.43384,48.80371,207.19629Zm158.39258,0c-10.24121,10.23926-38.91211,3.13476-72.585-21.02539a299.01326,299.01326,0,0,0,27.33008-24.23047A299.093,299.093,0,0,0,186.125,134.6709a183.98362,183.98362,0,0,1,18.22754,30.9707C213.10889,185.10059,214.14551,200.24707,207.19629,207.19629ZM136,128a8,8,0,1,1-8-8A7.99993,7.99993,0,0,1,136,128Z"/>
</svg>
