<svg xmlns="http://www.w3.org/2000/svg" viewBox="0 0 256 256"><path d="M216,44H68.5a12.1,12.1,0,0,0-10.3,5.8L12.6,125.9a4,4,0,0,0,0,4.2l45.6,76.1A12.1,12.1,0,0,0,68.5,212H216a12,12,0,0,0,12-12V56A12,12,0,0,0,216,44Zm4,156a4,4,0,0,1-4,4H68.5a3.9,3.9,0,0,1-3.4-1.9h0L20.7,128,65.1,53.9A3.9,3.9,0,0,1,68.5,52H216a4,4,0,0,1,4,4Zm-57.2-93.2L141.7,128l21.1,21.2a3.9,3.9,0,0,1,0,5.6A3.8,3.8,0,0,1,160,156a3.9,3.9,0,0,1-2.8-1.2L136,133.7l-21.2,21.1A3.8,3.8,0,0,1,112,156a3.9,3.9,0,0,1-2.8-1.2,3.9,3.9,0,0,1,0-5.6L130.3,128l-21.1-21.2a4,4,0,0,1,5.6-5.6L136,122.3l21.2-21.1a4,4,0,1,1,5.6,5.6Z"/></svg>