<svg xmlns="http://www.w3.org/2000/svg" viewBox="0 0 256 256"><path d="M128,20a84.1,84.1,0,0,0-84,84c0,22.6,9.1,47.6,24.3,67,12.5,16,27.5,26.5,43.5,30.8l-11.5,28.7a3.8,3.8,0,0,0,.4,3.7A4,4,0,0,0,104,236h48a4,4,0,0,0,3.3-1.8,3.8,3.8,0,0,0,.4-3.7l-11.5-28.7c16-4.3,31-14.8,43.5-30.8,15.2-19.4,24.3-44.4,24.3-67A84.1,84.1,0,0,0,128,20Zm18.1,208H109.9l9.8-24.6a57.7,57.7,0,0,0,16.6,0ZM128,196c-42.1,0-76-50.3-76-92a76,76,0,0,1,152,0C204,145.7,170.1,196,128,196ZM179.3,95.3a4,4,0,0,1-3.3,4.6h-.7a4,4,0,0,1-3.9-3.3,44,44,0,0,0-36.1-36.1,4,4,0,0,1,1.4-7.9A52.1,52.1,0,0,1,179.3,95.3Z"/></svg>