<svg id="Flat" xmlns="http://www.w3.org/2000/svg" viewBox="0 0 256 256">
  <path d="M178.91113,128l30.54395-30.54419a35.99944,35.99944,0,1,0-50.91016-50.91162L128,77.08911,97.45508,46.54419A35.99944,35.99944,0,1,0,46.54492,97.45581L77.08887,128,46.54492,158.544a35.99961,35.99961,0,1,0,50.91016,50.9121L128,178.91089l30.54492,30.54468a35.99935,35.99935,0,1,0,50.91016-50.91138Zm-14.71-75.79907a27.99994,27.99994,0,1,1,39.59766,39.59814l-30.54444,30.54444-39.59765-39.5979ZM167.59766,128,128,167.59766,88.40234,128,128,88.4021ZM52.20117,91.79907A27.99994,27.99994,0,1,1,91.79883,52.20093l30.54443,30.54468L82.74561,122.34326ZM91.79883,203.79883a27.99977,27.99977,0,1,1-39.59766-39.59766l30.54444-30.54468,39.59814,39.59766Zm112,0a27.99923,27.99923,0,0,1-39.59766,0l-30.54443-30.54444,39.59765-39.59765,30.54444,30.54443a27.99923,27.99923,0,0,1,0,39.59766ZM120,128a8,8,0,1,1,8,8A8.00917,8.00917,0,0,1,120,128Z"/>
</svg>
