<svg xmlns="http://www.w3.org/2000/svg" viewBox="0 0 256 256"><path d="M178.9,128l30.6-30.5a36.1,36.1,0,0,0-51-51L128,77.1,97.5,46.5a36.1,36.1,0,0,0-51,51L77.1,128,46.5,158.5a36.1,36.1,0,0,0,51,51L128,178.9l30.5,30.6a36.1,36.1,0,0,0,51-51ZM164.2,52.2a28,28,0,0,1,39.6,39.6l-30.5,30.5L133.7,82.7Zm3.4,75.8L128,167.6,88.4,128,128,88.4ZM52.2,91.8A28,28,0,0,1,91.8,52.2l30.5,30.5L82.7,122.3Zm39.6,112a28,28,0,0,1-39.6-39.6l30.5-30.5,39.6,39.6Zm112,0a28,28,0,0,1-39.6,0l-30.5-30.5,39.6-39.6,30.5,30.5a28,28,0,0,1,0,39.6ZM120,128a8,8,0,1,1,8,8A8,8,0,0,1,120,128Z"/></svg>