<svg id="Flat" xmlns="http://www.w3.org/2000/svg" viewBox="0 0 256 256">
  <path d="M122,128a6,6,0,1,1,6,6A6.00014,6.00014,0,0,1,122,128Zm87.45508,30.54419a35.99935,35.99935,0,1,1-50.91016,50.91138L128,178.91089,97.45508,209.45605A35.99961,35.99961,0,1,1,46.54492,158.544L77.08887,128,46.54492,97.45581A35.99944,35.99944,0,1,1,97.45508,46.54419L128,77.08911l30.54492-30.54492a35.99944,35.99944,0,1,1,50.91016,50.91162L178.91113,128ZM133.65674,82.74561l39.59765,39.5979,30.54444-30.54444a27.99994,27.99994,0,1,0-39.59766-39.59814ZM128,88.4021,88.40234,128,128,167.59766,167.59766,128ZM82.74561,122.34326l39.59765-39.59765L91.79883,52.20093A27.99994,27.99994,0,1,0,52.20117,91.79907Zm39.59814,50.91089L82.74561,133.65649,52.20117,164.20117a27.99977,27.99977,0,1,0,39.59766,39.59766ZM212,184a27.81765,27.81765,0,0,0-8.20117-19.79883l-30.54444-30.54443-39.59765,39.59765,30.54443,30.54444A28,28,0,0,0,212,184Z"/>
</svg>
