<svg id="Flat" xmlns="http://www.w3.org/2000/svg" viewBox="0 0 256 256">
  <path d="M128,28A100,100,0,1,0,228,128,100.11332,100.11332,0,0,0,128,28ZM65.67383,195.60645a100.9632,100.9632,0,0,0,6.7456-8.16651,3.99984,3.99984,0,1,0-6.43066-4.7583,92.88471,92.88471,0,0,1-5.967,7.24512A91.8325,91.8325,0,0,1,60.022,66.07324a92.80835,92.80835,0,0,1,5.96436,7.24219,3.99984,3.99984,0,1,0,6.43066-4.7583,100.92126,100.92126,0,0,0-6.74292-8.16358,91.81867,91.81867,0,0,1,124.65186,0,100.82071,100.82071,0,0,0-6.74292,8.16358,3.99984,3.99984,0,1,0,6.43066,4.7583,92.88238,92.88238,0,0,1,5.96436-7.24219,91.8325,91.8325,0,0,1,.00024,123.85352,92.86953,92.86953,0,0,1-5.967-7.24512,3.99984,3.99984,0,1,0-6.43066,4.7583,100.999,100.999,0,0,0,6.7456,8.16651,91.81929,91.81929,0,0,1-124.65234,0ZM176.769,98.75635a92.887,92.887,0,0,0-3.64648,14.90136,4,4,0,1,1-7.90137-1.25195,100.84517,100.84517,0,0,1,3.96192-16.18847,3.99979,3.99979,0,1,1,7.58593,2.53906Zm-.001,58.48388a3.99979,3.99979,0,1,1-7.58594,2.53907,100.82416,100.82416,0,0,1-3.96143-16.189,3.99989,3.99989,0,1,1,7.90137-1.251A92.82511,92.82511,0,0,0,176.76807,157.24023ZM79.231,98.75635a3.99979,3.99979,0,1,1,7.58593-2.53906,100.84517,100.84517,0,0,1,3.96192,16.18847,4,4,0,1,1-7.90137,1.25195A92.887,92.887,0,0,0,79.231,98.75635Zm11.54834,44.834a100.82416,100.82416,0,0,1-3.96143,16.189,3.99979,3.99979,0,0,1-7.58594-2.53907,92.82511,92.82511,0,0,0,3.646-14.90087,3.99989,3.99989,0,1,1,7.90137,1.251Z"/>
</svg>
