<svg xmlns="http://www.w3.org/2000/svg" viewBox="0 0 256 256"><path d="M128,28A100,100,0,1,0,228,128,100.2,100.2,0,0,0,128,28ZM65.7,195.6a88.6,88.6,0,0,0,6.7-8.2,4,4,0,1,0-6.4-4.7q-2.9,3.8-6,7.2A91.8,91.8,0,0,1,60,66.1q3.2,3.5,6,7.2a3.9,3.9,0,0,0,3.2,1.6,4.2,4.2,0,0,0,2.4-.7,4,4,0,0,0,.8-5.6,88.6,88.6,0,0,0-6.7-8.2,91.7,91.7,0,0,1,124.6,0,88.6,88.6,0,0,0-6.7,8.2,4,4,0,0,0,.8,5.6,4.2,4.2,0,0,0,2.4.7,3.9,3.9,0,0,0,3.2-1.6q2.9-3.7,6-7.2a91.8,91.8,0,0,1,0,123.8q-3.1-3.5-6-7.2a4,4,0,1,0-6.4,4.7,88.6,88.6,0,0,0,6.7,8.2,91.7,91.7,0,0,1-124.6,0ZM176.8,98.8a83.2,83.2,0,0,0-3.7,14.9,4,4,0,0,1-3.9,3.3h-.7a4.1,4.1,0,0,1-3.3-4.6,100.9,100.9,0,0,1,4-16.2,4,4,0,0,1,5-2.5A4.1,4.1,0,0,1,176.8,98.8Zm0,58.4a4.1,4.1,0,0,1-2.6,5.1l-1.2.2a3.9,3.9,0,0,1-3.8-2.7,100.9,100.9,0,0,1-4-16.2,4.1,4.1,0,0,1,3.3-4.6,4.1,4.1,0,0,1,4.6,3.3A83.2,83.2,0,0,0,176.8,157.2ZM79.2,98.8a4.1,4.1,0,0,1,2.6-5.1,4,4,0,0,1,5,2.5,100.9,100.9,0,0,1,4,16.2,4.1,4.1,0,0,1-3.3,4.6h-.7a4,4,0,0,1-3.9-3.3A83.2,83.2,0,0,0,79.2,98.8Zm11.6,44.8a100.9,100.9,0,0,1-4,16.2,3.9,3.9,0,0,1-3.8,2.7l-1.2-.2a4.1,4.1,0,0,1-2.6-5.1,83.2,83.2,0,0,0,3.7-14.9,4.1,4.1,0,0,1,4.6-3.3A4.1,4.1,0,0,1,90.8,143.6Z"/></svg>