<svg xmlns="http://www.w3.org/2000/svg" viewBox="0 0 256 256"><path d="M199.2,198.2a100,100,0,0,0,0-140.4l-.4-.4-.4-.3a99.7,99.7,0,0,0-140.8,0l-.4.3-.4.4a100,100,0,0,0,0,140.4c.1.1.2.3.4.4l.4.3a99.7,99.7,0,0,0,140.8,0l.4-.3C199,198.5,199.1,198.3,199.2,198.2ZM36.1,132H83.9A91.1,91.1,0,0,1,60,189.9,90.9,90.9,0,0,1,36.1,132ZM60,66.1A91.1,91.1,0,0,1,83.9,124H36.1A90.9,90.9,0,0,1,60,66.1ZM219.9,124H172.1A91.1,91.1,0,0,1,196,66.1,90.9,90.9,0,0,1,219.9,124Zm-55.8,0H132V36.1a91.8,91.8,0,0,1,58.3,24.3A98.9,98.9,0,0,0,164.1,124ZM124,124H91.9A98.9,98.9,0,0,0,65.7,60.4,91.8,91.8,0,0,1,124,36.1Zm-32.1,8H124v87.9a91.8,91.8,0,0,1-58.3-24.3A98.9,98.9,0,0,0,91.9,132Zm40.1,0h32.1a98.9,98.9,0,0,0,26.2,63.6A91.8,91.8,0,0,1,132,219.9Zm40.1,0h47.8A90.9,90.9,0,0,1,196,189.9,91.1,91.1,0,0,1,172.1,132Z"/></svg>