<svg id="Flat" xmlns="http://www.w3.org/2000/svg" viewBox="0 0 256 256">
  <path d="M199.1687,198.17432a99.81694,99.81694,0,0,0,.01-140.33887,2.63056,2.63056,0,0,0-.74023-.74658,99.82726,99.82726,0,0,0-140.87818.00146,2.61642,2.61642,0,0,0-.739.74512,99.81694,99.81694,0,0,0,.01,140.33887,2.57046,2.57046,0,0,0,.72168.72851,99.82806,99.82806,0,0,0,140.894,0,2.57046,2.57046,0,0,0,.72168-.72851ZM36.09229,132H83.90283a91.26516,91.26516,0,0,1-23.87817,57.92969A91.6418,91.6418,0,0,1,36.09229,132ZM60.02466,66.07031A91.26516,91.26516,0,0,1,83.90283,124H36.09229A91.6418,91.6418,0,0,1,60.02466,66.07031ZM219.90771,124H172.09717a91.26516,91.26516,0,0,1,23.87817-57.92969A91.6418,91.6418,0,0,1,219.90771,124Zm-55.8225,0H132V36.09229A91.64969,91.64969,0,0,1,190.324,60.3916,99.22015,99.22015,0,0,0,164.08521,124ZM124,124H91.91479A99.22015,99.22015,0,0,0,65.676,60.3916,91.64969,91.64969,0,0,1,124,36.09229Zm-32.08521,8H124v87.90771A91.65023,91.65023,0,0,1,65.676,195.6084,99.22015,99.22015,0,0,0,91.91479,132ZM132,132h32.08521A99.22015,99.22015,0,0,0,190.324,195.6084,91.65023,91.65023,0,0,1,132,219.90771Zm40.09717,0h47.81054a91.6418,91.6418,0,0,1-23.93237,57.92969A91.26516,91.26516,0,0,1,172.09717,132Z"/>
</svg>
