<svg id="Flat" xmlns="http://www.w3.org/2000/svg" viewBox="0 0 256 256">
  <path d="M112,128.00012v-40a4,4,0,1,1,8,0v40a4,4,0,0,1-8,0Zm4,30a6,6,0,1,0,6,6A5.99983,5.99983,0,0,0,116,158.00012Zm124-65.9956a4.0002,4.0002,0,0,0-4,4v64a4,4,0,0,0,8,0v-64A4.0002,4.0002,0,0,0,240,92.00452Zm-28-20v112a20.02292,20.02292,0,0,1-20,20H40a20.02292,20.02292,0,0,1-20-20v-112a20.02291,20.02291,0,0,1,20-20H192A20.02291,20.02291,0,0,1,212,72.00452Zm-8,0a12.01375,12.01375,0,0,0-12-12H40a12.01375,12.01375,0,0,0-12,12v112a12.01375,12.01375,0,0,0,12,12H192a12.01375,12.01375,0,0,0,12-12Z"/>
</svg>
