<svg id="Flat" xmlns="http://www.w3.org/2000/svg" viewBox="0 0 256 256">
  <path d="M244,96v64a4,4,0,0,1-8,0V96a4,4,0,0,1,8,0ZM212,72V184a20.0226,20.0226,0,0,1-20,20H40a20.0226,20.0226,0,0,1-20-20V72A20.0226,20.0226,0,0,1,40,52H192A20.0226,20.0226,0,0,1,212,72Zm-8,0a12.01343,12.01343,0,0,0-12-12H40A12.01343,12.01343,0,0,0,28,72V184a12.01343,12.01343,0,0,0,12,12H192a12.01343,12.01343,0,0,0,12-12Zm-72,52H105.9082l13.80567-34.51465a3.99989,3.99989,0,1,0-7.42774-2.9707l-16,40A3.99986,3.99986,0,0,0,100,132h26.0918l-13.80567,34.51465a3.99989,3.99989,0,1,0,7.42774,2.9707l16-40A3.99986,3.99986,0,0,0,132,124Z"/>
</svg>
