<svg id="Flat" xmlns="http://www.w3.org/2000/svg" viewBox="0 0 256 256">
  <path d="M124,140V100a4,4,0,0,1,8,0v40a4,4,0,0,1-8,0ZM96,20h64a4,4,0,0,0,0-8H96a4,4,0,0,0,0,8ZM204,64V216a20.02292,20.02292,0,0,1-20,20H72a20.02292,20.02292,0,0,1-20-20V64A20.02292,20.02292,0,0,1,72,44H184A20.02292,20.02292,0,0,1,204,64Zm-8,0a12.01375,12.01375,0,0,0-12-12H72A12.01375,12.01375,0,0,0,60,64V216a12.01375,12.01375,0,0,0,12,12H184a12.01375,12.01375,0,0,0,12-12ZM128,168a8,8,0,1,0,8,8A8.00917,8.00917,0,0,0,128,168Z"/>
</svg>
