<svg id="Flat" xmlns="http://www.w3.org/2000/svg" viewBox="0 0 256 256">
  <path d="M92,8a4.0002,4.0002,0,0,1,4-4h64a4,4,0,0,1,0,8H96A4.0002,4.0002,0,0,1,92,8ZM204,56V208a20.02292,20.02292,0,0,1-20,20H72a20.02292,20.02292,0,0,1-20-20V56A20.02276,20.02276,0,0,1,72,36H184A20.02276,20.02276,0,0,1,204,56Zm-8,0a12.01359,12.01359,0,0,0-12-12H72A12.01359,12.01359,0,0,0,60,56V208a12.01375,12.01375,0,0,0,12,12H184a12.01375,12.01375,0,0,0,12-12Zm-52,72H117.9082l13.80567-34.5144a4,4,0,0,0-7.42774-2.9712l-16,40A3.99979,3.99979,0,0,0,112,136h26.0918l-13.80567,34.51465a3.99989,3.99989,0,1,0,7.42774,2.9707l16-39.99975A3.99979,3.99979,0,0,0,144,128Z"/>
</svg>
