<svg id="Flat" xmlns="http://www.w3.org/2000/svg" viewBox="0 0 256 256">
  <path d="M120,128.00012v-40a4,4,0,1,1,8,0v40a4,4,0,0,1-8,0Zm128-36a4.0002,4.0002,0,0,0-4,4v64a4,4,0,1,0,8,0v-64A4.0002,4.0002,0,0,0,248,92.00012Zm-28-20v112a20.02292,20.02292,0,0,1-20,20H48a20.02292,20.02292,0,0,1-20-20v-112a20.02292,20.02292,0,0,1,20-20H200A20.02292,20.02292,0,0,1,220,72.00012Zm-8,0a12.01375,12.01375,0,0,0-12-12H48a12.01375,12.01375,0,0,0-12,12v112a12.01375,12.01375,0,0,0,12,12H200a12.01375,12.01375,0,0,0,12-12Zm-88,84a8,8,0,1,0,8,8A7.99993,7.99993,0,0,0,124,156.00012Z"/>
</svg>
