<svg id="Flat" xmlns="http://www.w3.org/2000/svg" viewBox="0 0 256 256">
  <path d="M244,96v64a4,4,0,0,1-8,0V96a4,4,0,0,1,8,0ZM212,72V184a20.0226,20.0226,0,0,1-20,20H40a20.0226,20.0226,0,0,1-20-20V72A20.0226,20.0226,0,0,1,40,52H192A20.0226,20.0226,0,0,1,212,72Zm-8,0a12.01343,12.01343,0,0,0-12-12H40A12.01343,12.01343,0,0,0,28,72V184a12.01343,12.01343,0,0,0,12,12H192a12.01343,12.01343,0,0,0,12-12ZM60.7998,84.00049a3.99989,3.99989,0,0,0-4,4v80a4,4,0,0,0,8,0v-80A3.99988,3.99988,0,0,0,60.7998,84.00049Z"/>
</svg>
