<svg xmlns="http://www.w3.org/2000/svg" viewBox="0 0 256 256"><path d="M252,96v64a4,4,0,0,1-8,0V96a4,4,0,0,1,8,0ZM220,72V184a20.1,20.1,0,0,1-20,20H48a20.1,20.1,0,0,1-20-20V72A20.1,20.1,0,0,1,48,52H200A20.1,20.1,0,0,1,220,72Zm-8,0a12,12,0,0,0-12-12H48A12,12,0,0,0,36,72V184a12,12,0,0,0,12,12H200a12,12,0,0,0,12-12ZM142.4,84a4,4,0,0,0-4,4v80a4,4,0,0,0,8,0V88A4,4,0,0,0,142.4,84Zm-36.8,0a4,4,0,0,0-4,4v80a4,4,0,0,0,8,0V88A4,4,0,0,0,105.6,84ZM68.8,84a4,4,0,0,0-4,4v80a4,4,0,0,0,8,0V88A4,4,0,0,0,68.8,84Zm110.4,0a4,4,0,0,0-4,4v80a4,4,0,0,0,8,0V88A4,4,0,0,0,179.2,84Z"/></svg>