<svg id="Flat" xmlns="http://www.w3.org/2000/svg" viewBox="0 0 256 256">
  <path d="M252,96v64a4,4,0,0,1-8,0V96a4,4,0,0,1,8,0ZM220,72V184a20.0226,20.0226,0,0,1-20,20H48a20.0226,20.0226,0,0,1-20-20V72A20.0226,20.0226,0,0,1,48,52H200A20.0226,20.0226,0,0,1,220,72Zm-8,0a12.01375,12.01375,0,0,0-12-12H48A12.01375,12.01375,0,0,0,36,72V184a12.01375,12.01375,0,0,0,12,12H200a12.01375,12.01375,0,0,0,12-12ZM142.3999,84.00049a3.99989,3.99989,0,0,0-4,4v80a4,4,0,0,0,8,0v-80A3.99988,3.99988,0,0,0,142.3999,84.00049Zm-36.7998,0a3.99988,3.99988,0,0,0-4,4v80a4,4,0,0,0,8,0v-80A3.99989,3.99989,0,0,0,105.6001,84.00049Zm-36.8003,0a3.99989,3.99989,0,0,0-4,4v80a4,4,0,0,0,8,0v-80A3.99988,3.99988,0,0,0,68.7998,84.00049Z"/>
</svg>
