<svg xmlns="http://www.w3.org/2000/svg" viewBox="0 0 256 256"><path d="M242.8,45.2l-32-32a4,4,0,0,0-5.6,5.6l4.7,4.8L150.3,68.3l-39.1,7.8a3.1,3.1,0,0,0-2,1.1L24.5,161.9a19.8,19.8,0,0,0,0,28.2l41.4,41.4a19.8,19.8,0,0,0,28.2,0l68.7-68.7h0l16-16a3.1,3.1,0,0,0,1.1-2l7.8-39.1,44.7-59.6,4.8,4.7a3.9,3.9,0,0,0,5.6,0A3.9,3.9,0,0,0,242.8,45.2ZM104,210.3,45.7,152,96,101.7,154.3,160ZM88.5,225.9a12.2,12.2,0,0,1-17,0L30.1,184.5a12.1,12.1,0,0,1,0-17l9.9-9.8L98.3,216Zm92.3-124.3a3.3,3.3,0,0,0-.7,1.6L172.3,142,160,154.3,101.7,96,114,83.7l38.8-7.8a3.3,3.3,0,0,0,1.6-.7l61.2-45.9,11.1,11.1Z"/></svg>