<svg id="Flat" xmlns="http://www.w3.org/2000/svg" viewBox="0 0 256 256">
  <path d="M99.99316,16.0127a4.0002,4.0002,0,0,1,4-4h48a4,4,0,1,1,0,8h-48A4.0002,4.0002,0,0,1,99.99316,16.0127ZM210.69043,218.96a3.9999,3.9999,0,0,1-5.65039-.26953L191.69666,204.0127h-27.9242a35.99483,35.99483,0,0,1-71.54492,0H48.73633a12.13731,12.13731,0,0,1-10.50977-6.10547,11.55448,11.55448,0,0,1,.043-11.72168C44.5332,175.54785,52,155.43164,52,120.0127A75.65078,75.65078,0,0,1,70.33179,70.51123L45.04,42.69043A4,4,0,0,1,50.96,37.30957l160,176A4.00045,4.00045,0,0,1,210.69043,218.96ZM155.70972,204.0127H100.29028a27.99643,27.99643,0,0,0,55.41944,0Zm28.71411-8L75.7688,76.49219A67.67433,67.67433,0,0,0,60,120.0127c0,37.22168-8.06836,58.73632-14.83594,70.23144a3.62518,3.62518,0,0,0,.00782,3.69238,4.06559,4.06559,0,0,0,3.56445,2.07618ZM104.09668,56.33105a67.9835,67.9835,0,0,1,31.82812-3.87011c33.75,3.80664,59.58692,34.373,60.09961,71.10058.22266,15.98438,1.9795,30.3545,5.22071,42.709a4,4,0,0,0,7.73828-2.0293c-3.07715-11.72949-4.7461-25.45312-4.959-40.791-.56933-40.74512-29.46-74.68165-67.20312-78.93848a75.9376,75.9376,0,0,0-35.53711,4.33105,3.99952,3.99952,0,1,0,2.8125,7.48828Z"/>
</svg>
