<svg xmlns="http://www.w3.org/2000/svg" viewBox="0 0 256 256"><path d="M217.4,177.9c-6.2-10.6-13.6-30.7-13.6-65.9v-7.1c0-42.1-33.7-76.6-75.2-76.9H128a76,76,0,0,0-75.8,76v8c0,35.2-7.4,55.3-13.6,65.9A12.1,12.1,0,0,0,49,196H92v4a36,36,0,0,0,72,0v-4h43a12.1,12.1,0,0,0,10.4-18.1ZM156,200a28,28,0,0,1-56,0v-4h56Zm54.5-14a4.1,4.1,0,0,1-3.5,2H49a4.1,4.1,0,0,1-3.5-2,4.1,4.1,0,0,1,.1-4.1C52.2,170.5,60.2,149,60.2,112v-8A67.8,67.8,0,0,1,128,36h.5c37.1.3,67.3,31.2,67.3,68.9V112c0,37,8,58.5,14.6,69.9A4.1,4.1,0,0,1,210.5,186Z"/></svg>