<svg id="Flat" xmlns="http://www.w3.org/2000/svg" viewBox="0 0 256 256">
  <path d="M50.96,37.30957A4,4,0,0,0,45.04,42.69043L63.89038,63.42578a75.69345,75.69345,0,0,0-11.68726,40.55371v8c0,35.22754-7.373,55.30567-13.55859,65.94629A11.99864,11.99864,0,0,0,48.9834,195.97949H184.3938L205.04,218.69043a4,4,0,1,0,5.91992-5.38086ZM48.9834,187.97949a3.89456,3.89456,0,0,1-3.43652-1.98926,3.96528,3.96528,0,0,1,.01367-4.04394c6.67968-11.49121,14.64257-32.957,14.64257-69.9668v-8a67.7545,67.7545,0,0,1,9.29407-34.38623l107.6239,118.38623Zm115.0166,36a4.0002,4.0002,0,0,1-4,4H96a4,4,0,0,1,0-8h64A4.0002,4.0002,0,0,1,164,223.97949ZM89.03027,43.36719a3.99968,3.99968,0,0,1,1.48731-5.458,75.95,75.95,0,0,1,38.06054-9.92773c41.48047.30859,75.22657,34.80566,75.22657,76.90136v7.09668c0,22.37012,2.93945,41.17285,8.7373,55.88477a4.0003,4.0003,0,1,1-7.44336,2.93359c-6.167-15.65039-9.29394-35.44043-9.29394-58.81836v-7.09668c0-37.71679-30.18457-68.626-67.28516-68.90136-.16894-.001-.33789-.002-.50586-.002a67.62213,67.62213,0,0,0-33.52539,8.875A3.99666,3.99666,0,0,1,89.03027,43.36719Z"/>
</svg>
