<svg id="Flat" xmlns="http://www.w3.org/2000/svg" viewBox="0 0 256 256">
  <path d="M164,224.00024a4.0002,4.0002,0,0,1-4,4H96a4,4,0,1,1,0-8h64A4.0002,4.0002,0,0,1,164,224.00024Zm53.38672-33.998a11.84205,11.84205,0,0,1-10.37012,5.998H48.9834a11.99864,11.99864,0,0,1-10.33887-18.05371c6.18555-10.64062,13.55859-30.71875,13.55859-65.94629v-8a75.89961,75.89961,0,0,1,75.7959-76c.19336,0,.38575.001.5791.002,41.48047.30761,75.22657,34.80566,75.22657,76.90136v7.09668c0,35.22852,7.36914,55.30762,13.55176,65.94824A11.91553,11.91553,0,0,1,217.38672,190.0022Zm-6.94824-8.03418c-6.67578-11.49121-14.63379-32.958-14.63379-69.96778v-7.09668c0-37.71679-30.18457-68.626-67.28516-68.90136-.17187-.001-.34668-.002-.51855-.002a67.89936,67.89936,0,0,0-67.79786,68v8c0,37.00977-7.96289,58.47559-14.64257,69.9668a3.96528,3.96528,0,0,0-.01367,4.04394,3.89456,3.89456,0,0,0,3.43652,1.98926H207.0166a3.89749,3.89749,0,0,0,3.43652-1.98828A3.96563,3.96563,0,0,0,210.43848,181.968Z"/>
</svg>
