<svg id="Flat" xmlns="http://www.w3.org/2000/svg" viewBox="0 0 256 256">
  <path d="M217.35645,177.94824C211.17383,167.30762,203.80469,147.22852,203.80469,112v-7.0957c0-42.09571-33.7461-76.59473-75.22656-76.90235-.19336-.001-.38575-.002-.57911-.002a75.89959,75.89959,0,0,0-75.79589,76v8c0,35.22754-7.373,55.30566-13.5586,65.94629A11.99864,11.99864,0,0,0,48.9834,196H92v4a36,36,0,0,0,72,0v-4h43.0166a11.99887,11.99887,0,0,0,10.33985-18.05176ZM156,200a28,28,0,0,1-56,0v-4h56Zm54.45313-13.98828A3.89754,3.89754,0,0,1,207.0166,188H48.9834a3.8946,3.8946,0,0,1-3.43652-1.98926,3.96528,3.96528,0,0,1,.01367-4.04394c6.67968-11.49121,14.64258-32.957,14.64258-69.9668v-8A67.89935,67.89935,0,0,1,128.001,36c.17187,0,.34668.001.51855.002,37.10059.27539,67.28516,31.18457,67.28516,68.90235V112c0,37.00977,7.958,58.47656,14.63379,69.96777A3.96568,3.96568,0,0,1,210.45313,186.01172ZM152,144a4.0002,4.0002,0,0,1-4,4H108a4.00043,4.00043,0,0,1-3.07324-6.56055L139.46,100H108a4,4,0,0,1,0-8h40a4.00043,4.00043,0,0,1,3.07324,6.56055L116.54,140H148A4.0002,4.0002,0,0,1,152,144Z"/>
</svg>
