<svg id="Flat" xmlns="http://www.w3.org/2000/svg" viewBox="0 0 256 256">
  <path d="M164,224a4.0002,4.0002,0,0,1-4,4H96a4,4,0,0,1,0-8h64A4.0002,4.0002,0,0,1,164,224Zm53.35645-46.05176A11.99887,11.99887,0,0,1,207.0166,196H48.9834a11.99864,11.99864,0,0,1-10.33887-18.05371C44.83008,167.30566,52.20313,147.22754,52.20313,112A75.89959,75.89959,0,0,1,127.999,36c.19336,0,.38575.001.57911.002A75.708,75.708,0,0,1,203.80469,112C203.80469,147.22852,211.17383,167.30762,217.35645,177.94824Zm-6.918,4.01953c-6.67578-11.49121-14.63379-32.958-14.63379-69.96777A67.70593,67.70593,0,0,0,128.51953,44.002c-.17187-.001-.34668-.002-.51855-.002a67.89935,67.89935,0,0,0-67.79785,68c0,37.00977-7.9629,58.47559-14.64258,69.9668a3.96528,3.96528,0,0,0-.01367,4.04394A3.8946,3.8946,0,0,0,48.9834,188H207.0166a3.89754,3.89754,0,0,0,3.43653-1.98828A3.96568,3.96568,0,0,0,210.43848,181.96777Zm14.5-117.63183a108.27358,108.27358,0,0,0-39.3711-43.73047,4.00008,4.00008,0,1,0-4.26953,6.76562,100.29075,100.29075,0,0,1,36.46485,40.5,3.99966,3.99966,0,1,0,7.17578-3.53515ZM38.2373,67.87109a100.29075,100.29075,0,0,1,36.46485-40.5,4.00008,4.00008,0,1,0-4.26953-6.76562,108.27358,108.27358,0,0,0-39.3711,43.73047,3.99966,3.99966,0,1,0,7.17578,3.53515Z"/>
</svg>
