<svg id="Flat" xmlns="http://www.w3.org/2000/svg" viewBox="0 0 256 256">
  <path d="M163.9248,232.02051a4.0002,4.0002,0,0,1-4,4h-64a4,4,0,0,1,0-8h64A4.00019,4.00019,0,0,1,163.9248,232.02051ZM210.69043,218.96a3.9999,3.9999,0,0,1-5.65039-.26953l-13.3363-14.66992H48.76074a11.99743,11.99743,0,0,1-10.35449-18.05762C44.60742,175.32227,52,155.24414,52,120.02051v-16A75.5384,75.5384,0,0,1,63.8042,63.33105L45.04,42.69043A4,4,0,0,1,50.96,37.30957l160,176A4.00045,4.00045,0,0,1,210.69043,218.96ZM184.431,196.02051,69.406,69.49316A67.58555,67.58555,0,0,0,60,104.02051v16c0,37.00976-7.98438,58.47851-14.68262,69.97168a3.99742,3.99742,0,0,0,3.44336,6.02832ZM94.46777,44.84961a67.98667,67.98667,0,0,1,33.54493-8.8291c.167,0,.33593.001.5039.002C165.72656,36.29883,196,67.208,196,104.9248v15.09571c0,17.41992,1.76367,32.97851,5.24121,46.24511a4,4,0,1,0,7.73828-2.02929C205.67578,151.63281,204,136.75586,204,120.02051V104.9248c0-42.09472-33.835-76.59375-75.4248-76.90234-.1875-.001-.374-.00195-.56153-.00195A76.01624,76.01624,0,0,0,90.5166,37.89258a4.00038,4.00038,0,1,0,3.95117,6.957Z"/>
</svg>
