<svg id="Flat" xmlns="http://www.w3.org/2000/svg" viewBox="0 0 256 256">
  <path d="M50.96,37.30957A4,4,0,0,0,45.04,42.69043l18.858,20.7439A75.70019,75.70019,0,0,0,52.20312,104v8c0,35.22754-7.373,55.30566-13.55859,65.94629A11.99864,11.99864,0,0,0,48.9834,196H92v4a36,36,0,0,0,72,0v-4h20.41235L205.04,218.69043a4,4,0,1,0,5.91992-5.38086ZM156,200a28,28,0,0,1-56,0v-4h56ZM48.9834,188a3.89456,3.89456,0,0,1-3.43652-1.98926,3.96528,3.96528,0,0,1,.01367-4.04394c6.67968-11.49121,14.64257-32.957,14.64257-69.9668v-8a67.76276,67.76276,0,0,1,9.30152-34.39844L177.13965,188ZM89.041,43.37988a4.0009,4.0009,0,0,1,1.48925-5.458A75.64671,75.64671,0,0,1,128.01367,28c.18848,0,.377.001.56445.002,41.48047.3086,75.22657,34.80664,75.22657,76.90235V112c0,22.35352,2.93457,41.14453,8.72265,55.85156a3.99958,3.99958,0,1,1-7.44336,2.92969c-6.15722-15.64355-9.27929-35.4209-9.27929-58.78125v-7.0957c0-37.71778-30.18457-68.627-67.28516-68.90235-.16894-.001-.33789-.002-.50586-.002A67.63106,67.63106,0,0,0,94.499,44.86914,4.00091,4.00091,0,0,1,89.041,43.37988Z"/>
</svg>
