<svg id="Flat" xmlns="http://www.w3.org/2000/svg" viewBox="0 0 256 256">
  <path d="M217.58789,185.96509C211.38965,175.32544,204,155.24829,204,120.02075v-15.0957c0-42.09571-33.835-76.59473-75.4248-76.90235A76.00037,76.00037,0,0,0,52,104.02075v16c0,35.22461-7.39258,55.30176-13.59375,65.94141a11.99792,11.99792,0,0,0,10.35449,18.05859H207.23145a11.998,11.998,0,0,0,10.35644-18.05566Zm-6.89453,8.05664a3.91916,3.91916,0,0,1-3.46191,1.999H48.76074a3.99875,3.99875,0,0,1-3.44336-6.0293C52.01562,178.49927,60,157.03149,60,120.02075v-16a67.99973,67.99973,0,0,1,67.99609-68c.17286,0,.34766.001.52051.002C165.72656,36.29809,196,67.20727,196,104.92505v15.0957c0,37.0127,7.98047,58.48047,14.67578,69.97168A3.94833,3.94833,0,0,1,210.69336,194.02173Zm-46.76856,37.999a4.0002,4.0002,0,0,1-4,4h-64a4,4,0,0,1,0-8h64A4.0002,4.0002,0,0,1,163.9248,232.02075Z"/>
</svg>
