<svg id="Flat" xmlns="http://www.w3.org/2000/svg" viewBox="0 0 256 256">
  <path d="M217.35645,177.94848c-6.18262-10.64062-13.55176-30.71972-13.55176-65.94824v-7.09668c0-42.0957-33.7461-76.59375-75.22657-76.90136-.19335-.001-.38574-.002-.5791-.002a75.89961,75.89961,0,0,0-75.7959,76v8c0,35.22754-7.373,55.30567-13.55859,65.94629A11.99864,11.99864,0,0,0,48.9834,196.00024H92v4a36,36,0,0,0,72,0v-4h43.0166a11.99886,11.99886,0,0,0,10.33985-18.05176ZM156,200.00024a28,28,0,0,1-56,0v-4h56ZM210.45312,186.012a3.89749,3.89749,0,0,1-3.43652,1.98828H48.9834a3.89456,3.89456,0,0,1-3.43652-1.98926,3.96528,3.96528,0,0,1,.01367-4.04394c6.67968-11.49121,14.64257-32.957,14.64257-69.9668v-8a67.89936,67.89936,0,0,1,67.79786-68c.17187,0,.34668.001.51855.002,37.10059.27539,67.28516,31.18457,67.28516,68.90136v7.09668c0,37.00977,7.958,58.47657,14.63379,69.96778A3.96563,3.96563,0,0,1,210.45312,186.012Z"/>
</svg>
