<svg id="Flat" xmlns="http://www.w3.org/2000/svg" viewBox="0 0 256 256">
  <path d="M99.99316,16.012a4.0002,4.0002,0,0,1,4-4h48a4,4,0,1,1,0,8h-48A4.0002,4.0002,0,0,1,99.99316,16.012Zm117.582,182.0586a11.78564,11.78564,0,0,1-10.33106,5.9414H163.77246a35.99483,35.99483,0,0,1-71.54492,0H48.73633a12.13611,12.13611,0,0,1-10.50977-6.10547,11.55267,11.55267,0,0,1,.043-11.7207C44.5332,175.54809,52,155.43188,52,120.012a76.02066,76.02066,0,0,1,84.82129-75.501c37.74316,4.25782,66.63379,38.19434,67.20312,78.93946.46192,33.11133,7.5918,52.19824,13.49024,62.38086A12.106,12.106,0,0,1,217.5752,198.07056Zm-61.86548,5.9414H100.29028a27.99643,27.99643,0,0,0,55.41944,0ZM210.59277,189.842c-6.37695-11.00781-14.08105-31.44141-14.56836-66.28027C195.51172,86.8352,169.6748,56.26782,135.9248,52.4602a71.51749,71.51749,0,0,0-8.0205-.4541A67.20814,67.20814,0,0,0,82.71,69.28833,68.10139,68.10139,0,0,0,60,120.012c0,37.22168-8.06836,58.73731-14.83594,70.23242a3.62628,3.62628,0,0,0,.00684,3.69141,4.06715,4.06715,0,0,0,3.56543,2.07617H207.24414a3.82978,3.82978,0,0,0,3.39941-1.93555A4.18961,4.18961,0,0,0,210.59277,189.842Z"/>
</svg>
