<svg xmlns="http://www.w3.org/2000/svg" viewBox="0 0 256 256"><path d="M203.8,112a75.6,75.6,0,0,0-75.2-76H128a76,76,0,0,0-75.8,76c0,35.2-7.4,55.3-13.6,65.9a12.2,12.2,0,0,0,0,12.1A11.9,11.9,0,0,0,49,196H92v4a36,36,0,0,0,72,0v-4h43a11.9,11.9,0,0,0,10.4-6,12.2,12.2,0,0,0,0-12.1C211.2,167.3,203.8,147.2,203.8,112ZM156,200a28,28,0,0,1-56,0v-4h56Zm54.5-14a4.1,4.1,0,0,1-3.5,2H49a4.1,4.1,0,0,1-3.5-2,4,4,0,0,1,.1-4c6.6-11.5,14.6-33,14.6-70A67.9,67.9,0,0,1,128,44h.5a67.6,67.6,0,0,1,67.3,68c0,37,8,58.5,14.6,70A4,4,0,0,1,210.5,186ZM223.1,69.7a3.8,3.8,0,0,1-1.7.4,4,4,0,0,1-3.6-2.2,100.4,100.4,0,0,0-36.5-40.5,4,4,0,1,1,4.3-6.8,108.3,108.3,0,0,1,39.3,43.7A4,4,0,0,1,223.1,69.7Zm-188.5.4a3.8,3.8,0,0,1-1.7-.4,4,4,0,0,1-1.8-5.4A108.3,108.3,0,0,1,70.4,20.6a4,4,0,1,1,4.3,6.8A100.4,100.4,0,0,0,38.2,67.9,4,4,0,0,1,34.6,70.1Z"/></svg>