<svg id="Flat" xmlns="http://www.w3.org/2000/svg" viewBox="0 0 256 256">
  <path d="M164,224a4.0002,4.0002,0,0,1-4,4H96a4,4,0,0,1,0-8h64A4.0002,4.0002,0,0,1,164,224ZM217.38672,190.002A11.84206,11.84206,0,0,1,207.0166,196H48.9834a11.99864,11.99864,0,0,1-10.33887-18.05371C44.83008,167.30566,52.20313,147.22754,52.20313,112v-8A75.89959,75.89959,0,0,1,127.999,28c.19336,0,.38575.001.57911.002,41.48046.30762,75.22656,34.80664,75.22656,76.90235V112c0,35.22852,7.36914,55.30762,13.55176,65.94824A11.91551,11.91551,0,0,1,217.38672,190.002Zm-6.94824-8.03418c-6.67578-11.49121-14.63379-32.958-14.63379-69.96777v-7.0957c0-37.71778-30.18457-68.627-67.28516-68.90235-.17187-.001-.34668-.002-.51855-.002a67.89935,67.89935,0,0,0-67.79785,68v8c0,37.00977-7.9629,58.47559-14.64258,69.9668a3.96528,3.96528,0,0,0-.01367,4.04394A3.8946,3.8946,0,0,0,48.9834,188H207.0166a3.89754,3.89754,0,0,0,3.43653-1.98828A3.96568,3.96568,0,0,0,210.43848,181.96777ZM148,140H116.54l34.5332-41.43945A4.00043,4.00043,0,0,0,148,92H108a4,4,0,0,0,0,8h31.46l-34.5332,41.43945A4.00043,4.00043,0,0,0,108,148h40a4,4,0,0,0,0-8Z"/>
</svg>
