<svg id="Flat" xmlns="http://www.w3.org/2000/svg" viewBox="0 0 256 256">
  <path d="M203.99975,116a43.73511,43.73511,0,0,0-17.60669,3.688L157.9646,68h26.03515a4,4,0,0,0,0-8H151.2a4,4,0,0,0-3.50488,5.92773L162.03479,92H99.165L82.70483,62.07227A3.9996,3.9996,0,0,0,79.2,60H51.99975a4,4,0,0,0,0,8h24.835l15.26,27.74536L73.83813,121.82642a44.1163,44.1163,0,1,0,6.55,4.59448l16.00366-22.86255,32.103,58.36938a4,4,0,0,0,7.00977-3.85546L103.56494,100h62.86987l12.95044,23.54663A43.98013,43.98013,0,1,0,203.99975,116Zm-116,44a36.02253,36.02253,0,1,1-18.76513-31.59717L48.72241,157.70605a4.0004,4.0004,0,1,0,6.55469,4.5879l20.50219-29.28907A35.91637,35.91637,0,0,1,87.99975,160Zm116,36a35.982,35.982,0,0,1-20.73559-65.40112l17.23071,31.32885a4,4,0,0,0,7.00977-3.85546l-17.239-31.34351A35.9976,35.9976,0,1,1,203.99975,196Z"/>
</svg>
