<svg id="Flat" xmlns="http://www.w3.org/2000/svg" viewBox="0 0 256 256">
  <path d="M208,116a43.72528,43.72528,0,0,0-18.61768,4.14575L158.96387,68H192a12.01343,12.01343,0,0,1,12,12,4,4,0,0,0,8,0,20.0226,20.0226,0,0,0-20-20H152a3.99991,3.99991,0,0,0-3.45508,6.01562L163.70239,92H96.96411l-17.509-30.01562A4.00029,4.00029,0,0,0,76,60H48a4,4,0,0,0,0,8H73.70215l16.1914,27.75635L70.575,122.25049a44.20571,44.20571,0,1,0,6.45532,4.72656l17.26416-23.67627,34.25049,58.71484a4,4,0,1,0,6.91016-4.03124L101.63086,100h66.73828l14.11133,24.19067A43.96374,43.96374,0,1,0,208,116ZM84,160a36.04733,36.04733,0,1,1-18.16357-31.251l-21.06885,28.894a4.00046,4.00046,0,1,0,6.46484,4.71386l21.06714-28.89209A35.91055,35.91055,0,0,1,84,160Zm124,36a35.98761,35.98761,0,0,1-21.47461-64.875l18.01953,30.89062a4,4,0,1,0,6.91016-4.03124l-18.02173-30.894A35.99541,35.99541,0,1,1,208,196Z"/>
</svg>
