<svg xmlns="http://www.w3.org/2000/svg" viewBox="0 0 256 256"><path d="M231.2,148.1,189.6,53.4a8.3,8.3,0,0,0-.8-1.2,28.1,28.1,0,0,0-39.6,0A3.9,3.9,0,0,0,148,55V88H108V55a3.9,3.9,0,0,0-1.2-2.8,28.1,28.1,0,0,0-39.6,0,8.3,8.3,0,0,0-.8,1.2L24.8,148.1A43,43,0,0,0,20,168a44,44,0,0,0,88,0V96h40v72a44,44,0,0,0,88,0A43,43,0,0,0,231.2,148.1ZM64,204a36,36,0,0,1-36-36,37.6,37.6,0,0,1,2.1-12.2l1.9-4.3A36,36,0,1,1,64,204Zm0-80a44,44,0,0,0-22.7,6.3L73.4,57.4a19.9,19.9,0,0,1,26.6-.6v85.9A44,44,0,0,0,64,124Zm92-67.2a19.9,19.9,0,0,1,26.6.6l32.1,72.9A44,44,0,0,0,156,142.7ZM192,204a36,36,0,1,1,32-52.5l1.9,4.3A37.6,37.6,0,0,1,228,168,36,36,0,0,1,192,204Z"/></svg>