<svg xmlns="http://www.w3.org/2000/svg" viewBox="0 0 256 256"><path d="M172,68a8,8,0,1,1-8-8A8,8,0,0,1,172,68Zm-55.1,65.4-40,48a4.1,4.1,0,0,0,.5,5.7,4.3,4.3,0,0,0,2.6.9,4.3,4.3,0,0,0,3.1-1.4l40-48a4,4,0,0,0-6.2-5.2ZM236,80a4,4,0,0,1-1.8,3.3L212,98.1V120A100.2,100.2,0,0,1,112,220H8a4.1,4.1,0,0,1-3.6-2.3,3.8,3.8,0,0,1,.5-4.2L100,94.6V76A56,56,0,0,1,209.8,60.4l24.4,16.3A4,4,0,0,1,236,80Zm-11.2,0L204.1,66.2a3.8,3.8,0,0,1-1.6-2.3A48,48,0,0,0,108,76V96a3.8,3.8,0,0,1-.9,2.5L16.3,212H112a92.1,92.1,0,0,0,92-92V96a4,4,0,0,1,1.8-3.3Z"/></svg>