<svg id="Flat" xmlns="http://www.w3.org/2000/svg" viewBox="0 0 256 256">
  <path d="M210.96,213.30908l-62.80029-69.08032-.00244-.00269L50.96,37.30908A4.0003,4.0003,0,0,0,45.04,42.69092l74.02148,81.42358c-.04956.012-.09692.03125-.14624.045a4.01085,4.01085,0,0,0-.5083.18127c-.05224.02271-.10522.04028-.157.06531-.01465.0072-.03027.01135-.04492.01867a4.00661,4.00661,0,0,0-.56055.34693c-.01611.01184-.03418.01843-.05029.03052l-64,48a4.0001,4.0001,0,0,0,4.7998,6.40039l57.6001-43.20008v87.99988a4.00012,4.00012,0,0,0,6.3999,3.2002l53.7417-40.3064L205.04,218.69092a4.0003,4.0003,0,1,0,5.91992-5.38184Zm-86.96582,2.69336v-80l18.46362,13.8479,28.27246,31.09973Zm-8-144.38037V32.00244a4.00006,4.00006,0,0,1,6.3999-3.20019l64,48a4.00024,4.00024,0,0,1,0,6.40039L152.87012,108.3457a4.0001,4.0001,0,1,1-4.79981-6.40039l29.25733-21.94287-53.3335-40V71.62207a4,4,0,0,1-8,0Z"/>
</svg>
