<svg xmlns="http://www.w3.org/2000/svg" viewBox="0 0 256 256"><path d="M186.4,172.8,126.7,128l59.7-44.8A3.9,3.9,0,0,0,188,80a4,4,0,0,0-1.6-3.2l-64-48A4,4,0,0,0,116,32v88L58.4,76.8a4,4,0,0,0-4.8,6.4L113.3,128,53.6,172.8a4,4,0,0,0-.8,5.6A3.9,3.9,0,0,0,56,180a4.3,4.3,0,0,0,2.4-.8L116,136v88a4.2,4.2,0,0,0,2.2,3.6,3.9,3.9,0,0,0,1.8.4,4.1,4.1,0,0,0,2.4-.8l64-48A3.9,3.9,0,0,0,188,176,4,4,0,0,0,186.4,172.8ZM124,40l53.3,40L124,120Zm0,176V136l53.3,40Zm80-88a8,8,0,1,1-8-8A8,8,0,0,1,204,128ZM52,136a8,8,0,1,1,8-8A8,8,0,0,1,52,136Z"/></svg>