<svg xmlns="http://www.w3.org/2000/svg" viewBox="0 0 256 256"><path d="M211,213.3l-62.8-69.1h0L51,37.3a4.2,4.2,0,0,0-5.7-.3,4.1,4.1,0,0,0-.2,5.7l74,81.4h-.7a.1.1,0,0,1-.1.1h-.1a1,1,0,0,0-.5.4h-.1l-64,48a4,4,0,0,0-.8,5.6A3.9,3.9,0,0,0,56,180a4.3,4.3,0,0,0,2.4-.8L116,136v88a4.2,4.2,0,0,0,2.2,3.6,3.9,3.9,0,0,0,1.8.4,4.1,4.1,0,0,0,2.4-.8l53.7-40.3,29,31.8A3.6,3.6,0,0,0,208,220a3.9,3.9,0,0,0,2.7-1A4.1,4.1,0,0,0,211,213.3ZM124,216V136l18.5,13.9L170.7,181ZM116,71.6V32a4.2,4.2,0,0,1,2.2-3.6,4,4,0,0,1,4.2.4l64,48a4,4,0,0,1,0,6.4l-33.5,25.1a3.7,3.7,0,0,1-2.4.8,3.9,3.9,0,0,1-3.2-1.6,4,4,0,0,1,.8-5.6L177.3,80,124,40V71.6a4,4,0,0,1-8,0Z"/></svg>