<svg xmlns="http://www.w3.org/2000/svg" viewBox="0 0 256 256"><path d="M186.4,172.8,126.7,128l27.7-20.8a4,4,0,1,0-4.8-6.4L124,120V40l25.6,19.2a4,4,0,0,0,4.8-6.4l-32-24a4,4,0,0,0-4.2-.4A4.2,4.2,0,0,0,116,32v88L58.4,76.8a4,4,0,0,0-4.8,6.4L113.3,128,53.6,172.8a4,4,0,0,0-.8,5.6A3.9,3.9,0,0,0,56,180a4.3,4.3,0,0,0,2.4-.8L116,136v88a4.2,4.2,0,0,0,2.2,3.6,3.9,3.9,0,0,0,1.8.4,4.1,4.1,0,0,0,2.4-.8l64-48a4,4,0,0,0,0-6.4ZM124,216V136l53.3,40ZM234.8,101.2a3.9,3.9,0,0,1,0,5.6A3.8,3.8,0,0,1,232,108a3.9,3.9,0,0,1-2.8-1.2L208,85.7l-21.2,21.1A3.8,3.8,0,0,1,184,108a3.9,3.9,0,0,1-2.8-1.2,3.9,3.9,0,0,1,0-5.6L202.3,80,181.2,58.8a4,4,0,0,1,5.6-5.6L208,74.3l21.2-21.1a4,4,0,1,1,5.6,5.6L213.7,80Z"/></svg>