<svg id="Flat" xmlns="http://www.w3.org/2000/svg" viewBox="0 0 256 256">
  <path d="M188,80.00232a4.00114,4.00114,0,0,0-1.6001-3.2002l-64-48A3.99972,3.99972,0,0,0,116,32.00232v87.99976l-57.6001-43.2a4.0001,4.0001,0,1,0-4.7998,6.4004l59.73291,44.7998L53.6001,172.80212a4.0001,4.0001,0,0,0,4.7998,6.4004L116,136.0025v87.99982a4.00012,4.00012,0,0,0,6.3999,3.2002l64-48a4.00025,4.00025,0,0,0,0-6.4004L126.667,128.00232l59.73291-44.7998A4.00114,4.00114,0,0,0,188,80.00232Zm-64,136v-80l53.3335,40Zm0-96v-80l53.3335,40Zm78,8.00415a6,6,0,1,1-6-6A6.00014,6.00014,0,0,1,202,128.00647Zm-150,6a6,6,0,1,1,6-6A6.00014,6.00014,0,0,1,52,134.00647Z"/>
</svg>
