<svg id="Flat" xmlns="http://www.w3.org/2000/svg" viewBox="0 0 256 256">
  <path d="M186.3999,172.80212,126.667,128.00232l59.73291-44.7998a4.00025,4.00025,0,0,0,0-6.4004l-64-48A4.00007,4.00007,0,0,0,116,32.00232v87.99976l-57.6001-43.2a4.0001,4.0001,0,1,0-4.7998,6.4004l59.73291,44.7998L53.6001,172.80212a4.0001,4.0001,0,0,0,4.7998,6.4004L116,136.0025v87.99982a4.00012,4.00012,0,0,0,6.3999,3.2002l64-48a4.00025,4.00025,0,0,0,0-6.4004ZM124,40.00232l53.3335,40-53.3335,40Zm0,176v-80l53.3335,40Z"/>
</svg>
