<svg id="Flat" xmlns="http://www.w3.org/2000/svg" viewBox="0 0 256 256">
  <path d="M186.3999,172.80225l-59.73315-44.79981,27.73315-20.7998a4.0001,4.0001,0,1,0-4.7998-6.40039L124,120.00244v-80l25.59912,19.19922a4.0001,4.0001,0,0,0,4.79981-6.40039l-31.999-23.999A4.00006,4.00006,0,0,0,116,32.00244v88L58.3999,76.80225a4.0001,4.0001,0,1,0-4.7998,6.40039l59.73315,44.7998L53.6001,172.80225a4.0001,4.0001,0,0,0,4.7998,6.40039L116,136.00244v88a4.00012,4.00012,0,0,0,6.3999,3.2002l64-48a4.00024,4.00024,0,0,0,0-6.40039ZM124,216.00244v-80l53.3335,40Zm110.82861-114.831a4.00026,4.00026,0,0,1-5.65722,5.65722L208,85.65723l-21.17139,21.17138a4.00026,4.00026,0,0,1-5.65722-5.65722L202.34277,80,181.17139,58.82861a4.00026,4.00026,0,0,1,5.65722-5.65722L208,74.34277l21.17139-21.17138a4.00026,4.00026,0,0,1,5.65722,5.65722L213.65723,80Z"/>
</svg>
