<svg id="Flat" xmlns="http://www.w3.org/2000/svg" viewBox="0 0 256 256">
  <path d="M219.79492,114.38184,204,109.1167V56a12.01312,12.01312,0,0,0-12-12H132V24a4,4,0,0,0-8,0V44H64A12.01312,12.01312,0,0,0,52,56v53.1167l-15.7959,5.26514A11.98475,11.98475,0,0,0,28,125.76611V160a3.98284,3.98284,0,0,0,.1543,1.09863c15.10351,52.86328,83.55859,71.24854,97.12793,74.39746a11.93783,11.93783,0,0,0,5.43554,0c13.56934-3.14892,82.02442-21.53418,97.12793-74.39746A3.98284,3.98284,0,0,0,228,160V125.76611A11.98436,11.98436,0,0,0,219.79492,114.38184ZM60,56a4.00427,4.00427,0,0,1,4-4H192a4.00427,4.00427,0,0,1,4,4v50.4502L131.79492,85.04834a12.02968,12.02968,0,0,0-3.73242-.60938c-.02136,0-.041-.00634-.0625-.00634-.02173,0-.04175.00634-.06348.00683a11.99947,11.99947,0,0,0-3.73144.60938L60,106.4502ZM220,159.43164c-5.96289,20.23486-21.4375,37.375-46.00195,50.94873a186.1364,186.1364,0,0,1-45.08887,17.32275,3.98485,3.98485,0,0,1-1.81836,0,186.1364,186.1364,0,0,1-45.08887-17.32275C57.4375,196.80664,41.96289,179.6665,36,159.43164V125.76611a3.99467,3.99467,0,0,1,2.73438-3.79492L124,93.5498V168a4,4,0,0,0,8,0V93.54932l85.26465,28.42187A3.99428,3.99428,0,0,1,220,125.76611Z"/>
</svg>
