<svg xmlns="http://www.w3.org/2000/svg" viewBox="0 0 256 256"><path d="M219.8,114.4,204,109.1V56a12,12,0,0,0-12-12H132V24a4,4,0,0,0-8,0V44H64A12,12,0,0,0,52,56v53.1l-15.8,5.3A12,12,0,0,0,28,125.8V160a4.3,4.3,0,0,0,.2,1.1c15.1,52.9,83.5,71.2,97.1,74.4l2.7.3,2.7-.3c13.6-3.2,82-21.5,97.1-74.4a4.3,4.3,0,0,0,.2-1.1V125.8A12,12,0,0,0,219.8,114.4ZM60,56a4,4,0,0,1,4-4H192a4,4,0,0,1,4,4v50.5L131.8,85a11.9,11.9,0,0,0-3.7-.6h-.2a11.9,11.9,0,0,0-3.7.6L60,106.5ZM220,159.4c-6,20.3-21.4,37.4-46,51a185,185,0,0,1-45.1,17.3,5.4,5.4,0,0,1-1.8,0A185,185,0,0,1,82,210.4c-24.6-13.6-40-30.7-46-51V125.8a3.9,3.9,0,0,1,2.7-3.8L124,93.5V168a4,4,0,0,0,8,0V93.5L217.3,122a3.9,3.9,0,0,1,2.7,3.8Z"/></svg>