<svg id="Flat" xmlns="http://www.w3.org/2000/svg" viewBox="0 0 256 256">
  <path d="M229.75146,196.61035l-8.28173-30.9082-.00049-.00195-.00049-.00184L196.62256,72.97217v-.00086l-8.28223-30.90979a12.00916,12.00916,0,0,0-14.69678-8.48437l-30.90966,8.28222a11.99256,11.99256,0,0,0-3.61182,1.656A12.01237,12.01237,0,0,0,128,36H96a11.93662,11.93662,0,0,0-8,3.081A11.93662,11.93662,0,0,0,80,36H48A12.01343,12.01343,0,0,0,36,48V208a12.01343,12.01343,0,0,0,12,12H80a11.93662,11.93662,0,0,0,8-3.08105A11.93662,11.93662,0,0,0,96,220h32a12.01343,12.01343,0,0,0,12-12V78.02l2.53027,9.44373.00049.00109.00049.00122,24.84619,92.72706v.00122l.00049.00146,8.28174,30.90772a11.98984,11.98984,0,0,0,14.69678,8.48535l30.90966-8.28223a11.99918,11.99918,0,0,0,8.48535-14.69629ZM151.293,89.25781,189.93066,78.9054l22.77588,85.00207-38.63672,10.353ZM96,44h32a4.00427,4.00427,0,0,1,4,4V172H92V48A4.00427,4.00427,0,0,1,96,44ZM48,44H80a4.00427,4.00427,0,0,1,4,4V76H44V48A4.00427,4.00427,0,0,1,48,44ZM80,212H48a4.00427,4.00427,0,0,1-4-4V84H84V208A4.00427,4.00427,0,0,1,80,212Zm48,0H96a4.00427,4.00427,0,0,1-4-4V180h40v28A4.00427,4.00427,0,0,1,128,212ZM142.37549,51.4502a3.97587,3.97587,0,0,1,2.4292-1.86426l30.90918-8.28223a3.99814,3.99814,0,0,1,4.89892,2.82813l7.24756,27.04687L149.22266,81.53113l-7.24659-27.04578A3.9718,3.9718,0,0,1,142.37549,51.4502Zm79.249,150.26562a3.97594,3.97594,0,0,1-2.4292,1.86426l-30.90918,8.28222a4.00907,4.00907,0,0,1-4.89892-2.8291l-7.24707-27.04614,38.63672-10.353,7.24707,27.04663A3.97183,3.97183,0,0,1,221.62451,201.71582Z"/>
</svg>
