<svg id="Flat" xmlns="http://www.w3.org/2000/svg" viewBox="0 0 256 256">
  <path d="M207.99951,28h-136a28.03146,28.03146,0,0,0-28,28V232a4.0002,4.0002,0,0,0,4,4h144a4,4,0,0,0,0-8h-140v-4a20.02229,20.02229,0,0,1,20-20h136a4.0002,4.0002,0,0,0,4-4V32A4.0002,4.0002,0,0,0,207.99951,28Zm-91.99707,8h56v84.001L146.394,100.7998a4.0005,4.0005,0,0,0-4.7998,0L116.00244,119.999Zm87.99707,160h-132a27.915,27.915,0,0,0-20,8.42285V56a20.02229,20.02229,0,0,1,20-20h36.00293v92a4,4,0,0,0,6.40039,3.2002L143.99561,109,173.603,131.2002A4.00015,4.00015,0,0,0,180.00244,128V36h23.99707Z"/>
</svg>
