<svg id="Flat" xmlns="http://www.w3.org/2000/svg" viewBox="0 0 256 256">
  <path d="M224,52H160a36.02912,36.02912,0,0,0-32,19.53955A36.02912,36.02912,0,0,0,96,52H32A12.01343,12.01343,0,0,0,20,64V192a12.01343,12.01343,0,0,0,12,12H96a28.03146,28.03146,0,0,1,28,28,4,4,0,0,0,8,0,28.03146,28.03146,0,0,1,28-28h64a12.01343,12.01343,0,0,0,12-12V64A12.01343,12.01343,0,0,0,224,52ZM96,196H32a4.00427,4.00427,0,0,1-4-4V64a4.00427,4.00427,0,0,1,4-4H96a28.03146,28.03146,0,0,1,28,28V209.39648A35.949,35.949,0,0,0,96,196Zm132-4a4.00427,4.00427,0,0,1-4,4H160a35.94218,35.94218,0,0,0-28,13.40747V88a28.03146,28.03146,0,0,1,28-28h64a4.00427,4.00427,0,0,1,4,4Z"/>
</svg>
