<svg xmlns="http://www.w3.org/2000/svg" viewBox="0 0 256 256"><path d="M229.8,196.6l-8.3-30.9h0L196.6,73h0l-8.3-30.9a12,12,0,0,0-14.7-8.5l-30.9,8.3a11.7,11.7,0,0,0-3.6,1.6A12,12,0,0,0,128,36H96a11.9,11.9,0,0,0-8,3.1A11.9,11.9,0,0,0,80,36H48A12,12,0,0,0,36,48V208a12,12,0,0,0,12,12H80a11.9,11.9,0,0,0,8-3.1,11.9,11.9,0,0,0,8,3.1h32a12,12,0,0,0,12-12V78l2.5,9.5h0l24.9,92.7h0l8.3,30.9a11.9,11.9,0,0,0,11.6,8.9,11.5,11.5,0,0,0,3.1-.4l30.9-8.3a11.8,11.8,0,0,0,7.3-5.6A12.1,12.1,0,0,0,229.8,196.6ZM151.3,89.3l38.6-10.4,22.8,85-38.6,10.4ZM96,44h32a4,4,0,0,1,4,4V172H92V48A4,4,0,0,1,96,44ZM48,44H80a4,4,0,0,1,4,4V76H44V48A4,4,0,0,1,48,44ZM80,212H48a4,4,0,0,1-4-4V84H84V208A4,4,0,0,1,80,212Zm48,0H96a4,4,0,0,1-4-4V180h40v28A4,4,0,0,1,128,212ZM142.4,51.5a3.8,3.8,0,0,1,2.4-1.9l30.9-8.3h1a4,4,0,0,1,3.9,2.9l7.3,27.1L149.2,81.5l-7.2-27A3.5,3.5,0,0,1,142.4,51.5Zm79.2,150.2a4.1,4.1,0,0,1-2.4,1.9l-30.9,8.3a4.1,4.1,0,0,1-4.9-2.9l-7.3-27,38.7-10.4,7.2,27.1A3.5,3.5,0,0,1,221.6,201.7Z"/></svg>