<svg xmlns="http://www.w3.org/2000/svg" viewBox="0 0 256 256"><path d="M192,28H96A12,12,0,0,0,84,40V60H64A12,12,0,0,0,52,72V224a4,4,0,0,0,2.2,3.6,4.3,4.3,0,0,0,4.1-.3L112,188.9l53.7,38.4a4.8,4.8,0,0,0,2.3.7,3.7,3.7,0,0,0,1.8-.4A4,4,0,0,0,172,224V176.9l25.7,18.4a4.8,4.8,0,0,0,2.3.7,3.7,3.7,0,0,0,1.8-.4A4,4,0,0,0,204,192V40A12,12,0,0,0,192,28ZM164,216.2l-49.7-35.5a4.1,4.1,0,0,0-4.6,0L60,216.2V72a4,4,0,0,1,4-4h96a4,4,0,0,1,4,4Zm32-32-24-17.1V72a12,12,0,0,0-12-12H92V40a4,4,0,0,1,4-4h96a4,4,0,0,1,4,4Z"/></svg>