<svg id="Flat" xmlns="http://www.w3.org/2000/svg" viewBox="0 0 256 256">
  <path d="M192,28H96A12.01343,12.01343,0,0,0,84,40V60H64A12.01343,12.01343,0,0,0,52,72V224a4.00021,4.00021,0,0,0,6.3252,3.25488L111.99268,188.916l53.68261,38.33886A3.99976,3.99976,0,0,0,172,224V176.91748l25.67529,18.3374A3.99976,3.99976,0,0,0,204,192V40A12.01343,12.01343,0,0,0,192,28ZM164,216.22754l-49.68262-35.48242a3.99976,3.99976,0,0,0-4.6499,0L60,216.22656V72a4.00427,4.00427,0,0,1,4-4h96a4.00427,4.00427,0,0,1,4,4Zm32-32-24-17.14038V72a12.01343,12.01343,0,0,0-12-12H92V40a4.00427,4.00427,0,0,1,4-4h96a4.00427,4.00427,0,0,1,4,4Z"/>
</svg>
