<svg id="Flat" xmlns="http://www.w3.org/2000/svg" viewBox="0 0 256 256">
  <path d="M192,28H64A12.01343,12.01343,0,0,0,52,40V224a3.99947,3.99947,0,0,0,5.94287,3.49609l70.04981-38.91992,70.06494,38.9209A4.00033,4.00033,0,0,0,204,224V40A12.01343,12.01343,0,0,0,192,28ZM64,36H192a4.00427,4.00427,0,0,1,4,4V169.202l-66.06494-36.699a4.00159,4.00159,0,0,0-3.88526.001L60,169.202V40A4.00427,4.00427,0,0,1,64,36Zm65.93506,144.50293a3.99988,3.99988,0,0,0-3.88526.001L60,217.20117v-38.848l67.99268-37.777L196,178.35406v38.84809Z"/>
</svg>
