<svg id="Flat" xmlns="http://www.w3.org/2000/svg" viewBox="0 0 256 256">
  <path d="M55.00928,62.6709C46.3374,74.93066,36,96.2168,36,128s10.3374,53.06934,19.00928,65.3291c9.40918,13.30274,18.96191,19.18848,19.05713,19.2461a3.99987,3.99987,0,0,1-4.12452,6.85449C68.22949,218.40234,28,193.51172,28,128S68.22949,37.59766,69.94189,36.57031a3.99987,3.99987,0,0,1,4.12452,6.85449C73.97119,43.48242,64.41846,49.36816,55.00928,62.6709ZM186.05811,36.57031a3.99988,3.99988,0,0,0-4.12452,6.85449c.09522.05762,9.64795,5.94336,19.05713,19.2461C209.6626,74.93066,220,96.2168,220,128s-10.3374,53.06934-19.00928,65.3291c-9.40918,13.30274-18.96191,19.18848-19.04883,19.24121a3.99982,3.99982,0,1,0,4.11622,6.85938C187.77051,218.40234,228,193.51172,228,128S187.77051,37.59766,186.05811,36.57031Z"/>
</svg>
