<svg xmlns="http://www.w3.org/2000/svg" viewBox="0 0 256 256"><path d="M35.9,128C52,136.2,52,155.6,52,172c0,24.8,1.4,40,28,40a4,4,0,0,1,0,8c-36,0-36-26.6-36-48,0-24.8-1.4-40-28-40a4,4,0,0,1,0-8c26.6,0,28-15.2,28-40,0-21.4,0-48,36-48a4,4,0,0,1,0,8C53.4,44,52,59.2,52,84,52,100.4,52,119.8,35.9,128ZM240,124c-26.6,0-28-15.2-28-40,0-21.4,0-48-36-48a4,4,0,0,0,0,8c26.6,0,28,15.2,28,40,0,16.4,0,35.8,16.1,44C204,136.2,204,155.6,204,172c0,24.8-1.4,40-28,40a4,4,0,0,0,0,8c36,0,36-26.6,36-48,0-24.8,1.4-40,28-40a4,4,0,0,0,0-8Z"/></svg>