<svg id="Flat" xmlns="http://www.w3.org/2000/svg" viewBox="0 0 256 256">
  <path d="M35.89062,128C52.001,136.22559,52,155.64258,52,172c0,24.7998,1.35254,40,28,40a4,4,0,0,1,0,8c-36,0-36-26.61426-36-48,0-24.7998-1.35254-40-28-40a4,4,0,0,1,0-8c26.64746,0,28-15.2002,28-40,0-21.38574,0-48,36-48a4,4,0,0,1,0,8C53.35254,44,52,59.2002,52,84,52,100.35742,52.001,119.77441,35.89062,128ZM240,124c-26.64746,0-28-15.2002-28-40,0-21.38574,0-48-36-48a4,4,0,0,0,0,8c26.64746,0,28,15.2002,28,40,0,16.35742-.001,35.77441,16.10938,44C203.999,136.22559,204,155.64258,204,172c0,24.7998-1.35254,40-28,40a4,4,0,0,0,0,8c36,0,36-26.61426,36-48,0-24.7998,1.35254-40,28-40a4,4,0,0,0,0-8Z"/>
</svg>
