<svg xmlns="http://www.w3.org/2000/svg" viewBox="0 0 256 256"><path d="M244,132a52,52,0,0,0-32-48V72a44,44,0,0,0-84-18.3A44,44,0,0,0,44,72V84a52,52,0,0,0,0,96v4a44,44,0,0,0,84,18.3A44,44,0,0,0,212,184v-4A52.1,52.1,0,0,0,244,132ZM88,220a36,36,0,0,1-36-36v-1.4A53.2,53.2,0,0,0,64,184h8a4,4,0,0,0,0-8H64A44,44,0,0,1,49.3,90.5,4.1,4.1,0,0,0,52,86.7V72a36,36,0,0,1,72,0v86.7A44,44,0,0,0,88,140a4,4,0,0,0,0,8,36,36,0,0,1,0,72Zm104-44h-8a4,4,0,0,0,0,8h8a53.2,53.2,0,0,0,12-1.4V184a36,36,0,1,1-36-36,4,4,0,0,0,0-8,44,44,0,0,0-36,18.7V72a36,36,0,0,1,72,0V86.7a4.1,4.1,0,0,0,2.7,3.8A44,44,0,0,1,192,176ZM92,92a32.1,32.1,0,0,1-32,32,4,4,0,0,1,0-8A24.1,24.1,0,0,0,84,92V84a4,4,0,0,1,8,0Zm108,28a4,4,0,0,1-4,4,32.1,32.1,0,0,1-32-32V84a4,4,0,0,1,8,0v8a24.1,24.1,0,0,0,24,24A4,4,0,0,1,200,120Z"/></svg>