<svg id="Flat" xmlns="http://www.w3.org/2000/svg" viewBox="0 0 256 256">
  <path d="M220,88a91.64616,91.64616,0,0,0-14.88281-50.1875,3.99993,3.99993,0,0,0-3.35059-1.81543H54.2334A4.00011,4.00011,0,0,0,50.88281,37.812,92.01084,92.01084,0,0,0,124,179.90771V220H88a4,4,0,0,0,0,8h80a4,4,0,0,0,0-8H132V179.90771A92.10963,92.10963,0,0,0,220,88ZM56.43359,43.99707h143.1333A83.5844,83.5844,0,0,1,211.89453,84H44.10547A83.57808,83.57808,0,0,1,56.43359,43.99707ZM44.10156,92H211.89844A83.99343,83.99343,0,0,1,44.10156,92Z"/>
</svg>
