<svg id="Flat" xmlns="http://www.w3.org/2000/svg" viewBox="0 0 256 256">
  <path d="M216.00781,68H172V56a20.02229,20.02229,0,0,0-20-20H104A20.02229,20.02229,0,0,0,84,56V68H40.00781a12.01312,12.01312,0,0,0-12,12V208a12.01312,12.01312,0,0,0,12,12h176a12.01312,12.01312,0,0,0,12-12V80A12.01312,12.01312,0,0,0,216.00781,68ZM92,56a12.01343,12.01343,0,0,1,12-12h48a12.01343,12.01343,0,0,1,12,12V68H92ZM40.00781,76h176a4.00426,4.00426,0,0,1,4,4v43.958A187.94992,187.94992,0,0,1,128,148a187.95241,187.95241,0,0,1-91.99219-24.0332V80A4.00427,4.00427,0,0,1,40.00781,76Zm176,136h-176a4.00427,4.00427,0,0,1-4-4V133.104A196.06572,196.06572,0,0,0,128,156a196.06037,196.06037,0,0,0,92.00781-22.9043V208A4.00426,4.00426,0,0,1,216.00781,212ZM112,120a4.0002,4.0002,0,0,1,4-4h24a4,4,0,0,1,0,8H116A4.0002,4.0002,0,0,1,112,120Z"/>
</svg>
