<svg xmlns="http://www.w3.org/2000/svg" viewBox="0 0 256 256"><path d="M216,68H172V56a20.1,20.1,0,0,0-20-20H104A20.1,20.1,0,0,0,84,56V68H40A12,12,0,0,0,28,80V208a12,12,0,0,0,12,12H216a12,12,0,0,0,12-12V80A12,12,0,0,0,216,68ZM92,56a12,12,0,0,1,12-12h48a12,12,0,0,1,12,12V68H92ZM40,76H216a4,4,0,0,1,4,4v44a188.2,188.2,0,0,1-92,24,188.2,188.2,0,0,1-92-24V80A4,4,0,0,1,40,76ZM216,212H40a4,4,0,0,1-4-4V133.1A195.9,195.9,0,0,0,128,156a195.9,195.9,0,0,0,92-22.9V208A4,4,0,0,1,216,212ZM112,120a4,4,0,0,1,4-4h24a4,4,0,0,1,0,8H116A4,4,0,0,1,112,120Z"/></svg>