<svg xmlns="http://www.w3.org/2000/svg" viewBox="0 0 256 256"><path d="M128,92a36,36,0,1,0,36,36A36,36,0,0,0,128,92Zm0,64a28,28,0,1,1,28-28A28.1,28.1,0,0,1,128,156ZM65.3,101.5a68.9,68.9,0,0,0,0,53,70.4,70.4,0,0,0,14.6,21.6,3.9,3.9,0,0,1,0,5.6,3.9,3.9,0,0,1-2.8,1.2,3.8,3.8,0,0,1-2.8-1.2A75.9,75.9,0,0,1,58,98.4,74.4,74.4,0,0,1,74.3,74.3a4,4,0,0,1,5.6,5.6A70.4,70.4,0,0,0,65.3,101.5ZM204,128a75.6,75.6,0,0,1-22.3,53.7,3.8,3.8,0,0,1-2.8,1.2,3.9,3.9,0,0,1-2.8-1.2,3.9,3.9,0,0,1,0-5.6,70.4,70.4,0,0,0,14.6-21.6,68.9,68.9,0,0,0,0-53,70.4,70.4,0,0,0-14.6-21.6,4,4,0,1,1,5.6-5.6A75.6,75.6,0,0,1,204,128ZM51.6,204.4a3.9,3.9,0,0,1,0,5.6,3.8,3.8,0,0,1-2.8,1.2A3.9,3.9,0,0,1,46,210,115.6,115.6,0,0,1,46,46a4,4,0,0,1,5.6,5.6,108.2,108.2,0,0,0,0,152.8ZM244,128a115,115,0,0,1-34,82,3.9,3.9,0,0,1-2.8,1.2,3.8,3.8,0,0,1-2.8-1.2,3.9,3.9,0,0,1,0-5.6,108.2,108.2,0,0,0,0-152.8A4,4,0,1,1,210,46a115,115,0,0,1,34,82Z"/></svg>