<svg id="Flat" xmlns="http://www.w3.org/2000/svg" viewBox="0 0 256 256">
  <path d="M128,92a36,36,0,1,0,36,36A36.04061,36.04061,0,0,0,128,92Zm0,64a28,28,0,1,1,28-28A28.03146,28.03146,0,0,1,128,156ZM65.3418,101.53271A67.94065,67.94065,0,0,0,79.916,176.0835a3.99974,3.99974,0,1,1-5.65625,5.65673,75.94065,75.94065,0,0,1,0-107.48046A3.99974,3.99974,0,1,1,79.916,79.9165,67.8,67.8,0,0,0,65.3418,101.53271ZM204,128a75.7808,75.7808,0,0,1-22.25977,53.74023,3.99974,3.99974,0,0,1-5.65625-5.65673,67.94065,67.94065,0,0,0,0-96.167,3.99974,3.99974,0,1,1,5.65625-5.65673A75.7808,75.7808,0,0,1,204,128ZM51.63184,204.36768a3.99974,3.99974,0,1,1-5.65625,5.65673,115.90639,115.90639,0,0,1,0-164.04882,3.99974,3.99974,0,0,1,5.65625,5.65673,107.90641,107.90641,0,0,0,0,152.73536ZM244,128a115.65632,115.65632,0,0,1-33.97559,82.02441,3.99974,3.99974,0,0,1-5.65625-5.65673,107.90641,107.90641,0,0,0,0-152.73536,3.99974,3.99974,0,0,1,5.65625-5.65673A115.65862,115.65862,0,0,1,244,128Z"/>
</svg>
