<svg id="Flat" xmlns="http://www.w3.org/2000/svg" viewBox="0 0 256 256">
  <path d="M148,92a8,8,0,1,1,8,8A7.99993,7.99993,0,0,1,148,92Zm-48-8a8,8,0,1,0,8,8A7.99993,7.99993,0,0,0,100,84Zm148,44a4.0002,4.0002,0,0,1-4,4H212v12a83.67189,83.67189,0,0,1-3.99365,25.57324l25.9165,14.96289a3.9998,3.9998,0,1,1-4,6.92774L205.16077,177.168a83.97933,83.97933,0,0,1-154.32154,0l-24.76208,14.2959a3.9998,3.9998,0,1,1-4-6.92774l25.9165-14.96289A83.67189,83.67189,0,0,1,44,144V132H12a4,4,0,0,1,0-8H44V112a83.66824,83.66824,0,0,1,3.99365-25.57324L22.07715,71.46387a3.9998,3.9998,0,1,1,4-6.92774l24.762,14.2959a83.97951,83.97951,0,0,1,154.32178,0l24.762-14.2959a3.9998,3.9998,0,1,1,4,6.92774l-25.9165,14.96289A83.66824,83.66824,0,0,1,212,112v12h32A4.0002,4.0002,0,0,1,248,128ZM52,124H204V112a76,76,0,0,0-152,0Zm152,8H132v84a4,4,0,0,1-8,0V132H52v12a76,76,0,0,0,152,0Z"/>
</svg>
