<svg id="Flat" xmlns="http://www.w3.org/2000/svg" viewBox="0 0 256 256">
  <path d="M204,140h20a4,4,0,0,0,0-8H204V108h20a4,4,0,0,0,0-8H203.89368a75.76017,75.76017,0,0,0-21.89661-49.41895L202.68652,30.898a3.99978,3.99978,0,1,0-5.51367-5.7959l-21.106,20.0791a75.83216,75.83216,0,0,0-96.21008.06006L58.68652,25.10156a4.00014,4.00014,0,0,0-5.51367,5.79688L73.93652,50.65088A75.75691,75.75691,0,0,0,52.10632,100H32a4,4,0,0,0,0,8H52v24H32a4,4,0,0,0,0,8H52v12a76.20761,76.20761,0,0,0,.9563,12H32a4,4,0,0,0,0,8H54.6897a75.98572,75.98572,0,0,0,146.6206,0H224a4,4,0,0,0,0-8H203.0437A76.20761,76.20761,0,0,0,204,152ZM128,36a68.08,68.08,0,0,1,67.8728,64H60.1272A68.08,68.08,0,0,1,128,36Zm4,183.87256V136a4,4,0,0,0-8,0v83.87256A68.07961,68.07961,0,0,1,60,152V108H196v44A68.07961,68.07961,0,0,1,132,219.87256Z"/>
</svg>
