<svg id="Flat" xmlns="http://www.w3.org/2000/svg" viewBox="0 0 256 256">
  <path d="M148,84a8,8,0,1,1,8,8A7.99977,7.99977,0,0,1,148,84Zm-48,8a8,8,0,1,0-8-8A7.99977,7.99977,0,0,0,100,92Zm111.92969,16v40a84,84,0,0,1-168,0V108A83.7563,83.7563,0,0,1,70.35742,46.91748L53.20215,30.92578a4,4,0,1,1,5.45508-5.85156l17.813,16.60449a83.73389,83.73389,0,0,1,102.919,0l17.813-16.60449a4,4,0,0,1,5.45508,5.85156L185.502,46.91748A83.75631,83.75631,0,0,1,211.92969,108Zm-160,0v16h152V108a76,76,0,0,0-152,0Zm152,40V132h-152v16a76,76,0,0,0,152,0Z"/>
</svg>
