<svg xmlns="http://www.w3.org/2000/svg" viewBox="0 0 256 256"><path d="M148,92a8,8,0,1,1,8,8A8,8,0,0,1,148,92Zm-48-8a8,8,0,1,0,8,8A8,8,0,0,0,100,84Zm148,44a4,4,0,0,1-4,4H212v12a83.6,83.6,0,0,1-4,25.6l25.9,14.9a4,4,0,0,1-2,7.5,4.9,4.9,0,0,1-2-.5l-24.7-14.3a84.1,84.1,0,0,1-154.4,0L26.1,191.5a4.9,4.9,0,0,1-2,.5,4,4,0,0,1-2-7.5L48,169.6A83.6,83.6,0,0,1,44,144V132H12a4,4,0,0,1,0-8H44V112a83.6,83.6,0,0,1,4-25.6L22.1,71.5a4,4,0,0,1,4-7L50.8,78.8a84.1,84.1,0,0,1,154.4,0l24.7-14.3a4,4,0,1,1,4,7L208,86.4a83.6,83.6,0,0,1,4,25.6v12h32A4,4,0,0,1,248,128ZM52,124H204V112a76,76,0,0,0-152,0Zm72,95.9V132H52v12A76.1,76.1,0,0,0,124,219.9ZM204,132H132v87.9A76.1,76.1,0,0,0,204,144Z"/></svg>