<svg xmlns="http://www.w3.org/2000/svg" viewBox="0 0 256 256"><path d="M240,212H228V104a12,12,0,0,0-12-12H148V40a12,12,0,0,0-12-12H40A12,12,0,0,0,28,40V212H16a4,4,0,0,0,0,8H240a4,4,0,0,0,0-8ZM216,100a4,4,0,0,1,4,4V212H148V100ZM36,40a4,4,0,0,1,4-4h96a4,4,0,0,1,4,4V212H36ZM60,72a4,4,0,0,1,4-4H96a4,4,0,0,1,0,8H64A4,4,0,0,1,60,72Zm56,64a4,4,0,0,1-4,4H80a4,4,0,0,1,0-8h32A4,4,0,0,1,116,136Zm-16,40a4,4,0,0,1-4,4H64a4,4,0,0,1,0-8H96A4,4,0,0,1,100,176Zm96,0a4,4,0,0,1-4,4H176a4,4,0,0,1,0-8h16A4,4,0,0,1,196,176Zm-24-40a4,4,0,0,1,4-4h16a4,4,0,0,1,0,8H176A4,4,0,0,1,172,136Z"/></svg>