<svg id="Flat" xmlns="http://www.w3.org/2000/svg" viewBox="0 0 256 256">
  <path d="M227.99414,103.98316v120a4,4,0,0,1-8,0v-120a4.00426,4.00426,0,0,0-4-4h-68v124a4,4,0,0,1-8,0v-184a4.00426,4.00426,0,0,0-4-4h-96a4.00427,4.00427,0,0,0-4,4v184a4,4,0,0,1-8,0v-184a12.01343,12.01343,0,0,1,12-12h96a12.01343,12.01343,0,0,1,12,12v52h68A12.01343,12.01343,0,0,1,227.99414,103.98316Zm-164-28h32a4,4,0,1,0,0-8h-32a4,4,0,0,0,0,8Zm48,72h-32a4,4,0,0,0,0,8h32a4,4,0,1,0,0-8Zm-16,40h-32a4,4,0,0,0,0,8h32a4,4,0,1,0,0-8Zm96-16h-16a4,4,0,0,0,0,8h16a4,4,0,1,0,0-8Zm0-40h-16a4,4,0,0,0,0,8h16a4,4,0,1,0,0-8Z"/>
</svg>
