<svg id="Flat" xmlns="http://www.w3.org/2000/svg" viewBox="0 0 256 256">
  <path d="M190,36H66A28.03146,28.03146,0,0,0,38,64V216a12.01312,12.01312,0,0,0,12,12H74a12.01312,12.01312,0,0,0,12-12V196h84v20a12.01312,12.01312,0,0,0,12,12h24a12.01312,12.01312,0,0,0,12-12V64A28.03146,28.03146,0,0,0,190,36ZM46,188V124H210v64ZM46,76H210v40H46ZM66,44H190a20.02229,20.02229,0,0,1,20,20v4H46V64A20.02229,20.02229,0,0,1,66,44ZM78,216a4.004,4.004,0,0,1-4,4H50a4.004,4.004,0,0,1-4-4V196H78Zm128,4H182a4.004,4.004,0,0,1-4-4V196h32v20A4.004,4.004,0,0,1,206,220ZM92,156a8,8,0,1,1-8-8A8.00917,8.00917,0,0,1,92,156Zm88,0a8,8,0,1,1-8-8A8.00917,8.00917,0,0,1,180,156Z"/>
</svg>
