<svg xmlns="http://www.w3.org/2000/svg" viewBox="0 0 256 256"><path d="M228.3,52.8C223.7,47,216.9,44,208,44c-25.5,0-60.5,28.7-76,57.3V56a4,4,0,0,0-8,0v45.3C108.5,72.7,73.5,44,48,44c-8.9,0-15.7,3-20.3,8.8-11.1,14.3-6,42.5.4,68.2,3.6,14.4,10.4,24.7,20.3,30.5a35.7,35.7,0,0,0,11.7,4.3A40,40,0,1,0,128,197.4a40,40,0,1,0,67.9-41.6,35.7,35.7,0,0,0,11.7-4.3c9.9-5.8,16.7-16.1,20.3-30.5C234.3,95.3,239.4,67.1,228.3,52.8ZM92,212a32.1,32.1,0,0,1-20.8-56.4l.3-.2a31.8,31.8,0,0,1,16.9-7.2,4,4,0,0,0,3.6-4.4,4.1,4.1,0,0,0-4.4-3.6,40.8,40.8,0,0,0-20.2,8.2c-21.7.5-29.2-20.3-31.5-29.4C30.3,96.6,25,69.3,34.1,57.7c3-3.8,7.5-5.7,13.9-5.7,29.1,0,76,46.9,76,76v52A32.1,32.1,0,0,1,92,212Zm128.1-93c-2.3,9.1-9.8,29.9-31.5,29.4a40.8,40.8,0,0,0-20.2-8.2,4.1,4.1,0,0,0-4.4,3.6,4,4,0,0,0,3.6,4.4,31.8,31.8,0,0,1,16.9,7.2l.3.2A32,32,0,1,1,132,180V128c0-29.1,46.9-76,76-76,6.4,0,10.9,1.9,13.9,5.7C231,69.3,225.7,96.6,220.1,119Z"/></svg>