<svg xmlns="http://www.w3.org/2000/svg" viewBox="0 0 256 256"><path d="M216,212H164V176h8a64.1,64.1,0,0,0,64-64,24,24,0,0,0-48,0,16,16,0,0,1-16,16h-8V56a36,36,0,0,0-72,0V88H84A16,16,0,0,1,68,72a24,24,0,0,0-48,0,64.1,64.1,0,0,0,64,64h8v76H40a4,4,0,0,0,0,8H216a4,4,0,0,0,0-8ZM96,128H84A56,56,0,0,1,28,72a16,16,0,0,1,32,0A24.1,24.1,0,0,0,84,96H96a4,4,0,0,0,4-4V56a28,28,0,0,1,56,0v76a4,4,0,0,0,4,4h12a24.1,24.1,0,0,0,24-24,16,16,0,0,1,32,0,56,56,0,0,1-56,56H160a4,4,0,0,0-4,4v40H100V132A4,4,0,0,0,96,128Z"/></svg>