<svg xmlns="http://www.w3.org/2000/svg" viewBox="0 0 256 256"><path d="M206,84H132V66.8c11.7-4.6,18.5-11.4,20.1-20.1C155.9,27.1,131.7,5.9,130.6,5a4.1,4.1,0,0,0-5.2-.1c-1,.9-26,22-22.4,41.6,1.7,8.8,8.8,15.7,21,20.3V84H50a28.1,28.1,0,0,0-28,28v13.3a39.3,39.3,0,0,0,11.7,27.8,22.9,22.9,0,0,0,2.3,2.1V208a12,12,0,0,0,12,12H208a12,12,0,0,0,12-12V155.2a22.9,22.9,0,0,0,2.3-2.1A39.3,39.3,0,0,0,234,125.3V112A28.1,28.1,0,0,0,206,84ZM110.9,45c-2.1-10.9,9.9-24.8,17.1-31.6,6.9,6.8,18.4,20.8,16.3,31.7-1.2,6.2-6.7,11.1-16.3,14.7C117.8,56.1,112.1,51.2,110.9,45ZM212,208a4,4,0,0,1-4,4H48a4,4,0,0,1-4-4V160.4a37.8,37.8,0,0,0,50-17.5,37.9,37.9,0,0,0,68,0A38.5,38.5,0,0,0,195.3,164h.7a38.2,38.2,0,0,0,16-3.6Zm14-82.7a31.1,31.1,0,0,1-9.3,22.1,29.5,29.5,0,0,1-21.3,8.6A30.2,30.2,0,0,1,166,126a4,4,0,0,0-8,0,30,30,0,0,1-60,0,4,4,0,0,0-8,0,30.2,30.2,0,0,1-29.4,30,29.5,29.5,0,0,1-21.3-8.6A31.1,31.1,0,0,1,30,125.3V112A20.1,20.1,0,0,1,50,92H206a20.1,20.1,0,0,1,20,20Z"/></svg>