<svg id="Flat" xmlns="http://www.w3.org/2000/svg" viewBox="0 0 256 256">
  <path d="M176,60H80a4.0002,4.0002,0,0,0-4,4v48a4.0002,4.0002,0,0,0,4,4h96a4.0002,4.0002,0,0,0,4-4V64A4.0002,4.0002,0,0,0,176,60Zm-4,48H84V68h88Zm28-79.99219H56a12.01375,12.01375,0,0,0-12,12v176a12.01375,12.01375,0,0,0,12,12H200a12.01375,12.01375,0,0,0,12-12v-176A12.01375,12.01375,0,0,0,200,28.00781Zm4,188a4.00458,4.00458,0,0,1-4,4H56a4.00458,4.00458,0,0,1-4-4v-176a4.00458,4.00458,0,0,1,4-4H200a4.00458,4.00458,0,0,1,4,4ZM136,148a8,8,0,1,1-8-8A8.00917,8.00917,0,0,1,136,148Zm0,40a8,8,0,1,1-8-8A8.00917,8.00917,0,0,1,136,188ZM96,148a8,8,0,1,1-8-8A8.00917,8.00917,0,0,1,96,148Zm0,40a8,8,0,1,1-8-8A8.00917,8.00917,0,0,1,96,188Zm80-40a8,8,0,1,1-8-8A8.00917,8.00917,0,0,1,176,148Zm0,40a8,8,0,1,1-8-8A8.00917,8.00917,0,0,1,176,188Z"/>
</svg>
