<svg xmlns="http://www.w3.org/2000/svg" viewBox="0 0 256 256"><path d="M208,36H180V24a4,4,0,0,0-8,0V36H84V24a4,4,0,0,0-8,0V36H48A12,12,0,0,0,36,48V208a12,12,0,0,0,12,12H208a12,12,0,0,0,12-12V48A12,12,0,0,0,208,36ZM48,44H76V56a4,4,0,0,0,8,0V44h88V56a4,4,0,0,0,8,0V44h28a4,4,0,0,1,4,4V84H44V48A4,4,0,0,1,48,44ZM208,212H48a4,4,0,0,1-4-4V92H212V208A4,4,0,0,1,208,212Zm-84-48a20.1,20.1,0,0,1-20,20,19.7,19.7,0,0,1-14.1-5.9,4,4,0,0,1,5.6-5.6A11.9,11.9,0,0,0,104,176a12,12,0,0,0,0-24,4.1,4.1,0,0,1-3.6-2.3,3.8,3.8,0,0,1,.5-4.2L111.7,132H92a4,4,0,0,1,0-8h28a4.1,4.1,0,0,1,3.6,2.3,3.8,3.8,0,0,1-.5,4.2l-11.9,14.9A19.9,19.9,0,0,1,124,164Zm40-36v52a4,4,0,0,1-8,0V136l-9.6,7.2a4,4,0,1,1-4.8-6.4l16-12a4,4,0,0,1,4.2-.4A4.2,4.2,0,0,1,164,128Z"/></svg>