<svg xmlns="http://www.w3.org/2000/svg" viewBox="0 0 256 256"><path d="M208,36H180V24a4,4,0,0,0-8,0V36H84V24a4,4,0,0,0-8,0V36H48A12,12,0,0,0,36,48V208a12,12,0,0,0,12,12H208a12,12,0,0,0,12-12V48A12,12,0,0,0,208,36ZM48,44H76V56a4,4,0,0,0,8,0V44h88V56a4,4,0,0,0,8,0V44h28a4,4,0,0,1,4,4V84H44V48A4,4,0,0,1,48,44ZM208,212H48a4,4,0,0,1-4-4V92H212V208A4,4,0,0,1,208,212Zm-53.2-81.2L133.7,152l21.1,21.2a3.9,3.9,0,0,1,0,5.6,3.9,3.9,0,0,1-5.6,0L128,157.7l-21.2,21.1a3.9,3.9,0,0,1-5.6,0,3.9,3.9,0,0,1,0-5.6L122.3,152l-21.1-21.2a4,4,0,1,1,5.6-5.6L128,146.3l21.2-21.1a4,4,0,1,1,5.6,5.6Z"/></svg>