<svg xmlns="http://www.w3.org/2000/svg" viewBox="0 0 256 256"><path d="M208,36H180V24a4,4,0,0,0-8,0V36H84V24a4,4,0,0,0-8,0V36H48A12,12,0,0,0,36,48V208a12,12,0,0,0,12,12H208a12,12,0,0,0,12-12V48A12,12,0,0,0,208,36ZM48,44H76V56a4,4,0,0,0,8,0V44h88V56a4,4,0,0,0,8,0V44h28a4,4,0,0,1,4,4V84H44V48A4,4,0,0,1,48,44ZM208,212H48a4,4,0,0,1-4-4V92H212V208A4,4,0,0,1,208,212Zm-41.1-86.7a4,4,0,0,1-.2,5.6l-46.6,44a4.3,4.3,0,0,1-2.8,1.1,3.9,3.9,0,0,1-2.7-1.1l-25.4-24a4.1,4.1,0,0,1-.1-5.7,4,4,0,0,1,5.6-.1l22.6,21.4,44-41.4A3.9,3.9,0,0,1,166.9,125.3Z"/></svg>