<svg id="Flat" xmlns="http://www.w3.org/2000/svg" viewBox="0 0 256 256">
  <path d="M208,36H180V24a4,4,0,0,0-8,0V36H84V24a4,4,0,0,0-8,0V36H48A12.01343,12.01343,0,0,0,36,48V208a12.01343,12.01343,0,0,0,12,12H208a12.01343,12.01343,0,0,0,12-12V48A12.01343,12.01343,0,0,0,208,36ZM48,44H76V56a4,4,0,0,0,8,0V44h88V56a4,4,0,0,0,8,0V44h28a4.00427,4.00427,0,0,1,4,4V84H44V48A4.00427,4.00427,0,0,1,48,44ZM208,212H48a4.00427,4.00427,0,0,1-4-4V92H212V208A4.00427,4.00427,0,0,1,208,212Zm-53.17139-81.17187L133.65674,152l21.17187,21.17188a3.99992,3.99992,0,1,1-5.65722,5.65625L128,157.65662l-21.17139,21.17151a3.99992,3.99992,0,0,1-5.65722-5.65625L122.34326,152l-21.17187-21.17187a3.99992,3.99992,0,1,1,5.65722-5.65625L128,146.34338l21.17139-21.1715a3.99992,3.99992,0,1,1,5.65722,5.65625Z"/>
</svg>
