<svg id="Flat" xmlns="http://www.w3.org/2000/svg" viewBox="0 0 256 256">
  <path d="M36.41455,21.30957a4,4,0,1,0-5.91992,5.38086L60.77588,60H47.99951a20.02229,20.02229,0,0,0-20,20V192a20.02229,20.02229,0,0,0,20,20h150.958l20.62793,22.69043a4,4,0,1,0,5.91992-5.38086Zm112.12256,135.228A31.65633,31.65633,0,0,1,127.99951,164,32.00347,32.00347,0,0,1,105.521,109.21973ZM47.99951,204a12.01343,12.01343,0,0,1-12-12V80a12.01343,12.01343,0,0,1,12-12H68.04834l32.09229,35.30127a39.99984,39.99984,0,0,0,53.78466,59.16309L191.68506,204Zm180-124V186.02881a4,4,0,1,1-8,0V80a12.01343,12.01343,0,0,0-12-12H175.99365a3.99971,3.99971,0,0,1-3.32812-1.78125L157.853,44H98.13525l-.82031,1.23145a4,4,0,0,1-6.65723-4.43653l2.00684-3.01318A4.0019,4.0019,0,0,1,95.99365,36h64a3.99974,3.99974,0,0,1,3.32813,1.78125L178.13428,60h29.86523A20.02229,20.02229,0,0,1,227.99951,80Z"/>
</svg>
