<svg id="Flat" xmlns="http://www.w3.org/2000/svg" viewBox="0 0 256 256">
  <path d="M208,60H178.13477l-14.8125-22.21875A3.99853,3.99853,0,0,0,159.99414,36h-64A3.9985,3.9985,0,0,0,92.666,37.78125L77.85352,60H48A20.02229,20.02229,0,0,0,28,80V192a20.02229,20.02229,0,0,0,20,20H208a20.02229,20.02229,0,0,0,20-20V80A20.02229,20.02229,0,0,0,208,60Zm12,132a12.01312,12.01312,0,0,1-12,12H48a12.01312,12.01312,0,0,1-12-12V80A12.01312,12.01312,0,0,1,48,68H79.99414a3.99853,3.99853,0,0,0,3.32813-1.78125L98.13477,44h59.71875L172.666,66.21875A3.9985,3.9985,0,0,0,175.99414,68H208a12.01312,12.01312,0,0,1,12,12ZM128,92a40,40,0,1,0,40,40A40.04584,40.04584,0,0,0,128,92Zm0,72a32,32,0,1,1,32-32A32.03667,32.03667,0,0,1,128,164Z"/>
</svg>
