<svg xmlns="http://www.w3.org/2000/svg" viewBox="0 0 256 256"><path d="M219.8,225.2A4,4,0,0,1,216,228l-1.2-.2L128,200.2,41.2,227.8,40,228a4,4,0,0,1-1.2-7.8l76-24.2-76-24.2a4,4,0,1,1,2.4-7.6L128,191.8l86.8-27.6a4,4,0,1,1,2.4,7.6l-76,24.2,76,24.2A4,4,0,0,1,219.8,225.2ZM72,108c0-19,9.4-38.9,27.1-57.3a150.8,150.8,0,0,1,26.8-22.1,4,4,0,0,1,4.2,0,150.8,150.8,0,0,1,26.8,22.1C174.6,69.1,184,89,184,108a56.1,56.1,0,0,1-54.6,56h-2.8A56.1,56.1,0,0,1,72,108Zm56,48a20.1,20.1,0,0,0,20-20c0-17.4-14.4-30.5-20-35-5.6,4.5-20,17.6-20,35A20.1,20.1,0,0,0,128,156ZM80,108a47.9,47.9,0,0,0,23.3,41.1A27.7,27.7,0,0,1,100,136c0-25.8,24.7-42.6,25.8-43.3a3.9,3.9,0,0,1,4.4,0c1.1.7,25.8,17.5,25.8,43.3a27.7,27.7,0,0,1-3.3,13.1A47.9,47.9,0,0,0,176,108c0-36.4-38.5-64.8-48-71.2C118.5,43.2,80,71.7,80,108Z"/></svg>