<svg xmlns="http://www.w3.org/2000/svg" viewBox="0 0 256 256"><path d="M240,116H226.6L197.8,51.1a12.2,12.2,0,0,0-11-7.1H69.2a12.2,12.2,0,0,0-11,7.1L29.4,116H16a4,4,0,0,0,0,8H28v84a12,12,0,0,0,12,12H64a12,12,0,0,0,12-12V188H180v20a12,12,0,0,0,12,12h24a12,12,0,0,0,12-12V124h12a4,4,0,0,0,0-8ZM65.5,54.4A4,4,0,0,1,69.2,52H186.8a4,4,0,0,1,3.7,2.4L217.8,116H38.2ZM68,208a4,4,0,0,1-4,4H40a4,4,0,0,1-4-4V188H68Zm148,4H192a4,4,0,0,1-4-4V188h32v20A4,4,0,0,1,216,212Zm4-32H36V124H220ZM60,152a4,4,0,0,1,4-4H80a4,4,0,0,1,0,8H64A4,4,0,0,1,60,152Zm112,0a4,4,0,0,1,4-4h16a4,4,0,0,1,0,8H176A4,4,0,0,1,172,152Z"/></svg>