<svg id="Flat" xmlns="http://www.w3.org/2000/svg" viewBox="0 0 256 256">
  <path d="M240,116H226.59973L197.7666,51.126A12.011,12.011,0,0,0,186.80078,44H69.19922A12.011,12.011,0,0,0,58.2334,51.126L29.40027,116H16a4,4,0,0,0,0,8H28v84a12.01312,12.01312,0,0,0,12,12H64a12.01312,12.01312,0,0,0,12-12V188H180v20a12.01312,12.01312,0,0,0,12,12h24a12.01312,12.01312,0,0,0,12-12V124h12a4,4,0,0,0,0-8ZM65.544,54.376A4.00373,4.00373,0,0,1,69.19922,52H186.80078a4.00373,4.00373,0,0,1,3.65527,2.376L217.845,116H38.155ZM220,208a4.004,4.004,0,0,1-4,4H192a4.004,4.004,0,0,1-4-4V184a4.0002,4.0002,0,0,0-4-4H72a4.0002,4.0002,0,0,0-4,4v24a4.004,4.004,0,0,1-4,4H40a4.004,4.004,0,0,1-4-4V124H220Z"/>
</svg>
