<svg id="Flat" xmlns="http://www.w3.org/2000/svg" viewBox="0 0 256 256">
  <path d="M208,52H48A20.02229,20.02229,0,0,0,28,72V184a20.02229,20.02229,0,0,0,20,20H208a20.02229,20.02229,0,0,0,20-20V72A20.02229,20.02229,0,0,0,208,52ZM36,92H220v24H167.19043a12.02744,12.02744,0,0,0-11.75,9.60352,28.00841,28.00841,0,0,1-54.88086,0A12.02744,12.02744,0,0,0,88.80957,116H36ZM48,60H208a12.01312,12.01312,0,0,1,12,12V84H36V72A12.01312,12.01312,0,0,1,48,60ZM208,196H48a12.01312,12.01312,0,0,1-12-12V124H88.80957a4.00252,4.00252,0,0,1,3.91016,3.19531,36.00816,36.00816,0,0,0,70.56054,0A4.00252,4.00252,0,0,1,167.19043,124H220v60A12.01312,12.01312,0,0,1,208,196Z"/>
</svg>
