<svg id="Flat" xmlns="http://www.w3.org/2000/svg" viewBox="0 0 256 256">
  <path d="M198.71094,57.28906A100.00037,100.00037,0,0,0,57.28906,198.71094,100.00037,100.00037,0,0,0,198.71094,57.28906Zm-5.65723,135.76465A91.99945,91.99945,0,1,1,220,128,91.39744,91.39744,0,0,1,193.05371,193.05371Zm-70.2251-67.88232a4.0006,4.0006,0,0,1,0,5.65722l-32,32a4.00026,4.00026,0,0,1-5.65722-5.65722L114.34326,128,85.17139,98.82861a4.00026,4.00026,0,0,1,5.65722-5.65722Zm56,0a4.0006,4.0006,0,0,1,0,5.65722l-32,32a4.00026,4.00026,0,0,1-5.65722-5.65722L170.34326,128,141.17139,98.82861a4.00026,4.00026,0,0,1,5.65722-5.65722Z"/>
</svg>
