<svg id="Flat" xmlns="http://www.w3.org/2000/svg" viewBox="0 0 256 256">
  <path d="M198.71094,57.28906A100.00037,100.00037,0,0,0,57.28906,198.71094,100.00037,100.00037,0,0,0,198.71094,57.28906Zm-5.65723,135.76465A91.99945,91.99945,0,1,1,220,128,91.39744,91.39744,0,0,1,193.05371,193.05371ZM162.82861,85.17139a4.0006,4.0006,0,0,1,0,5.65722l-32,32a4.00088,4.00088,0,0,1-5.65722,0l-32-32a4.00026,4.00026,0,0,1,5.65722-5.65722L128,114.34326l29.17139-29.17187A4.00147,4.00147,0,0,1,162.82861,85.17139Zm0,56a4.0006,4.0006,0,0,1,0,5.65722l-32,32a4.00088,4.00088,0,0,1-5.65722,0l-32-32a4.00026,4.00026,0,0,1,5.65722-5.65722L128,170.34326l29.17139-29.17187A4.00147,4.00147,0,0,1,162.82861,141.17139Z"/>
</svg>
