<svg id="Flat" xmlns="http://www.w3.org/2000/svg" viewBox="0 0 256 256">
  <path d="M92,140a8,8,0,1,1-8-8A8.00009,8.00009,0,0,1,92,140Zm80-8a8,8,0,1,0,8,8A8.00009,8.00009,0,0,0,172,132Zm56-80.68652V136c0,50.729-44.85938,92-100,92S28,186.729,28,136V51.31348a12,12,0,0,1,20.48535-8.48536l19.544,19.54346A103.01334,103.01334,0,0,1,94.24683,49.42969a3.94392,3.94392,0,0,1,1.07861-.35279,107.68438,107.68438,0,0,1,65.34924,0,3.94231,3.94231,0,0,1,1.07837.35279,103.01635,103.01635,0,0,1,26.21863,12.94189l19.543-19.54346A12,12,0,0,1,228,51.31348Zm-8,0a4.00021,4.00021,0,0,0-6.8291-2.82813L191.22949,70.42676a3.99955,3.99955,0,0,1-5.21387.38232A93.7364,93.7364,0,0,0,164,58.72778V88a4,4,0,0,1-8,0V56.01074a100.0383,100.0383,0,0,0-24-3.92969V88a4,4,0,0,1-8,0V52.08105a100.04123,100.04123,0,0,0-24,3.92969V88a4,4,0,0,1-8,0V58.72778a93.74306,93.74306,0,0,0-22.0166,12.0813,3.99944,3.99944,0,0,1-5.21387-.38281L42.8291,48.48486a3.80532,3.80532,0,0,0-2.75683-1.1831,4.31679,4.31679,0,0,0-1.60352.3164A3.92389,3.92389,0,0,0,36,51.31348V136c0,45.09375,39.12036,81.99658,88,83.91577v-26.259l-14.82812-14.82813a3.99991,3.99991,0,0,1,5.65624-5.65722L128,186.34326l13.17188-13.17187a3.99991,3.99991,0,0,1,5.65624,5.65722L132,193.65674v26.259c48.87964-1.91919,88-38.822,88-83.91577Z"/>
</svg>
