<svg xmlns="http://www.w3.org/2000/svg" viewBox="0 0 256 256"><path d="M92,140a8,8,0,1,1-8-8A8,8,0,0,1,92,140Zm80-8a8,8,0,1,0,8,8A8,8,0,0,0,172,132Zm56-80.7V136c0,50.7-44.9,92-100,92S28,186.7,28,136V51.3a12,12,0,0,1,20.5-8.5L68,62.4a105,105,0,0,1,26.2-13,4.5,4.5,0,0,1,1.1-.3,107.4,107.4,0,0,1,65.4,0,4.5,4.5,0,0,1,1.1.3,105,105,0,0,1,26.2,13l19.5-19.6A12,12,0,0,1,228,51.3Zm-8,0a4,4,0,0,0-2.5-3.7,3.9,3.9,0,0,0-4.3.9l-22,21.9a4,4,0,0,1-5.2.4,94.1,94.1,0,0,0-22-12.1V88a4,4,0,0,1-8,0V56a101.1,101.1,0,0,0-24-3.9V88a4,4,0,0,1-8,0V52.1A101.1,101.1,0,0,0,100,56V88a4,4,0,0,1-8,0V58.7A94.1,94.1,0,0,0,70,70.8a4,4,0,0,1-5.2-.4l-22-21.9a3.8,3.8,0,0,0-2.7-1.2,4,4,0,0,0-4.1,4V136c0,45.1,39.1,82,88,83.9V193.7l-14.8-14.9a4,4,0,0,1,5.6-5.6L128,186.3l13.2-13.1a4,4,0,0,1,5.6,5.6L132,193.7v26.2c48.9-1.9,88-38.8,88-83.9Z"/></svg>