<svg id="Flat" xmlns="http://www.w3.org/2000/svg" viewBox="0 0 256 256">
  <path d="M226.82861,149.17188a3.99991,3.99991,0,1,1-5.65722,5.65624L200,133.65674l-21.17139,21.17138a3.99991,3.99991,0,0,1-5.65722-5.65624L194.34326,128l-21.17187-21.17188a3.99991,3.99991,0,0,1,5.65722-5.65624L200,122.34326l21.17139-21.17138a3.99991,3.99991,0,0,1,5.65722,5.65624L205.65674,128ZM200,169.25488a4.0002,4.0002,0,0,0-4,4V208a4.00427,4.00427,0,0,1-4,4H27.31348a4.00021,4.00021,0,0,1-2.82813-6.8291L189.17187,40.48535A3.99977,3.99977,0,0,1,196,43.31348V82.74512a4,4,0,0,0,8,0V43.31348a11.99985,11.99985,0,0,0-20.48535-8.48438L18.82812,199.51465A12,12,0,0,0,27.31348,220H192a12.01343,12.01343,0,0,0,12-12V173.25488A4.0002,4.0002,0,0,0,200,169.25488Z"/>
</svg>
