<svg id="Flat" xmlns="http://www.w3.org/2000/svg" viewBox="0 0 256 256">
  <path d="M132.57959,91.41955a3.99943,3.99943,0,0,1,0-5.65625l50.93506-50.93457A12,12,0,0,1,204,43.31409v116.3291a4,4,0,0,1-8,0V43.31409a3.99977,3.99977,0,0,0-6.82813-2.82911L138.23682,91.41955A3.998,3.998,0,0,1,132.57959,91.41955Zm78.68677,126.87989c-.06861.09765-.15186.18652-.23023.27929a4.092,4.092,0,0,1-.28711.31934c-.02343.022-.03955.04883-.06347.07031-.07569.06885-.16114.11817-.24073.18018-.09619.07519-.189.15283-.292.21924a4.0531,4.0531,0,0,1-.37134.20166c-.09912.0498-.19458.104-.29809.146a3.92152,3.92152,0,0,1-.45264.14014c-.09155.0249-.17871.05762-.2727.07568a4.01236,4.01236,0,0,1-.76245.07715h-.001l-180.68115-.00879a11.99941,11.99941,0,0,1-8.48487-20.48437l88.40088-88.40186L45.03467,42.69885A4,4,0,1,1,50.95459,37.318l160,176c.05933.06543.09961.13965.15381.20752a4.07125,4.07125,0,0,1,.2605.352c.06762.10742.12231.21826.179.32959a2.94978,2.94978,0,0,1,.28711.74268c.03345.12109.06787.24072.08984.3667a3.90551,3.90551,0,0,1,.04371.4331c.00561.08692.02612.16992.02612.25879,0,.03125-.00855.06055-.00928.0918a4.00872,4.00872,0,0,1-.04419.438c-.01562.1167-.02466.23486-.05.34814-.02929.13037-.07666.25537-.11889.38281-.0398.11914-.07325.24073-.12378.355-.05152.1167-.12012.22559-.18335.33741C211.40063,218.0758,211.34131,218.1925,211.26636,218.29944ZM27.31348,211.99963l171.63867.0083-86.33521-94.96826L24.48535,205.17151a3.99988,3.99988,0,0,0,2.82813,6.82812Z"/>
</svg>
