<svg xmlns="http://www.w3.org/2000/svg" viewBox="0 0 256 256"><path d="M226.8,149.2a3.9,3.9,0,0,1,0,5.6A3.8,3.8,0,0,1,224,156a3.9,3.9,0,0,1-2.8-1.2L200,133.7l-21.2,21.1A3.8,3.8,0,0,1,176,156a3.9,3.9,0,0,1-2.8-1.2,3.9,3.9,0,0,1,0-5.6L194.3,128l-21.1-21.2a4,4,0,0,1,5.6-5.6L200,122.3l21.2-21.1a4,4,0,1,1,5.6,5.6L205.7,128ZM200,169.3a3.9,3.9,0,0,0-4,4V208a4,4,0,0,1-4,4H27.3a4,4,0,0,1-3.7-2.5,3.9,3.9,0,0,1,.9-4.3L189.2,40.5a3.9,3.9,0,0,1,4.3-.9,4,4,0,0,1,2.5,3.7V82.7a4,4,0,0,0,8,0V43.3a12,12,0,0,0-20.5-8.5L18.8,199.5A12,12,0,0,0,27.3,220H192a12,12,0,0,0,12-12V173.3A3.9,3.9,0,0,0,200,169.3Z"/></svg>