<svg id="Flat" xmlns="http://www.w3.org/2000/svg" viewBox="0 0 256 256">
  <path d="M196.59277,32.22717a11.81488,11.81488,0,0,0-13.07812,2.60108L77.17334,141.17l-.00305.00342L18.8291,199.51477a11.99985,11.99985,0,0,0,8.48438,20.48535H192a12.01343,12.01343,0,0,0,12-12V43.3136A11.8149,11.8149,0,0,0,196.59277,32.22717ZM23.61816,209.53088a3.92265,3.92265,0,0,1,.86719-4.35937L76,153.65686v58.34326H27.31348A3.92414,3.92414,0,0,1,23.61816,209.53088ZM196,208.00012a4.00427,4.00427,0,0,1-4,4H84V145.65686L189.1709,40.48547a3.80212,3.80212,0,0,1,2.75683-1.18359,4.31654,4.31654,0,0,1,1.60352.31641A3.92264,3.92264,0,0,1,196,43.3136Z"/>
</svg>
