<svg xmlns="http://www.w3.org/2000/svg" viewBox="0 0 256 256"><path d="M216,44H40A12,12,0,0,0,28,56V200a12,12,0,0,0,12,12H53.4a4.1,4.1,0,0,0,3.6-2.3,52,52,0,0,1,94,0,4.1,4.1,0,0,0,3.6,2.3H216a12,12,0,0,0,12-12V56A12,12,0,0,0,216,44Zm4,156a4,4,0,0,1-4,4H157.1a60.4,60.4,0,0,0-34.7-29.1,36,36,0,1,0-36.8,0A60.4,60.4,0,0,0,50.9,204H40a4.1,4.1,0,0,1-4-4V56a4,4,0,0,1,4-4H216a4,4,0,0,1,4,4ZM104,172a28,28,0,1,1,28-28A28.1,28.1,0,0,1,104,172Zm92-92v96a4,4,0,0,1-4,4H176a4,4,0,0,1,0-8h12V84H68V96a4,4,0,0,1-8,0V80a4,4,0,0,1,4-4H192A4,4,0,0,1,196,80Z"/></svg>