<svg id="Flat" xmlns="http://www.w3.org/2000/svg" viewBox="0 0 256 256">
  <path d="M216,44H40A12.01343,12.01343,0,0,0,28,56V200.001A11.99893,11.99893,0,0,0,40,212l13.38965-.00146a4.00083,4.00083,0,0,0,3.61328-2.2837,52.02277,52.02277,0,0,1,93.99414,0,4.00083,4.00083,0,0,0,3.61328,2.2837L216,212a12.01343,12.01343,0,0,0,12-12V56A12.01343,12.01343,0,0,0,216,44Zm4,156a4.00427,4.00427,0,0,1-4,4l-58.92285-.00146a60.39232,60.39232,0,0,0-34.67725-29.072,36,36,0,1,0-36.7998,0A60.39181,60.39181,0,0,0,50.92285,203.999L40,204a4.00021,4.00021,0,0,1-4-3.999V56a4.00427,4.00427,0,0,1,4-4H216a4.00427,4.00427,0,0,1,4,4ZM104,172a28,28,0,1,1,28-28A28.03146,28.03146,0,0,1,104,172Zm92-92v96a4.0002,4.0002,0,0,1-4,4H176a4,4,0,0,1,0-8h12V84H68V96a4,4,0,0,1-8,0V80a4.0002,4.0002,0,0,1,4-4H192A4.0002,4.0002,0,0,1,196,80Z"/>
</svg>
