<svg id="Flat" xmlns="http://www.w3.org/2000/svg" viewBox="0 0 256 256">
  <path d="M227.99951,208a4.0002,4.0002,0,0,1-4,4h-192a4.0002,4.0002,0,0,1-4-4V48a4,4,0,0,1,8,0V166.34668l57.17481-57.1748a3.99854,3.99854,0,0,1,5.65625,0l29.17187,29.17089L198.3457,68H168.00244a4,4,0,0,1,0-8h40c.0083,0,.01611.00244.0249.00244a3.99829,3.99829,0,0,1,.75782.07666c.11914.02344.229.06787.34423.10156a4.0525,4.0525,0,0,1,.40332.12549,3.80272,3.80272,0,0,1,.37745.19873c.104.05664.21142.102.311.16846a4.01692,4.01692,0,0,1,1.10791,1.1084c.06494.09717.10889.20166.16455.30273a4.027,4.027,0,0,1,.20313.38574,3.90625,3.90625,0,0,1,.125.4043c.03369.11426.07812.22363.10156.34229a3.98649,3.98649,0,0,1,.0791.7832v40a4,4,0,0,1-8,0V73.65625l-73.17187,73.17187a3.99854,3.99854,0,0,1-5.65625,0L96.00244,117.65723,35.99951,177.65918V204h188A4.0002,4.0002,0,0,1,227.99951,208Z"/>
</svg>
