<svg id="Flat" xmlns="http://www.w3.org/2000/svg" viewBox="0 0 256 256">
  <path d="M99.99854,109.52515v-72.062a3.99988,3.99988,0,0,0-5.333-3.77124A100.1526,100.1526,0,0,0,29.667,146.27734a4.00018,4.00018,0,0,0,5.9336,2.73731l62.398-36.02539A3.99984,3.99984,0,0,0,99.99854,109.52515Zm-8-2.30933-55.32813,31.9436A93.30923,93.30923,0,0,1,36,128,92.18215,92.18215,0,0,1,91.99854,43.30835ZM214.687,78.18774c-.03149-.06176-.04931-.127-.08447-.18774-.04346-.0752-.10156-.13574-.14917-.207A100.05414,100.05414,0,0,0,128,28a4.0002,4.0002,0,0,0-4,4v93.69067L42.86133,172.53613A3.99937,3.99937,0,0,0,41.39746,178c.062.10742.13379.20459.20386.304a3.94525,3.94525,0,0,0,.1687.366A100.01125,100.01125,0,0,0,228,128,99.38858,99.38858,0,0,0,214.687,78.18774ZM132,36.09229a92.03957,92.03957,0,0,1,73.57617,42.50048L132,121.07178ZM128,220a92.4657,92.4657,0,0,1-77.60547-42.57593L209.584,85.51636A91.96981,91.96981,0,0,1,128,220Z"/>
</svg>
