<svg id="Flat" xmlns="http://www.w3.org/2000/svg" viewBox="0 0 256 256">
  <path d="M214.687,78.1875c-.03149-.06152-.04931-.12695-.08447-.1875-.04346-.0752-.10156-.13574-.14893-.207A99.97715,99.97715,0,0,0,41.313,177.8125c.03149.06152.04931.12695.08447.1875a4.00827,4.00827,0,0,0,.22485.335A99.97647,99.97647,0,0,0,214.687,78.1875Zm-9.11084.40527L132,121.07178V36.09229A92.03957,92.03957,0,0,1,205.57617,78.59277ZM124,36.09229v89.59814l-77.584,44.793A91.96414,91.96414,0,0,1,124,36.09229ZM128,220a92.01069,92.01069,0,0,1-77.57617-42.59277L209.584,85.5166A91.96962,91.96962,0,0,1,128,220Z"/>
</svg>
