<svg xmlns="http://www.w3.org/2000/svg" viewBox="0 0 256 256"><path d="M100,109.5v-72a3.9,3.9,0,0,0-1.7-3.3,3.8,3.8,0,0,0-3.6-.5A100.2,100.2,0,0,0,28,128a102.1,102.1,0,0,0,1.7,18.3,4.1,4.1,0,0,0,2.2,2.9,5.3,5.3,0,0,0,1.7.4,3.6,3.6,0,0,0,2-.6L98,113A4,4,0,0,0,100,109.5Zm-8-2.3-55.3,32A84.2,84.2,0,0,1,36,128,92.2,92.2,0,0,1,92,43.3Zm122.7-29c0-.1-.1-.1-.1-.2s-.1-.1-.1-.2A100,100,0,0,0,128,28a4,4,0,0,0-4,4v93.7L42.9,172.5a4.1,4.1,0,0,0-1.5,5.5l.2.3.2.4A100,100,0,0,0,228,128,99.1,99.1,0,0,0,214.7,78.2ZM132,36.1a92.1,92.1,0,0,1,73.6,42.5L132,121.1ZM128,220a92.4,92.4,0,0,1-77.6-42.6L209.6,85.5A92,92,0,0,1,128,220Z"/></svg>