<svg id="Flat" xmlns="http://www.w3.org/2000/svg" viewBox="0 0 256.00098 256.00098">
  <path d="M40.03174,234.84314a12.05718,12.05718,0,0,1-5.09766-1.14087,11.887,11.887,0,0,1-6.93359-10.87805V64.00049a12.01336,12.01336,0,0,1,12-12h176a12.01336,12.01336,0,0,1,12,12v128a12.01336,12.01336,0,0,1-12,12H82.49951a4.00839,4.00839,0,0,0-2.57422.93823L47.72217,232.00977A11.91919,11.91919,0,0,1,40.03174,234.84314ZM40.00049,60.00049a4.00423,4.00423,0,0,0-4,4V222.82422a3.99977,3.99977,0,0,0,6.57324,3.06189l32.20313-27.07117.001-.00061a12.02373,12.02373,0,0,1,7.72168-2.81384h133.501a4.00428,4.00428,0,0,0,4-4v-128a4.00423,4.00423,0,0,0-4-4Z"/>
</svg>
