<svg xmlns="http://www.w3.org/2000/svg" viewBox="0 0 256 256"><path d="M164,104a4,4,0,0,1-4,4H96a4,4,0,0,1,0-8h64A4,4,0,0,1,164,104Zm-4,28H96a4,4,0,0,0,0,8h64a4,4,0,0,0,0-8Zm68-76V184a12,12,0,0,1-12,12H156.5a3.9,3.9,0,0,0-3.4,1.9l-14.8,24.7a11.9,11.9,0,0,1-20.6,0l-14.8-24.7a3.9,3.9,0,0,0-3.4-1.9H40a12,12,0,0,1-12-12V56A12,12,0,0,1,40,44H216A12,12,0,0,1,228,56Zm-8,0a4,4,0,0,0-4-4H40a4,4,0,0,0-4,4V184a4,4,0,0,0,4,4H99.5a12.1,12.1,0,0,1,10.3,5.8l14.8,24.7a3.9,3.9,0,0,0,6.8,0l14.8-24.7h0a12.1,12.1,0,0,1,10.3-5.8H216a4,4,0,0,0,4-4Z"/></svg>