<svg id="Flat" xmlns="http://www.w3.org/2000/svg" viewBox="0 0 256 256">
  <path d="M128,28A100.02672,100.02672,0,0,0,41.11426,177.54l-9.00391,31.51465a11.99985,11.99985,0,0,0,14.834,14.83545l31.5166-9.00391A100.00705,100.00705,0,1,0,128,28Zm0,192a91.87169,91.87169,0,0,1-46.95215-12.86719,4.001,4.001,0,0,0-3.14355-.4082l-33.15723,9.47363a4.00038,4.00038,0,0,1-4.94531-4.94531l9.47265-33.15625a3.99879,3.99879,0,0,0-.4082-3.14356A92.01108,92.01108,0,1,1,128,220ZM87.999,127.99707a8,8,0,1,1-8-8A8.00916,8.00916,0,0,1,87.999,127.99707Zm48,0a8,8,0,1,1-8-8A8.00916,8.00916,0,0,1,135.999,127.99707Zm48,0a8,8,0,1,1-8-8A8.00916,8.00916,0,0,1,183.999,127.99707Z"/>
</svg>
