<svg id="Flat" xmlns="http://www.w3.org/2000/svg" viewBox="0 0 256.00098 256.00098">
  <path d="M228,96.00049a12.01343,12.01343,0,0,0-12-12H180.001v-36a12.01344,12.01344,0,0,0-12-12h-128a12.01343,12.01343,0,0,0-12,12v128a4.00011,4.00011,0,0,0,6.51464,3.11084l38.48243-31.11084H76l.001,36a12.01343,12.01343,0,0,0,12,12h95.00195l38.4834,31.11084a3.9999,3.9999,0,0,0,6.51465-3.11084Zm-156.417,44a4.00176,4.00176,0,0,0-2.51465.88916L36.001,167.62305V48.00049a4.00426,4.00426,0,0,1,4-4h128a4.00427,4.00427,0,0,1,4,4V87.99078l-.001.00971.001.0097v47.9903a4.00428,4.00428,0,0,1-4,4Zm115.34961,48.88916a4.00178,4.00178,0,0,0-2.51465-.88916H88.001a4.00427,4.00427,0,0,1-4-4l-.001-36h84.001a12.01344,12.01344,0,0,0,12-12v-44H216a4.00427,4.00427,0,0,1,4,4l.001,119.62256Z"/>
</svg>
