<svg id="Flat" xmlns="http://www.w3.org/2000/svg" viewBox="0 0 256.00098 256.00098">
  <path d="M164,103.999a4.0002,4.0002,0,0,1-4,4H96a4,4,0,0,1,0-8h64A4.0002,4.0002,0,0,1,164,103.999Zm-4,28H96a4,4,0,0,0,0,8h64a4,4,0,0,0,0-8ZM228,56V184a12.014,12.014,0,0,1-12.001,12H156.5293a4.02152,4.02152,0,0,0-3.43067,1.94141L138.28906,222.624a11.99922,11.99922,0,0,1-20.5791,0l-14.80957-24.68261a4.02271,4.02271,0,0,0-3.43066-1.94239H40a12.01312,12.01312,0,0,1-12-12V56A12.01312,12.01312,0,0,1,40,44H216A12.01312,12.01312,0,0,1,228,56Zm-8,0a4.004,4.004,0,0,0-4-4H40a4.004,4.004,0,0,0-4,4V183.999a4.004,4.004,0,0,0,4,4H99.46973a12.06126,12.06126,0,0,1,10.29,5.82618l14.80957,24.68359a4.001,4.001,0,0,0,6.86035,0l14.80957-24.68262v-.001A12.06125,12.06125,0,0,1,156.5293,188H215.999A4.00479,4.00479,0,0,0,220,184Z"/>
</svg>
