<svg xmlns="http://www.w3.org/2000/svg" viewBox="0 0 256 256"><path d="M216,44H40A12,12,0,0,0,28,56V184a12,12,0,0,0,12,12H99.5a3.9,3.9,0,0,1,3.4,1.9l14.8,24.7a11.9,11.9,0,0,0,20.6,0l14.8-24.7a3.9,3.9,0,0,1,3.4-1.9H216a12,12,0,0,0,12-12V56A12,12,0,0,0,216,44Zm4,140a4,4,0,0,1-4,4H156.5a12.1,12.1,0,0,0-10.3,5.8h0l-14.8,24.7a3.9,3.9,0,0,1-6.8,0l-14.8-24.7A12.1,12.1,0,0,0,99.5,188H40a4,4,0,0,1-4-4V56a4,4,0,0,1,4-4H216a4,4,0,0,1,4,4ZM88,120a8,8,0,1,1-8-8A8,8,0,0,1,88,120Zm48,0a8,8,0,1,1-8-8A8,8,0,0,1,136,120Zm48,0a8,8,0,1,1-8-8A8,8,0,0,1,184,120Z"/></svg>