<svg id="Flat" xmlns="http://www.w3.org/2000/svg" viewBox="0 0 256.00098 256.00098">
  <path d="M216.00049,52.00049h-176a12.01343,12.01343,0,0,0-12,12V222.82422a11.88727,11.88727,0,0,0,6.93359,10.87793,12.05387,12.05387,0,0,0,5.09766,1.14111,11.91739,11.91739,0,0,0,7.69043-2.83349l32.2959-27.14942,2.35937-.85986H216.00049a12.01343,12.01343,0,0,0,12-12v-128A12.01343,12.01343,0,0,0,216.00049,52.00049Zm4,140a4.00428,4.00428,0,0,1-4,4H81.67139a3.99389,3.99389,0,0,0-1.37012.24219l-3.68555,1.34277a4.01,4.01,0,0,0-1.20508.69678l-32.83691,27.604a3.99985,3.99985,0,0,1-6.57324-3.062V64.00049a4.00426,4.00426,0,0,1,4-4h176a4.00427,4.00427,0,0,1,4,4Zm-56-80.00049a4.0002,4.0002,0,0,1-4,4h-64a4,4,0,0,1,0-8h64A4.0002,4.0002,0,0,1,164.00049,112Zm0,32a4.0002,4.0002,0,0,1-4,4h-64a4,4,0,0,1,0-8h64A4.0002,4.0002,0,0,1,164.00049,144Z"/>
</svg>
