<svg id="Flat" xmlns="http://www.w3.org/2000/svg" viewBox="0 0 256.00098 256.00098">
  <path d="M216.001,44h-176a12.01312,12.01312,0,0,0-12,12V183.999a12.01312,12.01312,0,0,0,12,12H99.4707a4.02271,4.02271,0,0,1,3.43067,1.94239L117.71094,222.624a11.99922,11.99922,0,0,0,20.5791,0l14.80957-24.68261A4.0215,4.0215,0,0,1,156.53027,196H216a12.014,12.014,0,0,0,12.001-12V56A12.01312,12.01312,0,0,0,216.001,44Zm4,140A4.0048,4.0048,0,0,1,216,188H156.53027a12.06127,12.06127,0,0,0-10.29,5.8252v.001l-14.80957,24.68262a4.001,4.001,0,0,1-6.86035,0L109.76074,193.8252a12.06126,12.06126,0,0,0-10.29-5.82618H40.001a4.004,4.004,0,0,1-4-4V56a4.004,4.004,0,0,1,4-4h176a4.004,4.004,0,0,1,4,4ZM87.99805,120a8,8,0,1,1-8-8A8.00917,8.00917,0,0,1,87.99805,120Zm48,0a8,8,0,1,1-8-8A8.00917,8.00917,0,0,1,135.99805,120Zm48,0a8,8,0,1,1-8-8A8.00917,8.00917,0,0,1,183.99805,120Z"/>
</svg>
