<svg xmlns="http://www.w3.org/2000/svg" viewBox="0 0 256 256"><path d="M228,96a12,12,0,0,0-12-12H180V48a12,12,0,0,0-12-12H40A12,12,0,0,0,28,48V176a4.1,4.1,0,0,0,2.3,3.6,3.3,3.3,0,0,0,1.7.4,3.8,3.8,0,0,0,2.5-.9L73,148h3v36a12,12,0,0,0,12,12h95l38.5,31.1a3.8,3.8,0,0,0,2.5.9,3.3,3.3,0,0,0,1.7-.4A4.1,4.1,0,0,0,228,224ZM71.6,140a3.8,3.8,0,0,0-2.5.9L36,167.6V48a4,4,0,0,1,4-4H168a4,4,0,0,1,4,4V88h0v48a4,4,0,0,1-4,4Zm115.3,48.9a3.8,3.8,0,0,0-2.5-.9H88a4,4,0,0,1-4-4V148h84a12,12,0,0,0,12-12V92h36a4,4,0,0,1,4,4V215.6Z"/></svg>