<svg id="Flat" xmlns="http://www.w3.org/2000/svg" viewBox="0 0 256 256">
  <path d="M174.89355,101.2384a3.99935,3.99935,0,0,1-.13183,5.65528l-58.667,56a3.9999,3.9999,0,0,1-5.52344,0l-29.333-28a4,4,0,0,1,5.52344-5.78711L113.333,154.47034l55.90527-53.36377A3.99934,3.99934,0,0,1,174.89355,101.2384ZM220,48.00012v160a12.01343,12.01343,0,0,1-12,12H48a12.01343,12.01343,0,0,1-12-12v-160a12.01343,12.01343,0,0,1,12-12H208A12.01343,12.01343,0,0,1,220,48.00012Zm-8,0a4.00427,4.00427,0,0,0-4-4H48a4.00427,4.00427,0,0,0-4,4v160a4.00427,4.00427,0,0,0,4,4H208a4.00427,4.00427,0,0,0,4-4Z"/>
</svg>
