<svg id="Flat" xmlns="http://www.w3.org/2000/svg" viewBox="0 0 256 256">
  <path d="M216,52.00012v152a12.01343,12.01343,0,0,1-12,12H135.63574a4,4,0,0,1,0-8H204a4.00427,4.00427,0,0,0,4-4v-152a4.00427,4.00427,0,0,0-4-4H52a4.00427,4.00427,0,0,0-4,4v91.27246a4,4,0,0,1-8,0V52.00012a12.01343,12.01343,0,0,1,12-12H204A12.01343,12.01343,0,0,1,216,52.00012Zm-85.17188,97.17139a4.0003,4.0003,0,0,0-5.65625,0L64,210.34338,34.82812,181.17151a3.99992,3.99992,0,0,0-5.65625,5.65722l32,32a3.99971,3.99971,0,0,0,5.65625,0l64-64A3.99971,3.99971,0,0,0,130.82812,149.17151Z"/>
</svg>
