<svg id="Flat" xmlns="http://www.w3.org/2000/svg" viewBox="0 0 256 256">
  <path d="M209.806,185.44666a3.96387,3.96387,0,0,0,.51318-.73963,99.43046,99.43046,0,0,0,16.44971-41.03638c.00879-.04272.01379-.0852.02124-.12793a100.093,100.093,0,1,0-47.132,70.052,3.96753,3.96753,0,0,0,.75782-.46839A100.79449,100.79449,0,0,0,209.806,185.44666ZM178.50732,204.856,132,158.34912V113.6626L201.54639,183.209A92.75526,92.75526,0,0,1,178.50732,204.856Zm27.63855-28.361L132,102.34912V57.6626l86.56616,86.56665A91.4069,91.4069,0,0,1,206.14587,176.495ZM132,169.6626l39.42456,39.42419A91.35177,91.35177,0,0,1,132,219.90771ZM220,128c0,2.0636-.07532,4.10962-.20972,6.13989L132,46.34912V36.09229A92.10971,92.10971,0,0,1,220,128ZM36,128a92.10971,92.10971,0,0,1,88-91.90771V219.90771A92.10971,92.10971,0,0,1,36,128Z"/>
</svg>
