<svg id="Flat" xmlns="http://www.w3.org/2000/svg" viewBox="0 0 256 256">
  <path d="M222.9751,105.584c-4.02783-4.20019-8.19385-8.54394-9.95557-12.80273-1.64648-3.97852-1.73047-9.53027-1.81933-15.40918-.13575-8.998-.29-19.19629-6.83252-25.73926-6.543-6.543-16.74219-6.69726-25.74073-6.833-5.87793-.08886-11.42968-.17285-15.4082-1.81933-4.25879-1.76172-8.60254-5.92774-12.80273-9.95606C143.73926,26.62109,136.835,20,128.00049,20s-15.73877,6.62109-22.416,13.02441c-4.20068,4.02832-8.54394,8.19434-12.80273,9.95606-3.979,1.64648-9.53076,1.73047-15.40869,1.81933-8.99854.13575-19.19776.29-25.74073,6.833-6.54248,6.543-6.69677,16.74121-6.83252,25.74024C44.71094,83.251,44.627,88.80273,42.981,92.78125c-1.76221,4.25879-5.92774,8.60254-9.95557,12.80273C26.62158,112.26074,20,119.165,20,128c0,8.834,6.62109,15.73828,13.0249,22.416,4.02783,4.20019,8.19385,8.54394,9.95557,12.80273,1.64648,3.97852,1.73047,9.53027,1.81933,15.40918.13575,8.99805.29,19.19629,6.83252,25.73926,6.543,6.543,16.74219,6.69726,25.74073,6.833,5.87793.08886,11.42968.17285,15.4082,1.81933,4.25879,1.76172,8.60254,5.92774,12.80273,9.95606C112.26074,229.37891,119.165,236,127.99951,236s15.73877-6.62109,22.416-13.02441c4.20068-4.02832,8.54394-8.19434,12.80273-9.95606,3.979-1.64648,9.53076-1.73047,15.40869-1.81933,8.99854-.13575,19.19776-.29,25.74073-6.833,6.54248-6.543,6.69677-16.74121,6.83252-25.74024.08886-5.87793.17285-11.42968,1.81884-15.4082,1.76221-4.25879,5.92774-8.60254,9.95557-12.80273C229.37842,143.73926,236,136.835,236,128,236,119.166,229.37891,112.26172,222.9751,105.584Zm-5.77393,39.29493c-4.541,4.73437-9.23633,9.63086-11.57422,15.28125-2.23,5.38964-2.32959,11.97656-2.42578,18.34668-.124,8.2041-.24121,15.9541-4.49072,20.2041-4.24951,4.249-11.99951,4.36621-20.2041,4.49023-6.37012.09668-12.957.19629-18.34668,2.42578-5.65039,2.33789-10.54639,7.03321-15.28125,11.57422C139.0874,222.75488,133.61816,228,127.99951,228c-5.61816,0-11.0874-5.24512-16.87842-10.79883-4.73437-4.541-9.63037-9.23633-15.28125-11.57422-5.38964-2.22949-11.97607-2.3291-18.34619-2.42578-8.20459-.124-15.95459-.24121-20.2041-4.49023h-.00049c-4.24951-4.25-4.36621-12-4.49023-20.2041-.09668-6.37012-.1958-12.957-2.42578-18.34668-2.33789-5.65039-7.03369-10.54688-11.57422-15.28125C33.24512,139.08789,28,133.61816,28,128c0-5.61914,5.24561-11.08789,10.79883-16.87891,4.541-4.73437,9.23633-9.63086,11.57422-15.28125,2.23-5.38964,2.32959-11.97656,2.42578-18.34668.124-8.2041.24121-15.9541,4.49072-20.2041,4.24951-4.249,11.99951-4.36621,20.2041-4.49023,6.37012-.09668,12.957-.19629,18.34668-2.42578,5.65039-2.33789,10.54639-7.03321,15.28125-11.57422C116.9126,33.24512,122.38184,28,128.00049,28c5.61816,0,11.0874,5.24512,16.87842,10.79883,4.73437,4.541,9.63037,9.23633,15.28125,11.57422,5.38964,2.22949,11.97607,2.3291,18.34619,2.42578,8.20459.124,15.95459.24121,20.20459,4.49023,4.24951,4.25,4.36621,12,4.49023,20.2041.09668,6.37012.1958,12.957,2.42578,18.34668,2.33789,5.65039,7.03369,10.54688,11.57422,15.28125C222.75488,116.91211,228,122.38184,228,128,228,133.61914,222.75439,139.08789,217.20117,144.87891Z"/>
</svg>
