<svg id="Flat" xmlns="http://www.w3.org/2000/svg" viewBox="0 0 256 256">
  <path d="M198.71,57.28906A99.99968,99.99968,0,1,0,57.29,198.71094,99.99968,99.99968,0,1,0,198.71,57.28906Zm21.23438,72.999L175.65649,85.99988,195.813,65.84326A91.32975,91.32975,0,0,1,220,128C220,128.76562,219.96289,129.52539,219.94434,130.28809ZM207.682,174.01892l-60.02234-60.02185,22.34009-22.34045,49.10974,49.1101A90.98049,90.98049,0,0,1,207.682,174.01892ZM62.94629,62.94629a91.98037,91.98037,0,0,1,127.21-2.75977l-78.981,78.98145-.00049.00049-.00048.00049L60.187,190.15674A91.98031,91.98031,0,0,1,62.94629,62.94629Zm77.82519,156.1626-49.11169-49.1117,22.34314-22.34338,60.02356,60.02356A90.98185,90.98185,0,0,1,140.77148,219.10889ZM65.84375,195.81348l20.15942-20.15943,44.29017,44.29016C129.52881,219.96289,128.76746,220,128,220A91.33292,91.33292,0,0,1,65.84375,195.81348Zm127.21-2.75977A93.062,93.062,0,0,1,180.916,203.25342l-61.25635-61.25635,22.34326-22.34326,61.25574,61.25525A93.055,93.055,0,0,1,193.05371,193.05371Z"/>
</svg>
