<svg xmlns="http://www.w3.org/2000/svg" viewBox="0 0 256 256"><path d="M62.9,57.3a4,4,0,0,1,0,5.7,92.6,92.6,0,0,0-23.8,41.2,4,4,0,0,1-3.8,3l-1.1-.2a3.9,3.9,0,0,1-2.8-4.9A99.9,99.9,0,0,1,57.3,57.3,3.9,3.9,0,0,1,62.9,57.3ZM39.1,151.8a3.9,3.9,0,0,0-4.9-2.8,4,4,0,0,0-2.8,4.9,99.7,99.7,0,0,0,25.9,44.8,3.9,3.9,0,0,0,2.8,1.2,3.8,3.8,0,0,0,2.8-1.2,3.9,3.9,0,0,0,0-5.6A93.4,93.4,0,0,1,39.1,151.8Zm112.7,65.1a91.5,91.5,0,0,1-47.6,0,4,4,0,0,0-2.1,7.7,99.8,99.8,0,0,0,26,3.4,97.8,97.8,0,0,0,25.8-3.4,4,4,0,1,0-2.1-7.7Zm70-67.9a4,4,0,0,0-4.9,2.8,93,93,0,0,1-23.8,41.3,3.9,3.9,0,0,0,0,5.6,3.8,3.8,0,0,0,2.8,1.2,3.9,3.9,0,0,0,2.8-1.2,99.9,99.9,0,0,0,25.9-44.8A4,4,0,0,0,221.8,149Zm-4.9-44.8a3.9,3.9,0,0,0,3.8,3l1.1-.2a3.9,3.9,0,0,0,2.8-4.9,99.7,99.7,0,0,0-25.9-44.8,4,4,0,1,0-5.6,5.6A93.4,93.4,0,0,1,216.9,104.2ZM104.2,39.1a92.6,92.6,0,0,1,47.6,0l1.1.2a4,4,0,0,0,1-7.9,101.1,101.1,0,0,0-51.8,0,4,4,0,0,0,2.1,7.7Z"/></svg>