<svg id="Flat" xmlns="http://www.w3.org/2000/svg" viewBox="0 0 256 256">
  <path d="M200,36H172V24a4.0002,4.0002,0,0,0-4-4H88a4.0002,4.0002,0,0,0-4,4V36H56A12.01343,12.01343,0,0,0,44,48V216a12.01343,12.01343,0,0,0,12,12H200a12.01343,12.01343,0,0,0,12-12V48A12.01343,12.01343,0,0,0,200,36ZM92,28h72V60H92ZM204,216a4.00427,4.00427,0,0,1-4,4H56a4.00427,4.00427,0,0,1-4-4V48a4.00427,4.00427,0,0,1,4-4H84V64a4.0002,4.0002,0,0,0,4,4h80a4.0002,4.0002,0,0,0,4-4V44h28a4.00427,4.00427,0,0,1,4,4Zm-40-64a4.0002,4.0002,0,0,1-4,4H96a4,4,0,0,1,0-8h64A4.0002,4.0002,0,0,1,164,152Zm0-32a4.0002,4.0002,0,0,1-4,4H96a4,4,0,0,1,0-8h64A4.0002,4.0002,0,0,1,164,120Z"/>
</svg>
