<svg id="Flat" xmlns="http://www.w3.org/2000/svg" viewBox="0 0 256 256">
  <path d="M124.01318,128.13062C124.01172,128.08624,124,128.04474,124,128V80a4,4,0,0,1,8,0v45.69086l39.56934,22.84527a3.9998,3.9998,0,1,1-4,6.92774l-41.56934-24c-.03857-.02216-.06836-.0528-.10547-.076a4.00585,4.00585,0,0,1-.35205-.25336c-.09668-.0758-.19385-.14966-.28223-.23285-.09423-.08923-.17773-.18695-.26318-.28491-.08545-.09821-.17187-.19409-.24707-.29919-.07422-.10395-.13574-.21528-.2002-.32636-.06347-.11084-.1289-.21942-.18164-.33539-.0542-.118-.09423-.24157-.13671-.36535-.04151-.122-.08448-.24244-.11426-.36792-.02832-.11908-.04346-.2414-.061-.36432A4.04043,4.04043,0,0,1,124.01318,128.13062Zm103.64991-26.5091a3.9531,3.9531,0,0,0,.19726-.37561,3.85052,3.85052,0,0,0,.126-.40594c.03369-.114.07763-.223.10107-.341a3.98826,3.98826,0,0,0,.0791-.78314v-40a4,4,0,1,0-8,0v30.3429L193.05371,62.9458a91.95705,91.95705,0,1,0,0,130.1084A4.00009,4.00009,0,0,0,187.397,187.397a84,84,0,1,1,0-118.79394l27.1128,27.11279H184.1665a4,4,0,0,0,0,8h40c.01563,0,.03028-.00446.0459-.00464a4.01992,4.01992,0,0,0,.73682-.07428c.12012-.02392.23193-.06872.34814-.10315a2.30965,2.30965,0,0,0,.77637-.32239c.104-.0567.21191-.10247.31152-.16912a4.02244,4.02244,0,0,0,.58692-.47919c.00732-.007.01562-.01154.02295-.01862l.01367-.01684a4.01433,4.01433,0,0,0,.48389-.5929C227.55957,101.83453,227.606,101.726,227.66309,101.62152Z"/>
</svg>
