<svg id="Flat" xmlns="http://www.w3.org/2000/svg" viewBox="0 0 256 256">
  <path d="M128,28A100,100,0,1,0,228,128,100.11332,100.11332,0,0,0,128,28Zm0,192a92,92,0,1,1,92-92A92.10416,92.10416,0,0,1,128,220Zm60-92a4.0002,4.0002,0,0,1-4,4H137.65674l32.76953,32.76953a3.99992,3.99992,0,0,1-5.65674,5.65674L125.17236,130.8291a4.05139,4.05139,0,0,1-.499-.61035c-.06592-.09912-.11182-.20654-.168-.31006a3.87634,3.87634,0,0,1-.19922-.37842,3.95445,3.95445,0,0,1-.126-.40478c-.0337-.11426-.07764-.22412-.10108-.34229a4.00772,4.00772,0,0,1,0-1.5664c.02344-.11817.06738-.228.10108-.34229a3.95445,3.95445,0,0,1,.126-.40478,4.001,4.001,0,0,1,.19776-.37647c.05713-.104.103-.2124.16992-.312a4.02009,4.02009,0,0,1,.49658-.6084l.001-.001h0a3.98251,3.98251,0,0,1,.60986-.498c.1001-.06738.209-.11328.31348-.17041a3.80544,3.80544,0,0,1,.375-.19727,3.90555,3.90555,0,0,1,.4082-.127c.11328-.0332.22168-.07715.33887-.1001a3.99517,3.99517,0,0,1,.78369-.0791H184A4.0002,4.0002,0,0,1,188,128Z"/>
</svg>
