<svg id="Flat" xmlns="http://www.w3.org/2000/svg" viewBox="0 0 256 256">
  <path d="M132,80v45.69086l39.56934,22.84527a3.9998,3.9998,0,1,1-4,6.92774l-41.56934-24c-.03857-.02216-.06836-.0528-.10547-.076a4.00585,4.00585,0,0,1-.35205-.25336c-.09668-.0758-.19385-.14966-.28223-.23285-.09423-.08923-.17773-.18695-.26318-.28491-.08545-.09821-.17187-.19409-.24707-.29919-.07422-.10395-.13574-.21528-.2002-.32636-.06347-.11084-.1289-.21942-.18164-.33539-.0542-.118-.09423-.24157-.13671-.36535-.04151-.122-.08448-.24244-.11426-.36792-.02832-.11908-.04346-.2414-.061-.36432a4.04043,4.04043,0,0,1-.043-.42761C124.01172,128.08624,124,128.04474,124,128V80a4,4,0,0,1,8,0Zm61.05371-17.0542a92.10516,92.10516,0,0,0-130.10742,0L35.8335,90.05865V59.71582a4,4,0,1,0-8,0v40a3.98826,3.98826,0,0,0,.0791.78314c.02344.118.06738.22705.10107.341a3.85052,3.85052,0,0,0,.126.40594,3.9531,3.9531,0,0,0,.19726.37561c.05713.10449.10352.213.17041.31317a4.01433,4.01433,0,0,0,.48389.5929l.01367.01684c.00733.00708.01563.0116.023.01862a4.02244,4.02244,0,0,0,.58692.47919c.09912.06646.207.11206.31054.16864a3.97312,3.97312,0,0,0,.37842.199,3.93,3.93,0,0,0,.398.12354c.1167.0346.22852.07953.34912.10351a4.02388,4.02388,0,0,0,.73438.074c.0166.00018.03173.00488.04834.00488h40a4,4,0,0,0,0-8H41.49023L68.603,68.603a83.99976,83.99976,0,1,1,0,118.79443,3.99975,3.99975,0,1,0-5.65674,5.65625A92,92,0,0,0,193.05371,62.9458Z"/>
</svg>
