<svg xmlns="http://www.w3.org/2000/svg" viewBox="0 0 256 256"><path d="M132,80v45.7l39.6,22.8A4,4,0,0,1,173,154a3.9,3.9,0,0,1-3.4,2,4.6,4.6,0,0,1-2-.5l-41.6-24h-.1l-.4-.3-.2-.2-.3-.3-.2-.3-.3-.3c0-.1-.1-.2-.1-.3l-.2-.4c0-.1-.1-.3-.1-.4v-.3a.9.9,0,0,1-.1-.5h0V80a4,4,0,0,1,8,0Zm61.1-17.1a92.3,92.3,0,0,0-130.2,0L35.8,90.1V59.7a4,4,0,1,0-8,0v40c0,.3.1.5.1.8v.3a.8.8,0,0,1,.1.4l.2.4.2.3.5.6h0l.6.4.3.2.4.2H71.8a4,4,0,0,0,0-8H41.5L68.6,68.6a84,84,0,1,1,0,118.8,4,4,0,0,0-5.7,0,4.2,4.2,0,0,0,0,5.7A92.1,92.1,0,0,0,193.1,62.9Z"/></svg>