<svg xmlns="http://www.w3.org/2000/svg" viewBox="0 0 256 256"><path d="M124,128.1h0V80a4,4,0,0,1,8,0v45.7l39.6,22.8A4,4,0,0,1,173,154a3.9,3.9,0,0,1-3.4,2,4.6,4.6,0,0,1-2-.5l-41.6-24h-.1l-.4-.3-.2-.2-.3-.3-.3-.3c0-.1-.1-.2-.2-.3s-.1-.2-.1-.3l-.2-.4c0-.1-.1-.3-.1-.4v-.3A.9.9,0,0,1,124,128.1Zm103.7-26.5.2-.4a.8.8,0,0,1,.1-.4v-.3c0-.3.1-.5.1-.8v-40a4,4,0,1,0-8,0V90.1L193.1,62.9a92,92,0,1,0,0,130.2,4.2,4.2,0,0,0,0-5.7,4,4,0,0,0-5.7,0,84,84,0,1,1,0-118.8l27.1,27.1H184.2a4,4,0,0,0,0,8h41.5l.4-.2.3-.2.6-.4h0l.5-.6Z"/></svg>