<svg xmlns="http://www.w3.org/2000/svg" viewBox="0 0 256 256"><path d="M216,44H40A12,12,0,0,0,28,56V200a12,12,0,0,0,12,12H216a12,12,0,0,0,12-12V56A12,12,0,0,0,216,44Zm4,156a4,4,0,0,1-4,4H40a4,4,0,0,1-4-4V56a4,4,0,0,1,4-4H216a4,4,0,0,1,4,4ZM72,128a24.1,24.1,0,0,0,24,24,23.8,23.8,0,0,0,17.1-7.2,4,4,0,0,1,5.8,5.6,32,32,0,1,1,0-44.8,4,4,0,0,1-5.8,5.6A23.8,23.8,0,0,0,96,104,24.1,24.1,0,0,0,72,128Zm72,0a24.1,24.1,0,0,0,24,24,23.8,23.8,0,0,0,17.1-7.2,4,4,0,1,1,5.8,5.6,32,32,0,1,1,0-44.8,4,4,0,0,1-5.8,5.6A23.8,23.8,0,0,0,168,104,24.1,24.1,0,0,0,144,128Z"/></svg>