<svg xmlns="http://www.w3.org/2000/svg" viewBox="0 0 256 256"><path d="M156,76a70.1,70.1,0,0,0-22.1,3.5A50.8,50.8,0,0,0,121,63.8l11.6-16.5a4,4,0,0,0-6.6-4.6L114.5,59.2a52.1,52.1,0,0,0-31.6-7L79.4,32.4a4,4,0,0,0-7.8,1.4l3.5,19.8A52.1,52.1,0,0,0,47.8,71L31.3,59.4a4,4,0,0,0-5.6,1,4.1,4.1,0,0,0,1,5.6L43.2,77.5a52.7,52.7,0,0,0-7,31.5l-19.8,3.5a4,4,0,0,0,.7,8h.7l19.8-3.5A52.5,52.5,0,0,0,46,134.6,48,48,0,0,0,76,220h80a72,72,0,0,0,0-144ZM44.7,111.7h-.1a43.7,43.7,0,0,1,7.3-32.7H52v-.2A43.4,43.4,0,0,1,80.2,60.7h.2a.1.1,0,0,1,.1-.1,44.1,44.1,0,0,1,32.4,7.1l.3.3.4.2a43.4,43.4,0,0,1,12.7,14.2,73.1,73.1,0,0,0-38.7,43A50.4,50.4,0,0,0,76,124a47.4,47.4,0,0,0-23.4,6.1A43.9,43.9,0,0,1,44.7,111.7ZM156,212H76a40,40,0,0,1,0-80,43.3,43.3,0,0,1,9.5,1.1A73.1,73.1,0,0,0,84,148a4,4,0,0,0,8,0,64,64,0,1,1,64,64Z"/></svg>