<svg id="Flat" xmlns="http://www.w3.org/2000/svg" viewBox="0 0 256 256">
  <path d="M157.59424,202.19434l-26.25,40a3.99988,3.99988,0,1,1-6.68848-4.38868l26.25-40a3.99988,3.99988,0,1,1,6.68848,4.38868ZM228,92a72.08124,72.08124,0,0,1-72,72H132.40942l-30.31518,46.19434a3.99988,3.99988,0,1,1-6.68848-4.38868L122.84058,164H76A48,48,0,1,1,87.62646,69.41846,72.00368,72.00368,0,0,1,228,92Zm-8,0A64,64,0,0,0,92,92a4,4,0,0,1-8,0,72.04555,72.04555,0,0,1,1.541-14.85645A40.00484,40.00484,0,1,0,76,156h80A64.0727,64.0727,0,0,0,220,92Z"/>
</svg>
