<svg xmlns="http://www.w3.org/2000/svg" viewBox="0 0 256 256"><path d="M156,76a70.1,70.1,0,0,0-16,1.8A68,68,0,0,0,87.3,13.7a4.1,4.1,0,0,0-3.8,1.1,4.2,4.2,0,0,0-1,3.7A60.7,60.7,0,0,1,84,32,60,60,0,0,1,24,92a60.7,60.7,0,0,1-13.5-1.5,4,4,0,0,0-3.7,1.1,3.8,3.8,0,0,0-1.1,3.7,68.1,68.1,0,0,0,34.5,44.8A47.9,47.9,0,0,0,76,220h80a72,72,0,0,0,0-144ZM15.2,99.4a65.1,65.1,0,0,0,8.8.6A68.1,68.1,0,0,0,92,32a65.1,65.1,0,0,0-.6-8.8A59.6,59.6,0,0,1,132,80h0a72.4,72.4,0,0,0-44.4,45.3A50.4,50.4,0,0,0,76,124a47.3,47.3,0,0,0-29.6,10.3A60.3,60.3,0,0,1,15.2,99.4ZM156,212H76a40,40,0,0,1,0-80,43.3,43.3,0,0,1,9.5,1.1A73.1,73.1,0,0,0,84,148a4,4,0,0,0,8,0,64,64,0,1,1,64,64Z"/></svg>