<svg xmlns="http://www.w3.org/2000/svg" viewBox="0 0 256 256"><path d="M244,128a83.2,83.2,0,0,1-16.8,50.4A3.9,3.9,0,0,1,224,180a4.3,4.3,0,0,1-2.4-.8,4,4,0,0,1-.8-5.6A76,76,0,1,0,84,128a4,4,0,0,1-8,0,82.8,82.8,0,0,1,4.6-27.3A62.3,62.3,0,0,0,72,100a52,52,0,0,0,0,104H96a4,4,0,0,1,0,8H72A60,60,0,0,1,72,92a64.2,64.2,0,0,1,11.6,1.1A84,84,0,0,1,244,128Zm-89.2-2.8a3.9,3.9,0,0,0-5.6,0l-34,33.9a4,4,0,0,0,5.7,5.7L148,137.7V208a4,4,0,0,0,8,0V137.7l27.1,27.1a3.8,3.8,0,0,0,2.8,1.1,3.9,3.9,0,0,0,2.9-1.1,4.2,4.2,0,0,0,0-5.7Z"/></svg>