<svg id="Flat" xmlns="http://www.w3.org/2000/svg" viewBox="0 0 256 256">
  <path d="M244,128a83.36107,83.36107,0,0,1-33.59668,67.20312,4,4,0,1,1-4.80469-6.39648A76.00187,76.00187,0,1,0,84,128a4,4,0,0,1-8,0,83.604,83.604,0,0,1,4.56982-27.27295A51.99266,51.99266,0,1,0,72,204h64a4,4,0,0,1,0,8H72A60,60,0,1,1,83.6106,93.12842,83.98155,83.98155,0,0,1,244,128Zm-82.51465,4.28613a3.999,3.999,0,0,0-5.19922,2.22852l-16,40a3.99989,3.99989,0,1,0,7.42774,2.9707l16-40A3.99989,3.99989,0,0,0,161.48535,132.28613Zm24,32a4.00047,4.00047,0,0,0-5.19922,2.22852l-16,40a3.99989,3.99989,0,1,0,7.42774,2.9707l16-40A3.99989,3.99989,0,0,0,185.48535,164.28613Z"/>
</svg>
