<svg id="Flat" xmlns="http://www.w3.org/2000/svg" viewBox="0 0 256 256">
  <path d="M156,76a71.70847,71.70847,0,0,0-22.13794,3.49194A51.77982,51.77982,0,0,0,121.02637,63.792l11.53418-16.47168a3.9996,3.9996,0,1,0-6.55274-4.58789L114.47363,59.20435a51.90276,51.90276,0,0,0-31.54-6.96485l-3.498-19.83911a4.00018,4.00018,0,1,0-7.87891,1.38867l3.49927,19.84571a51.51436,51.51436,0,0,0-27.22827,17.3396L31.32031,59.416a3.99987,3.99987,0,1,0-4.58886,6.55273L43.23828,77.52686a51.511,51.511,0,0,0-6.9917,31.51416L16.40039,112.54a4.00062,4.00062,0,0,0,.68945,7.94043,4.06139,4.06139,0,0,0,.69922-.06152l19.83863-3.49756a51.94007,51.94007,0,0,0,8.32714,17.68383A47.97365,47.97365,0,0,0,76,220h80a72,72,0,0,0,0-144ZM44.67749,111.72729c-.00537-.03662-.00171-.0725-.00806-.10913-.00683-.03808-.02319-.07177-.03076-.10937a43.706,43.706,0,0,1,7.25391-32.67944c.02124-.02857.04931-.0481.06982-.0774.02344-.03344.03614-.0708.0586-.10449A43.69923,43.69923,0,0,1,80.22778,60.6814c.0437-.00611.08643-.00391.13013-.01148.03906-.00683.07373-.02368.1123-.03174A43.92031,43.92031,0,0,1,112.919,67.69946a3.892,3.892,0,0,0,.30468.26245,4.01387,4.01387,0,0,0,.42334.25A43.80227,43.80227,0,0,1,126.3457,82.408a72.37454,72.37454,0,0,0-38.71924,43.01,48.01569,48.01569,0,0,0-35.0371,4.70019A43.98483,43.98483,0,0,1,44.67749,111.72729ZM156,212H76a40,40,0,1,1,9.541-78.85645A72.04908,72.04908,0,0,0,84,148a4,4,0,0,0,8,0,64,64,0,1,1,64,64Z"/>
</svg>
