<svg id="Flat" xmlns="http://www.w3.org/2000/svg" viewBox="0 0 256 256">
  <path d="M188.76953,171.23047a4.00061,4.00061,0,0,1,0,5.65723l-33.94092,33.94091c-.01611.01612-.03515.02637-.05151.042a4.017,4.017,0,0,1-.55786.45556c-.10205.06812-.21265.11524-.31934.17334a2.314,2.314,0,0,1-.78222.32227c-.11158.03271-.21851.07617-.334.09912a3.92179,3.92179,0,0,1-1.56738,0c-.11524-.02295-.22193-.06616-.3335-.09888a2.309,2.309,0,0,1-.78174-.322c-.10717-.05811-.218-.10547-.32031-.17383a4.017,4.017,0,0,1-.55786-.45556c-.01636-.01563-.0354-.02588-.05151-.042L115.23047,176.8877a4.00027,4.00027,0,1,1,5.65723-5.65723L148,198.34326V128a4,4,0,0,1,8,0v70.34326l27.1123-27.11279A4.0015,4.0015,0,0,1,188.76953,171.23047ZM160,44A84.09631,84.09631,0,0,0,83.6106,93.12842,60.00256,60.00256,0,1,0,72,212H96a4,4,0,0,0,0-8H72a52.00008,52.00008,0,1,1,8.57007-103.27344A83.60043,83.60043,0,0,0,76,128a4,4,0,0,0,8,0,76,76,0,1,1,136.8042,45.602,4,4,0,0,0,6.39648,4.80469A84.00574,84.00574,0,0,0,160,44Z"/>
</svg>
