<svg id="Flat" xmlns="http://www.w3.org/2000/svg" viewBox="0 0 256 256">
  <path d="M156,76a71.9152,71.9152,0,0,0-16.04688,1.81738A67.99327,67.99327,0,0,0,87.27344,13.72363,3.99968,3.99968,0,0,0,82.48,18.5166,60.34885,60.34885,0,0,1,84,32,60.06812,60.06812,0,0,1,24,92a60.44689,60.44689,0,0,1-13.48486-1.51855,3.99917,3.99917,0,0,0-4.792,4.79394,68.18434,68.18434,0,0,0,34.44947,44.8269A47.96672,47.96672,0,0,0,76,220h80a72,72,0,0,0,0-144ZM15.21875,99.43652A68.60738,68.60738,0,0,0,24,100,68.07728,68.07728,0,0,0,92,32a68.823,68.823,0,0,0-.56445-8.79395A59.6647,59.6647,0,0,1,132,80c0,.04272-.00293.08594-.00293.12891A72.347,72.347,0,0,0,87.62646,125.418a47.98334,47.98334,0,0,0-41.23242,8.8418A60.21715,60.21715,0,0,1,15.21875,99.43652ZM156,212H76a40,40,0,1,1,9.541-78.85645A72.04908,72.04908,0,0,0,84,148a4,4,0,0,0,8,0,64,64,0,1,1,64,64Z"/>
</svg>
