<svg id="Flat" xmlns="http://www.w3.org/2000/svg" viewBox="0 0 256 256">
  <path d="M244,127.98438a83.2842,83.2842,0,0,1-16.79932,50.40673,4,4,0,1,1-6.39648-4.80468A76.00191,76.00191,0,1,0,84,127.98438a4,4,0,0,1-8,0,83.60038,83.60038,0,0,1,4.57007-27.27344A51.9929,51.9929,0,1,0,72,203.98438H96a4,4,0,0,1,0,8H72A60,60,0,1,1,83.6106,93.11279,83.98155,83.98155,0,0,1,244,127.98438Zm-89.17139-2.82862c-.01587-.01587-.03491-.02612-.051-.0415a3.97671,3.97671,0,0,0-.55835-.45606c-.1001-.06689-.20825-.11279-.3125-.16943a3.87543,3.87543,0,0,0-.3772-.19849,3.9288,3.9288,0,0,0-.397-.12329c-.11695-.03467-.229-.07959-.3501-.10376a4.01456,4.01456,0,0,0-.73413-.074c-.0166-.00025-.03174-.00488-.04834-.00488s-.03174.00463-.04834.00488a4.01456,4.01456,0,0,0-.73413.074c-.12109.02417-.23315.06909-.3501.10376a3.9288,3.9288,0,0,0-.397.12329,3.98559,3.98559,0,0,0-.3772.19825c-.10425.05688-.2124.10278-.3125.16967a3.97671,3.97671,0,0,0-.55835.45606c-.01611.01538-.03515.02563-.051.0415l-33.94092,33.94092a4.00027,4.00027,0,1,0,5.65723,5.65723L148,137.64111v70.34327a4,4,0,0,0,8,0V137.64111l27.1123,27.1128a4.00027,4.00027,0,1,0,5.65723-5.65723Z"/>
</svg>
