<svg xmlns="http://www.w3.org/2000/svg" viewBox="0 0 256 256"><path d="M51,37.3a4,4,0,1,0-6,5.4L86.2,87.9c-1,1.7-1.8,3.5-2.6,5.2A64.2,64.2,0,0,0,72,92a60,60,0,0,0,0,120h88a84.1,84.1,0,0,0,32.9-6.7L205,218.7a4.1,4.1,0,0,0,5.7.3,4.2,4.2,0,0,0,.3-5.7ZM160,204H72a52,52,0,0,1,0-104,59.7,59.7,0,0,1,8.5.7A87.3,87.3,0,0,0,76,128a4,4,0,0,0,8,0,75.9,75.9,0,0,1,7.9-33.8L187.1,199A75.3,75.3,0,0,1,160,204Zm84-76a84,84,0,0,1-21.3,55.9,4.1,4.1,0,0,1-3,1.4,4.5,4.5,0,0,1-2.7-1,4.1,4.1,0,0,1-.3-5.7A76,76,0,0,0,115,66.7a3.9,3.9,0,0,1-5.6-.8,4,4,0,0,1,.9-5.6A83.1,83.1,0,0,1,160,44,84.1,84.1,0,0,1,244,128Z"/></svg>