<svg id="Flat" xmlns="http://www.w3.org/2000/svg" viewBox="0 0 256 256">
  <path d="M244,128a83.36107,83.36107,0,0,1-33.59668,67.20312,4,4,0,1,1-4.80469-6.39648A76.00187,76.00187,0,1,0,84,128a4,4,0,0,1-8,0,83.604,83.604,0,0,1,4.56982-27.27295A51.99266,51.99266,0,1,0,72,204h64a4,4,0,0,1,0,8H72A60,60,0,1,1,83.6106,93.12842,83.98155,83.98155,0,0,1,244,128Zm-60,35.99219H157.9082l13.80567-34.51465a3.99989,3.99989,0,0,0-7.42774-2.9707l-16,40A3.99987,3.99987,0,0,0,152,171.99219h26.0918l-13.80567,34.51465a3.99989,3.99989,0,1,0,7.42774,2.9707l16-40A3.99986,3.99986,0,0,0,184,163.99219Z"/>
</svg>
