<svg xmlns="http://www.w3.org/2000/svg" viewBox="0 0 256 256"><path d="M157.6,202.2l-26.3,40A3.8,3.8,0,0,1,128,244a3.6,3.6,0,0,1-2.2-.7,3.9,3.9,0,0,1-1.1-5.5l26.2-40a4,4,0,0,1,6.7,4.4ZM228,92a72.1,72.1,0,0,1-72,72H132.4l-30.3,46.2a4.1,4.1,0,0,1-3.4,1.8,3.3,3.3,0,0,1-2.1-.7,3.9,3.9,0,0,1-1.2-5.5L122.8,164H76a48,48,0,0,1,0-96,50.4,50.4,0,0,1,11.6,1.4A72,72,0,0,1,228,92Zm-8,0A64,64,0,0,0,92,92a4,4,0,0,1-8,0,73.1,73.1,0,0,1,1.5-14.9A43.3,43.3,0,0,0,76,76a40,40,0,0,0,0,80h80A64.1,64.1,0,0,0,220,92Z"/></svg>