<svg id="Flat" xmlns="http://www.w3.org/2000/svg" viewBox="0 0 256 256">
  <path d="M156,20A72.13157,72.13157,0,0,0,87.62646,69.41846,48.00478,48.00478,0,1,0,76,164h80a72,72,0,0,0,0-144Zm0,136H76a40,40,0,1,1,9.541-78.85645A72.04555,72.04555,0,0,0,84,92a4,4,0,0,0,8,0,64,64,0,1,1,64,64Zm16,40a8,8,0,1,1-8-8A8.00917,8.00917,0,0,1,172,196Zm-88,0a8,8,0,1,1-8-8A8.00917,8.00917,0,0,1,84,196Zm40,16a8,8,0,1,1-8-8A8.00917,8.00917,0,0,1,124,212ZM76,236a8,8,0,1,1-8-8A8.00917,8.00917,0,0,1,76,236Zm88,0a8,8,0,1,1-8-8A8.00917,8.00917,0,0,1,164,236Z"/>
</svg>
