<svg id="Flat" xmlns="http://www.w3.org/2000/svg" viewBox="0 0 256 256">
  <path d="M50.96,37.30908A4.0003,4.0003,0,0,0,45.04,42.69092L86.16211,87.92505q-1.38794,2.55432-2.5896,5.19556A60.0027,60.0027,0,1,0,72,212h88a83.28486,83.28486,0,0,0,32.87939-6.68567L205.04,218.69092a4.0003,4.0003,0,1,0,5.91992-5.38184ZM160,204H72a52.00009,52.00009,0,1,1,8.54224-103.27759A84.17166,84.17166,0,0,0,76,128a4,4,0,0,0,8,0,76.01191,76.01191,0,0,1,7.90039-33.7627l95.23145,104.75452A75.40275,75.40275,0,0,1,160,204Zm84-76a83.86007,83.86007,0,0,1-21.33691,55.94141,4,4,0,1,1-5.96582-5.33008A76.00393,76.00393,0,0,0,115.00293,66.74561a3.99987,3.99987,0,1,1-4.74121-6.44336A84.00668,84.00668,0,0,1,244,128Z"/>
</svg>
