<svg id="Flat" xmlns="http://www.w3.org/2000/svg" viewBox="0 0 256 256">
  <path d="M244,128a83.36107,83.36107,0,0,1-33.59668,67.20312,4,4,0,1,1-4.80469-6.39648A76.00187,76.00187,0,1,0,84,128a4,4,0,0,1-8,0,83.604,83.604,0,0,1,4.56982-27.27295A51.99266,51.99266,0,1,0,72,204h64a4,4,0,0,1,0,8H72A60,60,0,1,1,83.6106,93.12842,83.98155,83.98155,0,0,1,244,128Zm-96-2a6,6,0,1,0,6,6A6.00014,6.00014,0,0,0,148,126Zm-8,40a6,6,0,1,0,6,6A6.00014,6.00014,0,0,0,140,166Zm40-8a6,6,0,1,0,6,6A6.00014,6.00014,0,0,0,180,158Zm-8,40a6,6,0,1,0,6,6A6.00014,6.00014,0,0,0,172,198Z"/>
</svg>
