<svg id="Flat" xmlns="http://www.w3.org/2000/svg" viewBox="0 0 256 256">
  <path d="M160,236H96a4.00019,4.00019,0,0,1-3.81787-5.19336l12.27771-39.28223A52.00136,52.00136,0,1,1,76,96q2.03211,0,4.05444.15625a52.00007,52.00007,0,1,1,95.891,0Q177.966,96.001,180,96a52,52,0,1,1-28.45911,95.52539l12.277,39.28125A4.00019,4.00019,0,0,1,160,236Zm-58.559-8h53.118l-14.89294-47.65137a4.00008,4.00008,0,0,1,6.85974-3.791,43.97811,43.97811,0,1,0,23.38257-71.39551,4.00352,4.00352,0,0,1-4.41468-6.123,43.99992,43.99992,0,1,0-74.95105.05957q.04707.07032.09131.14356a4.00193,4.00193,0,0,1-4.46936,5.9375,44.00533,44.00533,0,1,0,23.31067,71.37695,4,4,0,0,1,6.85962,3.791Z"/>
</svg>
