<svg xmlns="http://www.w3.org/2000/svg" viewBox="0 0 256 256"><path d="M160,236H96a4,4,0,0,1-3.8-5.2l12.3-39.3A52,52,0,1,1,76,96l4.1.2a52,52,0,1,1,95.8,0L180,96a52,52,0,1,1-28.5,95.5l12.3,39.3A4,4,0,0,1,160,236Zm-58.6-8h53.2l-14.9-47.7a3.9,3.9,0,0,1,6.8-3.7A44,44,0,1,0,180,104a42.9,42.9,0,0,0-10.1,1.2,4.1,4.1,0,0,1-5.1-4.4,4.5,4.5,0,0,1,.7-1.8A43.2,43.2,0,0,0,172,76a44,44,0,0,0-88,0,44.5,44.5,0,0,0,6.5,23.1.1.1,0,0,1,.1.1,3.9,3.9,0,0,1,.5,3.1,4.2,4.2,0,0,1-3.3,3,4.3,4.3,0,0,1-1.6-.1,44,44,0,1,0,23.3,71.4,3.9,3.9,0,0,1,6.8,3.7Z"/></svg>