<svg xmlns="http://www.w3.org/2000/svg" viewBox="0 0 256 256"><path d="M234,97.5,133.9,40.8a11.8,11.8,0,0,0-11.8,0L22,97.5a4.2,4.2,0,0,0-2,3.5v64a4.2,4.2,0,0,0,2,3.5l100.1,56.7a11.7,11.7,0,0,0,11.8,0L234,168.5a4.2,4.2,0,0,0,2-3.5V101A4.2,4.2,0,0,0,234,97.5Zm-6,60.6L183.7,133,228,107.9ZM223.9,101l-48.3,27.4L132,103.7V48.9ZM128,155.4,88.5,133,128,110.6,167.5,133ZM124,48.9v54.8L80.4,128.4,32.1,101Zm-96,59L72.3,133,28,158.1ZM32.1,165l48.3-27.4L124,162.3v54.8ZM132,217.1V162.3l43.6-24.7L223.9,165Z"/></svg>