<svg id="Flat" xmlns="http://www.w3.org/2000/svg" viewBox="0 0 256 256">
  <path d="M216,76H40a4.0002,4.0002,0,0,0-4,4v72a68.07728,68.07728,0,0,0,68,68h48a68.08223,68.08223,0,0,0,67.88916-64.21338A36.04882,36.04882,0,0,0,252,120v-8A36.04061,36.04061,0,0,0,216,76ZM152,212H104a60.06812,60.06812,0,0,1-60-60V84H212v68A60.06812,60.06812,0,0,1,152,212Zm92-92a28.04,28.04,0,0,1-24,27.71V84.29A28.04,28.04,0,0,1,244,112ZM92,48V16a4,4,0,0,1,8,0V48a4,4,0,0,1-8,0Zm32,0V16a4,4,0,0,1,8,0V48a4,4,0,0,1-8,0Zm32,0V16a4,4,0,0,1,8,0V48a4,4,0,0,1-8,0Z"/>
</svg>
