<svg xmlns="http://www.w3.org/2000/svg" viewBox="0 0 256 256"><path d="M84,56V24a4,4,0,0,1,8,0V56a4,4,0,0,1-8,0Zm36,4a4,4,0,0,0,4-4V24a4,4,0,0,0-8,0V56A4,4,0,0,0,120,60Zm32,0a4,4,0,0,0,4-4V24a4,4,0,0,0-8,0V56A4,4,0,0,0,152,60Zm92,60v8a36,36,0,0,1-36,36h-.4a92.2,92.2,0,0,1-35.8,48H208a4,4,0,0,1,0,8H32a4,4,0,0,1,0-8H68.2A92.4,92.4,0,0,1,28,136V88a4,4,0,0,1,4-4H208A36,36,0,0,1,244,120Zm-43.3,39.2h0A81.1,81.1,0,0,0,204,136V92H36v44a84.3,84.3,0,0,0,48.2,76h71.6A84.2,84.2,0,0,0,200.7,159.2ZM236,120a27.9,27.9,0,0,0-24-27.7V136a93.3,93.3,0,0,1-2.2,19.9A28,28,0,0,0,236,128Z"/></svg>