<svg id="Flat" xmlns="http://www.w3.org/2000/svg" viewBox="0 0 256 256">
  <path d="M84,56V24a4,4,0,0,1,8,0V56a4,4,0,0,1-8,0Zm36,4a4.0002,4.0002,0,0,0,4-4V24a4,4,0,0,0-8,0V56A4.0002,4.0002,0,0,0,120,60Zm32,0a4.0002,4.0002,0,0,0,4-4V24a4,4,0,0,0-8,0V56A4.0002,4.0002,0,0,0,152,60Zm92,60v8a36.04061,36.04061,0,0,1-36,36h-.40527a92.51437,92.51437,0,0,1-35.76368,48H208a4,4,0,0,1,0,8H156.752c-.01562,0-.03125.00488-.04687.00488-.02344,0-.04639-.00439-.07031-.00488H83.21631c-.02246-.00049-.04443.001-.06641,0H32a4,4,0,0,1,0-8H68.169A92.3377,92.3377,0,0,1,28,136V88a4.0002,4.0002,0,0,1,4-4H208A36.04061,36.04061,0,0,1,244,120Zm-43.29834,39.20557c.00537-.02588.01514-.04932.021-.07471A83.53326,83.53326,0,0,0,204,136V92H36v44a84.27776,84.27776,0,0,0,48.20068,76h71.59864A84.32057,84.32057,0,0,0,200.70166,159.20557ZM236,120a28.04,28.04,0,0,0-24-27.71V136a91.41234,91.41234,0,0,1-2.20361,19.936A28.032,28.032,0,0,0,236,128Z"/>
</svg>
