<svg xmlns="http://www.w3.org/2000/svg" viewBox="0 0 256 256"><path d="M195.1,58.1C183.7,38.7,168.4,28,152,28H104C87.6,28,72.3,38.7,60.9,58.1S44,101.7,44,128s6,51.2,16.9,69.9S87.6,228,104,228h48c16.4,0,31.7-10.7,43.1-30.1S212,154.3,212,128,206,76.8,195.1,58.1Zm8.8,65.9h-40c-.4-20.5-4.6-39.9-11.8-56h39.2C199,83.7,203.4,103.2,203.9,124ZM152,36c12.9,0,25.2,8.5,34.8,24H148.1l-1-1.9c-5.6-9.6-12.2-17-19.3-22.1ZM67.9,193.9C57.6,176.3,52,152.9,52,128s5.6-48.3,15.9-65.9S90.5,36,104,36s26.3,9.3,36.1,26.1S156,103.1,156,128s-5.6,48.3-15.9,65.9S117.5,220,104,220,77.7,210.7,67.9,193.9ZM152,220H127.8c7.1-5.1,13.7-12.5,19.3-22.1l1-1.9h38.7C177.2,211.5,164.9,220,152,220Zm39.3-32H152.1c7.2-16.1,11.4-35.5,11.8-56h40C203.4,152.8,199,172.3,191.3,188Z"/></svg>