<svg id="Flat" xmlns="http://www.w3.org/2000/svg" viewBox="0 0 256 256">
  <path d="M205.78906,67.42188C185.89844,57.47754,158.27246,52,128,52S70.10156,57.47754,50.21094,67.42188C31.01172,77.02246,20,90.35449,20,104v48c0,13.64551,11.01172,26.97754,30.21094,36.57812a114.40864,114.40864,0,0,0,12.1875,5.19043c.09717.043.20117.06934.30224.1045C80.98535,200.44482,103.63086,204,128,204c24.36865,0,47.01465-3.55518,65.29883-10.12695.10107-.03516.20556-.06153.30273-.1045a114.40864,114.40864,0,0,0,12.1875-5.19043C224.98828,178.97754,236,165.64551,236,152V104C236,90.35449,224.98828,77.02246,205.78906,67.42188ZM128,60c61.76758,0,100,22.83887,100,44s-38.23242,44-100,44S28,125.16113,28,104,66.23242,60,128,60Zm-4,95.95459v39.999c-22.0459-.35791-40.94434-3.64941-56-8.7124v-39.5957C84.23438,152.74658,103.439,155.624,124,155.95459Zm8,0c20.561-.33057,39.76562-3.208,56-8.30908v39.5957c-15.05566,5.063-33.9541,8.35449-56,8.7124ZM28,152V123.916c5.15039,6.19628,12.668,11.89013,22.21094,16.6621,3.07715,1.53858,6.36035,2.95655,9.78906,4.27735V184.2373C39.48584,175.66943,28,163.5874,28,152Zm200,0c0,11.5874-11.48584,23.66943-32,32.2373V144.85547c3.42871-1.3208,6.71191-2.73877,9.78906-4.27735,9.543-4.772,17.06055-10.46582,22.21094-16.6621Z"/>
</svg>
