<svg xmlns="http://www.w3.org/2000/svg" viewBox="0 0 256 256"><path d="M205.8,67.4C185.9,57.5,158.3,52,128,52S70.1,57.5,50.2,67.4,20,90.4,20,104v48c0,13.6,11,27,30.2,36.6a124.2,124.2,0,0,0,12.2,5.2h.3C81,200.4,103.6,204,128,204s47-3.6,65.3-10.1h.3a124.2,124.2,0,0,0,12.2-5.2C225,179,236,165.6,236,152V104C236,90.4,225,77,205.8,67.4ZM128,60c61.8,0,100,22.8,100,44s-38.2,44-100,44S28,125.2,28,104,66.2,60,128,60Zm-4,96v40c-22-.4-40.9-3.7-56-8.8V147.6C84.2,152.7,103.4,155.6,124,156Zm8,0c20.6-.4,39.8-3.3,56-8.4v39.6c-15.1,5.1-34,8.4-56,8.8ZM28,152V123.9c5.2,6.2,12.7,11.9,22.2,16.7,3.1,1.5,6.4,2.9,9.8,4.3v39.3C39.5,175.7,28,163.6,28,152Zm200,0c0,11.6-11.5,23.7-32,32.2V144.9c3.4-1.4,6.7-2.8,9.8-4.3,9.5-4.8,17-10.5,22.2-16.7Z"/></svg>