<svg xmlns="http://www.w3.org/2000/svg" viewBox="0 0 256 256"><path d="M180,93.1V84c0-22.4-36.9-40-84-40S12,61.6,12,84v40c0,19.1,26.9,34.7,64,38.9V172c0,22.4,36.9,40,84,40s84-17.6,84-40V132C244,113.1,217.9,97.4,180,93.1ZM236,132c0,15.5-30.5,32-76,32a168.8,168.8,0,0,1-28-2.3v-1.4c28.6-6.3,48-20,48-36.3V101.2C212.2,105,236,117.9,236,132ZM80.3,155.3H80c-4.2-.4-8.2-.9-12-1.6V121.8A176.6,176.6,0,0,0,96,124a176.6,176.6,0,0,0,28-2.2v31.9A161.9,161.9,0,0,1,96,156C90.5,156,85.3,155.8,80.3,155.3Zm91.7-54V124c0,10.9-15.2,22.3-40,28.1V120.3C149.6,116.4,163.8,109.7,172,101.3ZM96,52c45.5,0,76,16.5,76,32s-30.5,32-76,32S20,99.5,20,84,50.5,52,96,52ZM20,124V101.3c8.2,8.4,22.4,15.1,40,19v31.8C35.2,146.3,20,134.9,20,124Zm64,48v-8.4c3.9.3,7.9.4,12,.4s8.1-.1,12-.4a115.9,115.9,0,0,0,16,4.6v31.9C99.2,194.3,84,182.9,84,172Zm48,29.7V169.8a181.5,181.5,0,0,0,28,2.2,176.6,176.6,0,0,0,28-2.2v31.9a171.6,171.6,0,0,1-56,0ZM236,172c0,10.9-15.2,22.3-40,28.1V168.3c17.6-3.9,31.8-10.6,40-19Z"/></svg>