<svg id="Flat" xmlns="http://www.w3.org/2000/svg" viewBox="0 0 256 256">
  <path d="M104,36H56A12.01343,12.01343,0,0,0,44,48V208a12.01343,12.01343,0,0,0,12,12h48a12.01343,12.01343,0,0,0,12-12V48A12.01343,12.01343,0,0,0,104,36Zm4,172a4.00427,4.00427,0,0,1-4,4H56a4.00427,4.00427,0,0,1-4-4V48a4.00427,4.00427,0,0,1,4-4h48a4.00427,4.00427,0,0,1,4,4ZM200,36H152a12.01343,12.01343,0,0,0-12,12V208a12.01343,12.01343,0,0,0,12,12h48a12.01343,12.01343,0,0,0,12-12V48A12.01343,12.01343,0,0,0,200,36Zm4,172a4.00427,4.00427,0,0,1-4,4H152a4.00427,4.00427,0,0,1-4-4V48a4.00427,4.00427,0,0,1,4-4h48a4.00427,4.00427,0,0,1,4,4Z"/>
</svg>
