<svg id="Flat" xmlns="http://www.w3.org/2000/svg" viewBox="0 0 256 256">
  <path d="M104,36H64A12.01343,12.01343,0,0,0,52,48V208a12.01343,12.01343,0,0,0,12,12h40a12.01343,12.01343,0,0,0,12-12V48A12.01343,12.01343,0,0,0,104,36Zm4,172a4.00427,4.00427,0,0,1-4,4H64a4.00427,4.00427,0,0,1-4-4V48a4.00427,4.00427,0,0,1,4-4h40a4.00427,4.00427,0,0,1,4,4ZM192,36H152a12.01343,12.01343,0,0,0-12,12V208a12.01343,12.01343,0,0,0,12,12h40a12.01343,12.01343,0,0,0,12-12V48A12.01343,12.01343,0,0,0,192,36Zm4,172a4.00427,4.00427,0,0,1-4,4H152a4.00427,4.00427,0,0,1-4-4V48a4.00427,4.00427,0,0,1,4-4h40a4.00427,4.00427,0,0,1,4,4Z"/>
</svg>
