<svg id="Flat" xmlns="http://www.w3.org/2000/svg" viewBox="0 0 256 256">
  <path d="M127.99975,28a100,100,0,1,0,100,100A100.113,100.113,0,0,0,127.99975,28Zm0,192a92,92,0,1,1,92-92A92.10447,92.10447,0,0,1,127.99975,220ZM174.16089,76.3916l-64.86426,31.0293a4.00785,4.00785,0,0,0-1.915,1.95312L79.09741,171.59961a4.00029,4.00029,0,0,0,5.29687,5.29687l62.22559-28.28466a3.9941,3.9941,0,0,0,1.95605-1.92237l30.92286-64.9707a4,4,0,0,0-5.33789-5.32715Zm-32.18067,65.54151L90.79467,165.19922l23.26758-51.18945L167.4187,88.48535Z"/>
</svg>
