<svg id="Flat" xmlns="http://www.w3.org/2000/svg" viewBox="0 0 256 256">
  <path d="M164,72a4.0002,4.0002,0,0,1-4,4H96a4,4,0,0,1,0-8h64A4.0002,4.0002,0,0,1,164,72Zm-4,28H96a4,4,0,0,0,0,8h64a4,4,0,0,0,0-8Zm-32,72a8,8,0,1,0,8,8A8.00917,8.00917,0,0,0,128,172ZM204,40V216a12.01343,12.01343,0,0,1-12,12H64a12.01343,12.01343,0,0,1-12-12V40A12.01343,12.01343,0,0,1,64,28H192A12.01343,12.01343,0,0,1,204,40Zm-8,0a4.00427,4.00427,0,0,0-4-4H64a4.00427,4.00427,0,0,0-4,4V216a4.00427,4.00427,0,0,0,4,4H192a4.00427,4.00427,0,0,0,4-4Z"/>
</svg>
