<svg xmlns="http://www.w3.org/2000/svg" viewBox="0 0 256 256"><path d="M107.7,54.1a11.8,11.8,0,0,0-11.1-3.3,12.3,12.3,0,0,0-8.7,7.6L34.1,206.5a12,12,0,0,0,2.8,12.6,11.8,11.8,0,0,0,8.4,3.5,12.3,12.3,0,0,0,4.2-.7l148.1-53.8a12.3,12.3,0,0,0,7.6-8.7,11.7,11.7,0,0,0-3.3-11.1Zm-4.3,139.7L62.2,152.6l16.2-44.5,69.5,69.5ZM46.7,214.4a4,4,0,0,1-5.1-5.1l17.6-48.4,35.9,35.9Zm150.7-56.8a3.8,3.8,0,0,1-2.6,2.9l-38.6,14.1L81.4,99.8,95.5,61.2a3.8,3.8,0,0,1,2.9-2.6,4,4,0,0,1,3.7,1.1l94.2,94.2A4,4,0,0,1,197.4,157.6ZM220,24c0,9.7-5.9,28-28,28-8.3,0-14.2,3.3-17.4,9.8A26.3,26.3,0,0,0,172,72a4,4,0,0,1-8,0,33.5,33.5,0,0,1,3.4-13.8C170.7,51.7,177.6,44,192,44c19.3,0,20-18,20-20a4,4,0,0,1,4-4h0A4,4,0,0,1,220,24ZM140,40V16a4,4,0,0,1,8,0V40a4,4,0,0,1-8,0Zm94.8,85.2a3.9,3.9,0,0,1,0,5.6,3.9,3.9,0,0,1-5.6,0l-16-16a4,4,0,0,1,5.6-5.6Zm6.5-49.4-24,8L216,84a4.1,4.1,0,0,1-3.8-2.7,4,4,0,0,1,2.5-5.1l24-8a4,4,0,1,1,2.6,7.6Z"/></svg>