<svg id="Flat" xmlns="http://www.w3.org/2000/svg" viewBox="0 0 256 256">
  <path d="M92,48V16a4,4,0,0,1,8,0V48a4,4,0,0,1-8,0Zm36,4a4.0002,4.0002,0,0,0,4-4V16a4,4,0,0,0-8,0V48A4.0002,4.0002,0,0,0,128,52Zm32,0a4.0002,4.0002,0,0,0,4-4V16a4,4,0,0,0-8,0V48A4.0002,4.0002,0,0,0,160,52Zm90.3999,47.2002L220,122v62a28.03146,28.03146,0,0,1-28,28H64a28.03146,28.03146,0,0,1-28-28V122L5.6001,99.2002a4.0001,4.0001,0,1,1,4.7998-6.4004L36,112V88A12.01375,12.01375,0,0,1,48,76H208a12.01375,12.01375,0,0,1,12,12v24l25.6001-19.2002a4.0001,4.0001,0,1,1,4.7998,6.4004ZM212,88a4.00458,4.00458,0,0,0-4-4H48a4.00458,4.00458,0,0,0-4,4v96a20.02229,20.02229,0,0,0,20,20H192a20.02229,20.02229,0,0,0,20-20Z"/>
</svg>
