<svg xmlns="http://www.w3.org/2000/svg" viewBox="0 0 256 256"><path d="M223.5,118a12.3,12.3,0,0,0-10.1-2.3,28,28,0,0,1-34.2-27,12,12,0,0,0-11.9-11.9,28,28,0,0,1-27-34.2A12,12,0,0,0,128.6,28H128a100,100,0,1,0,100,99.4A12.2,12.2,0,0,0,223.5,118ZM193,193.1c-35.4,35.3-93.3,35.7-129.1.9A92,92,0,0,1,128,36h.6a4.2,4.2,0,0,1,3.1,1.5,4.1,4.1,0,0,1,.8,3.4,36.1,36.1,0,0,0,9.6,33.4,35.8,35.8,0,0,0,25.1,10.5,4,4,0,0,1,4,4,35.8,35.8,0,0,0,10.5,25.1,36.1,36.1,0,0,0,33.4,9.6,4.1,4.1,0,0,1,3.4.8,4.2,4.2,0,0,1,1.5,3.1A91.3,91.3,0,0,1,193,193.1Zm-31.3-26.8a8.1,8.1,0,1,1-11.4,0A8.1,8.1,0,0,1,161.7,166.3Zm-64-8a8.1,8.1,0,1,1-11.4,0A8.1,8.1,0,0,1,97.7,158.3Zm-8-44.6a8.1,8.1,0,1,1,0-11.4A8.1,8.1,0,0,1,89.7,113.7Zm52,4.6a8.1,8.1,0,1,1-11.4,0A8.1,8.1,0,0,1,141.7,118.3Z"/></svg>