<svg xmlns="http://www.w3.org/2000/svg" viewBox="0 0 256 256"><path d="M92,48V16a4,4,0,0,1,8,0V48a4,4,0,0,1-8,0Zm36,4a4,4,0,0,0,4-4V16a4,4,0,0,0-8,0V48A4,4,0,0,0,128,52Zm32,0a4,4,0,0,0,4-4V16a4,4,0,0,0-8,0V48A4,4,0,0,0,160,52Zm90.4,47.2L220,122v62a28.1,28.1,0,0,1-28,28H64a28.1,28.1,0,0,1-28-28V122L5.6,99.2a4,4,0,0,1,4.8-6.4L36,112V88A12,12,0,0,1,48,76H208a12,12,0,0,1,12,12v24l25.6-19.2a4,4,0,1,1,4.8,6.4ZM212,88a4,4,0,0,0-4-4H48a4,4,0,0,0-4,4v96a20.1,20.1,0,0,0,20,20H192a20.1,20.1,0,0,0,20-20Z"/></svg>