<svg xmlns="http://www.w3.org/2000/svg" viewBox="0 0 256 256"><path d="M156,96H100a4,4,0,0,0-4,4v56a4,4,0,0,0,4,4h56a4,4,0,0,0,4-4V100A4,4,0,0,0,156,96Zm-4,56H104V104h48Zm80-4H212V108h20a4,4,0,0,0,0-8H212V56a12,12,0,0,0-12-12H156V24a4,4,0,0,0-8,0V44H108V24a4,4,0,0,0-8,0V44H56A12,12,0,0,0,44,56v44H24a4,4,0,0,0,0,8H44v40H24a4,4,0,0,0,0,8H44v44a12,12,0,0,0,12,12h44v20a4,4,0,0,0,8,0V212h40v20a4,4,0,0,0,8,0V212h44a12,12,0,0,0,12-12V156h20a4,4,0,0,0,0-8Zm-28,52a4,4,0,0,1-4,4H56a4,4,0,0,1-4-4V56a4,4,0,0,1,4-4H200a4,4,0,0,1,4,4Z"/></svg>