<svg xmlns="http://www.w3.org/2000/svg" viewBox="0 0 256 256"><path d="M236,124H219.9A92,92,0,0,0,132,36.1V20a4,4,0,0,0-8,0V36.1A92,92,0,0,0,36.1,124H20a4,4,0,0,0,0,8H36.1A92,92,0,0,0,124,219.9V236a4,4,0,0,0,8,0V219.9A92,92,0,0,0,219.9,132H236a4,4,0,0,0,0-8ZM132,211.9V196a4,4,0,0,0-8,0v15.9A84.1,84.1,0,0,1,44.1,132H60a4,4,0,0,0,0-8H44.1A84.1,84.1,0,0,1,124,44.1V60a4,4,0,0,0,8,0V44.1A84.1,84.1,0,0,1,211.9,124H196a4,4,0,0,0,0,8h15.9A84.1,84.1,0,0,1,132,211.9ZM128,92a36,36,0,1,0,36,36A36,36,0,0,0,128,92Zm0,64a28,28,0,1,1,28-28A28.1,28.1,0,0,1,128,156Z"/></svg>