<svg id="Flat" xmlns="http://www.w3.org/2000/svg" viewBox="0 0 256 256">
  <path d="M236,124H219.90771A92.11679,92.11679,0,0,0,132,36.09229V20a4,4,0,0,0-8,0V36.09229A92.11679,92.11679,0,0,0,36.09229,124H20a4,4,0,0,0,0,8H36.09229A92.11679,92.11679,0,0,0,124,219.90771V236a4,4,0,0,0,8,0V219.90771A92.11679,92.11679,0,0,0,219.90771,132H236a4,4,0,0,0,0-8ZM132,211.89844V196a4,4,0,0,0-8,0v15.89844A84.10665,84.10665,0,0,1,44.10156,132H60a4,4,0,0,0,0-8H44.10156A84.10665,84.10665,0,0,1,124,44.10156V60a4,4,0,0,0,8,0V44.10156A84.10666,84.10666,0,0,1,211.89844,124H196a4,4,0,0,0,0,8h15.89844A84.10666,84.10666,0,0,1,132,211.89844ZM128,92a36,36,0,1,0,36,36A36.04061,36.04061,0,0,0,128,92Zm0,64a28,28,0,1,1,28-28A28.03146,28.03146,0,0,1,128,156Z"/>
</svg>
