<svg xmlns="http://www.w3.org/2000/svg" viewBox="0 0 256 256"><path d="M236.2,76.6a12,12,0,0,0-12.6-1.7L173.1,97.4a4.2,4.2,0,0,1-5.2-1.7L138.5,42.6a12.1,12.1,0,0,0-21,0L88.1,95.7a4.2,4.2,0,0,1-5.2,1.7L32.3,74.9A11.9,11.9,0,0,0,15.8,88.6L41.2,196.9a12.4,12.4,0,0,0,5.6,7.6,12.2,12.2,0,0,0,6.1,1.7,12.6,12.6,0,0,0,3.3-.5,270.6,270.6,0,0,1,143.6,0,11.9,11.9,0,0,0,14.9-8.8L240.2,88.6A11.9,11.9,0,0,0,236.2,76.6Zm-3.8,10.2L206.9,195.1a3.8,3.8,0,0,1-1.8,2.5,4,4,0,0,1-3.2.4A278.4,278.4,0,0,0,54,198a4.1,4.1,0,0,1-5-2.9h0L23.6,86.8a3.8,3.8,0,0,1,1.3-4,4.2,4.2,0,0,1,2.6-1,4.7,4.7,0,0,1,1.6.4l50.6,22.5a12,12,0,0,0,15.4-5.2l29.4-53a4.1,4.1,0,0,1,7,0l29.4,53a12,12,0,0,0,15.4,5.2l50.6-22.5a4,4,0,0,1,4.2.6A3.8,3.8,0,0,1,232.4,86.8ZM164,162.1a4,4,0,0,1-4,3.6h-.4a303.4,303.4,0,0,0-63.2,0,4.1,4.1,0,0,1-4.4-3.6,4,4,0,0,1,3.6-4.4,305.1,305.1,0,0,1,64.8,0A4,4,0,0,1,164,162.1Z"/></svg>