<svg id="Flat" xmlns="http://www.w3.org/2000/svg" viewBox="0 0 256 256">
  <path d="M236.17578,76.61523a11.93256,11.93256,0,0,0-12.5293-1.72461l-50.582,22.48145a3.97875,3.97875,0,0,1-5.12207-1.71191L138.49023,42.64551a12.001,12.001,0,0,0-20.98046,0L88.05859,95.65918a3.97753,3.97753,0,0,1-5.12207,1.71289L32.34473,74.88672A12.001,12.001,0,0,0,15.78906,88.59766l25.44532,108.333a12.02021,12.02021,0,0,0,11.67089,9.252,12.22484,12.22484,0,0,0,3.26661-.44922,269.899,269.899,0,0,1,143.60742-.01367,12.01259,12.01259,0,0,0,14.93359-8.79785L240.20215,88.60449A11.9286,11.9286,0,0,0,236.17578,76.61523ZM232.415,86.77246,206.92578,195.08984a3.93649,3.93649,0,0,1-1.8418,2.50684,4.038,4.038,0,0,1-3.167.41406,277.903,277.903,0,0,0-147.88476.01367,4.036,4.036,0,0,1-3.168-.41308,3.938,3.938,0,0,1-1.84082-2.50879l-.001-.001L23.57812,86.76855a4.01929,4.01929,0,0,1,3.87208-4.92773,4.05068,4.05068,0,0,1,1.6455.35645l50.5918,22.48535a11.94492,11.94492,0,0,0,15.36426-5.1377l29.45215-53.01465a3.99983,3.99983,0,0,1,6.99218,0L160.94922,99.5459a11.94,11.94,0,0,0,15.36426,5.13672l50.583-22.48145a4.00072,4.00072,0,0,1,5.51856,4.57129Zm-68.43652,75.3252a4.00067,4.00067,0,0,1-3.97364,3.58105,4.1475,4.1475,0,0,1-.42383-.02148,302.09607,302.09607,0,0,0-63.1621,0,4.00051,4.00051,0,1,1-.8379-7.957,310.37093,310.37093,0,0,1,64.8379,0A4.00189,4.00189,0,0,1,163.97852,162.09766Z"/>
</svg>
