<svg xmlns="http://www.w3.org/2000/svg" viewBox="0 0 256 256"><path d="M226.4,72.7h0a12.7,12.7,0,0,0-4.5-4.4l-88-49.5a12.4,12.4,0,0,0-11.8,0l-88,49.5a12.7,12.7,0,0,0-4.5,4.4h0A11.8,11.8,0,0,0,28,78.7v98.6a11.9,11.9,0,0,0,6.1,10.5l88,49.5a12.3,12.3,0,0,0,5.6,1.5h.6a13.7,13.7,0,0,0,5.6-1.5l88-49.5a11.9,11.9,0,0,0,6.1-10.5V78.7A12.5,12.5,0,0,0,226.4,72.7ZM126,25.7a4.3,4.3,0,0,1,4,0L215.9,74l-87,49.4L40.2,74ZM38,180.8a4,4,0,0,1-2-3.5V80.8l88.9,49.5-.8,98.9Zm180,0-85.9,48.3.8-98.8L220,80.9v96.4A4,4,0,0,1,218,180.8Z"/></svg>