<svg id="Flat" xmlns="http://www.w3.org/2000/svg" viewBox="0 0 256 256">
  <path d="M222.41553,74.72852c-.01563-.02857-.02295-.05909-.03907-.08741-.00683-.0122-.01708-.02148-.02392-.03369a11.99517,11.99517,0,0,0-4.44775-4.38647l-84-47.47827a12.06332,12.06332,0,0,0-11.80958,0l-84,47.47827a11.99616,11.99616,0,0,0-4.46582,4.41723c-.00537.00977-.01318.01709-.01855.02686-.01465.02637-.021.05469-.03516.0813A11.9833,11.9833,0,0,0,32,80.66772v94.6648a12.01931,12.01931,0,0,0,6.09521,10.44678l84,47.47754a11.97346,11.97346,0,0,0,5.61622,1.52612c.08349.0061.16259.02661.24755.02759h.042c.08593,0,.167-.02.25195-.02539a11.98116,11.98116,0,0,0,5.65186-1.52784l84-47.47851A12.01794,12.01794,0,0,0,224,175.33252V80.66772A11.98721,11.98721,0,0,0,222.41553,74.72852ZM126.03174,29.707a4.02109,4.02109,0,0,1,3.93652,0l81.93848,46.31323-82.86768,47.385L44.16455,75.98ZM42.03223,178.81494A4.0058,4.0058,0,0,1,40,175.33252V82.81738l85.03711,47.51612-.979,94.84326Zm171.936-.00049-81.90918,46.29663.97852-94.77685L216,82.895v92.4375A4.005,4.005,0,0,1,213.96826,178.81445Z"/>
</svg>
