<svg id="Flat" xmlns="http://www.w3.org/2000/svg" viewBox="0 0 256 256">
  <path d="M240,132H211.94287l23.76318-58.49414a4.0003,4.0003,0,0,0-7.4121-3.01172L203.30713,132H156.69287L131.70605,70.49414a4.00049,4.00049,0,0,0-7.4121,0L99.30713,132H52.69287L27.70605,70.49414a4.0003,4.0003,0,1,0-7.4121,3.01172L44.05713,132H16a4,4,0,0,0,0,8H47.30713L72.294,201.50586a4.00049,4.00049,0,0,0,7.4121,0L104.69287,140h46.61426L176.294,201.50586a4.00049,4.00049,0,0,0,7.4121,0L208.69287,140H240a4,4,0,0,0,0-8ZM76,189.37207,55.94287,140H96.05713ZM107.94287,132,128,82.62793,148.05713,132ZM180,189.37207,159.94287,140h40.11426Z"/>
</svg>
