<svg id="Flat" xmlns="http://www.w3.org/2000/svg" viewBox="0 0 256 256">
  <path d="M240,148H205.44287l9.75-24H240a4,4,0,0,0,0-8H218.44287l17.26318-42.49414a4.0003,4.0003,0,0,0-7.4121-3.01172L209.80713,116H150.19287L131.70605,70.49414a4.00049,4.00049,0,0,0-7.4121,0L105.80713,116H46.19287L27.70605,70.49414a4.0003,4.0003,0,1,0-7.4121,3.01172L37.55713,116H16a4,4,0,0,0,0,8H40.80713l9.75,24H16a4,4,0,0,0,0,8H53.80713L72.294,201.50586a4.00049,4.00049,0,0,0,7.4121,0L98.19287,156h59.61426L176.294,201.50586a4.00049,4.00049,0,0,0,7.4121,0L202.19287,156H240a4,4,0,0,0,0-8Zm-33.44287-24-9.75,24H163.19287l-9.75-24ZM128,82.62793,141.55762,116H114.44238ZM49.44287,124h53.11426l-9.75,24H59.19287ZM76,189.37207,62.44238,156H89.55762ZM101.44287,148l9.75-24h33.61426l9.75,24ZM180,189.37207,166.44238,156h27.11524Z"/>
</svg>
