<svg xmlns="http://www.w3.org/2000/svg" viewBox="0 0 256 256"><path d="M20,96v72a12,12,0,0,0,12,12h80a4,4,0,0,1,0,8H92v24h20a4,4,0,0,1,0,8H64a4,4,0,0,1,0-8H84V188H32a20.1,20.1,0,0,1-20-20V96A20.1,20.1,0,0,1,32,76h80a4,4,0,0,1,0,8H32A12,12,0,0,0,20,96ZM208,68H176a4,4,0,0,0,0,8h32a4,4,0,0,0,0-8Zm0,32H176a4,4,0,0,0,0,8h32a4,4,0,0,0,0-8Zm36-52V208a12,12,0,0,1-12,12H152a12,12,0,0,1-12-12V48a12,12,0,0,1,12-12h80A12,12,0,0,1,244,48Zm-8,0a4,4,0,0,0-4-4H152a4,4,0,0,0-4,4V208a4,4,0,0,0,4,4h80a4,4,0,0,0,4-4ZM192,172a8,8,0,1,0,8,8A8,8,0,0,0,192,172Z"/></svg>