<svg id="Flat" xmlns="http://www.w3.org/2000/svg" viewBox="0 0 256 256">
  <path d="M233.17188,119.51465,136.48535,22.82812a12.01348,12.01348,0,0,0-16.9707,0l-96.686,96.68653a11.99976,11.99976,0,0,0-.00049,16.9707l96.68653,96.68652a12.01451,12.01451,0,0,0,16.9707,0l96.686-96.68652a11.99976,11.99976,0,0,0,.00049-16.9707Zm-5.65723,11.31347-96.686,96.68653a4.005,4.005,0,0,1-5.65722,0h.00049L28.48535,130.82812a3.99855,3.99855,0,0,1,0-5.65625l96.686-96.68652a4.00443,4.00443,0,0,1,5.65673,0l96.68653,96.68652a3.99855,3.99855,0,0,1,0,5.65625Z"/>
</svg>
