<svg xmlns="http://www.w3.org/2000/svg" viewBox="0 0 256 256"><path d="M119.5,101.2a12.1,12.1,0,0,0,17,0l28.7-28.7a12.2,12.2,0,0,0,0-17L136.5,26.8a12.1,12.1,0,0,0-17,0L90.8,55.5a12.2,12.2,0,0,0,0,17Zm-23-40,28.7-28.7a3.9,3.9,0,0,1,5.6,0l28.7,28.7a3.9,3.9,0,0,1,0,5.6L130.8,95.5a4,4,0,0,1-5.6,0h0L96.5,66.8A3.9,3.9,0,0,1,96.5,61.2Zm132.7,58.3L200.5,90.8a12.1,12.1,0,0,0-17,0l-28.7,28.7a12.2,12.2,0,0,0,0,17l28.7,28.7a12.1,12.1,0,0,0,17,0l28.7-28.7A12.2,12.2,0,0,0,229.2,119.5Zm-5.7,11.3-28.7,28.7a4,4,0,0,1-5.6,0h0l-28.7-28.7a3.9,3.9,0,0,1,0-5.6l28.7-28.7a3.9,3.9,0,0,1,5.6,0l28.7,28.7A3.9,3.9,0,0,1,223.5,130.8ZM101.2,119.5,72.5,90.8a12.1,12.1,0,0,0-17,0L26.8,119.5a12.2,12.2,0,0,0,0,17l28.7,28.7a12.1,12.1,0,0,0,17,0l28.7-28.7A12.2,12.2,0,0,0,101.2,119.5Zm-5.7,11.3L66.8,159.5a4,4,0,0,1-5.6,0h0L32.5,130.8a3.9,3.9,0,0,1,0-5.6L61.2,96.5a3.9,3.9,0,0,1,5.6,0l28.7,28.7A3.9,3.9,0,0,1,95.5,130.8Zm41,24a12.1,12.1,0,0,0-17,0L90.8,183.5a12.2,12.2,0,0,0,0,17l28.7,28.7a12.1,12.1,0,0,0,17,0l28.7-28.7a12.2,12.2,0,0,0,0-17Zm23,40-28.7,28.7a4,4,0,0,1-5.6,0h0L96.5,194.8a3.9,3.9,0,0,1,0-5.6l28.7-28.7a3.9,3.9,0,0,1,5.6,0l28.7,28.7A3.9,3.9,0,0,1,159.5,194.8Z"/></svg>