<svg id="Flat" xmlns="http://www.w3.org/2000/svg" viewBox="0 0 256 256">
  <path d="M192,36H64A28.03146,28.03146,0,0,0,36,64V192a28.03146,28.03146,0,0,0,28,28H192a28.03146,28.03146,0,0,0,28-28V64A28.03146,28.03146,0,0,0,192,36Zm20,156a20.02229,20.02229,0,0,1-20,20H64a20.02229,20.02229,0,0,1-20-20V64A20.02229,20.02229,0,0,1,64,44H192a20.02229,20.02229,0,0,1,20,20ZM98,128a6,6,0,1,1-6-6A6.00014,6.00014,0,0,1,98,128Zm72-44a6,6,0,1,1-6-6A6.00014,6.00014,0,0,1,170,84Zm0,88a6,6,0,1,1-6-6A6.00014,6.00014,0,0,1,170,172Zm0-44a6,6,0,1,1-6-6A6.00014,6.00014,0,0,1,170,128ZM98,84a6,6,0,1,1-6-6A6.00014,6.00014,0,0,1,98,84Zm0,88a6,6,0,1,1-6-6A6.00014,6.00014,0,0,1,98,172Z"/>
</svg>
