<svg id="Flat" xmlns="http://www.w3.org/2000/svg" viewBox="0 0 256 256">
  <path d="M192,36H64A28.03146,28.03146,0,0,0,36,64V192a28.03146,28.03146,0,0,0,28,28H192a28.03146,28.03146,0,0,0,28-28V64A28.03146,28.03146,0,0,0,192,36Zm20,156a20.02229,20.02229,0,0,1-20,20H64a20.02229,20.02229,0,0,1-20-20V64A20.02229,20.02229,0,0,1,64,44H192a20.02229,20.02229,0,0,1,20,20ZM100,84a8,8,0,1,1-8-8A8.00917,8.00917,0,0,1,100,84Zm0,44a8,8,0,1,1-8-8A8.00917,8.00917,0,0,1,100,128Zm0,44a8,8,0,1,1-8-8A8.00917,8.00917,0,0,1,100,172Zm72-88a8,8,0,1,1-8-8A8.00917,8.00917,0,0,1,172,84Zm0,44a8,8,0,1,1-8-8A8.00917,8.00917,0,0,1,172,128Zm0,44a8,8,0,1,1-8-8A8.00917,8.00917,0,0,1,172,172Z"/>
</svg>
