<svg id="Flat" xmlns="http://www.w3.org/2000/svg" viewBox="0 0 256 256">
  <path d="M100,140a8,8,0,1,1-8-8A8.00009,8.00009,0,0,1,100,140Zm64,8a8,8,0,1,0-8-8A8.00009,8.00009,0,0,0,164,148Zm67.0752-7.68408a12.19645,12.19645,0,0,1-5.043,1.10742,11.83693,11.83693,0,0,1-9.34766-4.62305L212,130.83813V184a36.04061,36.04061,0,0,1-36,36H80a36.04061,36.04061,0,0,1-36-36V130.83813l-4.68457,5.96216a11.83839,11.83839,0,0,1-9.34766,4.62305,12.19645,12.19645,0,0,1-5.043-1.10742A11.82706,11.82706,0,0,1,18.085,127.17529l16.418-87.5664A12.00119,12.00119,0,0,1,49.209,30.1792L104.49121,44h47.01758L206.792,30.1792a12.001,12.001,0,0,1,14.70508,9.4292l16.418,87.5664A11.82738,11.82738,0,0,1,231.0752,140.31592ZM97.04,50.3833,47.26855,37.93994a4.04357,4.04357,0,0,0-.98144-.12158,4.005,4.005,0,0,0-3.9209,3.26562l-16.418,87.56543a3.99987,3.99987,0,0,0,7.07617,3.2085ZM204,120.65625,150.05566,52H105.94434L52,120.65625V184a28.03146,28.03146,0,0,0,28,28h44V193.65674l-14.82812-14.82813a3.99991,3.99991,0,0,1,5.65624-5.65722L128,186.34326l13.17188-13.17187a3.99991,3.99991,0,0,1,5.65624,5.65722L132,193.65674V212h44a28.03146,28.03146,0,0,0,28-28Zm26.05176,7.99268-16.418-87.56543a3.99966,3.99966,0,0,0-4.90137-3.14356L158.96,50.3833l64.01563,81.47461a3.99993,3.99993,0,0,0,7.07617-3.209Z"/>
</svg>
