<svg xmlns="http://www.w3.org/2000/svg" viewBox="0 0 256 256"><path d="M100,140a8,8,0,1,1-8-8A8,8,0,0,1,100,140Zm64,8a8,8,0,1,0-8-8A8,8,0,0,0,164,148Zm67.1-7.7a11.9,11.9,0,0,1-14.4-3.5l-4.7-6V184a36,36,0,0,1-36,36H80a36,36,0,0,1-36-36V130.8l-4.7,6a11.9,11.9,0,0,1-14.4,3.5,11.7,11.7,0,0,1-6.8-13.1L34.5,39.6a11.9,11.9,0,0,1,14.7-9.4L104.5,44h47l55.3-13.8a11.9,11.9,0,0,1,14.7,9.4l16.4,87.6A11.7,11.7,0,0,1,231.1,140.3ZM97,50.4,47.3,37.9h-1a3.6,3.6,0,0,0-2.2.7,3.9,3.9,0,0,0-1.7,2.6L25.9,128.6a4,4,0,0,0,7.1,3.3Zm107,70.3L150.1,52H105.9L52,120.7V184a28.1,28.1,0,0,0,28,28h44V193.7l-14.8-14.9a4,4,0,0,1,5.6-5.6L128,186.3l13.2-13.1a4,4,0,0,1,5.6,5.6L132,193.7V212h44a28.1,28.1,0,0,0,28-28Zm26.1,7.9L213.6,41.1a3.9,3.9,0,0,0-1.7-2.6,4.5,4.5,0,0,0-3.2-.6L159,50.4l64,81.5a4,4,0,0,0,7.1-3.3Z"/></svg>