<svg id="Flat" xmlns="http://www.w3.org/2000/svg" viewBox="0 0 256 256">
  <path d="M66,60a6,6,0,1,1-6-6A6.00014,6.00014,0,0,1,66,60Zm62-6a6,6,0,1,0,6,6A6.00014,6.00014,0,0,0,128,54Zm68,12a6,6,0,1,0-6-6A6.00014,6.00014,0,0,0,196,66ZM60,122a6,6,0,1,0,6,6A6.00014,6.00014,0,0,0,60,122Zm68,0a6,6,0,1,0,6,6A6.00014,6.00014,0,0,0,128,122Zm68,0a6,6,0,1,0,6,6A6.00014,6.00014,0,0,0,196,122ZM60,190a6,6,0,1,0,6,6A6.00014,6.00014,0,0,0,60,190Zm68,0a6,6,0,1,0,6,6A6.00014,6.00014,0,0,0,128,190Zm68,0a6,6,0,1,0,6,6A6.00014,6.00014,0,0,0,196,190Z"/>
</svg>
