<svg id="Flat" xmlns="http://www.w3.org/2000/svg" viewBox="0 0 256 256">
  <path d="M236,136v64a12.01343,12.01343,0,0,1-12,12H32a12.01343,12.01343,0,0,1-12-12V136a12.01343,12.01343,0,0,1,12-12H80a4,4,0,0,1,0,8H32a4.00427,4.00427,0,0,0-4,4v64a4.00427,4.00427,0,0,0,4,4H224a4.00427,4.00427,0,0,0,4-4V136a4.00427,4.00427,0,0,0-4-4H176a4,4,0,0,1,0-8h48A12.01343,12.01343,0,0,1,236,136Zm-110.8291-5.17285a4.00484,4.00484,0,0,0,.61084.49951c.09765.06543.20361.10986.30517.16553a3.87372,3.87372,0,0,0,.3833.20166,3.95744,3.95744,0,0,0,.40674.12646c.11328.03321.22217.07715.33985.10059a3.91693,3.91693,0,0,0,1.5664,0c.11768-.02344.22657-.06738.33985-.10059a3.95744,3.95744,0,0,0,.40674-.12646,3.87372,3.87372,0,0,0,.3833-.20166c.10156-.05567.20752-.1001.30517-.16553a4.00484,4.00484,0,0,0,.61084-.49951l47.99951-47.999a3.99992,3.99992,0,0,0-5.65722-5.65625L132,118.34277V24a4,4,0,0,0-8,0v94.34277L82.82861,77.17188a3.99992,3.99992,0,0,0-5.65722,5.65625ZM196,168a8,8,0,1,0-8,8A8.00917,8.00917,0,0,0,196,168Z"/>
</svg>
