<svg id="Flat" xmlns="http://www.w3.org/2000/svg" viewBox="0 0 256 256">
  <path d="M83.17188,112.83984a4.00026,4.00026,0,0,1,5.65624-5.6582L124,142.34473V40a4,4,0,0,1,8,0V142.34473l35.17188-35.16309a4.00026,4.00026,0,0,1,5.65624,5.6582l-42,41.98926a4.00088,4.00088,0,0,1-5.65624,0ZM216,148a4.0002,4.0002,0,0,0-4,4v56a4.00427,4.00427,0,0,1-4,4H48a4.00427,4.00427,0,0,1-4-4V152a4,4,0,0,0-8,0v56a12.01343,12.01343,0,0,0,12,12H208a12.01343,12.01343,0,0,0,12-12V152A4.0002,4.0002,0,0,0,216,148Z"/>
</svg>
