<svg id="Flat" xmlns="http://www.w3.org/2000/svg" viewBox="0 0 256 256">
  <path d="M228.01172,127.999a99.85058,99.85058,0,0,0-37.1582-77.72558c-.09473-.09424-.17774-.19629-.28321-.28272a3.91344,3.91344,0,0,0-.37793-.24951A99.83226,99.83226,0,0,0,84.50977,37.96777a3.96883,3.96883,0,0,0-.667.332,100.34708,100.34708,0,0,0-53.88818,70.05225c-.00439.02051-.01367.03857-.01758.05908-.0039.02-.00146.03955-.00537.05957a99.96633,99.96633,0,0,0,38.32031,99.66065,3.9834,3.9834,0,0,0,.71338.561c.061.03711.12549.063.1875.09668a99.84735,99.84735,0,0,0,92.061,13.53614,3.98754,3.98754,0,0,0,.62109-.21875A100.16987,100.16987,0,0,0,228.01172,127.999Zm-62.25928,83.898a165.11566,165.11566,0,0,0,3.18213-32.20556,164.44182,164.44182,0,0,0-5.27832-41.26123,156.4667,156.4667,0,0,1,44.36133-6.43311c3.95654,0,7.939.15186,11.88476.44824A92.16506,92.16506,0,0,1,165.75244,211.897Zm54.1836-87.46826c-3.96-.28418-7.95166-.43164-11.91846-.43164a164.47382,164.47382,0,0,0-46.55078,6.73975A162.879,162.879,0,0,0,146.61719,97.044c-.48438-.82862-.99317-1.64063-1.4917-2.46A164.22138,164.22138,0,0,0,188.51172,58.75,91.82448,91.82448,0,0,1,219.936,124.42871ZM182.26611,53.74854a156.202,156.202,0,0,1-41.46,34.084,165.095,165.095,0,0,0-46.2998-45.51611,91.87252,91.87252,0,0,1,87.75976,11.43213ZM85.79,46.27637a157.0088,157.0088,0,0,1,47.90478,45.34326,155.7213,155.7213,0,0,1-69.67724,16.37744,157.675,157.675,0,0,1-25.32764-2.05029A92.37273,92.37273,0,0,1,85.79,46.27637ZM36.01172,127.999a92.355,92.355,0,0,1,1.09668-14.20214,165.69676,165.69676,0,0,0,26.90918,2.20019,163.70845,163.70845,0,0,0,74.05713-17.61328c.54931.89648,1.105,1.78906,1.63623,2.69726a154.90559,154.90559,0,0,1,14.14355,32.11231,162.686,162.686,0,0,0-27.59619,12.60547A165.0728,165.0728,0,0,0,70.02,199.36328,91.85912,91.85912,0,0,1,36.01172,127.999ZM76.45459,204.1582A157.04517,157.04517,0,0,1,130.252,152.731a154.63126,154.63126,0,0,1,25.78076-11.82227,156.461,156.461,0,0,1,4.90186,38.78272,156.78119,156.78119,0,0,1-4.11768,35.68408,91.89733,91.89733,0,0,1-80.3623-11.21729Z"/>
</svg>
