<svg xmlns="http://www.w3.org/2000/svg" viewBox="0 0 256 256"><path d="M228,128a99.8,99.8,0,0,0-37.1-77.7l-.3-.3-.4-.3A99.8,99.8,0,0,0,84.5,38l-.7.3A100.3,100.3,0,0,0,30,108.4h-.1A104,104,0,0,0,28,128a99.5,99.5,0,0,0,40.3,80.1l.7.6h.2a99.6,99.6,0,0,0,92,13.5l.6-.2A100.1,100.1,0,0,0,228,128Zm-62.2,83.9a165.8,165.8,0,0,0,3.1-32.2,168.1,168.1,0,0,0-5.2-41.3A157.2,157.2,0,0,1,208,132c4,0,8,.1,11.9.4A92.4,92.4,0,0,1,165.8,211.9Zm54.1-87.5c-3.9-.3-7.9-.4-11.9-.4a165.5,165.5,0,0,0-46.5,6.7A168.7,168.7,0,0,0,146.6,97l-1.5-2.4a166.9,166.9,0,0,0,43.4-35.8A91.5,91.5,0,0,1,219.9,124.4ZM182.3,53.7a155.3,155.3,0,0,1-41.5,34.1A165.8,165.8,0,0,0,94.5,42.3,91.1,91.1,0,0,1,128,36,92.1,92.1,0,0,1,182.3,53.7ZM85.8,46.3a155.8,155.8,0,0,1,47.9,45.3A155.1,155.1,0,0,1,64,108a152.4,152.4,0,0,1-25.3-2.1A92.3,92.3,0,0,1,85.8,46.3ZM36,128a94.9,94.9,0,0,1,1.1-14.2A161.8,161.8,0,0,0,64,116a164.7,164.7,0,0,0,74.1-17.6l1.6,2.7a156.1,156.1,0,0,1,14.2,32.1,156.2,156.2,0,0,0-27.6,12.6A165,165,0,0,0,70,199.4,92,92,0,0,1,36,128Zm40.5,76.2a156.9,156.9,0,0,1,53.8-51.5A161.4,161.4,0,0,1,156,140.9a152.8,152.8,0,0,1,4.9,38.8,158.3,158.3,0,0,1-4.1,35.7,92,92,0,0,1-80.3-11.2Z"/></svg>