<svg id="Flat" xmlns="http://www.w3.org/2000/svg" viewBox="0 0 256 256">
  <path d="M228,128a99.85058,99.85058,0,0,0-37.1582-77.72559c-.09473-.09424-.17774-.19629-.28321-.28271a3.91354,3.91354,0,0,0-.37793-.24952A99.83228,99.83228,0,0,0,84.49805,37.96872a3.96769,3.96769,0,0,0-.667.332A100.34706,100.34706,0,0,0,29.94287,108.353c-.00439.02051-.01367.03858-.01758.05909-.0039.02-.00146.03955-.00537.05957a99.96631,99.96631,0,0,0,38.32031,99.66064,3.9839,3.9839,0,0,0,.71338.561c.061.03711.12549.063.1875.09668a99.8473,99.8473,0,0,0,92.061,13.53613,3.98614,3.98614,0,0,0,.62109-.21875A100.16987,100.16987,0,0,0,228,128Zm-62.25928,83.898a165.11584,165.11584,0,0,0,3.18213-32.20557,164.44142,164.44142,0,0,0-5.27832-41.26123,156.46706,156.46706,0,0,1,44.36133-6.43311c3.95654,0,7.939.15186,11.88476.44825A92.16508,92.16508,0,0,1,165.74072,211.89792Zm54.1836-87.46827c-3.96-.28418-7.95166-.43164-11.91846-.43164a164.47423,164.47423,0,0,0-46.55078,6.73975,162.87875,162.87875,0,0,0-14.84961-33.69287c-.48438-.82861-.99317-1.64063-1.4917-2.46A164.22142,164.22142,0,0,0,188.5,58.75094,91.82448,91.82448,0,0,1,219.92432,124.42965ZM182.25439,53.74948a156.20183,156.20183,0,0,1-41.46,34.084,165.09514,165.09514,0,0,0-46.2998-45.51611,91.87259,91.87259,0,0,1,87.75976,11.43213ZM85.77832,46.27731a157.00906,157.00906,0,0,1,47.90479,45.34326A155.72137,155.72137,0,0,1,64.00586,107.998a157.6752,157.6752,0,0,1-25.32764-2.05029A92.37279,92.37279,0,0,1,85.77832,46.27731ZM36,128a92.35512,92.35512,0,0,1,1.09668-14.20215A165.69676,165.69676,0,0,0,64.00586,115.998,163.70832,163.70832,0,0,0,138.063,98.38473c.54931.89649,1.105,1.78906,1.63623,2.69727a154.90527,154.90527,0,0,1,14.14355,32.1123,162.68678,162.68678,0,0,0-27.59619,12.60547A165.0729,165.0729,0,0,0,70.0083,199.36422,91.85912,91.85912,0,0,1,36,128Zm40.44287,76.15918a157.04519,157.04519,0,0,1,53.79736-51.42725A154.63253,154.63253,0,0,1,156.021,140.90963a156.46144,156.46144,0,0,1,4.90185,38.78272,156.78112,156.78112,0,0,1-4.11767,35.68408,91.89729,91.89729,0,0,1-80.36231-11.21728Z"/>
</svg>
