<svg id="Flat" xmlns="http://www.w3.org/2000/svg" viewBox="0 0 256 256">
  <path d="M171.01855,58.37549A250.08793,250.08793,0,0,0,130.294,20.72314a4.00112,4.00112,0,0,0-4.5879,0,250.08793,250.08793,0,0,0-40.7246,37.65235C58.17139,89.207,44,121.582,44,152a84,84,0,0,0,168,0C212,121.582,197.82861,89.207,171.01855,58.37549ZM128,228a76.08582,76.08582,0,0,1-76-76c0-35.89648,21.15186-67.79541,38.896-88.23486A254.05123,254.05123,0,0,1,128,28.96484a254.05123,254.05123,0,0,1,37.104,34.8003C182.84814,84.20459,204,116.10352,204,152A76.08582,76.08582,0,0,1,128,228Zm52-76a52.059,52.059,0,0,1-52,52,4,4,0,0,1,0-8,44.04978,44.04978,0,0,0,44-44,4,4,0,0,1,8,0Z"/>
</svg>
