<svg id="Flat" xmlns="http://www.w3.org/2000/svg" viewBox="0 0 256 256">
  <path d="M201.50562,184.59888a3.9655,3.9655,0,0,0,.48657-.87622A83.47773,83.47773,0,0,0,212,144.00171v-.00317c-.00049-30.41773-14.17187-62.792-40.98145-93.62354A250.16761,250.16761,0,0,0,130.294,12.72266c-.011-.00757-.023-.01245-.03394-.02-.0459-.0315-.09668-.05518-.1438-.08472a4.01539,4.01539,0,0,0-.47266-.25659c-.07568-.03418-.15356-.0625-.23193-.092a3.99462,3.99462,0,0,0-.46142-.14331c-.07789-.01905-.15455-.03931-.23438-.05371a3.98461,3.98461,0,0,0-.69678-.07032L128,12l-.019.002a3.98461,3.98461,0,0,0-.69678.07032c-.07983.0144-.15649.03466-.23462.05371a3.99087,3.99087,0,0,0-.46118.14331c-.07813.02954-.156.05761-.23169.092a3.97984,3.97984,0,0,0-.4729.25659c-.04736.02954-.0979.05322-.1438.08472-.011.00757-.023.01245-.03394.02A250.16761,250.16761,0,0,0,84.98145,50.375C58.17139,81.207,44,113.582,44,144a83.95311,83.95311,0,0,0,134.00293,67.44971,3.96749,3.96749,0,0,0,.82861-.61866c.01416-.01416.02344-.03125.03711-.04565A84.59789,84.59789,0,0,0,201.50562,184.59888ZM132,169.65674l37.78247,37.78247A75.50123,75.50123,0,0,1,132,219.89355Zm0-96,71.959,71.959a75.48352,75.48352,0,0,1-6.81591,29.87061L132,110.34326Zm33.104-17.89112c16.04,18.47559,34.86109,46.31739,38.32886,78.0105L132,62.34326V24.07007A256.97829,256.97829,0,0,1,165.104,55.76562ZM52,144c0-35.89648,21.15186-67.7959,38.896-88.23438A256.97829,256.97829,0,0,1,124,24.07007V219.89355A76.09439,76.09439,0,0,1,52,144Zm124.29565,58.63892L132,158.34326V121.65674l61.2522,61.2522A76.57455,76.57455,0,0,1,176.29565,202.63892Z" fill="#231f20"/>
</svg>
