<svg xmlns="http://www.w3.org/2000/svg" viewBox="0 0 256 256"><path d="M171,50.4a255.4,255.4,0,0,0-40.7-37.7,4.3,4.3,0,0,0-4.6,0A255.4,255.4,0,0,0,85,50.4C58.2,81.2,44,113.6,44,144a84,84,0,0,0,168,0C212,113.6,197.8,81.2,171,50.4ZM90.9,55.8A247.5,247.5,0,0,1,128,21a247.5,247.5,0,0,1,37.1,34.8c14.4,16.5,31,40.6,36.8,68.2H54.1C59.9,96.4,76.5,72.3,90.9,55.8ZM204,144a67.8,67.8,0,0,1-1,12H53a67.8,67.8,0,0,1-1-12,94.2,94.2,0,0,1,.8-12H203.2A94.2,94.2,0,0,1,204,144ZM54.7,164H201.3a76.9,76.9,0,0,1-11.4,24H66.1A76.9,76.9,0,0,1,54.7,164ZM128,220a75.8,75.8,0,0,1-55.4-24H183.4A75.8,75.8,0,0,1,128,220Z"/></svg>