<svg xmlns="http://www.w3.org/2000/svg" viewBox="0 0 256 256"><path d="M171,50.4a255.4,255.4,0,0,0-40.7-37.7,4.3,4.3,0,0,0-4.6,0A255.4,255.4,0,0,0,85,50.4C58.2,81.2,44,113.6,44,144a84,84,0,0,0,168,0C212,113.6,197.8,81.2,171,50.4ZM128,220a76.1,76.1,0,0,1-76-76c0-35.9,21.2-67.8,38.9-88.2A247.5,247.5,0,0,1,128,21a247.5,247.5,0,0,1,37.1,34.8C182.8,76.2,204,108.1,204,144A76.1,76.1,0,0,1,128,220Zm51.3-67.3a52,52,0,0,1-42.5,42.5h-.7a4,4,0,0,1-3.9-3.3,3.9,3.9,0,0,1,3.3-4.6,43.9,43.9,0,0,0,35.9-35.9,4,4,0,0,1,4.6-3.3A4,4,0,0,1,179.3,152.7Z"/></svg>