<svg xmlns="http://www.w3.org/2000/svg" viewBox="0 0 256 256"><path d="M171,50.4a255.4,255.4,0,0,0-40.7-37.7,4.3,4.3,0,0,0-4.6,0A255.4,255.4,0,0,0,85,50.4C58.2,81.2,44,113.6,44,144a84,84,0,0,0,168,0C212,113.6,197.8,81.2,171,50.4ZM204,144a67.8,67.8,0,0,1-1,12H132V132h71.2A94.2,94.2,0,0,1,204,144ZM190.1,92H132V68h43A175.4,175.4,0,0,1,190.1,92ZM132,164h69.3a76.9,76.9,0,0,1-11.4,24H132Zm0-40V100h62a120.6,120.6,0,0,1,7.9,24Zm33.1-68.2q1.8,2,3.6,4.2H132V24.1A253.5,253.5,0,0,1,165.1,55.8ZM52,144c0-35.9,21.2-67.8,38.9-88.2A253.5,253.5,0,0,1,124,24.1V219.9A76.1,76.1,0,0,1,52,144Zm80,75.9V196h51.4A76.5,76.5,0,0,1,132,219.9Z"/></svg>