<svg xmlns="http://www.w3.org/2000/svg" viewBox="0 0 256 256"><path d="M169.8,168.1h0L94.4,85h-.1l-28-30.8h0L51,37.3a4,4,0,1,0-6,5.4L58.2,57.2A83.7,83.7,0,0,0,44,104c0,31.8,11.3,42.7,21.2,52.3,8,7.6,14.8,14.2,14.8,31.7a48,48,0,0,0,85,30.6,4.1,4.1,0,0,0-.5-5.7,4,4,0,0,0-5.6.6A40.1,40.1,0,0,1,88,188c0-20.9-8.7-29.3-17.2-37.5S52,132.4,52,104A75.7,75.7,0,0,1,63.8,63.3l23,25.3A42.4,42.4,0,0,0,84,104a4,4,0,0,0,8,0,39.5,39.5,0,0,1,1-8.5l44.1,48.4A26.9,26.9,0,0,0,136,152a24.1,24.1,0,0,0,24,24,21,21,0,0,0,5.6-.7L205,218.7a4.1,4.1,0,0,0,5.7.3,4.2,4.2,0,0,0,.3-5.7ZM144,152v-.4l14.9,16.3A15.9,15.9,0,0,1,144,152ZM83.5,37.4a4,4,0,0,1,1.4-5.5A84,84,0,0,1,212,104a4,4,0,0,1-8,0A76.1,76.1,0,0,0,89,38.7,3.9,3.9,0,0,1,83.5,37.4Zm76.4,79.2A19.9,19.9,0,0,0,164,104a36,36,0,0,0-36-36,38.7,38.7,0,0,0-11.7,1.9,4,4,0,1,1-2.6-7.5A43.4,43.4,0,0,1,128,60a44,44,0,0,1,44,44,28.2,28.2,0,0,1-5.7,17.4,3.9,3.9,0,0,1-3.2,1.6,4.1,4.1,0,0,1-2.4-.8A3.9,3.9,0,0,1,159.9,116.6Z"/></svg>