<svg id="Flat" xmlns="http://www.w3.org/2000/svg" viewBox="0 0 256 256">
  <path d="M184,152a24,24,0,0,1-48,0c0-13.83984,8.17969-20.85059,15.397-27.03711C158.15967,119.166,164,114.16016,164,104a36,36,0,0,0-72,0,4,4,0,0,1-8,0,44,44,0,0,1,88,0c0,13.83984-8.17969,20.85059-15.397,27.03711C149.84033,136.834,144,141.83984,144,152a16,16,0,0,0,32,0,4,4,0,0,1,8,0ZM128,20a84.0953,84.0953,0,0,0-84,84c0,31.79492,11.28418,42.67578,21.24023,52.27539C73.16016,163.91211,80,170.50684,80,188a48.00133,48.00133,0,0,0,85.02344,30.55176,4.00032,4.00032,0,0,0-6.168-5.09571A40.00078,40.00078,0,0,1,88,188c0-20.89258-8.74756-29.32715-17.207-37.4834C61.55371,141.60742,52,132.39551,52,104a76,76,0,0,1,152,0,4,4,0,0,0,8,0A84.0953,84.0953,0,0,0,128,20Z"/>
</svg>
