<svg id="Flat" xmlns="http://www.w3.org/2000/svg" viewBox="0 0 256 256">
  <path d="M53.84668,141.97266h152.252a12.00044,12.00044,0,0,0,8.86621-20.08741l-76.127-83.448a11.9998,11.9998,0,0,0-17.73047,0l-76.127,83.44824a12.0003,12.0003,0,0,0,8.86621,20.08716Zm-2.95606-14.6958,76.127-83.448a3.99993,3.99993,0,0,1,5.91015,0l76.127,83.44775a4.00031,4.00031,0,0,1-2.95606,6.696H53.84668a4.00017,4.00017,0,0,1-2.95606-6.6958Zm159.082,38.6958h-160a12.01343,12.01343,0,0,0-12,12v24a12.01343,12.01343,0,0,0,12,12h160a12.01344,12.01344,0,0,0,12-12v-24A12.01344,12.01344,0,0,0,209.97266,165.97266Zm4,36a4.00428,4.00428,0,0,1-4,4h-160a4.00427,4.00427,0,0,1-4-4v-24a4.00426,4.00426,0,0,1,4-4h160a4.00427,4.00427,0,0,1,4,4Z"/>
</svg>
