<svg xmlns="http://www.w3.org/2000/svg" viewBox="0 0 256 256"><path d="M50.3,140H205.7a11.8,11.8,0,0,0,11-7.2,11.6,11.6,0,0,0-2.2-12.9L136.8,35.7a11.9,11.9,0,0,0-17.6,0L41.5,119.9a11.6,11.6,0,0,0-2.2,12.9A11.8,11.8,0,0,0,50.3,140Zm-3-14.7,77.8-84.2a3.9,3.9,0,0,1,5.8,0l77.8,84.2a4.1,4.1,0,0,1,.7,4.3,3.9,3.9,0,0,1-3.7,2.4H50.3a3.9,3.9,0,0,1-3.7-2.4A4.1,4.1,0,0,1,47.3,125.3ZM208,164H48a12,12,0,0,0-12,12v24a12,12,0,0,0,12,12H208a12,12,0,0,0,12-12V176A12,12,0,0,0,208,164Zm4,36a4,4,0,0,1-4,4H48a4,4,0,0,1-4-4V176a4,4,0,0,1,4-4H208a4,4,0,0,1,4,4Z"/></svg>