<svg id="Flat" xmlns="http://www.w3.org/2000/svg" viewBox="0 0 256 256">
  <path d="M50.27148,140h155.457a12.00006,12.00006,0,0,0,8.81738-20.1394L136.81836,35.65527a12.00122,12.00122,0,0,0-17.63672,0L41.4541,119.8606A12.00006,12.00006,0,0,0,50.27148,140ZM47.333,125.28687l77.72754-84.20533a4.00005,4.00005,0,0,1,5.8789,0L208.667,125.28687A3.99957,3.99957,0,0,1,205.72852,132H50.27148a3.99957,3.99957,0,0,1-2.93847-6.71313ZM208,164H48a12.01343,12.01343,0,0,0-12,12v24a12.01343,12.01343,0,0,0,12,12H208a12.01343,12.01343,0,0,0,12-12V176A12.01343,12.01343,0,0,0,208,164Zm4,36a4.00427,4.00427,0,0,1-4,4H48a4.00427,4.00427,0,0,1-4-4V176a4.00427,4.00427,0,0,1,4-4H208a4.00427,4.00427,0,0,1,4,4Z"/>
</svg>
