<svg id="Flat" xmlns="http://www.w3.org/2000/svg" viewBox="0 0 256 256">
  <path d="M227.99609,95.936c-.00048-.04346-.00586-.08643-.0083-.12989a3.97915,3.97915,0,0,0-.07129-.58252c-.00927-.04687-.01513-.09326-.02636-.13965a4.01259,4.01259,0,0,0-.21-.63769c-.02-.04736-.04248-.09375-.065-.14063a4.02632,4.02632,0,0,0-.35351-.61962l-.00488-.00831c-.00635-.00878-.01465-.01513-.021-.02392a3.934,3.934,0,0,0-.4502-.51367c-.0371-.03614-.07226-.07373-.11035-.1084a3.998,3.998,0,0,0-.45654-.35986l-96-64a3.997,3.997,0,0,0-4.4375,0l-96,64a3.998,3.998,0,0,0-.45654.35986c-.03809.03467-.07325.07226-.11035.1084a3.934,3.934,0,0,0-.4502.51367c-.00635.00879-.01465.01514-.021.02392l-.00488.00831a4.02632,4.02632,0,0,0-.35351.61962c-.02247.04688-.04493.09327-.06495.14063a4.01259,4.01259,0,0,0-.21.63769c-.01123.04639-.01709.09278-.02636.13965a3.97915,3.97915,0,0,0-.07129.58252c-.00244.04346-.00782.08643-.0083.12989C28.00342,95.95752,28,95.97852,28,96V200a12.01312,12.01312,0,0,0,12,12H216a12.01312,12.01312,0,0,0,12-12V96C228,95.97852,227.99658,95.95752,227.99609,95.936ZM128,36.80762l88.95459,59.30273L144.17383,148H111.82617L39.04541,96.11035ZM216,204H40a4.004,4.004,0,0,1-4-4V103.76416l72.22363,51.49268A4.0007,4.0007,0,0,0,110.5459,156h34.9082a4.0007,4.0007,0,0,0,2.32227-.74316L220,103.76416V200A4.004,4.004,0,0,1,216,204Z"/>
</svg>
