<svg id="Flat" xmlns="http://www.w3.org/2000/svg" viewBox="0 0 256 256">
  <path d="M227.99609,95.936c-.00048-.04346-.00586-.08643-.0083-.13013a3.983,3.983,0,0,0-.07129-.58252c-.00927-.04663-.01513-.093-.02636-.13941a4.01019,4.01019,0,0,0-.21-.63745c-.02-.0476-.04248-.09375-.065-.14087a4.015,4.015,0,0,0-.35351-.61962l-.00488-.00831c-.00635-.00878-.01465-.01513-.021-.02417a3.9648,3.9648,0,0,0-.4502-.51342c-.0371-.03614-.07226-.07373-.11035-.10816a4.001,4.001,0,0,0-.45654-.3601l-96-64a3.997,3.997,0,0,0-4.4375,0l-96,64a4.001,4.001,0,0,0-.45654.3601c-.03809.03443-.07325.072-.11035.10816a3.9648,3.9648,0,0,0-.4502.51342c-.00635.009-.01465.01539-.021.02417l-.00488.00831a4.015,4.015,0,0,0-.35351.61962c-.02247.04712-.04493.09327-.06495.14087a4.01019,4.01019,0,0,0-.21.63745c-.01123.04639-.01709.09278-.02636.13941a3.983,3.983,0,0,0-.07129.58252c-.00244.0437-.00782.08667-.0083.13013C28.00342,95.95752,28,95.97852,28,96V200a12.01312,12.01312,0,0,0,12,12H216a12.01312,12.01312,0,0,0,12-12V96C228,95.97852,227.99658,95.95752,227.99609,95.936ZM220,199.75806l-67.63379-47.77344L220,103.7644ZM36,103.7644l67.63379,48.22022L36,199.75879ZM111.81641,156h32.36718l67.95459,48H43.86279ZM128,36.80762l88.95459,59.30273L144.17383,148H111.82617L39.04541,96.11035Z"/>
</svg>
