<svg id="Flat" xmlns="http://www.w3.org/2000/svg" viewBox="0 0 256 256">
  <path d="M227.97314,55.73364a4.02612,4.02612,0,0,0-.04345-.4331c-.02246-.12647-.0586-.24659-.09229-.3689a3.869,3.869,0,0,0-.11719-.37744,3.93668,3.93668,0,0,0-.17285-.36572c-.05615-.11011-.10986-.22022-.17675-.32618a3.97344,3.97344,0,0,0-.26709-.35717c-.05469-.06812-.09571-.14283-.15528-.208-.019-.02075-.042-.03467-.06152-.05493a3.99806,3.99806,0,0,0-.33789-.30127c-.0874-.07276-.16992-.15186-.26221-.21631a3.98254,3.98254,0,0,0-.35449-.20654c-.10693-.05957-.21045-.126-.32178-.17481-.11816-.052-.24365-.08569-.3667-.12622-.124-.04053-.24511-.08716-.37158-.11548-.11523-.02539-.23535-.03369-.35352-.04931a3.98727,3.98727,0,0,0-.43359-.04371C224.05615,52.00781,224.0293,52,224,52H32c-.02832,0-.0542.00781-.082.0083a4.02834,4.02834,0,0,0-.45606.0459c-.11035.01514-.22216.02246-.32959.04614a4.03493,4.03493,0,0,0-.4038.12525c-.11231.03808-.22706.06811-.33448.11523-.12011.05273-.23242.124-.34814.189-.11133.063-.22559.11987-.33008.19287-.0957.06665-.18164.14843-.27246.22461a4.10864,4.10864,0,0,0-.33008.29467c-.019.02027-.04248.03443-.06152.05518-.05957.06518-.10059.13989-.15528.208a3.97344,3.97344,0,0,0-.26709.35717c-.06738.106-.1206.21631-.17724.32666a3.92106,3.92106,0,0,0-.17236.365,3.86234,3.86234,0,0,0-.11719.37818c-.03418.12182-.06983.24219-.09229.36841a4.02612,4.02612,0,0,0-.04345.4331C28.021,55.82324,28,55.90869,28,56V192a12.01343,12.01343,0,0,0,12,12H216a12.01343,12.01343,0,0,0,12-12V56C228,55.90869,227.979,55.82324,227.97314,55.73364ZM220,190.90625,151.374,128,220,65.093ZM36,65.093l68.626,62.90722L36,190.90723Zm92,73.48071L42.2832,60H213.7168Zm-17.4541-5.147,14.751,13.52173a4.00021,4.00021,0,0,0,5.40624,0l14.751-13.522L213.7168,196H42.28418Z"/>
</svg>
