<svg id="Flat" xmlns="http://www.w3.org/2000/svg" viewBox="0 0 256 256">
  <path d="M227.42383,164.8125a3.9998,3.9998,0,1,1-6.92774,4l-20.55542-35.602a120.13387,120.13387,0,0,1-41.15942,19.102l6.4541,36.59961a4.00051,4.00051,0,0,1-3.24512,4.63379,4.06136,4.06136,0,0,1-.69921.06152,4.00171,4.00171,0,0,1-3.93457-3.30664l-6.4043-36.31738a131.58367,131.58367,0,0,1-45.99341-.01709l-6.40405,36.32178a4.00265,4.00265,0,0,1-3.93457,3.30664,4.06041,4.06041,0,0,1-.69922-.06153,4,4,0,0,1-3.24512-4.63379l6.45484-36.60986a120.1421,120.1421,0,0,1-41.11426-19.10937L35.35254,168.9707a3.9998,3.9998,0,1,1-6.92774-4l21.18067-36.68554A142.43333,142.43333,0,0,1,28.8877,107.38867a3.99986,3.99986,0,1,1,6.22265-5.02734,132.78926,132.78926,0,0,0,22.266,21.856c.03113.02636.068.04687.09815.07373C74.60583,137.4248,97.77954,148,128,148c30.19849,0,53.36011-10.56055,70.48779-23.68115.0149-.01319.03308-.02344.0481-.03614a132.77462,132.77462,0,0,0,22.35278-21.92138,3.99986,3.99986,0,1,1,6.22266,5.02734,142.41445,142.41445,0,0,1-20.75806,20.92969Z"/>
</svg>
