<svg xmlns="http://www.w3.org/2000/svg" viewBox="0 0 256 256"><path d="M243.7,126.4c-.4-.8-8.6-18.9-26.9-37.2S170.7,52,128,52,56.1,72.2,39.2,89.2s-26.5,36.4-26.9,37.2a4.4,4.4,0,0,0,0,3.2c.4.8,8.6,18.9,26.9,37.2S85.3,204,128,204s71.9-20.2,88.8-37.2,26.5-36.4,26.9-37.2A4.4,4.4,0,0,0,243.7,126.4Zm-32.7,35c-23.1,22.9-51,34.6-83,34.6s-59.9-11.7-83-34.6A138.7,138.7,0,0,1,20.4,128,136.8,136.8,0,0,1,45,94.6C68.1,71.6,96,60,128,60s59.9,11.6,83,34.6A136.8,136.8,0,0,1,235.6,128,136.8,136.8,0,0,1,211,161.4ZM128,84a44,44,0,1,0,44,44A44,44,0,0,0,128,84Zm0,80a36,36,0,1,1,36-36A36,36,0,0,1,128,164Z"/></svg>