<svg xmlns="http://www.w3.org/2000/svg" viewBox="0 0 256 256"><path d="M227.4,164.8a4,4,0,0,1-1.4,5.5,5.3,5.3,0,0,1-2,.5,3.9,3.9,0,0,1-3.5-2l-20.6-35.6a119.2,119.2,0,0,1-41.1,19.1l6.4,36.6a3.9,3.9,0,0,1-3.2,4.6h-.7a4,4,0,0,1-3.9-3.3L151,154a129.6,129.6,0,0,1-23,2,128.7,128.7,0,0,1-23-2l-6.4,36.3a4.2,4.2,0,0,1-4,3.3h-.7a3.9,3.9,0,0,1-3.2-4.6l6.4-36.6A120.1,120.1,0,0,1,56,133.2L35.4,169a4.1,4.1,0,0,1-3.5,2,3.6,3.6,0,0,1-2-.6,4,4,0,0,1-1.5-5.4l21.2-36.7a145,145,0,0,1-20.7-20.9,4,4,0,0,1,.6-5.6,3.9,3.9,0,0,1,5.6.6,132.4,132.4,0,0,0,22.3,21.8h.1A113.5,113.5,0,0,0,128,148a113.5,113.5,0,0,0,70.5-23.7h0a137.5,137.5,0,0,0,22.4-21.9,3.9,3.9,0,0,1,5.6-.6,4,4,0,0,1,.6,5.6,140.1,140.1,0,0,1-20.7,20.9Z"/></svg>