<svg xmlns="http://www.w3.org/2000/svg" viewBox="0 0 256 256"><path d="M220,67.6a31.9,31.9,0,0,0-10-22.9c-12.5-11.7-32.7-11.3-45,1.1L140.2,70.5l-2.1-2a19.9,19.9,0,0,0-28.2,0l-7.1,7a12.2,12.2,0,0,0,0,17l4.9,4.9L54.5,150.5a36.2,36.2,0,0,0-9.6,33.4L34.6,207.5a9.8,9.8,0,0,0,2,10.8,12,12,0,0,0,8.5,3.5,11.5,11.5,0,0,0,4.8-1l22.2-9.7a36.2,36.2,0,0,0,33.4-9.6l53.1-53.2,4.9,4.9a12.1,12.1,0,0,0,17,0l7-7.1a19.9,19.9,0,0,0,0-28.2l-2-2.1,25.1-25.2A31.5,31.5,0,0,0,220,67.6ZM99.8,195.8a28.4,28.4,0,0,1-27.1,7.3,3.9,3.9,0,0,0-2.6.1L46.7,213.5a4,4,0,0,1-4.4-.9,1.7,1.7,0,0,1-.4-1.9l10.9-24.8a4.6,4.6,0,0,0,.2-2.6A27.8,27.8,0,0,1,54.7,164h76.9ZM139.6,156H60.4l53-53L153,142.6ZM177,113a3.9,3.9,0,0,0,0,5.6l4.9,4.9a12.2,12.2,0,0,1,0,17l-7.1,7a4,4,0,0,1-5.6,0L108.5,86.8a3.9,3.9,0,0,1,0-5.6l7-7.1a12.1,12.1,0,0,1,17,0l4.9,4.9a3.9,3.9,0,0,0,5.6,0l27.6-27.6c9.3-9.3,24.5-9.7,33.9-.8A24,24,0,0,1,205,85Z"/></svg>