<svg xmlns="http://www.w3.org/2000/svg" viewBox="0 0 256 256"><path d="M172,112a4,4,0,0,1-4,4H88a4,4,0,0,1,0-8h80A4,4,0,0,1,172,112Zm-4,28H88a4,4,0,0,0,0,8h80a4,4,0,0,0,0-8Zm84-36v24a28.1,28.1,0,0,1-28,28h-7.9c-5.8,14.6-18.3,27.4-36.9,37.7-20.5,11.4-42.5,16.6-48.8,17.9a14.5,14.5,0,0,1-4.8,0c-6.3-1.3-28.3-6.5-48.8-17.9C58.2,183.4,45.7,170.6,39.9,156H32A28.1,28.1,0,0,1,4,128V104A28.1,28.1,0,0,1,32,76h4.1a12.2,12.2,0,0,1,7.8-9.7l80-29.1a12.8,12.8,0,0,1,8.2,0l80,29.1a12.2,12.2,0,0,1,7.8,9.7H224A28.1,28.1,0,0,1,252,104ZM37.4,148A53.2,53.2,0,0,1,36,136V84H32a20.1,20.1,0,0,0-20,20v24a20.1,20.1,0,0,0,20,20ZM212,136V77.6a4.1,4.1,0,0,0-2.6-3.8l-80-29a3.4,3.4,0,0,0-2.8,0l-80,29A4.1,4.1,0,0,0,44,77.6V136c0,20.1,12.3,37.2,36.7,50.7,19.5,10.9,40.5,15.8,46.5,17.1h1.6c6-1.3,27-6.2,46.5-17.1C199.7,173.2,212,156.1,212,136Zm32-32a20.1,20.1,0,0,0-20-20h-4v52a53.2,53.2,0,0,1-1.4,12H224a20.1,20.1,0,0,0,20-20Z"/></svg>