<svg id="Flat" xmlns="http://www.w3.org/2000/svg" viewBox="0 0 256 256">
  <path d="M112,176a4.0002,4.0002,0,0,1-4,4H80a4,4,0,0,1,0-8h28A4.0002,4.0002,0,0,1,112,176Zm64-4H148a4,4,0,0,0,0,8h28a4,4,0,0,0,0-8Zm68,43.9834a4.0002,4.0002,0,0,1-4,4H216.16724c-.05677.002-.11.0166-.16724.0166s-.11047-.01465-.16724-.0166H40.16724c-.05677.002-.11.0166-.16724.0166s-.11047-.01465-.16724-.0166H16a4,4,0,0,1,0-8H36V88a4.00033,4.00033,0,0,1,6.40039-3.2002L100,128V88a4.00033,4.00033,0,0,1,6.40039-3.2002l44.1438,33.1084,12.5144-87.60547A12.06044,12.06044,0,0,1,174.93848,20h18.123a12.06044,12.06044,0,0,1,11.87989,10.30273L219.96,135.43457c.01379.09668.00513.19043.012.28613.0066.09424.02808.1836.02808.2793v75.9834h20A3.99989,3.99989,0,0,1,244,215.9834Zm-86.15637-92.60059L169.333,132h42.05481L197.02148,31.43457A4.01977,4.01977,0,0,0,193.06152,28h-18.123a4.01977,4.01977,0,0,0-3.96,3.43457ZM44,211.9834H212V140H168a4.00312,4.00312,0,0,1-2.40039-.7998L108,96v40a4.00033,4.00033,0,0,1-6.40039,3.2002L44,96Z"/>
</svg>
