<svg xmlns="http://www.w3.org/2000/svg" viewBox="0 0 256 256"><path d="M112,176a4,4,0,0,1-4,4H80a4,4,0,0,1,0-8h28A4,4,0,0,1,112,176Zm64-4H148a4,4,0,0,0,0,8h28a4,4,0,0,0,0-8Zm68,44a4,4,0,0,1-4,4H16a4,4,0,0,1,0-8H36V88a4.2,4.2,0,0,1,2.2-3.6,4,4,0,0,1,4.2.4L100,128V88a4.2,4.2,0,0,1,2.2-3.6,4,4,0,0,1,4.2.4l44.1,33.1,12.6-87.6A11.9,11.9,0,0,1,174.9,20h18.2a11.9,11.9,0,0,1,11.8,10.3L220,135.4V212h20A4,4,0,0,1,244,216Zm-86.2-92.6,11.5,8.6h42.1L197,31.4a4.1,4.1,0,0,0-3.9-3.4H174.9a4.1,4.1,0,0,0-3.9,3.4ZM44,212H212V140H168a4.1,4.1,0,0,1-2.4-.8L108,96v40a4.2,4.2,0,0,1-2.2,3.6,4,4,0,0,1-4.2-.4L44,96Z"/></svg>