<svg id="Flat" xmlns="http://www.w3.org/2000/svg" viewBox="0 0 256.00098 256.00098">
  <path d="M132.001,119.99988v96a4,4,0,0,1-8,0v-96a4,4,0,1,1,8,0Zm68,76a3.99988,3.99988,0,0,0-4,4l.001,16a4,4,0,0,0,8,0l-.001-16A3.99989,3.99989,0,0,0,200.001,195.99988Zm24-32h-20l.001-124a4,4,0,1,0-8,0l-.001,124h-20a4,4,0,0,0,0,8h48a4,4,0,0,0,0-8Zm-168,0a4.00019,4.00019,0,0,0-4,4l-.00049,48a4,4,0,0,0,8,0l.00049-48A4.0002,4.0002,0,0,0,56.001,163.99988Zm24-32h-20l-.00049-92a4,4,0,0,0-8,0l.00049,92h-20a4,4,0,0,0,0,8h48a4,4,0,0,0,0-8Zm72-48h-20v-44a4,4,0,1,0-8,0v44h-20a4,4,0,0,0,0,8h48a4,4,0,0,0,0-8Z"/>
</svg>
