<svg id="Flat" xmlns="http://www.w3.org/2000/svg" viewBox="0 0 256 256">
  <path d="M128,28A100,100,0,1,0,228,128,100.113,100.113,0,0,0,128,28Zm0,192a92,92,0,1,1,92-92A92.10447,92.10447,0,0,1,128,220Zm6.21875-95.32812-48-32A3.99967,3.99967,0,0,0,80,96v64a3.99988,3.99988,0,0,0,6.21875,3.32813l48-32a3.99979,3.99979,0,0,0,0-6.65625ZM88,152.52588V103.47412L124.78906,128Zm102.21875-27.854-48-32A3.99967,3.99967,0,0,0,136,96v64a3.99988,3.99988,0,0,0,6.21875,3.32813l48-32a3.99979,3.99979,0,0,0,0-6.65625ZM144,152.52588V103.47412L180.78906,128Z"/>
</svg>
