<svg id="Flat" xmlns="http://www.w3.org/2000/svg" viewBox="0 0 256 256">
  <path d="M243.69531,117.90576l-89.206-57.34668A12.0001,12.0001,0,0,0,136,70.65332v52.13916a11.95176,11.95176,0,0,0-4.30469-4.88672l-89.206-57.34668A12.0001,12.0001,0,0,0,24,70.65332V185.34668a11.84045,11.84045,0,0,0,6.249,10.53223,11.84378,11.84378,0,0,0,12.24024-.438l89.20605-57.34668A11.95176,11.95176,0,0,0,136,133.20752v52.13916a11.84045,11.84045,0,0,0,6.249,10.53223,11.84378,11.84378,0,0,0,12.24024-.438l89.20605-57.34668a12.00038,12.00038,0,0,0,0-20.18848Zm-116.32617,13.459-89.206,57.34668A4,4,0,0,1,32,185.34668V70.65332a3.9192,3.9192,0,0,1,2.083-3.51074,4.14548,4.14548,0,0,1,1.94726-.50537,3.88933,3.88933,0,0,1,2.13282.65136l89.20605,57.34668a4.00014,4.00014,0,0,1,0,6.7295Zm112,0-89.206,57.34668A4,4,0,0,1,144,185.34668V70.65332a3.9192,3.9192,0,0,1,2.083-3.51074,4.14548,4.14548,0,0,1,1.94726-.50537,3.88933,3.88933,0,0,1,2.13282.65136l89.206,57.34668a4.00014,4.00014,0,0,1,0,6.7295Z"/>
</svg>
