<svg id="Flat" xmlns="http://www.w3.org/2000/svg" viewBox="0 0 256 256">
  <path d="M212.00781,88a3.983,3.983,0,0,0-1.21631-2.86554L154.82812,29.17139c-.01123-.01123-.0249-.01892-.03662-.03a3.996,3.996,0,0,0-.56543-.46387c-.06787-.04541-.14355-.07495-.21337-.11584a3.97065,3.97065,0,0,0-.47413-.25306c-.08886-.03686-.18408-.05493-.27539-.08545a3.91331,3.91331,0,0,0-.47168-.14331A4.00069,4.00069,0,0,0,152,28H55.99219a12.01375,12.01375,0,0,0-12,12V216a12.01375,12.01375,0,0,0,12,12H200a12.01375,12.01375,0,0,0,12-12V88.08C212.00049,88.05267,212.00781,88.0274,212.00781,88ZM156,41.65686,198.34326,84H156ZM200,220H55.99219a4.00458,4.00458,0,0,1-4-4V40a4.00458,4.00458,0,0,1,4-4H148V88a4.0002,4.0002,0,0,0,4,4h52V216A4.00458,4.00458,0,0,1,200,220Zm-36-84a4.0002,4.0002,0,0,1-4,4H96a4,4,0,0,1,0-8h64A4.0002,4.0002,0,0,1,164,136Zm0,32a4.0002,4.0002,0,0,1-4,4H96a4,4,0,0,1,0-8h64A4.0002,4.0002,0,0,1,164,168Z"/>
</svg>
