<svg xmlns="http://www.w3.org/2000/svg" viewBox="0 0 256 256"><path d="M215.7,169.5l-20,48a4,4,0,0,1-7.4,0l-20-48a4,4,0,1,1,7.4-3L192,205.6l16.3-39.1a4,4,0,0,1,7.4,3Zm-138.4,38A16.2,16.2,0,0,1,66,212c-9.9,0-18-9-18-20s8.1-20,18-20a16.2,16.2,0,0,1,11.3,4.5,4.2,4.2,0,0,0,5.7-.3,4.1,4.1,0,0,0-.3-5.7A25,25,0,0,0,66,164c-14.3,0-26,12.6-26,28s11.7,28,26,28a25,25,0,0,0,16.7-6.5,4.1,4.1,0,0,0,.3-5.7A4.2,4.2,0,0,0,77.3,207.5Zm51.3-19.8c-8.6-2.3-12.6-3.8-12.6-7.7,0-5.6,4.1-9,11-9a20.7,20.7,0,0,1,12.4,4.1,4,4,0,1,0,5.2-6.2A30,30,0,0,0,127,163c-11.4,0-19,6.8-19,17s10.3,13.2,18.6,15.4,13.4,4,13.4,8.6c0,2.5,0,9-13,9a21.5,21.5,0,0,1-12.5-4.1,4,4,0,0,0-5.6.5,4.1,4.1,0,0,0,.5,5.7A30,30,0,0,0,127,221c13.3,0,21-6.2,21-17S137.3,189.9,128.6,187.7ZM204,92H152a4,4,0,0,1-4-4V36H56a4,4,0,0,0-4,4v88a4,4,0,0,1-8,0V40A12,12,0,0,1,56,28h96a3.6,3.6,0,0,1,2.8,1.2l56,55.9A4.5,4.5,0,0,1,212,88h0V128a4,4,0,0,1-8,0Zm-48-8h42.3L156,41.7Z"/></svg>