<svg xmlns="http://www.w3.org/2000/svg" viewBox="0 0 256 256"><path d="M212,88a4.5,4.5,0,0,0-1.2-2.9l-56-55.9A3.6,3.6,0,0,0,152,28H56A12,12,0,0,0,44,40v88a4,4,0,0,0,8,0V40a4,4,0,0,1,4-4h92V88a4,4,0,0,0,4,4h52V216a4,4,0,0,1-4,4H168a4,4,0,0,0,0,8h32a12,12,0,0,0,12-12V88.1ZM156,41.7,198.3,84H156ZM97.7,148.4a4,4,0,0,0-4.3.5L70.6,168H48a4,4,0,0,0-4,4v32a4,4,0,0,0,4,4H70.6l22.8,19.1a4.3,4.3,0,0,0,2.6.9,3.3,3.3,0,0,0,1.7-.4A3.9,3.9,0,0,0,100,224V152A3.9,3.9,0,0,0,97.7,148.4ZM92,215.5,74.6,200.9A4.3,4.3,0,0,0,72,200H52V176H72a4.3,4.3,0,0,0,2.6-.9L92,160.5ZM144,188a35.8,35.8,0,0,1-13.5,28.1,3.8,3.8,0,0,1-2.5.9,3.9,3.9,0,0,1-3.1-1.5,4,4,0,0,1,.6-5.6,28.1,28.1,0,0,0,0-43.8,4,4,0,1,1,5-6.2A35.8,35.8,0,0,1,144,188Z"/></svg>