<svg id="Flat" xmlns="http://www.w3.org/2000/svg" viewBox="0 0 256 256">
  <path d="M212.0083,88a3.98153,3.98153,0,0,0-1.21924-2.86755L154.82861,29.17188v-.00013a4.02905,4.02905,0,0,0-.604-.495c-.05542-.03711-.11768-.06079-.17481-.095a3.958,3.958,0,0,0-.5122-.27344c-.08008-.03345-.16626-.04907-.24829-.07715a3.92415,3.92415,0,0,0-.49829-.15137A3.99225,3.99225,0,0,0,152,28H55.99219a12.01343,12.01343,0,0,0-12,12V216a12.01343,12.01343,0,0,0,12,12H200a12.01343,12.01343,0,0,0,12-12V88.08228C212.00049,88.0542,212.0083,88.0282,212.0083,88ZM156,41.65674,198.34277,84H156ZM200,220H55.99219a4.00427,4.00427,0,0,1-4-4V40a4.00427,4.00427,0,0,1,4-4H148V88a4.0002,4.0002,0,0,0,4,4h52V216A4.00427,4.00427,0,0,1,200,220Zm-50.731-52.38184a31.99548,31.99548,0,1,0-5.65918,5.6543l13.3545,13.35449a3.99992,3.99992,0,0,0,5.65722-5.65625Zm-42.24511-2.64746h-.00049a24.00024,24.00024,0,1,1,33.94092,0A24.02665,24.02665,0,0,1,107.02393,164.9707Z"/>
</svg>
