<svg id="Flat" xmlns="http://www.w3.org/2000/svg" viewBox="0 0 256 256">
  <path d="M212.00781,88a3.983,3.983,0,0,0-1.21631-2.86554L154.82812,29.17139c-.01123-.01129-.0249-.01892-.03662-.03009a4.00427,4.00427,0,0,0-.56543-.46387c-.06787-.04529-.14355-.07483-.21337-.11578a3.97025,3.97025,0,0,0-.47413-.253c-.08886-.037-.18408-.055-.27539-.08551a3.91331,3.91331,0,0,0-.47168-.14331A4.00069,4.00069,0,0,0,152,28H55.99219a12.01375,12.01375,0,0,0-12,12V216a12.01343,12.01343,0,0,0,12,12H200a12.01343,12.01343,0,0,0,12-12V88.08C212.00049,88.05267,212.00781,88.0274,212.00781,88ZM156,41.65686,198.34326,84H156ZM200,220H55.99219a4.00427,4.00427,0,0,1-4-4V40a4.00458,4.00458,0,0,1,4-4H148V88a4.0002,4.0002,0,0,0,4,4h52V216A4.00427,4.00427,0,0,1,200,220Zm-41.17139-66.82861a4.0006,4.0006,0,0,1,0,5.65722L130.8291,186.82733a4.01518,4.01518,0,0,1-.61084.49945c-.09765.06525-.20361.10993-.30517.16565a2.34959,2.34959,0,0,1-.79.32782c-.11328.03345-.22217.07739-.33985.10077a3.92277,3.92277,0,0,1-1.5664,0c-.11768-.02338-.22657-.06732-.33985-.10077a2.34959,2.34959,0,0,1-.79-.32782c-.10156-.05572-.20752-.1004-.30517-.16565a4.01518,4.01518,0,0,1-.61084-.49945L97.17139,158.82861a4.00026,4.00026,0,0,1,5.65722-5.65722L124,174.34277V120a4,4,0,0,1,8,0v54.34277l21.17139-21.17138A4.00147,4.00147,0,0,1,158.82861,153.17139Z"/>
</svg>
