<svg id="Flat" xmlns="http://www.w3.org/2000/svg" viewBox="0 0 256 256">
  <path d="M76,224a4.0002,4.0002,0,0,1-4,4H55.99219a12.01343,12.01343,0,0,1-12-12V184a4,4,0,0,1,8,0v32a4.00427,4.00427,0,0,0,4,4H72A4.0002,4.0002,0,0,1,76,224ZM80,28H55.99219a12.01343,12.01343,0,0,0-12,12V64a4,4,0,0,0,8,0V40a4.00427,4.00427,0,0,1,4-4H80a4,4,0,0,0,0-8ZM212,88.08V136a4,4,0,0,1-8,0V92H152a4.0002,4.0002,0,0,1-4-4V36H120a4,4,0,0,1,0-8h32a3.99584,3.99584,0,0,1,.791.07977,3.94168,3.94168,0,0,1,.50048.15216c.08106.0279.16651.04328.2461.07636a3.997,3.997,0,0,1,.51513.275c.05567.03369.11719.05689.17188.09339a4.011,4.011,0,0,1,.60449.496l55.96045,55.96014A3.98107,3.98107,0,0,1,212.00781,88C212.00781,88.02734,212.00049,88.05273,212,88.08ZM156,84h42.34277L156,41.657Zm52,88a4.0002,4.0002,0,0,0-4,4v40a4.00427,4.00427,0,0,1-4,4h-8a4,4,0,0,0,0,8h8a12.01343,12.01343,0,0,0,12-12V176A4.0002,4.0002,0,0,0,208,172ZM48,148a4.0002,4.0002,0,0,0,4-4V104a4,4,0,0,0-8,0v40A4.0002,4.0002,0,0,0,48,148Zm104,72H112a4,4,0,0,0,0,8h40a4,4,0,0,0,0-8Z"/>
</svg>
