<svg xmlns="http://www.w3.org/2000/svg" viewBox="0 0 256 256"><path d="M48,192c0,11,8.1,20,18,20a16.2,16.2,0,0,0,11.3-4.5,4.2,4.2,0,0,1,5.7.3,4.1,4.1,0,0,1-.3,5.7A25,25,0,0,1,66,220c-14.3,0-26-12.6-26-28s11.7-28,26-28a25,25,0,0,1,16.7,6.5,4.1,4.1,0,0,1,.3,5.7,4.2,4.2,0,0,1-5.7.3A16.2,16.2,0,0,0,66,172C56.1,172,48,181,48,192Zm80.6-4.3c-8.6-2.3-12.6-3.8-12.6-7.7,0-5.6,4.1-9,11-9a20.7,20.7,0,0,1,12.4,4.1,4,4,0,1,0,5.2-6.2A30,30,0,0,0,127,163c-11.4,0-19,6.8-19,17s10.3,13.2,18.6,15.4,13.4,4,13.4,8.6c0,2.5,0,9-13,9a21.5,21.5,0,0,1-12.5-4.1,4,4,0,0,0-5.6.5,4.1,4.1,0,0,0,.5,5.7A30,30,0,0,0,127,221c13.3,0,21-6.2,21-17S137.3,189.9,128.6,187.7Zm64,0c-8.6-2.3-12.6-3.8-12.6-7.7,0-5.6,4.1-9,11-9a20.7,20.7,0,0,1,12.4,4.1,4,4,0,0,0,5.2-6.2A30,30,0,0,0,191,163c-11.4,0-19,6.8-19,17s10.3,13.2,18.6,15.4,13.4,4,13.4,8.6c0,2.5,0,9-13,9a21.5,21.5,0,0,1-12.5-4.1,4,4,0,0,0-5.6.5,4.1,4.1,0,0,0,.5,5.7A30,30,0,0,0,191,221c13.3,0,21-6.2,21-17S201.3,189.9,192.6,187.7ZM212,88.1V128a4,4,0,0,1-8,0V92H152a4,4,0,0,1-4-4V36H56a4,4,0,0,0-4,4v88a4,4,0,0,1-8,0V40A12,12,0,0,1,56,28h96a3.6,3.6,0,0,1,2.8,1.2l56,55.9A4.5,4.5,0,0,1,212,88ZM156,84h42.3L156,41.7Z"/></svg>