<svg xmlns="http://www.w3.org/2000/svg" viewBox="0 0 256 256"><path d="M64,164H48a4,4,0,0,0-4,4v48a4,4,0,0,0,8,0V204H64a20,20,0,0,0,0-40Zm0,32H52V172H64a12,12,0,0,1,0,24Zm64-32H112a4,4,0,0,0-4,4v48a4,4,0,0,0,8,0V204h12a20,20,0,0,0,0-40Zm0,32H116V172h12a12,12,0,0,1,0,24Zm84-28a4,4,0,0,1-4,4H194v44a4,4,0,0,1-8,0V172H172a4,4,0,0,1,0-8h36A4,4,0,0,1,212,168Zm0-80a4.5,4.5,0,0,0-1.2-2.9l-56-55.9A3.6,3.6,0,0,0,152,28H56A12,12,0,0,0,44,40v88a4,4,0,0,0,8,0V40a4,4,0,0,1,4-4h92V88a4,4,0,0,0,4,4h52v36a4,4,0,0,0,8,0V88.1ZM156,41.7,198.3,84H156Z"/></svg>