<svg id="Flat" xmlns="http://www.w3.org/2000/svg" viewBox="0 0 256 256">
  <path d="M210.79,85.13l-56-56,0,0a3.51,3.51,0,0,0-.56-.46,2.39,2.39,0,0,0-.22-.12,3.5,3.5,0,0,0-.47-.25c-.09,0-.19-.06-.28-.09a3.23,3.23,0,0,0-.47-.14A4.15,4.15,0,0,0,152,28H56A12,12,0,0,0,44,40V216a12,12,0,0,0,12,12H200a12,12,0,0,0,12-12V88.08s0,0,0-.08A4,4,0,0,0,210.79,85.13ZM156,41.66,198.34,84H156ZM204,216a4,4,0,0,1-4,4H56a4,4,0,0,1-4-4V40a4,4,0,0,1,4-4h92V88a4,4,0,0,0,4,4h52Zm-57.38-90.63a32,32,0,1,0-3,47.91L157,186.63a4,4,0,1,0,5.66-5.66l-13.35-13.35a32,32,0,0,0-2.65-42.25ZM141,165a24,24,0,1,1,7-17A23.85,23.85,0,0,1,141,165Z"/>
</svg>
