<svg xmlns="http://www.w3.org/2000/svg" viewBox="0 0 256 256"><path d="M58,164H44a4,4,0,0,0-4,4v48a4,4,0,0,0,4,4H58a28,28,0,0,0,0-56Zm0,48H48V172H58a20,20,0,0,1,0,40Zm72-48c-14.3,0-26,12.6-26,28s11.7,28,26,28,26-12.6,26-28S144.3,164,130,164Zm0,48c-9.9,0-18-9-18-20s8.1-20,18-20,18,9,18,20S139.9,212,130,212Zm85-4.2a4.1,4.1,0,0,1-.3,5.7A25,25,0,0,1,198,220c-14.3,0-26-12.6-26-28s11.7-28,26-28a25,25,0,0,1,16.7,6.5,4.1,4.1,0,0,1,.3,5.7,4.2,4.2,0,0,1-5.7.3A16.2,16.2,0,0,0,198,172c-9.9,0-18,9-18,20s8.1,20,18,20a16.2,16.2,0,0,0,11.3-4.5A4.2,4.2,0,0,1,215,207.8ZM48,132a4,4,0,0,0,4-4V40a4,4,0,0,1,4-4h92V88a4,4,0,0,0,4,4h52v36a4,4,0,0,0,8,0V88.1h0a4.5,4.5,0,0,0-1.2-2.9l-56-55.9A3.6,3.6,0,0,0,152,28H56A12,12,0,0,0,44,40v88A4,4,0,0,0,48,132ZM156,41.7,198.3,84H156Z"/></svg>