<svg xmlns="http://www.w3.org/2000/svg" viewBox="0 0 256 256"><path d="M210.8,69.2l-40-40A3.6,3.6,0,0,0,168,28H88A12,12,0,0,0,76,40V60H56A12,12,0,0,0,44,72V216a12,12,0,0,0,12,12H168a12,12,0,0,0,12-12V196h20a12,12,0,0,0,12-12V72A3.6,3.6,0,0,0,210.8,69.2ZM172,216a4,4,0,0,1-4,4H56a4,4,0,0,1-4-4V72a4,4,0,0,1,4-4h78.3L172,105.7Zm32-32a4,4,0,0,1-4,4H180V104a3.6,3.6,0,0,0-1.2-2.8l-40-40A3.6,3.6,0,0,0,136,60H84V40a4,4,0,0,1,4-4h78.3L204,73.7Zm-64-32a4,4,0,0,1-4,4H88a4,4,0,0,1,0-8h48A4,4,0,0,1,140,152Zm0,32a4,4,0,0,1-4,4H88a4,4,0,0,1,0-8h48A4,4,0,0,1,140,184Z"/></svg>