<svg xmlns="http://www.w3.org/2000/svg" viewBox="0 0 256 256"><path d="M74.7,200.9A20,20,0,0,0,64,164H48a4,4,0,0,0-4,4v48a4,4,0,0,0,8,0V204H64a15.3,15.3,0,0,0,3-.3l9.7,14.5A3.8,3.8,0,0,0,80,220a3.6,3.6,0,0,0,2.2-.7,4,4,0,0,0,1.1-5.5ZM52,196V172H64a12,12,0,0,1,0,24Zm96,8c0,10.8-7.7,17-21,17a30,30,0,0,1-17.6-5.9,4.1,4.1,0,0,1-.5-5.7,4,4,0,0,1,5.6-.5A21.5,21.5,0,0,0,127,213c13,0,13-6.5,13-9,0-4.6-4.3-6.2-13.4-8.6S108,190.5,108,180s7.6-17,19-17a30,30,0,0,1,17.6,5.9,4,4,0,1,1-5.2,6.2A20.7,20.7,0,0,0,127,171c-6.9,0-11,3.4-11,9,0,3.9,4,5.4,12.6,7.7S148,192.8,148,204ZM212,88a4.5,4.5,0,0,0-1.2-2.9l-56-55.9A3.6,3.6,0,0,0,152,28H56A12,12,0,0,0,44,40v88a4,4,0,0,0,8,0V40a4,4,0,0,1,4-4h92V88a4,4,0,0,0,4,4h52V216a4,4,0,0,1-4,4H184a4,4,0,0,0,0,8h16a12,12,0,0,0,12-12V88.1ZM156,41.7,198.3,84H156Z"/></svg>