<svg xmlns="http://www.w3.org/2000/svg" viewBox="0 0 256 256"><path d="M210.8,85.2l-56-56A3.6,3.6,0,0,0,152,28H56A12,12,0,0,0,44,40V216a12,12,0,0,0,12,12H200a12,12,0,0,0,12-12V88A3.6,3.6,0,0,0,210.8,85.2ZM156,41.7,198.3,84H156ZM200,220H56a4,4,0,0,1-4-4V40a4,4,0,0,1,4-4h92V88a4,4,0,0,0,4,4h52V216A4,4,0,0,1,200,220Zm-45.2-89.2L133.7,152l21.1,21.2a3.9,3.9,0,0,1,0,5.6,3.9,3.9,0,0,1-5.6,0L128,157.7l-21.2,21.1a3.9,3.9,0,0,1-5.6,0,3.9,3.9,0,0,1,0-5.6L122.3,152l-21.1-21.2a4,4,0,1,1,5.6-5.6L128,146.3l21.2-21.1a4,4,0,1,1,5.6,5.6Z"/></svg>