<svg xmlns="http://www.w3.org/2000/svg" viewBox="0 0 256 256"><path d="M212,88a4.5,4.5,0,0,0-1.2-2.9l-56-55.9A3.6,3.6,0,0,0,152,28H56A12,12,0,0,0,44,40V216a12,12,0,0,0,12,12H200a12,12,0,0,0,12-12V88.1ZM156,41.7,198.3,84H156ZM200,220H56a4,4,0,0,1-4-4V40a4,4,0,0,1,4-4h92V88a4,4,0,0,0,4,4h52V216A4,4,0,0,1,200,220Zm-25.2-70.8a3.9,3.9,0,0,1,0,5.6l-24,24A3.9,3.9,0,0,1,148,180a3.8,3.8,0,0,1-2.8-1.2,3.9,3.9,0,0,1,0-5.6L166.3,152l-21.1-21.2a4,4,0,1,1,5.6-5.6Zm-64-18.4L89.7,152l21.1,21.2a3.9,3.9,0,0,1,0,5.6A3.9,3.9,0,0,1,108,180a3.8,3.8,0,0,1-2.8-1.2l-24-24a3.9,3.9,0,0,1,0-5.6l24-24a4,4,0,1,1,5.6,5.6Z"/></svg>