<svg id="Flat" xmlns="http://www.w3.org/2000/svg" viewBox="0 0 256 256">
  <path d="M212.00781,88a3.983,3.983,0,0,0-1.21631-2.86554L154.82812,29.17139c-.01123-.01129-.0249-.01892-.03662-.03009a4.00427,4.00427,0,0,0-.56543-.46387c-.06787-.04529-.14355-.07483-.21337-.11578a3.97025,3.97025,0,0,0-.47413-.253c-.08886-.037-.18408-.055-.27539-.08551a3.91331,3.91331,0,0,0-.47168-.14331A4.00069,4.00069,0,0,0,152,28H55.99219a12.01375,12.01375,0,0,0-12,12V216a12.01343,12.01343,0,0,0,12,12H200a12.01343,12.01343,0,0,0,12-12V88.08C212.00049,88.05267,212.00781,88.0274,212.00781,88ZM156,41.65686,198.34326,84H156ZM200,220H55.99219a4.00427,4.00427,0,0,1-4-4V40a4.00458,4.00458,0,0,1,4-4H148V88a4.0002,4.0002,0,0,0,4,4h52V216A4.00427,4.00427,0,0,1,200,220Zm-41.17139-74.82861a4.00026,4.00026,0,0,1-5.65722,5.65722L132,129.6568V184a4,4,0,0,1-8,0V129.6568l-21.17139,21.17181a4.00026,4.00026,0,0,1-5.65722-5.65722l28-28c.01074-.01056.02343-.01734.03418-.02777a4.00456,4.00456,0,0,1,.57568-.47c.09863-.066.20605-.11139.30908-.16772a2.30534,2.30534,0,0,1,.77588-.32282c.11719-.03485.22949-.08.35108-.10412a4.02377,4.02377,0,0,1,.73437-.074c.0166-.00018.03174-.00488.04834-.00488s.03174.0047.04834.00488a4.02377,4.02377,0,0,1,.73437.074c.12159.02411.23389.06927.35108.10412a2.30534,2.30534,0,0,1,.77588.32282c.103.05633.21045.10168.30908.16772a4.00456,4.00456,0,0,1,.57568.47c.01075.01043.02344.01721.03418.02777Z"/>
</svg>
