<svg xmlns="http://www.w3.org/2000/svg" viewBox="0 0 256 256"><path d="M184,172v16h20a4,4,0,0,1,0,8H184v16h24a4,4,0,0,1,0,8H180a4,4,0,0,1-4-4V168a4,4,0,0,1,4-4h28a4,4,0,0,1,0,8Zm-98.5-7.7a4,4,0,0,0-5.2,2.2L64,205.6,47.7,166.5a4,4,0,0,0-7.4,3l20,48a4,4,0,0,0,7.4,0l20-48A4,4,0,0,0,85.5,164.3ZM148,164a4,4,0,0,0-4,4v30a14,14,0,0,1-28,0V168a4,4,0,0,0-8,0v30a22,22,0,0,0,44,0V168A4,4,0,0,0,148,164Zm64-75.9V128a4,4,0,0,1-8,0V92H152a4,4,0,0,1-4-4V36H56a4,4,0,0,0-4,4v88a4,4,0,0,1-8,0V40A12,12,0,0,1,56,28h96a3.6,3.6,0,0,1,2.8,1.2l56,55.9A4.5,4.5,0,0,1,212,88ZM156,84h42.3L156,41.7Z"/></svg>