<svg xmlns="http://www.w3.org/2000/svg" viewBox="0 0 256 256"><path d="M60,164H44a4,4,0,0,0-4,4v48a4,4,0,0,0,8,0V204H60a20,20,0,0,0,0-40Zm0,32H48V172H60a12,12,0,0,1,0,24Zm88-28v48a4.1,4.1,0,0,1-2.7,3.8l-1.3.2a4.2,4.2,0,0,1-3.2-1.6L112,180v36a4,4,0,0,1-8,0V168a4.1,4.1,0,0,1,2.7-3.8,4,4,0,0,1,4.5,1.4L140,204V168a4,4,0,0,1,8,0Zm72,37.8a4.3,4.3,0,0,1-.6,2.2A25.7,25.7,0,0,1,198,220c-14.3,0-26-12.6-26-28s11.7-28,26-28a24.6,24.6,0,0,1,14.3,4.6,4.1,4.1,0,0,1,1,5.6,4,4,0,0,1-5.6.9A17.2,17.2,0,0,0,198,172c-9.9,0-18,9-18,20s8.1,20,18,20a17.6,17.6,0,0,0,14-7.4V198h-8a4,4,0,0,1,0-8h12a4,4,0,0,1,4,4ZM204,128a4,4,0,0,0,8,0V88.1h0a4.5,4.5,0,0,0-1.2-2.9l-56-55.9A3.6,3.6,0,0,0,152,28H56A12,12,0,0,0,44,40v88a4,4,0,0,0,8,0V40a4,4,0,0,1,4-4h92V88a4,4,0,0,0,4,4h52ZM156,41.7,198.3,84H156Z"/></svg>