<svg xmlns="http://www.w3.org/2000/svg" viewBox="0 0 256 256"><path d="M110.7,154.8a8,8,0,0,0-13.4,0L76.4,186.2l-9.7-15.1a7.9,7.9,0,0,0-13.4,0L20.6,221.8a4,4,0,0,0-.1,4.1A3.9,3.9,0,0,0,24,228H152a3.9,3.9,0,0,0,3.5-2.1,4,4,0,0,0-.2-4.1ZM31.3,220,60,175.4l9.7,15.1a8.3,8.3,0,0,0,6.7,3.7,8.2,8.2,0,0,0,6.7-3.6L104,159.2,144.5,220ZM212,88a4.5,4.5,0,0,0-1.2-2.9l-56-55.9A3.6,3.6,0,0,0,152,28H56A12,12,0,0,0,44,40v96a4,4,0,0,0,8,0V40a4,4,0,0,1,4-4h92V88a4,4,0,0,0,4,4h52V216a4,4,0,0,1-4,4h-8a4,4,0,0,0,0,8h8a12,12,0,0,0,12-12V88.1ZM156,41.7,198.3,84H156Z"/></svg>