<svg xmlns="http://www.w3.org/2000/svg" viewBox="0 0 256 256"><path d="M76,224a4,4,0,0,1-4,4H56a12,12,0,0,1-12-12V184a4,4,0,0,1,8,0v32a4,4,0,0,0,4,4H72A4,4,0,0,1,76,224ZM80,28H56A12,12,0,0,0,44,40V64a4,4,0,0,0,8,0V40a4,4,0,0,1,4-4H80a4,4,0,0,0,0-8ZM212,88.1V136a4,4,0,0,1-8,0V92H152a4,4,0,0,1-4-4V36H120a4,4,0,0,1,0-8h33.5l.6.3h.1l.6.5,56,55.9A4.5,4.5,0,0,1,212,88ZM156,84h42.3L156,41.7Zm52,88a4,4,0,0,0-4,4v40a4,4,0,0,1-4,4h-8a4,4,0,0,0,0,8h8a12,12,0,0,0,12-12V176A4,4,0,0,0,208,172ZM48,148a4,4,0,0,0,4-4V104a4,4,0,0,0-8,0v40A4,4,0,0,0,48,148Zm104,72H112a4,4,0,0,0,0,8h40a4,4,0,0,0,0-8Z"/></svg>