<svg xmlns="http://www.w3.org/2000/svg" viewBox="0 0 256 256"><path d="M212,88a4.5,4.5,0,0,0-1.2-2.9l-56-55.9A3.6,3.6,0,0,0,152,28H56A12,12,0,0,0,44,40v88a4,4,0,0,0,8,0V40a4,4,0,0,1,4-4h92V88a4,4,0,0,0,4,4h52v36a4,4,0,0,0,8,0V88.1ZM156,41.7,198.3,84H156ZM184,164H168a4,4,0,0,0-4,4v48a4,4,0,0,0,8,0V204h12a20,20,0,0,0,0-40Zm0,32H172V172h12a12,12,0,0,1,0,24Zm-52-28v48a4,4,0,0,1-8,0V168a4,4,0,0,1,8,0ZM92,216a4,4,0,0,1-4,4H56a3.9,3.9,0,0,1-3.5-2.1,4,4,0,0,1,.2-4.1L80.5,172H56a4,4,0,0,1,0-8H88a3.9,3.9,0,0,1,3.5,2.1,4,4,0,0,1-.2,4.1L63.5,212H88A4,4,0,0,1,92,216Z"/></svg>