<svg id="Flat" xmlns="http://www.w3.org/2000/svg" viewBox="0 0 256 256">
  <path d="M210.7915,85.13446,154.82812,29.17139c-.01123-.01129-.0249-.01892-.03662-.03009a4.00427,4.00427,0,0,0-.56543-.46387c-.06787-.04529-.14355-.07483-.21337-.11578a3.97025,3.97025,0,0,0-.47413-.253c-.08886-.037-.18408-.055-.27539-.08551a3.91331,3.91331,0,0,0-.47168-.14331A4.00069,4.00069,0,0,0,152,28H55.99219a12.01375,12.01375,0,0,0-12,12V216a12.01375,12.01375,0,0,0,12,12H200a12.01375,12.01375,0,0,0,12-12V88.08c.00049-.02729.00781-.05256.00781-.08A3.983,3.983,0,0,0,210.7915,85.13446ZM156,41.65686,198.34326,84H156ZM204,216a4.00458,4.00458,0,0,1-4,4H55.99219a4.00458,4.00458,0,0,1-4-4V40a4.00458,4.00458,0,0,1,4-4H148V88a4.0002,4.0002,0,0,0,4,4h52Zm-57.37842-90.62744A32.00373,32.00373,0,1,0,143.6123,173.275l13.35254,13.35242a4.00009,4.00009,0,0,0,5.65674-5.65723l-13.352-13.35217a31.99039,31.99039,0,0,0-2.648-42.24548Zm-5.65674,39.59765A23.99948,23.99948,0,1,1,147.99414,148,23.843,23.843,0,0,1,140.96484,164.97021Z"/>
</svg>
