<svg xmlns="http://www.w3.org/2000/svg" viewBox="0 0 256 256"><path d="M48,132a4,4,0,0,0,4-4V40a4,4,0,0,1,4-4h92V88a4,4,0,0,0,4,4h52v36a4,4,0,0,0,8,0V88.1h0a4.5,4.5,0,0,0-1.2-2.9l-56-55.9A3.6,3.6,0,0,0,152,28H56A12,12,0,0,0,44,40v88A4,4,0,0,0,48,132ZM156,41.7,198.3,84H156ZM64,164H48a4,4,0,0,0-4,4v48a4,4,0,0,0,8,0V204H64a20,20,0,0,0,0-40Zm0,32H52V172H64a12,12,0,0,1,0,24Zm156-28a4,4,0,0,1-4,4H192v20h20a4,4,0,0,1,0,8H192v16a4,4,0,0,1-8,0V168a4,4,0,0,1,4-4h28A4,4,0,0,1,220,168Zm-92-4H114a4,4,0,0,0-4,4v48a4,4,0,0,0,4,4h14a28,28,0,0,0,0-56Zm0,48H118V172h10a20,20,0,0,1,0,40Z"/></svg>