<svg xmlns="http://www.w3.org/2000/svg" viewBox="0 0 256 256"><path d="M216,108H70.4l40.2-10.8h0l69.5-18.6h0L211,70.3a4,4,0,0,0,2.5-1.9,4.5,4.5,0,0,0,.4-3l-8.3-30.9a11.8,11.8,0,0,0-5.6-7.3,12.1,12.1,0,0,0-9.1-1.2L59.5,61.2h0L36.3,67.4a11.9,11.9,0,0,0-8.4,14.7L36,112.5V200a12,12,0,0,0,12,12H208a12,12,0,0,0,12-12V112A4,4,0,0,0,216,108ZM129.5,50.7l39.2,22.7L110.1,89.1,70.9,66.4Zm63.5-17h1a4.1,4.1,0,0,1,3.9,3l7.2,27-25.4,6.8L140.5,47.8ZM38.4,75.2,60,69.4,99.2,92,42.8,107.1l-7.2-27A3.9,3.9,0,0,1,38.4,75.2ZM212,200a4,4,0,0,1-4,4H48a4,4,0,0,1-4-4V116H212Z"/></svg>