<svg id="Flat" xmlns="http://www.w3.org/2000/svg" viewBox="0 0 256 256">
  <path d="M216,44H40A12.01312,12.01312,0,0,0,28,56V200a12.01312,12.01312,0,0,0,12,12H216a12.01312,12.01312,0,0,0,12-12V56A12.01312,12.01312,0,0,0,216,44Zm0,160H40a4.004,4.004,0,0,1-4-4V180H52a4,4,0,0,0,0-8H36V84H52a4,4,0,0,0,0-8H36V56a4.004,4.004,0,0,1,4-4H216a4.004,4.004,0,0,1,4,4V76H204a4,4,0,0,0,0,8h16v88H204a4,4,0,0,0,0,8h16v20A4.004,4.004,0,0,1,216,204ZM112,80a4.0002,4.0002,0,0,1-4,4H92a4,4,0,0,1,0-8h16A4.0002,4.0002,0,0,1,112,80Zm0,96a4.0002,4.0002,0,0,1-4,4H92a4,4,0,0,1,0-8h16A4.0002,4.0002,0,0,1,112,176Zm56-96a4.0002,4.0002,0,0,1-4,4H148a4,4,0,0,1,0-8h16A4.0002,4.0002,0,0,1,168,80Zm0,96a4.0002,4.0002,0,0,1-4,4H148a4,4,0,0,1,0-8h16A4.0002,4.0002,0,0,1,168,176Z"/>
</svg>
