<svg xmlns="http://www.w3.org/2000/svg" viewBox="0 0 256 256"><path d="M68,128a130.8,130.8,0,0,1-13.7,58.7,4,4,0,0,1-3.6,2.2,3.9,3.9,0,0,1-1.8-.4,4,4,0,0,1-1.8-5.4A121.9,121.9,0,0,0,60,128,67.8,67.8,0,0,1,85.5,74.9a4,4,0,0,1,5.6.6,4.1,4.1,0,0,1-.6,5.7A59.6,59.6,0,0,0,68,128Zm60-4a4,4,0,0,0-4,4,187.2,187.2,0,0,1-23.5,91,4.2,4.2,0,0,0,1.6,5.5,4.5,4.5,0,0,0,1.9.5,4,4,0,0,0,3.5-2.1A196.4,196.4,0,0,0,132,128,4,4,0,0,0,128,124Zm0-32a36.1,36.1,0,0,0-36,36,4,4,0,0,0,8,0,28,28,0,0,1,56,0,217.4,217.4,0,0,1-20.9,93.7A4,4,0,0,0,137,227a3.8,3.8,0,0,0,1.7.4,4,4,0,0,0,3.7-2.3A226.8,226.8,0,0,0,164,128,36,36,0,0,0,128,92Zm0-64A100.2,100.2,0,0,0,28,128a91.7,91.7,0,0,1-5.2,30.7,3.9,3.9,0,0,0,2.4,5.1,4,4,0,0,0,5.1-2.5A99.2,99.2,0,0,0,36,128a92,92,0,0,1,184,0,282.3,282.3,0,0,1-5.4,55.2,4,4,0,0,0,3.2,4.7h.8a4,4,0,0,0,3.9-3.2A291.6,291.6,0,0,0,228,128,100.1,100.1,0,0,0,128,28ZM93.6,156.1a3.9,3.9,0,0,0-4.7,3.1,153.2,153.2,0,0,1-17.7,46.6,4,4,0,0,0,1.5,5.5,3.5,3.5,0,0,0,2,.5,4.1,4.1,0,0,0,3.5-2,161.5,161.5,0,0,0,18.5-49A3.9,3.9,0,0,0,93.6,156.1ZM128,60a80.8,80.8,0,0,0-8.5.5A4.1,4.1,0,0,0,116,65a4,4,0,0,0,4.5,3.5A63,63,0,0,1,128,68a60,60,0,0,1,60,60,254.9,254.9,0,0,1-1.9,31.5,4,4,0,0,0,3.4,4.5h.5a4.1,4.1,0,0,0,4-3.5,270.1,270.1,0,0,0,2-32.5A68.1,68.1,0,0,0,128,60Zm56.9,128.1a4,4,0,0,0-4.8,2.9c-1.5,5.8-3.2,11.6-5.1,17.2a4,4,0,0,0,2.5,5.1l1.3.2a4.2,4.2,0,0,0,3.8-2.7c1.9-5.9,3.7-11.8,5.2-17.8A4,4,0,0,0,184.9,188.1Z"/></svg>