<svg id="Flat" xmlns="http://www.w3.org/2000/svg" viewBox="0 0 256 256">
  <path d="M68.00586,128.0094a130.696,130.696,0,0,1-13.73438,58.69433,4.00047,4.00047,0,1,1-7.16406-3.5625A122.75147,122.75147,0,0,0,60.00586,128.0094a67.71834,67.71834,0,0,1,25.49805-53.084,4.00012,4.00012,0,0,1,5.0039,6.24219A59.75391,59.75391,0,0,0,68.00586,128.0094Zm60-4a4.00019,4.00019,0,0,0-4,4,188.14011,188.14011,0,0,1-23.47363,91.04,4,4,0,1,0,6.99609,3.87988,196.15115,196.15115,0,0,0,24.47754-94.91992A4.0002,4.0002,0,0,0,128.00586,124.0094Zm0-32a36.04061,36.04061,0,0,0-36,36,4,4,0,0,0,8,0,28,28,0,0,1,56,0,218.07144,218.07144,0,0,1-20.89258,93.70019,4.00022,4.00022,0,1,0,7.23633,3.41211,226.01563,226.01563,0,0,0,21.65625-97.1123A36.04061,36.04061,0,0,0,128.00586,92.0094Zm0-64.001a100.11269,100.11269,0,0,0-100,100,91.75393,91.75393,0,0,1-5.23438,30.667,4.00013,4.00013,0,1,0,7.543,2.666,99.75234,99.75234,0,0,0,5.69141-33.333,92,92,0,0,1,184,0,286.23362,286.23362,0,0,1-5.36621,55.22656,4.00093,4.00093,0,0,0,3.15137,4.69825,4.071,4.071,0,0,0,.77734.07617,4.00267,4.00267,0,0,0,3.9209-3.22754,294.305,294.305,0,0,0,5.5166-56.77344A100.1127,100.1127,0,0,0,128.00586,28.00842ZM93.60156,156.0885a3.99683,3.99683,0,0,0-4.71582,3.124,154.73465,154.73465,0,0,1-17.65918,46.64161,4.00015,4.00015,0,1,0,6.92969,3.998,162.72659,162.72659,0,0,0,18.56934-49.04785A3.99978,3.99978,0,0,0,93.60156,156.0885Zm34.4043-96.0791a68.7229,68.7229,0,0,0-8.49512.52637,3.99952,3.99952,0,0,0,.99024,7.9375,60.92544,60.92544,0,0,1,7.50488-.46387,60.06812,60.06812,0,0,1,60,60,255.60237,255.60237,0,0,1-1.94922,31.5039,3.99966,3.99966,0,0,0,3.47363,4.46485,4.1247,4.1247,0,0,0,.5.03027,3.9994,3.9994,0,0,0,3.96387-3.50488,263.39955,263.39955,0,0,0,2.01172-32.49414A68.07728,68.07728,0,0,0,128.00586,60.0094Zm56.93262,128.125a4.00027,4.00027,0,0,0-4.8711,2.87695c-1.4873,5.78125-3.20312,11.57617-5.09961,17.22363a4.00011,4.00011,0,1,0,7.584,2.54688c1.957-5.83008,3.72754-11.81055,5.26367-17.77637A4.00014,4.00014,0,0,0,184.93848,188.1344Z"/>
</svg>
