<svg xmlns="http://www.w3.org/2000/svg" viewBox="0 0 256 256"><path d="M36,128a98.2,98.2,0,0,1-9.1,41.7,4,4,0,0,1-3.6,2.3,3.5,3.5,0,0,1-1.7-.4,3.9,3.9,0,0,1-1.9-5.3A91.3,91.3,0,0,0,28,128,100.3,100.3,0,0,1,61.3,53.5a4,4,0,1,1,5.4,5.9A92.3,92.3,0,0,0,36,128Zm140-4a4,4,0,0,0-4,4,235.1,235.1,0,0,1-17.6,89.7,3.9,3.9,0,0,0,2.2,5.2,3.7,3.7,0,0,0,1.5.3,4.1,4.1,0,0,0,3.7-2.5A242.4,242.4,0,0,0,180,128,4,4,0,0,0,176,124ZM160.8,98.7a4,4,0,0,0,5.6.3,4.1,4.1,0,0,0,.4-5.7A52,52,0,0,0,76,128a139.5,139.5,0,0,1-17.5,67.8,4.1,4.1,0,0,0,1.6,5.4,3.4,3.4,0,0,0,1.9.5,3.9,3.9,0,0,0,3.5-2A148.1,148.1,0,0,0,84,128a44,44,0,0,1,76.8-29.3ZM128,28a99.2,99.2,0,0,0-33.3,5.7,4,4,0,0,0-2.5,5.1,4,4,0,0,0,5.1,2.4A94.3,94.3,0,0,1,128,36a92.1,92.1,0,0,1,92,92,289.9,289.9,0,0,1-7,63.1,3.9,3.9,0,0,0,3,4.8h.9a4.1,4.1,0,0,0,3.9-3.1A294.1,294.1,0,0,0,228,128,100.2,100.2,0,0,0,128,28ZM112.3,204.4a4,4,0,0,0-5.4,1.9c-1.9,4.3-4.1,8.6-6.4,12.7a4.1,4.1,0,0,0,1.6,5.5,4.5,4.5,0,0,0,1.9.5,4,4,0,0,0,3.5-2.1c2.4-4.3,4.7-8.8,6.7-13.2A4,4,0,0,0,112.3,204.4ZM128,124a4,4,0,0,0-4,4,190.4,190.4,0,0,1-5.9,47,4,4,0,0,0,2.8,4.9h1a4,4,0,0,0,3.9-3,196.5,196.5,0,0,0,6.2-49A4,4,0,0,0,128,124Z"/></svg>