<svg id="Flat" xmlns="http://www.w3.org/2000/svg" viewBox="0 0 256 256">
  <path d="M36,128.0094a99.19938,99.19938,0,0,1-9.06934,41.668,4.00009,4.00009,0,1,1-7.27148-3.33594A91.25821,91.25821,0,0,0,28,128.0094,100.15651,100.15651,0,0,1,61.332,53.47327,4.00015,4.00015,0,1,1,66.668,59.4342,92.144,92.144,0,0,0,36,128.0094Zm140-4a4.0002,4.0002,0,0,0-4,4,234.69493,234.69493,0,0,1-17.63281,89.67676,3.99952,3.99952,0,1,0,7.39843,3.041A242.6343,242.6343,0,0,0,180,128.0094,4.0002,4.0002,0,0,0,176,124.0094Zm-15.20508-25.335a4.00016,4.00016,0,0,0,5.96094-5.33594A52.00078,52.00078,0,0,0,76,128.0094a140.10493,140.10493,0,0,1-17.47852,67.792,3.99973,3.99973,0,1,0,6.9961,3.87891A148.11237,148.11237,0,0,0,84,128.0094a44.00049,44.00049,0,0,1,76.79492-29.335ZM128,28.0094a99.76241,99.76241,0,0,0-33.334,5.6914,4.00013,4.00013,0,1,0,2.666,7.543A92.06686,92.06686,0,0,1,220,128.0094a285.67843,285.67843,0,0,1-7.03711,63.11426,3.99948,3.99948,0,1,0,7.80078,1.76953A293.6065,293.6065,0,0,0,228,128.0094,100.11269,100.11269,0,0,0,128,28.0094ZM112.24805,204.37366a4.0005,4.0005,0,0,0-5.30469,1.96679c-1.96875,4.29-4.13086,8.56446-6.42774,12.707a3.99973,3.99973,0,1,0,6.9961,3.87891c2.39453-4.31836,4.64941-8.77539,6.70312-13.24805A4.00142,4.00142,0,0,0,112.24805,204.37366Zm15.74023-80.36524a4.0002,4.0002,0,0,0-4,4,188.67861,188.67861,0,0,1-5.92285,47.00293,4.00028,4.00028,0,1,0,7.748,1.99414,196.70861,196.70861,0,0,0,6.1748-48.99707A4.0002,4.0002,0,0,0,127.98828,124.00842Z"/>
</svg>
