<svg id="Flat" xmlns="http://www.w3.org/2000/svg" viewBox="0 0 256 256">
  <path d="M168,100H88a36.04062,36.04062,0,0,0-36,36v8a36.04061,36.04061,0,0,0,36,36h80a36.04061,36.04061,0,0,0,36-36v-8A36.04062,36.04062,0,0,0,168,100Zm28,44a28.03146,28.03146,0,0,1-28,28H88a28.03146,28.03146,0,0,1-28-28v-8a28.03146,28.03146,0,0,1,28-28h80a28.03146,28.03146,0,0,1,28,28Zm-24-4a8,8,0,1,1-8-8A8.00917,8.00917,0,0,1,172,140Zm-72,0a8,8,0,1,1-8-8A8.00917,8.00917,0,0,1,100,140ZM208,36a28.04383,28.04383,0,0,0-27.71484,24H75.71484A28.00109,28.00109,0,0,0,20,64v80a68.07728,68.07728,0,0,0,68,68h80a68.07728,68.07728,0,0,0,68-68V64A28.03146,28.03146,0,0,0,208,36Zm20,108a60.06812,60.06812,0,0,1-60,60H88a60.06812,60.06812,0,0,1-60-60V64a20,20,0,0,1,40,0,4.0002,4.0002,0,0,0,4,4H184a4.0002,4.0002,0,0,0,4-4,20,20,0,0,1,40,0Z"/>
</svg>
