<svg id="Flat" xmlns="http://www.w3.org/2000/svg" viewBox="0 0 256 256">
  <path d="M128,236a84.0953,84.0953,0,0,1-84-84c0-22.44238,7.47217-45.5459,22.2085-68.667A3.999,3.999,0,0,1,72.023,82.31348l30.08643,23.18066,30.13134-82.86133a3.99975,3.99975,0,0,1,6.21485-1.79A235.46162,235.46162,0,0,1,175.1499,58.53516C191.96094,80.01562,212,113.667,212,152A84.0953,84.0953,0,0,1,128,236ZM70.64844,91.35352C58.271,111.91016,52,132.294,52,152a76,76,0,0,0,152,0c0-59.17188-50.93506-107.97852-66.19189-121.26758l-30.04883,82.63477a4.001,4.001,0,0,1-6.20069,1.80176Z"/>
</svg>
