<svg id="Flat" xmlns="http://www.w3.org/2000/svg" viewBox="0 0 256 256">
  <path d="M183.34131,148.61035a55.71146,55.71146,0,0,1-46.73047,46.73145,4,4,0,1,1-1.2207-7.90625,47.74213,47.74213,0,0,0,40.04492-40.0459,4,4,0,0,1,7.90625,1.2207ZM216,140a88,88,0,0,1-176,0c0-22.28516,9.65723-48.14258,28.70264-76.85352a3.99882,3.99882,0,0,1,5.55224-1.11718L110.375,86.10938l32.83643-68.957a4.00064,4.00064,0,0,1,6.4375-1.11132C184.11035,50.44434,216,89.27246,216,140Zm-8,0c0-45.88965-28.3374-82.09473-60.00879-114.27734L115.61133,93.71973a4.0005,4.0005,0,0,1-5.83008,1.60839l-36.604-24.40234C56.46826,96.94141,48,120.165,48,140a80,80,0,0,0,160,0Z"/>
</svg>
