<svg id="Flat" xmlns="http://www.w3.org/2000/svg" viewBox="0 0 256 256">
  <path d="M149.53051,16.041a4.00064,4.00064,0,0,0-6.4375,1.11132l-32.83642,68.957L74.13647,62.0293a3.99882,3.99882,0,0,0-5.55224,1.11718C49.53882,91.85742,39.88159,117.71484,39.88159,140a88,88,0,0,0,176,0C215.88159,89.27246,183.99194,50.44434,149.53051,16.041ZM127.88159,220a80.09041,80.09041,0,0,1-80-80c0-19.835,8.46826-43.05859,25.17724-69.07422l36.604,24.40234a4.0005,4.0005,0,0,0,5.83008-1.60839L147.8728,25.72266C179.54419,57.90527,207.88159,94.11035,207.88159,140A80.09041,80.09041,0,0,1,127.88159,220Z"/>
</svg>
