<svg xmlns="http://www.w3.org/2000/svg" viewBox="0 0 256 256"><path d="M183.3,148.6a55.6,55.6,0,0,1-46.7,46.7H136a4,4,0,0,1-.6-8,47.7,47.7,0,0,0,40-40A4.1,4.1,0,0,1,180,144,4,4,0,0,1,183.3,148.6ZM216,140a88,88,0,0,1-176,0c0-22.3,9.7-48.1,28.7-76.9a4.4,4.4,0,0,1,2.5-1.7,4.2,4.2,0,0,1,3.1.6l36.1,24.1,32.8-68.9a4.4,4.4,0,0,1,2.9-2.3,4.1,4.1,0,0,1,3.5,1.1C184.1,50.4,216,89.3,216,140Zm-8,0c0-45.9-28.3-82.1-60-114.3l-32.4,68a4.2,4.2,0,0,1-2.5,2.2,3.8,3.8,0,0,1-3.3-.6L73.2,70.9C56.5,96.9,48,120.2,48,140a80,80,0,0,0,160,0Z"/></svg>