<svg id="Flat" xmlns="http://www.w3.org/2000/svg" viewBox="0 0 256 256">
  <path d="M160,144a4.0002,4.0002,0,0,1-4,4H132v24a4,4,0,0,1-8,0V148H100a4,4,0,0,1,0-8h24V116a4,4,0,0,1,8,0v24h24A4.0002,4.0002,0,0,1,160,144Zm68.00781-64V208a12.01343,12.01343,0,0,1-12,12h-176a12.01343,12.01343,0,0,1-12-12V80a12.01343,12.01343,0,0,1,12-12H84V56a20.02229,20.02229,0,0,1,20-20h48a20.02229,20.02229,0,0,1,20,20V68h44.00781A12.01343,12.01343,0,0,1,228.00781,80ZM92,68h72V56a12.01375,12.01375,0,0,0-12-12H104A12.01375,12.01375,0,0,0,92,56ZM220.00781,80a4.00458,4.00458,0,0,0-4-4h-176a4.00458,4.00458,0,0,0-4,4V208a4.00458,4.00458,0,0,0,4,4h176a4.00458,4.00458,0,0,0,4-4Z"/>
</svg>
