<svg xmlns="http://www.w3.org/2000/svg" viewBox="0 0 256 256"><path d="M164,76a8,8,0,1,1-8-8A8,8,0,0,1,164,76Zm31.3,89.1c-26.3,26.4-68.9,36.8-126.8,31.4,1.7,13.4,4.1,27.6,7.4,42.6a4,4,0,0,1-3,4.8H72a4.1,4.1,0,0,1-3.9-3.1,447.6,447.6,0,0,1-7.7-45.3c-14.2-1.7-29.3-4.2-45.3-7.7a4,4,0,0,1,1.8-7.8c15,3.2,29.2,5.7,42.6,7.4C54.1,129.6,64.5,87,90.8,60.7a92.8,92.8,0,0,1,10.9-9.3h.1c39.4-28.6,93.3-20,110.1-16.4a12,12,0,0,1,9.2,9.2C225.1,62.5,235,125.6,195.3,165.1Zm-5.6-5.6,3.5-3.7a99,99,0,0,1-63.9-29.1,99,99,0,0,1-29.1-63.9l-3.7,3.5C71.7,91.2,62,132.1,67.6,188.4,123.9,194,164.8,184.3,189.7,159.5ZM213.3,45.8a4.4,4.4,0,0,0-3.1-3.1c-15.7-3.4-65.6-11.4-102.2,14A91.8,91.8,0,0,0,199.3,148C224.7,111.4,216.7,61.5,213.3,45.8Z"/></svg>