<svg id="Flat" xmlns="http://www.w3.org/2000/svg" viewBox="0 0 256 256">
  <path d="M164,76a8,8,0,1,1-8-8A8.00009,8.00009,0,0,1,164,76Zm31.34082,89.146c-26.375,26.314-68.91309,36.78662-126.82812,31.31591Q70.97216,216.572,75.90723,239.145a3.99968,3.99968,0,1,1-7.81446,1.71q-5.23681-23.93481-7.72558-45.25537-21.30175-2.4939-45.22266-7.72852a4,4,0,0,1,1.71094-7.81494q22.54541,4.93433,42.65039,7.397C54.05371,129.562,64.53223,87.03027,90.84375,60.66162a90.82146,90.82146,0,0,1,10.88721-9.302c.02978-.02075.05713-.044.08752-.064,39.37268-28.573,93.29627-20.0227,110.06824-16.39233a12.05213,12.05213,0,0,1,9.209,9.21C225.07715,62.50586,234.9873,125.58984,195.34082,165.146Zm-5.65039-5.66309q1.82337-1.81934,3.4939-3.71265A100.0142,100.0142,0,0,1,100.229,62.81079q-1.8955,1.67835-3.72216,3.50171c-24.834,24.88721-34.49512,65.8291-28.89454,122.043C123.85352,193.97461,164.79492,184.31982,189.69043,159.48291ZM213.27734,45.80615a4.03728,4.03728,0,0,0-3.084-3.084c-15.6709-3.39234-65.61011-11.3728-102.18713,13.991a91.98732,91.98732,0,0,0,91.27795,91.28C224.65332,111.42041,216.66992,61.478,213.27734,45.80615Z"/>
</svg>
