<svg xmlns="http://www.w3.org/2000/svg" viewBox="0 0 256 256"><path d="M164,76a8,8,0,1,1-8-8A8,8,0,0,1,164,76Zm38.6,81a92,92,0,0,1-13.8,14.1h-.1c-20.1,16.4-47.9,25.3-83.2,26.5L83.7,249.6A4.1,4.1,0,0,1,80,252h-.2a4,4,0,0,1-3.6-2.9L60.8,195.2,6.9,179.8A4.1,4.1,0,0,1,4,176.2a4,4,0,0,1,2.4-3.9l51.9-21.8c1.2-35.3,10.1-63.1,26.5-83.2H85A91.4,91.4,0,0,1,99,53.4c39.7-31.2,96.5-22.1,112.9-18.5a12,12,0,0,1,9.2,9.2C224.7,60.5,233.8,117.3,202.6,157ZM175,171.2a52.2,52.2,0,0,1-42.9-47.3A52.2,52.2,0,0,1,84.8,81q-17.5,27.6-18.6,72.3a4.2,4.2,0,0,1-2.5,3.6L20,175.2l45.1,13a3.7,3.7,0,0,1,2.7,2.7L80.7,236l18.4-43.8a4,4,0,0,1,3.6-2.4C132.4,189.1,156.6,182.9,175,171.2ZM213.3,45.8a4.4,4.4,0,0,0-3.1-3.1c-15.6-3.3-69.3-12.1-106.3,17A86.2,86.2,0,0,0,92,71.2V72a44,44,0,0,0,44,44,4,4,0,0,1,4,4,44,44,0,0,0,44,44h.8a86.2,86.2,0,0,0,11.5-11.9C225.4,115.1,216.6,61.4,213.3,45.8Z"/></svg>