<svg xmlns="http://www.w3.org/2000/svg" viewBox="0 0 256 256"><path d="M217.8,44.4a4,4,0,0,0-4.2.4c-30.2,22.6-56.3,11.4-84-.5s-58.1-24.9-92,.5l-.2.2-.3.3-.3.3c0,.1-.1.2-.2.3s-.1.2-.2.3-.1.2-.1.4a.4.4,0,0,0-.1.3,61654275059634.7,61654275059634.7,0,0,0-.2.8V216a4,4,0,0,0,8,0V170.1c29.5-21.1,55.2-10.1,82.4,1.6,16.5,7,33.2,14.2,50.9,14.2,13.1,0,26.7-3.9,41.1-14.7A4,4,0,0,0,220,168V48A4.2,4.2,0,0,0,217.8,44.4ZM212,166c-29.5,21-55.2,10-82.4-1.7S75.2,141,44,160.4V50.1C73.5,29,99.2,40,126.4,51.7S180.8,75,212,55.6Z"/></svg>