<svg xmlns="http://www.w3.org/2000/svg" viewBox="0 0 256 256"><path d="M217.8,44.4a4,4,0,0,0-4.2.4c-30.1,22.6-56.3,11.4-84-.5s-58.1-24.9-92,.5A4.2,4.2,0,0,0,36,48h0V216a4,4,0,0,0,8,0V170.1c29.5-21.1,55.2-10.1,82.4,1.6,16.5,7,33.2,14.2,50.9,14.2,13.1,0,26.7-3.9,41.1-14.7A4,4,0,0,0,220,168V48A4.2,4.2,0,0,0,217.8,44.4ZM212,55.6v48.5c-18.4,13.1-35.3,13.8-52,9.6V63.8C176.5,67.6,193.6,67,212,55.6Zm-60,6v49.8c-7.4-2.5-14.9-5.7-22.4-8.9s-16.9-7.3-25.6-10V42.8c7.4,2.5,14.9,5.6,22.4,8.9A265.2,265.2,0,0,0,152,61.6ZM96,40.5V90.4c-16.5-3.8-33.6-3.3-52,8.2V50.1C62.4,36.9,79.3,36.3,96,40.5ZM44,160.4V108.2c18.4-13.1,35.3-13.8,52-9.6v53.6C79.5,148.4,62.4,149,44,160.4Zm60-6V100.9c7.4,2.5,14.9,5.7,22.4,8.9s16.9,7.3,25.6,10v53.4c-7.4-2.5-14.9-5.6-22.4-8.9A265.2,265.2,0,0,0,104,154.4Zm56,21.2V121.9a78,78,0,0,0,17.3,2.1c11.2,0,22.7-2.8,34.7-10.3V166C193.6,179.1,176.7,179.7,160,175.6Z"/></svg>