<svg id="Flat" xmlns="http://www.w3.org/2000/svg" viewBox="0 0 256 256">
  <path d="M170.89648,54.24121a216.43656,216.43656,0,0,0-40.83837-33.6709,4.00171,4.00171,0,0,0-4.11622,0,216.43656,216.43656,0,0,0-40.83837,33.6709C58.21338,82.47559,44,113.51367,44,144a84,84,0,0,0,168,0C212,113.51367,197.78662,82.47559,170.89648,54.24121ZM92,184c0-32.1123,28.07422-53.74609,36-59.21191,7.93018,5.46875,36,27.10156,36,59.21191a36,36,0,0,1-72,0Zm69.94141,27.97021A43.79806,43.79806,0,0,0,172,184c0-41.78418-40.22949-66.40234-41.94189-67.42969a4.00171,4.00171,0,0,0-4.11622,0C124.22949,117.59766,84,142.21582,84,184a43.79806,43.79806,0,0,0,10.05859,27.97021A76.0721,76.0721,0,0,1,52,144c0-62.48438,63.63965-107.17383,76-115.25977C140.36035,36.82617,204,81.51562,204,144A76.0721,76.0721,0,0,1,161.94141,211.97021Z"/>
</svg>
