<svg xmlns="http://www.w3.org/2000/svg" viewBox="0 0 256 256"><path d="M220.2,201.8l-63.6-106a3.6,3.6,0,0,1-.6-2V36h12a4,4,0,0,0,0-8H88a4,4,0,0,0,0,8h12V93.8a3.6,3.6,0,0,1-.6,2L59.2,162.9h0L35.8,201.8a11.9,11.9,0,0,0-.1,12.1A11.7,11.7,0,0,0,46.1,220H209.9a11.7,11.7,0,0,0,10.4-6.1A11.9,11.9,0,0,0,220.2,201.8ZM106.3,100a12.3,12.3,0,0,0,1.7-6.2V36h40V93.8a12.3,12.3,0,0,0,1.7,6.2l40.9,68.1c-14.5,10.3-35.4,9-60.8-3.7-16.1-8-37.6-15.1-56.7-9.1ZM213.4,210a4.1,4.1,0,0,1-3.5,2H46.1a4.1,4.1,0,0,1-3.5-2,4.2,4.2,0,0,1,.1-4.1l22.9-38.1c14.5-10.1,35.4-8.8,60.6,3.8,16.6,8.3,30.3,11.4,41.3,11.4s20.7-3.5,27.2-8l18.6,30.9A4.2,4.2,0,0,1,213.4,210Z"/></svg>