<svg id="Flat" xmlns="http://www.w3.org/2000/svg" viewBox="0 0 256 256">
  <path d="M184.00244,20h-112a12.01312,12.01312,0,0,0-12,12V77.333a12.07937,12.07937,0,0,0,2.39942,7.20117l20.80078,27.73144a4.03085,4.03085,0,0,1,.7998,2.40137V224a12.01312,12.01312,0,0,0,12,12h64a12.01312,12.01312,0,0,0,12-12V114.667a4.02573,4.02573,0,0,1,.79981-2.40039L193.603,84.5332a12.07437,12.07437,0,0,0,2.39941-7.20019V32A12.01312,12.01312,0,0,0,184.00244,20Zm-112,8h112a4.004,4.004,0,0,1,4,4V60h-120V32A4.004,4.004,0,0,1,72.00244,28Zm115.2002,51.7334-20.80078,27.7334a12.07431,12.07431,0,0,0-2.39942,7.20019V224a4.004,4.004,0,0,1-4,4h-64a4.004,4.004,0,0,1-4-4V114.667a12.07943,12.07943,0,0,0-2.39941-7.20117L68.80225,79.73438a4.03079,4.03079,0,0,1-.79981-2.40137V68h120v9.333A4.02578,4.02578,0,0,1,187.20264,79.7334ZM132.00244,120v32a4,4,0,0,1-8,0V120a4,4,0,0,1,8,0Z"/>
</svg>
