<svg xmlns="http://www.w3.org/2000/svg" viewBox="0 0 256 256"><path d="M184,20H72A12,12,0,0,0,60,32V77.3a12.2,12.2,0,0,0,2.4,7.2l20.8,27.8a4.1,4.1,0,0,1,.8,2.4V224a12,12,0,0,0,12,12h64a12,12,0,0,0,12-12V114.7a4.1,4.1,0,0,1,.8-2.4l20.8-27.8a12.2,12.2,0,0,0,2.4-7.2V32A12,12,0,0,0,184,20ZM72,28H184a4,4,0,0,1,4,4V60H68V32A4,4,0,0,1,72,28ZM187.2,79.7l-20.8,27.8a12.2,12.2,0,0,0-2.4,7.2V224a4,4,0,0,1-4,4H96a4,4,0,0,1-4-4V114.7a12.2,12.2,0,0,0-2.4-7.2L68.8,79.7a4.1,4.1,0,0,1-.8-2.4V68H188v9.3A4.1,4.1,0,0,1,187.2,79.7ZM132,120v32a4,4,0,0,1-8,0V120a4,4,0,0,1,8,0Z"/></svg>