<svg id="Flat" xmlns="http://www.w3.org/2000/svg" viewBox="0 0 256 256">
  <path d="M220.16016,201.82617,156.56982,95.8418A4.00359,4.00359,0,0,1,156,93.78418V36h12a4,4,0,0,0,0-8H88a4,4,0,0,0,0,8h12V93.78418a4.00359,4.00359,0,0,1-.56982,2.05762L59.2168,162.864c-.01709.02808-.03418.05591-.05078.08435L35.83984,201.82617A11.99954,11.99954,0,0,0,46.12939,220H209.87061a11.99954,11.99954,0,0,0,10.28955-18.17383ZM106.29,99.958A12.00242,12.00242,0,0,0,108,93.78418V36h40V93.78418a12.00242,12.00242,0,0,0,1.71,6.17383l40.88818,68.14709c-14.5039,10.24805-35.43115,9.0055-60.80908-3.68274-16.06347-8.03174-37.60449-15.14135-56.6792-9.16406ZM213.35156,209.9707a3.92612,3.92612,0,0,1-3.481,2.0293H46.12939a3.9999,3.9999,0,0,1-3.43017-6.05762l22.91406-38.18994c14.48145-10.08008,35.40772-8.77,60.59766,3.8252,16.63379,8.31689,30.25195,11.41845,41.3125,11.41845,11.79052,0,20.6665-3.52807,27.19922-8.01709l18.57812,30.96338A3.926,3.926,0,0,1,213.35156,209.9707Z"/>
</svg>
