<svg id="Flat" xmlns="http://www.w3.org/2000/svg" viewBox="0 0 256 256">
  <path d="M208,35.99963H91.31348a11.921,11.921,0,0,0-8.48536,3.51563l-43.313,43.3125A11.92275,11.92275,0,0,0,36,91.31409V207.99963a12.01343,12.01343,0,0,0,12,12H208a12.01343,12.01343,0,0,0,12-12v-160A12.01344,12.01344,0,0,0,208,35.99963Zm4,172a4.00426,4.00426,0,0,1-4,4H48a4.00426,4.00426,0,0,1-4-4V91.31409A3.9733,3.9733,0,0,1,45.17187,88.485l43.314-43.31347a3.97072,3.97072,0,0,1,2.82764-1.17188H156V76.0094H96a4,4,0,0,0,0,8h64a4.0002,4.0002,0,0,0,4-4V43.99963h44a4.00427,4.00427,0,0,1,4,4ZM128.00586,116.0094a32,32,0,1,0,32,32A32.03635,32.03635,0,0,0,128.00586,116.0094Zm0,56a24,24,0,1,1,24-24A24.02718,24.02718,0,0,1,128.00586,172.0094Z"/>
</svg>
