<svg id="Flat" xmlns="http://www.w3.org/2000/svg" viewBox="0 0 256 256">
  <path d="M216.48535,82.82873l-43.31348-43.3125a11.91619,11.91619,0,0,0-8.48535-3.5166H48a12.01312,12.01312,0,0,0-12,12v160a12.01312,12.01312,0,0,0,12,12H79.91284c.02979.00074.05737.00879.08716.00879s.05737-.008.08716-.00879h95.82568c.02979.00074.05737.00879.08716.00879s.05737-.008.08716-.00879H208a12.01312,12.01312,0,0,0,12-12V91.31409A11.91838,11.91838,0,0,0,216.48535,82.82873ZM172,211.99963H84V152.00842a4.004,4.004,0,0,1,4-4h80a4.004,4.004,0,0,1,4,4Zm40-4a4.004,4.004,0,0,1-4,4H180V152.00842a12.01312,12.01312,0,0,0-12-12H88a12.01312,12.01312,0,0,0-12,12v59.99121H48a4.004,4.004,0,0,1-4-4v-160a4.004,4.004,0,0,1,4-4H164.68652a4.02633,4.02633,0,0,1,2.82813,1.17188L210.8291,88.485A3.97639,3.97639,0,0,1,212,91.31409ZM156,72.0094a4.0002,4.0002,0,0,1-4,4H96a4,4,0,0,1,0-8h56A4.0002,4.0002,0,0,1,156,72.0094Z"/>
</svg>
