<svg id="Flat" xmlns="http://www.w3.org/2000/svg" viewBox="0 0 256 256">
  <path d="M247.01172,123.28906a11.85553,11.85553,0,0,0-7.37305-5.60156,77.94121,77.94121,0,0,0-31.98633-1.02295c4.53907-19.72266,1.623-35.25342-1.313-44.29346a11.96839,11.96839,0,0,0-13.90821-8.02832A79.74731,79.74731,0,0,0,163.7168,77.08984a90.58717,90.58717,0,0,0-28.51075-37.08007,11.96508,11.96508,0,0,0-14.4121.001A90.57885,90.57885,0,0,0,92.2832,77.08984,79.74932,79.74932,0,0,0,63.56934,64.34277a11.96879,11.96879,0,0,0-13.9087,8.0293c-2.936,9.03906-5.852,24.57031-1.313,44.29248a77.95793,77.95793,0,0,0-31.98633,1.02295,11.95881,11.95881,0,0,0-8.53711,14.78711c3.375,12.06641,13.74512,35.02832,45.28613,53.23828C84.7749,203.99414,112.87842,204,127.98438,204l.01171.001L128,204.00049l.00391.00049.01171-.001c15.106,0,43.20948-.00586,74.874-18.28711,31.541-18.21,41.91113-41.17187,45.28613-53.23828A11.85252,11.85252,0,0,0,247.01172,123.28906ZM194.0957,72.167a3.99548,3.99548,0,0,1,4.63477,2.67578c2.9082,8.95411,5.76953,24.98682-.32813,45.53614a4.02737,4.02737,0,0,0-.189.64795,108.397,108.397,0,0,1-9.96484,22.61962,128.53907,128.53907,0,0,1-33.57569,37.61817c-.83642.63183-1.667,1.23877-2.49316,1.832C162.28223,169.79688,172,149.374,172,120a112.06092,112.06092,0,0,0-5.37451-35.16748A72.28407,72.28407,0,0,1,194.0957,72.167ZM125.5791,46.42188a4.01863,4.01863,0,0,1,4.8418-.001C140.51709,53.957,164,76.21289,164,120c0,23.05664-6.36133,42.9209-18.90625,59.041A75.7999,75.7999,0,0,1,128,195.28613,75.7999,75.7999,0,0,1,110.90625,179.041C98.36133,162.9209,92,143.05664,92,120,92,76.21289,115.48291,53.957,125.5791,46.42188ZM57.26953,74.84375A3.99483,3.99483,0,0,1,61.90479,72.167,72.28121,72.28121,0,0,1,89.374,84.83252,112.07816,112.07816,0,0,0,84,120c0,29.374,9.71777,49.79688,19.82031,63.09668-.82617-.59326-1.65674-1.2002-2.49316-1.832a128.53907,128.53907,0,0,1-33.57569-37.61817,108.334,108.334,0,0,1-9.99218-22.7124,3.98872,3.98872,0,0,0-.15918-.54638C51.499,99.834,54.36133,83.79834,57.26953,74.84375ZM15.52881,130.32031a3.95868,3.95868,0,0,1,2.81933-4.88281c6.94874-1.78125,18.09131-3.18555,32.38672-.18506a117.552,117.552,0,0,0,10.08838,22.394c12.8794,22.30762,31.65674,38.3501,46.84131,47.54493a124.27327,124.27327,0,0,1-50.5542-16.40625C28.02783,161.99414,18.5752,141.21289,15.52881,130.32031Zm224.94238,0c-3.04639,10.89258-12.499,31.67383-41.58154,48.46485a124.27327,124.27327,0,0,1-50.5542,16.40625c15.18457-9.19483,33.96191-25.23731,46.84131-47.54493a117.57532,117.57532,0,0,0,10.08789-22.39355c14.29541-3.001,25.43847-1.59668,32.38721.18457a3.95868,3.95868,0,0,1,2.81933,4.88281Z"/>
</svg>
