<svg id="Flat" xmlns="http://www.w3.org/2000/svg" viewBox="0 0 256 256">
  <path d="M243.32715,82.21777c.06445-.09668.1084-.20117.16357-.30175a4.09861,4.09861,0,0,0,.20362-.38623,3.96368,3.96368,0,0,0,.12548-.40528c.0337-.11426.07764-.22314.10108-.34131a4.00772,4.00772,0,0,0,0-1.5664c-.02344-.11817-.06738-.22705-.10108-.34131a2.33107,2.33107,0,0,0-.3291-.79151c-.05517-.10058-.09912-.20507-.16357-.30175a4.00885,4.00885,0,0,0-.50147-.6128L202.82812,37.17188a3.99957,3.99957,0,0,0-5.65624,5.65624L230.34277,76H176a52.059,52.059,0,0,0-52,52,44.04978,44.04978,0,0,1-44,44H75.74121a32,32,0,1,0,0,8H80a52.059,52.059,0,0,0,52-52,44.04978,44.04978,0,0,1,44-44h54.34277l-33.17089,33.17188a3.99957,3.99957,0,1,0,5.65624,5.65624l39.99756-39.99755A4.00885,4.00885,0,0,0,243.32715,82.21777ZM44,200a24,24,0,1,1,24-24A24.0275,24.0275,0,0,1,44,200Z"/>
</svg>
