<svg xmlns="http://www.w3.org/2000/svg" viewBox="0 0 256 256"><path d="M206.4,136.3c-6.1-3.5-15-6.3-26.9-8.3,11.9-2,20.8-4.8,26.9-8.3a32,32,0,0,0-32-55.4c-6.1,3.5-13,9.9-20.6,19.1C157.9,72.1,160,62.9,160,56a32,32,0,0,0-64,0c0,6.9,2.1,16.1,6.2,27.4-7.6-9.2-14.5-15.6-20.6-19.1a32,32,0,0,0-32,55.4c6.1,3.5,15,6.3,26.9,8.3-11.9,2-20.8,4.8-26.9,8.3A32,32,0,0,0,65.7,196a31.7,31.7,0,0,0,15.9-4.3c6.1-3.5,13-9.9,20.6-19.1C98.1,183.9,96,193.1,96,200a32,32,0,0,0,64,0c0-6.9-2.1-16.1-6.2-27.4,7.6,9.2,14.5,15.6,20.6,19.1a31.7,31.7,0,0,0,15.9,4.3,32,32,0,0,0,16.1-59.7ZM128,152a24,24,0,1,1,24-24A24.1,24.1,0,0,1,128,152Zm50.4-80.8a24,24,0,0,1,24,41.6c-7.9,4.5-22.6,7.8-42.9,9.7a31.5,31.5,0,0,0-11-19C160.2,86.9,170.5,75.7,178.4,71.2ZM128,32a24.1,24.1,0,0,1,24,24c0,9-4.5,23.5-13,42a31.3,31.3,0,0,0-22,0c-8.5-18.5-13-33-13-42A24.1,24.1,0,0,1,128,32ZM44.9,80a23.9,23.9,0,0,1,32.7-8.8c7.9,4.5,18.2,15.7,29.9,32.3a31.5,31.5,0,0,0-11,19c-20.3-1.9-35-5.2-42.9-9.7A24,24,0,0,1,44.9,80ZM77.6,184.8a24,24,0,0,1-24-41.6c7.9-4.5,22.6-7.8,42.9-9.7a31.5,31.5,0,0,0,11,19C95.8,169.1,85.5,180.3,77.6,184.8ZM128,224a24.1,24.1,0,0,1-24-24c0-9,4.5-23.5,13-42a31.3,31.3,0,0,0,22,0c8.5,18.5,13,33,13,42A24.1,24.1,0,0,1,128,224Zm83.1-48a23.9,23.9,0,0,1-32.7,8.8c-7.9-4.5-18.2-15.7-29.9-32.3a31.5,31.5,0,0,0,11-19c20.3,1.9,35,5.2,42.9,9.7A24,24,0,0,1,211.1,176Z"/></svg>