<svg xmlns="http://www.w3.org/2000/svg" viewBox="0 0 256 256"><path d="M247,123.3a11.7,11.7,0,0,0-7.4-5.6,77.8,77.8,0,0,0-31.9-1c4.5-19.8,1.6-35.3-1.4-44.3a12,12,0,0,0-13.9-8.1,80.3,80.3,0,0,0-28.7,12.8A91,91,0,0,0,135.2,40a12,12,0,0,0-14.4,0A91,91,0,0,0,92.3,77.1,80.3,80.3,0,0,0,63.6,64.3a12,12,0,0,0-13.9,8.1c-3,9-5.9,24.5-1.4,44.3a77.8,77.8,0,0,0-31.9,1A11.7,11.7,0,0,0,9,123.3a12.3,12.3,0,0,0-1.2,9.2c3.4,12,13.8,35,45.3,53.2S112.9,204,128,204h0c15.1,0,43.2,0,74.9-18.3s41.9-41.2,45.3-53.2A12.3,12.3,0,0,0,247,123.3ZM194.1,72.2a3.9,3.9,0,0,1,4.6,2.6c2.9,9,5.8,25-.3,45.6-.1.2-.1.4-.2.6a101.2,101.2,0,0,1-10,22.6,128,128,0,0,1-33.5,37.7l-2.5,1.8C162.3,169.8,172,149.4,172,120a111.3,111.3,0,0,0-5.4-35.2A71.6,71.6,0,0,1,194.1,72.2ZM125.6,46.4a4,4,0,0,1,4.8,0C140.5,54,164,76.2,164,120c0,23.1-6.4,42.9-18.9,59A75,75,0,0,1,128,195.3,75,75,0,0,1,110.9,179C98.4,162.9,92,143.1,92,120,92,76.2,115.5,54,125.6,46.4ZM57.3,74.8a3.9,3.9,0,0,1,4.6-2.6A71.6,71.6,0,0,1,89.4,84.8,111.3,111.3,0,0,0,84,120c0,29.4,9.7,49.8,19.8,63.1l-2.5-1.8a128,128,0,0,1-33.5-37.7,101.8,101.8,0,0,1-10-22.7l-.2-.5C51.5,99.8,54.4,83.8,57.3,74.8ZM15.5,130.3a3.9,3.9,0,0,1,.4-3,4.5,4.5,0,0,1,2.4-1.9,72.9,72.9,0,0,1,32.4-.1,119.4,119.4,0,0,0,10.1,22.3C73.7,170,92.5,186,107.7,195.2a124.2,124.2,0,0,1-50.6-16.4C28,162,18.6,141.2,15.5,130.3Zm225,0c-3.1,10.9-12.5,31.7-41.6,48.5a124.2,124.2,0,0,1-50.6,16.4c15.2-9.2,34-25.2,46.9-47.6a119.4,119.4,0,0,0,10.1-22.3,72.9,72.9,0,0,1,32.4.1,4.5,4.5,0,0,1,2.4,1.9A3.9,3.9,0,0,1,240.5,130.3Z"/></svg>