<svg id="Flat" xmlns="http://www.w3.org/2000/svg" viewBox="0 0 256 256">
  <path d="M206.354,136.28711c-6.01123-3.4707-15.002-6.24023-26.83154-8.28711,11.82959-2.04688,20.82031-4.81641,26.83154-8.28711a32.00007,32.00007,0,0,0-32-55.42578c-6.01123,3.47021-12.90478,9.87158-20.59179,19.0918C157.90332,72.11182,160,62.94141,160,56a32,32,0,0,0-64,0c0,6.94141,2.09668,16.11182,6.23779,27.37891-7.687-9.21973-14.58056-15.6211-20.59179-19.0918a32.00007,32.00007,0,0,0-32,55.42578C55.65723,123.18359,64.648,125.95312,76.47754,128c-11.82959,2.04688-20.82031,4.81641-26.83154,8.28711a32.00007,32.00007,0,0,0,32,55.42578c6.01123-3.47021,12.90478-9.87158,20.59179-19.0918C98.09668,183.88818,96,193.05859,96,200a32,32,0,0,0,64,0c0-6.94141-2.09668-16.11182-6.23779-27.37891,7.687,9.21973,14.58056,15.6211,20.59179,19.0918a32.00007,32.00007,0,0,0,32-55.42578ZM128,152a24,24,0,1,1,24-24A24.0275,24.0275,0,0,1,128,152Zm50.35352-80.78516A24.0006,24.0006,0,0,1,202.354,112.78516c-7.82568,4.51709-22.59179,7.86132-42.83593,9.72021a32.003,32.003,0,0,0-11.00733-19.04394C160.24463,86.85352,170.52637,75.73389,178.35352,71.21484ZM128,32a24.0275,24.0275,0,0,1,24,24c0,9.03516-4.48584,23.49268-12.99561,41.9502a32.02233,32.02233,0,0,0-22.00878,0C108.48584,79.49268,104,65.03516,104,56A24.0275,24.0275,0,0,1,128,32ZM44.86133,80A24.02775,24.02775,0,0,1,77.646,71.21484c7.82812,4.51905,18.10937,15.63965,29.84326,32.24659a32.003,32.003,0,0,0-11.00733,19.04394c-20.24414-1.85889-35.01025-5.20312-42.83545-9.72021A24.02833,24.02833,0,0,1,44.86133,80ZM77.64648,184.78516A24.0006,24.0006,0,0,1,53.646,143.21484c7.82568-4.51709,22.59179-7.86132,42.83593-9.72021a32.003,32.003,0,0,0,11.00733,19.04394C95.75537,169.14648,85.47363,180.26611,77.64648,184.78516ZM128,224a24.0275,24.0275,0,0,1-24-24c0-9.03516,4.48584-23.49268,12.99561-41.9502a32.02233,32.02233,0,0,0,22.00878,0C147.51416,176.50732,152,190.96484,152,200A24.0275,24.0275,0,0,1,128,224Zm83.13867-48a24.0269,24.0269,0,0,1-32.78467,8.78516c-7.82812-4.519-18.10937-15.63965-29.84326-32.24659a32.003,32.003,0,0,0,11.00733-19.04394c20.24414,1.85889,35.01025,5.20312,42.83545,9.72021A24.02833,24.02833,0,0,1,211.13867,176Z"/>
</svg>
