<svg xmlns="http://www.w3.org/2000/svg" viewBox="0 0 256 256"><path d="M216,76H130.7a4.1,4.1,0,0,1-2.4-.8L100.5,54.4A12.2,12.2,0,0,0,93.3,52H40A12,12,0,0,0,28,64V200a12,12,0,0,0,12,12H216.9A11.1,11.1,0,0,0,228,200.9V88A12,12,0,0,0,216,76Zm4,124.9a3.1,3.1,0,0,1-3.1,3.1H40a4,4,0,0,1-4-4V64a4,4,0,0,1,4-4H93.3a4.1,4.1,0,0,1,2.4.8l27.8,20.8a12.2,12.2,0,0,0,7.2,2.4H216a4,4,0,0,1,4,4ZM156,144a4,4,0,0,1-4,4H132v20a4,4,0,0,1-8,0V148H104a4,4,0,0,1,0-8h20V120a4,4,0,0,1,8,0v20h20A4,4,0,0,1,156,144Z"/></svg>