<svg xmlns="http://www.w3.org/2000/svg" viewBox="0 0 256 256"><path d="M36,64V200a4,4,0,0,0,4,4h80a4,4,0,0,1,0,8H40a12,12,0,0,1-12-12V64A12,12,0,0,1,40,52H93.3a12.2,12.2,0,0,1,7.2,2.4l27.8,20.8a4.1,4.1,0,0,0,2.4.8H216a12,12,0,0,1,12,12v32a4,4,0,0,1-8,0V88a4,4,0,0,0-4-4H130.7a12.2,12.2,0,0,1-7.2-2.4L95.7,60.8a4.1,4.1,0,0,0-2.4-.8H40A4,4,0,0,0,36,64ZM238.5,164.7l-24.4,20.2,7.4,30.1a4.1,4.1,0,0,1-1.4,4.2,4.3,4.3,0,0,1-2.4.8,4.2,4.2,0,0,1-2.1-.6L188,203.2l-27.6,16.2a3.9,3.9,0,0,1-4.5-.2,4.1,4.1,0,0,1-1.4-4.2l7.4-30.1-24.4-20.2a3.9,3.9,0,0,1-1.3-4.3,4.3,4.3,0,0,1,3.5-2.8l32.2-2.5,12.4-28.7a4.1,4.1,0,0,1,7.4,0l12.4,28.7,32.2,2.5a4.3,4.3,0,0,1,3.5,2.8A3.9,3.9,0,0,1,238.5,164.7Zm-12.7.1L201,162.9a3.9,3.9,0,0,1-3.3-2.4L188,138.1l-9.7,22.4a3.9,3.9,0,0,1-3.3,2.4l-24.8,1.9,18.7,15.5a4,4,0,0,1,1.4,4.1l-5.8,23.3L186,195.1a3.6,3.6,0,0,1,4,0l21.5,12.6-5.8-23.3a4,4,0,0,1,1.4-4.1Z"/></svg>