<svg xmlns="http://www.w3.org/2000/svg" viewBox="0 0 256 256"><path d="M120.6,204H39.4a3.4,3.4,0,0,1-3.4-3.4V84H216a4,4,0,0,1,4,4v32a4,4,0,0,0,8,0V88a12,12,0,0,0-12-12H129.7L101.2,47.5A11.9,11.9,0,0,0,92.7,44H40A12,12,0,0,0,28,56V200.6A11.4,11.4,0,0,0,39.4,212h81.2a4,4,0,1,0,0-8ZM36,56a4,4,0,0,1,4-4H92.7a3.8,3.8,0,0,1,2.8,1.2L118.3,76H36ZM239.8,160.4a4.3,4.3,0,0,0-3.5-2.8l-32.2-2.5-12.4-28.7a4.1,4.1,0,0,0-7.4,0l-12.4,28.7-32.2,2.5a4.3,4.3,0,0,0-3.5,2.8,3.9,3.9,0,0,0,1.3,4.3l24.4,20.2L154.5,215a4.1,4.1,0,0,0,1.4,4.2,3.9,3.9,0,0,0,4.5.2L188,203.2l27.6,16.2a4.2,4.2,0,0,0,2.1.6,4.3,4.3,0,0,0,2.4-.8,4.1,4.1,0,0,0,1.4-4.2l-7.4-30.1,24.4-20.2A3.9,3.9,0,0,0,239.8,160.4Zm-32.7,19.9a4,4,0,0,0-1.4,4.1l5.8,23.3L190,195.1a3.6,3.6,0,0,0-4,0l-21.5,12.6,5.8-23.3a4,4,0,0,0-1.4-4.1l-18.7-15.5,24.8-1.9a3.9,3.9,0,0,0,3.3-2.4l9.7-22.4,9.7,22.4a3.9,3.9,0,0,0,3.3,2.4l24.8,1.9Z"/></svg>