<svg xmlns="http://www.w3.org/2000/svg" viewBox="0 0 256 256"><path d="M203.3,195.4a28,28,0,1,0-30.6,0A36.4,36.4,0,0,0,153.1,219a4.2,4.2,0,0,0,2.9,4.9h1a4.1,4.1,0,0,0,3.9-3,28,28,0,0,1,54.2,0,4,4,0,0,0,7.8-2A36.4,36.4,0,0,0,203.3,195.4ZM168,172a20,20,0,1,1,20,20A20.1,20.1,0,0,1,168,172Zm60-84v32a4,4,0,0,1-8,0V88a4,4,0,0,0-4-4H130.7a12.2,12.2,0,0,1-7.2-2.4L95.7,60.8a4.1,4.1,0,0,0-2.4-.8H40a4,4,0,0,0-4,4V200a4,4,0,0,0,4,4h80a4,4,0,0,1,0,8H40a12,12,0,0,1-12-12V64A12,12,0,0,1,40,52H93.3a12.2,12.2,0,0,1,7.2,2.4l27.8,20.8a4.1,4.1,0,0,0,2.4.8H216A12,12,0,0,1,228,88Z"/></svg>