<svg xmlns="http://www.w3.org/2000/svg" viewBox="0 0 256 256"><path d="M92,208a4,4,0,0,1-4,4H39.4A11.4,11.4,0,0,1,28,200.6V192a4,4,0,0,1,8,0v8.6a3.4,3.4,0,0,0,3.4,3.4H88A4,4,0,0,1,92,208Zm68-4H128a4,4,0,0,0,0,8h32a4,4,0,0,0,0-8Zm64-56a4,4,0,0,0-4,4v48.9a3.1,3.1,0,0,1-3.1,3.1H200a4,4,0,0,0,0,8h16.9A11.1,11.1,0,0,0,228,200.9V152A4,4,0,0,0,224,148Zm-8-72H168a4,4,0,0,0,0,8h48a4,4,0,0,1,4,4v24a4,4,0,0,0,8,0V88A12,12,0,0,0,216,76ZM28,80V56A12,12,0,0,1,40,44H92.7a11.9,11.9,0,0,1,8.5,3.5l29.6,29.7a3.8,3.8,0,0,1,.9,4.3A4,4,0,0,1,128,84H32A4,4,0,0,1,28,80Zm8-4h82.3L95.5,53.2A3.8,3.8,0,0,0,92.7,52H40a4,4,0,0,0-4,4Zm-4,80a4,4,0,0,0,4-4V120a4,4,0,0,0-8,0v32A4,4,0,0,0,32,156Z"/></svg>