<svg xmlns="http://www.w3.org/2000/svg" viewBox="0 0 256 256"><path d="M238.6,113a11.6,11.6,0,0,0-9.7-5H212V88a12,12,0,0,0-12-12H130.7a4.1,4.1,0,0,1-2.4-.8L100.5,54.4A12.2,12.2,0,0,0,93.3,52H40A12,12,0,0,0,28,64V208h0a3.4,3.4,0,0,0,.7,2.2A4,4,0,0,0,32,212H208a4.1,4.1,0,0,0,3.8-2.7l28.5-85.5A11.9,11.9,0,0,0,238.6,113ZM40,60H93.3a4.1,4.1,0,0,1,2.4.8l27.8,20.8a12.2,12.2,0,0,0,7.2,2.4H200a4,4,0,0,1,4,4v20H146.4a11.7,11.7,0,0,0-6.6,2l-20,13.3a3.6,3.6,0,0,1-2.2.7H69.4a12,12,0,0,0-11.1,7.5L36,187.2V64A4,4,0,0,1,40,60Zm192.7,61.3L205.1,204H37.9l27.8-69.5a4,4,0,0,1,3.7-2.5h48.2a11.7,11.7,0,0,0,6.6-2l20-13.3a3.6,3.6,0,0,1,2.2-.7h82.5a3.7,3.7,0,0,1,3.2,1.7A3.8,3.8,0,0,1,232.7,121.3Z"/></svg>