<svg id="Flat" xmlns="http://www.w3.org/2000/svg" viewBox="0 0 256 256">
  <path d="M216,76H129.3335L100.5332,54.40015A12.07358,12.07358,0,0,0,93.3335,52H40A12.01359,12.01359,0,0,0,28,64V200a12.01375,12.01375,0,0,0,12,12H216a12.01375,12.01375,0,0,0,12-12V88A12.01359,12.01359,0,0,0,216,76ZM36,64a4.00458,4.00458,0,0,1,4-4H93.3335a4.0251,4.0251,0,0,1,2.3999.8L121.333,80,95.7334,99.2a4.0251,4.0251,0,0,1-2.3999.8H36ZM220,200a4.00458,4.00458,0,0,1-4,4H40a4.00458,4.00458,0,0,1-4-4V108H93.3335a12.07358,12.07358,0,0,0,7.1997-2.40015L129.3335,84H216a4.00458,4.00458,0,0,1,4,4Z"/>
</svg>
