<svg id="Flat" xmlns="http://www.w3.org/2000/svg" viewBox="0 0 256 256">
  <path d="M156,144a4.0002,4.0002,0,0,1-4,4H104a4,4,0,0,1,0-8h48A4.0002,4.0002,0,0,1,156,144Zm72-56V200.88867A11.12373,11.12373,0,0,1,216.88867,212H40a12.01375,12.01375,0,0,1-12-12V64A12.01375,12.01375,0,0,1,40,52H93.3335a12.07667,12.07667,0,0,1,7.1997,2.3999l27.7334,20.79981A4.02373,4.02373,0,0,0,130.6665,76H216A12.01375,12.01375,0,0,1,228,88Zm-8,0a4.00458,4.00458,0,0,0-4-4H130.6665a12.07667,12.07667,0,0,1-7.1997-2.3999L95.7334,60.80029A4.02373,4.02373,0,0,0,93.3335,60H40a4.00458,4.00458,0,0,0-4,4V200a4.00458,4.00458,0,0,0,4,4H216.88867A3.11456,3.11456,0,0,0,220,200.88867Z"/>
</svg>
