<svg xmlns="http://www.w3.org/2000/svg" viewBox="0 0 256 256"><path d="M224,160H212v-8a24,24,0,0,0-48,0v8H152a4,4,0,0,0-4,4v44a4,4,0,0,0,4,4h72a4,4,0,0,0,4-4V164A4,4,0,0,0,224,160Zm-52-8a16,16,0,0,1,32,0v8H172Zm48,52H156V168h64ZM216,76H129.7L101.2,47.5A11.9,11.9,0,0,0,92.7,44H40A12,12,0,0,0,28,56V200.6A11.4,11.4,0,0,0,39.4,212h73.2a4,4,0,1,0,0-8H39.4a3.4,3.4,0,0,1-3.4-3.4V84H216a4,4,0,0,1,4,4v16a4,4,0,0,0,8,0V88A12,12,0,0,0,216,76ZM40,52H92.7a3.6,3.6,0,0,1,2.8,1.2L118.3,76H36V56A4,4,0,0,1,40,52Z"/></svg>