<svg id="Flat" xmlns="http://www.w3.org/2000/svg" viewBox="0 0 256 256">
  <path d="M216,76H130.6665a4.02373,4.02373,0,0,1-2.3999-.80029L100.5332,54.3999A12.07667,12.07667,0,0,0,93.3335,52H40A12.01375,12.01375,0,0,0,28,64V200a12.01375,12.01375,0,0,0,12,12H216.88867A11.12373,11.12373,0,0,0,228,200.88867V88A12.01375,12.01375,0,0,0,216,76Zm4,124.88867A3.11456,3.11456,0,0,1,216.88867,204H40a4.00458,4.00458,0,0,1-4-4V64a4.00458,4.00458,0,0,1,4-4H93.3335a4.02373,4.02373,0,0,1,2.3999.80029L123.4668,81.6001A12.07667,12.07667,0,0,0,130.6665,84H216a4.00458,4.00458,0,0,1,4,4ZM156,144a4.0002,4.0002,0,0,1-4,4H132v20a4,4,0,0,1-8,0V148H104a4,4,0,0,1,0-8h20V120a4,4,0,0,1,8,0v20h20A4.0002,4.0002,0,0,1,156,144Z"/>
</svg>
