<svg xmlns="http://www.w3.org/2000/svg" viewBox="0 0 256 256"><path d="M203.3,195.4a28,28,0,1,0-30.6,0A36.4,36.4,0,0,0,153.1,219a4.2,4.2,0,0,0,2.9,4.9h1a4.1,4.1,0,0,0,3.9-3,28,28,0,0,1,54.2,0,4,4,0,0,0,7.8-2A36.4,36.4,0,0,0,203.3,195.4ZM168,172a20,20,0,1,1,20,20A20.1,20.1,0,0,1,168,172Zm48-96H129.7L101.2,47.5A11.9,11.9,0,0,0,92.7,44H40A12,12,0,0,0,28,56V200.6A11.4,11.4,0,0,0,39.4,212h81.2a4,4,0,1,0,0-8H39.4a3.4,3.4,0,0,1-3.4-3.4V84H216a4,4,0,0,1,4,4v32a4,4,0,0,0,8,0V88A12,12,0,0,0,216,76ZM40,52H92.7a3.6,3.6,0,0,1,2.8,1.2L118.3,76H36V56A4,4,0,0,1,40,52Z"/></svg>