<svg id="Flat" xmlns="http://www.w3.org/2000/svg" viewBox="0 0 256 256">
  <path d="M216.88892,212H40a12.01367,12.01367,0,0,1-12-12V64A12.01367,12.01367,0,0,1,40,52H93.33337a12.07717,12.07717,0,0,1,7.2,2.3999l27.73339,20.79981A4.02374,4.02374,0,0,0,130.66663,76H216a12.01367,12.01367,0,0,1,12,12V200.88867A11.12367,11.12367,0,0,1,216.88892,212ZM40,60a4.00458,4.00458,0,0,0-4,4V200a4.00458,4.00458,0,0,0,4,4H216.88892A3.11459,3.11459,0,0,0,220,200.88867V88a4.00458,4.00458,0,0,0-4-4H130.66663a12.07717,12.07717,0,0,1-7.2-2.3999L95.73328,60.80029A4.02374,4.02374,0,0,0,93.33337,60Z"/>
</svg>
