<svg xmlns="http://www.w3.org/2000/svg" viewBox="0 0 256 256"><path d="M222,57a28,28,0,0,0-23-23c-30.6-5.2-88.2-7.6-130.4,34.6S28.8,168.4,34,199a28,28,0,0,0,23,23,197.1,197.1,0,0,0,32.6,2.8c30.3,0,67.9-7.5,97.8-37.4C229.6,145.2,227.2,87.6,222,57ZM166.1,39.1a181.3,181.3,0,0,1,31.6,2.8,20,20,0,0,1,16.4,16.4A183.9,183.9,0,0,1,216.7,99L157,39.3ZM58.3,214.1a20,20,0,0,1-16.4-16.4A183.9,183.9,0,0,1,39.3,157L99,216.7l-9.1.2A181.3,181.3,0,0,1,58.3,214.1Zm123.4-32.4h0c-12.1,12.2-35.4,29.4-72.3,34L40.3,146.6c4.6-36.9,21.8-60.2,34-72.3s35.4-29.4,72.3-34l69.1,69.1C211.1,146.3,193.9,169.6,181.7,181.7ZM162.8,93.2a3.9,3.9,0,0,1,0,5.6L145,116.7l11.8,11.8a4,4,0,0,1,0,5.6,4,4,0,0,1-2.9,1.2,3.9,3.9,0,0,1-2.8-1.2l-11.8-11.8-17,17,11.8,11.8a4,4,0,0,1,0,5.7,3.7,3.7,0,0,1-2.8,1.1,3.8,3.8,0,0,1-2.8-1.1L116.7,145,98.8,162.8a3.9,3.9,0,0,1-5.6,0,3.9,3.9,0,0,1,0-5.6L111,139.3,99.2,127.5a4,4,0,0,1,0-5.6,4,4,0,0,1,5.7,0l11.8,11.8,17-17-11.8-11.8a4,4,0,0,1,0-5.7,4,4,0,0,1,5.6,0L139.3,111l17.9-17.8A3.9,3.9,0,0,1,162.8,93.2Z"/></svg>