<svg xmlns="http://www.w3.org/2000/svg" viewBox="0 0 256 256"><path d="M80,72V32a4,4,0,0,1,8,0V72a4,4,0,0,1-8,0Zm35.9-40.7a4,4,0,0,0-7.8,1.4L116,80.3a32,32,0,0,1-64,0l7.9-47.6a4,4,0,1,0-7.8-1.4l-8,48a2,2,0,0,0-.1.7,40,40,0,0,0,36,39.8V224a4,4,0,0,0,8,0V119.8A40,40,0,0,0,124,80a2,2,0,0,0-.1-.7ZM208,32V224a4,4,0,0,1-8,0V164H148a4.3,4.3,0,0,1-3-1.3,4.5,4.5,0,0,1-1-3.1c.5-4.7,12.8-114.7,58.6-131.4a4.4,4.4,0,0,1,3.7.5A4,4,0,0,1,208,32Zm-8,6.3c-14.5,8.8-27,30.9-36.6,64.7a392.4,392.4,0,0,0-10.9,53H200Z"/></svg>