<svg id="Flat" xmlns="http://www.w3.org/2000/svg" viewBox="0 0 256 256">
  <path d="M80,72V32a4,4,0,0,1,8,0V72a4,4,0,0,1-8,0Zm35.94531-40.65771a3.99976,3.99976,0,0,0-7.89062,1.31542l7.94385,47.66358a32.00015,32.00015,0,0,1-63.99708,0l7.94385-47.66358a3.99976,3.99976,0,0,0-7.89062-1.31542l-8,48A3.95908,3.95908,0,0,0,44,80a40.0547,40.0547,0,0,0,36,39.79932V224a4,4,0,0,0,8,0V119.79932A40.0547,40.0547,0,0,0,124,80a3.95908,3.95908,0,0,0-.05469-.65771ZM208,32V224a4,4,0,0,1-8,0V164H148a3.99959,3.99959,0,0,1-3.977-4.42627c.50049-4.67432,12.79248-114.67187,58.60986-131.333A4,4,0,0,1,208,32Zm-8,6.34424c-14.46,8.71631-27.0376,30.8584-36.62354,64.648A396.77819,396.77819,0,0,0,152.52832,156H200Z"/>
</svg>
