<svg id="Flat" xmlns="http://www.w3.org/2000/svg" viewBox="0 0 256 256">
  <path d="M128.00085,240a3.99888,3.99888,0,0,1-2.74731-1.0918l-72-68A4.00029,4.00029,0,0,1,52,168V100a4.00012,4.00012,0,0,1,4-4h61.93909L53.25354,34.9082A4,4,0,0,1,56,28H200a4.00012,4.00012,0,0,1,4,4v68a4.00012,4.00012,0,0,1-4,4H138.06091l64.68555,61.0918A4,4,0,0,1,200,172H132v64a3.99981,3.99981,0,0,1-3.99915,4ZM60,166.27588l64,60.44433V168a4.00012,4.00012,0,0,1,4-4h61.93909l-63.52942-60H60ZM129.59033,96H196V36H66.06091Z"/>
</svg>
