<svg id="Flat" xmlns="http://www.w3.org/2000/svg" viewBox="0 0 256 256">
  <path d="M112.001,229.05469A12.00583,12.00583,0,0,1,100,217.05176v-77.959a3.98926,3.98926,0,0,0-1.03955-2.68945l-65.75537-72.331A12,12,0,0,1,42.08447,44H213.91553a12,12,0,0,1,8.87939,20.07227l-65.75439,72.33007A3.98975,3.98975,0,0,0,156,139.09277v56.626a11.97406,11.97406,0,0,1-5.34424,9.98437l-31.99951,21.333A11.98627,11.98627,0,0,1,112.001,229.05469ZM42.08447,52A4.00015,4.00015,0,0,0,39.125,58.69141l65.75439,72.33007A11.971,11.971,0,0,1,108,139.09277v77.959a3.99924,3.99924,0,0,0,6.21826,3.32812l32.00049-21.333A3.99,3.99,0,0,0,148,195.71875v-56.626a11.97153,11.97153,0,0,1,3.12158-8.07226L216.875,58.69141A4.00015,4.00015,0,0,0,213.91553,52Z"/>
</svg>
