<svg xmlns="http://www.w3.org/2000/svg" viewBox="0 0 256 256"><path d="M112,229.1a12.2,12.2,0,0,1-12-12v-78a4.3,4.3,0,0,0-1-2.7L33.2,64.1a12.1,12.1,0,0,1-2.1-13,11.9,11.9,0,0,1,11-7.1H213.9a11.9,11.9,0,0,1,11,7.1,12.1,12.1,0,0,1-2.1,13L157,136.4a4.3,4.3,0,0,0-1,2.7v56.6a12.1,12.1,0,0,1-5.3,10l-32,21.3A12,12,0,0,1,112,229.1ZM42.1,52a4,4,0,0,0-3,6.7L104.9,131a12,12,0,0,1,3.1,8.1v78a4.1,4.1,0,0,0,2.1,3.5,4,4,0,0,0,4.1-.2l32-21.4a3.9,3.9,0,0,0,1.8-3.3V139.1a12,12,0,0,1,3.1-8.1l65.8-72.3a4,4,0,0,0-3-6.7Z"/></svg>