<svg xmlns="http://www.w3.org/2000/svg" viewBox="0 0 256 256"><path d="M184,112H152a4,4,0,0,1,0-8h32a4,4,0,0,1,0,8Zm-80-8H92V92a4,4,0,0,0-8,0v12H72a4,4,0,0,0,0,8H84v12a4,4,0,0,0,8,0V112h12a4,4,0,0,0,0-8ZM217.6,219.5a35.3,35.3,0,0,1-5.6.5,31.7,31.7,0,0,1-22.6-9.4l-.3-.2-41.9-46.6-38.4.2L66.9,210.4l-.3.2A31.7,31.7,0,0,1,44,220a35.3,35.3,0,0,1-5.6-.5,32.1,32.1,0,0,1-25.9-37.1L28.8,98.5v-.2A55.9,55.9,0,0,1,84,52l88-.3h0a56.1,56.1,0,0,1,55.1,46.1c0,.1,0,.1.1.1l16.3,84.5A32.1,32.1,0,0,1,217.6,219.5ZM172,155.7a48,48,0,1,0,0-96L84,60A47.9,47.9,0,0,0,36.8,99.4c0,.1-.1.2-.1.3L20.4,183.9a23.9,23.9,0,0,0,19.4,27.7,24.2,24.2,0,0,0,21.1-6.5l43.2-47.8A3.9,3.9,0,0,1,107,156Zm63.6,28.1-11-56.9A55.9,55.9,0,0,1,172,163.7H158l37.1,41.3a24,24,0,0,0,40.5-21.3Z"/></svg>