<svg id="Flat" xmlns="http://www.w3.org/2000/svg" viewBox="0 0 256 256">
  <path d="M184,112H152a4,4,0,0,1,0-8h32a4,4,0,0,1,0,8Zm-80-8H92V92a4,4,0,0,0-8,0v12H72a4,4,0,0,0,0,8H84v12a4,4,0,0,0,8,0V112h12a4,4,0,0,0,0-8ZM217.56152,219.50977a32.0298,32.0298,0,0,1-28.18359-8.88282c-.08447-.085-.16406-.17187-.23975-.26172l-41.91162-46.52587-38.40576.1538L66.86523,210.37207q-.11059.13183-.23388.25488a32.0018,32.0018,0,0,1-54.14063-28.18847L28.81787,98.46387c.0083-.06153.01758-.12305.02832-.18457A55.87419,55.87419,0,0,1,84.00439,52l88.002-.25977h.01172a56.07977,56.07977,0,0,1,55.10742,46.10791c.00757.03467.02344.06592.03027.10108l16.35059,84.42285A32.05063,32.05063,0,0,1,217.56152,219.50977ZM172.002,155.74023a48,48,0,1,0,.02637-96L84.01611,60A47.89173,47.89173,0,0,0,36.77,99.41113c-.01172.10742-.02832.21485-.04932.32325l-16.36425,84.1621a24.00209,24.00209,0,0,0,40.52246,21.168l43.19384-47.748A4.00174,4.00174,0,0,1,107.023,156Zm63.6377,28.08692-11.01636-56.87793a56.0955,56.0955,0,0,1-52.60522,36.791l-14.06324.05616,37.177,41.27a24.00165,24.00165,0,0,0,40.50781-21.23926Z"/>
</svg>
