<svg id="Flat" xmlns="http://www.w3.org/2000/svg" viewBox="0 0 256 256">
  <path d="M238.14209,72.48535l-19.314-19.31347a3.99957,3.99957,0,1,0-5.65624,5.65624L232.48535,78.1416A11.92172,11.92172,0,0,1,236,86.62695V168a12,12,0,0,1-24,0V128a20.02229,20.02229,0,0,0-20-20H172V56a20.02229,20.02229,0,0,0-20-20H72A20.02229,20.02229,0,0,0,52,56V212H32a4,4,0,0,0,0,8H192a4,4,0,0,0,0-8H172V116h20a12.01343,12.01343,0,0,1,12,12v40a20,20,0,0,0,40,0V86.62695A19.867,19.867,0,0,0,238.14209,72.48535ZM60,212V56A12.01343,12.01343,0,0,1,72,44h80a12.01343,12.01343,0,0,1,12,12V212Zm80-100a4.0002,4.0002,0,0,1-4,4H88a4,4,0,0,1,0-8h48A4.0002,4.0002,0,0,1,140,112Z"/>
</svg>
