<svg id="Flat" xmlns="http://www.w3.org/2000/svg" viewBox="0 0 256 256">
  <path d="M204.23486,83.5a107.3647,107.3647,0,0,0-76.1831-31.49463C128.03418,52.00488,128.01758,52,128,52c-.01465,0-.02783.00391-.04248.00439-.11328,0-.22607-.00341-.33936-.00341-48.95214.16894-90.3706,33.51464-103.374,78.84961a3.69972,3.69972,0,0,0-.67578,2.46875A109.7546,109.7546,0,0,0,20,161.12891V184a12.01343,12.01343,0,0,0,12,12H224a12.01343,12.01343,0,0,0,12-12V160A107.27676,107.27676,0,0,0,204.23486,83.5ZM228,184a4.00427,4.00427,0,0,1-4,4H111.55664l63.44775-82.68652a3.99984,3.99984,0,1,0-6.34716-4.86914L101.47314,188H32a4.00427,4.00427,0,0,1-4-4V161.12891a101.92349,101.92349,0,0,1,2.63672-23.07618L57.418,145.22852a3.99963,3.99963,0,1,0,2.0708-7.72657l-26.73242-7.16308c12.53613-39.49317,48.498-68.54,91.24365-70.251V88a4,4,0,0,0,8,0V60.085a100.14,100.14,0,0,1,91.52344,70.1792L196.51123,137.502a3.99963,3.99963,0,1,0,2.0708,7.72657l27.00293-7.23536A100.87021,100.87021,0,0,1,228,160Z"/>
</svg>
