<svg xmlns="http://www.w3.org/2000/svg" viewBox="0 0 256 256"><path d="M204.2,83.5A107,107,0,0,0,128.1,52h-.5c-48.9.2-90.4,33.5-103.4,78.9a3.7,3.7,0,0,0-.5,1.1,3,3,0,0,0-.1,1.3A106.5,106.5,0,0,0,20,161.1V184a12,12,0,0,0,12,12H224a12,12,0,0,0,12-12V160A107.3,107.3,0,0,0,204.2,83.5ZM228,184a4,4,0,0,1-4,4H111.6L175,105.3a4,4,0,1,0-6.3-4.9L101.5,188H32a4,4,0,0,1-4-4V161.1a102.6,102.6,0,0,1,2.6-23l26.8,7.1,1.1.2a4,4,0,0,0,1-7.9l-26.7-7.2C45.3,90.8,81.3,61.8,124,60.1V88a4,4,0,0,0,8,0V60.1a99.3,99.3,0,0,1,66.6,29.1,98.2,98.2,0,0,1,24.9,41.1l-27,7.2a4,4,0,0,0,1,7.9l1.1-.2,27-7.2a100.2,100.2,0,0,1,2.4,22Z"/></svg>