<svg id="Flat" xmlns="http://www.w3.org/2000/svg" viewBox="0 0 256.00098 256.00098">
  <path d="M128.002,76.00195a52,52,0,1,0,52,52A52.059,52.059,0,0,0,128.002,76.00195Zm0,96a44,44,0,1,1,44-44A44.04978,44.04978,0,0,1,128.002,172.002ZM233.5498,105.11523a3.99865,3.99865,0,0,0-1.96728-2.64843L206.73486,88.67334a88.33049,88.33049,0,0,0-5.30713-9.209l.47852-28.43457A3.99865,3.99865,0,0,0,200.5957,48.001a107.164,107.164,0,0,0-39.64013-22.84961,4.0005,4.0005,0,0,0-3.27735.37939L133.30859,40.15283a88.31451,88.31451,0,0,0-10.62841-.00781L98.29443,25.5127a3.99683,3.99683,0,0,0-3.27881-.3794A107.16462,107.16462,0,0,0,55.40771,48.03809a3.99959,3.99959,0,0,0-1.31005,3.02832l.478,28.41552a88.32129,88.32129,0,0,0-5.32129,9.2002L24.38965,102.48535a3.99972,3.99972,0,0,0-1.96778,2.64942,107.15859,107.15859,0,0,0,.03223,45.7539,3.99868,3.99868,0,0,0,1.96729,2.64844L49.269,167.33057a88.33407,88.33407,0,0,0,5.30713,9.209l-.47851,28.43457a3.99862,3.99862,0,0,0,1.31054,3.02881,107.16409,107.16409,0,0,0,39.64014,22.84961,4.00045,4.00045,0,0,0,3.27734-.3794l24.36963-14.62207a88.31467,88.31467,0,0,0,10.62842.00782l24.38574,14.63232a3.99853,3.99853,0,0,0,3.27881.3794,107.16467,107.16467,0,0,0,39.60791-22.90479,3.99965,3.99965,0,0,0,1.31006-3.02832l-.478-28.41553a88.32012,88.32012,0,0,0,5.32129-9.20019l24.86475-13.80323a3.99967,3.99967,0,0,0,1.96777-2.64941A107.15864,107.15864,0,0,0,233.5498,105.11523Zm-7.42089,42.29834L201.77051,160.936a3.99891,3.99891,0,0,0-1.66162,1.76025,80.1449,80.1449,0,0,1-6.00391,10.37988,3.9995,3.9995,0,0,0-.69678,2.32422l.46826,27.84033a99.108,99.108,0,0,1-33.62207,19.44776L136.36475,208.354a4.00239,4.00239,0,0,0-2.05811-.56982c-.09863,0-.19824.00391-.29736.01123a80.18462,80.18462,0,0,1-11.9917-.00977,4.03285,4.03285,0,0,0-2.36084.5586L95.78027,222.67041a99.10885,99.10885,0,0,1-33.65332-19.394l.46924-27.85547a4.00156,4.00156,0,0,0-.69385-2.31934,80.215,80.215,0,0,1-5.9873-10.39013,4.001,4.001,0,0,0-1.66455-1.76514L29.90576,147.43164a99.11293,99.11293,0,0,1-.03076-38.84131L54.2334,95.06787A3.999,3.999,0,0,0,55.895,93.30762a80.145,80.145,0,0,1,6.00391-10.37989,3.99946,3.99946,0,0,0,.69677-2.32421l-.46826-27.84034A99.10837,99.10837,0,0,1,95.74951,33.31543L119.63916,47.6499a3.99305,3.99305,0,0,0,2.35547.5586,80.186,80.186,0,0,1,11.9917.00976,4.01732,4.01732,0,0,0,2.36084-.55859L160.22363,33.3335a99.10849,99.10849,0,0,1,33.65332,19.394L193.40771,80.583a4.00158,4.00158,0,0,0,.69385,2.31933,80.21514,80.21514,0,0,1,5.98731,10.39014,4.00106,4.00106,0,0,0,1.66455,1.76514l24.34472,13.51465A99.11307,99.11307,0,0,1,226.12891,147.41357Z"/>
</svg>
