<svg xmlns="http://www.w3.org/2000/svg" viewBox="0 0 256 256"><path d="M128,76a52,52,0,1,0,52,52A52,52,0,0,0,128,76Zm0,96a44,44,0,1,1,44-44A44,44,0,0,1,128,172Zm103.6-19.2-15.7-20.9c.1-2.6,0-5.9,0-7.7l15.7-21a4.2,4.2,0,0,0,.7-3.4,106.4,106.4,0,0,0-10.6-25.6,4.2,4.2,0,0,0-2.9-1.9l-25.9-3.7a71.4,71.4,0,0,0-5.5-5.5l-3.7-25.9a4.2,4.2,0,0,0-1.9-2.9,109.1,109.1,0,0,0-25.5-10.6,4.4,4.4,0,0,0-3.5.7L131.9,40.1q-3.9-.1-7.8,0L103.2,24.4a4.2,4.2,0,0,0-3.4-.7A106.4,106.4,0,0,0,74.2,34.3a4.2,4.2,0,0,0-1.9,2.9L68.6,63.1a71.4,71.4,0,0,0-5.5,5.5L37.2,72.3a4.2,4.2,0,0,0-2.9,1.9A108.1,108.1,0,0,0,23.7,99.8a4.2,4.2,0,0,0,.7,3.4l15.7,20.9c-.1,2.6,0,5.9,0,7.7l-15.7,21a4.2,4.2,0,0,0-.7,3.4,110.6,110.6,0,0,0,10.6,25.6,4.2,4.2,0,0,0,2.9,1.9l25.9,3.7a71.4,71.4,0,0,0,5.5,5.5l3.7,25.9a4.2,4.2,0,0,0,1.9,2.9,108.1,108.1,0,0,0,25.6,10.6h1a4.1,4.1,0,0,0,2.4-.8l20.9-15.7h7.8l20.9,15.7a4.2,4.2,0,0,0,3.4.7,106.4,106.4,0,0,0,25.6-10.6,4.2,4.2,0,0,0,1.9-2.9l3.7-25.9,5.5-5.5,25.9-3.7a4.2,4.2,0,0,0,2.9-1.9,108.1,108.1,0,0,0,10.6-25.6A4.2,4.2,0,0,0,231.6,152.8Zm-15.9,23.3-25.4,3.6a4.3,4.3,0,0,0-2.3,1.2c0,.1-4.6,4.9-7,7a3.8,3.8,0,0,0-1.3,2.4l-3.6,25.4A97.9,97.9,0,0,1,156,224l-20.5-15.4a3.9,3.9,0,0,0-2.6-.7h-9.8a3.9,3.9,0,0,0-2.6.7L100,224a97.9,97.9,0,0,1-20.1-8.3l-3.6-25.4a3.8,3.8,0,0,0-1.3-2.4,74.9,74.9,0,0,1-6.9-6.9,3.8,3.8,0,0,0-2.4-1.3l-25.4-3.6A97.9,97.9,0,0,1,32,156l15.4-20.5a4.4,4.4,0,0,0,.8-2.5c0-.1-.2-6.7-.1-9.9a3.9,3.9,0,0,0-.7-2.6L32,100a97.9,97.9,0,0,1,8.3-20.1l25.4-3.6A3.8,3.8,0,0,0,68.1,75,74.9,74.9,0,0,1,75,68.1a3.8,3.8,0,0,0,1.3-2.4l3.6-25.4A97.9,97.9,0,0,1,100,32l20.5,15.4a3.9,3.9,0,0,0,2.6.7c3.3-.1,6.5-.1,9.8,0a3.9,3.9,0,0,0,2.6-.7L156,32a97.9,97.9,0,0,1,20.1,8.3l3.6,25.4a3.8,3.8,0,0,0,1.3,2.4,74.9,74.9,0,0,1,6.9,6.9,3.8,3.8,0,0,0,2.4,1.3l25.4,3.6A97.9,97.9,0,0,1,224,100l-15.4,20.5a4.4,4.4,0,0,0-.8,2.5c0,.1.2,6.7.1,9.9a3.9,3.9,0,0,0,.7,2.6L224,156A97.9,97.9,0,0,1,215.7,176.1Z"/></svg>