<svg id="Flat" xmlns="http://www.w3.org/2000/svg" viewBox="0 0 256.00098 256.00098">
  <path d="M128.001,76a52,52,0,1,0,52,52A52.05895,52.05895,0,0,0,128.001,76Zm0,96a44,44,0,1,1,44-44A44.04978,44.04978,0,0,1,128.001,172ZM234.3291,109.05811a11.97691,11.97691,0,0,0-6.00049-8.39893L206.73389,88.67139a88.296,88.296,0,0,0-5.30713-9.209l.416-24.71386a11.94967,11.94967,0,0,0-4.25927-9.38282,107.54874,107.54874,0,0,0-32.82178-18.91943,11.97994,11.97994,0,0,0-10.2749.99658l-21.1792,12.708a88.30661,88.30661,0,0,0-10.62793-.00781L101.48486,27.42578A11.95263,11.95263,0,0,0,91.229,26.42236,107.57518,107.57518,0,0,0,58.43262,45.3877a11.97838,11.97838,0,0,0-4.27344,9.39648L54.57471,79.48a88.28332,88.28332,0,0,0-5.32129,9.2002L27.644,100.67578a11.98484,11.98484,0,0,0-6.0039,8.417,107.54585,107.54585,0,0,0,.03271,37.84912,11.97694,11.97694,0,0,0,6.00049,8.39893l21.59473,11.98779a88.29246,88.29246,0,0,0,5.30713,9.209l-.416,24.71386a11.94964,11.94964,0,0,0,4.25928,9.38282,107.54857,107.54857,0,0,0,32.82177,18.91943,11.97662,11.97662,0,0,0,10.27491-.99658l21.1792-12.708a88.30661,88.30661,0,0,0,10.62793.00781l21.19482,12.71729a11.946,11.946,0,0,0,10.25586,1.00342,107.57534,107.57534,0,0,0,32.79639-18.96534,11.9784,11.9784,0,0,0,4.27343-9.39648l-.41552-24.6958a88.28511,88.28511,0,0,0,5.32129-9.2002l21.60937-11.9956a11.98488,11.98488,0,0,0,6.00391-8.417A107.54585,107.54585,0,0,0,234.3291,109.05811Zm-7.84375,36.4497a4.01816,4.01816,0,0,1-2.01074,2.82227l-22.72852,12.6167a3.96129,3.96129,0,0,0-1.77978,2.03955,80.155,80.155,0,0,1-5.86279,10.08789,4.00251,4.00251,0,0,0-.69629,2.32422l.43652,25.95215a4.00765,4.00765,0,0,1-1.43066,3.14453,99.57433,99.57433,0,0,1-30.36329,17.56006,3.97673,3.97673,0,0,1-3.416-.34082l-22.293-13.376-.01074-.00635a3.983,3.983,0,0,0-2.68457-.51269,80.10882,80.10882,0,0,1-11.62891-.03565,4.01855,4.01855,0,0,0-2.36084.55908l-22.25635,13.354a4.00979,4.00979,0,0,1-3.43945.33349,99.58,99.58,0,0,1-30.38867-17.51562,3.97921,3.97921,0,0,1-1.41309-3.12842l.4375-25.98144v-.0127a3.96612,3.96612,0,0,0-.876-2.561,80.14744,80.14744,0,0,1-5.80567-10.12158A4,4,0,0,0,54.25,160.94434L31.55615,148.34668a4.01094,4.01094,0,0,1-2.0083-2.812,99.5757,99.5757,0,0,1-.03125-35.04248,4.01816,4.01816,0,0,1,2.01074-2.82227l22.72852-12.6167a3.98343,3.98343,0,0,0,1.79785-2.07666,80.11163,80.11163,0,0,1,5.84473-10.05078,4.00259,4.00259,0,0,0,.69629-2.32422L62.1582,54.64941a4.00766,4.00766,0,0,1,1.43067-3.14453A99.5744,99.5744,0,0,1,93.95215,33.94482a3.98146,3.98146,0,0,1,3.416.34082l22.293,13.376.01074.00635a3.98026,3.98026,0,0,0,2.68458.51269,80.17823,80.17823,0,0,1,11.6289.03565,3.99958,3.99958,0,0,0,2.36084-.55908l22.25635-13.354a4.00827,4.00827,0,0,1,3.43945-.33349,99.58,99.58,0,0,1,30.38867,17.51562,3.97918,3.97918,0,0,1,1.41309,3.12842l-.4375,25.98144v.0127a3.96612,3.96612,0,0,0,.876,2.561,80.1486,80.1486,0,0,1,5.80566,10.12158,4,4,0,0,0,1.66406,1.76513l22.69385,12.59766a4.01094,4.01094,0,0,1,2.0083,2.812A99.57546,99.57546,0,0,1,226.48535,145.50781Z"/>
</svg>
