<svg id="Flat" xmlns="http://www.w3.org/2000/svg" viewBox="0 0 256.00098 256.00098">
  <path d="M128.002,68.00049a60,60,0,1,0,60,60A60.06812,60.06812,0,0,0,128.002,68.00049Zm0,112a52,52,0,1,1,52-52A52.059,52.059,0,0,1,128.002,180.00049Zm105.12012-76.37256a12.05157,12.05157,0,0,0-6.46094-8.03906l-15.58984-7.709-6.78906-11.75879,1.11914-17.35644a12.04887,12.04887,0,0,0-3.731-9.61426A104.58435,104.58435,0,0,0,159.4541,24.77686a12.05115,12.05115,0,0,0-10.19189,1.57568l-14.47119,9.647H121.21289l-14.4707-9.647A12.04675,12.04675,0,0,0,96.5498,24.77588,104.60341,104.60341,0,0,0,54.3335,49.14941a12.05247,12.05247,0,0,0-3.73145,9.61475l1.11914,17.356L44.93213,87.87891l-15.59082,7.709a12.05343,12.05343,0,0,0-6.46094,8.03857,104.58787,104.58787,0,0,0,.00049,48.74659,12.05157,12.05157,0,0,0,6.46094,8.03906l15.58984,7.709,6.78906,11.75879-1.11914,17.35645a12.04887,12.04887,0,0,0,3.731,9.61426,104.58417,104.58417,0,0,0,42.21631,24.37353,12.05289,12.05289,0,0,0,10.19189-1.57568l14.47119-9.647H134.79l14.4707,9.647a12.22447,12.22447,0,0,0,6.78174,2.08008,11.78521,11.78521,0,0,0,3.41064-.50342,104.60323,104.60323,0,0,0,42.21631-24.37354,12.05245,12.05245,0,0,0,3.73145-9.61474l-1.11914-17.356,6.78906-11.75879,15.59082-7.709a12.05345,12.05345,0,0,0,6.46094-8.03858,104.58783,104.58783,0,0,0-.00049-48.74658Zm-7.78857,46.92041a4.13834,4.13834,0,0,1-2.21827,2.69385l-16.67578,8.2456a3.99687,3.99687,0,0,0-1.6914,1.58545l-8,13.85645a4.0027,4.0027,0,0,0-.52735,2.25732l1.19678,18.56445a4.13753,4.13753,0,0,1-1.22363,3.26758,96.59946,96.59946,0,0,1-39.05274,22.54785,4.14367,4.14367,0,0,1-3.44238-.5747l-15.479-10.31885a4.00112,4.00112,0,0,0-2.21875-.67188h-16a3.99991,3.99991,0,0,0-2.21875.67188L102.30371,222.9917a4.13941,4.13941,0,0,1-3.44189.57422,96.57579,96.57579,0,0,1-39.05371-22.54785A4.13389,4.13389,0,0,1,58.585,197.751L59.78174,179.186a3.99909,3.99909,0,0,0-.52783-2.25733l-8-13.85644a3.99283,3.99283,0,0,0-1.69092-1.58545L32.8877,153.24121a4.13722,4.13722,0,0,1-2.21827-2.69385,96.59242,96.59242,0,0,1,0-45.09472,4.13834,4.13834,0,0,1,2.21827-2.69385l16.67578-8.24561a3.99681,3.99681,0,0,0,1.6914-1.58545l8-13.85644a4.00271,4.00271,0,0,0,.52735-2.25733L58.58545,58.24951a4.13756,4.13756,0,0,1,1.22363-3.26758A96.59976,96.59976,0,0,1,98.86182,32.43408a4.14545,4.14545,0,0,1,3.44238.57471l15.479,10.31885a4.00111,4.00111,0,0,0,2.21875.67187h16a3.9999,3.9999,0,0,0,2.21875-.67187l15.47852-10.31836a4.13938,4.13938,0,0,1,3.44189-.57422,96.57567,96.57567,0,0,1,39.05371,22.54785A4.13386,4.13386,0,0,1,197.418,58.25l-1.19678,18.56494a3.99911,3.99911,0,0,0,.52783,2.25733l8,13.85644a3.99283,3.99283,0,0,0,1.69092,1.58545l16.67529,8.24561a4.1372,4.1372,0,0,1,2.21827,2.69384,96.59246,96.59246,0,0,1,0,45.09473Z"/>
</svg>
