<svg xmlns="http://www.w3.org/2000/svg" viewBox="0 0 256 256"><path d="M128,76a52,52,0,1,0,52,52A52,52,0,0,0,128,76Zm0,96a44,44,0,1,1,44-44A44,44,0,0,1,128,172Zm105.5-66.9a3.6,3.6,0,0,0-1.9-2.6L206.7,88.7a64.6,64.6,0,0,0-5.3-9.2l.5-28.5a4.3,4.3,0,0,0-1.3-3A108.5,108.5,0,0,0,161,25.1a4.2,4.2,0,0,0-3.3.4L133.3,40.2a75,75,0,0,0-10.6-.1L98.3,25.5a4.2,4.2,0,0,0-3.3-.4A109.4,109.4,0,0,0,55.4,48a4.4,4.4,0,0,0-1.3,3.1l.5,28.4a64.6,64.6,0,0,0-5.3,9.2L24.4,102.5a4.1,4.1,0,0,0-2,2.6,105.6,105.6,0,0,0,.1,45.8,3.6,3.6,0,0,0,1.9,2.6l24.9,13.8a64.6,64.6,0,0,0,5.3,9.2L54.1,205a4.3,4.3,0,0,0,1.3,3A108.5,108.5,0,0,0,95,230.9a4.2,4.2,0,0,0,3.3-.4l24.4-14.7a75,75,0,0,0,10.6.1l24.4,14.6a3.7,3.7,0,0,0,2.1.6l1.2-.2A109.4,109.4,0,0,0,200.6,208a4.4,4.4,0,0,0,1.3-3.1l-.5-28.4a64.6,64.6,0,0,0,5.3-9.2l24.9-13.8a4.1,4.1,0,0,0,2-2.6A105.6,105.6,0,0,0,233.5,105.1Zm-7.4,42.3-24.3,13.5a3.7,3.7,0,0,0-1.7,1.8,71.9,71.9,0,0,1-6,10.4,3.9,3.9,0,0,0-.7,2.3l.5,27.8a98.7,98.7,0,0,1-33.6,19.5l-23.9-14.3a4.2,4.2,0,0,0-2.1-.6H134a80.1,80.1,0,0,1-12,0,3.7,3.7,0,0,0-2.3.5L95.8,222.7a101.3,101.3,0,0,1-33.7-19.4l.5-27.9a3.9,3.9,0,0,0-.7-2.3,82.5,82.5,0,0,1-6-10.4,3.7,3.7,0,0,0-1.7-1.8L29.9,147.4a97.5,97.5,0,0,1,0-38.8L54.2,95.1a3.7,3.7,0,0,0,1.7-1.8,71.9,71.9,0,0,1,6-10.4,3.9,3.9,0,0,0,.7-2.3l-.5-27.8A98.7,98.7,0,0,1,95.7,33.3l23.9,14.3a3.5,3.5,0,0,0,2.4.6,80.1,80.1,0,0,1,12,0,3.7,3.7,0,0,0,2.3-.5l23.9-14.4a101.3,101.3,0,0,1,33.7,19.4l-.5,27.9a3.9,3.9,0,0,0,.7,2.3,82.5,82.5,0,0,1,6,10.4,3.7,3.7,0,0,0,1.7,1.8l24.3,13.5A97.5,97.5,0,0,1,226.1,147.4Z"/></svg>