<svg id="Flat" xmlns="http://www.w3.org/2000/svg" viewBox="0 0 256.00098 256.00098">
  <path d="M128.001,76a52,52,0,1,0,52,52A52.05895,52.05895,0,0,0,128.001,76Zm0,96a44,44,0,1,1,44-44A44.04978,44.04978,0,0,1,128.001,172Zm101.19873-22.40137L215.9165,131.8877c.05616-1.293.08448-2.59522.08448-3.88672,0-1.291-.02832-2.59375-.08448-3.88868l13.27832-17.71044a12.01721,12.01721,0,0,0,1.8628-10.77491,107.65287,107.65287,0,0,0-7.28125-17.59863,12.02384,12.02384,0,0,0-8.94434-6.31445l-21.9165-3.13037c-.87451-.95411-1.77491-1.89454-2.68848-2.8086-.9126-.9126-1.85351-1.81347-2.80957-2.68994l-3.13379-21.91211a12.01794,12.01794,0,0,0-6.30176-8.936,107.63264,107.63264,0,0,0-17.59277-7.29541,12.03027,12.03027,0,0,0-10.78955,1.85937L131.88867,40.08447c-2.5874-.1123-5.1875-.1123-7.77539,0L106.40234,26.80518a12.02051,12.02051,0,0,0-10.77441-1.86182,107.626,107.626,0,0,0-17.59814,7.28125,12.02563,12.02563,0,0,0-6.315,8.94434L68.584,63.08545c-.95654.877-1.897,1.77783-2.80761,2.68848-.91455.91455-1.81543,1.856-2.69043,2.80957l-21.9126,3.13379a12.02123,12.02123,0,0,0-8.936,6.30175,107.73885,107.73885,0,0,0-7.29492,17.59229,12.02483,12.02483,0,0,0,1.85987,10.79l13.2832,17.71093c-.05615,1.293-.08447,2.59522-.08447,3.88672,0,1.291.02832,2.59375.08447,3.88868L26.80713,149.59814a12.01718,12.01718,0,0,0-1.86279,10.77491,107.652,107.652,0,0,0,7.28125,17.59863,12.0238,12.0238,0,0,0,8.94433,6.31445l21.91651,3.13037c.87451.95411,1.7749,1.89454,2.68847,2.8086.9126.9126,1.85352,1.81347,2.80957,2.68994l3.13379,21.91211a12.01794,12.01794,0,0,0,6.30176,8.936,107.63264,107.63264,0,0,0,17.59277,7.29541,11.90708,11.90708,0,0,0,3.56787.54541,12.05044,12.05044,0,0,0,7.22168-2.40478l17.71094-13.28369c2.5874.1123,5.1875.1123,7.77539,0l17.71094,13.27929a12.02343,12.02343,0,0,0,10.77441,1.86182,107.62652,107.62652,0,0,0,17.59815-7.28125,12.02564,12.02564,0,0,0,6.31494-8.94434l3.13086-21.9165c.95654-.87695,1.897-1.77783,2.80762-2.68848.91455-.91455,1.81543-1.856,2.69043-2.80957l21.91259-3.13379a12.02121,12.02121,0,0,0,8.936-6.30175,107.73885,107.73885,0,0,0,7.29492-17.59229A12.02483,12.02483,0,0,0,229.19971,149.59863Zm-5.773,8.39356a99.64929,99.64929,0,0,1-6.75147,16.28125,4.00252,4.00252,0,0,1-2.97949,2.09033l-23.34717,3.33887a3.99765,3.99765,0,0,0-2.42724,1.30664c-1.07276,1.21-2.20069,2.40771-3.353,3.56006-1.14551,1.146-2.34326,2.27392-3.55957,3.35254a3.99747,3.99747,0,0,0-1.30567,2.42724l-3.33593,23.3501a4.00613,4.00613,0,0,1-2.09766,2.98437,99.5967,99.5967,0,0,1-16.28662,6.73877,4.00012,4.00012,0,0,1-3.58447-.62841l-18.87012-14.148a3.98831,3.98831,0,0,0-2.63965-.79248,82.0364,82.0364,0,0,1-9.77588,0,3.9974,3.9974,0,0,0-2.64013.79248l-18.87012,14.15283a4.00873,4.00873,0,0,1-3.59375.62695,99.60612,99.60612,0,0,1-16.28125-6.75146,4.0007,4.0007,0,0,1-2.08984-2.9795l-3.33936-23.34716a4.00081,4.00081,0,0,0-1.30615-2.42676c-1.21387-1.07617-2.41162-2.2041-3.56006-3.35254-1.15039-1.15039-2.27832-2.34863-3.35205-3.56006a4.00141,4.00141,0,0,0-2.42774-1.30664l-23.35107-3.33545a4.00766,4.00766,0,0,1-2.98438-2.09717,99.65226,99.65226,0,0,1-6.73828-16.28759,3.99862,3.99862,0,0,1,.62891-3.584l14.14795-18.87012a4.00255,4.00255,0,0,0,.79248-2.63964c-.09766-1.61817-.147-3.2627-.147-4.88868,0-1.62646.04931-3.271.14648-4.88672a3.99819,3.99819,0,0,0-.79248-2.64062L33.20215,101.60156a4.00578,4.00578,0,0,1-.627-3.59375,99.64837,99.64837,0,0,1,6.75146-16.28125,4.00255,4.00255,0,0,1,2.97949-2.09033l23.34717-3.33887a3.99767,3.99767,0,0,0,2.42725-1.30664c1.07275-1.21,2.20068-2.40771,3.353-3.56006,1.14551-1.146,2.34327-2.27392,3.55957-3.35254a3.99747,3.99747,0,0,0,1.30567-2.42724l3.33594-23.3501a4.00609,4.00609,0,0,1,2.09765-2.98437A99.59706,99.59706,0,0,1,98.019,32.57764a3.91252,3.91252,0,0,1,1.17041-.17823,4.03044,4.03044,0,0,1,2.41407.80664l18.86962,14.148a3.9969,3.9969,0,0,0,2.64014.79248,82.0364,82.0364,0,0,1,9.77588,0,3.99552,3.99552,0,0,0,2.64014-.79248l18.87011-14.15283a4.01021,4.01021,0,0,1,3.59375-.627,99.60576,99.60576,0,0,1,16.28125,6.75146,4.00074,4.00074,0,0,1,2.08985,2.9795l3.33935,23.34716a4.00078,4.00078,0,0,0,1.30616,2.42676c1.21386,1.07617,2.41162,2.2041,3.56,3.35254,1.15039,1.15039,2.27832,2.34863,3.35205,3.56006a4.00141,4.00141,0,0,0,2.42774,1.30664l23.35107,3.33545a4.00763,4.00763,0,0,1,2.98438,2.09717,99.65226,99.65226,0,0,1,6.73828,16.28759,3.99862,3.99862,0,0,1-.62891,3.584l-14.148,18.87012a4.00255,4.00255,0,0,0-.79248,2.63964c.09766,1.61817.147,3.2627.147,4.88868,0,1.62646-.04932,3.271-.14649,4.88672a3.99819,3.99819,0,0,0,.79248,2.64062l14.15283,18.87012A4.00579,4.00579,0,0,1,223.42676,157.99219Z"/>
</svg>
