<svg id="Flat" xmlns="http://www.w3.org/2000/svg" viewBox="0 0 256.00098 256.00098">
  <path d="M128.001,76a52,52,0,1,0,52,52A52.05895,52.05895,0,0,0,128.001,76Zm0,96a44,44,0,1,1,44-44A44.04978,44.04978,0,0,1,128.001,172Zm103.606-19.19434-15.70459-20.93652c.07276-2.56543.01953-5.86182-.02246-7.709l15.72022-20.95948a3.99977,3.99977,0,0,0,.66162-3.44238,107.44341,107.44341,0,0,0-10.55664-25.51025,4.00044,4.00044,0,0,0-2.90332-1.96778L192.915,68.5835c-1.74854-1.9087-3.59033-3.75049-5.49854-5.49854l-3.6958-25.87549a3.99946,3.99946,0,0,0-1.96582-2.90234A107.46494,107.46494,0,0,0,156.251,23.7334a3.9984,3.9984,0,0,0-3.44385.66162L131.88867,40.08545c-2.58594-.11328-5.19043-.11328-7.77637,0L103.20215,24.40186a3.99975,3.99975,0,0,0-3.44238-.66163A107.43015,107.43015,0,0,0,74.24854,34.29736a3.99987,3.99987,0,0,0-1.96729,2.90284L68.585,63.08643c-1.90869,1.74853-3.75049,3.59033-5.499,5.499L37.21045,72.28076a4.00233,4.00233,0,0,0-2.90234,1.96631A107.45352,107.45352,0,0,0,23.73437,99.75146a4.00034,4.00034,0,0,0,.66163,3.44385l15.70459,20.93653c-.07276,2.56543-.01954,5.86181.02246,7.709L24.40283,152.80029a3.9998,3.9998,0,0,0-.66162,3.44239,107.44358,107.44358,0,0,0,10.55664,25.51025,4.0004,4.0004,0,0,0,2.90332,1.96777l25.88672,3.69678c1.74854,1.90869,3.59033,3.75049,5.49854,5.49854l3.6958,25.87548a3.99943,3.99943,0,0,0,1.96582,2.90235,107.46536,107.46536,0,0,0,25.5039,10.57373,3.99865,3.99865,0,0,0,3.44385-.66162l20.91846-15.69043c2.58594.11328,5.19043.11328,7.77636,0l20.91016,15.68359a3.99818,3.99818,0,0,0,3.44238.66162,107.42974,107.42974,0,0,0,25.51123-10.55713,3.99985,3.99985,0,0,0,1.96729-2.90283l3.69971-25.90918c1.86523-1.76269,4.1582-4.13135,5.43506-5.4668l25.936-3.70459a4.00231,4.00231,0,0,0,2.90234-1.9663,107.453,107.453,0,0,0,10.57373-25.5044A4.00032,4.00032,0,0,0,231.60693,152.80566Zm-15.89941,23.27393-25.35889,3.62207a4.00012,4.00012,0,0,0-2.34765,1.21875c-.0459.04883-4.59473,4.87744-6.98926,6.99756a4.00188,4.00188,0,0,0-1.30811,2.42969l-3.62256,25.36718a99.46249,99.46249,0,0,1-20.05908,8.29981l-20.4917-15.36914a3.99365,3.99365,0,0,0-2.64257-.793,80.73137,80.73137,0,0,1-9.77051,0,3.99956,3.99956,0,0,0-2.64258.793l-20.499,15.376a99.48407,99.48407,0,0,1-20.05274-8.31494l-3.62207-25.35742a3.9995,3.9995,0,0,0-1.3081-2.42969,80.77735,80.77735,0,0,1-6.90918-6.90869,3.99933,3.99933,0,0,0-2.4292-1.3081l-25.36719-3.62256a99.46525,99.46525,0,0,1-8.29981-20.0586l15.37012-20.49316a3.99957,3.99957,0,0,0,.79785-2.52148c-.002-.0669-.20019-6.69825-.00586-9.89063a4.00065,4.00065,0,0,0-.793-2.64307l-15.376-20.49853a99.49477,99.49477,0,0,1,8.31494-20.05322l25.35791-3.6211a4.00129,4.00129,0,0,0,2.4292-1.30859A80.70375,80.70375,0,0,1,74.99121,68.083a4.00194,4.00194,0,0,0,1.30811-2.42969l3.62255-25.36719A99.46278,99.46278,0,0,1,99.981,31.98633l20.4917,15.36914a4.01364,4.01364,0,0,0,2.64257.793,80.72728,80.72728,0,0,1,9.77051,0,4.00878,4.00878,0,0,0,2.64258-.793l20.499-15.376a99.48407,99.48407,0,0,1,20.05274,8.31494l3.62207,25.35743a3.9994,3.9994,0,0,0,1.3081,2.42968,80.78169,80.78169,0,0,1,6.90918,6.90869,3.99939,3.99939,0,0,0,2.4292,1.30811l25.36719,3.62256a99.46513,99.46513,0,0,1,8.2998,20.05859l-15.37011,20.49317a3.99954,3.99954,0,0,0-.79785,2.52148c.002.0669.20019,6.69824.00586,9.89063a4.00063,4.00063,0,0,0,.793,2.64306l15.376,20.49854A99.49477,99.49477,0,0,1,215.70752,176.07959Z"/>
</svg>
