<svg id="Flat" xmlns="http://www.w3.org/2000/svg" viewBox="0 0 256 256">
  <path d="M219.9209,39.21582c-.02246-.11328-.06519-.21777-.09693-.32715a2.32952,2.32952,0,0,0-.324-.7876c-.05811-.10693-.10522-.21777-.17383-.31982a3.99291,3.99291,0,0,0-.49316-.604l-.0044-.00537h0a4.01587,4.01587,0,0,0-.61108-.499c-.08984-.06006-.1875-.10058-.28076-.15234a3.98009,3.98009,0,0,0-.40918-.21533c-.11646-.04786-.23828-.07422-.35791-.11084a3.89106,3.89106,0,0,0-.38965-.11573,4.05713,4.05713,0,0,0-.64258-.06494C216.09082,36.01221,216.04712,36,216,36H168a4,4,0,0,0,0,8h38.34326L154.83643,95.50635a76.00057,76.00057,0,1,0,5.65673,5.65674L212,49.65674V88a4,4,0,0,0,8,0V40.00146A4.03032,4.03032,0,0,0,219.9209,39.21582ZM152.083,200.084a67.96779,67.96779,0,1,1,0-96.168A68.07554,68.07554,0,0,1,152.083,200.084Z"/>
</svg>
