<svg id="Flat" xmlns="http://www.w3.org/2000/svg" viewBox="0 0 256 256">
  <path d="M219.9209,39.21582c-.02246-.11328-.06519-.21777-.09693-.32715a2.32952,2.32952,0,0,0-.324-.7876c-.05811-.10693-.10522-.21777-.17383-.31982a3.99291,3.99291,0,0,0-.49316-.604l-.0044-.00537h0a4.03873,4.03873,0,0,0-.60962-.498c-.10156-.06787-.21142-.11475-.31713-.17237a4.01127,4.01127,0,0,0-.37134-.19531,3.93788,3.93788,0,0,0-.417-.12939c-.11036-.03223-.21558-.0752-.32959-.09766a4.04217,4.04217,0,0,0-.7771-.07861L216,36H168a4,4,0,0,0,0,8h38.34326L168,82.34326,146.82861,61.17188a3.99991,3.99991,0,0,0-5.65722,5.65624L162.34326,88,141.165,109.17822a68.02262,68.02262,0,1,0,5.65674,5.65674L168,93.65674l21.17139,21.17138a3.99991,3.99991,0,0,0,5.65722-5.65624L173.65674,88,212,49.65674V88a4,4,0,0,0,8,0V40.00146A4.03032,4.03032,0,0,0,219.9209,39.21582ZM138.42627,202.42676A60.00052,60.00052,0,1,1,156,160,60.0702,60.0702,0,0,1,138.42627,202.42676Z"/>
</svg>
