<svg id="Flat" xmlns="http://www.w3.org/2000/svg" viewBox="0 0 256 256">
  <path d="M211.9209,23.21582c-.02246-.11328-.06519-.21777-.09693-.32715a3.96647,3.96647,0,0,0-.13012-.41943,3.94126,3.94126,0,0,0-.19385-.36817c-.05811-.10693-.10522-.21777-.17383-.31982a3.99291,3.99291,0,0,0-.49316-.604l-.0044-.00537h0a4.00638,4.00638,0,0,0-.61035-.49854c-.09814-.06543-.20434-.11035-.30664-.1665a2.33028,2.33028,0,0,0-.78784-.32715c-.11377-.03321-.22266-.07715-.34033-.10059A3.99092,3.99092,0,0,0,208,20H168a4,4,0,0,0,0,8h30.34326L164.38574,61.95752A63.97641,63.97641,0,1,0,116,171.8623V200H88a4,4,0,0,0,0,8h28v24a4,4,0,0,0,8,0V208h28a4,4,0,0,0,0-8H124V171.8623A63.94175,63.94175,0,0,0,169.79688,67.85986L204,33.65674V64a4,4,0,0,0,8,0V24.00146A4.03032,4.03032,0,0,0,211.9209,23.21582ZM120,164a56,56,0,1,1,56-56A56.06322,56.06322,0,0,1,120,164Z"/>
</svg>
