<svg xmlns="http://www.w3.org/2000/svg" viewBox="0 0 256 256"><path d="M108,116a8,8,0,1,1-8-8A8,8,0,0,1,108,116Zm48-8a8,8,0,1,0,8,8A8,8,0,0,0,156,108Zm64,12v96a4,4,0,0,1-2.3,3.6,3.3,3.3,0,0,1-1.7.4,3.8,3.8,0,0,1-2.5-.9l-26.8-21.9-26.8,21.9a4.1,4.1,0,0,1-5.1,0L128,197.2l-26.8,21.9a4.1,4.1,0,0,1-5.1,0L69.3,197.2,42.5,219.1a3.8,3.8,0,0,1-4.2.5A4,4,0,0,1,36,216V120a92,92,0,0,1,184,0Zm-8,0a84,84,0,0,0-168,0v87.6l22.8-18.7a4.1,4.1,0,0,1,5.1,0l26.8,21.9,26.8-21.9a3.9,3.9,0,0,1,5,0l26.8,21.9,26.8-21.9a4.1,4.1,0,0,1,5.1,0L212,207.6Z"/></svg>