<svg xmlns="http://www.w3.org/2000/svg" viewBox="0 0 256 256"><path d="M216,76H169.8a25.4,25.4,0,0,0,6.3-4.5,28,28,0,1,0-39.6-39.6c-3.6,3.6-6.4,9.2-8.5,16.7-2.1-7.5-4.9-13.1-8.5-16.7A28,28,0,0,0,79.9,71.5,25.4,25.4,0,0,0,86.2,76H40A12,12,0,0,0,28,88v32a12,12,0,0,0,12,12h4v68a12,12,0,0,0,12,12H200a12,12,0,0,0,12-12V132h4a12,12,0,0,0,12-12V88A12,12,0,0,0,216,76ZM142.1,37.6a20.2,20.2,0,0,1,14.2-5.9,20.1,20.1,0,0,1,14.1,34.2c-7.2,7.2-27.3,9.5-38.3,10C132.6,64.9,134.9,44.8,142.1,37.6Zm-56.5,0a20,20,0,0,1,28.3,0c7.2,7.2,9.5,27.3,10,38.3-11-.5-31.1-2.8-38.3-10A20,20,0,0,1,85.6,37.6ZM36,120V88a4,4,0,0,1,4-4h84v40H40A4,4,0,0,1,36,120Zm16,80V132h72v72H56A4,4,0,0,1,52,200Zm152,0a4,4,0,0,1-4,4H132V132h72Zm16-80a4,4,0,0,1-4,4H132V84h84a4,4,0,0,1,4,4Z"/></svg>