<svg id="Flat" xmlns="http://www.w3.org/2000/svg" viewBox="0 0 256 256">
  <path d="M216,76H169.83887a26.21217,26.21217,0,0,0,6.24414-4.48535A27.99977,27.99977,0,1,0,136.48535,31.917c-3.55957,3.55957-6.396,9.13965-8.48535,16.63721-2.08936-7.49756-4.92578-13.07764-8.48535-16.6377A27.99995,27.99995,0,0,0,79.917,71.51465,26.21217,26.21217,0,0,0,86.16113,76H40A12.01328,12.01328,0,0,0,28,88v32a12.01328,12.01328,0,0,0,12,12h4v68a12.01343,12.01343,0,0,0,12,12H200a12.01343,12.01343,0,0,0,12-12V132h4a12.01328,12.01328,0,0,0,12-12V88A12.01328,12.01328,0,0,0,216,76ZM142.1416,37.57373a20.00028,20.00028,0,1,1,28.28516,28.28418c-7.25977,7.259-27.376,9.57275-38.32813,10.04395C132.56934,64.94946,134.88281,44.83276,142.1416,37.57373Zm-56.56836,0a20.02422,20.02422,0,0,1,28.28516-.00024c7.25879,7.25927,9.57226,27.376,10.043,38.32837-10.95215-.4712-31.06836-2.78492-38.32813-10.04395A20.0246,20.0246,0,0,1,85.57324,37.57373ZM36,120V88a4.00427,4.00427,0,0,1,4-4h84v40H40A4.00427,4.00427,0,0,1,36,120Zm16,80V132h72v72H56A4.00427,4.00427,0,0,1,52,200Zm152,0a4.00427,4.00427,0,0,1-4,4H132V132h72Zm16-80a4.00427,4.00427,0,0,1-4,4H132V84h84a4.00427,4.00427,0,0,1,4,4Z"/>
</svg>
