<svg id="Flat" xmlns="http://www.w3.org/2000/svg" viewBox="0 0 256 256">
  <path d="M100,68A32,32,0,1,0,64,99.74109v56.51782a32,32,0,1,0,8,0V99.74109A32.041,32.041,0,0,0,100,68ZM44,68A24,24,0,1,1,68,92,24.02718,24.02718,0,0,1,44,68ZM92,188a24,24,0,1,1-24-24A24.02718,24.02718,0,0,1,92,188Zm100.00293-31.74109-.00195-36.378a51.6638,51.6638,0,0,0-15.23047-36.76758L145.65674,52H176a4,4,0,0,0,0-8H136c-.01172,0-.02246.00336-.03418.00348a4.02032,4.02032,0,0,0-.74951.07556c-.11621.02313-.22412.06671-.33643.09979a3.9657,3.9657,0,0,0-.41064.12738,3.92189,3.92189,0,0,0-.36719.19324c-.10742.05823-.21875.10571-.32129.1745a4.0236,4.0236,0,0,0-.60351.493l-.00538.0044v.00012a4.0021,4.0021,0,0,0-.49853.61011c-.06592.09869-.11133.20556-.16748.30847a2.348,2.348,0,0,0-.32666.788c-.0332.11316-.07666.22138-.1001.33844A3.99145,3.99145,0,0,0,132,48V88a4,4,0,0,0,8,0V57.65656L171.11426,88.77A43.71608,43.71608,0,0,1,184.001,119.88135l.00195,36.37762a31.99976,31.99976,0,1,0,8-.00006Zm-4,55.74109a24,24,0,1,1,24-24A24.02718,24.02718,0,0,1,188.00293,212Z"/>
</svg>
