<svg id="Flat" xmlns="http://www.w3.org/2000/svg" viewBox="0 0 256 256">
  <path d="M188.00293,108a32.03667,32.03667,0,0,0-32,32H130.48242a43.88,43.88,0,0,1-33.80176-15.832L75.74609,99.04669A32.01583,32.01583,0,1,0,64,99.74109v56.51782a32,32,0,1,0,8,0V107.04785l18.53418,22.24121A51.86011,51.86011,0,0,0,130.48242,148h26.5332a32.0015,32.0015,0,1,0,30.98731-40ZM44,68A24,24,0,1,1,68,92,24.0275,24.0275,0,0,1,44,68ZM92,188a24,24,0,1,1-24-24A24.0275,24.0275,0,0,1,92,188Zm96.00293-24a24,24,0,1,1,24-24A24.0275,24.0275,0,0,1,188.00293,164Z"/>
</svg>
