<svg id="Flat" xmlns="http://www.w3.org/2000/svg" viewBox="0 0 256 256">
  <path d="M200.00293,156.25891l-.00195-36.378a51.65986,51.65986,0,0,0-15.23047-36.7666L153.65625,52H184a4,4,0,0,0,0-8H144a4.01052,4.01052,0,0,0-.78369.0791c-.11621.02307-.22315.06653-.33545.09937a3.92259,3.92259,0,0,0-.41113.12768,3.98526,3.98526,0,0,0-.377.19824c-.104.05665-.21191.10254-.31152.16907a4.025,4.025,0,0,0-1.1084,1.10877c-.06445.097-.10889.20239-.16455.30359a2.34888,2.34888,0,0,0-.32861.79162c-.03369.1134-.07715.2218-.10059.33911A3.99092,3.99092,0,0,0,140,48V88a4,4,0,0,0,8,0V57.65625l31.11426,31.11426A43.71382,43.71382,0,0,1,192.001,119.88086l.00195,36.37817a31.99952,31.99952,0,1,0,8-.00012Zm-4,55.74109a24,24,0,1,1,24-24A24.0275,24.0275,0,0,1,196.00293,212Zm-84-48a4.0002,4.0002,0,0,0-4,4v30.34375L76.88867,167.22949a43.71309,43.71309,0,0,1-12.88672-31.11035L64,99.741a31.99952,31.99952,0,1,0-8,.00012l.002,36.378a51.65676,51.65676,0,0,0,15.23047,36.7666L102.34668,204H72.00293a4,4,0,1,0,0,8h40a4.01475,4.01475,0,0,0,.7832-.079c.11768-.02331.22608-.06726.33936-.10046a2.34353,2.34353,0,0,0,.7876-.32654c.10253-.05628.20947-.10144.3081-.16736a4.0222,4.0222,0,0,0,1.10889-1.10889c.06445-.09643.1084-.20129.16357-.302a4.012,4.012,0,0,0,.20362-.38611,3.956,3.956,0,0,0,.12548-.40527c.0337-.11389.07764-.223.10108-.34094a3.99092,3.99092,0,0,0,.0791-.78345V168A4.0002,4.0002,0,0,0,112.00293,164ZM36,68A24,24,0,1,1,60,92,24.0275,24.0275,0,0,1,36,68Z"/>
</svg>
