<svg id="Flat" xmlns="http://www.w3.org/2000/svg" viewBox="0 0 256 256">
  <path d="M220,67.99756a32,32,0,1,0-36,31.74109v4.2594a20.02271,20.02271,0,0,1-19.999,20l-72.002.00146A27.9167,27.9167,0,0,0,72,132.42236V99.73865a32,32,0,1,0-8,0v56.52026a32,32,0,1,0,8,0v-4.2594a20.02271,20.02271,0,0,1,19.999-20l72.002-.00146a28.03219,28.03219,0,0,0,27.999-28v-4.2594A32.041,32.041,0,0,0,220,67.99756Zm-176,0a24,24,0,1,1,24,24A24.02718,24.02718,0,0,1,44,67.99756ZM92,188a24,24,0,1,1-24-24A24.02718,24.02718,0,0,1,92,188Zm96-96.00244a24,24,0,1,1,24-24A24.02718,24.02718,0,0,1,188,91.99756Z"/>
</svg>
