<svg id="Flat" xmlns="http://www.w3.org/2000/svg" viewBox="0 0 256 256">
  <path d="M220,67.99756a32,32,0,1,0-36,31.74109v4.2594a20.02271,20.02271,0,0,1-19.999,20l-72,.00146a20.001,20.001,0,0,1-20.001-20V99.73865a32,32,0,1,0-8,0v4.26086a27.99971,27.99971,0,0,0,28.001,28l32.00146-.00067-.002,24.26007a31.99975,31.99975,0,1,0,8,.00006l.00195-24.26025,31.99854-.00067a28.03219,28.03219,0,0,0,27.999-28v-4.2594A32.041,32.041,0,0,0,220,67.99756Zm-176,0a24,24,0,1,1,24,24A24.02718,24.02718,0,0,1,44,67.99756ZM152,188a24,24,0,1,1-24-24A24.0275,24.0275,0,0,1,152,188Zm36-96.00244a24,24,0,1,1,24-24A24.02718,24.02718,0,0,1,188,91.99756Z"/>
</svg>
