<svg id="Flat" xmlns="http://www.w3.org/2000/svg" viewBox="0 0 256 256">
  <path d="M216,212a20.02229,20.02229,0,0,1-20-20v-8a28.04258,28.04258,0,0,0-18.9043-26.4751A52.036,52.036,0,0,0,204,112v-8a51.69206,51.69206,0,0,0-8.06348-27.82519A55.76692,55.76692,0,0,0,191.46387,30,3.99989,3.99989,0,0,0,188,28a55.78121,55.78121,0,0,0-45.9624,24l-28.0752-.001A55.78346,55.78346,0,0,0,68,28a3.99989,3.99989,0,0,0-3.46387,2,55.76692,55.76692,0,0,0-4.47265,46.17481A51.69206,51.69206,0,0,0,52,104v8a52.036,52.036,0,0,0,26.9043,45.5249A28.04258,28.04258,0,0,0,60,184v8a20.02229,20.02229,0,0,1-20,20,4,4,0,0,0,0,8,28.03146,28.03146,0,0,0,28-28v-8a20.02229,20.02229,0,0,1,20-20h16v44a20.02229,20.02229,0,0,1-20,20,4,4,0,0,0,0,8,28.03146,28.03146,0,0,0,28-28V164h32v44a28.03146,28.03146,0,0,0,28,28,4,4,0,0,0,0-8,20.02229,20.02229,0,0,1-20-20V164h16a20.02229,20.02229,0,0,1,20,20v8a28.03146,28.03146,0,0,0,28,28,4,4,0,0,0,0-8ZM60,112v-8a43.73548,43.73548,0,0,1,7.7998-25.01855,3.99979,3.99979,0,0,0,.44532-3.71387A47.81172,47.81172,0,0,1,70.3418,36.05569a47.83091,47.83091,0,0,1,38.11425,22.10156A3.99953,3.99953,0,0,0,111.82471,60l32.35058-.001a3.99953,3.99953,0,0,0,3.36866-1.84277A47.8324,47.8324,0,0,1,185.6582,36.05569a47.81367,47.81367,0,0,1,2.09717,39.21191,3.99828,3.99828,0,0,0,.44483,3.71387A43.73548,43.73548,0,0,1,196,104v8a44.04978,44.04978,0,0,1-44,44H104A44.04978,44.04978,0,0,1,60,112Z"/>
</svg>
