<svg id="Flat" xmlns="http://www.w3.org/2000/svg" viewBox="0 0 256 256">
  <path d="M216,220a20.02229,20.02229,0,0,1-20-20v-8a28.04258,28.04258,0,0,0-18.9043-26.4751A52.036,52.036,0,0,0,204,120v-8a53.77853,53.77853,0,0,0-8.05859-27.83984A55.766,55.766,0,0,0,191.46387,38,3.99989,3.99989,0,0,0,188,36a55.78079,55.78079,0,0,0-45.96289,24l-28.07422-.001A55.785,55.785,0,0,0,68,36a3.99989,3.99989,0,0,0-3.46387,2,55.766,55.766,0,0,0-4.47754,46.16016A53.77853,53.77853,0,0,0,52,112v8a52.036,52.036,0,0,0,26.9043,45.5249A28.04258,28.04258,0,0,0,60,192v8a20.02229,20.02229,0,0,1-20,20,4,4,0,0,0,0,8,28.03146,28.03146,0,0,0,28-28v-8a20.02229,20.02229,0,0,1,20-20h16v44a20.02229,20.02229,0,0,1-20,20,4,4,0,0,0,0,8,28.03146,28.03146,0,0,0,28-28V172h32v44a28.03146,28.03146,0,0,0,28,28,4,4,0,0,0,0-8,20.02229,20.02229,0,0,1-20-20V172h16a20.02229,20.02229,0,0,1,20,20v8a28.03146,28.03146,0,0,0,28,28,4,4,0,0,0,0-8ZM60,120v-8a45.7282,45.7282,0,0,1,7.70605-24.88965,3.99975,3.99975,0,0,0,.53858-3.84375A47.81139,47.81139,0,0,1,70.3418,44.05569a47.83327,47.83327,0,0,1,38.11474,22.10058A3.9989,3.9989,0,0,0,111.8252,67.999L144.1748,68h0a3.99875,3.99875,0,0,0,3.36866-1.84375A47.83182,47.83182,0,0,1,185.6582,44.05569a47.81139,47.81139,0,0,1,2.09717,39.21093,4.01978,4.01978,0,0,0,.53174,3.835A45.722,45.722,0,0,1,196,112v8a44.04978,44.04978,0,0,1-44,44H104A44.04978,44.04978,0,0,1,60,120Z"/>
</svg>
