<svg xmlns="http://www.w3.org/2000/svg" viewBox="0 0 256 256"><path d="M234.4,153.5,207.1,51a7.9,7.9,0,0,0-7.4-5.9,7.8,7.8,0,0,0-7.8,5.2L170.2,108H85.8L64.1,50.3a8,8,0,0,0-15.2.7L21.6,153.5a12.1,12.1,0,0,0,4.7,13l94.9,65.6a10.9,10.9,0,0,0,5.4,2.1h2.8a10.9,10.9,0,0,0,5.4-2.1l94.9-65.6A12.1,12.1,0,0,0,234.4,153.5Zm-35-100.4L214,108H178.8ZM128,220.6,88.8,116h78.4ZM56.6,53.1,77.2,108H42ZM29.3,155.6,39.9,116H80.2l39.6,105.4L30.9,159.9A4,4,0,0,1,29.3,155.6Zm195.8,4.3-88.9,61.5L175.8,116h40.3l10.6,39.6A4,4,0,0,1,225.1,159.9Z"/></svg>