<svg id="Flat" xmlns="http://www.w3.org/2000/svg" viewBox="0 0 256 256">
  <path d="M234.415,153.53322,207.08594,51.04787a7.99994,7.99994,0,0,0-15.22022-.74756L170.228,108H85.772L64.13477,50.3008a8.00014,8.00014,0,0,0-15.22071.74707L21.585,153.53322a12.02834,12.02834,0,0,0,4.76416,12.958l94.82031,65.645a12.05653,12.05653,0,0,0,13.66114,0l94.82031-65.645A12.02834,12.02834,0,0,0,234.415,153.53322Zm-9.31787,6.38086-94.82031,65.64454a4.019,4.019,0,0,1-4.55372,0L30.90283,159.91408a4.01148,4.01148,0,0,1-1.58838-4.31982L56.644,53.1094l22.61084,60.29492A3.99938,3.99938,0,0,0,83,116h90a3.99938,3.99938,0,0,0,3.74512-2.5957L199.35645,53.1094l27.3291,102.48486A4.01148,4.01148,0,0,1,225.09717,159.91408Z"/>
</svg>
