<svg id="Flat" xmlns="http://www.w3.org/2000/svg" viewBox="0 0 256 256">
  <path d="M217.93652,171.69189a99.97739,99.97739,0,0,0-64.27881-140.3496c-.084-.02637-.168-.04786-.25341-.06885A99.91122,99.91122,0,0,0,62.80273,52.23779a3.98415,3.98415,0,0,0-.835.73194A99.95321,99.95321,0,0,0,128,228c.74561,0,1.48877-.01221,2.23047-.02832l.02051.002c.00976,0,.019-.00244.02929-.00244a100.12653,100.12653,0,0,0,87.231-55.42383c.01807-.02832.04248-.05029.06055-.07959A4.01375,4.01375,0,0,0,217.93652,171.69189ZM220,128a91.46782,91.46782,0,0,1-7.59863,36.5918l-50.42871-31.01563a11.90384,11.90384,0,0,0-4.68262-1.66992l-22.81836-3.07617a12.0622,12.0622,0,0,0-12.48535,6.84961H111.14209a4.02235,4.02235,0,0,1-3.60059-2.25781l-3.80517-7.86036a11.9261,11.9261,0,0,0-8.27979-6.50488l-11.28711-2.42627,6.45313-15.31885a3.99252,3.99252,0,0,1,3.686-2.44726H115.6543a12.03132,12.03132,0,0,0,5.80078-1.49512l12.24267-6.76074a12.05619,12.05619,0,0,0,2.24707-1.60352L162.85547,64.667a11.94221,11.94221,0,0,0,2.42871-14.75l-4.36768-7.82373A92.14963,92.14963,0,0,1,220,128ZM149.81494,38.62012l8.48438,15.19726a3.97991,3.97991,0,0,1-.80957,4.916l-26.90723,24.335a4.06759,4.06759,0,0,1-.75293.53711l-12.24268,6.76074a4.00369,4.00369,0,0,1-1.93261.49805H94.30859A11.97573,11.97573,0,0,0,83.25,98.20605l-7.04053,16.71338-2.18359-.46923a3.98014,3.98014,0,0,1-2.90479-2.50586L59.63037,81.27539a3.98516,3.98516,0,0,1,.06152-2.96191l8.541-20.1958a91.888,91.888,0,0,1,81.582-19.49756ZM36,128A91.4771,91.4771,0,0,1,51.9082,76.3457a11.94055,11.94055,0,0,0,.231,7.73633L63.62988,114.751a11.94985,11.94985,0,0,0,8.71533,7.52148l5.48194,1.17822.001.00049,15.94775,3.42774a3.97131,3.97131,0,0,1,2.75928,2.168l3.80566,7.86132a12.06865,12.06865,0,0,0,10.80127,6.77149h7.271L108.209,166.57617a11.99,11.99,0,0,0,2.14942,13.03125l18.7998,20.333a4.01588,4.01588,0,0,1,.99024,3.47559l-3.20508,16.57031A92.10158,92.10158,0,0,1,36,128Zm99.14209,91.72461,2.86084-14.78906a12.04416,12.04416,0,0,0-2.9707-10.42578l-18.79883-20.333a3.99667,3.99667,0,0,1-.71729-4.34473l12.74268-28.59277.00195-.00488.9541-2.14063a4.03089,4.03089,0,0,1,4.188-2.33594l22.82178,3.07715a3.96883,3.96883,0,0,1,1.5581.55566l51.09668,31.42676A92.14993,92.14993,0,0,1,135.14209,219.72461Z"/>
</svg>
