<svg xmlns="http://www.w3.org/2000/svg" viewBox="0 0 256 256"><path d="M128,28A100,100,0,1,0,228,128,100.2,100.2,0,0,0,128,28Zm91.9,96h-48C171,89.8,158,58.4,135.8,36.3A92.2,92.2,0,0,1,219.9,124ZM128,216c-21.7-20.3-34.9-51.2-35.9-84h71.8C162.9,164.8,149.7,195.7,128,216ZM92.1,124c1-32.7,14.2-63.7,35.9-84,21.7,20.3,34.9,51.3,35.9,84Zm28.2-87.7C98,58.4,85,89.8,84.1,124h-48A92.2,92.2,0,0,1,120.3,36.3ZM36.1,132h48c.9,34.3,13.9,65.7,36.2,87.7A92.2,92.2,0,0,1,36.1,132Zm99.7,87.7c22.2-22,35.2-53.4,36.1-87.7h48A92.2,92.2,0,0,1,135.8,219.7Z"/></svg>