<svg xmlns="http://www.w3.org/2000/svg" viewBox="0 0 256 256"><path d="M219.9,167.4l.3-.7A99.9,99.9,0,0,0,185.4,46.2l-.9-.7A100,100,0,0,0,46.1,185.3v.2l.5.6a99.8,99.8,0,0,0,142.4,21,2.1,2.1,0,0,0,.8-.6h0A99.4,99.4,0,0,0,219.9,167.4ZM128,36a91.3,91.3,0,0,1,50.8,15.3l1.1,22.3a4.2,4.2,0,0,1-1,2.8L156.7,102a3.8,3.8,0,0,1-2.5,1.3l-31.4,4.3a4.1,4.1,0,0,1-2.9-.7L100.2,92.6a12.2,12.2,0,0,0-9.3-2,11.6,11.6,0,0,0-7.8,5.3L63.2,127a12,12,0,0,0-1.9,6.4l-.2,36.1a3.9,3.9,0,0,1-1.9,3.4L50.8,178A91.2,91.2,0,0,1,36,128,92.1,92.1,0,0,1,128,36ZM55.5,184.5l7.8-4.7a12,12,0,0,0,5.8-10.2l.2-36.2a4,4,0,0,1,.7-2.1l19.8-31.1a4,4,0,0,1,2.6-1.8,4.2,4.2,0,0,1,3.1.7l19.7,14.3a12,12,0,0,0,8.6,2.1l31.5-4.2a12.2,12.2,0,0,0,7.5-4.1l22.1-25.6a11.3,11.3,0,0,0,2.9-8.4l-.7-15.7a92.2,92.2,0,0,1,27.7,101.1l-20.6-18.8a12.1,12.1,0,0,0-12.7-2.3l-30.4,12.7a12,12,0,0,0-7.3,9.3l-2.4,16.2a12,12,0,0,0,8.8,13.4l21.5,5.6a4.2,4.2,0,0,1,1.8,1.1l7.4,7.4A91.7,91.7,0,0,1,55.5,184.5Zm131.8,13.8-8.1-8.2a11.6,11.6,0,0,0-5.5-3.1l-21.4-5.7a4,4,0,0,1-3-4.4l2.4-16.2a3.9,3.9,0,0,1,2.4-3.1l30.5-12.7a3.9,3.9,0,0,1,4.2.8l22.8,20.8A93.8,93.8,0,0,1,187.3,198.3Z"/></svg>