<svg id="Flat" xmlns="http://www.w3.org/2000/svg" viewBox="0 0 256 256">
  <path d="M128,28.00037a100,100,0,1,0,100,100A100.113,100.113,0,0,0,128,28.00037Zm91.90771,96H171.94043c-.93994-34.249-13.937-65.64722-36.18994-87.67041A92.1307,92.1307,0,0,1,219.90771,124.00037ZM128,216.03064c-21.71777-20.37207-34.93213-51.28711-35.93164-84.03027h71.86328C162.93213,164.74353,149.71777,195.65857,128,216.03064ZM92.06836,124.00037C93.06787,91.25476,106.27979,60.34143,128,39.97009c21.72021,20.37134,34.93213,51.28467,35.93164,84.03028ZM120.24951,36.33c-22.25293,22.02319-35.25,53.42138-36.18994,87.67041H36.09229A92.1307,92.1307,0,0,1,120.24951,36.33ZM36.09229,132.00037H84.05957c.93994,34.24756,13.937,65.64648,36.18994,87.67041A92.13091,92.13091,0,0,1,36.09229,132.00037Zm99.6582,87.67041c22.25293-22.02393,35.25-53.42285,36.18994-87.67041h47.96728A92.13091,92.13091,0,0,1,135.75049,219.67078Z"/>
</svg>
