<svg id="Flat" xmlns="http://www.w3.org/2000/svg" viewBox="0 0 256 256">
  <path d="M219.91455,167.37451a3.96129,3.96129,0,0,0,.29-.67334,99.92836,99.92836,0,0,0-34.78467-120.5249,3.94754,3.94754,0,0,0-.937-.65039A99.94855,99.94855,0,0,0,46.07031,185.27051c.03369.0625.05323.1289.09082.19043a3.97933,3.97933,0,0,0,.51172.66308,99.85833,99.85833,0,0,0,142.3999,21.002,3.96685,3.96685,0,0,0,.81885-.61231c.02149-.02148.03565-.04687.05615-.06885A100.54839,100.54839,0,0,0,219.91455,167.37451ZM127.999,36a91.46238,91.46238,0,0,1,50.78077,15.32422l1.06982,22.26269a3.97784,3.97784,0,0,1-.9707,2.8086l-22.15723,25.60156a4.00019,4.00019,0,0,1-2.4873,1.3457l-31.4795,4.26368a3.97651,3.97651,0,0,1-2.88476-.72461L100.21387,92.64062A12.0004,12.0004,0,0,0,83.05762,95.9043L63.21533,127.002a11.97935,11.97935,0,0,0-1.88379,6.38672l-.20263,36.12891a4.02533,4.02533,0,0,1-1.93262,3.40234l-8.39551,5.06738A91.956,91.956,0,0,1,127.999,36ZM55.459,184.52051l7.87207-4.752a12.07413,12.07413,0,0,0,5.79737-10.20605l.20263-36.12891a3.99956,3.99956,0,0,1,.62842-2.1289L89.80176,100.207a4.00174,4.00174,0,0,1,5.71875-1.08789l19.65625,14.24121a11.964,11.964,0,0,0,8.65039,2.17383l31.481-4.26367a11.99239,11.99239,0,0,0,7.46289-4.03809l22.15673-25.60058a11.94814,11.94814,0,0,0,2.91309-8.42969l-.75293-15.6582A91.90257,91.90257,0,0,1,214.77051,158.5708l-20.562-18.80518a12.04412,12.04412,0,0,0-12.70411-2.2246l-30.45068,12.65625a12.05954,12.05954,0,0,0-7.26611,9.332l-2.38477,16.19629a11.98771,11.98771,0,0,0,8.82569,13.35546l21.457,5.62989a4.01734,4.01734,0,0,1,1.81738,1.04394l7.43262,7.44727A91.86247,91.86247,0,0,1,55.459,184.52051ZM187.31152,198.2666l-8.146-8.16211a12.0132,12.0132,0,0,0-5.44776-3.13086l-21.458-5.63086a3.99575,3.99575,0,0,1-2.94239-4.45117l2.38477-16.19629A4.022,4.022,0,0,1,154.124,157.584l30.45118-12.65625a4.01679,4.01679,0,0,1,4.23437.74219l22.74707,20.80371A92.519,92.519,0,0,1,187.31152,198.2666Z"/>
</svg>
