<svg xmlns="http://www.w3.org/2000/svg" viewBox="0 0 256 256"><path d="M222.4,161.1A100.4,100.4,0,0,0,228,128a99,99,0,0,0-5.7-33.2v-.4a100,100,0,0,0-188.4,0,4.3,4.3,0,0,0-.1.5,99.2,99.2,0,0,0,0,66.3c0,.2.1.3.1.4a100,100,0,0,0,188.4.1A1.4,1.4,0,0,1,222.4,161.1ZM128,216c-14.4-13.5-25.1-31.7-30.9-52h61.8C153.1,184.3,142.4,202.5,128,216ZM95,156a132.2,132.2,0,0,1,0-56h66a132.2,132.2,0,0,1,0,56ZM36,128a89.2,89.2,0,0,1,4.4-28H86.8a141.4,141.4,0,0,0,0,56H40.4A89.2,89.2,0,0,1,36,128Zm92-88c14.4,13.5,25.1,31.7,30.9,52H97.1C102.9,71.7,113.6,53.5,128,40Zm41.2,60h46.4a91.3,91.3,0,0,1,0,56H169.2a141.4,141.4,0,0,0,0-56Zm43.5-8H167.4a123.1,123.1,0,0,0-31.6-55.7A92.3,92.3,0,0,1,212.7,92ZM120.3,36.3A122.4,122.4,0,0,0,88.6,92H43.3A92.3,92.3,0,0,1,120.3,36.3ZM43.3,164H88.6c5.7,21.5,16.6,40.8,31.7,55.7A92.3,92.3,0,0,1,43.3,164Zm92.5,55.7c15-14.9,25.9-34.2,31.6-55.7h45.3A92.3,92.3,0,0,1,135.8,219.7Z"/></svg>