<svg id="Flat" xmlns="http://www.w3.org/2000/svg" viewBox="0 0 256 256">
  <path d="M221.70117,117.68408,53.86426,21.61377a12.02827,12.02827,0,0,0-12.12989.03467,12.16511,12.16511,0,0,0-2.20556,1.65722c-.03906.03663-.08447.0625-.12256.10059-.00781.00781-.0127.0166-.02051.02441a11.63522,11.63522,0,0,0-3.57226,8.42579v192.2871a11.63178,11.63178,0,0,0,3.57568,8.42823c.00635.00683.01074.01513.01758.02148.0332.0332.07275.05567.10693.0874a12.04135,12.04135,0,0,0,14.35059,1.70557l167.772-96.03418a11.76209,11.76209,0,0,0,.06494-20.668ZM169.38672,96.95654,144,122.34326,50.64648,28.98975ZM43.81348,222.52979V33.47021L138.34326,128Zm6.833,4.48046L144,133.65674,169.38623,159.043Zm167.08008-95.63769-41.145,23.55176L149.65674,128,176.582,101.0752l41.20947,23.58837A3.73691,3.73691,0,0,1,219.81348,128,3.77849,3.77849,0,0,1,217.72656,131.37256Z"/>
</svg>
