<svg xmlns="http://www.w3.org/2000/svg" viewBox="0 0 256 256"><path d="M132,24V48a4,4,0,0,1-8,0V24a4,4,0,0,1,8,0Zm44,40a4,4,0,0,0-4,4V92a4,4,0,0,0,8,0V68A4,4,0,0,0,176,64ZM128,204a4,4,0,0,0-4,4v24a4,4,0,0,0,8,0V208A4,4,0,0,0,128,204Zm0-128a4,4,0,0,0-4,4v96a4,4,0,0,0,8,0V80A4,4,0,0,0,128,76ZM80,64a4,4,0,0,0-4,4v64a4,4,0,0,0,8,0V68A4,4,0,0,0,80,64Zm96,56a4,4,0,0,0-4,4v64a4,4,0,0,0,8,0V124A4,4,0,0,0,176,120ZM32,112a4,4,0,0,0-4,4v24a4,4,0,0,0,8,0V116A4,4,0,0,0,32,112Zm48,48a4,4,0,0,0-4,4v24a4,4,0,0,0,8,0V164A4,4,0,0,0,80,160Zm144-48a4,4,0,0,0-4,4v24a4,4,0,0,0,8,0V116A4,4,0,0,0,224,112Z"/></svg>