<svg xmlns="http://www.w3.org/2000/svg" viewBox="0 0 256 256"><path d="M221.8,117.7,53.9,21.6a11.9,11.9,0,0,0-12.1,0,18.4,18.4,0,0,0-2.2,1.7h-.1a11.6,11.6,0,0,0-3.6,8.5V224.1a11.6,11.6,0,0,0,3.6,8.5h.1a18.4,18.4,0,0,0,2.2,1.7,12.1,12.1,0,0,0,6.1,1.6,11.7,11.7,0,0,0,6-1.6l167.8-96a11.8,11.8,0,0,0,6.2-10.4A11.6,11.6,0,0,0,221.8,117.7ZM169.5,97l-25.4,25.3L50.7,29ZM43.9,222.5V33.5L138.4,128Zm6.8,4.5,93.4-93.3L169.5,159Zm167.1-95.6-41.1,23.5-27-26.9,27-26.9,41.2,23.6a3.7,3.7,0,0,1,2,3.3A3.8,3.8,0,0,1,217.8,131.4Z"/></svg>