<svg xmlns="http://www.w3.org/2000/svg" viewBox="0 0 256 256"><path d="M128,28A100,100,0,1,0,228,128,100.2,100.2,0,0,0,128,28Zm0,8a92.1,92.1,0,0,1,82.8,52H128a40.1,40.1,0,0,0-39.7,35.2L57.2,69.3A91.9,91.9,0,0,1,128,36Zm32,92a32,32,0,1,1-32-32A32.1,32.1,0,0,1,160,128ZM36,128A91,91,0,0,1,52,76.3L93.4,148v.2A40.1,40.1,0,0,0,128,168a40.8,40.8,0,0,0,15.7-3.2l-31.1,53.9A92.2,92.2,0,0,1,36,128Zm92,92c-2.3,0-4.5-.1-6.8-.3L162.6,148v-.2A39.1,39.1,0,0,0,168,128a40,40,0,0,0-16-32h62.3A92.1,92.1,0,0,1,128,220Z"/></svg>