<svg id="Flat" xmlns="http://www.w3.org/2000/svg" viewBox="0 0 256 256">
  <path d="M249.88281,92.4707l-120-64a3.99913,3.99913,0,0,0-3.76562,0l-120,64a4.00022,4.00022,0,0,0,0,7.0586L32,113.3335v52.1206a12.03771,12.03771,0,0,0,2.3916,7.18994C42.03516,182.81494,71.37305,216,128,216c23.07129,0,41.61035-5.50977,56-12.72607V240a4,4,0,0,0,8,0V198.842a106.886,106.886,0,0,0,29.60742-26.197A12.0372,12.0372,0,0,0,224,165.4541V113.3335l25.88281-13.8042a4.00022,4.00022,0,0,0,0-7.0586ZM128,208c-52.91992,0-80.13281-30.74023-87.21289-40.1626A3.93282,3.93282,0,0,1,40,165.4541v-47.854l86.11719,45.9292a4.001,4.001,0,0,0,3.76562,0L184,134.66675v59.574C170.12451,201.86523,151.63281,208,128,208Zm88-42.5459a3.93235,3.93235,0,0,1-.78809,2.38428A97.06518,97.06518,0,0,1,192,189.37671V130.40015l24-12.8Zm-28-41.98755L129.88281,92.4707a4.00012,4.00012,0,0,0-3.76562,7.0586L179.5,128,128,155.4668,16.5,96,128,36.5332,239.5,96Z"/>
</svg>
