<svg xmlns="http://www.w3.org/2000/svg" viewBox="0 0 256 256"><path d="M249.9,92.5l-120-64a3.7,3.7,0,0,0-3.8,0l-120,64a4,4,0,0,0,0,7L32,113.3v52.2a11.5,11.5,0,0,0,2.4,7.1C42,182.8,71.4,216,128,216c23.1,0,41.6-5.5,56-12.7V240a4,4,0,0,0,8,0V198.8a104,104,0,0,0,29.6-26.2,11.5,11.5,0,0,0,2.4-7.1V113.3l25.9-13.8a4,4,0,0,0,0-7ZM128,208c-52.9,0-80.1-30.7-87.2-40.2a3.8,3.8,0,0,1-.8-2.3V117.6l86.1,45.9a3.9,3.9,0,0,0,3.8,0L184,134.7v59.5C170.1,201.9,151.6,208,128,208Zm88-42.5a3.8,3.8,0,0,1-.8,2.3A95.9,95.9,0,0,1,192,189.4v-59l24-12.8Zm-28-42-58.1-31a4,4,0,1,0-3.8,7L179.5,128,128,155.5,16.5,96,128,36.5,239.5,96Z"/></svg>