<svg xmlns="http://www.w3.org/2000/svg" viewBox="0 0 256 256"><path d="M48.8,100H207.2a11.9,11.9,0,0,0,11.7-14.5c-3.4-16.1-14.4-30.7-31.2-41.3S149.9,28,128,28,84.9,33.8,68.3,44.2,40.5,69.4,37.1,85.5A11.9,11.9,0,0,0,48.8,100ZM44.9,87.1C51,58,86.7,36,128,36s77,22,83.1,51.1a4.5,4.5,0,0,1-.8,3.4,4,4,0,0,1-3.1,1.5H48.8a4,4,0,0,1-3.1-1.5A4.5,4.5,0,0,1,44.9,87.1Zm181.6,69.2L188,171.7l-38.5-15.4a3.9,3.9,0,0,0-3,0L108,171.7,69.5,156.3a3.9,3.9,0,0,0-3,0l-40,16a4,4,0,1,0,3,7.4L44,173.9V184a36,36,0,0,0,36,36h96a36,36,0,0,0,36-36V170.7l17.5-7a4,4,0,1,0-3-7.4ZM204,184a28.1,28.1,0,0,1-28,28H80a28.1,28.1,0,0,1-28-28V170.7l16-6.4,38.5,15.4a3.9,3.9,0,0,0,3,0L148,164.3l38.5,15.4a3.9,3.9,0,0,0,3,0l14.5-5.8Zm32-56a4,4,0,0,1-4,4H24a4,4,0,0,1,0-8H232A4,4,0,0,1,236,128Z"/></svg>