<svg id="Flat" xmlns="http://www.w3.org/2000/svg" viewBox="0 0 256 256">
  <path d="M234.98828,206.6748l-14.22168-128A11.98794,11.98794,0,0,0,208.83984,68H171.81006a43.99152,43.99152,0,0,0-87.62012,0H47.16016A11.98794,11.98794,0,0,0,35.2334,78.6748l-14.22168,128A12.00059,12.00059,0,0,0,32.93848,220h190.123a12.00059,12.00059,0,0,0,11.92676-13.3252ZM128,36a36.04775,36.04775,0,0,1,35.77246,32H92.22754A36.04775,36.04775,0,0,1,128,36Zm98.042,174.668A3.94948,3.94948,0,0,1,223.06152,212H32.93848a3.99987,3.99987,0,0,1-3.97559-4.44238l14.22168-128A3.99568,3.99568,0,0,1,47.16016,76H84v28a4,4,0,0,0,8,0V76h72v28a4,4,0,0,0,8,0V76h36.83984a3.99568,3.99568,0,0,1,3.97559,3.55762l14.22168,128A3.95291,3.95291,0,0,1,226.042,210.668Z"/>
</svg>
