<svg id="Flat" xmlns="http://www.w3.org/2000/svg" viewBox="0 0 256 256">
  <path d="M188,88a23.90134,23.90134,0,0,0-16,6.13086V52a23.98641,23.98641,0,0,0-40.07471-17.80444A23.99648,23.99648,0,0,0,84,36V50.13086A23.98433,23.98433,0,0,0,44,68v84a84,84,0,0,0,168,0V112A24.0275,24.0275,0,0,0,188,88Zm16,64a76,76,0,0,1-152,0V68a16,16,0,0,1,32,0v44a4,4,0,0,0,8,0V36a16,16,0,0,1,32,0v68a4,4,0,0,0,8,0V52a16,16,0,0,1,32,0v76.18018A44.059,44.059,0,0,0,124,172a4,4,0,0,0,8,0,36.04061,36.04061,0,0,1,36-36,4.0002,4.0002,0,0,0,4-4V112a16,16,0,0,1,32,0Z"/>
</svg>
