<svg xmlns="http://www.w3.org/2000/svg" viewBox="0 0 256 256"><path d="M188,88a24.1,24.1,0,0,0-16.6,6.7A24,24,0,0,0,132,82.1V36a24,24,0,0,0-48,0V142.3l-14.5-25a23.9,23.9,0,0,0-32.7-8.8,23.5,23.5,0,0,0-11.2,14.6,23.2,23.2,0,0,0,2.3,18C59.6,208,80.5,236,128,236a84.1,84.1,0,0,0,84-84V112A24.1,24.1,0,0,0,188,88Zm16,64a76.1,76.1,0,0,1-76,76c-37,0-56.6-13.7-93-90.4v-.3a16,16,0,0,1,5.9-21.9,15.9,15.9,0,0,1,21.8,5.9l21.9,38a4,4,0,0,0,4.5,1.8,3.9,3.9,0,0,0,3-3.8V36a16,16,0,0,1,32,0v68a4,4,0,0,0,8,0v-4a16,16,0,0,1,32,0v12a4,4,0,0,0,8,0,16,16,0,0,1,32,0Z"/></svg>