<svg id="Flat" xmlns="http://www.w3.org/2000/svg" viewBox="0 0 256 256">
  <path d="M234.98828,206.6748l-14.22168-128A11.98834,11.98834,0,0,0,208.83984,68H171.81006a43.99152,43.99152,0,0,0-87.62012,0H47.16016A11.98834,11.98834,0,0,0,35.2334,78.6748l-14.22168,128A11.99994,11.99994,0,0,0,32.93848,220h190.123a11.99994,11.99994,0,0,0,11.92676-13.3252ZM128,36a36.04775,36.04775,0,0,1,35.77246,32H92.22754A36.04775,36.04775,0,0,1,128,36Zm98.042,174.668A3.95115,3.95115,0,0,1,223.06152,212H32.93848a3.99979,3.99979,0,0,1-3.97559-4.44189L43.18457,79.55859A3.99614,3.99614,0,0,1,47.16016,76H208.83984a3.99611,3.99611,0,0,1,3.97559,3.55811l14.22168,128A3.9524,3.9524,0,0,1,226.042,210.668Z"/>
</svg>
