<svg id="Flat" xmlns="http://www.w3.org/2000/svg" viewBox="0 0 256 256">
  <path d="M216.73926,105.98828l-20-34.64062a23.96962,23.96962,0,0,0-43.56641,4.54L132.09863,39.38574a23.98653,23.98653,0,0,0-43.61328,4.63471A23.98944,23.98944,0,0,0,47.88867,69.5293L58.9541,88.69574a23.98415,23.98415,0,0,0-25.707,35.47467l38,65.81787a84,84,0,1,0,145.49219-84Zm.665,61.67041A76.00079,76.00079,0,0,1,78.1748,185.98828l-38-65.81787a16.00051,16.00051,0,0,1,27.71338-16.001l18.00049,31.17829a4.0033,4.0033,0,0,0,.42285.58746c.03809.04486.07666.08807.11621.13092a3.98886,3.98886,0,0,0,.50245.46454l.01123.00958a3.979,3.979,0,0,0,.58642.35956c.05127.02612.10205.05048.1543.0744a3.9997,3.9997,0,0,0,.604.22546c.01319.00367.02539.0094.03858.01288a4.0121,4.0121,0,0,0,.66894.11225c.05713.00519.11377.0083.1709.011.064.00312.12744.01239.1919.01239a3.99015,3.99015,0,0,0,.46191-.02966c.01172-.00134.02344-.00073.03467-.0022a3.9747,3.9747,0,0,0,.6792-.15362c.05371-.01666.10693-.03485.16015-.054a3.96357,3.96357,0,0,0,2.124-5.761l-18-31.17725-.00147-.00214L54.81641,65.5293a16,16,0,0,1,27.71289-16l34,58.89013a3.9998,3.9998,0,1,0,6.92773-4l-26-45.03369a16.00046,16.00046,0,0,1,27.71387-16l29.99756,51.95752.00244.0044,8.08887,14.01025a44.00842,44.00842,0,0,0-12.73047,57.95117,3.9998,3.9998,0,1,0,6.92773-4,36.00049,36.00049,0,0,1,13.17774-49.17676,4.00305,4.00305,0,0,0,.64648-.46606,3.84134,3.84134,0,0,0,.31885-.34094c.06982-.07794.14941-.1471.21289-.23017a4.00607,4.00607,0,0,0,.28857-.46344c.03809-.06781.0874-.12878.12158-.19891a4.01364,4.01364,0,0,0,.40186-1.49805c.00586-.08435-.00684-.168-.00684-.25232a3.88552,3.88552,0,0,0-.01757-.52734c-.01221-.09564-.04444-.18744-.06348-.28192a3.93468,3.93468,0,0,0-.11182-.48035,4.0298,4.0298,0,0,0-.32666-.72485l-10.001-17.32257a15.99989,15.99989,0,0,1,27.71386-15.99774l20,34.64062A75.50307,75.50307,0,0,1,217.4043,167.65869ZM84.38086,242.28223A3.99888,3.99888,0,0,1,78.81445,243.29a114.9806,114.9806,0,0,1-34.27832-37.29932,3.9998,3.9998,0,0,1,6.92774-4,107.03846,107.03846,0,0,0,31.90918,34.7251A4.00005,4.00005,0,0,1,84.38086,242.28223ZM172,30.99609A4.0003,4.0003,0,0,1,176,27h.00391a56.19919,56.19919,0,0,1,48.48535,28.00439,3.9998,3.9998,0,1,1-6.92774,4A48.17581,48.17581,0,0,0,175.99609,35,3.99989,3.99989,0,0,1,172,30.99609Z"/>
</svg>
