<svg xmlns="http://www.w3.org/2000/svg" viewBox="0 0 256 256"><path d="M235,206.7l-14.2-128a12,12,0,0,0-12-10.7h-37a44,44,0,0,0-87.6,0h-37a12,12,0,0,0-12,10.7L21,206.7a11.7,11.7,0,0,0,3,9.3,12.1,12.1,0,0,0,8.9,4H223.1a12.1,12.1,0,0,0,8.9-4A11.7,11.7,0,0,0,235,206.7ZM128,36a36.1,36.1,0,0,1,35.8,32H92.2A36.1,36.1,0,0,1,128,36Zm98,174.7a3.9,3.9,0,0,1-2.9,1.3H32.9a3.9,3.9,0,0,1-2.9-1.3,3.7,3.7,0,0,1-1-3.1l14.2-128a3.9,3.9,0,0,1,4-3.6H84v28a4,4,0,0,0,8,0V76h72v28a4,4,0,0,0,8,0V76h36.8a3.9,3.9,0,0,1,4,3.6l14.2,128A3.7,3.7,0,0,1,226,210.7Z"/></svg>