<svg id="Flat" xmlns="http://www.w3.org/2000/svg" viewBox="0 0 256 256">
  <path d="M188,88a23.90984,23.90984,0,0,0-16.59912,6.69092A23.97782,23.97782,0,0,0,132,82.13086V36a24,24,0,0,0-48,0V142.33789L69.53613,117.28662a23.99966,23.99966,0,0,0-41.65234,23.85352C59.60156,208.03711,80.541,236,128,236a84.0953,84.0953,0,0,0,84-84V112A24.02718,24.02718,0,0,0,188,88Zm16,64a76.08614,76.08614,0,0,1-76,76c-36.96875,0-56.56934-13.66162-92.9541-90.42676-.0459-.09765-.09668-.19336-.15039-.28662a16,16,0,1,1,27.71289-16l21.92773,37.97949a3.99985,3.99985,0,0,0,7.46387-2V36a16,16,0,0,1,32,0v68a4,4,0,0,0,8,0v-4a16,16,0,0,1,32,0v12a4,4,0,0,0,8,0,16,16,0,0,1,32,0Z"/>
</svg>
