<svg id="Flat" xmlns="http://www.w3.org/2000/svg" viewBox="0 0 256 256">
  <path d="M200,84H180V64a27.99342,27.99342,0,0,0-52-14.405A27.99342,27.99342,0,0,0,76,64v4.43066A27.9817,27.9817,0,0,0,28,88v40a100,100,0,0,0,200,0V112A28.03146,28.03146,0,0,0,200,84ZM152,44a20.0226,20.0226,0,0,1,20,20V84H136a11.91772,11.91772,0,0,0-4,.70007V64A20.0226,20.0226,0,0,1,152,44ZM84,64a20,20,0,0,1,40,0v40a20,20,0,0,1-40,0V64ZM36,88a20,20,0,0,1,40,0v16a20,20,0,0,1-40,0Zm184,40a92,92,0,0,1-184,0v-4.42285A27.97095,27.97095,0,0,0,80,118.405a27.97077,27.97077,0,0,0,45.72705,3.23181,28.11274,28.11274,0,0,0,18.59326,17.29236A44.00822,44.00822,0,0,0,124,176a4,4,0,0,0,8,0,36.04061,36.04061,0,0,1,36-36,4,4,0,0,0,0-8H152a20.0226,20.0226,0,0,1-20-20V96a4.00427,4.00427,0,0,1,4-4h64a20.0226,20.0226,0,0,1,20,20Z"/>
</svg>
