<svg id="Flat" xmlns="http://www.w3.org/2000/svg" viewBox="0 0 256 256">
  <path d="M180,100.22754V88a28.03146,28.03146,0,0,0-28-28H132V28h36a12.01375,12.01375,0,0,1,12,12,4,4,0,0,0,8,0,20.02229,20.02229,0,0,0-20-20H104a4,4,0,0,0,0,8h20V60H104A28.03146,28.03146,0,0,0,76,88v12.22754A36.04775,36.04775,0,0,0,44,136v80a12.01343,12.01343,0,0,0,12,12H200a12.01343,12.01343,0,0,0,12-12V136A36.04775,36.04775,0,0,0,180,100.22754ZM104,68h48a20.02229,20.02229,0,0,1,20,20v12H84V88A20.02229,20.02229,0,0,1,104,68ZM204,216a4.00458,4.00458,0,0,1-4,4H56a4.00458,4.00458,0,0,1-4-4V136a28.03146,28.03146,0,0,1,28-28h96a28.03146,28.03146,0,0,1,28,28Z"/>
</svg>
