<svg xmlns="http://www.w3.org/2000/svg" viewBox="0 0 256 256"><path d="M128,132c-26.7,0-43,20.6-48.8,29.4a12.1,12.1,0,0,0,0,13.2C85,183.4,101.3,204,128,204s43-20.6,48.8-29.4a12.1,12.1,0,0,0,0-13.2C171,152.6,154.7,132,128,132Zm42,38.2c-5,7.8-19.2,25.8-42,25.8s-37-18-42-25.8a3.9,3.9,0,0,1,0-4.4c5-7.8,19.2-25.8,42-25.8s37,18,42,25.8A3.9,3.9,0,0,1,170,170.2ZM188,88a23.9,23.9,0,0,0-16,6.1V52a24.1,24.1,0,0,0-24-24,23.8,23.8,0,0,0-16.1,6.2A24,24,0,0,0,84,36V50.1A24,24,0,0,0,44,68v84a84,84,0,0,0,168,0V112A24.1,24.1,0,0,0,188,88Zm16,64a76,76,0,0,1-152,0V68a16,16,0,0,1,32,0v44a4,4,0,0,0,8,0V36a16,16,0,0,1,32,0v68a4,4,0,0,0,8,0V52a16,16,0,0,1,32,0v64a4,4,0,0,0,8,0v-4a16,16,0,0,1,32,0Zm-68,16a8,8,0,1,1-8-8A8,8,0,0,1,136,168Z"/></svg>