<svg xmlns="http://www.w3.org/2000/svg" viewBox="0 0 256 256"><path d="M188,44a23.9,23.9,0,0,0-16,6.1V36a24,24,0,0,0-47.9-1.8A23.8,23.8,0,0,0,108,28,24.1,24.1,0,0,0,84,52v90.3l-14.5-25a23.9,23.9,0,0,0-32.7-8.8,23.5,23.5,0,0,0-11.2,14.6,23.2,23.2,0,0,0,2.3,18C59.6,208,80.5,236,128,236a84.1,84.1,0,0,0,84-84V68A24.1,24.1,0,0,0,188,44Zm16,108a76.1,76.1,0,0,1-76,76c-37,0-56.6-13.7-93-90.4v-.3a16,16,0,0,1,5.9-21.9,15.9,15.9,0,0,1,21.8,5.9l21.9,38a4,4,0,0,0,4.5,1.8,3.9,3.9,0,0,0,3-3.8V52a16,16,0,0,1,32,0v68a4,4,0,0,0,8,0V36a16,16,0,0,1,32,0v84a4,4,0,0,0,8,0V68a16,16,0,0,1,32,0Z"/></svg>