<svg id="Flat" xmlns="http://www.w3.org/2000/svg" viewBox="0 0 256 256">
  <path d="M247.77734,109.07471,223.18457,61.97852a12.05548,12.05548,0,0,0-16.00391-5.1792l-24.125,12.062H164.86377L131.08008,53.5752a12.0181,12.0181,0,0,0-8.30469-.58741L72.59766,67.61615,48.81934,55.72754a12.05752,12.05752,0,0,0-16.00391,5.17871L8.22266,108.00342a12.00088,12.00088,0,0,0,5.2705,16.28711L37.853,136.47046l54.34424,42.49438a11.91724,11.91724,0,0,0,4.48144,2.18946l57.957,14.48925a11.91,11.91,0,0,0,2.88281.35352,12.06751,12.06751,0,0,0,8.5127-3.50977l36.79688-36.79736c.07421-.07373.14453-.15039.21289-.22949l15.47363-18.10211,23.99219-11.996a12.00124,12.00124,0,0,0,5.2705-16.28759Zm-48.415,38.37689-41.00976-29.82514a4.00119,4.00119,0,0,0-4.75293.03467l-12.79981,9.6001a28.14358,28.14358,0,0,1-33.5996,0l-5.4209-4.06543a3.99978,3.99978,0,0,1-.42871-6.02783L140.48535,78.0332a4.02842,4.02842,0,0,1,2.82813-1.17187h20.67529l.00928.001.01367-.001h17.56445l29.627,56.73761ZM15.05469,114.78906a3.96941,3.96941,0,0,1,.25976-3.083L39.90723,64.60889a4.01768,4.01768,0,0,1,3.56152-2.144,3.95148,3.95148,0,0,1,1.77246.418l21.3291,10.66407L38.27344,127.73633,17.07129,117.13525A3.96911,3.96911,0,0,1,15.05469,114.78906Zm145.32031,72.041a4.01527,4.01527,0,0,1-3.7998,1.05176l-57.957-14.48926a3.96913,3.96913,0,0,1-1.49316-.72949l-52.03809-40.691L74.65332,75.35l50.36035-14.68152a4.00066,4.00066,0,0,1,2.76856.19531l17.67431,7.99756h-2.14306A11.91947,11.91947,0,0,0,134.8291,72.376L95.69434,111.51074a11.99951,11.99951,0,0,0,1.28418,18.08545l5.42089,4.06543a36.18887,36.18887,0,0,0,43.20118,0l10.43554-7.82764,37.82569,27.509Zm80.57031-70.96924a3.96914,3.96914,0,0,1-2.0166,2.34619l-21.20215,10.60108L189.42969,74.61865l21.3291-10.66406a4.01661,4.01661,0,0,1,5.334,1.72656l24.59278,47.09619A3.97079,3.97079,0,0,1,240.94531,115.86084ZM115.88086,213.83105a3.99648,3.99648,0,0,1-4.85059,2.91114L80.89063,209.208a12.065,12.065,0,0,1-4.9629-2.58594L53.376,187.01855a3.99964,3.99964,0,1,1,5.248-6.0371L81.17676,200.585a4.03759,4.03759,0,0,0,1.65625.86231l30.13672,7.5332A4.00094,4.00094,0,0,1,115.88086,213.83105Z"/>
</svg>
