<svg xmlns="http://www.w3.org/2000/svg" viewBox="0 0 256 256"><path d="M216.7,106l-20-34.7a24,24,0,0,0-43.5,4.6L132.1,39.4A24,24,0,0,0,88.5,44a24.5,24.5,0,0,0-13.6-9.7,24,24,0,0,0-29.4,17,23.6,23.6,0,0,0,2.4,18.2L55,81.8a24,24,0,0,0-25.8,35.4l42,72.8a84.3,84.3,0,0,0,72.9,42,84,84,0,0,0,72.6-126Zm.7,61.7A76,76,0,0,1,78.2,186l-42-72.8a16,16,0,0,1,27.7-16l22,38.1a1.5,1.5,0,0,0,.4.6v.2l.5.4h0l.6.4h.2l.6.2h2.4l.7-.3a4,4,0,0,0,1.4-5.5l-22-38.1h0l-16-27.7a15.9,15.9,0,0,1,5.9-21.8,15.6,15.6,0,0,1,12.1-1.6,15.7,15.7,0,0,1,9.7,7.4l34,58.9a4.1,4.1,0,0,0,4.8,1.8l.7-.3a4,4,0,0,0,2-3.2,4.6,4.6,0,0,0-.5-2.3l-26-45a16,16,0,1,1,27.7-16l30,51.9h0l8.1,14.1a43.4,43.4,0,0,0-17.2,24.5,44.3,44.3,0,0,0,4.4,33.4,4,4,0,1,0,7-4,36.1,36.1,0,0,1,13.1-49.2l.7-.4.3-.4.2-.2.3-.5v-.2a2.4,2.4,0,0,0,.4-1.5v-.7a.4.4,0,0,0-.1-.3.9.9,0,0,0-.1-.5l-.3-.7-10-17.4a16,16,0,0,1,18-23.4,15.7,15.7,0,0,1,9.7,7.4l20,34.7A75.2,75.2,0,0,1,217.4,167.7Zm-133,74.6a4,4,0,0,1-3.3,1.7,3.9,3.9,0,0,1-2.3-.7A115.6,115.6,0,0,1,44.5,206a4,4,0,0,1,7-4,106,106,0,0,0,31.9,34.7A4.1,4.1,0,0,1,84.4,242.3ZM172,31a4,4,0,0,1,4-4h0a56.2,56.2,0,0,1,48.5,28,4.1,4.1,0,0,1-1.5,5.5,4.6,4.6,0,0,1-2,.5,3.8,3.8,0,0,1-3.4-2A48.2,48.2,0,0,0,176,35,4,4,0,0,1,172,31Z"/></svg>