<svg id="Flat" xmlns="http://www.w3.org/2000/svg" viewBox="0 0 256 256">
  <path d="M224,92H170.61133l9.32422-51.28418a4.00012,4.00012,0,1,0-7.8711-1.43164L162.47949,92H106.61133l9.32422-51.28418a4.00012,4.00012,0,1,0-7.8711-1.43164L98.47949,92H43.63672a4,4,0,0,0,0,8H97.02539L86.84326,156H32a4,4,0,0,0,0,8H85.38867l-9.32422,51.28418a4.00012,4.00012,0,1,0,7.8711,1.43164L93.52051,164h55.86816l-9.32422,51.28418a4.00012,4.00012,0,1,0,7.8711,1.43164L157.52051,164h54.84277a4,4,0,1,0,0-8H158.97461l10.18213-56H224a4,4,0,0,0,0-8Zm-73.15674,64H94.97461l10.18213-56h55.86865Z"/>
</svg>
