<svg id="Flat" xmlns="http://www.w3.org/2000/svg" viewBox="0 0 256 256">
  <path d="M199.90234,57.02637a99.25278,99.25278,0,0,0-71.1455-29.02344A100.00065,100.00065,0,0,0,28,128v56a20.02229,20.02229,0,0,0,20,20H64a20.02229,20.02229,0,0,0,20-20V144a20.02229,20.02229,0,0,0-20-20H36.085a92.00542,92.00542,0,0,1,92.67188-87.99756A92.00463,92.00463,0,0,1,221.37109,124h-27.915a20.02229,20.02229,0,0,0-20,20v40a20.02229,20.02229,0,0,0,20,20h16a19.86943,19.86943,0,0,0,12-4.03809V208a28.03145,28.03145,0,0,1-28,28H136a4,4,0,0,0,0,8h57.45605a36.04061,36.04061,0,0,0,36-36V128A99.3124,99.3124,0,0,0,199.90234,57.02637ZM64,132a12.01343,12.01343,0,0,1,12,12v40a12.01312,12.01312,0,0,1-12,12H48a12.01312,12.01312,0,0,1-12-12V132Zm145.45605,64h-16a12.01312,12.01312,0,0,1-12-12V144a12.01344,12.01344,0,0,1,12-12h28v52A12.01312,12.01312,0,0,1,209.45605,196Z"/>
</svg>
