<svg id="Flat" xmlns="http://www.w3.org/2000/svg" viewBox="0 0 256 256">
  <path d="M199.90234,65.02637a99.18465,99.18465,0,0,0-71.1455-29.02344A100.00065,100.00065,0,0,0,28,136v56a20.02229,20.02229,0,0,0,20,20H64a20.02229,20.02229,0,0,0,20-20V152a20.02229,20.02229,0,0,0-20-20H36.085a92.00456,92.00456,0,0,1,92.67188-87.99707A92.00377,92.00377,0,0,1,221.37109,132h-27.915a20.02229,20.02229,0,0,0-20,20v40a20.02229,20.02229,0,0,0,20,20h16a20.02228,20.02228,0,0,0,20-20V136A99.31322,99.31322,0,0,0,199.90234,65.02637ZM64,140a12.01312,12.01312,0,0,1,12,12v40a12.01343,12.01343,0,0,1-12,12H48a12.01343,12.01343,0,0,1-12-12V140Zm157.45605,52a12.01343,12.01343,0,0,1-12,12h-16a12.01344,12.01344,0,0,1-12-12V152a12.01312,12.01312,0,0,1,12-12h28Z"/>
</svg>
