<svg xmlns="http://www.w3.org/2000/svg" viewBox="0 0 256 256"><path d="M199.9,57a99.3,99.3,0,0,0-71.1-29A100,100,0,0,0,28,128v56a20.1,20.1,0,0,0,20,20H64a20.1,20.1,0,0,0,20-20V144a20.1,20.1,0,0,0-20-20H36.1a92,92,0,0,1,92.7-88,92,92,0,0,1,92.6,88H193.5a20,20,0,0,0-20,20v40a20,20,0,0,0,20,20h16a20.1,20.1,0,0,0,12-4v8a28.1,28.1,0,0,1-28,28H136a4,4,0,0,0,0,8h57.5a36,36,0,0,0,36-36V128A99.1,99.1,0,0,0,199.9,57ZM64,132a12,12,0,0,1,12,12v40a12,12,0,0,1-12,12H48a12,12,0,0,1-12-12V132Zm145.5,64h-16a12,12,0,0,1-12-12V144a12,12,0,0,1,12-12h28v52A12,12,0,0,1,209.5,196Z"/></svg>