<svg id="Flat" xmlns="http://www.w3.org/2000/svg" viewBox="0 0 256 256">
  <path d="M164,80a4.0002,4.0002,0,0,1,4-4h72a4,4,0,0,1,0,8H168A4.0002,4.0002,0,0,1,164,80Zm76,92H168a4,4,0,0,0,0,8h72a4,4,0,0,0,0-8Zm0-64H168a4,4,0,0,0,0,8h72a4,4,0,0,0,0-8Zm0,32H168a4,4,0,0,0,0,8h72a4,4,0,0,0,0-8ZM140,64V192a12.01343,12.01343,0,0,1-12,12H88A76.00037,76.00037,0,0,1,12.002,127.4248C12.31055,85.835,46.80859,52,88.90381,52H128A12.01343,12.01343,0,0,1,140,64Zm-8,0a4.00427,4.00427,0,0,0-4-4H88.90381C51.187,60,20.27783,90.27344,20.002,127.4834A68.00056,68.00056,0,0,0,88,196h40a4.00427,4.00427,0,0,0,4-4Z"/>
</svg>
