<svg xmlns="http://www.w3.org/2000/svg" viewBox="0 0 256 256"><path d="M199.9,65a99.3,99.3,0,0,0-71.1-29A100,100,0,0,0,28,136v56a20.1,20.1,0,0,0,20,20H64a20.1,20.1,0,0,0,20-20V152a20.1,20.1,0,0,0-20-20H36.1a92,92,0,0,1,92.7-88,92,92,0,0,1,92.6,88H193.5a20,20,0,0,0-20,20v40a20,20,0,0,0,20,20h16a20.1,20.1,0,0,0,20-20V136A99.1,99.1,0,0,0,199.9,65ZM64,140a12,12,0,0,1,12,12v40a12,12,0,0,1-12,12H48a12,12,0,0,1-12-12V140Zm157.5,52a12,12,0,0,1-12,12h-16a12,12,0,0,1-12-12V152a12,12,0,0,1,12-12h28Z"/></svg>