<svg xmlns="http://www.w3.org/2000/svg" viewBox="0 0 256 256"><path d="M221.7,54.6a56,56,0,0,0-81.3-2.2L128,64.8,117.7,54.5a60.3,60.3,0,0,0-39-17.7A54,54,0,0,0,38.6,50.3a56,56,0,0,0-2.2,81.3l83.1,83.1a12.1,12.1,0,0,0,17,0l81-81a60.3,60.3,0,0,0,17.7-39A54,54,0,0,0,221.7,54.6ZM211.9,128l-81.1,81.1a4,4,0,0,1-5.6,0L42.1,125.9a47.9,47.9,0,0,1,1.8-69.6A45.9,45.9,0,0,1,75,44.7a52.4,52.4,0,0,1,37,15.4l10.5,10.5L109,85.3a4,4,0,0,0,.2,5.5L138.3,120l-13.1,13.2a3.9,3.9,0,0,0,0,5.6,3.9,3.9,0,0,0,5.6,0l16-16a3.9,3.9,0,0,0,0-5.6L117.5,87.9l28.6-29.8a47.9,47.9,0,0,1,69.6,1.8C232.5,78.6,230.8,109.1,211.9,128Z"/></svg>