<svg xmlns="http://www.w3.org/2000/svg" viewBox="0 0 256 256"><path d="M176,36a55.5,55.5,0,0,0-39.6,16.4l-9.3,9.3A56,56,0,0,0,24,92c0,29.4,17.3,59.8,51.3,90.5a321.4,321.4,0,0,0,50.7,37,4.3,4.3,0,0,0,4,0,321.4,321.4,0,0,0,50.7-37c34-30.7,51.3-61.1,51.3-90.5A56,56,0,0,0,176,36ZM128,211.4C114.2,203.1,32,151.7,32,92a48,48,0,0,1,89.3-24.5L104.4,84.4a4,4,0,0,0,0,5.7l29.2,29.1-13.2,13.2a4,4,0,0,0,0,5.7,4.2,4.2,0,0,0,5.7,0l16-16a4.2,4.2,0,0,0,0-5.7L112.9,87.2,129,71.1h.1l13-12.9A47.4,47.4,0,0,1,176,44a48,48,0,0,1,48,48C224,151.7,141.8,203.1,128,211.4Z"/></svg>