<svg id="Flat" xmlns="http://www.w3.org/2000/svg" viewBox="0 0 256 256">
  <path d="M128.00586,220a3.993,3.993,0,0,1-1.9541-.51,312.79378,312.79378,0,0,1-50.72168-37.01685C41.27344,151.82263,24.00586,121.38306,24.00586,92a56.013,56.013,0,0,1,104-28.87823A56.013,56.013,0,0,1,232.00586,92c0,29.38306-17.26758,59.82263-51.32422,90.47314A312.79378,312.79378,0,0,1,129.96,219.49,3.993,3.993,0,0,1,128.00586,220Zm-48-176a48.054,48.054,0,0,0-48,48c0,59.701,82.17578,111.14148,96,119.36853,13.82422-8.227,96-59.66754,96-119.36853a48.00892,48.00892,0,0,0-92.30957-18.49268,3.99954,3.99954,0,0,1-7.38086,0A47.90343,47.90343,0,0,0,80.00586,44Z"/>
</svg>
