<svg id="Flat" xmlns="http://www.w3.org/2000/svg" viewBox="0 0 256 256">
  <path d="M72,132H32a4,4,0,0,1,0-8H69.85938l14.8125-22.21875a3.99979,3.99979,0,0,1,6.65624,0L120,144.78906l12.67188-19.00781A3.99971,3.99971,0,0,1,136,124h24a4,4,0,0,1,0,8H138.14062l-14.8125,22.21875a3.99979,3.99979,0,0,1-6.65624,0L88,111.21094,75.32812,130.21875A3.99971,3.99971,0,0,1,72,132ZM176,36a55.86592,55.86592,0,0,0-48,27.12158A56.01307,56.01307,0,0,0,24,92c0,1.397.04053,2.81738.12061,4.22119a4.00014,4.00014,0,0,0,7.9873-.45557C32.03613,94.5127,32,93.24561,32,92a48.00863,48.00863,0,0,1,92.30908-18.49268A3.99982,3.99982,0,0,0,128,75.96484h0a3.99914,3.99914,0,0,0,3.69043-2.45752A48.00892,48.00892,0,0,1,224,92c0,59.70508-82.18555,111.148-96.00195,119.36963-8.31934-4.938-41.40723-25.49121-66.3291-54.001a3.99993,3.99993,0,0,0-6.023,5.26514c29.51318,33.76172,68.74414,55.9292,70.39941,56.85644a4.00209,4.00209,0,0,0,3.90918,0,312.8706,312.8706,0,0,0,50.72119-37.01709C214.73193,151.82275,232,121.38281,232,92A56.06353,56.06353,0,0,0,176,36Z"/>
</svg>
