<svg xmlns="http://www.w3.org/2000/svg" viewBox="0 0 256 256"><path d="M128,218.2a11.6,11.6,0,0,1-8.5-3.5L36.4,131.6a56,56,0,0,1,2.2-81.3A54,54,0,0,1,78.7,36.8a60.3,60.3,0,0,1,39,17.7L128,64.8l12.4-12.4a56,56,0,0,1,81.3,2.2,54,54,0,0,1,13.5,40.1,60.3,60.3,0,0,1-17.7,39l-81,81h0A12.2,12.2,0,0,1,128,218.2Zm5.7-6.3ZM75,44.7A45.9,45.9,0,0,0,43.9,56.3a47.9,47.9,0,0,0-1.8,69.6l83.1,83.2a4,4,0,0,0,5.6,0L211.9,128c18.9-18.9,20.6-49.4,3.8-68.1a47.9,47.9,0,0,0-69.6-1.8L130.8,73.3a3.9,3.9,0,0,1-5.6,0L112,60.1A52.6,52.6,0,0,0,75,44.7Z"/></svg>