<svg id="Flat" xmlns="http://www.w3.org/2000/svg" viewBox="0 0 256 256">
  <path d="M128,218.21924a11.96345,11.96345,0,0,1-8.48535-3.5083l-83.11231-83.113A56.00277,56.00277,0,0,1,38.583,50.33264,54.06486,54.06486,0,0,1,78.69629,36.7843a60.7231,60.7231,0,0,1,38.98144,17.69824L128,64.804l12.40234-12.402A56.00292,56.00292,0,0,1,221.668,54.58313,54.06218,54.06218,0,0,1,235.21582,94.6958a60.726,60.726,0,0,1-17.69824,38.98267l-81.03223,81.03222v.00049A11.96576,11.96576,0,0,1,128,218.21924Zm5.65723-6.33692h0ZM74.9834,44.74341A46.08415,46.08415,0,0,0,43.93652,56.27759,48.00278,48.00278,0,0,0,42.05859,125.941l83.11231,83.11279a4.00643,4.00643,0,0,0,5.6582-.00036l81.03223-81.03174c18.9082-18.90881,20.64062-49.45166,3.86133-68.08533A48.00314,48.00314,0,0,0,146.05859,58.059L130.82813,73.28918a3.9992,3.9992,0,0,1-5.65625.00013L112.02148,60.1394A52.59432,52.59432,0,0,0,74.9834,44.74341Z"/>
</svg>
