<svg id="Flat" xmlns="http://www.w3.org/2000/svg" viewBox="0 0 256 256">
  <path d="M198.71,57.28906A99.99933,99.99933,0,1,0,57.29,198.71,99.99933,99.99933,0,1,0,198.71,57.28906ZM92,212.7V152a4.00427,4.00427,0,0,1,4-4h64a4.00427,4.00427,0,0,1,4,4v60.7a92.41654,92.41654,0,0,1-72,0ZM148,140H108V98.47217l40-20Zm45.05371,53.05371A92.35133,92.35133,0,0,1,172,208.82678V152a12.01343,12.01343,0,0,0-12-12h-4V72a4,4,0,0,0-5.78906-3.57764l-48,24A4.001,4.001,0,0,0,100,96v44H96a12.01343,12.01343,0,0,0-12,12v56.82678a92.35133,92.35133,0,0,1-21.05371-15.77307,92,92,0,1,1,130.10742,0Z"/>
</svg>
