<svg id="Flat" xmlns="http://www.w3.org/2000/svg" viewBox="0 0 256 256">
  <path d="M129.99976,100a6,6,0,1,1-6-6A6.00014,6.00014,0,0,1,129.99976,100Zm97.99047,29.42285A100.29607,100.29607,0,0,1,130.02148,227.98q-1.00488.01977-2.00781.02A99.67467,99.67467,0,0,1,61.332,202.53564a4.00015,4.00015,0,1,1,5.33594-5.96093A91.88509,91.88509,0,0,0,91.36133,212.4126l30.7959-43.11475c-25.04981-13.22558-53.20508-11.15918-68.1875-8.62256A27.85078,27.85078,0,0,1,26.543,149.45605L12.75586,130.33984a3.99946,3.99946,0,0,1,1.14746-5.74658L116,61.76465V32a4.0002,4.0002,0,0,1,4-4h8a100.00046,100.00046,0,0,1,99.99023,101.42285Zm-34.48144-66.019A91.34138,91.34138,0,0,0,128,36h-4V64a4.00064,4.00064,0,0,1-1.90332,3.40674l-100.335,61.74414,11.26953,15.62549a19.911,19.911,0,0,0,19.60254,8.01123c16.62793-2.81494,48.48328-5.03906,76.39014,11.18652A44.04263,44.04263,0,0,0,172,120a4,4,0,0,1,8,0,52.05612,52.05612,0,0,1-49.90381,51.94678l-31.00928,43.4126A92.01205,92.01205,0,0,0,193.50879,63.40381Z"/>
</svg>
