<svg xmlns="http://www.w3.org/2000/svg" viewBox="0 0 256 256"><path d="M199.2,57.8A99.2,99.2,0,0,0,128,28h-8a4,4,0,0,0-4,4V61.8L13.9,124.6a4,4,0,0,0-1.8,2.6,3.8,3.8,0,0,0,.7,3.1l13.7,19.2A28,28,0,0,0,54,160.7c15-2.6,43.1-4.6,68.2,8.6L91.4,212.4a92,92,0,0,1-24.7-15.8,4,4,0,1,0-5.4,5.9A99.5,99.5,0,0,0,128,228h2a100.5,100.5,0,0,0,98-98.6A99.3,99.3,0,0,0,199.2,57.8ZM220,129.3A92.2,92.2,0,0,1,129.9,220a93.5,93.5,0,0,1-30.8-4.6l31-43.5A52,52,0,0,0,180,120a4,4,0,0,0-8,0,44.1,44.1,0,0,1-43,44c-27.9-16.3-59.7-14-76.4-11.2a19.9,19.9,0,0,1-19.6-8L21.8,129.2,122.1,67.4A3.9,3.9,0,0,0,124,64V36h4a92,92,0,0,1,92,93.3ZM132,100a8,8,0,1,1-8-8A8,8,0,0,1,132,100Z"/></svg>