<svg id="Flat" xmlns="http://www.w3.org/2000/svg" viewBox="0 0 256 256">
  <path d="M199.2041,57.78613A99.28144,99.28144,0,0,0,128,28h-8a4.0002,4.0002,0,0,0-4,4V61.76465L13.90332,124.59326a3.99946,3.99946,0,0,0-1.14746,5.74658L26.543,149.45605a27.85078,27.85078,0,0,0,27.42676,11.21924c14.98242-2.53662,43.13769-4.603,68.1875,8.62256L91.36133,212.4126A91.88509,91.88509,0,0,1,66.668,196.57471a4.00015,4.00015,0,1,0-5.33594,5.96093A99.67467,99.67467,0,0,0,128.01367,228q1.00342,0,2.00781-.02A100.0001,100.0001,0,0,0,199.2041,57.78613Zm20.78613,71.52539A92.05084,92.05084,0,0,1,99.08691,215.35938l31.00928-43.4126A52.05612,52.05612,0,0,0,180,120a4,4,0,0,0-8,0,44.04263,44.04263,0,0,1-42.97607,43.97412c-27.90686-16.22558-59.76221-14.00146-76.39014-11.18652a19.911,19.911,0,0,1-19.60254-8.01123L21.76172,129.15088l100.335-61.74414A4.00064,4.00064,0,0,0,124,64V36h4a91.99841,91.99841,0,0,1,91.99023,93.31152ZM132,100a8,8,0,1,1-8-8A8.00917,8.00917,0,0,1,132,100Z"/>
</svg>
