<svg id="Flat" xmlns="http://www.w3.org/2000/svg" viewBox="0 0 256 256">
  <path d="M196,75.64111V40a12.01375,12.01375,0,0,0-12-12H72A12.01375,12.01375,0,0,0,60,40V76a12.057,12.057,0,0,0,4.7998,9.59961L121.3335,128,64.7998,170.40039A12.057,12.057,0,0,0,60,180v36a12.01375,12.01375,0,0,0,12,12H184a12.01375,12.01375,0,0,0,12-12V180.35889a12.0629,12.0629,0,0,0-4.76367-9.57276L134.6333,128l56.603-42.78613A12.0629,12.0629,0,0,0,196,75.64111Zm-8,104.71778V216a4.00458,4.00458,0,0,1-4,4H72a4.00458,4.00458,0,0,1-4-4V180a4.0207,4.0207,0,0,1,1.6001-3.2002l58.39062-43.793,58.42139,44.16064A4.0226,4.0226,0,0,1,188,180.35889Zm0-104.71778a4.021,4.021,0,0,1-1.58789,3.19092l-58.42139,44.16113L69.59961,79.2002A4.02164,4.02164,0,0,1,68,76V40a4.00458,4.00458,0,0,1,4-4H184a4.00458,4.00458,0,0,1,4,4Z"/>
</svg>
