<svg xmlns="http://www.w3.org/2000/svg" viewBox="0 0 256 256"><path d="M196,75.6V40a12,12,0,0,0-12-12H72A12,12,0,0,0,60,40V76a12.1,12.1,0,0,0,4.8,9.6L121.3,128,64.8,170.4A12.1,12.1,0,0,0,60,180v36a12,12,0,0,0,12,12H184a12,12,0,0,0,12-12V180.4a11.9,11.9,0,0,0-4.8-9.6L134.6,128l56.6-42.8A11.9,11.9,0,0,0,196,75.6Zm-8,104.8V216a4,4,0,0,1-4,4H72a4,4,0,0,1-4-4V180a4,4,0,0,1,1.6-3.2L128,133l58.4,44.2A3.9,3.9,0,0,1,188,180.4Zm0-104.8a3.9,3.9,0,0,1-1.6,3.2L128,123,69.6,79.2A4,4,0,0,1,68,76V40a4,4,0,0,1,4-4H184a4,4,0,0,1,4,4Z"/></svg>