<svg xmlns="http://www.w3.org/2000/svg" viewBox="0 0 256 256"><path d="M184,28H72A12,12,0,0,0,60,40V76a12.1,12.1,0,0,0,4.8,9.6L121.3,128,64.8,170.4A12.1,12.1,0,0,0,60,180v36a12,12,0,0,0,12,12H184a12,12,0,0,0,12-12V180.4a11.9,11.9,0,0,0-4.8-9.6L134.6,128l56.6-42.8a11.9,11.9,0,0,0,4.8-9.6V40A12,12,0,0,0,184,28ZM72,36H184a4,4,0,0,1,4,4V60H68V40A4,4,0,0,1,72,36ZM188,180.4V216a4,4,0,0,1-4,4H72a4,4,0,0,1-4-4V180a4,4,0,0,1,1.6-3.2L128,133l58.4,44.2A3.9,3.9,0,0,1,188,180.4ZM186.4,78.8,128,123,69.6,79.2A4,4,0,0,1,68,76V68H188v7.6A3.9,3.9,0,0,1,186.4,78.8Z"/></svg>