<svg id="Flat" xmlns="http://www.w3.org/2000/svg" viewBox="0 0 256 256">
  <path d="M196.68628,220H59.31372a12,12,0,0,1-8.48523-20.48535L122.34314,128,50.82849,56.48535A12,12,0,0,1,59.31372,36H196.68628a12,12,0,0,1,8.48523,20.48535L133.65686,128l71.51465,71.51465A12,12,0,0,1,196.68628,220ZM128,133.65674,56.48523,205.17188A3.99983,3.99983,0,0,0,59.31372,212H196.68628a3.99983,3.99983,0,0,0,2.82849-6.82812ZM59.31372,44a3.99983,3.99983,0,0,0-2.82849,6.82812L128,122.34326l71.51477-71.51514A3.99983,3.99983,0,0,0,196.68628,44Z"/>
</svg>
