<svg id="Flat" xmlns="http://www.w3.org/2000/svg" viewBox="0 0 256 256">
  <path d="M196,75.64111V40a12.01375,12.01375,0,0,0-12-12H72A12.01375,12.01375,0,0,0,60,40V76a12.0574,12.0574,0,0,0,4.7998,9.59985L121.3335,128,64.7998,170.3999a12.05832,12.05832,0,0,0-4.79834,9.57373L60,179.98877l.00049.00415L60,180v36a12.01375,12.01375,0,0,0,12,12H184a12.01375,12.01375,0,0,0,12-12V180.35889a12.0629,12.0629,0,0,0-4.76367-9.57276L134.6333,128l56.603-42.78613A12.0629,12.0629,0,0,0,196,75.64111Zm-10.68262,100.699-114.67529-.32154,57.34863-43.01147ZM184,220H72a4.00458,4.00458,0,0,1-4-4V184.01123l120,.33643V216A4.00458,4.00458,0,0,1,184,220Zm4-144.35889a4.02179,4.02179,0,0,1-1.58789,3.19117l-58.42139,44.16064L69.59961,79.2A4.02009,4.02009,0,0,1,68,76V40a4.00458,4.00458,0,0,1,4-4H184a4.00458,4.00458,0,0,1,4,4Z"/>
</svg>
