<svg id="Flat" xmlns="http://www.w3.org/2000/svg" viewBox="0 0 256 256">
  <path d="M133.65674,128l71.51465-71.51465A11.99985,11.99985,0,0,0,196.68652,36H59.31348a11.99985,11.99985,0,0,0-8.48487,20.48535L122.34326,128,50.82861,199.51465A11.99985,11.99985,0,0,0,59.31348,220h137.373a11.99985,11.99985,0,0,0,8.48487-20.48535ZM56.48535,50.82812A3.99976,3.99976,0,0,1,59.31348,44h137.373a3.99976,3.99976,0,0,1,2.82813,6.82812L128,122.34326ZM128,133.65674,166.34326,172H89.65674Zm72.38184,75.874A3.92414,3.92414,0,0,1,196.68652,212H59.31348a3.99976,3.99976,0,0,1-2.82813-6.82812L81.65723,180h92.68554l25.17188,25.17188A3.92275,3.92275,0,0,1,200.38184,209.53076Z"/>
</svg>
