<svg xmlns="http://www.w3.org/2000/svg" viewBox="0 0 256 256"><path d="M133.7,128l71.5-71.5A12,12,0,0,0,196.7,36H59.3a12,12,0,0,0-8.5,20.5L122.3,128,50.8,199.5A12,12,0,0,0,59.3,220H196.7a12,12,0,0,0,8.5-20.5ZM55.6,46.5A4,4,0,0,1,59.3,44H196.7a4,4,0,0,1,3.7,2.5,3.9,3.9,0,0,1-.9,4.3L174.3,76H81.7L56.5,50.8A3.9,3.9,0,0,1,55.6,46.5ZM89.7,84h76.6L128,122.3ZM200.4,209.5a4,4,0,0,1-3.7,2.5H59.3a4,4,0,0,1-3.7-2.5,3.9,3.9,0,0,1,.9-4.3L124,137.7V168a4,4,0,0,0,8,0V137.7l67.5,67.5A3.9,3.9,0,0,1,200.4,209.5Z"/></svg>