<svg id="Flat" xmlns="http://www.w3.org/2000/svg" viewBox="0 0 256 256">
  <path d="M133.65674,128l71.51465-71.51465A11.99985,11.99985,0,0,0,196.68652,36H59.31348a11.99985,11.99985,0,0,0-8.48487,20.48535L122.34326,128,50.82861,199.51465A11.99985,11.99985,0,0,0,59.31348,220h137.373a11.99985,11.99985,0,0,0,8.48487-20.48535ZM55.61816,46.46924A3.92414,3.92414,0,0,1,59.31348,44h137.373a3.99976,3.99976,0,0,1,2.82813,6.82812L174.34277,76H81.65723L56.48535,50.82812A3.92275,3.92275,0,0,1,55.61816,46.46924ZM89.65674,84h76.68652L128,122.34326Zm110.7251,125.53076A3.92414,3.92414,0,0,1,196.68652,212H59.31348a3.99976,3.99976,0,0,1-2.82813-6.82812L124,137.65674V168a4,4,0,0,0,8,0V137.65674l67.51465,67.51514A3.92275,3.92275,0,0,1,200.38184,209.53076Z"/>
</svg>
