<svg xmlns="http://www.w3.org/2000/svg" viewBox="0 0 256 256"><path d="M208,220H160a12,12,0,0,1-12-12V160a4,4,0,0,0-4-4H112a4,4,0,0,0-4,4v48a12,12,0,0,1-12,12H48a11.9,11.9,0,0,1-8.5-3.5A12.3,12.3,0,0,1,36,208V115.5a11.8,11.8,0,0,1,3.9-8.8l80-72.8a12,12,0,0,1,16.2,0l80,72.8a11.8,11.8,0,0,1,3.9,8.8V208a12,12,0,0,1-12,12Zm-96-72h32a12,12,0,0,1,12,12v48a4,4,0,0,0,4,4h48a4.1,4.1,0,0,0,4-4V115.5a3.9,3.9,0,0,0-1.3-2.9l-80-72.8a4.1,4.1,0,0,0-5.4,0l-80,72.8a3.9,3.9,0,0,0-1.3,2.9V208a4.1,4.1,0,0,0,4,4H96a4,4,0,0,0,4-4V160A12,12,0,0,1,112,148Z"/></svg>