<svg id="Flat" xmlns="http://www.w3.org/2000/svg" viewBox="0 0 256 256">
  <path d="M239.99414,212h-20V115.53882a12.02805,12.02805,0,0,0-3.92773-8.87915L136.06055,33.92456a11.9535,11.9535,0,0,0-16.14551.00073L39.92187,106.65967a12.02314,12.02314,0,0,0-3.92773,8.8789V212h-20a4,4,0,1,0,0,8h224a4,4,0,1,0,0-8Zm-196-96.46143a4.00859,4.00859,0,0,1,1.30957-2.95971l79.99316-72.73438a3.98534,3.98534,0,0,1,5.38282-.00049l80.00488,72.73438a4.01139,4.01139,0,0,1,1.30957,2.96045V212H155.98828V151.9917a4,4,0,0,0-4-4h-48a4,4,0,0,0-4,4V212H43.99414ZM147.98828,212h-40V155.9917h40Z"/>
</svg>
