<svg id="Flat" xmlns="http://www.w3.org/2000/svg" viewBox="0 0 256 256">
  <path d="M208,220H48a12.01343,12.01343,0,0,1-12-12V115.53857a12.02314,12.02314,0,0,1,3.92773-8.8789L119.9209,33.92529a11.95325,11.95325,0,0,1,16.14551-.00073l80.00586,72.73511.001.00073A12.02793,12.02793,0,0,1,220,115.53882V208A12.01343,12.01343,0,0,1,208,220ZM127.99414,38.79834a3.99125,3.99125,0,0,0-2.69141,1.04614L45.30957,112.57886A4.00859,4.00859,0,0,0,44,115.53857V208a4.00427,4.00427,0,0,0,4,4H208a4.00427,4.00427,0,0,0,4-4V115.53882a4.00925,4.00925,0,0,0-1.30859-2.95972L130.68555,39.844A3.99193,3.99193,0,0,0,127.99414,38.79834Z"/>
</svg>
