<svg xmlns="http://www.w3.org/2000/svg" viewBox="0 0 256 256"><path d="M196,112a4,4,0,0,1-4,4H152a4,4,0,0,1,0-8h40A4,4,0,0,1,196,112Zm-4,28H152a4,4,0,0,0,0,8h40a4,4,0,0,0,0-8Zm-65,27a4,4,0,0,1-7.8,2A28,28,0,0,0,65,169a4.1,4.1,0,0,1-3.9,3h-1a4.2,4.2,0,0,1-2.9-4.9,36.4,36.4,0,0,1,19.6-23.6,28,28,0,1,1,30.6,0A36.4,36.4,0,0,1,127,167ZM92.1,140a20,20,0,1,0-20-20A20.1,20.1,0,0,0,92.1,140ZM228,56V200a12,12,0,0,1-12,12H40a12,12,0,0,1-12-12V56A12,12,0,0,1,40,44H216A12,12,0,0,1,228,56Zm-8,0a4,4,0,0,0-4-4H40a4,4,0,0,0-4,4V200a4,4,0,0,0,4,4H216a4,4,0,0,0,4-4Z"/></svg>