<svg id="Flat" xmlns="http://www.w3.org/2000/svg" viewBox="0 0 256 256">
  <path d="M196,112a4.0002,4.0002,0,0,1-4,4H152a4,4,0,0,1,0-8h40A4.0002,4.0002,0,0,1,196,112Zm-4,28H152a4,4,0,0,0,0,8h40a4,4,0,0,0,0-8Zm-65.03467,27a3.99992,3.99992,0,0,1-7.74707,1.99512,28.01047,28.01047,0,0,0-54.23584.00146,3.9998,3.9998,0,1,1-7.74707-1.99414,35.93915,35.93915,0,0,1,19.54688-23.58179,27.99991,27.99991,0,1,1,30.63672.00013A35.94048,35.94048,0,0,1,126.96533,167ZM92.10059,140a20,20,0,1,0-20-20A20.02292,20.02292,0,0,0,92.10059,140ZM228,56V200a12.01375,12.01375,0,0,1-12,12H40a12.01375,12.01375,0,0,1-12-12V56A12.01375,12.01375,0,0,1,40,44H216A12.01375,12.01375,0,0,1,228,56Zm-8,0a4.00458,4.00458,0,0,0-4-4H40a4.00458,4.00458,0,0,0-4,4V200a4.00458,4.00458,0,0,0,4,4H216a4.00458,4.00458,0,0,0,4-4Z"/>
</svg>
