<svg xmlns="http://www.w3.org/2000/svg" viewBox="0 0 256 256"><path d="M208,36H48A12,12,0,0,0,36,48V208a12,12,0,0,0,12,12H208a12,12,0,0,0,12-12V48A12,12,0,0,0,208,36Zm4,172a4,4,0,0,1-4,4H48a4,4,0,0,1-4-4V177.7l33.2-33.2a3.9,3.9,0,0,1,5.6,0l20.7,20.7a12.2,12.2,0,0,0,17,0l44.7-44.7a3.9,3.9,0,0,1,5.6,0L212,161.7Zm0-57.7-35.5-35.5a12.1,12.1,0,0,0-17,0l-44.7,44.7a3.9,3.9,0,0,1-5.6,0L88.5,138.8a12,12,0,0,0-17,0L44,166.3V48a4,4,0,0,1,4-4H208a4,4,0,0,1,4,4ZM108,92h0a8,8,0,0,1-8,8,7.9,7.9,0,0,1-8-8,8,8,0,0,1,16,0Z"/></svg>