<svg id="Flat" xmlns="http://www.w3.org/2000/svg" viewBox="0 0 256 256">
  <path d="M215.99951,44.00012h-176a12.01343,12.01343,0,0,0-12,12V199.99963a12.01312,12.01312,0,0,0,12,12h176a12.01312,12.01312,0,0,0,12-12V56.00012A12.01343,12.01343,0,0,0,215.99951,44.00012Zm-176,8h176a4.00426,4.00426,0,0,1,4,4v118.3432l-35.51465-35.51507a12.01273,12.01273,0,0,0-16.96972,0l-20.68653,20.68652a4.005,4.005,0,0,1-5.65722,0L96.48486,114.82825a12.01273,12.01273,0,0,0-16.96972,0L35.99951,158.34344V56.00012A4.00427,4.00427,0,0,1,39.99951,52.00012Zm176,151.99951h-176a4.004,4.004,0,0,1-4-4V169.65594l49.17188-49.17047a4.005,4.005,0,0,1,5.65722,0l44.68653,44.686a12.011,12.011,0,0,0,16.96972,0l20.68653-20.686a3.99972,3.99972,0,0,1,5.65722,0l41.1709,41.17041v14.34375A4.004,4.004,0,0,1,215.99951,203.99963Zm-65.65722-98.34277a8.00036,8.00036,0,1,1,13.6582-5.65674v.002a8.00087,8.00087,0,0,1-13.6582,5.65479Z"/>
</svg>
