<svg xmlns="http://www.w3.org/2000/svg" viewBox="0 0 256 256"><path d="M216,44H40A12,12,0,0,0,28,56V200a12,12,0,0,0,12,12H216a12,12,0,0,0,12-12V56A12,12,0,0,0,216,44ZM40,52H216a4,4,0,0,1,4,4V174.3l-35.5-35.5a12,12,0,0,0-17,0l-20.7,20.7a3.9,3.9,0,0,1-5.6,0L96.5,114.8a12,12,0,0,0-17,0L36,158.3V56A4,4,0,0,1,40,52ZM216,204H40a4,4,0,0,1-4-4V169.7l49.2-49.2a3.9,3.9,0,0,1,5.6,0l44.7,44.7a12.2,12.2,0,0,0,17,0l20.7-20.7a3.9,3.9,0,0,1,5.6,0L220,185.7V200A4,4,0,0,1,216,204Zm-65.7-98.3A8.3,8.3,0,0,1,148,100a8,8,0,0,1,16,0h0a8,8,0,0,1-8,8A8.3,8.3,0,0,1,150.3,105.7Z"/></svg>