<svg id="Flat" xmlns="http://www.w3.org/2000/svg" viewBox="0 0 256 256">
  <path d="M149.99951,100a6,6,0,1,1,6,6A6.00015,6.00015,0,0,1,149.99951,100Zm78.001-43.99988V199.99963a12.01312,12.01312,0,0,1-12,12h-176a12.01312,12.01312,0,0,1-12-12V56.00012a12.01343,12.01343,0,0,1,12-12h176A12.01343,12.01343,0,0,1,228.00049,56.00012Zm-192,0V158.34241l49.1709-49.1709a4.0003,4.0003,0,0,1,5.65625,0l53.17187,53.1709,29.17188-29.1709a4.0003,4.0003,0,0,1,5.65625,0l41.17285,41.17285V56.00012a4.00427,4.00427,0,0,0-4-4h-176A4.00426,4.00426,0,0,0,36.00049,56.00012Zm184,143.99951V185.65686l-44.001-44-29.17187,29.1709a3.99854,3.99854,0,0,1-5.65625,0l-53.17188-53.1709-51.999,51.99805v30.34472a4.004,4.004,0,0,0,4,4h176A4.004,4.004,0,0,0,220.00049,199.99963Z"/>
</svg>
