<svg id="Flat" xmlns="http://www.w3.org/2000/svg" viewBox="0 0 256.00098 256.00098">
  <path d="M171.17187,84.82812a75.99865,75.99865,0,1,0-86.34375,86.34376,75.99865,75.99865,0,1,0,86.34375-86.34376ZM28,96A67.992,67.992,0,0,1,162.9314,84.07422C161.95728,84.03711,160.98315,84,160,84a75.53859,75.53859,0,0,0-39.3175,10.98291,3.96678,3.96678,0,0,0-.58484.37158,76.57375,76.57375,0,0,0-24.7356,24.731,3.96782,3.96782,0,0,0-.40051.63428A75.53771,75.53771,0,0,0,84,160c0,.98291.03711,1.95752.07434,2.93164A68.09751,68.09751,0,0,1,28,96Zm136,0a67.557,67.557,0,0,1-7.45264,30.89111L129.10864,99.45264A67.5577,67.5577,0,0,1,160,92c1.30347,0,2.59619.04541,3.88184.11816C163.95459,93.40381,164,94.69629,164,96Zm-29.98682,56.35645-30.36975-30.36963a68.56436,68.56436,0,0,1,18.34326-18.34327l30.36976,30.36963A68.55372,68.55372,0,0,1,134.01318,152.35645ZM92,160a67.55692,67.55692,0,0,1,7.45251-30.89111l27.4386,27.43847A67.55664,67.55664,0,0,1,96,164c-1.30347,0-2.59619-.04541-3.88184-.11816C92.04541,162.59619,92,161.30371,92,160Zm68,68a68.09718,68.09718,0,0,1-66.9314-56.07422C94.04272,171.96289,95.01685,172,96,172a75.54173,75.54173,0,0,0,39.31323-10.98047,3.93777,3.93777,0,0,0,.59058-.375,76.58029,76.58029,0,0,0,24.7334-24.729,3.93077,3.93077,0,0,0,.40283-.63819A75.53635,75.53635,0,0,0,172,96c0-.98291-.03711-1.95752-.07434-2.93164A67.99214,67.99214,0,0,1,160,228Z"/>
</svg>
