<svg xmlns="http://www.w3.org/2000/svg" viewBox="0 0 256 256"><path d="M171.2,84.8a76,76,0,1,0-86.4,86.4,76,76,0,1,0,86.4-86.4ZM28,96A68,68,0,0,1,162.9,84.1H160a75.2,75.2,0,0,0-39.3,11l-.6.4a76.7,76.7,0,0,0-24.7,24.7,2.1,2.1,0,0,0-.4.6A75.2,75.2,0,0,0,84,160a27.1,27.1,0,0,0,.1,2.9A68,68,0,0,1,28,96Zm136,0a67.2,67.2,0,0,1-7.5,30.9L129.1,99.5A67.2,67.2,0,0,1,160,92h3.9C164,93.4,164,94.7,164,96Zm-30,56.4L103.6,122A70,70,0,0,1,122,103.6L152.4,134A70,70,0,0,1,134,152.4ZM92,160a67.2,67.2,0,0,1,7.5-30.9l27.4,27.4A67.2,67.2,0,0,1,96,164H92.1C92,162.6,92,161.3,92,160Zm68,68a68,68,0,0,1-66.9-56.1H96a75.2,75.2,0,0,0,39.3-11l.6-.4a76.7,76.7,0,0,0,24.7-24.7l.4-.6A75.2,75.2,0,0,0,172,96a27.1,27.1,0,0,0-.1-2.9A68,68,0,0,1,160,228Z"/></svg>