<svg xmlns="http://www.w3.org/2000/svg" viewBox="0 0 256 256"><path d="M240,92H223.5l-6.6-45.7A11.9,11.9,0,0,0,205.1,36H50.9A11.9,11.9,0,0,0,39.1,46.3L32.5,92H16a4,4,0,0,0,0,8H32V208a12,12,0,0,0,12,12H68a12,12,0,0,0,12-12V180h96v28a12,12,0,0,0,12,12h24a12,12,0,0,0,12-12V100h16a4,4,0,0,0,0-8ZM47,47.4A4.1,4.1,0,0,1,50.9,44H205.1a4.1,4.1,0,0,1,3.9,3.4L215.4,92H40.6ZM72,208a4,4,0,0,1-4,4H44a4,4,0,0,1-4-4V180H72Zm140,4H188a4,4,0,0,1-4-4V180h32v28A4,4,0,0,1,212,212Zm4-40H148V128a4,4,0,0,0-8,0v44H116V128a4,4,0,0,0-8,0v44H40V100H216ZM64,132a8,8,0,1,1,8,8A8,8,0,0,1,64,132Zm112,0a8,8,0,1,1,8,8A8,8,0,0,1,176,132Z"/></svg>