<svg id="Flat" xmlns="http://www.w3.org/2000/svg" viewBox="0 0 256 256">
  <path d="M240,92H223.46936l-6.528-45.69824A12.06,12.06,0,0,0,205.06152,36H50.93848A12.06,12.06,0,0,0,39.05859,46.30273L32.53076,92H16a4,4,0,0,0,0,8H32V208a12.01312,12.01312,0,0,0,12,12H68a12.01312,12.01312,0,0,0,12-12V180h96v28a12.01312,12.01312,0,0,0,12,12h24a12.01312,12.01312,0,0,0,12-12V100h16a4,4,0,0,0,0-8ZM46.97852,47.43457A4.01977,4.01977,0,0,1,50.93848,44h154.123a4.01978,4.01978,0,0,1,3.96,3.43359L215.38794,92H40.61206ZM72,208a4.004,4.004,0,0,1-4,4H44a4.004,4.004,0,0,1-4-4V180H72Zm140,4H188a4.004,4.004,0,0,1-4-4V180h32v28A4.004,4.004,0,0,1,212,212Zm4-40H148V128a4,4,0,0,0-8,0v44H116V128a4,4,0,0,0-8,0v44H40V100H216ZM64,132a8,8,0,1,1,8,8A8.00917,8.00917,0,0,1,64,132Zm112,0a8,8,0,1,1,8,8A8.00917,8.00917,0,0,1,176,132Z"/>
</svg>
