<svg id="Flat" xmlns="http://www.w3.org/2000/svg" viewBox="0 0 256 256">
  <path d="M160,20A76.04959,76.04959,0,0,0,88.50586,121.83789l-59.334,59.334A4.00048,4.00048,0,0,0,28,184v40a4.0002,4.0002,0,0,0,4,4H72a4.0002,4.0002,0,0,0,4-4V204H96a4.0002,4.0002,0,0,0,4-4V180h20a4.00049,4.00049,0,0,0,2.82812-1.17188l11.334-11.334A76.00868,76.00868,0,1,0,160,20Zm0,144a67.65028,67.65028,0,0,1-25.21-4.8252,4.0041,4.0041,0,0,0-4.4502.82911L118.34277,172H96a4.0002,4.0002,0,0,0-4,4v20H72a4.0002,4.0002,0,0,0-4,4v20H36V185.65723l59.99609-59.99707a3.99994,3.99994,0,0,0,.82911-4.44922A68.01249,68.01249,0,1,1,160,164Zm27.99707-88a8,8,0,1,1-8-8A8.00917,8.00917,0,0,1,187.99707,76Z"/>
</svg>
