<svg id="Flat" xmlns="http://www.w3.org/2000/svg" viewBox="0 0 256 256">
  <path d="M186,76a6,6,0,1,1-6-6A6,6,0,0,1,186,76Zm50.00244,20a76.04959,76.04959,0,0,1-101.83789,71.49414l-11.334,11.334A4.00051,4.00051,0,0,1,120.00244,180h-20v20a4.0002,4.0002,0,0,1-4,4h-20v20a4.0002,4.0002,0,0,1-4,4h-40a4.0002,4.0002,0,0,1-4-4V184a4.00049,4.00049,0,0,1,1.17188-2.82812l59.334-59.334A76.00868,76.00868,0,1,1,236.00244,96Zm-8,0a68,68,0,1,0-131.1748,25.21094,3.99994,3.99994,0,0,1-.8291,4.44922l-59.9961,59.99707V220h32V200a4.0002,4.0002,0,0,1,4-4h20V176a4.0002,4.0002,0,0,1,4-4h22.34277l11.99708-11.99609a4.00408,4.00408,0,0,1,4.45019-.82911A68.04325,68.04325,0,0,0,228.00244,96Z"/>
</svg>
