<svg id="Flat" xmlns="http://www.w3.org/2000/svg" viewBox="0 0 256 256">
  <path d="M180,104v32a4.0002,4.0002,0,0,1-4,4H89.65723l17.17089,17.17188a3.99957,3.99957,0,1,1-5.65624,5.65624L77.17432,138.83057a4.00885,4.00885,0,0,1-.50147-.6128c-.06445-.09716-.10889-.20263-.16455-.30371a3.892,3.892,0,0,1-.20215-.38427,3.85086,3.85086,0,0,1-.12646-.40723c-.03321-.11328-.07715-.22168-.10059-.33936a4.00772,4.00772,0,0,1,0-1.5664c.02344-.11768.0669-.22608.10059-.33936a2.35233,2.35233,0,0,1,.32861-.7915c.05566-.10156.1001-.20655.16455-.30371a4.00885,4.00885,0,0,1,.50147-.6128l23.99756-23.99755a3.99957,3.99957,0,0,1,5.65624,5.65624L89.65723,132H172V104a4,4,0,0,1,8,0Zm48-48V200a12.01312,12.01312,0,0,1-12,12H40a12.01312,12.01312,0,0,1-12-12V56A12.01312,12.01312,0,0,1,40,44H216A12.01312,12.01312,0,0,1,228,56Zm-8,0a4.004,4.004,0,0,0-4-4H40a4.004,4.004,0,0,0-4,4V200a4.004,4.004,0,0,0,4,4H216a4.004,4.004,0,0,0,4-4Z"/>
</svg>
