<svg xmlns="http://www.w3.org/2000/svg" viewBox="0 0 256 256"><path d="M223.5,52H32.5A12.5,12.5,0,0,0,20,64.5v127A12.5,12.5,0,0,0,32.5,204h191A12.5,12.5,0,0,0,236,191.5V64.5A12.5,12.5,0,0,0,223.5,52ZM228,191.5a4.5,4.5,0,0,1-4.5,4.5H32.5a4.5,4.5,0,0,1-4.5-4.5V64.5A4.5,4.5,0,0,1,32.5,60h191a4.5,4.5,0,0,1,4.5,4.5ZM204,128a4,4,0,0,1-4,4H56a4,4,0,0,1,0-8H200A4,4,0,0,1,204,128Zm0-32a4,4,0,0,1-4,4H56a4,4,0,0,1,0-8H200A4,4,0,0,1,204,96ZM68,160a4,4,0,0,1-4,4H56a4,4,0,0,1,0-8h8A4,4,0,0,1,68,160Zm96,0a4,4,0,0,1-4,4H96a4,4,0,0,1,0-8h64A4,4,0,0,1,164,160Zm40,0a4,4,0,0,1-4,4h-8a4,4,0,0,1,0-8h8A4,4,0,0,1,204,160Z"/></svg>