<svg xmlns="http://www.w3.org/2000/svg" viewBox="0 0 256 256"><path d="M128,28A100,100,0,1,0,228,128,100.2,100.2,0,0,0,128,28Zm0,192a92,92,0,1,1,92-92A92.1,92.1,0,0,1,128,220Zm31.8-115.4a32,32,0,0,0-28.1-28.4A32,32,0,0,0,96,108a32,32,0,0,0,13.6,26.2L97.1,163.3a12,12,0,0,0,11,16.7h39.8a12,12,0,0,0,11-16.7l-12.5-29.1A32.2,32.2,0,0,0,159.8,104.6Zm-22.1,29.6,13.8,32.2a3.7,3.7,0,0,1-.3,3.8,4,4,0,0,1-3.3,1.8H108.1a4,4,0,0,1-3.3-1.8,3.7,3.7,0,0,1-.3-3.8l13.8-32.2a4.1,4.1,0,0,0-1.8-5.1,24,24,0,0,1-4.5-39A23.7,23.7,0,0,1,128,84l2.8.2a24,24,0,0,1,8.7,44.9A4.1,4.1,0,0,0,137.7,134.2Z"/></svg>