<svg id="Flat" xmlns="http://www.w3.org/2000/svg" viewBox="0 0 256 256">
  <path d="M228.9707,35.0293a24.039,24.039,0,0,0-33.97558.03418L21.1377,213.20605a4.00009,4.00009,0,0,0,1.96289,6.69141A151.03556,151.03556,0,0,0,57.13281,223.794c32.63574-.001,65.33594-10.63477,96.11035-31.48243,31.19629-21.13281,49.20508-44.91015,49.957-45.91113a3.99943,3.99943,0,0,0-.37207-5.22852l-21.47754-21.47851,47.667-50.76856A24.02925,24.02925,0,0,0,228.9707,35.0293ZM194.6416,144.29883a226.94583,226.94583,0,0,1-45.88476,41.38965c-37.92676,25.6914-77.17676,35.05078-116.78614,27.87109L146.52539,96.18164l26.24219,26.24316c.085.09571.1748.18946.26953.27832.03223.03028.06543.05958.09766.08887Zm28.67285-80.98438c-.03027.0293-.05957.05957-.08789.08985l-47.53613,50.6289L152.11328,90.45605l48.57227-49.7705a16.001,16.001,0,1,1,22.6289,22.6289Z"/>
</svg>
