<svg id="Flat" xmlns="http://www.w3.org/2000/svg" viewBox="0 0 256 256">
  <path d="M230.89746,139.273,189.75488,43.27246A11.98782,11.98782,0,0,0,178.72461,36H77.27539a11.98749,11.98749,0,0,0-11.03027,7.273L25.103,139.27246A12.00008,12.00008,0,0,0,36.13232,156H124v56H96a4,4,0,0,0,0,8h64a4,4,0,0,0,0-8H132V156h56v28a4,4,0,0,0,8,0V156h23.86768a12.00037,12.00037,0,0,0,11.02978-16.727Zm-7.69043,6.9292A3.938,3.938,0,0,1,219.86768,148H36.13232a3.99957,3.99957,0,0,1-3.67627-5.57568L73.59863,46.4248A3.99493,3.99493,0,0,1,77.27539,44H178.72461a3.99525,3.99525,0,0,1,3.67676,2.42432L223.544,142.4248A3.93647,3.93647,0,0,1,223.207,146.20215Z"/>
</svg>
