<svg id="Flat" xmlns="http://www.w3.org/2000/svg" viewBox="0 0 256 256">
  <path d="M238.89746,139.273,197.75488,43.27246A11.98782,11.98782,0,0,0,186.72461,36H69.27539a11.98749,11.98749,0,0,0-11.03027,7.273L17.10254,139.27246A12.00058,12.00058,0,0,0,28.13232,156H124v56H96a4,4,0,0,0,0,8h64a4,4,0,0,0,0-8H132V156h64v36a4,4,0,0,0,8,0V156h23.86768a12.00037,12.00037,0,0,0,11.02978-16.727Zm-7.69043,6.9292A3.938,3.938,0,0,1,227.86768,148H28.13232a3.99957,3.99957,0,0,1-3.67627-5.57568L65.59814,46.4248A3.99612,3.99612,0,0,1,69.27539,44H186.72461a3.99525,3.99525,0,0,1,3.67676,2.42432l41.14306,96.00048A3.93782,3.93782,0,0,1,231.207,146.20215Z"/>
</svg>
