<svg id="Flat" xmlns="http://www.w3.org/2000/svg" viewBox="0 0 256 256">
  <path d="M232,172H220V72a20.0226,20.0226,0,0,0-20-20H56A20.0226,20.0226,0,0,0,36,72V172H24a4.0002,4.0002,0,0,0-4,4v16a20.0226,20.0226,0,0,0,20,20H216a20.0226,20.0226,0,0,0,20-20V176A4.0002,4.0002,0,0,0,232,172ZM44,72A12.01343,12.01343,0,0,1,56,60H200a12.01343,12.01343,0,0,1,12,12V172H44ZM228,192a12.01343,12.01343,0,0,1-12,12H40a12.01343,12.01343,0,0,1-12-12V180H228ZM148,88a4.0002,4.0002,0,0,1-4,4H112a4,4,0,0,1,0-8h32A4.0002,4.0002,0,0,1,148,88Z"/>
</svg>
