<svg id="Flat" xmlns="http://www.w3.org/2000/svg" viewBox="0 0 256 256">
  <path d="M213.00391,45.49561a3.9994,3.9994,0,0,0-2.49952-2.49952A131.78671,131.78671,0,0,0,168,36C95.21484,36,36,95.21484,36,168a131.83016,131.83016,0,0,0,6.2356,40.10754L21.17139,229.17188a3.99991,3.99991,0,1,0,5.65722,5.65624l21.064-21.064A131.82908,131.82908,0,0,0,88,220c72.78516,0,132-59.21484,132-132A131.78671,131.78671,0,0,0,213.00391,45.49561ZM88,212a124.02844,124.02844,0,0,1-33.70166-4.64142l108.53027-108.53a4.00026,4.00026,0,0,0-5.65722-5.65722L48.64087,201.70233a124.08947,124.08947,0,0,1,157.4104-151.7536A124.091,124.091,0,0,1,88,212Z"/>
</svg>
