<svg xmlns="http://www.w3.org/2000/svg" viewBox="0 0 256 256"><path d="M199,198.3a99.7,99.7,0,0,0,0-140.6l-.3-.4-.4-.3A99.7,99.7,0,0,0,57.7,57l-.4.3-.3.4a99.7,99.7,0,0,0,0,140.6l.3.4.4.3a99.7,99.7,0,0,0,140.6,0l.4-.3Zm-3.2-8.2-34-34a43.8,43.8,0,0,0,0-56.2l34-34a91.8,91.8,0,0,1,0,124.2ZM92,128a36,36,0,1,1,36,36A36,36,0,0,1,92,128Zm98.1-67.8-34,34a43.8,43.8,0,0,0-56.2,0l-34-34a91.8,91.8,0,0,1,124.2,0ZM60.2,65.9l34,34a43.8,43.8,0,0,0,0,56.2l-34,34a91.8,91.8,0,0,1,0-124.2Zm5.7,129.9,34-34a43.8,43.8,0,0,0,56.2,0l34,34a91.8,91.8,0,0,1-124.2,0Z"/></svg>