<svg xmlns="http://www.w3.org/2000/svg" viewBox="0 0 256 256"><path d="M51,37.3a4,4,0,1,0-6,5.4L86.8,88.6,45.1,133.2a4.2,4.2,0,0,0-1,3.7,3.7,3.7,0,0,0,2.5,2.8l60.8,22.8L92.1,239.2a3.9,3.9,0,0,0,2.1,4.3,3.7,3.7,0,0,0,4.7-.8l64.8-69.4L205,218.7a4.1,4.1,0,0,0,5.7.3,4.2,4.2,0,0,0,.3-5.7ZM102.7,227l13.2-66.2a4.1,4.1,0,0,0-2.5-4.6L55,134.3,92.2,94.5l66.1,72.8Zm8.7-158.9a4.1,4.1,0,0,1-.2-5.7l45.9-49.2a4,4,0,0,1,6.8,3.6L148.6,93.4l60.8,22.8a4.1,4.1,0,0,1,2.5,2.9,4,4,0,0,1-1,3.6l-22.3,23.9a3.7,3.7,0,0,1-2.9,1.3,4,4,0,0,1-2.9-6.7L201,121.6,142.6,99.7a4,4,0,0,1-2.5-4.5L153.3,29,117,67.9A4,4,0,0,1,111.4,68.1Z"/></svg>