<svg id="Flat" xmlns="http://www.w3.org/2000/svg" viewBox="0 0 256 256">
  <path d="M95.99854,243.99219a4.00051,4.00051,0,0,1-3.9209-4.78467l15.333-76.66455L46.5957,139.7373a4.0001,4.0001,0,0,1-1.52-6.4746l112-120a4.00027,4.00027,0,0,1,6.84668,3.51416l-15.333,76.66455,60.81494,22.80566a4.00011,4.00011,0,0,1,1.52,6.47461l-112,120A3.99924,3.99924,0,0,1,95.99854,243.99219ZM55.00635,134.34766l58.398,21.89941a3.99949,3.99949,0,0,1,2.51806,4.52979l-13.23828,66.1914,98.30957-105.33154L142.5957,99.7373a3.99947,3.99947,0,0,1-2.51806-4.52978l13.23828-66.19141Z"/>
</svg>
