<svg id="Flat" xmlns="http://www.w3.org/2000/svg" viewBox="0 0 256 256">
  <path d="M172,232a4.0002,4.0002,0,0,1-4,4H88a4,4,0,0,1,0-8h80A4.0002,4.0002,0,0,1,172,232Zm40-128a83.5685,83.5685,0,0,1-32.11475,66.06445A20.20706,20.20706,0,0,0,172,185.97559V192a12.01343,12.01343,0,0,1-12,12H96a12.01343,12.01343,0,0,1-12-12v-6.03125a19.99733,19.99733,0,0,0-7.76318-15.80859,83.5945,83.5945,0,0,1-32.23536-65.68653C43.75,58.97754,80.52393,21.09375,125.97656,20.02344A84.00152,84.00152,0,0,1,212,104Zm-8,0a76.00037,76.00037,0,0,0-77.835-75.97852c-41.12158.96778-74.39111,35.24415-74.16358,76.40723a75.63906,75.63906,0,0,0,29.169,59.43457A27.94547,27.94547,0,0,1,92,185.96875V192a4.00427,4.00427,0,0,0,4,4h28V145.65674L93.17139,114.82813a3.99992,3.99992,0,0,1,5.65722-5.65625L128,138.34277l29.17139-29.17089a3.99992,3.99992,0,0,1,5.65722,5.65625L132,145.65674V196h28a4.00427,4.00427,0,0,0,4-4v-6.02441a28.1623,28.1623,0,0,1,10.93994-22.2002A75.61185,75.61185,0,0,0,204,104Z"/>
</svg>
