<svg id="Flat" xmlns="http://www.w3.org/2000/svg" viewBox="0 0 256 256">
  <path d="M172.00244,232a4.0002,4.0002,0,0,1-4,4h-80a4,4,0,1,1,0-8h80A4.0002,4.0002,0,0,1,172.00244,232Zm40-128a83.568,83.568,0,0,1-32.11426,66.06445,20.20461,20.20461,0,0,0-7.88574,15.91114V192a12.01312,12.01312,0,0,1-12,12h-64a12.01312,12.01312,0,0,1-12-12v-6.03125a19.994,19.994,0,0,0-7.76269-15.80859,83.59543,83.59543,0,0,1-32.23633-65.68653c-.251-45.49609,36.52344-83.37988,81.97656-84.45019A84.00227,84.00227,0,0,1,212.00244,104Zm-8,0a76.00116,76.00116,0,0,0-77.835-75.97852c-41.12109.96778-74.3916,35.24414-74.16406,76.40723a75.64143,75.64143,0,0,0,29.16992,59.43457,27.94355,27.94355,0,0,1,10.8291,22.10547V192a4.004,4.004,0,0,0,4,4h64a4.004,4.004,0,0,0,4-4v-6.02441a28.157,28.157,0,0,1,10.94043-22.2002A75.61285,75.61285,0,0,0,204.00244,104ZM136.78662,52.83984a3.99985,3.99985,0,0,0-1.32812,7.88868A43.84372,43.84372,0,0,1,171.3833,96.6084a4.00083,4.00083,0,0,0,3.93848,3.333,3.94685,3.94685,0,0,0,.67285-.05762A3.99892,3.99892,0,0,0,179.27,95.27246,51.84719,51.84719,0,0,0,136.78662,52.83984Z"/>
</svg>
