<svg xmlns="http://www.w3.org/2000/svg" viewBox="0 0 256 256"><path d="M172,232a4,4,0,0,1-4,4H88a4,4,0,0,1,0-8h80A4,4,0,0,1,172,232Zm40-128a83.8,83.8,0,0,1-32.1,66.1A20.1,20.1,0,0,0,172,186v6a12,12,0,0,1-12,12H96a12,12,0,0,1-12-12v-6a19.7,19.7,0,0,0-7.8-15.8A83.7,83.7,0,0,1,44,104.5C43.8,59,80.5,21.1,126,20a84,84,0,0,1,86,84Zm-8,0a76,76,0,0,0-77.8-76C85,29,51.8,63.3,52,104.4a75.8,75.8,0,0,0,29.2,59.5A27.8,27.8,0,0,1,92,186v6a4,4,0,0,0,4,4h64a4,4,0,0,0,4-4v-6a28.1,28.1,0,0,1,10.9-22.2A75.5,75.5,0,0,0,204,104ZM136.8,52.8a4,4,0,0,0-4.6,3.3,3.9,3.9,0,0,0,3.3,4.6,43.9,43.9,0,0,1,35.9,35.9,3.9,3.9,0,0,0,3.9,3.3h.7a4,4,0,0,0,3.3-4.6A52,52,0,0,0,136.8,52.8Z"/></svg>