<svg id="Flat" xmlns="http://www.w3.org/2000/svg" viewBox="0 0 256 256">
  <path d="M235.79883,36.20117a28.02993,28.02993,0,0,0-39.59766,0h-.00049a27.99756,27.99756,0,0,0,3.13916,42.30225L169.61279,133.71a28.07,28.07,0,0,0-26.37817,3.86816l-24.8125-24.8125A27.99832,27.99832,0,0,0,76.20117,76.20117h-.00049a27.99756,27.99756,0,0,0,3.13916,42.30225L49.61279,173.71a28.03054,28.03054,0,0,0-29.41162,6.49121h-.00049a28.00309,28.00309,0,1,0,36.45948-2.70459l29.72754-55.207a28.05276,28.05276,0,0,0,26.37768-3.86719l24.8125,24.812a27.99979,27.99979,0,1,0,39.08228-5.7378l29.72729-55.207a27.99432,27.99432,0,0,0,29.41138-46.08838ZM54.14258,214.14258a20.00046,20.00046,0,1,1-28.28467-28.28516h-.00049a20.00063,20.00063,0,0,1,28.28516,28.28516Zm27.71533-104a20.024,20.024,0,0,1,0-28.28516h-.00049A20.00062,20.00062,0,0,1,110.144,110.14111l-.002.00147-.00147.002A20.02325,20.02325,0,0,1,81.85791,110.14258Zm92.28467,64a20.00046,20.00046,0,0,1-28.28467-28.28516l.00147-.00195a20.00063,20.00063,0,0,1,28.2832,28.28711Zm56-104a20.00046,20.00046,0,0,1-28.28467-28.28516h-.00049a20.00063,20.00063,0,0,1,28.28516,28.28516Z"/>
</svg>
