<svg xmlns="http://www.w3.org/2000/svg" viewBox="0 0 256 256"><path d="M92,72V48a4,4,0,0,1,8,0V72a4,4,0,0,1-8,0Zm68,108a4,4,0,0,0-4,4v24a4,4,0,0,0,8,0V184A4,4,0,0,0,160,180ZM48,100H72a4,4,0,0,0,0-8H48a4,4,0,0,0,0,8Zm160,56H184a4,4,0,0,0,0,8h24a4,4,0,0,0,0-8Zm-83.2,26.1-11.3,11.4a36.1,36.1,0,0,1-51-51l11.4-11.3a4,4,0,0,0,0-5.6,4,4,0,0,0-5.7,0L56.9,136.9a44,44,0,1,0,62.2,62.2l11.3-11.3a4,4,0,0,0,0-5.7A4,4,0,0,0,124.8,182.1Zm68.7-68.6-11.4,11.3a4,4,0,0,0,0,5.6,4,4,0,0,0,2.9,1.2,3.9,3.9,0,0,0,2.8-1.2l11.3-11.3a44,44,0,0,0-62.2-62.2L125.6,68.2a4,4,0,0,0,0,5.7,4,4,0,0,0,5.6,0l11.3-11.4a36.1,36.1,0,0,1,51,51Z"/></svg>