<svg id="Flat" xmlns="http://www.w3.org/2000/svg" viewBox="0 0 256 256">
  <path d="M91.99951,72V48a4,4,0,1,1,8,0V72a4,4,0,0,1-8,0Zm68,108a4.0002,4.0002,0,0,0-4,4v24a4,4,0,0,0,8,0V184A4.0002,4.0002,0,0,0,159.99951,180Zm-112-80h24a4,4,0,0,0,0-8h-24a4,4,0,1,0,0,8Zm160,56h-24a4,4,0,0,0,0,8h24a4,4,0,0,0,0-8ZM124.77,182.14258l-11.31348,11.31347A36.00064,36.00064,0,0,1,62.54346,142.544l11.31445-11.31348a3.99957,3.99957,0,0,0-5.65625-5.65625L56.88721,136.8877a43.99979,43.99979,0,0,0,62.22558,62.2246l11.31348-11.31347a3.99957,3.99957,0,0,0-5.65625-5.65625Zm68.68652-68.68653-11.31445,11.31348a3.99957,3.99957,0,1,0,5.65625,5.65625l11.31445-11.31348a43.99978,43.99978,0,0,0-62.22558-62.2246L125.57373,68.20117A3.99957,3.99957,0,0,0,131.23,73.85742L142.54346,62.544a36.00064,36.00064,0,0,1,50.91308,50.9121Z"/>
</svg>
