<svg id="Flat" xmlns="http://www.w3.org/2000/svg" viewBox="0 0 256 256">
  <path d="M201.53857,54.46094a39.99956,39.99956,0,0,0-56.56836,0l-19.7998,19.79883a3.99957,3.99957,0,0,1-5.65625-5.65625L139.314,48.80469a47.999,47.999,0,1,1,67.88086,67.88086L187.396,136.48535a3.99957,3.99957,0,0,1-5.65625-5.65625l19.79882-19.7998a39.99956,39.99956,0,0,0,0-56.56836Zm-70.71,127.27929-19.7998,19.79883A39.99987,39.99987,0,1,1,54.46045,144.9707l19.79883-19.7998a3.99957,3.99957,0,0,0-5.65625-5.65625L48.8042,139.31445a47.999,47.999,0,1,0,67.88086,67.88086l19.7998-19.79883a3.99957,3.99957,0,0,0-5.65625-5.65625ZM94.05811,75.43164a4.0002,4.0002,0,0,0,4-4V48.80371a4,4,0,1,0-8,0V71.43164A4.0002,4.0002,0,0,0,94.05811,75.43164ZM48.80322,98.05859H71.43115a4,4,0,0,0,0-8H48.80322a4,4,0,1,0,0,8ZM207.1958,157.94141H184.56787a4,4,0,0,0,0,8H207.1958a4,4,0,0,0,0-8Zm-45.25488,22.627a4.0002,4.0002,0,0,0-4,4v22.62793a4,4,0,0,0,8,0V184.56836A4.0002,4.0002,0,0,0,161.94092,180.56836Z"/>
</svg>
