<svg id="Flat" xmlns="http://www.w3.org/2000/svg" viewBox="0 0 256 256">
  <path d="M147.793,176.082a3.99854,3.99854,0,0,1,0,5.65625l-28.28418,28.28418a51.99962,51.99962,0,1,1-73.53906-73.53808L74.25391,108.2002a3.99957,3.99957,0,0,1,5.65625,5.65625L51.626,142.14062a44.00048,44.00048,0,1,0,62.22656,62.22559L142.13672,176.082A3.99854,3.99854,0,0,1,147.793,176.082Zm62.23047-130.1123a52.05777,52.05777,0,0,0-73.53906,0L108.2002,74.25391a3.99957,3.99957,0,0,0,5.65625,5.65625L142.14062,51.626a44.00048,44.00048,0,0,1,62.22657,62.22558L176.083,142.13574a3.99957,3.99957,0,1,0,5.65625,5.65625l28.28418-28.28418A52.05658,52.05658,0,0,0,210.02344,45.96973Z"/>
</svg>
