<svg id="Flat" xmlns="http://www.w3.org/2000/svg" viewBox="0 0 256 256">
  <path d="M164.76514,91.22168a3.99854,3.99854,0,0,1,0,5.65625L96.88232,164.75977a3.99957,3.99957,0,0,1-5.65625-5.65625l67.88282-67.88184A3.99854,3.99854,0,0,1,164.76514,91.22168ZM142.13623,176.082l-28.28418,28.28418a44.00048,44.00048,0,1,1-62.22656-62.22559l28.28418-28.28417a3.99957,3.99957,0,0,0-5.65625-5.65625L45.96924,136.48438a51.99963,51.99963,0,0,0,73.53906,73.53808l28.28418-28.28418a3.99957,3.99957,0,0,0-5.65625-5.65625ZM210.023,45.96973a52.05777,52.05777,0,0,0-73.53906,0L108.19971,74.25391a3.99957,3.99957,0,0,0,5.65625,5.65625L142.14014,51.626a44.00048,44.00048,0,0,1,62.22656,62.22558l-28.28418,28.28418a3.99957,3.99957,0,1,0,5.65625,5.65625L210.023,119.50781A52.05658,52.05658,0,0,0,210.023,45.96973Z"/>
</svg>
