<svg id="Flat" xmlns="http://www.w3.org/2000/svg" viewBox="0 0 256 256">
  <path d="M96,80a8,8,0,1,1-8-8A7.99993,7.99993,0,0,1,96,80Zm-8,28.001a4,4,0,0,0-4,4v64a4,4,0,1,0,8,0v-64A4,4,0,0,0,88,108.001Zm60,0a31.92463,31.92463,0,0,0-24,10.86767V112.001a4,4,0,0,0-8,0v64a4,4,0,1,0,8,0v-36a24,24,0,0,1,48,0v36a4,4,0,1,0,8,0v-36A32.03619,32.03619,0,0,0,148,108.001ZM224,44V212a12.01375,12.01375,0,0,1-12,12H44a12.01375,12.01375,0,0,1-12-12V44A12.01359,12.01359,0,0,1,44,32H212A12.01359,12.01359,0,0,1,224,44Zm-8,0a4.00458,4.00458,0,0,0-4-4H44a4.00458,4.00458,0,0,0-4,4V212a4.00458,4.00458,0,0,0,4,4H212a4.00458,4.00458,0,0,0,4-4Z"/>
</svg>
