<svg id="Flat" xmlns="http://www.w3.org/2000/svg" viewBox="0 0 256 256">
  <path d="M208,36H48A12.01375,12.01375,0,0,0,36,48V208a12.01375,12.01375,0,0,0,12,12H208a12.01375,12.01375,0,0,0,12-12V48A12.01375,12.01375,0,0,0,208,36Zm4,172a4.00458,4.00458,0,0,1-4,4H48a4.00458,4.00458,0,0,1-4-4V48a4.00458,4.00458,0,0,1,4-4H208a4.00458,4.00458,0,0,1,4,4ZM92,112.001v64a4,4,0,1,1-8,0v-64a4,4,0,0,1,8,0Zm88,28v36a4,4,0,1,1-8,0v-36a24,24,0,0,0-48,0v36a4,4,0,1,1-8,0v-64a4,4,0,0,1,8,0v6.86767A31.97958,31.97958,0,0,1,180,140.001ZM96,80a8,8,0,1,1-8-8A8.00917,8.00917,0,0,1,96,80Z"/>
</svg>
