<svg id="Flat" xmlns="http://www.w3.org/2000/svg" viewBox="0 0 256 256">
  <path d="M207.1958,116.68555,178.91162,144.9707a48.05448,48.05448,0,0,1-67.88183,0,3.99957,3.99957,0,0,1,5.65625-5.65625,40.04679,40.04679,0,0,0,56.56933,0l28.28418-28.28515a40.00022,40.00022,0,0,0-56.56934-56.56836L125.17139,74.25977a3.99957,3.99957,0,0,1-5.65625-5.65625L139.314,48.80469a47.99936,47.99936,0,1,1,67.88184,67.88086Zm-76.36719,65.05468-19.79882,19.79883A40.00022,40.00022,0,1,1,54.46045,144.9707l28.28418-28.28515a40.04678,40.04678,0,0,1,56.56933,0,3.99957,3.99957,0,0,0,5.65625-5.65625,48.05449,48.05449,0,0,0-67.88183,0L48.8042,139.31445A47.99936,47.99936,0,1,0,116.686,207.19531l19.79882-19.79883a3.99957,3.99957,0,0,0-5.65625-5.65625Z"/>
</svg>
