<svg xmlns="http://www.w3.org/2000/svg" viewBox="0 0 256 256"><path d="M226,219.5a4.6,4.6,0,0,1-2,.5,4.1,4.1,0,0,1-3.5-2c-1.3-2.3-32.5-57.7-32.5-122A60,60,0,0,0,68,96c0,64.3-31.2,119.7-32.5,122a4,4,0,0,1-7-4c.3-.5,31.5-55.9,31.5-118a68,68,0,0,1,136,0c0,62.1,31.2,117.5,31.5,118A4.1,4.1,0,0,1,226,219.5ZM100,100a8,8,0,1,0,8,8A8,8,0,0,0,100,100Zm64,8a8,8,0,1,0-8,8A8,8,0,0,0,164,108ZM97.8,140.4a4,4,0,1,0-3.6,7.2l32,16a4.2,4.2,0,0,0,3.6,0l32-16a4,4,0,1,0-3.6-7.2L128,155.5ZM128,188a52.1,52.1,0,0,0-45,26,4,4,0,1,0,6.9,4,44,44,0,0,1,76.2,0,4.1,4.1,0,0,0,3.5,2,4.6,4.6,0,0,0,2-.5A4,4,0,0,0,173,214,52.1,52.1,0,0,0,128,188Z"/></svg>