<svg xmlns="http://www.w3.org/2000/svg" viewBox="0 0 256 256"><path d="M220,128a4,4,0,0,1-4,4H128a4,4,0,0,1,0-8h88A4,4,0,0,1,220,128ZM128,68h88a4,4,0,0,0,0-8H128a4,4,0,0,0,0,8Zm88,120H128a4,4,0,0,0,0,8h88a4,4,0,0,0,0-8ZM89.3,45.1l-32,29.5L42.7,61.1a4,4,0,1,0-5.4,5.8l17.3,16A4.3,4.3,0,0,0,57.3,84,3.9,3.9,0,0,0,60,82.9l34.7-32a4,4,0,1,0-5.4-5.8Zm0,64-32,29.5L42.7,125.1a4,4,0,0,0-5.4,5.8l17.3,16a4.3,4.3,0,0,0,2.7,1.1,3.9,3.9,0,0,0,2.7-1.1l34.7-32a4,4,0,0,0-5.4-5.8Zm0,64-32,29.5L42.7,189.1a4,4,0,0,0-5.4,5.8l17.3,16a4.3,4.3,0,0,0,2.7,1.1,3.9,3.9,0,0,0,2.7-1.1l34.7-32a4,4,0,1,0-5.4-5.8Z"/></svg>