<svg xmlns="http://www.w3.org/2000/svg" viewBox="0 0 256 256"><path d="M220,128a4,4,0,0,1-4,4H104a4,4,0,0,1,0-8H216A4,4,0,0,1,220,128ZM104,68H216a4,4,0,0,0,0-8H104a4,4,0,0,0,0,8ZM216,188H104a4,4,0,0,0,0,8H216a4,4,0,0,0,0-8ZM41.8,63.6,52,58.5V108a4,4,0,0,0,8,0V52a3.9,3.9,0,0,0-1.9-3.4,4.1,4.1,0,0,0-3.9-.2l-16,8a4,4,0,1,0,3.6,7.2ZM68.9,168.1A18,18,0,0,0,54,140a18,18,0,0,0-16.6,11,4,4,0,0,0,7.4,3.1A10,10,0,0,1,64,158a9.7,9.7,0,0,1-1.7,5.5L36.8,197.6a4,4,0,0,0-.4,4.2A4.2,4.2,0,0,0,40,204H68a4,4,0,0,0,0-8H48l20.8-27.8Z"/></svg>