<svg id="Flat" xmlns="http://www.w3.org/2000/svg" viewBox="0 0 256 256">
  <path d="M219.999,128a4.0002,4.0002,0,0,1-4,4H104a4,4,0,0,1,0-8H215.999A4.0002,4.0002,0,0,1,219.999,128ZM104,68H215.999a4,4,0,0,0,0-8H104a4,4,0,0,0,0,8ZM215.999,188h-112a4,4,0,1,0,0,8h112a4,4,0,0,0,0-8ZM41.78906,63.57812,52,58.47168v49.52246a4,4,0,1,0,8,0V52a4.00067,4.00067,0,0,0-5.78906-3.57812l-16,8a4.00046,4.00046,0,0,0,3.57812,7.15624ZM68.92334,168.06641A18.002,18.002,0,1,0,37.416,150.99316a3.99983,3.99983,0,1,0,7.36816,3.11524,10.00233,10.00233,0,1,1,17.56006,9.40527L36.79883,197.60156A4.00033,4.00033,0,0,0,40,204H68a4,4,0,0,0,0-8H47.99609l20.814-27.77441C68.84912,168.17383,68.88672,168.12012,68.92334,168.06641Z"/>
</svg>
