<svg id="Flat" xmlns="http://www.w3.org/2000/svg" viewBox="0 0 256 256">
  <path d="M103.999,87.99316a4,4,0,0,1,0-8l112-.001a4,4,0,1,1,0,8Zm112,87.999a4,4,0,1,0,0-8l-112,.001a4,4,0,1,0,0,8ZM60,111.99414V56a4.00063,4.00063,0,0,0-5.78882-3.57812l-16,8a4.00035,4.00035,0,0,0,3.57764,7.15624L52,62.47168v49.52246a4,4,0,1,0,8,0ZM72,200a4.00012,4.00012,0,0,0-4-4H47.99609l20.81385-27.77441c.03918-.05176.077-.10547.11352-.15918a18.002,18.002,0,1,0-31.50732-17.07325,3.99983,3.99983,0,1,0,7.36816,3.11524,10.00231,10.00231,0,1,1,17.56006,9.40527L36.79907,197.60156A4,4,0,0,0,40,204H68A4.00012,4.00012,0,0,0,72,200Z"/>
</svg>
