<svg id="Flat" xmlns="http://www.w3.org/2000/svg" viewBox="0 0 256 256">
  <path d="M207.99414,84h-112V52a32,32,0,1,1,64,0,4,4,0,0,0,8,0,40,40,0,1,0-80,0V84h-40a12.01312,12.01312,0,0,0-12,12V208a12.01312,12.01312,0,0,0,12,12h160a12.01312,12.01312,0,0,0,12-12V96A12.01312,12.01312,0,0,0,207.99414,84Zm-164,40h168v24h-168Zm0,32h168v24h-168Zm4-64h160a4.004,4.004,0,0,1,4,4v20h-168V96A4.004,4.004,0,0,1,47.99414,92Zm160,120h-160a4.004,4.004,0,0,1-4-4V188h168v20A4.004,4.004,0,0,1,207.99414,212Z"/>
</svg>
