<svg id="Flat" xmlns="http://www.w3.org/2000/svg" viewBox="0 0 256 256">
  <path d="M207.99414,84h-40V52a40,40,0,1,0-80,0V84h-40a12.01375,12.01375,0,0,0-12,12V208a12.01375,12.01375,0,0,0,12,12h160a12.01375,12.01375,0,0,0,12-12V96A12.01375,12.01375,0,0,0,207.99414,84Zm-164,40h168v24h-168Zm0,32h168v24h-168Zm52-104a32,32,0,1,1,64,0V84h-64Zm-48,40h160a4.00458,4.00458,0,0,1,4,4v20h-168V96A4.00458,4.00458,0,0,1,47.99414,92Zm160,120h-160a4.00458,4.00458,0,0,1-4-4V188h168v20A4.00458,4.00458,0,0,1,207.99414,212Z"/>
</svg>
