<svg xmlns="http://www.w3.org/2000/svg" viewBox="0 0 256 256"><path d="M244,152a4,4,0,0,1-4,4H220v20a4,4,0,0,1-8,0V156H192a4,4,0,0,1,0-8h20V128a4,4,0,0,1,8,0v20h20A4,4,0,0,1,244,152ZM64,64H80V80a4,4,0,0,0,8,0V64h16a4,4,0,0,0,0-8H88V40a4,4,0,0,0-8,0V56H64a4,4,0,0,0,0,8ZM184,196H172V184a4,4,0,0,0-8,0v12H152a4,4,0,0,0,0,8h12v12a4,4,0,0,0,8,0V204h12a4,4,0,0,0,0-8Zm-5.2-81.2L72.5,221.2a12.1,12.1,0,0,1-17,0L34.8,200.5a12.1,12.1,0,0,1,0-17L183.5,34.8a12.2,12.2,0,0,1,17,0l20.7,20.7a12.1,12.1,0,0,1,0,17l-42.4,42.3ZM149.7,80,176,106.3l39.5-39.5h0a3.9,3.9,0,0,0,0-5.6L194.8,40.5a3.9,3.9,0,0,0-5.6,0Zm20.6,32L144,85.7,40.5,189.2a3.9,3.9,0,0,0,0,5.6l20.7,20.7a3.9,3.9,0,0,0,5.6,0Z"/></svg>