<svg id="Flat" xmlns="http://www.w3.org/2000/svg" viewBox="0 0 256.00098 256.00098">
  <path d="M226.82812,221.1748l-38.99926-38.99975a92.01439,92.01439,0,1,0-91.63745,26.679,92.49006,92.49006,0,0,0,23.957,3.17383,91.4436,91.4436,0,0,0,45.84277-12.36328,92.72235,92.72235,0,0,0,16.16528-11.84839L221.17187,226.832a3.99992,3.99992,0,1,0,5.65625-5.65723Zm-64.83691-28.438A83.98552,83.98552,0,1,1,119.8623,35.98145a84.46807,84.46807,0,0,1,21.874,2.89794,83.98592,83.98592,0,0,1,20.25488,153.85743Z"/>
</svg>
