<svg id="Flat" xmlns="http://www.w3.org/2000/svg" viewBox="0 0 256 256">
  <path d="M200,44H160a12.01312,12.01312,0,0,0-12,12v88a20,20,0,0,1-40,0V56A12.01312,12.01312,0,0,0,96,44H56A12.01312,12.01312,0,0,0,44,56v88a83.99859,83.99859,0,0,0,83.99512,84c.21386,0,.42773,0,.64062-.00195C174.60352,227.65723,212,189.52539,212,142.99609V56A12.01312,12.01312,0,0,0,200,44Zm-40,8h40a4.004,4.004,0,0,1,4,4V92H156V56A4.004,4.004,0,0,1,160,52ZM56,52H96a4.004,4.004,0,0,1,4,4V92H52V56A4.004,4.004,0,0,1,56,52Zm72.57715,167.99805A76.00039,76.00039,0,0,1,52,144V100h48v44a28,28,0,0,0,56,0V100h48v42.99609C204,185.14648,170.165,219.68945,128.57715,219.99805Z"/>
</svg>
