<svg id="Flat" xmlns="http://www.w3.org/2000/svg" viewBox="0 0 256.00098 256.00098">
  <path d="M155.999,119.999a4.00019,4.00019,0,0,1-4,4h-28v28a4,4,0,0,1-8,0v-28h-28a4,4,0,0,1,0-8h28v-28a4,4,0,0,1,8,0v28h28A4.0002,4.0002,0,0,1,155.999,119.999Zm70.8291,106.8291a3.99971,3.99971,0,0,1-5.65625,0l-39.01538-39.0158a92.72558,92.72558,0,0,1-16.16528,11.84832,91.44361,91.44361,0,0,1-45.84277,12.36329,92.49049,92.49049,0,0,1-23.957-3.17383,91.90731,91.90731,0,1,1,91.63745-26.679l38.99926,38.99976A3.99971,3.99971,0,0,1,226.82812,226.82812Zm-25.70605-85.09228A83.98442,83.98442,0,0,0,141.73633,38.87549a84.46766,84.46766,0,0,0-21.874-2.898,84.00755,84.00755,0,1,0,81.25977,105.7583Z"/>
</svg>
