<svg id="Flat" xmlns="http://www.w3.org/2000/svg" viewBox="0 0 256.00098 256.00098">
  <path d="M155.999,120a4.0002,4.0002,0,0,1-4,4h-64a4,4,0,0,1,0-8h64A4.0002,4.0002,0,0,1,155.999,120Zm70.8291,106.8291a3.99971,3.99971,0,0,1-5.65625,0l-39.01538-39.01581a92.72512,92.72512,0,0,1-16.16528,11.84833,91.4436,91.4436,0,0,1-45.84277,12.36328,92.49006,92.49006,0,0,1-23.957-3.17383,91.9073,91.9073,0,1,1,91.63745-26.67895l38.99926,38.99975A3.99972,3.99972,0,0,1,226.82812,226.8291Zm-25.70605-85.09228A83.98442,83.98442,0,0,0,141.73633,38.87646a84.46807,84.46807,0,0,0-21.874-2.89794,84.00755,84.00755,0,1,0,81.25977,105.7583Z"/>
</svg>
