<svg id="Flat" xmlns="http://www.w3.org/2000/svg" viewBox="0 0 256 256">
  <path d="M226.46167,52.84717a4.00066,4.00066,0,0,0-3.43164-.72779L160.46533,67.7605,97.78882,36.42236a3.99955,3.99955,0,0,0-.37281-.15747c-.02392-.009-.04614-.021-.07007-.02954a3.97185,3.97185,0,0,0-.65649-.16919c-.0564-.01-.11255-.01684-.16956-.02466a4.0195,4.0195,0,0,0-.65393-.03662c-.01464.00049-.029-.00146-.0437-.00073a3.974,3.974,0,0,0-.70776.103c-.02832.00635-.05628.00512-.08447.0122l-64,16A3.99994,3.99994,0,0,0,27.99975,56V200a3.99892,3.99892,0,0,0,4.96973,3.88037l62.56445-15.64111,62.67676,31.33838c.03687.01855.07739.02417.11462.0415a4.0129,4.0129,0,0,0,.64563.2334c.06861.01831.13575.0376.20508.05225a3.61674,3.61674,0,0,0,1.342.05957c.06043-.00782.11963-.02271.17981-.03345.09046-.01612.181-.02783.27161-.05054l64-16A3.99922,3.99922,0,0,0,227.99975,200V56A4.00036,4.00036,0,0,0,226.46167,52.84717ZM35.99975,59.12305l56-14V180.8772l-56,13.99975Zm120,150.40478-56-28V46.47217l56,28Zm64-12.65088-56,14.00025V75.12305l56-14Z"/>
</svg>
