<svg xmlns="http://www.w3.org/2000/svg" viewBox="0 0 256 256"><path d="M200.1,228H139.8a255.1,255.1,0,0,0,31.3-30.4c26.8-30.8,41-63.2,41-93.6a84,84,0,0,0-168,0c0,30.4,14.2,62.8,41,93.6A262.4,262.4,0,0,0,116.4,228H56.1a4,4,0,0,0,0,8h144a4,4,0,1,0,0-8ZM91,192.2C73.3,171.8,52.1,139.9,52.1,104a76,76,0,0,1,152,0c0,35.9-21.1,67.8-38.9,88.2A242.6,242.6,0,0,1,128.1,227,247.5,247.5,0,0,1,91,192.2ZM164.1,104a36,36,0,1,0-36,36A36,36,0,0,0,164.1,104Zm-64,0a28,28,0,1,1,28,28A28.1,28.1,0,0,1,100.1,104Z"/></svg>