<svg id="Flat" xmlns="http://www.w3.org/2000/svg" viewBox="0 0 256 256">
  <path d="M198.71,57.28906A99.99968,99.99968,0,1,0,57.29,198.71094,99.99968,99.99968,0,1,0,198.71,57.28906ZM84,208.82654V176a4.00427,4.00427,0,0,1,4-4h80a4.00427,4.00427,0,0,1,4,4v32.82654a92.22059,92.22059,0,0,1-88,0ZM108.145,140h39.67871l.01123.001.0094-.001H152a4.00427,4.00427,0,0,1,4,4v20H100V144a4.00427,4.00427,0,0,1,4-4Zm4.93555-8L124.084,79.18408a4.00015,4.00015,0,0,1,7.832,0L142.91943,132Zm79.97314,61.05371A92.99269,92.99269,0,0,1,180,203.89941V176a12.01343,12.01343,0,0,0-12-12h-4V144a12.01343,12.01343,0,0,0-12-12h-.90845l-11.3435-54.44775a12.00043,12.00043,0,0,0-23.4961,0L104.90845,132H104a12.01343,12.01343,0,0,0-12,12v20H88a12.01343,12.01343,0,0,0-12,12v27.89941a92.99269,92.99269,0,0,1-13.05371-10.8457,92,92,0,1,1,130.10742,0Z"/>
</svg>
