<svg xmlns="http://www.w3.org/2000/svg" viewBox="0 0 256 256"><path d="M184.9,125.3a4.2,4.2,0,0,1-.3,5.7,4.1,4.1,0,0,1-2.7,1,4.3,4.3,0,0,1-3-1.3,19.9,19.9,0,0,0-29.8,0,4.1,4.1,0,0,1-5.7.3,4.2,4.2,0,0,1-.3-5.7,28.1,28.1,0,0,1,41.8,0Zm-78,5.4a4.3,4.3,0,0,0,3,1.3,4.1,4.1,0,0,0,2.7-1,4.2,4.2,0,0,0,.3-5.7,28.1,28.1,0,0,0-41.8,0,4.2,4.2,0,0,0,.3,5.7,4.1,4.1,0,0,0,5.7-.3,19.9,19.9,0,0,1,29.8,0Zm45.4,42a44.1,44.1,0,0,1-48.6,0,4,4,0,1,0-4.5,6.6,52,52,0,0,0,57.6,0,4,4,0,0,0,1.1-5.5A3.9,3.9,0,0,0,152.3,172.7ZM220,48.3V104c0,35-9.4,67.9-26.5,92.8S152.9,236,128,236s-48.1-13.9-65.5-39.2S36,139,36,104V48.3a12.3,12.3,0,0,1,5.2-9.9,12.2,12.2,0,0,1,11.1-1.3C66.7,42.7,95.5,52,128,52s61.3-9.3,75.7-14.9a12.2,12.2,0,0,1,11.1,1.3A12.3,12.3,0,0,1,220,48.3Zm-8,0a3.9,3.9,0,0,0-5.4-3.7C191.7,50.3,161.8,60,128,60S64.3,50.3,49.4,44.6a3.2,3.2,0,0,0-1.4-.3,4.8,4.8,0,0,0-2.3.7A4,4,0,0,0,44,48.3V104c0,68.4,37.7,124,84,124s84-55.6,84-124Z"/></svg>