<svg id="Flat" xmlns="http://www.w3.org/2000/svg" viewBox="0 0 256 256">
  <path d="M108,184a4.0002,4.0002,0,0,1-4,4H76v28a4,4,0,0,1-8,0V188H40a4,4,0,0,1,0-8H68V152a4,4,0,0,1,8,0v28h28A4.0002,4.0002,0,0,1,108,184ZM104,68H40a4,4,0,0,0,0,8h64a4,4,0,0,0,0-8Zm48,104.06641h64a4,4,0,0,0,0-8H152a4,4,0,0,0,0,8Zm64,23.86718H152a4,4,0,0,0,0,8h64a4,4,0,0,0,0-8Zm-58.82861-97.105a4.00088,4.00088,0,0,0,5.65722,0L184,77.65723l21.17139,21.17138a4.00026,4.00026,0,0,0,5.65722-5.65722L189.657,72l21.17163-21.17139a4.00026,4.00026,0,0,0-5.65722-5.65722L184,66.34277,162.82861,45.17139a4.00026,4.00026,0,0,0-5.65722,5.65722L178.343,72,157.17139,93.17139A4.0006,4.0006,0,0,0,157.17139,98.82861Z"/>
</svg>
