<svg xmlns="http://www.w3.org/2000/svg" viewBox="0 0 256 256"><path d="M108,184a4,4,0,0,1-4,4H76v28a4,4,0,0,1-8,0V188H40a4,4,0,0,1,0-8H68V152a4,4,0,0,1,8,0v28h28A4,4,0,0,1,108,184ZM104,68H40a4,4,0,0,0,0,8h64a4,4,0,0,0,0-8Zm48,104.1h64a4,4,0,0,0,0-8H152a4,4,0,0,0,0,8Zm64,23.8H152a4,4,0,0,0,0,8h64a4,4,0,0,0,0-8ZM157.2,98.8a3.9,3.9,0,0,0,5.6,0L184,77.7l21.2,21.1a3.9,3.9,0,0,0,5.6,0,3.9,3.9,0,0,0,0-5.6L189.7,72l21.1-21.2a4,4,0,1,0-5.6-5.6L184,66.3,162.8,45.2a4,4,0,0,0-5.6,5.6L178.3,72,157.2,93.2A3.9,3.9,0,0,0,157.2,98.8Z"/></svg>