<svg id="Flat" xmlns="http://www.w3.org/2000/svg" viewBox="0 0 256 256">
  <path d="M211.99414,96A84,84,0,1,0,76,161.90039V240a4.0005,4.0005,0,0,0,5.78906,3.57764l46.20313-23.10547,46.21875,23.106A4.00039,4.00039,0,0,0,180,240V161.8916A83.8721,83.8721,0,0,0,211.99414,96ZM172,233.52832l-42.21875-21.10645a4.00286,4.00286,0,0,0-3.57813.00049L84,233.52734V167.52a83.78331,83.78331,0,0,0,88-.00732ZM127.99414,172a76,76,0,1,1,76-76A76.08645,76.08645,0,0,1,127.99414,172Zm0-128a52,52,0,1,0,52,52A52.059,52.059,0,0,0,127.99414,44Zm0,96a44,44,0,1,1,44-44A44.04978,44.04978,0,0,1,127.99414,140Z"/>
</svg>
