<svg id="Flat" xmlns="http://www.w3.org/2000/svg" viewBox="0 0 256 256">
  <path d="M52.05859,136.00094a4.00019,4.00019,0,0,1-4,4h-24a4,4,0,0,1,0-8h12v-72h-12a4,4,0,1,1,0-8h16c.02637,0,.05127.00733.07764.00782a3.99851,3.99851,0,0,1,.6582.0664c.02686.00488.05469.00488.08106.01026a4.022,4.022,0,0,1,.6792.21093c.07519.03028.14453.06934.21777.104a4.02263,4.02263,0,0,1,.42041.228c.07471.04737.14551.09815.21631.14991a4.00864,4.00864,0,0,1,.35644.29394c.06446.05957.12793.11817.18848.18164a3.99047,3.99047,0,0,1,.29932.3628c.05127.06884.10644.1333.15332.20556.01367.02051.03076.0376.04394.0586l36.60791,58.57275L116.6665,53.88083c.01319-.021.03028-.03809.04395-.0586.04687-.07226.10205-.13672.15332-.20556a3.97466,3.97466,0,0,1,.29932-.3628c.06054-.06347.12451-.12207.189-.18213a4.11405,4.11405,0,0,1,.35449-.29248c.07227-.05273.14356-.10351.21924-.15136a3.941,3.941,0,0,1,.416-.22608c.07422-.03515.1455-.0747.22168-.10595a4.00269,4.00269,0,0,1,.67773-.21c.02783-.00586.05811-.00586.08643-.01123a3.98126,3.98126,0,0,1,.65283-.06591c.02637-.00049.05127-.00782.07812-.00782h16a4,4,0,0,1,0,8h-12v72h12a4,4,0,0,1,0,8h-24a4,4,0,1,1,0-8h4V69.94821L83.45068,122.12106a4.00031,4.00031,0,0,1-6.78418,0L44.05859,69.94821v62.05273h4A4.0002,4.0002,0,0,1,52.05859,136.00094Zm116-28h72a4,4,0,0,0,0-8h-72a4,4,0,0,0,0,8Zm72,24h-72a4,4,0,1,0,0,8h72a4,4,0,0,0,0-8Zm0,32h-168a4,4,0,1,0,0,8h168a4,4,0,0,0,0-8Zm0,32h-168a4,4,0,1,0,0,8h168a4,4,0,0,0,0-8Z"/>
</svg>
