<svg id="Flat" xmlns="http://www.w3.org/2000/svg" viewBox="0 0 256 256">
  <path d="M236,120a44.04978,44.04978,0,0,0-44-44H152c-.53027,0-53.583-.49219-104.28125-43.01172A11.99859,11.99859,0,0,0,27.999,42.168V197.832A11.87676,11.87676,0,0,0,34.919,208.69824a12.05967,12.05967,0,0,0,5.10546,1.14453,11.93946,11.93946,0,0,0,7.69434-2.83105C90.27832,171.31787,134.68213,165.24023,148,164.21v39.50879a11.97253,11.97253,0,0,0,5.34277,9.98437l10.99219,7.32813a12.00047,12.00047,0,0,0,18.29883-7.07422l12.521-50.08252A44.049,44.049,0,0,0,236,120ZM42.57812,200.88281A3.99913,3.99913,0,0,1,35.999,197.832V42.168a3.93487,3.93487,0,0,1,2.30176-3.61621,4.25438,4.25438,0,0,1,1.75-.38574,3.85541,3.85541,0,0,1,2.52734.95117C87.93457,77.1582,134.26172,82.96094,148,83.84229v72.31542C134.26172,157.03906,87.93457,162.8418,42.57812,200.88281Zm132.294,11.13379a4.00016,4.00016,0,0,1-6.09961,2.3584l-10.99219-7.32812A3.99026,3.99026,0,0,1,156,203.71875V164h30.87646ZM192,156H156V84h36a36,36,0,0,1,0,72Z"/>
</svg>
