<svg xmlns="http://www.w3.org/2000/svg" viewBox="0 0 256 256"><path d="M219.4,90.5,43.4,39.1A12.1,12.1,0,0,0,28,50.7V189.3a12.1,12.1,0,0,0,4.8,9.6,11.8,11.8,0,0,0,7.2,2.4,13.7,13.7,0,0,0,3.4-.4L132,175v17a12,12,0,0,0,12,12h32a12,12,0,0,0,12-12V158.7l31.4-9.2A12.1,12.1,0,0,0,228,138V102A12.1,12.1,0,0,0,219.4,90.5ZM41.1,193.2a4,4,0,0,1-3.5-.7,3.9,3.9,0,0,1-1.6-3.2V50.7a3.9,3.9,0,0,1,1.6-3.2,3.5,3.5,0,0,1,2.4-.8h1.1L132,73.3v93.4ZM180,192a4,4,0,0,1-4,4H144a4,4,0,0,1-4-4V172.7L180,161Zm40-54a4,4,0,0,1-2.9,3.8L140,164.3V75.7l77.1,22.5A4,4,0,0,1,220,102Z"/></svg>