<svg id="Flat" xmlns="http://www.w3.org/2000/svg" viewBox="0 0 256 256">
  <path d="M219.35449,90.48047l-176-51.334A11.99987,11.99987,0,0,0,27.99414,50.667V189.333a12.01829,12.01829,0,0,0,11.9668,12.00976,12.08981,12.08981,0,0,0,3.39355-.48925L132,174.99805V192a12.01312,12.01312,0,0,0,12,12h32a12.01312,12.01312,0,0,0,12-12V158.66455l31.35449-9.145A12.06049,12.06049,0,0,0,227.99414,138V102A12.06049,12.06049,0,0,0,219.35449,90.48047ZM41.11426,193.17383a4.00045,4.00045,0,0,1-5.12012-3.84082V50.667a4.00691,4.00691,0,0,1,3.98926-4.0039,4.02959,4.02959,0,0,1,1.13086.16308L132,73.335V166.665ZM180,192a4.004,4.004,0,0,1-4,4H144a4.004,4.004,0,0,1-4-4V172.665l40-11.667Zm39.99414-54a4.01907,4.01907,0,0,1-2.87988,3.83984L140,164.332V75.668l77.11426,22.49219A4.01907,4.01907,0,0,1,219.99414,102Z"/>
</svg>
