<svg xmlns="http://www.w3.org/2000/svg" viewBox="0 0 256 256"><path d="M236,120a44,44,0,0,0-44-44H152c-.5,0-53.6-.5-104.3-43A12,12,0,0,0,28,42.2V197.8a12,12,0,0,0,6.9,10.9,11.7,11.7,0,0,0,5.1,1.1,11.6,11.6,0,0,0,7.7-2.8c42.6-35.7,87-41.8,100.3-42.8v39.5a12.1,12.1,0,0,0,5.3,10l11,7.3a11.7,11.7,0,0,0,6.7,2,10.6,10.6,0,0,0,4.3-.8,11.8,11.8,0,0,0,7.3-8.2l12.6-50.1A44.2,44.2,0,0,0,236,120ZM42.6,200.9a3.9,3.9,0,0,1-4.3.5,3.8,3.8,0,0,1-2.3-3.6V42.2a3.8,3.8,0,0,1,2.3-3.6,3.4,3.4,0,0,1,1.8-.4,4,4,0,0,1,2.5.9C87.9,77.2,134.3,83,148,83.8v72.4C134.3,157,87.9,162.8,42.6,200.9ZM174.9,212a3.9,3.9,0,0,1-2.5,2.8,3.9,3.9,0,0,1-3.6-.4l-11-7.4a3.9,3.9,0,0,1-1.8-3.3V164h30.9ZM192,156H156V84h36a36,36,0,0,1,0,72Z"/></svg>