<svg id="Flat" xmlns="http://www.w3.org/2000/svg" viewBox="0 0 256 256">
  <path d="M128,28A100.02594,100.02594,0,0,0,41.11426,177.53908l-9.0044,31.51612a11.99985,11.99985,0,0,0,14.83448,14.835l31.51757-9.00391A100.00685,100.00685,0,1,0,128,28Zm0,192a91.87216,91.87216,0,0,1-46.95264-12.86719,4.001,4.001,0,0,0-3.14355-.4082l-33.15674,9.47315a3.99992,3.99992,0,0,1-4.94482-4.94532L49.2749,178.0967a3.99939,3.99939,0,0,0-.4082-3.14307A92.011,92.011,0,1,1,128,220Zm50.82861-110.82861a4.0006,4.0006,0,0,1,0,5.65722l-32,32a4.00088,4.00088,0,0,1-5.65722,0L112,117.65676,82.82861,146.82863a4.00026,4.00026,0,0,1-5.65722-5.65722l32-32a4.00147,4.00147,0,0,1,5.65722,0L144,138.34328l29.17139-29.17187A4.00147,4.00147,0,0,1,178.82861,109.17141Z"/>
</svg>
