<svg xmlns="http://www.w3.org/2000/svg" viewBox="0 0 256 256"><path d="M94,100H78a4,4,0,0,0-4,4v48a4,4,0,0,0,8,0V140H94a20,20,0,0,0,0-40Zm0,32H82V108H94a12,12,0,0,1,0,24ZM136,28A100.4,100.4,0,0,0,56,68H40A12,12,0,0,0,28,80v96a12,12,0,0,0,12,12H56A100,100,0,1,0,136,28Zm91.9,96H156V80a12,12,0,0,0-12-12h-4V36.1A92,92,0,0,1,227.9,124ZM132,36.1V68H66.3A91.9,91.9,0,0,1,132,36.1ZM36,176V80a4,4,0,0,1,4-4H144a4,4,0,0,1,4,4v96a4,4,0,0,1-4,4H40A4,4,0,0,1,36,176Zm30.3,12H132v31.9A91.9,91.9,0,0,1,66.3,188ZM140,219.9V188h4a12,12,0,0,0,12-12V132h71.9A92,92,0,0,1,140,219.9Z"/></svg>