<svg xmlns="http://www.w3.org/2000/svg" viewBox="0 0 256 256"><path d="M200,28H72A12,12,0,0,0,60,40V68H40A12,12,0,0,0,28,80v96a12,12,0,0,0,12,12H60v28a12,12,0,0,0,12,12H200a12,12,0,0,0,12-12V40A12,12,0,0,0,200,28Zm-44,72h48v56H156ZM68,40a4,4,0,0,1,4-4H200a4,4,0,0,1,4,4V92H156V80a12,12,0,0,0-12-12H68ZM36,176V80a4,4,0,0,1,4-4H144a4,4,0,0,1,4,4v96a4,4,0,0,1-4,4H40A4,4,0,0,1,36,176Zm164,44H72a4,4,0,0,1-4-4V188h76a12,12,0,0,0,12-12V164h48v52A4,4,0,0,1,200,220ZM72.1,153l-12-48a4,4,0,0,1,7.8-2l9.2,36.8,11.2-25.4a4.1,4.1,0,0,1,7.4,0l11.2,25.4,9.2-36.8a4,4,0,1,1,7.8,2l-12,48a4.2,4.2,0,0,1-3.6,3H108a4,4,0,0,1-3.7-2.4L92,125.8,79.7,153.6a4,4,0,0,1-4,2.4A4.2,4.2,0,0,1,72.1,153Z"/></svg>