<svg xmlns="http://www.w3.org/2000/svg" viewBox="0 0 256 256"><path d="M211,213.3l-53.1-58.4h0L51,37.3a4,4,0,1,0-6,5.4L84,85.5V128a44,44,0,0,0,70.5,35.1l16.2,17.8A68,68,0,0,1,60.4,135.6,4,4,0,0,0,56,132a3.9,3.9,0,0,0-3.5,4.4A75.8,75.8,0,0,0,124,203.9V232a4,4,0,0,0,8,0V203.9a75.7,75.7,0,0,0,44.1-17.1L205,218.7a4.1,4.1,0,0,0,5.7.3A4.2,4.2,0,0,0,211,213.3ZM128,164a36,36,0,0,1-36-36V94.3l57.1,62.9A36.1,36.1,0,0,1,128,164ZM90.6,40.9A43.5,43.5,0,0,1,128,20a44,44,0,0,1,44,44v60.4a4,4,0,0,1-8,0V64A36,36,0,0,0,97.4,45.1a4.1,4.1,0,0,1-5.5,1.3A3.9,3.9,0,0,1,90.6,40.9ZM191.4,152.8a73.3,73.3,0,0,0,4.2-17.2A4,4,0,0,1,200,132a3.9,3.9,0,0,1,3.5,4.4,75.6,75.6,0,0,1-4.7,19.3,3.9,3.9,0,0,1-3.7,2.5l-1.5-.3A3.9,3.9,0,0,1,191.4,152.8Z"/></svg>