<svg xmlns="http://www.w3.org/2000/svg" viewBox="0 0 256 256"><path d="M216.3,135.8a68,68,0,0,0-96.1-96.1l-.3.2c-.1.1-.2.2-.2.3A67.7,67.7,0,0,0,100,88a64,64,0,0,0,.6,8.8L24.8,200.1A12,12,0,0,0,26,215.7L40.3,230a12.1,12.1,0,0,0,15.6,1.2l103.3-75.8a64,64,0,0,0,8.8.6,67.7,67.7,0,0,0,47.8-19.7l.3-.2ZM228,88a59.7,59.7,0,0,1-14.9,39.5L128.5,42.9A59.9,59.9,0,0,1,228,88ZM51.2,224.7a4,4,0,0,1-5.2-.4L31.7,210a4,4,0,0,1-.4-5.2l71.5-97.5a68.2,68.2,0,0,0,45.9,45.9ZM108,88a59.7,59.7,0,0,1,14.9-39.5l84.6,84.6A59.9,59.9,0,0,1,108,88Zm-5.2,65.2a3.9,3.9,0,0,1,0,5.6l-12,12a3.9,3.9,0,0,1-5.6,0,3.9,3.9,0,0,1,0-5.6l12-12A3.9,3.9,0,0,1,102.8,153.2Z"/></svg>