<svg id="Flat" xmlns="http://www.w3.org/2000/svg" viewBox="0 0 256 256">
  <path d="M210.96,213.30957l-53.09277-58.40234-.001-.001-.001-.00085L50.96,37.30957A4,4,0,0,0,45.04,42.69043L84,85.54639V128a44.00054,44.00054,0,0,0,70.51562,35.11353l16.1792,17.79736A67.99035,67.99035,0,0,1,60.415,135.56055a3.9998,3.9998,0,1,0-7.95117.8789A75.84938,75.84938,0,0,0,124,203.88879V232a4,4,0,0,0,8,0V203.88635A75.76349,75.76349,0,0,0,176.08789,186.843L205.04,218.69043a4,4,0,1,0,5.91992-5.38086ZM128,164a36.04061,36.04061,0,0,1-36-36V94.34644l57.10254,62.8125A35.90011,35.90011,0,0,1,128,164ZM90.55762,40.87988A44.004,44.004,0,0,1,172,64v60.42871a4,4,0,1,1-8,0V64A36.00439,36.00439,0,0,0,97.36035,45.08887a3.99977,3.99977,0,1,1-6.80273-4.209Zm100.7959,111.87793a67.67621,67.67621,0,0,0,4.23144-17.19726,3.9998,3.9998,0,1,1,7.95117.8789,75.56618,75.56618,0,0,1-4.7334,19.23242,3.99945,3.99945,0,1,1-7.44921-2.91406Z"/>
</svg>
