<svg xmlns="http://www.w3.org/2000/svg" viewBox="0 0 256 256"><path d="M200,28H72A12,12,0,0,0,60,40V68H40A12,12,0,0,0,28,80v96a12,12,0,0,0,12,12H60v28a12,12,0,0,0,12,12H200a12,12,0,0,0,12-12V40A12,12,0,0,0,200,28Zm-44,72h48v56H156Zm48-60V92H156V80a12,12,0,0,0-12-12h-4V36h60A4,4,0,0,1,204,40ZM68,40a4,4,0,0,1,4-4h60V68H68ZM36,176V80a4,4,0,0,1,4-4H144a4,4,0,0,1,4,4v96a4,4,0,0,1-4,4H40A4,4,0,0,1,36,176Zm32,40V188h64v32H72A4,4,0,0,1,68,216Zm132,4H140V188h4a12,12,0,0,0,12-12V164h48v52A4,4,0,0,1,200,220ZM70.8,149.6,87,128,70.8,106.4a4,4,0,0,1,6.4-4.8L92,121.3l14.8-19.7a4,4,0,1,1,6.4,4.8L97,128l16.2,21.6a4,4,0,0,1-.8,5.6,4.3,4.3,0,0,1-2.4.8,4.2,4.2,0,0,1-3.2-1.6L92,134.7,77.2,154.4A4.2,4.2,0,0,1,74,156a4.3,4.3,0,0,1-2.4-.8A4,4,0,0,1,70.8,149.6Z"/></svg>