<svg id="Flat" xmlns="http://www.w3.org/2000/svg" viewBox="0 0 256 256">
  <path d="M232,60H24A12.01312,12.01312,0,0,0,12,72V184a12.01312,12.01312,0,0,0,12,12H232a12.01312,12.01312,0,0,0,12-12V72A12.01312,12.01312,0,0,0,232,60ZM81.50342,188,20,134.18469V121.81531L81.50342,68h92.99316L236,121.81531v12.36938L174.49658,188ZM236,72v39.18469L186.646,68H232A4.004,4.004,0,0,1,236,72ZM24,68H69.354L20,111.18469V72A4.004,4.004,0,0,1,24,68ZM20,184V144.81531L69.354,188H24A4.004,4.004,0,0,1,20,184Zm212,4H186.646L236,144.81531V184A4.004,4.004,0,0,1,232,188ZM128,92a36,36,0,1,0,36,36A36.04061,36.04061,0,0,0,128,92Zm0,64a28,28,0,1,1,28-28A28.03146,28.03146,0,0,1,128,156Z"/>
</svg>
