<svg xmlns="http://www.w3.org/2000/svg" viewBox="0 0 256 256"><path d="M232,60H24A12,12,0,0,0,12,72V184a12,12,0,0,0,12,12H232a12,12,0,0,0,12-12V72A12,12,0,0,0,232,60ZM81.5,188,20,134.2V121.8L81.5,68h93L236,121.8v12.4L174.5,188ZM236,72v39.2L186.6,68H232A4,4,0,0,1,236,72ZM24,68H69.4L20,111.2V72A4,4,0,0,1,24,68ZM20,184V144.8L69.4,188H24A4,4,0,0,1,20,184Zm212,4H186.6L236,144.8V184A4,4,0,0,1,232,188ZM128,92a36,36,0,1,0,36,36A36,36,0,0,0,128,92Zm0,64a28,28,0,1,1,28-28A28.1,28.1,0,0,1,128,156Z"/></svg>