<svg id="Flat" xmlns="http://www.w3.org/2000/svg" viewBox="0 0 256 256">
  <path d="M162.21875,116.67187l-48-32A3.99987,3.99987,0,0,0,108,88v64a3.99987,3.99987,0,0,0,6.21875,3.32812l48-32a3.99979,3.99979,0,0,0,0-6.65625ZM116,144.52588V95.47412L152.78906,120ZM208,44H48A20.02244,20.02244,0,0,0,28,64V176a20.0226,20.0226,0,0,0,20,20H208a20.0226,20.0226,0,0,0,20-20V64A20.02244,20.02244,0,0,0,208,44Zm12,132a12.01343,12.01343,0,0,1-12,12H48a12.01343,12.01343,0,0,1-12-12V64A12.01328,12.01328,0,0,1,48,52H208a12.01328,12.01328,0,0,1,12,12Zm-56,48a4.0002,4.0002,0,0,1-4,4H96a4,4,0,0,1,0-8h64A4.0002,4.0002,0,0,1,164,224Z"/>
</svg>
