<svg xmlns="http://www.w3.org/2000/svg" viewBox="0 0 256 256"><path d="M162.2,116.7l-48-32a4,4,0,0,0-4.1-.2A3.9,3.9,0,0,0,108,88v64a3.9,3.9,0,0,0,2.1,3.5,4.5,4.5,0,0,0,1.9.5,3.6,3.6,0,0,0,2.2-.7l48-32a3.9,3.9,0,0,0,0-6.6ZM116,144.5v-49L152.8,120ZM208,44H48A20.1,20.1,0,0,0,28,64V176a20.1,20.1,0,0,0,20,20H208a20.1,20.1,0,0,0,20-20V64A20.1,20.1,0,0,0,208,44Zm12,132a12,12,0,0,1-12,12H48a12,12,0,0,1-12-12V64A12,12,0,0,1,48,52H208a12,12,0,0,1,12,12Zm-56,48a4,4,0,0,1-4,4H96a4,4,0,0,1,0-8h64A4,4,0,0,1,164,224Z"/></svg>