<svg id="Flat" xmlns="http://www.w3.org/2000/svg" viewBox="0 0 256 256">
  <path d="M244,88a4.0002,4.0002,0,0,1-4,4H220v20a4,4,0,0,1-8,0V92H192a4,4,0,0,1,0-8h20V64a4,4,0,0,1,8,0V84h20A4.0002,4.0002,0,0,1,244,88ZM152,44h12V56a4,4,0,0,0,8,0V44h12a4,4,0,0,0,0-8H172V24a4,4,0,0,0-8,0V36H152a4,4,0,0,0,0,8Zm68.45654,107.38184a4.00926,4.00926,0,0,1,.03858,2.41015A96.014,96.014,0,1,1,102.16992,35.51563a4.00137,4.00137,0,0,1,5.00488,5A88.03192,88.03192,0,0,0,215.439,148.83789a3.99883,3.99883,0,0,1,5.01758,2.544Zm-9.76318,6.79A96.02177,96.02177,0,0,1,97.82764,45.30664,88.01621,88.01621,0,1,0,210.69336,158.17188Z"/>
</svg>
