<svg id="Flat" xmlns="http://www.w3.org/2000/svg" viewBox="0 0 256 256">
  <path d="M244,88a4.0002,4.0002,0,0,1-4,4H220v20a4,4,0,0,1-8,0V92H192a4,4,0,0,1,0-8h20V64a4,4,0,0,1,8,0V84h20A4.0002,4.0002,0,0,1,244,88ZM152,44h12V56a4,4,0,0,0,8,0V44h12a4,4,0,0,0,0-8H172V24a4,4,0,0,0-8,0V36H152a4,4,0,0,0,0,8Zm73.44775,104.59961a3.994,3.994,0,0,1,.01807,1.86523A100.00653,100.00653,0,1,1,105.53613,30.53418a3.9998,3.9998,0,0,1,4.79395,4.793A92.08453,92.08453,0,0,0,220.67188,145.669a3.99561,3.99561,0,0,1,4.77539,2.92871Zm-9.38916,6.11621A100.89526,100.89526,0,0,1,200,156,100.07763,100.07763,0,0,1,101.28418,39.94141,92.00676,92.00676,0,1,0,216.05859,154.71582Z"/>
</svg>
