<svg xmlns="http://www.w3.org/2000/svg" viewBox="0 0 256 256"><path d="M186.8,69.2a3.9,3.9,0,0,1,0,5.6l-16,16a3.9,3.9,0,0,1-5.6,0,3.9,3.9,0,0,1,0-5.6l16-16A3.9,3.9,0,0,1,186.8,69.2ZM220,72a35.9,35.9,0,0,1-10.5,25.5l-24,24a5.7,5.7,0,0,1-2.2,1.1c-21.7,3.7-52.7,21.4-89.9,51.3C65.1,196.7,43,218.6,42.8,218.8l-.2.2h0a4.3,4.3,0,0,1-2.6.9,3.9,3.9,0,0,1-2.8-1.2,3.9,3.9,0,0,1,0-5.6h0c.2-.2,22.1-22.3,44.9-50.6,29.9-37.2,47.6-68.2,51.3-89.9a5.7,5.7,0,0,1,1.1-2.2l24-24A36,36,0,0,1,220,72Zm-8,0a28,28,0,0,0-47.8-19.8L141.1,75.3c-5.3,28-29.5,63.4-52.5,92.1,28.7-23,64.1-47.2,92.1-52.5l23.1-23.1A27.8,27.8,0,0,0,212,72Z"/></svg>