<svg id="Flat" xmlns="http://www.w3.org/2000/svg" viewBox="0 0 256 256">
  <path d="M216,44H40A12.01312,12.01312,0,0,0,28,56V216a4.001,4.001,0,0,0,5.78906,3.57812L64,204.47168l30.21094,15.10644a4.0044,4.0044,0,0,0,3.57812,0L128,204.47168l30.21094,15.10644a4.0044,4.0044,0,0,0,3.57812,0L192,204.47168l30.21094,15.10644A4.001,4.001,0,0,0,228,216V56A12.01312,12.01312,0,0,0,216,44Zm4,165.52832-26.21094-13.10644a4.0044,4.0044,0,0,0-3.57812,0L160,211.52832l-30.21094-15.10644a4.00436,4.00436,0,0,0-3.57812,0L96,211.52832,65.78906,196.42188a4.0044,4.0044,0,0,0-3.57812,0L36,209.52832V56a4.004,4.004,0,0,1,4-4H216a4.004,4.004,0,0,1,4,4ZM196,112a4.0002,4.0002,0,0,1-4,4H144a4,4,0,0,1,0-8h48A4.0002,4.0002,0,0,1,196,112Zm0,32a4.0002,4.0002,0,0,1-4,4H144a4,4,0,0,1,0-8h48A4.0002,4.0002,0,0,1,196,144ZM112,92H64a4.0002,4.0002,0,0,0-4,4v64a4.0002,4.0002,0,0,0,4,4h48a4.0002,4.0002,0,0,0,4-4V96A4.0002,4.0002,0,0,0,112,92Zm-4,64H68V100h40Z"/>
</svg>
