<svg id="Flat" xmlns="http://www.w3.org/2000/svg" viewBox="0 0 256 256">
  <path d="M196,96a4.0002,4.0002,0,0,1-4,4H88a4,4,0,0,1,0-8H192A4.0002,4.0002,0,0,1,196,96Zm-4,28H88a4,4,0,0,0,0,8H192a4,4,0,0,0,0-8Zm0,32H88a4,4,0,0,0,0,8H192a4,4,0,0,0,0-8ZM236,56V192a20.02229,20.02229,0,0,1-20,20H32a20.02285,20.02285,0,0,1-20-19.91895V80a4,4,0,0,1,8,0V192a12,12,0,0,0,24,0V56A12.01312,12.01312,0,0,1,56,44H224A12.01312,12.01312,0,0,1,236,56Zm-8,0a4.004,4.004,0,0,0-4-4H56a4.004,4.004,0,0,0-4,4V192a19.89694,19.89694,0,0,1-4.00977,12H216a12.01312,12.01312,0,0,0,12-12Z"/>
</svg>
