<svg xmlns="http://www.w3.org/2000/svg" viewBox="0 0 256 256"><path d="M216,44H40A12,12,0,0,0,28,56V216a3.9,3.9,0,0,0,1.9,3.4,4.1,4.1,0,0,0,3.9.2L64,204.5l30.2,15.1a4.5,4.5,0,0,0,3.6,0L128,204.5l30.2,15.1a4.5,4.5,0,0,0,3.6,0L192,204.5l30.2,15.1A4,4,0,0,0,228,216V56A12,12,0,0,0,216,44Zm4,165.5-26.2-13.1a4.5,4.5,0,0,0-3.6,0L160,211.5l-30.2-15.1a4.2,4.2,0,0,0-3.6,0L96,211.5,65.8,196.4a4.5,4.5,0,0,0-3.6,0L36,209.5V56a4,4,0,0,1,4-4H216a4,4,0,0,1,4,4ZM196,112a4,4,0,0,1-4,4H144a4,4,0,0,1,0-8h48A4,4,0,0,1,196,112Zm0,32a4,4,0,0,1-4,4H144a4,4,0,0,1,0-8h48A4,4,0,0,1,196,144ZM112,92H64a4,4,0,0,0-4,4v64a4,4,0,0,0,4,4h48a4,4,0,0,0,4-4V96A4,4,0,0,0,112,92Zm-4,64H68V100h40Z"/></svg>