<svg id="Flat" xmlns="http://www.w3.org/2000/svg" viewBox="0 0 256 256">
  <path d="M180,112a4.0002,4.0002,0,0,1-4,4H96a4,4,0,0,1,0-8h80A4.0002,4.0002,0,0,1,180,112Zm-4,28H96a4,4,0,0,0,0,8h80a4,4,0,0,0,0-8Zm52-76V184a20.02229,20.02229,0,0,1-20,20H32a20.02285,20.02285,0,0,1-20-19.91895V88a4,4,0,0,1,8,0v96a12,12,0,0,0,24,0V64A12.01312,12.01312,0,0,1,56,52H216A12.01312,12.01312,0,0,1,228,64Zm-8,0a4.004,4.004,0,0,0-4-4H56a4.004,4.004,0,0,0-4,4V184a19.89694,19.89694,0,0,1-4.00977,12H208a12.01312,12.01312,0,0,0,12-12Z"/>
</svg>
