<svg xmlns="http://www.w3.org/2000/svg" viewBox="0 0 256 256"><path d="M164,128a4,4,0,0,1-4,4H96a4,4,0,0,1,0-8h64A4,4,0,0,1,164,128Zm-4,28H96a4,4,0,0,0,0,8h64a4,4,0,0,0,0-8ZM212,48V200a28.1,28.1,0,0,1-28,28H72a28.1,28.1,0,0,1-28-28V48A12,12,0,0,1,56,36H76V24a4,4,0,0,1,8,0V36h40V24a4,4,0,0,1,8,0V36h40V24a4,4,0,0,1,8,0V36h20A12,12,0,0,1,212,48Zm-8,0a4,4,0,0,0-4-4H180V56a4,4,0,0,1-8,0V44H132V56a4,4,0,0,1-8,0V44H84V56a4,4,0,0,1-8,0V44H56a4,4,0,0,0-4,4V200a20.1,20.1,0,0,0,20,20H184a20.1,20.1,0,0,0,20-20Z"/></svg>