<svg id="Flat" xmlns="http://www.w3.org/2000/svg" viewBox="0 0 256 256">
  <path d="M164,128.00586a4.0002,4.0002,0,0,1-4,4H96a4,4,0,1,1,0-8h64A4.0002,4.0002,0,0,1,164,128.00586Zm-4,28H96a4,4,0,1,0,0,8h64a4,4,0,0,0,0-8Zm52-108v152a28.03146,28.03146,0,0,1-28,28H72a28.03146,28.03146,0,0,1-28-28v-152a12.01343,12.01343,0,0,1,12-12H76v-12a4,4,0,0,1,8,0v12h40v-12a4,4,0,1,1,8,0v12h40v-12a4,4,0,1,1,8,0v12h20A12.01343,12.01343,0,0,1,212,48.00586Zm-8,0a4.00427,4.00427,0,0,0-4-4H180v12a4,4,0,0,1-8,0v-12H132v12a4,4,0,0,1-8,0v-12H84v12a4,4,0,0,1-8,0v-12H56a4.00427,4.00427,0,0,0-4,4v152a20.02229,20.02229,0,0,0,20,20H184a20.02229,20.02229,0,0,0,20-20Z"/>
</svg>
