<svg id="Flat" xmlns="http://www.w3.org/2000/svg" viewBox="0 0 256 256">
  <path d="M92,96a4.0002,4.0002,0,0,1,4-4h64a4,4,0,0,1,0,8H96A4.0002,4.0002,0,0,1,92,96Zm4,36h64a4,4,0,0,0,0-8H96a4,4,0,0,0,0,8Zm32,24H96a4,4,0,0,0,0,8h32a4,4,0,0,0,0-8ZM220,48V156.68652a11.92221,11.92221,0,0,1-3.51514,8.48536l-51.313,51.31347A11.92174,11.92174,0,0,1,156.68652,220H48a12.01375,12.01375,0,0,1-12-12V48A12.01375,12.01375,0,0,1,48,36H208A12.01375,12.01375,0,0,1,220,48ZM48,212H156V159.99219a3.99988,3.99988,0,0,1,4-4h52V48a4.00458,4.00458,0,0,0-4-4H48a4.00458,4.00458,0,0,0-4,4V208A4.00458,4.00458,0,0,0,48,212Zm158.35107-48.00781H164v42.35058Z"/>
</svg>
