<svg id="Flat" xmlns="http://www.w3.org/2000/svg" viewBox="0 0 256 256">
  <path d="M208,36H48A12.01312,12.01312,0,0,0,36,48V208a12.01312,12.01312,0,0,0,12,12H208a12.01312,12.01312,0,0,0,12-12V48A12.01312,12.01312,0,0,0,208,36Zm4,172a4.004,4.004,0,0,1-4,4H48a4.004,4.004,0,0,1-4-4V48a4.004,4.004,0,0,1,4-4H208a4.004,4.004,0,0,1,4,4Zm-68-87.72266a31.76671,31.76671,0,0,0-24.28223-3.19726c-.65124.17431-1.29065.37475-1.92431.587l20.59619-35.673a3.9998,3.9998,0,0,0-6.92774-4l-31.1748,53.99512a32.02324,32.02324,0,0,0,27.66016,48.01465,32.16254,32.16254,0,0,0,8.335-1.10547A31.99923,31.99923,0,0,0,144,120.27734Zm4.78516,39.71192a23.99908,23.99908,0,1,1,2.39746-18.21192A23.84485,23.84485,0,0,1,148.78516,159.98926Z"/>
</svg>
