<svg id="Flat" xmlns="http://www.w3.org/2000/svg" viewBox="0 0 256 256">
  <path d="M185.97949,54.4248C172.335,31.90381,152.28613,20,128,20S83.665,31.90381,70.02051,54.4248C58.39941,73.60547,52,99.73486,52,128c0,28.2627,6.39941,54.3916,18.02051,73.57275C83.665,224.09521,103.71484,236,128,236s44.335-11.90479,57.97949-34.42725C197.60059,182.3916,204,156.2627,204,128,204,99.73486,197.60059,73.60547,185.97949,54.4248ZM128,228c-46.97363,0-68-50.22461-68-100S81.02637,28,128,28s68,50.22461,68,100S174.97363,228,128,228Z"/>
</svg>
