<svg id="Flat" xmlns="http://www.w3.org/2000/svg" viewBox="0 0 256 256">
  <path d="M151.10254,119.81738,112.001,171.99414H152a4,4,0,0,1,0,8H104.2207c-.07324.00391-.14746.00635-.22168.00635a4.00218,4.00218,0,0,1-3.13281-6.48877l43.77246-58.40967a19.99739,19.99739,0,0,0-12.60254-30.69531,20.30773,20.30773,0,0,0-8.07129,0,19.86148,19.86148,0,0,0-7.1455,3.00732,20.07028,20.07028,0,0,0-7.25,8.80274,3.99976,3.99976,0,0,1-7.36719-3.11719A27.99345,27.99345,0,0,1,122.3623,76.56885a28.357,28.357,0,0,1,11.27637,0,27.90554,27.90554,0,0,1,10.01856,4.21435,28.0813,28.0813,0,0,1,10.14062,12.31641,27.96946,27.96946,0,0,1,1.63379,5.26025,28.25713,28.25713,0,0,1,0,11.27784,27.86846,27.86846,0,0,1-4.21582,10.01953C151.17969,119.71143,151.1416,119.76465,151.10254,119.81738ZM220,48V208a12.01343,12.01343,0,0,1-12,12H48a12.01343,12.01343,0,0,1-12-12V48A12.01343,12.01343,0,0,1,48,36H208A12.01343,12.01343,0,0,1,220,48Zm-8,0a4.00427,4.00427,0,0,0-4-4H48a4.00427,4.00427,0,0,0-4,4V208a4.00427,4.00427,0,0,0,4,4H208a4.00427,4.00427,0,0,0,4-4Z"/>
</svg>
