<svg xmlns="http://www.w3.org/2000/svg" viewBox="0 0 256 256"><path d="M142.4,123.7a41.2,41.2,0,0,0,4-3.3,26,26,0,1,0-36.8,0,41.2,41.2,0,0,0,4,3.3,25.8,25.8,0,0,0-6.8,5.1,30,30,0,1,0,42.4,0A25.8,25.8,0,0,0,142.4,123.7Zm-27.1-9A17.9,17.9,0,1,1,128,120,17.9,17.9,0,0,1,115.3,114.7Zm28.3,50.9A22.2,22.2,0,1,1,150,150,22.2,22.2,0,0,1,143.6,165.6ZM208,36H48A12,12,0,0,0,36,48V208a12,12,0,0,0,12,12H208a12,12,0,0,0,12-12V48A12,12,0,0,0,208,36Zm4,172a4,4,0,0,1-4,4H48a4,4,0,0,1-4-4V48a4,4,0,0,1,4-4H208a4,4,0,0,1,4,4Z"/></svg>