<svg id="Flat" xmlns="http://www.w3.org/2000/svg" viewBox="0 0 256 256">
  <path d="M208,36H48A12.01312,12.01312,0,0,0,36,48V208a12.01312,12.01312,0,0,0,12,12H208a12.01312,12.01312,0,0,0,12-12V48A12.01312,12.01312,0,0,0,208,36Zm4,172a4.004,4.004,0,0,1-4,4H48a4.004,4.004,0,0,1-4-4V48a4.004,4.004,0,0,1,4-4H208a4.004,4.004,0,0,1,4,4Zm-84-92a31.87053,31.87053,0,0,0-9.74756,1.52332l21.18213-35.4784a4.00025,4.00025,0,1,0-6.86914-4.10156l-32.24512,54.00781c-.02344.03919-.03491.08154-.05676.12134A31.98854,31.98854,0,1,0,128,116Zm0,56a23.98912,23.98912,0,0,1-20.55591-36.37378l.05445-.09106A23.99721,23.99721,0,1,1,128,172Z"/>
</svg>
