<svg id="Flat" xmlns="http://www.w3.org/2000/svg" viewBox="0 0 256 256">
  <path d="M142.38721,123.66553a26.27629,26.27629,0,0,0,3.99853-3.28076,26,26,0,1,0-36.77051.001,26.24694,26.24694,0,0,0,3.99756,3.27979,30.11242,30.11242,0,0,0-6.82568,5.12158,30,30,0,1,0,42.42578,0A30.11507,30.11507,0,0,0,142.38721,123.66553Zm-27.11475-8.937A18.00052,18.00052,0,1,1,128,120,17.883,17.883,0,0,1,115.27246,114.72852Zm28.28418,50.82812A22.0014,22.0014,0,1,1,150,150,21.85707,21.85707,0,0,1,143.55664,165.55664ZM208,36H48A12.01312,12.01312,0,0,0,36,48V208a12.01312,12.01312,0,0,0,12,12H208a12.01312,12.01312,0,0,0,12-12V48A12.01312,12.01312,0,0,0,208,36Zm4,172a4.004,4.004,0,0,1-4,4H48a4.004,4.004,0,0,1-4-4V48a4.004,4.004,0,0,1,4-4H208a4.004,4.004,0,0,1,4,4Z"/>
</svg>
