<svg id="Flat" xmlns="http://www.w3.org/2000/svg" viewBox="0 0 256 256">
  <path d="M173.165,132.917a64.39243,64.39243,0,0,0-23.15332-13.92627,54.97221,54.97221,0,0,0,16.626-10.70263,49.6335,49.6335,0,0,0,0-73.24268,57.13491,57.13491,0,0,0-77.2754,0,49.6335,49.6335,0,0,0,0,73.24268,54.97221,54.97221,0,0,0,16.626,10.70263A64.39243,64.39243,0,0,0,82.835,132.917a57.93209,57.93209,0,0,0,0,85.49951,66.79729,66.79729,0,0,0,90.33008,0,57.93209,57.93209,0,0,0,0-85.49951ZM94.83887,102.45605a41.63494,41.63494,0,0,1,0-61.57861,49.13589,49.13589,0,0,1,66.32226,0,41.63494,41.63494,0,0,1,0,61.57861,49.13586,49.13586,0,0,1-66.32226,0Zm72.84961,110.12842a58.7983,58.7983,0,0,1-79.377,0,49.93355,49.93355,0,0,1,0-73.83545,58.79833,58.79833,0,0,1,79.377,0,49.93355,49.93355,0,0,1,0,73.83545Z"/>
</svg>
