<svg id="Flat" xmlns="http://www.w3.org/2000/svg" viewBox="0 0 256 256">
  <path d="M152,111.99414v64a4,4,0,1,1-8,0v-28H100a3.99925,3.99925,0,0,1-3.77148-5.331l23.998-67.99414a3.99947,3.99947,0,1,1,7.543,2.6621l-22.11621,62.66309H144v-28a4,4,0,0,1,8,0ZM220,48V208a12.01312,12.01312,0,0,1-12,12H48a12.01312,12.01312,0,0,1-12-12V48A12.01343,12.01343,0,0,1,48,36H208A12.01343,12.01343,0,0,1,220,48Zm-8,0a4.00427,4.00427,0,0,0-4-4H48a4.00427,4.00427,0,0,0-4,4V208a4.004,4.004,0,0,0,4,4H208a4.004,4.004,0,0,0,4-4Z"/>
</svg>
