<svg id="Flat" xmlns="http://www.w3.org/2000/svg" viewBox="0 0 256 256">
  <path d="M128,28A100,100,0,1,0,228,128,100.1127,100.1127,0,0,0,128,28Zm0,192a92,92,0,1,1,92-92A92.10478,92.10478,0,0,1,128,220Zm16-99.72266a31.7624,31.7624,0,0,0-24.28223-3.19726c-.65124.17431-1.29065.375-1.92431.58691l20.59619-35.67285a3.9998,3.9998,0,0,0-6.92774-4l-31.1748,53.99512a32.02324,32.02324,0,0,0,27.66016,48.01465,32.16254,32.16254,0,0,0,8.335-1.10547A31.99923,31.99923,0,0,0,144,120.27734Zm4.78516,39.71192a23.99908,23.99908,0,1,1,2.39746-18.21192A23.84485,23.84485,0,0,1,148.78516,159.98926Z"/>
</svg>
