<svg id="Flat" xmlns="http://www.w3.org/2000/svg" viewBox="0 0 256 256">
  <path d="M146.62793,129.377a31.99676,31.99676,0,1,1-45.249,45.25147,3.99992,3.99992,0,1,1,5.65625-5.65723,23.99709,23.99709,0,1,0,16.96875-40.9668,3.99972,3.99972,0,0,1-3.27735-6.293L144.31348,88H104a4,4,0,0,1,0-8h47.99414a3.99973,3.99973,0,0,1,3.27734,6.293l-24.14062,34.50342A31.78143,31.78143,0,0,1,146.62793,129.377ZM220,48V208a12.01343,12.01343,0,0,1-12,12H48a12.01343,12.01343,0,0,1-12-12V48A12.01343,12.01343,0,0,1,48,36H208A12.01343,12.01343,0,0,1,220,48Zm-8,0a4.00427,4.00427,0,0,0-4-4H48a4.00427,4.00427,0,0,0-4,4V208a4.00427,4.00427,0,0,0,4,4H208a4.00427,4.00427,0,0,0,4-4Z"/>
</svg>
