<svg id="Flat" xmlns="http://www.w3.org/2000/svg" viewBox="0 0 256 256">
  <path d="M208,36H48A12.01343,12.01343,0,0,0,36,48V208a12.01343,12.01343,0,0,0,12,12H208a12.01343,12.01343,0,0,0,12-12V48A12.01343,12.01343,0,0,0,208,36Zm4,172a4.00427,4.00427,0,0,1-4,4H48a4.00427,4.00427,0,0,1-4-4V48a4.00427,4.00427,0,0,1,4-4H208a4.00427,4.00427,0,0,1,4,4Zm-60.89746-88.18262L112.001,171.99414H152a4,4,0,0,1,0,8H104.2207c-.07324.00391-.14746.00635-.22168.00635a4.00218,4.00218,0,0,1-3.13281-6.48877l43.77344-58.41016a20.0044,20.0044,0,1,0-35.07031-18.88525,3.99957,3.99957,0,1,1-7.36719-3.11621,28.00379,28.00379,0,1,1,49.01367,26.55761C151.17969,119.71191,151.1416,119.76514,151.10254,119.81738Z"/>
</svg>
