<svg xmlns="http://www.w3.org/2000/svg" viewBox="0 0 256 256"><path d="M128,76c-11.6,0-21.2,5.9-27.7,17-5.4,9.2-8.3,21.6-8.3,35s2.9,25.8,8.3,35c6.5,11.1,16.1,17,27.7,17s21.2-5.9,27.7-17c5.4-9.2,8.3-21.6,8.3-35s-2.9-25.8-8.3-35C149.2,81.9,139.6,76,128,76Zm0,96c-19.3,0-28-22.1-28-44s8.7-44,28-44,28,22.1,28,44S147.3,172,128,172ZM208,36H48A12,12,0,0,0,36,48V208a12,12,0,0,0,12,12H208a12,12,0,0,0,12-12V48A12,12,0,0,0,208,36Zm4,172a4,4,0,0,1-4,4H48a4,4,0,0,1-4-4V48a4,4,0,0,1,4-4H208a4,4,0,0,1,4,4Z"/></svg>