<svg id="Flat" xmlns="http://www.w3.org/2000/svg" viewBox="0 0 256 256">
  <path d="M155.24512,81.66113a4.00012,4.00012,0,0,1,.5498,3.60352l-32,96a4.00009,4.00009,0,1,1-7.58984-2.5293L146.4502,88H104a4,4,0,0,1,0-8h48A4.00025,4.00025,0,0,1,155.24512,81.66113ZM220,48V208a12.01312,12.01312,0,0,1-12,12H48a12.01312,12.01312,0,0,1-12-12V48A12.01312,12.01312,0,0,1,48,36H208A12.01312,12.01312,0,0,1,220,48Zm-8,0a4.004,4.004,0,0,0-4-4H48a4.004,4.004,0,0,0-4,4V208a4.004,4.004,0,0,0,4,4H208a4.004,4.004,0,0,0,4-4Z"/>
</svg>
