<svg id="Flat" xmlns="http://www.w3.org/2000/svg" viewBox="0 0 256 256">
  <path d="M128,236c-24.28516,0-44.335-11.90479-57.97949-34.42737C58.39941,182.3916,52,156.26294,52,128c0-28.2652,6.39941-54.39465,18.02051-73.575C83.665,31.904,103.71387,20,128,20s44.335,11.904,57.97949,34.425C197.60059,73.60535,204,99.7348,204,128c0,28.26294-6.39941,54.3916-18.02051,73.57263C172.335,224.09521,152.28516,236,128,236Zm0-208C81.02637,28,60,78.22467,60,128s21.02637,100,68,100,68-50.22473,68-100S174.97363,28,128,28Z"/>
</svg>
