<svg xmlns="http://www.w3.org/2000/svg" viewBox="0 0 256 256"><path d="M115.2,84l-5.7,35.4a32.1,32.1,0,0,1,14.4-3.4A32.1,32.1,0,0,1,156,148a31.4,31.4,0,0,1-9.4,22.6,32.1,32.1,0,0,1-45.4,0,4,4,0,0,1,5.6-5.6,24.3,24.3,0,0,0,34.1,0,24,24,0,0,0-17-41,24.2,24.2,0,0,0-17.1,7,3.8,3.8,0,0,1-4.6.8,3.9,3.9,0,0,1-2.1-4.2l7.8-48.2a4,4,0,0,1,3.9-3.4H152a4,4,0,0,1,0,8ZM220,48V208a12,12,0,0,1-12,12H48a12,12,0,0,1-12-12V48A12,12,0,0,1,48,36H208A12,12,0,0,1,220,48Zm-8,0a4,4,0,0,0-4-4H48a4,4,0,0,0-4,4V208a4,4,0,0,0,4,4H208a4,4,0,0,0,4-4Z"/></svg>