<svg id="Flat" xmlns="http://www.w3.org/2000/svg" viewBox="0 0 256 256">
  <path d="M128,28A100,100,0,1,0,228,128,100.1127,100.1127,0,0,0,128,28Zm0,192a92,92,0,1,1,92-92A92.10478,92.10478,0,0,1,128,220ZM144,80.292a31.99966,31.99966,0,1,0-16.05078,59.72656,32.1465,32.1465,0,0,0,8.333-1.10449c.65124-.17431,1.29077-.375,1.92456-.5874L117.61035,174a3.9998,3.9998,0,1,0,6.92774,4l31.1748-53.99512A32.00126,32.00126,0,0,0,144,80.292Zm-9.78809,50.89551a24.00045,24.00045,0,1,1-12.42382-46.36523,24.153,24.153,0,0,1,6.252-.82813,24.006,24.006,0,0,1,6.17187,47.19336Z"/>
</svg>
