<svg id="Flat" xmlns="http://www.w3.org/2000/svg" viewBox="0 0 256 256">
  <path d="M128,76c-11.6416,0-21.2207,5.87256-27.70313,16.9834C94.94629,102.15381,92,114.58936,92,128c0,13.40918,2.94629,25.84473,8.29687,35.01562C106.7793,174.127,116.3584,180,128,180s21.2207-5.87305,27.70312-16.98438C161.05371,153.84473,164,141.40918,164,128c0-13.41064-2.94629-25.84619-8.29688-35.0166C149.2207,81.87256,139.6416,76,128,76Zm0,96c-19.3418,0-28-22.09863-28-44s8.6582-44,28-44,28,22.09863,28,44S147.3418,172,128,172ZM208,36H48A12.01343,12.01343,0,0,0,36,48V208a12.01343,12.01343,0,0,0,12,12H208a12.01343,12.01343,0,0,0,12-12V48A12.01343,12.01343,0,0,0,208,36Zm4,172a4.00427,4.00427,0,0,1-4,4H48a4.00427,4.00427,0,0,1-4-4V48a4.00427,4.00427,0,0,1,4-4H208a4.00427,4.00427,0,0,1,4,4Z"/>
</svg>
