<svg id="Flat" xmlns="http://www.w3.org/2000/svg" viewBox="0 0 256 256">
  <path d="M128,228A100,100,0,1,1,228,128,100.11269,100.11269,0,0,1,128,228Zm0-192a92,92,0,1,0,92,92A92.10478,92.10478,0,0,0,128,36ZM104.2207,179.99414H152a4,4,0,0,0,0-8H112.001l39.10156-52.17676c.03906-.05273.07715-.10547.11426-.16015a27.99894,27.99894,0,0,0-17.5791-43.08887,28.40289,28.40289,0,0,0-11.27832,0,28.04317,28.04317,0,0,0-20.15723,16.53125,3.99976,3.99976,0,0,0,7.36719,3.11719,19.991,19.991,0,0,1,14.39453-11.81055,20.33413,20.33413,0,0,1,8.06933,0,19.848,19.848,0,0,1,7.14649,3.00684,20.07951,20.07951,0,0,1,7.251,8.80371,19.92624,19.92624,0,0,1,1.16309,3.74707,20.23823,20.23823,0,0,1,0,8.06933,19.88811,19.88811,0,0,1-1.16309,3.75,20.12535,20.12535,0,0,1-1.792,3.31934l-43.77246,58.40918A4.00086,4.00086,0,0,0,103.999,180C104.07324,180,104.14746,179.99805,104.2207,179.99414Z"/>
</svg>
