<svg id="Flat" xmlns="http://www.w3.org/2000/svg" viewBox="0 0 256 256">
  <path d="M135.99121,80v95.99414a4,4,0,0,1-8,0V87.4751L110.22754,99.32031a3.99991,3.99991,0,1,1-4.4375-6.65625l23.98242-15.99218A3.99967,3.99967,0,0,1,135.99121,80ZM220,48V208a12.01343,12.01343,0,0,1-12,12H48a12.01343,12.01343,0,0,1-12-12V48A12.01343,12.01343,0,0,1,48,36H208A12.01343,12.01343,0,0,1,220,48Zm-8,0a4.00427,4.00427,0,0,0-4-4H48a4.00427,4.00427,0,0,0-4,4V208a4.00427,4.00427,0,0,0,4,4H208a4.00427,4.00427,0,0,0,4-4Z"/>
</svg>
