<svg id="Flat" xmlns="http://www.w3.org/2000/svg" viewBox="0 0 256 256">
  <path d="M115.2373,84l-5.75,35.37793a32.26735,32.26735,0,0,1,37.09961,5.98926,32.05853,32.05853,0,0,1-45.40918,45.26562,3.99958,3.99958,0,0,1,5.64454-5.668,23.99868,23.99868,0,1,0,0-33.92871,3.99961,3.99961,0,0,1-6.77051-3.47558l7.835-48.20215A3.99918,3.99918,0,0,1,111.835,76H152a4,4,0,0,1,0,8ZM220,48V208a12.01312,12.01312,0,0,1-12,12H48a12.01312,12.01312,0,0,1-12-12V48A12.01312,12.01312,0,0,1,48,36H208A12.01312,12.01312,0,0,1,220,48Zm-8,0a4.004,4.004,0,0,0-4-4H48a4.004,4.004,0,0,0-4,4V208a4.004,4.004,0,0,0,4,4H208a4.004,4.004,0,0,0,4-4Z"/>
</svg>
