<svg id="Flat" xmlns="http://www.w3.org/2000/svg" viewBox="0 0 256 256">
  <path d="M146.63086,125.37305A31.99986,31.99986,0,0,1,101.376,170.62744a3.99992,3.99992,0,0,1,5.65625-5.65723A23.99985,23.99985,0,1,0,124.00293,124a4,4,0,0,1-3.27734-6.29346l23.59082-33.71435H103.99707a4,4,0,0,1,0-8h48a4,4,0,0,1,3.27734,6.29345L131.12988,116.7915A31.79081,31.79081,0,0,1,146.63086,125.37305ZM220,48V208a12.01343,12.01343,0,0,1-12,12H48a12.01343,12.01343,0,0,1-12-12V48A12.01343,12.01343,0,0,1,48,36H208A12.01343,12.01343,0,0,1,220,48Zm-8,0a4.00427,4.00427,0,0,0-4-4H48a4.00427,4.00427,0,0,0-4,4V208a4.00427,4.00427,0,0,0,4,4H208a4.00427,4.00427,0,0,0,4-4Z"/>
</svg>
