<svg id="Flat" xmlns="http://www.w3.org/2000/svg" viewBox="0 0 256 256">
  <path d="M208,36H48A12.01312,12.01312,0,0,0,36,48V208a12.01312,12.01312,0,0,0,12,12H208a12.01312,12.01312,0,0,0,12-12V48A12.01312,12.01312,0,0,0,208,36Zm4,172a4.004,4.004,0,0,1-4,4H48a4.004,4.004,0,0,1-4-4V48a4.004,4.004,0,0,1,4-4H208a4.004,4.004,0,0,1,4,4ZM128,80a32,32,0,1,0,9.75269,62.4751l-21.18726,35.47412a4.00025,4.00025,0,1,0,6.86914,4.10156l32.249-53.99512c.03736-.0625.05713-.12988.09058-.19384A31.97516,31.97516,0,0,0,128,80Zm-24,32a24,24,0,1,1,24,24A24.0275,24.0275,0,0,1,104,112Z"/>
</svg>
