<svg id="Flat" xmlns="http://www.w3.org/2000/svg" viewBox="0 0 256 256">
  <path d="M79.999,228.00024a4.0033,4.0033,0,0,1-3.10644-6.52319L164.542,104.51892A43.99645,43.99645,0,0,0,136.87207,36.894a44.67155,44.67155,0,0,0-17.74414,0,43.742,43.742,0,0,0-15.72559,6.618A44.12422,44.12422,0,0,0,87.457,62.87378a4.00023,4.00023,0,0,1-7.36914-3.115A51.9823,51.9823,0,0,1,117.52441,29.0564a52.71255,52.71255,0,0,1,20.95118,0,51.73081,51.73081,0,0,1,18.60058,7.82678,52.12225,52.12225,0,0,1,18.83594,22.87561,51.726,51.726,0,0,1,3.03125,9.76648,52.45364,52.45364,0,0,1,0,20.95068,51.76533,51.76533,0,0,1-7.82617,18.6001c-.03614.0542-.07422.10767-.11328.16l-82.999,110.75245H176a4,4,0,0,1,0,8H80.30469C80.20312,227.99634,80.10156,228.00024,79.999,228.00024Z"/>
</svg>
