<svg id="Flat" xmlns="http://www.w3.org/2000/svg" viewBox="0 0 256 256">
  <path d="M115.30566,83.99609,109.582,119.36133a32.00907,32.00907,0,1,1-8.31055,51.26562,4.00026,4.00026,0,0,1,5.65625-5.6582,24.00049,24.00049,0,1,0,0-33.94043,4,4,0,0,1-6.77636-3.46777l7.80175-48.20313a3.99936,3.99936,0,0,1,3.94825-3.36133h39.99707a4,4,0,0,1,0,8ZM220,48V208a12.01312,12.01312,0,0,1-12,12H48a12.01312,12.01312,0,0,1-12-12V48A12.01312,12.01312,0,0,1,48,36H208A12.01312,12.01312,0,0,1,220,48Zm-8,0a4.004,4.004,0,0,0-4-4H48a4.004,4.004,0,0,0-4,4V208a4.004,4.004,0,0,0,4,4H208a4.004,4.004,0,0,0,4-4Z"/>
</svg>
