<svg id="Flat" xmlns="http://www.w3.org/2000/svg" viewBox="0 0 256 256">
  <path d="M128,76c-11.6416,0-21.2207,5.87305-27.70312,16.9834C94.94629,102.15332,92,114.58984,92,128c0,13.40918,2.94629,25.84473,8.29688,35.01563C106.7793,174.127,116.3584,180,128,180s21.2207-5.87305,27.70313-16.98437C161.05371,153.84473,164,141.40918,164,128c0-13.41016-2.94629-25.84668-8.29687-35.0166C149.2207,81.87305,139.6416,76,128,76Zm0,96c-19.3418,0-28-22.09863-28-44s8.6582-44,28-44,28,22.09863,28,44S147.3418,172,128,172Zm0-144A100,100,0,1,0,228,128,100.1127,100.1127,0,0,0,128,28Zm0,192a92,92,0,1,1,92-92A92.10478,92.10478,0,0,1,128,220Z"/>
</svg>
