<svg id="Flat" xmlns="http://www.w3.org/2000/svg" viewBox="0 0 256 256">
  <path d="M217.90381,70.2207l-84-47.47754a12.06082,12.06082,0,0,0-11.80957-.00048l-84,47.47851A12.01793,12.01793,0,0,0,31.999,80.66748v94.665a12.0193,12.0193,0,0,0,6.09522,10.44678l84,47.47754a12.06167,12.06167,0,0,0,11.80957.00048l84-47.47851a12.01794,12.01794,0,0,0,6.09521-10.44629v-94.665A12.01931,12.01931,0,0,0,217.90381,70.2207ZM215.999,175.33252a4.005,4.005,0,0,1-2.03173,3.48193L129.9668,226.293a4.01854,4.01854,0,0,1-3.936-.00049L42.03125,178.81494a4.0058,4.0058,0,0,1-2.03223-3.48242v-94.665a4.005,4.005,0,0,1,2.03174-3.48193L126.03125,29.707a4.01851,4.01851,0,0,1,3.936.00049L213.9668,77.18506a4.00581,4.00581,0,0,1,2.03222,3.48242ZM127.999,88a40,40,0,1,0,40,40A40.04521,40.04521,0,0,0,127.999,88Zm0,72a32,32,0,1,1,32-32A32.036,32.036,0,0,1,127.999,160Z"/>
</svg>
