<svg xmlns="http://www.w3.org/2000/svg" viewBox="0 0 256 256"><path d="M217.9,70.2l-84-47.5a12.4,12.4,0,0,0-11.8,0l-84,47.5A11.9,11.9,0,0,0,32,80.7v94.6a12,12,0,0,0,6.1,10.5l84,47.5a12.4,12.4,0,0,0,11.8,0l84-47.5a12,12,0,0,0,6.1-10.5V80.7A11.9,11.9,0,0,0,217.9,70.2ZM216,175.3a4,4,0,0,1-2,3.5l-84,47.5a4.1,4.1,0,0,1-4,0L42,178.8a4,4,0,0,1-2-3.5V80.7a4,4,0,0,1,2-3.5l84-47.5a4.3,4.3,0,0,1,4,0l84,47.5a4,4,0,0,1,2,3.5ZM128,88a40,40,0,1,0,40,40A40,40,0,0,0,128,88Zm0,72a32,32,0,1,1,32-32A32.1,32.1,0,0,1,128,160Z"/></svg>