<svg id="Flat" xmlns="http://www.w3.org/2000/svg" viewBox="0 0 256 256">
  <path d="M172,140a8,8,0,1,1-8,8A7.99993,7.99993,0,0,1,172,140Zm37.45361,24.32227A83.9835,83.9835,0,0,1,94.68262,221.125a3.95514,3.95514,0,0,1-.79956-.3623,84.19971,84.19971,0,0,1-49.19629-65.65528,3.953,3.953,0,0,1-.08106-.63574A83.37844,83.37844,0,0,1,60.15063,94.46,32.00779,32.00779,0,0,1,70,32a3.993,3.993,0,0,1,1.73877.398L186.88184,87.98389A24,24,0,0,0,186,40a4,4,0,0,1,0-8,32,32,0,0,1,0,64,3.993,3.993,0,0,1-1.73877-.39795l-57.134-27.58154A76.07637,76.07637,0,0,0,51.92969,144q0,1.98486.102,3.9458l74.01562-39.4751A3.99963,3.99963,0,0,1,131.92969,112V219.88477a75.81929,75.81929,0,0,0,69.76025-57.4917,3.99989,3.99989,0,1,1,7.76367,1.9292ZM65.72656,87.6084a83.957,83.957,0,0,1,47.50781-26.29492L69.11816,40.01611a23.99557,23.99557,0,0,0-3.3916,47.59229Zm58.20313,31.0581-24,12.8003v83.165a75.43055,75.43055,0,0,0,24,5.26171Zm-32,92.248V135.7334L52.97705,156.5083A76.20206,76.20206,0,0,0,91.92969,210.91455Z"/>
</svg>
