<svg xmlns="http://www.w3.org/2000/svg" viewBox="0 0 256 256"><path d="M164.5,228h-73a11.5,11.5,0,0,1-8.4-3.5L31.5,172.9a11.5,11.5,0,0,1-3.5-8.4v-73a11.5,11.5,0,0,1,3.5-8.4L83.1,31.5A11.5,11.5,0,0,1,91.5,28h73a11.5,11.5,0,0,1,8.4,3.5l51.6,51.6a11.5,11.5,0,0,1,3.5,8.4v73a11.5,11.5,0,0,1-3.5,8.4l-51.6,51.6A11.5,11.5,0,0,1,164.5,228ZM91.5,36a3.9,3.9,0,0,0-2.8,1.2L37.2,88.7A3.9,3.9,0,0,0,36,91.5v73a3.9,3.9,0,0,0,1.2,2.8l51.5,51.5a3.9,3.9,0,0,0,2.8,1.2h73a3.9,3.9,0,0,0,2.8-1.2l51.5-51.5a3.9,3.9,0,0,0,1.2-2.8v-73a3.9,3.9,0,0,0-1.2-2.8L167.3,37.2a3.9,3.9,0,0,0-2.8-1.2Z"/></svg>