<svg id="Flat" xmlns="http://www.w3.org/2000/svg" viewBox="0 0 256 256">
  <path d="M164.45081,228H91.54919a11.92111,11.92111,0,0,1-8.48535-3.51489L31.51465,172.936A11.92138,11.92138,0,0,1,28,164.45068V91.54932A11.92138,11.92138,0,0,1,31.51465,83.064L83.06384,31.51489A11.92111,11.92111,0,0,1,91.54919,28h72.90162a11.92111,11.92111,0,0,1,8.48535,3.51489L224.48535,83.064A11.92138,11.92138,0,0,1,228,91.54932v72.90136a11.92138,11.92138,0,0,1-3.51465,8.48536l-51.54919,51.54907A11.92111,11.92111,0,0,1,164.45081,228ZM91.54919,36a3.97317,3.97317,0,0,0-2.82836,1.17163L37.17151,88.7207A3.97415,3.97415,0,0,0,36,91.54932v72.90136a3.97415,3.97415,0,0,0,1.17151,2.82862l51.54932,51.54907A3.97317,3.97317,0,0,0,91.54919,220h72.90162a3.97317,3.97317,0,0,0,2.82836-1.17163l51.54932-51.54907A3.97415,3.97415,0,0,0,220,164.45068V91.54932a3.97415,3.97415,0,0,0-1.17151-2.82862L167.27917,37.17163A3.97317,3.97317,0,0,0,164.45081,36Z"/>
</svg>
