<svg id="Flat" xmlns="http://www.w3.org/2000/svg" viewBox="0 0 256 256">
  <path d="M226.40478,72.71875c-.012-.02246-.01758-.0459-.03-.06836l-.01342-.01855a11.98985,11.98985,0,0,0-4.47876-4.41211l-88-49.5a12.06937,12.06937,0,0,0-11.76563,0l-88,49.5a11.99943,11.99943,0,0,0-4.48492,4.4248c-.00531.00977-.01276.0166-.018.02637-.01343.02392-.01916.0498-.032.07373a11.98451,11.98451,0,0,0-1.58222,5.93408v98.64258a12.01654,12.01654,0,0,0,6.11719,10.459l88,49.5a11.97648,11.97648,0,0,0,5.61182,1.51368c.08325.00585.16211.02636.24658.02734h.03613c.10059,0,.19507-.022.29395-.0293a11.97814,11.97814,0,0,0,5.57715-1.51172l88-49.5a12.01422,12.01422,0,0,0,6.11718-10.459V78.67871A11.98628,11.98628,0,0,0,226.40478,72.71875Zm-100.366-47.02637a4.02315,4.02315,0,0,1,3.92187,0l85.91113,48.3252L177.1521,96.01465,88.22,46.96582Zm2.89062,97.71826L40.18921,73.98291,80.019,51.57861l88.97339,49.07178Zm-90.89062,57.397a4.00512,4.00512,0,0,1-2.03907-3.48633V80.80615l88.92835,49.53272-.86853,98.85547Zm179.92187,0-85.8999,48.31884.86792-98.7871,40.0935-22.77784v44.94922a4,4,0,0,0,8,0V103.0166l38.97754-22.14355v96.44824A4.00455,4.00455,0,0,1,217.96069,180.80762Z"/>
</svg>
