<svg xmlns="http://www.w3.org/2000/svg" viewBox="0 0 256 256"><path d="M226.5,72.7h0a12.7,12.7,0,0,0-4.5-4.4L134,18.7a12.4,12.4,0,0,0-11.8,0l-88,49.5a12.7,12.7,0,0,0-4.5,4.4h0a12.5,12.5,0,0,0-1.6,6v98.6a12.2,12.2,0,0,0,6.1,10.5l88,49.5a11.5,11.5,0,0,0,5.6,1.5h.6a13.7,13.7,0,0,0,5.6-1.5l88-49.5a11.9,11.9,0,0,0,6.1-10.5V78.7A12.5,12.5,0,0,0,226.5,72.7Zm-100.3-47a4.1,4.1,0,0,1,1.9-.5,4.6,4.6,0,0,1,2,.5L216,74,177.3,96l-89-49Zm2.8,97.7L40.3,74,80.1,51.6l89,49.1ZM38.2,180.8a3.9,3.9,0,0,1-2.1-3.5V80.8L125,130.3l-.8,98.9Zm179.9,0-85.9,48.3.8-98.8,40.1-22.7v44.9a4,4,0,0,0,8,0V103l39-22.1v96.4A4,4,0,0,1,218.1,180.8Z"/></svg>