<svg id="Flat" xmlns="http://www.w3.org/2000/svg" viewBox="0 0 256 256">
  <path d="M232,92H212V64a12.01312,12.01312,0,0,0-12-12H48A12.01312,12.01312,0,0,0,36,64V92H16a4,4,0,0,0,0,8H36v28a12.01312,12.01312,0,0,0,12,12H200a12.01312,12.01312,0,0,0,12-12V100h20a4.004,4.004,0,0,1,4,4v49.96582a4.01867,4.01867,0,0,1-2.90039,3.84668L132.70215,186.49609A12.05015,12.05015,0,0,0,124,198.03418V232a4,4,0,0,0,8,0V198.03418a4.01867,4.01867,0,0,1,2.90039-3.84668l100.39746-28.68359A12.05015,12.05015,0,0,0,244,153.96582V104A12.01312,12.01312,0,0,0,232,92Zm-28,36a4.004,4.004,0,0,1-4,4H48a4.004,4.004,0,0,1-4-4V64a4.004,4.004,0,0,1,4-4H200a4.004,4.004,0,0,1,4,4Z"/>
</svg>
