<svg xmlns="http://www.w3.org/2000/svg" viewBox="0 0 256 256"><path d="M227,123.5a4.5,4.5,0,0,0-1.2-2.9L118.3,13.2a3.9,3.9,0,0,0-5.6,0l-43,42.9L40.7,27A4,4,0,0,0,35,32.7l29.1,29L16.5,109.3a20,20,0,0,0,0,28.3l84.8,84.9a20.2,20.2,0,0,0,28.3,0l96.2-96.2A4.2,4.2,0,0,0,227,123.5ZM124,216.8a12.1,12.1,0,0,1-17,0L22.1,132a12.2,12.2,0,0,1,0-17L69.7,67.4l34.8,34.7A24,24,0,0,0,107,133a24.1,24.1,0,0,0,34,0h0a24,24,0,0,0-30.9-36.5L75.4,61.7l40.1-40L217.3,123.5ZM124,100a16,16,0,1,1-11.3,4.7A16,16,0,0,1,124,100Zm106.8,61.2a3.9,3.9,0,0,0-5.6,0c-.9.8-21.2,21.4-21.2,42.8a24,24,0,0,0,48,0C252,182.6,231.7,162,230.8,161.2ZM228,220a16,16,0,0,1-16-16c0-13.7,10.7-27.9,16-34.1,5.3,6.2,16,20.4,16,34.1A16,16,0,0,1,228,220Z"/></svg>