<svg id="Flat" xmlns="http://www.w3.org/2000/svg" viewBox="0 0 256 256">
  <path d="M208,28H72A36.04061,36.04061,0,0,0,36,64v80a12.01343,12.01343,0,0,0,12,12h59.3877L100.04,207.43457A4.05553,4.05553,0,0,0,100,208a28,28,0,0,0,56,0,4.05553,4.05553,0,0,0-.04-.56543L148.6123,156H208a12.01343,12.01343,0,0,0,12-12V40A12.01343,12.01343,0,0,0,208,28ZM72,36h92V72a4,4,0,0,0,8,0V36h36a4.00427,4.00427,0,0,1,4,4v68H44V64A28.03146,28.03146,0,0,1,72,36Zm75.99805,172.27148a19.99989,19.99989,0,0,1-39.9961,0L115.46924,156h25.06152ZM208,148H48a4.00427,4.00427,0,0,1-4-4V116H212v28A4.00427,4.00427,0,0,1,208,148Z"/>
</svg>
