<svg id="Flat" xmlns="http://www.w3.org/2000/svg" viewBox="0 0 256 256">
  <path d="M226.96484,123.48437a4.00164,4.00164,0,0,0-1.17187-2.82861L118.30859,13.17139a4.0003,4.0003,0,0,0-5.65625,0L69.73706,56.08667,40.68555,27.03516a3.99992,3.99992,0,0,0-5.65625,5.65722l29.051,29.051-47.595,47.595a20.02281,20.02281,0,0,0,0,28.28418L101.34277,222.479a19.998,19.998,0,0,0,28.28321.00049l96.167-96.1665A4.00164,4.00164,0,0,0,226.96484,123.48437ZM123.96973,216.82275a11.99976,11.99976,0,0,1-16.97071-.00048L22.1416,131.96582a12.0157,12.0157,0,0,1,0-16.9707L69.73694,67.3999l34.7196,34.71973a23.98817,23.98817,0,0,0,36.51416,30.85693v-.00049A23.986,23.986,0,0,0,110.113,96.46265L75.39368,61.74316l40.08679-40.08642L217.30762,123.48437ZM124,100.01318a15.99292,15.99292,0,1,1-11.31445,4.6792A15.955,15.955,0,0,1,124,100.01318Zm106.8291,61.15869a4.00091,4.00091,0,0,0-5.6582,0C224.30664,162.03662,204,182.59521,204,204a24,24,0,0,0,48,0C252,182.59521,231.69336,162.03662,230.8291,161.17187ZM228,220a16.01833,16.01833,0,0,1-16-16c0-13.71826,10.74316-27.92188,16-34.05078,5.25781,6.12988,16,20.33252,16,34.05078A16.01833,16.01833,0,0,1,228,220Z"/>
</svg>
