<svg id="Flat" xmlns="http://www.w3.org/2000/svg" viewBox="0 0 256 256">
  <path d="M228.9707,31.0293a4.00019,4.00019,0,0,0-4-4c-34.24365,0-70.457,33.03906-94.8623,60.83593a3.93076,3.93076,0,0,0-.29.33106c-7.544,8.61279-13.94824,16.706-18.79492,23.13574A55.99567,55.99567,0,0,0,36,164c0,33.43555-17.74414,48.2627-18.51074,48.88574A4.00024,4.00024,0,0,0,20,220H92a55.99567,55.99567,0,0,0,52.668-75.02344c6.42871-4.84619,14.52-11.249,23.13135-18.792a3.9779,3.9779,0,0,0,.34033-.29736C195.93506,101.48145,228.9707,65.27051,228.9707,31.0293ZM92,212H29.12891C35.45215,203.751,44,188.13672,44,164a48,48,0,1,1,48,48Zm26.51758-97.31006c4.3208-5.68506,9.46777-12.14941,15.2793-18.91015a80.2411,80.2411,0,0,1,26.42333,26.42333c-6.76074,5.811-13.22509,10.958-18.91015,15.2793A56.39659,56.39659,0,0,0,118.51758,114.68994Zm47.7876,2.16651a88.2,88.2,0,0,0-27.16163-27.16163,297.89617,297.89617,0,0,1,22.709-22.81982c21.83789-19.53711,41.63867-30.16992,58.93555-31.66309-1.49317,17.2959-12.126,37.09766-31.66211,58.93457A298.18827,298.18827,0,0,1,166.30518,116.85645Z"/>
</svg>
