<svg xmlns="http://www.w3.org/2000/svg" viewBox="0 0 256 256"><path d="M229,31a4,4,0,0,0-4-4c-34.3,0-70.5,33.1-94.9,60.9l-.3.3c-7.5,8.6-13.9,16.7-18.8,23.1A56.1,56.1,0,0,0,36,164c0,33.4-17.7,48.3-18.5,48.9A4,4,0,0,0,20,220H92a56.1,56.1,0,0,0,52.7-75c6.4-4.9,14.5-11.3,23.1-18.8l.3-.3C195.9,101.5,229,65.3,229,31ZM92,212H29.1c6.4-8.2,14.9-23.9,14.9-48a48,48,0,1,1,48,48Zm26.5-97.3c4.3-5.7,9.5-12.2,15.3-18.9a79.3,79.3,0,0,1,26.4,26.4c-6.7,5.8-13.2,11-18.9,15.3A55.6,55.6,0,0,0,118.5,114.7Zm47.8,2.2a86.2,86.2,0,0,0-27.2-27.2,288.5,288.5,0,0,1,22.8-22.8c21.8-19.6,41.6-30.2,58.9-31.7-1.5,17.3-12.1,37.1-31.7,58.9A288.5,288.5,0,0,1,166.3,116.9Z"/></svg>