<svg xmlns="http://www.w3.org/2000/svg" viewBox="0 0 256 256"><path d="M216,28H72A36,36,0,0,0,36,64v72a20.1,20.1,0,0,0,20,20h46.8a3.9,3.9,0,0,1,3,1.4,3.7,3.7,0,0,1,.9,3.2L100,207.4v.6a28,28,0,0,0,56,0v-.6l-6.7-46.8a3.7,3.7,0,0,1,.9-3.2,3.9,3.9,0,0,1,3-1.4H200a20.1,20.1,0,0,0,20-20V32A4,4,0,0,0,216,28ZM72,36H180V80a4,4,0,0,0,8,0V36h24v72H44V64A28.1,28.1,0,0,1,72,36ZM200,148H153.2a11.8,11.8,0,0,0-9,4.1,12.5,12.5,0,0,0-2.9,9.6l6.7,46.6a20,20,0,0,1-40,0l6.7-46.6a12.5,12.5,0,0,0-2.9-9.6,11.8,11.8,0,0,0-9-4.1H56a12,12,0,0,1-12-12V116H212v20A12,12,0,0,1,200,148Z"/></svg>