<svg id="Flat" xmlns="http://www.w3.org/2000/svg" viewBox="0 0 256 256">
  <path d="M227.79883,28.20117a28.03349,28.03349,0,0,0-39.59766,0c-.05078.05078-.10058.10254-.14844.15625L133.15039,89.53125a4.00026,4.00026,0,0,1-5.80566.15723l-9.20313-9.20313a20.01985,20.01985,0,0,0-28.2832,0L13.17188,157.17188a3.99853,3.99853,0,0,0,0,5.65624l80,80a3.99852,3.99852,0,0,0,5.65624,0l76.68653-76.68652a20.02163,20.02163,0,0,0,0-28.2832l-9.20313-9.20313a4.00026,4.00026,0,0,1,.15723-5.80566l61.17383-54.90234c.05371-.04786.10547-.09766.15625-.14844A28.03171,28.03171,0,0,0,227.79883,28.20117ZM96,234.34277,76.22119,214.564,104.584,186.20215a3.99957,3.99957,0,0,0-5.65625-5.65625L70.56494,208.90771,48.22119,186.564,76.584,158.20215a3.99957,3.99957,0,0,0-5.65625-5.65625L42.56494,180.90771,21.65723,160,72,109.65625,146.34375,184ZM222.21484,62.06934,161.125,116.89648a11.99854,11.99854,0,0,0-.46973,17.415l9.20313,9.20313a12.00033,12.00033,0,0,1,0,16.9707L152,178.34375,77.65625,104l17.8584-17.8584a12.00033,12.00033,0,0,1,16.9707,0l9.20313,9.20313a11.99854,11.99854,0,0,0,17.415-.46973l54.82714-61.08984a20.0002,20.0002,0,0,1,28.28418,28.28418Z"/>
</svg>
