<svg xmlns="http://www.w3.org/2000/svg" viewBox="0 0 256 256"><path d="M227.8,28.2a28.1,28.1,0,0,0-39.6,0c0,.1-.1.1-.1.2L133.2,89.5a4.2,4.2,0,0,1-2.9,1.4,4.1,4.1,0,0,1-3-1.2l-9.2-9.2a19.9,19.9,0,0,0-28.2,0L13.2,157.2a3.9,3.9,0,0,0,0,5.6l80,80a3.9,3.9,0,0,0,5.6,0l76.7-76.7a19.9,19.9,0,0,0,0-28.2l-9.2-9.2a4,4,0,0,1,.2-5.9l61.1-54.9h.2A28.1,28.1,0,0,0,227.8,28.2ZM96,234.3,76.2,214.6l28.4-28.4a4,4,0,0,0-5.7-5.7L70.6,208.9,48.2,186.6l28.4-28.4a4,4,0,0,0-5.7-5.7L42.6,180.9,21.7,160,72,109.7,146.3,184ZM222.2,62.1l-61.1,54.8a12.2,12.2,0,0,0-4,8.6,12.1,12.1,0,0,0,3.6,8.8l9.2,9.2a12.1,12.1,0,0,1,0,17L152,178.3,77.7,104,95.5,86.1a12.1,12.1,0,0,1,17,0l9.2,9.2a11.7,11.7,0,0,0,8.8,3.6,12.2,12.2,0,0,0,8.6-4l54.8-61.1a20,20,0,0,1,28.3,28.3Z"/></svg>