<svg id="Flat" xmlns="http://www.w3.org/2000/svg" viewBox="0 0 256 256">
  <path d="M216.68652,124a11.921,11.921,0,0,0-3.51562-8.48535l-84.68555-84.687a12.01658,12.01658,0,0,0-16.9707.00048L79.99658,62.34619l-27.311-27.311a3.99992,3.99992,0,0,0-5.65625,5.65722L74.34,68.00293,18.8291,123.51416a11.99858,11.99858,0,0,0,0,16.97119l84.68555,84.68652v.00049a12.01627,12.01627,0,0,0,16.9707-.00049l92.68555-92.686A11.92292,11.92292,0,0,0,216.68652,124Zm-9.17187,2.82812-92.68555,92.686a4.00621,4.00621,0,0,1-5.6582,0v.00049l-84.68555-84.687a3.998,3.998,0,0,1,0-5.65577L79.997,73.66016l28.45959,28.45947a23.98817,23.98817,0,0,0,36.51416,30.85693v-.00049A23.986,23.986,0,0,0,114.113,96.46265L85.65356,68.00317,117.1709,36.48584a4.00532,4.00532,0,0,1,5.6582-.00049l84.68555,84.687a3.998,3.998,0,0,1,0,5.65576ZM128,100.01318a15.99292,15.99292,0,1,1-11.31445,4.6792A15.955,15.955,0,0,1,128,100.01318Zm102.8291,53.15869a4.00091,4.00091,0,0,0-5.6582,0C224.30664,154.03662,204,174.59521,204,196a24,24,0,0,0,48,0C252,174.59521,231.69336,154.03662,230.8291,153.17187ZM228,212a16.01833,16.01833,0,0,1-16-16c0-13.71826,10.74316-27.92188,16-34.05078,5.25781,6.12988,16,20.33252,16,34.05078A16.01833,16.01833,0,0,1,228,212Z"/>
</svg>
