<svg id="Flat" xmlns="http://www.w3.org/2000/svg" viewBox="0 0 256 256">
  <path d="M197.96973,56.74414A99.3061,99.3061,0,0,0,127.99609,28q-.51123,0-1.02392.00488a100.01648,100.01648,0,0,0-32.28028,194.3125,28.1927,28.1927,0,0,0,9.39991,1.63086A28.08333,28.08333,0,0,0,132,195.90234V192a20.0226,20.0226,0,0,1,20-20h46.20947a27.84048,27.84048,0,0,0,27.30469-21.75879,100.52047,100.52047,0,0,0,2.48242-23.09863A99.23463,99.23463,0,0,0,197.96973,56.74414Zm19.74365,91.72363A19.88158,19.88158,0,0,1,198.20947,164H152a28.03146,28.03146,0,0,0-28,28v3.90234a20.0021,20.0021,0,0,1-26.644,18.87207A92.01452,92.01452,0,0,1,127.05322,36.00488q.47022-.0044.94092-.00488a92.33054,92.33054,0,0,1,92.00244,91.209A92.53491,92.53491,0,0,1,217.71338,148.46777ZM136,76a8,8,0,1,1-8-8A7.99993,7.99993,0,0,1,136,76ZM89.8938,105.99951a7.99882,7.99882,0,1,1-2.92774-10.92676A7.9985,7.9985,0,0,1,89.8938,105.99951Zm0,44.001a7.99882,7.99882,0,1,1-10.92651-2.92774A7.99852,7.99852,0,0,1,89.8938,150.00049Zm90.06665-52a7.99882,7.99882,0,1,1-10.92651-2.92774A7.99852,7.99852,0,0,1,179.96045,98.00049Z"/>
</svg>
