<svg xmlns="http://www.w3.org/2000/svg" viewBox="0 0 256 256"><path d="M198,56.7A99.7,99.7,0,0,0,128,28h-1A100,100,0,0,0,94.7,222.3a28.1,28.1,0,0,0,25.5-3.5A27.8,27.8,0,0,0,132,195.9V192a20.1,20.1,0,0,1,20-20h46.2a27.7,27.7,0,0,0,27.3-21.8A99.7,99.7,0,0,0,198,56.7Zm19.7,91.8A19.9,19.9,0,0,1,198.2,164H152a28.1,28.1,0,0,0-28,28v3.9a20.1,20.1,0,0,1-26.6,18.9A92,92,0,0,1,62.6,63.3,91.2,91.2,0,0,1,127.1,36h.9a92.4,92.4,0,0,1,92,91.2A89.7,89.7,0,0,1,217.7,148.5ZM136,76a8,8,0,1,1-8-8A8,8,0,0,1,136,76ZM89.9,106A8,8,0,0,1,76,98a8.1,8.1,0,0,1,11-2.9A8,8,0,0,1,89.9,106Zm0,44A8,8,0,0,1,87,160.9,8.1,8.1,0,0,1,76,158a8,8,0,0,1,13.9-8ZM180,98a8,8,0,1,1-11-2.9A8.1,8.1,0,0,1,180,98Z"/></svg>