<svg id="Flat" xmlns="http://www.w3.org/2000/svg" viewBox="0 0 256 256">
  <path d="M232.94409,203.4248l-94.5918-168.915a12.00111,12.00111,0,0,0-20.9414,0l-94.5918,168.915a12,12,0,0,0,14.50683,17.16407l89.21094-31.86133a4.00732,4.00732,0,0,1,2.68946.00049l89.21093,31.86084a12.13438,12.13438,0,0,0,4.085.71386,12.01653,12.01653,0,0,0,10.42188-17.87793Zm-7.415,8.44532a3.90817,3.90817,0,0,1-4.40039,1.18506l-89.21094-31.86084c-.012-.0044-.02417-.00733-.03613-.01123V120a4,4,0,1,0-8,0v61.18262c-.012.00439-.02417.00683-.03613.01123L34.63452,213.05518a3.99987,3.99987,0,0,1-4.835-5.72168L124.39135,38.419a4.00006,4.00006,0,0,1,6.98047,0l94.5918,168.915A3.90524,3.90524,0,0,1,225.52905,211.87012Z"/>
</svg>
