<svg id="Flat" xmlns="http://www.w3.org/2000/svg" viewBox="0 0 256 256">
  <path d="M221.48926,117.5293,52.5752,22.9375A12,12,0,0,0,35.41113,37.44434l31.86133,89.21093a4.0103,4.0103,0,0,1,0,2.68946L35.41113,218.55664A11.98316,11.98316,0,0,0,52.5752,233.0625l168.91406-94.5918a12.00111,12.00111,0,0,0,0-20.9414Zm-3.90821,13.96093L48.667,226.082a4.0004,4.0004,0,0,1-5.72265-4.835l31.86132-89.21191L74.81641,132H136a4,4,0,0,0,0-8H74.81689c-.00439-.012-.00683-.02417-.01123-.03613l-31.86132-89.21a3.90553,3.90553,0,0,1,1.18554-4.40137A4.11854,4.11854,0,0,1,46.707,29.377a3.97483,3.97483,0,0,1,1.96.541l168.91406,94.5918a4.001,4.001,0,0,1,0,6.98046Z"/>
</svg>
