<svg id="Flat" xmlns="http://www.w3.org/2000/svg" viewBox="0 0 256 256">
  <path d="M206.82422,125.169a3.999,3.999,0,0,1-.00342,5.65625l-82.05322,81.94628a52,52,0,0,1-73.53711-73.541l99.28808-100.6709A35.99962,35.99962,0,1,1,201.4502,89.4502L102.16162,190.12207A19.99943,19.99943,0,1,1,73.8584,161.8584l83.28418-84.668a3.99971,3.99971,0,1,1,5.70312,5.60937L79.53809,167.49121a11.99995,11.99995,0,1,0,16.94677,16.99414L195.77344,83.81348a27.99978,27.99978,0,1,0-39.57813-39.61719L56.90723,144.86719a44.00013,44.00013,0,1,0,62.20507,62.24609L201.16748,125.165A3.99825,3.99825,0,0,1,206.82422,125.169Z"/>
</svg>
