<svg xmlns="http://www.w3.org/2000/svg" viewBox="0 0 256 256"><path d="M228,120a100,100,0,0,0-200,0,3.9,3.9,0,0,0,1.6,3.2h0L124,194v26H112a4,4,0,0,0,0,8h32a4,4,0,0,0,0-8H132V194l94.4-70.8h0A3.9,3.9,0,0,0,228,120Zm-8.1-4H172c-1-48.6-19.9-75.1-32-87.2A92.1,92.1,0,0,1,219.9,116ZM128,28.9a76.2,76.2,0,0,1,16.9,18.7c8.4,12.7,18.3,34.8,19.1,68.4H92c.8-33.6,10.7-55.7,19.1-68.4A74.3,74.3,0,0,1,128,28.9ZM161.2,124,128,183.8,94.8,124Zm-75.6,0,29.8,53.5L44,124Zm84.8,0H212l-71.4,53.5ZM116,28.8C103.9,40.9,85,67.4,84,116H36.1A92.1,92.1,0,0,1,116,28.8Z"/></svg>