<svg xmlns="http://www.w3.org/2000/svg" viewBox="0 0 256 256"><path d="M44,56V200a4,4,0,0,1-8,0V56a4,4,0,0,1,8,0Zm89.2,58.3L108,122.5V96a4,4,0,0,0-8,0v26.5l-25.2-8.2a4,4,0,0,0-2.5,7.6l25.2,8.2L82,151.5a4.1,4.1,0,0,0,.8,5.6,4.3,4.3,0,0,0,2.4.8,4,4,0,0,0,3.2-1.7L104,134.8l15.6,21.4a4,4,0,0,0,3.2,1.7,4.3,4.3,0,0,0,2.4-.8,4.1,4.1,0,0,0,.8-5.6l-15.5-21.4,25.2-8.2a4,4,0,0,0-2.5-7.6Zm101,2.6a3.9,3.9,0,0,0-5-2.6L204,122.5V96a4,4,0,0,0-8,0v26.5l-25.2-8.2a4,4,0,0,0-2.5,7.6l25.2,8.2L178,151.5a4.1,4.1,0,0,0,.8,5.6,4.3,4.3,0,0,0,2.4.8,4,4,0,0,0,3.2-1.7L200,134.8l15.6,21.4a4,4,0,0,0,3.2,1.7,4.3,4.3,0,0,0,2.4-.8,4.1,4.1,0,0,0,.8-5.6l-15.5-21.4,25.2-8.2A3.9,3.9,0,0,0,234.2,116.9Z"/></svg>