<svg id="Flat" xmlns="http://www.w3.org/2000/svg" viewBox="0 0 256 256">
  <path d="M208,36H160a12.01343,12.01343,0,0,0-12,12V208a12.01343,12.01343,0,0,0,12,12h48a12.01343,12.01343,0,0,0,12-12V48A12.01343,12.01343,0,0,0,208,36Zm4,172a4.00427,4.00427,0,0,1-4,4H160a4.00427,4.00427,0,0,1-4-4V48a4.00427,4.00427,0,0,1,4-4h48a4.00427,4.00427,0,0,1,4,4ZM96,36H48A12.01343,12.01343,0,0,0,36,48V208a12.01343,12.01343,0,0,0,12,12H96a12.01343,12.01343,0,0,0,12-12V48A12.01343,12.01343,0,0,0,96,36Zm4,172a4.00427,4.00427,0,0,1-4,4H48a4.00427,4.00427,0,0,1-4-4V48a4.00427,4.00427,0,0,1,4-4H96a4.00427,4.00427,0,0,1,4,4Z"/>
</svg>
