<svg id="Flat" xmlns="http://www.w3.org/2000/svg" viewBox="0 0 256 256">
  <path d="M212,84a24,24,0,1,0,24,24A24.0275,24.0275,0,0,0,212,84Zm0,40a16,16,0,1,1,16-16A16.01833,16.01833,0,0,1,212,124ZM68,108a24,24,0,1,0-24,24A24.0275,24.0275,0,0,0,68,108ZM44,124a16,16,0,1,1,16-16A16.01833,16.01833,0,0,1,44,124ZM92,84A24,24,0,1,0,68,60,24.0275,24.0275,0,0,0,92,84Zm0-40A16,16,0,1,1,76,60,16.01833,16.01833,0,0,1,92,44Zm72,40a24,24,0,1,0-24-24A24.0275,24.0275,0,0,0,164,84Zm0-40a16,16,0,1,1-16,16A16.01833,16.01833,0,0,1,164,44Zm21.16016,108.34717a39.30645,39.30645,0,0,1-18.751-23.51123,39.99886,39.99886,0,0,0-76.81836-.00293,39.27961,39.27961,0,0,1-18.7334,23.50439,36.00712,36.00712,0,0,0,31.14746,64.83448,68.09023,68.09023,0,0,1,51.94532-.01856,36.00666,36.00666,0,0,0,31.21-64.80615ZM168,212a27.89064,27.89064,0,0,1-10.96973-2.22949,76.0984,76.0984,0,0,0-58.10547.01855A28.007,28.007,0,0,1,74.707,159.3501a47.26156,47.26156,0,0,0,22.56738-28.28467,31.99869,31.99869,0,0,1,61.45313.001A47.25311,47.25311,0,0,0,181.293,159.3501l.03515.01953A28.00374,28.00374,0,0,1,168,212Z"/>
</svg>
