<svg id="Flat" xmlns="http://www.w3.org/2000/svg" viewBox="0 0 256 256">
  <path d="M210.11377,185.00342a100.00011,100.00011,0,1,0-164.22754-.00025,3.85355,3.85355,0,0,0,.19873.35474c.06006.08594.13965.148.20557.22778a99.912,99.912,0,0,0,163.41894-.00024c.06592-.07959.14551-.1416.20557-.22754A4.00317,4.00317,0,0,0,210.11377,185.00342ZM220,128a91.45543,91.45543,0,0,1-14.437,49.42773L132,125.91821V36.09229A92.11,92.11,0,0,1,220,128ZM124,36.09229v89.82592L50.437,177.42773A91.95625,91.95625,0,0,1,124,36.09229ZM55.03809,183.97119,124,135.68359v84.22412A91.924,91.924,0,0,1,55.03809,183.97119ZM132,219.90771V135.68359l68.96191,48.2876A91.924,91.924,0,0,1,132,219.90771Z"/>
</svg>
