<svg id="Flat" xmlns="http://www.w3.org/2000/svg" viewBox="0 0 256 256">
  <path d="M127.88745,76a32,32,0,1,0-32-32A32.03635,32.03635,0,0,0,127.88745,76Zm0-56a24,24,0,1,1-24,24A24.02718,24.02718,0,0,1,127.88745,20Zm80.75586,122.13086L169.18725,91.40234a3.9765,3.9765,0,0,0-.3291-.373A23.84373,23.84373,0,0,0,151.88745,84h-48a23.84373,23.84373,0,0,0-16.9707,7.0293,3.978,3.978,0,0,0-.32911.373l-39.456,50.72852a16.00034,16.00034,0,0,0,22.625,22.62451L94.1687,145.76758l-23.77832,75.104a16.00011,16.00011,0,0,0,28.998,13.521l28.499-44.85352,28.499,44.85352a16.0001,16.0001,0,0,0,28.99805-13.521l-23.77832-75.104,24.41211,18.98779a16.00035,16.00035,0,0,0,22.625-22.62451Zm-5.84375,16.78076a8.01008,8.01008,0,0,1-11.31446,0,3.95847,3.95847,0,0,0-.37207-.32861l-34.74609-27.02539a4.00018,4.00018,0,0,0-6.26953,4.36474l27.7334,87.59424a4.08571,4.08571,0,0,0,.18847.48291,8.00043,8.00043,0,0,1-14.502,6.76172,4.02218,4.02218,0,0,0-.249-.45459l-32.00489-50.37109a3.99955,3.99955,0,0,0-6.75195,0L92.50659,230.30664a4.02218,4.02218,0,0,0-.249.45459,8.00043,8.00043,0,0,1-14.502-6.76172,4.0875,4.0875,0,0,0,.18848-.48291l27.7334-87.59424a4.00018,4.00018,0,0,0-6.26953-4.36474L64.66186,158.583a3.95973,3.95973,0,0,0-.37207.32861,8.00018,8.00018,0,0,1-11.31445-11.31348,4.03813,4.03813,0,0,0,.3291-.373L92.741,96.521A15.89129,15.89129,0,0,1,103.88745,92h48a15.89125,15.89125,0,0,1,11.14648,4.521l39.43653,50.7041a4.03813,4.03813,0,0,0,.3291.373,8.00063,8.00063,0,0,1,0,11.31348Z"/>
</svg>
