<svg id="Flat" xmlns="http://www.w3.org/2000/svg" viewBox="0 0 256 256">
  <path d="M217.208,97.86328a107.58588,107.58588,0,0,1-29.207-73.86279,4.001,4.001,0,0,0-4-4.00049H71.999a4.001,4.001,0,0,0-4,4.00049A107.57357,107.57357,0,0,1,38.6543,98.01025a3.99912,3.99912,0,0,0-.48633,4.85108l86.43359,139.248c.01636.02636.03662.04931.05347.07519.02954.04492.06226.0874.09351.13135a4.02,4.02,0,0,0,.36767.44531c.02881.03027.05493.062.08472.09131a4.00171,4.00171,0,0,0,.5166.42627c.043.02978.08765.05615.13184.08447a3.96878,3.96878,0,0,0,.51464.2793c.03736.01709.07251.03711.11048.05273a4.00421,4.00421,0,0,0,.64416.2002c.05567.01269.11157.02246.16822.03271A3.98,3.98,0,0,0,128,244h.00293a3.95843,3.95843,0,0,0,.71118-.07178c.0564-.01025.11206-.02051.16748-.03271a4.065,4.065,0,0,0,.64514-.2002c.03723-.01562.07154-.03564.10828-.05176a4.03762,4.03762,0,0,0,.51562-.28027c.04456-.02832.0896-.05517.13282-.085a4.016,4.016,0,0,0,.51733-.42725c.02869-.02783.05371-.05908.08154-.08789a4.03635,4.03635,0,0,0,.37012-.44873c.031-.04345.06348-.08545.0929-.13037.0177-.02734.03894-.05127.056-.07861l86.29-139.40039A4.00225,4.00225,0,0,0,217.208,97.86328ZM128,132a20,20,0,1,1,20-20A20.02229,20.02229,0,0,1,128,132Zm4,93.938V139.71a28,28,0,1,0-8,0v86.26123L46.56445,101.21924A115.47452,115.47452,0,0,0,75.93164,28h104.1377a115.49492,115.49492,0,0,0,29.22851,73.06494Z"/>
</svg>
