<svg id="Flat" xmlns="http://www.w3.org/2000/svg" viewBox="0 0 256 256">
  <path d="M216.4873,105.08789A107.68848,107.68848,0,0,1,188,32a4.0002,4.0002,0,0,0-4-4H72a4.0002,4.0002,0,0,0-4,4,107.68878,107.68878,0,0,1-28.4873,73.08838,4.00033,4.00033,0,0,0-.41407,4.88037l85.543,132.2041c.0083.01319.01856.02393.02686.03662.02087.03125.04516.05957.06689.09033a4.04118,4.04118,0,0,0,.37866.459c.03382.03516.06592.07129.10108.10547a3.99767,3.99767,0,0,0,.51416.42431c.03747.02588.07739.04786.11572.07276a4.00044,4.00044,0,0,0,.512.27734c.04322.01953.08423.042.1283.06006a4.00237,4.00237,0,0,0,.6394.19873c.05335.01172.10718.02051.16138.03076a3.58749,3.58749,0,0,0,1.4281,0c.05408-.00976.10779-.019.16113-.03076a4.00217,4.00217,0,0,0,.63941-.19873c.04419-.01807.08545-.04053.1289-.06006a4.04582,4.04582,0,0,0,.51136-.27734c.03845-.0249.07824-.04688.11584-.07276a4.03259,4.03259,0,0,0,.51441-.42431c.03491-.03418.06689-.07031.1007-.10547a3.98621,3.98621,0,0,0,.37879-.459c.02173-.03076.046-.05908.06689-.09033.0083-.01269.01856-.02343.02686-.03662l85.543-132.2041A4.001,4.001,0,0,0,216.4873,105.08789ZM128,140a20,20,0,1,1,20-20A20.02229,20.02229,0,0,1,128,140Zm4,86.45508V147.71a28,28,0,1,0-8,0v78.74512L47.47461,108.188A115.61713,115.61713,0,0,0,75.93164,36H180.06836a115.61582,115.61582,0,0,0,28.457,72.1875Z"/>
</svg>
