<svg id="Flat" xmlns="http://www.w3.org/2000/svg" viewBox="0 0 256 256">
  <path d="M214.978,125.66211,188.00586,71.06836V32.00293a12.01343,12.01343,0,0,0-12-12h-96a12.01343,12.01343,0,0,0-12,12V71.06836L41.0332,125.66211a11.95733,11.95733,0,0,0,1.09473,12.42969L124.78467,250.374c.03857.05225.09057.09034.13135.14014a3.96785,3.96785,0,0,0,.41528.44385c.07715.07031.15649.13379.23852.19726a4.05528,4.05528,0,0,0,.47486.314c.08716.04931.17163.09961.26245.14209a3.93743,3.93743,0,0,0,.58081.21338c.08032.02392.15674.05566.23852.07422a3.77,3.77,0,0,0,1.75879,0c.08179-.01856.158-.0503.23829-.07422a3.94369,3.94369,0,0,0,.58129-.21338c.09058-.04248.17505-.09278.262-.14209a3.97756,3.97756,0,0,0,.47509-.314c.082-.06347.16138-.12695.23853-.19726a3.96785,3.96785,0,0,0,.41528-.44385c.04077-.0498.09278-.08789.13135-.14014L213.88281,138.0918A11.95491,11.95491,0,0,0,214.978,125.66211ZM80.00586,28.00293h96a4.00426,4.00426,0,0,1,4,4v36h-104v-36A4.00426,4.00426,0,0,1,80.00586,28.00293Zm48,120a16,16,0,1,1,16-16A16.01833,16.01833,0,0,1,128.00586,148.00293Zm79.43506-14.6543L132.00586,235.82227V155.66309a24,24,0,1,0-8,0v80.15918L48.5708,133.34961a3.98494,3.98494,0,0,1-.36523-4.14356L74.49121,76.00293h107.0293l26.28515,53.20215A3.98484,3.98484,0,0,1,207.44092,133.34863Z"/>
</svg>
