<svg xmlns="http://www.w3.org/2000/svg" viewBox="0 0 256 256"><path d="M224.7,88a12.3,12.3,0,0,0-3.5-8.5L176.5,34.8a12.2,12.2,0,0,0-17,0l-120,120a11.7,11.7,0,0,0-2.7,4.2h0a11.6,11.6,0,0,0-.8,4.2V208a12,12,0,0,0,12,12H92.7a11.6,11.6,0,0,0,4.2-.8H97a11.7,11.7,0,0,0,4.2-2.7l88.6-88.7,5.8,23-38.4,38.4a3.9,3.9,0,0,0,0,5.6,3.9,3.9,0,0,0,5.6,0l40-40a4.1,4.1,0,0,0,1.1-3.8l-7.5-29.8,24.8-24.7A12.3,12.3,0,0,0,224.7,88ZM44,208V169.7L86.3,212H48A4,4,0,0,1,44,208Zm52,2.3L45.7,160,136,69.7,186.3,120ZM215.5,90.8,192,114.3,141.7,64l23.5-23.5a3.9,3.9,0,0,1,5.6,0l44.7,44.7a3.9,3.9,0,0,1,0,5.6Z"/></svg>