<svg xmlns="http://www.w3.org/2000/svg" viewBox="0 0 256 256"><path d="M232.7,104a12.3,12.3,0,0,0-3.5-8.5L160.5,26.8a12.1,12.1,0,0,0-17,0L117.8,52.6l-58.9,22a12.1,12.1,0,0,0-7.6,9.3L28.1,223.3A4,4,0,0,0,32,228h.7l139.4-23.2a12.1,12.1,0,0,0,9.3-7.6l22-58.9,25.8-25.7A12.3,12.3,0,0,0,232.7,104Zm-58.8,90.3a4,4,0,0,1-3.1,2.5L43.7,218l58.4-58.4A24.4,24.4,0,0,0,116,164a24,24,0,1,0-24-24,24.4,24.4,0,0,0,4.4,13.9L38,212.3,59.2,85.2a4,4,0,0,1,2.5-3.1L119,60.7,195.4,137ZM100,140a16,16,0,1,1,16,16A16,16,0,0,1,100,140Zm123.5-33.2L200,130.3,125.7,56l23.5-23.5a3.9,3.9,0,0,1,5.6,0l68.7,68.7A3.9,3.9,0,0,1,223.5,106.8Z"/></svg>