<svg id="Flat" xmlns="http://www.w3.org/2000/svg" viewBox="0 0 256 256">
  <path d="M232.69238,104.00293a11.92147,11.92147,0,0,0-3.51465-8.48438L160.49121,26.832a12.00033,12.00033,0,0,0-16.9707,0l-25.73072,25.73-58.866,22.07471a12.03686,12.03686,0,0,0-7.623,9.26367L28.06006,223.3457a3.97814,3.97814,0,0,0-.04859.59766c-.00073.04736.00123.09424.0022.1416a4.01427,4.01427,0,0,0,.064.66846l.00512.02637a3.98762,3.98762,0,0,0,.1897.63916c.01856.04931.03613.09814.05664.147a4.00978,4.00978,0,0,0,.31006.58887c.0249.03857.05273.07568.0791.11376a3.78535,3.78535,0,0,0,1.07813,1.06788,3.88922,3.88922,0,0,0,.44238.23584c.084.0415.16162.09521.24805.13037a3.96832,3.96832,0,0,0,.53979.16308c.06934.01758.13526.04737.20557.061a4.00422,4.00422,0,0,0,.77368.07617,3.94134,3.94134,0,0,0,.65771-.05469L172.10938,204.708a12.03165,12.03165,0,0,0,9.26269-7.62305l22.07446-58.86621,25.7312-25.73047A11.92034,11.92034,0,0,0,232.69238,104.00293Zm-58.811,90.27344a4.01078,4.01078,0,0,1-3.0874,2.541L43.65869,218.00586l58.44776-58.45508a24.03753,24.03753,0,1,0-5.65674-5.65625l-58.446,58.45264L59.19238,85.21484a4.01362,4.01362,0,0,1,2.541-3.08789l57.26514-21.47461L195.356,137.00977ZM100,140a16,16,0,1,1,16,16A16.01833,16.01833,0,0,1,100,140Zm123.52051-33.168-23.51465,23.51416L125.6626,56.00293l23.51513-23.51465a4.00564,4.00564,0,0,1,5.65625,0l68.68653,68.68652A4.005,4.005,0,0,1,223.52051,106.832Z"/>
</svg>
