<svg id="Flat" xmlns="http://www.w3.org/2000/svg" viewBox="0 0 256 256">
  <path d="M224.68652,88a11.921,11.921,0,0,0-3.51562-8.48535L176.48535,34.82812a12.0157,12.0157,0,0,0-16.9707,0L39.51367,154.82861a11.96016,11.96016,0,0,0-2.69751,4.14551c-.01513.03613-.02539.07324-.0393.10986A11.98555,11.98555,0,0,0,36,163.31348V208a12.01343,12.01343,0,0,0,12,12H92.68652a11.97947,11.97947,0,0,0,4.23-.77734c.03662-.01368.074-.02442.11036-.03907a11.95463,11.95463,0,0,0,4.144-2.69824l88.66186-88.66162,5.73755,22.94922-38.39843,38.39893a3.99957,3.99957,0,1,0,5.65624,5.65624l40-40a3.99787,3.99787,0,0,0,1.05274-3.79833l-7.45093-29.80323,24.741-24.74072A11.92292,11.92292,0,0,0,224.68652,88ZM44,208V169.65723L86.34363,212H48A4.00427,4.00427,0,0,1,44,208Zm51.99963,2.34277L45.65625,160,136,69.65674,186.34314,120Zm119.515-119.51465-23.51489,23.51514L141.65649,64,165.1709,40.48584a4.00622,4.00622,0,0,1,5.6582-.00049l44.68555,44.68653a3.99854,3.99854,0,0,1,0,5.65624Z"/>
</svg>
