<svg xmlns="http://www.w3.org/2000/svg" viewBox="0 0 256 256"><path d="M198.7,57.3A100,100,0,1,0,57.3,198.7,100,100,0,1,0,198.7,57.3Zm-94,74.7h46.6l17.3,37.4a28.1,28.1,0,0,0-40.6,8.2,28.1,28.1,0,0,0-40.6-8.2Zm3.7-8L128,81.5,147.6,124ZM132,192a20,20,0,0,1,40,0v16.8a90.8,90.8,0,0,1-40,11.1Zm-48,0a20,20,0,0,1,40,0v27.9a90.8,90.8,0,0,1-40-11.1Zm109.1,1.1A102.9,102.9,0,0,1,180,203.9V176a3.3,3.3,0,0,0-.4-1.7l-48-104a4,4,0,0,0-7.2,0l-48,104A3.3,3.3,0,0,0,76,176v27.9a102.9,102.9,0,0,1-13.1-10.8,92,92,0,1,1,130.2,0Z"/></svg>