<svg id="Flat" xmlns="http://www.w3.org/2000/svg" viewBox="0 0 256 256">
  <path d="M221.17188,79.51465l-44.68653-44.686a11.99917,11.99917,0,0,0-16.9707,0L133.17236,61.1709l-.001.00049-.001.00146L39.51514,154.82812A11.95753,11.95753,0,0,0,36.8147,158.979c-.0127.03028-.02149.062-.03345.09278A11.98921,11.98921,0,0,0,36,163.31348V208a12.01375,12.01375,0,0,0,12,12H92.68652a11.98261,11.98261,0,0,0,4.29639-.80078l.01514-.00537a11.96293,11.96293,0,0,0,4.17383-2.7085l120-120A12.01481,12.01481,0,0,0,221.17188,79.51465ZM44,208V169.65723L86.343,212H48A4.00458,4.00458,0,0,1,44,208Zm52.00024,2.34326L45.65723,160,136,69.65723,186.343,120ZM215.51465,90.82861,192,114.34277,141.657,64l23.5149-23.51465a3.99854,3.99854,0,0,1,5.65624,0l44.68653,44.686A4.005,4.005,0,0,1,215.51465,90.82861Z"/>
</svg>
