<svg id="Flat" xmlns="http://www.w3.org/2000/svg" viewBox="0 0 256 256">
  <path d="M221.17188,79.51465l-44.68653-44.686a11.99976,11.99976,0,0,0-16.9707-.00049L133.17236,61.17041l-.001.001-.001.00146L39.51514,154.82812A11.92137,11.92137,0,0,0,36,163.31348V208a12.01375,12.01375,0,0,0,12,12H96a3.99957,3.99957,0,0,0,2.82861-1.17188l96-95.99951h0v-.00049l26.34327-26.34277A12.01481,12.01481,0,0,0,221.17188,79.51465ZM94.34326,212H48a4.00458,4.00458,0,0,1-4-4V163.31348a3.97185,3.97185,0,0,1,1.17188-2.82813L136,69.65723,186.343,120ZM215.51465,90.82812,192,114.34277,141.65723,64l23.51465-23.51465a3.99854,3.99854,0,0,1,5.65624,0l44.68653,44.686A4.00443,4.00443,0,0,1,215.51465,90.82812Z"/>
</svg>
