<svg id="Flat" xmlns="http://www.w3.org/2000/svg" viewBox="0 0 256 256">
  <path d="M198.71094,57.29A99.99968,99.99968,0,1,0,57.28906,198.71,99.99968,99.99968,0,1,0,198.71094,57.29ZM108.40552,124h39.189l18.98535,41.13477A19.8528,19.8528,0,0,0,144,172.05078a19.92447,19.92447,0,0,0-32,0,19.8528,19.8528,0,0,0-22.57983-6.916Zm3.69214-8L128,81.54492,143.90234,116ZM148,184a12,12,0,0,1,24,0v24.82715a90.84818,90.84818,0,0,1-24,8.978Zm-64,0a12,12,0,0,1,24,0v33.80518a90.84818,90.84818,0,0,1-24-8.978Zm32,35.20361V184a12,12,0,0,1,24,0v35.20361a90.80616,90.80616,0,0,1-24,0Zm77.05371-26.1499A92.99363,92.99363,0,0,1,180,203.8999V176a3.99466,3.99466,0,0,0-.36816-1.67578l-48-104a3.99968,3.99968,0,0,0-7.26368,0l-48,104A3.99466,3.99466,0,0,0,76,176v27.8999a92.99363,92.99363,0,0,1-13.05371-10.84619,92,92,0,1,1,130.10742,0Z"/>
</svg>
