<svg xmlns="http://www.w3.org/2000/svg" viewBox="0 0 256 256"><path d="M127.9,76a28,28,0,1,0-28-28A28.1,28.1,0,0,0,127.9,76Zm0-48a20,20,0,1,1-20,20A20.1,20.1,0,0,1,127.9,28Zm99.5,102.1A3.9,3.9,0,0,1,224,132a4.2,4.2,0,0,1-2.1-.6c-.3-.2-37.8-22.3-89.9-23.4v42.5l63,70.8a4.1,4.1,0,0,1-.3,5.7,4.1,4.1,0,0,1-2.7,1,4.3,4.3,0,0,1-3-1.3L128,158,67,226.7a4,4,0,1,1-6-5.4l63-70.8V108c-52.1,1.1-89.6,23.2-89.9,23.4a4,4,0,0,1-5.5-1.3,3.9,3.9,0,0,1,1.3-5.5c1.7-1,41.6-24.6,98.1-24.6s96.4,23.6,98.1,24.6A3.9,3.9,0,0,1,227.4,130.1Z"/></svg>