<svg id="Flat" xmlns="http://www.w3.org/2000/svg" viewBox="0 0 256 256">
  <path d="M127.8877,76a28,28,0,1,0-28-28A28.03177,28.03177,0,0,0,127.8877,76Zm0-48a20,20,0,1,1-20,20A20.0226,20.0226,0,0,1,127.8877,28Zm99.542,102.05762a3.99636,3.99636,0,0,1-5.4878,1.37207C221.5625,131.203,184.07275,109.14093,132,108.046v42.43341l62.98975,70.86334a3.99993,3.99993,0,1,1-5.9795,5.31446L128,158.02051,66.98975,226.65723a3.99993,3.99993,0,0,1-5.9795-5.31446L124,150.47943V108.046c-52.07275,1.09491-89.5625,23.157-89.94434,23.38562a4,4,0,0,1-4.11377-6.86133C31.61426,123.56641,71.541,100,128,100s96.38574,23.56641,98.05811,24.57031A3.99946,3.99946,0,0,1,227.42969,130.05762Z"/>
</svg>
