<svg id="Flat" xmlns="http://www.w3.org/2000/svg" viewBox="0 0 256 256">
  <path d="M152,76a28,28,0,1,0-28-28A28.03146,28.03146,0,0,0,152,76Zm0-48a20,20,0,1,1-20,20A20.02229,20.02229,0,0,1,152,28Zm60,116a4.0002,4.0002,0,0,1-4,4c-33.71973,0-49.999-17.4873-64.36182-32.916-3.53076-3.792-6.86523-7.374-10.352-10.59472-.35449-.32739-.71582-.6333-1.07763-.937l-17.71387,40.74231,39.83057,28.45056A4.00066,4.00066,0,0,1,156,176v56a4,4,0,0,1-8,0V178.05859l-36.76709-26.26245L75.66846,233.59473a4.0001,4.0001,0,0,1-7.33692-3.18946L105.875,144.05615l.00781-.01782L125.335,99.29761c-29.63184-12.74121-74.02,31.04516-74.50732,31.53149a3.99992,3.99992,0,0,1-5.65625-5.65722A174.31758,174.31758,0,0,1,78.0127,100.22266c25.21679-14.4375,46.207-14.99414,60.70117-1.61036,3.709,3.42481,7.14355,7.11426,10.77978,11.02051C163.3916,124.5625,177.7627,140,208,140A4.0002,4.0002,0,0,1,212,144Z"/>
</svg>
