<svg xmlns="http://www.w3.org/2000/svg" viewBox="0 0 256 256"><path d="M152,76a28,28,0,1,0-28-28A28.1,28.1,0,0,0,152,76Zm0-48a20,20,0,1,1-20,20A20.1,20.1,0,0,1,152,28Zm60,116a4,4,0,0,1-4,4c-33.7,0-50-17.5-64.4-32.9-3.5-3.8-6.8-7.4-10.3-10.6l-1.1-.9-17.7,40.7,39.8,28.4A4,4,0,0,1,156,176v56a4,4,0,0,1-8,0V178.1l-36.8-26.3L75.7,233.6A4.1,4.1,0,0,1,72,236a4.5,4.5,0,0,1-1.6-.3,4.2,4.2,0,0,1-2.1-5.3l37.6-86.3h0l19.4-44.7c-29.6-12.7-74,31-74.5,31.5a4,4,0,0,1-5.6-5.6,176.7,176.7,0,0,1,32.8-25c25.2-14.4,46.2-15,60.7-1.6,3.7,3.4,7.2,7.1,10.8,11,13.9,15,28.3,30.4,58.5,30.4A4,4,0,0,1,212,144Z"/></svg>