<svg xmlns="http://www.w3.org/2000/svg" viewBox="0 0 256 256"><path d="M176,220C98.8,220,36,157.2,36,80A52.1,52.1,0,0,1,81.4,28.4a12.1,12.1,0,0,1,12.5,7.2L114,82.5a12,12,0,0,1-1,11.3L96.4,119.2a3.9,3.9,0,0,0-.3,3.9h0a79.9,79.9,0,0,0,37.2,37,3.7,3.7,0,0,0,3.8-.3l25.1-16.7a11.9,11.9,0,0,1,11.4-1.1l46.8,20.1a12.1,12.1,0,0,1,7.2,12.5A52.1,52.1,0,0,1,176,220ZM82.9,36.3h-.5A44.1,44.1,0,0,0,44,80,132.1,132.1,0,0,0,176,212a44.1,44.1,0,0,0,43.7-38.4,4,4,0,0,0-2.5-4.1l-46.8-20.1a4,4,0,0,0-3.8.3l-25,16.7a11.9,11.9,0,0,1-11.8.9,88.6,88.6,0,0,1-40.9-40.7h0a12.1,12.1,0,0,1,.8-11.8l16.6-25.4a3.9,3.9,0,0,0,.3-3.8L86.5,38.8A3.9,3.9,0,0,0,82.9,36.3Z"/></svg>