<svg xmlns="http://www.w3.org/2000/svg" viewBox="0 0 256 256"><path d="M220.4,162.1,173.6,142a11.9,11.9,0,0,0-11.4,1.1l-25.1,16.7a3.7,3.7,0,0,1-3.8.3,79.9,79.9,0,0,1-37.2-37h0a3.9,3.9,0,0,1,.3-3.9L113,93.8a12,12,0,0,0,1-11.3L93.9,35.6a12.1,12.1,0,0,0-12.5-7.2A52.1,52.1,0,0,0,36,80c0,77.2,62.8,140,140,140a52.1,52.1,0,0,0,51.6-45.4A12.1,12.1,0,0,0,220.4,162.1Zm-.7,11.5A44.1,44.1,0,0,1,176,212,132.1,132.1,0,0,1,44,80,44.1,44.1,0,0,1,82.4,36.3h.5a3.9,3.9,0,0,1,3.6,2.5l20.1,46.8a3.9,3.9,0,0,1-.3,3.8L89.7,114.8a12.1,12.1,0,0,0-.8,11.8h0a88.6,88.6,0,0,0,40.9,40.7,11.9,11.9,0,0,0,11.8-.9l25-16.7a4,4,0,0,1,3.8-.3l46.8,20.1A4,4,0,0,1,219.7,173.6ZM156.1,96.8a2.2,2.2,0,0,1-.1-.8V56a4,4,0,0,1,8,0V86.3l41.2-41.1a4,4,0,1,1,5.6,5.6L169.7,92H200a4,4,0,0,1,0,8H158.5l-.4-.2-.3-.2a2.9,2.9,0,0,1-1.1-1.1l-.2-.3-.2-.4c0-.1-.1-.2-.1-.4A.4.4,0,0,1,156.1,96.8Z"/></svg>