<svg xmlns="http://www.w3.org/2000/svg" viewBox="0 0 256 256"><path d="M227,93C172.4,38.4,83.6,38.4,29,93a52.1,52.1,0,0,0-4.4,68.6,12,12,0,0,0,14,3.7l47.3-18.9a12.1,12.1,0,0,0,7.3-8.8l5.9-29.5a3.6,3.6,0,0,1,2.5-2.9,80.7,80.7,0,0,1,52.5-.2h0a4.2,4.2,0,0,1,2.5,3l6.2,29.7a11.9,11.9,0,0,0,7.3,8.7l47.3,18.9a12.1,12.1,0,0,0,14-3.7A52.1,52.1,0,0,0,227,93Zm-2,63.7a3.8,3.8,0,0,1-4.6,1.2L173.1,139a4.1,4.1,0,0,1-2.5-2.9l-6.2-29.8a11.7,11.7,0,0,0-7.7-8.8h0a88.7,88.7,0,0,0-57.8.1,12.2,12.2,0,0,0-7.7,8.9l-5.9,29.6a3.7,3.7,0,0,1-2.4,2.9L35.6,157.9a3.8,3.8,0,0,1-4.6-1.2,43.9,43.9,0,0,1,3.7-58,132.1,132.1,0,0,1,186.6,0A43.9,43.9,0,0,1,225,156.7ZM220,200a4,4,0,0,1-4,4H40a4,4,0,0,1,0-8H216A4,4,0,0,1,220,200Z"/></svg>