<svg id="Flat" xmlns="http://www.w3.org/2000/svg" viewBox="0 0 256 256">
  <path d="M220.39648,162.10352l-46.83789-20.07325a11.96393,11.96393,0,0,0-11.38379,1.0459l-25.03515,16.69434a3.93529,3.93529,0,0,1-3.8711.31836,80.54061,80.54061,0,0,1-37.19726-37.0293h-.001a3.938,3.938,0,0,1,.291-3.86035l16.63574-25.41895a11.97729,11.97729,0,0,0,.99023-11.2998L93.89648,35.60352A12.01807,12.01807,0,0,0,81.4209,28.41211,52.06484,52.06484,0,0,0,36,80c0,77.19629,62.80371,140,140,140a52.06486,52.06486,0,0,0,51.58789-45.42188A12.01851,12.01851,0,0,0,220.39648,162.10352Zm-.74609,11.47168A44.04828,44.04828,0,0,1,176,212C103.21484,212,44,152.78516,44,80A44.04825,44.04825,0,0,1,82.42383,36.34961a3.71329,3.71329,0,0,1,.47558-.03027A3.99936,3.99936,0,0,1,86.543,38.75586l20.09082,46.875a3.99531,3.99531,0,0,1-.33008,3.76855L89.668,114.81836a11.96889,11.96889,0,0,0-.78516,11.75293l-.001-.001A88.58663,88.58663,0,0,0,129.79,167.294a11.96472,11.96472,0,0,0,11.78711-.86719l25.03515-16.69434a3.99785,3.99785,0,0,1,3.7959-.34863L217.24414,169.457A3.98053,3.98053,0,0,1,219.65039,173.5752ZM157.17188,93.17188,178.34375,72,157.17188,50.82812a3.99957,3.99957,0,0,1,5.65624-5.65624L184,66.34375l21.17188-21.17187a3.99957,3.99957,0,1,1,5.65624,5.65624L189.65625,72l21.17187,21.17188a3.99957,3.99957,0,1,1-5.65624,5.65624L184,77.65625,162.82812,98.82812a3.99957,3.99957,0,0,1-5.65624-5.65624Z"/>
</svg>
