<svg xmlns="http://www.w3.org/2000/svg" viewBox="0 0 256 256"><path d="M117.9,111h0L86.8,76.7h0L51,37.3a4,4,0,1,0-6,5.4l31.8,35A138.6,138.6,0,0,0,29,109a52.1,52.1,0,0,0-4.4,68.6,12,12,0,0,0,14,3.7l47.3-18.9a12.1,12.1,0,0,0,7.3-8.8l5.9-29.5a3.6,3.6,0,0,1,2.5-2.9,83.7,83.7,0,0,1,11.9-3.2L205,218.7a4.1,4.1,0,0,0,5.7.3,4.2,4.2,0,0,0,.3-5.7Zm-19,2.6a12.2,12.2,0,0,0-7.7,8.9l-5.9,29.6a3.7,3.7,0,0,1-2.4,2.9L35.6,173.9a3.8,3.8,0,0,1-4.6-1.2,43.9,43.9,0,0,1,3.7-58A129.5,129.5,0,0,1,82.6,84l24.7,27.2A66.2,66.2,0,0,0,98.9,113.6Zm132.5,64a12,12,0,0,1-14,3.7l-4-1.6a3.9,3.9,0,0,1-2.2-5.2,4,4,0,0,1,5.2-2.2l4,1.6a3.8,3.8,0,0,0,4.6-1.2,43.9,43.9,0,0,0-3.7-58A132,132,0,0,0,120.7,76.2a4.1,4.1,0,0,1-4.2-3.8,4,4,0,0,1,3.8-4.2A140.2,140.2,0,0,1,227,109,52.1,52.1,0,0,1,231.4,177.6Z"/></svg>