<svg id="Flat" xmlns="http://www.w3.org/2000/svg" viewBox="0 0 256 256">
  <path d="M220.39648,162.10352l-46.83789-20.07325a11.96658,11.96658,0,0,0-11.38379,1.0459l-25.03515,16.69434a3.93771,3.93771,0,0,1-3.8711.31836,80.54061,80.54061,0,0,1-37.19726-37.0293h-.001a3.938,3.938,0,0,1,.291-3.86035l16.63574-25.41895a11.97729,11.97729,0,0,0,.99023-11.2998L93.89648,35.60352A12.0168,12.0168,0,0,0,81.4209,28.41211,52.06484,52.06484,0,0,0,36,80c0,77.19629,62.80371,140,140,140a52.06486,52.06486,0,0,0,51.58789-45.42188A12.01851,12.01851,0,0,0,220.39648,162.10352Zm-.74609,11.47168A44.04828,44.04828,0,0,1,176,212C103.21484,212,44,152.78516,44,80A44.04825,44.04825,0,0,1,82.42383,36.34961a3.71329,3.71329,0,0,1,.47558-.03027A3.99936,3.99936,0,0,1,86.543,38.75586l20.09082,46.875a3.99531,3.99531,0,0,1-.33008,3.76855L89.668,114.81836a11.96889,11.96889,0,0,0-.78516,11.75293l-.001-.001A88.58663,88.58663,0,0,0,129.79,167.294a11.96472,11.96472,0,0,0,11.78711-.86719l25.03515-16.69434a3.99519,3.99519,0,0,1,3.7959-.34863L217.24414,169.457A3.98053,3.98053,0,0,1,219.65039,173.5752ZM157.17188,98.82812a3.99853,3.99853,0,0,1,0-5.65624L198.34375,52H168a4,4,0,0,1,0-8h40a3.99141,3.99141,0,0,1,.78369.0791c.11621.023.22363.06641.33594.09961a2.34234,2.34234,0,0,1,.78857.32617c.10352.05664.21094.102.31055.16846a4.03377,4.03377,0,0,1,1.1084,1.10889c.06445.09668.1084.20117.16357.30175a2.33107,2.33107,0,0,1,.3291.79151c.0337.11426.07764.22314.10108.34131A3.98649,3.98649,0,0,1,212,48V88a4,4,0,0,1-8,0V57.65625L162.82812,98.82812a3.99852,3.99852,0,0,1-5.65624,0Z"/>
</svg>
