<svg id="Flat" xmlns="http://www.w3.org/2000/svg" viewBox="0 0 256 256">
  <path d="M226.99512,93.00488c-54.58594-54.58593-143.4043-54.58593-197.99024,0a52.06419,52.06419,0,0,0-4.35937,68.59668,12.019,12.019,0,0,0,13.90527,3.73535l47.31348-18.9248a11.96662,11.96662,0,0,0,7.31054-8.79l5.89649-29.50586a3.93835,3.93835,0,0,1,2.51269-2.96387,80.544,80.544,0,0,1,52.48633-.11914l.001.001a3.934,3.934,0,0,1,2.52344,2.93457l6.21093,29.73926a11.97154,11.97154,0,0,0,7.29,8.6875l47.35352,18.9414a12.00966,12.00966,0,0,0,13.90527-3.73632A52.063,52.063,0,0,0,226.99512,93.00488Zm-1.96094,63.69239a3.98267,3.98267,0,0,1-4.61426,1.21191l-47.35351-18.94141a3.99015,3.99015,0,0,1-2.42969-2.8955L164.42578,106.334a11.96985,11.96985,0,0,0-7.75488-8.86621l.001.001a88.5629,88.5629,0,0,0-57.72266.12988,11.97113,11.97113,0,0,0-7.72266,8.94825l-5.89648,29.50683a3.98968,3.98968,0,0,1-2.4375,2.93067l-47.3125,18.9248a3.98105,3.98105,0,0,1-4.61426-1.21094,44.05161,44.05161,0,0,1,3.69531-58.03711,132.15256,132.15256,0,0,1,186.67774,0A44.05039,44.05039,0,0,1,225.03418,156.69727ZM220,200a4.0002,4.0002,0,0,1-4,4H40a4,4,0,0,1,0-8H216A4.0002,4.0002,0,0,1,220,200Z"/>
</svg>
