<svg xmlns="http://www.w3.org/2000/svg" viewBox="0 0 256 256"><path d="M220.4,162.1,173.6,142a11.9,11.9,0,0,0-11.4,1.1l-25.1,16.7a3.7,3.7,0,0,1-3.8.3,79.9,79.9,0,0,1-37.2-37h0a3.9,3.9,0,0,1,.3-3.9L113,93.8a12,12,0,0,0,1-11.3L93.9,35.6a12.1,12.1,0,0,0-12.5-7.2A52.1,52.1,0,0,0,36,80c0,77.2,62.8,140,140,140a52.1,52.1,0,0,0,51.6-45.4A12.1,12.1,0,0,0,220.4,162.1Zm-.7,11.5A44.1,44.1,0,0,1,176,212,132.1,132.1,0,0,1,44,80,44.1,44.1,0,0,1,82.4,36.3h.5a3.9,3.9,0,0,1,3.6,2.5l20.1,46.8a3.9,3.9,0,0,1-.3,3.8L89.7,114.8a12.1,12.1,0,0,0-.8,11.8,88.6,88.6,0,0,0,40.9,40.7,11.9,11.9,0,0,0,11.8-.9l25-16.7a4,4,0,0,1,3.8-.3l46.8,20.1A4,4,0,0,1,219.7,173.6ZM157.2,98.8a3.9,3.9,0,0,1,0-5.6L198.3,52H168a4,4,0,0,1,0-8h40a4,4,0,0,1,4,4V88a4,4,0,0,1-8,0V57.7L162.8,98.8a3.9,3.9,0,0,1-5.6,0Z"/></svg>