<svg id="Flat" xmlns="http://www.w3.org/2000/svg" viewBox="0 0 256 256">
  <path d="M155.55273,38.9668a3.99982,3.99982,0,0,1,4.89747-2.83106A84.15513,84.15513,0,0,1,219.86426,95.5498a4,4,0,1,1-7.72852,2.06641,76.1328,76.1328,0,0,0-53.75195-53.75195A4.00014,4.00014,0,0,1,155.55273,38.9668Zm-5.45312,35.81445a44.07831,44.07831,0,0,1,31.11914,31.11914,4,4,0,1,0,7.72852-2.06641A52.09724,52.09724,0,0,0,152.166,67.05273a4,4,0,1,0-2.06641,7.72852Zm77.48828,99.79687A52.06486,52.06486,0,0,1,176,220C98.80371,220,36,157.19629,36,80A52.06484,52.06484,0,0,1,81.4209,28.41211a12.01935,12.01935,0,0,1,12.47558,7.19141L113.9873,82.48047a11.97729,11.97729,0,0,1-.99023,11.2998L96.36133,119.19922a3.938,3.938,0,0,0-.291,3.86035h.001a80.54061,80.54061,0,0,0,37.19726,37.0293,3.93529,3.93529,0,0,0,3.8711-.31836l25.03515-16.69434a11.964,11.964,0,0,1,11.38379-1.0459l46.83789,20.07325A12.01851,12.01851,0,0,1,227.58789,174.57812ZM217.24414,169.457,170.4082,149.38379a3.99254,3.99254,0,0,0-3.7959.34863l-25.03515,16.69434A11.96472,11.96472,0,0,1,129.79,167.294a88.58663,88.58663,0,0,1-40.9082-40.72364l.001.001a11.96889,11.96889,0,0,1,.78516-11.75293l16.63574-25.41895a3.99531,3.99531,0,0,0,.33008-3.76855L86.543,38.75586a3.99936,3.99936,0,0,0-3.64356-2.43652,3.71329,3.71329,0,0,0-.47558.03027A44.04825,44.04825,0,0,0,44,80c0,72.78516,59.21484,132,132,132a44.04828,44.04828,0,0,0,43.65039-38.4248A3.98053,3.98053,0,0,0,217.24414,169.457Z"/>
</svg>
