<svg id="Flat" xmlns="http://www.w3.org/2000/svg" viewBox="0 0 256 256.00004">
  <path d="M142,28H68c-.041,0-.0791.01087-.11963.01209a3.96126,3.96126,0,0,0-.42578.04291c-.126.01733-.25147.0324-.373.06115-.11865.02808-.23437.06964-.35156.10907a3.95251,3.95251,0,0,0-.40918.15558c-.03613.01666-.07373.02374-.10986.04157-.07129.03576-.12989.08612-.19824.12555a3.944,3.944,0,0,0-.36524.2312c-.10449.07592-.19922.1584-.29443.24279-.09619.08564-.18994.17182-.27783.26624-.08985.09723-.1709.199-.25049.30383-.07666.10095-.14991.20252-.21729.31067-.06689.10907-.12549.221-.18164.33557a3.89141,3.89141,0,0,0-.15918.35834c-.04541.12073-.08056.2431-.11426.36768-.03271.12286-.064.24505-.08545.37231a4.0521,4.0521,0,0,0-.04345.42889C64.019,31.84465,64,31.91966,64,32V164a70.07926,70.07926,0,0,0,70,70,4.0002,4.0002,0,0,0,4-4V168h4a70,70,0,0,0,0-140ZM72,48.94462,127.52783,160H72Zm58,98.11084L74.47217,36H130ZM72.14355,168H130V225.8726A62.08419,62.08419,0,0,1,72.14355,168ZM142,160h-4V36h4a62,62,0,0,1,0,124Z"/>
</svg>
