<svg id="Flat" xmlns="http://www.w3.org/2000/svg" viewBox="0 0 256 256">
  <path d="M210.82861,45.17139a49.25561,49.25561,0,0,0-69.65722,0l-96,96a49.25509,49.25509,0,0,0,69.65722,69.65722l96-96A49.31171,49.31171,0,0,0,210.82861,45.17139Zm-101.65722,160a41.25458,41.25458,0,0,1-58.34278-58.34278L96,101.657,154.34277,160Zm96-96L160,154.343,101.65723,96l45.17138-45.17139a41.25458,41.25458,0,0,1,58.34278,58.34278ZM187.3623,85.70654a3.99987,3.99987,0,0,1-.09814,5.65576l-24.41553,23.584a4.00017,4.00017,0,0,1-5.55859-5.75391l24.416-23.584A3.99914,3.99914,0,0,1,187.3623,85.70654Z"/>
</svg>
