<svg id="Flat" xmlns="http://www.w3.org/2000/svg" viewBox="0 0 256 256">
  <path d="M212,112c0,21.52832-7.49951,41.18262-21.11719,55.34082C178.25635,180.46975,161.168,188,144,188c-21.35107,0-33.522-8.76074-39.75684-15.56933L91.89355,224.916a3.99985,3.99985,0,1,1-7.7871-1.832l32-136a3.99985,3.99985,0,1,1,7.7871,1.832l-17.28417,73.45849C109.01172,166.41848,118.94531,180,144,180c29.49316,0,60-25.43555,60-68A76,76,0,1,0,64.86523,154.32326a4.00014,4.00014,0,0,1-6.64111,4.46094A84.00357,84.00357,0,1,1,212,112Z"/>
</svg>
