<svg xmlns="http://www.w3.org/2000/svg" viewBox="0 0 256 256"><path d="M226.8,221.2l-53.4-53.5a56.7,56.7,0,0,0,9.8-2.6,56.1,56.1,0,0,0,33.5-71.8,3.8,3.8,0,0,0-2.1-2.2,3.9,3.9,0,0,0-3-.2L156,111.1a54.3,54.3,0,0,0,7.2-11.5A56,56,0,0,0,93.3,23.3a3.8,3.8,0,0,0-2.2,2.1,3.9,3.9,0,0,0-.2,3L111.1,84a54.3,54.3,0,0,0-11.5-7.2,56,56,0,0,0-76.3,69.9,3.8,3.8,0,0,0,2.1,2.2,3.3,3.3,0,0,0,1.7.4l1.3-.2L84,128.9a54.3,54.3,0,0,0-7.2,11.5,56,56,0,0,0,69.9,76.3,3.8,3.8,0,0,0,2.2-2.1,3.9,3.9,0,0,0,.2-3L128.9,156a54.3,54.3,0,0,0,11.5,7.2,55.7,55.7,0,0,0,22.4,5.3l58.4,58.3a3.9,3.9,0,0,0,5.6,0A3.9,3.9,0,0,0,226.8,221.2Zm-94-188.8a48,48,0,0,1-.2,87.1L99.9,29.6A48,48,0,0,1,132.8,32.4ZM32.4,107.2A47.9,47.9,0,0,1,59.5,82.4a49.3,49.3,0,0,1,16.4-2.9,48,48,0,0,1,43.6,27.9L29.6,140.1A48,48,0,0,1,32.4,107.2Zm74.8,100.4a48,48,0,0,1,.2-87.1l32.7,89.9A48,48,0,0,1,107.2,207.6Zm7.7-90,7.5-2.7,2.7,7.5-7.5,2.7Zm5.6,15,89.9-32.7a47.9,47.9,0,0,1-29.9,57.7,49.1,49.1,0,0,1-16,2.9h-.1a49.7,49.7,0,0,1-20.6-4.5A47.8,47.8,0,0,1,120.5,132.6Z"/></svg>