<svg id="Flat" xmlns="http://www.w3.org/2000/svg" viewBox="0 0 256 256">
  <path d="M232.75684,61.60742a180.07116,180.07116,0,0,0-209.51368,0,12.03592,12.03592,0,0,0-3.17724,16.23242L117.876,231.5415a12,12,0,0,0,20.248,0L235.93408,77.83984A12.03592,12.03592,0,0,0,232.75684,61.60742ZM62.41748,129.49121a24.0009,24.0009,0,1,1,21.9541,34.49927Zm68.957,97.75537a3.9997,3.9997,0,0,1-6.749,0L89.1958,171.57178A32.00045,32.00045,0,1,0,57.585,121.89771L42.05127,97.4873a140.00409,140.00409,0,0,1,171.89746,0l-21.54834,33.86158a32.00067,32.00067,0,1,0-34.09473,53.57763Zm31.28076-49.15527a23.99144,23.99144,0,1,1,25.40235-39.91846Zm66.5293-104.54639L218.25977,90.7124a147.98709,147.98709,0,0,0-180.51954,0L26.81543,73.54492a4.03353,4.03353,0,0,1,1.08838-5.43554,172.07214,172.07214,0,0,1,200.19238,0A4.03353,4.03353,0,0,1,229.18457,73.54492Z"/>
</svg>
