<svg id="Flat" xmlns="http://www.w3.org/2000/svg" viewBox="0 0 256 256">
  <path d="M220,48a12.01343,12.01343,0,0,0-12-12H48a11.95851,11.95851,0,0,0-8.4043,3.44824c-.02539.02442-.05566.041-.081.06641s-.042.05517-.06641.081A11.95851,11.95851,0,0,0,36,48V208a12.01343,12.01343,0,0,0,12,12H208a11.95851,11.95851,0,0,0,8.4043-3.44824c.02539-.02442.05566-.041.08105-.06641s.042-.05517.06641-.08105A11.95851,11.95851,0,0,0,220,208Zm-8,0V206.34375L49.65674,44H208A4.00427,4.00427,0,0,1,212,48ZM44,208V49.65625L206.34326,212H48A4.00427,4.00427,0,0,1,44,208Z"/>
</svg>
