<svg id="Flat" xmlns="http://www.w3.org/2000/svg" viewBox="0 0 256 256">
  <path d="M242.31543,62c-6.83887-11.84521-27.13916-13.99414-57.25342-6.11353a91.983,91.983,0,0,0-148.08349,85.512C15.12646,163.52246,6.85059,182.1626,13.68457,194c4.14941,7.18652,13.04834,10.81934,26.17481,10.81934a115.26027,115.26027,0,0,0,24.7749-3.167c2.061-.4624,4.16894-.989,6.29687-1.54443A91.98221,91.98221,0,0,0,219.02,114.593c1.53174-1.55249,3.02881-3.10181,4.44775-4.64282C242.17969,89.63379,248.69678,73.05371,242.31543,62ZM128,44a84.13109,84.13109,0,0,1,82.42822,67.86206C193.8833,127.96582,171.39453,144.51514,146,159.17676c-25.37109,14.64819-50.92383,25.84179-73.12793,32.12109A83.94418,83.94418,0,0,1,128,44ZM62.88281,193.84668c-22.20166,4.98144-38.00342,3.543-42.27-3.84668-4.3291-7.49927,2.63477-22.1582,18.28614-39.04517A92.033,92.033,0,0,0,63.63574,193.667C63.38672,193.72388,63.13086,193.791,62.88281,193.84668ZM128,212a83.51135,83.51135,0,0,1-47.3623-14.67139c21.48046-6.67724,45.53271-17.46606,69.3623-31.22412,23.83545-13.76074,45.20947-29.20093,61.73438-44.46875.1582,2.10352.26562,4.221.26562,6.36426A84.0953,84.0953,0,0,1,128,212ZM192.36133,62.33008c22.48584-5.12842,38.6914-3.83643,43.02588,3.66992,4.2666,7.38965-2.38916,21.79395-17.80371,38.53027-.15625.16968-.32569.34107-.4834.51075A92.03436,92.03436,0,0,0,192.36133,62.33008Z"/>
</svg>
