<svg xmlns="http://www.w3.org/2000/svg" viewBox="0 0 256 256"><path d="M234.8,21.2a3.9,3.9,0,0,0-5.6,0L176,74.3l-8.2-8.2a28,28,0,0,0-39.6,0L100,94.3l-5.2-5.1a4,4,0,0,0-5.6,5.6l5.1,5.2L66.1,128.2a28.1,28.1,0,0,0,0,39.6l8.2,8.2L21.2,229.2a3.9,3.9,0,0,0,0,5.6,3.9,3.9,0,0,0,5.6,0L80,181.7l8.2,8.2a28,28,0,0,0,39.6,0L156,161.7l5.2,5.1a3.9,3.9,0,0,0,5.6,0,3.9,3.9,0,0,0,0-5.6l-5.1-5.2,28.2-28.2a28.1,28.1,0,0,0,0-39.6L181.7,80l53.1-53.2A3.9,3.9,0,0,0,234.8,21.2Zm-112.7,163a19.9,19.9,0,0,1-28.2,0L71.8,162.1a19.9,19.9,0,0,1,0-28.2L100,105.7,150.3,156Zm62.1-62.1L156,150.3,105.7,100l28.2-28.2a20,20,0,0,1,28.2,0l22.1,22.1A19.9,19.9,0,0,1,184.2,122.1Zm43.6,39.2A4.1,4.1,0,0,1,224,164l-1.3-.2-24-8a4,4,0,1,1,2.6-7.6l24,8A4,4,0,0,1,227.8,161.3ZM28.2,94.7a4,4,0,0,1,5.1-2.5l24,8a4,4,0,0,1,2.5,5.1A4.1,4.1,0,0,1,56,108l-1.3-.2-24-8A4,4,0,0,1,28.2,94.7Zm64-61.4a4,4,0,0,1,7.6-2.6l8,24a4,4,0,0,1-2.5,5.1L104,60a4.1,4.1,0,0,1-3.8-2.7Zm71.6,189.4a4,4,0,0,1-2.5,5.1l-1.3.2a4.1,4.1,0,0,1-3.8-2.7l-8-24a4,4,0,1,1,7.6-2.6Z"/></svg>