<svg xmlns="http://www.w3.org/2000/svg" viewBox="0 0 256 256"><path d="M234.8,21.2a3.9,3.9,0,0,0-5.6,0L200,50.3l-8.2-8.2a28,28,0,0,0-39.6,0L124,70.3l-5.2-5.1a4,4,0,0,0-5.6,5.6l64,64h0l8,8a3.9,3.9,0,0,0,5.6,0,3.9,3.9,0,0,0,0-5.6l-5.1-5.2,28.2-28.2a28,28,0,0,0,0-39.6L205.7,56l29.1-29.2A3.9,3.9,0,0,0,234.8,21.2ZM214.1,84a19.7,19.7,0,0,1-5.9,14.1L180,126.3,129.7,76l28.2-28.2a19.8,19.8,0,0,1,28.2,0l22.1,22.1A19.7,19.7,0,0,1,214.1,84Zm-72.9,57.2L120,162.3,93.7,136l21.1-21.2a4,4,0,0,0-5.6-5.6L88,130.3,70.8,113.2a4,4,0,0,0-5.6,5.6l5.1,5.2L42.1,152.2a28,28,0,0,0,0,39.6l8.2,8.2L21.2,229.2a3.9,3.9,0,0,0,0,5.6,3.9,3.9,0,0,0,5.6,0L56,205.7l8.2,8.2a28,28,0,0,0,39.6,0L132,185.7l5.2,5.1a3.9,3.9,0,0,0,5.6,0,3.9,3.9,0,0,0,0-5.6L125.7,168l21.1-21.2a4,4,0,0,0-5.6-5.6Zm-43.1,67a19.8,19.8,0,0,1-28.2,0L47.8,186.1a19.8,19.8,0,0,1,0-28.2L76,129.7,126.3,180Z"/></svg>