<svg xmlns="http://www.w3.org/2000/svg" viewBox="0 0 256 256"><path d="M199,198.3a99.7,99.7,0,0,0,0-140.6l-.3-.4-.4-.3A99.7,99.7,0,0,0,57.7,57l-.4.3-.3.4a99.7,99.7,0,0,0,0,140.6l.3.4.4.3a99.7,99.7,0,0,0,140.6,0l.4-.3ZM36.1,132h32a59.5,59.5,0,0,0,14.8,35.5L60.2,190.1A91.4,91.4,0,0,1,36.1,132ZM60.2,65.9,82.9,88.5A59.5,59.5,0,0,0,68.1,124h-32A91.4,91.4,0,0,1,60.2,65.9ZM219.9,124h-32a59.5,59.5,0,0,0-14.8-35.5l22.7-22.6A91.4,91.4,0,0,1,219.9,124ZM128,180a52,52,0,1,1,52-52A52,52,0,0,1,128,180Zm39.5-97.1A59.5,59.5,0,0,0,132,68.1v-32a91.4,91.4,0,0,1,58.1,24.1ZM124,68.1A59.5,59.5,0,0,0,88.5,82.9L65.9,60.2A91.4,91.4,0,0,1,124,36.1Zm-35.5,105A59.5,59.5,0,0,0,124,187.9v32a91.4,91.4,0,0,1-58.1-24.1ZM132,187.9a59.5,59.5,0,0,0,35.5-14.8l22.6,22.7A91.4,91.4,0,0,1,132,219.9Zm41.1-20.4A59.5,59.5,0,0,0,187.9,132h32a91.4,91.4,0,0,1-24.1,58.1Z"/></svg>