<svg xmlns="http://www.w3.org/2000/svg" viewBox="0 0 256 256"><path d="M240,116H226.3L197.8,66a12.1,12.1,0,0,0-10.4-6H68.6a12.1,12.1,0,0,0-10.4,6L29.7,116H16a4,4,0,0,0,0,8H28v84a12,12,0,0,0,12,12H64a12,12,0,0,0,12-12V188H180v20a12,12,0,0,0,12,12h24a12,12,0,0,0,12-12V124h12a4,4,0,0,0,0-8ZM65.2,70a4,4,0,0,1,3.4-2H187.4a4,4,0,0,1,3.4,2l26.3,46H38.9ZM68,208a4,4,0,0,1-4,4H40a4,4,0,0,1-4-4V188H68Zm148,4H192a4,4,0,0,1-4-4V188h32v20A4,4,0,0,1,216,212Zm4-32H36V124H220ZM60,152a4,4,0,0,1,4-4H80a4,4,0,0,1,0,8H64A4,4,0,0,1,60,152Zm112,0a4,4,0,0,1,4-4h16a4,4,0,0,1,0,8H176A4,4,0,0,1,172,152ZM100,32a4,4,0,0,1,4-4h48a4,4,0,0,1,0,8H104A4,4,0,0,1,100,32Z"/></svg>