<svg id="Flat" xmlns="http://www.w3.org/2000/svg" viewBox="0 0 256 256">
  <path d="M227.8,52.2a28,28,0,0,0-39.6,0h0a28,28,0,0,0-5.88,8.65l-34.55-9.42A28,28,0,0,0,100.2,28.2h0a28,28,0,0,0-3.47,35.36L57.92,98.49A28,28,0,0,0,20.2,100.2h0a28,28,0,0,0,39.6,39.6l.18-.19,75.31,55.23A28,28,0,1,0,173,183.2l29.55-83.75A28,28,0,0,0,227.8,91.8,28,28,0,0,0,227.8,52.2ZM105.86,33.86h0a20,20,0,1,1,0,28.28A20,20,0,0,1,105.86,33.86Zm-80,100.28a20,20,0,0,1,0-28.28h0a20,20,0,1,1,0,28.28Zm148.28,88a20,20,0,0,1-28.28-28.28h0a20,20,0,0,1,28.28,28.28Zm-8.69-41.59a28,28,0,0,0-25.25,7.65h0l-.18.19L64.71,133.16a28.06,28.06,0,0,0-1.44-28.72l38.81-34.93a28,28,0,0,0,43.6-10.36l34.55,9.42A28,28,0,0,0,195,96.8Zm56.69-94.41a20,20,0,0,1-28.28-28.28h0a20,20,0,0,1,28.28,28.28Z"/>
</svg>
