<svg xmlns="http://www.w3.org/2000/svg" viewBox="0 0 256 256"><path d="M227.8,52.2a28.1,28.1,0,0,0-39.6,0h0a27.9,27.9,0,0,0-5.9,8.7l-34.5-9.5a28,28,0,0,0-47.6-23.2h0a28.1,28.1,0,0,0-3.5,35.4L57.9,98.5a28,28,0,0,0-37.7,1.7h0a28.1,28.1,0,0,0,0,39.6,28,28,0,0,0,39.6,0l.2-.2,75.3,55.2a28.2,28.2,0,0,0,4.9,33,28,28,0,0,0,39.6,0,28.1,28.1,0,0,0,0-39.6,29,29,0,0,0-6.8-5l29.6-83.7a31.9,31.9,0,0,0,5.4.5,27.8,27.8,0,0,0,19.8-8.2A28.1,28.1,0,0,0,227.8,52.2ZM105.9,33.9h0a19.9,19.9,0,1,1,0,28.2A19.9,19.9,0,0,1,105.9,33.9Zm-80,100.2a19.9,19.9,0,0,1,0-28.2h0a19.9,19.9,0,1,1,0,28.2Zm148.2,88a19.9,19.9,0,0,1-28.2-28.2h0a19.9,19.9,0,0,1,28.2,28.2Zm-8.7-41.6a28.2,28.2,0,0,0-25.2,7.7h0l-.2.2L64.7,133.2a28.3,28.3,0,0,0-1.4-28.8l38.8-34.9a28,28,0,0,0,43.6-10.4l34.5,9.5a28.1,28.1,0,0,0,8,23.2,29,29,0,0,0,6.8,5Zm56.7-94.4a19.9,19.9,0,0,1-28.2-28.2h0a19.9,19.9,0,0,1,28.2,28.2Z"/></svg>