<svg xmlns="http://www.w3.org/2000/svg" viewBox="0 0 256 256"><path d="M221.4,82.8l-1.5-1.2A40,40,0,0,0,180,44a40.7,40.7,0,0,0-14.3,2.6,40,40,0,0,0-75.4,0A40.7,40.7,0,0,0,76,44,40,40,0,0,0,36.1,81.6l-1.5,1.2a11.8,11.8,0,0,0-3.4,11.4L58.7,210.7A11.8,11.8,0,0,0,70.3,220H185.7a11.8,11.8,0,0,0,11.6-9.3L224.8,94.2A11.8,11.8,0,0,0,221.4,82.8ZM76,52a32.6,32.6,0,0,1,15,3.7,4.1,4.1,0,0,0,5.8-2.6,31.9,31.9,0,0,1,62.4,0,4.1,4.1,0,0,0,5.8,2.6A32.6,32.6,0,0,1,180,52a32.1,32.1,0,0,1,31.7,27.5l-1.9.4L168.2,91.8,132.5,77.5a11.7,11.7,0,0,0-9,0L87.8,91.8,46.2,79.9l-1.9-.4A32.1,32.1,0,0,1,76,52Zm31.5,160L92.4,98.6l34.1-13.7a3.9,3.9,0,0,1,3,0l34.1,13.7L148.5,212Zm-41.1-3.1L39,92.4a4.2,4.2,0,0,1,1.1-3.9l1.3-.8c.1,0,.2,0,.2-.1a3.9,3.9,0,0,1,2.4,0L84.4,99.1,99.4,212H70.3A4.1,4.1,0,0,1,66.4,208.9ZM217,92.4,189.6,208.9a4.1,4.1,0,0,1-3.9,3.1H156.6l15-112.9L212,87.6a3.9,3.9,0,0,1,2.4,0c0,.1.1.1.2.1l1.3.8A4.2,4.2,0,0,1,217,92.4Z"/></svg>