<svg id="Flat" xmlns="http://www.w3.org/2000/svg" viewBox="0 0 256 256">
  <path d="M216,44H132V24a4,4,0,0,0-8,0V44H40A12.01312,12.01312,0,0,0,28,56V176a12.01312,12.01312,0,0,0,12,12H87.67773L60.877,221.501a3.99982,3.99982,0,1,0,6.2461,4.998L97.92236,188h60.15528L188.877,226.499a3.99982,3.99982,0,0,0,6.2461-4.998L168.32227,188H216a12.01312,12.01312,0,0,0,12-12V56A12.01312,12.01312,0,0,0,216,44Zm4,132a4.004,4.004,0,0,1-4,4H40a4.004,4.004,0,0,1-4-4V56a4.004,4.004,0,0,1,4-4H216a4.004,4.004,0,0,1,4,4ZM100,120v24a4,4,0,0,1-8,0V120a4,4,0,0,1,8,0Zm32-16v40a4,4,0,0,1-8,0V104a4,4,0,0,1,8,0Zm32-16v56a4,4,0,0,1-8,0V88a4,4,0,0,1,8,0Z"/>
</svg>
