<svg xmlns="http://www.w3.org/2000/svg" viewBox="0 0 256 256"><path d="M216,44H132V24a4,4,0,0,0-8,0V44H40A12,12,0,0,0,28,56V176a12,12,0,0,0,12,12H87.7L60.9,221.5a4,4,0,0,0,.6,5.6,3.8,3.8,0,0,0,2.5.9,3.9,3.9,0,0,0,3.1-1.5L97.9,188h60.2l30.8,38.5A3.9,3.9,0,0,0,192,228a3.8,3.8,0,0,0,2.5-.9,4,4,0,0,0,.6-5.6L168.3,188H216a12,12,0,0,0,12-12V56A12,12,0,0,0,216,44Zm4,132a4,4,0,0,1-4,4H40a4,4,0,0,1-4-4V56a4,4,0,0,1,4-4H216a4,4,0,0,1,4,4ZM100,120v24a4,4,0,0,1-8,0V120a4,4,0,0,1,8,0Zm32-16v40a4,4,0,0,1-8,0V104a4,4,0,0,1,8,0Zm32-16v56a4,4,0,0,1-8,0V88a4,4,0,0,1,8,0Z"/></svg>