<svg id="Flat" xmlns="http://www.w3.org/2000/svg" viewBox="0 0 256 256">
  <path d="M210.6665,76H196V40a4.0002,4.0002,0,0,0-4-4H64a4.0002,4.0002,0,0,0-4,4V76H45.3335C33.57031,76,24,84.97168,24,96v80a4.0002,4.0002,0,0,0,4,4H60v40a4.0002,4.0002,0,0,0,4,4H192a4.0002,4.0002,0,0,0,4-4V180h32a4.0002,4.0002,0,0,0,4-4V96C232,84.97168,222.42969,76,210.6665,76ZM68,44H188V76H68ZM188,216H68V156H188Zm36-44H196V152a4.0002,4.0002,0,0,0-4-4H64a4.0002,4.0002,0,0,0-4,4v20H32V96c0-6.61719,5.98145-12,13.3335-12h165.333C218.01855,84,224,89.38281,224,96Zm-27.99414-56a8,8,0,1,1-8-8A8.00917,8.00917,0,0,1,196.00586,116Z"/>
</svg>
