<svg id="Flat" xmlns="http://www.w3.org/2000/svg" viewBox="0 0 256 256">
  <path d="M193.99414,116a6,6,0,1,1-6-6A6,6,0,0,1,193.99414,116Zm38-20v80a4.0002,4.0002,0,0,1-4,4h-32v40a4.0002,4.0002,0,0,1-4,4h-128a4.0002,4.0002,0,0,1-4-4V180h-32a4.0002,4.0002,0,0,1-4-4V96c0-11.02832,9.57031-20,21.3335-20h14.6665V40a4.0002,4.0002,0,0,1,4-4h128a4.0002,4.0002,0,0,1,4,4V76h14.6665C222.42383,76,231.99414,84.97168,231.99414,96Zm-164-20h120V44h-120Zm120,80h-120v60h120Zm36-60c0-6.61719-5.98144-12-13.3335-12H45.32764c-7.35205,0-13.3335,5.38281-13.3335,12v76h28V152a4.0002,4.0002,0,0,1,4-4h128a4.0002,4.0002,0,0,1,4,4v20h28Z"/>
</svg>
