<svg id="Flat" xmlns="http://www.w3.org/2000/svg" viewBox="0 0 256 256">
  <path d="M87.24609,40a4.0002,4.0002,0,0,1,4-4H192a4,4,0,0,1,0,8H180.76807l19.58642,110.99023a4.00034,4.00034,0,1,1-7.8789,1.39063L172.64355,44H91.24609A4.0002,4.0002,0,0,1,87.24609,40ZM210.69043,218.96a4.00044,4.00044,0,0,1-5.65039-.269L169.86621,180H132v60a4,4,0,0,1-8,0V180H56.01025l-.00537.00049L55.99951,180H40a4,4,0,0,1,0-8H52.64355L70.51709,70.71582,45.04,42.69092A4.0003,4.0003,0,0,1,50.96,37.30908l160,176A4.001,4.001,0,0,1,210.69043,218.96ZM162.59375,172,77.3208,78.19971,60.76807,172Z"/>
</svg>
