<svg xmlns="http://www.w3.org/2000/svg" viewBox="0 0 256 256"><path d="M51,37.3a4,4,0,1,0-6,5.4L83.6,85.1c-11.4-2.3-31-2.7-51.5,13.8a12.3,12.3,0,0,0-4.5,8.8,11.9,11.9,0,0,0,3.5,9.1L82.3,168,45.2,205.2a3.9,3.9,0,0,0,0,5.6,3.9,3.9,0,0,0,5.6,0L88,173.7l51,51a12.3,12.3,0,0,0,8.5,3.5h.9a12.2,12.2,0,0,0,8.7-4.8c6.3-8.4,15.4-23.5,15.4-40.5L205,218.7a4.1,4.1,0,0,0,5.7.3,4.2,4.2,0,0,0,.3-5.7Zm99.7,181.3a4.1,4.1,0,0,1-2.9,1.6,3.6,3.6,0,0,1-3.1-1.2L36.8,111.1a4.2,4.2,0,0,1-1.2-3,4,4,0,0,1,1.5-2.9c27.2-22,52.1-10.1,53.1-9.6a4.2,4.2,0,0,0,3.1.2L163,172.5C168.4,191.2,157.6,209.4,150.7,218.6ZM232.7,96a12.3,12.3,0,0,1-3.5,8.5l-41.4,41.4a4,4,0,0,1-2.9,1.2,4.1,4.1,0,0,1-2.8-6.9l41.4-41.4a3.9,3.9,0,0,0,0-5.6L162.8,32.5a3.9,3.9,0,0,0-5.6,0l-38,38a4,4,0,1,1-5.7-5.7l38-38a12.2,12.2,0,0,1,17,0l60.7,60.7A12.3,12.3,0,0,1,232.7,96Z"/></svg>