<svg id="Flat" xmlns="http://www.w3.org/2000/svg" viewBox="0 0 256 256">
  <path d="M218.939,181.501a51.71477,51.71477,0,0,0-21.84326-32.6045,3.97639,3.97639,0,0,1-1.67675-2.9331L184.70068,38.80566A11.9627,11.9627,0,0,0,172.76025,28H83.23975A11.9627,11.9627,0,0,0,71.29932,38.80566L60.58105,145.96338a3.97639,3.97639,0,0,1-1.67675,2.9331A51.71477,51.71477,0,0,0,37.061,181.501a12.07245,12.07245,0,0,0,2.47021,10.09765A11.92125,11.92125,0,0,0,48.8042,196H124v44a4,4,0,0,0,8,0V196h75.1958a11.92125,11.92125,0,0,0,9.273-4.40137A12.07245,12.07245,0,0,0,218.939,181.501Zm-8.66943,5.041A3.90914,3.90914,0,0,1,207.1958,188H48.8042a3.90914,3.90914,0,0,1-3.07373-1.458,4.10279,4.10279,0,0,1-.83252-3.43359,43.75986,43.75986,0,0,1,18.48779-27.585,11.9513,11.9513,0,0,0,5.15576-8.76367L79.25977,39.60205a3.98682,3.98682,0,0,1,3.98-3.602h89.5205a3.98682,3.98682,0,0,1,3.98,3.602L187.4585,146.75977a11.9513,11.9513,0,0,0,5.15576,8.76367,43.75986,43.75986,0,0,1,18.48779,27.585A4.10279,4.10279,0,0,1,210.26953,186.542Z"/>
</svg>
