<svg id="Flat" xmlns="http://www.w3.org/2000/svg" viewBox="0 0 256 256">
  <path d="M232.68652,96a11.921,11.921,0,0,0-3.51562-8.48535L168.48535,26.82812a12.0157,12.0157,0,0,0-16.9707,0v.00049L91.06934,87.27344c-8.083-3.02344-32.79-9.46387-58.9795,11.66357a12.01279,12.01279,0,0,0-.96484,17.84424L82.34326,168,45.17188,205.17139a3.99992,3.99992,0,1,0,5.65625,5.65722L88,173.65674l51.02051,51.021a12.00814,12.00814,0,0,0,8.49219,3.51954q.42041,0,.84277-.02979a11.97148,11.97148,0,0,0,8.73047-4.74463c19.8291-26.355,16.50879-47.17383,11.71-58.5625l60.375-60.37451A11.92292,11.92292,0,0,0,232.68652,96Zm-9.17187,2.82861-62.34277,62.34326a4.00013,4.00013,0,0,0-.75,4.61719c10.42675,20.85254-1.62012,42.04639-9.72852,52.82373a3.99357,3.99357,0,0,1-6.01563.40821L36.78125,111.124a4.01376,4.01376,0,0,1,.332-5.96045c12.93848-10.4375,25.35938-13.22314,34.93457-13.22314a44.01032,44.01032,0,0,1,18.16309,3.63721,3.99978,3.99978,0,0,0,4.61719-.749L157.1709,32.48535h0a4.00666,4.00666,0,0,1,5.6582,0l60.68555,60.68652a3.99915,3.99915,0,0,1,0,5.65674Z"/>
</svg>
