<svg xmlns="http://www.w3.org/2000/svg" viewBox="0 0 256 256"><path d="M232.7,96a12.3,12.3,0,0,0-3.5-8.5L168.5,26.8a12.2,12.2,0,0,0-17,0h0L91.1,87.3c-8.1-3.1-32.8-9.5-59,11.6a12.3,12.3,0,0,0-4.5,8.8,11.9,11.9,0,0,0,3.5,9.1L82.3,168,45.2,205.2a3.9,3.9,0,0,0,0,5.6,3.9,3.9,0,0,0,5.6,0L88,173.7l51,51a12.3,12.3,0,0,0,8.5,3.5h.9a12.2,12.2,0,0,0,8.7-4.8c19.8-26.3,16.5-47.2,11.7-58.5l60.4-60.4A12.3,12.3,0,0,0,232.7,96Zm-9.2,2.8-62.3,62.4a4.1,4.1,0,0,0-.8,4.6c10.4,20.8-1.6,42-9.7,52.8a4.1,4.1,0,0,1-2.9,1.6,3.6,3.6,0,0,1-3.1-1.2L36.8,111.1a4.2,4.2,0,0,1-1.2-3,4,4,0,0,1,1.5-2.9C50.1,94.7,62.5,91.9,72,91.9s17.7,3.4,18.2,3.7a4.1,4.1,0,0,0,4.6-.8l62.4-62.3h0a3.9,3.9,0,0,1,5.6,0l60.7,60.7a3.9,3.9,0,0,1,0,5.6Z"/></svg>