<svg id="Flat" xmlns="http://www.w3.org/2000/svg" viewBox="0 0 256 256">
  <path d="M50.96,37.30957A4,4,0,0,0,45.04,42.69043l38.59424,42.4541c-11.416-2.39062-31.02295-2.76172-51.54444,13.79248a12.01279,12.01279,0,0,0-.96484,17.84424L82.34326,168,45.17188,205.17139a3.99992,3.99992,0,1,0,5.65625,5.65722L88,173.65674l51.02051,51.021a12.00814,12.00814,0,0,0,8.49219,3.51954q.42041,0,.84277-.02979a11.97039,11.97039,0,0,0,8.73047-4.74512c6.33252-8.4165,15.40625-23.479,15.38379-40.55859L205.04,218.69043a4,4,0,1,0,5.91992-5.38086Zm99.7334,181.30322a3.99357,3.99357,0,0,1-6.01563.40821L36.78125,111.124a4.01376,4.01376,0,0,1,.332-5.96045c27.17188-21.91943,52.06543-10.09375,53.09766-9.58593a3.99477,3.99477,0,0,0,3.08984.20019l69.71729,76.689C168.36816,191.2041,157.64355,209.374,150.69336,218.61279ZM232.68652,96a11.92292,11.92292,0,0,1-3.51562,8.48584l-41.4043,41.40381a3.99975,3.99975,0,1,1-5.65625-5.65674l41.4043-41.4043a3.99915,3.99915,0,0,0,0-5.65674L162.8291,32.48535a4.00621,4.00621,0,0,0-5.6582.00049l-37.97559,37.9751a3.99957,3.99957,0,1,1-5.65625-5.65625l37.97559-37.97608a12.01526,12.01526,0,0,1,16.9707-.00049L229.1709,87.51465A11.921,11.921,0,0,1,232.68652,96Z"/>
</svg>
