<svg id="Flat" xmlns="http://www.w3.org/2000/svg" viewBox="0 0 256 256">
  <path d="M79.97412,32a3.99989,3.99989,0,0,1,4-4h88.78613a11.9627,11.9627,0,0,1,11.94043,10.80566l11.11475,111.12305a3.99983,3.99983,0,1,1-7.96.7959l-11.11524-111.123A3.98678,3.98678,0,0,0,172.76025,36H83.97412A3.99989,3.99989,0,0,1,79.97412,32ZM225.18994,234.96045a4,4,0,0,1-5.65039-.27051L184.38379,196H132v44a4,4,0,0,1-8,0V196H48.8042a11.92125,11.92125,0,0,1-9.273-4.40137A12.07245,12.07245,0,0,1,37.061,181.501a51.71477,51.71477,0,0,1,21.84326-32.6045,3.97551,3.97551,0,0,0,1.67675-2.9331l7.76807-77.6626L30.53955,26.68994a4,4,0,0,1,5.9209-5.37988l152.46289,167.79a3.95555,3.95555,0,0,1,.30127.33154l36.23584,39.87842A3.9996,3.9996,0,0,1,225.18994,234.96045ZM177.11475,188,75.5918,76.27148l-7.0503,70.48829a11.94982,11.94982,0,0,1-5.15576,8.76367A43.76112,43.76112,0,0,0,44.898,183.1084a4.10279,4.10279,0,0,0,.83252,3.43359A3.90914,3.90914,0,0,0,48.8042,188Z"/>
</svg>
