<svg id="Flat" xmlns="http://www.w3.org/2000/svg" viewBox="0 0 256 256">
  <path d="M218.13721,161.9248a3.99269,3.99269,0,0,0-3.853-.23242,24.004,24.004,0,1,1-12.05078-45.6289,24.13184,24.13184,0,0,1,12.05078,2.24414A4.00028,4.00028,0,0,0,220,114.69434L219.99951,72A12.01354,12.01354,0,0,0,207.999,60l-41.00439.001A32.00614,32.00614,0,1,0,104.083,49.666a32.35032,32.35032,0,0,0,.93115,10.335L64,60A12.01343,12.01343,0,0,0,52,72l.00049,37.00488A32.0063,32.0063,0,1,0,41.666,171.917a32.35,32.35,0,0,0,10.33447-.93164L52,208a12.01312,12.01312,0,0,0,12,12H207.99951a12.01343,12.01343,0,0,0,12-12L220,165.30566A3.99856,3.99856,0,0,0,218.13721,161.9248ZM211.99951,208a4.00489,4.00489,0,0,1-4,4H64a4.00427,4.00427,0,0,1-4-4l.00049-42.69434a4.00036,4.00036,0,0,0-5.71631-3.61328A24.00314,24.00314,0,0,1,26.502,123.57422a24.02343,24.02343,0,0,1,27.78223-5.2666,4.00051,4.00051,0,0,0,5.71631-3.61328L60,72a4.00427,4.00427,0,0,1,4-4l46.69434.001h0a3.99952,3.99952,0,0,0,3.61328-5.71582,24.01013,24.01013,0,0,1,20.13476-34.23633,24.01351,24.01351,0,0,1,23.249,34.23633,4,4,0,0,0,3.61328,5.71582L207.99951,68a4.00489,4.00489,0,0,1,4,4L212,109.01465a32.37815,32.37815,0,0,0-10.335-.93164A32.00275,32.00275,0,1,0,212,170.99512Z"/>
</svg>
