<svg id="Flat" xmlns="http://www.w3.org/2000/svg" viewBox="0 0 256 256">
  <path d="M104.00244,44h-48a12.01312,12.01312,0,0,0-12,12v48a12.01312,12.01312,0,0,0,12,12h48a12.01312,12.01312,0,0,0,12-12V56A12.01312,12.01312,0,0,0,104.00244,44Zm4,60a4.004,4.004,0,0,1-4,4h-48a4.004,4.004,0,0,1-4-4V56a4.004,4.004,0,0,1,4-4h48a4.004,4.004,0,0,1,4,4Zm-4,36h-48a12.01312,12.01312,0,0,0-12,12v48a12.01312,12.01312,0,0,0,12,12h48a12.01312,12.01312,0,0,0,12-12V152A12.01312,12.01312,0,0,0,104.00244,140Zm4,60a4.004,4.004,0,0,1-4,4h-48a4.004,4.004,0,0,1-4-4V152a4.004,4.004,0,0,1,4-4h48a4.004,4.004,0,0,1,4,4Zm92-156h-48a12.01312,12.01312,0,0,0-12,12v48a12.01312,12.01312,0,0,0,12,12h48a12.01312,12.01312,0,0,0,12-12V56A12.01312,12.01312,0,0,0,200.00244,44Zm4,60a4.004,4.004,0,0,1-4,4h-48a4.004,4.004,0,0,1-4-4V56a4.004,4.004,0,0,1,4-4h48a4.004,4.004,0,0,1,4,4Zm-64,72V144a4,4,0,0,1,8,0v32a4,4,0,0,1-8,0Zm72-16a4.0002,4.0002,0,0,1-4,4h-28v44a4.0002,4.0002,0,0,1-4,4h-32a4,4,0,1,1,0-8h28V144a4,4,0,0,1,8,0v12h28A4.0002,4.0002,0,0,1,212.00244,160Zm0,32v16a4,4,0,0,1-8,0V192a4,4,0,0,1,8,0Z"/>
</svg>
