<svg id="Flat" xmlns="http://www.w3.org/2000/svg" viewBox="0 0 256 256">
  <path d="M216,76H59.25293L193.14941,35.83105a3.99976,3.99976,0,1,0-2.29882-7.6621l-160,48c-.06495.01953-.12067.05346-.1839.07592a3.97907,3.97907,0,0,0-.40107.16577c-.113.05445-.221.11353-.3269.17749-.11249.06812-.22015.14026-.325.21875-.10541.07886-.20551.16089-.30182.249-.09277.08471-.17981.173-.26428.266-.08722.09631-.16919.1947-.2464.29871-.07709.10327-.14746.20983-.21442.32055-.065.10791-.12463.2168-.17926.33032-.05682.11768-.10669.23731-.152.36109-.04473.12231-.0827.24536-.11547.37195-.03125.12121-.057.24292-.07679.36828a3.94437,3.94437,0,0,0-.0429.42481C28.01691,79.86609,28,79.93066,28,80V200a12.01312,12.01312,0,0,0,12,12H216a12.01312,12.01312,0,0,0,12-12V88A12.01312,12.01312,0,0,0,216,76Zm4,124a4.004,4.004,0,0,1-4,4H40a4.004,4.004,0,0,1-4-4V84H216a4.004,4.004,0,0,1,4,4Zm-60-92a36,36,0,1,0,36,36A36.04061,36.04061,0,0,0,160,108Zm0,64a28,28,0,1,1,28-28A28.03146,28.03146,0,0,1,160,172Zm-60-60a4.0002,4.0002,0,0,1-4,4H64a4,4,0,0,1,0-8H96A4.0002,4.0002,0,0,1,100,112Zm0,32a4.0002,4.0002,0,0,1-4,4H64a4,4,0,0,1,0-8H96A4.0002,4.0002,0,0,1,100,144Zm0,32a4.0002,4.0002,0,0,1-4,4H64a4,4,0,0,1,0-8H96A4.0002,4.0002,0,0,1,100,176Z"/>
</svg>
