<svg xmlns="http://www.w3.org/2000/svg" viewBox="0 0 256 256"><path d="M216,76H59.3L193.1,35.8a4,4,0,0,0-2.2-7.6l-160,48h-.2l-.4.2-.4.2-.3.2-.3.3-.3.2c0,.1-.1.2-.2.3l-.2.3c-.1.1-.1.3-.2.4s-.1.2-.1.3-.1.3-.2.4v.4a.6.6,0,0,0-.1.4V200a12,12,0,0,0,12,12H216a12,12,0,0,0,12-12V88A12,12,0,0,0,216,76Zm4,124a4,4,0,0,1-4,4H40a4,4,0,0,1-4-4V84H216a4,4,0,0,1,4,4Zm-60-92a36,36,0,1,0,36,36A36,36,0,0,0,160,108Zm0,64a28,28,0,1,1,28-28A28.1,28.1,0,0,1,160,172Zm-60-60a4,4,0,0,1-4,4H64a4,4,0,0,1,0-8H96A4,4,0,0,1,100,112Zm0,32a4,4,0,0,1-4,4H64a4,4,0,0,1,0-8H96A4,4,0,0,1,100,144Zm0,32a4,4,0,0,1-4,4H64a4,4,0,0,1,0-8H96A4,4,0,0,1,100,176Z"/></svg>