<svg xmlns="http://www.w3.org/2000/svg" viewBox="0 0 256 256"><path d="M200,116a44.2,44.2,0,0,0-42,30.9,24.6,24.6,0,0,0-6-.7c-15.4,0-28,13-28,28.9S136.6,204,152,204h48a44,44,0,0,0,0-88Zm0,80H152c-11,0-20-9.4-20-20.9s9-20.9,20-20.9a18.3,18.3,0,0,1,7.3,1.5,4.5,4.5,0,0,0,3.4-.2,4.2,4.2,0,0,0,2-2.7A36,36,0,1,1,200,196ZM20,160v16a4,4,0,0,1-8,0V160A100,100,0,0,1,181.7,88.3a4,4,0,1,1-5.6,5.7A91.2,91.2,0,0,0,112,68,92.1,92.1,0,0,0,20,160Zm92-60a60,60,0,0,0-60,60v16a4,4,0,0,1-8,0V160a68,68,0,0,1,108.2-54.8,4,4,0,0,1,.9,5.6,4.1,4.1,0,0,1-5.6.8A59.4,59.4,0,0,0,112,100Zm11.3,29.8a4.1,4.1,0,0,1-4.8,3A27.9,27.9,0,0,0,84,160v16a4,4,0,0,1-8,0V160a36,36,0,0,1,36-36,33.1,33.1,0,0,1,8.3,1A3.9,3.9,0,0,1,123.3,129.8Z"/></svg>