<svg id="Flat" xmlns="http://www.w3.org/2000/svg" viewBox="0 0 256 256">
  <path d="M200,116a44.15914,44.15914,0,0,0-42.00928,30.88477A27.22227,27.22227,0,0,0,152,146.22266c-15.43945,0-28,12.959-28,28.88867S136.56055,204,152,204h48a44,44,0,0,0,0-88Zm0,80H152c-11.02783,0-20-9.37109-20-20.88867s8.97217-20.88867,20-20.88867a19.13577,19.13577,0,0,1,7.293,1.43164,3.99909,3.99909,0,0,0,5.43555-2.90039A36.00371,36.00371,0,1,1,200,196ZM20,160v16a4,4,0,0,1-8,0V160A99.99944,99.99944,0,0,1,181.71436,88.30762a3.99961,3.99961,0,1,1-5.57715,5.73437A92.00023,92.00023,0,0,0,20,160Zm92-60a60.06812,60.06812,0,0,0-60,60v16a4,4,0,0,1-8,0V160a68.00478,68.00478,0,0,1,108.23584-54.82324,3.99979,3.99979,0,1,1-4.73828,6.44531A59.5216,59.5216,0,0,0,112,100Zm11.313,29.78906a4.001,4.001,0,0,1-4.81543,2.96778A28.02814,28.02814,0,0,0,84,160v16a4,4,0,0,1-8,0V160a36.02625,36.02625,0,0,1,44.34521-35.02637A3.999,3.999,0,0,1,123.313,129.78906Z"/>
</svg>
