<svg xmlns="http://www.w3.org/2000/svg" viewBox="0 0 256 256"><path d="M184,104a4,4,0,0,1-4,4H76a4,4,0,0,1,0-8H180A4,4,0,0,1,184,104Zm-4,28H76a4,4,0,0,0,0,8H180a4,4,0,0,0,0-8Zm48-76V208a4,4,0,0,1-5.8,3.6L192,196.5l-30.2,15.1a4.5,4.5,0,0,1-3.6,0L128,196.5,97.8,211.6a4.5,4.5,0,0,1-3.6,0L64,196.5,33.8,211.6a4.1,4.1,0,0,1-3.9-.2A3.9,3.9,0,0,1,28,208V56A12,12,0,0,1,40,44H216A12,12,0,0,1,228,56Zm-8,0a4,4,0,0,0-4-4H40a4,4,0,0,0-4,4V201.5l26.2-13.1a4.5,4.5,0,0,1,3.6,0L96,203.5l30.2-15.1a4.2,4.2,0,0,1,3.6,0L160,203.5l30.2-15.1a4.5,4.5,0,0,1,3.6,0L220,201.5Z"/></svg>