<svg id="Flat" xmlns="http://www.w3.org/2000/svg" viewBox="0 0 256 256">
  <path d="M184,104a4.0002,4.0002,0,0,1-4,4H76a4,4,0,0,1,0-8H180A4.0002,4.0002,0,0,1,184,104Zm-4,28H76a4,4,0,0,0,0,8H180a4,4,0,0,0,0-8Zm48-76V208a4.00006,4.00006,0,0,1-5.78906,3.57764L192,196.47217l-30.21094,15.10547a3.99824,3.99824,0,0,1-3.57812,0L128,196.47217,97.78906,211.57764a3.99824,3.99824,0,0,1-3.57812,0L64,196.47217,33.78906,211.57764A4,4,0,0,1,28,208V56A12.01343,12.01343,0,0,1,40,44H216A12.01343,12.01343,0,0,1,228,56Zm-8,0a4.00427,4.00427,0,0,0-4-4H40a4.00427,4.00427,0,0,0-4,4V201.52783l26.21094-13.10547a3.99824,3.99824,0,0,1,3.57812,0L96,203.52783l30.21094-15.10547a4.00029,4.00029,0,0,1,3.57812,0L160,203.52783l30.21094-15.10547a3.99824,3.99824,0,0,1,3.57812,0L220,201.52783Z"/>
</svg>
