<svg xmlns="http://www.w3.org/2000/svg" viewBox="0 0 256 256"><path d="M233.3,202A19.9,19.9,0,0,1,216,212H137.7l17.1,17.2a3.9,3.9,0,0,1,0,5.6,3.9,3.9,0,0,1-5.6,0l-24-24a3.9,3.9,0,0,1,0-5.6l24-24a4,4,0,0,1,5.6,5.6L137.7,204H216a12.1,12.1,0,0,0,10.4-6,12.2,12.2,0,0,0,0-12l-24-41.4a4.1,4.1,0,0,1,1.5-5.5,4,4,0,0,1,5.4,1.5l24,41.4A19.9,19.9,0,0,1,233.3,202ZM88,204H40a12.1,12.1,0,0,1-10.4-6,12.2,12.2,0,0,1,0-12l39.2-67.7,6.3,23.5a4.1,4.1,0,0,0,3.9,3l1-.2a3.9,3.9,0,0,0,2.8-4.9L74,106.9a3.6,3.6,0,0,0-1.8-2.4,4.2,4.2,0,0,0-3.1-.4l-32.7,8.8a4.1,4.1,0,0,0-2.9,4.9,4,4,0,0,0,4.9,2.8l23.5-6.3L22.7,182A20,20,0,0,0,40,212H88a4,4,0,0,0,0-8ZM138.4,34l39.1,67.6-23.4-6.3a4.1,4.1,0,0,0-4.9,2.9,4,4,0,0,0,2.8,4.9l32.8,8.7,1,.2a4.1,4.1,0,0,0,3.9-3l8.8-32.8a4,4,0,1,0-7.7-2l-6.3,23.4L145.3,30a20,20,0,0,0-34.6,0l-24,41.4a4,4,0,0,0,1.5,5.4,4,4,0,0,0,5.5-1.4L117.6,34a12,12,0,0,1,20.8,0Z"/></svg>