<svg id="Flat" xmlns="http://www.w3.org/2000/svg" viewBox="0 0 256 256">
  <path d="M233.30176,201.98242a19.79389,19.79389,0,0,1-17.3252,10.00977H137.65479l17.17431,17.17969a4.00026,4.00026,0,0,1-5.6582,5.65624l-24-24.00781c-.02979-.02978-.05078-.0664-.07959-.09692a4.0414,4.0414,0,0,1-.41358-.50464c-.05078-.07568-.08447-.16064-.12988-.2395a3.91149,3.91149,0,0,1-.23877-.44776c-.03955-.09375-.05859-.19458-.09033-.291a3.14591,3.14591,0,0,1-.21387-1.20093c-.00049-.01611-.00488-.03125-.00488-.04736v-.001a3.99829,3.99829,0,0,1,.08008-.7915,3.78885,3.78885,0,0,1,.13818-.45459c.03174-.09717.05127-.19824.09082-.29248a3.88139,3.88139,0,0,1,.24756-.46338c.04248-.07373.07373-.15308.12109-.22388a4.01738,4.01738,0,0,1,.436-.53149c.02148-.02246.03662-.04908.05811-.0708l24-23.99219a4.00026,4.00026,0,1,1,5.65624,5.6582l-17.16845,17.16309h78.31689a12.00033,12.00033,0,0,0,10.38574-18.01172l-23.95117-41.37793a4.00006,4.00006,0,1,1,6.92383-4.00781l23.95117,41.37793A19.79572,19.79572,0,0,1,233.30176,201.98242ZM88,203.99219H40.02344A12.00033,12.00033,0,0,1,29.6377,185.98047l39.15966-67.65381,6.29541,23.479a3.99982,3.99982,0,0,0,7.72657-2.07226l-8.79-32.78174-.001-.00464-.001-.00268c-.00537-.01978-.01562-.03736-.02148-.05713a4.02482,4.02482,0,0,0-.25293-.67066c-.03467-.071-.084-.13281-.12305-.20141a3.90452,3.90452,0,0,0-.28711-.46143c-.05761-.07544-.13037-.13794-.19287-.209a3.924,3.924,0,0,0-.33935-.36255,4.02957,4.02957,0,0,0-.52051-.37549c-.043-.0271-.07764-.06226-.12207-.08814l-.00195-.001-.00293-.002a4.02422,4.02422,0,0,0-.72266-.32592,3.85415,3.85415,0,0,0-.47559-.1106c-.0957-.02-.18945-.05273-.28662-.06543a3.95493,3.95493,0,0,0-.55078-.01806c-.07617.00073-.15185-.01148-.228-.00635a4.02535,4.02535,0,0,0-.77246.12817l-32.77636,8.78882a3.99981,3.99981,0,0,0,2.07226,7.72656l23.43262-6.2832-39.1416,67.623a20.00112,20.00112,0,0,0,17.30957,30.01953H88a4,4,0,0,0,0-8ZM138.38574,33.98828l39.14209,67.62354L154.09375,95.3291a3.99981,3.99981,0,0,0-2.07227,7.72656l32.77832,8.78809.00684.00146a4.08036,4.08036,0,0,0,.42725.08521c.02978.00464.06006.01367.08984.01758.12256.01587.24658.01953.37061.02417.04834.00146.09668.00928.14453.00928h.001a3.99888,3.99888,0,0,0,.59424-.04932c.05957-.009.11768-.02295.17627-.03467a3.96065,3.96065,0,0,0,.4082-.10254c.06495-.02026.12891-.0415.19288-.06518.125-.04615.248-.10035.3706-.15992.061-.02978.12305-.05737.18262-.09033.02441-.01367.05078-.02295.07519-.03711.04737-.02734.084-.06494.12989-.09375a3.99831,3.99831,0,0,0,.42089-.30371c.06934-.05762.13575-.1167.2002-.17846a4.04109,4.04109,0,0,0,.32178-.34888c.05469-.06665.11181-.13086.16211-.20044a3.92612,3.92612,0,0,0,.27-.4419c.03271-.0603.07177-.11694.10107-.179a3.97232,3.97232,0,0,0,.25342-.67969l.001-.00268.001-.00464,8.78906-32.78076a3.99981,3.99981,0,1,0-7.72656-2.07227L184.46875,97.6333,145.30957,29.98047a20.00061,20.00061,0,0,0-34.61914,0L86.74023,71.3584a4.00006,4.00006,0,0,0,6.92383,4.00781l23.9502-41.37793a12.00037,12.00037,0,0,1,20.77148,0Z"/>
</svg>
