<svg id="Flat" xmlns="http://www.w3.org/2000/svg" viewBox="0 0 256 256">
  <path d="M88,144a12,12,0,1,1,12-12A12.01343,12.01343,0,0,1,88,144Zm80-24a12,12,0,1,0,12,12A12.01343,12.01343,0,0,0,168,120Zm-8.80908,52.44629a68.09857,68.09857,0,0,1-62.38135,0,4.00047,4.00047,0,0,0-3.67041,7.10938,76.11882,76.11882,0,0,0,69.72217,0,4.00047,4.00047,0,0,0-3.67041-7.10938Zm73.853-46.23242A55.29134,55.29134,0,0,1,236,144c0,20.583-11.42969,39.832-32.18408,54.2002C183.51074,212.25783,156.585,220,128,220s-55.51074-7.74219-75.81592-21.7998C31.42969,183.83205,20,164.583,20,144a55.29134,55.29134,0,0,1,2.95605-17.78613A27.99862,27.99862,0,1,1,60.30029,84.71877c18.23877-10.30444,40.82227-16.15112,64.30274-16.668l7.45166-44.708a3.99718,3.99718,0,0,1,4.55371-3.29589l32.65478,5.02343a20.00239,20.00239,0,1,1-1.21386,7.90674L139.2959,28.55373l-6.58643,39.51953c23.00928.70215,45.09082,6.533,62.99024,16.64551A27.9985,27.9985,0,1,1,233.044,126.21389ZM176,32a12,12,0,1,0,12-12A12.01343,12.01343,0,0,0,176,32ZM226.169,121.22658a20.00232,20.00232,0,1,0-26.34522-28.99023,3.999,3.999,0,0,1-5.19336,1.13086c-.08642-.04785-.16992-.09961-.251-.15332-18.3247-11.09961-41.88574-17.21143-66.36621-17.21362l-.0083.00073L127.99414,76c-24.48291.001-48.04687,6.11328-66.37353,17.21387-.08106.05371-.16456.10547-.251.15332a3.998,3.998,0,0,1-5.19336-1.13086,20.00194,20.00194,0,1,0-26.34522,28.99023,4,4,0,0,1,1.62207,5.05762A47.669,47.669,0,0,0,28,144c0,37.49512,44.85986,68,100,68s100-30.50488,100-68a47.66989,47.66989,0,0,0-3.46631-17.74805A3.99966,3.99966,0,0,1,226.169,121.22658Z"/>
</svg>
