<svg xmlns="http://www.w3.org/2000/svg" viewBox="0 0 256 256"><path d="M88,144a12,12,0,1,1,12-12A12,12,0,0,1,88,144Zm80-24a12,12,0,1,0,12,12A12,12,0,0,0,168,120Zm-8.8,52.4a68,68,0,0,1-62.4,0,4,4,0,0,0-5.4,1.8,4.1,4.1,0,0,0,1.7,5.4,76.7,76.7,0,0,0,69.8,0,4.1,4.1,0,0,0,1.7-5.4A4,4,0,0,0,159.2,172.4ZM233,126.2a54.5,54.5,0,0,1,3,17.8c0,20.6-11.4,39.8-32.2,54.2S156.6,220,128,220s-55.5-7.7-75.8-21.8S20,164.6,20,144a54.5,54.5,0,0,1,3-17.8A28,28,0,0,1,40,76a28.2,28.2,0,0,1,20.3,8.7c18.2-10.3,40.8-16.1,64.3-16.6l7.5-44.8a4,4,0,0,1,4.5-3.3l32.7,5.1A19.8,19.8,0,1,1,168,33l-28.7-4.4-6.6,39.5c23,.7,45.1,6.5,63,16.6A28,28,0,0,1,244,104,27.9,27.9,0,0,1,233,126.2ZM176,32a12,12,0,1,0,12-12A12,12,0,0,0,176,32Zm50.2,89.2a20,20,0,1,0-26.4-29,4,4,0,0,1-5.2,1.2l-.2-.2C176.1,82.1,152.5,76,128,76h0c-24.5,0-48.1,6.1-66.4,17.2l-.2.2a4,4,0,0,1-5.2-1.2A20.3,20.3,0,0,0,40,84a20,20,0,0,0-10.2,37.2,4.1,4.1,0,0,1,1.7,5.1A47.3,47.3,0,0,0,28,144c0,37.5,44.9,68,100,68s100-30.5,100-68a47.3,47.3,0,0,0-3.5-17.7A4.1,4.1,0,0,1,226.2,121.2Z"/></svg>