<svg id="Flat" xmlns="http://www.w3.org/2000/svg" viewBox="0 0 256 256">
  <path d="M28,128A68.07728,68.07728,0,0,1,96,60H214.3429l-17.171-17.17188a3.99957,3.99957,0,0,1,5.65624-5.65624l23.99817,23.998a4.0187,4.0187,0,0,1,.50049.61182c.06458.09717.10877.20166.16419.30273a3.94721,3.94721,0,0,1,.20312.38574,3.90652,3.90652,0,0,1,.12549.4043c.03369.11426.07788.22363.10144.34229a4.0123,4.0123,0,0,1,0,1.5664c-.02356.11866-.06775.228-.10144.34229a3.90652,3.90652,0,0,1-.12549.4043,3.94721,3.94721,0,0,1-.20312.38574c-.05542.10107-.09961.20556-.16419.30273a4.04821,4.04821,0,0,1-.50012.61182l-23.99854,23.998a3.99957,3.99957,0,0,1-5.65624-5.65624L214.3429,68H96a60.06812,60.06812,0,0,0-60,60,4,4,0,0,1-8,0Zm196-4a4.0002,4.0002,0,0,0-4,4,60.06812,60.06812,0,0,1-60,60H41.6571l17.171-17.17188a3.99957,3.99957,0,0,0-5.65624-5.65624l-23.99817,23.998a4.02228,4.02228,0,0,0-.50049.61182c-.065.09765-.1095.20312-.1651.3042a3.97021,3.97021,0,0,0-.20215.38427,3.93036,3.93036,0,0,0-.126.40577c-.03345.11377-.07757.22265-.10095.34082a4.0123,4.0123,0,0,0,0,1.5664c.02338.11817.0675.22705.10095.34082a3.93036,3.93036,0,0,0,.126.40577,3.97021,3.97021,0,0,0,.20215.38427c.0556.10108.1001.20655.1651.3042a4.045,4.045,0,0,0,.50018.61182l23.99848,23.998a3.99957,3.99957,0,1,0,5.65624-5.65624L41.6571,196H160a68.07728,68.07728,0,0,0,68-68A4.0002,4.0002,0,0,0,224,124Zm-92,32a4.0002,4.0002,0,0,0,4-4V104a3.99947,3.99947,0,0,0-5.78711-3.57812l-16,7.99267a3.99981,3.99981,0,0,0,3.57422,7.15674L128,110.46973V152A4.0002,4.0002,0,0,0,132,156Z"/>
</svg>
