<svg id="Flat" xmlns="http://www.w3.org/2000/svg" viewBox="0 0 256 256">
  <path d="M128,28A100,100,0,1,0,228,128,100.113,100.113,0,0,0,128,28Zm0,192a92,92,0,1,1,92-92A92.10447,92.10447,0,0,1,128,220ZM173.8877,92.47314a4.00329,4.00329,0,0,0-4.10645.19874l-48,32a3.99979,3.99979,0,0,0,0,6.65625l48,32A3.99968,3.99968,0,0,0,176,160V96A4.00005,4.00005,0,0,0,173.8877,92.47314ZM168,152.52588,131.21094,128,168,103.47412ZM117.8877,92.47314a4.0034,4.0034,0,0,0-4.10645.19874l-48,32a3.99979,3.99979,0,0,0,0,6.65625l48,32A3.99968,3.99968,0,0,0,120,160V96A4.00005,4.00005,0,0,0,117.8877,92.47314ZM112,152.52588,75.21094,128,112,103.47412Z"/>
</svg>
