<svg id="Flat" xmlns="http://www.w3.org/2000/svg" viewBox="0 0 256 256">
  <path d="M225.751,60.12109a11.8414,11.8414,0,0,0-12.24024.438l-89.206,57.34668A11.95176,11.95176,0,0,0,120,122.79248V70.65332a12.0001,12.0001,0,0,0-18.48926-10.09424l-89.206,57.34668a12.00038,12.00038,0,0,0,0,20.18848l89.20605,57.34668A12.0001,12.0001,0,0,0,120,185.34668V133.20752a11.95176,11.95176,0,0,0,4.30469,4.88672l89.20605,57.34668A12.0001,12.0001,0,0,0,232,185.34668V70.65332A11.84045,11.84045,0,0,0,225.751,60.12109ZM112,185.34668a4,4,0,0,1-6.16309,3.36475l-89.206-57.34668a4.00014,4.00014,0,0,1,0-6.7295l89.20605-57.34668a3.88933,3.88933,0,0,1,2.13282-.65136,4.14548,4.14548,0,0,1,1.94726.50537A3.9192,3.9192,0,0,1,112,70.65332Zm112,0a4,4,0,0,1-6.16309,3.36475l-89.206-57.34668a4.00014,4.00014,0,0,1,0-6.7295l89.206-57.34668a3.88933,3.88933,0,0,1,2.13282-.65136,4.14548,4.14548,0,0,1,1.94726.50537A3.9192,3.9192,0,0,1,224,70.65332Z"/>
</svg>
