<svg xmlns="http://www.w3.org/2000/svg" viewBox="0 0 256 256"><path d="M128,28A100,100,0,1,0,228,128,100.2,100.2,0,0,0,128,28Zm0,192a92,92,0,1,1,92-92A92.1,92.1,0,0,1,128,220ZM173.9,92.5a4,4,0,0,0-4.1.2l-48,32a3.9,3.9,0,0,0,0,6.6l48,32a3.6,3.6,0,0,0,2.2.7,4.5,4.5,0,0,0,1.9-.5A3.9,3.9,0,0,0,176,160V96A3.9,3.9,0,0,0,173.9,92.5Zm-5.9,60L131.2,128,168,103.5Zm-50.1-60a4,4,0,0,0-4.1.2l-48,32a3.9,3.9,0,0,0,0,6.6l48,32a3.6,3.6,0,0,0,2.2.7,4.5,4.5,0,0,0,1.9-.5A3.9,3.9,0,0,0,120,160V96A3.9,3.9,0,0,0,117.9,92.5Zm-5.9,60L75.2,128,112,103.5Z"/></svg>