<svg xmlns="http://www.w3.org/2000/svg" viewBox="0 0 256 256"><path d="M97.9,185.8c-5.1,15.2-17.2,26.3-35.1,32.3a87.1,87.1,0,0,1-25.3,4.4,4,4,0,0,1-4-4,87.1,87.1,0,0,1,4.4-25.3c6-17.9,17.1-30,32.3-35.1a4,4,0,0,1,5,2.6,3.9,3.9,0,0,1-2.5,5c-24.9,8.3-29.9,37.5-31,48.6,11.1-1.1,40.3-6.1,48.6-31a3.9,3.9,0,0,1,5-2.5A4,4,0,0,1,97.9,185.8Zm100.8-77.6-10.1,10.1v63a11.9,11.9,0,0,1-3.5,8.4l-32.4,32.4a11.9,11.9,0,0,1-8.5,3.5,14.8,14.8,0,0,1-3.5-.5,11.9,11.9,0,0,1-8.2-9.1l-8.2-40.8L80.8,131.7l-40.7-8.2a11.9,11.9,0,0,1-9.2-8.2,12,12,0,0,1,3-12L66.3,70.9a11.9,11.9,0,0,1,8.4-3.5h63l10.1-10.1c27.3-27.3,55.1-26.6,65.8-25a12.1,12.1,0,0,1,10.1,10.1C225.3,53.1,226,80.9,198.7,108.2ZM41.6,115.7l39.8,8,48.3-48.3h-55a3.9,3.9,0,0,0-2.8,1.2L39.6,108.9a4.1,4.1,0,0,0,2,6.8Zm139,10.6-48.3,48.3,8,39.8a4.1,4.1,0,0,0,6.8,2l32.3-32.3a3.9,3.9,0,0,0,1.2-2.8Zm12.5-23.8c24.7-24.7,24.1-49.4,22.6-58.9a3.8,3.8,0,0,0-3.3-3.3c-9.5-1.5-34.2-2.1-58.9,22.6L142.1,74.3h0L88.4,128,128,167.6l53.7-53.7h0Z"/></svg>