<svg id="Flat" xmlns="http://www.w3.org/2000/svg" viewBox="0 0 256 256">
  <path d="M97.85352,185.8335c-5.04,15.11914-17.16211,26.26318-35.05664,32.228a88.27924,88.27924,0,0,1-25.30665,4.44825,4.0002,4.0002,0,0,1-4-4,88.27688,88.27688,0,0,1,4.44825-25.30665C43.90332,175.30859,55.04785,163.186,70.167,158.14648a3.99987,3.99987,0,1,1,2.5293,7.58936c-24.91016,8.30371-29.93945,37.49268-30.95215,48.52,11.02344-1.01172,40.21582-6.04,48.51953-30.95215a4.00018,4.00018,0,0,1,7.58985,2.52979ZM198.71,108.20117l-10.1416,10.1416v62.91211a11.92374,11.92374,0,0,1-3.51367,8.48487L152.71191,222.082A11.99995,11.99995,0,0,1,132.46,215.9502l-8.14429-40.72315-43.54223-43.542L40.05078,123.54a11.99947,11.99947,0,0,1-6.13281-20.252l32.3418-32.3418a11.925,11.925,0,0,1,8.48535-3.51465h62.91162l10.14209-10.14258c27.30078-27.30078,55.10351-26.54,65.78906-24.94531a11.90048,11.90048,0,0,1,10.06836,10.06738C225.251,53.09766,226.01172,80.89941,198.71,108.20117ZM41.61914,115.69531l39.81152,7.9624,48.2262-48.22607H74.74512a3.97492,3.97492,0,0,0-2.8291,1.17188l-32.3418,32.3413a4.00043,4.00043,0,0,0,2.04492,6.75049Zm138.94922,10.64746-48.22669,48.227,7.962,39.811a4.00088,4.00088,0,0,0,6.75195,2.04394l32.3418-32.34179a3.97415,3.97415,0,0,0,1.1709-2.82813ZM193.05371,102.544c24.72852-24.729,24.10547-49.46436,22.69043-58.95118a3.946,3.946,0,0,0-3.33594-3.33691c-9.48925-1.415-34.22461-2.03809-58.95312,22.69043l-11.31262,11.3125-.00135.00146L88.40234,128,128,167.59814l53.73962-53.73974.00086-.001Z"/>
</svg>
