<svg id="Flat" xmlns="http://www.w3.org/2000/svg" viewBox="0 0 256 256">
  <path d="M96.0835,159.917A67.55611,67.55611,0,0,1,116,208a4,4,0,0,1-8,0,59.99963,59.99963,0,0,0-60-60,4,4,0,0,1,0-8A67.55652,67.55652,0,0,1,96.0835,159.917ZM48,92a4,4,0,0,0,0,8A108.00117,108.00117,0,0,1,156,208a4,4,0,0,0,8,0A116.00158,116.00158,0,0,0,48,92Zm115.96582.03516A162.93063,162.93063,0,0,0,48,44a4,4,0,0,0,0,8A154.979,154.979,0,0,1,158.30859,97.69141,154.97813,154.97813,0,0,1,204,208a4,4,0,0,0,8,0A162.927,162.927,0,0,0,163.96582,92.03516ZM52,196a8,8,0,1,0,8,8A8.00917,8.00917,0,0,0,52,196Z"/>
</svg>
