<svg xmlns="http://www.w3.org/2000/svg" viewBox="0 0 256 256"><path d="M229.2,79.5,176.5,26.8a12.2,12.2,0,0,0-17,0L26.8,159.5a12.1,12.1,0,0,0,0,17l52.7,52.7a12.1,12.1,0,0,0,17,0L229.2,96.5a12.1,12.1,0,0,0,0-17Zm-5.7,11.3h0L90.8,223.5a3.9,3.9,0,0,1-5.6,0L32.5,170.8a3.9,3.9,0,0,1,0-5.6L60,137.7l29.2,29.1a3.9,3.9,0,0,0,5.6,0,3.9,3.9,0,0,0,0-5.6L65.7,132,96,101.7l29.2,29.1a3.9,3.9,0,0,0,5.6,0,3.9,3.9,0,0,0,0-5.6L101.7,96,132,65.7l29.2,29.1a3.9,3.9,0,0,0,5.6,0,3.9,3.9,0,0,0,0-5.6L137.7,60l27.5-27.5a3.9,3.9,0,0,1,5.6,0l52.7,52.7a3.9,3.9,0,0,1,0,5.6Z"/></svg>