<svg id="Flat" xmlns="http://www.w3.org/2000/svg" viewBox="0 0 256 256">
  <path d="M229.1709,79.51465,176.48535,26.82812a12.0157,12.0157,0,0,0-16.9707,0L26.8291,159.51465a11.998,11.998,0,0,0,0,16.9707l52.68555,52.68652a12.01686,12.01686,0,0,0,16.9707,0L229.1709,96.48535a11.998,11.998,0,0,0,0-16.9707Zm-5.65625,11.31347h0L90.8291,223.51465a4.00621,4.00621,0,0,1-5.6582,0L32.48535,170.82812a3.99855,3.99855,0,0,1,0-5.65625L60,137.65674l29.17188,29.17138a3.99957,3.99957,0,0,0,5.65625-5.65625L65.65674,132,96,101.65674l29.17188,29.17138a3.99957,3.99957,0,1,0,5.65625-5.65625L101.65674,96,132,65.65674l29.17188,29.17138a3.99957,3.99957,0,0,0,5.65625-5.65625L137.65674,60,165.1709,32.48535a4.00681,4.00681,0,0,1,5.6582,0l52.68555,52.68652a3.99855,3.99855,0,0,1,0,5.65625Z"/>
</svg>
