<svg xmlns="http://www.w3.org/2000/svg" viewBox="0 0 256 256"><path d="M235.7,134.5l-32-80h0c-.1,0-.1-.1-.1-.2l-.3-.4c0-.1-.1-.1-.1-.2s-.2-.3-.4-.4a.1.1,0,0,0-.1-.1,1,1,0,0,0-.5-.4H202l-.4-.3h-2.5L132,67V40a4,4,0,0,0-8,0V68.8L55.1,84.1H55l-.5.2h-.2l-.6.3h-.1l-.4.4H53l-.3.4c0,.1-.1.1-.1.2l-.3.6h0l-32,80A4,4,0,0,0,20,168c0,20.4,22.1,28,36,28s36-7.6,36-28a4,4,0,0,0-.3-1.5L61.5,90.9,124,77V212H104a4,4,0,0,0,0,8h48a4,4,0,0,0,0-8H132V75.2l61.5-13.7-29.2,73a4,4,0,0,0-.3,1.5c0,20.4,22.1,28,36,28s36-7.6,36-28A4,4,0,0,0,235.7,134.5ZM56,188c-7.2,0-27.4-3.6-28-19.3L56,98.8l28,69.9C83.4,184.4,63.2,188,56,188Zm144-32c-7.2,0-27.4-3.6-28-19.3l28-69.9,28,69.9C227.4,152.4,207.2,156,200,156Z"/></svg>