<svg xmlns="http://www.w3.org/2000/svg" viewBox="0 0 256 256"><path d="M220,40V80a4,4,0,0,1-8,0V44H176a4,4,0,0,1,0-8h40A4,4,0,0,1,220,40ZM80,212H44V176a4,4,0,0,0-8,0v40a4,4,0,0,0,4,4H80a4,4,0,0,0,0-8Zm136-40a4,4,0,0,0-4,4v36H176a4,4,0,0,0,0,8h40a4,4,0,0,0,4-4V176A4,4,0,0,0,216,172ZM40,84a4,4,0,0,0,4-4V44H80a4,4,0,0,0,0-8H40a4,4,0,0,0-4,4V80A4,4,0,0,0,40,84Zm128,96H88a12,12,0,0,1-12-12V88A12,12,0,0,1,88,76h80a12,12,0,0,1,12,12v80A12,12,0,0,1,168,180Zm4-92a4,4,0,0,0-4-4H88a4,4,0,0,0-4,4v80a4,4,0,0,0,4,4h80a4,4,0,0,0,4-4Z"/></svg>