<svg id="Flat" xmlns="http://www.w3.org/2000/svg" viewBox="0 0 256 256">
  <path d="M161.0332,110.87207a3.99936,3.99936,0,0,1,1.04248-5.55957l67.66553-46.29785a3.99966,3.99966,0,1,1,4.51758,6.60156l-67.66553,46.29785a3.99937,3.99937,0,0,1-5.56006-1.042Zm74.26807,85.07129a3.99937,3.99937,0,0,1-5.56006,1.042l-93.74145-64.13891-47.532,32.52221a32.02226,32.02226,0,1,1-5.84033-7.9956c.45484.45483.88892.92431,1.31275,1.40088l44.97656-30.77369L83.9397,97.22632c-.42359.47656-.85767.946-1.31226,1.40063a31.90036,31.90036,0,1,1,5.84009-7.99511l49.69018,33.99853.01221.0083,96.08887,65.74512A3.99936,3.99936,0,0,1,235.30127,195.94336ZM76.9707,92.9707a24.27488,24.27488,0,0,0,2.81568-3.38623c.00708-.01074.011-.02295.01831-.03369.00976-.0144.023-.0249.033-.03906a24.011,24.011,0,1,0-2.86744,3.459ZM84,180a23.82507,23.82507,0,0,0-4.14844-13.4917c-.0144-.02051-.03174-.03809-.0459-.05908-.0061-.00879-.00927-.0188-.01513-.02783a24.25677,24.25677,0,0,0-2.81983-3.39209,24.00019,24.00019,0,1,0-.00049,33.9414h.00049A23.84539,23.84539,0,0,0,84,180Z"/>
</svg>
