<svg xmlns="http://www.w3.org/2000/svg" viewBox="0 0 256 256"><path d="M161,110.9a4.1,4.1,0,0,1,1.1-5.6L229.7,59a4,4,0,0,1,4.6,6.6l-67.7,46.3a3.9,3.9,0,0,1-2.3.7A4.2,4.2,0,0,1,161,110.9Zm74.3,85a4,4,0,0,1-5.6,1.1L136,132.8,88.5,165.4A32.1,32.1,0,0,1,60,212a32,32,0,0,1-22.6-54.6,31.9,31.9,0,0,1,45.2,0,8.6,8.6,0,0,1,1.3,1.4l45-30.8-45-30.8a8.6,8.6,0,0,1-1.3,1.4,31.9,31.9,0,0,1-45.2,0,31.9,31.9,0,0,1,0-45.2,31.9,31.9,0,0,1,45.2,0,32,32,0,0,1,5.9,37.2l49.7,34h0l96.1,65.8A4,4,0,0,1,235.3,195.9ZM77,93a29.7,29.7,0,0,0,2.8-3.4h0A23.7,23.7,0,0,0,84,76a24.2,24.2,0,0,0-7-17,24.1,24.1,0,0,0-34,0A24,24,0,0,0,77,93Zm7,87a24.6,24.6,0,0,0-4.1-13.5h-.1A29.7,29.7,0,0,0,77,163a24.1,24.1,0,0,0-34,0,24,24,0,0,0,34,34h0A24.2,24.2,0,0,0,84,180Z"/></svg>