<svg xmlns="http://www.w3.org/2000/svg" viewBox="0 0 256 256"><path d="M243.1,157.4a155.1,155.1,0,0,0-60.5-41c-1.7-18-8.2-34.4-18.9-46.9C149.4,52.8,128.8,44,104,44,54.5,44,22.1,88.6,20.7,90.5a4,4,0,0,0,6.6,4.6C27.6,94.7,58.7,52,104,52c22.4,0,40.9,7.9,53.6,22.7,8.9,10.4,14.6,24,16.6,38.9A134.4,134.4,0,0,0,136,108c-25.1,0-46.1,6.5-60.7,18.8-12.6,10.6-19.9,25.3-19.9,40.4a43.8,43.8,0,0,0,12.7,31.3C77,207.3,89.4,212,104,212c24,0,44.4-9.5,59-27.4,12.7-15.6,20-37.1,20-59v-.3c33.7,13.4,53.7,36.9,53.9,37.3a4,4,0,0,0,6.2-5.2ZM104,204c-27.9,0-40.6-19.1-40.6-36.8,0-24.6,22.7-51.2,72.6-51.2a125.5,125.5,0,0,1,39,6.3v3.3C175,177.1,139.3,204,104,204Z"/></svg>