<svg xmlns="http://www.w3.org/2000/svg" viewBox="0 0 256 256"><path d="M100,104a4,4,0,0,1,4-4h64a4,4,0,0,1,0,8H104A4,4,0,0,1,100,104Zm68,36a4,4,0,0,0,0-8H104a4,4,0,0,0,0,8Zm60,52a28.1,28.1,0,0,1-28,28H88a28.1,28.1,0,0,1-28-28V64a20,20,0,0,0-40,0,19.7,19.7,0,0,0,5.1,13.3,4,4,0,1,1-6,5.4A28,28,0,0,1,40,36H176a28.1,28.1,0,0,1,28,28V172h13.9a4.3,4.3,0,0,1,3,1.3A28.1,28.1,0,0,1,228,192Zm-120,0a19.7,19.7,0,0,0-5.1-13.3,4.2,4.2,0,0,1-.7-4.3,4,4,0,0,1,3.7-2.4H196V64a20.1,20.1,0,0,0-20-20H59.6A27.9,27.9,0,0,1,68,64V192a20,20,0,0,0,40,0Zm112,0a19.7,19.7,0,0,0-4-12H113.3a27.4,27.4,0,0,1,2.7,12,27.9,27.9,0,0,1-8.4,20H200A20.1,20.1,0,0,0,220,192Z"/></svg>