<svg xmlns="http://www.w3.org/2000/svg" viewBox="0 0 256 256"><path d="M108,40a4,4,0,0,1,4-4h32a4,4,0,0,1,0,8H112A4,4,0,0,1,108,40Zm36,172H112a4,4,0,0,0,0,8h32a4,4,0,0,0,0-8ZM208,36H184a4,4,0,0,0,0,8h24a4,4,0,0,1,4,4V72a4,4,0,0,0,8,0V48A12,12,0,0,0,208,36Zm8,72a4,4,0,0,0-4,4v32a4,4,0,0,0,8,0V112A4,4,0,0,0,216,108ZM40,148a4,4,0,0,0,4-4V112a4,4,0,0,0-8,0v32A4,4,0,0,0,40,148Zm32,64H48a4,4,0,0,1-4-4V184a4,4,0,0,0-8,0v24a12,12,0,0,0,12,12H72a4,4,0,0,0,0-8ZM51,37.3a4,4,0,1,0-6,5.4l160,176a4.1,4.1,0,0,0,5.7.3,4.2,4.2,0,0,0,.3-5.7Z"/></svg>