<svg id="Flat" xmlns="http://www.w3.org/2000/svg" viewBox="0 0 256 256">
  <path d="M159.999,83.99414h-112a12.01343,12.01343,0,0,0-12,12v112a12.01343,12.01343,0,0,0,12,12h112a12.01343,12.01343,0,0,0,12-12v-112A12.01343,12.01343,0,0,0,159.999,83.99414Zm4,124a4.00426,4.00426,0,0,1-4,4h-112a4.00427,4.00427,0,0,1-4-4v-112a4.00428,4.00428,0,0,1,4-4h112a4.00427,4.00427,0,0,1,4,4ZM140,40a4.0002,4.0002,0,0,1,4-4h16a4,4,0,0,1,0,8H144A4.0002,4.0002,0,0,1,140,40Zm80,8v8a4,4,0,0,1-8,0V48a4.00427,4.00427,0,0,0-4-4h-8a4,4,0,0,1,0-8h8A12.01343,12.01343,0,0,1,220,48Zm0,48v16a4,4,0,0,1-8,0V96a4,4,0,0,1,8,0Zm0,56v8a12.01343,12.01343,0,0,1-12,12h-8a4,4,0,0,1,0-8h8a4.00427,4.00427,0,0,0,4-4v-8a4,4,0,0,1,8,0ZM84,56V48A12.01343,12.01343,0,0,1,96,36h8a4,4,0,0,1,0,8H96a4.00427,4.00427,0,0,0-4,4v8a4,4,0,0,1-8,0Z"/>
</svg>
