<svg id="Flat" xmlns="http://www.w3.org/2000/svg" viewBox="0 0 256 256">
  <path d="M148,216a4.0002,4.0002,0,0,1-4,4H112a4,4,0,0,1,0-8h32A4.0002,4.0002,0,0,1,148,216ZM40,148a4.0002,4.0002,0,0,0,4-4V112a4,4,0,0,0-8,0v32A4.0002,4.0002,0,0,0,40,148Zm32,64H48a4.00427,4.00427,0,0,1-4-4V184a4,4,0,0,0-8,0v24a12.01343,12.01343,0,0,0,12,12H72a4,4,0,0,0,0-8Zm148-4a11.95612,11.95612,0,0,1-3.44678,8.40234c-.02514.02637-.042.05713-.06787.083s-.05664.04273-.08276.06763A11.95677,11.95677,0,0,1,208,220H184a4,4,0,0,1,0-8h22.34277L44,49.65625V72a4,4,0,0,1-8,0V48a11.95612,11.95612,0,0,1,3.44678-8.40234c.02514-.02637.042-.05713.06787-.083s.05664-.04273.08276-.06763A11.95634,11.95634,0,0,1,48,36H208a12.01343,12.01343,0,0,1,12,12ZM208,44H49.65723L212,206.34375V48A4.00427,4.00427,0,0,0,208,44Z"/>
</svg>
