<svg xmlns="http://www.w3.org/2000/svg" viewBox="0 0 256 256"><path d="M148,216a4,4,0,0,1-4,4H112a4,4,0,0,1,0-8h32A4,4,0,0,1,148,216ZM40,148a4,4,0,0,0,4-4V112a4,4,0,0,0-8,0v32A4,4,0,0,0,40,148Zm32,64H48a4,4,0,0,1-4-4V184a4,4,0,0,0-8,0v24a12,12,0,0,0,12,12H72a4,4,0,0,0,0-8Zm148-4a12,12,0,0,1-3.4,8.4h-.2A12,12,0,0,1,208,220H184a4,4,0,0,1,0-8h22.3L44,49.7V72a4,4,0,0,1-8,0V48a12,12,0,0,1,3.4-8.4.1.1,0,0,0,.1-.1.1.1,0,0,0,.1-.1A12,12,0,0,1,48,36H208a12,12,0,0,1,12,12ZM208,44H49.7L212,206.3V48A4,4,0,0,0,208,44Z"/></svg>