<svg id="Flat" xmlns="http://www.w3.org/2000/svg" viewBox="0 0 256 256">
  <path d="M108,40a4.0002,4.0002,0,0,1,4-4h32a4,4,0,0,1,0,8H112A4.0002,4.0002,0,0,1,108,40Zm36,172H112a4,4,0,0,0,0,8h32a4,4,0,0,0,0-8ZM208,36H184a4,4,0,0,0,0,8h24a4.00458,4.00458,0,0,1,4,4V71.99951a4,4,0,0,0,8,0V48A12.01375,12.01375,0,0,0,208,36Zm8,71.99951a4.0002,4.0002,0,0,0-4,4v32a4,4,0,0,0,8,0v-32A4.0002,4.0002,0,0,0,216,107.99951Zm-176,40a4.0002,4.0002,0,0,0,4-4v-32a4,4,0,1,0-8,0v32A4.0002,4.0002,0,0,0,40,147.99951ZM72,212H48a4.00427,4.00427,0,0,1-4-4V184a4,4,0,0,0-8,0v24a12.01343,12.01343,0,0,0,12,12H72a4,4,0,0,0,0-8ZM50.96,37.30908A4.0003,4.0003,0,0,0,45.04,42.69092l160,175.99951a4,4,0,1,0,5.91992-5.38086Z"/>
</svg>
