<svg id="Flat" xmlns="http://www.w3.org/2000/svg" viewBox="0 0 256 256">
  <path d="M144,48a4.0002,4.0002,0,0,1-4,4H116a4,4,0,0,1,0-8h24A4.0002,4.0002,0,0,1,144,48Zm-4,156H116a4,4,0,0,0,0,8h24a4,4,0,0,0,0-8ZM180,52h20a4.00458,4.00458,0,0,1,4,4V76a4,4,0,0,0,8,0V56a12.01375,12.01375,0,0,0-12-12H180a4,4,0,0,0,0,8Zm28,59.99951a4.0002,4.0002,0,0,0-4,4v24a4,4,0,0,0,8,0v-24A4.0002,4.0002,0,0,0,208,111.99951Zm-160,32a4.0002,4.0002,0,0,0,4-4v-24a4,4,0,1,0-8,0v24A4.0002,4.0002,0,0,0,48,143.99951ZM76,204H56a4.00458,4.00458,0,0,1-4-4V180a4,4,0,0,0-8,0v20a12.01375,12.01375,0,0,0,12,12H76a4,4,0,0,0,0-8ZM76,44H56A12.01375,12.01375,0,0,0,44,56V76a4,4,0,0,0,8,0V56a4.00458,4.00458,0,0,1,4-4H76a4,4,0,0,0,0-8ZM236,204H212V180a4,4,0,0,0-8,0v24H180a4,4,0,0,0,0,8h24v24a4,4,0,0,0,8,0V212h24a4,4,0,0,0,0-8Z"/>
</svg>
