<svg id="Flat" xmlns="http://www.w3.org/2000/svg" viewBox="0 0 256 256">
  <path d="M60,216a4.0002,4.0002,0,0,1-4,4H48a12.01343,12.01343,0,0,1-12-12v-8a4,4,0,0,1,8,0v8a4.00427,4.00427,0,0,0,4,4h8A4.0002,4.0002,0,0,1,60,216Zm52-4H96a4,4,0,0,0,0,8h16a4,4,0,0,0,0-8ZM40,164a4.0002,4.0002,0,0,0,4-4V144a4,4,0,0,0-8,0v16A4.0002,4.0002,0,0,0,40,164Zm128,32a4.0002,4.0002,0,0,0-4,4v8a4.00427,4.00427,0,0,1-4,4h-8a4,4,0,0,0,0,8h8a12.01343,12.01343,0,0,0,12-12v-8A4.0002,4.0002,0,0,0,168,196Zm0-88a4.0002,4.0002,0,0,0,4-4V96a12.01343,12.01343,0,0,0-12-12h-8a4,4,0,0,0,0,8h8a4.00427,4.00427,0,0,1,4,4v8A4.0002,4.0002,0,0,0,168,108ZM56,84H48A12.01343,12.01343,0,0,0,36,96v8a4,4,0,0,0,8,0V96a4.00427,4.00427,0,0,1,4-4h8a4,4,0,0,0,0-8ZM207.999,35.99414h-112a12.01343,12.01343,0,0,0-12,12V88a4.0002,4.0002,0,0,0,4,4H112a4,4,0,0,0,0-8H91.999V47.99414a4.00428,4.00428,0,0,1,4-4h112a4.00427,4.00427,0,0,1,4,4v112a4.00426,4.00426,0,0,1-4,4H172V144a4,4,0,0,0-8,0v24a4.0002,4.0002,0,0,0,4,4c.02,0,.03833-.00562.05811-.00586H207.999a12.01343,12.01343,0,0,0,12-12v-112A12.01343,12.01343,0,0,0,207.999,35.99414Z"/>
</svg>
