<svg id="Flat" xmlns="http://www.w3.org/2000/svg" viewBox="0 0 256 256">
  <path d="M196,216a4.0002,4.0002,0,0,1-4,4H40a12.01312,12.01312,0,0,1-12-12V88a4,4,0,0,1,8,0V208a4.004,4.004,0,0,0,4,4H192A4.0002,4.0002,0,0,1,196,216Zm31.3269-109.78223c.06458-.09668.10865-.20117.16394-.30175a4.01088,4.01088,0,0,0,.20325-.38623,3.933,3.933,0,0,0,.12573-.40528c.0337-.11426.07764-.22314.10108-.34131a4.00772,4.00772,0,0,0,0-1.5664c-.02344-.11817-.06738-.22705-.10095-.34131a3.96592,3.96592,0,0,0-.12586-.40528,3.87558,3.87558,0,0,0-.20337-.38623c-.05517-.10058-.09936-.20507-.16382-.30175a4.001,4.001,0,0,0-.50134-.6128L178.82812,53.17188a3.99957,3.99957,0,0,0-5.65624,5.65624L214.34277,100H168a99.94331,99.94331,0,0,0-96.84961,75.00293,4.00028,4.00028,0,1,0,7.748,1.99414A91.94464,91.94464,0,0,1,168,108h46.34277l-41.17089,41.17188a3.99957,3.99957,0,1,0,5.65624,5.65624l47.99744-47.99755A4.001,4.001,0,0,0,227.3269,106.21777Z"/>
</svg>
