<svg id="Flat" xmlns="http://www.w3.org/2000/svg" viewBox="0 0 256 256">
  <path d="M208,36.00012H48a12.01343,12.01343,0,0,0-12,12v58.66651c0,86.70458,73.543,115.47949,88.28516,120.36767a11.5664,11.5664,0,0,0,7.42968,0C146.457,222.14612,220,193.37121,220,106.66663V48.00012A12.01343,12.01343,0,0,0,208,36.00012Zm4,70.66651c0,81.20751-68.97559,108.18945-82.80273,112.77392a3.538,3.538,0,0,1-2.39454,0C112.97559,214.85608,44,187.87414,44,106.66663V48.00012a4.00427,4.00427,0,0,1,4-4H208a4.00427,4.00427,0,0,1,4,4ZM174.89355,93.2384a3.99935,3.99935,0,0,1-.13183,5.65528l-58.667,56a3.9999,3.9999,0,0,1-5.52344,0l-29.333-28a4,4,0,0,1,5.52344-5.78711L113.333,146.47034l55.90527-53.36377A3.99979,3.99979,0,0,1,174.89355,93.2384Z"/>
</svg>
