<svg id="Flat" xmlns="http://www.w3.org/2000/svg" viewBox="0 0 256 256">
  <path d="M225.50537,229.30957l-189.09082-208a4,4,0,1,0-5.91992,5.38086L41.01416,38.262A11.98265,11.98265,0,0,0,35.99951,48v58.667c0,86.70215,73.542,115.47852,88.28516,120.36719a11.56062,11.56062,0,0,0,7.43066,0,143.55672,143.55672,0,0,0,52.03858-31.75855l35.83154,39.4148a4,4,0,1,0,5.91992-5.38086Zm-96.30762-9.86914a3.52327,3.52327,0,0,1-2.3955,0c-13.82715-4.585-82.80274-31.56836-82.80274-112.77344V48a4.00116,4.00116,0,0,1,2.501-3.70288l131.86963,145.0564A135.02321,135.02321,0,0,1,129.19775,219.44043ZM87.24658,40a4.0002,4.0002,0,0,1,4-4H207.99951a12.01312,12.01312,0,0,1,12,12v58.667c0,21.335-4.52148,40.88574-13.43945,58.1084a3.99955,3.99955,0,0,1-7.10352-3.67773c8.32325-16.0752,12.543-34.38868,12.543-54.43067V48a4.004,4.004,0,0,0-4-4H91.24658A4.0002,4.0002,0,0,1,87.24658,40Z"/>
</svg>
