<svg xmlns="http://www.w3.org/2000/svg" viewBox="0 0 256 256"><path d="M225.5,229.3l-189-208a4,4,0,1,0-6,5.4L46.4,44.1A12,12,0,0,0,36,56v58.7c0,86.7,73.5,115.4,88.3,120.3a11.7,11.7,0,0,0,7.4,0c7.8-2.6,34.1-12.5,55.8-35.5l32,35.2a4.1,4.1,0,0,0,5.7.3A4.2,4.2,0,0,0,225.5,229.3Zm-96.3-1.9a3.3,3.3,0,0,1-2.4,0C113,222.9,44,195.9,44,114.7V56a4,4,0,0,1,4-4h5.5L182.1,193.5C161.6,215.5,136.6,225,129.2,227.4ZM94.5,48a4,4,0,0,1,4-4H208a12,12,0,0,1,12,12v58.7c0,19.1-3.6,36.8-10.8,52.7a4,4,0,0,1-3.7,2.3,4.5,4.5,0,0,1-1.6-.3,4,4,0,0,1-2-5.3c6.7-14.8,10.1-31.4,10.1-49.4V56a4,4,0,0,0-4-4H98.5A4,4,0,0,1,94.5,48Z"/></svg>