<svg id="Flat" xmlns="http://www.w3.org/2000/svg" viewBox="0 0 256 256">
  <path d="M225.45947,229.30957l-189-208a4,4,0,1,0-5.91992,5.38086L46.37939,44.12256A12.00839,12.00839,0,0,0,35.99951,56v58.667c0,86.70215,73.542,115.47852,88.28516,120.36719a11.56062,11.56062,0,0,0,7.43066,0c7.80029-2.58643,34.043-12.574,55.80762-35.5791l32.0166,35.23535a4,4,0,1,0,5.91992-5.38086Zm-96.26172-1.86914a3.51753,3.51753,0,0,1-2.3955,0c-13.82715-4.585-82.80274-31.56836-82.80274-112.77344V56a4.004,4.004,0,0,1,4-4h5.5376L182.12842,193.51855C161.57715,215.4812,136.58887,224.98975,129.19775,227.44043ZM94.54443,48a4.0002,4.0002,0,0,1,4-4H207.99951a12.01312,12.01312,0,0,1,12,12v58.667c0,19.12989-3.64258,36.86817-10.82617,52.72266a4.00031,4.00031,0,1,1-7.28711-3.30274c6.71094-14.80957,10.11328-31.43652,10.11328-49.41992V56a4.004,4.004,0,0,0-4-4H98.54443A4.0002,4.0002,0,0,1,94.54443,48Z"/>
</svg>
