<svg xmlns="http://www.w3.org/2000/svg" viewBox="0 0 256 256"><path d="M208,44H48A12,12,0,0,0,36,56v58.7c0,86.7,73.5,115.4,88.3,120.3a11.7,11.7,0,0,0,7.4,0c14.8-4.9,88.3-33.6,88.3-120.3V56A12,12,0,0,0,208,44Zm4,70.7c0,81.2-69,108.2-82.8,112.7a3.3,3.3,0,0,1-2.4,0C113,222.9,44,195.9,44,114.7V56a4,4,0,0,1,4-4H208a4,4,0,0,1,4,4Zm-42.2,7.7a3.9,3.9,0,0,1-2.5,5l-32.8,10.7L154.7,166a4,4,0,0,1-.8,5.6,4.3,4.3,0,0,1-2.4.8,4,4,0,0,1-3.2-1.7L128,142.8l-20.3,27.9a4,4,0,0,1-3.2,1.7,4.3,4.3,0,0,1-2.4-.8,4,4,0,0,1-.8-5.6l20.2-27.9L88.7,127.4a3.9,3.9,0,0,1-2.5-5,4,4,0,0,1,5-2.6L124,130.5V96a4,4,0,0,1,8,0v34.5l32.8-10.7A4,4,0,0,1,169.8,122.4Z"/></svg>