<svg id="Flat" xmlns="http://www.w3.org/2000/svg" viewBox="0 0 256 256">
  <path d="M208,36.00012H48a12.01328,12.01328,0,0,0-12,12v58.66651c0,86.70458,73.543,115.47949,88.28516,120.36767a11.5664,11.5664,0,0,0,7.42968,0C146.457,222.14612,220,193.37121,220,106.66663V48.00012A12.01328,12.01328,0,0,0,208,36.00012ZM129.19727,219.44055a3.538,3.538,0,0,1-2.39454,0c-9.74121-3.22974-46.85009-17.57764-67.9331-54.16724L128,116.88269l69.13037,48.39111C176.04687,201.86291,138.93848,216.21081,129.19727,219.44055ZM212,106.66663c0,20.418-4.36279,37.40527-11.11084,51.47314L130.294,108.72327a3.99942,3.99942,0,0,0-4.5879,0l-70.5957,49.41626C48.36279,144.07165,44,127.08459,44,106.66663V48.00012a4.00427,4.00427,0,0,1,4-4H208a4.00427,4.00427,0,0,1,4,4Z"/>
</svg>
