<svg id="Flat" xmlns="http://www.w3.org/2000/svg" viewBox="0 0 256 256">
  <path d="M128,227.64685a11.74423,11.74423,0,0,1-3.71484-.613C109.543,222.14636,36,193.37244,36,106.66663V48.00012a12.01328,12.01328,0,0,1,12-12H208a12.01328,12.01328,0,0,1,12,12v58.66651c0,86.70581-73.543,115.47973-88.28516,120.36743A11.758,11.758,0,0,1,128,227.64685ZM48,44.00012a4.00427,4.00427,0,0,0-4,4v58.66651c0,81.20849,68.97559,108.18969,82.80273,112.77368a3.54089,3.54089,0,0,0,2.39454.00024C143.02441,214.85632,212,187.87512,212,106.66663V48.00012a4.00427,4.00427,0,0,0-4-4Z"/>
</svg>
