<svg id="Flat" xmlns="http://www.w3.org/2000/svg" viewBox="0 0 256 256">
  <path d="M207.99463,43.99512h-160a12.01343,12.01343,0,0,0-12,12v58.667c0,86.709,73.54248,115.48047,88.28467,120.36719a11.77435,11.77435,0,0,0,3.708.613l.0127.00122.02-.00195a11.77033,11.77033,0,0,0,3.68945-.6123c14.74268-4.88672,88.28516-33.65821,88.28516-120.36719v-58.667A12.01343,12.01343,0,0,0,207.99463,43.99512Zm4,12v58.667c0,3.19946-.11865,6.30493-.3252,9.33789H132V51.99512h75.99463A4.00426,4.00426,0,0,1,211.99463,55.99512Zm-168,0a4.00426,4.00426,0,0,1,4-4H124V124H44.31982c-.20654-3.033-.32519-6.13843-.32519-9.33789ZM45.10986,132H124v94.4563C106.9873,220.22437,53.48779,195.718,45.10986,132ZM132,226.45239V132h78.87939C202.50293,195.70435,149.0249,220.21387,132,226.45239Z"/>
</svg>
