<svg id="Flat" xmlns="http://www.w3.org/2000/svg" viewBox="0 0 256 256">
  <path d="M207.99463,43.99512h-160a12.01343,12.01343,0,0,0-12,12v58.667c0,86.709,73.54248,115.48047,88.28467,120.36719a11.55913,11.55913,0,0,0,7.43017,0c14.74268-4.88672,88.28516-33.65821,88.28516-120.36719v-58.667A12.01343,12.01343,0,0,0,207.99463,43.99512Zm4,70.667c0,81.21094-68.9751,108.18945-82.80274,112.77344a3.52774,3.52774,0,0,1-2.395,0c-13.82715-4.584-82.80225-31.5625-82.80225-112.77344v-58.667a4.00426,4.00426,0,0,1,4-4h160a4.00426,4.00426,0,0,1,4,4ZM164,128a4.0002,4.0002,0,0,1-4,4H132v28a4,4,0,0,1-8,0V132H96a4,4,0,0,1,0-8h28V96a4,4,0,0,1,8,0v28h28A4.0002,4.0002,0,0,1,164,128Z"/>
</svg>
