<svg id="Flat" xmlns="http://www.w3.org/2000/svg" viewBox="0 0 256 256">
  <path d="M207.99951,36h-160a12.01312,12.01312,0,0,0-12,12v58.667c0,86.7041,73.543,115.47949,88.28516,120.36719a11.55768,11.55768,0,0,0,7.42969,0c14.74218-4.8877,88.28515-33.66309,88.28515-120.36719V48A12.01312,12.01312,0,0,0,207.99951,36Zm4,70.667c0,81.207-68.97558,108.18946-82.80273,112.77344a3.52625,3.52625,0,0,1-2.39453,0C112.9751,214.85645,43.99951,187.874,43.99951,106.667V48a4.004,4.004,0,0,1,4-4h160a4.004,4.004,0,0,1,4,4Zm-88,21.333V88a4,4,0,1,1,8,0v40a4,4,0,0,1-8,0Zm12.001,36v.00195a8.001,8.001,0,1,1,0-.00195Z"/>
</svg>
