<svg id="Flat" xmlns="http://www.w3.org/2000/svg" viewBox="0 0 256 256">
  <path d="M213.12988,146.14648l13.09082-72A12.00043,12.00043,0,0,0,214.41406,60H43.33838l-5.481-30.14648A11.994,11.994,0,0,0,26.05078,20H8a4,4,0,0,0,0,8H26.05078a3.99779,3.99779,0,0,1,3.93555,3.28418l26.70215,146.8623a11.96274,11.96274,0,0,0,2.58056,5.52271A24.00521,24.00521,0,1,0,89.86914,188h84.26172A23.98659,23.98659,0,1,0,192,180H68.49512a3.99778,3.99778,0,0,1-3.93555-3.28418L60.793,156H201.32324A11.994,11.994,0,0,0,213.12988,146.14648ZM88,204a16,16,0,1,1-16-16A16.01833,16.01833,0,0,1,88,204Zm120,0a16,16,0,1,1-16-16A16.01833,16.01833,0,0,1,208,204ZM44.793,68H214.41406a3.99978,3.99978,0,0,1,3.93555,4.71582l-13.09082,72A3.99778,3.99778,0,0,1,201.32324,148H59.33838Z"/>
</svg>
