<svg id="Flat" xmlns="http://www.w3.org/2000/svg" viewBox="0 0 256 256">
  <path d="M223.62793,64.311A11.96817,11.96817,0,0,0,214.415,60H43.3584L37.86035,29.84717A11.9968,11.9968,0,0,0,26.05371,20H8a4,4,0,0,0,0,8H26.05371a3.99851,3.99851,0,0,1,3.93555,3.28271l6.02246,33.02247a3.97006,3.97006,0,0,0,.15039.82519L55.3125,170.15283A11.99655,11.99655,0,0,0,67.11816,180H196.9707a11.99444,11.99444,0,0,0,11.80664-9.85449l17.44434-96A11.97,11.97,0,0,0,223.62793,64.311Zm-5.27734,8.4038-17.44434,96A3.99772,3.99772,0,0,1,196.9707,172H67.11816a3.99747,3.99747,0,0,1-3.93457-3.28271L44.81738,68H214.415a3.99953,3.99953,0,0,1,3.93555,4.71484ZM84,216a12,12,0,1,1-12-12A12.01343,12.01343,0,0,1,84,216Zm120,0a12,12,0,1,1-12-12A12.01343,12.01343,0,0,1,204,216Z"/>
</svg>
