<svg id="Flat" xmlns="http://www.w3.org/2000/svg" viewBox="0 0 256 256">
  <path d="M80,216a8,8,0,1,1-8-8A7.99993,7.99993,0,0,1,80,216Zm112-8a8,8,0,1,0,8,8A7.99993,7.99993,0,0,0,192,208ZM226.22168,74.14551l-17.44434,96A11.99444,11.99444,0,0,1,196.9707,180H67.11816a11.99655,11.99655,0,0,1-11.80566-9.84717L36.16211,65.13037a3.97006,3.97006,0,0,1-.15039-.82519L29.98926,31.28271A3.99851,3.99851,0,0,0,26.05371,28H8a4,4,0,0,1,0-8H26.05371a11.9968,11.9968,0,0,1,11.80664,9.84717L43.3584,60H214.415a12.00019,12.00019,0,0,1,11.80664,14.14551Zm-8.73535-4.7085A3.94826,3.94826,0,0,0,214.415,68H44.81738L63.18359,168.71729A3.99747,3.99747,0,0,0,67.11816,172H196.9707a3.99772,3.99772,0,0,0,3.93555-3.28516l17.44434-96A3.94924,3.94924,0,0,0,217.48633,69.437Z"/>
</svg>
