<svg xmlns="http://www.w3.org/2000/svg" viewBox="0 0 256 256"><path d="M68,228a8,8,0,1,1-8-8A8,8,0,0,1,68,228Zm20-36a8,8,0,1,0,8,8A8,8,0,0,0,88,192Zm-60-4a8,8,0,1,0,8,8A8,8,0,0,0,28,188Zm36-20a8,8,0,1,0-8,8A8,8,0,0,0,64,168ZM252,40a4,4,0,0,1-4,4H219.3a3.6,3.6,0,0,0-2.8,1.2L187.7,73.9,166.5,201.3a11.9,11.9,0,0,1-8.2,9.5,11.5,11.5,0,0,1-3.7.6,11.9,11.9,0,0,1-8.4-3.6l-98-98a11.9,11.9,0,0,1,6.5-20.3L182.1,68.3l28.7-28.8a11.9,11.9,0,0,1,8.5-3.5H248A4,4,0,0,1,252,40ZM179.1,76.9,56,97.4a4,4,0,0,0-3.2,2.7,4.1,4.1,0,0,0,1,4.1l98,98a4.1,4.1,0,0,0,4.1,1,4,4,0,0,0,2.7-3.2Z"/></svg>