<svg id="Flat" xmlns="http://www.w3.org/2000/svg" viewBox="0 0 256 256">
  <path d="M68,228a8,8,0,1,1-8-8A7.99993,7.99993,0,0,1,68,228Zm20-36a8,8,0,1,0,8,8A7.99993,7.99993,0,0,0,88,192Zm-60-4a8,8,0,1,0,8,8A7.99993,7.99993,0,0,0,28,188Zm36-20a8,8,0,1,0-8,8A7.99993,7.99993,0,0,0,64,168ZM252,40a4.0002,4.0002,0,0,1-4,4H219.31348a3.97185,3.97185,0,0,0-2.82813,1.17188l-28.75049,28.75-21.2334,127.40185a11.99487,11.99487,0,0,1-20.32226,6.51221L48.16357,109.8208A12,12,0,0,1,54.67627,89.499L182.07812,68.26514l28.75-28.75049A11.92174,11.92174,0,0,1,219.31348,36H248A4.0002,4.0002,0,0,1,252,40ZM179.13379,76.86621,55.9917,97.38965a4.00015,4.00015,0,0,0-2.1709,6.77441l98.01563,98.01514a3.99939,3.99939,0,0,0,6.77343-2.1709Z"/>
</svg>
