<svg id="Flat" xmlns="http://www.w3.org/2000/svg" viewBox="0 0 256 256">
  <path d="M235.49072,185.91577c-.05517.10083-.09912.20557-.16357.302a4.021,4.021,0,0,1-.50147.6128l-23.99756,23.99755a3.99957,3.99957,0,0,1-5.65625-5.65625L222.34277,188H200.93555a68.13572,68.13572,0,0,1-55.334-28.47559L103.88867,101.126A60.11586,60.11586,0,0,0,55.06445,76H32a4,4,0,0,1,0-8H55.06445a68.13572,68.13572,0,0,1,55.334,28.47559L152.11133,154.874A60.11586,60.11586,0,0,0,200.93555,180h21.40722l-17.1709-17.17188a3.99957,3.99957,0,0,1,5.65625-5.65625l23.99756,23.99756a4.021,4.021,0,0,1,.50147.6128c.06445.09643.1084.20117.16357.30175a4.0404,4.0404,0,0,1,.20362.38623,3.94946,3.94946,0,0,1,.12548.40552c.0337.114.07764.2229.10108.34082a4.01026,4.01026,0,0,1,0,1.5669c-.02344.11792-.06738.22705-.10108.34106a3.96368,3.96368,0,0,1-.12548.40528A4.03508,4.03508,0,0,1,235.49072,185.91577Zm-90.15283-82.18921a4.00034,4.00034,0,0,0,5.58008-.92969l1.19336-1.67089A60.1172,60.1172,0,0,1,200.93555,76h21.40722l-17.1709,17.17187a3.99957,3.99957,0,1,0,5.65625,5.65625l23.99756-23.99755a4.021,4.021,0,0,0,.50147-.6128c.06445-.09643.1084-.20117.16357-.302a4.03508,4.03508,0,0,0,.20362-.386,3.96368,3.96368,0,0,0,.12548-.40528c.0337-.114.07764-.22314.10108-.34106a4.01026,4.01026,0,0,0,0-1.5669c-.02344-.11792-.06738-.2268-.10108-.34082a3.94946,3.94946,0,0,0-.12548-.40552,4.0404,4.0404,0,0,0-.20362-.38623c-.05517-.10058-.09912-.20532-.16357-.30175a4.021,4.021,0,0,0-.50147-.6128L210.82812,45.17187a3.99957,3.99957,0,0,0-5.65625,5.65625L222.34277,68H200.93555a68.13572,68.13572,0,0,0-55.334,28.47559l-1.19336,1.67089A4.00073,4.00073,0,0,0,145.33789,103.72656Zm-34.67578,48.54688a3.99753,3.99753,0,0,0-5.58008.92968l-1.19336,1.6709A60.1172,60.1172,0,0,1,55.06445,180H32a4,4,0,0,0,0,8H55.06445a68.13572,68.13572,0,0,0,55.334-28.47559l1.19336-1.67089A4.00073,4.00073,0,0,0,110.66211,152.27344Z"/>
</svg>
