<svg xmlns="http://www.w3.org/2000/svg" viewBox="0 0 256 256"><path d="M212,168v40a2.2,2.2,0,0,1-.1.8.4.4,0,0,1-.1.3c0,.2-.1.3-.1.4s-.1.3-.2.4l-.2.3a2.9,2.9,0,0,1-1.1,1.1l-.3.2-.4.2H168a4,4,0,0,1,0-8h30.3L45.2,50.8a4,4,0,0,1,5.6-5.6L204,198.3V168a4,4,0,0,1,8,0Zm-.1-120.8a.4.4,0,0,0-.1-.3c0-.2-.1-.3-.1-.4l-.2-.4-.2-.3a2.9,2.9,0,0,0-1.1-1.1l-.3-.2-.4-.2H168a4,4,0,0,0,0,8h30.3l-50.5,50.5a4,4,0,1,0,5.7,5.7L204,57.7V88a4,4,0,0,0,8,0V48A2.2,2.2,0,0,0,211.9,47.2ZM102.5,147.8,45.2,205.2a3.9,3.9,0,0,0,0,5.6,3.9,3.9,0,0,0,5.6,0l57.4-57.3a4,4,0,0,0-5.7-5.7Z"/></svg>