<svg xmlns="http://www.w3.org/2000/svg" viewBox="0 0 256 256"><path d="M234.8,181.2a3.9,3.9,0,0,1,0,5.6l-24,24a3.9,3.9,0,0,1-5.6,0,3.9,3.9,0,0,1,0-5.6L222.3,188H200.9a67.9,67.9,0,0,1-55.3-28.5l-41.7-58.4A60.1,60.1,0,0,0,55.1,76H32a4,4,0,0,1,0-8H55.1a67.9,67.9,0,0,1,55.3,28.5l41.7,58.4A60.1,60.1,0,0,0,200.9,180h21.4l-17.1-17.2a4,4,0,0,1,5.6-5.6Zm-89.5-77.5a4.3,4.3,0,0,0,2.4.8,4,4,0,0,0,3.2-1.7l1.2-1.7A60.1,60.1,0,0,1,200.9,76h21.4L205.2,93.2a3.9,3.9,0,0,0,0,5.6,3.9,3.9,0,0,0,5.6,0l24-24a3.9,3.9,0,0,0,0-5.6l-24-24a4,4,0,0,0-5.6,5.6L222.3,68H200.9a67.9,67.9,0,0,0-55.3,28.5l-1.2,1.6A4,4,0,0,0,145.3,103.7Zm-34.6,48.6a4,4,0,0,0-5.6.9l-1.2,1.7A60.1,60.1,0,0,1,55.1,180H32a4,4,0,0,0,0,8H55.1a67.9,67.9,0,0,0,55.3-28.5l1.2-1.6A4,4,0,0,0,110.7,152.3Z"/></svg>