<svg id="Flat" xmlns="http://www.w3.org/2000/svg" viewBox="0 0 256 256">
  <path d="M235.49072,185.91577c-.05517.10071-.09912.20557-.16357.302a4.02777,4.02777,0,0,1-.50147.61292l-23.99756,23.99743a3.99957,3.99957,0,0,1-5.65625-5.65625L222.34277,188H172.11719a12.02443,12.02443,0,0,1-9.76465-5.02441L87.1377,77.6748A4.00731,4.00731,0,0,0,83.88281,76H32a4,4,0,0,1,0-8H83.88281a12.02443,12.02443,0,0,1,9.76465,5.02441L168.8623,178.3252A4.00729,4.00729,0,0,0,172.11719,180h50.22558l-17.1709-17.17188a3.99957,3.99957,0,0,1,5.65625-5.65625l23.99756,23.99744a4.02777,4.02777,0,0,1,.50147.61292c.06445.09643.1084.20117.16357.30175a4.0404,4.0404,0,0,1,.20362.38623,3.95868,3.95868,0,0,1,.12548.40552c.0337.11389.07764.2229.10108.34082a4.01026,4.01026,0,0,1,0,1.5669c-.02344.11792-.06738.22705-.10108.34094a3.95348,3.95348,0,0,1-.12548.40527A4.00758,4.00758,0,0,1,235.49072,185.91577Zm-90.15381-82.18823a4.00034,4.00034,0,0,0,5.58008-.92969l17.94531-25.123A4.00729,4.00729,0,0,1,172.11719,76h50.22558l-17.1709,17.17187a3.99957,3.99957,0,1,0,5.65625,5.65625l23.99756-23.99743a4.02777,4.02777,0,0,0,.50147-.61292c.06445-.09643.1084-.20129.16357-.302a4.00758,4.00758,0,0,0,.20362-.38611,3.95348,3.95348,0,0,0,.12548-.40527c.0337-.11389.07764-.223.10108-.34094a4.01026,4.01026,0,0,0,0-1.5669c-.02344-.11792-.06738-.22693-.10108-.34082a3.95868,3.95868,0,0,0-.12548-.40552,4.0404,4.0404,0,0,0-.20362-.38623c-.05517-.10058-.09912-.20532-.16357-.30175a4.02777,4.02777,0,0,0-.50147-.61292L210.82812,45.17187a3.99957,3.99957,0,0,0-5.65625,5.65625L222.34277,68H172.11719a12.02443,12.02443,0,0,0-9.76465,5.02441l-17.94531,25.123A3.99986,3.99986,0,0,0,145.33691,103.72754Zm-34.67382,48.54492a4.0016,4.0016,0,0,0-5.58008.92969L87.1377,178.3252A4.00731,4.00731,0,0,1,83.88281,180H32a4,4,0,0,0,0,8H83.88281a12.02443,12.02443,0,0,0,9.76465-5.02441l17.94531-25.12305A3.99986,3.99986,0,0,0,110.66309,152.27246Z"/>
</svg>
