<svg xmlns="http://www.w3.org/2000/svg" viewBox="0 0 256 256"><path d="M234.8,181.2a3.9,3.9,0,0,1,0,5.6l-24,24a3.9,3.9,0,0,1-5.6,0,3.9,3.9,0,0,1,0-5.6L222.3,188H172.1a11.9,11.9,0,0,1-9.7-5L87.1,77.7A3.7,3.7,0,0,0,83.9,76H32a4,4,0,0,1,0-8H83.9a12,12,0,0,1,9.7,5l75.3,105.3a3.7,3.7,0,0,0,3.2,1.7h50.2l-17.1-17.2a4,4,0,0,1,5.6-5.6Zm-89.5-77.5a4.3,4.3,0,0,0,2.4.8,4,4,0,0,0,3.2-1.7l18-25.1a3.7,3.7,0,0,1,3.2-1.7h50.2L205.2,93.2a3.9,3.9,0,0,0,0,5.6,3.9,3.9,0,0,0,5.6,0l24-24a3.9,3.9,0,0,0,0-5.6l-24-24a4,4,0,0,0-5.6,5.6L222.3,68H172.1a11.9,11.9,0,0,0-9.7,5l-18,25.1A4,4,0,0,0,145.3,103.7Zm-34.6,48.6a4,4,0,0,0-5.6.9l-18,25.1a3.7,3.7,0,0,1-3.2,1.7H32a4,4,0,0,0,0,8H83.9a12,12,0,0,0,9.7-5l18-25.1A4,4,0,0,0,110.7,152.3Z"/></svg>