<svg id="Flat" xmlns="http://www.w3.org/2000/svg" viewBox="0 0 256 256">
  <path d="M210.82813,85.17187l-56-56A3.99849,3.99849,0,0,0,152,28H55.99219a12.01312,12.01312,0,0,0-12,12V216a12.01312,12.01312,0,0,0,12,12H200a12.01312,12.01312,0,0,0,12-12V88A4.0005,4.0005,0,0,0,210.82813,85.17187ZM204,216a4.00427,4.00427,0,0,1-4,4H55.99219a4.00426,4.00426,0,0,1-4-4V40a4.00426,4.00426,0,0,1,4-4h94.35058L204,89.65723ZM76,120v72a4.0002,4.0002,0,0,0,4,4h96a4.0002,4.0002,0,0,0,4-4V120a4.0002,4.0002,0,0,0-4-4H80A4.0002,4.0002,0,0,0,76,120Zm8,4h88v64H148V152a4,4,0,0,0-8,0v36H116V152a4,4,0,0,0-8,0v36H84Z"/>
</svg>
