<svg id="Flat" xmlns="http://www.w3.org/2000/svg" viewBox="0 0 256 256">
  <path d="M243.55615,105.79529c.04785-.09381.10254-.18256.14258-.28046a3.94648,3.94648,0,0,0,.16357-.52643c.01709-.06689.04444-.12915.05811-.19732a4.02868,4.02868,0,0,0,.07666-.761c0-.01025.00293-.01978.00293-.03,0-.06671-.0166-.12885-.01953-.19476a3.96031,3.96031,0,0,0-.0542-.53656c-.01953-.10657-.05273-.20691-.08057-.31037a3.89593,3.89593,0,0,0-.12841-.41369c-.043-.10956-.0962-.2121-.14844-.31665a3.96262,3.96262,0,0,0-.1919-.35334c-.06689-.10595-.14209-.20379-.21826-.30273-.05176-.06744-.0918-.14081-.14844-.20569l-56-64A3.99951,3.99951,0,0,0,184,36H72a3.99951,3.99951,0,0,0-3.01025,1.36621l-56,64c-.05664.06488-.09668.13825-.14844.20569-.07617.09894-.15137.19678-.21826.30273a3.96262,3.96262,0,0,0-.1919.35334c-.05224.10455-.10547.20709-.14844.31665a3.89593,3.89593,0,0,0-.12841.41369c-.02784.10346-.061.2038-.08057.31037a4.01955,4.01955,0,0,0-.0542.53515C12.0166,103.87024,12,103.9328,12,104c0,.01038.00293.02.00293.03033a4.02555,4.02555,0,0,0,.07666.76075c.01367.06817.041.13043.05811.19732a3.94648,3.94648,0,0,0,.16357.52643c.04.0979.09473.18665.14258.28046a3.85516,3.85516,0,0,0,.21045.38745c.06543.1.14355.18872.21777.28229.06885.0877.12647.18152.20361.26446l112,120c.02588.02765.05811.04694.085.07379a4.01186,4.01186,0,0,0,.45459.39643c.03858.02868.07373.06128.11329.0885a3.9742,3.9742,0,0,0,.62841.35309c.0542.02435.10987.04229.165.06427a3.95966,3.95966,0,0,0,.54346.173c.06641.01605.13184.0329.19922.04553a3.59874,3.59874,0,0,0,1.4707,0c.06738-.01263.13233-.02954.19922-.04553a3.98052,3.98052,0,0,0,.54346-.17291c.05517-.022.11084-.04.165-.06439a3.97388,3.97388,0,0,0,.62841-.353c.03956-.02722.07471-.05982.11329-.0885a4.01186,4.01186,0,0,0,.45459-.39643c.02685-.02685.05908-.04614.085-.07379l112-120c.07714-.08294.13476-.17676.20361-.26446.07422-.09357.15234-.18225.21777-.28229A3.85516,3.85516,0,0,0,243.55615,105.79529ZM76.22363,108l39.8125,97.31921L25.20459,108Zm94.90918,0L128,213.43555,84.86719,108Zm-84.11426-8L128,46.57227,168.98145,100Zm92.75782,8h51.019l-90.83154,97.31921Zm51.40869-8H179.064L136.10938,44h46.07568ZM73.81494,44h46.07568L76.936,100H24.81494Z"/>
</svg>
