<svg id="Flat" xmlns="http://www.w3.org/2000/svg" viewBox="0 0 256 256">
  <path d="M197.87012,43.79834a11.85812,11.85812,0,0,0-12.12793.22656L65.084,117.76074A11.89933,11.89933,0,0,0,60,124.12451V40a4,4,0,0,0-8,0V216a4,4,0,0,0,8,0V131.87549a11.89933,11.89933,0,0,0,5.084,6.36377L185.74219,211.9751A12.00044,12.00044,0,0,0,204,201.73535V54.26465A11.85952,11.85952,0,0,0,197.87012,43.79834ZM196,201.73535a4.00027,4.00027,0,0,1-6.08594,3.41358L69.25586,131.41309a4.00009,4.00009,0,0,1,0-6.82618l120.6582-73.73584a3.90068,3.90068,0,0,1,2.06055-.602,4.13574,4.13574,0,0,1,1.98242.52686A3.92428,3.92428,0,0,1,196,54.26465Z"/>
</svg>
