<svg id="Flat" xmlns="http://www.w3.org/2000/svg" viewBox="0 0 256 256">
  <path d="M200,36a4.0002,4.0002,0,0,0-4,4v84.12451a11.89988,11.89988,0,0,0-5.084-6.36377L70.25781,44.0249A12.00044,12.00044,0,0,0,52,54.26465v147.4707a11.85952,11.85952,0,0,0,6.12988,10.46631,11.85966,11.85966,0,0,0,12.12793-.22656L190.916,138.23926A11.89988,11.89988,0,0,0,196,131.87549V216a4,4,0,0,0,8,0V40A4.0002,4.0002,0,0,0,200,36Zm-13.25586,95.41309L66.08594,205.14893A4.00027,4.00027,0,0,1,60,201.73535V54.26465a3.92428,3.92428,0,0,1,2.043-3.48877,4.13574,4.13574,0,0,1,1.98242-.52686,3.90068,3.90068,0,0,1,2.06055.602l120.6582,73.73584a4.00009,4.00009,0,0,1,0,6.82618Z"/>
</svg>
