<svg xmlns="http://www.w3.org/2000/svg" viewBox="0 0 256 256"><path d="M92,108a24,24,0,1,0,24,24A24.1,24.1,0,0,0,92,108Zm0,40a16,16,0,1,1,16-16A16,16,0,0,1,92,148Zm72-40a24,24,0,1,0,24,24A24.1,24.1,0,0,0,164,108Zm0,40a16,16,0,1,1,16-16A16,16,0,0,1,164,148ZM128,20A96,96,0,0,0,76,196.7V216a12,12,0,0,0,12,12h80a12,12,0,0,0,12-12V196.7A96,96,0,0,0,128,20Zm45.9,171.1a3.9,3.9,0,0,0-1.9,3.4V216a4,4,0,0,1-4,4H148V192a4,4,0,0,0-8,0v28H116V192a4,4,0,0,0-8,0v28H88a4,4,0,0,1-4-4V194.5a3.9,3.9,0,0,0-1.9-3.4,88,88,0,1,1,91.8,0Z"/></svg>