<svg xmlns="http://www.w3.org/2000/svg" viewBox="0 0 256 256"><path d="M214.4,128A28,28,0,1,0,180,84.4V56a28,28,0,0,0-52-14.4A28,28,0,1,0,84.4,76H56a28,28,0,0,0-14.4,52A28,28,0,1,0,76,171.6V200a28,28,0,0,0,52,14.4A28,28,0,1,0,171.6,180H200a28,28,0,0,0,14.4-52ZM200,84a20,20,0,0,1,0,40H180V104A20.1,20.1,0,0,1,200,84Zm-28.4,40,.4-.4v.4ZM152,36a20.1,20.1,0,0,1,20,20v48a20.1,20.1,0,0,1-20,20H132V56A20.1,20.1,0,0,1,152,36ZM132,171.6l.4.4H132Zm-8-87.2-.4-.4h.4ZM84,56a20,20,0,0,1,40,0V76H104A20.1,20.1,0,0,1,84,56ZM36,104A20.1,20.1,0,0,1,56,84h48a20.1,20.1,0,0,1,20,20v20H56A20.1,20.1,0,0,1,36,104Zm48.4,28-.4.4V132ZM56,172a20,20,0,0,1,0-40H76v20A20.1,20.1,0,0,1,56,172Zm48,48a20.1,20.1,0,0,1-20-20V152a20.1,20.1,0,0,1,20-20h20v68A20.1,20.1,0,0,1,104,220Zm68-20a20,20,0,0,1-40,0V180h20A20.1,20.1,0,0,1,172,200Zm28-28H152a20.1,20.1,0,0,1-20-20V132h68a20,20,0,0,1,0,40Z"/></svg>