<svg id="Flat" xmlns="http://www.w3.org/2000/svg" viewBox="0 0 256.00004 256.00004">
  <path d="M214.40479,128A27.9892,27.9892,0,1,0,180,84.43083V56a27.99339,27.99339,0,0,0-52-14.405A27.98928,27.98928,0,1,0,84.43066,76H56a27.99332,27.99332,0,0,0-14.40479,52A27.98922,27.98922,0,1,0,76,171.56932V200a27.99339,27.99339,0,0,0,52,14.405A27.98928,27.98928,0,1,0,171.56934,180H200a27.99332,27.99332,0,0,0,14.40479-52ZM200,84a20,20,0,0,1,0,40H180V104A20.02229,20.02229,0,0,1,200,84Zm-28.43066,40q.21753-.21313.43066-.43072V124ZM152,36a20.02229,20.02229,0,0,1,20,20v48a20.02229,20.02229,0,0,1-20,20H132V56A20.02229,20.02229,0,0,1,152,36ZM132,171.56926q.21313.2178.43066.43078H132Zm-8-87.13849q-.21313-.21771-.43066-.43073H124ZM84,56a20,20,0,0,1,40,0V76H104A20.02229,20.02229,0,0,1,84,56ZM36,104A20.02229,20.02229,0,0,1,56,84h48a20.02229,20.02229,0,0,1,20,20v20H56A20.02229,20.02229,0,0,1,36,104Zm48.43066,28q-.21753.21313-.43066.43079V132ZM56,172a20,20,0,0,1,0-40H76v20A20.02229,20.02229,0,0,1,56,172Zm48,48a20.02229,20.02229,0,0,1-20-20V152a20.02229,20.02229,0,0,1,20-20h20v68A20.02229,20.02229,0,0,1,104,220Zm68-20a20,20,0,0,1-40,0V180h20A20.02229,20.02229,0,0,1,172,200Zm28-28H152a20.02229,20.02229,0,0,1-20-20V132h68a20,20,0,0,1,0,40Z"/>
</svg>
