<svg xmlns="http://www.w3.org/2000/svg" viewBox="0 0 256 256"><path d="M132,64.3V40a4,4,0,0,0-8,0V64.3a24,24,0,0,0,0,47.4V216a4,4,0,0,0,8,0V111.7a24,24,0,0,0,0-47.4ZM128,104a16,16,0,1,1,16-16A16,16,0,0,1,128,104Zm96,64a24.2,24.2,0,0,0-20-23.7V40a4,4,0,0,0-8,0V144.3a24,24,0,0,0,0,47.4V216a4,4,0,0,0,8,0V191.7A24.1,24.1,0,0,0,224,168Zm-24,16a16,16,0,1,1,16-16A16,16,0,0,1,200,184ZM60,112.3V40a4,4,0,0,0-8,0v72.3a24,24,0,0,0,0,47.4V216a4,4,0,0,0,8,0V159.7a24,24,0,0,0,0-47.4ZM56,152a16,16,0,1,1,16-16A16,16,0,0,1,56,152Z"/></svg>