<svg id="Flat" xmlns="http://www.w3.org/2000/svg" viewBox="0 0 256.00098 256.00098">
  <path d="M132,64.3396V39.99988a4,4,0,1,0-8,0V64.3396a23.99522,23.99522,0,0,0,0,47.32056V215.99988a4,4,0,0,0,8,0V111.66016a23.99522,23.99522,0,0,0,0-47.32056Zm-4,39.66028a16,16,0,1,1,16-16A16.01833,16.01833,0,0,1,128,103.99988Zm96,64a24.03441,24.03441,0,0,0-20-23.66028l.001-104.33972a4,4,0,1,0-8,0L196,144.3396a23.99529,23.99529,0,0,0,0,47.32068l.001,24.3396a4,4,0,0,0,8,0L204,191.66016A24.03443,24.03443,0,0,0,224,167.99988Zm-24,16a16,16,0,1,1,16-16A16.01833,16.01833,0,0,1,200,183.99988ZM60,112.3396l-.00049-72.33972a4,4,0,0,0-8,0L52,112.3396a23.99522,23.99522,0,0,0,0,47.32056l-.00049,56.33972a4,4,0,0,0,8,0L60,159.66016a23.99522,23.99522,0,0,0,0-47.32056Zm-4,39.66028a16,16,0,1,1,16-16A16.01833,16.01833,0,0,1,56,151.99988Z"/>
</svg>
