<svg id="Flat" xmlns="http://www.w3.org/2000/svg" viewBox="0 0 256 256">
  <path d="M86,108a6,6,0,1,1,6,6A6.00029,6.00029,0,0,1,86,108Zm78,6a6,6,0,1,0-6-6A6.00029,6.00029,0,0,0,164,114Zm64,14A100,100,0,1,1,128,28,100.11332,100.11332,0,0,1,228,128Zm-8,0a92,92,0,1,0-92,92A92.10416,92.10416,0,0,0,220,128Zm-55.23047,35.23A52.02662,52.02662,0,0,0,82.96,173.99561a4,4,0,1,0,6.92481,4.00585,44.19123,44.19123,0,0,1,20.98974-18.54589,43.95958,43.95958,0,0,1,48.23828,9.43115,44.20936,44.20936,0,0,1,7.00342,9.11523,4,4,0,1,0,6.92481-4.00586A52.1876,52.1876,0,0,0,164.76953,163.23Z"/>
</svg>
