<svg id="Flat" xmlns="http://www.w3.org/2000/svg" viewBox="0 0 256 256">
  <path d="M86,108a6,6,0,1,1,6,6A6.00029,6.00029,0,0,1,86,108Zm78,6a6,6,0,1,0-6-6A6.00029,6.00029,0,0,0,164,114Zm64,14A100,100,0,1,1,128,28,100.11332,100.11332,0,0,1,228,128Zm-8,0a92,92,0,1,0-92,92A92.10416,92.10416,0,0,0,220,128Zm-56.87646,21.501a4.00053,4.00053,0,0,0-6.24708,0L144,165.59668,131.12354,149.501a4.00053,4.00053,0,0,0-6.24708,0L112,165.59668,99.12354,149.501a4.00053,4.00053,0,0,0-6.24708,0l-16,20a4.0002,4.0002,0,1,0,6.24708,4.998L96,158.40332l12.87646,16.0957a4.00053,4.00053,0,0,0,6.24708,0L128,158.40332l12.87646,16.0957a4.00053,4.00053,0,0,0,6.24708,0L160,158.40332l12.87646,16.0957a4.0002,4.0002,0,0,0,6.24708-4.998Z"/>
</svg>
