<svg xmlns="http://www.w3.org/2000/svg" viewBox="0 0 256 256"><path d="M128,28A100,100,0,1,0,228,128,100.2,100.2,0,0,0,128,28Zm0,192a92,92,0,1,1,92-92A92.1,92.1,0,0,1,128,220ZM186.8,98.8,173.7,112l13.1,13.2a3.9,3.9,0,0,1,0,5.6,3.9,3.9,0,0,1-5.6,0L168,117.7l-13.2,13.1a3.9,3.9,0,0,1-5.6,0,3.9,3.9,0,0,1,0-5.6L162.3,112,149.2,98.8a4,4,0,0,1,5.6-5.6L168,106.3l13.2-13.1a4,4,0,1,1,5.6,5.6Zm-80,0L93.7,112l13.1,13.2a3.9,3.9,0,0,1,0,5.6,3.9,3.9,0,0,1-5.6,0L88,117.7,74.8,130.8a3.9,3.9,0,0,1-5.6,0,3.9,3.9,0,0,1,0-5.6L82.3,112,69.2,98.8a4,4,0,0,1,5.6-5.6L88,106.3l13.2-13.1a4,4,0,0,1,5.6,5.6ZM136,180a8,8,0,1,1-8-8A8,8,0,0,1,136,180Z"/></svg>