<svg id="Flat" xmlns="http://www.w3.org/2000/svg" viewBox="0 0 256 256">
  <path d="M86,108a6,6,0,1,1,6,6A6.00014,6.00014,0,0,1,86,108Zm78,6a6,6,0,1,0-6-6A6.00014,6.00014,0,0,0,164,114Zm7.58105,34.53394a4.00016,4.00016,0,0,0-5.46533,1.45947A44.20186,44.20186,0,0,1,145.12549,168.54a43.95959,43.95959,0,0,1-48.23877-9.43164,44.18757,44.18757,0,0,1-7.00244-9.11426A4,4,0,0,0,82.95947,154a52.02794,52.02794,0,0,0,90.08106-.00073A4.00034,4.00034,0,0,0,171.58105,148.53394ZM228,128a100.03616,100.03616,0,0,1-4.38867,29.387,4.00238,4.00238,0,0,1-.99561,1.65454L159.0459,222.61426a3.99437,3.99437,0,0,1-1.6543.9956A100.01538,100.01538,0,1,1,228,128Zm-8,0a91.89684,91.89684,0,1,0-65.89941,88.24609l62.147-62.1499A92.07644,92.07644,0,0,0,220,128Z"/>
</svg>
