<svg id="Flat" xmlns="http://www.w3.org/2000/svg" viewBox="0 0 256 256">
  <path d="M128,28A100,100,0,1,0,228,128,100.11332,100.11332,0,0,0,128,28Zm0,192a92,92,0,1,1,92-92A92.10416,92.10416,0,0,1,128,220Zm45.04053-66.001A52.02773,52.02773,0,0,1,82.95947,154a4,4,0,0,1,6.92481-4.00586A44.20284,44.20284,0,0,0,110.87451,168.54a43.95661,43.95661,0,0,0,48.23779-9.43164,44.17048,44.17048,0,0,0,7.00342-9.11524,4,4,0,0,1,6.92481,4.00586ZM84,108a8,8,0,1,1,8,8A7.99993,7.99993,0,0,1,84,108Zm96,0a4.0002,4.0002,0,0,1-4,4H152a4,4,0,0,1,0-8h24A4.0002,4.0002,0,0,1,180,108Z"/>
</svg>
