<svg id="Flat" xmlns="http://www.w3.org/2000/svg" viewBox="0 0 256 256">
  <path d="M86,108a6,6,0,1,1,6,6A6.00029,6.00029,0,0,1,86,108Zm78,6a6,6,0,1,0-6-6A6.00029,6.00029,0,0,0,164,114Zm64,14A100,100,0,1,1,128,28,100.11332,100.11332,0,0,1,228,128Zm-8,0a92,92,0,1,0-92,92A92.10416,92.10416,0,0,0,220,128Zm-48.41895,20.53369a4.00016,4.00016,0,0,0-5.46533,1.45947A44.197,44.197,0,0,1,145.12549,168.54a43.957,43.957,0,0,1-48.23828-9.43164,44.17532,44.17532,0,0,1-7.00293-9.11426A4,4,0,0,0,82.95947,154a52.02676,52.02676,0,0,0,90.08106-.001A4.0004,4.0004,0,0,0,171.58105,148.53369Z"/>
</svg>
