<svg id="Flat" xmlns="http://www.w3.org/2000/svg" viewBox="0 0 256 256">
  <path d="M173.04053,153.99927A52.02782,52.02782,0,0,1,82.95947,154a4,4,0,0,1,6.92481-4.00586A44.19622,44.19622,0,0,0,110.87451,168.54a43.95734,43.95734,0,0,0,48.23779-9.4314,44.18742,44.18742,0,0,0,7.00342-9.11523,4,4,0,0,1,6.92481,4.00586ZM228,128a100.03616,100.03616,0,0,1-4.38867,29.387,4.00238,4.00238,0,0,1-.99561,1.65454L159.0459,222.61426a3.99437,3.99437,0,0,1-1.6543.9956A100.01538,100.01538,0,1,1,228,128Zm-8,0a91.89684,91.89684,0,1,0-65.89941,88.24609l62.147-62.1499A92.07644,92.07644,0,0,0,220,128ZM92,116a8,8,0,1,0-8-8A8.00917,8.00917,0,0,0,92,116Zm72,0a8,8,0,1,0-8-8A8.00917,8.00917,0,0,0,164,116Z"/>
</svg>
