<svg id="Flat" xmlns="http://www.w3.org/2000/svg" viewBox="0 0 256 256">
  <path d="M128,28A100,100,0,1,0,228,128,100.11332,100.11332,0,0,0,128,28Zm0,192a92,92,0,1,1,92-92A92.10416,92.10416,0,0,1,128,220Zm51.12354-50.499a4.0002,4.0002,0,0,1-6.24708,4.998L160,158.40332,147.12354,174.499a4.00053,4.00053,0,0,1-6.24708,0L128,158.40332,115.12354,174.499a4.00053,4.00053,0,0,1-6.24708,0L96,158.40332,83.12354,174.499a4.0002,4.0002,0,1,1-6.24708-4.998l16-20a4.00053,4.00053,0,0,1,6.24708,0L112,165.59668l12.87646-16.0957a4.00053,4.00053,0,0,1,6.24708,0L144,165.59668l12.87646-16.0957a4.00053,4.00053,0,0,1,6.24708,0ZM84,108a8,8,0,1,1,8,8A8.00917,8.00917,0,0,1,84,108Zm72,0a8,8,0,1,1,8,8A8.00917,8.00917,0,0,1,156,108Z"/>
</svg>
