<svg id="Flat" xmlns="http://www.w3.org/2000/svg" viewBox="0 0 256 256">
  <path d="M128,28A100,100,0,1,0,228,128,100.11332,100.11332,0,0,0,128,28Zm0,192a92,92,0,1,1,92-92A92.10416,92.10416,0,0,1,128,220Zm45.04053-66.001A52.02773,52.02773,0,0,1,82.95947,154a4,4,0,0,1,6.92481-4.00586A44.20441,44.20441,0,0,0,110.874,168.54a43.95852,43.95852,0,0,0,48.23828-9.43115,44.18651,44.18651,0,0,0,7.00342-9.11573,4,4,0,0,1,6.92481,4.00586ZM84,108a8,8,0,1,1,8,8A8.00917,8.00917,0,0,1,84,108Zm72,0a8,8,0,1,1,8,8A8.00917,8.00917,0,0,1,156,108Z"/>
</svg>
