<svg id="Flat" xmlns="http://www.w3.org/2000/svg" viewBox="0 0 256 256">
  <path d="M86,108a6,6,0,1,1,6,6A6.00029,6.00029,0,0,1,86,108Zm78,6a6,6,0,1,0-6-6A6.00029,6.00029,0,0,0,164,114Zm64,14A100,100,0,1,1,128,28,100.11332,100.11332,0,0,1,228,128Zm-8,0a92,92,0,1,0-92,92A92.10416,92.10416,0,0,0,220,128Zm-57.17139,21.17188a3.99971,3.99971,0,0,0-5.65722,0L144,162.34277l-13.17139-13.17089a3.99971,3.99971,0,0,0-5.65722,0L112,162.34277,98.82861,149.17188a3.99971,3.99971,0,0,0-5.65722,0l-16,16a3.99991,3.99991,0,0,0,5.65722,5.65624L96,157.65723l13.17139,13.17089a3.99971,3.99971,0,0,0,5.65722,0L128,157.65723l13.17139,13.17089a3.99971,3.99971,0,0,0,5.65722,0L160,157.65723l13.17139,13.17089a3.99991,3.99991,0,1,0,5.65722-5.65624Z"/>
</svg>
