<svg id="Flat" xmlns="http://www.w3.org/2000/svg" viewBox="0 0 256 256">
  <path d="M128,28a100,100,0,1,0,29.3916,195.60986,3.99437,3.99437,0,0,0,1.6543-.9956l63.56982-63.57276a4.00238,4.00238,0,0,0,.99561-1.65454A100.07582,100.07582,0,0,0,128,28Zm88.24756,126.09619-62.147,62.1499a91.89587,91.89587,0,1,1,62.147-62.1499ZM84,108a8,8,0,1,1,8,8A7.99993,7.99993,0,0,1,84,108Zm72,0a8,8,0,1,1,8,8A7.99993,7.99993,0,0,1,156,108Zm17.04248,46a52.01569,52.01569,0,0,1-90.08447.00049,3.99987,3.99987,0,1,1,6.9248-4.00537,44.01578,44.01578,0,0,0,76.23438-.00049A4.00008,4.00008,0,1,1,173.04248,154Z"/>
</svg>
