<svg id="Flat" xmlns="http://www.w3.org/2000/svg" viewBox="0 0 256 256">
  <path d="M128,28A100,100,0,1,0,228,128,100.11332,100.11332,0,0,0,128,28Zm0,192a92,92,0,1,1,92-92A92.10416,92.10416,0,0,1,128,220ZM186.82812,98.82812,173.65674,112l13.17138,13.17188a3.99957,3.99957,0,1,1-5.65624,5.65624L168,117.65674l-13.17188,13.17138a3.99957,3.99957,0,0,1-5.65624-5.65624L162.34326,112,149.17188,98.82812a3.99957,3.99957,0,0,1,5.65624-5.65624L168,106.34326l13.17188-13.17138a3.99957,3.99957,0,1,1,5.65624,5.65624Zm-80,0L93.65674,112l13.17138,13.17188a3.99957,3.99957,0,1,1-5.65624,5.65624L88,117.65674,74.82812,130.82812a3.99957,3.99957,0,0,1-5.65624-5.65624L82.34326,112,69.17188,98.82812a3.99957,3.99957,0,0,1,5.65624-5.65624L88,106.34326l13.17188-13.17138a3.99957,3.99957,0,0,1,5.65624,5.65624ZM136,180a8,8,0,1,1-8-8A8.00917,8.00917,0,0,1,136,180Z"/>
</svg>
