<svg xmlns="http://www.w3.org/2000/svg" viewBox="0 0 256 256"><path d="M128,28A100,100,0,1,0,228,128,100.2,100.2,0,0,0,128,28Zm0,192a92,92,0,1,1,92-92A92.1,92.1,0,0,1,128,220Zm51.1-50.5a4,4,0,0,1-.6,5.6,3.8,3.8,0,0,1-2.5.9,3.9,3.9,0,0,1-3.1-1.5L160,158.4l-12.9,16.1a4,4,0,0,1-6.2,0L128,158.4l-12.9,16.1a4,4,0,0,1-6.2,0L96,158.4,83.1,174.5a4,4,0,0,1-6.2-5l16-20a4,4,0,0,1,6.2,0L112,165.6l12.9-16.1a4,4,0,0,1,6.2,0L144,165.6l12.9-16.1a4,4,0,0,1,6.2,0ZM84,108a8,8,0,1,1,8,8A8,8,0,0,1,84,108Zm72,0a8,8,0,1,1,8,8A8,8,0,0,1,156,108Z"/></svg>