<svg xmlns="http://www.w3.org/2000/svg" viewBox="0 0 256 256"><path d="M220.1,150.2a4.1,4.1,0,0,1-2.9,4.9l-28.9,7.7,7.8,28.9a4,4,0,0,1-2.9,4.9l-1,.2a4.1,4.1,0,0,1-3.9-3L180,162.6l-48-27.7v55.4l22.8,22.9a3.9,3.9,0,0,1,0,5.6,3.9,3.9,0,0,1-5.6,0L128,197.7l-21.2,21.1a4,4,0,0,1-5.6-5.6L124,190.3V134.9L76,162.6l-8.3,31.2a4.1,4.1,0,0,1-3.9,3l-1-.2a4,4,0,0,1-2.9-4.9l7.8-28.9-28.9-7.7a4.1,4.1,0,0,1-2.9-4.9,3.9,3.9,0,0,1,4.9-2.8L72,155.7,120,128,72,100.3l-31.2,8.3-1,.2a4,4,0,0,1-1-7.9l28.9-7.7L59.9,64.3a4,4,0,0,1,2.9-4.9,3.9,3.9,0,0,1,4.9,2.8L76,93.4l48,27.7V65.7L101.2,42.8a4,4,0,0,1,5.6-5.6L128,58.3l21.2-21.1a4,4,0,1,1,5.6,5.6L132,65.7v55.4l48-27.7,8.3-31.2a3.9,3.9,0,0,1,4.9-2.8,4,4,0,0,1,2.9,4.9l-7.8,28.9,28.9,7.7a4,4,0,0,1-1,7.9l-1-.2L184,100.3,136,128l48,27.7,31.2-8.3A3.9,3.9,0,0,1,220.1,150.2Z"/></svg>