<svg xmlns="http://www.w3.org/2000/svg" viewBox="0 0 256 256"><path d="M227.8,134.2v-.6c.1-1.9.2-3.7.2-5.6a99.8,99.8,0,0,0-22.3-62.9,3.1,3.1,0,0,0-.9-1.1,100.2,100.2,0,0,0-40.1-29l-.5-.2a99.8,99.8,0,0,0-72.4,0l-.5.2A100.2,100.2,0,0,0,51.2,64a3.1,3.1,0,0,0-.9,1.1A99.8,99.8,0,0,0,28,128c0,1.9.1,3.7.2,5.6v.6a99.8,99.8,0,0,0,15.2,47.1,4.1,4.1,0,0,0,.7,1.1,100.6,100.6,0,0,0,58.4,42.3h.5a99.3,99.3,0,0,0,50,0h.5a100.6,100.6,0,0,0,58.4-42.3,4.1,4.1,0,0,0,.7-1.1A99.8,99.8,0,0,0,227.8,134.2Zm-60.1,41.6-10.6-14.5,14-43.1,17.1-5.5,31.5,22.9a91,91,0,0,1-13.1,40.2Zm-79.4,0H49.4a91,91,0,0,1-13.1-40.2l31.5-22.9,17.1,5.5,14,43.1ZM52.4,75.7l10,31L36,125.9A90.8,90.8,0,0,1,52.4,75.7ZM106.2,158,92.8,116.5,128,90.9l35.2,25.6L149.8,158ZM220,125.9l-26.4-19.2,10-31A90.8,90.8,0,0,1,220,125.9ZM197.7,68l-12,37-17.1,5.6L132,84V66l31.5-22.9A92.5,92.5,0,0,1,197.7,68ZM154.4,39.9,128,59.1,101.6,39.9a91.3,91.3,0,0,1,52.8,0ZM92.5,43.1,124,66V84L87.4,110.6,70.3,105l-12-37A92.5,92.5,0,0,1,92.5,43.1ZM54.9,183.8H87.5l10.1,31A92.4,92.4,0,0,1,54.9,183.8Zm52,33.8L94.8,180.5,105.4,166h45.2l10.6,14.5-12.1,37.1a94,94,0,0,1-42.2,0Zm51.5-2.8,10.1-31h32.6A92.4,92.4,0,0,1,158.4,214.8Z"/></svg>