<svg id="Flat" xmlns="http://www.w3.org/2000/svg" viewBox="0 0 256 256">
  <path d="M160,236H96a3.99978,3.99978,0,0,1-3.79468-5.26465l13.6958-41.08594A55.99894,55.99894,0,0,1,24,140C24,86.42676,121.6853,23.292,125.84375,20.63086a3.9978,3.9978,0,0,1,4.3125,0C134.3147,23.292,232,86.42676,232,140a55.99894,55.99894,0,0,1-81.90112,49.64941l13.6958,41.08594A3.99978,3.99978,0,0,1,160,236Zm-58.4502-8h52.9004l-15.61976-46.85742a4.00011,4.00011,0,0,1,6.36353-4.33106A48.00118,48.00118,0,0,0,224,140c0-45.09375-81.58167-101.582-96-111.21C113.58167,38.418,32,94.90625,32,140a48.00118,48.00118,0,0,0,78.806,36.81152,4.00011,4.00011,0,0,1,6.36353,4.33106Z"/>
</svg>
