<svg id="Flat" xmlns="http://www.w3.org/2000/svg" viewBox="0 0 256 256">
  <path d="M160,236H96a4.00019,4.00019,0,0,1-3.81787-5.19336l9.77344-31.27539A56.02871,56.02871,0,0,1,24,148c0-29.38281,17.26794-59.82227,51.3241-90.47363a312.8809,312.8809,0,0,1,50.72143-37.0166,4.00164,4.00164,0,0,1,3.90894,0,312.8809,312.8809,0,0,1,50.72143,37.0166C214.73206,88.17773,232,118.61719,232,148a56.02921,56.02921,0,0,1-77.95618,51.53125l9.774,31.27539A4.00019,4.00019,0,0,1,160,236Zm-58.5592-8h53.1184l-11.074-35.43652a3.99946,3.99946,0,0,1,6.02783-4.52637A48.00767,48.00767,0,0,0,224,148c0-59.70117-82.17529-111.1416-96-119.36816C114.17529,36.8584,32,88.29883,32,148a48.00785,48.00785,0,0,0,74.37756,40.10938,4.00078,4.00078,0,0,1,6.24732,4.02148,4.076,4.076,0,0,1-.1366.51758Z"/>
</svg>
