<svg xmlns="http://www.w3.org/2000/svg" viewBox="0 0 256 256"><path d="M197,132.7l-52.2-19.2a3.7,3.7,0,0,1-2.3-2.3L123.3,59a12,12,0,0,0-22.6,0L81.5,111.2a3.7,3.7,0,0,1-2.3,2.3L27,132.7a12,12,0,0,0,0,22.6l52.2,19.2a3.7,3.7,0,0,1,2.3,2.3L100.7,229a12,12,0,0,0,22.6,0l19.2-52.2h0a3.7,3.7,0,0,1,2.3-2.3L197,155.3a12,12,0,0,0,0-22.6Zm-2.8,15.1L142.1,167a11.9,11.9,0,0,0-7.1,7.1l-19.2,52.1a4,4,0,0,1-7.6,0L89,174.1a11.9,11.9,0,0,0-7.1-7.1L29.8,147.8a4,4,0,0,1,0-7.6L81.9,121a11.9,11.9,0,0,0,7.1-7.1l19.2-52.1a4,4,0,0,1,7.6,0L135,113.9a11.9,11.9,0,0,0,7.1,7.1l52.1,19.2a4,4,0,0,1,0,7.6ZM148,40a4,4,0,0,1,4-4h20V16a4,4,0,0,1,8,0V36h20a4,4,0,0,1,0,8H180V64a4,4,0,0,1-8,0V44H152A4,4,0,0,1,148,40Zm96,48a4,4,0,0,1-4,4H228v12a4,4,0,0,1-8,0V92H208a4,4,0,0,1,0-8h12V72a4,4,0,0,1,8,0V84h12A4,4,0,0,1,244,88Z"/></svg>