<svg id="Flat" xmlns="http://www.w3.org/2000/svg" viewBox="0 0 256 256">
  <path d="M153.75781,28.40625a4.00666,4.00666,0,0,0-4.21386.43652L78.62793,84H32A12.01312,12.01312,0,0,0,20,96v64a12.01312,12.01312,0,0,0,12,12H78.62793l70.916,55.15723A3.99955,3.99955,0,0,0,156,224V32A4.00208,4.00208,0,0,0,153.75781,28.40625ZM148,215.82129,82.45605,164.84277A4.002,4.002,0,0,0,80,164H32a4.004,4.004,0,0,1-4-4V96a4.004,4.004,0,0,1,4-4H80a4.002,4.002,0,0,0,2.45605-.84277L148,40.17871ZM195.97656,104v48a4,4,0,0,1-8,0V104a4,4,0,0,1,8,0Z"/>
</svg>
