<svg id="Flat" xmlns="http://www.w3.org/2000/svg" viewBox="0 0 256 256">
  <path d="M187.97656,152V104a4,4,0,0,1,8,0v48a4,4,0,1,1-8,0Zm36-68a4.0002,4.0002,0,0,0-4,4v80a4,4,0,1,0,8,0V88A4.00019,4.00019,0,0,0,223.97656,84ZM210.96,213.30954A4,4,0,1,1,205.04,218.6904L156,164.74655V224a4,4,0,0,1-6.45605,3.15722L78.62793,172H32a12.01312,12.01312,0,0,1-12-12V96A12.01312,12.01312,0,0,1,32,84H82.59424L45.04,42.6904A4,4,0,1,1,50.96,37.30954ZM148,155.94626,89.86719,92H32a4.004,4.004,0,0,0-4,4v64a4.004,4.004,0,0,0,4,4H80a4.002,4.002,0,0,1,2.45605.84277L148,215.82126ZM114.60645,66.15133,148,40.17868v66.65039a4,4,0,0,0,8,0V32a4.00023,4.00023,0,0,0-6.45605-3.15723L109.69434,59.83688a4,4,0,1,0,4.91211,6.31445Z"/>
</svg>
