<svg id="Flat" xmlns="http://www.w3.org/2000/svg" viewBox="0 0 256 256">
  <path d="M243.97656,128a75.50046,75.50046,0,0,1-22.26074,53.74023,3.99957,3.99957,0,0,1-5.65625-5.65625,68.00113,68.00113,0,0,0,0-96.168,3.99957,3.99957,0,0,1,5.65625-5.65625A75.50046,75.50046,0,0,1,243.97656,128ZM156,32V224a4,4,0,0,1-6.45605,3.15723L78.62793,172H32a12.01312,12.01312,0,0,1-12-12V96A12.01312,12.01312,0,0,1,32,84H78.62793l70.916-55.15723A3.99955,3.99955,0,0,1,156,32ZM32,164H75.99414V92H32a4.004,4.004,0,0,0-4,4v64A4.004,4.004,0,0,0,32,164ZM148,40.17871,83.99414,89.96094v76.07812L148,215.82129Zm39.77441,62.36621a4.00061,4.00061,0,0,0,.001,5.65723,27.99686,27.99686,0,0,1,0,39.5957,4.00026,4.00026,0,0,0,5.65625,5.6582,35.99865,35.99865,0,0,0,0-50.9121A4.00149,4.00149,0,0,0,187.77441,102.54492Z"/>
</svg>
