<svg id="Flat" xmlns="http://www.w3.org/2000/svg" viewBox="0 0 256 256">
  <path d="M243.97656,128.01169a75.49484,75.49484,0,0,1-22.26074,53.73925,3.99957,3.99957,0,0,1-5.65625-5.65625,68,68,0,0,0,0-96.167,3.99957,3.99957,0,0,1,5.65625-5.65625A75.49546,75.49546,0,0,1,243.97656,128.01169Zm-56.20215,25.45507a4.0009,4.0009,0,0,0,5.65723.001,35.99866,35.99866,0,0,0,0-50.91211,3.99957,3.99957,0,0,0-5.65625,5.65625,27.99923,27.99923,0,0,1,0,39.59766A4.0006,4.0006,0,0,0,187.77441,153.46676ZM210.96,213.30954A4,4,0,1,1,205.04,218.6904L156,164.74655v59.26514a4,4,0,0,1-6.45605,3.15722l-70.916-55.15722H32a12.01312,12.01312,0,0,1-12-12v-64a12.01312,12.01312,0,0,1,12-12H78.62793l2.32959-1.812L45.04,42.6904A4,4,0,1,1,50.96,37.30954ZM32,164.01169H75.99414v-72H32a4.004,4.004,0,0,0-4,4v64A4.004,4.004,0,0,0,32,164.01169Zm116-8.06543L86.35449,88.13669l-2.36035,1.83593v76.07813L148,215.833ZM114.6123,66.15817,148,40.1904v66.63867a4,4,0,0,0,8,0V32.01169a4.00023,4.00023,0,0,0-6.45605-3.15723L109.7002,59.84372a4,4,0,1,0,4.9121,6.31445Z"/>
</svg>
