<svg id="Flat" xmlns="http://www.w3.org/2000/svg" viewBox="0 0 256 256">
  <path d="M153.75781,28.40625a4.00666,4.00666,0,0,0-4.21386.43652L78.62793,84H32A12.01312,12.01312,0,0,0,20,96v64a12.01312,12.01312,0,0,0,12,12H78.62793l70.916,55.15723A3.99955,3.99955,0,0,0,156,224V32A4.00208,4.00208,0,0,0,153.75781,28.40625ZM28,160V96a4.004,4.004,0,0,1,4-4H75.99414v72H32A4.004,4.004,0,0,1,28,160Zm120,55.82129L83.99414,166.03906V89.96094L148,40.17871ZM203.97656,128a35.76265,35.76265,0,0,1-10.54492,25.45605,4.00026,4.00026,0,1,1-5.65625-5.6582,27.99686,27.99686,0,0,0,0-39.5957,4.00026,4.00026,0,1,1,5.65625-5.6582A35.76265,35.76265,0,0,1,203.97656,128Z"/>
</svg>
