<svg xmlns="http://www.w3.org/2000/svg" viewBox="0 0 256 256"><path d="M153.8,28.4a4.2,4.2,0,0,0-4.3.4L78.6,84H32A12,12,0,0,0,20,96v64a12,12,0,0,0,12,12H78.6l70.9,55.2a4.6,4.6,0,0,0,2.5.8,3.9,3.9,0,0,0,1.8-.4A4.2,4.2,0,0,0,156,224V32A4.2,4.2,0,0,0,153.8,28.4ZM148,215.8l-65.5-51A4.4,4.4,0,0,0,80,164H32a4,4,0,0,1-4-4V96a4,4,0,0,1,4-4H80a4.4,4.4,0,0,0,2.5-.8l65.5-51Zm94.8-66.6a3.9,3.9,0,0,1,0,5.6,3.9,3.9,0,0,1-5.6,0L216,133.7l-21.2,21.1a3.9,3.9,0,0,1-5.6,0,3.9,3.9,0,0,1,0-5.6L210.3,128l-21.1-21.2a4,4,0,0,1,5.6-5.6L216,122.3l21.2-21.1a4,4,0,1,1,5.6,5.6L221.7,128Z"/></svg>