<svg xmlns="http://www.w3.org/2000/svg" viewBox="0 0 256 256"><path d="M244,128a75.2,75.2,0,0,1-22.3,53.7,3.9,3.9,0,0,1-2.8,1.2,3.8,3.8,0,0,1-2.8-1.2,3.9,3.9,0,0,1,0-5.6,68.1,68.1,0,0,0,0-96.2,4,4,0,1,1,5.6-5.6A75.2,75.2,0,0,1,244,128Zm-56.2,25.5a4.3,4.3,0,0,0,2.8,1.1,4.1,4.1,0,0,0,2.8-1.1,35.9,35.9,0,0,0,0-50.9,4,4,0,0,0-5.6,5.6,28,28,0,0,1,0,39.6A4,4,0,0,0,187.8,153.5ZM211,213.3a4.2,4.2,0,0,1-.3,5.7,4.1,4.1,0,0,1-5.7-.3l-49-54V224a4.2,4.2,0,0,1-2.2,3.6,3.9,3.9,0,0,1-1.8.4,4.6,4.6,0,0,1-2.5-.8L78.6,172H32a12,12,0,0,1-12-12V96A12,12,0,0,1,32,84H78.6L81,82.2,45,42.7a4,4,0,1,1,6-5.4ZM32,164H76V92H32a4,4,0,0,0-4,4v64A4,4,0,0,0,32,164Zm116-8.1L86.4,88.1,84,90v76l64,49.8ZM114.6,66.2l33.4-26v66.6a4,4,0,1,0,8,0V32a4.2,4.2,0,0,0-2.2-3.6,4,4,0,0,0-4.3.5L109.7,59.8a4,4,0,0,0,4.9,6.4Z"/></svg>