<svg xmlns="http://www.w3.org/2000/svg" viewBox="0 0 256 256"><path d="M153.8,28.4a4.2,4.2,0,0,0-4.3.4L78.6,84H32A12,12,0,0,0,20,96v64a12,12,0,0,0,12,12H78.6l70.9,55.2a4.6,4.6,0,0,0,2.5.8,3.9,3.9,0,0,0,1.8-.4A4.2,4.2,0,0,0,156,224V32A4.2,4.2,0,0,0,153.8,28.4ZM28,160V96a4,4,0,0,1,4-4H76v72H32A4,4,0,0,1,28,160Zm120,55.8L84,166V90l64-49.8ZM204,128a35.9,35.9,0,0,1-10.6,25.5,4.1,4.1,0,0,1-2.8,1.1,4.3,4.3,0,0,1-2.8-1.1,4,4,0,0,1,0-5.7,28,28,0,0,0,0-39.6,4,4,0,0,1,0-5.7,4,4,0,0,1,5.6,0A35.9,35.9,0,0,1,204,128Z"/></svg>