<svg id="Flat" xmlns="http://www.w3.org/2000/svg" viewBox="0 0 256 256">
  <path d="M132,32V64a4,4,0,0,1-8,0V32a4,4,0,0,1,8,0Zm92,92H192a4,4,0,0,0,0,8h32a4,4,0,0,0,0-8Zm-47.917,46.42676a3.99957,3.99957,0,0,0-5.65625,5.65625L193.05371,198.71a3.99957,3.99957,0,0,0,5.65625-5.65625ZM128,188a4.0002,4.0002,0,0,0-4,4v32a4,4,0,0,0,8,0V192A4.0002,4.0002,0,0,0,128,188ZM79.917,170.42676,57.29,193.05371A3.99957,3.99957,0,1,0,62.94629,198.71l22.627-22.62695a3.99957,3.99957,0,0,0-5.65625-5.65625ZM68,128a4.0002,4.0002,0,0,0-4-4H32a4,4,0,0,0,0,8H64A4.0002,4.0002,0,0,0,68,128ZM62.94629,57.29A3.99957,3.99957,0,0,0,57.29,62.94629l22.627,22.627A3.99957,3.99957,0,0,0,85.57324,79.917Z"/>
</svg>
