<svg xmlns="http://www.w3.org/2000/svg" viewBox="0 0 256 256"><path d="M132,32V64a4,4,0,0,1-8,0V32a4,4,0,0,1,8,0Zm92,92H192a4,4,0,0,0,0,8h32a4,4,0,0,0,0-8Zm-47.9,46.4a4,4,0,0,0-5.7,5.7l22.7,22.6a3.8,3.8,0,0,0,2.8,1.2,3.9,3.9,0,0,0,2.8-1.2,3.9,3.9,0,0,0,0-5.6ZM128,188a4,4,0,0,0-4,4v32a4,4,0,0,0,8,0V192A4,4,0,0,0,128,188ZM79.9,170.4,57.3,193.1a3.9,3.9,0,0,0,0,5.6,3.9,3.9,0,0,0,2.8,1.2,3.8,3.8,0,0,0,2.8-1.2l22.7-22.6a4,4,0,0,0-5.7-5.7ZM68,128a4,4,0,0,0-4-4H32a4,4,0,0,0,0,8H64A4,4,0,0,0,68,128ZM62.9,57.3a4,4,0,1,0-5.6,5.6L79.9,85.6a3.8,3.8,0,0,0,2.8,1.1,3.9,3.9,0,0,0,2.9-1.1,4.2,4.2,0,0,0,0-5.7Z"/></svg>