<svg id="Flat" xmlns="http://www.w3.org/2000/svg" viewBox="0 0 256 256">
  <path d="M128,28A100,100,0,1,0,228,128,100.113,100.113,0,0,0,128,28Zm0,192a92,92,0,1,1,92-92A92.10447,92.10447,0,0,1,128,220Zm54.69092-109.8418a4.00177,4.00177,0,0,1-5.38623,1.72852,108.192,108.192,0,0,0-98.69776.04687,3.99989,3.99989,0,0,1-3.66406-7.11133,116.19139,116.19139,0,0,1,106.019-.05078A4.00068,4.00068,0,0,1,182.69092,110.15817Zm-14.83252,28.375a4.00182,4.00182,0,0,1-5.38086,1.74512,75.93892,75.93892,0,0,0-69.043.04394,4,4,0,0,1-3.64551-7.12109,83.94229,83.94229,0,0,1,76.32422-.04981A4.00141,4.00141,0,0,1,167.8584,138.53317Zm-14.81055,28.331a4.00163,4.00163,0,0,1-5.36816,1.78418,43.97578,43.97578,0,0,0-39.44385.04395,4.00027,4.00027,0,0,1-3.60059-7.14453,51.98061,51.98061,0,0,1,46.6294-.05176A3.99986,3.99986,0,0,1,153.04785,166.86422Z"/>
</svg>
