<svg xmlns="http://www.w3.org/2000/svg" viewBox="0 0 256 256"><path d="M128.1,28a100,100,0,1,0,100,100A100.1,100.1,0,0,0,128.1,28Zm0,192a92,92,0,1,1,92-92A92.1,92.1,0,0,1,128.1,220Zm54.6-109.8a4,4,0,0,1-5.3,1.7,108.3,108.3,0,0,0-98.7,0,4.1,4.1,0,0,1-1.9.5,4,4,0,0,1-1.8-7.6,116.1,116.1,0,0,1,106,0A3.9,3.9,0,0,1,182.7,110.2Zm-14.8,28.3a4,4,0,0,1-5.4,1.8,74.6,74.6,0,0,0-34.4-8.3,75.4,75.4,0,0,0-34.6,8.3,4.1,4.1,0,0,1-1.8.5,4,4,0,0,1-3.6-2.2,4.1,4.1,0,0,1,1.7-5.4,83.9,83.9,0,0,1,76.4,0A4,4,0,0,1,167.9,138.5Zm-14.8,28.4a4.1,4.1,0,0,1-5.4,1.7,44.1,44.1,0,0,0-39.4.1,3.9,3.9,0,0,1-1.8.4,4,4,0,0,1-1.8-7.6,52.6,52.6,0,0,1,23.4-5.5,50.8,50.8,0,0,1,23.2,5.5A4,4,0,0,1,153.1,166.9Z"/></svg>