<svg id="Flat" xmlns="http://www.w3.org/2000/svg" viewBox="0 0 256 256">
  <path d="M204,40H52A12.01375,12.01375,0,0,0,40,52V204a12.01375,12.01375,0,0,0,12,12H204a12.01375,12.01375,0,0,0,12-12V52A12.01375,12.01375,0,0,0,204,40ZM132,153.66284,186.33691,208H132ZM132,48h6.33691L208,117.66284v44.686l-76-76Zm76,4v54.34875L149.65137,48H204A4.00458,4.00458,0,0,1,208,52ZM48,204V52a4.00458,4.00458,0,0,1,4-4h72V208H52A4.00458,4.00458,0,0,1,48,204Zm156,4h-6.34863L132,142.34875V97.66284l76,76V204A4.00458,4.00458,0,0,1,204,208Z"/>
</svg>
