<svg id="Flat" xmlns="http://www.w3.org/2000/svg" viewBox="0 0 256 256">
  <path d="M227.45508,173.98437a4,4,0,0,1-1.43946,5.47071l-96,56a4.00028,4.00028,0,0,1-4.03124,0l-96-56a4,4,0,1,1,4.03124-6.91016L128,227.36914l93.98438-54.82422A4.00114,4.00114,0,0,1,227.45508,173.98437Zm-5.4707-49.43945L128,179.36914,34.01562,124.54492a4,4,0,1,0-4.03124,6.91016l96,56a4.00028,4.00028,0,0,0,4.03124,0l96-56a4,4,0,1,0-4.03124-6.91016ZM28,80a4.00029,4.00029,0,0,1,1.98438-3.45508l96-56a4.00028,4.00028,0,0,1,4.03124,0l96,56a4.00008,4.00008,0,0,1,0,6.91016l-96,56a4.00028,4.00028,0,0,1-4.03124,0l-96-56A4.00029,4.00029,0,0,1,28,80Zm11.93848,0L128,131.36914,216.06152,80,128,28.63086Z"/>
</svg>
