<svg id="Flat" xmlns="http://www.w3.org/2000/svg" viewBox="0 0 256 256">
  <path d="M14.01562,107.47266l112,64a3.99728,3.99728,0,0,0,3.96876,0l112-64a3.99929,3.99929,0,0,0,0-6.94532l-112-64a3.99728,3.99728,0,0,0-3.96876,0l-112,64a3.99929,3.99929,0,0,0,0,6.94532ZM128,44.60742,231.9375,104,128,163.39258,24.0625,104Zm115.47314,97.4082a3.99987,3.99987,0,0,1-1.48876,5.457l-112,64a3.99728,3.99728,0,0,1-3.96876,0l-112-64a3.99964,3.99964,0,1,1,3.96876-6.94532L128,203.39258l110.01562-62.86524A3.9987,3.9987,0,0,1,243.47314,142.01562Z"/>
</svg>
