<svg xmlns="http://www.w3.org/2000/svg" viewBox="0 0 256 256"><path d="M212,152v64a4,4,0,0,1-4,4H48a4,4,0,0,1-4-4V152a4,4,0,0,1,8,0v60H204V152a4,4,0,0,1,8,0ZM88,180h80a4,4,0,0,0,0-8H88a4,4,0,0,0,0,8Zm5.9-52.9,77.3,20.7h1a4,4,0,0,0,1.1-7.9L96,119.3a4.1,4.1,0,0,0-4.9,2.9A4,4,0,0,0,93.9,127.1Zm19.4-49.6,69.3,40a4.6,4.6,0,0,0,2,.5,4,4,0,0,0,2-7.5l-69.3-40a4,4,0,0,0-5.4,1.5A4,4,0,0,0,113.3,77.5Zm88.2,13.6a3.9,3.9,0,0,0,2.8,1.2,3.8,3.8,0,0,0,2.8-1.2,3.9,3.9,0,0,0,0-5.6L150.6,28.9a4,4,0,0,0-5.7,5.7Z"/></svg>