<svg xmlns="http://www.w3.org/2000/svg" viewBox="0 0 256 256"><path d="M220,224a4,4,0,0,1-4,4H40a4,4,0,0,1,0-8H216A4,4,0,0,1,220,224Zm0-80v40a12,12,0,0,1-12,12H48a12,12,0,0,1-12-12V144a12,12,0,0,1,12-12h59.1L90.3,53.9A28,28,0,0,1,117.7,20h20.6a28,28,0,0,1,27.4,33.9L148.9,132H208A12,12,0,0,1,220,144ZM115.2,132h25.6l17.1-79.8a20.3,20.3,0,0,0-4-16.8A20,20,0,0,0,138.3,28H117.7a20,20,0,0,0-15.6,7.4,20.3,20.3,0,0,0-4,16.8ZM212,144a4,4,0,0,0-4-4H48a4,4,0,0,0-4,4v40a4,4,0,0,0,4,4H208a4,4,0,0,0,4-4Z"/></svg>