<svg xmlns="http://www.w3.org/2000/svg" viewBox="0 0 256 256"><path d="M231.4,112.4l-8.7,7.3a3.8,3.8,0,0,1-2.5.9,3.9,3.9,0,0,1-3.1-1.5,4,4,0,0,1,.5-5.6l8.7-7.2a5,5,0,0,0,1.5-5.2,4.5,4.5,0,0,0-3.9-3.1l-11.6-.7a4,4,0,0,1-3.7-4.3,3.9,3.9,0,0,1,4.2-3.7l11.6.7a12.5,12.5,0,0,1,11,8.7A12.7,12.7,0,0,1,231.4,112.4Zm-54.5,44.4,3.3,13.1a4.1,4.1,0,0,0,3.9,3h1a4.1,4.1,0,0,0,2.9-4.9l-3.3-13a4.8,4.8,0,0,1,1.5-4.9l10-8.3a4,4,0,0,0,.6-5.6,4.1,4.1,0,0,0-5.7-.6l-10,8.4A12.9,12.9,0,0,0,176.9,156.8Zm1-61.8-13.1-.8a12.5,12.5,0,0,1-10.7-7.9l-22-55.5c-.1,0-.1,0-.1-.1V186.1a10.5,10.5,0,0,1,2.6,1.3l11.5,7.3a4,4,0,1,1-4.3,6.7l-11.5-7.3a4.8,4.8,0,0,0-2.3-.7h0a4.8,4.8,0,0,0-2.3.7L78.9,223.8a13.9,13.9,0,0,1-7.5,2.2,13.6,13.6,0,0,1-8.1-2.7A14.4,14.4,0,0,1,57.8,208l13.5-53.1a4.8,4.8,0,0,0-1.5-4.9L24.6,112.4a12.7,12.7,0,0,1-4-13.7,12.5,12.5,0,0,1,11-8.7l59.1-3.8a4.6,4.6,0,0,0,3.8-2.8l22-55.5a12.3,12.3,0,0,1,23,0l22,55.5a4.6,4.6,0,0,0,3.8,2.8l13.1.9a4,4,0,0,1,3.8,4.2A4,4,0,0,1,177.9,95Zm-56.5,92.4a10.5,10.5,0,0,1,2.6-1.3V30.7c0,.1,0,.1-.1.1l-22,55.5a12.5,12.5,0,0,1-10.7,7.9L32.1,98a4.5,4.5,0,0,0-3.9,3.1,5,5,0,0,0,1.5,5.2l45.2,37.6a12.9,12.9,0,0,1,4.2,12.9L65.6,210a6.1,6.1,0,0,0,2.4,6.8,5.6,5.6,0,0,0,6.6.2Zm75.1,13.9a4,4,0,0,0-4.9-2.9,4,4,0,0,0-2.9,4.8l2.8,11a4.7,4.7,0,0,1-1.7,5,4.2,4.2,0,0,1-4.8.1l-9.8-6.2a4.1,4.1,0,0,0-5.6,1.2,4,4,0,0,0,1.3,5.5l9.8,6.3a12.3,12.3,0,0,0,6.6,1.9,11.7,11.7,0,0,0,7.1-2.4,12.5,12.5,0,0,0,4.9-13.4Z"/></svg>