<svg id="Flat" xmlns="http://www.w3.org/2000/svg" viewBox="0 0 256 256">
  <path d="M228.69141,116.72266,164.875,93.51562a3.986,3.986,0,0,1-2.3916-2.3916L139.27734,27.30859a12.00008,12.00008,0,0,0-22.55468,0L93.51562,91.125a3.986,3.986,0,0,1-2.3916,2.3916L27.30859,116.72266a12.00008,12.00008,0,0,0,0,22.55468l63.81641,23.207a3.986,3.986,0,0,1,2.3916,2.3916l23.20606,63.81543a12.00008,12.00008,0,0,0,22.55468,0L162.4834,164.876l.001-.001a3.986,3.986,0,0,1,2.3916-2.3916l63.81543-23.20606a12.00008,12.00008,0,0,0,0-22.55468ZM225.957,131.75977l-63.81445,23.20507a11.967,11.967,0,0,0-7.17676,7.17676L131.75977,225.957a4.001,4.001,0,0,1-7.51954,0l-23.20507-63.81445a11.96452,11.96452,0,0,0-7.17676-7.17676L30.043,131.75977a4.001,4.001,0,0,1,0-7.51954l63.81445-23.20507a11.96452,11.96452,0,0,0,7.17676-7.17676l23.206-63.81543a4.001,4.001,0,0,1,7.51954,0l23.20507,63.81445a11.96452,11.96452,0,0,0,7.17676,7.17676l63.81543,23.206a4.001,4.001,0,0,1,0,7.51954Z"/>
</svg>
