<svg id="Flat" xmlns="http://www.w3.org/2000/svg" viewBox="0 0 256 256">
  <path d="M187.27344,228.01147a12.22943,12.22943,0,0,1-6.56739-1.946l-50.43554-31.95386a4.20647,4.20647,0,0,0-4.541,0L78.85937,223.8064a13.648,13.648,0,0,1-15.59082-.49048,14.39145,14.39145,0,0,1-5.47168-15.293l13.51368-53.16016A4.75433,4.75433,0,0,0,69.791,150.047L24.56348,112.40344a12.676,12.676,0,0,1-3.91993-13.74768,12.22556,12.22556,0,0,1,10.9795-8.62268L90.6875,86.19983a4.4467,4.4467,0,0,0,3.78809-2.83472l22.02929-55.47363a12.31785,12.31785,0,0,1,22.99024.00024L161.52441,83.3645a4.44633,4.44633,0,0,0,3.78809,2.83533L224.377,90.03308a12.22557,12.22557,0,0,1,10.9795,8.62268,12.67572,12.67572,0,0,1-3.91993,13.74756L186.209,150.04688a4.75486,4.75486,0,0,0-1.51953,4.81616l14.57227,57.322a12.65708,12.65708,0,0,1-4.81445,13.448A12.17922,12.17922,0,0,1,187.27344,228.01147ZM128,185.43335a12.21611,12.21611,0,0,1,6.55176,1.92041h0l50.43554,31.95386a4.08991,4.08991,0,0,0,4.7627-.15064,4.641,4.641,0,0,0,1.75781-5.00073l-14.57226-57.32251a12.79587,12.79587,0,0,1,4.15625-12.93591l45.22754-37.64331a4.67409,4.67409,0,0,0,1.43066-5.12281,4.37647,4.37647,0,0,0-3.89063-3.11547L164.79492,94.183a12.48164,12.48164,0,0,1-10.70605-7.86645l-22.0293-55.47241a4.31935,4.31935,0,0,0-8.11914-.00025l-22.0293,55.47327A12.482,12.482,0,0,1,91.20508,94.183L32.14062,98.01624A4.37647,4.37647,0,0,0,28.25,101.13171a4.67432,4.67432,0,0,0,1.43066,5.12293L74.9082,143.898a12.79537,12.79537,0,0,1,4.15625,12.93555L65.55078,209.99414a6.35586,6.35586,0,0,0,2.415,6.8457,5.717,5.717,0,0,0,6.6123.20874l46.87012-29.69482A12.21609,12.21609,0,0,1,128,185.43335Z"/>
</svg>
