<svg id="Flat" xmlns="http://www.w3.org/2000/svg" viewBox="0 0 256 256">
  <path d="M231.43652,112.40332l-8.71777,7.25586a3.99965,3.99965,0,0,1-5.11719-6.14844l8.71778-7.25586a4.67439,4.67439,0,0,0,1.43066-5.123,4.37754,4.37754,0,0,0-3.8916-3.11622l-11.54688-.749a3.99959,3.99959,0,1,1,.51758-7.98242l11.54785.749a12.22544,12.22544,0,0,1,10.9795,8.62305A12.675,12.675,0,0,1,231.43652,112.40332Zm-54.501,44.43066L180.25,169.86914a4.00021,4.00021,0,0,0,7.75391-1.9707l-3.31446-13.03516a4.75581,4.75581,0,0,1,1.51953-4.8164l10.03223-8.34961a3.99965,3.99965,0,1,0-5.11719-6.14844l-10.03222,8.34961A12.79458,12.79458,0,0,0,176.93555,156.834Zm.99609-61.79882-13.13672-.85254a12.479,12.479,0,0,1-10.70605-7.86621l-22.0293-55.47168c-.01855-.04663-.04-.08692-.05957-.13208V186.12134a12.443,12.443,0,0,1,2.55176,1.23218l11.5166,7.29687a3.99991,3.99991,0,1,1-4.28125,6.75781l-11.5166-7.29687a4.23585,4.23585,0,0,0-2.25928-.66431L128,193.44824l-.01123-.00122a4.23585,4.23585,0,0,0-2.25928.66431L78.85938,223.80664a13.65,13.65,0,0,1-15.59083-.49023,14.39232,14.39232,0,0,1-5.47167-15.293l13.51367-53.16016a4.75581,4.75581,0,0,0-1.51953-4.8164L24.56348,112.40332a12.675,12.675,0,0,1-3.91993-13.74707A12.22525,12.22525,0,0,1,31.62207,90.0332l59.06543-3.833a4.448,4.448,0,0,0,3.78809-2.835L116.50488,27.8916a12.31785,12.31785,0,0,1,22.99024,0l22.02929,55.47266a4.44753,4.44753,0,0,0,3.78907,2.83594l13.13574.85253a3.9996,3.9996,0,0,1-.51758,7.98243Zm-56.4834,92.31836A12.443,12.443,0,0,1,124,186.12134V30.71265c-.01953.04516-.041.08545-.05957.13208l-22.0293,55.47265a12.47945,12.47945,0,0,1-10.70508,7.86524l-59.06543,3.833A4.37726,4.37726,0,0,0,28.25,101.13184a4.67439,4.67439,0,0,0,1.43066,5.123L74.9082,143.89844A12.79458,12.79458,0,0,1,79.06445,156.834L65.55078,209.99414a6.35618,6.35618,0,0,0,2.415,6.8457,5.717,5.717,0,0,0,6.6123.209Zm75.03906,13.91992a4.00021,4.00021,0,0,0-7.7539,1.9707l2.77441,10.91211a4.64121,4.64121,0,0,1-1.75781,5.001,4.08959,4.08959,0,0,1-4.7627.15039l-9.82617-6.22461a3.99991,3.99991,0,0,0-4.28125,6.75781l9.82617,6.22461a12.029,12.029,0,0,0,13.74024-.43164,12.65649,12.65649,0,0,0,4.81543-13.44824Z"/>
</svg>
