<svg id="Flat" xmlns="http://www.w3.org/2000/svg" viewBox="0 0 256 256">
  <path d="M220,136V88a52.059,52.059,0,0,0-52-52H88A52.059,52.059,0,0,0,36,88v80a52.059,52.059,0,0,0,52,52h48a3.98334,3.98334,0,0,0,.73022-.07373c.08423-.01563.16419-.03955.24646-.06055.096-.02441.194-.03955.288-.0708,25.45312-8.48437,74.0459-57.07715,82.53027-82.53027.03125-.09375.04663-.1919.0708-.28809.02075-.082.04505-.16211.06055-.24609A3.9893,3.9893,0,0,0,220,136ZM44,168V88A44.04978,44.04978,0,0,1,88,44h80a44.04978,44.04978,0,0,1,44,44v44H184a52.059,52.059,0,0,0-52,52v28H88A44.04978,44.04978,0,0,1,44,168Zm96,41.977V184a44.04978,44.04978,0,0,1,44-44h25.977C198.89673,162.2334,162.23352,198.89648,140,209.97705Z"/>
</svg>
