<svg xmlns="http://www.w3.org/2000/svg" viewBox="0 0 256 256"><path d="M228,95.9v-.3a1.3,1.3,0,0,1-.1-.6h-.1L213.5,44.7A12.1,12.1,0,0,0,202,36H54a12.1,12.1,0,0,0-11.5,8.7L28.2,94.9h-.1a1.3,1.3,0,0,1-.1.6v.3h0v16a35.9,35.9,0,0,0,16,29.9V208a12,12,0,0,0,12,12H200a12,12,0,0,0,12-12V141.9A35.9,35.9,0,0,0,228,112V96ZM50.2,46.9A4.1,4.1,0,0,1,54,44H202a4.1,4.1,0,0,1,3.8,2.9L218.7,92H37.3ZM100,100h56v12a28,28,0,0,1-56,0ZM36,112V100H92v12a28.1,28.1,0,0,1-28,28,27.8,27.8,0,0,1-13.4-3.4,5.7,5.7,0,0,0-1.3-.8A27.8,27.8,0,0,1,36,112Zm168,96a4,4,0,0,1-4,4H56a4,4,0,0,1-4-4V145.9A34.4,34.4,0,0,0,64,148a36,36,0,0,0,32-19.5,36,36,0,0,0,64,0A36,36,0,0,0,192,148a34.4,34.4,0,0,0,12-2.1Zm2.7-72.2a5.7,5.7,0,0,0-1.3.8A27.8,27.8,0,0,1,192,140a28.1,28.1,0,0,1-28-28V100h56v12A27.8,27.8,0,0,1,206.7,135.8Z"/></svg>