<svg id="Flat" xmlns="http://www.w3.org/2000/svg" viewBox="0 0 256 256">
  <path d="M227.98975,95.89917c-.00245-.10181-.02015-.20166-.03052-.30347a3.97087,3.97087,0,0,0-.09375-.57324c-.01-.04-.0083-.08118-.01978-.12109L213.50391,44.70312A12.051,12.051,0,0,0,201.96582,36H54.03418a12.05089,12.05089,0,0,0-11.53809,8.70361L28.1543,94.90137c-.01142.03991-.00971.08117-.01984.12134a3.98375,3.98375,0,0,0-.09369.573c-.01037.10181-.028.20166-.03058.30347C28.00934,95.93347,28,95.96545,28,96v16a35.99174,35.99174,0,0,0,16,29.91663V208a12.01343,12.01343,0,0,0,12,12H200a12.01343,12.01343,0,0,0,12-12V141.91663A35.99174,35.99174,0,0,0,228,112V96C228,95.96545,227.99072,95.93347,227.98975,95.89917ZM50.1875,46.90137A4.01779,4.01779,0,0,1,54.03418,44H201.96582a4.01793,4.01793,0,0,1,3.84668,2.90088L218.69727,92H37.30273ZM100,100h56v12a28,28,0,0,1-56,0ZM36,112V100H92v12a27.99118,27.99118,0,0,1-41.37219,24.59448,3.97551,3.97551,0,0,0-1.31128-.76636A28.00449,28.00449,0,0,1,36,112Zm168,96a4.00427,4.00427,0,0,1-4,4H56a4.00427,4.00427,0,0,1-4-4V145.93579a35.95976,35.95976,0,0,0,44-17.47522,35.97314,35.97314,0,0,0,64,0,35.95976,35.95976,0,0,0,44,17.47522Zm2.679-72.16907a3.97569,3.97569,0,0,0-1.30091.76013A27.99084,27.99084,0,0,1,164,112V100h56v12A28.00431,28.00431,0,0,1,206.679,135.83093Z"/>
</svg>
