<svg xmlns="http://www.w3.org/2000/svg" viewBox="0 0 256 256"><path d="M68,156a32,32,0,1,0,32,32A32.1,32.1,0,0,0,68,156Zm0,56a24,24,0,1,1,24-24A24.1,24.1,0,0,1,68,212ZM37.2,109.2,54.3,92,37.2,74.8a4,4,0,0,1,5.6-5.6L60,86.3,77.2,69.2a4,4,0,0,1,5.6,5.6L65.7,92l17.1,17.2a3.9,3.9,0,0,1,0,5.6,3.9,3.9,0,0,1-5.6,0L60,97.7,42.8,114.8a3.9,3.9,0,0,1-5.6,0A3.9,3.9,0,0,1,37.2,109.2Zm181.6,96a3.9,3.9,0,0,1,0,5.6,3.9,3.9,0,0,1-5.6,0L196,193.7l-17.2,17.1a3.9,3.9,0,0,1-5.6,0,3.9,3.9,0,0,1,0-5.6L190.3,188l-17.1-17.2a4,4,0,0,1,5.6-5.6L196,182.3l17.2-17.1a4,4,0,0,1,5.6,5.6L201.7,188Zm-46.2-93.4c-5.8,21-23.7,39.1-43.6,44.1h-1a4.1,4.1,0,0,1-3.9-3,4.1,4.1,0,0,1,2.9-4.9c17-4.2,32.9-20.4,37.9-38.5,3.5-12.5,3.6-31.5-15.7-50.8L140,49.7V80a4,4,0,0,1-8,0V40a4,4,0,0,1,4-4h40a4,4,0,0,1,0,8H145.7l9.1,9.2C172,70.4,178.3,91.2,172.6,111.8Z"/></svg>