<svg id="Flat" xmlns="http://www.w3.org/2000/svg" viewBox="0 0 256 256">
  <path d="M168.06738,152c0,15.70117-17.59961,28-40.06738,28s-40.06738-12.29883-40.06738-28a4,4,0,0,1,8,0c0,10.84131,14.68506,20,32.06738,20s32.06738-9.15869,32.06738-20c0-12.49341-13.3872-16.85132-33.811-22.074C108.3999,125.36013,89.936,120.63869,89.936,104c0-15.96265,16.36376-28,38.064-28,15.73389,0,29.15186,6.39014,35.01709,16.677a3.99976,3.99976,0,1,1-6.94922,3.96241C151.62207,88.84328,140.86719,84,128,84c-17.13916,0-30.064,8.59815-30.064,20,0,9.70117,11.998,13.49487,30.30224,18.17554C146.90723,126.94948,168.06738,132.36013,168.06738,152ZM220,48V208a12.01375,12.01375,0,0,1-12,12H48a12.01375,12.01375,0,0,1-12-12V48A12.01375,12.01375,0,0,1,48,36H208A12.01375,12.01375,0,0,1,220,48Zm-8,0a4.00458,4.00458,0,0,0-4-4H48a4.00458,4.00458,0,0,0-4,4V208a4.00458,4.00458,0,0,0,4,4H208a4.00458,4.00458,0,0,0,4-4Z"/>
</svg>
