<svg xmlns="http://www.w3.org/2000/svg" viewBox="0 0 256 256"><path d="M225.3,60.2l-96-32a3.9,3.9,0,0,0-2.6,0l-96,32h-.4l-.4.2h-.2l-.5.4h0c-.2.1-.3.3-.5.5s-.1.1-.1.2l-.2.4a.4.4,0,0,0-.1.3c-.1.1-.1.3-.2.4v.3a1.7,1.7,0,0,0-.1.7v80a4,4,0,0,0,8,0V69.6L79.9,84.2a59.9,59.9,0,0,0,24.4,90.9,91.7,91.7,0,0,0-53.4,38.7,4,4,0,0,0,6.7,4.4,84,84,0,0,1,140.8,0,4.1,4.1,0,0,0,3.4,1.8,3.8,3.8,0,0,0,2.2-.7,4,4,0,0,0,1.1-5.5,91.7,91.7,0,0,0-53.4-38.7,59.9,59.9,0,0,0,24.4-90.9l49.2-16.4a4,4,0,0,0,0-7.6ZM180,120A52,52,0,1,1,87.9,86.9l38.8,12.9,1.3.2,1.3-.2,38.8-12.9A51.7,51.7,0,0,1,180,120ZM168,78.4h0L128,91.8,44.6,64,128,36.2,211.4,64Z"/></svg>