<svg id="Flat" xmlns="http://www.w3.org/2000/svg" viewBox="0 0 256 256">
  <path d="M216.00781,68H172V56a20.02229,20.02229,0,0,0-20-20H104A20.02229,20.02229,0,0,0,84,56V68H40.00781a12.01343,12.01343,0,0,0-12,12V208a12.01343,12.01343,0,0,0,12,12h176a12.01343,12.01343,0,0,0,12-12V80A12.01343,12.01343,0,0,0,216.00781,68ZM92,56a12.01375,12.01375,0,0,1,12-12h48a12.01375,12.01375,0,0,1,12,12V68H92Zm72,20V212H92V76ZM36.00781,208V80a4.00458,4.00458,0,0,1,4-4H84V212H40.00781A4.00458,4.00458,0,0,1,36.00781,208Zm184,0a4.00458,4.00458,0,0,1-4,4H172V76h44.00781a4.00458,4.00458,0,0,1,4,4Z"/>
</svg>
