<svg id="Flat" xmlns="http://www.w3.org/2000/svg" viewBox="0 0 256 256">
  <path d="M216.00781,68H172V56a20.02229,20.02229,0,0,0-20-20H104A20.02229,20.02229,0,0,0,84,56V68H40.00781a12.01375,12.01375,0,0,0-12,12v79.92236C28.00732,159.94873,28,159.97363,28,160s.00732.05127.00781.07764V208a12.01343,12.01343,0,0,0,12,12h176a12.01343,12.01343,0,0,0,12-12V80A12.01375,12.01375,0,0,0,216.00781,68ZM92,56a12.01375,12.01375,0,0,1,12-12h48a12.01375,12.01375,0,0,1,12,12V68H92ZM40.00781,76h176a4.00458,4.00458,0,0,1,4,4v76h-184V80A4.00458,4.00458,0,0,1,40.00781,76Zm176,136h-176a4.00458,4.00458,0,0,1-4-4V164h184v44A4.00458,4.00458,0,0,1,216.00781,212Z"/>
</svg>
