<svg xmlns="http://www.w3.org/2000/svg" viewBox="0 0 256 256"><path d="M81.4,42.1a4.2,4.2,0,0,1,2.2-5.3A4.1,4.1,0,0,1,88.8,39l7.7,18.5A4,4,0,0,1,92.8,63a3.9,3.9,0,0,1-3.7-2.5ZM23,104.8l18.5,7.7a4,4,0,0,0,1.5.3,3.9,3.9,0,0,0,3.7-2.5,4,4,0,0,0-2.2-5.2L26.1,97.4a4.2,4.2,0,0,0-5.3,2.2A4,4,0,0,0,23,104.8Zm190,8a4,4,0,0,0,1.5-.3l18.5-7.7a4,4,0,0,0,2.2-5.2,4.2,4.2,0,0,0-5.3-2.2l-18.4,7.7a4,4,0,0,0-2.2,5.2A3.9,3.9,0,0,0,213,112.8ZM161.7,62.7a4,4,0,0,0,1.5.3,3.9,3.9,0,0,0,3.7-2.5l7.7-18.4a4.2,4.2,0,0,0-2.2-5.3,4.1,4.1,0,0,0-5.2,2.2l-7.7,18.5A4,4,0,0,0,161.7,62.7ZM244,160a4,4,0,0,1-4,4H16a4,4,0,0,1,0-8H65.1A68.7,68.7,0,0,1,64,144a64,64,0,0,1,128,0,68.7,68.7,0,0,1-1.1,12H240A4,4,0,0,1,244,160ZM73.3,156H182.7a53.2,53.2,0,0,0,1.3-12,56,56,0,0,0-112,0A53.2,53.2,0,0,0,73.3,156ZM208,196H48a4,4,0,0,0,0,8H208a4,4,0,0,0,0-8Z"/></svg>