<svg xmlns="http://www.w3.org/2000/svg" viewBox="0 0 256 256"><path d="M128,64a64,64,0,1,0,64,64A64.1,64.1,0,0,0,128,64Zm0,120a56,56,0,1,1,56-56A56,56,0,0,1,128,184ZM124,36V16a4,4,0,0,1,8,0V36a4,4,0,0,1-8,0ZM46,51.6A4,4,0,1,1,51.6,46L65.8,60.1a4.2,4.2,0,0,1,0,5.7,3.9,3.9,0,0,1-2.9,1.1,3.8,3.8,0,0,1-2.8-1.1ZM40,128a4,4,0,0,1-4,4H16a4,4,0,0,1,0-8H36A4,4,0,0,1,40,128Zm25.8,62.2a4.2,4.2,0,0,1,0,5.7L51.6,210a3.8,3.8,0,0,1-2.8,1.2A3.9,3.9,0,0,1,46,210a3.9,3.9,0,0,1,0-5.6l14.1-14.2A4.2,4.2,0,0,1,65.8,190.2ZM132,220v20a4,4,0,0,1-8,0V220a4,4,0,0,1,8,0Zm78-15.6a3.9,3.9,0,0,1,0,5.6,3.9,3.9,0,0,1-2.8,1.2,3.8,3.8,0,0,1-2.8-1.2l-14.2-14.1a4,4,0,0,1,5.7-5.7ZM244,128a4,4,0,0,1-4,4H220a4,4,0,0,1,0-8h20A4,4,0,0,1,244,128ZM210,46a3.9,3.9,0,0,1,0,5.6L195.9,65.8a3.8,3.8,0,0,1-2.8,1.1,3.9,3.9,0,0,1-2.9-1.1,4.2,4.2,0,0,1,0-5.7L204.4,46A3.9,3.9,0,0,1,210,46Z"/></svg>