<svg id="Flat" xmlns="http://www.w3.org/2000/svg" viewBox="0 0 256 256">
  <path d="M81.44434,42.05566A3.99963,3.99963,0,1,1,88.835,38.99512l7.65332,18.47754a3.99963,3.99963,0,1,1-7.39062,3.06054ZM22.99463,104.835l18.47754,7.65332a3.99982,3.99982,0,0,0,3.06152-7.39062L26.05615,97.44434a3.99982,3.99982,0,0,0-3.06152,7.39062Zm190.00391,7.959a3.97541,3.97541,0,0,0,1.52929-.30567l18.47754-7.65332a3.99982,3.99982,0,0,0-3.06152-7.39062l-18.47754,7.65332a4.00062,4.00062,0,0,0,1.53223,7.69629ZM161.67627,62.69824a3.9958,3.9958,0,0,0,5.22607-2.165l7.65332-18.47754a3.99963,3.99963,0,1,0-7.39062-3.06054l-7.65332,18.47754A3.99861,3.99861,0,0,0,161.67627,62.69824ZM244,160a4.0002,4.0002,0,0,1-4,4H185.85693l-.01172.001-.01464-.001H16a4,4,0,0,1,0-8H65.1333a64,64,0,1,1,125.7334,0H240A4.0002,4.0002,0,0,1,244,160ZM73.29614,156H182.70386a56,56,0,1,0-109.40772,0ZM208,196H48a4,4,0,0,0,0,8H208a4,4,0,0,0,0-8Z"/>
</svg>
