<svg id="Flat" xmlns="http://www.w3.org/2000/svg" viewBox="0 0 256 256">
  <path d="M128,64a64,64,0,1,0,64,64A64.07239,64.07239,0,0,0,128,64Zm0,120a56,56,0,1,1,56-56A56.06353,56.06353,0,0,1,128,184ZM124,36V16a4,4,0,0,1,8,0V36a4,4,0,0,1-8,0ZM45.97559,51.63232a4.00009,4.00009,0,0,1,5.65722-5.65673L65.7749,60.11816a3.99992,3.99992,0,1,1-5.65722,5.65625ZM40,128a4.0002,4.0002,0,0,1-4,4H16a4,4,0,0,1,0-8H36A4.0002,4.0002,0,0,1,40,128Zm25.7749,62.22559a3.99943,3.99943,0,0,1,0,5.65625L51.63281,210.02441a4.00009,4.00009,0,1,1-5.65722-5.65673l14.14209-14.14209A3.99971,3.99971,0,0,1,65.7749,190.22559ZM132,220v20a4,4,0,0,1-8,0V220a4,4,0,0,1,8,0Zm78.02441-15.63232a4.00009,4.00009,0,1,1-5.65722,5.65673L190.2251,195.88184a3.99992,3.99992,0,0,1,5.65722-5.65625ZM244,128a4.0002,4.0002,0,0,1-4,4H220a4,4,0,0,1,0-8h20A4.0002,4.0002,0,0,1,244,128ZM210.02441,45.97559a4,4,0,0,1,0,5.65673L195.88232,65.77441a3.99992,3.99992,0,0,1-5.65722-5.65625l14.14209-14.14257A4.00058,4.00058,0,0,1,210.02441,45.97559Z"/>
</svg>
