<svg xmlns="http://www.w3.org/2000/svg" viewBox="0 0 256 256"><path d="M128,64a64,64,0,1,0,64,64A64.1,64.1,0,0,0,128,64Zm0,120a56,56,0,1,1,56-56A56,56,0,0,1,128,184ZM124,36V28a4,4,0,0,1,8,0v8a4,4,0,0,1-8,0ZM54.5,60.1a4,4,0,1,1,5.6-5.6l5.7,5.6a4.2,4.2,0,0,1,0,5.7,3.9,3.9,0,0,1-2.9,1.1,3.8,3.8,0,0,1-2.8-1.1ZM40,128a4,4,0,0,1-4,4H28a4,4,0,0,1,0-8h8A4,4,0,0,1,40,128Zm25.8,62.2a4.2,4.2,0,0,1,0,5.7l-5.7,5.6a3.9,3.9,0,0,1-2.8,1.2,3.8,3.8,0,0,1-2.8-1.2,3.9,3.9,0,0,1,0-5.6l5.6-5.7A4.2,4.2,0,0,1,65.8,190.2ZM132,220v8a4,4,0,0,1-8,0v-8a4,4,0,0,1,8,0Zm69.5-24.1a3.9,3.9,0,0,1,0,5.6,3.8,3.8,0,0,1-2.8,1.2,3.9,3.9,0,0,1-2.8-1.2l-5.7-5.6a4,4,0,0,1,5.7-5.7ZM232,128a4,4,0,0,1-4,4h-8a4,4,0,0,1,0-8h8A4,4,0,0,1,232,128ZM190.2,65.8a4.2,4.2,0,0,1,0-5.7l5.7-5.6a4,4,0,0,1,5.6,5.6l-5.6,5.7a3.8,3.8,0,0,1-2.8,1.1A3.9,3.9,0,0,1,190.2,65.8Z"/></svg>