<svg id="Flat" xmlns="http://www.w3.org/2000/svg" viewBox="0 0 256 256">
  <path d="M128,64a64,64,0,1,0,64,64A64.07255,64.07255,0,0,0,128,64Zm0,120a56,56,0,1,1,56-56A56.06353,56.06353,0,0,1,128,184ZM124,36V28a4,4,0,0,1,8,0v8a4,4,0,0,1-8,0ZM54.46094,60.11768a4.00009,4.00009,0,0,1,5.65722-5.65674l5.65674,5.657a4.00009,4.00009,0,0,1-5.65722,5.65674ZM40,128a4,4,0,0,1-4,4H28a4,4,0,0,1,0-8h8A4,4,0,0,1,40,128Zm25.7749,62.2251a4.0006,4.0006,0,0,1,0,5.65722l-5.65674,5.65674a4.00026,4.00026,0,0,1-5.65722-5.65722l5.65674-5.65674A4.00147,4.00147,0,0,1,65.7749,190.2251ZM132,220v8a4,4,0,0,1-8,0v-8a4,4,0,0,1,8,0Zm69.53906-24.11816a4.00026,4.00026,0,0,1-5.65722,5.65722l-5.65674-5.65674a4.00026,4.00026,0,0,1,5.65722-5.65722ZM232,128a4,4,0,0,1-4,4h-8a4,4,0,0,1,0-8h8A4,4,0,0,1,232,128ZM190.22559,65.77466a3.99958,3.99958,0,0,1-.00049-5.65674l5.65674-5.657a4.00009,4.00009,0,0,1,5.65722,5.65674l-5.65674,5.657a3.99971,3.99971,0,0,1-5.65673,0Z"/>
</svg>
