<svg xmlns="http://www.w3.org/2000/svg" viewBox="0 0 256 256"><path d="M220,48V152a12,12,0,0,1-12,12H89.6l17.2,17.2a3.9,3.9,0,0,1,0,5.6,3.9,3.9,0,0,1-5.6,0l-24-24a3.9,3.9,0,0,1,0-5.6l24-24a4,4,0,0,1,5.6,5.6L89.7,156H208a4,4,0,0,0,4-4V48a4,4,0,0,0-4-4H96a4,4,0,0,0-4,4v8a4,4,0,0,1-8,0V48A12,12,0,0,1,96,36H208A12,12,0,0,1,220,48ZM168,196a4,4,0,0,0-4,4v8a4,4,0,0,1-4,4H48a4,4,0,0,1-4-4V104a4,4,0,0,1,4-4H166.3l-17.1,17.2a3.9,3.9,0,0,0,0,5.6,3.9,3.9,0,0,0,5.6,0l24-24a3.9,3.9,0,0,0,0-5.6l-24-24a4,4,0,0,0-5.6,5.6L166.4,92H48a12,12,0,0,0-12,12V208a12,12,0,0,0,12,12H160a12,12,0,0,0,12-12v-8A4,4,0,0,0,168,196Z"/></svg>