<svg id="Flat" xmlns="http://www.w3.org/2000/svg" viewBox="0 0 256 256">
  <path d="M220,47.99316v104a12.01343,12.01343,0,0,1-12,12H89.6499l17.17871,17.17871a3.99992,3.99992,0,1,1-5.65722,5.65625l-24-24a3.96241,3.96241,0,0,1-.79-1.15478c-.02124-.04553-.0503-.08618-.06983-.13269a3.96477,3.96477,0,0,1-.17993-.57971c-.01489-.05884-.0393-.11353-.05151-.17334a4.01873,4.01873,0,0,1-.07984-.79175L76,159.99316c0-.03662.00977-.07055.01074-.10693a3.9985,3.9985,0,0,1,.06738-.66675,3.9185,3.9185,0,0,1,.14258-.48193c.02881-.08594.0459-.17432.08033-.25855a3.95378,3.95378,0,0,1,.31738-.60278c.0166-.02649.0271-.05554.04419-.08166a4.0061,4.0061,0,0,1,.54809-.662l23.9607-23.9607a3.99992,3.99992,0,0,1,5.65722,5.65625l-17.165,17.165H208a4.00426,4.00426,0,0,0,4-4v-104a4.00427,4.00427,0,0,0-4-4H96a4.00427,4.00427,0,0,0-4,4v8a4,4,0,0,1-8,0v-8a12.01344,12.01344,0,0,1,12-12H208A12.01344,12.01344,0,0,1,220,47.99316ZM168,196a4.0002,4.0002,0,0,0-4,4v8a4.00427,4.00427,0,0,1-4,4H48a4.00427,4.00427,0,0,1-4-4V104a4.00427,4.00427,0,0,1,4-4H166.33643l-17.165,17.165a3.99992,3.99992,0,1,0,5.65722,5.65625l23.9607-23.96069a4.0061,4.0061,0,0,0,.54809-.662c.01709-.02612.02759-.05506.04419-.08142a3.984,3.984,0,0,0,.31738-.603c.03443-.08435.05152-.17285.08033-.25879a3.92106,3.92106,0,0,0,.14258-.48169,3.9985,3.9985,0,0,0,.06738-.66675c.001-.03637.01074-.07031.01074-.10693l-.00024-.00269a4.01863,4.01863,0,0,0-.07984-.79174c-.01221-.05982-.03662-.11438-.05127-.1731a3.97218,3.97218,0,0,0-.18017-.58c-.01953-.04663-.04859-.08752-.06983-.13317a3.962,3.962,0,0,0-.79-1.1543l-24-24a3.99992,3.99992,0,0,0-5.65722,5.65625L166.3501,92H48a12.01343,12.01343,0,0,0-12,12V208a12.01343,12.01343,0,0,0,12,12H160a12.01343,12.01343,0,0,0,12-12v-8A4.0002,4.0002,0,0,0,168,196Z"/>
</svg>
