<svg xmlns="http://www.w3.org/2000/svg" viewBox="0 0 256 256"><path d="M218.8,37.2A3.6,3.6,0,0,0,216,36h0l-63.8.2a3.9,3.9,0,0,0-3.1,1.5L75.9,126.3,64.5,114.8a12.2,12.2,0,0,0-17,0L34.8,127.5a12.1,12.1,0,0,0,0,17l20.9,20.9a3.9,3.9,0,0,1,0,5.6L25.8,201a11.9,11.9,0,0,0,0,16.9l12.3,12.3a12,12,0,0,0,16.9,0l30-29.9a3.9,3.9,0,0,1,5.6,0l20.9,20.9a12.2,12.2,0,0,0,17,0l12.7-12.7a12.1,12.1,0,0,0,0-17l-11.5-11.4,88.6-73.2a3.9,3.9,0,0,0,1.5-3.1L220,40A3.6,3.6,0,0,0,218.8,37.2ZM136.7,200a3.6,3.6,0,0,1-1.2,2.8l-12.7,12.7a3.9,3.9,0,0,1-5.6,0L96.3,194.6a12.1,12.1,0,0,0-17,0l-29.9,30a4.4,4.4,0,0,1-2.9,1.1,4.3,4.3,0,0,1-2.8-1.1L31.4,212.3a4.2,4.2,0,0,1,0-5.7l30-29.9a12,12,0,0,0,0-17L40.5,138.8a3.9,3.9,0,0,1,0-5.6l12.7-12.7a3.9,3.9,0,0,1,5.6,0l76.7,76.7A3.6,3.6,0,0,1,136.7,200Zm75.1-98.1-87.7,72.5L105.7,156l57.1-57.2a4,4,0,1,0-5.6-5.6L100,150.3,81.6,131.9l72.5-87.7L212,44Z"/></svg>