<svg xmlns="http://www.w3.org/2000/svg" viewBox="0 0 256 256"><path d="M234.8,69.2l-48-48a4,4,0,0,0-5.6,5.6L202.3,48,168,82.3,130.8,45.2a4,4,0,1,0-5.6,5.6l9.1,9.2L47.5,146.8a11.9,11.9,0,0,0-3.5,8.5v51L21.2,229.2a3.9,3.9,0,0,0,0,5.6,3.9,3.9,0,0,0,5.6,0L49.7,212h51a11.9,11.9,0,0,0,8.5-3.5L196,121.7l9.2,9.1a3.9,3.9,0,0,0,5.6,0,3.9,3.9,0,0,0,0-5.6L173.7,88,208,53.7l21.2,21.1a3.9,3.9,0,0,0,5.6,0A3.9,3.9,0,0,0,234.8,69.2ZM103.5,202.8a3.6,3.6,0,0,1-2.8,1.2H52V155.3a3.6,3.6,0,0,1,1.2-2.8L74,131.7l23.2,23.1a3.9,3.9,0,0,0,5.6,0,3.9,3.9,0,0,0,0-5.6L79.7,126,102,103.7l23.2,23.1a3.9,3.9,0,0,0,5.6,0,3.9,3.9,0,0,0,0-5.6L107.7,98,140,65.7l25.2,25.1h0L190.3,116Z"/></svg>