<svg id="Flat" xmlns="http://www.w3.org/2000/svg" viewBox="0 0 256 256">
  <path d="M243.41357,64.772,193.98438,36.52686c-.06421-.03663-.13306-.05542-.19849-.08838a3.97629,3.97629,0,0,0-.39649-.17627c-.1206-.04492-.24145-.08033-.364-.1128-.12549-.03344-.251-.06323-.38086-.08447a3.92434,3.92434,0,0,0-.42285-.04248C192.14673,36.01807,192.07593,36,192,36H160a4.0002,4.0002,0,0,0-4,4,28,28,0,0,1-56,0,4.0002,4.0002,0,0,0-4-4H64c-.07324,0-.14185.01758-.21411.02148a3.93044,3.93044,0,0,0-.43335.044c-.12793.02075-.251.05029-.37451.083a3.82774,3.82774,0,0,0-.36817.11426,3.92288,3.92288,0,0,0-.39526.17578c-.06567.03271-.13452.05151-.199.08838L12.58594,64.77246a12.006,12.006,0,0,0-4.7793,15.78565l18.40479,36.8081A11.93373,11.93373,0,0,0,36.94434,124H60v84a12.01375,12.01375,0,0,0,12,12H184a12.01375,12.01375,0,0,0,12-12V124h23.05566a11.93415,11.93415,0,0,0,10.73291-6.6333l18.40528-36.80908A12.00661,12.00661,0,0,0,243.41357,64.772ZM36.94434,116a3.97784,3.97784,0,0,1-3.57764-2.21143L14.9624,76.98047a4.002,4.002,0,0,1,1.59278-5.26221L60,46.89282V116ZM188,208a4.00458,4.00458,0,0,1-4,4H72a4.00458,4.00458,0,0,1-4-4V44H92.2207a36.00247,36.00247,0,0,0,71.5586,0H188ZM241.03809,76.98,222.6333,113.78906A3.97826,3.97826,0,0,1,219.05566,116H196V46.89282l43.44434,24.825A4.0026,4.0026,0,0,1,241.03809,76.98Z"/>
</svg>
