<svg id="Flat" xmlns="http://www.w3.org/2000/svg" viewBox="0 0 256 256">
  <path d="M237.1709,129.69141,132.71875,25.23926A11.96309,11.96309,0,0,0,121.88086,21.957L41.22559,38.08789a3.99747,3.99747,0,0,0-3.1377,3.1377L21.957,121.88086a11.97405,11.97405,0,0,0,3.28223,10.83789L129.69043,237.1709a11.998,11.998,0,0,0,16.9707,0l90.50977-90.50879a11.998,11.998,0,0,0,0-16.9707Zm-5.65625,11.31347-90.51074,90.50977a3.99855,3.99855,0,0,1-5.65625,0L30.89551,127.0625a3.993,3.993,0,0,1-1.09473-3.61328l15.6084-78.04,78.04-15.6084a3.99944,3.99944,0,0,1,3.61328,1.09473L231.51465,135.34863a3.99855,3.99855,0,0,1,0,5.65625ZM92,84a8,8,0,1,1-8-8A8.00917,8.00917,0,0,1,92,84Z"/>
</svg>
