<svg id="Flat" xmlns="http://www.w3.org/2000/svg" viewBox="0 0 256 256">
  <path d="M232.376,121.335l-42.667-64a11.976,11.976,0,0,0-9.98437-5.34375H24.00586A4.00007,4.00007,0,0,0,20.67773,58.21l45.042,67.57129a3.98982,3.98982,0,0,1-.00049,4.4375L20.67773,197.77246a3.99968,3.99968,0,0,0,3.32813,6.21875H179.72461a11.97508,11.97508,0,0,0,9.98437-5.34277l42.667-64A11.97106,11.97106,0,0,0,232.376,121.335Zm-6.65674,8.876-42.66651,64a3.99023,3.99023,0,0,1-3.32812,1.78027H31.48047l40.895-61.335a11.96854,11.96854,0,0,0,.00049-13.3125L31.47949,59.99121H179.72461a3.99243,3.99243,0,0,1,3.32812,1.78125l42.66651,64A3.99142,3.99142,0,0,1,225.71924,130.21094Z"/>
</svg>
