<svg id="Flat" xmlns="http://www.w3.org/2000/svg" viewBox="0 0 256 256">
  <path d="M187.71875,203.99963H40a12.01312,12.01312,0,0,1-12-12v-128a12.01312,12.01312,0,0,1,12-12H187.71875a11.976,11.976,0,0,1,9.98437,5.34375l45.625,68.4375a4.00066,4.00066,0,0,1,0,4.4375l-45.625,68.43848A11.97381,11.97381,0,0,1,187.71875,203.99963ZM40,59.99963a4.004,4.004,0,0,0-4,4v128a4.004,4.004,0,0,0,4,4H187.71875a3.99023,3.99023,0,0,0,3.32812-1.78027h0l44.14551-66.21973L191.04687,61.78088a3.99115,3.99115,0,0,0-3.32812-1.78125Z"/>
</svg>
