<svg id="Flat" xmlns="http://www.w3.org/2000/svg" viewBox="0 0 256 256">
  <path d="M218.25781,84.88623a100.15636,100.15636,0,1,1-22.436-30.36475l25.3501-25.34961a3.99957,3.99957,0,1,1,5.65624,5.65625L164.77051,96.88574l-.001.00147-.00146.001-33.93995,33.93994a3.99957,3.99957,0,1,1-5.65624-5.65625l30.97851-30.97851a43.98785,43.98785,0,1,0,15.77832,31.29346,3.99962,3.99962,0,1,1,7.98633-.45411,52.03173,52.03173,0,1,1-18.09131-36.51318l28.333-28.333a91.88714,91.88714,0,1,0,20.88232,28.14795,4,4,0,0,1,7.21875-3.44824Z"/>
</svg>
