<svg xmlns="http://www.w3.org/2000/svg" viewBox="0 0 256 256"><path d="M240,116H226.3L197.8,66a12.1,12.1,0,0,0-10.4-6H162.7l-13-32.5A12,12,0,0,0,138.6,20H117.4a12,12,0,0,0-11.1,7.5L93.3,60H68.6a12.1,12.1,0,0,0-10.4,6L29.7,116H16a4,4,0,0,0,0,8H28v84a12,12,0,0,0,12,12H64a12,12,0,0,0,12-12V188H180v20a12,12,0,0,0,12,12h24a12,12,0,0,0,12-12V124h12a4,4,0,0,0,0-8ZM113.7,30.5a4,4,0,0,1,3.7-2.5h21.2a4,4,0,0,1,3.7,2.5L154.1,60H101.9ZM65.2,70a4,4,0,0,1,3.4-2H187.4a4,4,0,0,1,3.4,2l26.3,46H38.9ZM68,208a4,4,0,0,1-4,4H40a4,4,0,0,1-4-4V188H68Zm148,4H192a4,4,0,0,1-4-4V188h32v20A4,4,0,0,1,216,212Zm4-32H36V124H220ZM60,152a4,4,0,0,1,4-4H80a4,4,0,0,1,0,8H64A4,4,0,0,1,60,152Zm112,0a4,4,0,0,1,4-4h16a4,4,0,0,1,0,8H176A4,4,0,0,1,172,152Z"/></svg>