<svg id="Flat" xmlns="http://www.w3.org/2000/svg" viewBox="0 0 256 256">
  <path d="M216,68H137.65625l41.17187-41.17188a3.99957,3.99957,0,1,0-5.65624-5.65624L128,66.34277,82.82812,21.17188a3.99957,3.99957,0,0,0-5.65624,5.65624L118.34375,68H40A12.01312,12.01312,0,0,0,28,80V200a12.01312,12.01312,0,0,0,12,12H216a12.01312,12.01312,0,0,0,12-12V80A12.01312,12.01312,0,0,0,216,68ZM36,200V80a4.004,4.004,0,0,1,4-4H148V204H40A4.004,4.004,0,0,1,36,200Zm184,0a4.004,4.004,0,0,1-4,4H156V76h60a4.004,4.004,0,0,1,4,4Zm-24-84a8,8,0,1,1-8-8A8,8,0,0,1,196,116Zm0,48a8,8,0,1,1-8-8A8,8,0,0,1,196,164Z"/>
</svg>
