<svg xmlns="http://www.w3.org/2000/svg" viewBox="0 0 256 256"><path d="M228.6,34.8a12,12,0,0,0-12.2-2.1L31.9,105.2a12,12,0,0,0,2,22.9L84,138.2V200a11.8,11.8,0,0,0,7.4,11.1,12.7,12.7,0,0,0,4.7.9,11.8,11.8,0,0,0,8.4-3.5l28.6-28.6L175.3,217a11.6,11.6,0,0,0,7.9,3,11.9,11.9,0,0,0,3.7-.6,12.1,12.1,0,0,0,8-8.7L232.5,46.5A11.8,11.8,0,0,0,228.6,34.8ZM32.3,116.7a3.8,3.8,0,0,1,2.5-4.1L204,46.2,87.1,130.6,35.5,120.3A3.9,3.9,0,0,1,32.3,116.7Zm66.5,86.1a3.9,3.9,0,0,1-4.3.9A4,4,0,0,1,92,200V143.7l35.1,30.9Zm125.9-158L187.1,208.9a3.9,3.9,0,0,1-2.7,2.9,3.7,3.7,0,0,1-3.8-.8L94.4,135.2,224.1,41.5A4.1,4.1,0,0,1,224.7,44.8Z"/></svg>