<svg id="Flat" xmlns="http://www.w3.org/2000/svg" viewBox="0 0 256 256">
  <path d="M227.94482,128.71826a3.97207,3.97207,0,0,0,.05518-.5581,3.89142,3.89142,0,0,0-.05078-.49512A99.91294,99.91294,0,0,0,128,28c-.04834,0-.09644.002-.145.002L127.84033,28h-.00683l-.02.00244A99.90412,99.90412,0,0,0,28.05518,127.293a2.58587,2.58587,0,0,0-.00464,1.03125A99.91331,99.91331,0,0,0,128,228c.05127,0,.102-.00195.15332-.00195l.00635.001h.00683l.009-.001a99.90506,99.90506,0,0,0,99.76928-99.27979ZM62.94629,62.94629A91.33252,91.33252,0,0,1,123.72656,36.104,91.3524,91.3524,0,0,1,96.88721,96.8877,91.34914,91.34914,0,0,1,36.145,123.7251,91.64221,91.64221,0,0,1,62.94629,62.94629Zm-26.814,68.79A99.29984,99.29984,0,0,0,102.54443,102.544,99.301,99.301,0,0,0,131.738,36.09082a91.86613,91.86613,0,0,1,88.12964,88.17285A99.98189,99.98189,0,0,0,124.262,219.90918a91.86613,91.86613,0,0,1-88.12964-88.17285ZM132.27344,219.896A91.97057,91.97057,0,0,1,219.855,132.2749a91.90413,91.90413,0,0,1-87.58154,87.6211Z"/>
</svg>
