<svg xmlns="http://www.w3.org/2000/svg" viewBox="0 0 256 256"><path d="M227.9,128.7a.9.9,0,0,0,.1-.5.7.7,0,0,0-.1-.5A99.9,99.9,0,0,0,128,28h-.2a99.9,99.9,0,0,0-99.7,99.3,1.1,1.1,0,0,0-.1.5.7.7,0,0,0,.1.5A99.9,99.9,0,0,0,128,228h.2a99.9,99.9,0,0,0,99.7-99.3ZM62.9,62.9a91.7,91.7,0,0,1,60.8-26.8,91.8,91.8,0,0,1-87.6,87.6A92.4,92.4,0,0,1,62.9,62.9ZM36.1,131.7a98.7,98.7,0,0,0,66.4-29.2,98.7,98.7,0,0,0,29.2-66.4,91.7,91.7,0,0,1,88.2,88.2,100,100,0,0,0-95.6,95.6,91.7,91.7,0,0,1-88.2-88.2Zm96.2,88.2a91.8,91.8,0,0,1,87.6-87.6,91.8,91.8,0,0,1-87.6,87.6Z"/></svg>