<svg id="Flat" xmlns="http://www.w3.org/2000/svg" viewBox="0 0 256 256">
  <path d="M122.499,124.87646a4.00053,4.00053,0,0,1,0,6.24708l-40,32a4.0002,4.0002,0,0,1-4.998-6.24708L113.59668,128,77.501,99.12354a4.0002,4.0002,0,0,1,4.998-6.24708ZM175.99414,156h-40a4,4,0,0,0,0,8h40a4,4,0,1,0,0-8ZM228,56.48535v143.0293A12.49909,12.49909,0,0,1,215.51465,212H40.48535A12.49909,12.49909,0,0,1,28,199.51465V56.48535A12.49909,12.49909,0,0,1,40.48535,44h175.0293A12.49909,12.49909,0,0,1,228,56.48535Zm-8,0A4.49023,4.49023,0,0,0,215.51465,52H40.48535A4.49023,4.49023,0,0,0,36,56.48535v143.0293A4.49023,4.49023,0,0,0,40.48535,204h175.0293A4.49023,4.49023,0,0,0,220,199.51465Z"/>
</svg>
