<svg id="Flat" xmlns="http://www.w3.org/2000/svg" viewBox="0 0 256 256">
  <path d="M220,128a4.0002,4.0002,0,0,1-4,4H169.22363C181.82861,140.43652,188,150.99805,188,164a42.91729,42.91729,0,0,1-18.02246,35.71533C159.27344,207.63721,144.36523,212,128,212c-26.604,0-50.313-14.24658-57.65576-34.645a4.00015,4.00015,0,0,1,7.52734-2.71C84.09326,191.92871,104.70654,204,128,204c25.8833,0,52-12.36816,52-40,0-13.73682-8.83765-23.91821-27.78-32H40a4,4,0,0,1,0-8H216A4.0002,4.0002,0,0,1,220,128ZM86.00635,100.00342a4.002,4.002,0,0,0,3.72021-5.46875A28.45749,28.45749,0,0,1,88,84c0-17.645,17.94385-32,40-32,20.47314,0,37.56934,12.26758,39.76758,28.53564a3.99989,3.99989,0,1,0,7.92773-1.07128C172.96338,59.24658,152.459,44,128,44c-26.46729,0-48,17.94385-48,40a36.23019,36.23019,0,0,0,2.28418,13.47021A4.00173,4.00173,0,0,0,86.00635,100.00342Z"/>
</svg>
