<svg id="Flat" xmlns="http://www.w3.org/2000/svg" viewBox="0 0 256 256">
  <path d="M83.53516,54.12891a3.99961,3.99961,0,0,0-7.07032,0l-72,136a3.99979,3.99979,0,0,0,7.07032,3.74218L31.58447,156h96.83106l20.04931,37.87109a3.99979,3.99979,0,1,0,7.07032-3.74218ZM35.81982,148,80,64.54883,124.18018,148ZM208,98.90039a38.1969,38.1969,0,0,0-26.82227,10.64453,4.0003,4.0003,0,0,0,5.63477,5.67969A30.14354,30.14354,0,0,1,208,106.90039c15.43945,0,28,10.7666,28,24v15.918a37.78046,37.78046,0,0,0-28-11.918c-19.85059,0-36,14.35547-36,32s16.14941,32,36,32a37.78046,37.78046,0,0,0,28-11.918V192a4,4,0,0,0,8,0V130.90039C244,113.25586,227.85059,98.90039,208,98.90039Zm0,92c-15.43945,0-28-10.7666-28-24s12.56055-24,28-24,28,10.7666,28,24S223.43945,190.90039,208,190.90039Z"/>
</svg>
