<svg xmlns="http://www.w3.org/2000/svg" viewBox="0 0 256 256"><path d="M220,128a4,4,0,0,1-4,4H161.2c15.4,7.2,26.8,17.8,26.8,36,0,24.3-26.9,44-60,44s-60-19.7-60-44a4,4,0,0,1,8,0c0,19.9,23.3,36,52,36s52-16.1,52-36-16.1-28.3-42.2-36H40a4,4,0,0,1,0-8H216A4,4,0,0,1,220,128ZM76.3,100l1.3-.2a3.9,3.9,0,0,0,2.5-5,24.8,24.8,0,0,1-1-6.8c0-20.5,21-36,48.9-36,21.3,0,38.9,8.9,45.9,23.3a4,4,0,0,0,5.4,1.8,3.9,3.9,0,0,0,1.8-5.3C172.8,54.6,152.4,44,128,44,95.6,44,71.1,62.9,71.1,88a30.1,30.1,0,0,0,1.4,9.2A4.2,4.2,0,0,0,76.3,100Z"/></svg>