<svg id="Flat" xmlns="http://www.w3.org/2000/svg" viewBox="0 0 256 256">
  <path d="M220,128a4.0002,4.0002,0,0,1-4,4H161.15967C176.61108,139.23535,188,149.80054,188,168c0,24.26172-26.916,44-60,44s-60-19.73828-60-44a4,4,0,0,1,8,0c0,19.85059,23.32715,36,52,36s52-16.14941,52-36c0-19.543-16.125-28.30469-42.17725-36H40a4,4,0,0,1,0-8H216A4.0002,4.0002,0,0,1,220,128ZM76.3335,100.00391a4.00247,4.00247,0,0,0,3.80127-5.24805A21.64374,21.64374,0,0,1,79.11133,88c0-20.52344,21.01758-36,48.88867-36,21.34277,0,38.94287,8.917,45.93262,23.271a3.99981,3.99981,0,0,0,7.19238-3.502C172.78467,54.64062,152.42822,44,128,44,95.56836,44,71.11133,62.916,71.11133,88a29.63244,29.63244,0,0,0,1.42187,9.25A4.002,4.002,0,0,0,76.3335,100.00391Z"/>
</svg>
