<svg xmlns="http://www.w3.org/2000/svg" viewBox="0 0 256 256"><path d="M83.5,54.1a4,4,0,0,0-7,0l-72,136a4,4,0,0,0,7,3.8L31.6,156h96.8l20.1,37.9A4,4,0,0,0,152,196a3.4,3.4,0,0,0,1.9-.5,3.9,3.9,0,0,0,1.6-5.4ZM35.8,148,80,64.5,124.2,148ZM208,98.9a38.4,38.4,0,0,0-26.8,10.6,4,4,0,0,0,0,5.7,3.9,3.9,0,0,0,5.6,0c5.3-5.3,13.1-8.3,21.2-8.3,15.4,0,28,10.8,28,24v15.9a38,38,0,0,0-28-11.9c-19.9,0-36,14.4-36,32s16.1,32,36,32A38,38,0,0,0,236,187v5a4,4,0,0,0,8,0V130.9C244,113.3,227.9,98.9,208,98.9Zm0,92c-15.4,0-28-10.8-28-24s12.6-24,28-24,28,10.8,28,24S223.4,190.9,208,190.9Z"/></svg>