<svg id="Flat" xmlns="http://www.w3.org/2000/svg" viewBox="0 0 256 256">
  <path d="M124,164.33984V120a4,4,0,0,0-8,0v44.33984a24,24,0,1,0,8,0ZM120,204a16,16,0,1,1,16-16A16.01833,16.01833,0,0,1,120,204ZM243.66992,73.916l-25.19751,8.1875,15.57251,21.43359a4.00006,4.00006,0,0,1-6.47168,4.70312L212,86.80518l-15.57324,21.43505a4.00006,4.00006,0,1,1-6.47168-4.70312l15.57251-21.43359L180.33008,73.916a4.00052,4.00052,0,0,1,2.47265-7.60938L208,74.49414V48a4,4,0,0,1,8,0V74.49414l25.19727-8.1875a4.00052,4.00052,0,0,1,2.47265,7.60938ZM156,145.10254V48a36,36,0,0,0-72,0v97.10254a56,56,0,1,0,72,0ZM120,236a48.00172,48.00172,0,0,1-29.78516-85.64355A4.00046,4.00046,0,0,0,92,147.02539V48a28,28,0,0,1,56,0v99.02539a3.9918,3.9918,0,0,0,1.72559,3.28418A48.0016,48.0016,0,0,1,120,236Z"/>
</svg>
