<svg xmlns="http://www.w3.org/2000/svg" viewBox="0 0 256 256"><path d="M124,164.3V48a4,4,0,0,0-8,0V164.3a24,24,0,1,0,8,0ZM120,204a16,16,0,1,1,16-16A16,16,0,0,1,120,204ZM180.9,82.8a3.9,3.9,0,0,1,0-5.6,23.9,23.9,0,0,1,33.9,0,16.2,16.2,0,0,0,22.7,0,4,4,0,1,1,5.6,5.6,24,24,0,0,1-33.9,0,16.2,16.2,0,0,0-22.7,0A3.9,3.9,0,0,1,180.9,82.8Zm62.2,34.4a3.9,3.9,0,0,1,0,5.6,24,24,0,0,1-33.9,0,16.2,16.2,0,0,0-22.7,0,4,4,0,1,1-5.6-5.6,23.9,23.9,0,0,1,33.9,0,16.2,16.2,0,0,0,22.7,0A3.9,3.9,0,0,1,243.1,117.2ZM156,145.1V48a36,36,0,0,0-72,0v97.1a56,56,0,1,0,72,0ZM120,236a48,48,0,0,1-48-48,47.4,47.4,0,0,1,18.2-37.6A4.2,4.2,0,0,0,92,147V48a28,28,0,0,1,56,0v99a4,4,0,0,0,1.7,3.3A48,48,0,0,1,120,236Z"/></svg>