<svg xmlns="http://www.w3.org/2000/svg" viewBox="0 0 256 256"><path d="M124,164.3V120a4,4,0,0,0-8,0v44.3a24,24,0,1,0,8,0ZM120,204a16,16,0,1,1,16-16A16,16,0,0,1,120,204ZM243.7,73.9l-25.2,8.2L234,103.5a4.1,4.1,0,0,1-.8,5.6,4.3,4.3,0,0,1-2.4.8,4,4,0,0,1-3.2-1.7L212,86.8l-15.6,21.4a4,4,0,0,1-3.2,1.7,4.3,4.3,0,0,1-2.4-.8,4.1,4.1,0,0,1-.8-5.6l15.5-21.4-25.2-8.2a4,4,0,0,1,2.5-7.6L208,74.5V48a4,4,0,0,1,8,0V74.5l25.2-8.2a4,4,0,0,1,2.5,7.6ZM156,145.1V48a36,36,0,0,0-72,0v97.1a56,56,0,1,0,72,0ZM120,236a48,48,0,0,1-48-48,47.4,47.4,0,0,1,18.2-37.6A4.2,4.2,0,0,0,92,147V48a28,28,0,0,1,56,0v99a4,4,0,0,0,1.7,3.3A48,48,0,0,1,120,236Z"/></svg>