<svg id="Flat" xmlns="http://www.w3.org/2000/svg" viewBox="0 0 256 256">
  <path d="M124,164.33984V48a4,4,0,0,0-8,0V164.33984a24,24,0,1,0,8,0ZM120,204a16,16,0,1,1,16-16A16.01833,16.01833,0,0,1,120,204ZM180.88721,82.82812a3.99943,3.99943,0,0,1,0-5.65625,24.02784,24.02784,0,0,1,33.9414,0,16.01777,16.01777,0,0,0,22.627,0,3.99992,3.99992,0,0,1,5.65722,5.65625,24.02664,24.02664,0,0,1-33.9414,0,16.01779,16.01779,0,0,0-22.627,0A3.99971,3.99971,0,0,1,180.88721,82.82812Zm62.22558,34.34375a3.99943,3.99943,0,0,1,0,5.65625,24.02664,24.02664,0,0,1-33.9414,0,16.01779,16.01779,0,0,0-22.627,0,3.99992,3.99992,0,0,1-5.65722-5.65625,24.02784,24.02784,0,0,1,33.9414,0,16.01777,16.01777,0,0,0,22.627,0A3.99971,3.99971,0,0,1,243.11279,117.17187ZM156,145.10254V48a36,36,0,0,0-72,0v97.10254a56,56,0,1,0,72,0ZM120,236a48.00172,48.00172,0,0,1-29.78516-85.64355A4.00046,4.00046,0,0,0,92,147.02539V48a28,28,0,0,1,56,0v99.02539a3.9918,3.9918,0,0,0,1.72559,3.28418A48.0016,48.0016,0,0,1,120,236Z"/>
</svg>
