<svg id="Flat" xmlns="http://www.w3.org/2000/svg" viewBox="0 0 256 256">
  <path d="M228.8623,82.76367A20.00794,20.00794,0,0,0,213.86914,76h-57.875V56a36.04061,36.04061,0,0,0-36-36,4.00138,4.00138,0,0,0-3.57812,2.21094L77.52148,100H31.99414a12.01343,12.01343,0,0,0-12,12v88a12.01343,12.01343,0,0,0,12,12h169.875a20.03088,20.03088,0,0,0,19.8457-17.51953l12-96A20.00978,20.00978,0,0,0,228.8623,82.76367ZM27.99414,200V112a4.00427,4.00427,0,0,1,4-4h44v96h-44A4.00427,4.00427,0,0,1,27.99414,200ZM225.77734,97.48828l-12,96A12.02057,12.02057,0,0,1,201.86914,204H83.99414V104.94531l38.41992-76.84179A28.038,28.038,0,0,1,147.99414,56V80a4.0002,4.0002,0,0,0,4,4h61.875a12.0016,12.0016,0,0,1,11.9082,13.48828Z"/>
</svg>
