<svg xmlns="http://www.w3.org/2000/svg" viewBox="0 0 256 256"><path d="M226.4,100.6A12.1,12.1,0,0,0,236,88.8V64a12,12,0,0,0-12-12H32A12,12,0,0,0,20,64V88.8a12.1,12.1,0,0,0,9.6,11.8,28,28,0,0,1,0,54.8A12.1,12.1,0,0,0,20,167.2V192a12,12,0,0,0,12,12H224a12,12,0,0,0,12-12V167.2a12.1,12.1,0,0,0-9.6-11.8,28,28,0,0,1,0-54.8ZM28,192V167.2a4,4,0,0,1,3.2-3.9,36,36,0,0,0,0-70.6A4,4,0,0,1,28,88.8V64a4,4,0,0,1,4-4H92V196H32A4,4,0,0,1,28,192Zm168-64a36.1,36.1,0,0,0,28.8,35.3,4,4,0,0,1,3.2,3.9V192a4,4,0,0,1-4,4H100V60H224a4,4,0,0,1,4,4V88.8a4,4,0,0,1-3.2,3.9A36.1,36.1,0,0,0,196,128Z"/></svg>