<svg id="Flat" xmlns="http://www.w3.org/2000/svg" viewBox="0 0 256 256">
  <path d="M224,80a52.059,52.059,0,0,1-52-52,4.0002,4.0002,0,0,0-4-4H128a4.0002,4.0002,0,0,0-4,4V156a24,24,0,1,1-34.28418-21.69238,3.99957,3.99957,0,0,0,2.28369-3.61279L92,89.05569a3.99948,3.99948,0,0,0-4.70117-3.938A72.00522,72.00522,0,1,0,172,156l-.00049-42.56348A99.27749,99.27749,0,0,0,224,128a4.0002,4.0002,0,0,0,4-4V84A4.0002,4.0002,0,0,0,224,80Zm-4,39.915a91.24721,91.24721,0,0,1-49.66455-17.1792,4.00019,4.00019,0,0,0-6.33594,3.24707L164,156A64,64,0,1,1,84,94.01223l-.00049,34.271A32.00156,32.00156,0,1,0,132,156V32h32.13184A60.09757,60.09757,0,0,0,220,87.86819Z"/>
</svg>
