<svg id="Flat" xmlns="http://www.w3.org/2000/svg" viewBox="0 0 256 256">
  <path d="M72,120a8,8,0,1,1-8-8A8.00009,8.00009,0,0,1,72,120Zm164,0v88a12.01375,12.01375,0,0,1-12,12H112a12.01375,12.01375,0,0,1-12-12V168.856C92.10132,190.25586,79.05029,204,64,204c-24.67285,0-44-36.897-44-84,0-47.10278,19.32715-84,44-84H192C216.67285,36,236,72.89722,236,120Zm-136,0c0-41.19629-16.48584-76-36-76S28,78.80371,28,120s16.48584,76,36,76S100,161.19629,100,120Zm128,88V124H208a4,4,0,0,1,0-8h19.94629C226.92188,76.57617,210.87915,44,192,44H83.04736c14.29346,12.80078,24.14527,39.76221,24.90137,72H128a4,4,0,0,1,0,8H108v84a4.00458,4.00458,0,0,0,4,4H224A4.00458,4.00458,0,0,0,228,208Zm-52-92H160a4,4,0,0,0,0,8h16a4,4,0,0,0,0-8Z"/>
</svg>
