<svg xmlns="http://www.w3.org/2000/svg" viewBox="0 0 256 256"><path d="M116,64a4,4,0,0,1-4,4H96a4,4,0,0,1,0-8h16A4,4,0,0,1,116,64Zm50.8,131.4,3.9,26.9a12.5,12.5,0,0,1-2.9,9.6,11.8,11.8,0,0,1-9,4.1H97.2a11.8,11.8,0,0,1-9-4.1,12.5,12.5,0,0,1-2.9-9.6l3.9-26.9A92.1,92.1,0,0,1,36,112a4,4,0,0,1,4-4H60V40A12,12,0,0,1,72,28H184a12,12,0,0,1,12,12v68h20a4,4,0,0,1,4,4A92.1,92.1,0,0,1,166.8,195.4ZM68,108H188V40a4,4,0,0,0-4-4H72a4,4,0,0,0-4,4Zm91.2,90.6a92.8,92.8,0,0,1-62.4,0l-3.5,24.8a3.7,3.7,0,0,0,.9,3.2,3.9,3.9,0,0,0,3,1.4h61.6a3.9,3.9,0,0,0,3-1.4,3.7,3.7,0,0,0,.9-3.2ZM211.9,116H44.1a84,84,0,0,0,167.8,0Z"/></svg>