<svg xmlns="http://www.w3.org/2000/svg" viewBox="0 0 256 256"><path d="M72,120a8,8,0,1,1-8-8A8,8,0,0,1,72,120Zm164,0v88a12,12,0,0,1-12,12H112a12,12,0,0,1-12-12V168.9C92.1,190.3,79.1,204,64,204c-24.7,0-44-36.9-44-84S39.3,36,64,36H192C216.7,36,236,72.9,236,120Zm-136,0c0-41.2-16.5-76-36-76S28,78.8,28,120s16.5,76,36,76S100,161.2,100,120Zm128,88V124H208a4,4,0,0,1,0-8h19.9c-1-39.4-17-72-35.9-72H83c14.3,12.8,24.2,39.8,24.9,72H128a4,4,0,0,1,0,8H108v84a4,4,0,0,0,4,4H224A4,4,0,0,0,228,208Zm-52-92H160a4,4,0,0,0,0,8h16a4,4,0,0,0,0-8Z"/></svg>