<svg id="Flat" xmlns="http://www.w3.org/2000/svg" viewBox="0 0 256 256">
  <path d="M232.00293,71.99707A12.01365,12.01365,0,0,0,223.06152,68H171.81006a43.99152,43.99152,0,0,0-87.62012,0H32.93848A12.00059,12.00059,0,0,0,21.01172,81.3252l14.22168,128A11.98794,11.98794,0,0,0,47.16016,220H208.83984a11.98794,11.98794,0,0,0,11.92676-10.6748l14.22168-128A12.01525,12.01525,0,0,0,232.00293,71.99707ZM128,36a36.04775,36.04775,0,0,1,35.77246,32H92.22754A36.04775,36.04775,0,0,1,128,36Zm99.03711,44.44238-14.22168,128A3.99568,3.99568,0,0,1,208.83984,212H47.16016a3.99568,3.99568,0,0,1-3.97559-3.55762l-14.22168-128A3.99987,3.99987,0,0,1,32.93848,76H84v28a4,4,0,0,0,8,0V76h72v28a4,4,0,0,0,8,0V76h51.06152a3.99987,3.99987,0,0,1,3.97559,4.44238Z"/>
</svg>
