<svg id="Flat" xmlns="http://www.w3.org/2000/svg" viewBox="0 0 256 256">
  <path d="M232.00293,71.99658A12.01318,12.01318,0,0,0,223.06152,68H171.81006a43.99152,43.99152,0,0,0-87.62012,0H32.93848A11.99994,11.99994,0,0,0,21.01172,81.3252l14.22168,128A11.98834,11.98834,0,0,0,47.16016,220H208.83984a11.98834,11.98834,0,0,0,11.92676-10.6748l14.22168-128A12.01634,12.01634,0,0,0,232.00293,71.99658ZM128,36a36.04775,36.04775,0,0,1,35.77246,32H92.22754A36.04775,36.04775,0,0,1,128,36Zm99.03711,44.44189L212.81543,208.44141A3.99614,3.99614,0,0,1,208.83984,212H47.16016a3.99611,3.99611,0,0,1-3.97559-3.55811l-14.22168-128A3.99979,3.99979,0,0,1,32.93848,76h190.123a3.99979,3.99979,0,0,1,3.97559,4.44189Z"/>
</svg>
