<svg xmlns="http://www.w3.org/2000/svg" viewBox="0 0 256 256"><path d="M188,28H68A28.1,28.1,0,0,0,40,56V184a28.1,28.1,0,0,0,28,28H88L68.8,237.6a4,4,0,0,0,.8,5.6,4.3,4.3,0,0,0,2.4.8,4.2,4.2,0,0,0,3.2-1.6L98,212h60l22.8,30.4A4.2,4.2,0,0,0,184,244a4.3,4.3,0,0,0,2.4-.8,4,4,0,0,0,.8-5.6L168,212h20a28.1,28.1,0,0,0,28-28V56A28.1,28.1,0,0,0,188,28ZM68,36H188a20.1,20.1,0,0,1,20,20v68H48V56A20.1,20.1,0,0,1,68,36ZM188,204H68a20.1,20.1,0,0,1-20-20V132H208v52A20.1,20.1,0,0,1,188,204ZM92,172a8,8,0,1,1-8-8A8,8,0,0,1,92,172Zm88,0a8,8,0,1,1-8-8A8,8,0,0,1,180,172Z"/></svg>