<svg id="Flat" xmlns="http://www.w3.org/2000/svg" viewBox="0 0 256 256">
  <path d="M219.98669,120.20068c.00257-.05017.0094-.099.00989-.14947a4.00593,4.00593,0,0,0-.05566-.69965c-.00379-.02246-.00122-.04437-.00537-.06689-.00611-.03308-.02051-.06207-.02735-.09485-.0166-.08069-.0271-.16229-.04882-.24207l-22.39258-82.105A12.02631,12.02631,0,0,0,185.88965,28H70.11035A12.02631,12.02631,0,0,0,58.5332,36.84277l-22.39258,82.105c-.02172.07978-.03222.16138-.04882.24207-.00684.03278-.02124.06177-.02735.09485-.00415.02252-.00158.04443-.00537.06689a4.00593,4.00593,0,0,0-.05566.69965c.00049.05041.00744.09918.00989.14929a4.00041,4.00041,0,0,0,.068.55774c.01208.06256.02246.12476.0376.1864.00854.03583.012.07245.02172.10809l22.39258,82.1045A12.02687,12.02687,0,0,0,70.11035,212H87.99951L68.7998,237.59961a4.00039,4.00039,0,0,0,6.4004,4.80078L98.00049,212h59.999l22.80029,30.40039a4.00039,4.00039,0,1,0,6.4004-4.80078L168.00049,212h17.88916a12.02687,12.02687,0,0,0,11.57715-8.84277l22.39258-82.1045c.00964-.03546.01306-.072.02172-.10766.01514-.062.02564-.12457.03785-.1875A4.00754,4.00754,0,0,0,219.98669,120.20068ZM66.25195,38.94727A4.00732,4.00732,0,0,1,70.11035,36h115.7793a4.00732,4.00732,0,0,1,3.8584,2.94727l21.24487,77.8974L128,131.93457l-82.99292-15.0899Zm0,162.10449L45.52954,125.071,124,139.33844V204H70.11035A4.00706,4.00706,0,0,1,66.25195,201.05176Zm123.4961,0A4.00706,4.00706,0,0,1,185.88965,204H132V139.33844l78.47046-14.2674ZM92,88a4.0002,4.0002,0,0,1,4-4h64a4,4,0,0,1,0,8H96A4.0002,4.0002,0,0,1,92,88Z"/>
</svg>
