<svg id="Flat" xmlns="http://www.w3.org/2000/svg" viewBox="0 0 256 256">
  <path d="M188,28H68A28.03146,28.03146,0,0,0,40,56V184a28.03146,28.03146,0,0,0,28,28H87.99951L68.7998,237.59961a4.00039,4.00039,0,0,0,6.4004,4.80078L98.00049,212h59.999l22.80029,30.40039a4.00039,4.00039,0,1,0,6.4004-4.80078L168.00049,212H188a28.03146,28.03146,0,0,0,28-28V56A28.03146,28.03146,0,0,0,188,28ZM68,36H188a20.02229,20.02229,0,0,1,20,20v68H48V56A20.02229,20.02229,0,0,1,68,36ZM188,204H68a20.02229,20.02229,0,0,1-20-20V132H208v52A20.02229,20.02229,0,0,1,188,204ZM92,172a8,8,0,1,1-8-8A8.00917,8.00917,0,0,1,92,172Zm88,0a8,8,0,1,1-8-8A8.00917,8.00917,0,0,1,180,172Z"/>
</svg>
