<svg xmlns="http://www.w3.org/2000/svg" viewBox="0 0 256 256"><path d="M220,120.2h0a1.5,1.5,0,0,0-.1-.7h0v-.3L197.5,36.8A12.1,12.1,0,0,0,185.9,28H70.1a12.1,12.1,0,0,0-11.6,8.8L36.1,118.9v.3h0a1.5,1.5,0,0,0-.1.7h0a1.3,1.3,0,0,0,.1.6h0v.2l22.4,82.1A12.1,12.1,0,0,0,70.1,212H88L68.8,237.6a4,4,0,0,0,.8,5.6,4.3,4.3,0,0,0,2.4.8,4.2,4.2,0,0,0,3.2-1.6L98,212h60l22.8,30.4A4.2,4.2,0,0,0,184,244a4.3,4.3,0,0,0,2.4-.8,4,4,0,0,0,.8-5.6L168,212h17.9a12.1,12.1,0,0,0,11.6-8.8l22.4-82.1v-.2h0A1.3,1.3,0,0,0,220,120.2ZM66.3,38.9A3.9,3.9,0,0,1,70.1,36H185.9a3.9,3.9,0,0,1,3.8,2.9L211,116.8l-83,15.1L45,116.8Zm0,162.2-20.8-76L124,139.3V204H70.1A3.9,3.9,0,0,1,66.3,201.1Zm123.4,0a3.9,3.9,0,0,1-3.8,2.9H132V139.3l78.5-14.2ZM92,88a4,4,0,0,1,4-4h64a4,4,0,0,1,0,8H96A4,4,0,0,1,92,88Z"/></svg>