<svg id="Flat" xmlns="http://www.w3.org/2000/svg" viewBox="0 0 256 256">
  <path d="M235.57178,214.21094l-56-112a4.00006,4.00006,0,0,0-7.15528,0l-22.854,45.708a92.04522,92.04522,0,0,1-55.57275-20.5752A99.707,99.707,0,0,0,123.90723,60h28.08691a4,4,0,0,0,0-8h-60V32a4,4,0,0,0-8,0V52h-60a4,4,0,0,0,0,8h91.90772a91.74207,91.74207,0,0,1-27.91895,62.03357A91.67371,91.67371,0,0,1,65.23389,86.667a4,4,0,0,0-7.542,2.668,99.63009,99.63009,0,0,0,24.30469,38.02075A91.5649,91.5649,0,0,1,23.99414,148a4,4,0,0,0,0,8,99.54451,99.54451,0,0,0,63.99951-23.22461,100.10427,100.10427,0,0,0,57.65479,22.97192L116.4165,214.21094a4,4,0,1,0,7.15528,3.57812L138.46631,188H213.522l14.89453,29.78906a4,4,0,1,0,7.15528-3.57812ZM142.46631,180l33.52783-67.05566L209.522,180Z"/>
</svg>
