<svg xmlns="http://www.w3.org/2000/svg" viewBox="0 0 256 256"><path d="M235.6,214.2l-56-112a4,4,0,0,0-7.2,0l-22.8,45.7A91.3,91.3,0,0,1,94,127.3,99.3,99.3,0,0,0,123.9,60H152a4,4,0,0,0,0-8H92V32a4,4,0,0,0-8,0V52H24a4,4,0,0,0,0,8h91.9A91.2,91.2,0,0,1,88,122,91.6,91.6,0,0,1,65.2,86.7a4,4,0,0,0-5.1-2.5,4.1,4.1,0,0,0-2.4,5.1A100,100,0,0,0,82,127.4,91.4,91.4,0,0,1,24,148a4,4,0,0,0,0,8,99.6,99.6,0,0,0,64-23.2,99.6,99.6,0,0,0,57.7,22.9l-29.3,58.5a4,4,0,0,0,7.2,3.6L138.5,188h75l14.9,29.8A4,4,0,0,0,232,220a3.9,3.9,0,0,0,1.8-.4A4,4,0,0,0,235.6,214.2ZM142.5,180,176,112.9,209.5,180Z"/></svg>