<svg id="Flat" xmlns="http://www.w3.org/2000/svg" viewBox="0 0 256 256">
  <path d="M215.99609,52H172V40a20.0226,20.0226,0,0,0-20-20H104A20.0226,20.0226,0,0,0,84,40V52H39.99609a4,4,0,0,0,0,8h12V208a12.01375,12.01375,0,0,0,12,12h128a12.01375,12.01375,0,0,0,12-12V60h12a4,4,0,0,0,0-8ZM92,40a12.01375,12.01375,0,0,1,12-12h48a12.01375,12.01375,0,0,1,12,12V52H92ZM195.99609,208a4.00458,4.00458,0,0,1-4,4h-128a4.00458,4.00458,0,0,1-4-4V60h136ZM108,104v64a4,4,0,0,1-8,0V104a4,4,0,0,1,8,0Zm48,0v64a4,4,0,0,1-8,0V104a4,4,0,0,1,8,0Z"/>
</svg>
