<svg xmlns="http://www.w3.org/2000/svg" viewBox="0 0 256 256"><path d="M208,36H48A12,12,0,0,0,36,48V159.9h0V208a12,12,0,0,0,12,12H208a12,12,0,0,0,12-12V48A12,12,0,0,0,208,36ZM48,44H208a4,4,0,0,1,4,4V156H179.3a11.9,11.9,0,0,0-8.5,3.5l-19.3,19.3a3.8,3.8,0,0,1-2.8,1.2H107.3a3.6,3.6,0,0,1-2.8-1.2L85.2,159.5a11.9,11.9,0,0,0-8.5-3.5H44V48A4,4,0,0,1,48,44ZM208,212H48a4,4,0,0,1-4-4V164H76.7a3.8,3.8,0,0,1,2.8,1.2l19.3,19.3a11.9,11.9,0,0,0,8.5,3.5h41.4a11.9,11.9,0,0,0,8.5-3.5l19.3-19.3a3.6,3.6,0,0,1,2.8-1.2H212v44A4,4,0,0,1,208,212Z"/></svg>