<svg id="Flat" xmlns="http://www.w3.org/2000/svg" viewBox="0 0 256 256">
  <path d="M208,36H48A12.01343,12.01343,0,0,0,36,48V159.94189c-.00049.02-.00586.03809-.00586.05811s.00537.03809.00586.05811V208a12.01343,12.01343,0,0,0,12,12H208a12.01343,12.01343,0,0,0,12-12V48A12.01343,12.01343,0,0,0,208,36ZM48,44H208a4.00427,4.00427,0,0,1,4,4V156H179.30762a11.92254,11.92254,0,0,0-8.48535,3.51465l-19.31348,19.31347A3.97185,3.97185,0,0,1,148.68066,180h-41.373a3.975,3.975,0,0,1-2.82813-1.1709l-19.314-19.31543A11.92372,11.92372,0,0,0,76.68066,156H44V48A4.00427,4.00427,0,0,1,48,44ZM208,212H48a4.00427,4.00427,0,0,1-4-4V164H76.68066a3.975,3.975,0,0,1,2.82813,1.1709l19.314,19.31543A11.92374,11.92374,0,0,0,107.30762,188h41.373a11.92257,11.92257,0,0,0,8.48536-3.51465l19.31347-19.31347A3.97185,3.97185,0,0,1,179.30762,164H212v44A4.00427,4.00427,0,0,1,208,212Z"/>
</svg>
