<svg xmlns="http://www.w3.org/2000/svg" viewBox="0 0 256 256"><path d="M196.4,66.2a3.8,3.8,0,0,1-2-2.1,72,72,0,0,0-132.8,0,3.8,3.8,0,0,1-2,2.1A68.3,68.3,0,0,0,20,127.8c-.1,36.7,29.6,67.3,66.2,68.2A67.7,67.7,0,0,0,124,185.7V232a4,4,0,0,0,8,0V185.7A68.2,68.2,0,0,0,168,196h1.8c36.6-.9,66.3-31.5,66.2-68.2A68.3,68.3,0,0,0,196.4,66.2ZM169.6,188a59.9,59.9,0,0,1-34.9-10.1h0a11.1,11.1,0,0,0-2.7-1.3V130.5l45.8-22.9a4,4,0,1,0-3.6-7.2L132,121.5V88a4,4,0,0,0-8,0v57.5L81.8,124.4a4,4,0,1,0-3.6,7.2L124,154.5v22.1a11.1,11.1,0,0,0-2.7,1.3A59.9,59.9,0,0,1,86.4,188c-32.3-.8-58.5-27.8-58.4-60.2A60.3,60.3,0,0,1,62.9,73.5,12.1,12.1,0,0,0,69,67.2a64,64,0,0,1,118,0,12.1,12.1,0,0,0,6.1,6.3A60.3,60.3,0,0,1,228,127.8C228.1,160.2,201.9,187.2,169.6,188Z"/></svg>