<svg id="Flat" xmlns="http://www.w3.org/2000/svg" viewBox="0 0 256 256">
  <path d="M196.42139,66.22656a3.98464,3.98464,0,0,1-2.00928-2.082,72.02827,72.02827,0,0,0-132.82422,0,3.98464,3.98464,0,0,1-2.00928,2.082A68.24829,68.24829,0,0,0,20,127.81055c-.09961,36.66113,29.61768,67.24121,66.24561,68.168A67.68475,67.68475,0,0,0,124,185.67285V232a4,4,0,0,0,8,0V185.6748A67.52165,67.52165,0,0,0,167.999,196c.584,0,1.17188-.00684,1.75782-.02148,36.62793-.92774,66.34472-31.50879,66.24316-68.1709A68.25036,68.25036,0,0,0,196.42139,66.22656Zm-26.8667,121.75391a59.46988,59.46988,0,0,1-34.85449-10.07813h.00048A12.12052,12.12052,0,0,0,132,176.55371V130.47266l45.78906-22.89454a4.00046,4.00046,0,0,0-3.57812-7.15624L132,121.52734V88a4,4,0,0,0-8,0v57.52734L81.78906,124.42188a4.00046,4.00046,0,0,0-3.57812,7.15624L124,154.47266v22.08105a12.08609,12.08609,0,0,0-2.7002,1.34863,59.38669,59.38669,0,0,1-34.85253,10.07813C54.13135,187.16406,27.91211,160.18066,28,127.832A60.22228,60.22228,0,0,1,62.92627,73.49219a11.96468,11.96468,0,0,0,6.0376-6.25,64.02821,64.02821,0,0,1,118.07226,0,11.96468,11.96468,0,0,0,6.0376,6.25A60.22244,60.22244,0,0,1,228,127.8291C228.08936,160.17871,201.87109,187.16309,169.55469,187.98047Z"/>
</svg>
