<svg id="Flat" xmlns="http://www.w3.org/2000/svg" viewBox="0 0 256 256">
  <path d="M168,108h48a12.01343,12.01343,0,0,0,12-12V48a12.01343,12.01343,0,0,0-12-12H168a12.01343,12.01343,0,0,0-12,12V68H144a28.03146,28.03146,0,0,0-28,28v28H84V108A12.01343,12.01343,0,0,0,72,96H32a12.01343,12.01343,0,0,0-12,12v40a12.01343,12.01343,0,0,0,12,12H72a12.01343,12.01343,0,0,0,12-12V132h32v28a28.03146,28.03146,0,0,0,28,28h12v20a12.01343,12.01343,0,0,0,12,12h48a12.01343,12.01343,0,0,0,12-12V160a12.01343,12.01343,0,0,0-12-12H168a12.01343,12.01343,0,0,0-12,12v20H144a20.02229,20.02229,0,0,1-20-20V96a20.02229,20.02229,0,0,1,20-20h12V96A12.01343,12.01343,0,0,0,168,108ZM76,148a4.00427,4.00427,0,0,1-4,4H32a4.00427,4.00427,0,0,1-4-4V108a4.00427,4.00427,0,0,1,4-4H72a4.00427,4.00427,0,0,1,4,4Zm88,12a4.00427,4.00427,0,0,1,4-4h48a4.00427,4.00427,0,0,1,4,4v48a4.00427,4.00427,0,0,1-4,4H168a4.00427,4.00427,0,0,1-4-4Zm0-112a4.00427,4.00427,0,0,1,4-4h48a4.00427,4.00427,0,0,1,4,4V96a4.00427,4.00427,0,0,1-4,4H168a4.00427,4.00427,0,0,1-4-4Z"/>
</svg>
