<svg id="Flat" xmlns="http://www.w3.org/2000/svg" viewBox="0 0 256 256">
  <path d="M236.00244,56v64a4,4,0,0,1-8,0V65.65674l-89.17187,89.17187a4.0003,4.0003,0,0,1-5.65625,0L96.00244,117.65674,26.83057,186.82861a3.99992,3.99992,0,0,1-5.65625-5.65722l72-72a4.0003,4.0003,0,0,1,5.65625,0l37.17187,37.17187L222.3457,60H168.00244a4,4,0,0,1,0-8h64c.0166,0,.03174.00464.04785.00488a3.99449,3.99449,0,0,1,.73487.07422c.11963.02368.23047.06812.34619.1023a2.29014,2.29014,0,0,1,.77441.321c.10547.05713.21485.104.31592.17139a4.01391,4.01391,0,0,1,.60352.49316l.00537.0044h0a4.00692,4.00692,0,0,1,.49853.61035c.06543.09814.11035.20434.16651.30664a2.33053,2.33053,0,0,1,.32714.78784c.03321.11377.07715.22266.10059.34033A3.99092,3.99092,0,0,1,236.00244,56Z"/>
</svg>
