<svg id="Flat" xmlns="http://www.w3.org/2000/svg" viewBox="0 0 256 256">
  <path d="M235.49561,201.91162c-.05616.1023-.10108.2085-.16651.30676a3.99918,3.99918,0,0,1-.49853.61011v.00012l-.00537.0044a4.02127,4.02127,0,0,1-.60352.49316c-.10156.06787-.21143.11463-.31738.17212a2.31737,2.31737,0,0,1-.78125.32275c-.1128.03321-.22071.07691-.33741.1a4.01467,4.01467,0,0,1-.7832.079h-64a4,4,0,1,1,0-8H222.3457l-86.34326-86.34326L98.83057,146.82861a4.0003,4.0003,0,0,1-5.65625,0l-72-72a3.99992,3.99992,0,0,1,5.65625-5.65722l69.17187,69.17187,37.17188-37.17187a4.0003,4.0003,0,0,1,5.65625,0l89.17187,89.17187V136a4,4,0,0,1,8,0v64a3.99092,3.99092,0,0,1-.0791.78345c-.02344.11767-.06738.22656-.10059.34033a4.08562,4.08562,0,0,1-.126.406A3.95112,3.95112,0,0,1,235.49561,201.91162Z"/>
</svg>
