<svg id="Flat" xmlns="http://www.w3.org/2000/svg" viewBox="0 0 256 256">
  <path d="M243.99792,119.98145a3.985,3.985,0,0,0-.071-.70411c-.00965-.05273-.01941-.10449-.03113-.15673a3.97424,3.97424,0,0,0-.18213-.606l-.02686-.06738-.00268-.00684L229.72534,83.543A11.94255,11.94255,0,0,0,218.58374,76h-38.584V64a4.0002,4.0002,0,0,0-4-4h-152a12.01312,12.01312,0,0,0-12,12V184a12.01312,12.01312,0,0,0,12,12H40.29a27.99642,27.99642,0,0,0,55.41943,0H160.29a27.99642,27.99642,0,0,0,55.41943,0h16.29028a12.01343,12.01343,0,0,0,12-12V120ZM218.58374,84a3.98112,3.98112,0,0,1,3.71386,2.51465L234.09155,116h-54.0918V84ZM23.99975,68h148v72h-152V72A4.00427,4.00427,0,0,1,23.99975,68Zm-4,116V148h152v21.0415A28.02663,28.02663,0,0,0,160.29,188H95.70947A27.99642,27.99642,0,0,0,40.29,188H23.99975A4.00427,4.00427,0,0,1,19.99975,184Zm48,28a20,20,0,1,1,20-20A20.02229,20.02229,0,0,1,67.99975,212Zm120,0a20,20,0,1,1,20-20A20.02229,20.02229,0,0,1,187.99975,212Zm48-28a4.00426,4.00426,0,0,1-4,4H215.70947a27.98464,27.98464,0,0,0-35.70972-22.8291V124h56Z"/>
</svg>
