<svg xmlns="http://www.w3.org/2000/svg" viewBox="0 0 256 256"><path d="M244.1,120a1.5,1.5,0,0,0-.1-.7v-.2a1.4,1.4,0,0,0-.2-.6h0l-14-34.9A12,12,0,0,0,218.7,76H180.1V64a4,4,0,0,0-4-4H24.1a12,12,0,0,0-12,12V184a12,12,0,0,0,12,12H40.4a28,28,0,0,0,55.4,0h64.6a28,28,0,0,0,55.4,0h16.3a12,12,0,0,0,12-12V120ZM218.7,84a4,4,0,0,1,3.7,2.5L234.2,116H180.1V84ZM24.1,68h148v72H20.1V72A4,4,0,0,1,24.1,68Zm-4,116V148h152v21a28.2,28.2,0,0,0-11.7,19H95.8a28,28,0,0,0-55.4,0H24.1A4,4,0,0,1,20.1,184Zm48,28a20,20,0,1,1,20-20A20.1,20.1,0,0,1,68.1,212Zm120,0a20,20,0,1,1,20-20A20.1,20.1,0,0,1,188.1,212Zm48-28a4,4,0,0,1-4,4H215.8a27.9,27.9,0,0,0-27.7-24,26.3,26.3,0,0,0-8,1.2V124h56Z"/></svg>