<svg id="Flat" xmlns="http://www.w3.org/2000/svg" viewBox="0 0 256 256">
  <path d="M243.69531,70.46924A3.99949,3.99949,0,0,0,240,68l-32.79834-.00049a44.09747,44.09747,0,0,0-38.64307-23.99609A44.31838,44.31838,0,0,0,124,87.99951l-.00977,11.1709c-44.07861-9.38477-80.78418-45.62207-81.16308-46a4.00074,4.00074,0,0,0-6.7627,2.11426c-8.5205,46.86181,5.47461,78.11865,18.71534,96.08789a103.47267,103.47267,0,0,0,27.40136,25.87207C66.4668,197.58936,38.88574,208.14551,38.5957,208.25488a3.99983,3.99983,0,0,0-1.92382,5.96387c.26464.39746,2.78417,3.98145,9.53906,7.35889C54.73438,225.83936,66.10254,228,80,228c68.94678,0,126.47021-53.45166,131.624-121.96729l31.2041-31.2041A3.99939,3.99939,0,0,0,243.69531,70.46924Zm-38.78613,30.96484a4.00173,4.00173,0,0,0-1.16357,2.57422C199.60205,169.05029,145.24609,220,80,220c-17.8457,0-27.62695-3.88721-32.50391-6.8667,10.374-4.82812,31.45508-16.34863,43.832-34.91455a3.99941,3.99941,0,0,0-1.53906-5.79639c-.15136-.07568-15.293-7.77832-28.56885-25.79541-16.65429-22.602-22.84765-50.36084-18.4497-82.60156,12.792,11.31055,45.86767,37.46973,84.55761,43.91992a4,4,0,0,0,4.65821-3.94189L132,88.00635v-.00391a36.31979,36.31979,0,0,1,36.459-36,36.07711,36.07711,0,0,1,32.54688,21.59863,4.00012,4.00012,0,0,0,3.66553,2.39844L230.34326,76Z"/>
</svg>
