<svg id="Flat" xmlns="http://www.w3.org/2000/svg" viewBox="0 0 256 256">
  <path d="M243.69531,70.46924A3.99949,3.99949,0,0,0,240,68l-32.79834-.00049a44.09747,44.09747,0,0,0-38.64307-23.99609A44.31834,44.31834,0,0,0,124,88.00293V99.16357C80.68555,89.81787,51.42285,53.874,51.12354,53.50146a4.00014,4.00014,0,0,0-7.05909,1.78321c-8.53955,46.96679,5.53614,76.09424,18.84766,92.2583a87.3963,87.3963,0,0,0,27.90332,22.50586c-9.65332,18.98974-43.24512,25.95752-43.60254,26.02929a4.0002,4.0002,0,0,0-2.041,6.75049C45.87256,203.52979,62.72559,220,96,220c34.74414,0,64.4707-12.55811,85.96631-36.31641,18.72705-20.69824,29.61767-49.04931,30.022-78.01513l30.83984-30.83985A3.99939,3.99939,0,0,0,243.69531,70.46924Zm-38.52343,30.70215A3.99957,3.99957,0,0,0,204,104c0,27.58545-10.19336,54.67285-27.96631,74.31641C156.09668,200.35254,128.42139,212,96,212c-18.83447,0-31.86084-5.87939-38.92822-10.23682,12.77783-3.88867,36.38232-13.47656,42.72314-32.498a4.00011,4.00011,0,0,0-2.39062-5.01026c-.14991-.05664-15.14942-5.80908-28.31641-21.79785-16.39111-19.90332-22.58105-45.94482-18.44434-77.501,11.45411,11.94971,39.13721,36.7295,76.69874,42.98975A4.00016,4.00016,0,0,0,132,104V88.00244a36.31979,36.31979,0,0,1,36.459-36,36.07711,36.07711,0,0,1,32.54688,21.59863,4.00012,4.00012,0,0,0,3.66553,2.39844L230.34326,76Z"/>
</svg>
