<svg xmlns="http://www.w3.org/2000/svg" viewBox="0 0 256 256"><path d="M243.7,70.5A4,4,0,0,0,240,68H207.2a44,44,0,0,0-38.6-24A44.4,44.4,0,0,0,124,88V99.2c-44.1-9.4-80.8-45.7-81.2-46a3.9,3.9,0,0,0-6.7,2.1c-8.6,46.8,5.4,78.1,18.7,96.1a101.8,101.8,0,0,0,27.4,25.8c-15.7,20.4-43.3,30.9-43.6,31.1a4,4,0,0,0-2.4,2.5,3.8,3.8,0,0,0,.5,3.4c.2.4,2.8,4,9.5,7.4,8.5,4.2,19.9,6.4,33.8,6.4,68.9,0,126.5-53.5,131.6-122l31.2-31.2A3.8,3.8,0,0,0,243.7,70.5Zm-38.8,30.9a4.2,4.2,0,0,0-1.2,2.6C199.6,169.1,145.2,220,80,220c-17.8,0-27.6-3.9-32.5-6.9,10.4-4.8,31.5-16.3,43.8-34.9a3.7,3.7,0,0,0,.6-3.2,4.2,4.2,0,0,0-2.1-2.6c-.2-.1-15.3-7.8-28.6-25.8C44.6,124,38.4,96.3,42.8,64c12.8,11.3,45.8,37.5,84.5,43.9a4.2,4.2,0,0,0,3.3-.8A4.1,4.1,0,0,0,132,104V88h0a36.4,36.4,0,0,1,36.5-36A36.1,36.1,0,0,1,201,73.6a3.9,3.9,0,0,0,3.7,2.4h25.6Z"/></svg>