<svg id="Flat" xmlns="http://www.w3.org/2000/svg" viewBox="0 0 256 256">
  <path d="M80,220.001a132.10894,132.10894,0,0,1-63.96326-16.50586,4.00855,4.00855,0,0,1,1.88684-7.50879,123.40229,123.40229,0,0,0,62.97449-18.30322A132.20442,132.20442,0,0,1,32.78589,36.65771a4,4,0,0,1,7.20727-1.11279A123.64511,123.64511,0,0,0,124.11963,90.417q-.14007-1.75854-.14026-3.52832a44.0039,44.0039,0,0,1,81.0957-23.67187,124.49893,124.49893,0,0,0,33.65625-6.34717,3.99986,3.99986,0,0,1,4.55054,6.08594,131.59161,131.59161,0,0,1-31.45044,31.77636A132.00543,132.00543,0,0,1,80,220.001ZM33.26257,202.88086A124.41857,124.41857,0,0,0,80,212.001,124.00248,124.00248,0,0,0,203.92163,92.44971a3.99926,3.99926,0,0,1,1.72473-3.15039,123.06294,123.06294,0,0,0,23.75757-21.46094,132.33,132.33,0,0,1-26.42175,3.46533,4.001,4.001,0,0,1-3.66236-2.14307,36.01363,36.01363,0,0,0-66.61023,24.981,4.00279,4.00279,0,0,1-4.44226,4.93115,131.50016,131.50016,0,0,1-89.80712-51.772A124.21778,124.21778,0,0,0,90.25317,174.541a3.99964,3.99964,0,0,1,0,6.61035A131.2148,131.2148,0,0,1,33.26257,202.88086Z"/>
</svg>
