<svg xmlns="http://www.w3.org/2000/svg" viewBox="0 0 256 256"><path d="M72,244a3.3,3.3,0,0,1-1.7-.4A3.9,3.9,0,0,1,68,240V204H48a12,12,0,0,1-12-12V48A12,12,0,0,1,48,36H208a12,12,0,0,1,12,12V156.3a12.2,12.2,0,0,1-4.3,9.2l-42.9,35.7a12.2,12.2,0,0,1-7.7,2.8H122.9a4.3,4.3,0,0,0-2.6.9L74.6,243.1A4.3,4.3,0,0,1,72,244ZM48,44a4,4,0,0,0-4,4V192a4,4,0,0,0,4,4H72a4,4,0,0,1,4,4v31.5l39.2-32.7a12.2,12.2,0,0,1,7.7-2.8h42.2a4.3,4.3,0,0,0,2.6-.9l42.9-35.8a3.9,3.9,0,0,0,1.4-3V48a4,4,0,0,0-4-4Z"/><path d="M168,140a4,4,0,0,1-4-4V88a4,4,0,0,1,8,0v48A4,4,0,0,1,168,140Z"/><path d="M120,140a4,4,0,0,1-4-4V88a4,4,0,0,1,8,0v48A4,4,0,0,1,120,140Z"/></svg>