<svg id="Flat" xmlns="http://www.w3.org/2000/svg" viewBox="0 0 256 256">
  <path d="M235.627,126.96094A108.01029,108.01029,0,0,0,128.00684,28h-.01368A108.01044,108.01044,0,0,0,20.37305,126.96,12.02179,12.02179,0,0,0,32.33447,140H124v60a28,28,0,0,0,56,0,4,4,0,0,0-8,0,20,20,0,0,1-40,0V140h91.66553A12.02166,12.02166,0,0,0,235.627,126.96094ZM92.05859,132c1.21485-56.01807,27.59961-86.36572,35.94092-94.57324,8.34912,8.21582,34.72754,38.564,35.9419,94.57324Zm-62.65625-1.28711a4.0249,4.0249,0,0,1-1.05664-3.0918,99.98523,99.98523,0,0,1,89.39453-91.082C106.00342,49.76221,85.083,80.45459,84.04443,132h-51.71A3.94293,3.94293,0,0,1,29.40234,130.71289Zm197.19532,0A3.94293,3.94293,0,0,1,223.66553,132h-51.71c-1.03858-51.54541-21.959-82.23779-33.6958-95.46094a99.98506,99.98506,0,0,1,89.39453,91.083A4.024,4.024,0,0,1,226.59766,130.71289Z"/>
</svg>
