<svg id="Flat" xmlns="http://www.w3.org/2000/svg" viewBox="0 0 256 256">
  <path d="M235.627,126.96094a108.00662,108.00662,0,0,0-215.2539-.001A12.02179,12.02179,0,0,0,32.33447,140H124v60a28,28,0,0,0,56,0,4,4,0,0,0-8,0,20,20,0,0,1-40,0V140h91.66553A12.02166,12.02166,0,0,0,235.627,126.96094Zm-9.02929,3.75195A3.94293,3.94293,0,0,1,223.66553,132H32.33447a3.94293,3.94293,0,0,1-2.93213-1.28711,4.0249,4.0249,0,0,1-1.05664-3.0918,100.00661,100.00661,0,0,1,199.3086.001A4.024,4.024,0,0,1,226.59766,130.71289Z"/>
</svg>
