<svg id="Flat" xmlns="http://www.w3.org/2000/svg" viewBox="0 0 256 256">
  <path d="M236,136v64a12.01343,12.01343,0,0,1-12,12H32a12.01343,12.01343,0,0,1-12-12V136a12.01343,12.01343,0,0,1,12-12H80a4,4,0,0,1,0,8H32a4.00427,4.00427,0,0,0-4,4v64a4.00427,4.00427,0,0,0,4,4H224a4.00427,4.00427,0,0,0,4-4V136a4.00427,4.00427,0,0,0-4-4H176a4,4,0,0,1,0-8h48A12.01343,12.01343,0,0,1,236,136ZM82.82861,74.82813,124,33.65723V128a4,4,0,0,0,8,0V33.65723l41.17139,41.1709a3.99992,3.99992,0,0,0,5.65722-5.65625l-47.99951-47.999a4.00484,4.00484,0,0,0-.61084-.49951c-.09717-.06494-.20264-.10938-.30371-.16455a3.85343,3.85343,0,0,0-.38476-.20313,4.07826,4.07826,0,0,0-.40479-.12548c-.11426-.0337-.22314-.07764-.3418-.10108a4.00772,4.00772,0,0,0-1.5664,0c-.11866.02344-.22754.06738-.3418.10108a4.07826,4.07826,0,0,0-.40479.12548,3.85343,3.85343,0,0,0-.38476.20313c-.10107.05517-.20654.09961-.30371.16455a4.00484,4.00484,0,0,0-.61084.49951l-47.99951,47.999a3.99992,3.99992,0,0,0,5.65722,5.65625ZM196,168a8,8,0,1,0-8,8A8.00917,8.00917,0,0,0,196,168Z"/>
</svg>
