<svg id="Flat" xmlns="http://www.w3.org/2000/svg" viewBox="0 0 256 256">
  <path d="M188.00049,174a6,6,0,1,1,6-6A6.00029,6.00029,0,0,1,188.00049,174ZM82.82861,74.82813,124,33.65723V128a4,4,0,0,0,8,0V33.65723l41.17139,41.1709a3.99992,3.99992,0,0,0,5.65722-5.65625l-48-48a3.99971,3.99971,0,0,0-5.65722,0l-48,48a3.99992,3.99992,0,0,0,5.65722,5.65625ZM224,124H176a4,4,0,0,0,0,8h48a4.00427,4.00427,0,0,1,4,4v64a4.00427,4.00427,0,0,1-4,4H32a4.00427,4.00427,0,0,1-4-4V136a4.00427,4.00427,0,0,1,4-4H80a4,4,0,0,0,0-8H32a12.01343,12.01343,0,0,0-12,12v64a12.01343,12.01343,0,0,0,12,12H224a12.01343,12.01343,0,0,0,12-12V136A12.01343,12.01343,0,0,0,224,124Z"/>
</svg>
