<svg id="Flat" xmlns="http://www.w3.org/2000/svg" viewBox="0 0 256 256">
  <path d="M83.17188,84.79883a3.99854,3.99854,0,0,1,0-5.65625l42-42a3.99853,3.99853,0,0,1,5.65624,0l42,42a3.99957,3.99957,0,1,1-5.65624,5.65625L132,49.62793V152a4,4,0,0,1-8,0V49.62793L88.82812,84.79883A3.99853,3.99853,0,0,1,83.17188,84.79883ZM224,132a4.0002,4.0002,0,0,0-4,4v72a4.00427,4.00427,0,0,1-4,4H40a4.00427,4.00427,0,0,1-4-4V136a4,4,0,0,0-8,0v72a12.01343,12.01343,0,0,0,12,12H216a12.01343,12.01343,0,0,0,12-12V136A4.0002,4.0002,0,0,0,224,132Z"/>
</svg>
