<svg id="Flat" xmlns="http://www.w3.org/2000/svg" viewBox="0 0 256 256">
  <path d="M172.2876,72a3.9979,3.9979,0,0,0,5.46386,1.46387l7.30494-4.21753A19.98489,19.98489,0,0,0,196,75.59686V84a4,4,0,0,0,8,0V75.59686a19.98489,19.98489,0,0,0,10.9436-6.35052l7.30494,4.21753a3.9998,3.9998,0,0,0,4-6.92774l-7.29078-4.20941a19.7237,19.7237,0,0,0,0-12.65344l7.29078-4.20941a3.9998,3.9998,0,0,0-4-6.92774l-7.30494,4.21753A19.98489,19.98489,0,0,0,204,36.40314V28a4,4,0,0,0-8,0v8.40314a19.98489,19.98489,0,0,0-10.9436,6.35052l-7.30494-4.21753a3.9998,3.9998,0,0,0-4,6.92774l7.29078,4.20941a19.7237,19.7237,0,0,0,0,12.65344l-7.29078,4.20941A3.99937,3.99937,0,0,0,172.2876,72ZM200,44a12,12,0,1,1-12,12A12.01375,12.01375,0,0,1,200,44Zm27.01514,175.4541a3.99633,3.99633,0,0,1-5.46534-1.459,108.03761,108.03761,0,0,0-187.09814-.002,4,4,0,0,1-6.9248-4.00586,116.52679,116.52679,0,0,1,74.73242-55.06207A68.00364,68.00364,0,0,1,137.40869,28.64648a3.99981,3.99981,0,0,1-1.09863,7.92383A60.75577,60.75577,0,0,0,128,36a60,60,0,1,0,54.96436,84.10107,4.00019,4.00019,0,0,1,7.32519,3.2168A68.03626,68.03626,0,0,1,153.749,158.92694a116.52522,116.52522,0,0,1,74.72559,55.06232A3.99917,3.99917,0,0,1,227.01514,219.4541Z"/>
</svg>
