<svg id="Flat" xmlns="http://www.w3.org/2000/svg" viewBox="0 0 256 256">
  <path d="M172,56a4.0002,4.0002,0,0,1,4-4h20V32a4,4,0,0,1,8,0V52h20a4,4,0,0,1,0,8H204V80a4,4,0,0,1-8,0V60H176A4.0002,4.0002,0,0,1,172,56Zm54.61719,55.33691A101.00741,101.00741,0,0,1,228,128a99.76346,99.76346,0,0,1-32.71167,73.91113,3.97148,3.97148,0,0,1-.83813.74756,99.79345,99.79345,0,0,1-132.89795.00195,3.97186,3.97186,0,0,1-.84229-.751A99.95588,99.95588,0,0,1,128,28a100.99108,100.99108,0,0,1,16.66357,1.38281,4,4,0,0,1-1.32421,7.88965A92.08379,92.08379,0,0,0,36,128a91.70668,91.70668,0,0,0,26.82861,64.87158,75.6171,75.6171,0,0,1,44.50782-34.04,44,44,0,1,1,41.32714,0,75.616,75.616,0,0,1,44.50782,34.04053A91.70971,91.70971,0,0,0,220,128a93.00344,93.00344,0,0,0-1.27246-15.33984,3.99992,3.99992,0,0,1,7.88965-1.32325ZM128,156a36,36,0,1,0-36-36A36.04061,36.04061,0,0,0,128,156Zm0,64a91.58351,91.58351,0,0,0,59.135-21.583,68.01136,68.01136,0,0,0-118.27026,0A91.58413,91.58413,0,0,0,128,220Z"/>
</svg>
