<svg id="Flat" xmlns="http://www.w3.org/2000/svg" viewBox="0 0 256 256">
  <path d="M208,36H48A12.01375,12.01375,0,0,0,36,48V208a12.01375,12.01375,0,0,0,12,12H198.20093l.01147.001.00879-.001H208a12.01375,12.01375,0,0,0,12-12V48A12.01375,12.01375,0,0,0,208,36ZM63.00146,212a68.00818,68.00818,0,0,1,129.99708,0ZM212,208a4.00458,4.00458,0,0,1-4,4h-6.66211a75.907,75.907,0,0,0-52.74878-53.13037,44,44,0,1,0-41.17822,0A75.907,75.907,0,0,0,54.66211,212H48a4.00458,4.00458,0,0,1-4-4V48a4.00458,4.00458,0,0,1,4-4H208a4.00458,4.00458,0,0,1,4,4Zm-84-52a36,36,0,1,1,36-36A36.04061,36.04061,0,0,1,128,156Z"/>
</svg>
