<svg xmlns="http://www.w3.org/2000/svg" viewBox="0 0 256 256"><path d="M226.2,66.5,219,62.3a20.3,20.3,0,0,0,0-12.6l7.2-4.2a4,4,0,0,0,1.5-5.5,4,4,0,0,0-5.5-1.5l-7.3,4.3A19.9,19.9,0,0,0,204,36.4V28a4,4,0,0,0-8,0v8.4a19.9,19.9,0,0,0-10.9,6.4l-7.3-4.3a4,4,0,0,0-5.5,1.5,4,4,0,0,0,1.5,5.5l7.2,4.2a20.3,20.3,0,0,0,0,12.6l-7.2,4.2a4,4,0,0,0,2,7.5,5.3,5.3,0,0,0,2-.5l7.3-4.3A19.9,19.9,0,0,0,196,75.6V84a4,4,0,0,0,8,0V75.6a19.9,19.9,0,0,0,10.9-6.4l7.3,4.3a5.3,5.3,0,0,0,2,.5,4,4,0,0,0,2-7.5ZM200,68a12,12,0,1,1,12-12A12,12,0,0,1,200,68Zm22.8,44.5a4.2,4.2,0,0,0-3.5,4.5,80.2,80.2,0,0,1,.7,11,92.1,92.1,0,0,1-26.8,64.9,75.8,75.8,0,0,0-44.5-34.1,44,44,0,1,0-41.4,0,75.8,75.8,0,0,0-44.5,34.1A92,92,0,0,1,128,36a80.6,80.6,0,0,1,8.5.4,4,4,0,0,0,.8-8c-3.1-.3-6.2-.4-9.3-.4A100,100,0,0,0,60.7,201.9a3.6,3.6,0,0,0,.9.8,99.8,99.8,0,0,0,132.8,0,3.6,3.6,0,0,0,.9-.8A99.6,99.6,0,0,0,228,128a96.6,96.6,0,0,0-.7-12A4.1,4.1,0,0,0,222.8,112.5ZM92,120a36,36,0,1,1,36,36A36,36,0,0,1,92,120ZM68.9,198.4a68,68,0,0,1,118.2,0,91.7,91.7,0,0,1-118.2,0Z"/></svg>