<svg id="Flat" xmlns="http://www.w3.org/2000/svg" viewBox="0 0 256 256">
  <path d="M111.13672,158.97681a56.00028,56.00028,0,1,0-46.27246-.00025,92.23328,92.23328,0,0,0-52.13867,36.11719,3.99985,3.99985,0,1,0,6.541,4.60547A84.01746,84.01746,0,0,1,156.73,199.69434a4.00014,4.00014,0,0,0,6.541-4.60645A92.23237,92.23237,0,0,0,111.13672,158.97681ZM40.00049,108a48,48,0,1,1,48,48A48.05436,48.05436,0,0,1,40.00049,108Zm203.82519,92.66162a3.99923,3.99923,0,0,1-5.57373-.96728A84.17363,84.17363,0,0,0,169.522,164a4,4,0,0,1,0-8,48,48,0,1,0-13.02636-94.2124,4,4,0,1,1-2.166-7.70117A55.99661,55.99661,0,0,1,192.6582,158.97681,92.23507,92.23507,0,0,1,244.793,195.08789,4.0002,4.0002,0,0,1,243.82568,200.66162Z"/>
</svg>
