<svg xmlns="http://www.w3.org/2000/svg" viewBox="0 0 256 256"><path d="M133.3,158.8a64,64,0,1,0-50.6,0,116.3,116.3,0,0,0-63.6,38.6,4,4,0,0,0,6.2,5.2,107.9,107.9,0,0,1,165.4,0,4.3,4.3,0,0,0,3.1,1.4,4.3,4.3,0,0,0,2.6-.9,4.1,4.1,0,0,0,.5-5.7A116.3,116.3,0,0,0,133.3,158.8ZM52,100a56,56,0,1,1,56,56A56,56,0,0,1,52,100Zm194.2,46.5-7.2-4.2a20.3,20.3,0,0,0,0-12.6l7.2-4.2a4,4,0,0,0,1.5-5.5,4,4,0,0,0-5.5-1.5l-7.3,4.3a19.9,19.9,0,0,0-10.9-6.4V108a4,4,0,0,0-8,0v8.4a19.9,19.9,0,0,0-10.9,6.4l-7.3-4.3a4,4,0,0,0-5.5,1.5,4,4,0,0,0,1.5,5.5l7.2,4.2a20.3,20.3,0,0,0,0,12.6l-7.2,4.2a4,4,0,0,0,2,7.5,5.3,5.3,0,0,0,2-.5l7.3-4.3a19.9,19.9,0,0,0,10.9,6.4V164a4,4,0,0,0,8,0v-8.4a19.9,19.9,0,0,0,10.9-6.4l7.3,4.3a5.3,5.3,0,0,0,2,.5,4,4,0,0,0,2-7.5ZM220,148a12,12,0,1,1,12-12A12,12,0,0,1,220,148Z"/></svg>