<svg xmlns="http://www.w3.org/2000/svg" viewBox="0 0 256 256"><path d="M220,48V76a4,4,0,0,1-8,0V48a4,4,0,0,0-4-4H180a4,4,0,0,1,0-8h28A12,12,0,0,1,220,48Zm-4,128a4,4,0,0,0-4,4v28a4,4,0,0,1-4,4H180a4,4,0,0,0,0,8h28a12,12,0,0,0,12-12V180A4,4,0,0,0,216,176ZM76,212H48a4,4,0,0,1-4-4V180a4,4,0,0,0-8,0v28a12,12,0,0,0,12,12H76a4,4,0,0,0,0-8ZM40,80a4,4,0,0,0,4-4V48a4,4,0,0,1,4-4H76a4,4,0,0,0,0-8H48A12,12,0,0,0,36,48V76A4,4,0,0,0,40,80Zm137.5,97.9a55.9,55.9,0,0,0-99,0,4,4,0,0,1-7.1-3.8,64.2,64.2,0,0,1,37.9-31.3,36,36,0,1,1,37.4,0,64.2,64.2,0,0,1,37.9,31.3,4,4,0,0,1-1.7,5.4,2.9,2.9,0,0,1-1.8.5A4.2,4.2,0,0,1,177.5,177.9ZM128,140a28,28,0,1,0-28-28A28.1,28.1,0,0,0,128,140Z"/></svg>