<svg id="Flat" xmlns="http://www.w3.org/2000/svg" viewBox="0 0 256 256">
  <path d="M226.24854,66.53589,218.958,62.32666a19.72781,19.72781,0,0,0,0-12.65332l7.29053-4.20923a4,4,0,0,0-4-6.92822l-7.30494,4.21753A19.98633,19.98633,0,0,0,204,36.40308V28a4,4,0,0,0-8,0v8.40308a19.98633,19.98633,0,0,0-10.9436,6.35034l-7.30494-4.21753a4,4,0,0,0-4,6.92822l7.29053,4.20923a19.72781,19.72781,0,0,0,0,12.65332l-7.29053,4.20923a4,4,0,1,0,4,6.92822l7.30494-4.21753A19.98633,19.98633,0,0,0,196,75.59692V84a4,4,0,0,0,8,0V75.59692a19.98633,19.98633,0,0,0,10.9436-6.35034l7.30494,4.21753a4,4,0,0,0,4-6.92822ZM200,68a12,12,0,1,1,12-12A12.01359,12.01359,0,0,1,200,68Zm22.84424,44.52832a3.99938,3.99938,0,0,0-3.49756,4.4458A93.35573,93.35573,0,0,1,220,128a91.7087,91.7087,0,0,1-26.82861,64.87207,75.61547,75.61547,0,0,0-44.50757-34.04053,44,44,0,1,0-41.32764,0,75.61635,75.61635,0,0,0-44.50757,34.04A91.95438,91.95438,0,0,1,128,36c2.84863,0,5.72217.13159,8.5415.39111a4,4,0,1,0,.7334-7.96631C134.21289,28.14258,131.09229,28,128,28A99.95585,99.95585,0,0,0,60.70972,201.90942a3.98219,3.98219,0,0,0,.84253.75147,99.794,99.794,0,0,0,132.897-.00122,3.974,3.974,0,0,0,.8396-.749A99.76287,99.76287,0,0,0,228,128a101.34533,101.34533,0,0,0-.71-11.97412A4.00339,4.00339,0,0,0,222.84424,112.52832ZM92,120a36,36,0,1,1,36,36A36.04078,36.04078,0,0,1,92,120ZM68.86475,198.417a68.011,68.011,0,0,1,118.27.00025,91.80354,91.80354,0,0,1-118.27-.00025Z"/>
</svg>
