<svg xmlns="http://www.w3.org/2000/svg" viewBox="0 0 256 256"><path d="M246.4,143.2a4.3,4.3,0,0,1-2.4.8,4.2,4.2,0,0,1-3.2-1.6A55.7,55.7,0,0,0,196,120a4,4,0,0,1,0-8,28,28,0,1,0-27.5-33.3,4,4,0,1,1-7.9-1.5,36,36,0,1,1,54.1,37.6,63,63,0,0,1,32.5,22.8A4,4,0,0,1,246.4,143.2Zm-57.2,71a4.1,4.1,0,0,1-1.9,5.4,3.3,3.3,0,0,1-1.7.4,4,4,0,0,1-3.6-2.2,60,60,0,0,0-108,0,3.9,3.9,0,0,1-5.3,1.8,4.1,4.1,0,0,1-1.9-5.4A68.3,68.3,0,0,1,107.7,179a44,44,0,1,1,40.6,0A68.3,68.3,0,0,1,189.2,214.2ZM128,176a36,36,0,1,0-36-36A36,36,0,0,0,128,176ZM60,112A28,28,0,1,1,87.5,78.7a4,4,0,1,0,7.9-1.5,36,36,0,1,0-54.1,37.6A63,63,0,0,0,8.8,137.6a4,4,0,0,0,.8,5.6,4.3,4.3,0,0,0,2.4.8,4.2,4.2,0,0,0,3.2-1.6A55.7,55.7,0,0,1,60,120a4,4,0,0,0,0-8Z"/></svg>