<svg id="Flat" xmlns="http://www.w3.org/2000/svg" viewBox="0 0 256 256">
  <path d="M133.2959,158.77777a63.99993,63.99993,0,1,0-50.5918.00006,115.83176,115.83176,0,0,0-63.55859,38.647,4.00006,4.00006,0,1,0,6.125,5.14649,108.00719,108.00719,0,0,1,165.45947,0,4.00006,4.00006,0,1,0,6.125-5.14649A115.83115,115.83115,0,0,0,133.2959,158.77777ZM52,100a56,56,0,1,1,56,56A56.06353,56.06353,0,0,1,52,100Zm194.24854,46.53613-7.29078-4.20941a19.7237,19.7237,0,0,0,0-12.65344l7.29078-4.20941a3.9998,3.9998,0,0,0-4-6.92774l-7.30494,4.21753A19.98489,19.98489,0,0,0,224,116.40314V108a4,4,0,0,0-8,0v8.40314a19.98489,19.98489,0,0,0-10.9436,6.35052l-7.30494-4.21753a3.9998,3.9998,0,0,0-4,6.92774l7.29078,4.20941a19.7237,19.7237,0,0,0,0,12.65344l-7.29078,4.20941a3.9998,3.9998,0,1,0,4,6.92774l7.30494-4.21753A19.98489,19.98489,0,0,0,216,155.59686V164a4,4,0,0,0,8,0v-8.40314a19.98489,19.98489,0,0,0,10.9436-6.35052l7.30494,4.21753a3.9998,3.9998,0,0,0,4-6.92774ZM220,148a12,12,0,1,1,12-12A12.01375,12.01375,0,0,1,220,148Z"/>
</svg>
