<svg xmlns="http://www.w3.org/2000/svg" viewBox="0 0 256 256"><path d="M111.1,159a56,56,0,1,0-46.2,0,92.2,92.2,0,0,0-52.2,36.1,4.1,4.1,0,0,0,1,5.6,3.9,3.9,0,0,0,2.3.7,4.2,4.2,0,0,0,3.3-1.7,84,84,0,0,1,137.4,0,4,4,0,1,0,6.6-4.6A92.2,92.2,0,0,0,111.1,159ZM40,108a48,48,0,1,1,48,48A48,48,0,0,1,40,108Zm203.8,92.7a4,4,0,0,1-5.5-1A84.3,84.3,0,0,0,169.5,164a4,4,0,0,1,0-8,48,48,0,0,0,0-96,47.4,47.4,0,0,0-13,1.8,4,4,0,0,1-4.9-2.8,4,4,0,0,1,2.7-4.9A56,56,0,0,1,192.7,159a92.3,92.3,0,0,1,52.1,36.1A4,4,0,0,1,243.8,200.7Z"/></svg>