<svg id="Flat" xmlns="http://www.w3.org/2000/svg" viewBox="0 0 256 256">
  <path d="M252,136a4.0002,4.0002,0,0,1-4,4H228v20a4,4,0,0,1-8,0V140H200a4,4,0,0,1,0-8h20V112a4,4,0,0,1,8,0v20h20A4.0002,4.0002,0,0,1,252,136Zm-55.145,61.42578a3.99975,3.99975,0,1,1-6.125,5.14551,108.00719,108.00719,0,0,0-165.45947,0,3.9999,3.9999,0,0,1-6.125-5.146A115.828,115.828,0,0,1,82.7041,158.77777a63.99993,63.99993,0,1,1,50.5918.00006A115.832,115.832,0,0,1,196.855,197.42578ZM108,156a56,56,0,1,0-56-56A56.06353,56.06353,0,0,0,108,156Z"/>
</svg>
