<svg xmlns="http://www.w3.org/2000/svg" viewBox="0 0 256 256"><path d="M172,56a4,4,0,0,1,4-4h20V32a4,4,0,0,1,8,0V52h20a4,4,0,0,1,0,8H204V80a4,4,0,0,1-8,0V60H176A4,4,0,0,1,172,56Zm54.8,56.2A104.1,104.1,0,0,1,228,128a99.6,99.6,0,0,1-32.7,73.9l-.8.8a99.9,99.9,0,0,1-132.9,0,3.6,3.6,0,0,1-.9-.8A100,100,0,0,1,128,28a104.1,104.1,0,0,1,15.8,1.2,4,4,0,0,1,3.3,4.6,4,4,0,0,1-4.6,3.3A100,100,0,0,0,128,36,92,92,0,0,0,62.8,192.9a75.8,75.8,0,0,1,44.5-34.1,44,44,0,1,1,41.4,0,75.8,75.8,0,0,1,44.5,34.1A92.1,92.1,0,0,0,220,128a99,99,0,0,0-1.1-14.5,4,4,0,0,1,3.3-4.6A4,4,0,0,1,226.8,112.2ZM128,156a36,36,0,1,0-36-36A36,36,0,0,0,128,156Zm0,64a91.3,91.3,0,0,0,59.1-21.6,68,68,0,0,0-118.2,0A91.3,91.3,0,0,0,128,220Z"/></svg>