<svg id="Flat" xmlns="http://www.w3.org/2000/svg" viewBox="0 0 256 256">
  <path d="M172,56a4.0002,4.0002,0,0,1,4-4h48a4,4,0,0,1,0,8H176A4.0002,4.0002,0,0,1,172,56Zm56.47461,157.98975a116.527,116.527,0,0,0-74.73389-55.06452A68.09682,68.09682,0,0,0,196,96a4,4,0,0,0-8,0,59.92867,59.92867,0,1,1-46.1416-58.39258,3.99991,3.99991,0,1,0,1.84082-7.78515,68.00013,68.00013,0,0,0-41.43994,129.103A116.52679,116.52679,0,0,0,27.52686,213.9873a4.00024,4.00024,0,1,0,6.9248,4.00684,108.03687,108.03687,0,0,1,187.09814.00147,4,4,0,0,0,6.92481-4.00586Z"/>
</svg>
