<svg id="Flat" xmlns="http://www.w3.org/2000/svg" viewBox="0 0 256 256">
  <path d="M220,48V76a4,4,0,0,1-8,0V48a4.00427,4.00427,0,0,0-4-4H180a4,4,0,0,1,0-8h28A12.01343,12.01343,0,0,1,220,48Zm-4,128a4.0002,4.0002,0,0,0-4,4v28a4.00427,4.00427,0,0,1-4,4H180a4,4,0,0,0,0,8h28a12.01343,12.01343,0,0,0,12-12V180A4.0002,4.0002,0,0,0,216,176ZM76,212H48a4.00427,4.00427,0,0,1-4-4V180a4,4,0,0,0-8,0v28a12.01343,12.01343,0,0,0,12,12H76a4,4,0,0,0,0-8ZM40,80a4.0002,4.0002,0,0,0,4-4V48a4.00427,4.00427,0,0,1,4-4H76a4,4,0,0,0,0-8H48A12.01343,12.01343,0,0,0,36,48V76A4.0002,4.0002,0,0,0,40,80Zm137.54346,97.86914a56.023,56.023,0,0,0-99.08692,0,3.99974,3.99974,0,1,1-7.07226-3.73828,63.9112,63.9112,0,0,1,37.95141-31.35718,36,36,0,1,1,37.32862,0,63.9112,63.9112,0,0,1,37.95141,31.35718,3.99974,3.99974,0,1,1-7.07226,3.73828ZM128,140a28,28,0,1,0-28-28A28.03146,28.03146,0,0,0,128,140Z"/>
</svg>
