<svg id="Flat" xmlns="http://www.w3.org/2000/svg" viewBox="0 0 256 256">
  <path d="M172,56a4.0002,4.0002,0,0,1,4-4h48a4,4,0,0,1,0,8H176A4.0002,4.0002,0,0,1,172,56Zm50.30908,38.667a100.0255,100.0255,0,0,1-27.02075,107.24414,3.97148,3.97148,0,0,1-.83813.74756,99.79345,99.79345,0,0,1-132.89795.00195,3.97186,3.97186,0,0,1-.84229-.751A99.95588,99.95588,0,0,1,128,28a101.07981,101.07981,0,0,1,15.76562,1.23633,4,4,0,1,1-1.252,7.90137A93.054,93.054,0,0,0,128,36,91.95438,91.95438,0,0,0,62.82861,192.87158a75.6171,75.6171,0,0,1,44.50782-34.04,44,44,0,1,1,41.32714,0,75.616,75.616,0,0,1,44.50782,34.04053A92.025,92.025,0,0,0,214.76611,97.333a4.00013,4.00013,0,0,1,7.543-2.666ZM128,156a36,36,0,1,0-36-36A36.04061,36.04061,0,0,0,128,156Zm0,64a91.58351,91.58351,0,0,0,59.135-21.583,68.01136,68.01136,0,0,0-118.27026,0A91.58413,91.58413,0,0,0,128,220Z"/>
</svg>
