<svg id="Flat" xmlns="http://www.w3.org/2000/svg" viewBox="0 0 256 256">
  <path d="M29.59473,123.19629a4,4,0,0,0,5.60058-.7959,56.0083,56.0083,0,0,1,89.60742-.002c.02344.03076.05274.053.07666.083a3.96225,3.96225,0,0,0,.33887.36767c.07959.07813.15869.15479.24414.2251.04688.03857.083.0852.13233.12207.09131.0686.18945.11963.28418.1792.05713.03564.11181.07446.16992.10693a3.97077,3.97077,0,0,0,.59668.27344c.01953.00684.03711.01709.05664.02368a3.97126,3.97126,0,0,0,.71875.17358c.03467.00489.06982.00391.10449.00806a4.0407,4.0407,0,0,0,.46875.03687c.03272,0,.06445-.01026.09717-.011a4.01382,4.01382,0,0,0,.63867-.07251c.06445-.01221.13037-.01367.19434-.02881a3.99451,3.99451,0,0,0,.812-.28735c.05273-.02564.09912-.06372.15137-.09155a4.02358,4.02358,0,0,0,.51611-.3125c.02539-.019.04346-.04346.06836-.063.07178-.05713.13525-.12549.20361-.188a3.97734,3.97734,0,0,0,.44092-.46094c.02441-.03027.05518-.051.07861-.082a56.0083,56.0083,0,0,1,89.60742-.002,4,4,0,1,0,6.39649-4.80469A63.58068,63.58068,0,0,0,194.69775,94.7522a36,36,0,1,0-37.3955,0A63.34185,63.34185,0,0,0,128,113.69482,63.34,63.34,0,0,0,98.69775,94.7522a36,36,0,1,0-37.3955,0,63.5829,63.5829,0,0,0-32.50342,22.8435A4.00032,4.00032,0,0,0,29.59473,123.19629ZM148,64a28,28,0,1,1,28,28A28.03146,28.03146,0,0,1,148,64ZM52,64A28,28,0,1,1,80,92,28.03146,28.03146,0,0,1,52,64ZM194.69775,198.7522a36,36,0,1,0-37.3955,0A63.34185,63.34185,0,0,0,128,217.69482,63.34,63.34,0,0,0,98.69775,198.7522a36,36,0,1,0-37.3955,0,63.5829,63.5829,0,0,0-32.50342,22.8435,4,4,0,1,0,6.39648,4.80469,56.0083,56.0083,0,0,1,89.60742-.00195c.02344.03076.05274.053.07666.083a3.96225,3.96225,0,0,0,.33887.36767c.07959.07788.15869.15479.24365.22485.04688.03882.0835.08545.13282.12232.09179.06885.19043.12012.28564.17993.05615.0354.11035.07349.168.10571a3.94083,3.94083,0,0,0,.60352.27637c.0166.0061.03222.01489.04931.02075a3.97746,3.97746,0,0,0,.72217.17407c.02978.0044.06055.00342.09082.00733a4.06583,4.06583,0,0,0,.48.0376c.03369,0,.06641-.0105.09961-.01123a3.98954,3.98954,0,0,0,.62354-.071c.06982-.01269.14013-.0144.209-.031a3.94991,3.94991,0,0,0,.80859-.28614c.05567-.02661.1045-.0664.15869-.0957a4.01175,4.01175,0,0,0,.51026-.30859c.02539-.01905.04346-.04346.06836-.063.07178-.05713.13525-.12549.20361-.188a3.97734,3.97734,0,0,0,.44092-.46094c.02441-.03027.05518-.051.07861-.082a56.0083,56.0083,0,0,1,89.60742-.00195,4,4,0,1,0,6.39649-4.80469A63.58068,63.58068,0,0,0,194.69775,198.7522ZM52,168a28,28,0,1,1,28,28A28.03146,28.03146,0,0,1,52,168Zm96,0a28,28,0,1,1,28,28A28.03146,28.03146,0,0,1,148,168Z"/>
</svg>
