<svg id="Flat" xmlns="http://www.w3.org/2000/svg" viewBox="0 0 256 256">
  <path d="M216,44H40A12.01375,12.01375,0,0,0,28,56V200a12.01375,12.01375,0,0,0,12,12H216a12.01375,12.01375,0,0,0,12-12V56A12.01375,12.01375,0,0,0,216,44ZM66.01855,204a68.02125,68.02125,0,0,1,123.9629,0ZM220,200a4.00458,4.00458,0,0,1-4,4H198.67188a76.16615,76.16615,0,0,0-50.05909-45.14258,44,44,0,1,0-41.22558,0A76.16615,76.16615,0,0,0,57.32812,204H40a4.00458,4.00458,0,0,1-4-4V56a4.00458,4.00458,0,0,1,4-4H216a4.00458,4.00458,0,0,1,4,4Zm-92-44a36,36,0,1,1,36-36A36.04061,36.04061,0,0,1,128,156Z"/>
</svg>
