<svg id="Flat" xmlns="http://www.w3.org/2000/svg" viewBox="0 0 256 256">
  <path d="M159.99951,36h-64a20.02229,20.02229,0,0,0-20,20V200a20.02229,20.02229,0,0,0,20,20h64a20.02229,20.02229,0,0,0,20-20V56A20.02229,20.02229,0,0,0,159.99951,36Zm12,164a12.01312,12.01312,0,0,1-12,12h-64a12.01312,12.01312,0,0,1-12-12V56a12.01312,12.01312,0,0,1,12-12h64a12.01312,12.01312,0,0,1,12,12ZM212.00244,88v80a4,4,0,0,1-8,0V88a4,4,0,1,1,8,0Zm32,16v48a4,4,0,0,1-8,0V104a4,4,0,1,1,8,0ZM51.99951,88v80a4,4,0,0,1-8,0V88a4,4,0,0,1,8,0Zm-32,16v48a4,4,0,0,1-8,0V104a4,4,0,0,1,8,0Z"/>
</svg>
