<svg xmlns="http://www.w3.org/2000/svg" viewBox="0 0 256 256"><path d="M242,76.5a4.1,4.1,0,0,0-4,0l-50,28.6V68a12,12,0,0,0-12-12H110.9a4,4,0,0,0,0,8H176a4,4,0,0,1,4,4v76a4.2,4.2,0,0,0,2,3.5l56,32a4.3,4.3,0,0,0,4,0,4.3,4.3,0,0,0,2-3.5V80A4.3,4.3,0,0,0,242,76.5Zm-6,92.6-48-27.4V114.3l48-27.4ZM37.9,21.3a4,4,0,0,0-6,5.4L58.6,56H24A12,12,0,0,0,12,68V188a12,12,0,0,0,12,12H176a12.2,12.2,0,0,0,9.4-4.5L221,234.7a4.1,4.1,0,0,0,5.7.3,4.2,4.2,0,0,0,.3-5.7ZM176,192H24a4,4,0,0,1-4-4V68a4,4,0,0,1,4-4H65.9L179.8,189.3A4,4,0,0,1,176,192Z"/></svg>