<svg id="Flat" xmlns="http://www.w3.org/2000/svg" viewBox="0 0 256 256">
  <path d="M242.00781,76.54a3.99817,3.99817,0,0,0-3.99219-.0127L188,105.10767V92a36.04061,36.04061,0,0,0-36-36H24A12.01312,12.01312,0,0,0,12,68v96a36.04061,36.04061,0,0,0,36,36H176a12.01312,12.01312,0,0,0,12-12V150.89233l50.01562,28.58033A3.99931,3.99931,0,0,0,244,176V80A4.00041,4.00041,0,0,0,242.00781,76.54ZM180,188a4.004,4.004,0,0,1-4,4H48a28.03146,28.03146,0,0,1-28-28V68a4.004,4.004,0,0,1,4-4H152a28.03146,28.03146,0,0,1,28,28Zm56-18.89258L188,141.6792V114.3208l48-27.42822Z"/>
</svg>
