<svg id="Flat" xmlns="http://www.w3.org/2000/svg" viewBox="0 0 256 256">
  <path d="M242.00781,76.54a4.00053,4.00053,0,0,0-3.99219-.0127L188,105.10791V92a36.04061,36.04061,0,0,0-36-36H110.88281a4,4,0,0,0,0,8H152a28.03146,28.03146,0,0,1,28,28v52a3.98962,3.98962,0,0,0,.07178.71191c.011.06153.023.12159.03686.18213a4.00925,4.00925,0,0,0,.202.65088c.00891.021.02087.04.03015.06055a3.99756,3.99756,0,0,0,.29663.54687c.03369.05225.06751.10352.10339.15381a3.97539,3.97539,0,0,0,.423.5127l.00976.01123a4.05665,4.05665,0,0,0,.52.4292c.05371.03808.1084.07324.16394.1084.05359.03418.10267.07324.15808.105l56,32A3.99931,3.99931,0,0,0,244,176V80A4.00041,4.00041,0,0,0,242.00781,76.54ZM236,169.10742l-48-27.42871V114.32129l48-27.42871ZM37.86914,21.30957a4,4,0,1,0-5.91992,5.38086L58.59424,56H24A12.01312,12.01312,0,0,0,12,68v96a36.04061,36.04061,0,0,0,36,36H176a11.97547,11.97547,0,0,0,9.37976-4.53613L221.04,234.69043a4,4,0,1,0,5.91992-5.38086ZM176,192H48a28.03146,28.03146,0,0,1-28-28V68a4.004,4.004,0,0,1,4-4H65.86694L179.76758,189.291A3.992,3.992,0,0,1,176,192Z"/>
</svg>
