<svg xmlns="http://www.w3.org/2000/svg" viewBox="0 0 256 256"><path d="M220.2,166.7a102.9,102.9,0,0,0,7.8-38.4v-.5A100,100,0,1,0,41.4,178a99,99,0,0,0,6.3,9.6l.5.7a99.4,99.4,0,0,0,53.9,36.3,101.1,101.1,0,0,0,26.1,3.4,99.9,99.9,0,0,0,91.4-60A5.2,5.2,0,0,0,220.2,166.7ZM85.5,46.4a89.9,89.9,0,0,1,30.4-9.6A92.1,92.1,0,0,1,169.3,124h-39ZM130.3,132h89.6a93.1,93.1,0,0,1-7,31.2,92,92,0,0,1-102.1,2.6Zm77.4-50a92.4,92.4,0,0,1,12.2,42H177.3a99.9,99.9,0,0,0-46.1-88,96.8,96.8,0,0,1,20.6,3.1A91.7,91.7,0,0,1,207.7,82ZM78.6,50.4,99.9,87.3a100,100,0,0,0-53.2,83.8A92.2,92.2,0,0,1,78.6,50.4ZM55,184a92.3,92.3,0,0,1,48.9-89.8L123.4,128,78.6,205.6A89.9,89.9,0,0,1,55,184Zm119,23.7a91.8,91.8,0,0,1-88.5,1.9l21.3-36.9A99.5,99.5,0,0,0,160,188a98.2,98.2,0,0,0,45.9-11.2A90.9,90.9,0,0,1,174,207.7Z"/></svg>