<svg id="Flat" xmlns="http://www.w3.org/2000/svg" viewBox="0 0 256 256">
  <path d="M220.15063,166.72021a100.76054,100.76054,0,0,0,7.82349-38.46484c.00562-.08594.02588-.168.02588-.25537,0-.07031-.01709-.13623-.02075-.20605A99.99132,99.99132,0,1,0,41.39746,178a101.58617,101.58617,0,0,0,6.29736,9.57031,3.97,3.97,0,0,0,.54639.7251,99.22587,99.22587,0,0,0,53.877,36.29736,100.54636,100.54636,0,0,0,26.04444,3.4502,100.02625,100.02625,0,0,0,91.46094-60.084A3.973,3.973,0,0,0,220.15063,166.72021ZM85.51172,46.4082a91.63559,91.63559,0,0,1,30.377-9.65722A92.00991,92.00991,0,0,1,169.2937,124H130.30908ZM130.30908,132h89.57715a92.74392,92.74392,0,0,1-6.946,31.23242,92.00745,92.00745,0,0,1-102.12305,2.52881ZM207.6748,82a91.42759,91.42759,0,0,1,12.22071,42H177.29492a100.0811,100.0811,0,0,0-46.0498-87.9707,92.76933,92.76933,0,0,1,20.5664,3.10547A91.39891,91.39891,0,0,1,207.6748,82ZM78.58228,50.40527l21.30639,36.9043a100.08152,100.08152,0,0,0-53.158,83.79736A92.1155,92.1155,0,0,1,78.58228,50.40527ZM55.02246,184.00391a92.00894,92.00894,0,0,1,48.8667-89.76563L123.38135,128,78.56592,205.62305A91.05258,91.05258,0,0,1,55.02246,184.00391ZM174,207.67432a91.39821,91.39821,0,0,1-69.81152,9.19091,92.73884,92.73884,0,0,1-18.68384-7.26171l21.31177-36.91309a100.08625,100.08625,0,0,0,99.12671,4.1499A91.42978,91.42978,0,0,1,174,207.67432Z"/>
</svg>
