<svg id="Flat" xmlns="http://www.w3.org/2000/svg" viewBox="0 0 256 256">
  <path d="M124,136.00012v-56a4,4,0,1,1,8,0v56a4,4,0,1,1-8,0ZM228,91.54944V164.4508a11.92372,11.92372,0,0,1-3.51367,8.48487l-51.55078,51.5498a11.91979,11.91979,0,0,1-8.48438,3.51465H91.54883a11.92213,11.92213,0,0,1-8.48535-3.51514L31.51465,172.93616A11.92257,11.92257,0,0,1,28,164.4508V91.54944a11.92483,11.92483,0,0,1,3.51367-8.48535L83.06445,31.51477a11.9178,11.9178,0,0,1,8.48438-3.51465h72.90234a11.9217,11.9217,0,0,1,8.48535,3.51465l51.54883,51.54932A11.9217,11.9217,0,0,1,228,91.54944Zm-8,0a3.97408,3.97408,0,0,0-1.17188-2.8291L167.2793,37.17151a4.028,4.028,0,0,0-2.82813-1.17139H91.54883a4.02393,4.02393,0,0,0-2.82715,1.17139L37.1709,88.72082A3.97528,3.97528,0,0,0,36,91.54944V164.4508a3.973,3.973,0,0,0,1.17187,2.82862L88.7207,218.82825a4.02842,4.02842,0,0,0,2.82813,1.17187h72.90234a4.026,4.026,0,0,0,2.82715-1.17139l51.55078-51.5498A3.97413,3.97413,0,0,0,220,164.4508Zm-92,72.45068a8,8,0,1,0,8,8A8.00885,8.00885,0,0,0,128,164.00012Z"/>
</svg>
