<svg xmlns="http://www.w3.org/2000/svg" viewBox="0 0 256 256"><path d="M204,128a76.1,76.1,0,0,0-32.3-62.2l-6.6-35.9A11.9,11.9,0,0,0,153.3,20H102.7a11.9,11.9,0,0,0-11.8,9.9L84.3,65.8a76,76,0,0,0,0,124.4l6.6,35.9a11.9,11.9,0,0,0,11.8,9.9h50.6a11.9,11.9,0,0,0,11.8-9.9l6.6-35.9A76.1,76.1,0,0,0,204,128ZM98.7,31.3a4.1,4.1,0,0,1,4-3.3h50.6a4.1,4.1,0,0,1,4,3.3l5.2,29a75.9,75.9,0,0,0-69,0Zm58.6,193.4a4.1,4.1,0,0,1-4,3.3H102.7a4.1,4.1,0,0,1-4-3.3l-5.2-29a75.9,75.9,0,0,0,69,0ZM128,196a68,68,0,1,1,68-68A68.1,68.1,0,0,1,128,196Zm44-68a4,4,0,0,1-4,4H128a4,4,0,0,1-4-4V88a4,4,0,0,1,8,0v36h36A4,4,0,0,1,172,128Z"/></svg>