<svg xmlns="http://www.w3.org/2000/svg" viewBox="0 0 256 256"><path d="M36.9,74.5a4,4,0,0,1,.6-5.6c.4-.4,10.9-8.6,27.5-12.8s39.2-4.8,65.2,12.6c18.8,12.5,38.5,16.4,58.5,11.5a72.4,72.4,0,0,0,24.8-11.3,4,4,0,0,1,5,6.2c-.4.4-10.9,8.6-27.5,12.8a79,79,0,0,1-18.7,2.3c-13.4,0-29.5-3.5-46.5-14.9C107,62.8,87.3,58.9,67.3,63.8A72.4,72.4,0,0,0,42.5,75.1,4,4,0,0,1,36.9,74.5Zm176.6,50.4a72.4,72.4,0,0,1-24.8,11.3c-20,4.9-39.7,1-58.5-11.5-26-17.4-49.8-16.4-65.2-12.6s-27.1,12.4-27.5,12.8a4,4,0,1,0,5,6.2,72.4,72.4,0,0,1,24.8-11.3c20-4.9,39.7-1,58.5,11.5,17,11.4,33.1,14.9,46.5,14.9a79,79,0,0,0,18.7-2.3c16.6-4.2,27.1-12.4,27.5-12.8a4,4,0,0,0-5-6.2Zm0,56a72.4,72.4,0,0,1-24.8,11.3c-20,4.9-39.7,1-58.5-11.5-26-17.4-49.8-16.4-65.2-12.6s-27.1,12.4-27.5,12.8a4,4,0,0,0,5,6.2,72.4,72.4,0,0,1,24.8-11.3c20-4.9,39.7-1,58.5,11.5,17,11.4,33.1,14.9,46.5,14.9a79,79,0,0,0,18.7-2.3c16.6-4.2,27.1-12.4,27.5-12.8a4,4,0,0,0-5-6.2Z"/></svg>