<svg id="Flat" xmlns="http://www.w3.org/2000/svg" viewBox="0 0 256 256">
  <path d="M36.875,74.49023a3.99582,3.99582,0,0,1,.626-5.61328A77.36856,77.36856,0,0,1,65.02979,56.11914c15.38134-3.84375,39.17675-4.78906,65.189,12.55274,18.82227,12.54785,38.5,16.42773,58.48682,11.52734a70.77906,70.77906,0,0,0,24.80175-11.32715,3.99975,3.99975,0,0,1,4.9917,6.251,77.36856,77.36856,0,0,1-27.52881,12.75781,77.24806,77.24806,0,0,1-18.71533,2.31152c-13.38574.001-29.4541-3.51758-46.47363-14.86426C106.959,62.7793,87.28076,58.89941,67.29443,63.80078A70.77906,70.77906,0,0,0,42.49268,75.12793,4.00386,4.00386,0,0,1,36.875,74.49023Zm176.63232,50.38184a70.77906,70.77906,0,0,1-24.80175,11.32715c-19.98682,4.89941-39.66455,1.02051-58.48682-11.52734-26.01221-17.34083-49.80762-16.39649-65.189-12.55274A77.36856,77.36856,0,0,0,37.501,124.877a3.99975,3.99975,0,0,0,4.9917,6.251,70.77906,70.77906,0,0,1,24.80175-11.32715c19.98633-4.90234,39.66455-1.02051,58.48682,11.52734,17.01953,11.34668,33.08789,14.86524,46.47363,14.86426A79.44972,79.44972,0,0,0,218.499,131.12305a3.99975,3.99975,0,0,0-4.9917-6.251Zm0,56a70.77906,70.77906,0,0,1-24.80175,11.32715c-19.98682,4.89941-39.66455,1.01953-58.48682-11.52734-26.01221-17.34083-49.80762-16.39649-65.189-12.55274A77.36856,77.36856,0,0,0,37.501,180.877a3.99975,3.99975,0,0,0,4.9917,6.251,70.77906,70.77906,0,0,1,24.80175-11.32715c19.98633-4.90332,39.66455-1.02051,58.48682,11.52734,17.01953,11.34668,33.08789,14.86524,46.47363,14.86426A79.44972,79.44972,0,0,0,218.499,187.12305a3.99975,3.99975,0,0,0-4.9917-6.251Z"/>
</svg>
