<svg id="Flat" xmlns="http://www.w3.org/2000/svg" viewBox="0 0 256 256">
  <path d="M243.68237,186.73486a4.00409,4.00409,0,0,0-5.05957-2.52978l-20.709,6.90332-30.44825-60.89746A4.00138,4.00138,0,0,0,183.88745,128h-84V100.14819c1.32373-.08764,2.65454-.14819,4-.14819h56a4,4,0,0,0,0-8h-56c-1.34363,0-2.67529.05-4,.12726v-28.467a24,24,0,1,0-8,0V93.08191a67.99342,67.99342,0,1,0,79.86914,71.16418,3.99977,3.99977,0,1,0-7.98438-.49218,60.00127,60.00127,0,1,1-71.88476-62.54645V132a4.0002,4.0002,0,0,0,4,4h85.52832l30.89355,61.78906a3.99886,3.99886,0,0,0,4.84278,2.00586l24-8A4.00092,4.00092,0,0,0,243.68237,186.73486ZM79.88745,40a16,16,0,1,1,16,16A16.01833,16.01833,0,0,1,79.88745,40Z"/>
</svg>
