<svg xmlns="http://www.w3.org/2000/svg" viewBox="0 0 256 256"><path d="M165.8,163.2a3.9,3.9,0,0,1,.1,5.6,3.5,3.5,0,0,1-2.8,1.3,3.9,3.9,0,0,1-2.8-1.2,46.9,46.9,0,0,0-64.6,0,4,4,0,0,1-5.7-.1,4,4,0,0,1,.1-5.6,54.7,54.7,0,0,1,75.7,0ZM205.7,80l21.1-21.2a4,4,0,1,0-5.6-5.6L200,74.3,178.8,53.2a4,4,0,0,0-5.6,5.6L194.3,80l-21.1,21.2a3.9,3.9,0,0,0,0,5.6,3.9,3.9,0,0,0,5.6,0L200,85.7l21.2,21.1a3.9,3.9,0,0,0,5.6,0,3.9,3.9,0,0,0,0-5.6ZM143.6,60.8a3.9,3.9,0,0,0,4.4-3.5,4,4,0,0,0-3.6-4.4A150.6,150.6,0,0,0,22.3,95.3a4.1,4.1,0,0,0-.1,5.7,4,4,0,0,0,2.9,1.2,3.9,3.9,0,0,0,2.8-1.2A141.6,141.6,0,0,1,128,60C133.2,60,138.4,60.3,143.6,60.8Zm-.2,48.4a4,4,0,0,0,4.6-3.3,4.2,4.2,0,0,0-3.3-4.6A116.3,116.3,0,0,0,128,100a101.7,101.7,0,0,0-71.8,29.3,4,4,0,0,0-.1,5.6,4,4,0,0,0,2.9,1.2,4.3,4.3,0,0,0,2.8-1.1A93.8,93.8,0,0,1,128,108,98.9,98.9,0,0,1,143.4,109.2ZM128,192a8,8,0,1,0,8,8A8,8,0,0,0,128,192Z"/></svg>