<svg id="Flat" xmlns="http://www.w3.org/2000/svg" viewBox="0 0 256 256">
  <path d="M165.84619,163.1875a3.99976,3.99976,0,1,1-5.56348,5.74805,46.77825,46.77825,0,0,0-64.581,0,3.99976,3.99976,0,1,1-5.56348-5.74805,54.7759,54.7759,0,0,1,75.708,0ZM205.65674,80l21.17187-21.17188a3.99991,3.99991,0,0,0-5.65722-5.65624L200,74.34326,178.82861,53.17188a3.99991,3.99991,0,0,0-5.65722,5.65624L194.34326,80l-21.17187,21.17188a3.99991,3.99991,0,1,0,5.65722,5.65624L200,85.65674l21.17139,21.17138a3.99991,3.99991,0,0,0,5.65722-5.65624ZM143.57666,60.84082a3.99981,3.99981,0,1,0,.86133-7.95312,153.42357,153.42357,0,0,0-16.4458-.88477A149.38444,149.38444,0,0,0,22.251,95.33594a4,4,0,1,0,5.626,5.6875A141.43412,141.43412,0,0,1,127.99219,60.00293,145.4935,145.4935,0,0,1,143.57666,60.84082Zm-.19629,48.39844a4,4,0,0,0,1.2832-7.89649,104.281,104.281,0,0,0-16.67138-1.33984,101.7611,101.7611,0,0,0-71.81885,29.2666,4.00005,4.00005,0,0,0,5.61035,5.70313,93.80729,93.80729,0,0,1,66.2085-26.96973A96.21649,96.21649,0,0,1,143.38037,109.23926ZM128,192a8,8,0,1,0,8,8A8.00917,8.00917,0,0,0,128,192Z"/>
</svg>
