<svg xmlns="http://www.w3.org/2000/svg" viewBox="0 0 256 256"><path d="M165.9,163.2a4,4,0,0,1,0,5.6,3.5,3.5,0,0,1-2.8,1.3,3.9,3.9,0,0,1-2.8-1.2,46.9,46.9,0,0,0-64.6,0,3.9,3.9,0,0,1-5.6-.1,4,4,0,0,1,0-5.6,54.9,54.9,0,0,1,75.8,0ZM128,100a101.7,101.7,0,0,0-71.8,29.3,4,4,0,0,0-.1,5.6,4.1,4.1,0,0,0,5.7.1,94.7,94.7,0,0,1,132.4,0,4.3,4.3,0,0,0,2.8,1.1,4.2,4.2,0,0,0,2.9-1.2,4,4,0,0,0-.1-5.6A101.7,101.7,0,0,0,128,100Zm105.7-4.7a150.7,150.7,0,0,0-211.4,0,4.1,4.1,0,0,0-.1,5.7,4,4,0,0,0,5.7,0,142.7,142.7,0,0,1,200.2,0,3.9,3.9,0,0,0,2.8,1.2,4,4,0,0,0,2.9-1.2A4.1,4.1,0,0,0,233.7,95.3ZM128,192a8,8,0,1,0,8,8A8,8,0,0,0,128,192Z"/></svg>