<svg id="Flat" xmlns="http://www.w3.org/2000/svg" viewBox="0 0 256 256">
  <path d="M210.9541,213.30957a4,4,0,1,1-5.91992,5.38086l-47.29712-52.02686a46.80889,46.80889,0,0,0-62.04126,2.272,3.99976,3.99976,0,1,1-5.56348-5.74805,54.09681,54.09681,0,0,1,37.854-15.18457,55.144,55.144,0,0,1,14.57275,1.96509l-35.94726-39.54224a93.65267,93.65267,0,0,0-44.834,24.54688,4.00005,4.00005,0,0,1-5.61035-5.70313,101.602,101.602,0,0,1,44.33984-25.55859L71.36621,71.65576a141.09524,141.09524,0,0,0-43.49512,29.36768,4,4,0,1,1-5.626-5.6875A148.99232,148.99232,0,0,1,65.698,65.42065L45.03418,42.69043a4,4,0,1,1,5.91992-5.38086ZM233.72754,95.33594a149.38445,149.38445,0,0,0-105.74121-43.333A152.90363,152.90363,0,0,0,106.562,53.51074a3.99964,3.99964,0,1,0,1.124,7.91992,145.037,145.037,0,0,1,20.3003-1.42773,141.43408,141.43408,0,0,1,100.11523,41.02051,4,4,0,1,0,5.626-5.6875Zm-39.53272,39.63672a4.00006,4.00006,0,0,0,5.61036-5.70313,101.93823,101.93823,0,0,0-46.72071-26.19141,4.00042,4.00042,0,0,0-1.9414,7.76172A93.923,93.923,0,0,1,194.19482,134.97266ZM127.98828,192a8,8,0,1,0,8,8A8.00917,8.00917,0,0,0,127.98828,192Z"/>
</svg>
