<svg id="Flat" xmlns="http://www.w3.org/2000/svg" viewBox="0 0 256 256">
  <path d="M133.98633,200.00293a6,6,0,1,1-6-6A6,6,0,0,1,133.98633,200.00293ZM50.9541,37.30957a4,4,0,1,0-5.91992,5.38086L65.698,65.42065A148.99232,148.99232,0,0,0,22.24512,95.33594a4,4,0,1,0,5.626,5.6875A141.09524,141.09524,0,0,1,71.36621,71.65576l29.14111,32.05518a101.602,101.602,0,0,0-44.33984,25.55859,4.00005,4.00005,0,0,0,5.61035,5.70313,93.65267,93.65267,0,0,1,44.834-24.54688L142.55908,149.968a55.144,55.144,0,0,0-14.57275-1.96509,54.09681,54.09681,0,0,0-37.854,15.18457,3.99976,3.99976,0,1,0,5.56348,5.74805,46.80889,46.80889,0,0,1,62.04126-2.272l47.29712,52.02686a4,4,0,1,0,5.91992-5.38086ZM233.72754,95.33594a149.38445,149.38445,0,0,0-105.74121-43.333A152.90363,152.90363,0,0,0,106.562,53.51074a3.99964,3.99964,0,1,0,1.124,7.91992,145.037,145.037,0,0,1,20.3003-1.42773,141.43408,141.43408,0,0,1,100.11523,41.02051,4,4,0,1,0,5.626-5.6875Zm-39.53272,39.63672a4.00006,4.00006,0,0,0,5.61036-5.70313,101.93823,101.93823,0,0,0-46.72071-26.19141,4.00042,4.00042,0,0,0-1.9414,7.76172A93.923,93.923,0,0,1,194.19482,134.97266Z"/>
</svg>
