<svg id="Flat" xmlns="http://www.w3.org/2000/svg" viewBox="0 0 256 256">
  <path d="M133.99219,200.00287a6,6,0,1,1-6-6A6,6,0,0,1,133.99219,200.00287Zm-6-51.99994a54.09764,54.09764,0,0,0-37.854,15.18458,4.00011,4.00011,0,1,0,5.56348,5.749,46.77571,46.77571,0,0,1,64.58105,0,4.00011,4.00011,0,1,0,5.56348-5.749A54.0976,54.0976,0,0,0,127.99219,148.00293ZM199.811,129.269a102.75456,102.75456,0,0,0-143.6377,0,4.00005,4.00005,0,1,0,5.61035,5.70313,94.75433,94.75433,0,0,1,132.417,0A4.00006,4.00006,0,0,0,199.811,129.269Z"/>
</svg>
