<svg id="Flat" xmlns="http://www.w3.org/2000/svg" viewBox="0 0 256 256">
  <path d="M133.99219,200.00287a6,6,0,1,1-6-6A6,6,0,0,1,133.99219,200.00287Zm-6-51.99994a54.09853,54.09853,0,0,0-37.854,15.18457,3.99976,3.99976,0,1,0,5.56348,5.74805,46.77825,46.77825,0,0,1,64.58105,0,3.99976,3.99976,0,1,0,5.56348-5.74805A54.09849,54.09849,0,0,0,127.99219,148.00293Zm0-48A101.76273,101.76273,0,0,0,56.17334,129.269a4.00005,4.00005,0,1,0,5.61035,5.70313,94.75433,94.75433,0,0,1,132.417,0A4.00006,4.00006,0,0,0,199.811,129.269,101.76276,101.76276,0,0,0,127.99219,100.00293Zm105.74121-4.667a150.68135,150.68135,0,0,0-211.48242,0,4,4,0,1,0,5.626,5.6875,142.68158,142.68158,0,0,1,200.23047,0,4,4,0,1,0,5.626-5.6875Z"/>
</svg>
