<svg id="Flat" xmlns="http://www.w3.org/2000/svg" viewBox="0 0 256 256">
  <path d="M133.99219,200.00293a6,6,0,1,1-6-6A6,6,0,0,1,133.99219,200.00293Zm-6-52a54.09681,54.09681,0,0,0-37.854,15.18457,3.99976,3.99976,0,1,0,5.56348,5.74805,46.77825,46.77825,0,0,1,64.58105,0,3.99976,3.99976,0,1,0,5.56348-5.74805A54.09677,54.09677,0,0,0,127.99219,148.00293ZM205.65088,80l21.17187-21.17188a3.99991,3.99991,0,1,0-5.65722-5.65624L199.99414,74.34326,178.82275,53.17188a3.99991,3.99991,0,0,0-5.65722,5.65624L194.3374,80l-21.17187,21.17188a3.99991,3.99991,0,1,0,5.65722,5.65624l21.17139-21.17138,21.17139,21.17138a3.99991,3.99991,0,1,0,5.65722-5.65624ZM143.57666,60.84082a3.99981,3.99981,0,1,0,.86133-7.95312,153.42357,153.42357,0,0,0-16.4458-.88477A149.38444,149.38444,0,0,0,22.251,95.33594a4,4,0,1,0,5.626,5.6875A141.43412,141.43412,0,0,1,127.99219,60.00293,145.4935,145.4935,0,0,1,143.57666,60.84082Zm-.19629,48.39844a4,4,0,0,0,1.2832-7.89649,104.281,104.281,0,0,0-16.67138-1.33984,101.7611,101.7611,0,0,0-71.81885,29.2666,4.00005,4.00005,0,0,0,5.61035,5.70313,93.80729,93.80729,0,0,1,66.2085-26.96973A96.21649,96.21649,0,0,1,143.38037,109.23926Z"/>
</svg>
