<svg xmlns="http://www.w3.org/2000/svg" viewBox="0 0 256 256"><path d="M211,213.3a4.1,4.1,0,0,1-.3,5.7,4.1,4.1,0,0,1-5.7-.3l-47.3-52a46.7,46.7,0,0,0-62,2.2,3.9,3.9,0,0,1-2.8,1.2,3.5,3.5,0,0,1-2.8-1.3,4,4,0,0,1,0-5.6A54.7,54.7,0,0,1,142.6,150l-36-39.6A94,94,0,0,0,61.8,135a4.3,4.3,0,0,1-2.8,1.1,4,4,0,0,1-2.9-1.2,4,4,0,0,1,.1-5.6,101.6,101.6,0,0,1,44.3-25.6l-29.1-32A139.6,139.6,0,0,0,27.9,101a3.9,3.9,0,0,1-2.8,1.2,4,4,0,0,1-2.9-1.2,4.1,4.1,0,0,1,.1-5.7A147.6,147.6,0,0,1,65.7,65.4L45,42.7a4,4,0,1,1,6-5.4Zm22.7-118A149.4,149.4,0,0,0,128,52a151.8,151.8,0,0,0-21.4,1.5,4,4,0,0,0,1.1,7.9A152.7,152.7,0,0,1,128,60a141.6,141.6,0,0,1,100.1,41,3.9,3.9,0,0,0,2.8,1.2,4,4,0,0,0,2.9-1.2A4.1,4.1,0,0,0,233.7,95.3ZM194.2,135a4.3,4.3,0,0,0,2.8,1.1,4.2,4.2,0,0,0,2.9-1.2,4,4,0,0,0-.1-5.6,101.1,101.1,0,0,0-46.7-26.2,4,4,0,1,0-1.9,7.7A93.7,93.7,0,0,1,194.2,135ZM128,192a8,8,0,1,0,8,8A8,8,0,0,0,128,192Z"/></svg>