<svg id="Flat" xmlns="http://www.w3.org/2000/svg" viewBox="0 0 256 256">
  <path d="M216,140H136a4.0002,4.0002,0,0,0-4,4v57.45459a4.00022,4.00022,0,0,0,3.28467,3.93555l80,14.54541A3.99966,3.99966,0,0,0,220,216V144A4.0002,4.0002,0,0,0,216,140Zm-4,71.207-72-13.09082V148h72ZM104,140H40a4.0002,4.0002,0,0,0-4,4v40a3.99983,3.99983,0,0,0,3.28467,3.93555l64,11.63672A4.00033,4.00033,0,0,0,108,195.63674V144A4.0002,4.0002,0,0,0,104,140Zm-4,50.84375L44,180.66164V148h56Zm118.563-153.915a4.00023,4.00023,0,0,0-3.27832-.86426l-80,14.54541A4.00024,4.00024,0,0,0,132,54.54543V112a4.0002,4.0002,0,0,0,4,4h80a4.0002,4.0002,0,0,0,4-4V40A4.001,4.001,0,0,0,218.563,36.92873ZM212,108H140V57.88381L212,44.793ZM103.28467,56.42776l-64,11.63671A3.99985,3.99985,0,0,0,36,72v40a4.0002,4.0002,0,0,0,4,4h64a4.0002,4.0002,0,0,0,4-4V60.3633a4.00031,4.00031,0,0,0-4.71533-3.93554ZM100,108H44V75.3384l56-10.18213Z"/>
</svg>
