<svg xmlns="http://www.w3.org/2000/svg" viewBox="0 0 256 256"><path d="M216,140H136a4,4,0,0,0-4,4v57.5a4,4,0,0,0,3.3,3.9l80,14.5h.7a4.3,4.3,0,0,0,2.6-.9A4.1,4.1,0,0,0,220,216V144A4,4,0,0,0,216,140Zm-4,71.2-72-13.1V148h72ZM104,140H40a4,4,0,0,0-4,4v40a4,4,0,0,0,3.3,3.9l64,11.7h.7a4.3,4.3,0,0,0,2.6-.9,4.1,4.1,0,0,0,1.4-3.1V144A4,4,0,0,0,104,140Zm-4,50.8L44,180.7V148h56ZM218.6,36.9a4.2,4.2,0,0,0-3.3-.8l-80,14.5a4,4,0,0,0-3.3,3.9V112a4,4,0,0,0,4,4h80a4,4,0,0,0,4-4V40A4.1,4.1,0,0,0,218.6,36.9ZM212,108H140V57.9l72-13.1ZM103.3,56.4l-64,11.7A4,4,0,0,0,36,72v40a4,4,0,0,0,4,4h64a4,4,0,0,0,4-4V60.4a4.1,4.1,0,0,0-1.4-3.1A3.9,3.9,0,0,0,103.3,56.4ZM100,108H44V75.3l56-10.1Z"/></svg>