<svg id="Flat" xmlns="http://www.w3.org/2000/svg" viewBox="0 0 256 256">
  <path d="M205.89453,111.14551l-26.0581-88.27783A3.99994,3.99994,0,0,0,176,20H80a3.99994,3.99994,0,0,0-3.83643,2.86768L50.10547,111.146a27.98661,27.98661,0,0,0,1.33008,19.45459A84.21114,84.21114,0,0,0,124,179.89258V228H88a4,4,0,0,0,0,8h80a4,4,0,0,0,0-8H132V179.89258a84.21063,84.21063,0,0,0,72.56445-49.293A27.97945,27.97945,0,0,0,205.89453,111.14551ZM82.98975,28h90.0205l22.64014,76.7002c-10.395,5.21923-33.25684,12.02441-65.86133-4.27784C100.19189,85.62354,77.64355,88.2207,63.75391,93.1665Zm114.28662,99.30127a76.03356,76.03356,0,0,1-138.55274.00049,19.9831,19.9831,0,0,1-.94531-13.89112L60.833,103.062c11.28174-5.53027,33.66406-11.34082,65.37793,4.51563,16.61133,8.30566,31.03027,11.08154,42.89111,11.08105a67.56546,67.56546,0,0,0,28.84229-6.1875l.27734.939A19.98014,19.98014,0,0,1,197.27637,127.30127Z"/>
</svg>
