<svg xmlns="http://www.w3.org/2000/svg" viewBox="0 0 256 256"><path d="M222.6,69.4a3.5,3.5,0,0,0-2.3-2.1,4,4,0,0,0-3.2.1l-1,.8-40.4,40.4-23.6-4.7-4.7-23.6,40.4-40.4.8-1a4,4,0,0,0,.1-3.2,3.5,3.5,0,0,0-2.1-2.3,67.7,67.7,0,0,0-74.7,14.5A68.4,68.4,0,0,0,99,126L36.4,180l-.2.2a28.1,28.1,0,0,0,0,39.6,28,28,0,0,0,39.6,0l.2-.2,54-62.5a68.6,68.6,0,0,0,78.1-13A67.7,67.7,0,0,0,222.6,69.4Zm-20.2,69a60.1,60.1,0,0,1-71.3,10.2,4,4,0,0,0-5.1.8L70,214.2A19.9,19.9,0,0,1,41.8,186l64.8-56a4.1,4.1,0,0,0,.9-5,60.2,60.2,0,0,1,10.1-71.4,59.5,59.5,0,0,1,60.1-14.9L140.2,76.2a4,4,0,0,0-1.1,3.6l5.7,28.3a3.8,3.8,0,0,0,3.1,3.1l28.3,5.7a4,4,0,0,0,3.6-1.1l37.5-37.5A59.5,59.5,0,0,1,202.4,138.4Z"/></svg>