<svg id="Flat" xmlns="http://www.w3.org/2000/svg" viewBox="0 0 256 256">
  <path d="M222.61963,69.44629a4.00229,4.00229,0,0,0-6.51563-1.26563l-40.44775,40.44825-23.57031-4.71485-4.71436-23.57031,40.44824-40.44824a4.001,4.001,0,0,0-1.26611-6.51465,68.02485,68.02485,0,0,0-87.60254,92.60547L36.41455,180.002q-.11059.09522-.21387.19922a28,28,0,0,0,39.59815,39.59766q.10327-.10254.19922-.21387l54.01465-62.53418a68.02685,68.02685,0,0,0,92.60693-87.60449Zm-20.19336,68.98047a60.264,60.264,0,0,1-71.29834,10.18945,3.99861,3.99861,0,0,0-5.09863.80762l-55.98584,64.8164A20.00007,20.00007,0,0,1,41.75928,185.957l64.81494-55.98535a4,4,0,0,0,.88574-4.96289,60.02972,60.02972,0,0,1,70.28076-86.34766l-37.54,37.54a3.99969,3.99969,0,0,0-1.09375,3.61231l5.65723,28.28418a3.99937,3.99937,0,0,0,3.1377,3.13769l28.28418,5.65723a3.98746,3.98746,0,0,0,3.61328-1.09375l37.53955-37.53906A59.74226,59.74226,0,0,1,202.42627,138.42676Z"/>
</svg>
