<svg id="Flat" xmlns="http://www.w3.org/2000/svg" viewBox="0 0 256 256">
  <path d="M128,28.00012a100,100,0,1,0,100,100A100.113,100.113,0,0,0,128,28.00012Zm0,192a92,92,0,1,1,92-92A92.10446,92.10446,0,0,1,128,220.00012ZM162.82813,98.82873l-29.17139,29.17139,29.17139,29.17139a3.99992,3.99992,0,1,1-5.65625,5.65722L128,133.65686,98.82813,162.82873a3.99992,3.99992,0,0,1-5.65625-5.65722l29.17138-29.17139L93.17188,98.82873a3.99992,3.99992,0,0,1,5.65625-5.65722L128,122.34338l29.17188-29.17187a3.99992,3.99992,0,1,1,5.65625,5.65722Z"/>
</svg>
