<svg id="Flat" xmlns="http://www.w3.org/2000/svg" viewBox="0 0 256 256">
  <path d="M162.82813,98.82873l-29.17139,29.17139,29.17139,29.17139a3.99992,3.99992,0,1,1-5.65625,5.65722L128,133.65686,98.82813,162.82873a3.99992,3.99992,0,0,1-5.65625-5.65722l29.17138-29.17139L93.17188,98.82873a3.99992,3.99992,0,0,1,5.65625-5.65722L128,122.34338l29.17188-29.17187a3.99992,3.99992,0,1,1,5.65625,5.65722ZM220,48.00012v160a12.01343,12.01343,0,0,1-12,12H48a12.01343,12.01343,0,0,1-12-12v-160a12.01343,12.01343,0,0,1,12-12H208A12.01343,12.01343,0,0,1,220,48.00012Zm-8,0a4.00427,4.00427,0,0,0-4-4H48a4.00427,4.00427,0,0,0-4,4v160a4.00427,4.00427,0,0,0,4,4H208a4.00427,4.00427,0,0,0,4-4Z"/>
</svg>
