<svg id="Flat" xmlns="http://www.w3.org/2000/svg" viewBox="0 0 256 256">
  <path d="M162.21875,124.67188l-48-32A3.99967,3.99967,0,0,0,108,96v64a3.99987,3.99987,0,0,0,6.21875,3.32812l48-32a3.99979,3.99979,0,0,0,0-6.65624ZM116,152.52588V103.47412L152.78906,128Zm114.46-81.7207a19.95588,19.95588,0,0,0-12.06934-13.62012C184.59766,44.19873,130.272,44.397,128.02539,44.40771c-2.29443-.01318-56.62207-.20947-90.416,12.77735A19.95556,19.95556,0,0,0,25.54053,70.80469C23.0127,80.50928,20,98.30957,20,128c0,29.69141,3.0127,47.49121,5.54,57.19482a19.95588,19.95588,0,0,0,12.06934,13.62012c33.793,12.98633,88.11865,12.791,90.36523,12.77735.11279.00048.35059.002.707.002,6.88379,0,57.57764-.43164,89.709-12.7793a19.95556,19.95556,0,0,0,12.06885-13.61963C232.9873,175.49072,236,157.69043,236,128,236,98.30859,232.9873,80.50879,230.46,70.80518Zm-7.74219,112.37353a11.9384,11.9384,0,0,1-7.19677,8.16846c-32.37452,12.44092-86.9458,12.25342-87.54639,12.24512-.54981-.00049-55.12207.19531-87.49609-12.24512a11.93961,11.93961,0,0,1-7.19629-8.16895C30.87207,173.92676,28,156.84424,28,128c0-28.84326,2.87256-45.92676,5.28223-55.17871A11.9384,11.9384,0,0,1,40.479,64.65283c32.37452-12.44092,86.94825-12.24267,87.54639-12.24512.5459-.00634,55.12158-.19628,87.49609,12.24512a11.93961,11.93961,0,0,1,7.19629,8.169C225.12793,82.07324,228,99.15576,228,128,228,156.84326,225.12744,173.92676,222.71777,183.17871Z"/>
</svg>
