<svg xmlns="http://www.w3.org/2000/svg" viewBox="0 0 256 256"><path d="M162.2,124.7l-48-32a4,4,0,0,0-4.1-.2A3.9,3.9,0,0,0,108,96v64a3.9,3.9,0,0,0,2.1,3.5,4.5,4.5,0,0,0,1.9.5,3.6,3.6,0,0,0,2.2-.7l48-32a3.9,3.9,0,0,0,0-6.6ZM116,152.5v-49L152.8,128ZM230.5,70.8a20.4,20.4,0,0,0-12.1-13.6c-33.8-13-88.1-12.8-90.4-12.8s-56.6-.2-90.4,12.8A20.4,20.4,0,0,0,25.5,70.8C23,80.5,20,98.3,20,128s3,47.5,5.5,57.2a20.4,20.4,0,0,0,12.1,13.6c33.8,13,88.1,12.8,90.4,12.8h.7c6.9,0,57.6-.4,89.7-12.8a20.4,20.4,0,0,0,12.1-13.6c2.5-9.7,5.5-27.5,5.5-57.2S233,80.5,230.5,70.8Zm-7.8,112.4a12,12,0,0,1-7.2,8.1c-32.4,12.5-86.9,12.3-87.5,12.3s-55.1.2-87.5-12.3a12,12,0,0,1-7.2-8.1C30.9,173.9,28,156.8,28,128s2.9-45.9,5.3-55.2a12,12,0,0,1,7.2-8.1C72.9,52.2,127.4,52.4,128,52.4s55.1-.2,87.5,12.3a12,12,0,0,1,7.2,8.1c2.4,9.3,5.3,26.4,5.3,55.2S225.1,173.9,222.7,183.2Z"/></svg>