<svg id="Flat" xmlns="http://www.w3.org/2000/svg" viewBox="0 0 256 256">
  <path d="M226.72314,67.37256C225.05322,56.85645,215.064,47.311,204.43408,46.09229a705.54572,705.54572,0,0,0-152.88965.00244C40.93848,47.31055,30.94971,56.855,29.27344,67.39551a400.488,400.488,0,0,0,.0039,121.23242c1.67188,10.51758,11.66114,20.0625,22.28858,21.2793A704.56506,704.56506,0,0,0,128,214.06055a704.56506,704.56506,0,0,0,76.43408-4.15332l.02051-.00244c10.60791-1.21387,20.59717-10.75879,22.272-21.3003A400.50021,400.50021,0,0,0,226.72314,67.37256Zm-7.90087,120c-1.106,6.96-8.23633,13.771-15.26368,14.58252a697.3343,697.3343,0,0,1-151.10351.00146c-7.03125-.80517-14.16992-7.62011-15.27344-14.561a392.43161,392.43161,0,0,1-.00391-118.76709c1.10743-6.96436,8.24659-13.77979,15.25635-14.583A697.33456,697.33456,0,0,1,203.54443,54.043c7.03272.80615,14.17188,7.62109,15.27393,14.56152A392.438,392.438,0,0,1,218.82227,187.37256Zm-56.60352-62.70068-48-32A3.99967,3.99967,0,0,0,108,96v64a3.99987,3.99987,0,0,0,6.21875,3.32812l48-32a3.99979,3.99979,0,0,0,0-6.65624ZM116,152.52588V103.47412L152.78906,128Z"/>
</svg>
