<svg xmlns="http://www.w3.org/2000/svg" viewBox="0 0 256 256"><path d="M215.1,86.2l-29.8,28,30.2,83.1a7.9,7.9,0,0,1-1.8,8.4l-24,24a8.5,8.5,0,0,1-6.4,2.3,8.1,8.1,0,0,1-5.9-3.5l-42.6-62.3L116,183.5V204a8.1,8.1,0,0,1-2.3,5.7l-20,20A8.3,8.3,0,0,1,88,232l-1.8-.2a8,8,0,0,1-5.8-5.2L67.5,188.5,29.4,175.6a8,8,0,0,1-5.2-5.8,8.3,8.3,0,0,1,2.1-7.5l20-20A8.1,8.1,0,0,1,52,140H72.7l18.7-18.8L27.6,78.7A8.4,8.4,0,0,1,24,72.8a8.2,8.2,0,0,1,2.3-6.5l24-24a7.9,7.9,0,0,1,8.4-1.8l83.1,30.2,26.6-28.2a5.2,5.2,0,0,1,1-1.1,32,32,0,0,1,47,43.3A6.4,6.4,0,0,1,215.1,86.2Z"/></svg>