<svg id="Flat" xmlns="http://www.w3.org/2000/svg" viewBox="0 0 256 256">
  <path d="M240.22559,144v24a8.00013,8.00013,0,0,1-9.56934,7.84473L160.22559,161.7583v26.96143l13.47168,13.66357A8.00119,8.00119,0,0,1,176,208v24a8.00076,8.00076,0,0,1-9.56934,7.84473L128,232.1582l-38.43066,7.68653A8.00012,8.00012,0,0,1,80,232V208a8.00035,8.00035,0,0,1,2.34277-5.65674L96,188.686V161.7583L25.56934,175.84473A8.00012,8.00012,0,0,1,16,168V144a7.99967,7.99967,0,0,1,4.42188-7.15527L96.00977,99.05078l.10253-51.06689a32,32,0,0,1,64,.01611l.10352,51.05078,75.58789,37.79395A7.99969,7.99969,0,0,1,240.22559,144Z"/>
</svg>
