<svg xmlns="http://www.w3.org/2000/svg" viewBox="0 0 256 256"><path d="M235.5,65.8a8.3,8.3,0,0,1-5.7,2.3,8,8,0,0,1-5.6-2.3l-34-34a8,8,0,1,1,11.3-11.3l34,34A8,8,0,0,1,235.5,65.8ZM65.8,20.5a8,8,0,0,0-11.3,0l-34,34a8,8,0,0,0,0,11.3,8.3,8.3,0,0,0,5.7,2.3,8,8,0,0,0,5.6-2.3l34-34A8,8,0,0,0,65.8,20.5ZM224,125.5v5.3a14.8,14.8,0,0,0-.1,2.1h0A96,96,0,0,1,133,223.9H123A96,96,0,0,1,32.1,133h0a14.8,14.8,0,0,0-.1-2.1v-5.6a14.8,14.8,0,0,0,.1-2.1h0A96,96,0,0,1,123,32.1h10A96,96,0,0,1,223.9,123h0a14.8,14.8,0,0,0,.1,2.1ZM192,128a8,8,0,0,0-8-8H136V72a8,8,0,0,0-16,0v56a8,8,0,0,0,8,8h56A8,8,0,0,0,192,128Z"/></svg>