<svg id="Flat" xmlns="http://www.w3.org/2000/svg" viewBox="0 0 256 256">
  <path d="M235.48047,65.77441a8,8,0,0,1-11.314,0L190.22559,31.8335a8,8,0,0,1,11.31347-11.314l33.94141,33.94141A8,8,0,0,1,235.48047,65.77441ZM65.77441,20.51953a8,8,0,0,0-11.31347,0L20.51953,54.46094a8,8,0,0,0,11.314,11.31347L65.77441,31.8335A8.00061,8.00061,0,0,0,65.77441,20.51953ZM223.96875,125.5459Q223.99952,126.7705,224,128q0,1.22973-.03125,2.4541c-.00293.10791-.00879.21485-.01172.32227-.02051.71777-.0459,1.43408-.082,2.14892-.001.02491-.00293.04932-.00439.07373A96.004,96.004,0,0,1,132.999,223.87061c-.02441.00146-.04882.00341-.07373.00439-.71484.03613-1.43115.06152-2.14892.082-.10742.00293-.21436.00879-.32227.01172Q129.2295,223.99952,128,224q-1.22973,0-2.4541-.03125c-.10791-.00293-.21485-.00879-.32227-.01172-.71777-.02051-1.43408-.0459-2.14892-.082-.02491-.001-.04932-.00293-.07373-.00439A96.003,96.003,0,0,1,32.12939,132.999c-.00146-.02441-.00341-.04882-.00439-.07373-.03613-.71484-.06152-1.43115-.082-2.14892-.00293-.10742-.00879-.21436-.01172-.32227Q32.00048,129.2295,32,128q0-1.22973.03125-2.4541c.00293-.10791.00879-.21485.01172-.32227.02051-.71777.0459-1.43408.082-2.14892.001-.02491.00293-.04932.00439-.07373A96.004,96.004,0,0,1,123.001,32.12939c.02441-.00146.04882-.00341.07373-.00439.71484-.03613,1.43115-.06152,2.14892-.082.10742-.00293.21436-.00879.32227-.01172Q126.7705,32.00048,128,32q1.22973,0,2.4541.03125c.10791.00293.21485.00879.32227.01172.71777.02051,1.43408.0459,2.14892.082.02491.001.04932.00293.07373.00439A96.003,96.003,0,0,1,223.87061,123.001c.00146.02441.00341.04882.00439.07373.03613.71484.06152,1.43115.082,2.14892C223.96,125.33105,223.96582,125.438,223.96875,125.5459ZM192,128a8.00008,8.00008,0,0,0-8-8H136V72a8,8,0,0,0-16,0v56a8.00008,8.00008,0,0,0,8,8h56A8.00008,8.00008,0,0,0,192,128Z"/>
</svg>
