<svg id="Flat" xmlns="http://www.w3.org/2000/svg" viewBox="0 0 256 256">
  <path d="M87.92969,84a12,12,0,1,1,12,12A12,12,0,0,1,87.92969,84Zm68,12a12,12,0,1,0-12-12A12,12,0,0,0,155.92969,96Zm60,8v48a88,88,0,0,1-176,0V104A87.69717,87.69717,0,0,1,64.77685,42.78369L50.56445,29.93408A7.99994,7.99994,0,1,1,61.29492,18.06592l15.71,14.20312a87.835,87.835,0,0,1,101.84961.00049l15.71-14.20361a7.99994,7.99994,0,1,1,10.73047,11.86816L191.083,42.78369A87.69973,87.69973,0,0,1,215.92969,104Zm-160,0v8h144v-8a72,72,0,0,0-144,0Z"/>
</svg>
