<svg id="Flat" xmlns="http://www.w3.org/2000/svg" viewBox="0 0 256 256">
  <path d="M146.15735,106.62549l9.43237,26.41064-18.1571,21.37549-27.59-5.03711-9.43237-26.41064,18.1571-21.37549ZM232,128A103.99994,103.99994,0,0,1,54.46094,201.53906,103.99994,103.99994,0,1,1,201.53906,54.46094,103.32,103.32,0,0,1,232,128Zm-76.392,29.72949,50.4848-59.43261A8.00029,8.00029,0,1,0,193.89844,87.9375l-26.34827,31.01855-26.2279-73.4375a7.99969,7.99969,0,1,0-15.06739,5.38086l13.6883,38.32666L63.23,75.2207a8.00024,8.00024,0,0,0-2.874,15.74024L100.392,98.27051l-50.4848,59.43262A8.00028,8.00028,0,0,0,62.10156,168.0625L88.44983,137.044l26.2279,73.4375a7.99969,7.99969,0,1,0,15.06739-5.38086l-13.6883-38.32666,23.08484,4.21435.04084.00781L192.77,180.7793a8.00024,8.00024,0,0,0,2.874-15.74024Z"/>
</svg>
