<svg id="Flat" xmlns="http://www.w3.org/2000/svg" viewBox="0 0 256 256">
  <path d="M48,80a48.11745,48.11745,0,0,0-8,.6792V72A40.04521,40.04521,0,0,1,80,32h96a40.04521,40.04521,0,0,1,40,40v8.6792A47.95539,47.95539,0,0,0,160.6665,120H95.3335A48.07871,48.07871,0,0,0,48,80Zm191.96094,46.46387c-.00708-.15186-.01978-.30225-.02906-.45362-.02233-.36181-.04809-.72265-.08251-1.08154-.01563-.165-.03455-.3291-.05274-.49316q-.05933-.53247-.135-1.05957c-.02124-.14551-.04248-.291-.06555-.43555q-.09558-.59985-.21338-1.19141c-.01758-.08886-.03332-.17773-.05164-.26611A32.00094,32.00094,0,0,0,176,128v40a8,8,0,0,1-16,0V136H96v32a8,8,0,0,1-16,0V128a32.00094,32.00094,0,0,0-63.331-6.51709c-.01832.08838-.03406.17725-.05164.26611q-.11773.5918-.21338,1.19141c-.02307.14453-.04443.29-.06555.43555q-.07655.52661-.135,1.05957c-.01819.16406-.03711.32812-.05274.49316-.03442.35889-.06018.71973-.08251,1.08154-.00928.15137-.022.30176-.02906.45362C16.01477,126.97314,16,127.48486,16,128a32.01333,32.01333,0,0,0,24,30.9917V200a16.01833,16.01833,0,0,0,16,16H200a16.01833,16.01833,0,0,0,16-16V158.9917A32.01319,32.01319,0,0,0,240,128C240,127.48486,239.98523,126.97314,239.96094,126.46387Z"/>
</svg>
