<svg id="Flat" xmlns="http://www.w3.org/2000/svg" viewBox="0 0 256 256">
  <path d="M200,64V168a8,8,0,0,1-16,0V83.314L69.65674,197.65723a8.00018,8.00018,0,0,1-11.31348-11.31446L172.686,72H88a8,8,0,0,1,0-16H192c.05957,0,.11768.00781.17676.00879.20263.00439.40527.01123.60742.03076.13818.01367.273.03857.40918.05908.12158.01807.24414.03174.36523.05567.146.02881.28711.06836.42969.105.11035.02832.22119.05176.33008.085.13672.041.26855.09228.40185.14062.11329.04053.22706.07764.33887.12354.12158.05078.23877.10986.35742.166.11817.05616.2378.1084.35352.17041.11084.05909.21582.12647.32324.19092.1167.06983.23535.13574.34912.21192.11475.07714.22266.16259.333.24511.09863.07373.2002.14258.29639.22119.17871.147.34912.30372.51416.46485.023.02246.04785.0415.0708.064.02.02051.03711.04248.05713.063.16406.16748.32275.34082.47168.522.08007.09766.14941.2002.22412.3003.08154.10888.166.21582.24219.3291.07763.11621.1455.2373.2163.35644.0625.105.12842.207.186.315.06445.11962.11865.24316.17627.36572.0542.11474.11133.227.16015.34472.04883.11719.0879.23682.13038.356.04589.12744.09423.25293.13379.3833.03613.11914.0625.23975.09277.35987.03369.13281.0708.26367.09717.39892.02783.13819.04394.27783.064.41748.01709.11914.03955.23633.05127.35694q.03809.38232.03906.7666Z"/>
</svg>
