<svg id="Flat" xmlns="http://www.w3.org/2000/svg" viewBox="0 0 256 256">
  <path d="M225.30566,107.62555c-.11645.01666-.23095.03876-.34912.05035-.26245.02588-.52588.03992-.78955.03992h-48a8,8,0,0,1,0-16h28.68555L184.56836,71.43164a80.08769,80.08769,0,0,0-113.13672,0A8.00052,8.00052,0,0,1,60.11719,60.11719a96.11137,96.11137,0,0,1,135.76562,0L216.167,80.40137V51.71582a8,8,0,0,1,16,0V99.71069a7.97366,7.97366,0,0,1-.04.79706c-.01049.10724-.031.21124-.04565.31714-.02124.15271-.0398.30566-.06983.45715-.0249.12519-.05957.24634-.09008.36933-.03247.13037-.06128.26129-.10035.39019-.03662.12067-.08227.237-.12426.35517-.04566.1286-.08838.25775-.14063.38428-.04492.10791-.09765.21118-.147.31665-.06152.13195-.12061.26464-.1897.3938-.052.09686-.11157.18865-.16723.28308-.07691.13025-.15088.26147-.23584.38806-.06617.09881-.14038.19122-.21094.28686-.08423.11438-.16431.23084-.25537.34156-.116.14117-.242.27362-.36719.40649-.05444.05768-.10229.11914-.15869.17554-.05444.05432-.11377.10034-.16919.15277-.135.12762-.26978.25561-.41357.37366-.10645.08758-.21851.1643-.32837.24554-.1001.074-.19727.15173-.30079.22113-.12182.0816-.248.15265-.37329.22681-.09936.059-.19629.12152-.29858.17627-.124.06646-.25147.12292-.37842.18237-.11035.05194-.21875.10712-.332.15411-.12109.05011-.24487.0907-.36792.13465-.12353.04431-.24536.09173-.37183.13006-.12158.03681-.24511.06385-.36816.09473-.13037.03284-.259.06927-.3916.09558C225.5896,107.58868,225.44751,107.60529,225.30566,107.62555Zm-40.7373,76.94281a80.08769,80.08769,0,0,1-113.13672,0L51.14746,164.28418H79.833a8,8,0,0,0,0-16h-48c-.05982,0-.11743.00763-.177.00891-.20264.00446-.40528.01093-.60718.0307-.13819.01343-.27246.03851-.40845.0589-.12207.01831-.24487.03186-.36621.05591-.14526.02869-.28613.06811-.42847.10455-.11035.02826-.22168.05219-.3313.08521-.13549.041-.2666.09155-.39917.13952-.11425.0412-.22924.07862-.34179.12519-.11963.04962-.23462.10772-.35132.1629-.12061.05688-.24219.11047-.36035.17371-.10645.057-.20752.12194-.311.18359-.12134.07214-.24389.141-.36206.22009-.1062.071-.20581.15045-.3081.22638-.10767.07965-.21729.15473-.32178.24048-.14478.119-.28076.248-.417.37671-.05445.05151-.11255.09668-.166.15-.0564.0564-.10425.11786-.15869.17554-.12524.13287-.25122.26532-.36719.40649-.09106.11072-.17114.22718-.25537.34156-.07056.09564-.14477.188-.21094.28686-.085.12659-.15893.25781-.23584.38806-.05566.09443-.11523.18622-.16723.28308-.06909.12916-.12818.26185-.1897.3938-.04932.10547-.10205.20874-.147.31665-.05225.12653-.095.25568-.14063.38428-.042.11817-.08764.2345-.12426.35517-.03907.1289-.06788.25982-.10035.39019-.03051.123-.06518.24414-.09008.36933-.03.15149-.04859.30444-.06983.45715-.01465.1059-.03516.2099-.04565.31714a7.97366,7.97366,0,0,0-.04.79706v47.99487a8,8,0,0,0,16,0V175.59863l20.28418,20.28418a96.11136,96.11136,0,0,0,135.76562,0,8.00052,8.00052,0,0,0-11.31445-11.31445Z"/>
</svg>
