<svg id="Flat" xmlns="http://www.w3.org/2000/svg" viewBox="0 0 256 256">
  <path d="M30.26953,107.56073c-.13257-.02631-.26123-.06274-.3916-.09558-.123-.03088-.24658-.05792-.36816-.09473-.12647-.03833-.2483-.08575-.37183-.13006-.123-.04395-.24683-.08454-.36792-.13465-.11328-.047-.22168-.10217-.332-.15411-.127-.05945-.2544-.11591-.37842-.18237-.10229-.05475-.19922-.11725-.29858-.17627-.12525-.07416-.25147-.14521-.37329-.22681-.10352-.0694-.20069-.14709-.30079-.22113-.10986-.08124-.22192-.158-.32837-.24554-.14379-.118-.27856-.246-.41357-.37366-.05542-.05243-.11475-.09845-.16919-.15277-.0564-.0564-.10425-.11786-.15869-.17554-.12524-.13287-.25122-.26532-.36719-.40649-.09106-.11072-.17114-.22718-.25537-.34156-.07056-.09564-.14477-.18805-.21094-.28686-.085-.12659-.15893-.25781-.23584-.38806-.05566-.09443-.11523-.18622-.16723-.28308-.06909-.12916-.12818-.26185-.1897-.3938-.04932-.10547-.10205-.20874-.147-.31665-.05225-.12653-.095-.25568-.14063-.38428-.042-.11817-.08764-.2345-.12426-.35517-.03907-.1289-.06788-.25982-.10035-.39019-.03051-.123-.06518-.24414-.09008-.36933-.03-.15149-.04859-.30444-.06983-.45715-.01465-.1059-.03516-.2099-.04565-.31714a7.97366,7.97366,0,0,1-.04-.79706V51.71582a8,8,0,0,1,16,0V80.40137L60.11719,60.11719a96.11137,96.11137,0,0,1,135.76562,0,8.00052,8.00052,0,1,1-11.31445,11.31445,80.08769,80.08769,0,0,0-113.13672,0L51.14746,91.71582H79.833a8,8,0,0,1,0,16h-48c-.26367,0-.5271-.014-.78955-.03992-.11817-.01159-.23267-.03369-.34912-.05035C30.55249,107.60529,30.4104,107.58868,30.26953,107.56073Zm29.84766,77.00763a8.00119,8.00119,0,0,0,0,11.31445,96.11136,96.11136,0,0,0,135.76562,0L216.167,175.59863v28.68555a8,8,0,0,0,16,0V156.28931a7.97366,7.97366,0,0,0-.04-.79706c-.01049-.10724-.031-.21124-.04565-.31714-.02124-.15271-.0398-.30566-.06983-.45715-.0249-.12519-.05957-.24634-.09008-.36933-.03247-.13037-.06128-.26129-.10035-.39019-.03662-.12067-.08227-.237-.12426-.35517-.04566-.1286-.08838-.25775-.14063-.38428-.04492-.10791-.09765-.21118-.147-.31665-.06152-.132-.12061-.26464-.1897-.3938-.052-.09686-.11157-.18865-.16723-.28308-.07691-.13025-.15088-.26147-.23584-.38806-.06617-.09881-.14038-.19122-.21094-.28686-.08423-.11438-.16431-.23084-.25537-.34156-.116-.14117-.242-.27362-.36719-.40649-.05444-.05768-.10229-.11914-.15869-.17554-.05347-.05334-.11157-.09851-.166-.15-.13623-.12872-.27221-.25769-.417-.37671-.10449-.08575-.21411-.16083-.32178-.24048-.10229-.07593-.2019-.15533-.3081-.22638-.11817-.0791-.24072-.148-.36206-.22009-.10352-.06165-.20459-.12659-.311-.18359-.11816-.06324-.23974-.11683-.36035-.17371-.1167-.05518-.23169-.11328-.35132-.1629-.11255-.04657-.22754-.084-.34179-.12519-.13257-.048-.26368-.09851-.39917-.13952-.10962-.033-.221-.057-.3313-.08521-.14234-.03644-.28321-.07586-.42847-.10455-.12134-.02405-.24414-.0376-.36621-.05591-.136-.02039-.27026-.04547-.40845-.0589-.2019-.01977-.40454-.02624-.60718-.0307-.05957-.00128-.11718-.00891-.177-.00891h-48a8,8,0,0,0,0,16h28.68555l-20.28418,20.28418a80.08769,80.08769,0,0,1-113.13672,0A8.003,8.003,0,0,0,60.11719,184.56836Z"/>
</svg>
