<svg id="Flat" xmlns="http://www.w3.org/2000/svg" viewBox="0 0 256 256">
  <path d="M205.65674,149.65723l-72,72c-.023.02319-.04883.04223-.07178.06494-.165.16113-.33447.31714-.51269.46338-.09766.08032-.20118.15039-.30176.22534-.1084.08105-.21485.16528-.32764.241-.11621.07788-.2373.1455-.35693.21679-.10449.06226-.20655.12793-.31446.18579-.12011.06421-.24414.1189-.36669.17676-.11426.054-.22657.11084-.34327.15942-.11816.04883-.23925.08838-.35937.13135-.126.04541-.251.09375-.37988.13282-.11963.03613-.24122.06274-.36231.09326-.13184.0332-.26269.07031-.397.09692-.13965.02759-.28028.04419-.42041.06421-.11817.01685-.23389.03931-.353.051-.26269.02587-.52588.03979-.78955.03979s-.52686-.01392-.78955-.03979c-.11914-.01172-.23486-.03418-.353-.051-.14013-.02-.28076-.03662-.42041-.06421-.13428-.02661-.26514-.06372-.397-.09692-.12109-.03052-.24268-.05713-.36231-.09326-.1289-.03907-.2539-.08741-.37988-.13282-.12012-.043-.24121-.08252-.35937-.13135-.1167-.04858-.229-.10546-.34327-.15942-.12255-.05786-.24658-.11255-.36669-.17676-.10791-.05786-.21-.12353-.31446-.18579-.11963-.07129-.24072-.13891-.35693-.21679-.11279-.07569-.21924-.15992-.32764-.241-.10058-.075-.2041-.145-.30176-.22534-.1748-.1438-.3413-.29712-.50341-.45508-.02637-.02564-.05518-.04712-.08106-.07324l-72-72a8.00018,8.00018,0,0,1,11.31348-11.31446L120,196.68652V40a8,8,0,0,1,16,0V196.68652l58.34326-58.34375a8.00018,8.00018,0,1,1,11.31348,11.31446Z"/>
</svg>
