<svg id="Flat" xmlns="http://www.w3.org/2000/svg" viewBox="0 0 256 256">
  <path d="M216,48.00513V96a8,8,0,0,1-16,0V67.314l-42.34277,42.34278a8.00018,8.00018,0,0,1-11.31446-11.31348L188.686,56H160a8,8,0,0,1,0-16h48c.02979,0,.05859.00415.08838.00439.2334.00269.46631.01246.69824.0354.12891.01246.25391.03638.38086.05494.13135.01928.26318.03418.39356.06006.14013.02783.27685.06591.41455.10107.11474.0293.23046.0542.34423.08862.13428.04053.26368.09058.395.13794.11524.04151.231.07935.34473.12647.12109.05.23682.10864.35449.16455.11914.05615.23926.10888.356.17138.11133.05957.21728.12745.32519.19214.11622.06934.23389.135.34668.2107.11719.07812.22706.16552.33985.24951.09668.07226.1958.13965.28955.21679.18652.15284.36426.31519.53564.48389.01612.01611.03418.0293.0503.04541.0205.02051.03759.04321.05761.064.16358.167.32178.33935.47022.52026.083.10059.15527.20654.23193.31006.07862.10571.16065.20874.23438.31836.08056.1206.15088.24585.22461.36987.05957.1001.12207.19751.17724.30029.06787.126.125.25538.18506.384.05078.1084.10547.2146.15137.32568.05127.12476.09326.252.13867.37842.04248.11987.08887.238.126.36059.03857.12769.06738.25757.09912.38672.03125.124.06592.2461.09131.37256.02978.15088.04785.30322.06933.45532.01465.10645.03516.21094.0459.31861Q215.99952,47.60571,216,48.00513ZM98.34277,146.34326,56,188.686V160a8,8,0,0,0-16,0v47.99487q0,.39918.04.79712c.01074.10767.03125.21216.0459.31861.02148.1521.03955.30444.06933.45532.02539.12646.06006.24853.09131.37256.03174.12915.06055.259.09912.38672.03711.12255.0835.24072.126.36059.04541.12647.0874.25366.13867.37842.0459.11108.10059.21728.15137.32568.06006.12866.11719.25806.18506.384.05517.10278.11767.20019.17724.30029.07373.124.14405.24927.22461.36987.07373.10962.15576.21265.23438.31836.07666.10352.14892.20947.23193.31006.14844.18091.30664.35327.47022.52026.02.02076.03711.04346.05761.064.01612.01611.03418.0293.0503.04541.17138.1687.34912.33105.53564.48389.09424.07763.19385.145.291.21777.11181.08374.22168.17041.33789.24853.11474.07666.23388.14331.35156.21363.10644.06347.21045.13012.31934.18872.12011.06421.24365.11865.36621.17627.11425.05395.22656.11084.34375.15942.11816.04907.23877.08862.35888.13159.12647.04541.25147.09375.38037.13306.12012.03613.2417.06274.36231.093.13184.0332.26221.07031.39648.09692.14063.02783.28321.04443.42481.0647.1167.0166.231.03882.34912.05029.26221.02588.52588.04.78955.04H96a8,8,0,0,0,0-16H67.314l42.34327-42.34326a8.00018,8.00018,0,0,0-11.31446-11.31348Z"/>
</svg>
