<svg id="Flat" xmlns="http://www.w3.org/2000/svg" viewBox="0 0 256 256">
  <path d="M103.96,127.208a8.02276,8.02276,0,0,1,0,1.584c-.01074.10718-.03125.21118-.0459.31714-.021.15259-.03955.30566-.06933.457-.02491.12525-.05957.24634-.09034.36939-.03271.13037-.06152.26123-.10058.39013-.03662.12073-.082.23706-.124.35523-.04541.12866-.08838.25781-.14063.38428-.04492.10791-.09766.21118-.147.31665-.06153.13195-.12061.26464-.18994.39379-.05176.09693-.11133.18873-.167.28309-.07666.13024-.15087.26147-.23584.38806-.0664.09887-.14062.19116-.21093.28686-.084.11438-.16407.23084-.25537.34156-.11622.14111-.2417.27368-.36719.40649-.0542.05762-.10205.11914-.15869.17554l-32,32a8.00053,8.00053,0,0,1-11.31446-11.31446L76.686,136H16a8,8,0,0,1,0-16H76.686L58.34277,101.65723A8.00053,8.00053,0,0,1,69.65723,90.34277l32,32c.05664.0564.10449.11792.15869.17554.12549.13281.251.26538.36719.40649.0913.11072.17138.22718.25537.34156.07031.0957.14453.188.21093.28686.085.12659.15918.25782.23584.38806.05567.09436.11524.18616.167.28309.06933.12915.12841.26184.18994.39379.04931.10547.10205.20874.147.31665.05225.12647.09522.25562.14063.38428.042.11817.0874.2345.124.35523.03906.1289.06787.25976.10058.39013.03077.12305.06543.24414.09034.36939.02978.15137.04834.30444.06933.457C103.92871,126.99683,103.94922,127.10083,103.96,127.208ZM128,32a8.00039,8.00039,0,0,0-8,8V216a8,8,0,0,0,16,0V40A8.00039,8.00039,0,0,0,128,32Zm112,88H179.314l18.34327-18.34277a8.00053,8.00053,0,0,0-11.31446-11.31446l-32,32c-.05664.0564-.10449.11792-.15869.17554-.12549.13281-.251.26538-.36719.40649-.0913.11072-.17138.22718-.25537.34156-.07031.0957-.14453.188-.21093.28686-.085.12659-.15918.25782-.23584.38806-.05567.09436-.11524.18616-.167.28309-.06933.12915-.12841.26184-.18994.39379-.04931.10547-.10205.20874-.147.31665-.05225.12647-.09522.25562-.14063.38428-.042.11817-.0874.2345-.124.35523-.03906.1289-.06787.25976-.10058.39013-.03077.12305-.06543.24414-.09034.36939-.02978.15137-.04834.30444-.06933.457-.01465.106-.03516.21-.0459.31714a8.02276,8.02276,0,0,0,0,1.584c.01074.10718.03125.21118.0459.31714.021.15259.03955.30566.06933.457.02491.12525.05957.24634.09034.36939.03271.13037.06152.26123.10058.39013.03662.12073.082.23706.124.35523.04541.12866.08838.25781.14063.38428.04492.10791.09766.21118.147.31665.06153.13195.12061.26464.18994.39379.05176.09693.11133.18873.167.28309.07666.13024.15087.26147.23584.38806.0664.09887.14062.19116.21093.28686.084.11438.16407.23084.25537.34156.11622.14111.2417.27368.36719.40649.0542.05762.10205.11914.15869.17554l32,32a8.00053,8.00053,0,0,0,11.31446-11.31446L179.314,136H240a8,8,0,0,0,0-16Z"/>
</svg>
