<svg id="Flat" xmlns="http://www.w3.org/2000/svg" viewBox="0 0 256 256">
  <path d="M191.96,127.21045a7.8046,7.8046,0,0,1,0,1.5791c-.01172.11914-.03418.23486-.05078.353-.02.14013-.03662.28076-.06445.41992-.02686.13672-.06446.269-.09766.40283-.03027.11865-.05615.23779-.0918.35547-.04.13232-.08935.25977-.13574.38916-.04248.11719-.08105.23486-.12842.3501-.05029.12109-.10888.23681-.16455.355-.05615.11865-.10888.23828-.1709.35449-.06152.11475-.13183.22412-.19824.33545-.06738.11231-.13086.22559-.20361.335-.08447.126-.17774.24463-.26856.36524-.06591.08789-.127.17822-.19726.26367a7.95885,7.95885,0,0,1-.53467.59131l-71.99658,71.99658a7.99984,7.99984,0,0,1-11.31348-11.31348L164.68652,136H32a8,8,0,0,1,0-16H164.68652L106.34326,61.65674a7.99984,7.99984,0,0,1,11.31348-11.31348l71.99756,71.99756q.28125.28125.53369.59033c.07031.08545.13135.17578.19726.26367.09082.12061.18409.23926.26856.36524.07275.10937.13623.22265.20361.335.06641.11133.13672.2207.19824.33545.062.11621.11475.23584.1709.35449.05567.11816.11426.23389.16455.355.04737.11524.08594.23291.12842.3501.04639.12939.0957.25683.13574.38916.03565.11767.06153.23682.0918.35547.0332.13379.0708.26611.09766.40283.02783.13916.04443.27979.06445.41992C191.92578,126.97559,191.94824,127.09131,191.96,127.21045ZM216,32a8.00008,8.00008,0,0,0-8,8V216a8,8,0,0,0,16,0V40A8.00008,8.00008,0,0,0,216,32Z"/>
</svg>
