<svg id="Flat" xmlns="http://www.w3.org/2000/svg" viewBox="0 0 256 256">
  <path d="M198.18555,197.07227c-.14893.18115-.30762.35449-.47168.522-.02.02051-.03711.04248-.05713.063-.023.023-.04883.042-.07178.06494-.165.16113-.33447.31689-.51269.46338-.09766.08007-.20118.15039-.30176.22558-.1084.08106-.21485.165-.32764.24073-.11621.07812-.2373.1455-.35693.21679-.10449.0625-.20655.12793-.31446.18555-.12011.06445-.24414.11914-.36669.17676-.11426.0542-.22657.11084-.34327.15966-.11816.04883-.23925.08838-.35937.13135-.126.04541-.251.09375-.37988.13282-.11963.03613-.24122.063-.36231.09326-.13184.0332-.26269.07031-.397.09716-.13965.02735-.28028.04395-.42041.064-.11817.01709-.23389.03906-.353.05078-.26269.02588-.52588.04-.78955.04H88a8,8,0,0,1,0-16h84.686L58.34326,69.65723A8.00018,8.00018,0,0,1,69.65674,58.34277L184,172.686V88a8,8,0,0,1,16,0V192l-.001.022q-.00145.38379-.03906.7666c-.01172.12061-.03418.2378-.05127.35694-.02.13965-.03613.27929-.064.41748-.02637.13525-.06348.26611-.09717.39892-.03027.12012-.05664.24073-.09277.35987-.03956.13037-.0879.25586-.13379.3833-.04248.11914-.08155.23877-.13038.356-.04882.11767-.106.23-.16015.34472-.05762.12256-.11182.2461-.17627.36572-.05762.10791-.12354.21-.186.315-.0708.11914-.13867.24023-.2163.35644-.07618.11328-.16065.22022-.24219.3291C198.335,196.87207,198.26562,196.97461,198.18555,197.07227Z"/>
</svg>
