<svg id="Flat" xmlns="http://www.w3.org/2000/svg" viewBox="0 0 256 256">
  <path d="M232,127.99121c0,.50733-.01221,1.012-.01953,1.5177-.33789,14.25916-5.63477,30.4823-27.98047,30.4823-23.14258,0-28-17.40137-28-32v-40a8,8,0,0,0-16,0v4.261a47.99517,47.99517,0,1,0,6.73047,64.04883,39.57375,39.57375,0,0,0,3.37793,4.96948c5.36719,6.71582,15.60449,14.7207,33.8916,14.7207a49.2519,49.2519,0,0,0,17.78125-3.0636A103.98371,103.98371,0,1,1,232,127.99121Zm-136,0a32,32,0,1,0,32-32A32.03667,32.03667,0,0,0,96,127.99121Z"/>
</svg>
