<svg id="Flat" xmlns="http://www.w3.org/2000/svg" viewBox="0 0 256 256">
  <path d="M116,128a12,12,0,1,1,12,12A12,12,0,0,1,116,128Zm96.28418,27.71582a39.99987,39.99987,0,1,1-56.56836,56.56836L128,184.56836l-27.71582,27.71582a40,40,0,1,1-56.56836-56.5686L71.43164,128,43.71582,100.28418a39.99987,39.99987,0,1,1,56.56836-56.56836L128,71.43164l27.71582-27.71582a40,40,0,1,1,56.56836,56.5686L184.56836,128ZM94.05957,128,128,161.94043,161.94043,128,128,94.05957ZM139.314,82.74561,173.25439,116.686,200.96973,88.9707a23.99951,23.99951,0,1,0-33.93946-33.9414ZM116.686,173.25439,82.74561,139.314,55.03027,167.0293a23.99951,23.99951,0,1,0,33.93946,33.9414Z"/>
</svg>
