<svg id="Flat" xmlns="http://www.w3.org/2000/svg" viewBox="0 0 256 256">
  <path d="M248,96.00781v64a8,8,0,0,1-16,0v-64a8,8,0,0,1,16,0Zm-32-24v112a24.02624,24.02624,0,0,1-24,24H40a24.02624,24.02624,0,0,1-24-24v-112a24.02624,24.02624,0,0,1,24-24H192A24.02625,24.02625,0,0,1,216,72.00781Zm-16,0a8.01042,8.01042,0,0,0-8-8H40a8.01042,8.01042,0,0,0-8,8v112a8.01042,8.01042,0,0,0,8,8H192a8.01042,8.01042,0,0,0,8-8Zm-64,8H56a7.9954,7.9954,0,0,0-8,8v80a7.99539,7.99539,0,0,0,8,8h80a7.9954,7.9954,0,0,0,8-8v-80A7.99541,7.99541,0,0,0,136,80.00781Z"/>
</svg>
