<svg id="Flat" xmlns="http://www.w3.org/2000/svg" viewBox="0 0 256 256">
  <path d="M256,96v64a8,8,0,0,1-16,0V96a8,8,0,0,1,16,0ZM224,72V184a24.0275,24.0275,0,0,1-24,24H48a24.0275,24.0275,0,0,1-24-24V72A24.0275,24.0275,0,0,1,48,48H200A24.0275,24.0275,0,0,1,224,72Zm-16,0a8.00917,8.00917,0,0,0-8-8H48a8.00917,8.00917,0,0,0-8,8V184a8.00917,8.00917,0,0,0,8,8H200a8.00917,8.00917,0,0,0,8-8Zm-24,8.00049H64a7.99977,7.99977,0,0,0-8,8v80a7.99977,7.99977,0,0,0,8,8H184a7.99977,7.99977,0,0,0,8-8v-80A7.99977,7.99977,0,0,0,184,80.00049Z"/>
</svg>
