<svg id="Flat" xmlns="http://www.w3.org/2000/svg" viewBox="0 0 256 256">
  <path d="M88,8a8.00008,8.00008,0,0,1,8-8h64a8,8,0,0,1,0,16H96A8.00008,8.00008,0,0,1,88,8ZM208,56.00781v152a24.02624,24.02624,0,0,1-24,24H72a24.02624,24.02624,0,0,1-24-24v-152a24.02625,24.02625,0,0,1,24-24H184A24.02624,24.02624,0,0,1,208,56.00781Zm-57.375,71.51563A7.98172,7.98172,0,0,0,144,124.00781l-20.1875-.01562,11.61719-29.01563a8.00086,8.00086,0,0,0-14.85938-5.9375l-16,39.98438A8.001,8.001,0,0,0,112,139.99219l20.1875.01562-11.61719,29.03125a8.00086,8.00086,0,0,0,14.85938,5.9375l16-40A8.00973,8.00973,0,0,0,150.625,127.52344Z"/>
</svg>
