<svg id="Flat" xmlns="http://www.w3.org/2000/svg" viewBox="0 0 256 256">
  <path d="M256,96v64a8,8,0,0,1-16,0V96a8,8,0,0,1,16,0ZM224,71.99805v112a24.02625,24.02625,0,0,1-24,24H48a24.02624,24.02624,0,0,1-24-24v-112a24.02624,24.02624,0,0,1,24-24H200A24.02624,24.02624,0,0,1,224,71.99805Zm-77.375,51.51562A8.00128,8.00128,0,0,0,140,119.99805H119.8125L131.42187,90.9668a7.99361,7.99361,0,1,0-14.84375-5.9375l-16,40A7.99271,7.99271,0,0,0,108,135.99805h20.1875L116.57812,165.0293a7.99361,7.99361,0,1,0,14.84375,5.9375l16-40A8.00807,8.00807,0,0,0,146.625,123.51367Z"/>
</svg>
