<svg id="Flat" xmlns="http://www.w3.org/2000/svg" viewBox="0 0 256 256">
  <path d="M221.09766,200.00024a15.82254,15.82254,0,0,1-13.86621,8.02051H48.76074A15.999,15.999,0,0,1,34.9502,183.94751C40.90332,173.73462,48,154.35181,48,120.02075v-16a79.99928,79.99928,0,0,1,79.99414-80c.2041,0,.40625.001.61133.002C172.38379,24.34692,208,60.63989,208,104.92505v15.0957c0,34.335,7.09375,53.7168,13.04395,63.93066A15.85387,15.85387,0,0,1,221.09766,200.00024ZM159.9248,224.02075h-64a8,8,0,0,0,0,16h64a8,8,0,0,0,0-16Z"/>
</svg>
