<svg xmlns="http://www.w3.org/2000/svg" viewBox="0 0 256 256"><path d="M34.6,74.1a9.3,9.3,0,0,1-3.5-.8,8,8,0,0,1-3.6-10.7A111.7,111.7,0,0,1,68.3,17.2a8,8,0,0,1,8.5,13.6,97,97,0,0,0-35,38.8A7.9,7.9,0,0,1,34.6,74.1ZM160,216H96a8,8,0,0,0,0,16h64a8,8,0,0,0,0-16Zm47.8-104a79.7,79.7,0,0,0-79.2-80H128a79.9,79.9,0,0,0-79.8,80c0,34.3-7.1,53.7-13,63.9a16.2,16.2,0,0,0-.1,16.1A15.9,15.9,0,0,0,49,200H207a15.9,15.9,0,0,0,13.9-8,16.2,16.2,0,0,0-.1-16.1C214.9,165.7,207.8,146.3,207.8,112Zm20.7-49.4a111.7,111.7,0,0,0-40.8-45.4,8,8,0,0,0-8.5,13.6,97,97,0,0,1,35,38.8,7.9,7.9,0,0,0,7.2,4.5,9.3,9.3,0,0,0,3.5-.8A8,8,0,0,0,228.5,62.6Z"/></svg>