<svg id="Flat" xmlns="http://www.w3.org/2000/svg" viewBox="0 0 256 256">
  <path d="M221.10156,191.97949A15.82252,15.82252,0,0,1,207.23535,200H48.76465A15.999,15.999,0,0,1,34.9541,175.92676C40.90723,165.71387,48.00391,146.33105,48.00391,112v-8a79.99926,79.99926,0,0,1,79.99414-80c.2041,0,.40625.001.61133.002,43.77832.32422,79.39453,36.61719,79.39453,80.90235V112c0,34.335,7.09375,53.7168,13.04394,63.93066A15.85383,15.85383,0,0,1,221.10156,191.97949ZM159.92871,216h-64a8,8,0,0,0,0,16h64a8,8,0,1,0,0-16Z"/>
</svg>
