<svg xmlns="http://www.w3.org/2000/svg" viewBox="0 0 256 256"><path d="M34.6,74.1a9.3,9.3,0,0,1-3.5-.8,8,8,0,0,1-3.6-10.7A111.7,111.7,0,0,1,68.3,17.2a8,8,0,0,1,8.5,13.6,97,97,0,0,0-35,38.8A7.9,7.9,0,0,1,34.6,74.1ZM228.5,62.6a111.7,111.7,0,0,0-40.8-45.4,8,8,0,0,0-8.5,13.6,97,97,0,0,1,35,38.8,7.9,7.9,0,0,0,7.2,4.5,9.3,9.3,0,0,0,3.5-.8A8,8,0,0,0,228.5,62.6Zm-7.7,113.3a16.2,16.2,0,0,1,.1,16.1,15.9,15.9,0,0,1-13.9,8H168a40,40,0,0,1-80,0H49a15.9,15.9,0,0,1-13.9-8,16.2,16.2,0,0,1,.1-16.1c5.9-10.2,13-29.6,13-63.9A79.9,79.9,0,0,1,128,32h.6a79.7,79.7,0,0,1,79.2,80C207.8,146.3,214.9,165.7,220.8,175.9ZM152,200H104a24,24,0,0,0,48,0Z"/></svg>