<svg id="Flat" xmlns="http://www.w3.org/2000/svg" viewBox="0 0 256 256">
  <path d="M168,223.97949a8.00039,8.00039,0,0,1-8,8H96a8,8,0,0,1,0-16h64A8.00039,8.00039,0,0,1,168,223.97949Zm34.90039-49.2666a8.0004,8.0004,0,0,0,13.36328-8.31445c-5.61328-14.24414-8.459-32.55274-8.459-54.41895v-7.09668c0-44.28515-35.52735-80.57715-79.19629-80.90136A79.49567,79.49567,0,0,0,88.5332,34.43652,8.00109,8.00109,0,0,0,86.583,46.76367ZM53.91992,34.61816A8.0006,8.0006,0,1,0,42.08008,45.38184l16.84424,18.5288a79.6939,79.6939,0,0,0-10.7212,40.06885v8c0,34.33594-7.0791,53.72071-13.0166,63.93555A15.99885,15.99885,0,0,0,48.9834,199.97949H182.62354l19.45654,21.40235a8.0006,8.0006,0,1,0,11.83984-10.76368Z"/>
</svg>
