<svg id="Flat" xmlns="http://www.w3.org/2000/svg" viewBox="0 0 256 256">
  <path d="M95.99316,16.0127a8.0004,8.0004,0,0,1,8-8h48a8,8,0,0,1,0,16h-48A8.00041,8.00041,0,0,1,95.99316,16.0127ZM213.38184,221.91992a8.00207,8.00207,0,0,1-11.30176-.53808L189.92627,208.0127h-22.7312a40.004,40.004,0,0,1-78.39014,0H48.73633a16.14452,16.14452,0,0,1-13.98242-8.1211,15.50859,15.50859,0,0,1,.06933-15.73535C40.834,173.94629,48,154.53125,48,120.0127A79.62074,79.62074,0,0,1,65.04712,70.64551l-22.967-25.26367A8.0006,8.0006,0,1,1,53.91992,34.61816l160,176A8.002,8.002,0,0,1,213.38184,221.91992ZM150.62378,208.0127H105.37622a23.99486,23.99486,0,0,0,45.24756,0Zm48.57056-37.376a8.00016,8.00016,0,0,0,13.6582-7.41113c-2.99512-11.416-4.62012-24.81739-4.8291-39.83106-.59668-42.75488-31.01465-78.376-70.75391-82.85742a79.87907,79.87907,0,0,0-37.3916,4.56055,8.00028,8.00028,0,0,0-3.10742,12.87011Z"/>
</svg>
