<svg xmlns="http://www.w3.org/2000/svg" viewBox="0 0 256 256"><path d="M168,224a8,8,0,0,1-8,8H96a8,8,0,0,1,0-16h64A8,8,0,0,1,168,224Zm34.9-49.3a8,8,0,0,0,5.9,2.6,7.9,7.9,0,0,0,4.2-1.2,8,8,0,0,0,3.3-9.7c-5.6-14.2-8.5-32.6-8.5-54.4v-7.1c0-44.3-35.5-80.6-79.2-80.9A80.2,80.2,0,0,0,88.5,34.4a8,8,0,0,0-3.9,5.7,8.2,8.2,0,0,0,2,6.7ZM53.9,34.6A8,8,0,0,0,42.1,45.4L58.9,63.9A80.2,80.2,0,0,0,48.2,104v8c0,34.3-7.1,53.7-13,63.9A16,16,0,0,0,49,200H182.6l19.5,21.4A8,8,0,0,0,208,224a8.2,8.2,0,0,0,5.4-2.1,7.9,7.9,0,0,0,.5-11.3Z"/></svg>