<svg id="Flat" xmlns="http://www.w3.org/2000/svg" viewBox="0 0 256 256">
  <path d="M86.59473,46.77734a8.00066,8.00066,0,0,1,1.95215-12.32812A79.89269,79.89269,0,0,1,128.6084,24.002c43.66894.32422,79.19629,36.61719,79.19629,80.90235V112c0,21.85059,2.84179,40.14844,8.44531,54.38672a8.00047,8.00047,0,0,1-13.36426,8.31152ZM213.91992,210.61816a8.0006,8.0006,0,0,1-11.83984,10.76368L182.64209,200H168a40,40,0,0,1-80,0H48.9834a15.99886,15.99886,0,0,1-13.79688-24.06445C41.124,165.7207,48.20312,146.33594,48.20312,112v-8A79.70131,79.70131,0,0,1,58.93164,63.91846L42.08008,45.38184A8.0006,8.0006,0,1,1,53.91992,34.61816ZM152,200H104a24,24,0,0,0,48,0Z"/>
</svg>
