<svg id="Flat" xmlns="http://www.w3.org/2000/svg" viewBox="0 0 256 256">
  <path d="M54.46387,164.71338,82.3291,126.49829a47.95164,47.95164,0,1,1-12.918-9.43994l-27.875,38.22827a7.99985,7.99985,0,1,0,12.92774,9.42676ZM165.92871,72H192a8.00917,8.00917,0,0,1,8,8,8,8,0,0,0,16,0,24.02718,24.02718,0,0,0-24-24H152a7.99957,7.99957,0,0,0-6.91016,12.03076L156.73853,88H99.26147L82.91016,59.96924A7.999,7.999,0,0,0,76,56H48a8,8,0,0,0,0,16H71.40527L85.12134,95.51318,69.41113,117.05835a48.23239,48.23239,0,0,1,12.918,9.43994l11.59278-15.89844,31.168,53.43091a7.99983,7.99983,0,1,0,13.82032-8.06152L108.59473,104h57.477l11.18408,19.17285a48.02278,48.02278,0,0,1,13.81055-8.0791ZM208,112a47.75159,47.75159,0,0,0-16.93359,3.09375l23.84375,40.87549a7.99983,7.99983,0,1,1-13.82032,8.06152l-23.834-40.85791A47.96949,47.96949,0,1,0,208,112Z"/>
</svg>
