<svg id="Flat" xmlns="http://www.w3.org/2000/svg" viewBox="0 0 256 256">
  <path d="M58.55346,164.58789l27.124-38.749a47.87423,47.87423,0,1,1-13.09522-9.19312L45.446,155.41211a8,8,0,1,0,13.10742,9.17578ZM203.99975,112a47.7705,47.7705,0,0,0-15.79443,2.68237l22.8042,41.46216A8.00009,8.00009,0,1,1,196.99,163.85547l-22.79248-41.44141A47.96118,47.96118,0,1,0,203.99975,112ZM175.842,92.20337l-.02027-.03662L164.73022,72h19.26953a8,8,0,0,0,0-16H151.2a7.99969,7.99969,0,0,0-7.00977,11.85547L155.26977,88H101.53L86.20971,60.14453A8.00017,8.00017,0,0,0,79.2,56H51.99975a8,8,0,0,0,0,16H74.46948L87.38989,95.49194,72.58227,116.64575a48.20354,48.20354,0,0,1,13.09522,9.19312L95.9834,111.11621,124.99,163.85547a8.00009,8.00009,0,1,0,14.01953-7.71094L110.33008,104h53.73974l10.12769,18.41406a47.94767,47.94767,0,0,1,14.00781-7.73169Z"/>
</svg>
