<svg xmlns="http://www.w3.org/2000/svg" viewBox="0 0 256 256"><path d="M188.8,169.6,133.4,128l23.4-17.6a7.9,7.9,0,0,0,1.6-11.2,8.1,8.1,0,0,0-11.2-1.6L128,112V48l19.2,14.4a8,8,0,1,0,9.6-12.8l-32-24A8,8,0,0,0,112,32v80L60.8,73.6a8,8,0,0,0-9.6,12.8L106.7,128,51.2,169.6A8,8,0,0,0,56,184a7.7,7.7,0,0,0,4.8-1.6L112,144v80a8.2,8.2,0,0,0,4.4,7.2,9.4,9.4,0,0,0,3.6.8,7.7,7.7,0,0,0,4.8-1.6l64-48a8,8,0,0,0,0-12.8ZM128,208V144l42.7,32ZM237.7,98.3a8.1,8.1,0,0,1,0,11.4A8.3,8.3,0,0,1,232,112a8,8,0,0,1-5.6-2.3L208,91.3l-18.3,18.4A8.3,8.3,0,0,1,184,112a8,8,0,0,1-5.6-13.7L196.7,80,178.4,61.7a8,8,0,0,1,11.3-11.4L208,68.7l18.4-18.4a8,8,0,0,1,11.3,0,8.1,8.1,0,0,1,0,11.4L219.3,80Z"/></svg>