<svg xmlns="http://www.w3.org/2000/svg" viewBox="0 0 256 256"><path d="M120,232a9.4,9.4,0,0,1-3.6-.8A8.2,8.2,0,0,1,112,224V144L60.8,182.4a8,8,0,0,1-11.2-1.6,8.1,8.1,0,0,1,1.6-11.2L113,123.3,42.1,45.4a8,8,0,0,1,.5-11.3,7.9,7.9,0,0,1,11.3.5L151,141.4l.2.2,31.3,34.5h.2l31.2,34.4a8,8,0,0,1-11.8,10.8l-26.4-29.1-50.9,38.1A7.7,7.7,0,0,1,120,232Zm8-88v64l36.8-27.6-25-27.6Zm22.5-30.9a8,8,0,0,1-4.8-14.4l25-18.7L128,48V71.6a8,8,0,0,1-16,0V32a8,8,0,0,1,12.8-6.4l64,48a8,8,0,0,1,0,12.8l-33.5,25.1A7.7,7.7,0,0,1,150.5,113.1Z"/></svg>