<svg id="Flat" xmlns="http://www.w3.org/2000/svg" viewBox="0 0 256 256">
  <path d="M119.99316,232.00244a8.00048,8.00048,0,0,1-7.999-8v-80l-51.2002,38.3999a7.9998,7.9998,0,1,1-9.5996-12.7998l61.72753-46.2959L42.08057,45.38135a7.99991,7.99991,0,1,1,11.83886-10.7627l97.06592,106.77246c.06983.07422.13867.14942.20508.22559l31.30469,34.43555c.04443.04687.08789.09472.13086.14355l31.29345,34.42285a7.99991,7.99991,0,0,1-11.83886,10.7627l-26.45606-29.10156-50.83057,38.12255A7.99531,7.99531,0,0,1,119.99316,232.00244Zm8.001-88v64l36.81934-27.61474-25.05909-27.56495ZM150.47656,113.146a8.00038,8.00038,0,0,1-4.80615-14.40039l24.99023-18.74317-42.6665-32V71.62207a8,8,0,0,1-16,0V32.00244a8,8,0,0,1,12.7998-6.3999l64,48a7.9995,7.9995,0,0,1,0,12.7998L155.27,111.54541A7.96566,7.96566,0,0,1,150.47656,113.146Z"/>
</svg>
