<svg xmlns="http://www.w3.org/2000/svg" viewBox="0 0 256 256"><path d="M48,96v16H32a8,8,0,0,1,0-16ZM68.3,50.8A79.9,79.9,0,0,0,48.4,96H207.6a79.6,79.6,0,0,0-20-45.3l17.8-16.9a7.9,7.9,0,0,0,.3-11.3,8,8,0,0,0-11.3-.3L175.8,39.9a79.8,79.8,0,0,0-95.7.1L61.4,22.2a8,8,0,0,0-11,11.6ZM232,104a8,8,0,0,0-8-8H208v16h16A8,8,0,0,0,232,104Zm-24,48a70.3,70.3,0,0,1-.4,8H224a8,8,0,0,1,0,16H204.3a80,80,0,0,1-152.6,0H32a8,8,0,0,1,0-16H48.4a70.3,70.3,0,0,1-.4-8v-8H32a8,8,0,0,1,0-16H48V112H208v16h16a8,8,0,0,1,0,16H208Zm-72-16a8,8,0,0,0-16,0v64a8,8,0,0,0,16,0Z"/></svg>