<svg id="Flat" xmlns="http://www.w3.org/2000/svg" viewBox="0 0 256 256">
  <path d="M244,120H216v-8a87.787,87.787,0,0,0-3.24438-23.69629l23.16723-13.37549a8,8,0,0,0-8-13.85644L206.95752,73.17627a87.97531,87.97531,0,0,0-157.915,0L28.07715,61.07178a8,8,0,0,0-8,13.85644L43.24438,88.30371A87.787,87.787,0,0,0,40,112v8H12a8,8,0,0,0,0,16H40v8a87.78437,87.78437,0,0,0,3.24438,23.69629L20.07715,181.07178a8,8,0,1,0,8,13.85644l20.96533-12.104a87.9757,87.9757,0,0,0,157.915,0l20.96533,12.104a8,8,0,1,0,8-13.85644l-23.16723-13.37549A87.78437,87.78437,0,0,0,216,144v-8h28a8,8,0,0,0,0-16ZM136,208a8,8,0,0,1-16,0V144a8,8,0,0,1,16,0Zm64-88H56v-8a72,72,0,0,1,144,0ZM111.92969,92a12,12,0,1,1-12-12A12,12,0,0,1,111.92969,92Zm56,0a12,12,0,1,1-12-12A12,12,0,0,1,167.92969,92Z"/>
</svg>
