<svg id="Flat" xmlns="http://www.w3.org/2000/svg" viewBox="0 0 256 256">
  <path d="M48,96v16H32a8,8,0,0,1,0-16ZM68.30664,50.81543A79.69482,79.69482,0,0,0,48.40088,96H207.59912a79.69432,79.69432,0,0,0-19.969-45.25732L205.44336,33.7959A7.99956,7.99956,0,1,0,194.416,22.2041L175.81519,39.8999a79.84411,79.84411,0,0,0-95.70777.05908L61.44336,22.2041A7.99956,7.99956,0,0,0,50.416,33.7959ZM232,104a8.00039,8.00039,0,0,0-8-8H208v16h16A8.00039,8.00039,0,0,0,232,104Zm-24,48c0,2.7002-.13843,5.36816-.40088,8H224a8,8,0,0,1,0,16H204.31714a80.00273,80.00273,0,0,1-152.63428,0H32a8,8,0,0,1,0-16H48.40088C48.13843,157.36816,48,154.7002,48,152v-8H32a8,8,0,0,1,0-16H48V112H208v16h16a8,8,0,0,1,0,16H208Zm-72-16a8,8,0,0,0-16,0v64a8,8,0,0,0,16,0Z"/>
</svg>
