<svg xmlns="http://www.w3.org/2000/svg" viewBox="0 0 256 256"><path d="M244,120H216v-8a88.1,88.1,0,0,0-3.2-23.7l23.1-13.4a8,8,0,0,0,3-10.9,8.1,8.1,0,0,0-11-2.9L207,73.2a88,88,0,0,0-158,0L28.1,61.1a8.1,8.1,0,0,0-11,2.9,8,8,0,0,0,3,10.9L43.2,88.3A88.1,88.1,0,0,0,40,112v8H12a8,8,0,0,0,0,16H40v8a88.1,88.1,0,0,0,3.2,23.7L20.1,181.1a8,8,0,0,0,4,14.9,7.6,7.6,0,0,0,4-1.1L49,182.8a88,88,0,0,0,158,0l20.9,12.1a7.6,7.6,0,0,0,4,1.1,8,8,0,0,0,4-14.9l-23.1-13.4A88.1,88.1,0,0,0,216,144v-8h28a8,8,0,0,0,0-16ZM136,208a8,8,0,0,1-16,0V144a8,8,0,0,1,16,0Zm64-88H56v-8a72,72,0,0,1,144,0ZM111.9,92a12,12,0,1,1-12-12A12,12,0,0,1,111.9,92Zm56,0a12,12,0,1,1-12-12A12,12,0,0,1,167.9,92Z"/></svg>