<svg id="Flat" xmlns="http://www.w3.org/2000/svg" viewBox="0 0 256 256">
  <path d="M199.99414,175.98316a8.00009,8.00009,0,0,1-8,8h-16a8,8,0,0,1,0-16h16A8.00008,8.00008,0,0,1,199.99414,175.98316Zm-8-48h-16a8,8,0,0,0,0,16h16a8,8,0,1,0,0-16Zm40-24v120a8,8,0,0,1-16,0v-120h-64v120a8.00009,8.00009,0,0,1-8,8h-112a8.00009,8.00009,0,0,1-8-8v-184a16.01833,16.01833,0,0,1,16-16h96a16.01833,16.01833,0,0,1,16,16v48h64A16.01833,16.01833,0,0,1,231.99414,103.98316Zm-176-32a8.00009,8.00009,0,0,0,8,8h32a8,8,0,1,0,0-16h-32A8.00008,8.00008,0,0,0,55.99414,71.98316Zm48,120a8.00008,8.00008,0,0,0-8-8h-32a8,8,0,0,0,0,16h32A8.00009,8.00009,0,0,0,103.99414,191.98316Zm16-40a8.00008,8.00008,0,0,0-8-8h-32a8,8,0,0,0,0,16h32A8.00009,8.00009,0,0,0,119.99414,151.98316Z"/>
</svg>
