<svg id="Flat" xmlns="http://www.w3.org/2000/svg" viewBox="0 0 256 256">
  <path d="M39.37451,18.61865a8.00027,8.00027,0,0,0-11.83984,10.7627L51.7334,56H47.99951a24.0275,24.0275,0,0,0-24,24V192a24.0275,24.0275,0,0,0,24,24H197.188l19.4375,21.38135a8.00027,8.00027,0,0,0,11.83984-10.7627ZM128,168a35.97306,35.97306,0,0,1-27.86426-58.75781L148.02246,161.918A35.81152,35.81152,0,0,1,128,168ZM231.99951,80V186.02881a7.99995,7.99995,0,0,1-13.91992,5.38135L88.06592,48.39453a8.00079,8.00079,0,0,1-.73731-9.81787l2.00782-3.01318A7.99954,7.99954,0,0,1,95.99365,32h64a7.99942,7.99942,0,0,1,6.65625,3.5625L180.2749,56h27.72461A24.0275,24.0275,0,0,1,231.99951,80Z"/>
</svg>
