<svg xmlns="http://www.w3.org/2000/svg" viewBox="0 0 256 256"><path d="M39.4,18.6a7.9,7.9,0,0,0-11.3-.5,8,8,0,0,0-.6,11.3L51.7,56H48A24.1,24.1,0,0,0,24,80V192a24.1,24.1,0,0,0,24,24H197.2l19.4,21.4a8.2,8.2,0,0,0,5.9,2.6,7.8,7.8,0,0,0,5.4-2.1,8,8,0,0,0,.6-11.3ZM128,168a36,36,0,0,1-36-36,36.4,36.4,0,0,1,8.1-22.8L148,161.9A35.3,35.3,0,0,1,128,168ZM232,80V186a8,8,0,0,1-5.1,7.5,9.8,9.8,0,0,1-2.9.5,7.9,7.9,0,0,1-5.9-2.6l-130-143a8,8,0,0,1-.8-9.8l2-3A7.9,7.9,0,0,1,96,32h64a7.6,7.6,0,0,1,6.6,3.6L180.3,56H208A24.1,24.1,0,0,1,232,80Z"/></svg>