<svg id="Flat" xmlns="http://www.w3.org/2000/svg" viewBox="0 0 256 256">
  <path d="M99.99854,116.45312a7.99932,7.99932,0,0,0,4-6.92773V37.46289a8.00029,8.00029,0,0,0-10.666-7.54248,104.15035,104.15035,0,0,0-67.59863,117.0835,7.99907,7.99907,0,0,0,11.8667,5.47461Zm-12-66.86328v55.31641L40.11621,132.55078Q40.00048,130.27881,40,128A88.20107,88.20107,0,0,1,87.99854,49.58984ZM232,128A104.0111,104.0111,0,0,1,38.32324,180.69922c-.10315-.17529-.19092-.35449-.27929-.53418-.03492-.05713-.07715-.10693-.11084-.165a8.00042,8.00042,0,0,1,2.92822-10.92822L120,123.38135V32a8.00008,8.00008,0,0,1,8-8,104.0515,104.0515,0,0,1,89.7384,51.49219c.113.16552.22644.33105.32849.50781.07557.13086.137.26562.20435.39893A103.36465,103.36465,0,0,1,232,128Z"/>
</svg>
