<svg id="Flat" xmlns="http://www.w3.org/2000/svg" viewBox="0 0 256 256">
  <path d="M231.99951,208a8.00039,8.00039,0,0,1-8,8h-192a8.00039,8.00039,0,0,1-8-8V48a8,8,0,0,1,16,0V156.68848l50.3457-50.34571a8.00122,8.00122,0,0,1,11.31446,0l26.34277,26.34375L188.68848,72h-20.686a8,8,0,0,1,0-16h40c.26367,0,.52686.01416.78955.04.11768.01123.23242.03369.34864.05029.14208.02.28466.03662.42529.06494.13232.02588.26074.0625.39062.09522.12354.03076.24707.0581.36914.09472.127.03858.25.08643.374.13135.12207.04346.24463.0835.36474.1333.11475.04737.2251.10352.33692.15625.12549.0586.25146.11426.374.18018.104.05566.20264.11963.3042.17969.12305.07324.24707.14257.36719.22314.10791.07227.209.15283.31347.23047.10547.07812.21289.15186.31543.23584.165.13574.32129.28125.4751.4292.03565.03418.07373.06348.10889.09814.0376.0376.06885.07911.10547.11719.1455.15088.28857.3042.42138.46631.08741.106.16407.21777.24512.32764.07373.09961.15137.19677.2207.30029.0835.12451.15625.25342.23194.38135.05713.09668.11767.19043.1709.28955.06884.12793.12695.25976.18847.39062.04981.106.10254.21045.148.31934.05225.12646.09473.25537.14014.3833.04248.11865.08789.23486.12451.356.03906.1289.06787.25976.10059.39013.03076.123.06543.24414.09033.36914.02978.15186.04834.30518.06982.458.01465.10547.03467.20947.04541.31641.02637.26513.04.53125.04.79687V104a8,8,0,0,1-16,0V83.31445l-66.34277,66.34278a8.00122,8.00122,0,0,1-11.31446,0L96.00244,123.31348l-56.00293,56.0039V200h184A8.00039,8.00039,0,0,1,231.99951,208Z"/>
</svg>
