<svg id="Flat" xmlns="http://www.w3.org/2000/svg" viewBox="0 0 256 256">
  <path d="M219.99951,52.00012v152a16.01833,16.01833,0,0,1-16,16H135.63525a8,8,0,0,1,0-16h68.36426v-152h-152v91.27246a8,8,0,0,1-16,0V52.00012a16.01834,16.01834,0,0,1,16-16h152A16.01833,16.01833,0,0,1,219.99951,52.00012Zm-86.34277,94.34326a8.00121,8.00121,0,0,0-11.31445,0L63.99951,204.68664,37.65674,178.34338a8.00018,8.00018,0,1,0-11.31445,11.31348l32,32a8.00062,8.00062,0,0,0,11.31445,0l64-64A8,8,0,0,0,133.65674,146.34338Z"/>
</svg>
