<svg id="Flat" xmlns="http://www.w3.org/2000/svg" viewBox="0 0 256 256">
  <path d="M136,80v43.38116l37.56934,21.69062a8,8,0,1,1-8,13.85644l-41.56934-24c-.064-.03692-.12109-.0805-.18359-.11889-.13575-.08362-.271-.16779-.40088-.2591-.10352-.07232-.20215-.14892-.30127-.22534-.10205-.0788-.20362-.15765-.30127-.24115-.11182-.09479-.21778-.19342-.32276-.29333-.0791-.07532-.15771-.15064-.23388-.22913-.10694-.11017-.2085-.22351-.30811-.339-.06933-.08026-.13769-.16083-.2041-.24377-.0918-.1156-.1792-.23352-.26416-.35352-.06738-.09473-.1333-.19019-.19629-.2879-.07226-.11194-.14062-.22547-.207-.34058-.06592-.11438-.12988-.22986-.19043-.34778-.05322-.10418-.10352-.20941-.15186-.31561-.061-.13287-.11914-.26685-.17333-.4035-.03907-.09986-.0752-.20063-.11036-.30194-.0498-.14252-.09668-.28589-.13818-.432-.03027-.10687-.05664-.21454-.083-.32257-.0332-.13928-.06543-.27881-.09131-.42084-.02392-.12842-.0415-.25757-.05908-.38714-.0166-.12226-.0332-.244-.04394-.368-.01416-.16015-.01954-.3208-.02442-.48187C120.00879,128.14313,120,128.07269,120,128V80a8,8,0,0,1,16,0Zm88.1665-28.28418a7.99977,7.99977,0,0,0-8,8V80.4021L195.88184,60.11768a95.9551,95.9551,0,1,0,0,135.76464,7.99983,7.99983,0,1,0-11.31348-11.31347,80.00009,80.00009,0,1,1,0-113.1377L204.853,91.71582H184.1665a8,8,0,0,0,0,16h39.99756c.26465.00006.5293-.01392.793-.03992.11377-.01111.22363-.03265.33594-.04846.14648-.02069.293-.038.438-.06683.13134-.02606.25879-.06238.38818-.09479.12354-.03107.24805-.05817.37012-.09521.12842-.03888.25195-.087.37744-.132.1206-.04328.24219-.08307.36133-.13233.11816-.04889.231-.10626.34619-.16052.12109-.05725.24365-.11121.36279-.17493.11182-.06.21826-.12823.32715-.19329.11475-.06873.231-.13355.34326-.20856.12207-.08179.23731-.17267.35449-.2608.09131-.06861.18555-.13184.27442-.2049a8.05625,8.05625,0,0,0,1.11767-1.1181c.07178-.0871.13379-.17908.20069-.26844.08984-.1192.18213-.23632.26562-.36059.07373-.11041.1377-.2251.20508-.33826.06641-.11035.13574-.21844.19629-.33215.0625-.11676.11523-.23682.17187-.3559.05567-.11767.11426-.23346.16407-.35418.04785-.1153.08593-.233.12793-.34992.04687-.129.09619-.25659.13623-.38867.03564-.11786.06152-.23755.09131-.35657.03418-.13367.07128-.26575.09863-.402.02734-.13769.043-.27679.06348-.41552.01709-.11957.03955-.23725.05126-.35846.02588-.26227.04-.52539.04-.7887v-40A7.99977,7.99977,0,0,0,224.1665,51.71582Z"/>
</svg>
