<svg id="Flat" xmlns="http://www.w3.org/2000/svg" viewBox="0 0 256 256">
  <path d="M136,80v43.38116l37.56934,21.69062a8,8,0,1,1-8,13.85644l-41.56934-24c-.064-.03692-.12109-.0805-.18359-.11889-.13575-.08362-.271-.16779-.40088-.2591-.10352-.07232-.20215-.14892-.30127-.22534-.10205-.0788-.20362-.15765-.30127-.24115-.11182-.09479-.21778-.19342-.32276-.29333-.0791-.07532-.15771-.15064-.23388-.22913-.10694-.11017-.2085-.22351-.30811-.339-.06933-.08026-.13769-.16083-.2041-.24377-.0918-.1156-.1792-.23352-.26416-.35352-.06738-.09473-.1333-.19019-.19629-.2879-.07226-.11194-.14062-.22547-.207-.34058-.06592-.11438-.12988-.22986-.19043-.34778-.05322-.10418-.10352-.20941-.15185-.31561-.061-.13287-.11915-.26685-.17334-.4035-.03907-.09986-.0752-.20063-.11036-.30194-.0498-.14252-.09668-.28589-.13818-.432-.03027-.10687-.05664-.21454-.083-.32257-.0332-.13928-.06543-.27881-.09131-.42084-.02392-.12842-.0415-.25757-.05908-.38714-.0166-.12226-.0332-.244-.04394-.368-.01416-.16015-.01953-.3208-.02442-.48187C120.00879,128.14313,120,128.07269,120,128V80a8,8,0,0,1,16,0Zm59.88184-19.88232a96.10782,96.10782,0,0,0-135.76416,0L39.8335,80.402V59.71582a8,8,0,1,0-16,0v40l.001.02216q.00147.38388.03907.76654c.01171.12121.03417.23889.05126.35846.02051.13873.03614.27783.06348.41552.02735.13629.06445.26838.09863.402.02979.119.05567.23871.09131.35657.04.13208.08936.25964.13623.38867.042.11688.08008.23462.12793.34992.04981.12072.1084.23651.16407.35418.05664.11908.10937.23914.17187.3559.06055.11371.12988.2218.19629.33215.06738.11316.13135.22785.20508.33826.08349.12427.17578.24139.26562.36059.0669.08936.12891.18134.20069.26844a8.034,8.034,0,0,0,1.11865,1.11865c.08545.07025.17578.131.26367.19714.12061.091.23926.18439.36523.26856.10889.07275.22168.13568.3335.20251.11182.06739.22217.13764.3374.19959.11475.06115.23243.11279.34912.168.11963.05688.2378.11657.36084.1676.1128.04645.22754.08386.3418.125.13184.04773.2627.09821.39746.1391.11377.0343.229.0592.34375.08838.1377.03515.27442.07348.415.10132.13086.02588.2627.04089.394.06018.127.01855.25147.04223.38038.05481.23242.02282.46582.03283.69921.03534.0293.0003.05762.00439.08741.00439h40a8,8,0,0,0,0-16H51.147L71.43164,71.43115a80.00025,80.00025,0,1,1,0,113.13721,8.00035,8.00035,0,0,0-11.314,11.31445A96.0001,96.0001,0,0,0,195.88184,60.11768Z"/>
</svg>
