<svg id="Flat" xmlns="http://www.w3.org/2000/svg" viewBox="0 0 256 256">
  <path d="M213.91943,210.61865a7.99991,7.99991,0,1,1-11.83886,10.7627l-10.28174-11.30982A87.30213,87.30213,0,0,1,160,216H72A64,64,0,1,1,81.26172,88.667c.0199-.03979.04175-.07861.06177-.11841L42.08057,45.38135a7.99991,7.99991,0,1,1,11.83886-10.7627ZM160,40a87.31991,87.31991,0,0,0-52.10938,17.08057,8.00024,8.00024,0,0,0-1.17773,11.8247L213.76074,186.65771a8.00079,8.00079,0,0,0,5.91944,2.61866h.03466A7.99883,7.99883,0,0,0,225.646,186.606,88.00035,88.00035,0,0,0,160,40Z"/>
</svg>
