<svg xmlns="http://www.w3.org/2000/svg" viewBox="0 0 256 256"><path d="M229.9,70.8h-.1a15.5,15.5,0,0,0-6-5.9l-88-49.5a16,16,0,0,0-15.6,0l-88,49.5a16.2,16.2,0,0,0-6,5.9.1.1,0,0,1-.1.1v.2A15,15,0,0,0,24,78.7v98.6a16.1,16.1,0,0,0,8.2,14l88,49.5a16.5,16.5,0,0,0,7.2,2h1.3a16.1,16.1,0,0,0,7.1-2l88-49.5a16.1,16.1,0,0,0,8.2-14V78.7A15.6,15.6,0,0,0,229.9,70.8ZM120.1,222.4,88,204.3V153.9a7.9,7.9,0,0,0-4.1-6.9L40,122.2V87.6l80.9,45.1Zm8.8-103.6L48.4,74,79,56.7,124.1,82a7.5,7.5,0,0,0,7.8,0L177,56.7,207.7,74Zm87.1,3.4L172.1,147a7.9,7.9,0,0,0-4.1,6.9v50.4l-31.9,18,.8-89.6,79.1-45Z"/></svg>