<svg id="Flat" xmlns="http://www.w3.org/2000/svg" viewBox="0 0 256 256">
  <path d="M174.03662,47.751A254.56425,254.56425,0,0,0,132.58789,9.44629c-.01221-.00855-.02576-.01392-.038-.02246a8.00533,8.00533,0,0,0-.95557-.56372c-.05969-.03-.11951-.05811-.17981-.08667a7.93294,7.93294,0,0,0-2.09961-.65625c-.07641-.0127-.15234-.02442-.229-.03491a7.20731,7.20731,0,0,0-2.17188,0c-.07666.01049-.15246.02221-.22888.03491a7.93389,7.93389,0,0,0-2.09973.65625c-.0603.02856-.12012.05664-.17981.08667a8.00533,8.00533,0,0,0-.95557.56372c-.0122.00854-.02575.01391-.038.02246A254.56425,254.56425,0,0,0,81.96338,47.751C54.51074,79.32129,40,112.60352,40,144a88,88,0,0,0,176,0C216,112.60352,201.48926,79.32129,174.03662,47.751ZM120,215.54492A72.095,72.095,0,0,1,56,144c0-49.95728,42.261-92.71143,64-111.397Z"/>
</svg>
