<svg id="Flat" xmlns="http://www.w3.org/2000/svg" viewBox="0 0 256 256">
  <path d="M80.11328,39.41211a8.00112,8.00112,0,0,1,2.75684-10.97363A88.01954,88.01954,0,0,1,216,104a8,8,0,0,1-16,0A72.01834,72.01834,0,0,0,91.08594,42.169,8.00181,8.00181,0,0,1,80.11328,39.41211ZM158.272,125.40723a8.00079,8.00079,0,0,0,11.20069-1.59571A31.86061,31.86061,0,0,0,176,104a48.02849,48.02849,0,0,0-63.56982-45.416,7.99955,7.99955,0,1,0,5.1875,15.13477A32.03087,32.03087,0,0,1,160,104a15.97942,15.97942,0,0,1-3.32324,10.20605A8.00086,8.00086,0,0,0,158.272,125.40723Zm14.47425,39.92041-.01026-.01123L97.2854,82.3208l-.02832-.03125L69.28845,51.52393l-.04455-.04883L53.91943,34.61816A8.00024,8.00024,0,1,0,42.08057,45.38184L53.20605,57.62012A87.3043,87.3043,0,0,0,40,104c0,33.49512,12.45557,45.50488,22.46387,55.15527C70.32227,166.73242,76,172.207,76,188a52.00105,52.00105,0,0,0,92.10742,33.09863,8,8,0,1,0-12.33594-10.18945A36.001,36.001,0,0,1,92,188c0-22.5918-9.7915-32.0332-18.43018-40.36328C64.53418,138.9248,56,130.69629,56,104a71.47341,71.47341,0,0,1,8.5011-33.95557L82.22388,89.53955A47.77032,47.77032,0,0,0,80,104a7.99677,7.99677,0,0,0,15.9668.65674l36.72143,40.39355A34.92369,34.92369,0,0,0,132,152a27.8785,27.8785,0,0,0,32.1604,27.66943l37.92017,41.71241a8.00024,8.00024,0,1,0,11.83886-10.76368Z"/>
</svg>
