<svg id="Flat" xmlns="http://www.w3.org/2000/svg" viewBox="0 0 256 256">
  <path d="M232,81.22363V191.99805a15.33741,15.33741,0,0,1-.76562,3.7832l-4.29688-3.93945-57.80371-52.99024Zm-74.707,68.48242-13.09668,12.00489a24.00408,24.00408,0,0,1-32.41406-.02051L98.708,149.70605,39.875,203.63867l-3.873,3.54981a15.37882,15.37882,0,0,0,3.998.80957H216a15.37882,15.37882,0,0,0,3.99805-.80957l-3.87305-3.54981ZM24,81.22363V191.99805a15.33741,15.33741,0,0,0,.76562,3.7832l4.29688-3.93945,57.80469-52.99024Zm98.59375,68.67285a8.00452,8.00452,0,0,0,10.8125,0l96-88A8.00271,8.00271,0,0,0,224,47.99805H32a8.00271,8.00271,0,0,0-5.40625,13.89843Z"/>
</svg>
