<svg xmlns="http://www.w3.org/2000/svg" viewBox="0 0 256 256"><path d="M84,160a8,8,0,0,1-8,8H36a8,8,0,0,1,0-16H76A8,8,0,0,1,84,160Zm-8-40H36a8,8,0,0,0,0,16H76a8,8,0,0,0,0-16Zm0-32H36a8,8,0,0,0,0,16H76a8,8,0,0,0,0-16Zm72,96H108a8,8,0,0,0,0,16h40a8,8,0,0,0,0-16Zm-72,0H36a8,8,0,0,0,0,16H76a8,8,0,0,0,0-16ZM180,72h40a8,8,0,0,0,0-16H180a8,8,0,0,0,0,16Zm40,112H180a8,8,0,0,0,0,16h40a8,8,0,0,0,0-16Zm0-32H180a8,8,0,0,0,0,16h40a8,8,0,0,0,0-16Zm0-32H180a8,8,0,0,0,0,16h40a8,8,0,0,0,0-16Zm0-32H180a8,8,0,0,0,0,16h40a8,8,0,0,0,0-16Zm-72,64H108a8,8,0,0,0,0,16h40a8,8,0,0,0,0-16Zm0-32H108a8,8,0,0,0,0,16h40a8,8,0,0,0,0-16Z"/></svg>