<svg xmlns="http://www.w3.org/2000/svg" viewBox="0 0 256 256"><path d="M247.3,131.3c-.4.9-10.5,23.3-33.3,43.8a8.6,8.6,0,0,1-5.4,2,8,8,0,0,1-5.9-2.6L101.4,63.1A8.1,8.1,0,0,1,106,49.8,132.4,132.4,0,0,1,128,48c34.9,0,66.6,13.3,91.7,38.3,18.8,18.9,27.3,37.7,27.6,38.5A8.2,8.2,0,0,1,247.3,131.3Zm-33.4,79.3a7.9,7.9,0,0,1-.5,11.3A8.2,8.2,0,0,1,208,224a8,8,0,0,1-5.9-2.6l-22-24.2A128.6,128.6,0,0,1,128,208c-34.9,0-66.6-13.3-91.7-38.3C17.5,150.8,9,132,8.7,131.3a8.2,8.2,0,0,1,0-6.5c.7-1.6,16.3-36,52.6-58.3L42.1,45.4A8,8,0,0,1,53.9,34.6Zm-68.2-51.3L98.5,107.4a36,36,0,0,0,47.2,51.9Z"/></svg>