<svg xmlns="http://www.w3.org/2000/svg" viewBox="0 0 256 256"><path d="M230.9,162.8a8,8,0,0,1-2.9,10.9,7.6,7.6,0,0,1-4,1.1,8,8,0,0,1-7-4L198.6,139a122.9,122.9,0,0,1-35.2,16.3l5.8,32.9a8.1,8.1,0,0,1-6.5,9.3h-1.4a8,8,0,0,1-7.9-6.6l-5.7-32.4A137.3,137.3,0,0,1,128,160a139.8,139.8,0,0,1-19.8-1.4L102.5,191a8,8,0,0,1-7.9,6.6H93.2a8.1,8.1,0,0,1-6.5-9.3l5.9-33a122.1,122.1,0,0,1-35.3-16.3L38.8,171a8.2,8.2,0,0,1-6.9,4A8,8,0,0,1,25,163l19.5-33.8a145.8,145.8,0,0,1-18.7-19.3A7.9,7.9,0,0,1,27,98.7a7.9,7.9,0,0,1,11.2,1.1,128.7,128.7,0,0,0,21.3,21h.1A109.7,109.7,0,0,0,128,144c29.3,0,51.8-10.3,68.3-23.1h.2a128.7,128.7,0,0,0,21.3-21A7.9,7.9,0,0,1,229,98.7a7.9,7.9,0,0,1,1.2,11.2,145.8,145.8,0,0,1-18.7,19.3Z"/></svg>