<svg id="Flat" xmlns="http://www.w3.org/2000/svg" viewBox="0 0 256 256">
  <path d="M247.31055,131.25647c-.41992.94531-10.54688,23.37207-33.35938,43.80566a8.00126,8.00126,0,0,1-11.25781-.57715L101.40234,63.06506a8.00028,8.00028,0,0,1,4.60254-13.27246A133.97063,133.97063,0,0,1,128,47.99963c34.87793,0,66.57324,13.26075,91.65723,38.34766,18.834,18.83594,27.30175,37.62109,27.65332,38.41113A8.00282,8.00282,0,0,1,247.31055,131.25647ZM213.91992,210.6178a8.0006,8.0006,0,0,1-11.83984,10.76367l-22.01441-24.21582A126.97091,126.97091,0,0,1,128,207.99963c-34.87793,0-66.57227-13.25781-91.65625-38.33886-18.834-18.832-27.30273-37.61329-27.6543-38.4043a8.00282,8.00282,0,0,1,0-6.49805c.69556-1.564,16.31079-35.9209,52.63184-58.21191l-19.24121-21.165A8.0006,8.0006,0,1,1,53.91992,34.6178ZM145.6814,159.34289l-47.20459-51.9248a35.98114,35.98114,0,0,0,47.20459,51.9248Z"/>
</svg>
