<svg id="Flat" xmlns="http://www.w3.org/2000/svg" viewBox="0 0 256.00098 256.00098">
  <path d="M136.001,119.99988v96a8,8,0,0,1-16,0v-96a8,8,0,1,1,16,0Zm64,72a7.99987,7.99987,0,0,0-8,8.00049l.001,16a8,8,0,0,0,16-.001l-.001-16A8,8,0,0,0,200.001,191.99988Zm24-32h-16l.001-120a8,8,0,1,0-16,0l-.001,120h-16a8,8,0,0,0,0,16h48a8,8,0,0,0,0-16Zm-168,0a8.00039,8.00039,0,0,0-8,8l-.00049,48a8,8,0,0,0,16,0l.00049-48A8.00009,8.00009,0,0,0,56.001,159.99988Zm24-32h-16l-.00049-88a8,8,0,0,0-16,0l.00049,88h-16a8,8,0,0,0,0,16h48a8,8,0,1,0,0-16Zm72-48h-16v-40a8,8,0,1,0-16,0v40h-16a8,8,0,0,0,0,16h48a8,8,0,0,0,0-16Z"/>
</svg>
