<svg id="Flat" xmlns="http://www.w3.org/2000/svg" viewBox="0 0 256 256">
  <path d="M213.59,82.27,157.66,26.34l-.25-.22-.33-.3-.23-.17-.4-.3-.19-.11-.48-.29-.14-.07-.57-.27-.1,0a4.88,4.88,0,0,0-.64-.23l-.09,0c-.22-.06-.44-.12-.66-.16l-.22,0L152.8,24a7.14,7.14,0,0,0-.8,0H56A16,16,0,0,0,40,40V216a16,16,0,0,0,16,16H200a16,16,0,0,0,16-16V88.15c0-.05,0-.1,0-.15A8,8,0,0,0,213.59,82.27ZM165.45,189.46a8,8,0,0,1-11.31,0l-11-11a36,36,0,1,1,11.32-11.31l11,11A8,8,0,0,1,165.45,189.46ZM152,88V43.31L196.69,88Z"/>
  <path d="M124,128a20,20,0,1,0,14.15,5.85A19.93,19.93,0,0,0,124,128Z"/>
</svg>
