<svg xmlns="http://www.w3.org/2000/svg" viewBox="0 0 256 256"><path d="M40,144V104a8,8,0,0,1,16,0v40a8,8,0,0,1-16,0ZM80,24H56A16,16,0,0,0,40,40V64a8,8,0,0,0,16,0V40H80a8,8,0,0,0,0-16ZM72,216H56V184a8,8,0,0,0-16,0v32a16,16,0,0,0,16,16H72a8,8,0,0,0,0-16ZM213.6,82.3l-55.9-56h-.2l-.4-.4h-.2l-.4-.3c-.1-.1-.2-.1-.2-.2l-.5-.3h-.2l-.5-.3H155l-.7-.3H120a8,8,0,0,0,0,16h24V88a8,8,0,0,0,8,8h48v40a8,8,0,0,0,16,0V88A7.8,7.8,0,0,0,213.6,82.3ZM208,168a8,8,0,0,0-8,8v40h-8a8,8,0,0,0,0,16h8a16,16,0,0,0,16-16V176A8,8,0,0,0,208,168Zm-56,48H112a8,8,0,0,0,0,16h40a8,8,0,0,0,0-16Z"/></svg>