<svg xmlns="http://www.w3.org/2000/svg" viewBox="0 0 256 256"><path d="M232,128a298.1,298.1,0,0,1-5.6,57.5,7.9,7.9,0,0,1-7.8,6.5,4.4,4.4,0,0,1-1.6-.2,8,8,0,0,1-6.3-9.3A284.4,284.4,0,0,0,216,128a88,88,0,0,0-176,0,104.5,104.5,0,0,1-5.9,34.7,8.1,8.1,0,0,1-7.6,5.3,6.3,6.3,0,0,1-2.6-.5A7.9,7.9,0,0,1,19,157.3,88,88,0,0,0,24,128a104,104,0,0,1,208,0ZM93,84.3A8,8,0,1,0,83,71.8,71.7,71.7,0,0,0,56,128a119,119,0,0,1-12.5,53.4,8.1,8.1,0,0,0,3.6,10.7,9.4,9.4,0,0,0,3.6.8,8.1,8.1,0,0,0,7.2-4.4A136.1,136.1,0,0,0,72,128,55.9,55.9,0,0,1,93,84.3ZM128,120a8,8,0,0,0-8,8,183.3,183.3,0,0,1-23,89.1,8.1,8.1,0,0,0,3.2,10.9,7.5,7.5,0,0,0,3.8,1,8,8,0,0,0,7-4.1A199.8,199.8,0,0,0,136,128,8,8,0,0,0,128,120Zm0-32a40.1,40.1,0,0,0-40,40,8,8,0,0,0,16,0,24,24,0,0,1,48,0,214.3,214.3,0,0,1-20.5,92,7.9,7.9,0,0,0,3.8,10.6,7.1,7.1,0,0,0,3.4.8,8.1,8.1,0,0,0,7.3-4.6A230,230,0,0,0,168,128,40,40,0,0,0,128,88ZM94.4,152.2a7.9,7.9,0,0,0-9.4,6.2,153.2,153.2,0,0,1-17.2,45.4,8.1,8.1,0,0,0,2.9,11,8.2,8.2,0,0,0,4,1,7.9,7.9,0,0,0,6.9-4,164.4,164.4,0,0,0,19.1-50.2A8.1,8.1,0,0,0,94.4,152.2ZM128,56a68,68,0,0,0-9,.6,8,8,0,1,0,2,15.8,54.8,54.8,0,0,1,7-.4,56,56,0,0,1,56,56,245.7,245.7,0,0,1-1.9,31,7.9,7.9,0,0,0,6.9,8.9h1a8.1,8.1,0,0,0,8-7,279.7,279.7,0,0,0,2-33A72.1,72.1,0,0,0,128,56Zm57.9,128.3a7.9,7.9,0,0,0-9.7,5.7c-1.5,5.7-3.2,11.4-5,17a8,8,0,0,0,5,10.1,8,8,0,0,0,10.1-5.1q3-8.9,5.4-18A8,8,0,0,0,185.9,184.3Z"/></svg>