<svg id="Flat" xmlns="http://www.w3.org/2000/svg" viewBox="0 0 256 256">
  <path d="M225.00488,43.26709a16.05936,16.05936,0,0,0-12.27246-12.273C193.83984,26.90332,129.00684,16.752,88.01172,57.83643,61.60254,84.30322,50.59961,126.22266,55.10059,182.85791q-17.73487-2.40894-37.38965-6.70947a8,8,0,1,0-3.42188,15.62988q22.355,4.89331,42.48828,7.40967,2.51367,20.1438,7.40723,42.52148a8.0002,8.0002,0,1,0,15.63086-3.41894q-4.30371-19.66992-6.709-37.42237c56.64648,4.51612,98.58789-6.48,125.05957-32.89013C239.24805,126.99023,229.0957,62.16064,225.00488,43.26709ZM197.19312,143.94482a87.969,87.969,0,0,1-85.14136-85.13916c35.09131-23.00488,82.31372-15.41552,97.31543-12.15283C212.61182,61.63721,220.20068,108.85791,197.19312,143.94482ZM168,76a12,12,0,1,1-12-12A12,12,0,0,1,168,76Z"/>
</svg>
