<svg xmlns="http://www.w3.org/2000/svg" viewBox="0 0 256 256"><path d="M225,43.3A15.9,15.9,0,0,0,212.7,31C193.8,26.9,129,16.8,88,57.8,61.6,84.3,50.6,126.2,55.1,182.9c-11.8-1.6-24.3-3.9-37.4-6.8a8,8,0,0,0-3.4,15.7c14.9,3.2,29.1,5.7,42.5,7.4,1.7,13.4,4.1,27.6,7.4,42.5A8,8,0,0,0,72,248l1.7-.2a7.9,7.9,0,0,0,6.1-9.5c-2.9-13.1-5.1-25.6-6.7-37.4,56.7,4.5,98.6-6.5,125.1-32.9C239.2,127,229.1,62.2,225,43.3ZM197.2,143.9a87.9,87.9,0,0,1-85.1-85.1c35-23,82.3-15.4,97.3-12.1C212.6,61.6,220.2,108.9,197.2,143.9ZM168,76a12,12,0,1,1-12-12A12,12,0,0,1,168,76Z"/></svg>