<svg id="Flat" xmlns="http://www.w3.org/2000/svg" viewBox="0 0 256 256">
  <path d="M223.99951,48.00452v120a8.00094,8.00094,0,0,1-3.20019,6.40039c-15.14161,11.35547-29.62012,15.42773-43.42871,15.42773-18.74707.001-36.25879-7.50488-52.52247-14.47461-26.7124-11.449-49.92529-21.38183-76.84863-3.21924v43.86573a8,8,0,0,1-16,0v-168c0-.05616.00733-.11036.0083-.16651.00342-.14624.01123-.292.022-.43774.00976-.126.0205-.251.03564-.37525.01562-.12622.03613-.25122.05762-.37646.02343-.13794.04834-.27539.07861-.41065.02539-.11206.05566-.22241.08594-.33325.03808-.14038.07666-.28.12207-.417.03662-.1106.07861-.21948.12012-.32861.04931-.12915.09863-.2583.15429-.38428.05225-.1189.11133-.23511.16944-.35181.05517-.1101.10986-.22021.16992-.32715.07031-.126.14746-.248.22461-.37036.05957-.0935.11767-.18725.18115-.27807.085-.123.17676-.24219.26953-.36084.06738-.08618.13428-.17237.20508-.25586.09326-.10987.19189-.21582.292-.32129.0835-.08814.16748-.17529.25488-.25952.09375-.09058.1919-.178.291-.26465.106-.09253.21289-.18237.32373-.26929.0459-.03613.08691-.07641.13428-.11181,35.69629-26.77247,67.707-13.05762,95.95117-.95313,27.7666,11.90039,51.749,22.17871,80.04883.95313a8.00012,8.00012,0,0,1,12.7998,6.40039Z"/>
</svg>
