<svg xmlns="http://www.w3.org/2000/svg" viewBox="0 0 256 256"><path d="M24,152V120a8,8,0,0,1,16,0v32a8,8,0,0,1-16,0Zm8-64a8,8,0,0,0,8-8V64H93.3l29.9,22.4A7.7,7.7,0,0,0,128,88a8,8,0,0,0,4.8-14.4L102.9,51.2A15.6,15.6,0,0,0,93.3,48H40A16,16,0,0,0,24,64V80A8,8,0,0,0,32,88ZM88,200H40v-8a8,8,0,0,0-16,0v8.6A15.4,15.4,0,0,0,39.4,216H88a8,8,0,0,0,0-16ZM216,72H168a8,8,0,0,0,0,16h48v24a8,8,0,0,0,16,0V88A16,16,0,0,0,216,72ZM160,200H128a8,8,0,0,0,0,16h32a8,8,0,0,0,0-16Zm64-56a8,8,0,0,0-8,8v48H200a8,8,0,0,0,0,16h16.9A15.2,15.2,0,0,0,232,200.9V152A8,8,0,0,0,224,144Z"/></svg>