<svg id="Flat" xmlns="http://www.w3.org/2000/svg" viewBox="0 0 256.00098 256.00098">
  <path d="M238.26562,108.35474A15.96155,15.96155,0,0,0,230.269,97.16187L209.74561,85.7688c-1.315-2.55029-2.75342-5.0459-4.29981-7.46094l.395-23.4917a15.93077,15.93077,0,0,0-5.68213-12.50976,111.53042,111.53042,0,0,0-34.03808-19.62159,15.962,15.962,0,0,0-13.69288,1.32862L132.2998,36.09106c-2.86816-.13623-5.749-.13916-8.61132-.00683L103.542,23.99634a15.92636,15.92636,0,0,0-13.67578-1.33447A111.52871,111.52871,0,0,0,55.854,42.32983a15.96062,15.96062,0,0,0-5.69482,12.522L50.55371,78.322c-1.55127,2.415-2.99365,4.90869-4.31152,7.45459L25.70117,97.179a15.96882,15.96882,0,0,0-8.00049,11.21435,111.54278,111.54278,0,0,0,.03369,39.25244A15.96159,15.96159,0,0,0,25.731,158.83862l20.52343,11.39307c1.31495,2.55029,2.75342,5.0459,4.29981,7.46094l-.395,23.4917a15.93077,15.93077,0,0,0,5.68213,12.50976,111.53019,111.53019,0,0,0,34.03808,19.62158,15.96,15.96,0,0,0,13.69288-1.32861l20.12793-12.07764c2.86816.13672,5.749.13868,8.61132.00684L152.458,232.00415a15.92909,15.92909,0,0,0,13.67578,1.33447,111.52853,111.52853,0,0,0,34.01221-19.668,15.9606,15.9606,0,0,0,5.69482-12.522l-.39453-23.47021c1.55127-2.415,2.99365-4.90869,4.31152-7.45459l20.541-11.40235a15.971,15.971,0,0,0,8.00049-11.21435A111.54254,111.54254,0,0,0,238.26562,108.35474Zm-110.26953,63.6455a44,44,0,1,1,44-44A44.04978,44.04978,0,0,1,127.99609,172.00024Z"/>
</svg>
