<svg id="Flat" xmlns="http://www.w3.org/2000/svg" viewBox="0 0 256.00098 256.00098">
  <path d="M232.39893,147.19849l-12.43555-16.58106c.02441-.87305.03662-1.74707.03662-2.6167,0-.87011-.01221-1.74511-.03711-2.61963l12.43066-16.57959A16.027,16.027,0,0,0,234.874,94.4314a111.771,111.771,0,0,0-7.55273-18.25489,16.03338,16.03338,0,0,0-11.92481-8.42236l-20.51757-2.93066q-.89941-.95216-1.82422-1.877-.92286-.92285-1.87842-1.82617l-2.93359-20.51465a16.03112,16.03112,0,0,0-8.40821-11.91406,111.63482,111.63482,0,0,0-18.248-7.56689,16.038,16.038,0,0,0-14.38819,2.47607L130.61816,36.03638c-1.74755-.04834-3.48877-.04834-5.23632,0L108.80078,23.60425a16.0357,16.0357,0,0,0-14.37012-2.47852,111.64291,111.64291,0,0,0-18.25244,7.55274,16.03277,16.03277,0,0,0-8.42431,11.9248L64.82324,61.12085q-.95434.90234-1.876,1.82471-.92433.92358-1.82666,1.87793L40.60547,67.75708a16.03033,16.03033,0,0,0-11.91309,8.4082A111.6595,111.6595,0,0,0,21.125,94.41333a16.03529,16.03529,0,0,0,2.47607,14.3877l12.43555,16.58105c-.02441.873-.03662,1.74707-.03662,2.6167,0,.87012.01221,1.74512.03711,2.61963L23.60645,147.198A16.027,16.027,0,0,0,21.126,161.56812,111.77091,111.77091,0,0,0,28.67871,179.823a16.03338,16.03338,0,0,0,11.92481,8.42236L61.12109,191.176q.89941.95214,1.82422,1.87695.92286.92284,1.87842,1.82617l2.93359,20.51465a16.03112,16.03112,0,0,0,8.40821,11.91406,111.63537,111.63537,0,0,0,18.248,7.5669,15.89623,15.89623,0,0,0,4.76221.72851,16.06163,16.06163,0,0,0,9.626-3.20459l16.58008-12.43555c1.74755.04932,3.48877.04883,5.23632,0l16.58106,12.43213a16.03566,16.03566,0,0,0,14.37012,2.47852,111.64291,111.64291,0,0,0,18.25244-7.55274,16.03277,16.03277,0,0,0,8.42431-11.9248l2.93067-20.51758q.95435-.90234,1.876-1.8247.92433-.92359,1.82666-1.87793l20.51514-2.9336a16.03031,16.03031,0,0,0,11.91309-8.4082,111.65914,111.65914,0,0,0,7.56738-18.248A16.03526,16.03526,0,0,0,232.39893,147.19849ZM128,171.99976a44,44,0,1,1,44-44A44.04979,44.04979,0,0,1,128,171.99976Z"/>
</svg>
