<svg id="Flat" xmlns="http://www.w3.org/2000/svg" viewBox="0 0 256 256">
  <path d="M104.00049,68a36,36,0,1,0-44,35.0929v49.8142a36,36,0,1,0,16,0V103.0929A36.05516,36.05516,0,0,0,104.00049,68Zm-16,120a20,20,0,1,1-20-20A20.0226,20.0226,0,0,1,88.00049,188Zm136.002,0A36,36,0,1,1,180.002,152.90717l-.00146-33.02533a39.73874,39.73874,0,0,0-11.71582-28.28321L144.00049,67.31415V88a8,8,0,0,1-16,0V48.00513q0-.39918.04-.79706c.01074-.10773.03125-.21222.0459-.31867.02148-.15216.03955-.30456.06933-.45544.02539-.12622.06006-.24841.09131-.37244.03174-.12921.06055-.259.09912-.38678.03711-.12243.0835-.2406.126-.36047.04541-.12659.0874-.25385.13867-.37848.0459-.111.10059-.21728.15137-.32568.06006-.12866.11718-.25806.18506-.384.05517-.10279.11767-.20032.17724-.30036.07373-.124.144-.24921.22461-.36993.07373-.10968.15576-.21259.23438-.3183.07666-.10358.14892-.20947.23193-.31006.14844-.18091.30664-.35321.47021-.52032.02-.0207.03711-.0434.05762-.06391.01563-.01532.03223-.028.04785-.04315.17285-.16986.35157-.33319.53907-.487.08837-.07251.18164-.13538.27246-.20361.11865-.08924.23486-.181.35839-.26367.10645-.071.2168-.13221.3252-.19751.11523-.06934.22852-.14148.34766-.20508.11035-.05908.22412-.10889.33691-.16236.124-.059.24609-.1206.37354-.17328.10791-.04461.21826-.08038.32763-.12.13672-.04956.27149-.10162.41162-.14386.10889-.033.22022-.05676.33057-.085.14209-.03626.28223-.07569.42725-.10431.13037-.02576.26171-.04065.39257-.05994.12647-.01849.251-.04217.3794-.05469.24658-.02429.49365-.03607.74121-.03747.01562-.00006.03027-.00232.0459-.00232h40a8,8,0,0,1,0,16h-20.686l24.28467,24.28516a55.63508,55.63508,0,0,1,16.40137,39.59619L196.002,152.907A36.055,36.055,0,0,1,224.00244,188Z"/>
</svg>
