<svg xmlns="http://www.w3.org/2000/svg" viewBox="0 0 256 256"><path d="M187.8,42.9l-1.2-.7A103,103,0,0,0,128,24,104,104,0,0,0,42.6,187.3v.2l.8,1.1a104,104,0,0,0,147.8,21.9l1.4-1.1a105.3,105.3,0,0,0,30.8-40.2,6.1,6.1,0,0,0,.5-1.2A104,104,0,0,0,187.8,42.9Zm25,108.5-15.9-14.6a16.1,16.1,0,0,0-16.9-3l-30.5,12.7a16.1,16.1,0,0,0-9.7,12.4l-2.4,16.2A16.2,16.2,0,0,0,149.2,193l21.5,5.6,4,4a88,88,0,0,1-113.2-17l3.9-2.4a15.8,15.8,0,0,0,7.7-13.6l.2-33.8a8.3,8.3,0,0,1,1.3-4.3l14-22a8,8,0,0,1,11.4-2.2l12.8,9.3a16.5,16.5,0,0,0,11.6,2.9l31.4-4.3a15.8,15.8,0,0,0,10-5.4L188,84.2A15.8,15.8,0,0,0,191.8,73l-.2-5.8A87.7,87.7,0,0,1,216,128,86.4,86.4,0,0,1,212.8,151.4Z"/></svg>