<svg id="Flat" xmlns="http://www.w3.org/2000/svg" viewBox="0 0 256 256">
  <path d="M159.62793,135.99963c-1.81152,28.7522-13.17871,55.71-31.62793,74.44532-18.44922-18.73535-29.81641-45.69312-31.62793-74.44532Zm0-16.00024C157.81641,91.24744,146.44922,64.28967,128,45.55432c-18.44922,18.73535-29.81641,45.69312-31.62793,74.44507Zm15.97656,0h55.98926a104.0692,104.0692,0,0,0-103.55566-95.9978L133.25,28.54651C158.56738,50.61,173.64062,83.63025,175.60449,119.99939ZM122.75,28.54651l5.21191-4.54492a104.06919,104.06919,0,0,0-103.55566,95.9978H80.39551C82.35937,83.63025,97.43262,50.61,122.75,28.54651ZM80.396,135.99988l-55.98975-.00025a104.06922,104.06922,0,0,0,103.55566,95.99805L122.75,227.45276C97.43262,205.38928,82.35937,172.369,80.396,135.99988Zm52.854,91.45288-5.21191,4.54492a104.06873,104.06873,0,0,0,103.55517-95.9978l-55.98877-.00025C173.64062,172.369,158.56738,205.38928,133.25,227.45276Z"/>
</svg>
