<svg xmlns="http://www.w3.org/2000/svg" viewBox="0 0 256 256"><path d="M88,68v64a8,8,0,0,1-16,0V68a8,8,0,0,1,16,0Zm40,132a8,8,0,0,0-8,8v24a8,8,0,0,0,16,0V208A8,8,0,0,0,128,200Zm0-128a8,8,0,0,0-8,8v96a8,8,0,0,0,16,0V80A8,8,0,0,0,128,72ZM80,156a8,8,0,0,0-8,8v24a8,8,0,0,0,16,0V164A8,8,0,0,0,80,156ZM32,108a8,8,0,0,0-8,8v24a8,8,0,0,0,16,0V116A8,8,0,0,0,32,108Zm96-92a8,8,0,0,0-8,8V48a8,8,0,0,0,16,0V24A8,8,0,0,0,128,16Zm48,44a8,8,0,0,0-8,8V92a8,8,0,0,0,16,0V68A8,8,0,0,0,176,60Zm48,48a8,8,0,0,0-8,8v24a8,8,0,0,0,16,0V116A8,8,0,0,0,224,108Zm-48,8a8,8,0,0,0-8,8v64a8,8,0,0,0,16,0V124A8,8,0,0,0,176,116Z"/></svg>