<svg xmlns="http://www.w3.org/2000/svg" viewBox="0 0 256 256"><path d="M64,184a8,8,0,0,1-8,8H32a8,8,0,0,1,0-16H56A8,8,0,0,1,64,184Zm20-40a8,8,0,0,0-8-8H32a8,8,0,0,0,0,16H76A8,8,0,0,0,84,144Zm12,0a8,8,0,0,0,8,8h48a8,8,0,0,0,0-16H104A8,8,0,0,0,96,144ZM32,72H224a8,8,0,0,0,0-16H32a8,8,0,0,0,0,16Zm0,40h80a8,8,0,0,0,0-16H32a8,8,0,0,0,0,16Zm136,64H144a8,8,0,0,0,0,16h24a8,8,0,0,0,0-16Zm56-40H180a8,8,0,0,0,0,16h44a8,8,0,0,0,0-16ZM112,176H88a8,8,0,0,0,0,16h24a8,8,0,0,0,0-16ZM224,96H144a8,8,0,0,0,0,16h80a8,8,0,0,0,0-16Zm0,80H200a8,8,0,0,0,0,16h24a8,8,0,0,0,0-16Z"/></svg>