<svg id="Flat" xmlns="http://www.w3.org/2000/svg" viewBox="0 0 256 256">
  <path d="M192.9707,35.02637l9.17774-13.10645a6.00007,6.00007,0,0,1,9.83008,6.88281l-9.17774,13.10645a6.00007,6.00007,0,0,1-9.83008-6.88281Zm-21.81836-2.50489a5.99287,5.99287,0,0,0,7.34864-4.24316l4.1416-15.4541a6.00029,6.00029,0,0,0-11.5918-3.10547l-4.1416,15.4541A6.001,6.001,0,0,0,171.15234,32.52148ZM207.251,99.13184a78.372,78.372,0,0,1-14.05957,95.76562A78.0057,78.0057,0,0,1,52.4375,206.98828l-37-64.08594A23.98051,23.98051,0,0,1,36.23,106.91455l-3.61475-6.26123A23.98424,23.98424,0,0,1,49.90137,64.916,24.00066,24.00066,0,0,1,91.27,43.10791a23.97141,23.97141,0,0,1,41.8042-.45459l15.61621,27.04834a23.98748,23.98748,0,0,1,41.56055-.01514Zm-30.10547,35.85644-17-29.44531a11.99981,11.99981,0,1,0-20.78418,12l.00049.00073,15.99951,27.71216a6.00012,6.00012,0,1,1-10.39258,6l-42-72.74609a11.99981,11.99981,0,1,0-20.78418,12v.00048l30,51.96143a6.00012,6.00012,0,0,1-10.39258,6l-38-65.81836a11.99981,11.99981,0,1,0-20.78418,12l38,65.81836a6.00012,6.00012,0,1,1-10.39258,6l-23.999-41.56812-.001-.00122a12.00023,12.00023,0,0,0-20.78515,12l37,64.08594a66,66,0,1,0,114.31543-66Zm58.4082-89.49316a5.99994,5.99994,0,0,0-8.35644-1.47364l-13.10645,9.17774a6.00007,6.00007,0,1,0,6.88281,9.83008l13.10645-9.17774A6.0002,6.0002,0,0,0,235.55371,45.49512Z"/>
</svg>
