<svg xmlns="http://www.w3.org/2000/svg" viewBox="0 0 256 256"><path d="M168,31a8,8,0,0,1,8-8h0a60.2,60.2,0,0,1,52,30,7.9,7.9,0,0,1-3,10.9,7.1,7.1,0,0,1-4,1.1,8,8,0,0,1-6.9-4A44,44,0,0,0,176,39,8,8,0,0,1,168,31Zm61,139.8A88,88,0,0,1,67.8,192l-42-72.8A28.1,28.1,0,0,1,36,81a28.5,28.5,0,0,1,11.8-3.7l-3.4-5.8A27.9,27.9,0,0,1,54.7,33.3a27.1,27.1,0,0,1,21.2-2.8,27.9,27.9,0,0,1,11.5,6.2,29.4,29.4,0,0,1,9.9-9.6,28.1,28.1,0,0,1,38.3,10.3l17.3,30a28.1,28.1,0,0,1,47.3,1.9l20,34.7A87.2,87.2,0,0,1,229,170.8ZM206.3,112l-20-34.7a11.8,11.8,0,0,0-7.2-5.5,11.9,11.9,0,0,0-13.5,17.5l10,17.4.3.7c.1.2.2.3.2.5v.2a1.9,1.9,0,0,1,.2.7h0a6.4,6.4,0,0,1,.2.7h0v.7h0v1.4c-.1,0-.1.1-.1.2s-.1.4-.1.6h-.1a1.9,1.9,0,0,1-.2.7v.2l-.2.5h-.1l-.3.6h0l-.4.5h0l-.5.5h0l-.6.6h-.1l-.5.4-.7.4a32,32,0,0,0-11.7,43.7,8,8,0,0,1-13.8,8,48.1,48.1,0,0,1,10.9-61l-6.3-11h0l-30-51.9a12,12,0,1,0-20.8,12l26,45a8,8,0,0,1-2.9,10.9,7.9,7.9,0,0,1-8.5-.3,6.7,6.7,0,0,1-2.4-2.6l-26-45H87L79.1,51.5a12.5,12.5,0,0,0-7.3-5.6,12,12,0,0,0-9.1,1.2,11.8,11.8,0,0,0-5.6,7.3,12,12,0,0,0,1.2,9.1l16,27.7h0l22,38.1a8.1,8.1,0,0,1-2.9,11l-.9.4h-.3l-.6.2h-.3l-.9.2H88.2l-.8-.2h-.1l-.9-.3h-.2l-.6-.3h-.3l-.7-.5h-.1l-.7-.6-.2-.2-.5-.5v-.2l-.6-.9-22-38.1a12,12,0,0,0-20.8,12l42,72.8A72.1,72.1,0,0,0,180,210.3,72,72,0,0,0,206.3,112ZM85.7,233.4A102.6,102.6,0,0,1,54.9,200a8,8,0,1,0-13.8,8,117.9,117.9,0,0,0,35.4,38.6,8.6,8.6,0,0,0,4.6,1.4,8.2,8.2,0,0,0,6.6-3.4A8.1,8.1,0,0,0,85.7,233.4Z"/></svg>