<svg id="Flat" xmlns="http://www.w3.org/2000/svg" viewBox="0 0 256 256">
  <path d="M144.00879,224.001a8.00481,8.00481,0,0,1-7.87988-9.43164L144.5957,168H96.8584l-8.98731,49.43066a8.00005,8.00005,0,1,1-15.74218-2.86132L80.5957,168H32a8,8,0,0,1,0-16H83.50488l8.72754-48H43.63672a8,8,0,0,1,0-16H95.1416l8.98731-49.43066a8.00005,8.00005,0,1,1,15.74218,2.86132L111.4043,88h47.7373l8.98731-49.43066a8.00005,8.00005,0,1,1,15.74218,2.86132L175.4043,88H224a8,8,0,0,1,0,16H172.49512l-8.72754,48h48.5957a8,8,0,1,1,0,16H160.8584l-8.98731,49.43066A8.00271,8.00271,0,0,1,144.00879,224.001ZM99.76758,152h47.7373l8.72754-48h-47.7373Z"/>
</svg>
