<svg id="Flat" xmlns="http://www.w3.org/2000/svg" viewBox="0 0 256 256">
  <path d="M233.45605,136v56a24.0275,24.0275,0,0,1-24,24h-16a24.0275,24.0275,0,0,1-24-24V152a24.0275,24.0275,0,0,1,24-24h23.64454a88.01738,88.01738,0,0,0-88.31348-79.99756c-.041.00049-.07813.00049-.11914,0A88.01928,88.01928,0,0,0,40.35547,128H64a24.0275,24.0275,0,0,1,24,24v40a24.0275,24.0275,0,0,1-24,24H48a24.0275,24.0275,0,0,1-24-24V136A104.00025,104.00025,0,0,1,128.72754,32.00244c.24414-.00146.49121-.00244.73535-.00244A104.00007,104.00007,0,0,1,233.45605,136Z"/>
</svg>
