<svg id="Flat" xmlns="http://www.w3.org/2000/svg" viewBox="0 0 256 256">
  <path d="M236,92c0,30.56494-17.71387,62.00488-52.64844,93.44629A317.34027,317.34027,0,0,1,131.90918,222.98a8.00089,8.00089,0,0,1-7.81836,0c-3.333-1.8667-65.456-37.16992-92.10693-86.98H72a7.99943,7.99943,0,0,0,6.65625-3.5625L88,118.42236l25.34375,38.01514a7.99959,7.99959,0,0,0,13.3125,0L140.28125,136H160a8,8,0,0,0,0-16H136a7.99943,7.99943,0,0,0-6.65625,3.5625L120,137.57764,94.65625,99.5625a7.99959,7.99959,0,0,0-13.3125,0L67.71875,120H24.92969A85.2156,85.2156,0,0,1,20,92,60.02029,60.02029,0,0,1,128,55.95947,60.02029,60.02029,0,0,1,236,92Z"/>
</svg>
