<svg id="Flat" xmlns="http://www.w3.org/2000/svg" viewBox="0 0 256 256">
  <path d="M167.99951,100a12,12,0,1,1-12-12A12,12,0,0,1,167.99951,100Zm64.001-43.99988V199.99963a16.01833,16.01833,0,0,1-16,16h-176a16.01833,16.01833,0,0,1-16-16V56.00012a16.01833,16.01833,0,0,1,16-16h176A16.01834,16.01834,0,0,1,232.00049,56.00012ZM216.00781,164.69379l-.00732-108.69367h-176v92.68433l42.3418-42.34107a8.00121,8.00121,0,0,1,11.31445,0l50.34277,50.34278,26.34278-26.34278a8.00121,8.00121,0,0,1,11.31445,0Z"/>
</svg>
