<svg id="Flat" xmlns="http://www.w3.org/2000/svg" viewBox="0 0 256 256">
  <path d="M111.99951,92a12,12,0,1,1-12-12A12,12,0,0,1,111.99951,92Zm112.001-44.00037v160a16.01833,16.01833,0,0,1-16,16h-160a16.01833,16.01833,0,0,1-16-16l-.001-31.99524.001-.0307V47.99963a16.01833,16.01833,0,0,1,16-16h160A16.01834,16.01834,0,0,1,224.00049,47.99963Zm-15.99414,92.6922-.00586-92.6922h-160V156.68457L68.686,135.99963a16.02161,16.02161,0,0,1,22.62792,0l20.68653,20.68653L156.686,111.99963a16.019,16.019,0,0,1,22.62792,0Z"/>
</svg>
