<svg id="Flat" xmlns="http://www.w3.org/2000/svg" viewBox="0 0 256 256">
  <path d="M44.2085,216.791q2.38184.8096,4.78955,1.52478L29.65674,237.65723a8.00018,8.00018,0,0,1-11.31348-11.31446l19.34082-19.34069q.71943,2.40645,1.5249,4.78991A8.00059,8.00059,0,0,0,44.2085,216.791ZM216.791,44.2085A7.99794,7.99794,0,0,0,211.7915,39.209,135.76626,135.76626,0,0,0,168,32C93.00928,32,32,93.00928,32,168a135.916,135.916,0,0,0,5.68408,39.00208L154.34326,90.34326a7.99984,7.99984,0,0,1,11.31348,11.31348L48.99805,218.3158A135.92719,135.92719,0,0,0,88,224c74.99072,0,136-61.00977,136-136A135.76626,135.76626,0,0,0,216.791,44.2085Z"/>
</svg>
