<svg id="Flat" xmlns="http://www.w3.org/2000/svg" viewBox="0 0 256 256">
  <path d="M162.44678,203.00293a87.1861,87.1861,0,0,1-45.79834,12.84473c-1.1084,0-2.21826-.01954-3.33545-.05957-15.95691-.56855-32.06445-5.22327-47.96338-13.8238L165.65674,101.65674a7.99984,7.99984,0,0,0-11.31348-11.31348L54.03589,190.65027c-8.60083-15.89911-13.25537-32.00647-13.824-47.96326A87.32048,87.32048,0,0,1,52.99756,93.55322C79.05371,50.53076,140.15625,27.521,216.46973,32.01367a8.00074,8.00074,0,0,1,7.5166,7.5166C228.47461,115.83447,205.46924,176.94629,162.44678,203.00293ZM57.14014,196.11621c-1.09119-1.8186-2.11719-3.64123-3.10425-5.46594l-19.69263,19.6925a8.00018,8.00018,0,0,0,11.31348,11.31446l19.69287-19.69294c-1.82446-.98693-3.647-2.01287-5.46533-3.10394A7.99592,7.99592,0,0,1,57.14014,196.11621Z"/>
</svg>
