<svg xmlns="http://www.w3.org/2000/svg" viewBox="0 0 256 256"><path d="M202.2,55.2a2.3,2.3,0,0,0-.7-.7,2.3,2.3,0,0,0-.7-.7,103.8,103.8,0,0,0-145.6,0,2.3,2.3,0,0,0-.7.7,2.3,2.3,0,0,0-.7.7,103.8,103.8,0,0,0,0,145.6l.7.7a2.3,2.3,0,0,0,.7.7,103.8,103.8,0,0,0,145.6,0,2.3,2.3,0,0,0,.7-.7,2.3,2.3,0,0,0,.7-.7,103.8,103.8,0,0,0,0-145.6ZM128,216a87.9,87.9,0,0,1-56.3-20.4l28.5-28.5a47.9,47.9,0,0,0,55.6,0l28.5,28.5A87.9,87.9,0,0,1,128,216ZM96,128a32,32,0,1,1,32,32A32.1,32.1,0,0,1,96,128Zm59.8-39.1a47.9,47.9,0,0,0-55.6,0L71.7,60.4a87.9,87.9,0,0,1,112.6,0Z"/></svg>