<svg id="Flat" xmlns="http://www.w3.org/2000/svg" viewBox="0 0 256 256">
  <path d="M213.91943,210.61475a7.99991,7.99991,0,1,1-11.83886,10.76269l-38.38111-42.21911-61.85083,66.26892a8.00018,8.00018,0,0,1-13.69336-7.02735l14.666-73.3291L45.19092,143.45947a8.00053,8.00053,0,0,1-3.03955-12.94922l39.16992-41.968L42.08057,45.37744A7.99991,7.99991,0,1,1,53.91943,34.61475Zm-34.15381-61.35547a8.00013,8.00013,0,0,0,5.86719,2.61865h.05225a8.00073,8.00073,0,0,0,5.84863-2.5415l22.31494-23.90918a7.99994,7.99994,0,0,0-3.03955-12.94922L153.17871,90.8667l14.666-73.3291a8.00018,8.00018,0,0,0-13.69336-7.02735l-45.894,49.17237a8.00006,8.00006,0,0,0-.0708,10.83984Z"/>
</svg>
