<svg xmlns="http://www.w3.org/2000/svg" viewBox="0 0 256 256"><path d="M213.9,210.6a7.9,7.9,0,0,1-.5,11.3A8.2,8.2,0,0,1,208,224a8,8,0,0,1-5.9-2.6l-38.4-42.2-61.9,66.2A7.7,7.7,0,0,1,96,248a8.4,8.4,0,0,1-3.7-.9,8.1,8.1,0,0,1-4.1-8.7l14.6-73.3L45.2,143.5a8.2,8.2,0,0,1-5-5.7,7.9,7.9,0,0,1,2-7.3L81.3,88.6,42.1,45.4a7.9,7.9,0,0,1,.5-11.3,8,8,0,0,1,11.3.5Zm-34.1-61.3a8,8,0,0,0,5.8,2.6h.1a7.7,7.7,0,0,0,5.8-2.6l22.3-23.9a7.9,7.9,0,0,0-3-12.9L153.2,90.9l14.6-73.4a8,8,0,0,0-13.6-7L108.3,59.7a7.9,7.9,0,0,0-.1,10.8Z"/></svg>