<svg id="Flat" xmlns="http://www.w3.org/2000/svg" viewBox="0 0 256 256">
  <path d="M225.25439,82.74512a51.65924,51.65924,0,0,1-15.22949,36.76953L181.74072,147.7998a52.0625,52.0625,0,0,1-73.54,0,8.00053,8.00053,0,0,1,11.31446-11.31445,36.04088,36.04088,0,0,0,50.91211,0l28.2832-28.28515A35.99926,35.99926,0,0,0,147.79932,57.29L128.00049,77.08887A8.00053,8.00053,0,1,1,116.686,65.77441l19.79882-19.79882a51.99951,51.99951,0,0,1,88.76953,36.76953Zm-97.25488,96.166L108.20068,198.71A35.99926,35.99926,0,1,1,57.28955,147.7998l28.2832-28.28515a36.03821,36.03821,0,0,1,50.91211,0,8.00053,8.00053,0,1,0,11.31446-11.31445,52.0625,52.0625,0,0,0-73.54,0L45.9751,136.48535a52.00031,52.00031,0,0,0,73.54,73.53906L139.314,190.22559a8.00053,8.00053,0,0,0-11.31445-11.31446Z"/>
</svg>
