<svg xmlns="http://www.w3.org/2000/svg" viewBox="0 0 256 256"><path d="M133.3,179.3a8,8,0,0,1,0,11.3l-11.4,11.3a47.9,47.9,0,0,1-67.8-67.8l11.3-11.4a8,8,0,0,1,11.3,0,8.1,8.1,0,0,1,0,11.4L65.4,145.4a32,32,0,0,0,45.2,45.2l11.3-11.3A8.1,8.1,0,0,1,133.3,179.3ZM48,104H72a8,8,0,0,0,0-16H48a8,8,0,0,0,0,16ZM96,80a8,8,0,0,0,8-8V48a8,8,0,0,0-16,0V72A8,8,0,0,0,96,80Zm64,96a8,8,0,0,0-8,8v24a8,8,0,0,0,16,0V184A8,8,0,0,0,160,176Zm48-24H184a8,8,0,0,0,0,16h24a8,8,0,0,0,0-16ZM190.6,65.4a31.9,31.9,0,0,1,0,45.2l-11.3,11.3a8.1,8.1,0,0,0,0,11.4,8.3,8.3,0,0,0,5.7,2.3,8,8,0,0,0,5.6-2.3l11.3-11.4a47.9,47.9,0,0,0-67.8-67.8L122.7,65.4a8,8,0,0,0,0,11.3,8.1,8.1,0,0,0,11.4,0l11.3-11.3A31.9,31.9,0,0,1,190.6,65.4Z"/></svg>