<svg id="Flat" xmlns="http://www.w3.org/2000/svg" viewBox="0 0 256 256">
  <path d="M133.25537,179.31348a8.00121,8.00121,0,0,1,0,11.31445l-11.31348,11.31348a48.0004,48.0004,0,1,1-67.88378-67.88184l11.31543-11.31445A7.99983,7.99983,0,0,1,76.686,134.05957L65.37158,145.37305a32,32,0,0,0,45.25586,45.2539l11.31348-11.31347A8.003,8.003,0,0,1,133.25537,179.31348ZM47.99951,104h24a8,8,0,0,0,0-16h-24a8,8,0,1,0,0,16Zm48-24a8.00039,8.00039,0,0,0,8-8V48a8,8,0,1,0-16,0V72A8.00039,8.00039,0,0,0,95.99951,80Zm64,96a8.00039,8.00039,0,0,0-8,8v24a8,8,0,0,0,16,0V184A8.00039,8.00039,0,0,0,159.99951,176Zm48-24h-24a8,8,0,0,0,0,16h24a8,8,0,0,0,0-16ZM190.62744,65.37207a32.03762,32.03762,0,0,1,.001,45.25488L179.314,121.94043a7.99983,7.99983,0,1,0,11.3125,11.31445l11.31543-11.31445a48.0004,48.0004,0,1,0-67.88378-67.88184L122.74463,65.37207a8.00052,8.00052,0,0,0,11.31445,11.31445l11.31348-11.31347A32.035,32.035,0,0,1,190.62744,65.37207Z"/>
</svg>
