<svg xmlns="http://www.w3.org/2000/svg" viewBox="0 0 256 256"><path d="M72,170.6,56,192H68a8,8,0,0,1,0,16H40a8,8,0,0,1-6.4-12.8l25.5-34A5.7,5.7,0,0,0,60,158a6,6,0,0,0-6-6,5.8,5.8,0,0,0-5.5,3.7,8,8,0,0,1-14.8-6.3A22,22,0,0,1,76,158a21.5,21.5,0,0,1-3.8,12.3ZM43.6,67.2,48,64.9V108a8,8,0,0,0,16,0V52a7.9,7.9,0,0,0-3.8-6.8,8,8,0,0,0-7.8-.4l-16,8a8,8,0,1,0,7.2,14.4ZM104,72H216a8,8,0,0,0,0-16H104a8,8,0,0,0,0,16ZM216,184H104a8,8,0,0,0,0,16H216a8,8,0,0,0,0-16Zm0-64H104a8,8,0,0,0,0,16H216a8,8,0,0,0,0-16Z"/></svg>