<svg id="Flat" xmlns="http://www.w3.org/2000/svg" viewBox="0 0 256 256">
  <path d="M56,60a8.00008,8.00008,0,0,1,8-8H76V40a8,8,0,0,1,16,0V52h12a8,8,0,0,1,0,16H92V80a8,8,0,0,1-16,0V68H64A8.00008,8.00008,0,0,1,56,60Zm184,84H224V128a8,8,0,0,0-16,0v16H192a8,8,0,0,0,0,16h16v16a8,8,0,0,0,16,0V160h16a8,8,0,0,0,0-16Zm-58.34619-26.33984L75.31445,224a16.02252,16.02252,0,0,1-22.62793.001L32,203.31348a15.99888,15.99888,0,0,1,.001-22.62793L180.68555,32a16.02162,16.02162,0,0,1,22.62793-.001L224,52.68652a15.99888,15.99888,0,0,1-.001,22.62793l-42.33886,42.33887-.00293.00342ZM176,100.686,212.68555,64l.001-.001.00684-.00732L192,43.31348,155.314,80ZM184,192h-8v-8a8,8,0,0,0-16,0v8h-8a8,8,0,0,0,0,16h8v8a8,8,0,0,0,16,0v-8h8a8,8,0,0,0,0-16Z"/>
</svg>
