<svg id="Flat" xmlns="http://www.w3.org/2000/svg" viewBox="0 0 256.00098 256.00098">
  <path d="M183.99023,120.001a64,64,0,1,1-64-64A64.07239,64.07239,0,0,1,183.99023,120.001ZM229.6543,229.66016a8.00063,8.00063,0,0,1-11.31446,0l-36.366-36.36634a97.03552,97.03552,0,0,1-13.9856,9.83509,95.42456,95.42456,0,0,1-47.83594,12.90088,96.51613,96.51613,0,0,1-24.999-3.312A95.9853,95.9853,0,0,1,72.00391,36.877,96.0281,96.0281,0,0,1,193.32324,182.01538l36.33106,36.3313A8,8,0,0,1,229.6543,229.66016ZM199.99023,120.001a80,80,0,1,0-80,80A80.0904,80.0904,0,0,0,199.99023,120.001Z"/>
</svg>
