<svg id="Flat" xmlns="http://www.w3.org/2000/svg" viewBox="0 0 256 256">
  <path d="M112,184a7.99977,7.99977,0,0,1-8,8H80v24a8,8,0,0,1-16,0V192H40a8,8,0,0,1,0-16H64V152a8,8,0,0,1,16,0v24h24A7.99977,7.99977,0,0,1,112,184ZM104,64H40a8,8,0,0,0,0,16h64a8,8,0,0,0,0-16Zm48,112.06641h64a8,8,0,0,0,0-16H152a8,8,0,0,0,0,16Zm64,15.86718H152a8,8,0,0,0,0,16h64a8,8,0,0,0,0-16Zm-61.65674-90.27685a7.99945,7.99945,0,0,0,11.31348,0L184,83.31348l18.34326,18.34326a7.99984,7.99984,0,1,0,11.31348-11.31348L195.3136,72l18.34314-18.34326a7.99984,7.99984,0,0,0-11.31348-11.31348L184,60.68652,165.65674,42.34326a7.99984,7.99984,0,0,0-11.31348,11.31348L172.6864,72,154.34326,90.34326A7.99915,7.99915,0,0,0,154.34326,101.65674Z"/>
</svg>
