<svg xmlns="http://www.w3.org/2000/svg" viewBox="0 0 256 256"><path d="M213.4,221.9A8.2,8.2,0,0,1,208,224a8,8,0,0,1-5.9-2.6l-26.5-29.1A79.2,79.2,0,0,1,136,207.6V232a8,8,0,0,1-16,0V207.6a79.9,79.9,0,0,1-71.5-70.7,8,8,0,1,1,15.9-1.8,64,64,0,0,0,100.4,45.3l-10.9-12A48,48,0,0,1,80,128V87.1L42.1,45.4A8,8,0,0,1,53.9,34.6l160,176A7.9,7.9,0,0,1,213.4,221.9Zm-51.3-92.1a7.9,7.9,0,0,0,5.9,2.6,7.4,7.4,0,0,0,2.9-.5,8,8,0,0,0,5.1-7.5V64a48,48,0,0,0-48-48A47.5,47.5,0,0,0,87.2,38.8a8,8,0,0,0,.8,9.6Zm30.1,31.9a9.3,9.3,0,0,0,2.9.5,7.8,7.8,0,0,0,7.4-5.1,78.7,78.7,0,0,0,5-20.2,8,8,0,1,0-15.9-1.8,60.1,60.1,0,0,1-4,16.2A8.1,8.1,0,0,0,192.2,161.7Z"/></svg>