<svg id="Flat" xmlns="http://www.w3.org/2000/svg" viewBox="0 0 256 256">
  <path d="M213.38184,221.91992a8.00207,8.00207,0,0,1-11.30176-.53808l-26.46-29.10608A79.72,79.72,0,0,1,136,207.59082V232a8,8,0,0,1-16,0V207.59692a79.83705,79.83705,0,0,1-71.51172-70.718,7.9996,7.9996,0,0,1,15.90234-1.75782,63.99208,63.99208,0,0,0,100.39649,45.23828l-10.875-11.96252A47.9902,47.9902,0,0,1,80,128V87.09375L42.08008,45.38184A8.0006,8.0006,0,1,1,53.91992,34.61816l160,176A8.002,8.002,0,0,1,213.38184,221.91992Zm-51.30176-92.10937A8.0004,8.0004,0,0,0,176,124.42871V64A48.0045,48.0045,0,0,0,87.15527,38.77539a8.00113,8.00113,0,0,0,.88379,9.59082ZM192.165,161.665a7.99262,7.99262,0,0,0,10.36426-4.53613,79.61568,79.61568,0,0,0,4.98242-20.25,7.9996,7.9996,0,0,0-15.90235-1.75782,63.67417,63.67417,0,0,1-3.98046,16.17969A7.99991,7.99991,0,0,0,192.165,161.665Z"/>
</svg>
