<svg id="Flat" xmlns="http://www.w3.org/2000/svg" viewBox="0 0 256 256">
  <path d="M229.65137,58.34326l-32-32a8.00034,8.00034,0,0,0-11.31446,0l-96,96A8.00035,8.00035,0,0,0,87.99414,128v32a8.00039,8.00039,0,0,0,8,8h32a8.00076,8.00076,0,0,0,5.65723-2.34326l96-96A8,8,0,0,0,229.65137,58.34326Zm-29.657,18.34326L179.30811,56l12.686-12.68652L212.68066,64ZM223.99414,120v88a16.01833,16.01833,0,0,1-16,16h-160a16.01833,16.01833,0,0,1-16-16V48a16.01833,16.01833,0,0,1,16-16h88a8,8,0,0,1,0,16h-88V208h160V120a8,8,0,0,1,16,0Z"/>
</svg>
