<svg id="Flat" xmlns="http://www.w3.org/2000/svg" viewBox="0 0 256 256">
  <path d="M229.65723,58.34326l-32-32a8.00034,8.00034,0,0,0-11.31446,0l-96,96A8.00035,8.00035,0,0,0,88,128v32a8.00008,8.00008,0,0,0,8,8h32a8.00076,8.00076,0,0,0,5.65723-2.34326l96-96A8,8,0,0,0,229.65723,58.34326Zm-29.657,18.343L179.314,56,192,43.31372,212.68652,64ZM224.002,112.00586v95.99219a16.01582,16.01582,0,0,1-16,16h-160a16.01583,16.01583,0,0,1-16-16v-160a16.01582,16.01582,0,0,1,16-16h96.01563a7.88176,7.88176,0,0,1,7.67187,6.37207l-72.6582,72.6582a23.84117,23.84117,0,0,0-7.0293,16.96973v32a24.02687,24.02687,0,0,0,24,24h32a23.84434,23.84434,0,0,0,16.97071-7.03028l72.63867-72.63769A7.88084,7.88084,0,0,1,224.002,112.00586Z"/>
</svg>
