<svg id="Flat" xmlns="http://www.w3.org/2000/svg" viewBox="0 0 256 256">
  <path d="M118.09375,111.89063a14,14,0,1,1,19.79687.01562A14.318,14.318,0,0,1,118.09375,111.89063ZM128,132a17.99808,17.99808,0,0,0-12.73438,30.71875,18.43511,18.43511,0,0,0,25.45313.01563A18,18,0,0,0,128,132Zm96-84V208a16.02085,16.02085,0,0,1-16,16H48a16.02085,16.02085,0,0,1-16-16V48A16.02085,16.02085,0,0,1,48,32H208A16.02085,16.02085,0,0,1,224,48ZM162,150a33.71971,33.71971,0,0,0-9.95313-24.03125,30.83637,30.83637,0,0,0-3.12207-2.52148c.08692-.085.19239-.14258.27832-.22852a29.98906,29.98906,0,0,0,.01563-42.42187c-11.32813-11.34375-31.125-11.32813-42.42188-.01563a29.98908,29.98908,0,0,0-.01562,42.42188c.09082.09082.20215.15234.29395.24218a30.89715,30.89715,0,0,0-3.10645,2.50782A33.99637,33.99637,0,1,0,162,150Z"/>
</svg>
