<svg id="Flat" xmlns="http://www.w3.org/2000/svg" viewBox="0 0 256 256">
  <path d="M128,24A104,104,0,1,0,232,128,104.12041,104.12041,0,0,0,128,24Zm24.03125,150.04688a33.99637,33.99637,0,1,1-48.0625-48.09375,30.89828,30.89828,0,0,1,3.10645-2.50782c-.0918-.08984-.20313-.15136-.29395-.24218a29.98907,29.98907,0,0,1,.01563-42.42188c11.29687-11.3125,31.09375-11.32812,42.42187.01563a29.98907,29.98907,0,0,1-.01562,42.42187c-.08594.08594-.19141.14355-.27833.22852a30.83759,30.83759,0,0,1,3.12208,2.52148,33.98762,33.98762,0,0,1-.01563,48.07813Zm-33.9375-62.15625a14,14,0,1,1,19.79688.01562A14.318,14.318,0,0,1,118.09375,111.89063Zm22.64063,25.39062a17.99346,17.99346,0,0,1-.01563,25.45313,18.43509,18.43509,0,0,1-25.45312-.01563,17.99808,17.99808,0,1,1,25.46875-25.4375Z"/>
</svg>
