<svg id="Flat" xmlns="http://www.w3.org/2000/svg" viewBox="0 0 256 256">
  <path d="M147.32031,102.82813A20.00126,20.00126,0,1,1,122.82813,88.6875a20.099,20.099,0,0,1,5.20312-.69531,20.05224,20.05224,0,0,1,19.28906,14.83594ZM232,128A104,104,0,1,1,128,24,104.12041,104.12041,0,0,1,232,128ZM162.77344,98.67969a35.98172,35.98172,0,1,0-34.83594,45.34375c.85449,0,1.7041-.2793,2.55957-.34082L114.14844,172a8.00128,8.00128,0,0,0,13.85937,8l31.17188-53.99219A35.81935,35.81935,0,0,0,162.77344,98.67969Z"/>
</svg>
