<svg id="Flat" xmlns="http://www.w3.org/2000/svg" viewBox="0 0 256 256">
  <path d="M147.32031,102.82813A20.00126,20.00126,0,1,1,122.82812,88.6875a20.09907,20.09907,0,0,1,5.20313-.69531,20.05224,20.05224,0,0,1,19.28906,14.83594ZM224,48V208a16.02085,16.02085,0,0,1-16,16H48a16.02085,16.02085,0,0,1-16-16V48A16.02085,16.02085,0,0,1,48,32H208A16.02085,16.02085,0,0,1,224,48ZM162.77344,98.67969a35.98172,35.98172,0,1,0-34.83594,45.34375q1.20447,0,2.41113-.08374L114.14844,172a8.00128,8.00128,0,0,0,13.85937,8l31.17188-53.99219A35.81939,35.81939,0,0,0,162.77344,98.67969Z"/>
</svg>
