<svg id="Flat" xmlns="http://www.w3.org/2000/svg" viewBox="0 0 256 256">
  <path d="M147.32031,142.8125a20.00126,20.00126,0,1,1-24.49218-14.14062,20.09907,20.09907,0,0,1,5.20312-.69532,20.05227,20.05227,0,0,1,19.28906,14.83594ZM232,128A104,104,0,1,1,128,24,104.12041,104.12041,0,0,1,232,128Zm-69.22656,10.66406a36.03989,36.03989,0,0,0-37.12012-26.6123l16.19824-28.05957a8.00128,8.00128,0,1,0-13.85937-8l-31.17188,54a36.03268,36.03268,0,0,0,31.13282,54.01562,36.33051,36.33051,0,0,0,9.375-1.24218,36.004,36.004,0,0,0,25.44531-44.10157Z"/>
</svg>
