<svg id="Flat" xmlns="http://www.w3.org/2000/svg" viewBox="0 0 256 256">
  <path d="M189.40039,52.35254C174.99219,28.57031,153.75977,16,128,16S81.00781,28.57031,66.59961,52.35254C54.60547,72.14893,48,99.01416,48,128c0,28.9834,6.60547,55.84814,18.59961,75.64551C81.00781,227.42871,102.24023,240,128,240s46.99219-12.57129,61.40039-36.35449C201.39453,183.84814,208,156.9834,208,128,208,99.01416,201.39453,72.14893,189.40039,52.35254ZM128,224c-44.21094,0-64-48.21582-64-96s19.78906-96,64-96,64,48.21582,64,96S172.21094,224,128,224Z"/>
</svg>
