<svg id="Flat" xmlns="http://www.w3.org/2000/svg" viewBox="0 0 256 256">
  <path d="M147.32031,142.8125a20.00126,20.00126,0,1,1-24.49219-14.14062,20.09909,20.09909,0,0,1,5.20313-.69532,20.05227,20.05227,0,0,1,19.28906,14.83594ZM224,48V208a16.02085,16.02085,0,0,1-16,16H48a16.02085,16.02085,0,0,1-16-16V48A16.02085,16.02085,0,0,1,48,32H208A16.02085,16.02085,0,0,1,224,48Zm-61.22656,90.66406a36.03973,36.03973,0,0,0-37.11914-26.6123l16.19726-28.05957a8.00128,8.00128,0,1,0-13.85937-8l-31.17188,54a36.03268,36.03268,0,0,0,31.13281,54.01562,36.33046,36.33046,0,0,0,9.375-1.24218,36.004,36.004,0,0,0,25.44532-44.10157Z"/>
</svg>
