<svg id="Flat" xmlns="http://www.w3.org/2000/svg" viewBox="0 0 256 256">
  <path d="M232,91.54688v72.90625a16.11515,16.11515,0,0,1-4.6875,11.3125L175.76562,227.3125A16.11511,16.11511,0,0,1,164.45312,232H91.54687a16.11515,16.11515,0,0,1-11.3125-4.6875L28.6875,175.76563A16.11515,16.11515,0,0,1,24,164.45313V91.54688a16.11511,16.11511,0,0,1,4.6875-11.3125L80.23437,28.6875A16.11515,16.11515,0,0,1,91.54687,24h72.90625a16.11511,16.11511,0,0,1,11.3125,4.6875L227.3125,80.23438A16.11511,16.11511,0,0,1,232,91.54688Z"/>
</svg>
