<svg xmlns="http://www.w3.org/2000/svg" viewBox="0 0 256 256"><path d="M115.5,124.5a12,12,0,0,1,0-17,12.1,12.1,0,0,1,17,0,12,12,0,0,1-17,17ZM43.5,24.2A8,8,0,0,0,32.2,35.5L58.4,61.7,69.7,50.4ZM233.7,158.3a8.2,8.2,0,0,0-11.4,0c-.9,1-22.3,22.7-22.3,45.7a28,28,0,0,0,56,0C256,181,234.6,159.3,233.7,158.3ZM231,123.5a8.2,8.2,0,0,0-2.4-5.7L121.1,10.3a8,8,0,0,0-11.3,0L69.7,50.4l41,41a28,28,0,1,1-11.3,11.3l-41-41L13.7,106.5a23.9,23.9,0,0,0,0,33.9l84.8,84.9a24.1,24.1,0,0,0,34,0l96.1-96.2A8,8,0,0,0,231,123.5Z"/></svg>