<svg id="Flat" xmlns="http://www.w3.org/2000/svg" viewBox="0 0 256 256">
  <path d="M115.51465,124.4917a12.00044,12.00044,0,1,1,16.9707-.00049A12.01451,12.01451,0,0,1,115.51465,124.4917Zm-72-100.28467A8.00018,8.00018,0,0,0,32.2002,35.52051L58.42285,61.74316l11.314-11.314ZM233.65723,158.34375a7.99945,7.99945,0,0,0-11.31446,0C221.42969,159.25635,200,180.958,200,204a28,28,0,0,0,56,0C256,180.958,234.57031,159.25635,233.65723,158.34375Zm-2.69239-34.85938a8.00033,8.00033,0,0,0-2.34277-5.65673L121.1377,10.34326a8.00122,8.00122,0,0,0-11.31446,0L69.73682,50.4292l40.949,40.949a27.99954,27.99954,0,1,1-11.31421,11.31372L58.42285,61.74316l-44.7666,44.76661a24.029,24.029,0,0,0,0,33.94091l84.85742,84.85694a23.99952,23.99952,0,0,0,33.94141,0l96.167-96.16651A8.00034,8.00034,0,0,0,230.96484,123.48437Z"/>
</svg>
