<svg id="Flat" xmlns="http://www.w3.org/2000/svg" viewBox="0 0 256 256">
  <path d="M220.25977,112.1416,143.35829,230.99031A4,4,0,0,1,136,228.81732v-77.83a32.00086,32.00086,0,1,0-16,0v77.83006a4,4,0,0,1-7.35829,2.173L35.74023,112.14209a8,8,0,0,1,.82813-9.76123A103.69821,103.69821,0,0,0,64,32.09369,8.03995,8.03995,0,0,1,72,24H184a8.04,8.04,0,0,1,8,8.0937,103.69573,103.69573,0,0,0,27.43159,70.28618A8.00061,8.00061,0,0,1,220.25977,112.1416ZM144,120a16,16,0,1,0-16,16A16.01833,16.01833,0,0,0,144,120Z"/>
</svg>
