<svg id="Flat" xmlns="http://www.w3.org/2000/svg" viewBox="0 0 256 256">
  <path d="M144,112a16,16,0,1,1-16-16A16.01833,16.01833,0,0,1,144,112Zm77.0918-7.18945-86.29,139.40039A8.00024,8.00024,0,0,1,128.00488,248H128a7.99775,7.99775,0,0,1-6.79688-3.78125L34.76953,104.9707a7.99965,7.99965,0,0,1,.97168-9.70215A103.58423,103.58423,0,0,0,63.999,24.00049,8.00041,8.00041,0,0,1,71.999,16H184.001a8.00041,8.00041,0,0,1,8,8.00049,103.60446,103.60446,0,0,0,28.124,71.12646A7.99875,7.99875,0,0,1,221.0918,104.81055ZM160,112a32,32,0,1,0-40,30.9873V192a8,8,0,0,0,16,0V142.9873A32.05773,32.05773,0,0,0,160,112Z"/>
</svg>
