<svg id="Flat" xmlns="http://www.w3.org/2000/svg" viewBox="0 0 256 256">
  <g>
    <circle cx="128.00586" cy="132.00342" r="16"/>
    <path d="M218.56445,123.89014,192.00586,70.13477V32.00342a16.00008,16.00008,0,0,0-16-16h-96a16.00008,16.00008,0,0,0-16,16V70.13477L37.44678,123.89062a15.944,15.944,0,0,0,1.45947,16.57276L112.78467,240.8208a4,4,0,0,0,7.22119-2.37158v-75.4585a32,32,0,1,1,16,0v75.4585a4,4,0,0,0,7.22131,2.37158L217.105,140.4624A15.94312,15.94312,0,0,0,218.56445,123.89014ZM176.00586,64.00342h-96v-32h96Z"/>
  </g>
</svg>
