<svg id="Flat" xmlns="http://www.w3.org/2000/svg" viewBox="0 0 256 256">
  <path d="M116.00586,156.00342a16,16,0,1,1,16-16A16.01833,16.01833,0,0,1,116.00586,156.00342Zm120.68652-52a15.895,15.895,0,0,1-4.6875,11.31445L206.88721,140.436l-21.77,58.05371a16.0433,16.0433,0,0,1-12.35059,10.16406l-124.61352,20.769a4,4,0,0,1-3.48609-6.77392L99.7583,167.55566a32.03773,32.03773,0,1,0-11.311-11.31543L33.363,211.32568a4,4,0,0,1-6.77417-3.48584L47.35547,83.24268a16.045,16.045,0,0,1,10.165-12.35108l58.053-21.77,25.11792-25.11816a16.02162,16.02162,0,0,1,22.62793-.001l68.68652,68.6875A15.89425,15.89425,0,0,1,236.69238,104.00342Zm-16.001,0L152.00586,35.31689l-20.686,20.68653,68.686,68.686Z"/>
</svg>
