<svg xmlns="http://www.w3.org/2000/svg" viewBox="0 0 256 256"><path d="M128,80a36,36,0,1,1,36-36A36,36,0,0,1,128,80Zm83.8,59.5L172.5,88.9l-.7-.7A27.8,27.8,0,0,0,152,80H104a27.8,27.8,0,0,0-19.8,8.2l-.7.7L44.2,139.5a20,20,0,0,0,28.3,28.3l14.1-11L66.8,219.5a19.7,19.7,0,0,0-.5,14.7,20.2,20.2,0,0,0,10.4,11.3,19.8,19.8,0,0,0,15.3.7,20.4,20.4,0,0,0,11-9.8L128,197l25,39.4a20.4,20.4,0,0,0,11,9.8,20.9,20.9,0,0,0,6.9,1.2,19.1,19.1,0,0,0,8.4-1.9,20.2,20.2,0,0,0,10.4-11.3,19.7,19.7,0,0,0-.5-14.7l-19.8-62.7,14.1,11a20,20,0,0,0,28.3-28.3Z"/></svg>