<svg id="Flat" xmlns="http://www.w3.org/2000/svg" viewBox="0 0 256 256">
  <path d="M127.88745,80a36,36,0,1,1,36-36A36.04061,36.04061,0,0,1,127.88745,80Zm83.78711,59.51367L172.34448,88.94629a7.93269,7.93269,0,0,0-.65723-.74512A27.81868,27.81868,0,0,0,151.88745,80h-48a27.81872,27.81872,0,0,0-19.79981,8.20117,7.93259,7.93259,0,0,0-.65722.74512L44.09936,139.51416A20.00055,20.00055,0,0,0,72.37378,167.7876l14.09961-10.96729-19.832,62.64014a20.00009,20.00009,0,0,0,36.23731,16.897l25.00879-39.35937,25.00879,39.35937a20.00007,20.00007,0,0,0,36.2373-16.897l-19.832-62.64014,14.09961,10.96729a20.00035,20.00035,0,0,0,28.27344-28.27393Z"/>
</svg>
