<svg id="Flat" xmlns="http://www.w3.org/2000/svg" viewBox="0 0 256 256">
  <path d="M234.51562,164.05273a16.03618,16.03618,0,0,1-18.55273,4.99805l-47.35254-18.9414a15.963,15.963,0,0,1-9.7207-11.584l-6.21094-29.73828v-.00195a76.51611,76.51611,0,0,0-49.67676.10937l-5.90527,29.51172A15.94917,15.94917,0,0,1,87.35059,150.125L40.03613,169.05078a16.03254,16.03254,0,0,1-18.55078-4.99707,56.07211,56.07211,0,0,1,4.69043-73.87695c56.14746-56.14746,147.50293-56.14453,203.64844-.001A56.07343,56.07343,0,0,1,234.51562,164.05273ZM216,192H40a8,8,0,0,0,0,16H216a8,8,0,0,0,0-16Z"/>
</svg>
