<svg id="Flat" xmlns="http://www.w3.org/2000/svg" viewBox="0 0 256 256">
  <path d="M231.55566,175.0791A56.07032,56.07032,0,0,1,176,224C96.59766,224,32,159.40234,32,80A56.07029,56.07029,0,0,1,80.91992,24.44434a16.03093,16.03093,0,0,1,16.65235,9.583l20.09179,46.87793a15.96924,15.96924,0,0,1-1.32031,15.06641L99.709,121.38965l-.00195.00195a76.54083,76.54083,0,0,0,35.20508,35.04981l25.043-16.69336a15.94874,15.94874,0,0,1,15.17871-1.39453l46.83789,20.07324A16.03476,16.03476,0,0,1,231.55566,175.0791Zm-77.21289-73.42187a8.00181,8.00181,0,0,0,11.31446,0L184,83.31445l18.34277,18.34278a8.00053,8.00053,0,0,0,11.31446-11.31446L195.31445,72l18.34278-18.34277a8.00053,8.00053,0,0,0-11.31446-11.31446L184,60.68555,165.65723,42.34277a8.00053,8.00053,0,0,0-11.31446,11.31446L172.68555,72,154.34277,90.34277A8.00122,8.00122,0,0,0,154.34277,101.65723Z"/>
</svg>
