<svg xmlns="http://www.w3.org/2000/svg" viewBox="0 0 256 256"><path d="M231.6,175.1A56.2,56.2,0,0,1,176,224C96.6,224,32,159.4,32,80A56.2,56.2,0,0,1,80.9,24.4,16.3,16.3,0,0,1,97.6,34l20.1,46.9A15.9,15.9,0,0,1,116.3,96L99.7,121.4h0a76.5,76.5,0,0,0,35.2,35L160,139.7a15.6,15.6,0,0,1,15.1-1.3l46.9,20A16.3,16.3,0,0,1,231.6,175.1Zm-79.5-78a.9.9,0,0,0,.1.5v.3a.8.8,0,0,1,.1.4l.2.4c0,.1.1.2.1.4l.2.3c0,.1.1.2.1.4l.2.3.3.3.2.3a.8.8,0,0,0,.2.4c.1.1.3.2.4.4a.3.3,0,0,1,.1.2h.2l.4.4.4.2.3.3.3.2.3.2h.4l.3.2h.4l.4.2H200a8,8,0,0,0,0-16H179.3l34.4-34.3a8.1,8.1,0,0,0-11.4-11.4L168,76.7V56a8,8,0,0,0-16,0V96.8A.4.4,0,0,1,152.1,97.1Z"/></svg>