<svg xmlns="http://www.w3.org/2000/svg" viewBox="0 0 256 256"><path d="M213.9,210.6a7.9,7.9,0,0,1-.5,11.3A8.2,8.2,0,0,1,208,224a8,8,0,0,1-5.9-2.6l-90-99a72.1,72.1,0,0,0-9.1,2.5l-5.9,29.5a16,16,0,0,1-9.7,11.7L40,185.1a17.1,17.1,0,0,1-5.9,1.1,16.2,16.2,0,0,1-12.6-6.1,56.1,56.1,0,0,1,4.7-73.9A143.9,143.9,0,0,1,70,76.1L42.1,45.4A8,8,0,0,1,53.9,34.6L89.7,74h.1l31,34.2h.1Zm15.9-104.4a144.4,144.4,0,0,0-109.7-42,8,8,0,0,0-5.5,13.4L209,181.4a7.2,7.2,0,0,0,2.9,2l4.1,1.7a17.1,17.1,0,0,0,5.9,1.1,16.2,16.2,0,0,0,12.6-6.1A56.1,56.1,0,0,0,229.8,106.2Z"/></svg>