<svg id="Flat" xmlns="http://www.w3.org/2000/svg" viewBox="0 0 256 256">
  <path d="M213.91992,210.61816a8.0006,8.0006,0,0,1-11.83984,10.76368l-90.00391-99.0044a76.1958,76.1958,0,0,0-9.07422,2.51709l-5.90527,29.51172A15.94917,15.94917,0,0,1,87.35059,166.125L40.03613,185.05078a16.03254,16.03254,0,0,1-18.55078-4.99707,56.07211,56.07211,0,0,1,4.69043-73.87695A142.75371,142.75371,0,0,1,70.03857,76.13623L42.08008,45.38184A8.0006,8.0006,0,1,1,53.91992,34.61816l35.793,39.37207c.01611.01807.03272.03565.04883.0542l31.083,34.19092c.01465.01563.02881.03174.043.04736Zm15.9043-104.44238a144.20418,144.20418,0,0,0-109.73633-41.96A8.00053,8.00053,0,0,0,114.60547,77.585l94.36035,103.79883a8.0075,8.0075,0,0,0,2.94824,2.04687l4.04883,1.62012a16.03429,16.03429,0,0,0,18.55273-4.99805A56.07343,56.07343,0,0,0,229.82422,106.17578Z"/>
</svg>
