<svg id="Flat" xmlns="http://www.w3.org/2000/svg" viewBox="0 0 256 256">
  <path d="M230.63,49.37a32.05,32.05,0,0,0-45.26,0h0a31.85,31.85,0,0,0-5.15,6.76L152,48.43a32,32,0,0,0-54.6-23.06h0a32.05,32.05,0,0,0-5.75,37.41L57.68,93.33a32.06,32.06,0,0,0-40.31,4h0a32,32,0,0,0,42.88,47.4l70,51.36a32,32,0,1,0,52.34-10.76,31.51,31.51,0,0,0-4.78-3.92l27.39-77.59q1.38.12,2.76.12a32,32,0,0,0,22.63-54.61ZM162.76,176.14a31.93,31.93,0,0,0-23,7.09l-70-51.36a32.13,32.13,0,0,0-1.33-26.65l33.94-30.55a32,32,0,0,0,45.46-10.8L176,71.57a31.87,31.87,0,0,0,14.11,27Z"/>
</svg>
