<svg id="Flat" xmlns="http://www.w3.org/2000/svg" viewBox="0 0 256 256">
  <path d="M219.56836,194.127A15.90364,15.90364,0,0,1,207.19629,200H136v40a8,8,0,0,1-16,0V200H48.80371a16.02766,16.02766,0,0,1-15.66113-19.30273,55.69718,55.69718,0,0,1,23.44433-35.063.31793.31793,0,0,0,.01416-.06885L67.31934,38.40771A15.94952,15.94952,0,0,1,83.23975,24h89.5205a15.94953,15.94953,0,0,1,15.92041,14.40771l10.71827,107.15772a.31793.31793,0,0,0,.01416.06885,55.69528,55.69528,0,0,1,23.44433,35.063h0A16.05708,16.05708,0,0,1,219.56836,194.127Z"/>
</svg>
