<svg id="Flat" xmlns="http://www.w3.org/2000/svg" viewBox="0 0 256 256">
  <path d="M85.34863,45.40576A7.97263,7.97263,0,0,1,83.25,40.2666c-.00781-.24023-.00488-.48144.00879-.72217A8.00052,8.00052,0,0,1,91.19922,32H192a8,8,0,0,1,0,16h-6.46484L204.293,154.29541a7.99978,7.99978,0,0,1-13.79785,6.77148ZM213.91992,210.61865l-36.36133-39.99707-.002-.00293-48.41943-53.261-75.21729-82.739a8.00027,8.00027,0,0,0-11.83984,10.7627L66.2373,71.95459,49.28809,168H40a8,8,0,0,0,0,16H55.86426c.04883.001.09668.00146.14551.00146.04785,0,.0957-.00048.14453-.00146H120v56a8,8,0,0,0,16,0V184h32.09717l33.98291,37.38135a8.00027,8.00027,0,0,0,11.83984-10.7627Z"/>
</svg>
