<svg id="Flat" xmlns="http://www.w3.org/2000/svg" viewBox="0 0 256 256">
  <path d="M120.00244,56v48a16.01833,16.01833,0,0,1-16,16h-48a16.01833,16.01833,0,0,1-16-16V56a16.01833,16.01833,0,0,1,16-16h48A16.01833,16.01833,0,0,1,120.00244,56Zm-16,80h-48a16.01833,16.01833,0,0,0-16,16v48a16.01833,16.01833,0,0,0,16,16h48a16.01833,16.01833,0,0,0,16-16V152A16.01833,16.01833,0,0,0,104.00244,136Zm96-96h-48a16.01833,16.01833,0,0,0-16,16v48a16.01833,16.01833,0,0,0,16,16h48a16.01833,16.01833,0,0,0,16-16V56A16.01833,16.01833,0,0,0,200.00244,40Zm-56,144a8.00039,8.00039,0,0,0,8-8V144a8,8,0,0,0-16,0v32A8.00039,8.00039,0,0,0,144.00244,184Zm64-32h-24v-8a8,8,0,0,0-16,0v56h-24a8,8,0,1,0,0,16h32a8.00039,8.00039,0,0,0,8-8V168h24a8,8,0,0,0,0-16Zm0,32a8.00039,8.00039,0,0,0-8,8v16a8,8,0,0,0,16,0V192A8.00039,8.00039,0,0,0,208.00244,184Z"/>
</svg>
