<svg xmlns="http://www.w3.org/2000/svg" viewBox="0 0 256 256"><path d="M24,160v16a8,8,0,0,1-16,0V160A104,104,0,0,1,184.5,85.4a8,8,0,1,1-11.2,11.5A88,88,0,0,0,24,160Zm88-56a56,56,0,0,1,33.1,10.8,8,8,0,1,0,9.5-12.8A70.9,70.9,0,0,0,112,88a72.1,72.1,0,0,0-72,72v16a8,8,0,0,0,16,0V160A56,56,0,0,1,112,104Zm15.2,26.7a7.9,7.9,0,0,0-5.9-9.6A42.2,42.2,0,0,0,112,120a40,40,0,0,0-40,40v16a8,8,0,0,0,16,0V160a24.1,24.1,0,0,1,24-24,26,26,0,0,1,5.6.6A7.9,7.9,0,0,0,127.2,130.7ZM200,112a48.4,48.4,0,0,0-44.7,30.4l-3.3-.2c-17.6,0-32,14.8-32,32.9S134.4,208,152,208h48a48,48,0,0,0,0-96Z"/></svg>