<svg id="Flat" xmlns="http://www.w3.org/2000/svg" viewBox="0 0 256 256">
  <path d="M24,160v16a8,8,0,0,1-16,0V160A104.00011,104.00011,0,0,1,184.50342,85.43945a8.00027,8.00027,0,0,1-11.15528,11.47071A87.99955,87.99955,0,0,0,24,160Zm88-56a55.55123,55.55123,0,0,1,33.12842,10.84473A7.99959,7.99959,0,1,0,154.605,101.9541,72.00452,72.00452,0,0,0,40,160v16a8,8,0,0,0,16,0V160A56.06322,56.06322,0,0,1,112,104Zm15.20508,26.71289a7.99944,7.99944,0,0,0-5.936-9.63086A40.02529,40.02529,0,0,0,72,160v16a8,8,0,0,0,16,0V160a24.02909,24.02909,0,0,1,29.57373-23.35156A7.99553,7.99553,0,0,0,127.20508,130.71289ZM200,112a48.19386,48.19386,0,0,0-44.66455,30.39844A31.5421,31.5421,0,0,0,152,142.22266c-17.645,0-32,14.7539-32,32.88867S134.355,208,152,208h48a48,48,0,0,0,0-96Z"/>
</svg>
