<svg xmlns="http://www.w3.org/2000/svg" viewBox="0 0 256 256"><path d="M232,128a72.1,72.1,0,0,1-72,72H64v16a8,8,0,0,1-4.9,7.4,8.5,8.5,0,0,1-3.1.6,8.3,8.3,0,0,1-5.7-2.3l-24-24a8.1,8.1,0,0,1,0-11.4l24-24a8.4,8.4,0,0,1,8.8-1.7A8,8,0,0,1,64,168v16h96a56,56,0,0,0,56-56,8,8,0,0,1,16,0ZM32,136a8,8,0,0,0,8-8A56,56,0,0,1,96,72h96V88a8,8,0,0,0,4.9,7.4,8.5,8.5,0,0,0,3.1.6,8.3,8.3,0,0,0,5.7-2.3l24-24a8.1,8.1,0,0,0,0-11.4l-24-24a8.4,8.4,0,0,0-8.8-1.7A8,8,0,0,0,192,40V56H96a72.1,72.1,0,0,0-72,72A8,8,0,0,0,32,136Zm100,24a8,8,0,0,0,8-8V104a7.9,7.9,0,0,0-3.8-6.8,8,8,0,0,0-7.8-.4l-16,8a8.2,8.2,0,0,0-3.6,10.8,8.1,8.1,0,0,0,10.8,3.5l4.4-2.2V152A8,8,0,0,0,132,160Z"/></svg>