<svg id="Flat" xmlns="http://www.w3.org/2000/svg" viewBox="0 0 256 256">
  <path d="M101.64844,187.09863c-5.4541,16.36035-18.45117,28.3794-37.58692,34.75782a92.73569,92.73569,0,0,1-26.57129,4.65332,8.00041,8.00041,0,0,1-8-8,92.73335,92.73335,0,0,1,4.65332-26.57129c6.37891-19.13623,18.39747-32.1333,34.75782-37.58692a8.00027,8.00027,0,1,1,5.06054,15.1792C54.30371,176.083,48.21484,197.42041,46.332,209.669c12.24219-1.88282,33.584-7.9712,40.13672-27.62989a8.00035,8.00035,0,1,1,15.17969,5.05957Zm99.89062-76.06933L192.56836,120v61.25488a15.8955,15.8955,0,0,1-4.68555,11.313L155.541,224.91016a16.00017,16.00017,0,0,1-27.00391-8.17578l-7.90674-39.53516L78.80054,135.36963,39.26562,127.4624A16.00008,16.00008,0,0,1,31.08887,100.46L63.43066,68.11768a15.90118,15.90118,0,0,1,11.31446-4.686h61.25415l8.97046-8.9707c28.58789-28.58643,57.92285-27.75733,69.209-26.07324A15.879,15.879,0,0,1,227.6123,41.82031C229.29688,53.10645,230.127,82.44141,201.53906,111.0293Zm-159.13574.74414,37.71216,7.542,39.884-39.88379H74.74512Zm134.165,24.22705-39.884,39.88428,7.54223,37.71191,32.3418-32.3418Z"/>
</svg>
