<svg id="Flat" xmlns="http://www.w3.org/2000/svg" viewBox="0 0 256 256">
  <path d="M64,204a12,12,0,1,1-12-12A12.01343,12.01343,0,0,1,64,204ZM166.794,89.20605A166.90564,166.90564,0,0,0,48,40a8,8,0,0,0,0,16,151.00491,151.00491,0,0,1,107.48047,44.52051A151.00325,151.00325,0,0,1,200,208a8,8,0,0,0,16,0A166.902,166.902,0,0,0,166.794,89.20605ZM48,136a8,8,0,0,0,0,16,56.00027,56.00027,0,0,1,56,56,8,8,0,0,0,16,0,71.9994,71.9994,0,0,0-72-72Zm0-48a8,8,0,0,0,0,16A104.00181,104.00181,0,0,1,152,208a8,8,0,0,0,16,0A120.00093,120.00093,0,0,0,48,88Z"/>
</svg>
