<svg id="Flat" xmlns="http://www.w3.org/2000/svg" viewBox="0 0 256 256">
  <path d="M236.68652,88A15.89677,15.89677,0,0,1,232,99.31348L99.31445,232a16.02252,16.02252,0,0,1-22.62793.001L24,179.31348a15.99888,15.99888,0,0,1,.001-22.62793L48.686,132l37.65673,37.65674a8.00018,8.00018,0,1,0,11.31446-11.31348L60,120.686,84.686,96l37.65673,37.65674a8.00018,8.00018,0,0,0,11.31446-11.31348L96,84.686,120.686,60l37.65673,37.65674a8.00018,8.00018,0,0,0,11.31446-11.31348L132,48.686,156.68555,24a16.02162,16.02162,0,0,1,22.62793-.001L232,76.68652A15.89427,15.89427,0,0,1,236.68652,88Z"/>
</svg>
