<svg id="Flat" xmlns="http://www.w3.org/2000/svg" viewBox="0 0 256 256">
  <path d="M55.99414,208a8,8,0,0,1-16,0,8.00917,8.00917,0,0,0-8-8,8,8,0,0,1,0-16A24.02718,24.02718,0,0,1,55.99414,208Zm-24-56a8,8,0,0,0,0,16,40.04552,40.04552,0,0,1,40,40,8,8,0,0,0,16,0A56.06322,56.06322,0,0,0,31.99414,152Zm0-32a8,8,0,0,0,0,16,72.08124,72.08124,0,0,1,72,72,8,8,0,0,0,16,0A88.09957,88.09957,0,0,0,31.99414,120Zm184-80h-176a16.01833,16.01833,0,0,0-16,16V96a8.00008,8.00008,0,0,0,8,8,104.11791,104.11791,0,0,1,104,104,8.00008,8.00008,0,0,0,8,8h72a16.01833,16.01833,0,0,0,16-16V56A16.01833,16.01833,0,0,0,215.99414,40Z"/>
</svg>
