<svg xmlns="http://www.w3.org/2000/svg" viewBox="0 0 256 256"><path d="M64,88a8,8,0,0,1-8,8H48v8a8,8,0,0,1-16,0V96A16,16,0,0,1,48,80h8A8,8,0,0,1,64,88Zm48,120H96a8,8,0,0,0,0,16h16a8,8,0,0,0,0-16ZM40,168a8,8,0,0,0,8-8V144a8,8,0,0,0-16,0v16A8,8,0,0,0,40,168Zm16,40H48v-8a8,8,0,0,0-16,0v8a16,16,0,0,0,16,16h8a8,8,0,0,0,0-16ZM208,32H96A16,16,0,0,0,80,48V88a8,8,0,0,0,8,8h24a8,8,0,0,0,0-16H96V48H208V160H176V144a8,8,0,0,0-16,0v24a8,8,0,0,0,8,8h40a16,16,0,0,0,16-16V48A16,16,0,0,0,208,32ZM168,192a8,8,0,0,0-8,8v8h-8a8,8,0,0,0,0,16h8a16,16,0,0,0,16-16v-8A8,8,0,0,0,168,192Zm0-80a8,8,0,0,0,8-8V96a16,16,0,0,0-16-16h-8a8,8,0,0,0,0,16h8v8A8,8,0,0,0,168,112Z"/></svg>