<svg id="Flat" xmlns="http://www.w3.org/2000/svg" viewBox="0 0 256 256">
  <path d="M64,88a8.00008,8.00008,0,0,1-8,8H48v8a8,8,0,0,1-16,0V96A16.01833,16.01833,0,0,1,48,80h8A8.00008,8.00008,0,0,1,64,88Zm48,120H96a8,8,0,0,0,0,16h16a8,8,0,0,0,0-16ZM40,168a8.00008,8.00008,0,0,0,8-8V144a8,8,0,0,0-16,0v16A8.00008,8.00008,0,0,0,40,168Zm16,40H48v-8a8,8,0,0,0-16,0v8a16.01833,16.01833,0,0,0,16,16h8a8,8,0,0,0,0-16ZM207.999,31.99414h-112a16.01833,16.01833,0,0,0-16,16V88a8.00009,8.00009,0,0,0,8,8H112a8,8,0,0,0,0-16H95.999V47.99414h112v112H176V144a8,8,0,0,0-16,0v24a8.00008,8.00008,0,0,0,8,8c.03918,0,.0769-.00537.116-.00586H207.999a16.01833,16.01833,0,0,0,16-16v-112A16.01833,16.01833,0,0,0,207.999,31.99414ZM168,192a8.00008,8.00008,0,0,0-8,8v8h-8a8,8,0,0,0,0,16h8a16.01833,16.01833,0,0,0,16-16v-8A8.00008,8.00008,0,0,0,168,192Zm0-80a8.00008,8.00008,0,0,0,8-8V96a16.01833,16.01833,0,0,0-16-16h-8a8,8,0,0,0,0,16h8v8A8.00008,8.00008,0,0,0,168,112Z"/>
</svg>
