<svg xmlns="http://www.w3.org/2000/svg" viewBox="0 0 256 256"><path d="M32,144V112a8,8,0,0,1,16,0v32a8,8,0,0,1-16,0Zm80-96h32a8,8,0,0,0,0-16H112a8,8,0,0,0,0,16ZM72,208H48V184a8,8,0,0,0-16,0v24a16,16,0,0,0,16,16H72a8,8,0,0,0,0-16ZM216,104a8,8,0,0,0-8,8v32a8,8,0,0,0,16,0V112A8,8,0,0,0,216,104Zm-8-72H184a8,8,0,0,0,0,16h24V72a8,8,0,0,0,16,0V48A16,16,0,0,0,208,32ZM53.9,34.6A8,8,0,0,0,42.1,45.4l160,176A8,8,0,0,0,208,224a8.2,8.2,0,0,0,5.4-2.1,7.9,7.9,0,0,0,.5-11.3ZM144,208H112a8,8,0,0,0,0,16h32a8,8,0,0,0,0-16Z"/></svg>