<svg xmlns="http://www.w3.org/2000/svg" viewBox="0 0 256 256"><path d="M32,72V48A16,16,0,0,1,48,32H72a8,8,0,0,1,0,16H48V72a8,8,0,0,1-16,0Zm8,80a8,8,0,0,0,8-8V112a8,8,0,0,0-16,0v32A8,8,0,0,0,40,152Zm32,56H48V184a8,8,0,0,0-16,0v24a16,16,0,0,0,16,16H72a8,8,0,0,0,0-16ZM112,48h32a8,8,0,0,0,0-16H112a8,8,0,0,0,0,16Zm96-16H184a8,8,0,0,0,0,16h24V72a8,8,0,0,0,16,0V48A16,16,0,0,0,208,32Zm8,144a8,8,0,0,0-8,8v24H184a8,8,0,0,0,0,16h24a16,16,0,0,0,16-16V184A8,8,0,0,0,216,176Zm0-72a8,8,0,0,0-8,8v32a8,8,0,0,0,16,0V112A8,8,0,0,0,216,104Zm-32,72V80a8,8,0,0,0-8-8H80a8,8,0,0,0-8,8v96a8,8,0,0,0,8,8h96A8,8,0,0,0,184,176Zm-40,32H112a8,8,0,0,0,0,16h32a8,8,0,0,0,0-16Z"/></svg>