<svg xmlns="http://www.w3.org/2000/svg" viewBox="0 0 256 256"><path d="M32,144V112a8,8,0,0,1,16,0v32a8,8,0,0,1-16,0ZM72,32H48A16,16,0,0,0,32,48V72a8,8,0,0,0,16,0V48H72a8,8,0,0,0,0-16Zm0,176H48V184a8,8,0,0,0-16,0v24a16,16,0,0,0,16,16H72a8,8,0,0,0,0-16Zm72,0H112a8,8,0,0,0,0,16h32a8,8,0,0,0,0-16Zm72-104a8,8,0,0,0-8,8v32a8,8,0,0,0,16,0V112A8,8,0,0,0,216,104Zm-8-72H184a8,8,0,0,0,0,16h24V72a8,8,0,0,0,16,0V48A16,16,0,0,0,208,32Zm-64,0H112a8,8,0,0,0,0,16h32a8,8,0,0,0,0-16Zm72,144a8,8,0,0,0-8,8v24H184a8,8,0,0,0,0,16h24a16,16,0,0,0,16-16V184A8,8,0,0,0,216,176Z"/></svg>