<svg id="Flat" xmlns="http://www.w3.org/2000/svg" viewBox="0 0 256 256">
  <path d="M227.92725,237.91992a8.00207,8.00207,0,0,1-11.30176-.53808L183.53174,200.979a148.267,148.267,0,0,1-50.55762,29.852,15.49078,15.49078,0,0,1-9.94824,0c-15.2002-5.04-91.02637-34.71289-91.02637-124.16406V48A15.90942,15.90942,0,0,1,35.457,38.09668l-7.92236-8.71484A8.0006,8.0006,0,0,1,39.37451,18.61816l69.231,76.15381L189.812,184.09863l.00781.00928,38.64551,42.51025A8.002,8.002,0,0,1,227.92725,237.91992Zm-30.83887-69.60156a8.001,8.001,0,0,0,13.02441-1.70313c9.21485-17.79785,13.88672-37.96679,13.88672-59.94824V48a16.01833,16.01833,0,0,0-16-16H91.24658a8.00036,8.00036,0,0,0-5.91992,13.38184Z"/>
</svg>
