<svg id="Flat" xmlns="http://www.w3.org/2000/svg" viewBox="0 0 256 256">
  <path d="M92.62354,53.37988A8.00019,8.00019,0,0,1,98.54443,40H207.99951a16.01833,16.01833,0,0,1,16,16v58.667c0,19.70313-3.76269,37.99707-11.18262,54.37305a8.00023,8.00023,0,0,1-13.208,2.07812ZM228.42041,226.62012l-34.94824-38.46143-.01563-.019L61.229,42.62012l-.00879-.00879L39.42041,18.62012a8,8,0,0,0-11.8418,10.75976L39.48193,42.47974A15.98851,15.98851,0,0,0,31.99951,56v58.667c0,89.45117,75.82617,119.124,91.02637,124.16406a15.49078,15.49078,0,0,0,9.94824,0,147.318,147.318,0,0,0,54.44238-33.54492l29.16211,32.09375a8,8,0,0,0,11.8418-10.75976Z"/>
</svg>
