<svg xmlns="http://www.w3.org/2000/svg" viewBox="0 0 256 256"><path d="M92.6,53.4a8,8,0,0,1-1.4-8.6A8.1,8.1,0,0,1,98.5,40H208a16,16,0,0,1,16,16v58.7c0,19.7-3.8,38-11.2,54.3a7.9,7.9,0,0,1-6,4.6h-1.3a7.9,7.9,0,0,1-5.9-2.6ZM228.4,226.6l-34.9-38.4h0L61.2,42.6h0l-21.8-24a8,8,0,0,0-11.3-.5,7.9,7.9,0,0,0-.5,11.3L39.5,42.5A15.9,15.9,0,0,0,32,56v58.7c0,89.4,75.8,119.1,91,124.1a14.3,14.3,0,0,0,10,0,146.4,146.4,0,0,0,54.4-33.5l29.2,32.1a8,8,0,0,0,5.9,2.6,8.2,8.2,0,0,0,5.4-2.1A7.9,7.9,0,0,0,228.4,226.6Z"/></svg>