<svg id="Flat" xmlns="http://www.w3.org/2000/svg" viewBox="0 0 256 256">
  <path d="M88,216a16,16,0,1,1-16-16A16.00016,16.00016,0,0,1,88,216Zm104-16a16,16,0,1,0,16,16A16.00016,16.00016,0,0,0,192,200ZM226.69922,61.74805A15.95974,15.95974,0,0,0,214.415,56H46.69531L41.79492,29.12988A15.995,15.995,0,0,0,26.05371,16H8A8,8,0,0,0,8,32H26.05469L32.044,64.84717a8.04283,8.04283,0,0,0,.21679,1.18554L51.37793,170.87012A15.994,15.994,0,0,0,67.11816,184H196.9707a15.99217,15.99217,0,0,0,15.74219-13.13965l17.44434-95.99951A15.957,15.957,0,0,0,226.69922,61.74805Z"/>
</svg>
