<svg xmlns="http://www.w3.org/2000/svg" viewBox="0 0 256 256"><path d="M114.8,160.2,96.9,185.3a16.1,16.1,0,0,1-13,6.7H32a8,8,0,0,1,0-16H83.9l17.9-25.1a8,8,0,1,1,13,9.3ZM143,107a8,8,0,0,0,11.2-1.9L172.1,80H200V96a8,8,0,0,0,4.9,7.4,8.5,8.5,0,0,0,3.1.6,8.3,8.3,0,0,0,5.7-2.3l24-24a8.1,8.1,0,0,0,0-11.4l-24-24a8.4,8.4,0,0,0-8.8-1.7A8,8,0,0,0,200,48V64H172.1a16.1,16.1,0,0,0-13,6.7L141.2,95.8A8,8,0,0,0,143,107Zm70.7,47.3a8.4,8.4,0,0,0-8.8-1.7A8,8,0,0,0,200,160v16H172.1L96.9,70.7a16.1,16.1,0,0,0-13-6.7H32a8,8,0,0,0,0,16H83.9l75.2,105.3a16.1,16.1,0,0,0,13,6.7H200v16a8,8,0,0,0,4.9,7.4,8.5,8.5,0,0,0,3.1.6,8.3,8.3,0,0,0,5.7-2.3l24-24a8.1,8.1,0,0,0,0-11.4Z"/></svg>