<svg id="Flat" xmlns="http://www.w3.org/2000/svg" viewBox="0 0 256 256">
  <path d="M214.18481,213.07324c-.1394.16992-.28881.33057-.44165.48828-.02978.03125-.05542.06494-.08593.09522-.02735.02734-.05762.05029-.08521.07715-.16089.15625-.32593.30908-.49951.45166-.10034.082-.20605.15429-.30933.231-.106.07862-.209.16114-.31884.23438-.11914.07959-.24244.14892-.36475.22168-.102.061-.20215.125-.30713.18164-.1228.06543-.249.12109-.374.18018-.11157.05224-.22119.10839-.33545.15576-.12183.05029-.24634.09131-.37012.13525-.12256.044-.24341.09082-.3689.12891-.12353.03759-.24877.06494-.37377.09619-.12842.03222-.25538.06836-.38624.09424-.14208.02832-.28564.04492-.429.06543-.11523.0166-.22852.03857-.34546.0498-.26245.02588-.52588.04-.78955.04H168a8,8,0,0,1,0-16h20.686L42.34277,53.65674A8.00018,8.00018,0,1,1,53.65723,42.34326L200,188.686V168a8,8,0,0,1,16,0v39.99512c.00024.26562-.01367.53174-.04.79687-.0105.10742-.031.21192-.0459.31787-.02124.15235-.03955.30518-.06958.45606-.0249.126-.05981.248-.09082.37207-.032.12939-.06079.25928-.09961.38721-.03686.12207-.08276.23974-.12549.35888-.04516.12744-.08715.25537-.13916.38037-.04565.11035-.09961.21582-.1499.32325-.06079.12939-.11841.25976-.18652.38671-.054.10059-.11572.19629-.17383.29444-.07471.126-.14624.25342-.22876.37646-.071.106-.15063.20606-.22681.3086C214.34448,212.86035,214.27,212.96973,214.18481,213.07324ZM150.627,113.37305a7.97784,7.97784,0,0,0,5.65723-2.34326L200,67.314V88a8,8,0,0,0,16,0V48.00488c.00024-.26562-.01367-.53174-.04-.79687-.0105-.10742-.031-.21192-.0459-.31787-.02124-.15235-.03955-.30518-.06958-.45606-.0249-.126-.05981-.248-.09082-.37207-.032-.12939-.06079-.25928-.09961-.38721-.03686-.12207-.083-.23974-.12549-.35937-.04516-.127-.0874-.25488-.13916-.37988-.04565-.11035-.09985-.21582-.15014-.32373-.06055-.1294-.11817-.25928-.186-.38623-.05444-.10108-.1167-.19776-.17529-.29639-.07422-.12549-.14551-.252-.2273-.374-.07153-.10694-.15161-.20752-.22827-.31055-.07885-.106-.15283-.21484-.23755-.31787-.1394-.16992-.28881-.33057-.44165-.48828-.02978-.03125-.05542-.06494-.08593-.09522-.0293-.0293-.06153-.05371-.09131-.08252-.15869-.15429-.32105-.30469-.49219-.44531-.106-.08691-.21777-.16357-.32715-.24463-.1001-.07373-.19678-.15137-.30029-.2207-.12476-.0835-.25415-.15625-.38233-.23194-.09619-.05712-.18994-.11767-.28881-.17089-.12769-.06836-.25879-.12647-.38941-.1875-.10669-.04981-.21118-.10352-.32031-.14893-.126-.05225-.25439-.09424-.38208-.13965-.1189-.04248-.23608-.08838-.35742-.125-.12622-.03857-.2544-.0664-.38208-.09814-.126-.03174-.25049-.06739-.37866-.09278-.14356-.02832-.28858-.04541-.43311-.06591-.114-.01612-.22632-.03809-.3418-.04932-.26245-.02588-.52563-.04-.78882-.04H168a8,8,0,0,0,0,16h20.68579L144.96973,99.71582a8.00025,8.00025,0,0,0,5.65722,13.65723ZM99.71582,144.97021l-57.373,57.373a8.00018,8.00018,0,0,0,11.31446,11.31348l57.373-57.37256a8.00035,8.00035,0,0,0-11.31445-11.314Z"/>
</svg>
