<svg xmlns="http://www.w3.org/2000/svg" viewBox="0 0 256 256"><path d="M114.8,160.2l-1.1,1.6A72.2,72.2,0,0,1,55.1,192H32a8,8,0,0,1,0-16H55.1a56.1,56.1,0,0,0,45.5-23.5l1.2-1.6a8,8,0,1,1,13,9.3ZM143,107a8,8,0,0,0,11.2-1.9l1.2-1.6A55.9,55.9,0,0,1,200,80V96a8,8,0,0,0,4.9,7.4,8.5,8.5,0,0,0,3.1.6,8.3,8.3,0,0,0,5.7-2.3l24-24a8.1,8.1,0,0,0,0-11.4l-24-24a8.4,8.4,0,0,0-8.8-1.7A8,8,0,0,0,200,48V64a72.2,72.2,0,0,0-57.7,30.2l-1.1,1.6A8,8,0,0,0,143,107Zm70.7,47.3a8.4,8.4,0,0,0-8.8-1.7A8,8,0,0,0,200,160v16a55.9,55.9,0,0,1-44.6-23.5L113.7,94.2A72.2,72.2,0,0,0,55.1,64H32a8,8,0,0,0,0,16H55.1a56.1,56.1,0,0,1,45.5,23.5l41.7,58.3A72.2,72.2,0,0,0,200,192v16a8,8,0,0,0,4.9,7.4,8.5,8.5,0,0,0,3.1.6,8.3,8.3,0,0,0,5.7-2.3l24-24a8.1,8.1,0,0,0,0-11.4Z"/></svg>