<svg id="Flat" xmlns="http://www.w3.org/2000/svg" viewBox="0 0 256.00098 256.00098">
  <path d="M151.99707,87.99988a24.03744,24.03744,0,0,1-16,22.6239v105.3761a8,8,0,0,1-16,0V110.62378a23.995,23.995,0,0,1,0-45.2478V39.99988a8,8,0,0,1,16,0V65.376A24.03809,24.03809,0,0,1,151.99707,87.99988Zm72,80a24.03744,24.03744,0,0,0-16-22.6239l.001-105.3761a8,8,0,1,0-16,0l-.001,105.3761a23.995,23.995,0,0,0,0,45.2478l.001,25.3761a8,8,0,0,0,16,0l-.001-25.37622A24.03728,24.03728,0,0,0,223.99707,167.99988Zm-160-54.6239-.00049-73.3761a8,8,0,0,0-16,0l.00049,73.3761a23.995,23.995,0,0,0,0,45.2478l-.00049,57.3761a8,8,0,1,0,16,0l.00049-57.3761a23.995,23.995,0,0,0,0-45.2478Z"/>
</svg>
