<svg id="Flat" xmlns="http://www.w3.org/2000/svg" viewBox="0 0 256 256">
  <path d="M229.65527,173.65759l-39.999,39.99317c-.00928.00976-.02.01758-.0293.02685q-.26659.26367-.55615.50244c-.09277.07618-.19092.14258-.28613.21387-.11377.085-.2251.17334-.34326.25244-.11329.07569-.23047.14112-.34668.21045-.10743.06446-.21338.13233-.32422.1919-.11817.063-.23975.11621-.35987.17334-.11669.05468-.231.11279-.35009.16211-.1167.04834-.23584.0874-.3545.12988-.12744.0459-.2539.09473-.38427.13476-.11866.03565-.23877.06153-.35791.0918-.13379.03369-.26563.07129-.40137.09815-.13867.02734-.27832.04345-.418.06347-.11865.01709-.23535.03955-.35547.05127-.2622.02588-.52539.04-.78906.04s-.52686-.01416-.78955-.04c-.11865-.01172-.23389-.03369-.35108-.05078-.14111-.02-.28222-.03662-.42236-.06445-.13428-.02637-.26416-.06348-.396-.09668-.12159-.03028-.24366-.05664-.36329-.09326-.1289-.03907-.25293-.08741-.3789-.13233-.12012-.043-.2417-.083-.36035-.13183-.1167-.04834-.228-.105-.3418-.1587-.123-.0581-.24756-.11279-.36865-.17773-.10694-.05713-.2085-.12256-.312-.18408-.12012-.07178-.24219-.14014-.35938-.21826-.1123-.0752-.21777-.15918-.32617-.23975-.10108-.07519-.2041-.146-.30274-.22656-.1748-.14356-.3413-.29737-.50341-.45508-.02637-.02539-.05518-.04736-.08106-.07324l-40-40a8.00036,8.00036,0,0,1,11.314-11.31446L176,188.67957v-76.686a8,8,0,0,1,16,0V188.682l26.34277-26.33887a7.99983,7.99983,0,1,1,11.3125,11.31445ZM119.999,119.99353H48a8,8,0,0,0,0,16h71.999a8,8,0,1,0,0-16Zm-71.999-48H183.999a8,8,0,0,0,0-16H48a8,8,0,1,0,0,16Zm56,112H48a8,8,0,0,0,0,16h56a8,8,0,0,0,0-16Z"/>
</svg>
