<svg id="Flat" xmlns="http://www.w3.org/2000/svg" viewBox="0 0 256 256">
  <path d="M229.65625,93.643a7.99827,7.99827,0,0,1-11.31348.001L192,67.3053v76.68823a8,8,0,0,1-16,0V67.3075L149.65723,93.65076a8.00036,8.00036,0,0,1-11.314-11.31446l40-40c.02539-.02563.05371-.04687.07959-.07177.1626-.15869.32959-.3125.50537-.45679.09668-.07935.19824-.14844.29785-.22266.10987-.082.21729-.167.33106-.2434.11474-.07691.23389-.14356.352-.21387.10644-.06348.21045-.13037.32031-.18921.11719-.0625.23731-.11548.35645-.17163.11767-.05591.2334-.1145.35449-.16455.11279-.04663.22754-.084.3418-.12525.13232-.04785.26367-.09838.39892-.1394.10987-.0332.22217-.05737.333-.08569.1416-.03638.28223-.07544.42676-.104.12256-.02417.24658-.03808.37012-.05664.13476-.02.26757-.04492.40429-.05835.2041-.02.40821-.02661.61279-.03076.05762-.00146.11377-.00879.17188-.00879.06152,0,.12109.00781.18213.00928.20068.00439.40137.01074.60156.03027.14014.01367.27686.03906.415.06006.12012.01807.24023.03125.35889.05469.14892.02929.293.06958.43847.10693.10694.02735.21485.05054.3208.08252.14014.04248.27588.09448.4126.14429.10938.03955.21973.07519.32715.11987.12647.05225.24805.11353.37109.17188.11377.0542.22852.10424.33985.16406.11621.062.22656.13257.33935.20019.11182.0669.22461.12989.3335.20264.12207.08154.23682.17212.354.26025.0918.06885.186.13257.27539.20606.19385.15893.37989.32764.55811.50391.00928.00927.01953.0166.02832.02587l39.999,39.99317A7.99959,7.99959,0,0,1,229.65625,93.643ZM48,135.99353h71.999a8,8,0,1,0,0-16H48a8,8,0,0,0,0,16Zm0-64h55.999a8,8,0,0,0,0-16H48a8,8,0,1,0,0,16Zm135.999,112H48a8,8,0,0,0,0,16H183.999a8,8,0,0,0,0-16Z"/>
</svg>
