<svg xmlns="http://www.w3.org/2000/svg" viewBox="0 0 256 256"><path d="M248,128a79.5,79.5,0,0,1-23.4,56.6,8.3,8.3,0,0,1-5.7,2.3,8,8,0,0,1-5.6-2.3,7.9,7.9,0,0,1,0-11.3,64.2,64.2,0,0,0,0-90.6,7.9,7.9,0,0,1,0-11.3,8,8,0,0,1,11.3,0A79.5,79.5,0,0,1,248,128ZM160,32V224a8,8,0,0,1-4.5,7.2,8.5,8.5,0,0,1-3.5.8,8.1,8.1,0,0,1-4.9-1.7L77.3,176H32a16,16,0,0,1-16-16V96A16,16,0,0,1,32,80H77.3l69.8-54.3A8,8,0,0,1,160,32ZM32,160H72V96H32ZM185,99.7a7.9,7.9,0,0,0,0,11.3,24.1,24.1,0,0,1,0,34,7.9,7.9,0,0,0,0,11.3,8,8,0,0,0,5.6,2.3,8.3,8.3,0,0,0,5.7-2.3,40.1,40.1,0,0,0,0-56.6A8,8,0,0,0,185,99.7Z"/></svg>