<svg id="Flat" xmlns="http://www.w3.org/2000/svg" viewBox="0 0 256 256">
  <path d="M248,128.00869A79.47687,79.47687,0,0,1,224.56836,184.578a8.00053,8.00053,0,0,1-11.31445-11.31446,63.99788,63.99788,0,0,0,0-90.50976,8.00053,8.00053,0,0,1,11.31445-11.31446A79.47687,79.47687,0,0,1,248,128.00869Zm-88-96v192a7.99935,7.99935,0,0,1-12.91113,6.31445l-69.834-54.31445H32a16.01833,16.01833,0,0,1-16-16v-64a16.01833,16.01833,0,0,1,16-16H77.25488l69.834-54.31445A7.99958,7.99958,0,0,1,160,32.00869Zm-128,128H71.9707v-64H32Zm152.96973-60.2832a7.99913,7.99913,0,0,0,.001,11.31347,23.99832,23.99832,0,0,1,0,33.93946,7.99983,7.99983,0,1,0,11.3125,11.31445,39.99719,39.99719,0,0,0,0-56.56836A7.99825,7.99825,0,0,0,184.96973,99.72549Z"/>
</svg>
