<svg id="Flat" xmlns="http://www.w3.org/2000/svg" viewBox="0 0 256 256">
  <path d="M159.99414,31.99707v192a7.99386,7.99386,0,0,1-12.90625,6.3125l-69.84375-54.3125h-45.25a16.01583,16.01583,0,0,1-16-16v-64a16.01583,16.01583,0,0,1,16-16h45.25l69.84375-54.3125a7.99451,7.99451,0,0,1,12.90625,6.3125Zm67.3125,96,18.34375-18.34375a7.99915,7.99915,0,0,0-11.3125-11.3125l-18.34375,18.34375L197.65039,98.34082a7.99915,7.99915,0,0,0-11.3125,11.3125l18.34375,18.34375-18.34375,18.34375a7.99915,7.99915,0,1,0,11.3125,11.3125l18.34375-18.34375,18.34375,18.34375a7.99915,7.99915,0,0,0,11.3125-11.3125Z"/>
</svg>
