<svg id="Flat" xmlns="http://www.w3.org/2000/svg" viewBox="0 0 256 256">
  <path d="M53.91992,34.61813A8.0006,8.0006,0,1,0,42.08008,45.3818L73.55371,80.0029H32a16.01833,16.01833,0,0,0-16,16v64a16.01833,16.01833,0,0,0,16,16H77.25488l69.834,54.31445-.00537-.01123.00439.00342a7.99451,7.99451,0,0,0,12.90625-6.3125V175.08737l42.08594,46.29443a8.0006,8.0006,0,1,0,11.83984-10.76367ZM71.9707,160.0029H32v-64H71.9707Zm34.26563-91.62012a7.99966,7.99966,0,0,1,1.00879-11.69629l39.84375-30.98926A7.99958,7.99958,0,0,1,160,32.01169v74.81738a8.00056,8.00056,0,0,1-13.91992,5.38183Zm141.74023,59.62891A79.46979,79.46979,0,0,1,224.544,184.58a7.99983,7.99983,0,1,1-11.3125-11.31445,63.99908,63.99908,0,0,0,0-90.50879A7.99983,7.99983,0,1,1,224.544,71.44235,79.47039,79.47039,0,0,1,247.97656,128.01169ZM184.94629,111.041a8.00052,8.00052,0,0,1,11.31445-11.31445,39.99957,39.99957,0,0,1-.001,56.56934,7.99984,7.99984,0,0,1-11.3125-11.31446,23.99833,23.99833,0,0,0-.001-33.94043Z"/>
</svg>
