<svg id="Flat" xmlns="http://www.w3.org/2000/svg" viewBox="0 0 256 256">
  <path d="M155.51465,24.81927a7.99655,7.99655,0,0,0-8.42578.87207l-69.834,54.31445H32a16.01833,16.01833,0,0,0-16,16v64a16.01833,16.01833,0,0,0,16,16H77.25488l69.834,54.31446A7.99958,7.99958,0,0,0,160,224.00579v-192A7.9997,7.9997,0,0,0,155.51465,24.81927ZM32,96.00579H71.9707v64H32Zm176,32A39.73365,39.73365,0,0,1,196.2832,156.29a7.99983,7.99983,0,0,1-11.3125-11.31445,23.99831,23.99831,0,0,0,0-33.93945,7.99984,7.99984,0,0,1,11.3125-11.31446A39.73368,39.73368,0,0,1,208,128.00579Z"/>
</svg>
