<svg xmlns="http://www.w3.org/2000/svg" viewBox="0 0 256 256"><path d="M53.9,34.6A8,8,0,0,0,42.1,45.4L73.6,80H32A16,16,0,0,0,16,96v64a16,16,0,0,0,16,16H77.3l69.8,54.3h0A7.9,7.9,0,0,0,152,232a8.5,8.5,0,0,0,3.5-.8A8.1,8.1,0,0,0,160,224V175.1l42.1,46.3A8,8,0,0,0,208,224a8.2,8.2,0,0,0,5.4-2.1,7.9,7.9,0,0,0,.5-11.3ZM72,160H32V96H72Zm34.2-91.6a8.1,8.1,0,0,1-2-6.1,8.2,8.2,0,0,1,3-5.6l39.9-31A8,8,0,0,1,160,32v74.8a8,8,0,0,1-5.1,7.5,7.4,7.4,0,0,1-2.9.5,7.9,7.9,0,0,1-5.9-2.6ZM248,128a79.2,79.2,0,0,1-23.5,56.6,8,8,0,0,1-5.6,2.3,8.3,8.3,0,0,1-5.7-2.3,8,8,0,0,1,0-11.3,63.9,63.9,0,0,0,0-90.5,8.1,8.1,0,0,1,0-11.4,8,8,0,0,1,11.3,0A79.2,79.2,0,0,1,248,128Zm-63.1-17a8,8,0,0,1,0-11.3,8.1,8.1,0,0,1,11.4,0,40.1,40.1,0,0,1,0,56.6,7.8,7.8,0,0,1-5.7,2.3,8,8,0,0,1-5.7-13.6,23.9,23.9,0,0,0,0-34Z"/></svg>