<svg xmlns="http://www.w3.org/2000/svg" viewBox="0 0 256 256"><path d="M88.4,77.1a8,8,0,0,1,0,11.3,8.1,8.1,0,0,1-11.3,0L54.5,65.8A8,8,0,0,1,65.8,54.5ZM77.1,167.6,54.5,190.2a7.9,7.9,0,0,0,0,11.3,7.7,7.7,0,0,0,5.6,2.4,8,8,0,0,0,5.7-2.4l22.6-22.6a8,8,0,0,0-11.3-11.3ZM72,128a8,8,0,0,0-8-8H32a8,8,0,0,0,0,16H64A8,8,0,0,0,72,128ZM128,24a8,8,0,0,0-8,8V64a8,8,0,0,0,16,0V32A8,8,0,0,0,128,24Zm96,96H192a8,8,0,0,0,0,16h32a8,8,0,0,0,0-16Zm-45.1,47.6a8,8,0,0,0-11.3,11.3l22.6,22.6a8,8,0,0,0,5.7,2.4,7.7,7.7,0,0,0,5.6-2.4,7.9,7.9,0,0,0,0-11.3ZM128,184a8,8,0,0,0-8,8v32a8,8,0,0,0,16,0V192A8,8,0,0,0,128,184Z"/></svg>