<svg id="Flat" xmlns="http://www.w3.org/2000/svg" viewBox="0 0 256 256">
  <path d="M120,48v64a7.9954,7.9954,0,0,1-8,8H48a7.99539,7.99539,0,0,1-8-8V48a7.99539,7.99539,0,0,1,8-8h64A7.9954,7.9954,0,0,1,120,48Zm88-8H144a7.99539,7.99539,0,0,0-8,8v64a7.99539,7.99539,0,0,0,8,8h64a7.9954,7.9954,0,0,0,8-8V48A7.9954,7.9954,0,0,0,208,40Zm-96,96H48a7.99539,7.99539,0,0,0-8,8v64a7.99539,7.99539,0,0,0,8,8h64a7.9954,7.9954,0,0,0,8-8V144A7.9954,7.9954,0,0,0,112,136Zm96,0H144a7.99539,7.99539,0,0,0-8,8v64a7.99539,7.99539,0,0,0,8,8h64a7.9954,7.9954,0,0,0,8-8V144A7.9954,7.9954,0,0,0,208,136Z"/>
</svg>
