<svg xmlns="http://www.w3.org/2000/svg" viewBox="0 0 256 256"><path d="M196,128a68,68,0,1,1-68-68A68.1,68.1,0,0,1,196,128ZM128,44a8,8,0,0,0,8-8V28a8,8,0,0,0-16,0v8A8,8,0,0,0,128,44ZM57.3,68.6a8.1,8.1,0,0,0,11.3,0,8,8,0,0,0,0-11.3l-5.7-5.7A8,8,0,0,0,51.6,62.9ZM36,120H28a8,8,0,0,0,0,16h8a8,8,0,0,0,0-16Zm21.3,67.4-5.7,5.7a8,8,0,0,0,0,11.3,8.3,8.3,0,0,0,5.7,2.3,8,8,0,0,0,5.6-2.3l5.7-5.7a8,8,0,0,0-11.3-11.3ZM128,212a8,8,0,0,0-8,8v8a8,8,0,0,0,16,0v-8A8,8,0,0,0,128,212Zm70.7-24.6a8,8,0,0,0-11.3,11.3l5.7,5.7a8,8,0,0,0,5.6,2.3,8.3,8.3,0,0,0,5.7-2.3,8,8,0,0,0,0-11.3ZM228,120h-8a8,8,0,0,0,0,16h8a8,8,0,0,0,0-16ZM193.1,70.9a7.8,7.8,0,0,0,5.6-2.3l5.7-5.7a8,8,0,1,0-11.3-11.3l-5.7,5.7a8,8,0,0,0,0,11.3A7.8,7.8,0,0,0,193.1,70.9Z"/></svg>