<svg xmlns="http://www.w3.org/2000/svg" viewBox="0 0 256 256"><path d="M196,128a68,68,0,1,1-68-68A68.1,68.1,0,0,1,196,128ZM128,44a8,8,0,0,0,8-8V16a8,8,0,0,0-16,0V36A8,8,0,0,0,128,44ZM57.3,68.6a8.1,8.1,0,0,0,11.3,0,8,8,0,0,0,0-11.3L54.5,43.1A8.1,8.1,0,1,0,43.1,54.5ZM44,128a8,8,0,0,0-8-8H16a8,8,0,0,0,0,16H36A8,8,0,0,0,44,128Zm13.3,59.4L43.1,201.5a8.1,8.1,0,0,0,0,11.4,8.5,8.5,0,0,0,5.7,2.3,8.3,8.3,0,0,0,5.7-2.3l14.1-14.2a8,8,0,0,0-11.3-11.3ZM128,212a8,8,0,0,0-8,8v20a8,8,0,0,0,16,0V220A8,8,0,0,0,128,212Zm70.7-24.6a8,8,0,0,0-11.3,11.3l14.1,14.2a8.3,8.3,0,0,0,5.7,2.3,8.5,8.5,0,0,0,5.7-2.3,8.1,8.1,0,0,0,0-11.4ZM240,120H220a8,8,0,0,0,0,16h20a8,8,0,0,0,0-16ZM193.1,70.9a7.8,7.8,0,0,0,5.6-2.3l14.2-14.1a8.1,8.1,0,0,0-11.4-11.4L187.4,57.3a8,8,0,0,0,0,11.3A7.8,7.8,0,0,0,193.1,70.9Z"/></svg>