<svg id="Flat" xmlns="http://www.w3.org/2000/svg" viewBox="0 0 256 256">
  <path d="M237.40918,150.5332a36.05843,36.05843,0,0,1-51.05469,50.9336,7.99985,7.99985,0,1,1,11.291-11.33594,20.20173,20.20173,0,0,0,28.47461-.001,19.91646,19.91646,0,0,0-.001-28.25976,20.20412,20.20412,0,0,0-28.47461.001,7.99971,7.99971,0,0,1-13.541-6.95214l7.835-48.20215A8.00076,8.00076,0,0,1,199.835,100H240a8,8,0,0,1,0,16H206.63965L202.542,141.21094a36.413,36.413,0,0,1,9.33985-1.209A35.94758,35.94758,0,0,1,237.40918,150.5332ZM144,48a8.00039,8.00039,0,0,0-8,8v52H48V56a8,8,0,0,0-16,0V176a8,8,0,0,0,16,0V124h88v52a8,8,0,0,0,16,0V56A8.00039,8.00039,0,0,0,144,48Z"/>
</svg>
