<svg xmlns="http://www.w3.org/2000/svg" viewBox="0 0 256 256"><path d="M168,88a8,8,0,0,1-8,8H96a8,8,0,0,1,0-16h64A8,8,0,0,1,168,88Zm56,32.1a2.8,2.8,0,0,1-.1.9h0a2.9,2.9,0,0,1-.2.9h0l-22.4,82.1A15.9,15.9,0,0,1,185.9,216H176l14.4,19.2a8,8,0,0,1-1.6,11.2A7.7,7.7,0,0,1,184,248a8,8,0,0,1-6.4-3.2L156,216H100L78.4,244.8A8,8,0,0,1,72,248a7.7,7.7,0,0,1-4.8-1.6,8,8,0,0,1-1.6-11.2L80,216H70.1a15.9,15.9,0,0,1-15.4-11.8L32.3,122.1h0a2.9,2.9,0,0,1-.2-.9h0a2.8,2.8,0,0,1-.1-.9v-.2a2.2,2.2,0,0,1,.1-.8v-.5c.1-.2.1-.4.2-.6h0l22.4-82A15.9,15.9,0,0,1,70.1,24H185.9a15.9,15.9,0,0,1,15.4,11.8l22.4,82h0c.1.2.1.4.2.6v.5a2.2,2.2,0,0,1,.1.8ZM136,152a8,8,0,0,0-16,0v40a8,8,0,0,0,16,0Zm70-38.3L185.9,40H70.1L50,113.7l78,14.2Z"/></svg>