<svg id="Flat" xmlns="http://www.w3.org/2000/svg" viewBox="0 0 256 256">
  <path d="M168,88a8.00008,8.00008,0,0,1-8,8H96a8,8,0,0,1,0-16h64A8.00008,8.00008,0,0,1,168,88Zm55.99585,32.05762a7.94859,7.94859,0,0,1-.06567.98889c-.00269.0202-.00757.0401-.0105.06036a7.95052,7.95052,0,0,1-.18115.89508c-.00879.03406-.01148.06909-.02076.103L201.3252,204.209A16.03394,16.03394,0,0,1,185.88965,216h-9.88941l14.40015,19.2002a8.00019,8.00019,0,0,1-12.80078,9.5996L155.99976,216H100.00024L78.40039,244.7998a8.00019,8.00019,0,1,1-12.80078-9.5996L79.99976,216H70.11035A16.03394,16.03394,0,0,1,54.6748,204.209L32.28223,122.105c-.00928-.03394-.012-.069-.02076-.103a7.95052,7.95052,0,0,1-.18115-.89508c-.00293-.02026-.00781-.04016-.0105-.06036a7.94859,7.94859,0,0,1-.06567-.98889c-.00049-.06708.00439-.13373.00562-.20081q.00732-.37884.05078-.76166c.011-.09741.023-.194.03759-.291.012-.07855.01661-.15656.03077-.23529.033-.181.08007-.35541.12451-.53119.012-.04718.01611-.09564.02881-.14264l.03247-.11877.002-.00733L54.6748,35.79A16.03362,16.03362,0,0,1,70.11035,24h115.7793A16.03362,16.03362,0,0,1,201.3252,35.79l22.35839,81.98.00122.00421.033.12073c.01294.04748.01709.0965.0293.14416.04395.1753.09131.34919.124.52967.01416.07873.0188.15674.03077.23529.01464.097.02661.1936.03759.291q.044.38316.05078.76166C223.99146,119.92389,223.99634,119.99054,223.99585,120.05762ZM136,152a8,8,0,0,0-16,0v40a8,8,0,0,0,16,0Zm69.98682-38.31067L185.88965,40H70.10645L50.0127,113.68927,128,127.86865Z"/>
</svg>
