<svg id="Flat" xmlns="http://www.w3.org/2000/svg" viewBox="0 0 256 256">
  <path d="M246.55859,65.24951a135.60493,135.60493,0,0,1-30.84228,31.60791A136.04482,136.04482,0,0,1,14.0957,206.99268a8.0085,8.0085,0,0,1,3.76709-15.00586,119.46448,119.46448,0,0,0,55.93018-14.792A136.21055,136.21055,0,0,1,28.93115,35.58936,8.00016,8.00016,0,0,1,43.3457,33.36279a119.68665,119.68665,0,0,0,76.65088,52.24073,48.00284,48.00284,0,0,1,87.11963-26.51123,120.50746,120.50746,0,0,0,30.34131-6.01465,8.00008,8.00008,0,0,1,9.10107,12.17187Z"/>
</svg>
