<svg id="Flat" xmlns="http://www.w3.org/2000/svg" viewBox="0 0 256 256">
  <path d="M74.34326,77.65723a8.00034,8.00034,0,0,1,0-11.31446l48-48c.02539-.02539.05371-.04687.07959-.07177.1626-.1587.32959-.3125.50537-.457.09619-.07861.19776-.14746.29639-.22119.11035-.08252.21826-.168.333-.24511.11377-.07618.23242-.14209.34912-.21192.10742-.06445.2124-.13183.32324-.19092.11572-.062.23535-.11425.35352-.17041.11865-.05615.23584-.11523.35742-.166.11181-.0459.22558-.083.33887-.12354.1333-.04834.26513-.09961.40185-.14062.10889-.0332.21973-.05664.33008-.085.14258-.03662.28369-.07617.42969-.105.12109-.02393.24365-.0376.36523-.05567.13623-.0205.271-.04541.40918-.05908.20215-.01953.40479-.02637.60742-.03076.05908-.001.11719-.00879.17676-.00879s.11768.00781.17676.00879c.20263.00439.40527.01123.60742.03076.13818.01367.273.03858.40918.05908.12158.01807.24414.03174.36523.05567.146.02881.28711.06836.42969.105.11035.02832.22119.05176.33008.085.13672.041.26855.09228.40185.14062.11329.04053.22706.07764.33887.12354.12158.05078.23877.10986.35742.166.11817.05616.2378.1084.35352.17041.11084.05909.21582.12647.32324.19092.1167.06983.23535.13574.34912.21192.11475.07714.22266.16259.333.24511.09863.07373.2002.14258.29639.22119.17871.147.34912.30372.51416.46485.023.02246.04785.0415.0708.064l48,48a8.00018,8.00018,0,0,1-11.31348,11.31446L136,43.31348V128a8,8,0,0,1-16,0V43.31348L85.65674,77.65723A8.00182,8.00182,0,0,1,74.34326,77.65723ZM240,136v64a16.01833,16.01833,0,0,1-16,16H32a16.01833,16.01833,0,0,1-16-16V136a16.01833,16.01833,0,0,1,16-16h72v8a24,24,0,0,0,48,0v-8h72A16.01833,16.01833,0,0,1,240,136Zm-39.99951,32a12,12,0,1,0-12,12A12,12,0,0,0,200.00049,168Z"/>
</svg>
