<svg xmlns="http://www.w3.org/2000/svg" viewBox="0 0 256 256"><path d="M88,112a40,40,0,0,1,80,0,39.5,39.5,0,0,1-13.1,29.5,69.1,69.1,0,0,1,33.3,30.8,7.8,7.8,0,0,1-.3,7.8,7.9,7.9,0,0,1-6.8,3.9H74.9a7.9,7.9,0,0,1-6.8-3.9,7.8,7.8,0,0,1-.3-7.8,69.1,69.1,0,0,1,33.3-30.8A39.5,39.5,0,0,1,88,112ZM40,84a8,8,0,0,0,8-8V48H76a8,8,0,0,0,0-16H48A16,16,0,0,0,32,48V76A8,8,0,0,0,40,84Zm176,88a8,8,0,0,0-8,8v28H180a8,8,0,0,0,0,16h28a16,16,0,0,0,16-16V180A8,8,0,0,0,216,172ZM208,32H180a8,8,0,0,0,0,16h28V76a8,8,0,0,0,16,0V48A16,16,0,0,0,208,32ZM76,208H48V180a8,8,0,0,0-16,0v28a16,16,0,0,0,16,16H76a8,8,0,0,0,0-16Z"/></svg>