<svg id="Flat" xmlns="http://www.w3.org/2000/svg" viewBox="0 0 256 256">
  <path d="M172,120a44,44,0,1,1-44-44A44,44,0,0,1,172,120Zm52-72V208a16.01833,16.01833,0,0,1-16,16H48a16.01833,16.01833,0,0,1-16-16V48A16.01833,16.01833,0,0,1,48,32H208A16.01833,16.01833,0,0,1,224,48ZM208.01025,207.99951,208,48H48V208h3.67322a80.44452,80.44452,0,0,1,26.069-38.24561,79.23073,79.23073,0,0,1,8.98218-6.26953,59.83684,59.83684,0,0,0,82.55126,0,79.23073,79.23073,0,0,1,8.98218,6.26953A80.44452,80.44452,0,0,1,204.32678,208H208Z"/>
</svg>
