<svg id="Flat" xmlns="http://www.w3.org/2000/svg" viewBox="0 0 256 256">
  <path d="M228.24854,63.07178l-4.65687-2.68872a23.72829,23.72829,0,0,0,0-8.76612l4.65687-2.68872a8,8,0,1,0-8-13.85644l-4.66822,2.69531A24.0036,24.0036,0,0,0,208,33.376V28a8,8,0,0,0-16,0v5.376a24.0036,24.0036,0,0,0-7.58032,4.39111l-4.66822-2.69531a8,8,0,0,0-8,13.85644l4.65687,2.68872a23.72829,23.72829,0,0,0,0,8.76612l-4.65687,2.68872a8,8,0,1,0,8,13.85644l4.66822-2.69531A24.0036,24.0036,0,0,0,192,78.624V84a8,8,0,0,0,16,0V78.624a24.0036,24.0036,0,0,0,7.58032-4.39111l4.66822,2.69531a8,8,0,0,0,8-13.85644ZM200,64a8,8,0,1,1,8-8A8.00917,8.00917,0,0,1,200,64ZM128,76a44,44,0,1,1-44,44A44.04978,44.04978,0,0,1,128,76Zm102.562,34.6748A103.90159,103.90159,0,1,1,145.3252,25.438a7.99993,7.99993,0,0,1-2.64747,15.7793A88.08417,88.08417,0,0,0,40,128a87.63816,87.63816,0,0,0,22.2417,58.41016,79.7048,79.7048,0,0,1,24.43115-22.97461,59.83641,59.83641,0,0,0,82.6543,0,79.70266,79.70266,0,0,1,24.43091,22.97461A87.63623,87.63623,0,0,0,216,128a88.98692,88.98692,0,0,0-1.21729-14.67773,7.99993,7.99993,0,0,1,15.7793-2.64747Z"/>
</svg>
