<svg xmlns="http://www.w3.org/2000/svg" viewBox="0 0 256 256"><path d="M166.5,192.8a7.8,7.8,0,0,1,.6,8.3,8.1,8.1,0,0,1-7.1,4.3H16a8.1,8.1,0,0,1-7.1-4.3,7.8,7.8,0,0,1,.6-8.3,95.5,95.5,0,0,1,45.3-34.9,60,60,0,1,1,66.4,0A95.5,95.5,0,0,1,166.5,192.8Zm81.6,0a96.3,96.3,0,0,0-45.4-34.9A59.9,59.9,0,0,0,169.5,48a64,64,0,0,0-16.3,2.2,8.2,8.2,0,0,0-5.4,5.2,8,8,0,0,0,1.2,7.3,75.8,75.8,0,0,1,3.8,84.9,8.1,8.1,0,0,0,2.1,10.6q4.5,3.5,8.7,7.2l.5.5a112.6,112.6,0,0,1,25.5,34.9,7.9,7.9,0,0,0,7.2,4.6h44.7a8.1,8.1,0,0,0,7.1-4.3A8,8,0,0,0,248.1,192.8Z"/></svg>