<svg id="Flat" xmlns="http://www.w3.org/2000/svg" viewBox="0 0 256 256">
  <path d="M88,112a40,40,0,1,1,66.93921,29.54077,67.94605,67.94605,0,0,1,33.21313,30.72095A7.99956,7.99956,0,0,1,181.07959,184H74.92041a7.99956,7.99956,0,0,1-7.07275-11.73828,67.94605,67.94605,0,0,1,33.21313-30.72095A39.90336,39.90336,0,0,1,88,112ZM40,84a8.00008,8.00008,0,0,0,8-8V48H76a8,8,0,0,0,0-16H48A16.01833,16.01833,0,0,0,32,48V76A8.00008,8.00008,0,0,0,40,84Zm176,88a8.00008,8.00008,0,0,0-8,8v28H180a8,8,0,0,0,0,16h28a16.01833,16.01833,0,0,0,16-16V180A8.00008,8.00008,0,0,0,216,172ZM208,32H180a8,8,0,0,0,0,16h28V76a8,8,0,0,0,16,0V48A16.01833,16.01833,0,0,0,208,32ZM76,208H48V180a8,8,0,0,0-16,0v28a16.01833,16.01833,0,0,0,16,16H76a8,8,0,0,0,0-16Z"/>
</svg>
