<svg id="Flat" xmlns="http://www.w3.org/2000/svg" viewBox="0 0 256 256">
  <path d="M168.82324,74a7.99606,7.99606,0,0,0,10.92822,2.92822l4.66822-2.69519A23.999,23.999,0,0,0,192,78.6239V84a8,8,0,0,0,16,0V78.6239a23.999,23.999,0,0,0,7.58032-4.39087l4.66822,2.69519a8,8,0,0,0,8-13.85644l-4.65674-2.68866a23.73636,23.73636,0,0,0,0-8.76624l4.65674-2.68866a8,8,0,1,0-8-13.85644L215.58032,37.767A23.999,23.999,0,0,0,208,33.3761V28a8,8,0,0,0-16,0v5.3761a23.999,23.999,0,0,0-7.58032,4.39087l-4.66822-2.69519a8,8,0,0,0-8,13.85644l4.65674,2.68866a23.73636,23.73636,0,0,0,0,8.76624l-4.65674,2.68866A8.00032,8.00032,0,0,0,168.82324,74ZM200,48a8,8,0,1,1-8,8A8.00917,8.00917,0,0,1,200,48Zm31.94238,171.98975a8.00114,8.00114,0,0,1-6.93017,4.00293l-194.02295-.002a7.99981,7.99981,0,0,1-6.92432-12.00634,120.48811,120.48811,0,0,1,67.11865-54.14063A71.97729,71.97729,0,0,1,155.33716,29.40558c-.12256.19836-.25269.39062-.36963.59326a24.06161,24.06161,0,0,0,1.27454,26.0011,24.013,24.013,0,0,0,19.51672,38.00152q1.19037,0,2.37158-.11828a24.03068,24.03068,0,0,0,20.874,14.07977,72.17933,72.17933,0,0,1-34.18786,49.8808,120.48718,120.48718,0,0,1,67.12,54.14258A8.001,8.001,0,0,1,231.94238,219.98975Z"/>
</svg>
