<svg id="Flat" xmlns="http://www.w3.org/2000/svg" viewBox="0 0 256 256">
  <path d="M226.08008,93.334A104.0138,104.0138,0,0,1,198.17493,204.686a7.94633,7.94633,0,0,1-1.31678,1.18115,103.784,103.784,0,0,1-137.71252.00293,7.94507,7.94507,0,0,1-1.32629-1.18946A103.95136,103.95136,0,0,1,128,24a105.09267,105.09267,0,0,1,16.3916,1.28564,7.99994,7.99994,0,0,1-2.5039,15.80274A89.04252,89.04252,0,0,0,128,40,87.9498,87.9498,0,0,0,62.2417,186.41016a79.70345,79.70345,0,0,1,24.43115-22.97461,59.83641,59.83641,0,0,0,82.6543,0,79.7044,79.7044,0,0,1,24.431,22.97461A88.016,88.016,0,0,0,210.99463,98.666a8,8,0,1,1,15.08545-5.332ZM176,64h48a8,8,0,0,0,0-16H176a8,8,0,0,0,0,16ZM84,120a44,44,0,1,0,44-44A43.99983,43.99983,0,0,0,84,120Z"/>
</svg>
