<svg id="Flat" xmlns="http://www.w3.org/2000/svg" viewBox="0 0 256 256">
  <path d="M168,56a7.99977,7.99977,0,0,1,8-8h16V32a8,8,0,0,1,16,0V48h16a8,8,0,0,1,0,16H208V80a8,8,0,0,1-16,0V64H176A7.99977,7.99977,0,0,1,168,56Zm63.93652,155.98633a120.48718,120.48718,0,0,0-67.12-54.14258,72.111,72.111,0,0,0,34.73474-53.85516A24.02341,24.02341,0,0,1,176,80a23.99523,23.99523,0,0,1-10.62024-45.51459A71.97718,71.97718,0,1,0,91.18359,157.84375a120.48811,120.48811,0,0,0-67.11865,54.14063,7.99981,7.99981,0,0,0,6.92432,12.00634l194.023.002a7.99957,7.99957,0,0,0,6.92431-12.00635Z"/>
</svg>
