<svg id="Flat" xmlns="http://www.w3.org/2000/svg" viewBox="0 0 256 256">
  <path d="M183.99951,56V200a24.0275,24.0275,0,0,1-24,24h-64a24.0275,24.0275,0,0,1-24-24V56a24.0275,24.0275,0,0,1,24-24h64A24.0275,24.0275,0,0,1,183.99951,56Zm24.00293,24a8.00039,8.00039,0,0,0-8,8v80a8,8,0,0,0,16,0V88A8.00039,8.00039,0,0,0,208.00244,80Zm32,16a8.00039,8.00039,0,0,0-8,8v48a8,8,0,0,0,16,0V104A8.00039,8.00039,0,0,0,240.00244,96ZM47.99951,80a8.00039,8.00039,0,0,0-8,8v80a8,8,0,0,0,16,0V88A8.00039,8.00039,0,0,0,47.99951,80Zm-32,16a8.00039,8.00039,0,0,0-8,8v48a8,8,0,0,0,16,0V104A8.00039,8.00039,0,0,0,15.99951,96Z"/>
</svg>
