<svg id="Flat" xmlns="http://www.w3.org/2000/svg" viewBox="0 0 256 256">
  <path d="M248,80v96a8.00019,8.00019,0,0,1-11.96875,6.94629l-56-32c-.01025-.00586-.019-.01367-.0293-.01953a7.96909,7.96909,0,0,1-.814-.54c-.07129-.05371-.13623-.11377-.20581-.16992-.18091-.14649-.35816-.29785-.52735-.46094-.08911-.08594-.17285-.17578-.25781-.26563-.07617-.08056-.158-.15429-.2312-.23828l-73.11719-84A7.99931,7.99931,0,0,1,110.88281,52H152a40.04584,40.04584,0,0,1,40,40v6.21436l44.03125-25.16065A8.0003,8.0003,0,0,1,248,80ZM40.8291,18.61816A8.0006,8.0006,0,0,0,28.98926,29.38184L49.55127,52H24A16.01833,16.01833,0,0,0,8,68v96a40.04584,40.04584,0,0,0,40,40H176a15.89763,15.89763,0,0,0,9.12158-2.87256l32.9585,36.2544a8.0006,8.0006,0,1,0,11.83984-10.76368Z"/>
</svg>
