<svg xmlns="http://www.w3.org/2000/svg" viewBox="0 0 256 256"><path d="M105,65.4a8,8,0,0,1-.5-10.3,8.5,8.5,0,0,1,6.6-3.1H160a16,16,0,0,1,16,16v54.5a8.2,8.2,0,0,1-4.1,7.3,8,8,0,0,1-9.8-1.6ZM40.8,18.6a7.9,7.9,0,0,0-11.3-.5A8,8,0,0,0,29,29.4L49.6,52H24A16,16,0,0,0,8,68V188a16,16,0,0,0,16,16H160a15.9,15.9,0,0,0,15.7-13.2l42.4,46.6A8,8,0,0,0,224,240a8.2,8.2,0,0,0,5.4-2.1,7.9,7.9,0,0,0,.5-11.3ZM245.5,74.2a7.9,7.9,0,0,0-9.5-1.1L196,95.9a8,8,0,0,0-4,7v50.2a8,8,0,0,0,4,7l40,22.8a8.3,8.3,0,0,0,4,1.1,7.9,7.9,0,0,0,5.8-2.5,8,8,0,0,0,2.2-5.7V80.2A8,8,0,0,0,245.5,74.2Z"/></svg>