<svg id="Flat" xmlns="http://www.w3.org/2000/svg" viewBox="0 0 256 256">
  <path d="M227.3125,80.2345,175.76562,28.68762a16.11511,16.11511,0,0,0-11.3125-4.6875H91.54687a16.11515,16.11515,0,0,0-11.3125,4.6875L28.6875,80.2345A16.11511,16.11511,0,0,0,24,91.547v72.90625a16.11515,16.11515,0,0,0,4.6875,11.3125l51.54687,51.54687a16.11515,16.11515,0,0,0,11.3125,4.6875h72.90625a16.11511,16.11511,0,0,0,11.3125-4.6875l51.54688-51.54687A16.11515,16.11515,0,0,0,232,164.45325V91.547A16.11511,16.11511,0,0,0,227.3125,80.2345ZM120,80.00012a8,8,0,1,1,16,0v56a8,8,0,1,1-16,0Zm8,104a12,12,0,1,1,12-12A12.0006,12.0006,0,0,1,128,184.00012Z"/>
</svg>
