<svg id="Flat" xmlns="http://www.w3.org/2000/svg" viewBox="0 0 256 256">
  <path d="M213.962,210.61823A8.0029,8.0029,0,0,1,202.116,221.3819l-35.27173-38.77539-26.70581,31.45606a15.86723,15.86723,0,0,1-12.11426,5.61328,16.04149,16.04149,0,0,1-12.24133-5.6836L12.86058,92.76056A16.27034,16.27034,0,0,1,9.097,80.4881a15.7356,15.7356,0,0,1,6.2157-10.93652,185.49564,185.49564,0,0,1,31.33911-19.0769l-4.633-5.09327A8.00295,8.00295,0,0,1,53.865,34.61774ZM246.90331,80.50178a15.76579,15.76579,0,0,0-6.23413-10.9502A187.84,187.84,0,0,0,92.63207,35.3404a7.9985,7.9985,0,0,0-4.425,13.23926L181.6035,151.25959a8.006,8.006,0,0,0,5.9231,2.61914c.0459,0,.09131,0,.13721-.001a8.00709,8.00709,0,0,0,5.967-2.82324l49.5227-58.332A16.20306,16.20306,0,0,0,246.90331,80.50178Z"/>
</svg>
