<svg xmlns="http://www.w3.org/2000/svg" viewBox="0 0 256 256"><path d="M214,210.6a8,8,0,0,1-.6,11.3A7.8,7.8,0,0,1,208,224a8.2,8.2,0,0,1-5.9-2.6l-35.2-38.8-26.8,31.5a15.9,15.9,0,0,1-24.3-.1L12.9,92.8A16.3,16.3,0,0,1,9.1,80.5a15.6,15.6,0,0,1,6.2-10.9A182.8,182.8,0,0,1,46.7,50.5L42,45.4A8,8,0,0,1,53.9,34.6ZM246.9,80.5a15.6,15.6,0,0,0-6.2-10.9A188,188,0,0,0,92.6,35.3a8.3,8.3,0,0,0-6.1,5.4,8.2,8.2,0,0,0,1.7,7.9l93.4,102.7a8.3,8.3,0,0,0,5.9,2.6h.2a8.3,8.3,0,0,0,5.9-2.8l49.6-58.4A16.4,16.4,0,0,0,246.9,80.5Z"/></svg>