<svg id="Flat" xmlns="http://www.w3.org/2000/svg" viewBox="0 0 256 256">
  <path d="M213.91112,210.61237A8.00024,8.00024,0,0,1,202.07225,221.376l-35.25036-38.77539-26.68958,31.45606A15.85367,15.85367,0,0,1,128.02538,219.67a16.02792,16.02792,0,0,1-12.23389-5.6836L12.93163,92.75495A16.27706,16.27706,0,0,1,9.1704,80.48249,15.73769,15.73769,0,0,1,15.38231,69.546a185.37724,185.37724,0,0,1,31.32007-19.0769l-4.63013-5.093A8.00024,8.00024,0,1,1,53.91112,34.61237ZM246.83251,80.49616A15.76806,15.76806,0,0,0,240.602,69.546,187.63906,187.63906,0,0,0,92.65477,35.335a7.99988,7.99988,0,0,0-4.42236,13.23926L181.57225,151.254a7.99885,7.99885,0,0,0,5.91944,2.61914c.0459,0,.09131,0,.1372-.001a8.00021,8.00021,0,0,0,5.96338-2.82325l49.49268-58.332A16.20993,16.20993,0,0,0,246.83251,80.49616Z"/>
</svg>
