<svg id="Flat" xmlns="http://www.w3.org/2000/svg" viewBox="0 0 256 256">
  <path d="M229.645,98.337a8.00018,8.00018,0,0,1-11.31348,11.31445L199.98827,91.30817,181.645,109.65143A8.00018,8.00018,0,0,1,170.33153,98.337L188.6743,79.99421,170.33153,61.65143A8.00018,8.00018,0,1,1,181.645,50.337l18.34326,18.34326L218.33153,50.337A8.00018,8.00018,0,1,1,229.645,61.65143L211.30223,79.99421Zm-29.65674,15.59863-7.03113,7.03125a24.00024,24.00024,0,0,1-33.93933-33.9436l7.02905-7.029-7.0299-7.03a24.03027,24.03027,0,0,1,4.60974-37.55127A187.51454,187.51454,0,0,0,15.39061,69.54548a15.73529,15.73529,0,0,0-6.21142,10.936,16.27674,16.27674,0,0,0,3.76074,12.27393L115.85985,214.05768a15.95117,15.95117,0,0,0,12.17383,5.65528A15.77638,15.77638,0,0,0,140.081,214.127l74.647-87.97925a23.97614,23.97614,0,0,1-7.71021-5.18262Z"/>
</svg>
