<svg id="Flat" xmlns="http://www.w3.org/2000/svg" viewBox="0 0 256 256">
  <path d="M24,104a8,8,0,0,1,0-16h96a16,16,0,1,0-15.0127-21.55176,8.00013,8.00013,0,1,1-15.00585-5.55273A32.00289,32.00289,0,1,1,120,104Zm128,48H40a8,8,0,0,0,0,16H152a16,16,0,1,1-15.0127,21.55176,8.00013,8.00013,0,1,0-15.00585,5.55273A32.00289,32.00289,0,1,0,152,152Zm56-80a32.13165,32.13165,0,0,0-30.01855,20.89551,8.00013,8.00013,0,1,0,15.00585,5.55273A16.00278,16.00278,0,1,1,208,120H32a8,8,0,0,0,0,16H208a32,32,0,0,0,0-64Z"/>
</svg>
