<svg xmlns="http://www.w3.org/2000/svg" viewBox="0 0 256 256"><path d="M208,32H64a8,8,0,0,0-8,8V216a8,8,0,0,0,8,8H208a8,8,0,0,0,8-8V40A8,8,0,0,0,208,32ZM136,144a32,32,0,1,1,32-32A32,32,0,0,1,136,144Z" opacity="0.2"/><path d="M83.2,174.4A7.7,7.7,0,0,0,88,176a8,8,0,0,0,6.4-3.2,52,52,0,0,1,83.2,0,8.1,8.1,0,0,0,11.2,1.6,8,8,0,0,0,1.6-11.2A67.8,67.8,0,0,0,163,141.5a40,40,0,1,0-54,0,67.8,67.8,0,0,0-27.4,21.7A8,8,0,0,0,83.2,174.4ZM112,112a24,24,0,1,1,24,24A24.1,24.1,0,0,1,112,112Zm96-88H64A16,16,0,0,0,48,40V60H32a8,8,0,0,0,0,16H48v24H32a8,8,0,0,0,0,16H48v24H32a8,8,0,0,0,0,16H48v24H32a8,8,0,0,0,0,16H48v20a16,16,0,0,0,16,16H208a16,16,0,0,0,16-16V40A16,16,0,0,0,208,24Zm0,192H64V40H208Z"/></svg>