<svg id="Flat" xmlns="http://www.w3.org/2000/svg" viewBox="0 0 256 256">
  <path d="M208,32H64a8,8,0,0,0-8,8V216a8,8,0,0,0,8,8H208a8,8,0,0,0,8-8V40A8,8,0,0,0,208,32ZM136,144a32,32,0,1,1,32-32A32,32,0,0,1,136,144Z" opacity="0.2"/>
  <path d="M83.19238,174.39453a8,8,0,0,0,11.20117-1.5918,52.0088,52.0088,0,0,1,83.21143-.00195,7.99961,7.99961,0,1,0,12.792-9.60937,67.80622,67.80622,0,0,0-27.42627-21.68067,40,40,0,1,0-53.94153-.00012,67.80989,67.80989,0,0,0-27.42858,21.68274A8.00034,8.00034,0,0,0,83.19238,174.39453ZM112,112a24,24,0,1,1,24,24A24.0275,24.0275,0,0,1,112,112Zm96-88H64A16.01833,16.01833,0,0,0,48,40V60H32a8,8,0,0,0,0,16H48v24H32a8,8,0,0,0,0,16H48v24H32a8,8,0,0,0,0,16H48v24H32a8,8,0,0,0,0,16H48v20a16.01833,16.01833,0,0,0,16,16H208a16.01833,16.01833,0,0,0,16-16V40A16.01833,16.01833,0,0,0,208,24Zm0,192-143.99951.00977L64,216V40H208Z"/>
</svg>
