<svg xmlns="http://www.w3.org/2000/svg" viewBox="0 0 256 256"><g opacity="0.2"><path d="M26.8,80H44l20,24H96L83.5,66.5A8,8,0,0,1,91.1,56H108l44,48h56a32,32,0,0,1,32,32v24H63.8a32,32,0,0,1-30.6-22.8L19.1,90.3A8,8,0,0,1,26.8,80Z"/></g><path d="M224,216a8,8,0,0,1-8,8H72a8,8,0,0,1,0-16H216A8,8,0,0,1,224,216Zm24-80v24a8,8,0,0,1-8,8H63.8a39.8,39.8,0,0,1-38.3-28.5L11.4,92.6a16.3,16.3,0,0,1,2.5-14.2A16.2,16.2,0,0,1,26.8,72H44a7.9,7.9,0,0,1,6.1,2.9L67.7,96H84.9l-9-26.9A16,16,0,0,1,91.1,48H108a7.9,7.9,0,0,1,5.9,2.6L155.5,96H208A40,40,0,0,1,248,136Zm-16,0a24.1,24.1,0,0,0-24-24H152a7.9,7.9,0,0,1-5.9-2.6L104.5,64H91.1l12.5,37.5a8.1,8.1,0,0,1-1.1,7.2A7.9,7.9,0,0,1,96,112H64a7.9,7.9,0,0,1-6.1-2.9L40.3,88H26.7l14.1,46.9a23.9,23.9,0,0,0,23,17.1H232Z"/></svg>