<svg xmlns="http://www.w3.org/2000/svg" viewBox="0 0 256 256"><g opacity="0.2"><path d="M24,103.7V51.1a8,8,0,0,1,10.5-7.6L48,48,64,78,96,88V51.1a8,8,0,0,1,10.5-7.6L120,48l32,56,48.6,13.5A31.9,31.9,0,0,1,224,148.3V184L47.4,134.5A31.9,31.9,0,0,1,24,103.7Z"/></g><path d="M248,216a8,8,0,0,1-8,8H96a8,8,0,0,1,0-16H240A8,8,0,0,1,248,216Zm-26.2-24.3L45.2,142.2A40.1,40.1,0,0,1,16,103.7V51.1A16,16,0,0,1,37.1,35.9l13.4,4.5a8.3,8.3,0,0,1,4.6,3.8L69.5,71.3,88,77.1v-26a16,16,0,0,1,21.1-15.2l13.4,4.5a7.5,7.5,0,0,1,4.4,3.6l30.4,53.2,45.4,12.6A40,40,0,0,1,232,148.3V184a8.1,8.1,0,0,1-3.2,6.4A8.4,8.4,0,0,1,224,192ZM216,148.3a24.1,24.1,0,0,0-17.6-23.1l-48.5-13.5a7.9,7.9,0,0,1-4.8-3.7L114.6,54.6,104,51.1V88a7.9,7.9,0,0,1-3.3,6.4,7.6,7.6,0,0,1-7.1,1.2l-32-10a8.1,8.1,0,0,1-4.7-3.8L42.4,54.6,32,51.1v52.6a24,24,0,0,0,17.5,23.1L216,173.5Z"/></svg>