<svg id="Flat" xmlns="http://www.w3.org/2000/svg" viewBox="0 0 256 256">
  <g opacity="0.2">
    <path d="M16.92713,140.36918,54.6225,175.70859a32,32,0,0,0,37.97,4.319L244,92,225.3607,69.21863a32,32,0,0,0-40.99128-7.31829L140,88,80,68,63.501,75.071a8,8,0,0,0-2.20037,13.29951L92,116,64,132,36,120l-16.7527,7.17973A8,8,0,0,0,16.92713,140.36918Z"/>
  </g>
  <path d="M176,216a8.00008,8.00008,0,0,1-8,8H24a8,8,0,0,1,0-16H168A8.00008,8.00008,0,0,1,176,216ZM251.87207,93.42627a7.9992,7.9992,0,0,1-3.85156,5.48975L96.61328,186.94385a39.75816,39.75816,0,0,1-47.46289-5.39893L11.45508,146.20557l-.001-.00049a16.0006,16.0006,0,0,1,4.6416-26.37842L32.84863,112.647a7.9972,7.9972,0,0,1,6.30274,0l24.33789,10.43067L78.42383,114.544,55.94922,94.31689a16.00026,16.00026,0,0,1,4.40039-26.59912l16.499-7.0708a7.99505,7.99505,0,0,1,5.68164-.23633L139.0791,79.26025l41.2334-24.25537a39.79421,39.79421,0,0,1,51.23926,9.14795l18.63965,22.78125A7.99755,7.99755,0,0,1,251.87207,93.42627Zm-20.00781-3.62451L219.169,74.28467A23.87756,23.87756,0,0,0,188.4248,68.7959L144.05664,94.89551a8.00736,8.00736,0,0,1-6.58691.69385L80.35547,76.55127,66.65234,82.42383l30.69922,27.62988a7.99986,7.99986,0,0,1-1.38281,12.89209l-28,16a7.9971,7.9971,0,0,1-7.12012.40723L36,128.70361l-13.60156,5.8291,37.69531,35.33936a23.85143,23.85143,0,0,0,28.47852,3.23975Z"/>
</svg>
