<svg xmlns="http://www.w3.org/2000/svg" viewBox="0 0 256 256"><g opacity="0.2"><path d="M208,48H48A16,16,0,0,0,32,64V176a16,16,0,0,0,16,16h52.6L128,160l27.4,32H208a16,16,0,0,0,16-16V64A16,16,0,0,0,208,48Z"/></g><path d="M134.1,154.8a8,8,0,0,0-12.2,0l-48,56A8,8,0,0,0,80,224h96a8,8,0,0,0,6.1-13.2ZM97.4,208,128,172.3,158.6,208Z"/><path d="M208,40H48A24.1,24.1,0,0,0,24,64V176a24.1,24.1,0,0,0,24,24H64a8,8,0,0,0,0-16H48a8,8,0,0,1-8-8V64a8,8,0,0,1,8-8H208a8,8,0,0,1,8,8V176a8,8,0,0,1-8,8H192a8,8,0,0,0,0,16h16a24.1,24.1,0,0,0,24-24V64A24.1,24.1,0,0,0,208,40Z"/></svg>