<svg id="Flat" xmlns="http://www.w3.org/2000/svg" viewBox="0 0 256 256">
  <g opacity="0.2">
    <path d="M26.75225,80H44l20,24H96L83.50994,66.52982A8,8,0,0,1,91.09941,56H108l44,48h56a32,32,0,0,1,32,32v24H63.809a32,32,0,0,1-30.65044-22.80487L19.08963,90.29878A8,8,0,0,1,26.75225,80Z"/>
  </g>
  <path d="M224,216a8.00008,8.00008,0,0,1-8,8H72a8,8,0,0,1,0-16H216A8.00008,8.00008,0,0,1,224,216Zm24-80v24a8.00008,8.00008,0,0,1-8,8H63.80859a39.75445,39.75445,0,0,1-38.31347-28.50586L11.42676,92.59766A16.001,16.001,0,0,1,26.752,72H44a7.99975,7.99975,0,0,1,6.14551,2.87842L67.74707,96H84.90039L75.91992,69.05957A16.00007,16.00007,0,0,1,91.09961,48H108a8.00044,8.00044,0,0,1,5.89746,2.59424L155.51953,96H208A40.04552,40.04552,0,0,1,248,136Zm-16,0a24.02718,24.02718,0,0,0-24-24H152a8.00044,8.00044,0,0,1-5.89746-2.59424L104.48047,64H91.09961l12.49023,37.47021A8,8,0,0,1,96,112H64a7.99975,7.99975,0,0,1-6.14551-2.87842L40.25293,88H26.752l-.02343.001,14.09277,46.8955A23.8511,23.8511,0,0,0,63.80859,152H232Z"/>
</svg>
