<svg id="Flat" xmlns="http://www.w3.org/2000/svg" viewBox="0 0 256 256">
  <path d="M209.5393,80.402,175.88745,112l32,88-24,24-47.80762-69.97931L111.88745,176v24l-24,24L73.69507,182.14581,31.88745,168l24-24h24l24-24-72-48,24-24,88,32L175.5979,46.46088l-.68115.56854a24.00009,24.00009,0,0,1,33.9414,33.9411Z" opacity="0.2"/>
  <path d="M216.27856,84.71582A32.0006,32.0006,0,0,0,169.2605,41.37207a7.98306,7.98306,0,0,0-.97071,1.17383l-26.606,28.14062L58.62133,40.48145a8.00337,8.00337,0,0,0-8.39111,1.86132l-24,24A8.00073,8.00073,0,0,0,27.45,78.65625l63.88037,42.58691L76.574,136H55.88745a8.00235,8.00235,0,0,0-5.65723,2.34277l-24,24a8.00081,8.00081,0,0,0,3.09326,13.23535l38.064,12.87891,12.92383,38.11231a8.00022,8.00022,0,0,0,13.23291,3.08789l24-24A8.0008,8.0008,0,0,0,119.88745,200V179.54L134.658,166.12109l42.624,62.39161a7.99924,7.99924,0,0,0,12.26221,1.14453l24-24a8.00184,8.00184,0,0,0,1.86181-8.39161l-30.19824-83.043,29.80762-27.98829A8.03536,8.03536,0,0,0,216.27856,84.71582Zm-13.07764-9.40234q-.23657.2373-.44921.48828L170.41137,106.168a8.001,8.001,0,0,0-2.04248,8.5664l30.25879,83.21094-13.57617,13.57715L142.6853,149.50781a8.00089,8.00089,0,0,0-5.67188-3.43261,7.90859,7.90859,0,0,0-.93408-.05469,8.00191,8.00191,0,0,0-5.37939,2.0791L106.50757,170.0791A7.9996,7.9996,0,0,0,103.88745,176v20.68652L91.33081,209.24316l-10.05957-29.667a8.002,8.002,0,0,0-5.01221-5.00879L46.65112,164.5498,59.20092,152H79.88745a8.00035,8.00035,0,0,0,5.65674-2.34277l24-24a8.00026,8.00026,0,0,0-1.21924-12.31348L44.44458,70.75684,57.94165,57.25977l83.21191,30.25878a8.00017,8.00017,0,0,0,8.54688-2.02246L181.41089,51.957c.0708-.07519.13964-.15039.207-.22754a16.00031,16.00031,0,0,1,21.583,23.584Z"/>
</svg>
