<svg id="Flat" xmlns="http://www.w3.org/2000/svg" viewBox="0 0 256 256">
  <path d="M152.2251,152v32L168,200v32l-40-16L88,232V200l16-16V152L24,168V136l80-40,.11255-48a24,24,0,0,1,48,0l.11255,48,80,40v32Z" opacity="0.2"/>
  <path d="M235.80371,128.84473,160.21387,91.0498,160.1123,48a32,32,0,0,0-64-.01855L96.01172,91.0498,20.42188,128.84473A7.99967,7.99967,0,0,0,16,136v32a8.00012,8.00012,0,0,0,9.56934,7.84473L96,161.7583V180.686L82.34277,194.34326A8.00035,8.00035,0,0,0,80,200v32a7.99953,7.99953,0,0,0,10.9707,7.42773L128,224.61621l37.0293,14.81152A7.99953,7.99953,0,0,0,176,232V200a8.00119,8.00119,0,0,0-2.30273-5.6167l-13.47168-13.66357V161.7583l70.43066,14.08643A8.00013,8.00013,0,0,0,240.22559,168V136A7.99969,7.99969,0,0,0,235.80371,128.84473Zm-11.57812,29.397-70.43067-14.08643A8.00012,8.00012,0,0,0,144.22559,152v32a8.00115,8.00115,0,0,0,2.30273,5.6167L160,203.28027v16.90332l-29.0293-11.61132a7.99671,7.99671,0,0,0-5.9414,0L96,220.18359V203.314l13.65723-13.65722A8.00035,8.00035,0,0,0,112,184V152a8.00012,8.00012,0,0,0-9.56934-7.84473L32,158.2417V140.94434l75.57812-37.78907A7.99939,7.99939,0,0,0,112,96.01855L112.1123,48a16,16,0,1,1,32,.019l.11329,48a7.9992,7.9992,0,0,0,4.42187,7.13623l75.57813,37.78907Z"/>
</svg>
