<svg xmlns="http://www.w3.org/2000/svg" viewBox="0 0 256 256"><path d="M152.2,152v32L168,200v32l-40-16L88,232V200l16-16V152L24,168V136l80-40V48a24,24,0,0,1,48,0V96l80,40v32Z" opacity="0.2"/><path d="M235.8,128.8,160.2,91V48a32,32,0,0,0-64,0V91L20.4,128.8A8.2,8.2,0,0,0,16,136v32a7.9,7.9,0,0,0,9.6,7.8l70.4-14v18.9L82.3,194.3A8.1,8.1,0,0,0,80,200v32a7.9,7.9,0,0,0,3.5,6.6,8,8,0,0,0,7.5.8l37-14.8,37,14.8a8,8,0,0,0,3,.6,8.2,8.2,0,0,0,4.5-1.4A7.9,7.9,0,0,0,176,232V200a7.9,7.9,0,0,0-2.3-5.6l-13.5-13.7V161.8l70.5,14a7.9,7.9,0,0,0,6.6-1.6,7.8,7.8,0,0,0,2.9-6.2V136A8.2,8.2,0,0,0,235.8,128.8Zm-11.6,29.4-70.4-14a7.8,7.8,0,0,0-6.6,1.6,7.9,7.9,0,0,0-3,6.2v32a8.3,8.3,0,0,0,2.3,5.6L160,203.3v16.9l-29-11.6a7.8,7.8,0,0,0-6,0L96,220.2V203.3l13.7-13.6A8.1,8.1,0,0,0,112,184V152a7.9,7.9,0,0,0-9.6-7.8L32,158.2V140.9l75.6-37.7A8.2,8.2,0,0,0,112,96V48a16,16,0,0,1,32,0V96a8.2,8.2,0,0,0,4.4,7.2l75.6,37.7Z"/></svg>