<svg id="Flat" xmlns="http://www.w3.org/2000/svg" viewBox="0 0 256 256">
  <g opacity="0.2">
    <path d="M208,48H48A16.00016,16.00016,0,0,0,32,64V176a16.00016,16.00016,0,0,0,16,16h52.57227l27.43017-32,27.42725,32H208a16.00016,16.00016,0,0,0,16-16V64A16.00016,16.00016,0,0,0,208,48Z"/>
  </g>
  <g>
    <path d="M134.07666,154.794a8.0003,8.0003,0,0,0-12.14844-.00049l-48.00293,56A8,8,0,0,0,79.99951,224h96a8.00032,8.00032,0,0,0,6.07422-13.20605ZM97.394,208l30.6084-35.70752L158.606,208Z"/>
    <path d="M207.99951,40h-160a24.0275,24.0275,0,0,0-24,24V176a24.0275,24.0275,0,0,0,24,24h16a8,8,0,0,0,0-16h-16a8.00917,8.00917,0,0,1-8-8V64a8.00917,8.00917,0,0,1,8-8h160a8.00917,8.00917,0,0,1,8,8V176a8.00917,8.00917,0,0,1-8,8h-16a8,8,0,0,0,0,16h16a24.0275,24.0275,0,0,0,24-24V64A24.0275,24.0275,0,0,0,207.99951,40Z"/>
  </g>
</svg>
