<svg xmlns="http://www.w3.org/2000/svg" viewBox="0 0 256 256"><path d="M209.7,80.4,176,112l32,88-24,24-47.8-70L112,176v24L88,224,73.8,182.1,32,168l24-24H80l24-24L32,72,56,48l88,32,31.7-33.5-.7.5a24,24,0,0,1,34,34Z" opacity="0.2"/><path d="M216.4,84.7a32,32,0,0,0-47-43.3,5.2,5.2,0,0,0-1,1.1L141.8,70.7,58.7,40.5a7.9,7.9,0,0,0-8.4,1.8l-24,24A8.2,8.2,0,0,0,24,72.8a8.4,8.4,0,0,0,3.6,5.9l63.8,42.5L76.7,136H56a8.1,8.1,0,0,0-5.7,2.3l-24,24a8.3,8.3,0,0,0-2.1,7.5,8,8,0,0,0,5.2,5.8l38.1,12.9,12.9,38.1a8,8,0,0,0,5.8,5.2l1.8.2a8.3,8.3,0,0,0,5.7-2.3l24-24A8.1,8.1,0,0,0,120,200V179.5l14.8-13.4,42.6,62.4a8.1,8.1,0,0,0,5.9,3.5,8.5,8.5,0,0,0,6.4-2.3l24-24a7.9,7.9,0,0,0,1.8-8.4l-30.2-83.1,29.8-28A6.4,6.4,0,0,0,216.4,84.7Zm-13.1-9.4-.4.5-32.4,30.4a7.9,7.9,0,0,0-2,8.5l30.2,83.2-13.5,13.6-42.4-62a7.8,7.8,0,0,0-5.7-3.4h-.9a8.3,8.3,0,0,0-5.4,2.1l-24.2,22A8.1,8.1,0,0,0,104,176v20.7L91.4,209.2l-10-29.6a8,8,0,0,0-5-5L46.8,164.5,59.3,152H80a8.1,8.1,0,0,0,5.7-2.3l24-24a8.2,8.2,0,0,0,2.3-6.5,8.4,8.4,0,0,0-3.6-5.9L44.6,70.8,58.1,57.3l83.2,30.2a7.9,7.9,0,0,0,8.5-2L181.5,52l.2-.3a16.1,16.1,0,0,1,21.6,1A15.9,15.9,0,0,1,203.3,75.3Z"/></svg>