<svg xmlns="http://www.w3.org/2000/svg" viewBox="0 0 256 256"><g opacity="0.2"><circle cx="128" cy="128" r="88"/></g><path d="M136,120V72a8,8,0,0,0-16,0v56a8,8,0,0,0,8,8h56a8,8,0,0,0,0-16Z"/><path d="M128,32a95.9,95.9,0,1,0,67.9,28.1A95.5,95.5,0,0,0,128,32Zm56.6,152.6A80,80,0,0,1,71.4,71.4h0A80,80,0,0,1,184.6,184.6Z"/><path d="M235.5,54.5l-34-34a8,8,0,1,0-11.3,11.3l34,34a8,8,0,0,0,5.6,2.3,8.3,8.3,0,0,0,5.7-2.3A8,8,0,0,0,235.5,54.5Z"/><path d="M65.8,20.5a8,8,0,0,0-11.3,0l-34,34a8,8,0,0,0,0,11.3,8.3,8.3,0,0,0,5.7,2.3,8,8,0,0,0,5.6-2.3l34-34A8,8,0,0,0,65.8,20.5Z"/></svg>