<svg id="Flat" xmlns="http://www.w3.org/2000/svg" viewBox="0 0 256 256">
  <g opacity="0.2">
    <circle cx="128" cy="128" r="88"/>
  </g>
  <g>
    <path d="M136,120V72a8,8,0,0,0-16,0v56a8.00008,8.00008,0,0,0,8,8h56a8,8,0,0,0,0-16Z"/>
    <path d="M128,32a95.99976,95.99976,0,1,0,67.88232,28.11768A95.37086,95.37086,0,0,0,128,32Zm56.56836,152.56836A79.99974,79.99974,0,1,1,71.43164,71.43164h0A79.99974,79.99974,0,1,1,184.56836,184.56836Z"/>
    <path d="M235.48047,54.46094,201.53906,20.51953a8,8,0,0,0-11.31347,11.314L224.1665,65.77441a8,8,0,1,0,11.314-11.31347Z"/>
    <path d="M65.77441,20.51953a8,8,0,0,0-11.31347,0L20.51953,54.46094a8,8,0,0,0,11.314,11.31347L65.77441,31.8335A8.00061,8.00061,0,0,0,65.77441,20.51953Z"/>
  </g>
</svg>
