<svg xmlns="http://www.w3.org/2000/svg" viewBox="0 0 256 256"><path d="M128,24a88,88,0,0,0-88,88c0,48.6,56,120,88,120s88-71.4,88-120A88,88,0,0,0,128,24ZM112,140a8,8,0,0,1-8,8,32,32,0,0,1-32-32v-4a8,8,0,0,1,8-8,32,32,0,0,1,32,32Zm72-24a32,32,0,0,1-32,32,8,8,0,0,1-8-8v-4a32,32,0,0,1,32-32,8,8,0,0,1,8,8Z" opacity="0.2"/><path d="M128,16a96.2,96.2,0,0,0-96,96c0,24,12.6,55.1,33.6,83s44.5,45,62.4,45,41.2-16.8,62.4-45S224,136,224,112A96.2,96.2,0,0,0,128,16Zm49.6,169.4C160.2,208.5,140.3,224,128,224s-32.2-15.5-49.6-38.6C59.6,160.5,48,132.4,48,112a80,80,0,0,1,160,0C208,132.4,196.4,160.5,177.6,185.4ZM120,140v-4A40,40,0,0,0,80,96a16,16,0,0,0-16,16v4a40,40,0,0,0,40,40A16,16,0,0,0,120,140ZM80,116v-4a24.1,24.1,0,0,1,24,24v4h0A24.1,24.1,0,0,1,80,116Zm96-20a40,40,0,0,0-40,40v4a16,16,0,0,0,16,16,40,40,0,0,0,40-40v-4A16,16,0,0,0,176,96Zm0,20a24.1,24.1,0,0,1-24,24v-4a24.1,24.1,0,0,1,24-24Zm-24,68a8,8,0,0,1-8,8H112a8,8,0,0,1,0-16h32A8,8,0,0,1,152,184Z"/></svg>