<svg xmlns="http://www.w3.org/2000/svg" viewBox="0 0 256 256"><g opacity="0.2"><rect x="108" y="100" width="128" height="56" rx="8" transform="translate(300 -44) rotate(90)"/></g><g opacity="0.2"><rect x="56" y="40" width="56" height="176" rx="8"/></g><path d="M224,120H208V72a16,16,0,0,0-16-16H152a16,16,0,0,0-16,16v48H120V48a16,16,0,0,0-16-16H64A16,16,0,0,0,48,48v72H32a8,8,0,0,0,0,16H48v72a16,16,0,0,0,16,16h40a16,16,0,0,0,16-16V136h16v48a16,16,0,0,0,16,16h40a16,16,0,0,0,16-16V136h16a8,8,0,0,0,0-16ZM104,208H64V128.1h0V48h40Zm88-24H152V128.1h0V72h40Z"/></svg>