<svg id="Flat" xmlns="http://www.w3.org/2000/svg" viewBox="0 0 256 256">
  <g opacity="0.2">
    <rect x="108" y="100" width="128" height="56" rx="8" transform="translate(300 -44) rotate(90)"/>
  </g>
  <g opacity="0.2">
    <rect x="56" y="40" width="56" height="176" rx="8"/>
  </g>
  <path d="M224.00488,120H208V72a16.01833,16.01833,0,0,0-16-16H152a16.01833,16.01833,0,0,0-16,16v48H120V48a16.01833,16.01833,0,0,0-16-16H64A16.01833,16.01833,0,0,0,48,48v72H32.00488a8,8,0,0,0,0,16H48v72a16.01833,16.01833,0,0,0,16,16h40a16.01833,16.01833,0,0,0,16-16V136h16v48a16.01833,16.01833,0,0,0,16,16h40a16.01833,16.01833,0,0,0,16-16V136h16.00488a8,8,0,0,0,0-16ZM104,208l-39.99951.00977L64,208V128.09668c.00037-.03253.00488-.064.00488-.09668s-.00451-.06415-.00488-.09668V48h40Zm88-24-39.99951.00977L152,184V128.09668c.00037-.03253.00488-.064.00488-.09668s-.00451-.06415-.00488-.09668V72h40Z"/>
</svg>
