<svg xmlns="http://www.w3.org/2000/svg" viewBox="0 0 256 256"><g opacity="0.2"><rect x="116" y="100" width="112" height="56" rx="8" transform="translate(44 300) rotate(-90)"/></g><g opacity="0.2"><rect x="56" y="32" width="56" height="152" rx="8"/></g><path d="M224,216a8,8,0,0,1-8,8H40a8,8,0,0,1,0-16H216A8,8,0,0,1,224,216Zm-88-40V80a16,16,0,0,1,16-16h40a16,16,0,0,1,16,16v96a16,16,0,0,1-16,16H152A16,16,0,0,1,136,176Zm16,0h40V80H152ZM48,176V40A16,16,0,0,1,64,24h40a16,16,0,0,1,16,16V176a16,16,0,0,1-16,16H64A16,16,0,0,1,48,176Zm16,0h40V40H64Z"/></svg>