<svg id="Flat" xmlns="http://www.w3.org/2000/svg" viewBox="0 0 256 256">
  <g opacity="0.2">
    <rect x="64" y="56" width="128" height="56" rx="8"/>
  </g>
  <g opacity="0.2">
    <rect x="40" y="144" width="176" height="56" rx="8"/>
  </g>
  <path d="M208,136H136V120h48a16.01833,16.01833,0,0,0,16-16V64a16.01833,16.01833,0,0,0-16-16H136V31.99512a8,8,0,1,0-16,0V48H72A16.01833,16.01833,0,0,0,56,64v40a16.01833,16.01833,0,0,0,16,16h48v16H48a16.01833,16.01833,0,0,0-16,16v40a16.01833,16.01833,0,0,0,16,16h72v15.99512a8,8,0,0,0,16,0V208h72a16.01833,16.01833,0,0,0,16-16V152A16.01833,16.01833,0,0,0,208,136ZM72,64H184l.01025,39.99951L184,104H128.09668c-.03253-.00037-.064-.00488-.09668-.00488s-.06415.00451-.09668.00488H72ZM208,192H128.09668c-.03253-.00037-.064-.00488-.09668-.00488s-.06415.00451-.09668.00488H48V152H208l.01025,39.99951Z"/>
</svg>
