<svg xmlns="http://www.w3.org/2000/svg" viewBox="0 0 256 256"><g opacity="0.2"><rect x="116" y="100" width="112" height="56" rx="8" transform="translate(300 -44) rotate(90)"/></g><g opacity="0.2"><rect x="56" y="72" width="56" height="152" rx="8"/></g><path d="M224,40a8,8,0,0,1-8,8H40a8,8,0,0,1,0-16H216A8,8,0,0,1,224,40ZM208,80v96a16,16,0,0,1-16,16H152a16,16,0,0,1-16-16V80a16,16,0,0,1,16-16h40A16,16,0,0,1,208,80Zm-16,0H152v96h40Zm-72,0V216a16,16,0,0,1-16,16H64a16,16,0,0,1-16-16V80A16,16,0,0,1,64,64h40A16,16,0,0,1,120,80Zm-16,0H64V216h40Z"/></svg>