<svg id="Flat" xmlns="http://www.w3.org/2000/svg" viewBox="0 0 256 256">
  <path d="M232,168v24a7.99989,7.99989,0,0,1-8,8H32a7.99989,7.99989,0,0,1-8-8V169.12893c0-57.479,46.15363-104.9292,103.63214-105.12842A104.00026,104.00026,0,0,1,232,168Z" opacity="0.2"/>
  <path d="M176,156a12,12,0,1,1-12-12A12,12,0,0,1,176,156ZM92,144a12,12,0,1,0,12,12A12,12,0,0,0,92,144Zm148,24v24a16.01833,16.01833,0,0,1-16,16H32a16.01833,16.01833,0,0,1-16-16V169.12893a113.38238,113.38238,0,0,1,35.40289-82.4126L26.34326,61.65676A7.99984,7.99984,0,0,1,37.65674,50.34328L63.8183,76.50442a111.41436,111.41436,0,0,1,128.55292-.189l25.972-25.97217a7.99984,7.99984,0,0,1,11.31348,11.31348L204.81665,86.49709q1.13223,1.0686,2.24146,2.16895A111.25215,111.25215,0,0,1,240,168Zm-16,0a95.357,95.357,0,0,0-28.23633-68.00049,97.74152,97.74152,0,0,0-7.61578-6.82812c-.05029-.03955-.10071-.07862-.15027-.12012A95.25614,95.25614,0,0,0,128.002,72c-.11425,0-.22754,0-.34179.00049C74.91309,72.18313,32,115.7549,32,169.12893V192l.00049.01026L224,192Z"/>
</svg>
