<svg id="Flat" xmlns="http://www.w3.org/2000/svg" viewBox="0 0 256 256">
  <g opacity="0.2">
    <path d="M195.88226,60.11768a96.00006,96.00006,0,1,0,0,135.76464A96.00019,96.00019,0,0,0,195.88226,60.11768ZM164.67712,134.6958l-24.13733,28.41553h-.00006l-36.67706-6.6958-.00006-.00049L91.32294,121.3042h0l24.13733-28.41553h.00006l36.67706,6.6958h0l12.53973,35.11133Z"/>
  </g>
  <path d="M232,128A103.99994,103.99994,0,0,0,54.46094,54.46094a103.99951,103.99951,0,0,0,73.509,177.53857c.01013,0,.02.00244.03009.00244.02155,0,.04321-.00244.06476-.00293A103.99851,103.99851,0,0,0,232,128ZM109.8429,149.37451l-9.43238-26.41113,18.15674-21.37451,27.58984,5.03662,9.43238,26.41113-18.15674,21.37451ZM49.17548,88.91992l51.2163,9.35059-53.741,63.26562A88.43276,88.43276,0,0,1,49.17548,88.91992ZM209.3493,94.46387a88.43277,88.43277,0,0,1-2.52478,72.61621l-51.2163-9.35059Zm-8.07891-15.2041-33.7201,39.69628L139.63043,40.78027a87.98555,87.98555,0,0,1,61.64,38.4795ZM122.43158,40.19336l17.51154,49.03271L58.296,74.32031a88.34964,88.34964,0,0,1,7.47845-8.54492A87.33434,87.33434,0,0,1,122.43158,40.19336Zm-67.702,136.54687L88.44971,137.044l27.91986,78.17578a87.98555,87.98555,0,0,1-61.64-38.4795Zm78.83881,39.06641-17.51154-49.03271,23.08216,4.21386.04553.0083,58.51947,10.6836a88.34964,88.34964,0,0,1-7.47845,8.54492A87.33434,87.33434,0,0,1,133.56842,215.80664Z"/>
</svg>
