<svg id="Flat" xmlns="http://www.w3.org/2000/svg" viewBox="0 0 256.00004 255.99998">
  <g opacity="0.2">
    <path d="M218.51254,162.9332C205.936,193.65156,183.10562,216,164,216H92c-28,0-64-48-64-100A60.00062,60.00062,0,0,1,128.00185,71.27954l-.00164-.00185a60.0047,60.0047,0,0,1,87.16862,7.63587l-.00019.00015a48.01693,48.01693,0,0,0,3.33915,84.01754Z"/>
  </g>
  <path d="M130.66016,29.63136A40.25041,40.25041,0,0,1,168,4a8,8,0,0,1,0,16,24.15408,24.15408,0,0,0-22.4082,15.38037,8.00008,8.00008,0,0,1-14.93164-5.749ZM225.916,165.96486C211.92578,200.13478,186.46533,224,164,224H92c-16.36914,0-34.73486-12.71777-49.12891-34.02148C28.33594,168.46681,20,141.50294,20,116a68.00487,68.00487,0,0,1,108-54.9956,68.012,68.012,0,0,1,93.45459,12.96045,8.00039,8.00039,0,0,1-2.14111,11.7915,40.01719,40.01719,0,0,0,2.73144,69.99951A8.00438,8.00438,0,0,1,225.916,165.96486Zm-17.59668.23339a56.04973,56.04973,0,0,1-5.0918-88.46093,52.0196,52.0196,0,0,0-69.74609-.62842,8.00241,8.00241,0,0,1-10.68555.24463c-.04688-.04-.09278-.08008-.13819-.1211A52.00086,52.00086,0,0,0,36,116c0,49.89649,34.397,92,56,92h72C178.40918,208,196.74707,190.42579,208.31934,166.19825Z"/>
</svg>
