<svg xmlns="http://www.w3.org/2000/svg" viewBox="0 0 256 256"><g opacity="0.2"><path d="M218.5,162.9C205.9,193.7,183.1,216,164,216H92c-28,0-64-48-64-100A60,60,0,0,1,128,71.3h0a60,60,0,0,1,87.2,7.6h0a48,48,0,0,0,3.3,84Z"/></g><path d="M130.7,29.6A40.2,40.2,0,0,1,168,4a8,8,0,0,1,0,16,24.1,24.1,0,0,0-22.4,15.4,8,8,0,0,1-7.5,5.1,9.2,9.2,0,0,1-2.8-.5A8,8,0,0,1,130.7,29.6ZM225.9,166c-14,34.1-39.4,58-61.9,58H92c-16.4,0-34.7-12.7-49.1-34A135,135,0,0,1,20,116,68,68,0,0,1,128,61a68,68,0,0,1,93.5,13,8.2,8.2,0,0,1-2.2,11.8,40,40,0,0,0,2.7,70A7.9,7.9,0,0,1,225.9,166Zm-17.6.2a56.1,56.1,0,0,1-5.1-88.5,52,52,0,0,0-69.7-.6,8.1,8.1,0,0,1-10.7.3v-.2A52.1,52.1,0,0,0,36,116c0,49.9,34.4,92,56,92h72C178.4,208,196.7,190.4,208.3,166.2Z"/></svg>