<svg id="Flat" xmlns="http://www.w3.org/2000/svg" viewBox="0 0 256 256">
  <g opacity="0.2">
    <path d="M208,96V200a8,8,0,0,1-8,8H56a8,8,0,0,1-8-8V96Z"/>
  </g>
  <g>
    <path d="M216,40H40A16.01833,16.01833,0,0,0,24,56V88a16.01833,16.01833,0,0,0,16,16v96a16.01833,16.01833,0,0,0,16,16H200a16.01833,16.01833,0,0,0,16-16V104a16.01833,16.01833,0,0,0,16-16V56A16.01833,16.01833,0,0,0,216,40ZM200,200H56V104H200ZM216,88H40V56H216l.00977,32Z"/>
    <path d="M104,144h48a8,8,0,0,0,0-16H104a8,8,0,0,0,0,16Z"/>
  </g>
</svg>
