<svg id="Flat" xmlns="http://www.w3.org/2000/svg" viewBox="0 0 256 256">
  <g opacity="0.2">
    <path d="M76.68066,160a7.9996,7.9996,0,0,1,5.65674,2.34326l19.31348,19.31348A7.99962,7.99962,0,0,0,107.30762,184h41.373a7.9996,7.9996,0,0,0,5.65674-2.34326l19.31348-19.31348A7.99962,7.99962,0,0,1,179.30762,160h36.68652l.00586.00439V48a7.99977,7.99977,0,0,0-8-8H48a7.99977,7.99977,0,0,0-8,8V160Z"/>
  </g>
  <g>
    <path d="M208,32H48A16.01833,16.01833,0,0,0,32,48V159.88379c-.00049.03906-.00586.07715-.00586.11621s.00537.07715.00586.11621V208a16.01833,16.01833,0,0,0,16,16H208a16.01833,16.01833,0,0,0,16-16V48A16.01833,16.01833,0,0,0,208,32Zm0,16,.00635,104H179.30762a15.89606,15.89606,0,0,0-11.31348,4.68652L148.68066,176l-41.373.001L87.99316,156.68457A15.89834,15.89834,0,0,0,76.68066,152H48V48Zm0,160H48V168l28.68066-.001,19.31446,19.31641A15.89834,15.89834,0,0,0,107.30762,192h41.373a15.89606,15.89606,0,0,0,11.31348-4.68652L179.30762,168h28.6997l.00245,40Z"/>
    <path d="M122.34277,157.65723c.05762.05761.1211.10742.18018.16308.13037.12207.25928.2461.39746.35938.06689.05517.13867.10254.207.15527.13916.10693.27686.21484.42285.313.05616.0376.11621.06885.17334.105.16358.104.32813.207.49951.29883.04248.023.08692.04053.1294.0625.18994.09765.38184.1914.58008.27392.02783.01172.05713.02.085.03125.21289.08545.4292.16553.65088.23291.02929.00928.05957.01465.08886.02295.21973.064.44141.12256.668.168.06543.01319.13282.01856.19873.03028.19092.0332.38184.06689.57715.08593a7.89257,7.89257,0,0,0,1.59766,0c.19531-.019.38623-.05273.57715-.08593.06591-.01172.1333-.01709.19873-.03028.22656-.04541.44824-.104.668-.168.02929-.0083.05957-.01367.08886-.02295.22119-.06738.436-.14648.64844-.23193.02881-.01172.05908-.02.0874-.03223.19824-.08252.39014-.17627.57959-.27392.043-.02149.08741-.03955.12989-.0625.17138-.0918.33593-.19483.49951-.29883.05713-.03613.11718-.06738.17334-.105.146-.09815.28369-.20606.42285-.313.06836-.05273.14014-.1001.207-.15527.14209-.1167.2749-.24317.4082-.36914.05518-.05225.11524-.09912.16944-.15332l33.94091-33.94141a8.00035,8.00035,0,0,0-11.314-11.31445L136,132.686V72a8,8,0,0,0-16,0v60.686L99.71582,112.40137a8.00035,8.00035,0,0,0-11.314,11.31445Z"/>
  </g>
</svg>
