<svg id="Flat" xmlns="http://www.w3.org/2000/svg" viewBox="0 0 256 256">
  <g opacity="0.2">
    <path d="M216,96v96a8,8,0,0,1-8,8H48a8,8,0,0,1-8-8V96Z"/>
  </g>
  <path d="M224,48H32A16.01833,16.01833,0,0,0,16,64V88a16.01833,16.01833,0,0,0,16,16v88a16.01833,16.01833,0,0,0,16,16H208a16.01833,16.01833,0,0,0,16-16V104a16.01833,16.01833,0,0,0,16-16V64A16.01833,16.01833,0,0,0,224,48ZM208,192H48V104H208ZM224,88H32V64H224l.00977,24ZM96,136a8.00039,8.00039,0,0,1,8-8h48a8,8,0,0,1,0,16H104A8.00039,8.00039,0,0,1,96,136Z"/>
</svg>
