<svg id="Flat" xmlns="http://www.w3.org/2000/svg" viewBox="0 0 256 256">
  <path d="M240,128a32.00014,32.00014,0,0,1-32,32v40a7.99989,7.99989,0,0,1-8,8H56a7.99989,7.99989,0,0,1-8-8V160a32,32,0,0,1,0-64V72A32.00018,32.00018,0,0,1,80,40h96a32.00014,32.00014,0,0,1,32,32V96A32.00014,32.00014,0,0,1,240,128Z" opacity="0.2"/>
  <path d="M216,88.80469V72a40.04521,40.04521,0,0,0-40-40H80A40.04521,40.04521,0,0,0,40,72V88.80469a40.00486,40.00486,0,0,0,0,78.3916V200a16.01833,16.01833,0,0,0,16,16H200a16.01833,16.01833,0,0,0,16-16V167.19629a40.00486,40.00486,0,0,0,0-78.3916ZM80,48h96a24.0275,24.0275,0,0,1,24,24V88.80469A40.06827,40.06827,0,0,0,168,128H88A40.06827,40.06827,0,0,0,56,88.80469V72A24.0275,24.0275,0,0,1,80,48ZM208.38818,151.99707c-.1289-.00635-.25781-.00928-.38818-.00928a7.99977,7.99977,0,0,0-8,8V200H56V159.94873a8,8,0,0,0-8-7.96094c-.13037,0-.25928.00293-.38818.00928A24.0001,24.0001,0,1,1,72,128v40a8,8,0,0,0,16,0V144h80v24a8,8,0,0,0,16,0V128a24,24,0,1,1,24.38818,23.99707Z"/>
</svg>
