<svg id="Flat" xmlns="http://www.w3.org/2000/svg" viewBox="0 0 256 256">
  <g opacity="0.2">
    <path d="M136,32l96,96-96,96V176H48a8,8,0,0,1-8-8V88a8,8,0,0,1,8-8h88Z"/>
  </g>
  <path d="M237.65723,122.34277l-96-96A8.00065,8.00065,0,0,0,128,32V72H48A16.01833,16.01833,0,0,0,32,88v80a16.01833,16.01833,0,0,0,16,16h80v40a8.00053,8.00053,0,0,0,13.65723,5.65723l96-96A8.00122,8.00122,0,0,0,237.65723,122.34277ZM144,204.68652V176a8.00039,8.00039,0,0,0-8-8H48V88h88a8.00039,8.00039,0,0,0,8-8V51.31348L220.68652,128Z"/>
</svg>
