<svg id="Flat" xmlns="http://www.w3.org/2000/svg" viewBox="0 0 256 256">
  <g opacity="0.2">
    <rect x="40" y="40" width="176" height="176" rx="8" transform="translate(256) rotate(90)"/>
  </g>
  <g>
    <path d="M208,32H48A16.01833,16.01833,0,0,0,32,48V208a16.01833,16.01833,0,0,0,16,16H208a16.01833,16.01833,0,0,0,16-16V48A16.01833,16.01833,0,0,0,208,32Zm0,176H48V48H208Z"/>
    <path d="M88,136h60.68652l-20.28418,20.28418a8.00018,8.00018,0,0,0,11.31348,11.31445l33.94092-33.9414a8.00034,8.00034,0,0,0,0-11.31446l-33.94092-33.9414a8.00018,8.00018,0,1,0-11.31348,11.31445L148.68652,120H88a8,8,0,0,0,0,16Z"/>
  </g>
</svg>
