<svg xmlns="http://www.w3.org/2000/svg" viewBox="0 0 256 256"><path d="M144,104V64a8,8,0,0,1,16,0V84.7l42.3-42.4a8.1,8.1,0,0,1,11.4,11.4L171.3,96H192a8,8,0,0,1,0,16H152A8,8,0,0,1,144,104Zm-40,40H64a8,8,0,0,0,0,16H84.7L42.3,202.3a8.1,8.1,0,0,0,0,11.4,8.2,8.2,0,0,0,11.4,0L96,171.3V192a8,8,0,0,0,16,0V152A8,8,0,0,0,104,144Zm67.3,16H192a8,8,0,0,0,0-16H152a8,8,0,0,0-8,8v40a8,8,0,0,0,16,0V171.3l42.3,42.4a8.2,8.2,0,0,0,11.4,0,8.1,8.1,0,0,0,0-11.4ZM104,56a8,8,0,0,0-8,8V84.7L53.7,42.3A8.1,8.1,0,0,0,42.3,53.7L84.7,96H64a8,8,0,0,0,0,16h40a8,8,0,0,0,8-8V64A8,8,0,0,0,104,56Z"/></svg>