<svg id="Flat" xmlns="http://www.w3.org/2000/svg" viewBox="0 0 256 256">
  <g opacity="0.2">
    <rect x="40" y="40" width="176" height="176" rx="8" transform="translate(0 256) rotate(-90)"/>
  </g>
  <g>
    <path d="M208,32H48A16.01833,16.01833,0,0,0,32,48V208a16.01833,16.01833,0,0,0,16,16H208a16.01833,16.01833,0,0,0,16-16V48A16.01833,16.01833,0,0,0,208,32Zm0,176H48V48H208Z"/>
    <path d="M100,164a7.97661,7.97661,0,0,0,5.65674-2.34277L148,119.314V148a8,8,0,0,0,16,0V100a8.00008,8.00008,0,0,0-8-8H108a8,8,0,0,0,0,16h28.686L94.34326,150.34277A8,8,0,0,0,100,164Z"/>
  </g>
</svg>
