<svg id="Flat" xmlns="http://www.w3.org/2000/svg" viewBox="0 0 256 256">
  <g opacity="0.2">
    <polygon points="32 136 128 232 224 136 176 136 176 72 80 72 80 136 32 136"/>
  </g>
  <path d="M231.39062,132.93848A8,8,0,0,0,224,128H184V72a8.00039,8.00039,0,0,0-8-8H80a8.00039,8.00039,0,0,0-8,8v56H32a8.00065,8.00065,0,0,0-5.65723,13.65723l96,96a8.00181,8.00181,0,0,0,11.31446,0l96-96A8.002,8.002,0,0,0,231.39062,132.93848ZM128,220.68652,51.31348,144H80a8.00039,8.00039,0,0,0,8-8V80h80v56a8.00039,8.00039,0,0,0,8,8h28.68652ZM72,40a8.00039,8.00039,0,0,1,8-8h96a8,8,0,0,1,0,16H80A8.00039,8.00039,0,0,1,72,40Z"/>
</svg>
