<svg xmlns="http://www.w3.org/2000/svg" viewBox="0 0 256 256"><path d="M216,48V88a8,8,0,0,1-16,0V67.3l-42.3,42.4a8.2,8.2,0,0,1-11.4,0,8.1,8.1,0,0,1,0-11.4L188.7,56H168a8,8,0,0,1,0-16h40A8,8,0,0,1,216,48ZM98.3,146.3,56,188.7V168a8,8,0,0,0-16,0v40a8,8,0,0,0,8,8H88a8,8,0,0,0,0-16H67.3l42.4-42.3a8.1,8.1,0,0,0-11.4-11.4ZM208,160a8,8,0,0,0-8,8v20.7l-42.3-42.4a8.1,8.1,0,0,0-11.4,11.4L188.7,200H168a8,8,0,0,0,0,16h40a8,8,0,0,0,8-8V168A8,8,0,0,0,208,160ZM67.3,56H88a8,8,0,0,0,0-16H48a8,8,0,0,0-8,8V88a8,8,0,0,0,16,0V67.3l42.3,42.4a8.2,8.2,0,0,0,11.4,0,8.1,8.1,0,0,0,0-11.4Z"/></svg>