<svg id="Flat" xmlns="http://www.w3.org/2000/svg" viewBox="0 0 256 256">
  <g opacity="0.2">
    <polygon points="32 120 128 24 224 120 176 120 176 184 80 184 80 120 32 120"/>
  </g>
  <path d="M229.65723,114.34277l-96-96a8.003,8.003,0,0,0-11.31446,0l-96,96A8.00065,8.00065,0,0,0,32,128H72v56a8.00039,8.00039,0,0,0,8,8h96a8.00039,8.00039,0,0,0,8-8V128h40a8.00066,8.00066,0,0,0,5.65723-13.65723ZM176,112a8.00039,8.00039,0,0,0-8,8v56H88V120a8.00039,8.00039,0,0,0-8-8H51.31348L128,35.31348,204.68652,112Zm8,104a8.00039,8.00039,0,0,1-8,8H80a8,8,0,0,1,0-16h96A8.00039,8.00039,0,0,1,184,216Z"/>
</svg>
