<svg id="Flat" xmlns="http://www.w3.org/2000/svg" viewBox="0 0 256 256">
  <g opacity="0.2">
    <circle cx="128" cy="128" r="96"/>
  </g>
  <g>
    <path d="M128,24A104,104,0,1,0,232,128,104.11791,104.11791,0,0,0,128,24Zm0,192a88,88,0,1,1,88-88A88.09957,88.09957,0,0,1,128,216Z"/>
    <path d="M168,120H107.31348l20.28418-20.28418a8,8,0,0,0-11.31348-11.314l-33.94092,33.9414a7.99915,7.99915,0,0,0,0,11.31348l33.94092,33.9414a8,8,0,0,0,11.31348-11.314L107.31348,136H168a8,8,0,0,0,0-16Z"/>
  </g>
</svg>
