<svg xmlns="http://www.w3.org/2000/svg" viewBox="0 0 256 256"><path d="M161.9,182.6a7.9,7.9,0,0,1,0,11.3,7.7,7.7,0,0,1-5.6,2.4,8,8,0,0,1-5.7-2.4L136,179.3V232a8,8,0,0,1-16,0V179.3l-14.6,14.6a8,8,0,0,1-11.3-11.3l28.2-28.3a8.1,8.1,0,0,1,11.4,0Zm-39.6-80.9a8.2,8.2,0,0,0,11.4,0l28.2-28.3a8,8,0,1,0-11.3-11.3L136,76.7V24a8,8,0,0,0-16,0V76.7L105.4,62.1A8,8,0,1,0,94.1,73.4Zm-20.6,20.6L73.4,94.1a8,8,0,1,0-11.3,11.3L76.7,120H24a8,8,0,0,0,0,16H76.7L62.1,150.6a7.9,7.9,0,0,0,0,11.3,7.7,7.7,0,0,0,5.6,2.4,8,8,0,0,0,5.7-2.4l28.3-28.2A8.1,8.1,0,0,0,101.7,122.3ZM232,120H179.3l14.6-14.6a8,8,0,0,0-11.3-11.3l-28.3,28.2a8.1,8.1,0,0,0,0,11.4l28.3,28.2a8,8,0,0,0,5.7,2.4,7.7,7.7,0,0,0,5.6-2.4,7.9,7.9,0,0,0,0-11.3L179.3,136H232a8,8,0,0,0,0-16Z"/></svg>