<svg id="Flat" xmlns="http://www.w3.org/2000/svg" viewBox="0 0 256 256">
  <path d="M56,156V56c0-.26349.01416-.52686.04-.78931.01123-.11853.03369-.23358.05029-.35052.02051-.14136.03711-.28314.06494-.42352.02637-.13349.063-.26294.09571-.39393.03076-.12194.05761-.24462.09423-.36535.03907-.129.08741-.25354.13282-.37976.043-.11994.08252-.2406.13134-.35877.04883-.11792.10645-.231.16065-.346.05713-.12182.11133-.24462.17529-.364.0586-.11011.126-.2146.18994-.32153.06983-.11688.13575-.23517.21192-.34912.07959-.11878.168-.23053.25342-.34473.07128-.09466.13671-.19189.21289-.28406.166-.20263.34131-.39758.52636-.58288l.00293-.0033.00049-.00006c.18653-.18658.38281-.36322.58692-.53069.08837-.07234.18115-.135.27148-.203.11816-.08893.23438-.18048.35791-.26282.10986-.07367.22412-.13739.33691-.205.11133-.06653.21973-.13611.33448-.19732s.23291-.11322.35009-.16864c.11963-.05671.23731-.11634.36036-.16718.1123-.04645.22705-.08386.3413-.125.13184-.04773.26221-.09821.39747-.1391.11377-.0343.229-.05914.34326-.08826.13818-.03515.2749-.0736.416-.1015.12989-.02575.26172-.04065.39258-.05993.12695-.01868.25244-.04236.38135-.055.23193-.02282.46484-.03271.69824-.03527C63.94141,48.00415,63.97021,48,64,48H164a8,8,0,0,1,0,16H83.31348l98.34375,98.34326a8.00018,8.00018,0,0,1-11.31446,11.31348L72,75.31372V156a8,8,0,0,1-16,0Zm160,51.99609H40a8,8,0,0,0,0,16H216a8,8,0,0,0,0-16Z"/>
</svg>
