<svg id="Flat" xmlns="http://www.w3.org/2000/svg" viewBox="0 0 256 256">
  <g opacity="0.2">
    <rect x="40" y="40" width="176" height="176" rx="8" transform="translate(256 0) rotate(90)"/>
  </g>
  <g>
    <path d="M208,32H48A16.01833,16.01833,0,0,0,32,48V208a16.01833,16.01833,0,0,0,16,16H208a16.01833,16.01833,0,0,0,16-16V48A16.01833,16.01833,0,0,0,208,32Zm0,176-159.99951.00977L48,208V48H208Z"/>
    <path d="M116.28418,167.59863a8.00018,8.00018,0,0,0,11.31348-11.31445L107.31348,136H168a8,8,0,0,0,0-16H107.31348l20.28418-20.28418a8.00018,8.00018,0,0,0-11.31348-11.31445l-33.94092,33.9414a8.00034,8.00034,0,0,0,0,11.31446Z"/>
  </g>
</svg>
