<svg id="Flat" xmlns="http://www.w3.org/2000/svg" viewBox="0 0 256 256">
  <g opacity="0.2">
    <circle cx="128" cy="128" r="96"/>
  </g>
  <g>
    <path d="M128,24A104,104,0,1,0,232,128,104.11791,104.11791,0,0,0,128,24Zm0,192a88,88,0,1,1,88-88A88.09957,88.09957,0,0,1,128,216Z"/>
    <path d="M156.28418,128.40186,136,148.68652V88a8,8,0,0,0-16,0v60.68652L99.71582,128.40186a8,8,0,1,0-11.31348,11.314l33.94043,33.94092a8.00063,8.00063,0,0,0,11.31446,0l33.94043-33.94092a8,8,0,1,0-11.31348-11.314Z"/>
  </g>
</svg>
