<svg id="Flat" xmlns="http://www.w3.org/2000/svg" viewBox="0 0 256 256">
  <g opacity="0.2">
    <path d="M32,136l96,96,96-96H176V48a8,8,0,0,0-8-8H88a8,8,0,0,0-8,8v88Z"/>
  </g>
  <path d="M231.39062,132.93848A8,8,0,0,0,224,128H184V48a16.01833,16.01833,0,0,0-16-16H88A16.01833,16.01833,0,0,0,72,48v80H32a8.00065,8.00065,0,0,0-5.65723,13.65723l96,96a8.00181,8.00181,0,0,0,11.31446,0l96-96A8.002,8.002,0,0,0,231.39062,132.93848ZM128,220.68652,51.31348,144H80a8.00039,8.00039,0,0,0,8-8V48h80v88a8.00039,8.00039,0,0,0,8,8h28.68652Z"/>
</svg>
