<svg id="Flat" xmlns="http://www.w3.org/2000/svg" viewBox="0 0 256 256">
  <g opacity="0.2">
    <circle cx="128" cy="128" r="96"/>
  </g>
  <g>
    <path d="M128,24A104,104,0,1,0,232,128,104.11791,104.11791,0,0,0,128,24Zm0,192a88,88,0,1,1,88-88A88.09957,88.09957,0,0,1,128,216Z"/>
    <path d="M156,100a8.00024,8.00024,0,0,0-8,8v28.68652L105.65674,94.34326a7.99984,7.99984,0,0,0-11.31348,11.31348L136.68652,148H108a8,8,0,0,0,0,16h48a8.00024,8.00024,0,0,0,8-8V108A8.00024,8.00024,0,0,0,156,100Z"/>
  </g>
</svg>
