<svg id="Flat" xmlns="http://www.w3.org/2000/svg" viewBox="0 0 256 256">
  <g opacity="0.2">
    <polygon points="120 32 24 128 120 224 120 176 184 176 184 80 120 80 120 32"/>
  </g>
  <path d="M184,72H128V32a8.00065,8.00065,0,0,0-13.65723-5.65723l-96,96a8.00122,8.00122,0,0,0,0,11.31446l96,96A8.00066,8.00066,0,0,0,128,224V184h56a8.00039,8.00039,0,0,0,8-8V80A8.00039,8.00039,0,0,0,184,72Zm-8,96H120a8.00039,8.00039,0,0,0-8,8v28.68652L35.31348,128,112,51.31348V80a8.00039,8.00039,0,0,0,8,8h56Zm48-88v96a8,8,0,0,1-16,0V80a8,8,0,0,1,16,0Z"/>
</svg>
