<svg id="Flat" xmlns="http://www.w3.org/2000/svg" viewBox="0 0 256 256">
  <g opacity="0.2">
    <rect x="40" y="40" width="176" height="176" rx="8" transform="translate(256 0) rotate(90)"/>
  </g>
  <g>
    <path d="M208,32H48A16.01833,16.01833,0,0,0,32,48V208a16.01833,16.01833,0,0,0,16,16H208a16.01833,16.01833,0,0,0,16-16V48A16.01833,16.01833,0,0,0,208,32Zm0,176-159.99951.00977L48,208V48H208Z"/>
    <path d="M136.686,148H108a8,8,0,0,0,0,16h48a8.00008,8.00008,0,0,0,8-8V108a8,8,0,0,0-16,0v28.686L105.65674,94.34277a8.00018,8.00018,0,0,0-11.31348,11.31446Z"/>
  </g>
</svg>
