<svg id="Flat" xmlns="http://www.w3.org/2000/svg" viewBox="0 0 256 256">
  <g opacity="0.2">
    <circle cx="128" cy="128" r="96"/>
  </g>
  <g>
    <path d="M128,24A104,104,0,1,0,232,128,104.11791,104.11791,0,0,0,128,24Zm0,192a88,88,0,1,1,88-88A88.09957,88.09957,0,0,1,128,216Z"/>
    <path d="M133.65723,82.34326a8.00034,8.00034,0,0,0-11.31446,0L88.40186,116.28418a8.00018,8.00018,0,0,0,11.314,11.314L120,107.31348V168a8,8,0,0,0,16,0V107.31348l20.28418,20.28466a8.00018,8.00018,0,0,0,11.314-11.314Z"/>
  </g>
</svg>
