<svg id="Flat" xmlns="http://www.w3.org/2000/svg" viewBox="0 0 256 256">
  <path d="M208,80v88a64,64,0,0,1-128,0V51.31348L45.65723,85.65674A8.00018,8.00018,0,0,1,34.34277,74.34326l48-48c.01612-.01611.03394-.0293.05-.04541.17163-.1687.34961-.33105.53589-.48389.094-.07714.19312-.14453.28955-.21679.11255-.084.22266-.17139.33985-.24951.113-.07569.23046-.14136.34643-.2107.10816-.06469.21411-.13257.32544-.19214.1167-.0625.23682-.11523.356-.17138.11767-.05591.23364-.1145.35449-.16455.11377-.04712.22974-.085.345-.12647.1311-.04736.2605-.09741.39478-.13794.11377-.03442.22949-.05932.34448-.08862.13769-.03516.27392-.07324.4143-.10107.13038-.02588.26221-.04078.39356-.06006.12695-.01856.25195-.04248.38086-.05494.23193-.02294.46509-.03271.69824-.0354C87.94141,24.00415,87.97021,24,88,24s.05859.00415.08838.00439c.23315.00269.46631.01246.69824.0354.12891.01246.25391.03638.38086.05494.13135.01928.26318.03418.39355.06006.14039.02783.27662.06591.41431.10107.115.0293.23071.0542.34448.08862.13428.04053.26368.09058.39478.13794.11523.04151.2312.07935.345.12647.12085.05005.23682.10864.35449.16455.11914.05615.23926.10888.356.17138.11133.05957.21728.12745.32544.19214.116.06934.2334.135.34643.2107.11719.07812.2273.16552.33985.24951.09643.07226.19555.13965.28955.21679.18628.15284.36426.31519.53589.48389.01611.01611.03393.0293.05.04541l48,48a8.00018,8.00018,0,0,1-11.31446,11.31348L96,51.31348V168a48,48,0,0,0,96,0V80a8,8,0,0,1,16,0Z"/>
</svg>
