<svg id="Flat" xmlns="http://www.w3.org/2000/svg" viewBox="0 0 256 256">
  <path d="M213.65723,53.65723,171.31445,96H200a8,8,0,0,1,0,16H152c-.26367,0-.52734-.014-.78955-.03992-.11816-.01159-.23242-.03369-.34912-.05041-.1416-.02027-.28418-.03687-.42481-.0647-.13281-.02637-.26123-.06274-.3916-.0957-.123-.03076-.24658-.05786-.36816-.09473-.12647-.03833-.24854-.08569-.37207-.13-.12305-.04395-.24658-.0846-.36768-.13465-.11328-.047-.22168-.10217-.332-.154-.127-.05957-.25439-.116-.37842-.18237-.10205-.05481-.19922-.11731-.29834-.17627-.12549-.07422-.25146-.14527-.37353-.22681-.10352-.06946-.20069-.14722-.30078-.22119-.10987-.0813-.22168-.158-.32813-.24561-.144-.11792-.27881-.246-.41406-.37353-.05518-.05249-.11475-.09851-.16895-.15283-.05664-.0564-.10449-.11792-.15869-.17554-.12549-.13281-.251-.26538-.36719-.40649-.0913-.11072-.17138-.22718-.25537-.34156-.07031-.0957-.14453-.188-.21093-.28686-.085-.12659-.15918-.25782-.23584-.38806-.05567-.09436-.11524-.18616-.167-.28309-.06933-.12915-.12841-.26184-.18994-.39379-.04931-.10547-.10205-.20874-.147-.31665-.05225-.12647-.09522-.25562-.14063-.38428-.042-.11817-.0874-.2345-.124-.35523-.03906-.1289-.06787-.25976-.10058-.39013-.03077-.12305-.06543-.24414-.09034-.36939-.02978-.15137-.04834-.30444-.06933-.457-.01465-.106-.03516-.21-.0459-.31714q-.03956-.39769-.04-.79712V56a8,8,0,0,1,16,0V84.68555l42.34277-42.34278a8.00053,8.00053,0,0,1,11.31446,11.31446ZM111.96,151.208c-.01074-.10718-.03125-.21118-.0459-.31714-.021-.15259-.03955-.30566-.06933-.457-.02491-.12525-.05957-.24634-.09034-.36939-.03271-.13037-.06152-.26123-.10058-.39013-.03662-.12073-.082-.23706-.124-.35523-.04541-.12866-.08838-.25781-.14063-.38428-.04492-.10791-.09766-.21118-.147-.31665-.06153-.13195-.12061-.26464-.18994-.39379-.05176-.09693-.11133-.18873-.167-.28309-.07666-.13024-.15087-.26147-.23584-.38806-.0664-.09887-.14062-.19116-.21093-.28686-.084-.11438-.16407-.23084-.25537-.34156-.11622-.14111-.2417-.27368-.36719-.40649-.0542-.05762-.10205-.11914-.15869-.17554-.05323-.05334-.11133-.09851-.166-.15-.13623-.12879-.27246-.25769-.417-.37671-.10449-.08582-.21436-.16077-.32178-.24048-.10254-.07593-.20166-.15539-.3081-.22644-.11817-.0791-.24073-.148-.36231-.22-.10351-.06177-.2041-.12671-.31055-.18359-.11865-.06324-.24023-.117-.36084-.17383-.11669-.05518-.23144-.11328-.35107-.16284-.1123-.04663-.22754-.084-.3418-.12525-.13281-.04785-.26367-.09839-.39941-.1394-.10938-.03308-.2207-.057-.33106-.08521-.14257-.0365-.2832-.07592-.42822-.10461-.12158-.024-.24414-.0376-.3667-.05591-.13574-.02039-.27-.04553-.4082-.059-.20215-.01977-.40479-.02612-.60742-.03064C104.11768,144.00757,104.05957,144,104,144H56a8,8,0,0,0,0,16H84.68555L42.34277,202.34277a8.00053,8.00053,0,0,0,11.31446,11.31446L96,171.31445V200a8,8,0,0,0,16,0V152.00513Q112,151.606,111.96,151.208Z"/>
</svg>
