<svg xmlns="http://www.w3.org/2000/svg" viewBox="0 0 256 256"><g opacity="0.2"><polygon points="136 32 232 128 136 224 136 176 104 176 104 80 136 80 136 32"/></g><path d="M237.7,122.3l-96-96a8.4,8.4,0,0,0-8.8-1.7A8,8,0,0,0,128,32V72H104a8,8,0,0,0-8,8v96a8,8,0,0,0,8,8h24v40a8,8,0,0,0,4.9,7.4,8.5,8.5,0,0,0,3.1.6,8.3,8.3,0,0,0,5.7-2.3l96-96A8.1,8.1,0,0,0,237.7,122.3ZM144,204.7V176a8,8,0,0,0-8-8H112V88h24a8,8,0,0,0,8-8V51.3L220.7,128ZM48,80v96a8,8,0,0,1-16,0V80a8,8,0,0,1,16,0Zm32,0v96a8,8,0,0,1-16,0V80a8,8,0,0,1,16,0Z"/></svg>