<svg id="Flat" xmlns="http://www.w3.org/2000/svg" viewBox="0 0 256 256">
  <path d="M190.38477,132.801c-.06739.08935-.1294.18127-.20069.26831a7.95171,7.95171,0,0,1-.53418.59057l-71.99658,71.99683a7.99984,7.99984,0,0,1-11.31348-11.31348L164.68262,136H31.99609a8,8,0,0,1,0-16H164.68262L106.33984,61.65674a7.99984,7.99984,0,0,1,11.31348-11.31348l71.99658,71.99683a7.95171,7.95171,0,0,1,.53418.59057c.07129.087.1333.179.20069.26831.08984.11927.18212.23633.26513.3606.07373.11047.1377.2251.20557.33838.06592.11035.13525.21838.19629.332.0625.11682.11523.23682.17138.356.05567.11767.11426.2334.16456.35425.04736.11523.08593.23291.12792.34985.04639.129.09571.25659.13575.38867.03564.11792.06152.23755.09179.35657.0337.13367.07129.26575.09815.402.02734.13769.04346.27685.06348.41552.01708.11963.03955.23731.05175.35852q.03736.38234.03858.76648l.001.02222-.001.02222q-.00073.38379-.03858.76648c-.0122.12121-.03467.23889-.05175.35852-.02.13867-.03614.27783-.06348.41552-.02686.13623-.06445.26831-.09815.402-.03027.119-.05615.23865-.09179.35657-.04.13208-.08936.25964-.13575.38867-.042.11694-.08056.23462-.12792.34985-.0503.12085-.10889.23658-.16456.35425-.05615.11914-.10888.23914-.17138.356-.061.11365-.13037.22168-.19629.332-.06787.11328-.13184.22791-.20557.33838C190.56689,132.5647,190.47461,132.68176,190.38477,132.801ZM216,32a8.00008,8.00008,0,0,0-8,8V216a8,8,0,0,0,16,0V40A8.00008,8.00008,0,0,0,216,32Z"/>
</svg>
