<svg id="Flat" xmlns="http://www.w3.org/2000/svg" viewBox="0 0 256 256">
  <g opacity="0.2">
    <rect x="40" y="40" width="176" height="176" rx="8"/>
  </g>
  <g>
    <path d="M208,32H48A16.01833,16.01833,0,0,0,32,48V208a16.01833,16.01833,0,0,0,16,16H208a16.01833,16.01833,0,0,0,16-16V48A16.01833,16.01833,0,0,0,208,32Zm0,176H48V48H208l.01025,160Z"/>
    <path d="M156.28418,128.40137,136,148.68628V88a8,8,0,0,0-16,0v60.68628L99.71582,128.40137a8.00018,8.00018,0,1,0-11.31348,11.31445l33.94092,33.94141a8.00063,8.00063,0,0,0,11.31348,0l33.94092-33.94141a8.00018,8.00018,0,1,0-11.31348-11.31445Z"/>
  </g>
</svg>
