<svg id="Flat" xmlns="http://www.w3.org/2000/svg" viewBox="0 0 256 256">
  <g opacity="0.2">
    <polygon points="32 120 128 24 224 120 176 120 176 152 80 152 80 120 32 120"/>
  </g>
  <path d="M229.65674,114.34277l-96-96a8.00182,8.00182,0,0,0-11.31348,0l-96,96A8.0001,8.0001,0,0,0,32,128H72v24a8.00008,8.00008,0,0,0,8,8h96a8.00008,8.00008,0,0,0,8-8V128h40a8.0001,8.0001,0,0,0,5.65674-13.65723ZM176,112a8.00008,8.00008,0,0,0-8,8v24H88V120a8.00008,8.00008,0,0,0-8-8H51.314L128,35.31348,204.686,112Zm8,104a8.00008,8.00008,0,0,1-8,8H80a8,8,0,0,1,0-16h96A8.00008,8.00008,0,0,1,184,216Zm0-32a8.00008,8.00008,0,0,1-8,8H80a8,8,0,0,1,0-16h96A8.00008,8.00008,0,0,1,184,184Z"/>
</svg>
