<svg id="Flat" xmlns="http://www.w3.org/2000/svg" viewBox="0 0 256 256">
  <g opacity="0.2">
    <polygon points="136 32 232 128 136 224 136 176 104 176 104 80 136 80 136 32"/>
  </g>
  <path d="M237.65674,122.34277l-96-96A8.00037,8.00037,0,0,0,128,32V72H104a8.00008,8.00008,0,0,0-8,8v96a8.00008,8.00008,0,0,0,8,8h24v40a8.00018,8.00018,0,0,0,13.65674,5.65723l96-96A8.00034,8.00034,0,0,0,237.65674,122.34277ZM144,204.68652V176a8.00008,8.00008,0,0,0-8-8H112V88h24a8.00008,8.00008,0,0,0,8-8V51.31348L220.686,128ZM48,80v96a8,8,0,0,1-16,0V80a8,8,0,0,1,16,0Zm32,0v96a8,8,0,0,1-16,0V80a8,8,0,0,1,16,0Z"/>
</svg>
