<svg id="Flat" xmlns="http://www.w3.org/2000/svg" viewBox="0 0 256 256">
  <g opacity="0.2">
    <path d="M120,32,24,128l96,96V176h88a8,8,0,0,0,8-8V88a8,8,0,0,0-8-8H120Z"/>
  </g>
  <path d="M208,72H128V32a8.00065,8.00065,0,0,0-13.65723-5.65723l-96,96a8.00122,8.00122,0,0,0,0,11.31446l96,96A8.00066,8.00066,0,0,0,128,224V184h80a16.01833,16.01833,0,0,0,16-16V88A16.01833,16.01833,0,0,0,208,72Zm0,96H120a8.00039,8.00039,0,0,0-8,8v28.68652L35.31348,128,112,51.31348V80a8.00039,8.00039,0,0,0,8,8h88Z"/>
</svg>
