<svg id="Flat" xmlns="http://www.w3.org/2000/svg" viewBox="0 0 256 256">
  <g opacity="0.2">
    <polygon points="120 32 24 128 120 224 120 176 152 176 152 80 120 80 120 32"/>
  </g>
  <path d="M152,72H128V32a8.00037,8.00037,0,0,0-13.65674-5.65723l-96,96a8.00034,8.00034,0,0,0,0,11.31446l96,96A8.00038,8.00038,0,0,0,128,224V184h24a8.00008,8.00008,0,0,0,8-8V80A8.00008,8.00008,0,0,0,152,72Zm-8,96H120a8.00008,8.00008,0,0,0-8,8v28.68652L35.314,128,112,51.31348V80a8.00008,8.00008,0,0,0,8,8h24Zm80-88v96a8,8,0,0,1-16,0V80a8,8,0,0,1,16,0Zm-32,0v96a8,8,0,0,1-16,0V80a8,8,0,0,1,16,0Z"/>
</svg>
