<svg id="Flat" xmlns="http://www.w3.org/2000/svg" viewBox="0 0 256 256">
  <path d="M232,112a64.07207,64.07207,0,0,1-64,64H51.31348l34.34375,34.34326a8.00018,8.00018,0,0,1-11.31446,11.31348l-48-48c-.0271-.02686-.04956-.05713-.07617-.08447-.15649-.16065-.30908-.32569-.45166-.49952-.08423-.10254-.15771-.21045-.23608-.31591-.07715-.10352-.15747-.20459-.2295-.312-.082-.12255-.15332-.24951-.22778-.375-.05859-.09863-.12036-.19433-.17456-.29541-.06811-.12695-.12573-.25732-.18652-.38671-.0503-.10743-.10425-.2129-.1499-.32325-.052-.12549-.094-.25341-.13941-.38086-.04248-.11914-.08838-.23632-.12524-.35791-.03882-.12841-.06763-.25927-.09986-.38916-.03076-.123-.06567-.24511-.09057-.3706-.03-.15088-.04859-.30371-.06958-.45655-.0149-.106-.0354-.21-.0459-.31738a8.02276,8.02276,0,0,1,0-1.584c.0105-.10742.031-.21143.0459-.31739.021-.15283.03955-.30566.06958-.45654.0249-.12549.05981-.24756.09057-.3706.03223-.12989.061-.26075.09986-.38916.03686-.12159.08276-.23877.12524-.35791.04541-.12745.0874-.25537.13941-.38086.04565-.11035.0996-.21582.1499-.32325.06079-.12939.11841-.25976.18652-.38671.0542-.10108.116-.19678.17456-.29541.07446-.12549.14575-.25245.22778-.375.072-.10743.15235-.2085.2295-.312.07837-.10546.15185-.21337.23608-.31591.14526-.17725.30054-.34522.46021-.50928.02368-.02393.0437-.05078.06762-.07471l48-48a8.00018,8.00018,0,0,1,11.31446,11.31348L51.31348,160H168a48,48,0,0,0,0-96H80a8,8,0,0,1,0-16h88A64.07207,64.07207,0,0,1,232,112Z"/>
</svg>
