<svg xmlns="http://www.w3.org/2000/svg" viewBox="0 0 256 256"><path d="M161.9,198.1a7.9,7.9,0,0,1,0,11.3l-28.2,28.3a8.2,8.2,0,0,1-11.4,0L94.1,209.4a8,8,0,0,1,11.3-11.3L120,212.7V160a8,8,0,0,1,16,0v52.7l14.6-14.6A7.9,7.9,0,0,1,161.9,198.1ZM105.4,57.9,120,43.3V96a8,8,0,0,0,16,0V43.3l14.6,14.6a8,8,0,0,0,5.7,2.4,7.7,7.7,0,0,0,5.6-2.4,7.9,7.9,0,0,0,0-11.3L133.7,18.3a8.2,8.2,0,0,0-11.4,0L94.1,46.6a8,8,0,0,0,11.3,11.3ZM43.3,136H96a8,8,0,0,0,0-16H43.3l14.6-14.6A8,8,0,0,0,46.6,94.1L18.3,122.3a8.1,8.1,0,0,0,0,11.4l28.3,28.2a8,8,0,0,0,5.7,2.4,7.7,7.7,0,0,0,5.6-2.4,7.9,7.9,0,0,0,0-11.3Zm194.4-13.7L209.4,94.1a8,8,0,0,0-11.3,11.3L212.7,120H160a8,8,0,0,0,0,16h52.7l-14.6,14.6a7.9,7.9,0,0,0,0,11.3,7.7,7.7,0,0,0,5.6,2.4,8,8,0,0,0,5.7-2.4l28.3-28.2A8.1,8.1,0,0,0,237.7,122.3Z"/></svg>