<svg id="Flat" xmlns="http://www.w3.org/2000/svg" viewBox="0 0 256 256">
  <g opacity="0.2">
    <polygon points="32 136 128 232 224 136 176 136 176 104 80 104 80 136 32 136"/>
  </g>
  <path d="M231.39111,132.93848A8.00015,8.00015,0,0,0,224,128H184V104a8.00008,8.00008,0,0,0-8-8H80a8.00008,8.00008,0,0,0-8,8v24H32a8.0001,8.0001,0,0,0-5.65674,13.65723l96,96a8.00063,8.00063,0,0,0,11.31348,0l96-96A8.00061,8.00061,0,0,0,231.39111,132.93848ZM128,220.68652,51.314,144H80a8.00008,8.00008,0,0,0,8-8V112h80v24a8.00008,8.00008,0,0,0,8,8h28.686ZM72,40a8.00008,8.00008,0,0,1,8-8h96a8,8,0,0,1,0,16H80A8.00008,8.00008,0,0,1,72,40Zm0,32a8.00008,8.00008,0,0,1,8-8h96a8,8,0,0,1,0,16H80A8.00008,8.00008,0,0,1,72,72Z"/>
</svg>
