<svg id="Flat" xmlns="http://www.w3.org/2000/svg" viewBox="0 0 256 256">
  <g opacity="0.2">
    <circle cx="128" cy="127.99512" r="96"/>
  </g>
  <path d="M127.99512,23.99512a104,104,0,1,0,57.51074,190.66406,8.0001,8.0001,0,0,0-8.8584-13.32422,88.00791,88.00791,0,1,1,39.34766-73.33984c0,26.44824-10.876,32-20,32s-20-5.55176-20-32v-40a8,8,0,1,0-16,0v4.261a47.99882,47.99882,0,1,0,5.93066,65.10279c6.00391,11.97876,16.34961,18.63623,30.06934,18.63623,22.542,0,36-17.94434,36-48A104.1179,104.1179,0,0,0,127.99512,23.99512Zm0,136a32,32,0,1,1,32-32A32.03667,32.03667,0,0,1,127.99512,159.99512Z"/>
</svg>
