<svg id="Flat" xmlns="http://www.w3.org/2000/svg" viewBox="0 0 256 256">
  <path d="M224,128a96,96,0,1,1-96-96A95.99991,95.99991,0,0,1,224,128Z" opacity="0.2"/>
  <path d="M128,24c-.03223,0-.06445.00122-.09668.00122l-.03955.00049A102.78529,102.78529,0,1,0,128,24Zm0,192A88.00487,88.00487,0,0,1,112.46143,41.37378C104.12549,57.7019,104,71.27466,104,72a24,24,0,0,0,48,0,8,8,0,0,0-16,0,8.00006,8.00006,0,0,1-16,.04395c.00146-.16456.31982-15.66407,11.91357-31.9524A87.99771,87.99771,0,0,1,128,216ZM92,140a12,12,0,1,1,12-12A12,12,0,0,1,92,140Zm84-12a12,12,0,1,1-12-12A12,12,0,0,1,176,128Zm-14.79932,35.57422A7.99961,7.99961,0,0,1,158.9668,174.665a56.03047,56.03047,0,0,1-61.93213.001,7.99982,7.99982,0,1,1,8.85742-13.32422,40.03347,40.03347,0,0,0,44.21777-.001A7.99923,7.99923,0,0,1,161.20068,163.57422Z"/>
</svg>
