<svg xmlns="http://www.w3.org/2000/svg" viewBox="0 0 256 256"><g opacity="0.2"><path d="M61.7,204.1,16,128,61.7,51.9A7.9,7.9,0,0,1,68.5,48H216a8,8,0,0,1,8,8V200a8,8,0,0,1-8,8H68.5A7.9,7.9,0,0,1,61.7,204.1Z"/></g><path d="M216,40H68.5a16.2,16.2,0,0,0-13.7,7.8L9.2,123.9a7.6,7.6,0,0,0,0,8.2l45.6,76.1A16.2,16.2,0,0,0,68.5,216H216a16,16,0,0,0,16-16V56A16,16,0,0,0,216,40ZM61.7,204.1l6.8-4.1h0ZM216,200H68.5L25.3,128,68.5,56H216Z"/><path d="M106.4,157.7A8,8,0,0,0,112,160a8.3,8.3,0,0,0,5.7-2.3L136,139.3l18.4,18.4A8,8,0,0,0,160,160a8.3,8.3,0,0,0,5.7-2.3,8.1,8.1,0,0,0,0-11.4L147.3,128l18.4-18.3a8.1,8.1,0,0,0,0-11.4,8,8,0,0,0-11.3,0L136,116.7,117.7,98.3a8,8,0,0,0-11.3,11.4L124.7,128l-18.3,18.3A8,8,0,0,0,106.4,157.7Z"/></svg>