<svg id="Flat" xmlns="http://www.w3.org/2000/svg" viewBox="0 0 256 256">
  <g opacity="0.2">
    <path d="M206.62744,94.62744a32,32,0,0,0-45.25488-45.25488L128,82.74512,173.25488,128Z"/>
  </g>
  <g opacity="0.2">
    <path d="M49.37256,161.37256a32,32,0,0,0,45.25488,45.25488L128,173.25488,82.74512,128Z"/>
  </g>
  <g opacity="0.2">
    <path d="M94.62744,49.37256A32,32,0,0,0,49.37256,94.62744L82.74512,128,128,82.74512Z"/>
  </g>
  <g opacity="0.2">
    <path d="M173.25488,128,128,173.25488l33.37256,33.37256a32,32,0,0,0,45.25488-45.25488Z"/>
  </g>
  <g>
    <circle cx="128" cy="128" r="12"/>
    <path d="M184.56836,128l27.71582-27.71558a40,40,0,1,0-56.56836-56.5686L128,71.43164,100.28418,43.71582a39.99987,39.99987,0,1,0-56.56836,56.56836L71.43164,128,43.71582,155.71558a40,40,0,1,0,56.56836,56.5686L128,184.56836l27.71582,27.71582a39.99987,39.99987,0,1,0,56.56836-56.56836ZM167.03027,55.0293a23.99951,23.99951,0,1,1,33.93946,33.9414L173.25439,116.686,139.314,82.74561Zm-5.08984,72.97094L128,161.94043,94.05957,128,128,94.05957ZM55.03027,88.9707v-.00024A23.99942,23.99942,0,1,1,88.96973,55.0293L116.686,82.74561,82.74561,116.686Zm33.93946,112a23.99951,23.99951,0,1,1-33.93946-33.9414L82.74561,139.314,116.686,173.25439Zm112,0a23.99832,23.99832,0,0,1-33.93946,0L139.314,173.25439l33.94043-33.94018,27.71534,27.71558a23.99773,23.99773,0,0,1,0,33.94091Z"/>
  </g>
</svg>
