<svg xmlns="http://www.w3.org/2000/svg" viewBox="0 0 256 256"><g opacity="0.2"><path d="M206.6,94.6a32,32,0,0,0-45.2-45.2L128,82.7,173.3,128Z"/></g><g opacity="0.2"><path d="M49.4,161.4a32,32,0,0,0,45.2,45.2L128,173.3,82.7,128Z"/></g><g opacity="0.2"><path d="M94.6,49.4A32,32,0,0,0,49.4,94.6L82.7,128,128,82.7Z"/></g><g opacity="0.2"><path d="M173.3,128,128,173.3l33.4,33.3a32,32,0,0,0,45.2-45.2Z"/></g><circle cx="128" cy="128" r="12"/><path d="M184.6,128l27.7-27.7a40,40,0,0,0-56.6-56.6L128,71.4,100.3,43.7a40,40,0,0,0-56.6,56.6L71.4,128,43.7,155.7a40,40,0,0,0,56.6,56.6L128,184.6l27.7,27.7a40,40,0,0,0,56.6-56.6ZM167,55a24,24,0,0,1,34,34l-27.7,27.7-34-34Zm-5.1,73L128,161.9,94.1,128,128,94.1ZM55,89h0A24,24,0,0,1,89,55l27.7,27.7-34,34ZM89,201a24,24,0,0,1-34-34l27.7-27.7,34,34Zm112,0a24.1,24.1,0,0,1-34,0l-27.7-27.7,34-34L201,167a24.1,24.1,0,0,1,0,34Z"/></svg>