<svg id="Flat" xmlns="http://www.w3.org/2000/svg" viewBox="0 0 256 256">
  <g opacity="0.2">
    <polygon points="32.002 96 224.002 96 128.002 32 32.002 96"/>
  </g>
  <g>
    <path d="M32.00244,168a8,8,0,0,0,0,16h192a8,8,0,0,0,0-16h-16V104h16a8.00005,8.00005,0,0,0,4.4375-14.65625l-96-64a8.00131,8.00131,0,0,0-8.875,0l-96,64A8.00005,8.00005,0,0,0,32.00244,104h16v64Zm112-64v64h-32V104Zm48,64h-32V104h32Zm-64-126.38477L197.58057,88H58.42432ZM64.00244,104h32v64h-32Z"/>
    <path d="M240.00244,200h-224a8,8,0,0,0,0,16h224a8,8,0,0,0,0-16Z"/>
  </g>
</svg>
