<svg id="Flat" xmlns="http://www.w3.org/2000/svg" viewBox="0 0 256 256">
  <g opacity="0.2">
    <polygon points="24.002 96 232.002 96 128.002 32 24.002 96"/>
  </g>
  <path d="M24.00244,104h24v64h-16a8,8,0,0,0,0,16h192a8,8,0,0,0,0-16h-16V104h24a8.0001,8.0001,0,0,0,4.19238-14.81348l-104-64a7.9998,7.9998,0,0,0-8.38476,0l-104,64A8.00011,8.00011,0,0,0,24.00244,104Zm40,0h32v64h-32Zm80,0v64h-32V104Zm48,64h-32V104h32Zm-64-126.60645L203.73779,88H52.26709ZM248.00244,208a8.00039,8.00039,0,0,1-8,8h-224a8,8,0,0,1,0-16h224A8.00039,8.00039,0,0,1,248.00244,208Z"/>
</svg>
