<svg id="Flat" xmlns="http://www.w3.org/2000/svg" viewBox="0 0 256 256">
  <g opacity="0.2">
    <rect x="48" y="56" width="40" height="144" rx="8"/>
  </g>
  <g opacity="0.2">
    <rect x="168" y="56" width="40" height="144" rx="8"/>
  </g>
  <path d="M232,72H216V64a16.01833,16.01833,0,0,0-16-16H176a16.01833,16.01833,0,0,0-16,16v56H96V64A16.01833,16.01833,0,0,0,80,48H56A16.01833,16.01833,0,0,0,40,64v8H24A16.01833,16.01833,0,0,0,8,88v80a16.01833,16.01833,0,0,0,16,16H40v8a16.01833,16.01833,0,0,0,16,16H80a16.01833,16.01833,0,0,0,16-16V136h64v56a16.01833,16.01833,0,0,0,16,16h24a16.01833,16.01833,0,0,0,16-16v-8h16a16.01833,16.01833,0,0,0,16-16V88A16.01833,16.01833,0,0,0,232,72ZM24,168V88H40v80Zm56,24H56V64H80l.00488,63.90088C80.00439,127.93457,80,127.9668,80,128c0,.03369.00439.06592.00488.09912l.00489,63.90039Zm120,0H176V64h24l.001,15.9751L200,80l.00146.0249.00733,95.80225c-.00147.0581-.00879.11426-.00879.17285s.00732.11523.00879.17383l.001,15.82568Zm32-24H216V88h16Z"/>
</svg>
