<svg id="Flat" xmlns="http://www.w3.org/2000/svg" viewBox="0 0 256 256">
  <path d="M59.94189,195.78809l.00055-.001c.03925.03955.07715.08008.11646.11963ZM59.94116,60.26025h0a95.99635,95.99635,0,0,0,.00128,135.52686,95.69615,95.69615,0,0,0,27.99872-67.7627A95.69657,95.69657,0,0,0,59.94116,60.26025ZM195.94183,195.78809l.117.11865c-.03931-.03955-.07721-.08008-.11646-.11963ZM195.9411,60.26025h0a95.99635,95.99635,0,0,0,.00128,135.52686,95.99946,95.99946,0,0,0-.00128-135.52686Z" opacity="0.2"/>
  <path d="M202.27844,200.7124a103.8042,103.8042,0,0,0,.0055-145.41894,7.43184,7.43184,0,0,0-1.32343-1.32959,103.80913,103.80913,0,0,0-145.9212.00049,7.41413,7.41413,0,0,0-1.32325,1.3291,103.8042,103.8042,0,0,0,.0055,145.41894,7.44163,7.44163,0,0,0,1.31219,1.31787,103.8092,103.8092,0,0,0,145.93262,0,7.44647,7.44647,0,0,0,1.31207-1.31787ZM40.36749,136H79.62872a87.17451,87.17451,0,0,1-19.6015,47.82861A87.59805,87.59805,0,0,1,40.36749,136ZM60.027,72.17139A87.17466,87.17466,0,0,1,79.62866,120H40.36749A87.60022,87.60022,0,0,1,60.027,72.17139ZM215.63251,120H176.37134A87.17466,87.17466,0,0,1,195.973,72.17139,87.60022,87.60022,0,0,1,215.63251,120Zm-55.32843,0H136V40.36768a87.61418,87.61418,0,0,1,48.67584,20.37158A103.0741,103.0741,0,0,0,160.30408,120ZM120,120H95.69592A103.0741,103.0741,0,0,0,71.32416,60.73926,87.61418,87.61418,0,0,1,120,40.36768ZM95.69592,136H120v79.63232a87.61692,87.61692,0,0,1-48.67572-20.37109A103.078,103.078,0,0,0,95.69592,136ZM136,136h24.30408a103.078,103.078,0,0,0,24.37164,59.26123A87.61692,87.61692,0,0,1,136,215.63232Zm40.37128,0h39.26123a87.59805,87.59805,0,0,1-19.65973,47.82861A87.17451,87.17451,0,0,1,176.37128,136Z"/>
</svg>
