<svg id="Flat" xmlns="http://www.w3.org/2000/svg" viewBox="0 0 256 256">
  <g opacity="0.2">
    <rect x="56" y="48" width="144" height="184" rx="16"/>
  </g>
  <g>
    <path d="M128,156a7.99977,7.99977,0,0,0,8-8V92a8,8,0,0,0-16,0v56A7.99977,7.99977,0,0,0,128,156Z"/>
    <circle cx="128" cy="184" r="12"/>
    <path d="M96,24h64a8,8,0,0,0,0-16H96a8,8,0,0,0,0,16Z"/>
    <path d="M184,40H72A24.0275,24.0275,0,0,0,48,64V216a24.0275,24.0275,0,0,0,24,24H184a24.0275,24.0275,0,0,0,24-24V64A24.0275,24.0275,0,0,0,184,40Zm8,176a8.00917,8.00917,0,0,1-8,8H72a8.00917,8.00917,0,0,1-8-8V64a8.00917,8.00917,0,0,1,8-8H184a8.00917,8.00917,0,0,1,8,8Z"/>
  </g>
</svg>
