<svg id="Flat" xmlns="http://www.w3.org/2000/svg" viewBox="0 0 256 256">
  <g opacity="0.2">
    <rect x="44" y="36" width="144" height="184" rx="16" transform="translate(244 12) rotate(90)"/>
  </g>
  <g>
    <path d="M240,88a7.99977,7.99977,0,0,0-8,8v64a8,8,0,0,0,16,0V96A7.99977,7.99977,0,0,0,240,88Z"/>
    <path d="M192,48H40A24.0275,24.0275,0,0,0,16,72V184a24.0275,24.0275,0,0,0,24,24H192a24.0275,24.0275,0,0,0,24-24V72A24.0275,24.0275,0,0,0,192,48Zm8,136a8.00917,8.00917,0,0,1-8,8H40a8.00917,8.00917,0,0,1-8-8V72a8.00917,8.00917,0,0,1,8-8H192a8.00917,8.00917,0,0,1,8,8Z"/>
    <path d="M134.3999,80.00049a7.99977,7.99977,0,0,0-8,8v80a8,8,0,0,0,16,0v-80A7.99977,7.99977,0,0,0,134.3999,80.00049Z"/>
    <path d="M97.6001,80.00049a7.99977,7.99977,0,0,0-8,8v80a8,8,0,0,0,16,0v-80A7.99977,7.99977,0,0,0,97.6001,80.00049Z"/>
    <path d="M60.7998,80.00049a7.99977,7.99977,0,0,0-8,8v80a8,8,0,0,0,16,0v-80A7.99977,7.99977,0,0,0,60.7998,80.00049Z"/>
    <path d="M171.2002,80.00049a7.99977,7.99977,0,0,0-8,8v80a8,8,0,0,0,16,0v-80A7.99977,7.99977,0,0,0,171.2002,80.00049Z"/>
  </g>
</svg>
