<svg id="Flat" xmlns="http://www.w3.org/2000/svg" viewBox="0 0 256 256">
  <g opacity="0.2">
    <rect x="56" y="48" width="144" height="184" rx="16"/>
  </g>
  <path d="M120,140V100a8,8,0,0,1,16,0v40a8,8,0,0,1-16,0ZM96,24h64a8,8,0,0,0,0-16H96a8,8,0,0,0,0,16ZM208,64V216a24.0275,24.0275,0,0,1-24,24H72a24.0275,24.0275,0,0,1-24-24V64A24.0275,24.0275,0,0,1,72,40H184A24.0275,24.0275,0,0,1,208,64Zm-16,0a8.00917,8.00917,0,0,0-8-8H72a8.00917,8.00917,0,0,0-8,8V216a8.00917,8.00917,0,0,0,8,8H184a8.00917,8.00917,0,0,0,8-8ZM128,164a12,12,0,1,0,12,12A12.01375,12.01375,0,0,0,128,164Z"/>
</svg>
