<svg id="Flat" xmlns="http://www.w3.org/2000/svg" viewBox="0 0 256 256">
  <g opacity="0.2">
    <rect x="52" y="36" width="144" height="184" rx="16" transform="translate(252 4) rotate(90)"/>
  </g>
  <path d="M116,128.00012v-40a8,8,0,1,1,16,0v40a8,8,0,0,1-16,0Zm132-40a7.99977,7.99977,0,0,0-8,8v64a8,8,0,1,0,16,0v-64A7.99977,7.99977,0,0,0,248,88.00012Zm-24-16v112a24.0275,24.0275,0,0,1-24,24H48a24.0275,24.0275,0,0,1-24-24v-112a24.0275,24.0275,0,0,1,24-24H200A24.0275,24.0275,0,0,1,224,72.00012Zm-16,0a8.00917,8.00917,0,0,0-8-8H48a8.00917,8.00917,0,0,0-8,8v112a8.00917,8.00917,0,0,0,8,8H200a8.00917,8.00917,0,0,0,8-8Zm-84,80a12,12,0,1,0,12,12A12,12,0,0,0,124,152.00012Z"/>
</svg>
