<svg xmlns="http://www.w3.org/2000/svg" viewBox="0 0 256 256"><g opacity="0.2"><rect x="52" y="36" width="144" height="184" rx="16" transform="translate(252 4) rotate(90)"/></g><path d="M256,96v64a8,8,0,0,1-16,0V96a8,8,0,0,1,16,0ZM224,72V184a24.1,24.1,0,0,1-24,24H48a24.1,24.1,0,0,1-24-24V72A24.1,24.1,0,0,1,48,48H200A24.1,24.1,0,0,1,224,72Zm-16,0a8,8,0,0,0-8-8H48a8,8,0,0,0-8,8V184a8,8,0,0,0,8,8H200a8,8,0,0,0,8-8Zm-68,48H119.8l11.6-29a8,8,0,1,0-14.8-6l-16,40a8,8,0,0,0,.8,7.5A7.9,7.9,0,0,0,108,136h20.2l-11.6,29a7.9,7.9,0,0,0,4.4,10.4,8,8,0,0,0,3,.6,7.9,7.9,0,0,0,7.4-5l16-40a8,8,0,0,0-.8-7.5A7.9,7.9,0,0,0,140,120Z"/></svg>