<svg id="Flat" xmlns="http://www.w3.org/2000/svg" viewBox="0 0 256 256">
  <g opacity="0.2">
    <rect x="44" y="36.00452" width="144" height="184" rx="16" transform="translate(244.00452 12.00452) rotate(90)"/>
  </g>
  <g>
    <path d="M116,136.00012a7.99977,7.99977,0,0,0,8-8v-40a8,8,0,1,0-16,0v40A7.99977,7.99977,0,0,0,116,136.00012Z"/>
    <circle cx="116" cy="164.00012" r="12"/>
    <path d="M240,88.00452a7.99977,7.99977,0,0,0-8,8v64a8,8,0,0,0,16,0v-64A7.99977,7.99977,0,0,0,240,88.00452Z"/>
    <path d="M192,48.00452H40a24.0275,24.0275,0,0,0-24,24v112a24.0275,24.0275,0,0,0,24,24H192a24.0275,24.0275,0,0,0,24-24v-112A24.0275,24.0275,0,0,0,192,48.00452Zm8,136a8.00917,8.00917,0,0,1-8,8H40a8.00917,8.00917,0,0,1-8-8v-112a8.00916,8.00916,0,0,1,8-8H192a8.00916,8.00916,0,0,1,8,8Z"/>
  </g>
</svg>
