<svg id="Flat" xmlns="http://www.w3.org/2000/svg" viewBox="0 0 256 256">
  <g opacity="0.2">
    <path d="M56,104.02075a72.00006,72.00006,0,0,1,72.54593-71.998C168.24536,32.31709,200,65.2241,200,104.92462v15.09613c0,35.81563,7.514,56.59893,14.1321,67.95814a7.99893,7.99893,0,0,1-6.90073,12.04186H48.76058a7.999,7.999,0,0,1-6.89972-12.04359C48.48245,176.61757,56,155.83456,56,120.02075Z"/>
  </g>
  <g>
    <path d="M159.9248,224.04126h-64a8,8,0,1,0,0,16h64a8,8,0,0,0,0-16Z"/>
    <path d="M213.91992,210.63891l-160-176A8.0006,8.0006,0,1,0,42.08008,45.40259L58.83154,63.82934A79.52652,79.52652,0,0,0,48,104.04126v16c0,34.33105-7.09668,53.71387-13.0498,63.92773a15.998,15.998,0,0,0,13.81054,24.07227H189.93335l12.14673,13.36133a8.0006,8.0006,0,1,0,11.83984-10.76368ZM48.77344,192.02661C55.71973,180.10766,64,157.94458,64,120.04126v-16a63.69364,63.69364,0,0,1,6.26221-27.63819l105.124,115.63624Z"/>
    <path d="M96.44336,48.3479a64.38727,64.38727,0,0,1,32.043-8.30469C163.50781,40.303,192,69.41821,192,104.94556v15.0957c0,17.76172,1.80762,33.66211,5.37207,47.25879a7.99969,7.99969,0,0,0,15.47656-4.05664C209.63184,150.97,208,136.43481,208,120.04126v-15.0957c0-44.28418-35.61621-80.57715-79.39551-80.90235A80.41558,80.41558,0,0,0,88.541,34.43579,7.9999,7.9999,0,1,0,96.44336,48.3479Z"/>
  </g>
</svg>
