<svg id="Flat" xmlns="http://www.w3.org/2000/svg" viewBox="0 0 256 256">
  <path d="M207.01636,192H48.98364A7.999,7.999,0,0,1,42.103,179.95654C48.7063,168.59668,56.20313,147.81372,56.20313,112a71.80118,71.80118,0,1,1,143.6018,0c0,35.81567,7.49317,56.59888,14.093,67.958A7.99917,7.99917,0,0,1,207.01636,192Z" opacity="0.2"/>
  <path d="M168,224a8.00039,8.00039,0,0,1-8,8H96a8,8,0,0,1,0-16h64A8.00039,8.00039,0,0,1,168,224Zm52.81445-48.06055A15.99808,15.99808,0,0,1,207.0166,200H48.9834a15.99886,15.99886,0,0,1-13.79688-24.06445C41.124,165.7207,48.20313,146.33594,48.20313,112a79.80118,79.80118,0,1,1,159.60156,0C207.80469,146.33789,214.87988,165.72363,220.81445,175.93945ZM207.0166,184c-6.959-11.93945-15.21191-34.09961-15.21191-72a63.70659,63.70659,0,0,0-63.31543-63.998c-.16211-.001-.3252-.002-.48731-.002a63.9,63.9,0,0,0-63.79882,64c0,37.90039-8.25684,60.06055-15.18458,71.97656ZM228.52734,62.56836a112.28362,112.28362,0,0,0-40.82421-45.34473,7.9996,7.9996,0,1,0-8.54,13.5293,96.29849,96.29849,0,0,1,35.01074,38.88574,8.0002,8.0002,0,1,0,14.35351-7.07031ZM41.82617,69.63867A96.29849,96.29849,0,0,1,76.83691,30.75293a7.99959,7.99959,0,1,0-8.54-13.5293A112.28357,112.28357,0,0,0,27.47266,62.56836a8.0002,8.0002,0,1,0,14.35351,7.07031Z"/>
</svg>
