<svg xmlns="http://www.w3.org/2000/svg" viewBox="0 0 256 256"><g opacity="0.2"><path d="M56.2,104a71.8,71.8,0,0,1,72.3-72c39.6.3,71.3,33.2,71.3,72.9V112c0,35.8,7.5,56.6,14.1,67.9A8,8,0,0,1,207,192H49a8,8,0,0,1-6.9-12.1c6.6-11.3,14.1-32.1,14.1-67.9Z"/></g><path d="M220.8,175.9c-5.9-10.2-13-29.6-13-63.9v-7.1c0-44.3-35.5-80.6-79.2-80.9H128a79.9,79.9,0,0,0-79.8,80v8c0,34.3-7.1,53.7-13,63.9A16,16,0,0,0,49,200H88a40,40,0,0,0,80,0h39a15.9,15.9,0,0,0,13.9-8A16.2,16.2,0,0,0,220.8,175.9ZM128,224a24.1,24.1,0,0,1-24-24h48A24.1,24.1,0,0,1,128,224ZM49,184c6.9-12,15.2-34.1,15.2-72v-8A63.8,63.8,0,0,1,128,40h.5c34.9.2,63.3,29.4,63.3,64.9V112c0,37.9,8.3,60,15.2,72Z"/></svg>