<svg xmlns="http://www.w3.org/2000/svg" viewBox="0 0 256 256"><path d="M207,192H49a8,8,0,0,1-6.9-12c6.6-11.4,14.1-32.2,14.1-68a71.8,71.8,0,1,1,143.6,0c0,35.8,7.5,56.6,14.1,68A8,8,0,0,1,207,192Z" opacity="0.2"/><path d="M168,224a8,8,0,0,1-8,8H96a8,8,0,0,1,0-16h64A8,8,0,0,1,168,224Zm52.8-48.1a16.2,16.2,0,0,1,.1,16.1,15.9,15.9,0,0,1-13.9,8H49a15.9,15.9,0,0,1-13.9-8,16.2,16.2,0,0,1,.1-16.1c5.9-10.2,13-29.6,13-63.9a79.8,79.8,0,1,1,159.6,0C207.8,146.3,214.9,165.7,220.8,175.9ZM207,184c-6.9-11.9-15.2-34.1-15.2-72a63.6,63.6,0,0,0-18.5-45.1A62.9,62.9,0,0,0,128.5,48H128a63.8,63.8,0,0,0-63.8,64c0,37.9-8.3,60.1-15.2,72ZM228.5,62.6a111.7,111.7,0,0,0-40.8-45.4,8,8,0,0,0-8.5,13.6,97,97,0,0,1,35,38.8,7.9,7.9,0,0,0,7.2,4.5,9.3,9.3,0,0,0,3.5-.8A8,8,0,0,0,228.5,62.6Zm-186.7,7a97,97,0,0,1,35-38.8,8,8,0,0,0-8.5-13.6A111.7,111.7,0,0,0,27.5,62.6a8,8,0,0,0,3.6,10.7,9.3,9.3,0,0,0,3.5.8A7.9,7.9,0,0,0,41.8,69.6Z"/></svg>