<svg xmlns="http://www.w3.org/2000/svg" viewBox="0 0 256 256"><g opacity="0.2"><path d="M56.2,104a71.8,71.8,0,0,1,72.3-72c39.6.3,71.3,33.2,71.3,72.9V112c0,35.8,7.5,56.6,14.1,67.9A8,8,0,0,1,207,192H49a8,8,0,0,1-6.9-12.1c6.6-11.3,14.1-32.1,14.1-67.9Z"/></g><path d="M53.9,34.6A8,8,0,0,0,42.1,45.4L58.9,63.9A80.2,80.2,0,0,0,48.2,104v8c0,34.3-7.1,53.7-13,63.9A16,16,0,0,0,49,200H88a40,40,0,0,0,80,0h14.6l19.5,21.4A8,8,0,0,0,208,224a8.2,8.2,0,0,0,5.4-2.1,7.9,7.9,0,0,0,.5-11.3ZM128,224a24.1,24.1,0,0,1-24-24h48A24.1,24.1,0,0,1,128,224ZM49,184c6.9-11.9,15.2-34.1,15.2-72v-8a63.2,63.2,0,0,1,6.2-27.5L168.1,184ZM85.6,45.4a8.1,8.1,0,0,1,2.9-11A80.5,80.5,0,0,1,128.6,24c43.7.3,79.2,36.6,79.2,80.9V112c0,21.9,2.8,40.1,8.4,54.4a8,8,0,0,1-4.5,10.4,9.3,9.3,0,0,1-2.9.5,7.8,7.8,0,0,1-7.4-5.1c-6.4-16.1-9.6-36.3-9.6-60.2v-7.1c0-35.5-28.4-64.6-63.3-64.9a63.7,63.7,0,0,0-32,8.3A8,8,0,0,1,85.6,45.4Z"/></svg>