<svg id="Flat" xmlns="http://www.w3.org/2000/svg" viewBox="0 0 256 256">
  <g opacity="0.2">
    <path d="M56.20305,103.97925a71.899,71.899,0,0,1,72.34535-71.998c39.58967.29432,71.25651,33.20133,71.25651,72.90185v7.09613c0,35.81563,7.49325,56.59893,14.093,67.95814a7.999,7.999,0,0,1-6.88165,12.04186H48.98365A7.99908,7.99908,0,0,1,42.103,179.93566c6.60328-11.35959,14.1-32.1426,14.1-67.95641Z"/>
  </g>
  <path d="M53.91992,34.61816A8.0006,8.0006,0,1,0,42.08008,45.38184L58.93164,63.91846A79.70131,79.70131,0,0,0,48.20312,104v8c0,34.33594-7.0791,53.7207-13.0166,63.93555A15.99886,15.99886,0,0,0,48.9834,200H88a40,40,0,0,0,80,0h14.64209l19.438,21.38184a8.0006,8.0006,0,1,0,11.83984-10.76368ZM128,224a24.0275,24.0275,0,0,1-24-24h48A24.0275,24.0275,0,0,1,128,224ZM49.01855,183.97656C55.94629,172.06055,64.20312,149.90039,64.20312,112v-8a63.87325,63.87325,0,0,1,6.17432-27.49121l97.71631,107.488ZM85.56836,45.36328a7.99916,7.99916,0,0,1,2.97852-10.91406A79.96341,79.96341,0,0,1,128.6084,24.002c43.66894.32422,79.19629,36.61719,79.19629,80.90235V112c0,21.85059,2.84179,40.14844,8.44531,54.38672a8.00007,8.00007,0,1,1-14.88867,5.85937c-6.34082-16.1123-9.55664-36.38183-9.55664-60.24609v-7.0957c0-35.52832-28.40332-64.64356-63.31543-64.90235A63.59917,63.59917,0,0,0,96.48242,48.3418,7.99941,7.99941,0,0,1,85.56836,45.36328Z"/>
</svg>
