<svg id="Flat" xmlns="http://www.w3.org/2000/svg" viewBox="0 0 256 256">
  <g opacity="0.2">
    <path d="M200.02432,123.50611c.4684,33.54541,7.64934,53.31876,14.02985,64.33018a8.01238,8.01238,0,0,1-6.81012,12.176H48.73648c-6.07846,0-10.104-6.55945-7.01987-11.79737C48.37277,176.91049,56,156.08647,56,120.01233a72.0209,72.0209,0,0,1,80.37333-71.52645C173.42255,52.66527,199.50377,86.22554,200.02432,123.50611Z"/>
  </g>
  <g>
    <path d="M103.99316,24.012h48a8,8,0,0,0,0-16h-48a8,8,0,0,0,0,16Z"/>
    <path d="M220.97559,183.82544c-5.66016-9.76856-12.501-28.1836-12.95215-60.43067-.59668-42.7539-31.01465-78.376-70.75391-82.85839A80.01956,80.01956,0,0,0,48,120.012c0,34.51953-7.166,53.93457-13.17676,64.14453a15.50858,15.50858,0,0,0-.06933,15.73535A16.14446,16.14446,0,0,0,48.73633,208.012h40.0686a40.004,40.004,0,0,0,78.39014,0h40.04907a15.74644,15.74644,0,0,0,13.79688-7.94433A16.27381,16.27381,0,0,0,220.97559,183.82544ZM128,224.012a24.03824,24.03824,0,0,1-22.62378-16h45.24756A24.03824,24.03824,0,0,1,128,224.012Zm-79.23535-32C55.75293,180.02661,64,157.85864,64,120.012a64.02239,64.02239,0,0,1,71.47656-63.57715c31.75293,3.583,56.06348,32.46485,56.54883,67.18262.499,35.70313,8.49023,56.80957,15.10645,68.22949a.39.39,0,0,1,.06347.165Z"/>
  </g>
</svg>
