<svg id="Flat" xmlns="http://www.w3.org/2000/svg" viewBox="0 0 256 256">
  <g opacity="0.2">
    <path d="M55.99674,104A72.00377,72.00377,0,0,1,128.55,32.002c39.70343.29432,71.46127,33.20133,71.46127,72.90185V112c0,35.81563,7.51478,56.59893,14.13351,67.95814A7.99892,7.99892,0,0,1,207.24334,192H48.75659a7.999,7.999,0,0,1-6.90041-12.04359C48.47844,168.59682,55.99674,147.81381,55.99674,112Z"/>
  </g>
  <path d="M53.91992,34.63891A8.0006,8.0006,0,1,0,42.08008,45.40259L58.92432,63.9314a79.69384,79.69384,0,0,0-10.7212,40.06884v8c0,34.33594-7.0791,53.72071-13.0166,63.93555A15.99885,15.99885,0,0,0,48.9834,200.00024H182.62354l19.45654,21.40235a8.0006,8.0006,0,1,0,11.83984-10.76368Zm-4.90137,149.3379c6.92774-11.916,15.18457-34.0752,15.18457-71.97657v-8a63.87205,63.87205,0,0,1,6.16749-27.478L168.0752,183.99731ZM168,224.00024a8.00039,8.00039,0,0,1-8,8H96a8,8,0,1,1,0-16h64A8.00039,8.00039,0,0,1,168,224.00024ZM85.55762,45.37231a7.99962,7.99962,0,0,1,2.97558-10.915A79.40256,79.40256,0,0,1,128.6084,24.0022c43.66894.32421,79.19629,36.61621,79.19629,80.90136v7.09668c0,21.86621,2.8457,40.17481,8.459,54.41895a8.00024,8.00024,0,1,1-14.88672,5.86523c-6.35156-16.11914-9.57226-36.40234-9.57226-60.28418v-7.09668c0-35.52734-28.40332-64.64258-63.31543-64.90136a63.56072,63.56072,0,0,0-32.0166,8.3457A7.999,7.999,0,0,1,85.55762,45.37231Z"/>
</svg>
