<svg id="Flat" xmlns="http://www.w3.org/2000/svg" viewBox="0 0 256 256">
  <path d="M207.01636,192H48.98364A7.999,7.999,0,0,1,42.103,179.95654C48.7063,168.59668,56.20313,147.814,56.20313,112v-8A71.899,71.899,0,0,1,128.54834,32.002c39.58984.29444,71.25659,33.20117,71.25659,72.90186V112c0,35.81543,7.49317,56.59912,14.093,67.958A7.99917,7.99917,0,0,1,207.01636,192Z" opacity="0.2"/>
  <path d="M220.81445,175.93945C214.87988,165.72363,207.80469,146.33789,207.80469,112v-7.0957c0-44.28516-35.52735-80.57813-79.19629-80.90235-.2041-.001-.40625-.002-.61035-.002a79.89888,79.89888,0,0,0-79.79492,80v8c0,34.33594-7.07911,53.7207-13.01661,63.93555A15.99886,15.99886,0,0,0,48.9834,200H88a40,40,0,0,0,80,0h39.0166a15.99808,15.99808,0,0,0,13.79785-24.06055ZM128,224a24.0275,24.0275,0,0,1-24-24h48A24.0275,24.0275,0,0,1,128,224ZM49.01855,183.97656C55.94629,172.06055,64.20313,149.90039,64.20313,112v-8A63.9,63.9,0,0,1,128.002,40c.16211,0,.3252.001.48731.002,34.91211.25879,63.31543,29.374,63.31543,64.90235V112c0,37.90039,8.25293,60.06055,15.21191,72ZM156,144a8.00039,8.00039,0,0,1-8,8H108a7.99925,7.99925,0,0,1-6.14551-13.12109L130.91992,104H108a8,8,0,0,1,0-16h40a7.99925,7.99925,0,0,1,6.14551,13.12109L125.08008,136H148A8.00039,8.00039,0,0,1,156,144Z"/>
</svg>
