<svg id="Flat" xmlns="http://www.w3.org/2000/svg" viewBox="0 0 256 256">
  <g opacity="0.2">
    <path d="M200.02432,123.50611c.4684,33.54541,7.64934,53.31876,14.02985,64.33018a8.01238,8.01238,0,0,1-6.81012,12.176H48.73648c-6.07846,0-10.104-6.55945-7.01987-11.79737C48.37277,176.91049,56,156.08647,56,120.01233a72.0209,72.0209,0,0,1,80.37333-71.52645C173.42255,52.66527,199.50377,86.22554,200.02432,123.50611Z"/>
  </g>
  <g>
    <path d="M103.99316,24.0127h48a8,8,0,0,0,0-16h-48a8,8,0,0,0,0,16Z"/>
    <path d="M213.91992,210.61816l-160-176A8.0006,8.0006,0,1,0,42.08008,45.38184l22.967,25.26367A79.62074,79.62074,0,0,0,48,120.0127c0,34.51855-7.166,53.93359-13.17676,64.14355a15.50859,15.50859,0,0,0-.06933,15.73535,16.14452,16.14452,0,0,0,13.98242,8.1211h40.0686a40.004,40.004,0,0,0,78.39014,0h22.7312l12.15381,13.36914a8.0006,8.0006,0,1,0,11.83984-10.76368ZM128,224.0127a24.03825,24.03825,0,0,1-22.62378-16h45.24756A24.03825,24.03825,0,0,1,128,224.0127Zm-79.23633-32C55.752,180.02734,64,157.8584,64,120.0127A63.6946,63.6946,0,0,1,76.00464,82.699L175.38086,192.0127Z"/>
    <path d="M105.50293,60.07617a64.02965,64.02965,0,0,1,29.97363-3.64062c31.75293,3.582,56.06348,32.46386,56.54883,67.18164.22656,16.30859,2.02734,31,5.35059,43.66894a8.00019,8.00019,0,0,0,15.47656-4.06054c-2.99512-11.416-4.62012-24.81739-4.8291-39.83106-.59668-42.75488-31.01465-78.376-70.75391-82.85742a79.88063,79.88063,0,0,0-37.3916,4.56055,7.99994,7.99994,0,1,0,5.625,14.97851Z"/>
  </g>
</svg>
