<svg xmlns="http://www.w3.org/2000/svg" viewBox="0 0 256 256"><path d="M207,192H49a8,8,0,0,1-6.9-12c6.6-11.4,14.1-32.2,14.1-68v-8a71.9,71.9,0,0,1,72.3-72c39.6.3,71.3,33.2,71.3,72.9V112c0,35.8,7.5,56.6,14.1,68A8,8,0,0,1,207,192Z" opacity="0.2"/><path d="M168,224a8,8,0,0,1-8,8H96a8,8,0,0,1,0-16h64A8,8,0,0,1,168,224Zm52.9-32a15.9,15.9,0,0,1-13.9,8H49a15.9,15.9,0,0,1-13.9-8,16.2,16.2,0,0,1,.1-16.1c5.9-10.2,13-29.6,13-63.9v-8A79.9,79.9,0,0,1,128,24h.6c43.7.3,79.2,36.6,79.2,80.9V112c0,34.3,7.1,53.7,13,63.9A16.2,16.2,0,0,1,220.9,192ZM207,184c-6.9-11.9-15.2-34.1-15.2-72v-7.1c0-35.5-28.4-64.6-63.3-64.9H128a63.8,63.8,0,0,0-63.8,64v8c0,37.9-8.3,60.1-15.2,72Zm-59-48H125.1l29-34.9a7.8,7.8,0,0,0,1.1-8.5A7.9,7.9,0,0,0,148,88H108a8,8,0,0,0,0,16h22.9l-29,34.9a7.8,7.8,0,0,0-1.1,8.5A7.9,7.9,0,0,0,108,152h40a8,8,0,0,0,0-16Z"/></svg>