<svg xmlns="http://www.w3.org/2000/svg" viewBox="0 0 256 256"><path d="M207,192H49a8,8,0,0,1-6.9-12c6.6-11.4,14.1-32.2,14.1-68v-8a71.9,71.9,0,0,1,72.3-72c39.6.3,71.3,33.2,71.3,72.9V112c0,35.8,7.5,56.6,14.1,68A8,8,0,0,1,207,192Z" opacity="0.2"/><path d="M220.8,175.9c-5.9-10.2-13-29.6-13-63.9v-7.1c0-44.3-35.5-80.6-79.2-80.9H128a79.9,79.9,0,0,0-79.8,80v8c0,34.3-7.1,53.7-13,63.9a16.2,16.2,0,0,0-.1,16.1A15.9,15.9,0,0,0,49,200H88a40,40,0,0,0,80,0h39a15.9,15.9,0,0,0,13.9-8A16.2,16.2,0,0,0,220.8,175.9ZM128,224a24.1,24.1,0,0,1-24-24h48A24.1,24.1,0,0,1,128,224ZM49,184c6.9-11.9,15.2-34.1,15.2-72v-8A63.8,63.8,0,0,1,128,40h.5c34.9.3,63.3,29.4,63.3,64.9V112c0,37.9,8.3,60.1,15.2,72Zm107-40a8,8,0,0,1-8,8H108a7.9,7.9,0,0,1-7.2-4.6,7.8,7.8,0,0,1,1.1-8.5l29-34.9H108a8,8,0,0,1,0-16h40a7.9,7.9,0,0,1,7.2,4.6,7.8,7.8,0,0,1-1.1,8.5l-29,34.9H148A8,8,0,0,1,156,144Z"/></svg>