<svg id="Flat" xmlns="http://www.w3.org/2000/svg" viewBox="0 0 256 256">
  <g opacity="0.2">
    <path d="M55.99674,104A72.00377,72.00377,0,0,1,128.55,32.002c39.70343.29432,71.46127,33.20133,71.46127,72.90185V112c0,35.81563,7.51478,56.59893,14.13351,67.95814A7.99892,7.99892,0,0,1,207.24334,192H48.75659a7.999,7.999,0,0,1-6.90041-12.04359C48.47844,168.59682,55.99674,147.81381,55.99674,112Z"/>
  </g>
  <path d="M168,224.00024a8.00039,8.00039,0,0,1-8,8H96a8,8,0,1,1,0-16h64A8.00039,8.00039,0,0,1,168,224.00024Zm52.85352-32.00293a15.80077,15.80077,0,0,1-13.83692,8.00293H48.9834a15.99885,15.99885,0,0,1-13.79688-24.06445c5.9375-10.21484,13.0166-29.59961,13.0166-63.93555v-8a79.89891,79.89891,0,0,1,79.79493-80c.2041,0,.40625.001.61035.002,43.66894.32421,79.19629,36.61621,79.19629,80.90136v7.09668c0,34.33789,7.07519,53.72364,13.00976,63.93946A15.87,15.87,0,0,1,220.85352,191.99731Zm-13.83692-7.99707c-6.959-11.93945-15.21191-34.09961-15.21191-72v-7.09668c0-35.52734-28.40332-64.64258-63.31543-64.90136-.16211-.001-.3252-.002-.48731-.002a63.90008,63.90008,0,0,0-63.79883,64v8c0,37.90039-8.25683,60.06055-15.18457,71.97657Z"/>
</svg>
