<svg id="Flat" xmlns="http://www.w3.org/2000/svg" viewBox="0 0 256 256">
  <path d="M207.01636,192H48.98364A7.999,7.999,0,0,1,42.103,179.95654C48.7063,168.59668,56.20313,147.814,56.20313,112v-8A71.89912,71.89912,0,0,1,128.54834,32.002c39.58984.29444,71.25659,33.20117,71.25659,72.90186V112c0,35.81543,7.49317,56.59912,14.093,67.958A7.99917,7.99917,0,0,1,207.01636,192Z" opacity="0.2"/>
  <path d="M168,224a8.00039,8.00039,0,0,1-8,8H96a8,8,0,0,1,0-16h64A8.00039,8.00039,0,0,1,168,224Zm52.85352-32.00293A15.80079,15.80079,0,0,1,207.0166,200H48.9834a15.99886,15.99886,0,0,1-13.79688-24.06445C41.124,165.7207,48.20313,146.33594,48.20313,112v-8a79.89888,79.89888,0,0,1,79.79492-80c.2041,0,.40625.001.61035.002,43.66894.32422,79.19629,36.61719,79.19629,80.90235V112c0,34.33789,7.07519,53.72363,13.00976,63.93945A15.87,15.87,0,0,1,220.85352,191.99707ZM207.0166,184c-6.959-11.93945-15.21191-34.09961-15.21191-72v-7.0957c0-35.52832-28.40332-64.64356-63.31543-64.90235-.16211-.001-.3252-.002-.48731-.002a63.9,63.9,0,0,0-63.79882,64v8c0,37.90039-8.25684,60.06055-15.18458,71.97656ZM148,136H125.08008l29.06543-34.87891A7.99925,7.99925,0,0,0,148,88H108a8,8,0,0,0,0,16h22.91992l-29.06543,34.87891A7.99925,7.99925,0,0,0,108,152h40a8,8,0,0,0,0-16Z"/>
</svg>
