<svg id="Flat" xmlns="http://www.w3.org/2000/svg" viewBox="0 0 256 256">
  <g opacity="0.2">
    <path d="M56,104.02075a72.00006,72.00006,0,0,1,72.54593-71.998C168.24536,32.31709,200,65.2241,200,104.92462v15.09613c0,35.81563,7.514,56.59893,14.1321,67.95814a7.99893,7.99893,0,0,1-6.90073,12.04186H48.76058a7.999,7.999,0,0,1-6.89972-12.04359C48.48245,176.61757,56,155.83456,56,120.02075Z"/>
  </g>
  <g>
    <path d="M221.044,183.95141C215.09375,173.73755,208,154.35571,208,120.02075v-15.0957c0-44.28516-35.61621-80.57813-79.39453-80.90235-.20508-.001-.40723-.002-.61133-.002a79.99928,79.99928,0,0,0-79.99414,80v16c0,34.33106-7.09668,53.71387-13.0498,63.92676a15.999,15.999,0,0,0,13.81054,24.07324H207.23145a15.99861,15.99861,0,0,0,13.8125-24.06934ZM48.77246,192.00513C55.71973,180.08813,64,157.92505,64,120.02075v-16a64.00042,64.00042,0,0,1,63.99707-64c.16309,0,.32715.001.48926.002C163.50781,40.28149,192,69.39673,192,104.92505v15.0957c0,37.90625,8.27637,60.06836,15.23145,72Z"/>
    <path d="M159.9248,224.02075h-64a8,8,0,0,0,0,16h64a8,8,0,0,0,0-16Z"/>
  </g>
</svg>
