<svg xmlns="http://www.w3.org/2000/svg" viewBox="0 0 256 256"><path d="M152,80a24,24,0,1,1-24-24A23.9,23.9,0,0,1,152,80ZM40,152a24,24,0,1,0,24,24A23.9,23.9,0,0,0,40,152Zm176,0a24,24,0,1,0,24,24A23.9,23.9,0,0,0,216,152Z" opacity="0.2"/><path d="M221.1,144.4A97,97,0,0,0,181,88h59a8,8,0,0,0,0-16H159a32,32,0,0,0-62,0H16a8,8,0,0,0,0,16H75a97,97,0,0,0-40.1,56.4A32,32,0,1,0,51.1,146,80.5,80.5,0,0,1,99,93.4a31.9,31.9,0,0,0,58,0A80.5,80.5,0,0,1,204.9,146a32,32,0,1,0,16.2-1.6ZM56,176a16,16,0,1,1-16-16A16,16,0,0,1,56,176Zm72-80a16,16,0,1,1,16-16A16,16,0,0,1,128,96Zm88,96a16,16,0,1,1,16-16A16,16,0,0,1,216,192Z"/></svg>