<svg id="Flat" xmlns="http://www.w3.org/2000/svg" viewBox="0 0 256 256">
  <g opacity="0.2">
    <circle cx="52" cy="160" r="40"/>
  </g>
  <g opacity="0.2">
    <circle cx="204" cy="160" r="40"/>
  </g>
  <path d="M203.99975,112a47.7705,47.7705,0,0,0-15.79443,2.68237L175.84155,92.20264l-.019-.03492L164.73022,72h19.26953a8,8,0,0,0,0-16H151.2a7.99969,7.99969,0,0,0-7.00977,11.85547L155.26977,88H101.53L86.20971,60.14453A8.00017,8.00017,0,0,0,79.2,56H51.99975a8,8,0,0,0,0,16H74.46948L87.38989,95.49194,72.58227,116.64575a48.15264,48.15264,0,1,0,13.09522,9.19312L95.9834,111.11621,124.99,163.85547a8.00009,8.00009,0,1,0,14.01953-7.71094L110.33008,104h53.7395l10.12793,18.41406A47.96118,47.96118,0,1,0,203.99975,112Zm-120,48a32.012,32.012,0,1,1-20.78784-29.96777L45.446,155.41211a8,8,0,1,0,13.10742,9.17578l17.75464-25.364A31.85109,31.85109,0,0,1,83.99975,160Zm120,32a31.97745,31.97745,0,0,1-21.92968-55.272L196.99,163.85547a8.00009,8.00009,0,1,0,14.01953-7.71094L196.0769,128.99414A32.001,32.001,0,1,1,203.99975,192Z"/>
</svg>
