<svg id="Flat" xmlns="http://www.w3.org/2000/svg" viewBox="0 0 256 256">
  <path d="M248,160a40,40,0,1,1-40-40A40.0001,40.0001,0,0,1,248,160ZM48,120a40,40,0,1,0,40,40A40.0001,40.0001,0,0,0,48,120Z" opacity="0.2"/>
  <path d="M208,112a47.75159,47.75159,0,0,0-16.93359,3.09375L165.92871,72H192a8.00917,8.00917,0,0,1,8,8,8,8,0,0,0,16,0,24.02718,24.02718,0,0,0-24-24H152a7.99957,7.99957,0,0,0-6.91016,12.03076L156.73853,88H99.26147L82.91016,59.96924A7.999,7.999,0,0,0,76,56H48a8,8,0,0,0,0,16H71.40527L85.12134,95.51318,69.41113,117.05811a48.13677,48.13677,0,1,0,12.918,9.44018l11.59278-15.89844,31.168,53.43091a7.99983,7.99983,0,1,0,13.82032-8.06152L108.59473,104h57.477l11.18432,19.17285A47.96931,47.96931,0,1,0,208,112ZM48,192a32,32,0,1,1,11.78564-61.74121L41.53613,155.28662a7.99985,7.99985,0,1,0,12.92774,9.42676L72.71,139.69043A31.983,31.983,0,0,1,48,192Zm160,0a31.98219,31.98219,0,0,1-22.5127-54.71631l15.60254,26.74707a7.99983,7.99983,0,1,0,13.82032-8.06152l-15.6084-26.75781A31.99717,31.99717,0,1,1,208,192Z"/>
</svg>
