<svg xmlns="http://www.w3.org/2000/svg" viewBox="0 0 256 256"><g opacity="0.2"><polygon points="120 32 184 80 120 128 120 32"/></g><g opacity="0.2"><polygon points="120 128 184 176 120 224 120 128"/></g><path d="M188.8,169.6,133.3,128l55.5-41.6a8,8,0,0,0,0-12.8l-64-48a8,8,0,0,0-8.4-.7A7.9,7.9,0,0,0,112,32v80L60.8,73.6a8,8,0,0,0-9.6,12.8L106.7,128,51.2,169.6A8,8,0,0,0,56,184a7.7,7.7,0,0,0,4.8-1.6L112,144v80a8.2,8.2,0,0,0,4.4,7.2,9.4,9.4,0,0,0,3.6.8,7.7,7.7,0,0,0,4.8-1.6l64-48a8,8,0,0,0,0-12.8ZM128,48l42.7,32L128,112Zm0,160V144l42.7,32Z"/></svg>