<svg xmlns="http://www.w3.org/2000/svg" viewBox="0 0 256 256"><g opacity="0.2"><polygon points="120 32 184 80 120 128 120 32"/></g><g opacity="0.2"><polygon points="120 128 184 176 120 224 120 128"/></g><path d="M214,210.6l-31.4-34.5h0l-31.4-34.5h0L54,34.6A8,8,0,0,0,42.1,45.4L113,123.3,51.2,169.6A8,8,0,0,0,56,184a7.7,7.7,0,0,0,4.8-1.6L112,144v80a8.1,8.1,0,0,0,4.5,7.2,8.5,8.5,0,0,0,3.5.8,7.7,7.7,0,0,0,4.8-1.6l50.9-38.1,26.4,29.1A8.2,8.2,0,0,0,208,224a7.8,7.8,0,0,0,5.4-2.1A8,8,0,0,0,214,210.6ZM128,208V144l11.8,8.8,25,27.6Z"/><path d="M120,79.6a8,8,0,0,0,8-8V48l42.7,32-25,18.7a8,8,0,0,0,4.8,14.4,7.7,7.7,0,0,0,4.8-1.6l33.5-25.1a8,8,0,0,0,0-12.8l-64-48A8,8,0,0,0,112,32V71.6A8,8,0,0,0,120,79.6Z"/></svg>