<svg id="Flat" xmlns="http://www.w3.org/2000/svg" viewBox="0 0 256 256">
  <g opacity="0.2">
    <polygon points="119.971 32.003 183.971 80.003 119.971 128.003 119.971 32.003"/>
  </g>
  <g opacity="0.2">
    <polygon points="119.971 128 183.971 176 119.971 224 119.971 128"/>
  </g>
  <g>
    <path d="M213.92529,210.61865l-31.39154-34.53076-.00793-.00867-31.35767-34.49353-.02136-.02343L53.92529,34.61865a7.99991,7.99991,0,1,0-11.83886,10.7627l70.84136,77.92553-61.7276,46.29566a7.9998,7.9998,0,1,0,9.59961,12.7998L112,144.0022v80.00024a7.99975,7.99975,0,0,0,12.7998,6.3999l50.83033-38.12292,26.4563,29.10193a7.99991,7.99991,0,0,0,11.83886-10.7627ZM128,208.00244v-64l11.76013,8.82007,25.05939,27.56519Z"/>
    <path d="M120,79.62207a7.99977,7.99977,0,0,0,8-8V48.00244l42.6665,32L145.67627,98.74561a7.9998,7.9998,0,1,0,9.59961,12.7998L188.7998,86.40234a7.9995,7.9995,0,0,0,0-12.7998l-64-48A8,8,0,0,0,112,32.00244V71.62207A7.99977,7.99977,0,0,0,120,79.62207Z"/>
  </g>
</svg>
