<svg id="Flat" xmlns="http://www.w3.org/2000/svg" viewBox="0 0 256 256">
  <g opacity="0.2">
    <polygon points="120 32.003 184 80.003 120 128.003 120 32.003"/>
  </g>
  <g opacity="0.2">
    <polygon points="120 128.003 184 176.003 120 224.003 120 128.003"/>
  </g>
  <path d="M188.7998,169.60193l-55.4663-41.59967,55.4663-41.6a7.9995,7.9995,0,0,0,0-12.7998l-64-48A8,8,0,0,0,112,32.00232v80.00006l-51.2002-38.4a7.9998,7.9998,0,0,0-9.5996,12.7998l55.4663,41.6L51.2002,169.60193a8.00019,8.00019,0,0,0,9.5996,12.80078L112,144.00238v79.99994a8.00024,8.00024,0,0,0,12.7998,6.40039l64-48a8.00048,8.00048,0,0,0,0-12.80078ZM128,48.00232l42.667,32-42.667,32Zm0,160v-64l42.667,32Z"/>
</svg>
