<svg id="Flat" xmlns="http://www.w3.org/2000/svg" viewBox="0 0 256 256">
  <path d="M224,125.76611V160c-14.57031,50.99609-82.21436,68.82129-94.18652,71.59961a8.00936,8.00936,0,0,1-3.627,0C114.21436,228.82129,46.57031,210.99609,32,160V125.76611a7.99978,7.99978,0,0,1,5.47021-7.58935l88-29.3335a8.00005,8.00005,0,0,1,5.05958,0l88,29.3335A7.99978,7.99978,0,0,1,224,125.76611Z" opacity="0.2"/>
  <path d="M221.06055,110.58691,208,106.2334V56a16.01833,16.01833,0,0,0-16-16H136V24a8,8,0,0,0-16,0V40H64A16.01833,16.01833,0,0,0,48,56v50.2334l-13.06055,4.35351A15.98076,15.98076,0,0,0,24,125.76611V160a8.00533,8.00533,0,0,0,.30762,2.19775c15.71972,55.01856,86.11816,73.957,100.07031,77.19483a16.1234,16.1234,0,0,0,7.24414,0c13.95215-3.23779,84.35059-22.17627,100.07031-77.19483A8.00533,8.00533,0,0,0,232,160V125.76611A15.98076,15.98076,0,0,0,221.06055,110.58691ZM64,56H192v44.90039L133.05957,81.25391a15.9866,15.9866,0,0,0-4.5791-.79688c-.15967-.00928-.31836-.02441-.48047-.02441-.16113,0-.31836.01513-.47705.02441a15.9826,15.9826,0,0,0-4.5835.79688L64,100.90039ZM216,158.84521c-5.77441,18.95557-20.5498,35.11084-43.93652,48.03418a181.73372,181.73372,0,0,1-44.06836,16.92725,181.86608,181.86608,0,0,1-44.0586-16.92725C60.5498,193.95605,45.77441,177.80078,40,158.84521V125.76562l18.37012-6.123.029-.00977L120,99.09961V168a8,8,0,0,0,16,0V99.09961l61.60669,20.53516.02075.00732L216,125.76611Z"/>
</svg>
