<svg xmlns="http://www.w3.org/2000/svg" viewBox="0 0 256 256"><g opacity="0.2"><path d="M176,32v96l-32-24-32,24V32H72A23.9,23.9,0,0,0,48,56V216a23.9,23.9,0,0,1,24-24H208V32Z"/></g><path d="M208,24H72A32.1,32.1,0,0,0,40,56V224a8,8,0,0,0,8,8H192a8,8,0,0,0,0-16H56a16,16,0,0,1,16-16H208a8,8,0,0,0,8-8V32A8,8,0,0,0,208,24ZM120,40h48v72L148.8,97.6a8.1,8.1,0,0,0-9.6,0L120,112Zm80,144H72a32.2,32.2,0,0,0-16,4.3V56A16,16,0,0,1,72,40h32v88a8,8,0,0,0,12.8,6.4L144,114l27.2,20.4A7.7,7.7,0,0,0,176,136a9.4,9.4,0,0,0,3.6-.8A8.2,8.2,0,0,0,184,128V40h16Z"/></svg>