<svg id="Flat" xmlns="http://www.w3.org/2000/svg" viewBox="0 0 256 256">
  <g opacity="0.2">
    <path d="M168,224l-56.0074-40L56,224V72a8,8,0,0,1,8-8h96a8,8,0,0,1,8,8Z"/>
  </g>
  <g>
    <path d="M160,56H64A16.01833,16.01833,0,0,0,48,72V224a8.00026,8.00026,0,0,0,12.65039,6.50977l51.34277-36.67872,51.35743,36.67872A7.99952,7.99952,0,0,0,176,224V72A16.01833,16.01833,0,0,0,160,56Zm0,152.45605-43.35791-30.96582a7.99956,7.99956,0,0,0-9.2998,0L64,208.45312V72h96Z"/>
    <path d="M192,24H88a8,8,0,0,0,0,16H192V192a8,8,0,0,0,16,0V40A16.01833,16.01833,0,0,0,192,24Z"/>
  </g>
</svg>
