<svg xmlns="http://www.w3.org/2000/svg" viewBox="0 0 256 256"><path d="M136,48V176H88V80H40V48a8,8,0,0,1,8-8H80a8,8,0,0,1,8,8,8,8,0,0,1,8-8h32A8,8,0,0,1,136,48Zm89.9,149.6-8.3-30.9-46.4,12.5,8.3,30.9a8,8,0,0,0,9.8,5.6l30.9-8.3A8,8,0,0,0,225.9,197.6ZM184.5,43.1a8.1,8.1,0,0,0-9.8-5.7l-30.9,8.3a8.1,8.1,0,0,0-5.7,9.8l8.3,30.9L192.8,74Z" opacity="0.2"/><path d="M233.6,195.6,192.2,41a16,16,0,0,0-19.6-11.3L141.7,38l-1,.3A16,16,0,0,0,128,32H96a15.8,15.8,0,0,0-8,2.2A15.8,15.8,0,0,0,80,32H48A16,16,0,0,0,32,48V208a16,16,0,0,0,16,16H80a15.8,15.8,0,0,0,8-2.2,15.8,15.8,0,0,0,8,2.2h32a16,16,0,0,0,16-16V108.4l27.8,103.7A16,16,0,0,0,187.3,224a19.9,19.9,0,0,0,4.1-.5l30.9-8.3A16,16,0,0,0,233.6,195.6ZM156.2,92.1l30.9-8.3,20.7,77.3-30.9,8.3Zm20.5-46.9L183,68.3l-30.9,8.3-6.3-23.1ZM128,48V168H96V48ZM80,48V72H48V48ZM48,208V88H80V208Zm80,0H96V184h32v24Zm90.2-8.3L187.3,208,181,184.8l31-8.3,6.2,23.2Z"/></svg>