<svg id="Flat" xmlns="http://www.w3.org/2000/svg" viewBox="0 0 256 256">
  <g opacity="0.2">
    <polygon points="191.971 176 127.963 136 63.971 176 63.971 224 127.963 184 191.971 224 191.971 176"/>
  </g>
  <path d="M183.9707,32h-112a16.01833,16.01833,0,0,0-16,16V224a8.00043,8.00043,0,0,0,12.24024,6.78418l59.75293-37.35059L187.731,230.78418A8,8,0,0,0,199.9707,224V48A16.01833,16.01833,0,0,0,183.9707,32Zm0,16V161.56683l-51.76758-32.351a8.00109,8.00109,0,0,0-8.48,0l-51.75244,32.349V48ZM132.20312,177.21582a8.00107,8.00107,0,0,0-8.48,0L71.9707,209.56543V180.434l55.99317-35.00043,56.00683,35.00068v29.13311Z"/>
</svg>
