<svg id="Flat" xmlns="http://www.w3.org/2000/svg" viewBox="0 0 256 256">
  <g opacity="0.2">
    <polygon points="56 224 127.993 184 200 224 200 176 127.993 136 56 176 56 224"/>
  </g>
  <path d="M208,176.05115V40a16.01833,16.01833,0,0,0-16-16H64A16.01833,16.01833,0,0,0,48,40V176.05334c.00006.01667-.00018.03315,0,.04981V224a7.99994,7.99994,0,0,0,11.88525,6.99316l68.10791-37.84179,68.12207,37.84179A8.00006,8.00006,0,0,0,208,224V176.10352C208.00024,176.08606,207.99988,176.0686,208,176.05115ZM192,40V162.40485l-60.12256-33.398a8.00221,8.00221,0,0,0-7.77,0L64,162.40326V40ZM131.87744,177.00684a7.9988,7.9988,0,0,0-7.77,0L64,210.40332V180.707l63.99316-35.5556L192,180.70715V210.4043Z"/>
</svg>
