<svg xmlns="http://www.w3.org/2000/svg" viewBox="0 0 256 256"><g opacity="0.2"><path d="M224,56H160a32,32,0,0,0-32,32A32,32,0,0,0,96,56H32a8,8,0,0,0-8,8V192a8,8,0,0,0,8,8H96a32,32,0,0,1,32,32,32,32,0,0,1,32-32h64a8,8,0,0,0,8-8V64A8,8,0,0,0,224,56Z"/></g><path d="M224,48H160a40,40,0,0,0-32,16A40,40,0,0,0,96,48H32A16,16,0,0,0,16,64V192a16,16,0,0,0,16,16H96a24.1,24.1,0,0,1,24,24,8,8,0,0,0,16,0,24.1,24.1,0,0,1,24-24h64a16,16,0,0,0,16-16V64A16,16,0,0,0,224,48ZM96,192H32V64H96a24.1,24.1,0,0,1,24,24V200A40,40,0,0,0,96,192Zm128,0H160a40,40,0,0,0-24,8V88a24.1,24.1,0,0,1,24-24h64Z"/></svg>