<svg id="Flat" xmlns="http://www.w3.org/2000/svg" viewBox="0 0 256 256">
  <g opacity="0.2">
    <path d="M192,32H96a7.99993,7.99993,0,0,0-8,8V64h72a7.99993,7.99993,0,0,1,8,8v97.146L200,192V40A7.99993,7.99993,0,0,0,192,32Z"/>
  </g>
  <path d="M192,24H96A16.01833,16.01833,0,0,0,80,40V56H64A16.01833,16.01833,0,0,0,48,72V224a8.00026,8.00026,0,0,0,12.65039,6.50977l51.34277-36.67872,51.35743,36.67872A7.99952,7.99952,0,0,0,176,224V184.6897l19.35059,13.82007A7.99952,7.99952,0,0,0,208,192V40A16.01833,16.01833,0,0,0,192,24ZM160,208.45605l-43.35791-30.96582a7.99956,7.99956,0,0,0-9.2998,0L64,208.45313V72h96Zm32-32.001-16-11.42676V72a16.01833,16.01833,0,0,0-16-16H96V40h96Z"/>
</svg>
