<svg id="Flat" xmlns="http://www.w3.org/2000/svg" viewBox="0 0 256 256">
  <g opacity="0.2">
    <path d="M176.00244,32v96l-32.00732-24-31.99268,24V32h-40a23.99994,23.99994,0,0,0-24,24V216a23.99994,23.99994,0,0,1,24-24h136V32Z"/>
  </g>
  <path d="M208.00244,24h-136a32.03667,32.03667,0,0,0-32,32V224a8.00039,8.00039,0,0,0,8,8h144a8,8,0,0,0,0-16h-136a16.01833,16.01833,0,0,1,16-16h136a8.00039,8.00039,0,0,0,8-8V32A8.00039,8.00039,0,0,0,208.00244,24Zm-88,16h48V112.002l-19.209-14.40234a7.998,7.998,0,0,0-9.59961.001l-19.19141,14.39746Zm80,144h-128a31.80291,31.80291,0,0,0-16,4.29492V56a16.01833,16.01833,0,0,1,16-16h32v88a8.00031,8.00031,0,0,0,12.80078,6.39941L143.99561,114l27.208,20.40039A7.9996,7.9996,0,0,0,184.00244,128V40h16Z"/>
</svg>
