<svg id="Flat" xmlns="http://www.w3.org/2000/svg" viewBox="0 0 256 256">
  <g opacity="0.2">
    <rect x="32.00781" y="72.00005" width="192" height="144" rx="8"/>
  </g>
  <path d="M216.00781,64H176V48a16.01833,16.01833,0,0,0-16-16H96A16.01833,16.01833,0,0,0,80,48V64H40.00781a16.01833,16.01833,0,0,0-16,16V208a16.01833,16.01833,0,0,0,16,16h176a16.01833,16.01833,0,0,0,16-16V80A16.01833,16.01833,0,0,0,216.00781,64ZM96,48h64V64H96ZM216.00781,208h-176V80H80v24a8,8,0,0,0,16,0V80h64v24a8,8,0,0,0,16,0V80h40.00781l.00977,127.99951Z"/>
</svg>
