<svg id="Flat" xmlns="http://www.w3.org/2000/svg" viewBox="0 0 256 256">
  <path d="M224,80v32H32V80a7.99977,7.99977,0,0,1,8-8H216A7.99977,7.99977,0,0,1,224,80ZM32,208a7.99977,7.99977,0,0,0,8,8H216a7.99977,7.99977,0,0,0,8-8V176H32Z" opacity="0.2"/>
  <path d="M216,64H176V56a24.0275,24.0275,0,0,0-24-24H104A24.0275,24.0275,0,0,0,80,56v8H40A16.01833,16.01833,0,0,0,24,80V208a16.01833,16.01833,0,0,0,16,16H216a16.01833,16.01833,0,0,0,16-16V80A16.01833,16.01833,0,0,0,216,64ZM40,120H216.00293l.00391,48H40ZM96,56a8.00917,8.00917,0,0,1,8-8h48a8.00917,8.00917,0,0,1,8,8v8H96ZM216,80l.00195,24H40V80Zm0,128H40V184H216.0083l.00147,23.99951Z"/>
</svg>
