<svg id="Flat" xmlns="http://www.w3.org/2000/svg" viewBox="0 0 256 256">
  <g opacity="0.2">
    <circle cx="128" cy="128" r="32"/>
  </g>
  <g>
    <path d="M128,88a40,40,0,1,0,40,40A40.04552,40.04552,0,0,0,128,88Zm0,64a24,24,0,1,1,24-24A24.0275,24.0275,0,0,1,128,152Z"/>
    <path d="M82.74512,82.74512A8.00018,8.00018,0,1,0,71.43066,71.43164a79.94026,79.94026,0,0,0,0,113.13672,8.00018,8.00018,0,1,0,11.31446-11.31348,63.93958,63.93958,0,0,1,0-90.50976Z"/>
    <path d="M208,128a79.7769,79.7769,0,0,0-23.43066-56.56836,8.00018,8.00018,0,1,0-11.31446,11.31348,63.93958,63.93958,0,0,1,0,90.50976,8.00018,8.00018,0,0,0,11.31446,11.31348A79.7769,79.7769,0,0,0,208,128Z"/>
    <path d="M32.16992,168.479a103.90428,103.90428,0,0,1,22.291-114.01806A8.00018,8.00018,0,0,0,43.14648,43.14746a119.906,119.906,0,0,0,0,169.70508,8.00018,8.00018,0,1,0,11.31446-11.31348A103.65105,103.65105,0,0,1,32.16992,168.479Z"/>
    <path d="M238.56641,81.28809a119.58135,119.58135,0,0,0-25.71289-38.14063,8.00018,8.00018,0,1,0-11.31446,11.31348,103.90471,103.90471,0,0,1,0,147.07812,8.00018,8.00018,0,0,0,11.31446,11.31348A120.12116,120.12116,0,0,0,238.56641,81.28809Z"/>
  </g>
</svg>
