<svg id="Flat" xmlns="http://www.w3.org/2000/svg" viewBox="0 0 256 256">
  <g opacity="0.2">
    <path d="M216.00781,48h-144a7.99993,7.99993,0,0,0-8,8V80h120a7.99993,7.99993,0,0,1,8,8v88h24a7.99977,7.99977,0,0,0,8-8V56A7.99993,7.99993,0,0,0,216.00781,48Z"/>
  </g>
  <path d="M216.00781,40h-144a16.01818,16.01818,0,0,0-16,16V72h-16a16.01818,16.01818,0,0,0-16,16v23.84521c-.001.052-.00781.10254-.00781.15479s.00684.10278.00781.15479V200a16.01833,16.01833,0,0,0,16,16h144a16.01833,16.01833,0,0,0,16-16V184h16a16.01833,16.01833,0,0,0,16-16V56A16.01817,16.01817,0,0,0,216.00781,40Zm-32,48,.00147,16H40.00781V88Zm0,112h-144V120H184.01074l.00488,55.84473c-.001.05224-.00781.10278-.00781.15527,0,.05273.00684.10352.00781.156l.002,23.8435Zm32-32h-16V88a16.01817,16.01817,0,0,0-16-16h-112V56h144Z"/>
</svg>
