<svg id="Flat" xmlns="http://www.w3.org/2000/svg" viewBox="0 0 256 256">
  <path d="M200,104v48a71.99981,71.99981,0,0,1-72,72h0a71.99981,71.99981,0,0,1-72-72V104Z" opacity="0.2"/>
  <path d="M208,144h16a8,8,0,0,0,0-16H208V112h16a8,8,0,0,0,0-16H207.59912a79.69432,79.69432,0,0,0-19.969-45.25732L205.44336,33.7959A7.99956,7.99956,0,1,0,194.416,22.2041L175.81519,39.8999a79.84411,79.84411,0,0,0-95.70777.05908L61.44336,22.2041A7.99956,7.99956,0,0,0,50.416,33.7959L68.30664,50.81543A79.69482,79.69482,0,0,0,48.40088,96H32a8,8,0,0,0,0,16H48v16H32a8,8,0,0,0,0,16H48v8c0,2.7002.13843,5.36816.40088,8H32a8,8,0,0,0,0,16H51.68286a80.00273,80.00273,0,0,0,152.63428,0H224a8,8,0,0,0,0-16H207.59912c.26245-2.63184.40088-5.2998.40088-8ZM128,40a64.08124,64.08124,0,0,1,63.48218,56H64.51782A64.08124,64.08124,0,0,1,128,40Zm8,175.48242V136a8,8,0,0,0-16,0v79.48242A64.08166,64.08166,0,0,1,64,152V112H192v40A64.08166,64.08166,0,0,1,136,215.48242Z"/>
</svg>
