<svg xmlns="http://www.w3.org/2000/svg" viewBox="0 0 256 256"><path d="M208,128v16a80,80,0,0,1-160,0V128Z" opacity="0.2"/><path d="M143.9,92a12,12,0,1,1,12,12A12,12,0,0,1,143.9,92Zm-44-12a12,12,0,1,0,12,12A12,12,0,0,0,99.9,80ZM252,128a8,8,0,0,1-8,8H216v8a88.1,88.1,0,0,1-3.2,23.7l23.1,13.4a8,8,0,0,1-4,14.9,7.6,7.6,0,0,1-4-1.1L207,182.8a88,88,0,0,1-158,0L28.1,194.9a7.6,7.6,0,0,1-4,1.1,8,8,0,0,1-4-14.9l23.1-13.4A88.1,88.1,0,0,1,40,144v-8H12a8,8,0,0,1,0-16H40v-8a88.1,88.1,0,0,1,3.2-23.7L20.1,74.9a8,8,0,0,1-3-10.9,8.1,8.1,0,0,1,11-2.9L49,73.2a88,88,0,0,1,158,0l20.9-12.1a8.1,8.1,0,0,1,11,2.9,8,8,0,0,1-3,10.9L212.8,88.3A88.1,88.1,0,0,1,216,112v8h28A8,8,0,0,1,252,128ZM56,120H200v-8a72,72,0,0,0-144,0Zm64,95.5V136H56v8A72,72,0,0,0,120,215.5ZM200,136H136v79.5A72,72,0,0,0,200,144Z"/></svg>