<svg xmlns="http://www.w3.org/2000/svg" viewBox="0 0 256 256"><g opacity="0.2"><path d="M48,128H208v20a80,80,0,0,1-160,0Z"/></g><path d="M191.4,47l14.1-13.1a8.1,8.1,0,1,0-11-11.8L179.2,36.5a87.7,87.7,0,0,0-102.4,0L61.5,22.1a8.1,8.1,0,0,0-11,11.8L64.6,47A87.7,87.7,0,0,0,40,108v40a88,88,0,0,0,176,0V108A87.7,87.7,0,0,0,191.4,47ZM128,36a72.1,72.1,0,0,1,72,72v12H56V108A72.1,72.1,0,0,1,128,36Zm0,184a72.1,72.1,0,0,1-72-72V136H200v12A72.1,72.1,0,0,1,128,220ZM144,92a12,12,0,1,1,12,12A12,12,0,0,1,144,92ZM88,92a12,12,0,1,1,12,12A12,12,0,0,1,88,92Z"/></svg>