<svg xmlns="http://www.w3.org/2000/svg" viewBox="0 0 256 256"><path d="M200,104v48a72,72,0,0,1-72,72h0a72,72,0,0,1-72-72V104Z" opacity="0.2"/><path d="M208,144h16a8,8,0,0,0,0-16H208V112h16a8,8,0,0,0,0-16H207.6a79.6,79.6,0,0,0-20-45.3l17.8-16.9a7.9,7.9,0,0,0,.3-11.3,8,8,0,0,0-11.3-.3L175.8,39.9a79.8,79.8,0,0,0-95.7.1L61.4,22.2a8,8,0,0,0-11,11.6l17.9,17A79.9,79.9,0,0,0,48.4,96H32a8,8,0,0,0,0,16H48v16H32a8,8,0,0,0,0,16H48v8a70.3,70.3,0,0,0,.4,8H32a8,8,0,0,0,0,16H51.7a80,80,0,0,0,152.6,0H224a8,8,0,0,0,0-16H207.6a70.3,70.3,0,0,0,.4-8ZM128,40a64.1,64.1,0,0,1,63.5,56H64.5A64.1,64.1,0,0,1,128,40Zm8,175.5V136a8,8,0,0,0-16,0v79.5A64.1,64.1,0,0,1,64,152V112H192v40A64.1,64.1,0,0,1,136,215.5Z"/></svg>