<svg id="Flat" xmlns="http://www.w3.org/2000/svg" viewBox="0 0 256 256">
  <g opacity="0.2">
    <path d="M143.99414,223.98316v-184a8,8,0,0,0-8-8h-96a8,8,0,0,0-8,8v184"/>
  </g>
  <g>
    <path d="M215.99414,87.98316h-64v-48a16.01833,16.01833,0,0,0-16-16h-96a16.01833,16.01833,0,0,0-16,16v184a8,8,0,0,0,16,0v-184h96v184a8,8,0,0,0,16,0v-120h64v120a8,8,0,0,0,16,0v-120A16.01833,16.01833,0,0,0,215.99414,87.98316Z"/>
    <path d="M63.99414,79.98316h32a8,8,0,1,0,0-16h-32a8,8,0,0,0,0,16Z"/>
    <path d="M111.99414,143.98316h-32a8,8,0,0,0,0,16h32a8,8,0,1,0,0-16Z"/>
    <path d="M95.99414,183.98316h-32a8,8,0,0,0,0,16h32a8,8,0,1,0,0-16Z"/>
    <path d="M191.99414,167.98316h-16a8,8,0,0,0,0,16h16a8,8,0,1,0,0-16Z"/>
    <path d="M191.99414,127.98316h-16a8,8,0,0,0,0,16h16a8,8,0,1,0,0-16Z"/>
  </g>
</svg>
