<svg xmlns="http://www.w3.org/2000/svg" viewBox="0 0 256 256"><g opacity="0.3"><path d="M214,192v24a8,8,0,0,1-8,8H182a8,8,0,0,1-8-8V192Z"/></g><g opacity="0.3"><path d="M82,192v24a8,8,0,0,1-8,8H50a8,8,0,0,1-8-8V192Z"/></g><g opacity="0.2"><rect x="42" y="72" width="172" height="48"/></g><path d="M190,32H66A32.1,32.1,0,0,0,34,64V216a16,16,0,0,0,16,16H74a16,16,0,0,0,16-16V200h76v16a16,16,0,0,0,16,16h24a16,16,0,0,0,16-16V64A32.1,32.1,0,0,0,190,32ZM50,184V128H206v56ZM50,80H206v32H50ZM66,48H190a16,16,0,0,1,16,16H50A16,16,0,0,1,66,48Zm8,168H50V200H74Zm108,0V200h24v16Z"/><circle cx="82" cy="156" r="12"/><circle cx="174" cy="156" r="12"/></svg>