<svg id="Flat" xmlns="http://www.w3.org/2000/svg" viewBox="0 0 256 256">
  <path d="M128,8s46.22217,40,0,56C80,48,128,8,128,8Zm78,80H50a23.99994,23.99994,0,0,0-24,24v13.32861c0,19.06446,15.602,35.02979,34.66309,34.665A34,34,0,0,0,94,126a34,34,0,0,0,68,0,34,34,0,0,0,33.33691,33.99365C214.398,160.3584,230,144.39307,230,125.32861V112A23.99994,23.99994,0,0,0,206,88Z" opacity="0.2"/>
  <path d="M206,80H136V69.439c11.49683-5.13232,18.2417-12.52441,20.07031-22.03027,4.11914-21.41113-20.06445-43.06006-22.835-45.458a7.99935,7.99935,0,0,0-10.35644-.09619c-2.85938,2.38184-27.81446,23.895-23.76661,45.34717,1.82349,9.6665,8.84131,17.15674,20.8877,22.31885V80H50a32.03635,32.03635,0,0,0-32,32v13.32812A43.21843,43.21843,0,0,0,30.90918,155.9834c.35693.35058.72461.68408,1.09082,1.02V208a16.01833,16.01833,0,0,0,16,16H208a16.01833,16.01833,0,0,0,16-16V157.00439c.36646-.33593.73389-.67041,1.09082-1.021A43.21843,43.21843,0,0,0,238,125.32812V112A32.03635,32.03635,0,0,0,206,80ZM114.83691,44.24658c-1.49707-7.87451,6.665-18.48974,13.05176-25.13818,6.17676,6.707,14.00293,17.36572,12.46778,25.29053-.85157,4.39209-5.02149,8.11474-12.40723,11.08447C122.05859,53.20068,115.84961,49.57471,114.83691,44.24658ZM34,112A16.01833,16.01833,0,0,1,50,96H206a16.01833,16.01833,0,0,1,16,16v13.32812a27.12336,27.12336,0,0,1-8.11426,19.23438,25.50436,25.50436,0,0,1-18.39551,7.43262A26.12635,26.12635,0,0,1,170,126a7.96676,7.96676,0,0,0-1.8269-5.08887c-.16309-.19726-.33545-.3872-.51636-.56787a7.99342,7.99342,0,0,0-11.31348,0c-.18091.18067-.35327.37061-.51636.56787A7.96676,7.96676,0,0,0,154,126a26,26,0,0,1-52,0,7.96676,7.96676,0,0,0-1.8269-5.08887c-.16309-.19726-.33545-.3872-.51636-.56787a7.99342,7.99342,0,0,0-11.31348,0c-.18091.18067-.35327.37061-.51636.56787A7.96676,7.96676,0,0,0,86,126a26.12635,26.12635,0,0,1-25.49023,25.99512,25.49361,25.49361,0,0,1-18.39551-7.43262A27.12336,27.12336,0,0,1,34,125.32812Zm174,96H48V166.20264a41.09921,41.09921,0,0,0,12.81641,1.78955,42.04634,42.04634,0,0,0,33.15014-17.42432,41.9385,41.9385,0,0,0,68.0669,0,42.04634,42.04634,0,0,0,33.15014,17.42432q.40137.00732.80079.00781A41.06205,41.06205,0,0,0,208,166.209Z"/>
</svg>
