<svg id="Flat" xmlns="http://www.w3.org/2000/svg" viewBox="0 0 256 256">
  <path d="M216,48V88H40V48a7.99977,7.99977,0,0,1,8-8H208A7.99977,7.99977,0,0,1,216,48Z" opacity="0.2"/>
  <path d="M208,32H184V24a8,8,0,0,0-16,0v8H88V24a8,8,0,0,0-16,0v8H48A16.01833,16.01833,0,0,0,32,48V208a16.01833,16.01833,0,0,0,16,16H208a16.01833,16.01833,0,0,0,16-16V48A16.01833,16.01833,0,0,0,208,32ZM72,48v8a8,8,0,0,0,16,0V48h80v8a8,8,0,0,0,16,0V48h24l.00195,32H48V48ZM208,208H48V96H208.00293l.00684,112Zm-38.18457-85.49316a7.99934,7.99934,0,0,1-.333,11.30859l-46.6665,44a7.99905,7.99905,0,0,1-10.98975-.0127l-25.33349-24a8,8,0,1,1,11.0039-11.61523l19.84424,18.7998,41.166-38.8125A8.002,8.002,0,0,1,169.81543,122.50684Z"/>
</svg>
