<svg xmlns="http://www.w3.org/2000/svg" viewBox="0 0 256 256"><path d="M216,48V88H40V48a8,8,0,0,1,8-8H208A8,8,0,0,1,216,48Z" opacity="0.2"/><path d="M208,32H184V24a8,8,0,0,0-16,0v8H88V24a8,8,0,0,0-16,0v8H48A16,16,0,0,0,32,48V208a16,16,0,0,0,16,16H208a16,16,0,0,0,16-16V48A16,16,0,0,0,208,32ZM72,48v8a8,8,0,0,0,16,0V48h80v8a8,8,0,0,0,16,0V48h24V80H48V48ZM208,208H48V96H208V208Zm-38.2-85.5a8,8,0,0,1-.3,11.3l-46.7,44a7.7,7.7,0,0,1-5.5,2.2,7.9,7.9,0,0,1-5.5-2.2l-25.3-24a8,8,0,1,1,11-11.6L117.3,161l41.2-38.8A7.9,7.9,0,0,1,169.8,122.5Z"/></svg>