<svg xmlns="http://www.w3.org/2000/svg" viewBox="0 0 256 256"><g opacity="0.2"><path d="M40,88H216V48a8,8,0,0,0-8-8H48a8,8,0,0,0-8,8Z"/></g><path d="M208,32H184V24a8,8,0,0,0-16,0v8H88V24a8,8,0,0,0-16,0v8H48A16,16,0,0,0,32,48V208a16,16,0,0,0,16,16H208a16,16,0,0,0,16-16V48A16,16,0,0,0,208,32ZM72,48v8a8,8,0,0,0,16,0V48h80v8a8,8,0,0,0,16,0V48h24V80H48V48ZM208,208H48V96H208V208Z"/><path d="M117.4,144.1l8.8-11.1a8,8,0,0,0-6.2-13H92a8,8,0,0,0,0,16h11.4l-5.6,7a8,8,0,0,0,6.2,13,8,8,0,0,1,0,16,8.3,8.3,0,0,1-5.7-2.3,7.9,7.9,0,0,0-11.3,0A8,8,0,0,0,87,181a24,24,0,0,0,41-17A23.9,23.9,0,0,0,117.4,144.1Z"/><path d="M163.6,120.8a8.2,8.2,0,0,0-8.4.8l-16,12a8,8,0,0,0-1.6,11.2,8.1,8.1,0,0,0,11.2,1.6L152,144v36a8,8,0,0,0,16,0V128A8.2,8.2,0,0,0,163.6,120.8Z"/></svg>