<svg id="Flat" xmlns="http://www.w3.org/2000/svg" viewBox="0 0 256 256">
  <g opacity="0.2">
    <path d="M40,88H216V48a8,8,0,0,0-8-8H48a8,8,0,0,0-8,8Z"/>
  </g>
  <g>
    <path d="M208,32H184V24a8,8,0,0,0-16,0v8H88V24a8,8,0,0,0-16,0v8H48A16.01833,16.01833,0,0,0,32,48V208a16.01833,16.01833,0,0,0,16,16H208a16.01833,16.01833,0,0,0,16-16V48A16.01833,16.01833,0,0,0,208,32ZM72,48v8a8,8,0,0,0,16,0V48h80v8a8,8,0,0,0,16,0V48h24l.00195,32H48V48ZM208,208H48V96H208.00293l.00684,112Z"/>
    <path d="M157.65674,122.34277a8.00182,8.00182,0,0,0-11.31348,0L128,140.686l-18.34326-18.34327a8.00018,8.00018,0,0,0-11.31348,11.31446L116.686,152,98.34326,170.34277a8.00018,8.00018,0,0,0,11.31348,11.31446L128,163.314l18.34326,18.34327a8.00018,8.00018,0,0,0,11.31348-11.31446L139.314,152l18.34278-18.34277A8.00034,8.00034,0,0,0,157.65674,122.34277Z"/>
  </g>
</svg>
