<svg id="Flat" xmlns="http://www.w3.org/2000/svg" viewBox="0 0 256 256">
  <path d="M216,48V88H40V48a7.99993,7.99993,0,0,1,8-8H208A7.99993,7.99993,0,0,1,216,48Z" opacity="0.2"/>
  <path d="M208,32H184V24a8,8,0,0,0-16,0v8H88V24a8,8,0,0,0-16,0v8H48A16.01833,16.01833,0,0,0,32,48V208a16.01833,16.01833,0,0,0,16,16H208a16.01833,16.01833,0,0,0,16-16V48A16.01833,16.01833,0,0,0,208,32ZM72,48v8a8,8,0,0,0,16,0V48h80v8a8,8,0,0,0,16,0V48h24l.00195,32H48V48ZM208,208H48V96H208.00293l.00684,112Zm-44-56a8.00039,8.00039,0,0,1-8,8H136v20a8,8,0,0,1-16,0V160H100a8,8,0,0,1,0-16h20V124a8,8,0,0,1,16,0v20h20A8.00039,8.00039,0,0,1,164,152Z"/>
</svg>
