<svg xmlns="http://www.w3.org/2000/svg" viewBox="0 0 256 256"><path d="M224,80V192a16,16,0,0,1-16,16H48a16,16,0,0,1-16-16V80A16,16,0,0,1,48,64H80L96,40h64l16,24h32A16,16,0,0,1,224,80Z" opacity="0.2"/><path d="M208,56H180.3L166.7,35.6A7.9,7.9,0,0,0,160,32H96a7.9,7.9,0,0,0-6.7,3.6L75.7,56H48A24.1,24.1,0,0,0,24,80V192a24.1,24.1,0,0,0,24,24H208a24.1,24.1,0,0,0,24-24V80A24.1,24.1,0,0,0,208,56Zm8,136a8,8,0,0,1-8,8H48a8,8,0,0,1-8-8V80a8,8,0,0,1,8-8H80a7.9,7.9,0,0,0,6.7-3.6L100.3,48h55.4l13.6,20.4A7.9,7.9,0,0,0,176,72h32a8,8,0,0,1,8,8Zm-54.1-37.4a7.9,7.9,0,0,1,0,11.3,47.8,47.8,0,0,1-67.8,0H94L89.3,161l-1.4,8.3A8.1,8.1,0,0,1,80,176H78.7a8,8,0,0,1-6.6-9.2l4-24a8.1,8.1,0,0,1,6.6-6.6l24-4a8,8,0,1,1,2.6,15.8l-9,1.5,5.1,5.3A32,32,0,0,0,128,164a31.5,31.5,0,0,0,22.6-9.4A8,8,0,0,1,161.9,154.6Zm22-57.3-4,24a8.1,8.1,0,0,1-6.6,6.6l-24,4H148a8.1,8.1,0,0,1-7.9-6.7,8,8,0,0,1,6.6-9.2l9-1.5-5.1-5.3A32,32,0,0,0,128,100a31.5,31.5,0,0,0-22.6,9.4,8,8,0,0,1-11.3,0,7.9,7.9,0,0,1,0-11.3,47.8,47.8,0,0,1,67.8,0c.1,0,.1,0,.1.1l4.7,4.8,1.4-8.3a8,8,0,0,1,15.8,2.6Z"/></svg>