<svg xmlns="http://www.w3.org/2000/svg" viewBox="0 0 256 256"><g opacity="0.2"><path d="M208,64H176L160,40H96L80,64H48A16,16,0,0,0,32,80V192a16,16,0,0,0,16,16H208a16,16,0,0,0,16-16V80A16,16,0,0,0,208,64ZM128,168a36,36,0,1,1,36-36A36,36,0,0,1,128,168Z"/></g><path d="M39.4,18.6a7.9,7.9,0,0,0-11.3-.5,8,8,0,0,0-.6,11.3L51.7,56H48A24.1,24.1,0,0,0,24,80V192a24.1,24.1,0,0,0,24,24H197.2l19.4,21.4a8.2,8.2,0,0,0,5.9,2.6,7.8,7.8,0,0,0,5.4-2.1,8,8,0,0,0,.6-11.3Zm66.2,96.6,37,40.7A27.8,27.8,0,0,1,128,160a28,28,0,0,1-22.4-44.8ZM48,200a8,8,0,0,1-8-8V80a8,8,0,0,1,8-8H66.3l28.4,31.2a44,44,0,0,0,58.7,64.7L182.6,200Z"/><path d="M208,56H180.3L166.6,35.6A7.6,7.6,0,0,0,160,32H96a7.9,7.9,0,0,0-6.7,3.6l-2,3a8.1,8.1,0,0,0,2.2,11.1A8,8,0,0,0,100.2,48h55.5l13.6,20.4A7.9,7.9,0,0,0,176,72h32a8,8,0,0,1,8,8V186a8,8,0,0,0,16,0V80A24.1,24.1,0,0,0,208,56Z"/></svg>