<svg id="Flat" xmlns="http://www.w3.org/2000/svg" viewBox="0 0 256 256">
  <g opacity="0.2">
    <path d="M208.00244,64.00684H175.99658l-16-24h-64l-16,24H48.00244a16,16,0,0,0-16,16v112a16,16,0,0,0,16,16h160a16,16,0,0,0,16-16v-112A16,16,0,0,0,208.00244,64.00684Zm-80,104a36,36,0,1,1,36-36A36,36,0,0,1,128.00244,168.00684Z"/>
  </g>
  <g>
    <path d="M39.37451,18.61865a8.00027,8.00027,0,0,0-11.83984,10.7627L51.7334,56H47.99951a24.0275,24.0275,0,0,0-24,24V192a24.0275,24.0275,0,0,0,24,24H197.188l19.4375,21.38135a8.00027,8.00027,0,0,0,11.83984-10.7627ZM105.57715,115.228l36.99512,40.69482A28.00747,28.00747,0,0,1,105.57715,115.228ZM47.99951,200a8.00917,8.00917,0,0,1-8-8V80a8.00917,8.00917,0,0,1,8-8h18.2793l28.41406,31.25586A43.99439,43.99439,0,0,0,127.99951,176a44.19622,44.19622,0,0,0,25.4419-8.12109L182.64258,200Z"/>
    <path d="M207.99951,56H180.2749l-13.625-20.4375A7.99942,7.99942,0,0,0,159.99365,32h-64a7.99954,7.99954,0,0,0-6.65722,3.56348l-2.00782,3.01318A8.0002,8.0002,0,0,0,100.2417,48h55.4707l13.625,20.4375A7.99943,7.99943,0,0,0,175.99365,72h32.00586a8.00917,8.00917,0,0,1,8,8V186.02881a8,8,0,1,0,16,0V80A24.0275,24.0275,0,0,0,207.99951,56Z"/>
  </g>
</svg>
