<svg xmlns="http://www.w3.org/2000/svg" viewBox="0 0 256 256"><path d="M180,108a52,52,0,0,1-52,52,23.9,23.9,0,0,0,24-24c0-24-24-40-24-40s-24,16-24,40a23.9,23.9,0,0,0,24,24,52,52,0,0,1-52-52c0-44,52-76,52-76S180,64,180,108Z" opacity="0.2"/><path d="M128,168a60,60,0,0,0,60-60c0-47.9-53.5-81.4-55.8-82.8a7.9,7.9,0,0,0-8.4,0A153.5,153.5,0,0,0,96.2,48C77.8,67.1,68,87.9,68,108A60,60,0,0,0,128,168Zm0-16a16,16,0,0,1-16-16c0-13.6,10-24.5,16-29.8,6,5.3,16,16.2,16,29.8A16,16,0,0,1,128,152Zm0-110.3C139.7,50,172,76,172,108a43.5,43.5,0,0,1-12.1,30.2,15.5,15.5,0,0,0,.1-2.2c0-28-26.4-45.9-27.6-46.7a8.2,8.2,0,0,0-8.8,0C122.4,90.1,96,108,96,136a15.5,15.5,0,0,0,.1,2.2A43.5,43.5,0,0,1,84,108C84,76,116.3,50,128,41.7Zm95.6,184.7A8,8,0,0,1,216,232a6.7,6.7,0,0,1-2.4-.4L128,204.4,42.4,231.6a6.7,6.7,0,0,1-2.4.4,8,8,0,0,1-7.6-5.6,7.9,7.9,0,0,1,5.2-10l64-20.4-64-20.4a8,8,0,1,1,4.8-15.2L128,187.6l85.6-27.2a8,8,0,1,1,4.8,15.2l-64,20.4,64,20.4A7.9,7.9,0,0,1,223.6,226.4Z"/></svg>