<svg id="Flat" xmlns="http://www.w3.org/2000/svg" viewBox="0 0 256 256">
  <g opacity="0.2">
    <path d="M224,184v24a8,8,0,0,1-8,8H192a8,8,0,0,1-8-8V184Z"/>
  </g>
  <g opacity="0.2">
    <path d="M72,184v24a8,8,0,0,1-8,8H40a8,8,0,0,1-8-8V184Z"/>
  </g>
  <g opacity="0.2">
    <path d="M224,120,194.11151,52.75089A8,8,0,0,0,186.801,48H69.199a8,8,0,0,0-7.31049,4.75089L32,120Z"/>
  </g>
  <g>
    <path d="M240,112H229.199L201.42188,49.501A16.01649,16.01649,0,0,0,186.80078,40H69.19922a16.0158,16.0158,0,0,0-14.6211,9.502L26.801,112H16a8,8,0,0,0,0,16h8v80a16.01833,16.01833,0,0,0,16,16H64a16.01833,16.01833,0,0,0,16-16V192h96v16a16.01833,16.01833,0,0,0,16,16h24a16.01833,16.01833,0,0,0,16-16V128h8a8,8,0,0,0,0-16ZM69.19922,56H186.80078l24.88892,56H44.3103ZM64,208H40V192H64Zm128,0V192h24v16Zm24-32H40V128H216Z"/>
    <path d="M64,160H80a8,8,0,0,0,0-16H64a8,8,0,0,0,0,16Z"/>
    <path d="M176,160h16a8,8,0,0,0,0-16H176a8,8,0,0,0,0,16Z"/>
  </g>
</svg>
