<svg xmlns="http://www.w3.org/2000/svg" viewBox="0 0 256 256"><g opacity="0.2"><path d="M224,184v24a8,8,0,0,1-8,8H192a8,8,0,0,1-8-8V184Z"/></g><g opacity="0.2"><path d="M72,184v24a8,8,0,0,1-8,8H40a8,8,0,0,1-8-8V184Z"/></g><g opacity="0.2"><path d="M224,120,194.1,52.8a8,8,0,0,0-7.3-4.8H69.2a8,8,0,0,0-7.3,4.8L32,120Z"/></g><path d="M240,112H229.2L201.4,49.5A15.9,15.9,0,0,0,186.8,40H69.2a15.9,15.9,0,0,0-14.6,9.5L26.8,112H16a8,8,0,0,0,0,16h8v80a16,16,0,0,0,16,16H64a16,16,0,0,0,16-16V192h96v16a16,16,0,0,0,16,16h24a16,16,0,0,0,16-16V128h8a8,8,0,0,0,0-16ZM69.2,56H186.8l24.9,56H44.3ZM64,208H40V192H64Zm128,0V192h24v16Zm24-32H40V128H216Z"/><path d="M64,160H80a8,8,0,0,0,0-16H64a8,8,0,0,0,0,16Z"/><path d="M176,160h16a8,8,0,0,0,0-16H176a8,8,0,0,0,0,16Z"/></svg>