<svg id="Flat" xmlns="http://www.w3.org/2000/svg" viewBox="0 0 256 256">
  <g opacity="0.2">
    <path d="M32,120H88.80976A7.98836,7.98836,0,0,1,96.64,126.39917a32.00785,32.00785,0,0,0,62.7201,0A7.98836,7.98836,0,0,1,167.19024,120H224V72a16,16,0,0,0-16-16H48A16,16,0,0,0,32,72Z"/>
  </g>
  <path d="M208,48H48A24.0275,24.0275,0,0,0,24,72V184a24.0275,24.0275,0,0,0,24,24H208a24.0275,24.0275,0,0,0,24-24V72A24.0275,24.0275,0,0,0,208,48ZM40,96H216v16H167.19043a16.0395,16.0395,0,0,0-15.66992,12.80762,24.00866,24.00866,0,0,1-47.041.001A16.03939,16.03939,0,0,0,88.80957,112H40Zm8-32H208a8.00917,8.00917,0,0,1,8,8v8H40V72A8.00917,8.00917,0,0,1,48,64ZM208,192H48a8.00917,8.00917,0,0,1-8-8V127.999l48.7998-.00781A40.00316,40.00316,0,0,0,167.19043,128H216v56A8.00917,8.00917,0,0,1,208,192Z"/>
</svg>
