<svg id="Flat" xmlns="http://www.w3.org/2000/svg" viewBox="0 0 256 256">
  <g opacity="0.2">
    <rect x="32.00781" y="80.00005" width="160" height="128" rx="8"/>
  </g>
  <g>
    <path d="M184.00781,72h-144a16.01833,16.01833,0,0,0-16,16V200a16.01833,16.01833,0,0,0,16,16h144a16.01833,16.01833,0,0,0,16-16V88A16.01833,16.01833,0,0,0,184.00781,72Zm0,128h-144V88h144l.00977,111.99951Z"/>
    <path d="M216.00781,40h-152a8,8,0,0,0,0,16h152V176a8,8,0,0,0,16,0V56A16.01833,16.01833,0,0,0,216.00781,40Z"/>
  </g>
</svg>
