<svg id="Flat" xmlns="http://www.w3.org/2000/svg" viewBox="0 0 256 256">
  <g opacity="0.2">
    <polygon points="208 48 128 128 48 48 208 48"/>
  </g>
  <g>
    <path d="M213.65674,122.34326a8,8,0,0,0-11.31348,0L128,196.68652,53.65674,122.34326a7.99984,7.99984,0,1,0-11.31348,11.31348l80,80.00049a8.00063,8.00063,0,0,0,11.31348,0l80-80.00049A7.99915,7.99915,0,0,0,213.65674,122.34326Z"/>
    <path d="M122.34326,133.65674a7.99945,7.99945,0,0,0,11.31348,0l80-80A7.99981,7.99981,0,0,0,208,40H48a7.99981,7.99981,0,0,0-5.65674,13.65674ZM188.686,56,128,116.686,67.314,56Z"/>
  </g>
</svg>
