<svg xmlns="http://www.w3.org/2000/svg" viewBox="0 0 256 256"><g opacity="0.2"><circle cx="128" cy="128" r="96"/></g><path d="M201.5,54.5a103.8,103.8,0,0,0-147,0,103.8,103.8,0,0,0,0,147,103.8,103.8,0,0,0,147,0,103.8,103.8,0,0,0,0-147ZM190.2,190.2a88,88,0,1,1,0-124.4A88.1,88.1,0,0,1,190.2,190.2Z"/><path d="M133.7,130.3a8.1,8.1,0,0,0-11.4,0l-32,32a8.1,8.1,0,0,0,11.4,11.4L128,147.3l26.3,26.4a8.2,8.2,0,0,0,11.4,0,8.1,8.1,0,0,0,0-11.4Z"/><path d="M133.7,74.3a8.1,8.1,0,0,0-11.4,0l-32,32a8.1,8.1,0,0,0,11.4,11.4L128,91.3l26.3,26.4a8.2,8.2,0,0,0,11.4,0,8.1,8.1,0,0,0,0-11.4Z"/></svg>