<svg id="Flat" xmlns="http://www.w3.org/2000/svg" viewBox="0 0 256 256">
  <g opacity="0.2">
    <circle cx="128" cy="128" r="96"/>
  </g>
  <g>
    <path d="M201.53906,54.46094A103.99994,103.99994,0,1,0,54.46094,201.53906,103.99994,103.99994,0,1,0,201.53906,54.46094ZM190.22559,190.22559a87.959,87.959,0,1,1,0-124.45118A88.10133,88.10133,0,0,1,190.22559,190.22559Z"/>
    <path d="M173.65674,90.34326a8,8,0,0,0-11.31348,0l-32,32a7.99915,7.99915,0,0,0,0,11.31348l32,32a7.99984,7.99984,0,0,0,11.31348-11.31348L147.314,128l26.34278-26.34326A7.99915,7.99915,0,0,0,173.65674,90.34326Z"/>
    <path d="M117.65674,90.34326a8,8,0,0,0-11.31348,0l-32,32a7.99915,7.99915,0,0,0,0,11.31348l32,32a7.99984,7.99984,0,0,0,11.31348-11.31348L91.314,128l26.34278-26.34326A7.99915,7.99915,0,0,0,117.65674,90.34326Z"/>
  </g>
</svg>
