<svg id="Flat" xmlns="http://www.w3.org/2000/svg" viewBox="0 0 256 256">
  <g opacity="0.2">
    <polygon points="56 48 136 128 56 208 56 48"/>
  </g>
  <g>
    <path d="M141.65674,122.34326l-80-80A7.99981,7.99981,0,0,0,48,48V208a7.99984,7.99984,0,0,0,13.65674,5.65674l80-80A7.99915,7.99915,0,0,0,141.65674,122.34326ZM64,188.686V67.314L124.686,128Z"/>
    <path d="M221.65674,122.34326l-80-80a7.99984,7.99984,0,0,0-11.31348,11.31348L204.686,128l-74.34278,74.34326a7.99984,7.99984,0,1,0,11.31348,11.31348l80-80A7.99915,7.99915,0,0,0,221.65674,122.34326Z"/>
  </g>
</svg>
