<svg id="Flat" xmlns="http://www.w3.org/2000/svg" viewBox="0 0 256 256">
  <g opacity="0.2">
    <circle cx="128" cy="128" r="96"/>
  </g>
  <g>
    <path d="M201.53906,54.46094A103.99994,103.99994,0,1,0,54.46094,201.53906,103.99994,103.99994,0,1,0,201.53906,54.46094ZM190.22559,190.22559a87.959,87.959,0,1,1,0-124.45118A88.10133,88.10133,0,0,1,190.22559,190.22559Z"/>
    <path d="M93.65674,90.34326a7.99984,7.99984,0,0,0-11.31348,11.31348L108.686,128,82.34326,154.34326a7.99984,7.99984,0,1,0,11.31348,11.31348l32-32a7.99915,7.99915,0,0,0,0-11.31348Z"/>
    <path d="M149.65674,90.34326a7.99984,7.99984,0,0,0-11.31348,11.31348L164.686,128l-26.34278,26.34326a7.99984,7.99984,0,1,0,11.31348,11.31348l32-32a7.99915,7.99915,0,0,0,0-11.31348Z"/>
  </g>
</svg>
