<svg xmlns="http://www.w3.org/2000/svg" viewBox="0 0 256 256"><g opacity="0.2"><circle cx="128" cy="128" r="96"/></g><path d="M201.5,54.5a103.8,103.8,0,0,0-147,0,103.8,103.8,0,0,0,0,147,103.8,103.8,0,0,0,147,0,103.8,103.8,0,0,0,0-147ZM190.2,190.2a88,88,0,1,1,0-124.4A88.1,88.1,0,0,1,190.2,190.2Z"/><path d="M154.3,82.3,128,108.7,101.7,82.3A8.1,8.1,0,0,0,90.3,93.7l32,32a8.2,8.2,0,0,0,11.4,0l32-32a8.1,8.1,0,0,0-11.4-11.4Z"/><path d="M154.3,138.3,128,164.7l-26.3-26.4a8.1,8.1,0,0,0-11.4,11.4l32,32a8.2,8.2,0,0,0,11.4,0l32-32a8.1,8.1,0,0,0-11.4-11.4Z"/></svg>