<svg id="Flat" xmlns="http://www.w3.org/2000/svg" viewBox="0 0 256 256">
  <g opacity="0.2">
    <circle cx="128" cy="128" r="96"/>
  </g>
  <g>
    <path d="M128,24A104,104,0,1,0,232,128,104.11791,104.11791,0,0,0,128,24Zm0,192a88,88,0,1,1,88-88A88.09957,88.09957,0,0,1,128,216Z"/>
    <path d="M169.35156,110.05371a7.99978,7.99978,0,0,0-11.29785.59473L128,144.041,97.94629,110.64844a7.99985,7.99985,0,0,0-11.89258,10.70312l36,40a7.99954,7.99954,0,0,0,11.89258,0l36-40A7.99973,7.99973,0,0,0,169.35156,110.05371Z"/>
  </g>
</svg>
