<svg id="Flat" xmlns="http://www.w3.org/2000/svg" viewBox="0 0 256 256">
  <g opacity="0.2">
    <polygon points="200 208 120 128 200 48 200 208"/>
  </g>
  <g>
    <path d="M203.06152,40.60889a7.99945,7.99945,0,0,0-8.71826,1.73437l-80,80a7.99915,7.99915,0,0,0,0,11.31348l80,80A7.99981,7.99981,0,0,0,208,208V48A8.00015,8.00015,0,0,0,203.06152,40.60889ZM192,188.686,131.314,128,192,67.314Z"/>
    <path d="M51.314,128l74.34278-74.34326a7.99984,7.99984,0,0,0-11.31348-11.31348l-80,80a7.99915,7.99915,0,0,0,0,11.31348l80,80a7.99984,7.99984,0,0,0,11.31348-11.31348Z"/>
  </g>
</svg>
