<svg id="Flat" xmlns="http://www.w3.org/2000/svg" viewBox="0 0 256 256">
  <g opacity="0.2">
    <circle cx="128" cy="128" r="96"/>
  </g>
  <g>
    <path d="M128,24A104,104,0,1,0,232,128,104.11791,104.11791,0,0,0,128,24Zm0,192a88,88,0,1,1,88-88A88.09957,88.09957,0,0,1,128,216Z"/>
    <path d="M149.94629,86.64844a7.99931,7.99931,0,0,0-11.29785-.59473l-40,36a7.99954,7.99954,0,0,0,0,11.89258l40,36a7.99985,7.99985,0,1,0,10.70312-11.89258L115.959,128l33.39258-30.05371A7.99973,7.99973,0,0,0,149.94629,86.64844Z"/>
  </g>
</svg>
