<svg id="Flat" xmlns="http://www.w3.org/2000/svg" viewBox="0 0 256 256">
  <path d="M224,51.31372V136c0,48.60107-42.98071,88-96,88s-96-39.39893-96-88V51.31372a8,8,0,0,1,13.65674-5.657L67.59839,67.59839l-.00025-.00049a102.88,102.88,0,0,1,120.80372,0l-.00025.00049,21.94165-21.94165A8,8,0,0,1,224,51.31372Z" opacity="0.2"/>
  <path d="M96,140a12,12,0,1,1-12-12A12,12,0,0,1,96,140Zm76-12a12,12,0,1,0,12,12A12,12,0,0,0,172,128Zm60-76.68652V136c0,52.93457-46.6543,96-104,96S24,188.93457,24,136V51.31348a16.00018,16.00018,0,0,1,27.31348-11.314L68.541,57.22656A107.46106,107.46106,0,0,1,92.77881,45.68921a7.92478,7.92478,0,0,1,1.665-.52637,111.63221,111.63221,0,0,1,67.11255,0,7.92788,7.92788,0,0,1,1.6643.52612A107.46719,107.46719,0,0,1,187.46,57.22656L204.68555,40A16.00046,16.00046,0,0,1,232,51.31348Zm-16,.00683L194.05859,73.25488a7.99966,7.99966,0,0,1-10.42871.76514A88.80892,88.80892,0,0,0,168,64.75317V88a8,8,0,0,1-16,0V59.06152a96.03574,96.03574,0,0,0-16-2.72021V88a8,8,0,0,1-16,0V56.34131a96.0104,96.0104,0,0,0-16,2.72046V88a8,8,0,0,1-16,0V64.75293A88.85049,88.85049,0,0,0,72.36816,74.02a7.99973,7.99973,0,0,1-10.42773-.76514L40.00488,51.31836,40,136c0,41.6604,35.21216,75.979,80,79.666V195.314l-13.65723-13.65722a8.00018,8.00018,0,0,1,11.31446-11.31348L128,180.68652l10.34277-10.34326a8.00018,8.00018,0,0,1,11.31446,11.31348L136,195.314V215.666c44.78784-3.687,80-38.00562,80-79.666Z"/>
</svg>
