<svg xmlns="http://www.w3.org/2000/svg" viewBox="0 0 256 256"><path d="M224,51.3V136c0,48.6-43,88-96,88s-96-39.4-96-88V51.3a8,8,0,0,1,13.7-5.6L67.6,67.6h0A100.8,100.8,0,0,1,128,48a100.8,100.8,0,0,1,60.4,19.6h0l21.9-21.9A8,8,0,0,1,224,51.3Z" opacity="0.2"/><path d="M96,140a12,12,0,1,1-12-12A12,12,0,0,1,96,140Zm76-12a12,12,0,1,0,12,12A12,12,0,0,0,172,128Zm60-76.7V136c0,52.9-46.7,96-104,96S24,188.9,24,136V51.3A16,16,0,0,1,51.3,40L68.5,57.2A106.2,106.2,0,0,1,92.8,45.7l1.6-.5a111.2,111.2,0,0,1,67.2,0l1.6.5a106.2,106.2,0,0,1,24.3,11.5L204.7,40A16,16,0,0,1,232,51.3Zm-16,0-21.9,22a8.1,8.1,0,0,1-10.5.7A84.1,84.1,0,0,0,168,64.8V88a8,8,0,0,1-16,0V59.1a95.7,95.7,0,0,0-16-2.8V88a8,8,0,0,1-16,0V56.3a95.7,95.7,0,0,0-16,2.8V88a8,8,0,0,1-16,0V64.8A84.1,84.1,0,0,0,72.4,74a8.1,8.1,0,0,1-10.5-.7L40,51.3V136c0,41.7,35.2,76,80,79.7V195.3l-13.7-13.6a8.1,8.1,0,0,1,11.4-11.4L128,180.7l10.3-10.4a8.1,8.1,0,0,1,11.4,11.4L136,195.3v20.4c44.8-3.7,80-38,80-79.7Z"/></svg>