<svg xmlns="http://www.w3.org/2000/svg" viewBox="0 0 256 256"><g opacity="0.2"><path d="M200,43.3V208a8,8,0,0,1-8,8H27.3a8,8,0,0,1-5.6-13.7L186.3,37.7A8,8,0,0,1,200,43.3Z"/></g><path d="M211.3,128l18.4-18.3a8.1,8.1,0,0,0-11.4-11.4L200,116.7,181.7,98.3a8.1,8.1,0,0,0-11.4,11.4L188.7,128l-18.4,18.3a8.1,8.1,0,0,0,0,11.4,8.2,8.2,0,0,0,11.4,0L200,139.3l18.3,18.4a8.2,8.2,0,0,0,11.4,0,8.1,8.1,0,0,0,0-11.4Z"/><path d="M200,165.3a8,8,0,0,0-8,8V208H27.3L192,43.3V82.7a8,8,0,0,0,16,0V43.3A16,16,0,0,0,180.7,32L16,196.7A16,16,0,0,0,27.3,224H192a16,16,0,0,0,16-16V173.3A8,8,0,0,0,200,165.3Z"/></svg>