<svg id="Flat" xmlns="http://www.w3.org/2000/svg" viewBox="0 0 256 256">
  <g opacity="0.2">
    <path d="M80,216H27.31371a8,8,0,0,1-5.65686-13.65685L80,144Z"/>
  </g>
  <path d="M198.12305,28.53186a15.95462,15.95462,0,0,0-17.4375,3.46826L74.34424,138.34241l-.00195.00195L16.001,196.68616a15.99945,15.99945,0,0,0,11.3125,27.314H192a16.01833,16.01833,0,0,0,16-16V43.3136A15.95272,15.95272,0,0,0,198.12305,28.53186ZM72,163.316V207.9967l-44.68066-.00146Zm120,44.68408L88,207.9967V147.31653L192,43.32043Z"/>
</svg>
