<svg id="Flat" xmlns="http://www.w3.org/2000/svg" viewBox="0 0 256 256">
  <g opacity="0.2">
    <path d="M199.99414,43.32213V208.00842a8,8,0,0,1-8,8H27.30785A8,8,0,0,1,21.651,202.35157L186.33729,37.66528A8,8,0,0,1,199.99414,43.32213Z"/>
  </g>
  <g>
    <path d="M141.06494,94.24866,192,43.32092V159.64319a8,8,0,0,0,16,0V43.31409a15.99974,15.99974,0,0,0-27.31348-11.31446L129.75146,82.9342a8.00018,8.00018,0,0,0,11.31348,11.31446Z"/>
    <path d="M214.2179,221.02112c.13305-.16455.25982-.33252.378-.50537.02789-.04053.054-.082.08111-.12354.113-.17187.22034-.34619.31879-.52441.03027-.05469.05792-.11084.087-.16651.08771-.16845.17133-.33838.2464-.51123.03327-.07666.06293-.15478.09387-.23242.06226-.15723.12195-.31494.17395-.4751.032-.09814.05945-.19775.08771-.29736.04145-.147.08087-.29395.11377-.44238.02472-.11133.04486-.22364.06494-.33643.02558-.144.04865-.28857.06629-.43408.0141-.11621.02441-.23291.03351-.35059.01129-.14648.0191-.29345.02227-.44043.00135-.061.00916-.12011.00916-.18164s-.00781-.12109-.00922-.18213c-.00323-.13818-.0105-.27587-.02087-.41406-.01-.13428-.022-.26806-.03851-.40039-.01465-.1167-.03327-.23193-.053-.34766-.02539-.1499-.05292-.29834-.08649-.44531-.02222-.09668-.04822-.19189-.074-.28808-.04321-.16065-.08886-.31983-.14166-.47657-.02765-.082-.0589-.16308-.08935-.24414-.0622-.1665-.12745-.33056-.2002-.49121-.03192-.0708-.067-.14013-.101-.21-.08289-.16943-.16968-.33642-.26392-.49951-.03357-.05762-.06921-.11426-.10431-.17139-.1065-.17383-.2182-.34326-.33722-.50781-.03235-.04443-.06573-.08838-.09906-.13232q-.19886-.26369-.41784-.50928c-.01551-.01709-.02814-.03613-.04383-.05322l-160-176A8.00024,8.00024,0,1,0,42.0752,45.39026l59.62866,65.59179L16,196.68616a15.99962,15.99962,0,0,0,11.31348,27.31347H207.82361c.05792.00147.11554.00879.17346.00879a7.98921,7.98921,0,0,0,3.10931-.63672l.00538-.00244q.34872-.14721.68518-.33008l.02349-.01269q.31833-.17358.62348-.37891l.0473-.03174q.28491-.19482.55615-.416l.06989-.05762c.08594-.07226.175-.13769.25873-.21387.07837-.07129.14648-.14892.22137-.22265.03711-.03662.07361-.07324.11-.11084.14727-.15039.288-.3042.42114-.46338C214.15894,221.09534,214.18811,221.05823,214.2179,221.02112ZM112.47906,122.83459l77.42237,85.16455-162.58258-.00439Z"/>
  </g>
</svg>
