<svg id="Flat" xmlns="http://www.w3.org/2000/svg" viewBox="0 0 256 256">
  <g opacity="0.2">
    <path d="M33.60061,145.5506A96.15147,96.15147,0,0,1,95.99845,37.46313V109.5252Z"/>
  </g>
  <g>
    <path d="M99.99854,116.45337a8.00012,8.00012,0,0,0,4-6.92822v-72.062a8.00029,8.00029,0,0,0-10.666-7.54272,104.15035,104.15035,0,0,0-67.59863,117.0835,7.99987,7.99987,0,0,0,11.8667,5.47485Zm-12-66.86353v55.31641L40.11621,132.551Q40.00048,130.27832,40,128A88.20107,88.20107,0,0,1,87.99854,49.58984Z"/>
    <path d="M218.27118,76.39893c-.06738-.13306-.12872-.26807-.20429-.39893-.10235-.17725-.21624-.34375-.32977-.51A104.0513,104.0513,0,0,0,128,24a8.00008,8.00008,0,0,0-8,8v91.3811L40.86133,169.07178A8.00031,8.00031,0,0,0,37.93311,180c.03363.05835.076.10791.11084.165.08837.17944.17614.35913.27929.53418A104.0111,104.0111,0,0,0,232,128,103.36346,103.36346,0,0,0,218.27118,76.39893ZM136,40.36743a88.02937,88.02937,0,0,1,63.8667,36.90283L136,114.14355ZM128,216a88.45937,88.45937,0,0,1-71.88879-37.25732l151.77459-87.627A87.9799,87.9799,0,0,1,128,216Z"/>
  </g>
</svg>
