<svg id="Flat" xmlns="http://www.w3.org/2000/svg" viewBox="0 0 256 256">
  <g opacity="0.2">
    <path d="M128,128,44.86156,176l-.01368.00827A96.02522,96.02522,0,0,1,128,32Z"/>
  </g>
  <path d="M218.27118,76.39893c-.06738-.13331-.12872-.26807-.20429-.39893-.10229-.17725-.21606-.34326-.32946-.50977A103.97488,103.97488,0,0,0,37.72882,179.60107c.06738.1333.12872.26807.20429.39893.07153.124.15856.23242.23565.35107A103.97541,103.97541,0,0,0,218.27118,76.39893Zm-18.40448.87158L136,114.14355V40.36768A88.02777,88.02777,0,0,1,199.8667,77.27051ZM120,40.36768v83.01367L48.1142,164.88428A87.97545,87.97545,0,0,1,120,40.36768ZM128,216a87.955,87.955,0,0,1-71.8667-37.27051L207.8858,91.11572A87.9799,87.9799,0,0,1,128,216Z"/>
</svg>
