<svg id="Flat" xmlns="http://www.w3.org/2000/svg" viewBox="0 0 256 256">
  <g opacity="0.2">
    <path d="M45.42853,176.99811A95.95978,95.95978,0,1,1,79.00228,210.5717l.00023-.001L45.84594,220.044a8,8,0,0,1-9.89-9.89l9.47331-33.15657Z"/>
  </g>
  <path d="M128,232a103.9544,103.9544,0,0,1-50.041-12.8103l-29.916,8.54663a16.00008,16.00008,0,0,1-19.7793-19.78052l8.54785-29.91406A104.01211,104.01211,0,1,1,128,232ZM79.00293,202.57068a8.00055,8.00055,0,0,1,4.08984,1.12427,87.95519,87.95519,0,1,0-30.78808-30.78589,8.00016,8.00016,0,0,1,.8164,6.28674l-9.47265,33.15588,33.15722-9.47314A7.99056,7.99056,0,0,1,79.00293,202.57068Z"/>
</svg>
