<svg id="Flat" xmlns="http://www.w3.org/2000/svg" viewBox="0 0 256.00098 256.00098">
  <g opacity="0.2">
    <path d="M149.66907,195.88358l-14.80961,24.68269a8,8,0,0,1-13.71989,0l-14.80964-24.68272a8,8,0,0,0-6.85994-3.884H39.99951a8,8,0,0,1-8-8V56a8,8,0,0,1,8-8h176a8,8,0,0,1,8,8V184a8,8,0,0,1-8,8l-59.47039-.00041A8,8,0,0,0,149.66907,195.88358Z"/>
  </g>
  <path d="M127.999,232.4502a15.86929,15.86929,0,0,1-13.71875-7.76758L99.46973,200,40,199.999a16.01833,16.01833,0,0,1-16-16V56A16.01833,16.01833,0,0,1,40,40H216a16.01833,16.01833,0,0,1,16,16V184a16.01853,16.01853,0,0,1-16.001,16H156.5293l-6.86035-4.11621L156.5293,200l-14.80957,24.68262A15.87248,15.87248,0,0,1,127.999,232.4502ZM40,56V183.999H99.46973a16.07989,16.07989,0,0,1,13.71972,7.76856L128,216.4502l14.80859-24.68262h.001A16.08114,16.08114,0,0,1,156.5293,184H215.999L216,56Z"/>
</svg>
