<svg id="Flat" xmlns="http://www.w3.org/2000/svg" viewBox="0 0 256 256">
  <g opacity="0.2">
    <path d="M163.93962,80.09586A71.887,71.887,0,0,1,168,103.99219v.00014a71.99986,71.99986,0,0,1-71.99986,71.99986H92.098v.003a72.0298,72.0298,0,0,0,67.9019,47.997H226a6,6,0,0,0,6-6V151.992a72.00294,72.00294,0,0,0-68.06587-71.8942Z"/>
  </g>
  <path d="M169.56592,72.5788A79.99487,79.99487,0,0,0,16,103.99219v66a14.01573,14.01573,0,0,0,14,14H86.667a80.1557,80.1557,0,0,0,73.333,48h66a14.01573,14.01573,0,0,0,14-14v-66A79.96635,79.96635,0,0,0,169.56592,72.5788ZM32,103.99219a64,64,0,1,1,64,64H32Zm192,112H160a64.14151,64.14151,0,0,1-55.67871-32.43335,79.90546,79.90546,0,0,0,70.37451-93.859A63.99067,63.99067,0,0,1,224,151.99219Z"/>
</svg>
