<svg id="Flat" xmlns="http://www.w3.org/2000/svg" viewBox="0 0 256 256">
  <g opacity="0.2">
    <path d="M45.42853,176.99811A95.95978,95.95978,0,1,1,79.00228,210.5717l.00023-.001L45.84594,220.044a8,8,0,0,1-9.89-9.89l9.47331-33.15657Z"/>
  </g>
  <g>
    <path d="M128,24A104.02816,104.02816,0,0,0,36.81152,178.042l-8.54785,29.91406A15.99977,15.99977,0,0,0,48.043,227.73633l29.916-8.54688A104.00738,104.00738,0,1,0,128,24Zm0,192a87.87156,87.87156,0,0,1-44.90723-12.30469,7.996,7.996,0,0,0-6.28711-.8164l-33.15722,9.47265,9.47265-33.15576a7.99974,7.99974,0,0,0-.8164-6.28662A88.011,88.011,0,1,1,128,216Z"/>
    <path d="M160,104H96a8,8,0,0,0,0,16h64a8,8,0,0,0,0-16Z"/>
    <path d="M160,136H96a8,8,0,0,0,0,16h64a8,8,0,0,0,0-16Z"/>
  </g>
</svg>
