<svg xmlns="http://www.w3.org/2000/svg" viewBox="0 0 256 256"><g opacity="0.2"><path d="M45.4,177A95.9,95.9,0,1,1,79,210.6h0L45.8,220a7.9,7.9,0,0,1-9.8-9.8L45.4,177Z"/></g><path d="M128,24A104,104,0,0,0,36.8,178l-8.5,30A15.9,15.9,0,0,0,48,227.7l30-8.5A104,104,0,1,0,128,24Zm0,192a88.4,88.4,0,0,1-44.9-12.3,8.7,8.7,0,0,0-4.1-1.1,8.3,8.3,0,0,0-2.2.3l-33.2,9.5,9.5-33.2a8.2,8.2,0,0,0-.8-6.3A88,88,0,1,1,128,216Z"/><path d="M160,104H96a8,8,0,0,0,0,16h64a8,8,0,0,0,0-16Z"/><path d="M160,136H96a8,8,0,0,0,0,16h64a8,8,0,0,0,0-16Z"/></svg>