<svg id="Flat" xmlns="http://www.w3.org/2000/svg" viewBox="0 0 256.00098 256.00098">
  <g opacity="0.2">
    <path d="M149.67005,195.88358l-14.80962,24.68269a8,8,0,0,1-13.71989,0l-14.80963-24.68272a8,8,0,0,0-6.85994-3.884H40.00049a8,8,0,0,1-8-8V56a8,8,0,0,1,8-8h176a8,8,0,0,1,8,8V184a8,8,0,0,1-8.00006,8l-59.47038-.00041A8,8,0,0,0,149.67005,195.88358Z"/>
  </g>
  <g>
    <path d="M216.001,40h-176a16.01833,16.01833,0,0,0-16,16V183.999a16.01833,16.01833,0,0,0,16,16L99.4707,200l14.81055,24.68262a16.00023,16.00023,0,0,0,27.43945,0L156.53027,200H216a16.01854,16.01854,0,0,0,16.001-16V56A16.01833,16.01833,0,0,0,216.001,40ZM216,184H156.53027a16.08112,16.08112,0,0,0-13.71972,7.76758h-.001L128.001,216.4502l-14.81055-24.68262A16.07991,16.07991,0,0,0,99.4707,183.999H40.001V56h176Z"/>
    <circle cx="128.00049" cy="120.00049" r="12"/>
    <circle cx="80.00049" cy="120.00049" r="12"/>
    <circle cx="176.00049" cy="120.00049" r="12"/>
  </g>
</svg>
