<svg xmlns="http://www.w3.org/2000/svg" viewBox="0 0 256 256"><g opacity="0.2"><path d="M92.1,175.9a72,72,0,0,0,104.7,38h0l24.8,7.1a6,6,0,0,0,7.4-7.4l-7.1-24.8h0a72,72,0,0,0-58-108.7h0A70.2,70.2,0,0,1,168,104a72,72,0,0,1-72,72Z"/></g><path d="M230.5,189.8A80,80,0,0,0,169.6,72.6,80,80,0,1,0,25.5,141.8l-6.2,21.6a13.9,13.9,0,0,0,17.3,17.3l21.6-6.2a80.8,80.8,0,0,0,28.2,8.9,80,80,0,0,0,111.4,39.1l21.6,6.2a13.9,13.9,0,0,0,17.3-17.3ZM59.3,157.9a7.8,7.8,0,0,0-2.2.3l-21.4,6.2,6.1-21.5a7.9,7.9,0,0,0-.8-6.2A64,64,0,1,1,96,168a64.8,64.8,0,0,1-32.7-8.9A7.2,7.2,0,0,0,59.3,157.9Zm155.8,26.8a7.6,7.6,0,0,0-.9,6.2l6.2,21.5L199,206.2a7.7,7.7,0,0,0-6.3.9,64.2,64.2,0,0,1-88.4-23.5A80.2,80.2,0,0,0,176,104a84.5,84.5,0,0,0-1.3-14.3A64,64,0,0,1,224,152,64.8,64.8,0,0,1,215.1,184.7Z"/></svg>