<svg xmlns="http://www.w3.org/2000/svg" viewBox="0 0 256 256"><g opacity="0.2"><path d="M149.7,195.9l-14.8,24.7a8.1,8.1,0,0,1-13.8,0l-14.8-24.7a7.9,7.9,0,0,0-6.8-3.9H40a8,8,0,0,1-8-8V56a8,8,0,0,1,8-8H216a8,8,0,0,1,8,8V184a8,8,0,0,1-8,8H156.5A7.9,7.9,0,0,0,149.7,195.9Z"/></g><path d="M128,232.4a15.9,15.9,0,0,1-13.7-7.7L99.5,200H40a16,16,0,0,1-16-16V56A16,16,0,0,1,40,40H216a16,16,0,0,1,16,16V184a16,16,0,0,1-16,16H156.5l-6.8-4.1,6.8,4.1-14.8,24.7A15.9,15.9,0,0,1,128,232.4ZM40,56V184H99.5a16.1,16.1,0,0,1,13.7,7.8L128,216.4l14.8-24.6h0a16.2,16.2,0,0,1,13.7-7.8H216V56Z"/></svg>