<svg id="Flat" xmlns="http://www.w3.org/2000/svg" viewBox="0 0 256.00098 256.00098">
  <g opacity="0.2">
    <path d="M77.98509,201.34409,45.14832,228.94793a8,8,0,0,1-13.14783-6.12372V64.00049a8,8,0,0,1,8-8h176a8,8,0,0,1,8,8v128a8,8,0,0,1-8,8H81.67142Z"/>
  </g>
  <path d="M40.04248,238.84949a16.07206,16.07206,0,0,1-6.79687-1.52124,15.84959,15.84959,0,0,1-9.24512-14.504V64.00049a16.01825,16.01825,0,0,1,16-16h176a16.01826,16.01826,0,0,1,16,16v128a16.01818,16.01818,0,0,1-16,16H82.49951l-5.14844-6.12366,5.14747,6.12378L50.29541,235.07166A15.88781,15.88781,0,0,1,40.04248,238.84949Zm-.042-174.849V222.81873l32.20312-27.06556.001-.00134a16.02751,16.02751,0,0,1,10.29492-3.75134h133.501v-128Z"/>
</svg>
