<svg xmlns="http://www.w3.org/2000/svg" viewBox="0 0 256 256"><g opacity="0.2"><path d="M163.9,80.1A70.2,70.2,0,0,1,168,104h0a72,72,0,0,1-72,72H92.1A72,72,0,0,0,160,224h66a6,6,0,0,0,6-6V152a72,72,0,0,0-68.1-71.9Z"/></g><path d="M169.6,72.6A80,80,0,0,0,16,104v66a14,14,0,0,0,14,14H86.7A80.2,80.2,0,0,0,160,232h66a14,14,0,0,0,14-14V152A79.8,79.8,0,0,0,169.6,72.6ZM32,104a64,64,0,1,1,64,64H32ZM224,216H160a64.2,64.2,0,0,1-55.7-32.4A80.2,80.2,0,0,0,176,104a83.6,83.6,0,0,0-1.3-14.3A64,64,0,0,1,224,152Z"/></svg>