<svg id="Flat" xmlns="http://www.w3.org/2000/svg" viewBox="0 0 256.00098 256.00098">
  <g opacity="0.2">
    <path d="M149.66907,195.88358l-14.80961,24.68269a8,8,0,0,1-13.71989,0l-14.80964-24.68272a8,8,0,0,0-6.85994-3.884H39.99951a8,8,0,0,1-8-8V56a8,8,0,0,1,8-8h176a8,8,0,0,1,8,8V184a8,8,0,0,1-8,8l-59.47039-.00041A8,8,0,0,0,149.66907,195.88358Z"/>
  </g>
  <g>
    <path d="M96,111.999h64a8,8,0,0,0,0-16H96a8,8,0,0,0,0,16Z"/>
    <path d="M96,143.999h64a8,8,0,0,0,0-16H96a8,8,0,0,0,0,16Z"/>
    <path d="M216,40H40A16.01833,16.01833,0,0,0,24,56V183.999a16.01833,16.01833,0,0,0,16,16L99.46973,200l14.81054,24.68262a16.00024,16.00024,0,0,0,27.43946,0L156.5293,200H215.999A16.01853,16.01853,0,0,0,232,184V56A16.01833,16.01833,0,0,0,216,40Zm-.001,144H156.5293a16.08114,16.08114,0,0,0-13.71973,7.76758h-.001L128,216.4502l-14.81055-24.68262A16.07989,16.07989,0,0,0,99.46973,183.999H40V56H216Z"/>
  </g>
</svg>
