<svg xmlns="http://www.w3.org/2000/svg" viewBox="0 0 256 256"><g opacity="0.2"><path d="M78,201.3,45.1,228.9A8,8,0,0,1,32,222.8V64a8,8,0,0,1,8-8H216a8,8,0,0,1,8,8V192a8,8,0,0,1-8,8H81.7Z"/></g><path d="M216,48H40A16,16,0,0,0,24,64V222.8a15.7,15.7,0,0,0,9.2,14.5,16.5,16.5,0,0,0,6.8,1.6,16,16,0,0,0,10.3-3.8L82,208.4l1.1-.4H216a16,16,0,0,0,16-16V64A16,16,0,0,0,216,48Zm0,144H81.7a8.7,8.7,0,0,0-2.8.5l-3.7,1.3a10,10,0,0,0-2.4,1.4L40,222.8V64H216Z"/><path d="M96,120h64a8,8,0,0,0,0-16H96a8,8,0,0,0,0,16Z"/><path d="M96,152h64a8,8,0,0,0,0-16H96a8,8,0,0,0,0,16Z"/></svg>