<svg xmlns="http://www.w3.org/2000/svg" viewBox="0 0 256 256"><g opacity="0.2"><path d="M78,201.3,45.1,228.9A8,8,0,0,1,32,222.8V64a8,8,0,0,1,8-8H216a8,8,0,0,1,8,8V192a8,8,0,0,1-8,8H81.7Z"/></g><path d="M82.5,208H216a16,16,0,0,0,16-16V64a16,16,0,0,0-16-16H40A16,16,0,0,0,24,64V222.8a15.7,15.7,0,0,0,9.2,14.5,15.1,15.1,0,0,0,6.8,1.6,16,16,0,0,0,10.3-3.8L82.5,208M216,192H82.5a15.6,15.6,0,0,0-10.3,3.8h0L40,222.8V64H216Z"/><circle cx="128" cy="128" r="12"/><circle cx="80" cy="128" r="12"/><circle cx="176" cy="128" r="12"/></svg>