<svg xmlns="http://www.w3.org/2000/svg" viewBox="0 0 256 256"><g opacity="0.2"><path d="M149.7,195.9l-14.8,24.7a8.1,8.1,0,0,1-13.8,0l-14.8-24.7a7.9,7.9,0,0,0-6.8-3.9H40a8,8,0,0,1-8-8V56a8,8,0,0,1,8-8H216a8,8,0,0,1,8,8V184a8,8,0,0,1-8,8H156.5A7.9,7.9,0,0,0,149.7,195.9Z"/></g><path d="M216,40H40A16,16,0,0,0,24,56V184a16,16,0,0,0,16,16H99.5l14.8,24.7a15.9,15.9,0,0,0,27.4,0L156.5,200H216a16,16,0,0,0,16-16V56A16,16,0,0,0,216,40Zm0,144H156.5a16.2,16.2,0,0,0-13.7,7.8h0L128,216.5l-14.8-24.7A16.1,16.1,0,0,0,99.5,184H40V56H216Z"/><circle cx="128" cy="120" r="12"/><circle cx="80" cy="120" r="12"/><circle cx="176" cy="120" r="12"/></svg>