<svg id="Flat" xmlns="http://www.w3.org/2000/svg" viewBox="0 0 256 256">
  <g opacity="0.2">
    <circle cx="128" cy="128" r="96"/>
  </g>
  <g>
    <path d="M166.47607,98.2135,113.3335,148.94055,89.523,126.213a7.99994,7.99994,0,1,0-11.04688,11.57422l29.334,28a7.99913,7.99913,0,0,0,11.04687-.00049l58.666-56A7.99959,7.99959,0,1,0,166.47607,98.2135Z"/>
    <path d="M127.99951,24.00012a104,104,0,1,0,104,104A104.11791,104.11791,0,0,0,127.99951,24.00012Zm0,192a88,88,0,1,1,88-88A88.09957,88.09957,0,0,1,127.99951,216.00012Z"/>
  </g>
</svg>
