<svg id="Flat" xmlns="http://www.w3.org/2000/svg" viewBox="0 0 256 256">
  <g opacity="0.2">
    <polygon points="44 44 44 196 60 212 212 212 212 44 44 44"/>
  </g>
  <g>
    <path d="M204,36.00012H52a16.01833,16.01833,0,0,0-16,16v91.27246a8,8,0,0,0,16,0V52.00012H204v152H135.63574a8,8,0,0,0,0,16H204a16.01833,16.01833,0,0,0,16-16v-152A16.01833,16.01833,0,0,0,204,36.00012Z"/>
    <path d="M133.65723,146.34338a8.00122,8.00122,0,0,0-11.31446,0L64,204.68664,37.65723,178.34338a8.00018,8.00018,0,1,0-11.31446,11.31348l32,32a8.00063,8.00063,0,0,0,11.31446,0l64-64A8,8,0,0,0,133.65723,146.34338Z"/>
  </g>
</svg>
