<svg id="Flat" xmlns="http://www.w3.org/2000/svg" viewBox="0 0 256 256">
  <path d="M232,128.00049c0,12.50488-17.82056,21.95141-22.67676,33.68872-4.68481,11.32251,1.41992,30.64575-7.78418,39.84985s-28.52734,3.09937-39.8501,7.78418C149.95166,214.17969,140.50488,232,127.99951,232c-12.50488,0-21.95166-17.82056-33.68872-22.67676-11.32251-4.68481-30.646,1.41992-39.84985-7.78418-9.2041-9.2041-3.09937-28.52734-7.78418-39.8501C41.82031,149.95166,24,140.50488,24,127.99951c0-12.50488,17.82056-21.95166,22.67676-33.68872,4.68481-11.32251-1.41992-30.646,7.78418-39.84985,9.2041-9.2041,28.52734-3.09937,39.8501-7.78418C106.04834,41.82031,115.49512,24,128.00049,24c12.50488,0,21.95166,17.82031,33.68872,22.67676,11.32251,4.68481,30.646-1.41992,39.84985,7.78418,9.2041,9.2041,3.09937,28.52734,7.78418,39.8501C214.17969,106.04834,232,115.49512,232,128.00049Z" opacity="0.2"/>
  <path d="M225.8623,102.81543c-3.77246-3.93359-7.67285-8-9.14648-11.56348-1.35449-3.27343-1.43652-8.69531-1.51562-13.93945-.14747-9.75879-.31446-20.81934-8.00391-28.50879s-18.75-7.85644-28.50879-8.00391c-5.24414-.0791-10.666-.16113-13.93945-1.51562-3.5625-1.47363-7.62989-5.374-11.56348-9.14648C146.27539,23.51074,138.44238,16,128,16s-18.27441,7.51074-25.18457,14.1377c-3.93359,3.77246-8,7.67285-11.56348,9.14648-3.27343,1.35449-8.69531,1.43652-13.93945,1.51562-9.75879.14747-20.81934.31446-28.50879,8.00391s-7.85644,18.75-8.00391,28.50879c-.0791,5.24414-.16113,10.666-1.51562,13.93945-1.47363,3.5625-5.374,7.62989-9.14648,11.56348C23.51074,109.72461,16,117.55762,16,128s7.51074,18.27441,14.1377,25.18457c3.77246,3.93359,7.67285,8,9.14648,11.56348,1.35449,3.27343,1.43652,8.69531,1.51562,13.93945.14747,9.75879.31446,20.81934,8.00391,28.50879s18.75,7.85644,28.50879,8.00391c5.24414.0791,10.666.16113,13.93945,1.51562,3.5625,1.47363,7.62989,5.374,11.56348,9.14648C109.72461,232.48926,117.55762,240,128,240s18.27441-7.51074,25.18457-14.1377c3.93359-3.77246,8-7.67285,11.56348-9.14648,3.27343-1.35449,8.69531-1.43652,13.93945-1.51562,9.75879-.14747,20.81934-.31446,28.50879-8.00391s7.85644-18.75,8.00391-28.50879c.0791-5.24414.16113-10.666,1.51562-13.93945,1.47363-3.5625,5.374-7.62989,9.14648-11.56348C232.48926,146.27539,240,138.44238,240,128S232.48926,109.72559,225.8623,102.81543Zm-11.54785,39.29492c-4.79687,5.00195-9.75781,10.17383-12.38379,16.52051-2.52148,6.09473-2.62695,13.07031-2.72851,19.81543-.10645,7.0459-.2168,14.333-3.32031,17.43555-3.10254,3.10351-10.38965,3.21386-17.43555,3.32031-6.74512.10156-13.7207.207-19.81543,2.72851-6.34668,2.626-11.51856,7.58692-16.52051,12.38379C137.14453,219.07617,132.00977,224,128,224c-4.01074,0-9.14551-4.92383-14.11035-9.68555-5.002-4.79687-10.17383-9.75781-16.52051-12.38379-6.09473-2.52148-13.07031-2.62695-19.81543-2.72851-7.0459-.10645-14.333-.2168-17.43555-3.32031-3.10351-3.10254-3.21386-10.38965-3.32031-17.43555-.10156-6.74512-.207-13.7207-2.72851-19.81543-2.626-6.34668-7.58692-11.51856-12.38379-16.52051C36.92383,137.14453,32,132.00977,32,128c0-4.01074,4.92383-9.14551,9.68555-14.11035,4.79687-5.002,9.75781-10.17383,12.38379-16.52051,2.52148-6.09473,2.627-13.07031,2.72851-19.81543.10645-7.0459.2168-14.333,3.32031-17.43555,3.10254-3.10351,10.38965-3.21386,17.43555-3.32031,6.74512-.10156,13.7207-.207,19.81543-2.72851,6.34668-2.626,11.51856-7.58692,16.52051-12.38379C118.85547,36.92383,123.99023,32,128,32c4.01074,0,9.14551,4.92383,14.11035,9.68555,5.00195,4.79687,10.17383,9.75781,16.52051,12.38379,6.09473,2.52148,13.07031,2.627,19.81543,2.72851,7.0459.10645,14.333.2168,17.43555,3.32031,3.10351,3.10254,3.21386,10.38965,3.32031,17.43555.10156,6.74512.207,13.7207,2.72851,19.81543,2.626,6.34668,7.58692,11.51856,12.38379,16.52051C219.07617,118.85547,224,123.99023,224,128,224,132.01074,219.07617,137.14551,214.31445,142.11035ZM119.999,136V80a8,8,0,0,1,16,0v56a8,8,0,0,1-16,0Zm20.00049,36a12,12,0,1,1-12-12A12,12,0,0,1,139.99951,172Z"/>
</svg>
