<svg id="Flat" xmlns="http://www.w3.org/2000/svg" viewBox="0 0 256 256">
  <g opacity="0.2">
    <circle cx="76" cy="180" r="36"/>
  </g>
  <g opacity="0.2">
    <circle cx="76" cy="76" r="36"/>
  </g>
  <g opacity="0.2">
    <circle cx="180" cy="76" r="36"/>
  </g>
  <g opacity="0.2">
    <circle cx="180" cy="180" r="36"/>
  </g>
  <g>
    <path d="M76,32a44,44,0,1,0,44,44A44.04978,44.04978,0,0,0,76,32Zm0,72a28,28,0,1,1,28-28A28.03146,28.03146,0,0,1,76,104Z"/>
    <path d="M180,120a44,44,0,1,0-44-44A44.04978,44.04978,0,0,0,180,120Zm0-72a28,28,0,1,1-28,28A28.03146,28.03146,0,0,1,180,48Z"/>
    <path d="M180,136a44,44,0,1,0,44,44A44.04978,44.04978,0,0,0,180,136Zm0,72a28,28,0,1,1,28-28A28.03146,28.03146,0,0,1,180,208Z"/>
    <path d="M76,136a44,44,0,1,0,44,44A44.04978,44.04978,0,0,0,76,136Zm0,72a28,28,0,1,1,28-28A28.03146,28.03146,0,0,1,76,208Z"/>
  </g>
</svg>
