<svg id="Flat" xmlns="http://www.w3.org/2000/svg" viewBox="0 0 256 256">
  <path d="M232,128.00049c0,12.50488-17.82031,21.95166-22.67676,33.689-4.68457,11.32227,1.41992,30.64551-7.78418,39.84961s-28.52734,3.09961-39.8501,7.78418C149.95166,214.17969,140.50488,232,127.99951,232c-12.50488,0-21.95166-17.82031-33.689-22.67676-11.32227-4.68506-30.64551,1.41992-39.84961-7.78418s-3.09961-28.52734-7.78418-39.8501C41.82031,149.95166,24,140.50488,24,127.99951c0-12.50488,17.82031-21.95166,22.67676-33.689,4.68506-11.32227-1.41992-30.64551,7.78418-39.84961s28.52734-3.09961,39.8501-7.78418C106.04834,41.82031,115.49512,24,128.00049,24c12.50488,0,21.95166,17.82031,33.689,22.67676,11.32227,4.68457,30.64551-1.41992,39.84961,7.78418s3.09961,28.52734,7.78418,39.8501C214.17969,106.04834,232,115.49512,232,128.00049Z" opacity="0.2"/>
  <path d="M225.8623,102.81543c-3.77246-3.93359-7.67285-8-9.14648-11.56348-1.35449-3.27343-1.43652-8.69629-1.51562-13.93945-.14747-9.75879-.31446-20.81934-8.00391-28.50879s-18.75-7.85644-28.50879-8.00391c-5.24414-.0791-10.6665-.16113-13.93945-1.51562-3.56348-1.47363-7.63037-5.374-11.56348-9.14648C146.27441,23.51074,138.44287,16,128.00049,16c-10.44287,0-18.2749,7.51074-25.18506,14.1377-3.93262,3.77246-8,7.67285-11.5625,9.14648-3.27344,1.35449-8.69629,1.43652-13.94043,1.51562-9.7583.14747-20.81885.31446-28.5083,8.00391-7.68994,7.68945-7.85693,18.75-8.0044,28.50879-.0791,5.24316-.16113,10.666-1.51562,13.93945-1.47363,3.56348-5.374,7.62989-9.14648,11.56348C23.51074,109.72559,16,117.55762,16,128s7.51074,18.27441,14.1377,25.18457c3.77246,3.93359,7.67285,8,9.14648,11.56348,1.35449,3.27343,1.43652,8.69629,1.51562,13.93945.14747,9.75879.31446,20.81934,8.00391,28.50879s18.75,7.85644,28.50879,8.00391c5.24414.0791,10.6665.16113,13.93945,1.51562,3.56348,1.47363,7.63037,5.374,11.56348,9.14648,6.91016,6.627,14.7417,14.1377,25.18408,14.1377,10.44287,0,18.2749-7.51074,25.18506-14.1377,3.93262-3.77246,8-7.67285,11.5625-9.14648,3.27344-1.35449,8.69629-1.43652,13.94043-1.51562,9.7583-.14747,20.81885-.31446,28.5083-8.00391,7.68994-7.68945,7.85693-18.75,8.0044-28.50879.0791-5.24316.16113-10.666,1.51562-13.93945,1.47363-3.56348,5.374-7.62989,9.14648-11.56348C232.48926,146.27441,240,138.44238,240,128S232.48926,109.72559,225.8623,102.81543Zm-11.54785,39.29492c-4.79736,5.00195-9.75781,10.17383-12.3833,16.52051-2.522,6.09473-2.62744,13.07031-2.72949,19.81543-.10645,7.04687-.21631,14.333-3.31934,17.43555-3.103,3.10351-10.39013,3.21386-17.43652,3.32031-6.7456.10156-13.72021.207-19.81543,2.72851-6.34619,2.626-11.519,7.58692-16.521,12.38379C137.14453,219.07617,132.00977,224,127.99951,224s-9.144-4.92383-14.10937-9.68555c-5.002-4.79687-10.17432-9.75781-16.521-12.38379-6.09473-2.52148-13.06982-2.62695-19.81494-2.72851-7.04688-.10645-14.3335-.2168-17.436-3.32031h-.00048c-3.103-3.10254-3.21289-10.38868-3.31934-17.43555-.10205-6.74512-.20752-13.7207-2.72949-19.81543-2.62549-6.34668-7.58643-11.51856-12.3833-16.52051C36.92383,137.14453,32,132.00977,32,128c0-4.01074,4.92383-9.14453,9.68555-14.11035,4.79736-5.002,9.75781-10.17383,12.3833-16.52051,2.522-6.09473,2.62744-13.07031,2.72949-19.81543.10645-7.04687.21631-14.333,3.31934-17.43555,3.103-3.10351,10.39013-3.21386,17.43652-3.32031,6.7456-.10156,13.72021-.207,19.81543-2.72851,6.34619-2.626,11.519-7.58692,16.521-12.38379C118.85547,36.92383,123.99023,32,128.00049,32s9.144,4.92383,14.10937,9.68555c5.002,4.79687,10.17432,9.75781,16.521,12.38379,6.09473,2.52148,13.06982,2.627,19.81494,2.72851,7.04688.10645,14.3335.2168,17.43652,3.32031,3.103,3.10254,3.21289,10.38868,3.31934,17.43555.102,6.74512.20752,13.7207,2.72949,19.81543,2.62549,6.34668,7.58643,11.51856,12.3833,16.52051C219.07617,118.85547,224,123.99023,224,128,224,132.01074,219.07617,137.14453,214.31445,142.11035Z"/>
</svg>
