<svg xmlns="http://www.w3.org/2000/svg" viewBox="0 0 256 256"><g opacity="0.2"><circle cx="128" cy="68" r="40"/></g><g opacity="0.2"><circle cx="188" cy="172" r="40"/></g><g opacity="0.2"><circle cx="68" cy="172" r="40"/></g><path d="M176,68a48,48,0,1,0-48,48A48,48,0,0,0,176,68Zm-48,32a32,32,0,1,1,32-32A32.1,32.1,0,0,1,128,100Z"/><path d="M188,124a48,48,0,1,0,48,48A48,48,0,0,0,188,124Zm0,80a32,32,0,1,1,32-32A32.1,32.1,0,0,1,188,204Z"/><path d="M68,124a48,48,0,1,0,48,48A48,48,0,0,0,68,124Zm0,80a32,32,0,1,1,32-32A32.1,32.1,0,0,1,68,204Z"/></svg>