<svg id="Flat" xmlns="http://www.w3.org/2000/svg" viewBox="0 0 256 256">
  <g opacity="0.2">
    <path d="M195.88225,60.11775a96,96,0,0,1-135.7645,135.7645"/>
  </g>
  <path d="M201.53906,54.46094A103.99994,103.99994,0,1,0,54.46094,201.53906,103.99994,103.99994,0,1,0,201.53906,54.46094ZM65.77539,65.77441a88.08476,88.08476,0,0,1,118.52368-5.38794L60.38086,184.30579A87.98425,87.98425,0,0,1,65.77539,65.77441ZM190.22461,190.22559a88.1076,88.1076,0,0,1-118.52368,5.38794L195.61938,71.69421a87.98462,87.98462,0,0,1-5.39477,118.53138Z"/>
</svg>
