<svg id="Flat" xmlns="http://www.w3.org/2000/svg" viewBox="0 0 256 256">
  <path d="M208,48V216a7.99977,7.99977,0,0,1-8,8H56a7.99977,7.99977,0,0,1-8-8V48a7.99977,7.99977,0,0,1,8-8H95.99951A39.82135,39.82135,0,0,0,88,64v8h80V64a39.82135,39.82135,0,0,0-7.99951-24H200A7.99977,7.99977,0,0,1,208,48Z" opacity="0.2"/>
  <path d="M200,32H163.73877a47.91437,47.91437,0,0,0-71.47754,0H56A16.01833,16.01833,0,0,0,40,48V216a16.01833,16.01833,0,0,0,16,16H200a16.01833,16.01833,0,0,0,16-16V48A16.01833,16.01833,0,0,0,200,32Zm-72,0a32.03667,32.03667,0,0,1,32,32H96A32.03667,32.03667,0,0,1,128,32Zm72,184H56V48H82.75195A47.77642,47.77642,0,0,0,80,64v8a8.00039,8.00039,0,0,0,8,8h80a8.00039,8.00039,0,0,0,8-8V64a47.77642,47.77642,0,0,0-2.75195-16H200Z"/>
</svg>
