<svg id="Flat" xmlns="http://www.w3.org/2000/svg" viewBox="0 0 256 256">
  <path d="M208,48V216a7.99977,7.99977,0,0,1-8,8H56a7.99977,7.99977,0,0,1-8-8V48a7.99977,7.99977,0,0,1,8-8H95.99951A39.82135,39.82135,0,0,0,88,64v8h80V64a39.82135,39.82135,0,0,0-7.99951-24H200A7.99977,7.99977,0,0,1,208,48Z" opacity="0.2"/>
  <path d="M168,152a8.00039,8.00039,0,0,1-8,8H96a8,8,0,0,1,0-16h64A8.00039,8.00039,0,0,1,168,152Zm-8-40H96a8,8,0,0,0,0,16h64a8,8,0,0,0,0-16Zm56-64V216a16.01833,16.01833,0,0,1-16,16H56a16.01833,16.01833,0,0,1-16-16V48A16.01833,16.01833,0,0,1,56,32H92.26123a47.91437,47.91437,0,0,1,71.47754,0H200A16.01833,16.01833,0,0,1,216,48ZM96,64h64a32,32,0,0,0-64,0ZM200,48H173.24805A47.77642,47.77642,0,0,1,176,64v8a8.00039,8.00039,0,0,1-8,8H88a8.00039,8.00039,0,0,1-8-8V64a47.77642,47.77642,0,0,1,2.75195-16H56V216H200Z"/>
</svg>
