<svg id="Flat" xmlns="http://www.w3.org/2000/svg" viewBox="0 0 256 256">
  <g opacity="0.2">
    <circle cx="128" cy="128" r="96"/>
  </g>
  <g>
    <path d="M128,24A104,104,0,1,0,232,128,104.11791,104.11791,0,0,0,128,24Zm0,192a88,88,0,1,1,88-88A88.09957,88.09957,0,0,1,128,216Z"/>
    <path d="M184,120H128.00146q-.39624,0-.7915.04c-.11523.01123-.22754.0332-.34131.04932-.14453.0205-.28955.03759-.43261.06591-.13233.02637-.25977.0625-.38965.09522-.12305.03076-.24707.0581-.36914.09472-.12842.03907-.252.08692-.37745.13233-.1206.043-.24218.08252-.36132.13184-.11719.04882-.23.10595-.34473.16015-.12207.05762-.24512.11182-.36475.17578-.10986.0586-.21435.126-.32129.18994-.11718.06983-.23535.13575-.3496.21241-.11963.07959-.23194.16845-.34668.25439-.09375.0708-.18995.13574-.28174.21094a8.04468,8.04468,0,0,0-1.1167,1.1167c-.07373.08984-.1377.18457-.20654.27636-.0879.1167-.17823.23145-.25977.353-.07471.11182-.13916.22754-.208.34229-.06494.10937-.13379.21582-.19385.32861-.0625.1167-.11572.23731-.17187.35693-.05566.11719-.11426.23243-.16406.353-.04785.11572-.08643.23389-.12842.35108-.04639.12841-.0957.25586-.13574.38769-.03565.11817-.06153.23779-.0918.35693-.03369.13379-.0708.26563-.09814.40186-.02686.1377-.04346.27637-.063.41553-.01758.11963-.04.23681-.05176.3584q-.03808.38232-.03906.7666L120,128l.001.022q.00145.38452.03906.7666c.01172.12159.03418.23877.05176.3584.01953.13916.03613.27783.063.41553.02734.13623.06445.26807.09814.40186.03027.11914.05615.23877.0918.35693.04.13184.08935.25928.13574.38769.042.11719.08057.23536.12842.35108.0498.1206.1084.23584.16406.353.05615.11962.10937.24023.17187.35693.06006.11279.12891.21924.19385.32861.06885.11475.1333.23047.208.34229.08154.12158.17187.23633.25977.353.06884.09179.13281.18652.20654.27636.16748.2041.34424.40039.53076.58692l39.59766,39.59765a7.99983,7.99983,0,0,0,11.31347-11.31347L147.31348,136H184a8,8,0,0,0,0-16Z"/>
  </g>
</svg>
