<svg xmlns="http://www.w3.org/2000/svg" viewBox="0 0 256 256"><g opacity="0.2"><circle cx="128" cy="128" r="88"/></g><path d="M128,72a8,8,0,0,0-8,8v48.7c0,.1.1.2.1.4v.4c.1.1.1.2.1.4a.4.4,0,0,1,.1.3l.2.4a.4.4,0,0,0,.1.3c0,.2.1.3.1.4l.2.3a.5.5,0,0,0,.2.4l.2.3.2.3.2.4.2.2c.1.1.2.3.4.4l.2.2.3.3.3.2.3.3.4.2h.2l41.6,24a7.1,7.1,0,0,0,4,1.1,8,8,0,0,0,4-14.9L136,123.4V80A8,8,0,0,0,128,72Z"/><path d="M230.8,104.2c.1-.2.2-.3.2-.4l.2-.3c.1-.1.1-.3.2-.4l.2-.3a.6.6,0,0,1,.1-.4c0-.1.1-.2.1-.4a.4.4,0,0,0,.1-.3c0-.2.1-.3.1-.4s.1-.3.1-.4v-.4a2.2,2.2,0,0,0,.1-.8v-40a8,8,0,1,0-16,0V80.4L195.9,60.1a96,96,0,1,0,0,135.8,8,8,0,0,0,0-11.3,7.9,7.9,0,0,0-11.3,0,80,80,0,1,1,0-113.2l20.3,20.3H184.2a8,8,0,0,0,0,16h42.3l.4-.2h.3l.4-.2h.3l.4-.2.3-.2.4-.3.2-.2,1.2-1.1.2-.3Z"/></svg>