<svg xmlns="http://www.w3.org/2000/svg" viewBox="0 0 256 256"><g opacity="0.2"><rect x="32" y="48" width="192" height="160" rx="8"/></g><path d="M216,40H40A16,16,0,0,0,24,56V200a16,16,0,0,0,16,16H216a16,16,0,0,0,16-16V56A16,16,0,0,0,216,40Zm0,160H40V56H216V200Z"/><path d="M96,108a19.8,19.8,0,0,1,14.3,6,8,8,0,0,0,11.4-11.2A35.4,35.4,0,0,0,96,92a36,36,0,0,0,0,72,35.4,35.4,0,0,0,25.7-10.8A8,8,0,0,0,110.3,142,19.8,19.8,0,0,1,96,148a20,20,0,0,1,0-40Z"/><path d="M168,108a19.8,19.8,0,0,1,14.3,6,8,8,0,0,0,11.4-11.2A35.4,35.4,0,0,0,168,92a36,36,0,0,0,0,72,35.4,35.4,0,0,0,25.7-10.8A8,8,0,0,0,182.3,142a19.8,19.8,0,0,1-14.3,6,20,20,0,0,1,0-40Z"/></svg>