<svg id="Flat" xmlns="http://www.w3.org/2000/svg" viewBox="0 0 256 256">
  <g opacity="0.2">
    <rect x="32" y="48" width="192" height="160" rx="8"/>
  </g>
  <g>
    <path d="M216,40H40A16.01833,16.01833,0,0,0,24,56V200a16.01833,16.01833,0,0,0,16,16H216a16.01833,16.01833,0,0,0,16-16V56A16.01833,16.01833,0,0,0,216,40Zm0,160H40V56H216l.00977,144Z"/>
    <path d="M96,108a19.85259,19.85259,0,0,1,14.28613,6.00293,7.99956,7.99956,0,0,0,11.42774-11.19727,36,36,0,1,0,0,50.38868,7.99956,7.99956,0,0,0-11.42774-11.19727A20.00012,20.00012,0,1,1,96,108Z"/>
    <path d="M168,108a19.85259,19.85259,0,0,1,14.28613,6.00293,7.99956,7.99956,0,0,0,11.42774-11.19727,36,36,0,1,0,0,50.38868,7.99956,7.99956,0,0,0-11.42774-11.19727A20.00012,20.00012,0,1,1,168,108Z"/>
  </g>
</svg>
