<svg id="Flat" xmlns="http://www.w3.org/2000/svg" viewBox="0 0 256 256">
  <g opacity="0.2">
    <path d="M131.83232,84.4235a48.00729,48.00729,0,1,0-80.18846,50.93024l-.00154-.00232a44.09694,44.09694,0,0,1,38.66351-4.9735l-.00024-.00007A68.15692,68.15692,0,0,1,131.83113,84.4204Z"/>
  </g>
  <path d="M156,72a75.81133,75.81133,0,0,0-20.236,2.73853A55.73768,55.73768,0,0,0,126.353,63.15967l9.48437-13.54444A8.00015,8.00015,0,0,0,122.731,40.4375l-9.48444,13.54468a55.87213,55.87213,0,0,0-26.9956-5.96265L83.37451,31.70605A7.99987,7.99987,0,1,0,67.61768,34.4834l2.87469,16.30371A55.39694,55.39694,0,0,0,47.17657,65.635L33.61426,56.13867A8.00027,8.00027,0,0,0,24.4375,69.24609l13.55988,9.49463a55.39527,55.39527,0,0,0-5.98676,26.98535l-16.305,2.87452a8.00079,8.00079,0,0,0,1.37988,15.87988,8.12832,8.12832,0,0,0,1.39844-.12207l16.31085-2.87573a55.95065,55.95065,0,0,0,5.85565,12.42749A51.96741,51.96741,0,0,0,76,224h80a76,76,0,0,0,0-152ZM48.62964,111.09448c-.00879-.05713-.01117-.11352-.02124-.17065-.011-.0625-.02954-.12158-.04193-.18335A39.72767,39.72767,0,0,1,55.128,81.186c.03534-.04834.07629-.08985.11078-.13916.03857-.05518.069-.11329.106-.16895a39.7273,39.7273,0,0,1,25.48584-16.2395c.07416-.011.14789-.01612.2221-.029.06983-.01221.13593-.033.205-.04688a39.95765,39.95765,0,0,1,29.17011,6.28564c.16253.13379.32592.26734.5014.39014.12775.08936.265.15283.396.23389a39.7864,39.7864,0,0,1,9.26178,9.3081A76.44814,76.44814,0,0,0,85.03711,120.7832,52.31117,52.31117,0,0,0,76,120a51.67552,51.67552,0,0,0-22.07556,4.93262A40.03332,40.03332,0,0,1,48.62964,111.09448ZM156,208H76a36,36,0,0,1,0-72,36.42265,36.42265,0,0,1,4.89453.3291A76.28371,76.28371,0,0,0,80,148a8,8,0,0,0,16,0,60,60,0,1,1,60,60Z"/>
</svg>
