<svg xmlns="http://www.w3.org/2000/svg" viewBox="0 0 256 256"><g opacity="0.2"><path d="M88,92a68,68,0,1,1,68,68H76a44,44,0,0,1,0-88,42.5,42.5,0,0,1,14.3,2.4"/></g><path d="M156,168A76,76,0,1,0,85,64.8a53.8,53.8,0,0,0-9-.8,52,52,0,0,0,0,104h39.4L97.3,195.6A8,8,0,0,0,104,208h35.4l-18.1,27.6a8,8,0,0,0,13.4,8.8l26.2-40a7.8,7.8,0,0,0,.4-8.2,8,8,0,0,0-7.1-4.2H118.8l15.8-24ZM40,116A36,36,0,0,1,76,80a40.3,40.3,0,0,1,4.9.3A74.9,74.9,0,0,0,80,92a8,8,0,0,0,16,0,60,60,0,1,1,60,60H76A36,36,0,0,1,40,116Z"/></svg>