<svg id="Flat" xmlns="http://www.w3.org/2000/svg" viewBox="0 0 256 256">
  <g opacity="0.2">
    <path d="M80.00586,128a80,80,0,1,1,80,80h-88A56,56,0,1,1,85.9251,97.74352"/>
  </g>
  <g>
    <path d="M160,40A88.102,88.102,0,0,0,81.28711,88.6709,64.003,64.003,0,1,0,72,216h88a88,88,0,0,0,0-176Zm0,160H72a48,48,0,0,1,0-96q1.65161,0,3.29443.11133A87.76127,87.76127,0,0,0,72,128a8,8,0,0,0,16,0,72,72,0,1,1,72,72Z"/>
    <path d="M186.34326,110.34326,144,152.68652l-18.34326-18.34326a7.99984,7.99984,0,0,0-11.31348,11.31348l24,24a7.99945,7.99945,0,0,0,11.31348,0l48-48a7.99984,7.99984,0,0,0-11.31348-11.31348Z"/>
  </g>
</svg>
