<svg xmlns="http://www.w3.org/2000/svg" viewBox="0 0 256 256"><path d="M240,128a80,80,0,0,1-80,80H72A56,56,0,0,1,72,96a57.5,57.5,0,0,1,13.9,1.7h0A80,80,0,0,1,240,128Z" opacity="0.2"/><path d="M248,128a87.3,87.3,0,0,1-17.6,52.8A8,8,0,0,1,224,184a7.7,7.7,0,0,1-4.8-1.6,8.1,8.1,0,0,1-1.6-11.2A72,72,0,1,0,88,128a8,8,0,0,1-16,0,85.7,85.7,0,0,1,3.3-23.9H72a48,48,0,0,0,0,96H96a8,8,0,0,1,0,16H72A64,64,0,0,1,72,88a58.2,58.2,0,0,1,9.3.7A88,88,0,0,1,248,128Zm-90.3-5.7a8.1,8.1,0,0,0-11.4,0l-33.9,34a8,8,0,0,0,11.3,11.3L144,147.3V208a8,8,0,0,0,16,0V147.3l20.3,20.3a7.6,7.6,0,0,0,5.6,2.3,7.8,7.8,0,0,0,5.7-2.3,8,8,0,0,0,0-11.3Z"/></svg>