<svg id="Flat" xmlns="http://www.w3.org/2000/svg" viewBox="0 0 256 256">
  <g opacity="0.2">
    <path d="M80.00586,128a80,80,0,1,1,80,80h-88A56,56,0,1,1,85.9251,97.74352"/>
  </g>
  <g>
    <path d="M160,40A88.09585,88.09585,0,0,0,81.29,88.67871,63.9996,63.9996,0,1,0,72,216h64a8,8,0,0,0,0-16H72a48,48,0,0,1,0-96c1.10138,0,2.19965.04492,3.29449.11914A87.77854,87.77854,0,0,0,72,128a8,8,0,0,0,16,0,72,72,0,1,1,115.19629,57.6084,8,8,0,1,0,9.60937,12.793A88.00374,88.00374,0,0,0,160,40Z"/>
    <circle cx="148" cy="132" r="12"/>
    <circle cx="140" cy="172" r="12"/>
    <circle cx="180" cy="164" r="12"/>
    <circle cx="172" cy="204" r="12"/>
  </g>
</svg>
