<svg id="Flat" xmlns="http://www.w3.org/2000/svg" viewBox="0 0 256 256">
  <g opacity="0.2">
    <path d="M88,92a68,68,0,1,1,68,68H76A44,44,0,1,1,90.30583,74.37792"/>
  </g>
  <path d="M160.93848,204.38916l-26.25,40a8,8,0,0,1-13.377-8.77832l26.25-40a8,8,0,0,1,13.377,8.77832ZM232,92a76.08614,76.08614,0,0,1-76,76H134.56885l-29.13037,44.38916a8,8,0,1,1-13.377-8.77832L115.43109,168H76A52,52,0,1,1,85.03711,64.7832,76.002,76.002,0,0,1,232,92Zm-16,0A60,60,0,0,0,96,92a8,8,0,0,1-16,0,76.27893,76.27893,0,0,1,.89453-11.6709A36.42265,36.42265,0,0,0,76,80a36,36,0,0,0,0,72h80A60.06812,60.06812,0,0,0,216,92Z"/>
</svg>
