<svg id="Flat" xmlns="http://www.w3.org/2000/svg" viewBox="0 0 256 256">
  <g opacity="0.2">
    <path d="M88,92a68,68,0,1,1,68,68H76A44,44,0,1,1,90.30583,74.37792"/>
  </g>
  <path d="M120,200H72a8,8,0,0,1,0-16h48a8,8,0,0,1,0,16Zm64-16H160a8,8,0,0,0,0,16h24a8,8,0,0,0,0-16Zm-24,32H104a8,8,0,0,0,0,16h56a8,8,0,0,0,0-16ZM232,92a76.08614,76.08614,0,0,1-76,76H76A52,52,0,1,1,85.03711,64.7832,76.002,76.002,0,0,1,232,92Zm-16,0A60,60,0,0,0,96,92a8,8,0,0,1-16,0,76.28371,76.28371,0,0,1,.89453-11.6709A36.42265,36.42265,0,0,0,76,80a36,36,0,0,0,0,72h80A60.06812,60.06812,0,0,0,216,92Z"/>
</svg>
