<svg xmlns="http://www.w3.org/2000/svg" viewBox="0 0 256 256"><g opacity="0.2"><path d="M80,127.6a80,80,0,1,1,80,80H72a56,56,0,0,1,0-112,53,53,0,0,1,13.9,1.8"/></g><path d="M199.8,195.1h0L97,82h0L53.9,34.6A8,8,0,0,0,42.1,45.4L81.3,88.5v.2A58.2,58.2,0,0,0,72,88a64,64,0,0,0,0,128h88a87.9,87.9,0,0,0,31.8-5.9l10.3,11.3A8,8,0,0,0,208,224a8.2,8.2,0,0,0,5.4-2.1,7.9,7.9,0,0,0,.5-11.3ZM160,200H72a48,48,0,0,1,0-96h3.3A87.8,87.8,0,0,0,72,128a8,8,0,0,0,16,0,70.6,70.6,0,0,1,5.1-26.5l87,95.7A75,75,0,0,1,160,200Zm88-72a87.3,87.3,0,0,1-22.4,58.6,7.6,7.6,0,0,1-5.9,2.7,7.7,7.7,0,0,1-5.3-2.1,8,8,0,0,1-.7-11.3A72,72,0,0,0,160,56a70.9,70.9,0,0,0-42.6,14,8.1,8.1,0,0,1-11.2-1.7,8,8,0,0,1,1.7-11.2A87.2,87.2,0,0,1,160,40,88.1,88.1,0,0,1,248,128Z"/></svg>