<svg xmlns="http://www.w3.org/2000/svg" viewBox="0 0 256 256"><g opacity="0.2"><path d="M88,92a68,68,0,1,1,68,68H76a44,44,0,0,1,0-88,42.5,42.5,0,0,1,14.3,2.4"/></g><path d="M156,16A76.2,76.2,0,0,0,85,64.8a53.8,53.8,0,0,0-9-.8,52,52,0,0,0,0,104h80a76,76,0,0,0,0-152Zm0,136H76a36,36,0,0,1,0-72,40.3,40.3,0,0,1,4.9.3A74.9,74.9,0,0,0,80,92a8,8,0,0,0,16,0,60,60,0,1,1,60,60Zm20,44a12,12,0,1,1-12-12A12,12,0,0,1,176,196Zm-88,0a12,12,0,1,1-12-12A12,12,0,0,1,88,196Zm40,16a12,12,0,1,1-12-12A12,12,0,0,1,128,212ZM80,236a12,12,0,1,1-12-12A12,12,0,0,1,80,236Zm88,0a12,12,0,1,1-12-12A12,12,0,0,1,168,236Z"/></svg>