<svg id="Flat" xmlns="http://www.w3.org/2000/svg" viewBox="0 0 256 256">
  <g opacity="0.2">
    <path d="M80,128a80,80,0,1,1,80,80H72A56,56,0,1,1,85.91924,97.74352"/>
  </g>
  <g>
    <path d="M180.27832,168.40234l-20.28418,20.28418V128a8,8,0,0,0-16,0v60.68652L123.71,168.40234a7.99984,7.99984,0,1,0-11.31348,11.31348l33.93708,33.937a7.95562,7.95562,0,0,0,.592.5354c.08368.06885.17224.12818.258.19312.12262.09253.24323.18725.37116.273.10766.07177.21954.134.32983.20019.1131.06812.22406.13892.3407.20142.11524.06152.23383.11377.35132.16919.11883.05639.23584.11548.35773.166.11456.04737.23162.08545.34777.12744.12995.04688.25837.09668.39136.13672.117.0354.23566.06128.35376.09107.1344.03393.26721.07153.40424.09863.13891.02759.27929.044.41925.064.11816.01684.23437.03955.35412.05127.26246.02587.52582.03979.78931.03979s.52686-.01392.78931-.03979c.11975-.01172.236-.03443.35412-.05127.14-.02.28034-.03638.41925-.064.137-.0271.26984-.0647.40424-.09863.1181-.02979.23682-.05567.35376-.09107.133-.04.26141-.08984.39136-.13672.11615-.042.23321-.08007.34777-.12744.12189-.05053.2389-.10962.35773-.166.11749-.05542.23609-.10767.35132-.16919.11664-.0625.2276-.1333.3407-.20142.11029-.06616.22217-.12842.32983-.20019.12793-.0857.24854-.18042.37116-.273.08581-.06494.17437-.12427.258-.19312a7.95562,7.95562,0,0,0,.592-.5354l33.93708-33.937a7.99984,7.99984,0,1,0-11.31348-11.31348Z"/>
    <path d="M159.99414,40a88.09607,88.09607,0,0,0-78.71,48.67847A63.99971,63.99971,0,1,0,71.99414,216h24a8,8,0,1,0,0-16h-24a48,48,0,0,1,0-96c1.10144,0,2.19965.04492,3.2945.11914A87.7768,87.7768,0,0,0,71.99414,128a8,8,0,0,0,16,0,72,72,0,1,1,129.60645,43.19922,7.9999,7.9999,0,1,0,12.792,9.61035A88.00562,88.00562,0,0,0,159.99414,40Z"/>
  </g>
</svg>
