<svg xmlns="http://www.w3.org/2000/svg" viewBox="0 0 256 256"><g opacity="0.2"><path d="M88,92a68,68,0,1,1,68,68H76a44,44,0,0,1,0-88,42.5,42.5,0,0,1,14.3,2.4"/></g><path d="M160.9,204.4l-26.2,40a8,8,0,0,1-13.4-8.8l26.3-40a8,8,0,1,1,13.3,8.8ZM232,92a76.1,76.1,0,0,1-76,76H134.6l-29.2,44.4a8,8,0,0,1-6.7,3.6,7.5,7.5,0,0,1-4.3-1.3,7.9,7.9,0,0,1-2.3-11.1L115.4,168H76A52,52,0,0,1,76,64a53.8,53.8,0,0,1,9,.8A76,76,0,0,1,232,92Zm-16,0A60,60,0,0,0,96,92a8,8,0,0,1-16,0,74.9,74.9,0,0,1,.9-11.7A40.3,40.3,0,0,0,76,80a36,36,0,0,0,0,72h80A60,60,0,0,0,216,92Z"/></svg>