<svg id="Flat" xmlns="http://www.w3.org/2000/svg" viewBox="0 0 256 256">
  <g opacity="0.2">
    <path d="M88,92a68,68,0,1,1,68,68H76A44,44,0,1,1,90.30583,74.37792"/>
  </g>
  <path d="M156,168A76,76,0,1,0,85.03711,64.7832,52.0037,52.0037,0,1,0,76,168h39.43115L97.31152,195.61084A8.00017,8.00017,0,0,0,104,208h35.43115l-18.11963,27.61084a8,8,0,1,0,13.377,8.77832l26.25-40A8.00017,8.00017,0,0,0,154.25,192H118.81885l15.75-24ZM40,116A36.04061,36.04061,0,0,1,76,80a36.42265,36.42265,0,0,1,4.89453.3291A76.28371,76.28371,0,0,0,80,92a8,8,0,0,0,16,0,60,60,0,1,1,60,60H76A36.04061,36.04061,0,0,1,40,116Z"/>
</svg>
