<svg xmlns="http://www.w3.org/2000/svg" viewBox="0 0 256 256"><g opacity="0.2"><path d="M90.3,130.4a67.9,67.9,0,0,1,45.5-47.3h.1c.1-1,.1-2,.1-3A64,64,0,0,0,86.4,17.6h0A68.3,68.3,0,0,1,88,32,64.1,64.1,0,0,1,24,96,68.3,68.3,0,0,1,9.6,94.4h0A64.1,64.1,0,0,0,47,138.9h0A43.7,43.7,0,0,1,76,128a42.5,42.5,0,0,1,14.3,2.4Z"/></g><path d="M156,72a85.2,85.2,0,0,0-12.4,1A71.8,71.8,0,0,0,88.2,9.8a8,8,0,0,0-9.6,9.6A58.6,58.6,0,0,1,80,32,56,56,0,0,1,24,88a58.6,58.6,0,0,1-12.6-1.4,8,8,0,0,0-9.6,9.6,71.9,71.9,0,0,0,32.3,45A52,52,0,0,0,76,224h80a76,76,0,0,0,0-152ZM21.4,104H24A72.1,72.1,0,0,0,96,32V29.3a55.6,55.6,0,0,1,31.9,48.1A76.3,76.3,0,0,0,85,120.8a53.8,53.8,0,0,0-9-.8,51.8,51.8,0,0,0-30,9.6A55.9,55.9,0,0,1,21.4,104ZM156,208H76a36,36,0,0,1,0-72,40.3,40.3,0,0,1,4.9.3A74.9,74.9,0,0,0,80,148a8,8,0,0,0,16,0,60,60,0,1,1,60,60Z"/></svg>