<svg id="Flat" xmlns="http://www.w3.org/2000/svg" viewBox="0 0 256 256">
  <g opacity="0.2">
    <path d="M80.00586,127.6178a80,80,0,1,1,80,80h-88A56,56,0,1,1,85.9251,97.36132"/>
  </g>
  <g>
    <path d="M199.81909,195.10828l-.03-.03308L97.02441,82.03418l-.05-.05518L53.91943,34.61865a7.99991,7.99991,0,1,0-11.83886,10.7627l39.24273,43.167c-.02093.04175-.04.08435-.06085.12622A63.99965,63.99965,0,1,0,72,216h88a87.30245,87.30245,0,0,0,31.79889-5.92847l10.28168,11.30982a7.99991,7.99991,0,0,0,11.83886-10.7627ZM160,200H72a48,48,0,0,1,0-96c1.10376,0,2.20422.04517,3.30133.11963A88.20681,88.20681,0,0,0,72,128a8,8,0,0,0,16,0,72.11064,72.11064,0,0,1,5.06287-26.53809l86.99994,95.7A71.78044,71.78044,0,0,1,160,200Z"/>
    <path d="M160,40a87.31991,87.31991,0,0,0-52.10938,17.08057,8,8,0,0,0,9.4834,12.88672,72.00337,72.00337,0,0,1,96.34034,105.97949A7.99972,7.99972,0,1,0,225.646,186.606,88.00035,88.00035,0,0,0,160,40Z"/>
  </g>
</svg>
