<svg id="Flat" xmlns="http://www.w3.org/2000/svg" viewBox="0 0 256 256">
  <g opacity="0.2">
    <path d="M80,127.98437a80,80,0,1,1,80,80H72A56,56,0,1,1,85.91924,97.7279"/>
  </g>
  <g>
    <path d="M159.99414,39.98438a88.09606,88.09606,0,0,0-78.71,48.67846,63.99972,63.99972,0,1,0-9.29,127.32154h24a8,8,0,1,0,0-16h-24a48,48,0,0,1,0-96c1.10144,0,2.19965.04492,3.2945.11914a87.7768,87.7768,0,0,0-3.2945,23.88086,8,8,0,0,0,16,0,72,72,0,1,1,129.60645,43.19921,7.99991,7.99991,0,1,0,12.792,9.61036A88.00562,88.00562,0,0,0,159.99414,39.98438Z"/>
    <path d="M157.65472,122.33154a7.95783,7.95783,0,0,0-.592-.5354c-.08368-.06885-.17224-.12817-.258-.19311-.12262-.09253-.24323-.18726-.37116-.273-.10711-.07154-.2185-.1333-.32824-.19922-.11377-.06836-.22547-.13965-.34284-.20264-.11346-.06054-.23016-.11181-.34582-.1665-.12079-.05737-.23981-.11768-.3639-.16895-.11163-.04614-.22576-.08325-.339-.124-.13287-.04834-.26422-.09888-.4002-.14014-.11274-.03393-.22718-.05859-.341-.08764-.13879-.0354-.27612-.074-.41766-.10181-.12982-.02588-.26093-.04053-.3916-.05981-.12744-.0188-.25305-.04273-.38233-.05518-.23211-.02295-.465-.03271-.69812-.0354-.02984-.00024-.05871-.00439-.08862-.00439s-.05878.00415-.08862.00439c-.2331.00269-.466.01245-.69812.0354-.12928.01245-.25489.03638-.38233.05518-.13067.01928-.26178.03393-.3916.05981-.14154.02783-.27887.06641-.41766.10181-.11383.029-.22827.05371-.341.08764-.136.04126-.26733.0918-.4002.14014-.11328.04077-.22742.07788-.339.124-.12409.05127-.24311.11158-.36389.16895-.11567.05469-.23237.106-.34583.1665-.11737.063-.22906.13428-.34283.20264-.10975.06592-.22113.12768-.32825.19922-.12793.08569-.24854.18042-.37116.273-.08581.06494-.17437.12426-.258.19311a7.95783,7.95783,0,0,0-.592.5354l-33.93708,33.937A7.99984,7.99984,0,1,0,123.71,167.582l20.28418-20.28418v60.68653a8,8,0,0,0,16,0V147.29785L180.27832,167.582a7.99984,7.99984,0,1,0,11.31348-11.31348Z"/>
  </g>
</svg>
