<svg id="Flat" xmlns="http://www.w3.org/2000/svg" viewBox="0 0 256 256">
  <g opacity="0.2">
    <path d="M80.00586,128a80,80,0,1,1,80,80h-88A56,56,0,1,1,85.9251,97.74352"/>
  </g>
  <g>
    <path d="M160,40A88.09585,88.09585,0,0,0,81.29,88.67871,63.9996,63.9996,0,1,0,72,216h64a8,8,0,0,0,0-16H72a48,48,0,0,1,0-96c1.10138,0,2.19965.04492,3.29449.11914A87.77854,87.77854,0,0,0,72,128a8,8,0,0,0,16,0,72,72,0,1,1,115.19629,57.6084,8,8,0,1,0,9.60937,12.793A88.00374,88.00374,0,0,0,160,40Z"/>
    <path d="M162.97119,128.57227a7.99978,7.99978,0,0,0-10.39892,4.45654l-16,40a7.99995,7.99995,0,1,0,14.85546,5.94238l16-40A7.99989,7.99989,0,0,0,162.97119,128.57227Z"/>
    <path d="M186.97119,160.57227a7.99937,7.99937,0,0,0-10.39892,4.45654l-16,40a7.99995,7.99995,0,1,0,14.85546,5.94238l16-40A7.99989,7.99989,0,0,0,186.97119,160.57227Z"/>
  </g>
</svg>
