<svg xmlns="http://www.w3.org/2000/svg" viewBox="0 0 256 256"><g opacity="0.2"><path d="M112.5,179.2A48,48,0,1,1,76,100a51.2,51.2,0,0,1,11.2,1.3h0A47.3,47.3,0,0,1,80,76a48,48,0,0,1,96,0,47.3,47.3,0,0,1-7.2,25.3h0A51.2,51.2,0,0,1,180,100a48,48,0,1,1-36.5,79.2L160,232H96Z"/></g><path d="M160,240H96a7.9,7.9,0,0,1-6.4-3.3,7.6,7.6,0,0,1-1.2-7.1l9.3-30A55,55,0,0,1,76,204,56,56,0,0,1,74.3,92,56.8,56.8,0,0,1,72,76a56,56,0,0,1,112,0,56.8,56.8,0,0,1-2.3,16A56,56,0,0,1,180,204a55,55,0,0,1-21.7-4.4l9.3,30a7.6,7.6,0,0,1-1.2,7.1A7.9,7.9,0,0,1,160,240Zm-53.1-16h42.2l-13.3-42.5a8,8,0,0,1,13.8-7.5,39.9,39.9,0,1,0,21.3-65,7.7,7.7,0,0,1-5.9-.6,8.2,8.2,0,0,1-4.2-8.1,9.3,9.3,0,0,1,1.3-3.4A39.6,39.6,0,0,0,168,76,40,40,0,1,0,93.9,97l.2.2a8,8,0,0,1-5.6,12,9,9,0,0,1-3.3-.1A40.6,40.6,0,0,0,76,108a40,40,0,1,0,30.4,66,8,8,0,0,1,13.8,7.5Z"/></svg>