<svg id="Flat" xmlns="http://www.w3.org/2000/svg" viewBox="0 0 256 256">
  <g opacity="0.2">
    <path d="M112.51708,179.15431a47.97767,47.97767,0,1,1-25.30276-77.83722l-.00069.00287a48,48,0,1,1,81.57046.00366l-.00718-.00443a48.00575,48.00575,0,1,1-25.29289,77.8364L160,232H96Z"/>
  </g>
  <path d="M160,240H96a8.00039,8.00039,0,0,1-7.63574-10.38672l9.37646-30A56.00248,56.00248,0,1,1,74.33252,92.02441a56,56,0,1,1,107.335,0A56.00044,56.00044,0,1,1,158.26,199.61426l9.37573,29.999A8.00039,8.00039,0,0,1,160,240Zm-53.11792-16h42.23608l-13.26977-42.458a8.00017,8.00017,0,0,1,13.71948-7.582,39.97723,39.97723,0,1,0,21.33936-64.92383A8.0036,8.0036,0,0,1,162.136,96.86328a40,40,0,1,0-68.21875.08692q.06957.10692.13647.21679a8.00247,8.00247,0,0,1-8.86719,11.8916A40.00538,40.00538,0,1,0,106.43359,173.959a8.00006,8.00006,0,0,1,13.71924,7.582Z"/>
</svg>
