<svg id="Flat" xmlns="http://www.w3.org/2000/svg" viewBox="0 0 256 256">
  <path d="M69.12158,94.14551,28.49658,128l40.625,33.85449a7.99987,7.99987,0,1,1-10.24316,12.291l-48-40a7.99963,7.99963,0,0,1,0-12.291l48-40a7.99987,7.99987,0,1,1,10.24316,12.291Zm176,27.709-48-40a7.99987,7.99987,0,1,0-10.24316,12.291L227.50342,128l-40.625,33.85449a7.99987,7.99987,0,1,0,10.24316,12.291l48-40a7.99963,7.99963,0,0,0,0-12.291Zm-82.38769-89.373a8.00439,8.00439,0,0,0-10.25244,4.78418l-64,176a8.00034,8.00034,0,1,0,15.0371,5.46875l64-176A8.0008,8.0008,0,0,0,162.73389,32.48145Z"/>
</svg>
