<svg id="Flat" xmlns="http://www.w3.org/2000/svg" viewBox="0 0 256 256">
  <path d="M83.29651,216.0038A88.01441,88.01441,0,0,1,32,136V88H208v48a88.0144,88.0144,0,0,1-51.29712,80.00408Z" opacity="0.2"/>
  <path d="M80,56V24a8,8,0,0,1,16,0V56a8,8,0,0,1-16,0Zm40,8a8.00008,8.00008,0,0,0,8-8V24a8,8,0,0,0-16,0V56A8.00008,8.00008,0,0,0,120,64Zm32,0a8.00008,8.00008,0,0,0,8-8V24a8,8,0,0,0-16,0V56A8.00008,8.00008,0,0,0,152,64Zm96,56v8a40.04613,40.04613,0,0,1-37.50781,39.91455A96.65441,96.65441,0,0,1,183.46387,208H208a8,8,0,0,1,0,16H156.8208c-.0376.00049-.07568.00586-.11279.00586-.02832,0-.05615-.00537-.08447-.00586H83.15869c-.04541-.001-.09033.00146-.13574,0H32a8,8,0,0,1,0-16H56.53613A96.31957,96.31957,0,0,1,24,136V88a8.00008,8.00008,0,0,1,8-8H208A40.04521,40.04521,0,0,1,248,120Zm-51.15039,38.13379c.05127-.21436.10791-.42676.17627-.63428A79.52632,79.52632,0,0,0,200,136V96H40v40a80.26929,80.26929,0,0,0,45.11279,72h69.77442A80.31856,80.31856,0,0,0,196.84961,158.13379ZM232,120a24.03806,24.03806,0,0,0-16-22.624V136a95.32337,95.32337,0,0,1-1.20312,15.01367A24.039,24.039,0,0,0,232,128Z"/>
</svg>
