<svg xmlns="http://www.w3.org/2000/svg" viewBox="0 0 256 256"><path d="M232,104c0,24-40,48-104,48S24,128,24,104,64,56,128,56,232,80,232,104Z" opacity="0.2"/><path d="M207.6,63.8C186.8,53.5,159.3,48,128,48S69.2,53.5,48.4,63.8,16,88.8,16,104v48c0,15.2,11.8,29.9,32.4,40.2S96.7,208,128,208s58.8-5.5,79.6-15.8S240,167.2,240,152V104C240,88.8,228.2,74.1,207.6,63.8ZM128,64c62.6,0,96,23.2,96,40,0,9.9-11.7,22.2-34.4,30.5h-.3c-15.5,5.6-36,9.4-61.3,9.4s-45.8-3.8-61.3-9.4h-.3C43.7,126.2,32,113.9,32,104,32,87.2,65.4,64,128,64Zm-8,95.9v32c-19-.7-35-3.5-48-7.5V153C86.3,157,102.5,159.3,120,159.9Zm16,0c17.5-.6,33.7-2.9,48-6.9v31.4c-13,4-29,6.8-48,7.5ZM32,152V133.5a84.5,84.5,0,0,0,16.4,10.7l7.6,3.4V178C40.2,170.2,32,160.3,32,152Zm168,26V147.6l7.6-3.4A84.5,84.5,0,0,0,224,133.5V152C224,160.3,215.8,170.2,200,178Z"/></svg>