<svg id="Flat" xmlns="http://www.w3.org/2000/svg" viewBox="0 0 256 256">
  <g opacity="0.2">
    <rect x="48" y="40" width="64" height="176" rx="8"/>
    <rect x="144" y="40" width="64" height="176" rx="8"/>
  </g>
  <path d="M104,32H56A16.01833,16.01833,0,0,0,40,48V208a16.01833,16.01833,0,0,0,16,16h48a16.01833,16.01833,0,0,0,16-16V48A16.01833,16.01833,0,0,0,104,32Zm0,176-47.99951.00977L56,208V48h48ZM200,32H152a16.01833,16.01833,0,0,0-16,16V208a16.01833,16.01833,0,0,0,16,16h48a16.01833,16.01833,0,0,0,16-16V48A16.01833,16.01833,0,0,0,200,32Zm0,176-47.99951.00977L152,208V48h48Z"/>
</svg>
