<svg xmlns="http://www.w3.org/2000/svg" viewBox="0 0 256 256"><rect x="-4" y="100" width="176" height="56" rx="8" transform="translate(212 44) rotate(90)" opacity="0.2"/><rect x="84" y="100" width="176" height="56" rx="8" transform="translate(300 -44) rotate(90)" opacity="0.2"/><path d="M104,32H64A16,16,0,0,0,48,48V208a16,16,0,0,0,16,16h40a16,16,0,0,0,16-16V48A16,16,0,0,0,104,32Zm0,176H64V48h40ZM192,32H152a16,16,0,0,0-16,16V208a16,16,0,0,0,16,16h40a16,16,0,0,0,16-16V48A16,16,0,0,0,192,32Zm0,176H152V48h40Z"/></svg>