<svg xmlns="http://www.w3.org/2000/svg" viewBox="0 0 256 256"><g opacity="0.2"><path d="M180,48h0a28,28,0,0,1,28,28v0a28,28,0,0,1-28,28H152a0,0,0,0,1,0,0V76a28,28,0,0,1,28-28Z"/></g><g opacity="0.2"><path d="M48,48H76a28,28,0,0,1,28,28v0a28,28,0,0,1-28,28h0A28,28,0,0,1,48,76V48A0,0,0,0,1,48,48Z" transform="translate(152 152) rotate(180)"/></g><g opacity="0.2"><path d="M152,152h28a28,28,0,0,1,28,28v0a28,28,0,0,1-28,28h0a28,28,0,0,1-28-28V152A0,0,0,0,1,152,152Z"/></g><g opacity="0.2"><path d="M76,152h0a28,28,0,0,1,28,28v0a28,28,0,0,1-28,28H48a0,0,0,0,1,0,0V180A28,28,0,0,1,76,152Z" transform="translate(152 360) rotate(-180)"/></g><path d="M180,144H160V112h20a36,36,0,1,0-36-36V96H112V76a36,36,0,1,0-36,36H96v32H76a36,36,0,1,0,36,36V160h32v20a36,36,0,1,0,36-36ZM160,76a20,20,0,1,1,20,20H160ZM56,76a20,20,0,0,1,40,0V96H76A20.1,20.1,0,0,1,56,76ZM96,180a20,20,0,1,1-20-20H96Zm16-68h32v32H112Zm68,88a20.1,20.1,0,0,1-20-20V160h20a20,20,0,0,1,0,40Z"/></svg>