<svg xmlns="http://www.w3.org/2000/svg" viewBox="0 0 256 256"><g opacity="0.2"><path d="M128.1,32a96,96,0,1,0,96,96A96,96,0,0,0,128.1,32Zm17,113L85.7,170.4,111.1,111l62.1-28.2Z"/></g><path d="M128.1,24a104,104,0,1,0,104,104A104.2,104.2,0,0,0,128.1,24Zm0,192a88,88,0,1,1,88-88A88.1,88.1,0,0,1,128.1,216ZM169.9,75.5l-62.1,28.2a8.2,8.2,0,0,0-4,4.2L78.3,167.3a8,8,0,0,0,1.7,8.8,8.3,8.3,0,0,0,5.7,2.3,8.5,8.5,0,0,0,3.1-.6l59.4-25.5a8.2,8.2,0,0,0,4.2-4l28.1-62.2a8.1,8.1,0,0,0-10.6-10.6Zm-30.8,63.3-38.2,16.4L117.3,117l39.8-18.1Z"/></svg>