<svg id="Flat" xmlns="http://www.w3.org/2000/svg" viewBox="0 0 256 256">
  <g opacity="0.2">
    <rect x="32" y="56" width="192" height="144" rx="8" transform="translate(256 0) rotate(90)"/>
  </g>
  <path d="M88,72a8.00008,8.00008,0,0,1,8-8h64a8,8,0,0,1,0,16H96A8.00008,8.00008,0,0,1,88,72Zm8,40h64a8,8,0,0,0,0-16H96a8,8,0,0,0,0,16Zm32,56a12,12,0,1,0,12,12A12.01343,12.01343,0,0,0,128,168ZM208,40V216a16.01833,16.01833,0,0,1-16,16H64a16.01833,16.01833,0,0,1-16-16V40A16.01833,16.01833,0,0,1,64,24H192A16.01833,16.01833,0,0,1,208,40Zm-16,0H64V216.01025L192,216Z"/>
</svg>
