<svg id="Flat" xmlns="http://www.w3.org/2000/svg" viewBox="0 0 256 256">
  <g opacity="0.2">
    <path d="M128,32a96,96,0,1,0,96,96A95.99991,95.99991,0,0,0,128,32Zm16.9646,112.9707-59.397,25.45557,25.45606-59.397,62.0354-28.20069Z"/>
  </g>
  <path d="M127.99975,24a104,104,0,1,0,104,104A104.11791,104.11791,0,0,0,127.99975,24Zm0,192a88,88,0,1,1,88-88A88.09957,88.09957,0,0,1,127.99975,216Zm41.749-140.4541-62.03614,28.20117a8.00275,8.00275,0,0,0-4.043,4.13086L78.2146,167.27539A7.99938,7.99938,0,0,0,88.71948,177.7793L148.116,152.32324a7.99954,7.99954,0,0,0,4.13868-4.05713L180.34936,86.124A8,8,0,0,0,169.74878,75.5459Zm-30.793,63.2959-38.15625,16.35351L117.155,117.02979l39.85254-18.1167Z"/>
</svg>
