<svg xmlns="http://www.w3.org/2000/svg" viewBox="0 0 256 256"><path d="M216,88v96a23.9,23.9,0,0,1-24,24H64a23.9,23.9,0,0,1-24-24V88a8,8,0,0,1,8-8H208A8,8,0,0,1,216,88Z" opacity="0.2"/><path d="M88,48V16a8,8,0,0,1,16,0V48a8,8,0,0,1-16,0Zm40,8a8,8,0,0,0,8-8V16a8,8,0,0,0-16,0V48A8,8,0,0,0,128,56Zm32,0a8,8,0,0,0,8-8V16a8,8,0,0,0-16,0V48A8,8,0,0,0,160,56Zm92.8,46.4L224,124v60a32.1,32.1,0,0,1-32,32H64a32.1,32.1,0,0,1-32-32V124L3.2,102.4a8,8,0,0,1,9.6-12.8L32,104V88A16,16,0,0,1,48,72H208a16,16,0,0,1,16,16v16l19.2-14.4a8,8,0,0,1,9.6,12.8ZM208,88H48v96a16,16,0,0,0,16,16H192a16,16,0,0,0,16-16Z"/></svg>