<svg id="Flat" xmlns="http://www.w3.org/2000/svg" viewBox="0 0 256 256">
  <path d="M223.99445,127.41162a95.6988,95.6988,0,0,1-28.17316,68.53174c-36.94568,36.88037-97.30609,37.29492-134.72955.89941a95.99655,95.99655,0,0,1,67.4851-164.8374,8.01391,8.01391,0,0,1,7.80469,9.76123,31.99338,31.99338,0,0,0,30.85986,39.03125,8.02747,8.02747,0,0,1,7.96088,7.96094,31.99357,31.99357,0,0,0,39.03033,30.85986A8.0116,8.0116,0,0,1,223.99445,127.41162Z" opacity="0.2"/>
  <path d="M225.94092,114.89844a15.92,15.92,0,0,0-13.46094-3.085,23.99389,23.99389,0,0,1-29.27832-23.14063,15.94771,15.94771,0,0,0-15.87354-15.875A23.99268,23.99268,0,0,1,144.187,43.51953a16.01308,16.01308,0,0,0-15.562-19.51367c-.21729-.001-.43018-.00195-.647-.00195A104,104,0,1,0,231.99463,127.3623v-.001A15.97461,15.97461,0,0,0,225.94092,114.89844Zm-35.77149,75.38281c-33.83691,33.77734-89.23925,34.14844-123.5.82617a87.98863,87.98863,0,0,1,61.32764-151.0957c.19287,0,.38574.001.57861.002a40.06542,40.06542,0,0,0,38.627,48.832,39.998,39.998,0,0,0,48.78955,38.58106.1617.1617,0,0,1,.00244.03418A87.361,87.361,0,0,1,190.16943,190.28125Zm-25.68414-26.7666a12.00005,12.00005,0,1,1-16.97058,0A12.00019,12.00019,0,0,1,164.48529,163.51465Zm-64-8a12.00005,12.00005,0,1,1-16.97058,0A12.00019,12.00019,0,0,1,100.48529,155.51465Zm-24.97058-39.0293a12.00005,12.00005,0,1,1,16.97058,0A12.00019,12.00019,0,0,1,75.51471,116.48535Zm68.97058,16a12.00005,12.00005,0,1,1,0-16.9707A12.00048,12.00048,0,0,1,144.48529,132.48535Z"/>
</svg>
