<svg xmlns="http://www.w3.org/2000/svg" viewBox="0 0 256 256"><path d="M224,127.4a95.6,95.6,0,0,1-28.2,68.5c-36.9,36.9-97.3,37.3-134.7.9A96,96,0,0,1,128.6,32a8.1,8.1,0,0,1,7.8,9.8,32,32,0,0,0,30.8,39,8,8,0,0,1,8,8,32,32,0,0,0,39,30.8A8.1,8.1,0,0,1,224,127.4Z" opacity="0.2"/><path d="M225.9,114.9a15.8,15.8,0,0,0-13.4-3.1,23.9,23.9,0,0,1-29.3-23.1,16,16,0,0,0-15.9-15.9,23.9,23.9,0,0,1-23.1-29.3A16.1,16.1,0,0,0,128.6,24H128A104.1,104.1,0,0,0,24,128.7a104,104,0,0,0,208-1.3h0A15.7,15.7,0,0,0,225.9,114.9Zm-35.7,75.4c-33.9,33.8-89.3,34.1-123.5.8A88,88,0,0,1,128,40h.6a39.9,39.9,0,0,0,38.6,48.8A39.9,39.9,0,0,0,216,127.4h0A87.6,87.6,0,0,1,190.2,190.3Zm-25.7-26.8a12,12,0,1,1-17,0A12,12,0,0,1,164.5,163.5Zm-64-8a12,12,0,1,1-17,0A12,12,0,0,1,100.5,155.5Zm-25-39a12,12,0,1,1,17,0A12,12,0,0,1,75.5,116.5Zm69,16a12,12,0,1,1,0-17A12,12,0,0,1,144.5,132.5Z"/></svg>