<svg id="Flat" xmlns="http://www.w3.org/2000/svg" viewBox="0 0 255.99316 255.99316">
  <g opacity="0.2">
    <polygon points="168 87.993 168 167.993 216 167.993 216 39.993 88 39.993 88 87.993 168 87.993"/>
  </g>
  <path d="M216,31.99316H88a8.0004,8.0004,0,0,0-8,8v40.001H39.999a8.0004,8.0004,0,0,0-8,8v128a8.0004,8.0004,0,0,0,8,8h128a8.00039,8.00039,0,0,0,8-8v-40.001H216a8.00039,8.00039,0,0,0,8-8v-128A8.0004,8.0004,0,0,0,216,31.99316Zm-56.001,176.001h-112v-112h112ZM208,159.99316H175.999v-71.999a8.00039,8.00039,0,0,0-8-8H96v-32.001H208Z"/>
</svg>
