<svg id="Flat" xmlns="http://www.w3.org/2000/svg" viewBox="0 0 255.99316 255.99316">
  <g opacity="0.2">
    <rect x="39.98633" y="71.99512" width="144.00586" height="144"/>
  </g>
  <g>
    <path d="M215.99268,31.99414H71.98584a8,8,0,1,0,0,16H207.99268v136.001a8,8,0,0,0,16,0V39.99414A8.00009,8.00009,0,0,0,215.99268,31.99414Z"/>
    <path d="M183.99268,63.99512H39.98584a8.00008,8.00008,0,0,0-8,8v144a8.00039,8.00039,0,0,0,8,8H183.99268a8.0004,8.0004,0,0,0,8-8v-144A8.00009,8.00009,0,0,0,183.99268,63.99512Zm-8,144H47.98584v-128H175.99268Z"/>
  </g>
</svg>
