<svg id="Flat" xmlns="http://www.w3.org/2000/svg" viewBox="0 0 256 256">
  <g opacity="0.2">
    <path d="M23.99414,96.85228h208L232,192a8,8,0,0,1-8,8H32a8,8,0,0,1-8-8Z"/>
  </g>
  <g>
    <path d="M224,48H32A16.01833,16.01833,0,0,0,16,64V96.73633c-.00055.03906-.00586.07715-.00586.11621s.00531.07715.00586.11621V192a16.01833,16.01833,0,0,0,16,16H224a16.01833,16.01833,0,0,0,16-16V64A16.01833,16.01833,0,0,0,224,48Zm0,16,.002,24.85254H32V64Zm0,128H32V104.85254H224.0033L224.01025,192Z"/>
    <path d="M199.99414,160h-32a8,8,0,0,0,0,16h32a8,8,0,1,0,0-16Z"/>
    <path d="M135.99414,160h-16a8,8,0,0,0,0,16h16a8,8,0,1,0,0-16Z"/>
  </g>
</svg>
