<svg id="Flat" xmlns="http://www.w3.org/2000/svg" viewBox="0 0 256 256">
  <g opacity="0.2">
    <circle cx="128" cy="128" r="32"/>
  </g>
  <g>
    <path d="M236,120H223.66406A96.15352,96.15352,0,0,0,136,32.33618V20a8,8,0,0,0-16,0V32.33618A96.15352,96.15352,0,0,0,32.33594,120H20a8,8,0,0,0,0,16H32.33594A96.15352,96.15352,0,0,0,120,223.66382V236a8,8,0,0,0,16,0V223.66382A96.15352,96.15352,0,0,0,223.66406,136H236a8,8,0,0,0,0-16ZM136,207.59912V196a8,8,0,0,0-16,0v11.59912A80.14164,80.14164,0,0,1,48.40088,136H60a8,8,0,0,0,0-16H48.40088A80.14164,80.14164,0,0,1,120,48.40088V60a8,8,0,0,0,16,0V48.40088A80.14164,80.14164,0,0,1,207.59912,120H196a8,8,0,0,0,0,16h11.59912A80.14164,80.14164,0,0,1,136,207.59912Z"/>
    <path d="M128,88a40,40,0,1,0,40,40A40.04552,40.04552,0,0,0,128,88Zm0,64a24,24,0,1,1,24-24A24.0275,24.0275,0,0,1,128,152Z"/>
  </g>
</svg>
