<svg xmlns="http://www.w3.org/2000/svg" viewBox="0 0 256 256"><path d="M236.3,87.7,210.8,196a8.1,8.1,0,0,1-10,5.9,273,273,0,0,0-145.7,0,8.1,8.1,0,0,1-10-5.9L19.7,87.7a8,8,0,0,1,11-9.2L81.3,101a8.1,8.1,0,0,0,10.3-3.4l29.4-53a8,8,0,0,1,14,0l29.4,53a8.1,8.1,0,0,0,10.3,3.4l50.6-22.5A8,8,0,0,1,236.3,87.7Z" opacity="0.2"/><path d="M238.7,73.5A16.1,16.1,0,0,0,222,71.2L171.4,93.7,142,40.7a16.1,16.1,0,0,0-28,0l-29.4,53L34,71.2A16,16,0,0,0,11.9,89.5L37.3,197.8a15.9,15.9,0,0,0,7.4,10.1,16.2,16.2,0,0,0,8.3,2.3,15.2,15.2,0,0,0,4.2-.6,265.5,265.5,0,0,1,141.5,0,16.5,16.5,0,0,0,12.5-1.7,15.6,15.6,0,0,0,7.4-10.1L244.1,89.5A16,16,0,0,0,238.7,73.5ZM203,194.2a281.2,281.2,0,0,0-150.1,0h0L27.5,85.9l50.6,22.4a15.8,15.8,0,0,0,20.4-6.8l29.5-53,29.5,53a15.8,15.8,0,0,0,20.4,6.8l50.6-22.4Z"/></svg>