<svg id="Flat" xmlns="http://www.w3.org/2000/svg" viewBox="0 0 256 256">
  <path d="M236.30811,87.68884l-25.48877,108.3169a8.01276,8.01276,0,0,1-9.9712,5.85949,273.901,273.901,0,0,0-145.74609.01368,8.01281,8.01281,0,0,1-9.97363-5.86219L19.68359,87.68213A7.99987,7.99987,0,0,1,30.7207,78.54248L81.312,101.02759A7.99973,7.99973,0,0,0,91.5542,97.60217l29.45264-53.01428a7.99977,7.99977,0,0,1,13.98632,0L164.4458,97.60217a7.99973,7.99973,0,0,0,10.24219,3.42542L225.27148,78.5459A8.00005,8.00005,0,0,1,236.30811,87.68884Z" opacity="0.2"/>
  <path d="M238.72754,73.53516a15.90627,15.90627,0,0,0-16.70508-2.29981l-50.584,22.48242L141.98633,40.70312a15.999,15.999,0,0,0-27.97266,0L84.56055,93.7168,33.96875,71.23145A16.00031,16.00031,0,0,0,11.89551,89.51172l25.44531,108.333a15.83567,15.83567,0,0,0,7.4082,10.09179,16.15491,16.15491,0,0,0,12.49317,1.65137,265.89708,265.89708,0,0,1,141.46875-.01367,16.15209,16.15209,0,0,0,12.4873-1.65137,15.83531,15.83531,0,0,0,7.40821-10.084L244.0957,89.52051A15.90513,15.90513,0,0,0,238.72754,73.53516ZM202.98535,194.15625a281.68183,281.68183,0,0,0-150.06543.042l-.00293-.00976v-.001L27.47168,85.85254,78.0625,108.33789a15.9219,15.9219,0,0,0,20.48535-6.85059L128,48.47266l29.45312,53.0166a15.91833,15.91833,0,0,0,20.48438,6.84863l50.584-22.48144Z"/>
</svg>
