<svg xmlns="http://www.w3.org/2000/svg" viewBox="0 0 256 256"><g opacity="0.2"><path d="M33.1,74.6A8.1,8.1,0,0,0,32,78.7v98.6a8.1,8.1,0,0,0,4.1,7l88,49.5a7.6,7.6,0,0,0,3.9,1h0l.9-106.8L33.1,74.6Z"/></g><path d="M229.9,70.8h0a.1.1,0,0,1-.1-.1,16.2,16.2,0,0,0-6-5.9l-88-49.5a16,16,0,0,0-15.6,0l-88,49.5a16.2,16.2,0,0,0-6,5.9.1.1,0,0,1-.1.1v.2A15,15,0,0,0,24,78.7v98.6a16.1,16.1,0,0,0,8.2,14l88,49.5a16.5,16.5,0,0,0,7.2,2h1.4a16.1,16.1,0,0,0,7-2l88-49.5a16.1,16.1,0,0,0,8.2-14V78.7A15.6,15.6,0,0,0,229.9,70.8ZM128,29.2,207.7,74l-78.8,44.8L48.4,74ZM40,87.6l80.9,45.1-.8,89.7L40,177.3Zm96.1,134.7.8-89.6,79.1-45v89.6Z"/></svg>