<svg xmlns="http://www.w3.org/2000/svg" viewBox="0 0 256 256"><g opacity="0.2"><rect x="144" y="40" width="96" height="176" rx="8"/></g><path d="M24,96v72a8,8,0,0,0,8,8h80a8,8,0,0,1,0,16H96v16h16a8,8,0,0,1,0,16H64a8,8,0,0,1,0-16H80V192H32A24.1,24.1,0,0,1,8,168V96A24.1,24.1,0,0,1,32,72h80a8,8,0,0,1,0,16H32A8,8,0,0,0,24,96ZM208,64H176a8,8,0,0,0,0,16h32a8,8,0,0,0,0-16Zm0,32H176a8,8,0,0,0,0,16h32a8,8,0,0,0,0-16Zm40-48V208a16,16,0,0,1-16,16H152a16,16,0,0,1-16-16V48a16,16,0,0,1,16-16h80A16,16,0,0,1,248,48ZM232,208V48H152V208Zm-40-40a12,12,0,1,0,12,12A12,12,0,0,0,192,168Z"/></svg>