<svg xmlns="http://www.w3.org/2000/svg" viewBox="0 0 256 256"><path d="M104,180a28,28,0,1,1-28-28A28,28,0,0,1,104,180Zm76-28a28,28,0,1,0,28,28A28,28,0,0,0,180,152ZM166.7,49.6a8,8,0,0,0-13.2.1L134.7,78a8,8,0,0,1-13.4,0L102.5,49.7a8,8,0,0,0-13.2-.1L40,120H216Z" opacity="0.2"/><path d="M180,144a36.1,36.1,0,0,0-35.1,28H111.1a36,36,0,1,0,0,16h33.8A36,36,0,1,0,180,144ZM76,200a20,20,0,1,1,20-20A20.1,20.1,0,0,1,76,200Zm104,0a20,20,0,1,1,20-20A20.1,20.1,0,0,1,180,200Zm68-88H220.2L173.3,45a16.1,16.1,0,0,0-26.5.3L128,73.6,109.2,45.3A16.1,16.1,0,0,0,82.7,45L35.8,112H8a8,8,0,0,0,0,16H248a8,8,0,0,0,0-16ZM95.8,54.2l18.9,28.3a16,16,0,0,0,26.6,0l18.9-28.3L200.6,112H55.4Z"/></svg>