<svg id="Flat" xmlns="http://www.w3.org/2000/svg" viewBox="0 0 256 256">
  <g opacity="0.2">
    <rect x="24" y="64" width="208" height="128" rx="16" transform="translate(256) rotate(90)"/>
  </g>
  <g>
    <circle cx="128" cy="60" r="12"/>
    <path d="M176,16H80A24.0275,24.0275,0,0,0,56,40V216a24.0275,24.0275,0,0,0,24,24h96a24.0275,24.0275,0,0,0,24-24V40A24.0275,24.0275,0,0,0,176,16Zm8,200a8.00917,8.00917,0,0,1-8,8H80a8.00917,8.00917,0,0,1-8-8V40a8.00917,8.00917,0,0,1,8-8h96a8.00917,8.00917,0,0,1,8,8Z"/>
  </g>
</svg>
