<svg id="Flat" xmlns="http://www.w3.org/2000/svg" viewBox="0 0 256 256">
  <g opacity="0.2">
    <rect x="32" y="48" width="192" height="160" rx="16" transform="translate(256) rotate(90)"/>
  </g>
  <g>
    <path d="M192,24H64A24.0275,24.0275,0,0,0,40,48V208a24.0275,24.0275,0,0,0,24,24H192a24.0275,24.0275,0,0,0,24-24V48A24.0275,24.0275,0,0,0,192,24Zm8,184a8.00917,8.00917,0,0,1-8,8H64a8.00917,8.00917,0,0,1-8-8V48a8.00917,8.00917,0,0,1,8-8H192a8.00917,8.00917,0,0,1,8,8Z"/>
    <path d="M160,56H96a8,8,0,0,0,0,16h64a8,8,0,0,0,0-16Z"/>
  </g>
</svg>
