<svg id="Flat" xmlns="http://www.w3.org/2000/svg" viewBox="0 0 256 256">
  <g opacity="0.2">
    <rect x="48.80404" y="48.80404" width="158.39192" height="158.39192" rx="8" transform="translate(-53.01934 128) rotate(-45)"/>
  </g>
  <path d="M128,244.67871A15.95087,15.95087,0,0,1,116.68628,240L16,139.31348a16.01733,16.01733,0,0,1,0-22.627L116.68628,16a16.01837,16.01837,0,0,1,22.62744,0L240,116.68652a16.01733,16.01733,0,0,1,0,22.627L139.31372,240A15.95087,15.95087,0,0,1,128,244.67871Zm0-217.36523L27.31372,128,128,228.68652l.00757.00684L228.68628,128Z"/>
</svg>
