<svg id="Flat" xmlns="http://www.w3.org/2000/svg" viewBox="0 0 256 256">
  <path d="M230.34326,133.65686l-96.68652,96.68628a7.9997,7.9997,0,0,1-11.31348,0L25.65674,133.65686a8.00031,8.00031,0,0,1,0-11.31372l96.68652-96.68628a7.9998,7.9998,0,0,1,11.31348,0l96.68652,96.68628A8.00031,8.00031,0,0,1,230.34326,133.65686Z" opacity="0.2"/>
  <path d="M236,116.68652,139.31348,20a16.01779,16.01779,0,0,0-22.627,0L20,116.68652a16.01779,16.01779,0,0,0,0,22.627L116.68652,236a16.01779,16.01779,0,0,0,22.627,0L236,139.31348A16.01779,16.01779,0,0,0,236,116.68652ZM128.00781,224.69336,128,224.68652,31.31348,128,128,31.31348,224.68652,128Z"/>
</svg>
