<svg id="Flat" xmlns="http://www.w3.org/2000/svg" viewBox="0 0 256 256">
  <path d="M237.16064,180.4966c-15.40771,13.39209-36.56152,23.85157-61.10058,29.85108a7.96733,7.96733,0,0,1-8.99072-4.20948L155.044,182.08791A189.30536,189.30536,0,0,1,128,184a189.30536,189.30536,0,0,1-27.04395-1.91211v-.00049L88.93066,206.1382a7.96733,7.96733,0,0,1-8.99072,4.20948c-24.53857-5.99951-45.69287-16.459-61.1001-29.85059a8.05352,8.05352,0,0,1-2.47216-8.39014L50.3418,58.86086a8.02027,8.02027,0,0,1,4.62646-5.10937,175.86821,175.86821,0,0,1,29.66406-9.18262A8.018,8.018,0,0,1,93.95166,49.855l7.97314,23.91944a192.47546,192.47546,0,0,1,52.1504,0v.00048L162.04834,49.855a8.018,8.018,0,0,1,9.31934-5.28613,175.88781,175.88781,0,0,1,29.66455,9.18262,8.02281,8.02281,0,0,1,4.62646,5.10937L239.63232,172.107A8.05132,8.05132,0,0,1,237.16064,180.4966Z" opacity="0.2"/>
  <path d="M108,144a12,12,0,1,1-12-12A12,12,0,0,1,108,144Zm52-12a12,12,0,1,0,12,12A12,12,0,0,0,160,132Zm82.40918,54.53418c-16.57617,14.4082-38.86182,25.3291-64.44922,31.585a16.06317,16.06317,0,0,1-3.81641.46192,15.89282,15.89282,0,0,1-14.22949-8.86426l-9.49023-18.97949A199.13637,199.13637,0,0,1,128,192a199.14289,199.14289,0,0,1-22.42383-1.26269l-9.48974,18.97949a15.89463,15.89463,0,0,1-14.23,8.86426,16.06317,16.06317,0,0,1-3.81641-.46192C52.45312,211.8633,30.167,200.9424,13.5918,186.53518a16.09028,16.09028,0,0,1-4.88672-16.72656L42.67871,56.56154A15.95771,15.95771,0,0,1,51.917,46.35647,184.05977,184.05977,0,0,1,82.93164,36.751,15.99475,15.99475,0,0,1,101.541,47.32619L107.4541,65.0635a199,199,0,0,1,41.0918,0L154.459,47.32522A15.99587,15.99587,0,0,1,173.06689,36.751,183.986,183.986,0,0,1,204.084,46.35744a15.953,15.953,0,0,1,9.23731,10.20508l33.97363,113.2461A16.09062,16.09062,0,0,1,242.40918,186.5342ZM231.91211,174.459,197.99609,61.1592a167.55672,167.55672,0,0,0-28.3291-8.77344l-5.0332,15.044a163.16721,163.16721,0,0,1,19.4331,4.96094,8,8,0,0,1-4.93847,15.21875C163.78711,82.63088,146.10742,80,128,80c-18.10449,0-35.78516,2.63086-51.12988,7.60938a7.99983,7.99983,0,1,1-4.9375-15.21875,163.36973,163.36973,0,0,1,19.44384-4.96289l-5.01416-15.042A167.55815,167.55815,0,0,0,58.02,61.14651L24.03027,174.40627c14.71778,12.79492,34.6875,22.51758,57.80957,28.16992L89.03223,188.104a161.40783,161.40783,0,0,1-17.09864-4.49463,8,8,0,1,1,4.93848-15.21875C92.21289,173.36916,109.89258,176,128,176s35.78711-2.63086,51.12793-7.60937a8,8,0,0,1,4.93848,15.21875,161.45383,161.45383,0,0,1-17.07276,4.48925l7.231,14.46192C197.28223,196.92385,217.25244,187.20119,231.91211,174.459Z"/>
</svg>
