<svg id="Flat" xmlns="http://www.w3.org/2000/svg" viewBox="0 0 256 256">
  <g opacity="0.2">
    <path d="M160,128a32,32,0,1,1-9.3726-22.62743h0l45.25483-45.25483h0A96,96,0,1,0,224,128Z"/>
  </g>
  <path d="M202.16113,55.16748A7.401,7.401,0,0,0,200.833,53.8396a104.11084,104.11084,0,1,0,1.32812,1.32788ZM167.19507,120a39.77738,39.77738,0,0,0-5.83911-14.04236l34.23877-34.23889A87.608,87.608,0,0,1,215.63257,120ZM152,128a24,24,0,1,1-24-24A24.0275,24.0275,0,0,1,152,128Zm-24,88A88,88,0,1,1,184.28076,60.40479l-34.239,34.239A39.98494,39.98494,0,1,0,167.19507,136h48.4375A88.11715,88.11715,0,0,1,128,216Z"/>
</svg>
