<svg xmlns="http://www.w3.org/2000/svg" viewBox="0 0 256 256"><g opacity="0.1"><circle cx="128" cy="128" r="24"/></g><g opacity="0.1"><circle cx="48" cy="128" r="24"/></g><g opacity="0.1"><circle cx="208" cy="128" r="24"/></g><path d="M128,96a32,32,0,1,0,32,32A32.1,32.1,0,0,0,128,96Zm0,48a16,16,0,1,1,16-16A16,16,0,0,1,128,144Z"/><path d="M48,96a32,32,0,1,0,32,32A32.1,32.1,0,0,0,48,96Zm0,48a16,16,0,1,1,16-16A16,16,0,0,1,48,144Z"/><path d="M208,96a32,32,0,1,0,32,32A32.1,32.1,0,0,0,208,96Zm0,48a16,16,0,1,1,16-16A16,16,0,0,1,208,144Z"/></svg>