<svg xmlns="http://www.w3.org/2000/svg" viewBox="0 0 256 256"><g opacity="0.2"><circle cx="128.1" cy="128" r="96"/></g><path d="M232.1,128.7V128a103.8,103.8,0,0,0-38.4-80.6l-.6-.5a1.8,1.8,0,0,0-.7-.5A103.8,103.8,0,0,0,83.1,34.2l-1.3.7a104.4,104.4,0,0,0-55.7,72.6v.2H26A104.6,104.6,0,0,0,65.6,211.1l1.3,1h.2a103.7,103.7,0,0,0,61,19.8,101.9,101.9,0,0,0,34.2-5.8l1.2-.4A104.2,104.2,0,0,0,232,128.9C232,128.8,232.1,128.8,232.1,128.7Zm-16.4-8.5-7.6-.2a171.4,171.4,0,0,0-44,5.8A173.1,173.1,0,0,0,150.7,96a171.5,171.5,0,0,0,38.2-31.6A88.1,88.1,0,0,1,215.7,120.2ZM176.3,54.5a150.4,150.4,0,0,1-34.3,28,168.1,168.1,0,0,0-38.6-39,87.9,87.9,0,0,1,72.9,11ZM85.7,50.9a151,151,0,0,1,42,39.2A152.5,152.5,0,0,1,64.1,104a152.7,152.7,0,0,1-20.3-1.4A88.2,88.2,0,0,1,85.7,50.9ZM40.1,128a75.2,75.2,0,0,1,.5-9.6A183.1,183.1,0,0,0,64.1,120a167.4,167.4,0,0,0,72.5-16.4,150.3,150.3,0,0,1,12.3,27.1,172.5,172.5,0,0,0-24.6,11.6,170.5,170.5,0,0,0-55.1,51.1A87.8,87.8,0,0,1,40.1,128Zm42,75a151.9,151.9,0,0,1,50.2-46.8,148.3,148.3,0,0,1,20.9-10,150.3,150.3,0,0,1,3.8,33.5,153.3,153.3,0,0,1-3.5,32.5,85.8,85.8,0,0,1-25.4,3.8A87.8,87.8,0,0,1,82.1,203Zm89,1.7a160,160,0,0,0,1.9-25,166.1,166.1,0,0,0-4.5-38.5,155.4,155.4,0,0,1,39.6-5.2l7.6.2A88.2,88.2,0,0,1,171.1,204.7Z"/></svg>