<svg id="Flat" xmlns="http://www.w3.org/2000/svg" viewBox="0 0 256 256">
  <g opacity="0.2">
    <circle cx="128" cy="128" r="96"/>
  </g>
  <path d="M231.9917,128.65915c.00146-.22022.0083-.439.0083-.65918a103.83915,103.83915,0,0,0-38.33057-80.58106c-.18408-.18262-.37695-.35888-.582-.52637a8.12248,8.12248,0,0,0-.70849-.51367A103.84215,103.84215,0,0,0,83.00684,34.24508a7.9864,7.9864,0,0,0-1.27979.63575A104.35933,104.35933,0,0,0,26.0249,107.5444c-.0083.04-.021.07813-.02881.11865-.00732.03809-.00927.07617-.01611.11426A103.9536,103.9536,0,0,0,65.57129,211.125a8.02091,8.02091,0,0,0,1.311.99023c.03662.022.0752.03613.11182.05762A103.84792,103.84792,0,0,0,162.251,226.19821a7.98982,7.98982,0,0,0,1.19189-.4209,104.18006,104.18006,0,0,0,68.54541-96.83545C231.98975,128.84713,231.99316,128.7529,231.9917,128.65915Zm-16.34326-8.48145c-2.54834-.11426-5.10059-.17969-7.64258-.17969a168.47807,168.47807,0,0,0-43.93408,5.83887,166.75914,166.75914,0,0,0-13.46485-29.83545,168.19741,168.19741,0,0,0,38.20264-31.55224A87.80676,87.80676,0,0,1,215.64844,120.1777ZM176.27978,54.46481a152.14476,152.14476,0,0,1-34.31494,28.05713,169.1832,169.1832,0,0,0-38.63281-38.998,87.90076,87.90076,0,0,1,72.94775,10.94092ZM85.64844,50.88327a153.04813,153.04813,0,0,1,42.03222,39.1792A151.82343,151.82343,0,0,1,64.00586,103.998a153.98693,153.98693,0,0,1-20.27735-1.35107A88.41411,88.41411,0,0,1,85.64844,50.88327ZM40,128a88.58228,88.58228,0,0,1,.52978-9.63526,169.97006,169.97006,0,0,0,23.47608,1.6333,167.76959,167.76959,0,0,0,72.52051-16.39795,150.78511,150.78511,0,0,1,12.3164,27.13477A166.5083,166.5083,0,0,0,124.25,142.33395,169.09239,169.09239,0,0,0,69.17822,193.393,87.79837,87.79837,0,0,1,40,128Zm42.00244,74.99121a153.04128,153.04128,0,0,1,50.23486-46.79346,150.44286,150.44286,0,0,1,20.94971-9.98144,152.47261,152.47261,0,0,1,3.73584,33.47607A152.93446,152.93446,0,0,1,153.42578,212.25a87.90959,87.90959,0,0,1-71.42334-9.25879Zm89.05762,1.72949a169.55889,169.55889,0,0,0,1.86279-25.02832,168.49829,168.49829,0,0,0-4.45215-38.4751,152.48818,152.48818,0,0,1,39.53516-5.21924c2.53125,0,5.07422.063,7.61035.188A88.1393,88.1393,0,0,1,171.06006,204.72067Z"/>
</svg>
