<svg id="Flat" xmlns="http://www.w3.org/2000/svg" viewBox="0 0 256 256">
  <g opacity="0.2">
    <circle cx="128.05859" cy="127.99906" r="96"/>
  </g>
  <path d="M232.05029,128.6582c.00147-.22021.0083-.439.0083-.65918A103.83915,103.83915,0,0,0,193.728,47.418c-.18408-.18262-.377-.35889-.582-.52637a8.12262,8.12262,0,0,0-.7085-.51367A103.84209,103.84209,0,0,0,83.06543,34.24414a7.988,7.988,0,0,0-1.27979.63574A104.35935,104.35935,0,0,0,26.0835,107.54346c-.0083.04-.021.07812-.02881.11865-.00733.03809-.00928.07617-.01612.11426A103.95358,103.95358,0,0,0,65.62988,211.124a8.02,8.02,0,0,0,1.311.99024c.03662.022.07519.03613.11181.05762a103.848,103.848,0,0,0,95.25684,14.02539,7.99054,7.99054,0,0,0,1.19189-.4209,104.18006,104.18006,0,0,0,68.54542-96.83545C232.04834,128.84619,232.05176,128.752,232.05029,128.6582ZM215.707,120.17676c-2.54834-.11426-5.10058-.17969-7.64258-.17969a168.47818,168.47818,0,0,0-43.93408,5.83887,166.7591,166.7591,0,0,0-13.46484-29.83545,168.19692,168.19692,0,0,0,38.20263-31.55225A87.80673,87.80673,0,0,1,215.707,120.17676ZM176.33838,54.46387A152.145,152.145,0,0,1,142.02344,82.521a169.183,169.183,0,0,0-38.63282-38.998,87.90067,87.90067,0,0,1,72.94776,10.94092ZM85.707,50.88232a153.04832,153.04832,0,0,1,42.03223,39.1792,151.82333,151.82333,0,0,1-63.67481,13.93555A153.98678,153.98678,0,0,1,43.78711,102.646,88.41408,88.41408,0,0,1,85.707,50.88232ZM40.05859,127.999a88.58223,88.58223,0,0,1,.52979-9.63525,169.96991,169.96991,0,0,0,23.47607,1.6333A167.76956,167.76956,0,0,0,136.585,103.59912a150.78484,150.78484,0,0,1,12.31641,27.13477A166.50841,166.50841,0,0,0,124.30859,142.333a169.09214,169.09214,0,0,0-55.07177,51.05908A87.79835,87.79835,0,0,1,40.05859,127.999ZM82.061,202.99023a153.04135,153.04135,0,0,1,50.23486-46.79345,150.44238,150.44238,0,0,1,20.94971-9.98145,152.4733,152.4733,0,0,1,3.73584,33.47608,152.93429,152.93429,0,0,1-3.49707,32.55761A87.90959,87.90959,0,0,1,82.061,202.99023Zm89.05761,1.7295a169.5589,169.5589,0,0,0,1.8628-25.02832,168.49878,168.49878,0,0,0-4.45215-38.4751,152.48762,152.48762,0,0,1,39.53515-5.21924c2.53125,0,5.07422.063,7.61035.188A88.13927,88.13927,0,0,1,171.11865,204.71973Z"/>
</svg>
