<svg xmlns="http://www.w3.org/2000/svg" viewBox="0 0 256 256"><path d="M208,144a80,80,0,0,1-160,0,105.7,105.7,0,0,1,1.3-16H206.7A105.7,105.7,0,0,1,208,144Z" opacity="0.2"/><path d="M174,47.8A259.4,259.4,0,0,0,132.6,9.4a8.1,8.1,0,0,0-9.2,0A259.4,259.4,0,0,0,82,47.8C54.5,79.3,40,112.6,40,144a88,88,0,0,0,176,0C216,112.6,201.5,79.3,174,47.8ZM128,26c14.2,11.1,56.9,47.8,68.8,94H59.2C71.1,73.8,113.8,37.1,128,26Zm0,190a72.1,72.1,0,0,1-72-72,70.3,70.3,0,0,1,.4-8H199.6a70.3,70.3,0,0,1,.4,8A72.1,72.1,0,0,1,128,216Z"/></svg>