<svg id="Flat" xmlns="http://www.w3.org/2000/svg" viewBox="0 0 256 256">
  <g opacity="0.2">
    <path d="M208,152c0-72-80-128-80-128S48,80,48,152a80,80,0,0,0,160,0Z"/>
  </g>
  <path d="M174.03662,55.75049a254.574,254.574,0,0,0-41.44873-38.3042,7.99885,7.99885,0,0,0-9.17578,0,254.574,254.574,0,0,0-41.44873,38.3042C54.51074,87.3208,40,120.60352,40,152a88,88,0,0,0,176,0C216,120.60352,201.48926,87.3208,174.03662,55.75049ZM128,224a72.08124,72.08124,0,0,1-72-72c0-57.23291,55.46924-105.01465,72-117.97949C144.5332,46.9873,200,94.76709,200,152A72.08124,72.08124,0,0,1,128,224Zm56-72a56.06353,56.06353,0,0,1-56,56,8,8,0,0,1,0-16,40.04521,40.04521,0,0,0,40-40,8,8,0,0,1,16,0Z"/>
</svg>
