<svg id="Flat" xmlns="http://www.w3.org/2000/svg" viewBox="0 0 256 256">
  <g opacity="0.2">
    <path d="M128,232a80,80,0,0,0,80-80c0-72-80-128-80-128Z"/>
  </g>
  <path d="M174.03662,55.751a254.56425,254.56425,0,0,0-41.44873-38.30469c-.01221-.00855-.02576-.01392-.038-.02246a8.01007,8.01007,0,0,0-.95557-.56372c-.05969-.03-.11957-.05811-.17981-.08667a7.93336,7.93336,0,0,0-2.09967-.65625c-.07642-.0127-.15228-.02442-.22894-.03491a7.20731,7.20731,0,0,0-2.17188,0c-.07666.01049-.15246.02221-.22888.03491a7.93389,7.93389,0,0,0-2.09973.65625c-.06024.02856-.12012.05664-.17981.08667a8.01007,8.01007,0,0,0-.95557.56372c-.0122.00854-.02575.01391-.038.02246A254.56425,254.56425,0,0,0,81.96338,55.751C54.51074,87.32129,40,120.60352,40,152a88,88,0,0,0,176,0C216,120.60352,201.48926,87.32129,174.03662,55.751ZM56,152c0-49.95728,42.26105-92.71143,64-111.397V223.54492A72.095,72.095,0,0,1,56,152Zm80,71.54492V40.603c21.73987,18.686,64,61.43921,64,111.397A72.095,72.095,0,0,1,136,223.54492Z"/>
</svg>
