<svg xmlns="http://www.w3.org/2000/svg" viewBox="0 0 256 256"><path d="M208,152a80,80,0,0,1-160,0C48,88,96,24,128,24S208,88,208,152Z" opacity="0.2"/><path d="M186.7,59.6C168.5,32.3,146.5,16,128,16S87.5,32.3,69.3,59.6,40,121.2,40,152a88,88,0,0,0,176,0C216,121.2,205.3,87.5,186.7,59.6ZM128,224a72.1,72.1,0,0,1-72-72c0-27.7,9.7-58.2,26.7-83.6C97.2,46.6,115.4,32,128,32c9.5,0,22.2,8.3,34.1,21.8L123.8,96.4a8.1,8.1,0,0,0-1.8,7.2,8.3,8.3,0,0,0,4.9,5.6l22.6,8.7-6,30.6a8.1,8.1,0,0,0,6.4,9.4h1.5a8.1,8.1,0,0,0,7.9-6.5l7.2-37.1a8.1,8.1,0,0,0-5-9l-18-7,28.6-31.8,1.2,1.8c17,25.4,26.7,55.9,26.7,83.6A72.1,72.1,0,0,1,128,224Z"/></svg>