<svg id="Flat" xmlns="http://www.w3.org/2000/svg" viewBox="0 0 256 256">
  <g opacity="0.2">
    <path d="M53.84619,137.97266H206.09912a8,8,0,0,0,5.91016-13.39161L135.88281,41.1333a7.99961,7.99961,0,0,0-11.82031,0L47.936,124.58105A8,8,0,0,0,53.84619,137.97266Z"/>
    <rect x="41.97266" y="169.97266" width="176" height="40" rx="8"/>
  </g>
  <g>
    <path d="M53.84668,145.97266h152.252a15.99994,15.99994,0,0,0,11.82129-26.78321L141.793,35.74121a15.99974,15.99974,0,0,0-23.64063,0v.00025L42.02539,119.1897a15.9998,15.9998,0,0,0,11.82129,26.783Zm76.126-99.448,76.12109,83.448-152.24414-.0044Z"/>
    <path d="M209.97266,161.97266h-160a16.01833,16.01833,0,0,0-16,16v24a16.01833,16.01833,0,0,0,16,16h160a16.01834,16.01834,0,0,0,16-16v-24A16.01833,16.01833,0,0,0,209.97266,161.97266Zm0,40h-160v-24h160Z"/>
  </g>
</svg>
