<svg xmlns="http://www.w3.org/2000/svg" viewBox="0 0 256 256"><g opacity="0.2"><path d="M122.1,38.4,44.4,122.6A8,8,0,0,0,50.3,136H205.7a8,8,0,0,0,5.9-13.4L133.9,38.4A7.9,7.9,0,0,0,122.1,38.4Z"/></g><g opacity="0.2"><rect x="108" y="100" width="40" height="176" rx="8" transform="translate(-60 316) rotate(-90)"/></g><path d="M50.3,144H205.7a16,16,0,0,0,11.8-26.9L139.8,32.9a16.2,16.2,0,0,0-23.6,0h0L38.5,117.1A16,16,0,0,0,50.3,144ZM128,43.8,205.7,128H50.3ZM208,160H48a16,16,0,0,0-16,16v24a16,16,0,0,0,16,16H208a16,16,0,0,0,16-16V176A16,16,0,0,0,208,160Zm0,40H48V176H208Z"/></svg>