<svg id="Flat" xmlns="http://www.w3.org/2000/svg" viewBox="0 0 256 256">
  <g opacity="0.2">
    <path d="M122.12157,38.3683,44.39345,122.57376A8,8,0,0,0,50.27188,136H205.72812a8,8,0,0,0,5.87843-13.42624L133.87843,38.3683A8,8,0,0,0,122.12157,38.3683Z"/>
  </g>
  <g opacity="0.2">
    <rect x="108" y="100" width="40" height="176" rx="8" transform="translate(-60 316) rotate(-90)"/>
  </g>
  <path d="M50.27148,144h155.457a16.0003,16.0003,0,0,0,11.75683-26.85254L139.75684,32.94214a15.99956,15.99956,0,0,0-23.51368,0h-.001L38.51562,117.14746A15.9997,15.9997,0,0,0,50.27148,144ZM128,43.79468,205.72168,128l-155.44531-.00439ZM208,160H48a16.01833,16.01833,0,0,0-16,16v24a16.01833,16.01833,0,0,0,16,16H208a16.01833,16.01833,0,0,0,16-16V176A16.01833,16.01833,0,0,0,208,160Zm0,40H48V176H208Z"/>
</svg>
