<svg id="Flat" xmlns="http://www.w3.org/2000/svg" viewBox="0 0 256 256">
  <g opacity="0.2">
    <polygon points="224 56 128 144 32 56 224 56"/>
  </g>
  <path d="M231.99023,55.80933q-.00511-.22192-.02246-.44312-.01391-.18054-.03564-.35864c-.01709-.13819-.03858-.27564-.063-.41284-.022-.12427-.0459-.24756-.07324-.36963-.02979-.12989-.064-.25855-.09961-.38721-.03467-.12353-.0708-.24634-.11133-.36743-.0415-.12549-.08789-.24927-.13623-.3728-.04639-.1189-.09375-.23682-.14551-.35279-.0542-.12133-.11279-.24072-.17334-.35986-.0581-.11426-.11718-.2273-.18066-.33814-.06445-.11328-.13281-.2246-.20361-.33544-.07178-.11329-.146-.22461-.22364-.334-.07226-.10156-.147-.20117-.22461-.30029-.08838-.11255-.1792-.22193-.273-.32959-.04394-.05029-.08154-.10376-.12695-.15332-.03857-.042-.08105-.07764-.12012-.11841-.09668-.10107-.19677-.19849-.29834-.29443-.09423-.08887-.189-.17676-.28662-.26026-.09619-.08227-.19531-.15991-.29541-.23755-.10937-.085-.21826-.16919-.33105-.24755-.09766-.06812-.19873-.13135-.29932-.19507-.11914-.0752-.23779-.15015-.35937-.21851-.10694-.05981-.2168-.11377-.32666-.16894-.11963-.05982-.23877-.12012-.36084-.17383-.1211-.05347-.24561-.1001-.37012-.14771-.11475-.0437-.22949-.08838-.34619-.12671-.1333-.04394-.269-.08081-.40528-.11767-.11425-.031-.228-.0625-.34326-.08838-.13574-.03027-.27343-.0542-.41162-.07764-.12256-.02075-.24414-.041-.36719-.05615-.13134-.01611-.26318-.02661-.396-.03613-.13477-.00977-.26953-.01758-.4043-.02051C224.1167,48.00757,224.05908,48,224,48H32c-.05469,0-.10742.00708-.16211.0083-.14551.00293-.29.011-.43506.022-.12353.009-.24609.0188-.36767.03345-.13282.01611-.26465.03784-.39649.06055-.1289.02221-.25781.04443-.38476.07251-.124.02783-.2461.06152-.36914.09521-.12793.03491-.25586.06958-.38135.11084-.124.04053-.24512.08765-.36719.13428-.11768.04541-.23584.0896-.35107.14014-.127.05566-.25147.11865-.37647.18139-.105.05274-.21.10449-.312.16187-.12549.07007-.24756.147-.36963.22436-.09766.06177-.1958.123-.29053.18921-.11474.07984-.22607.16553-.33691.2522-.09863.07642-.19629.15283-.29053.23364-.09863.08423-.19385.17285-.28906.2627-.10156.09546-.20068.19238-.29736.293-.03907.041-.08155.07666-.12012.11865-.04541.04956-.083.103-.127.15332-.09375.10766-.18457.217-.273.32959-.07764.09912-.15235.19873-.22461.30029-.07764.10938-.15186.2207-.22364.334-.0708.11084-.13916.22216-.20361.33544-.06348.11084-.12256.22388-.18066.33814-.06055.11914-.11914.23853-.17334.35986-.05176.116-.09912.23389-.14551.35279-.04834.12353-.09473.24731-.13623.3728-.04053.12109-.07666.2439-.11133.36743-.03564.12866-.06982.25732-.09961.38721-.02734.12207-.05127.24536-.07324.36963-.02441.1372-.0459.27465-.063.41284q-.022.17834-.03564.35864-.01758.22156-.02246.44312C24.0083,55.87329,24,55.93555,24,56V192a16.01833,16.01833,0,0,0,16,16H216a16.01833,16.01833,0,0,0,16-16V56C232,55.93555,231.9917,55.87329,231.99023,55.80933ZM203.43311,64,128,133.14746,52.56689,64ZM216,192H40V74.18652l82.59375,75.71094a8.0018,8.0018,0,0,0,10.8125,0l82.59521-75.7124.00831,117.81445Z"/>
</svg>
