<svg id="Flat" xmlns="http://www.w3.org/2000/svg" viewBox="0 0 256 256">
  <g opacity="0.2">
    <polygon points="224 96 145.455 152 110.545 152 32 96 128 32 224 96"/>
  </g>
  <path d="M231.99512,95.92334a7.926,7.926,0,0,0-.22608-1.8147c-.0166-.06909-.03759-.13672-.05615-.20532q-.09154-.33618-.2124-.666c-.03028-.08129-.061-.16186-.09326-.24218-.0835-.20459-.17725-.40625-.27832-.606-.03955-.07764-.07618-.15625-.11768-.23267-.11914-.21679-.25146-.429-.39307-.63745-.03125-.04614-.05761-.09521-.08984-.14062l-.01465-.023a8.114,8.114,0,0,0-.55517-.69043c-.04248-.04688-.08887-.08984-.13184-.13574-.16992-.18116-.34521-.354-.52832-.51612-.05957-.05273-.12158-.103-.18262-.1538q-.27831-.23219-.57324-.436c-.03662-.0249-.06836-.05518-.105-.07959l-96-64a8.00131,8.00131,0,0,0-8.875,0l-96,64c-.03516.02344-.06494.052-.09961.07568q-.30029.20691-.582.44263c-.05957.04956-.11914.0979-.17725.14893q-.27686.24572-.5332.52124c-.042.04467-.0874.08642-.12793.13208a8.00177,8.00177,0,0,0-.55615.69116l-.01465.023c-.03223.04541-.05859.09448-.08984.14062-.14161.2085-.27393.42066-.39307.63745-.0415.07642-.07813.155-.11768.23267-.10107.19971-.19482.40137-.27832.606-.03222.08032-.063.16089-.09326.24218q-.12157.33-.2124.666c-.01856.0686-.03955.13623-.05615.20532a7.926,7.926,0,0,0-.22608,1.8147C24.00439,95.94922,24,95.97412,24,96V200a16.01833,16.01833,0,0,0,16,16H216a16.01833,16.01833,0,0,0,16-16V96C232,95.97412,231.99561,95.94922,231.99512,95.92334ZM40,111.52881l56.72266,40.44092L40,192.03662ZM113.08594,160h29.82812L199.543,200H56.45752Zm46.1914-8.03027L216,111.52881v80.50732ZM128,41.61523,209.90967,96.221,142.89453,144H113.10547L46.09033,96.221Z"/>
</svg>
