<svg id="Flat" xmlns="http://www.w3.org/2000/svg" viewBox="0 0 256 256">
  <g opacity="0.2">
    <polygon points="224 96 145.455 152 110.545 152 32 96 128 32 224 96"/>
  </g>
  <path d="M231.99512,95.92334a7.928,7.928,0,0,0-.22608-1.81494c-.0166-.06885-.03759-.13672-.05615-.20508q-.09154-.33618-.2124-.666c-.03028-.08154-.061-.16162-.09326-.24218-.0835-.20459-.17725-.40625-.27832-.606-.03955-.07764-.07618-.15625-.11768-.23242-.11914-.21729-.25146-.4292-.39307-.6377-.03125-.04638-.05761-.09521-.08984-.14062l-.01465-.023a8.114,8.114,0,0,0-.55517-.69043c-.04248-.04688-.08887-.08984-.13184-.13574-.16992-.18116-.34521-.354-.52832-.51612-.05957-.05273-.12158-.103-.18262-.1538q-.27831-.23219-.57324-.436c-.03662-.0249-.06836-.05518-.105-.07959l-96-64a8.00131,8.00131,0,0,0-8.875,0l-96,64c-.03516.02344-.06494.05176-.09961.07568q-.30029.20655-.582.44287c-.05957.04932-.11914.09766-.17725.14893-.18457.16357-.36181.33789-.5332.521-.042.04492-.0874.08642-.12793.13183a8.04394,8.04394,0,0,0-.55615.69141l-.01465.023c-.03223.04541-.05859.09424-.08984.14062-.14161.2085-.27393.42041-.39307.6377-.0415.07617-.07813.15478-.11768.23242-.10107.19971-.19482.40137-.27832.606-.03222.08056-.063.16064-.09326.24218q-.12157.33033-.2124.666c-.01856.06836-.03955.13623-.05615.20508a7.928,7.928,0,0,0-.22608,1.81494C24.00439,95.94922,24,95.97412,24,96V200a16.01833,16.01833,0,0,0,16,16H216a16.01833,16.01833,0,0,0,16-16V96C232,95.97412,231.99561,95.94922,231.99512,95.92334ZM128,41.61523,209.90967,96.2207,142.89453,144H113.10547L46.09033,96.2207ZM40,200V111.52881l65.90137,46.98486A8.00118,8.00118,0,0,0,110.5459,160h34.9082a8.00118,8.00118,0,0,0,4.64453-1.48633L216,111.52881V200Z"/>
</svg>
