<svg id="Flat" xmlns="http://www.w3.org/2000/svg" viewBox="0 0 256.00098 256">
  <g opacity="0.2">
    <path d="M111.03042,215.83347H72.07L34.98164,178.74517a16,16,0,0,1,0-22.62742L91.55018,99.54921l67.88225,67.88225Z"/>
  </g>
  <path d="M216.001,207.833H130.34375l34.72949-34.72949.0166-.01465.01465-.0166,56.55371-56.55274a24.02962,24.02962,0,0,0,0-33.94141L176.40332,37.32324a24.0007,24.0007,0,0,0-33.94141,0L85.90283,93.88232l-.01025.00928-.00928.01026L29.32422,150.46094a24.00066,24.00066,0,0,0,0,33.9414l37.08887,37.08789a8.00232,8.00232,0,0,0,5.65722,2.34278H216.001a8,8,0,0,0,0-16ZM153.77637,48.6377a7.99708,7.99708,0,0,1,11.3125,0l45.25488,45.25488a8.00888,8.00888,0,0,1,0,11.31347l-50.91113,50.91114L102.86475,99.54932ZM75.38379,207.833,40.63867,173.08789a7.99708,7.99708,0,0,1,0-11.3125l50.91162-50.91162,56.56787,56.56787L107.7168,207.833Z"/>
</svg>
