<svg id="Flat" xmlns="http://www.w3.org/2000/svg" viewBox="0 0 256 256">
  <path d="M208,96V216H48V96Z" opacity="0.2"/>
  <path d="M80.34229,63.64551A8,8,0,0,1,80.34375,52.332l42-41.98926a8.00063,8.00063,0,0,1,11.3125,0l42,41.98926a7.99983,7.99983,0,1,1-11.3125,11.31445L136,35.3103V128a8,8,0,0,1-16,0V35.3103L91.65625,63.64648A7.99885,7.99885,0,0,1,80.34229,63.64551ZM200,88H176a8,8,0,0,0,0,16h24V208H56V104H80a8,8,0,0,0,0-16H56a16.01833,16.01833,0,0,0-16,16V208a16.01833,16.01833,0,0,0,16,16H200a16.01833,16.01833,0,0,0,16-16V104A16.01833,16.01833,0,0,0,200,88Z"/>
</svg>
