<svg id="Flat" xmlns="http://www.w3.org/2000/svg" viewBox="0 0 256 256">
  <g opacity="0.2">
    <path d="M127.99414,55.99231c-80,0-112,72.00781-112,72.00781s32,71.99219,112,71.99219,112-71.99219,112-71.99219S207.99414,55.99231,127.99414,55.99231Zm0,112.0083a40,40,0,1,1,40-40A40.0001,40.0001,0,0,1,127.99414,168.00061Z"/>
  </g>
  <g>
    <path d="M247.30469,124.75061c-.35157-.79-8.81934-19.57617-27.65332-38.41113-25.084-25.08692-56.7793-38.34766-91.65723-38.34766S61.4209,61.25256,36.33691,86.33948c-18.834,18.835-27.30175,37.62109-27.65332,38.41113a8.00282,8.00282,0,0,0,0,6.49805c.35157.791,8.82032,19.57226,27.6543,38.40429,25.084,25.08106,56.77832,38.33887,91.65625,38.33887S194.56641,194.734,219.65039,169.653c18.834-18.832,27.30273-37.61328,27.6543-38.40429A8.00282,8.00282,0,0,0,247.30469,124.75061ZM127.99414,191.99182c-30.78027,0-57.67383-11.18555-79.93457-33.24609a133.46132,133.46132,0,0,1-23.11328-30.7461,133.4854,133.4854,0,0,1,23.11328-30.7539C70.32031,75.1803,97.21484,63.99182,127.99414,63.99182S185.668,75.1803,207.92871,97.24573A133.46356,133.46356,0,0,1,231.043,128.00061C223.83008,141.4508,192.42578,191.99182,127.99414,191.99182Z"/>
    <path d="M127.99414,80.00061a48,48,0,1,0,48,48A48.05375,48.05375,0,0,0,127.99414,80.00061Zm0,80a32,32,0,1,1,32-32A32.03667,32.03667,0,0,1,127.99414,160.00061Z"/>
  </g>
</svg>
