<svg xmlns="http://www.w3.org/2000/svg" viewBox="0 0 256 256"><g opacity="0.2"><path d="M128,56C48,56,16,128,16,128s32,72,112,72,112-72,112-72S208,56,128,56Zm0,112a40,40,0,1,1,40-40A40,40,0,0,1,128,168Z"/></g><path d="M53.9,34.6A8,8,0,0,0,42.1,45.4L61.3,66.5C25,88.8,9.4,123.2,8.7,124.8a7.9,7.9,0,0,0,0,6.4c.3.8,8.8,19.6,27.6,38.5C61.4,194.7,93.1,208,128,208a128.6,128.6,0,0,0,52.1-10.8l22,24.2A8,8,0,0,0,208,224a8.2,8.2,0,0,0,5.4-2.1,7.9,7.9,0,0,0,.5-11.3Zm47.3,75.9,41.7,45.8A31.6,31.6,0,0,1,128,160a32,32,0,0,1-26.8-49.5ZM128,192c-30.8,0-57.7-11.2-79.9-33.3A131.5,131.5,0,0,1,24.9,128c4.7-8.8,19.7-33.4,47.4-49.4l18,19.8a48,48,0,0,0,63.6,70l14.7,16.2A112.1,112.1,0,0,1,128,192Z"/><path d="M247.3,124.8c-.3-.8-8.8-19.6-27.6-38.5C194.6,61.3,162.9,48,128,48a132.4,132.4,0,0,0-22,1.8A8,8,0,0,0,99.4,59a8.1,8.1,0,0,0,9.2,6.6A112.9,112.9,0,0,1,128,64c30.8,0,57.7,11.2,79.9,33.2A130.3,130.3,0,0,1,231,128a132.6,132.6,0,0,1-27.7,35.1,8,8,0,0,0-.6,11.3,7.6,7.6,0,0,0,5.9,2.7,8.1,8.1,0,0,0,5.3-2c22.9-20.5,33-42.9,33.4-43.9A7.9,7.9,0,0,0,247.3,124.8Z"/><path d="M159.9,125a7.9,7.9,0,0,0,7.9,7.2h.8a8,8,0,0,0,7.2-8.7A48.3,48.3,0,0,0,137,80.8a8,8,0,0,0-3,15.8A32.2,32.2,0,0,1,159.9,125Z"/></svg>