<svg id="Flat" xmlns="http://www.w3.org/2000/svg" viewBox="0 0 256 256">
  <g opacity="0.2">
    <path d="M179.799,115.799l4.88728,4.88728a16,16,0,0,1,0,22.62742l-7.02944,7.02944a8,8,0,0,1-11.3137,0l-60.6863-60.6863a8,8,0,0,1,0-11.3137l7.02944-7.02944a16,16,0,0,1,22.62742,0l4.8873,4.8873,27.58813-27.58813c10.78822-10.78822,28.36591-11.4491,39.44579-.96065A28.00039,28.00039,0,0,1,207.799,87.799Z"/>
  </g>
  <path d="M223.99658,67.50391a35.73557,35.73557,0,0,0-11.26172-25.66114c-14.01806-13.2705-36.71826-12.771-50.60254,1.11328L140.18408,64.90479a24.02939,24.02939,0,0,0-33.15429.75195L100,72.68652a16.01779,16.01779,0,0,0,0,22.627l2.05908,2.05908L51.71533,147.71582a40.15638,40.15638,0,0,0-11.01074,35.771l-9.78271,22.40869a13.66329,13.66329,0,0,0,2.87744,15.21728,15.915,15.915,0,0,0,11.27929,4.70313,16.077,16.077,0,0,0,6.43555-1.353l20.999-9.16748a40.15266,40.15266,0,0,0,35.771-11.01123l50.34326-50.34326L160.68652,156a16.01779,16.01779,0,0,0,22.627,0l7.02978-7.02979a24.02843,24.02843,0,0,0,.752-33.15429l22.36036-22.36035A35.71726,35.71726,0,0,0,223.99658,67.50391ZM96.9707,192.9707a24.096,24.096,0,0,1-23.1914,6.21436,8.00543,8.00543,0,0,0-5.26416.39746L47.044,208.95605l9.37353-21.47119a8.00234,8.00234,0,0,0,.39746-5.26416,24.0986,24.0986,0,0,1,6.21436-23.1914L113.37256,108.686l33.9414,33.9414ZM202.14209,82.14209l-28,28a7.99915,7.99915,0,0,0,0,11.31348l4.8877,4.88769a8.00889,8.00889,0,0,1,0,11.31348L172,144.68652,111.31348,84l7.02978-7.02979a8.00891,8.00891,0,0,1,11.31348,0l4.88769,4.8877a7.99945,7.99945,0,0,0,11.31348,0L173.4458,54.26953c7.81494-7.814,20.50488-8.17724,28.28955-.80713a20,20,0,0,1,.40674,28.67969Z"/>
</svg>
