<svg xmlns="http://www.w3.org/2000/svg" viewBox="0 0 256 256"><path d="M216,136v80H40V88l64,48V88l64,48Z" opacity="0.2"/><path d="M116,176a8,8,0,0,1-8,8H80a8,8,0,0,1,0-16h28A8,8,0,0,1,116,176Zm60-8H148a8,8,0,0,0,0,16h28a8,8,0,0,0,0-16Zm72,48a8,8,0,0,1-8,8H16a8,8,0,0,1,0-16H32V88a8,8,0,0,1,12.8-6.4L96,120V88a8,8,0,0,1,12.8-6.4l38.7,29.1,11.6-81A16,16,0,0,1,174.9,16h18.2a16,16,0,0,1,15.8,13.7l15,105.2h0a.8.8,0,0,1,.1.4v.5h0v72h16A8,8,0,0,1,248,216Zm-85.9-94.4,8.6,6.4h36.1L193.1,32H174.9ZM48,208H208V144H168a8.4,8.4,0,0,1-4.8-1.6l-14.4-10.8h0L112,104v32a8,8,0,0,1-12.8,6.4L48,104Z"/></svg>