<svg id="Flat" xmlns="http://www.w3.org/2000/svg" viewBox="0 0 256 256">
  <g opacity="0.2">
    <path d="M128,32a96,96,0,1,0,96,96A95.99991,95.99991,0,0,0,128,32ZM80,160V96l48,32Zm64,0V96l48,32Z"/>
  </g>
  <g>
    <path d="M128,24A104,104,0,1,0,232,128,104.11791,104.11791,0,0,0,128,24Zm0,192a88,88,0,1,1,88-88A88.09957,88.09957,0,0,1,128,216Z"/>
    <path d="M132.4375,121.34375l-48-32A8.00016,8.00016,0,0,0,72,96v64a7.99975,7.99975,0,0,0,12.4375,6.65625l48-32a7.99959,7.99959,0,0,0,0-13.3125ZM88,145.05176V110.94824L113.57812,128Z"/>
    <path d="M196.4375,121.34375l-48-32A8.00016,8.00016,0,0,0,136,96v64a7.99975,7.99975,0,0,0,12.4375,6.65625l48-32a7.99959,7.99959,0,0,0,0-13.3125ZM152,145.05176V110.94824L177.57812,128Z"/>
  </g>
</svg>
