<svg xmlns="http://www.w3.org/2000/svg" viewBox="0 0 256 256"><path d="M241.5,134.7l-89.2,57.4a8,8,0,0,1-12.3-6.8V70.7a8,8,0,0,1,12.3-6.8l89.2,57.4A7.9,7.9,0,0,1,241.5,134.7Zm-112-13.4L40.3,63.9A8,8,0,0,0,28,70.7V185.3a8,8,0,0,0,12.3,6.8l89.2-57.4A7.9,7.9,0,0,0,129.5,121.3Z" opacity="0.2"/><path d="M245.9,114.5,156.7,57.2A16,16,0,0,0,132,70.7v42.6L44.7,57.2A16,16,0,0,0,20,70.7V185.3a16.1,16.1,0,0,0,8.3,14.1,16.5,16.5,0,0,0,16.4-.6L132,142.7v42.6a16.1,16.1,0,0,0,8.3,14.1,16.5,16.5,0,0,0,16.4-.6l89.2-57.3a16.1,16.1,0,0,0,0-27ZM36,185.3V70.7L125.2,128Zm112,0V70.7L237.2,128Z"/></svg>