<svg xmlns="http://www.w3.org/2000/svg" viewBox="0 0 256 256"><g opacity="0.2"><circle cx="162" cy="128" r="34"/><path d="M94,94h34V26H94a34,34,0,0,0,0,68Z"/><path d="M60,196a34,34,0,0,0,68,0V162H94A34,34,0,0,0,60,196Z"/></g><path d="M186.6,94A42,42,0,0,0,162,18H94A42,42,0,0,0,69.4,94a41.9,41.9,0,0,0,0,68A42,42,0,1,0,136,196V160.9A42,42,0,1,0,186.6,94ZM188,60a26.1,26.1,0,0,1-26,26H136V34h26A26.1,26.1,0,0,1,188,60ZM68,60A26.1,26.1,0,0,1,94,34h26V86H94A26.1,26.1,0,0,1,68,60Zm0,68a26.1,26.1,0,0,1,26-26h26v52H94A26.1,26.1,0,0,1,68,128Zm26,94a26,26,0,0,1,0-52h26v26A26.1,26.1,0,0,1,94,222Zm68-68a26,26,0,0,1,0-52h0a26,26,0,0,1,0,52Z"/></svg>