<svg id="Flat" xmlns="http://www.w3.org/2000/svg" viewBox="0 0 256 256">
  <path d="M208,72V184a7.99989,7.99989,0,0,1-8,8H176V104L136,64H80V40.00006a7.99989,7.99989,0,0,1,8-8L168,32Z" opacity="0.2"/>
  <path d="M213.65723,66.34326l-40-40A8.00076,8.00076,0,0,0,168,24H88A16.01833,16.01833,0,0,0,72,40V56H56A16.01833,16.01833,0,0,0,40,72V216a16.01833,16.01833,0,0,0,16,16H168a16.01833,16.01833,0,0,0,16-16V200h16a16.01833,16.01833,0,0,0,16-16V72A8.00035,8.00035,0,0,0,213.65723,66.34326ZM168,216H56V72h76.68652L168,107.314l.00781,84.53083c-.001.05212-.00781.10284-.00781.15521,0,.05255.00684.10345.00781.15576l.002,23.84375Zm32-32H184V104a8.00035,8.00035,0,0,0-2.34277-5.65674l-40-40A8.00076,8.00076,0,0,0,136,56H88V40h76.68652L200,75.314Zm-56-32a8.00008,8.00008,0,0,1-8,8H88a8,8,0,0,1,0-16h48A8.00008,8.00008,0,0,1,144,152Zm0,32a8.00008,8.00008,0,0,1-8,8H88a8,8,0,0,1,0-16h48A8.00008,8.00008,0,0,1,144,184Z"/>
</svg>
