<svg id="Flat" xmlns="http://www.w3.org/2000/svg" viewBox="0 0 256 256">
  <g opacity="0.2">
    <polygon points="152 32 152 88 208.008 88 152 32"/>
  </g>
  <g>
    <path d="M216.00781,88a7.97147,7.97147,0,0,0-2.41845-5.7251L157.65723,26.34277c-.08008-.08007-.167-.15039-.25-.22656-.10791-.09912-.21289-.20166-.32618-.29492-.07519-.06152-.15576-.11524-.23291-.17432-.13085-.10009-.26025-.20166-.397-.29394-.062-.04151-.12793-.07617-.19043-.11573-.15869-.10009-.31738-.1997-.4834-.28906-.04492-.02392-.09179-.04248-.13672-.06543-.1875-.09668-.377-.18945-.57275-.271-.03027-.0127-.0625-.022-.09326-.03418-.21045-.08448-.42383-.16358-.64258-.23-.03174-.00977-.06445-.01563-.09619-.02491-.2168-.063-.436-.12109-.66064-.166-.07129-.01416-.145-.02051-.2168-.03272-.18555-.03222-.37012-.06494-.55908-.08349A7.91349,7.91349,0,0,0,152,24H55.99219a16.01833,16.01833,0,0,0-16,16V216a16.01833,16.01833,0,0,0,16,16H200a16.01833,16.01833,0,0,0,16-16V88.15479C216.001,88.10254,216.00781,88.05225,216.00781,88ZM160,51.31348,188.68555,80H160ZM200,216H55.99219V40H144V88a8.00039,8.00039,0,0,0,8,8h48.00049l.00928,120Z"/>
    <path d="M152,144H104a8,8,0,0,0,0,16h48a8,8,0,0,0,0-16Z"/>
  </g>
</svg>
