<svg id="Flat" xmlns="http://www.w3.org/2000/svg" viewBox="0 0 256 256">
  <path d="M208.0083,88H152V32Z" opacity="0.2"/>
  <path d="M216.00781,88a7.97224,7.97224,0,0,0-2.43164-5.73779L157.65723,26.34375q-.27686-.27694-.58008-.5257c-.04932-.04046-.10254-.075-.15283-.11419-.15577-.12195-.3125-.2428-.477-.35315-.04493-.03021-.09327-.05518-.13868-.08441-.1748-.11182-.35058-.22113-.53418-.3194-.03369-.01813-.06933-.03223-.10351-.04987-.19727-.10235-.39746-.19989-.60449-.28576-.02344-.00977-.04786-.01673-.07178-.02625-.21729-.08783-.4375-.16888-.66358-.23767-.02636-.008-.05371-.01282-.08007-.02057-.22217-.06506-.44678-.12408-.67627-.17-.06543-.01312-.13282-.01874-.19873-.03027-.19092-.03321-.38184-.06678-.57715-.08619A7.98793,7.98793,0,0,0,152,24H55.99219a16.01833,16.01833,0,0,0-16,16V216a16.01833,16.01833,0,0,0,16,16H200a16.01833,16.01833,0,0,0,16-16V88.15948C216.001,88.1059,216.00781,88.05383,216.00781,88ZM160,51.31372,188.68652,80H160ZM200,216H55.99219V40H144V88a8.00008,8.00008,0,0,0,8,8h48.00049l.00928,120Zm-38.34326-73.65674a7.99984,7.99984,0,1,1-11.31348,11.31348L136,139.31348V184a8,8,0,0,1-16,0V139.31348l-14.34326,14.34326a7.99984,7.99984,0,0,1-11.31348-11.31348l27.99756-27.9975q.28125-.28152.59033-.53381c.08545-.07025.17578-.131.26367-.19714.12061-.091.23926-.18439.36524-.26856.10889-.07275.22168-.13568.33349-.20251.11182-.06739.22168-.13764.33741-.19959.11474-.06115.23242-.11279.34912-.168.11963-.05688.23779-.11657.36133-.1676.1123-.04645.227-.08386.3413-.125.13184-.04773.26221-.09821.39747-.1391.11377-.0343.22851-.05914.34326-.08826.13818-.03515.2749-.0736.416-.1015.12989-.02575.26123-.04065.39258-.05993.12695-.01868.25244-.04236.38135-.055.23193-.02282.46484-.03271.69824-.03527.02979-.00031.05859-.00446.08838-.00446s.05859.00415.08838.00446c.2334.00256.46631.01245.69824.03527.12891.01264.2544.03632.38135.055.13135.01928.26269.03418.39258.05993.14111.0279.27783.06635.416.1015.11475.02912.22949.054.34326.08826.13526.04089.26563.09137.39747.1391.11425.04114.229.07855.3413.125.12354.051.2417.11072.36133.1676.1167.05524.23438.10688.34912.168.11573.062.22559.1322.33741.19959.11181.06683.2246.12976.33349.20251.126.08417.24463.17755.36524.26856.08789.0661.17822.12689.26367.19714.20556.16858.40332.3465.59131.53449Z"/>
</svg>
