<svg xmlns="http://www.w3.org/2000/svg" viewBox="0 0 256 256"><path d="M208,88H152V32Z" opacity="0.2"/><path d="M216,88a7.8,7.8,0,0,0-2.4-5.7l-55.9-56A8.1,8.1,0,0,0,152,24H56A16,16,0,0,0,40,40v88a8,8,0,0,0,16,0V40h88V88a8,8,0,0,0,8,8h48v32a8,8,0,0,0,16,0V88ZM160,51.3,188.7,80H160ZM184,160H168a8,8,0,0,0-8,8v48a8,8,0,0,0,16,0v-8h8a24,24,0,0,0,0-48Zm0,32h-8V176h8a8,8,0,0,1,0,16Zm-48-24v48a8,8,0,0,1-16,0V168a8,8,0,0,1,16,0ZM96,216a8,8,0,0,1-8,8H56a8,8,0,0,1-7.1-4.2,8.3,8.3,0,0,1,.4-8.2L73.1,176H56a8,8,0,0,1,0-16H88a8,8,0,0,1,7.1,4.2,8.3,8.3,0,0,1-.4,8.2L70.9,208H88A8,8,0,0,1,96,216Z"/></svg>