<svg id="Flat" xmlns="http://www.w3.org/2000/svg" viewBox="0 0 256 256">
  <g opacity="0.2">
    <polygon points="152 32 152 88 208.008 88 152 32"/>
  </g>
  <g>
    <path d="M216.00781,88a7.97224,7.97224,0,0,0-2.43164-5.73779L157.65723,26.34375q-.27686-.27686-.58008-.52563c-.04932-.04053-.10254-.075-.15283-.11426-.15577-.12195-.3125-.2428-.477-.35315-.04493-.03015-.09327-.05518-.13868-.08435-.1748-.11182-.35058-.22119-.53418-.31946-.03369-.01819-.06933-.03223-.10351-.04993-.19727-.10229-.39746-.19983-.60449-.28564-.02344-.00977-.04786-.01685-.07178-.02637-.21729-.08777-.4375-.16882-.66358-.23755-.02636-.00805-.05371-.01294-.08007-.02063-.22217-.06506-.44678-.12414-.67627-.17-.06543-.01306-.13282-.01868-.19873-.03028-.19092-.0332-.38184-.06665-.57715-.08618Q152.40259,24.00055,152,24H55.99219a16.01833,16.01833,0,0,0-16,16V216a16.01833,16.01833,0,0,0,16,16H200a16.01833,16.01833,0,0,0,16-16V88.15948C216.001,88.1059,216.00781,88.05383,216.00781,88ZM160,51.31372,188.68652,80H160ZM200,216H55.99219V40H144V88a8.00008,8.00008,0,0,0,8,8h48.00049l.00976,119.99951Z"/>
    <path d="M160,128H96a8,8,0,0,0,0,16h64a8,8,0,0,0,0-16Z"/>
    <path d="M160,160H96a8,8,0,0,0,0,16h64a8,8,0,0,0,0-16Z"/>
  </g>
</svg>
