<svg id="Flat" xmlns="http://www.w3.org/2000/svg" viewBox="0 0 256 256">
  <g opacity="0.2">
    <polygon points="152 32 152 88 208.008 88 152 32"/>
  </g>
  <g>
    <path d="M216.00781,88a7.97224,7.97224,0,0,0-2.43164-5.73779L157.65723,26.34375q-.27686-.27694-.58008-.5257c-.04932-.04046-.10254-.075-.15283-.11419-.15577-.12195-.3125-.2428-.477-.35315-.04493-.03021-.09327-.05518-.13868-.08441-.1748-.11182-.35058-.22113-.53418-.3194-.03369-.01813-.06933-.03223-.10351-.04987-.19727-.10235-.39746-.19989-.60449-.28576-.02344-.00977-.04786-.01673-.07178-.02625-.21729-.08783-.4375-.16888-.66358-.23767-.02636-.008-.05371-.01282-.08007-.02057-.22217-.06506-.44678-.12408-.67627-.17-.06543-.01312-.13282-.01874-.19873-.03027-.19092-.03321-.38184-.06678-.57715-.08619A7.98793,7.98793,0,0,0,152,24H55.99219a16.01833,16.01833,0,0,0-16,16V216a16.01833,16.01833,0,0,0,16,16H200a16.01833,16.01833,0,0,0,16-16V88.15948C216.001,88.1059,216.00781,88.05383,216.00781,88ZM160,51.31372,188.68652,80H160ZM200,216H55.99219V40H144V88a8.00008,8.00008,0,0,0,8,8h48.00049l.00928,120Z"/>
    <path d="M150.34326,150.34326,136,164.68652V120a8,8,0,0,0-16,0v44.68652l-14.34326-14.34326a8,8,0,0,0-11.31348,11.314l28,28c.02588.02606.05469.04767.08106.0733.16211.15784.32861.31128.50341.455.09766.08032.20118.15039.30176.22534.1084.08111.21485.1654.32764.241.11621.07794.2373.1455.35693.21667.10449.06244.20655.12817.31446.18585.12011.06439.24414.119.36669.17676.11426.05389.22657.1109.34327.15942.11816.049.23925.08838.35937.13135.126.04541.251.09387.37988.133.11963.03613.24122.06262.36231.09308.13184.03338.26269.07037.397.097.13965.02765.28028.044.42041.06415.11817.01691.23389.03925.353.051.26269.02588.52588.03986.78955.03986s.52686-.014.78955-.03986c.11914-.01171.23486-.03405.353-.051.14013-.02014.28076-.0365.42041-.06415.13428-.02667.26513-.06366.397-.097.12109-.03046.24268-.057.36231-.09308.1289-.03913.2539-.08759.37988-.133.12012-.043.24121-.0824.35937-.13135.1167-.04852.229-.10553.34327-.15942.12255-.0578.24658-.11237.36669-.17676.10791-.05768.21-.12341.31446-.18585.11963-.07117.24072-.13873.35693-.21667.11279-.07557.21924-.15986.32764-.241.10058-.075.2041-.145.30176-.22534.17822-.1463.34765-.30237.51269-.46326.023-.02283.04883-.04193.07178-.06506l28-28a8,8,0,0,0-11.31348-11.314Z"/>
  </g>
</svg>
