<svg xmlns="http://www.w3.org/2000/svg" viewBox="0 0 256 256"><path d="M208,88H152V32Z" opacity="0.2"/><path d="M213.7,82.3l-56-56A8.1,8.1,0,0,0,152,24H56A16,16,0,0,0,40,40V216a16,16,0,0,0,16,16H200a16,16,0,0,0,16-16V88A8.1,8.1,0,0,0,213.7,82.3ZM160,51.3,188.7,80H160ZM200,216H56V40h88V88a8,8,0,0,0,8,8h48V216Zm-42.3-82.3L139.3,152l18.4,18.3a8.1,8.1,0,0,1,0,11.4,8.2,8.2,0,0,1-11.4,0L128,163.3l-18.3,18.4a8.2,8.2,0,0,1-11.4,0,8.1,8.1,0,0,1,0-11.4L116.7,152,98.3,133.7a8.1,8.1,0,0,1,11.4-11.4L128,140.7l18.3-18.4a8.1,8.1,0,0,1,11.4,11.4Z"/></svg>