<svg id="Flat" xmlns="http://www.w3.org/2000/svg" viewBox="0 0 256 256">
  <g opacity="0.2">
    <polygon points="152 32 152 88 208.008 88 152 32"/>
  </g>
  <g>
    <path d="M216.0083,88a7.97132,7.97132,0,0,0-2.43085-5.73657L157.65674,26.34277c-.0307-.03076-.06494-.05688-.09607-.08691-.1557-.15088-.31433-.29858-.48187-.43652-.06208-.051-.129-.09473-.19239-.1438-.14331-.11084-.28607-.22229-.43689-.32349-.05529-.03686-.114-.06775-.1701-.10327-.16486-.10474-.33045-.20825-.50317-.301-.04023-.02148-.08259-.03857-.12311-.05932-.19171-.09864-.38568-.19361-.58606-.27686-.02655-.011-.05426-.01892-.08094-.02966-.21441-.08643-.43188-.16663-.655-.2345-.0271-.0083-.05506-.01318-.08222-.02124-.22137-.0647-.44513-.12353-.67395-.16931-.0683-.01379-.13824-.01965-.20691-.03162-.18841-.03247-.37652-.06579-.56915-.085Q152.40238,24.00055,152,24H55.99219a16.01833,16.01833,0,0,0-16,16V216a16.01833,16.01833,0,0,0,16,16H200a16.01833,16.01833,0,0,0,16-16V88.16431C216.0011,88.10913,216.0083,88.05542,216.0083,88ZM160,51.314,188.686,80H160ZM200,216H55.99219V40H144V88a8.00008,8.00008,0,0,0,8,8h48.00085l.0094,120Z"/>
    <path d="M154.47205,167.16394a36.00173,36.00173,0,1,0-11.32087,11.307l10.98505,10.9851a8.00018,8.00018,0,1,0,11.31348-11.31445Zm-44.62-5.02234a20,20,0,1,1,28.28418,0A19.86692,19.86692,0,0,1,109.85205,162.1416Z"/>
  </g>
</svg>
