<svg xmlns="http://www.w3.org/2000/svg" viewBox="0 0 256 256"><path d="M208,88H152V32Z" opacity="0.2"/><path d="M80,168v32a24,24,0,0,1-48,0,8,8,0,0,1,16,0,8,8,0,0,0,16,0V168a8,8,0,0,1,16,0ZM216,88.2V216a16,16,0,0,1-16,16H176a8,8,0,0,1,0-16h24V96H152a8,8,0,0,1-8-8V40H56v88a8,8,0,0,1-16,0V40A16,16,0,0,1,56,24h96a8.1,8.1,0,0,1,5.7,2.3l55.9,56A7.8,7.8,0,0,1,216,88ZM160,80h28.7L160,51.3ZM121.7,183.8c-3.1-.8-8.6-2.3-9.7-3.6V180c0-3.3,2.4-5,7-5a18.4,18.4,0,0,1,10,3.2h-.1A8.3,8.3,0,0,0,134,180a8,8,0,0,0,8-8,7.6,7.6,0,0,0-2.9-6.1h0A33.4,33.4,0,0,0,119,159c-13.5,0-23,8.6-23,21s13,17,21.6,19.3c3.4.9,7,1.8,9.2,3.1s1.2,1,1.2,1.6,0,5-9,5a18.4,18.4,0,0,1-10-3.2h.1A8.3,8.3,0,0,0,104,204a8,8,0,0,0-8,8,7.6,7.6,0,0,0,2.9,6.1h0A33.4,33.4,0,0,0,119,225c15.6,0,25-7.9,25-21S130,186,121.7,183.8Z"/></svg>