<svg xmlns="http://www.w3.org/2000/svg" viewBox="0 0 256 256"><path d="M107.3,157,152,224H24l32.6-50.8a4.1,4.1,0,0,1,6.8,0l9.7,15.1a4,4,0,0,0,6.7.1L100.7,157A3.9,3.9,0,0,1,107.3,157ZM152,32V88h56Z" opacity="0.2"/><path d="M114,152.6a12,12,0,0,0-20,0L76.5,178.9l-6.4-10a12,12,0,0,0-20.2,0L17.3,219.7a7.9,7.9,0,0,0-.3,8.1,8,8,0,0,0,7,4.2H152a8,8,0,0,0,7.1-4.2,8.3,8.3,0,0,0-.4-8.2ZM38.7,216,60,182.8l6.3,9.8a12.1,12.1,0,0,0,10,5.6,12,12,0,0,0,10.1-5.4L104,166.4,137.1,216ZM216,88a7.8,7.8,0,0,0-2.4-5.7l-55.9-56A8.1,8.1,0,0,0,152,24H56A16,16,0,0,0,40,40v96a8,8,0,0,0,16,0V40h88V88a8,8,0,0,0,8,8h48V216h-8a8,8,0,0,0,0,16h8a16,16,0,0,0,16-16V88ZM160,51.3,188.7,80H160Z"/></svg>