<svg id="Flat" xmlns="http://www.w3.org/2000/svg" viewBox="0 0 256 256">
  <g opacity="0.2">
    <polygon points="152 32 152 88 208.008 88 152 32"/>
  </g>
  <path d="M216.00781,88a7.97016,7.97016,0,0,0-2.4292-5.73535L157.65723,26.34326c-.01465-.0144-.03077-.02661-.04541-.041-.1709-.16846-.34815-.33094-.53418-.48365-.05274-.04345-.10987-.08056-.16358-.12256-.15283-.11889-.30566-.2373-.46631-.34521-.04638-.031-.0957-.0564-.14257-.08643-.17334-.11108-.34815-.21984-.53077-.3175-.03369-.01819-.06933-.03223-.10351-.04993-.19727-.10229-.39746-.19983-.60449-.28564-.02344-.00977-.04834-.01685-.07178-.02637-.21729-.08777-.4375-.16894-.66358-.23755-.02685-.00842-.05517-.0133-.08251-.02124-.2212-.0647-.44483-.12366-.67383-.16943-.06641-.01331-.13428-.019-.20117-.03064-.18995-.033-.37989-.06653-.57422-.08582Q152.40235,24.00055,152,24H55.99219a16.01833,16.01833,0,0,0-16,16V216a16.01833,16.01833,0,0,0,16,16H200a16.01833,16.01833,0,0,0,16-16V88.15942C216.001,88.106,216.00781,88.05383,216.00781,88ZM160,51.3136,188.686,80H160ZM200,216H55.99219V40H144V88a8.00008,8.00008,0,0,0,8,8h48.00049l.00976,119.99951Z"/>
</svg>
