<svg xmlns="http://www.w3.org/2000/svg" viewBox="0 0 256 256"><path d="M208,88H152V32Z" opacity="0.2"/><path d="M64,160H48a8,8,0,0,0-8,8v48a8,8,0,0,0,16,0v-8h8a24,24,0,0,0,0-48Zm0,32H56V176h8a8,8,0,0,1,0,16Zm64-32H112a8,8,0,0,0-8,8v48a8,8,0,0,0,16,0v-8h8a24,24,0,0,0,0-48Zm0,32h-8V176h8a8,8,0,0,1,0,16Zm88-24a8,8,0,0,1-8,8H198v40a8,8,0,0,1-16,0V176H172a8,8,0,0,1,0-16h36A8,8,0,0,1,216,168Zm0-80a7.8,7.8,0,0,0-2.4-5.7l-55.9-56A8.1,8.1,0,0,0,152,24H56A16,16,0,0,0,40,40v88a8,8,0,0,0,16,0V40h88V88a8,8,0,0,0,8,8h48v32a8,8,0,0,0,16,0V88ZM160,51.3,188.7,80H160Z"/></svg>