<svg id="Flat" xmlns="http://www.w3.org/2000/svg" viewBox="0 0 256 256">
  <g opacity="0.2">
    <polygon points="152 32 152 88 208.008 88 152 32"/>
  </g>
  <g>
    <path d="M216.00781,88a7.97224,7.97224,0,0,0-2.43164-5.73779L157.65723,26.34375q-.27686-.27694-.58008-.5257c-.04932-.04046-.10254-.075-.15283-.11419-.15577-.12195-.3125-.2428-.477-.35315-.04493-.03021-.09327-.05518-.13868-.08441-.1748-.11182-.35058-.22113-.53418-.3194-.03369-.01813-.06933-.03223-.10351-.04987-.19727-.10235-.39746-.19989-.60449-.28576-.02344-.00977-.04786-.01673-.07178-.02625-.21729-.08783-.4375-.16888-.66358-.23767-.02636-.008-.05371-.01282-.08007-.02057-.22217-.06506-.44678-.12408-.67627-.17-.06543-.01312-.13282-.01874-.19873-.03027-.19092-.03321-.38184-.06678-.57715-.08619A7.98793,7.98793,0,0,0,152,24H55.99219a16.01833,16.01833,0,0,0-16,16V216a16.01833,16.01833,0,0,0,16,16H200a16.01833,16.01833,0,0,0,16-16V88.15948C216.001,88.1059,216.00781,88.05383,216.00781,88ZM160,51.31372,188.68652,80H160ZM200,216H55.99219V40H144V88a8.00008,8.00008,0,0,0,8,8h48.00049l.00976,119.99951Z"/>
    <path d="M157.62744,122.34326a8,8,0,0,0-11.31348,0L127.9707,140.68652l-18.34326-18.34326A7.99984,7.99984,0,1,0,98.314,133.65674L116.65723,152,98.314,170.34326a7.99984,7.99984,0,1,0,11.31348,11.31348l18.34326-18.34326L146.314,181.65674a7.99984,7.99984,0,1,0,11.31348-11.31348L139.28418,152l18.34326-18.34326A7.99915,7.99915,0,0,0,157.62744,122.34326Z"/>
  </g>
</svg>
