<svg id="Flat" xmlns="http://www.w3.org/2000/svg" viewBox="0 0 256 256">
  <path d="M208.0083,96H152V40Z" opacity="0.2"/>
  <path d="M216.00781,96a7.97211,7.97211,0,0,0-2.42724-5.73346L157.65674,34.34277c-.03516-.035-.07373-.06488-.10938-.09918-.15185-.14618-.30566-.29022-.46875-.42419-.0625-.05152-.13037-.09583-.19433-.14533-.14258-.11023-.28467-.22119-.43457-.32178-.05664-.038-.1167-.06958-.17432-.106-.16357-.10376-.32764-.20655-.499-.29846-.041-.0221-.08448-.03949-.12647-.06086-.19043-.09808-.3833-.19256-.58252-.27539-.02783-.01153-.05664-.01977-.085-.031-.21289-.08576-.4292-.16559-.65088-.2331-.02978-.00909-.06054-.01452-.09033-.02325-.21875-.06384-.43994-.12225-.666-.16742-.07032-.0141-.14209-.0202-.21241-.03241-.18652-.032-.373-.06518-.564-.08411A7.98793,7.98793,0,0,0,152,32H55.99219a16.01833,16.01833,0,0,0-16,16v88a8,8,0,0,0,16,0V48H144V96a8.00039,8.00039,0,0,0,8,8h48v32a8,8,0,0,0,16,0V96.15948C216.001,96.1059,216.00781,96.05383,216.00781,96ZM160,59.31366,188.68652,88H160ZM64,160H48a8.00039,8.00039,0,0,0-8,8v48a8,8,0,0,0,16,0v-8h8a24,24,0,0,0,0-48Zm0,32H56V176h8a8,8,0,0,1,0,16Zm60-32H112a8.00039,8.00039,0,0,0-8,8v48a8.00039,8.00039,0,0,0,8,8h12a32,32,0,0,0,0-64Zm0,48h-4V176h4a16,16,0,0,1,0,32Zm92-40a8.00039,8.00039,0,0,1-8,8H188v12h16a8,8,0,0,1,0,16H188v12a8,8,0,0,1-16,0V168a8.00039,8.00039,0,0,1,8-8h28A8.00039,8.00039,0,0,1,216,168Z"/>
</svg>
