<svg id="Flat" xmlns="http://www.w3.org/2000/svg" viewBox="0 0 256 256">
  <path d="M208,88H152V32Z" opacity="0.2"/>
  <path d="M216,88a8,8,0,0,0-2.43-5.74L157.66,26.34c-.19-.18-.38-.36-.58-.52l-.16-.12-.47-.35-.14-.08a5.89,5.89,0,0,0-.54-.32.31.31,0,0,0-.1-.05c-.2-.11-.4-.2-.6-.29l-.08,0a6.42,6.42,0,0,0-.66-.24l-.08,0a5.2,5.2,0,0,0-.68-.17,1.25,1.25,0,0,0-.19,0,5.81,5.81,0,0,0-.58-.09,7.14,7.14,0,0,0-.8,0H56A16,16,0,0,0,40,40V216a16,16,0,0,0,16,16H200a16,16,0,0,0,16-16V88.16S216,88.05,216,88ZM160,51.31,188.69,80H160ZM200,216H56V40h88V88a8,8,0,0,0,8,8h48V216Zm-45.53-48.84a36,36,0,1,0-11.31,11.32l11,11a8,8,0,1,0,11.31-11.32Zm-44.62-5h0A20,20,0,1,1,124,168,20,20,0,0,1,109.85,162.14Z"/>
</svg>
