<svg id="Flat" xmlns="http://www.w3.org/2000/svg" viewBox="0 0 256 256">
  <path d="M208.0083,88H152V32Z" opacity="0.2"/>
  <path d="M80,224a8.00039,8.00039,0,0,1-8,8H55.99219a16.01833,16.01833,0,0,1-16-16V184a8,8,0,0,1,16,0v32H72A8.00039,8.00039,0,0,1,80,224ZM80,24H55.99219a16.01833,16.01833,0,0,0-16,16V64a8,8,0,0,0,16,0V40H80a8,8,0,0,0,0-16ZM216,88.15942V136a8,8,0,0,1-16,0V96H152a8.00039,8.00039,0,0,1-8-8V40H120a8,8,0,0,1,0-16h32a7.98793,7.98793,0,0,1,.79883.04034c.19092.01893.37744.05207.564.08411.07032.01221.14209.01831.21241.03241.22607.04517.44726.10358.666.16742.02979.00873.06055.01416.09033.02325.22119.06726.436.14679.64844.23218.02881.0116.05908.02014.0874.03205.19824.08239.39014.17633.57959.2738.043.02191.08741.03979.12989.0625.16992.09112.33252.19311.49462.2959.05909.03729.12061.06976.17872.10858.14453.09723.28173.20459.41992.31079.06933.05322.14209.1012.20947.15686.14209.11664.2749.24335.4082.36932.05518.05237.11524.09919.16944.15326L213.583,82.269A7.9698,7.9698,0,0,1,216.00781,88C216.00781,88.05383,216.001,88.106,216,88.15942ZM160,80h28.68652L160,51.31372Zm48,88a8.00039,8.00039,0,0,0-8,8v40h-8a8,8,0,0,0,0,16h8a16.01833,16.01833,0,0,0,16-16V176A8.00039,8.00039,0,0,0,208,168ZM48,152a8.00039,8.00039,0,0,0,8-8V104a8,8,0,0,0-16,0v40A8.00039,8.00039,0,0,0,48,152Zm104,64H112a8,8,0,0,0,0,16h40a8,8,0,0,0,0-16Z"/>
</svg>
