<svg xmlns="http://www.w3.org/2000/svg" viewBox="0 0 256 256"><path d="M208,88H152V32Z" opacity="0.2"/><path d="M216,88a7.7,7.7,0,0,0-2.4-5.7l-55.9-56-.6-.5h-.2l-.5-.3h-.1l-.5-.4h-.1l-.6-.3H155l-.7-.3H56A16,16,0,0,0,40,40V216a16,16,0,0,0,16,16H200a16,16,0,0,0,16-16V88ZM160,51.3,188.7,80H160ZM200,216H56V40h88V88a8,8,0,0,0,8,8h48V216Zm-38.3-73.7a8.1,8.1,0,0,1,0,11.4,8.2,8.2,0,0,1-11.4,0L136,139.3V184a8,8,0,0,1-16,0V139.3l-14.3,14.4a8.1,8.1,0,0,1-11.4-11.4l28-28,.6-.5.3-.2.4-.3.3-.2.3-.2h.4l.3-.2h.4l.4-.2h4.6l.4.2h.4l.3.2h.4l.3.2.3.2.4.3.3.2.6.5Z"/></svg>