<svg xmlns="http://www.w3.org/2000/svg" viewBox="0 0 256 256"><path d="M208,72V184a8,8,0,0,1-8,8H176V104L136,64H80V40a8,8,0,0,1,8-8h80Z" opacity="0.2"/><path d="M213.7,66.3l-40-40A8.1,8.1,0,0,0,168,24H88A16,16,0,0,0,72,40V56H56A16,16,0,0,0,40,72V216a16,16,0,0,0,16,16H168a16,16,0,0,0,16-16V200h16a16,16,0,0,0,16-16V72A8.1,8.1,0,0,0,213.7,66.3ZM168,216H56V72h76.7L168,107.3V216Zm32-32H184V104a8.1,8.1,0,0,0-2.3-5.7l-40-40A8.1,8.1,0,0,0,136,56H88V40h76.7L200,75.3Zm-56-32a8,8,0,0,1-8,8H88a8,8,0,0,1,0-16h48A8,8,0,0,1,144,152Zm0,32a8,8,0,0,1-8,8H88a8,8,0,0,1,0-16h48A8,8,0,0,1,144,184Z"/></svg>