<svg xmlns="http://www.w3.org/2000/svg" viewBox="0 0 256 256"><path d="M208,88H152V32Z" opacity="0.2"/><path d="M214.4,172.8,200,192l14.4,19.2a8,8,0,0,1-1.6,11.2A7.7,7.7,0,0,1,208,224a8,8,0,0,1-6.4-3.2L190,205.3l-11.6,15.5A8,8,0,0,1,172,224a7.7,7.7,0,0,1-4.8-1.6,8,8,0,0,1-1.6-11.2L180,192l-14.4-19.2a8,8,0,0,1,12.8-9.6L190,178.7l11.6-15.5a8,8,0,1,1,12.8,9.6ZM84,160H48a8,8,0,0,0,0,16H58v40a8,8,0,0,0,16,0V176H84a8,8,0,0,0,0-16ZM216,88.2V128a8,8,0,0,1-16,0V96H152a8,8,0,0,1-8-8V40H56v88a8,8,0,0,1-16,0V40A16,16,0,0,1,56,24h96a8.1,8.1,0,0,1,5.7,2.3l55.9,56A7.8,7.8,0,0,1,216,88ZM160,80h28.7L160,51.3ZM129.7,183.8c-3.1-.8-8.6-2.3-9.7-3.6V180c0-3.3,2.4-5,7-5a18.4,18.4,0,0,1,10,3.2h-.1A8.3,8.3,0,0,0,142,180a8,8,0,0,0,8-8,7.6,7.6,0,0,0-2.9-6.1h0A33.4,33.4,0,0,0,127,159c-13.5,0-23,8.6-23,21s13,17,21.6,19.3c3.4.9,7,1.8,9.2,3.1s1.2,1,1.2,1.6,0,5-9,5a18.4,18.4,0,0,1-10-3.2h.1A8.3,8.3,0,0,0,112,204a8,8,0,0,0-8,8,7.6,7.6,0,0,0,2.9,6.1h0A33.4,33.4,0,0,0,127,225c15.6,0,25-7.9,25-21S138,186,129.7,183.8Z"/></svg>