<svg xmlns="http://www.w3.org/2000/svg" viewBox="0 0 256 256"><path d="M208,88H152V32Z" opacity="0.2"/><path d="M216,88a7.7,7.7,0,0,0-2.4-5.7l-55.9-56A8.1,8.1,0,0,0,152,24H56A16,16,0,0,0,40,40V216a16,16,0,0,0,16,16H200a16,16,0,0,0,16-16V88ZM160,51.3,188.7,80H160ZM200,216H56V40h88V88a8,8,0,0,0,8,8h48V216Zm-22.3-69.7a8.1,8.1,0,0,1,0,11.4l-24,24A8.5,8.5,0,0,1,148,184a8.3,8.3,0,0,1-5.7-2.3,8.1,8.1,0,0,1,0-11.4L160.7,152l-18.4-18.3a8.1,8.1,0,0,1,11.4-11.4Zm-64-12.6L95.3,152l18.4,18.3a8.1,8.1,0,0,1,0,11.4A8.5,8.5,0,0,1,108,184a8.3,8.3,0,0,1-5.7-2.3l-24-24a8.1,8.1,0,0,1,0-11.4l24-24a8.1,8.1,0,0,1,11.4,11.4Z"/></svg>