<svg xmlns="http://www.w3.org/2000/svg" viewBox="0 0 256 256"><g opacity="0.2"><path d="M32,176H224v24a8,8,0,0,1-8,8H40a8,8,0,0,1-8-8Z"/></g><g opacity="0.2"><path d="M224,80H32V56a8,8,0,0,1,8-8H216a8,8,0,0,1,8,8Z"/></g><path d="M216,40H40A16,16,0,0,0,24,56V200a16,16,0,0,0,16,16H216a16,16,0,0,0,16-16V56A16,16,0,0,0,216,40ZM40,88h80v80H40Zm96-16V56h32V72Zm-16,0H88V56h32Zm0,112v16H88V184Zm16,0h32v16H136Zm0-16V88h80v80Zm80-96H184V56h32ZM72,56V72H40V56ZM40,184H72v16H40Zm176,16H184V184h32v16Z"/></svg>