<svg id="Flat" xmlns="http://www.w3.org/2000/svg" viewBox="0 0 256 256">
  <path d="M224,56V200a8.00009,8.00009,0,0,1-8,8H40a8.00009,8.00009,0,0,1-8-8V56a8.00009,8.00009,0,0,1,8-8H216A8.00009,8.00009,0,0,1,224,56Z" opacity="0.2"/>
  <path d="M216,40H40A16.01833,16.01833,0,0,0,24,56V200a16.01833,16.01833,0,0,0,16,16H216a16.01833,16.01833,0,0,0,16-16V56A16.01833,16.01833,0,0,0,216,40Zm0,160H40V184H52a8,8,0,0,0,0-16H40V88H52a8,8,0,0,0,0-16H40V56H216l.001,16H204a8,8,0,0,0,0,16h12.0022l.00537,80H204a8,8,0,0,0,0,16h12.00879l.001,16ZM116,80a8.00039,8.00039,0,0,1-8,8H92a8,8,0,0,1,0-16h16A8.00039,8.00039,0,0,1,116,80Zm0,96a8.00039,8.00039,0,0,1-8,8H92a8,8,0,0,1,0-16h16A8.00039,8.00039,0,0,1,116,176Zm56-96a8.00039,8.00039,0,0,1-8,8H148a8,8,0,0,1,0-16h16A8.00039,8.00039,0,0,1,172,80Zm0,96a8.00039,8.00039,0,0,1-8,8H148a8,8,0,0,1,0-16h16A8.00039,8.00039,0,0,1,172,176Z"/>
</svg>
