<svg xmlns="http://www.w3.org/2000/svg" viewBox="0 0 256 256"><path d="M210,66.4l-30.9,8.3-49-28.3,61.8-16.5a7.9,7.9,0,0,1,9.8,5.6ZM37.4,71.3a8,8,0,0,0-5.7,9.8L40,112l69.5-18.6L60.6,65.1Z" opacity="0.2"/><path d="M216,104H100.8L212.1,74.2a7.9,7.9,0,0,0,4.8-3.8,7.5,7.5,0,0,0,.8-6l-8.3-30.9a15.8,15.8,0,0,0-19.5-11.3L35.3,63.6A15.9,15.9,0,0,0,24,83.2l8,29.9V200a16,16,0,0,0,16,16H208a16,16,0,0,0,16-16V112A8,8,0,0,0,216,104ZM129,55l29.4,17L110.7,84.8l-29.4-17Zm65-17.4,6.2,23.2-20,5.3L150.8,49.2ZM59.4,73.7,88.8,90.6,45.7,102.2,39.4,79ZM208,200H48V120H208v80Z"/></svg>