<svg id="Flat" xmlns="http://www.w3.org/2000/svg" viewBox="0 0 256 256">
  <path d="M183.97656,128.0094a246.6394,246.6394,0,0,1-18.53418,94.23926,8.00032,8.00032,0,0,1-14.79883-6.084,230.70455,230.70455,0,0,0,17.333-88.15527,8,8,0,1,1,16,0Zm-56-40a40.06446,40.06446,0,0,1,29.81446,13.333,8.00031,8.00031,0,1,0,11.92187-10.67188A56.00093,56.00093,0,0,0,71.97656,128.0094,136.08784,136.08784,0,0,1,55,193.861a7.99993,7.99993,0,1,0,13.99219,7.75977A152.12935,152.12935,0,0,0,87.97656,128.0094,40.04583,40.04583,0,0,1,127.97656,88.0094Zm0-64a103.7636,103.7636,0,0,0-34.667,5.91992,8.00025,8.00025,0,0,0,5.332,15.08594,88.06652,88.06652,0,0,1,117.335,82.99414,281.58357,281.58357,0,0,1-6.93847,62.22851,8.00013,8.00013,0,1,0,15.60351,3.541,297.64323,297.64323,0,0,0,7.335-65.76953A104.1179,104.1179,0,0,0,127.97656,24.0094Zm-58.665,38.40527A7.99966,7.99966,0,1,0,58.6416,50.4928a104.15766,104.15766,0,0,0-34.665,77.5166A87.28655,87.28655,0,0,1,16.001,164.67248a7.9997,7.9997,0,1,0,14.541,6.67383,103.15936,103.15936,0,0,0,9.43457-43.33691A88.14293,88.14293,0,0,1,69.31152,62.41467Zm44.58106,138.32422a8.00188,8.00188,0,0,0-10.60742,3.93359c-1.92676,4.19727-4.044,8.38086-6.291,12.43555a7.99945,7.99945,0,1,0,13.99219,7.75781c2.44336-4.40625,4.74512-8.95507,6.83984-13.51953A7.999,7.999,0,0,0,113.89258,200.73889Zm14.07226-80.73047a8.00039,8.00039,0,0,0-8,8,184.6862,184.6862,0,0,1-5.79687,46.00586,8.00008,8.00008,0,1,0,15.49512,3.98828,200.70138,200.70138,0,0,0,6.30175-49.99414A8.00039,8.00039,0,0,0,127.96484,120.00842Z"/>
</svg>
