<svg id="Flat" xmlns="http://www.w3.org/2000/svg" viewBox="0 0 256 256">
  <g opacity="0.2">
    <path d="M208,40a23.99994,23.99994,0,0,0-24,24H72a24,24,0,0,0-48,0v80a64,64,0,0,0,64,64h80a64,64,0,0,0,64-64V64A23.99994,23.99994,0,0,0,208,40Zm-8,104a32,32,0,0,1-32,32H88a32.00034,32.00034,0,0,1-32-32v-8a32,32,0,0,1,32-32h80a31.99971,31.99971,0,0,1,32,32Z"/>
  </g>
  <path d="M168,96H88a40.04552,40.04552,0,0,0-40,40v8a40.04551,40.04551,0,0,0,40,40h80a40.04551,40.04551,0,0,0,40-40v-8A40.04552,40.04552,0,0,0,168,96Zm24,48a24.0275,24.0275,0,0,1-24,24H88a24.0275,24.0275,0,0,1-24-24v-8a24.0275,24.0275,0,0,1,24-24h80a24.0275,24.0275,0,0,1,24,24Zm-16-4a12,12,0,1,1-12-12A12.01343,12.01343,0,0,1,176,140Zm-72,0a12,12,0,1,1-12-12A12.01343,12.01343,0,0,1,104,140ZM208,32a32.05744,32.05744,0,0,0-30.98779,24H78.98779A32.00221,32.00221,0,0,0,16,64v80a72.08124,72.08124,0,0,0,72,72h80a72.08124,72.08124,0,0,0,72-72V64A32.03667,32.03667,0,0,0,208,32Zm16,112a56.06322,56.06322,0,0,1-56,56H88a56.06322,56.06322,0,0,1-56-56V64a16,16,0,0,1,32,0,8.00039,8.00039,0,0,0,8,8H184a8.00039,8.00039,0,0,0,8-8,16,16,0,0,1,32,0Z"/>
</svg>
