<svg xmlns="http://www.w3.org/2000/svg" viewBox="0 0 256 256"><path d="M212,140a84,84,0,0,1-168,0c0-24.8,12.6-51.4,28-74.6h0L112,92l34.8-73.1h0C176,48,212,88,212,140Z" opacity="0.2"/><path d="M197.1,66.6c-13-20.8-29.9-38.7-44.6-53.4a8,8,0,0,0-7-2.2,7.9,7.9,0,0,0-5.9,4.4L108.7,80.2,76.5,58.7a8.1,8.1,0,0,0-6-1.2,8,8,0,0,0-5.1,3.4C45.9,90.3,36,116.9,36,140a92,92,0,0,0,184,0C220,115.1,212.5,91.1,197.1,66.6ZM128,216a76.1,76.1,0,0,1-76-76c0-18.2,7.5-39.5,22.4-63.5l33.2,22.2a8.2,8.2,0,0,0,6.5,1,7.8,7.8,0,0,0,5.1-4.3l29.9-62.8C178.6,63.2,204,97.4,204,140A76.1,76.1,0,0,1,128,216Z"/></svg>