<svg id="Flat" xmlns="http://www.w3.org/2000/svg" viewBox="0 0 256 256">
  <path d="M104,112,69.58177,85.48233C57.3119,104.73352,48,127.43557,48,152a80,80,0,0,0,160,0c0-72-72-128-72-128Z" opacity="0.2"/>
  <path d="M128,240a88.09957,88.09957,0,0,1-88-88c0-23.2168,7.68311-47.043,22.83545-70.81738a7.99928,7.99928,0,0,1,11.62842-2.03711l25.75537,19.84277,28.26221-77.72266a7.99985,7.99985,0,0,1,12.43017-3.58007C143.97754,20.06934,216,76.9502,216,152A88.09957,88.09957,0,0,1,128,240ZM71.811,97.29883C61.31445,115.89746,56,134.26465,56,152a72,72,0,0,0,144,0c0-52.71582-42.04736-97.32715-60.458-114.331l-28.02344,77.06543a7.99934,7.99934,0,0,1-12.40087,3.60253Z"/>
</svg>
