<svg id="Flat" xmlns="http://www.w3.org/2000/svg" viewBox="0 0 256 256">
  <path d="M102.80029,193.79956h0L80,248,64,192,8,175.96313l54.177-22.78466h-.00024c.93652-39.04273,11.13574-65.6045,25.87817-83.49439Q88.00036,70.83545,88,72a47.99987,47.99987,0,0,0,48,48,47.99987,47.99987,0,0,0,48,48q1.158,0,2.30273-.0542C168.41016,182.68164,141.84521,192.87256,102.80029,193.79956Z" opacity="0.2"/>
  <path d="M168,76a12,12,0,1,1-12-12A12,12,0,0,1,168,76Zm37.708,83.49292c-20.42774,25.95142-53.21875,40.1106-97.51758,42.12524L87.374,251.10205A7.99987,7.99987,0,0,1,80.00293,256c-.16016,0-.32129-.00488-.48242-.01416a8.0008,8.0008,0,0,1-7.21289-5.78809l-14.7793-51.72949L5.79785,183.6543a8.00035,8.00035,0,0,1-.89941-15.06543l49.46094-20.80152c1.60913-35.186,10.88867-63.1018,27.6455-83.33593l.02588-.03125A95.35314,95.35314,0,0,1,96.50293,50.28906c41.11816-32.35791,99.376-22.94629,116.251-19.29A16.03051,16.03051,0,0,1,225.001,43.24487C228.65723,60.12231,238.07031,118.3811,205.708,159.49292Zm-41.18067,13.00366A56.15623,56.15623,0,0,1,128.5,127.49976,56.15581,56.15581,0,0,1,83.4978,91.457c-8.26416,16.55029-12.7312,37.24219-13.323,61.91333a8.00181,8.00181,0,0,1-4.89648,7.18237L32.04785,174.52832l34.1543,9.78076a7.99937,7.99937,0,0,1,5.49023,5.49317l9.752,34.13281,13.98242-33.23779a7.99946,7.99946,0,0,1,7.18457-4.89551C127.28271,185.21582,147.97559,180.75488,164.52734,172.49658ZM209.36426,46.63306c-15.14649-3.27857-67.34278-11.80664-102.96582,16.22924a78.69585,78.69585,0,0,0-10.38086,9.83619A40.03964,40.03964,0,0,0,136,112a8.00024,8.00024,0,0,1,8,8,40.039,40.039,0,0,0,39.29077,39.98193,78.64492,78.64492,0,0,0,9.845-10.38549C221.17383,113.978,212.64551,61.78223,209.36426,46.63306Z"/>
</svg>
