<svg id="Flat" xmlns="http://www.w3.org/2000/svg" viewBox="0 0 256 256">
  <path d="M201.354,151.99585c-20.51953,28.12036-60.78906,48.291-137.3706,39.98755h0C55.69922,115.41309,75.88184,75.15186,104.00854,54.6377l.001.00146a96.00026,96.00026,0,0,0,97.3374,97.35156Z" opacity="0.2"/>
  <path d="M168,76a12,12,0,1,1-12-12A12,12,0,0,1,168,76Zm30.166,91.978c-26.47168,26.41015-68.41309,37.40625-125.05957,32.89013q2.40673,17.75244,6.709,37.42237a8.0002,8.0002,0,1,1-15.63086,3.41894q-4.894-22.377-7.40723-42.52148-20.12549-2.51661-42.48828-7.40967a8,8,0,1,1,3.42188-15.62988q19.64795,4.30077,37.38965,6.70947c-4.501-56.63525,6.502-98.55469,32.91113-125.02148C129.00684,16.752,193.83887,26.90332,212.73242,30.99414a16.05936,16.05936,0,0,1,12.27246,12.273C229.0957,62.16064,239.24805,126.99023,198.166,167.978Zm-13.62281-9.10352A104.128,104.128,0,0,1,97.13159,71.44043C75.261,95.17212,66.61646,133.13721,71.27148,184.69727,122.84277,189.36914,160.80542,180.73315,184.54321,158.87451Zm24.824-112.22168c-15.00244-3.26269-62.22437-10.852-97.31543,12.15259a87.969,87.969,0,0,0,85.14136,85.1394C220.20068,108.85791,212.61182,61.63721,209.36719,46.65283Z"/>
</svg>
