<svg id="Flat" xmlns="http://www.w3.org/2000/svg" viewBox="0 0 256 256">
  <g opacity="0.2">
    <path d="M39.99951,168.00452c64-48,112,48,176,0v-120c-64,48-112-48-176,0Z"/>
  </g>
  <path d="M219.57812,40.84924a7.99641,7.99641,0,0,0-8.37792.75489C182.90039,62.82971,158.918,52.55139,131.15137,40.651c-28.24317-12.10449-60.25391-25.81934-95.95117.95313-.04737.0354-.08838.07568-.13428.11181-.11084.08692-.21778.17676-.32373.26929-.09912.08667-.19727.17407-.291.26465-.0874.08423-.17138.17138-.25488.25952-.1001.10547-.19873.21142-.292.32129-.0708.08349-.1377.16968-.20508.25586-.09277.11865-.18457.23779-.26953.36084-.06348.09082-.12158.18457-.18115.27807-.07715.12232-.1543.24439-.22461.37036-.06006.10694-.11475.217-.16993.32715-.0581.1167-.11718.23291-.16943.35181-.05566.126-.105.25513-.1543.38428-.0415.10913-.08349.218-.12011.32861-.04541.137-.084.27661-.12207.417-.03028.11084-.06055.22119-.08594.33325-.03027.13526-.05518.27271-.07861.41065-.02149.12524-.042.25024-.05762.37646-.01514.12427-.02588.24927-.03565.37525-.01074.14575-.01855.2915-.022.43774-.001.05615-.0083.11035-.0083.16651v168a8,8,0,0,0,16,0V172.13879c26.92334-18.16259,50.13428-8.22973,76.84863,3.21924,16.26367,6.96973,33.77539,14.47559,52.52246,14.47461,13.8086,0,28.28711-4.07226,43.42871-15.42773A8.00092,8.00092,0,0,0,224,168.00452v-120A8.00022,8.00022,0,0,0,219.57812,40.84924ZM208,163.8844c-26.92383,18.16406-50.13379,8.21582-76.84863-3.2334C106.32666,150.0116,78.59082,138.13293,48,153.59216V52.13879C74.92334,33.9762,98.13428,43.90906,124.84863,55.358,149.67188,65.99573,177.4082,77.87952,208,62.42151Z"/>
</svg>
