<svg xmlns="http://www.w3.org/2000/svg" viewBox="0 0 256 256"><path d="M100,37.4V95.5c-19-5.4-38.6-5.4-60,10.6V48C61.4,32,81,32,100,37.4Zm56,21.2v58.2c19,5.3,38.6,5.4,60-10.7V48C194.6,64,175,64,156,58.6Zm-56,98.8c18.9,5.3,37.1,15.9,56,21.2V116.8c-18.9-5.4-37.1-15.9-56-21.3Z" opacity="0.2"/><path d="M219.6,40.8a8.2,8.2,0,0,0-8.4.8c-28.3,21.2-52.3,11-80-.9s-60.3-25.9-96,.9A8,8,0,0,0,32,48h0V216a8,8,0,0,0,16,0V172.1c26.9-18.1,50.1-8.2,76.8,3.3,16.3,6.9,33.8,14.4,52.6,14.4,13.8,0,28.3-4,43.4-15.4A8.1,8.1,0,0,0,224,168V48A8.2,8.2,0,0,0,219.6,40.8ZM208,62.4V102c-15.4,10.4-29.6,11.6-44,8.6v-42C177.9,71.1,192.6,70.2,208,62.4Zm-60,2.1v41.2q-8.2-3.2-16.8-6.9c-7.5-3.2-15.2-6.5-23.2-9.2V48.4c5.5,2.1,11.1,4.5,16.8,7C132.3,58.6,140,61.9,148,64.5ZM92,43.6V85.5C78.1,83.1,63.4,84,48,91.7V52.1C63.4,41.7,77.6,40.5,92,43.6Zm-44,110V110.3c15.4-10.4,29.6-11.6,44-8.6v45.7C78.1,145,63.4,145.8,48,153.6Zm60-2.1V106.6c5.5,2,11.1,4.4,16.8,6.9,7.5,3.2,15.2,6.5,23.2,9.1v45c-5.5-2.1-11.1-4.5-16.8-6.9C123.7,157.5,116,154.1,108,151.5Zm56,20.9V126.8a84.5,84.5,0,0,0,13.4,1.2,66,66,0,0,0,30.6-7.5v43.4C192.6,174.3,178.4,175.5,164,172.4Z"/></svg>