<svg xmlns="http://www.w3.org/2000/svg" viewBox="0 0 256 256"><g opacity="0.2"><path d="M192,77.3a8.1,8.1,0,0,1-1.6,4.8l-20.8,27.8a8.1,8.1,0,0,0-1.6,4.8V224a8,8,0,0,1-8,8H96a8,8,0,0,1-8-8V114.7a8.1,8.1,0,0,0-1.6-4.8L65.6,82.1A8.1,8.1,0,0,1,64,77.3V64H192Z"/></g><path d="M184,16H72A16,16,0,0,0,56,32V77.3a15.6,15.6,0,0,0,3.2,9.6L80,114.7V224a16,16,0,0,0,16,16h64a16,16,0,0,0,16-16V114.7l20.8-27.8a15.6,15.6,0,0,0,3.2-9.6V32A16,16,0,0,0,184,16ZM72,32H184V56H72V32Zm91.2,73.1a15.6,15.6,0,0,0-3.2,9.6V224H96V114.7a15.6,15.6,0,0,0-3.2-9.6L72,77.3V72H184v5.3Z"/><path d="M128,112a8,8,0,0,0-8,8v32a8,8,0,0,0,16,0V120A8,8,0,0,0,128,112Z"/></svg>