<svg id="Flat" xmlns="http://www.w3.org/2000/svg" viewBox="0 0 256 256">
  <g opacity="0.2">
    <path d="M192.00244,77.33333a8,8,0,0,1-1.6,4.8l-20.8,27.73334a8,8,0,0,0-1.6,4.8V224a8,8,0,0,1-8,8h-64a8,8,0,0,1-8-8V114.66667a8,8,0,0,0-1.6-4.8l-20.8-27.73334a8,8,0,0,1-1.6-4.8V64h128Z"/>
  </g>
  <g>
    <path d="M184.00244,16h-112a16.01833,16.01833,0,0,0-16,16V77.333a16.10105,16.10105,0,0,0,3.2002,9.60058l20.7998,27.7334V224a16.01833,16.01833,0,0,0,16,16h64a16.01833,16.01833,0,0,0,16-16l-.001-109.334,20.80274-27.7334a16.10719,16.10719,0,0,0,3.19824-9.59961V32A16.01833,16.01833,0,0,0,184.00244,16Zm-112,16h112l.00049,24H71.99805l-.00537-24Zm91.19824,73.06738a16.10719,16.10719,0,0,0-3.19824,9.59961V224h-64V114.667a16.10111,16.10111,0,0,0-3.20019-9.60058L72.00244,77.333,72.00146,72h112.002v5.334Z"/>
    <path d="M128.00244,112a8.00039,8.00039,0,0,0-8,8v32a8,8,0,0,0,16,0V120A8.00039,8.00039,0,0,0,128.00244,112Z"/>
  </g>
</svg>
