<svg id="Flat" xmlns="http://www.w3.org/2000/svg" viewBox="0 0 256 256">
  <path d="M195.85205,169.08569l-.00049.00037v-.00012ZM216.73047,203.884l-20.87891-34.798C184.46924,178.80591,163.7041,185.85205,128,168c-33.2627-16.63123-53.55957-11.65332-65.3833-3.0354l.00342.002L39.26953,203.884A8,8,0,0,0,46.12939,216H209.87061A8,8,0,0,0,216.73047,203.884Z" opacity="0.2"/>
  <path d="M223.59033,199.76855,160,93.78418V40h8a8,8,0,0,0,0-16H88a8,8,0,0,0,0,16h8V93.78418l-40.17285,66.955c-.044.07067-.08643.1416-.12793.2135L32.40967,199.76807A15.99968,15.99968,0,0,0,46.12988,224H209.87012a15.99944,15.99944,0,0,0,13.72021-24.23145Zm-113.87109-97.752A15.99829,15.99829,0,0,0,112,93.78418V40h32V93.78418a15.99947,15.99947,0,0,0,2.28027,8.23193l38.86328,64.77222c-13.10742,7.11157-31.4458,5.11572-53.56591-5.9436-14.25293-7.127-32.667-13.52149-50.31055-11.4076ZM46.12939,208.00049l22.46973-37.44971c13.19385-8.66113,32.44727-7.083,55.82324,4.60449,17.25977,8.62989,31.49756,11.8628,43.14551,11.86231a51.52375,51.52375,0,0,0,25.82178-6.48523L209.87012,208Z"/>
</svg>
