<svg id="Flat" xmlns="http://www.w3.org/2000/svg" viewBox="0 0 256 256">
  <g opacity="0.2">
    <path d="M213.65674,85.65686,170.34326,42.34314a8.00052,8.00052,0,0,0-5.657-2.343H48a7.99993,7.99993,0,0,0-8,8v160a8.00009,8.00009,0,0,0,8,8H208a8.00009,8.00009,0,0,0,8-8V91.3136A7.99918,7.99918,0,0,0,213.65674,85.65686Zm-85.65088,98.352a28,28,0,1,1,28-28A28,28,0,0,1,128.00586,184.00891Z"/>
  </g>
  <g>
    <path d="M219.31445,79.99963,176.001,36.68811a15.88944,15.88944,0,0,0-11.31446-4.68848H48a16.01833,16.01833,0,0,0-16,16v160a16.01833,16.01833,0,0,0,16,16H208a16.01833,16.01833,0,0,0,16-16V91.31409A15.898,15.898,0,0,0,219.31445,79.99963ZM208,91.31409V207.99963H48v-160l40,.00025V96.0094a8.00039,8.00039,0,0,0,8,8h64a8,8,0,0,0,0-16H104V48.00012l60.68555.00049L208,91.31409v-.001l8,.001Z"/>
    <path d="M128.00586,120.0094a36,36,0,1,0,36,36A36.04061,36.04061,0,0,0,128.00586,120.0094Zm0,56a20,20,0,1,1,20-20A20.02229,20.02229,0,0,1,128.00586,176.0094Z"/>
  </g>
</svg>
