<svg id="Flat" xmlns="http://www.w3.org/2000/svg" viewBox="0 0 256 256">
  <path d="M208,40.00012H91.31372a8.00052,8.00052,0,0,0-5.657,2.343L42.34326,85.65686A7.99918,7.99918,0,0,0,40,91.3136V208.00012a8.00009,8.00009,0,0,0,8,8H208a8.00009,8.00009,0,0,0,8-8v-160A7.99993,7.99993,0,0,0,208,40.00012ZM128.00586,176.00891a28,28,0,1,1,28-28A28,28,0,0,1,128.00586,176.00891Z" opacity="0.2"/>
  <path d="M208,31.99963H91.31348A15.89422,15.89422,0,0,0,80,36.68616L36.6875,79.99866A15.89443,15.89443,0,0,0,32,91.31409V207.99963a16.01833,16.01833,0,0,0,16,16H208a16.01833,16.01833,0,0,0,16-16v-160A16.01833,16.01833,0,0,0,208,31.99963Zm0,176H48V91.31409L91.31348,47.99963H152V72.0094H96a8,8,0,0,0,0,16h64a8.00008,8.00008,0,0,0,8-8V47.99963h40ZM128.00586,112.0094a36,36,0,1,0,36,36A36.04061,36.04061,0,0,0,128.00586,112.0094Zm0,56a20,20,0,1,1,20-20A20.0226,20.0226,0,0,1,128.00586,168.0094Z"/>
</svg>
