<svg id="Flat" xmlns="http://www.w3.org/2000/svg" viewBox="0 0 256 256">
  <path d="M115.02734,103.18018C107.70215,87.77637,100,68.5874,100,56a28,28,0,0,1,56,0c0,12.5874-7.70215,31.77637-15.02734,47.18018a28.04927,28.04927,0,0,0-25.94532,0Zm25.9458,0h-.00048l-.001.00244Zm-40.95166,23.645-.00244-.00049v.00049ZM112.9917,104.355v.00049l.00146.002ZM51.646,116.24854c10.90136,6.29394,31.3706,9.21826,48.373,10.57617a28.05055,28.05055,0,0,1,12.97266-22.46924c-9.67725-14.0459-22.44434-30.31055-33.3457-36.604a27.99985,27.99985,0,1,0-28,48.49708ZM103.75146,142a27.87992,27.87992,0,0,1-3.73242-12.8252c-17.00244,1.3584-37.47168,4.28272-48.373,10.57666a27.99985,27.99985,0,0,0,28,48.49708c10.90136-6.29346,23.66845-22.55811,33.3457-36.604A27.872,27.872,0,0,1,103.75146,142Zm11.2754,10.81982h.00048l.001-.00244Zm25.94482-.00244.001.00244h.00048ZM128,156a27.87641,27.87641,0,0,1-12.97266-3.18018C107.70215,168.22363,100,187.4126,100,200a28,28,0,0,0,56,0c0-12.5874-7.70215-31.77637-15.02734-47.18018A27.87641,27.87641,0,0,1,128,156Zm76.354-16.24854c-10.90136-6.29394-31.3706-9.21826-48.373-10.57666a28.05046,28.05046,0,0,1-12.97266,22.46973c9.67725,14.0459,22.44434,30.31055,33.3457,36.604a27.99985,27.99985,0,1,0,28-48.49708ZM155.981,126.8252v-.00049l-.00244.00049Zm-12.97412-22.46778.00146-.002V104.355ZM152.24854,114a27.87382,27.87382,0,0,1,3.73242,12.82471c17.00244-1.35791,37.47168-4.28223,48.373-10.57617a27.99985,27.99985,0,1,0-28-48.49708c-10.90136,6.29346-23.66845,22.55811-33.3457,36.604A27.87638,27.87638,0,0,1,152.24854,114Z" opacity="0.2"/>
  <path d="M208.35352,132.82324A57.99826,57.99826,0,0,0,196.93994,128a58.016,58.016,0,0,0,11.41406-4.82324,36,36,0,1,0-36.00048-62.35352,58.00132,58.00132,0,0,0-9.88331,7.47266A58.01937,58.01937,0,0,0,164,56a36,36,0,0,0-72,0,58.01145,58.01145,0,0,0,1.52979,12.29541A58.01465,58.01465,0,0,0,83.646,60.82227a36.00017,36.00017,0,0,0-35.99952,62.35449A57.99826,57.99826,0,0,0,59.06006,128,58.016,58.016,0,0,0,47.646,132.82324a36,36,0,0,0,36.00048,62.35352,58.00132,58.00132,0,0,0,9.88331-7.47266A58.01937,58.01937,0,0,0,92,200a36,36,0,0,0,72,0,58.01145,58.01145,0,0,0-1.52979-12.29541,58.01465,58.01465,0,0,0,9.88379,7.47314,36.00017,36.00017,0,0,0,35.99952-62.35449ZM108,128a20,20,0,1,1,20,20A20.02229,20.02229,0,0,1,108,128Zm72.35352-53.32031a20.00025,20.00025,0,1,1,20,34.6416c-6.78809,3.91894-20.043,7.01318-37.72608,8.85791a36.0029,36.0029,0,0,0-8.81982-15.2417C164.251,88.5376,173.5625,78.59961,180.35352,74.67969ZM128,36a20.02229,20.02229,0,0,1,20,20c0,7.83789-3.94629,20.86182-11.18848,37.09473a36.00948,36.00948,0,0,0-17.623,0C111.94629,76.86182,108,63.83789,108,56A20.02229,20.02229,0,0,1,128,36ZM48.32568,82a20.02139,20.02139,0,0,1,27.3208-7.32129c6.791,3.9209,16.10254,13.85889,26.5459,28.25879a36.0029,36.0029,0,0,0-8.81982,15.2417c-17.68311-1.84473-30.938-4.939-37.72608-8.85791A20.02344,20.02344,0,0,1,48.32568,82Zm27.3208,99.32031a20.00025,20.00025,0,1,1-20-34.6416c6.78809-3.91894,20.043-7.01318,37.72608-8.85791a36.0029,36.0029,0,0,0,8.81982,15.2417C91.749,167.4624,82.4375,177.40039,75.64648,181.32031ZM128,220a20.02229,20.02229,0,0,1-20-20c0-7.83789,3.94629-20.86182,11.18848-37.09473a36.00948,36.00948,0,0,0,17.623,0C144.05371,179.13818,148,192.16211,148,200A20.02229,20.02229,0,0,1,128,220Zm79.67432-46a20.0259,20.0259,0,0,1-27.3208,7.32129c-6.791-3.9209-16.10254-13.85889-26.5459-28.25879a36.0029,36.0029,0,0,0,8.81982-15.2417c17.68311,1.84473,30.938,4.939,37.72608,8.85791A20.02344,20.02344,0,0,1,207.67432,174Z"/>
</svg>
