<svg xmlns="http://www.w3.org/2000/svg" viewBox="0 0 256 256"><path d="M128,200c-16,0-42.5-.2-72.9-17.8s-40.3-39.5-43.4-50.8a7.9,7.9,0,0,1,5.7-9.8c7.3-1.9,20.1-3.6,36.5.2-6.7-22.2-3.3-39.5-.4-48.2a7.9,7.9,0,0,1,9.3-5.3A77.5,77.5,0,0,1,94.1,83.4h0A106,106,0,0,0,88,120C88,178.2,128,200,128,200Zm110.6-78.4c-7.3-1.9-20.1-3.6-36.5.2,6.7-22.2,3.3-39.5.4-48.2a7.9,7.9,0,0,0-9.3-5.3,77.5,77.5,0,0,0-31.3,15.1h0A106,106,0,0,1,168,120c0,58.2-40,80-40,80,16,0,42.5-.2,72.9-17.8s40.3-39.5,43.4-50.8A7.9,7.9,0,0,0,238.6,121.6Z" opacity="0.2"/><path d="M250.5,121.3a15.9,15.9,0,0,0-9.9-7.5,77.1,77.1,0,0,0-27.9-1.8,86.7,86.7,0,0,0-2.6-40.9,15.9,15.9,0,0,0-18.5-10.7,82.3,82.3,0,0,0-26.2,10.8,94.4,94.4,0,0,0-27.8-34.4,15.9,15.9,0,0,0-19.2,0A94.4,94.4,0,0,0,90.6,71.2,82.3,82.3,0,0,0,64.4,60.4,15.9,15.9,0,0,0,45.9,71.1,86.7,86.7,0,0,0,43.3,112a77.1,77.1,0,0,0-27.9,1.8A15.9,15.9,0,0,0,4,133.6c3.5,12.6,14.3,36.7,47.1,55.6S112.5,208,127.9,208h.2c15.4,0,44.2,0,76.8-18.8s43.6-43,47.1-55.6A16,16,0,0,0,250.5,121.3ZM194.9,76.1c2.8,8.4,5.4,23.5-.3,42.9l-.3,1.1a100.6,100.6,0,0,1-9.5,21.5,120.3,120.3,0,0,1-17.4,23.1c5.1-12,8.6-26.7,8.6-44.7a116.4,116.4,0,0,0-4.7-33.6A66.6,66.6,0,0,1,194.9,76.1ZM128,49.6c9.6,7.2,32,28.4,32,70.4s-22.7,63.6-32,70.4c-9.3-6.8-32-27.9-32-70.4S118.4,56.8,128,49.6ZM61.1,76.1A66.6,66.6,0,0,1,84.7,86.4,116.4,116.4,0,0,0,80,120c0,18,3.5,32.7,8.6,44.7a120.3,120.3,0,0,1-17.4-23.1A99.1,99.1,0,0,1,61.7,120l-.3-.9C55.6,99.6,58.3,84.5,61.1,76.1ZM19.3,129.3c6.2-1.6,15.9-2.8,28.4-.6a117.1,117.1,0,0,0,9.7,20.9,137.9,137.9,0,0,0,33.2,38.6,123.4,123.4,0,0,1-31.5-12.9C31.3,159.2,22.3,139.5,19.3,129.3Zm177.6,46a123.4,123.4,0,0,1-31.5,12.9,137.9,137.9,0,0,0,33.2-38.6,117.1,117.1,0,0,0,9.7-20.9,68.8,68.8,0,0,1,28.3.5C233.7,139.5,224.7,159.2,196.9,175.3Z"/></svg>