<svg xmlns="http://www.w3.org/2000/svg" viewBox="0 0 256 256"><g opacity="0.2"><path d="M224,72H154.7a8.1,8.1,0,0,1-4.8-1.6L122.1,49.6a8.1,8.1,0,0,0-4.8-1.6H72a8,8,0,0,0-8,8V80H85.3a8.1,8.1,0,0,1,4.8,1.6l27.8,20.8a8.1,8.1,0,0,0,4.8,1.6H192a8,8,0,0,1,8,8v64h24.9a7.1,7.1,0,0,0,7.1-7.1V80A8,8,0,0,0,224,72Z"/></g><path d="M224,64H154.7L126.9,43.2a15.6,15.6,0,0,0-9.6-3.2H72A16,16,0,0,0,56,56V72H40A16,16,0,0,0,24,88V200a16,16,0,0,0,16,16H192.9A15.2,15.2,0,0,0,208,200.9V184h16.9A15.2,15.2,0,0,0,240,168.9V80A16,16,0,0,0,224,64ZM192,200H40V88H85.3l27.8,20.8a15.6,15.6,0,0,0,9.6,3.2H192Zm32-32H208V112a16,16,0,0,0-16-16H122.7L94.9,75.2A15.6,15.6,0,0,0,85.3,72H72V56h45.3l27.8,20.8a15.6,15.6,0,0,0,9.6,3.2H224Z"/></svg>