<svg xmlns="http://www.w3.org/2000/svg" viewBox="0 0 256 256"><path d="M212,172a24,24,0,1,1-24-24A23.9,23.9,0,0,1,212,172Z" opacity="0.2"/><path d="M210.4,194.8a32,32,0,1,0-44.8,0A40.2,40.2,0,0,0,149.3,218a7.9,7.9,0,0,0,5.7,9.7l2,.3a8.1,8.1,0,0,0,7.8-6,24,24,0,0,1,46.4,0,8,8,0,0,0,9.8,5.7,7.9,7.9,0,0,0,5.7-9.7A40.2,40.2,0,0,0,210.4,194.8ZM172,172a16,16,0,1,1,16,16A16,16,0,0,1,172,172Zm60-84v32a8,8,0,0,1-16,0V88H130.7a15.6,15.6,0,0,1-9.6-3.2L93.3,64H40V200h80a8,8,0,0,1,0,16H40a16,16,0,0,1-16-16V64A16,16,0,0,1,40,48H93.3a15.6,15.6,0,0,1,9.6,3.2L130.7,72H216A16,16,0,0,1,232,88Z"/></svg>