<svg id="Flat" xmlns="http://www.w3.org/2000/svg" viewBox="0 0 256 256">
  <g opacity="0.2">
    <path d="M224,88V200.88889A7.11111,7.11111,0,0,1,216.88889,208H40a8,8,0,0,1-8-8V64a8,8,0,0,1,8-8H93.33333a8,8,0,0,1,4.8,1.6l27.73334,20.8a8,8,0,0,0,4.8,1.6H216A8,8,0,0,1,224,88Z"/>
  </g>
  <g>
    <path d="M216,72H130.667l-27.7334-20.7998A16.10323,16.10323,0,0,0,93.333,48H40A16.01833,16.01833,0,0,0,24,64V200a16.01833,16.01833,0,0,0,16,16H216.88867A15.12831,15.12831,0,0,0,232,200.88867V88A16.01833,16.01833,0,0,0,216,72Zm0,128H40V64H93.333l27.7334,20.7998A16.10323,16.10323,0,0,0,130.667,88l85.33252-.01025L216,88Z"/>
    <path d="M151.99414,136h-16V120a8,8,0,1,0-16,0v16h-16a8,8,0,0,0,0,16h16v16a8,8,0,1,0,16,0V152h16a8,8,0,1,0,0-16Z"/>
  </g>
</svg>
