<svg xmlns="http://www.w3.org/2000/svg" viewBox="0 0 256 256"><g opacity="0.2"><path d="M224,88V200.9a7.1,7.1,0,0,1-7.1,7.1H40a8,8,0,0,1-8-8V64a8,8,0,0,1,8-8H93.3a7.9,7.9,0,0,1,4.8,1.6l27.8,20.8a8.1,8.1,0,0,0,4.8,1.6H216A8,8,0,0,1,224,88Z"/></g><path d="M216,72H130.7L102.9,51.2A15.6,15.6,0,0,0,93.3,48H40A16,16,0,0,0,24,64V200a16,16,0,0,0,16,16H216.9A15.2,15.2,0,0,0,232,200.9V88A16,16,0,0,0,216,72Zm0,128H40V64H93.3l27.8,20.8a15.6,15.6,0,0,0,9.6,3.2H216Z"/><path d="M152,136H136V120a8,8,0,0,0-16,0v16H104a8,8,0,0,0,0,16h16v16a8,8,0,0,0,16,0V152h16a8,8,0,0,0,0-16Z"/></svg>