<svg id="Flat" xmlns="http://www.w3.org/2000/svg" viewBox="0 0 256 256">
  <g opacity="0.2">
    <path d="M93.33333,104H32V64a8,8,0,0,1,8-8H93.33333a8,8,0,0,1,4.8,1.6L128,80,98.13333,102.4A8,8,0,0,1,93.33333,104Z"/>
  </g>
  <g>
    <path d="M216,72H130.6665L102.93359,51.2002A16.10323,16.10323,0,0,0,93.333,48H40A16.01833,16.01833,0,0,0,24,64V200a16.01833,16.01833,0,0,0,16,16H216a16.01833,16.01833,0,0,0,16-16V88A16.01833,16.01833,0,0,0,216,72ZM40,64H93.333l21.334,16L93.333,96H40ZM216,200H40V112H93.333a16.10323,16.10323,0,0,0,9.60058-3.2002L130.6665,88H216Z"/>
    <path d="M127.99121,116a8.00039,8.00039,0,0,0-8,8v16h-16a8,8,0,0,0,0,16h16v16a8,8,0,0,0,16,0V156h16a8,8,0,1,0,0-16h-16V124A8.00039,8.00039,0,0,0,127.99121,116Z"/>
  </g>
</svg>
