<svg xmlns="http://www.w3.org/2000/svg" viewBox="0 0 256 256"><path d="M98.3,50.3,128,80H32V56a8,8,0,0,1,8-8H92.7A7.9,7.9,0,0,1,98.3,50.3ZM152,164v44h72V164Z" opacity="0.2"/><path d="M224,156h-8v-4a28,28,0,0,0-56,0v4h-8a8,8,0,0,0-8,8v44a8,8,0,0,0,8,8h72a8,8,0,0,0,8-8V164A8,8,0,0,0,224,156Zm-48-4a12,12,0,0,1,24,0v4H176Zm40,48H160V172h56Zm0-128H131.3L104,44.7A15.9,15.9,0,0,0,92.7,40H40A16,16,0,0,0,24,56V200.6A15.4,15.4,0,0,0,39.4,216h73.2a8,8,0,1,0,0-16H40V88H216v16a8,8,0,0,0,16,0V88A16,16,0,0,0,216,72ZM92.7,56l16,16H40V56Z"/></svg>