<svg id="Flat" xmlns="http://www.w3.org/2000/svg" viewBox="0 0 256 256">
  <g opacity="0.2">
    <path d="M224,72H154.6665a7.99938,7.99938,0,0,1-4.7998-1.6L122.1333,49.6a7.99938,7.99938,0,0,0-4.7998-1.6H72a7.99993,7.99993,0,0,0-8,8V80H85.3335a7.99938,7.99938,0,0,1,4.7998,1.6l27.7334,20.8a7.99938,7.99938,0,0,0,4.7998,1.6H192a7.99993,7.99993,0,0,1,8,8v64h24.88867A7.1111,7.1111,0,0,0,232,168.88892V80A7.99993,7.99993,0,0,0,224,72Z"/>
  </g>
  <path d="M224,64H154.667l-27.7334-20.7998A16.10323,16.10323,0,0,0,117.333,40H72A16.01833,16.01833,0,0,0,56,56V72H40A16.01833,16.01833,0,0,0,24,88V200a16.01833,16.01833,0,0,0,16,16H192.88867A15.12831,15.12831,0,0,0,208,200.88867V184h16.88867A15.12831,15.12831,0,0,0,240,168.88867V80A16.01833,16.01833,0,0,0,224,64ZM192,200H40V88H85.333l27.7334,20.7998A16.10323,16.10323,0,0,0,122.667,112l69.33252-.01025L192,112Zm32-32H208V112a16.01833,16.01833,0,0,0-16-16H122.667L94.93359,75.2002A16.10323,16.10323,0,0,0,85.333,72H72V56h45.333l27.7334,20.7998A16.10323,16.10323,0,0,0,154.667,80H224Z"/>
</svg>
