<svg id="Flat" xmlns="http://www.w3.org/2000/svg" viewBox="0 0 256 256">
  <path d="M219.77667,107.77588c-2.77319,25.269-11.97217,53.55664-35.20813,76.79248-23.2359,23.23633-51.5235,32.43506-76.79236,35.2085L36.22333,148.22412c2.77325-25.269,11.97223-53.55664,35.20813-76.79248,23.236-23.23633,51.5238-32.43506,76.79278-35.2085l.00013.00147,71.55151,71.55127Z" opacity="0.2"/>
  <path d="M225.98,56.31055a32.13113,32.13113,0,0,0-26.29-26.29053c-31.3501-5.30908-90.43652-7.72363-133.915,35.75439-43.478,43.478-41.064,102.56446-35.75488,133.915a32.13113,32.13113,0,0,0,26.29,26.29053,200.74409,200.74409,0,0,0,33.27637,2.83984c31.082,0,69.78955-7.74511,100.63867-38.59423C233.70361,146.74756,231.28906,87.66113,225.98,56.31055Zm-166.998,153.894a16.11587,16.11587,0,0,1-13.18652-13.18652,184.68056,184.68056,0,0,1-2.68555-30.59473l46.48267,46.48291A185.002,185.002,0,0,1,58.98193,210.20459Zm119.92969-31.293c-11.54248,11.543-33.39331,27.74268-68.10785,32.57861l-66.2796-66.27978c4.8374-34.7124,21.02209-56.58008,32.56421-68.12207,11.54248-11.54248,33.39325-27.7417,68.10773-32.57861l66.27978,66.27978C206.63849,145.502,190.45374,167.36963,178.91162,178.91162ZM166.407,43.09375a185.008,185.008,0,0,1,30.611,2.70166,16.11531,16.11531,0,0,1,13.18652,13.18652,184.68056,184.68056,0,0,1,2.68555,30.59473Zm-27.09332,62.27881,15.02954-15.0293a7.99984,7.99984,0,0,1,11.31348,11.31348l-15.02948,15.02978,8.9704,8.97022a8,8,0,0,1-11.31348,11.314L139.31372,128l-11.3139,11.314,8.97039,8.97022a7.99983,7.99983,0,1,1-11.31347,11.31348l-8.97046-8.97022-15.02954,15.0293a7.99984,7.99984,0,0,1-11.31348-11.31348l15.02948-15.02978-8.9704-8.97022a8,8,0,0,1,11.31348-11.314L116.68628,128l11.3139-11.314-8.97039-8.97022a7.99983,7.99983,0,1,1,11.31347-11.31348Z"/>
</svg>
