<svg xmlns="http://www.w3.org/2000/svg" viewBox="0 0 256 256"><g opacity="0.2"><path d="M204,160H148S160,48,204,32"/></g><path d="M84,80a8,8,0,0,0,8-8V32a8,8,0,0,0-16,0V72A8,8,0,0,0,84,80Z"/><path d="M119.9,30.7a8,8,0,1,0-15.8,2.6L112,80.6a28,28,0,0,1-56,0l7.9-47.3a8,8,0,1,0-15.8-2.6l-8,48A5.7,5.7,0,0,0,40,80a44.1,44.1,0,0,0,36,43.3V224a8,8,0,0,0,16,0V123.3A44.1,44.1,0,0,0,128,80a5.7,5.7,0,0,0-.1-1.3Z"/><path d="M208.6,25.4a8.2,8.2,0,0,0-7.3-.9c-20.8,7.5-37.5,32.9-49.5,75.3A412.8,412.8,0,0,0,140,159.1a8.1,8.1,0,0,0,2,6.2,8.2,8.2,0,0,0,6,2.7h48v56a8,8,0,0,0,16,0V32A8.2,8.2,0,0,0,208.6,25.4ZM196,152H157.1a402.3,402.3,0,0,1,10.1-47.8c7.9-28,17.7-47.6,28.8-57.8Z"/></svg>