<svg id="Flat" xmlns="http://www.w3.org/2000/svg" viewBox="0 0 256 256">
  <g opacity="0.2">
    <path d="M204,160H148S160,48,204,32"/>
  </g>
  <g>
    <path d="M84,80a8.00008,8.00008,0,0,0,8-8V32a8,8,0,0,0-16,0V72A8.00008,8.00008,0,0,0,84,80Z"/>
    <path d="M119.89111,30.68457a8,8,0,1,0-15.78222,2.63086l7.88427,47.30566a28.00005,28.00005,0,0,1-55.98632,0l7.88427-47.30566a8,8,0,1,0-15.78222-2.63086l-8,48A7.9739,7.9739,0,0,0,40,80a44.06372,44.06372,0,0,0,36,43.25781V224a8,8,0,0,0,16,0V123.25781A44.06372,44.06372,0,0,0,128,80a7.9739,7.9739,0,0,0-.10889-1.31543Z"/>
    <path d="M208.58984,25.44727a8.00147,8.00147,0,0,0-7.32373-.96582c-20.80029,7.564-37.44238,32.91113-49.46338,75.33789a398.20955,398.20955,0,0,0-11.75683,59.32812A8.00051,8.00051,0,0,0,148,168h48v56a8,8,0,0,0,16,0V32A8.00054,8.00054,0,0,0,208.58984,25.44727ZM196,152H157.12646a389.08015,389.08015,0,0,1,10.07081-47.81934C175.1123,76.24414,184.93164,56.61328,196,46.35791Z"/>
  </g>
</svg>
