<svg id="Flat" xmlns="http://www.w3.org/2000/svg" viewBox="0 0 256 256">
  <path d="M224,56V200a7.99993,7.99993,0,0,1-8,8H40a7.99993,7.99993,0,0,1-8-8V56a7.99993,7.99993,0,0,1,8-8H216A7.99993,7.99993,0,0,1,224,56Z" opacity="0.2"/>
  <path d="M200,80v32a8,8,0,0,1-16,0V88H160a8,8,0,0,1,0-16h32A8.00039,8.00039,0,0,1,200,80ZM96,168H72V144a8,8,0,0,0-16,0v32a8.00039,8.00039,0,0,0,8,8H96a8,8,0,0,0,0-16ZM232,56V200a16.01833,16.01833,0,0,1-16,16H40a16.01833,16.01833,0,0,1-16-16V56A16.01833,16.01833,0,0,1,40,40H216A16.01833,16.01833,0,0,1,232,56ZM216.00977,200,216,56H40V200H216.00977Z"/>
</svg>
