<svg id="Flat" xmlns="http://www.w3.org/2000/svg" viewBox="0 0 256 256">
  <g opacity="0.2">
    <path d="M149,159.832l23.01835-.09217a52.04589,52.04589,0,0,0,51.21853-61.03119l-.00853.00148,16.351,84.42309A28.00192,28.00192,0,0,1,192.204,207.796l.00166-.00173L149,159.832Z"/>
  </g>
  <g>
    <path d="M192,108a8.00008,8.00008,0,0,0-8-8H152a8,8,0,0,0,0,16h32A8.00008,8.00008,0,0,0,192,108Z"/>
    <path d="M104,100H96V92a8,8,0,0,0-16,0v8H72a8,8,0,0,0,0,16h8v8a8,8,0,0,0,16,0v-8h8a8,8,0,0,0,0-16Z"/>
    <path d="M247.45752,181.74316c-.00781-.04394-.01611-.08789-.02441-.13183L231.08252,97.18848c-.01227-.06348-.03217-.123-.04584-.18555a60.08632,60.08632,0,0,0-59.01861-49.2627h-.02344L84.00439,48A59.86832,59.86832,0,0,0,24.90625,97.58887c-.0127.07226-.02441.14551-.03516.21777L8.57715,181.60547c-.00879.0459-.01709.0918-.02539.13769A36.00238,36.00238,0,0,0,69.45752,213.457q.21753-.2168.416-.44726l40.729-45.02442,34.84961-.13916,40.67139,45.14893q.20361.2373.42822.46191a36.00125,36.00125,0,0,0,60.90576-31.71387ZM107.00684,152a7.99986,7.99986,0,0,0-5.90039,2.63281L57.99219,202.293a20.00156,20.00156,0,0,1-33.69483-17.707l16.3501-84.08789q.04688-.24464.0791-.48633A43.90321,43.90321,0,0,1,84.02783,64l87.99756-.25977a44,44,0,1,1-.03955,88Zm108.4707,55.69141a20.03414,20.03414,0,0,1-17.45606-5.39453l-31.11169-34.53614,5.10828-.02051a60.00525,60.00525,0,0,0,50.94067-28.34961l8.75269,45.19239A20.02155,20.02155,0,0,1,215.47754,207.69141Z"/>
  </g>
</svg>
