<svg xmlns="http://www.w3.org/2000/svg" viewBox="0 0 256 256"><g opacity="0.2"><path d="M149,159.8h23a52,52,0,0,0,52-52,45,45,0,0,0-.8-9h0l16.4,84.4a28,28,0,0,1-47.4,24.7h0l-43.2-48Z"/></g><path d="M192,108a8,8,0,0,0-8-8H152a8,8,0,0,0,0,16h32A8,8,0,0,0,192,108Z"/><path d="M104,100H96V92a8,8,0,0,0-16,0v8H72a8,8,0,0,0,0,16h8v8a8,8,0,0,0,16,0v-8h8a8,8,0,0,0,0-16Z"/><path d="M247.5,181.7h-.1L231.1,97.2c0-.1,0-.1-.1-.2a60,60,0,0,0-59-49.3h0L84,48A59.9,59.9,0,0,0,24.9,97.6v.2L8.6,181.6h0a35.9,35.9,0,0,0,29.2,41.7,31.8,31.8,0,0,0,6.2.6,36.4,36.4,0,0,0,25.5-10.5l.4-.5,40.7-45,34.9-.2L186.1,213l.5.5A36,36,0,0,0,212,224a33.6,33.6,0,0,0,6.3-.6A36.1,36.1,0,0,0,247.5,181.7ZM107,152a8.3,8.3,0,0,0-5.9,2.6L58,202.3a20,20,0,0,1-33.7-17.7l16.3-84.1a.9.9,0,0,0,.1-.5A43.9,43.9,0,0,1,84,64l88-.3a44,44,0,1,1,0,88Zm108.5,55.7a20.1,20.1,0,0,1-17.5-5.4l-31.1-34.5H172a60,60,0,0,0,51-28.3l8.7,45.2A20,20,0,0,1,215.5,207.7Z"/></svg>