<svg xmlns="http://www.w3.org/2000/svg" viewBox="0 0 256 256"><path d="M232,160v24a8,8,0,0,1-8,8H32a8,8,0,0,1-8-8V161.1C24,103.6,70.2,56.2,127.6,56A104,104,0,0,1,232,160Z" opacity="0.2"/><path d="M207.1,80.7A111.3,111.3,0,0,0,128,48h-.4c-50.6.2-93.4,34.5-107,81.2a7.1,7.1,0,0,0-.8,1.8,11,11,0,0,0-.2,1.8A110.9,110.9,0,0,0,16,161.1V184a16,16,0,0,0,16,16H224a16,16,0,0,0,16-16V160A111.2,111.2,0,0,0,207.1,80.7ZM224,184H119.7l58.5-76.3A8,8,0,0,0,165.5,98l-66,86H32V161.1A98.3,98.3,0,0,1,33.7,143l22.7,6.1a7.6,7.6,0,0,0,2.1.3,8,8,0,0,0,2-15.8l-22.6-6C50.6,93,82.2,67.5,120,64.3V88a8,8,0,0,0,16,0V64.3A95.6,95.6,0,0,1,195.8,92a96.9,96.9,0,0,1,22.6,35.5l-22.9,6.1a8,8,0,0,0,2,15.8,7.6,7.6,0,0,0,2.1-.3l22.9-6.1a95.1,95.1,0,0,1,1.5,17Z"/></svg>