<svg id="Flat" xmlns="http://www.w3.org/2000/svg" viewBox="0 0 256 256">
  <path d="M232,160v24a7.99977,7.99977,0,0,1-8,8H32a7.99977,7.99977,0,0,1-8-8V161.12891c0-57.479,46.15381-104.9292,103.63232-105.12842A104.00019,104.00019,0,0,1,232,160Z" opacity="0.2"/>
  <path d="M207.05859,80.667A111.24356,111.24356,0,0,0,128.00293,48H128c-.13086,0-.26465.001-.39551.001-50.56689.17431-93.37939,34.47412-107.041,81.18945a7.7633,7.7633,0,0,0-1.00977,3.65625A113.79011,113.79011,0,0,0,16,161.12891V184a16.01833,16.01833,0,0,0,16,16H224a16.01833,16.01833,0,0,0,16-16V160A111.24978,111.24978,0,0,0,207.05859,80.667ZM224,184l-104.33594.00537L178.17773,107.749a8.00009,8.00009,0,0,0-12.69384-9.74023L99.49561,184.00635l-67.49512.00342L32,184V161.12891a98.12534,98.12534,0,0,1,1.68652-18.11768l22.69629,6.08154a8.00013,8.00013,0,0,0,4.14112-15.45507l-22.6045-6.05665C50.57861,92.95215,82.23389,67.51074,120,64.33789V88a8,8,0,0,0,16,0V64.333a96.20759,96.20759,0,0,1,82.38574,63.166l-22.90967,6.13868a8.00013,8.00013,0,1,0,4.14112,15.45507l22.88086-6.13086A97.15585,97.15585,0,0,1,224,160Z"/>
</svg>
