<svg id="Flat" xmlns="http://www.w3.org/2000/svg" viewBox="0 0 256.00098 256.00098">
  <g opacity="0.2">
    <path d="M216.001,136.001v-16l10.30761-15.46a8.18339,8.18339,0,0,0,1.07032-6.86817,103.25262,103.25262,0,0,0-7.65137-18.50879,8.14738,8.14738,0,0,0-5.60547-4.085l-18.23828-3.64746L184.57031,60.11816l-3.64746-18.23828a8.14916,8.14916,0,0,0-4.085-5.60644,103.22723,103.22723,0,0,0-18.50977-7.65039,8.18466,8.18466,0,0,0-6.86718,1.07031L136.001,40h-16L104.542,29.69336a8.1863,8.1863,0,0,0-6.86816-1.07031A103.18841,103.18841,0,0,0,79.165,36.27344a8.14352,8.14352,0,0,0-4.085,5.60644L71.43262,60.11719,60.11816,71.43164,41.88086,75.0791a8.14174,8.14174,0,0,0-5.60547,4.085,103.154,103.154,0,0,0-7.65234,18.50879,8.18373,8.18373,0,0,0,1.07129,6.86817L40,120v16L29.69434,151.459a8.18374,8.18374,0,0,0-1.07129,6.86817,103.15966,103.15966,0,0,0,7.65136,18.50976,8.14535,8.14535,0,0,0,5.60547,4.085l18.23828,3.64746,11.31348,11.31347,3.64746,18.23828a8.14352,8.14352,0,0,0,4.085,5.60645,103.06694,103.06694,0,0,0,18.50781,7.65039,8.18635,8.18635,0,0,0,6.86817-1.07031L120,216.001h16l15.46094,10.30761a8.18467,8.18467,0,0,0,6.86718,1.07032,103.24856,103.24856,0,0,0,18.50879-7.65039,8.14735,8.14735,0,0,0,4.085-5.60547l3.64747-18.23926,11.31347-11.31445,18.23926-3.64746a8.14178,8.14178,0,0,0,5.60547-4.085,103.21317,103.21317,0,0,0,7.65137-18.50781,8.18336,8.18336,0,0,0-1.07032-6.86816Zm-88,48a56,56,0,1,1,56-56A56.00027,56.00027,0,0,1,128.001,184.001Z"/>
  </g>
  <g>
    <path d="M128.001,64.00049a64,64,0,1,0,64,64A64.07239,64.07239,0,0,0,128.001,64.00049Zm0,112a48,48,0,1,1,48-48A48.05437,48.05437,0,0,1,128.001,176.00049Z"/>
    <path d="M224.001,133.57861V122.42334l8.96338-13.44482a16.077,16.077,0,0,0,2.06884-13.63331,111.47873,111.47873,0,0,0-8.2456-19.94189,16.0518,16.0518,0,0,0-11.09668-8.16846L199.82812,64.062l-7.88818-7.88818L188.76709,40.311a16.05319,16.05319,0,0,0-8.168-11.09766,111.50464,111.50464,0,0,0-19.94287-8.24414A16.078,16.078,0,0,0,147.023,23.0376L133.5791,32H122.42285l-13.44336-8.96191A16.07337,16.07337,0,0,0,95.3457,20.96924a111.50358,111.50358,0,0,0-19.9414,8.24365A16.05329,16.05329,0,0,0,67.23486,40.311L64.063,56.17334,56.17383,64.062,40.31152,67.23389a16.05251,16.05251,0,0,0-11.09668,8.168,111.4891,111.4891,0,0,0-8.24609,19.94335A16.07721,16.07721,0,0,0,23.03711,108.978L32,122.42236v11.15528l-8.96289,13.44482a16.07426,16.07426,0,0,0-2.06787,13.63233,111.51427,111.51427,0,0,0,8.24414,19.94384,16.05616,16.05616,0,0,0,11.09717,8.16748L56.17383,191.939l7.88818,7.8877,3.17236,15.86426a16.05448,16.05448,0,0,0,8.16749,11.09717,111.53047,111.53047,0,0,0,19.94238,8.24414,16.07626,16.07626,0,0,0,13.63281-2.06836l13.44482-8.96289h11.15577l13.4458,8.96386a16.23154,16.23154,0,0,0,9.01074,2.75537,15.86931,15.86931,0,0,0,4.62207-.6875,111.49971,111.49971,0,0,0,19.94092-8.24365,16.05452,16.05452,0,0,0,8.16894-11.09765l3.17285-15.86377,7.88819-7.88868,15.86328-3.17187a16.05251,16.05251,0,0,0,11.09668-8.168,111.49365,111.49365,0,0,0,8.24609-19.94238,16.07566,16.07566,0,0,0-2.06884-13.63281Zm-11.28809,39.43018a.37272.37272,0,0,1-.16016.06885l-18.23828,3.647a8.00176,8.00176,0,0,0-4.08886,2.188l-11.31348,11.31445a8.00171,8.00171,0,0,0-2.1875,4.08789l-3.64746,18.23828c-.0166.08057-.04834.13623-.0166.12207a95.83523,95.83523,0,0,1-16.99512,7.03711h-.00049a.36958.36958,0,0,1-.167-.06054L140.4375,209.34473A8.001,8.001,0,0,0,136,208.001H120a7.99828,7.99828,0,0,0-4.4375,1.34375l-15.46,10.30615c-.06885.0459-.14356.061-.10254.07373a96.01881,96.01881,0,0,1-17.00732-7.01074.37752.37752,0,0,1-.06934-.16114l-3.647-18.23877a7.99891,7.99891,0,0,0-2.188-4.08789L65.7749,178.9126a8.003,8.003,0,0,0-4.0874-2.188l-18.23877-3.648c-.05566-.01074-.09912-.03027-.11621-.03027-.00781,0-.01025.00439-.00537.01465a95.83286,95.83286,0,0,1-7.0376-16.99756.36584.36584,0,0,1,.06055-.16651L46.65625,140.4375A7.99983,7.99983,0,0,0,48,136V120a7.99983,7.99983,0,0,0-1.34375-4.4375l-10.30615-15.46c-.04541-.06836-.06006-.14209-.07373-.10205a96.06323,96.06323,0,0,1,7.01269-17.0083.37278.37278,0,0,1,.16016-.06885l18.2373-3.647a7.99672,7.99672,0,0,0,4.08838-2.188L77.08936,65.77393a7.999,7.999,0,0,0,2.188-4.08789l3.647-18.23731c.01611-.081.04834-.13623.01611-.12158a95.815,95.815,0,0,1,16.99707-7.0376c.02051-.01318.09717.01465.1665.06055l15.45948,10.30615A7.99834,7.99834,0,0,0,120.001,48h16a7.99839,7.99839,0,0,0,4.4375-1.34375l15.46-10.30664c.06836-.04541.14258-.06006.10205-.07275a96.0294,96.0294,0,0,1,17.0083,7.01123.376.376,0,0,1,.06885.16015l3.648,18.23877a7.99886,7.99886,0,0,0,2.188,4.08789l11.31348,11.31348a8.003,8.003,0,0,0,4.0874,2.188l18.23828,3.64795c.08008.01562.13623.05127.1211.01562A95.803,95.803,0,0,1,219.7124,99.936a.36285.36285,0,0,1-.06054.167l-10.30713,15.46045a7.99983,7.99983,0,0,0-1.34375,4.4375v16a7.99986,7.99986,0,0,0,1.34375,4.4375l10.30713,15.46093c.04541.06788.062.14258.07373.10157A96.07438,96.07438,0,0,1,212.71289,173.00879Z"/>
  </g>
</svg>
