<svg id="Flat" xmlns="http://www.w3.org/2000/svg" viewBox="0 0 256.00098 256.00098">
  <g opacity="0.2">
    <path d="M230.39551,109.76147a8.02782,8.02782,0,0,0-4.0044-5.60522L203.69775,91.55859h0a83.925,83.925,0,0,0-6.28759-10.90991l.437-25.96728a8.00126,8.00126,0,0,0-2.83594-6.25562,103.89316,103.89316,0,0,0-31.606-18.21777,8.02614,8.02614,0,0,0-6.85644.66528L134.292,44.22754h0a83.8907,83.8907,0,0,0-12.59179-.01l.02294.01392-22.293-13.376a8.00112,8.00112,0,0,0-6.83545-.67188,103.89444,103.89444,0,0,0-31.58008,18.2627A8.0265,8.0265,0,0,0,58.1626,54.7168l.437,25.95215h0a83.90687,83.90687,0,0,0-6.30469,10.8999L29.58984,104.1731a8.03308,8.03308,0,0,0-4.00732,5.61938,103.89,103.89,0,0,0,.03174,36.44605,8.02781,8.02781,0,0,0,4.00439,5.60522L52.3125,164.44141H52.312a83.92506,83.92506,0,0,0,6.2876,10.90991l.00049-.02661-.4375,25.99389a8.00126,8.00126,0,0,0,2.83594,6.25562,103.89311,103.89311,0,0,0,31.606,18.21777,8.026,8.026,0,0,0,6.85645-.66528l22.25683-13.35425h0a83.89083,83.89083,0,0,0,12.5918.01l-.023-.01392,22.293,13.376a8.00112,8.00112,0,0,0,6.83545.67188,103.89468,103.89468,0,0,0,31.58008-18.2627,8.02653,8.02653,0,0,0,2.85205-6.27051l-.437-25.95215h0a83.85174,83.85174,0,0,0,6.30468-10.8999l22.70508-12.60425a8.03312,8.03312,0,0,0,4.00733-5.61938A103.89047,103.89047,0,0,0,230.39551,109.76147ZM128.00488,176a48,48,0,1,1,48-48A47.99988,47.99988,0,0,1,128.00488,176Z"/>
  </g>
  <path d="M238.27051,108.35449a15.96161,15.96161,0,0,0-7.99658-11.19287L209.75049,85.76855c-1.31494-2.55029-2.75342-5.04589-4.29981-7.46093l.395-23.4917a15.93078,15.93078,0,0,0-5.68213-12.50977,111.53048,111.53048,0,0,0-34.03808-19.62158,15.96194,15.96194,0,0,0-13.69287,1.32861L132.30469,36.09082c-2.86817-.13623-5.749-.13916-8.61133-.00684L103.54687,23.99609a15.92659,15.92659,0,0,0-13.67578-1.33447,111.52881,111.52881,0,0,0-34.0122,19.668,15.96059,15.96059,0,0,0-5.69483,12.522l.39453,23.47022c-1.55127,2.415-2.99365,4.90869-4.31152,7.45459l-20.541,11.40234a15.96878,15.96878,0,0,0-8.00048,11.21436,111.5423,111.5423,0,0,0,.03369,39.25244,15.96155,15.96155,0,0,0,7.99658,11.19287l20.52344,11.39307c1.31494,2.55029,2.75342,5.04589,4.2998,7.46093l-.395,23.4917a15.93081,15.93081,0,0,0,5.68213,12.50977,111.53053,111.53053,0,0,0,34.03809,19.62158,15.95992,15.95992,0,0,0,13.69287-1.32861l20.12793-12.07764c2.86816.13672,5.749.13867,8.61133.00684l20.14648,12.08789a15.92909,15.92909,0,0,0,13.67578,1.33447,111.52874,111.52874,0,0,0,34.01221-19.668,15.96058,15.96058,0,0,0,5.69482-12.522l-.39453-23.47022c1.55127-2.415,2.99365-4.90869,4.31153-7.45459l20.541-11.40234a15.971,15.971,0,0,0,8.00049-11.21436A111.54278,111.54278,0,0,0,238.27051,108.35449Zm-15.7334,36.478-22.72852,12.6167a7.94878,7.94878,0,0,0-3.49511,3.90967,76.14535,76.14535,0,0,1-5.5083,9.459,7.99991,7.99991,0,0,0-1.39356,4.648l.42725,25.97119a95.3994,95.3994,0,0,1-29.14356,16.84766l-22.293-13.376c-.01757-.01074-.03515-.02148-.05322-.03174a7.96136,7.96136,0,0,0-5.12939-1.03711,76.2843,76.2843,0,0,1-10.89649-.04443,8.03066,8.03066,0,0,0-4.72168,1.11719L95.32324,218.26807a95.40178,95.40178,0,0,1-29.16211-16.81446l.4375-25.9834v-.01074a7.94252,7.94252,0,0,0-1.63769-4.98144,76.31685,76.31685,0,0,1-5.4375-9.5,7.9994,7.9994,0,0,0-3.32813-3.53125l-22.706-12.61524a95.41858,95.41858,0,0,1-.0166-33.66406l22.72851-12.6167a7.9688,7.9688,0,0,0,3.51758-3.95557,76.19206,76.19206,0,0,1,5.48584-9.41308,7.99982,7.99982,0,0,0,1.39355-4.64795L66.1709,54.563A95.405,95.405,0,0,1,95.31445,37.71533l22.293,13.376c.01758.01074.03516.02148.05322.03174a7.94979,7.94979,0,0,0,5.1294,1.03711,76.14118,76.14118,0,0,1,10.89648.04443,8.0118,8.0118,0,0,0,4.72168-1.11719l22.27832-13.35547a95.40155,95.40155,0,0,1,29.16211,16.81446l-.4375,25.9834v.01074a7.94247,7.94247,0,0,0,1.6377,4.98144,76.31811,76.31811,0,0,1,5.4375,9.5,7.99932,7.99932,0,0,0,3.32812,3.53125l22.70606,12.61524A95.41881,95.41881,0,0,1,222.53711,144.83252ZM128.00488,72a56,56,0,1,0,56,56A56.06353,56.06353,0,0,0,128.00488,72Zm0,96a40,40,0,1,1,40-40A40.04521,40.04521,0,0,1,128.00488,168Z"/>
</svg>
