<svg id="Flat" xmlns="http://www.w3.org/2000/svg" viewBox="0 0 256.00098 256.00098">
  <path d="M229.645,105.96387,203.69873,91.56055a83.92517,83.92517,0,0,0-6.2876-10.90992l.5-29.68823a103.88966,103.88966,0,0,0-38.17138-22.00146L134.293,44.22949a83.89083,83.89083,0,0,0-12.5918-.01L96.24023,28.94263A103.8856,103.8856,0,0,0,58.10107,50.999l.49952,29.67188A83.85065,83.85065,0,0,0,52.2959,91.5708L26.335,105.98218A103.8963,103.8963,0,0,0,26.3667,150.04L52.313,164.44336a83.92506,83.92506,0,0,0,6.2876,10.90991l-.5,29.68823A103.88954,103.88954,0,0,0,96.272,227.043l25.44678-15.26856a83.89083,83.89083,0,0,0,12.5918.01l25.46093,15.27686a103.88532,103.88532,0,0,0,38.13916-22.0564l-.49951-29.67187a83.79517,83.79517,0,0,0,6.30469-10.8999l25.96094-14.41138A103.8963,103.8963,0,0,0,229.645,105.96387ZM128.00586,176.002a48,48,0,1,1,48-48A47.99987,47.99987,0,0,1,128.00586,176.002Z" opacity="0.2"/>
  <path d="M128.00586,72.00195a56,56,0,1,0,56,56A56.06354,56.06354,0,0,0,128.00586,72.00195Zm0,96a40,40,0,1,1,40-40A40.0452,40.0452,0,0,1,128.00586,168.002Zm109.457-63.73584a8.00133,8.00133,0,0,0-3.93555-5.29687L209.75146,85.77051c-1.31591-2.55078-2.7539-5.04639-4.2998-7.46094l.458-27.2124a8.00056,8.00056,0,0,0-2.62158-6.05811A111.13811,111.13811,0,0,0,162.17871,21.3418a8.00177,8.00177,0,0,0-6.55469.75927l-23.31836,13.9917c-2.86865-.13672-5.75-.13916-8.61132-.00683L100.35645,22.08252a8.00256,8.00256,0,0,0-6.55762-.75879A111.15549,111.15549,0,0,0,52.72168,45.07715a8.00055,8.00055,0,0,0-2.61963,6.05664l.45752,27.18994c-1.55078,2.41455-2.99365,4.90869-4.31152,7.4541l-23.7959,13.21a8.00027,8.00027,0,0,0-3.93555,5.29932,111.13522,111.13522,0,0,0,.03223,47.45068,8.00137,8.00137,0,0,0,3.93554,5.29688L46.26025,170.2334c1.31592,2.55078,2.75391,5.04639,4.29981,7.46094l-.458,27.2124a8.00052,8.00052,0,0,0,2.62158,6.0581A111.13813,111.13813,0,0,0,93.833,234.66211a8.00156,8.00156,0,0,0,6.55469-.75928l23.31835-13.9917c2.86817.13623,5.749.13867,8.61133.00684l23.33789,14.00342a8.00239,8.00239,0,0,0,6.55762.75879A111.15557,111.15557,0,0,0,203.29,210.92676a8.00055,8.00055,0,0,0,2.61963-6.05664l-.45752-27.18994c1.55078-2.41455,2.99365-4.9087,4.31152-7.45411l23.7959-13.21a8.00023,8.00023,0,0,0,3.93555-5.29931A111.13527,111.13527,0,0,0,237.46289,104.26611Zm-14.9126,40.56153L199.833,157.43848a8.00563,8.00563,0,0,0-3.32324,3.5205,76.08445,76.08445,0,0,1-5.70362,9.86084,7.9999,7.9999,0,0,0-1.39355,4.648l.437,25.96485a95.02984,95.02984,0,0,1-29.14356,16.85986l-22.27929-13.36816a7.99661,7.99661,0,0,0-4.11572-1.14014q-.29737,0-.59522.022a76.08417,76.08417,0,0,1-11.3916-.00879,8.01723,8.01723,0,0,0-4.72168,1.11719L95.33447,218.27588A95.056,95.056,0,0,1,66.16211,201.4668l.4375-25.97852a8.00628,8.00628,0,0,0-1.38721-4.63867,76.183,76.183,0,0,1-5.688-9.87012,7.99823,7.99823,0,0,0-3.32812-3.53076l-22.70508-12.604a95.0434,95.0434,0,0,1-.02978-33.66846L56.17871,98.56543A8.00571,8.00571,0,0,0,59.502,95.04492a76.08512,76.08512,0,0,1,5.70362-9.86084,7.99987,7.99987,0,0,0,1.39355-4.64795l-.437-25.96484A95.02951,95.02951,0,0,1,95.30566,37.71143L117.585,51.07959a7.985,7.985,0,0,0,4.71094,1.11816,76.21624,76.21624,0,0,1,11.3916.00879,7.99566,7.99566,0,0,0,4.72168-1.11718L160.67725,37.728a95.05606,95.05606,0,0,1,29.17236,16.80908l-.4375,25.97852a8.00628,8.00628,0,0,0,1.38721,4.63867,76.18214,76.18214,0,0,1,5.688,9.87011,7.99828,7.99828,0,0,0,3.32813,3.53077l22.70508,12.604A95.0434,95.0434,0,0,1,222.55029,144.82764Z"/>
</svg>
