<svg id="Flat" xmlns="http://www.w3.org/2000/svg" viewBox="0 0 256 256">
  <path d="M215.96008,23.20947c-.01117-.11377-.03271-.22412-.04858-.33642-.02069-.146-.038-.29248-.06671-.4375-.026-.13086-.0622-.2583-.09461-.38721-.03106-.124-.05829-.24854-.09546-.37158-.03839-.12647-.08593-.24854-.13037-.37256-.04382-.12256-.08429-.24609-.13427-.3667-.04779-.11523-.104-.22559-.157-.33838-.05835-.124-.11358-.249-.17865-.3706-.05774-.10791-.12359-.21-.186-.31495-.07111-.11914-.13873-.24023-.21661-.35644-.07593-.11328-.16059-.22022-.242-.3291-.07464-.1001-.14429-.20264-.22424-.3003-.1521-.18505-.31384-.36181-.48175-.53271-.01654-.01709-.0304-.03564-.04712-.05225-.01935-.01953-.04077-.03515-.0603-.05468-.16852-.165-.34253-.32422-.525-.47413-.09424-.07763-.19366-.145-.29053-.21728-.1123-.084-.22229-.1709-.339-.249-.11236-.0752-.229-.14063-.34423-.20948-.109-.06494-.2157-.1333-.32807-.19384-.115-.06153-.23328-.11329-.35058-.16895-.11963-.05664-.23749-.11621-.3603-.167-.11077-.0459-.22387-.08252-.33618-.123-.13421-.04883-.267-.09961-.40442-.1416-.10833-.03223-.2185-.05615-.32788-.084-.14325-.03663-.28515-.07666-.43145-.10547-.12085-.02393-.24286-.03711-.36451-.05567-.13653-.02051-.27142-.04541-.41009-.05908-.20184-.01953-.40436-.02588-.60693-.03076C208.11768,16.00781,208.05981,16,208,16H168a8,8,0,0,0,0,16h20.686L164.25226,56.43359A67.97439,67.97439,0,1,0,112,175.51367V196H88a8,8,0,0,0,0,16h24v20a8,8,0,0,0,16,0V212h24a8,8,0,0,0,0-16H128V175.51367A67.9301,67.9301,0,0,0,175.09692,68.2168L200,43.314V64a8,8,0,0,0,16,0V24.00244C216.00006,23.73779,215.98608,23.47314,215.96008,23.20947ZM120,160a52,52,0,1,1,52-52A52.059,52.059,0,0,1,120,160Z"/>
</svg>
