<svg id="Flat" xmlns="http://www.w3.org/2000/svg" viewBox="0 0 256 256">
  <g opacity="0.2">
    <path d="M216,216l-29.33333-24-29.33334,24L128,192,98.66667,216,69.33333,192,40,216V120a88,88,0,0,1,176,0Z"/>
  </g>
  <path d="M112,116a12,12,0,1,1-12-12A12,12,0,0,1,112,116Zm44-12a12,12,0,1,0,12,12A12,12,0,0,0,156,104Zm68,16v96a7.99943,7.99943,0,0,1-13.06543,6.19141l-24.26758-19.855-24.26855,19.855a7.99877,7.99877,0,0,1-10.13184,0L128,202.33643l-24.2666,19.855a8,8,0,0,1-10.13184,0L69.333,202.33643l-24.26758,19.855A7.9995,7.9995,0,0,1,32,216V120a96,96,0,0,1,192,0Zm-16,0a80,80,0,0,0-160,0v79.11816l16.2666-13.30957a8,8,0,0,1,10.13184,0l24.26855,19.855,24.26758-19.855a7.99783,7.99783,0,0,1,10.13086,0l24.26758,19.855,24.26855-19.855a7.9994,7.9994,0,0,1,10.13184,0L208,199.11816Z"/>
</svg>
