<svg xmlns="http://www.w3.org/2000/svg" viewBox="0 0 256 256"><g opacity="0.2"><path d="M216,216l-29.3-24-29.4,24L128,192,98.7,216,69.3,192,40,216V120a88,88,0,0,1,176,0Z"/></g><path d="M112,116a12,12,0,1,1-12-12A12,12,0,0,1,112,116Zm44-12a12,12,0,1,0,12,12A12,12,0,0,0,156,104Zm68,16v96a7.9,7.9,0,0,1-4.6,7.2,7.9,7.9,0,0,1-8.5-1l-24.2-19.9-24.3,19.9a8,8,0,0,1-10.1,0L128,202.3l-24.3,19.9a8,8,0,0,1-10.1,0L69.3,202.3,45.1,222.2A8.1,8.1,0,0,1,32,216V120a96,96,0,0,1,192,0Zm-16,0a80,80,0,0,0-160,0v79.1l16.3-13.3a8,8,0,0,1,10.1,0l24.3,19.9,24.2-19.9a8.1,8.1,0,0,1,10.2,0l24.2,19.9,24.3-19.9a8,8,0,0,1,10.1,0L208,199.1Z"/></svg>