<svg id="Flat" xmlns="http://www.w3.org/2000/svg" viewBox="0 0 256 256">
  <g opacity="0.2">
    <circle cx="188" cy="67.99756" r="28"/>
  </g>
  <path d="M224,67.99756a36,36,0,1,0-44,35.09289v.9076a16.01844,16.01844,0,0,1-15.999,16L92,119.99951a31.80288,31.80288,0,0,0-16,4.29492v-21.204a36,36,0,1,0-16,0V152.9071a36,36,0,1,0,16,0v-.90759a16.01865,16.01865,0,0,1,16-16l72.001-.00146a32.03646,32.03646,0,0,0,31.999-32v-.9076A36.05514,36.05514,0,0,0,224,67.99756Zm-176,0a20,20,0,1,1,20,20A20.0226,20.0226,0,0,1,48,67.99756ZM88,188a20,20,0,1,1-20-20A20.0226,20.0226,0,0,1,88,188ZM188,87.99756a20,20,0,1,1,20-20A20.0226,20.0226,0,0,1,188,87.99756Z"/>
</svg>
