<svg xmlns="http://www.w3.org/2000/svg" viewBox="0 0 256 256"><path d="M224,188a28,28,0,1,1-28-28A28,28,0,0,1,224,188ZM60,40A28,28,0,1,0,88,68,28,28,0,0,0,60,40Z" opacity="0.2"/><path d="M204,152.9v-33a55.5,55.5,0,0,0-16.4-39.6L163.3,56H184a8,8,0,0,0,0-16H144a8,8,0,0,0-8,8V88a8,8,0,0,0,16,0V67.3l24.3,24.3A40,40,0,0,1,188,119.9v33a36,36,0,1,0,16,0ZM196,208a20,20,0,1,1,20-20A20.1,20.1,0,0,1,196,208Zm-84-48a8,8,0,0,0-8,8v20.7L79.7,164.4A40,40,0,0,1,68,136.1v-33a36,36,0,1,0-16,0v33a55.5,55.5,0,0,0,16.4,39.6L92.7,200H72a8,8,0,0,0,0,16h40a8,8,0,0,0,8-8V168A8,8,0,0,0,112,160ZM40,68A20,20,0,1,1,60,88,20.1,20.1,0,0,1,40,68Z"/></svg>