<svg id="Flat" xmlns="http://www.w3.org/2000/svg" viewBox="0 0 256 256">
  <g opacity="0.2">
    <circle cx="188" cy="67.99756" r="28"/>
  </g>
  <g opacity="0.2">
    <circle cx="68" cy="67.99756" r="28"/>
  </g>
  <path d="M224,67.99756a36,36,0,1,0-44,35.09289v.9076a16.01844,16.01844,0,0,1-15.999,16l-72,.00146a15.99994,15.99994,0,0,1-16.001-16v-.90906a36,36,0,1,0-16,0v.90906a32.00076,32.00076,0,0,0,32.001,32l28.001-.00055-.00146,16.908a36.00019,36.00019,0,1,0,16,.00031l.00146-16.90863,27.999-.00055a32.03646,32.03646,0,0,0,31.999-32v-.9076A36.05514,36.05514,0,0,0,224,67.99756Zm-176,0a20,20,0,1,1,20,20A20.0226,20.0226,0,0,1,48,67.99756ZM148,188a20,20,0,1,1-20-20A20.02229,20.02229,0,0,1,148,188ZM188,87.99756a20,20,0,1,1,20-20A20.0226,20.0226,0,0,1,188,87.99756Z"/>
</svg>
