<svg id="Flat" xmlns="http://www.w3.org/2000/svg" viewBox="0 0 256 256">
  <g opacity="0.2">
    <circle cx="67.99023" cy="68" r="28"/>
  </g>
  <path d="M187.99316,104a36.04766,36.04766,0,0,0-35.77246,32h-21.748a39.8964,39.8964,0,0,1-30.7295-14.39258L82.51172,100.93005a35.99423,35.99423,0,1,0-22.52149,2.16285v49.8142a36,36,0,1,0,16,0V118.09668l11.46192,13.75293A55.84986,55.84986,0,0,0,130.47266,152h23.585a35.99769,35.99769,0,1,0,33.93554-48ZM47.99023,68a20,20,0,1,1,20,20A20.02229,20.02229,0,0,1,47.99023,68Zm40,120a20,20,0,1,1-20-20A20.02229,20.02229,0,0,1,87.99023,188Zm100.00293-28a20,20,0,1,1,20-20A20.02229,20.02229,0,0,1,187.99316,160Z"/>
</svg>
