<svg id="Flat" xmlns="http://www.w3.org/2000/svg" viewBox="0 0 256 256">
  <path d="M200,112v8a47.99987,47.99987,0,0,1-48,48H104a47.99987,47.99987,0,0,1-48-48v-8a49.25725,49.25725,0,0,1,8.51172-27.29639A51.90015,51.90015,0,0,1,68,40a51.96059,51.96059,0,0,1,43.8252,23.99927l32.3496.00049A51.95917,51.95917,0,0,1,188,40a51.90015,51.90015,0,0,1,3.48828,44.70361A49.25725,49.25725,0,0,1,200,112Z" opacity="0.2"/>
  <path d="M216,216a16.01833,16.01833,0,0,1-16-16v-8a31.9949,31.9949,0,0,0-14.78076-26.95068A55.951,55.951,0,0,0,208,120v-8a58.04124,58.04124,0,0,0-7.69531-28.32031A59.73339,59.73339,0,0,0,194.92822,36,7.99908,7.99908,0,0,0,188,32a59.74792,59.74792,0,0,0-48.00781,24l-23.98487-.001A59.74952,59.74952,0,0,0,68,32a7.99908,7.99908,0,0,0-6.92822,4,59.73551,59.73551,0,0,0-5.377,47.67969A58.0419,58.0419,0,0,0,48,112v8a55.951,55.951,0,0,0,22.78076,45.04932A31.9949,31.9949,0,0,0,56,192v8a16.01833,16.01833,0,0,1-16,16,8,8,0,0,0,0,16,32.03667,32.03667,0,0,0,32-32v-8a16.01833,16.01833,0,0,1,16-16h12v40a16.01833,16.01833,0,0,1-16,16,8,8,0,0,0,0,16,32.03667,32.03667,0,0,0,32-32V176h24v40a32.03667,32.03667,0,0,0,32,32,8,8,0,0,0,0-16,16.01833,16.01833,0,0,1-16-16V176h12a16.01833,16.01833,0,0,1,16,16v8a32.03667,32.03667,0,0,0,32,32,8,8,0,0,0,0-16ZM64,120v-8A41.77977,41.77977,0,0,1,70.90088,89.5176a7.99937,7.99937,0,0,0,1.07666-7.6875,43.82564,43.82564,0,0,1,.78906-33.5752,43.84232,43.84232,0,0,1,32.32129,20.05762,7.99912,7.99912,0,0,0,6.73682,3.68652L144.17432,72h.00048a8.00058,8.00058,0,0,0,6.73731-3.68652A43.84259,43.84259,0,0,1,183.2334,48.2549a43.8234,43.8234,0,0,1,.78857,33.5752,8.08338,8.08338,0,0,0,1.04932,7.65039A41.7664,41.7664,0,0,1,192,112v8a40.04551,40.04551,0,0,1-40,40H104A40.04551,40.04551,0,0,1,64,120Z"/>
</svg>
