<svg xmlns="http://www.w3.org/2000/svg" viewBox="0 0 256 256"><path d="M200,112v8a48,48,0,0,1-48,48H104a48,48,0,0,1-48-48v-8a49.3,49.3,0,0,1,8.5-27.3A52,52,0,0,1,68,40a52,52,0,0,1,43.8,24h32.4A52,52,0,0,1,188,40a52,52,0,0,1,3.5,44.7A49.3,49.3,0,0,1,200,112Z" opacity="0.2"/><path d="M216,216a16,16,0,0,1-16-16v-8a32.1,32.1,0,0,0-14.8-27A55.8,55.8,0,0,0,208,120v-8a58,58,0,0,0-7.7-28.3A59.9,59.9,0,0,0,194.9,36a7.8,7.8,0,0,0-6.9-4,59.7,59.7,0,0,0-48,24H116A59.7,59.7,0,0,0,68,32a7.8,7.8,0,0,0-6.9,4,59.9,59.9,0,0,0-5.4,47.7A58,58,0,0,0,48,112v8a55.8,55.8,0,0,0,22.8,45A32.1,32.1,0,0,0,56,192v8a16,16,0,0,1-16,16,8,8,0,0,0,0,16,32.1,32.1,0,0,0,32-32v-8a16,16,0,0,1,16-16h12v40a16,16,0,0,1-16,16,8,8,0,0,0,0,16,32.1,32.1,0,0,0,32-32V176h24v40a32.1,32.1,0,0,0,32,32,8,8,0,0,0,0-16,16,16,0,0,1-16-16V176h12a16,16,0,0,1,16,16v8a32.1,32.1,0,0,0,32,32,8,8,0,0,0,0-16ZM64,120v-8a42.7,42.7,0,0,1,6.9-22.5A7.9,7.9,0,0,0,72,81.8a43.7,43.7,0,0,1,.8-33.5,43.6,43.6,0,0,1,32.3,20,8,8,0,0,0,6.7,3.7h32.4a8,8,0,0,0,6.7-3.7,43.6,43.6,0,0,1,32.3-20,43.7,43.7,0,0,1,.8,33.5,8.2,8.2,0,0,0,1.1,7.7A42.7,42.7,0,0,1,192,112v8a40,40,0,0,1-40,40H104A40,40,0,0,1,64,120Z"/></svg>