<svg id="Flat" xmlns="http://www.w3.org/2000/svg" viewBox="0 0 256 256">
  <g opacity="0.2">
    <path d="M64.51166,76.70377A51.90056,51.90056,0,0,1,68,32a51.9599,51.9599,0,0,1,43.82469,23.9988V56h32.35061V55.9988A51.9599,51.9599,0,0,1,188,32a51.90056,51.90056,0,0,1,3.48834,44.70377l0,0A47.77872,47.77872,0,0,1,200,104v8a48,48,0,0,1-48,48H104a48,48,0,0,1-48-48v-8a47.77872,47.77872,0,0,1,8.51163-27.29627Z"/>
  </g>
  <path d="M216,208a16.01833,16.01833,0,0,1-16-16v-8a31.9949,31.9949,0,0,0-14.78076-26.95068A55.951,55.951,0,0,0,208,112v-8a55.67143,55.67143,0,0,0-7.68945-28.33789A59.73846,59.73846,0,0,0,194.92822,28,7.99908,7.99908,0,0,0,188,24a59.7461,59.7461,0,0,0-48.00684,24l-23.98632-.001A59.74863,59.74863,0,0,0,68,24a7.99908,7.99908,0,0,0-6.92822,4,59.73846,59.73846,0,0,0-5.38233,47.66211A55.67143,55.67143,0,0,0,48,104v8a55.951,55.951,0,0,0,22.78076,45.04932A31.9949,31.9949,0,0,0,56,184v8a16.01833,16.01833,0,0,1-16,16,8,8,0,0,0,0,16,32.03667,32.03667,0,0,0,32-32v-8a16.01833,16.01833,0,0,1,16-16h12v40a16.01833,16.01833,0,0,1-16,16,8,8,0,0,0,0,16,32.03667,32.03667,0,0,0,32-32V168h24v40a32.03667,32.03667,0,0,0,32,32,8,8,0,0,0,0-16,16.01833,16.01833,0,0,1-16-16V168h12a16.01833,16.01833,0,0,1,16,16v8a32.03667,32.03667,0,0,0,32,32,8,8,0,0,0,0-16ZM64,112v-8a39.75444,39.75444,0,0,1,7.08838-22.74121,7.99932,7.99932,0,0,0,.88965-7.42773A43.82575,43.82575,0,0,1,72.7666,40.2549a43.84077,43.84077,0,0,1,32.32031,20.0586A8.00166,8.00166,0,0,0,111.8252,64l32.35058-.001a7.99912,7.99912,0,0,0,6.73682-3.68652A43.84141,43.84141,0,0,1,183.2334,40.2549a43.82575,43.82575,0,0,1,.78857,33.57618,7.99932,7.99932,0,0,0,.88965,7.42773A39.75444,39.75444,0,0,1,192,104v8a40.04551,40.04551,0,0,1-40,40H104A40.04551,40.04551,0,0,1,64,112Z"/>
</svg>
