<svg xmlns="http://www.w3.org/2000/svg" viewBox="0 0 256 256"><path d="M227.4,163.2l-94.8,65.6a8.1,8.1,0,0,1-9.2,0L28.6,163.2a8.2,8.2,0,0,1-3.2-8.6L52.8,52.1a4,4,0,0,1,7.6-.4L83,112h90l22.6-60.3a4,4,0,0,1,7.6.4l27.4,102.5A8.2,8.2,0,0,1,227.4,163.2Z" opacity="0.2"/><path d="M238.3,152.5,211,50a12,12,0,0,0-22.9-1.1L167.5,104h-79L67.9,48.9A12,12,0,0,0,45,50L17.7,152.5a16.1,16.1,0,0,0,6.4,17.3l94.8,65.6a15.7,15.7,0,0,0,18.2,0l94.8-65.6A16.1,16.1,0,0,0,238.3,152.5ZM128,222.3,33.2,156.6,57.3,66.2l18.2,48.6A8.1,8.1,0,0,0,83,120h90a8.1,8.1,0,0,0,7.5-5.2l18.2-48.6,24.1,90.4Z"/></svg>