<svg id="Flat" xmlns="http://www.w3.org/2000/svg" viewBox="0 0 256 256">
  <path d="M83,112h90L128.65906,230.2427h0a8.02831,8.02831,0,0,1-1.31812,0h.00006ZM203.221,52.07863a4.00007,4.00007,0,0,0-7.61029-.374L173,112h46.2Zm-150.442,0L36.8,112H83L60.38928,51.70461A4,4,0,0,0,52.77905,52.07863Z" opacity="0.2"/>
  <path d="M238.28027,152.50246,210.95068,50.01662a12.00021,12.00021,0,0,0-22.83056-1.12109L167.45605,104H88.544L67.87988,48.89651a12.00012,12.00012,0,0,0-22.831,1.12109L17.71973,152.50246a16.03981,16.03981,0,0,0,6.35254,17.27783l94.82031,65.64454a15.9154,15.9154,0,0,0,7.093,2.69336c.22138.03808.44574.05517.67078.0747q.14071.01172.28143.02149c.13526.00683.268.03076.40406.03076.06445,0,.12945-.00733.19409-.00879.15478.00439.30926.01709.46411.01709s.30933-.0127.46411-.01709c.06464.00146.12958.00879.19409.00879.13587,0,.26837-.02393.40345-.03076q.14181-.00952.2832-.02149c.22436-.02.44806-.03662.66882-.0747a15.91814,15.91814,0,0,0,7.09375-2.69336l94.82031-65.64454A16.03981,16.03981,0,0,0,238.28027,152.50246ZM198.7124,66.21877,208.78729,104h-24.2431ZM161.45587,120,128,209.21584,94.54413,120ZM57.2876,66.21877,71.45581,104H47.21271ZM42.94617,120H77.45605l34.07538,90.86865L33.17969,156.625Zm101.5224,90.86865L178.544,120h34.50988l9.76648,36.625Z"/>
</svg>
