<svg id="Flat" xmlns="http://www.w3.org/2000/svg" viewBox="0 0 256 256">
  <g opacity="0.2">
    <circle cx="128" cy="128" r="96"/>
  </g>
  <path d="M232,128.00037A104.11767,104.11767,0,0,0,128.042,24.00086L128,23.96423l-.042.03663a103.99952,103.99952,0,0,0-.001,207.999l.043.0376.043-.0376A104.11763,104.11763,0,0,0,232,128.00037Zm-16.36768-8h-39.853c-1.5918-29.637-12.01123-57.01758-29.5044-78.08643A88.1919,88.1919,0,0,1,215.63232,120.00037Zm-119.37353,16h63.48242C157.93164,164.75623,146.44678,191.703,128,210.44177,109.55322,191.703,98.06836,164.75623,96.25879,136.00037Zm0-16C98.06836,91.24353,109.55322,64.29675,128,45.559c18.44678,18.73779,29.93164,45.68457,31.74121,74.44141ZM109.7251,41.91394C92.23193,62.98279,81.8125,90.3634,80.2207,120.00037h-39.853A88.1919,88.1919,0,0,1,109.7251,41.91394ZM40.36768,136.00037h39.853c1.59229,29.636,12.01172,57.01709,29.50489,78.08642A88.19181,88.19181,0,0,1,40.36768,136.00037Zm105.90673,78.08642c17.49317-21.06933,27.9126-48.45044,29.50489-78.08642h39.853A88.19181,88.19181,0,0,1,146.27441,214.08679Z"/>
</svg>
