<svg xmlns="http://www.w3.org/2000/svg" viewBox="0 0 256 256"><path d="M216.4,165.5ZM183,141.2l-30.4,12.7a8.2,8.2,0,0,0-4.9,6.2l-2.3,16.2a8,8,0,0,0,5.8,8.9l21.5,5.6a8.2,8.2,0,0,1,3.6,2.1l10.8,10.8.2-.2a96.7,96.7,0,0,0,29.1-38l-24.9-22.8A8,8,0,0,0,183,141.2Zm-23.3-36.6L181.9,79a8.1,8.1,0,0,0,1.9-5.6l-1.1-24.3h0A96,96,0,0,0,49.6,183.4h0l11.7-7.1a8,8,0,0,0,3.8-6.8l.2-36.1a7.7,7.7,0,0,1,1.3-4.2L86.4,98.1a8.1,8.1,0,0,1,11.5-2.2l19.6,14.2a8.6,8.6,0,0,0,5.8,1.5l31.5-4.3A7.8,7.8,0,0,0,159.7,104.6Z" opacity="0.2"/><path d="M223.5,169.2a6.1,6.1,0,0,0,.5-1.2A104,104,0,0,0,187.8,42.9l-1.2-.7A103,103,0,0,0,128,24,104,104,0,0,0,42.6,187.3v.2l.8,1.1a104,104,0,0,0,147.8,21.9l1.4-1.1A105.3,105.3,0,0,0,223.5,169.2Zm-36,23.6-5.5-5.5a15.8,15.8,0,0,0-7.3-4.2l-21.4-5.6,2.4-16.2,30.4-12.7,20.6,18.8A90.6,90.6,0,0,1,187.5,192.8ZM128,40a87.5,87.5,0,0,1,46.9,13.6l1,20.2L153.7,99.4l-31.5,4.2L102.6,89.4a16.2,16.2,0,0,0-12.4-2.8,16.3,16.3,0,0,0-10.5,7.2l-19.9,31a16.3,16.3,0,0,0-2.5,8.6l-.2,36.1-5,3A87.2,87.2,0,0,1,40,128,88.1,88.1,0,0,1,128,40ZM61.5,185.6l3.9-2.4a16.2,16.2,0,0,0,7.7-13.6l.2-36.1,19.9-31.1,19.6,14.2a16.5,16.5,0,0,0,11.6,2.9l31.4-4.3a15.8,15.8,0,0,0,10-5.4L188,84.2A15.8,15.8,0,0,0,191.8,73l-.2-5.8A87.7,87.7,0,0,1,216,128a86.4,86.4,0,0,1-3.2,23.4l-15.9-14.6a16.1,16.1,0,0,0-16.9-3l-30.5,12.7a16.1,16.1,0,0,0-9.7,12.4l-2.4,16.2A16.2,16.2,0,0,0,149.2,193l21.5,5.6,4,4a88,88,0,0,1-113.2-17Z"/></svg>