<svg id="Flat" xmlns="http://www.w3.org/2000/svg" viewBox="0 0 256 256">
  <g opacity="0.2">
    <path d="M49.585,183.39491A96.011,96.011,0,0,1,182.68191,49.08523l-.004.00566,4.094,22.20695a7.0253,7.0253,0,0,1-3.88287,7.6139l-19.865,9.481a7.02529,7.02529,0,0,0-3.76539,8.13792v0a7.02531,7.02531,0,0,1-10.6005,7.70074l-14.41444-9.30136a7.0253,7.0253,0,0,0-9.91638,2.43085l-4.72184,8.30535a7.0253,7.0253,0,0,1-12.70317-1.05368l-1.37392-3.747a7.02526,7.02526,0,0,0-3.21026-3.73719l-7.194-3.95672a7.02531,7.02531,0,0,0-7.79577.6871L70.97215,107.04927a7.02534,7.02534,0,0,0-1.76935,2.12663L58.51743,128.93381a7.02532,7.02532,0,0,0-.73377,4.59159l6.45991,35.73807a7.02529,7.02529,0,0,1-3.28258,7.264L49.58637,183.394Z"/>
  </g>
  <g opacity="0.2">
    <path d="M216.61374,164.992a96.23676,96.23676,0,0,1-25.18035,35.06655l-.00414-.0047-14.56838-14.59728a7.02532,7.02532,0,0,0-4.97256-2.06259H160.45318a7.0253,7.0253,0,0,1-6.95036-8.0487l2.38076-16.16881a7.02529,7.02529,0,0,1,3.70069-5.20513l23.863-12.45024a7.02529,7.02529,0,0,1,7.92292.983L216.61,164.99034Z"/>
  </g>
  <path d="M223.773,168.53662a7.92728,7.92728,0,0,0,.44287-1.07471,103.91139,103.91139,0,0,0-36.32129-124.436,8.01358,8.01358,0,0,0-1.38183-.9585A103.94623,103.94623,0,0,0,42.62012,187.30957c.041.07275.07422.147.11718.21875a8.05384,8.05384,0,0,0,.80762,1.09082,103.86034,103.86034,0,0,0,152.56934,17.9082,7.99043,7.99043,0,0,0,.96631-.81152c.07568-.07568.14111-.15771.21338-.23535A104.48686,104.48686,0,0,0,223.773,168.53662Zm-32.24268,20.29346-9.00537-9.02246a14.9215,14.9215,0,0,0-10.63623-4.41407H161.582l2.14356-14.55957,22.82617-11.9082L206.86035,167.019A88.40049,88.40049,0,0,1,191.53027,188.83008ZM128,40a87.48229,87.48229,0,0,1,47.43066,13.90527l3.33887,18.1084-19.1914,9.15918A15.04058,15.04058,0,0,0,151.105,96.28906l-12.52393-8.082a15.02671,15.02671,0,0,0-21.208,5.2002l-3.68311,6.47754-.65088-1.77539a15.0277,15.0277,0,0,0-6.86621-7.99122l-7.19238-3.95605a14.97023,14.97023,0,0,0-16.67383,1.46875l-16.3584,13.19238a14.94938,14.94938,0,0,0-3.78222,4.54688L51.47949,125.12988a15.08141,15.08141,0,0,0-1.56836,9.81836L56.252,170.02539l-4.13134,2.49414A87.96179,87.96179,0,0,1,128,40ZM61.4834,185.55615l3.61133-2.18017a15.10574,15.10574,0,0,0,7.02148-15.53516L65.7168,132.43848,76.147,113.15332l15.69434-12.65723,6.30224,3.46582,1.248,3.4043a15.02456,15.02456,0,0,0,27.168,2.25391l4.21289-7.40918,13.54785,8.74218a15.02626,15.02626,0,0,0,22.85938-15.67968l19.15527-9.1416a15.04446,15.04446,0,0,0,8.43018-15.39356,87.89427,87.89427,0,0,1,18.17724,80.26953l-16.25049-14.47754a15.10505,15.10505,0,0,0-16.94482-2.10156l-23.86182,12.44922a15.06688,15.06688,0,0,0-7.9165,11.13379l-2.38037,16.168a15.02409,15.02409,0,0,0,14.86475,17.21386H171.4834l7.95019,7.96583A87.85432,87.85432,0,0,1,61.4834,185.55615Z"/>
</svg>
