<svg id="Flat" xmlns="http://www.w3.org/2000/svg" viewBox="0 0 256 256">
  <g opacity="0.2">
    <circle cx="128" cy="95.99353" r="72"/>
  </g>
  <g>
    <path d="M128,175.99316a80,80,0,1,0-80-80A80.09041,80.09041,0,0,0,128,175.99316Zm0-144a64,64,0,1,1-64,64A64.07207,64.07207,0,0,1,128,31.99316Z"/>
    <path d="M207.19629,175.18945A8.00052,8.00052,0,0,0,195.88184,163.875,95.99942,95.99942,0,1,1,60.11816,28.11133,8.00052,8.00052,0,0,0,48.80371,16.79688,112.00314,112.00314,0,0,0,120,207.71v16.2832H96a8,8,0,0,0,0,16h64a8,8,0,0,0,0-16H136V207.71A111.16716,111.16716,0,0,0,207.19629,175.18945Z"/>
  </g>
</svg>
