<svg xmlns="http://www.w3.org/2000/svg" viewBox="0 0 256 256"><g opacity="0.2"><path d="M130.3,224a96.3,96.3,0,0,0,83.9-53.6h0L159.9,137a7.2,7.2,0,0,0-3.1-1.1l-22.9-3.1a7.8,7.8,0,0,0-8.3,4.7l-13.7,30.7a8,8,0,0,0,1.4,8.7l18.8,20.3a8.2,8.2,0,0,1,2,7L130.3,224Z"/></g><g opacity="0.2"><path d="M65,55.6,56,76.8a8,8,0,0,0-.1,5.9l11.5,30.6a7.9,7.9,0,0,0,5.8,5.1l5.4,1.1,8.3-19.7a8.1,8.1,0,0,1,7.4-4.9h21.4a8.6,8.6,0,0,0,3.8-1l12.3-6.8a7.2,7.2,0,0,0,1.5-1.1l26.9-24.3a8.1,8.1,0,0,0,1.6-9.8l-9.3-16.8h0A98.5,98.5,0,0,0,128,32,95.4,95.4,0,0,0,65,55.6Z"/></g><path d="M221.6,173.3A102.9,102.9,0,0,0,232,128,104.2,104.2,0,0,0,154.8,27.5h-.5A103.8,103.8,0,0,0,60.4,49l-1.3,1.2A103.9,103.9,0,0,0,128,232h2.4A104.3,104.3,0,0,0,221,174.6h0ZM216,128a89.3,89.3,0,0,1-5.5,30.7l-46.4-28.5a15.4,15.4,0,0,0-6.3-2.3l-22.8-3a16.1,16.1,0,0,0-15.3,6.8h-8.6l-3.8-7.9a15.7,15.7,0,0,0-11-8.7l-6.6-1.4,4.6-10.8h21.4a16.1,16.1,0,0,0,7.7-2l12.2-6.8a16.1,16.1,0,0,0,3-2.1l26.9-24.4A15.7,15.7,0,0,0,170,50.7,88,88,0,0,1,216,128ZM147.2,42.1l7.6,13.7L127.9,80.1l-12.2,6.8H94.3a15.9,15.9,0,0,0-14.7,9.8l-5.3,12.4L63.4,79.9l8.2-19.3a87.8,87.8,0,0,1,75.6-18.5ZM40,128a87.1,87.1,0,0,1,9.5-39.7l10.4,27.9a16.1,16.1,0,0,0,11.6,10l5.5,1.2h.1l15.8,3.4,3.8,7.9a16.4,16.4,0,0,0,14.4,9h1.2l-7.7,17.2a16.1,16.1,0,0,0,2.8,17.4l18.8,20.4-2.5,13.2A88.1,88.1,0,0,1,40,128Zm100.1,87.2,1.8-9.5a16,16,0,0,0-3.9-13.9l-18.8-20.3,12.7-28.7h.1l.9-2.1,22.8,3.1,47.8,29.4A88.5,88.5,0,0,1,140.1,215.2Z"/></svg>