<svg id="Flat" xmlns="http://www.w3.org/2000/svg" viewBox="0 0 256 256">
  <path d="M216.40039,165.48535h-.00049c.01709-.03955.03516-.07812.05225-.11767Zm-33.36377-24.25146-30.45068,12.65673a8,8,0,0,0-4.84424,6.22168l-2.38477,16.19629a8.00079,8.00079,0,0,0,5.88428,8.90332l21.4585,5.63135a8.00478,8.00478,0,0,1,3.63183,2.08643l10.731,10.75244.20264-.15772a96.30566,96.30566,0,0,0,29.13476-38.03906l-24.89355-22.76758A8.00007,8.00007,0,0,0,183.03662,141.23389Zm-23.293-36.61914,22.15674-25.60108a7.99962,7.99962,0,0,0,1.9419-5.61914l-1.16846-24.30371.00439-.00586A96.01108,96.01108,0,0,0,49.58105,183.395l.00147-.001,11.67773-7.0498a7.99993,7.99993,0,0,0,3.86573-6.80371l.20263-36.12891a7.99725,7.99725,0,0,1,1.25586-4.2583L86.42676,98.05566a8.00009,8.00009,0,0,1,11.438-2.17529l19.65576,14.24072a7.99993,7.99993,0,0,0,5.76709,1.44922l31.48047-4.26367A8,8,0,0,0,159.74365,104.61475Z" opacity="0.2"/>
  <path d="M223.48486,169.18555a7.891,7.891,0,0,0,.50244-1.1753,103.91813,103.91813,0,0,0-36.21093-125.064,8.04824,8.04824,0,0,0-1.14649-.79492A103.94558,103.94558,0,0,0,42.61768,187.31152c.04.07129.07324.145.11572.21582a7.9667,7.9667,0,0,0,.80664,1.08985,103.84714,103.84714,0,0,0,147.71387,21.87207,8.00784,8.00784,0,0,0,1.43066-1.11768A104.57534,104.57534,0,0,0,223.48486,169.18555ZM187.48779,192.7832l-5.49365-5.5039a16.01855,16.01855,0,0,0-7.26416-4.17481l-21.458-5.63086,2.38428-16.19531,30.45117-12.65723,20.55127,18.79541A88.50263,88.50263,0,0,1,187.48779,192.7832ZM127.99609,40a87.47022,87.47022,0,0,1,46.88379,13.5625l.97168,20.21582L153.69434,99.37891l-31.48047,4.26367L102.55762,89.40039a16.00109,16.00109,0,0,0-22.875,4.35254l-19.8418,31.09668a15.97128,15.97128,0,0,0-2.51172,8.5166L57.126,169.49609l-5.00928,3.02344A87.96179,87.96179,0,0,1,127.99609,40ZM61.48,185.55664l3.91553-2.36328A16.10121,16.10121,0,0,0,73.126,169.585l.20263-36.12891L93.1709,102.3584l19.65625,14.24121a15.95576,15.95576,0,0,0,11.53418,2.89844l31.48144-4.26367a15.99269,15.99269,0,0,0,9.94971-5.38477L187.94873,84.25A15.92874,15.92874,0,0,0,191.833,73.01074l-.2793-5.813a87.914,87.914,0,0,1,21.28272,84.187l-15.93116-14.57032a16.05434,16.05434,0,0,0-16.939-2.96777l-30.45166,12.65723a16.07983,16.07983,0,0,0-9.6875,12.44336l-2.38477,16.19531a15.98468,15.98468,0,0,0,11.76807,17.80762l21.4585,5.63085,3.98828,3.9961A87.85932,87.85932,0,0,1,61.48,185.55664Z"/>
</svg>
