<svg xmlns="http://www.w3.org/2000/svg" viewBox="0 0 256 256"><path d="M220,110.9v54.6a7.8,7.8,0,0,1-1.6,4.7c-6.7,9-35.1,41.8-90.4,41.8s-83.7-32.8-90.4-41.8a7.8,7.8,0,0,1-1.6-4.7V110.9L128,160Z" opacity="0.2"/><path d="M251.8,88.9l-120-64a8.5,8.5,0,0,0-7.6,0l-120,64a8.1,8.1,0,0,0,0,14.2L28,115.7v49.8a15.5,15.5,0,0,0,3.2,9.5c7.9,10.6,38.3,45,96.8,45a128.7,128.7,0,0,0,52-10.5V240a8,8,0,0,0,16,0V201.1A111.8,111.8,0,0,0,224.8,175a15.5,15.5,0,0,0,3.2-9.5V115.7l23.8-12.6a8.1,8.1,0,0,0,0-14.2ZM128,204c-51.1,0-77.2-29.5-84-38.5V124.3l80.2,42.8a8.5,8.5,0,0,0,7.6,0L180,141.3v50.5C166.9,198.7,149.7,204,128,204Zm84-38.6a85.8,85.8,0,0,1-16,16.1V132.8l16-8.5Zm4.2-61.5h0l-28.2,15-56.2-30a8.1,8.1,0,1,0-7.6,14.2L171,128l-43,22.9-88.2-47h0L25,96,128,41.1,231,96Z"/></svg>