<svg xmlns="http://www.w3.org/2000/svg" viewBox="0 0 256 256"><path d="M207.2,96H48.8A8,8,0,0,1,41,86.3C47.4,55.5,83.9,32,128,32s80.6,23.5,87,54.3A8,8,0,0,1,207.2,96ZM148,160l-40,16L68,160l-20,8v16a32,32,0,0,0,32,32h96a32,32,0,0,0,32-32V168l-20,8Z" opacity="0.2"/><path d="M48.8,104H207.2a16,16,0,0,0,15.6-19.4C215.5,49.5,175.6,24,128,24S40.5,49.5,33.2,84.6A16,16,0,0,0,48.8,104ZM128,40c39.4,0,73.4,20.6,79.2,47.9H48.8C54.6,60.6,88.6,40,128,40Zm97,112.6-37,14.8-37-14.8a7.8,7.8,0,0,0-6,0l-37,14.8L71,152.6a7.8,7.8,0,0,0-6,0l-40,16A8,8,0,0,0,28,184a8,8,0,0,0,3-.6l9-3.6V184a40,40,0,0,0,40,40h96a40,40,0,0,0,40-40V173.4l15-6a8,8,0,0,0-6-14.8ZM200,184a24.1,24.1,0,0,1-24,24H80a24.1,24.1,0,0,1-24-24V173.4l12-4.8,37,14.8a7.8,7.8,0,0,0,6,0l37-14.8,37,14.8a7.8,7.8,0,0,0,6,0l9-3.6Zm40-56a8,8,0,0,1-8,8H24a8,8,0,0,1,0-16H232A8,8,0,0,1,240,128Z"/></svg>