<svg xmlns="http://www.w3.org/2000/svg" viewBox="0 0 256 256"><g opacity="0.2"><path d="M88,116H68a20.1,20.1,0,0,0-20,20v16a80,80,0,0,0,160,0V108a20,20,0,0,0-40,0V92a20,20,0,0,0-40,0,20,20,0,0,0-40,0Z"/></g><path d="M188,80a27.8,27.8,0,0,0-13.4,3.4,28,28,0,0,0-46.6-11A28,28,0,0,0,80,92v16H68a28.1,28.1,0,0,0-28,28v16a88,88,0,0,0,176,0V108A28.1,28.1,0,0,0,188,80Zm12,72a72,72,0,0,1-144,0V136a12,12,0,0,1,12-12H80v24a8,8,0,0,0,16,0V92a12,12,0,0,1,24,0v32a8,8,0,0,0,16,0V92a12,12,0,0,1,24,0v32a8,8,0,0,0,16,0V108a12,12,0,0,1,24,0Z"/></svg>