<svg xmlns="http://www.w3.org/2000/svg" viewBox="0 0 256 256"><path d="M188,92a20.1,20.1,0,0,0-20,20V52a20,20,0,0,0-40,0V36a20,20,0,0,0-40,0V68a20,20,0,0,0-40,0v84a80,80,0,0,0,160,0V112A20.1,20.1,0,0,0,188,92Zm-14.6,80.4c-5.7,8.8-20.8,27.6-45.4,27.6s-39.7-18.8-45.4-27.6a8.2,8.2,0,0,1,0-8.8c5.7-8.8,20.8-27.6,45.4-27.6s39.7,18.8,45.4,27.6A8.2,8.2,0,0,1,173.4,172.4Z" opacity="0.2"/><path d="M128,128c-28.7,0-46,21.8-52.1,31.2a16.1,16.1,0,0,0,0,17.6C82,186.2,99.3,208,128,208s46-21.8,52.1-31.2a16.1,16.1,0,0,0,0-17.6C174,149.8,156.7,128,128,128Zm0,64c-20.8,0-34-16.8-38.7-24h0c4.7-7.2,17.9-24,38.7-24s34,16.8,38.7,24C162,175.2,148.8,192,128,192ZM188,84a28.2,28.2,0,0,0-12,2.7V52a28.1,28.1,0,0,0-28-28,27.8,27.8,0,0,0-13.4,3.4A28,28,0,0,0,80,36v6.7A28,28,0,0,0,40,68v84a88,88,0,0,0,176,0V112A28.1,28.1,0,0,0,188,84Zm12,68a72,72,0,0,1-144,0V68a12,12,0,0,1,24,0v44a8,8,0,0,0,16,0V36a12,12,0,0,1,24,0v68a8,8,0,0,0,16,0V52a12,12,0,0,1,24,0v64a8,8,0,0,0,16,0v-4a12,12,0,0,1,24,0Zm-60,16a12,12,0,1,1-12-12A12,12,0,0,1,140,168Z"/></svg>