<svg xmlns="http://www.w3.org/2000/svg" viewBox="0 0 256 256"><g opacity="0.2"><path d="M208.8,72H47.2a8.1,8.1,0,0,0-8,7.1L25,207.1a8,8,0,0,0,7.9,8.9H223.1a8,8,0,0,0,7.9-8.9l-14.2-128A8.1,8.1,0,0,0,208.8,72Z"/></g><path d="M239,206.2l-14.3-128A15.9,15.9,0,0,0,208.8,64H175.3a48,48,0,0,0-94.6,0H47.2A15.9,15.9,0,0,0,31.3,78.2L17,206.2a16.2,16.2,0,0,0,4,12.5A15.9,15.9,0,0,0,32.9,224H223.1a15.9,15.9,0,0,0,11.9-5.3A16.2,16.2,0,0,0,239,206.2ZM128,40a32.1,32.1,0,0,1,31,24H97A32.1,32.1,0,0,1,128,40ZM32.9,208,47.2,80H80v24a8,8,0,0,0,16,0V80h64v24a8,8,0,0,0,16,0V80h32.8l14.3,128Z"/></svg>