<svg id="Flat" xmlns="http://www.w3.org/2000/svg" viewBox="0 0 256 256">
  <path d="M208,136v80a7.99977,7.99977,0,0,1-8,8H56a7.99977,7.99977,0,0,1-8-8V136a32.00034,32.00034,0,0,1,32-32h96A32,32,0,0,1,208,136Z" opacity="0.2"/>
  <path d="M184,96.80469V88a32.03667,32.03667,0,0,0-32-32H136V32h32a8.00917,8.00917,0,0,1,8,8,8,8,0,0,0,16,0,24.0275,24.0275,0,0,0-24-24H104a8,8,0,0,0,0,16h16V56H104A32.03667,32.03667,0,0,0,72,88v8.80469A40.06815,40.06815,0,0,0,40,136v80a16.01833,16.01833,0,0,0,16,16H200a16.01833,16.01833,0,0,0,16-16V136A40.06815,40.06815,0,0,0,184,96.80469ZM104,72h48a16.01833,16.01833,0,0,1,16,16v8H88V88A16.01833,16.01833,0,0,1,104,72Zm96,144H56V136a24.0275,24.0275,0,0,1,24-24h96a24.0275,24.0275,0,0,1,24,24l.00977,79.99951Z"/>
</svg>
