<svg id="Flat" xmlns="http://www.w3.org/2000/svg" viewBox="0 0 256 256">
  <path d="M88.70068,49.79688,99.04346,67.71094A18.00063,18.00063,0,0,0,76.98779,93.50977l-8-13.85645a17.92479,17.92479,0,0,0-9.1206-7.79858v.00048l-2.34326-4.05834a17.99993,17.99993,0,1,1,31.17675-18Zm113.354,52.33471-17-29.44482a18,18,0,0,0-31.17725,17.99951l-25.99951-45.033a18.00015,18.00015,0,0,0-31.17725,18l2.34278,4.05762h0l.001.00146.00049-.001a17.92631,17.92631,0,0,1,9.12012,7.79834l26,45.0332a18.00028,18.00028,0,0,1,22.05517-25.79859l.00147.0022.00049-.00146a17.92438,17.92438,0,0,1,9.11963,7.79785l17,29.44507a71.8345,71.8345,0,0,1,5.69531,59.52685A72.02707,72.02707,0,0,0,202.05469,102.13159Zm-14.01807,89.38355.00049-.00025h-.00049Z" opacity="0.2"/>
  <path d="M190.251,69.68652a23.9764,23.9764,0,0,0-41.56055.01514L133.07422,42.65332a23.97176,23.97176,0,0,0-41.8042.4541A24.00145,24.00145,0,0,0,49.90186,64.916a23.98408,23.98408,0,0,0-17.28663,35.7373L36.23,106.91455A23.98051,23.98051,0,0,0,15.4375,142.90234l37,64.08594a77.99184,77.99184,0,0,0,140.75391-12.09082A78.372,78.372,0,0,0,207.251,99.13184ZM100.69824,51.54688a11.99988,11.99988,0,0,1,21.9834-2.89356L145.36963,87.95A23.90829,23.90829,0,0,0,128.978,99.55859l-15.6167-27.04882A23.85686,23.85686,0,0,0,103.273,63.03711l-1.36963-2.37183-.00586-.012A11.92578,11.92578,0,0,1,100.69824,51.54688ZM61.52148,55.69141a12.00022,12.00022,0,0,1,21.9834-2.89453l4.6875,8.11987A23.95119,23.95119,0,0,0,71.54785,72.95337a23.86281,23.86281,0,0,0-7.45068-5.772l-1.37744-2.38452A11.91875,11.91875,0,0,1,61.52148,55.69141Zm91.4668,169.4541a66.07673,66.07673,0,0,1-90.1582-24.15723l-37-64.08594a12.00023,12.00023,0,0,1,20.78515-12l.001.00122,23.999,41.56812a6.00012,6.00012,0,1,0,10.39258-6l-38-65.81836a11.99981,11.99981,0,1,1,20.78418-12l38,65.81836a6.00012,6.00012,0,0,0,10.39258-6l-30-51.96143v-.00048a11.99981,11.99981,0,1,1,20.78418-12l42,72.74609a6.00012,6.00012,0,0,0,10.39258-6L139.36182,117.5437l-.00049-.00073a11.99981,11.99981,0,0,1,20.78418-12l17,29.44531a65.999,65.999,0,0,1-24.15723,90.15723Zm45.021-56.15064a77.51651,77.51651,0,0,0-10.47119-40.00659l-17-29.44531a23.86046,23.86046,0,0,0-10.08692-9.47144l-1.37646-2.38427-.00049-.00074a11.99981,11.99981,0,0,1,20.78418-12l17,29.44532A66.39509,66.39509,0,0,1,198.00928,168.99487Zm-31.1001-143.822,4.1416-15.4541a6.00029,6.00029,0,0,1,11.5918,3.10547l-4.1416,15.4541a6.00029,6.00029,0,0,1-11.5918-3.10547Zm26.06152,9.85352,9.17774-13.10645a6.00007,6.00007,0,0,1,9.83008,6.88281l-9.17774,13.10645a6.00007,6.00007,0,0,1-9.83008-6.88281Zm41.10938,18.82519L220.97363,63.0293a6.00007,6.00007,0,0,1-6.88281-9.83008l13.10645-9.17774a6.00007,6.00007,0,0,1,6.88281,9.83008Z"/>
</svg>
