<svg id="Flat" xmlns="http://www.w3.org/2000/svg" viewBox="0 0 256 256">
  <g opacity="0.2">
    <path d="M200,152.86156,163.20286,189.6587a8,8,0,0,1-7.59714,2.10429L97.64881,177.27376a7.99992,7.99992,0,0,1-2.98764-1.45911L40,133.0718l32.57437-61.282,51.32-14.96153a8,8,0,0,1,5.537.39169L164,72.86156H143.31371a8,8,0,0,0-5.65686,2.34315L98.52241,114.33915a8,8,0,0,0,.85685,12.05686L104.8,130.46156a32,32,0,0,0,38.4,0l12.8-9.6Z"/>
  </g>
  <path d="M251.32324,107.22314,226.73047,60.127a16.0726,16.0726,0,0,0-21.33789-6.90527L182.1123,64.86133H165.72559L132.72852,49.93066a16.01609,16.01609,0,0,0-11.07325-.78271L72.9834,63.33734,50.6084,52.1499a16.07928,16.07928,0,0,0-21.33887,6.90479L4.67676,106.15186a16.0014,16.0014,0,0,0,7.02734,21.7163l24,12.00013,54.02832,42.24792a15.9025,15.9025,0,0,0,5.97559,2.918l57.957,14.48926a15.8477,15.8477,0,0,0,3.84473.47265,16.0981,16.0981,0,0,0,11.35058-4.67968l36.79688-36.79834c.03906-.03907.07422-.08167.1123-.12152.05029-.05249.09912-.10621.14844-.16034.05371-.05939.11084-.11567.16308-.17664L221.02783,140.574l23.26807-11.6341a16.0018,16.0018,0,0,0,7.02734-21.7168Zm-52.59912,34.81873-38.019-27.65027a7.99783,7.99783,0,0,0-9.50488.06983l-12.79981,9.60009a24.1254,24.1254,0,0,1-28.80078,0l-5.41992-4.06543,39.13379-39.13476H163.958c.0122.00006.02441.002.03711.002l.02734-.002h15.1294l27.25439,52.1936ZM43.45313,66.46045l17.68652,8.84326L36.54688,122.40088l-17.68653-8.84326ZM157.5459,184.002l-57.957-14.48925L50.17432,130.872,77.41016,78.71265,126.13379,64.5083l7.69971,3.48407A16.1947,16.1947,0,0,0,132,69.54785L92.86523,108.68262A16.00034,16.00034,0,0,0,94.5791,132.7959L100,136.86133a40.20558,40.20558,0,0,0,48,0l8.07324-6.05469,31.6499,23.01788Zm79.59375-69.37256-17.68652,8.84327L194.86035,76.37549l17.68653-8.84278L237.14941,114.624ZM119.76074,214.80176a7.98886,7.98886,0,0,1-9.70117,5.82031l-30.13965-7.53418a16.0992,16.0992,0,0,1-6.61719-3.44727L50.752,190.03809a8,8,0,0,1,10.4961-12.07618l22.55273,19.60352,30.13965,7.53516A7.99856,7.99856,0,0,1,119.76074,214.80176Z"/>
</svg>
