<svg xmlns="http://www.w3.org/2000/svg" viewBox="0 0 256 256"><g opacity="0.2"><path d="M200,152.9l-36.8,36.8a8.5,8.5,0,0,1-7.6,2.1l-58-14.5a8,8,0,0,1-2.9-1.5L40,133.1,72.6,71.8l51.3-15a8,8,0,0,1,5.5.4L164,72.9H143.3a7.9,7.9,0,0,0-5.6,2.3L98.5,114.3a8.1,8.1,0,0,0,.9,12.1l5.4,4.1a32.1,32.1,0,0,0,38.4,0l12.8-9.6Z"/></g><path d="M251.3,107.2,226.7,60.1a16,16,0,0,0-21.3-6.9L182.1,64.9H165.7l-33-15a16.6,16.6,0,0,0-11-.8L73,63.3,50.6,52.1a16.1,16.1,0,0,0-21.3,7L4.7,106.2a16,16,0,0,0-1.1,12.3,16.3,16.3,0,0,0,8.1,9.4l24,12,54,42.2a15.2,15.2,0,0,0,6,2.9l58,14.5a15.8,15.8,0,0,0,3.8.5,16.5,16.5,0,0,0,11.4-4.7l36.8-36.8h.1c0-.1.1-.1.1-.2h.2L221,140.6l23.3-11.7a15.8,15.8,0,0,0,8.1-9.3A16.2,16.2,0,0,0,251.3,107.2ZM198.7,142l-38-27.6a8,8,0,0,0-9.5.1l-12.8,9.6a24.3,24.3,0,0,1-28.8,0l-5.4-4.1,39.1-39.1h35.9l27.2,52.2ZM43.5,66.5l17.6,8.8L36.5,122.4l-17.6-8.8ZM157.5,184,99.6,169.5,50.2,130.9,77.4,78.7l48.7-14.2,7.7,3.5L132,69.5,92.9,108.7a15.9,15.9,0,0,0,1.7,24.1l5.4,4.1a40.2,40.2,0,0,0,48,0l8.1-6.1,31.6,23Zm79.6-69.4-17.6,8.9L194.9,76.4l17.6-8.9,24.6,47.1ZM119.8,214.8a8.1,8.1,0,0,1-7.8,6.1,6.3,6.3,0,0,1-1.9-.3l-30.2-7.5a15.7,15.7,0,0,1-6.6-3.5L50.8,190a7.9,7.9,0,1,1,10.4-12l22.6,19.6,30.1,7.5A8.1,8.1,0,0,1,119.8,214.8Z"/></svg>