<svg id="Flat" xmlns="http://www.w3.org/2000/svg" viewBox="0 0 256 256">
  <g opacity="0.2">
    <path d="M158.63434,93.34742a20,20,0,1,1,34.641-20l20,34.641a80,80,0,1,1-138.56406,80l-38-65.81793a20,20,0,0,1,34.641-20l-20-34.641a20,20,0,1,1,34.641-20l8,13.8564a20,20,0,0,1,34.641-20Z"/>
  </g>
  <path d="M220.20312,103.98828l-19.999-34.64062a28.02682,28.02682,0,0,0-47.29834-1.92243l-17.34326-30.04a27.99212,27.99212,0,0,0-48.11328-.63549A28.003,28.003,0,0,0,44.4248,71.5293l7.35352,12.73663A27.99166,27.99166,0,0,0,29.7832,126.17041l38,65.81787a87.99976,87.99976,0,1,0,152.41992-88ZM213.54,166.62354A72.00058,72.00058,0,0,1,81.63867,183.98828l-37.999-65.81738a11.99994,11.99994,0,0,1,20.78418-12.00049l18,31.17725a8.05326,8.05326,0,0,0,.55322.82312c.05518.07293.11328.14184.17041.2124q.23145.28583.48438.54553c.0625.064.123.12946.1875.1911a7.881,7.881,0,0,0,.7163.617c.01319.01025.02832.01849.042.02868a7.90615,7.90615,0,0,0,.74218.48572c.07862.04584.1587.08777.23877.1308q.31055.16745.63428.30621c.07715.03308.15283.0683.23047.09894a8.0412,8.0412,0,0,0,.88379.29407c.02246.00592.04541.009.06787.01471a8.01,8.01,0,0,0,.84619.16546c.08594.01239.17236.0213.25879.03089q.35963.03983.72266.04669c.05273.001.105.01019.15771.01019.02539,0,.05127-.0047.07666-.00494a7.95047,7.95047,0,0,0,.93067-.0597c.02392-.00305.04785-.00933.07226-.01263a7.91224,7.91224,0,0,0,.84375-.16516c.08936-.02228.17774-.04883.2666-.07434q.33691-.09668.66846-.22492c.08691-.03344.17383-.06469.25977-.10138a7.95988,7.95988,0,0,0,3.80175-11.35839l-18-31.17774-.0039-.00647L58.28027,63.52881A12.00012,12.00012,0,0,1,79.06543,51.5293l7.9834,13.82818.01562.02826,26,45.03369a8,8,0,1,0,13.85645-8l-25.999-45.03369a12.00023,12.00023,0,1,1,20.78515-12l29.99756,51.95752.00244.0044,6.3291,10.96338a48.025,48.025,0,0,0-10.9707,60.998,7.99959,7.99959,0,1,0,13.85547-8,32.00043,32.00043,0,0,1,11.71387-43.71289,7.96868,7.96868,0,0,0,.66992-.43329c.18017-.12921.34961-.26849.51562-.41009.03174-.02692.06641-.05048.09766-.07788.19092-.16761.37109-.344.543-.52668l.01611-.01586q.25928-.27687.48779-.575l.01758-.02087c.14453-.1886.27783-.384.4043-.5835.01318-.021.02832-.0404.0415-.06152.11377-.18286.21533-.37158.31348-.5622.022-.04248.04736-.08258.06885-.12548.0874-.17847.16308-.36206.2373-.54621.02344-.05877.05225-.115.07471-.17444.08056-.215.14892-.43408.21094-.655.0083-.03028.0205-.059.0288-.08942.00782-.02966.01172-.05988.01954-.0896.05664-.22278.10742-.44714.145-.67419.01171-.06977.01513-.14.0249-.2099.02636-.18915.05224-.3783.06494-.56922.00391-.05823.00146-.11633.00391-.17456.00927-.20325.01611-.40661.00976-.61078-.00146-.03888-.00732-.07739-.00879-.11621-.01025-.2218-.02588-.44366-.05469-.66522-.00341-.02515-.00976-.04981-.01318-.07489-.03271-.23193-.07275-.46344-.126-.69373-.00683-.02783-.0166-.05481-.02294-.08252-.05469-.22387-.11573-.4469-.19043-.66772-.022-.06525-.05127-.12811-.0752-.19281-.06641-.18012-.13184-.36029-.21191-.53735a7.98085,7.98085,0,0,0-.36475-.7121l-10-17.3208a12.00012,12.00012,0,0,1,20.78516-11.99951l20,34.64062A71.53255,71.53255,0,0,1,213.54,166.62354ZM87.668,244.56152a7.999,7.999,0,0,1-11.13281,2.01563,118.949,118.949,0,0,1-35.46289-38.58643,7.99959,7.99959,0,1,1,13.85546-8,103.08083,103.08083,0,0,0,30.72461,33.438A8.00009,8.00009,0,0,1,87.668,244.56152ZM168,30.99268A8.00009,8.00009,0,0,1,176,23h.00781A60.21143,60.21143,0,0,1,227.9541,53.00439a8.00044,8.00044,0,1,1-13.85742,8A44.16357,44.16357,0,0,0,175.99219,39,8,8,0,0,1,168,30.99268Z"/>
</svg>
