<svg id="Flat" xmlns="http://www.w3.org/2000/svg" viewBox="0 0 256 256">
  <g opacity="0.2">
    <rect x="40" y="144" width="176" height="64" rx="8"/>
  </g>
  <g opacity="0.2">
    <rect x="40" y="48" width="176" height="64" rx="8"/>
  </g>
  <path d="M208,136H48a16.01833,16.01833,0,0,0-16,16v48a16.01833,16.01833,0,0,0,16,16H208a16.01833,16.01833,0,0,0,16-16V152A16.01833,16.01833,0,0,0,208,136Zm0,64H48V152H208l.01025,47.99951Zm0-160H48A16.01833,16.01833,0,0,0,32,56v48a16.01833,16.01833,0,0,0,16,16H208a16.01833,16.01833,0,0,0,16-16V56A16.01833,16.01833,0,0,0,208,40Zm0,64H48V56H208l.01025,47.99951ZM192,80a12,12,0,1,1-12-12A12.01375,12.01375,0,0,1,192,80Zm0,96a12,12,0,1,1-12-12A12.01375,12.01375,0,0,1,192,176Z"/>
</svg>
