<svg id="Flat" xmlns="http://www.w3.org/2000/svg" viewBox="0 0 256 256">
  <g opacity="0.2">
    <path d="M32,128v56a16,16,0,0,0,16,16H64a16,16,0,0,0,16-16V144a16,16,0,0,0-16-16Z"/>
  </g>
  <g opacity="0.2">
    <path d="M225.45581,128h-32a16,16,0,0,0-16,16v40a16,16,0,0,0,16,16h16a16,16,0,0,0,16-16Z"/>
  </g>
  <path d="M202.7207,54.1875A103.28167,103.28167,0,0,0,129.46289,24c-.24414,0-.49121.001-.73535.00244q-.36768-.00219-.73535-.00244A104.00007,104.00007,0,0,0,24,128v56a24.0275,24.0275,0,0,0,24,24H64a24.0275,24.0275,0,0,0,24-24V144a24.0275,24.0275,0,0,0-24-24H40.35547A88.01928,88.01928,0,0,1,128.668,40.00244c.041.00049.07812.00049.11914,0A88.01738,88.01738,0,0,1,217.10059,120H193.45605a24.0275,24.0275,0,0,0-24,24v40a24.0275,24.0275,0,0,0,24,24h16a23.89418,23.89418,0,0,0,8-1.376V208a24.0275,24.0275,0,0,1-24,24H136a8,8,0,0,0,0,16h57.45605a40.04551,40.04551,0,0,0,40-40V128A103.28343,103.28343,0,0,0,202.7207,54.1875ZM64,136a8.00917,8.00917,0,0,1,8,8v40a8.00917,8.00917,0,0,1-8,8H48a8.00917,8.00917,0,0,1-8-8V136Zm145.45605,56h-16a8.00917,8.00917,0,0,1-8-8V144a8.00917,8.00917,0,0,1,8-8h24v48A8.00916,8.00916,0,0,1,209.45605,192Z"/>
</svg>
