<svg xmlns="http://www.w3.org/2000/svg" viewBox="0 0 256 256"><g opacity="0.2"><path d="M32,136v56a16,16,0,0,0,16,16H64a16,16,0,0,0,16-16V152a16,16,0,0,0-16-16Z"/></g><g opacity="0.2"><path d="M225.5,136h-32a16,16,0,0,0-16,16v40a16,16,0,0,0,16,16h16a16,16,0,0,0,16-16Z"/></g><path d="M202.7,62.2A103.1,103.1,0,0,0,129.5,32H128A104,104,0,0,0,24,136v56a24.1,24.1,0,0,0,24,24H64a24.1,24.1,0,0,0,24-24V152a24.1,24.1,0,0,0-24-24H40.4a87.8,87.8,0,0,1,88.3-80h.1a88,88,0,0,1,88.3,80H193.5a24,24,0,0,0-24,24v40a24,24,0,0,0,24,24h16a24.1,24.1,0,0,0,24-24V136A103.5,103.5,0,0,0,202.7,62.2ZM64,144a8,8,0,0,1,8,8v40a8,8,0,0,1-8,8H48a8,8,0,0,1-8-8V144Zm153.5,48a8,8,0,0,1-8,8h-16a8,8,0,0,1-8-8V152a8,8,0,0,1,8-8h24Z"/></svg>