<svg xmlns="http://www.w3.org/2000/svg" viewBox="0 0 256 256"><g opacity="0.2"><path d="M128,216S28,160,28,92A52,52,0,0,1,128,72h0A52,52,0,0,1,228,92C228,160,128,216,128,216Z"/></g><path d="M78.7,132.4l9.3-14,25.3,38a8,8,0,0,0,13.4,0L140.3,136H160a8,8,0,0,0,0-16H136a7.9,7.9,0,0,0-6.7,3.6l-9.3,14-25.3-38a8,8,0,0,0-13.4,0L67.7,120H32a8,8,0,0,0,0,16H72A7.9,7.9,0,0,0,78.7,132.4Z"/><path d="M176,32a60,60,0,0,0-48,24A60,60,0,0,0,20,92c0,1.5,0,3,.1,4.4a8.1,8.1,0,0,0,8.5,7.6,8,8,0,0,0,7.5-8.5C36,94.4,36,93.2,36,92a44,44,0,0,1,84.6-17,8,8,0,0,0,14.8,0A44,44,0,0,1,220,92c0,55.2-74,103.7-92,114.7-10.6-6.4-40.5-25.8-63.3-52a8,8,0,0,0-12.1,10.6c30,34.2,69.8,56.7,71.5,57.7a8.1,8.1,0,0,0,7.8,0,314.3,314.3,0,0,0,51.5-37.6C218.3,154,236,122.6,236,92A60,60,0,0,0,176,32Z"/></svg>