<svg id="Flat" xmlns="http://www.w3.org/2000/svg" viewBox="0 0 256 256">
  <g opacity="0.2">
    <path d="M128.0293,216s-100-56-100-124A52.00881,52.00881,0,0,1,128.02938,71.965l-.0002.00008A52.00882,52.00882,0,0,1,228.0293,92C228.0293,160,128.0293,216,128.0293,216Z"/>
  </g>
  <path d="M128.0293,224a7.99773,7.99773,0,0,1-3.90918-1.0199C119.87012,220.6,20.0293,163.86267,20.0293,92a60.02038,60.02038,0,0,1,108-36.04071A60.02038,60.02038,0,0,1,236.0293,92c0,30.56506-17.71387,62.005-52.64844,93.44641a317.36671,317.36671,0,0,1-51.44238,37.53369A7.99779,7.99779,0,0,1,128.0293,224Zm-3.90918-14.9801v0ZM80.0293,48a44.04982,44.04982,0,0,0-44,44c0,55.24493,73.98047,103.71875,91.99707,114.70068C146.03711,195.70569,220.0293,147.16217,220.0293,92a44.00852,44.00852,0,0,0-84.61817-16.95044,8.00055,8.00055,0,0,1-14.76367,0A43.91232,43.91232,0,0,0,80.0293,48Z"/>
</svg>
