<svg id="Flat" xmlns="http://www.w3.org/2000/svg" viewBox="0 0 256 256">
  <g opacity="0.2">
    <path d="M128,216S28,160,28,92A52.00881,52.00881,0,0,1,128.00008,71.965l-.00019.00008A52.00881,52.00881,0,0,1,228,92C228,160,128,216,128,216Z"/>
  </g>
  <g>
    <path d="M78.65625,132.4375,88,118.42236l25.34375,38.01514a7.99959,7.99959,0,0,0,13.3125,0L140.28125,136H160a8,8,0,0,0,0-16H136a7.99943,7.99943,0,0,0-6.65625,3.5625L120,137.57764,94.65625,99.5625a7.99959,7.99959,0,0,0-13.3125,0L67.71875,120H32a8,8,0,0,0,0,16H72A7.99943,7.99943,0,0,0,78.65625,132.4375Z"/>
    <path d="M176,32a59.85506,59.85506,0,0,0-48,23.95947A60.02029,60.02029,0,0,0,20,92c0,1.47266.043,2.96973.127,4.44922a8.0003,8.0003,0,0,0,15.97461-.91162C36.03418,94.36035,36,93.16992,36,92a44.00875,44.00875,0,0,1,84.61865-16.9502,8.00013,8.00013,0,0,0,14.7627,0A44.00875,44.00875,0,0,1,220,92c0,55.166-74.001,103.71143-92.00342,114.70068-10.58008-6.44726-40.47021-25.82959-63.31592-51.96484a8,8,0,0,0-12.04638,10.53027c29.9624,34.27588,69.77685,56.773,71.45654,57.71387a8.00089,8.00089,0,0,0,7.81836,0,317.31654,317.31654,0,0,0,51.44238-37.53369C218.28662,154.00488,236,122.56494,236,92A60.06812,60.06812,0,0,0,176,32Z"/>
  </g>
</svg>
