<svg xmlns="http://www.w3.org/2000/svg" viewBox="0 0 256 256"><path d="M214.7,130.9l-81,81a8.1,8.1,0,0,1-11.4,0L39.2,128.8a52,52,0,0,1,2.1-75.5c20.9-18.8,53.6-15.9,73.6,4L128,70.5l15.2-15.3a52,52,0,0,1,75.5,2.1C237.5,78.2,234.6,110.9,214.7,130.9Z" opacity="0.2"/><path d="M224.6,51.9a59.9,59.9,0,0,0-87-2.3L128,59.1l-7.5-7.4A64.3,64.3,0,0,0,79,32.8,57.7,57.7,0,0,0,35.9,47.4a59.9,59.9,0,0,0-2.3,87l83.1,83.1a15.9,15.9,0,0,0,22.6,0l81-81A64.3,64.3,0,0,0,239.2,95,57.7,57.7,0,0,0,224.6,51.9ZM209,125.2l-81,81L44.9,123.1a44,44,0,0,1,1.7-63.9A42.5,42.5,0,0,1,75,48.7,48.4,48.4,0,0,1,109.2,63l7.7,7.7L106.1,82.6a8.1,8.1,0,0,0,.2,11.1L132.7,120l-10.4,10.3a8.1,8.1,0,0,0,0,11.4,8.2,8.2,0,0,0,11.4,0l16-16a8.1,8.1,0,0,0,0-11.4L123.1,87.7l25.8-26.8a44,44,0,0,1,63.9,1.7C228.1,79.7,226.5,107.8,209,125.2Z"/></svg>