<svg id="Flat" xmlns="http://www.w3.org/2000/svg" viewBox="0 0 256 256">
  <g opacity="0.2">
    <path d="M220,175.33228V80.66772a8,8,0,0,0-4.06354-6.9645l-84-47.47826a8,8,0,0,0-7.87292,0l-84,47.47826A8,8,0,0,0,36,80.66772v94.66456a8,8,0,0,0,4.06354,6.96451l84,47.47826a8,8,0,0,0,7.87292,0l84-47.47826A8,8,0,0,0,220,175.33228Z"/>
  </g>
  <path d="M128,238.7981a16.005,16.005,0,0,1-7.8728-2.05835L36.127,189.26147A16.02585,16.02585,0,0,1,28,175.33228V80.66772a16.02545,16.02545,0,0,1,8.12671-13.92895L120.127,19.26025a16.08606,16.08606,0,0,1,15.74585,0l84.00025,47.47828A16.02585,16.02585,0,0,1,228,80.66772v94.66456a16.02545,16.02545,0,0,1-8.12671,13.929l-84.00024,47.47852A16.00657,16.00657,0,0,1,128,238.7981Zm0-205.60865L44,80.66772v94.66456l84,47.47827,84-47.47827V80.66772Z"/>
</svg>
