<svg xmlns="http://www.w3.org/2000/svg" viewBox="0 0 256 256"><g opacity="0.2"><path d="M220,175.3V80.7a8.1,8.1,0,0,0-4.1-7l-84-47.5a7.8,7.8,0,0,0-7.8,0l-84,47.5a8.1,8.1,0,0,0-4.1,7v94.6a8.1,8.1,0,0,0,4.1,7l84,47.5a7.8,7.8,0,0,0,7.8,0l84-47.5A8.1,8.1,0,0,0,220,175.3Z"/></g><path d="M128,238.8a16.1,16.1,0,0,1-7.9-2.1l-84-47.4a16.2,16.2,0,0,1-8.1-14V80.7a16.2,16.2,0,0,1,8.1-14l84-47.4a15.9,15.9,0,0,1,15.8,0l84,47.4a16.2,16.2,0,0,1,8.1,14v94.6a16.2,16.2,0,0,1-8.1,14l-84,47.4A16.1,16.1,0,0,1,128,238.8Zm0-205.6L44,80.7v94.6l84,47.5,84-47.5V80.7Z"/></svg>