<svg xmlns="http://www.w3.org/2000/svg" viewBox="0 0 256 256"><g opacity="0.2"><path d="M195.9,60.1A96,96,0,1,0,88,215.3V152a8,8,0,0,1,8-8h8V96l48-24v72h8a8,8,0,0,1,8,8v63.3A96,96,0,0,0,195.9,60.1Z"/></g><path d="M201.5,54.5a103.8,103.8,0,0,0-147,0,103.8,103.8,0,0,0,0,147,103.8,103.8,0,0,0,147,0,103.8,103.8,0,0,0,0-147ZM96,210V152h64v58a88.3,88.3,0,0,1-64,0Zm48-74H112V100.9l32-16Zm46.2,54.2A86.8,86.8,0,0,1,176,201.8V152a16,16,0,0,0-16-16V72a7.9,7.9,0,0,0-3.8-6.8,8,8,0,0,0-7.8-.4l-48,24A8.2,8.2,0,0,0,96,96v40a16,16,0,0,0-16,16v49.8A88.7,88.7,0,0,1,40,128a88,88,0,1,1,150.2,62.2Z"/></svg>