<svg xmlns="http://www.w3.org/2000/svg" viewBox="0 0 256 256"><g opacity="0.2"><path d="M92.8,217.3a95.2,95.2,0,0,0,37.1,6.7c51.5-1,93.4-43.1,94.1-94.6A96,96,0,0,0,128,32h-8V64L16,128l13.8,19.1a23.9,23.9,0,0,0,23.5,9.6c17.5-2.9,48.1-4.7,74.7,11.3h0Z"/></g><circle cx="124" cy="100" r="12"/><path d="M202.1,55A103.2,103.2,0,0,0,128,24h-8a8,8,0,0,0-8,8V59.5L11.8,121.2a8,8,0,0,0-3.6,5.2,7.8,7.8,0,0,0,1.3,6.3l13.8,19.1a31.6,31.6,0,0,0,31.3,12.8c13.7-2.3,38.6-4.2,61.6,6.2L90,207.4a91.1,91.1,0,0,1-20.7-13.8,8,8,0,0,0-11.3.6,8,8,0,0,0,.7,11.3A103.5,103.5,0,0,0,128,232h2.1a104,104,0,0,0,72-177ZM190.3,190a87.6,87.6,0,0,1-60.5,26,88.7,88.7,0,0,1-24.2-2.9l26.6-37.3A56.1,56.1,0,0,0,184,120a8,8,0,0,0-16,0,39.9,39.9,0,0,1-38,39.9c-28.7-16.2-61.1-13.9-78-11.1a15.8,15.8,0,0,1-15.7-6.4l-8.8-12.1,96.7-59.5A7.8,7.8,0,0,0,128,64V40a87.9,87.9,0,0,1,62.3,150Z"/></svg>