<svg id="Flat" xmlns="http://www.w3.org/2000/svg" viewBox="0 0 256 256">
  <g opacity="0.2">
    <path d="M92.76616,217.32808a95.841,95.841,0,0,0,37.17657,6.65271c51.479-1.01726,93.33139-43.12958,94.04775-94.61366A96.00033,96.00033,0,0,0,128,32h-8V64L16,128l13.78709,19.11608a24.02393,24.02393,0,0,0,23.51449,9.61538c17.46763-2.95714,48.06093-4.71406,74.69861,11.26833L128,168Z"/>
  </g>
  <g>
    <circle cx="123.99976" cy="100" r="12"/>
    <path d="M202.05273,54.97754A103.25474,103.25474,0,0,0,128,24h-8a8.00008,8.00008,0,0,0-8,8V59.52979L11.80762,121.18652a8.00037,8.00037,0,0,0-2.2959,11.49317L23.29883,151.7959a31.83519,31.83519,0,0,0,31.33789,12.82324c13.65039-2.31055,38.5918-4.23193,61.52441,6.19092L90.02246,207.40479a87.94423,87.94423,0,0,1-20.68652-13.81055,8.00031,8.00031,0,0,0-10.67188,11.92187A103.66141,103.66141,0,0,0,128.0127,232q1.043,0,2.08789-.02051A104.0011,104.0011,0,0,0,202.05273,54.97754ZM190.3291,189.95947a87.45032,87.45032,0,0,1-60.54492,26.02295,88.44033,88.44033,0,0,1-24.18066-2.86426l26.63964-37.29541A56.06189,56.06189,0,0,0,184,120a8,8,0,0,0-16,0,40.05079,40.05079,0,0,1-37.95117,39.94824c-28.751-16.24023-61.11182-13.977-78.082-11.10449a15.936,15.936,0,0,1-15.69141-6.40723l-8.752-12.13476,96.66894-59.48828A8,8,0,0,0,128,64V40a87.884,87.884,0,0,1,62.3291,149.95947Z"/>
  </g>
</svg>
