<svg id="Flat" xmlns="http://www.w3.org/2000/svg" viewBox="0 0 256 256">
  <g opacity="0.2">
    <path d="M168,168H88L53.65685,202.34315A8,8,0,0,0,59.31371,216H196.68629a8,8,0,0,0,5.65686-13.65685Z"/>
  </g>
  <path d="M139.31543,127.99854,208,59.31348A15.9999,15.9999,0,0,0,196.68652,32H59.31348A15.9999,15.9999,0,0,0,48,59.31348l68.68457,68.688L48,196.68652A15.9999,15.9999,0,0,0,59.31348,224h137.373A15.9999,15.9999,0,0,0,208,196.68652ZM59.32031,48l137.36133.00488L128.002,116.68457Zm68.67774,91.31543L148.68164,160H107.31348ZM59.31836,207.99512,91.31348,176h73.36718l31.999,32Z"/>
</svg>
