<svg id="Flat" xmlns="http://www.w3.org/2000/svg" viewBox="0 0 256 256">
  <g opacity="0.2">
    <path d="M64,180v36a8,8,0,0,0,8,8H184a8,8,0,0,0,8-8V180.3588Z"/>
  </g>
  <path d="M200,75.64111V40a16.01833,16.01833,0,0,0-16-16H72A16.01833,16.01833,0,0,0,56,40V76a16.07589,16.07589,0,0,0,6.3999,12.7998L114.667,128l-52.2666,39.2002a16.06263,16.06263,0,0,0-6.34668,11.895A8.09716,8.09716,0,0,0,56,179.97754l.00049.01245L56,180v36a16.01833,16.01833,0,0,0,16,16H184a16.01833,16.01833,0,0,0,16-16V180.35889c0-.03125-.00537-.062-.00537-.09351-.00342-.26684-.01807-.53076-.04688-.79077a16.06976,16.06976,0,0,0-6.2998-11.8794L141.2666,128l52.38184-39.595A16.08467,16.08467,0,0,0,200,75.64111Zm-26.65283,96.66553-90.75-.25464,45.38428-34.03784ZM72,216V188.02246l112,.314V216ZM184,75.64136l-56.01855,42.34448L72,76V40H184Z"/>
</svg>
