<svg id="Flat" xmlns="http://www.w3.org/2000/svg" viewBox="0 0 256 256">
  <g opacity="0.2">
    <path d="M59.31371,40H196.68629a8,8,0,0,1,5.65686,13.65685L53.65685,202.34315A8,8,0,0,0,59.31371,216H196.68629a8,8,0,0,0,5.65686-13.65685L53.65685,53.65685A8,8,0,0,1,59.31371,40Z"/>
  </g>
  <path d="M139.31543,127.99854,208,59.31348A15.9999,15.9999,0,0,0,196.68652,32H59.31348A15.9999,15.9999,0,0,0,48,59.31348l68.68457,68.688L48,196.68652A15.9999,15.9999,0,0,0,59.31348,224h137.373A15.9999,15.9999,0,0,0,208,196.68652ZM59.32031,48l137.36133.00488L128.002,116.68457Zm-.002,159.99512,68.67969-68.67969L196.67969,208Z"/>
</svg>
