<svg id="Flat" xmlns="http://www.w3.org/2000/svg" viewBox="0 0 256 256">
  <g opacity="0.2">
    <path d="M151.99414,207.99263v-48.001a8,8,0,0,0-8-8h-32a8,8,0,0,0-8,8v48.001a8,8,0,0,1-7.999,8l-47.99414.00632a8,8,0,0,1-8.001-8v-92.4604a8,8,0,0,1,2.61811-5.91906l79.9945-72.73477a8,8,0,0,1,10.76339-.00036l80.0055,72.73509A8,8,0,0,1,216,115.53887V207.999a8,8,0,0,1-8.001,8l-48.00586-.00632A8,8,0,0,1,151.99414,207.99263Z"/>
  </g>
  <path d="M208,223.999h-.00195l-48.00586-.00634a16.01856,16.01856,0,0,1-15.99805-16v-48.001h-32v48.001a16.01856,16.01856,0,0,1-15.99805,16L48.002,223.999A15.99994,15.99994,0,0,1,32,207.999V115.53857a16.03108,16.03108,0,0,1,5.2373-11.83886l79.99317-72.73389a15.93657,15.93657,0,0,1,21.52637-.00146l80.00683,72.73584A16.03567,16.03567,0,0,1,224,115.53906v92.46a15.99994,15.99994,0,0,1-16,16ZM111.99414,143.9917h32a16.01833,16.01833,0,0,1,16,16v48.01123L208,207.999v-92.46L127.99414,42.80371,48,115.53857V207.999l47.99414-.00634v-48.001A16.01833,16.01833,0,0,1,111.99414,143.9917Z"/>
</svg>
