<svg id="Flat" xmlns="http://www.w3.org/2000/svg" viewBox="0 0 256 256">
  <g opacity="0.2">
    <path d="M213.3815,109.61945,133.376,36.88436a8,8,0,0,0-10.76339.00036l-79.9945,72.73477A8,8,0,0,0,40,115.53855V208a8,8,0,0,0,8,8H208a8,8,0,0,0,8-8V115.53887A8,8,0,0,0,213.3815,109.61945Z"/>
  </g>
  <path d="M208,224H48a16.01817,16.01817,0,0,1-16-16V115.53857A16.034,16.034,0,0,1,37.23633,103.7l79.99414-72.73413a15.93606,15.93606,0,0,1,21.52637-.00122L218.76367,103.7l.001.00147A16.03438,16.03438,0,0,1,224,115.53882V208A16.01817,16.01817,0,0,1,208,224ZM127.99414,42.80371,48,115.53833V208H208V115.53882Z"/>
</svg>
