<svg xmlns="http://www.w3.org/2000/svg" viewBox="0 0 256 256"><g opacity="0.2"><path d="M152,208V160a8,8,0,0,0-8-8H112a8,8,0,0,0-8,8v48a8,8,0,0,1-8,8H48a8,8,0,0,1-8-8V115.5a8.3,8.3,0,0,1,2.6-5.9l80-72.7a8,8,0,0,1,10.8,0l80,72.7a7.9,7.9,0,0,1,2.6,5.9V208a8,8,0,0,1-8,8H160A8,8,0,0,1,152,208Z"/></g><path d="M208,224H160a16,16,0,0,1-16-16V160H112v48a16,16,0,0,1-16,16H48a16,16,0,0,1-16-16V115.5a16,16,0,0,1,5.2-11.8l80-72.7a16,16,0,0,1,21.6,0l80,72.7a16,16,0,0,1,5.2,11.8V208a16,16,0,0,1-16,16Zm-96-80h32a16,16,0,0,1,16,16v48h48V115.5L128,42.8,48,115.5V208H96V160A16,16,0,0,1,112,144Z"/></svg>