<svg xmlns="http://www.w3.org/2000/svg" viewBox="0 0 256 256"><g opacity="0.2"><path d="M216,48H40a8,8,0,0,0-8,8V200a8,8,0,0,0,8,8H216a8,8,0,0,0,8-8V56A8,8,0,0,0,216,48ZM92.1,144a24,24,0,1,1,24-24A23.9,23.9,0,0,1,92.1,144Z"/></g><path d="M192,104H152a8,8,0,0,0,0,16h40a8,8,0,0,0,0-16Z"/><path d="M192,136H152a8,8,0,0,0,0,16h40a8,8,0,0,0,0-16Z"/><path d="M114.5,142.8a32,32,0,1,0-44.8,0A40.2,40.2,0,0,0,53.4,166a7.9,7.9,0,0,0,5.7,9.7l2,.3a8.1,8.1,0,0,0,7.8-6,24,24,0,0,1,46.4,0,8,8,0,0,0,9.8,5.7,7.9,7.9,0,0,0,5.7-9.7A40.2,40.2,0,0,0,114.5,142.8ZM76.1,120a16,16,0,1,1,16,16A16,16,0,0,1,76.1,120Z"/><path d="M216,40H40A16,16,0,0,0,24,56V200a16,16,0,0,0,16,16H216a16,16,0,0,0,16-16V56A16,16,0,0,0,216,40Zm0,160H40V56H216V200Z"/></svg>