<svg id="Flat" xmlns="http://www.w3.org/2000/svg" viewBox="0 0 256 256">
  <g opacity="0.2">
    <path d="M32,167.99982l50.343-50.343a8,8,0,0,1,11.31371,0l44.68629,44.6863a8,8,0,0,0,11.31371,0l20.68629-20.6863a8,8,0,0,1,11.31371,0L223.99982,184,224,56a8,8,0,0,0-8-8H40a8,8,0,0,0-8,8Z"/>
  </g>
  <path d="M231.99951,183.99451V56.00012a16.01833,16.01833,0,0,0-16-16h-176a16.01834,16.01834,0,0,0-16,16V199.99963a16.01833,16.01833,0,0,0,16,16h176a16.01833,16.01833,0,0,0,16-16V183.99451Zm-16-127.99439.0083,108.6933L187.314,136.00012a16.019,16.019,0,0,0-22.62792,0l-20.68555,20.68652L99.314,112.00012a16.019,16.019,0,0,0-22.62792,0L39.99951,148.68561V56.00012Zm0,143.99951h-176V171.31409l48-48.00049,44.68653,44.687a16.0024,16.0024,0,0,0,22.62792,0l20.68555-20.687,40.00977,40.01025.001,12.67578ZM147.51416,108.485a12.00018,12.00018,0,1,1,20.48633-8.48486v.00342a12.00044,12.00044,0,0,1-20.48633,8.48144Z"/>
</svg>
