<svg xmlns="http://www.w3.org/2000/svg" viewBox="0 0 256 256"><g opacity="0.2"><path d="M40,176V48a8,8,0,0,1,8-8H208a8,8,0,0,1,8,8V160h0l-42.3-42.3a8,8,0,0,0-11.4,0l-44.6,44.6a8,8,0,0,1-11.4,0L85.7,141.7a8,8,0,0,0-11.4,0Z"/></g><path d="M88,92a12,12,0,1,1,12,12A12,12,0,0,1,88,92ZM224,48V208a16,16,0,0,1-16,16H48a16,16,0,0,1-16-16V176h0V48A16,16,0,0,1,48,32H208A16,16,0,0,1,224,48ZM48,156.7,68.7,136a16.1,16.1,0,0,1,22.6,0L112,156.7,156.7,112a16.1,16.1,0,0,1,22.6,0L208,140.7V48H48ZM208,208V163.3l-40-40L123.3,168a16.1,16.1,0,0,1-22.6,0L80,147.3l-32,32V208Z"/></svg>