<svg id="Flat" xmlns="http://www.w3.org/2000/svg" viewBox="0 0 256 256">
  <g opacity="0.2">
    <path d="M40,176V48a8,8,0,0,1,8-8H208a8,8,0,0,1,8,8V160l-.00018-.00018-42.343-42.343a8,8,0,0,0-11.3137,0l-44.6863,44.6863a8,8,0,0,1-11.3137,0l-20.6863-20.6863a8,8,0,0,0-11.3137,0Z"/>
  </g>
  <path d="M87.99951,92a12,12,0,1,1,12,12A12,12,0,0,1,87.99951,92Zm136.001-44.00037v160a16.01833,16.01833,0,0,1-16,16h-160a16.01833,16.01833,0,0,1-16-16v-160a16.01833,16.01833,0,0,1,16-16h160A16.01834,16.01834,0,0,1,224.00049,47.99963Zm-176,108.68494L68.686,135.99963a16.02161,16.02161,0,0,1,22.62792,0l20.68653,20.68653L156.686,111.99963a16.019,16.019,0,0,1,22.62792,0l28.69239,28.6922-.00586-92.6922h-160Zm160.00976,51.31506-.00293-44.67755-40.00781-40.008L123.314,168.00061a16.019,16.019,0,0,1-22.62792,0L79.99951,147.31409l-31.999,31.999v28.68652H208.01025Z"/>
</svg>
