<svg xmlns="http://www.w3.org/2000/svg" viewBox="0 0 256 256"><g opacity="0.2"><path d="M32,168l50.3-50.3a8,8,0,0,1,11.4,0l44.6,44.6a8,8,0,0,0,11.4,0l20.6-20.6a8,8,0,0,1,11.4,0L224,184V56a8,8,0,0,0-8-8H40a8,8,0,0,0-8,8Z"/></g><path d="M232,184V56a16,16,0,0,0-16-16H40A16,16,0,0,0,24,56V168h0v32a16,16,0,0,0,16,16H216a16,16,0,0,0,16-16V184ZM216,56V164.7L187.3,136a16.1,16.1,0,0,0-22.6,0L144,156.7,99.3,112a16.1,16.1,0,0,0-22.6,0L40,148.7V56Zm0,144H40V171.3l48-48L132.7,168a15.9,15.9,0,0,0,22.6,0L176,147.3l40,40V200Zm-68.5-91.5A11.9,11.9,0,0,1,144,100a12,12,0,0,1,24,0h0a12,12,0,0,1-12,12A12.3,12.3,0,0,1,147.5,108.5Z"/></svg>