<svg id="Flat" xmlns="http://www.w3.org/2000/svg" viewBox="0 0 256 256">
  <g opacity="0.2">
    <path d="M40,176V48a8,8,0,0,1,8-8H208a8,8,0,0,1,8,8V160l-.00018-.00018-42.343-42.343a8,8,0,0,0-11.3137,0l-44.6863,44.6863a8,8,0,0,1-11.3137,0l-20.6863-20.6863a8,8,0,0,0-11.3137,0Z"/>
  </g>
  <g>
    <circle cx="99.99951" cy="92" r="12"/>
    <path d="M208.00049,31.99963h-160a16.01833,16.01833,0,0,0-16,16v160a16.01833,16.01833,0,0,0,16,16h160a16.01833,16.01833,0,0,0,16-16v-160A16.01834,16.01834,0,0,0,208.00049,31.99963Zm0,16,.00586,92.6922L179.314,111.99963a16.019,16.019,0,0,0-22.62792,0l-44.68555,44.68653L91.314,135.99963a16.02161,16.02161,0,0,0-22.62792,0L48.00049,156.68457V47.99963Zm0,160h-160V179.31311l31.999-31.999L100.686,168.00061a16.019,16.019,0,0,0,22.62792,0l44.68555-44.68652,40.00781,40.008.00293,44.67755Z"/>
  </g>
</svg>
