<svg id="Flat" xmlns="http://www.w3.org/2000/svg" viewBox="0 0 256 256">
  <path d="M224.00244,128a96,96,0,1,1-96-96A95.99983,95.99983,0,0,1,224.00244,128Z" opacity="0.2"/>
  <path d="M128.002,23.99963a104,104,0,1,0,104,104A104.11791,104.11791,0,0,0,128.002,23.99963Zm0,192a88,88,0,1,1,88-88A88.09957,88.09957,0,0,1,128.002,215.99963Zm16-40a8.00039,8.00039,0,0,1-8,8h-8a8.00039,8.00039,0,0,1-8-8v-48a8,8,0,0,1,0-16h8a8.00039,8.00039,0,0,1,8,8v48A8.00039,8.00039,0,0,1,144.002,175.99963ZM114.00244,84a12,12,0,1,1,12,12A12,12,0,0,1,114.00244,84Z"/>
</svg>
