<svg id="Flat" xmlns="http://www.w3.org/2000/svg" viewBox="0 0 256 256">
  <g opacity="0.2">
    <path d="M172,36H84A47.99987,47.99987,0,0,0,36,84v88a47.99988,47.99988,0,0,0,48,48h88a47.99988,47.99988,0,0,0,48-48V84A47.99987,47.99987,0,0,0,172,36ZM128,168a40,40,0,1,1,40-40A40.0001,40.0001,0,0,1,128,168Z"/>
  </g>
  <g>
    <path d="M128,80a48,48,0,1,0,48,48A48.05436,48.05436,0,0,0,128,80Zm0,80a32,32,0,1,1,32-32A32.03667,32.03667,0,0,1,128,160Z"/>
    <path d="M172,28H84A56.06353,56.06353,0,0,0,28,84v88a56.06353,56.06353,0,0,0,56,56h88a56.06353,56.06353,0,0,0,56-56V84A56.06353,56.06353,0,0,0,172,28Zm40,144a40.04521,40.04521,0,0,1-40,40H84a40.04521,40.04521,0,0,1-40-40V84A40.04521,40.04521,0,0,1,84,44h88a40.04521,40.04521,0,0,1,40,40Z"/>
    <circle cx="180" cy="76" r="12"/>
  </g>
</svg>
