<svg xmlns="http://www.w3.org/2000/svg" viewBox="0 0 256 256"><g opacity="0.2"><path d="M172,36H84A48,48,0,0,0,36,84v88a48,48,0,0,0,48,48h88a48,48,0,0,0,48-48V84A48,48,0,0,0,172,36ZM128,168a40,40,0,1,1,40-40A40,40,0,0,1,128,168Z"/></g><path d="M128,80a48,48,0,1,0,48,48A48,48,0,0,0,128,80Zm0,80a32,32,0,1,1,32-32A32.1,32.1,0,0,1,128,160Z"/><path d="M172,28H84A56,56,0,0,0,28,84v88a56,56,0,0,0,56,56h88a56,56,0,0,0,56-56V84A56,56,0,0,0,172,28Zm40,144a40,40,0,0,1-40,40H84a40,40,0,0,1-40-40V84A40,40,0,0,1,84,44h88a40,40,0,0,1,40,40Z"/><circle cx="180" cy="76" r="12"/></svg>