<svg id="Flat" xmlns="http://www.w3.org/2000/svg" viewBox="0 0 256 256">
  <g opacity="0.2">
    <path d="M220,176v32a8,8,0,0,1-8,8H188a8,8,0,0,1-8-8V176Z"/>
  </g>
  <g opacity="0.2">
    <path d="M76,176v32a8,8,0,0,1-8,8H44a8,8,0,0,1-8-8V176Z"/>
  </g>
  <g opacity="0.2">
    <path d="M36,96.00005l7.01877-49.13142A8,8,0,0,1,50.93836,40H205.06164a8,8,0,0,1,7.91959,6.86863L220,96.00005Z"/>
  </g>
  <g>
    <path d="M240,88H226.93848l-6.03809-42.26465A16.07879,16.07879,0,0,0,205.06152,32H50.93848A16.08053,16.08053,0,0,0,35.09863,45.7373L29.06128,88H16a8,8,0,0,0,0,16H28V208a16.01833,16.01833,0,0,0,16,16H68a16.01833,16.01833,0,0,0,16-16V184h88v24a16.01833,16.01833,0,0,0,16,16h24a16.01833,16.01833,0,0,0,16-16V104h12a8,8,0,0,0,0-16ZM50.93848,48l154.123-.001L210.77588,88H45.22412ZM68,208H44V184H68Zm120,0V184h24v24Zm24-40H152V128a8,8,0,0,0-16,0v40H120V128a8,8,0,0,0-16,0v40H44V104H212Z"/>
    <circle cx="72" cy="132" r="12"/>
    <circle cx="184" cy="132" r="12"/>
  </g>
</svg>
