<svg xmlns="http://www.w3.org/2000/svg" viewBox="0 0 256 256"><g opacity="0.2"><path d="M93.2,122.8A70.3,70.3,0,0,1,88,96a72,72,0,1,1,72,72,70.3,70.3,0,0,1-26.8-5.2h0L120,176H96v24H72v24H32V184l61.2-61.2Z"/></g><circle cx="180" cy="76" r="12"/><path d="M160,16A80.1,80.1,0,0,0,83.9,120.8L26.3,178.3A8.1,8.1,0,0,0,24,184v40a8,8,0,0,0,8,8H72a8,8,0,0,0,8-8V208H96a8,8,0,0,0,8-8V184h16a8.1,8.1,0,0,0,5.7-2.3l9.5-9.6A80,80,0,1,0,160,16Zm0,144a64,64,0,0,1-23.7-4.5,7.9,7.9,0,0,0-8.8,1.7L116.7,168H96a8,8,0,0,0-8,8v16H72a8,8,0,0,0-8,8v16H40V187.3l58.8-58.8a7.9,7.9,0,0,0,1.7-8.8A64,64,0,1,1,160,160Z"/></svg>