<svg id="Flat" xmlns="http://www.w3.org/2000/svg" viewBox="0 0 256 256">
  <g opacity="0.2">
    <path d="M93.16866,122.8328a71.93648,71.93648,0,1,1,40.0009,40.001l.00062-.00149L120.00244,176h-24v24h-24v24h-40V184l61.168-61.168Z"/>
  </g>
  <g>
    <circle cx="180" cy="76" r="12"/>
    <path d="M160.00244,16A80.05817,80.05817,0,0,0,83.91357,120.77539L26.34521,178.34277A8.00235,8.00235,0,0,0,24.00244,184v40a8.00039,8.00039,0,0,0,8,8h40a8.00039,8.00039,0,0,0,8-8V208h16a8.00039,8.00039,0,0,0,8-8V184h16a8.00235,8.00235,0,0,0,5.65723-2.34277l9.56738-9.56836A80.00922,80.00922,0,1,0,160.00244,16Zm0,144a63.689,63.689,0,0,1-23.65234-4.50977,8.00455,8.00455,0,0,0-8.83692,1.68457L116.689,168H96.00244a8.00039,8.00039,0,0,0-8,8v16h-16a8.00039,8.00039,0,0,0-8,8v16h-24V187.31348l58.8252-58.82422a8.00392,8.00392,0,0,0,1.68554-8.83594A64.01228,64.01228,0,1,1,160.00244,160Z"/>
  </g>
</svg>
