<svg xmlns="http://www.w3.org/2000/svg" viewBox="0 0 256 256"><g opacity="0.2"><rect x="24" y="56" width="208" height="144" rx="8.5"/></g><path d="M223.5,47.5H32.5a17,17,0,0,0-17,17v127a17,17,0,0,0,17,17h191a17,17,0,0,0,17-17V64.5A17,17,0,0,0,223.5,47.5Zm0,144H32.5V64.5h191v127Z"/><path d="M200,120H56a8,8,0,0,0,0,16H200a8,8,0,0,0,0-16Z"/><path d="M200,88H56a8,8,0,0,0,0,16H200a8,8,0,0,0,0-16Z"/><path d="M64,152H56a8,8,0,0,0,0,16h8a8,8,0,0,0,0-16Z"/><path d="M160,152H96a8,8,0,0,0,0,16h64a8,8,0,0,0,0-16Z"/><path d="M200,152h-8a8,8,0,0,0,0,16h8a8,8,0,0,0,0-16Z"/></svg>