<svg xmlns="http://www.w3.org/2000/svg" viewBox="0 0 256 256"><path d="M155.2,164.8a8,8,0,0,1-7.3,11.2H108.1a8,8,0,0,1-7.3-11.2l13.8-32.2a28.1,28.1,0,1,1,26.8,0Z" opacity="0.2"/><path d="M128,24A104,104,0,1,0,232,128,104.2,104.2,0,0,0,128,24Zm0,192a88,88,0,1,1,88-88A88.1,88.1,0,0,1,128,216Zm35.8-111.8A36,36,0,0,0,92,108a35.7,35.7,0,0,0,12.7,27.4L93.4,161.7A16.1,16.1,0,0,0,108.1,184h39.8a16.1,16.1,0,0,0,14.7-22.3l-11.3-26.3A35.9,35.9,0,0,0,163.8,104.2ZM134,135.7,147.9,168H108.1L122,135.7a7.9,7.9,0,0,0-3.6-10.1A20.1,20.1,0,0,1,108,108a20.1,20.1,0,0,1,20-20h2.3a20.1,20.1,0,0,1,7.3,37.5A7.9,7.9,0,0,0,134,135.7Z"/></svg>