<svg id="Flat" xmlns="http://www.w3.org/2000/svg" viewBox="0 0 256 256">
  <path d="M226.14209,66.14209l-50.36646,53.64545L146.49072,90.49072l51.36719-52.63287a20,20,0,0,1,28.28418,28.28424Z" opacity="0.2"/>
  <path d="M231.79883,32.2002a28.05536,28.05536,0,0,0-39.667.06933L18.27441,210.41211a8,8,0,0,0,3.92676,13.38281,155.06019,155.06019,0,0,0,34.957,4.00293c33.4209-.001,66.877-10.86914,98.32813-32.1748,31.74512-21.50391,50.14551-45.79981,50.91406-46.82325a8.00114,8.00114,0,0,0-.74316-10.457L186.919,119.60547l44.97753-47.90332A28.03445,28.03445,0,0,0,231.79883,32.2002ZM189.207,144.52148a225.51045,225.51045,0,0,1-43.10351,38.13184c-34.47071,23.23145-70,32.665-105.83887,28.13477l106.29492-108.915,23.30176,23.30175q.208.22852.43847.44434l.082.07617Zm31.27832-84.03515c-.05957.05859-.11719.11914-.1748.18066l-44.71094,47.61914L157.73535,90.42187l45.77832-46.90722a12.00079,12.00079,0,1,1,16.97168,16.97168Z"/>
</svg>
