<svg id="Flat" xmlns="http://www.w3.org/2000/svg" viewBox="0 0 256 256">
  <path d="M227.86768,152H28.13232a8,8,0,0,1-7.35315-11.15137l41.14283-96A8.00018,8.00018,0,0,1,69.27521,40H186.72485a8.0001,8.0001,0,0,1,7.35315,4.84863l41.14289,96A8.00007,8.00007,0,0,1,227.86768,152Z" opacity="0.2"/>
  <path d="M242.57373,137.69727l-41.14258-96A15.98283,15.98283,0,0,0,186.72461,32H69.27539a15.98283,15.98283,0,0,0-14.70654,9.69727l-41.14258,96A15.99943,15.99943,0,0,0,28.13232,160H120v48H96a8,8,0,0,0,0,16h64a8,8,0,0,0,0-16H136V160h56v32a8,8,0,0,0,16,0V160h19.86768a15.99943,15.99943,0,0,0,14.70605-22.30273ZM28.13232,144,69.273,48H186.7251l41.14258,96Z"/>
</svg>
