<svg id="Flat" xmlns="http://www.w3.org/2000/svg" viewBox="0 0 256 256">
  <path d="M219.86768,152H36.13232a8,8,0,0,1-7.35315-11.15137l41.14283-96A8.00018,8.00018,0,0,1,77.27521,40H178.72485a8.0001,8.0001,0,0,1,7.35315,4.84863l41.14289,96A8.00007,8.00007,0,0,1,219.86768,152Z" opacity="0.2"/>
  <path d="M234.57373,137.69727l-41.14258-96A15.98206,15.98206,0,0,0,178.72461,32H77.27539a15.98206,15.98206,0,0,0-14.70654,9.69727l-41.14258,96A15.99993,15.99993,0,0,0,36.13232,160H120v48H96a8,8,0,0,0,0,16h64a8,8,0,0,0,0-16H136V160h48v24a8,8,0,0,0,16,0V160h19.86768a15.99993,15.99993,0,0,0,14.70605-22.30273ZM36.13232,144,77.273,48H178.7251l41.14258,96Z"/>
</svg>
