<svg id="Flat" xmlns="http://www.w3.org/2000/svg" viewBox="0 0 256 256">
  <g opacity="0.2">
    <path d="M46.783,209.217A128.08756,128.08756,0,0,1,209.217,46.783,128.08756,128.08756,0,0,1,46.783,209.217Z"/>
  </g>
  <path d="M216.791,44.2085A7.99794,7.99794,0,0,0,211.7915,39.209,135.76626,135.76626,0,0,0,168,32C93.00928,32,32,93.00928,32,168a135.92014,135.92014,0,0,0,5.684,39.00208L18.34326,226.34277a8.00018,8.00018,0,0,0,11.31348,11.31446L48.99811,218.3158A135.92617,135.92617,0,0,0,88,224c74.99072,0,136-61.00977,136-136A135.76626,135.76626,0,0,0,216.791,44.2085ZM88,208a120.39829,120.39829,0,0,1-25.88068-2.80548L165.65674,101.65674a7.99984,7.99984,0,0,0-11.31348-11.31348L50.8053,193.8808A120.09145,120.09145,0,0,1,202.8584,53.1416,120.09454,120.09454,0,0,1,88,208Z"/>
</svg>
