<svg id="Flat" xmlns="http://www.w3.org/2000/svg" viewBox="0 0 256 256">
  <g opacity="0.2">
    <path d="M64,192C16,112,80,32,216,40,224,176,144,240,64,192Z"/>
  </g>
  <path d="M223.98633,39.53027a8.00074,8.00074,0,0,0-7.5166-7.5166C140.15723,27.521,79.05371,50.53076,52.99756,93.55322A87.32048,87.32048,0,0,0,40.21191,142.687c.56855,15.95679,5.22315,32.06415,13.82392,47.96326l-19.69257,19.6925a8.00018,8.00018,0,0,0,11.31348,11.31446l19.69287-19.69294c15.89893,8.60053,32.00647,13.25525,47.96338,13.8238,1.11719.04,2.22705.05957,3.33545.05957a87.1861,87.1861,0,0,0,45.79834-12.84473C205.46924,176.94629,228.47461,115.83447,223.98633,39.53027ZM154.15771,189.31738c-22.82012,13.8216-49.82708,14.00519-76.93011.76886l88.42914-88.4295a7.99984,7.99984,0,0,0-11.31348-11.31348L65.9137,178.77246c-13.23542-27.10211-13.05225-54.10956.76941-76.93017C88.82568,65.28174,141.48047,45.252,208.35352,47.64648,210.74561,114.521,190.71582,167.17578,154.15771,189.31738Z"/>
</svg>
