<svg id="Flat" xmlns="http://www.w3.org/2000/svg" viewBox="0 0 256 256">
  <g opacity="0.2">
    <polygon points="96 239.969 112 159.969 48 135.969 160 15.969 144 95.969 208 119.969 96 239.969"/>
  </g>
  <path d="M53.91943,34.61475A7.99991,7.99991,0,1,0,42.08057,45.37744l39.24072,43.1648-39.16992,41.968a8.00053,8.00053,0,0,0,3.03955,12.94922l57.63037,21.61133-14.666,73.3291a7.99991,7.99991,0,0,0,13.69336,7.02735l61.85089-66.26892,38.381,42.21911a7.99991,7.99991,0,1,0,11.83886-10.76269Zm55.44873,179.30664,10.47657-52.38379a8.00052,8.00052,0,0,0-5.03565-9.05957L62.0127,132.67969l30.10784-32.2583,60.77979,66.85778Zm-.7207-142.93164a8.00023,8.00023,0,0,1-.39014-11.30713l45.894-49.17237a8.00018,8.00018,0,0,1,13.69336,7.02735l-14.666,73.3291L210.80908,112.478a7.99994,7.99994,0,0,1,3.03955,12.94922l-22.31494,23.90918a8.00011,8.00011,0,0,1-11.69726-10.917l14.15087-15.16162-52.79638-19.79834a8.00052,8.00052,0,0,1-5.03565-9.05957l10.47657-52.3833-26.67725,28.583A8.00073,8.00073,0,0,1,108.64746,70.98975Z"/>
</svg>
