<svg id="Flat" xmlns="http://www.w3.org/2000/svg" viewBox="0 0 256 256">
  <path d="M208.00244,104a79.85882,79.85882,0,0,1-30.5874,62.91992,24.28956,24.28956,0,0,0-9.4126,19.05591V192a7.99977,7.99977,0,0,1-8,8h-64a7.99977,7.99977,0,0,1-8-8v-6.031a24.10194,24.10194,0,0,0-9.29639-18.95752,79.86147,79.86147,0,0,1-30.70263-62.56C47.76416,61.08911,82.72217,25.043,126.07324,24.02271A80.00056,80.00056,0,0,1,208.00244,104Z" opacity="0.2"/>
  <path d="M176.00244,232a8.00039,8.00039,0,0,1-8,8h-80a8,8,0,1,1,0-16h80A8.00039,8.00039,0,0,1,176.00244,232Zm40-128a87.54306,87.54306,0,0,1-33.6416,69.208,16.23078,16.23078,0,0,0-6.3584,12.76758V192a16.01833,16.01833,0,0,1-16,16h-64a16.01833,16.01833,0,0,1-16-16v-6.03125A16.01813,16.01813,0,0,0,73.773,173.30957a87.57621,87.57621,0,0,1-33.76953-68.81445c-.2627-47.66211,38.26367-87.34961,85.88183-88.47071A88.00123,88.00123,0,0,1,216.00244,104Zm-16,0a72.00056,72.00056,0,0,0-73.74023-71.97949c-38.95606.917-70.47364,33.38965-70.25879,72.38672a71.65771,71.65771,0,0,0,27.63672,56.30664,31.92237,31.92237,0,0,1,12.3623,25.25488V192h64v-6.02441a32.13775,32.13775,0,0,1,12.46777-25.34473A71.63591,71.63591,0,0,0,200.00244,104Zm-16.78808-9.39648a55.85,55.85,0,0,0-45.76465-45.708,7.99953,7.99953,0,1,0-2.6543,15.77734A39.83978,39.83978,0,0,1,167.439,97.27734a8.00261,8.00261,0,0,0,7.87793,6.66407,8.103,8.103,0,0,0,1.34668-.11329A8,8,0,0,0,183.21436,94.60352Z"/>
</svg>
