<svg xmlns="http://www.w3.org/2000/svg" viewBox="0 0 256 256"><g opacity="0.2"><polygon points="96 240 112 160 48 136 160 16 144 96 208 120 96 240"/></g><path d="M53.9,34.6a8,8,0,0,0-11.3-.5,7.9,7.9,0,0,0-.5,11.3L81.3,88.6,42.2,130.5a7.9,7.9,0,0,0-2,7.3,8.2,8.2,0,0,0,5,5.7l57.6,21.6L88.2,238.4a8.1,8.1,0,0,0,4.1,8.7,8.4,8.4,0,0,0,3.7.9,7.7,7.7,0,0,0,5.8-2.6l61.9-66.2,38.4,42.2A8,8,0,0,0,208,224a8.2,8.2,0,0,0,5.4-2.1,7.9,7.9,0,0,0,.5-11.3Zm55.5,179.3,10.4-52.4a7.9,7.9,0,0,0-5-9L62,132.7l30.1-32.3,60.8,66.9ZM108.6,71a7.9,7.9,0,0,1-.3-11.3l45.9-49.2a8,8,0,0,1,13.6,7L153.2,90.9l57.6,21.6a7.9,7.9,0,0,1,3,12.9l-22.3,23.9a7.9,7.9,0,0,1-11.3.4,8,8,0,0,1-.4-11.3L194,123.3l-52.8-19.8a7.9,7.9,0,0,1-5-9.1L146.6,42,120,70.6A8.2,8.2,0,0,1,108.6,71Z"/></svg>