<svg id="Flat" xmlns="http://www.w3.org/2000/svg" viewBox="0 0 256 256">
  <g opacity="0.2">
    <polygon points="96 239.992 112 159.992 48 135.992 160 15.992 144 95.992 208 119.992 96 239.992"/>
  </g>
  <path d="M95.99707,247.99268a8.00149,8.00149,0,0,1-7.8418-9.56934l14.666-73.3291L45.19092,143.48291a7.99995,7.99995,0,0,1-3.03955-12.94922l112-120A8.00018,8.00018,0,0,1,167.84473,17.561l-14.666,73.3291,57.63037,21.61132a7.99995,7.99995,0,0,1,3.03955,12.94922l-112,120A7.99752,7.99752,0,0,1,95.99707,247.99268ZM62.01318,132.70313l52.7959,19.79833a8.00054,8.00054,0,0,1,5.03565,9.05958l-10.47657,52.38378,84.61866-90.66357-52.7959-19.79834a8.00053,8.00053,0,0,1-5.03565-9.05957l10.47657-52.38379Z"/>
</svg>
