<svg id="Flat" xmlns="http://www.w3.org/2000/svg" viewBox="0 0 256 256">
  <g opacity="0.2">
    <path d="M79.99554,168.00067a80,80,0,1,1,96.014-.00013"/>
  </g>
  <g>
    <path d="M160.00244,192h-64a8,8,0,1,0,0,16h64a8,8,0,0,0,0-16Z"/>
    <path d="M152.00244,224h-48a8,8,0,1,0,0,16h48a8,8,0,0,0,0-16Z"/>
    <path d="M128.00244,16a88.00456,88.00456,0,0,0-52.8125,158.39746,8.00059,8.00059,0,1,0,9.61133-12.793,72,72,0,1,1,86.40234,0,8.00059,8.00059,0,0,0,9.61133,12.793A88.00456,88.00456,0,0,0,128.00244,16Z"/>
  </g>
</svg>
