<svg id="Flat" xmlns="http://www.w3.org/2000/svg" viewBox="0 0 256 256">
  <path d="M208,104a79.85914,79.85914,0,0,1-30.58734,62.91992,24.28825,24.28825,0,0,0-9.41242,19.05615L168.00012,192a7.99992,7.99992,0,0,1-8,8H95.99988a8,8,0,0,1-8-8l-.00012-6.03125a24.10125,24.10125,0,0,0-9.296-18.95752,79.85925,79.85925,0,0,1-30.70246-62.55957C47.76166,61.08887,82.72,25.043,126.071,24.02246A80.001,80.001,0,0,1,208,104Z" opacity="0.2"/>
  <path d="M176,232a8.00008,8.00008,0,0,1-8,8H88a8,8,0,0,1,0-16h80A8.00008,8.00008,0,0,1,176,232Zm40-128a87.54352,87.54352,0,0,1-33.64209,69.208A16.2351,16.2351,0,0,0,176,185.97656V192a16.01833,16.01833,0,0,1-16,16H96a16.01833,16.01833,0,0,1-16-16v-6.03125a16.02005,16.02005,0,0,0-6.23-12.65918,87.57531,87.57531,0,0,1-33.76856-68.81445c-.26318-47.66211,38.2627-87.34961,85.88086-88.47071A88.0021,88.0021,0,0,1,216,104Zm-16,0a71.99981,71.99981,0,0,0-73.74121-71.97949c-38.95557.917-70.47315,33.38965-70.25733,72.38672A71.65728,71.65728,0,0,0,83.6377,160.71387h-.00049A31.92244,31.92244,0,0,1,96,185.96777V192h24V147.314L90.34326,117.65723a8.00018,8.00018,0,0,1,11.31348-11.31446L128,132.68652l26.34326-26.34375a8.00018,8.00018,0,1,1,11.31348,11.31446L136,147.314V192h24v-6.02441a32.13544,32.13544,0,0,1,12.46729-25.34375A71.63829,71.63829,0,0,0,200,104Z"/>
</svg>
