<svg id="Flat" xmlns="http://www.w3.org/2000/svg" viewBox="0 0 256 256">
  <path d="M80.97058,175.0293a24.00009,24.00009,0,1,1-33.9411,0A24.00037,24.00037,0,0,1,80.97058,175.0293Zm128-128a24.00009,24.00009,0,1,0,0,33.9414A24,24,0,0,0,208.97058,47.0293Z" opacity="0.2"/>
  <path d="M214.62744,41.37207a32.00221,32.00221,0,0,0-50.1958,38.88232l-84.177,84.17725a32.05732,32.05732,0,0,0-38.88208,4.94043l-.00049.001a32,32,0,1,0,50.19629,6.37256l84.17712-84.17725a32.00224,32.00224,0,0,0,38.882-50.19629ZM75.314,203.31348a16.00019,16.00019,0,1,1-22.62744-22.62793l-.00048.001a16.018,16.018,0,0,1,22.6253-.00293l.00262.00293.00214.002A16.01918,16.01918,0,0,1,75.314,203.31348Zm128-128a16.019,16.019,0,0,1-22.62792,0l-.00214-.002a16.00025,16.00025,0,1,1,22.63006.002Z"/>
</svg>
