<svg xmlns="http://www.w3.org/2000/svg" viewBox="0 0 256 256"><path d="M220,44V212a8,8,0,0,1-8,8H44a8,8,0,0,1-8-8V44a8,8,0,0,1,8-8H212A8,8,0,0,1,220,44Z" opacity="0.2"/><path d="M96,112v64a8,8,0,0,1-16,0V112a8,8,0,0,1,16,0ZM88,68a12,12,0,1,0,12,12A12,12,0,0,0,88,68ZM228,44V212a16,16,0,0,1-16,16H44a16,16,0,0,1-16-16V44A16,16,0,0,1,44,28H212A16,16,0,0,1,228,44ZM212,212V44H44V212ZM148,104a36,36,0,0,0-20.2,6.2A8,8,0,0,0,112,112v64a8,8,0,0,0,16,0V140a20,20,0,0,1,40,0v36a8,8,0,0,0,16,0V140A36,36,0,0,0,148,104Z"/></svg>