<svg id="Flat" xmlns="http://www.w3.org/2000/svg" viewBox="0 0 256 256">
  <g opacity="0.2">
    <rect x="40" y="40" width="176" height="176" rx="8"/>
  </g>
  <g>
    <path d="M208,32H48A16.01817,16.01817,0,0,0,32,48V208a16.01833,16.01833,0,0,0,16,16H208a16.01833,16.01833,0,0,0,16-16V48A16.01817,16.01817,0,0,0,208,32Zm0,176H48V48H208l.00977,159.99951Z"/>
    <path d="M88,104.001a8.00023,8.00023,0,0,0-8,8v64a8,8,0,1,0,16,0v-64A8.00023,8.00023,0,0,0,88,104.001Z"/>
    <circle cx="88" cy="80.00098" r="12"/>
    <path d="M148,104.001a35.79157,35.79157,0,0,0-20.20508,6.22143A7.99729,7.99729,0,0,0,112,112.001v64a8,8,0,1,0,16,0v-36a20,20,0,0,1,40,0v36a8,8,0,1,0,16,0v-36A36.04061,36.04061,0,0,0,148,104.001Z"/>
  </g>
</svg>
