<svg id="Flat" xmlns="http://www.w3.org/2000/svg" viewBox="0 0 256 256">
  <path d="M167.59229,88.39258a8.00121,8.00121,0,0,1,0,11.31445L99.70947,167.58887A8.00053,8.00053,0,0,1,88.395,156.27441l67.88281-67.88183A8.00387,8.00387,0,0,1,167.59229,88.39258Zm-28.28711,84.86035L111.021,201.53711a39.99952,39.99952,0,0,1-56.56836-56.56738l28.28418-28.28418a8.00053,8.00053,0,0,0-11.31446-11.31446L43.13818,133.65527a56.00059,56.00059,0,0,0,79.19727,79.19629l28.28418-28.28418a8.00052,8.00052,0,0,0-11.31445-11.31445ZM212.8501,43.14062a56.06577,56.06577,0,0,0-79.19727,0L105.36865,71.4248a8.00053,8.00053,0,0,0,11.31446,11.31446l28.28418-28.28418a39.99952,39.99952,0,0,1,56.56835,56.56738l-28.28418,28.28418a8.00053,8.00053,0,0,0,11.31446,11.31445l28.28418-28.28418A56.06459,56.06459,0,0,0,212.8501,43.14062Z"/>
</svg>
