<svg id="Flat" xmlns="http://www.w3.org/2000/svg" viewBox="0 0 256 256">
  <path d="M150.62207,173.25293a8.00121,8.00121,0,0,1,0,11.31445l-28.28418,28.28418a56.00058,56.00058,0,0,1-79.19727-79.19629L71.4248,105.37109a8.00053,8.00053,0,0,1,11.31446,11.31446L54.45508,144.96973a39.99952,39.99952,0,0,0,56.56836,56.56738l28.28418-28.28418A8.003,8.003,0,0,1,150.62207,173.25293ZM212.85254,43.14062a56.06577,56.06577,0,0,0-79.19727,0L105.37109,71.4248a8.00053,8.00053,0,0,0,11.31446,11.31446l28.28418-28.28418a39.99952,39.99952,0,1,1,56.56836,56.56738l-28.28418,28.28418a8.00052,8.00052,0,0,0,11.31445,11.31445l28.28418-28.28418A56.06459,56.06459,0,0,0,212.85254,43.14062Z"/>
</svg>
