<svg xmlns="http://www.w3.org/2000/svg" viewBox="0 0 256 256"><path d="M224,216H169.6a48.1,48.1,0,0,0-83.2,0H32S64,160,64,96a64,64,0,0,1,128,0C192,160,224,216,224,216Z" opacity="0.2"/><path d="M228,222.9a7.9,7.9,0,0,1-10.9-2.9c-1.4-2.4-33.1-58.6-33.1-124A56,56,0,0,0,72,96c0,65.4-31.7,121.6-33.1,124a7.7,7.7,0,0,1-6.9,4,7.3,7.3,0,0,1-4-1.1A7.9,7.9,0,0,1,25.1,212c.3-.5,30.9-55,30.9-116a72,72,0,0,1,144,0c0,61,30.6,115.5,30.9,116A7.9,7.9,0,0,1,228,222.9ZM100,96a12,12,0,1,0,12,12A12,12,0,0,0,100,96Zm68,12a12,12,0,1,0-12,12A12,12,0,0,0,168,108ZM99.6,136.8a8,8,0,1,0-7.2,14.4l32,16a8.5,8.5,0,0,0,7.2,0l32-16a8,8,0,1,0-7.2-14.4L128,151.1ZM128,184a56.2,56.2,0,0,0-48.5,28,8,8,0,1,0,13.8,8,40.1,40.1,0,0,1,69.4,0,7.7,7.7,0,0,0,6.9,4,7.6,7.6,0,0,0,4-1.1,8,8,0,0,0,2.9-10.9A56.2,56.2,0,0,0,128,184Z"/></svg>