<svg xmlns="http://www.w3.org/2000/svg" viewBox="0 0 256 256"><g opacity="0.2"><path d="M208,88H48a8,8,0,0,0-8,8V208a8,8,0,0,0,8,8H208a8,8,0,0,0,8-8V96A8,8,0,0,0,208,88Zm-80,72a20,20,0,1,1,20-20A20.1,20.1,0,0,1,128,160Z"/></g><path d="M128,112a28,28,0,0,0-8,54.8V184a8,8,0,0,0,16,0V166.8a28,28,0,0,0-8-54.8Zm0,40a12,12,0,1,1,12-12A12,12,0,0,1,128,152Z"/><path d="M208,80H172V52a44,44,0,0,0-88,0V80H48A16,16,0,0,0,32,96V208a16,16,0,0,0,16,16H208a16,16,0,0,0,16-16V96A16,16,0,0,0,208,80ZM100,52a28,28,0,0,1,56,0V80H100ZM208,208H48V96H208V208Z"/></svg>