<svg id="Flat" xmlns="http://www.w3.org/2000/svg" viewBox="0 0 256 256">
  <g opacity="0.2">
    <path d="M207.99414,88h-160a8,8,0,0,0-8,8V208a8,8,0,0,0,8,8h160a8,8,0,0,0,8-8V96A8,8,0,0,0,207.99414,88Zm-80,72a20,20,0,1,1,20-20A20.00006,20.00006,0,0,1,127.99414,160Z"/>
  </g>
  <g>
    <path d="M127.99414,112a27.998,27.998,0,0,0-8,54.82935V184a8,8,0,1,0,16,0V166.82935a27.998,27.998,0,0,0-8-54.82935Zm0,40a12,12,0,1,1,12-12A12.01375,12.01375,0,0,1,127.99414,152Z"/>
    <path d="M207.99414,80h-36V52a44,44,0,1,0-88,0V80h-36a16.01833,16.01833,0,0,0-16,16V208a16.01833,16.01833,0,0,0,16,16h160a16.01833,16.01833,0,0,0,16-16V96A16.01833,16.01833,0,0,0,207.99414,80Zm-108-28a28,28,0,1,1,56,0V80h-56Zm108,156h-160V96h160l.01025,111.99951Z"/>
  </g>
</svg>
