<svg xmlns="http://www.w3.org/2000/svg" viewBox="0 0 256 256"><path d="M176,112,69.7,218.3a8,8,0,0,1-11.4,0L37.7,197.7a8,8,0,0,1,0-11.4L144,80Z" opacity="0.2"/><path d="M248,152a8,8,0,0,1-8,8H224v16a8,8,0,0,1-16,0V160H192a8,8,0,0,1,0-16h16V128a8,8,0,0,1,16,0v16h16A8,8,0,0,1,248,152ZM64,68H76V80a8,8,0,0,0,16,0V68h12a8,8,0,0,0,0-16H92V40a8,8,0,0,0-16,0V52H64a8,8,0,0,0,0,16ZM184,192h-8v-8a8,8,0,0,0-16,0v8h-8a8,8,0,0,0,0,16h8v8a8,8,0,0,0,16,0v-8h8a8,8,0,0,0,0-16Zm-2.3-74.3L75.3,224a15.9,15.9,0,0,1-22.6,0L32,203.3a15.9,15.9,0,0,1,0-22.6L180.7,32a16.1,16.1,0,0,1,22.6,0L224,52.7a15.9,15.9,0,0,1,0,22.6l-42.3,42.4ZM155.3,80,176,100.7,212.7,64h0L192,43.3Zm9.4,32L144,91.3,43.3,192,64,212.7Z"/></svg>