<svg id="Flat" xmlns="http://www.w3.org/2000/svg" viewBox="0 0 256.00098 256.00098">
  <g opacity="0.2">
    <circle cx="119.99512" cy="120" r="87.98531"/>
  </g>
  <g>
    <path d="M151.99512,112h-64a8,8,0,1,0,0,16h64a8,8,0,0,0,0-16Z"/>
    <path d="M229.65332,218.34375l-36.33105-36.33136a96.49912,96.49912,0,1,0-25.335,21.11359,97.03552,97.03552,0,0,0,13.9856-9.83509l36.366,36.36634a8.00018,8.00018,0,1,0,11.31445-11.31348Zm-69.666-29.07422A79.9853,79.9853,0,1,1,119.86426,39.98a80.45009,80.45009,0,0,1,20.833,2.76025,79.98536,79.98536,0,0,1,19.29,146.5293Z"/>
  </g>
</svg>
