<svg xmlns="http://www.w3.org/2000/svg" viewBox="0 0 256 256"><path d="M166.6,202.2l-32.9,32.3a8.1,8.1,0,0,1-11.3-.1L93.7,205.7a8.1,8.1,0,0,1,.1-11.4l33-31.9ZM54,89.6,21.6,122.3a8,8,0,0,0,0,11.3l28.7,28.7a8.1,8.1,0,0,0,11.4-.1l32-32.8Z" opacity="0.2"/><path d="M207,50.2A87.7,87.7,0,0,0,144.6,24h-.3A87.3,87.3,0,0,0,82,49.8L48.3,83.9h0L15.9,116.7a16.1,16.1,0,0,0,.1,22.6l28.6,28.6a15.6,15.6,0,0,0,11.3,4.7H56a15.8,15.8,0,0,0,11.4-4.8l32-32.8h0L133,100.7a16.1,16.1,0,0,1,22.4-.2,15.7,15.7,0,0,1,4.7,11.2,17,17,0,0,1-4.9,12l-34.1,33h0L88.3,188.6a15.9,15.9,0,0,0-.2,22.8l28.6,28.7a16.3,16.3,0,0,0,22.6.1l32.9-32.4h0l33.6-32.9C240.2,140.5,240.8,84.6,207,50.2ZM55.9,156.6,27.3,128,54,100.9l28.5,28.5Zm72.2,72.1L99.4,200.1l27.3-26.5,28.5,28.5Zm38.5-37.8-28.4-28.4,28.2-27.4h.1a32.8,32.8,0,0,0,9.6-23.5,31.6,31.6,0,0,0-31.8-31.4,31.9,31.9,0,0,0-22.7,9.3h0L93.7,118,65.2,89.5,93.3,61.1a71.8,71.8,0,0,1,51-21.1h.2a71.7,71.7,0,0,1,51.1,21.5c27.6,28,27.1,73.9-1.1,102.1Z"/></svg>