<svg id="Flat" xmlns="http://www.w3.org/2000/svg" viewBox="0 0 256.00098 256.00098">
  <g opacity="0.2">
    <circle cx="119.99512" cy="119.99902" r="87.98531"/>
  </g>
  <g>
    <path d="M151.99512,111.999h-24v-24a8,8,0,0,0-16,0v24h-24a8,8,0,0,0,0,16h24v24a8,8,0,0,0,16,0v-24h24a8,8,0,0,0,0-16Z"/>
    <path d="M229.65332,218.34277l-36.33105-36.33136a96.49912,96.49912,0,1,0-25.335,21.11359,97.03624,97.03624,0,0,0,13.9856-9.83508l36.366,36.36633a8.00018,8.00018,0,0,0,11.31445-11.31348Zm-69.666-29.07422A79.9853,79.9853,0,1,1,119.86426,39.979a80.45011,80.45011,0,0,1,20.833,2.76026,79.98535,79.98535,0,0,1,19.29,146.52929Z"/>
  </g>
</svg>
