<svg xmlns="http://www.w3.org/2000/svg" viewBox="0 0 256 256"><g opacity="0.2"><polygon points="160.1 216 96.1 184 96.1 40 160.1 72 160.1 216"/></g><path d="M229,49.7a7.9,7.9,0,0,0-6.8-1.5L161,63.5,99.7,32.8h-.1l-.8-.3h-.2l-.7-.2h-.3l-.7-.2H94.2l-64,16A8,8,0,0,0,24.1,56V200a7.8,7.8,0,0,0,3.1,6.3,7.9,7.9,0,0,0,4.9,1.7l2-.2,61.1-15.3,61.3,30.7h.1l.7.3h.1l.8.3h3.9l64-16a8,8,0,0,0,6-7.8V56A7.8,7.8,0,0,0,229,49.7ZM40.1,62.2l48-12V177.8l-48,12Zm112,140.9-48-24V52.9l48,24Zm64-9.3-48,12V78.2l48-12Z"/></svg>