<svg xmlns="http://www.w3.org/2000/svg" viewBox="0 0 256 256"><g opacity="0.2"><path d="M128.1,24a80,80,0,0,0-80,80c0,72,80,128,80,128s80-56,80-128A80,80,0,0,0,128.1,24Zm0,112a32,32,0,1,1,32-32A32,32,0,0,1,128.1,136Z"/></g><path d="M128.1,64a40,40,0,1,0,40,40A40.1,40.1,0,0,0,128.1,64Zm0,64a24,24,0,1,1,24-24A24.1,24.1,0,0,1,128.1,128Z"/><path d="M128.1,16a88.1,88.1,0,0,0-88,88c0,31.4,14.5,64.7,42,96.2a259.4,259.4,0,0,0,41.4,38.4,8.3,8.3,0,0,0,9.2,0,257.6,257.6,0,0,0,41.5-38.4c27.4-31.5,41.9-64.8,41.9-96.2A88.1,88.1,0,0,0,128.1,16Zm0,206c-16.5-13-72-60.8-72-118a72,72,0,0,1,144,0C200.1,161.2,144.6,209,128.1,222Z"/></svg>