<svg xmlns="http://www.w3.org/2000/svg" viewBox="0 0 256 256"><g opacity="0.2"><path d="M176,211.2a96,96,0,1,0-96,0h0V176a8,8,0,0,1,8-8h8V144a8,8,0,0,1,8-8h4.2l12-57.6c1.7-8.5,13.9-8.5,15.6,0l12,57.6H152a8,8,0,0,1,8,8v24h8a8,8,0,0,1,8,8v35.2Z"/></g><path d="M201.5,54.5a103.8,103.8,0,0,0-147,0,103.8,103.8,0,0,0,0,147,103.8,103.8,0,0,0,147,0,103.8,103.8,0,0,0,0-147ZM88,206.4V176h80v30.4A88.8,88.8,0,0,1,88,206.4ZM104,144h48v16H104Zm14-16,10-48h0l10,48Zm72.2,62.2c-2,2-4.1,3.9-6.2,5.7V176a16,16,0,0,0-16-16V144a16,16,0,0,0-13.6-15.8L143.7,76.7a16.1,16.1,0,0,0-31.4,0l-10.7,51.5A16,16,0,0,0,88,144v16a16,16,0,0,0-16,16v19.9c-2.1-1.8-4.2-3.7-6.2-5.7a88,88,0,1,1,124.4,0Z"/></svg>