<svg id="Flat" xmlns="http://www.w3.org/2000/svg" viewBox="0 0 256 256">
  <g opacity="0.2">
    <path d="M175.99816,211.158a96,96,0,1,0-95.99492.00082L80,211.16442V176a8,8,0,0,1,8-8h8V144a8,8,0,0,1,8-8h4.1616l12.00656-57.63163c1.769-8.49116,13.89469-8.49116,15.66368,0L147.83843,136H152a8,8,0,0,1,8,8v24h8a8,8,0,0,1,8,8v35.16115Z"/>
  </g>
  <path d="M201.53906,54.46094A103.99994,103.99994,0,1,0,54.46094,201.53906,103.99994,103.99994,0,1,0,201.53906,54.46094ZM88,206.37012V176h80v30.37012A88.38031,88.38031,0,0,1,88,206.37012ZM104,144h43.79736l.03369.00146L147.85962,144H152v16H104Zm14-16,10-47.99951V80l10.00024,48Zm72.22461,62.22559c-2.0022,2.00225-4.08447,3.87616-6.22461,5.64471V176a16.01833,16.01833,0,0,0-16-16V144a16.011,16.011,0,0,0-13.61475-15.80219l-10.72119-51.462a16.00062,16.00062,0,0,0-31.32812.00049l-10.72119,51.46148A16.011,16.011,0,0,0,88,144v16a16.01833,16.01833,0,0,0-16,16v19.8703c-2.14014-1.76855-4.22241-3.64246-6.22461-5.64471a88,88,0,1,1,124.44922,0Z"/>
</svg>
