<svg xmlns="http://www.w3.org/2000/svg" viewBox="0 0 256 256"><path d="M216,48.3V104c0,70.7-39.4,128-88,128S40,174.7,40,104V48.3a7.9,7.9,0,0,1,10.9-7.4C66,46.7,95.1,56,128,56s62-9.3,77.1-15.1A7.9,7.9,0,0,1,216,48.3Z" opacity="0.2"/><path d="M187.8,122.7a8,8,0,0,1-.6,11.3,8.1,8.1,0,0,1-5.3,2,8,8,0,0,1-6-2.7,16,16,0,0,0-23.8,0,8,8,0,0,1-11.3.7,8,8,0,0,1-.6-11.3,31.8,31.8,0,0,1,47.6,0Zm-83.9,10.6a8,8,0,0,0,6,2.7,8.1,8.1,0,0,0,5.3-2,8,8,0,0,0,.6-11.3,31.8,31.8,0,0,0-47.6,0,8,8,0,0,0,.6,11.3,8,8,0,0,0,11.3-.7,16,16,0,0,1,23.8,0Zm46.2,36a39.8,39.8,0,0,1-44.2,0,8,8,0,0,0-11.1,2.3A8.1,8.1,0,0,0,97,182.7a56.3,56.3,0,0,0,62,0,8.1,8.1,0,0,0,2.2-11.1A8,8,0,0,0,150.1,169.3ZM224,48.3V104c0,35.8-9.7,69.5-27.2,95s-42.6,41-68.8,41-50.7-14.5-68.8-41S32,139.8,32,104V48.3A16,16,0,0,1,53.8,33.4C67.8,38.9,96.2,48,128,48s60.2-9.1,74.2-14.6A16,16,0,0,1,224,48.3Zm-16,0h0C192.9,54.2,162.4,64,128,64S63.1,54.2,48,48.3V104c0,32.6,8.7,63.1,24.4,86s34.8,34,55.6,34,40.5-12.1,55.6-34S208,136.6,208,104Z"/></svg>