<svg xmlns="http://www.w3.org/2000/svg" viewBox="0 0 256 256"><g opacity="0.2"><circle cx="128" cy="96" r="48"/></g><path d="M216,96A88,88,0,1,0,72,163.8V240a7.9,7.9,0,0,0,3.8,6.8,8,8,0,0,0,7.8.4L128,224.9l44.4,22.3a9.4,9.4,0,0,0,3.6.8,8,8,0,0,0,8-8V163.8A87.8,87.8,0,0,0,216,96ZM56,96a72,72,0,1,1,72,72A72.1,72.1,0,0,1,56,96ZM168,227.1l-36.4-18.3a8.3,8.3,0,0,0-7.2,0L88,227.1V174.4a88.1,88.1,0,0,0,80,0Z"/><path d="M128,152A56,56,0,1,0,72,96,56,56,0,0,0,128,152Zm0-96A40,40,0,1,1,88,96,40.1,40.1,0,0,1,128,56Z"/></svg>