<svg id="Flat" xmlns="http://www.w3.org/2000/svg" viewBox="0 0 256 256">
  <g opacity="0.2">
    <circle cx="127.99414" cy="96" r="48"/>
  </g>
  <g>
    <path d="M215.99414,96A88,88,0,1,0,72,163.8374V240a7.99951,7.99951,0,0,0,11.57812,7.15527l44.415-22.21093,44.42969,22.21142A8,8,0,0,0,184,240V163.82764A87.86066,87.86066,0,0,0,215.99414,96Zm-160,0a72,72,0,1,1,72,72A72.08124,72.08124,0,0,1,55.99414,96ZM168,227.05664l-36.43066-18.2124a8.00053,8.00053,0,0,0-7.15528.00049L88,227.05469V174.375a87.90556,87.90556,0,0,0,80-.00586Z"/>
    <path d="M127.99414,152a56,56,0,1,0-56-56A56.06322,56.06322,0,0,0,127.99414,152Zm0-96a40,40,0,1,1-40,40A40.04552,40.04552,0,0,1,127.99414,56Z"/>
  </g>
</svg>
