<svg id="Flat" xmlns="http://www.w3.org/2000/svg" viewBox="0 0 256 256">
  <path d="M56.01172,136.00094a8.00039,8.00039,0,0,1-8,8h-24a8,8,0,1,1,0-16h8v-64h-8a8,8,0,1,1,0-16h16c.08447,0,.166.01026.25.0127.09082.00293.18066.00781.27148.01367a8.00908,8.00908,0,0,1,1.12207.144l.01856.00489a7.89018,7.89018,0,0,1,1.10351.32617c.05469.02.10987.03857.16407.06006a7.88266,7.88266,0,0,1,1.022.48828c.05273.02978.10351.063.15576.09472a8.04327,8.04327,0,0,1,.91406.63184c.01709.01416.03614.02588.05323.04a8.0364,8.0364,0,0,1,.82568.79492c.05029.05469.10058.10742.14892.16358a8.02759,8.02759,0,0,1,.6875.92187c.01416.02246.03321.04053.04737.063l33.21582,53.146,33.21582-53.146c.01416-.02246.0332-.04053.04736-.063a8.07777,8.07777,0,0,1,.687-.92139c.04883-.05664.09961-.10986.14991-.16455a8.02674,8.02674,0,0,1,.82519-.79443c.01709-.01416.03613-.02637.05371-.04053a8.04369,8.04369,0,0,1,.91406-.63183c.05225-.03125.10254-.06446.15528-.09424a7.95558,7.95558,0,0,1,1.02246-.48877c.05371-.021.1084-.03955.16308-.05957a7.844,7.844,0,0,1,1.105-.32617l.01757-.00489a8.00684,8.00684,0,0,1,1.12256-.144c.09033-.00586.18018-.01074.271-.01367.084-.00244.16553-.0127.25-.0127h16a8,8,0,0,1,0,16h-8v64h8a8,8,0,0,1,0,16h-24a8,8,0,0,1,0-16V83.89547L86.7959,124.24118a8.00063,8.00063,0,0,1-13.56836,0L48.01172,83.89547v44.10547A8.00039,8.00039,0,0,1,56.01172,136.00094Zm112-24h72a8,8,0,0,0,0-16h-72a8,8,0,0,0,0,16Zm72,16h-72a8,8,0,1,0,0,16h72a8,8,0,0,0,0-16Zm0,32h-168a8,8,0,0,0,0,16h168a8,8,0,0,0,0-16Zm0,32h-168a8,8,0,1,0,0,16h168a8,8,0,0,0,0-16Z"/>
</svg>
