<svg xmlns="http://www.w3.org/2000/svg" viewBox="0 0 256 256"><path d="M128,128c0,33.1-25.1,60-56,60s-56-26.9-56-60S41.1,68,72,68,128,94.9,128,128Zm56-56c-13.3,0-24,25.1-24,56s10.7,56,24,56,24-25.1,24-56S197.3,72,184,72Z" opacity="0.2"/><path d="M72,60C36.7,60,8,90.5,8,128s28.7,68,64,68,64-30.5,64-68S107.3,60,72,60Zm0,120c-26.5,0-48-23.3-48-52S45.5,76,72,76s48,23.3,48,52S98.5,180,72,180ZM184,64c-5.7,0-16.4,2.8-24.3,21.3-5,11.5-7.7,26.7-7.7,42.7s2.7,31.2,7.7,42.7c7.9,18.5,18.6,21.3,24.3,21.3s16.4-2.8,24.3-21.3c5-11.5,7.7-26.7,7.7-42.7s-2.7-31.2-7.7-42.7C200.4,66.8,189.7,64,184,64Zm0,112c-5.6,0-16-18.2-16-48s10.4-48,16-48,16,18.2,16,48S189.6,176,184,176ZM248,72V184a8,8,0,0,1-16,0V72a8,8,0,0,1,16,0Z"/></svg>