<svg id="Flat" xmlns="http://www.w3.org/2000/svg" viewBox="0 0 256 256">
  <path d="M224,128A96.023,96.023,0,0,1,79.00232,210.5718l.00018-.001L45.846,220.044a7.99991,7.99991,0,0,1-9.89-9.8899l9.47333-33.15649-.00079.00049A96.00628,96.00628,0,1,1,224,128Z" opacity="0.2"/>
  <path d="M128,24A104.02809,104.02809,0,0,0,36.811,178.041l-8.54737,29.915a16.00023,16.00023,0,0,0,19.77979,19.78027l29.916-8.54639A104.00746,104.00746,0,1,0,128,24Zm0,192a87.8721,87.8721,0,0,1-44.9082-12.30517,8.00208,8.00208,0,0,0-6.28711-.81641l-33.15625,9.47314,9.47265-33.15576a7.99975,7.99975,0,0,0-.8164-6.28662A88.011,88.011,0,1,1,128,216Zm53.65674-109.65674a7.99915,7.99915,0,0,1,0,11.31348l-32,32a7.99945,7.99945,0,0,1-11.31348,0L112,123.3135,85.65674,149.65676a7.99984,7.99984,0,1,1-11.31348-11.31348l32-32a8,8,0,0,1,11.31348,0L144,132.68654l26.34326-26.34326A8,8,0,0,1,181.65674,106.34328Z"/>
</svg>
