<svg id="Flat" xmlns="http://www.w3.org/2000/svg" viewBox="0 0 256 256">
  <g opacity="0.2">
    <path d="M127.99991,24H128a40,40,0,0,1,40,40v64a40,40,0,0,1-40,40h-.00008A39.99991,39.99991,0,0,1,88,128.00009V63.99991A39.99991,39.99991,0,0,1,127.99991,24Z"/>
  </g>
  <g>
    <path d="M128,176a48.05375,48.05375,0,0,0,48-48V64a48,48,0,0,0-96,0v64A48.05375,48.05375,0,0,0,128,176ZM96,64a32,32,0,0,1,64,0v64a32,32,0,0,1-64,0Z"/>
    <path d="M200.43945,128.04883a7.995,7.995,0,0,0-8.83008,7.07226,64.00758,64.00758,0,0,1-127.21875,0,7.9996,7.9996,0,0,0-15.90234,1.75782A79.83705,79.83705,0,0,0,120,207.59692V232a8,8,0,0,0,16,0V207.59692a79.83705,79.83705,0,0,0,71.51172-70.718A7.99855,7.99855,0,0,0,200.43945,128.04883Z"/>
  </g>
</svg>
