<svg id="Flat" xmlns="http://www.w3.org/2000/svg" viewBox="0 0 256 256">
  <g opacity="0.2">
    <path d="M127.99991,24H128a40,40,0,0,1,40,40v64a40,40,0,0,1-40,40h-.00008A39.99991,39.99991,0,0,1,88,128.00009V63.99991A39.99991,39.99991,0,0,1,127.99991,24Z"/>
  </g>
  <g>
    <path d="M213.91992,210.61816l-160-176A8.0006,8.0006,0,1,0,42.08008,45.38184L80,87.09375V128a47.9902,47.9902,0,0,0,73.91211,40.39685l10.875,11.96252A63.99208,63.99208,0,0,1,64.39062,135.12109a7.9996,7.9996,0,0,0-15.90234,1.75782A79.83705,79.83705,0,0,0,120,207.59692V232a8,8,0,0,0,16,0V207.59082a79.72,79.72,0,0,0,39.62012-15.31506l26.46,29.10608a8.0006,8.0006,0,1,0,11.83984-10.76368ZM128,160a32.03667,32.03667,0,0,1-32-32V104.69373l46.91943,51.61145A31.93466,31.93466,0,0,1,128,160Z"/>
    <path d="M89.75,49.78809a8.00143,8.00143,0,0,0,11.0127-2.59473A32.00393,32.00393,0,0,1,160,64v60.42871a8,8,0,1,0,16,0V64A48.0045,48.0045,0,0,0,87.15527,38.77539,8.00057,8.00057,0,0,0,89.75,49.78809Z"/>
    <path d="M192.165,161.665a7.99262,7.99262,0,0,0,10.36426-4.53613,79.61568,79.61568,0,0,0,4.98242-20.25,7.9996,7.9996,0,0,0-15.90235-1.75782,63.67417,63.67417,0,0,1-3.98046,16.17969A7.99991,7.99991,0,0,0,192.165,161.665Z"/>
  </g>
</svg>
