<svg id="Flat" xmlns="http://www.w3.org/2000/svg" viewBox="0 0 256 256">
  <g opacity="0.2">
    <circle cx="128" cy="128" r="32"/>
    <path d="M232,64H176l64,56V72A7.99993,7.99993,0,0,0,232,64Z"/>
    <path d="M232,192a7.99993,7.99993,0,0,0,8-8V136l-64,56Z"/>
    <path d="M16,72v48L80,64H24A7.99993,7.99993,0,0,0,16,72Z"/>
    <path d="M16,184a7.99993,7.99993,0,0,0,8,8H80L16,136Z"/>
  </g>
  <path d="M232,56H24A16.01833,16.01833,0,0,0,8,72V184a16.01833,16.01833,0,0,0,16,16H232a16.01833,16.01833,0,0,0,16-16V72A16.01833,16.01833,0,0,0,232,56ZM83.00537,184,24,132.37036v-8.74072L83.00537,72h89.98926l59.00976,51.63354.001,8.73218L172.99463,184Zm148.99707-81.62732L197.291,72H232ZM58.709,72,24,102.37036V72ZM24,153.62964,58.709,184H24ZM232,184H197.291l34.7163-30.37659L232.00977,184ZM128,88a40,40,0,1,0,40,40A40.04584,40.04584,0,0,0,128,88Zm0,64a24,24,0,1,1,24-24A24.0275,24.0275,0,0,1,128,152Z"/>
</svg>
