<svg xmlns="http://www.w3.org/2000/svg" viewBox="0 0 256 256"><g opacity="0.2"><circle cx="128" cy="128" r="32"/><path d="M232,64H176l64,56V72A8,8,0,0,0,232,64Z"/><path d="M232,192a8,8,0,0,0,8-8V136l-64,56Z"/><path d="M16,72v48L80,64H24A8,8,0,0,0,16,72Z"/><path d="M16,184a8,8,0,0,0,8,8H80L16,136Z"/></g><path d="M232,56H24A16,16,0,0,0,8,72V184a16,16,0,0,0,16,16H232a16,16,0,0,0,16-16V72A16,16,0,0,0,232,56ZM83,184,24,132.4v-8.8L83,72h90l59,51.6v8.8L173,184Zm149-81.6L197.3,72H232ZM58.7,72,24,102.4V72ZM24,153.6,58.7,184H24ZM232,184H197.3L232,153.6V184ZM128,88a40,40,0,1,0,40,40A40,40,0,0,0,128,88Zm0,64a24,24,0,1,1,24-24A24.1,24.1,0,0,1,128,152Z"/></svg>