<svg id="Flat" xmlns="http://www.w3.org/2000/svg" viewBox="0 0 256 256">
  <g opacity="0.2">
    <rect x="32" y="46.92069" width="192" height="144" rx="16" transform="translate(256 237.84139) rotate(180)"/>
  </g>
  <g>
    <path d="M208,38.9209H48a24.0275,24.0275,0,0,0-24,24v112a24.0275,24.0275,0,0,0,24,24H208a24.0275,24.0275,0,0,0,24-24v-112A24.0275,24.0275,0,0,0,208,38.9209Zm8,136a8.00917,8.00917,0,0,1-8,8H48a8.00917,8.00917,0,0,1-8-8v-112a8.00917,8.00917,0,0,1,8-8H208a8.00917,8.00917,0,0,1,8,8Z"/>
    <path d="M160,214.9209H96a8,8,0,1,0,0,16h64a8,8,0,0,0,0-16Z"/>
  </g>
</svg>
