<svg xmlns="http://www.w3.org/2000/svg" viewBox="0 0 256 256"><g opacity="0.2"><path d="M208,48H48A16,16,0,0,0,32,64V176a16,16,0,0,0,16,16H208a16,16,0,0,0,16-16V64A16,16,0,0,0,208,48ZM112,152V88l48,32Z"/></g><path d="M208,40H48A24.1,24.1,0,0,0,24,64V176a24.1,24.1,0,0,0,24,24H208a24.1,24.1,0,0,0,24-24V64A24.1,24.1,0,0,0,208,40Zm8,136a8,8,0,0,1-8,8H48a8,8,0,0,1-8-8V64a8,8,0,0,1,8-8H208a8,8,0,0,1,8,8Zm-48,48a8,8,0,0,1-8,8H96a8,8,0,0,1,0-16h64A8,8,0,0,1,168,224Zm-3.6-110.7-48-32a8.3,8.3,0,0,0-8.2-.4A8,8,0,0,0,104,88v64a8,8,0,0,0,4.2,7.1,8.5,8.5,0,0,0,3.8.9,8.4,8.4,0,0,0,4.4-1.3l48-32a8,8,0,0,0,0-13.4ZM120,137.1V102.9L145.6,120Z"/></svg>