<svg id="Flat" xmlns="http://www.w3.org/2000/svg" viewBox="0 0 256 256">
  <path d="M221.567,149.56784A96.0849,96.0849,0,0,1,106.43219,34.43294l-.00127-.00029A96.01213,96.01213,0,1,0,221.56729,149.56932Z" opacity="0.2"/>
  <path d="M248,88a8.00008,8.00008,0,0,1-8,8H224v16a8,8,0,0,1-16,0V96H192a8,8,0,0,1,0-16h16V64a8,8,0,0,1,16,0V80h16A8.00008,8.00008,0,0,1,248,88ZM152,48h8v8a8,8,0,0,0,16,0V48h8a8,8,0,0,0,0-16h-8V24a8,8,0,0,0-16,0v8h-8a8,8,0,0,0,0,16Zm77.32861,99.62891a8.00779,8.00779,0,0,1,.03614,3.73047A104.00665,104.00665,0,1,1,104.64111,26.63574a7.99987,7.99987,0,0,1,9.58741,9.58594A88.08481,88.08481,0,0,0,219.77637,141.77051a7.99893,7.99893,0,0,1,9.55176,5.85644Zm-19.14453,11.877C206.80566,159.835,203.40479,160,200,160A104.11791,104.11791,0,0,1,96,56c0-3.4043.16553-6.80566.49414-10.18359A88.6001,88.6001,0,0,0,59.45605,72.80664,87.01707,87.01707,0,0,0,40,128a88.09957,88.09957,0,0,0,88,88A87.01573,87.01573,0,0,0,183.19287,196.544,88.59273,88.59273,0,0,0,210.18408,159.50586Z"/>
</svg>
