<svg id="Flat" xmlns="http://www.w3.org/2000/svg" viewBox="0 0 256 256">
  <g opacity="0.2">
    <path d="M216.66238,152.64951A92.03175,92.03175,0,0,1,103.35039,39.338l.00255.00078A92.01376,92.01376,0,1,0,216.66147,152.64624Z"/>
  </g>
  <path d="M224.30762,150.29346a8.00288,8.00288,0,0,0-10.01416-5.28955A84.03122,84.03122,0,0,1,111.01514,41.6377a8.00207,8.00207,0,0,0-9.96582-9.96192,100.01386,100.01386,0,1,0,123.29,123.2207A8.0018,8.0018,0,0,0,224.30762,150.29346ZM128,212A84.0154,84.0154,0,0,1,92.75391,51.72705a100.00586,100.00586,0,0,0,111.519,111.519A84.30691,84.30691,0,0,1,128,212Z"/>
</svg>
