<svg id="Flat" xmlns="http://www.w3.org/2000/svg" viewBox="0 0 256 256">
  <g opacity="0.2">
    <path d="M223.532,137.53892A96.00374,96.00374,0,1,1,118.449,32.46915l.00005.00075a80.03385,80.03385,0,0,0,105.08326,105.069Z"/>
  </g>
  <path d="M128,232A104.00385,104.00385,0,0,1,117.6626,24.50806a7.99974,7.99974,0,0,1,8.14013,11.1101,72.03439,72.03439,0,0,0,94.57959,94.5669,7.99992,7.99992,0,0,1,11.11133,8.13916A104.01246,104.01246,0,0,1,128,232ZM106.59473,42.62207A88.002,88.002,0,1,0,213.38135,149.39478,88.07912,88.07912,0,0,1,106.59473,42.62207Z"/>
</svg>
