<svg id="Flat" xmlns="http://www.w3.org/2000/svg" viewBox="0 0 256 256">
  <g opacity="0.2">
    <path d="M221.567,149.56784A96.0849,96.0849,0,0,1,106.43219,34.43294l-.00127-.00029A96.01213,96.01213,0,1,0,221.56729,149.56932Z"/>
  </g>
  <path d="M227.22363,143.91113a7.99965,7.99965,0,0,0-7.44629-2.14062A88.08879,88.08879,0,0,1,114.22852,36.22119a7.99975,7.99975,0,0,0-9.58741-9.58545A104.00615,104.00615,0,1,0,229.36426,151.35791,8.00058,8.00058,0,0,0,227.22363,143.91113Zm-44.03076,52.6333A87.018,87.018,0,0,1,128,216a88.09957,88.09957,0,0,1-88-88,87.01573,87.01573,0,0,1,19.456-55.19287A88.59277,88.59277,0,0,1,96.49414,45.81641C96.16553,49.19482,96,52.5957,96,56A104.11791,104.11791,0,0,0,200,160q5.10718,0,10.18408-.49414A88.59106,88.59106,0,0,1,183.19287,196.54443Z"/>
</svg>
