<svg id="Flat" xmlns="http://www.w3.org/2000/svg" viewBox="0 0 256 256">
  <g opacity="0.2">
    <path d="M216.66238,152.64951A92.03175,92.03175,0,0,1,103.35039,39.338l.00255.00078A92.01376,92.01376,0,1,0,216.66147,152.64624Z"/>
  </g>
  <path d="M248,88a8.00008,8.00008,0,0,1-8,8H224v16a8,8,0,0,1-16,0V96H192a8,8,0,0,1,0-16h16V64a8,8,0,0,1,16,0V80h16A8.00008,8.00008,0,0,1,248,88ZM152,48h8v8a8,8,0,0,0,16,0V48h8a8,8,0,0,0,0-16h-8V24a8,8,0,0,0-16,0v8h-8a8,8,0,0,0,0,16Zm72.251,102.11621a8.00623,8.00623,0,0,1,.08838,4.78125A100.01394,100.01394,0,1,1,101.05029,31.67578a8.00267,8.00267,0,0,1,9.96485,9.96192A84.0314,84.0314,0,0,0,214.30127,145.002a8.00409,8.00409,0,0,1,9.94971,5.11426Zm-19.978,13.12988A100.00523,100.00523,0,0,1,92.75391,51.72754,84.01519,84.01519,0,1,0,204.273,163.24609Z"/>
</svg>
