<svg id="Flat" xmlns="http://www.w3.org/2000/svg" viewBox="0 0 256 256">
  <g opacity="0.2">
    <path d="M128,104l.00007-80H108A56,56,0,0,0,52,80v24Z"/>
  </g>
  <path d="M148,16H108A64.07239,64.07239,0,0,0,44,80v96a64.07239,64.07239,0,0,0,64,64h40a64.07239,64.07239,0,0,0,64-64V80A64.07239,64.07239,0,0,0,148,16Zm48,64V96H136V32h12A48.05468,48.05468,0,0,1,196,80ZM108,32h12V96H60V80A48.05468,48.05468,0,0,1,108,32Zm40,192H108a48.05468,48.05468,0,0,1-48-48V112H196v64A48.05468,48.05468,0,0,1,148,224Z"/>
</svg>
