<svg id="Flat" xmlns="http://www.w3.org/2000/svg" viewBox="0 0 256 256">
  <g opacity="0.2">
    <circle cx="180" cy="172" r="28"/>
  </g>
  <g opacity="0.2">
    <circle cx="52" cy="204" r="28"/>
  </g>
  <path d="M212.92285,25.69434a7.9979,7.9979,0,0,0-6.86328-1.45557l-128,32A7.99964,7.99964,0,0,0,72,64V174.0835A35.98908,35.98908,0,1,0,88,204V118.24609l112-28V142.0835A35.98908,35.98908,0,1,0,216,172V32A7.99874,7.99874,0,0,0,212.92285,25.69434ZM52,224a20,20,0,1,1,20-20A20.02229,20.02229,0,0,1,52,224ZM88,101.75391V70.24609l112-28V73.75391ZM180,192a20,20,0,1,1,20-20A20.02229,20.02229,0,0,1,180,192Z"/>
</svg>
