<svg xmlns="http://www.w3.org/2000/svg" viewBox="0 0 256 256"><g opacity="0.2"><path d="M37.4,47.6,96,216.9c2.5,7.3,12.9,7.1,15.2-.3L134.8,140a7.5,7.5,0,0,1,5.3-5.2l76.5-23.6c7.4-2.3,7.6-12.7.3-15.2L47.6,37.4A8,8,0,0,0,37.4,47.6Z"/></g><path d="M103.5,230.3a15.8,15.8,0,0,1-15.1-10.8L29.8,50.2A16,16,0,0,1,50.2,29.8L219.5,88.4a15.9,15.9,0,0,1,10.8,15.4,15.8,15.8,0,0,1-11.3,15l-76.6,23.6L118.8,219a15.6,15.6,0,0,1-15,11.2ZM45,44.9h0l58.6,169.4h0l23.5-76.6a16.1,16.1,0,0,1,10.6-10.6l76.6-23.5Zm0,0Z"/></svg>