<svg xmlns="http://www.w3.org/2000/svg" viewBox="0 0 256 256"><g opacity="0.2"><path d="M216,48H40a8,8,0,0,0-8,8V216l32-16,32,16,32-16,32,16,32-16,32,16V56A8,8,0,0,0,216,48ZM112,160H64V96h48Z"/></g><path d="M216,40H40A16,16,0,0,0,24,56V216a7.9,7.9,0,0,0,3.8,6.8,8,8,0,0,0,7.8.4L64,208.9l28.4,14.3a8.3,8.3,0,0,0,7.2,0L128,208.9l28.4,14.3a8.5,8.5,0,0,0,7.2,0L192,208.9l28.4,14.3a8,8,0,0,0,7.8-.4A7.9,7.9,0,0,0,232,216V56A16,16,0,0,0,216,40Zm0,163.1-20.4-10.3a8.3,8.3,0,0,0-7.2,0L160,207.1l-28.4-14.3a8.5,8.5,0,0,0-7.2,0L96,207.1,67.6,192.8a8.3,8.3,0,0,0-7.2,0L40,203.1V56H216ZM136,112a8,8,0,0,1,8-8h48a8,8,0,0,1,0,16H144A8,8,0,0,1,136,112Zm0,32a8,8,0,0,1,8-8h48a8,8,0,0,1,0,16H144A8,8,0,0,1,136,144ZM64,168h48a8,8,0,0,0,8-8V96a8,8,0,0,0-8-8H64a8,8,0,0,0-8,8v64A8,8,0,0,0,64,168Zm8-64h32v48H72Z"/></svg>