<svg id="Flat" xmlns="http://www.w3.org/2000/svg" viewBox="0 0 256 256">
  <g opacity="0.2">
    <path d="M32,208a16,16,0,0,0,16-16V56a8,8,0,0,1,8-8H224a8,8,0,0,1,8,8V192a16,16,0,0,1-16,16Z"/>
  </g>
  <g>
    <path d="M88,104H192a8,8,0,0,0,0-16H88a8,8,0,0,0,0,16Z"/>
    <path d="M88,136H192a8,8,0,0,0,0-16H88a8,8,0,0,0,0,16Z"/>
    <path d="M88,168H192a8,8,0,0,0,0-16H88a8,8,0,0,0,0,16Z"/>
    <path d="M224,40H56A16.01833,16.01833,0,0,0,40,56V192a8,8,0,0,1-16,0V80A8,8,0,0,0,8,80V192.10645A24.02715,24.02715,0,0,0,32,216H216a24.0275,24.0275,0,0,0,24-24V56A16.01833,16.01833,0,0,0,224,40Zm0,152a8.00917,8.00917,0,0,1-8,8H54.62891A23.89077,23.89077,0,0,0,56,192V56H224Z"/>
  </g>
</svg>
