<svg id="Flat" xmlns="http://www.w3.org/2000/svg" viewBox="0 0 256 256">
  <g opacity="0.2">
    <path d="M32,200a16,16,0,0,0,16-16V64a8,8,0,0,1,8-8H216a8,8,0,0,1,8,8V184a16,16,0,0,1-16,16Z"/>
  </g>
  <path d="M88,112a8.00039,8.00039,0,0,1,8-8h80a8,8,0,0,1,0,16H96A8.00039,8.00039,0,0,1,88,112Zm8,40h80a8,8,0,0,0,0-16H96a8,8,0,0,0,0,16ZM232,64V184a24.0275,24.0275,0,0,1-24,24H32A24.02715,24.02715,0,0,1,8,184.10645V88a8,8,0,0,1,16,0v96a8,8,0,0,0,16,0V64A16.01833,16.01833,0,0,1,56,48H216A16.01833,16.01833,0,0,1,232,64Zm-16,0H56V184a23.89077,23.89077,0,0,1-1.37109,8H208a8.00917,8.00917,0,0,0,8-8Z"/>
</svg>
