<svg id="Flat" xmlns="http://www.w3.org/2000/svg" viewBox="0 0 256 256">
  <g opacity="0.2">
    <path d="M216,48H40a8.00009,8.00009,0,0,0-8,8V216l32-16,32,16,32-16,32,16,32-16,32,16V56A8.00009,8.00009,0,0,0,216,48ZM112,160H64V96h48Z"/>
  </g>
  <path d="M216,40H40A16.01833,16.01833,0,0,0,24,56V216a7.99951,7.99951,0,0,0,11.57812,7.15527L64,208.94434l28.42188,14.21093a7.99634,7.99634,0,0,0,7.15624,0L128,208.94434l28.42188,14.21093a8.00049,8.00049,0,0,0,7.15624,0L192,208.94434l28.42188,14.21093A7.99951,7.99951,0,0,0,232,216V56A16.01833,16.01833,0,0,0,216,40Zm0,163.05566-20.42188-10.21093a7.99634,7.99634,0,0,0-7.15624,0L160,207.05566l-28.42188-14.21093a8.00049,8.00049,0,0,0-7.15624,0L96,207.05566,67.57812,192.84473a7.99634,7.99634,0,0,0-7.15624,0L40,203.05566V56H216ZM136,112a8.00039,8.00039,0,0,1,8-8h48a8,8,0,0,1,0,16H144A8.00039,8.00039,0,0,1,136,112Zm0,32a8.00039,8.00039,0,0,1,8-8h48a8,8,0,0,1,0,16H144A8.00039,8.00039,0,0,1,136,144ZM64,168h48a8.00039,8.00039,0,0,0,8-8V96a8.00039,8.00039,0,0,0-8-8H64a8.00039,8.00039,0,0,0-8,8v64A8.00039,8.00039,0,0,0,64,168Zm8-64h32v48H72Z"/>
</svg>
