<svg xmlns="http://www.w3.org/2000/svg" viewBox="0 0 256 256"><g opacity="0.2"><polygon points="128 160 96 160 96 128 168 56 200 88 128 160"/></g><path d="M229.6,58.3l-32-32a8,8,0,0,0-11.3,0l-96,96A8.1,8.1,0,0,0,88,128v32a8,8,0,0,0,8,8h32a7.9,7.9,0,0,0,5.6-2.3l96-96A8,8,0,0,0,229.6,58.3ZM124.7,152H104V131.3l64-64L188.7,88ZM200,76.7,179.3,56,192,43.3,212.7,64Z"/><path d="M216,112a8,8,0,0,0-8,8v88H48V48h88a8,8,0,0,0,0-16H48A16,16,0,0,0,32,48V208a16,16,0,0,0,16,16H208a16,16,0,0,0,16-16V120A8,8,0,0,0,216,112Z"/></svg>