<svg id="Flat" xmlns="http://www.w3.org/2000/svg" viewBox="0 0 256 256">
  <g opacity="0.2">
    <polygon points="128 160 96 160 96 128 168 56 200 88 128 160"/>
  </g>
  <g>
    <path d="M229.65723,58.34326l-32-32a8.00034,8.00034,0,0,0-11.31446,0l-96,96A8.00035,8.00035,0,0,0,88,128v32a8.00008,8.00008,0,0,0,8,8h32a8.00076,8.00076,0,0,0,5.65723-2.34326l96-96A8,8,0,0,0,229.65723,58.34326ZM124.68652,152H104V131.31372L168,67.314l20.68628,20.68628Zm75.31372-75.31372L179.314,56,192,43.31372,212.68652,64Z"/>
    <path d="M216,112a8.00024,8.00024,0,0,0-8,8v88H48V48h88a8,8,0,0,0,0-16H48A16.01818,16.01818,0,0,0,32,48V208a16.01833,16.01833,0,0,0,16,16H208a16.01833,16.01833,0,0,0,16-16V120A8.00024,8.00024,0,0,0,216,112Z"/>
  </g>
</svg>
