<svg id="Flat" xmlns="http://www.w3.org/2000/svg" viewBox="0 0 256 256">
  <g opacity="0.2">
    <polygon points="216 159.992 160 159.992 160 216 216 159.992"/>
  </g>
  <path d="M208,32H48A16.01833,16.01833,0,0,0,32,48V208a16.01833,16.01833,0,0,0,16,16H156.68652A15.89354,15.89354,0,0,0,168,219.31348L219.31348,168A15.89557,15.89557,0,0,0,224,156.68652V48A16.01833,16.01833,0,0,0,208,32ZM48,48H208V151.99219H160a7.99977,7.99977,0,0,0-8,8V208H48ZM196.69452,167.99219,168,196.68652V167.99219Z"/>
</svg>
