<svg xmlns="http://www.w3.org/2000/svg" viewBox="0 0 256 256"><g opacity="0.2"><polygon points="216 160 160 160 160 216 216 160"/></g><path d="M96,104h64a8,8,0,0,0,0-16H96a8,8,0,0,0,0,16Z"/><path d="M96,136h64a8,8,0,0,0,0-16H96a8,8,0,0,0,0,16Z"/><path d="M128,152H96a8,8,0,0,0,0,16h32a8,8,0,0,0,0-16Z"/><path d="M224,156.7V48a16,16,0,0,0-16-16H48A16,16,0,0,0,32,48V208a16,16,0,0,0,16,16H156.7a15.9,15.9,0,0,0,11.3-4.7L219.3,168a16.3,16.3,0,0,0,3.3-4.9h.1A17.4,17.4,0,0,0,224,156.7ZM48,48H208V152H160a8,8,0,0,0-8,8v48H48ZM196.7,168,168,196.7V168Z"/></svg>