<svg id="Flat" xmlns="http://www.w3.org/2000/svg" viewBox="0 0 256 256">
  <g opacity="0.2">
    <polygon points="216 159.992 160 159.992 160 216 216 159.992"/>
  </g>
  <g>
    <path d="M96,104h64a8,8,0,0,0,0-16H96a8,8,0,0,0,0,16Z"/>
    <path d="M96,136h64a8,8,0,0,0,0-16H96a8,8,0,0,0,0,16Z"/>
    <path d="M128,152H96a8,8,0,0,0,0,16h32a8,8,0,0,0,0-16Z"/>
    <path d="M224,156.68652V48a16.01833,16.01833,0,0,0-16-16H48A16.01833,16.01833,0,0,0,32,48V208a16.01833,16.01833,0,0,0,16,16H156.68652A15.89354,15.89354,0,0,0,168,219.31348L219.31348,168a15.97516,15.97516,0,0,0,3.31891-4.854c.00628-.01465.01416-.02881.02038-.04346A15.94517,15.94517,0,0,0,224,156.68652ZM48,48H208V151.99219H160a7.99977,7.99977,0,0,0-8,8V208H48ZM196.69446,167.99219,168,196.68652V167.99219Z"/>
  </g>
</svg>
