<svg id="Flat" xmlns="http://www.w3.org/2000/svg" viewBox="0 0 256 256">
  <path d="M208,48.00586v152a23.99994,23.99994,0,0,1-24,24H72a23.99994,23.99994,0,0,1-24-24v-152a7.99993,7.99993,0,0,1,8-8H200A7.99993,7.99993,0,0,1,208,48.00586Z" opacity="0.2"/>
  <path d="M168,128.00586a8.00008,8.00008,0,0,1-8,8H96a8,8,0,1,1,0-16h64A8.00008,8.00008,0,0,1,168,128.00586Zm-8,24H96a8,8,0,1,0,0,16h64a8,8,0,0,0,0-16Zm56-104v152a32.03667,32.03667,0,0,1-32,32H72a32.03667,32.03667,0,0,1-32-32v-152a16.01833,16.01833,0,0,1,16-16H72v-8a8,8,0,0,1,16,0v8h32v-8a8,8,0,1,1,16,0v8h32v-8a8,8,0,1,1,16,0v8h16A16.01833,16.01833,0,0,1,216,48.00586Zm-16,0H184v8a8,8,0,0,1-16,0v-8H136v8a8,8,0,0,1-16,0v-8H88v8a8,8,0,0,1-16,0v-8H56v152a16.01833,16.01833,0,0,0,16,16H184a16.01833,16.01833,0,0,0,16-16Z"/>
</svg>
