<svg id="Flat" xmlns="http://www.w3.org/2000/svg" viewBox="0 0 256 256">
  <g opacity="0.2">
    <circle cx="128" cy="128" r="96"/>
  </g>
  <g>
    <path d="M128,24A104,104,0,1,0,232,128,104.11791,104.11791,0,0,0,128,24Zm0,192a88,88,0,1,1,88-88A88.09957,88.09957,0,0,1,128,216Z"/>
    <path d="M154.53223,121.89551A32.00326,32.00326,0,1,0,98.51855,91.541a7.99952,7.99952,0,0,0,14.73438,6.23437,15.98946,15.98946,0,0,1,11.51172-9.45019,16.3405,16.3405,0,0,1,6.46582-.001,15.98941,15.98941,0,0,1,12.44433,12.44043,16.25627,16.25627,0,0,1,.001,6.46582,15.83711,15.83711,0,0,1-2.30664,5.56445L97.69727,171.06934A8.00367,8.00367,0,0,0,103.999,184.001c.10547,0,.21192-.00293.31836-.00684H152a8,8,0,0,0,0-16H119.99707l34.30566-45.77734C154.38184,122.11133,154.458,122.00391,154.53223,121.89551Z"/>
  </g>
</svg>
