<svg id="Flat" xmlns="http://www.w3.org/2000/svg" viewBox="0 0 256 256">
  <g opacity="0.2">
    <circle cx="128" cy="128" r="96"/>
  </g>
  <g>
    <path d="M128,24A104,104,0,1,0,232,128,104.11791,104.11791,0,0,0,128,24Zm0,192a88,88,0,1,1,88-88A88.09957,88.09957,0,0,1,128,216Z"/>
    <path d="M146,116.81348a35.75168,35.75168,0,0,0-20.34814-4.75782l16.20166-28.06152a7.99959,7.99959,0,0,0-13.85547-8L96.83374,129.97119l-.0105.01709-.001.00195a36.02518,36.02518,0,0,0,31.11816,54.01465,36.202,36.202,0,0,0,9.377-1.24218A35.999,35.999,0,0,0,146,116.81348Zm-.67871,41.17578a20.00039,20.00039,0,1,1,1.99707-15.17676A19.86995,19.86995,0,0,1,145.32129,157.98926Z"/>
  </g>
</svg>
