<svg id="Flat" xmlns="http://www.w3.org/2000/svg" viewBox="0 0 256 256">
  <g opacity="0.2">
    <circle cx="128" cy="128" r="96"/>
  </g>
  <g>
    <path d="M128,24A104,104,0,1,0,232,128,104.11791,104.11791,0,0,0,128,24Zm0,192a88,88,0,1,1,88-88A88.09957,88.09957,0,0,1,128,216Z"/>
    <path d="M151.89844,87.99609a8,8,0,0,0,0-16H111.90137a8.0005,8.0005,0,0,0-7.89746,6.72168L96.20215,126.9209a7.99988,7.99988,0,0,0,13.55371,6.93555,19.99951,19.99951,0,1,1,0,28.28418,7.99983,7.99983,0,1,0-11.3125,11.31445,36.0003,36.0003,0,1,0,25.45508-61.457,36.20266,36.20266,0,0,0-9.2666,1.19726l4.0791-25.19922Z"/>
  </g>
</svg>
