<svg id="Flat" xmlns="http://www.w3.org/2000/svg" viewBox="0 0 256 256">
  <g opacity="0.2">
    <rect x="40" y="40" width="176" height="176" rx="8"/>
  </g>
  <path d="M149.08643,123.33423c.042-.04126.08593-.07984.12744-.12134a30,30,0,1,0-42.42676.001c.04126.04126.085.07934.12646.12036A34.52613,34.52613,0,0,0,103.958,125.958a34,34,0,1,0,48.084,0A34.52613,34.52613,0,0,0,149.08643,123.33423Zm-30.98584-11.43384A14.002,14.002,0,1,1,128,116,13.91193,13.91193,0,0,1,118.10059,111.90039Zm22.627,50.82715A17.99816,17.99816,0,1,1,146,150,17.879,17.879,0,0,1,140.72754,162.72754ZM208,32H48A16.01833,16.01833,0,0,0,32,48V208a16.01833,16.01833,0,0,0,16,16H208a16.01833,16.01833,0,0,0,16-16V48A16.01833,16.01833,0,0,0,208,32Zm0,176H48V48H208l.00977,160Z"/>
</svg>
