<svg id="Flat" xmlns="http://www.w3.org/2000/svg" viewBox="0 0 256 256">
  <g opacity="0.2">
    <circle cx="128" cy="128" r="96"/>
  </g>
  <path d="M128,24A104,104,0,1,0,232,128,104.11791,104.11791,0,0,0,128,24Zm0,192a88,88,0,1,1,88-88A88.09957,88.09957,0,0,1,128,216Zm26.30273-93.7832-34.30566,45.77734H152a8,8,0,0,1,0,16H104.31738c-.10644.00391-.21289.00684-.31836.00684a8.00343,8.00343,0,0,1-6.30175-12.93164L141.37012,112.794a16.00416,16.00416,0,1,0-28.11621-15.01954A8,8,0,1,1,98.51758,91.542a32.00411,32.00411,0,1,1,56.01269,30.35547C154.457,122.00586,154.38184,122.1123,154.30273,122.2168Z"/>
</svg>
