<svg id="Flat" xmlns="http://www.w3.org/2000/svg" viewBox="0 0 256 256">
  <g opacity="0.2">
    <rect x="40" y="40" width="176" height="176" rx="8"/>
  </g>
  <path d="M208,32H48A16.01833,16.01833,0,0,0,32,48V208a16.01833,16.01833,0,0,0,16,16H208a16.01833,16.01833,0,0,0,16-16V48A16.01833,16.01833,0,0,0,208,32Zm0,176H48V48H208l.00977,160Zm-80-96q-.91517,0-1.81909.04614l16.68823-27.95141a8,8,0,0,0-13.73828-8.20118L96.88574,129.90137c-.06152.103-.11035.20984-.16675.31445A35.98766,35.98766,0,1,0,128,112Zm0,56a20,20,0,1,1,20-20A20.02229,20.02229,0,0,1,128,168Z"/>
</svg>
