<svg xmlns="http://www.w3.org/2000/svg" viewBox="0 0 256 256"><g opacity="0.2"><rect x="40" y="40" width="176" height="176" rx="8"/></g><path d="M118.6,88l-4.1,25.2a37.3,37.3,0,0,1,9.4-1.2,36,36,0,1,1-25.5,61.5,8,8,0,1,1,11.2-11.4,20.1,20.1,0,0,0,14.3,5.9,19.9,19.9,0,0,0,14.2-5.9,19.8,19.8,0,0,0,0-28.2,19.9,19.9,0,0,0-14.2-5.9,20.1,20.1,0,0,0-14.3,5.9,8,8,0,0,1-13.5-7l7.8-48.2a8,8,0,0,1,7.9-6.7H152a8,8,0,0,1,0,16ZM224,48V208a16,16,0,0,1-16,16H48a16,16,0,0,1-16-16V48A16,16,0,0,1,48,32H208A16,16,0,0,1,224,48ZM208,208V48H48V208Z"/></svg>