<svg id="Flat" xmlns="http://www.w3.org/2000/svg" viewBox="0 0 256 256">
  <g opacity="0.2">
    <circle cx="128" cy="128" r="96"/>
  </g>
  <path d="M128,24A104,104,0,1,0,232,128,104.11791,104.11791,0,0,0,128,24Zm0,192a88,88,0,1,1,88-88A88.09957,88.09957,0,0,1,128,216ZM118.63965,92,114.542,117.21094a36.413,36.413,0,0,1,9.33985-1.209A35.99912,35.99912,0,1,1,98.35449,177.4668a7.99985,7.99985,0,1,1,11.291-11.33594,20.20173,20.20173,0,0,0,28.47461-.001,19.91646,19.91646,0,0,0-.001-28.25976,20.20412,20.20412,0,0,0-28.47461.001,7.99971,7.99971,0,0,1-13.541-6.95214l7.835-48.20215A8.00076,8.00076,0,0,1,111.835,76H152a8,8,0,0,1,0,16Z"/>
</svg>
