<svg id="Flat" xmlns="http://www.w3.org/2000/svg" viewBox="0 0 256 256">
  <g opacity="0.2">
    <circle cx="128" cy="128" r="96"/>
  </g>
  <path d="M128,24A104,104,0,1,0,232,128,104.11791,104.11791,0,0,0,128,24Zm0,192a88,88,0,1,1,88-88A88.09957,88.09957,0,0,1,128,216Zm0-108q-.917,0-1.82324.04639l16.6914-27.94385a8.00015,8.00015,0,0,0-13.73632-8.20508l-32.249,53.98926c-.11157.18652-.20776.37793-.30224.56982A35.98951,35.98951,0,1,0,128,108Zm0,56a20,20,0,1,1,20-20A20.02229,20.02229,0,0,1,128,164Z"/>
</svg>
