<svg id="Flat" xmlns="http://www.w3.org/2000/svg" viewBox="0 0 256 256">
  <g opacity="0.2">
    <circle cx="128" cy="128" r="96"/>
  </g>
  <path d="M128,24A104,104,0,1,0,232,128,104.11791,104.11791,0,0,0,128,24Zm0,192a88,88,0,1,1,88-88A88.09957,88.09957,0,0,1,128,216Zm0-140a36,36,0,0,0,0,72q.91626,0,1.82129-.04639l-16.68945,27.94385a8.00015,8.00015,0,1,0,13.73632,8.20508l32.249-53.99512c.09668-.16162.178-.32812.262-.49365A35.97518,35.97518,0,0,0,128,76Zm-20,36a20,20,0,1,1,20,20A20.02229,20.02229,0,0,1,108,112Z"/>
</svg>
