<svg id="Flat" xmlns="http://www.w3.org/2000/svg" viewBox="0 0 256 256">
  <g opacity="0.2">
    <circle cx="128" cy="128" r="96"/>
  </g>
  <path d="M128,24A104,104,0,1,0,232,128,104.11791,104.11791,0,0,0,128,24Zm0,192a88,88,0,1,1,88-88A88.09957,88.09957,0,0,1,128,216Zm21.459-89.45508a35.99995,35.99995,0,0,1-50.9121,50.91113,8.00052,8.00052,0,0,1,11.31445-11.31445A19.99959,19.99959,0,1,0,124.00293,132a8,8,0,0,1-6.55469-12.58691l19.1875-27.4209H103.99707a8,8,0,0,1,0-16h48a8,8,0,0,1,6.55469,12.58691L137.5332,118.61816A35.92893,35.92893,0,0,1,149.459,126.54492Z"/>
</svg>
