<svg id="Flat" xmlns="http://www.w3.org/2000/svg" viewBox="0 0 256 256">
  <g opacity="0.2">
    <rect x="40" y="40" width="176" height="176" rx="8"/>
  </g>
  <path d="M208,32H48A16.01833,16.01833,0,0,0,32,48V208a16.01833,16.01833,0,0,0,16,16H208a16.01833,16.01833,0,0,0,16-16V48A16.01833,16.01833,0,0,0,208,32Zm0,176H48V48H208l.00977,160ZM128,76a36,36,0,0,0,0,72q.91626,0,1.82129-.04614l-16.68945,27.9436a8.00015,8.00015,0,1,0,13.73632,8.20508l32.249-53.99512c.09668-.16162.178-.32812.262-.49341A35.97537,35.97537,0,0,0,128,76Zm-20,36a20,20,0,1,1,20,20A20.02229,20.02229,0,0,1,108,112Z"/>
</svg>
