<svg id="Flat" xmlns="http://www.w3.org/2000/svg" viewBox="0 0 256 256">
  <g opacity="0.2">
    <rect x="40" y="40" width="176" height="176" rx="8"/>
  </g>
  <path d="M149.457,126.54834a35.99719,35.99719,0,1,1-50.90723,50.9082,8.00018,8.00018,0,0,1,11.31446-11.31347,19.99683,19.99683,0,1,0,14.13965-34.13868,7.99971,7.99971,0,0,1-6.55469-12.58642L136.63281,92H104a8,8,0,0,1,0-16h47.99414a7.99973,7.99973,0,0,1,6.55469,12.58643L137.5332,118.62305A35.94154,35.94154,0,0,1,149.457,126.54834ZM224,48V208a16.01833,16.01833,0,0,1-16,16H48a16.01833,16.01833,0,0,1-16-16V48A16.01833,16.01833,0,0,1,48,32H208A16.01833,16.01833,0,0,1,224,48ZM208.00977,207.99951,208,48H48V208H208Z"/>
</svg>
