<svg id="Flat" xmlns="http://www.w3.org/2000/svg" viewBox="0 0 256 256">
  <g opacity="0.2">
    <circle cx="128" cy="128" r="96"/>
  </g>
  <g>
    <path d="M128,24A104,104,0,1,0,232,128,104.11791,104.11791,0,0,0,128,24Zm0,192a88,88,0,1,1,88-88A88.09957,88.09957,0,0,1,128,216Z"/>
    <path d="M148,103.99414a8.00039,8.00039,0,0,0-8,8v24H111.30762l20.23437-57.332a7.99987,7.99987,0,1,0-15.08789-5.32422L92.45605,141.332A8.00071,8.00071,0,0,0,100,151.99414h40v24a8,8,0,1,0,16,0v-64A8.00039,8.00039,0,0,0,148,103.99414Z"/>
  </g>
</svg>
