<svg id="Flat" xmlns="http://www.w3.org/2000/svg" viewBox="0 0 256 256">
  <g opacity="0.2">
    <rect x="40" y="40" width="176" height="176" rx="8"/>
  </g>
  <path d="M156,112v64a8,8,0,0,1-16,0V152H100a8.00052,8.00052,0,0,1-7.54395-10.6626l23.998-68A8,8,0,0,1,131.542,78.6626L111.30664,136H140V112a8,8,0,0,1,16,0Zm68-64V208a16.01833,16.01833,0,0,1-16,16H48a16.01833,16.01833,0,0,1-16-16V48A16.01833,16.01833,0,0,1,48,32H208A16.01833,16.01833,0,0,1,224,48ZM208.00977,208,208,48H48V208H208.00977Z"/>
</svg>
