<svg xmlns="http://www.w3.org/2000/svg" viewBox="0 0 256 256"><g opacity="0.2"><rect x="40" y="40" width="176" height="176" rx="8"/></g><path d="M128,72c-13,0-24,6.7-31.2,19-5.7,9.7-8.8,22.9-8.8,37s3.1,27.3,8.8,37c7.2,12.3,18.2,19,31.2,19s24-6.7,31.2-19c5.7-9.7,8.8-22.9,8.8-37s-3.1-27.3-8.8-37C152,78.7,141,72,128,72Zm0,96c-8.9,0-24-8.4-24-40s15.1-40,24-40,24,8.4,24,40S136.9,168,128,168ZM208,32H48A16,16,0,0,0,32,48V208a16,16,0,0,0,16,16H208a16,16,0,0,0,16-16V48A16,16,0,0,0,208,32Zm0,176H48V48H208V208Z"/></svg>