<svg id="Flat" xmlns="http://www.w3.org/2000/svg" viewBox="0 0 256 256">
  <g opacity="0.2">
    <circle cx="128" cy="128" r="96"/>
  </g>
  <path d="M128,72c-12.95605,0-24.02246,6.73633-31.1582,18.96777C91.13965,100.74023,88,113.89258,88,128c0,14.10645,3.13965,27.25781,8.8418,37.03125C103.97852,177.26367,115.044,184,128,184s24.02148-6.73633,31.1582-18.96875C164.86035,155.25781,168,142.10645,168,128c0-14.10742-3.13965-27.25977-8.8418-37.03223C152.02246,78.73633,140.95605,72,128,72Zm0,96c-8.91406,0-24-8.4248-24-40s15.08594-40,24-40,24,8.4248,24,40S136.91406,168,128,168Zm0-144A104,104,0,1,0,232,128,104.11791,104.11791,0,0,0,128,24Zm0,192a88,88,0,1,1,88-88A88.09957,88.09957,0,0,1,128,216Z"/>
</svg>
