<svg id="Flat" xmlns="http://www.w3.org/2000/svg" viewBox="0 0 256 256">
  <g opacity="0.2">
    <circle cx="128" cy="128" r="96"/>
  </g>
  <g>
    <path d="M128,24A104,104,0,1,0,232,128,104.11791,104.11791,0,0,0,128,24Zm0,192a88,88,0,1,1,88-88A88.09957,88.09957,0,0,1,128,216Z"/>
    <path d="M137.5332,114.61816,158.55176,84.5791a8,8,0,0,0-6.55469-12.58691h-48a8,8,0,0,0,0,16h32.63867l-19.1875,27.4209A8,8,0,0,0,124.00293,128a20,20,0,1,1-14.1416,34.1416,8.00052,8.00052,0,0,0-11.31445,11.31445,36,36,0,1,0,38.98632-58.83789Z"/>
  </g>
</svg>
