<svg id="Flat" xmlns="http://www.w3.org/2000/svg" viewBox="0 0 256 256">
  <g opacity="0.2">
    <rect x="40" y="40" width="176" height="176" rx="8"/>
  </g>
  <g>
    <path d="M148,103.99414a8.00008,8.00008,0,0,0-8,8v24H111.30762L131.542,78.6626a8,8,0,0,0-15.08789-5.3252l-23.998,67.99414A8.00052,8.00052,0,0,0,100,151.99414h40v24a8,8,0,1,0,16,0v-64A8.00008,8.00008,0,0,0,148,103.99414Z"/>
    <path d="M208,32H48A16.01833,16.01833,0,0,0,32,48V208a16.01833,16.01833,0,0,0,16,16H208a16.01833,16.01833,0,0,0,16-16V48A16.01833,16.01833,0,0,0,208,32Zm0,176H48V48H208l.00977,160Z"/>
  </g>
</svg>
