<svg id="Flat" xmlns="http://www.w3.org/2000/svg" viewBox="0 0 256 256">
  <g opacity="0.2">
    <rect x="40" y="40" width="176" height="176" rx="8"/>
  </g>
  <g>
    <path d="M137.5332,114.61816l21.01856-30.03955a7.99972,7.99972,0,0,0-6.55469-12.58642h-48a8,8,0,0,0,0,16h32.63867l-19.1875,27.42138A7.99973,7.99973,0,0,0,124.00293,128a20,20,0,1,1-14.14258,34.1416,7.99983,7.99983,0,1,0-11.3125,11.31445,35.99964,35.99964,0,1,0,38.98535-58.83789Z"/>
    <path d="M208,32H48A16.01833,16.01833,0,0,0,32,48V208a16.01833,16.01833,0,0,0,16,16H208a16.01833,16.01833,0,0,0,16-16V48A16.01833,16.01833,0,0,0,208,32Zm0,176H48V48H208l.00977,159.99951Z"/>
  </g>
</svg>
