<svg id="Flat" xmlns="http://www.w3.org/2000/svg" viewBox="0 0 256 256">
  <g opacity="0.2">
    <rect x="40" y="40" width="176" height="176" rx="8"/>
  </g>
  <path d="M158.49023,79.32227a8.00469,8.00469,0,0,1,1.09961,7.208l-32,96a8.0005,8.0005,0,1,1-15.17968-5.06054L140.90039,92H104a8,8,0,0,1,0-16h48A8.00182,8.00182,0,0,1,158.49023,79.32227ZM224,48V208a16.01833,16.01833,0,0,1-16,16H48a16.01833,16.01833,0,0,1-16-16V48A16.01833,16.01833,0,0,1,48,32H208A16.01833,16.01833,0,0,1,224,48ZM208.00977,208,208,48H48V208H208.00977Z"/>
</svg>
