<svg id="Flat" xmlns="http://www.w3.org/2000/svg" viewBox="0 0 256 256">
  <g opacity="0.2">
    <rect x="40" y="40" width="176" height="176" rx="8"/>
  </g>
  <path d="M208,32H48A16.01833,16.01833,0,0,0,32,48V208a16.01833,16.01833,0,0,0,16,16H208a16.01833,16.01833,0,0,0,16-16V48A16.01833,16.01833,0,0,0,208,32Zm0,176H48V48H208l.00977,159.99951Zm-53.69727-85.78418-34.30566,45.77832H152a8,8,0,0,1,0,16H104.31738c-.10644.0044-.21191.00635-.31836.00635a8.00251,8.00251,0,0,1-6.30078-12.93164L141.37012,112.793a16.0039,16.0039,0,1,0-28.11621-15.01856A8,8,0,1,1,98.51758,91.542a32.00411,32.00411,0,1,1,56.01269,30.35547C154.457,122.00537,154.38184,122.11182,154.30273,122.21582Z"/>
</svg>
