<svg id="Flat" xmlns="http://www.w3.org/2000/svg" viewBox="0 0 256 256">
  <g opacity="0.2">
    <circle cx="128" cy="128" r="96"/>
  </g>
  <path d="M128,24A104,104,0,1,0,232,128,104.11791,104.11791,0,0,0,128,24Zm0,192a88,88,0,1,1,88-88A88.09957,88.09957,0,0,1,128,216Zm21.08643-92.666c.042-.041.08593-.07959.12744-.12109a30,30,0,1,0-42.42676.001c.04126.041.085.0791.12646.12011a34.65613,34.65613,0,0,0-2.95556,2.624,34,34,0,1,0,48.084,0A34.65613,34.65613,0,0,0,149.08643,123.334Zm-30.98584-11.43359A14.002,14.002,0,1,1,128,116,13.91193,13.91193,0,0,1,118.10059,111.90039Zm22.627,50.82715A17.99816,17.99816,0,1,1,146,150,17.879,17.879,0,0,1,140.72754,162.72754Z"/>
</svg>
