<svg id="Flat" xmlns="http://www.w3.org/2000/svg" viewBox="0 0 256 256">
  <g opacity="0.2">
    <rect x="40" y="40" width="176" height="176" rx="8"/>
  </g>
  <g>
    <path d="M152,71.99707H104a8,8,0,0,0,0,16h36.90039L112.41016,173.4668a8.0005,8.0005,0,1,0,15.17968,5.06054l32-96A8.00022,8.00022,0,0,0,152,71.99707Z"/>
    <path d="M208,32H48A16.01833,16.01833,0,0,0,32,48V208a16.01833,16.01833,0,0,0,16,16H208a16.01833,16.01833,0,0,0,16-16V48A16.01833,16.01833,0,0,0,208,32Zm0,176H48V48H208l.00977,160Z"/>
  </g>
</svg>
