<svg xmlns="http://www.w3.org/2000/svg" viewBox="0 0 256 256"><g opacity="0.2"><rect x="40" y="40" width="176" height="176" rx="8"/></g><path d="M149.1,123.3h.1a30,30,0,1,0-42.4,0h.1A24.4,24.4,0,0,0,104,126a33.9,33.9,0,1,0,48,48,33.8,33.8,0,0,0,0-48A24.4,24.4,0,0,0,149.1,123.3Zm-31-11.4A14,14,0,1,1,128,116,14.1,14.1,0,0,1,118.1,111.9Zm22.6,50.8A17.9,17.9,0,1,1,146,150,17.9,17.9,0,0,1,140.7,162.7ZM208,32H48A16,16,0,0,0,32,48V208a16,16,0,0,0,16,16H208a16,16,0,0,0,16-16V48A16,16,0,0,0,208,32Zm0,176H48V48H208V208Z"/></svg>