<svg xmlns="http://www.w3.org/2000/svg" viewBox="0 0 256 256"><g opacity="0.2"><circle cx="128" cy="128" r="96"/></g><path d="M128,24A104,104,0,1,0,232,128,104.2,104.2,0,0,0,128,24Zm0,192a88,88,0,1,1,88-88A88.1,88.1,0,0,1,128,216ZM118.6,92l-4.1,25.2a37.3,37.3,0,0,1,9.4-1.2,36,36,0,1,1-25.5,61.5,8,8,0,1,1,11.2-11.4,20.1,20.1,0,0,0,14.3,5.9,19.9,19.9,0,0,0,14.2-5.9,19.8,19.8,0,0,0,0-28.2,19.9,19.9,0,0,0-14.2-5.9,20.1,20.1,0,0,0-14.3,5.9,8,8,0,0,1-13.5-7l7.8-48.2a8,8,0,0,1,7.9-6.7H152a8,8,0,0,1,0,16Z"/></svg>