<svg id="Flat" xmlns="http://www.w3.org/2000/svg" viewBox="0 0 256 256">
  <g opacity="0.2">
    <circle cx="128" cy="128" r="96"/>
  </g>
  <g>
    <path d="M128,24A104,104,0,1,0,232,128,104.11791,104.11791,0,0,0,128,24Zm0,192a88,88,0,1,1,88-88A88.09957,88.09957,0,0,1,128,216Z"/>
    <path d="M135.76563,72.94629a7.9995,7.9995,0,0,0-8.2129.39746L103.57031,89.33594a8.00036,8.00036,0,0,0,8.877,13.3125l11.54394-7.69824v81.04394a8,8,0,0,0,16,0V80A8.001,8.001,0,0,0,135.76563,72.94629Z"/>
  </g>
</svg>
