<svg xmlns="http://www.w3.org/2000/svg" viewBox="0 0 256 256"><g opacity="0.2"><path d="M215.9,73.7l-84-47.5a7.8,7.8,0,0,0-7.8,0l-84,47.5a8.1,8.1,0,0,0-4.1,7v94.6a8.1,8.1,0,0,0,4.1,7l84,47.5a7.8,7.8,0,0,0,7.8,0l84-47.5a8.1,8.1,0,0,0,4.1-7V80.7A8.1,8.1,0,0,0,215.9,73.7ZM128,164a36,36,0,1,1,36-36A36,36,0,0,1,128,164Z"/></g><path d="M219.9,66.7l-84-47.4a15.9,15.9,0,0,0-15.8,0l-84,47.4a16.2,16.2,0,0,0-8.1,14v94.6a16.2,16.2,0,0,0,8.1,14l84,47.4a15.9,15.9,0,0,0,15.8,0l84-47.4a16.2,16.2,0,0,0,8.1-14V80.7A16.2,16.2,0,0,0,219.9,66.7ZM212,175.3l-84,47.5L44,175.3V80.7l84-47.5,84,47.5Z"/><path d="M84,128a44,44,0,1,0,44-44A44,44,0,0,0,84,128Zm72,0a28,28,0,1,1-28-28A28.1,28.1,0,0,1,156,128Z"/></svg>