<svg id="Flat" xmlns="http://www.w3.org/2000/svg" viewBox="0 0 256 256">
  <g opacity="0.2">
    <path d="M215.93555,73.70325l-84-47.47815a7.99926,7.99926,0,0,0-7.87305,0l-84,47.47815A8.00029,8.00029,0,0,0,35.999,80.66772v94.66456a8.00065,8.00065,0,0,0,4.06348,6.9646l84,47.47814a7.99987,7.99987,0,0,0,7.87305,0l84-47.47814a8.00064,8.00064,0,0,0,4.06347-6.9646V80.66772A8.00028,8.00028,0,0,0,215.93555,73.70325ZM127.999,164a36,36,0,1,1,36-36A35.99991,35.99991,0,0,1,127.999,164Z"/>
  </g>
  <g>
    <path d="M219.87207,66.73877l-84-47.478a16.08529,16.08529,0,0,0-15.74609,0l-84,47.478a16.0253,16.0253,0,0,0-8.127,13.92871v94.665a16.0253,16.0253,0,0,0,8.127,13.92871l84,47.478a16.08113,16.08113,0,0,0,15.74609,0l84-47.478a16.02529,16.02529,0,0,0,8.12695-13.92871v-94.665A16.02529,16.02529,0,0,0,219.87207,66.73877ZM211.999,175.33252l-84,47.478-84-47.478v-94.665l84-47.478,84,47.478Z"/>
    <path d="M83.999,128a44,44,0,1,0,44-44A44.04978,44.04978,0,0,0,83.999,128Zm72,0a28,28,0,1,1-28-28A28.03145,28.03145,0,0,1,155.999,128Z"/>
  </g>
</svg>
