<svg id="Flat" xmlns="http://www.w3.org/2000/svg" viewBox="0 0 256 256">
  <path d="M127.92969,112V224a79.72685,79.72685,0,0,1-32.00006-6.65674h.00006V129.06641Z" opacity="0.2"/>
  <path d="M183.92969,148a12,12,0,1,1-12-12A12,12,0,0,1,183.92969,148Zm29.40576,17.28711A88.00589,88.00589,0,0,1,93.26227,224.87793a7.94708,7.94708,0,0,1-1.1568-.50684,88.23542,88.23542,0,0,1-51.48212-69.30615l-.00439-.03857A88.46174,88.46174,0,0,1,39.92969,144a87.47889,87.47889,0,0,1,14.0874-47.707A36.02189,36.02189,0,0,1,70,28a8.00159,8.00159,0,0,1,3.478.79541L187.68457,83.92969A20.0004,20.0004,0,0,0,186,44a8,8,0,0,1,0-16,36,36,0,0,1,0,72,8.00156,8.00156,0,0,1-3.478-.79541L126.25781,72.04248a72.06449,72.06449,0,0,0-70.25952,69.2544L92.0946,122.04541l.053-.02832L124.165,104.94141A8,8,0,0,1,135.92969,112V215.54541a71.8116,71.8116,0,0,0,61.87841-54.11719,7.99984,7.99984,0,1,1,15.52735,3.85889ZM119.92969,125.3335l-16,8.5332v78.00488a71.41806,71.41806,0,0,0,16,3.67334ZM64.368,83.20215A88.16158,88.16158,0,0,1,101.459,60.0708L68.31543,44.07031A20.00736,20.00736,0,0,0,64.368,83.20215ZM87.92969,203.833V142.3999L57.43481,158.66406A72.1802,72.1802,0,0,0,87.92969,203.833Z"/>
</svg>
