<svg id="Flat" xmlns="http://www.w3.org/2000/svg" viewBox="0 0 256 256">
  <g opacity="0.2">
    <path d="M164.45079,32H91.54921a8,8,0,0,0-5.65686,2.34315l-51.5492,51.5492A8,8,0,0,0,32,91.54921v72.90158a8,8,0,0,0,2.34315,5.65686l51.5492,51.5492A8,8,0,0,0,91.54921,224h72.90158a8,8,0,0,0,5.65686-2.34315l51.5492-51.5492A8,8,0,0,0,224,164.45079V91.54921a8,8,0,0,0-2.34315-5.65686l-51.5492-51.5492A8,8,0,0,0,164.45079,32Z"/>
  </g>
  <path d="M164.45068,232H91.54932a15.89479,15.89479,0,0,1-11.31421-4.68677L28.68652,175.7644A15.89362,15.89362,0,0,1,24,164.45068V91.54932a15.89479,15.89479,0,0,1,4.68677-11.31421L80.2356,28.68652A15.89362,15.89362,0,0,1,91.54932,24h72.90136a15.89479,15.89479,0,0,1,11.31421,4.68677L227.31348,80.2356A15.89362,15.89362,0,0,1,232,91.54932v72.90136a15.89479,15.89479,0,0,1-4.68677,11.31421L175.7644,227.31348A15.89362,15.89362,0,0,1,164.45068,232ZM91.54932,40,40.00024,91.54907,40,164.45068l51.54907,51.54908L164.45068,216l51.54908-51.54907L216,91.54932,164.45068,40Z"/>
</svg>
