<svg id="Flat" xmlns="http://www.w3.org/2000/svg" viewBox="0 0 256 256">
  <g opacity="0.2">
    <path d="M33.10781,74.617A7.99475,7.99475,0,0,0,32,78.67878v98.64244a8,8,0,0,0,4.07791,6.9726l88,49.5A7.99528,7.99528,0,0,0,128,234.82122l.01036.00009L128.94915,128,33.108,74.61714Z"/>
  </g>
  <path d="M229.927,70.82178c-.02612-.04883-.04639-.09864-.07373-.147-.01172-.0205-.02612-.03906-.03809-.05957a15.98628,15.98628,0,0,0-5.97168-5.88183l-87.999-49.5a16.09525,16.09525,0,0,0-15.68848,0L32.155,64.73389A15.99355,15.99355,0,0,0,26.168,70.646c-.01539.02685-.03394.05127-.04908.07861-.02441.04346-.042.08887-.06543.13281a15.9818,15.9818,0,0,0-2.05371,7.82129v98.64258A16.02109,16.02109,0,0,0,32.156,191.2666l88.001,49.50049a15.97809,15.97809,0,0,0,7.23486,2.02148c.18189.01416.363.03077.54834.03272h.07227c.25195,0,.50049-.01465.74658-.0376a15.95877,15.95877,0,0,0,7.08447-2.01709l88-49.5a16.01817,16.01817,0,0,0,8.15625-13.94531V78.67871A15.98036,15.98036,0,0,0,229.927,70.82178ZM127.99975,29.17871l79.74366,44.856-30.62061,17.396L96.43969,46.93115Zm.91016,89.64258L48.37866,73.96582,80.03833,56.15723l80.76513,44.54492ZM39.99975,87.61279l80.90747,45.06494-.78808,89.71094L39.99975,177.32129Zm96.12183,134.64014.78686-89.57373,32.11377-18.24463v38.07617a8,8,0,0,0,16,0v-47.166l30.97754-17.59864v89.5752Z"/>
</svg>
