<svg xmlns="http://www.w3.org/2000/svg" viewBox="0 0 256 256"><g opacity="0.2"><path d="M33.2,74.6a8.1,8.1,0,0,0-1.1,4.1v98.6a8.1,8.1,0,0,0,4.1,7l88,49.5a7.8,7.8,0,0,0,3.9,1h0l1-106.8L33.2,74.6Z"/></g><path d="M230,70.8h-.1a16.7,16.7,0,0,0-5.9-5.9L136,15.2a16.2,16.2,0,0,0-15.7,0l-88,49.5a16.2,16.2,0,0,0-6,5.9.1.1,0,0,1-.1.1v.2a15,15,0,0,0-2.1,7.8v98.6a16.1,16.1,0,0,0,8.2,14l88,49.5a16.5,16.5,0,0,0,7.2,2h1.4a16.5,16.5,0,0,0,7.1-2l88-49.5a16.2,16.2,0,0,0,8.1-14V78.7A15.6,15.6,0,0,0,230,70.8ZM128.1,29.2,207.9,74,177.2,91.4,96.6,46.9Zm.9,89.6L48.5,74,80.2,56.2l80.7,44.5ZM40.1,87.6,121,132.7l-.8,89.7L40.1,177.3Zm96.1,134.7.8-89.6,32.1-18.3v38.1a8,8,0,0,0,16,0V105.3l31-17.6v89.6Z"/></svg>