<svg id="Flat" xmlns="http://www.w3.org/2000/svg" viewBox="0 0 256 256">
  <g opacity="0.2">
    <path d="M127.88742,230.81054a7.99524,7.99524,0,0,1-3.93643-1.03549l-84-47.47826a8,8,0,0,1-4.06354-6.96451V80.66772a7.99474,7.99474,0,0,1,1.102-4.05194l.00063.00037L128.94915,128l-1.0617,102.81036Z"/>
  </g>
  <path d="M225.82544,72.83154c-.0315-.0581-.05616-.11816-.08936-.17627-.02685-.04687-.05908-.08886-.08667-.13476a15.99449,15.99449,0,0,0-5.88891-5.78223l-84-47.47754a16.08155,16.08155,0,0,0-15.7461-.00049l-84.001,47.479a15.99051,15.99051,0,0,0-5.959,5.89844c-.01514.02636-.0332.0498-.04785.07617-.02588.04638-.04517.09472-.07007.1416a15.98426,15.98426,0,0,0-2.04907,7.8125V175.332a16.028,16.028,0,0,0,8.127,13.92969l84,47.47754a15.97414,15.97414,0,0,0,7.30957,2.0415c.15967.01123.31812.02735.48047.02881.02832.00049.05664.001.085.001.21729,0,.43067-.01563.64356-.03272a15.97171,15.97171,0,0,0,7.22754-2.03808l84.001-47.479a16.02639,16.02639,0,0,0,8.126-13.92871V80.668A15.98584,15.98584,0,0,0,225.82544,72.83154Zm-97.938-39.64209,75.81347,42.85108L176.9768,91.32129,100.572,48.62891Zm1.01562,85.6211L52.21631,75.96,84.26538,57.84521l76.5,42.7461ZM43.88745,89.63428,120.8999,132.6665l-.88477,85.69434L43.88745,175.332Zm92.13086,128.58056.8833-85.54687,32.1206-18.36719v34.21a8,8,0,0,0,16,0V105.15186L211.88745,89.79v85.542Z"/>
</svg>
