<svg xmlns="http://www.w3.org/2000/svg" viewBox="0 0 256 256"><path d="M163.5,131.5l9.2,9.2a16.1,16.1,0,0,1,0,22.6L152,184,72,104,92.7,83.3a16.1,16.1,0,0,1,22.6,0l9.2,9.2a8,8,0,0,0,11.6-.3L191,31a24,24,0,0,1,34,34l-61.2,54.9A8,8,0,0,0,163.5,131.5Z" opacity="0.2"/><path d="M230.6,25.4a31.9,31.9,0,0,0-45.2,0l-.3.3L130.2,86.9,121,77.7a23.9,23.9,0,0,0-34,0L10.3,154.3a8.1,8.1,0,0,0,0,11.4l80,80a8.2,8.2,0,0,0,11.4,0L178.3,169a23.9,23.9,0,0,0,0-34l-9.2-9.2,61.2-54.9.3-.3A31.9,31.9,0,0,0,230.6,25.4ZM96,228.7,81.9,214.6,107.4,189a8,8,0,0,0-11.3-11.3L70.6,203.3,53.9,186.6,79.4,161a8,8,0,0,0-11.3-11.3L42.6,175.3,27.3,160,72,115.3,140.7,184ZM219.5,59.2l-61,54.7a16.3,16.3,0,0,0-5.4,11.5,16,16,0,0,0,4.7,11.7l9.2,9.2a8,8,0,0,1,0,11.4l-15,15L83.3,104l15-15a8,8,0,0,1,11.4,0l9.2,9.2a16,16,0,0,0,11.7,4.7,16.3,16.3,0,0,0,11.5-5.4h0l54.7-61a16.1,16.1,0,0,1,22.7,22.7Z"/></svg>