<svg id="Flat" xmlns="http://www.w3.org/2000/svg" viewBox="0 0 256 256">
  <g opacity="0.2">
    <path d="M208,196c0-19.99414,20-40,20-40s20,20.00586,20,40a20,20,0,0,1-40,0Z"/>
  </g>
  <g>
    <path d="M220.68652,124A15.89427,15.89427,0,0,0,216,112.68652L131.31348,27.999A16.02162,16.02162,0,0,0,108.68555,28l-28.689,28.689L55.51465,32.207A8.00018,8.00018,0,0,0,44.2002,43.52051L68.68286,68.00317,16.001,120.68555A15.99888,15.99888,0,0,0,16,143.31348L100.68555,228l.001.001A16.02134,16.02134,0,0,0,123.31445,228L215.999,135.31445A15.895,15.895,0,0,0,220.68652,124ZM112.00684,216.69287,112,216.68652,27.31445,132,79.99683,79.31714l23.37475,23.37475a28.00138,28.00138,0,1,0,11.31421-11.31372L91.31055,68.00293,120,39.31348,204.68555,124ZM128,104.01123a11.99488,11.99488,0,1,1-8.48535,3.50928A11.96332,11.96332,0,0,1,128,104.01123Z"/>
    <path d="M233.65723,150.34375a7.99945,7.99945,0,0,0-11.31446,0C221.42969,151.25635,200,172.958,200,196a28,28,0,0,0,56,0C256,172.958,234.57031,151.25635,233.65723,150.34375ZM228,208a12.01343,12.01343,0,0,1-12-12c0-9.71045,6.50586-20.55225,12.01172-27.75391C233.5127,175.42578,240,186.23779,240,196A12.01343,12.01343,0,0,1,228,208Z"/>
  </g>
</svg>
