<svg id="Flat" xmlns="http://www.w3.org/2000/svg" viewBox="0 0 256 256">
  <path d="M40,112v32a8,8,0,0,0,8,8h64l-8,56a24,24,0,0,0,48,0l-8-56h64a8,8,0,0,0,8-8V112Z" opacity="0.2"/>
  <path d="M208,24H72A40.04552,40.04552,0,0,0,32,64v80a16.01833,16.01833,0,0,0,16,16h54.776l-6.69543,46.86816A7.97979,7.97979,0,0,0,96,208a32,32,0,0,0,64,0,7.97979,7.97979,0,0,0-.08057-1.13184L153.224,160H208a16.01833,16.01833,0,0,0,16-16V40A16.01833,16.01833,0,0,0,208,24ZM72,40h88V72a8,8,0,0,0,16,0V40h32l.00629,64H48V64A24.0275,24.0275,0,0,1,72,40Zm71.9917,168.51172a15.99988,15.99988,0,0,1-31.9834,0L118.93829,160h18.12342ZM208,144H48V120H208.00787l.00238,24Z"/>
</svg>
