<svg xmlns="http://www.w3.org/2000/svg" viewBox="0 0 256 256"><g opacity="0.2"><path d="M40,112H216v24a16,16,0,0,1-16,16H153.2a8,8,0,0,0-7.9,9.1L152,208a24,24,0,0,1-48,0l6.7-46.9a8,8,0,0,0-7.9-9.1H56a16,16,0,0,1-16-16Z"/></g><path d="M216,24H72A40,40,0,0,0,32,64v72a24.1,24.1,0,0,0,24,24h46.8l-6.7,46.9A3.7,3.7,0,0,0,96,208a32,32,0,0,0,64,0,3.7,3.7,0,0,0-.1-1.1L153.2,160H200a24.1,24.1,0,0,0,24-24V32A8,8,0,0,0,216,24ZM72,40H176V80a8,8,0,0,0,16,0V40h16v64H48V64A24.1,24.1,0,0,1,72,40ZM200,144H153.2a15.9,15.9,0,0,0-15.8,18.3l6.6,46.2a16,16,0,0,1-32,0l6.6-46.2A15.9,15.9,0,0,0,102.8,144H56a8,8,0,0,1-8-8V120H208v16A8,8,0,0,1,200,144Z"/></svg>