<svg id="Flat" xmlns="http://www.w3.org/2000/svg" viewBox="0 0 256 256">
  <g opacity="0.2">
    <path d="M40,112H216v24a16,16,0,0,1-16,16H153.2241a8,8,0,0,0-7.9196,9.13137L152,208a24,24,0,0,1-48,0l6.69555-46.86862A8,8,0,0,0,102.776,152H56a16,16,0,0,1-16-16Z"/>
  </g>
  <path d="M216,24H72A40.04552,40.04552,0,0,0,32,64v72a24.0275,24.0275,0,0,0,24,24h46.77588l-6.69531,46.86816A7.97979,7.97979,0,0,0,96,208a32,32,0,0,0,64,0,7.97979,7.97979,0,0,0-.08057-1.13184L153.22412,160H200a24.0275,24.0275,0,0,0,24-24V32A8.00008,8.00008,0,0,0,216,24ZM72,40H176V80a8,8,0,0,0,16,0V40h16v64H48V64A24.0275,24.0275,0,0,1,72,40ZM200,144H153.22412a15.99982,15.99982,0,0,0-15.83887,18.2627l6.60645,46.249a15.99988,15.99988,0,0,1-31.9834,0l6.60645-46.24805A15.99983,15.99983,0,0,0,102.77588,144H56a8.00917,8.00917,0,0,1-8-8V120H208v16A8.00917,8.00917,0,0,1,200,144Z"/>
</svg>
