<svg id="Flat" xmlns="http://www.w3.org/2000/svg" viewBox="0 0 256 256">
  <path d="M223.99658,127.17627a96.28708,96.28708,0,0,1-2.38287,22.17822A23.99152,23.99152,0,0,1,198.20935,168H152a24,24,0,0,0-24,24v3.90234A24.00215,24.00215,0,0,1,96.02386,218.5459a96.0165,96.0165,0,0,1,30.98908-186.541C179.84143,31.47266,223.55273,74.34668,223.99658,127.17627Z" opacity="0.2"/>
  <path d="M200.772,53.88965A103.28,103.28,0,0,0,127.99756,24q-.53247,0-1.06543.00488a104.01647,104.01647,0,0,0-33.57227,202.084A32.00105,32.00105,0,0,0,136,195.90234V192a16.01833,16.01833,0,0,1,16-16h46.20947a31.81973,31.81973,0,0,0,31.20508-24.87207,104.49414,104.49414,0,0,0,2.58154-24.01953A103.2063,103.2063,0,0,0,200.772,53.88965Zm13.041,93.6914A15.90194,15.90194,0,0,1,198.20947,160H152a32.03635,32.03635,0,0,0-32,32v3.90234a16.00246,16.00246,0,0,1-21.312,15.10059,88.01467,88.01467,0,0,1,28.40527-170.998c.30029-.0039.59961-.00488.89942-.00488a88.33144,88.33144,0,0,1,88.00439,87.24316A88.50708,88.50708,0,0,1,213.813,147.58105ZM140,76a12,12,0,1,1-12-12A12,12,0,0,1,140,76ZM93.359,108a12,12,0,1,1-4.39234-16.39258A12,12,0,0,1,93.359,108Zm0,40a12,12,0,1,1-16.39234-4.39258A11.99976,11.99976,0,0,1,93.359,148Zm90.06665-52a12,12,0,1,1-16.39233-4.39258A11.99976,11.99976,0,0,1,183.42566,96Z"/>
</svg>
