<svg id="Flat" xmlns="http://www.w3.org/2000/svg" viewBox="0 0 256 256">
  <g opacity="0.2">
    <path d="M210.25072,35.878,23.923,88.432a8,8,0,0,0-1.253,14.9295l85.61084,40.5525a8.00008,8.00008,0,0,1,3.80521,3.80521L152.63852,233.33a8,8,0,0,0,14.9295-1.253L220.122,45.74928A8,8,0,0,0,210.25072,35.878Z"/>
  </g>
  <path d="M223.73633,32.26367a16.01167,16.01167,0,0,0-15.65723-4.085L21.751,80.73242a15.9995,15.9995,0,0,0-2.50586,29.8584l85.61133,40.55273,40.55273,85.61133a15.85235,15.85235,0,0,0,14.41406,9.15235q.687,0,1.38379-.05762A15.86994,15.86994,0,0,0,175.26758,234.249L227.82129,47.9209A16.0173,16.0173,0,0,0,223.73633,32.26367Zm-63.8711,197.63379-39.35839-83.08984,41.26855-41.26856a8.00052,8.00052,0,0,0-11.31445-11.31445l-41.269,41.269L26.10254,96.12891,212.42285,43.57715Z"/>
</svg>
