<svg xmlns="http://www.w3.org/2000/svg" viewBox="0 0 256 256"><g opacity="0.2"><path d="M210.3,35.9,23.9,88.4a8,8,0,0,0-1.2,15l85.6,40.5a7.8,7.8,0,0,1,3.8,3.8l40.5,85.6a8,8,0,0,0,15-1.2L220.1,45.7A7.9,7.9,0,0,0,210.3,35.9Z"/></g><path d="M223.7,32.3a15.9,15.9,0,0,0-15.6-4.1L21.8,80.7a16.1,16.1,0,0,0-2.6,29.9l85.7,40.5,40.5,85.7a16,16,0,0,0,14.4,9.1h1.4a15.9,15.9,0,0,0,14.1-11.6L227.8,47.9A15.9,15.9,0,0,0,223.7,32.3ZM159.9,229.9l-39.4-83.1,41.3-41.3a8,8,0,1,0-11.3-11.3l-41.3,41.3L26.1,96.1,212.4,43.6Z"/></svg>