<svg id="Flat" xmlns="http://www.w3.org/2000/svg" viewBox="0 0 256 256">
  <g opacity="0.2">
    <path d="M120.90154,36.46437,26.30921,205.37925A8,8,0,0,0,35.98,216.822l89.211-31.86106a8,8,0,0,1,5.38138,0l89.211,31.86106a8,8,0,0,0,9.67074-11.44277L134.86164,36.46437A8,8,0,0,0,120.90154,36.46437Z"/>
  </g>
  <path d="M236.43432,201.4707l-94.59179-168.915a16.00119,16.00119,0,0,0-27.92188,0L19.32885,201.47021A16.00042,16.00042,0,0,0,38.67065,224.356l89.21094-31.86084L217.09253,224.356a16.171,16.171,0,0,0,5.44531.95117,16.02221,16.02221,0,0,0,13.89648-23.83643ZM135.88159,178.3623V120a8,8,0,1,0-16,0v58.3623l-86.58789,30.918L127.88159,40.37305l94.584,168.91211Z"/>
</svg>
