<svg id="Flat" xmlns="http://www.w3.org/2000/svg" viewBox="0 0 256 256">
  <g opacity="0.2">
    <path d="M219.53563,121.02,50.62075,26.42762A8,8,0,0,0,39.178,36.09836l31.86106,89.211a8,8,0,0,1,0,5.38138L39.178,219.90164a8,8,0,0,0,11.44277,9.67074l168.91488-94.59233A8,8,0,0,0,219.53563,121.02Z"/>
  </g>
  <path d="M223.44434,114.03906,54.5293,19.44727A16.00042,16.00042,0,0,0,31.64355,38.78906L63.50488,128,31.64355,217.21094a16.0398,16.0398,0,0,0,15.041,21.4082,16.039,16.039,0,0,0,7.8457-2.06641l168.91309-94.59179a16.00165,16.00165,0,0,0,.001-27.92188ZM46.71484,222.584,77.6377,136H136a8,8,0,0,0,0-16H77.63818L46.71973,33.41211,215.626,128Z"/>
</svg>
