<svg xmlns="http://www.w3.org/2000/svg" viewBox="0 0 256 256"><path d="M128,24S88,48,88,120H32A96,96,0,0,1,128,24Zm0,0s40,24,40,96h56A96,96,0,0,0,128,24Z" opacity="0.2"/><path d="M232,120A104.2,104.2,0,0,0,128,16h0A104.2,104.2,0,0,0,24,120a8.2,8.2,0,0,0,3.2,6.4h0L120,196v20h-8a8,8,0,0,0,0,16h32a8,8,0,0,0,0-16h-8V196l92.8-69.6h0A8.2,8.2,0,0,0,232,120Zm-16.4-8H175.8c-1.5-37.9-13.9-62.4-25.1-77A88.1,88.1,0,0,1,215.6,112ZM128,34a79.2,79.2,0,0,1,13.9,16.3c7.6,11.6,16.5,31.6,17.9,61.7H96.2c1.4-30.1,10.3-50.1,17.9-61.7A76.5,76.5,0,0,1,128,34Zm26.4,94L128,175.5,101.6,128Zm-71.1,0,19.5,35.1L56,128Zm89.4,0H200l-46.8,35.1ZM105.3,35C94.1,49.6,81.7,74.1,80.2,112H40.4A88.1,88.1,0,0,1,105.3,35Z"/></svg>