<svg id="Flat" xmlns="http://www.w3.org/2000/svg" viewBox="0 0 256 256">
  <g opacity="0.2">
    <rect x="152" y="40" width="64" height="176" rx="8"/>
  </g>
  <g opacity="0.2">
    <rect x="40" y="40" width="64" height="176" rx="8"/>
  </g>
  <g>
    <path d="M208,32H160a16.01833,16.01833,0,0,0-16,16V208a16.01833,16.01833,0,0,0,16,16h48a16.01833,16.01833,0,0,0,16-16V48A16.01833,16.01833,0,0,0,208,32Zm0,176H160V48h48Z"/>
    <path d="M96,32H48A16.01833,16.01833,0,0,0,32,48V208a16.01833,16.01833,0,0,0,16,16H96a16.01833,16.01833,0,0,0,16-16V48A16.01833,16.01833,0,0,0,96,32Zm0,176H48V48H96Z"/>
  </g>
</svg>
