<svg id="Flat" xmlns="http://www.w3.org/2000/svg" viewBox="0 0 256 256">
  <g opacity="0.2">
    <circle cx="127.88745" cy="44" r="28"/>
  </g>
  <g opacity="0.2">
    <path d="M153.91044,134.715,188.657,161.74012a12,12,0,1,0,16.97056-16.97057l-39.598-50.91169A19.93738,19.93738,0,0,0,151.88746,88h-48a19.93739,19.93739,0,0,0-14.14213,5.85786l-39.598,50.91169A12,12,0,1,0,67.1179,161.74012L101.86446,134.715,74.13088,222.3089a12,12,0,0,0,21.75139,10.14284l32.0052-50.37108h0l32.0052,50.37108A12,12,0,0,0,181.644,222.3089Z"/>
  </g>
  <g>
    <path d="M163.88745,44a36,36,0,1,0-36,36A36.04062,36.04062,0,0,0,163.88745,44Zm-36,20a20,20,0,1,1,20-20A20.0226,20.0226,0,0,1,127.88745,64Z"/>
    <path d="M211.67456,139.51367,172.34448,88.94629a7.93269,7.93269,0,0,0-.65723-.74512A27.81868,27.81868,0,0,0,151.88745,80h-48a27.81872,27.81872,0,0,0-19.79981,8.20117,7.93259,7.93259,0,0,0-.65722.74512L44.09936,139.51416A20.00055,20.00055,0,0,0,72.37378,167.7876l14.09961-10.96729-19.832,62.64014a20.00009,20.00009,0,0,0,36.23731,16.897l25.00879-39.35937,25.00879,39.35937a20.00007,20.00007,0,0,0,36.2373-16.897l-19.832-62.64014,14.09961,10.96729a20.00035,20.00035,0,0,0,28.27344-28.27393ZM199.97143,156.083a4.00621,4.00621,0,0,1-5.6582,0,8.0086,8.0086,0,0,0-.74512-.65772L158.822,128.3999a7.99988,7.99988,0,0,0-12.53809,8.72949l27.7334,87.59424a7.95092,7.95092,0,0,0,.377.96631,4.00021,4.00021,0,0,1-7.251,3.38086,8.10027,8.10027,0,0,0-.499-.90967L134.6394,177.79a7.99966,7.99966,0,0,0-13.5039,0L89.13061,228.16113a8.10019,8.10019,0,0,0-.499.90967,4.00022,4.00022,0,0,1-7.251-3.38086,7.951,7.951,0,0,0,.377-.96631L109.491,137.12939a7.99987,7.99987,0,0,0-12.53808-8.72949l-34.7461,27.02539a8.00848,8.00848,0,0,0-.74511.65772,4.00009,4.00009,0,1,1-5.65723-5.65674,7.93269,7.93269,0,0,0,.65723-.74512l39.2539-50.46924A11.916,11.916,0,0,1,103.88745,96h48a11.916,11.916,0,0,1,8.17187,3.21191l39.25391,50.46924a7.93126,7.93126,0,0,0,.65723.74512,4.00032,4.00032,0,0,1,.001,5.65674Z"/>
  </g>
</svg>
