<svg id="Flat" xmlns="http://www.w3.org/2000/svg" viewBox="0 0 256 256">
  <g opacity="0.2">
    <path d="M184,32H72a111.5987,111.5987,0,0,1-29.54346,75.7959L128,240l85.543-132.20459A111.59817,111.59817,0,0,1,184,32ZM128,144a24,24,0,1,1,24-24A23.99994,23.99994,0,0,1,128,144Z"/>
  </g>
  <path d="M219.43164,102.37988A103.6966,103.6966,0,0,1,192,32a8.00039,8.00039,0,0,0-8-8H72a8.00039,8.00039,0,0,0-8,8,103.699,103.699,0,0,1-27.43164,70.38086,8,8,0,0,0-.82813,9.76123l85.543,132.20361c.01026.01612.0232.02979.03369.0459a8.04764,8.04764,0,0,0,.54419.73486c.04078.04883.08619.09278.12818.14063q.23583.26953.49414.51709c.072.06885.14575.13428.22.19971.16162.14355.32934.27929.5022.40918.07006.05273.13818.10693.21.15673a7.941,7.941,0,0,0,1.59985.86866c.062.0249.12549.04541.18823.06884q.33509.126.68311.2212c.084.023.168.04492.25268.06494.2229.05322.449.0957.67847.12988.0835.01221.16553.02783.24951.03809a7.45189,7.45189,0,0,0,1.86524,0c.084-.01026.166-.02588.24951-.03809.22949-.03418.45557-.07666.67847-.12988.08471-.02.1687-.042.25268-.06494q.34863-.09522.68311-.2212c.06274-.02343.12622-.04394.18823-.06884a7.941,7.941,0,0,0,1.59985-.86866c.07178-.0498.1399-.104.21-.15673.17286-.12989.34058-.26563.5022-.40918.07422-.06543.148-.13086.22-.19971q.25891-.24683.49414-.51709c.042-.04785.0874-.0918.12818-.14063a8.04764,8.04764,0,0,0,.54419-.73486c.01049-.01611.02343-.02978.03369-.0459l85.543-132.2041A8.00061,8.00061,0,0,0,219.43164,102.37988ZM128,136a16,16,0,1,1,16-16A16.01833,16.01833,0,0,1,128,136Zm8,76.90967V150.9873a32,32,0,1,0-16,0v61.92286L52.44922,108.51172A119.54691,119.54691,0,0,0,79.73535,40h96.5293a119.54823,119.54823,0,0,0,27.28613,68.51172Z"/>
</svg>
