<svg xmlns="http://www.w3.org/2000/svg" viewBox="0 0 256 256"><path d="M211.4,127.4,184,72H72L44.6,127.4a8.2,8.2,0,0,0,.7,8.3L128,248l82.7-112.3A8.2,8.2,0,0,0,211.4,127.4ZM128,152a20,20,0,1,1,20-20A20.1,20.1,0,0,1,128,152Z" opacity="0.2"/><path d="M218.6,123.9,192,70.1V32a16,16,0,0,0-16-16H80A16,16,0,0,0,64,32V70.1L37.4,123.9a16.1,16.1,0,0,0,1.5,16.6l82.7,112.2a7.9,7.9,0,0,0,12.8,0l82.7-112.2A16.1,16.1,0,0,0,218.6,123.9ZM176,32V64H80V32ZM128,144a12,12,0,1,1,12-12A12,12,0,0,1,128,144Zm8,79.6V158.8a28,28,0,1,0-16,0v64.8L51.8,131,77,80H179l25.2,51Z"/></svg>