<svg id="Flat" xmlns="http://www.w3.org/2000/svg" viewBox="0 0 256 256">
  <g opacity="0.2">
    <path d="M184.00122,24H71.99854a111.60071,111.60071,0,0,1-30.43213,76.75195L128,240l86.29053-139.40039A111.6,111.6,0,0,1,184.00122,24ZM128,136a24,24,0,1,1,24-24A23.99994,23.99994,0,0,1,128,136Z"/>
  </g>
  <path d="M220.125,95.12695a103.60446,103.60446,0,0,1-28.124-71.12646,8.00041,8.00041,0,0,0-8-8.00049H71.999a8.00041,8.00041,0,0,0-8,8.00049A103.58423,103.58423,0,0,1,35.74121,95.26855a7.99965,7.99965,0,0,0-.97168,9.70215l86.43359,139.24805c.01856.03027.04175.05566.06055.08545a8.02474,8.02474,0,0,0,.49.68652c.02027.02539.03809.05323.0586.07862a8.03052,8.03052,0,0,0,.61865.667c.06543.06347.13428.12207.20141.1831.16407.14893.33326.291.50928.42578.075.05762.14942.11475.22632.16944q.31677.22559.65552.42041c.03711.02148.07251.04639.11035.06689a7.92786,7.92786,0,0,0,.84717.4043c.0498.02.10132.03613.15161.05518q.35632.13695.72778.24023c.083.023.166.04395.24951.06445.2273.05518.45826.09912.69263.13477.08423.01269.16724.02832.25171.03808A8.05929,8.05929,0,0,0,128,248h.00488l.01709-.001a8.07942,8.07942,0,0,0,.92774-.06054c.08447-.00977.16748-.02539.25146-.03809.23535-.03564.467-.08057.69531-.13623.082-.02.16358-.04.24488-.063a7.80664,7.80664,0,0,0,.74292-.24609c.04492-.01709.09131-.03125.13574-.04932a7.9346,7.9346,0,0,0,.85229-.40722c.03638-.02.07032-.04395.10621-.06446q.342-.197.66113-.42529c.07446-.05274.14648-.1084.219-.16358q.27063-.20727.52124-.437c.06348-.05761.12842-.11279.18994-.17236a8.06944,8.06944,0,0,0,.62256-.67285c.021-.02588.03931-.0542.06006-.08057a8.03412,8.03412,0,0,0,.48877-.68652c.019-.02979.042-.05567.06055-.085l86.29-139.40039A7.99875,7.99875,0,0,0,220.125,95.12695ZM128,128a16,16,0,1,1,16-16A16.01833,16.01833,0,0,1,128,128Zm8,83.876V142.9873a32,32,0,1,0-16,0v68.95557L51.52051,101.61914A119.38908,119.38908,0,0,0,79.73633,32h96.52832a119.42173,119.42173,0,0,0,28.082,69.46289Z"/>
</svg>
