<svg id="Flat" xmlns="http://www.w3.org/2000/svg" viewBox="0 0 256 256">
  <g opacity="0.2">
    <path d="M192,120,136,64l26.34315-26.34315a8,8,0,0,1,11.3137,0l44.6863,44.6863a8,8,0,0,1,0,11.3137Z"/>
  </g>
  <path d="M228.68652,88A15.89427,15.89427,0,0,0,224,76.68652L179.31348,31.999A16.02162,16.02162,0,0,0,156.68555,32l-120,120.00049a15.95826,15.95826,0,0,0-3.57227,5.45654c-.08179.19873-.15088.40137-.21582.60449A15.99469,15.99469,0,0,0,32,163.31348V208a16.01833,16.01833,0,0,0,16,16H92.68652a16.00065,16.00065,0,0,0,5.28858-.91016c.18994-.062.37939-.126.56543-.20214A15.94475,15.94475,0,0,0,104,219.31348l83.666-83.666,3.4746,13.89844-36.79785,36.79736a8.00018,8.00018,0,0,0,11.31446,11.31348l40-40a8.00081,8.00081,0,0,0,2.10351-7.59717l-6.90136-27.60547L223.999,99.31445A15.895,15.895,0,0,0,228.68652,88ZM48,179.314,76.686,208H48ZM96.00049,204.686,51.314,160l84.6858-84.686L180.68579,120ZM192,108.68555,147.314,64,168,43.31348,212.68555,88Z"/>
</svg>
