<svg xmlns="http://www.w3.org/2000/svg" viewBox="0 0 256 256"><g opacity="0.2"><path d="M192,120,136,64l26.3-26.3a8,8,0,0,1,11.4,0l44.6,44.6a8,8,0,0,1,0,11.4Z"/></g><path d="M228.7,88A15.9,15.9,0,0,0,224,76.7L179.3,32a16.1,16.1,0,0,0-22.6,0L36.7,152a15.4,15.4,0,0,0-3.6,5.5c-.1.2-.1.4-.2.6a15,15,0,0,0-.9,5.2V208a16,16,0,0,0,16,16H92.7a16,16,0,0,0,5.3-.9l.5-.2a15.4,15.4,0,0,0,5.5-3.6l83.7-83.7,3.4,13.9-36.8,36.8a8.1,8.1,0,0,0,0,11.4,8.2,8.2,0,0,0,11.4,0l40-40a8.5,8.5,0,0,0,2.1-7.6l-6.9-27.6L224,99.3A15.9,15.9,0,0,0,228.7,88ZM48,179.3,76.7,208H48Zm48,25.4L51.3,160,136,75.3,180.7,120Zm96-96L147.3,64,168,43.3,212.7,88Z"/></svg>