<svg xmlns="http://www.w3.org/2000/svg" viewBox="0 0 256 256"><path d="M218.3,93.7,192,120,136,64l26.3-26.3a8,8,0,0,1,11.4,0l44.6,44.6A8,8,0,0,1,218.3,93.7Z" opacity="0.2"/><path d="M216,208H115.3l82.4-82.3h0L224,99.3a15.9,15.9,0,0,0,0-22.6L179.3,32a16.1,16.1,0,0,0-22.6,0L36.7,152a15.4,15.4,0,0,0-3.6,5.5c-.1.2-.1.4-.2.6a15,15,0,0,0-.9,5.2V208a16,16,0,0,0,16,16H216a8,8,0,0,0,0-16ZM168,43.3,212.7,88,192,108.7,147.3,64Zm-32,32L152.7,92,68,176.7,51.3,160ZM48,208V179.3L76.7,208Zm31.3-20L164,103.3,180.7,120,96,204.7Z"/></svg>