<svg id="Flat" xmlns="http://www.w3.org/2000/svg" viewBox="0 0 256 256">
  <g opacity="0.2">
    <path d="M195.88226,60.11768A96.00006,96.00006,0,1,0,80,211.145V176L128,72l48,104v35.145A96.01933,96.01933,0,0,0,195.88226,60.11768Z"/>
  </g>
  <path d="M201.53906,54.46094A103.99994,103.99994,0,1,0,54.46094,201.53906,103.99994,103.99994,0,1,0,201.53906,54.46094ZM110.96484,128h34.07032l14.7716,32.00488A23.89974,23.89974,0,0,0,144,166.13086a23.94341,23.94341,0,0,0-32,0,23.89974,23.89974,0,0,0-15.80676-6.126Zm7.38471-16L128,91.09082,137.65045,112ZM152,184a8,8,0,0,1,16,0v22.40527a86.7991,86.7991,0,0,1-16,6.27393Zm-64,0a8,8,0,0,1,16,0v28.6792a86.7991,86.7991,0,0,1-16-6.27393Zm32,31.62842V184a8,8,0,0,1,16,0v31.62842c-2.6452.23681-5.31189.37158-8,.37158S122.6452,215.86523,120,215.62842Zm70.22559-25.40381Q187.23,193.22022,184,195.8833V176a8.00423,8.00423,0,0,0-.73633-3.35254l-48-104a8,8,0,0,0-14.52734,0l-48,104A8.00423,8.00423,0,0,0,72,176v19.8833q-3.22219-2.66822-6.22559-5.65869a87.99958,87.99958,0,1,1,124.45118,0Z"/>
</svg>
