<svg id="Flat" xmlns="http://www.w3.org/2000/svg" viewBox="0 0 256 256">
  <g opacity="0.2">
    <path d="M136,64l56,56,26.34315-26.34315a8,8,0,0,0,0-11.3137l-44.6863-44.6863a8,8,0,0,0-11.3137,0Z"/>
  </g>
  <path d="M224,76.68652,179.31348,32a15.9989,15.9989,0,0,0-22.627,0l-26.342,26.3418-.00128.00146-.00116.001L36.687,151.99951A15.89429,15.89429,0,0,0,32,163.31348V208a16.01833,16.01833,0,0,0,16,16H96a7.99877,7.99877,0,0,0,5.65674-2.34326L224,99.31348A16.01779,16.01779,0,0,0,224,76.68652ZM92.68652,208H48V163.31348l88.00006-88L180.68646,120Zm99.31354-99.31348L147.31366,64,168,43.31348,212.68652,88Z"/>
</svg>
