<svg xmlns="http://www.w3.org/2000/svg" viewBox="0 0 256 256"><g opacity="0.2"><circle cx="180" cy="180" r="28"/></g><g opacity="0.2"><circle cx="76" cy="76" r="28"/></g><path d="M205.7,50.3a8.1,8.1,0,0,0-11.4,0l-144,144a8.1,8.1,0,0,0,0,11.4,8.2,8.2,0,0,0,11.4,0l144-144A8.1,8.1,0,0,0,205.7,50.3Z"/><path d="M76,112a35.9,35.9,0,1,0-25.5-10.5A36.2,36.2,0,0,0,76,112ZM61.9,61.9a19.8,19.8,0,0,1,28.2,0h0a19.8,19.8,0,0,1,0,28.2,19.9,19.9,0,0,1-28.2,0,19.8,19.8,0,0,1,0-28.2Z"/><path d="M205.5,154.5a36.2,36.2,0,0,0-51,0,36,36,0,1,0,51,0Zm-11.4,39.6a19.9,19.9,0,1,1-28.2-28.2,19.8,19.8,0,0,1,28.2,0,19.8,19.8,0,0,1,0,28.2Z"/></svg>