<svg id="Flat" xmlns="http://www.w3.org/2000/svg" viewBox="0 0 256 256">
  <g opacity="0.2">
    <circle cx="180" cy="180" r="28"/>
  </g>
  <g opacity="0.2">
    <circle cx="76" cy="76" r="28"/>
  </g>
  <g>
    <path d="M205.65674,50.34326a7.99915,7.99915,0,0,0-11.31348,0l-144,144a7.99984,7.99984,0,1,0,11.31348,11.31348l144-144A7.99915,7.99915,0,0,0,205.65674,50.34326Z"/>
    <path d="M76,111.98315a35.97178,35.97178,0,1,0-25.45557-10.52734A35.89377,35.89377,0,0,0,76,111.98315ZM61.85791,61.85767a20.02281,20.02281,0,0,1,28.28418,0v.00024a19.99988,19.99988,0,1,1-28.28418-.00024Z"/>
    <path d="M205.45557,154.54419A35.999,35.999,0,1,0,216,180,36.0397,36.0397,0,0,0,205.45557,154.54419Zm-11.31348,39.5979A19.99978,19.99978,0,1,1,200,180,19.86805,19.86805,0,0,1,194.14209,194.14209Z"/>
  </g>
</svg>
