<svg xmlns="http://www.w3.org/2000/svg" viewBox="0 0 256 256"><path d="M151.9,48a24,24,0,1,1-24-24A24,24,0,0,1,151.9,48Z" opacity="0.2"/><path d="M127.9,80a32,32,0,1,0-32-32A32.1,32.1,0,0,0,127.9,80Zm0-48a16,16,0,1,1-16,16A16,16,0,0,1,127.9,32Zm103,100.1A8.1,8.1,0,0,1,224,136a8.7,8.7,0,0,1-4.1-1.1c-.4-.3-35.1-20.6-83.9-22.7V149l62,69.7a8,8,0,0,1-.7,11.3,8.1,8.1,0,0,1-5.3,2,8,8,0,0,1-6-2.7L128,164,70,229.3a8,8,0,0,1-12-10.6L120,149V112.2c-49,2.1-83.5,22.4-83.9,22.7a8,8,0,0,1-8.2-13.8C29.6,120.1,70.4,96,128,96s98.4,24.1,100.1,25.1A8.1,8.1,0,0,1,230.9,132.1Z"/></svg>