<svg xmlns="http://www.w3.org/2000/svg" viewBox="0 0 256 256"><path d="M176,48a24,24,0,1,1-24-24A23.9,23.9,0,0,1,176,48Z" opacity="0.2"/><path d="M152,80a32,32,0,1,0-32-32A32.1,32.1,0,0,0,152,80Zm0-48a16,16,0,1,1-16,16A16,16,0,0,1,152,32Zm64,112a8,8,0,0,1-8,8c-35.5,0-53.1-19-67.3-34.2l-7.1-7.4-14.1,32.5,37.1,26.6A7.8,7.8,0,0,1,160,176v56a8,8,0,0,1-16,0V180.1l-31.1-22.2L79.3,235.2A7.9,7.9,0,0,1,72,240a7.1,7.1,0,0,1-3.2-.7,7.9,7.9,0,0,1-4.1-10.5l37.5-86.3h0l17.7-40.7c-9.4-2.3-21.4.6-35.7,8.8a157.3,157.3,0,0,0-30.5,23.2,8.1,8.1,0,1,1-11.4-11.4c2.6-2.5,61.9-61,99.1-26.6,3.8,3.5,7.5,7.4,11,11.2,13.9,15,27.1,29.1,55.6,29.1A8,8,0,0,1,216,144Z"/></svg>