<svg xmlns="http://www.w3.org/2000/svg" viewBox="0 0 256 256"><path d="M100,44a28,28,0,1,1,28,28A28,28,0,0,1,100,44ZM205.7,144.8,166.1,93.9A19.9,19.9,0,0,0,152,88H104a19.9,19.9,0,0,0-14.1,5.9L50.3,144.8a12,12,0,0,0,16.9,16.9l34.8-27L74.2,222.3A12,12,0,0,0,96,232.5l32-50.4,32,50.4a12,12,0,1,0,21.8-10.2L154,134.7l34.8,27a12,12,0,0,0,16.9-16.9Z" opacity="0.2"/><path d="M164,44a36,36,0,1,0-36,36A36,36,0,0,0,164,44ZM128,64a20,20,0,1,1,20-20A20.1,20.1,0,0,1,128,64Zm83.8,75.5L172.5,88.9l-.7-.7A27.8,27.8,0,0,0,152,80H104a27.8,27.8,0,0,0-19.8,8.2l-.7.7L44.2,139.5a20,20,0,0,0,28.3,28.3l14.1-11L66.8,219.5a19.7,19.7,0,0,0-.5,14.7,20.2,20.2,0,0,0,10.4,11.3,19.8,19.8,0,0,0,15.3.7,20.4,20.4,0,0,0,11-9.8L128,197l25,39.4a20.4,20.4,0,0,0,11,9.8,20.9,20.9,0,0,0,6.9,1.2,19.1,19.1,0,0,0,8.4-1.9,20.2,20.2,0,0,0,10.4-11.3,19.7,19.7,0,0,0-.5-14.7l-19.8-62.7,14.1,11a20,20,0,0,0,28.3-28.3Zm-11.7,16.6a4.2,4.2,0,0,1-5.7,0l-.7-.7-34.8-27a8,8,0,0,0-12.5,8.7l27.7,87.6a10.4,10.4,0,0,0,.4,1,3.5,3.5,0,0,1,.1,3,3.8,3.8,0,0,1-2,2.3,3.7,3.7,0,0,1-3.1.1,3.7,3.7,0,0,1-2.2-2,4.1,4.1,0,0,1-.5-.9l-32-50.4a8.1,8.1,0,0,0-13.6,0l-32,50.4a4.1,4.1,0,0,1-.5.9,3.7,3.7,0,0,1-2.2,2,3.7,3.7,0,0,1-3.1-.1,3.8,3.8,0,0,1-2-2.3,3.5,3.5,0,0,1,.1-3,10.4,10.4,0,0,0,.4-1l27.7-87.6a8,8,0,0,0-3.1-9,7.8,7.8,0,0,0-9.4.3l-34.8,27-.7.7a4,4,0,0,1-5.7-5.7l.7-.7L95.8,99.2A11.9,11.9,0,0,1,104,96h48a11.9,11.9,0,0,1,8.2,3.2l39.2,50.5.7.7a4.1,4.1,0,0,1,1.2,2.9A4.1,4.1,0,0,1,200.1,156.1Z"/></svg>