<svg xmlns="http://www.w3.org/2000/svg" viewBox="0 0 256 256"><path d="M216,49.6V206.4a8,8,0,0,1-9.4,7.9l-160-29.1a8,8,0,0,1-6.6-7.9V78.7a8,8,0,0,1,6.6-7.9l160-29.1A8,8,0,0,1,216,49.6Z" opacity="0.2"/><path d="M240,120H224V49.6a16.1,16.1,0,0,0-5.7-12.3,16.6,16.6,0,0,0-13.2-3.5L45.1,62.9A16,16,0,0,0,32,78.7V120H16a8,8,0,0,0,0,16H32v41.3a16,16,0,0,0,13.1,15.8l160,29.1h0l2.9.2a16.5,16.5,0,0,0,10.3-3.7,16.1,16.1,0,0,0,5.7-12.3V136h16a8,8,0,0,0,0-16ZM48,78.7,208,49.6V120H48ZM208,206.4h0L48,177.3V136H208Z"/></svg>