<svg id="Flat" xmlns="http://www.w3.org/2000/svg" viewBox="0 0 256 256">
  <path d="M151.8877,48a24,24,0,1,1-24-24A24.00029,24.00029,0,0,1,151.8877,48Z" opacity="0.2"/>
  <path d="M127.8877,80a32,32,0,1,0-32-32A32.03667,32.03667,0,0,0,127.8877,80Zm0-48a16,16,0,1,1-16,16A16.01833,16.01833,0,0,1,127.8877,32ZM230.85986,132.11621a7.99852,7.99852,0,0,1-10.97607,2.74414C219.5293,134.64819,184.769,114.27209,136,112.18567v36.77319l61.97949,69.72669a7.99985,7.99985,0,1,1-11.959,10.6289L128,164.042,69.97949,229.31445a7.99985,7.99985,0,1,1-11.959-10.6289L120,148.95886V112.18439c-48.96729,2.07831-83.52246,22.4591-83.88379,22.676a8.00047,8.00047,0,0,1-8.23242-13.7207C29.59473,120.11328,70.4458,96,128,96s98.40527,24.11328,100.11621,25.13965A8.00132,8.00132,0,0,1,230.85986,132.11621Z"/>
</svg>
