<svg xmlns="http://www.w3.org/2000/svg" viewBox="0 0 256 256"><g opacity="0.2"><path d="M92.5,124.8a83.6,83.6,0,0,0,39,38.9,8,8,0,0,0,7.9-.6l25-16.7a7.9,7.9,0,0,1,7.6-.7l46.8,20.1a7.9,7.9,0,0,1,4.8,8.3A48,48,0,0,1,176,216,136,136,0,0,1,40,80,48,48,0,0,1,81.9,32.4a7.9,7.9,0,0,1,8.3,4.8l20.1,46.9a8,8,0,0,1-.6,7.5L93,117A8,8,0,0,0,92.5,124.8Z"/></g><path d="M222,158.4l-46.9-20a15.6,15.6,0,0,0-15.1,1.3l-25.1,16.7a76.5,76.5,0,0,1-35.2-35h0L116.3,96a15.9,15.9,0,0,0,1.4-15.1L97.6,34a16.3,16.3,0,0,0-16.7-9.6A56.2,56.2,0,0,0,32,80c0,79.4,64.6,144,144,144a56.2,56.2,0,0,0,55.6-48.9A16.3,16.3,0,0,0,222,158.4ZM176,208A128.1,128.1,0,0,1,48,80,40,40,0,0,1,82.9,40.3L103,87.2,86.3,112.6a16,16,0,0,0-1,15.7,92.5,92.5,0,0,0,42.8,42.6,16,16,0,0,0,15.7-1.1l25-16.7,46.9,20A40,40,0,0,1,176,208Z"/><path d="M152,96.8a.4.4,0,0,1,.1.3.9.9,0,0,0,.1.5v.3a.8.8,0,0,1,.1.4l.2.4c0,.1.1.2.1.4l.2.3c0,.1.1.2.1.4l.2.3.3.3.2.3a.8.8,0,0,0,.2.4c.1.1.3.2.4.4a.3.3,0,0,1,.1.2h.2l.4.4.4.2.3.3.3.2.3.2h.4l.3.2h.4l.4.2H200a8,8,0,0,0,0-16H179.3l34.4-34.3a8.1,8.1,0,0,0-11.4-11.4L168,76.7V56a8,8,0,0,0-16,0V96.8Z"/></svg>