<svg xmlns="http://www.w3.org/2000/svg" viewBox="0 0 256 256"><g opacity="0.2"><path d="M92.5,124.8a83.6,83.6,0,0,0,39,38.9,8,8,0,0,0,7.9-.6l25-16.7a7.9,7.9,0,0,1,7.6-.7l46.8,20.1a7.9,7.9,0,0,1,4.8,8.3A48,48,0,0,1,176,216,136,136,0,0,1,40,80,48,48,0,0,1,81.9,32.4a7.9,7.9,0,0,1,8.3,4.8l20.1,46.9a8,8,0,0,1-.6,7.5L93,117A8,8,0,0,0,92.5,124.8Z"/></g><path d="M176,224C96.6,224,32,159.4,32,80A56.2,56.2,0,0,1,80.9,24.4,16.3,16.3,0,0,1,97.6,34l20.1,46.9A15.9,15.9,0,0,1,116.3,96L99.7,121.4h0a76.5,76.5,0,0,0,35.2,35L160,139.7a15.6,15.6,0,0,1,15.1-1.3l46.9,20a16.3,16.3,0,0,1,9.6,16.7A56.2,56.2,0,0,1,176,224ZM82.9,40.3A40,40,0,0,0,48,80,128.1,128.1,0,0,0,176,208a40,40,0,0,0,39.7-34.9l-46.9-20-25,16.7a16,16,0,0,1-15.7,1.1,92.5,92.5,0,0,1-42.8-42.6,16,16,0,0,1,1-15.7L103,87.2ZM135,156.5Z"/></svg>