<svg id="Flat" xmlns="http://www.w3.org/2000/svg" viewBox="0 0 256 256">
  <g opacity="0.2">
    <path d="M92.47629,124.81528a84.34782,84.34782,0,0,0,39.05334,38.8759,7.92754,7.92754,0,0,0,7.8287-.59231L164.394,146.40453a8,8,0,0,1,7.58966-.69723l46.837,20.073A7.97345,7.97345,0,0,1,223.619,174.077,48.00882,48.00882,0,0,1,176,216,136,136,0,0,1,40,80,48.00882,48.00882,0,0,1,81.923,32.381a7.97345,7.97345,0,0,1,8.29668,4.79823L110.31019,84.0571a8,8,0,0,1-.65931,7.53226L93.01449,117.00909A7.9287,7.9287,0,0,0,92.47629,124.81528Z"/>
  </g>
  <path d="M176,224C96.59766,224,32,159.40234,32,80A56.07029,56.07029,0,0,1,80.91992,24.44434a16.03842,16.03842,0,0,1,16.65235,9.583l20.09179,46.87793a15.96924,15.96924,0,0,1-1.32031,15.06641L99.709,121.38965l-.00195.00195a76.54083,76.54083,0,0,0,35.20508,35.04981l25.043-16.69336a15.95163,15.95163,0,0,1,15.17871-1.39453l46.83789,20.07324a16.03476,16.03476,0,0,1,9.584,16.65234A56.07032,56.07032,0,0,1,176,224ZM82.86621,40.33105A40.01746,40.01746,0,0,0,48,80,128.1454,128.1454,0,0,0,176,208a40.04283,40.04283,0,0,0,39.68262-34.92578L168.832,153.06055l-25.03515,16.69433a15.98007,15.98007,0,0,1-15.74512,1.14063,92.59535,92.59535,0,0,1-42.76367-42.56934,15.993,15.993,0,0,1,1.03222-15.69824l16.63574-25.419Zm52.1416,116.15625h0Z"/>
</svg>
