<svg xmlns="http://www.w3.org/2000/svg" viewBox="0 0 256 256"><path d="M223.6,174.1A48,48,0,0,1,176,216,136,136,0,0,1,40,80,48,48,0,0,1,81.9,32.4a7.9,7.9,0,0,1,8.3,4.8l20.1,46.9a8,8,0,0,1-.6,7.5L93,117a8,8,0,0,0-.5,7.8,83.6,83.6,0,0,0,39,38.9,8,8,0,0,0,7.9-.6l25-16.7a7.9,7.9,0,0,1,7.6-.7l46.8,20.1A7.9,7.9,0,0,1,223.6,174.1Z" opacity="0.2"/><path d="M222,158.4l-46.9-20a15.6,15.6,0,0,0-15.1,1.3l-25.1,16.7a76.5,76.5,0,0,1-35.2-35h0L116.3,96a15.9,15.9,0,0,0,1.4-15.1L97.6,34a16.3,16.3,0,0,0-16.7-9.6A56.2,56.2,0,0,0,32,80c0,79.4,64.6,144,144,144a56.2,56.2,0,0,0,55.6-48.9A16.3,16.3,0,0,0,222,158.4ZM176,208A128.1,128.1,0,0,1,48,80,40,40,0,0,1,82.9,40.3L103,87.2,86.3,112.6a16,16,0,0,0-1,15.7,92.5,92.5,0,0,0,42.8,42.6,16,16,0,0,0,15.7-1.1l25-16.7,46.9,20A40,40,0,0,1,176,208ZM154.3,101.7a8.1,8.1,0,0,1,0-11.4L188.7,56H168a8,8,0,0,1,0-16h40a8,8,0,0,1,8,8V88a8,8,0,0,1-16,0V67.3l-34.3,34.4a8.2,8.2,0,0,1-11.4,0Z"/></svg>