<svg xmlns="http://www.w3.org/2000/svg" viewBox="0 0 256 256"><g opacity="0.2"><path d="M155.4,101.3a83.9,83.9,0,0,0-55.1.1,8,8,0,0,0-5.2,5.9l-5.8,29.5a8.2,8.2,0,0,1-4.9,5.9L37.1,161.6a7.9,7.9,0,0,1-9.3-2.5,48,48,0,0,1,4-63.3,136.1,136.1,0,0,1,192.4,0,48,48,0,0,1,4,63.3,7.9,7.9,0,0,1-9.3,2.5l-47.3-18.9a8.2,8.2,0,0,1-4.9-5.8l-6.2-29.7A7.9,7.9,0,0,0,155.4,101.3Z"/></g><path d="M229.8,90.2C173.7,34,82.3,34,26.2,90.2a56.1,56.1,0,0,0-4.7,73.9,16.2,16.2,0,0,0,12.6,6.1,17.1,17.1,0,0,0,5.9-1.1l47.4-19a16,16,0,0,0,9.7-11.7l5.9-29.5a76.3,76.3,0,0,1,49.7-.1h0l6.2,29.7a15.9,15.9,0,0,0,9.7,11.6l47.4,19a16.1,16.1,0,0,0,18.5-5A56.1,56.1,0,0,0,229.8,90.2Zm-7.9,64-47.3-18.9-6.3-29.8A15.8,15.8,0,0,0,158,93.7a92.6,92.6,0,0,0-60.4.1,16.1,16.1,0,0,0-10.3,12l-5.9,29.5L34.1,154.2a40,40,0,0,1,3.4-52.7,128.2,128.2,0,0,1,181,0A40,40,0,0,1,221.9,154.2Z"/><path d="M216,192H40a8,8,0,0,0,0,16H216a8,8,0,0,0,0-16Z"/></svg>