<svg xmlns="http://www.w3.org/2000/svg" viewBox="0 0 256 256"><g opacity="0.2"><path d="M155.4,117.3a83.9,83.9,0,0,0-55.1.1,8,8,0,0,0-5.2,5.9l-5.8,29.5a8.2,8.2,0,0,1-4.9,5.9L37.1,177.6a7.9,7.9,0,0,1-9.3-2.5,48,48,0,0,1,4-63.3,136.1,136.1,0,0,1,192.4,0,48,48,0,0,1,4,63.3,7.9,7.9,0,0,1-9.3,2.5l-47.3-18.9a8.2,8.2,0,0,1-4.9-5.8l-6.2-29.7A7.9,7.9,0,0,0,155.4,117.3Z"/></g><path d="M120.9,108.3h0L89.8,74h-.1L53.9,34.6A8,8,0,0,0,42.1,45.4L70,76.1a143.9,143.9,0,0,0-43.8,30.1,56.1,56.1,0,0,0-4.7,73.9,16.2,16.2,0,0,0,12.6,6.1,17.1,17.1,0,0,0,5.9-1.1l47.4-19a16,16,0,0,0,9.7-11.7l5.9-29.5a72.1,72.1,0,0,1,9.1-2.5l90,99A8,8,0,0,0,208,224a8.2,8.2,0,0,0,5.4-2.1,7.9,7.9,0,0,0,.5-11.3Zm-23.3,1.5a16.1,16.1,0,0,0-10.3,12l-5.9,29.5L34.1,170.2a40,40,0,0,1,3.4-52.7,126.8,126.8,0,0,1,44-28.8L100,109.1Z"/><path d="M229.8,106.2a144.4,144.4,0,0,0-109.7-42,8,8,0,1,0,.9,16,128,128,0,0,1,97.5,37.3,40,40,0,0,1,3.4,52.7l-4-1.6a8,8,0,0,0-6,14.8l4.1,1.7a17.1,17.1,0,0,0,5.9,1.1,16.2,16.2,0,0,0,12.6-6.1A56.1,56.1,0,0,0,229.8,106.2Z"/></svg>