<svg id="Flat" xmlns="http://www.w3.org/2000/svg" viewBox="0 0 256 256.00004">
  <g opacity="0.2">
    <polygon points="68 32 68 164 134 164 68 32"/>
  </g>
  <path d="M142,24H68c-.06836,0-.13477.00855-.20264.01026-.16162.004-.32275.01056-.48437.02447-.11426.00971-.22656.02393-.33936.03839-.14258.0185-.28515.03888-.42773.06531-.13281.02435-.2627.05365-.39307.08447-.11816.0282-.23633.05713-.354.09095-.15088.04321-.29883.0924-.44629.14416-.09668.03394-.19238.06751-.28809.10535-.16113.06366-.31836.13421-.47412.20788-.05566.02619-.11279.0459-.168.07349-.03027.0152-.05761.03412-.08789.04968-.14795.0766-.2915.15979-.43408.24512-.0918.05481-.18457.10828-.27393.16626-.11572.07574-.22607.15729-.33789.23871-.10644.07776-.21435.15423-.3164.23657-.084.06811-.16309.14117-.24463.21258-.11719.10267-.23438.20472-.34473.31336-.06543.06445-.12549.13342-.18847.20007-.11426.12036-.228.2403-.3335.36682-.064.07611-.12158.15693-.18213.23542-.09424.12188-.18945.24267-.27637.36926-.07129.10406-.13476.21338-.20166.321-.06591.10669-.13427.21155-.19482.321-.0752.13513-.14111.27551-.2085.41528-.04248.08838-.08838.17493-.12744.26471-.0664.15186-.123.30841-.18017.465-.03125.08538-.06543.16943-.09375.25586-.04834.14813-.08741.2998-.127.45159-.02685.10328-.05664.20563-.07959.31-.02832.13-.04931.26233-.07129.39453-.02246.134-.04541.2674-.06152.40259-.01221.10742-.01855.21619-.02637.32483-.01269.16376-.023.32745-.0249.49225C60.00488,31.93187,60,31.96537,60,32V164a74.08385,74.08385,0,0,0,74,74,8.00008,8.00008,0,0,0,8-8V172a74,74,0,0,0,0-148ZM76,65.88871,121.05566,156H76Zm50,64.22266L80.94434,40H126ZM76.55176,172H126v49.4502A58.12735,58.12735,0,0,1,76.55176,172ZM142,156V40a58,58,0,0,1,0,116Z"/>
  <g opacity="0.2">
    <path d="M134,164h8a66,66,0,0,0,0-132h-8Z"/>
  </g>
</svg>
