<svg id="Flat" xmlns="http://www.w3.org/2000/svg" viewBox="0 0 256 256">
  <path d="M219.25439,96.60034l-26.11962,41.04492a27.99621,27.99621,0,1,0-28.81446,45.27954L134.74951,229.394a8,8,0,0,1-13.49853,0l-39.1128-61.4624C82.75439,167.97192,83.37354,168,84,168a28,28,0,1,0-26.09521-38.14941L36.74561,96.60034a144.01914,144.01914,0,0,1,182.50878,0Z" opacity="0.2"/>
  <path d="M239.30908,79.9873a16.03867,16.03867,0,0,0-4.22119-21.63085,184.07289,184.07289,0,0,0-214.17578,0A16.03867,16.03867,0,0,0,16.69092,79.9873h.00049l97.81,153.70166a15.99973,15.99973,0,0,0,26.99708,0l58.41259-91.79052c.01807-.0293.0376-.05811.05567-.08789Zm-209.0747-8.627a168.06109,168.06109,0,0,1,195.57617.03711l-8.60987,13.5293a151.99626,151.99626,0,0,0-178.40136,0Zm36.83593,57.9917a19.99628,19.99628,0,1,1,19.39551,30.47949ZM128,225.09912,95.54053,174.09155a36.00171,36.00171,0,1,0-37.55469-59.0144L47.40723,98.45361a135.99256,135.99256,0,0,1,161.18554,0L191.30127,125.626a35.99008,35.99008,0,0,0-38.64453,60.7268Zm33.251-52.25146a19.98866,19.98866,0,0,1,21.46289-33.7273Z"/>
</svg>
