<svg xmlns="http://www.w3.org/2000/svg" viewBox="0 0 256 256"><path d="M219.3,96.6l-26.2,41a28,28,0,1,0-28.8,45.3l-29.6,46.5a7.9,7.9,0,0,1-13.4,0L82.1,167.9H84a28,28,0,1,0-26.1-38.1L36.7,96.6a144.1,144.1,0,0,1,182.6,0Z" opacity="0.2"/><path d="M239.3,80a16,16,0,0,0-4.2-21.6,183.9,183.9,0,0,0-214.2,0A16,16,0,0,0,16.7,80h0l97.8,153.7a16,16,0,0,0,27,0l58.4-91.8h.1ZM30.2,71.4a168,168,0,0,1,195.6,0l-8.6,13.5a152.1,152.1,0,0,0-178.4,0Zm36.9,58A19.8,19.8,0,0,1,84,120a20,20,0,0,1,2.5,39.8ZM128,225.1l-32.5-51A36,36,0,0,0,84,104a35.6,35.6,0,0,0-26,11.1L47.4,98.5a135.8,135.8,0,0,1,161.2,0l-17.3,27.1a36,36,0,0,0-38.6,60.8Zm33.3-52.3A19.9,19.9,0,0,1,172,136a20.2,20.2,0,0,1,10.7,3.1Z"/></svg>