<svg id="Flat" xmlns="http://www.w3.org/2000/svg" viewBox="0 0 256 256">
  <path d="M216,48V208a7.99977,7.99977,0,0,1-8,8H48a7.99977,7.99977,0,0,1-8-8V48a7.99977,7.99977,0,0,1,8-8H208A7.99977,7.99977,0,0,1,216,48Z" opacity="0.2"/>
  <path d="M224,48a16.01833,16.01833,0,0,0-16-16H48a15.918,15.918,0,0,0-10.6626,4.10449,7.98162,7.98162,0,0,0-.65088.58106,8.07508,8.07508,0,0,0-.58154.65136A15.91638,15.91638,0,0,0,32,48V208a16.01833,16.01833,0,0,0,16,16H208a15.91437,15.91437,0,0,0,10.66211-4.10449,7.68553,7.68553,0,0,0,1.23242-1.23194A15.91655,15.91655,0,0,0,224,208ZM208.00928,196.69531,59.314,48H208ZM48,59.314,196.686,208H48Z"/>
</svg>
