<svg id="Flat" xmlns="http://www.w3.org/2000/svg" viewBox="0 0 256 256">
  <g opacity="0.2">
    <path d="M128,32a96,96,0,1,0,96,96A95.99975,95.99975,0,0,0,128,32ZM112,160V96l48,32Z"/>
  </g>
  <g>
    <path d="M128,24A104,104,0,1,0,232,128,104.11791,104.11791,0,0,0,128,24Zm0,192a88,88,0,1,1,88-88A88.09957,88.09957,0,0,1,128,216Z"/>
    <path d="M164.4375,121.34375l-48-32A7.99977,7.99977,0,0,0,104,96v64a7.99975,7.99975,0,0,0,12.4375,6.65625l48-32a7.99959,7.99959,0,0,0,0-13.3125ZM120,145.05176V110.94824L145.57812,128Z"/>
  </g>
</svg>
