<svg id="Flat" xmlns="http://www.w3.org/2000/svg" viewBox="0 0 256 256">
  <path d="M200,192a24,24,0,1,1-24-24A23.99994,23.99994,0,0,1,200,192Z" opacity="0.2"/>
  <path d="M242.29883,116.3374l-40-12A7.99991,7.99991,0,0,0,192,112v52.30518A31.98859,31.98859,0,1,0,208,192V122.75244l29.70117,8.91016a8,8,0,1,0,4.59766-15.3252ZM176,208a16,16,0,1,1,16-16A16.01833,16.01833,0,0,1,176,208ZM32,64a8.00008,8.00008,0,0,1,8-8H216a8,8,0,0,1,0,16H40A8.00008,8.00008,0,0,1,32,64Zm0,64a8.00008,8.00008,0,0,1,8-8H160a8,8,0,0,1,0,16H40A8.00008,8.00008,0,0,1,32,128Zm88,64a8.00008,8.00008,0,0,1-8,8H40a8,8,0,0,1,0-16h72A8.00008,8.00008,0,0,1,120,192Z"/>
</svg>
