<svg id="Flat" xmlns="http://www.w3.org/2000/svg" viewBox="0 0 256 256">
  <g opacity="0.2">
    <path d="M228.14833,121.17381,84.1717,33.18517A8,8,0,0,0,72,40.01136V215.98864a8,8,0,0,0,12.1717,6.82619l143.97663-87.98864A8,8,0,0,0,228.14833,121.17381Z"/>
  </g>
  <path d="M79.999,231.98584A15.99352,15.99352,0,0,1,64,215.98877V40.01123A16.00034,16.00034,0,0,1,88.34375,26.35889l143.97656,87.98877h0a16.0003,16.0003,0,0,1,0,27.30468L88.34375,229.64111A15.9968,15.9968,0,0,1,79.999,231.98584ZM80,40.01123V215.98877L223.97656,128Z"/>
</svg>
