<svg xmlns="http://www.w3.org/2000/svg" viewBox="0 0 256 256"><path d="M200,192a24,24,0,1,1-24-24A23.9,23.9,0,0,1,200,192Z" opacity="0.2"/><path d="M242.3,116.3l-40-12a8.2,8.2,0,0,0-7.1,1.3A8.1,8.1,0,0,0,192,112v52.3A32,32,0,1,0,208,192V122.8l29.7,8.9a8,8,0,1,0,4.6-15.4ZM176,208a16,16,0,1,1,16-16A16,16,0,0,1,176,208ZM32,64a8,8,0,0,1,8-8H216a8,8,0,0,1,0,16H40A8,8,0,0,1,32,64Zm0,64a8,8,0,0,1,8-8H160a8,8,0,0,1,0,16H40A8,8,0,0,1,32,128Zm88,64a8,8,0,0,1-8,8H40a8,8,0,0,1,0-16h72A8,8,0,0,1,120,192Z"/></svg>