<svg xmlns="http://www.w3.org/2000/svg" viewBox="0 0 256 256"><path d="M212,132l-57.4,57.4a31.9,31.9,0,0,1-45.2,0L66.6,146.6a31.9,31.9,0,0,1,0-45.2L124,44Z" opacity="0.2"/><path d="M237.7,66.3a8.1,8.1,0,0,0-11.4,0L192,100.7,155.3,64l34.4-34.3a8.1,8.1,0,0,0-11.4-11.4L144,52.7,117.7,26.3a8.1,8.1,0,0,0-11.4,11.4l6.4,6.3L61,95.7a40.1,40.1,0,0,0,0,56.6L76.7,168,26.3,218.3a8.1,8.1,0,0,0,0,11.4,8.2,8.2,0,0,0,11.4,0L88,179.3,103.7,195a40.1,40.1,0,0,0,56.6,0L212,143.3l6.3,6.4a8.2,8.2,0,0,0,11.4,0,8.1,8.1,0,0,0,0-11.4L203.3,112l34.4-34.3A8.1,8.1,0,0,0,237.7,66.3ZM149,183.7a24,24,0,0,1-34,0L72.3,141a24.1,24.1,0,0,1,0-34L124,55.3,200.7,132Z"/></svg>