<svg xmlns="http://www.w3.org/2000/svg" viewBox="0 0 256 256"><path d="M184,184h40v24a8,8,0,0,1-8,8H192a8,8,0,0,1-8-8ZM32,208a8,8,0,0,0,8,8H64a8,8,0,0,0,8-8V184H32ZM194.3,68a7.9,7.9,0,0,0-6.9-4H68.6a7.9,7.9,0,0,0-6.9,4L32,120H224Z" opacity="0.2"/><path d="M240,112H228.6L201.2,64.1A15.9,15.9,0,0,0,187.4,56H68.6a15.9,15.9,0,0,0-13.8,8.1L27.4,112H16a8,8,0,0,0,0,16h8v80a16,16,0,0,0,16,16H64a16,16,0,0,0,16-16V192h96v16a16,16,0,0,0,16,16h24a16,16,0,0,0,16-16V128h8a8,8,0,0,0,0-16ZM68.6,72H187.4l22.8,40H45.8ZM64,208H40V192H64Zm128,0V192h24v16Zm24-32H40V128H216ZM56,152a8,8,0,0,1,8-8H80a8,8,0,0,1,0,16H64A8,8,0,0,1,56,152Zm112,0a8,8,0,0,1,8-8h16a8,8,0,0,1,0,16H176A8,8,0,0,1,168,152ZM96,32a8,8,0,0,1,8-8h48a8,8,0,0,1,0,16H104A8,8,0,0,1,96,32Z"/></svg>