<svg xmlns="http://www.w3.org/2000/svg" viewBox="0 0 256 256"><path d="M88,96l16,120H70.3a8.1,8.1,0,0,1-7.8-6.2L35.1,93.3a8.1,8.1,0,0,1,10-9.6ZM210.9,83.7,168,96,152,216h33.7a8.1,8.1,0,0,0,7.8-6.2L220.9,93.3A8.1,8.1,0,0,0,210.9,83.7Z" opacity="0.2"/><path d="M224.1,79.9l-.3-.4A43.9,43.9,0,0,0,168,41.7a44,44,0,0,0-80,0A43.9,43.9,0,0,0,32.2,79.5l-.3.4a15.7,15.7,0,0,0-4.6,15.2L54.8,211.7A15.9,15.9,0,0,0,70.3,224H185.7a15.9,15.9,0,0,0,15.5-12.3L228.7,95.1A15.7,15.7,0,0,0,224.1,79.9ZM76,56a27.4,27.4,0,0,1,13.1,3.3,8.4,8.4,0,0,0,7.1.2,8.2,8.2,0,0,0,4.5-5.6,28,28,0,0,1,54.6,0,8.2,8.2,0,0,0,4.5,5.6,8.4,8.4,0,0,0,7.1-.2A27.4,27.4,0,0,1,180,56a28,28,0,0,1,27,20.5L168.4,87.6,133.9,73.8a15.1,15.1,0,0,0-11.8,0L87.6,87.6,49,76.5A28,28,0,0,1,76,56Zm35,152L96.8,101.1,128,88.6l31.2,12.5L145,208ZM42.9,91.4h0l37.9,10.9L94.9,208H70.3ZM185.7,208H161.1l14.1-105.7,37.9-10.9h0Z"/></svg>