<svg xmlns="http://www.w3.org/2000/svg" viewBox="0 0 256 256"><path d="M224,56V176a8,8,0,0,1-8,8H40a8,8,0,0,1-8-8V56a8,8,0,0,1,8-8H216A8,8,0,0,1,224,56Z" opacity="0.2"/><path d="M216,40H136V24a8,8,0,0,0-16,0V40H40A16,16,0,0,0,24,56V176a16,16,0,0,0,16,16H79.4L57.8,219A8,8,0,0,0,64,232a7.8,7.8,0,0,0,6.2-3l29.6-37h56.4l29.6,37a7.8,7.8,0,0,0,6.2,3,8,8,0,0,0,6.2-13l-21.6-27H216a16,16,0,0,0,16-16V56A16,16,0,0,0,216,40Zm0,136H40V56H216V176ZM104,120v24a8,8,0,0,1-16,0V120a8,8,0,0,1,16,0Zm32-16v40a8,8,0,0,1-16,0V104a8,8,0,0,1,16,0Zm32-16v56a8,8,0,0,1-16,0V88a8,8,0,0,1,16,0Z"/></svg>