<svg xmlns="http://www.w3.org/2000/svg" viewBox="0 0 256 256"><g opacity="0.2"><path d="M210.7,80H45.3C35.8,80,28,87.2,28,96v80H64V152H192v24h36V96C228,87.2,220.2,80,210.7,80Z"/></g><circle cx="188" cy="116" r="12"/><path d="M210.7,72H200V40a8,8,0,0,0-8-8H64a8,8,0,0,0-8,8V72H45.3C31.4,72,20,82.8,20,96v80a8,8,0,0,0,8,8H56v36a8,8,0,0,0,8,8H192a8,8,0,0,0,8-8V184h28a8,8,0,0,0,8-8V96C236,82.8,224.6,72,210.7,72ZM72,48H184V72H72ZM184,212H72V160H184Zm36-44H200V152a8,8,0,0,0-8-8H64a8,8,0,0,0-8,8v16H36V96c0-4.4,4.2-8,9.3-8H210.7c5.1,0,9.3,3.6,9.3,8Z"/></svg>