<svg id="Flat" xmlns="http://www.w3.org/2000/svg" viewBox="0 0 256 256">
  <g opacity="0.2">
    <path d="M210.66083,80H45.32751c-9.57293,0-17.33337,7.16357-17.33337,16v80h36V152h128v24h36V96C227.99414,87.16357,220.23376,80,210.66083,80Z"/>
  </g>
  <g>
    <circle cx="187.99414" cy="116" r="12"/>
    <path d="M210.66064,72h-10.6665V40a8.00008,8.00008,0,0,0-8-8h-128a8.00008,8.00008,0,0,0-8,8V72H45.32764c-13.96875,0-25.3335,10.7666-25.3335,24v80a8.00008,8.00008,0,0,0,8,8h28v36a8.00008,8.00008,0,0,0,8,8h128a8.00008,8.00008,0,0,0,8-8V184h28a8.00008,8.00008,0,0,0,8-8V96C235.99414,82.7666,224.62939,72,210.66064,72ZM71.99414,48h112V72h-112Zm112,164h-112V160h112Zm36-44h-20V152a8.00008,8.00008,0,0,0-8-8h-128a8.00008,8.00008,0,0,0-8,8v16h-20V96c0-4.41113,4.187-8,9.3335-8h165.333c5.14649,0,9.3335,3.58887,9.3335,8Z"/>
  </g>
</svg>
