<svg id="Flat" xmlns="http://www.w3.org/2000/svg" viewBox="0 0 256 256">
  <g opacity="0.2">
    <circle cx="128.00049" cy="128" r="96"/>
  </g>
  <path d="M202.16113,200.83313A103.9436,103.9436,0,0,0,55.17041,53.837a7.39839,7.39839,0,0,0-1.33447,1.33447A103.94378,103.94378,0,0,0,200.83447,202.16028a7.41974,7.41974,0,0,0,1.32666-1.32715Zm13.83985-72.833a87.59763,87.59763,0,0,1-20.40528,56.28076L71.71973,60.40539A87.95194,87.95194,0,0,1,216.001,128.00012Zm-176,0A87.59989,87.59989,0,0,1,60.40576,71.71936l123.876,123.876A87.952,87.952,0,0,1,40.001,128.00012Z"/>
</svg>
