<svg id="Flat" xmlns="http://www.w3.org/2000/svg" viewBox="0 0 256 256">
  <path d="M208,72V184H48V72Z" opacity="0.2"/>
  <path d="M88,144V128a8,8,0,0,1,16,0v16a8,8,0,0,1-16,0Zm40,8a8.00039,8.00039,0,0,0,8-8V120a8,8,0,0,0-16,0v24A8.00039,8.00039,0,0,0,128,152Zm32,0a8.00039,8.00039,0,0,0,8-8V112a8,8,0,0,0-16,0v32A8.00039,8.00039,0,0,0,160,152Zm56-72v96h8a8,8,0,0,1,0,16H136v17.37622a24,24,0,1,1-16,0V192H32a8,8,0,0,1,0-16h8V80A16.01833,16.01833,0,0,1,24,64V48A16.01833,16.01833,0,0,1,40,32H216a16.01833,16.01833,0,0,1,16,16V64A16.01833,16.01833,0,0,1,216,80ZM136,232a8,8,0,1,0-8,8A8.00917,8.00917,0,0,0,136,232ZM40,64H216.00977L216,48H40ZM200,80H56v96H200Z"/>
</svg>
