<svg id="Flat" xmlns="http://www.w3.org/2000/svg" viewBox="0 0 256 256">
  <g opacity="0.2">
    <path d="M154.34315,29.65685,92,92S64.256,78.128,34.60125,102.05044a8.01406,8.01406,0,0,0-.64838,11.90243L141.84933,221.84933a7.99324,7.99324,0,0,0,12.04036-.83167C162.28278,209.86184,175.46546,186.93092,164,164l62.34315-62.34315a8,8,0,0,0,0-11.3137l-60.6863-60.6863A8,8,0,0,0,154.34315,29.65685Z"/>
  </g>
  <path d="M236.68652,96A15.89509,15.89509,0,0,0,232,84.68652L171.31348,23.999a16.02135,16.02135,0,0,0-22.627,0l-.001.001L89.99316,82.69287C79.33984,79.35205,55.00488,75.312,29.5791,95.82373a16.01339,16.01339,0,0,0-1.2832,23.78613L76.686,168,42.34277,202.34326a8.00018,8.00018,0,0,0,11.31446,11.31348L88,179.314l48.19238,48.1919a16.0039,16.0039,0,0,0,11.31934,4.69141q.561,0,1.124-.03956a15.96991,15.96991,0,0,0,11.64649-6.33007c19.63476-26.09619,17.74609-47.30616,13.18945-59.98584L231.999,107.31445A15.895,15.895,0,0,0,236.68652,96Zm-78.34375,62.34326a8.00008,8.00008,0,0,0-1.498,9.23438c9.46289,18.92529-1.79493,38.59179-9.33789,48.61474L39.625,108.27686c12.0752-9.7417,23.63965-12.31055,32.48047-12.31055a40.22242,40.22242,0,0,1,16.31641,3.189,7.99962,7.99962,0,0,0,9.23535-1.49853L160,35.314,220.68555,96Z"/>
</svg>
