<svg id="Flat" xmlns="http://www.w3.org/2000/svg" viewBox="0 0 256 256">
  <path d="M74.79785,69.47778,171.63623,176H56Zm121.61719,86.208L176,40H91.24609l47.6211,52.38306Z" opacity="0.2"/>
  <path d="M83.24609,40a8.00009,8.00009,0,0,1,8-8H192a8,8,0,0,1,0,16h-6.46484L204.293,154.29541a7.99964,7.99964,0,1,1-15.75586,2.78027L169.28857,48H91.24609A8.00009,8.00009,0,0,1,83.24609,40ZM213.38184,221.91943a8.00088,8.00088,0,0,1-11.30176-.53808L168.09717,184H136v56a8,8,0,0,1-16,0V184H56.04248l-.03271.00146L55.97607,184H40a8,8,0,0,1,0-16h9.28857L66.2373,71.95459,42.08008,45.38135a8.00027,8.00027,0,0,1,11.83984-10.7627l160,176A8.00084,8.00084,0,0,1,213.38184,221.91943ZM153.55176,168l-73.709-81.07935L65.53516,168Z"/>
</svg>
