<svg id="Flat" xmlns="http://www.w3.org/2000/svg" viewBox="0 0 256 256">
  <g opacity="0.2">
    <path d="M215.02036,182.3046a48.03614,48.03614,0,0,0-20.16513-30.0948,7.99547,7.99547,0,0,1-3.41652-5.8483L180.72054,39.20379A8,8,0,0,0,172.76026,32H83.23974a8,8,0,0,0-7.96028,7.20379L64.56129,146.3615a7.99547,7.99547,0,0,1-3.41652,5.8483,48.03614,48.03614,0,0,0-20.16513,30.0948A8.0279,8.0279,0,0,0,48.804,192H207.196A8.0279,8.0279,0,0,0,215.02036,182.3046Z"/>
  </g>
  <path d="M222.85742,180.69727h0a55.69528,55.69528,0,0,0-23.44433-35.063.31793.31793,0,0,1-.01416-.06885L188.68066,38.40771A15.94953,15.94953,0,0,0,172.76025,24H83.23975A15.94952,15.94952,0,0,0,67.31934,38.40771L56.60107,145.56543a.31793.31793,0,0,1-.01416.06885,55.69718,55.69718,0,0,0-23.44433,35.063A16.02766,16.02766,0,0,0,48.80371,200H120v40a8,8,0,0,0,16,0V200h71.19629a16.02766,16.02766,0,0,0,15.66113-19.30273Zm-94.65478,3.313C128.13477,184.00879,128.06836,184,128,184c-.06885,0-.13525.00879-.20361.01025l-78.96.01026a.10307.10307,0,0,1-.02-.1084A39.78485,39.78485,0,0,1,65.626,158.83691a15.938,15.938,0,0,0,6.8955-11.6792L83.23975,40h89.5205l10.71827,107.15771a15.938,15.938,0,0,0,6.8955,11.6792,39.78489,39.78489,0,0,1,16.80957,25.0752h0a.41077.41077,0,0,1,.0127.08789Z"/>
</svg>
