<svg id="Flat" xmlns="http://www.w3.org/2000/svg" viewBox="0 0 256 256">
  <g opacity="0.2">
    <path d="M215.02036,182.3046a48.03614,48.03614,0,0,0-20.16513-30.0948,7.99547,7.99547,0,0,1-3.41652-5.8483L180.72054,39.20379A8,8,0,0,0,172.76026,32H83.23974a8,8,0,0,0-7.96028,7.20379L64.56129,146.3615a7.99547,7.99547,0,0,1-3.41652,5.8483,48.03614,48.03614,0,0,0-20.16513,30.0948A8.0279,8.0279,0,0,0,48.804,192H207.196A8.0279,8.0279,0,0,0,215.02036,182.3046Z"/>
  </g>
  <g>
    <path d="M83.97412,40h88.78613L183.875,151.12305a8.00037,8.00037,0,0,0,7.9502,7.2041q.3999,0,.80615-.04a8.00011,8.00011,0,0,0,7.16406-8.75684L188.68066,38.40771A15.94952,15.94952,0,0,0,172.76025,24H83.97412a8,8,0,0,0,0,16Z"/>
    <path d="M228.4209,226.62012l-35.99317-39.61133a8.0598,8.0598,0,0,0-.67822-.74707L39.4209,18.62012A8,8,0,0,0,27.5791,29.37988L64.19189,69.67383l-7.59082,75.8916a.32987.32987,0,0,1-.01416.06934,55.69488,55.69488,0,0,0-23.44433,35.0625A16.02766,16.02766,0,0,0,48.80371,200H120v40a8,8,0,0,0,16,0V200h46.61377l33.96533,37.37988a8,8,0,0,0,11.8418-10.75976ZM128.17139,184.00879C128.11377,184.00732,128.05762,184,128,184c-.05811,0-.11475.00732-.17236.00879l-78.99121.01172a.10307.10307,0,0,1-.02-.1084,39.78372,39.78372,0,0,1,16.81-25.0752,15.93889,15.93889,0,0,0,6.895-11.6792l6.15577-61.54248,89.40039,98.3877Z"/>
  </g>
</svg>
