<svg id="Flat" xmlns="http://www.w3.org/2000/svg" viewBox="0 0 256 256">
  <path d="M166.60791,170.46875c6.417,20.67676-5.11572,40.44385-12.71826,50.54883a7.99326,7.99326,0,0,1-12.04053.83154l-107.896-107.896a8.01434,8.01434,0,0,1,.64794-11.90283C64.25586,78.12793,92,92,92,92l1.71436-1.71436Zm59.73535-80.12549L165.65674,29.65674a8,8,0,0,0-11.31348,0L116.36719,67.63281l68.57129,75.42871,41.40478-41.40478A8,8,0,0,0,226.34326,90.34326Z" opacity="0.2"/>
  <path d="M53.91992,34.61865a8.00027,8.00027,0,0,0-11.83984,10.7627l31.459,34.605c-12.05029-.32324-27.7832,2.7876-43.96,15.8374a16.01339,16.01339,0,0,0-1.2832,23.78613L76.686,168,42.34277,202.34326a8.00018,8.00018,0,0,0,11.31446,11.31348L88,179.314l48.19238,48.1919a16.0039,16.0039,0,0,0,11.31934,4.69141q.561,0,1.124-.03956a15.96882,15.96882,0,0,0,11.64649-6.33056c5.48828-7.29541,12.91992-19.33838,15.37451-33.51123l26.42334,29.06543a8.00027,8.00027,0,0,0,11.83984-10.7627Zm93.58692,181.57373L39.625,108.27686c25.041-20.20215,47.8877-9.55909,48.79688-9.12159a7.95965,7.95965,0,0,0,3.28955.82032l67.71484,74.48632C163.707,191.23291,153.8833,207.71973,147.50684,216.19238ZM236.68652,96a15.895,15.895,0,0,1-4.6875,11.31445L190.5957,148.71826a8.00035,8.00035,0,1,1-11.31445-11.314L220.68555,96,160,35.31348,122.02441,73.28955A8.00018,8.00018,0,0,1,110.71,61.97607L148.68555,24a16.02162,16.02162,0,0,1,22.62793-.001L232,84.68652A15.89427,15.89427,0,0,1,236.68652,96Z"/>
</svg>
