<svg id="Flat" xmlns="http://www.w3.org/2000/svg" viewBox="0 0 256 256">
  <g opacity="0.2">
    <path d="M63.99986,216a8,8,0,0,1-8-8.00009l.00053-42.69468a28,28,0,1,1,0-50.61044L55.99988,72.0001A8,8,0,0,1,64,64l46.69456.00053a27.99993,27.99993,0,1,1,50.61031,0L207.99939,64a8,8,0,0,1,8.00007,7.9999L216,114.69478a28,28,0,1,0,0,50.61044l-.00053,42.69487a8,8,0,0,1-8,7.9999Z"/>
  </g>
  <path d="M220.27441,158.543a7.99377,7.99377,0,0,0-7.70654-.46387,20.00286,20.00286,0,1,1,.00049-36.1582A8.00058,8.00058,0,0,0,224,114.69434L223.99951,72A16.01843,16.01843,0,0,0,207.999,56l-36.21728.001A36.60975,36.60975,0,0,0,171.99951,52a36.13927,36.13927,0,0,0-11.35889-26.24512,35.99993,35.99993,0,0,0-60.54785,23.627,36.43458,36.43458,0,0,0,.13282,6.61914L64,56A16,16,0,0,0,48,72l.00049,32.21777a36.09411,36.09411,0,0,0-30.24561,11.14161,35.99957,35.99957,0,0,0,23.627,60.54687,36.69746,36.69746,0,0,0,6.61865-.13184L48,208a16,16,0,0,0,16,16H207.99951a16.018,16.018,0,0,0,16-16L224,165.30566A8.00126,8.00126,0,0,0,220.27441,158.543ZM207.99951,208H64l.00049-42.69434a8.0005,8.0005,0,0,0-11.43213-7.22656,20,20,0,1,1,0-36.1582,7.99985,7.99985,0,0,0,11.43213-7.22656L64,72l46.69434.001h0a8.00008,8.00008,0,0,0,7.22656-11.43262,19.99976,19.99976,0,1,1,36.15771,0A8.00055,8.00055,0,0,0,161.30518,72.001L207.99951,72,208,104.22559a35.97771,35.97771,0,0,0-39.92773,33.46484,35.70712,35.70712,0,0,0,9.68164,26.95019A36.0951,36.0951,0,0,0,208,175.78223Z"/>
</svg>
