<svg xmlns="http://www.w3.org/2000/svg" viewBox="0 0 256 256"><g opacity="0.2"><rect x="48" y="48" width="64" height="64" rx="8"/></g><g opacity="0.2"><rect x="48" y="144" width="64" height="64" rx="8"/></g><g opacity="0.2"><rect x="144" y="48" width="64" height="64" rx="8"/></g><path d="M104,40H56A16,16,0,0,0,40,56v48a16,16,0,0,0,16,16h48a16,16,0,0,0,16-16V56A16,16,0,0,0,104,40Zm0,64H56V56h48v48Z"/><path d="M104,136H56a16,16,0,0,0-16,16v48a16,16,0,0,0,16,16h48a16,16,0,0,0,16-16V152A16,16,0,0,0,104,136Zm0,64H56V152h48v48Z"/><path d="M200,40H152a16,16,0,0,0-16,16v48a16,16,0,0,0,16,16h48a16,16,0,0,0,16-16V56A16,16,0,0,0,200,40Zm0,64H152V56h48v48Z"/><path d="M144,184a8,8,0,0,0,8-8V144a8,8,0,0,0-16,0v32A8,8,0,0,0,144,184Z"/><path d="M208,152H184v-8a8,8,0,0,0-16,0v56H144a8,8,0,0,0,0,16h32a8,8,0,0,0,8-8V168h24a8,8,0,0,0,0-16Z"/><path d="M208,184a8,8,0,0,0-8,8v16a8,8,0,0,0,16,0V192A8,8,0,0,0,208,184Z"/></svg>