<svg id="Flat" xmlns="http://www.w3.org/2000/svg" viewBox="0 0 256 256">
  <g opacity="0.2">
    <rect x="48.00244" y="48" width="64" height="64" rx="8"/>
  </g>
  <g opacity="0.2">
    <rect x="48.00244" y="144" width="64" height="64" rx="8"/>
  </g>
  <g opacity="0.2">
    <rect x="144.00244" y="48" width="64" height="64" rx="8"/>
  </g>
  <g>
    <path d="M104.00244,40h-48a16.01833,16.01833,0,0,0-16,16v48a16.01833,16.01833,0,0,0,16,16h48a16.01833,16.01833,0,0,0,16-16V56A16.01833,16.01833,0,0,0,104.00244,40Zm0,64h-48V56h48l.00977,48Z"/>
    <path d="M104.00244,136h-48a16.01833,16.01833,0,0,0-16,16v48a16.01833,16.01833,0,0,0,16,16h48a16.01833,16.01833,0,0,0,16-16V152A16.01833,16.01833,0,0,0,104.00244,136Zm0,64h-48V152h48l.00977,48Z"/>
    <path d="M200.00244,40h-48a16.01833,16.01833,0,0,0-16,16v48a16.01833,16.01833,0,0,0,16,16h48a16.01833,16.01833,0,0,0,16-16V56A16.01833,16.01833,0,0,0,200.00244,40Zm0,64h-48V56h48l.00977,48Z"/>
    <path d="M144.00244,184a8.00039,8.00039,0,0,0,8-8V144a8,8,0,0,0-16,0v32A8.00039,8.00039,0,0,0,144.00244,184Z"/>
    <path d="M208.00244,152h-24v-8a8,8,0,0,0-16,0v56h-24a8,8,0,1,0,0,16h32a8.00039,8.00039,0,0,0,8-8V168h24a8,8,0,0,0,0-16Z"/>
    <path d="M208.00244,184a8.00039,8.00039,0,0,0-8,8v16a8,8,0,0,0,16,0V192A8.00039,8.00039,0,0,0,208.00244,184Z"/>
  </g>
</svg>
