<svg id="Flat" xmlns="http://www.w3.org/2000/svg" viewBox="0 0 256 256">
  <circle cx="128.00244" cy="128" r="96" opacity="0.2"/>
  <path d="M128.002,23.99963a104,104,0,1,0,104,104A104.11791,104.11791,0,0,0,128.002,23.99963Zm0,192a88,88,0,1,1,88-88A88.09957,88.09957,0,0,1,128.002,215.99963ZM156.28711,83.71545A40.01707,40.01707,0,0,1,136.002,151.20471v.79492a8,8,0,0,1-16,0v-8a8.00039,8.00039,0,0,1,8-8,23.99881,23.99881,0,1,0-24-24,8,8,0,0,1-16,0,40.00056,40.00056,0,0,1,68.28516-28.28418ZM140.00293,183.99963v.00391a12.002,12.002,0,1,1,0-.00391Z"/>
</svg>
