<svg id="Flat" xmlns="http://www.w3.org/2000/svg" viewBox="0 0 256 256">
  <g opacity="0.2">
    <circle cx="128.00244" cy="128" r="96"/>
  </g>
  <path d="M128.002,23.99963a104,104,0,1,0,104,104A104.11791,104.11791,0,0,0,128.002,23.99963Zm0,192a88,88,0,1,1,88-88A88.09957,88.09957,0,0,1,128.002,215.99963ZM140.00244,180a12,12,0,1,1-12-12A12,12,0,0,1,140.00244,180ZM164.002,108.00452a36.06538,36.06538,0,0,1-28,35.10449v.89551a8,8,0,0,1-16,0v-8a8.00039,8.00039,0,0,1,8-8,20,20,0,1,0-20-20,8,8,0,0,1-16,0,36,36,0,1,1,72,0Z"/>
</svg>
