<svg id="Flat" xmlns="http://www.w3.org/2000/svg" viewBox="0 0 256 256">
  <g opacity="0.2">
    <circle cx="128" cy="128" r="96"/>
  </g>
  <g>
    <path d="M128,23.99963a104,104,0,1,0,104,104A104.11791,104.11791,0,0,0,128,23.99963Zm0,192a88,88,0,1,1,88-88A88.09957,88.09957,0,0,1,128,215.99963Z"/>
    <circle cx="128" cy="180" r="12"/>
    <path d="M128,71.99963a40.00031,40.00031,0,0,0-40,40,8,8,0,0,0,16,0,24.0002,24.0002,0,1,1,24,24,8.00039,8.00039,0,0,0-8,8v8a8,8,0,1,0,16,0v-.79492a40.007,40.007,0,0,0-8-79.20508Z"/>
  </g>
</svg>
