<svg id="Flat" xmlns="http://www.w3.org/2000/svg" viewBox="0 0 256 256">
  <path d="M240,160l-64,40V120Z" opacity="0.2"/>
  <path d="M32,64a8.00008,8.00008,0,0,1,8-8H216a8,8,0,0,1,0,16H40A8.00008,8.00008,0,0,1,32,64Zm104,56H40a8,8,0,0,0,0,16h96a8,8,0,0,0,0-16Zm0,64H40a8,8,0,0,0,0,16h96a8,8,0,0,0,0-16Zm112-24a8.00055,8.00055,0,0,1-3.75977,6.78418l-64,40A8.00044,8.00044,0,0,1,168,200V120a8.00044,8.00044,0,0,1,12.24023-6.78418l64,40A8.00055,8.00055,0,0,1,248,160Zm-23.09473,0L184,134.43408v51.13184Z"/>
</svg>
