<svg id="Flat" xmlns="http://www.w3.org/2000/svg" viewBox="0 0 256 256">
  <path d="M216,80H32V200a8.00009,8.00009,0,0,0,8,8H216a8.00009,8.00009,0,0,0,8-8V88A8.00009,8.00009,0,0,0,216,80Zm-56,96a32,32,0,1,1,32-32A32,32,0,0,1,160,176Z" opacity="0.2"/>
  <path d="M216,72H86.509l107.7898-32.33691a8.00047,8.00047,0,0,0-4.59766-15.32618l-160,48-.022.00782c-.21753.06591-.4292.144-.63818.22729-.04.01587-.082.02808-.12159.04444-.1792.075-.35229.16174-.5249.249-.06665.03369-.13672.06225-.20239.09765-.06421.03467-.12378.07642-.187.1128a7.95455,7.95455,0,0,0-2.10157,1.7511c-.02563.03039-.05444.05786-.07983.08862-.08984.10925-.16992.22546-.25366.33923-.071.096-.14624.18836-.21289.2876-.03638.05432-.06665.11231-.10181.1676a7.94225,7.94225,0,0,0-.989,2.27381c-.03443.1322-.074.26269-.102.39685-.00782.03869-.01123.07885-.0188.11767-.043.22473-.07984.451-.10352.68006-.00146.01342-.00122.0271-.00244.04052-.02515.25391-.03857.50977-.03882.76734L24,80V200a16.01833,16.01833,0,0,0,16,16H216a16.01833,16.01833,0,0,0,16-16V88A16.01833,16.01833,0,0,0,216,72Zm0,128H40V88H216l.00977,112Zm-56-96a40,40,0,1,0,40,40A40.04584,40.04584,0,0,0,160,104Zm0,64a24,24,0,1,1,24-24A24.0275,24.0275,0,0,1,160,168Zm-56-56a8.00039,8.00039,0,0,1-8,8H64a8,8,0,0,1,0-16H96A8.00039,8.00039,0,0,1,104,112Zm0,32a8.00039,8.00039,0,0,1-8,8H64a8,8,0,0,1,0-16H96A8.00039,8.00039,0,0,1,104,144Zm0,32a8.00039,8.00039,0,0,1-8,8H64a8,8,0,0,1,0-16H96A8.00039,8.00039,0,0,1,104,176Z"/>
</svg>
