<svg id="Flat" xmlns="http://www.w3.org/2000/svg" viewBox="0 0 256 256">
  <g opacity="0.2">
    <path d="M152,200c-13.25483,0-24-11.14314-24-24.88889s10.74517-24.88889,24-24.88889a23.18816,23.18816,0,0,1,8.81117,1.73087l-.00141-.0003A40.00363,40.00363,0,1,1,200,200Z"/>
  </g>
  <path d="M200,112a48.19386,48.19386,0,0,0-44.66455,30.39844A31.5421,31.5421,0,0,0,152,142.22266c-17.645,0-32,14.7539-32,32.88867S134.355,208,152,208h48a48,48,0,0,0,0-96Zm0,80H152c-8.82227,0-16-7.57617-16-16.88867s7.17773-16.88867,16-16.88867a15.15381,15.15381,0,0,1,5.77588,1.13281,8.00072,8.00072,0,0,0,10.87207-5.80176A32.00362,32.00362,0,1,1,200,192ZM24,160v16a8,8,0,0,1-16,0V160A104.00011,104.00011,0,0,1,184.50342,85.43945a8.00027,8.00027,0,0,1-11.15528,11.47071A87.99955,87.99955,0,0,0,24,160Zm32,0v16a8,8,0,0,1-16,0V160a72.00452,72.00452,0,0,1,114.605-58.0459,7.99959,7.99959,0,1,1-9.47656,12.89063A56.00558,56.00558,0,0,0,56,160Zm61.57373-23.35156A24.02909,24.02909,0,0,0,88,160v16a8,8,0,0,1-16,0V160a40.02529,40.02529,0,0,1,49.269-38.918,7.99951,7.99951,0,1,1-3.69531,15.56641Z"/>
</svg>
