<svg id="Flat" xmlns="http://www.w3.org/2000/svg" viewBox="0 0 256 256">
  <g opacity="0.2">
    <path d="M32,208V56a8,8,0,0,1,8-8H216a8,8,0,0,1,8,8V208l-32-16-32,16-32-16L96,208,64,192Z"/>
  </g>
  <g>
    <path d="M76,112H180a8,8,0,0,0,0-16H76a8,8,0,0,0,0,16Z"/>
    <path d="M76,144H180a8,8,0,0,0,0-16H76a8,8,0,0,0,0,16Z"/>
    <path d="M216,40H40A16.01833,16.01833,0,0,0,24,56V208a8,8,0,0,0,11.57812,7.15527L64,200.94434l28.42188,14.21093a8.00257,8.00257,0,0,0,7.15624,0L128,200.94434l28.42188,14.21093a8.00049,8.00049,0,0,0,7.15624,0L192,200.94434l28.42188,14.21093A8,8,0,0,0,232,208V56A16.01833,16.01833,0,0,0,216,40Zm0,155.05566-20.42188-10.21093a8.00257,8.00257,0,0,0-7.15624,0L160,199.05566l-28.42188-14.21093a8.00049,8.00049,0,0,0-7.15624,0L96,199.05566,67.57812,184.84473a8.00257,8.00257,0,0,0-7.15624,0L40,195.05566V56H216Z"/>
  </g>
</svg>
