<svg xmlns="http://www.w3.org/2000/svg" viewBox="0 0 256 256"><g opacity="0.2"><path d="M32,208V56a8,8,0,0,1,8-8H216a8,8,0,0,1,8,8V208l-32-16-32,16-32-16L96,208,64,192Z"/></g><path d="M76,112H180a8,8,0,0,0,0-16H76a8,8,0,0,0,0,16Z"/><path d="M76,144H180a8,8,0,0,0,0-16H76a8,8,0,0,0,0,16Z"/><path d="M216,40H40A16,16,0,0,0,24,56V208a7.9,7.9,0,0,0,3.8,6.8,8,8,0,0,0,7.8.4L64,200.9l28.4,14.3a8.3,8.3,0,0,0,7.2,0L128,200.9l28.4,14.3a8.5,8.5,0,0,0,7.2,0L192,200.9l28.4,14.3a8,8,0,0,0,7.8-.4A7.9,7.9,0,0,0,232,208V56A16,16,0,0,0,216,40Zm0,155.1-20.4-10.3a8.3,8.3,0,0,0-7.2,0L160,199.1l-28.4-14.3a8.5,8.5,0,0,0-7.2,0L96,199.1,67.6,184.8a8.3,8.3,0,0,0-7.2,0L40,195.1V56H216Z"/></svg>