<svg xmlns="http://www.w3.org/2000/svg" viewBox="0 0 256 256"><path d="M236.8,204A23.9,23.9,0,0,1,216,216H147.3l10.4,10.3a8.1,8.1,0,0,1,0,11.4,8.2,8.2,0,0,1-11.4,0l-24-24.1A7.9,7.9,0,0,1,120,208a8.1,8.1,0,0,1,2.3-5.7l24-24a8.1,8.1,0,0,1,11.4,11.4L147.3,200H216a7.9,7.9,0,0,0,6.9-4,7.8,7.8,0,0,0,0-8l-24-41.4a8,8,0,0,1,13.9-8L236.7,180A23.7,23.7,0,0,1,236.8,204ZM88,200H40a7.9,7.9,0,0,1-6.9-4,7.8,7.8,0,0,1,0-8l34.3-59.3,3.8,14.1a8.1,8.1,0,0,0,7.8,6l2-.3a8,8,0,0,0,5.7-9.8l-8.8-32.8a8.1,8.1,0,0,0-3.7-4.8,7.7,7.7,0,0,0-6.1-.8L35.3,109a8,8,0,0,0,4.2,15.5l14-3.8L19.3,180A23.9,23.9,0,0,0,40,216H88a8,8,0,0,0,0-16ZM128,32a7.8,7.8,0,0,1,6.9,4l34.3,59.2-14.1-3.7a8,8,0,1,0-4.1,15.4l32.8,8.8,2,.3a8.1,8.1,0,0,0,7.8-5.9l8.8-32.8a8,8,0,0,0-15.5-4.2l-3.8,14.2L148.8,28a24,24,0,0,0-41.6,0L83.3,69.4a8,8,0,1,0,13.8,8l24-41.4A7.8,7.8,0,0,1,128,32Z"/></svg>