<svg id="Flat" xmlns="http://www.w3.org/2000/svg" viewBox="0 0 256 256">
  <path d="M236.76758,203.98145a23.75493,23.75493,0,0,1-20.791,12.01074h-68.667l10.34863,10.35156a8.00052,8.00052,0,0,1-11.3164,11.3125l-24-24.00781c-.08545-.08545-.16065-.17847-.2417-.26709-.09326-.1023-.19043-.20093-.27881-.30786-.06592-.08033-.12354-.16626-.186-.249-.0957-.126-.19384-.24975-.28222-.38134-.04346-.0647-.07959-.13331-.1211-.19922-.09814-.156-.19629-.312-.28369-.47486-.0249-.04638-.04443-.095-.06836-.1416-.09521-.18628-.1875-.37427-.26855-.5686-.01221-.02954-.021-.0603-.03272-.09009-.085-.21167-.16455-.42627-.23144-.64648-.0083-.0271-.01319-.05542-.02149-.08277-.06445-.22143-.12353-.44531-.16894-.67407-.01221-.06055-.01758-.12256-.02832-.18335-.03418-.196-.06836-.39209-.08838-.59253-.02442-.24829-.03613-.49878-.0376-.75049,0-.01562-.00244-.031-.00244-.04687v-.001a7.90484,7.90484,0,0,1,.04053-.79907c.01855-.18775.05127-.37085.08252-.55469.01269-.07349.01953-.14844.03418-.22168.04443-.22314.10254-.44116.165-.65747.00976-.03271.01562-.06665.02587-.09936.06641-.218.145-.43042.229-.64014.01269-.03174.02246-.06445.03515-.09595.08106-.19458.17383-.38281.269-.56909.02392-.04614.043-.09448.06787-.14014.08789-.1643.187-.321.28613-.47827.04053-.06445.07617-.13183.11865-.19556.08985-.13378.18995-.26.28711-.38793.061-.08008.1167-.16407.18116-.242.09033-.10986.18994-.21142.28613-.31616.0791-.08643.15234-.17676.23535-.25977l24-23.99218a8.00052,8.00052,0,0,1,11.3125,11.3164l-10.33789,10.334h68.6582a8.00079,8.00079,0,0,0,6.92383-12.00781l-23.95117-41.37793a8.00013,8.00013,0,1,1,13.84766-8.01563l23.95117,41.37793A23.75534,23.75534,0,0,1,236.76758,203.98145ZM88,199.99219H40.02344a8.00079,8.00079,0,0,1-6.92383-12.00781l34.33057-59.311,3.79931,14.16846a7.99963,7.99963,0,0,0,15.45313-4.14453l-8.78711-32.771-.0044-.01538-.00049-.00269c-.0039-.01391-.00927-.02734-.01318-.041-.06494-.23682-.13916-.47071-.2251-.70069-.02441-.06445-.05566-.126-.08154-.18994-.07178-.17773-.14453-.35522-.229-.52783-.0293-.05933-.06446-.115-.09522-.17358-.09033-.1731-.18213-.34546-.28515-.512-.02735-.04394-.05909-.085-.08741-.12841-.11328-.17579-.23-.34986-.35791-.51709-.02441-.03174-.05224-.06055-.07666-.0918-.13623-.17261-.27636-.34229-.42773-.5044-.03174-.03393-.06738-.06445-.09961-.0979-.14795-.15283-.29834-.30346-.46-.44531-.063-.05566-.13184-.10449-.19678-.158-.13623-.11279-.27148-.2268-.417-.33154-.14014-.10083-.28906-.19092-.43652-.283-.07764-.04858-.14991-.10278-.23-.14917l-.00586-.00293-.00293-.00195q-.34717-.20032-.70948-.36377c-.14843-.06714-.2998-.12012-.45068-.17749-.09473-.03613-.187-.07862-.2832-.11109-.18164-.06152-.36573-.10888-.54981-.15673-.06885-.01783-.13623-.04151-.20556-.05738-.17774-.04126-.356-.0686-.53467-.09717-.07959-.01293-.15821-.03149-.23828-.04174-.15674-.02027-.31348-.02784-.47071-.03882-.10449-.00733-.208-.02051-.3125-.02368-.12695-.00391-.25244.0039-.3789.0061-.13477.0022-.26953-.00073-.40479.00855-.09521.00659-.18994.02294-.28515.03271-.20069.021-.4004.04565-.6001.082-.21582.03931-.43067.083-.64258.13965l-.00488.001L35.31445,109.043A7.99963,7.99963,0,0,0,39.459,124.49609l14.08838-3.77758L19.252,179.96875a24.00019,24.00019,0,0,0,20.77149,36.02344H88a8,8,0,0,0,0-16ZM128,32a7.86145,7.86145,0,0,1,6.92383,3.99219l34.29541,59.25049-14.09033-3.77784a8.00032,8.00032,0,0,0-4.14258,15.45508l32.77832,8.78809.02588.00512c.1875.04957.37988.0774.5708.11329a8.00364,8.00364,0,0,0,1.47949.156c.01416,0,.02832-.00342.04248-.00342a7.97208,7.97208,0,0,0,1.14258-.09472c.12451-.0188.24512-.04761.36767-.072a7.97487,7.97487,0,0,0,.8042-.2024c.13135-.04077.26026-.08374.38868-.13086a8.02326,8.02326,0,0,0,.74267-.3208c.1211-.05908.24365-.11328.36182-.17871.05029-.02759.103-.04638.15283-.07519a8.01872,8.01872,0,0,0,.77588-.51685c.04639-.03442.08887-.07251.13428-.10791a7.9413,7.9413,0,0,0,.79931-.71216c.03369-.03491.07032-.06665.104-.10229a7.94877,7.94877,0,0,0,.71631-.88574c.04589-.06543.09033-.13111.13476-.198a8.03482,8.03482,0,0,0,.561-.99219c.02636-.05664.04882-.116.07421-.17334a8.086,8.086,0,0,0,.41016-1.13672c.00244-.00952.00733-.01782.00977-.02734l8.791-32.78809a8.00032,8.00032,0,0,0-15.45508-4.14258l-3.79785,14.16553L148.77148,27.97656a24.00073,24.00073,0,0,0-41.543,0L83.27832,69.35449A8.00013,8.00013,0,0,0,97.126,77.37012l23.95019-41.37793A7.86145,7.86145,0,0,1,128,32Z"/>
</svg>
