<svg xmlns="http://www.w3.org/2000/svg" viewBox="0 0 256 256"><g opacity="0.2"><path d="M240,104a24,24,0,0,0-43.4-14.1h0C178.3,78.7,154.3,72,128,72S77.7,78.7,59.4,89.9h0a24,24,0,1,0-31.6,34.8h0A50.7,50.7,0,0,0,24,144c0,39.8,46.6,72,104,72s104-32.2,104-72a50.7,50.7,0,0,0-3.8-19.3h0A24,24,0,0,0,240,104Z"/></g><path d="M88,148a16,16,0,1,1,16-16A16,16,0,0,1,88,148Zm80-32a16,16,0,1,0,16,16A16,16,0,0,0,168,116Zm-10.6,52.9a64.2,64.2,0,0,1-58.8,0,8,8,0,0,0-7.3,14.2,80.1,80.1,0,0,0,73.4,0,8,8,0,0,0-7.3-14.2Zm80.3-41.3A60.1,60.1,0,0,1,240,144c0,21.9-12,42.4-33.9,57.5S157.4,224,128,224s-57.1-8-78.1-22.5S16,165.9,16,144a61.4,61.4,0,0,1,2.3-16.5A32,32,0,0,1,60.9,79.8c17.5-9.3,38.5-14.7,60.3-15.6l6.9-41.5a8,8,0,0,1,9.1-6.6l29.7,4.6A23.8,23.8,0,0,1,188,8a24,24,0,1,1-23.6,28.5l-21.8-3.4-5.2,31.2c20.9,1.2,40.9,6.6,57.7,15.5A32,32,0,0,1,248,104,32.4,32.4,0,0,1,237.7,127.6ZM180,32a8,8,0,1,0,8-8A8,8,0,0,0,180,32Zm52,72a16,16,0,0,0-28.9-9.4,8,8,0,0,1-10.7,2.1h-.2C174.5,85.9,151.8,80,128,80h0c-23.7,0-46.5,5.9-64.2,16.6h-.2a8,8,0,0,1-10.7-2.1,16,16,0,1,0-21,23.2,7.9,7.9,0,0,1,3.2,10A45.7,45.7,0,0,0,32,144c0,16.5,9.6,32.3,27,44.3S101.8,208,128,208s50.7-7,69-19.7,27-27.8,27-44.3a43.7,43.7,0,0,0-3.2-16.2,8.1,8.1,0,0,1,3.3-10A16.1,16.1,0,0,0,232,104Z"/></svg>