<svg id="Flat" xmlns="http://www.w3.org/2000/svg" viewBox="0 0 256 256">
  <g opacity="0.2">
    <path d="M240,104a24.00125,24.00125,0,0,0-43.40918-14.11938l.001-.0022C178.28369,78.74831,154.28027,72,128,72S77.7168,78.74831,59.4082,89.87844l.001.0022A24.00186,24.00186,0,1,0,27.794,124.66848l-.00245-.00073A51.62014,51.62014,0,0,0,24,144c0,39.76441,46.5625,72,104,72s104-32.23559,104-72a51.62014,51.62014,0,0,0-3.7915-19.33227l-.002.00073A23.98866,23.98866,0,0,0,240,104Z"/>
  </g>
  <path d="M88,148a16,16,0,1,1,16-16A16.01833,16.01833,0,0,1,88,148Zm80-32a16,16,0,1,0,16,16A16.01833,16.01833,0,0,0,168,116ZM157.35547,168.8926a64.09433,64.09433,0,0,1-58.71094,0,8,8,0,0,0-7.34033,14.2168,80.122,80.122,0,0,0,73.39209,0,8.00008,8.00008,0,0,0-7.34082-14.2168Zm80.29883-41.3418A59.01726,59.01726,0,0,1,240,144c0,21.93457-12.042,42.35156-33.90723,57.48926C185.125,216.00588,157.39062,224,128,224s-57.125-7.99414-78.09277-22.51074C28.042,186.35158,16,165.93459,16,144a59.04669,59.04669,0,0,1,2.34521-16.45019A31.99265,31.99265,0,0,1,60.9375,79.80959c17.44531-9.26806,38.41943-14.70532,60.2583-15.647l6.91309-41.478a7.996,7.996,0,0,1,9.10742-6.5918l29.64209,4.56006a23.99705,23.99705,0,1,1-2.43506,15.814l-21.83105-3.3584L137.39648,64.2842c20.9043,1.24634,40.91163,6.62427,57.666,15.52539a31.99285,31.99285,0,0,1,42.5918,47.74121ZM180,32a8,8,0,1,0,8-8A8.00917,8.00917,0,0,0,180,32Zm52,72a16.00147,16.00147,0,0,0-28.94385-9.4082,8,8,0,0,1-10.62451,2.12305c-.062-.03809-.124-.07618-.18457-.11524C174.54932,85.897,151.75293,80.00442,128.02344,80.00051l-.01367.00049-.02051-.00073c-23.73438.0017-46.53565,5.89477-64.23633,16.59936-.06055.03906-.12256.07715-.18457.11524a7.999,7.999,0,0,1-10.62451-2.12305,16.00206,16.00206,0,1,0-21.0752,23.19238,8.0014,8.0014,0,0,1,3.27588,10.043A43.67235,43.67235,0,0,0,32,144c0,16.5293,9.59375,32.27344,27.01465,44.334C77.333,201.01565,101.832,208,128,208s50.667-6.98437,68.98535-19.666C214.40625,176.27346,224,160.52932,224,144a43.687,43.687,0,0,0-3.16016-16.21191,8.00078,8.00078,0,0,1,3.29151-10.00391A16.08945,16.08945,0,0,0,232,104Z"/>
</svg>
