<svg id="Flat" xmlns="http://www.w3.org/2000/svg" viewBox="0 0 256 256">
  <g opacity="0.2">
    <path d="M128,32a96,96,0,1,0,96,96A95.99991,95.99991,0,0,0,128,32ZM112,160,64,128l48-32Zm64,0-48-32,48-32Z"/>
  </g>
  <g>
    <path d="M128,24A104,104,0,1,0,232,128,104.11791,104.11791,0,0,0,128,24Zm0,192a88,88,0,1,1,88-88A88.09957,88.09957,0,0,1,128,216Z"/>
    <path d="M179.77441,88.94678a7.99667,7.99667,0,0,0-8.21191.397l-48,32a7.99959,7.99959,0,0,0,0,13.3125l48,32A8.00016,8.00016,0,0,0,184,160V96A7.99966,7.99966,0,0,0,179.77441,88.94678ZM168,145.05176,142.42187,128,168,110.94824Z"/>
    <path d="M115.77441,88.94678a7.99646,7.99646,0,0,0-8.21191.397l-48,32a7.99959,7.99959,0,0,0,0,13.3125l48,32A8.00016,8.00016,0,0,0,120,160V96A7.99966,7.99966,0,0,0,115.77441,88.94678ZM104,145.05176,78.42187,128,104,110.94824Z"/>
  </g>
</svg>
