<svg id="Flat" xmlns="http://www.w3.org/2000/svg" viewBox="0 0 256 256">
  <path d="M116,70.65332V185.34668a8.00008,8.00008,0,0,1-12.32617,6.72949L14.468,134.72949a8,8,0,0,1,0-13.459l89.20581-57.34668A8.00008,8.00008,0,0,1,116,70.65332Zm99.67383-6.72949L126.468,121.27051a8,8,0,0,0,0,13.459l89.20581,57.34668A8.00008,8.00008,0,0,0,228,185.34668V70.65332A8.00008,8.00008,0,0,0,215.67383,63.92383Z" opacity="0.2"/>
  <path d="M227.667,56.61035a15.99461,15.99461,0,0,0-16.31933.584L124,113.34631v-42.693a16.00057,16.00057,0,0,0-24.65234-13.459L10.1416,114.541a16.0005,16.0005,0,0,0,0,26.918l89.20606,57.34668A16.00057,16.00057,0,0,0,124,185.34668v-42.693l87.34766,56.152A16.00057,16.00057,0,0,0,236,185.34668V70.65332A15.99263,15.99263,0,0,0,227.667,56.61035ZM108,185.34668,18.7666,128.01953A.196.196,0,0,1,18.794,128L108,70.65332Zm112,0-89.2334-57.32715A.196.196,0,0,1,130.794,128L220,70.65332Z"/>
</svg>
