<svg xmlns="http://www.w3.org/2000/svg" viewBox="0 0 256 256"><g opacity="0.2"><path d="M73.9,111.4h0L42.5,149a7.6,7.6,0,0,0-1.6,6.8l12.3,55.7A8,8,0,0,0,66,216l30-24C78.4,161.4,72.7,134.5,73.9,111.4Z"/></g><g opacity="0.2"><path d="M181.5,110.7h0l31.4,37.7a7.6,7.6,0,0,1,1.6,6.8l-12.3,55.6a8,8,0,0,1-12.8,4.6l-30-24C177,160.7,182.7,133.8,181.5,110.7Z"/></g><path d="M144,216H112a8,8,0,0,0,0,16h32a8,8,0,0,0,0-16Z"/><circle cx="128" cy="96" r="12"/><path d="M219.6,143.9l-30.2-36.3a125.4,125.4,0,0,0-8-34.9c-11.6-30.2-32.1-50-43.4-59.1a15.9,15.9,0,0,0-20-.1c-11.4,9.1-32.2,28.9-43.9,59.1A121.5,121.5,0,0,0,66,108.3L36.4,143.9A16.1,16.1,0,0,0,33,157.6l12.4,55.6a15.9,15.9,0,0,0,10.3,11.6,17,17,0,0,0,5.4.9,16,16,0,0,0,9.9-3.5L98.8,200h58.4L185,222.2a16,16,0,0,0,9.9,3.5,17,17,0,0,0,5.4-.9,15.9,15.9,0,0,0,10.3-11.6L223,157.6A16.1,16.1,0,0,0,219.6,143.9ZM128,26c70.3,57.1,41.4,131,27.2,158H100.7C52.7,96.3,109.2,41,128,26ZM61,209.7,48.7,154.1l17.9-21.5q3.5,28.1,19.1,57.4Zm134,0-24.8-19.8c10.4-19.7,16.6-39,18.8-57.8l18.3,22Z"/></svg>