<svg id="Flat" xmlns="http://www.w3.org/2000/svg" viewBox="0 0 256 256">
  <g opacity="0.2">
    <rect x="40" y="144" width="176" height="56" rx="8"/>
  </g>
  <g opacity="0.2">
    <rect x="40" y="56" width="176" height="56" rx="8"/>
  </g>
  <path d="M208,136H48a16.01833,16.01833,0,0,0-16,16v40a16.01833,16.01833,0,0,0,16,16H208a16.01833,16.01833,0,0,0,16-16V152A16.01833,16.01833,0,0,0,208,136Zm0,56H48V152H208l.00977,39.99951Zm0-144H48A16.01833,16.01833,0,0,0,32,64v40a16.01833,16.01833,0,0,0,16,16H208a16.01833,16.01833,0,0,0,16-16V64A16.01833,16.01833,0,0,0,208,48Zm0,56H48V64H208l.00977,39.99951Z"/>
</svg>
