<svg xmlns="http://www.w3.org/2000/svg" viewBox="0 0 256 256"><path d="M56,48V208H200V48Zm72,120-24-40,24-40,24,40Z" opacity="0.2"/><path d="M200,16a8,8,0,0,0-8,8V40H160V24a8,8,0,0,0-16,0V40H112V24a8,8,0,0,0-16,0V40H64V24a8,8,0,0,0-16,0V232a8,8,0,0,0,16,0V216H96v16a8,8,0,0,0,16,0V216h32v16a8,8,0,0,0,16,0V216h32v16a8,8,0,0,0,16,0V24A8,8,0,0,0,200,16ZM64,56H192V200H64Zm64,120a8.2,8.2,0,0,0,6.9-3.9l24-40a8,8,0,0,0,0-8.2l-24-40a8.1,8.1,0,0,0-13.8,0l-24,40a8,8,0,0,0,0,8.2l24,40A8.2,8.2,0,0,0,128,176Zm0-72.5L142.7,128,128,152.5,113.3,128Z"/></svg>