<svg xmlns="http://www.w3.org/2000/svg" viewBox="0 0 256 256"><path d="M226.3,93.7,93.7,226.3a8,8,0,0,1-11.4,0L29.7,173.7a8,8,0,0,1,0-11.4L162.3,29.7a8,8,0,0,1,11.4,0l52.6,52.6A8,8,0,0,1,226.3,93.7Z" opacity="0.2"/><path d="M232,76.7,179.3,24a16.1,16.1,0,0,0-22.6,0L90.3,90.3h0l-36,36h0L24,156.7a15.9,15.9,0,0,0,0,22.6L76.7,232a15.9,15.9,0,0,0,22.6,0L232,99.3a15.9,15.9,0,0,0,0-22.6ZM220.7,88h0L88,220.7,35.3,168,60,143.3l26.3,26.4a8.2,8.2,0,0,0,11.4,0,8.1,8.1,0,0,0,0-11.4L71.3,132,96,107.3l26.3,26.4a8.2,8.2,0,0,0,11.4,0,8.1,8.1,0,0,0,0-11.4L107.3,96,132,71.3l26.3,26.4a8.2,8.2,0,0,0,11.4,0,8.1,8.1,0,0,0,0-11.4L143.3,60,168,35.3,220.7,88Z"/></svg>