<svg id="Flat" xmlns="http://www.w3.org/2000/svg" viewBox="0 0 256 256">
  <path d="M56,88l32,80c0,17.67285-20,24-32,24s-32-6.32715-32-24ZM200,56l-32,80c0,17.67285,20,24,32,24s32-6.32715,32-24Z" opacity="0.2"/>
  <path d="M239.42773,133.0293l-32-80c-.0122-.03076-.03076-.05811-.04345-.08887a7.96732,7.96732,0,0,0-.481-.98047c-.01465-.02539-.03223-.04834-.04687-.07324a7.93375,7.93375,0,0,0-.56836-.81885c-.04493-.05762-.08887-.11572-.13575-.17187a7.89859,7.89859,0,0,0-.70849-.75342c-.04785-.044-.09864-.0835-.147-.126a8.09051,8.09051,0,0,0-.68409-.54053c-.07031-.04931-.13867-.10058-.21045-.148a7.96351,7.96351,0,0,0-.86816-.49951c-.06934-.03418-.14111-.063-.21191-.09521a7.97568,7.97568,0,0,0-.81836-.32227c-.06739-.022-.13233-.04736-.19971-.06787a8.01112,8.01112,0,0,0-1.023-.23486c-.06494-.01074-.13037-.01709-.1958-.02637a7.95377,7.95377,0,0,0-.9917-.07519c-.03174,0-.062-.00684-.09375-.00684-.01221,0-.02441.00293-.03662.00293a7.86413,7.86413,0,0,0-1.06983.081c-.08789.01221-.17382.02881-.26074.044-.12256.02148-.24511.03516-.36816.0625L136,62.02686V40a8,8,0,0,0-16,0V65.58252L54.26465,80.19043c-.16553.03662-.32373.0874-.48438.13379-.06933.02-.14013.03564-.209.05762a7.95224,7.95224,0,0,0-.97656.38378c-.05762.02735-.1128.05762-.16944.08643a7.92974,7.92974,0,0,0-.81787.47022c-.04394.0288-.08935.05517-.13281.085a7.96988,7.96988,0,0,0-.82764.65381c-.04834.04345-.09326.08984-.14062.13476a8.08693,8.08693,0,0,0-.63086.66992c-.04053.04834-.0835.09375-.123.14356a8.00617,8.00617,0,0,0-.58935.84961c-.041.06787-.07862.1372-.11768.20605a8.00524,8.00524,0,0,0-.45752.93262c-.00439.01123-.01123.02051-.01562.03174l-.00977.0249-.01416.03467L16.57227,165.0293A7.99723,7.99723,0,0,0,16,168c0,23.3125,24.53516,32,40,32s40-8.6875,40-32a7.99723,7.99723,0,0,0-.57227-2.9707L66.92334,93.76758,120,81.97314V208H104a8,8,0,0,0,0,16h48a8,8,0,0,0,0-16H136V78.41748l50.94531-11.32129-26.373,65.93311A7.99723,7.99723,0,0,0,160,136c0,23.3125,24.53516,32,40,32s40-8.6875,40-32A7.99723,7.99723,0,0,0,239.42773,133.0293ZM56,184c-7.52832,0-22.76465-3.61426-23.9292-14.63672L56,109.541l23.9292,59.82226C78.76465,180.38574,63.52832,184,56,184Zm144-32c-7.52832,0-22.76465-3.61426-23.9292-14.63672L200,77.541l23.9292,59.82226C222.76465,148.38574,207.52832,152,200,152Z"/>
</svg>
