<svg xmlns="http://www.w3.org/2000/svg" viewBox="0 0 256 256"><path d="M176,88v80a8,8,0,0,1-8,8H88a8,8,0,0,1-8-8V88a8,8,0,0,1,8-8h80A8,8,0,0,1,176,88Z" opacity="0.2"/><path d="M224,40V80a8,8,0,0,1-16,0V48H176a8,8,0,0,1,0-16h40A8,8,0,0,1,224,40ZM80,208H48V176a8,8,0,0,0-16,0v40a8,8,0,0,0,8,8H80a8,8,0,0,0,0-16Zm136-40a8,8,0,0,0-8,8v32H176a8,8,0,0,0,0,16h40a8,8,0,0,0,8-8V176A8,8,0,0,0,216,168ZM40,88a8,8,0,0,0,8-8V48H80a8,8,0,0,0,0-16H40a8,8,0,0,0-8,8V80A8,8,0,0,0,40,88Zm128,96H88a16,16,0,0,1-16-16V88A16,16,0,0,1,88,72h80a16,16,0,0,1,16,16v80A16,16,0,0,1,168,184ZM88,168h80V88H88Z"/></svg>