<svg xmlns="http://www.w3.org/2000/svg" viewBox="0 0 256 256"><g opacity="0.2"><circle cx="60" cy="76" r="28"/></g><g opacity="0.2"><circle cx="60" cy="180" r="28"/></g><path d="M164.3,116.6a7.8,7.8,0,0,0,4.6-1.4l67.6-46.3a7.9,7.9,0,0,0,2.1-11.1,8,8,0,0,0-11.1-2.1L159.8,102a8,8,0,0,0,4.5,14.6Z"/><path d="M236.5,187.1,93.5,89.2A36.4,36.4,0,0,0,96,76,35.9,35.9,0,0,0,85.5,50.5a36.2,36.2,0,0,0-51,0,36,36,0,0,0,49.9,51.9L121.8,128,84.4,153.6A36,36,0,1,0,96,180a36.4,36.4,0,0,0-2.5-13.2L136,137.7l91.5,62.6a8.2,8.2,0,0,0,4.5,1.4,8,8,0,0,0,4.5-14.6Zm-162.4,7a19.9,19.9,0,0,1-28.2,0,19.8,19.8,0,0,1,0-28.2,19.8,19.8,0,0,1,28.2,0,19.8,19.8,0,0,1,0,28.2ZM45.9,90.1a19.8,19.8,0,0,1,0-28.2,19.8,19.8,0,0,1,28.2,0,19.8,19.8,0,0,1,0,28.2A19.9,19.9,0,0,1,45.9,90.1Z"/></svg>