<svg id="Flat" xmlns="http://www.w3.org/2000/svg" viewBox="0 0 256 256">
  <g opacity="0.2">
    <circle cx="60" cy="76" r="28"/>
  </g>
  <g opacity="0.2">
    <circle cx="60" cy="180" r="28"/>
  </g>
  <g>
    <path d="M164.3418,116.61426a7.96217,7.96217,0,0,0,4.51025-1.39844L236.51758,68.918a8.00013,8.00013,0,0,0-9.03516-13.20508l-67.66553,46.29785a8.00081,8.00081,0,0,0,4.52491,14.60352Z"/>
    <path d="M236.51758,187.082,93.4939,89.22363a36.03986,36.03986,0,1,0-9.0506,13.19458l37.3891,25.582-37.38867,25.582a35.84613,35.84613,0,1,0,9.05035,13.19458l42.50574-29.08326,91.4826,62.59351a8.00013,8.00013,0,1,0,9.03516-13.20508ZM74.14209,194.1416A19.9986,19.9986,0,1,1,80,180,20.021,20.021,0,0,1,74.14209,194.1416Zm-28.28418-104a20,20,0,1,1,28.28418,0A19.86692,19.86692,0,0,1,45.85791,90.1416Z"/>
  </g>
</svg>
