<svg xmlns="http://www.w3.org/2000/svg" viewBox="0 0 256 256"><g opacity="0.2"><path d="M216,48H40a8,8,0,0,0-8,8V192a16,16,0,0,1,16,16H216a8,8,0,0,0,8-8V56A8,8,0,0,0,216,48Z"/></g><path d="M216,40H40A16,16,0,0,0,24,56V96a8,8,0,0,0,16,0V56H216V200H144a8,8,0,0,0,0,16h72a16,16,0,0,0,16-16V56A16,16,0,0,0,216,40Z"/><path d="M32,184a8,8,0,0,0,0,16,8,8,0,0,1,8,8,8,8,0,0,0,16,0A24.1,24.1,0,0,0,32,184Z"/><path d="M32,152a8,8,0,0,0,0,16,40,40,0,0,1,40,40,8,8,0,0,0,16,0A56,56,0,0,0,32,152Z"/><path d="M32,120a8,8,0,0,0,0,16,72.1,72.1,0,0,1,72,72,8,8,0,0,0,16,0A88.1,88.1,0,0,0,32,120Z"/></svg>