<svg id="Flat" xmlns="http://www.w3.org/2000/svg" viewBox="0 0 256 256">
  <g opacity="0.2">
    <path d="M216.00049,47.99561h-176a7.99988,7.99988,0,0,0-8,8V192a15.99986,15.99986,0,0,1,15.99927,15.99561H216.00049a8,8,0,0,0,8-8v-144A7.99989,7.99989,0,0,0,216.00049,47.99561Z"/>
  </g>
  <g>
    <path d="M216,40H40A16.01833,16.01833,0,0,0,24,56V96a8,8,0,0,0,16,0V56H216V200H144a8,8,0,0,0,0,16h72a16.01833,16.01833,0,0,0,16-16V56A16.01833,16.01833,0,0,0,216,40Z"/>
    <path d="M32,184a8,8,0,0,0,0,16,8.00917,8.00917,0,0,1,8,8,8,8,0,0,0,16,0A24.02718,24.02718,0,0,0,32,184Z"/>
    <path d="M32,152a8,8,0,0,0,0,16,40.04552,40.04552,0,0,1,40,40,8,8,0,0,0,16,0A56.06322,56.06322,0,0,0,32,152Z"/>
    <path d="M32,120a8,8,0,0,0,0,16,72.08124,72.08124,0,0,1,72,72,8,8,0,0,0,16,0A88.09957,88.09957,0,0,0,32,120Z"/>
  </g>
</svg>
