<svg id="Flat" xmlns="http://www.w3.org/2000/svg" viewBox="0 0 256 256">
  <path d="M216,48V160a8,8,0,0,1-8,8H168V96a8,8,0,0,0-8-8H88V48a8,8,0,0,1,8-8H208A8,8,0,0,1,216,48Z" opacity="0.2"/>
  <path d="M159.999,79.99414h-112a16.01833,16.01833,0,0,0-16,16v112a16.01833,16.01833,0,0,0,16,16h112a16.01833,16.01833,0,0,0,16-16v-112A16.01833,16.01833,0,0,0,159.999,79.99414Zm0,128h-112v-112h112ZM136,40a8.00008,8.00008,0,0,1,8-8h16a8,8,0,0,1,0,16H144A8.00008,8.00008,0,0,1,136,40Zm88,8v8a8,8,0,0,1-16,0V48h-8a8,8,0,0,1,0-16h8A16.01833,16.01833,0,0,1,224,48Zm0,48v16a8,8,0,0,1-16,0V96a8,8,0,0,1,16,0Zm0,56v8a16.01833,16.01833,0,0,1-16,16h-8a8,8,0,0,1,0-16h8v-8a8,8,0,0,1,16,0ZM80,56V48A16.01833,16.01833,0,0,1,96,32h8a8,8,0,0,1,0,16H96v8a8,8,0,0,1-16,0Z"/>
</svg>
