<svg id="Flat" xmlns="http://www.w3.org/2000/svg" viewBox="0 0 256 256">
  <g opacity="0.2">
    <circle cx="176" cy="200" r="32"/>
  </g>
  <g opacity="0.2">
    <circle cx="176" cy="56" r="32"/>
  </g>
  <path d="M176,160a39.87518,39.87518,0,0,0-28.61768,12.09277L101.28467,142.4585a39.85174,39.85174,0,0,0,0-28.917l46.09765-29.63427a39.94957,39.94957,0,1,0-8.667-13.44947L92.61719,100.09229a40,40,0,1,0,0,55.81542l46.09814,29.63453A39.99342,39.99342,0,1,0,176,160Zm0-128a24,24,0,1,1-24,24A24.0275,24.0275,0,0,1,176,32ZM64,152a24,24,0,1,1,24-24A24.0275,24.0275,0,0,1,64,152Zm112,72a24,24,0,1,1,24-24A24.0275,24.0275,0,0,1,176,224Z"/>
</svg>
