<svg xmlns="http://www.w3.org/2000/svg" viewBox="0 0 256 256"><path d="M200,216a8,8,0,0,1-8,8H40a16,16,0,0,1-16-16V88a8,8,0,0,1,16,0V208H192A8,8,0,0,1,200,216Zm30.2-106.9a.8.8,0,0,0,.2-.4l.2-.3.3-.3.2-.3c0-.2.1-.3.1-.4l.2-.3c0-.2.1-.3.1-.4l.2-.4a.8.8,0,0,1,.1-.4v-.3a.9.9,0,0,0,.1-.5.4.4,0,0,1,.1-.3v-1.6a.4.4,0,0,1-.1-.3.9.9,0,0,0-.1-.5v-.3a.8.8,0,0,1-.1-.4l-.2-.4c0-.1-.1-.2-.1-.4l-.2-.3c0-.1-.1-.2-.1-.4l-.2-.3-.3-.3-.2-.3a.8.8,0,0,0-.2-.4c-.1-.1-.3-.2-.4-.4a.3.3,0,0,1-.1-.2l-48-48a8.1,8.1,0,0,0-11.4,11.4L204.7,96H168A103.9,103.9,0,0,0,67.3,174a8,8,0,0,0,5.7,9.7l2,.3a8.1,8.1,0,0,0,7.8-6A87.9,87.9,0,0,1,168,112h36.7l-34.4,34.3a8.1,8.1,0,0,0,0,11.4,8.2,8.2,0,0,0,11.4,0l48-48a.3.3,0,0,1,.1-.2C229.9,109.3,230.1,109.2,230.2,109.1Z"/></svg>