<svg id="Flat" xmlns="http://www.w3.org/2000/svg" viewBox="0 0 256 256">
  <g opacity="0.2">
    <path d="M40,106.66667V48a8,8,0,0,1,8-8H208a8,8,0,0,1,8,8v58.66667c0,84.01533-71.306,111.85016-85.5438,116.57058a7.54755,7.54755,0,0,1-4.9124,0C111.306,218.51683,40,190.682,40,106.66667Z"/>
  </g>
  <g>
    <path d="M208,32.00012H48a16.01833,16.01833,0,0,0-16,16v58.66651c0,89.45312,75.82617,119.12451,91.02637,124.16406a15.48361,15.48361,0,0,0,9.94726.00049C148.17383,225.79114,224,196.11975,224,106.66663V48.00012A16.01833,16.01833,0,0,0,208,32.00012Zm0,74.66651c0,78.25732-66.35156,104.41064-80.00293,108.95605C114.48047,211.12854,48,185.00061,48,106.66663V48.00012H208Z"/>
    <path d="M107.80957,157.78674a7.99914,7.99914,0,0,0,11.04688.00049l58.667-56A7.99994,7.99994,0,1,0,166.47656,90.213L113.333,140.94055,89.52344,118.2135a7.99959,7.99959,0,1,0-11.04688,11.57324Z"/>
  </g>
</svg>
