<svg xmlns="http://www.w3.org/2000/svg" viewBox="0 0 256 256"><path d="M216,56v58.7c0,84-71.3,111.8-85.5,116.5a7.2,7.2,0,0,1-5,0C111.3,226.5,40,198.7,40,114.7V56a8,8,0,0,1,8-8H208A8,8,0,0,1,216,56Z" opacity="0.2"/><path d="M228.4,226.6l-35-38.5h0L39.4,18.6a8,8,0,0,0-11.3-.5,7.9,7.9,0,0,0-.5,11.3L39.5,42.5A15.9,15.9,0,0,0,32,56v58.7c0,89.4,75.8,119.1,91,124.1a14.3,14.3,0,0,0,10,0,146.4,146.4,0,0,0,54.4-33.5l29.2,32.1a8,8,0,0,0,5.9,2.6,8.2,8.2,0,0,0,5.4-2.1A7.9,7.9,0,0,0,228.4,226.6Zm-100.4-3c-13.5-4.5-80-30.6-80-108.9V56h3.8L176.6,193.4A129.4,129.4,0,0,1,128,223.6ZM90.5,48a8,8,0,0,1,8-8H208a16,16,0,0,1,16,16v58.7c0,19.7-3.8,38-11.2,54.3a8,8,0,0,1-10.6,4,8,8,0,0,1-4-10.6c6.5-14.3,9.8-30.3,9.8-47.7V56H98.5A8,8,0,0,1,90.5,48Z"/></svg>