<svg xmlns="http://www.w3.org/2000/svg" viewBox="0 0 256 256"><path d="M216,56v58.7c0,84-71.3,111.8-85.5,116.5a7.2,7.2,0,0,1-5,0C111.3,226.5,40,198.7,40,114.7V56a8,8,0,0,1,8-8H208A8,8,0,0,1,216,56Z" opacity="0.2"/><path d="M208,40H48A16,16,0,0,0,32,56v58.7c0,89.4,75.8,119.1,91,124.1a16,16,0,0,0,10,0c15.2-5,91-34.7,91-124.1V56A16,16,0,0,0,208,40Zm0,74.7c0,78.2-66.4,104.4-80,108.9-13.5-4.5-80-30.6-80-108.9V56H208ZM88,128a8,8,0,0,1,8-8h24V96a8,8,0,0,1,16,0v24h24a8,8,0,0,1,0,16H136v24a8,8,0,0,1-16,0V136H96A8,8,0,0,1,88,128Z"/></svg>