<svg id="Flat" xmlns="http://www.w3.org/2000/svg" viewBox="0 0 256 256">
  <path d="M215.99951,56v58.6665c0,84.01563-71.30615,111.85035-85.54394,116.5708a7.54577,7.54577,0,0,1-4.91211,0c-14.2378-4.72045-85.54395-32.55517-85.54395-116.5708V56a7.99993,7.99993,0,0,1,8-8h160A7.99993,7.99993,0,0,1,215.99951,56Z" opacity="0.2"/>
  <path d="M228.42041,226.62012l-34.98633-38.50366c-.01758-.0188-.03418-.03785-.05127-.0564L39.42041,18.62012a8,8,0,0,0-11.8418,10.75976L39.48193,42.47974A15.98851,15.98851,0,0,0,31.99951,56v58.667c0,89.45117,75.82617,119.124,91.02637,124.16406a15.49078,15.49078,0,0,0,9.94824,0,147.318,147.318,0,0,0,54.44238-33.54492l29.16211,32.09375a8,8,0,0,0,11.8418-10.75976Zm-100.42285-2.99707c-13.5166-4.49512-79.998-30.624-79.998-108.95606V56h3.76758L176.646,193.43311A130.32124,130.32124,0,0,1,127.99756,223.62305ZM90.54443,48a8.00039,8.00039,0,0,1,8-8H207.99951a16.01833,16.01833,0,0,1,16,16v58.667c0,19.70313-3.76269,37.99707-11.18262,54.37305a8.00022,8.00022,0,1,1-14.57421-6.60352c6.47461-14.28711,9.75683-30.35937,9.75683-47.76953V56H98.54443A8.00039,8.00039,0,0,1,90.54443,48Z"/>
</svg>
