<svg id="Flat" xmlns="http://www.w3.org/2000/svg" viewBox="0 0 256 256">
  <g opacity="0.2">
    <path d="M39.99951,106.66667V48a8,8,0,0,1,8-8h160a8,8,0,0,1,8,8v58.66667c0,84.01533-71.306,111.85016-85.5438,116.57058a7.54755,7.54755,0,0,1-4.9124,0C111.30553,218.51683,39.99951,190.682,39.99951,106.66667Z"/>
  </g>
  <g>
    <path d="M207.99951,32h-160a16.01833,16.01833,0,0,0-16,16v58.667c0,89.45313,75.82617,119.124,91.02637,124.16406a15.48781,15.48781,0,0,0,9.94726,0c15.2002-5.04,91.02637-34.71093,91.02637-124.16406V48A16.01833,16.01833,0,0,0,207.99951,32Zm0,74.667c0,78.25684-66.35156,104.41016-80.00293,108.95508C114.48,211.12793,47.99951,185.001,47.99951,106.667V48h160Z"/>
    <path d="M127.99951,136a8.00039,8.00039,0,0,0,8-8V88a8,8,0,1,0-16,0v40A8.00039,8.00039,0,0,0,127.99951,136Z"/>
    <circle cx="127.99951" cy="164" r="12"/>
  </g>
</svg>
