<svg id="Flat" xmlns="http://www.w3.org/2000/svg" viewBox="0 0 256 256">
  <g opacity="0.2">
    <path d="M202.40575,172.0837C180.989,212.285,140.7647,227.81955,130.4562,231.23725a7.54755,7.54755,0,0,1-4.9124,0c-10.30857-3.41773-50.53339-18.95246-71.95-59.15443l.00313-.001L128,120l74.40193,52.08167Z"/>
  </g>
  <path d="M208,40.00012H48a16.01817,16.01817,0,0,0-16,16v58.66651c0,89.45312,75.82617,119.12451,91.02637,124.16406a15.48361,15.48361,0,0,0,9.94726.00049C148.17383,233.79114,224,204.11975,224,114.66663V56.00012A16.01817,16.01817,0,0,0,208,40.00012Zm-160,16H208v58.66651c0,17.68237-3.39453,32.69653-8.79639,45.4104l-66.61572-46.63086a8.00131,8.00131,0,0,0-9.17578,0L56.7959,160.077C51.39453,147.36316,48,132.349,48,114.66663Zm79.99707,167.62256c-9.23145-3.06934-43.16406-16.23633-63.75391-49.228L128,129.76526l63.75537,44.6289C171.19189,207.34,137.31641,220.51965,127.99707,223.62268Z"/>
</svg>
