<svg id="Flat" xmlns="http://www.w3.org/2000/svg" viewBox="0 0 256 256">
  <g opacity="0.2">
    <path d="M40,106.66667V48a8,8,0,0,1,8-8H208a8,8,0,0,1,8,8v58.66667c0,84.01533-71.306,111.85016-85.5438,116.57058a7.54755,7.54755,0,0,1-4.9124,0C111.306,218.51683,40,190.682,40,106.66667Z"/>
  </g>
  <path d="M208,32.00012H48a16.018,16.018,0,0,0-16,16v58.66651c0,89.45458,75.82617,119.125,91.02637,124.16406a15.47923,15.47923,0,0,0,9.94726,0C148.17383,225.79163,224,196.12121,224,106.66663V48.00012A16.018,16.018,0,0,0,208,32.00012Zm0,74.66651c0,78.25878-66.35156,104.41113-80.00293,108.95605C114.48047,211.12854,48,185.00159,48,106.66663V48.00012H208Z"/>
</svg>
