<svg id="Flat" xmlns="http://www.w3.org/2000/svg" viewBox="0 0 256 256">
  <g opacity="0.2">
    <path d="M40,106.66667V48a8,8,0,0,1,8-8H208a8,8,0,0,1,8,8v58.66667c0,84.01533-71.306,111.85016-85.5438,116.57058a7.54755,7.54755,0,0,1-4.9124,0C111.306,218.51683,40,190.682,40,106.66667Z"/>
  </g>
  <g>
    <path d="M228.46533,226.61816l-189.09082-208A8.0006,8.0006,0,0,0,27.53467,29.38184L35.457,38.09668A15.90942,15.90942,0,0,0,31.99951,48v58.667c0,89.45117,75.82617,119.124,91.02637,124.16406a15.49078,15.49078,0,0,0,9.94824,0,148.267,148.267,0,0,0,50.55762-29.852l33.09375,36.40284a8.0006,8.0006,0,1,0,11.83984-10.76368ZM127.99756,215.62305c-13.5166-4.49512-79.998-30.624-79.998-108.95606V51.89307L172.771,189.14209A131.29941,131.29941,0,0,1,127.99756,215.62305Z"/>
    <path d="M91.24658,48H207.99951v58.667c0,19.39551-4.06933,37.08985-12.0957,52.59082a8.00042,8.00042,0,1,0,14.209,7.35742c9.21485-17.79785,13.88672-37.96679,13.88672-59.94824V48a16.01833,16.01833,0,0,0-16-16H91.24658a8,8,0,0,0,0,16Z"/>
  </g>
</svg>
