<svg xmlns="http://www.w3.org/2000/svg" viewBox="0 0 256 256"><path d="M128,48v80H40V56a8,8,0,0,1,8-8Zm87.4,80H128V231.6h0a7.7,7.7,0,0,0,2.5-.4c13.4-4.4,77.8-29.5,84.9-103.2Z" opacity="0.2"/><path d="M224,114.7V56a16,16,0,0,0-16-16H48A16,16,0,0,0,32,56v58.7a127.4,127.4,0,0,0,.7,14v.2c7.5,78.4,76,105.2,90.3,109.9a16,16,0,0,0,10,0c14.3-4.7,82.8-31.5,90.3-109.9v-.2A127.4,127.4,0,0,0,224,114.7Zm-16,0c0,1.8-.1,3.5-.1,5.3H136V56h72ZM48,56h72v64H48.1c-.1-1.8-.1-3.5-.1-5.3Zm1.8,80H120v84.6C100.3,212.2,58.8,188.7,49.8,136ZM136,220.6V136h70.2C197.2,188.7,155.7,212.2,136,220.6Z"/></svg>