<svg xmlns="http://www.w3.org/2000/svg" viewBox="0 0 256 256"><path d="M216,64l-12.2,66.9A15.9,15.9,0,0,1,188.1,144H62.5L48,64Z" opacity="0.2"/><path d="M211.7,132.3l12.2-66.9a7.7,7.7,0,0,0-1.8-6.5A7.9,7.9,0,0,0,216,56H54.7L49.8,29.1A16,16,0,0,0,34.1,16H16a8,8,0,0,0,0,16H34.1L61.5,183a28,28,0,1,0,43.8,9h53.4A28,28,0,1,0,184,176H76.5l-4.4-24h116A24,24,0,0,0,211.7,132.3ZM92,204a12,12,0,1,1-12-12A12,12,0,0,1,92,204Zm104,0a12,12,0,1,1-12-12A12,12,0,0,1,196,204ZM57.6,72H206.4L196,129.4a8,8,0,0,1-7.9,6.6H69.2Z"/></svg>