<svg id="Flat" xmlns="http://www.w3.org/2000/svg" viewBox="0 0 256 256">
  <g opacity="0.2">
    <rect x="32" y="48" width="192" height="160" rx="8"/>
  </g>
  <g>
    <path d="M216,40H40A16.01833,16.01833,0,0,0,24,56V200a16.01833,16.01833,0,0,0,16,16H216a16.01833,16.01833,0,0,0,16-16V56A16.01833,16.01833,0,0,0,216,40Zm0,160H40V56H216l.00977,143.99951Z"/>
    <path d="M168,80a8.00039,8.00039,0,0,0-8,8,32,32,0,0,1-64,0,8,8,0,0,0-16,0,48,48,0,0,0,96,0A8.00039,8.00039,0,0,0,168,80Z"/>
  </g>
</svg>
