<svg xmlns="http://www.w3.org/2000/svg" viewBox="0 0 256 256"><path d="M237.7,178.3a8.1,8.1,0,0,1,0,11.4l-24,24a8.2,8.2,0,0,1-11.4,0,8.1,8.1,0,0,1,0-11.4L212.7,192H200.9a72.2,72.2,0,0,1-58.6-30.2l-41.7-58.3A56.1,56.1,0,0,0,55.1,80H32a8,8,0,0,1,0-16H55.1a72.2,72.2,0,0,1,58.6,30.2l41.7,58.3A56.1,56.1,0,0,0,200.9,176h11.8l-10.4-10.3a8.1,8.1,0,0,1,11.4-11.4ZM143,107a8,8,0,0,0,11.2-1.9l1.2-1.6A56.1,56.1,0,0,1,200.9,80h11.8L202.3,90.3a8.1,8.1,0,0,0,0,11.4,8.2,8.2,0,0,0,11.4,0l24-24a8.1,8.1,0,0,0,0-11.4l-24-24a8.1,8.1,0,0,0-11.4,11.4L212.7,64H200.9a72.2,72.2,0,0,0-58.6,30.2l-1.1,1.6A8,8,0,0,0,143,107Zm-30,42a8,8,0,0,0-11.2,1.9l-1.2,1.6A56.1,56.1,0,0,1,55.1,176H32a8,8,0,0,0,0,16H55.1a72.2,72.2,0,0,0,58.6-30.2l1.1-1.6A8,8,0,0,0,113,149Z"/></svg>