<svg id="Flat" xmlns="http://www.w3.org/2000/svg" viewBox="0 0 256 256">
  <g opacity="0.2">
    <path d="M128,32a96,96,0,1,0,96,96A95.99991,95.99991,0,0,0,128,32ZM100,160V96l48,32Z"/>
  </g>
  <g>
    <path d="M128,24A104,104,0,1,0,232,128,104.11791,104.11791,0,0,0,128,24Zm0,192a88,88,0,1,1,88-88A88.09957,88.09957,0,0,1,128,216Z"/>
    <path d="M156,88a8.00008,8.00008,0,0,0-8,8v22.3855L104.4375,89.34375A8.00016,8.00016,0,0,0,92,96v64a7.99975,7.99975,0,0,0,12.4375,6.65625L148,137.6145V160a8,8,0,0,0,16,0V96A8.00008,8.00008,0,0,0,156,88Zm-48,57.05176V110.94824L133.57812,128Z"/>
  </g>
</svg>
