<svg id="Flat" xmlns="http://www.w3.org/2000/svg" viewBox="0 0 256 256">
  <g opacity="0.2">
    <path d="M188.82976,121.17374,68.1716,47.4382A8,8,0,0,0,56,54.26445v147.4711a8,8,0,0,0,12.1716,6.82625l120.65816-73.73555A8,8,0,0,0,188.82976,121.17374Z"/>
  </g>
  <path d="M200,32a8.00008,8.00008,0,0,0-8,8v73.73535L72.34277,40.61133A16.0002,16.0002,0,0,0,48,54.26465v147.4707a16.004,16.004,0,0,0,24.34375,13.65283L192,142.26416V216a8,8,0,0,0,16,0V40A8.00008,8.00008,0,0,0,200,32ZM64,201.73535V54.26416L184.6582,128Z"/>
</svg>
