<svg xmlns="http://www.w3.org/2000/svg" viewBox="0 0 256 256"><g opacity="0.2"><path d="M128,32a96,96,0,1,0,96,96A96,96,0,0,0,128,32Zm28,128-48-32,48-32Z"/></g><path d="M128,24A104,104,0,1,0,232,128,104.2,104.2,0,0,0,128,24Zm0,192a88,88,0,1,1,88-88A88.1,88.1,0,0,1,128,216Z"/><path d="M159.8,88.9a8.3,8.3,0,0,0-8.2.4L108,118.4V96a8,8,0,0,0-16,0v64a8,8,0,0,0,16,0V137.6l43.6,29.1A8.4,8.4,0,0,0,156,168a8.5,8.5,0,0,0,3.8-.9A8,8,0,0,0,164,160V96A8,8,0,0,0,159.8,88.9ZM148,145.1,122.4,128,148,110.9Z"/></svg>