<svg id="Flat" xmlns="http://www.w3.org/2000/svg" viewBox="0 0 256 256">
  <g opacity="0.2">
    <path d="M128,32a96,96,0,1,0,96,96A95.99991,95.99991,0,0,0,128,32Zm28,128-48-32,48-32Z"/>
  </g>
  <g>
    <path d="M128,24A104,104,0,1,0,232,128,104.11791,104.11791,0,0,0,128,24Zm0,192a88,88,0,1,1,88-88A88.09957,88.09957,0,0,1,128,216Z"/>
    <path d="M159.77441,88.94678a7.99646,7.99646,0,0,0-8.21191.397L108,118.3855V96a8,8,0,0,0-16,0v64a8,8,0,0,0,16,0V137.6145l43.5625,29.04175A8.00016,8.00016,0,0,0,164,160V96A7.99966,7.99966,0,0,0,159.77441,88.94678ZM148,145.05176,122.42187,128,148,110.94824Z"/>
  </g>
</svg>
