<svg xmlns="http://www.w3.org/2000/svg" viewBox="0 0 256 256"><path d="M128,24A92,92,0,0,0,80,194.5V216a8,8,0,0,0,8,8h80a8,8,0,0,0,8-8V194.5A92,92,0,0,0,128,24ZM92,152a20,20,0,1,1,20-20A20.1,20.1,0,0,1,92,152Zm72,0a20,20,0,1,1,20-20A20.1,20.1,0,0,1,164,152Z" opacity="0.2"/><path d="M92,104a28,28,0,1,0,28,28A28.1,28.1,0,0,0,92,104Zm0,40a12,12,0,1,1,12-12A12,12,0,0,1,92,144Zm72-40a28,28,0,1,0,28,28A28.1,28.1,0,0,0,164,104Zm0,40a12,12,0,1,1,12-12A12,12,0,0,1,164,144ZM128,16A100,100,0,0,0,72,198.9V216a16,16,0,0,0,16,16h80a16,16,0,0,0,16-16V198.9A100,100,0,0,0,128,16Zm43.8,171.7a7.8,7.8,0,0,0-3.8,6.8V216H152V192a8,8,0,0,0-16,0v24H120V192a8,8,0,0,0-16,0v24H88V194.5a7.8,7.8,0,0,0-3.8-6.8,84,84,0,1,1,87.6,0Z"/></svg>