<svg id="Flat" xmlns="http://www.w3.org/2000/svg" viewBox="0 0 256.00004 256.00004">
  <g opacity="0.2">
    <path d="M176,104.00005h24a0,0,0,0,1,0,0v72a24,24,0,0,1-24,24h0a24,24,0,0,1-24-24V128a24,24,0,0,1,24-24Z" transform="translate(23.99995 328.00003) rotate(-90)"/>
  </g>
  <g opacity="0.2">
    <path d="M128,176h24a24,24,0,0,1,24,24v0a24,24,0,0,1-24,24h0a24,24,0,0,1-24-24Z"/>
  </g>
  <g opacity="0.2">
    <path d="M80,56.00005h24a0,0,0,0,1,0,0v72a24,24,0,0,1-24,24h0a24,24,0,0,1-24-24V80a24,24,0,0,1,24-24Z" transform="translate(184.00005 24.00003) rotate(90)"/>
  </g>
  <g opacity="0.2">
    <path d="M128,80H104a24,24,0,0,1-24-24V56a24,24,0,0,1,24-24h0a24,24,0,0,1,24,24Z"/>
  </g>
  <path d="M221.13184,128A31.97762,31.97762,0,0,0,184,76.30522V56a31.97939,31.97939,0,0,0-56-21.132A31.97768,31.97768,0,0,0,76.30518,72H56a31.97928,31.97928,0,0,0-21.13184,56A31.97763,31.97763,0,0,0,72,179.69487V200a31.97939,31.97939,0,0,0,56,21.132A31.97768,31.97768,0,0,0,179.69482,184H200a31.97928,31.97928,0,0,0,21.13184-56ZM200,88a16,16,0,0,1,0,32H184V104A16.01833,16.01833,0,0,1,200,88ZM152,40a16.01833,16.01833,0,0,1,16,16v48a16.01833,16.01833,0,0,1-16,16H136V56A16.01833,16.01833,0,0,1,152,40ZM88,56a16,16,0,0,1,32,0V72H104A16.01833,16.01833,0,0,1,88,56ZM40,104A16.01833,16.01833,0,0,1,56,88h48a16.01833,16.01833,0,0,1,16,16v16H56A16.01833,16.01833,0,0,1,40,104Zm16,64a16,16,0,0,1,0-32H72v16A16.01833,16.01833,0,0,1,56,168Zm48,48a16.01833,16.01833,0,0,1-16-16V152a16.01833,16.01833,0,0,1,16-16h16v64A16.01833,16.01833,0,0,1,104,216Zm64-16a16,16,0,0,1-32,0V184h16A16.01833,16.01833,0,0,1,168,200Zm32-32H152a16.01833,16.01833,0,0,1-16-16V136h64a16,16,0,0,1,0,32Z"/>
</svg>
