<svg xmlns="http://www.w3.org/2000/svg" viewBox="0 0 256 256"><g opacity="0.2"><circle cx="56" cy="136" r="20"/></g><path d="M136,61.2V40a8,8,0,0,0-16,0V61.2a28,28,0,0,0,0,53.6V216a8,8,0,0,0,16,0V114.8a28,28,0,0,0,0-53.6ZM128,100a12,12,0,1,1,12-12A12,12,0,0,1,128,100Z"/><path d="M228,168a28,28,0,0,0-20-26.8V40a8,8,0,0,0-16,0V141.2a28,28,0,0,0,0,53.6V216a8,8,0,0,0,16,0V194.8A28,28,0,0,0,228,168Zm-28,12a12,12,0,1,1,12-12A12,12,0,0,1,200,180Z"/><path d="M64,109.2V40a8,8,0,0,0-16,0v69.2a28,28,0,0,0,0,53.6V216a8,8,0,0,0,16,0V162.8a28,28,0,0,0,0-53.6ZM56,148a12,12,0,1,1,12-12A12,12,0,0,1,56,148Z"/></svg>