<svg id="Flat" xmlns="http://www.w3.org/2000/svg" viewBox="0 0 256.00098 256.00098">
  <g opacity="0.2">
    <circle cx="55.99609" cy="136" r="20"/>
  </g>
  <g>
    <path d="M135.99609,61.17053V39.99988a8,8,0,0,0-16,0V61.17053a27.99534,27.99534,0,0,0,0,53.65869V215.99988a8,8,0,0,0,16,0V114.82922a27.99534,27.99534,0,0,0,0-53.65869Zm-8,38.82935a12,12,0,1,1,12-12A12.01344,12.01344,0,0,1,127.99609,99.99988Z"/>
    <path d="M227.99609,167.99988a28.04536,28.04536,0,0,0-20-26.82935l.001-101.17065a8,8,0,1,0-16,0l-.001,101.17065a27.99534,27.99534,0,0,0,0,53.65869l.001,21.17066a8,8,0,0,0,16,0l-.001-21.17066A28.04545,28.04545,0,0,0,227.99609,167.99988Zm-28,12a12,12,0,1,1,12-12A12.01344,12.01344,0,0,1,199.99609,179.99988Z"/>
    <path d="M63.99609,109.17053l-.00048-69.17065a8,8,0,0,0-16,0l.00048,69.17065a27.99534,27.99534,0,0,0,0,53.65869l-.00048,53.17066a8,8,0,1,0,16,0l.00048-53.17066a27.99534,27.99534,0,0,0,0-53.65869Zm-8,38.82935a12,12,0,1,1,12-12A12.01344,12.01344,0,0,1,55.99609,147.99988Z"/>
  </g>
</svg>
