<svg id="Flat" xmlns="http://www.w3.org/2000/svg" viewBox="0 0 256 256">
  <g opacity="0.2">
    <circle cx="103.99951" cy="83.99353" r="20"/>
  </g>
  <g>
    <path d="M215.99951,163.99353H194.8291a27.99567,27.99567,0,0,0-53.65918,0H39.99951a8,8,0,0,0,0,16H141.16992a27.99567,27.99567,0,0,0,53.65918,0h21.17041a8,8,0,0,0,0-16Zm-48,20a12,12,0,1,1,12-12A12.01343,12.01343,0,0,1,167.99951,183.99353Z"/>
    <path d="M39.999,91.99255l37.1709.001a27.99567,27.99567,0,0,0,53.65918,0l85.17041-.001a8,8,0,0,0,0-16l-85.17041.001a27.99567,27.99567,0,0,0-53.65918,0L40,75.99255h-.00049a8,8,0,0,0-.00049,16Zm64.00049-19.999a12,12,0,1,1-12,12A12.01343,12.01343,0,0,1,103.99951,71.99353Z"/>
  </g>
</svg>
