<svg id="Flat" xmlns="http://www.w3.org/2000/svg" viewBox="0 0 256 256">
  <g opacity="0.2">
    <circle cx="128" cy="128" r="96"/>
  </g>
  <path d="M80,108a12,12,0,1,1,12,12A12,12,0,0,1,80,108Zm84,12a12,12,0,1,0-12-12A12,12,0,0,0,164,120Zm68,8A104,104,0,1,1,128,24,104.11791,104.11791,0,0,1,232,128Zm-16,0a88,88,0,1,0-88,88A88.09957,88.09957,0,0,0,216,128Zm-49.75293,19.00244a8.00025,8.00025,0,0,0-12.49414,0L144,159.19385l-9.75293-12.19141a8.00025,8.00025,0,0,0-12.49414,0L112,159.19385l-9.75293-12.19141a8.00025,8.00025,0,0,0-12.49414,0l-16,20a8.00009,8.00009,0,0,0,12.49414,9.99512L96,164.80615l9.75293,12.19141a8.00025,8.00025,0,0,0,12.49414,0L128,164.80615l9.75293,12.19141a8.00025,8.00025,0,0,0,12.49414,0L160,164.80615l9.75293,12.19141a8.00009,8.00009,0,1,0,12.49414-9.99512Z"/>
</svg>
