<svg xmlns="http://www.w3.org/2000/svg" viewBox="0 0 256 256"><g opacity="0.2"><circle cx="128" cy="128" r="96"/></g><path d="M128,24A104,104,0,1,0,232,128,104.2,104.2,0,0,0,128,24Zm0,192a88,88,0,1,1,88-88A88.1,88.1,0,0,1,128,216Z"/><circle cx="128" cy="180" r="12"/><path d="M179.3,112l10.4-10.3a8.1,8.1,0,0,0-11.4-11.4L168,100.7,157.7,90.3a8.1,8.1,0,0,0-11.4,11.4L156.7,112l-10.4,10.3a8.1,8.1,0,0,0,0,11.4,8.2,8.2,0,0,0,11.4,0L168,123.3l10.3,10.4a8.2,8.2,0,0,0,11.4,0,8.1,8.1,0,0,0,0-11.4Z"/><path d="M109.7,90.3a8.1,8.1,0,0,0-11.4,0L88,100.7,77.7,90.3a8.1,8.1,0,0,0-11.4,11.4L76.7,112,66.3,122.3a8.1,8.1,0,0,0,0,11.4,8.2,8.2,0,0,0,11.4,0L88,123.3l10.3,10.4a8.2,8.2,0,0,0,11.4,0,8.1,8.1,0,0,0,0-11.4L99.3,112l10.4-10.3A8.1,8.1,0,0,0,109.7,90.3Z"/></svg>