<svg xmlns="http://www.w3.org/2000/svg" viewBox="0 0 256 256"><path d="M224,128a97.2,97.2,0,0,1-4.2,28.2l-63.6,63.6A97.2,97.2,0,0,1,128,224a96,96,0,1,1,96-96Z" opacity="0.2"/><path d="M128,24a104,104,0,0,0,0,208,102.2,102.2,0,0,0,30.6-4.6,6.7,6.7,0,0,0,3.3-2l63.5-63.5a7.2,7.2,0,0,0,2-3.3A102.2,102.2,0,0,0,232,128,104.2,104.2,0,0,0,128,24Zm84.7,128L152,212.7A87.9,87.9,0,1,1,212.7,152ZM80,108a12,12,0,1,1,12,12A12,12,0,0,1,80,108Zm72,0a12,12,0,1,1,12,12A12,12,0,0,1,152,108Zm24.5,48a56,56,0,0,1-97,0,8,8,0,1,1,13.8-8,40.1,40.1,0,0,0,69.4,0,8,8,0,0,1,13.8,8Z"/></svg>