<svg id="Flat" xmlns="http://www.w3.org/2000/svg" viewBox="0 0 256 256">
  <path d="M224,128a96,96,0,1,1-96-96A95.99991,95.99991,0,0,1,224,128Z" opacity="0.2"/>
  <path d="M128,24A104,104,0,1,0,232,128,104.11791,104.11791,0,0,0,128,24Zm0,192a88,88,0,1,1,88-88A88.09957,88.09957,0,0,1,128,216ZM176.50293,156.002a56.02857,56.02857,0,0,1-97.00586.00147,8.00024,8.00024,0,0,1,13.84961-8.0127,40.1954,40.1954,0,0,0,19.08594,16.86573,39.95953,39.95953,0,0,0,43.85156-8.57618,40.182,40.182,0,0,0,6.36914-8.29,8,8,0,0,1,13.84961,8.01172ZM80,108a12,12,0,1,1,12,12A12,12,0,0,1,80,108Zm104,0a8.00008,8.00008,0,0,1-8,8H152a8,8,0,0,1,0-16h24A8.00008,8.00008,0,0,1,184,108Z"/>
</svg>
