<svg id="Flat" xmlns="http://www.w3.org/2000/svg" viewBox="0 0 256 256">
  <g opacity="0.2">
    <circle cx="128" cy="128" r="96"/>
  </g>
  <g>
    <circle cx="92" cy="108" r="12"/>
    <circle cx="164" cy="108" r="12"/>
    <path d="M128,24A104,104,0,1,0,232,128,104.11791,104.11791,0,0,0,128,24Zm0,192a88,88,0,1,1,88-88A88.09957,88.09957,0,0,1,128,216Z"/>
    <path d="M173.584,145.07129a7.99991,7.99991,0,0,0-10.93066,2.91894A40.1954,40.1954,0,0,1,143.56738,164.856a39.96,39.96,0,0,1-43.85205-8.57569,40.16368,40.16368,0,0,1-6.36865-8.28955,8.00011,8.00011,0,0,0-13.84961,8.01221,56.19408,56.19408,0,0,0,26.70215,23.58887A56.056,56.056,0,0,0,176.50293,156.002,8.00024,8.00024,0,0,0,173.584,145.07129Z"/>
  </g>
</svg>
