<svg id="Flat" xmlns="http://www.w3.org/2000/svg" viewBox="0 0 256 256">
  <g opacity="0.2">
    <circle cx="128" cy="128" r="96"/>
  </g>
  <g>
    <path d="M128,24A104,104,0,1,0,232,128,104.11791,104.11791,0,0,0,128,24Zm0,192a88,88,0,1,1,88-88A88.09957,88.09957,0,0,1,128,216Z"/>
    <circle cx="128" cy="180" r="12"/>
    <path d="M179.31348,112l10.34326-10.34326a7.99984,7.99984,0,0,0-11.31348-11.31348L168,100.68652,157.65674,90.34326a7.99984,7.99984,0,0,0-11.31348,11.31348L156.68652,112l-10.34326,10.34326a7.99984,7.99984,0,1,0,11.31348,11.31348L168,123.31348l10.34326,10.34326a7.99984,7.99984,0,0,0,11.31348-11.31348Z"/>
    <path d="M109.65674,90.34326a7.99915,7.99915,0,0,0-11.31348,0L88,100.68652,77.65674,90.34326a7.99984,7.99984,0,0,0-11.31348,11.31348L76.68652,112,66.34326,122.34326a7.99984,7.99984,0,1,0,11.31348,11.31348L88,123.31348l10.34326,10.34326a7.99984,7.99984,0,0,0,11.31348-11.31348L99.31348,112l10.34326-10.34326A7.99915,7.99915,0,0,0,109.65674,90.34326Z"/>
  </g>
</svg>
