<svg id="Flat" xmlns="http://www.w3.org/2000/svg" viewBox="0 0 256 256">
  <g opacity="0.2">
    <path d="M156.21732,219.78606a95.898,95.898,0,1,1,63.57-63.573Z"/>
  </g>
  <g>
    <circle cx="92" cy="108" r="12"/>
    <circle cx="164" cy="108" r="12"/>
    <path d="M173.584,145.07153a7.99948,7.99948,0,0,0-10.93066,2.91895A40.19689,40.19689,0,0,1,143.56738,164.856,39.95826,39.95826,0,0,1,99.71484,156.28a40.19269,40.19269,0,0,1-6.36816-8.28906,8.00011,8.00011,0,0,0-13.84961,8.0122,56.02767,56.02767,0,0,0,97.00586-.00073A8.00048,8.00048,0,0,0,173.584,145.07153Z"/>
    <path d="M128,24a104,104,0,1,0,30.56543,203.43359,7.99683,7.99683,0,0,0,3.30859-1.99072l63.57032-63.57324a7.99548,7.99548,0,0,0,1.99072-3.30859A104.07559,104.07559,0,0,0,128,24Zm84.69043,127.99609L152,212.68945a87.89678,87.89678,0,1,1,60.69043-60.69336Z"/>
  </g>
</svg>
