<svg id="Flat" xmlns="http://www.w3.org/2000/svg" viewBox="0 0 256 256">
  <g opacity="0.2">
    <circle cx="128" cy="128" r="96"/>
  </g>
  <g>
    <circle cx="92" cy="108" r="12"/>
    <circle cx="164" cy="108" r="12"/>
    <path d="M128,24A104,104,0,1,0,232,128,104.11791,104.11791,0,0,0,128,24Zm0,192a88,88,0,1,1,88-88A88.09957,88.09957,0,0,1,128,216Z"/>
    <path d="M165.65674,146.34326a7.99915,7.99915,0,0,0-11.31348,0L144,156.68652l-10.34326-10.34326a7.99915,7.99915,0,0,0-11.31348,0L112,156.68652l-10.34326-10.34326a7.99915,7.99915,0,0,0-11.31348,0l-16,16a7.99984,7.99984,0,0,0,11.31348,11.31348L96,163.31348l10.34326,10.34326a7.99915,7.99915,0,0,0,11.31348,0L128,163.31348l10.34326,10.34326a7.99915,7.99915,0,0,0,11.31348,0L160,163.31348l10.34326,10.34326a7.99984,7.99984,0,0,0,11.31348-11.31348Z"/>
  </g>
</svg>
