<svg xmlns="http://www.w3.org/2000/svg" viewBox="0 0 256 256"><g opacity="0.2"><circle cx="128" cy="128" r="96"/></g><path d="M80,108a12,12,0,1,1,12,12A12,12,0,0,1,80,108Zm84,12a12,12,0,1,0-12-12A12,12,0,0,0,164,120Zm68,8A104,104,0,1,1,128,24,104.2,104.2,0,0,1,232,128Zm-16,0a88,88,0,1,0-88,88A88.1,88.1,0,0,0,216,128Zm-49.8,19a7.9,7.9,0,0,0-12.4,0L144,159.2,134.2,147a7.9,7.9,0,0,0-12.4,0L112,159.2,102.2,147a7.9,7.9,0,0,0-12.4,0l-16,20a8,8,0,0,0,12.4,10L96,164.8l9.8,12.2a7.9,7.9,0,0,0,12.4,0l9.8-12.2,9.8,12.2a7.9,7.9,0,0,0,12.4,0l9.8-12.2,9.8,12.2a7.8,7.8,0,0,0,6.2,3,8,8,0,0,0,6.2-13Z"/></svg>