<svg id="Flat" xmlns="http://www.w3.org/2000/svg" viewBox="0 0 256 256">
  <path d="M224,128a96,96,0,1,1-96-96A95.99975,95.99975,0,0,1,224,128Z" opacity="0.2"/>
  <path d="M128,24A104,104,0,1,0,232,128,104.11791,104.11791,0,0,0,128,24Zm0,192a88,88,0,1,1,88-88A88.09957,88.09957,0,0,1,128,216ZM80,108a12,12,0,1,1,12,12A12,12,0,0,1,80,108Zm72,0a12,12,0,1,1,12,12A12,12,0,0,1,152,108Zm24.50488,63.99463a7.99974,7.99974,0,1,1-13.84961,8.01074,40.01579,40.01579,0,0,0-69.30957-.00049,8.00016,8.00016,0,0,1-13.85058-8.01074,56.0156,56.0156,0,0,1,97.00976.00049Z"/>
</svg>
