<svg id="Flat" xmlns="http://www.w3.org/2000/svg" viewBox="0 0 256 256">
  <g opacity="0.2">
    <circle cx="128" cy="128" r="96"/>
  </g>
  <g>
    <circle cx="92" cy="108" r="12"/>
    <circle cx="164" cy="108" r="12"/>
    <path d="M128,24A104,104,0,1,0,232,128,104.11791,104.11791,0,0,0,128,24Zm0,192a88,88,0,1,1,88-88A88.09957,88.09957,0,0,1,128,216Z"/>
    <path d="M167.59766,160.40137a56.02763,56.02763,0,0,0-88.1001,11.59082,8,8,0,0,0,13.84912,8.01269,40.19825,40.19825,0,0,1,19.08594-16.86523,39.95854,39.95854,0,0,1,43.85156,8.57568,40.17536,40.17536,0,0,1,6.36914,8.28955,8,8,0,1,0,13.84961-8.01172A56.19338,56.19338,0,0,0,167.59766,160.40137Z"/>
  </g>
</svg>
