<svg id="Flat" xmlns="http://www.w3.org/2000/svg" viewBox="0 0 256 256">
  <path d="M103.31305,161.97852l-15.25739-46.957L128,86l39.9444,29.02148-15.25739,46.957ZM128,64l35.01648-25.4126.0003-.001a96.37632,96.37632,0,0,0-70.03344,0l.00042.001ZM53.78418,67.06738l-.00067-.00049A96.37548,96.37548,0,0,0,32.142,133.67236h.001l34.98938-25.4497Zm-6.66852,112.687-.00073.00049a96.37791,96.37791,0,0,0,56.6582,41.16455l.00025-.001L90.38177,179.77734Zm118.50263.023-13.39173,41.14112.00019.001A96.37684,96.37684,0,0,0,208.885,179.75488l-.00085-.00049Zm53.68316-81.44287a95.75165,95.75165,0,0,0-17.0849-31.26758l-.00079.00049-13.34815,41.15528,34.98963,25.45019h.00079A95.75411,95.75411,0,0,0,219.30145,98.33447Z" opacity="0.2"/>
  <path d="M231.76971,134.8335a7.99465,7.99465,0,0,0,.07862-1.23633Q231.99654,130.81689,232,128a103.49685,103.49685,0,0,0-22.96765-65.10937,7.99721,7.99721,0,0,0-1.39539-1.69776,104.47779,104.47779,0,0,0-41.09869-29.78662,7.93941,7.93941,0,0,0-1.1441-.44824,103.96207,103.96207,0,0,0-74.78962.00049,7.97749,7.97749,0,0,0-1.14251.44775A104.47713,104.47713,0,0,0,48.36359,61.19238a8,8,0,0,0-1.39618,1.69825A103.49872,103.49872,0,0,0,24,128q0,2.81982.1521,5.60352A7.9853,7.9853,0,0,0,24.23,134.8291a103.30228,103.30228,0,0,0,15.69409,48.41211,7.98908,7.98908,0,0,0,1.05616,1.64307A104.37806,104.37806,0,0,0,101.256,228.50781c.10742.03565.21863.05762.32758.08887a104.21855,104.21855,0,0,0,52.82977.00049c.11011-.03125.22235-.05371.33087-.08936a104.3797,104.3797,0,0,0,60.27545-43.62353,7.98908,7.98908,0,0,0,1.05616-1.64307A103.30127,103.30127,0,0,0,231.76971,134.8335Zm-191.258,2.644L68.53925,117.0918l13.16766,4.27832,12.738,39.2041L86.30713,171.7749l-34.63764-.01806A87.36512,87.36512,0,0,1,40.51172,137.47754ZM51.21057,85.06348l6.52088,20.105-17.116,12.44922A87.34038,87.34038,0,0,1,51.21057,85.06348Zm57.91492,68.915-11.665-35.90137L128,95.88867l30.53955,22.18848-11.665,35.90137Zm60.56738,17.79638-8.13782-11.20068,12.738-39.2041,13.16773-4.27832,28.02746,20.38574a87.36415,87.36415,0,0,1-11.15777,34.2793Zm45.69171-54.15722-17.116-12.44922,6.52088-20.105A87.34146,87.34146,0,0,1,215.38458,117.61768ZM193.19373,68.95361,182.51624,101.875l-13.16749,4.27832L136,81.92383V68.07861l28.04486-20.353A88.44268,88.44268,0,0,1,193.19373,68.95361Zm-48.0589-27.27343L128,54.11523l-17.1347-12.435a88.21173,88.21173,0,0,1,34.26953,0ZM91.95532,47.72559,120,68.07861V81.92383L86.65125,106.15332,73.48376,101.875,62.80634,68.95361A88.44311,88.44311,0,0,1,91.95532,47.72559ZM63.46948,187.7627l21.1023.01123,6.547,20.11328A88.4319,88.4319,0,0,1,63.46948,187.7627Zm46.51123,26.37939-10.72937-32.9624,8.13788-11.20117h41.22156l8.13788,11.20117-10.72925,32.9624a88.31128,88.31128,0,0,1-36.0387,0Zm54.90058-6.25488,6.54693-20.11328,21.1023-.01123A88.43154,88.43154,0,0,1,164.88129,207.88721Z"/>
</svg>
