<svg id="Flat" xmlns="http://www.w3.org/2000/svg" viewBox="0 0 256 256">
  <path d="M128,24S228,88,228,140a52.00142,52.00142,0,0,1-85.37486,39.87791L160,232H96l17.37486-52.12209A52.00142,52.00142,0,0,1,28,140C28,88,128,24,128,24Z" opacity="0.2"/>
  <path d="M160,240H96a7.99995,7.99995,0,0,1-7.58936-10.53027l10.8877-32.66211A59.98959,59.98959,0,0,1,20,140c0-23.92969,17.71338-52.00488,52.64819-83.44629a438.27736,438.27736,0,0,1,51.03931-39.292,8.00344,8.00344,0,0,1,8.625,0,438.27736,438.27736,0,0,1,51.03931,39.292C218.28662,87.99512,236,116.07031,236,140a59.98959,59.98959,0,0,1-79.29834,56.80762l10.8877,32.66211A7.99995,7.99995,0,0,1,160,240Zm-52.90039-16h41.80078l-13.8645-41.5918a7.99991,7.99991,0,0,1,12.727-8.66211A44.00169,44.00169,0,0,0,220,140c0-37.07812-62.76245-86.84375-92-106.43262C98.76245,53.15625,36,102.92188,36,140a44.00169,44.00169,0,0,0,72.23706,33.74609,7.99991,7.99991,0,0,1,12.72705,8.66211Z"/>
</svg>
