<svg id="Flat" xmlns="http://www.w3.org/2000/svg" viewBox="0 0 256 256">
  <g opacity="0.2">
    <path d="M147.30275,191.37116A52.0079,52.0079,0,0,0,228,148C228,80,128,24,128,24S28,80,28,148a52.0079,52.0079,0,0,0,80.69869,43.37021l-.00128-.00193L96,232h64l-12.69675-40.62959Z"/>
  </g>
  <path d="M160,240H96a8,8,0,0,1-7.63574-10.38574l7.40942-23.71094A60.04488,60.04488,0,0,1,20,148c0-30.56543,17.71338-62.00488,52.64819-93.44629a317.353,317.353,0,0,1,51.44287-37.53418,8.00334,8.00334,0,0,1,7.81788,0C136.15894,19.40039,236,76.1377,236,148a60.04531,60.04531,0,0,1-75.77417,57.90332l7.40991,23.71A8.00039,8.00039,0,0,1,160,240Zm-53.11841-16h42.23682l-9.45093-30.24414a7.99935,7.99935,0,0,1,12.05591-9.05274A44.00749,44.00749,0,0,0,220,148c0-55.24512-73.98022-103.71875-91.99683-114.70117C110.001,44.28906,36,92.834,36,148a44.00857,44.00857,0,0,0,68.12964,36.80078,8.00081,8.00081,0,0,1,12.1604,9.0918Z"/>
</svg>
