<svg xmlns="http://www.w3.org/2000/svg" viewBox="0 0 256 256"><path d="M128,24S228,88,228,140a52,52,0,0,1-85.4,39.9L160,232H96l17.4-52.1A52,52,0,0,1,28,140C28,88,128,24,128,24Z" opacity="0.2"/><path d="M160,240H96a7.9,7.9,0,0,1-6.5-3.3,8.1,8.1,0,0,1-1.1-7.2l10.9-32.7A60,60,0,0,1,20,140c0-23.9,17.7-52,52.6-83.4a420.5,420.5,0,0,1,51.1-39.3,7.9,7.9,0,0,1,8.6,0,420.5,420.5,0,0,1,51.1,39.3C218.3,88,236,116.1,236,140a60,60,0,0,1-79.3,56.8l10.9,32.7a8.1,8.1,0,0,1-1.1,7.2A7.9,7.9,0,0,1,160,240Zm-52.9-16h41.8L135,182.4a8.1,8.1,0,0,1,3.1-9.1,8,8,0,0,1,9.7.4A43.6,43.6,0,0,0,176,184a44,44,0,0,0,44-44c0-37.1-62.8-86.8-92-106.4C98.8,53.2,36,102.9,36,140a44,44,0,0,0,44,44,43.6,43.6,0,0,0,28.2-10.3,8.1,8.1,0,0,1,12.8,8.7Z"/></svg>