<svg id="Flat" xmlns="http://www.w3.org/2000/svg" viewBox="0 0 256 256">
  <g opacity="0.2">
    <path d="M80,168H32a8,8,0,0,1-8-8V96a8,8,0,0,1,8-8H80l72-56V224Z"/>
  </g>
  <g>
    <path d="M155.51465,24.81348a7.99587,7.99587,0,0,0-8.42578.87207L77.25488,80H32A16.01833,16.01833,0,0,0,16,96v64a16.01833,16.01833,0,0,0,16,16H77.25488l69.834,54.31445A7.99958,7.99958,0,0,0,160,224V32A7.9997,7.9997,0,0,0,155.51465,24.81348ZM144,207.64258l-59.08887-45.957A7.99511,7.99511,0,0,0,80,160H32V96H80a7.99511,7.99511,0,0,0,4.91113-1.68555L144,48.35742Z"/>
    <path d="M192,96a8.00039,8.00039,0,0,0-8,8v48a8,8,0,0,0,16,0V104A8.00039,8.00039,0,0,0,192,96Z"/>
    <path d="M224,80a8.00039,8.00039,0,0,0-8,8v80a8,8,0,0,0,16,0V88A8.00039,8.00039,0,0,0,224,80Z"/>
  </g>
</svg>
