<svg id="Flat" xmlns="http://www.w3.org/2000/svg" viewBox="0 0 256 256">
  <g opacity="0.2">
    <path d="M80,168H32a8,8,0,0,1-8-8V96a8,8,0,0,1,8-8H80l72-56V224Z"/>
  </g>
  <g>
    <path d="M191.97656,160a8.00039,8.00039,0,0,0,8-8V104a8,8,0,0,0-16,0v48A8.00039,8.00039,0,0,0,191.97656,160Z"/>
    <path d="M223.97656,80a8.00039,8.00039,0,0,0-8,8v80a8,8,0,1,0,16,0V88A8.00039,8.00039,0,0,0,223.97656,80Z"/>
    <path d="M53.91992,34.61813A8.0006,8.0006,0,1,0,42.08008,45.3818L73.55127,80H32A16.01833,16.01833,0,0,0,16,96v64a16.01833,16.01833,0,0,0,16,16H77.25488l69.834,54.31445A7.99958,7.99958,0,0,0,160,224V175.09372l42.08008,46.28808a8.0006,8.0006,0,1,0,11.83984-10.76367ZM144,207.64254l-59.08887-45.957A7.99516,7.99516,0,0,0,80,160H32V96H88.09668L144,157.49362Z"/>
    <path d="M117.06152,69.30856,144,48.35739v58.47168a8,8,0,0,0,16,0V32a7.99958,7.99958,0,0,0-12.91113-6.31446L107.23926,56.67965a7.99947,7.99947,0,0,0,9.82226,12.62891Z"/>
  </g>
</svg>
