<svg xmlns="http://www.w3.org/2000/svg" viewBox="0 0 256 256"><g opacity="0.2"><path d="M80,168H32a8,8,0,0,1-8-8V96a8,8,0,0,1,8-8H80l72-56V224Z"/></g><path d="M155.5,24.8a8,8,0,0,0-8.4.9L77.3,80H32A16,16,0,0,0,16,96v64a16,16,0,0,0,16,16H77.3l69.8,54.3A8.1,8.1,0,0,0,152,232a8.5,8.5,0,0,0,3.5-.8A8,8,0,0,0,160,224V32A8,8,0,0,0,155.5,24.8ZM144,207.6,84.9,161.7A7.9,7.9,0,0,0,80,160H32V96H80a7.9,7.9,0,0,0,4.9-1.7L144,48.4Z"/><path d="M192,96a8,8,0,0,0-8,8v48a8,8,0,0,0,16,0V104A8,8,0,0,0,192,96Z"/><path d="M224,80a8,8,0,0,0-8,8v80a8,8,0,0,0,16,0V88A8,8,0,0,0,224,80Z"/></svg>