<svg id="Flat" xmlns="http://www.w3.org/2000/svg" viewBox="0 0 256 256">
  <path d="M224,128a96,96,0,1,1-96-96A95.99991,95.99991,0,0,1,224,128Z" opacity="0.2"/>
  <path d="M128,24A104,104,0,1,0,232,128,104.1179,104.1179,0,0,0,128,24Zm0,192a88,88,0,1,1,88-88A88.09957,88.09957,0,0,1,128,216Zm58.24805-104.01368a8.00024,8.00024,0,0,1-10.77246,3.458,104.1903,104.1903,0,0,0-95.03614.04492,8,8,0,1,1-7.3291-14.22265,120.19311,120.19311,0,0,1,109.68066-.05274A7.99973,7.99973,0,0,1,186.24805,111.98629Zm-14.82666,28.36426a8.00153,8.00153,0,0,1-10.76221,3.49024,71.9412,71.9412,0,0,0-65.40234.042,7.99976,7.99976,0,1,1-7.29-14.24219,87.94,87.94,0,0,1,79.96484-.05176A7.9994,7.9994,0,0,1,171.42139,140.35055ZM156.624,168.65719a8.00044,8.00044,0,0,1-10.73633,3.56641,39.98258,39.98258,0,0,0-35.85156.04,7.99966,7.99966,0,1,1-7.20117-14.28711,55.97479,55.97479,0,0,1,50.22217-.05566A7.99977,7.99977,0,0,1,156.624,168.65719Z"/>
</svg>
