<svg xmlns="http://www.w3.org/2000/svg" viewBox="0 0 256 256"><g opacity="0.2"><rect x="48" y="48" width="64" height="64"/></g><g opacity="0.2"><rect x="144" y="48" width="64" height="64"/></g><g opacity="0.2"><rect x="48" y="144" width="64" height="64"/></g><g opacity="0.2"><rect x="144" y="144" width="64" height="64"/></g><path d="M208,136H144a8,8,0,0,0-8,8v64a8,8,0,0,0,8,8h64a8,8,0,0,0,8-8V144A8,8,0,0,0,208,136Zm-8,64H152V152h48Z"/><path d="M112,40H48a8,8,0,0,0-8,8v64a8,8,0,0,0,8,8h64a8,8,0,0,0,8-8V48A8,8,0,0,0,112,40Zm-8,64H56V56h48Z"/><path d="M208,40H144a8,8,0,0,0-8,8v64a8,8,0,0,0,8,8h64a8,8,0,0,0,8-8V48A8,8,0,0,0,208,40Zm-8,64H152V56h48Z"/><path d="M112,136H48a8,8,0,0,0-8,8v64a8,8,0,0,0,8,8h64a8,8,0,0,0,8-8V144A8,8,0,0,0,112,136Zm-8,64H56V152h48Z"/></svg>