<svg id="Flat" xmlns="http://www.w3.org/2000/svg" viewBox="0 0 256 256">
  <g opacity="0.2">
    <polygon points="16 104 128 168 240 104 128 40 16 104"/>
  </g>
  <g>
    <path d="M12.03125,110.94629l112,64a8.00091,8.00091,0,0,0,7.9375,0l112-64a8.00024,8.00024,0,0,0,0-13.89258l-112-64a8.00411,8.00411,0,0,0-7.9375,0l-112,64a8.00024,8.00024,0,0,0,0,13.89258ZM128,49.21387,223.87549,104,128,158.78613,32.12451,104Z"/>
    <path d="M236.03125,137.05371,128,198.78613,19.96875,137.05371a8.00012,8.00012,0,0,0-7.9375,13.89258l112,64a8.00091,8.00091,0,0,0,7.9375,0l112-64a8.00012,8.00012,0,0,0-7.9375-13.89258Z"/>
  </g>
</svg>
