<svg xmlns="http://www.w3.org/2000/svg" viewBox="0 0 256 256"><path d="M227.3,135.5l-63.8,23.2a8.1,8.1,0,0,0-4.8,4.8l-23.2,63.8a8,8,0,0,1-15,0L97.3,163.5a8.1,8.1,0,0,0-4.8-4.8L28.7,135.5a8,8,0,0,1,0-15L92.5,97.3a8.1,8.1,0,0,0,4.8-4.8l23.2-63.8a8,8,0,0,1,15,0l23.2,63.8a8.1,8.1,0,0,0,4.8,4.8l63.8,23.2A8,8,0,0,1,227.3,135.5Z" opacity="0.2"/><path d="M230.1,113,166.2,89.8,143,25.9a16,16,0,0,0-30,0L89.8,89.8,25.9,113a16,16,0,0,0,0,30l63.9,23.2L113,230.1a16,16,0,0,0,30,0l23.2-63.9L230.1,143a16,16,0,0,0,0-30Zm-69.3,38.2a15.7,15.7,0,0,0-9.6,9.6h0L128,224.6l-23.2-63.8a15.7,15.7,0,0,0-9.6-9.6L31.4,128l63.8-23.2a15.7,15.7,0,0,0,9.6-9.6L128,31.4l23.2,63.8a15.7,15.7,0,0,0,9.6,9.6L224.6,128Z"/></svg>