<svg id="Flat" xmlns="http://www.w3.org/2000/svg" viewBox="0 0 256 256">
  <path d="M227.32471,135.51831l-63.81592,23.20581a7.99952,7.99952,0,0,0-4.78467,4.78442l-23.20557,63.81592a8.00026,8.00026,0,0,1-15.0371,0L97.27588,163.50854a7.99952,7.99952,0,0,0-4.78467-4.78442L28.67529,135.51831a8.00011,8.00011,0,0,1,0-15.03662L92.49121,97.27588a8.00016,8.00016,0,0,0,4.78467-4.78442l23.20557-63.81617a8.00035,8.00035,0,0,1,15.0371,0l23.20557,63.81617a8.00016,8.00016,0,0,0,4.78467,4.78442l63.81592,23.20581A8.00011,8.00011,0,0,1,227.32471,135.51831Z" opacity="0.2"/>
  <path d="M230.05859,112.96289,166.24316,89.75684l-23.206-63.81543a16.001,16.001,0,0,0-30.07422,0L89.75684,89.75684,25.94141,112.96289a16.001,16.001,0,0,0,0,30.07422l63.81543,23.206,23.20605,63.81543a16.001,16.001,0,0,0,30.07422,0l23.206-63.81543,63.81543-23.206a16.001,16.001,0,0,0,0-30.07422Zm-69.28222,38.24316a15.95685,15.95685,0,0,0-9.57032,9.57032v-.002l-23.209,63.80762L104.794,160.77637a15.95872,15.95872,0,0,0-9.56836-9.57032L31.418,127.99707,95.22363,104.794a15.95872,15.95872,0,0,0,9.57032-9.56836l23.209-63.80762,23.20312,63.80566a15.95872,15.95872,0,0,0,9.56836,9.57032l63.80762,23.209Z"/>
</svg>
