<svg id="Flat" xmlns="http://www.w3.org/2000/svg" viewBox="0 0 256 256">
  <path d="M128,24V189.44775a8.231,8.231,0,0,0-4.41113,1.28492L76.71924,220.42725c-7.73633,4.90161-17.34131-2.38819-15.0459-11.41895L75.1875,155.84839a8.75822,8.75822,0,0,0-2.83789-8.876l-45.227-37.64331c-5.94287-4.94629-2.87549-14.80884,4.75928-15.30444l59.064-3.83325a8.4185,8.4185,0,0,0,7.248-5.35059l22.02832-55.47314A8.27525,8.27525,0,0,1,128,24Zm0,0Z" opacity="0.2"/>
  <path d="M233.99609,115.47754l-8.71777,7.25586A7.99993,7.99993,0,0,1,215.042,110.43652l8.71778-7.25586a.645.645,0,0,0,.18652-.81054c-.11328-.34766-.23242-.35547-.34668-.36231l-11.54688-.749a8.00016,8.00016,0,0,1,1.03516-15.9668l11.54785.749A16.36187,16.36187,0,0,1,239.16016,97.418,16.65646,16.65646,0,0,1,233.99609,115.47754Zm-60.93652,42.34277,3.31445,13.03516a7.99972,7.99972,0,0,0,15.50586-3.94336l-3.31347-13.0332a.77056.77056,0,0,1,.20117-.75684l10.03222-8.34961a8.00006,8.00006,0,0,0-10.23437-12.29883l-10.03223,8.34961A16.81494,16.81494,0,0,0,173.05957,157.82031Zm4.61231-58.793-13.13672-.85254A16.49953,16.49953,0,0,1,150.37109,87.792L136,51.60425V183.57031c.23242.13135.46582.26074.69238.4043l11.5166,7.29687a7.99982,7.99982,0,1,1-8.5625,13.51563l-11.5166-7.29688a.24439.24439,0,0,0-.12793-.042h-.00244a.23765.23765,0,0,0-.12939.042L81,227.18555a17.79837,17.79837,0,0,1-20.08008-.63184,18.3696,18.3696,0,0,1-6.999-19.5166l13.51367-53.15918a.77256.77256,0,0,0-.20215-.75586L22.00391,115.47754A16.65646,16.65646,0,0,1,16.83984,97.418,16.36063,16.36063,0,0,1,31.36328,86.041l59.06543-3.833a.45394.45394,0,0,0,.3291-.31836L112.78711,26.415a16.31771,16.31771,0,0,1,30.42578.001l22.0293,55.47168a.453.453,0,0,0,.33008.32031l13.13671.85254a8.00022,8.00022,0,1,1-1.0371,15.96679Zm-58.36426,84.94727c.22656-.1438.46-.273.69238-.4043V51.605L105.62891,87.794A16.50079,16.50079,0,0,1,91.46484,98.1748l-59.06445,3.833c-.11426.00684-.2334.01465-.34668.36231a.645.645,0,0,0,.18652.81054l45.22754,37.64356a16.81557,16.81557,0,0,1,5.47364,16.99512L69.42676,210.97949a2.33307,2.33307,0,0,0,.88672,2.62207,1.71491,1.71491,0,0,0,2.123.06836Zm81.05566,16.3125a7.99972,7.99972,0,0,0-15.50586,3.94336l2.77442,10.91113a.64731.64731,0,0,1-.05274.59473.82311.82311,0,0,1-.30566.2666.61873.61873,0,0,1-.14551-.07422l-9.82617-6.22461a7.99982,7.99982,0,0,0-8.5625,13.51563l9.82519,6.22461a16.16285,16.16285,0,0,0,18.23047-.57227,16.63644,16.63644,0,0,0,6.34278-17.67285Z"/>
</svg>
