<svg id="Flat" xmlns="http://www.w3.org/2000/svg" viewBox="0 0 256 256">
  <g opacity="0.2">
    <path d="M136,216V184a48,48,0,0,1,48-48h32C208,160,160,208,136,216Z"/>
  </g>
  <path d="M223.90674,137.15918A8.03057,8.03057,0,0,0,224,136V88a56.0629,56.0629,0,0,0-56-56H88A56.0629,56.0629,0,0,0,32,88v80a56.0629,56.0629,0,0,0,56,56h48a8.02769,8.02769,0,0,0,1.15918-.09326c.07275-.01074.14478-.02051.217-.0332a8.01524,8.01524,0,0,0,1.11279-.27344c.01343-.0044.02784-.00586.04126-.01026,26.23243-8.74511,76.31446-58.82714,85.05957-85.05957.0044-.01367.00586-.02783.01026-.041a7.98839,7.98839,0,0,0,.27344-1.11328C223.88623,137.30371,223.896,137.23193,223.90674,137.15918ZM48,168V88A40.04584,40.04584,0,0,1,88,48h80a40.04584,40.04584,0,0,1,40,40v40H184a56.0629,56.0629,0,0,0-56,56v24H88A40.04584,40.04584,0,0,1,48,168Zm96,35.1377V184a40.04584,40.04584,0,0,1,40-40h19.13794C190.97339,163.50439,163.50439,190.97363,144,203.1377Z"/>
</svg>
