<svg id="Flat" xmlns="http://www.w3.org/2000/svg" viewBox="0 0 256 256">
  <g opacity="0.2">
    <path d="M128,32a96,96,0,1,0,96,96A95.99991,95.99991,0,0,0,128,32Zm24,120H104V104h48Z"/>
  </g>
  <g>
    <path d="M128,24A104,104,0,1,0,232,128,104.11791,104.11791,0,0,0,128,24Zm0,192a88,88,0,1,1,88-88A88.09957,88.09957,0,0,1,128,216Z"/>
    <path d="M152,96H104a8.00008,8.00008,0,0,0-8,8v48a8.00008,8.00008,0,0,0,8,8h48a8.00008,8.00008,0,0,0,8-8V104A8.00008,8.00008,0,0,0,152,96Zm-8,48H112V112h32Z"/>
  </g>
</svg>
