<svg xmlns="http://www.w3.org/2000/svg" viewBox="0 0 256 256"><g opacity="0.2"><path d="M96,96v16a32,32,0,0,1-64,0V96"/></g><g opacity="0.2"><path d="M224,96v16a32,32,0,0,1-64,0V96"/></g><path d="M232,95.8v-.4a4.3,4.3,0,0,1-.1-.5v-.3c-.1-.2-.1-.4-.2-.6v-.2L217.4,43.6A16.2,16.2,0,0,0,202,32H54A16.2,16.2,0,0,0,38.6,43.6L24.3,93.8V94c-.1.2-.1.4-.2.6v.3a4.3,4.3,0,0,1-.1.5V112a40,40,0,0,0,16,32v64a16,16,0,0,0,16,16H200a16,16,0,0,0,16-16V144a40,40,0,0,0,16-32V95.8ZM54,48H202l11.4,40H42.6Zm50,56h48v8a24,24,0,0,1-48,0Zm-16,0v8a24,24,0,0,1-35.1,21.3,8.7,8.7,0,0,0-1.8-1.1A23.9,23.9,0,0,1,40,112v-8ZM200,208H56V151.2a42.6,42.6,0,0,0,8,.8,40,40,0,0,0,32-16,40,40,0,0,0,64,0,40,40,0,0,0,32,16,42.6,42.6,0,0,0,8-.8Zm4.9-75.8a8.7,8.7,0,0,0-1.8,1.1A24,24,0,0,1,168,112v-8h48v8A23.9,23.9,0,0,1,204.9,132.2Z"/></svg>