<svg id="Flat" xmlns="http://www.w3.org/2000/svg" viewBox="0 0 256 256">
  <g opacity="0.2">
    <circle cx="128" cy="128" r="60"/>
  </g>
  <path d="M128,60a68,68,0,1,0,68,68A68.07713,68.07713,0,0,0,128,60Zm0,120a52,52,0,1,1,52-52A52.059,52.059,0,0,1,128,180ZM120,36V28a8,8,0,0,1,16,0v8a8,8,0,0,1-16,0ZM51.63281,62.946A7.99983,7.99983,0,1,1,62.94629,51.63257l5.65674,5.657A8,8,0,0,1,57.28906,68.603ZM44,128a7.99993,7.99993,0,0,1-8,8H28a8,8,0,0,1,0-16h8A7.99993,7.99993,0,0,1,44,128Zm24.603,59.397a7.99915,7.99915,0,0,1,0,11.31348l-5.65674,5.65674a7.99984,7.99984,0,0,1-11.31348-11.31348l5.65674-5.65674A8,8,0,0,1,68.603,187.397ZM136,220v8a8,8,0,0,1-16,0v-8a8,8,0,0,1,16,0Zm68.36719-26.94629a7.99984,7.99984,0,1,1-11.31348,11.31348l-5.65674-5.65674A7.99984,7.99984,0,0,1,198.71045,187.397ZM236,128a7.99993,7.99993,0,0,1-8,8h-8a8,8,0,0,1,0-16h8A7.99993,7.99993,0,0,1,236,128ZM187.397,68.60327a7.99989,7.99989,0,0,1,0-11.31372l5.65674-5.657A7.99983,7.99983,0,1,1,204.36719,62.946l-5.65625,5.657a8.00033,8.00033,0,0,1-11.314.00024Z"/>
</svg>
