<svg id="Flat" xmlns="http://www.w3.org/2000/svg" viewBox="0 0 256 256">
  <g opacity="0.2">
    <circle cx="128" cy="128" r="60"/>
  </g>
  <path d="M128,60a68,68,0,1,0,68,68A68.07728,68.07728,0,0,0,128,60Zm0,120a52,52,0,1,1,52-52A52.059,52.059,0,0,1,128,180ZM120,36V16a8,8,0,0,1,16,0V36a8,8,0,0,1-16,0ZM43.14746,54.46094A7.99984,7.99984,0,1,1,54.46094,43.14746L68.603,57.28955A7.99984,7.99984,0,1,1,57.28955,68.603ZM36,136H16a8,8,0,0,1,0-16H36a8,8,0,0,1,0,16Zm32.603,51.39648a7.99974,7.99974,0,0,1,0,11.314L54.46094,212.85254a7.99984,7.99984,0,1,1-11.31348-11.31348L57.28955,187.397A7.9996,7.9996,0,0,1,68.603,187.39648ZM136,220v20a8,8,0,0,1-16,0V220a8,8,0,0,1,16,0Zm76.85254-18.46094a7.99984,7.99984,0,1,1-11.31348,11.31348L187.397,198.71045A7.99984,7.99984,0,1,1,198.71045,187.397ZM248,128a8.00008,8.00008,0,0,1-8,8H220a8,8,0,0,1,0-16h20A8.00008,8.00008,0,0,1,248,128ZM187.397,68.60352a7.99974,7.99974,0,0,1,0-11.314l14.14209-14.14209a7.99984,7.99984,0,1,1,11.31348,11.31348L198.71045,68.603a8,8,0,0,1-11.31348.00049Z"/>
</svg>
