<svg xmlns="http://www.w3.org/2000/svg" viewBox="0 0 256 256"><path d="M32,140h72v24a36,36,0,0,1-72,0Zm120,0v24a36,36,0,0,0,72,0V140Z" opacity="0.2"/><path d="M200,40a8,8,0,0,0,0,16,16,16,0,0,1,16,16v60H40V72A16,16,0,0,1,56,56a8,8,0,0,0,0-16A32.1,32.1,0,0,0,24,72v92a44,44,0,0,0,77,29.1h0a6,6,0,0,0,.8-.8A43.9,43.9,0,0,0,112,164V148h32v16a44,44,0,0,0,77,29.1h0a2.7,2.7,0,0,0,.7-.8A43.8,43.8,0,0,0,232,164V72A32.1,32.1,0,0,0,200,40Zm16,124a27.1,27.1,0,0,1-2.1,10.6L187.3,148H216ZM40,164V148h4.7l39.1,39.1A27.6,27.6,0,0,1,68,192,28.1,28.1,0,0,1,40,164Zm56,0a27.1,27.1,0,0,1-2.1,10.6L67.3,148H96Zm64,0V148h4.7l39.1,39.1A27.6,27.6,0,0,1,188,192,28.1,28.1,0,0,1,160,164Z"/></svg>