<svg xmlns="http://www.w3.org/2000/svg" viewBox="0 0 256 256"><g opacity="0.2"><path d="M36.7,173,60.9,35.9a7.9,7.9,0,0,1,9.2-6.5l55.2,9.7a8.1,8.1,0,0,1,6.5,9.3L107.5,186.3a36.1,36.1,0,0,1-41.1,29.3C46.5,212.4,33.2,192.9,36.7,173Z"/></g><path d="M72,192a12,12,0,1,1,12-12A12,12,0,0,1,72,192Zm156-27.7V208a16,16,0,0,1-16,16H71.9a51.6,51.6,0,0,1-6.7-.5,43.4,43.4,0,0,1-28.7-17.9,45,45,0,0,1-7.7-33.9L53,34.5a16.1,16.1,0,0,1,18.5-13l55.2,9.7A16.2,16.2,0,0,1,137,37.8a16,16,0,0,1,2.6,12l-11,62.8,59.9-21.8a16,16,0,0,1,20.5,9.5L228.2,153A15.7,15.7,0,0,1,228,164.3ZM125.4,130.8l-10.1,56.8a41,41,0,0,1-1.8,7.1l99.6-36.3L194,105.8ZM67.7,207.7a28.3,28.3,0,0,0,31.9-22.8L123.9,47,68.7,37.3,44.5,174.4a29,29,0,0,0,5.1,21.9A27.5,27.5,0,0,0,67.7,207.7ZM212,208V175.9L123.7,208Z"/></svg>