<svg id="Flat" xmlns="http://www.w3.org/2000/svg" viewBox="0 0 256 256">
  <g opacity="0.2">
    <path d="M36.67036,173.04838,60.85763,35.87558a8,8,0,0,1,9.26764-6.48928l55.14924,9.7243a8,8,0,0,1,6.48927,9.26765L107.453,186.25133a36.00022,36.00022,0,0,1-41.01188,29.317C46.4984,212.4439,33.16509,192.92775,36.67036,173.04838Z"/>
  </g>
  <path d="M72,192a12,12,0,1,1,12-12A12.01343,12.01343,0,0,1,72,192Zm156-27.72241V208a16.01833,16.01833,0,0,1-16,16H72c-.02008,0-.03943-.00293-.05951-.00293H71.937a43.299,43.299,0,0,1-35.40137-18.35449,45.288,45.288,0,0,1-7.74365-33.9834L52.979,34.48633A15.99894,15.99894,0,0,1,71.51514,21.50879l55.14843,9.72266a16.00057,16.00057,0,0,1,12.97852,18.53613l-11.07684,62.82031,59.94256-21.81738a16.01707,16.01707,0,0,1,20.50733,9.56347l19.15332,52.62207A15.91451,15.91451,0,0,1,228,164.27759ZM125.35706,130.78271l-10.02552,56.85791a43.47958,43.47958,0,0,1-1.87884,7.06885l99.6806-36.28076L193.98,105.80566ZM67.6792,207.665a28.14038,28.14038,0,0,0,31.89551-22.80371l24.31054-137.873L68.73633,37.26562,44.54883,174.43848a29.1951,29.1951,0,0,0,5.00488,21.90234A27.40264,27.40264,0,0,0,67.6792,207.665ZM212,208V175.86841L123.71869,208Z"/>
</svg>
