<svg xmlns="http://www.w3.org/2000/svg" viewBox="0 0 256 256"><path d="M196,116l-89.7,89.7a7.9,7.9,0,0,1-5.6,2.3H48V155.3a7.9,7.9,0,0,1,2.3-5.6L140,60Z" opacity="0.2"/><path d="M237.7,66.3l-48-48a8.1,8.1,0,0,0-11.4,11.4L196.7,48,168,76.7,133.7,42.3a8.1,8.1,0,0,0-11.4,11.4l6.4,6.3-84,84A15.9,15.9,0,0,0,40,155.3v49.4L18.3,226.3a8.1,8.1,0,0,0,0,11.4,8.2,8.2,0,0,0,11.4,0L51.3,216h49.4a15.9,15.9,0,0,0,11.3-4.7l84-84,6.3,6.4a8.2,8.2,0,0,0,11.4,0,8.1,8.1,0,0,0,0-11.4L179.3,88,208,59.3l18.3,18.4a8.2,8.2,0,0,0,11.4,0A8.1,8.1,0,0,0,237.7,66.3ZM100.7,200H56V155.3l18-18,20.3,20.4a8.2,8.2,0,0,0,11.4,0,8.1,8.1,0,0,0,0-11.4L85.3,126,102,109.3l20.3,20.4a8.2,8.2,0,0,0,11.4,0,8.1,8.1,0,0,0,0-11.4L113.3,98,140,71.3,184.7,116Z"/></svg>