<svg id="Flat" xmlns="http://www.w3.org/2000/svg" viewBox="0 0 256 256">
  <path d="M244.61554,78.769l-18.40436,36.8086A7.99978,7.99978,0,0,1,219.05573,120H192V40l49.42926,28.24536A7.99993,7.99993,0,0,1,244.61554,78.769Zm-233.23108,0,18.40442,36.8086A7.99969,7.99969,0,0,0,36.94427,120H64V40L14.5708,68.24536A8,8,0,0,0,11.38446,78.769Z" opacity="0.2"/>
  <path d="M245.39844,61.29932,195.96924,33.0542c-.01959-.01123-.04-.01929-.05963-.03027-.15772-.08863-.32093-.16773-.485-.24561-.07831-.03735-.15539-.07861-.23437-.113-.14826-.06445-.30127-.11938-.454-.17505-.1001-.03662-.1991-.07739-.29993-.10961-.11872-.03809-.241-.0669-.362-.09937-.13934-.0376-.27814-.07788-.41834-.10742-.08575-.01807-.17395-.02905-.26074-.04444-.17847-.03173-.35663-.0625-.5357-.08178-.07-.00757-.14154-.00928-.2121-.0149-.19666-.01586-.393-.02856-.58936-.02978-.01953,0-.03839-.00293-.058-.00293H160a7.99977,7.99977,0,0,0-8,8,24,24,0,0,1-48,0,7.99977,7.99977,0,0,0-8-8H64c-.02576,0-.0506.00366-.07629.00391-.16791.00146-.33582.01318-.504.02539-.09833.00708-.19757.01025-.29486.02075-.15125.0166-.30176.0437-.45258.06909-.11371.019-.22864.03394-.3407.05786-.11712.0249-.23291.05933-.34936.08985-.14331.03735-.28748.072-.42755.11694-.08545.02759-.16931.0625-.25421.09326-.16718.05982-.33387.12012-.49567.19067-.07251.03174-.14343.06983-.21539.10376-.16913.08008-.337.16163-.49939.25269-.01947.011-.0398.0188-.05927.03L10.60107,61.29932A16.00794,16.00794,0,0,0,4.229,82.34668l18.4043,36.80811A15.91231,15.91231,0,0,0,36.94434,128H56v80a16.01833,16.01833,0,0,0,16,16H184a16.01833,16.01833,0,0,0,16-16V128h19.05566a15.91146,15.91146,0,0,0,14.31055-8.84473l18.40527-36.80908A16.00784,16.00784,0,0,0,245.39844,61.29932ZM36.94434,112,18.54,75.19092,56,53.7854V112ZM184,208H72V48H88.80371a40.00546,40.00546,0,0,0,78.39258,0H184Zm35.05566-96H200V53.7854l37.46045,21.406Z"/>
</svg>
