<svg xmlns="http://www.w3.org/2000/svg" viewBox="0 0 256 256"><path d="M244.6,78.8l-18.4,36.8a7.9,7.9,0,0,1-7.1,4.4H192V40l49.4,28.2A8.1,8.1,0,0,1,244.6,78.8Zm-233.2,0,18.4,36.8a7.9,7.9,0,0,0,7.1,4.4H64V40L14.6,68.2A8.1,8.1,0,0,0,11.4,78.8Z" opacity="0.2"/><path d="M245.4,61.3,196,33.1h-.1l-.5-.2h-.2l-.5-.2H160a8,8,0,0,0-8,8,24,24,0,0,1-48,0,8,8,0,0,0-8-8H61.3l-.5.2h-.2l-.5.2H60L10.6,61.3a15.9,15.9,0,0,0-6.4,21l18.4,36.9A16,16,0,0,0,36.9,128H56v80a16,16,0,0,0,16,16H184a16,16,0,0,0,16-16V128h19.1a16,16,0,0,0,14.3-8.8l18.4-36.9A15.9,15.9,0,0,0,245.4,61.3ZM36.9,112,18.5,75.2,56,53.8V112ZM184,208H72V48H88.8a40,40,0,0,0,78.4,0H184Zm35.1-96H200V53.8l37.5,21.4Z"/></svg>