<svg id="Flat" xmlns="http://www.w3.org/2000/svg" viewBox="0 0 256 256">
  <path d="M229.04736,132.4292l-42.6665,64a8.00008,8.00008,0,0,1-6.65625,3.5625H24.00586l45.0415-67.5542a8.00121,8.00121,0,0,0,.00049-8.87549L24.00586,55.9917H179.72461a8.00008,8.00008,0,0,1,6.65625,3.5625l42.6665,64A7.99949,7.99949,0,0,1,229.04736,132.4292Z" opacity="0.2"/>
  <path d="M235.7041,119.11621l-42.667-64a15.96734,15.96734,0,0,0-13.3125-7.125H24.00586a8.00013,8.00013,0,0,0-6.65674,12.4375L62.39062,128l-45.041,67.55371a7.99977,7.99977,0,0,0,6.65625,12.4375H179.72461a15.96753,15.96753,0,0,0,13.3125-7.124h0l42.667-64A15.96086,15.96086,0,0,0,235.7041,119.11621Zm-55.97949,72.875H38.95508l36.748-55.11621a15.95383,15.95383,0,0,0,.001-17.75l-36.751-55.13379H179.72461l42.666,64.001Z"/>
</svg>
