<svg xmlns="http://www.w3.org/2000/svg" viewBox="0 0 256 256"><path d="M229,132.4l-42.6,64a7.9,7.9,0,0,1-6.7,3.6H24l45-67.6a7.8,7.8,0,0,0,0-8.8L24,56H179.7a7.9,7.9,0,0,1,6.7,3.6l42.6,64A7.8,7.8,0,0,1,229,132.4Z" opacity="0.2"/><path d="M235.7,119.1,193,55.1A15.9,15.9,0,0,0,179.7,48H24a7.8,7.8,0,0,0-7,4.2,8,8,0,0,0,.3,8.2L62.4,128,17.3,195.6a8,8,0,0,0-.3,8.2,7.8,7.8,0,0,0,7,4.2H179.7a15.9,15.9,0,0,0,13.3-7.1h0l42.7-64A16,16,0,0,0,235.7,119.1Zm-56,72.9H39l36.7-55.1a16,16,0,0,0,0-17.8L39,64H179.7l42.7,64Z"/></svg>