<svg id="Flat" xmlns="http://www.w3.org/2000/svg" viewBox="0 0 256 256">
  <g opacity="0.2">
    <path d="M194.37493,196.43765,240,128,194.37493,59.56244a8,8,0,0,0-6.6564-3.56239H40a8,8,0,0,0-8,8V192a8,8,0,0,0,8,8H187.71853A8,8,0,0,0,194.37493,196.43765Z"/>
  </g>
  <path d="M187.71875,207.99963H40a16.01833,16.01833,0,0,1-16-16v-128a16.01833,16.01833,0,0,1,16-16H187.71875a15.9687,15.9687,0,0,1,13.31348,7.126l45.624,68.43652a7.99771,7.99771,0,0,1,0,8.875l-45.625,68.43848.001-.001A15.96649,15.96649,0,0,1,187.71875,207.99963Zm0-16v.001h0l42.666-64.001-42.666-64H40v128Z"/>
</svg>
