<svg xmlns="http://www.w3.org/2000/svg" viewBox="0 0 256 256"><g opacity="0.2"><path d="M122.7,25.9,42,42,25.9,122.7a8,8,0,0,0,2.2,7.2L132.5,234.3a7.9,7.9,0,0,0,11.3,0l90.5-90.5a7.9,7.9,0,0,0,0-11.3L129.9,28.1A8,8,0,0,0,122.7,25.9Z"/></g><path d="M240,126.9,135.6,22.4A16.2,16.2,0,0,0,121.1,18L40.4,34.2a7.9,7.9,0,0,0-6.2,6.2L18,121.1a15.9,15.9,0,0,0,4.4,14.4L126.9,240a15.9,15.9,0,0,0,22.6,0L240,149.5a15.9,15.9,0,0,0,0-22.6ZM138.2,228.7,33.7,124.2,48.8,48.8l75.4-15.1h0L228.7,138.2ZM96,84A12,12,0,1,1,84,72,12,12,0,0,1,96,84Z"/></svg>