<svg id="Flat" xmlns="http://www.w3.org/2000/svg" viewBox="0 0 256 256">
  <g opacity="0.2">
    <circle cx="128" cy="128" r="48"/>
  </g>
  <path d="M211.2002,79.3916a8.00051,8.00051,0,0,0-3.77051,10.667,88.0876,88.0876,0,1,1-23.13037-29.67187L161.53076,83.15527a55.99151,55.99151,0,1,0,22.37842,41.65039,8.0002,8.0002,0,1,0-15.97461.90821A39.97383,39.97383,0,1,1,150.0625,94.62354l-27.71973,27.71972a8.00018,8.00018,0,0,0,11.31446,11.31348l33.93652-33.93653.00488-.00439.0044-.00488,62.0542-62.0542a8.00018,8.00018,0,0,0-11.31446-11.31348L195.667,49.01855a104.00214,104.00214,0,0,0-141.206,152.52051A104.01636,104.01636,0,0,0,221.86719,83.16211,7.99953,7.99953,0,0,0,211.2002,79.3916Z"/>
</svg>
