<svg xmlns="http://www.w3.org/2000/svg" viewBox="0 0 256 256"><g opacity="0.2"><circle cx="128" cy="128" r="48"/></g><path d="M211.2,79.4a8,8,0,0,0-3.8,10.7,88,88,0,1,1-23.1-29.7L161.5,83.2a55.9,55.9,0,1,0,22.4,41.6,7.9,7.9,0,0,0-8.4-7.5,8,8,0,0,0-7.6,8.4,39.8,39.8,0,1,1-17.8-31.1l-27.8,27.7a8.1,8.1,0,0,0,0,11.4,8.2,8.2,0,0,0,11.4,0l33.9-34h0l62.1-62a8.1,8.1,0,0,0-11.4-11.4L195.7,49A104,104,0,0,0,54.5,54.5a103.8,103.8,0,0,0,0,147,103.8,103.8,0,0,0,147,0A104,104,0,0,0,221.9,83.2,8,8,0,0,0,211.2,79.4Z"/></svg>