<svg id="Flat" xmlns="http://www.w3.org/2000/svg" viewBox="0 0 256 256">
  <g opacity="0.2">
    <path d="M88,134.87236,224.11223,36.56908l.00168-.00367a7.87244,7.87244,0,0,0-6.22314-.15014L33.33393,108.91975a8,8,0,0,0,1.35629,15.29065Z"/>
  </g>
  <g opacity="0.2">
    <path d="M132.90708,174.39059l-31.25023,31.25023A8,8,0,0,1,88,199.984v-65.1116Z"/>
  </g>
  <path d="M231.25586,31.73635a15.9634,15.9634,0,0,0-16.29-2.76758L30.40869,101.47365a15.99988,15.99988,0,0,0,2.7124,30.58106L80,141.43069V199.9844a15.99415,15.99415,0,0,0,27.31348,11.31347L133.25684,185.355l39.376,34.65088a15.86863,15.86863,0,0,0,10.51709,4.00293,16.15674,16.15674,0,0,0,4.96338-.78711,15.86491,15.86491,0,0,0,10.68457-11.65332L236.41162,47.43557A15.96073,15.96073,0,0,0,231.25586,31.73635ZM86.14648,126.34279l-49.88574-9.977L175.94238,61.49026ZM96,199.97658V152.56887l25.21973,22.1936Zm87.20215,8.01758L100.81006,135.4883l118.64453-85.687Z"/>
</svg>
