<svg xmlns="http://www.w3.org/2000/svg" viewBox="0 0 256 256"><path d="M60.1,60.1A95.5,95.5,0,0,1,127.8,32h0A95.9,95.9,0,0,1,32,127.8,95.5,95.5,0,0,1,60.1,60.1ZM32,128v-.2h0Zm96.2,96.2V224h0Zm28.1-67.9A95.5,95.5,0,0,0,128.2,224,95.9,95.9,0,0,0,224,128.2h0A95.5,95.5,0,0,0,156.3,156.3Z" opacity="0.2"/><path d="M231.9,129.1a2.8,2.8,0,0,0,.1-.9,3.1,3.1,0,0,0-.1-1A104,104,0,0,0,128,24h-.2A104,104,0,0,0,24.1,126.9a2.8,2.8,0,0,0-.1.9,3.1,3.1,0,0,0,.1,1A104,104,0,0,0,128,232h.2A104,104,0,0,0,231.9,129.1ZM65.8,65.8a87.4,87.4,0,0,1,53.6-25.3,87.8,87.8,0,0,1-78.9,78.9A87.1,87.1,0,0,1,65.8,65.8ZM40.4,135.5a104,104,0,0,0,95.1-95.1,87.8,87.8,0,0,1,80.1,80.1,104,104,0,0,0-95.1,95.1,87.8,87.8,0,0,1-80.1-80.1Zm96.2,80a87.8,87.8,0,0,1,78.9-78.9,87.8,87.8,0,0,1-78.9,78.9Z"/></svg>