<svg id="Flat" xmlns="http://www.w3.org/2000/svg" viewBox="0 0 256 256">
  <path d="M60.11774,60.11768A95.69924,95.69924,0,0,1,127.83337,32h0A95.99931,95.99931,0,0,1,32.004,127.833,95.69356,95.69356,0,0,1,60.11774,60.11768ZM32,128c0-.05566.00385-.11133.004-.167l-.00275.00049Zm96.1665,96.1665c0-.05566.00385-.11132.004-.1665h-.00275Zm28.11774-67.88232A95.69366,95.69366,0,0,0,128.17047,224a96.00017,96.00017,0,0,0,95.82935-95.8335h0A95.69913,95.69913,0,0,0,156.28424,156.28418Z" opacity="0.2"/>
  <path d="M231.93774,129.11963a7.40252,7.40252,0,0,0,.00422-1.8833A103.90474,103.90474,0,0,0,128,24c-.04266,0-.08508.00146-.12775.00146L127.84717,24H127.833c-.01575,0-.031.00244-.04669.00244A103.89847,103.89847,0,0,0,24.06219,126.8877a7.42006,7.42006,0,0,0-.00421,1.86914A103.90477,103.90477,0,0,0,128,232c.04761,0,.09491-.00146.14252-.00195l.00982.001h.01465l.02118-.00146A103.89841,103.89841,0,0,0,231.93774,129.11963ZM65.77441,65.77441a87.57993,87.57993,0,0,1,53.63837-25.314,87.35018,87.35018,0,0,1-25.3537,53.59814,87.34869,87.34869,0,0,1-53.5982,25.354A87.59223,87.59223,0,0,1,65.77441,65.77441ZM40.37482,135.48389a103.23832,103.23832,0,0,0,64.99774-30.11133A103.23819,103.23819,0,0,0,135.48413,40.375a87.76215,87.76215,0,0,1,80.14105,80.14111A104.00761,104.00761,0,0,0,120.51605,215.625a87.76211,87.76211,0,0,1-80.14123-80.14111Zm96.21252,80.05517a88.01372,88.01372,0,0,1,78.95178-78.95166,87.82021,87.82021,0,0,1-78.95178,78.95166Z"/>
</svg>
