<svg id="Flat" xmlns="http://www.w3.org/2000/svg" viewBox="0 0 256 256">
  <path d="M224,56.48535v143.0293A8.48511,8.48511,0,0,1,215.51465,208H40.48535A8.48511,8.48511,0,0,1,32,199.51465V56.48535A8.48511,8.48511,0,0,1,40.48535,48h175.0293A8.48511,8.48511,0,0,1,224,56.48535Z" opacity="0.2"/>
  <path d="M128,128a7.99917,7.99917,0,0,1-3.00293,6.24707l-40,32a7.99979,7.99979,0,1,1-9.99414-12.49414L107.19336,128,75.00293,102.24707a7.99979,7.99979,0,1,1,9.99414-12.49414l40,32A7.99917,7.99917,0,0,1,128,128Zm47.99414,24h-40a8,8,0,1,0,0,16h40a8,8,0,1,0,0-16Zm56.49121-95.51465v143.0293a16.99025,16.99025,0,0,1-16.9707,16.9707H40.48535a16.99025,16.99025,0,0,1-16.9707-16.9707V56.48535a16.99025,16.99025,0,0,1,16.9707-16.9707h175.0293A16.99025,16.99025,0,0,1,232.48535,56.48535Zm-16.96,143.02881-.01074-143.02881H40.48535v143.0293h175.0293Z"/>
</svg>
