<svg xmlns="http://www.w3.org/2000/svg" viewBox="0 0 256 256"><g opacity="0.2"><path d="M160,147h0V48a32,32,0,0,0-64,0v99h0a52,52,0,1,0,64,0Zm-32,61a20,20,0,1,1,20-20A20.1,20.1,0,0,1,128,208Z"/></g><path d="M168,143.3V48a40,40,0,0,0-80,0v95.3A59.4,59.4,0,0,0,68,188a60,60,0,0,0,120,0A59.4,59.4,0,0,0,168,143.3ZM128,232a44,44,0,0,1-44-44,43.5,43.5,0,0,1,16.6-34.4A8.1,8.1,0,0,0,104,147V48a24,24,0,0,1,48,0v99a8.2,8.2,0,0,0,3.3,6.5A44,44,0,0,1,128,232Zm8-70.8V88a8,8,0,0,0-16,0v73.2a28,28,0,1,0,16,0ZM128,200a12,12,0,1,1,12-12A12,12,0,0,1,128,200Z"/></svg>