<svg id="Flat" xmlns="http://www.w3.org/2000/svg" viewBox="0 0 256 256">
  <path d="M244.90576,77.71973l-19.96167,6.48632,12.33716,16.98047a8,8,0,1,1-12.94434,9.4043L212,93.61035l-12.33691,16.98047a7.99995,7.99995,0,0,1-12.94434-9.4043l12.33716-16.98047-19.96167-6.48632a8,8,0,1,1,4.94433-15.2168L204,68.98877V48a8,8,0,0,1,16,0V68.98877l19.96143-6.48584a8,8,0,1,1,4.94433,15.2168ZM148,188a28,28,0,1,1-36-26.8291V120a8,8,0,0,1,16,0v41.1709A28.04494,28.04494,0,0,1,148,188Zm-16,0a12,12,0,1,0-12,12A12.01343,12.01343,0,0,0,132,188Zm48,0A60,60,0,1,1,80,143.27441V48a40,40,0,0,1,80,0v95.27441A59.61666,59.61666,0,0,1,180,188Zm-16,0a43.76213,43.76213,0,0,0-16.668-34.4834A7.99255,7.99255,0,0,1,144,147.02539V48a24,24,0,0,0-48,0v99.02539a8.00255,8.00255,0,0,1-3.40918,6.55273A44.00061,44.00061,0,1,0,164,188Z"/>
  <g opacity="0.2">
    <path d="M152.00787,147.01562,152,147.02539V48a32,32,0,0,0-64,0v99.02539l-.00787-.00977a52,52,0,1,0,64.01574,0ZM120,208a20,20,0,1,1,20-20A19.9999,19.9999,0,0,1,120,208Z"/>
  </g>
</svg>
