<svg id="Flat" xmlns="http://www.w3.org/2000/svg" viewBox="0 0 256 256">
  <path d="M128,161.1709V48a8,8,0,0,0-16,0V161.1709a28,28,0,1,0,16,0ZM120,200a12,12,0,1,1,12-12A12.01343,12.01343,0,0,1,120,200ZM178.05908,85.65723a8.00034,8.00034,0,0,1,0-11.31446,27.99923,27.99923,0,0,1,39.59766,0,12.01214,12.01214,0,0,0,16.9707,0,8.00018,8.00018,0,0,1,11.31348,11.31446,27.99923,27.99923,0,0,1-39.59766,0,12.01214,12.01214,0,0,0-16.9707,0A8.00182,8.00182,0,0,1,178.05908,85.65723Zm67.88184,28.68554a8.00034,8.00034,0,0,1,0,11.31446,27.99923,27.99923,0,0,1-39.59766,0,12.01214,12.01214,0,0,0-16.9707,0,8.00018,8.00018,0,0,1-11.31348-11.31446,27.99923,27.99923,0,0,1,39.59766,0,12.01214,12.01214,0,0,0,16.9707,0A8.00182,8.00182,0,0,1,245.94092,114.34277ZM160,143.27441V48a40,40,0,0,0-80,0v95.27441a60,60,0,1,0,80,0ZM120,232a44.00126,44.00126,0,0,1-27.40918-78.42188A8.00255,8.00255,0,0,0,96,147.02539V48a24,24,0,0,1,48,0v99.02539a7.99255,7.99255,0,0,0,3.332,6.49121A44.00141,44.00141,0,0,1,120,232Z"/>
  <g opacity="0.2">
    <path d="M152.00787,147.01562,152,147.02539V48a32,32,0,0,0-64,0v99.02539l-.00787-.00977a52,52,0,1,0,64.01574,0ZM120,208a20,20,0,1,1,20-20A19.9999,19.9999,0,0,1,120,208Z"/>
  </g>
</svg>
