<svg id="Flat" xmlns="http://www.w3.org/2000/svg" viewBox="0 0 256 256">
  <g opacity="0.2">
    <path d="M160.00787,147.01562,160,147.02539V48a32,32,0,0,0-64,0v99.02539l-.00787-.00977a52,52,0,1,0,64.01574,0ZM128,208a20,20,0,1,1,20-20A19.9999,19.9999,0,0,1,128,208Z"/>
  </g>
  <path d="M168,143.27441V48a40,40,0,0,0-80,0v95.27441a60,60,0,1,0,80,0ZM128,232a44.00126,44.00126,0,0,1-27.40918-78.42188A8.00255,8.00255,0,0,0,104,147.02539V48a24,24,0,0,1,48,0v99.02539a7.99255,7.99255,0,0,0,3.332,6.49121A44.00141,44.00141,0,0,1,128,232Zm8-70.8291V88a8,8,0,0,0-16,0v73.1709a28,28,0,1,0,16,0ZM128,200a12,12,0,1,1,12-12A12.01343,12.01343,0,0,1,128,200Z"/>
</svg>
