<svg id="Flat" xmlns="http://www.w3.org/2000/svg" viewBox="0 0 256 256">
  <g opacity="0.2">
    <path d="M31.99414,104h48a0,0,0,0,1,0,0V208a0,0,0,0,1,0,0h-48a8,8,0,0,1-8-8V112A8,8,0,0,1,31.99414,104Z"/>
  </g>
  <path d="M231.86133,80.11621A24.01156,24.01156,0,0,0,213.86914,72h-53.875V56a40.04552,40.04552,0,0,0-40-40,7.99869,7.99869,0,0,0-7.15527,4.42236L75.0498,96H31.99414a16.01833,16.01833,0,0,0-16,16v88a16.01833,16.01833,0,0,0,16,16h169.875a24.03945,24.03945,0,0,0,23.81543-21.02344l12-96A24.01444,24.01444,0,0,0,231.86133,80.11621ZM31.99414,112h40v88h-40ZM221.80762,96.99219l-12,96A8.01243,8.01243,0,0,1,201.86914,200H87.99414V105.88818l36.71191-73.42382A24.04137,24.04137,0,0,1,143.99414,56V80a8.00039,8.00039,0,0,0,8,8h61.875a7.99943,7.99943,0,0,1,7.93848,8.99219Z"/>
</svg>
