<svg xmlns="http://www.w3.org/2000/svg" viewBox="0 0 256 256"><g opacity="0.2"><path d="M96,56H224a8,8,0,0,1,8,8V88.8a7.9,7.9,0,0,1-6.4,7.8,32.1,32.1,0,0,0,0,62.8,7.9,7.9,0,0,1,6.4,7.8V192a8,8,0,0,1-8,8H96Z"/></g><path d="M227.2,104.5A16.1,16.1,0,0,0,240,88.8V64a16,16,0,0,0-16-16H32A16,16,0,0,0,16,64V88.8a16.1,16.1,0,0,0,12.8,15.7,24,24,0,0,1,0,47A16.1,16.1,0,0,0,16,167.2V192a16,16,0,0,0,16,16H224a16,16,0,0,0,16-16V167.2a16.1,16.1,0,0,0-12.8-15.7,24,24,0,0,1,0-47ZM32,167.2a40,40,0,0,0,0-78.4V64H88V192H32Zm192,0V192H104V64H224V88.8a40,40,0,0,0,0,78.4Z"/></svg>