<svg id="Flat" xmlns="http://www.w3.org/2000/svg" viewBox="0 0 256 256">
  <g opacity="0.2">
    <path d="M96,56H224a8,8,0,0,1,8,8V88.80976A7.98836,7.98836,0,0,1,225.60083,96.64a32.00785,32.00785,0,0,0,0,62.7201A7.98836,7.98836,0,0,1,232,167.19024V192a8,8,0,0,1-8,8H96Z"/>
  </g>
  <path d="M227.19141,104.48A16.04032,16.04032,0,0,0,240,88.80957V64a16.01833,16.01833,0,0,0-16-16H32A16.01833,16.01833,0,0,0,16,64V88.80957A16.04032,16.04032,0,0,0,28.80859,104.48a24.00818,24.00818,0,0,1,0,47.04A16.04032,16.04032,0,0,0,16,167.19043V192a16.01833,16.01833,0,0,0,16,16H224a16.01833,16.01833,0,0,0,16-16V167.19043A16.04032,16.04032,0,0,0,227.19141,151.52a24.00818,24.00818,0,0,1,0-47.04ZM32,167.19824a40.00306,40.00306,0,0,0,0-78.38867V64H88V192H32Zm192-.00781V192H104V64H224l.00977,24.7998A40.003,40.003,0,0,0,224,167.19043Z"/>
</svg>
