<svg xmlns="http://www.w3.org/2000/svg" viewBox="0 0 256 256"><path d="M224,124a95.9,95.9,0,0,1-56-18v50A68,68,0,1,1,88,89.1v41.6A28,28,0,1,0,128,156V28h40a56,56,0,0,0,56,56Z" opacity="0.2"/><path d="M224,76a48,48,0,0,1-48-48,8,8,0,0,0-8-8H128a8,8,0,0,0-8,8V156a20,20,0,1,1-28.6-18.1,7.9,7.9,0,0,0,4.6-7.2V89.1a7.8,7.8,0,0,0-2.9-6.2,8,8,0,0,0-6.5-1.7A76,76,0,1,0,176,156V120.3A103.2,103.2,0,0,0,224,132a8,8,0,0,0,8-8V84A8,8,0,0,0,224,76Zm-8,39.6a87.4,87.4,0,0,1-43.3-16.1A8.1,8.1,0,0,0,160,106v50A60,60,0,1,1,80,99.4v26.7A36,36,0,1,0,136,156V36h24.5A64.1,64.1,0,0,0,216,91.5Z"/></svg>