<svg xmlns="http://www.w3.org/2000/svg" viewBox="0 0 256 256"><path d="M238.3,133.7,133.7,238.3a8,8,0,0,1-11.4,0L17.7,133.7a8,8,0,0,1,0-11.4L122.3,17.7a8,8,0,0,1,11.4,0L238.3,122.3A8,8,0,0,1,238.3,133.7Z" opacity="0.2"/><path d="M138.3,101.7a8.1,8.1,0,0,1,11.4-11.4l24,24h0l.5.5.2.3.3.4c0,.1.1.2.2.3l.2.3v.4l.2.3c0,.2.1.3.1.4l.2.4v.3a.8.8,0,0,1,.1.4.9.9,0,0,1,.1.5.4.4,0,0,0,.1.3v.8h0v.8a.4.4,0,0,0-.1.3.9.9,0,0,1-.1.5.8.8,0,0,1-.1.4v.3l-.2.4c0,.1-.1.2-.1.4l-.2.3v.4l-.2.3c-.1.1-.2.2-.2.3l-.3.4-.2.3-.5.5h0l-24,24a8.2,8.2,0,0,1-11.4,0,8.1,8.1,0,0,1,0-11.4L148.7,128H112a16,16,0,0,0-16,16v8a8,8,0,0,1-16,0v-8a32.1,32.1,0,0,1,32-32h36.7ZM244,139.3,139.3,244a15.9,15.9,0,0,1-22.6,0L12,139.3a16.1,16.1,0,0,1,0-22.6L116.7,12a15.9,15.9,0,0,1,22.6,0L244,116.7A16.1,16.1,0,0,1,244,139.3ZM232.7,128,128,23.3,23.3,128,128,232.7h0Z"/></svg>