<svg id="Flat" xmlns="http://www.w3.org/2000/svg" viewBox="0 0 256 256">
  <g opacity="0.2">
    <rect x="44" y="72" width="168" height="56"/>
  </g>
  <g>
    <path d="M188,24H68A32.03667,32.03667,0,0,0,36,56V184a32.03667,32.03667,0,0,0,32,32H79.99976L65.59961,235.2002a8.00019,8.00019,0,0,0,12.80078,9.5996L100.00024,216h55.99952l21.59985,28.7998a8.00019,8.00019,0,0,0,12.80078-9.5996L176.00024,216H188a32.03667,32.03667,0,0,0,32-32V56A32.03667,32.03667,0,0,0,188,24ZM52,120V80h68v40Zm84-40h68v40H136ZM68,40H188a16.01833,16.01833,0,0,1,16,16v8H52V56A16.01833,16.01833,0,0,1,68,40ZM188,200H68a16.01833,16.01833,0,0,1-16-16V136H204v48A16.01833,16.01833,0,0,1,188,200Z"/>
    <circle cx="84" cy="172" r="12"/>
    <circle cx="172" cy="172" r="12"/>
  </g>
</svg>
