<svg xmlns="http://www.w3.org/2000/svg" viewBox="0 0 256 256"><g opacity="0.2"><path d="M212,56a23.9,23.9,0,0,0-24-24H68A23.9,23.9,0,0,0,44,56v72H212Z"/></g><path d="M188,24H68A32.1,32.1,0,0,0,36,56V184a32.1,32.1,0,0,0,32,32H80L65.6,235.2a8,8,0,0,0,1.6,11.2A7.7,7.7,0,0,0,72,248a8,8,0,0,0,6.4-3.2L100,216h56l21.6,28.8A8,8,0,0,0,184,248a7.7,7.7,0,0,0,4.8-1.6,8,8,0,0,0,1.6-11.2L176,216h12a32.1,32.1,0,0,0,32-32V56A32.1,32.1,0,0,0,188,24ZM68,40H188a16,16,0,0,1,16,16v64H52V56A16,16,0,0,1,68,40ZM188,200H68a16,16,0,0,1-16-16V136H204v48A16,16,0,0,1,188,200Z"/><circle cx="84" cy="172" r="12"/><circle cx="172" cy="172" r="12"/></svg>