<svg id="Flat" xmlns="http://www.w3.org/2000/svg" viewBox="0 0 256 256">
  <g opacity="0.2">
    <path d="M40,120l88,16,88-16-22.39226,82.10494A8,8,0,0,1,185.88963,208H70.11037a8,8,0,0,1-7.71811-5.89506Z"/>
  </g>
  <g>
    <path d="M223.93018,121.04651a7.94859,7.94859,0,0,0,.06567-.98889c.00049-.06708-.00439-.13373-.00562-.20081q-.00732-.37884-.05078-.76166c-.011-.09741-.02295-.194-.03759-.291-.012-.07855-.01661-.15656-.03077-.23529-.03271-.18006-.07983-.35352-.124-.52838-.012-.0481-.01611-.09754-.0293-.14545l-.0332-.12231-.00073-.00177L201.3252,35.79A16.03362,16.03362,0,0,0,185.88965,24H70.11035A16.03362,16.03362,0,0,0,54.6748,35.79L32.31641,117.76978l-.00147.00488-.03271.12036c-.01294.04742-.01709.09625-.02906.14386-.04419.17535-.09155.34943-.12426.53-.01416.07873-.0188.15674-.03077.23529-.01464.097-.02661.1936-.03759.291q-.044.38316-.05078.76166c-.00123.06708-.00611.13373-.00562.20081a7.94859,7.94859,0,0,0,.06567.98889c.00269.0202.00757.0401.0105.06036a7.95052,7.95052,0,0,0,.18115.89508c.00879.03406.01148.06909.02076.103L54.6748,204.209A16.03394,16.03394,0,0,0,70.11035,216h9.88941L65.59961,235.2002a8.00019,8.00019,0,0,0,12.80078,9.5996L100.00024,216h55.99952l21.59985,28.7998a8.00019,8.00019,0,0,0,12.80078-9.5996L176.00024,216h9.88941a16.03394,16.03394,0,0,0,15.43555-11.791l22.39257-82.104c.00928-.03394.012-.069.02076-.103a7.95052,7.95052,0,0,0,.18115-.89508C223.92261,121.08661,223.92749,121.06671,223.93018,121.04651ZM70.10645,40h115.7832l20.09717,73.68933L128,127.86865,50.0127,113.68927ZM51.05811,130.14178,120,142.6767v57.32275L70.11035,199.999ZM185.88965,200,136,199.99957V142.6767l68.94214-12.535Z"/>
    <path d="M96,96h64a8,8,0,0,0,0-16H96a8,8,0,0,0,0,16Z"/>
  </g>
</svg>
