<svg id="Flat" xmlns="http://www.w3.org/2000/svg" viewBox="0 0 256 256">
  <path d="M239.126,212.42188l-56-112a8.0001,8.0001,0,0,0-14.31055,0L147.11786,143.817a88.012,88.012,0,0,1-47.15222-16.89991A103.63885,103.63885,0,0,0,127.666,64H151.9707a8,8,0,0,0,0-16h-56V32a8,8,0,0,0-16,0V48h-56a8,8,0,1,0,0,16h87.63251a87.71319,87.71319,0,0,1-23.64032,52.34106A87.62936,87.62936,0,0,1,68.981,85.332a7.99985,7.99985,0,1,0-15.083,5.33789A103.55887,103.55887,0,0,0,75.9798,126.93945,87.52763,87.52763,0,0,1,23.9707,144a8,8,0,1,0,0,16A103.48489,103.48489,0,0,0,87.984,137.90955,104.14159,104.14159,0,0,0,139.42535,159.202l-26.60992,53.21985a8.00006,8.00006,0,0,0,14.31055,7.15625L140.915,192h70.11133l13.78906,27.57813a8.00006,8.00006,0,0,0,14.31055-7.15625ZM148.915,176l27.05566-54.11133L203.02637,176Z"/>
</svg>
