<svg id="Flat" xmlns="http://www.w3.org/2000/svg" viewBox="0 0 256 256">
  <g opacity="0.2">
    <path d="M199.99609,56.00005V208a8,8,0,0,1-8,8h-128a8,8,0,0,1-8-8v-152Z"/>
  </g>
  <g>
    <path d="M215.99609,48H176V40a24.02718,24.02718,0,0,0-24-24H104A24.02718,24.02718,0,0,0,80,40v8H39.99609a8,8,0,0,0,0,16h8V208a16.01833,16.01833,0,0,0,16,16h128a16.01833,16.01833,0,0,0,16-16V64h8a8,8,0,0,0,0-16ZM96,40a8.00917,8.00917,0,0,1,8-8h48a8.00917,8.00917,0,0,1,8,8v8H96Zm95.99609,168h-128V64h128Z"/>
    <path d="M104,96a8.00008,8.00008,0,0,0-8,8v64a8,8,0,0,0,16,0V104A8.00008,8.00008,0,0,0,104,96Z"/>
    <path d="M152,96a8.00008,8.00008,0,0,0-8,8v64a8,8,0,0,0,16,0V104A8.00008,8.00008,0,0,0,152,96Z"/>
  </g>
</svg>
