<svg xmlns="http://www.w3.org/2000/svg" viewBox="0 0 256 256"><g opacity="0.2"><path d="M200,56V208a8,8,0,0,1-8,8H64a8,8,0,0,1-8-8V56Z"/></g><path d="M216,48H176V40a24.1,24.1,0,0,0-24-24H104A24.1,24.1,0,0,0,80,40v8H40a8,8,0,0,0,0,16h8V208a16,16,0,0,0,16,16H192a16,16,0,0,0,16-16V64h8a8,8,0,0,0,0-16ZM96,40a8,8,0,0,1,8-8h48a8,8,0,0,1,8,8v8H96Zm96,168H64V64H192Z"/><path d="M104,96a8,8,0,0,0-8,8v64a8,8,0,0,0,16,0V104A8,8,0,0,0,104,96Z"/><path d="M152,96a8,8,0,0,0-8,8v64a8,8,0,0,0,16,0V104A8,8,0,0,0,152,96Z"/></svg>