<svg id="Flat" xmlns="http://www.w3.org/2000/svg" viewBox="0 0 256 256">
  <g opacity="0.2">
    <path d="M199.99609,56.00005V208a8,8,0,0,1-8,8h-128a8,8,0,0,1-8-8v-152Z"/>
  </g>
  <g>
    <path d="M215.99609,48h-176a8,8,0,0,0,0,16h8V208a16.01833,16.01833,0,0,0,16,16h128a16.01833,16.01833,0,0,0,16-16V64h8a8,8,0,0,0,0-16Zm-24,160h-128V64h128Z"/>
    <path d="M104,176a8.00008,8.00008,0,0,0,8-8V104a8,8,0,0,0-16,0v64A8.00008,8.00008,0,0,0,104,176Z"/>
    <path d="M152,176a8.00008,8.00008,0,0,0,8-8V104a8,8,0,0,0-16,0v64A8.00008,8.00008,0,0,0,152,176Z"/>
    <path d="M88,32h80a8,8,0,0,0,0-16H88a8,8,0,0,0,0,16Z"/>
  </g>
</svg>
