<svg xmlns="http://www.w3.org/2000/svg" viewBox="0 0 256 256"><g opacity="0.2"><path d="M76.7,160a7.9,7.9,0,0,1,5.6,2.3l19.4,19.4a7.9,7.9,0,0,0,5.6,2.3h41.4a7.9,7.9,0,0,0,5.6-2.3l19.4-19.4a7.9,7.9,0,0,1,5.6-2.3H216V48a8,8,0,0,0-8-8H48a8,8,0,0,0-8,8V160Z"/></g><path d="M208,32H48A16,16,0,0,0,32,48V159.9h0V208a16,16,0,0,0,16,16H208a16,16,0,0,0,16-16V48A16,16,0,0,0,208,32Zm0,16V152H179.3a15.9,15.9,0,0,0-11.3,4.7L148.7,176H107.3L88,156.7A15.9,15.9,0,0,0,76.7,152H48V48Zm0,160H48V168H76.7L96,187.3a15.9,15.9,0,0,0,11.3,4.7h41.4a15.9,15.9,0,0,0,11.3-4.7L179.3,168H208v40Z"/></svg>