<svg id="Flat" xmlns="http://www.w3.org/2000/svg" viewBox="0 0 256 256">
  <g opacity="0.2">
    <path d="M76.68066,160a7.9996,7.9996,0,0,1,5.65674,2.34326l19.31348,19.31348A7.99962,7.99962,0,0,0,107.30762,184h41.373a7.9996,7.9996,0,0,0,5.65674-2.34326l19.31348-19.31348A7.99962,7.99962,0,0,1,179.30762,160h36.68652l.00586.00439V48a7.99977,7.99977,0,0,0-8-8H48a7.99977,7.99977,0,0,0-8,8V160Z"/>
  </g>
  <path d="M208,32H48A16.01833,16.01833,0,0,0,32,48V159.88379c-.00049.03906-.00586.07715-.00586.11621s.00537.07715.00586.11621V208a16.01833,16.01833,0,0,0,16,16H208a16.01833,16.01833,0,0,0,16-16V48A16.01833,16.01833,0,0,0,208,32Zm0,16,.00635,104H179.30762a15.89606,15.89606,0,0,0-11.31348,4.68652L148.68066,176l-41.373.001L87.99316,156.68457A15.89834,15.89834,0,0,0,76.68066,152H48V48Zm0,160H48V168l28.68066-.001,19.31446,19.31641A15.89834,15.89834,0,0,0,107.30762,192h41.373a15.89606,15.89606,0,0,0,11.31348-4.68652L179.30762,168h28.6997l.00245,40Z"/>
</svg>
