<svg xmlns="http://www.w3.org/2000/svg" viewBox="0 0 256 256"><path d="M80,108v40a8,8,0,0,1-8,8H32a8,8,0,0,1-8-8V108a8,8,0,0,1,8-8H72A8,8,0,0,1,80,108ZM216,40H168a8,8,0,0,0-8,8V96a8,8,0,0,0,8,8h48a8,8,0,0,0,8-8V48A8,8,0,0,0,216,40Zm0,112H168a8,8,0,0,0-8,8v48a8,8,0,0,0,8,8h48a8,8,0,0,0,8-8V160A8,8,0,0,0,216,152Z" opacity="0.2"/><path d="M168,112h48a16,16,0,0,0,16-16V48a16,16,0,0,0-16-16H168a16,16,0,0,0-16,16V64h-8a32.1,32.1,0,0,0-32,32v24H88V108A16,16,0,0,0,72,92H32a16,16,0,0,0-16,16v40a16,16,0,0,0,16,16H72a16,16,0,0,0,16-16V136h24v24a32.1,32.1,0,0,0,32,32h8v16a16,16,0,0,0,16,16h48a16,16,0,0,0,16-16V160a16,16,0,0,0-16-16H168a16,16,0,0,0-16,16v16h-8a16,16,0,0,1-16-16V96a16,16,0,0,1,16-16h8V96A16,16,0,0,0,168,112ZM72,148H32V108H72v19.9h0V148Zm96,12h48v48H168Zm0-112h48V96H168Z"/></svg>