<svg id="Flat" xmlns="http://www.w3.org/2000/svg" viewBox="0 0 256 256">
  <path d="M232,127.81885a63.98945,63.98945,0,0,1-99.52393,53.40771,8.031,8.031,0,0,0-8.95214,0A63.99553,63.99553,0,1,1,61.25244,69.85938a7.98768,7.98768,0,0,0,4.02344-4.16651,68.02855,68.02855,0,0,1,125.44824,0,7.98768,7.98768,0,0,0,4.02344,4.16651A63.99343,63.99343,0,0,1,232,127.81885Z" opacity="0.2"/>
  <path d="M198.10059,62.5957a76.0256,76.0256,0,0,0-140.1958-.002A72.26145,72.26145,0,0,0,16,127.7998c-.10547,38.81739,31.36035,71.19629,70.14453,72.17676A71.64492,71.64492,0,0,0,120,192.49219V232a8,8,0,0,0,16,0V192.4917A71.52381,71.52381,0,0,0,167.99707,200q.92871,0,1.86035-.02344c38.78418-.98144,70.25-33.36133,70.14258-72.18066A72.26158,72.26158,0,0,0,198.10059,62.5957ZM169.45312,183.98242a55.7111,55.7111,0,0,1-32.52734-9.4043c-.30371-.20312-.61328-.39062-.92578-.5708v-41.063l43.57764-21.78907a7.99984,7.99984,0,1,0-7.15528-14.31054L136,115.05566V88a8,8,0,0,0-16,0v51.05566L83.57764,120.84473a7.99984,7.99984,0,1,0-7.15528,14.31054L120,156.94434v17.063c-.3125.18018-.62207.36768-.9248.5708a55.65822,55.65822,0,0,1-32.52637,9.4043A55.99974,55.99974,0,0,1,64.59961,77.125a15.94939,15.94939,0,0,0,8.05176-8.334,60.02891,60.02891,0,0,1,110.69726,0,15.95118,15.95118,0,0,0,8.05078,8.334,55.99949,55.99949,0,0,1-21.94629,106.85742Z"/>
</svg>
