<svg xmlns="http://www.w3.org/2000/svg" viewBox="0 0 256 256"><path d="M232,127.8a63.9,63.9,0,0,1-99.5,53.4,8.2,8.2,0,0,0-9,0A64,64,0,1,1,61.3,69.9a8.6,8.6,0,0,0,4-4.2,68,68,0,0,1,125.4,0,8.6,8.6,0,0,0,4,4.2A63.9,63.9,0,0,1,232,127.8Z" opacity="0.2"/><path d="M198.1,62.6a76,76,0,0,0-140.2,0A72.3,72.3,0,0,0,16,127.8C15.9,166.6,47.4,199,86.1,200a71.6,71.6,0,0,0,33.9-7.5V232a8,8,0,0,0,16,0V192.5a72,72,0,0,0,32,7.5h1.9c38.7-1,70.2-33.4,70.1-72.2A72.3,72.3,0,0,0,198.1,62.6ZM169.5,184a56.2,56.2,0,0,1-32.6-9.4l-.9-.6V132.9l43.6-21.7a8,8,0,0,0-7.2-14.4L136,115.1V88a8,8,0,0,0-16,0v51.1L83.6,120.8a8,8,0,1,0-7.2,14.4L120,156.9V174l-.9.6A56.2,56.2,0,0,1,86.5,184c-30.1-.8-54.6-26-54.5-56.2A56.3,56.3,0,0,1,64.6,77.1a16.4,16.4,0,0,0,8.1-8.3,60,60,0,0,1,110.6,0,16.4,16.4,0,0,0,8.1,8.3A56.3,56.3,0,0,1,224,127.8C224.1,158,199.6,183.2,169.5,184Z"/></svg>