<svg id="Flat" xmlns="http://www.w3.org/2000/svg" viewBox="0 0 256 256">
  <path d="M32,192l56-72H48L128,16l80,104H168l56,72Z" opacity="0.2"/>
  <path d="M230.31445,187.08887,184.35742,128H208a8.00019,8.00019,0,0,0,6.34082-12.87793l-80-104a8,8,0,0,0-12.68164,0l-80,104A8.00019,8.00019,0,0,0,48,128H71.64258l-45.957,59.08887A7.99958,7.99958,0,0,0,32,200h88v40a8,8,0,0,0,16,0V200h88a7.99958,7.99958,0,0,0,6.31445-12.91113ZM48.35742,184l45.957-59.08887A7.99958,7.99958,0,0,0,88,112H64.24707L128,29.12109,191.75293,112H168a7.99958,7.99958,0,0,0-6.31445,12.91113L207.64258,184Z"/>
</svg>
