<svg id="Flat" xmlns="http://www.w3.org/2000/svg" viewBox="0 0 256 256">
  <path d="M233.14111,207.90967c-.1167.01672-.231.03882-.34912.05041-.2622.02588-.52588.03992-.78955.03992h-64a8,8,0,1,1,0-16h44.686l-76.686-76.686-34.34277,34.34278a8.00122,8.00122,0,0,1-11.31446,0l-72-72A8.00018,8.00018,0,1,1,29.65967,66.34326L96.00244,132.686l34.34277-34.34278a8.00122,8.00122,0,0,1,11.31446,0L224.00244,180.686V136a8,8,0,0,1,16,0v63.99487q0,.39918-.04.79712c-.01074.10767-.03125.21216-.0459.31861-.02148.1521-.03955.30456-.06933.45544-.02539.12622-.06006.24841-.09131.37244-.03174.12915-.06055.259-.09912.38672-.03711.12255-.0835.24072-.126.36059-.04541.12647-.0874.25379-.13867.37842-.0459.11108-.10059.21728-.15137.32568-.06006.12866-.11718.25806-.18506.384-.05517.10278-.11767.20019-.17724.30029-.07373.124-.144.24927-.22461.36987-.07373.10974-.15576.21265-.23438.31836-.07666.10352-.14892.20947-.23193.31006-.14844.18091-.30664.35327-.47021.52026-.02.02076-.03711.04346-.05762.064-.01612.01611-.03418.0293-.05029.04529-.17139.16882-.34913.33117-.53565.48413-.09424.07751-.19385.145-.291.21765-.11181.08374-.22167.17053-.33789.24853-.11474.07679-.23388.14331-.35156.21363-.10644.06347-.21045.13012-.31933.18872-.12012.06421-.24366.11865-.36622.17627-.11425.05395-.22656.11084-.34375.15942-.11816.04907-.23876.0885-.35888.13147-.12647.04553-.25147.09387-.38037.13318-.12012.03613-.2417.06262-.36231.093-.13183.03332-.2622.07031-.39648.09692C233.42529,207.8728,233.28271,207.8894,233.14111,207.90967Z"/>
</svg>
