<svg id="Flat" xmlns="http://www.w3.org/2000/svg" viewBox="0 0 256 256">
  <path d="M240.00244,56.00513V120a8,8,0,0,1-16,0V75.314l-82.34277,82.34278a8.00122,8.00122,0,0,1-11.31446,0L96.00244,123.314,29.65967,189.65674a8.00018,8.00018,0,0,1-11.31446-11.31348l72-72a8.00122,8.00122,0,0,1,11.31446,0L136.00244,140.686,212.68848,64h-44.686a8,8,0,0,1,0-16h64c.02979,0,.0586.00415.08838.00439.2334.00269.46631.01246.69824.0354.12891.01246.25391.03638.38086.05494.13135.01928.26319.03418.39356.06006.14013.02783.27685.06591.41455.10107.11474.0293.23047.0542.34424.08862.13427.04053.26367.09058.395.13794.11523.04151.231.07935.34472.12647.1211.05.23682.10864.35449.16455.11914.05615.23926.10888.356.17138.11133.05957.21729.12745.3252.19214.11621.06934.23388.135.34668.2107.11718.07812.227.16552.33984.24951.09668.07226.1958.13965.28955.21679.18652.15284.36426.31519.53565.48389.01611.01611.03417.0293.05029.04541.02051.02051.0376.04321.05762.064.16357.167.32177.33935.47021.52026.083.10059.15527.20654.23193.31006.07862.10571.16065.20874.23438.31836.08057.1206.15088.24585.22461.36987.05957.1001.12207.19751.17724.30029.06788.126.125.25538.18506.384.05078.1084.10547.2146.15137.32568.05127.12476.09326.252.13867.37842.04248.11987.08887.238.126.36059.03857.12769.06738.25757.09912.38672.03125.124.06592.2461.09131.37256.02978.15088.04785.30322.06933.45532.01465.10645.03516.21094.0459.31861Q240.002,55.60571,240.00244,56.00513Z"/>
</svg>
