<svg xmlns="http://www.w3.org/2000/svg" viewBox="0 0 256 256"><g opacity="0.2"><path d="M165.1,200H122.9a7.8,7.8,0,0,0-5.1,1.9L72,240V200H48a8,8,0,0,1-8-8V48a8,8,0,0,1,8-8H208a8,8,0,0,1,8,8V156.3a8.1,8.1,0,0,1-2.9,6.1l-42.9,35.7A7.8,7.8,0,0,1,165.1,200Z"/></g><path d="M208,32H48A16,16,0,0,0,32,48V192a16,16,0,0,0,16,16H64v32a7.9,7.9,0,0,0,4.6,7.2,6.8,6.8,0,0,0,3.4.8,7.5,7.5,0,0,0,5.1-1.9L122.9,208h42.2a15.8,15.8,0,0,0,10.2-3.7l42.9-35.8a15.7,15.7,0,0,0,5.8-12.2V48A16,16,0,0,0,208,32Zm0,124.3L165.1,192H122.9a15.8,15.8,0,0,0-10.2,3.7L80,222.9V200a8,8,0,0,0-8-8H48V48H208ZM160,136V88a8,8,0,0,1,16,0v48a8,8,0,0,1-16,0Zm-48,0V88a8,8,0,0,1,16,0v48a8,8,0,0,1-16,0Z"/></svg>