<svg id="Flat" xmlns="http://www.w3.org/2000/svg" viewBox="0 0 256 256">
  <g opacity="0.2">
    <path d="M165.1036,200H122.8964a8,8,0,0,0-5.12148,1.85423L72,240V200H48a8,8,0,0,1-8-8V48a8,8,0,0,1,8-8H208a8,8,0,0,1,8,8V156.253a8,8,0,0,1-2.87852,6.14577l-42.89641,35.747A8,8,0,0,1,165.1036,200Z"/>
  </g>
  <path d="M208,32H48A16.01833,16.01833,0,0,0,32,48V192a16.01833,16.01833,0,0,0,16,16H64v32a7.99949,7.99949,0,0,0,13.12109,6.14551L122.89648,208h42.207a16.03033,16.03033,0,0,0,10.24316-3.709l42.896-35.7461A15.958,15.958,0,0,0,224,156.253V48A16.01833,16.01833,0,0,0,208,32ZM208,156.253,165.10352,192h-42.207a16.03028,16.03028,0,0,0-10.24316,3.709L80,222.91994V200a8.00039,8.00039,0,0,0-8-8H48V48H208ZM160,136V88a8,8,0,0,1,16,0v48a8,8,0,0,1-16,0Zm-48,0V88a8,8,0,0,1,16,0v48a8,8,0,0,1-16,0Z"/>
</svg>
