<svg id="Flat" xmlns="http://www.w3.org/2000/svg" viewBox="0 0 256 256">
  <g opacity="0.2">
    <path d="M240.00526,60.66136A127.734,127.734,0,0,1,207.91934,92.591l-.0001-.00015A128.04082,128.04082,0,0,1,17.97784,199.99759l.0065-.01172a127.3714,127.3714,0,0,0,70.01685-22.14062l-.00076.00111A128.2051,128.2051,0,0,1,36.64049,37.72648l-.00039.00025A127.98517,127.98517,0,0,0,128.82832,95.1112l-.0028.00058a40.009,40.009,0,0,1,74.03809-27.81035l.00013.00442a128.63506,128.63506,0,0,0,37.14152-6.64449"/>
  </g>
  <path d="M246.41211,55.87061a7.99856,7.99856,0,0,0-8.95459-2.793,120.50746,120.50746,0,0,1-30.34131,6.01465,48.00284,48.00284,0,0,0-87.11963,26.51123A119.68665,119.68665,0,0,1,43.3457,33.36279a8.00016,8.00016,0,0,0-14.41455,2.22657A136.21055,136.21055,0,0,0,73.793,177.19482a119.46448,119.46448,0,0,1-55.93018,14.792,8.00707,8.00707,0,0,0-3.76709,15.00586A136.02811,136.02811,0,0,0,215.71631,96.85742a135.60493,135.60493,0,0,0,30.84228-31.60791A7.99891,7.99891,0,0,0,246.41211,55.87061Zm-43.03857,30.1372a7.99962,7.99962,0,0,0-3.44971,6.30127,120.03724,120.03724,0,0,1-150.86817,111.644A135.25627,135.25627,0,0,0,92.50586,184.457a8.00022,8.00022,0,0,0,0-13.22168A120.02653,120.02653,0,0,1,40,72.001a121.33783,121.33783,0,0,1,.956-15.21631,135.41644,135.41644,0,0,0,86.75391,46.25,8.00612,8.00612,0,0,0,8.90137-9.77979A32.0087,32.0087,0,0,1,195.78564,71.0376a7.99476,7.99476,0,0,0,7.315,4.26465,136.41868,136.41868,0,0,0,14.96435-1.27A119.0211,119.0211,0,0,1,203.37354,86.00781Z"/>
</svg>
