<svg id="Flat" xmlns="http://www.w3.org/2000/svg" viewBox="0 0 256 256">
  <path d="M240,72l-32,32c0,56-40,112-112,112-32,0-48-16-48-16s40-8,48-32c0,0-64-24-48-112,0,0,32,40,80,48V88.00293a40.00665,40.00665,0,0,1,76.67139-16.00342Z" opacity="0.2"/>
  <path d="M247.39111,68.93848A8.00015,8.00015,0,0,0,240,64l-30.42285-.00049A48.11329,48.11329,0,0,0,168.6084,40.00342,48.31855,48.31855,0,0,0,120,88.00293v6.07812C80.81543,83.55713,54.522,51.34424,54.24707,51.00244a8.00018,8.00018,0,0,0-14.11816,3.56641c-4.86475,26.75683-5.39649,65.04736,19.69531,95.5166a92.9624,92.9624,0,0,0,25.34766,21.46631c-9.01856,12.14013-30.21192,18.876-38.75,20.60547a8.00012,8.00012,0,0,0-4.07911,13.49951C43.0918,206.40576,61.08789,224,96,224c35.90527,0,66.65723-13.01318,88.93262-37.63281,19.01855-21.02051,30.22363-49.65137,31.02148-79.00781l29.70313-29.70264A8.00037,8.00037,0,0,0,247.39111,68.93848ZM202.34277,98.34326A8.00035,8.00035,0,0,0,200,104c0,26.606-9.81641,52.71533-26.93262,71.63281C153.90918,196.80762,127.25977,208,96,208a73.86722,73.86722,0,0,1-28.939-5.51172c13.57568-5.36474,30.96484-15.26807,36.52832-31.95849A8.03086,8.03086,0,0,0,98.83984,160.521c-2.187-.84131-49.92187-20.04932-45.06-86.86182,14.09179,13.20947,39.75488,32.707,72.90478,38.23193A8.00034,8.00034,0,0,0,136,104V88.00244a32.32065,32.32065,0,0,1,32.40918-32,32.07089,32.07089,0,0,1,28.93164,19.2002,7.99934,7.99934,0,0,0,7.33057,4.79687h16.01513Z"/>
</svg>
