<svg id="Flat" xmlns="http://www.w3.org/2000/svg" viewBox="0 0 256 256">
  <path d="M240,72l-32.26221,32.26245A128.00758,128.00758,0,0,1,80,224c-32,0-40-12-40-12s32-12,48-36c0,0-64-32-48-120,0,0,40,40,87.98633,48L128,88.00293a40.00665,40.00665,0,0,1,76.67139-16.00342Z" opacity="0.2"/>
  <path d="M247.39111,68.93848A8.00015,8.00015,0,0,0,240,64l-30.42285-.00049A48.11329,48.11329,0,0,0,168.6084,40.00342,48.31863,48.31863,0,0,0,120,87.99609l-.00537,6.11914c-40.69531-10.60107-73.98486-43.42041-74.3374-43.772a8.00023,8.00023,0,0,0-13.52832,4.22559c-8.77539,48.26562,5.72265,80.57324,19.43066,99.17676a109.574,109.574,0,0,0,24.72656,24.355c-15.24707,17.251-38.83789,26.31152-39.09521,26.40869a8,8,0,0,0-3.84717,11.92822c.74512,1.11865,3.748,5.05273,11.07861,8.71777C53.50586,229.69727,65.47559,232,80,232c70.53809,0,129.4707-54.29785,135.49316-124.17871l30.16407-30.16455A8.00055,8.00055,0,0,0,247.39111,68.93848ZM202.08057,98.606a8.00055,8.00055,0,0,0-2.32666,5.148C195.74365,166.6958,143.1416,216,80,216c-10.56152,0-18.0459-1.40039-23.22266-3.0791C68.294,206.669,84.33887,195.91357,94.65625,180.4375a8.02072,8.02072,0,0,0-3.05371-11.58057c-.14844-.07519-14.937-7.72656-27.60693-25.21093C49.585,123.7583,43.52588,99.68994,45.9126,71.94385c15.78076,12.95459,46.03076,34.15771,80.75781,39.94726a8.0005,8.0005,0,0,0,9.31592-7.88427L136,88.00977v-.00733a32.32065,32.32065,0,0,1,32.40918-32,32.07089,32.07089,0,0,1,28.93164,19.2002,7.99934,7.99934,0,0,0,7.33057,4.79687h16.01513Z"/>
</svg>
