<svg id="Flat" xmlns="http://www.w3.org/2000/svg" viewBox="0 0 256 256">
  <path d="M223.66553,136H168c0-72-40-104-40-104a104.00975,104.00975,0,0,1,103.64062,95.29053A8.02087,8.02087,0,0,1,223.66553,136ZM24.35938,127.29053A8.02115,8.02115,0,0,0,32.33447,136H88c0-72,40-104,40-104A104.00975,104.00975,0,0,0,24.35938,127.29053Z" opacity="0.2"/>
  <path d="M239.61328,126.62988A112.0108,112.0108,0,0,0,128.00684,24h-.01368A112.0108,112.0108,0,0,0,16.38672,126.62988,16.02123,16.02123,0,0,0,32.33447,144H120v56a32,32,0,0,0,64,0,8,8,0,0,0-16,0,16,16,0,0,1-32,0V144h87.66553a16.02123,16.02123,0,0,0,15.94775-17.37012ZM96.18506,128C97.56689,97.23193,106.71,75.18506,114.4834,61.76172a106.45524,106.45524,0,0,1,13.51611-18.60449A106.3871,106.3871,0,0,1,141.5166,61.76172C154.80176,84.70166,158.957,109.28271,159.81494,128Zm-63.853-.04785a95.97942,95.97942,0,0,1,75.85645-85.874C96.47266,58.05713,81.84521,86.12988,80.16553,128H32.33447ZM175.83447,128c-1.67968-41.87012-16.30713-69.94287-28.023-85.92188A95.96509,95.96509,0,0,1,223.66553,128Z"/>
</svg>
