<svg id="Flat" xmlns="http://www.w3.org/2000/svg" viewBox="0 0 256 256">
  <path d="M223.66553,136H32.33447a8.02115,8.02115,0,0,1-7.97509-8.70947,104.00647,104.00647,0,0,1,207.28124,0A8.02087,8.02087,0,0,1,223.66553,136Z" opacity="0.2"/>
  <path d="M239.61328,126.62988a112.00665,112.00665,0,0,0-223.22656,0A16.02123,16.02123,0,0,0,32.33447,144H120v56a32,32,0,0,0,64,0,8,8,0,0,0-16,0,16,16,0,0,1-32,0V144h87.66553a16.02123,16.02123,0,0,0,15.94775-17.37012ZM32.33447,128l-.00244-.04785A96.00271,96.00271,0,0,1,223.66553,128Z"/>
</svg>
