<svg xmlns="http://www.w3.org/2000/svg" viewBox="0 0 256 256"><g opacity="0.2"><circle cx="88" cy="108" r="52"/></g><path d="M121.2,157.9a60,60,0,1,0-66.4,0A95.5,95.5,0,0,0,9.5,192.8a8,8,0,1,0,13,9.2,80.1,80.1,0,0,1,131,0,8,8,0,1,0,13-9.2A95.5,95.5,0,0,0,121.2,157.9ZM44,108a44,44,0,1,1,44,44A44,44,0,0,1,44,108Z"/><path d="M248.1,192.8a96.3,96.3,0,0,0-45.4-34.9A59.9,59.9,0,0,0,169.5,48a64,64,0,0,0-16.3,2.2,8.1,8.1,0,0,0-5.5,9.9,8,8,0,0,0,9.9,5.5A47.4,47.4,0,0,1,169.5,64a44,44,0,0,1,0,88,8,8,0,0,0,0,16A80.2,80.2,0,0,1,235,202a7.9,7.9,0,0,0,11.1,1.9A8,8,0,0,0,248.1,192.8Z"/></svg>