<svg xmlns="http://www.w3.org/2000/svg" viewBox="0 0 256 256"><path d="M112,168a32,32,0,1,1-32-32A32,32,0,0,1,112,168ZM80,32a32,32,0,1,0,32,32A32,32,0,0,0,80,32Zm96,104a32,32,0,1,0,32,32A32,32,0,0,0,176,136Zm0-40a32,32,0,1,0-32-32A32,32,0,0,0,176,96Z" opacity="0.2"/><path d="M27.2,126.4A7.7,7.7,0,0,0,32,128a8,8,0,0,0,6.4-3.2,52,52,0,0,1,83.1-.1l.6.7h.1c.1.2.3.3.5.5h.2l.3.3h.1a4.7,4.7,0,0,0,.9.6l.3.2.9.4h.3l.8.2h3.3l1.7-.6h.2l.5-.3.3-.2.3-.2a.1.1,0,0,0,.1-.1l.3-.2.5-.5h.1l.6-.6h0a52,52,0,0,1,83.2,0,8.1,8.1,0,0,0,11.2,1.6,8,8,0,0,0,1.6-11.2A67.8,67.8,0,0,0,203,93.5a40,40,0,1,0-54,0,68.1,68.1,0,0,0-21,14.3,68.1,68.1,0,0,0-21-14.3,40,40,0,1,0-54,0,67.8,67.8,0,0,0-27.4,21.7A8,8,0,0,0,27.2,126.4ZM152,64a24,24,0,1,1,24,24A24.1,24.1,0,0,1,152,64ZM56,64A24,24,0,1,1,80,88,24.1,24.1,0,0,1,56,64ZM203,197.5a40,40,0,1,0-54,0,68.1,68.1,0,0,0-21,14.3,68.1,68.1,0,0,0-21-14.3,40,40,0,1,0-54,0,67.8,67.8,0,0,0-27.4,21.7,8,8,0,0,0,1.6,11.2A7.7,7.7,0,0,0,32,232a8,8,0,0,0,6.4-3.2,52,52,0,0,1,83.1-.1l.6.7h.1l.5.5h.2l.3.3h.1l.9.6.3.2.9.4h.3l.8.2h3.4l.7-.3h.1l.8-.3h.2l.5-.3.3-.2.3-.2h.1l.3-.2.5-.5h.1l.6-.6h0a52,52,0,0,1,83.2,0,8.1,8.1,0,0,0,11.2,1.6,8,8,0,0,0,1.6-11.2A67.8,67.8,0,0,0,203,197.5ZM56,168a24,24,0,1,1,24,24A24.1,24.1,0,0,1,56,168Zm96,0a24,24,0,1,1,24,24A24.1,24.1,0,0,1,152,168Z"/></svg>