<svg id="Flat" xmlns="http://www.w3.org/2000/svg" viewBox="0 0 256 256">
  <g opacity="0.2">
    <path d="M128,32A96.00088,96.00088,0,0,0,63.79883,199.375v-.001A71.99731,71.99731,0,0,1,128,160a40,40,0,1,1,40-40,40.0001,40.0001,0,0,1-40,40,71.99731,71.99731,0,0,1,64.20117,39.374A96.0002,96.0002,0,0,0,128,32Z"/>
  </g>
  <g>
    <path d="M176,64h48a8,8,0,0,0,0-16H176a8,8,0,0,0,0,16Z"/>
    <path d="M221.34863,104.10889a7.99984,7.99984,0,0,0-6.56592,9.21338A88.98692,88.98692,0,0,1,216,128a87.637,87.637,0,0,1-22.24182,58.41016,79.56009,79.56009,0,0,0-36.056-28.74561,48.0003,48.0003,0,1,0-59.40448-.00049,79.564,79.564,0,0,0-36.05609,28.7461A87.94985,87.94985,0,0,1,128,40a88.91608,88.91608,0,0,1,14.67773,1.21729A7.99993,7.99993,0,0,0,145.3252,25.438,104.0834,104.0834,0,0,0,24,128a103.74716,103.74716,0,0,0,33.81934,76.68066,7.9427,7.9427,0,0,0,1.32629,1.18946,103.78411,103.78411,0,0,0,137.71259-.00293,7.95105,7.95105,0,0,0,1.31671-1.18115A103.74773,103.74773,0,0,0,232,128a105.024,105.024,0,0,0-1.438-17.3252A8.0009,8.0009,0,0,0,221.34863,104.10889ZM96,120a32,32,0,1,1,32,32A32.03635,32.03635,0,0,1,96,120ZM74.08319,197.49854a64.02277,64.02277,0,0,1,107.83337.00048,87.81324,87.81324,0,0,1-107.83337-.00048Z"/>
  </g>
</svg>
