<svg id="Flat" xmlns="http://www.w3.org/2000/svg" viewBox="0 0 256 256">
  <g opacity="0.2">
    <circle cx="128" cy="96" r="64"/>
  </g>
  <g>
    <path d="M168.82324,74a7.99606,7.99606,0,0,0,10.92822,2.92822l4.66816-2.69519A23.99995,23.99995,0,0,0,192,78.6239V84a8,8,0,0,0,16,0V78.6239a23.99995,23.99995,0,0,0,7.58038-4.39087l4.66816,2.69519a8,8,0,0,0,8-13.85644l-4.6568-2.68866a23.73294,23.73294,0,0,0,0-8.76624l4.6568-2.68866a8,8,0,1,0-8-13.85644L215.58038,37.767A23.99995,23.99995,0,0,0,208,33.3761V28a8,8,0,0,0-16,0v5.3761a23.99995,23.99995,0,0,0-7.58038,4.39087l-4.66816-2.69519a8,8,0,0,0-8,13.85644l4.6568,2.68866a23.73294,23.73294,0,0,0,0,8.76624l-4.6568,2.68866A8.00032,8.00032,0,0,0,168.82324,74ZM208,56a8,8,0,1,1-8-8A8.00917,8.00917,0,0,1,208,56Z"/>
    <path d="M231.93652,211.98633a120.48842,120.48842,0,0,0-67.09362-54.13416,71.98866,71.98866,0,0,0,29.10876-32.9259,7.99994,7.99994,0,0,0-14.64941-6.43359A56.00709,56.00709,0,1,1,128,40a56.70122,56.70122,0,0,1,7.76074.53271A8.00011,8.00011,0,1,0,137.958,24.68408,72.05275,72.05275,0,0,0,56,96a72.02336,72.02336,0,0,0,35.18341,61.84363A120.48773,120.48773,0,0,0,24.06494,211.9834a8.00005,8.00005,0,1,0,13.84863,8.01367,104.038,104.038,0,0,1,180.17432.001,7.99957,7.99957,0,1,0,13.84863-8.01172Z"/>
  </g>
</svg>
