<svg id="Flat" xmlns="http://www.w3.org/2000/svg" viewBox="0 0 256 256">
  <path d="M80,144a40,40,0,1,1,40-40A40.00006,40.00006,0,0,1,80,144Z" opacity="0.2"/>
  <path d="M144,80a8.00008,8.00008,0,0,1,8-8h96a8,8,0,0,1,0,16H152A8.00008,8.00008,0,0,1,144,80Zm104,40H152a8,8,0,0,0,0,16h96a8,8,0,0,0,0-16Zm0,48H176a8,8,0,0,0,0,16h72a8,8,0,0,0,0-16Zm-98.26855,22.00586a8.00008,8.00008,0,1,1-15.49512,3.98828,56.02076,56.02076,0,0,0-108.47266,0,8.00008,8.00008,0,0,1-15.49512-3.98828A71.90442,71.90442,0,0,1,50.89,142.13013a48,48,0,1,1,58.22,0A71.90442,71.90442,0,0,1,149.73145,190.00586ZM80,136a32,32,0,1,0-32-32A32.03635,32.03635,0,0,0,80,136Z"/>
</svg>
