<svg xmlns="http://www.w3.org/2000/svg" viewBox="0 0 256 256"><g opacity="0.2"><path d="M205.3,71.1a15.5,15.5,0,0,1-5.3.9,16,16,0,0,1-16-16,15.5,15.5,0,0,1,.9-5.3A96,96,0,0,0,63.8,199.4h0A72,72,0,0,1,128,160a40,40,0,1,1,40-40,40,40,0,0,1-40,40,72,72,0,0,1,64.2,39.4A96,96,0,0,0,205.3,71.1Z"/></g><path d="M228.2,63.1l-4.6-2.7A21.2,21.2,0,0,0,224,56a21.2,21.2,0,0,0-.4-4.4l4.6-2.7a7.9,7.9,0,0,0,3-10.9,8.1,8.1,0,0,0-11-2.9l-4.6,2.7a24,24,0,0,0-7.6-4.4V28a8,8,0,0,0-16,0v5.4a24,24,0,0,0-7.6,4.4l-4.6-2.7a8.1,8.1,0,0,0-11,2.9,7.9,7.9,0,0,0,3,10.9l4.6,2.7A21.2,21.2,0,0,0,176,56a21.2,21.2,0,0,0,.4,4.4l-4.6,2.7a8,8,0,0,0,4,14.9,7.6,7.6,0,0,0,4-1.1l4.6-2.7a24,24,0,0,0,7.6,4.4V84a8,8,0,0,0,16,0V78.6a24,24,0,0,0,7.6-4.4l4.6,2.7a7.6,7.6,0,0,0,4,1.1,8,8,0,0,0,4-14.9ZM192,56a8,8,0,1,1,8,8A8,8,0,0,1,192,56Zm30.4,52.6a8,8,0,0,0-7,8.8A94.2,94.2,0,0,1,216,128a87.6,87.6,0,0,1-22.2,58.4,79.2,79.2,0,0,0-36.1-28.7,48,48,0,1,0-59.4,0,79.2,79.2,0,0,0-36.1,28.7A88,88,0,0,1,128,40a75,75,0,0,1,8.2.4,8,8,0,1,0,1.4-16c-3.1-.3-6.4-.4-9.6-.4A104,104,0,0,0,57.8,204.7l1.3,1.2a104,104,0,0,0,137.8,0l1.3-1.2A103.7,103.7,0,0,0,232,128a101.9,101.9,0,0,0-.7-12.4A8,8,0,0,0,222.4,108.6ZM96,120a32,32,0,1,1,32,32A32.1,32.1,0,0,1,96,120ZM74.1,197.5a64,64,0,0,1,107.8,0,87.8,87.8,0,0,1-107.8,0Z"/></svg>