<svg id="Flat" xmlns="http://www.w3.org/2000/svg" viewBox="0 0 256 256">
  <g opacity="0.2">
    <circle cx="128" cy="96" r="64"/>
  </g>
  <g>
    <path d="M176,64h16V80a8,8,0,0,0,16,0V64h16a8,8,0,0,0,0-16H208V32a8,8,0,0,0-16,0V48H176a8,8,0,0,0,0,16Z"/>
    <path d="M231.93652,211.98633a120.4889,120.4889,0,0,0-67.15692-54.15466,72.05814,72.05814,0,0,0,30.77558-36.8761,7.99987,7.99987,0,0,0-15.00782-5.5459,55.96728,55.96728,0,1,1-39.60888-73.90918,8,8,0,0,0,3.68115-15.5708,71.9908,71.9908,0,0,0-53.4361,131.914,120.48878,120.48878,0,0,0-67.11859,54.14069,7.99981,7.99981,0,1,0,13.84863,8.01269,104.0375,104.0375,0,0,1,180.17432.00195,7.99981,7.99981,0,1,0,13.84863-8.01269Z"/>
  </g>
</svg>
