<svg id="Flat" xmlns="http://www.w3.org/2000/svg" viewBox="0 0 256 256">
  <g opacity="0.2">
    <circle cx="128" cy="96" r="64"/>
  </g>
  <g>
    <path d="M176,64h48a8,8,0,0,0,0-16H176a8,8,0,0,0,0,16Z"/>
    <path d="M231.93652,211.98633a120.48838,120.48838,0,0,0-67.12-54.1427A72.02328,72.02328,0,0,0,200,96a8,8,0,0,0-16,0,55.93006,55.93006,0,1,1-43.06152-54.49951,8,8,0,0,0,3.68115-15.5708,71.9908,71.9908,0,0,0-53.4361,131.914,120.48878,120.48878,0,0,0-67.11859,54.14069,7.99981,7.99981,0,1,0,13.84863,8.01269,104.0375,104.0375,0,0,1,180.17432.00195,7.99981,7.99981,0,1,0,13.84863-8.01269Z"/>
  </g>
</svg>
