<svg id="Flat" xmlns="http://www.w3.org/2000/svg" viewBox="0 0 256 256">
  <g opacity="0.2">
    <path d="M216,48H40a8,8,0,0,0-8,8V200a8,8,0,0,0,8,8H60.09857v-.00439A72.02979,72.02979,0,0,1,128,160a40,40,0,1,1,40-40,40.00006,40.00006,0,0,1-40,40,72.02986,72.02986,0,0,1,67.90149,47.99561V208H216a8,8,0,0,0,8-8V56A8,8,0,0,0,216,48Z"/>
  </g>
  <path d="M216,40H40A16.01833,16.01833,0,0,0,24,56V200a16.01833,16.01833,0,0,0,16,16H216a16.01833,16.01833,0,0,0,16-16V56A16.01833,16.01833,0,0,0,216,40ZM96,120a32,32,0,1,1,32,32A32.036,32.036,0,0,1,96,120ZM72.56757,200a64.01179,64.01179,0,0,1,110.86486,0ZM216,200H201.33215a80.15352,80.15352,0,0,0-43.69568-42.28394,48,48,0,1,0-59.27294,0A80.15352,80.15352,0,0,0,54.66785,200H40V56H216l.01025,143.99951Z"/>
</svg>
