<svg id="Flat" xmlns="http://www.w3.org/2000/svg" viewBox="0 0 256 256">
  <path d="M112,168a32,32,0,1,1-32-32A31.99986,31.99986,0,0,1,112,168ZM80,32a32,32,0,1,0,32,32A32.00018,32.00018,0,0,0,80,32Zm96,104a32,32,0,1,0,32,32A32.00018,32.00018,0,0,0,176,136Zm0-40a32,32,0,1,0-32-32A31.99986,31.99986,0,0,0,176,96Z" opacity="0.2"/>
  <path d="M27.19238,126.39453a8,8,0,0,0,11.20117-1.5918,52.00276,52.00276,0,0,1,83.1084-.13085,7.99527,7.99527,0,0,0,.61231.74c.02588.02856.0542.05444.08056.08251.15137.15894.30664.3147.47266.4629.0625.05615.12891.10668.19287.16088.11035.09229.21533.189.332.27637.02051.01563.04395.02564.06494.041a7.8885,7.8885,0,0,0,.92823.58471c.09228.0503.18457.0979.27783.14405a8.00518,8.00518,0,0,0,.96045.40381c.09375.032.189.05444.2832.08276a7.99507,7.99507,0,0,0,.83692.2019c.09375.01734.18652.0398.28076.05371a8.03172,8.03172,0,0,0,1.03027.08081c.04541.001.09033.01075.13623.01075.06738,0,.13477-.00977.20215-.01148.16553-.0039.33057-.01391.49609-.02807.11035-.00977.22071-.01856.33106-.03272.19629-.0249.39111-.06055.58545-.10034.08154-.0166.16308-.029.24365-.0481a7.94481,7.94481,0,0,0,1.62012-.57348c.085-.041.166-.09033.25-.13452.16845-.08863.33642-.1792.5-.281.10449-.0647.20459-.13647.30615-.20654.09326-.064.18945-.12085.28076-.18921.04883-.03687.0918-.07862.13965-.11646.09082-.072.17969-.14721.26807-.22387q.22851-.19629.43847-.406c.06153-.06152.12256-.12231.18213-.18628a7.86941,7.86941,0,0,0,.5166-.60791c.01319-.01733.02881-.03174.042-.04932a52.0088,52.0088,0,0,1,83.21143-.00195,7.99981,7.99981,0,1,0,12.79248-9.60937A67.81009,67.81009,0,0,0,202.9707,93.51074a40,40,0,1,0-53.9414,0A67.29094,67.29094,0,0,0,128,107.81421a67.30469,67.30469,0,0,0-21.0293-14.30347,40,40,0,1,0-53.9414,0,67.8103,67.8103,0,0,0-27.42871,21.68262A8.00034,8.00034,0,0,0,27.19238,126.39453ZM152,64a24,24,0,1,1,24,24A24.0275,24.0275,0,0,1,152,64ZM56,64A24,24,0,1,1,80,88,24.0275,24.0275,0,0,1,56,64ZM202.9707,197.51074a40,40,0,1,0-53.9414,0A67.29094,67.29094,0,0,0,128,211.81421a67.30469,67.30469,0,0,0-21.0293-14.30347,40,40,0,1,0-53.9414,0,67.8103,67.8103,0,0,0-27.42871,21.68262,8,8,0,1,0,12.793,9.60937,52.00276,52.00276,0,0,1,83.1084-.13085,7.99527,7.99527,0,0,0,.61231.74c.02588.02856.0542.05444.08056.08251.15137.15894.30664.3147.47266.4629.0625.0559.12842.1062.1919.15991.11083.09277.21582.18969.333.27734.021.01587.04444.02588.06543.04151a7.96162,7.96162,0,0,0,.92627.58349c.09326.05078.187.09888.28174.14575a8.01059,8.01059,0,0,0,.95606.4021c.09619.03272.19335.05591.29052.085a8.10364,8.10364,0,0,0,.82471.19873c.09717.01807.19336.04126.291.05567a8.02353,8.02353,0,0,0,1.02149.08008c.04736.001.09424.01123.1416.01123.07031,0,.13965-.01.21-.012.15967-.00366.31836-.01367.478-.0271.11572-.01.23144-.019.34717-.03418.18945-.02441.377-.05883.56494-.09668.0874-.01782.17529-.03124.26221-.052a7.92182,7.92182,0,0,0,.78613-.22851c.01123-.00391.02246-.00611.0332-.01a7.89735,7.89735,0,0,0,.79444-.333c.08886-.04248.17333-.09351.26025-.1394.16553-.08741.33008-.176.49121-.27613.105-.06543.20605-.13769.30811-.208.09277-.06372.18847-.12011.27978-.18847.04883-.03687.0918-.07862.13965-.11646.09082-.072.17969-.14721.26807-.22387q.22851-.19629.43847-.406c.06153-.06152.12256-.12231.18213-.18628a7.86941,7.86941,0,0,0,.5166-.60791c.01319-.01733.02881-.03174.042-.04932a52.0088,52.0088,0,0,1,83.21143-.00195,7.99981,7.99981,0,1,0,12.79248-9.60937A67.81009,67.81009,0,0,0,202.9707,197.51074ZM56,168a24,24,0,1,1,24,24A24.0275,24.0275,0,0,1,56,168Zm96,0a24,24,0,1,1,24,24A24.0275,24.0275,0,0,1,152,168Z"/>
</svg>
