<svg xmlns="http://www.w3.org/2000/svg" viewBox="0 0 256 256"><path d="M224,128a96,96,0,0,1-31.8,71.4A72,72,0,0,0,128,160a40,40,0,1,0-40-40,40,40,0,0,0,40,40,72,72,0,0,0-64.2,39.4h0A96,96,0,1,1,224,128Z" opacity="0.2"/><path d="M253.7,133.7l-24,24a8.2,8.2,0,0,1-11.4,0l-24-24a8.1,8.1,0,0,1,11.4-11.4L216,132.7V128A88,88,0,0,0,54.1,80.3,8,8,0,0,1,43,82.6a7.9,7.9,0,0,1-2.4-11A104,104,0,0,1,232,128v4.7l10.3-10.4a8.1,8.1,0,0,1,11.4,11.4Zm-38.3,50.7A104,104,0,0,1,24,128v-4.7L13.7,133.7a8.1,8.1,0,0,1-11.4,0,8.1,8.1,0,0,1,0-11.4l24-24a8.1,8.1,0,0,1,11.4,0l24,24a8.1,8.1,0,0,1,0,11.4,8.2,8.2,0,0,1-11.4,0L40,123.3V128a87.6,87.6,0,0,0,22.2,58.4,79.2,79.2,0,0,1,36.1-28.7,48,48,0,1,1,59.4,0,79.4,79.4,0,0,1,36.1,28.8,86.9,86.9,0,0,0,8.1-10.8,8,8,0,0,1,11.1-2.3A7.9,7.9,0,0,1,215.4,184.4ZM128,152a32,32,0,1,0-32-32A32.1,32.1,0,0,0,128,152Zm0,64a88.1,88.1,0,0,0,54-18.4,64,64,0,0,0-107.9-.1A87.4,87.4,0,0,0,128,216Z"/></svg>