<svg id="Flat" xmlns="http://www.w3.org/2000/svg" viewBox="0 0 256 256">
  <path d="M168,140a40,40,0,1,1-40-40A40.0001,40.0001,0,0,1,168,140ZM60,52A32,32,0,1,0,92,84,32.00018,32.00018,0,0,0,60,52Zm136,0a32,32,0,1,0,32,32A32.00018,32.00018,0,0,0,196,52Z" opacity="0.2"/>
  <path d="M248.80664,146.39258a8.0006,8.0006,0,0,1-11.20166-1.5918A51.6146,51.6146,0,0,0,196,124a8,8,0,0,1,0-16,24,24,0,1,0-23.57715-28.51465A8.00026,8.00026,0,0,1,156.70312,76.501a40.00031,40.00031,0,1,1,66.26758,37.00976,67.81009,67.81009,0,0,1,27.42676,21.68067A8.00016,8.00016,0,0,1,248.80664,146.39258Zm-56.0498,66.10156a8,8,0,1,1-14.38282,7.00977,56.0254,56.0254,0,0,0-100.748,0,8,8,0,0,1-14.38282-7.00977A71.66776,71.66776,0,0,1,98.83838,178.0896a48,48,0,1,1,58.32324,0A71.66776,71.66776,0,0,1,192.75684,212.49414ZM128,172a32,32,0,1,0-32-32A32.03667,32.03667,0,0,0,128,172ZM68,116a8.00039,8.00039,0,0,0-8-8A24,24,0,1,1,83.57764,79.48535,8,8,0,0,0,99.29639,76.499,40.00025,40.00025,0,1,0,33.0293,113.51074,67.8103,67.8103,0,0,0,5.60059,135.19336a8,8,0,1,0,12.793,9.60937A51.61242,51.61242,0,0,1,60,124,8.00039,8.00039,0,0,0,68,116Z"/>
</svg>
