<svg id="Flat" xmlns="http://www.w3.org/2000/svg" viewBox="0 0 256 256">
  <g opacity="0.2">
    <path d="M205.30634,71.08008A15.965,15.965,0,0,1,184.92,50.6936,96.001,96.001,0,0,0,63.79883,199.375v-.001A71.99731,71.99731,0,0,1,128,160a40,40,0,1,1,40-40,40.0001,40.0001,0,0,1-40,40,71.99731,71.99731,0,0,1,64.20117,39.374A96.002,96.002,0,0,0,205.30634,71.08008Z"/>
  </g>
  <g>
    <path d="M221.34863,104.10889a7.99984,7.99984,0,0,0-6.56592,9.21338A88.98908,88.98908,0,0,1,216,128a87.63828,87.63828,0,0,1-22.242,58.41064,79.55772,79.55772,0,0,0-36.05585-28.74609,48.00011,48.00011,0,1,0-59.40442-.00024,79.56014,79.56014,0,0,0-36.056,28.74585A87.9498,87.9498,0,0,1,128,40a88.94211,88.94211,0,0,1,14.67773,1.21729A7.99993,7.99993,0,1,0,145.3252,25.438,104.0834,104.0834,0,0,0,24,128a103.74639,103.74639,0,0,0,33.81976,76.68091,7.93663,7.93663,0,0,0,1.3255,1.18921,103.78418,103.78418,0,0,0,137.71155-.002,7.93777,7.93777,0,0,0,1.31983-1.18383A103.74685,103.74685,0,0,0,232,128a105.02188,105.02188,0,0,0-1.438-17.3252A8.00145,8.00145,0,0,0,221.34863,104.10889ZM96,120a32,32,0,1,1,32,32A32.03619,32.03619,0,0,1,96,120ZM74.08319,197.49854a64.02291,64.02291,0,0,1,107.83337.00024,87.81279,87.81279,0,0,1-107.83337-.00024Z"/>
    <path d="M228.24854,63.07178l-4.65687-2.68872a23.72829,23.72829,0,0,0,0-8.76612l4.65687-2.68872a8,8,0,1,0-8-13.85644l-4.66822,2.69531A24.00228,24.00228,0,0,0,208,33.376V28a8,8,0,0,0-16,0v5.376a24.00228,24.00228,0,0,0-7.58032,4.39111l-4.66822-2.69531a8,8,0,0,0-8,13.85644l4.65687,2.68872a23.72829,23.72829,0,0,0,0,8.76612l-4.65687,2.68872a8,8,0,1,0,8,13.85644l4.66822-2.69531A24.00228,24.00228,0,0,0,192,78.624V84a8,8,0,0,0,16,0V78.624a24.00228,24.00228,0,0,0,7.58032-4.39111l4.66822,2.69531a8,8,0,0,0,8-13.85644ZM192,56a8,8,0,1,1,8,8A8.00917,8.00917,0,0,1,192,56Z"/>
  </g>
</svg>
