<svg id="Flat" xmlns="http://www.w3.org/2000/svg" viewBox="0 0 256 256">
  <path d="M160,112a32,32,0,1,1-32-32A32,32,0,0,1,160,112Z" opacity="0.2"/>
  <path d="M224,48V76a8,8,0,0,1-16,0V48H180a8,8,0,0,1,0-16h28A16.01833,16.01833,0,0,1,224,48Zm-8,124a8.00008,8.00008,0,0,0-8,8v28H180a8,8,0,0,0,0,16h28a16.01833,16.01833,0,0,0,16-16V180A8.00008,8.00008,0,0,0,216,172ZM76,208H48V180a8,8,0,0,0-16,0v28a16.01833,16.01833,0,0,0,16,16H76a8,8,0,0,0,0-16ZM40,84a8.00008,8.00008,0,0,0,8-8V48H76a8,8,0,0,0,0-16H48A16.01833,16.01833,0,0,0,32,48V76A8.00008,8.00008,0,0,0,40,84Zm134.00684,95.73828a52.02272,52.02272,0,0,0-92.01368,0,7.99991,7.99991,0,0,1-14.1455-7.47656,67.94618,67.94618,0,0,1,33.21307-30.72095,40,40,0,1,1,53.87854,0,67.94618,67.94618,0,0,1,33.21307,30.72095,7.99991,7.99991,0,1,1-14.1455,7.47656ZM128,136a24,24,0,1,0-24-24A24.0275,24.0275,0,0,0,128,136Z"/>
</svg>
