<svg xmlns="http://www.w3.org/2000/svg" viewBox="0 0 256 256"><g opacity="0.2"><path d="M208,40H48a8,8,0,0,0-8,8V208a8,8,0,0,0,8,8H208a8,8,0,0,0,8-8V48A8,8,0,0,0,208,40ZM57.8,216A72,72,0,0,1,128,160a40,40,0,1,1,40-40,40,40,0,0,1-40,40,72,72,0,0,1,70.2,56Z"/></g><path d="M208,32H48A16,16,0,0,0,32,48V208a16,16,0,0,0,16,16H208a16,16,0,0,0,16-16V48A16,16,0,0,0,208,32ZM96,120a32,32,0,1,1,32,32A32.1,32.1,0,0,1,96,120ZM68.7,208a63.9,63.9,0,0,1,19.1-25.8,64,64,0,0,1,80.4,0A63.9,63.9,0,0,1,187.3,208ZM208,208h-3.7a79.9,79.9,0,0,0-46.7-50.3,48,48,0,1,0-59.2,0A79.9,79.9,0,0,0,51.7,208H48V48H208V208Z"/></svg>