<svg id="Flat" xmlns="http://www.w3.org/2000/svg" viewBox="0 0 256 256">
  <g opacity="0.2">
    <path d="M208,40H48a8,8,0,0,0-8,8V208a8,8,0,0,0,8,8H208a8,8,0,0,0,8-8V48A8,8,0,0,0,208,40ZM57.78418,215.99976A72.0276,72.0276,0,0,1,128,160a40,40,0,1,1,40-40,40.00006,40.00006,0,0,1-40,40,72.02755,72.02755,0,0,1,70.21582,55.99976Z"/>
  </g>
  <path d="M208,32H48A16.01833,16.01833,0,0,0,32,48V208a16.01833,16.01833,0,0,0,16,16H198.163c.01526,0,.03028.00195.04554.00195.01153,0,.02337-.00195.03491-.00195H208a16.01833,16.01833,0,0,0,16-16V48A16.01833,16.01833,0,0,0,208,32ZM96,120a32,32,0,1,1,32,32A32.036,32.036,0,0,1,96,120ZM68.66718,208a64.4211,64.4211,0,0,1,19.13311-25.80225,64.00989,64.00989,0,0,1,80.39942,0A64.4211,64.4211,0,0,1,187.33282,208ZM208,208h-3.67322a79.92254,79.92254,0,0,0-46.68188-50.29053,48,48,0,1,0-59.2898,0A79.92254,79.92254,0,0,0,51.67322,208H48V48H208l.01025,159.99951Z"/>
</svg>
