<svg id="Flat" xmlns="http://www.w3.org/2000/svg" viewBox="0 0 256 256">
  <g opacity="0.2">
    <path d="M205.30634,71.08008A15.965,15.965,0,0,1,184.92,50.6936,96.001,96.001,0,0,0,63.79883,199.375v-.001A71.99731,71.99731,0,0,1,128,160a40,40,0,1,1,40-40,40.0001,40.0001,0,0,1-40,40,71.99731,71.99731,0,0,1,64.20117,39.374A96.002,96.002,0,0,0,205.30634,71.08008Z"/>
  </g>
  <path d="M228.24854,63.07178l-4.65687-2.68872a23.72829,23.72829,0,0,0,0-8.76612l4.65687-2.68872a8,8,0,1,0-8-13.85644l-4.66822,2.69531A24.00228,24.00228,0,0,0,208,33.376V28a8,8,0,0,0-16,0v5.376a24.00228,24.00228,0,0,0-7.58032,4.39111l-4.66822-2.69531a8,8,0,0,0-8,13.85644l4.65687,2.68872a23.72829,23.72829,0,0,0,0,8.76612l-4.65687,2.68872a8,8,0,1,0,8,13.85644l4.66822-2.69531A24.00228,24.00228,0,0,0,192,78.624V84a8,8,0,0,0,16,0V78.624a24.00228,24.00228,0,0,0,7.58032-4.39111l4.66822,2.69531a8,8,0,0,0,8-13.85644ZM192,56a8,8,0,1,1,8,8A8.00917,8.00917,0,0,1,192,56Zm30.37012,52.5564a7.99991,7.99991,0,0,0-6.99512,8.89209A89.40475,89.40475,0,0,1,216,128a87.63828,87.63828,0,0,1-22.242,58.41064,79.55772,79.55772,0,0,0-36.05585-28.74609,48.00011,48.00011,0,1,0-59.40442-.00024,79.56014,79.56014,0,0,0-36.056,28.74585A87.9498,87.9498,0,0,1,128,40c2.72656,0,5.477.126,8.1748.37427a8.00012,8.00012,0,0,0,1.4668-15.93286C134.4585,24.14844,131.21436,24,128,24A103.95127,103.95127,0,0,0,57.81976,204.68091a7.93663,7.93663,0,0,0,1.3255,1.18921,103.78418,103.78418,0,0,0,137.71155-.002,7.93777,7.93777,0,0,0,1.31983-1.18383A103.74685,103.74685,0,0,0,232,128a105.40092,105.40092,0,0,0-.73828-12.44849A7.99972,7.99972,0,0,0,222.37012,108.5564ZM96,120a32,32,0,1,1,32,32A32.03619,32.03619,0,0,1,96,120ZM74.08319,197.49854a64.02291,64.02291,0,0,1,107.83337.00024,87.81279,87.81279,0,0,1-107.83337-.00024Z"/>
</svg>
