<svg id="Flat" xmlns="http://www.w3.org/2000/svg" viewBox="0 0 256 256">
  <path d="M168,100a60,60,0,1,1-60-60A60,60,0,0,1,168,100Z" opacity="0.2"/>
  <path d="M256,136a7.99977,7.99977,0,0,1-8,8H232v16a8,8,0,0,1-16,0V144H200a8,8,0,0,1,0-16h16V112a8,8,0,0,1,16,0v16h16A7.99977,7.99977,0,0,1,256,136Zm-56.082,58.85254a8.00018,8.00018,0,0,1-12.251,10.292A104.00694,104.00694,0,0,0,28.333,205.144a8,8,0,1,1-12.25049-10.292A119.88821,119.88821,0,0,1,71.8573,157.55811a68,68,0,1,1,72.2854,0A119.88993,119.88993,0,0,1,199.918,194.85254ZM108,152a52,52,0,1,0-52-52A52.059,52.059,0,0,0,108,152Z"/>
</svg>
