<svg xmlns="http://www.w3.org/2000/svg" viewBox="0 0 256 256"><g opacity="0.2"><path d="M128,32A96,96,0,0,0,63.8,199.4h0A72,72,0,0,1,128,160a40,40,0,1,1,40-40,40,40,0,0,1-40,40,72,72,0,0,1,64.2,39.4A96,96,0,0,0,128,32Z"/></g><path d="M168,56a8,8,0,0,1,8-8h16V32a8,8,0,0,1,16,0V48h16a8,8,0,0,1,0,16H208V80a8,8,0,0,1-16,0V64H176A8,8,0,0,1,168,56Zm62.7,55.6A99.8,99.8,0,0,1,232,128a103.7,103.7,0,0,1-33.8,76.7l-1.3,1.2a104,104,0,0,1-137.8,0l-1.3-1.2A104,104,0,0,1,128,24a99.8,99.8,0,0,1,16.4,1.3,8,8,0,0,1-2.5,15.8A92,92,0,0,0,128,40,88,88,0,0,0,62.2,186.4a79.2,79.2,0,0,1,36.1-28.7,48,48,0,1,1,59.4,0,79.2,79.2,0,0,1,36.1,28.7A87.6,87.6,0,0,0,216,128a92,92,0,0,0-1.1-13.9,8,8,0,0,1,15.8-2.5ZM128,152a32,32,0,1,0-32-32A32.1,32.1,0,0,0,128,152Zm0,64a87.4,87.4,0,0,0,53.9-18.5,64,64,0,0,0-107.8,0A87.4,87.4,0,0,0,128,216Z"/></svg>