<svg id="Flat" xmlns="http://www.w3.org/2000/svg" viewBox="0 0 256 256">
  <g opacity="0.2">
    <path d="M128,32A96.00088,96.00088,0,0,0,63.79883,199.375v-.001A71.99731,71.99731,0,0,1,128,160a40,40,0,1,1,40-40,40.0001,40.0001,0,0,1-40,40,71.99731,71.99731,0,0,1,64.20117,39.374A96.0002,96.0002,0,0,0,128,32Z"/>
  </g>
  <path d="M232,128A104,104,0,1,0,57.81976,204.68115a7.96213,7.96213,0,0,0,1.32587,1.18946,103.78435,103.78435,0,0,0,137.71222-.00342,7.95366,7.95366,0,0,0,1.31708-1.18115A103.74692,103.74692,0,0,0,232,128ZM40,128a88,88,0,1,1,153.75812,58.41016,79.55962,79.55962,0,0,0-36.05591-28.74561,48.0003,48.0003,0,1,0-59.40448-.00049,79.56043,79.56043,0,0,0-36.056,28.7461A87.63816,87.63816,0,0,1,40,128Zm56-8a32,32,0,1,1,32,32A32.036,32.036,0,0,1,96,120ZM74.08325,197.499a64.02243,64.02243,0,0,1,107.83331,0,87.814,87.814,0,0,1-107.83331,0Z"/>
</svg>
