<svg xmlns="http://www.w3.org/2000/svg" viewBox="0 0 256 256"><g opacity="0.2"><rect x="40" y="80" width="176" height="96" rx="16" transform="translate(256 0) rotate(90)"/></g><path d="M160,32H96A24.1,24.1,0,0,0,72,56V200a24.1,24.1,0,0,0,24,24h64a24.1,24.1,0,0,0,24-24V56A24.1,24.1,0,0,0,160,32Zm8,168a8,8,0,0,1-8,8H96a8,8,0,0,1-8-8V56a8,8,0,0,1,8-8h64a8,8,0,0,1,8,8Z"/><path d="M208,80a8,8,0,0,0-8,8v80a8,8,0,0,0,16,0V88A8,8,0,0,0,208,80Z"/><path d="M240,96a8,8,0,0,0-8,8v48a8,8,0,0,0,16,0V104A8,8,0,0,0,240,96Z"/><path d="M48,80a8,8,0,0,0-8,8v80a8,8,0,0,0,16,0V88A8,8,0,0,0,48,80Z"/><path d="M16,96a8,8,0,0,0-8,8v48a8,8,0,0,0,16,0V104A8,8,0,0,0,16,96Z"/></svg>