<svg id="Flat" xmlns="http://www.w3.org/2000/svg" viewBox="0 0 256 256">
  <g opacity="0.2">
    <rect x="40" y="80" width="176" height="96" rx="16" transform="translate(256) rotate(90)"/>
  </g>
  <g>
    <path d="M159.99951,32h-64a24.0275,24.0275,0,0,0-24,24V200a24.0275,24.0275,0,0,0,24,24h64a24.0275,24.0275,0,0,0,24-24V56A24.0275,24.0275,0,0,0,159.99951,32Zm8,168a8.00917,8.00917,0,0,1-8,8h-64a8.00917,8.00917,0,0,1-8-8V56a8.00917,8.00917,0,0,1,8-8h64a8.00917,8.00917,0,0,1,8,8Z"/>
    <path d="M208.00244,80a8.00039,8.00039,0,0,0-8,8v80a8,8,0,0,0,16,0V88A8.00039,8.00039,0,0,0,208.00244,80Z"/>
    <path d="M240.00244,96a8.00039,8.00039,0,0,0-8,8v48a8,8,0,0,0,16,0V104A8.00039,8.00039,0,0,0,240.00244,96Z"/>
    <path d="M47.99951,80a8.00039,8.00039,0,0,0-8,8v80a8,8,0,0,0,16,0V88A8.00039,8.00039,0,0,0,47.99951,80Z"/>
    <path d="M15.99951,96a8.00039,8.00039,0,0,0-8,8v48a8,8,0,0,0,16,0V104A8.00039,8.00039,0,0,0,15.99951,96Z"/>
  </g>
</svg>
