<svg xmlns="http://www.w3.org/2000/svg" viewBox="0 0 256 256"><g opacity="0.2"><path d="M24,60H152a32,32,0,0,1,32,32v96a8,8,0,0,1-8,8H48a32,32,0,0,1-32-32V68A8,8,0,0,1,24,60Z"/></g><path d="M244,73.1a7.7,7.7,0,0,0-8,0L192,98.2V92a40,40,0,0,0-40-40H24A16,16,0,0,0,8,68v96a40,40,0,0,0,40,40H176a16,16,0,0,0,16-16V157.8l44,25.1a8.3,8.3,0,0,0,4,1.1,8,8,0,0,0,4-1.1,7.8,7.8,0,0,0,4-6.9V80A7.8,7.8,0,0,0,244,73.1ZM176,188H48a24.1,24.1,0,0,1-24-24V68H152a24.1,24.1,0,0,1,24,24v20.1h0V188Zm56-25.8-40-22.8V116.6l40-22.8Z"/></svg>