<svg xmlns="http://www.w3.org/2000/svg" viewBox="0 0 256 256"><path d="M184,68V188a8,8,0,0,1-8,8H24a8,8,0,0,1-8-8V68a8,8,0,0,1,8-8H176A8,8,0,0,1,184,68Z" opacity="0.2"/><path d="M244,73.1a7.7,7.7,0,0,0-8,0L192,98.2V68a16,16,0,0,0-16-16H110.9a8,8,0,0,0,0,16H176v76a7.8,7.8,0,0,0,4,6.9l56,32a8.3,8.3,0,0,0,4,1.1,8,8,0,0,0,4-1.1,7.8,7.8,0,0,0,4-6.9V80A7.8,7.8,0,0,0,244,73.1Zm-12,89.1-40-22.8V116.6l40-22.8ZM40.8,18.6a7.9,7.9,0,0,0-11.3-.5A8,8,0,0,0,29,29.4L49.6,52H24A16,16,0,0,0,8,68V188a16,16,0,0,0,16,16H176a15.9,15.9,0,0,0,9.1-2.9l33,36.3A8,8,0,0,0,224,240a8.2,8.2,0,0,0,5.4-2.1,7.9,7.9,0,0,0,.5-11.3ZM24,188V68H64.1L173.2,188Z"/></svg>