<svg id="Flat" xmlns="http://www.w3.org/2000/svg" viewBox="0 0 256 256">
  <g opacity="0.2">
    <path d="M24,60H152a32,32,0,0,1,32,32v96a8,8,0,0,1-8,8H48a32,32,0,0,1-32-32V68A8,8,0,0,1,24,60Z"/>
  </g>
  <g>
    <path d="M244.01562,73.08105a8.001,8.001,0,0,0-7.98437-.02734L192,98.21436V92a40.04584,40.04584,0,0,0-40-40H110.88281a8,8,0,0,0,0,16H152a24.0275,24.0275,0,0,1,24,24v52a8.02047,8.02047,0,0,0,.06494.97168c.01026.08545.02539.16943.03858.25391q.05712.37206.14746.73095c.01953.07666.03759.15332.05908.2295a7.956,7.956,0,0,0,.73535,1.7583c.03784.0664.07935.13037.11914.1958q.18971.31274.40576.60547c.05274.07128.10376.14257.15869.2124a8.17877,8.17877,0,0,0,.61573.70019c.01172.01172.02539.022.03711.03369a8.033,8.033,0,0,0,.675.58985c.06958.05517.14136.10693.21314.15967q.312.22925.64551.42822c.04.02392.07519.05322.11572.07666l56,32A8.0003,8.0003,0,0,0,248,176V80A7.99807,7.99807,0,0,0,244.01562,73.08105ZM232,162.21484l-40-22.85742V116.64258l40-22.85742Z"/>
    <path d="M40.8291,18.61816A8.0006,8.0006,0,0,0,28.98926,29.38184L49.55127,52H24A16.01833,16.01833,0,0,0,8,68v96a40.04584,40.04584,0,0,0,40,40H176a15.89763,15.89763,0,0,0,9.12158-2.87256l32.9585,36.2544a8.0006,8.0006,0,1,0,11.83984-10.76368ZM48,188a24.0275,24.0275,0,0,1-24-24V68H64.09668L173.1875,188Z"/>
  </g>
</svg>
