<svg id="Flat" xmlns="http://www.w3.org/2000/svg" viewBox="0 0 256 256">
  <path d="M216.24939,165.80225A96.02915,96.02915,0,0,1,79.992,211.15234l.008-.01367A95.693,95.693,0,0,1,51.14124,185.5625l-.00049.00049a96.04327,96.04327,0,0,1,54.3305-96.584L80,44.86133a95.68807,95.68807,0,0,1,36.57874-12.2041l-.00007-.001A96.04311,96.04311,0,0,1,173.05743,128H128l-22.52875,39.021a96.04117,96.04117,0,0,0,110.77814-1.21875Zm.01324-.0293-.01324.0293.03125-.02149Z" opacity="0.2"/>
  <path d="M223.993,167.8916a104.79268,104.79268,0,0,0,7.97662-39.29053c.01484-.19921.0304-.39795.0304-.60107,0-.1499-.01428-.2959-.0224-.44385A103.991,103.991,0,1,0,37.93311,180a105.73748,105.73748,0,0,0,6.46447,9.87012,7.96831,7.96831,0,0,0,.54547.74316,103.21391,103.21391,0,0,0,56.13947,37.84277,104.55745,104.55745,0,0,0,27.08643,3.58887,104.02475,104.02475,0,0,0,94.95739-62.12109A7.99063,7.99063,0,0,0,223.993,167.8916ZM91.11353,48.11084a87.27662,87.27662,0,0,1,24.24554-7.18945A88.00751,88.00751,0,0,1,165.36621,120H132.61884ZM132.61884,136h40.4356l.012.00049L173.0766,136h42.50372a88.71259,88.71259,0,0,1-5.92535,24.64648,88.01249,88.01249,0,0,1-93.40991,3.71387Zm71.59161-52a87.44963,87.44963,0,0,1,11.39813,36H181.36572a104.1963,104.1963,0,0,0-35.68689-78.15527A87.80913,87.80913,0,0,1,204.21045,84ZM77.26184,56.11914l17.12708,29.665a104.19434,104.19434,0,0,0-49.86286,70.09619A88.1828,88.1828,0,0,1,77.26184,56.11914ZM58.90808,182.4873a88.00763,88.00763,0,0,1,43.48065-82.84716L118.76239,128,77.26733,199.87158A87.24392,87.24392,0,0,1,58.90808,182.4873ZM172,204.21a87.93117,87.93117,0,0,1-80.86218,3.63721l17.10766-29.63135a104.1949,104.1949,0,0,0,85.58753,8.15137A87.59142,87.59142,0,0,1,172,204.21Z"/>
</svg>
