<svg id="Flat" xmlns="http://www.w3.org/2000/svg" viewBox="0 0 256 256">
  <path d="M224,88V200a7.99977,7.99977,0,0,1-8,8H56a16.00016,16.00016,0,0,1-16-16V64A16.00016,16.00016,0,0,0,56,80H216A7.99977,7.99977,0,0,1,224,88Z" opacity="0.2"/>
  <path d="M216,72H56a8,8,0,0,1,0-16H192a8,8,0,0,0,0-16H56A24.0275,24.0275,0,0,0,32,64V192a24.0275,24.0275,0,0,0,24,24H216a16.01833,16.01833,0,0,0,16-16V88A16.01833,16.01833,0,0,0,216,72Zm0,128H56a8.00917,8.00917,0,0,1-8-8V86.62891A23.89077,23.89077,0,0,0,56,88H216Zm-48-56a12,12,0,1,1,12,12A12,12,0,0,1,168,144Z"/>
</svg>
