<svg id="Flat" xmlns="http://www.w3.org/2000/svg" viewBox="0 0 256 256">
  <g opacity="0.2">
    <path d="M114.15243,39.98472,26.17616,191.977a16.00005,16.00005,0,0,0,13.84762,24.01535H215.97625A16,16,0,0,0,229.82386,191.977L141.84757,39.98472A16,16,0,0,0,114.15243,39.98472Z"/>
  </g>
  <path d="M128,152a8.0002,8.0002,0,0,1-8-8V96a8,8,0,0,1,16,0v48A8.0002,8.0002,0,0,1,128,152Z"/>
  <circle cx="128" cy="180" r="12"/>
  <path d="M215.97656,223.99231H40.02344A24.00019,24.00019,0,0,1,19.252,187.96948L107.22852,35.97711a24.00015,24.00015,0,0,1,41.543.00006l87.97657,151.99207a24.00031,24.00031,0,0,1-20.77149,36.02307ZM128,40a7.861,7.861,0,0,0-6.92383,3.99225v.00018L33.09961,195.98462a8.00066,8.00066,0,0,0,6.92383,12.00769H215.97656a8.00078,8.00078,0,0,0,6.92383-12.00793L134.92383,43.99243A7.86085,7.86085,0,0,0,128,40Zm-13.84766-.01526h0Z"/>
</svg>
