<svg id="Flat" xmlns="http://www.w3.org/2000/svg" viewBox="0 0 256 256">
  <g opacity="0.2">
    <path d="M164.45079,32H91.54921a8,8,0,0,0-5.65686,2.34315l-51.5492,51.5492A8,8,0,0,0,32,91.54921v72.90158a8,8,0,0,0,2.34315,5.65686l51.5492,51.5492A8,8,0,0,0,91.54921,224h72.90158a8,8,0,0,0,5.65686-2.34315l51.5492-51.5492A8,8,0,0,0,224,164.45079V91.54921a8,8,0,0,0-2.34315-5.65686l-51.5492-51.5492A8,8,0,0,0,164.45079,32Z"/>
  </g>
  <path d="M120,136V80a8,8,0,0,1,16,0v56a8,8,0,0,1-16,0Zm8,24a12,12,0,1,0,12,12A12,12,0,0,0,128,160ZM232,91.54932v72.90136a15.8955,15.8955,0,0,1-4.68555,11.313l-51.5498,51.54981A15.89474,15.89474,0,0,1,164.45117,232H91.54883a15.89318,15.89318,0,0,1-11.31348-4.687l-51.5498-51.54883A15.89747,15.89747,0,0,1,24,164.45068V91.54932a15.89747,15.89747,0,0,1,4.68555-11.31348L80.23535,28.686A15.89627,15.89627,0,0,1,91.54883,24h72.90234a15.89474,15.89474,0,0,1,11.31348,4.68652l51.5498,51.54883A15.89944,15.89944,0,0,1,232,91.54932Zm-16,0L164.4502,40H91.54883L40,91.54932v72.90136L91.5498,216h72.90137L216,164.45068Z"/>
</svg>
