<svg id="Flat" xmlns="http://www.w3.org/2000/svg" viewBox="0 0 256 256">
  <g opacity="0.2">
    <path d="M114.15243,39.98472,26.17616,191.977a16.00005,16.00005,0,0,0,13.84762,24.01535H215.97625A16,16,0,0,0,229.82386,191.977L141.84757,39.98472A16,16,0,0,0,114.15243,39.98472Z"/>
  </g>
  <path d="M120.001,144.00488v-48.002a7.999,7.999,0,1,1,15.998,0v48.002a7.999,7.999,0,1,1-15.998,0ZM128,168.00537a12.00049,12.00049,0,1,0,11.99854,12.00049A11.99977,11.99977,0,0,0,128,168.00537Zm108.75293,43.98291A23.75028,23.75028,0,0,1,215.96484,224H40.03516A24.00116,24.00116,0,0,1,19.2666,187.97559l87.96485-151.998a23.99467,23.99467,0,0,1,41.5371,0L236.7334,187.97559A23.75993,23.75993,0,0,1,236.75293,211.98828ZM222.8877,195.99121l-87.96485-151.998a7.99806,7.99806,0,0,0-13.8457,0h0L33.1123,195.99121a8.001,8.001,0,0,0,6.92286,12.0083H215.96484a8.001,8.001,0,0,0,6.92286-12.0083Z"/>
</svg>
