<svg xmlns="http://www.w3.org/2000/svg" viewBox="0 0 256 256"><g opacity="0.2"><path d="M164.5,32h-73a7.9,7.9,0,0,0-5.6,2.3L34.3,85.9A7.9,7.9,0,0,0,32,91.5v72.9a7.9,7.9,0,0,0,2.3,5.7l51.6,51.6a7.9,7.9,0,0,0,5.6,2.3h73a7.9,7.9,0,0,0,5.6-2.3l51.6-51.6a7.9,7.9,0,0,0,2.3-5.7V91.5a7.9,7.9,0,0,0-2.3-5.6L170.1,34.3A7.9,7.9,0,0,0,164.5,32Z"/></g><path d="M120,136V80a8,8,0,0,1,16,0v56a8,8,0,0,1-16,0Zm8,24a12,12,0,1,0,12,12A12,12,0,0,0,128,160ZM232,91.5v72.9a16.3,16.3,0,0,1-4.7,11.4l-51.5,51.5a16.2,16.2,0,0,1-11.3,4.7h-73a16.2,16.2,0,0,1-11.3-4.7L28.7,175.8A16.3,16.3,0,0,1,24,164.4V91.5a16.2,16.2,0,0,1,4.7-11.3L80.2,28.7A16.2,16.2,0,0,1,91.5,24h73a16.2,16.2,0,0,1,11.3,4.7l51.5,51.5A16.2,16.2,0,0,1,232,91.5Zm-16,0L164.5,40h-73L40,91.5v72.9L91.5,216h73L216,164.4Z"/></svg>