<svg xmlns="http://www.w3.org/2000/svg" viewBox="0 0 256 256"><g opacity="0.2"><path d="M114.2,40l-88,152A16,16,0,0,0,40,216H216a16,16,0,0,0,13.8-24l-88-152A15.9,15.9,0,0,0,114.2,40Z"/></g><path d="M120,144V112a8,8,0,0,1,16,0v32a8,8,0,0,1-16,0Zm116.8,68A23.9,23.9,0,0,1,216,224H40a23.9,23.9,0,0,1-20.7-36L107.2,36a24,24,0,0,1,41.6,0l87.9,152A23.7,23.7,0,0,1,236.8,212Zm-13.9-16-88-152a8,8,0,0,0-13.8,0h0l-88,152a7.8,7.8,0,0,0,0,8,7.9,7.9,0,0,0,6.9,4H216a7.9,7.9,0,0,0,6.9-4A7.8,7.8,0,0,0,222.9,196ZM128,168a12,12,0,1,0,12,12A12,12,0,0,0,128,168Z"/></svg>