<svg id="Flat" xmlns="http://www.w3.org/2000/svg" viewBox="0 0 256 256">
  <g opacity="0.2">
    <path d="M164.45079,32H91.54921a8,8,0,0,0-5.65686,2.34315l-51.5492,51.5492A8,8,0,0,0,32,91.54921v72.90158a8,8,0,0,0,2.34315,5.65686l51.5492,51.5492A8,8,0,0,0,91.54921,224h72.90158a8,8,0,0,0,5.65686-2.34315l51.5492-51.5492A8,8,0,0,0,224,164.45079V91.54921a8,8,0,0,0-2.34315-5.65686l-51.5492-51.5492A8,8,0,0,0,164.45079,32Z"/>
  </g>
  <g>
    <path d="M128,144.00012a8.00008,8.00008,0,0,0,8-8v-56a8,8,0,1,0-16,0v56A8.00008,8.00008,0,0,0,128,144.00012Z"/>
    <circle cx="128" cy="172.00012" r="12"/>
    <path d="M227.31445,80.23547l-51.5498-51.54883a15.89474,15.89474,0,0,0-11.31348-4.68652H91.54883a15.89627,15.89627,0,0,0-11.31348,4.686L28.68555,80.236A15.89747,15.89747,0,0,0,24,91.54944V164.4508a15.89747,15.89747,0,0,0,4.68555,11.31348l51.5498,51.54883a15.89318,15.89318,0,0,0,11.31348,4.687h72.90234a15.89474,15.89474,0,0,0,11.31348-4.68652l51.5498-51.54981A15.8955,15.8955,0,0,0,232,164.4508V91.54944A15.89944,15.89944,0,0,0,227.31445,80.23547ZM216,164.4508l-51.54883,51.54932H91.5498L40,164.4508V91.54944L91.54883,40.00012H164.4502L216,91.54944Z"/>
  </g>
</svg>
