<svg id="Flat" xmlns="http://www.w3.org/2000/svg" viewBox="0 0 256 256">
  <g opacity="0.2">
    <circle cx="128" cy="128" r="72"/>
  </g>
  <g>
    <path d="M208,128a79.92812,79.92812,0,0,0-32.70313-64.46893l-6.23339-34.38556A15.99062,15.99062,0,0,0,153.31982,16H102.68018A15.99062,15.99062,0,0,0,86.93652,29.14551l-6.2334,34.38556a79.89661,79.89661,0,0,0,0,128.93786l6.2334,34.38556A15.99062,15.99062,0,0,0,102.68018,240h50.63964a15.99062,15.99062,0,0,0,15.74366-13.14551l6.23339-34.38556A79.92812,79.92812,0,0,0,208,128ZM102.68018,32h50.64013l3.90723,21.55316a79.69216,79.69216,0,0,0-58.45508,0ZM64,128a64,64,0,1,1,64,64A64.07239,64.07239,0,0,1,64,128Zm89.31982,96H102.67969l-3.90723-21.55316a79.69216,79.69216,0,0,0,58.45508,0Z"/>
    <path d="M128,136h40a8,8,0,0,0,0-16H136V88a8,8,0,0,0-16,0v40A8.00008,8.00008,0,0,0,128,136Z"/>
  </g>
</svg>
