<svg xmlns="http://www.w3.org/2000/svg" viewBox="0 0 256 256"><g opacity="0.2"><circle cx="128" cy="128" r="72"/></g><path d="M208,128a80.1,80.1,0,0,0-32.7-64.5l-6.2-34.4A16,16,0,0,0,153.3,16H102.7A16,16,0,0,0,86.9,29.1L80.7,63.5a80,80,0,0,0,0,129l6.2,34.4A16,16,0,0,0,102.7,240h50.6a16,16,0,0,0,15.8-13.1l6.2-34.4A80.1,80.1,0,0,0,208,128ZM102.7,32h50.6l3.9,21.6a78.9,78.9,0,0,0-58.4,0ZM64,128a64,64,0,1,1,64,64A64.1,64.1,0,0,1,64,128Zm89.3,96H102.7l-3.9-21.6a78.9,78.9,0,0,0,58.4,0Z"/><path d="M128,136h40a8,8,0,0,0,0-16H136V88a8,8,0,0,0-16,0v40A8,8,0,0,0,128,136Z"/></svg>