<svg id="Flat" xmlns="http://www.w3.org/2000/svg" viewBox="0 0 256 256">
  <g opacity="0.2">
    <path d="M128.00049,32A96.02264,96.02264,0,0,0,45.4292,176.99807l.00049-.00061-9.47315,33.15661a8,8,0,0,0,9.89014,9.8899l33.15625-9.47327v.001A96.00624,96.00624,0,1,0,128.00049,32ZM152.11377,183.9999A80.0001,80.0001,0,0,1,72,103.88625,27.97634,27.97634,0,0,1,100,76h0a6.89208,6.89208,0,0,1,5.98438,3.4729l11.6914,20.45923a8.00129,8.00129,0,0,1-.08594,8.08521l-9.38916,15.64843h0a48.18271,48.18271,0,0,0,24.1333,24.13379l.00049-.00012,15.64795-9.389a8.00033,8.00033,0,0,1,8.08545-.08594l20.459,11.69092A6.89223,6.89223,0,0,1,180,156,28.081,28.081,0,0,1,152.11377,183.9999Z"/>
  </g>
  <path d="M128.00049,24a104.0281,104.0281,0,0,0-91.189,154.041l-8.54687,29.915A15.99944,15.99944,0,0,0,48.044,227.73635l29.916-8.54688A104.00728,104.00728,0,1,0,128.00049,24Zm0,192a87.86347,87.86347,0,0,1-44.90772-12.30566,8.00324,8.00324,0,0,0-6.28759-.81641l-33.15674,9.47363,9.47265-33.15625a7.99679,7.99679,0,0,0-.8164-6.28613A88.01132,88.01132,0,1,1,128.00049,216Zm52.4956-72.93066L160.03662,131.378a16.01881,16.01881,0,0,0-16.17041.17285l-11.85107,7.11133a40.03607,40.03607,0,0,1-14.67627-14.67676l7.11084-11.85156a16.01674,16.01674,0,0,0,.17187-16.16992L112.93066,75.503A14.92643,14.92643,0,0,0,100,68a36.01385,36.01385,0,0,0-36,35.876A87.99949,87.99949,0,0,0,151.999,192c.042,0,.09473.02344.126,0A36.01427,36.01427,0,0,0,188,156,14.9238,14.9238,0,0,0,180.49609,143.06936ZM152.10254,176H152a72.00036,72.00036,0,0,1-72-72.10254A19.99027,19.99027,0,0,1,99.36328,84.00979l11.36621,19.8916-9.38867,15.64844a7.99972,7.99972,0,0,0-.43652,7.39746,56.03179,56.03179,0,0,0,28.14892,28.14843,7.99583,7.99583,0,0,0,7.397-.43652l15.64843-9.38867,19.8916,11.36621A19.99027,19.99027,0,0,1,152.10254,176Z"/>
</svg>
