<svg id="Flat" xmlns="http://www.w3.org/2000/svg" viewBox="0 0 256 256">
  <path d="M127.99977,219.70508a15.90888,15.90888,0,0,1-12.14014-5.64844L12.90016,92.709a16.18063,16.18063,0,0,1-3.71827-12.206,15.9705,15.9705,0,0,1,6.20752-10.95752c66.30371-50.03564,158.91748-50.03516,225.2212,0a15.97044,15.97044,0,0,1,6.20751,10.957,16.18062,16.18062,0,0,1-3.71826,12.20606L140.14039,214.05664A15.90912,15.90912,0,0,1,127.99977,219.70508ZM25.08375,82.27441a.128.128,0,0,0,.0166.083l102.898,121.27539L230.89967,82.35693a.163.163,0,0,0,.01123-.11718C170.363,36.57812,85.70875,36.563,25.08375,82.27441Zm-4.87549-6.34326h0Z"/>
</svg>
