<svg id="Flat" xmlns="http://www.w3.org/2000/svg" viewBox="0 0 256 256">
  <g opacity="0.2">
    <path d="M20.20855,75.93124c63.48474-47.90809,152.098-47.90812,215.58263.00015a8.015,8.015,0,0,1,1.201,11.61025c-19.04723,22.44929-82.94714,97.76169-102.95188,121.33925a7.93583,7.93583,0,0,1-12.14044-.0705L19.03968,87.57941A8.055,8.055,0,0,1,20.20855,75.93124Z"/>
  </g>
  <g>
    <path d="M53.9192,34.61237A8.00024,8.00024,0,1,0,42.08033,45.376l4.63007,5.093a185.38068,185.38068,0,0,0-31.32,19.0769A15.73766,15.73766,0,0,0,9.17848,80.48249a16.27706,16.27706,0,0,0,3.76123,12.27246L115.79957,213.98639a16.0279,16.0279,0,0,0,12.23389,5.6836,15.85368,15.85368,0,0,0,12.10693-5.61328L166.83,182.60065,202.08033,221.376a8.00024,8.00024,0,1,0,11.83887-10.76367Zm74.08057,169.02246L25.13941,82.40241c-.04736-.05566-.0581-.10449-.07324-.11426A169.4509,169.4509,0,0,1,57.98182,62.86774l97.99469,107.79419Z"/>
    <path d="M246.84059,80.49616a15.76809,15.76809,0,0,0-6.23047-10.9502A187.63818,187.63818,0,0,0,92.66285,35.335,7.99982,7.99982,0,1,0,95.658,51.05182,171.69214,171.69214,0,0,1,230.93727,82.2569a.13676.13676,0,0,1-.04493.10938l-49.49218,58.331a8,8,0,1,0,12.20019,10.35156l49.49268-58.332A16.21,16.21,0,0,0,246.84059,80.49616Z"/>
  </g>
</svg>
