<svg xmlns="http://www.w3.org/2000/svg" viewBox="0 0 256 256"><g opacity="0.2"><path d="M134,208.9a7.9,7.9,0,0,1-12.1-.1L50.4,124.5a119.9,119.9,0,0,1,155.2,0Z"/></g><path d="M246.8,80.5a15.7,15.7,0,0,0-6.2-11c-66.3-50-158.9-50-225.2,0h0a16.1,16.1,0,0,0-6.2,11,16.6,16.6,0,0,0,3.7,12.3L115.8,214a16.1,16.1,0,0,0,12.2,5.7h0a16,16,0,0,0,12.1-5.6l103-121.4A16,16,0,0,0,246.8,80.5ZM25,82.3l-4.8-6.4L25,82.3ZM128,203.6,61.8,125.7a111.8,111.8,0,0,1,132.4,0ZM230.9,82.4l-26.3,31a128.1,128.1,0,0,0-153.1,0l-26.4-31h0c60.6-45.7,145.3-45.7,205.8,0Z"/></svg>