<svg id="Flat" xmlns="http://www.w3.org/2000/svg" viewBox="0 0 256 256">
  <g opacity="0.2">
    <path d="M20.20855,75.93124c63.48474-47.90809,152.098-47.90812,215.58263.00015a8.015,8.015,0,0,1,1.201,11.61025c-19.04723,22.44929-82.94714,97.76169-102.95188,121.33925a7.93583,7.93583,0,0,1-12.14044-.0705L19.03968,87.57941A8.055,8.055,0,0,1,20.20855,75.93124Z"/>
  </g>
  <path d="M128.03346,219.67a16.0279,16.0279,0,0,1-12.23389-5.6836L12.93971,92.75495A16.27941,16.27941,0,0,1,9.17848,80.482,15.73731,15.73731,0,0,1,15.3899,69.54548c66.30274-50.03516,158.91651-50.03516,225.22022,0a15.76762,15.76762,0,0,1,6.23047,10.95214A16.21051,16.21051,0,0,1,243.093,92.71686L140.14039,214.05671A15.85368,15.85368,0,0,1,128.03346,219.67ZM25.08082,82.27692a.23089.23089,0,0,0,.05908.12647L127.99977,203.63483l102.89257-121.269a.13661.13661,0,0,0,.04493-.1084C170.36207,36.5777,85.70484,36.565,25.08082,82.27692Zm-4.87207-6.3457,4.81836,6.38623.00049-.00049Zm0,0h0Z"/>
</svg>
