<svg xmlns="http://www.w3.org/2000/svg" viewBox="0 0 256 256"><g opacity="0.2"><path d="M20.2,75.9C83.7,28,172.3,28,235.8,75.9A8,8,0,0,1,237,87.5L134,208.9a7.8,7.8,0,0,1-12.1-.1L19,87.6A8.1,8.1,0,0,1,20.2,75.9Z"/></g><path d="M128,219.7a16.1,16.1,0,0,1-12.2-5.7L12.9,92.8A16.6,16.6,0,0,1,9.2,80.5a15.6,15.6,0,0,1,6.2-10.9c66.3-50.1,158.9-50.1,225.2,0a15.3,15.3,0,0,1,6.2,10.9,16,16,0,0,1-3.7,12.2l-103,121.4A16,16,0,0,1,128,219.7ZM25.1,82.3h0L128,203.6,230.9,82.4h0C170.4,36.6,85.7,36.6,25.1,82.3Zm-4.9-6.4L25,82.3h0Zm0,0Z"/></svg>