<svg id="Flat" xmlns="http://www.w3.org/2000/svg" viewBox="0 0 256 256">
  <g opacity="0.2">
    <path d="M20.20855,75.93124c63.48474-47.90809,152.098-47.90812,215.58263.00015a8.015,8.015,0,0,1,1.201,11.61025c-19.04723,22.44929-82.94714,97.76169-102.95188,121.33925a7.93583,7.93583,0,0,1-12.14044-.0705L19.03968,87.57941A8.055,8.055,0,0,1,20.20855,75.93124Z"/>
  </g>
  <path d="M172.44392,164.99543c-.02167-.023-.04144-.04712-.06342-.06983L53.9192,34.61823A8.00024,8.00024,0,1,0,42.08033,45.3819l4.62628,5.08887A185.365,185.365,0,0,0,15.39039,69.546,15.73766,15.73766,0,0,0,9.17848,80.48249a16.27706,16.27706,0,0,0,3.76123,12.27246L115.79957,213.98639a16.0279,16.0279,0,0,0,12.23389,5.6836,15.85368,15.85368,0,0,0,12.10693-5.61328l26.687-31.45313,35.25293,38.77832a8.00024,8.00024,0,1,0,11.83887-10.76367Zm-44.44415,38.6394L25.13941,82.40241c-.04736-.05566-.0581-.10449-.07324-.11426A169.44539,169.44539,0,0,1,57.9781,62.86945L155.974,170.66486ZM243.093,92.71686l-49.49268,58.332a8,8,0,0,1-12.20019-10.35156l49.49218-58.331a.13676.13676,0,0,0,.04493-.10938A171.69214,171.69214,0,0,0,95.658,51.05182,7.99982,7.99982,0,1,1,92.66285,35.335,187.63818,187.63818,0,0,1,240.61012,69.546a15.76809,15.76809,0,0,1,6.23047,10.9502A16.21,16.21,0,0,1,243.093,92.71686Z"/>
</svg>
