<svg xmlns="http://www.w3.org/2000/svg" viewBox="0 0 256 256"><g opacity="0.2"><path d="M71.1,148.9a87.9,87.9,0,0,1,113.8,0l-50.9,60a7.9,7.9,0,0,1-12.1-.1Z"/></g><path d="M246.8,80.5a15.7,15.7,0,0,0-6.2-11c-66.3-50-158.9-50-225.2,0a16.1,16.1,0,0,0-6.2,11,16.6,16.6,0,0,0,3.7,12.3L115.8,214a15.9,15.9,0,0,0,24.3.1l103-121.4A16,16,0,0,0,246.8,80.5ZM25,82.3l-4.8-6.4L25,82.3ZM128,203.6,82.6,150.1a80.1,80.1,0,0,1,90.8,0ZM230.9,82.4l-47.1,55.5a95.9,95.9,0,0,0-111.6,0L25.1,82.4h0c60.6-45.7,145.3-45.7,205.8,0Z"/></svg>