<svg xmlns="http://www.w3.org/2000/svg" viewBox="0 0 256 256"><g opacity="0.2"><path d="M20.2,75.9C83.7,28,172.3,28,235.8,75.9A8,8,0,0,1,237,87.5L134,208.9a7.8,7.8,0,0,1-12.1-.1L19,87.6A8.1,8.1,0,0,1,20.2,75.9Z"/></g><path d="M172.4,165h0L53.9,34.6a8,8,0,0,0-11.3-.5,7.9,7.9,0,0,0-.5,11.3l4.6,5.1A185.8,185.8,0,0,0,15.4,69.6,15.6,15.6,0,0,0,9.2,80.5a16.6,16.6,0,0,0,3.7,12.3L115.8,214a15.9,15.9,0,0,0,24.3.1l26.7-31.5,35.3,38.8A8,8,0,0,0,208,224a8.2,8.2,0,0,0,5.4-2.1,8,8,0,0,0,.5-11.3ZM128,203.6,25.1,82.4h0A167.3,167.3,0,0,1,58,62.9l98,107.8ZM243.1,92.7l-49.5,58.4a8.1,8.1,0,0,1-6.1,2.8,8,8,0,0,1-5.2-1.9,8.1,8.1,0,0,1-.9-11.3l49.5-58.3h0A171.4,171.4,0,0,0,95.7,51.1a8,8,0,0,1-3-15.8A187.6,187.6,0,0,1,240.6,69.6a15.3,15.3,0,0,1,6.2,10.9A16,16,0,0,1,243.1,92.7Z"/></svg>