<svg id="Flat" xmlns="http://www.w3.org/2000/svg" viewBox="0 0 256 256">
  <g opacity="0.2">
    <path d="M20.20855,75.93124c63.48474-47.90809,152.098-47.90812,215.58263.00015a8.015,8.015,0,0,1,1.201,11.61025c-19.04723,22.44929-82.94714,97.76169-102.95188,121.33925a7.93583,7.93583,0,0,1-12.14044-.0705L19.03968,87.57941A8.055,8.055,0,0,1,20.20855,75.93124Z"/>
  </g>
  <path d="M229.6565,98.34284A8.00018,8.00018,0,0,1,218.343,109.65729L199.99977,91.314,181.6565,109.65729A8.00018,8.00018,0,1,1,170.343,98.34284L188.6858,80.00007,170.343,61.65729A8.00018,8.00018,0,0,1,181.6565,50.34284L199.99977,68.6861,218.343,50.34284A8.00018,8.00018,0,0,1,229.6565,61.65729L211.31373,80.00007Zm-21.74121,23.46875a8.00344,8.00344,0,0,0-11.27588.9248l-68.63964,80.89844L25.13941,82.40241c-.04736-.05566-.0581-.10449-.07324-.11426A170.56129,170.56129,0,0,1,146.80885,49.02546a7.99961,7.99961,0,1,0,1.74023-15.9043A186.48641,186.48641,0,0,0,15.39039,69.546,15.73766,15.73766,0,0,0,9.17848,80.48249a16.27706,16.27706,0,0,0,3.76123,12.27246L115.79957,213.98639a16.0279,16.0279,0,0,0,12.23389,5.6836,15.85368,15.85368,0,0,0,12.10693-5.61328L208.83961,133.088A8.0006,8.0006,0,0,0,207.91529,121.81159Z"/>
</svg>
