<svg id="Flat" xmlns="http://www.w3.org/2000/svg" viewBox="0 0 256 256">
  <g opacity="0.2">
    <path d="M71.06558,148.89719a88.00756,88.00756,0,0,1,113.86856-.00025l-50.89382,59.98395a7.93583,7.93583,0,0,1-12.14044-.0705Z"/>
  </g>
  <path d="M246.84059,80.49756a15.76762,15.76762,0,0,0-6.23047-10.95215c-66.30371-50.03516-158.91748-50.03516-225.22022,0A15.73678,15.73678,0,0,0,9.179,80.48145a16.278,16.278,0,0,0,3.76075,12.27392L115.79957,213.98682a16.02745,16.02745,0,0,0,12.23389,5.6831,15.85368,15.85368,0,0,0,12.10693-5.61328L243.093,92.7168A16.21053,16.21053,0,0,0,246.84059,80.49756ZM25.02711,82.31738l-4.81836-6.38623,4.81885,6.38574ZM127.99977,203.63477,82.60938,150.13745a79.93587,79.93587,0,0,1,90.78113-.00012Zm102.89257-121.269L183.789,137.88165a95.96886,95.96886,0,0,0-111.57812.00012L25.14039,82.4043a.23242.23242,0,0,1-.05957-.12744c60.624-45.71192,145.28125-45.69922,205.85645-.01954A.13661.13661,0,0,1,230.89234,82.36572Z"/>
</svg>
