<svg xmlns="http://www.w3.org/2000/svg" viewBox="0 0 256 256"><g opacity="0.2"><path d="M20.2,75.9C83.7,28,172.3,28,235.8,75.9A8,8,0,0,1,237,87.5L134,208.9a7.8,7.8,0,0,1-12.1-.1L19,87.6A8.1,8.1,0,0,1,20.2,75.9Z"/></g><path d="M229.7,98.3a8.1,8.1,0,0,1,0,11.4,8.2,8.2,0,0,1-11.4,0L200,91.3l-18.3,18.4a8.2,8.2,0,0,1-11.4,0,8.1,8.1,0,0,1,0-11.4L188.7,80,170.3,61.7a8.1,8.1,0,0,1,11.4-11.4L200,68.7l18.3-18.4a8.1,8.1,0,0,1,11.4,11.4L211.3,80Zm-21.8,23.5a8.1,8.1,0,0,0-11.3.9L128,203.6,25.1,82.4h0A170.9,170.9,0,0,1,146.8,49a8,8,0,0,0,1.7-15.9A186.1,186.1,0,0,0,15.4,69.6,15.6,15.6,0,0,0,9.2,80.5a16.6,16.6,0,0,0,3.7,12.3L115.8,214a15.9,15.9,0,0,0,24.3.1l68.7-81A8,8,0,0,0,207.9,121.8Z"/></svg>