<svg xmlns="http://www.w3.org/2000/svg" viewBox="0 0 256 256"><path d="M136,144h80v72l-80-14.5ZM40,184l64,11.6V144H40ZM136,54.5V112h80V40ZM40,112h64V60.4L40,72Z" opacity="0.2"/><path d="M216,136H136a8,8,0,0,0-8,8v57.5a8,8,0,0,0,6.6,7.8l80,14.6H216a7.4,7.4,0,0,0,5.1-1.9A7.9,7.9,0,0,0,224,216V144A8,8,0,0,0,216,136Zm-8,70.4-64-11.6V152h64ZM104,136H40a8,8,0,0,0-8,8v40a8,8,0,0,0,6.6,7.9l64,11.6H104a7.8,7.8,0,0,0,5.1-1.8,8.1,8.1,0,0,0,2.9-6.2V144A8,8,0,0,0,104,136Zm-8,50.1-48-8.8V152H96ZM221.1,33.9a7.7,7.7,0,0,0-6.5-1.8l-80,14.6a8,8,0,0,0-6.6,7.8V112a8,8,0,0,0,8,8h80a8,8,0,0,0,8-8V40A7.9,7.9,0,0,0,221.1,33.9ZM208,104H144V61.2l64-11.6ZM109.1,54.2a8,8,0,0,0-6.5-1.7l-64,11.6A8,8,0,0,0,32,72v40a8,8,0,0,0,8,8h64a8,8,0,0,0,8-8V60.4A8.1,8.1,0,0,0,109.1,54.2ZM96,104H48V78.7l48-8.8Z"/></svg>