<svg id="Flat" xmlns="http://www.w3.org/2000/svg" viewBox="0 0 256 256">
  <path d="M200.40186,106.667Zm1.65625,5.61084-1.65625-5.61084C191.07471,112.17188,165.55566,122.77783,128,104c-35.26514-17.63281-59.917-9.356-70.51562-3.72314l-3.54249,12.00146a23.98073,23.98073,0,0,0,1.1377,16.67285,80.03347,80.03347,0,0,0,145.84082-.00049A23.9778,23.9778,0,0,0,202.05811,112.27783Z" opacity="0.2"/>
  <path d="M209.73047,110.01318,183.67285,21.73535A7.99985,7.99985,0,0,0,176,16H80a7.99985,7.99985,0,0,0-7.67285,5.73535L46.26953,110.01367A31.984,31.984,0,0,0,47.791,132.24951,88.23263,88.23263,0,0,0,120,183.62012V224H88a8,8,0,0,0,0,16h80a8,8,0,0,0,0-16H136V183.62012a88.2322,88.2322,0,0,0,72.209-51.3711A31.98167,31.98167,0,0,0,209.73047,110.01318ZM85.97949,32h84.041l20.8125,70.5083c-10.77637,4.49268-31.07715,8.42529-59.25537-5.66357C105.398,83.75488,84.38428,83.76318,69.66943,87.25586Zm107.65283,93.65186a72.03326,72.03326,0,0,1-131.26416.00048,15.97874,15.97874,0,0,1-.7539-11.10937l2.5459-8.62354c11.00976-4.91211,31.48877-9.15088,60.2622,5.23584,17.23,8.61524,32.25635,11.50489,44.66553,11.50489a73.05484,73.05484,0,0,0,25.90674-4.60108A15.90873,15.90873,0,0,1,193.63232,125.65186Z"/>
</svg>
