<svg xmlns="http://www.w3.org/2000/svg" viewBox="0 0 256 256"><g opacity="0.2"><path d="M185,37.1,143,79l5.7,28.3L177,113l41.9-42h0a63.9,63.9,0,0,1-89.8,81h0L73,217a24,24,0,0,1-34-34l65-56.1h0a63.9,63.9,0,0,1,81-89.8Z"/></g><path d="M226.3,67.9a8.3,8.3,0,0,0-4.6-4.4,7.7,7.7,0,0,0-6.3.4,5.1,5.1,0,0,0-2.1,1.5l-39,38.9-18.8-3.8-3.8-18.8,38.9-39a5.1,5.1,0,0,0,1.5-2.1,7.7,7.7,0,0,0,.4-6.3,8.3,8.3,0,0,0-4.4-4.6,72,72,0,0,0-94,95.2L33.8,177c-.1.1-.3.2-.4.4a31.9,31.9,0,0,0,0,45.2,31.9,31.9,0,0,0,45.2,0c.2-.1.3-.3.4-.4l52.1-60.3a72,72,0,0,0,95.2-94Zm-26.7,67.7a56.2,56.2,0,0,1-66.5,9.5,8.1,8.1,0,0,0-10.1,1.7L67.1,211.5a16,16,0,0,1-22.6-22.6L109.2,133a8,8,0,0,0,1.8-9.9,56.1,56.1,0,0,1,58.9-82.3L137.4,73.4a8,8,0,0,0-2.2,7.2l5.6,28.3a8.4,8.4,0,0,0,6.3,6.3l28.3,5.6a8,8,0,0,0,7.2-2.2l32.6-32.5A55.9,55.9,0,0,1,199.6,135.6Z"/></svg>