<svg id="Flat" xmlns="http://www.w3.org/2000/svg" viewBox="0 0 256 256">
  <g opacity="0.2">
    <circle cx="128" cy="128" r="96"/>
  </g>
  <g>
    <path d="M128,24.00012a104,104,0,1,0,104,104A104.11791,104.11791,0,0,0,128,24.00012Zm0,192a88,88,0,1,1,88-88A88.09957,88.09957,0,0,1,128,216.00012Z"/>
    <path d="M165.65723,90.34338a8.00122,8.00122,0,0,0-11.31446,0L128,116.68616,101.65723,90.34338a8.00018,8.00018,0,1,0-11.31446,11.31348L116.686,128.00012,90.34277,154.34338a8.00018,8.00018,0,0,0,11.31446,11.31348L128,139.31409l26.34277,26.34277a8.00018,8.00018,0,0,0,11.31446-11.31348L139.314,128.00012l26.34327-26.34326A8,8,0,0,0,165.65723,90.34338Z"/>
  </g>
</svg>
