<svg id="Flat" xmlns="http://www.w3.org/2000/svg" viewBox="0 0 256 256">
  <g opacity="0.2">
    <rect x="40" y="40" width="176" height="176" rx="8"/>
  </g>
  <g>
    <path d="M165.65723,90.34338a8.00122,8.00122,0,0,0-11.31446,0L128,116.68616,101.65723,90.34338a8.00018,8.00018,0,1,0-11.31446,11.31348L116.686,128.00012,90.34277,154.34338a8.00018,8.00018,0,0,0,11.31446,11.31348L128,139.31409l26.34277,26.34277a8.00018,8.00018,0,0,0,11.31446-11.31348L139.314,128.00012l26.34327-26.34326A8,8,0,0,0,165.65723,90.34338Z"/>
    <path d="M208,32.00012H48a16.01833,16.01833,0,0,0-16,16v160a16.01833,16.01833,0,0,0,16,16H208a16.01833,16.01833,0,0,0,16-16v-160A16.01833,16.01833,0,0,0,208,32.00012Zm0,176H48v-160H208l.00977,159.99951Z"/>
  </g>
</svg>
