<svg xmlns="http://www.w3.org/2000/svg" viewBox="0 0 256 256"><g opacity="0.2"><rect x="40" y="40" width="176" height="176" rx="8"/></g><path d="M165.7,90.3a8.1,8.1,0,0,0-11.4,0L128,116.7,101.7,90.3a8.1,8.1,0,0,0-11.4,11.4L116.7,128,90.3,154.3a8.1,8.1,0,0,0,0,11.4,8.2,8.2,0,0,0,11.4,0L128,139.3l26.3,26.4a8.2,8.2,0,0,0,11.4,0,8.1,8.1,0,0,0,0-11.4L139.3,128l26.4-26.3A8.1,8.1,0,0,0,165.7,90.3Z"/><path d="M208,32H48A16,16,0,0,0,32,48V208a16,16,0,0,0,16,16H208a16,16,0,0,0,16-16V48A16,16,0,0,0,208,32Zm0,176H48V48H208V208Z"/></svg>