<svg id="Flat" xmlns="http://www.w3.org/2000/svg" viewBox="0 0 256 256">
  <g opacity="0.2">
    <path d="M222.77246,68C221.377,59.21167,212.76953,51.07446,204,50.06909a698.14835,698.14835,0,0,0-152,0C43.22754,51.07422,34.625,59.2124,33.22754,68a394.631,394.631,0,0,0,0,120C34.62451,196.7876,43.228,204.92627,52,205.93091a698.14835,698.14835,0,0,0,152,0c8.77393-1.00391,17.37646-9.14356,18.77246-17.93091A394.631,394.631,0,0,0,222.77246,68ZM112,160V96l48,32Z"/>
  </g>
  <g>
    <path d="M230.67334,66.74561c-1.96533-12.37745-13.28125-23.19385-25.80518-24.6294a709.58983,709.58983,0,0,0-153.77929.00488C38.61133,43.55078,27.29492,54.3667,25.31934,66.79053a404.54889,404.54889,0,0,0,.00732,122.46533c1.96777,12.37842,13.28467,23.19385,25.80518,24.62744A708.4668,708.4668,0,0,0,128,218.06055a708.4668,708.4668,0,0,0,76.86816-4.17725l.041-.00439c12.48047-1.42823,23.79736-12.24414,25.77148-24.66944A404.53923,404.53923,0,0,0,230.67334,66.74561Zm-15.80176,119.999c-.82178,5.17187-6.53515,10.62695-11.76318,11.23584a693.39474,693.39474,0,0,1-150.19824.00195c-5.23291-.59912-10.959-6.06055-11.77442-11.19189a388.41717,388.41717,0,0,1-.00781-117.53418c.82373-5.17774,6.5498-10.63965,11.74023-11.23487a693.39485,693.39485,0,0,1,150.22071-.00488c5.23437.6001,10.96093,6.06152,11.77539,11.19287A388.40782,388.40782,0,0,1,214.87158,186.74463Z"/>
    <path d="M164.4375,121.34375l-48-32A8,8,0,0,0,104,96v64a7.99975,7.99975,0,0,0,12.4375,6.65625l48-32a7.99959,7.99959,0,0,0,0-13.3125ZM120,145.05176V110.94824L145.57813,128Z"/>
  </g>
</svg>
