<svg id="Flat" xmlns="http://www.w3.org/2000/svg" viewBox="0 0 256 256">
  <g opacity="0.2">
    <path d="M226.58887,71.81348A15.91692,15.91692,0,0,0,216.95605,60.919C183.479,48.0542,128,48.40747,128,48.40747S72.52148,48.0542,39.044,60.919a15.91766,15.91766,0,0,0-9.63282,10.89428C27.07422,80.78613,24,98.24438,24,128c0,29.75537,3.07422,47.21387,5.41113,56.18652A15.91692,15.91692,0,0,0,39.044,195.08105C72.521,207.9458,128,207.59253,128,207.59253s55.47852.35327,88.95605-12.51148a15.91655,15.91655,0,0,0,9.63282-10.89428C228.92578,175.21387,232,157.75562,232,128,232,98.24463,228.92578,80.78613,226.58887,71.81348ZM112,160V96l48,32Z"/>
  </g>
  <path d="M164.4375,121.34375l-48-32A8,8,0,0,0,104,96v64a7.99975,7.99975,0,0,0,12.4375,6.65625l48-32a7.99959,7.99959,0,0,0,0-13.3125ZM120,145.05176V110.94824L145.57813,128Zm114.33057-75.2544a23.96369,23.96369,0,0,0-14.50489-16.34619C185.55615,40.28223,130.98291,40.39209,128,40.40771c-2.98145-.02392-57.55518-.126-91.8252,13.04346A23.96415,23.96415,0,0,0,21.66992,69.79639C19.083,79.72705,16,97.88574,16,128c0,30.11377,3.083,48.27246,5.66943,58.20264a23.96369,23.96369,0,0,0,14.50489,16.34619c32.80615,12.60693,84.22168,13.04541,91.167,13.04541.6206.00049.69726.00049,1.31738,0,6.95069-.00049,58.36231-.43945,91.16651-13.04541a23.96415,23.96415,0,0,0,14.50488-16.34522C236.917,176.273,240,158.11426,240,128,240,97.88623,236.917,79.72754,234.33057,69.79736ZM218.84668,182.1709a7.92972,7.92972,0,0,1-4.76074,5.44238c-31.6543,12.16406-85.50586,11.99121-86.13574,11.979-.53516.022-54.38184.186-86.03711-11.979a7.93108,7.93108,0,0,1-4.76026-5.44287C34.80225,173.14453,32,156.41992,32,128c0-28.42041,2.80225-45.145,5.15332-54.1709a7.92972,7.92972,0,0,1,4.76074-5.44238c31.6543-12.16455,85.49707-11.99658,86.13574-11.979.53809-.01709,54.38184-.18554,86.03711,11.979a7.93108,7.93108,0,0,1,4.76026,5.44287C221.19775,82.85547,224,99.58008,224,128,224,156.42041,221.19775,173.145,218.84668,182.1709Z"/>
</svg>
