<?xml version="1.0" standalone="no"?>
<!DOCTYPE svg PUBLIC "-//W3C//DTD SVG 1.1//EN" "http://www.w3.org/Graphics/SVG/1.1/DTD/svg11.dtd" >
<svg xmlns="http://www.w3.org/2000/svg">
<metadata><json><![CDATA[{
	"author": "Phosphor Icons",
	"description": "A friendly icon family for everyone",
	"version": "1.4",
	"copyright": "Phosphor Icons",
	"license": "MIT",
	"url": "https://phosphoricons.com"
}]]></json></metadata>
<defs>
  <font id="Phosphor" horiz-adv-x="256">
    <font-face font-family="Phosphor"
      units-per-em="256" ascent="256"
      descent="0" />
    <missing-glyph horiz-adv-x="0" />
    <glyph glyph-name="activity-thin"
      unicode="&#xEA02;"
      horiz-adv-x="256" d="M160 44H159.8A3.9000000000000004 3.9000000000000004 0 0 0 156.3 46.6L95.7 205.6L59.6 126.3A3.9000000000000004 3.9000000000000004 0 0 0 56 124H24A4 4 0 0 0 24 132H53.4L92.4 217.7A3.8000000000000003 3.8000000000000003 0 0 0 96.1 220A4 4 0 0 0 99.7 217.4L160.5 57.9L196.4 129.8A4.2 4.2 0 0 0 200 132H232A4 4 0 0 0 232 124H202.5L163.6 46.2A4.2 4.2 0 0 0 160 44z" />
    <glyph glyph-name="address-book-thin"
      unicode="&#xEA03;"
      horiz-adv-x="256" d="M154.7 113.2A36 36 0 1 1 117.3 113.2A63 63 0 0 1 84.8 90.4A4 4 0 0 1 85.6 84.8A4.3 4.3 0 0 1 88 84A4.2 4.2 0 0 1 91.2 85.6A56 56 0 0 0 180.8 85.6A4 4 0 0 1 187.2 90.4A63 63 0 0 1 154.7 113.2zM108 144A28 28 0 1 0 136 116A28.1 28.1 0 0 0 108 144zM208 228H64A12 12 0 0 1 52 216V192H32A4 4 0 0 1 32 184H52V152H32A4 4 0 0 1 32 144H52V112H32A4 4 0 0 1 32 104H52V72H32A4 4 0 0 1 32 64H52V40A12 12 0 0 1 64 28H208A12 12 0 0 1 220 40V216A12 12 0 0 1 208 228zM212 40A4 4 0 0 0 208 36H64A4 4 0 0 0 60 40V216A4 4 0 0 0 64 220H208A4 4 0 0 0 212 216z" />
    <glyph glyph-name="airplane-in-flight-thin"
      unicode="&#xEA04;"
      horiz-adv-x="256" d="M220 40A4 4 0 0 0 216 36H72A4 4 0 0 0 72 44H216A4 4 0 0 0 220 40zM244 120V96A4 4 0 0 0 240 92H63.8A35.8 35.8 0 0 0 29.3 117.7L15.3 164.6A11.9 11.9 0 0 0 17.1 175.2A12.1 12.1 0 0 0 26.8 180H44A4.1000000000000005 4.1000000000000005 0 0 0 47.1 178.6L65.9 156H90.5L79.7 188.2A11.9 11.9 0 0 0 81.4 199A11.6 11.6 0 0 0 91.1 204H108A3.9000000000000004 3.9000000000000004 0 0 0 110.9 202.7L153.8 156H208A36 36 0 0 0 244 120zM236 120A28.1 28.1 0 0 1 208 148H152A3.9000000000000004 3.9000000000000004 0 0 0 149.1 149.3L106.2 196H91.1A3.6999999999999997 3.6999999999999997 0 0 1 87.9 194.3A3.8000000000000003 3.8000000000000003 0 0 1 87.3 190.7L99.8 153.3A3.8000000000000003 3.8000000000000003 0 0 0 99.2 149.7A3.6999999999999997 3.6999999999999997 0 0 0 96 148H64A4.1000000000000005 4.1000000000000005 0 0 0 60.9 149.4L42.1 172H26.8A4.2 4.2 0 0 1 23.5 170.4A4.3 4.3 0 0 1 22.9 166.9L37 120A27.8 27.8 0 0 1 63.8 100H236z" />
    <glyph glyph-name="airplane-landing-thin"
      unicode="&#xEA05;"
      horiz-adv-x="256" d="M244 40A4 4 0 0 0 240 36H96A4 4 0 0 0 96 44H240A4 4 0 0 0 244 40zM222.9 68.1L46.3 117.6A36.1 36.1 0 0 0 20 152.3V204.9A11.6 11.6 0 0 0 25 214.6A11.9 11.9 0 0 0 35.8 216.3L49.3 211.8A4.1000000000000005 4.1000000000000005 0 0 0 51.5 209.9L66.8 181.3L92 173.4V204.9A11.6 11.6 0 0 0 97 214.6A11.9 11.9 0 0 0 107.8 216.3L121.3 211.8A4.3 4.3 0 0 0 123.5 210L154.7 155.4L201.6 142.4A36.1 36.1 0 0 0 228 107.7V72A4 4 0 0 0 226.4 68.8A4.1000000000000005 4.1000000000000005 0 0 0 224 68zM220 107.7A28.1 28.1 0 0 1 199.5 134.7L150.9 148.1A4.1000000000000005 4.1000000000000005 0 0 0 148.5 150L117.3 204.7L105.3 208.7A3.8000000000000003 3.8000000000000003 0 0 1 101.7 208.1A3.6999999999999997 3.6999999999999997 0 0 1 100 204.9V168A4 4 0 0 0 94.8 164.2L62.8 174.2A3.9000000000000004 3.9000000000000004 0 0 0 60.5 176.1L45.2 204.7L33.3 208.7L32 208.9A4 4 0 0 1 29.7 208.1A3.6999999999999997 3.6999999999999997 0 0 1 28 204.9V152.3A28.1 28.1 0 0 1 48.5 125.3L220 77.3z" />
    <glyph glyph-name="airplane-takeoff-thin"
      unicode="&#xEA06;"
      horiz-adv-x="256" d="M172 40A4 4 0 0 0 168 36H24A4 4 0 0 0 24 44H168A4 4 0 0 0 172 40zM247.9 163.3A4 4 0 0 0 246 160.5L94.6 72.5A35.8 35.8 0 0 0 51.9 77.4L14.2 112.7A12 12 0 0 0 17.7 132.5L34.4 139.7A4.4 4.4 0 0 0 37.6 139.7L63.7 128.5L85.2 140.7L58.6 164.7A12 12 0 0 0 61.9 184.6L78.4 191.7A4.1000000000000005 4.1000000000000005 0 0 0 81.3 191.8L139.5 172.4L182.3 197.5A35.9 35.9 0 0 0 228.5 189.3L247.1 166.5A4.1000000000000005 4.1000000000000005 0 0 0 247.9 163.3zM237.9 165.1L222.3 184.2A27.900000000000002 27.900000000000002 0 0 1 186.4 190.7L142 164.6A3.9000000000000004 3.9000000000000004 0 0 0 138.7 164.2L80.2 183.7L65.1 177.3A4 4 0 0 1 62.7 174.2A3.8000000000000003 3.8000000000000003 0 0 1 64 170.6L94.7 143A4.3 4.3 0 0 0 96 139.6A4.4 4.4 0 0 0 94 136.5L66 120.5A4.1000000000000005 4.1000000000000005 0 0 0 62.4 120.3L36 131.6L20.8 125.1A3.8000000000000003 3.8000000000000003 0 0 1 18.5 122.2A4 4 0 0 1 19.7 118.5L57.4 83.2A27.900000000000002 27.900000000000002 0 0 1 90.6 79.4z" />
    <glyph glyph-name="airplane-thin"
      unicode="&#xEA07;"
      horiz-adv-x="256" d="M234 123.6L156.2 162.5V208A28 28 0 0 1 100.2 208V162.5L22.2 123.6A4.2 4.2 0 0 1 20 120V88A3.9000000000000004 3.9000000000000004 0 0 1 21.5 84.9A3.5999999999999996 3.5999999999999996 0 0 1 24.8 84.1L100 99.1V73.7L85.2 58.8A3.5999999999999996 3.5999999999999996 0 0 1 84 56V24A4 4 0 0 1 85.8 20.7A3.8000000000000003 3.8000000000000003 0 0 1 89.5 20.3L128 35.7L166.5 20.3A4 4 0 0 1 168 20A3.4 3.4 0 0 1 170.2 20.7A4 4 0 0 1 172 24V56A3.5999999999999996 3.5999999999999996 0 0 1 170.8 58.8L156.2 73.6V99.1L231.4000000000001 84.1A3.9000000000000004 3.9000000000000004 0 0 1 234.8000000000001 84.9A4.1000000000000005 4.1000000000000005 0 0 1 236.2000000000001 88V120A4 4 0 0 1 234.0000000000001 123.6zM228.2 92.9L153 107.9A3.5999999999999996 3.5999999999999996 0 0 1 149.7 107.1A4.2 4.2 0 0 1 148.2 104V72A3.5999999999999996 3.5999999999999996 0 0 1 149.4 69.2L164 54.4V29.9L129.5 43.7A3.9000000000000004 3.9000000000000004 0 0 1 126.5 43.7L92 29.9V54.3L106.8 69.2A3.5999999999999996 3.5999999999999996 0 0 1 108 72V104A3.9000000000000004 3.9000000000000004 0 0 1 106.5 107.1A3.5999999999999996 3.5999999999999996 0 0 1 103.2 107.9L28 92.9V117.5L105.8 156.4A4.2 4.2 0 0 1 108 160V208A20 20 0 0 0 148 208V160A4.2 4.2 0 0 1 150.2 156.4L228 117.5z" />
    <glyph glyph-name="airplane-tilt-thin"
      unicode="&#xEA08;"
      horiz-adv-x="256" d="M211.8 211.8A28.1 28.1 0 0 1 172.2 211.8C172 211.5 171.7 211.3 171.6 211L142.9 180.7L57.4 211.8A4.1000000000000005 4.1000000000000005 0 0 1 53.2 210.8L29.2 186.8A3.9000000000000004 3.9000000000000004 0 0 1 29.8 180.7L97.7000000000001 135.4L78.3 116H56A3.5999999999999996 3.5999999999999996 0 0 1 53.2 114.8L29.2 90.8A3.9000000000000004 3.9000000000000004 0 0 1 28.1 87.1A4 4 0 0 1 30.7 84.2L70.7 70.7L84.2 30.7A4 4 0 0 1 87.1 28.1H88A3.8000000000000003 3.8000000000000003 0 0 1 90.8 29.3L114.8 53.3A3.5999999999999996 3.5999999999999996 0 0 1 116 56V78.2L135.5 95.9L180.7 29.7A4.2 4.2 0 0 1 183.6 28A3.8000000000000003 3.8000000000000003 0 0 1 186.8 29.2L210.8 53.2A4.1000000000000005 4.1000000000000005 0 0 1 211.8 57.4L180.7 142.9L212.4 172.7L213.1 173.6A28.1 28.1 0 0 1 211.8 211.8zM206.1 177.9L205.8 177.5L173.3 146.9A4.1000000000000005 4.1000000000000005 0 0 1 172.2 142.6L203.4 57L184.6 38.2L139.5 104.2A4.3 4.3 0 0 1 136.7 106H136.2A3.9000000000000004 3.9000000000000004 0 0 1 133.5 104.9L109.3 83A4.3 4.3 0 0 1 108 80V57.7L89.7 39.4L77.6 75.1A3.9000000000000004 3.9000000000000004 0 0 1 75.1 77.6L39.4 89.7L57.7 108H80A3.5999999999999996 3.5999999999999996 0 0 1 82.8 109.2L106.8 133.2A3.9000000000000004 3.9000000000000004 0 0 1 106.2 139.3L38.3 184.6L57 203.4L142.6 172.2A4.1000000000000005 4.1000000000000005 0 0 1 146.9 173.3L178.6 206.8L178.9 207.1A20 20 0 0 0 206.1 177.9z" />
    <glyph glyph-name="airplay-thin"
      unicode="&#xEA09;"
      horiz-adv-x="256" d="M131 98.6A3.9000000000000004 3.9000000000000004 0 0 1 125 98.6L77 42.6A3.8000000000000003 3.8000000000000003 0 0 1 76.4 38.3A3.9000000000000004 3.9000000000000004 0 0 1 80 36H176A3.9000000000000004 3.9000000000000004 0 0 1 179.6 38.3A3.8000000000000003 3.8000000000000003 0 0 1 179 42.6zM88.7 44L128 89.9L167.3 44zM228 192V80A20.1 20.1 0 0 0 208 60H192A4 4 0 0 0 192 68H208A12 12 0 0 1 220 80V192A12 12 0 0 1 208 204H48A12 12 0 0 1 36 192V80A12 12 0 0 1 48 68H64A4 4 0 0 0 64 60H48A20.1 20.1 0 0 0 28 80V192A20.1 20.1 0 0 0 48 212H208A20.1 20.1 0 0 0 228 192z" />
    <glyph glyph-name="alarm-thin"
      unicode="&#xEA0A;"
      horiz-adv-x="256" d="M188 128A4 4 0 0 0 184 124H128A4 4 0 0 0 124 128V184A4 4 0 0 0 132 184V132H184A4 4 0 0 0 188 128zM193.1 193.1A92.2 92.2 0 1 0 128 220A91.8 91.8 0 0 0 193.1 193.1zM212 128A84 84 0 0 1 68.6 187.4A84 84 0 1 1 212 128zM232.7 198.7L198.7 232.7A4 4 0 0 1 193.1 232.7A4 4 0 0 1 193.1 227L227 193.1A3.9000000000000004 3.9000000000000004 0 0 1 229.8 191.9A4.2 4.2 0 0 1 232.7 193.1A4 4 0 0 1 232.7 198.7zM62.9 232.7A4 4 0 0 1 57.3 232.7L23.3 198.7A4 4 0 0 1 23.3 193.1A4.2 4.2 0 0 1 26.2 191.9A3.9000000000000004 3.9000000000000004 0 0 1 29 193.1L62.9 227A4 4 0 0 1 62.9 232.7z" />
    <glyph glyph-name="alien-thin"
      unicode="&#xEA0B;"
      horiz-adv-x="256" d="M128 236A92.10000000000001 92.10000000000001 0 0 1 36 144C36 120.8 48.3 90.7 68.8 63.4C84.6 42.4 108.4 20 128 20S171.4 42.4 187.2 63.4C207.7 90.7 220 120.8 220 144A92.10000000000001 92.10000000000001 0 0 1 128 236zM180.8 68.2C162.4 43.8 141.7 28 128 28S93.6 43.8 75.2 68.2S44 122.8 44 144A84 84 0 0 0 212 144C212 122.8 200 93.8 180.8 68.2zM116 116V120A36 36 0 0 1 80 156A12 12 0 0 1 68 144V140A36 36 0 0 1 104 104A12 12 0 0 1 116 116zM108 116A4 4 0 0 0 104 112A28.1 28.1 0 0 0 76 140V144A4 4 0 0 0 80 148A28.1 28.1 0 0 0 108 120zM176 156A36 36 0 0 1 140 120V116A12 12 0 0 1 152 104A36 36 0 0 1 188 140V144A12 12 0 0 1 176 156zM180 140A28.1 28.1 0 0 0 152 112A4 4 0 0 0 148 116V120A28.1 28.1 0 0 0 176 148A4 4 0 0 0 180 144zM148 72A4 4 0 0 0 144 68H112A4 4 0 0 0 112 76H144A4 4 0 0 0 148 72z" />
    <glyph glyph-name="align-bottom-simple-thin"
      unicode="&#xEA0C;"
      horiz-adv-x="256" d="M204 24A4 4 0 0 0 200 20H56A4 4 0 0 0 56 28H200A4 4 0 0 0 204 24zM84 64V216A12 12 0 0 0 96 228H160A12 12 0 0 0 172 216V64A12 12 0 0 0 160 52H96A12 12 0 0 0 84 64zM92 64A4 4 0 0 1 96 60H160A4 4 0 0 1 164 64V216A4 4 0 0 1 160 220H96A4 4 0 0 1 92 216z" />
    <glyph glyph-name="align-bottom-thin"
      unicode="&#xEA0D;"
      horiz-adv-x="256" d="M220 40A4 4 0 0 0 216 36H40A4 4 0 0 0 40 44H216A4 4 0 0 0 220 40zM140 80V176A12 12 0 0 0 152 188H192A12 12 0 0 0 204 176V80A12 12 0 0 0 192 68H152A12 12 0 0 0 140 80zM148 80A4 4 0 0 1 152 76H192A4 4 0 0 1 196 80V176A4 4 0 0 1 192 180H152A4 4 0 0 1 148 176zM52 80V216A12 12 0 0 0 64 228H104A12 12 0 0 0 116 216V80A12 12 0 0 0 104 68H64A12 12 0 0 0 52 80zM60 80A4 4 0 0 1 64 76H104A4 4 0 0 1 108 80V216A4 4 0 0 1 104 220H64A4 4 0 0 1 60 216z" />
    <glyph glyph-name="align-center-horizontal-simple-thin"
      unicode="&#xEA0E;"
      horiz-adv-x="256" d="M208 172H132V208A4 4 0 0 1 124 208V172H48A12 12 0 0 1 36 160V96A12 12 0 0 1 48 84H124V48A4 4 0 0 1 132 48V84H208A12 12 0 0 1 220 96V160A12 12 0 0 1 208 172zM212 96A4 4 0 0 0 208 92H48A4 4 0 0 0 44 96V160A4 4 0 0 0 48 164H208A4 4 0 0 0 212 160z" />
    <glyph glyph-name="align-center-horizontal-thin"
      unicode="&#xEA0F;"
      horiz-adv-x="256" d="M208 116H132V140H184A12 12 0 0 1 196 152V192A12 12 0 0 1 184 204H132V224A4 4 0 0 1 124 224V204H72A12 12 0 0 1 60 192V152A12 12 0 0 1 72 140H124V116H48A12 12 0 0 1 36 104V64A12 12 0 0 1 48 52H124V32A4 4 0 0 1 132 32V52H208A12 12 0 0 1 220 64V104A12 12 0 0 1 208 116zM68 152V192A4 4 0 0 0 72 196H184A4 4 0 0 0 188 192V152A4 4 0 0 0 184 148H72A4 4 0 0 0 68 152zM212 64A4 4 0 0 0 208 60H48A4 4 0 0 0 44 64V104A4 4 0 0 0 48 108H208A4 4 0 0 0 212 104z" />
    <glyph glyph-name="align-center-vertical-simple-thin"
      unicode="&#xEA10;"
      horiz-adv-x="256" d="M208 132H172V208A12 12 0 0 1 160 220H96A12 12 0 0 1 84 208V132H48A4 4 0 0 1 48 124H84V48A12 12 0 0 1 96 36H160A12 12 0 0 1 172 48V124H208A4 4 0 0 1 208 132zM164 48A4 4 0 0 0 160 44H96A4 4 0 0 0 92 48V208A4 4 0 0 0 96 212H160A4 4 0 0 0 164 208z" />
    <glyph glyph-name="align-center-vertical-thin"
      unicode="&#xEA11;"
      horiz-adv-x="256" d="M224 132H204V184A12 12 0 0 1 192 196H152A12 12 0 0 1 140 184V132H116V208A12 12 0 0 1 104 220H64A12 12 0 0 1 52 208V132H32A4 4 0 0 1 32 124H52V48A12 12 0 0 1 64 36H104A12 12 0 0 1 116 48V124H140V72A12 12 0 0 1 152 60H192A12 12 0 0 1 204 72V124H224A4 4 0 0 1 224 132zM108 48A4 4 0 0 0 104 44H64A4 4 0 0 0 60 48V208A4 4 0 0 0 64 212H104A4 4 0 0 0 108 208zM196 72A4 4 0 0 0 192 68H152A4 4 0 0 0 148 72V184A4 4 0 0 0 152 188H192A4 4 0 0 0 196 184z" />
    <glyph glyph-name="align-left-simple-thin"
      unicode="&#xEA12;"
      horiz-adv-x="256" d="M36 200V56A4 4 0 0 0 28 56V200A4 4 0 0 0 36 200zM236 160V96A12 12 0 0 0 224 84H72A12 12 0 0 0 60 96V160A12 12 0 0 0 72 172H224A12 12 0 0 0 236 160zM228 160A4 4 0 0 1 224 164H72A4 4 0 0 1 68 160V96A4 4 0 0 1 72 92H224A4 4 0 0 1 228 96z" />
    <glyph glyph-name="align-left-thin"
      unicode="&#xEA13;"
      horiz-adv-x="256" d="M44 216V40A4 4 0 0 0 36 40V216A4 4 0 0 0 44 216zM68 152V192A12 12 0 0 0 80 204H176A12 12 0 0 0 188 192V152A12 12 0 0 0 176 140H80A12 12 0 0 0 68 152zM76 152A4 4 0 0 1 80 148H176A4 4 0 0 1 180 152V192A4 4 0 0 1 176 196H80A4 4 0 0 1 76 192zM228 104V64A12 12 0 0 0 216 52H80A12 12 0 0 0 68 64V104A12 12 0 0 0 80 116H216A12 12 0 0 0 228 104zM220 104A4 4 0 0 1 216 108H80A4 4 0 0 1 76 104V64A4 4 0 0 1 80 60H216A4 4 0 0 1 220 64z" />
    <glyph glyph-name="align-right-simple-thin"
      unicode="&#xEA14;"
      horiz-adv-x="256" d="M228 200V56A4 4 0 0 0 220 56V200A4 4 0 0 0 228 200zM196 160V96A12 12 0 0 0 184 84H32A12 12 0 0 0 20 96V160A12 12 0 0 0 32 172H184A12 12 0 0 0 196 160zM188 160A4 4 0 0 1 184 164H32A4 4 0 0 1 28 160V96A4 4 0 0 1 32 92H184A4 4 0 0 1 188 96z" />
    <glyph glyph-name="align-right-thin"
      unicode="&#xEA15;"
      horiz-adv-x="256" d="M220 216V40A4 4 0 0 0 212 40V216A4 4 0 0 0 220 216zM188 192V152A12 12 0 0 0 176 140H80A12 12 0 0 0 68 152V192A12 12 0 0 0 80 204H176A12 12 0 0 0 188 192zM180 192A4 4 0 0 1 176 196H80A4 4 0 0 1 76 192V152A4 4 0 0 1 80 148H176A4 4 0 0 1 180 152zM188 104V64A12 12 0 0 0 176 52H40A12 12 0 0 0 28 64V104A12 12 0 0 0 40 116H176A12 12 0 0 0 188 104zM180 104A4 4 0 0 1 176 108H40A4 4 0 0 1 36 104V64A4 4 0 0 1 40 60H176A4 4 0 0 1 180 64z" />
    <glyph glyph-name="align-top-simple-thin"
      unicode="&#xEA16;"
      horiz-adv-x="256" d="M204 224A4 4 0 0 0 200 220H56A4 4 0 0 0 56 228H200A4 4 0 0 0 204 224zM172 184V32A12 12 0 0 0 160 20H96A12 12 0 0 0 84 32V184A12 12 0 0 0 96 196H160A12 12 0 0 0 172 184zM164 184A4 4 0 0 1 160 188H96A4 4 0 0 1 92 184V32A4 4 0 0 1 96 28H160A4 4 0 0 1 164 32z" />
    <glyph glyph-name="align-top-thin"
      unicode="&#xEA17;"
      horiz-adv-x="256" d="M220 216A4 4 0 0 0 216 212H40A4 4 0 0 0 40 220H216A4 4 0 0 0 220 216zM204 176V80A12 12 0 0 0 192 68H152A12 12 0 0 0 140 80V176A12 12 0 0 0 152 188H192A12 12 0 0 0 204 176zM196 176A4 4 0 0 1 192 180H152A4 4 0 0 1 148 176V80A4 4 0 0 1 152 76H192A4 4 0 0 1 196 80zM116 176V40A12 12 0 0 0 104 28H64A12 12 0 0 0 52 40V176A12 12 0 0 0 64 188H104A12 12 0 0 0 116 176zM108 176A4 4 0 0 1 104 180H64A4 4 0 0 1 60 176V40A4 4 0 0 1 64 36H104A4 4 0 0 1 108 40z" />
    <glyph glyph-name="anchor-simple-thin"
      unicode="&#xEA18;"
      horiz-adv-x="256" d="M224 140H200A4 4 0 0 1 200 132H219.9A92 92 0 0 0 132 44.1V164.3A28 28 0 1 1 124 164.3V44.1A92 92 0 0 0 36.1 132H56A4 4 0 0 1 56 140H32A4 4 0 0 1 28 136A100 100 0 0 1 228 136A4 4 0 0 1 224 140zM108 192A20 20 0 1 0 128 172A20.1 20.1 0 0 0 108 192z" />
    <glyph glyph-name="anchor-thin"
      unicode="&#xEA19;"
      horiz-adv-x="256" d="M216 116A4 4 0 0 1 212 112A44 44 0 0 0 168 68A44 44 0 0 1 132 49.3V140H168A4 4 0 0 1 168 148H132V180.3A24 24 0 1 1 124 180.3V148H88A4 4 0 0 1 88 140H124V49.3A44 44 0 0 1 88 68A44 44 0 0 0 44 112A4 4 0 0 1 36 112A52 52 0 0 1 88 60A36 36 0 0 0 124 24A4 4 0 0 1 132 24A36 36 0 0 0 168 60A52 52 0 0 1 220 112A4 4 0 0 1 216 116zM112 204A16 16 0 1 0 128 188A16 16 0 0 0 112 204z" />
    <glyph glyph-name="android-logo-thin"
      unicode="&#xEA1A;"
      horiz-adv-x="256" d="M172 100A8 8 0 1 0 164 108A8 8 0 0 0 172 100zM92 108A8 8 0 1 1 100 100A8 8 0 0 1 92 108zM236 88V64A12 12 0 0 0 224 52H32A12 12 0 0 0 20 64V86.9A109.6 109.6 0 0 0 57.2 169.2L29.2 197.2A4 4 0 0 0 34.8 202.8L63.4 174.2A106.7 106.7 0 0 0 127.6 196H128A107.19999999999999 107.19999999999999 0 0 0 192.8 174.4L221.2 202.8A4 4 0 1 0 226.8 197.2L199 169.4L204.2 164.5A107.29999999999998 107.29999999999998 0 0 0 236 88zM228 88A100 100 0 0 1 128 188H127.6C72.7 187.8 28 142.4 28 86.9V64A4 4 0 0 1 32 60H224A4 4 0 0 1 228 64z" />
    <glyph glyph-name="angular-logo-thin"
      unicode="&#xEA1B;"
      horiz-adv-x="256" d="M225.5 187.7L129.5 227.7A3.9000000000000004 3.9000000000000004 0 0 1 126.5 227.7L30.5 187.7A4 4 0 0 1 28 183.5L44 63.5A4.2 4.2 0 0 1 46.2 60.4L126.2 20.4A4.2 4.2 0 0 1 129.8 20.4L209.8 60.4A4.2 4.2 0 0 1 212 63.5L228 183.5A4 4 0 0 1 225.5 187.7zM204.3 66.6L128 28.5L51.7 66.6L36.4 181.5L128 219.7L219.6 181.5zM124.4 169.8L88.4 97.8A4 4 0 0 1 95.6 94.2L105.1 113.3H150.9L160.4 94.2A4 4 0 0 1 164 92A3.9000000000000004 3.9000000000000004 0 0 1 165.8 92.4A4 4 0 0 1 167.6 97.8L131.6 169.8000000000001A4 4 0 0 1 124.4 169.8000000000001zM146.9 121.3H109.1L128 159.1z" />
    <glyph glyph-name="aperture-thin"
      unicode="&#xEA1C;"
      horiz-adv-x="256" d="M228 128A100 100 0 0 1 57.3 198.7A100 100 0 0 1 128 28A100 100 0 0 1 228 128zM209.1 84.4L148.1 95.6L210.4 169A92.5 92.5 0 0 0 209.1 84.4zM106.9 103.1L95.9 133.9L117 158.8L149.1 152.9L160.1 122.1L139 97.2zM206.2 176.4L166.1 129.2L133.7 219.8A91.70000000000002 91.70000000000002 0 0 0 193.1 193.1A95.4 95.4 0 0 0 206.2 176.4zM62.9 193.1A91.6 91.6 0 0 0 125.2 219.9L146 161.6L51.3 178.9A104.3 104.3 0 0 0 62.9 193.1zM46.9 171.6L107.9 160.4L45.6 87A92.5 92.5 0 0 0 46.9 171.6zM49.8 79.6L89.9 126.8L122.3 36.2A91.70000000000002 91.70000000000002 0 0 0 62.9 62.9A95.4 95.4 0 0 0 49.8 79.6zM130.8 36.1L110 94.4L139.8 89H139.9L204.7 77.2A104.3 104.3 0 0 0 193.1 63A91.6 91.6 0 0 0 130.8 36.1z" />
    <glyph glyph-name="app-store-logo-thin"
      unicode="&#xEA1D;"
      horiz-adv-x="256" d="M60.9 54L51.4 38A3.8000000000000003 3.8000000000000003 0 0 0 48 36A3.5999999999999996 3.5999999999999996 0 0 0 46 36.6A3.8000000000000003 3.8000000000000003 0 0 0 44.6 42L54 58A4 4 0 0 0 60.9 54zM232 92H181.9L150 146A4 4 0 1 1 143.1 141.9L204.6 38A3.8000000000000003 3.8000000000000003 0 0 1 208 36A3.5999999999999996 3.5999999999999996 0 0 1 210 36.6A3.8000000000000003 3.8000000000000003 0 0 1 211.4 42L186.6 84H232A4 4 0 0 1 232 92zM142.5 92H83.4L155.4 214A3.9000000000000004 3.9000000000000004 0 1 1 148.6 218L128 183.2L107.4 218A3.9000000000000004 3.9000000000000004 0 1 1 100.6 214L123.4 175.4L74.1 92H24A4 4 0 0 1 24 84H142.5A4 4 0 0 1 142.5 92z" />
    <glyph glyph-name="app-window-thin"
      unicode="&#xEA1E;"
      horiz-adv-x="256" d="M216 212H40A12 12 0 0 1 28 200V56A12 12 0 0 1 40 44H216A12 12 0 0 1 228 56V200A12 12 0 0 1 216 212zM220 56A4 4 0 0 0 216 52H40A4 4 0 0 0 36 56V200A4 4 0 0 0 40 204H216A4 4 0 0 0 220 200zM76 172A8 8 0 1 0 68 180A8 8 0 0 0 76 172zM116 172A8 8 0 1 0 108 180A8 8 0 0 0 116 172z" />
    <glyph glyph-name="apple-logo-thin"
      unicode="&#xEA1F;"
      horiz-adv-x="256" d="M134.4 224.9A36.2 36.2 0 0 0 168 248A4 4 0 0 0 168 240A28.1 28.1 0 0 1 141.9 222.1A4.2 4.2 0 0 0 138.1 219.5A3.5 3.5 0 0 0 136.7 219.8A3.9000000000000004 3.9000000000000004 0 0 0 134.4 224.9zM222.2 91.6C208.8 58.8 184.9 36 164 36H92C62 36 24 85 24 140A64 64 0 0 0 128 190A64.1 64.1 0 0 0 218.3 179.6A4.1000000000000005 4.1000000000000005 0 0 0 219.1 176.4A3.8000000000000003 3.8000000000000003 0 0 0 217.2 173.7A44 44 0 0 1 220.3 96.7A4.1000000000000005 4.1000000000000005 0 0 0 222.2 91.6zM213.4 91.3A52 52 0 0 0 209.2 177.9A56 56 0 0 1 130.7 181.8A4 4 0 0 0 125.3 181.7A55.900000000000006 55.900000000000006 0 0 1 32 140C32 116.8 39.6 92.3 52.8 72.7C64.8 55 79.8 44 92 44H164C180.8 44 201.2 63.7 213.4 91.3z" />
    <glyph glyph-name="apple-podcasts-logo-thin"
      unicode="&#xEA20;"
      horiz-adv-x="256" d="M146.6 115.1A28 28 0 1 1 109.4 115.1A20 20 0 0 1 100.1 108.7A19.6 19.6 0 0 1 95.9 92.1L105.5 44.1A20.1 20.1 0 0 1 125.1 28H130.9A20.1 20.1 0 0 1 150.5 44.1L160.1 92.1A19.6 19.6 0 0 1 155.9 108.7A20 20 0 0 1 146.6 115.1zM108 136A20 20 0 1 0 128 116A20.1 20.1 0 0 0 108 136zM152.2 93.6L142.6 45.6A12 12 0 0 0 130.9 36H125.1A12 12 0 0 0 113.4 45.6L103.8 93.6A11.6 11.6 0 0 0 106.2 103.6A12 12 0 0 0 115.5 108H140.5A12 12 0 0 0 149.8 103.6A11.6 11.6 0 0 0 152.2 93.6zM188 128A60 60 0 0 1 68 128A61.4 61.4 0 0 1 72 106.3A4 4 0 0 0 69.8 101.1L68.3 100.8A4 4 0 0 0 64.6 103.4A66.3 66.3 0 0 0 60 128A68 68 0 0 0 196 128A66.3 66.3 0 0 0 191.4 103.4A4 4 0 1 0 184 106.3A61.4 61.4 0 0 1 188 128zM228 128A99.7 99.7 0 0 0 181.8 43.7A4.2 4.2 0 0 0 179.7 43.1A3.8000000000000003 3.8000000000000003 0 0 0 176.3 44.9A3.9000000000000004 3.9000000000000004 0 0 0 177.5 50.4A92 92 0 1 1 78.5 50.4A4 4 0 1 0 74.2 43.7A100 100 0 1 0 228 128z" />
    <glyph glyph-name="archive-box-thin"
      unicode="&#xEA21;"
      horiz-adv-x="256" d="M219.6 185.8L203.6 217.8A4.2 4.2 0 0 1 200 220H56A4.2 4.2 0 0 1 52.4 217.8L36.4 185.8A3.9000000000000004 3.9000000000000004 0 0 1 36 184V48A12 12 0 0 1 48 36H208A12 12 0 0 1 220 48V184A3.9000000000000004 3.9000000000000004 0 0 1 219.6 185.8zM58.5 212H197.5L209.5 188H46.5zM208 44H48A4 4 0 0 0 44 48V180H212V48A4 4 0 0 0 208 44zM164.8 108.8A4.2 4.2 0 0 0 164.8 103.1L130.8 69.2A3.9000000000000004 3.9000000000000004 0 0 0 125.2 69.2L91.2 103.1A4 4 0 0 0 96.9 108.8L124 81.7V152A4 4 0 0 0 132 152V81.7L159.1 108.8A4.2 4.2 0 0 0 164.8 108.8z" />
    <glyph glyph-name="archive-thin"
      unicode="&#xEA22;"
      horiz-adv-x="256" d="M224 204H32A12 12 0 0 1 20 192V168A12 12 0 0 1 32 156H36V64A12 12 0 0 1 48 52H208A12 12 0 0 1 220 64V156H224A12 12 0 0 1 236 168V192A12 12 0 0 1 224 204zM212 64A4 4 0 0 0 208 60H48A4 4 0 0 0 44 64V156H212zM228 168A4 4 0 0 0 224 164H32A4 4 0 0 0 28 168V192A4 4 0 0 0 32 196H224A4 4 0 0 0 228 192zM100 120A4 4 0 0 0 104 124H152A4 4 0 0 0 152 116H104A4 4 0 0 0 100 120z" />
    <glyph glyph-name="archive-tray-thin"
      unicode="&#xEA23;"
      horiz-adv-x="256" d="M208 220H48A12 12 0 0 1 36 208V48A12 12 0 0 1 48 36H208A12 12 0 0 1 220 48V208A12 12 0 0 1 208 220zM48 212H208A4 4 0 0 0 212 208V100H179.3A11.9 11.9 0 0 1 170.8 96.5L151.5 77.2A3.8000000000000003 3.8000000000000003 0 0 0 148.7 76H107.3A3.5999999999999996 3.5999999999999996 0 0 0 104.5 77.2L85.2 96.5A11.9 11.9 0 0 1 76.7 100H44V208A4 4 0 0 0 48 212zM208 44H48A4 4 0 0 0 44 48V92H76.7A3.8000000000000003 3.8000000000000003 0 0 0 79.5 90.8L98.8 71.5A11.9 11.9 0 0 1 107.3 68H148.7A11.9 11.9 0 0 1 157.2 71.5L176.5 90.8A3.5999999999999996 3.5999999999999996 0 0 0 179.3 92H212V48A4 4 0 0 0 208 44zM91.2 135.1A4 4 0 0 0 96.9 140.8L124 113.7V184A4 4 0 0 0 132 184V113.7L159.1 140.8A4 4 0 0 0 164.8 135.1L130.8 101.2L130.2 100.7H130.1L129.5 100.4H126.5L125.9 100.7H125.8L125.2 101.2z" />
    <glyph glyph-name="armchair-thin"
      unicode="&#xEA24;"
      horiz-adv-x="256" d="M212 163.8V184A36 36 0 0 1 176 220H80A36 36 0 0 1 44 184V163.8A36 36 0 0 1 44 92.2V56A12 12 0 0 1 56 44H200A12 12 0 0 1 212 56V92.2A36 36 0 0 1 212 163.8zM80 212H176A28.1 28.1 0 0 0 204 184V163.8A36.1 36.1 0 0 1 172 128V124H84V128A36.1 36.1 0 0 1 52 163.8V184A28.1 28.1 0 0 0 80 212zM208.3 100H208A4 4 0 0 1 204 96V56A4 4 0 0 0 200 52H56A4 4 0 0 0 52 56V96A4 4 0 0 1 48 100H47.7A28 28 0 1 0 76 128V88A4 4 0 0 1 84 88V116H172V88A4 4 0 0 1 180 88V128A28 28 0 1 0 208.3 100z" />
    <glyph glyph-name="arrow-arc-left-thin"
      unicode="&#xEA25;"
      horiz-adv-x="256" d="M228 72A4 4 0 0 0 220 72A92.10000000000001 92.10000000000001 0 0 1 62.9 137.1L37.8 111.9H92.1A4 4 0 0 0 92.1 103.9H28.1A4 4 0 0 0 24.1 107.9V171.9A4 4 0 0 0 32.1 171.9V117.5L57.3 142.7A100 100 0 0 0 228 72z" />
    <glyph glyph-name="arrow-arc-right-thin"
      unicode="&#xEA26;"
      horiz-adv-x="256" d="M231.9 171.9V107.9A4 4 0 0 0 227.9 103.9H163.9A4 4 0 0 0 163.9 111.9H218.2L193.1 137.1A92 92 0 0 1 36 72A4 4 0 0 0 28 72A100 100 0 0 0 198.7 142.7L223.9 117.5V171.9A4 4 0 0 0 231.9 171.9z" />
    <glyph glyph-name="arrow-bend-double-up-left-thin"
      unicode="&#xEA27;"
      horiz-adv-x="256" d="M82.8 106.8A3.9000000000000004 3.9000000000000004 0 0 0 82.8 101.2A3.9000000000000004 3.9000000000000004 0 0 0 77.2 101.2L29.2 149.2A3.9000000000000004 3.9000000000000004 0 0 0 29.2 154.8L77.2 202.8A4 4 0 0 0 82.8 197.2L37.7 152zM128 156H89.7L130.8 197.2A4 4 0 0 1 125.2 202.8L77.2 154.8A3.9000000000000004 3.9000000000000004 0 0 1 77.2 149.2L125.2 101.2A3.9000000000000004 3.9000000000000004 0 0 1 130.8 101.2A3.9000000000000004 3.9000000000000004 0 0 1 130.8 106.8L89.7 148H128A92.10000000000001 92.10000000000001 0 0 0 220 56A4 4 0 0 1 228 56A100.2 100.2 0 0 1 128 156z" />
    <glyph glyph-name="arrow-bend-double-up-right-thin"
      unicode="&#xEA28;"
      horiz-adv-x="256" d="M226.8 149.2L178.8 101.2A3.9000000000000004 3.9000000000000004 0 0 0 173.2 101.2A3.9000000000000004 3.9000000000000004 0 0 0 173.2 106.8L218.3 152L173.2 197.2A4 4 0 0 0 178.8 202.8L226.8 154.8A3.9000000000000004 3.9000000000000004 0 0 0 226.8 149.2zM178.8 154.8L130.8 202.8A4 4 0 1 1 125.2 197.2L166.3 156H128A100.2 100.2 0 0 1 28 56A4 4 0 0 1 36 56A92.10000000000001 92.10000000000001 0 0 0 128 148H166.3L125.2 106.8A3.9000000000000004 3.9000000000000004 0 0 1 125.2 101.2A3.9000000000000004 3.9000000000000004 0 0 1 130.8 101.2L178.8 149.2A3.9000000000000004 3.9000000000000004 0 0 1 178.8 154.8z" />
    <glyph glyph-name="arrow-bend-down-left-thin"
      unicode="&#xEA29;"
      horiz-adv-x="256" d="M228 200A100.2 100.2 0 0 0 128 100H41.7L82.8 58.8A3.9000000000000004 3.9000000000000004 0 0 0 82.8 53.2A3.9000000000000004 3.9000000000000004 0 0 0 77.2 53.2L29.2 101.2A3.9000000000000004 3.9000000000000004 0 0 0 29.2 106.8L77.2 154.8A4 4 0 0 0 82.8 149.2L41.7 108H128A92.10000000000001 92.10000000000001 0 0 1 220 200A4 4 0 0 0 228 200z" />
    <glyph glyph-name="arrow-bend-down-right-thin"
      unicode="&#xEA2A;"
      horiz-adv-x="256" d="M226.8 101.2L178.8 53.2A3.9000000000000004 3.9000000000000004 0 0 0 173.2 53.2A3.9000000000000004 3.9000000000000004 0 0 0 173.2 58.8L214.3 100H128A100.2 100.2 0 0 0 28 200A4 4 0 0 0 36 200A92.10000000000001 92.10000000000001 0 0 1 128 108H214.3L173.2 149.2A4 4 0 0 0 178.8 154.8L226.8 106.8A3.9000000000000004 3.9000000000000004 0 0 0 226.8 101.2z" />
    <glyph glyph-name="arrow-bend-left-down-thin"
      unicode="&#xEA2B;"
      horiz-adv-x="256" d="M204 224A4 4 0 0 0 200 220A92.10000000000001 92.10000000000001 0 0 1 108 128V41.7L149.2 82.8A4 4 0 0 0 154.8 77.2L106.8 29.2A3.9000000000000004 3.9000000000000004 0 0 0 101.2 29.2L53.2 77.2A4 4 0 0 0 58.8 82.8L100 41.7V128A100.2 100.2 0 0 0 200 228A4 4 0 0 0 204 224z" />
    <glyph glyph-name="arrow-bend-left-up-thin"
      unicode="&#xEA2C;"
      horiz-adv-x="256" d="M204 32A4 4 0 0 0 200 28A100.2 100.2 0 0 0 100 128V214.3L58.8 173.2A4 4 0 0 0 53.2 178.8L101.2 226.8A3.9000000000000004 3.9000000000000004 0 0 0 106.8 226.8L154.8 178.8A3.9000000000000004 3.9000000000000004 0 0 0 154.8 173.2A3.9000000000000004 3.9000000000000004 0 0 0 149.2 173.2L108 214.3V128A92.10000000000001 92.10000000000001 0 0 1 200 36A4 4 0 0 0 204 32z" />
    <glyph glyph-name="arrow-bend-right-down-thin"
      unicode="&#xEA2D;"
      horiz-adv-x="256" d="M202.8 77.2L154.8 29.2A3.9000000000000004 3.9000000000000004 0 0 0 149.2 29.2L101.2 77.2A4 4 0 0 0 106.8 82.8L148 41.7V128A92.10000000000001 92.10000000000001 0 0 1 56 220A4 4 0 0 0 56 228A100.2 100.2 0 0 0 156 128V41.7L197.2 82.8A4 4 0 0 0 202.8 77.2z" />
    <glyph glyph-name="arrow-bend-right-up-thin"
      unicode="&#xEA2E;"
      horiz-adv-x="256" d="M202.8 173.2A3.9000000000000004 3.9000000000000004 0 0 0 197.2 173.2L156 214.3V128A100.2 100.2 0 0 0 56 28A4 4 0 0 0 56 36A92.10000000000001 92.10000000000001 0 0 1 148 128V214.3L106.8 173.2A4 4 0 0 0 101.2 178.8L149.2 226.8A3.9000000000000004 3.9000000000000004 0 0 0 154.8 226.8L202.8 178.8A3.9000000000000004 3.9000000000000004 0 0 0 202.8 173.2z" />
    <glyph glyph-name="arrow-bend-up-left-thin"
      unicode="&#xEA2F;"
      horiz-adv-x="256" d="M228 56A4 4 0 0 0 220 56A92.10000000000001 92.10000000000001 0 0 1 128 148H41.7L82.8 106.8A3.9000000000000004 3.9000000000000004 0 0 0 82.8 101.2A3.9000000000000004 3.9000000000000004 0 0 0 77.2 101.2L29.2 149.2A3.9000000000000004 3.9000000000000004 0 0 0 29.2 154.8L77.2 202.8A4 4 0 0 0 82.8 197.2L41.7 156H128A100.2 100.2 0 0 0 228 56z" />
    <glyph glyph-name="arrow-bend-up-right-thin"
      unicode="&#xEA30;"
      horiz-adv-x="256" d="M226.8 149.2L178.8 101.2A3.9000000000000004 3.9000000000000004 0 0 0 173.2 101.2A3.9000000000000004 3.9000000000000004 0 0 0 173.2 106.8L214.3 148H128A92.10000000000001 92.10000000000001 0 0 1 36 56A4 4 0 0 0 28 56A100.2 100.2 0 0 0 128 156H214.3L173.2 197.2A4 4 0 0 0 178.8 202.8L226.8 154.8A3.9000000000000004 3.9000000000000004 0 0 0 226.8 149.2z" />
    <glyph glyph-name="arrow-circle-down-left-thin"
      unicode="&#xEA31;"
      horiz-adv-x="256" d="M128 228A100 100 0 1 1 228 128A100.2 100.2 0 0 1 128 228zM128 36A92 92 0 1 0 220 128A92.10000000000001 92.10000000000001 0 0 0 128 36zM158.8 158.8A3.9000000000000004 3.9000000000000004 0 0 0 158.8 153.2L109.7 104H148A4 4 0 0 0 148 96H100A4 4 0 0 0 96 100V148A4 4 0 0 0 104 148V109.7L153.2 158.8A3.9000000000000004 3.9000000000000004 0 0 0 158.8 158.8z" />
    <glyph glyph-name="arrow-circle-down-right-thin"
      unicode="&#xEA32;"
      horiz-adv-x="256" d="M198.7 198.7A100 100 0 0 1 57.3 57.3A100 100 0 0 1 198.7 198.7zM193.1 62.9A92 92 0 1 0 193.1 193.1A91.8 91.8 0 0 0 193.1 62.9zM160 148V100A4 4 0 0 0 156 96H108A4 4 0 0 0 108 104H146.3L97.2 153.2A4 4 0 0 0 102.8 158.8L152 109.7V148A4 4 0 0 0 160 148z" />
    <glyph glyph-name="arrow-circle-down-thin"
      unicode="&#xEA33;"
      horiz-adv-x="256" d="M128 228A100 100 0 1 1 228 128A100.2 100.2 0 0 1 128 228zM128 36A92 92 0 1 0 220 128A92.10000000000001 92.10000000000001 0 0 0 128 36zM164.8 124.8A4.2 4.2 0 0 0 164.8 119.1L130.8 85.2A3.9000000000000004 3.9000000000000004 0 0 0 125.2 85.2L91.2 119.1A4 4 0 0 0 96.9 124.8L124 97.7V168A4 4 0 0 0 132 168V97.7L159.1 124.8A4.2 4.2 0 0 0 164.8 124.8z" />
    <glyph glyph-name="arrow-circle-left-thin"
      unicode="&#xEA34;"
      horiz-adv-x="256" d="M128 228A100 100 0 1 1 228 128A100.2 100.2 0 0 1 128 228zM128 36A92 92 0 1 0 220 128A92.10000000000001 92.10000000000001 0 0 0 128 36zM172 128A4 4 0 0 0 168 124H97.7L124.8 96.9A4.2 4.2 0 0 0 124.8 91.2A3.9000000000000004 3.9000000000000004 0 0 0 121.9 90.1A3.8000000000000003 3.8000000000000003 0 0 0 119.1 91.2L85.2 125.2A3.9000000000000004 3.9000000000000004 0 0 0 85.2 130.8L119.1 164.8A4 4 0 0 0 124.8 159.1L97.7 132H168A4 4 0 0 0 172 128z" />
    <glyph glyph-name="arrow-circle-right-thin"
      unicode="&#xEA35;"
      horiz-adv-x="256" d="M128 228A100 100 0 1 1 228 128A100.2 100.2 0 0 1 128 228zM128 36A92 92 0 1 0 220 128A92.10000000000001 92.10000000000001 0 0 0 128 36zM170.8 130.8A3.9000000000000004 3.9000000000000004 0 0 0 170.8 125.2L136.9 91.2A3.8000000000000003 3.8000000000000003 0 0 0 134.1 90.1A3.9000000000000004 3.9000000000000004 0 0 0 131.2 91.2A4.2 4.2 0 0 0 131.2 96.9L158.3 124H88A4 4 0 0 0 88 132H158.3L131.2 159.1A4 4 0 0 0 136.9 164.8z" />
    <glyph glyph-name="arrow-circle-up-left-thin"
      unicode="&#xEA36;"
      horiz-adv-x="256" d="M128 228A100 100 0 1 1 228 128A100.2 100.2 0 0 1 128 228zM128 36A92 92 0 1 0 220 128A92.10000000000001 92.10000000000001 0 0 0 128 36zM158.8 102.8A3.9000000000000004 3.9000000000000004 0 0 0 158.8 97.2A3.9000000000000004 3.9000000000000004 0 0 0 153.2 97.2L104 146.3V108A4 4 0 0 0 96 108V156A4 4 0 0 0 100 160H148A4 4 0 0 0 148 152H109.7z" />
    <glyph glyph-name="arrow-circle-up-right-thin"
      unicode="&#xEA37;"
      horiz-adv-x="256" d="M128 228A100 100 0 1 1 228 128A100.2 100.2 0 0 1 128 228zM128 36A92 92 0 1 0 220 128A92.10000000000001 92.10000000000001 0 0 0 128 36zM160 156V108A4 4 0 0 0 152 108V146.3L102.8 97.2A3.9000000000000004 3.9000000000000004 0 0 0 97.2 97.2A3.9000000000000004 3.9000000000000004 0 0 0 97.2 102.8L146.3 152H108A4 4 0 0 0 108 160H156A4 4 0 0 0 160 156z" />
    <glyph glyph-name="arrow-circle-up-thin"
      unicode="&#xEA38;"
      horiz-adv-x="256" d="M128 228A100 100 0 1 1 228 128A100.2 100.2 0 0 1 128 228zM128 36A92 92 0 1 0 220 128A92.10000000000001 92.10000000000001 0 0 0 128 36zM164.8 136.9A4.2 4.2 0 0 0 164.8 131.2A3.9000000000000004 3.9000000000000004 0 0 0 161.9 130.1A3.8000000000000003 3.8000000000000003 0 0 0 159.1 131.2L132 158.3V88A4 4 0 0 0 124 88V158.3L96.9 131.2A4 4 0 0 0 91.2 136.9L125.2 170.8A3.9000000000000004 3.9000000000000004 0 0 0 130.8 170.8z" />
    <glyph glyph-name="arrow-clockwise-thin"
      unicode="&#xEA39;"
      horiz-adv-x="256" d="M228.2 204.3V156.3A4 4 0 0 0 224.2 152.3H176.2A4 4 0 0 0 176.2 160.3H214.5L187.4 187.4A84 84 0 1 1 187.4 68.6A4 4 0 0 0 193.1 68.6A4.2 4.2 0 0 0 193.1 62.9A92.10000000000001 92.10000000000001 0 1 0 193.1 193.1L220.2 165.9V204.3A4 4 0 1 0 228.2 204.3z" />
    <glyph glyph-name="arrow-counter-clockwise-thin"
      unicode="&#xEA3A;"
      horiz-adv-x="256" d="M220 128A92.10000000000001 92.10000000000001 0 0 0 62.9 62.9A4.2 4.2 0 0 0 62.9 68.6A4 4 0 0 0 68.6 68.6A84 84 0 1 1 68.6 187.4L41.5 160.3H79.8A4 4 0 0 0 79.8 152.3H31.8A4 4 0 0 0 27.8 156.3V204.3A4 4 0 1 0 35.8 204.3V165.9L62.9 193.1A92 92 0 0 0 220 128z" />
    <glyph glyph-name="arrow-down-left-thin"
      unicode="&#xEA3B;"
      horiz-adv-x="256" d="M194.8 189.2L73.7 68H168A4 4 0 0 0 168 60H64A4 4 0 0 0 60 64V168A4 4 0 0 0 68 168V73.7L189.2 194.8A4 4 0 1 0 194.8 189.2z" />
    <glyph glyph-name="arrow-down-right-thin"
      unicode="&#xEA3C;"
      horiz-adv-x="256" d="M196 168V64A4 4 0 0 0 192 60H88A4 4 0 0 0 88 68H182.3L61.2 189.2A4 4 0 0 0 66.8 194.8L188 73.7V168A4 4 0 0 0 196 168z" />
    <glyph glyph-name="arrow-down-thin"
      unicode="&#xEA3D;"
      horiz-adv-x="256" d="M202.8 109.2L130.8 37.2A3.9000000000000004 3.9000000000000004 0 0 0 125.2 37.2L53.2 109.2A4 4 0 0 0 58.8 114.8L124 49.7V216A4 4 0 0 0 132 216V49.7L197.2000000000001 114.8A4 4 0 0 0 202.8000000000001 109.2z" />
    <glyph glyph-name="arrow-elbow-down-left-thin"
      unicode="&#xEA3E;"
      horiz-adv-x="256" d="M196 224V80A4 4 0 0 0 192 76H57.7L98.8 34.8A3.9000000000000004 3.9000000000000004 0 0 0 98.8 29.2A3.9000000000000004 3.9000000000000004 0 0 0 93.2 29.2L45.2 77.2A3.9000000000000004 3.9000000000000004 0 0 0 45.2 82.8L93.2 130.8A4 4 0 1 0 98.8 125.2L57.7 84H188V224A4 4 0 0 0 196 224z" />
    <glyph glyph-name="arrow-elbow-down-right-thin"
      unicode="&#xEA3F;"
      horiz-adv-x="256" d="M210.8 77.2L162.8 29.2A3.9000000000000004 3.9000000000000004 0 0 0 157.2 29.2A3.9000000000000004 3.9000000000000004 0 0 0 157.2 34.8L198.3 76H64A4 4 0 0 0 60 80V224A4 4 0 0 0 68 224V84H198.3L157.2 125.2A4 4 0 1 0 162.8 130.8L210.8 82.8A3.9000000000000004 3.9000000000000004 0 0 0 210.8 77.2z" />
    <glyph glyph-name="arrow-elbow-left-down-thin"
      unicode="&#xEA40;"
      horiz-adv-x="256" d="M228 192A4 4 0 0 0 224 188H84V57.7L125.2 98.8A4 4 0 0 0 130.8 93.2L82.8 45.2A3.9000000000000004 3.9000000000000004 0 0 0 77.2 45.2L29.2 93.2A4 4 0 0 0 34.8 98.8L76 57.7V192A4 4 0 0 0 80 196H224A4 4 0 0 0 228 192z" />
    <glyph glyph-name="arrow-elbow-left-thin"
      unicode="&#xEA41;"
      horiz-adv-x="256" d="M234.8 157.2L138.8 61.2A3.9000000000000004 3.9000000000000004 0 0 0 133.2 61.2L28 166.3V104A4 4 0 0 0 20 104V176A4 4 0 0 0 24 180H96A4 4 0 0 0 96 172H33.7L136 69.7L229.2 162.8A4 4 0 1 0 234.8 157.2z" />
    <glyph glyph-name="arrow-elbow-left-up-thin"
      unicode="&#xEA42;"
      horiz-adv-x="256" d="M228 64A4 4 0 0 0 224 60H80A4 4 0 0 0 76 64V198.3L34.8 157.2A4 4 0 0 0 29.2 162.8L77.2 210.8A3.9000000000000004 3.9000000000000004 0 0 0 82.8 210.8L130.8 162.8A3.9000000000000004 3.9000000000000004 0 0 0 130.8 157.2A3.9000000000000004 3.9000000000000004 0 0 0 125.2 157.2L84 198.3V68H224A4 4 0 0 0 228 64z" />
    <glyph glyph-name="arrow-elbow-right-down-thin"
      unicode="&#xEA43;"
      horiz-adv-x="256" d="M226.8 93.2L178.8 45.2A3.9000000000000004 3.9000000000000004 0 0 0 173.2 45.2L125.2 93.2A4 4 0 1 0 130.8 98.8L172 57.7V188H32A4 4 0 0 0 32 196H176A4 4 0 0 0 180 192V57.7L221.2 98.8A4 4 0 0 0 226.8 93.2z" />
    <glyph glyph-name="arrow-elbow-right-thin"
      unicode="&#xEA44;"
      horiz-adv-x="256" d="M236 176V104A4 4 0 0 0 228 104V166.3L122.8 61.2A3.9000000000000004 3.9000000000000004 0 0 0 117.2 61.2L21.2 157.2A4 4 0 0 0 26.8 162.8L120 69.7L222.3 172H160A4 4 0 0 0 160 180H232A4 4 0 0 0 236 176z" />
    <glyph glyph-name="arrow-elbow-right-up-thin"
      unicode="&#xEA45;"
      horiz-adv-x="256" d="M226.8 157.2A3.9000000000000004 3.9000000000000004 0 0 0 221.2 157.2L180 198.3V64A4 4 0 0 0 176 60H32A4 4 0 0 0 32 68H172V198.3L130.8 157.2A4 4 0 1 0 125.2 162.8L173.2 210.8A3.9000000000000004 3.9000000000000004 0 0 0 178.8 210.8L226.8 162.8A3.9000000000000004 3.9000000000000004 0 0 0 226.8 157.2z" />
    <glyph glyph-name="arrow-elbow-up-left-thin"
      unicode="&#xEA46;"
      horiz-adv-x="256" d="M196 176V32A4 4 0 0 0 188 32V172H57.7L98.8 130.8A3.9000000000000004 3.9000000000000004 0 0 0 98.8 125.2A3.9000000000000004 3.9000000000000004 0 0 0 93.2 125.2L45.2 173.2A3.9000000000000004 3.9000000000000004 0 0 0 45.2 178.8L93.2 226.8A4 4 0 0 0 98.8 221.2L57.7 180H192A4 4 0 0 0 196 176z" />
    <glyph glyph-name="arrow-elbow-up-right-thin"
      unicode="&#xEA47;"
      horiz-adv-x="256" d="M210.8 173.2L162.8 125.2A3.9000000000000004 3.9000000000000004 0 0 0 157.2 125.2A3.9000000000000004 3.9000000000000004 0 0 0 157.2 130.8L198.3 172H68V32A4 4 0 0 0 60 32V176A4 4 0 0 0 64 180H198.3L157.2 221.2A4 4 0 0 0 162.8 226.8L210.8 178.8A3.9000000000000004 3.9000000000000004 0 0 0 210.8 173.2z" />
    <glyph glyph-name="arrow-fat-down-thin"
      unicode="&#xEA48;"
      horiz-adv-x="256" d="M227.7 121.5A4 4 0 0 1 224 124H180V208A12 12 0 0 1 168 220H88A12 12 0 0 1 76 208V124H32A4 4 0 0 1 28.3 121.5A3.8000000000000003 3.8000000000000003 0 0 1 29.2 117.2L125.2 21.2A3.9000000000000004 3.9000000000000004 0 0 1 130.8 21.2L226.8 117.2A3.8000000000000003 3.8000000000000003 0 0 1 227.7 121.5zM128 29.7L41.7 116H80A4 4 0 0 1 84 120V208A4 4 0 0 0 88 212H168A4 4 0 0 0 172 208V120A4 4 0 0 1 176 116H214.3z" />
    <glyph glyph-name="arrow-fat-left-thin"
      unicode="&#xEA49;"
      horiz-adv-x="256" d="M208 180H124V224A4 4 0 0 1 121.5 227.7A3.8000000000000003 3.8000000000000003 0 0 1 117.2 226.8L21.2 130.8A3.9000000000000004 3.9000000000000004 0 0 1 21.2 125.2L117.2 29.2A3.8000000000000003 3.8000000000000003 0 0 1 120 28A4 4 0 0 1 124 32V76H208A12 12 0 0 1 220 88V168A12 12 0 0 1 208 180zM212 88A4 4 0 0 0 208 84H120A4 4 0 0 1 116 80V41.7L29.7 128L116 214.3V176A4 4 0 0 1 120 172H208A4 4 0 0 0 212 168z" />
    <glyph glyph-name="arrow-fat-line-down-thin"
      unicode="&#xEA4A;"
      horiz-adv-x="256" d="M227.7 121.5A4 4 0 0 1 224 124H180V184A4 4 0 0 1 176 188H80A4 4 0 0 1 76 184V124H32A4 4 0 0 1 28.3 121.5A3.8000000000000003 3.8000000000000003 0 0 1 29.2 117.2L125.2 21.2A3.9000000000000004 3.9000000000000004 0 0 1 130.8 21.2L226.8 117.2A3.8000000000000003 3.8000000000000003 0 0 1 227.7 121.5zM128 29.7L41.7 116H80A4 4 0 0 1 84 120V180H172V120A4 4 0 0 1 176 116H214.3zM76 216A4 4 0 0 0 80 220H176A4 4 0 0 0 176 212H80A4 4 0 0 0 76 216z" />
    <glyph glyph-name="arrow-fat-line-left-thin"
      unicode="&#xEA4B;"
      horiz-adv-x="256" d="M184 180H124V224A4 4 0 0 1 121.5 227.7A3.8000000000000003 3.8000000000000003 0 0 1 117.2 226.8L21.2 130.8A3.9000000000000004 3.9000000000000004 0 0 1 21.2 125.2L117.2 29.2A3.8000000000000003 3.8000000000000003 0 0 1 120 28A4 4 0 0 1 124 32V76H184A4 4 0 0 1 188 80V176A4 4 0 0 1 184 180zM180 84H120A4 4 0 0 1 116 80V41.7L29.7 128L116 214.3V176A4 4 0 0 1 120 172H180zM220 176V80A4 4 0 0 0 212 80V176A4 4 0 0 0 220 176z" />
    <glyph glyph-name="arrow-fat-line-right-thin"
      unicode="&#xEA4C;"
      horiz-adv-x="256" d="M234.8 130.8L138.8 226.8A3.8000000000000003 3.8000000000000003 0 0 1 134.5 227.7A4 4 0 0 1 132 224V180H72A4 4 0 0 1 68 176V80A4 4 0 0 1 72 76H132V32A4 4 0 0 1 136 28A3.8000000000000003 3.8000000000000003 0 0 1 138.8 29.2L234.8 125.2A3.9000000000000004 3.9000000000000004 0 0 1 234.8 130.8zM140 41.7V80A4 4 0 0 1 136 84H76V172H136A4 4 0 0 1 140 176V214.3L226.3 128zM44 176V80A4 4 0 0 0 36 80V176A4 4 0 0 0 44 176z" />
    <glyph glyph-name="arrow-fat-line-up-thin"
      unicode="&#xEA4D;"
      horiz-adv-x="256" d="M226.8 138.8L130.8 234.8A3.9000000000000004 3.9000000000000004 0 0 1 125.2 234.8L29.2 138.8A3.8000000000000003 3.8000000000000003 0 0 1 28.3 134.5A4 4 0 0 1 32 132H76V72A4 4 0 0 1 80 68H176A4 4 0 0 1 180 72V132H224A4 4 0 0 1 227.7 134.5A3.8000000000000003 3.8000000000000003 0 0 1 226.8 138.8zM176 140A4 4 0 0 1 172 136V76H84V136A4 4 0 0 1 80 140H41.7L128 226.3L214.3 140zM180 40A4 4 0 0 0 176 36H80A4 4 0 0 0 80 44H176A4 4 0 0 0 180 40z" />
    <glyph glyph-name="arrow-fat-lines-down-thin"
      unicode="&#xEA4E;"
      horiz-adv-x="256" d="M227.7 121.5A4 4 0 0 1 224 124H180V152A4 4 0 0 1 176 156H80A4 4 0 0 1 76 152V124H32A4 4 0 0 1 28.3 121.5A3.8000000000000003 3.8000000000000003 0 0 1 29.2 117.2L125.2 21.2A3.9000000000000004 3.9000000000000004 0 0 1 130.8 21.2L226.8 117.2A3.8000000000000003 3.8000000000000003 0 0 1 227.7 121.5zM128 29.7L41.7 116H80A4 4 0 0 1 84 120V148H172V120A4 4 0 0 1 176 116H214.3zM76 216A4 4 0 0 0 80 220H176A4 4 0 0 0 176 212H80A4 4 0 0 0 76 216zM76 184A4 4 0 0 0 80 188H176A4 4 0 0 0 176 180H80A4 4 0 0 0 76 184z" />
    <glyph glyph-name="arrow-fat-lines-left-thin"
      unicode="&#xEA4F;"
      horiz-adv-x="256" d="M152 180H124V224A4 4 0 0 1 121.5 227.7A3.8000000000000003 3.8000000000000003 0 0 1 117.2 226.8L21.2 130.8A3.9000000000000004 3.9000000000000004 0 0 1 21.2 125.2L117.2 29.2A3.8000000000000003 3.8000000000000003 0 0 1 120 28A4 4 0 0 1 124 32V76H152A4 4 0 0 1 156 80V176A4 4 0 0 1 152 180zM148 84H120A4 4 0 0 1 116 80V41.7L29.7 128L116 214.3V176A4 4 0 0 1 120 172H148zM220 176V80A4 4 0 0 0 212 80V176A4 4 0 0 0 220 176zM188 176V80A4 4 0 0 0 180 80V176A4 4 0 0 0 188 176z" />
    <glyph glyph-name="arrow-fat-lines-right-thin"
      unicode="&#xEA50;"
      horiz-adv-x="256" d="M234.8 130.8L138.8 226.8A3.8000000000000003 3.8000000000000003 0 0 1 134.5 227.7A4 4 0 0 1 132 224V180H104A4 4 0 0 1 100 176V80A4 4 0 0 1 104 76H132V32A4 4 0 0 1 136 28A3.8000000000000003 3.8000000000000003 0 0 1 138.8 29.2L234.8 125.2A3.9000000000000004 3.9000000000000004 0 0 1 234.8 130.8zM140 41.7V80A4 4 0 0 1 136 84H108V172H136A4 4 0 0 1 140 176V214.3L226.3 128zM44 176V80A4 4 0 0 0 36 80V176A4 4 0 0 0 44 176zM76 176V80A4 4 0 0 0 68 80V176A4 4 0 0 0 76 176z" />
    <glyph glyph-name="arrow-fat-lines-up-thin"
      unicode="&#xEA51;"
      horiz-adv-x="256" d="M226.8 138.8L130.8 234.8A3.9000000000000004 3.9000000000000004 0 0 1 125.2 234.8L29.2 138.8A3.8000000000000003 3.8000000000000003 0 0 1 28.3 134.5A4 4 0 0 1 32 132H76V104A4 4 0 0 1 80 100H176A4 4 0 0 1 180 104V132H224A4 4 0 0 1 227.7 134.5A3.8000000000000003 3.8000000000000003 0 0 1 226.8 138.8zM176 140A4 4 0 0 1 172 136V108H84V136A4 4 0 0 1 80 140H41.7L128 226.3L214.3 140zM180 40A4 4 0 0 0 176 36H80A4 4 0 0 0 80 44H176A4 4 0 0 0 180 40zM180 72A4 4 0 0 0 176 68H80A4 4 0 0 0 80 76H176A4 4 0 0 0 180 72z" />
    <glyph glyph-name="arrow-fat-right-thin"
      unicode="&#xEA52;"
      horiz-adv-x="256" d="M234.8 130.8L138.8 226.8A3.8000000000000003 3.8000000000000003 0 0 1 134.5 227.7A4 4 0 0 1 132 224V180H48A12 12 0 0 1 36 168V88A12 12 0 0 1 48 76H132V32A4 4 0 0 1 136 28A3.8000000000000003 3.8000000000000003 0 0 1 138.8 29.2L234.8 125.2A3.9000000000000004 3.9000000000000004 0 0 1 234.8 130.8zM140 41.7V80A4 4 0 0 1 136 84H48A4 4 0 0 0 44 88V168A4 4 0 0 0 48 172H136A4 4 0 0 1 140 176V214.3L226.3 128z" />
    <glyph glyph-name="arrow-fat-up-thin"
      unicode="&#xEA53;"
      horiz-adv-x="256" d="M226.8 138.8L130.8 234.8A3.9000000000000004 3.9000000000000004 0 0 1 125.2 234.8L29.2 138.8A3.8000000000000003 3.8000000000000003 0 0 1 28.3 134.5A4 4 0 0 1 32 132H76V48A12 12 0 0 1 88 36H168A12 12 0 0 1 180 48V132H224A4 4 0 0 1 227.7 134.5A3.8000000000000003 3.8000000000000003 0 0 1 226.8 138.8zM176 140A4 4 0 0 1 172 136V48A4 4 0 0 0 168 44H88A4 4 0 0 0 84 48V136A4 4 0 0 1 80 140H41.7L128 226.3L214.3 140z" />
    <glyph glyph-name="arrow-left-thin"
      unicode="&#xEA54;"
      horiz-adv-x="256" d="M220 128A4 4 0 0 0 216 124H49.7L114.8 58.8A3.9000000000000004 3.9000000000000004 0 0 0 114.8 53.2A3.9000000000000004 3.9000000000000004 0 0 0 109.2 53.2L37.2 125.2A3.9000000000000004 3.9000000000000004 0 0 0 37.2 130.8L109.2 202.8A4 4 0 0 0 114.8 197.2L49.7 132H216A4 4 0 0 0 220 128z" />
    <glyph glyph-name="arrow-line-down-left-thin"
      unicode="&#xEA55;"
      horiz-adv-x="256" d="M178.8 170.8A3.9000000000000004 3.9000000000000004 0 0 0 178.8 165.2L73.7 60H164A4 4 0 0 0 164 52H64A4 4 0 0 0 60 56V156A4 4 0 0 0 68 156V65.7L173.2 170.8A3.9000000000000004 3.9000000000000004 0 0 0 178.8 170.8zM216 220H40A4 4 0 0 1 40 212H216A4 4 0 0 1 216 220z" />
    <glyph glyph-name="arrow-line-down-right-thin"
      unicode="&#xEA56;"
      horiz-adv-x="256" d="M196 156V56A4 4 0 0 0 192 52H92A4 4 0 0 0 92 60H182.3L77.2 165.2A4 4 0 0 0 82.8 170.8L188 65.7V156A4 4 0 0 0 196 156zM216 220H40A4 4 0 0 1 40 212H216A4 4 0 0 1 216 220z" />
    <glyph glyph-name="arrow-line-down-thin"
      unicode="&#xEA57;"
      horiz-adv-x="256" d="M53.2 141.2A4 4 0 0 0 58.8 146.8L124 81.7V224A4 4 0 0 0 132 224V81.7L197.2 146.8A4 4 0 1 0 202.8 141.2L130.8 69.2A3.9000000000000004 3.9000000000000004 0 0 0 125.2 69.2zM216 44H40A4 4 0 0 1 40 36H216A4 4 0 0 1 216 44z" />
    <glyph glyph-name="arrow-line-left-thin"
      unicode="&#xEA58;"
      horiz-adv-x="256" d="M228 128A4 4 0 0 0 224 124H81.7L146.8 58.8A3.9000000000000004 3.9000000000000004 0 0 0 146.8 53.2A3.8000000000000003 3.8000000000000003 0 0 0 144 52A3.9000000000000004 3.9000000000000004 0 0 0 141.2 53.2L69.2 125.2A3.9000000000000004 3.9000000000000004 0 0 0 69.2 130.8L141.2 202.8A4 4 0 1 0 146.8 197.2L81.7 132H224A4 4 0 0 0 228 128zM40 220A4 4 0 0 1 36 216V40A4 4 0 0 1 44 40V216A4 4 0 0 1 40 220z" />
    <glyph glyph-name="arrow-line-right-thin"
      unicode="&#xEA59;"
      horiz-adv-x="256" d="M186.8 130.8A3.9000000000000004 3.9000000000000004 0 0 0 186.8 125.2L114.8 53.2A3.9000000000000004 3.9000000000000004 0 0 0 112 52A3.8000000000000003 3.8000000000000003 0 0 0 109.2 53.2A3.9000000000000004 3.9000000000000004 0 0 0 109.2 58.8L174.3 124H32A4 4 0 0 0 32 132H174.3L109.2 197.2A4 4 0 0 0 114.8 202.8zM216 220A4 4 0 0 1 212 216V40A4 4 0 0 1 220 40V216A4 4 0 0 1 216 220z" />
    <glyph glyph-name="arrow-line-up-left-thin"
      unicode="&#xEA5A;"
      horiz-adv-x="256" d="M60 100V200A4 4 0 0 0 64 204H164A4 4 0 0 0 164 196H73.7L178.8 90.8A3.9000000000000004 3.9000000000000004 0 0 0 178.8 85.2A3.9000000000000004 3.9000000000000004 0 0 0 173.2 85.2L68 190.3V100A4 4 0 0 0 60 100zM216 44H40A4 4 0 0 1 40 36H216A4 4 0 0 1 216 44z" />
    <glyph glyph-name="arrow-line-up-right-thin"
      unicode="&#xEA5B;"
      horiz-adv-x="256" d="M77.2 85.2A3.9000000000000004 3.9000000000000004 0 0 0 77.2 90.8L182.3 196H92A4 4 0 0 0 92 204H192A4 4 0 0 0 196 200V100A4 4 0 0 0 188 100V190.3L82.8 85.2A3.9000000000000004 3.9000000000000004 0 0 0 77.2 85.2zM216 44H40A4 4 0 0 1 40 36H216A4 4 0 0 1 216 44z" />
    <glyph glyph-name="arrow-line-up-thin"
      unicode="&#xEA5C;"
      horiz-adv-x="256" d="M202.8 114.8A3.9000000000000004 3.9000000000000004 0 0 0 202.8 109.2A3.9000000000000004 3.9000000000000004 0 0 0 197.2 109.2L132 174.3V32A4 4 0 0 0 124 32V174.3L58.8 109.2A4 4 0 0 0 53.2 114.8L125.2 186.8A3.9000000000000004 3.9000000000000004 0 0 0 130.8 186.8zM216 220H40A4 4 0 0 1 40 212H216A4 4 0 0 1 216 220z" />
    <glyph glyph-name="arrow-right-thin"
      unicode="&#xEA5D;"
      horiz-adv-x="256" d="M218.8 125.2L146.8 53.2A3.9000000000000004 3.9000000000000004 0 0 0 141.2 53.2A3.9000000000000004 3.9000000000000004 0 0 0 141.2 58.8L206.3 124H40A4 4 0 0 0 40 132H206.3L141.2 197.2A4 4 0 0 0 146.8 202.8L218.8 130.8A3.9000000000000004 3.9000000000000004 0 0 0 218.8 125.2z" />
    <glyph glyph-name="arrow-square-down-left-thin"
      unicode="&#xEA5E;"
      horiz-adv-x="256" d="M208 220H48A12 12 0 0 1 36 208V48A12 12 0 0 1 48 36H208A12 12 0 0 1 220 48V208A12 12 0 0 1 208 220zM212 48A4 4 0 0 0 208 44H48A4 4 0 0 0 44 48V208A4 4 0 0 0 48 212H208A4 4 0 0 0 212 208zM158.8 158.8A3.9000000000000004 3.9000000000000004 0 0 0 158.8 153.2L109.7 104H148A4 4 0 0 0 148 96H100A4 4 0 0 0 96 100V148A4 4 0 0 0 104 148V109.7L153.2 158.8A3.9000000000000004 3.9000000000000004 0 0 0 158.8 158.8z" />
    <glyph glyph-name="arrow-square-down-right-thin"
      unicode="&#xEA5F;"
      horiz-adv-x="256" d="M208 220H48A12 12 0 0 1 36 208V48A12 12 0 0 1 48 36H208A12 12 0 0 1 220 48V208A12 12 0 0 1 208 220zM212 48A4 4 0 0 0 208 44H48A4 4 0 0 0 44 48V208A4 4 0 0 0 48 212H208A4 4 0 0 0 212 208zM160 148V100A4 4 0 0 0 156 96H108A4 4 0 0 0 108 104H146.3L97.2 153.2A4 4 0 0 0 102.8 158.8L152 109.7V148A4 4 0 0 0 160 148z" />
    <glyph glyph-name="arrow-square-down-thin"
      unicode="&#xEA60;"
      horiz-adv-x="256" d="M208 220H48A12 12 0 0 1 36 208V48A12 12 0 0 1 48 36H208A12 12 0 0 1 220 48V208A12 12 0 0 1 208 220zM212 48A4 4 0 0 0 208 44H48A4 4 0 0 0 44 48V208A4 4 0 0 0 48 212H208A4 4 0 0 0 212 208zM164.8 124.8A4.2 4.2 0 0 0 164.8 119.1L130.8 85.2A3.9000000000000004 3.9000000000000004 0 0 0 125.2 85.2L91.2 119.1A4 4 0 0 0 96.9 124.8L124 97.7V168A4 4 0 0 0 132 168V97.7L159.1 124.8A4.2 4.2 0 0 0 164.8 124.8z" />
    <glyph glyph-name="arrow-square-in-thin"
      unicode="&#xEA61;"
      horiz-adv-x="256" d="M116 112V52A4 4 0 0 0 108 52V102.3L42.8 37.1A4.3 4.3 0 0 0 40 36A4.4 4.4 0 0 0 37.1 37.1A4.2 4.2 0 0 0 37.1 42.8L102.3 108H52A4 4 0 0 0 52 116H112A4 4 0 0 0 116 112zM208 220H72A12 12 0 0 1 60 208V160A4 4 0 0 1 68 160V208A4 4 0 0 0 72 212H208A4 4 0 0 0 212 208V72A4 4 0 0 0 208 68H160A4 4 0 0 1 160 60H208A12 12 0 0 1 220 72V208A12 12 0 0 1 208 220z" />
    <glyph glyph-name="arrow-square-left-thin"
      unicode="&#xEA62;"
      horiz-adv-x="256" d="M208 220H48A12 12 0 0 1 36 208V48A12 12 0 0 1 48 36H208A12 12 0 0 1 220 48V208A12 12 0 0 1 208 220zM212 48A4 4 0 0 0 208 44H48A4 4 0 0 0 44 48V208A4 4 0 0 0 48 212H208A4 4 0 0 0 212 208zM172 128A4 4 0 0 0 168 124H97.7L124.8 96.9A4.2 4.2 0 0 0 124.8 91.2A3.9000000000000004 3.9000000000000004 0 0 0 121.9 90.1A3.8000000000000003 3.8000000000000003 0 0 0 119.1 91.2L85.2 125.2A3.9000000000000004 3.9000000000000004 0 0 0 85.2 130.8L119.1 164.8A4 4 0 0 0 124.8 159.1L97.7 132H168A4 4 0 0 0 172 128z" />
    <glyph glyph-name="arrow-square-out-thin"
      unicode="&#xEA63;"
      horiz-adv-x="256" d="M220 156A4 4 0 0 0 212 156V206.3L146.8 141.1A4.3 4.3 0 0 0 144 140A4.4 4.4 0 0 0 141.1 141.1A4.2 4.2 0 0 0 141.1 146.8L206.3 212H156A4 4 0 0 0 156 220H216A4 4 0 0 0 220 216zM184 116A4 4 0 0 1 180 112V48A4 4 0 0 0 176 44H48A4 4 0 0 0 44 48V176A4 4 0 0 0 48 180H112A4 4 0 0 1 112 188H48A12 12 0 0 1 36 176V48A12 12 0 0 1 48 36H176A12 12 0 0 1 188 48V112A4 4 0 0 1 184 116z" />
    <glyph glyph-name="arrow-square-right-thin"
      unicode="&#xEA64;"
      horiz-adv-x="256" d="M208 220H48A12 12 0 0 1 36 208V48A12 12 0 0 1 48 36H208A12 12 0 0 1 220 48V208A12 12 0 0 1 208 220zM212 48A4 4 0 0 0 208 44H48A4 4 0 0 0 44 48V208A4 4 0 0 0 48 212H208A4 4 0 0 0 212 208zM170.8 130.8A3.9000000000000004 3.9000000000000004 0 0 0 170.8 125.2L136.9 91.2A3.8000000000000003 3.8000000000000003 0 0 0 134.1 90.1A3.9000000000000004 3.9000000000000004 0 0 0 131.2 91.2A4.2 4.2 0 0 0 131.2 96.9L158.3 124H88A4 4 0 0 0 88 132H158.3L131.2 159.1A4 4 0 0 0 136.9 164.8z" />
    <glyph glyph-name="arrow-square-up-left-thin"
      unicode="&#xEA65;"
      horiz-adv-x="256" d="M208 220H48A12 12 0 0 1 36 208V48A12 12 0 0 1 48 36H208A12 12 0 0 1 220 48V208A12 12 0 0 1 208 220zM212 48A4 4 0 0 0 208 44H48A4 4 0 0 0 44 48V208A4 4 0 0 0 48 212H208A4 4 0 0 0 212 208zM158.8 102.8A3.9000000000000004 3.9000000000000004 0 0 0 158.8 97.2A3.9000000000000004 3.9000000000000004 0 0 0 153.2 97.2L104 146.3V108A4 4 0 0 0 96 108V156A4 4 0 0 0 100 160H148A4 4 0 0 0 148 152H109.7z" />
    <glyph glyph-name="arrow-square-up-right-thin"
      unicode="&#xEA66;"
      horiz-adv-x="256" d="M208 220H48A12 12 0 0 1 36 208V48A12 12 0 0 1 48 36H208A12 12 0 0 1 220 48V208A12 12 0 0 1 208 220zM212 48A4 4 0 0 0 208 44H48A4 4 0 0 0 44 48V208A4 4 0 0 0 48 212H208A4 4 0 0 0 212 208zM160 156V108A4 4 0 0 0 152 108V146.3L102.8 97.2A3.9000000000000004 3.9000000000000004 0 0 0 97.2 97.2A3.9000000000000004 3.9000000000000004 0 0 0 97.2 102.8L146.3 152H108A4 4 0 0 0 108 160H156A4 4 0 0 0 160 156z" />
    <glyph glyph-name="arrow-square-up-thin"
      unicode="&#xEA67;"
      horiz-adv-x="256" d="M208 220H48A12 12 0 0 1 36 208V48A12 12 0 0 1 48 36H208A12 12 0 0 1 220 48V208A12 12 0 0 1 208 220zM212 48A4 4 0 0 0 208 44H48A4 4 0 0 0 44 48V208A4 4 0 0 0 48 212H208A4 4 0 0 0 212 208zM164.8 136.9A4.2 4.2 0 0 0 164.8 131.2A3.9000000000000004 3.9000000000000004 0 0 0 161.9 130.1A3.8000000000000003 3.8000000000000003 0 0 0 159.1 131.2L132 158.3V88A4 4 0 0 0 124 88V158.3L96.9 131.2A4 4 0 0 0 91.2 136.9L125.2 170.8A3.9000000000000004 3.9000000000000004 0 0 0 130.8 170.8z" />
    <glyph glyph-name="arrow-u-down-left-thin"
      unicode="&#xEA68;"
      horiz-adv-x="256" d="M228 144A60 60 0 0 0 168 84H41.7L82.8 42.8A3.9000000000000004 3.9000000000000004 0 0 0 82.8 37.2A3.9000000000000004 3.9000000000000004 0 0 0 77.2 37.2L29.2 85.2A3.9000000000000004 3.9000000000000004 0 0 0 29.2 90.8L77.2 138.8A4 4 0 0 0 82.8 133.2L41.7 92H168A52 52 0 0 1 168 196H80A4 4 0 0 0 80 204H168A60 60 0 0 0 228 144z" />
    <glyph glyph-name="arrow-u-down-right-thin"
      unicode="&#xEA69;"
      horiz-adv-x="256" d="M226.8 85.2L178.8 37.2A3.9000000000000004 3.9000000000000004 0 0 0 173.2 37.2A3.9000000000000004 3.9000000000000004 0 0 0 173.2 42.8L214.3 84H88A60 60 0 0 0 88 204H176A4 4 0 0 0 176 196H88A52 52 0 0 1 88 92H214.3L173.2 133.2A4 4 0 0 0 178.8 138.8L226.8 90.8A3.9000000000000004 3.9000000000000004 0 0 0 226.8 85.2z" />
    <glyph glyph-name="arrow-u-left-down-thin"
      unicode="&#xEA6A;"
      horiz-adv-x="256" d="M204 168V80A4 4 0 0 0 196 80V168A52 52 0 0 1 92 168V41.7L133.2 82.8A4 4 0 0 0 138.8 77.2L90.8 29.2A3.9000000000000004 3.9000000000000004 0 0 0 85.2 29.2L37.2 77.2A4 4 0 0 0 42.8 82.8L84 41.7V168A60 60 0 0 0 204 168z" />
    <glyph glyph-name="arrow-u-left-up-thin"
      unicode="&#xEA6B;"
      horiz-adv-x="256" d="M204 176V88A60 60 0 0 0 84 88V214.3L42.8 173.2A4 4 0 0 0 37.2 178.8L85.2 226.8A3.9000000000000004 3.9000000000000004 0 0 0 90.8 226.8L138.8 178.8A3.9000000000000004 3.9000000000000004 0 0 0 138.8 173.2A3.9000000000000004 3.9000000000000004 0 0 0 133.2 173.2L92 214.3V88A52 52 0 0 1 196 88V176A4 4 0 0 0 204 176z" />
    <glyph glyph-name="arrow-u-right-down-thin"
      unicode="&#xEA6C;"
      horiz-adv-x="256" d="M218.8 77.2L170.8 29.2A3.9000000000000004 3.9000000000000004 0 0 0 165.2 29.2L117.2 77.2A4 4 0 0 0 122.8 82.8L164 41.7V168A52 52 0 0 1 60 168V80A4 4 0 0 0 52 80V168A60 60 0 0 0 172 168V41.7L213.2 82.8A4 4 0 0 0 218.8 77.2z" />
    <glyph glyph-name="arrow-u-right-up-thin"
      unicode="&#xEA6D;"
      horiz-adv-x="256" d="M218.8 173.2A3.9000000000000004 3.9000000000000004 0 0 0 213.2 173.2L172 214.3V88A60 60 0 0 0 52 88V176A4 4 0 0 0 60 176V88A52 52 0 0 1 164 88V214.3L122.8 173.2A4 4 0 0 0 117.2 178.8L165.2 226.8A3.9000000000000004 3.9000000000000004 0 0 0 170.8 226.8L218.8 178.8A3.9000000000000004 3.9000000000000004 0 0 0 218.8 173.2z" />
    <glyph glyph-name="arrow-u-up-left-thin"
      unicode="&#xEA6E;"
      horiz-adv-x="256" d="M228 112A60 60 0 0 0 168 52H80A4 4 0 0 0 80 60H168A52 52 0 0 1 168 164H41.7L82.8 122.8A3.9000000000000004 3.9000000000000004 0 0 0 82.8 117.2A3.9000000000000004 3.9000000000000004 0 0 0 77.2 117.2L29.2 165.2A3.9000000000000004 3.9000000000000004 0 0 0 29.2 170.8L77.2 218.8A4 4 0 0 0 82.8 213.2L41.7 172H168A60 60 0 0 0 228 112z" />
    <glyph glyph-name="arrow-u-up-right-thin"
      unicode="&#xEA6F;"
      horiz-adv-x="256" d="M173.2 122.8L214.3 164H88A52 52 0 0 1 88 60H176A4 4 0 0 0 176 52H88A60 60 0 0 0 88 172H214.3L173.2 213.2A4 4 0 0 0 178.8 218.8L226.8 170.8A3.9000000000000004 3.9000000000000004 0 0 0 226.8 165.2L178.8 117.2A3.9000000000000004 3.9000000000000004 0 0 0 173.2 117.2A3.9000000000000004 3.9000000000000004 0 0 0 173.2 122.8z" />
    <glyph glyph-name="arrow-up-left-thin"
      unicode="&#xEA70;"
      horiz-adv-x="256" d="M194.8 61.2A3.9000000000000004 3.9000000000000004 0 0 0 189.2 61.2L68 182.3V88A4 4 0 0 0 60 88V192A4 4 0 0 0 64 196H168A4 4 0 0 0 168 188H73.7L194.8 66.8A3.9000000000000004 3.9000000000000004 0 0 0 194.8 61.2z" />
    <glyph glyph-name="arrow-up-right-thin"
      unicode="&#xEA71;"
      horiz-adv-x="256" d="M196 192V88A4 4 0 0 0 188 88V182.3L66.8 61.2A3.9000000000000004 3.9000000000000004 0 0 0 61.2 61.2A3.9000000000000004 3.9000000000000004 0 0 0 61.2 66.8L182.3 188H88A4 4 0 0 0 88 196H192A4 4 0 0 0 196 192z" />
    <glyph glyph-name="arrow-up-thin"
      unicode="&#xEA72;"
      horiz-adv-x="256" d="M202.8 141.2A3.9000000000000004 3.9000000000000004 0 0 0 197.2 141.2L132 206.3V40A4 4 0 0 0 124 40V206.3L58.8 141.2A4 4 0 0 0 53.2 146.8L125.2 218.8A3.9000000000000004 3.9000000000000004 0 0 0 130.8 218.8L202.8 146.8A3.9000000000000004 3.9000000000000004 0 0 0 202.8 141.2z" />
    <glyph glyph-name="arrows-clockwise-thin"
      unicode="&#xEA73;"
      horiz-adv-x="256" d="M228.2 204.3V156.3A4 4 0 0 0 224.2 152.3H176.2A4 4 0 0 0 176.2 160.3H214.5L187.4 187.4A84.2 84.2 0 0 1 68.6 187.4A4 4 0 0 0 62.9 187.4A4.2 4.2 0 0 0 62.9 193.1A92.2 92.2 0 0 0 193.1 193.1L220.2 165.9V204.3A4 4 0 1 0 228.2 204.3zM187.4 68.6A84.2 84.2 0 0 0 68.6 68.6L41.5 95.7H79.8A4 4 0 1 1 79.8 103.7H31.8A4 4 0 0 1 27.8 99.7V51.7A4 4 0 1 1 35.8 51.7V90.1L62.9 62.9A92.2 92.2 0 0 1 193.1 62.9A4.2 4.2 0 0 1 193.1 68.6A4 4 0 0 1 187.4 68.6z" />
    <glyph glyph-name="arrows-counter-clockwise-thin"
      unicode="&#xEA74;"
      horiz-adv-x="256" d="M79.8 152.3H31.8A4 4 0 0 0 27.8 156.3V204.3A4 4 0 1 0 35.8 204.3V165.9L62.9 193.1A92.3 92.3 0 0 0 193.1 193.1A4.2 4.2 0 0 0 193.1 187.4A4 4 0 0 0 187.4 187.4A84.2 84.2 0 0 1 68.6 187.4L41.5 160.3H79.8A4 4 0 0 0 79.8 152.3zM224.2 103.7H176.2A4 4 0 0 1 176.2 95.7H214.5L187.4 68.6A84.2 84.2 0 0 0 68.6 68.6A4 4 0 0 1 62.9 68.6A4.2 4.2 0 0 1 62.9 62.9A92.2 92.2 0 0 1 193.1 62.9L220.2 90.1V51.7A4 4 0 0 1 228.2 51.7V99.7A4 4 0 0 1 224.2 103.7z" />
    <glyph glyph-name="arrows-down-up-thin"
      unicode="&#xEA75;"
      horiz-adv-x="256" d="M114.8 82.8A3.9000000000000004 3.9000000000000004 0 0 0 114.8 77.2L82.8 45.2A3.9000000000000004 3.9000000000000004 0 0 0 77.2 45.2L45.2 77.2A4 4 0 0 0 50.8 82.8L76 57.7V208A4 4 0 0 0 84 208V57.7L109.2 82.8A3.9000000000000004 3.9000000000000004 0 0 0 114.8 82.8zM210.8 178.8L178.8 210.8A3.9000000000000004 3.9000000000000004 0 0 1 173.2 210.8L141.2 178.8A4 4 0 0 1 146.8 173.2L172 198.3V48A4 4 0 0 1 180 48V198.3L205.2 173.2A3.9000000000000004 3.9000000000000004 0 0 1 210.8 173.2A3.9000000000000004 3.9000000000000004 0 0 1 210.8 178.8z" />
    <glyph glyph-name="arrows-horizontal-thin"
      unicode="&#xEA76;"
      horiz-adv-x="256" d="M234.8 125.2L202.8 93.2A3.9000000000000004 3.9000000000000004 0 0 0 197.2 93.2A3.9000000000000004 3.9000000000000004 0 0 0 197.2 98.8L222.3 124H33.7L58.8 98.8A3.9000000000000004 3.9000000000000004 0 0 0 58.8 93.2A3.9000000000000004 3.9000000000000004 0 0 0 53.2 93.2L21.2 125.2A3.9000000000000004 3.9000000000000004 0 0 0 21.2 130.8L53.2 162.8A4 4 0 0 0 58.8 157.2L33.7 132H222.3L197.2 157.2A4 4 0 0 0 202.8 162.8L234.8 130.8A3.9000000000000004 3.9000000000000004 0 0 0 234.8 125.2z" />
    <glyph glyph-name="arrows-in-cardinal-thin"
      unicode="&#xEA77;"
      horiz-adv-x="256" d="M159.1 70.5A3.9000000000000004 3.9000000000000004 0 0 0 159.1 64.9A3.9000000000000004 3.9000000000000004 0 0 0 156.3 63.7A3.8000000000000003 3.8000000000000003 0 0 0 153.5 64.9L132 86.3V24A4 4 0 0 0 124 24V86.3L102.5 64.9A4 4 0 1 0 96.9 70.5L125.2 98.8A3.9000000000000004 3.9000000000000004 0 0 0 130.8 98.8zM125.2 157.2A3.9000000000000004 3.9000000000000004 0 0 1 130.8 157.2L159.1 185.5A4 4 0 1 1 153.5 191.1L132 169.7V232A4 4 0 0 1 124 232V169.7L102.5 191.1A4 4 0 0 1 96.9 185.5zM98.8 130.8L70.5 159.1A4 4 0 0 1 64.9 153.5L86.3 132H24A4 4 0 0 1 24 124H86.3L64.9 102.5A3.9000000000000004 3.9000000000000004 0 0 1 64.9 96.9A3.9000000000000004 3.9000000000000004 0 0 1 67.7 95.7A3.8000000000000003 3.8000000000000003 0 0 1 70.5 96.9L98.8 125.2A3.9000000000000004 3.9000000000000004 0 0 1 98.8 130.8zM232 132H169.7L191.1 153.5A4 4 0 1 1 185.5 159.1L157.2 130.8A3.9000000000000004 3.9000000000000004 0 0 1 157.2 125.2L185.5 96.9A3.8000000000000003 3.8000000000000003 0 0 1 188.3 95.7A3.9000000000000004 3.9000000000000004 0 0 1 191.1 96.9A3.9000000000000004 3.9000000000000004 0 0 1 191.1 102.5L169.7 124H232A4 4 0 0 1 232 132z" />
    <glyph glyph-name="arrows-in-line-horizontal-thin"
      unicode="&#xEA78;"
      horiz-adv-x="256" d="M132 216V40A4 4 0 0 0 124 40V216A4 4 0 0 0 132 216zM66.8 162.8A4 4 0 0 1 61.2 157.2L86.3 132H16A4 4 0 0 1 16 124H86.3L61.2 98.8A3.9000000000000004 3.9000000000000004 0 0 1 61.2 93.2A3.9000000000000004 3.9000000000000004 0 0 1 66.8 93.2L98.8 125.2A3.9000000000000004 3.9000000000000004 0 0 1 98.8 130.8zM240 132H169.7L194.8 157.2A4 4 0 1 1 189.2 162.8L157.2 130.8A3.9000000000000004 3.9000000000000004 0 0 1 157.2 125.2L189.2 93.2A3.9000000000000004 3.9000000000000004 0 0 1 194.8 93.2A3.9000000000000004 3.9000000000000004 0 0 1 194.8 98.8L169.7 124H240A4 4 0 0 1 240 132z" />
    <glyph glyph-name="arrows-in-line-vertical-thin"
      unicode="&#xEA79;"
      horiz-adv-x="256" d="M220 128A4 4 0 0 0 216 124H40A4 4 0 0 0 40 132H216A4 4 0 0 0 220 128zM125.2 157.2A3.9000000000000004 3.9000000000000004 0 0 1 130.8 157.2L162.8 189.2A4 4 0 1 1 157.2 194.8L132 169.7V240A4 4 0 0 1 124 240V169.7L98.8 194.8A4 4 0 0 1 93.2 189.2zM130.8 98.8A3.9000000000000004 3.9000000000000004 0 0 1 125.2 98.8L93.2 66.8A4 4 0 0 1 98.8 61.2L124 86.3V16A4 4 0 0 1 132 16V86.3L157.2 61.2A3.9000000000000004 3.9000000000000004 0 0 1 162.8 61.2A3.9000000000000004 3.9000000000000004 0 0 1 162.8 66.8z" />
    <glyph glyph-name="arrows-in-simple-thin"
      unicode="&#xEA7A;"
      horiz-adv-x="256" d="M210.8 205.2L161.7 156H200A4 4 0 0 0 200 148H152A4 4 0 0 0 148 152V200A4 4 0 0 0 156 200V161.7L205.2 210.8A4 4 0 1 0 210.8 205.2zM104 108H56A4 4 0 0 1 56 100H94.3L45.2 50.8A3.9000000000000004 3.9000000000000004 0 0 1 45.2 45.2A3.9000000000000004 3.9000000000000004 0 0 1 50.8 45.2L100 94.3V56A4 4 0 0 1 108 56V104A4 4 0 0 1 104 108z" />
    <glyph glyph-name="arrows-in-thin"
      unicode="&#xEA7B;"
      horiz-adv-x="256" d="M148 152V192A4 4 0 0 0 156 192V161.7L205.2 210.8A4 4 0 1 0 210.8 205.2L161.7 156H192A4 4 0 0 0 192 148H152A4 4 0 0 0 148 152zM104 108H64A4 4 0 0 1 64 100H94.3L45.2 50.8A3.9000000000000004 3.9000000000000004 0 0 1 45.2 45.2A3.9000000000000004 3.9000000000000004 0 0 1 50.8 45.2L100 94.3V64A4 4 0 0 1 108 64V104A4 4 0 0 1 104 108zM161.7 100H192A4 4 0 0 1 192 108H152A4 4 0 0 1 148 104V64A4 4 0 0 1 156 64V94.3L205.2 45.2A3.9000000000000004 3.9000000000000004 0 0 1 210.8 45.2A3.9000000000000004 3.9000000000000004 0 0 1 210.8 50.8zM104 196A4 4 0 0 1 100 192V161.7L50.8 210.8A4 4 0 0 1 45.2 205.2L94.3 156H64A4 4 0 0 1 64 148H104A4 4 0 0 1 108 152V192A4 4 0 0 1 104 196z" />
    <glyph glyph-name="arrows-left-right-thin"
      unicode="&#xEA7C;"
      horiz-adv-x="256" d="M210.8 82.8A3.9000000000000004 3.9000000000000004 0 0 0 210.8 77.2L178.8 45.2A3.9000000000000004 3.9000000000000004 0 0 0 173.2 45.2A3.9000000000000004 3.9000000000000004 0 0 0 173.2 50.8L198.3 76H48A4 4 0 0 0 48 84H198.3L173.2 109.2A4 4 0 0 0 178.8 114.8zM77.2 141.2A3.9000000000000004 3.9000000000000004 0 0 1 82.8 141.2A3.9000000000000004 3.9000000000000004 0 0 1 82.8 146.8L57.7 172H208A4 4 0 0 1 208 180H57.7L82.8 205.2A4 4 0 0 1 77.2 210.8L45.2 178.8A3.9000000000000004 3.9000000000000004 0 0 1 45.2 173.2z" />
    <glyph glyph-name="arrows-out-cardinal-thin"
      unicode="&#xEA7D;"
      horiz-adv-x="256" d="M159.1 55.1A3.9000000000000004 3.9000000000000004 0 0 0 159.1 49.5L130.8 21.2A3.9000000000000004 3.9000000000000004 0 0 0 125.2 21.2L96.9 49.5A4 4 0 1 0 102.5 55.1L124 33.7V96A4 4 0 0 0 132 96V33.7L153.5 55.1A3.9000000000000004 3.9000000000000004 0 0 0 159.1 55.1zM102.5 200.9L124 222.3V160A4 4 0 0 1 132 160V222.3L153.5 200.9A3.8000000000000003 3.8000000000000003 0 0 1 156.3 199.7A3.9000000000000004 3.9000000000000004 0 0 1 159.1 200.9A3.9000000000000004 3.9000000000000004 0 0 1 159.1 206.5L130.8 234.8A3.9000000000000004 3.9000000000000004 0 0 1 125.2 234.8L96.9 206.5A4 4 0 0 1 102.5 200.9zM33.7 124H96A4 4 0 0 1 96 132H33.7L55.1 153.5A4 4 0 0 1 49.5 159.1L21.2 130.8A3.9000000000000004 3.9000000000000004 0 0 1 21.2 125.2L49.5 96.9A3.8000000000000003 3.8000000000000003 0 0 1 52.3 95.7A3.9000000000000004 3.9000000000000004 0 0 1 55.1 96.9A3.9000000000000004 3.9000000000000004 0 0 1 55.1 102.5zM234.8 130.8L206.5 159.1A4 4 0 1 1 200.9 153.5L222.3 132H160A4 4 0 0 1 160 124H222.3L200.9 102.5A3.9000000000000004 3.9000000000000004 0 0 1 200.9 96.9A3.9000000000000004 3.9000000000000004 0 0 1 203.7 95.7A3.8000000000000003 3.8000000000000003 0 0 1 206.5 96.9L234.8000000000001 125.2A3.9000000000000004 3.9000000000000004 0 0 1 234.8000000000001 130.8z" />
    <glyph glyph-name="arrows-out-line-horizontal-thin"
      unicode="&#xEA7E;"
      horiz-adv-x="256" d="M132 216V40A4 4 0 0 0 124 40V216A4 4 0 0 0 132 216zM96 132H25.7L50.8 157.2A4 4 0 0 1 45.2 162.8L13.2 130.8A3.9000000000000004 3.9000000000000004 0 0 1 13.2 125.2L45.2 93.2A3.9000000000000004 3.9000000000000004 0 0 1 50.8 93.2A3.9000000000000004 3.9000000000000004 0 0 1 50.8 98.8L25.7 124H96A4 4 0 0 1 96 132zM242.8 130.8L210.8 162.8A4 4 0 0 1 205.2 157.2L230.3 132H160A4 4 0 0 1 160 124H230.3L205.2 98.8A3.9000000000000004 3.9000000000000004 0 0 1 205.2 93.2A3.9000000000000004 3.9000000000000004 0 0 1 210.8 93.2L242.8 125.2A3.9000000000000004 3.9000000000000004 0 0 1 242.8 130.8z" />
    <glyph glyph-name="arrows-out-line-vertical-thin"
      unicode="&#xEA7F;"
      horiz-adv-x="256" d="M220 128A4 4 0 0 0 216 124H40A4 4 0 0 0 40 132H216A4 4 0 0 0 220 128zM98.8 205.2L124 230.3V160A4 4 0 0 1 132 160V230.3L157.2 205.2A3.9000000000000004 3.9000000000000004 0 0 1 162.8 205.2A3.9000000000000004 3.9000000000000004 0 0 1 162.8 210.8L130.8 242.8A3.9000000000000004 3.9000000000000004 0 0 1 125.2 242.8L93.2 210.8A4 4 0 0 1 98.8 205.2zM157.2 50.8L132 25.7V96A4 4 0 0 1 124 96V25.7L98.8 50.8A4 4 0 0 1 93.2 45.2L125.2 13.2A3.9000000000000004 3.9000000000000004 0 0 1 130.8 13.2L162.8 45.2A4 4 0 0 1 157.2 50.8z" />
    <glyph glyph-name="arrows-out-simple-thin"
      unicode="&#xEA80;"
      horiz-adv-x="256" d="M212 208V160A4 4 0 0 0 204 160V198.3L154.8 149.2A3.9000000000000004 3.9000000000000004 0 0 0 149.2 149.2A3.9000000000000004 3.9000000000000004 0 0 0 149.2 154.8L198.3 204H160A4 4 0 0 0 160 212H208A4 4 0 0 0 212 208zM101.2 106.8L52 57.7V96A4 4 0 0 1 44 96V48A4 4 0 0 1 48 44H96A4 4 0 0 1 96 52H57.7L106.8 101.2A4 4 0 0 1 101.2 106.8z" />
    <glyph glyph-name="arrows-out-thin"
      unicode="&#xEA81;"
      horiz-adv-x="256" d="M212 208V168A4 4 0 0 0 204 168V198.3L154.8 149.2A3.9000000000000004 3.9000000000000004 0 0 0 149.2 149.2A3.9000000000000004 3.9000000000000004 0 0 0 149.2 154.8L198.3 204H168A4 4 0 0 0 168 212H208A4 4 0 0 0 212 208zM101.2 106.8L52 57.7V88A4 4 0 0 1 44 88V48A4 4 0 0 1 48 44H88A4 4 0 0 1 88 52H57.7L106.8 101.2A4 4 0 0 1 101.2 106.8zM208 92A4 4 0 0 1 204 88V57.7L154.8 106.8A4 4 0 0 1 149.2 101.2L198.3 52H168A4 4 0 0 1 168 44H208A4 4 0 0 1 212 48V88A4 4 0 0 1 208 92zM57.7 204H88A4 4 0 0 1 88 212H48A4 4 0 0 1 44 208V168A4 4 0 0 1 52 168V198.3L101.2 149.2A3.9000000000000004 3.9000000000000004 0 0 1 106.8 149.2A3.9000000000000004 3.9000000000000004 0 0 1 106.8 154.8z" />
    <glyph glyph-name="arrows-vertical-thin"
      unicode="&#xEA82;"
      horiz-adv-x="256" d="M162.8 58.8A3.9000000000000004 3.9000000000000004 0 0 0 162.8 53.2L130.8 21.2A3.9000000000000004 3.9000000000000004 0 0 0 125.2 21.2L93.2 53.2A4 4 0 0 0 98.8 58.8L124 33.7V222.3L98.8 197.2A4 4 0 0 0 93.2 202.8L125.2 234.8A3.9000000000000004 3.9000000000000004 0 0 0 130.8 234.8L162.8 202.8A3.9000000000000004 3.9000000000000004 0 0 0 162.8 197.2A3.9000000000000004 3.9000000000000004 0 0 0 157.2 197.2L132 222.3V33.7L157.2 58.8A3.9000000000000004 3.9000000000000004 0 0 0 162.8 58.8z" />
    <glyph glyph-name="article-medium-thin"
      unicode="&#xEA83;"
      horiz-adv-x="256" d="M52 120A4 4 0 0 0 48 116H24A4 4 0 0 0 24 124H36V196H24A4 4 0 0 0 24 204H40A4 4 0 0 0 43.4 202.1L80 143.5L116.6 202.1A4 4 0 0 0 120 204H136A4 4 0 0 0 136 196H124V124H136A4 4 0 0 0 136 116H112A4 4 0 0 0 112 124H116V186.1L83.4 133.9A4 4 0 0 0 76.6 133.9L44 186.1V124H48A4 4 0 0 0 52 120zM168 148H240A4 4 0 0 1 240 156H168A4 4 0 0 1 168 148zM240 124H168A4 4 0 0 1 168 116H240A4 4 0 0 1 240 124zM240 92H72A4 4 0 0 1 72 84H240A4 4 0 0 1 240 92zM240 60H72A4 4 0 0 1 72 52H240A4 4 0 0 1 240 60z" />
    <glyph glyph-name="article-ny-times-thin"
      unicode="&#xEA84;"
      horiz-adv-x="256" d="M156.1 152A4 4 0 0 0 160.1 156H240.1A4 4 0 1 0 240.1 148H160.1A4 4 0 0 0 156.1 152zM240.1 124H160.1A4 4 0 0 1 160.1 116H240.1A4 4 0 1 1 240.1 124zM240.1 92H160.1A4 4 0 0 1 160.1 84H240.1A4 4 0 1 1 240.1 92zM240.1 60H72.1A4 4 0 0 1 72.1 52H240.1A4 4 0 1 1 240.1 60zM80 84A51.89999999999999 51.89999999999999 0 0 0 35.8 163.3A24 24 0 0 0 48 208A3.9000000000000004 3.9000000000000004 0 0 0 50.1 207.4L113.1 168A16 16 0 0 1 112 200A4 4 0 0 0 112 208A24 24 0 0 0 112 160A3.9000000000000004 3.9000000000000004 0 0 0 109.9 160.6L78.9 180A44 44 0 0 1 75.9 92.2V141.5A4 4 0 0 0 79.9 145.5A4 4 0 0 0 83.9 141.5V92.2A43.9 43.9 0 0 1 122.7 125.4A4.1000000000000005 4.1000000000000005 0 0 0 127.6 128.3A4.1000000000000005 4.1000000000000005 0 0 0 130.5 123.4A52 52 0 0 0 80 84zM40.6 169.8A51.50000000000001 51.50000000000001 0 0 0 68.2 186.6L46.9 200A16 16 0 0 1 40.6 169.8z" />
    <glyph glyph-name="article-thin"
      unicode="&#xEA85;"
      horiz-adv-x="256" d="M216 212H40A12 12 0 0 1 28 200V56A12 12 0 0 1 40 44H216A12 12 0 0 1 228 56V200A12 12 0 0 1 216 212zM220 56A4 4 0 0 0 216 52H40A4 4 0 0 0 36 56V200A4 4 0 0 0 40 204H216A4 4 0 0 0 220 200zM184 160A4 4 0 0 0 180 156H76A4 4 0 0 0 76 164H180A4 4 0 0 0 184 160zM184 128A4 4 0 0 0 180 124H76A4 4 0 0 0 76 132H180A4 4 0 0 0 184 128zM184 96A4 4 0 0 0 180 92H76A4 4 0 0 0 76 100H180A4 4 0 0 0 184 96z" />
    <glyph glyph-name="asterisk-simple-thin"
      unicode="&#xEA86;"
      horiz-adv-x="256" d="M212.9 151.4L134.5 125.9L183 59.2A4 4 0 0 0 182.1 53.6A4.3 4.3 0 0 0 179.7 52.8A4 4 0 0 0 176.5 54.5L128 121.2L79.5 54.5A4 4 0 0 0 76.3 52.8A4.3 4.3 0 0 0 73.9 53.6A4 4 0 0 0 73 59.2L121.5 125.9L43.1 151.4A4 4 0 0 0 45.5 159L124 133.5V216A4 4 0 0 0 132 216V133.5L210.5 159A4 4 0 1 0 212.9 151.4z" />
    <glyph glyph-name="asterisk-thin"
      unicode="&#xEA87;"
      horiz-adv-x="256" d="M207.7 82A4.1000000000000005 4.1000000000000005 0 0 0 204.2 80A4.6 4.6 0 0 0 202.2 80.5L132 121.1V40A4 4 0 0 0 124 40V121.1L53.8 80.5A4.6 4.6 0 0 0 51.8 80A4 4 0 0 0 49.8 87.5L120 128L49.8 168.5A4 4 0 0 0 53.8 175.5L124 134.9V216A4 4 0 0 0 132 216V134.9L202.2 175.5A4 4 0 1 0 206.2 168.5L136 128L206.2 87.5A4.1000000000000005 4.1000000000000005 0 0 0 207.7 82z" />
    <glyph glyph-name="at-thin"
      unicode="&#xEA88;"
      horiz-adv-x="256" d="M128 228A100 100 0 1 1 183.3 44.7A4 4 0 0 1 184.4 50.2A3.8000000000000003 3.8000000000000003 0 0 1 178.9 51.3A92 92 0 1 0 220 128C220 96.7 205 92 196 92S172 96.7 172 128V168A4 4 0 0 1 164 168V153.3A44 44 0 1 1 166.8 107.3C171.5 92.4 181.7 84 196 84C216 84 228 100.4 228 128A100.2 100.2 0 0 1 128 228zM128 92A36 36 0 1 0 164 128A36 36 0 0 0 128 92z" />
    <glyph glyph-name="atom-thin"
      unicode="&#xEA89;"
      horiz-adv-x="256" d="M191.2 128C199.7 139.7 206.7 151.3 211.6 162.4C222 185.4 222.4 203.3 212.9 212.9S185.4 222 162.4 211.6C151.3 206.7 139.7 199.7 128 191.2C116.3 199.7 104.7 206.7 93.6 211.6C70.6 222 52.7 222.4 43.1 212.9S34 185.4 44.4 162.4C49.3 151.3 56.3 139.7 64.8 128C56.3 116.3 49.3 104.7 44.4 93.6C34 70.6 33.6 52.7 43.1 43.1C47.7 38.6 54.2 36.3 62.3 36.3S81.7 39 93.6 44.4S116.3 56.3 128 64.8C139.7 56.3 151.3 49.3 162.4 44.4S184.9 36.3 193.7 36.3S208.3 38.6 212.9 43.1C222.4 52.7 222 70.6 211.6 93.6C206.7 104.7 199.7 116.3 191.2 128zM207.2 207.2C214.1 200.2 213.1 185.1 204.4 165.6A182.1 182.1 0 0 0 186.1 134.7A287.9 287.9 0 0 1 161.9 161.9A278.1 278.1 0 0 1 134.6 186.2C168.3 210.3 197 217.4 207.2 207.2zM181.2 128A291.7 291.7 0 0 0 156.3 99.7A307.9 307.9 0 0 0 128 74.8A307.9 307.9 0 0 0 99.7 99.7A291.7 291.7 0 0 0 74.8 128A291.7 291.7 0 0 0 99.7 156.3A307.9 307.9 0 0 0 128 181.2A307.9 307.9 0 0 0 156.3 156.3A291.7 291.7 0 0 0 181.2 128zM51.6 165.6C42.9 185.1 41.9 200.2 48.8 207.2C51.8 210.2 56.5 211.7 62.4 211.7C76.5 211.7 97.7 203.2 121.4 186.2A278.1 278.1 0 0 1 94.1 161.9A287.9 287.9 0 0 1 69.9 134.7A182.1 182.1 0 0 0 51.6 165.6zM48.8 48.8C41.9 55.8 42.9 70.9 51.6 90.4A182.1 182.1 0 0 0 69.9 121.3A287.9 287.9 0 0 1 94.1 94.1A278.1 278.1 0 0 1 121.4 69.8C87.7 45.7 59 38.6 48.8 48.8zM207.2 48.8C197 38.6 168.3 45.7 134.6 69.8A278.1 278.1 0 0 1 161.9 94.1A287.9 287.9 0 0 1 186.1 121.3A182.1 182.1 0 0 0 204.4 90.4C213.1 70.9 214.1 55.8 207.2000000000001 48.8zM136 128A8 8 0 1 0 128 136A8 8 0 0 0 136 128z" />
    <glyph glyph-name="baby-thin"
      unicode="&#xEA8A;"
      horiz-adv-x="256" d="M128 228A100 100 0 1 1 228 128A100.2 100.2 0 0 1 128 228zM128 36A92 92 0 0 0 120 219.6C108.2 201.3 108 184.8 108 184A20 20 0 0 1 148 184A4 4 0 0 1 140 184A12 12 0 0 0 116 184C116 184.2 116.3 201.9 129.9 220A92 92 0 0 0 128 36zM92 120A8 8 0 1 0 100 128A8 8 0 0 0 92 120zM172 128A8 8 0 1 0 164 136A8 8 0 0 0 172 128zM157.9 90.2A4 4 0 0 0 156.8 84.7A52 52 0 0 0 99.2 84.7A4 4 0 0 0 98.1 90.2A3.9000000000000004 3.9000000000000004 0 0 0 103.7 91.3A44.10000000000001 44.10000000000001 0 0 1 152.3 91.3A3.9000000000000004 3.9000000000000004 0 0 0 157.9 90.2z" />
    <glyph glyph-name="backpack-thin"
      unicode="&#xEA8B;"
      horiz-adv-x="256" d="M164 211.8V224A20.1 20.1 0 0 1 144 244H112A20.1 20.1 0 0 1 92 224V211.8A52 52 0 0 1 44 160V40A12 12 0 0 1 56 28H200A12 12 0 0 1 212 40V160A52 52 0 0 1 164 211.8zM112 236H144A12 12 0 0 0 156 224V212H100V224A12 12 0 0 0 112 236zM172 92H84V104A12 12 0 0 0 96 116H160A12 12 0 0 0 172 104zM84 84H140V72A4 4 0 0 1 148 72V84H172V36H84zM204 40A4 4 0 0 0 200 36H180V104A20.1 20.1 0 0 1 160 124H96A20.1 20.1 0 0 1 76 104V36H56A4 4 0 0 0 52 40V160A44 44 0 0 0 96 204H160A44 44 0 0 0 204 160zM148 168A4 4 0 0 0 144 164H112A4 4 0 0 0 112 172H144A4 4 0 0 0 148 168z" />
    <glyph glyph-name="backspace-thin"
      unicode="&#xEA8C;"
      horiz-adv-x="256" d="M216 212H68.5A12.1 12.1 0 0 1 58.2 206.2L12.6 130.1A4 4 0 0 1 12.6 125.9L58.2 49.8A12.1 12.1 0 0 1 68.5 44H216A12 12 0 0 1 228 56V200A12 12 0 0 1 216 212zM220 56A4 4 0 0 0 216 52H68.5A3.9000000000000004 3.9000000000000004 0 0 0 65.1 53.9L20.7 128L65.1 202.1A3.9000000000000004 3.9000000000000004 0 0 0 68.5 204H216A4 4 0 0 0 220 200zM162.8 149.2L141.7 128L162.8 106.8A3.9000000000000004 3.9000000000000004 0 0 0 162.8 101.2A3.8000000000000003 3.8000000000000003 0 0 0 160 100A3.9000000000000004 3.9000000000000004 0 0 0 157.2 101.2L136 122.3L114.8 101.2A3.8000000000000003 3.8000000000000003 0 0 0 112 100A3.9000000000000004 3.9000000000000004 0 0 0 109.2 101.2A3.9000000000000004 3.9000000000000004 0 0 0 109.2 106.8L130.3 128L109.2 149.2A4 4 0 0 0 114.8 154.8L136 133.7L157.2 154.8A4 4 0 1 0 162.8 149.2z" />
    <glyph glyph-name="bag-simple-thin"
      unicode="&#xEA8D;"
      horiz-adv-x="256" d="M216 188H171.8A44 44 0 0 1 84.2 188H40A12 12 0 0 1 28 176V48A12 12 0 0 1 40 36H216A12 12 0 0 1 228 48V176A12 12 0 0 1 216 188zM128 220A36.1 36.1 0 0 0 163.8 188H92.2A36.1 36.1 0 0 0 128 220zM220 48A4 4 0 0 0 216 44H40A4 4 0 0 0 36 48V176A4 4 0 0 0 40 180H216A4 4 0 0 0 220 176z" />
    <glyph glyph-name="bag-thin"
      unicode="&#xEA8E;"
      horiz-adv-x="256" d="M216 188H171.8A44 44 0 0 1 84.2 188H40A12 12 0 0 1 28 176V48A12 12 0 0 1 40 36H216A12 12 0 0 1 228 48V176A12 12 0 0 1 216 188zM128 220A36.1 36.1 0 0 0 163.8 188H92.2A36.1 36.1 0 0 0 128 220zM220 48A4 4 0 0 0 216 44H40A4 4 0 0 0 36 48V176A4 4 0 0 0 40 180H84V152A4 4 0 0 1 92 152V180H164V152A4 4 0 0 1 172 152V180H216A4 4 0 0 0 220 176z" />
    <glyph glyph-name="balloon-thin"
      unicode="&#xEA8F;"
      horiz-adv-x="256" d="M128 236A84.1 84.1 0 0 1 44 152C44 129.4 53.1 104.4 68.3 85C80.8 69 95.8 58.5 111.8 54.2L100.3 25.5A3.8000000000000003 3.8000000000000003 0 0 1 100.7 21.8A4 4 0 0 1 104 20H152A4 4 0 0 1 155.3 21.8A3.8000000000000003 3.8000000000000003 0 0 1 155.7 25.5L144.2 54.2C160.2 58.5 175.2 69 187.7 85C202.9 104.4 212 129.4 212 152A84.1 84.1 0 0 1 128 236zM146.1 28H109.9L119.7 52.6A57.7 57.7 0 0 1 136.3 52.6zM128 60C85.9 60 52 110.3 52 152A76 76 0 0 0 204 152C204 110.3 170.1 60 128 60zM179.3 160.7A4 4 0 0 0 176 156.1H175.3A4 4 0 0 0 171.4 159.4A44 44 0 0 1 135.3 195.5A4 4 0 0 0 136.7 203.4A52.1 52.1 0 0 0 179.3 160.7z" />
    <glyph glyph-name="bandaids-thin"
      unicode="&#xEA90;"
      horiz-adv-x="256" d="M178.9 128L209.5 158.5A36.1 36.1 0 0 1 158.5 209.5L128 178.9L97.5 209.5A36.1 36.1 0 0 1 46.5 158.5L77.1 128L46.5 97.5A36.1 36.1 0 0 1 97.5 46.5L128 77.1L158.5 46.5A36.1 36.1 0 0 1 209.5 97.5zM164.2 203.8A28 28 0 0 0 203.8 164.2L173.3 133.7L133.7 173.3zM167.6 128L128 88.4L88.4 128L128 167.6zM52.2 164.2A28 28 0 0 0 91.8 203.8L122.3 173.3L82.7 133.7zM91.8 52.2A28 28 0 0 0 52.2 91.8L82.7 122.3L122.3 82.7zM203.8 52.2A28 28 0 0 0 164.2 52.2L133.7 82.7L173.3 122.3L203.8 91.8A28 28 0 0 0 203.8 52.2zM120 128A8 8 0 1 0 128 120A8 8 0 0 0 120 128z" />
    <glyph glyph-name="bank-thin"
      unicode="&#xEA91;"
      horiz-adv-x="256" d="M24 156H52V84H32A4 4 0 0 1 32 76H224A4 4 0 0 1 224 84H204V156H232A3.9000000000000004 3.9000000000000004 0 0 1 235.8 158.9A4 4 0 0 1 234.1 163.4L130.1 227.4A4 4 0 0 1 125.9 227.4L21.9 163.4A4 4 0 0 1 20.2 158.9A3.9000000000000004 3.9000000000000004 0 0 1 24 156zM60 156H100V84H60zM148 156V84H108V156zM196 84H156V156H196zM128 219.3L217.9 164H38.1zM244 48A4 4 0 0 0 240 44H16A4 4 0 0 0 16 52H240A4 4 0 0 0 244 48z" />
    <glyph glyph-name="barbell-thin"
      unicode="&#xEA92;"
      horiz-adv-x="256" d="M248 132H236V168A12 12 0 0 1 224 180H204V192A12 12 0 0 1 192 204H168A12 12 0 0 1 156 192V132H100V192A12 12 0 0 1 88 204H64A12 12 0 0 1 52 192V180H32A12 12 0 0 1 20 168V132H8A4 4 0 0 1 8 124H20V88A12 12 0 0 1 32 76H52V64A12 12 0 0 1 64 52H88A12 12 0 0 1 100 64V124H156V64A12 12 0 0 1 168 52H192A12 12 0 0 1 204 64V76H224A12 12 0 0 1 236 88V124H248A4 4 0 0 1 248 132zM32 84A4 4 0 0 0 28 88V168A4 4 0 0 0 32 172H52V84zM92 64A4 4 0 0 0 88 60H64A4 4 0 0 0 60 64V192A4 4 0 0 0 64 196H88A4 4 0 0 0 92 192zM196 64A4 4 0 0 0 192 60H168A4 4 0 0 0 164 64V192A4 4 0 0 0 168 196H192A4 4 0 0 0 196 192zM228 88A4 4 0 0 0 224 84H204V172H224A4 4 0 0 0 228 168z" />
    <glyph glyph-name="barcode-thin"
      unicode="&#xEA93;"
      horiz-adv-x="256" d="M228 208V168A4 4 0 0 0 220 168V204H184A4 4 0 0 0 184 212H224A4 4 0 0 0 228 208zM72 52H36V88A4 4 0 0 1 28 88V48A4 4 0 0 1 32 44H72A4 4 0 0 1 72 52zM224 92A4 4 0 0 1 220 88V52H184A4 4 0 0 1 184 44H224A4 4 0 0 1 228 48V88A4 4 0 0 1 224 92zM32 164A4 4 0 0 1 36 168V204H72A4 4 0 0 1 72 212H32A4 4 0 0 1 28 208V168A4 4 0 0 1 32 164zM80 172A4 4 0 0 1 76 168V88A4 4 0 0 1 84 88V168A4 4 0 0 1 80 172zM180 168A4 4 0 0 1 172 168V88A4 4 0 0 1 180 88zM144 172A4 4 0 0 1 140 168V88A4 4 0 0 1 148 88V168A4 4 0 0 1 144 172zM112 172A4 4 0 0 1 108 168V88A4 4 0 0 1 116 88V168A4 4 0 0 1 112 172z" />
    <glyph glyph-name="barricade-thin"
      unicode="&#xEA94;"
      horiz-adv-x="256" d="M224 188H32A12 12 0 0 1 20 176V104A12 12 0 0 1 32 92H60V56A4 4 0 0 1 68 56V92H188V56A4 4 0 0 1 196 56V92H224A12 12 0 0 1 236 104V176A12 12 0 0 1 224 188zM228 176V117.7L165.7 180H224A4 4 0 0 0 228 176zM32 180H82.3L162.3 100H101.7L28 173.7V176A4 4 0 0 0 32 180zM28 104V162.3L90.3 100H32A4 4 0 0 0 28 104zM224 100H173.7L93.7 180H154.3L228 106.3V104A4 4 0 0 0 224 100z" />
    <glyph glyph-name="baseball-thin"
      unicode="&#xEA95;"
      horiz-adv-x="256" d="M128 228A100 100 0 1 1 228 128A100.2 100.2 0 0 1 128 228zM65.7 60.4A88.6 88.6 0 0 1 72.4 68.6A4 4 0 1 1 66 73.3Q63.1 69.5 60 66.1A91.8 91.8 0 0 0 60 189.9Q63.2 186.4 66 182.7A3.9000000000000004 3.9000000000000004 0 0 1 69.2 181.1A4.2 4.2 0 0 1 71.6 181.8A4 4 0 0 1 72.4 187.4A88.6 88.6 0 0 1 65.7 195.6A91.70000000000002 91.70000000000002 0 0 0 190.3 195.6A88.6 88.6 0 0 1 183.6 187.4A4 4 0 0 1 184.4 181.8A4.2 4.2 0 0 1 186.8000000000001 181.1A3.9000000000000004 3.9000000000000004 0 0 1 190 182.7Q192.9 186.4 196 189.9A91.8 91.8 0 0 0 196 66.1Q192.9 69.6 190 73.3A4 4 0 1 1 183.6 68.6A88.6 88.6 0 0 1 190.3 60.4A91.70000000000002 91.70000000000002 0 0 0 65.7 60.4zM176.8 157.2A83.2 83.2 0 0 1 173.1 142.3A4 4 0 0 0 169.2 139H168.5A4.1000000000000005 4.1000000000000005 0 0 0 165.2 143.6A100.9 100.9 0 0 0 169.2 159.8A4 4 0 0 0 174.2 162.3A4.1000000000000005 4.1000000000000005 0 0 0 176.8 157.2zM176.8 98.8A4.1000000000000005 4.1000000000000005 0 0 0 174.2 93.7L173 93.5A3.9000000000000004 3.9000000000000004 0 0 0 169.2 96.2A100.9 100.9 0 0 0 165.2 112.4A4.1000000000000005 4.1000000000000005 0 0 0 168.5 117A4.1000000000000005 4.1000000000000005 0 0 0 173.1 113.7A83.2 83.2 0 0 1 176.8 98.8zM79.2 157.2A4.1000000000000005 4.1000000000000005 0 0 0 81.8 162.3A4 4 0 0 0 86.8 159.8A100.9 100.9 0 0 0 90.8 143.6A4.1000000000000005 4.1000000000000005 0 0 0 87.5 139H86.8A4 4 0 0 0 82.9 142.3A83.2 83.2 0 0 1 79.2 157.2zM90.8 112.4A100.9 100.9 0 0 0 86.8 96.2A3.9000000000000004 3.9000000000000004 0 0 0 83 93.5L81.8 93.7A4.1000000000000005 4.1000000000000005 0 0 0 79.2 98.8A83.2 83.2 0 0 1 82.9 113.7A4.1000000000000005 4.1000000000000005 0 0 0 87.5 117A4.1000000000000005 4.1000000000000005 0 0 0 90.8 112.4z" />
    <glyph glyph-name="basketball-thin"
      unicode="&#xEA96;"
      horiz-adv-x="256" d="M199.2 57.8A100 100 0 0 1 199.2 198.2L198.8 198.6L198.4 198.9A99.7 99.7 0 0 1 57.6 198.9L57.2 198.6L56.8 198.2A100 100 0 0 1 56.8 57.8C56.9 57.7 57 57.5 57.2 57.4L57.6 57.1A99.7 99.7 0 0 1 198.4 57.1L198.8 57.4C199 57.5 199.1 57.7 199.2 57.8zM36.1 124H83.9A91.1 91.1 0 0 0 60 66.1A90.9 90.9 0 0 0 36.1 124zM60 189.9A91.1 91.1 0 0 0 83.9 132H36.1A90.9 90.9 0 0 0 60 189.9zM219.9 132H172.1A91.1 91.1 0 0 0 196 189.9A90.9 90.9 0 0 0 219.9 132zM164.1 132H132V219.9A91.8 91.8 0 0 0 190.3 195.6A98.9 98.9 0 0 1 164.1 132zM124 132H91.9A98.9 98.9 0 0 1 65.7 195.6A91.8 91.8 0 0 0 124 219.9zM91.9 124H124V36.1A91.8 91.8 0 0 0 65.7 60.4A98.9 98.9 0 0 1 91.9 124zM132 124H164.1A98.9 98.9 0 0 1 190.3 60.4A91.8 91.8 0 0 0 132 36.1zM172.1 124H219.9A90.9 90.9 0 0 0 196 66.1A91.1 91.1 0 0 0 172.1 124z" />
    <glyph glyph-name="bathtub-thin"
      unicode="&#xEA97;"
      horiz-adv-x="256" d="M232 156H204V160A4 4 0 0 1 200 164H136A4 4 0 0 1 132 160V156H60V204A16 16 0 0 0 92 204A4 4 0 0 1 100 204A24 24 0 0 1 52 204V156H24A12 12 0 0 1 12 144V112A52 52 0 0 1 64 60H68V40A4 4 0 0 1 76 40V60H180V40A4 4 0 0 1 188 40V60H192A52 52 0 0 1 244 112V144A12 12 0 0 1 232 156zM140 156H196V116H140zM236 112A44 44 0 0 0 192 68H64A44 44 0 0 0 20 112V144A4 4 0 0 0 24 148H132V112A4 4 0 0 1 136 108H200A4 4 0 0 1 204 112V148H232A4 4 0 0 0 236 144z" />
    <glyph glyph-name="battery-charging-thin"
      unicode="&#xEA98;"
      horiz-adv-x="256" d="M252 160V96A4 4 0 0 0 244 96V160A4 4 0 0 0 252 160zM220 184V72A20.1 20.1 0 0 0 200 52H48A20.1 20.1 0 0 0 28 72V184A20.1 20.1 0 0 0 48 204H200A20.1 20.1 0 0 0 220 184zM212 184A12 12 0 0 1 200 196H48A12 12 0 0 1 36 184V72A12 12 0 0 1 48 60H200A12 12 0 0 1 212 72zM140 132H113.9L127.7 166.5A4 4 0 1 1 120.3 169.5L104.3 129.5A3.8000000000000003 3.8000000000000003 0 0 1 104.7 125.8A4 4 0 0 1 108 124H134.1L120.3 89.5A4 4 0 1 1 127.7 86.5L143.7 126.5A3.8000000000000003 3.8000000000000003 0 0 1 143.3 130.2A4 4 0 0 1 140 132z" />
    <glyph glyph-name="battery-charging-vertical-thin"
      unicode="&#xEA99;"
      horiz-adv-x="256" d="M92 248A4 4 0 0 0 96 252H160A4 4 0 0 0 160 244H96A4 4 0 0 0 92 248zM204 200V48A20.1 20.1 0 0 0 184 28H72A20.1 20.1 0 0 0 52 48V200A20.1 20.1 0 0 0 72 220H184A20.1 20.1 0 0 0 204 200zM196 200A12 12 0 0 1 184 212H72A12 12 0 0 1 60 200V48A12 12 0 0 1 72 36H184A12 12 0 0 1 196 48zM144 128H117.9L131.7 162.5A4 4 0 1 1 124.3 165.5L108.3 125.5A3.8000000000000003 3.8000000000000003 0 0 1 108.7 121.8A4 4 0 0 1 112 120H138.1L124.3 85.5A4 4 0 1 1 131.7 82.5L147.7 122.5A3.8000000000000003 3.8000000000000003 0 0 1 147.3 126.2A4 4 0 0 1 144 128z" />
    <glyph glyph-name="battery-empty-thin"
      unicode="&#xEA9A;"
      horiz-adv-x="256" d="M252 160V96A4 4 0 0 0 244 96V160A4 4 0 0 0 252 160zM220 184V72A20.1 20.1 0 0 0 200 52H48A20.1 20.1 0 0 0 28 72V184A20.1 20.1 0 0 0 48 204H200A20.1 20.1 0 0 0 220 184zM212 184A12 12 0 0 1 200 196H48A12 12 0 0 1 36 184V72A12 12 0 0 1 48 60H200A12 12 0 0 1 212 72z" />
    <glyph glyph-name="battery-full-thin"
      unicode="&#xEA9B;"
      horiz-adv-x="256" d="M252 160V96A4 4 0 0 0 244 96V160A4 4 0 0 0 252 160zM220 184V72A20.1 20.1 0 0 0 200 52H48A20.1 20.1 0 0 0 28 72V184A20.1 20.1 0 0 0 48 204H200A20.1 20.1 0 0 0 220 184zM212 184A12 12 0 0 1 200 196H48A12 12 0 0 1 36 184V72A12 12 0 0 1 48 60H200A12 12 0 0 1 212 72zM142.4 172A4 4 0 0 1 138.4 168V88A4 4 0 0 1 146.4 88V168A4 4 0 0 1 142.4 172zM105.6 172A4 4 0 0 1 101.6 168V88A4 4 0 0 1 109.6 88V168A4 4 0 0 1 105.6 172zM68.8 172A4 4 0 0 1 64.8 168V88A4 4 0 0 1 72.8 88V168A4 4 0 0 1 68.8 172zM179.2 172A4 4 0 0 1 175.2 168V88A4 4 0 0 1 183.2 88V168A4 4 0 0 1 179.2 172z" />
    <glyph glyph-name="battery-high-thin"
      unicode="&#xEA9C;"
      horiz-adv-x="256" d="M252 160V96A4 4 0 0 0 244 96V160A4 4 0 0 0 252 160zM220 184V72A20.1 20.1 0 0 0 200 52H48A20.1 20.1 0 0 0 28 72V184A20.1 20.1 0 0 0 48 204H200A20.1 20.1 0 0 0 220 184zM212 184A12 12 0 0 1 200 196H48A12 12 0 0 1 36 184V72A12 12 0 0 1 48 60H200A12 12 0 0 1 212 72zM142.4 172A4 4 0 0 1 138.4 168V88A4 4 0 0 1 146.4 88V168A4 4 0 0 1 142.4 172zM105.6 172A4 4 0 0 1 101.6 168V88A4 4 0 0 1 109.6 88V168A4 4 0 0 1 105.6 172zM68.8 172A4 4 0 0 1 64.8 168V88A4 4 0 0 1 72.8 88V168A4 4 0 0 1 68.8 172z" />
    <glyph glyph-name="battery-low-thin"
      unicode="&#xEA9D;"
      horiz-adv-x="256" d="M252 160V96A4 4 0 0 0 244 96V160A4 4 0 0 0 252 160zM220 184V72A20.1 20.1 0 0 0 200 52H48A20.1 20.1 0 0 0 28 72V184A20.1 20.1 0 0 0 48 204H200A20.1 20.1 0 0 0 220 184zM212 184A12 12 0 0 1 200 196H48A12 12 0 0 1 36 184V72A12 12 0 0 1 48 60H200A12 12 0 0 1 212 72zM68.8 172A4 4 0 0 1 64.8 168V88A4 4 0 0 1 72.8 88V168A4 4 0 0 1 68.8 172z" />
    <glyph glyph-name="battery-medium-thin"
      unicode="&#xEA9E;"
      horiz-adv-x="256" d="M252 160V96A4 4 0 0 0 244 96V160A4 4 0 0 0 252 160zM220 184V72A20.1 20.1 0 0 0 200 52H48A20.1 20.1 0 0 0 28 72V184A20.1 20.1 0 0 0 48 204H200A20.1 20.1 0 0 0 220 184zM212 184A12 12 0 0 1 200 196H48A12 12 0 0 1 36 184V72A12 12 0 0 1 48 60H200A12 12 0 0 1 212 72zM105.6 172A4 4 0 0 1 101.6 168V88A4 4 0 0 1 109.6 88V168A4 4 0 0 1 105.6 172zM68.8 172A4 4 0 0 1 64.8 168V88A4 4 0 0 1 72.8 88V168A4 4 0 0 1 68.8 172z" />
    <glyph glyph-name="battery-plus-thin"
      unicode="&#xEA9F;"
      horiz-adv-x="256" d="M252 160V96A4 4 0 0 0 244 96V160A4 4 0 0 0 252 160zM220 184V72A20.1 20.1 0 0 0 200 52H48A20.1 20.1 0 0 0 28 72V184A20.1 20.1 0 0 0 48 204H200A20.1 20.1 0 0 0 220 184zM212 184A12 12 0 0 1 200 196H48A12 12 0 0 1 36 184V72A12 12 0 0 1 48 60H200A12 12 0 0 1 212 72zM148 132H128V152A4 4 0 0 1 120 152V132H100A4 4 0 0 1 100 124H120V104A4 4 0 0 1 128 104V124H148A4 4 0 0 1 148 132z" />
    <glyph glyph-name="battery-warning-thin"
      unicode="&#xEAA0;"
      horiz-adv-x="256" d="M120 128V168A4 4 0 0 0 128 168V128A4 4 0 0 0 120 128zM248 164A4 4 0 0 1 244 160V96A4 4 0 0 1 252 96V160A4 4 0 0 1 248 164zM220 184V72A20.1 20.1 0 0 0 200 52H48A20.1 20.1 0 0 0 28 72V184A20.1 20.1 0 0 0 48 204H200A20.1 20.1 0 0 0 220 184zM212 184A12 12 0 0 1 200 196H48A12 12 0 0 1 36 184V72A12 12 0 0 1 48 60H200A12 12 0 0 1 212 72zM124 100A8 8 0 1 1 132 92A8 8 0 0 1 124 100z" />
    <glyph glyph-name="battery-warning-vertical-thin"
      unicode="&#xEAA1;"
      horiz-adv-x="256" d="M124 124V164A4 4 0 0 0 132 164V124A4 4 0 0 0 124 124zM96 244H160A4 4 0 0 1 160 252H96A4 4 0 0 1 96 244zM204 200V48A20.1 20.1 0 0 0 184 28H72A20.1 20.1 0 0 0 52 48V200A20.1 20.1 0 0 0 72 220H184A20.1 20.1 0 0 0 204 200zM196 200A12 12 0 0 1 184 212H72A12 12 0 0 1 60 200V48A12 12 0 0 1 72 36H184A12 12 0 0 1 196 48zM128 96A8 8 0 1 1 136 88A8 8 0 0 1 128 96z" />
    <glyph glyph-name="bed-thin"
      unicode="&#xEAA2;"
      horiz-adv-x="256" d="M208 180H20V208A4 4 0 0 1 12 208V48A4 4 0 0 1 20 48V84H236V48A4 4 0 0 1 244 48V144A36 36 0 0 1 208 180zM20 172H100V92H20zM108 92V172H208A28.1 28.1 0 0 0 236 144V92z" />
    <glyph glyph-name="beer-bottle-thin"
      unicode="&#xEAA3;"
      horiz-adv-x="256" d="M242.8 210.8L210.8 242.8A4 4 0 0 1 205.2 237.2L209.9 232.4L150.3 187.7L111.2 179.9A3.1 3.1 0 0 1 109.2 178.8L24.5 94.1A19.8 19.8 0 0 1 24.5 65.9L65.9 24.5A19.8 19.8 0 0 1 94.1 24.5L162.8 93.2L178.8 109.2A3.1 3.1 0 0 1 179.9 111.2L187.7 150.3L232.4000000000001 209.9L237.2000000000001 205.2A3.9000000000000004 3.9000000000000004 0 0 1 242.8000000000001 205.2A3.9000000000000004 3.9000000000000004 0 0 1 242.8000000000001 210.8zM104 45.7L45.7 104L96 154.3L154.3 96zM88.5 30.1A12.2 12.2 0 0 0 71.5 30.1L30.1 71.5A12.1 12.1 0 0 0 30.1 88.5L40 98.3L98.3 40zM180.8 154.4A3.3 3.3 0 0 1 180.1 152.8L172.3 114L160 101.7L101.7 160L114 172.3L152.8 180.1A3.3 3.3 0 0 1 154.4 180.8L215.6 226.7L226.7 215.6z" />
    <glyph glyph-name="behance-logo-thin"
      unicode="&#xEAA4;"
      horiz-adv-x="256" d="M164 176A4 4 0 0 0 168 180H232A4 4 0 0 0 232 172H168A4 4 0 0 0 164 176zM244 104A4 4 0 0 0 240 100H164.2A36.1 36.1 0 0 1 225.5 78.5A4 4 0 0 0 231.1 72.9A44 44 0 1 0 244 104zM235.8 108A36 36 0 0 1 164.2 108zM136 98A38 38 0 0 0 98 60H32A4 4 0 0 0 28 64V192A4 4 0 0 0 32 196H86A34 34 0 0 0 106.7 135A38 38 0 0 0 136 98zM36 136H86A26 26 0 0 1 86 188H36zM128 98A30.100000000000005 30.100000000000005 0 0 1 98 128H36V68H98A30.100000000000005 30.100000000000005 0 0 1 128 98z" />
    <glyph glyph-name="bell-ringing-thin"
      unicode="&#xEAA5;"
      horiz-adv-x="256" d="M203.8 144A75.6 75.6 0 0 1 128.6 220H128A76 76 0 0 1 52.2 144C52.2 108.8 44.8 88.7 38.6 78.1A12.2 12.2 0 0 1 38.6 66A11.9 11.9 0 0 1 49 60H92V56A36 36 0 0 1 164 56V60H207A11.9 11.9 0 0 1 217.4 66A12.2 12.2 0 0 1 217.4 78.1C211.2000000000001 88.7 203.8000000000001 108.8 203.8000000000001 144zM156 56A28 28 0 0 0 100 56V60H156zM210.5 70A4.1000000000000005 4.1000000000000005 0 0 0 207 68H49A4.1000000000000005 4.1000000000000005 0 0 0 45.5 70A4 4 0 0 0 45.6 74C52.2 85.5 60.2 107 60.2 144A67.9 67.9 0 0 0 128 212H128.5A67.6 67.6 0 0 0 195.8 144C195.8 107 203.8 85.5 210.4 74A4 4 0 0 0 210.5 70zM223.1 186.3A3.8000000000000003 3.8000000000000003 0 0 0 221.4 185.9A4 4 0 0 0 217.8 188.1A100.4 100.4 0 0 1 181.3 228.6A4 4 0 1 0 185.6 235.4A108.3 108.3 0 0 0 224.9 191.7A4 4 0 0 0 223.1 186.3zM34.6 185.9A3.8000000000000003 3.8000000000000003 0 0 0 32.9 186.3A4 4 0 0 0 31.1 191.7A108.3 108.3 0 0 0 70.4 235.4A4 4 0 1 0 74.7 228.6A100.4 100.4 0 0 1 38.2 188.1A4 4 0 0 0 34.6 185.9z" />
    <glyph glyph-name="bell-simple-ringing-thin"
      unicode="&#xEAA6;"
      horiz-adv-x="256" d="M164 32A4 4 0 0 0 160 28H96A4 4 0 0 0 96 36H160A4 4 0 0 0 164 32zM217.4 78.1A12.2 12.2 0 0 0 217.4 66A11.9 11.9 0 0 0 207 60H49A11.9 11.9 0 0 0 38.6 66A12.2 12.2 0 0 0 38.6 78.1C44.8 88.7 52.2 108.8 52.2 144A76 76 0 0 0 128 220H128.6A75.6 75.6 0 0 0 203.8 144C203.8 108.8 211.2 88.7 217.4 78.1zM210.4 74C203.8 85.5 195.8 107 195.8 144A67.6 67.6 0 0 1 128.5 212H128A67.9 67.9 0 0 1 60.2 144C60.2 107 52.2 85.5 45.6 74A4 4 0 0 1 45.5 70A4.1000000000000005 4.1000000000000005 0 0 1 49 68H207A4.1000000000000005 4.1000000000000005 0 0 1 210.5 70A4 4 0 0 1 210.4 74zM224.9 191.7A108.3 108.3 0 0 1 185.6 235.4A4 4 0 1 1 181.3 228.6A100.4 100.4 0 0 0 217.8 188.1A4 4 0 0 1 221.4 185.9A3.8000000000000003 3.8000000000000003 0 0 1 223.1 186.3A4 4 0 0 1 224.9 191.7zM38.2 188.1A100.4 100.4 0 0 0 74.7 228.6A4 4 0 1 1 70.4 235.4A108.3 108.3 0 0 1 31.1 191.7A4 4 0 0 1 32.9 186.3A3.8000000000000003 3.8000000000000003 0 0 1 34.6 185.9A4 4 0 0 1 38.2 188.1z" />
    <glyph glyph-name="bell-simple-slash-thin"
      unicode="&#xEAA7;"
      horiz-adv-x="256" d="M51 218.7A4 4 0 1 1 45 213.3L63.9 192.6A75.6 75.6 0 0 1 52.2 152V144C52.2 108.8 44.8 88.7 38.6 78.1A12.1 12.1 0 0 1 49 60H184.4L205 37.3A4.1000000000000005 4.1000000000000005 0 0 1 210.7 37A4.2 4.2 0 0 1 211 42.7zM49 68A4.1000000000000005 4.1000000000000005 0 0 0 45.5 70A4.1000000000000005 4.1000000000000005 0 0 0 45.6 74.1C52.2 85.5 60.2 107 60.2 144V152A67.8 67.8 0 0 0 69.5 186.4L177.1 68zM164 32A4 4 0 0 0 160 28H96A4 4 0 0 0 96 36H160A4 4 0 0 0 164 32zM89 212.6A4 4 0 0 0 90.5 218.1A76 76 0 0 0 128.6 228C170.1 227.7 203.8 193.2 203.8 151.1V144C203.8 121.7 206.7 102.8 212.5 88.1A4 4 0 0 0 210.3 82.9L208.8 82.7A3.9000000000000004 3.9000000000000004 0 0 0 205.1 85.2C198.9 100.9 195.8 120.6 195.8 144V151.1C195.8 188.8 165.6 219.7 128.5 220H128A66.7 66.7 0 0 1 94.5 211.1A4.1000000000000005 4.1000000000000005 0 0 0 89 212.6z" />
    <glyph glyph-name="bell-simple-thin"
      unicode="&#xEAA8;"
      horiz-adv-x="256" d="M164 32A4 4 0 0 0 160 28H96A4 4 0 0 0 96 36H160A4 4 0 0 0 164 32zM217.4 66A12.1 12.1 0 0 0 207 60H49A12.1 12.1 0 0 0 38.6 78.1C44.8 88.7 52.2 108.8 52.2 144V152A76 76 0 0 0 128 228H128.6C170.1 227.7 203.8 193.2 203.8 151.1V144C203.8 108.8 211.2 88.7 217.4 78.1A12.2 12.2 0 0 0 217.4 66zM210.4 74.1C203.8 85.5 195.8 107 195.8 144V151.1C195.8 188.8 165.6 219.7 128.5 220H128A67.8 67.8 0 0 1 60.2 152V144C60.2 107 52.2 85.5 45.6 74.1A4.1000000000000005 4.1000000000000005 0 0 1 45.5 70A4.1000000000000005 4.1000000000000005 0 0 1 49 68H207A4.1000000000000005 4.1000000000000005 0 0 1 210.5 70A4.1000000000000005 4.1000000000000005 0 0 1 210.4 74.1z" />
    <glyph glyph-name="bell-simple-z-thin"
      unicode="&#xEAA9;"
      horiz-adv-x="256" d="M164 32A4 4 0 0 0 160 28H96A4 4 0 0 0 96 36H160A4 4 0 0 0 164 32zM217.4 66A11.9 11.9 0 0 0 207 60H49A11.9 11.9 0 0 0 38.6 66A12.2 12.2 0 0 0 38.6 78.1C44.8 88.7 52.2 108.8 52.2 144V152A76 76 0 0 0 128 228H128.6C170.1 227.7 203.8 193.2 203.8 151.1V144C203.8 108.8 211.2 88.7 217.4 78.1A12.2 12.2 0 0 0 217.4 66zM210.4 74C203.8 85.5 195.8 107 195.8 144V151.1C195.8 188.8 165.6 219.7 128.5 220H128A67.9 67.9 0 0 1 60.2 152V144C60.2 107 52.2 85.5 45.6 74A4 4 0 0 1 45.5 70A4.1000000000000005 4.1000000000000005 0 0 1 49 68H207A4.1000000000000005 4.1000000000000005 0 0 1 210.5 70A4 4 0 0 1 210.4 74zM148 116H116.5L151.1 157.4A4 4 0 0 1 151.6 161.7A3.9000000000000004 3.9000000000000004 0 0 1 148 164H108A4 4 0 0 1 108 156H139.5L104.9 114.6A4 4 0 0 1 104.4 110.3A3.9000000000000004 3.9000000000000004 0 0 1 108 108H148A4 4 0 0 1 148 116z" />
    <glyph glyph-name="bell-slash-thin"
      unicode="&#xEAAA;"
      horiz-adv-x="256" d="M51 218.7A4 4 0 1 1 45 213.3L63.9 192.6A75.6 75.6 0 0 1 52.2 152V144C52.2 108.8 44.8 88.7 38.6 78.1A12.2 12.2 0 0 1 38.6 66A11.9 11.9 0 0 1 49 60H92V56A36 36 0 0 1 164 56V60H184.4L205 37.3A4.1000000000000005 4.1000000000000005 0 0 1 210.7 37A4.2 4.2 0 0 1 211 42.7zM156 56A28 28 0 0 0 100 56V60H156zM49 68A4.1000000000000005 4.1000000000000005 0 0 0 45.5 70A4 4 0 0 0 45.6 74C52.2 85.5 60.2 107 60.2 144V152A67.8 67.8 0 0 0 69.5 186.4L177.1 68zM89 212.6A4.1000000000000005 4.1000000000000005 0 0 0 90.5 218.1A75.9 75.9 0 0 0 128 228H128.6C170.1 227.7 203.8 193.2 203.8 151.1V144C203.8 121.6 206.7 102.9 212.5 88.1A3.9000000000000004 3.9000000000000004 0 0 0 210.3 83L208.8 82.7A3.9000000000000004 3.9000000000000004 0 0 0 205.1 85.2C198.9 100.9 195.8 120.6 195.8 144V151.1C195.8 188.8 165.6 219.7 128.5 220H128A67.7 67.7 0 0 1 94.5 211.1A4.1000000000000005 4.1000000000000005 0 0 0 89 212.6z" />
    <glyph glyph-name="bell-thin"
      unicode="&#xEAAB;"
      horiz-adv-x="256" d="M217.4 78.1C211.2 88.7 203.8 108.8 203.8 144V151.1C203.8 193.2 170.1 227.7 128.6 228H128A76 76 0 0 1 52.2 152V144C52.2 108.8 44.8 88.7 38.6 78.1A12.1 12.1 0 0 1 49 60H92V56A36 36 0 0 1 164 56V60H207A12.1 12.1 0 0 1 217.4 78.1zM156 56A28 28 0 0 0 100 56V60H156zM210.5 70A4.1000000000000005 4.1000000000000005 0 0 0 207 68H49A4.1000000000000005 4.1000000000000005 0 0 0 45.5 70A4.1000000000000005 4.1000000000000005 0 0 0 45.6 74.1C52.2 85.5 60.2 107 60.2 144V152A67.8 67.8 0 0 0 128 220H128.5C165.6 219.7 195.8 188.8 195.8 151.1V144C195.8 107 203.8 85.5 210.4 74.1A4.1000000000000005 4.1000000000000005 0 0 0 210.5 70z" />
    <glyph glyph-name="bell-z-thin"
      unicode="&#xEAAC;"
      horiz-adv-x="256" d="M217.4 78.1C211.2 88.7 203.8 108.8 203.8 144V151.1C203.8 193.2 170.1 227.7 128.6 228H128A76 76 0 0 1 52.2 152V144C52.2 108.8 44.8 88.7 38.6 78.1A12.2 12.2 0 0 1 38.6 66A11.9 11.9 0 0 1 49 60H92V56A36 36 0 0 1 164 56V60H207A11.9 11.9 0 0 1 217.4 66A12.2 12.2 0 0 1 217.4 78.1zM156 56A28 28 0 0 0 100 56V60H156zM210.5 70A4.1000000000000005 4.1000000000000005 0 0 0 207 68H49A4.1000000000000005 4.1000000000000005 0 0 0 45.5 70A4 4 0 0 0 45.6 74C52.2 85.5 60.2 107 60.2 144V152A67.9 67.9 0 0 0 128 220H128.5C165.6 219.7 195.8 188.8 195.8 151.1V144C195.8 107 203.8 85.5 210.4 74A4 4 0 0 0 210.5 70zM152 112A4 4 0 0 0 148 108H108A3.9000000000000004 3.9000000000000004 0 0 0 104.4 110.3A4 4 0 0 0 104.9 114.6L139.5 156H108A4 4 0 0 0 108 164H148A3.9000000000000004 3.9000000000000004 0 0 0 151.6 161.7000000000001A4 4 0 0 0 151.1 157.4L116.5 116H148A4 4 0 0 0 152 112z" />
    <glyph glyph-name="bezier-curve-thin"
      unicode="&#xEAAD;"
      horiz-adv-x="256" d="M217.8 107.9A92.6 92.6 0 0 1 165.5 172H240A4 4 0 0 1 240 180H155.7A28 28 0 0 1 100.3 180H16A4 4 0 0 1 16 172H90.5A92.6 92.6 0 0 1 38.2 107.9A27.900000000000002 27.900000000000002 0 1 1 46.2 107.3A84.6 84.6 0 0 0 101.3 167.6A28 28 0 0 1 154.7 167.6A84.6 84.6 0 0 0 209.8 107.3A28.1 28.1 0 1 1 217.8 107.9zM60 80A20 20 0 1 0 40 100A20.1 20.1 0 0 0 60 80zM128 156A20 20 0 1 0 148 176A20.1 20.1 0 0 0 128 156zM216 60A20 20 0 1 0 236 80A20.1 20.1 0 0 0 216 60z" />
    <glyph glyph-name="bicycle-thin"
      unicode="&#xEAAE;"
      horiz-adv-x="256" d="M208 140A44.10000000000001 44.10000000000001 0 0 1 189.4 135.9L159 188H192A12 12 0 0 0 204 176A4 4 0 0 1 212 176A20.1 20.1 0 0 1 192 196H152A4.2 4.2 0 0 1 148.5 194A4.1000000000000005 4.1000000000000005 0 0 1 148.5 190L163.7 164H97L79.5 194A4.3 4.3 0 0 1 76 196H48A4 4 0 0 1 48 188H73.7L89.9 160.2L70.6 133.7A44.3 44.3 0 1 1 77 129L94.3 152.7L128.5 94A4.1000000000000005 4.1000000000000005 0 0 1 132 92A4.6 4.6 0 0 1 134 92.5A4.1000000000000005 4.1000000000000005 0 0 1 135.5 98L101.6 156H168.4L182.5 131.8A43.9 43.9 0 1 1 208 140zM84 96A36 36 0 1 0 48 132A35.5 35.5 0 0 0 65.8 127.3L44.8 98.4A4.1000000000000005 4.1000000000000005 0 0 1 45.6 92.8A3.8000000000000003 3.8000000000000003 0 0 1 48 92A4.2 4.2 0 0 1 51.2 93.6L72.3 122.5A35.8 35.8 0 0 0 84 96zM208 60A36 36 0 0 0 186.5 124.9L204.5 94A4.1000000000000005 4.1000000000000005 0 0 1 208 92A4.6 4.6 0 0 1 210 92.5A4.1000000000000005 4.1000000000000005 0 0 1 211.5 98L193.4 128.9A36 36 0 1 0 208 60z" />
    </font>
</defs>
</svg>
