<svg id="Flat" xmlns="http://www.w3.org/2000/svg" viewBox="0 0 256 256">
  <path d="M159.1123,142.13379a38.00013,38.00013,0,1,0-46.22436,0,65.682,65.682,0,0,0-29.68823,22.26074,6,6,0,1,0,9.59472,7.207,54.0083,54.0083,0,0,1,86.40918-.00195,6,6,0,0,0,9.59473-7.207A65.67526,65.67526,0,0,0,159.1123,142.13379ZM110,112a26,26,0,1,1,26,26A26.02916,26.02916,0,0,1,110,112Zm98-86H64A14.01572,14.01572,0,0,0,50,40V62H32a6,6,0,0,0,0,12H50v28H32a6,6,0,0,0,0,12H50v28H32a6,6,0,0,0,0,12H50v28H32a6,6,0,0,0,0,12H50v22a14.01572,14.01572,0,0,0,14,14H208a14.01572,14.01572,0,0,0,14-14V40A14.01572,14.01572,0,0,0,208,26Zm2,190a2.00229,2.00229,0,0,1-2,2H64a2.00229,2.00229,0,0,1-2-2V40a2.00229,2.00229,0,0,1,2-2H208a2.00229,2.00229,0,0,1,2,2Z"/>
</svg>
