<svg id="Flat" xmlns="http://www.w3.org/2000/svg" viewBox="0 0 256 256">
  <path d="M214.66089,83.53027a30.00065,30.00065,0,0,0-43.98633-40.74414,6.044,6.044,0,0,0-.811,1.00684l-27.6289,29.22168L57.93823,42.36133a5.998,5.998,0,0,0-6.29346,1.39648l-24,24a5.99966,5.99966,0,0,0,.91455,9.23438l65.91016,43.94043L77.4021,138H55.88745a5.99782,5.99782,0,0,0-4.24268,1.75781l-24,24a5.99956,5.99956,0,0,0,2.31983,9.92578l39,13.19532,13.24072,39.04785a5.99955,5.99955,0,0,0,9.9248,2.31543l24-24A5.99653,5.99653,0,0,0,117.88745,200V178.65527l17.126-15.55957,43.91993,64.28907a6.00027,6.00027,0,0,0,9.19677.85742l24-24a5.99849,5.99849,0,0,0,1.396-6.293L182.87768,113.667l30.76856-28.89062A6.00123,6.00123,0,0,0,214.66089,83.53027ZM204.615,76.72852q-.21534.21532-.40528.44726L171.78,107.626a6,6,0,0,0-1.53125,6.4248l30.69433,84.4082L184.7605,214.6416l-43.72657-64.00586a6,6,0,0,0-8.98926-1.05566l-24.19189,21.97949A5.99857,5.99857,0,0,0,105.88745,176v21.51465L90.47,212.93262,79.37719,180.21875a5.99977,5.99977,0,0,0-3.75927-3.75684L42.9602,165.41211,58.3728,150H79.88745a5.99778,5.99778,0,0,0,4.24267-1.75781l24-24a5.99965,5.99965,0,0,0-.91455-9.23438L41.30542,71.06738,57.428,54.94434l84.40918,30.69433a6.0016,6.0016,0,0,0,6.41015-1.5166L179.95776,50.583c.08545-.08985.16748-.18262.24609-.27637A18.00028,18.00028,0,0,1,204.615,76.72852Z"/>
</svg>
