<svg id="Flat" xmlns="http://www.w3.org/2000/svg" viewBox="0 0 256 256">
  <path d="M168,238a6.00243,6.00243,0,0,1-1.17676-.1167L128,230.11865,89.17676,237.8833A5.9999,5.9999,0,0,1,82,232V208a5.99782,5.99782,0,0,1,1.75781-4.24268L98,189.51465v-30.1958L25.17676,173.8833A5.9999,5.9999,0,0,1,18,168V144a6.00125,6.00125,0,0,1,3.31641-5.3667l76.6914-38.34521.10449-52.3003a30,30,0,0,1,60,.01221l.10547,52.28809,76.69141,38.34521A6.00125,6.00125,0,0,1,238.22559,144v24a5.9999,5.9999,0,0,1-7.17676,5.8833l-72.82324-14.56445v30.2207l14.04687,14.24805A5.99728,5.99728,0,0,1,174,208v24a6.00018,6.00018,0,0,1-6,6ZM94,210.48535v14.1958l32.82324-6.56445a6.00384,6.00384,0,0,1,2.35352,0L162,224.68115v-14.2207L147.95312,196.2124A5.99727,5.99727,0,0,1,146.22559,192V152a5.9999,5.9999,0,0,1,7.17675-5.8833l72.82325,14.56445V147.708L149.542,109.3667a6.00172,6.00172,0,0,1-3.3164-5.35449l-.11329-56a18,18,0,1,0-36-.01221L110,104.01221a6.00173,6.00173,0,0,1-3.31641,5.35449L30,147.708v12.97314l72.82324-14.56445A5.9999,5.9999,0,0,1,110,152v40a5.99782,5.99782,0,0,1-1.75781,4.24268Z"/>
</svg>
