<svg id="Flat" xmlns="http://www.w3.org/2000/svg" viewBox="0 0 256 256">
  <path d="M132.55811,156.09521a6.00035,6.00035,0,0,0-9.11133,0l-48.00293,56A6.00013,6.00013,0,0,0,79.99951,222h96a6,6,0,0,0,4.55567-9.90479ZM93.04541,210l34.957-40.78027L162.95459,210ZM229.99951,64V176a22.02489,22.02489,0,0,1-22,22h-16a6,6,0,0,1,0-12h16a10.01146,10.01146,0,0,0,10-10V64a10.01146,10.01146,0,0,0-10-10h-160a10.01146,10.01146,0,0,0-10,10V176a10.01146,10.01146,0,0,0,10,10h16a6,6,0,0,1,0,12h-16a22.02489,22.02489,0,0,1-22-22V64a22.02489,22.02489,0,0,1,22-22h160A22.02489,22.02489,0,0,1,229.99951,64Z"/>
</svg>
