<svg id="Flat" xmlns="http://www.w3.org/2000/svg" viewBox="0 0 256 256">
  <path d="M222,216a6.00029,6.00029,0,0,1-6,6H72a6,6,0,0,1,0-12H216A6.00029,6.00029,0,0,1,222,216Zm24-80v24a6.00029,6.00029,0,0,1-6,6H63.80859a37.76592,37.76592,0,0,1-36.39746-27.08057L13.34277,92.023A14.00044,14.00044,0,0,1,26.752,74H44a6.001,6.001,0,0,1,4.60938,2.15869L66.81055,98H87.67578l-9.8584-29.57275A14.00067,14.00067,0,0,1,91.09961,50H108a6.00082,6.00082,0,0,1,4.42285,1.9458L154.63965,98H208A38.04323,38.04323,0,0,1,246,136Zm-12,0a26.02916,26.02916,0,0,0-26-26H152a6.00082,6.00082,0,0,1-4.42285-1.9458L105.36035,62H91.09961a1.99959,1.99959,0,0,0-1.89746,2.63281l12.49023,37.46973A6.00062,6.00062,0,0,1,96,110H64a6.001,6.001,0,0,1-4.60938-2.15869L41.18945,86H26.752a1.9994,1.9994,0,0,0-1.915,2.57471l14.06836,46.89648A25.83964,25.83964,0,0,0,63.80859,154H234Z"/>
</svg>
