<svg xmlns="http://www.w3.org/2000/svg" viewBox="0 0 256 256"><path d="M174,216a6,6,0,0,1-6,6H24a6,6,0,0,1,0-12H168A6,6,0,0,1,174,216ZM249.9,93.1a6.1,6.1,0,0,1-2.9,4.1l-151.4,88a37.8,37.8,0,0,1-45.1-5.1L12.8,144.7h0a14,14,0,0,1-4.2-12.6,13.6,13.6,0,0,1,8.3-10.4l16.7-7.2a5.7,5.7,0,0,1,4.8,0l25.2,10.8,18.2-10.4L57.3,92.8a14.1,14.1,0,0,1-4.5-12.7,13.8,13.8,0,0,1,8.3-10.5l16.5-7.1a5.8,5.8,0,0,1,4.3-.2l57.4,19.1,42-24.7A37.9,37.9,0,0,1,230,65.4l18.6,22.8A5.8,5.8,0,0,1,249.9,93.1Zm-15-2.7L220.7,73a25.8,25.8,0,0,0-33.3-5.9L143,93.2a6,6,0,0,1-4.9.5L80.3,74.4,65.9,80.6a2,2,0,0,0-.6,3.3L96,111.5a6.2,6.2,0,0,1,2,5.1,6,6,0,0,1-3,4.6l-28,16a6,6,0,0,1-5.4.3L36,126.5l-14.4,6.2a2,2,0,0,0-1.2,1.5A2.1,2.1,0,0,0,21,136l37.7,35.3a25.8,25.8,0,0,0,30.9,3.5Z"/></svg>