<svg xmlns="http://www.w3.org/2000/svg" viewBox="0 0 256 256"><path d="M234.9,130.6,158.2,92.3V48a30,30,0,0,0-60,0V92.3L21.3,130.6A6,6,0,0,0,18,136v32a5.8,5.8,0,0,0,2.2,4.6,6,6,0,0,0,5,1.3L98,159.3v22.2L83.8,195.8A5.6,5.6,0,0,0,82,200v32a6.1,6.1,0,0,0,2.6,5,6.2,6.2,0,0,0,5.6.6L128,222.5l37.8,15.1a5.4,5.4,0,0,0,2.2.4,5.9,5.9,0,0,0,3.4-1,6.1,6.1,0,0,0,2.6-5V200a5.9,5.9,0,0,0-1.7-4.2l-14.1-14.3V159.3L231,173.9a6,6,0,0,0,5-1.3,5.8,5.8,0,0,0,2.2-4.6V136A6,6,0,0,0,234.9,130.6Zm-8.7,30.1-72.8-14.6a6,6,0,0,0-5,1.3,5.8,5.8,0,0,0-2.2,4.6v32a5.6,5.6,0,0,0,1.8,4.2l14,14.3v20.6l-31.8-12.7a6.6,6.6,0,0,0-4.4,0L94,223.1V202.5l14.2-14.3A5.6,5.6,0,0,0,110,184V152a5.8,5.8,0,0,0-2.2-4.6,6,6,0,0,0-5-1.3L30,160.7v-21l76.7-38.3A6,6,0,0,0,110,96V48a18,18,0,0,1,36,0V96a6,6,0,0,0,3.3,5.4l76.7,38.3Z"/></svg>