<svg xmlns="http://www.w3.org/2000/svg" viewBox="0 0 256 256"><path d="M222,216a6,6,0,0,1-6,6H72a6,6,0,0,1,0-12H216A6,6,0,0,1,222,216Zm24-80v24a6,6,0,0,1-6,6H63.8a37.8,37.8,0,0,1-36.4-27.1L13.3,92a14.4,14.4,0,0,1,2.2-12.4A14.2,14.2,0,0,1,26.8,74H44a5.8,5.8,0,0,1,4.6,2.2L66.8,98H87.7L77.8,68.4A14,14,0,0,1,91.1,50H108a6,6,0,0,1,4.4,1.9L154.6,98H208A38,38,0,0,1,246,136Zm-12,0a26.1,26.1,0,0,0-26-26H152a6,6,0,0,1-4.4-1.9L105.4,62H91.1a1.9,1.9,0,0,0-1.6.8,2,2,0,0,0-.3,1.8l12.5,37.5A6,6,0,0,1,96,110H64a5.8,5.8,0,0,1-4.6-2.2L41.2,86H26.8a2.3,2.3,0,0,0-1.7.8,2.2,2.2,0,0,0-.3,1.8l14.1,46.9A25.7,25.7,0,0,0,63.8,154H234Z"/></svg>