<svg xmlns="http://www.w3.org/2000/svg" viewBox="0 0 256 256"><path d="M214.8,83.5a30,30,0,0,0-44-40.7,3.9,3.9,0,0,0-.8,1L142.3,73,58.1,42.4a5.9,5.9,0,0,0-6.3,1.4l-24,24A6,6,0,0,0,26,72.6,6.1,6.1,0,0,0,28.7,77l65.9,43.9L77.5,138H56a5.6,5.6,0,0,0-4.2,1.8l-24,24a5.7,5.7,0,0,0-1.6,5.6,5.8,5.8,0,0,0,3.9,4.3l39,13.2,13.2,39a5.8,5.8,0,0,0,4.3,3.9l1.4.2a5.6,5.6,0,0,0,4.2-1.8l24-24A5.6,5.6,0,0,0,118,200V178.7l17.1-15.6L179,227.4a6.4,6.4,0,0,0,4.4,2.6,6,6,0,0,0,4.8-1.8l24-24a5.9,5.9,0,0,0,1.4-6.3L183,113.7l30.8-28.9A6.4,6.4,0,0,0,214.8,83.5Zm-10.1-6.8-.4.5-32.4,30.4a5.9,5.9,0,0,0-1.5,6.5l30.7,84.4-16.2,16.1-43.8-64a5.8,5.8,0,0,0-4.2-2.5h-.7a5.9,5.9,0,0,0-4,1.6l-24.2,22a5.7,5.7,0,0,0-2,4.4v21.5L90.6,212.9,79.5,180.2a5.8,5.8,0,0,0-3.8-3.7L43.1,165.4,58.5,150H80a5.6,5.6,0,0,0,4.2-1.8l24-24a6,6,0,0,0,1.8-4.8,6.1,6.1,0,0,0-2.7-4.4L41.4,71.1,57.5,54.9l84.4,30.7a5.9,5.9,0,0,0,6.5-1.5l31.7-33.5.2-.3a18,18,0,0,1,24.4,26.4Z"/></svg>