<svg id="Flat" xmlns="http://www.w3.org/2000/svg" viewBox="0 0 256 256">
  <path d="M234.90918,130.6333,158.2168,92.2876,158.1123,48a30,30,0,0,0-60-.01416L98.00879,92.2876,21.31641,130.6333A6.00125,6.00125,0,0,0,18,136v32a5.9999,5.9999,0,0,0,7.17676,5.8833L98,159.31885v22.1958L83.75781,195.75732A5.99782,5.99782,0,0,0,82,200v32a6.00051,6.00051,0,0,0,8.22852,5.5708L128,222.4624l37.77148,15.1084A5.99981,5.99981,0,0,0,174,232V200a5.99728,5.99728,0,0,0-1.72754-4.2124l-14.04687-14.24805v-22.2207l72.82324,14.56445A5.9999,5.9999,0,0,0,238.22559,168V136A6.00125,6.00125,0,0,0,234.90918,130.6333Zm-8.68359,30.04785L153.40234,146.1167A5.9999,5.9999,0,0,0,146.22559,152v32a5.99727,5.99727,0,0,0,1.72753,4.2124L162,202.46045V223.1377l-31.77148-12.7085a6.0001,6.0001,0,0,0-4.457,0L94,223.1377V202.48535l14.24219-14.24267A5.99782,5.99782,0,0,0,110,184V152a5.9999,5.9999,0,0,0-7.17676-5.8833L30,160.68115V139.708l76.68359-38.34131A5.99879,5.99879,0,0,0,110,96.01416L110.1123,48a18,18,0,1,1,36,.01416l.11329,48a5.99878,5.99878,0,0,0,3.3164,5.35254l76.6836,38.34131Z"/>
</svg>
