<svg id="Flat" xmlns="http://www.w3.org/2000/svg" viewBox="0 0 256 256">
  <path d="M184,122a6,6,0,0,1,0,12H128a6.00029,6.00029,0,0,1-6-6V72a6,6,0,0,1,12,0v50Zm10.46777-60.46777A93.99871,93.99871,0,1,1,128,34,93.38293,93.38293,0,0,1,194.46777,61.53223ZM210,128a82.00115,82.00115,0,1,0-24.01758,57.98242A81.46008,81.46008,0,0,0,210,128Zm24.06641-72.125L200.125,21.93408a6,6,0,1,0-8.48535,8.48535l33.9414,33.94092a6.00005,6.00005,0,1,0,8.48536-8.48535ZM64.36035,21.93408a5.99988,5.99988,0,0,0-8.48535,0L21.93408,55.875a6,6,0,0,0,8.48535,8.48535L64.36035,30.41943A5.99988,5.99988,0,0,0,64.36035,21.93408Z"/>
</svg>
