<svg xmlns="http://www.w3.org/2000/svg" viewBox="0 0 256 256"><path d="M128,18a94.1,94.1,0,0,0-94,94c0,23.6,12.4,54.2,33.2,81.8C83.3,215.2,107.7,238,128,238s44.7-22.8,60.8-44.2C209.6,166.2,222,135.6,222,112A94.1,94.1,0,0,0,128,18Zm51.2,168.6C161.5,210.2,140.9,226,128,226s-33.5-15.8-51.2-39.4C57.8,161.4,46,132.8,46,112a82,82,0,0,1,164,0C210,132.8,198.2,161.4,179.2,186.6ZM118,140v-4A38,38,0,0,0,80,98a14,14,0,0,0-14,14v4a38,38,0,0,0,38,38A14,14,0,0,0,118,140Zm-12,0a2,2,0,0,1-2,2,26.1,26.1,0,0,1-26-26v-4a2,2,0,0,1,2-2,26.1,26.1,0,0,1,26,26Zm70-42a38,38,0,0,0-38,38v4a14,14,0,0,0,14,14,38,38,0,0,0,38-38v-4A14,14,0,0,0,176,98Zm2,18a26.1,26.1,0,0,1-26,26,2,2,0,0,1-2-2v-4a26.1,26.1,0,0,1,26-26,2,2,0,0,1,2,2Zm-28,68a6,6,0,0,1-6,6H112a6,6,0,0,1,0-12h32A6,6,0,0,1,150,184Z"/></svg>