<svg id="Flat" xmlns="http://www.w3.org/2000/svg" viewBox="0 0 256 256">
  <path d="M222.00488,39.99414a6.00029,6.00029,0,0,1-6,6h-176a6,6,0,0,1,0-12h176A6.00029,6.00029,0,0,1,222.00488,39.99414ZM206,80v96a14.01572,14.01572,0,0,1-14,14H152a14.01572,14.01572,0,0,1-14-14V80a14.01572,14.01572,0,0,1,14-14h40A14.01572,14.01572,0,0,1,206,80Zm-12,0a2.002,2.002,0,0,0-2-2H152a2.002,2.002,0,0,0-2,2v96a2.002,2.002,0,0,0,2,2h40a2.002,2.002,0,0,0,2-2Zm-76,0V216a14.01572,14.01572,0,0,1-14,14H64a14.01572,14.01572,0,0,1-14-14V80A14.01572,14.01572,0,0,1,64,66h40A14.01572,14.01572,0,0,1,118,80Zm-12,0a2.002,2.002,0,0,0-2-2H64a2.002,2.002,0,0,0-2,2V216a2.002,2.002,0,0,0,2,2h40a2.002,2.002,0,0,0,2-2Z"/>
</svg>
