<svg id="Flat" xmlns="http://www.w3.org/2000/svg" viewBox="0 0 256 256">
  <path d="M224.00488,122H206V72a14.01572,14.01572,0,0,0-14-14H152a14.01572,14.01572,0,0,0-14,14v50H118V48a14.01572,14.01572,0,0,0-14-14H64A14.01572,14.01572,0,0,0,50,48v74H32.00488a6,6,0,0,0,0,12H50v74a14.01572,14.01572,0,0,0,14,14h40a14.01572,14.01572,0,0,0,14-14V134h20v50a14.01572,14.01572,0,0,0,14,14h40a14.01572,14.01572,0,0,0,14-14V134h18.00488a6,6,0,0,0,0-12ZM106,208a2.00229,2.00229,0,0,1-2,2H64a2.00229,2.00229,0,0,1-2-2V128.09662c.00049-.03247.00488-.064.00488-.09662s-.00439-.06415-.00488-.09662V48a2.002,2.002,0,0,1,2-2h40a2.002,2.002,0,0,1,2,2Zm88-24a2.00229,2.00229,0,0,1-2,2H152a2.00229,2.00229,0,0,1-2-2V128.09662c.00049-.03247.00488-.064.00488-.09662s-.00439-.06415-.00488-.09662V72a2.002,2.002,0,0,1,2-2h40a2.002,2.002,0,0,1,2,2Z"/>
</svg>
