<svg id="Flat" xmlns="http://www.w3.org/2000/svg" viewBox="0 0 256 256">
  <path d="M208,138H134V118h50a14.01572,14.01572,0,0,0,14-14V64a14.01572,14.01572,0,0,0-14-14H134V31.99512a6,6,0,1,0-12,0V50H72A14.01572,14.01572,0,0,0,58,64v40a14.01572,14.01572,0,0,0,14,14h50v20H48a14.01572,14.01572,0,0,0-14,14v40a14.01572,14.01572,0,0,0,14,14h74v17.99512a6,6,0,0,0,12,0V206h74a14.01572,14.01572,0,0,0,14-14V152A14.01572,14.01572,0,0,0,208,138ZM70,104V64a2.002,2.002,0,0,1,2-2H184a2.002,2.002,0,0,1,2,2v40a2.002,2.002,0,0,1-2,2H128.09668c-.03247-.00049-.064-.00488-.09668-.00488s-.06421.00439-.09668.00488H72A2.002,2.002,0,0,1,70,104Zm140,88a2.002,2.002,0,0,1-2,2H128.09668c-.03247-.00049-.064-.00488-.09668-.00488s-.06421.00439-.09668.00488H48a2.002,2.002,0,0,1-2-2V152a2.002,2.002,0,0,1,2-2H208a2.002,2.002,0,0,1,2,2Z"/>
</svg>
