<svg id="Flat" xmlns="http://www.w3.org/2000/svg" viewBox="0 0 256 256">
  <path d="M222.00488,216.00586a6.00029,6.00029,0,0,1-6,6h-176a6,6,0,1,1,0-12h176A6.00029,6.00029,0,0,1,222.00488,216.00586ZM138,176V80a14.01572,14.01572,0,0,1,14-14h40a14.01572,14.01572,0,0,1,14,14v96a14.01572,14.01572,0,0,1-14,14H152A14.01572,14.01572,0,0,1,138,176Zm12,0a2.00229,2.00229,0,0,0,2,2h40a2.00229,2.00229,0,0,0,2-2V80a2.00229,2.00229,0,0,0-2-2H152a2.00229,2.00229,0,0,0-2,2ZM50,176V40A14.01572,14.01572,0,0,1,64,26h40a14.01572,14.01572,0,0,1,14,14V176a14.01572,14.01572,0,0,1-14,14H64A14.01572,14.01572,0,0,1,50,176Zm12,0a2.00229,2.00229,0,0,0,2,2h40a2.00229,2.00229,0,0,0,2-2V40a2.00229,2.00229,0,0,0-2-2H64a2.00229,2.00229,0,0,0-2,2Z"/>
</svg>
