<svg id="Flat" xmlns="http://www.w3.org/2000/svg" viewBox="0 0 256 256">
  <path d="M222.00586,39.99512v176a6,6,0,0,1-12,0v-176a6,6,0,0,1,12,0ZM190,64v40a14.01572,14.01572,0,0,1-14,14H80a14.01572,14.01572,0,0,1-14-14V64A14.01572,14.01572,0,0,1,80,50h96A14.01572,14.01572,0,0,1,190,64Zm-12,0a2.002,2.002,0,0,0-2-2H80a2.002,2.002,0,0,0-2,2v40a2.002,2.002,0,0,0,2,2h96a2.002,2.002,0,0,0,2-2Zm12,88v40a14.01572,14.01572,0,0,1-14,14H40a14.01572,14.01572,0,0,1-14-14V152a14.01572,14.01572,0,0,1,14-14H176A14.01572,14.01572,0,0,1,190,152Zm-12,0a2.002,2.002,0,0,0-2-2H40a2.002,2.002,0,0,0-2,2v40a2.002,2.002,0,0,0,2,2H176a2.002,2.002,0,0,0,2-2Z"/>
</svg>
