<svg id="Flat" xmlns="http://www.w3.org/2000/svg" viewBox="0 0 256 256">
  <path d="M216,138a6.00029,6.00029,0,0,0-6,6,42.04718,42.04718,0,0,1-42,42,45.868,45.868,0,0,0-34,15.082V118h34a6,6,0,0,0,0-12H134V77.29346a26,26,0,1,0-12,0V106H88a6,6,0,0,0,0,12h34v83.082A45.868,45.868,0,0,0,88,186a42.04718,42.04718,0,0,1-42-42,6,6,0,0,0-12,0,54.06156,54.06156,0,0,0,54,54,34.038,34.038,0,0,1,34,34,6,6,0,0,0,12,0,34.038,34.038,0,0,1,34-34,54.06156,54.06156,0,0,0,54-54A6.00029,6.00029,0,0,0,216,138ZM114,52a14,14,0,1,1,14,14A14.01572,14.01572,0,0,1,114,52Z"/>
</svg>
