<svg id="Flat" xmlns="http://www.w3.org/2000/svg" viewBox="0 0 256 256">
  <path d="M174,156a10,10,0,1,1-10-10A9.99987,9.99987,0,0,1,174,156ZM92,146a10,10,0,1,0,10,10A9.99987,9.99987,0,0,0,92,146Zm146,22v24a14.01572,14.01572,0,0,1-14,14H32a14.01572,14.01572,0,0,1-14-14V169.12893A111.40275,111.40275,0,0,1,54.27881,86.76418L27.75732,60.2427a6.00005,6.00005,0,1,1,8.48536-8.48535L63.606,79.12063a108.58516,108.58516,0,0,1,64.00586-21.12012C127.74121,58,127.874,58,128.00342,58a109.15021,109.15021,0,0,1,64.57886,20.93262l27.175-27.17529a6.00005,6.00005,0,0,1,8.48536,8.48535L201.93311,86.55227q1.88928,1.719,3.71289,3.53076A109.26206,109.26206,0,0,1,238,168Zm-12,0a97.99991,97.99991,0,0,0-97.99756-98c-.11719,0-.23242,0-.34912.00049C73.80713,70.187,30,114.65578,30,169.12893V192a2.00229,2.00229,0,0,0,2,2H224a2.00229,2.00229,0,0,0,2-2Z"/>
</svg>
