<svg id="Flat" xmlns="http://www.w3.org/2000/svg" viewBox="0 0 256 256">
  <path d="M90.92969,84a9,9,0,1,1,9,9A8.99982,8.99982,0,0,1,90.92969,84Zm65,9a9,9,0,1,0-9-9A8.99982,8.99982,0,0,0,155.92969,93Zm58,11v48a86,86,0,0,1-172,0V104A85.73094,85.73094,0,0,1,67.67822,42.71045L51.90576,28.45068a6,6,0,1,1,8.04785-8.90136L76.87353,34.84668a85.78965,85.78965,0,0,1,102.11231,0l16.91992-15.29736a6,6,0,1,1,8.04785,8.90136L188.18115,42.71094A85.727,85.727,0,0,1,213.92969,104Zm-160,0v10h148V104a74,74,0,0,0-148,0Zm148,48V126h-148v26a74,74,0,0,0,148,0Z"/>
</svg>
