<svg xmlns="http://www.w3.org/2000/svg" viewBox="0 0 256 256"><path d="M174,156a10,10,0,1,1-10-10A10,10,0,0,1,174,156ZM92,146a10,10,0,1,0,10,10A10,10,0,0,0,92,146Zm146,22v24a14,14,0,0,1-14,14H32a14,14,0,0,1-14-14V169.1A111,111,0,0,1,54.3,86.8L27.8,60.2a5.9,5.9,0,1,1,8.4-8.4L63.6,79.1a108.6,108.6,0,0,1,64-21.1h.4a109.3,109.3,0,0,1,64.6,20.9l27.2-27.1a5.9,5.9,0,0,1,8.4,8.4L201.9,86.6c1.3,1.1,2.5,2.3,3.7,3.5A109.1,109.1,0,0,1,238,168Zm-12,0a98,98,0,0,0-98-98h-.3C73.8,70.2,30,114.7,30,169.1V192a2,2,0,0,0,2,2H224a2,2,0,0,0,2-2Z"/></svg>