<svg id="Flat" xmlns="http://www.w3.org/2000/svg" viewBox="0 0 256 256">
  <path d="M188.18115,42.71094l15.77246-14.26026a6,6,0,1,0-8.04785-8.90136L178.98584,34.84668a85.78965,85.78965,0,0,0-102.11231,0L59.95361,19.54932a6,6,0,1,0-8.04785,8.90136L67.67822,42.71045A85.73094,85.73094,0,0,0,41.92969,104v48a86,86,0,0,0,172,0V104A85.727,85.727,0,0,0,188.18115,42.71094ZM127.92969,30a74.08385,74.08385,0,0,1,74,74v10h-148V104A74.08385,74.08385,0,0,1,127.92969,30Zm0,196a74.08385,74.08385,0,0,1-74-74V126h148v26A74.08385,74.08385,0,0,1,127.92969,226Zm18-142a10,10,0,1,1,10,10A10.01114,10.01114,0,0,1,145.92969,84Zm-56,0a10,10,0,1,1,10,10A10.01114,10.01114,0,0,1,89.92969,84Z"/>
</svg>
