<svg id="Flat" xmlns="http://www.w3.org/2000/svg" viewBox="0 0 256 256">
  <path d="M230,128A101.99946,101.99946,0,0,0,55.875,55.876,101.99951,101.99951,0,0,0,127.97,229.99951c.01,0,.01978.00244.03.00244.00879,0,.01782-.00195.02661-.00244A102.00047,102.00047,0,0,0,230,128Zm-22.02173,41.32373L151.84082,159.0752l58.08984-68.38526a90.2466,90.2466,0,0,1-1.95239,78.63379Zm-99.63061-18.189L98.13843,122.54883l19.6521-23.13526,29.86181,5.45166,10.20923,28.58594-19.6521,23.13526ZM203.76514,79.4126,166.832,122.89111,136.66211,38.415a89.31566,89.31566,0,0,1,54.97754,25.94531A90.74084,90.74084,0,0,1,203.76514,79.4126ZM64.36035,64.36035a89.34494,89.34494,0,0,1,59.448-26.2583l19.18359,53.71436L54.75415,75.707A91.10016,91.10016,0,0,1,64.36035,64.36035ZM48.02173,86.67627,104.15918,96.9248,46.06934,165.31006a90.2466,90.2466,0,0,1,1.95239-78.63379Zm4.21313,89.91113L89.168,133.10889,119.33789,217.585a89.31566,89.31566,0,0,1-54.97754-25.94531A90.74084,90.74084,0,0,1,52.23486,176.5874ZM132.19165,217.898l-19.18359-53.71436,26.488,4.83594.02491.0044,61.72485,11.269a91.10016,91.10016,0,0,1-9.6062,11.34668A89.34494,89.34494,0,0,1,132.19165,217.898Z"/>
</svg>
