<svg xmlns="http://www.w3.org/2000/svg" viewBox="0 0 256 256"><path d="M230,128A102,102,0,0,0,55.9,55.9a101.9,101.9,0,0,0,0,144.2A100.9,100.9,0,0,0,128,230h0A102.1,102.1,0,0,0,230,128Zm-22,41.3-56.2-10.2,58.1-68.4a90.1,90.1,0,0,1-1.9,78.6Zm-99.7-18.2L98.1,122.5l19.7-23.1,29.9,5.5,10.2,28.6-19.7,23.1Zm95.5-71.7-37,43.5L136.7,38.4a89.1,89.1,0,0,1,54.9,26A87.1,87.1,0,0,1,203.8,79.4ZM64.4,64.4a89.1,89.1,0,0,1,59.4-26.3L143,91.8,54.8,75.7A78.7,78.7,0,0,1,64.4,64.4ZM48,86.7l56.2,10.2L46.1,165.3A90.1,90.1,0,0,1,48,86.7Zm4.2,89.9,37-43.5,30.1,84.5a89.1,89.1,0,0,1-54.9-26A87.1,87.1,0,0,1,52.2,176.6Zm80,41.3L113,164.2l26.5,4.8h0l61.7,11.3a78.7,78.7,0,0,1-9.6,11.3A89.1,89.1,0,0,1,132.2,217.9Z"/></svg>