<svg xmlns="http://www.w3.org/2000/svg" viewBox="0 0 256 256"><path d="M62.6,203.1l-9.4,16A6.4,6.4,0,0,1,48,222a7.1,7.1,0,0,1-3.1-.8,6.1,6.1,0,0,1-2.1-8.3l9.5-16a6,6,0,1,1,10.3,6.2ZM232,162H183.1l-31.3-53a6.1,6.1,0,0,0-8.3-2.1,6,6,0,0,0-2.1,8.2l61.4,104A6.4,6.4,0,0,0,208,222a7.1,7.1,0,0,0,3.1-.8,6.1,6.1,0,0,0,2.1-8.3l-23-38.9H232a6,6,0,0,0,0-12Zm-89.5,0H86.9L157.2,43.1a6.1,6.1,0,0,0-10.4-6.2L128,68.8,109.2,36.9a6.1,6.1,0,1,0-10.4,6.2L121,80.6,72.9,162H24a6,6,0,0,0,0,12H142.5a6,6,0,0,0,0-12Z"/></svg>