<svg id="Flat" xmlns="http://www.w3.org/2000/svg" viewBox="0 0 256.00004 255.99998">
  <path d="M132.52686,30.35011A38.23856,38.23856,0,0,1,168,6a6,6,0,0,1,0,12,26.166,26.166,0,0,0-24.27441,16.66162,6,6,0,0,1-11.19873-4.31152ZM224.06543,165.207C210.37451,198.64552,185.6748,222,164,222H92c-15.70361,0-33.4502-12.38867-47.47168-33.14062C30.21143,167.66993,22,141.11378,22,116A66.00329,66.00329,0,0,1,128,63.499a66.00921,66.00921,0,0,1,91.88281,11.70263,6.00055,6.00055,0,0,1-1.60547,8.84424,42.017,42.017,0,0,0,2.8833,73.50391A6.00478,6.00478,0,0,1,224.06543,165.207Zm-13.20215.27442a54.03415,54.03415,0,0,1-4.63867-87.6333,54.012,54.012,0,0,0-74.13184-2.18067A6.0009,6.0009,0,0,1,124,75.75,54.00063,54.00063,0,0,0,34,116a121.14434,121.14434,0,0,0,20.47168,66.14063C66.08252,199.32521,80.4624,210,92,210h72C179.44482,210,199.01807,191.17775,210.86328,165.48146Z"/>
</svg>
