<svg xmlns="http://www.w3.org/2000/svg" viewBox="0 0 256 256"><path d="M150.1,140.2A29.7,29.7,0,0,0,158,120a30,30,0,0,0-60,0,29.7,29.7,0,0,0,7.9,20.2,22.2,22.2,0,0,0-7.4,5.9,21.8,21.8,0,0,0-4.6,18.2l9.6,48A22.1,22.1,0,0,0,125.1,230h5.8a22.1,22.1,0,0,0,21.6-17.7l9.6-48a21.8,21.8,0,0,0-4.6-18.2A22.2,22.2,0,0,0,150.1,140.2ZM128,102a18,18,0,1,1-18,18A18.1,18.1,0,0,1,128,102Zm22.3,60-9.6,48a10.1,10.1,0,0,1-9.8,8h-5.8a10.1,10.1,0,0,1-9.8-8l-9.6-48a9.9,9.9,0,0,1,2.1-8.3,9.7,9.7,0,0,1,7.7-3.7h25a9.7,9.7,0,0,1,7.7,3.7A9.9,9.9,0,0,1,150.3,162ZM186,128A58,58,0,1,0,73.9,149a6,6,0,0,1-3.4,7.8,8.5,8.5,0,0,1-2.2.4,6,6,0,0,1-5.6-3.9,70,70,0,1,1,130.6,0,6.1,6.1,0,0,1-7.8,3.5,6.1,6.1,0,0,1-3.4-7.8A57.9,57.9,0,0,0,186,128Zm44,0a101.7,101.7,0,0,1-47.1,86,6.2,6.2,0,0,1-3.2.9,5.9,5.9,0,0,1-5.1-2.7,6,6,0,0,1,1.8-8.3,90,90,0,1,0-96.8,0A6,6,0,0,1,73.1,214,102,102,0,1,1,230,128Z"/></svg>