<svg xmlns="http://www.w3.org/2000/svg" viewBox="0 0 256 256"><path d="M132.5,30.4A38.3,38.3,0,0,1,168,6a6,6,0,0,1,0,12,26.2,26.2,0,0,0-24.3,16.7,6.1,6.1,0,0,1-5.6,3.8,5.2,5.2,0,0,1-2.1-.4A6,6,0,0,1,132.5,30.4Zm91.6,134.8C210.4,198.6,185.7,222,164,222H92c-15.7,0-33.5-12.4-47.5-33.1S22,141.1,22,116A66,66,0,0,1,128,63.5a66,66,0,0,1,91.9,11.7,6.4,6.4,0,0,1,1.2,4.8,5.9,5.9,0,0,1-2.8,4,42,42,0,0,0,2.9,73.5A6.1,6.1,0,0,1,224.1,165.2Zm-13.2.3a54.1,54.1,0,0,1-4.7-87.7,54,54,0,0,0-74.1-2.1,6.1,6.1,0,0,1-8.1.1A54,54,0,0,0,34,116c0,22.8,7.5,46.9,20.5,66.1C66.1,199.3,80.5,210,92,210h72C179.4,210,199,191.2,210.9,165.5Z"/></svg>