<svg id="Flat" xmlns="http://www.w3.org/2000/svg" viewBox="0 0 256 256">
  <path d="M216,42H40A14.01572,14.01572,0,0,0,26,56V88a14.01572,14.01572,0,0,0,14,14h2v98a14.01572,14.01572,0,0,0,14,14H200a14.01572,14.01572,0,0,0,14-14V102h2a14.01572,14.01572,0,0,0,14-14V56A14.01572,14.01572,0,0,0,216,42ZM202,200a2.0026,2.0026,0,0,1-2,2H56a2.0026,2.0026,0,0,1-2-2V102H202ZM218,88a2.0026,2.0026,0,0,1-2,2H40a2.0026,2.0026,0,0,1-2-2V56a2.0026,2.0026,0,0,1,2-2H216a2.0026,2.0026,0,0,1,2,2ZM98,136a6.00029,6.00029,0,0,1,6-6h48a6,6,0,0,1,0,12H104A6.00029,6.00029,0,0,1,98,136Z"/>
</svg>
