<svg id="Flat" xmlns="http://www.w3.org/2000/svg" viewBox="0 0 256 256">
  <path d="M224,50H32A14.01572,14.01572,0,0,0,18,64V88a14.01572,14.01572,0,0,0,14,14h2v90a14.01572,14.01572,0,0,0,14,14H208a14.01572,14.01572,0,0,0,14-14V102h2a14.01572,14.01572,0,0,0,14-14V64A14.01572,14.01572,0,0,0,224,50ZM210,192a2.0026,2.0026,0,0,1-2,2H48a2.0026,2.0026,0,0,1-2-2V102H210ZM226,88a2.0026,2.0026,0,0,1-2,2H32a2.0026,2.0026,0,0,1-2-2V64a2.0026,2.0026,0,0,1,2-2H224a2.0026,2.0026,0,0,1,2,2ZM98,136a6.00029,6.00029,0,0,1,6-6h48a6,6,0,0,1,0,12H104A6.00029,6.00029,0,0,1,98,136Z"/>
</svg>
