<svg id="Flat" xmlns="http://www.w3.org/2000/svg" viewBox="0 0 256 256">
  <path d="M166.18359,145.81641a5.99868,5.99868,0,0,1,0,8.48437l-33.9375,33.9375q-.20946.21021-.43945.39893c-.03174.02636-.06641.04834-.09863.07373-.12158.0957-.24365.18945-.37207.27588-.03662.02392-.0752.04443-.11231.06787-.12793.082-.25683.16211-.3916.23437-.03027.0166-.062.0293-.09277.04492-.14356.07373-.28858.14454-.43848.207-.02246.00927-.0459.01611-.06836.0249-.1582.064-.31836.123-.4834.17334-.02343.00732-.04834.01172-.07177.01855-.16309.04737-.32764.09082-.4961.12451-.0498.01026-.10058.01416-.15088.023-.14257.02491-.28515.04981-.43115.06446a5.94419,5.94419,0,0,1-1.19824,0c-.146-.01465-.28858-.03955-.43115-.06446-.0503-.00879-.10108-.01269-.15088-.023-.16846-.03369-.333-.07714-.4961-.12451-.02343-.00683-.04834-.01123-.07177-.01855-.16553-.0503-.32715-.10987-.48633-.17383-.02149-.00879-.044-.01514-.06543-.02441-.1499-.0625-.29541-.13331-.439-.20752-.03076-.01563-.062-.02832-.09228-.04444-.13477-.07226-.26367-.15234-.3916-.23437-.03711-.02344-.07569-.04395-.11231-.06787-.12842-.08643-.25049-.18018-.37207-.27588-.03222-.02539-.06689-.04737-.09863-.07373q-.22924-.18824-.439-.398l-33.938-33.93848a5.9997,5.9997,0,0,1,8.48535-8.48437L122,169.51465V104a6,6,0,0,1,12,0v65.51465l23.69824-23.69824A6.00075,6.00075,0,0,1,166.18359,145.81641ZM222,72V208a14.01572,14.01572,0,0,1-14,14H48a14.01572,14.01572,0,0,1-14-14V72a6.0602,6.0602,0,0,1,.03857-.6626c.00635-.05566.01758-.11035.02539-.166.023-.16455.04981-.32813.08545-.48828.01416-.0625.03174-.12354.04786-.18555.03955-.15283.08349-.30322.13476-.45117.02149-.063.04443-.12451.06787-.18653.05615-.147.11865-.291.18555-.43213.01758-.03662.02978-.07519.04785-.11132l16-32A6.00125,6.00125,0,0,1,56,34H200a6,6,0,0,1,5.36621,3.31641l16,32c.01807.03564.03027.07324.04736.10937.06739.14209.13038.28711.18653.43506.02344.06152.04638.12256.06787.18457.05078.14844.09521.29932.13476.45215.01612.062.0337.12353.04786.18555.03564.16015.0625.32373.08545.48828.00781.05566.019.11035.02539.166A6.0602,6.0602,0,0,1,222,72ZM49.708,66H206.292l-10-20H59.708ZM210,208V78H46V208a2.0026,2.0026,0,0,0,2,2H208A2.0026,2.0026,0,0,0,210,208Z"/>
</svg>
