<svg id="Flat" xmlns="http://www.w3.org/2000/svg" viewBox="0 0 256 256">
  <path d="M208,34H48A14.01572,14.01572,0,0,0,34,48V159.88428c-.001.03857-.00586.07666-.00586.11572s.00488.07715.00586.11572V208a14.01572,14.01572,0,0,0,14,14H208a14.01572,14.01572,0,0,0,14-14V48A14.01572,14.01572,0,0,0,208,34ZM48,46H208a2.0026,2.0026,0,0,1,2,2V154H179.30762a13.91054,13.91054,0,0,0-9.89942,4.10059l-19.31347,19.31347A1.98551,1.98551,0,0,1,148.68066,178h-41.373a1.98866,1.98866,0,0,1-1.41407-.585l-19.314-19.31543A13.90917,13.90917,0,0,0,76.68066,154H46V48A2.0026,2.0026,0,0,1,48,46ZM208,210H48a2.0026,2.0026,0,0,1-2-2V166H76.68066a1.98864,1.98864,0,0,1,1.41407.585l19.314,19.31543A13.90917,13.90917,0,0,0,107.30762,190h41.373a13.908,13.908,0,0,0,9.89942-4.10059l19.3125-19.31347a1.98943,1.98943,0,0,1,1.415-.58594H210v42A2.0026,2.0026,0,0,1,208,210ZM89.81641,122.30078a5.9997,5.9997,0,0,1,8.48535-8.48437L122,137.51465V72a6,6,0,0,1,12,0v65.51465l23.69824-23.69824a5.9997,5.9997,0,1,1,8.48535,8.48437l-33.9375,33.9375q-.20946.21021-.43945.39893c-.03174.02636-.06641.04834-.09863.07373-.12158.0957-.24365.18945-.37207.27588-.03662.02392-.0752.04443-.11231.06787-.12793.082-.25683.16211-.3916.23437-.03027.0166-.062.0293-.09277.04492-.14356.07373-.28858.14454-.43848.207-.02246.00927-.0459.01611-.06836.0249-.1582.064-.31836.123-.4834.17334-.02343.00732-.04834.01172-.07177.01855-.16309.04737-.32764.09082-.4961.12451-.0498.01026-.10058.01416-.15088.023-.14257.02491-.28515.04981-.43115.06446a5.94419,5.94419,0,0,1-1.19824,0c-.146-.01465-.28858-.03955-.43115-.06446-.0503-.00879-.10108-.01269-.15088-.023-.16846-.03369-.333-.07714-.4961-.12451-.02343-.00683-.04834-.01123-.07177-.01855-.16553-.0503-.32715-.10987-.48633-.17383-.02149-.00879-.044-.01514-.06543-.02441-.1499-.0625-.29541-.13331-.439-.20752-.03076-.01563-.062-.02832-.09228-.04444-.13477-.07226-.26367-.15234-.3916-.23437-.03711-.02344-.07569-.04395-.11231-.06787-.12842-.08643-.25049-.18018-.37207-.27588-.03222-.02539-.06689-.04737-.09863-.07373q-.22924-.18824-.439-.398Z"/>
</svg>
