<svg xmlns="http://www.w3.org/2000/svg" viewBox="0 0 256 256"><path d="M214,90.5V72a38,38,0,0,0-38-38H80A38,38,0,0,0,42,72V90.5a38,38,0,0,0,0,75V200a14,14,0,0,0,14,14H200a14,14,0,0,0,14-14V165.5a38,38,0,0,0,0-75ZM80,46h96a26.1,26.1,0,0,1,26,26V90.5A38.1,38.1,0,0,0,170,128v2H86v-2A38.1,38.1,0,0,0,54,90.5V72A26.1,26.1,0,0,1,80,46ZM208.3,154H208a6,6,0,0,0-6,6v40a2,2,0,0,1-2,2H56a2,2,0,0,1-2-2V160h0a6,6,0,0,0-6-6h-.3A26,26,0,1,1,74,128v40a6,6,0,0,0,12,0V142h84v26a6,6,0,0,0,12,0V128a26,26,0,1,1,26.3,26Z"/></svg>