<svg id="Flat" xmlns="http://www.w3.org/2000/svg" viewBox="0 0 256 256">
  <path d="M214,90.478V72a38.04323,38.04323,0,0,0-38-38H80A38.04323,38.04323,0,0,0,42,72V90.478a38.00128,38.00128,0,0,0,0,75.04883V200a14.01572,14.01572,0,0,0,14,14H200a14.01572,14.01572,0,0,0,14-14V165.52686A38.00128,38.00128,0,0,0,214,90.478ZM80,46h96a26.02947,26.02947,0,0,1,26,26V90.478A38.05791,38.05791,0,0,0,170,128v2H86v-2A38.05791,38.05791,0,0,0,54,90.478V72A26.02947,26.02947,0,0,1,80,46ZM208.34961,153.99756q-.17358-.00952-.34961-.00977a6,6,0,0,0-6,6V200a2.00229,2.00229,0,0,1-2,2H56a2.00229,2.00229,0,0,1-2-2V159.978a6.0001,6.0001,0,0,0-6-5.99024q-.17579,0-.34961.00977A26,26,0,1,1,74,128v40a6,6,0,0,0,12,0V142h84v26a6,6,0,0,0,12,0V128a26,26,0,1,1,26.34961,25.99756Z"/>
</svg>
