<svg id="Flat" xmlns="http://www.w3.org/2000/svg" viewBox="0 0 256 256">
  <path d="M212.23987,180.24512l-47.99768,47.99756a5.99971,5.99971,0,0,1-8.48438-8.48536L193.51465,182H64a6.00029,6.00029,0,0,1-6-6V32a6,6,0,0,1,12,0V170H193.51465l-37.75684-37.75732a5.99971,5.99971,0,1,1,8.48438-8.48536l47.99768,47.99756a6.04862,6.04862,0,0,1,.757.926c.01379.02075.0249.04248.03857.06347a5.97659,5.97659,0,0,1,.51294.97461c.0105.02539.01807.051.02808.07642a5.941,5.941,0,0,1,.30883,1.042c.00391.01953.00537.03906.00892.0586a5.81128,5.81128,0,0,1,0,2.208c-.00355.01954-.005.03907-.00892.0586a5.941,5.941,0,0,1-.30883,1.042c-.01.02539-.01758.051-.02808.07642a5.97659,5.97659,0,0,1-.51294.97461c-.01367.021-.02478.04272-.03857.06347A6.04862,6.04862,0,0,1,212.23987,180.24512Z"/>
</svg>
