<svg xmlns="http://www.w3.org/2000/svg" viewBox="0 0 256 256"><path d="M160.5,184a5.9,5.9,0,0,1,0,8.5,5.8,5.8,0,0,1-4.2,1.8,6,6,0,0,1-4.3-1.8l-18-18V232a6,6,0,0,1-12,0V174.5l-18,18a6,6,0,0,1-8.5-8.5l28.3-28.2a5.8,5.8,0,0,1,8.4,0Zm-36.7-83.8a5.8,5.8,0,0,0,8.4,0L160.5,72a6,6,0,0,0-8.5-8.5l-18,18V24a6,6,0,0,0-12,0V81.5l-18-18A6,6,0,0,0,95.5,72Zm-23.6,23.6L72,95.5a6,6,0,0,0-8.5,8.5l18,18H24a6,6,0,0,0,0,12H81.5l-18,18a5.9,5.9,0,0,0,0,8.5,5.8,5.8,0,0,0,4.2,1.8,6,6,0,0,0,4.3-1.8l28.2-28.3A5.8,5.8,0,0,0,100.2,123.8ZM232,122H174.5l18-18a6,6,0,0,0-8.5-8.5l-28.2,28.3a5.8,5.8,0,0,0,0,8.4L184,160.5a6,6,0,0,0,4.3,1.8,5.8,5.8,0,0,0,4.2-1.8,5.9,5.9,0,0,0,0-8.5l-18-18H232a6,6,0,0,0,0-12Z"/></svg>