<svg id="Flat" xmlns="http://www.w3.org/2000/svg" viewBox="0 0 256 256">
  <path d="M208,34H48A14.01572,14.01572,0,0,0,34,48V208a14.01572,14.01572,0,0,0,14,14H208a14.01572,14.01572,0,0,0,14-14V48A14.01572,14.01572,0,0,0,208,34Zm2,174a2.00229,2.00229,0,0,1-2,2H48a2.00229,2.00229,0,0,1-2-2V48a2.00229,2.00229,0,0,1,2-2H208a2.00229,2.00229,0,0,1,2,2ZM160.24268,95.75781a5.99871,5.99871,0,0,1,0,8.48438L114.48486,150H148a6,6,0,0,1,0,12H100a6.00029,6.00029,0,0,1-6-6V108a6,6,0,0,1,12,0v33.51514l45.75732-45.75733A5.999,5.999,0,0,1,160.24268,95.75781Z"/>
</svg>
