<svg id="Flat" xmlns="http://www.w3.org/2000/svg" viewBox="0 0 256 256">
  <path d="M134,40V216a6,6,0,0,1-12,0V40a6,6,0,0,1,12,0ZM96,122H30.48535l21.75684-21.75781a5.99936,5.99936,0,0,0-8.48438-8.48438L11.76562,123.75a6.0103,6.0103,0,0,0-.76318.93213c-.01318.01977-.02392.04028-.03662.0603a6.00041,6.00041,0,0,0-.51465.9773c-.00976.02465-.01758.05-.02734.075a5.9449,5.9449,0,0,0-.30908,1.043c-.00391.01928-.00537.03881-.00879.05835a5.80428,5.80428,0,0,0,0,2.208c.00342.01954.00488.03907.00879.05835a5.95391,5.95391,0,0,0,.30908,1.04322c.00976.02465.01758.0498.02734.0747a6.00041,6.00041,0,0,0,.51465.9773c.0127.01977.02344.04053.03662.0603a6.0103,6.0103,0,0,0,.76318.93213l31.99219,31.99219a5.99936,5.99936,0,0,0,8.48438-8.48438L30.48535,134H96a6,6,0,0,0,0-12Zm148.99756,9.31787c.01318-.01977.02392-.04053.03662-.0603a6.00041,6.00041,0,0,0,.51465-.9773c.00976-.0249.01758-.05.02734-.0747a5.95391,5.95391,0,0,0,.30908-1.04322c.00391-.01928.00537-.03881.00879-.05835a5.80428,5.80428,0,0,0,0-2.208c-.00342-.01954-.00488-.03907-.00879-.05835a5.9449,5.9449,0,0,0-.30908-1.043c-.00976-.0249-.01758-.0503-.02734-.075a6.00041,6.00041,0,0,0-.51465-.9773c-.0127-.02-.02344-.04053-.03662-.0603a6.0103,6.0103,0,0,0-.76318-.93213L212.24219,91.75781a5.99936,5.99936,0,0,0-8.48438,8.48438L225.51465,122H160a6,6,0,0,0,0,12h65.51465l-21.75684,21.75781a5.99936,5.99936,0,1,0,8.48438,8.48438L244.23438,132.25A6.0103,6.0103,0,0,0,244.99756,131.31787Z"/>
</svg>
