<svg id="Flat" xmlns="http://www.w3.org/2000/svg" viewBox="0 0 256 256">
  <path d="M229.543,133.7041A5.99958,5.99958,0,0,0,224,130H182V72a6.00029,6.00029,0,0,0-6-6H80a6.00029,6.00029,0,0,0-6,6v58H32a5.99971,5.99971,0,0,0-4.24219,10.24219l96,96a5.99782,5.99782,0,0,0,8.48438,0l96-96A5.99738,5.99738,0,0,0,229.543,133.7041ZM128,223.51465,46.48535,142H80a6.00029,6.00029,0,0,0,6-6V78h84v58a6.00029,6.00029,0,0,0,6,6h33.51465ZM74,40a6.00029,6.00029,0,0,1,6-6h96a6,6,0,0,1,0,12H80A6.00029,6.00029,0,0,1,74,40Z"/>
</svg>
