<svg id="Flat" xmlns="http://www.w3.org/2000/svg" viewBox="0 0 256 256">
  <path d="M206,88v88a6,6,0,0,1-12,0V88A50,50,0,0,0,94,88V209.51465l37.75781-37.75733a5.99971,5.99971,0,0,1,8.48438,8.48536L92.24561,228.23926a6.04932,6.04932,0,0,1-.92579.75732c-.02172.01416-.04443.02588-.06628.04a5.95146,5.95146,0,0,1-.97253.51172c-.02539.01025-.05152.01807-.077.02832a5.92763,5.92763,0,0,1-1.04138.30859c-.01978.00391-.03955.00537-.05945.00928a5.82186,5.82186,0,0,1-2.2063,0c-.0199-.00391-.03967-.00537-.05945-.00928a5.92763,5.92763,0,0,1-1.04138-.30859c-.02551-.01025-.05164-.01807-.077-.02832a5.95146,5.95146,0,0,1-.97253-.51172c-.02185-.01416-.04456-.02588-.06628-.04a6.04932,6.04932,0,0,1-.92579-.75732L35.75781,180.24268a5.99971,5.99971,0,0,1,8.48438-8.48536L82,209.51465V88a62,62,0,0,1,124,0Z"/>
</svg>
