<svg id="Flat" xmlns="http://www.w3.org/2000/svg" viewBox="0 0 256 256">
  <path d="M228.24219,108.24219l-48,48a5.99936,5.99936,0,0,1-8.48438-8.48438L215.51465,104,171.75781,60.24219a5.99936,5.99936,0,0,1,8.48438-8.48438l48,48A5.99782,5.99782,0,0,1,228.24219,108.24219Zm-47.24463-.92432c.01306-.01953.02368-.04053.03662-.06006a5.98265,5.98265,0,0,0,.5144-.97754c.01026-.0249.01758-.0498.02735-.0747a5.92837,5.92837,0,0,0,.30932-1.04346c.00391-.019.00537-.03857.00892-.05811a5.81128,5.81128,0,0,0,0-2.208c-.00355-.01954-.005-.03907-.00892-.05811a5.935,5.935,0,0,0-.3092-1.043c-.00989-.0249-.01721-.05029-.02747-.07519a6.00206,6.00206,0,0,0-.5144-.97754c-.01294-.01953-.02344-.04053-.03662-.06006a6.03026,6.03026,0,0,0-.76306-.93213L132.24219,51.75781a5.99936,5.99936,0,0,0-8.48438,8.48438L161.51477,98H128A102.1153,102.1153,0,0,0,26,200a6,6,0,0,0,12,0,90.10217,90.10217,0,0,1,90-90h33.51477l-37.757,37.75781a5.99936,5.99936,0,1,0,8.48438,8.48438L180.2345,108.25A6.03026,6.03026,0,0,0,180.99756,107.31787Z"/>
</svg>
