<svg id="Flat" xmlns="http://www.w3.org/2000/svg" viewBox="0 0 256 256">
  <path d="M230.00391,128a6.0003,6.0003,0,0,1-6,6H86.48926l61.75732,61.75732a6.00005,6.00005,0,0,1-8.48535,8.48536l-72-72-.00146-.002a5.99621,5.99621,0,0,1-.752-.92041c-.01465-.02221-.02685-.04529-.041-.06762a5.97883,5.97883,0,0,1-.51123-.97132c-.01075-.02575-.01856-.05188-.02881-.07788a5.96284,5.96284,0,0,1-.30811-1.04065c-.0039-.0199-.00537-.03979-.00928-.05981a5.82115,5.82115,0,0,1,0-2.20606c.00391-.02.00538-.03991.00928-.05981a5.96284,5.96284,0,0,1,.30811-1.04065c.01025-.026.01806-.05213.02881-.07788a5.97883,5.97883,0,0,1,.51123-.97132c.01416-.02233.02636-.04541.041-.06762a5.99621,5.99621,0,0,1,.752-.92041l.00146-.002,72-72a6.00005,6.00005,0,1,1,8.48535,8.48536L86.48926,122H224.00391A6.0003,6.0003,0,0,1,230.00391,128ZM40,34a6.00029,6.00029,0,0,0-6,6V216a6,6,0,0,0,12,0V40A6.00029,6.00029,0,0,0,40,34Z"/>
</svg>
