<svg id="Flat" xmlns="http://www.w3.org/2000/svg" viewBox="0 0 256 256">
  <path d="M198,100V200a6.00442,6.00442,0,0,1-.106,1.10413c-.00342.01941-.00488.03881-.00879.05822a5.94554,5.94554,0,0,1-.30908,1.043c-.00976.02484-.01758.05011-.02734.07483a6.02008,6.02008,0,0,1-.51319.97522c-.01367.02094-.0249.04254-.03857.06336a6.033,6.033,0,0,1-1.67822,1.6781c-.02051.01373-.042.02478-.0625.03821a6.00371,6.00371,0,0,1-.9751.5133c-.02539.01038-.05127.01788-.07666.02789a5.9393,5.9393,0,0,1-1.042.309c-.01953.00385-.03906.00531-.0586.00892A6.0221,6.0221,0,0,1,192,206H92a6,6,0,0,1,0-12h85.51514L75.75732,92.24268a6.00006,6.00006,0,0,1,8.48536-8.48536L186,185.51508V100a6,6,0,0,1,12,0Zm18-65.99609H40a6,6,0,0,0,0,12H216a6,6,0,0,0,0-12Z"/>
</svg>
