<svg id="Flat" xmlns="http://www.w3.org/2000/svg" viewBox="0 0 256 256">
  <path d="M206,80v88a62,62,0,0,1-124,0V46.48535L44.24219,84.24268a5.99971,5.99971,0,0,1-8.48438-8.48536L83.755,27.76025a6.01168,6.01168,0,0,1,.92518-.75659c.02172-.0144.04419-.02588.06591-.04a5.983,5.983,0,0,1,.97315-.512c.0249-.01025.05054-.01782.07556-.02783a5.9542,5.9542,0,0,1,1.04382-.30908c.01807-.00367.03614-.00513.05432-.0083a5.80983,5.80983,0,0,1,2.21412,0c.01818.00317.03625.00463.05432.0083a5.9542,5.9542,0,0,1,1.04382.30908c.025.01.05066.01758.07556.02783a5.983,5.983,0,0,1,.97315.512c.02172.01416.04419.02564.06591.04a6.01168,6.01168,0,0,1,.92518.75659l47.99719,47.99707a5.99971,5.99971,0,1,1-8.48438,8.48536L94,46.48535V168a50,50,0,0,0,100,0V80a6,6,0,0,1,12,0Z"/>
</svg>
