<svg id="Flat" xmlns="http://www.w3.org/2000/svg" viewBox="0 0 256 256">
  <path d="M220.24219,84.24268a5.999,5.999,0,0,1-8.48438,0L174,46.48535V168a62,62,0,0,1-124,0V80a6,6,0,0,1,12,0v88a50,50,0,0,0,100,0V46.48535L124.24219,84.24268a5.99971,5.99971,0,0,1-8.48438-8.48536l47.996-47.99609a6.02376,6.02376,0,0,1,.92615-.75732c.022-.01465.04492-.02637.06714-.041a6.00859,6.00859,0,0,1,.97058-.51074c.02673-.01123.05408-.019.08093-.02979a5.97827,5.97827,0,0,1,1.03785-.30761c.02063-.00391.04126-.00538.062-.00928A6.03471,6.03471,0,0,1,167.99731,26h.00538a6.03471,6.03471,0,0,1,1.09887.10547c.02075.0039.04138.00537.062.00928a5.97827,5.97827,0,0,1,1.03785.30761c.02685.01075.0542.01856.08093.02979a6.00859,6.00859,0,0,1,.97058.51074c.02222.01465.04517.02637.06714.041a6.02376,6.02376,0,0,1,.92615.75732l47.996,47.99609A5.999,5.999,0,0,1,220.24219,84.24268Z"/>
</svg>
