<svg id="Flat" xmlns="http://www.w3.org/2000/svg" viewBox="0 0 256 256">
  <path d="M206,224a6.00029,6.00029,0,0,1-6,6A102.1153,102.1153,0,0,1,98,128V46.48535L60.24219,84.24219a5.99936,5.99936,0,0,1-8.48438-8.48438L99.75012,27.76562a6.0171,6.0171,0,0,1,.931-.76245c.02051-.01391.04212-.0249.06287-.03833a5.99927,5.99927,0,0,1,.97485-.51318c.02539-.0105.05139-.01807.07691-.02808a5.95307,5.95307,0,0,1,1.0415-.30883c.01965-.00391.03931-.00538.059-.00879a5.80178,5.80178,0,0,1,2.20752,0c.01965.00341.03931.00488.059.00879a5.95307,5.95307,0,0,1,1.0415.30883c.02552.01.05152.01758.07691.02808a5.99927,5.99927,0,0,1,.97485.51318c.02075.01343.04236.02442.06287.03833a6.0171,6.0171,0,0,1,.931.76245l47.99231,47.99219a5.99936,5.99936,0,1,1-8.48438,8.48438L110,46.48535V128a90.10217,90.10217,0,0,0,90,90A6.00029,6.00029,0,0,1,206,224Z"/>
</svg>
