<svg id="Flat" xmlns="http://www.w3.org/2000/svg" viewBox="0 0 256 256">
  <path d="M230,192a6.00029,6.00029,0,0,1-6,6H80a6.00029,6.00029,0,0,1-6-6V62.48529L36.24219,100.24268a5.99971,5.99971,0,0,1-8.48438-8.48536L75.75488,43.76013a6.03518,6.03518,0,0,1,.9253-.75647c.02148-.0144.04443-.02594.06591-.04a5.97793,5.97793,0,0,1,.97315-.512c.0249-.01025.05029-.01782.07568-.02771a5.94632,5.94632,0,0,1,1.04346-.30927c.01807-.00354.03662-.00494.05469-.0083a5.81545,5.81545,0,0,1,2.21386,0c.01807.00336.03662.00476.05469.0083a5.94632,5.94632,0,0,1,1.04346.30927c.02539.00989.05078.01746.07568.02771a5.97793,5.97793,0,0,1,.97315.512c.02148.0141.04443.02564.06591.04a6.03518,6.03518,0,0,1,.9253.75647l47.99707,47.99719a5.99971,5.99971,0,1,1-8.48438,8.48536L86,62.48529V186H224A6.00029,6.00029,0,0,1,230,192Z"/>
</svg>
