<svg id="Flat" xmlns="http://www.w3.org/2000/svg" viewBox="0 0 256 256">
  <path d="M229.20117,102.97339c-.01294.0199-.02356.04059-.03662.06036a6.03287,6.03287,0,0,1-1.67895,1.67914c-.02051.01361-.04175.02448-.06226.03778a5.9679,5.9679,0,0,1-.97583.51367c-.0249.01026-.05042.01776-.07544.02765a5.94155,5.94155,0,0,1-1.04285.30908c-.01941.00379-.03869.00519-.058.00885a6.01668,6.01668,0,0,1-1.10425.1059h-48a6,6,0,0,1,0-12h33.51563L185.9834,70.0166a82.09643,82.09643,0,0,0-115.9668,0,5.99936,5.99936,0,0,1-8.48437-8.48437,94.10263,94.10263,0,0,1,132.93554,0L218.167,85.23145V51.71582a6,6,0,0,1,12,0v48a6.01568,6.01568,0,0,1-.10583,1.10407c-.00354.0194-.005.03887-.00891.05828a5.93994,5.93994,0,0,1-.30933,1.04316c-.00977.02478-.01709.05-.02734.07464A5.97254,5.97254,0,0,1,229.20117,102.97339Zm-43.21777,83.01a82.09643,82.09643,0,0,1-115.9668,0L46.31738,162.28418H79.833a6,6,0,0,0,0-12h-48a6.01637,6.01637,0,0,0-1.10376.10583c-.01966.00367-.03931.00513-.059.009a5.943,5.943,0,0,0-1.04151.30877c-.02551.01007-.05151.01764-.0769.02814a5.98056,5.98056,0,0,0-.97485.51318c-.02076.01343-.04236.02448-.06287.03821a6.03032,6.03032,0,0,0-1.67871,1.679c-.01318.01977-.02368.0404-.03662.06036a5.98936,5.98936,0,0,0-.51441.97724c-.01025.02478-.01757.05017-.02746.07507a5.93588,5.93588,0,0,0-.30921,1.04291c-.0039.01941-.00537.03888-.00891.05828a6.01568,6.01568,0,0,0-.10583,1.10407v48a6,6,0,0,0,12,0V170.76855l23.69922,23.69922a94.105,94.105,0,0,0,132.93554,0,5.99936,5.99936,0,0,0-8.48437-8.48437Z"/>
</svg>
