<svg id="Flat" xmlns="http://www.w3.org/2000/svg" viewBox="0 0 256 256">
  <path d="M134,40V216a6,6,0,0,1-12,0V40a6,6,0,0,1,12,0Zm-32.45117,90.28015c.00976-.02466.01758-.04993.02734-.07458a5.95391,5.95391,0,0,0,.30908-1.04322c.00391-.01941.00537-.03881.00879-.05835a5.80428,5.80428,0,0,0,0-2.208c-.00342-.01954-.00488-.03894-.00879-.05835a5.9449,5.9449,0,0,0-.30908-1.043c-.00976-.0249-.01758-.0503-.02734-.075a5.99549,5.99549,0,0,0-.51465-.9773c-.0127-.02-.02344-.04053-.03662-.0603a6.00936,6.00936,0,0,0-.76318-.932L68.24219,91.75781a5.99936,5.99936,0,0,0-8.48438,8.48438L81.51465,122H16a6,6,0,0,0,0,12H81.51465L59.75781,155.75781a5.99936,5.99936,0,1,0,8.48438,8.48438l31.99219-31.99231a6.00936,6.00936,0,0,0,.76318-.932c.01318-.01977.02392-.0404.03662-.0603A6.002,6.002,0,0,0,101.54883,130.28015ZM240,122H174.48535l21.75684-21.75781a5.99936,5.99936,0,0,0-8.48438-8.48438l-31.99219,31.99231a6.00936,6.00936,0,0,0-.76318.932c-.01318.01977-.02392.04028-.03662.0603a5.99549,5.99549,0,0,0-.51465.9773c-.00976.02465-.01758.05-.02734.075a5.9449,5.9449,0,0,0-.30908,1.043c-.00391.01941-.00537.03881-.00879.05835a5.80428,5.80428,0,0,0,0,2.208c.00342.01954.00488.03894.00879.05835a5.95391,5.95391,0,0,0,.30908,1.04322c.00976.02465.01758.04992.02734.07458a6.002,6.002,0,0,0,.51465.97742c.0127.0199.02344.04053.03662.0603a6.00936,6.00936,0,0,0,.76318.932l31.99219,31.99231a5.99936,5.99936,0,0,0,8.48438-8.48438L174.48535,134H240a6,6,0,0,0,0-12Z"/>
</svg>
