<svg id="Flat" xmlns="http://www.w3.org/2000/svg" viewBox="0 0 256 256">
  <path d="M208,34H48A14.01572,14.01572,0,0,0,34,48V208a14.01572,14.01572,0,0,0,14,14H208a14.01572,14.01572,0,0,0,14-14V48A14.01572,14.01572,0,0,0,208,34Zm2,174a2.00229,2.00229,0,0,1-2,2H48a2.00229,2.00229,0,0,1-2-2V48a2.00229,2.00229,0,0,1,2-2H208a2.00229,2.00229,0,0,1,2,2Zm-43.81641-78.18359a5.99868,5.99868,0,0,1,0,8.48437l-33.94091,33.94141a5.999,5.999,0,0,1-8.48536,0L89.81641,138.30078a5.9997,5.9997,0,0,1,8.48535-8.48437L122,153.51465V88a6,6,0,0,1,12,0v65.51465l23.69824-23.69824A5.999,5.999,0,0,1,166.18359,129.81641Z"/>
</svg>
