<svg id="Flat" xmlns="http://www.w3.org/2000/svg" viewBox="0 0 256 256">
  <path d="M228.2345,156.25l-47.99231,47.99219a5.99936,5.99936,0,0,1-8.48438-8.48438L209.51477,158H128A102.1153,102.1153,0,0,1,26,56a6,6,0,0,1,12,0,90.10217,90.10217,0,0,0,90,90h81.51477l-37.757-37.75781a5.99936,5.99936,0,0,1,8.48438-8.48438L228.2345,147.75a6.03026,6.03026,0,0,1,.76306.93213c.01318.01953.02368.04053.03662.06006a6.00206,6.00206,0,0,1,.5144.97754c.01026.0249.01758.05029.02747.07519a5.935,5.935,0,0,1,.3092,1.043c.00391.019.00537.03857.00892.05811a5.81128,5.81128,0,0,1,0,2.208c-.00355.01954-.005.03907-.00892.05811a5.92837,5.92837,0,0,1-.30932,1.04346c-.00977.0249-.01709.0498-.02735.0747a5.98265,5.98265,0,0,1-.5144.97754c-.01294.01953-.02356.04053-.03662.06006A6.03026,6.03026,0,0,1,228.2345,156.25Z"/>
</svg>
