<svg id="Flat" xmlns="http://www.w3.org/2000/svg" viewBox="0 0 256 256">
  <path d="M230,64a6.00029,6.00029,0,0,1-6,6H86V193.51465l37.75781-37.75733a5.99971,5.99971,0,0,1,8.48438,8.48536L84.245,212.23987a6.04117,6.04117,0,0,1-.92542.75671c-.02148.01416-.04382.02564-.06543.03955a5.95972,5.95972,0,0,1-.97314.51221c-.02539.0105-.05127.01807-.07679.02808a5.9375,5.9375,0,0,1-1.042.30883c-.01941.00379-.03869.00513-.058.00879a5.80689,5.80689,0,0,1-2.2085,0c-.01929-.00366-.03857-.005-.058-.00879a5.9375,5.9375,0,0,1-1.042-.30883c-.02552-.01-.0514-.01758-.07679-.02808a5.95972,5.95972,0,0,1-.97314-.51221c-.02161-.01391-.044-.02539-.06543-.03955a6.04117,6.04117,0,0,1-.92542-.75671L27.75781,164.24268a5.99971,5.99971,0,0,1,8.48438-8.48536L74,193.51465V64a6.00029,6.00029,0,0,1,6-6H224A6.00029,6.00029,0,0,1,230,64Z"/>
</svg>
