<svg id="Flat" xmlns="http://www.w3.org/2000/svg" viewBox="0 0 256 256">
  <path d="M230,200a6,6,0,0,1-12,0,90.10217,90.10217,0,0,0-90-90H46.48523l37.757,37.75781a5.99936,5.99936,0,1,1-8.48438,8.48438L27.7655,108.25a6.03026,6.03026,0,0,1-.76306-.93213c-.01306-.01977-.02368-.04053-.03662-.0603a5.97056,5.97056,0,0,1-.5144-.9773c-.01026-.0249-.01758-.05-.02735-.0747a5.94426,5.94426,0,0,1-.30932-1.04322c-.00391-.01928-.00538-.03881-.00892-.05835a5.81128,5.81128,0,0,1,0-2.208c.00354-.01954.005-.03907.00892-.05835a5.935,5.935,0,0,1,.3092-1.043c.00989-.0249.01721-.0503.02747-.075a5.98989,5.98989,0,0,1,.5144-.9773c.01294-.02.02344-.04053.03662-.0603A6.03026,6.03026,0,0,1,27.7655,99.75L75.75781,51.75781a5.99936,5.99936,0,0,1,8.48438,8.48438L46.48523,98H128A102.1153,102.1153,0,0,1,230,200Z"/>
</svg>
