<svg id="Flat" xmlns="http://www.w3.org/2000/svg" viewBox="0 0 256 256">
  <path d="M228.2345,108.25l-47.99231,47.99219a5.99936,5.99936,0,0,1-8.48438-8.48438L209.51477,110H128a90.10217,90.10217,0,0,0-90,90,6,6,0,0,1-12,0A102.1153,102.1153,0,0,1,128,98h81.51477l-37.757-37.75781a5.99936,5.99936,0,0,1,8.48438-8.48438L228.2345,99.75a6.03026,6.03026,0,0,1,.76306.93213c.01318.01977.02368.04028.03662.0603a5.98989,5.98989,0,0,1,.5144.9773c.01026.02465.01758.05.02747.075a5.935,5.935,0,0,1,.3092,1.043c.00391.01928.00537.03881.00892.05835a5.81128,5.81128,0,0,1,0,2.208c-.00355.01954-.005.03907-.00892.05835a5.94426,5.94426,0,0,1-.30932,1.04322c-.00977.02465-.01709.0498-.02735.0747a5.97056,5.97056,0,0,1-.5144.9773c-.01294.01977-.02356.04053-.03662.0603A6.03026,6.03026,0,0,1,228.2345,108.25Z"/>
</svg>
