<svg xmlns="http://www.w3.org/2000/svg" viewBox="0 0 256 256"><path d="M160.5,199.5a5.9,5.9,0,0,1,0,8.5l-28.3,28.2a5.8,5.8,0,0,1-8.4,0L95.5,208a6,6,0,0,1,8.5-8.5l18,18V160a6,6,0,0,1,12,0v57.5l18-18A5.9,5.9,0,0,1,160.5,199.5ZM104,56.5l18-18V96a6,6,0,0,0,12,0V38.5l18,18a6,6,0,0,0,4.3,1.8,5.8,5.8,0,0,0,4.2-1.8,5.9,5.9,0,0,0,0-8.5L132.2,19.8a5.8,5.8,0,0,0-8.4,0L95.5,48a6,6,0,0,0,8.5,8.5ZM38.5,134H96a6,6,0,0,0,0-12H38.5l18-18A6,6,0,0,0,48,95.5L19.8,123.8a5.8,5.8,0,0,0,0,8.4L48,160.5a6,6,0,0,0,4.3,1.8,5.8,5.8,0,0,0,4.2-1.8,5.9,5.9,0,0,0,0-8.5Zm197.7-10.2L208,95.5a6,6,0,0,0-8.5,8.5l18,18H160a6,6,0,0,0,0,12h57.5l-18,18a5.9,5.9,0,0,0,0,8.5,5.8,5.8,0,0,0,4.2,1.8,6,6,0,0,0,4.3-1.8l28.2-28.3A5.8,5.8,0,0,0,236.2,123.8Z"/></svg>