<svg id="Flat" xmlns="http://www.w3.org/2000/svg" viewBox="0 0 256 256">
  <path d="M84.24219,147.75781a5.99936,5.99936,0,1,1-8.48438,8.48438l-48-48a5.99782,5.99782,0,0,1,0-8.48438l48-48a5.99936,5.99936,0,0,1,8.48438,8.48438L40.48535,104ZM128,98H94.48523l37.757-37.75781a5.99936,5.99936,0,0,0-8.48438-8.48438L75.7655,99.75a6.03026,6.03026,0,0,0-.76306.93213c-.01318.01953-.02368.04053-.03662.06006a6.00206,6.00206,0,0,0-.5144.97754c-.01026.0249-.01758.05029-.02747.07519a5.935,5.935,0,0,0-.3092,1.043c-.00391.019-.00537.03857-.00892.05811a5.81128,5.81128,0,0,0,0,2.208c.00355.01954.005.03907.00892.05811a5.92837,5.92837,0,0,0,.30932,1.04346c.00977.0249.01709.0498.02735.0747a5.98265,5.98265,0,0,0,.5144.97754c.01294.01953.02356.04053.03662.06006a6.03026,6.03026,0,0,0,.76306.93213l47.99231,47.99219a5.99936,5.99936,0,0,0,8.48438-8.48438L94.48523,110H128a90.10217,90.10217,0,0,1,90,90,6,6,0,0,0,12,0A102.1153,102.1153,0,0,0,128,98Z"/>
</svg>
