<svg id="Flat" xmlns="http://www.w3.org/2000/svg" viewBox="0 0 256 256">
  <path d="M228.24219,164.24268l-47.99707,47.99719a6.01709,6.01709,0,0,1-.92578.75665c-.021.01428-.04346.0257-.065.03967a5.97765,5.97765,0,0,1-.97363.51221c-.02539.01044-.05127.018-.07666.02808a5.93968,5.93968,0,0,1-1.042.30877c-.019.00379-.03857.00519-.05811.00885a5.80751,5.80751,0,0,1-2.208,0c-.01954-.00366-.03907-.00506-.05811-.00885a5.93968,5.93968,0,0,1-1.042-.30877c-.02539-.01007-.05127-.01764-.07666-.02808a5.97765,5.97765,0,0,1-.97363-.51221c-.02149-.014-.04395-.02539-.065-.03967a6.01709,6.01709,0,0,1-.92578-.75665l-47.99707-47.99719a5.99971,5.99971,0,0,1,8.48438-8.48536L170,193.51471V70H32a6,6,0,0,1,0-12H176a6.00029,6.00029,0,0,1,6,6V193.51471l37.75781-37.75739a5.99971,5.99971,0,0,1,8.48438,8.48536Z"/>
</svg>
