<svg id="Flat" xmlns="http://www.w3.org/2000/svg" viewBox="0 0 256 256">
  <path d="M222,99.999a6,6,0,0,1-12,.002l-.00586-45.51026-61.78027,61.77979a5.99971,5.99971,0,1,1-8.48535-8.48438l61.78076-61.78027L155.999,46A6,6,0,0,1,156,34h.001l59.99218.00781a5.99989,5.99989,0,0,1,5.999,5.999ZM184,138a6.00029,6.00029,0,0,0-6,6v64a2.0026,2.0026,0,0,1-2,2H48a2.0026,2.0026,0,0,1-2-2V80a2.0026,2.0026,0,0,1,2-2h64a6,6,0,0,0,0-12H48A14.01572,14.01572,0,0,0,34,80V208a14.01572,14.01572,0,0,0,14,14H176a14.01572,14.01572,0,0,0,14-14V144A6.00029,6.00029,0,0,0,184,138Z"/>
</svg>
