<svg id="Flat" xmlns="http://www.w3.org/2000/svg" viewBox="0 0 256 256">
  <path d="M204.24219,180.24219l-47.99231,47.99218a6.01946,6.01946,0,0,1-.93128.7627c-.0205.01367-.04174.02441-.06225.03784a5.98225,5.98225,0,0,1-.97583.51367c-.0249.01026-.05042.01783-.07544.02759a5.94667,5.94667,0,0,1-1.04285.30908c-.01941.00391-.03869.00513-.058.00879a5.80689,5.80689,0,0,1-2.2085,0c-.01929-.00366-.03857-.00488-.058-.00879a5.94667,5.94667,0,0,1-1.04285-.30908c-.025-.00976-.05054-.01733-.07544-.02759a5.98225,5.98225,0,0,1-.97583-.51367c-.02051-.01343-.04175-.02417-.06225-.03784a6.01946,6.01946,0,0,1-.93128-.7627L99.75781,180.24219a5.99936,5.99936,0,0,1,8.48438-8.48438L146,209.51465V128A90.10217,90.10217,0,0,0,56,38a6,6,0,0,1,0-12A102.1153,102.1153,0,0,1,158,128v81.51465l37.75781-37.75684a5.99936,5.99936,0,0,1,8.48438,8.48438Z"/>
</svg>
