<svg id="Flat" xmlns="http://www.w3.org/2000/svg" viewBox="0 0 256 256">
  <path d="M208,34H48A14.01572,14.01572,0,0,0,34,48V208a14.01572,14.01572,0,0,0,14,14H208a14.01572,14.01572,0,0,0,14-14V48A14.01572,14.01572,0,0,0,208,34Zm2,174a2.00229,2.00229,0,0,1-2,2H48a2.00229,2.00229,0,0,1-2-2V48a2.00229,2.00229,0,0,1,2-2H208a2.00229,2.00229,0,0,1,2,2ZM162,108v48a6.00029,6.00029,0,0,1-6,6H108a6,6,0,0,1,0-12h33.51514L95.75732,104.24219a5.99971,5.99971,0,0,1,8.48536-8.48438L150,141.51514V108a6,6,0,0,1,12,0Z"/>
</svg>
