<svg id="Flat" xmlns="http://www.w3.org/2000/svg" viewBox="0 0 256 256">
  <path d="M198,80V224a6,6,0,0,1-12,0V86H62.48535l37.75684,37.75732a5.99971,5.99971,0,1,1-8.48438,8.48536L43.76025,84.245a6.01939,6.01939,0,0,1-.75683-.92591c-.01416-.02075-.02539-.04248-.03858-.06347a5.973,5.973,0,0,1-.51318-.97461c-.01025-.02539-.01807-.051-.02783-.07642a5.93905,5.93905,0,0,1-.30908-1.04211c-.00391-.01941-.00538-.03894-.00879-.05848a5.80428,5.80428,0,0,1,0-2.208c.00341-.01954.00488-.03907.00879-.05848a5.93905,5.93905,0,0,1,.30908-1.04211c.00976-.02539.01758-.051.02783-.07642a5.973,5.973,0,0,1,.51318-.97461c.01319-.021.02442-.04272.03858-.06347a6.01939,6.01939,0,0,1,.75683-.92591L91.75781,27.75732a5.99971,5.99971,0,0,1,8.48438,8.48536L62.48535,74H192A6.00029,6.00029,0,0,1,198,80Z"/>
</svg>
