<svg id="Flat" xmlns="http://www.w3.org/2000/svg" viewBox="0 0 256 256">
  <path d="M160.52637,184.042a5.99936,5.99936,0,1,1-8.48438,8.48438L134,174.48511V232a6,6,0,0,1-12,0V174.48511l-18.042,18.04126a5.99936,5.99936,0,0,1-8.48438-8.48438L123.75,155.7655a6.0219,6.0219,0,0,1,.93115-.76239c.02051-.01373.042-.02478.063-.03821a5.97823,5.97823,0,0,1,.97461-.51318c.02539-.0105.05127-.01807.07715-.02814a5.93959,5.93959,0,0,1,1.0415-.30877c.01953-.00385.03906-.00531.05908-.009a5.80628,5.80628,0,0,1,2.207,0c.02.00367.03955.00513.05908.009a5.93959,5.93959,0,0,1,1.0415.30877c.02588.01007.05176.01764.07715.02814a5.97823,5.97823,0,0,1,.97461.51318c.021.01343.04248.02448.063.03821a6.0219,6.0219,0,0,1,.93115.76239ZM123.75,100.2345a6.02338,6.02338,0,0,0,.93164.76257c.02.01361.0415.02448.062.03778a5.96018,5.96018,0,0,0,.97608.51367c.0249.01026.05029.01776.07519.02765a5.93979,5.93979,0,0,0,1.043.30908c.019.00379.03857.00519.05811.00885a5.80751,5.80751,0,0,0,2.208,0c.01954-.00366.03907-.00506.05811-.00885a5.93979,5.93979,0,0,0,1.043-.30908c.0249-.00989.05029-.01739.07519-.02765a5.96018,5.96018,0,0,0,.97608-.51367c.02051-.0133.042-.02417.062-.03778a6.02338,6.02338,0,0,0,.93164-.76257L160.52637,71.958a5.99936,5.99936,0,0,0-8.48438-8.48438L134,81.51489V24a6,6,0,0,0-12,0V81.51489L103.958,63.47363A5.99936,5.99936,0,0,0,95.47363,71.958Zm-22.75244,31.08343c.01318-.01977.02392-.04046.03662-.06036a6.002,6.002,0,0,0,.51465-.97742c.00976-.02466.01758-.04986.02734-.07464a5.9487,5.9487,0,0,0,.30908-1.04316c.00391-.01941.00537-.03888.00879-.05829a5.80491,5.80491,0,0,0,0-2.20812c-.00342-.01941-.00488-.03888-.00879-.05829a5.94578,5.94578,0,0,0-.30908-1.04291c-.00976-.0249-.01758-.05029-.02734-.07507a5.99982,5.99982,0,0,0-.51465-.97724c-.0127-.02-.02344-.04059-.03662-.06036a6.01172,6.01172,0,0,0-.76318-.932L71.958,95.47363a5.99936,5.99936,0,0,0-8.48438,8.48438L81.51465,122H24a6,6,0,0,0,0,12H81.51465l-18.041,18.042a5.99936,5.99936,0,1,0,8.48438,8.48438l28.27637-28.27649A6.01172,6.01172,0,0,0,100.99756,131.31793ZM232,122H174.48535l18.041-18.042a5.99936,5.99936,0,0,0-8.48438-8.48438l-28.27637,28.27649a6.01172,6.01172,0,0,0-.76318.932c-.01318.01977-.02392.0404-.03662.06036a5.99982,5.99982,0,0,0-.51465.97724c-.00976.02478-.01758.05017-.02734.07507a5.94578,5.94578,0,0,0-.30908,1.04291c-.00391.01941-.00537.03888-.00879.05829a5.80491,5.80491,0,0,0,0,2.20812c.00342.01941.00488.03888.00879.05829a5.9487,5.9487,0,0,0,.30908,1.04316c.00976.02478.01758.05.02734.07464a6.002,6.002,0,0,0,.51465.97742c.0127.0199.02344.04059.03662.06036a6.01172,6.01172,0,0,0,.76318.932L184.042,160.52637a5.99936,5.99936,0,0,0,8.48438-8.48438L174.48535,134H232a6,6,0,0,0,0-12Z"/>
</svg>
