<svg id="Flat" xmlns="http://www.w3.org/2000/svg" viewBox="0 0 256 256">
  <path d="M75.75732,172.24268a5.99989,5.99989,0,0,1,0-8.48536L177.51465,62H92a6,6,0,0,1,0-12H192a6.01854,6.01854,0,0,1,1.10742.10638c.01807.00336.03613.0047.05371.00818a5.9297,5.9297,0,0,1,1.04541.30982c.02442.00964.04932.0169.07373.02685a5.97964,5.97964,0,0,1,.97559.51343c.021.01349.04248.0246.06348.03839a6.03014,6.03014,0,0,1,1.67773,1.67761c.01367.021.0249.043.03857.06415a5.97623,5.97623,0,0,1,.51319.97461c.01025.02484.01758.05023.02734.07526a5.94642,5.94642,0,0,1,.30908,1.043c.00391.01928.00537.03863.00879.058A6.007,6.007,0,0,1,198,56V156a6,6,0,0,1-12,0V70.48535L84.24268,172.24268a6.00019,6.00019,0,0,1-8.48536,0ZM216,209.99609H40a6,6,0,0,0,0,12H216a6,6,0,0,0,0-12Z"/>
</svg>
