<svg id="Flat" xmlns="http://www.w3.org/2000/svg" viewBox="0 0 256 256">
  <path d="M230,56A102.1153,102.1153,0,0,1,128,158H46.48523l37.757,37.75781a5.99936,5.99936,0,1,1-8.48438,8.48438L27.7655,156.25a6.03026,6.03026,0,0,1-.76306-.93213c-.01306-.01953-.02368-.04053-.03662-.06006a5.98265,5.98265,0,0,1-.5144-.97754c-.01026-.0249-.01758-.0498-.02735-.0747a5.92837,5.92837,0,0,1-.30932-1.04346c-.00391-.019-.00538-.03857-.00892-.05811a5.81128,5.81128,0,0,1,0-2.208c.00354-.01954.005-.03907.00892-.05811a5.935,5.935,0,0,1,.3092-1.043c.00989-.0249.01721-.05029.02747-.07519a6.00206,6.00206,0,0,1,.5144-.97754c.01294-.01953.02344-.04053.03662-.06006a6.03026,6.03026,0,0,1,.76306-.93213L75.75781,99.75781a5.99936,5.99936,0,0,1,8.48438,8.48438L46.48523,146H128a90.10217,90.10217,0,0,0,90-90,6,6,0,0,1,12,0Z"/>
</svg>
