<svg id="Flat" xmlns="http://www.w3.org/2000/svg" viewBox="0 0 256 256">
  <path d="M213.03467,179.25635c-.01319.02051-.02393.042-.0376.0625a6.038,6.038,0,0,1-.75781.92676l-31.99707,31.99707a5.99971,5.99971,0,0,1-8.48438-8.48536L193.51465,182H48a6,6,0,0,1,0-12H193.51465l-21.75684-21.75732a5.99971,5.99971,0,0,1,8.48438-8.48536l31.99609,31.99659a5.99557,5.99557,0,0,1,.75879.92724c.01367.02051.02441.042.0376.0625a5.93243,5.93243,0,0,1,.51367.97559c.01025.0249.01807.05078.02783.07568a5.95213,5.95213,0,0,1,.30908,1.04248c.00391.01953.00537.03906.00879.0586a5.80428,5.80428,0,0,1,0,2.208c-.00342.01954-.00488.03907-.00879.0586a5.95213,5.95213,0,0,1-.30908,1.04248c-.00976.0249-.01758.05078-.02783.07568A5.93243,5.93243,0,0,1,213.03467,179.25635ZM42.45166,77.71924c-.01025.0249-.01807.05078-.02783.07568a5.95213,5.95213,0,0,0-.30908,1.04248c-.00391.01953-.00538.03906-.00879.0586a5.80428,5.80428,0,0,0,0,2.208c.00341.01954.00488.03907.00879.0586a5.95213,5.95213,0,0,0,.30908,1.04248c.00976.0249.01758.05078.02783.07568a5.93167,5.93167,0,0,0,.51367.97559c.01319.02051.02393.042.0376.0625a6.038,6.038,0,0,0,.75781.92676l31.99707,31.99707a5.99971,5.99971,0,0,0,8.48438-8.48536L62.48535,86H208a6,6,0,0,0,0-12H62.48535L84.24219,52.24268a5.99971,5.99971,0,0,0-8.48438-8.48536L43.76172,75.75391a5.99557,5.99557,0,0,0-.75879.92724c-.01367.02051-.02441.042-.0376.0625A5.93167,5.93167,0,0,0,42.45166,77.71924Z"/>
</svg>
