<svg id="Flat" xmlns="http://www.w3.org/2000/svg" viewBox="0 0 256 256">
  <path d="M116.24219,187.75732a5.999,5.999,0,0,1,0,8.48536L84.24561,228.23926a6.032,6.032,0,0,1-.92579.75732c-.022.01416-.04443.02588-.0664.04a5.96758,5.96758,0,0,1-.97217.51172c-.02588.01025-.05176.01807-.07715.02832a5.92891,5.92891,0,0,1-1.0415.30859c-.01953.00391-.03955.00537-.05957.00928a5.82061,5.82061,0,0,1-2.20606,0c-.02-.00391-.04-.00537-.05957-.00928a5.92891,5.92891,0,0,1-1.0415-.30859c-.02539-.01025-.05127-.01807-.07715-.02832a5.96758,5.96758,0,0,1-.97217-.51172c-.022-.01416-.04443-.02588-.0664-.04a6.032,6.032,0,0,1-.92579-.75732L43.75781,196.24268a5.99971,5.99971,0,0,1,8.48438-8.48536L74,209.51465V32a6,6,0,0,1,12,0V209.51465l21.75781-21.75733A5.99871,5.99871,0,0,1,116.24219,187.75732Zm96-128-31.9961-31.99609a6.00612,6.00612,0,0,0-.92627-.75732c-.022-.01465-.04492-.02637-.06689-.041a6.00435,6.00435,0,0,0-.9707-.51074c-.02637-.01123-.05371-.019-.08057-.02979a5.98707,5.98707,0,0,0-1.03809-.30761c-.0205-.00391-.0415-.00538-.062-.00928A6.033,6.033,0,0,0,176.00293,26h-.00586a6.033,6.033,0,0,0-1.09863.10547c-.02051.0039-.04151.00537-.062.00928a5.98707,5.98707,0,0,0-1.03809.30761c-.02686.01075-.0542.01856-.08057.02979a6.00435,6.00435,0,0,0-.9707.51074c-.022.01465-.04492.02637-.06689.041a6.00612,6.00612,0,0,0-.92627.75732l-31.9961,31.99609a5.99971,5.99971,0,1,0,8.48438,8.48536L170,46.48535V224a6,6,0,0,0,12,0V46.48535l21.75781,21.75733a5.99971,5.99971,0,1,0,8.48438-8.48536Z"/>
</svg>
