<svg id="Flat" xmlns="http://www.w3.org/2000/svg" viewBox="0 0 256 256">
  <path d="M146.106,105.104A6.003,6.003,0,0,1,146,104V64a6,6,0,0,1,12,0V89.51514l45.75781-45.75782a5.99971,5.99971,0,0,1,8.48438,8.48536L166.48486,98H192a6,6,0,0,1,0,12H152a6.00781,6.00781,0,0,1-1.104-.1059c-.01954-.00366-.03907-.00506-.05811-.00885a5.93968,5.93968,0,0,1-1.042-.30877c-.02539-.01007-.05127-.01764-.07666-.02808a5.97765,5.97765,0,0,1-.97363-.51221c-.02149-.014-.04395-.02539-.065-.03967a6.02283,6.02283,0,0,1-1.67724-1.67743c-.01416-.02081-.02539-.04254-.03858-.06347a5.97322,5.97322,0,0,1-.51318-.97468c-.01025-.02526-.01807-.051-.02783-.07641a5.93689,5.93689,0,0,1-.30908-1.04205C146.11084,105.143,146.10938,105.12347,146.106,105.104Zm-36.22071,45.73352a5.93689,5.93689,0,0,0-.30908-1.04205c-.00976-.02539-.01758-.05115-.02783-.07641a5.97322,5.97322,0,0,0-.51318-.97468c-.01319-.02093-.02442-.04266-.03858-.06347a6.02766,6.02766,0,0,0-1.67676-1.67725c-.02148-.0144-.04443-.02594-.06591-.04a5.97793,5.97793,0,0,0-.97315-.512c-.0249-.01025-.05029-.01782-.07568-.02771a5.94632,5.94632,0,0,0-1.04346-.30927c-.01807-.00354-.03662-.00494-.05469-.0083A6.01431,6.01431,0,0,0,104,146H64a6,6,0,0,0,0,12H89.51514L43.75781,203.75781a5.99936,5.99936,0,1,0,8.48438,8.48438L98,166.4848V192a6,6,0,0,0,12,0V152a6.003,6.003,0,0,0-.106-1.104C109.89062,150.87653,109.88916,150.857,109.88525,150.83752ZM166.48486,158H192a6,6,0,0,0,0-12H152a6.01431,6.01431,0,0,0-1.10693.10632c-.01807.00336-.03662.00476-.05469.0083a5.94632,5.94632,0,0,0-1.04346.30927c-.02539.00989-.05078.01746-.07568.02771a5.97793,5.97793,0,0,0-.97315.512c-.02148.0141-.04443.02564-.06591.04a6.02766,6.02766,0,0,0-1.67676,1.67725c-.01416.02081-.02539.04254-.03858.06347a5.97322,5.97322,0,0,0-.51318.97468c-.01025.02526-.01807.051-.02783.07641a5.93689,5.93689,0,0,0-.30908,1.04205c-.00391.01947-.00537.039-.00879.05848A6.003,6.003,0,0,0,146,152v40a6,6,0,0,0,12,0V166.4848l45.75781,45.75739a5.99936,5.99936,0,0,0,8.48438-8.48438ZM104,58a6.00029,6.00029,0,0,0-6,6V89.51514L52.24219,43.75732a5.99971,5.99971,0,0,0-8.48438,8.48536L89.51514,98H64a6,6,0,0,0,0,12h40a6.00781,6.00781,0,0,0,1.104-.1059c.01954-.00366.03907-.00506.05811-.00885a5.93968,5.93968,0,0,0,1.042-.30877c.02539-.01007.05127-.01764.07666-.02808a5.97765,5.97765,0,0,0,.97363-.51221c.02149-.014.04395-.02539.06495-.03967a6.02283,6.02283,0,0,0,1.67724-1.67743c.01416-.02081.02539-.04254.03858-.06347a5.97322,5.97322,0,0,0,.51318-.97468c.01025-.02526.01807-.051.02783-.07641a5.93689,5.93689,0,0,0,.30908-1.04205c.00391-.01947.00537-.039.00879-.05848A6.003,6.003,0,0,0,110,104V64A6.00029,6.00029,0,0,0,104,58Z"/>
</svg>
