<svg xmlns="http://www.w3.org/2000/svg" viewBox="0 0 256 256"><path d="M146,104V64a6,6,0,0,1,12,0V89.5l45.8-45.7a5.9,5.9,0,0,1,8.4,8.4L166.5,98H192a6,6,0,0,1,0,12H152A6,6,0,0,1,146,104Zm-42,42H64a6,6,0,0,0,0,12H89.5L43.8,203.8a5.9,5.9,0,1,0,8.4,8.4L98,166.5V192a6,6,0,0,0,12,0V152A6,6,0,0,0,104,146Zm62.5,12H192a6,6,0,0,0,0-12H152a6,6,0,0,0-6,6v40a6,6,0,0,0,12,0V166.5l45.8,45.7a5.9,5.9,0,0,0,8.4-8.4ZM104,58a6,6,0,0,0-6,6V89.5L52.2,43.8a5.9,5.9,0,0,0-8.4,8.4L89.5,98H64a6,6,0,0,0,0,12h40a6,6,0,0,0,6-6V64A6,6,0,0,0,104,58Z"/></svg>