<svg id="Flat" xmlns="http://www.w3.org/2000/svg" viewBox="0 0 256 256">
  <path d="M160.52637,199.47314a5.999,5.999,0,0,1,0,8.48536l-28.28076,28.28076q-.20947.20947-.439.398c-.03076.0249-.06348.04638-.09424.0708-.123.09668-.24756.19238-.37793.27929-.02978.02051-.062.03663-.09228.05616-.13428.08691-.271.1709-.4126.24707-.021.01123-.043.01953-.064.03076-.15234.0791-.30761.1543-.46728.2207-.0127.00537-.02588.00879-.03809.01416-.16748.06787-.33789.13037-.51269.1836-.01758.00537-.03565.0083-.05322.01367-.169.04931-.33936.09424-.51368.1289-.04736.00977-.0957.01368-.14355.022-.14453.02539-.28955.05078-.438.06543a5.94419,5.94419,0,0,1-1.19824,0c-.14844-.01465-.29346-.04-.438-.06543-.04785-.0083-.09619-.01221-.14355-.022-.17432-.03466-.34473-.07959-.51368-.1289-.01757-.00537-.03564-.0083-.05322-.01367-.1748-.05323-.34521-.11573-.51269-.1836-.01221-.00537-.02539-.00879-.03809-.01416-.15967-.0664-.31494-.1416-.46729-.2207-.021-.01123-.043-.01953-.064-.03076-.1416-.07617-.27832-.16016-.4126-.24707-.03027-.01953-.0625-.03565-.09228-.05616-.13037-.08691-.25489-.18261-.37793-.27929-.03076-.02442-.06348-.0459-.09424-.0708q-.22924-.18824-.439-.398L95.47363,207.9585a5.99971,5.99971,0,0,1,8.48438-8.48536L122,217.51465V160a6,6,0,0,1,12,0v57.51465l18.042-18.04151A5.99871,5.99871,0,0,1,160.52637,199.47314ZM103.958,56.52686,122,38.48535V96a6,6,0,0,0,12,0V38.48535l18.042,18.04151a5.99971,5.99971,0,0,0,8.48438-8.48536L132.24609,19.76123c-.13964-.14014-.28662-.273-.43945-.39844-.03076-.0249-.06348-.04638-.09424-.0708-.123-.09668-.24756-.19238-.37793-.27929-.02978-.02051-.062-.03663-.09228-.05616-.13428-.08691-.271-.1709-.4126-.24707-.021-.01123-.043-.01953-.064-.03076-.15234-.0791-.30761-.1543-.46728-.2207-.0127-.00537-.02588-.00879-.03809-.01416-.16748-.06787-.33789-.13037-.51269-.1836-.01758-.00537-.03565-.0083-.05322-.01367-.169-.04931-.33936-.09424-.51368-.1289-.04736-.00977-.0957-.01368-.14355-.022-.14453-.02539-.28955-.05078-.438-.06543a5.94419,5.94419,0,0,0-1.19824,0c-.14844.01465-.29346.04-.438.06543-.04785.0083-.09619.01221-.14355.022-.17432.03466-.34473.07959-.51368.1289-.01757.00537-.03564.0083-.05322.01367-.1748.05323-.34521.11573-.51269.1836-.01221.00537-.02539.00879-.03809.01416-.15967.0664-.31494.1416-.46729.2207-.021.01123-.043.01953-.064.03076-.1416.07617-.27832.16016-.4126.24707-.03027.01953-.0625.03565-.09228.05616-.13037.08691-.25489.18261-.37793.27929-.03076.02442-.06348.0459-.09424.0708-.15283.12549-.29981.2583-.43945.39844L95.47363,48.0415a5.99971,5.99971,0,0,0,8.48438,8.48536ZM38.48535,134H96a6,6,0,0,0,0-12H38.48535l18.041-18.0415A5.99971,5.99971,0,0,0,48.042,95.47314L19.76172,123.75391a6.024,6.024,0,0,0-.75879.92724c-.01367.02051-.02441.042-.03809.0625a5.987,5.987,0,0,0-.51318.97559c-.01025.0249-.01807.05078-.02783.07568a5.95213,5.95213,0,0,0-.30908,1.04248c-.00391.01953-.00538.03906-.00879.0586a5.80428,5.80428,0,0,0,0,2.208c.00341.01954.00488.03907.00879.0586a5.95213,5.95213,0,0,0,.30908,1.04248c.00976.0249.01758.05078.02783.07568a5.987,5.987,0,0,0,.51318.97559c.01368.02051.02442.042.03809.0625a6.0432,6.0432,0,0,0,.75781.92676L48.042,160.52686a5.99971,5.99971,0,0,0,8.48438-8.48536Zm198.51172-2.68115c.01367-.02051.02441-.042.03809-.0625a5.98777,5.98777,0,0,0,.51318-.97559c.01025-.0249.01807-.05078.02783-.07568a5.95213,5.95213,0,0,0,.30908-1.04248c.00391-.01953.00537-.03906.00879-.0586a5.80428,5.80428,0,0,0,0-2.208c-.00342-.01954-.00488-.03907-.00879-.0586a5.95213,5.95213,0,0,0-.30908-1.04248c-.00976-.0249-.01758-.05078-.02783-.07568a5.98777,5.98777,0,0,0-.51318-.97559c-.01368-.02051-.02442-.042-.03809-.0625a6.024,6.024,0,0,0-.75879-.92724L207.958,95.47314a5.99971,5.99971,0,0,0-8.48438,8.48536L217.51465,122H160a6,6,0,0,0,0,12h57.51465l-18.041,18.0415a5.99971,5.99971,0,1,0,8.48438,8.48536l28.28125-28.28125A6.0432,6.0432,0,0,0,236.99707,131.31885Z"/>
</svg>
