<svg id="Flat" xmlns="http://www.w3.org/2000/svg" viewBox="0 0 256 256">
  <path d="M117.99219,144.00684,118,203.999a6,6,0,0,1-12,.002l-.00586-45.51075L44.21387,220.27051a5.99971,5.99971,0,0,1-8.48535-8.48438l61.78027-61.78027L51.999,150A6,6,0,0,1,52,138h.001l59.99218.00781A5.99989,5.99989,0,0,1,117.99219,144.00684ZM208,34H72A14.01572,14.01572,0,0,0,58,48V96a6,6,0,0,0,12,0V48a2.00229,2.00229,0,0,1,2-2H208a2.00229,2.00229,0,0,1,2,2V184a2.00229,2.00229,0,0,1-2,2H160a6,6,0,0,0,0,12h48a14.01572,14.01572,0,0,0,14-14V48A14.01572,14.01572,0,0,0,208,34Z"/>
</svg>
