<svg id="Flat" xmlns="http://www.w3.org/2000/svg" viewBox="0 0 256 256">
  <path d="M228.23926,172.24561l-47.99707,47.99707a5.99971,5.99971,0,0,1-8.48438-8.48536L209.51465,174H88A62,62,0,0,1,88,50h88a6,6,0,0,1,0,12H88a50,50,0,0,0,0,100H209.51465l-37.75684-37.75732a5.99971,5.99971,0,0,1,8.48438-8.48536l47.99634,47.99659a6.0209,6.0209,0,0,1,.7583.92724c.01367.02051.0249.042.03833.0625a5.98834,5.98834,0,0,1,.5133.97559c.01026.0249.01782.05078.02771.07568a5.94187,5.94187,0,0,1,.30908,1.04248c.00391.01953.00537.03906.00891.0586a5.81074,5.81074,0,0,1,0,2.208c-.00354.01954-.005.03907-.00891.0586a5.94187,5.94187,0,0,1-.30908,1.04248c-.00989.0249-.01745.05078-.02771.07568a5.98834,5.98834,0,0,1-.5133.97559c-.01343.02051-.02466.042-.03833.0625A6.013,6.013,0,0,1,228.23926,172.24561Z"/>
</svg>
