<svg id="Flat" xmlns="http://www.w3.org/2000/svg" viewBox="0 0 256 256">
  <path d="M220.24219,180.24268,172.245,228.23975a6.03487,6.03487,0,0,1-.92542.75683c-.02148.01416-.04382.02564-.06543.03955a5.95972,5.95972,0,0,1-.97314.51221c-.02539.0105-.05127.01807-.07679.02808a5.93775,5.93775,0,0,1-1.042.30883c-.01941.00391-.03869.00513-.058.00879a5.80689,5.80689,0,0,1-2.2085,0c-.01929-.00366-.03857-.00488-.058-.00879a5.9375,5.9375,0,0,1-1.042-.30883c-.02552-.01-.0514-.01758-.07679-.02808a5.95972,5.95972,0,0,1-.97314-.51221c-.02161-.01391-.04395-.02539-.06543-.03955a6.03487,6.03487,0,0,1-.92542-.75683l-47.99719-47.99707a5.99971,5.99971,0,0,1,8.48438-8.48536L162,209.51465V88A50,50,0,0,0,62,88v88a6,6,0,0,1-12,0V88a62,62,0,0,1,124,0V209.51465l37.75781-37.75733a5.99971,5.99971,0,0,1,8.48438,8.48536Z"/>
</svg>
