<svg id="Flat" xmlns="http://www.w3.org/2000/svg" viewBox="0 0 256 256">
  <path d="M232.916,151.376c-.01294.01953-.02356.04052-.03663.06006a6.03526,6.03526,0,0,1-1.67871,1.67919c-.0205.01368-.04211.02442-.06286.03809a5.97988,5.97988,0,0,1-.97486.51318c-.02539.01026-.05139.01807-.0769.02784a5.93342,5.93342,0,0,1-1.0415.30908c-.01966.0039-.03931.00537-.059.00879a6.00085,6.00085,0,0,1-1.10376.10595h-64a6,6,0,0,1,0-12h49.51562l-21.75781-21.75781A90.00049,90.00049,0,0,0,38,184a6,6,0,0,1-12,0,101.99946,101.99946,0,0,1,174.125-72.124l21.75684,21.75732V84.11816a6,6,0,1,1,12,0v64a6.017,6.017,0,0,1-.10584,1.104c-.00354.01953-.005.03906-.00891.0581a5.92814,5.92814,0,0,1-.30933,1.04346c-.00976.0249-.01709.04981-.02734.07471A5.985,5.985,0,0,1,232.916,151.376Z"/>
</svg>
