<svg id="Flat" xmlns="http://www.w3.org/2000/svg" viewBox="0 0 256 256">
  <path d="M214,48V96a6,6,0,0,1-12,0V62.48486l-45.75781,45.75782a5.99971,5.99971,0,0,1-8.48438-8.48536L193.51514,54H160a6,6,0,0,1,0-12h48a6.00824,6.00824,0,0,1,1.10693.10645c.01807.00317.03662.00463.05469.0083a5.95012,5.95012,0,0,1,1.04346.30908c.02539.01.05078.01758.07568.02783a5.97765,5.97765,0,0,1,.97315.512c.02148.01416.04443.02564.06591.04a6.02607,6.02607,0,0,1,1.67676,1.67725c.01416.02075.02539.04248.03858.06347a5.96764,5.96764,0,0,1,.51318.97461c.01025.02539.01807.051.02783.07642a5.94082,5.94082,0,0,1,.30908,1.042c.00391.01953.00537.03906.00879.0586A6.00343,6.00343,0,0,1,214,48ZM99.75781,147.75732,54,193.51514V160a6,6,0,0,0-12,0v48a6.00343,6.00343,0,0,0,.106,1.104c.00342.01954.00488.03907.00879.0586a5.94082,5.94082,0,0,0,.30908,1.042c.00976.02539.01758.051.02783.07642a5.96764,5.96764,0,0,0,.51318.97461c.01319.021.02442.04272.03858.06347a6.02544,6.02544,0,0,0,1.67724,1.67749c.021.01416.04346.02564.06495.03955a5.96367,5.96367,0,0,0,.97363.51221c.02539.0105.05127.01807.07666.02808a5.93471,5.93471,0,0,0,1.042.30883c.019.00391.03857.00513.05811.00879A5.99738,5.99738,0,0,0,48,214H96a6,6,0,0,0,0-12H62.48486l45.75733-45.75732a5.99971,5.99971,0,0,0-8.48438-8.48536Z"/>
</svg>
