<svg id="Flat" xmlns="http://www.w3.org/2000/svg" viewBox="0 0 256 256">
  <path d="M228.24268,115.75781l-96-96a5.999,5.999,0,0,0-8.48536,0l-96,96A5.99971,5.99971,0,0,0,32,126H74v26a6.00029,6.00029,0,0,0,6,6h96a6.00029,6.00029,0,0,0,6-6V126h42a5.99971,5.99971,0,0,0,4.24268-10.24219ZM176,114a6.00029,6.00029,0,0,0-6,6v26H86V120a6.00029,6.00029,0,0,0-6-6H46.48535L128,32.48535,209.51465,114Zm6,102a6.00029,6.00029,0,0,1-6,6H80a6,6,0,0,1,0-12h96A6.00029,6.00029,0,0,1,182,216Zm0-32a6.00029,6.00029,0,0,1-6,6H80a6,6,0,0,1,0-12h96A6.00029,6.00029,0,0,1,182,184Z"/>
</svg>
