<svg id="Flat" xmlns="http://www.w3.org/2000/svg" viewBox="0 0 256 256">
  <path d="M188.63184,131.80933c-.11329.13745-.23389.26879-.3584.39563-.01221.01208-.02246.02563-.03418.03772l-72.00049,72a6.00005,6.00005,0,1,1-8.48535-8.48536L169.51074,134H31.99609a6,6,0,0,1,0-12H169.51074L107.75342,60.24268a6.00005,6.00005,0,1,1,8.48535-8.48536l72.00049,72c.01172.01209.022.02564.03418.03772.12451.12683.24511.25818.3584.39563.03808.04688.07128.09754.10839.14551.083.10718.16651.21387.24219.32666.02735.04138.05078.08521.07715.1272.07861.12378.15625.24792.22559.37756.01709.03113.03027.06385.04589.09522.07374.14282.14454.28723.20655.4364.00879.022.01562.04492.02441.06714.064.15869.12354.31958.17334.48474.00733.02307.01172.04675.01807.0697.04785.1637.09131.3291.12549.498.00976.05053.01416.10254.02343.15332.02442.14184.04932.28345.06348.42846a5.94914,5.94914,0,0,1,0,1.19874c-.01416.145-.03906.28662-.06348.42846-.00927.05078-.01367.10279-.02343.15332-.03418.16895-.07764.33435-.12549.49805-.00635.02295-.01074.04663-.01807.0697-.0498.16516-.10937.32605-.17334.48474-.00879.02222-.01562.04517-.02441.06714-.062.14917-.13281.29358-.20655.4364-.01562.03137-.0288.06409-.04589.09522-.06934.12964-.147.25378-.22559.37756-.02637.042-.0498.08582-.07715.1272-.07568.11279-.15918.21948-.24219.32666C188.70312,131.71179,188.66992,131.76245,188.63184,131.80933ZM216,34a6.00029,6.00029,0,0,0-6,6V216a6,6,0,0,0,12,0V40A6.00029,6.00029,0,0,0,216,34Z"/>
</svg>
