<svg id="Flat" xmlns="http://www.w3.org/2000/svg" viewBox="0 0 256 256">
  <path d="M228.24219,100.24268a5.999,5.999,0,0,1-8.48438,0L182,62.48535V192a6.00029,6.00029,0,0,1-6,6H32a6,6,0,0,1,0-12H170V62.48535l-37.75781,37.75733a5.99971,5.99971,0,0,1-8.48438-8.48536L171.755,43.76013a6.025,6.025,0,0,1,.92518-.75647c.02172-.0144.04419-.02588.06591-.04a5.983,5.983,0,0,1,.97315-.512c.0249-.01025.05054-.01782.07556-.02783a5.95538,5.95538,0,0,1,1.04382-.30921c.01807-.00354.03614-.005.05432-.0083a5.81681,5.81681,0,0,1,2.21412,0c.01818.0033.03625.00476.05432.0083a5.95538,5.95538,0,0,1,1.04382.30921c.025.01.05066.01758.07556.02783a5.983,5.983,0,0,1,.97315.512c.02172.01416.04419.02564.06591.04a6.025,6.025,0,0,1,.92518.75647l47.99719,47.99719A5.999,5.999,0,0,1,228.24219,100.24268Z"/>
</svg>
