<svg id="Flat" xmlns="http://www.w3.org/2000/svg" viewBox="0 0 256 256">
  <path d="M230,112a62.07041,62.07041,0,0,1-62,62H46.48535l37.75684,37.75732a5.99971,5.99971,0,1,1-8.48438,8.48536L27.76074,172.24561a6.05207,6.05207,0,0,1-.75781-.92676c-.01355-.02051-.02441-.042-.03784-.0625a5.95948,5.95948,0,0,1-.51355-.97559c-.01026-.0249-.01782-.05078-.02771-.07568a5.94187,5.94187,0,0,1-.30908-1.04248c-.00391-.01953-.00538-.03906-.00892-.0586a5.81128,5.81128,0,0,1,0-2.208c.00354-.01954.005-.03907.00892-.0586a5.94187,5.94187,0,0,1,.30908-1.04248c.00989-.0249.01745-.05078.02771-.07568a5.95948,5.95948,0,0,1,.51355-.97559c.01343-.02051.02429-.042.03784-.0625a6.02241,6.02241,0,0,1,.75854-.92724l47.99634-47.99659a5.99971,5.99971,0,1,1,8.48438,8.48536L46.48535,162H168a50,50,0,0,0,0-100H80a6,6,0,0,1,0-12h88A62.07041,62.07041,0,0,1,230,112Z"/>
</svg>
