<svg id="Flat" xmlns="http://www.w3.org/2000/svg" viewBox="0 0 256 256">
  <path d="M28.57886,104.752c-.02161-.014-.04395-.02539-.06543-.03967a6.03258,6.03258,0,0,1-1.67725-1.67743c-.01379-.02081-.0249-.04254-.03857-.06347a5.98172,5.98172,0,0,1-.51294-.97467c-.0105-.02527-.01807-.051-.02808-.07642a5.93715,5.93715,0,0,1-.30884-1.04205c-.0039-.01947-.00537-.039-.00891-.05848a6.01433,6.01433,0,0,1-.10583-1.104v-48a6,6,0,0,1,12,0V85.231L61.53223,61.53174a94.1062,94.1062,0,0,1,132.93554,0,5.9997,5.9997,0,1,1-8.48437,8.48535,82.09465,82.09465,0,0,0-115.9668,0L46.31787,93.71582H79.833a6,6,0,0,1,0,12h-48a6.01668,6.01668,0,0,1-1.10425-.1059c-.01929-.00366-.03857-.00506-.058-.00885a5.94283,5.94283,0,0,1-1.042-.30877c-.02551-.01007-.05139-.01764-.07678-.02808A5.9737,5.9737,0,0,1,28.57886,104.752Zm201.4823,50.42817c-.00354-.01947-.005-.039-.00891-.05848a5.93715,5.93715,0,0,0-.30884-1.04205c-.01-.02539-.01758-.05115-.02808-.07642a5.98172,5.98172,0,0,0-.51294-.97467c-.01367-.02093-.02478-.04266-.03857-.06347a6.032,6.032,0,0,0-1.677-1.67725c-.02173-.0144-.04419-.02594-.06592-.04a5.98208,5.98208,0,0,0-.97315-.512c-.0249-.01026-.05053-.01782-.07556-.02771a5.95015,5.95015,0,0,0-1.04382-.30927c-.01807-.00354-.03613-.00494-.05432-.0083a6.021,6.021,0,0,0-1.10706-.10632h-48a6,6,0,0,0,0,12h33.51514L185.9834,185.98291a82.09465,82.09465,0,0,1-115.9668,0,5.9997,5.9997,0,0,0-8.48437,8.48535,94.1062,94.1062,0,0,0,132.93554,0L218.167,170.769v33.51514a6,6,0,0,0,12,0v-48A6.01433,6.01433,0,0,0,230.06116,155.18018Z"/>
</svg>
