<svg id="Flat" xmlns="http://www.w3.org/2000/svg" viewBox="0 0 256 256">
  <path d="M212.24219,52.24219,166.48438,98H200a6,6,0,0,1,0,12H152a5.99738,5.99738,0,0,1-1.104-.106c-.01954-.00366-.03907-.005-.05811-.00879a5.93468,5.93468,0,0,1-1.043-.30908c-.0249-.00989-.05029-.01733-.07519-.02759a5.97407,5.97407,0,0,1-.97608-.51367c-.02051-.01343-.042-.02417-.062-.03784a6.02243,6.02243,0,0,1-1.6792-1.6792c-.01318-.01977-.02392-.0404-.03662-.0603a6.002,6.002,0,0,1-.51465-.97742c-.00976-.02466-.01758-.04993-.02734-.07458a5.95391,5.95391,0,0,1-.30908-1.04322c-.00391-.01941-.00537-.03881-.00879-.05835A6.00242,6.00242,0,0,1,146,104V56a6,6,0,0,1,12,0V89.51562l45.75781-45.75781a5.99936,5.99936,0,0,1,8.48438,8.48438ZM109.88525,150.83765a5.9449,5.9449,0,0,0-.30908-1.043c-.00976-.0249-.01758-.0503-.02734-.075a5.99549,5.99549,0,0,0-.51465-.9773c-.0127-.02-.02344-.04053-.03662-.0603a6.02793,6.02793,0,0,0-1.67871-1.679c-.02051-.01379-.042-.0249-.063-.03833a5.99693,5.99693,0,0,0-.97461-.51318c-.02539-.0105-.05127-.01807-.07715-.02808a5.93974,5.93974,0,0,0-1.0415-.30883c-.01953-.00379-.03906-.00525-.05908-.00892A6.00759,6.00759,0,0,0,104,146H56a6,6,0,0,0,0,12H89.51562L43.75781,203.75781a5.99936,5.99936,0,1,0,8.48438,8.48438L98,166.48438V200a6,6,0,0,0,12,0V152a6.00242,6.00242,0,0,0-.106-1.104C109.89062,150.87646,109.88916,150.85706,109.88525,150.83765Z"/>
</svg>
