<svg id="Flat" xmlns="http://www.w3.org/2000/svg" viewBox="0 0 256 256">
  <path d="M212.23975,84.245l-47.99756,47.99768a5.99971,5.99971,0,0,1-8.48438-8.48536L193.51465,86H70V224a6,6,0,0,1-12,0V80a6.00029,6.00029,0,0,1,6-6H193.51465L155.75781,36.24268a5.99971,5.99971,0,0,1,8.48438-8.48536L212.23975,75.755a6.01939,6.01939,0,0,1,.75683.92591c.01416.02075.02539.04248.03858.06347a5.97373,5.97373,0,0,1,.51318.97461c.01025.02539.01807.051.02783.07642a5.93905,5.93905,0,0,1,.30908,1.04211c.00391.01941.00537.03894.00879.05848a5.80428,5.80428,0,0,1,0,2.208c-.00342.01954-.00488.03907-.00879.05848a5.93905,5.93905,0,0,1-.30908,1.04211c-.00976.02539-.01758.051-.02783.07642a5.97373,5.97373,0,0,1-.51318.97461c-.01319.021-.02442.04272-.03858.06347A6.01939,6.01939,0,0,1,212.23975,84.245Z"/>
</svg>
