<svg id="Flat" xmlns="http://www.w3.org/2000/svg" viewBox="0 0 256 256">
  <path d="M51.75732,116.23877a6.00005,6.00005,0,1,1,8.48536-8.48535L122,169.51074V31.99609a6,6,0,0,1,12,0V169.51074l61.75732-61.75732a6.00005,6.00005,0,1,1,8.48536,8.48535l-72,72-.00147.001a6.03057,6.03057,0,0,1-.92139.75293c-.02148.01416-.04394.02563-.06543.03955a5.97791,5.97791,0,0,1-.97314.5122c-.02539.0105-.05176.01807-.07715.02832a5.94944,5.94944,0,0,1-1.0415.3086c-.01953.0039-.03906.00537-.0586.00879a5.80482,5.80482,0,0,1-2.208,0c-.01954-.00342-.03907-.00489-.0586-.00879a5.94944,5.94944,0,0,1-1.0415-.3086c-.02539-.01025-.05176-.01782-.07715-.02832a5.97791,5.97791,0,0,1-.97314-.5122c-.02149-.01392-.04395-.02539-.06543-.03955a6.04745,6.04745,0,0,1-.9209-.75245l-.002-.00146ZM216,209.99609H40a6,6,0,0,0,0,12H216a6,6,0,0,0,0-12Z"/>
</svg>
