<svg id="Flat" xmlns="http://www.w3.org/2000/svg" viewBox="0 0 256 256">
  <path d="M238,80v72a6,6,0,0,1-12,0V94.48437L124.24219,196.24219a5.99782,5.99782,0,0,1-8.48438,0l-96-96a5.99936,5.99936,0,0,1,8.48438-8.48438L120,183.51465,217.5155,86H160a6,6,0,0,1,0-12h72a6.01121,6.01121,0,0,1,1.10376.10583c.01965.00367.03931.00513.059.00892a5.94279,5.94279,0,0,1,1.0415.30883c.02552.01.05152.01758.07691.02808a5.99927,5.99927,0,0,1,.97485.51318c.02075.01343.04236.02454.06287.03833a6.02965,6.02965,0,0,1,1.67871,1.679c.01318.01977.02368.04028.03662.0603a5.985,5.985,0,0,1,.5144.9773c.01026.02465.01758.05.02747.075a5.935,5.935,0,0,1,.3092,1.043c.00391.01941.00537.03881.00892.05835A6.01374,6.01374,0,0,1,238,80Z"/>
</svg>
