<svg id="Flat" xmlns="http://www.w3.org/2000/svg" viewBox="0 0 256 256">
  <path d="M204.24219,84.24219a5.99782,5.99782,0,0,1-8.48438,0L158,46.48535V128A102.1153,102.1153,0,0,1,56,230a6,6,0,0,1,0-12,90.10217,90.10217,0,0,0,90-90V46.48535L108.24219,84.24219a5.99936,5.99936,0,0,1-8.48438-8.48438l47.99231-47.99219a6.061,6.061,0,0,1,.931-.76269c.02051-.01367.04212-.02441.06287-.03809a5.97979,5.97979,0,0,1,.97485-.51318c.02539-.01025.05139-.01807.07691-.02783a5.93231,5.93231,0,0,1,1.0415-.30908c.01965-.00391.03931-.00538.059-.00879a5.80178,5.80178,0,0,1,2.20752,0c.01965.00341.03931.00488.059.00879a5.93231,5.93231,0,0,1,1.0415.30908c.02552.00976.05152.01758.07691.02783a5.97979,5.97979,0,0,1,.97485.51318c.02075.01368.04236.02442.06287.03809a6.061,6.061,0,0,1,.931.76269l47.99231,47.99219A5.99782,5.99782,0,0,1,204.24219,84.24219Z"/>
</svg>
