<svg id="Flat" xmlns="http://www.w3.org/2000/svg" viewBox="0 0 256 256">
  <path d="M208,34H48A14.01572,14.01572,0,0,0,34,48V208a14.01572,14.01572,0,0,0,14,14H208a14.01572,14.01572,0,0,0,14-14V48A14.01572,14.01572,0,0,0,208,34Zm2,174a2.00229,2.00229,0,0,1-2,2H48a2.00229,2.00229,0,0,1-2-2V48a2.00229,2.00229,0,0,1,2-2H208a2.00229,2.00229,0,0,1,2,2Zm-37.75732-84.24219a5.99871,5.99871,0,0,1,0,8.48438l-33.94092,33.9414a5.9997,5.9997,0,1,1-8.48535-8.48437L153.51489,134H88a6,6,0,0,1,0-12h65.51489L129.81641,98.30078a5.9997,5.9997,0,1,1,8.48535-8.48437Z"/>
</svg>
