<svg xmlns="http://www.w3.org/2000/svg" viewBox="0 0 256 256"><path d="M214,48V88a6,6,0,0,1-12,0V62.5l-45.8,45.7a5.9,5.9,0,0,1-8.4-8.4L193.5,54H168a6,6,0,0,1,0-12h40A6,6,0,0,1,214,48ZM99.8,147.8,54,193.5V168a6,6,0,0,0-12,0v40a6,6,0,0,0,6,6H88a6,6,0,0,0,0-12H62.5l45.7-45.8a5.9,5.9,0,0,0-8.4-8.4ZM208,162a6,6,0,0,0-6,6v25.5l-45.8-45.7a5.9,5.9,0,0,0-8.4,8.4L193.5,202H168a6,6,0,0,0,0,12h40a6,6,0,0,0,6-6V168A6,6,0,0,0,208,162ZM62.5,54H88a6,6,0,0,0,0-12H48a6,6,0,0,0-6,6V88a6,6,0,0,0,12,0V62.5l45.8,45.7a5.9,5.9,0,0,0,8.4-8.4Z"/></svg>