<svg id="Flat" xmlns="http://www.w3.org/2000/svg" viewBox="0 0 256 256">
  <path d="M229.20239,102.97144c-.01367.02093-.02478.04266-.03857.06347a6.032,6.032,0,0,1-1.677,1.67725c-.02173.0144-.04419.02594-.06592.04a5.98208,5.98208,0,0,1-.97315.512c-.0249.01026-.05053.01782-.07556.02771a5.95015,5.95015,0,0,1-1.04382.30927c-.01807.00354-.03613.00494-.05432.0083a6.021,6.021,0,0,1-1.10706.10632h-48a6,6,0,0,1,0-12h33.51514L185.9834,70.01709a82.00056,82.00056,0,1,0,0,115.96582,5.9997,5.9997,0,1,1,8.48437,8.48535,94,94,0,1,1,0-132.93652L218.167,85.231V51.71582a6,6,0,0,1,12,0v48a6.01433,6.01433,0,0,1-.10583,1.104c-.00354.01947-.005.039-.00891.05848a5.93715,5.93715,0,0,1-.30884,1.04205c-.01.02539-.01758.05115-.02808.07642A5.98172,5.98172,0,0,1,229.20239,102.97144Z"/>
</svg>
