<svg id="Flat" xmlns="http://www.w3.org/2000/svg" viewBox="0 0 256 256">
  <path d="M222,128a6.00029,6.00029,0,0,1-6,6H40a6,6,0,0,1,0-12H216A6.00029,6.00029,0,0,1,222,128ZM100.24219,52.24219,122,30.48511V96a6,6,0,0,0,12,0V30.48511l21.75781,21.75708a5.99936,5.99936,0,0,0,8.48438-8.48438L132.25,11.76562a6.01191,6.01191,0,0,0-.93115-.76245c-.02051-.01391-.042-.0249-.063-.03833a5.99693,5.99693,0,0,0-.97461-.51318c-.02539-.0105-.05127-.01807-.07715-.02808a5.95,5.95,0,0,0-1.0415-.30883c-.01953-.00391-.03906-.00537-.05908-.00879a5.79928,5.79928,0,0,0-2.207,0c-.02.00342-.03955.00488-.05908.00879a5.95,5.95,0,0,0-1.0415.30883c-.02588.01-.05176.01758-.07715.02808a5.99693,5.99693,0,0,0-.97461.51318c-.021.01343-.04248.02442-.063.03833a6.01191,6.01191,0,0,0-.93115.76245L91.75781,43.75781a5.99936,5.99936,0,0,0,8.48438,8.48438Zm55.51562,151.51562L134,225.51489V160a6,6,0,0,0-12,0v65.51489l-21.75781-21.75708a5.99936,5.99936,0,0,0-8.48438,8.48438L123.75,244.23438a6.01664,6.01664,0,0,0,.93164.76269c.02.01367.0415.02441.062.03784a5.97407,5.97407,0,0,0,.97608.51367c.0249.01026.05029.01783.07519.02759a5.9449,5.9449,0,0,0,1.043.30908c.019.00391.03857.00513.05811.00879a5.80428,5.80428,0,0,0,2.208,0c.01954-.00366.03907-.00488.05811-.00879a5.9449,5.9449,0,0,0,1.043-.30908c.0249-.00976.05029-.01733.07519-.02759a5.97407,5.97407,0,0,0,.97608-.51367c.02051-.01343.042-.02417.062-.03784a6.01664,6.01664,0,0,0,.93164-.76269l31.99219-31.99219a5.99936,5.99936,0,0,0-8.48438-8.48438Z"/>
</svg>
