<svg id="Flat" xmlns="http://www.w3.org/2000/svg" viewBox="0 0 256 256">
  <path d="M204.24268,139.76123a6.00005,6.00005,0,0,1-8.48536,8.48535L134,86.48926V224.00391a6,6,0,1,1-12,0V86.48926L60.24268,148.24658a6.00005,6.00005,0,0,1-8.48536-8.48535l72-72,.002-.00146a6.04745,6.04745,0,0,1,.9209-.75245c.02148-.01416.04394-.02563.06543-.03955a5.98825,5.98825,0,0,1,.97412-.51245c.02441-.01.0498-.01758.07422-.02734a5.97912,5.97912,0,0,1,1.04492-.30957c.01806-.00342.03564-.00464.05371-.00806a5.81411,5.81411,0,0,1,2.21484,0c.01807.00342.03565.00464.05371.00806a5.97912,5.97912,0,0,1,1.04492.30957c.02442.00976.04981.01733.07422.02734a5.98825,5.98825,0,0,1,.97412.51245c.02149.01392.04395.02539.06543.03955a6.03057,6.03057,0,0,1,.92139.75293l.00147.001ZM216,34H40a6,6,0,0,0,0,12H216a6,6,0,0,0,0-12Z"/>
</svg>
