<svg id="Flat" xmlns="http://www.w3.org/2000/svg" viewBox="0 0 256 256">
  <path d="M214,48V88a6,6,0,0,1-12,0V62.48486l-45.75781,45.75782a5.99971,5.99971,0,0,1-8.48438-8.48536L193.51514,54H168a6,6,0,0,1,0-12h40a5.99629,5.99629,0,0,1,1.10352.106c.02.00342.03955.00488.05908.00879a5.97006,5.97006,0,0,1,1.0415.30859c.02539.01025.05176.01807.07715.02832a5.99047,5.99047,0,0,1,.97266.51172c.02148.01416.04443.02588.06591.04a6.02965,6.02965,0,0,1,1.67725,1.67773c.01367.02051.02441.042.0376.0625a5.93243,5.93243,0,0,1,.51367.97559c.01025.0249.01807.05078.02783.07568a5.95213,5.95213,0,0,1,.30908,1.04248c.00391.01953.00537.03906.00879.0586A6.00141,6.00141,0,0,1,214,48ZM99.75781,147.75732,54,193.51514V168a6,6,0,0,0-12,0v40a6.00553,6.00553,0,0,0,.106,1.104c.00341.01954.00488.03907.00879.0586a5.95213,5.95213,0,0,0,.30908,1.04248c.00976.0249.01758.05078.02783.07568a5.987,5.987,0,0,0,.51318.97559c.01368.02051.02442.042.03809.0625a6.03136,6.03136,0,0,0,1.67773,1.67773c.021.01416.04346.02588.06495.03955a5.979,5.979,0,0,0,.97314.51221c.02588.01025.05176.01807.07715.02832a5.93411,5.93411,0,0,0,1.042.30859c.019.00391.03857.00537.05811.00879A5.99738,5.99738,0,0,0,48,214H88a6,6,0,0,0,0-12H62.48486l45.75733-45.75732a5.99971,5.99971,0,0,0-8.48438-8.48536ZM208,162a6.00029,6.00029,0,0,0-6,6v25.51514l-45.75781-45.75782a5.99971,5.99971,0,0,0-8.48438,8.48536L193.51514,202H168a6,6,0,0,0,0,12h40a5.99738,5.99738,0,0,0,1.104-.106c.01954-.00342.03907-.00488.05811-.00879a5.93411,5.93411,0,0,0,1.042-.30859c.02539-.01025.05127-.01807.07715-.02832a5.979,5.979,0,0,0,.97314-.51221c.02149-.01367.04395-.02539.065-.03955a6.03136,6.03136,0,0,0,1.67773-1.67773c.01367-.02051.02441-.042.03809-.0625a5.98777,5.98777,0,0,0,.51318-.97559c.01025-.0249.01807-.05078.02783-.07568a5.95213,5.95213,0,0,0,.30908-1.04248c.00391-.01953.00537-.03906.00879-.0586A6.00553,6.00553,0,0,0,214,208V168A6.00029,6.00029,0,0,0,208,162ZM62.48486,54H88a6,6,0,0,0,0-12H48a5.99629,5.99629,0,0,0-1.10352.106c-.02.00342-.03955.00488-.05908.00879a5.97006,5.97006,0,0,0-1.0415.30859c-.02539.01025-.05176.01807-.07715.02832a5.99047,5.99047,0,0,0-.97266.51172c-.02148.01416-.04443.02588-.06591.04a6.02952,6.02952,0,0,0-1.67725,1.67773c-.01367.02051-.02441.042-.0376.0625a5.93167,5.93167,0,0,0-.51367.97559c-.01025.0249-.01807.05078-.02783.07568a5.95213,5.95213,0,0,0-.30908,1.04248c-.00391.01953-.00538.03906-.00879.0586A6.00141,6.00141,0,0,0,42,48V88a6,6,0,0,0,12,0V62.48486l45.75781,45.75782a5.99971,5.99971,0,0,0,8.48438-8.48536Z"/>
</svg>
