<svg id="Flat" xmlns="http://www.w3.org/2000/svg" viewBox="0 0 256 256">
  <path d="M236.24219,100.24219l-96,96a5.99782,5.99782,0,0,1-8.48438,0L30,94.48437V152a6,6,0,0,1-12,0V80a6.01374,6.01374,0,0,1,.10583-1.104c.00354-.01954.005-.03894.00892-.05835a5.935,5.935,0,0,1,.3092-1.043c.00989-.0249.01721-.0503.02747-.075a5.985,5.985,0,0,1,.5144-.9773c.01294-.02.02344-.04053.03662-.0603a6.02965,6.02965,0,0,1,1.67871-1.679c.02051-.01379.04212-.0249.06287-.03833a5.99927,5.99927,0,0,1,.97485-.51318c.02539-.0105.05139-.01807.07691-.02808a5.94279,5.94279,0,0,1,1.0415-.30883c.01965-.00379.03931-.00525.059-.00892A6.01121,6.01121,0,0,1,24,74H96a6,6,0,0,1,0,12H38.4845L136,183.51465l91.75781-91.75684a5.99936,5.99936,0,0,1,8.48438,8.48438Z"/>
</svg>
