<svg id="Flat" xmlns="http://www.w3.org/2000/svg" viewBox="0 0 256 256">
  <path d="M230,184a6,6,0,0,1-12,0A89.99936,89.99936,0,0,0,64.36133,120.36035L42.60278,142.11816H92.11816a6,6,0,0,1,0,12h-64a6.00085,6.00085,0,0,1-1.10376-.10595c-.01965-.00342-.0393-.00489-.059-.00879a5.93342,5.93342,0,0,1-1.0415-.30908c-.02551-.00977-.05151-.01758-.0769-.02784a5.97988,5.97988,0,0,1-.97486-.51318c-.02075-.01367-.04236-.02441-.06286-.03809a6.03526,6.03526,0,0,1-1.67871-1.67919c-.01307-.01954-.02369-.04053-.03663-.06006a5.985,5.985,0,0,1-.5144-.97754c-.01025-.0249-.01758-.04981-.02734-.07471a5.92814,5.92814,0,0,1-.30933-1.04346c-.00391-.019-.00537-.03857-.00891-.0581a6.017,6.017,0,0,1-.10584-1.104v-64a6,6,0,0,1,12,0v49.51563L55.876,111.876A101.99951,101.99951,0,0,1,230,184Z"/>
</svg>
