<svg id="Flat" xmlns="http://www.w3.org/2000/svg" viewBox="0 0 256 256">
  <path d="M180.24268,83.75781a5.99871,5.99871,0,0,1,0,8.48438L78.48486,194H164a6,6,0,0,1,0,12H64a6.01273,6.01273,0,0,1-1.104-.10583c-.01954-.00361-.03907-.00507-.0586-.00892a5.952,5.952,0,0,1-1.04248-.309c-.0249-.01-.05078-.01751-.07568-.02777a5.95976,5.95976,0,0,1-.97559-.51361c-.02051-.0133-.042-.02423-.0625-.03784a6.03139,6.03139,0,0,1-1.67822-1.67792c-.01367-.02112-.02539-.04315-.03906-.06439a6.00986,6.00986,0,0,1-.5127-.97412c-.01025-.02515-.01758-.05084-.02734-.07611a5.93611,5.93611,0,0,1-.30908-1.04169c-.00391-.0199-.00538-.03986-.00928-.05975A6.03531,6.03531,0,0,1,58,200V100a6,6,0,0,1,12,0v85.51514L171.75732,83.75781A5.999,5.999,0,0,1,180.24268,83.75781ZM216,34.00391H40a6,6,0,0,0,0,12H216a6,6,0,0,0,0-12Z"/>
</svg>
