<svg id="Flat" xmlns="http://www.w3.org/2000/svg" viewBox="0 0 256 256">
  <path d="M229.54346,133.7041A6.00025,6.00025,0,0,0,224,130H182V104a6.00029,6.00029,0,0,0-6-6H80a6.00029,6.00029,0,0,0-6,6v26H32a5.99971,5.99971,0,0,0-4.24268,10.24219l96,96a5.999,5.999,0,0,0,8.48536,0l96-96A5.99914,5.99914,0,0,0,229.54346,133.7041ZM128,223.51465,46.48535,142H80a6.00029,6.00029,0,0,0,6-6V110h84v26a6.00029,6.00029,0,0,0,6,6h33.51465ZM74,40a6.00029,6.00029,0,0,1,6-6h96a6,6,0,0,1,0,12H80A6.00029,6.00029,0,0,1,74,40Zm0,32a6.00029,6.00029,0,0,1,6-6h96a6,6,0,0,1,0,12H80A6.00029,6.00029,0,0,1,74,72Z"/>
</svg>
