<svg xmlns="http://www.w3.org/2000/svg" viewBox="0 0 256 256"><path d="M54,136a6,6,0,0,1-6,6H24a6,6,0,0,1,0-12H34V62H24a6,6,0,0,1,0-12H40a6,6,0,0,1,5.1,2.8L80,108.7l34.9-55.9A6,6,0,0,1,120,50h16a6,6,0,0,1,0,12H126v68h10a6,6,0,0,1,0,12H112a6,6,0,0,1,0-12h2V76.9L85.1,123.2a6,6,0,0,1-10.2,0L46,76.9V130h2A6,6,0,0,1,54,136Zm114-26h72a6,6,0,0,0,0-12H168a6,6,0,0,0,0,12Zm72,20H168a6,6,0,0,0,0,12h72a6,6,0,0,0,0-12Zm0,32H72a6,6,0,0,0,0,12H240a6,6,0,0,0,0-12Zm0,32H72a6,6,0,0,0,0,12H240a6,6,0,0,0,0-12Z"/></svg>