<svg id="Flat" xmlns="http://www.w3.org/2000/svg" viewBox="0 0 256 256">
  <path d="M216,42H40A14.01572,14.01572,0,0,0,26,56V200a14.01572,14.01572,0,0,0,14,14H216a14.01572,14.01572,0,0,0,14-14V56A14.01572,14.01572,0,0,0,216,42Zm2,158a2.0026,2.0026,0,0,1-2,2H40a2.0026,2.0026,0,0,1-2-2V56a2.0026,2.0026,0,0,1,2-2H216a2.0026,2.0026,0,0,1,2,2ZM186,96a6.00029,6.00029,0,0,1-6,6H76a6,6,0,0,1,0-12H180A6.00029,6.00029,0,0,1,186,96Zm0,32a6.00029,6.00029,0,0,1-6,6H76a6,6,0,0,1,0-12H180A6.00029,6.00029,0,0,1,186,128Zm0,32a6.00029,6.00029,0,0,1-6,6H76a6,6,0,0,1,0-12H180A6.00029,6.00029,0,0,1,186,160Z"/>
</svg>
