<svg id="Flat" xmlns="http://www.w3.org/2000/svg" viewBox="0 0 256 256">
  <path d="M127.99512,25.99512a102,102,0,1,0,56.40332,186.998,5.99986,5.99986,0,1,0-6.64453-9.99218,90.00788,90.00788,0,1,1,40.24121-75.00586c0,29.583-13.78418,34-22,34s-22-4.417-22-34v-40a6,6,0,1,0-12,0v9.04931a45.99726,45.99726,0,1,0,4.34326,56.32471c5.41553,13.22437,15.68945,20.626,29.65674,20.626,21.29,0,34-17.19629,34-46A102.1153,102.1153,0,0,0,127.99512,25.99512Zm0,136a34,34,0,1,1,34-34A34.038,34.038,0,0,1,127.99512,161.99512Z"/>
</svg>
