<svg xmlns="http://www.w3.org/2000/svg" viewBox="0 0 256 256"><path d="M193.6,128a197.3,197.3,0,0,0,19.9-33.5c10.7-23.8,11-42.6.8-52.8s-29-9.9-52.8.8A197.3,197.3,0,0,0,128,62.4,197.3,197.3,0,0,0,94.5,42.5c-23.8-10.7-42.6-11-52.8-.8s-9.9,29,.8,52.8A197.3,197.3,0,0,0,62.4,128a197.3,197.3,0,0,0-19.9,33.5c-10.7,23.8-11,42.6-.8,52.8,5,4.9,12,7.4,20.6,7.4s20-2.7,32.2-8.2A197.3,197.3,0,0,0,128,193.6a197.3,197.3,0,0,0,33.5,19.9c12.2,5.5,23.1,8.2,32.2,8.2s15.6-2.5,20.6-7.4c10.2-10.2,9.9-29-.8-52.8A197.3,197.3,0,0,0,193.6,128Zm12.2-77.8c6.2,6.3,5,21-3.3,39.3A173.4,173.4,0,0,1,186,118a309.6,309.6,0,0,0-22.6-25.4A309.6,309.6,0,0,0,138,70C169.6,47.9,196.5,41,205.8,50.2ZM178.7,128a308,308,0,0,1-23.8,26.9A312.9,312.9,0,0,1,128,178.7a312.9,312.9,0,0,1-26.9-23.8A308,308,0,0,1,77.3,128a308,308,0,0,1,23.8-26.9A312.9,312.9,0,0,1,128,77.3a312.9,312.9,0,0,1,26.9,23.8A308,308,0,0,1,178.7,128ZM53.5,89.5c-8.3-18.3-9.5-33-3.3-39.3,2.7-2.7,6.8-4,12.1-4,13.1,0,33.2,8,55.7,23.7A331,331,0,0,0,92.6,92.6,309.6,309.6,0,0,0,70,118,173.4,173.4,0,0,1,53.5,89.5ZM50.2,205.8c-6.2-6.3-5-21,3.3-39.3A173.4,173.4,0,0,1,70,138a309.6,309.6,0,0,0,22.6,25.4A309.6,309.6,0,0,0,118,186C86.4,208.1,59.5,215,50.2,205.8Zm155.6,0c-2.7,2.7-6.8,4-12.1,4-13.1,0-33.2-8-55.7-23.7a331,331,0,0,0,25.4-22.7A309.6,309.6,0,0,0,186,138a173.4,173.4,0,0,1,16.5,28.5C210.8,184.8,212,199.5,205.8,205.8ZM138,128a10,10,0,1,1-10-10A10,10,0,0,1,138,128Z"/></svg>