<svg id="Flat" xmlns="http://www.w3.org/2000/svg" viewBox="0 0 256 256">
  <path d="M193.64307,128a195.33618,195.33618,0,0,0,19.82861-33.53809c10.71191-23.80468,10.99414-42.53027.79541-52.72949-10.19922-10.19726-28.92529-9.915-52.729.79688A195.31631,195.31631,0,0,0,128,62.35742,195.31631,195.31631,0,0,0,94.46191,42.5293c-23.80371-10.71289-42.52978-10.99414-52.729-.79688-10.19873,10.19922-9.9165,28.92578.79541,52.72949A195.33618,195.33618,0,0,0,62.35693,128a195.33618,195.33618,0,0,0-19.82861,33.53809c-10.71191,23.80371-10.99414,42.53027-.79541,52.72949,4.96826,4.96777,11.959,7.44824,20.5752,7.44824,9.07177,0,19.9458-2.751,32.1538-8.24512A195.31631,195.31631,0,0,0,128,193.64258a195.31631,195.31631,0,0,0,33.53809,19.82812c12.21,5.49512,23.08154,8.24512,32.15429,8.24512,8.61426,0,15.60742-2.48144,20.57471-7.44824,10.19873-10.19922,9.9165-28.92481-.79541-52.72949A195.33618,195.33618,0,0,0,193.64307,128Zm12.13867-77.78125c6.23584,6.23535,5.02,20.93457-3.25342,39.31836a178.32742,178.32742,0,0,1-16.479,28.4563,303.09759,303.09759,0,0,0-22.69385-25.3479,303.21767,303.21767,0,0,0-25.34815-22.69409C169.62793,47.877,196.53906,40.97534,205.78174,50.21875ZM178.65381,128a289.064,289.064,0,0,1-23.78369,26.87012,288.47663,288.47663,0,0,1-26.87842,23.802,288.74448,288.74448,0,0,1-26.86182-23.802A288.98573,288.98573,0,0,1,77.34668,128a295.57761,295.57761,0,0,1,50.66211-50.67188,288.77364,288.77364,0,0,1,26.86133,23.80176A289.064,289.064,0,0,1,178.65381,128ZM53.47168,89.53711c-8.27344-18.38379-9.48926-33.083-3.25342-39.31836,2.67139-2.67187,6.81543-3.99512,12.12549-3.99512,13.064,0,33.16895,8.02173,55.65625,23.72193a308.39736,308.39736,0,0,0-48.04932,48.04785A178.32742,178.32742,0,0,1,53.47168,89.53711ZM50.21826,205.78125c-6.23584-6.23535-5.02-20.93457,3.25342-39.31836a178.32742,178.32742,0,0,1,16.479-28.4563,303.09759,303.09759,0,0,0,22.69385,25.3479,303.10974,303.10974,0,0,0,25.34863,22.69458C86.37256,208.12427,59.46143,215.02612,50.21826,205.78125Zm155.56348,0c-2.67139,2.67187-6.81543,3.99609-12.12549,3.99512-13.064-.00122-33.16895-8.02246-55.65625-23.72217a303.051,303.051,0,0,0,25.35547-22.69971,303.09759,303.09759,0,0,0,22.69385-25.3479,178.32742,178.32742,0,0,1,16.479,28.4563C210.80176,184.84668,212.01758,199.5459,205.78174,205.78125ZM138,128a10,10,0,1,1-10-10A9.99987,9.99987,0,0,1,138,128Z"/>
</svg>
