<svg id="Flat" xmlns="http://www.w3.org/2000/svg" viewBox="0 0 256 256">
  <path d="M128,26l-.05957.00073-.0542.00073A100.77138,100.77138,0,1,0,128,26Zm0,192A90.00127,90.00127,0,0,1,116.14014,38.78247C106.14551,56.18262,106,71.24707,106,72a22,22,0,0,0,44,0,6,6,0,0,0-12,0,10,10,0,0,1-20,.02441c.00146-.17285.2998-16.79785,12.92627-33.97168A89.99739,89.99739,0,0,1,128,218ZM92,138a10,10,0,1,1,10-10A9.99987,9.99987,0,0,1,92,138Zm82-10a10,10,0,1,1-10-10A9.99987,9.99987,0,0,1,174,128Zm-14.46484,36.68164A6.00046,6.00046,0,0,1,157.85986,173a54.03317,54.03317,0,0,1-59.71777.001,6.00014,6.00014,0,0,1,6.64258-9.99414,42.03076,42.03076,0,0,0,46.43213-.001A5.99963,5.99963,0,0,1,159.53516,164.68164Z"/>
</svg>
