<svg id="Flat" xmlns="http://www.w3.org/2000/svg" viewBox="0 0 256 256">
  <path d="M216,41.99963H68.5293a14.06743,14.06743,0,0,0-12.00391,6.79785L10.85547,124.91272a5.9972,5.9972,0,0,0,0,6.17383l45.66992,76.11621a14.06774,14.06774,0,0,0,12.00391,6.79687H216a14.01572,14.01572,0,0,0,14-14v-144A14.01573,14.01573,0,0,0,216,41.99963Zm2,158a2.0026,2.0026,0,0,1-2,2H68.5293a2.00679,2.00679,0,0,1-1.71387-.96972l-.001-.001-43.81738-73.0293L66.81543,54.97034a2.00891,2.00891,0,0,1,1.71387-.97071H216a2.0026,2.0026,0,0,1,2,2Zm-53.75781-91.75781-19.75782,19.75781,19.75782,19.75782a5.99936,5.99936,0,1,1-8.48438,8.48437L136,136.484l-19.75781,19.75781a5.99936,5.99936,0,1,1-8.48438-8.48437l19.75781-19.75782-19.75781-19.75781a5.99936,5.99936,0,0,1,8.48438-8.48437L136,119.51526l19.75781-19.75781a5.99936,5.99936,0,0,1,8.48438,8.48437Z"/>
</svg>
