<svg xmlns="http://www.w3.org/2000/svg" viewBox="0 0 256 256"><path d="M128,18a86.1,86.1,0,0,0-86,86c0,23,9.2,48.5,24.7,68.3,12.2,15.5,26.8,26.1,42.4,30.8L98.4,229.8a6.2,6.2,0,0,0,.6,5.6,6.1,6.1,0,0,0,5,2.6h48a6.1,6.1,0,0,0,5-2.6,6.2,6.2,0,0,0,.6-5.6l-10.7-26.7c15.6-4.7,30.2-15.3,42.4-30.8C204.8,152.5,214,127,214,104A86.1,86.1,0,0,0,128,18Zm15.1,208H112.9l8.1-20.4a61.4,61.4,0,0,0,14,0ZM128,194c-33.5,0-74-40.1-74-90a74,74,0,0,1,148,0C202,153.9,161.5,194,128,194Zm48.3-92.1h-1a6.1,6.1,0,0,1-5.9-5A41.8,41.8,0,0,0,135,62.6a6,6,0,0,1,2-11.9A54,54,0,0,1,181.3,95,6,6,0,0,1,176.3,101.9Z"/></svg>