<svg xmlns="http://www.w3.org/2000/svg" viewBox="0 0 256 256"><path d="M181.7,128l29.2-29.1a38,38,0,0,0-53.8-53.8h0L128,74.3,98.9,45.1A38,38,0,0,0,45.1,98.9L74.3,128,45.1,157.1a38,38,0,0,0,53.8,53.8L128,181.7l29.1,29.2a38,38,0,0,0,53.8-53.8ZM165.6,53.6h0a26,26,0,0,1,36.8,36.8l-29.1,29.1L136.5,82.7Zm-.8,74.4L128,164.8,91.2,128,128,91.2ZM53.6,90.4A26,26,0,0,1,90.4,53.6l29.1,29.1L82.7,119.5Zm36.8,112a26,26,0,0,1-36.8-36.8l29.1-29.1,36.8,36.8Zm112,0a26.1,26.1,0,0,1-36.8,0l-29.1-29.1,36.8-36.8,29.1,29.1a26.1,26.1,0,0,1,0,36.8ZM118,128a10,10,0,1,1,10,10A10,10,0,0,1,118,128Z"/></svg>