<svg id="Flat" xmlns="http://www.w3.org/2000/svg" viewBox="0 0 256 256">
  <path d="M181.73926,128l29.12988-29.12988a37.99965,37.99965,0,1,0-53.73926-53.74l.001-.00025L128,74.2605,98.87012,45.13013a37.99965,37.99965,0,1,0-53.73926,53.74L74.26074,128,45.13086,157.12988a37.9994,37.9994,0,1,0,53.73828,53.74024l29.13037-29.13037,29.13037,29.13037a37.99974,37.99974,0,1,0,53.73926-53.74024Zm-16.124-74.38477.001-.00024a25.99973,25.99973,0,0,1,36.76856,36.76978l-29.13038,29.13012-36.769-36.76953Zm-.8457,74.38453-36.77,36.76953L91.23047,128,128,91.23047Zm-111.1543-37.615A26,26,0,1,1,90.38477,53.61523l29.13037,29.13038L82.74561,119.51514Zm36.76856,112a25.99964,25.99964,0,0,1-36.76856-36.76954l29.13038-29.13012,36.769,36.76928Zm112,0a25.99879,25.99879,0,0,1-36.76856,0l-29.13037-29.13038,36.76953-36.76953,29.13038,29.13037a25.99879,25.99879,0,0,1-.001,36.76954ZM118,128a10,10,0,1,1,10,10A10.01161,10.01161,0,0,1,118,128Z"/>
</svg>
