<svg id="Flat" xmlns="http://www.w3.org/2000/svg" viewBox="0 0 256 256">
  <path d="M232,74H214V64a14.01572,14.01572,0,0,0-14-14H176a14.01572,14.01572,0,0,0-14,14v58H94V64A14.01572,14.01572,0,0,0,80,50H56A14.01572,14.01572,0,0,0,42,64V74H24A14.01572,14.01572,0,0,0,10,88v80a14.01572,14.01572,0,0,0,14,14H42v10a14.01572,14.01572,0,0,0,14,14H80a14.01572,14.01572,0,0,0,14-14V134h68v58a14.01572,14.01572,0,0,0,14,14h24a14.01572,14.01572,0,0,0,14-14V182h18a14.01572,14.01572,0,0,0,14-14V88A14.01572,14.01572,0,0,0,232,74ZM24,170a2.0026,2.0026,0,0,1-2-2V88a2.0026,2.0026,0,0,1,2-2H42v84Zm58,22a2.0026,2.0026,0,0,1-2,2H56a2.0026,2.0026,0,0,1-2-2V64a2.0026,2.0026,0,0,1,2-2H80a2.0026,2.0026,0,0,1,2,2Zm120,0a2.0026,2.0026,0,0,1-2,2H176a2.0026,2.0026,0,0,1-2-2V64a2.0026,2.0026,0,0,1,2-2h24a2.0026,2.0026,0,0,1,2,2Zm32-24a2.0026,2.0026,0,0,1-2,2H214V86h18a2.0026,2.0026,0,0,1,2,2Z"/>
</svg>
