<svg xmlns="http://www.w3.org/2000/svg" viewBox="0 0 256 256"><path d="M128,26A102,102,0,1,0,230,128,102.2,102.2,0,0,0,128,26ZM68.5,195.5c1.9-2.2,3.8-4.5,5.5-6.9a6,6,0,1,0-9.6-7.1c-1.4,1.9-2.9,3.7-4.4,5.4A89.8,89.8,0,0,1,60,69.1c1.5,1.7,3,3.5,4.4,5.4a6,6,0,0,0,4.8,2.4A5.9,5.9,0,0,0,74,67.4c-1.7-2.4-3.6-4.7-5.5-6.9a89.9,89.9,0,0,1,119,0c-1.9,2.2-3.8,4.5-5.5,6.9a5.9,5.9,0,0,0,4.8,9.5,6,6,0,0,0,4.8-2.4c1.4-1.9,2.9-3.7,4.4-5.4a89.8,89.8,0,0,1,0,117.8c-1.5-1.7-3-3.5-4.4-5.4a6,6,0,1,0-9.6,7.1c1.7,2.4,3.6,4.7,5.5,6.9a89.9,89.9,0,0,1-119,0ZM178.7,99.4a89,89,0,0,0-3.6,14.6,6,6,0,0,1-5.9,5h-1a6.1,6.1,0,0,1-5-6.9,102.1,102.1,0,0,1,4.1-16.5,5.9,5.9,0,0,1,7.6-3.8A6,6,0,0,1,178.7,99.4Zm0,57.2a6.1,6.1,0,0,1-3.8,7.6l-1.9.3a6,6,0,0,1-5.7-4.1,104.7,104.7,0,0,1-4.1-16.5,6,6,0,0,1,11.9-1.9A89,89,0,0,0,178.7,156.6ZM77.3,99.4a6,6,0,0,1,3.8-7.6,5.9,5.9,0,0,1,7.6,3.8,102.1,102.1,0,0,1,4.1,16.5,6.1,6.1,0,0,1-5,6.9h-1a6,6,0,0,1-5.9-5A89,89,0,0,0,77.3,99.4Zm15.5,44.5a104.7,104.7,0,0,1-4.1,16.5,6,6,0,0,1-5.7,4.1l-1.9-.3a6.1,6.1,0,0,1-3.8-7.6A89,89,0,0,0,80.9,142a6,6,0,0,1,11.9,1.9Z"/></svg>