<svg id="Flat" xmlns="http://www.w3.org/2000/svg" viewBox="0 0 256 256">
  <path d="M128,26A102,102,0,1,0,230,128,102.1153,102.1153,0,0,0,128,26ZM68.48926,195.4541c1.94067-2.20117,3.80029-4.47607,5.53808-6.82422a6,6,0,1,0-9.64648-7.13769c-1.37647,1.86035-2.83594,3.67187-4.35815,5.4292A89.83258,89.83258,0,0,1,60.023,69.07861c1.521,1.75586,2.97925,3.5669,4.35547,5.42627a5.99988,5.99988,0,1,0,9.64648-7.1372c-1.7373-2.34815-3.59619-4.62207-5.53564-6.82178a89.81335,89.81335,0,0,1,119.02148,0c-1.9397,2.19971-3.79834,4.47363-5.53564,6.82178a5.99988,5.99988,0,1,0,9.64648,7.1372c1.376-1.85937,2.83447-3.67041,4.35547-5.42627a89.83221,89.83221,0,0,1,0,117.84278c-1.522-1.75684-2.981-3.56885-4.35791-5.4292a6,6,0,1,0-9.64648,7.13769c1.73779,2.34864,3.59765,4.62354,5.53808,6.82422a89.81335,89.81335,0,0,1-119.02148,0ZM178.666,99.39111a90.81228,90.81228,0,0,0-3.56788,14.57959,6.00019,6.00019,0,1,1-11.85253-1.87793,102.91892,102.91892,0,0,1,4.04052-16.51025A6.00015,6.00015,0,0,1,178.666,99.39111Zm-.001,57.21436a6.00015,6.00015,0,1,1-11.37988,3.80859,102.88948,102.88948,0,0,1-4.04-16.51123,6.00008,6.00008,0,0,1,11.85254-1.87646A90.73933,90.73933,0,0,0,178.665,156.60547ZM77.334,99.39111a6.00015,6.00015,0,0,1,11.37989-3.80859,102.91892,102.91892,0,0,1,4.04052,16.51025,6.00019,6.00019,0,1,1-11.85253,1.87793A90.81228,90.81228,0,0,0,77.334,99.39111Zm15.4209,44.51172a102.88948,102.88948,0,0,1-4.04,16.51123A6.00015,6.00015,0,0,1,77.335,156.60547a90.73933,90.73933,0,0,0,3.56738-14.5791,6.00008,6.00008,0,0,1,11.85254,1.87646Z"/>
</svg>
