<svg xmlns="http://www.w3.org/2000/svg" viewBox="0 0 256 256"><path d="M200.6,199.6a101.9,101.9,0,0,0,0-143.2c-.1-.1-.2-.3-.4-.4l-.4-.3a101.6,101.6,0,0,0-143.6,0l-.4.3-.4.4a101.9,101.9,0,0,0,0,143.2l.4.4.3.3a101.9,101.9,0,0,0,143.8,0l.3-.3C200.4,199.9,200.5,199.7,200.6,199.6ZM38.2,134H81.8A89.3,89.3,0,0,1,60,186.9,89.2,89.2,0,0,1,38.2,134ZM60,69.1A89.3,89.3,0,0,1,81.8,122H38.2A89.2,89.2,0,0,1,60,69.1ZM217.8,122H174.2A89.3,89.3,0,0,1,196,69.1,89.2,89.2,0,0,1,217.8,122Zm-55.6,0H134V38.2a90.5,90.5,0,0,1,53.5,22.3A100.9,100.9,0,0,0,162.2,122ZM122,122H93.8A100.9,100.9,0,0,0,68.5,60.5,90.5,90.5,0,0,1,122,38.2ZM93.8,134H122v83.8a90.5,90.5,0,0,1-53.5-22.3A100.9,100.9,0,0,0,93.8,134Zm40.2,0h28.2a100.9,100.9,0,0,0,25.3,61.5A90.5,90.5,0,0,1,134,217.8Zm40.2,0h43.6A89.2,89.2,0,0,1,196,186.9,89.3,89.3,0,0,1,174.2,134Z"/></svg>