<svg id="Flat" xmlns="http://www.w3.org/2000/svg" viewBox="0 0 256 256">
  <path d="M200.58667,199.584a101.8144,101.8144,0,0,0,.00952-143.1582c-.12158-.146-.22339-.30322-.36084-.43994-.12231-.12207-.26318-.21094-.39306-.31982A101.82366,101.82366,0,0,0,56.157,55.6665c-.12964.10889-.27026.19776-.39233.31934-.13745.13672-.23926.29395-.36084.43994a101.8144,101.8144,0,0,0,.00952,143.1582c.1189.14258.218.2959.35229.42969.11939.11865.25709.20508.38355.312a101.82385,101.82385,0,0,0,143.70166,0c.12646-.10693.26416-.19336.38355-.312C200.36865,199.87988,200.46777,199.72656,200.58667,199.584ZM38.20483,134h43.575a89.19928,89.19928,0,0,1-21.76685,52.91016A89.6222,89.6222,0,0,1,38.20483,134ZM60.01294,69.08984A89.199,89.199,0,0,1,81.77979,122h-43.575A89.6222,89.6222,0,0,1,60.01294,69.08984ZM217.79517,122h-43.575a89.199,89.199,0,0,1,21.76685-52.91016A89.6222,89.6222,0,0,1,217.79517,122Zm-55.61548,0H134V38.20459a89.63252,89.63252,0,0,1,53.501,22.33252A101.14426,101.14426,0,0,0,162.17969,122ZM122,122H93.82031A101.14426,101.14426,0,0,0,68.499,60.53711,89.63252,89.63252,0,0,1,122,38.20459ZM93.82031,134H122v83.79541a89.62883,89.62883,0,0,1-53.50073-22.33252A101.14545,101.14545,0,0,0,93.82031,134ZM134,134h28.17969a101.14545,101.14545,0,0,0,25.321,61.46289A89.62883,89.62883,0,0,1,134,217.79541Zm40.22021,0h43.575a89.6222,89.6222,0,0,1-21.80811,52.91016A89.19928,89.19928,0,0,1,174.22021,134Z"/>
</svg>
