<svg id="Flat" xmlns="http://www.w3.org/2000/svg" viewBox="0 0 256 256">
  <path d="M246,96v64a6,6,0,0,1-12,0V96a6,6,0,0,1,12,0ZM214,72V184a22.02489,22.02489,0,0,1-22,22H40a22.02489,22.02489,0,0,1-22-22V72A22.02489,22.02489,0,0,1,40,50H192A22.02489,22.02489,0,0,1,214,72Zm-12,0a10.01114,10.01114,0,0,0-10-10H40A10.01114,10.01114,0,0,0,30,72V184a10.01114,10.01114,0,0,0,10,10H192a10.01114,10.01114,0,0,0,10-10ZM134.3999,82.00049a6,6,0,0,0-6,6v80a6,6,0,0,0,12,0v-80A6,6,0,0,0,134.3999,82.00049Zm-36.7998,0a6,6,0,0,0-6,6v80a6,6,0,0,0,12,0v-80A6,6,0,0,0,97.6001,82.00049Zm-36.8003,0a6,6,0,0,0-6,6v80a6,6,0,0,0,12,0v-80A6,6,0,0,0,60.7998,82.00049Z"/>
</svg>
