<svg id="Flat" xmlns="http://www.w3.org/2000/svg" viewBox="0 0 256 256">
  <path d="M122,140V100a6,6,0,0,1,12,0v40a6,6,0,0,1-12,0ZM96,22h64a6,6,0,0,0,0-12H96a6,6,0,0,0,0,12ZM206,64V216a22.02489,22.02489,0,0,1-22,22H72a22.02489,22.02489,0,0,1-22-22V64A22.02489,22.02489,0,0,1,72,42H184A22.02489,22.02489,0,0,1,206,64Zm-12,0a10.01114,10.01114,0,0,0-10-10H72A10.01114,10.01114,0,0,0,62,64V216a10.01114,10.01114,0,0,0,10,10H184a10.01114,10.01114,0,0,0,10-10ZM128,166a10,10,0,1,0,10,10A10.01114,10.01114,0,0,0,128,166Z"/>
</svg>
