<svg xmlns="http://www.w3.org/2000/svg" viewBox="0 0 256 256"><path d="M90,8a6,6,0,0,1,6-6h64a6,6,0,0,1,0,12H96A6,6,0,0,1,90,8ZM206,56V208a22.1,22.1,0,0,1-22,22H72a22.1,22.1,0,0,1-22-22V56A22.1,22.1,0,0,1,72,34H184A22.1,22.1,0,0,1,206,56Zm-12,0a10,10,0,0,0-10-10H72A10,10,0,0,0,62,56V208a10,10,0,0,0,10,10H184a10,10,0,0,0,10-10Zm-50,70H120.9l12.7-31.8a6,6,0,0,0-11.2-4.4l-16,40a6.2,6.2,0,0,0,.6,5.6,6.1,6.1,0,0,0,5,2.6h23.1l-12.7,31.8a6.1,6.1,0,0,0,3.4,7.8,5.7,5.7,0,0,0,2.2.4,6,6,0,0,0,5.6-3.8l16-40a6.2,6.2,0,0,0-.6-5.6A6.1,6.1,0,0,0,144,126Z"/></svg>