<svg id="Flat" xmlns="http://www.w3.org/2000/svg" viewBox="0 0 256 256">
  <path d="M122,132V92a6,6,0,0,1,12,0v40a6,6,0,0,1-12,0ZM96,14h64a6,6,0,0,0,0-12H96a6,6,0,0,0,0,12ZM206,56V208a22.02489,22.02489,0,0,1-22,22H72a22.02489,22.02489,0,0,1-22-22V56A22.02489,22.02489,0,0,1,72,34H184A22.02489,22.02489,0,0,1,206,56Zm-12,0a10.01114,10.01114,0,0,0-10-10H72A10.01114,10.01114,0,0,0,62,56V208a10.01114,10.01114,0,0,0,10,10H184a10.01114,10.01114,0,0,0,10-10ZM128,158a10,10,0,1,0,10,10A9.99987,9.99987,0,0,0,128,158Z"/>
</svg>
