<svg id="Flat" xmlns="http://www.w3.org/2000/svg" viewBox="0 0 256 256">
  <path d="M118,128.00012v-40a6,6,0,1,1,12,0v40a6,6,0,0,1-12,0Zm130-38a6.00029,6.00029,0,0,0-6,6v64a6,6,0,1,0,12,0v-64A6.00029,6.00029,0,0,0,248,90.00012Zm-26-18v112a22.02489,22.02489,0,0,1-22,22H48a22.02489,22.02489,0,0,1-22-22v-112a22.02489,22.02489,0,0,1,22-22H200A22.02489,22.02489,0,0,1,222,72.00012Zm-12,0a10.01114,10.01114,0,0,0-10-10H48a10.01114,10.01114,0,0,0-10,10v112a10.01114,10.01114,0,0,0,10,10H200a10.01114,10.01114,0,0,0,10-10Zm-86,82a10,10,0,1,0,10,10A9.99987,9.99987,0,0,0,124,154.00012Z"/>
</svg>
