<svg xmlns="http://www.w3.org/2000/svg" viewBox="0 0 256 256"><path d="M254,96v64a6,6,0,0,1-12,0V96a6,6,0,0,1,12,0ZM222,72V184a22.1,22.1,0,0,1-22,22H48a22.1,22.1,0,0,1-22-22V72A22.1,22.1,0,0,1,48,50H200A22.1,22.1,0,0,1,222,72Zm-12,0a10,10,0,0,0-10-10H48A10,10,0,0,0,38,72V184a10,10,0,0,0,10,10H200a10,10,0,0,0,10-10Zm-70,50H116.9l12.7-31.8a6,6,0,0,0-11.2-4.4l-16,40a6.2,6.2,0,0,0,.6,5.6,6.1,6.1,0,0,0,5,2.6h23.1l-12.7,31.8a6.1,6.1,0,0,0,3.4,7.8,5.7,5.7,0,0,0,2.2.4,6,6,0,0,0,5.6-3.8l16-40a6.2,6.2,0,0,0-.6-5.6A6.1,6.1,0,0,0,140,122Z"/></svg>