<svg id="Flat" xmlns="http://www.w3.org/2000/svg" viewBox="0 0 256 256">
  <path d="M254,96v64a6,6,0,0,1-12,0V96a6,6,0,0,1,12,0ZM222,72V184a22.02489,22.02489,0,0,1-22,22H48a22.02489,22.02489,0,0,1-22-22V72A22.02489,22.02489,0,0,1,48,50H200A22.02489,22.02489,0,0,1,222,72Zm-12,0a10.01114,10.01114,0,0,0-10-10H48A10.01114,10.01114,0,0,0,38,72V184a10.01146,10.01146,0,0,0,10,10H200a10.01146,10.01146,0,0,0,10-10ZM105.6001,82.00049a6,6,0,0,0-6,6v80a6,6,0,0,0,12,0v-80A6,6,0,0,0,105.6001,82.00049Zm-36.8003,0a6,6,0,0,0-6,6v80a6,6,0,1,0,12,0v-80A6,6,0,0,0,68.7998,82.00049Z"/>
</svg>
