<svg xmlns="http://www.w3.org/2000/svg" viewBox="0 0 256 256"><path d="M254,96v64a6,6,0,0,1-12,0V96a6,6,0,0,1,12,0ZM222,72V184a22.1,22.1,0,0,1-22,22H48a22.1,22.1,0,0,1-22-22V72A22.1,22.1,0,0,1,48,50H200A22.1,22.1,0,0,1,222,72Zm-12,0a10,10,0,0,0-10-10H48A10,10,0,0,0,38,72V184a10,10,0,0,0,10,10H200a10,10,0,0,0,10-10ZM142.4,82a6,6,0,0,0-6,6v80a6,6,0,0,0,12,0V88A6,6,0,0,0,142.4,82Zm-36.8,0a6,6,0,0,0-6,6v80a6,6,0,0,0,12,0V88A6,6,0,0,0,105.6,82ZM68.8,82a6,6,0,0,0-6,6v80a6,6,0,0,0,12,0V88A6,6,0,0,0,68.8,82Z"/></svg>