<svg id="Flat" xmlns="http://www.w3.org/2000/svg" viewBox="0 0 256 256">
  <path d="M90,8a6.00029,6.00029,0,0,1,6-6h64a6,6,0,0,1,0,12H96A6.00029,6.00029,0,0,1,90,8ZM206,56V208a22.02489,22.02489,0,0,1-22,22H72a22.02489,22.02489,0,0,1-22-22V56A22.02489,22.02489,0,0,1,72,34H184A22.02489,22.02489,0,0,1,206,56Zm-12,0a10.0113,10.0113,0,0,0-10-10H72A10.0113,10.0113,0,0,0,62,56V208a10.01114,10.01114,0,0,0,10,10H184a10.01114,10.01114,0,0,0,10-10Zm-50,70H120.8623l12.7085-31.77173a5.99992,5.99992,0,1,0-11.1416-4.45654l-16,40A6.00006,6.00006,0,0,0,112,138h23.1377l-12.7085,31.77148a6,6,0,1,0,11.1416,4.457l16-40.00025A6.00006,6.00006,0,0,0,144,126Z"/>
</svg>
