<svg id="Flat" xmlns="http://www.w3.org/2000/svg" viewBox="0 0 256 256">
  <path d="M110,128.00012v-40a6,6,0,1,1,12,0v40a6,6,0,0,1-12,0Zm6,27.0044a9,9,0,1,0,9,9A9,9,0,0,0,116,155.00452Zm124-65a6.00029,6.00029,0,0,0-6,6v64a6,6,0,0,0,12,0v-64A6.00029,6.00029,0,0,0,240,90.00452Zm-26-18v112a22.02489,22.02489,0,0,1-22,22H40a22.02489,22.02489,0,0,1-22-22v-112a22.02489,22.02489,0,0,1,22-22H192A22.02489,22.02489,0,0,1,214,72.00452Zm-12,0a10.01114,10.01114,0,0,0-10-10H40a10.01114,10.01114,0,0,0-10,10v112a10.01114,10.01114,0,0,0,10,10H192a10.01114,10.01114,0,0,0,10-10Z"/>
</svg>
