<svg xmlns="http://www.w3.org/2000/svg" viewBox="0 0 256 256"><path d="M244.2,43.8l-32-32a5.8,5.8,0,0,0-8.4,0,5.8,5.8,0,0,0,0,8.4l3.1,3.2-57.4,43-38.7,7.7a5.4,5.4,0,0,0-3,1.7L23.1,160.4a22,22,0,0,0,0,31.2l41.3,41.3a22,22,0,0,0,31.2,0l84.6-84.7a5.4,5.4,0,0,0,1.7-3l7.7-38.7,43-57.4,3.2,3.1a5.9,5.9,0,1,0,8.4-8.4ZM104,207.5,48.5,152,96,104.5,151.5,160ZM72.9,224.4,31.6,183.1a9.9,9.9,0,0,1,0-14.2l8.4-8.4L95.5,216l-8.4,8.4A10.1,10.1,0,0,1,72.9,224.4Zm106.3-124a6.6,6.6,0,0,0-1.1,2.4L170.5,141,160,151.5,104.5,96,115,85.5l38.2-7.6a6.6,6.6,0,0,0,2.4-1.1l59.8-44.9,8.7,8.7Z"/></svg>