<svg xmlns="http://www.w3.org/2000/svg" viewBox="0 0 256 256"><path d="M205.8,112a77.7,77.7,0,0,0-77.2-78H128a78,78,0,0,0-77.8,78c0,34.8-7.2,54.5-13.3,64.9a14,14,0,0,0,0,14.1A13.7,13.7,0,0,0,49,198H90v2a38,38,0,0,0,76,0v-2h41a13.7,13.7,0,0,0,12.1-7,14,14,0,0,0,0-14.1C213,166.5,205.8,146.8,205.8,112ZM154,200a26,26,0,0,1-52,0v-2h52Zm54.7-15a1.8,1.8,0,0,1-1.7,1H49a1.8,1.8,0,0,1-1.7-1,2,2,0,0,1,0-2c6.8-11.7,14.9-33.5,14.9-71A65.9,65.9,0,0,1,128,46h.5a65.2,65.2,0,0,1,46.3,19.4,66.3,66.3,0,0,1,19,46.6c0,37.5,8.1,59.3,14.9,71A2,2,0,0,1,208.7,185ZM224,71.5a6.5,6.5,0,0,1-2.6.6,5.9,5.9,0,0,1-5.4-3.3,97.9,97.9,0,0,0-35.8-39.7,6,6,0,0,1-1.8-8.3,5.9,5.9,0,0,1,8.2-1.9,109.9,109.9,0,0,1,40.1,44.6A5.9,5.9,0,0,1,224,71.5Zm-189.4.6a6.5,6.5,0,0,1-2.6-.6,5.9,5.9,0,0,1-2.7-8A109.9,109.9,0,0,1,69.4,18.9a5.9,5.9,0,0,1,8.2,1.9,6,6,0,0,1-1.8,8.3A97.9,97.9,0,0,0,40,68.8,5.9,5.9,0,0,1,34.6,72.1Z"/></svg>