<svg id="Flat" xmlns="http://www.w3.org/2000/svg" viewBox="0 0 256 256">
  <path d="M52.43945,35.96387a5.99992,5.99992,0,0,0-8.8789,8.07226l17.84265,19.627a77.68716,77.68716,0,0,0-11.20008,40.3164v8c0,34.78223-7.22558,54.5127-13.28808,64.94043A13.99966,13.99966,0,0,0,48.9834,197.97949H183.509l20.05152,22.05664a5.99992,5.99992,0,0,0,8.8789-8.07226Zm-3.456,150.01562a1.90308,1.90308,0,0,1-1.70313-.98633,1.9712,1.9712,0,0,1,.00977-2.042c6.80273-11.70312,14.91308-33.5166,14.91308-70.97168v-8a65.80618,65.80618,0,0,1,7.68531-30.98291L172.6,185.97949Zm117.0166,38a6.00029,6.00029,0,0,1-6,6H96a6,6,0,0,1,0-12h64A6.0003,6.0003,0,0,1,166,223.97949ZM87.294,44.35938a5.99976,5.99976,0,0,1,2.23144-8.18653,77.49115,77.49115,0,0,1,39.06836-10.1914c42.57422.3164,77.21094,35.71093,77.21094,78.90136v7.09668c0,22.11817,2.89258,40.67383,8.59765,55.15235a5.99963,5.99963,0,1,1-11.16406,4.39843c-6.25976-15.88476-9.43359-35.92089-9.43359-59.55078v-7.09668c0-36.62207-29.29395-66.63379-65.30078-66.90136a65.77452,65.77452,0,0,0-33.02344,8.60937A5.99883,5.99883,0,0,1,87.294,44.35938Z"/>
</svg>
