<svg xmlns="http://www.w3.org/2000/svg" viewBox="0 0 256 256"><path d="M219.1,176.9c-6.1-10.4-13.3-30.1-13.3-64.9v-7.1c0-43.2-34.6-78.6-77.2-78.9H128a78,78,0,0,0-77.8,78v8c0,34.8-7.2,54.5-13.3,64.9a14,14,0,0,0,0,14.1A13.7,13.7,0,0,0,49,198H90v2a38,38,0,0,0,76,0v-2h41a13.7,13.7,0,0,0,12.1-7A14,14,0,0,0,219.1,176.9ZM154,200a26,26,0,0,1-52,0v-2h52Zm54.7-15a1.8,1.8,0,0,1-1.7,1H49a1.8,1.8,0,0,1-1.7-1,2,2,0,0,1,0-2c6.8-11.7,14.9-33.5,14.9-71v-8A65.9,65.9,0,0,1,128,38h.5c36,.3,65.3,30.3,65.3,66.9V112c0,37.5,8.1,59.3,14.9,71A2,2,0,0,1,208.7,185ZM154,144a6,6,0,0,1-6,6H108a5.9,5.9,0,0,1-5.4-3.5,5.8,5.8,0,0,1,.8-6.3L135.2,102H108a6,6,0,0,1,0-12h40a5.9,5.9,0,0,1,5.4,3.5,5.8,5.8,0,0,1-.8,6.3L120.8,138H148A6,6,0,0,1,154,144Z"/></svg>