<svg id="Flat" xmlns="http://www.w3.org/2000/svg" viewBox="0 0 256 256">
  <path d="M166,224a6.00029,6.00029,0,0,1-6,6H96a6,6,0,0,1,0-12h64A6.00029,6.00029,0,0,1,166,224Zm53.12012-33a13.822,13.822,0,0,1-12.10352,7H48.9834A13.99917,13.99917,0,0,1,36.915,176.94141C42.97754,166.5127,50.20313,146.78223,50.20313,112v-8A77.90008,77.90008,0,0,1,127.999,26c.19825,0,.39551.001.59473.002,42.57422.31641,77.21094,35.71192,77.21094,78.90235V112c0,34.7832,7.22168,54.51562,13.28027,64.94434A13.8927,13.8927,0,0,1,219.12012,191ZM208.71,182.97266c-6.7998-11.70411-14.90527-33.51758-14.90527-70.97266v-7.0957c0-36.62305-29.29395-66.63477-65.30078-66.90235-.166-.001-.33594-.002-.502-.002a65.90053,65.90053,0,0,0-65.79882,66v8c0,37.45508-8.11036,59.26855-14.91309,70.97168a1.9712,1.9712,0,0,0-.00977,2.042A1.90308,1.90308,0,0,0,48.9834,186H207.0166a1.90127,1.90127,0,0,0,1.70215-.98633A1.97115,1.97115,0,0,0,208.71,182.97266ZM148,138H120.81055l31.79883-38.15918A5.99984,5.99984,0,0,0,148,90H108a6,6,0,0,0,0,12h27.18945l-31.79882,38.15918A5.99984,5.99984,0,0,0,108,150h40a6,6,0,0,0,0-12Z"/>
</svg>
