<svg id="Flat" xmlns="http://www.w3.org/2000/svg" viewBox="0 0 256 256">
  <path d="M52.43945,35.96387a5.99992,5.99992,0,0,0-8.8789,8.07226L61.4104,63.671A77.69813,77.69813,0,0,0,50.20312,104v8c0,34.78223-7.22558,54.5127-13.28808,64.94043A13.99966,13.99966,0,0,0,48.9834,198H90v2a38,38,0,0,0,76,0v-2h17.52771l20.03284,22.03613a5.99992,5.99992,0,0,0,8.8789-8.07226ZM154,200a26,26,0,0,1-52,0v-2h52ZM48.9834,186a1.90308,1.90308,0,0,1-1.70313-.98633,1.9712,1.9712,0,0,1,.00977-2.042C54.09277,171.26855,62.20312,149.45508,62.20312,112v-8a65.80489,65.80489,0,0,1,7.69239-30.99536L172.61865,186ZM87.30469,44.37109a5.99931,5.99931,0,0,1,2.23437-8.18554A77.53921,77.53921,0,0,1,128.59375,26.002c42.57422.31641,77.21094,35.71192,77.21094,78.90235V112c0,22.10156,2.88769,40.64648,8.584,55.11914a5.99983,5.99983,0,1,1-11.166,4.39453c-6.249-15.87793-9.418-35.90137-9.418-59.51367v-7.0957c0-36.62305-29.29395-66.63477-65.30078-66.90235a65.6815,65.6815,0,0,0-33.01368,8.60352A5.99947,5.99947,0,0,1,87.30469,44.37109Z"/>
</svg>
