<svg id="Flat" xmlns="http://www.w3.org/2000/svg" viewBox="0 0 256 256">
  <path d="M219.085,176.94434C213.02637,166.51562,205.80469,146.7832,205.80469,112v-7.0957c0-43.19043-34.63672-78.58594-77.21094-78.90235-.19922-.001-.39648-.002-.59473-.002a77.90008,77.90008,0,0,0-77.79589,78v8c0,34.78223-7.22559,54.5127-13.28809,64.94141A13.99917,13.99917,0,0,0,48.9834,198H90v2a38,38,0,0,0,76,0v-2h41.0166A13.99756,13.99756,0,0,0,219.085,176.94434ZM154,200a26,26,0,0,1-52,0v-2h52Zm54.71875-14.98633A1.90127,1.90127,0,0,1,207.0166,186H48.9834a1.90308,1.90308,0,0,1-1.70313-.98633,1.9712,1.9712,0,0,1,.00977-2.042C54.09277,171.26855,62.20313,149.45508,62.20313,112v-8A65.90053,65.90053,0,0,1,128.002,38c.166,0,.33594.001.502.002,36.00683.26758,65.30078,30.2793,65.30078,66.90235V112c0,37.45508,8.10547,59.26855,14.90527,70.97266A1.97115,1.97115,0,0,1,208.71875,185.01367ZM154,144a6.00029,6.00029,0,0,1-6,6H108a5.99984,5.99984,0,0,1-4.60937-9.84082L135.18945,102H108a6,6,0,0,1,0-12h40a5.99984,5.99984,0,0,1,4.60938,9.84082L120.81055,138H148A6.00029,6.00029,0,0,1,154,144Z"/>
</svg>
