<svg id="Flat" xmlns="http://www.w3.org/2000/svg" viewBox="0 0 256 256">
  <path d="M165.9248,224.02051a6.0003,6.0003,0,0,1-6,6h-64a6,6,0,0,1,0-12h64A6.00029,6.00029,0,0,1,165.9248,224.02051ZM219.085,176.94434A13.99756,13.99756,0,0,1,207.0166,198H48.9834A13.99917,13.99917,0,0,1,36.915,176.94141C42.97754,166.5127,50.20313,146.78223,50.20313,112A77.90008,77.90008,0,0,1,127.999,34c.19825,0,.39551.001.59473.002A77.70686,77.70686,0,0,1,205.80469,112C205.80469,146.7832,213.02637,166.51562,219.085,176.94434Zm-10.375,6.02832c-6.7998-11.70411-14.90527-33.51758-14.90527-70.97266A65.7071,65.7071,0,0,0,128.50391,46.002c-.166-.001-.33594-.002-.502-.002a65.90053,65.90053,0,0,0-65.79882,66c0,37.45508-8.11036,59.26855-14.91309,70.97168a1.9712,1.9712,0,0,0-.00977,2.042A1.90308,1.90308,0,0,0,48.9834,186H207.0166a1.90127,1.90127,0,0,0,1.70215-.98633A1.97115,1.97115,0,0,0,208.71,182.97266ZM226.7334,63.45215a110.28894,110.28894,0,0,0-40.09863-44.53809,6.00012,6.00012,0,0,0-6.4043,10.14844,98.28855,98.28855,0,0,1,35.7373,39.69238,6.00037,6.00037,0,0,0,10.76563-5.30273ZM40.03223,68.75488A98.28855,98.28855,0,0,1,75.76953,29.0625a6.00012,6.00012,0,1,0-6.4043-10.14844A110.28894,110.28894,0,0,0,29.2666,63.45215a6.00037,6.00037,0,1,0,10.76563,5.30273Z"/>
</svg>
