<svg xmlns="http://www.w3.org/2000/svg" viewBox="0 0 256 256"><path d="M165.9,224a6,6,0,0,1-6,6h-64a6,6,0,1,1,0-12h64A6,6,0,0,1,165.9,224Zm53.2-47.1a14,14,0,0,1,0,14.1,13.7,13.7,0,0,1-12.1,7H49a13.7,13.7,0,0,1-12.1-7,14,14,0,0,1,0-14.1C43,166.5,50.2,146.8,50.2,112A78,78,0,0,1,128,34h.6a77.7,77.7,0,0,1,77.2,78C205.8,146.8,213,166.5,219.1,176.9ZM208.7,183c-6.8-11.7-14.9-33.5-14.9-71a66.3,66.3,0,0,0-19-46.6A65.2,65.2,0,0,0,128.5,46H128a65.9,65.9,0,0,0-65.8,66c0,37.5-8.1,59.3-14.9,71a2,2,0,0,0,0,2,1.8,1.8,0,0,0,1.7,1H207a1.8,1.8,0,0,0,1.7-1A2,2,0,0,0,208.7,183Zm18-119.5a109.9,109.9,0,0,0-40.1-44.6,5.9,5.9,0,0,0-8.2,1.9,6,6,0,0,0,1.8,8.3A97.9,97.9,0,0,1,216,68.8a5.9,5.9,0,0,0,5.4,3.3,6.5,6.5,0,0,0,2.6-.6A5.9,5.9,0,0,0,226.7,63.5ZM40,68.8A97.9,97.9,0,0,1,75.8,29.1a6,6,0,0,0,1.8-8.3,5.9,5.9,0,0,0-8.2-1.9A109.9,109.9,0,0,0,29.3,63.5a5.9,5.9,0,0,0,2.7,8,6.5,6.5,0,0,0,2.6.6A5.9,5.9,0,0,0,40,68.8Z"/></svg>