<svg id="Flat" xmlns="http://www.w3.org/2000/svg" viewBox="0 0 256 256">
  <path d="M165.9248,224.02075a6.00029,6.00029,0,0,1-6,6h-64a6,6,0,0,1,0-12h64A6.00029,6.00029,0,0,1,165.9248,224.02075Zm53.19532-33.02051a13.822,13.822,0,0,1-12.10352,7H48.9834A13.99917,13.99917,0,0,1,36.915,176.94165c6.0625-10.42871,13.28808-30.15918,13.28808-64.94141v-8a77.9001,77.9001,0,0,1,77.7959-78c.19825,0,.39551.001.59473.002,42.57422.3164,77.21094,35.71093,77.21094,78.90136v7.09668c0,34.78321,7.22168,54.51563,13.28027,64.94434A13.89272,13.89272,0,0,1,219.12012,191.00024ZM208.71,182.9729c-6.7998-11.7041-14.90527-33.51758-14.90527-70.97266v-7.09668c0-36.62207-29.29395-66.63379-65.30078-66.90136-.166-.001-.33594-.002-.502-.002a65.90055,65.90055,0,0,0-65.79883,66v8c0,37.45508-8.11035,59.26856-14.91308,70.97168a1.9712,1.9712,0,0,0-.00977,2.042,1.90308,1.90308,0,0,0,1.70313.98633H207.0166a1.90127,1.90127,0,0,0,1.70215-.98633A1.97115,1.97115,0,0,0,208.71,182.9729Z"/>
</svg>
