<svg xmlns="http://www.w3.org/2000/svg" viewBox="0 0 256 256"><path d="M219.1,176.9c-6.1-10.4-13.3-30.1-13.3-64.9v-7.1c0-43.2-34.6-78.6-77.2-78.9H128a77.8,77.8,0,0,0-77.8,78v8c0,34.8-7.2,54.5-13.3,64.9a14,14,0,0,0,0,14.1A13.7,13.7,0,0,0,49,198H90v2a38,38,0,0,0,76,0v-2h41a13.7,13.7,0,0,0,12.1-7A14,14,0,0,0,219.1,176.9ZM154,200a26,26,0,0,1-52,0v-2h52Zm54.7-15a1.8,1.8,0,0,1-1.7,1H49a1.8,1.8,0,0,1-1.7-1,2,2,0,0,1,0-2c6.8-11.8,14.9-33.6,14.9-71v-8A65.9,65.9,0,0,1,128,38h.5c36,.2,65.3,30.3,65.3,66.9V112c0,37.4,8.1,59.2,14.9,71A2,2,0,0,1,208.7,185Z"/></svg>