<svg id="Flat" xmlns="http://www.w3.org/2000/svg" viewBox="0 0 256 256">
  <path d="M165.9248,232.02051a6.0003,6.0003,0,0,1-6,6h-64a6,6,0,0,1,0-12h64A6.00029,6.00029,0,0,1,165.9248,232.02051Zm46.11133-11.58106a5.99973,5.99973,0,0,1-8.47558-.40332l-12.74146-14.01562H48.76074a13.99822,13.99822,0,0,1-12.083-21.06543C42.75488,174.52832,50,154.79785,50,120.02051v-16A77.51868,77.51868,0,0,1,61.31384,63.56494L43.56055,44.03613a5.99992,5.99992,0,0,1,8.8789-8.07226l160,176A5.99924,5.99924,0,0,1,212.03613,220.43945Zm-32.12622-26.41894L69.78809,72.88672A65.63074,65.63074,0,0,0,62,104.02051v16c0,37.457-8.13281,59.27246-14.95508,70.97851a1.95412,1.95412,0,0,0-.01269,2.02539,1.92651,1.92651,0,0,0,1.72851.9961ZM95.45508,46.58789a65.99865,65.99865,0,0,1,32.55762-8.56738c.1621,0,.32617.001.48828.002C164.61719,38.291,194,68.30273,194,104.9248v15.09571c0,17.59082,1.78516,33.32031,5.30664,46.75195a5.99983,5.99983,0,1,0,11.60742-3.043C207.65332,151.291,206,136.585,206,120.02051V104.9248c0-43.18945-34.72559-78.585-77.41016-78.90234A77.90069,77.90069,0,0,0,89.5293,36.1543a5.99947,5.99947,0,1,0,5.92578,10.43359Z"/>
</svg>
