<svg id="Flat" xmlns="http://www.w3.org/2000/svg" viewBox="0 0 256 256">
  <path d="M219.31641,184.95825C213.24121,174.53149,206,154.802,206,120.02075v-15.0957c0-43.19043-34.72559-78.58594-77.40918-78.90235-.2002-.001-.39746-.002-.59668-.002a77.9988,77.9988,0,0,0-77.99414,78v16c0,34.77832-7.24512,54.50781-13.32227,64.93359a13.99955,13.99955,0,0,0,12.083,21.06641H207.23145a13.99914,13.99914,0,0,0,12.085-21.0625ZM208.959,193.02466a1.92342,1.92342,0,0,1-1.72753.99609H48.76074a1.92651,1.92651,0,0,1-1.72851-.99609,1.95572,1.95572,0,0,1,.01269-2.02637C53.86719,179.29321,62,157.47876,62,120.02075v-16a66.00091,66.00091,0,0,1,65.99707-66c.167,0,.33691.001.50488.002C164.61719,38.29028,194,68.302,194,104.92505v15.0957c0,37.46,8.12891,59.27441,14.94727,70.97852A1.95363,1.95363,0,0,1,208.959,193.02466ZM165.9248,232.02075a6.00029,6.00029,0,0,1-6,6h-64a6,6,0,0,1,0-12h64A6.00029,6.00029,0,0,1,165.9248,232.02075Z"/>
</svg>
