<svg id="Flat" xmlns="http://www.w3.org/2000/svg" viewBox="0 0 256 256">
  <path d="M97.99316,16.0127a6.0003,6.0003,0,0,1,6-6h48a6,6,0,0,1,0,12h-48A6.00031,6.00031,0,0,1,97.99316,16.0127Zm114.043,204.42675a5.99973,5.99973,0,0,1-8.47558-.40332L190.812,206.0127H165.52173a37.99813,37.99813,0,0,1-75.04346,0H48.73633a14.14093,14.14093,0,0,1-12.2461-7.11329,13.53153,13.53153,0,0,1,.05567-13.72851C42.68359,174.74707,50,154.98145,50,120.0127A77.62212,77.62212,0,0,1,67.68945,70.57788L43.56055,44.03613a5.99992,5.99992,0,0,1,8.8789-8.07226l160,176A5.99924,5.99924,0,0,1,212.03613,220.43945ZM153.29346,206.0127H102.70654a25.994,25.994,0,0,0,50.58692,0Zm26.60937-12L75.85168,79.5564A65.68637,65.68637,0,0,0,62,120.0127c0,37.67187-8.21875,59.5371-15.11328,71.24609a1.58321,1.58321,0,0,0,.02148,1.68457,2.07447,2.07447,0,0,0,1.82813,1.06934ZM104.7998,58.2041a66.03206,66.03206,0,0,1,30.9004-3.75586c32.75195,3.69434,57.82617,33.418,58.32519,69.1416.22461,16.14551,2.00293,30.67676,5.28516,43.18848A6.00008,6.00008,0,1,0,210.918,163.7334c-3.03613-11.57324-4.68262-25.13574-4.89453-40.31152-.583-41.75-30.23633-76.52833-68.97754-80.89747a77.92045,77.92045,0,0,0-36.46485,4.44532A6.00019,6.00019,0,0,0,104.7998,58.2041Z"/>
</svg>
