<svg xmlns="http://www.w3.org/2000/svg" viewBox="0 0 256 256"><path d="M165.9,224a6,6,0,0,1-6,6h-64a6,6,0,1,1,0-12h64A6,6,0,0,1,165.9,224Zm53.2-33a13.7,13.7,0,0,1-12.1,7H49a13.7,13.7,0,0,1-12.1-7,14,14,0,0,1,0-14.1C43,166.5,50.2,146.8,50.2,112v-8A77.8,77.8,0,0,1,128,26h.6c42.6.3,77.2,35.7,77.2,78.9V112c0,34.8,7.2,54.5,13.3,64.9A14,14,0,0,1,219.1,191Zm-10.4-8c-6.8-11.8-14.9-33.6-14.9-71v-7.1c0-36.6-29.3-66.7-65.3-66.9H128a65.9,65.9,0,0,0-65.8,66v8c0,37.4-8.1,59.2-14.9,71a2,2,0,0,0,0,2,1.8,1.8,0,0,0,1.7,1H207a1.8,1.8,0,0,0,1.7-1A2,2,0,0,0,208.7,183Z"/></svg>