<svg id="Flat" xmlns="http://www.w3.org/2000/svg" viewBox="0 0 256 256">
  <path d="M205.80469,112A77.70686,77.70686,0,0,0,128.59375,34.002c-.19922-.001-.39648-.002-.59473-.002a77.90008,77.90008,0,0,0-77.79589,78c0,34.78223-7.22559,54.5127-13.28809,64.94141A13.99917,13.99917,0,0,0,48.9834,198H90v2a38,38,0,0,0,76,0v-2h41.0166A13.99756,13.99756,0,0,0,219.085,176.94434C213.02637,166.51562,205.80469,146.7832,205.80469,112ZM154,200a26,26,0,0,1-52,0v-2h52Zm54.71875-14.98633A1.90127,1.90127,0,0,1,207.0166,186H48.9834a1.90308,1.90308,0,0,1-1.70313-.98633,1.9712,1.9712,0,0,1,.00977-2.042C54.09277,171.26855,62.20313,149.45508,62.20313,112A65.90053,65.90053,0,0,1,128.002,46c.166,0,.33594.001.502.002A65.7071,65.7071,0,0,1,193.80469,112c0,37.45508,8.10547,59.26855,14.90527,70.97266A1.97115,1.97115,0,0,1,208.71875,185.01367ZM224.002,71.48633a5.99858,5.99858,0,0,1-8.03418-2.73145,98.28855,98.28855,0,0,0-35.7373-39.69238,6.00012,6.00012,0,0,1,6.4043-10.14844A110.28894,110.28894,0,0,1,226.7334,63.45215,6.00112,6.00112,0,0,1,224.002,71.48633Zm-189.35742.61816a6.00149,6.00149,0,0,1-5.37793-8.65234A110.28894,110.28894,0,0,1,69.36523,18.91406a6.00012,6.00012,0,1,1,6.4043,10.14844,98.28855,98.28855,0,0,0-35.7373,39.69238A6.00122,6.00122,0,0,1,34.64453,72.10449Z"/>
</svg>
