<svg xmlns="http://www.w3.org/2000/svg" viewBox="0 0 256 256"><path d="M52.4,36a5.9,5.9,0,0,0-8.8,8L61.4,63.7A77.7,77.7,0,0,0,50.2,104v8c0,34.8-7.2,54.5-13.3,64.9a14,14,0,0,0,0,14.1A13.7,13.7,0,0,0,49,198H183.5l20.1,22a5.9,5.9,0,0,0,4.4,2,5.7,5.7,0,0,0,4-1.6,5.8,5.8,0,0,0,.4-8.4ZM49,186a1.8,1.8,0,0,1-1.7-1,2,2,0,0,1,0-2c6.8-11.8,14.9-33.6,14.9-71v-8a65.3,65.3,0,0,1,7.7-31L172.6,186Zm117,38a6,6,0,0,1-6,6H96a6,6,0,0,1,0-12h64A6,6,0,0,1,166,224ZM87.3,44.4a5.9,5.9,0,0,1,2.2-8.2A77.7,77.7,0,0,1,128.6,26c42.6.3,77.2,35.7,77.2,78.9V112c0,22.1,2.9,40.7,8.6,55.1a6,6,0,0,1-3.4,7.8,5.4,5.4,0,0,1-2.2.4,6,6,0,0,1-5.6-3.8c-6.2-15.9-9.4-35.9-9.4-59.5v-7.1c0-36.6-29.3-66.7-65.3-66.9a65.6,65.6,0,0,0-33,8.6A6.1,6.1,0,0,1,87.3,44.4Z"/></svg>