<svg id="Flat" xmlns="http://www.w3.org/2000/svg" viewBox="0 0 256 256">
  <path d="M203.99975,114a45.74264,45.74264,0,0,0-16.71582,3.15771L174.082,93.15405l-.01673-.03051L161.34741,70h22.65234a6,6,0,0,0,0-12H151.2a5.9994,5.9994,0,0,0-5.25684,8.8916L158.65271,90H100.34717L84.45678,61.1084A5.99846,5.99846,0,0,0,79.2,58H51.99975a6,6,0,0,0,0,12H75.6521L89.74267,95.6189,73.228,119.21143a46.08667,46.08667,0,1,0,9.82618,6.88769l13.13342-18.76221,30.5553,55.55469a5.99964,5.99964,0,1,0,10.51367-5.7832L106.947,102h58.30566l11.52283,20.95068A45.96976,45.96976,0,1,0,203.99975,114Zm-118,46a34.03079,34.03079,0,1,1-19.72949-30.84912l-19.18555,27.4082a5.9998,5.9998,0,1,0,9.83008,6.88184l19.1814-27.4021A33.89061,33.89061,0,0,1,85.99975,160Zm118,34a33.98261,33.98261,0,0,1-21.37524-60.41479l16.11841,29.30639a5.99964,5.99964,0,1,0,10.51367-5.7832l-16.12415-29.3169A33.99667,33.99667,0,1,1,203.99975,194Z"/>
</svg>
