<svg id="Flat" xmlns="http://www.w3.org/2000/svg" viewBox="0 0 256 256">
  <path d="M208,114a45.741,45.741,0,0,0-17.79614,3.58447L162.44629,70H192a10.01146,10.01146,0,0,1,10,10,6,6,0,0,0,12,0,22.02489,22.02489,0,0,0-22-22H152a5.99987,5.99987,0,0,0-5.18262,9.02344L160.22046,90H98.113L81.18262,60.97656A6,6,0,0,0,76,58H48a6,6,0,0,0,0,12H72.55371L87.50757,95.63525l-17.491,23.98731a46.22152,46.22152,0,1,0,9.6814,7.09009l14.41015-19.76221,32.70923,56.073a6.00006,6.00006,0,1,0,10.36524-6.04688L105.113,102h62.10742l12.63232,21.65552A45.96281,45.96281,0,1,0,208,114ZM82,160a34.018,34.018,0,1,1-19.13391-30.571L43.15234,156.46484a5.99976,5.99976,0,1,0,9.69532,7.07032l19.70263-27.02027A33.87209,33.87209,0,0,1,82,160Zm126,34a33.979,33.979,0,0,1-22.03345-59.86377l16.85083,28.88721a6.00006,6.00006,0,1,0,10.36524-6.04688L196.319,128.06738A34.00089,34.00089,0,1,1,208,194Z"/>
</svg>
