<svg xmlns="http://www.w3.org/2000/svg" viewBox="0 0 256 256"><path d="M208,114a46,46,0,0,0-17.8,3.6L162.4,70H192a10,10,0,0,1,10,10,6,6,0,0,0,12,0,22.1,22.1,0,0,0-22-22H152a6,6,0,0,0-5.2,3,5.9,5.9,0,0,0,0,6l13.4,23H98.1L81.2,61A6,6,0,0,0,76,58H48a6,6,0,0,0,0,12H72.6L87.5,95.6,70,119.6A45.2,45.2,0,0,0,48,114a46.1,46.1,0,1,0,31.7,12.7L94.1,107l32.7,56a6,6,0,0,0,5.2,3,6.4,6.4,0,0,0,3-.8,6,6,0,0,0,2.2-8.2l-32.1-55h62.1l12.7,21.7A45.9,45.9,0,1,0,208,114ZM82,160a33.9,33.9,0,1,1-19.1-30.6L43.2,156.5a5.8,5.8,0,0,0,1.3,8.3A5.7,5.7,0,0,0,48,166a5.9,5.9,0,0,0,4.8-2.5l19.8-27A34.1,34.1,0,0,1,82,160Zm126,34a34,34,0,0,1-22-59.9L202.8,163a6,6,0,0,0,5.2,3,6.4,6.4,0,0,0,3-.8,6,6,0,0,0,2.2-8.2l-16.9-28.9A32.8,32.8,0,0,1,208,126a34,34,0,0,1,0,68Z"/></svg>