<svg xmlns="http://www.w3.org/2000/svg" viewBox="0 0 256 256"><path d="M233,147.3,191.4,52.6a5.7,5.7,0,0,0-1.2-1.8,30,30,0,0,0-42.4,0A5.6,5.6,0,0,0,146,55V86H110V55a5.6,5.6,0,0,0-1.8-4.2,30,30,0,0,0-42.4,0,5.7,5.7,0,0,0-1.2,1.8L23,147.3A44.9,44.9,0,0,0,18,168a46,46,0,0,0,92,0V98h36v70a46,46,0,0,0,92,0A44.9,44.9,0,0,0,233,147.3ZM64,202a34,34,0,0,1-32-45.5l1.8-4.2A34,34,0,1,1,64,202Zm0-80a45.4,45.4,0,0,0-18.5,3.9L75.1,58.6A18,18,0,0,1,98,57.7V137A45.9,45.9,0,0,0,64,122Zm94-64.3a18,18,0,0,1,22.9.9l29.6,67.3A45.4,45.4,0,0,0,192,122a45.9,45.9,0,0,0-34,15ZM192,202a34,34,0,1,1,30.2-49.7l1.8,4.2A34,34,0,0,1,192,202Z"/></svg>