<svg xmlns="http://www.w3.org/2000/svg" viewBox="0 0 256 256"><path d="M174,68a10,10,0,1,1-10-10A10,10,0,0,1,174,68Zm-50.2,63.4a5.9,5.9,0,0,0-8.4.8l-40,48A6,6,0,0,0,80,190a5.8,5.8,0,0,0,4.6-2.2l40-48A5.9,5.9,0,0,0,123.8,131.4ZM238,80a6,6,0,0,1-2.7,5L214,99.2V120A102.2,102.2,0,0,1,112,222H8a6,6,0,0,1-4.7-9.7L98,93.9V76A58,58,0,0,1,211.5,59.1L235.3,75A6,6,0,0,1,238,80Zm-16.8,0L203,67.9a6.4,6.4,0,0,1-2.5-3.5A46,46,0,0,0,110,76V96a5.9,5.9,0,0,1-1.3,3.7L20.5,210H112a90.1,90.1,0,0,0,90-90V96a6,6,0,0,1,2.7-5Z"/></svg>