<svg id="Flat" xmlns="http://www.w3.org/2000/svg" viewBox="0 0 256 256">
  <path d="M174,68a10,10,0,1,1-10-10A9.99995,9.99995,0,0,1,174,68Zm-50.15918,63.39062a5.9994,5.9994,0,0,0-8.4502.76856l-40,48a5.99986,5.99986,0,1,0,9.21876,7.68164l40-48A5.9998,5.9998,0,0,0,123.84082,131.39062ZM238,80a6.00018,6.00018,0,0,1-2.67188,4.99219L214,99.21094V120A102.1153,102.1153,0,0,1,112,222H8A5.99991,5.99991,0,0,1,3.31445,212.252L98,93.89551V76A58.00854,58.00854,0,0,1,211.50586,59.12549l23.82226,15.88232A6.00082,6.00082,0,0,1,238,80Zm-16.81641,0L203.00488,67.87988a6.002,6.002,0,0,1-2.47949-3.4834A46.0073,46.0073,0,0,0,110,76V96a6.00188,6.00188,0,0,1-1.31445,3.74805L20.4834,210H112a90.10217,90.10217,0,0,0,90-90V96a6.00082,6.00082,0,0,1,2.67188-4.99219Z"/>
</svg>
