<svg id="Flat" xmlns="http://www.w3.org/2000/svg" viewBox="0 0 256 256">
  <path d="M187.6001,171.20264l-57.60034-43.2002,25.60034-19.20019a5.9999,5.9999,0,0,0-7.2002-9.59961L126,116.00244v-72l22.39893,16.79883a5.9999,5.9999,0,1,0,7.20019-9.59961l-31.999-23.999A5.99987,5.99987,0,0,0,114,32.00244v84L59.6001,75.20264a5.9999,5.9999,0,0,0-7.2002,9.59961l57.60034,43.20019L52.3999,171.20264a5.9999,5.9999,0,1,0,7.2002,9.59961L114,140.00244v84a5.99989,5.99989,0,0,0,9.6001,4.79981l64-48a5.99976,5.99976,0,0,0,0-9.59961ZM126,212.00244v-72l48,36ZM236.24268,99.75732a6.00006,6.00006,0,0,1-8.48536,8.48536L208,88.48535l-19.75732,19.75733a6.00006,6.00006,0,0,1-8.48536-8.48536L199.51465,80,179.75732,60.24268a6.00006,6.00006,0,0,1,8.48536-8.48536L208,71.51465l19.75732-19.75733a6.00006,6.00006,0,0,1,8.48536,8.48536L216.48535,80Z"/>
</svg>
