<svg id="Flat" xmlns="http://www.w3.org/2000/svg" viewBox="0 0 256 256">
  <path d="M212.43945,211.96387l-31.3811-34.51917-.00732-.00818-31.38843-34.5271-.01636-.01806L52.43945,35.96387a5.99992,5.99992,0,0,0-8.8789,8.07226l72.31982,79.55176L52.394,171.20264a5.9999,5.9999,0,1,0,7.2002,9.59961l54.3999-40.79993v84.00012a5.99988,5.99988,0,0,0,9.6001,4.79981l52.28589-39.2146,27.68042,30.44848a5.99992,5.99992,0,0,0,8.8789-8.07226Zm-86.44531.03857v-72l15.11231,11.33435L167.772,180.669Zm-12-140.38037V32.00244a5.99987,5.99987,0,0,1,9.6001-4.7998l64,48a5.99976,5.99976,0,0,1,0,9.59961l-33.52393,25.14306a5.9999,5.9999,0,1,1-7.20019-9.59961l27.124-20.34326-48-36V71.62207a6,6,0,0,1-12,0Z"/>
</svg>
