<svg xmlns="http://www.w3.org/2000/svg" viewBox="0 0 256 256"><path d="M212.5,212l-31.4-34.6h0l-31.4-34.5h0L52.5,36a5.9,5.9,0,0,0-8.5-.4,5.8,5.8,0,0,0-.4,8.4l72.3,79.6L52.4,171.2a6,6,0,0,0-1.2,8.4,6,6,0,0,0,8.4,1.2L114,140v84a6,6,0,0,0,3.3,5.4,6.6,6.6,0,0,0,2.7.6,5.8,5.8,0,0,0,3.6-1.2l52.3-39.2L203.6,220a6,6,0,0,0,4.4,2,5.9,5.9,0,0,0,4.1-1.6A6,6,0,0,0,212.5,212ZM126,212V140l15.1,11.3,26.7,29.4ZM114,71.6V32a6.2,6.2,0,0,1,3.3-5.4,6,6,0,0,1,6.3.6l64,48a6,6,0,0,1,0,9.6l-33.5,25.1a5.6,5.6,0,0,1-3.6,1.2,6,6,0,0,1-3.6-10.8L174,80,126,44V71.6a6,6,0,0,1-12,0Z"/></svg>