<svg id="Flat" xmlns="http://www.w3.org/2000/svg" viewBox="0 0 256 256">
  <path d="M187.6001,171.20056,130,128.00037l57.6001-43.2002a5.99976,5.99976,0,0,0,0-9.59961l-64-48A6.00006,6.00006,0,0,0,114,32.00037v84.00018l-54.3999-40.8a5.9999,5.9999,0,0,0-7.2002,9.59961l57.60059,43.2002L52.3999,171.20056a5.9999,5.9999,0,1,0,7.2002,9.59961l54.3999-40.8v84.00025a5.99987,5.99987,0,0,0,9.6001,4.7998l64-48a5.99976,5.99976,0,0,0,0-9.59961ZM126,44.00037l48,36-48,36Zm0,168v-72l48,36Zm80-84a10,10,0,1,1-10-10A10.01177,10.01177,0,0,1,206,128.00037Zm-154,10a10,10,0,1,1,10-10A10.01146,10.01146,0,0,1,52,138.00037Z"/>
</svg>
