<svg xmlns="http://www.w3.org/2000/svg" viewBox="0 0 256 256"><path d="M187.6,171.2,130,128l25.6-19.2a5.9,5.9,0,0,0,1.2-8.4,6,6,0,0,0-8.4-1.2L126,116V44l22.4,16.8a6,6,0,1,0,7.2-9.6l-32-24a6,6,0,0,0-6.3-.6A6.2,6.2,0,0,0,114,32v84L59.6,75.2a6,6,0,0,0-7.2,9.6L110,128,52.4,171.2a6,6,0,0,0-1.2,8.4,6,6,0,0,0,8.4,1.2L114,140v84a6,6,0,0,0,3.3,5.4,6.6,6.6,0,0,0,2.7.6,5.8,5.8,0,0,0,3.6-1.2l64-48a6,6,0,0,0,0-9.6ZM126,212V140l48,36ZM236.3,99.8a6,6,0,0,1,0,8.4A6.1,6.1,0,0,1,232,110a5.8,5.8,0,0,1-4.2-1.8L208,88.5l-19.7,19.7A6.1,6.1,0,0,1,184,110a6,6,0,0,1-4.2-10.2L199.5,80,179.8,60.2a5.8,5.8,0,0,1,0-8.4,5.9,5.9,0,0,1,8.5,0L208,71.5l19.8-19.7a6,6,0,0,1,8.5,8.4L216.5,80Z"/></svg>