<svg id="Flat" xmlns="http://www.w3.org/2000/svg" viewBox="0 0 256 256">
  <path d="M220.42773,112.48438,206,107.67529V56a14.01572,14.01572,0,0,0-14-14H134V24a6,6,0,0,0-12,0V42H64A14.01572,14.01572,0,0,0,50,56v51.67529l-14.42773,4.80909A13.983,13.983,0,0,0,26,125.76611V160a6.03112,6.03112,0,0,0,.23047,1.64844c15.41211,53.94043,84.83887,72.60254,98.59961,75.7959a13.90255,13.90255,0,0,0,6.33984,0c13.76074-3.19336,83.1875-21.85547,98.59961-75.7959A6.03112,6.03112,0,0,0,230,160V125.76611A13.983,13.983,0,0,0,220.42773,112.48438ZM62,56a2.0026,2.0026,0,0,1,2-2H192a2.0026,2.0026,0,0,1,2,2v47.67529L132.42676,83.15137a13.95509,13.95509,0,0,0-4.01123-.69727c-.13794-.00976-.27527-.02148-.41553-.02148-.14087,0-.27881.01172-.41724.02148a13.98952,13.98952,0,0,0-4.01049.69727L62,103.67529ZM218,159.14062c-5.86914,19.59327-20.99414,36.24122-44.96973,49.48926a183.98169,183.98169,0,0,1-44.57324,17.125,2.00662,2.00662,0,0,1-.91406,0,183.98169,183.98169,0,0,1-44.57324-17.125C58.99414,195.38184,43.86914,178.73389,38,159.14062V125.76611a1.99774,1.99774,0,0,1,1.36719-1.89746l18.40967-6.13672.02417-.00781L122,96.32422V168a6,6,0,0,0,12,0V96.32422l64.1936,21.398.03174.01025,18.40747,6.13574A1.99881,1.99881,0,0,1,218,125.76611Z"/>
</svg>
