<svg xmlns="http://www.w3.org/2000/svg" viewBox="0 0 256 256"><path d="M220.4,112.5,206,107.7V56a14,14,0,0,0-14-14H134V24a6,6,0,0,0-12,0V42H64A14,14,0,0,0,50,56v51.7l-14.4,4.8A13.9,13.9,0,0,0,26,125.8V160a7.8,7.8,0,0,0,.2,1.6c15.4,54,84.9,72.7,98.6,75.8a13,13,0,0,0,6.4,0c13.7-3.1,83.2-21.8,98.6-75.8a7.8,7.8,0,0,0,.2-1.6V125.8A13.9,13.9,0,0,0,220.4,112.5ZM62,56a2,2,0,0,1,2-2H192a2,2,0,0,1,2,2v47.7L132.4,83.2a10.9,10.9,0,0,0-4-.7h-.8a10.9,10.9,0,0,0-4,.7L62,103.7ZM218,159.1c-5.9,19.6-21,36.3-45,49.5a183.5,183.5,0,0,1-44.5,17.2h-1A183.5,183.5,0,0,1,83,208.6c-24-13.2-39.1-29.9-45-49.5V125.8a1.8,1.8,0,0,1,1.4-1.9l18.4-6.2h0L122,96.3V168a6,6,0,0,0,12,0V96.3l64.2,21.4h0l18.4,6.2a1.8,1.8,0,0,1,1.4,1.9Z"/></svg>