<svg id="Flat" xmlns="http://www.w3.org/2000/svg" viewBox="0 0 256 256">
  <path d="M224,50H160a37.994,37.994,0,0,0-32,17.5459A37.994,37.994,0,0,0,96,50H32A14.01572,14.01572,0,0,0,18,64V192a14.01572,14.01572,0,0,0,14,14H96a26.02916,26.02916,0,0,1,26,26,6,6,0,0,0,12,0,26.02916,26.02916,0,0,1,26-26h64a14.01572,14.01572,0,0,0,14-14V64A14.01572,14.01572,0,0,0,224,50ZM96,194H32a2.0026,2.0026,0,0,1-2-2V64a2.0026,2.0026,0,0,1,2-2H96a26.02916,26.02916,0,0,1,26,26V204.31152A37.86063,37.86063,0,0,0,96,194Zm130-2a2.0026,2.0026,0,0,1-2,2H160a37.85207,37.85207,0,0,0-26,10.325V88a26.02916,26.02916,0,0,1,26-26h64a2.0026,2.0026,0,0,1,2,2Z"/>
</svg>
