<svg id="Flat" xmlns="http://www.w3.org/2000/svg" viewBox="0 0 256 256">
  <path d="M192,26H96A14.01572,14.01572,0,0,0,82,40V58H64A14.01572,14.01572,0,0,0,50,72V224a5.99995,5.99995,0,0,0,9.48779,4.88184l52.50537-37.50879,52.51954,37.50976A6.00023,6.00023,0,0,0,174,224V180.804l22.5127,16.07885A6.00023,6.00023,0,0,0,206,192V40A14.01572,14.01572,0,0,0,192,26ZM162,212.3418l-46.52051-33.22461a5.99928,5.99928,0,0,0-6.97461.001L62,212.33984V72a2.0026,2.0026,0,0,1,2-2h96a2.0026,2.0026,0,0,1,2,2Zm32-32-20-14.28418V72a14.01572,14.01572,0,0,0-14-14H94V40a2.0026,2.0026,0,0,1,2-2h96a2.0026,2.0026,0,0,1,2,2Z"/>
</svg>
