<svg id="Flat" xmlns="http://www.w3.org/2000/svg" viewBox="0 0 256 256">
  <path d="M208.00244,26h-136a30.03406,30.03406,0,0,0-30,30V224a6.00029,6.00029,0,0,0,6,6h144a6,6,0,0,0,0-12h-138v-2a18.02094,18.02094,0,0,1,18-18h136a6.00029,6.00029,0,0,0,6-6V32A6.00029,6.00029,0,0,0,208.00244,26Zm-90,12h52V116.002l-22.4082-16.80273a6.00147,6.00147,0,0,0-7.2002.001l-22.3916,16.79785Zm84,148h-130a29.8497,29.8497,0,0,0-18,6.01465V56a18.02094,18.02094,0,0,1,18-18h34v90a6,6,0,0,0,9.60059,4.7998L143.99561,111.5l28.40722,21.30078A6.00049,6.00049,0,0,0,182.00244,128V38h20Z"/>
</svg>
