<svg id="Flat" xmlns="http://www.w3.org/2000/svg" viewBox="0 0 256 256">
  <path d="M160,58H64A14.01572,14.01572,0,0,0,50,72V224a5.99995,5.99995,0,0,0,9.48779,4.88184l52.50537-37.50879,52.51954,37.50976A6.00023,6.00023,0,0,0,174,224V72A14.01572,14.01572,0,0,0,160,58Zm2,154.3418-46.52051-33.22461a5.99928,5.99928,0,0,0-6.97461.001L62,212.33984V72a2.0026,2.0026,0,0,1,2-2h96a2.0026,2.0026,0,0,1,2,2ZM206,40V192a6,6,0,0,1-12,0V40a2.0026,2.0026,0,0,0-2-2H88a6,6,0,0,1,0-12H192A14.01572,14.01572,0,0,1,206,40Z"/>
</svg>
