<svg id="Flat" xmlns="http://www.w3.org/2000/svg" viewBox="0 0 256 256">
  <path d="M206,176.0415V40a14.01572,14.01572,0,0,0-14-14H64A14.01572,14.01572,0,0,0,50,40V224a6.00069,6.00069,0,0,0,8.91406,5.24512l69.0791-38.38184,69.09327,38.38184A6.0002,6.0002,0,0,0,206,224V176.0415ZM64,38H192a2.00229,2.00229,0,0,1,2,2V165.80341l-63.09375-35.04853a6.00445,6.00445,0,0,0-5.82764,0L62,165.80212V40A2.00229,2.00229,0,0,1,64,38Zm66.90625,140.75488a6.00108,6.00108,0,0,0-5.82764,0L62,213.80273V179.53052l65.99316-36.66724L194,179.53058v34.27313Z"/>
</svg>
