<svg id="Flat" xmlns="http://www.w3.org/2000/svg" viewBox="0 0 256 256">
  <path d="M231.68359,196.09277l-8.28222-30.90918v-.001l-.00049-.001L190.27246,41.544A14.01683,14.01683,0,0,0,173.126,31.64453l-30.90967,8.28223a14.12405,14.12405,0,0,0-2.25879.82922A13.99111,13.99111,0,0,0,128,34H96a13.91038,13.91038,0,0,0-8,2.52734A13.91038,13.91038,0,0,0,80,34H48A14.01572,14.01572,0,0,0,34,48V208a14.01572,14.01572,0,0,0,14,14H80a13.91038,13.91038,0,0,0,8-2.52734A13.91038,13.91038,0,0,0,96,222h32a14.01572,14.01572,0,0,0,14-14V93.21167l31.72754,118.40942a13.9932,13.9932,0,0,0,17.14648,9.90039l30.91016-8.28222A14.01651,14.01651,0,0,0,231.68359,196.09277Zm-77.94043-105.42,34.77344-9.31726,21.74024,81.137-34.773,9.31787ZM144.10742,52.4502a1.9904,1.9904,0,0,1,1.21485-.93165l30.90918-8.28222a1.974,1.974,0,0,1,.51757-.06836,2.00323,2.00323,0,0,1,1.93213,1.48144l6.72949,25.11426-34.77392,9.31738-6.729-25.11328A1.993,1.993,0,0,1,144.10742,52.4502ZM96,46h32a2.0026,2.0026,0,0,1,2,2V170H94V48A2.0026,2.0026,0,0,1,96,46ZM48,46H80a2.0026,2.0026,0,0,1,2,2V74H46V48A2.0026,2.0026,0,0,1,48,46ZM80,210H48a2.0026,2.0026,0,0,1-2-2V86H82V208A2.0026,2.0026,0,0,1,80,210Zm48,0H96a2.0026,2.0026,0,0,1-2-2V182h36v26A2.0026,2.0026,0,0,1,128,210Zm90.67773-8.35254-30.90918,8.28223a2.00038,2.00038,0,0,1-2.4497-1.41407l-6.729-25.11352,34.77295-9.31787,6.729,25.114A2.001,2.001,0,0,1,218.67773,201.64746Z"/>
</svg>
