<svg xmlns="http://www.w3.org/2000/svg" viewBox="0 0 256 256"><path d="M192,26H96A14,14,0,0,0,82,40V58H64A14,14,0,0,0,50,72V224a6,6,0,0,0,3.3,5.3,5.8,5.8,0,0,0,6.2-.4L112,191.4l52.5,37.5A6.3,6.3,0,0,0,168,230a5.2,5.2,0,0,0,2.7-.7A6,6,0,0,0,174,224V180.8l22.5,16.1A6.3,6.3,0,0,0,200,198a5.2,5.2,0,0,0,2.7-.7A6,6,0,0,0,206,192V40A14,14,0,0,0,192,26ZM162,212.3l-46.5-33.2A6.6,6.6,0,0,0,112,178a6.3,6.3,0,0,0-3.5,1.1L62,212.3V72a2,2,0,0,1,2-2h96a2,2,0,0,1,2,2Zm32-32-20-14.2V72a14,14,0,0,0-14-14H94V40a2,2,0,0,1,2-2h96a2,2,0,0,1,2,2Z"/></svg>