<svg id="Flat" xmlns="http://www.w3.org/2000/svg" viewBox="0 0 256 256">
  <path d="M56.51855,64C44.23047,81.46094,38,102.99414,38,128s6.23047,46.53906,18.51855,64c9.17237,13.03223,18.49463,18.80957,18.5879,18.86719a5.99963,5.99963,0,0,1-6.19336,10.27734C67.16064,220.09375,26,194.63086,26,128S67.16064,35.90625,68.91309,34.85547a5.99962,5.99962,0,0,1,6.19336,10.27734C75.01318,45.19043,65.69092,50.96777,56.51855,64ZM187.08691,34.85547a5.99966,5.99966,0,0,0-6.19336,10.27734c.09278.05762,9.416,5.835,18.5879,18.86719C211.76953,81.46094,218,102.99414,218,128s-6.23047,46.53906-18.51855,64c-9.17188,13.03223-18.49512,18.80957-18.56836,18.85547a5.9996,5.9996,0,1,0,6.17382,10.28906C188.83887,220.09375,230,194.63086,230,128S188.83887,35.90625,187.08691,34.85547Z"/>
</svg>
