<svg xmlns="http://www.w3.org/2000/svg" viewBox="0 0 256 256"><path d="M39.9,128a27.8,27.8,0,0,1,9.5,11.1C54,148.6,54,160.5,54,172c0,24.3,1.2,38,26,38a6,6,0,0,1,0,12c-16.9,0-27.8-5.6-33.4-17.1C42,195.4,42,183.5,42,172c0-24.3-1.2-38-26-38a6,6,0,0,1,0-12c24.8,0,26-13.7,26-38,0-11.5,0-23.4,4.6-32.9C52.2,39.6,63.1,34,80,34a6,6,0,0,1,0,12C55.2,46,54,59.7,54,84c0,11.5,0,23.4-4.6,32.9A27.8,27.8,0,0,1,39.9,128ZM240,122c-24.8,0-26-13.7-26-38,0-11.5,0-23.4-4.6-32.9C203.8,39.6,192.9,34,176,34a6,6,0,0,0,0,12c24.8,0,26,13.7,26,38,0,11.5,0,23.4,4.6,32.9a27.8,27.8,0,0,0,9.5,11.1,27.8,27.8,0,0,0-9.5,11.1c-4.6,9.5-4.6,21.4-4.6,32.9,0,24.3-1.2,38-26,38a6,6,0,0,0,0,12c16.9,0,27.8-5.6,33.4-17.1,4.6-9.5,4.6-21.4,4.6-32.9,0-24.3,1.2-38,26-38a6,6,0,0,0,0-12Z"/></svg>