<svg xmlns="http://www.w3.org/2000/svg" viewBox="0 0 256 256"><path d="M246,132a54.1,54.1,0,0,0-32-49.3V72a46,46,0,0,0-86-22.7A46,46,0,0,0,42,72V82.7a54,54,0,0,0,0,98.6V184a46,46,0,0,0,86,22.7A46,46,0,0,0,214,184v-2.7A54.1,54.1,0,0,0,246,132ZM88,218a34.1,34.1,0,0,1-34-32.9,55.5,55.5,0,0,0,10,.9h8a6,6,0,0,0,0-12H64A42,42,0,0,1,50,92.4a6,6,0,0,0,4-5.7V72a34,34,0,0,1,68,0v81a45.9,45.9,0,0,0-34-15,6,6,0,0,0,0,12,34,34,0,0,1,0,68Zm104-44h-8a6,6,0,0,0,0,12h8a55.5,55.5,0,0,0,10-.9A34,34,0,1,1,168,150a6,6,0,0,0,0-12,45.9,45.9,0,0,0-34,15V72a34,34,0,0,1,68,0V86.7a6,6,0,0,0,4,5.7A42,42,0,0,1,192,174ZM60,126a6,6,0,0,1,0-12A22.1,22.1,0,0,0,82,92V84a6,6,0,0,1,12,0v8A34.1,34.1,0,0,1,60,126Zm142-6a6,6,0,0,1-6,6,34.1,34.1,0,0,1-34-34V84a6,6,0,0,1,12,0v8a22.1,22.1,0,0,0,22,22A6,6,0,0,1,202,120Z"/></svg>