<svg id="Flat" xmlns="http://www.w3.org/2000/svg" viewBox="0 0 256 256">
  <path d="M246,132a54.1122,54.1122,0,0,0-31.99951-49.3291L214,72a45.9845,45.9845,0,0,0-86-22.67236A45.9845,45.9845,0,0,0,42,71.99951L41.99951,82.6709A53.9964,53.9964,0,0,0,42,181.29663V184a45.9845,45.9845,0,0,0,86,22.67236A45.9845,45.9845,0,0,0,214,184v-2.70349A54.06482,54.06482,0,0,0,246,132ZM88,218a34.034,34.034,0,0,1-33.97314-32.9386A54.03807,54.03807,0,0,0,64,186h8a6,6,0,0,0,0-12H64A42.008,42.008,0,0,1,49.999,92.38867a5.9999,5.9999,0,0,0,4-5.65674L54,72a34,34,0,0,1,68,0v81.04932A45.89107,45.89107,0,0,0,88,138a6,6,0,0,0,0,12,34,34,0,0,1,0,68Zm104-44h-8a6,6,0,0,0,0,12h8a54.03807,54.03807,0,0,0,9.97314-.9386A33.99494,33.99494,0,1,1,168,150a6,6,0,0,0,0-12,45.89107,45.89107,0,0,0-34,15.04932V72a34,34,0,1,1,68,.00049l.001,14.73144a5.9999,5.9999,0,0,0,4,5.65674A42.008,42.008,0,0,1,192,174ZM60,126a6,6,0,0,1,0-12A22.02489,22.02489,0,0,0,82,92V84a6,6,0,0,1,12,0v8A34.03864,34.03864,0,0,1,60,126Zm142-6a6.00029,6.00029,0,0,1-6,6,34.03864,34.03864,0,0,1-34-34V84a6,6,0,0,1,12,0v8a22.02489,22.02489,0,0,0,22,22A6.00029,6.00029,0,0,1,202,120Z"/>
</svg>
