<svg id="Flat" xmlns="http://www.w3.org/2000/svg" viewBox="0 0 256 256">
  <path d="M222,88a93.64386,93.64386,0,0,0-15.207-51.27979,6.00045,6.00045,0,0,0-5.02637-2.72314H54.2334a6.00041,6.00041,0,0,0-5.02588,2.72266A94.011,94.011,0,0,0,122,181.80322V218H88a6,6,0,0,0,0,12h80a6,6,0,0,0,0-12H134V181.80322A94.117,94.117,0,0,0,222,88ZM57.55908,45.99707H198.44141A81.5713,81.5713,0,0,1,209.77686,82H46.22314A81.56366,81.56366,0,0,1,57.55908,45.99707ZM46.24316,94H209.75684A81.97487,81.97487,0,0,1,46.24316,94Z"/>
</svg>
