<svg id="Flat" xmlns="http://www.w3.org/2000/svg" viewBox="0 0 256 256">
  <path d="M216.00781,66H174V56a22.02489,22.02489,0,0,0-22-22H104A22.02489,22.02489,0,0,0,82,56V66H40.00781a14.01573,14.01573,0,0,0-14,14V208a14.01573,14.01573,0,0,0,14,14h176a14.01572,14.01572,0,0,0,14-14V80A14.01572,14.01572,0,0,0,216.00781,66ZM94,56a10.01146,10.01146,0,0,1,10-10h48a10.01146,10.01146,0,0,1,10,10V66H94ZM218.00781,208a2.0026,2.0026,0,0,1-2,2h-176a2.0026,2.0026,0,0,1-2-2V80a2.0026,2.0026,0,0,1,2-2h176a2.0026,2.0026,0,0,1,2,2Z"/>
</svg>
