<svg xmlns="http://www.w3.org/2000/svg" viewBox="0 0 256 256"><path d="M216,66H174V56a22.1,22.1,0,0,0-22-22H104A22.1,22.1,0,0,0,82,56V66H40A14,14,0,0,0,26,80V208a14,14,0,0,0,14,14H216a14,14,0,0,0,14-14V80A14,14,0,0,0,216,66ZM94,56a10,10,0,0,1,10-10h48a10,10,0,0,1,10,10V66H94ZM40,78H216a2,2,0,0,1,2,2v42.8A185.6,185.6,0,0,1,128,146a185.9,185.9,0,0,1-90-23.2V80A2,2,0,0,1,40,78ZM216,210H40a2,2,0,0,1-2-2V136.4A198.7,198.7,0,0,0,128,158a198.7,198.7,0,0,0,90-21.6V208A2,2,0,0,1,216,210ZM110,120a6,6,0,0,1,6-6h24a6,6,0,0,1,0,12H116A6,6,0,0,1,110,120Z"/></svg>