<svg id="Flat" xmlns="http://www.w3.org/2000/svg" viewBox="0 0 256 256">
  <path d="M216.00781,66H174V48a14.01572,14.01572,0,0,0-14-14H96A14.01572,14.01572,0,0,0,82,48V66H40.00781a14.01573,14.01573,0,0,0-14,14V208a14.01573,14.01573,0,0,0,14,14h176a14.01572,14.01572,0,0,0,14-14V80A14.01572,14.01572,0,0,0,216.00781,66ZM94,48a2.0026,2.0026,0,0,1,2-2h64a2.0026,2.0026,0,0,1,2,2V66H94Zm68,30V210H94V78ZM38.00781,208V80a2.0026,2.0026,0,0,1,2-2H82V210H40.00781A2.0026,2.0026,0,0,1,38.00781,208Zm180,0a2.0026,2.0026,0,0,1-2,2H174V78h42.00781a2.0026,2.0026,0,0,1,2,2Z"/>
</svg>
