<svg id="Flat" xmlns="http://www.w3.org/2000/svg" viewBox="0 0 256 256">
  <path d="M216.00781,66H174V56a22.02489,22.02489,0,0,0-22-22H104A22.02489,22.02489,0,0,0,82,56V66H40.00781a14.01573,14.01573,0,0,0-14,14V208a14.01573,14.01573,0,0,0,14,14h176a14.01572,14.01572,0,0,0,14-14V80A14.01572,14.01572,0,0,0,216.00781,66ZM94,56a10.01177,10.01177,0,0,1,10-10h48a10.01177,10.01177,0,0,1,10,10V66H94ZM40.00781,78h176a2.0026,2.0026,0,0,1,2,2v42.78271A185.97491,185.97491,0,0,1,128,146a185.97519,185.97519,0,0,1-89.99219-23.2085V80A2.0026,2.0026,0,0,1,40.00781,78Zm176,132h-176a2.0026,2.0026,0,0,1-2-2V136.37988A198.11391,198.11391,0,0,0,128,158a198.11516,198.11516,0,0,0,90.00781-21.62793V208A2.0026,2.0026,0,0,1,216.00781,210ZM110,120a6.00029,6.00029,0,0,1,6-6h24a6,6,0,0,1,0,12H116A6.00029,6.00029,0,0,1,110,120Z"/>
</svg>
