<svg id="Flat" xmlns="http://www.w3.org/2000/svg" viewBox="0 0 256 256">
  <path d="M128,90a38,38,0,1,0,38,38A38.04323,38.04323,0,0,0,128,90Zm0,64a26,26,0,1,1,26-26A26.02916,26.02916,0,0,1,128,154ZM67.18457,102.31152A65.93909,65.93909,0,0,0,81.33105,174.669a6,6,0,0,1-8.48535,8.48535,77.93721,77.93721,0,0,1,0-110.3086,6,6,0,0,1,8.48535,8.48535A65.77547,65.77547,0,0,0,67.18457,102.31152ZM206,128a77.77006,77.77006,0,0,1-22.8457,55.1543A6,6,0,0,1,174.669,174.669a65.93909,65.93909,0,0,0,0-93.3379,6,6,0,0,1,8.48535-8.48535A77.77006,77.77006,0,0,1,206,128ZM53.0459,202.95312a5.99971,5.99971,0,1,1-8.48438,8.48536,117.903,117.903,0,0,1,0-166.877,5.99971,5.99971,0,1,1,8.48438,8.48536,105.90839,105.90839,0,0,0,0,149.90624ZM246,128a117.64558,117.64558,0,0,1-34.56152,83.43848,5.99971,5.99971,0,1,1-8.48438-8.48536,105.90839,105.90839,0,0,0,0-149.90624,5.99971,5.99971,0,0,1,8.48438-8.48536A117.64788,117.64788,0,0,1,246,128Z"/>
</svg>
