<svg xmlns="http://www.w3.org/2000/svg" viewBox="0 0 256 256"><path d="M128,90a38,38,0,1,0,38,38A38,38,0,0,0,128,90Zm0,64a26,26,0,1,1,26-26A26.1,26.1,0,0,1,128,154ZM67.2,102.3a66.1,66.1,0,0,0,0,51.4,67.5,67.5,0,0,0,14.1,21,5.9,5.9,0,0,1,0,8.5,6.1,6.1,0,0,1-4.2,1.7,6.5,6.5,0,0,1-4.3-1.7,80.3,80.3,0,0,1-16.7-24.8,78.8,78.8,0,0,1,0-60.8A80.3,80.3,0,0,1,72.8,72.8a6.1,6.1,0,0,1,8.5,0,5.9,5.9,0,0,1,0,8.5A67.5,67.5,0,0,0,67.2,102.3ZM206,128a79.3,79.3,0,0,1-6.1,30.4,80.3,80.3,0,0,1-16.7,24.8,6.5,6.5,0,0,1-4.3,1.7,6.1,6.1,0,0,1-4.2-1.7,5.9,5.9,0,0,1,0-8.5,67.5,67.5,0,0,0,14.1-21,66.1,66.1,0,0,0,0-51.4,67.5,67.5,0,0,0-14.1-21,5.9,5.9,0,0,1,0-8.5,6.1,6.1,0,0,1,8.5,0,80.3,80.3,0,0,1,16.7,24.8A79.3,79.3,0,0,1,206,128ZM53,203a5.9,5.9,0,1,1-8.4,8.4,115,115,0,0,1-25.3-37.5,117.9,117.9,0,0,1,0-91.8A115,115,0,0,1,44.6,44.6,5.9,5.9,0,0,1,53,53,108.2,108.2,0,0,0,30.3,86.7a106.9,106.9,0,0,0,0,82.6A108.2,108.2,0,0,0,53,203Zm193-75a116.2,116.2,0,0,1-9.3,45.9,115,115,0,0,1-25.3,37.5A5.9,5.9,0,0,1,203,203a108.2,108.2,0,0,0,22.7-33.7,106.9,106.9,0,0,0,0-82.6A108.2,108.2,0,0,0,203,53a5.9,5.9,0,1,1,8.4-8.4,115,115,0,0,1,25.3,37.5A116.2,116.2,0,0,1,246,128Z"/></svg>