<svg id="Flat" xmlns="http://www.w3.org/2000/svg" viewBox="0 0 256 256">
  <path d="M216.00781,42h-144a14.01573,14.01573,0,0,0-14,14V74h-18a14.01573,14.01573,0,0,0-14,14v23.84546C26.00635,111.89722,26,111.94775,26,112s.00635.10278.00781.15454V200a14.01573,14.01573,0,0,0,14,14h144a14.01572,14.01572,0,0,0,14-14V182h18a14.01572,14.01572,0,0,0,14-14V56A14.01572,14.01572,0,0,0,216.00781,42Zm-176,44h144a2.00245,2.00245,0,0,1,2,2v18h-148V88A2.00245,2.00245,0,0,1,40.00781,86Zm146,114a2.00229,2.00229,0,0,1-2,2h-144a2.00229,2.00229,0,0,1-2-2V118h148Zm32-32a2.00229,2.00229,0,0,1-2,2h-18V88a14.01572,14.01572,0,0,0-14-14h-114V56a2.00245,2.00245,0,0,1,2-2h144a2.00245,2.00245,0,0,1,2,2Z"/>
</svg>
