<svg xmlns="http://www.w3.org/2000/svg" viewBox="0 0 256 256"><path d="M146,92a10,10,0,1,1,10,10A10,10,0,0,1,146,92ZM100,82a10,10,0,1,0,10,10A10,10,0,0,0,100,82Zm150,46a6,6,0,0,1-6,6H214v10a86.6,86.6,0,0,1-3.6,24.6l24.5,14.2a6,6,0,0,1-3,11.2,6.7,6.7,0,0,1-3-.8L206.1,180a86,86,0,0,1-156.2,0L27.1,193.2a6.7,6.7,0,0,1-3,.8,6,6,0,0,1-3-11.2l24.5-14.2A86.6,86.6,0,0,1,42,144V134H12a6,6,0,0,1,0-12H42V112a86.6,86.6,0,0,1,3.6-24.6L21.1,73.2a6,6,0,0,1,6-10.4L49.9,76a86,86,0,0,1,156.2,0l22.8-13.2a6,6,0,0,1,6,10.4L210.4,87.4A86.6,86.6,0,0,1,214,112v10h30A6,6,0,0,1,250,128ZM54,122H202V112a74,74,0,0,0-148,0Zm68,95.7V134H54v10A74,74,0,0,0,122,217.7ZM202,134H134v83.7A74,74,0,0,0,202,144Z"/></svg>