<svg id="Flat" xmlns="http://www.w3.org/2000/svg" viewBox="0 0 256 256">
  <path d="M206,142h18a6,6,0,0,0,0-12H206V110h18a6,6,0,0,0,0-12H205.74634a77.7096,77.7096,0,0,0-20.9209-47.34912l19.24-18.30371a6.00019,6.00019,0,0,0-8.27148-8.69434L175.94116,42.54a77.7483,77.7483,0,0,0-95.95874.06006l-19.917-18.94727A6.00019,6.00019,0,0,0,51.794,32.34717L71.108,50.7207A77.70833,77.70833,0,0,0,50.25366,98H32a6,6,0,0,0,0,12H50v20H32a6,6,0,0,0,0,12H50v10a78.294,78.294,0,0,0,.663,10H32a6,6,0,0,0,0,12H53.17981a77.98269,77.98269,0,0,0,149.64038,0H224a6,6,0,0,0,0-12H205.337A78.294,78.294,0,0,0,206,152ZM128,38a66.08108,66.08108,0,0,1,65.715,60H62.285A66.08108,66.08108,0,0,1,128,38Zm6,179.71484V136a6,6,0,0,0-12,0v81.71484A66.081,66.081,0,0,1,62,152V110H194v42A66.081,66.081,0,0,1,134,217.71484Z"/>
</svg>
