<svg id="Flat" xmlns="http://www.w3.org/2000/svg" viewBox="0 0 256 256">
  <path d="M146,84a10,10,0,1,1,10,10A9.99987,9.99987,0,0,1,146,84ZM100,94A10,10,0,1,0,90,84,9.99987,9.99987,0,0,0,100,94Zm113.92969,14v40a86,86,0,0,1-172,0V108A85.7295,85.7295,0,0,1,67.44336,46.93506l-15.605-14.54639A5.99994,5.99994,0,1,1,60.021,23.61133L76.58545,39.05176a85.82745,85.82745,0,0,1,102.689,0l16.56446-15.44043a5.9996,5.9996,0,1,1,8.18164,8.77734L188.416,46.93506A85.7295,85.7295,0,0,1,213.92969,108Zm-160,0v14h148V108a74,74,0,0,0-148,0Zm148,40V134h-148v14a74,74,0,0,0,148,0Z"/>
</svg>
