<svg id="Flat" xmlns="http://www.w3.org/2000/svg" viewBox="0 0 256 256">
  <path d="M146,92a10,10,0,1,1,10,10A9.99995,9.99995,0,0,1,146,92ZM100,82a10,10,0,1,0,10,10A9.99995,9.99995,0,0,0,100,82Zm150,46a6.00029,6.00029,0,0,1-6,6H214v10a85.699,85.699,0,0,1-3.61438,24.63721l24.53723,14.1665a6.00012,6.00012,0,1,1-6,10.39258l-22.85107-13.19287a85.95449,85.95449,0,0,1-156.14356,0L27.07715,193.19629a6.00012,6.00012,0,1,1-6-10.39258l24.53723-14.1665A85.699,85.699,0,0,1,42,144V134H12a6,6,0,0,1,0-12H42V112a85.699,85.699,0,0,1,3.61438-24.63721L21.07715,73.19629a6.00012,6.00012,0,0,1,6-10.39258l22.851,13.19336a85.95432,85.95432,0,0,1,156.1438,0l22.851-13.19336a6.00012,6.00012,0,0,1,6,10.39258l-24.53723,14.1665A85.699,85.699,0,0,1,214,112v10h30A6.00029,6.00029,0,0,1,250,128ZM54,122H202V112a74,74,0,0,0-148,0Zm68.26245,95.75586A6.00008,6.00008,0,0,1,122,216V134H54v10A74.08287,74.08287,0,0,0,122.26245,217.75586ZM202,134H134v82a6.00008,6.00008,0,0,1-.26245,1.75586A74.08287,74.08287,0,0,0,202,144Z"/>
</svg>
