<svg id="Flat" xmlns="http://www.w3.org/2000/svg" viewBox="0 0 256 256">
  <path d="M229.99414,103.98316v120a6,6,0,0,1-12,0v-120a2.00229,2.00229,0,0,0-2-2h-66v122a6,6,0,0,1-12,0v-184a2.00229,2.00229,0,0,0-2-2h-96a2.00229,2.00229,0,0,0-2,2v184a6,6,0,0,1-12,0v-184a14.01572,14.01572,0,0,1,14-14h96a14.01572,14.01572,0,0,1,14,14v50h66A14.01572,14.01572,0,0,1,229.99414,103.98316Zm-166-26h32a6,6,0,1,0,0-12h-32a6,6,0,0,0,0,12Zm48,68h-32a6,6,0,0,0,0,12h32a6,6,0,1,0,0-12Zm-16,40h-32a6,6,0,0,0,0,12h32a6,6,0,1,0,0-12Zm96-16h-16a6,6,0,0,0,0,12h16a6,6,0,1,0,0-12Zm0-40h-16a6,6,0,0,0,0,12h16a6,6,0,1,0,0-12Z"/>
</svg>
