<svg id="Flat" xmlns="http://www.w3.org/2000/svg" viewBox="0 0 256 256">
  <path d="M240,209.98316H229.99414v-106a14.01572,14.01572,0,0,0-14-14h-66v-50a14.01572,14.01572,0,0,0-14-14h-96a14.01572,14.01572,0,0,0-14,14v170H16a6,6,0,0,0,0,12H240a6,6,0,0,0,0-12Zm-24.00586-108a2.00229,2.00229,0,0,1,2,2v106h-68v-108Zm-178-62a2.00229,2.00229,0,0,1,2-2h96a2.00229,2.00229,0,0,1,2,2v170h-100Zm20,32a6.00029,6.00029,0,0,1,6-6h32a6,6,0,1,1,0,12h-32A6.0003,6.0003,0,0,1,57.99414,71.98316Zm60,64a6.0003,6.0003,0,0,1-6,6h-32a6,6,0,0,1,0-12h32A6.00029,6.00029,0,0,1,117.99414,135.98316Zm-16,40a6.0003,6.0003,0,0,1-6,6h-32a6,6,0,0,1,0-12h32A6.00029,6.00029,0,0,1,101.99414,175.98316Zm96,0a6.0003,6.0003,0,0,1-6,6h-16a6,6,0,0,1,0-12h16A6.00029,6.00029,0,0,1,197.99414,175.98316Zm-28-40a6.00029,6.00029,0,0,1,6-6h16a6,6,0,1,1,0,12h-16A6.0003,6.0003,0,0,1,169.99414,135.98316Z"/>
</svg>
