<svg id="Flat" xmlns="http://www.w3.org/2000/svg" viewBox="0 0 256 256">
  <path d="M190,34H66A30.03406,30.03406,0,0,0,36,64V216a14.01572,14.01572,0,0,0,14,14H74a14.01572,14.01572,0,0,0,14-14V198h80v18a14.01572,14.01572,0,0,0,14,14h24a14.01572,14.01572,0,0,0,14-14V64A30.03406,30.03406,0,0,0,190,34ZM48,186V126H208v60ZM48,78H208v36H48ZM66,46H190a18.02094,18.02094,0,0,1,18,18v2H48V64A18.02094,18.02094,0,0,1,66,46ZM76,216a2.0026,2.0026,0,0,1-2,2H50a2.0026,2.0026,0,0,1-2-2V198H76Zm130,2H182a2.0026,2.0026,0,0,1-2-2V198h28v18A2.0026,2.0026,0,0,1,206,218ZM94,156a10,10,0,1,1-10-10A10.01177,10.01177,0,0,1,94,156Zm88,0a10,10,0,1,1-10-10A10.01177,10.01177,0,0,1,182,156Z"/>
</svg>
