<svg xmlns="http://www.w3.org/2000/svg" viewBox="0 0 256 256"><path d="M229.8,51.6C224.9,45.2,217.5,42,208,42c-16.2,0-37,11.1-55.8,29.7A133.5,133.5,0,0,0,134,93.9V56a6,6,0,0,0-12,0V93.9a133.5,133.5,0,0,0-18.2-22.2C85,53.1,64.2,42,48,42c-9.5,0-16.9,3.2-21.8,9.6s-7.8,17.7-6.8,32.5c.9,12.8,4.1,26.7,6.8,37.4,6,24.2,19.8,32.7,30.6,35.6A42,42,0,1,0,128,201.6a42,42,0,1,0,71.2-44.5c10.8-2.9,24.6-11.4,30.6-35.6C236.4,95.3,241.5,66.5,229.8,51.6ZM92,210a30.1,30.1,0,0,1-19.6-52.8,1,1,0,0,0,.6-.5,29.9,29.9,0,0,1,15.7-6.5,6,6,0,1,0-1.4-11.9,41.5,41.5,0,0,0-20.6,8.1c-8.9,0-22.9-4.1-28.9-27.9C34.6,105.6,26,71.3,35.6,59c2.6-3.4,6.7-5,12.4-5,12.7,0,31.3,10.3,47.4,26.3S122,114.8,122,128v52A30.1,30.1,0,0,1,92,210Zm126.2-91.5c-6,23.8-20,27.9-28.9,27.9a41.5,41.5,0,0,0-20.6-8.1,6,6,0,1,0-1.4,11.9,29.9,29.9,0,0,1,15.7,6.5,1,1,0,0,0,.6.5A30,30,0,1,1,134,180V128c0-13.2,10.2-31.5,26.6-47.7S195.3,54,208,54c5.7,0,9.8,1.6,12.4,5C230,71.3,221.4,105.6,218.2,118.5Z"/></svg>