<svg xmlns="http://www.w3.org/2000/svg" viewBox="0 0 256 256"><path d="M216,210H166V178h6a66.1,66.1,0,0,0,66-66,26,26,0,0,0-52,0,14,14,0,0,1-14,14h-6V56a38,38,0,0,0-76,0V86H84A14,14,0,0,1,70,72a26,26,0,0,0-52,0,66.1,66.1,0,0,0,66,66h6v72H40a6,6,0,0,0,0,12H216a6,6,0,0,0,0-12ZM96,126H84A54,54,0,0,1,30,72a14,14,0,0,1,28,0A26.1,26.1,0,0,0,84,98H96a6,6,0,0,0,6-6V56a26,26,0,0,1,52,0v76a6,6,0,0,0,6,6h12a26.1,26.1,0,0,0,26-26,14,14,0,0,1,28,0,54,54,0,0,1-54,54H160a6,6,0,0,0-6,6v38H102V132A6,6,0,0,0,96,126Z"/></svg>