<svg xmlns="http://www.w3.org/2000/svg" viewBox="0 0 256 256"><path d="M206,82H134V68.1c11.6-4.9,18.3-11.9,20.1-21.1C158,26.7,134.6,5.8,131.9,3.5a5.8,5.8,0,0,0-7.7-.1,93.8,93.8,0,0,0-12.7,13.2c-8.6,11.1-12.1,21.2-10.4,30.2s8.8,16.5,20.9,21.4V82H50a30.1,30.1,0,0,0-30,30v13.3a41.5,41.5,0,0,0,12.3,29.3l1.7,1.5V208a14,14,0,0,0,14,14H208a14,14,0,0,0,14-14V156.1l1.7-1.5A41.5,41.5,0,0,0,236,125.3V112A30.1,30.1,0,0,0,206,82ZM112.9,44.6c-1.8-9.3,8.2-21.6,15-28.4a89.7,89.7,0,0,1,6.8,8c4.2,5.6,8.9,13.7,7.6,20.6-1,5.2-5.8,9.5-14.3,12.8C119,54.3,113.9,49.9,112.9,44.6ZM210,208a2,2,0,0,1-2,2H48a2,2,0,0,1-2-2V163.4A39.1,39.1,0,0,0,60.8,166,40.5,40.5,0,0,0,94,147a39.9,39.9,0,0,0,68,0,40.5,40.5,0,0,0,33.2,19h.8a39.1,39.1,0,0,0,14-2.6Zm14-82.7a29.3,29.3,0,0,1-8.7,20.7,27.7,27.7,0,0,1-19.8,8A28.2,28.2,0,0,1,168,126a6,6,0,0,0-12,0,28,28,0,0,1-56,0,6,6,0,0,0-12,0,28.2,28.2,0,0,1-27.5,28,27.7,27.7,0,0,1-19.8-8A29.3,29.3,0,0,1,32,125.3V112A18.1,18.1,0,0,1,50,94H206a18.1,18.1,0,0,1,18,18Z"/></svg>