<svg xmlns="http://www.w3.org/2000/svg" viewBox="0 0 256 256"><path d="M208,34H182V24a6,6,0,0,0-12,0V34H86V24a6,6,0,0,0-12,0V34H48A14,14,0,0,0,34,48V208a14,14,0,0,0,14,14H208a14,14,0,0,0,14-14V48A14,14,0,0,0,208,34ZM48,46H74V56a6,6,0,0,0,12,0V46h84V56a6,6,0,0,0,12,0V46h26a2,2,0,0,1,2,2V82H46V48A2,2,0,0,1,48,46ZM208,210H48a2,2,0,0,1-2-2V94H210V208A2,2,0,0,1,208,210Zm-82-46a22.1,22.1,0,0,1-22,22,21.8,21.8,0,0,1-15.5-6.4,6,6,0,0,1-.1-8.5,5.9,5.9,0,0,1,8.5,0A9.9,9.9,0,0,0,104,174a10,10,0,0,0,0-20,6,6,0,0,1-5.4-3.4,6.2,6.2,0,0,1,.7-6.4l8.2-10.2H92a6,6,0,0,1,0-12h28a6,6,0,0,1,4.7,9.7l-10.3,12.9A22,22,0,0,1,126,164Zm40-36v52a6,6,0,0,1-12,0V140l-6.4,4.8a6,6,0,0,1-8.4-1.2,5.9,5.9,0,0,1,1.2-8.4l16-12A6,6,0,0,1,166,128Z"/></svg>