<svg xmlns="http://www.w3.org/2000/svg" viewBox="0 0 256 256"><path d="M208,34H182V24a6,6,0,0,0-12,0V34H86V24a6,6,0,0,0-12,0V34H48A14,14,0,0,0,34,48V208a14,14,0,0,0,14,14H208a14,14,0,0,0,14-14V48A14,14,0,0,0,208,34ZM48,46H74V56a6,6,0,0,0,12,0V46h84V56a6,6,0,0,0,12,0V46h26a2,2,0,0,1,2,2V82H46V48A2,2,0,0,1,48,46ZM208,210H48a2,2,0,0,1-2-2V94H210V208A2,2,0,0,1,208,210Zm-51.8-77.8L136.5,152l19.7,19.8a5.9,5.9,0,1,1-8.4,8.4L128,160.5l-19.8,19.7a5.9,5.9,0,0,1-8.4-8.4L119.5,152,99.8,132.2a5.9,5.9,0,0,1,8.4-8.4L128,143.5l19.8-19.7a5.9,5.9,0,0,1,8.4,8.4Z"/></svg>