<svg id="Flat" xmlns="http://www.w3.org/2000/svg" viewBox="0 0 256 256">
  <path d="M208,34H182V24a6,6,0,0,0-12,0V34H86V24a6,6,0,0,0-12,0V34H48A14.01572,14.01572,0,0,0,34,48V208a14.01572,14.01572,0,0,0,14,14H208a14.01572,14.01572,0,0,0,14-14V48A14.01572,14.01572,0,0,0,208,34ZM48,46H74V56a6,6,0,0,0,12,0V46h84V56a6,6,0,0,0,12,0V46h26a2.0026,2.0026,0,0,1,2,2V82H46V48A2.0026,2.0026,0,0,1,48,46ZM208,210H48a2.0026,2.0026,0,0,1-2-2V94H210V208A2.0026,2.0026,0,0,1,208,210Zm-51.75732-77.75781L136.48486,152l19.75782,19.75781a5.99971,5.99971,0,1,1-8.48536,8.48438L128,160.48486l-19.75732,19.75733a5.99971,5.99971,0,0,1-8.48536-8.48438L119.51514,152,99.75732,132.24219a5.99971,5.99971,0,0,1,8.48536-8.48438L128,143.51514l19.75732-19.75733a5.99971,5.99971,0,0,1,8.48536,8.48438Z"/>
</svg>
