<svg xmlns="http://www.w3.org/2000/svg" viewBox="0 0 256 256"><path d="M208,34H182V24a6,6,0,0,0-12,0V34H86V24a6,6,0,0,0-12,0V34H48A14,14,0,0,0,34,48V208a14,14,0,0,0,14,14H208a14,14,0,0,0,14-14V48A14,14,0,0,0,208,34ZM48,46H74V56a6,6,0,0,0,12,0V46h84V56a6,6,0,0,0,12,0V46h26a2,2,0,0,1,2,2V82H46V48A2,2,0,0,1,48,46ZM208,210H48a2,2,0,0,1-2-2V94H210V208A2,2,0,0,1,208,210Zm-39.6-86.1a6.1,6.1,0,0,1-.3,8.5l-46.7,44a5.7,5.7,0,0,1-4.1,1.6,6.4,6.4,0,0,1-4.1-1.6l-25.3-24a6,6,0,0,1,8.2-8.8l21.2,20.1,42.6-40.1A6.1,6.1,0,0,1,168.4,123.9Z"/></svg>