<svg id="Flat" xmlns="http://www.w3.org/2000/svg" viewBox="0 0 256 256">
  <path d="M208,34H182V24a6,6,0,0,0-12,0V34H86V24a6,6,0,0,0-12,0V34H48A14.01572,14.01572,0,0,0,34,48V208a14.01572,14.01572,0,0,0,14,14H208a14.01572,14.01572,0,0,0,14-14V48A14.01572,14.01572,0,0,0,208,34ZM48,46H74V56a6,6,0,0,0,12,0V46h84V56a6,6,0,0,0,12,0V46h26a2.0026,2.0026,0,0,1,2,2V82H46V48A2.0026,2.0026,0,0,1,48,46ZM208,210H48a2.0026,2.0026,0,0,1-2-2V94H210V208A2.0026,2.0026,0,0,1,208,210Zm-82-46.00293A21.99973,21.99973,0,0,1,88.45312,179.5625a6,6,0,0,1,8.48047-8.49023A9.99985,9.99985,0,1,0,104,153.99707a5.99975,5.99975,0,0,1-4.68506-9.74805l8.20117-10.25195H92a6,6,0,1,1,0-12h28a5.99975,5.99975,0,0,1,4.68506,9.748l-10.292,12.86523A22.02109,22.02109,0,0,1,126,163.99707Zm40-36v52a6,6,0,0,1-12,0v-40l-6.3999,4.79981a5.9999,5.9999,0,0,1-7.2002-9.59961l16-12A6.00005,6.00005,0,0,1,166,127.99707Z"/>
</svg>
