<svg id="Flat" xmlns="http://www.w3.org/2000/svg" viewBox="0 0 256 256">
  <path d="M208,34H182V24a6,6,0,0,0-12,0V34H86V24a6,6,0,0,0-12,0V34H48A14.01572,14.01572,0,0,0,34,48V208a14.01572,14.01572,0,0,0,14,14H208a14.01572,14.01572,0,0,0,14-14V48A14.01572,14.01572,0,0,0,208,34ZM48,46H74V56a6,6,0,0,0,12,0V46h84V56a6,6,0,0,0,12,0V46h26a2.0026,2.0026,0,0,1,2,2V82H46V48A2.0026,2.0026,0,0,1,48,46ZM208,210H48a2.0026,2.0026,0,0,1-2-2V94H210V208A2.0026,2.0026,0,0,1,208,210Zm-39.63965-86.12109a6,6,0,0,1-.25,8.48144l-46.6665,44a5.99943,5.99943,0,0,1-8.24268-.00976l-25.333-24a5.99982,5.99982,0,1,1,8.25293-8.71094l21.2168,20.09961,42.54053-40.10938A6.00008,6.00008,0,0,1,168.36035,123.87891Z"/>
</svg>
