<svg id="Flat" xmlns="http://www.w3.org/2000/svg" viewBox="0 0 256 256">
  <path d="M208,58H179.20508L164.98633,36.67188A6.00018,6.00018,0,0,0,159.99414,34h-64a6.00018,6.00018,0,0,0-4.99219,2.67188L76.7832,58H48A22.02489,22.02489,0,0,0,26,80V192a22.02489,22.02489,0,0,0,22,22H208a22.02489,22.02489,0,0,0,22-22V80A22.02489,22.02489,0,0,0,208,58Zm10,134a10.01177,10.01177,0,0,1-10,10H48a10.01177,10.01177,0,0,1-10-10V80A10.01177,10.01177,0,0,1,48,70H79.99414a6.00018,6.00018,0,0,0,4.99219-2.67188L99.20508,46H156.7832L171.002,67.32812A6.00018,6.00018,0,0,0,175.99414,70H208a10.01177,10.01177,0,0,1,10,10ZM128,90a42,42,0,1,0,42,42A42.04718,42.04718,0,0,0,128,90Zm0,72a30,30,0,1,1,30-30A30.03406,30.03406,0,0,1,128,162Z"/>
</svg>
