<svg xmlns="http://www.w3.org/2000/svg" viewBox="0 0 256 256"><path d="M37.9,20a5.9,5.9,0,0,0-8.5-.4A6,6,0,0,0,29,28L56.3,58H48A22.1,22.1,0,0,0,26,80V192a22.1,22.1,0,0,0,22,22H198.1l20,22a6,6,0,0,0,4.4,2,5.9,5.9,0,0,0,4.1-1.6,6,6,0,0,0,.4-8.4Zm67.6,92.2,40.1,44.1a30,30,0,0,1-40.1-44.1ZM48,202a10,10,0,0,1-10-10V80A10,10,0,0,1,48,70H67.2l30.2,33.2A42,42,0,0,0,128,174a41.4,41.4,0,0,0,25.7-8.8L187.2,202ZM230,80V186a6,6,0,0,1-12,0V80a10,10,0,0,0-10-10H176a6,6,0,0,1-5-2.7L156.8,46H99.2l-.2.3a6,6,0,1,1-10-6.6l2-3A6,6,0,0,1,96,34h64a6,6,0,0,1,5,2.7L179.2,58H208A22.1,22.1,0,0,1,230,80Z"/></svg>