<svg id="Flat" xmlns="http://www.w3.org/2000/svg" viewBox="0 0 256 256">
  <path d="M37.894,19.96387a5.99992,5.99992,0,0,0-8.8789,8.07226L56.25488,58H47.99951a22.02489,22.02489,0,0,0-22,22V192a22.02489,22.02489,0,0,0,22,22H198.07324L218.106,236.03613a5.99992,5.99992,0,0,0,8.8789-8.07226Zm67.60108,92.20019,40.11474,44.12647A29.68881,29.68881,0,0,1,127.99951,162a29.99839,29.99839,0,0,1-22.50439-49.83594ZM47.99951,202a10.01177,10.01177,0,0,1-10-10V80a10.01177,10.01177,0,0,1,10-10H67.16406L97.3916,103.25a42.00383,42.00383,0,0,0,56.332,61.96582L187.16406,202Zm182-122V186.02881a6,6,0,1,1-12,0V80a10.01177,10.01177,0,0,0-10-10H175.99365a6.00018,6.00018,0,0,1-4.99219-2.67188L156.78271,46H99.20557l-.22657.33984a6.00013,6.00013,0,1,1-9.98632-6.65429l2.00781-3.0127A6.00041,6.00041,0,0,1,95.99365,34h64a6.00018,6.00018,0,0,1,4.99219,2.67187L179.20459,58h28.79492A22.02489,22.02489,0,0,1,229.99951,80Z"/>
</svg>
