<svg xmlns="http://www.w3.org/2000/svg" viewBox="0 0 256 256"><path d="M208,58H179.2L165,36.7a6,6,0,0,0-5-2.7H96a6,6,0,0,0-5,2.7L76.8,58H48A22.1,22.1,0,0,0,26,80V192a22.1,22.1,0,0,0,22,22H208a22.1,22.1,0,0,0,22-22V80A22.1,22.1,0,0,0,208,58Zm10,134a10,10,0,0,1-10,10H48a10,10,0,0,1-10-10V80A10,10,0,0,1,48,70H80a6,6,0,0,0,5-2.7L99.2,46h57.6L171,67.3a6,6,0,0,0,5,2.7h32a10,10,0,0,1,10,10Zm-57.5-36a5.9,5.9,0,0,1,0,8.5,45.9,45.9,0,0,1-65,0h-.1L88,156.7,85.9,169a6,6,0,0,1-5.9,5H79a5.9,5.9,0,0,1-4.9-6.9l4-24a5.9,5.9,0,0,1,4.9-4.9l24-4a6,6,0,0,1,2,11.8L96.2,148l7.8,8.1a33.9,33.9,0,0,0,48-.1A6.1,6.1,0,0,1,160.5,156Zm21.4-59-4,24a5.9,5.9,0,0,1-4.9,4.9l-24,4h-1a6,6,0,0,1-5.9-5,5.9,5.9,0,0,1,4.9-6.9l12.8-2.1-7.8-8.1a33.9,33.9,0,0,0-48,.1,6.1,6.1,0,0,1-8.5,0,5.9,5.9,0,0,1,0-8.5,45.9,45.9,0,0,1,65,0h.1l7.4,7.8L170.1,95a6,6,0,0,1,11.8,2Z"/></svg>