<svg xmlns="http://www.w3.org/2000/svg" viewBox="0 0 256 256"><path d="M221.7,225.8A6,6,0,0,1,216,230a5.7,5.7,0,0,1-1.8-.3L128,202.3,41.8,229.7a5.7,5.7,0,0,1-1.8.3,6,6,0,0,1-1.8-11.7l70-22.3-70-22.3a6,6,0,1,1,3.6-11.4L128,189.7l86.2-27.4a6,6,0,1,1,3.6,11.4l-70,22.3,70,22.3A6,6,0,0,1,221.7,225.8ZM70,108c0-46.8,52.6-79.7,54.9-81.1a5.8,5.8,0,0,1,6.2,0C133.4,28.3,186,61.2,186,108a58,58,0,0,1-116,0Zm58,46a18.1,18.1,0,0,0,18-18c0-15.5-12-27.4-18-32.4-6,5-18,17-18,32.4A18.1,18.1,0,0,0,128,154ZM82,108a45.9,45.9,0,0,0,17,35.7,28,28,0,0,1-1-7.7c0-26.9,25.6-44.3,26.7-45a6.1,6.1,0,0,1,6.6,0c1.1.7,26.7,18.1,26.7,45a28,28,0,0,1-1,7.7A45.9,45.9,0,0,0,174,108c0-34.1-35.1-61.2-46-68.8C117.2,46.8,82,73.9,82,108Z"/></svg>