<svg id="Flat" xmlns="http://www.w3.org/2000/svg" viewBox="0 0 256 256">
  <path d="M240,114H227.89868L199.59375,50.31348A14.01333,14.01333,0,0,0,186.80078,42H69.19922a14.01264,14.01264,0,0,0-12.793,8.31445L28.10132,114H16a6,6,0,0,0,0,12H26v82a14.01572,14.01572,0,0,0,14,14H64a14.01572,14.01572,0,0,0,14-14V190H178v18a14.01572,14.01572,0,0,0,14,14h24a14.01572,14.01572,0,0,0,14-14V126h10a6,6,0,0,0,0-12ZM67.37109,55.18848A2.00406,2.00406,0,0,1,69.19922,54H186.80078a2.00477,2.00477,0,0,1,1.82813,1.1875L214.76733,114H41.23267ZM218,208a2.0026,2.0026,0,0,1-2,2H192a2.0026,2.0026,0,0,1-2-2V184a6.00029,6.00029,0,0,0-6-6H72a6.00029,6.00029,0,0,0-6,6v24a2.0026,2.0026,0,0,1-2,2H40a2.0026,2.0026,0,0,1-2-2V126H218Z"/>
</svg>
