<svg id="Flat" xmlns="http://www.w3.org/2000/svg" viewBox="0 0 256 256">
  <path d="M240,114H227.89868L199.59375,50.31348A14.01333,14.01333,0,0,0,186.80078,42H69.19922a14.01264,14.01264,0,0,0-12.793,8.31445L28.10132,114H16a6,6,0,0,0,0,12H26v82a14.01572,14.01572,0,0,0,14,14H64a14.01572,14.01572,0,0,0,14-14V190H178v18a14.01572,14.01572,0,0,0,14,14h24a14.01572,14.01572,0,0,0,14-14V126h10a6,6,0,0,0,0-12ZM67.37109,55.18848A2.00406,2.00406,0,0,1,69.19922,54H186.80078a2.00477,2.00477,0,0,1,1.82813,1.1875L214.76733,114H41.23267ZM66,208a2.0026,2.0026,0,0,1-2,2H40a2.0026,2.0026,0,0,1-2-2V190H66Zm150,2H192a2.0026,2.0026,0,0,1-2-2V190h28v18A2.0026,2.0026,0,0,1,216,210Zm2-32H38V126H218ZM58,152a6.00029,6.00029,0,0,1,6-6H80a6,6,0,0,1,0,12H64A6.00029,6.00029,0,0,1,58,152Zm112,0a6.00029,6.00029,0,0,1,6-6h16a6,6,0,0,1,0,12H176A6.00029,6.00029,0,0,1,170,152Z"/>
</svg>
