<svg xmlns="http://www.w3.org/2000/svg" viewBox="0 0 256 256"><path d="M240,114H227.9L199.6,50.3A14.2,14.2,0,0,0,186.8,42H69.2a14.2,14.2,0,0,0-12.8,8.3L28.1,114H16a6,6,0,0,0,0,12H26v82a14,14,0,0,0,14,14H64a14,14,0,0,0,14-14V190H178v18a14,14,0,0,0,14,14h24a14,14,0,0,0,14-14V126h10a6,6,0,0,0,0-12ZM67.4,55.2A2,2,0,0,1,69.2,54H186.8a2,2,0,0,1,1.8,1.2L214.8,114H41.2ZM66,208a2,2,0,0,1-2,2H40a2,2,0,0,1-2-2V190H66Zm150,2H192a2,2,0,0,1-2-2V190h28v18A2,2,0,0,1,216,210Zm2-32H38V126H218ZM58,152a6,6,0,0,1,6-6H80a6,6,0,0,1,0,12H64A6,6,0,0,1,58,152Zm112,0a6,6,0,0,1,6-6h16a6,6,0,0,1,0,12H176A6,6,0,0,1,170,152Z"/></svg>