<svg id="Flat" xmlns="http://www.w3.org/2000/svg" viewBox="0 0 256 256">
  <path d="M208,50H48A22.02489,22.02489,0,0,0,26,72V184a22.02489,22.02489,0,0,0,22,22H208a22.02489,22.02489,0,0,0,22-22V72A22.02489,22.02489,0,0,0,208,50ZM38,94H218v20H167.19043a14.033,14.033,0,0,0-13.71,11.20605,26.00859,26.00859,0,0,1-50.96094,0A14.033,14.033,0,0,0,88.80957,114H38ZM48,62H208a10.01177,10.01177,0,0,1,10,10V82H38V72A10.01177,10.01177,0,0,1,48,62ZM208,194H48a10.01177,10.01177,0,0,1-10-10V126H88.80957a1.99614,1.99614,0,0,1,1.9502,1.59277,38.008,38.008,0,0,0,74.48046,0A1.99614,1.99614,0,0,1,167.19043,126H218v58A10.01177,10.01177,0,0,1,208,194Z"/>
</svg>
