<svg id="Flat" xmlns="http://www.w3.org/2000/svg" viewBox="0 0 256 256">
  <path d="M200.125,55.875a102.00015,102.00015,0,0,0-144.25,144.25,102.00015,102.00015,0,0,0,144.25-144.25Zm-8.48535,135.76465a89.958,89.958,0,1,1,0-127.2793A90.10235,90.10235,0,0,1,191.63965,191.63965Zm-27.397-27.88233a6.00006,6.00006,0,0,1-8.48536,8.48536L128,144.48535l-27.75732,27.75733a6.00006,6.00006,0,0,1-8.48536-8.48536l32-32a6.00078,6.00078,0,0,1,8.48536,0Zm0-56a6.00006,6.00006,0,0,1-8.48536,8.48536L128,88.48535l-27.75732,27.75733a6.00006,6.00006,0,0,1-8.48536-8.48536l32-32a6.00078,6.00078,0,0,1,8.48536,0Z"/>
</svg>
