<svg id="Flat" xmlns="http://www.w3.org/2000/svg" viewBox="0 0 256 256">
  <path d="M200.125,55.875a102.00015,102.00015,0,0,0-144.25,144.25,102.00015,102.00015,0,0,0,144.25-144.25Zm-8.48535,135.76465a89.958,89.958,0,1,1,0-127.2793A90.10235,90.10235,0,0,1,191.63965,191.63965Zm-19.397-91.397L144.48535,128l27.75733,27.75732a6.00006,6.00006,0,0,1-8.48536,8.48536l-32-32a5.99989,5.99989,0,0,1,0-8.48536l32-32a6.00006,6.00006,0,0,1,8.48536,8.48536Zm-56,0L88.48535,128l27.75733,27.75732a6.00006,6.00006,0,0,1-8.48536,8.48536l-32-32a5.99989,5.99989,0,0,1,0-8.48536l32-32a6.00006,6.00006,0,0,1,8.48536,8.48536Z"/>
</svg>
