<svg id="Flat" xmlns="http://www.w3.org/2000/svg" viewBox="0 0 256 256">
  <path d="M94,140a10,10,0,1,1-10-10A9.99995,9.99995,0,0,1,94,140Zm78-10a10,10,0,1,0,10,10A9.99995,9.99995,0,0,0,172,130Zm58-78.68652V136c0,51.83154-45.75684,94-102,94S26,187.83154,26,136V51.31348a13.99984,13.99984,0,0,1,23.89941-9.89942l18.376,18.37549A105.24817,105.24817,0,0,1,93.48181,47.56836,5.953,5.953,0,0,1,94.92,47.11084a109.61459,109.61459,0,0,1,66.16346.00073,5.94442,5.94442,0,0,1,1.43115.45508,105.238,105.238,0,0,1,25.21094,12.2229l18.374-18.37549A14.0004,14.0004,0,0,1,230,51.31348Zm-12,0a2.00039,2.00039,0,0,0-3.415-1.41407L192.64355,71.84082a5.99953,5.99953,0,0,1-7.82031.57373A91.30914,91.30914,0,0,0,166,61.68994V88a6,6,0,0,1-12,0V57.5166a98.03761,98.03761,0,0,0-20-3.314V88a6,6,0,0,1-12,0V54.20264a98.05557,98.05557,0,0,0-20,3.314V88a6,6,0,0,1-12,0V61.68994A91.31978,91.31978,0,0,0,71.17578,72.41455a6.00083,6.00083,0,0,1-7.82129-.57373L41.41406,49.89941a1.88728,1.88728,0,0,0-1.36621-.60205,2.1528,2.1528,0,0,0-.81347.16846A1.90552,1.90552,0,0,0,38,51.31348V136c0,43.37744,37.16125,78.99023,84,81.81348V194.48486l-14.24219-14.24218a5.99971,5.99971,0,0,1,8.48438-8.48536L128,183.51465l11.75781-11.75733a5.99971,5.99971,0,0,1,8.48438,8.48536L134,194.48486v23.32862c46.83875-2.82325,84-38.436,84-81.81348Z"/>
</svg>
