<svg id="Flat" xmlns="http://www.w3.org/2000/svg" viewBox="0 0 256 256">
  <path d="M197.35742,30.37952a13.95826,13.95826,0,0,0-15.25683,3.03466L17.415,198.10022a14,14,0,0,0,9.89844,23.8999H192a14.01572,14.01572,0,0,0,14-14V43.3136A13.9588,13.9588,0,0,0,197.35742,30.37952ZM25.46582,208.76575a1.90725,1.90725,0,0,1,.43359-2.18018L154,78.4845V210.00012H27.31348A1.90658,1.90658,0,0,1,25.46582,208.76575ZM194,208.00012a2.00229,2.00229,0,0,1-2,2H166V66.4845l24.585-24.585a1.88878,1.88878,0,0,1,1.36719-.60206,2.153,2.153,0,0,1,.81347.16846A1.90552,1.90552,0,0,1,194,43.3136Z"/>
</svg>
