<svg xmlns="http://www.w3.org/2000/svg" viewBox="0 0 256 256"><path d="M228.3,147.8a6,6,0,0,1,0,8.4A6.1,6.1,0,0,1,224,158a5.8,5.8,0,0,1-4.2-1.8L200,136.5l-19.7,19.7A6.1,6.1,0,0,1,176,158a6,6,0,0,1-4.2-10.2L191.5,128l-19.7-19.8a5.8,5.8,0,0,1,0-8.4,5.9,5.9,0,0,1,8.5,0L200,119.5l19.8-19.7a6,6,0,0,1,8.5,8.4L208.5,128ZM200,167.3a6,6,0,0,0-6,6V208a2,2,0,0,1-2,2H27.3a2,2,0,0,1-1.8-1.2,1.9,1.9,0,0,1,.4-2.2L190.6,41.9a1.9,1.9,0,0,1,2.2-.4,2,2,0,0,1,1.2,1.8V82.7a6,6,0,0,0,12,0V43.3a14,14,0,0,0-23.9-9.9L17.4,198.1A14,14,0,0,0,27.3,222H192a14,14,0,0,0,14-14V173.3A6,6,0,0,0,200,167.3Z"/></svg>