<svg id="Flat" xmlns="http://www.w3.org/2000/svg" viewBox="0 0 256 256">
  <path d="M228.24268,147.75781a5.99971,5.99971,0,1,1-8.48536,8.48438L200,136.48486l-19.75732,19.75733a5.99971,5.99971,0,0,1-8.48536-8.48438L191.51514,128l-19.75782-19.75781a5.99971,5.99971,0,0,1,8.48536-8.48438L200,119.51514l19.75732-19.75733a5.99971,5.99971,0,0,1,8.48536,8.48438L208.48486,128ZM200,167.25488a6.0003,6.0003,0,0,0-6,6V208a2.00229,2.00229,0,0,1-2,2H27.31348a2.00039,2.00039,0,0,1-1.41407-3.415L190.58594,41.89941A1.99983,1.99983,0,0,1,194,43.31348V82.74512a6,6,0,0,0,12,0V43.31348A13.99979,13.99979,0,0,0,182.10059,33.415L17.41406,198.10059A14.00007,14.00007,0,0,0,27.31348,222H192a14.01572,14.01572,0,0,0,14-14V173.25488A6.0003,6.0003,0,0,0,200,167.25488Z"/>
</svg>
