<svg id="Flat" xmlns="http://www.w3.org/2000/svg" viewBox="0 0 256 256">
  <path d="M197.35742,30.37952a13.95914,13.95914,0,0,0-15.25683,3.03466L75.76221,139.75305l-.009.00928L17.415,198.10022a14.00007,14.00007,0,0,0,9.89844,23.8999H192a14.016,14.016,0,0,0,14-14V43.3136A13.9593,13.9593,0,0,0,197.35742,30.37952ZM25.46582,208.76526a1.90658,1.90658,0,0,1,.43359-2.17969L74,158.485v51.51514H27.31348A1.90625,1.90625,0,0,1,25.46582,208.76526ZM194,208.00012a2.0026,2.0026,0,0,1-2,2H86V146.485L190.585,41.89954a1.88878,1.88878,0,0,1,1.36719-.60206,2.153,2.153,0,0,1,.81347.16846A1.90552,1.90552,0,0,1,194,43.3136Z"/>
</svg>
