<svg id="Flat" xmlns="http://www.w3.org/2000/svg" viewBox="0 0 256 256">
  <path d="M131.16553,92.83362a5.99871,5.99871,0,0,1,0-8.48438l50.93506-50.93457A13.99935,13.99935,0,0,1,206,43.31409v116.3291a6,6,0,0,1-12,0V43.31409a1.99993,1.99993,0,0,0-3.41406-1.415L139.65088,92.83362A5.999,5.999,0,0,1,131.16553,92.83362Zm81.71191,126.65283c-.02881.04053-.05884.0791-.08887.11865a5.99009,5.99009,0,0,1-.71191.792c-.01709.01563-.02856.03516-.0459.05079-.01831.0166-.04.02734-.05859.04394a6.01273,6.01273,0,0,1-.79517.59668c-.04346.02686-.08667.05322-.13037.0791a5.98349,5.98349,0,0,1-.86572.42383c-.04639.01807-.093.03418-.13989.05127a5.96842,5.96842,0,0,1-.92847.25781c-.0398.00733-.07959.01123-.11939.01807a6.00888,6.00888,0,0,1-.99414.08984h-.00488L27.313,221.99963a13.99979,13.99979,0,0,1-9.89844-23.89941L104.467,111.04748,43.55518,44.04455a5.99992,5.99992,0,0,1,8.8789-8.07226l160,176c.01538.01709.02466.03711.0398.05371a6.00773,6.00773,0,0,1,.63916.86328c.02368.03906.04785.07715.07055.11621a5.96431,5.96431,0,0,1,.44092.94434c.01514.0415.03125.083.04566.125a5.96193,5.96193,0,0,1,.24365.99316c.00757.04785.01538.09522.02173.14356a5.99554,5.99554,0,0,1,.05908.79687c0,.0708-.0083.13965-.01074.21-.00171.05176-.00464.10352-.00782.15528a5.97979,5.97979,0,0,1-.14453,1.00439c-.00976.0415-.02124.082-.03174.12354a5.96373,5.96373,0,0,1-.33911.97168c-.0188.0415-.03979.082-.05957.12353A5.97969,5.97969,0,0,1,212.87744,219.48645Zm-185.564-9.48682,167.11743.0083-81.88306-90.07129L25.89941,206.58557a1.99982,1.99982,0,0,0,1.41407,3.41406Z"/>
</svg>
