<svg xmlns="http://www.w3.org/2000/svg" viewBox="0 0 256 256"><path d="M216,42H40A14,14,0,0,0,26,56V200a14,14,0,0,0,14,14H53.4a6,6,0,0,0,5.4-3.4,50,50,0,0,1,90.4,0,6,6,0,0,0,5.4,3.4H216a14,14,0,0,0,14-14V56A14,14,0,0,0,216,42ZM78,144a26,26,0,1,1,26,26A26.1,26.1,0,0,1,78,144Zm140,56a2,2,0,0,1-2,2H158.3a62.3,62.3,0,0,0-31.5-27.6,38,38,0,1,0-45.6,0A62.3,62.3,0,0,0,49.7,202H40a2.1,2.1,0,0,1-2-2V56a2,2,0,0,1,2-2H216a2,2,0,0,1,2,2ZM198,80v96a6,6,0,0,1-6,6H176a6,6,0,0,1,0-12h10V86H70V96a6,6,0,0,1-12,0V80a6,6,0,0,1,6-6H192A6,6,0,0,1,198,80Z"/></svg>