<svg id="Flat" xmlns="http://www.w3.org/2000/svg" viewBox="0 0 256 256">
  <path d="M216,42H40A14.01572,14.01572,0,0,0,26,56V200.001A13.99862,13.99862,0,0,0,40.001,214l13.38965-.00146a5.99918,5.99918,0,0,0,5.418-3.4253,50.024,50.024,0,0,1,90.38282,0,5.99784,5.99784,0,0,0,5.41894,3.4253L216,214a14.01572,14.01572,0,0,0,14-14V56A14.01572,14.01572,0,0,0,216,42ZM78,144a26,26,0,1,1,26,26A26.02916,26.02916,0,0,1,78,144Zm140,56a2.00229,2.00229,0,0,1-2,2l-57.73145-.00146a62.38264,62.38264,0,0,0-31.48046-27.61,37.99993,37.99993,0,1,0-45.57618.00012A62.384,62.384,0,0,0,49.73145,201.999L39.999,202A1.99969,1.99969,0,0,1,38,200.001V56a2.00229,2.00229,0,0,1,2-2H216a2.00229,2.00229,0,0,1,2,2ZM198,80v96a6.00029,6.00029,0,0,1-6,6H176a6,6,0,0,1,0-12h10V86H70V96a6,6,0,0,1-12,0V80a6.00029,6.00029,0,0,1,6-6H192A6.00029,6.00029,0,0,1,198,80Z"/>
</svg>
