<svg id="Flat" xmlns="http://www.w3.org/2000/svg" viewBox="0 0 256 256">
  <path d="M101.99854,109.52515v-72.062a5.99982,5.99982,0,0,0-7.99952-5.657A102.14985,102.14985,0,0,0,27.70068,146.64062a5.99961,5.99961,0,0,0,8.89991,4.106l62.398-36.02539A5.99978,5.99978,0,0,0,101.99854,109.52515Zm-12-3.46411L38.34131,135.88525C38.11426,133.2666,38,130.63257,38,128A90.18631,90.18631,0,0,1,89.99854,46.38843Zm126.53759-28.668c-.064-.13184-.12671-.26416-.20117-.39307-.1001-.17334-.2085-.33936-.32275-.499A102.05007,102.05007,0,0,0,128,26a6.00029,6.00029,0,0,0-6,6v92.53589L41.86133,170.80371A6.00042,6.00042,0,0,0,39.665,179c.03223.05591.07251.104.1062.1582.08252.178.17358.35376.27515.52637A102.01133,102.01133,0,0,0,230,128,101.37532,101.37532,0,0,0,216.53613,77.39307ZM134,38.20483a90.03377,90.03377,0,0,1,68.74292,39.71436L134,117.60767ZM128,218a90.46368,90.46368,0,0,1-74.769-39.90381l155.52588-89.793A89.97448,89.97448,0,0,1,128,218Z"/>
</svg>
