<svg id="Flat" xmlns="http://www.w3.org/2000/svg" viewBox="0 0 256 256">
  <path d="M216.53613,77.39307c-.064-.13184-.12671-.26416-.20117-.39307-.10034-.17383-.2085-.33984-.323-.49951A101.97531,101.97531,0,0,0,39.46387,178.60693c.064.13184.12671.26416.20117.39307.07031.12207.1543.23047.23193.34521A101.97576,101.97576,0,0,0,216.53613,77.39307Zm-13.79321.52588L134,117.60791V38.20459A90.03445,90.03445,0,0,1,202.74292,77.919ZM122,38.20459v86.33154L47.24316,167.69678A89.96933,89.96933,0,0,1,122,38.20459ZM128,218a89.98334,89.98334,0,0,1-74.74292-39.91895L208.75684,88.30322A89.97448,89.97448,0,0,1,128,218Z"/>
</svg>
