<svg id="Flat" xmlns="http://www.w3.org/2000/svg" viewBox="0 0 256 256">
  <path d="M229.99951,208a6.00029,6.00029,0,0,1-6,6h-192a6.0003,6.0003,0,0,1-6-6V48a6,6,0,0,1,12,0V161.51807l53.76074-53.76075a5.99871,5.99871,0,0,1,8.48438,0l27.75781,27.75733L193.51758,70H168.00244a6,6,0,0,1,0-12h40.00293a6.033,6.033,0,0,1,1.09863.10547c.02051.00391.04151.00537.062.00928a5.98722,5.98722,0,0,1,1.03808.30761c.02686.01075.0542.01856.08057.02979a6.00435,6.00435,0,0,1,.9707.51074c.022.01465.04492.02637.0669.041a6.02787,6.02787,0,0,1,1.67724,1.67724c.01367.02051.02442.042.0376.0625a5.93167,5.93167,0,0,1,.51367.97559c.01026.0249.01807.05078.02783.07568a5.953,5.953,0,0,1,.30909,1.04248c.0039.01953.00537.03906.00878.0586a6.00141,6.00141,0,0,1,.106,1.104v40a6,6,0,0,1-12,0V78.48486l-69.75781,69.75782a5.99871,5.99871,0,0,1-8.48438,0L96.00244,120.48535,37.99951,178.48779V202h186A6.00029,6.00029,0,0,1,229.99951,208Z"/>
</svg>
