<svg id="Flat" xmlns="http://www.w3.org/2000/svg" viewBox="0 0 256.00098 256.00098">
  <path d="M166,103.999a6.00029,6.00029,0,0,1-6,6H96a6,6,0,0,1,0-12h64A6.0003,6.0003,0,0,1,166,103.999Zm-6,26H96a6,6,0,0,0,0,12h64a6,6,0,0,0,0-12ZM230,56V184a14.01656,14.01656,0,0,1-14.001,14H156.5293a2.01095,2.01095,0,0,0-1.71582.9707l-14.80957,24.68262a13.9993,13.9993,0,0,1-24.00879,0L101.18555,198.9707a2.01216,2.01216,0,0,0-1.71582-.97168H40a14.01572,14.01572,0,0,1-14-14V56A14.01572,14.01572,0,0,1,40,42H216A14.01572,14.01572,0,0,1,230,56Zm-12,0a2.0026,2.0026,0,0,0-2-2H40a2.0026,2.0026,0,0,0-2,2V183.999a2.0026,2.0026,0,0,0,2,2H99.46973a14.07057,14.07057,0,0,1,12.00488,6.79786l14.80957,24.68261a2.00092,2.00092,0,0,0,3.43066,0l14.80957-24.68261A14.07058,14.07058,0,0,1,156.5293,186H215.999A2.00281,2.00281,0,0,0,218,184Z"/>
</svg>
