<svg xmlns="http://www.w3.org/2000/svg" viewBox="0 0 256 256"><path d="M216,42H40A14,14,0,0,0,26,56V184a14,14,0,0,0,14,14H99.5a2.1,2.1,0,0,1,1.7,1L116,223.7a14,14,0,0,0,24,0L154.8,199a2.1,2.1,0,0,1,1.7-1H216a14,14,0,0,0,14-14V56A14,14,0,0,0,216,42Zm2,142a2,2,0,0,1-2,2H156.5a14,14,0,0,0-12,6.8l-14.8,24.7a1.9,1.9,0,0,1-3.4,0l-14.8-24.7a14,14,0,0,0-12-6.8H40a2,2,0,0,1-2-2V56a2,2,0,0,1,2-2H216a2,2,0,0,1,2,2ZM90,120a10,10,0,1,1-10-10A10,10,0,0,1,90,120Zm48,0a10,10,0,1,1-10-10A10,10,0,0,1,138,120Zm48,0a10,10,0,1,1-10-10A10,10,0,0,1,186,120Z"/></svg>