<svg id="Flat" xmlns="http://www.w3.org/2000/svg" viewBox="0 0 256.00098 256.00098">
  <path d="M230,96.00049a14.01572,14.01572,0,0,0-14-14H182v-34a14.01572,14.01572,0,0,0-14-14H40a14.01572,14.01572,0,0,0-14,14v128a6.0003,6.0003,0,0,0,9.77246,4.666l37.93262-30.666H74l.001,34a14.01573,14.01573,0,0,0,14,14H182.2959l37.93262,30.666a6.00027,6.00027,0,0,0,9.77246-4.666Zm-158.417,42a6.00142,6.00142,0,0,0-3.77246,1.334L38,163.43459V48.00049a2.00229,2.00229,0,0,1,2-2H168a2.00229,2.00229,0,0,1,2,2v88a2.00229,2.00229,0,0,1-2,2Zm116.60742,49.334a6.00142,6.00142,0,0,0-3.77246-1.334H88.001a2.00229,2.00229,0,0,1-2-2l-.001-34h82a14.01573,14.01573,0,0,0,14-14v-42h34a2.00229,2.00229,0,0,1,2,2l.001,115.4341Z"/>
</svg>
