<svg xmlns="http://www.w3.org/2000/svg" viewBox="0 0 256 256"><path d="M216,50H40A14,14,0,0,0,26,64V222.8a13.9,13.9,0,0,0,8.1,12.7,13.7,13.7,0,0,0,5.9,1.3,13.9,13.9,0,0,0,9-3.3l32.2-27h0a2.1,2.1,0,0,1,1.3-.5H216a14,14,0,0,0,14-14V64A14,14,0,0,0,216,50Zm2,142a2,2,0,0,1-2,2H82.5a14.1,14.1,0,0,0-9,3.3L41.3,224.4a2.1,2.1,0,0,1-3.3-1.6V64a2,2,0,0,1,2-2H216a2,2,0,0,1,2,2ZM90,128a10,10,0,1,1-10-10A10,10,0,0,1,90,128Zm48,0a10,10,0,1,1-10-10A10,10,0,0,1,138,128Zm48,0a10,10,0,1,1-10-10A10,10,0,0,1,186,128Z"/></svg>