<svg id="Flat" xmlns="http://www.w3.org/2000/svg" viewBox="0 0 256 256">
  <path d="M128.00049,26A102.0278,102.0278,0,0,0,38.96143,177.79492L30.186,208.50635a14.00111,14.00111,0,0,0,17.30859,17.30713l30.71191-8.77442A102.007,102.007,0,1,0,128.00049,26Zm0,192a89.88384,89.88384,0,0,1-45.93067-12.58594,5.99971,5.99971,0,0,0-4.71582-.6123L44.19775,214.2749a2,2,0,0,1-2.47265-2.47265l9.47265-33.15577a6.00245,6.00245,0,0,0-.6123-4.71484A90.01154,90.01154,0,1,1,128.00049,218Zm-38.001-90.00293a10,10,0,1,1-10-10A10.01177,10.01177,0,0,1,89.99951,127.99707Zm48,0a10,10,0,1,1-10-10A10.01177,10.01177,0,0,1,137.99951,127.99707Zm48,0a10,10,0,1,1-10-10A10.01177,10.01177,0,0,1,185.99951,127.99707Z"/>
</svg>
