<svg id="Flat" xmlns="http://www.w3.org/2000/svg" viewBox="0 0 256.00098 256.00098">
  <path d="M127.999,230.4502a13.88722,13.88722,0,0,1-12.0039-6.79688L101.18555,198.9707a2.01216,2.01216,0,0,0-1.71582-.97168H40a14.01572,14.01572,0,0,1-14-14V56A14.01572,14.01572,0,0,1,40,42H216a14.01572,14.01572,0,0,1,14,14V184a14.01656,14.01656,0,0,1-14.001,14H156.5293a2.01095,2.01095,0,0,0-1.71582.9707l-14.80957,24.68262A13.88765,13.88765,0,0,1,127.999,230.4502ZM40,54a2.0026,2.0026,0,0,0-2,2V183.999a2.0026,2.0026,0,0,0,2,2H99.46973a14.07057,14.07057,0,0,1,12.00488,6.79786l14.80957,24.68261a2.00092,2.00092,0,0,0,3.43066,0l14.80957-24.68261h0A14.07058,14.07058,0,0,1,156.5293,186H215.999A2.00281,2.00281,0,0,0,218,184V56a2.0026,2.0026,0,0,0-2-2Z"/>
</svg>
