<svg id="Flat" xmlns="http://www.w3.org/2000/svg" viewBox="0 0 256.00098 256.00098">
  <path d="M216.001,50.00049h-176a14.01572,14.01572,0,0,0-14,14V222.82422a13.86947,13.86947,0,0,0,8.08886,12.69092,14.06509,14.06509,0,0,0,5.94727,1.33154,13.90612,13.90612,0,0,0,8.97266-3.30566l32.02539-26.92237,1.69629-.61816H216.001a14.01574,14.01574,0,0,0,14-14v-128A14.01573,14.01573,0,0,0,216.001,50.00049Zm2,142a2.00229,2.00229,0,0,1-2,2H81.67187a6.00015,6.00015,0,0,0-2.05468.36279L75.93066,195.707A6.01236,6.01236,0,0,0,74.124,196.751L41.28711,224.35547a1.99966,1.99966,0,0,1-3.28613-1.53125V64.00049a2.00229,2.00229,0,0,1,2-2h176a2.00229,2.00229,0,0,1,2,2ZM166.001,112a6.0003,6.0003,0,0,1-6,6h-64a6,6,0,0,1,0-12h64A6.0003,6.0003,0,0,1,166.001,112Zm0,32a6.0003,6.0003,0,0,1-6,6h-64a6,6,0,0,1,0-12h64A6.0003,6.0003,0,0,1,166.001,144Z"/>
</svg>
