<svg xmlns="http://www.w3.org/2000/svg" viewBox="0 0 256 256"><path d="M230,96a14,14,0,0,0-14-14H182V48a14,14,0,0,0-14-14H40A14,14,0,0,0,26,48V176a6,6,0,0,0,3.4,5.4,5.8,5.8,0,0,0,2.6.6,6.7,6.7,0,0,0,3.8-1.3L73.7,150H74v34a14,14,0,0,0,14,14h94.3l37.9,30.7A6.7,6.7,0,0,0,224,230a5.8,5.8,0,0,0,2.6-.6A6,6,0,0,0,230,224ZM71.6,138a6.5,6.5,0,0,0-3.8,1.3L38,163.4V48a2,2,0,0,1,2-2H168a2,2,0,0,1,2,2v88a2,2,0,0,1-2,2Zm116.6,49.3a6.5,6.5,0,0,0-3.8-1.3H88a2,2,0,0,1-2-2V150h82a14,14,0,0,0,14-14V94h34a2,2,0,0,1,2,2V211.4Z"/></svg>