<svg xmlns="http://www.w3.org/2000/svg" viewBox="0 0 256 256"><path d="M228.4,189.5A78,78,0,0,0,168.2,74.4,78,78,0,1,0,27.6,141.5L21.2,164A12,12,0,0,0,36,178.8l22.5-6.4a77.3,77.3,0,0,0,29.3,9.2,78,78,0,0,0,109.7,38.8l22.5,6.4A11.9,11.9,0,0,0,234.8,212ZM59.3,159.9a4.7,4.7,0,0,0-1.7.3l-24.9,7.1,7.1-24.9a5.6,5.6,0,0,0-.6-4.7,65.9,65.9,0,1,1,23.1,23.1A5.5,5.5,0,0,0,59.3,159.9Zm156.9,30.5,7.1,24.9-24.9-7.1a5.6,5.6,0,0,0-4.7.6,66.1,66.1,0,0,1-92.6-27A78.1,78.1,0,0,0,174,104a78.9,78.9,0,0,0-1.9-16.9,66.1,66.1,0,0,1,44.7,98.6A5.6,5.6,0,0,0,216.2,190.4Z"/></svg>