<svg id="Flat" xmlns="http://www.w3.org/2000/svg" viewBox="0 0 256 256">
  <path d="M128.00049,230a101.92994,101.92994,0,0,1-49.794-12.96069l-30.71191,8.77392A14.001,14.001,0,0,1,30.186,208.50635l8.77539-30.71118A102.01244,102.01244,0,1,1,128.00049,230ZM79.00244,204.5708a6.00275,6.00275,0,0,1,3.06738.843A89.9527,89.9527,0,1,0,50.58545,173.9314a6.00271,6.00271,0,0,1,.6123,4.71484l-9.47265,33.156a2,2,0,0,0,2.47265,2.47265L77.354,204.80176A5.99059,5.99059,0,0,1,79.00244,204.5708ZM128,119a9,9,0,1,0,9,9A9,9,0,0,0,128,119Zm-48,0a9,9,0,1,0,9,9A9,9,0,0,0,80,119Zm96,0a9,9,0,1,0,9,9A9,9,0,0,0,176,119Z"/>
</svg>
