<svg id="Flat" xmlns="http://www.w3.org/2000/svg" viewBox="0 0 256 256">
  <path d="M228.39209,189.53076a78.02868,78.02868,0,0,0-60.23389-115.108A77.99751,77.99751,0,1,0,27.60791,141.53027l-6.40918,22.436a11.999,11.999,0,0,0,14.834,14.83594l22.43653-6.41016A77.84259,77.84259,0,0,0,87.811,181.562,78.037,78.037,0,0,0,197.53076,220.3916l22.43653,6.41065a11.99965,11.99965,0,0,0,14.835-14.835ZM59.25146,159.92822a5.99047,5.99047,0,0,0-1.64843.231l-24.86621,7.105L39.84131,142.397a6.00394,6.00394,0,0,0-.61231-4.71533,65.97031,65.97031,0,1,1,23.08985,23.08984A6.00314,6.00314,0,0,0,59.25146,159.92822Zm156.90723,30.46826,7.10547,24.86768L198.397,208.15967a5.99572,5.99572,0,0,0-4.71484.61181,66.03488,66.03488,0,0,1-92.57324-26.95727A77.93084,77.93084,0,0,0,172.14111,87.129,66.01675,66.01675,0,0,1,216.771,185.68115,6.00367,6.00367,0,0,0,216.15869,190.39648Z"/>
</svg>
