<svg xmlns="http://www.w3.org/2000/svg" viewBox="0 0 256 256"><path d="M166,104a6,6,0,0,1-6,6H96a6,6,0,0,1,0-12h64A6,6,0,0,1,166,104Zm-6,26H96a6,6,0,0,0,0,12h64a6,6,0,0,0,0-12Zm70-74V184a14,14,0,0,1-14,14H156.5a2.1,2.1,0,0,0-1.7,1L140,223.7a14,14,0,0,1-24,0L101.2,199a2.1,2.1,0,0,0-1.7-1H40a14,14,0,0,1-14-14V56A14,14,0,0,1,40,42H216A14,14,0,0,1,230,56Zm-12,0a2,2,0,0,0-2-2H40a2,2,0,0,0-2,2V184a2,2,0,0,0,2,2H99.5a14,14,0,0,1,12,6.8l14.8,24.7a1.9,1.9,0,0,0,3.4,0l14.8-24.7a14,14,0,0,1,12-6.8H216a2,2,0,0,0,2-2Z"/></svg>