<svg id="Flat" xmlns="http://www.w3.org/2000/svg" viewBox="0 0 256.00098 256.00098">
  <path d="M216.001,50.00049h-176a14.01572,14.01572,0,0,0-14,14V222.82422a13.86947,13.86947,0,0,0,8.08886,12.69092,14.06509,14.06509,0,0,0,5.94727,1.33154,13.90612,13.90612,0,0,0,8.97266-3.30566l32.20312-27.07129v-.00049a2.00158,2.00158,0,0,1,1.28613-.46875H216.001a14.01574,14.01574,0,0,0,14-14v-128A14.01573,14.01573,0,0,0,216.001,50.00049Zm2,142a2.00229,2.00229,0,0,1-2,2H82.499a14.01838,14.01838,0,0,0-9.00879,3.28369L41.28711,224.35547a1.99966,1.99966,0,0,1-3.28613-1.53125V64.00049a2.00229,2.00229,0,0,1,2-2h176a2.00229,2.00229,0,0,1,2,2ZM90,127.99805a10,10,0,1,1-10-10A10.01177,10.01177,0,0,1,90,127.99805Zm48,0a10,10,0,1,1-10-10A10.01177,10.01177,0,0,1,138,127.99805Zm48,0a10,10,0,1,1-10-10A10.01177,10.01177,0,0,1,186,127.99805Z"/>
</svg>
