<svg id="Flat" xmlns="http://www.w3.org/2000/svg" viewBox="0 0 256 256">
  <path d="M128.00049,230a101.92866,101.92866,0,0,1-49.794-12.96082l-30.71191,8.77405a14.00059,14.00059,0,0,1-17.30859-17.307l8.77539-30.71094A102.01248,102.01248,0,1,1,128.00049,230ZM79.00244,204.57068a6.00288,6.00288,0,0,1,3.06738.84314,89.9523,89.9523,0,1,0-31.48437-31.4823,6.00271,6.00271,0,0,1,.6123,4.71484l-9.47265,33.156a2.00007,2.00007,0,0,0,2.47265,2.47253L77.354,204.80151A5.99993,5.99993,0,0,1,79.00244,204.57068Z"/>
</svg>
