<svg id="Flat" xmlns="http://www.w3.org/2000/svg" viewBox="0 0 256.00098 256.00098">
  <path d="M40.03711,236.84631a14.06951,14.06951,0,0,1-5.94727-1.331,13.86937,13.86937,0,0,1-8.08886-12.691V64.00049a14.01576,14.01576,0,0,1,14-14h176a14.01577,14.01577,0,0,1,14,14v128a14.01581,14.01581,0,0,1-14,14H82.499a2.00158,2.00158,0,0,0-1.28613.46875v.00036l-32.20312,27.071A13.90542,13.90542,0,0,1,40.03711,236.84631ZM40.001,62.00049a2.00245,2.00245,0,0,0-2,2V222.82422a1.99942,1.99942,0,0,0,3.28613,1.53088l32.20312-27.071v.00036a14.01867,14.01867,0,0,1,9.00879-3.28393H216.001a2.00245,2.00245,0,0,0,2-2v-128a2.00245,2.00245,0,0,0-2-2ZM77.35156,201.87683h0Z"/>
</svg>
