<svg xmlns="http://www.w3.org/2000/svg" viewBox="0 0 256 256"><path d="M216,50H40A14,14,0,0,0,26,64V222.8a13.9,13.9,0,0,0,8.1,12.7,13.7,13.7,0,0,0,5.9,1.3,13.9,13.9,0,0,0,9-3.3l32-26.9,1.7-.6H216a14,14,0,0,0,14-14V64A14,14,0,0,0,216,50Zm2,142a2,2,0,0,1-2,2H81.7a5.2,5.2,0,0,0-2.1.4l-3.7,1.3a5.8,5.8,0,0,0-1.8,1.1L41.3,224.4a2.1,2.1,0,0,1-3.3-1.6V64a2,2,0,0,1,2-2H216a2,2,0,0,1,2,2Zm-52-80a6,6,0,0,1-6,6H96a6,6,0,0,1,0-12h64A6,6,0,0,1,166,112Zm0,32a6,6,0,0,1-6,6H96a6,6,0,0,1,0-12h64A6,6,0,0,1,166,144Z"/></svg>