<svg id="Flat" xmlns="http://www.w3.org/2000/svg" viewBox="0 0 256 256">
  <path d="M216.001,42h-176a14.01572,14.01572,0,0,0-14,14V183.999a14.01572,14.01572,0,0,0,14,14H99.4707a2.01215,2.01215,0,0,1,1.71582.97168l14.80957,24.68262a13.9993,13.9993,0,0,0,24.00879,0l14.80957-24.68262A2.011,2.011,0,0,1,156.53027,198H216a14.01656,14.01656,0,0,0,14.001-14V56A14.01573,14.01573,0,0,0,216.001,42Zm2,142A2.00281,2.00281,0,0,1,216,186H156.53027a14.07057,14.07057,0,0,0-12.00488,6.79688l-14.80957,24.68261a2.00092,2.00092,0,0,1-3.43066,0l-14.80957-24.68261A14.07057,14.07057,0,0,0,99.4707,185.999H40.001a2.0026,2.0026,0,0,1-2-2V56a2.0026,2.0026,0,0,1,2-2h176a2.0026,2.0026,0,0,1,2,2Zm-81.00049-63.99951a9,9,0,1,1-9-9A8.9999,8.9999,0,0,1,137.00049,120.00049Zm-48,0a9,9,0,1,1-9-9A8.9999,8.9999,0,0,1,89.00049,120.00049Zm96,0a9,9,0,1,1-9-9A8.9999,8.9999,0,0,1,185.00049,120.00049Z"/>
</svg>
