<svg id="Flat" xmlns="http://www.w3.org/2000/svg" viewBox="0 0 256 256">
  <path d="M217.99951,52.00012v152a14.01572,14.01572,0,0,1-14,14H135.63525a6,6,0,0,1,0-12h68.36426a2.00229,2.00229,0,0,0,2-2v-152a2.00229,2.00229,0,0,0-2-2h-152a2.00229,2.00229,0,0,0-2,2v91.27246a6,6,0,0,1-12,0V52.00012a14.01573,14.01573,0,0,1,14-14h152A14.01572,14.01572,0,0,1,217.99951,52.00012Zm-85.75683,95.75733a5.99957,5.99957,0,0,0-8.48438,0L64.00049,207.51477,36.24268,179.75745a5.99971,5.99971,0,0,0-8.48438,8.48535l32,32a5.999,5.999,0,0,0,8.48438,0l64-64A5.999,5.999,0,0,0,132.24268,147.75745Z"/>
</svg>
