<svg id="Flat" xmlns="http://www.w3.org/2000/svg" viewBox="0 0 256 256">
  <path d="M176.33936,99.85705a6,6,0,0,1-.19727,8.4834l-58.666,56a5.99982,5.99982,0,0,1-8.28515,0l-29.334-28a6,6,0,0,1,8.28516-8.68066l25.19141,24.0459,54.52343-52.0459A5.99973,5.99973,0,0,1,176.33936,99.85705Zm45.66015-51.85693v160a14.01572,14.01572,0,0,1-14,14h-160a14.01573,14.01573,0,0,1-14-14v-160a14.01573,14.01573,0,0,1,14-14h160A14.01572,14.01572,0,0,1,221.99951,48.00012Zm-12,0a2.00229,2.00229,0,0,0-2-2h-160a2.00229,2.00229,0,0,0-2,2v160a2.00229,2.00229,0,0,0,2,2h160a2.00229,2.00229,0,0,0,2-2Z"/>
</svg>
