<svg id="Flat" xmlns="http://www.w3.org/2000/svg" viewBox="0 0 256 256">
  <path d="M224.419,104.2002c-3.9004-4.06739-7.9336-8.27247-9.55176-12.1836-1.5-3.626-1.58106-8.99219-1.667-14.67383-.14161-9.3789-.30176-20.00781-7.41895-27.124-7.11621-7.11719-17.74512-7.27734-27.124-7.419-5.68164-.08593-11.04785-.167-14.67383-1.667-3.91113-1.61816-8.11621-5.65136-12.18262-9.55176C145.16309,25.21582,137.63867,18,128,18c-9.6377,0-17.16211,7.21582-23.7998,13.58105-4.06739,3.9004-8.27247,7.9336-12.1836,9.55176-3.626,1.5-8.99219,1.58106-14.67383,1.667-9.3789.14161-20.00781.30176-27.124,7.419-7.11719,7.11621-7.27734,17.74512-7.419,27.124-.08593,5.68164-.167,11.04785-1.667,14.67383-1.61816,3.91113-5.65136,8.11621-9.55176,12.18262C25.21582,110.83691,18,118.36133,18,128c0,9.6377,7.21582,17.16211,13.58105,23.7998,3.9004,4.06739,7.9336,8.27247,9.55176,12.1836,1.5,3.626,1.58106,8.99219,1.667,14.67383.14161,9.3789.30176,20.00781,7.419,27.124,7.11621,7.11719,17.74512,7.27734,27.124,7.41895,5.68164.08593,11.04786.167,14.67383,1.667,3.91113,1.61816,8.11621,5.65136,12.18262,9.55176C110.83691,230.78418,118.36133,238,128,238c9.6377,0,17.16211-7.21582,23.7998-13.58105,4.06739-3.9004,8.27247-7.9336,12.1836-9.55176,3.626-1.5,8.99219-1.58106,14.67383-1.667,9.3789-.14161,20.00781-.30176,27.124-7.41895,7.11719-7.11621,7.27734-17.74512,7.41895-27.124.08593-5.68164.167-11.04786,1.667-14.67383,1.61816-3.91113,5.65136-8.11621,9.55176-12.18262C230.78418,145.16309,238,137.63867,238,128,238,118.3623,230.78418,110.83789,224.419,104.2002Zm-8.66114,39.29492c-4.66894,4.86816-9.49707,9.90234-11.97851,15.90039-2.376,5.74219-2.47852,12.52344-2.57715,19.08105-.11328,7.44434-.22949,15.14356-3.90527,18.82031-3.67676,3.67579-11.376,3.792-18.82032,3.90528-6.55761.09863-13.33886.20117-19.08105,2.57715-5.99805,2.48144-11.03321,7.30957-15.90137,11.97851C138.24316,220.793,132.81445,226,128,226s-10.24414-5.207-15.49512-10.24219c-4.86816-4.66894-9.90234-9.49707-15.90039-11.97851-5.74219-2.376-12.52344-2.47852-19.08105-2.57715-7.44434-.11328-15.14356-.22949-18.82031-3.90528-3.67579-3.67675-3.792-11.376-3.90528-18.82031-.09863-6.55761-.20117-13.33886-2.57715-19.08105-2.48144-5.99805-7.30957-11.03321-11.97851-15.90137C35.207,138.24316,30,132.81445,30,128s5.207-10.24414,10.24219-15.49512c4.66894-4.86816,9.49707-9.90234,11.97851-15.90039,2.376-5.74219,2.47852-12.52344,2.57715-19.08105.11328-7.44434.22949-15.14356,3.90528-18.82032,3.67675-3.67578,11.376-3.792,18.82031-3.90527,6.55761-.09863,13.33886-.20117,19.08105-2.57715,5.99805-2.48144,11.03321-7.30957,15.90137-11.97851C117.75684,35.207,123.18555,30,128,30s10.24414,5.207,15.49512,10.24219c4.86816,4.66894,9.90234,9.49707,15.90039,11.97851,5.74219,2.376,12.52344,2.47852,19.08105,2.57715,7.44434.11328,15.14356.22949,18.82032,3.90527,3.67578,3.67676,3.792,11.376,3.90527,18.82032.09863,6.55761.20117,13.33886,2.57715,19.08105,2.48144,5.99805,7.30957,11.03321,11.97851,15.90137C220.793,117.75684,226,123.18555,226,128S220.793,138.24414,215.75781,143.49512ZM137.999,180a10,10,0,1,1-10-10A9.99995,9.99995,0,0,1,137.999,180Zm24-71.99512a34.05725,34.05725,0,0,1-28,33.46973v2.53027a6,6,0,0,1-12,0v-8a6.00031,6.00031,0,0,1,6-6,22,22,0,1,0-22-22,6,6,0,0,1-12,0,34,34,0,1,1,68,0Z"/>
</svg>
