<svg xmlns="http://www.w3.org/2000/svg" viewBox="0 0 256 256"><path d="M230,128A102.1,102.1,0,0,0,128,26,102,102,0,0,0,55.9,200.1,101.2,101.2,0,0,0,127.8,230h.2A102.1,102.1,0,0,0,230,128Zm-12,0a89.3,89.3,0,0,1-20,56.6V71.4A89.3,89.3,0,0,1,218,128ZM102,162.5l20-20v75.3a96.5,96.5,0,0,1-20-3.6ZM90,209.6a86.2,86.2,0,0,1-21.2-13.9L90,174.5Zm44-79.1,20-20V214.2a96.5,96.5,0,0,1-20,3.6Zm32-32,20-20V196.8a86.1,86.1,0,0,1-20,12.8ZM38,128A89.9,89.9,0,0,1,187.2,60.3L60.3,187.2A89.2,89.2,0,0,1,38,128Z"/></svg>