<svg id="Flat" xmlns="http://www.w3.org/2000/svg" viewBox="0 0 256 256">
  <path d="M64.36035,55.87439a5.99988,5.99988,0,0,1,0,8.48535,89.96487,89.96487,0,0,0-23.30762,40.33692A6.0002,6.0002,0,0,1,29.4585,101.601,101.97405,101.97405,0,0,1,55.875,55.87537,6.00075,6.00075,0,0,1,64.36035,55.87439ZM41.06641,151.29431a5.99981,5.99981,0,1,0-11.59082,3.10547A101.9697,101.9697,0,0,0,55.86768,200.14a5.9997,5.9997,0,1,0,8.47753-8.49219A89.96885,89.96885,0,0,1,41.06641,151.29431Zm110.22607,63.65625a89.9348,89.9348,0,0,1-46.58643-.01758,6.00029,6.00029,0,0,0-3.10546,11.5918,101.97989,101.97989,0,0,0,52.80859.01367,5.99985,5.99985,0,1,0-3.1167-11.58789ZM222.292,147.05408a5.99943,5.99943,0,0,0-7.34472,4.249A89.9461,89.9461,0,0,1,191.63965,191.639a6.0004,6.0004,0,0,0,8.48535,8.48633,101.9714,101.9714,0,0,0,26.4165-45.72657A6.00037,6.00037,0,0,0,222.292,147.05408Zm-7.35888-42.34766a6,6,0,1,0,11.5913-3.10547,101.96418,101.96418,0,0,0-26.39257-45.74121,6.00006,6.00006,0,1,0-8.47657,8.49414A89.94375,89.94375,0,0,1,214.93311,104.70642ZM104.70752,41.0492a89.97633,89.97633,0,0,1,46.58643.01757A6.00028,6.00028,0,0,0,154.39941,29.475a101.95952,101.95952,0,0,0-52.80859-.01368,5.99986,5.99986,0,1,0,3.1167,11.5879Z"/>
</svg>
