<svg xmlns="http://www.w3.org/2000/svg" viewBox="0 0 256 256"><path d="M224.4,104.2c-3.9-4.1-7.9-8.3-9.5-12.2s-1.6-9-1.7-14.7c-.1-9.3-.3-20-7.4-27.1s-17.8-7.3-27.1-7.4c-5.7-.1-11.1-.2-14.7-1.7s-8.1-5.6-12.2-9.5C145.2,25.2,137.6,18,128,18s-17.2,7.2-23.8,13.6c-4.1,3.9-8.3,7.9-12.2,9.5s-9,1.6-14.7,1.7c-9.3.1-20,.3-27.1,7.4S42.9,68,42.8,77.3c-.1,5.7-.2,11.1-1.7,14.7s-5.6,8.1-9.5,12.2C25.2,110.8,18,118.4,18,128s7.2,17.2,13.6,23.8c3.9,4.1,7.9,8.3,9.5,12.2s1.6,9,1.7,14.7c.1,9.3.3,20,7.4,27.1s17.8,7.3,27.1,7.4c5.7.1,11.1.2,14.7,1.7s8.1,5.6,12.2,9.5c6.6,6.4,14.2,13.6,23.8,13.6s17.2-7.2,23.8-13.6c4.1-3.9,8.3-7.9,12.2-9.5s9-1.6,14.7-1.7c9.3-.1,20-.3,27.1-7.4s7.3-17.8,7.4-27.1c.1-5.7.2-11.1,1.7-14.7s5.6-8.1,9.5-12.2c6.4-6.6,13.6-14.2,13.6-23.8S230.8,110.8,224.4,104.2Zm-8.6,39.3c-4.7,4.9-9.5,9.9-12,15.9s-2.5,12.5-2.6,19.1-.2,15.1-3.9,18.8-11.4,3.8-18.8,3.9-13.4.2-19.1,2.6-11,7.3-15.9,12S132.8,226,128,226s-10.2-5.2-15.5-10.2-9.9-9.5-15.9-12-12.5-2.5-19.1-2.6-15.1-.2-18.8-3.9-3.8-11.4-3.9-18.8-.2-13.4-2.6-19.1-7.3-11-12-15.9S30,132.8,30,128s5.2-10.2,10.2-15.5,9.5-9.9,12-15.9,2.5-12.5,2.6-19.1.2-15.1,3.9-18.8,11.4-3.8,18.8-3.9,13.4-.2,19.1-2.6,11-7.3,15.9-12S123.2,30,128,30s10.2,5.2,15.5,10.2,9.9,9.5,15.9,12,12.5,2.5,19.1,2.6,15.1.2,18.8,3.9,3.8,11.4,3.9,18.8.2,13.4,2.6,19.1,7.3,11,12,15.9S226,123.2,226,128,220.8,138.2,215.8,143.5Z"/></svg>