<svg xmlns="http://www.w3.org/2000/svg" viewBox="0 0 256 256"><path d="M64.4,55.9a6.1,6.1,0,0,1,0,8.5,89.3,89.3,0,0,0-23.3,40.3,6.2,6.2,0,0,1-5.8,4.5l-1.6-.2a6,6,0,0,1-4.2-7.4A102,102,0,0,1,55.9,55.9,5.9,5.9,0,0,1,64.4,55.9ZM41.1,151.3a6,6,0,0,0-7.4-4.2,5.9,5.9,0,0,0-4.2,7.3,100.9,100.9,0,0,0,26.4,45.7,5.8,5.8,0,0,0,4.2,1.8,6.1,6.1,0,0,0,4.3-1.8,5.9,5.9,0,0,0-.1-8.4A90.7,90.7,0,0,1,41.1,151.3ZM151.3,215a90.9,90.9,0,0,1-46.6-.1,6,6,0,0,0-7.3,4.3,5.9,5.9,0,0,0,4.2,7.3,99.5,99.5,0,0,0,26.5,3.5,98,98,0,0,0,26.3-3.5,6,6,0,1,0-3.1-11.5Zm71-67.9a6,6,0,0,0-7.4,4.2,88.7,88.7,0,0,1-23.3,40.3,6.1,6.1,0,0,0,0,8.5,6,6,0,0,0,4.3,1.8,5.8,5.8,0,0,0,4.2-1.8,101.4,101.4,0,0,0,26.4-45.7A5.9,5.9,0,0,0,222.3,147.1Zm-7.4-42.4a6.2,6.2,0,0,0,5.8,4.5l1.6-.2a6,6,0,0,0,4.2-7.4,100.9,100.9,0,0,0-26.4-45.7,5.9,5.9,0,0,0-8.5,0,6,6,0,0,0,.1,8.5A89.8,89.8,0,0,1,214.9,104.7ZM104.7,41.1a89.8,89.8,0,0,1,46.6,0l1.6.2a5.9,5.9,0,0,0,5.7-4.5,5.9,5.9,0,0,0-4.2-7.3,100.6,100.6,0,0,0-52.8,0,5.9,5.9,0,0,0-4.2,7.3A6,6,0,0,0,104.7,41.1Z"/></svg>