<svg id="Flat" xmlns="http://www.w3.org/2000/svg" viewBox="0 0 256 256">
  <path d="M200,34H162.82715a45.90407,45.90407,0,0,0-69.6543,0H56A14.01572,14.01572,0,0,0,42,48V216a14.01572,14.01572,0,0,0,14,14H200a14.01572,14.01572,0,0,0,14-14V48A14.01572,14.01572,0,0,0,200,34Zm-72-4a34.03833,34.03833,0,0,1,34,34v2H94V64A34.03833,34.03833,0,0,1,128,30Zm74,186a2.0026,2.0026,0,0,1-2,2H56a2.0026,2.0026,0,0,1-2-2V48a2.0026,2.0026,0,0,1,2-2H85.67139A45.7399,45.7399,0,0,0,82,64v8a6.00029,6.00029,0,0,0,6,6h80a6.00029,6.00029,0,0,0,6-6V64a45.7399,45.7399,0,0,0-3.67139-18H200a2.0026,2.0026,0,0,1,2,2Z"/>
</svg>
