<svg id="Flat" xmlns="http://www.w3.org/2000/svg" viewBox="0 0 256 256">
  <path d="M134,80v44.53577l38.56934,22.26794a6.00012,6.00012,0,1,1-6,10.39258l-41.56934-24c-.0498-.02863-.09424-.06238-.14258-.09216-.09961-.06153-.19873-.12348-.29443-.19062-.07861-.05487-.15381-.11309-.229-.17114-.07568-.05859-.15136-.11713-.22412-.17926-.08349-.07141-.16357-.14569-.24316-.221-.05908-.05615-.11768-.11236-.17432-.1709-.08008-.08276-.15625-.16784-.23144-.25457-.05176-.06031-.103-.12079-.15283-.18311-.06885-.08661-.13428-.17487-.19776-.26471-.05078-.07117-.1001-.143-.14746-.21643-.0542-.08374-.10547-.16858-.15478-.25464-.0503-.08612-.09815-.173-.14356-.26172-.03955-.07776-.07715-.15631-.11377-.23565-.0459-.1001-.08984-.20111-.13037-.30408-.02881-.07434-.05566-.14923-.082-.22461-.0376-.10754-.07275-.21582-.104-.326-.023-.07928-.04249-.15894-.06153-.23907-.02539-.10529-.0498-.21076-.06933-.31806-.01758-.09589-.03125-.19226-.044-.289-.01269-.092-.0249-.18378-.0332-.2771-.01074-.11963-.01465-.23956-.01807-.35986C122.00684,128.108,122,128.05487,122,128V80a6,6,0,0,1,12,0Zm60.46777-18.46826a94.10709,94.10709,0,0,0-132.93554,0L37.8335,85.23041V59.71582a6,6,0,1,0-12,0v40a6.036,6.036,0,0,0,.10546,1.103c.00391.02.00538.04.00928.05993a5.92145,5.92145,0,0,0,.3086,1.04059c.01025.02594.01757.05213.02832.07788a5.98189,5.98189,0,0,0,.51123.97138c.01416.02227.02636.04541.041.06756a6.0314,6.0314,0,0,0,.752.92047l.00146.0019.002.00158a6.05341,6.05341,0,0,0,.9209.7522c.02149.01428.04395.02576.06543.03967a5.97894,5.97894,0,0,0,.97412.51245c.02442.01014.04981.01752.07422.02729a5.9599,5.9599,0,0,0,1.04492.30957c.01807.00354.03565.00482.05371.00818a6.01873,6.01873,0,0,0,1.10743.10638h40a6,6,0,0,0,0-12H46.31885L70.01758,70.01709a81.99976,81.99976,0,1,1,0,115.96631,5.9997,5.9997,0,1,0-8.48535,8.48437,93.9998,93.9998,0,1,0,132.93554-132.936Z"/>
</svg>
