<svg id="Flat" xmlns="http://www.w3.org/2000/svg" viewBox="0 0 256 256">
  <path d="M134,80v44.53577l38.56934,22.26794a6.00012,6.00012,0,1,1-6,10.39258l-41.56934-24c-.0498-.02863-.09424-.06238-.14258-.09216-.09961-.06153-.19873-.12348-.29443-.19062-.07862-.05487-.15381-.11309-.229-.17114-.07568-.05859-.15136-.11713-.22412-.17926-.08349-.07141-.16357-.14569-.24316-.221-.05908-.05615-.11768-.11236-.17432-.1709-.08008-.08276-.15625-.16784-.23144-.25457-.05176-.06031-.103-.12079-.15283-.18311-.06885-.08661-.13428-.17487-.19776-.26471-.05078-.07117-.1001-.143-.14746-.21643-.0542-.08374-.10547-.16858-.15478-.25464-.0503-.08612-.09815-.173-.14356-.26172-.03955-.07776-.07715-.15631-.11377-.23565-.0459-.1001-.08984-.20111-.13037-.30408-.02881-.07434-.05566-.14923-.082-.22461-.0376-.10754-.07276-.21582-.104-.326-.02294-.07928-.04248-.15894-.06152-.23907-.02539-.10529-.0498-.21076-.06933-.31806-.01758-.09589-.03125-.19226-.044-.289-.0127-.092-.0249-.18378-.0332-.2771-.01075-.11963-.01465-.23956-.01807-.35986C122.00684,128.108,122,128.05487,122,128V80a6,6,0,0,1,12,0Zm95.20312,22.9693a5.98994,5.98994,0,0,0,.51172-.97247c.01075-.02533.01807-.05121.02832-.07666a5.97584,5.97584,0,0,0,.3086-1.04187c.0039-.01947.00537-.039.00879-.05848a6.00388,6.00388,0,0,0,.106-1.104v-40a6,6,0,1,0-12,0V85.23041L194.46777,61.53174a93.95607,93.95607,0,1,0,0,132.93652,6,6,0,1,0-8.48535-8.48535,81.99987,81.99987,0,1,1,0-115.96582l23.69873,23.69873H184.1665a6,6,0,0,0,0,12H224.165l.00391-.00012a6.02769,6.02769,0,0,0,1.09765-.1051c.021-.004.043-.00556.064-.00977a5.93011,5.93011,0,0,0,1.03564-.30688c.02783-.01087.05566-.01917.0835-.03052a6.00739,6.00739,0,0,0,.96826-.50958c.023-.01484.04639-.0271.06933-.04224a6.02715,6.02715,0,0,0,.92041-.752l.00147-.00109.001-.00122a6.04036,6.04036,0,0,0,.75244-.92145C229.17725,103.014,229.189,102.99127,229.20312,102.9693Z"/>
</svg>
