<svg id="Flat" xmlns="http://www.w3.org/2000/svg" viewBox="0 0 256 256">
  <path d="M128,26A102,102,0,1,0,230,128,102.1153,102.1153,0,0,0,128,26Zm0,192a90,90,0,1,1,90-90A90.10217,90.10217,0,0,1,128,218Zm62-90a6.00029,6.00029,0,0,1-6,6H142.48535l29.35547,29.35547a6,6,0,0,1-8.48535,8.48535l-39.59815-39.59814-.001-.00147a6.00885,6.00885,0,0,1-.75244-.9209c-.01465-.022-.02637-.04492-.041-.06689a6.0036,6.0036,0,0,1-.51123-.97217c-.01025-.02539-.01807-.05176-.02832-.07715a5.93611,5.93611,0,0,1-.30859-1.041c-.00391-.02-.00538-.04-.00928-.06006a5.82061,5.82061,0,0,1,0-2.20606c.0039-.02.00537-.04.00928-.06006a5.93611,5.93611,0,0,1,.30859-1.041c.01025-.02539.01807-.05176.02832-.07715a6.0036,6.0036,0,0,1,.51123-.97217c.01465-.022.02637-.04492.041-.06689a6.01906,6.01906,0,0,1,.75293-.92188l.00048-.00049.00049-.00048a6.079,6.079,0,0,1,.92237-.75342c.02148-.01416.04394-.02588.06543-.03955a5.94415,5.94415,0,0,1,.97363-.51221c.0249-.01025.05078-.01807.07617-.02783a5.93448,5.93448,0,0,1,1.042-.30908c.01953-.00391.03906-.00538.0586-.00879A5.99738,5.99738,0,0,1,128,122h56A6.00029,6.00029,0,0,1,190,128Z"/>
</svg>
