<svg xmlns="http://www.w3.org/2000/svg" viewBox="0 0 256 256"><path d="M134,80v44.5l38.6,22.3a6,6,0,0,1-6,10.4l-41.6-24h-.1l-.3-.2-.3-.2h-.2l-.2-.3h-.2l-.2-.3-.2-.2-.2-.2v-.2l-.2-.3c0-.1-.1-.2-.1-.3s-.1-.1-.1-.2l-.2-.3c0-.1,0-.2-.1-.2a.8.8,0,0,0-.1-.4v-.2a.4.4,0,0,1-.1-.3v-.3a.4.4,0,0,1-.1-.3V80a6,6,0,0,1,12,0Zm95.2,23a4.7,4.7,0,0,0,.5-1h0a4.2,4.2,0,0,0,.4-1h0c0-.3.1-.7.1-1.1v-40a6,6,0,1,0-12,0V85.2L194.5,61.5a94,94,0,1,0,0,133,6.1,6.1,0,0,0,0-8.5,5.9,5.9,0,0,0-8.5,0,82,82,0,1,1,0-116l23.7,23.7H184.2a6,6,0,0,0,0,12h41.1l1.1-.3h0l1-.5h.1l.9-.7h0l.8-1Z"/></svg>