<svg xmlns="http://www.w3.org/2000/svg" viewBox="0 0 256 256"><path d="M216,42H40A14,14,0,0,0,26,56V200a14,14,0,0,0,14,14H216a14,14,0,0,0,14-14V56A14,14,0,0,0,216,42Zm2,158a2,2,0,0,1-2,2H40a2,2,0,0,1-2-2V56a2,2,0,0,1,2-2H216a2,2,0,0,1,2,2ZM74,128a22.1,22.1,0,0,0,22,22,21.6,21.6,0,0,0,15.7-6.6,6,6,0,0,1,8.6,8.4,34,34,0,1,1,0-47.6,6,6,0,1,1-8.6,8.4A21.6,21.6,0,0,0,96,106,22.1,22.1,0,0,0,74,128Zm72,0a22.1,22.1,0,0,0,22,22,21.6,21.6,0,0,0,15.7-6.6,6,6,0,0,1,8.6,8.4,34,34,0,1,1,0-47.6,6,6,0,1,1-8.6,8.4A21.6,21.6,0,0,0,168,106,22.1,22.1,0,0,0,146,128Z"/></svg>