<svg id="Flat" xmlns="http://www.w3.org/2000/svg" viewBox="0 0 256 256">
  <path d="M216,42H40A14.01572,14.01572,0,0,0,26,56V200a14.01572,14.01572,0,0,0,14,14H216a14.01572,14.01572,0,0,0,14-14V56A14.01572,14.01572,0,0,0,216,42Zm2,158a2.0026,2.0026,0,0,1-2,2H40a2.0026,2.0026,0,0,1-2-2V56a2.0026,2.0026,0,0,1,2-2H216a2.0026,2.0026,0,0,1,2,2ZM74,128a22.00017,22.00017,0,0,0,37.71484,15.39648,5.99967,5.99967,0,0,1,8.57032,8.39844,34,34,0,1,1,0-47.58984,5.99967,5.99967,0,0,1-8.57032,8.39844A22.00017,22.00017,0,0,0,74,128Zm72,0a22.00017,22.00017,0,0,0,37.71484,15.39648,5.99967,5.99967,0,0,1,8.57032,8.39844,34,34,0,1,1,0-47.58984,5.99967,5.99967,0,0,1-8.57032,8.39844A22.00017,22.00017,0,0,0,146,128Z"/>
</svg>
