<svg id="Flat" xmlns="http://www.w3.org/2000/svg" viewBox="0 0 256 256">
  <path d="M246,128a85.34423,85.34423,0,0,1-34.39551,68.80225,6,6,0,0,1-7.207-9.59473A74.00187,74.00187,0,1,0,86,128a6,6,0,0,1-12,0,85.70651,85.70651,0,0,1,3.90625-25.644A49.99723,49.99723,0,1,0,72,202h64a6,6,0,0,1,0,12H72A62,62,0,1,1,82.43262,90.88281,85.99361,85.99361,0,0,1,246,128Zm-62,33.99219H160.8623l12.7085-31.77149a6,6,0,0,0-11.1416-4.457l-16,40A6.00016,6.00016,0,0,0,152,173.99219h23.1377l-12.7085,31.77148a6,6,0,1,0,11.1416,4.457l16-40A6.00016,6.00016,0,0,0,184,161.99219Z"/>
</svg>
