<svg id="Flat" xmlns="http://www.w3.org/2000/svg" viewBox="0 0 256 256">
  <path d="M246,127.98438a85.27234,85.27234,0,0,1-17.2002,51.60839,6.00029,6.00029,0,1,1-9.59472-7.208A74.00179,74.00179,0,1,0,86,127.98438a6,6,0,0,1-12,0,85.70058,85.70058,0,0,1,3.90649-25.64429A50.603,50.603,0,0,0,72,101.98438a50,50,0,0,0,0,100H96a6,6,0,0,1,0,12H72A62,62,0,1,1,82.43286,90.86719,85.99346,85.99346,0,0,1,246,127.98438Zm-89.75732-4.24268-.00245-.00195a6.01769,6.01769,0,0,0-.91967-.75122c-.02222-.0149-.04541-.02686-.06787-.04126a5.98771,5.98771,0,0,0-.97168-.51123c-.02515-.01026-.05079-.01783-.07593-.02784a5.95987,5.95987,0,0,0-1.0437-.30908c-.01807-.00366-.03614-.00513-.05445-.0083a5.809,5.809,0,0,0-2.21386,0c-.01831.00317-.03638.00464-.05445.0083a5.95987,5.95987,0,0,0-1.0437.30908c-.02514.01-.05078.01758-.07593.02784a5.98771,5.98771,0,0,0-.97168.51123c-.02246.0144-.04565.02636-.06787.04126a6.01769,6.01769,0,0,0-.91967.75122l-.00245.00195-33.94091,33.94092a6,6,0,1,0,8.48535,8.48535L146,142.46973v65.51465a6,6,0,0,0,12,0V142.46973L181.69824,166.168a6,6,0,1,0,8.48535-8.48535Z"/>
</svg>
