<svg id="Flat" xmlns="http://www.w3.org/2000/svg" viewBox="0 0 256 256">
  <path d="M156,74a74.066,74.066,0,0,0-14.17041,1.36914A69.97949,69.97949,0,0,0,87.7207,11.77441a6.00039,6.00039,0,0,0-7.19043,7.19043A58.33643,58.33643,0,0,1,82,32,58.06551,58.06551,0,0,1,24,90a58.41809,58.41809,0,0,1-13.0376-1.46875,6.00016,6.00016,0,0,0-7.18847,7.19141A70.18764,70.18764,0,0,0,37.0708,140.67261,49.96331,49.96331,0,0,0,76,222h80a74,74,0,0,0,0-148ZM18.22266,101.76367Q21.10107,101.99952,24,102A70.07958,70.07958,0,0,0,94,32q0-2.90772-.23828-5.80273A57.64707,57.64707,0,0,1,129.97607,78.73a74.38235,74.38235,0,0,0-43.65429,44.3374,50.02866,50.02866,0,0,0-40.17969,8.85108A58.2425,58.2425,0,0,1,18.22266,101.76367ZM156,210H76a38,38,0,1,1,7.20068-75.32031A74.21515,74.21515,0,0,0,82,148a6,6,0,0,0,12,0,62,62,0,1,1,62,62Z"/>
</svg>
