<svg id="Flat" xmlns="http://www.w3.org/2000/svg" viewBox="0 0 256 256">
  <path d="M160,42A86.11306,86.11306,0,0,0,82.43213,90.87549,62.00388,62.00388,0,1,0,72,214h88a86,86,0,0,0,0-172Zm0,160H72a50,50,0,0,1,0-100,50.65272,50.65272,0,0,1,5.90674.34521A85.705,85.705,0,0,0,74,128a6,6,0,0,0,12,0,74,74,0,1,1,74,74Zm36.24268-90.24268a5.99989,5.99989,0,0,1,0,8.48536l-48,48a6.00019,6.00019,0,0,1-8.48536,0l-24-24a6.00006,6.00006,0,0,1,8.48536-8.48536L144,155.51465l43.75732-43.75733A6.00078,6.00078,0,0,1,196.24268,111.75732Z"/>
</svg>
