<svg xmlns="http://www.w3.org/2000/svg" viewBox="0 0 256 256"><path d="M156,74a74.3,74.3,0,0,0-14.2,1.4A69.9,69.9,0,0,0,87.7,11.8a5.9,5.9,0,0,0-5.6,1.6A6.3,6.3,0,0,0,80.5,19,56.4,56.4,0,0,1,82,32,58,58,0,0,1,24,90a56.4,56.4,0,0,1-13-1.5,6.2,6.2,0,0,0-5.6,1.6,5.9,5.9,0,0,0-1.6,5.6,70,70,0,0,0,33.3,45A49.9,49.9,0,0,0,76,222h80a74,74,0,0,0,0-148ZM18.2,101.8l5.8.2A70.1,70.1,0,0,0,94,32c0-1.9-.1-3.9-.2-5.8A57.7,57.7,0,0,1,130,78.7a74.6,74.6,0,0,0-43.7,44.4A50.7,50.7,0,0,0,76,122a50.1,50.1,0,0,0-29.9,9.9A58.1,58.1,0,0,1,18.2,101.8ZM156,210H76a38,38,0,0,1,0-76,35.1,35.1,0,0,1,7.2.7A73.1,73.1,0,0,0,82,148a6,6,0,0,0,12,0,62,62,0,1,1,62,62Z"/></svg>