<svg id="Flat" xmlns="http://www.w3.org/2000/svg" viewBox="0 0 256 256">
  <path d="M198.33105,196.44458l-.00878-.00952L95.53394,83.36792l-.03467-.03833L52.43945,35.96387a5.99992,5.99992,0,0,0-8.8789,8.07226L83.7417,88.23535q-.68481,1.31176-1.32275,2.6449A62.00067,62.00067,0,1,0,72,214h88a85.28888,85.28888,0,0,0,32.35034-6.295l11.21021,12.33117a5.99992,5.99992,0,0,0,8.8789-8.07226ZM160,202H72a50,50,0,0,1,0-100,50.57081,50.57081,0,0,1,5.90479.35547A86.18573,86.18573,0,0,0,74,128a6,6,0,0,0,12,0,74.06714,74.06714,0,0,1,6.43628-30.20044l91.219,100.3407A73.56535,73.56535,0,0,1,160,202Zm86-74a85.85921,85.85921,0,0,1-21.84521,57.27393,6.00006,6.00006,0,0,1-8.94922-7.99463A74.00395,74.00395,0,0,0,116.18848,68.35645a6,6,0,1,1-7.11231-9.665A86.00678,86.00678,0,0,1,246,128Z"/>
</svg>
