<svg id="Flat" xmlns="http://www.w3.org/2000/svg" viewBox="0 0 256 256">
  <path d="M246,128a85.34355,85.34355,0,0,1-34.39551,68.80225,6,6,0,0,1-7.207-9.59473A74.00187,74.00187,0,1,0,86,128a6,6,0,0,1-12,0,85.70651,85.70651,0,0,1,3.90625-25.644A49.99723,49.99723,0,1,0,72,202h64a6,6,0,0,1,0,12H72A62,62,0,1,1,82.43262,90.88281,85.99361,85.99361,0,0,1,246,128Zm-98-5a9,9,0,1,0,9,9A9,9,0,0,0,148,123Zm-8,40a9,9,0,1,0,9,9A9,9,0,0,0,140,163Zm40-8a9,9,0,1,0,9,9A9,9,0,0,0,180,155Zm-8,40a9,9,0,1,0,9,9A9,9,0,0,0,172,195Z"/>
</svg>
