<svg xmlns="http://www.w3.org/2000/svg" viewBox="0 0 256 256"><path d="M198.3,196.4h0L95.5,83.4h0L52.4,36a5.9,5.9,0,0,0-8.8,8L83.7,88.2l-1.3,2.7A60,60,0,0,0,72,90a62,62,0,0,0,0,124h88a85.4,85.4,0,0,0,32.4-6.3L203.6,220a5.9,5.9,0,0,0,4.4,2,5.7,5.7,0,0,0,4-1.6,5.8,5.8,0,0,0,.4-8.4ZM160,202H72a50,50,0,0,1,0-100,38.1,38.1,0,0,1,5.9.4A85,85,0,0,0,74,128a6,6,0,0,0,12,0,74.1,74.1,0,0,1,6.4-30.2l91.3,100.3A72.7,72.7,0,0,1,160,202Zm86-74a86.3,86.3,0,0,1-21.8,57.3,6.2,6.2,0,0,1-4.5,2,6,6,0,0,1-4.5-10,74,74,0,0,0-99-108.9,6.1,6.1,0,0,1-8.4-1.3,6,6,0,0,1,1.3-8.4A85.3,85.3,0,0,1,160,42,86.1,86.1,0,0,1,246,128Z"/></svg>