<svg xmlns="http://www.w3.org/2000/svg" viewBox="0 0 256 256"><path d="M190.2,169.8a6.1,6.1,0,0,1,0,8.5l-34,33.9a5.8,5.8,0,0,1-8.4,0l-34-33.9a6,6,0,0,1,8.5-8.5L146,193.5V128a6,6,0,0,1,12,0v65.5l23.7-23.7A6.1,6.1,0,0,1,190.2,169.8ZM160,42A86.2,86.2,0,0,0,82.4,90.9,60,60,0,0,0,72,90a62,62,0,0,0,0,124H96a6,6,0,0,0,0-12H72a50,50,0,0,1,0-100,38.1,38.1,0,0,1,5.9.4A86.7,86.7,0,0,0,74,128a6,6,0,0,0,12,0,74,74,0,0,1,148,0,73.2,73.2,0,0,1-14.8,44.4,6,6,0,1,0,9.6,7.2A85,85,0,0,0,246,128,86.1,86.1,0,0,0,160,42Z"/></svg>