<svg id="Flat" xmlns="http://www.w3.org/2000/svg" viewBox="0 0 256 256">
  <path d="M156,18A74.12829,74.12829,0,0,0,86.32178,67.06738,50.0043,50.0043,0,1,0,76,166h80a74,74,0,0,0,0-148Zm0,136H76a38,38,0,1,1,7.20068-75.31982A74.20563,74.20563,0,0,0,82,92a6,6,0,0,0,12,0,62,62,0,1,1,62,62Zm18,42a10,10,0,1,1-10-10A10.01114,10.01114,0,0,1,174,196Zm-88,0a10,10,0,1,1-10-10A10.01114,10.01114,0,0,1,86,196Zm40,16a10,10,0,1,1-10-10A10.01114,10.01114,0,0,1,126,212ZM78,236a10,10,0,1,1-10-10A10.01114,10.01114,0,0,1,78,236Zm88,0a10,10,0,1,1-10-10A10.01114,10.01114,0,0,1,166,236Z"/>
</svg>
