<svg id="Flat" xmlns="http://www.w3.org/2000/svg" viewBox="0 0 256 256">
  <path d="M160,238H96a6.00023,6.00023,0,0,1-5.72681-7.79l10.73438-34.34375A54.00218,54.00218,0,1,1,76,94q.5409,0,1.08179.01074a53.99988,53.99988,0,1,1,101.83667,0Q179.459,94.0005,180,94a54,54,0,1,1-25.00684,101.86621L165.72681,230.21A6.00023,6.00023,0,0,1,160,238Zm-55.8385-12h47.677l-14.0813-45.05469a6,6,0,0,1,10.28955-5.68652,41.97694,41.97694,0,1,0,22.3656-68.16113,6.0032,6.0032,0,0,1-6.595-9.15039,41.99993,41.99993,0,1,0-71.58935.07421c.03967.06055.07824.1211.11584.1836a6.001,6.001,0,0,1-6.66943,8.91308,42.00573,42.00573,0,1,0,22.27991,68.13965,6.0002,6.0002,0,0,1,10.28955,5.68653Z"/>
</svg>
