<svg xmlns="http://www.w3.org/2000/svg" viewBox="0 0 256 256"><path d="M230,78.7a14.8,14.8,0,0,0-1.8-6.9h-.1a14.1,14.1,0,0,0-5.2-5.1L134.9,17a14.1,14.1,0,0,0-13.8,0l-88,49.5a13.8,13.8,0,0,0-4.9,4.7h0l-.3.4h-.1A13.7,13.7,0,0,0,26,78.7v98.6a14,14,0,0,0,7.1,12.2l88,49.5a14.8,14.8,0,0,0,6.1,1.8h1.6a14.8,14.8,0,0,0,6.1-1.8l88-49.5a14,14,0,0,0,7.1-12.2ZM128.9,121.1,44.3,74,79,54.4l46.1,25.9a5.7,5.7,0,0,0,5.8,0L177,54.4,211.8,74ZM127,27.4l1-.2,1,.2,35.7,20.1L128,68.2,91.3,47.5ZM38,177.3V137.2l36,20.2v41.3L39,179.1A2.2,2.2,0,0,1,38,177.3Zm48,28.2V153.9a6.1,6.1,0,0,0-3.1-5.2L38,123.4V84.2l84.9,47.3-.8,94.3Zm48.1,20.2.8-94.2L218,84.3v39.1l-44.9,25.3a6.1,6.1,0,0,0-3.1,5.2v51.6ZM217,179.1l-35,19.6V157.4l36-20.2v40.1A2.2,2.2,0,0,1,217,179.1Z"/></svg>