<svg xmlns="http://www.w3.org/2000/svg" viewBox="0 0 256 256"><path d="M67.8,92.6,25.4,128l42.4,35.4a5.9,5.9,0,0,1,.8,8.4A5.8,5.8,0,0,1,64,174a5.9,5.9,0,0,1-3.8-1.4l-48-40a5.9,5.9,0,0,1,0-9.2l48-40a6,6,0,0,1,7.6,9.2Zm176,30.8-48-40a6,6,0,0,0-7.6,9.2L230.6,128l-42.4,35.4a5.9,5.9,0,0,0-.8,8.4A5.8,5.8,0,0,0,192,174a5.9,5.9,0,0,0,3.8-1.4l48-40a5.9,5.9,0,0,0,0-9.2Zm-81.7-89a5.9,5.9,0,0,0-7.7,3.5l-64,176a5.9,5.9,0,0,0,3.6,7.7,4.5,4.5,0,0,0,2,.4,5.8,5.8,0,0,0,5.6-3.9l64-176A5.9,5.9,0,0,0,162.1,34.4Z"/></svg>