<svg id="Flat" xmlns="http://www.w3.org/2000/svg" viewBox="0 0 256 256">
  <path d="M67.84131,92.60938,25.37207,128l42.46924,35.39063a6.00017,6.00017,0,0,1-7.68262,9.21875l-48-40a6.00046,6.00046,0,0,1,0-9.21875l48-40a6.00017,6.00017,0,0,1,7.68262,9.21875Zm176,30.78125-48-40a6.00017,6.00017,0,0,0-7.68262,9.21875L230.62793,128l-42.46924,35.39063a6.00017,6.00017,0,0,0,7.68262,9.21875l48-40a6.00046,6.00046,0,0,0,0-9.21875Zm-81.791-89.0293a6.00106,6.00106,0,0,0-7.689,3.58789l-64,176a6,6,0,1,0,11.27734,4.10156l64-176A6.00045,6.00045,0,0,0,162.05029,34.36133Z"/>
</svg>
