<svg id="Flat" xmlns="http://www.w3.org/2000/svg" viewBox="0 0 256 256">
  <path d="M216,74H40a6.00029,6.00029,0,0,0-6,6v72a70.07927,70.07927,0,0,0,70,70h48a70.07892,70.07892,0,0,0,69.75879-64.436A38.05951,38.05951,0,0,0,254,120v-8A38.04323,38.04323,0,0,0,216,74ZM152,210H104a58.06551,58.06551,0,0,1-58-58V86H210v66A58.06551,58.06551,0,0,1,152,210Zm90-90a26.04057,26.04057,0,0,1-20,25.29346V86.70654A26.04057,26.04057,0,0,1,242,112ZM90,48V16a6,6,0,0,1,12,0V48a6,6,0,0,1-12,0Zm32,0V16a6,6,0,0,1,12,0V48a6,6,0,0,1-12,0Zm32,0V16a6,6,0,0,1,12,0V48a6,6,0,0,1-12,0Z"/>
</svg>
