<svg id="Flat" xmlns="http://www.w3.org/2000/svg" viewBox="0 0 256 256">
  <path d="M82,56V24a6,6,0,0,1,12,0V56a6,6,0,0,1-12,0Zm38,6a6.00029,6.00029,0,0,0,6-6V24a6,6,0,0,0-12,0V56A6.00029,6.00029,0,0,0,120,62Zm32,0a6.00029,6.00029,0,0,0,6-6V24a6,6,0,0,0-12,0V56A6.00029,6.00029,0,0,0,152,62Zm94,58v8a38.03763,38.03763,0,0,1-36.93848,37.97314A94.59645,94.59645,0,0,1,177.93262,210H208a6,6,0,0,1,0,12H156.81006c-.03418.00049-.06885.00537-.10352.00537-.02588,0-.05127-.00488-.07715-.00537H83.24365c-.05469-.00049-.10937.00195-.16406,0H32a6,6,0,0,1,0-12H62.06738A94.33311,94.33311,0,0,1,26,136V88a6.00029,6.00029,0,0,1,6-6H208A38.04323,38.04323,0,0,1,246,120Zm-47.23682,38.71484a5.93785,5.93785,0,0,1,.17139-.61718A81.51107,81.51107,0,0,0,202,136V94H38v42a82.27241,82.27241,0,0,0,46.65674,74h70.68652A82.31886,82.31886,0,0,0,198.76318,158.71484ZM234,120a26.04057,26.04057,0,0,0-20-25.29346V136a93.34711,93.34711,0,0,1-1.69092,17.63623A26.03728,26.03728,0,0,0,234,128Z"/>
</svg>
