<svg xmlns="http://www.w3.org/2000/svg" viewBox="0 0 256 256"><path d="M224.6,103.8c-11.2-6.1-26.1-10.4-42.6-12.5V84c0-12.1-9.6-23.1-27-30.9C139.2,45.9,118.2,42,96,42S52.8,45.9,37,53.1C19.6,60.9,10,71.9,10,84v40c0,12.1,9.6,23.1,27,30.9a130.8,130.8,0,0,0,37,9.8V172c0,12.1,9.6,23.1,27,30.9,15.8,7.2,36.8,11.1,59,11.1s43.2-3.9,59-11.1c17.4-7.8,27-18.8,27-30.9V132C246,121.3,238.4,111.3,224.6,103.8Zm-5.8,10.5c9.8,5.4,15.2,11.6,15.2,17.7,0,14.2-30.4,30-74,30a182.8,182.8,0,0,1-21.2-1.3,102.7,102.7,0,0,0,16.2-5.8c17.4-7.8,27-18.8,27-30.9V103.4C196.4,105.4,209.3,109.2,218.8,114.3Zm-138.1,39h-.3c-3.6-.3-7.1-.8-10.4-1.3V124.1A181.7,181.7,0,0,0,96,126a181.7,181.7,0,0,0,26-1.9V152a162.5,162.5,0,0,1-26,2A151.1,151.1,0,0,1,80.7,153.3ZM170,105.9V124c0,9.5-13.7,19.8-36,25.5V121.8a105.6,105.6,0,0,0,21-6.9A62.7,62.7,0,0,0,170,105.9ZM96,54c43.6,0,74,15.8,74,30s-30.4,30-74,30S22,98.2,22,84,52.4,54,96,54ZM22,124V105.9a62.7,62.7,0,0,0,15,9,105.6,105.6,0,0,0,21,6.9v27.7C35.7,143.8,22,133.5,22,124Zm64,48v-6.3c3.3.2,6.6.3,10,.3s7.8-.1,11.7-.4a95.9,95.9,0,0,0,14.3,4.2v27.7C99.7,191.8,86,181.5,86,172Zm48,28V172.1a182.8,182.8,0,0,0,26,1.9,181.7,181.7,0,0,0,26-1.9V200a170,170,0,0,1-52,0Zm64-2.5V169.8a105.6,105.6,0,0,0,21-6.9,62.7,62.7,0,0,0,15-9V172C234,181.5,220.3,191.8,198,197.5Z"/></svg>