<svg id="Flat" xmlns="http://www.w3.org/2000/svg" viewBox="0 0 256 256">
  <path d="M206.68359,65.63379C186.22852,55.40625,159.02051,50,128,50S69.77148,55.40625,49.31641,65.63379C29.41406,75.585,18,89.56836,18,104v48c0,14.43164,11.41406,28.415,31.31641,38.36621C69.77148,200.59375,96.97949,206,128,206s58.22852-5.40625,78.68359-15.63379C226.58594,180.415,238,166.43164,238,152V104C238,89.56836,226.58594,75.585,206.68359,65.63379Zm-152,10.73242C73.21191,67.10254,99.25,62,128,62s54.78809,5.10254,73.31641,14.36621C217.00293,84.21,226,94.28223,226,104s-8.99707,19.79-24.68359,27.63379C182.78809,140.89746,156.75,146,128,146s-54.78809-5.10254-73.31641-14.36621C38.99707,123.79,30,113.71777,30,104S38.99707,84.21,54.68359,76.36621ZM122,157.9292V193.919c-19.23584-.48243-37.0708-3.27881-52-8.10547V150.40527C85.27148,154.93164,102.84521,157.48926,122,157.9292Zm12,0c19.15479-.43994,36.72852-2.99756,52-7.52393v35.40821c-14.9292,4.82666-32.76416,7.623-52,8.10547ZM30,152V129.01123a75.93662,75.93662,0,0,0,19.31641,13.355c2.76953,1.38477,5.67334,2.67334,8.68359,3.87988v34.96c-1.12842-.51123-2.23779-1.0332-3.31641-1.57226C38.99707,171.79,30,161.71777,30,152Zm171.31641,27.63379c-1.07862.53906-2.188,1.061-3.31641,1.57226v-34.96c3.01025-1.20654,5.91406-2.49511,8.68359-3.87988A75.93662,75.93662,0,0,0,226,129.01123V152C226,161.71777,217.00293,171.79,201.31641,179.63379Z"/>
</svg>
