<svg xmlns="http://www.w3.org/2000/svg" viewBox="0 0 256 256"><path d="M206.7,65.6C186.2,55.4,159,50,128,50S69.8,55.4,49.3,65.6,18,89.6,18,104v48c0,14.4,11.4,28.4,31.3,38.4S97,206,128,206s58.2-5.4,78.7-15.6S238,166.4,238,152V104C238,89.6,226.6,75.6,206.7,65.6ZM54.7,76.4C73.2,67.1,99.2,62,128,62s54.8,5.1,73.3,14.4C217,84.2,226,94.3,226,104s-9,19.8-24.7,27.6C182.8,140.9,156.8,146,128,146s-54.8-5.1-73.3-14.4C39,123.8,30,113.7,30,104S39,84.2,54.7,76.4ZM122,157.9v36c-19.2-.5-37.1-3.3-52-8.1V150.4C85.3,154.9,102.8,157.5,122,157.9Zm12,0c19.2-.4,36.7-3,52-7.5v35.4c-14.9,4.8-32.8,7.6-52,8.1ZM30,152V129a76.3,76.3,0,0,0,19.3,13.4c2.8,1.4,5.7,2.6,8.7,3.8v35l-3.3-1.6C39,171.8,30,161.7,30,152Zm171.3,27.6-3.3,1.6v-35c3-1.2,5.9-2.4,8.7-3.8A76.3,76.3,0,0,0,226,129v23C226,161.7,217,171.8,201.3,179.6Z"/></svg>