<svg id="Flat" xmlns="http://www.w3.org/2000/svg" viewBox="0 0 256 256">
  <path d="M104,34H56A14.01572,14.01572,0,0,0,42,48V208a14.01572,14.01572,0,0,0,14,14h48a14.01572,14.01572,0,0,0,14-14V48A14.01572,14.01572,0,0,0,104,34Zm2,174a2.0026,2.0026,0,0,1-2,2H56a2.0026,2.0026,0,0,1-2-2V48a2.0026,2.0026,0,0,1,2-2h48a2.0026,2.0026,0,0,1,2,2ZM200,34H152a14.01572,14.01572,0,0,0-14,14V208a14.01572,14.01572,0,0,0,14,14h48a14.01572,14.01572,0,0,0,14-14V48A14.01572,14.01572,0,0,0,200,34Zm2,174a2.0026,2.0026,0,0,1-2,2H152a2.0026,2.0026,0,0,1-2-2V48a2.0026,2.0026,0,0,1,2-2h48a2.0026,2.0026,0,0,1,2,2Z"/>
</svg>
