<svg id="Flat" xmlns="http://www.w3.org/2000/svg" viewBox="0 0 256 256">
  <path d="M166,72a6.00029,6.00029,0,0,1-6,6H96a6,6,0,0,1,0-12h64A6.00029,6.00029,0,0,1,166,72Zm-6,26H96a6,6,0,0,0,0,12h64a6,6,0,0,0,0-12Zm-32,72a10,10,0,1,0,10,10A10.01146,10.01146,0,0,0,128,170ZM206,40V216a14.01572,14.01572,0,0,1-14,14H64a14.01572,14.01572,0,0,1-14-14V40A14.01572,14.01572,0,0,1,64,26H192A14.01572,14.01572,0,0,1,206,40Zm-12,0a2.00229,2.00229,0,0,0-2-2H64a2.00229,2.00229,0,0,0-2,2V216a2.00229,2.00229,0,0,0,2,2H192a2.00229,2.00229,0,0,0,2-2Z"/>
</svg>
