<svg id="Flat" xmlns="http://www.w3.org/2000/svg" viewBox="0 0 256 256">
  <path d="M127.99975,26a102,102,0,1,0,102,102A102.1153,102.1153,0,0,0,127.99975,26Zm0,192a90,90,0,1,1,90-90A90.10218,90.10218,0,0,1,127.99975,218ZM173.29858,74.5874l-64.86426,31.02979a5.99456,5.99456,0,0,0-2.873,2.92968L77.2771,170.772a5.99929,5.99929,0,0,0,7.94433,7.94483L147.447,150.43262a5.99965,5.99965,0,0,0,2.93555-2.88379l30.92285-64.97022a6.00011,6.00011,0,0,0-8.00684-7.99121ZM140.488,140.41455,94.822,161.17187,115.58178,115.5l47.60254-22.772Z"/>
</svg>
