<svg xmlns="http://www.w3.org/2000/svg" viewBox="0 0 256 256"><path d="M109.1,52.6a14,14,0,0,0-23,5.2l-53.9,148a14,14,0,0,0,13.1,18.8,14,14,0,0,0,4.9-.8l148-53.9a14,14,0,0,0,5.2-23Zm-5.2,138.9L64.5,152.1l14.7-40.4,65.1,65.1Zm-57.8,21a2.1,2.1,0,0,1-2.6-2.6L60,164.5,91.5,196Zm149.3-55.3a2.2,2.2,0,0,1-1.3,1.5l-37.4,13.6-73-73L97.3,61.9a2.2,2.2,0,0,1,1.5-1.3,2,2,0,0,1,1.8.5l94.3,94.3A2,2,0,0,1,195.4,157.2ZM162,72a35.8,35.8,0,0,1,3.6-14.7c5-9.9,14.3-15.3,26.4-15.3,7.5,0,12.5-2.7,15.5-8.4A24.4,24.4,0,0,0,210,24a6,6,0,0,1,6-6h0a6,6,0,0,1,6,6c0,10.4-6.3,30-30,30-7.5,0-12.5,2.7-15.5,8.4A24.4,24.4,0,0,0,174,72a6,6,0,0,1-6,6h0A6,6,0,0,1,162,72ZM138,40V16a6,6,0,0,1,12,0V40a6,6,0,0,1-12,0Zm98.2,83.8a5.9,5.9,0,1,1-8.4,8.4l-16-16a5.9,5.9,0,0,1,8.4-8.4Zm5.7-46.1-24,8a6.3,6.3,0,0,1-1.9.3,6,6,0,0,1-5.7-4.1,6.1,6.1,0,0,1,3.8-7.6l24-8a6,6,0,0,1,3.8,11.4Z"/></svg>