<svg id="Flat" xmlns="http://www.w3.org/2000/svg" viewBox="0 0 256 256">
  <path d="M224.69629,116.46387a13.94022,13.94022,0,0,0-11.77832-2.69922,25.9935,25.9935,0,0,1-31.71631-25.07031,13.95983,13.95983,0,0,0-13.895-13.89649,25.993,25.993,0,0,1-25.07129-31.7168,14.013,14.013,0,0,0-13.62256-17.07519A101.99944,101.99944,0,1,0,229.99463,127.374,13.98454,13.98454,0,0,0,224.69629,116.46387Zm-33.11377,75.2334c-34.60547,34.543-91.2666,34.92285-126.30762.84375A89.996,89.996,0,0,1,127.98145,38.00391c.186,0,.37353.001.55957.002a2.02635,2.02635,0,0,1,1.60449.77148,1.95741,1.95741,0,0,1,.38183,1.67481,37.9945,37.9945,0,0,0,36.64844,46.3457,2.035,2.035,0,0,1,2.02686,2.02637,37.99361,37.99361,0,0,0,46.34472,36.64941,1.97277,1.97277,0,0,1,1.67969.38282,2.01291,2.01291,0,0,1,.76758,1.59179A89.34969,89.34969,0,0,1,191.58252,191.69727ZM163.071,164.92871a10.00014,10.00014,0,1,1-14.14208,0A10.00047,10.00047,0,0,1,163.071,164.92871Zm-64-8a10.00014,10.00014,0,1,1-14.14208,0A10.00047,10.00047,0,0,1,99.071,156.92871ZM76.929,115.07129a10.00014,10.00014,0,1,1,14.14208,0A10.00047,10.00047,0,0,1,76.929,115.07129Zm66.14208,16a10.00014,10.00014,0,1,1,0-14.14258A9.99988,9.99988,0,0,1,143.071,131.07129Z"/>
</svg>
