<svg id="Flat" xmlns="http://www.w3.org/2000/svg" viewBox="0 0 256 256">
  <path d="M90,48V16a6,6,0,0,1,12,0V48a6,6,0,0,1-12,0Zm38,6a6.00029,6.00029,0,0,0,6-6V16a6,6,0,0,0-12,0V48A6.00029,6.00029,0,0,0,128,54Zm32,0a6.00029,6.00029,0,0,0,6-6V16a6,6,0,0,0-12,0V48A6.00029,6.00029,0,0,0,160,54Zm91.6001,46.7998L222,123v61a30.03406,30.03406,0,0,1-30,30H64a30.03406,30.03406,0,0,1-30-30V123L4.3999,100.7998a5.9999,5.9999,0,0,1,7.2002-9.5996L34,108V88A14.01572,14.01572,0,0,1,48,74H208a14.01572,14.01572,0,0,1,14,14v20l22.3999-16.7998a5.9999,5.9999,0,1,1,7.2002,9.5996ZM210,88a2.0026,2.0026,0,0,0-2-2H48a2.0026,2.0026,0,0,0-2,2v96a18.02031,18.02031,0,0,0,18,18H192a18.02031,18.02031,0,0,0,18-18Z"/>
</svg>
