<svg xmlns="http://www.w3.org/2000/svg" viewBox="0 0 256 256"><path d="M224.7,116.5a13.5,13.5,0,0,0-11.8-2.7,26,26,0,0,1-31.7-25.1,14,14,0,0,0-13.9-13.9,26,26,0,0,1-25.1-31.7,13.5,13.5,0,0,0-2.7-11.8A13.9,13.9,0,0,0,128.6,26,102.1,102.1,0,0,0,26,128.7a102,102,0,0,0,204-1.3A13.9,13.9,0,0,0,224.7,116.5Zm-33.1,75.2c-34.6,34.5-91.3,34.9-126.3.8A90,90,0,0,1,128,38h.5a1.9,1.9,0,0,1,1.6.8,1.7,1.7,0,0,1,.4,1.7,38,38,0,0,0,36.7,46.3,2,2,0,0,1,2,2,38,38,0,0,0,46.3,36.7,1.7,1.7,0,0,1,1.7.4,1.8,1.8,0,0,1,.8,1.5A89.6,89.6,0,0,1,191.6,191.7Zm-28.5-26.8a10,10,0,1,1-14.2,0A10.1,10.1,0,0,1,163.1,164.9Zm-64-8a10,10,0,1,1-14.2,0A10.1,10.1,0,0,1,99.1,156.9ZM76.9,115.1a10,10,0,1,1,14.2,0A10.1,10.1,0,0,1,76.9,115.1Zm66.2,16a10,10,0,1,1,0-14.2A10.1,10.1,0,0,1,143.1,131.1Z"/></svg>