<svg id="Flat" xmlns="http://www.w3.org/2000/svg" viewBox="0 0 256 256">
  <path d="M156,94H100a6.00029,6.00029,0,0,0-6,6v56a6.00029,6.00029,0,0,0,6,6h56a6.00029,6.00029,0,0,0,6-6V100A6.00029,6.00029,0,0,0,156,94Zm-6,56H106V106h44Zm82-4H214V110h18a6,6,0,0,0,0-12H214V56a14.01572,14.01572,0,0,0-14-14H158V24a6,6,0,0,0-12,0V42H110V24a6,6,0,0,0-12,0V42H56A14.01572,14.01572,0,0,0,42,56V98H24a6,6,0,0,0,0,12H42v36H24a6,6,0,0,0,0,12H42v42a14.01572,14.01572,0,0,0,14,14H98v18a6,6,0,0,0,12,0V214h36v18a6,6,0,0,0,12,0V214h42a14.01572,14.01572,0,0,0,14-14V158h18a6,6,0,0,0,0-12Zm-30,54a2.0026,2.0026,0,0,1-2,2H56a2.0026,2.0026,0,0,1-2-2V56a2.0026,2.0026,0,0,1,2-2H200a2.0026,2.0026,0,0,1,2,2Z"/>
</svg>
