<svg id="Flat" xmlns="http://www.w3.org/2000/svg" viewBox="0 0 256 256">
  <path d="M224,50H32A14.01572,14.01572,0,0,0,18,64V96.73682c-.00073.03857-.00586.07666-.00586.11572s.00513.07715.00586.11572V192a14.01572,14.01572,0,0,0,14,14H224a14.01572,14.01572,0,0,0,14-14V64A14.01572,14.01572,0,0,0,224,50ZM32,62H224a2.00229,2.00229,0,0,1,2,2V90.85254H30V64A2.00229,2.00229,0,0,1,32,62ZM224,194H32a2.00229,2.00229,0,0,1-2-2V102.85254H226V192A2.00229,2.00229,0,0,1,224,194Zm-18.00586-26a6.00029,6.00029,0,0,1-6,6h-32a6,6,0,0,1,0-12h32A6.00029,6.00029,0,0,1,205.99414,168Zm-64,0a6.00029,6.00029,0,0,1-6,6h-16a6,6,0,0,1,0-12h16A6.00029,6.00029,0,0,1,141.99414,168Z"/>
</svg>
