<svg xmlns="http://www.w3.org/2000/svg" viewBox="0 0 256 256"><path d="M236,122H221.8A94.1,94.1,0,0,0,134,34.2V20a6,6,0,0,0-12,0V34.2A94.1,94.1,0,0,0,34.2,122H20a6,6,0,0,0,0,12H34.2A94.1,94.1,0,0,0,122,221.8V236a6,6,0,0,0,12,0V221.8A94.1,94.1,0,0,0,221.8,134H236a6,6,0,0,0,0-12ZM134,209.8V196a6,6,0,0,0-12,0v13.8A82.3,82.3,0,0,1,46.2,134H60a6,6,0,0,0,0-12H46.2A82.3,82.3,0,0,1,122,46.2V60a6,6,0,0,0,12,0V46.2A82.3,82.3,0,0,1,209.8,122H196a6,6,0,0,0,0,12h13.8A82.3,82.3,0,0,1,134,209.8ZM128,90a38,38,0,1,0,38,38A38,38,0,0,0,128,90Zm0,64a26,26,0,1,1,26-26A26.1,26.1,0,0,1,128,154Z"/></svg>