<svg xmlns="http://www.w3.org/2000/svg" viewBox="0 0 256 256"><path d="M237.5,75.1a14.1,14.1,0,0,0-14.7-2L172.3,95.5a1.9,1.9,0,0,1-2.6-.8l-29.5-53a13.9,13.9,0,0,0-24.4,0l-29.5,53a1.9,1.9,0,0,1-2.6.8L33.2,73.1a14,14,0,0,0-19.4,16L39.3,197.4a13.9,13.9,0,0,0,6.5,8.8,13.6,13.6,0,0,0,7.1,2,15.8,15.8,0,0,0,3.8-.5,267.9,267.9,0,0,1,142.5-.1,14,14,0,0,0,17.5-10.2L242.1,89.1A13.8,13.8,0,0,0,237.5,75.1Zm-7,11.2L205,194.6a2.3,2.3,0,0,1-.9,1.3,2.5,2.5,0,0,1-1.6.2,279.8,279.8,0,0,0-149,0,2,2,0,0,1-2.5-1.5h0L25.5,86.3a2.1,2.1,0,0,1,2-2.5l.8.2,50.6,22.5a13.9,13.9,0,0,0,17.9-6l29.5-53a1.9,1.9,0,0,1,3.4,0l29.5,53a13.9,13.9,0,0,0,17.9,6L227.7,84a2,2,0,0,1,2.1.3A2,2,0,0,1,230.5,86.3Z"/></svg>