<svg xmlns="http://www.w3.org/2000/svg" viewBox="0 0 256 256"><path d="M228.2,71.8h-.1a13.4,13.4,0,0,0-5.2-5.1L134.9,17a14.1,14.1,0,0,0-13.8,0l-88,49.5a13.4,13.4,0,0,0-5.2,5.1h-.1A13.7,13.7,0,0,0,26,78.7v98.6a14,14,0,0,0,7.1,12.2l88,49.5a14.8,14.8,0,0,0,6.1,1.8h1.7a14.8,14.8,0,0,0,6-1.8l88-49.5a14,14,0,0,0,7.1-12.2V78.7A14.5,14.5,0,0,0,228.2,71.8ZM127,27.4l1-.2,1,.2L211.8,74l-82.9,47.1L44.3,74ZM39,179.1a2.2,2.2,0,0,1-1-1.8V84.2l84.9,47.3-.8,94.3Zm178,0-82.9,46.6.8-94.2L218,84.3v93A2.2,2.2,0,0,1,217,179.1Z"/></svg>