<svg id="Flat" xmlns="http://www.w3.org/2000/svg" viewBox="0 0 256 256">
  <path d="M228.16748,71.769c-.019-.03515-.03369-.07153-.05322-.10644-.00879-.01514-.019-.02832-.02783-.04322a13.991,13.991,0,0,0-5.22266-5.14282l-88-49.5a14.0795,14.0795,0,0,0-13.72754,0l-88,49.5a13.993,13.993,0,0,0-5.23291,5.16187c-.01172.02026-.02539.03857-.03711.05908-.01807.03271-.03125.06689-.04883.09985A13.98242,13.98242,0,0,0,26,78.67871v98.64258a14.01793,14.01793,0,0,0,7.13623,12.20215l88.00049,49.5a13.94541,13.94541,0,0,0,6.03564,1.73364,6.02439,6.02439,0,0,0,.78516.06421h.0542a5.9804,5.9804,0,0,0,.84131-.06592,13.94842,13.94842,0,0,0,6.01074-1.73193l88-49.5A14.01793,14.01793,0,0,0,230,177.32129V78.67871A13.98559,13.98559,0,0,0,228.16748,71.769Zm-101.148-44.33349a2.0132,2.0132,0,0,1,1.96094,0l82.82715,46.59033L128.91992,121.116,44.28418,73.97412Zm-88,151.6289A2.002,2.002,0,0,1,38,177.32129V84.21l84.918,47.29858-.82861,94.283Zm177.96094,0-82.88965,46.62574.82764-94.18091L218,84.30933v93.012A2.002,2.002,0,0,1,216.98047,179.06445Z"/>
</svg>
