<svg id="Flat" xmlns="http://www.w3.org/2000/svg" viewBox="0 0 256 256">
  <path d="M240,146H208.41309l8.125-20H240a6,6,0,0,0,0-12H221.41309l16.1455-39.74219a5.99964,5.99964,0,1,0-11.11718-4.51562L208.46143,114H151.53857l-17.98-44.25781a5.99942,5.99942,0,0,0-11.11718,0L104.46143,114H47.53857l-17.98-44.25781a5.99964,5.99964,0,0,0-11.11718,4.51562L34.58691,114H16a6,6,0,0,0,0,12H39.46191l8.125,20H16a6,6,0,0,0,0,12H52.46191l17.9795,44.25781a5.99942,5.99942,0,0,0,11.11718,0L99.53857,158h56.92286l17.98,44.25781a5.99942,5.99942,0,0,0,11.11718,0L203.53809,158H240a6,6,0,0,0,0-12Zm-36.41357-20-8.125,20H164.53857l-8.125-20ZM128,87.94141,138.58643,114H117.41357ZM52.41357,126H99.58643l-8.125,20H60.53857ZM76,184.05859,65.41357,158H86.58643ZM104.41357,146l8.125-20h30.92286l8.125,20ZM180,184.05859,169.41357,158h21.17286Z"/>
</svg>
