<svg id="Flat" xmlns="http://www.w3.org/2000/svg" viewBox="0 0 256 256">
  <path d="M240,130H214.91309l22.6455-55.74219a5.99964,5.99964,0,1,0-11.11718-4.51562L201.96143,130H158.03857l-24.48-60.25781a5.99942,5.99942,0,0,0-11.11718,0L97.96143,130H54.03857l-24.48-60.25781a5.99964,5.99964,0,0,0-11.11718,4.51562L41.08691,130H16a6,6,0,0,0,0,12H45.96191l24.4795,60.25781a5.99942,5.99942,0,0,0,11.11718,0L106.03857,142h43.92286l24.48,60.25781a5.99942,5.99942,0,0,0,11.11718,0L210.03809,142H240a6,6,0,0,0,0-12ZM76,184.05859,58.91357,142H93.08643ZM110.91357,130,128,87.94141,145.08643,130ZM180,184.05859,162.91357,142h34.17286Z"/>
</svg>
