<svg id="Flat" xmlns="http://www.w3.org/2000/svg" viewBox="0 0 256 256">
  <path d="M128,26C75.28955,26,34,49.71973,34,80v96c0,30.28027,41.28955,54,94,54s94-23.71973,94-54V80C222,49.71973,180.71045,26,128,26Zm0,12c44.44873,0,82,19.2334,82,42s-37.55127,42-82,42S46,102.7666,46,80,83.55127,38,128,38Zm82,138c0,22.7666-37.55127,42-82,42s-82-19.2334-82-42V154.78955C61.96948,171.1626,92.37378,182,128,182s66.03052-10.8374,82-27.21045Zm0-48c0,22.7666-37.55127,42-82,42s-82-19.2334-82-42V106.78955C61.96948,123.1626,92.37378,134,128,134s66.03052-10.8374,82-27.21045Z"/>
</svg>
