<svg id="Flat" xmlns="http://www.w3.org/2000/svg" viewBox="0 0 256 256">
  <path d="M22,96v72a10.01146,10.01146,0,0,0,10,10h80a6,6,0,0,1,0,12H94v20h18a6,6,0,0,1,0,12H64a6,6,0,0,1,0-12H82V190H32a22.02489,22.02489,0,0,1-22-22V96A22.02489,22.02489,0,0,1,32,74h80a6,6,0,0,1,0,12H32A10.01146,10.01146,0,0,0,22,96ZM208,66H176a6,6,0,0,0,0,12h32a6,6,0,0,0,0-12Zm0,32H176a6,6,0,0,0,0,12h32a6,6,0,0,0,0-12Zm38-50V208a14.01572,14.01572,0,0,1-14,14H152a14.01572,14.01572,0,0,1-14-14V48a14.01572,14.01572,0,0,1,14-14h80A14.01572,14.01572,0,0,1,246,48Zm-12,0a2.00229,2.00229,0,0,0-2-2H152a2.00229,2.00229,0,0,0-2,2V208a2.00229,2.00229,0,0,0,2,2h80a2.00229,2.00229,0,0,0,2-2ZM192,170a10,10,0,1,0,10,10A10.01146,10.01146,0,0,0,192,170Z"/>
</svg>
