<svg xmlns="http://www.w3.org/2000/svg" viewBox="0 0 256 256"><path d="M180,146a34.1,34.1,0,0,0-33.5,28h-37a34,34,0,1,0,0,12h37A34,34,0,1,0,180,146ZM76,202a22,22,0,1,1,22-22A22.1,22.1,0,0,1,76,202Zm104,0a22,22,0,1,1,22-22A22.1,22.1,0,0,1,180,202Zm68-88H219.1L171.6,46.2a13.8,13.8,0,0,0-11.6-6,14.1,14.1,0,0,0-11.5,6.2L129.7,74.7a2.1,2.1,0,0,1-3.4,0L107.5,46.4A14.1,14.1,0,0,0,96,40.2a13.8,13.8,0,0,0-11.6,6L36.9,114H8a6,6,0,0,0,0,12H248a6,6,0,0,0,0-12ZM94.2,53a2.1,2.1,0,0,1,1.7-.8,1.8,1.8,0,0,1,1.6.9l18.9,28.2a13.8,13.8,0,0,0,23.2,0l18.9-28.2a1.8,1.8,0,0,1,1.6-.9,2.1,2.1,0,0,1,1.7.8l42.7,61H51.5Z"/></svg>