<svg id="Flat" xmlns="http://www.w3.org/2000/svg" viewBox="0 0 256 256">
  <path d="M128,242.67969a13.95724,13.95724,0,0,1-9.89941-4.09375h-.00013L17.41418,137.89941a13.99975,13.99975,0,0,1,.00013-19.79882L118.10046,17.41406a14.01688,14.01688,0,0,1,19.79895,0L238.58594,118.10059a14.00019,14.00019,0,0,1,0,19.79882L137.89954,238.58594A13.95776,13.95776,0,0,1,128,242.67969Zm-1.41431-12.5791a2.00343,2.00343,0,0,0,2.82862,0L230.10059,129.41406a2.00193,2.00193,0,0,0,0-2.82812L129.41418,25.89941a2.00238,2.00238,0,0,0-2.82849,0L25.89954,126.58594a1.99971,1.99971,0,0,0-.00013,2.82812L126.58582,230.10059Z"/>
</svg>
