<svg xmlns="http://www.w3.org/2000/svg" viewBox="0 0 256 256"><path d="M118.1,102.6a14,14,0,0,0,19.8,0l28.7-28.7a14.1,14.1,0,0,0,0-19.8L137.9,25.4a14,14,0,0,0-19.8,0L89.4,54.1a14.1,14.1,0,0,0,0,19.8Zm-20.2-40,28.7-28.7a1.9,1.9,0,0,1,2.8,0l28.7,28.7a1.9,1.9,0,0,1,0,2.8L129.4,94.1a1.9,1.9,0,0,1-2.8,0h0L97.9,65.4A1.9,1.9,0,0,1,97.9,62.6Zm132.7,55.5L201.9,89.4a14,14,0,0,0-19.8,0l-28.7,28.7a14.1,14.1,0,0,0,0,19.8l28.7,28.7a14,14,0,0,0,19.8,0l28.7-28.7A14.1,14.1,0,0,0,230.6,118.1Zm-8.5,11.3-28.7,28.7a1.9,1.9,0,0,1-2.8,0h0l-28.7-28.7a1.9,1.9,0,0,1,0-2.8l28.7-28.7a1.9,1.9,0,0,1,2.8,0l28.7,28.7A1.9,1.9,0,0,1,222.1,129.4ZM102.6,118.1,73.9,89.4a14,14,0,0,0-19.8,0L25.4,118.1a14.1,14.1,0,0,0,0,19.8l28.7,28.7a14,14,0,0,0,19.8,0l28.7-28.7A14.1,14.1,0,0,0,102.6,118.1Zm-8.5,11.3L65.4,158.1a1.9,1.9,0,0,1-2.8,0h0L33.9,129.4a1.9,1.9,0,0,1,0-2.8L62.6,97.9a1.9,1.9,0,0,1,2.8,0l28.7,28.7A1.9,1.9,0,0,1,94.1,129.4Zm43.8,24a14,14,0,0,0-19.8,0L89.4,182.1a14.1,14.1,0,0,0,0,19.8l28.7,28.7a14,14,0,0,0,19.8,0l28.7-28.7a14.1,14.1,0,0,0,0-19.8Zm20.2,40-28.7,28.7a1.9,1.9,0,0,1-2.8,0h0L97.9,193.4a1.9,1.9,0,0,1,0-2.8l28.7-28.7a1.9,1.9,0,0,1,2.8,0l28.7,28.7A1.9,1.9,0,0,1,158.1,193.4Z"/></svg>