<svg id="Flat" xmlns="http://www.w3.org/2000/svg" viewBox="0 0 256 256">
  <path d="M234.58594,118.10059,137.89941,21.41406a14.01672,14.01672,0,0,0-19.79882,0L21.41406,118.10059a13.99961,13.99961,0,0,0,0,19.79882l96.68653,96.68653h0a14.01614,14.01614,0,0,0,19.79882,0l96.68653-96.68653a13.99961,13.99961,0,0,0,0-19.79882Zm-8.48535,11.31347-96.68653,96.68653a2.00282,2.00282,0,0,1-2.82812,0h0L29.89941,129.41406a1.99928,1.99928,0,0,1,0-2.82812l96.68653-96.68653a2.00193,2.00193,0,0,1,2.82812,0l96.68653,96.68653A2.00193,2.00193,0,0,1,226.10059,129.41406Z"/>
</svg>
