<svg id="Flat" xmlns="http://www.w3.org/2000/svg" viewBox="0 0 256 256">
  <path d="M192,34H64A30.03406,30.03406,0,0,0,34,64V192a30.03406,30.03406,0,0,0,30,30H192a30.03406,30.03406,0,0,0,30-30V64A30.03406,30.03406,0,0,0,192,34Zm18,158a18.02063,18.02063,0,0,1-18,18H64a18.02063,18.02063,0,0,1-18-18V64A18.02063,18.02063,0,0,1,64,46H192a18.02063,18.02063,0,0,1,18,18ZM101,128a9,9,0,1,1-9-9A9,9,0,0,1,101,128Zm72-44a9,9,0,1,1-9-9A9,9,0,0,1,173,84Zm0,88a9,9,0,1,1-9-9A9,9,0,0,1,173,172Zm0-44a9,9,0,1,1-9-9A9,9,0,0,1,173,128ZM101,84a9,9,0,1,1-9-9A9,9,0,0,1,101,84Zm0,88a9,9,0,1,1-9-9A9,9,0,0,1,101,172Z"/>
</svg>
