<svg id="Flat" xmlns="http://www.w3.org/2000/svg" viewBox="0 0 256 256">
  <path d="M106,144a10,10,0,1,1-10-10A9.99987,9.99987,0,0,1,106,144Zm54-10a10,10,0,1,0,10,10A9.99987,9.99987,0,0,0,160,134Zm81.09668,51.02539c-16.33594,14.19922-38.33252,24.97071-63.61133,31.15039a13.88027,13.88027,0,0,1-15.78271-7.35351L151.583,188.58352A196.741,196.741,0,0,1,128,190a196.741,196.741,0,0,1-23.583-1.4165L94.29736,208.82229a13.87961,13.87961,0,0,1-15.78222,7.35351c-25.2793-6.17968-47.27539-16.95117-63.61133-31.15039a14.08551,14.08551,0,0,1-4.28272-14.64258L44.59473,57.13674a13.96608,13.96608,0,0,1,8.08545-8.93164,182.1191,182.1191,0,0,1,30.67724-9.5A13.9989,13.9989,0,0,1,99.64355,47.958L106.064,67.21828a198.09975,198.09975,0,0,1,43.87208,0L156.35645,47.958a14.00322,14.00322,0,0,1,16.28564-9.25293,182.15719,182.15719,0,0,1,30.6792,9.501,13.96,13.96,0,0,1,8.084,8.93066l33.97412,113.24707A14.08536,14.08536,0,0,1,241.09668,185.02541Zm-7.21094-11.19336L199.91113,60.584a2.01071,2.01071,0,0,0-1.167-1.28516,170.04753,170.04753,0,0,0-28.65234-8.86719,2.017,2.017,0,0,0-2.35157,1.32129L161.999,68.97707a162.8217,162.8217,0,0,1,21.4502,5.31592,5.99988,5.99988,0,1,1-3.70313,11.41406C164.20752,80.66506,146.314,78,128,78c-18.31152,0-36.20508,2.665-51.74658,7.707A5.99987,5.99987,0,1,1,72.55029,74.293,162.86733,162.86733,0,0,1,94.001,68.97756L88.25977,51.753a2.01945,2.01945,0,0,0-2.35254-1.32129,170.10816,170.10816,0,0,0-28.64991,8.86621A2.01432,2.01432,0,0,0,56.08838,60.585L22.11475,173.83108a2.06707,2.06707,0,0,0,.66162,2.13769C37.6748,188.919,57.93457,198.791,81.36475,204.51955a1.976,1.976,0,0,0,2.1997-1.06445l8.40186-16.80371a161.283,161.283,0,0,1-19.41553-4.94434A5.99995,5.99995,0,1,1,76.25439,170.293C91.79248,175.335,109.68555,178,128,178c18.314,0,36.207-2.665,51.74512-7.707a6,6,0,0,1,3.7041,11.41406,161.29841,161.29841,0,0,1-19.415,4.94434l8.40137,16.80371a1.97636,1.97636,0,0,0,2.20019,1.06445c23.42969-5.72851,43.68946-15.60058,58.58887-28.55078A2.06859,2.06859,0,0,0,233.88574,173.83205Z"/>
</svg>
