<svg xmlns="http://www.w3.org/2000/svg" viewBox="0 0 256 256"><path d="M102,140a10,10,0,1,1-10-10A10,10,0,0,1,102,140Zm62,10a10,10,0,1,0-10-10A10,10,0,0,0,164,150Zm67.9-7.9a13.7,13.7,0,0,1-5.9,1.3,14,14,0,0,1-10.9-5.4l-1.1-1.4V184a38,38,0,0,1-38,38H80a38,38,0,0,1-38-38V136.6L40.9,138A14,14,0,0,1,30,143.4a13.7,13.7,0,0,1-5.9-1.3,13.7,13.7,0,0,1-8-15.3L32.5,39.2A14.4,14.4,0,0,1,38.7,30a14.7,14.7,0,0,1,11-1.8l55,13.8h46.6l55-13.8a14.7,14.7,0,0,1,11,1.8,14.4,14.4,0,0,1,6.2,9.2l16.4,87.6A13.7,13.7,0,0,1,231.9,142.1ZM93.6,51.6,46.8,39.9h-.5a2.4,2.4,0,0,0-1.1.3,2.2,2.2,0,0,0-.9,1.4L27.9,129a2,2,0,0,0,3.6,1.6ZM202,121.3,149.1,54H106.9L54,121.3V184a26.1,26.1,0,0,0,26,26h42V194.5l-14.2-14.3a5.9,5.9,0,0,1,8.4-8.4L128,183.5l11.8-11.7a5.9,5.9,0,0,1,8.4,8.4L134,194.5V210h42a26.1,26.1,0,0,0,26-26Zm26.1,7.7L211.7,41.5a2.2,2.2,0,0,0-.9-1.4,2.4,2.4,0,0,0-1.6-.2L162.4,51.6l62.1,79a2,2,0,0,0,3.6-1.6Z"/></svg>