<svg id="Flat" xmlns="http://www.w3.org/2000/svg" viewBox="0 0 256 256">
  <path d="M102,140a10,10,0,1,1-10-10A9.99995,9.99995,0,0,1,102,140Zm62,10a10,10,0,1,0-10-10A9.99995,9.99995,0,0,0,164,150Zm67.90137-7.86279a14.2325,14.2325,0,0,1-5.88379,1.292,13.80841,13.80841,0,0,1-10.90528-5.39307L214,136.62061V184a38.04323,38.04323,0,0,1-38,38H80a38.04323,38.04323,0,0,1-38-38V136.62061l-1.1123,1.41552a13.80986,13.80986,0,0,1-10.90528,5.39307,14.22916,14.22916,0,0,1-5.88379-1.292,13.798,13.798,0,0,1-7.97949-15.33057l16.418-87.56592a14.00173,14.00173,0,0,1,17.15625-11.002L104.73828,42h46.52344l55.04492-13.76123a14.00216,14.00216,0,0,1,17.15625,11.00049l16.418,87.56738A13.798,13.798,0,0,1,231.90137,142.13721ZM93.56055,51.57471,46.7832,39.88037a1.97522,1.97522,0,0,0-1.56445.25684,1.98657,1.98657,0,0,0-.88672,1.31591l-16.418,87.56446a1.99984,1.99984,0,0,0,3.53809,1.60449ZM202,121.34766,149.08386,54H106.91614L54,121.34766V184a26.02916,26.02916,0,0,0,26,26h42V194.48486l-14.24219-14.24218a5.99971,5.99971,0,0,1,8.48438-8.48536L128,183.51465l11.75781-11.75733a5.99971,5.99971,0,0,1,8.48438,8.48536L134,194.48486V210h42a26.02916,26.02916,0,0,0,26-26Zm26.08594,7.66992L211.668,41.45166a2.0012,2.0012,0,0,0-2.45117-1.57129L162.43945,51.57471l62.1084,79.04736a1.99984,1.99984,0,0,0,3.53809-1.60449Z"/>
</svg>
