<svg id="Flat" xmlns="http://www.w3.org/2000/svg" viewBox="0 0 256 256">
  <path d="M69,60a9,9,0,1,1-9-9A8.9999,8.9999,0,0,1,69,60Zm59-9a9,9,0,1,0,9,9A8.9999,8.9999,0,0,0,128,51Zm68,18a9,9,0,1,0-9-9A8.9999,8.9999,0,0,0,196,69ZM60,119a9,9,0,1,0,9,9A8.9999,8.9999,0,0,0,60,119Zm68,0a9,9,0,1,0,9,9A8.9999,8.9999,0,0,0,128,119Zm68,0a9,9,0,1,0,9,9A8.9999,8.9999,0,0,0,196,119ZM60,187a9,9,0,1,0,9,9A8.9999,8.9999,0,0,0,60,187Zm68,0a9,9,0,1,0,9,9A8.9999,8.9999,0,0,0,128,187Zm68,0a9,9,0,1,0,9,9A8.9999,8.9999,0,0,0,196,187Z"/>
</svg>
