<svg id="Flat" xmlns="http://www.w3.org/2000/svg" viewBox="0 0 256 256">
  <path d="M188.00049,177a9,9,0,1,1,9-9A8.99982,8.99982,0,0,1,188.00049,177ZM224,122H176a6,6,0,0,0,0,12h48a2.0026,2.0026,0,0,1,2,2v64a2.0026,2.0026,0,0,1-2,2H32a2.0026,2.0026,0,0,1-2-2V136a2.0026,2.0026,0,0,1,2-2H80a6,6,0,0,0,0-12H32a14.01572,14.01572,0,0,0-14,14v64a14.01572,14.01572,0,0,0,14,14H224a14.01572,14.01572,0,0,0,14-14V136A14.01572,14.01572,0,0,0,224,122ZM123.75439,132.23926a6.038,6.038,0,0,0,.92676.75781c.02051.01367.042.02441.0625.0376a5.93167,5.93167,0,0,0,.97559.51367c.0249.01025.05078.01807.07568.02783a5.95213,5.95213,0,0,0,1.04248.30908c.01953.00391.03906.00538.0586.00879a5.80428,5.80428,0,0,0,2.208,0c.01954-.00341.03907-.00488.0586-.00879a5.95213,5.95213,0,0,0,1.04248-.30908c.0249-.00976.05078-.01758.07568-.02783a5.93167,5.93167,0,0,0,.97559-.51367c.02051-.01319.042-.02393.0625-.0376a5.99557,5.99557,0,0,0,.92724-.75879l47.99659-47.99609a5.99971,5.99971,0,0,0-8.48536-8.48438L134,113.51465V24a6,6,0,0,0-12,0v89.51465L84.24268,75.75781a5.99971,5.99971,0,0,0-8.48536,8.48438Z"/>
</svg>
