<svg id="Flat" xmlns="http://www.w3.org/2000/svg" viewBox="0 0 256 256">
  <path d="M81.75781,114.25391a6.00005,6.00005,0,0,1,8.48438-8.48633L122,137.51721V40a6,6,0,0,1,12,0v97.51709l31.75781-31.74951a6.00005,6.00005,0,0,1,8.48438,8.48633l-42,41.98925c-.09912.09888-.21387.169-.31787.25953-.082.07116-.16651.13916-.25244.20593a5.93346,5.93346,0,0,1-.77735.51684c-.03223.018-.06543.03431-.09765.05152a5.94842,5.94842,0,0,1-1.01221.42395l-.001.00012a5.47068,5.47068,0,0,1-3.56738,0l-.001-.00012a5.94842,5.94842,0,0,1-1.01221-.42395c-.03222-.01721-.06542-.03357-.09765-.05152a5.93346,5.93346,0,0,1-.77735-.51684c-.08593-.06665-.17041-.13465-.25244-.20581-.104-.09058-.21875-.16077-.31787-.25965ZM216,146a6.00029,6.00029,0,0,0-6,6v56a2.0026,2.0026,0,0,1-2,2H48a2.0026,2.0026,0,0,1-2-2V152a6,6,0,0,0-12,0v56a14.01572,14.01572,0,0,0,14,14H208a14.01572,14.01572,0,0,0,14-14V152A6.00029,6.00029,0,0,0,216,146Z"/>
</svg>
