<svg id="Flat" xmlns="http://www.w3.org/2000/svg" viewBox="0 0 256 256">
  <path d="M229.9917,128.66647c.00146-.22266.0083-.44385.0083-.6665a101.84552,101.84552,0,0,0-37.68408-79.105,6.13627,6.13627,0,0,0-.49268-.45264,6.05306,6.05306,0,0,0-.59179-.4209,101.84242,101.84242,0,0,0-107.373-11.9668,5.99881,5.99881,0,0,0-1.13526.564,102.35356,102.35356,0,0,0-54.73339,71.29883c-.0083.04052-.021.0791-.02881.11963-.00782.03906-.00977.07714-.01612.11621A101.95546,101.95546,0,0,0,66.895,209.62106a5.99987,5.99987,0,0,0,1.02295.7832c.04883.0293.10058.04883.1499.07715a101.84507,101.84507,0,0,0,93.7832,13.73682,5.99348,5.99348,0,0,0,.62647-.22119,102.1739,102.1739,0,0,0,67.51025-95.04981C229.99072,128.85348,229.99316,128.75973,229.9917,128.66647Zm-12.17774-6.3706c-3.26611-.19043-6.54492-.29786-9.8081-.29786a166.47654,166.47654,0,0,0-45.24219,6.28907A164.81228,164.81228,0,0,0,148.332,96.03561c-.14453-.24756-.2998-.48877-.4458-.73535a166.23558,166.23558,0,0,0,40.78955-33.7124A89.81191,89.81191,0,0,1,217.814,122.29587Zm-38.52539-68.208a154.203,154.203,0,0,1-37.895,31.10986A167.14552,167.14552,0,0,0,98.87549,42.83883a89.8918,89.8918,0,0,1,80.41308,11.249ZM85.707,48.57663A155.01673,155.01673,0,0,1,130.71,90.854a153.77177,153.77177,0,0,1-66.7041,15.144,155.87406,155.87406,0,0,1-22.835-1.68994A90.3954,90.3954,0,0,1,85.707,48.57663ZM38,128a90.388,90.388,0,0,1,.79053-11.918,167.81778,167.81778,0,0,0,25.21533,1.916,165.72841,165.72841,0,0,0,73.29736-17.00976c.22022.36963.45215.73144.66944,1.10351a152.82524,152.82524,0,0,1,13.36962,29.87012,164.58576,164.58576,0,0,0-26.09423,12.10547A167.072,167.072,0,0,0,69.56934,196.395,89.82967,89.82967,0,0,1,38,128Zm41.19482,75.583a155.0398,155.0398,0,0,1,52.04444-49.11816,152.56017,152.56017,0,0,1,23.38086-10.93408,154.46331,154.46331,0,0,1,4.30273,36.16162,154.86883,154.86883,0,0,1-3.80957,34.13086A89.91112,89.91112,0,0,1,79.19482,203.583Zm89.23682,4.80811a167.30769,167.30769,0,0,0,2.49121-28.69873,166.44748,166.44748,0,0,0-4.86426-39.86865,154.46643,154.46643,0,0,1,41.94727-5.82569c3.251,0,6.51855.11426,9.76953.31739A90.15285,90.15285,0,0,1,168.43164,208.39108Z"/>
</svg>
