<svg id="Flat" xmlns="http://www.w3.org/2000/svg" viewBox="0 0 256 256">
  <path d="M230.01514,128.66553c.00146-.22266.0083-.44385.0083-.66651a101.84553,101.84553,0,0,0-37.68408-79.105,6.13786,6.13786,0,0,0-.49268-.45263,6.05028,6.05028,0,0,0-.5918-.4209,101.84235,101.84235,0,0,0-107.373-11.9668,5.99881,5.99881,0,0,0-1.13526.564,102.35358,102.35358,0,0,0-54.7334,71.29882c-.0083.04053-.021.07911-.0288.11963-.00782.03907-.00977.07715-.01612.11621a101.95548,101.95548,0,0,0,38.9502,101.46778,6.0009,6.0009,0,0,0,1.023.7832c.04882.0293.10058.04883.1499.07715a101.84515,101.84515,0,0,0,93.7832,13.73682,5.99584,5.99584,0,0,0,.62647-.2212,102.17389,102.17389,0,0,0,67.51025-95.0498C230.01416,128.85254,230.0166,128.75879,230.01514,128.66553Zm-12.17774-6.37061c-3.26611-.19043-6.54492-.29785-9.8081-.29785a166.47692,166.47692,0,0,0-45.24219,6.28906,164.81246,164.81246,0,0,0-14.43164-32.25146c-.14453-.24756-.29981-.48877-.4458-.73535a166.23558,166.23558,0,0,0,40.78955-33.71241A89.812,89.812,0,0,1,217.8374,122.29492ZM179.312,54.08691a154.2028,154.2028,0,0,1-37.895,31.10987A167.14536,167.14536,0,0,0,98.89893,42.83789a89.89173,89.89173,0,0,1,80.41308,11.249ZM85.73047,48.57568A155.017,155.017,0,0,1,130.7334,90.853a153.77177,153.77177,0,0,1-66.7041,15.144,155.874,155.874,0,0,1-22.835-1.68994A90.39539,90.39539,0,0,1,85.73047,48.57568ZM38.02344,127.999a90.38982,90.38982,0,0,1,.79052-11.918,167.81671,167.81671,0,0,0,25.21534,1.916,165.72845,165.72845,0,0,0,73.29736-17.00977c.22022.36963.45215.73145.66943,1.10352a152.825,152.825,0,0,1,13.36963,29.87012,164.58627,164.58627,0,0,0-26.09424,12.10547A167.07225,167.07225,0,0,0,69.59277,196.394,89.8297,89.8297,0,0,1,38.02344,127.999Zm41.19482,75.583a155.0397,155.0397,0,0,1,52.04444-49.11816,152.5605,152.5605,0,0,1,23.38085-10.93408,154.46278,154.46278,0,0,1,4.30274,36.16162,154.86883,154.86883,0,0,1-3.80957,34.13086A89.91123,89.91123,0,0,1,79.21826,203.582Zm89.23682,4.80811a167.30777,167.30777,0,0,0,2.49121-28.69873,166.44762,166.44762,0,0,0-4.86426-39.86866,154.46681,154.46681,0,0,1,41.94727-5.82568c3.251,0,6.51855.11426,9.76953.31738A90.15288,90.15288,0,0,1,168.45508,208.39014Z"/>
</svg>
