<svg xmlns="http://www.w3.org/2000/svg" viewBox="0 0 256 256"><path d="M230,128.7V128a101.7,101.7,0,0,0-37.7-79.1l-.5-.5-.5-.4A101.5,101.5,0,0,0,128,26,100.2,100.2,0,0,0,83.9,36.1l-1.2.5A102.5,102.5,0,0,0,28,107.9h0v.2A99.2,99.2,0,0,0,26,128a101.9,101.9,0,0,0,40.9,81.6l1,.8h.2A101.7,101.7,0,0,0,128,230a100.2,100.2,0,0,0,33.9-5.8l.6-.2A102.3,102.3,0,0,0,230,128.9Zm-12.2-6.4c-3.2-.2-6.5-.3-9.8-.3a163.9,163.9,0,0,0-45.2,6.3A175.9,175.9,0,0,0,148.4,96l-.5-.7a168.2,168.2,0,0,0,40.8-33.7A89.7,89.7,0,0,1,217.8,122.3ZM179.3,54.1a152.4,152.4,0,0,1-37.9,31.1A167.9,167.9,0,0,0,98.9,42.8a90.1,90.1,0,0,1,80.4,11.3ZM85.7,48.6a153.9,153.9,0,0,1,45,42.3A154.4,154.4,0,0,1,64,106a158,158,0,0,1-22.8-1.7A90.2,90.2,0,0,1,85.7,48.6ZM38,128a93.9,93.9,0,0,1,.8-11.9A177,177,0,0,0,64,118a165.1,165.1,0,0,0,73.3-17l.7,1.1A157.1,157.1,0,0,1,151.4,132a158.3,158.3,0,0,0-26.1,12.1,165,165,0,0,0-55.7,52.3A89.9,89.9,0,0,1,38,128Zm41.2,75.6a155.8,155.8,0,0,1,75.4-60.1,151.9,151.9,0,0,1,4.3,36.2,149.8,149.8,0,0,1-3.8,34.1,89.8,89.8,0,0,1-75.9-10.2Zm89.3,4.8a172.8,172.8,0,0,0,2.4-28.7,166.9,166.9,0,0,0-4.8-39.9A155.8,155.8,0,0,1,208,134c3.3,0,6.5.1,9.8.3A90.2,90.2,0,0,1,168.5,208.4Z"/></svg>