<svg id="Flat" xmlns="http://www.w3.org/2000/svg" viewBox="0 0 256 256">
  <path d="M203.186,185.687a5.88777,5.88777,0,0,0,.395-.68628c.03467-.064.06714-.12939.10181-.1936.04712-.10059.11133-.19483.15259-.29736A85.46184,85.46184,0,0,0,214,144.00171v-.00317c-.00049-30.907-14.34131-63.73536-41.47217-94.936A252.31128,252.31128,0,0,0,131.44092,11.085c-.009-.00635-.019-.01025-.02783-.0166a6.0026,6.0026,0,0,0-.71509-.42212c-.04688-.02368-.09351-.04565-.14087-.06787a5.94893,5.94893,0,0,0-1.561-.489c-.06421-.01075-.12793-.02051-.19213-.0293a6.01928,6.01928,0,0,0-.78418-.05908h-.03956a6.01928,6.01928,0,0,0-.78418.05908c-.0642.00879-.12792.01855-.19213.0293a5.94893,5.94893,0,0,0-1.561.489c-.04736.02222-.094.04419-.14087.06787a6.0026,6.0026,0,0,0-.71509.42212c-.00878.00635-.01879.01025-.02783.0166A252.31128,252.31128,0,0,0,83.47217,49.0625C56.34082,80.26367,42,113.09277,42,144a85.94935,85.94935,0,0,0,137.10205,69.12085,5.96181,5.96181,0,0,0,1.13306-.86719A86.61042,86.61042,0,0,0,203.186,185.687Zm-26.791,14.22315L134,157.51514V126.48486l56.719,56.719A74.55734,74.55734,0,0,1,176.395,199.91016Zm20.08789-27.91211L134,109.51514V78.48486l67.93848,67.93848A73.50574,73.50574,0,0,1,196.48291,171.99805ZM134,174.48486l32.613,32.613A73.48616,73.48616,0,0,1,134,217.73584Zm66.63062-46.33911L134,61.51514V28.29883C152.57446,43.71729,192.73413,81.77539,200.63062,128.14575ZM54,144c0-53.42529,47.34766-98.55811,68-115.70117v189.437A74.08408,74.08408,0,0,1,54,144Z" fill="#231f20"/>
</svg>
