<svg xmlns="http://www.w3.org/2000/svg" viewBox="0 0 256 256"><path d="M172.5,49.1a247.8,247.8,0,0,0-41.1-38,5.7,5.7,0,0,0-6.8,0,247.8,247.8,0,0,0-41.1,38C56.3,80.3,42,113.1,42,144a86,86,0,0,0,172,0C214,113.1,199.7,80.3,172.5,49.1ZM202,144a66.3,66.3,0,0,1-.7,10H134V134h67.4A82.6,82.6,0,0,1,202,144ZM186.8,90H134V70h39.9A175.6,175.6,0,0,1,186.8,90ZM134,198h44.5A73.1,73.1,0,0,1,134,217.7Zm0-12V166h64.7a75.9,75.9,0,0,1-9.8,20Zm0-64V102h58.7a114.6,114.6,0,0,1,6.7,20Zm30.3-64H134V28.3A261,261,0,0,1,164.3,58ZM54,144c0-53.4,47.3-98.6,68-115.7V217.7A74,74,0,0,1,54,144Z"/></svg>