<svg xmlns="http://www.w3.org/2000/svg" viewBox="0 0 256 256"><path d="M186,152a26,26,0,0,1-52,0c0-14.8,8.9-22.4,16.1-28.6S162,113.2,162,104a34,34,0,0,0-68,0,6,6,0,0,1-12,0,46,46,0,0,1,92,0c0,14.8-8.9,22.4-16.1,28.6S146,142.8,146,152a14,14,0,0,0,28,0,6,6,0,0,1,12,0ZM128,18a86.1,86.1,0,0,0-86,86c0,32.6,12.1,44.3,21.9,53.7C71.8,165.3,78,171.4,78,188a50,50,0,0,0,88.6,31.8,6,6,0,0,0-9.3-7.6A38,38,0,0,1,90,188c0-9.7-1.9-17.7-5.7-24.5s-7.8-10.3-12.1-14.4C62.8,140.1,54,131.5,54,104a74,74,0,0,1,148,0,6,6,0,0,0,12,0A86.1,86.1,0,0,0,128,18Z"/></svg>