<svg id="Flat" xmlns="http://www.w3.org/2000/svg" viewBox="0 0 256 256">
  <path d="M186,152a26,26,0,0,1-52,0c0-14.75977,8.92432-22.40918,16.09521-28.55566C156.74658,117.74316,162,113.24023,162,104a34,34,0,0,0-68,0,6,6,0,0,1-12,0,46,46,0,0,1,92,0c0,14.75977-8.92432,22.40918-16.09521,28.55566C151.25342,138.25684,146,142.75977,146,152a14,14,0,0,0,28,0,6,6,0,0,1,12,0ZM128,18a86.09728,86.09728,0,0,0-86,86c0,32.64453,12.11621,44.32812,21.852,53.71484C71.75635,165.33691,78,171.35645,78,188a50.0012,50.0012,0,0,0,88.56543,31.8252,6.00016,6.00016,0,1,0-9.25195-7.64258A38.00092,38.00092,0,0,1,90,188c0-9.69531-1.85107-17.69336-5.65967-24.45117-3.3916-6.01856-7.84863-10.31641-12.15918-14.47168C62.83154,140.06152,54,131.5459,54,104a74,74,0,0,1,148,0,6,6,0,0,0,12,0A86.09728,86.09728,0,0,0,128,18Z"/>
</svg>
