<svg id="Flat" xmlns="http://www.w3.org/2000/svg" viewBox="0 0 256 256">
  <path d="M171.29053,166.7002l-.021-.02344L95.83228,83.6958l-.03858-.04248-27.99292-30.792L67.77,52.82764,52.43945,35.96387a5.99992,5.99992,0,0,0-8.8789,8.07226l12.1582,13.374A85.31229,85.31229,0,0,0,42,104c0,32.64453,12.11621,44.32812,21.852,53.71484C71.75635,165.33691,78,171.35645,78,188a50.0012,50.0012,0,0,0,88.56543,31.8252,6.00016,6.00016,0,1,0-9.25195-7.64258A38.00092,38.00092,0,0,1,90,188c0-21.74219-9.05859-30.47656-17.81836-38.92285C62.83154,140.06152,54,131.5459,54,104A73.411,73.411,0,0,1,64.11621,66.64746L84.4939,89.063A45.72723,45.72723,0,0,0,82,104a6,6,0,0,0,12,0,34.52971,34.52971,0,0,1,.26392-4.19043l40.59741,44.65772A32.53565,32.53565,0,0,0,134,152a25.95573,25.95573,0,0,0,30.91187,25.52246l38.64868,42.51367a5.99992,5.99992,0,0,0,8.8789-8.07226Zm-23.6875-8.21729,4.759,5.23486A14.08532,14.08532,0,0,1,147.603,158.48291ZM81.82959,38.38477a5.99987,5.99987,0,0,1,2.06738-8.2295A86.01886,86.01886,0,0,1,214,104a6,6,0,0,1-12,0A74.019,74.019,0,0,0,90.05908,40.45215,6.0005,6.0005,0,0,1,81.82959,38.38477Zm76.44678,77.02246A17.86564,17.86564,0,0,0,162,104a34.03,34.03,0,0,0-45.03076-32.17285,5.99989,5.99989,0,1,1-3.89063-11.35156A46.02939,46.02939,0,0,1,174,104a29.92175,29.92175,0,0,1-6.12695,18.61035,5.99961,5.99961,0,1,1-9.59668-7.20312Z"/>
</svg>
