<svg xmlns="http://www.w3.org/2000/svg" viewBox="0 0 256 256"><path d="M185,60.7C167.2,34,145.9,18,128,18S88.8,34,71,60.7,42,121.6,42,152a86,86,0,0,0,172,0C214,121.6,203.4,88.3,185,60.7ZM128,226a74.1,74.1,0,0,1-74-74c0-28.1,9.8-58.9,27-84.7C96.1,44.7,114.6,30,128,30c10.5,0,24.1,9,36.8,23.8L125.3,97.7a6.1,6.1,0,0,0,2.3,9.6l24.2,9.3-6.3,32.3a6,6,0,0,0,4.8,7h1.1a6.1,6.1,0,0,0,5.9-4.9l7.2-37.1a5.9,5.9,0,0,0-3.7-6.7l-20.7-8,32.2-35.9,2.7,3.9c17.2,25.8,27,56.6,27,84.7A74.1,74.1,0,0,1,128,226Z"/></svg>