<svg id="Flat" xmlns="http://www.w3.org/2000/svg" viewBox="0 0 256 256">
  <path d="M50.27148,142h155.457a14.00014,14.00014,0,0,0,10.2871-23.49585L138.28809,34.29858a14.00177,14.00177,0,0,0-20.57618,0L39.98437,118.50391A14.00029,14.00029,0,0,0,50.27148,142Zm-1.46875-15.35669L126.53027,42.438v.00024a1.99977,1.99977,0,0,1,2.93946-.00024l77.72754,84.20556A1.99942,1.99942,0,0,1,205.72852,130H50.27148a1.99956,1.99956,0,0,1-1.46875-3.35669ZM208,162H48a14.01572,14.01572,0,0,0-14,14v24a14.01572,14.01572,0,0,0,14,14H208a14.01572,14.01572,0,0,0,14-14V176A14.01572,14.01572,0,0,0,208,162Zm2,38a2.00229,2.00229,0,0,1-2,2H48a2.00229,2.00229,0,0,1-2-2V176a2.00229,2.00229,0,0,1,2-2H208a2.00229,2.00229,0,0,1,2,2Z"/>
</svg>
