<svg id="Flat" xmlns="http://www.w3.org/2000/svg" viewBox="0 0 256 256">
  <path d="M53.84668,143.97266h152.252a14.00019,14.00019,0,0,0,10.34375-23.43531l-76.127-83.44824a14.00028,14.00028,0,0,0-20.68555,0v.00025L43.50293,120.5376a14.00006,14.00006,0,0,0,10.34375,23.43506Zm-1.47852-15.3479,76.127-83.448V45.177a1.99972,1.99972,0,0,1,2.95508-.00024l76.12695,83.44775a2.00056,2.00056,0,0,1-1.47852,3.34815H53.84668a2.00042,2.00042,0,0,1-1.47852-3.3479Zm157.6045,35.3479h-160a14.01572,14.01572,0,0,0-14,14v24a14.01573,14.01573,0,0,0,14,14h160a14.01574,14.01574,0,0,0,14-14v-24A14.01573,14.01573,0,0,0,209.97266,163.97266Zm2,38a2.0023,2.0023,0,0,1-2,2h-160a2.0023,2.0023,0,0,1-2-2v-24a2.00229,2.00229,0,0,1,2-2h160a2.00229,2.00229,0,0,1,2,2Z"/>
</svg>
