<svg id="Flat" xmlns="http://www.w3.org/2000/svg" viewBox="0 0 256 256">
  <path d="M40.80762,166H215.19238a13.99952,13.99952,0,0,0,10.86524-22.82861L138.86621,35.8584a14.00017,14.00017,0,0,0-21.73242,0l.001-.00049L29.94141,143.17139A14.00018,14.00018,0,0,0,40.80762,166Zm-1.55274-15.26123L126.44727,43.42529l.001-.00049a1.99971,1.99971,0,0,1,3.10449.00049l87.19141,107.31348A1.9999,1.9999,0,0,1,215.19238,154H40.80762a2.00057,2.00057,0,0,1-1.55274-3.26123ZM230,208a6.00029,6.00029,0,0,1-6,6H32a6,6,0,0,1,0-12H224A6.00029,6.00029,0,0,1,230,208Z"/>
</svg>
