<svg id="Flat" xmlns="http://www.w3.org/2000/svg" viewBox="0 0 256 256">
  <path d="M229.93848,55.18506c-.00684-.05054-.01514-.1001-.02344-.15064a5.90244,5.90244,0,0,0-.24561-.98462c-.01562-.04516-.03271-.08935-.04931-.13427a5.948,5.948,0,0,0-.44043-.93384c-.02442-.0415-.04932-.08179-.07471-.1228a6.0174,6.0174,0,0,0-.63965-.85645c-.01611-.01807-.02588-.03906-.04248-.05688-.01514-.01636-.03369-.0271-.04883-.04346a6.05353,6.05353,0,0,0-.79785-.71191c-.03808-.02808-.07471-.05738-.11328-.08448a5.964,5.964,0,0,0-.89893-.52392c-.03906-.0188-.07714-.03882-.11669-.0564a5.95716,5.95716,0,0,0-.97608-.33594c-.0415-.0105-.082-.02246-.12353-.032a6.00346,6.00346,0,0,0-.999-.13989c-.05517-.00318-.10986-.00659-.16552-.0083C224.12207,50.00732,224.062,50,224,50H32c-.063,0-.124.00732-.18652.00928-.05323.00171-.106.00512-.15918.0083a5.973,5.973,0,0,0-1.00342.14038c-.04053.00928-.08008.02075-.12061.031a5.941,5.941,0,0,0-.97851.33692c-.03906.01733-.07617.03711-.11475.05517a6.01527,6.01527,0,0,0-.90088.52515c-.03759.02686-.07373.05567-.11133.0835a6.003,6.003,0,0,0-.79882.71264c-.01563.01612-.03369.02686-.04883.04322-.0166.01782-.02637.03881-.04248.05688a6.0174,6.0174,0,0,0-.63965.85645c-.02539.041-.05029.0813-.07471.12256a6.01259,6.01259,0,0,0-.44092.93457c-.0166.04467-.0332.08837-.04882.1333a5.95636,5.95636,0,0,0-.24561.9851c-.0083.05054-.0166.1001-.02344.15064A6.05968,6.05968,0,0,0,26,56V192a14.01572,14.01572,0,0,0,14,14H216a14.01572,14.01572,0,0,0,14-14V56A6.05968,6.05968,0,0,0,229.93848,55.18506ZM218,186.35986,154.334,128,218,69.63965ZM38,69.63965l63.666,58.36059L38,186.36084Zm90,66.221L47.4248,62H208.5752Zm-17.4541.27929,13.39941,12.283a6.00067,6.00067,0,0,0,8.10938,0l13.3999-12.2832L208.5752,194H47.42578Z"/>
</svg>
