<svg id="Flat" xmlns="http://www.w3.org/2000/svg" viewBox="0 0 256 256">
  <path d="M229.93848,55.18506c-.00733-.05054-.01514-.10034-.02344-.15088a5.95113,5.95113,0,0,0-.24561-.98413c-.01562-.04541-.03271-.0896-.04931-.13477a5.94328,5.94328,0,0,0-.44043-.93335c-.02442-.0415-.04981-.082-.0752-.12329a6.01939,6.01939,0,0,0-.63965-.85669c-.01611-.01758-.02588-.03857-.042-.05615-.01465-.01611-.0332-.02685-.04785-.043a6.05148,6.05148,0,0,0-.80127-.71411c-.03662-.0271-.07178-.05542-.10889-.08154a6.01721,6.01721,0,0,0-.90429-.5271c-.03711-.01758-.07325-.03662-.11084-.05347a5.94615,5.94615,0,0,0-.9834-.33862c-.03858-.00977-.07666-.02051-.11524-.02954a5.96326,5.96326,0,0,0-1.00732-.14112c-.05225-.00293-.104-.0061-.15625-.00781-.063-.002-.124-.00952-.1875-.00952H32c-.0625,0-.12354.00757-.186.00928-.05371.002-.10644.00512-.16064.0083a5.96157,5.96157,0,0,0-1.00244.14038c-.04053.00928-.08008.02075-.12012.031a5.94645,5.94645,0,0,0-.979.33692c-.03906.01733-.07617.03711-.11475.05542a5.96883,5.96883,0,0,0-.90088.52515c-.03759.02685-.07373.05517-.11084.083a6.05164,6.05164,0,0,0-.80029.71338c-.01465.01612-.0332.02686-.04785.043-.01611.01758-.02588.03857-.042.05615a6.01939,6.01939,0,0,0-.63965.85669c-.02539.04126-.05078.08179-.0752.12329a5.94889,5.94889,0,0,0-.44043.93384c-.0166.04468-.03369.08887-.04931.13379a5.95081,5.95081,0,0,0-.24561.98462c-.0083.05054-.01611.10034-.02344.15088A6.05968,6.05968,0,0,0,26,56V192a14.01572,14.01572,0,0,0,14,14H216a14.01572,14.01572,0,0,0,14-14V56A6.05968,6.05968,0,0,0,229.93848,55.18506ZM208.5752,62,128,135.86035,47.4248,62ZM216,194H40a2.00229,2.00229,0,0,1-2-2V69.63965l85.94531,78.7832a6.00067,6.00067,0,0,0,8.10938,0L218,69.63965V192A2.00229,2.00229,0,0,1,216,194Z"/>
</svg>
