<svg id="Flat" xmlns="http://www.w3.org/2000/svg" viewBox="0 0 256 256">
  <path d="M229.99658,95.94531a5.99566,5.99566,0,0,0-.17041-1.36816c-.01172-.04736-.02588-.09326-.03857-.14014q-.07032-.26037-.16455-.51611c-.021-.0564-.04248-.11231-.06494-.16821-.06446-.15943-.13721-.31641-.2168-.47168-.02686-.053-.05176-.10669-.08008-.1587-.09473-.17309-.19971-.34252-.31348-.50854-.01709-.0249-.03125-.05151-.04834-.07617l-.01367-.021a6.09235,6.09235,0,0,0-.41748-.51855c-.03125-.03467-.06592-.06641-.09765-.10034-.127-.1355-.25831-.26514-.39551-.38672-.0459-.04053-.09375-.07911-.14112-.11841q-.20653-.17213-.42431-.32276c-.02832-.01953-.05322-.043-.08155-.062l-96-64a5.99917,5.99917,0,0,0-6.65624,0l-96,64c-.02735.01807-.05079.04053-.07764.05908q-.22266.15345-.43164.32813c-.04541.03809-.09131.075-.13574.114-.13916.12354-.27295.25513-.40186.39307-.03027.03223-.063.062-.09229.095a5.98649,5.98649,0,0,0-.41845.51953l-.01367.021c-.01709.02466-.03125.05127-.04834.07617-.11377.166-.21875.33545-.31348.50854-.02832.052-.05322.10572-.08008.1587-.07959.15527-.15234.31225-.2168.47168-.02246.0559-.04394.11181-.06494.16821q-.09448.25561-.16455.51611c-.01269.04688-.02685.09278-.03857.14014a5.99566,5.99566,0,0,0-.17041,1.36816c0,.01831-.00342.03614-.00342.05469V200a14.01572,14.01572,0,0,0,14,14H216a14.01572,14.01572,0,0,0,14-14V96C230,95.98145,229.99658,95.96362,229.99658,95.94531ZM38,107.647l62.17822,44.33057L38,195.89771ZM112.45117,158h31.09766l62.292,44H50.16016Zm43.37061-6.02246L218,107.647v88.25025ZM128,39.21094l85.43164,56.95459L143.53418,146H112.46582L42.56836,96.16553Z"/>
</svg>
