<svg xmlns="http://www.w3.org/2000/svg" viewBox="0 0 256 256"><path d="M82,96a6,6,0,0,1-6,6H36a6,6,0,0,1,0-12H76A6,6,0,0,1,82,96Zm-6,26H36a6,6,0,0,0,0,12H76a6,6,0,0,0,0-12Zm0,32H36a6,6,0,0,0,0,12H76a6,6,0,0,0,0-12Zm0,32H36a6,6,0,0,0,0,12H76a6,6,0,0,0,0-12Zm72-64H108a6,6,0,0,0,0,12h40a6,6,0,0,0,0-12Zm0,32H108a6,6,0,0,0,0,12h40a6,6,0,0,0,0-12Zm0,32H108a6,6,0,0,0,0,12h40a6,6,0,0,0,0-12Zm72-96H180a6,6,0,0,0,0,12h40a6,6,0,0,0,0-12ZM180,70h40a6,6,0,0,0,0-12H180a6,6,0,0,0,0,12Zm40,52H180a6,6,0,0,0,0,12h40a6,6,0,0,0,0-12Zm0,32H180a6,6,0,0,0,0,12h40a6,6,0,0,0,0-12Zm0,32H180a6,6,0,0,0,0,12h40a6,6,0,0,0,0-12Z"/></svg>