<svg id="Flat" xmlns="http://www.w3.org/2000/svg" viewBox="0 0 256.00098 256">
  <path d="M216.001,209.833H125.51562l94.72852-94.72754a22.02474,22.02474,0,0,0-.001-31.11231L174.98828,38.73828a21.99905,21.99905,0,0,0-31.11133,0l-56.564,56.564-.00537.00439-.0044.00537-56.564,56.564a22.02383,22.02383,0,0,0,0,31.1123l37.08886,37.08789a5.99983,5.99983,0,0,0,4.24219,1.75684H216.001a6,6,0,0,0,0-12ZM152.36133,47.22266a10.01288,10.01288,0,0,1,14.14258,0l45.25488,45.25488a10.014,10.014,0,0,1,0,14.14355l-52.32666,52.32569L100.03467,99.54932ZM74.55566,209.833l-35.332-35.33008a10.0129,10.0129,0,0,1,0-14.14258l52.32666-52.32666,59.39746,59.39746L108.54492,209.833Z"/>
</svg>
