<svg xmlns="http://www.w3.org/2000/svg" viewBox="0 0 256 256"><path d="M216,42H40A14,14,0,0,0,26,56V216a6.1,6.1,0,0,0,2.8,5.1,6.2,6.2,0,0,0,5.9.3L64,206.7l29.3,14.7a6.4,6.4,0,0,0,5.4,0L128,206.7l29.3,14.7a6.4,6.4,0,0,0,5.4,0L192,206.7l29.3,14.7a6.6,6.6,0,0,0,2.7.6,6.2,6.2,0,0,0,3.2-.9A6.1,6.1,0,0,0,230,216V56A14,14,0,0,0,216,42Zm2,164.3-23.3-11.7a6.4,6.4,0,0,0-5.4,0L160,209.3l-29.3-14.7a6.4,6.4,0,0,0-5.4,0L96,209.3,66.7,194.6a6.4,6.4,0,0,0-5.4,0L38,206.3V56a2,2,0,0,1,2-2H216a2,2,0,0,1,2,2ZM109.4,93.3a6.1,6.1,0,0,0-10.8,0l-32,64a6,6,0,0,0,10.8,5.4L83.7,150h40.6l6.3,12.7A6.1,6.1,0,0,0,136,166a6.6,6.6,0,0,0,2.7-.6,6.2,6.2,0,0,0,2.7-8.1ZM89.7,138,104,109.4,118.3,138ZM198,128a6,6,0,0,1-6,6H178v14a6,6,0,0,1-12,0V134H152a6,6,0,0,1,0-12h14V108a6,6,0,0,1,12,0v14h14A6,6,0,0,1,198,128Z"/></svg>