<svg id="Flat" xmlns="http://www.w3.org/2000/svg" viewBox="0 0 256 256">
  <path d="M81.75684,62.23145a6.00032,6.00032,0,0,1,.001-8.48536l42-41.98925c.09961-.09961.21558-.17029.32031-.26142.08057-.0697.16309-.13653.24708-.202a5.94466,5.94466,0,0,1,.78051-.519c.03223-.01782.06519-.0343.0979-.05151a5.91663,5.91663,0,0,1,1.00879-.42255l.00977-.00286a5.9875,5.9875,0,0,1,3.55615.00006l.009.00274a5.927,5.927,0,0,1,1.00928.42279c.03247.01715.06543.03351.09741.05127a5.92509,5.92509,0,0,1,.78076.51911c.084.06543.16651.13226.24707.202.10474.09113.22071.16181.32032.26142l42,41.98925a6.00005,6.00005,0,0,1-8.48438,8.48633L134,30.48285V128a6,6,0,0,1-12,0V30.48285L90.24219,62.23242A6.00075,6.00075,0,0,1,81.75684,62.23145ZM200,90H176a6,6,0,0,0,0,12h24a2.00229,2.00229,0,0,1,2,2V208a2.00229,2.00229,0,0,1-2,2H56a2.00229,2.00229,0,0,1-2-2V104a2.00229,2.00229,0,0,1,2-2H80a6,6,0,0,0,0-12H56a14.01572,14.01572,0,0,0-14,14V208a14.01572,14.01572,0,0,0,14,14H200a14.01572,14.01572,0,0,0,14-14V104A14.01572,14.01572,0,0,0,200,90Z"/>
</svg>
