<svg id="Flat" xmlns="http://www.w3.org/2000/svg" viewBox="0 0 256 256">
  <path d="M245.4834,125.56311c-.3457-.77637-8.666-19.2334-27.24024-37.80957C201.01855,70.527,171.37988,49.99182,128,49.99182S54.98145,70.527,37.75684,87.75354c-18.57422,18.57617-26.89454,37.0332-27.24024,37.80957a6.0013,6.0013,0,0,0,.001,4.874c.34472.77637,8.666,19.2295,27.24023,37.80176C54.98242,185.46155,84.62012,205.99182,128,205.99182s73.01758-20.53027,90.24219-37.75293c18.57422-18.57226,26.89551-37.02539,27.24023-37.80176A6.00126,6.00126,0,0,0,245.4834,125.56311ZM128,193.99182c-31.37793,0-58.78027-11.416-81.44824-33.93066a134.65977,134.65977,0,0,1-23.86133-32.06153,134.689,134.689,0,0,1,23.8623-32.07031C69.21973,73.40979,96.62305,61.99182,128,61.99182s58.78027,11.418,81.44727,33.9375a134.66457,134.66457,0,0,1,23.86132,32.06836C226.94141,140.19788,195.03906,193.99182,128,193.99182Zm0-111.99121a46,46,0,1,0,46,46A46.05239,46.05239,0,0,0,128,82.00061Zm0,80a34,34,0,1,1,34-34A34.038,34.038,0,0,1,128,162.00061Z"/>
</svg>
