<svg xmlns="http://www.w3.org/2000/svg" viewBox="0 0 256 256"><path d="M245.5,125.6c-.4-.8-8.7-19.3-27.3-37.8S171.4,50,128,50,55,70.5,37.8,87.8s-26.9,37-27.3,37.8a5.7,5.7,0,0,0,0,4.8c.4.8,8.7,19.3,27.3,37.8S84.6,206,128,206s73-20.5,90.2-37.8,26.9-37,27.3-37.8A5.7,5.7,0,0,0,245.5,125.6ZM128,194c-31.4,0-58.8-11.4-81.4-33.9A133.9,133.9,0,0,1,22.7,128,133.9,133.9,0,0,1,46.6,95.9C69.2,73.4,96.6,62,128,62s58.8,11.4,81.4,33.9A133.9,133.9,0,0,1,233.3,128C226.9,140.2,195,194,128,194Zm0-112a46,46,0,1,0,46,46A46,46,0,0,0,128,82Zm0,80a34,34,0,1,1,34-34A34.1,34.1,0,0,1,128,162Z"/></svg>