<svg xmlns="http://www.w3.org/2000/svg" viewBox="0 0 256 256"><path d="M229.2,163.8A6.1,6.1,0,0,1,227,172a5.6,5.6,0,0,1-3,.8,6,6,0,0,1-5.2-3l-19.5-33.7a121.3,121.3,0,0,1-38.2,17.7l6.1,34.8a6,6,0,0,1-4.9,6.9h-1a5.9,5.9,0,0,1-5.9-5l-6.1-34.3A131.3,131.3,0,0,1,128,158a132.6,132.6,0,0,1-21.4-1.7l-6.1,34.3a6,6,0,0,1-5.9,5h-1a6,6,0,0,1-4.9-6.9l6.1-34.8a124.7,124.7,0,0,1-38.2-17.7L37.1,170a6,6,0,0,1-5.2,3,6.4,6.4,0,0,1-3-.8,6,6,0,0,1-2.2-8.2L47,128.7a148.1,148.1,0,0,1-19.7-20.1,6,6,0,0,1,9.4-7.5,131.5,131.5,0,0,0,21.5,21.3l.4.2A111.4,111.4,0,0,0,128,146a111.4,111.4,0,0,0,69.4-23.4l.3-.2a128.5,128.5,0,0,0,21.6-21.3,6,6,0,0,1,9.4,7.5,149.4,149.4,0,0,1-19.8,20.2Z"/></svg>