<svg id="Flat" xmlns="http://www.w3.org/2000/svg" viewBox="0 0 256 256">
  <path d="M52.43945,35.9635a5.99993,5.99993,0,1,0-8.8789,8.07227L64.43408,66.9967c-37.27234,21.89942-53.2196,56.99756-53.91748,58.56641a6.0013,6.0013,0,0,0,.001,4.874c.34472.77637,8.666,19.2295,27.24023,37.80176C54.98242,185.46155,84.62012,205.99182,128,205.99182a124.82606,124.82606,0,0,0,52.56421-11.25195l22.99634,25.2959a5.99993,5.99993,0,1,0,8.8789-8.07227Zm48.619,71.31982L146.07178,156.798a33.98837,33.98837,0,0,1-45.01331-49.51465ZM128,193.99182c-31.37793,0-58.78027-11.416-81.44824-33.93066a134.66232,134.66232,0,0,1-23.85938-32.05762c4.28589-8.20215,20.09229-35.1792,50.00928-51.9126l20.193,22.2124a45.98778,45.98778,0,0,0,61.34217,67.47657l17.8103,19.59131A113.48552,113.48552,0,0,1,128,193.99182Zm117.48242-63.55469c-.41211.92871-10.36914,22.97852-32.87012,43.13184a6.00015,6.00015,0,0,1-8.00585-8.93945,134.35792,134.35792,0,0,0,28.70605-36.625,134.70672,134.70672,0,0,0-23.86523-32.0752C186.78027,73.40979,159.377,61.99182,128,61.99182a119.824,119.824,0,0,0-19.69336,1.60254,6.00008,6.00008,0,1,1-1.97851-11.83594A131.9314,131.9314,0,0,1,128,49.99182c43.37988,0,73.01855,20.53516,90.24316,37.76172,18.57422,18.57617,26.89454,37.0332,27.24024,37.80957A6.00126,6.00126,0,0,1,245.48242,130.43713Zm-111.07715-35.835a6.00038,6.00038,0,1,1,2.24414-11.78906,46.16385,46.16385,0,0,1,37.14942,40.86621,5.99869,5.99869,0,0,1-5.416,6.53125c-.18945.01856-.37793.02637-.56445.02637a5.99928,5.99928,0,0,1-5.9668-5.44239A34.10683,34.10683,0,0,0,134.40527,94.60217Z"/>
</svg>
