<svg id="Flat" xmlns="http://www.w3.org/2000/svg" viewBox="0 0 256 256">
  <path d="M221.99658,67.53125a33.75163,33.75163,0,0,0-10.63672-24.23633c-13.23828-12.53222-34.687-12.04931-47.81347,1.0752l-23.34522,23.3457-.645-.645a22.02562,22.02562,0,0,0-31.1123,0l-7.02979,7.02979a14.01585,14.01585,0,0,0,0,19.79882l3.47315,3.47315L53.12988,149.12988a38.15089,38.15089,0,0,0-10.34228,34.5835L32.75488,206.6958a11.67511,11.67511,0,0,0,2.4585,13.00293,13.92482,13.92482,0,0,0,15.50049,2.93115l21.57275-9.41748a38.15025,38.15025,0,0,0,34.5835-10.34228l51.75732-51.75733,3.47315,3.47315a14.01614,14.01614,0,0,0,19.79882,0l7.02979-7.02979a22.02473,22.02473,0,0,0,0-31.1123l-.645-.645L212.0415,92.0415A33.73439,33.73439,0,0,0,221.99658,67.53125ZM98.38477,194.38477a26.10578,26.10578,0,0,1-25.1211,6.73291,5.99949,5.99949,0,0,0-3.94824.29785L45.91211,211.63232a1.9867,1.9867,0,0,1-2.08691-.30224l10.75927-24.64551a6.00258,6.00258,0,0,0,.29785-3.94824,26.10434,26.10434,0,0,1,6.73291-25.1211l51.75733-51.75732,36.76953,36.76953ZM203.55615,83.55615l-28,28a5.99988,5.99988,0,0,0,0,8.48535l4.8877,4.8877a10.01082,10.01082,0,0,1,0,14.1416l-7.02979,7.02979a2.001,2.001,0,0,1-2.82812,0L109.89941,85.41406a2.00193,2.00193,0,0,1,0-2.82812l7.02979-7.02979a10.01053,10.01053,0,0,1,14.1416,0l4.8877,4.8877a6.00018,6.00018,0,0,0,8.48535,0l27.58789-27.58838c8.57275-8.57324,22.51465-8.95313,31.07861-.8457a21.99956,21.99956,0,0,1,.4458,31.54638Z"/>
</svg>
