<svg xmlns="http://www.w3.org/2000/svg" viewBox="0 0 256 256"><path d="M222,67.5a33.8,33.8,0,0,0-10.6-24.2c-13.3-12.5-34.7-12.1-47.9,1.1L140.2,67.7l-.6-.6a22.1,22.1,0,0,0-31.2,0l-7,7a14.1,14.1,0,0,0,0,19.8l3.5,3.5L53.1,149.1a38.3,38.3,0,0,0-10.3,34.6l-10,23a11.6,11.6,0,0,0,2.4,13,14,14,0,0,0,9.9,4.1,13.8,13.8,0,0,0,5.6-1.2l21.6-9.4a38.3,38.3,0,0,0,34.6-10.3l51.7-51.8,3.5,3.5a14,14,0,0,0,19.8,0l7-7a22.1,22.1,0,0,0,0-31.2l-.6-.6L212,92A33.5,33.5,0,0,0,222,67.5ZM98.4,194.4a26.2,26.2,0,0,1-25.1,6.7,6.9,6.9,0,0,0-4,.3L45.9,211.6a2,2,0,0,1-2.1-.3l10.8-24.6a6.9,6.9,0,0,0,.3-4,26.2,26.2,0,0,1,6.7-25.1l51.8-51.7,36.7,36.7ZM203.6,83.6l-28,28a5.8,5.8,0,0,0,0,8.4l4.8,4.9a10.1,10.1,0,0,1,0,14.2l-7,7a1.9,1.9,0,0,1-2.8,0L109.9,85.4a1.9,1.9,0,0,1,0-2.8l7-7a9.9,9.9,0,0,1,14.2,0l4.9,4.8a5.8,5.8,0,0,0,8.4,0L172,52.9c8.6-8.6,22.5-9,31.1-.9A21.7,21.7,0,0,1,210,67.7,22,22,0,0,1,203.6,83.6Z"/></svg>