<svg xmlns="http://www.w3.org/2000/svg" viewBox="0 0 256 256"><path d="M174,112a6,6,0,0,1-6,6H88a6,6,0,0,1,0-12h80A6,6,0,0,1,174,112Zm-6,26H88a6,6,0,0,0,0,12h80a6,6,0,0,0,0-12Zm86-34v24a30.1,30.1,0,0,1-30,30h-6.5c-6.2,14.5-18.8,27.2-37.3,37.5-20.8,11.5-43,16.7-49.4,18.1l-2.8.2-2.8-.2c-6.4-1.4-28.6-6.6-49.4-18.1-18.5-10.3-31.1-23-37.3-37.5H32A30.1,30.1,0,0,1,2,128V104A30.1,30.1,0,0,1,32,74h2.5a14.4,14.4,0,0,1,8.7-9.6l80-29a13.3,13.3,0,0,1,9.6,0l80,29a14.4,14.4,0,0,1,8.7,9.6H224A30.1,30.1,0,0,1,254,104ZM34.9,146a55.5,55.5,0,0,1-.9-10V86H32a18.1,18.1,0,0,0-18,18v24a18.1,18.1,0,0,0,18,18ZM210,136V77.6a2.1,2.1,0,0,0-1.3-1.9l-80-29.1h-1.4l-80,29.1A2.1,2.1,0,0,0,46,77.6V136c0,47.3,73.3,64.1,81.6,65.8h.8C136.7,200.1,210,183.3,210,136Zm32-32a18.1,18.1,0,0,0-18-18h-2v50a55.5,55.5,0,0,1-.9,10H224a18.1,18.1,0,0,0,18-18Z"/></svg>