<svg id="Flat" xmlns="http://www.w3.org/2000/svg" viewBox="0 0 256 256">
  <path d="M174,112a6.00029,6.00029,0,0,1-6,6H88a6,6,0,0,1,0-12h80A6.00029,6.00029,0,0,1,174,112Zm-6,26H88a6,6,0,0,0,0,12h80a6,6,0,0,0,0-12Zm86-34v24a30.03406,30.03406,0,0,1-30,30h-6.51953c-6.22461,14.47949-18.80567,27.1958-37.28027,37.459-20.77686,11.54248-43.03321,16.76563-49.35938,18.0918a13.76715,13.76715,0,0,1-5.68262,0c-6.32519-1.32617-28.58154-6.54932-49.3584-18.0918C57.3252,185.1958,44.74414,172.47949,38.51953,158H32A30.03406,30.03406,0,0,1,2,128V104A30.03406,30.03406,0,0,1,32,74h2.48486a14.04369,14.04369,0,0,1,8.731-9.55371l80-29.09082a14.01968,14.01968,0,0,1,9.56836,0l80,29.09082A14.04369,14.04369,0,0,1,221.51514,74H224A30.03406,30.03406,0,0,1,254,104ZM34.898,146A56.10008,56.10008,0,0,1,34,136V86H32a18.02031,18.02031,0,0,0-18,18v24a18.02031,18.02031,0,0,0,18,18ZM210,136V77.60352a2.00714,2.00714,0,0,0-1.31641-1.87989l-80-29.09082a2.00534,2.00534,0,0,0-1.36718,0l-80,29.09082A2.00714,2.00714,0,0,0,46,77.60352V136c0,47.33252,73.2666,64.05469,81.62061,65.80566a1.802,1.802,0,0,0,.75781,0C136.7334,200.05469,210,183.33252,210,136Zm32-32a18.02031,18.02031,0,0,0-18-18h-2v50a56.10008,56.10008,0,0,1-.898,10H224a18.02031,18.02031,0,0,0,18-18Z"/>
</svg>
