<svg xmlns="http://www.w3.org/2000/svg" viewBox="0 0 256 256"><path d="M114,176a6,6,0,0,1-6,6H80a6,6,0,0,1,0-12h28A6,6,0,0,1,114,176Zm62-6H148a6,6,0,0,0,0,12h28a6,6,0,0,0,0-12Zm70,46a6,6,0,0,1-6,6H16a6,6,0,0,1,0-12H34V88a6,6,0,0,1,3.3-5.4,6,6,0,0,1,6.3.6L98,124V88a6,6,0,0,1,3.3-5.4,6,6,0,0,1,6.3.6L149,114.3,161.1,30a14.1,14.1,0,0,1,13.8-12h18.2a14.1,14.1,0,0,1,13.8,12l15,105.2h0a.4.4,0,0,1,.1.3v.3h0v74h18A6,6,0,0,1,246,216Zm-86-93.5,10,7.5h39.1L195,31.7a1.9,1.9,0,0,0-1.9-1.7H174.9a1.9,1.9,0,0,0-1.9,1.7ZM46,210H210V142H168a5.8,5.8,0,0,1-3.6-1.2L150,130h0l-40-30v36a6,6,0,0,1-3.3,5.4,6,6,0,0,1-6.3-.6L46,100Z"/></svg>