<svg id="Flat" xmlns="http://www.w3.org/2000/svg" viewBox="0 0 256 256">
  <path d="M114,176a6.00029,6.00029,0,0,1-6,6H80a6,6,0,0,1,0-12h28A6.00029,6.00029,0,0,1,114,176Zm62-6H148a6,6,0,0,0,0,12h28a6,6,0,0,0,0-12Zm70,45.9834a6.00029,6.00029,0,0,1-6,6H216.33325c-.111.00586-.2207.0166-.33325.0166s-.22229-.01074-.33325-.0166H40.33325c-.111.00586-.2207.0166-.33325.0166s-.22229-.01074-.33325-.0166H16a6,6,0,0,1,0-12H34V88a5.99979,5.99979,0,0,1,9.59961-4.7998L98,124V88a5.99979,5.99979,0,0,1,9.59961-4.7998l41.44263,31.08154L161.0791,30.02051A14.069,14.069,0,0,1,174.93848,18h18.123A14.069,14.069,0,0,1,206.9209,30.01953l15.01855,105.13184c.005.03515.00513.06933.00952.104.01331.10742.02222.21582.02979.32471.00732.10351.01355.20605.01562.3081.00062.0376.00562.07422.00562.11182v73.9834h18A6,6,0,0,1,246,215.9834Zm-86.00928-93.49024L170,130h39.08228L195.042,31.71729A2.01076,2.01076,0,0,0,193.06152,30h-18.123a2.01076,2.01076,0,0,0-1.98047,1.71777ZM46,209.9834H210V142H168a5.99639,5.99639,0,0,1-3.59961-1.2002l-14.41186-10.80859-.03589-.02685L110,100v36a5.99979,5.99979,0,0,1-9.59961,4.7998L46,100Z"/>
</svg>
