<svg id="Flat" xmlns="http://www.w3.org/2000/svg" viewBox="0 0 256.00098 256.00098">
  <path d="M134.001,119.99988v96a6,6,0,0,1-12,0v-96a6,6,0,1,1,12,0Zm66,74a6.00008,6.00008,0,0,0-6,6.00049l.001,16a6,6,0,0,0,12-.001l-.001-16A5.99988,5.99988,0,0,0,200.001,193.99988Zm24-32h-18l.001-122a6,6,0,1,0-12,0l-.001,122h-18a6,6,0,0,0,0,12h48a6,6,0,0,0,0-12Zm-168,0h0a6.00029,6.00029,0,0,0-6,6l-.00049,48a5.99987,5.99987,0,0,0,5.99951,6h.00049a6.0003,6.0003,0,0,0,6-6l.00049-48A6.0003,6.0003,0,0,0,56.001,161.99988Zm24-32h-18l-.00049-90a6,6,0,0,0-12,0l.00049,90h-18a6,6,0,0,0,0,12h48a6,6,0,0,0,0-12Zm72-48h-18v-42a6,6,0,1,0-12,0v42h-18a6,6,0,0,0,0,12h48a6,6,0,0,0,0-12Z"/>
</svg>
