<svg id="Flat" xmlns="http://www.w3.org/2000/svg" viewBox="0 0 256 256">
  <path d="M128,26A102,102,0,1,0,230,128,102.1153,102.1153,0,0,0,128,26Zm0,192a90,90,0,1,1,90-90A90.10217,90.10217,0,0,1,128,218Zm63.32812-94.99219-48-32A5.99992,5.99992,0,0,0,134,96v26.12231L87.32812,91.00781A5.99992,5.99992,0,0,0,78,96v64a5.99981,5.99981,0,0,0,9.32812,4.99219L134,133.87769V160a5.99981,5.99981,0,0,0,9.32812,4.99219l48-32a5.99969,5.99969,0,0,0,0-9.98438ZM90,148.78906V107.21094L121.18359,128Zm56,0V107.21094L177.18359,128Z"/>
</svg>
