<svg id="Flat" xmlns="http://www.w3.org/2000/svg" viewBox="0 0 256 256">
  <path d="M244.77637,116.22363,155.57031,58.87646A14.00029,14.00029,0,0,0,134,70.65332v46.46973a14.173,14.173,0,0,0-1.22363-.89942L43.57031,58.87646A14.00029,14.00029,0,0,0,22,70.65332V185.34668a13.99844,13.99844,0,0,0,21.57031,11.77637l89.20606-57.34668A14.173,14.173,0,0,0,134,138.877v46.46973a13.99844,13.99844,0,0,0,21.57031,11.77637l89.20606-57.34668a13.99943,13.99943,0,0,0,0-23.55274Zm-118.48828,13.459L37.082,187.02881A2.00029,2.00029,0,0,1,34,185.34668V70.65332A1.93024,1.93024,0,0,1,35.042,68.898a2.04485,2.04485,0,0,1,.97071-.25733,1.95384,1.95384,0,0,1,1.06933.33008l89.20606,57.34668a2.0011,2.0011,0,0,1,0,3.36524Zm112,0L149.082,187.02881A2.00029,2.00029,0,0,1,146,185.34668V70.65332a1.93024,1.93024,0,0,1,1.042-1.75537,2.04485,2.04485,0,0,1,.97071-.25733,1.95384,1.95384,0,0,1,1.06933.33008l89.20606,57.34668a2.0011,2.0011,0,0,1,0,3.36524Z"/>
</svg>
