<svg id="Flat" xmlns="http://www.w3.org/2000/svg" viewBox="0 0 256 256">
  <path d="M183.03955,94.00049A39.98706,39.98706,0,0,0,162,20.001H94A39.98706,39.98706,0,0,0,72.96045,94.00049,39.96375,39.96375,0,0,0,72.96143,162,39.9924,39.9924,0,1,0,134,195.99951v-39.47a39.98084,39.98084,0,1,0,49.03955-62.529ZM190,60.001a28.03114,28.03114,0,0,1-27.98047,27.99951L162,88l-.03857.001L134,88V32.001h28A28.03145,28.03145,0,0,1,190,60.001Zm-124,0a28.03145,28.03145,0,0,1,28-28h28V88H94l-.019.00049A28.03132,28.03132,0,0,1,66,60.001ZM66,128a28.03123,28.03123,0,0,1,27.981-27.99951L94,100.001l28-.00074V155.999L94,156A28.03146,28.03146,0,0,1,66,128Zm28,95.999A27.99951,27.99951,0,1,1,94,168l28-.00073v28.00024A28.03135,28.03135,0,0,1,94,223.999ZM162,156a27.99952,27.99952,0,0,1-.03857-55.999H162l.019-.00049A27.99976,27.99976,0,0,1,162,156Z"/>
</svg>
