<svg xmlns="http://www.w3.org/2000/svg" viewBox="0 0 256 256"><path d="M214,88a6,6,0,0,0-1.8-4.3l-56-55.9A5.6,5.6,0,0,0,152,26H56A14,14,0,0,0,42,40v88a6,6,0,0,0,12,0V40a2,2,0,0,1,2-2h90V88a6,6,0,0,0,6,6h50V216a2,2,0,0,1-2,2H176a6,6,0,0,0,0,12h24a14,14,0,0,0,14-14V88ZM158,46.5,193.5,82H158ZM147.2,158.9a6.2,6.2,0,0,0-5.9-.3L118,170.3V168a14,14,0,0,0-14-14H48a14,14,0,0,0-14,14v40a14,14,0,0,0,14,14h56a14,14,0,0,0,14-14v-2l23.2,12.5a6.4,6.4,0,0,0,2.8.7,5.9,5.9,0,0,0,3.1-.9,6,6,0,0,0,2.9-5.1V164A6.1,6.1,0,0,0,147.2,158.9ZM104,210H48a2,2,0,0,1-2-2V168a2,2,0,0,1,2-2h56a2,2,0,0,1,2,2v28h0v12A2,2,0,0,1,104,210Zm34-6.9-20-10.7v-8.7l20-10Z"/></svg>