<svg id="Flat" xmlns="http://www.w3.org/2000/svg" viewBox="0 0 256 256">
  <path d="M214.00781,88a5.97685,5.97685,0,0,0-1.84424-4.32172l-55.92089-55.921c-.01123-.01123-.02393-.02069-.03516-.0318-.12793-.12609-.26074-.24755-.39941-.36181-.03858-.03174-.08057-.05884-.12012-.08954-.11475-.09-.23047-.17926-.35205-.2608-.03565-.02375-.07324-.0434-.10938-.06641-.12939-.0827-.25976-.16376-.39551-.23663-.02539-.01367-.05273-.02448-.07812-.03778-.14844-.0766-.29834-.14972-.45313-.21405-.01709-.007-.03466-.012-.05175-.01892-.16358-.06629-.32959-.12739-.5-.1792-.01709-.00513-.03467-.00812-.05127-.01313-.16944-.04992-.34131-.09472-.5166-.12976-.04444-.009-.09034-.01269-.13575-.02069-.147-.02588-.29443-.05157-.44531-.06653A5.99765,5.99765,0,0,0,152,26H55.99219a14.01572,14.01572,0,0,0-14,14V216a14.01572,14.01572,0,0,0,14,14H200a14.01572,14.01572,0,0,0,14-14V88.15936C214.00146,88.1059,214.00781,88.05383,214.00781,88ZM158,46.48535,193.51465,82H158ZM200,218H55.99219a2.00229,2.00229,0,0,1-2-2V40a2.00229,2.00229,0,0,1,2-2H146V88a6.00029,6.00029,0,0,0,6,6h50V216A2.00229,2.00229,0,0,1,200,218Zm-48.09961-50.57916a34.00242,34.00242,0,1,0-8.48535,8.48541l12.13525,12.13525a6,6,0,0,0,8.48535-8.48535Zm-43.4624-3.86469h-.00049a21.99963,21.99963,0,1,0,.00049,0Z"/>
</svg>
