<svg id="Flat" xmlns="http://www.w3.org/2000/svg" viewBox="0 0 256 256">
  <path d="M212.24268,67.75732l-40-40A6.00143,6.00143,0,0,0,168,26H88A14.01572,14.01572,0,0,0,74,40V58H56A14.01572,14.01572,0,0,0,42,72V216a14.01572,14.01572,0,0,0,14,14H168a14.01572,14.01572,0,0,0,14-14V198h18a14.01572,14.01572,0,0,0,14-14V72A5.99941,5.99941,0,0,0,212.24268,67.75732ZM170,216a2.00229,2.00229,0,0,1-2,2H56a2.00229,2.00229,0,0,1-2-2V72a2.00229,2.00229,0,0,1,2-2h77.51465L170,106.48535Zm32-32a2.00229,2.00229,0,0,1-2,2H182V104a5.99941,5.99941,0,0,0-1.75732-4.24268l-40-40A6.00143,6.00143,0,0,0,136,58H86V40a2.00229,2.00229,0,0,1,2-2h77.51465L202,74.48535Zm-60-32a6.00029,6.00029,0,0,1-6,6H88a6,6,0,0,1,0-12h48A6.00029,6.00029,0,0,1,142,152Zm0,32a6.00029,6.00029,0,0,1-6,6H88a6,6,0,0,1,0-12h48A6.00029,6.00029,0,0,1,142,184Z"/>
</svg>
