<svg id="Flat" xmlns="http://www.w3.org/2000/svg" viewBox="0 0 256 256">
  <path d="M214.00781,88a5.97685,5.97685,0,0,0-1.84424-4.32172l-55.92089-55.921c-.01123-.01123-.02393-.02075-.03516-.03173-.12793-.12622-.26074-.24756-.39941-.36182-.03858-.03174-.08057-.05884-.12012-.0896-.11475-.09-.23047-.1792-.35205-.26074-.03565-.02381-.07324-.04346-.10938-.06641-.12939-.08276-.25976-.16382-.39551-.23669-.02539-.01367-.05273-.02454-.07812-.03772-.14844-.07666-.29834-.14978-.45313-.21411-.01709-.00708-.03466-.012-.05175-.01892-.16358-.06629-.32959-.12732-.5-.1792-.01709-.00513-.03467-.00818-.05127-.01307-.16944-.05-.34131-.09472-.5166-.12988-.04444-.00891-.09034-.01269-.13575-.02063-.147-.02588-.29443-.05163-.44531-.06653A5.99765,5.99765,0,0,0,152,26H55.99219a14.01572,14.01572,0,0,0-14,14V216a14.01572,14.01572,0,0,0,14,14H200a14.01572,14.01572,0,0,0,14-14V88.15936C214.00146,88.1059,214.00781,88.05383,214.00781,88ZM158,46.48535,193.51465,82H158ZM200,218H55.99219a2.00229,2.00229,0,0,1-2-2V40a2.00229,2.00229,0,0,1,2-2H146V88a6.00029,6.00029,0,0,0,6,6h50V216A2.00229,2.00229,0,0,1,200,218Zm-34-82a6.00029,6.00029,0,0,1-6,6H96a6,6,0,0,1,0-12h64A6.00029,6.00029,0,0,1,166,136Zm0,32a6.00029,6.00029,0,0,1-6,6H96a6,6,0,0,1,0-12h64A6.00029,6.00029,0,0,1,166,168Z"/>
</svg>
