<svg id="Flat" xmlns="http://www.w3.org/2000/svg" viewBox="0 0 256 256">
  <path d="M212.15674,83.67236,156.25,27.76562q-.2124-.21312-.44482-.4038c-.023-.01905-.04834-.03516-.07178-.0542-.1294-.10254-.26123-.20264-.39893-.29492-.03076-.02051-.06347-.0376-.09424-.05762-.13378-.08594-.269-.16944-.40966-.24512-.02539-.01367-.05225-.02392-.07813-.0376-.148-.07666-.29834-.14941-.45312-.21386-.01758-.00733-.03614-.0127-.05371-.02-.1626-.06543-.32764-.12647-.49756-.17774-.02051-.00635-.042-.01025-.063-.0166-.166-.04834-.3335-.09228-.5044-.12646-.04736-.00977-.0957-.01368-.14355-.022-.14453-.02539-.28955-.05078-.438-.06543A5.959,5.959,0,0,0,152,26H55.99219a14.01572,14.01572,0,0,0-14,14V216a14.01572,14.01572,0,0,0,14,14H200a14.01572,14.01572,0,0,0,14-14V88.1543c.00146-.05176.00781-.10205.00781-.1543A5.97793,5.97793,0,0,0,212.15674,83.67236ZM158,46.48535,193.51465,82H158ZM202,216a2.0026,2.0026,0,0,1-2,2H55.99219a2.0026,2.0026,0,0,1-2-2V40a2.0026,2.0026,0,0,1,2-2H146V88a6.00029,6.00029,0,0,0,6,6h50Zm-50-70a6,6,0,0,1,0,12H104a6,6,0,0,1,0-12Z"/>
</svg>
