<svg xmlns="http://www.w3.org/2000/svg" viewBox="0 0 256 256"><path d="M186,174v12h18a6,6,0,0,1,0,12H186v12h22a6,6,0,0,1,0,12H180a6,6,0,0,1-6-6V168a6,6,0,0,1,6-6h28a6,6,0,0,1,0,12ZM86.3,162.5a5.8,5.8,0,0,0-7.8,3.2L64,200.4,49.5,165.7a6,6,0,0,0-11,4.6l20,48a5.9,5.9,0,0,0,11,0l20-48A5.8,5.8,0,0,0,86.3,162.5ZM148,162a6,6,0,0,0-6,6v30a12,12,0,0,1-24,0V168a6,6,0,0,0-12,0v30a24,24,0,0,0,48,0V168A6,6,0,0,0,148,162Zm66-73.8V128a6,6,0,0,1-12,0V94H152a6,6,0,0,1-6-6V38H56a2,2,0,0,0-2,2v88a6,6,0,0,1-12,0V40A14,14,0,0,1,56,26h96a5.6,5.6,0,0,1,4.2,1.8l56,55.9A6,6,0,0,1,214,88ZM158,82h35.5L158,46.5Z"/></svg>