<svg id="Flat" xmlns="http://www.w3.org/2000/svg" viewBox="0 0 256 256">
  <path d="M214.0083,88a5.97772,5.97772,0,0,0-1.85132-4.32788l-55.91186-55.912q-.20874-.20856-.437-.39624c-.04078-.03332-.08448-.06189-.126-.09411-.11279-.088-.22583-.17579-.345-.25562-.042-.02808-.08643-.05127-.12891-.07812-.1228-.07813-.24634-.15564-.37524-.22486-.03369-.01782-.06885-.032-.10254-.04931-.14063-.072-.28223-.14173-.4292-.20276-.02441-.01014-.05-.01746-.07471-.02747-.15625-.0625-.31445-.12134-.47705-.17078-.02612-.00793-.05322-.01281-.07934-.02038-.16089-.04663-.323-.08972-.489-.1228-.05053-.01026-.10254-.01465-.15332-.02344-.14184-.02454-.28345-.04956-.42846-.064Q152.30164,26.00044,152,26H55.99219a14.01572,14.01572,0,0,0-14,14V216a14.01572,14.01572,0,0,0,14,14H200a14.01572,14.01572,0,0,0,14-14V88.16431C214.00146,88.10913,214.0083,88.05542,214.0083,88ZM158,46.48535,193.51465,82H158ZM200,218H55.99219a2.00229,2.00229,0,0,1-2-2V40a2.00229,2.00229,0,0,1,2-2H146V88a6.00029,6.00029,0,0,0,6,6h50V216A2.00229,2.00229,0,0,1,200,218Zm-48.113-50.592a34.04972,34.04972,0,1,0-8.48486,8.48486l12.14819,12.1482a5.99971,5.99971,0,0,0,8.48535-8.48438ZM101.99414,148a22,22,0,1,1,22,22A22.02489,22.02489,0,0,1,101.99414,148Z"/>
</svg>
