<svg id="Flat" xmlns="http://www.w3.org/2000/svg" viewBox="0 0 256 256">
  <path d="M214,88a6,6,0,0,0-1.85-4.32L156.24,27.76l0,0-.4-.37-.12-.09-.35-.26-.11-.06a3.26,3.26,0,0,0-.4-.24l-.08,0-.45-.21-.05,0a5,5,0,0,0-.5-.18h-.05a4.39,4.39,0,0,0-.52-.13l-.14,0L152.6,26q-.3,0-.6,0H56A14,14,0,0,0,42,40V216a14,14,0,0,0,14,14H200a14,14,0,0,0,14-14V88.16S214,88.05,214,88ZM158,46.49,193.51,82H158ZM200,218H56a2,2,0,0,1-2-2V40a2,2,0,0,1,2-2h90V88a6,6,0,0,0,6,6h50V216A2,2,0,0,1,200,218Zm-48.1-50.58a33.95,33.95,0,1,0-8.48,8.49L155.55,188a6,6,0,1,0,8.49-8.48Zm-43.46-3.86h0A22,22,0,1,1,124,170,21.85,21.85,0,0,1,108.44,163.56Z"/>
</svg>
