<svg xmlns="http://www.w3.org/2000/svg" viewBox="0 0 256 256"><path d="M154,216a6,6,0,0,1-6,6H120a6,6,0,0,1-6-6V168a6,6,0,0,1,12,0v42h22A6,6,0,0,1,154,216ZM91.6,163.2a5.9,5.9,0,0,0-8.4,1.2L70,182,56.8,164.4a6,6,0,1,0-9.6,7.2L62.5,192,47.2,212.4a6,6,0,1,0,9.6,7.2L70,202l13.2,17.6a6,6,0,0,0,9.6-7.2L77.5,192l15.3-20.4A5.9,5.9,0,0,0,91.6,163.2Zm101.6,22.5c-7.8-2-11.2-3.3-11.2-5.7,0-6.1,5.6-7,9-7a19.7,19.7,0,0,1,11.2,3.6,6,6,0,0,0,7.6-9.2A30,30,0,0,0,191,161c-12.4,0-21,7.8-21,19s11.6,15.1,20.1,17.3S202,201,202,204s0,7-11,7a20,20,0,0,1-11.2-3.6,6,6,0,1,0-7.6,9.2A30,30,0,0,0,191,223c14.4,0,23-7.1,23-19S201.5,187.9,193.2,185.7ZM214,88.2V128a6,6,0,0,1-12,0V94H152a6,6,0,0,1-6-6V38H56a2,2,0,0,0-2,2v88a6,6,0,0,1-12,0V40A14,14,0,0,1,56,26h96a5.6,5.6,0,0,1,4.2,1.8l56,55.9A6,6,0,0,1,214,88ZM158,82h35.5L158,46.5Z"/></svg>