<svg id="Flat" xmlns="http://www.w3.org/2000/svg" viewBox="0 0 256 256">
  <path d="M78,224a6.00029,6.00029,0,0,1-6,6H55.99219a14.01572,14.01572,0,0,1-14-14V184a6,6,0,0,1,12,0v32a2.0026,2.0026,0,0,0,2,2H72A6.00029,6.00029,0,0,1,78,224ZM80,26H55.99219a14.01572,14.01572,0,0,0-14,14V64a6,6,0,0,0,12,0V40a2.0026,2.0026,0,0,1,2-2H80a6,6,0,0,0,0-12ZM214,88.15942V136a6,6,0,0,1-12,0V94H152a6.00029,6.00029,0,0,1-6-6V38H120a6,6,0,0,1,0-12h32a5.99765,5.99765,0,0,1,.59912.03027c.146.01453.28858.03962.43115.06433.0503.00867.10108.01294.15088.023.16846.03363.333.07727.4961.1247.02343.007.04834.01129.07177.01849.165.05011.3252.10962.4834.17322.02246.009.0459.01569.06836.025.1499.06232.29492.13337.43848.20722.03076.01568.0625.02844.09277.04468.13477.07214.26367.15258.3916.23443.03711.0235.07569.04376.11231.06812.12842.08612.25049.18.37207.27545.03222.02551.06689.04779.09863.074q.23.18861.43945.39862L212.1582,83.67334A5.97755,5.97755,0,0,1,214.00781,88C214.00781,88.05383,214.00146,88.106,214,88.15942ZM158,82h35.51465L158,46.48523Zm50,88a6.00029,6.00029,0,0,0-6,6v40a2.0026,2.0026,0,0,1-2,2h-8a6,6,0,0,0,0,12h8a14.01572,14.01572,0,0,0,14-14V176A6.00029,6.00029,0,0,0,208,170ZM48,150a6.00029,6.00029,0,0,0,6-6V104a6,6,0,0,0-12,0v40A6.00029,6.00029,0,0,0,48,150Zm104,68H112a6,6,0,0,0,0,12h40a6,6,0,0,0,0-12Z"/>
</svg>
