<svg xmlns="http://www.w3.org/2000/svg" viewBox="0 0 256 256"><path d="M48,134a6,6,0,0,0,6-6V40a2,2,0,0,1,2-2h90V88a6,6,0,0,0,6,6h50v34a6,6,0,0,0,12,0V88a6,6,0,0,0-1.8-4.3l-56-55.9A5.6,5.6,0,0,0,152,26H56A14,14,0,0,0,42,40v88A6,6,0,0,0,48,134ZM158,46.5,193.5,82H158ZM64,162H48a6,6,0,0,0-6,6v48a6,6,0,0,0,12,0V206H64a22,22,0,0,0,0-44Zm0,32H54V174H64a10,10,0,0,1,0,20Zm130-20v16h18a6,6,0,0,1,0,12H194v14a6,6,0,0,1-12,0V168a6,6,0,0,1,6-6h28a6,6,0,0,1,0,12Zm-66-12H114a6,6,0,0,0-6,6v48a6,6,0,0,0,6,6h14a30,30,0,0,0,0-60Zm0,48h-8V174h8a18,18,0,0,1,0,36Z"/></svg>