<svg id="Flat" xmlns="http://www.w3.org/2000/svg" viewBox="0 0 256 256">
  <path d="M214.00781,88a5.97685,5.97685,0,0,0-1.84424-4.32172l-55.92089-55.921c-.01123-.01123-.02393-.02069-.03516-.0318-.12793-.12609-.26074-.24755-.39941-.36181-.03858-.03174-.08057-.05884-.12012-.08954-.11475-.09-.23047-.17926-.35205-.2608-.03565-.02375-.07324-.0434-.10938-.06641-.12939-.0827-.25976-.16376-.39551-.23663-.02539-.01367-.05273-.02448-.07812-.03778-.14844-.0766-.29834-.14972-.45313-.21405-.01709-.007-.03466-.012-.05175-.01892-.16358-.06629-.32959-.12739-.5-.1792-.01709-.00513-.03467-.00812-.05127-.01313-.16944-.04992-.34131-.09472-.5166-.12976-.04444-.009-.09034-.01269-.13575-.02069-.147-.02588-.29443-.05157-.44531-.06653A5.99765,5.99765,0,0,0,152,26H55.99219a14.01572,14.01572,0,0,0-14,14V216a14.01572,14.01572,0,0,0,14,14H200a14.01572,14.01572,0,0,0,14-14V88.15936C214.00146,88.1059,214.00781,88.05383,214.00781,88ZM158,46.48535,193.51465,82H158ZM200,218H55.99219a2.0026,2.0026,0,0,1-2-2V40a2.00229,2.00229,0,0,1,2-2H146V88a6.00029,6.00029,0,0,0,6,6h50V216A2.0026,2.0026,0,0,1,200,218Zm-39.75732-74.24268a6.00006,6.00006,0,0,1-8.48536,8.48536L134,134.48535V184a6,6,0,0,1-12,0V134.48535l-17.75732,17.75733a6.00006,6.00006,0,0,1-8.48536-8.48536l28-28,.002-.00158a6.05243,6.05243,0,0,1,.9209-.7522c.02148-.01428.04394-.02576.06543-.03967a5.97812,5.97812,0,0,1,.97412-.51245c.02441-.01014.0498-.01752.07422-.02729a5.9594,5.9594,0,0,1,1.04492-.30957c.01806-.00354.03564-.00482.05371-.00818a5.81733,5.81733,0,0,1,2.21484,0c.01807.00336.03565.00464.05371.00818a5.9594,5.9594,0,0,1,1.04492.30957c.02442.00977.04981.01715.07422.02729a5.97812,5.97812,0,0,1,.97412.51245c.02149.01391.04395.02539.06543.03967a6.02846,6.02846,0,0,1,.92139.75269l.00147.00109Z"/>
</svg>
