<svg xmlns="http://www.w3.org/2000/svg" viewBox="0 0 256 256"><path d="M120,162H104a6,6,0,0,0-6,6v48a6,6,0,0,0,12,0V206h10a22,22,0,0,0,0-44Zm0,32H110V174h10a10,10,0,0,1,0,20ZM78,168v32a22,22,0,0,1-44,0,6,6,0,0,1,12,0,10,10,0,0,0,20,0V168a6,6,0,0,1,12,0Zm128,26v11.8a5.6,5.6,0,0,1-1,3.3A27.4,27.4,0,0,1,182,222c-15.4,0-28-13.5-28-30s12.6-30,28-30a26.5,26.5,0,0,1,15.5,5,6,6,0,1,1-7,9.8A14.7,14.7,0,0,0,182,174c-8.8,0-16,8.1-16,18s7.2,18,16,18a15.5,15.5,0,0,0,12-6.1V200h-6a6,6,0,0,1,0-12h12A6,6,0,0,1,206,194Zm8-106a6,6,0,0,0-1.8-4.3l-56-55.9A5.6,5.6,0,0,0,152,26H56A14,14,0,0,0,42,40v88a6,6,0,0,0,12,0V40a2,2,0,0,1,2-2h90V88a6,6,0,0,0,6,6h50v34a6,6,0,0,0,12,0V88ZM158,46.5,193.5,82H158Z"/></svg>