<svg xmlns="http://www.w3.org/2000/svg" viewBox="0 0 256 256"><path d="M126,176a6,6,0,0,1-6,6H110v34a6,6,0,0,1-12,0V182H88a6,6,0,0,1,0-12h32A6,6,0,0,1,126,176Zm-62-6a6,6,0,0,0-6,6v14H42V176a6,6,0,0,0-12,0v40a6,6,0,0,0,12,0V202H58v14a6,6,0,0,0,12,0V176A6,6,0,0,0,64,170Zm172,40H218V176a6,6,0,0,0-12,0v40a6,6,0,0,0,6,6h24a6,6,0,0,0,0-12Zm-50.2-39.7a6,6,0,0,0-6.7,2.2L164,193.7l-15.1-21.2A6,6,0,0,0,138,176v40a6,6,0,0,0,12,0V194.7l9.1,12.8a6.1,6.1,0,0,0,9.8,0l9.1-12.8V216a6,6,0,0,0,12,0V176A6,6,0,0,0,185.8,170.3ZM208,142a6,6,0,0,1-6-6V94H152a6,6,0,0,1-6-6V38H56a2,2,0,0,0-2,2v96a6,6,0,0,1-12,0V40A14,14,0,0,1,56,26h96a5.6,5.6,0,0,1,4.2,1.8l56,55.9A6,6,0,0,1,214,88v48A6,6,0,0,1,208,142ZM158,82h35.5L158,46.5Z"/></svg>