<svg xmlns="http://www.w3.org/2000/svg" viewBox="0 0 256 256"><path d="M214,88a6,6,0,0,0-1.8-4.3l-56-55.9h0l-.4-.3h-.1l-.4-.3h-.1l-.4-.2h0l-.5-.2a.1.1,0,0,0-.1-.1H56A14,14,0,0,0,42,40V216a14,14,0,0,0,14,14H200a14,14,0,0,0,14-14V88ZM158,46.5,193.5,82H158ZM200,218H56a2,2,0,0,1-2-2V40a2,2,0,0,1,2-2h90V88a6,6,0,0,0,6,6h50V216A2,2,0,0,1,200,218Zm-39.8-74.2a5.9,5.9,0,1,1-8.4,8.4L134,134.5V184a6,6,0,0,1-12,0V134.5l-17.8,17.7a5.9,5.9,0,0,1-8.4-8.4l28-28h0a2.4,2.4,0,0,1,.9-.8h0l1-.5h.1l1-.3h2.4l1,.3h.1l1,.5h0a2.4,2.4,0,0,1,.9.8h0Z"/></svg>