<svg xmlns="http://www.w3.org/2000/svg" viewBox="0 0 256 256"><path d="M112.3,153.7a9.9,9.9,0,0,0-16.6,0L76.5,182.5,68.4,170a10,10,0,0,0-16.8,0L19,220.8a6,6,0,0,0-.3,6.1A6.1,6.1,0,0,0,24,230H152a6,6,0,0,0,5-9.3ZM35,218l25-38.9,8,12.5a10.3,10.3,0,0,0,8.3,4.6h.1a9.8,9.8,0,0,0,8.3-4.5L104,162.8,140.8,218ZM214,88a6,6,0,0,0-1.8-4.3l-56-55.9A5.6,5.6,0,0,0,152,26H56A14,14,0,0,0,42,40v96a6,6,0,0,0,12,0V40a2,2,0,0,1,2-2h90V88a6,6,0,0,0,6,6h50V216a2,2,0,0,1-2,2h-8a6,6,0,0,0,0,12h8a14,14,0,0,0,14-14V88ZM158,46.5,193.5,82H158Z"/></svg>