<svg xmlns="http://www.w3.org/2000/svg" viewBox="0 0 256 256"><path d="M214,88a6,6,0,0,0-1.8-4.3l-56-55.9A5.6,5.6,0,0,0,152,26H56A14,14,0,0,0,42,40V216a14,14,0,0,0,14,14H200a14,14,0,0,0,14-14V88ZM158,46.5,193.5,82H158ZM200,218H56a2,2,0,0,1-2-2V40a2,2,0,0,1,2-2h90V88a6,6,0,0,0,6,6h50V216A2,2,0,0,1,200,218Zm-23.8-70.2a5.8,5.8,0,0,1,0,8.4l-24,24a5.9,5.9,0,0,1-8.4-8.4L163.5,152l-19.7-19.8a5.9,5.9,0,0,1,8.4-8.4Zm-64-15.6L92.5,152l19.7,19.8a5.9,5.9,0,1,1-8.4,8.4l-24-24a5.8,5.8,0,0,1,0-8.4l24-24a5.9,5.9,0,0,1,8.4,8.4Z"/></svg>