<svg xmlns="http://www.w3.org/2000/svg" viewBox="0 0 256 256"><path d="M214,88a6,6,0,0,0-1.8-4.3l-56-55.9A5.6,5.6,0,0,0,152,26H56A14,14,0,0,0,42,40v88a6,6,0,0,0,12,0V40a2,2,0,0,1,2-2h90V88a6,6,0,0,0,6,6h50v34a6,6,0,0,0,12,0V88ZM158,46.5,193.5,82H158ZM50,192c0,9.9,7.2,18,16,18a15.1,15.1,0,0,0,10-3.9,5.9,5.9,0,0,1,8.5.4A6,6,0,0,1,84,215a26.9,26.9,0,0,1-18,7c-15.4,0-28-13.5-28-30s12.6-30,28-30a26.9,26.9,0,0,1,18,7,6,6,0,0,1,.5,8.5,5.9,5.9,0,0,1-8.5.4A15.1,15.1,0,0,0,66,174C57.2,174,50,182.1,50,192Zm100,12c0,11.9-8.6,19-23,19a30,30,0,0,1-18.8-6.4,6,6,0,1,1,7.6-9.2A20,20,0,0,0,127,211c11,0,11-4.7,11-7s-3.1-4.3-11.9-6.7S106,192,106,180s8.6-19,21-19a30,30,0,0,1,18.8,6.4,6,6,0,0,1-7.6,9.2A19.7,19.7,0,0,0,127,173c-3.4,0-9,.9-9,7,0,2.4,3.4,3.7,11.2,5.7S150,191.3,150,204Zm64,0c0,11.9-8.6,19-23,19a30,30,0,0,1-18.8-6.4,6,6,0,1,1,7.6-9.2A20,20,0,0,0,191,211c11,0,11-4.7,11-7s-3.1-4.3-11.9-6.7S170,192,170,180s8.6-19,21-19a30,30,0,0,1,18.8,6.4,6,6,0,0,1-7.6,9.2A19.7,19.7,0,0,0,191,173c-3.4,0-9,.9-9,7,0,2.4,3.4,3.7,11.2,5.7S214,191.3,214,204Z"/></svg>