<svg id="Flat" xmlns="http://www.w3.org/2000/svg" viewBox="0 0 256 256">
  <path d="M214.00781,96a5.97731,5.97731,0,0,0-1.84961-4.3266L156.24609,35.76147q-.20946-.21-.43945-.39862c-.03174-.02624-.06641-.04852-.09863-.074-.12158-.09546-.24365-.18933-.37207-.27545-.03662-.02436-.0752-.04462-.11231-.06812-.12793-.08185-.25683-.16229-.3916-.23443-.03027-.01624-.062-.029-.09277-.04468-.14356-.07385-.28858-.1449-.43848-.20722-.02246-.00927-.0459-.01593-.06836-.025-.1582-.0636-.31836-.12311-.4834-.17322-.02343-.0072-.04834-.01153-.07177-.01849-.16309-.04743-.32764-.09107-.4961-.1247-.0498-.01-.10058-.01428-.15088-.023-.14257-.02471-.28515-.0498-.43115-.06433A5.99765,5.99765,0,0,0,152,34H55.99219a14.01572,14.01572,0,0,0-14,14v88a6,6,0,0,0,12,0V48a2.0026,2.0026,0,0,1,2-2H146V96a6.00029,6.00029,0,0,0,6,6h50v34a6,6,0,0,0,12,0V96.15936C214.00146,96.1059,214.00781,96.05383,214.00781,96ZM158,54.48535,193.51465,90H158ZM64,162H48a6.00029,6.00029,0,0,0-6,6v48a6,6,0,0,0,12,0V206H64a22,22,0,0,0,0-44Zm0,32H54V174H64a10,10,0,0,1,0,20Zm60-32H112a6.00029,6.00029,0,0,0-6,6v48a6.00029,6.00029,0,0,0,6,6h12a30,30,0,0,0,0-60Zm0,48h-6V174h6a18,18,0,0,1,0,36Zm90-42a6.00029,6.00029,0,0,1-6,6H186v16h18a6,6,0,0,1,0,12H186v14a6,6,0,0,1-12,0V168a6.00029,6.00029,0,0,1,6-6h28A6.00029,6.00029,0,0,1,214,168Z"/>
</svg>
