<svg xmlns="http://www.w3.org/2000/svg" viewBox="0 0 256 256"><path d="M214,88a6,6,0,0,0-1.8-4.3l-56-55.9h0l-.4-.3h-.1l-.4-.3h-.1l-.4-.2h0l-.5-.2a.1.1,0,0,0-.1-.1H56A14,14,0,0,0,42,40V216a14,14,0,0,0,14,14H200a14,14,0,0,0,14-14V88ZM158,46.5,193.5,82H158ZM200,218H56a2,2,0,0,1-2-2V40a2,2,0,0,1,2-2h90V88a6,6,0,0,0,6,6h50V216A2,2,0,0,1,200,218Zm-48.1-50.6A34,34,0,0,0,100,124a34,34,0,0,0,43.4,51.9L155.6,188a5.9,5.9,0,1,0,8.4-8.4Zm-43.5-3.8h0A22.2,22.2,0,1,1,124,170,22.2,22.2,0,0,1,108.4,163.6Z"/></svg>