<svg xmlns="http://www.w3.org/2000/svg" viewBox="0 0 256 256"><path d="M214,88a6,6,0,0,0-1.8-4.3l-56-55.9A5.6,5.6,0,0,0,152,26H56A14,14,0,0,0,42,40v88a6,6,0,0,0,12,0V40a2,2,0,0,1,2-2h90V88a6,6,0,0,0,6,6h50V216a2,2,0,0,1-2,2H168a6,6,0,0,0,0,12h32a14,14,0,0,0,14-14V88ZM158,46.5,193.5,82H158ZM98.5,146.6a5.8,5.8,0,0,0-6.3.8L69.8,166H48a6,6,0,0,0-6,6v32a6,6,0,0,0,6,6H69.8l22.4,18.6A5.9,5.9,0,0,0,96,230a5.4,5.4,0,0,0,2.5-.6A5.9,5.9,0,0,0,102,224V152A5.9,5.9,0,0,0,98.5,146.6ZM90,211.2,75.8,199.4A5.7,5.7,0,0,0,72,198H54V178H72a5.7,5.7,0,0,0,3.8-1.4L90,164.8ZM146,188a38.1,38.1,0,0,1-14.2,29.7A7,7,0,0,1,128,219a6,6,0,0,1-3.8-10.7,25.9,25.9,0,0,0,0-40.6,6,6,0,0,1-.9-8.4,6.1,6.1,0,0,1,8.5-1A38.1,38.1,0,0,1,146,188Z"/></svg>