<svg xmlns="http://www.w3.org/2000/svg" viewBox="0 0 256 256"><path d="M204.8,171.6,189.5,192l15.3,20.4a6,6,0,0,1-9.6,7.2L182,202l-13.2,17.6a6,6,0,1,1-9.6-7.2L174.5,192l-15.3-20.4a6,6,0,1,1,9.6-7.2L182,182l13.2-17.6a6,6,0,0,1,9.6,7.2ZM72,162a6,6,0,0,0-6,6v32a10,10,0,0,1-20,0,6,6,0,0,0-12,0,22,22,0,0,0,44,0V168A6,6,0,0,0,72,162Zm49.2,23.7c-7.8-2-11.2-3.3-11.2-5.7,0-6.1,5.6-7,9-7a19.7,19.7,0,0,1,11.2,3.6,6,6,0,0,0,7.6-9.2A30,30,0,0,0,119,161c-12.4,0-21,7.8-21,19s11.6,15.1,20.1,17.3S130,201,130,204s0,7-11,7a20,20,0,0,1-11.2-3.6,6,6,0,1,0-7.6,9.2A30,30,0,0,0,119,223c14.4,0,23-7.1,23-19S129.5,187.9,121.2,185.7ZM214,88.2V128a6,6,0,0,1-12,0V94H152a6,6,0,0,1-6-6V38H56a2,2,0,0,0-2,2v88a6,6,0,0,1-12,0V40A14,14,0,0,1,56,26h96a5.6,5.6,0,0,1,4.2,1.8l56,55.9A6,6,0,0,1,214,88ZM158,82h35.5L158,46.5Z"/></svg>