<svg xmlns="http://www.w3.org/2000/svg" viewBox="0 0 256 256"><path d="M217.5,170.3l-20,48a5.9,5.9,0,0,1-11,0l-20-48a6,6,0,0,1,11-4.6L192,200.4l14.5-34.7a6,6,0,1,1,11,4.6ZM76,206.1A15.1,15.1,0,0,1,66,210c-8.8,0-16-8.1-16-18s7.2-18,16-18a15.1,15.1,0,0,1,10,3.9,5.9,5.9,0,0,0,8.5-.4A6,6,0,0,0,84,169a26.9,26.9,0,0,0-18-7c-15.4,0-28,13.5-28,30s12.6,30,28,30a26.9,26.9,0,0,0,18-7,6,6,0,0,0,.5-8.5A5.9,5.9,0,0,0,76,206.1Zm53.2-20.4c-7.8-2-11.2-3.3-11.2-5.7,0-6.1,5.6-7,9-7a19.7,19.7,0,0,1,11.2,3.6,6,6,0,0,0,7.6-9.2A30,30,0,0,0,127,161c-12.4,0-21,7.8-21,19s11.6,15.1,20.1,17.3S138,201,138,204s0,7-11,7a20,20,0,0,1-11.2-3.6,6,6,0,1,0-7.6,9.2A30,30,0,0,0,127,223c14.4,0,23-7.1,23-19S137.5,187.9,129.2,185.7ZM202,94H152a6,6,0,0,1-6-6V38H56a2,2,0,0,0-2,2v88a6,6,0,0,1-12,0V40A14,14,0,0,1,56,26h96a5.6,5.6,0,0,1,4.2,1.8l56,55.9A6,6,0,0,1,214,88v40a6,6,0,0,1-12,0ZM158,82h35.5L158,46.5Z"/></svg>