<svg xmlns="http://www.w3.org/2000/svg" viewBox="0 0 256 256"><path d="M64,162H48a6,6,0,0,0-6,6v48a6,6,0,0,0,12,0V206H64a22,22,0,0,0,0-44Zm0,32H54V174H64a10,10,0,0,1,0,20Zm64-32H112a6,6,0,0,0-6,6v48a6,6,0,0,0,12,0V206h10a22,22,0,0,0,0-44Zm0,32H118V174h10a10,10,0,0,1,0,20Zm86-26a6,6,0,0,1-6,6H196v42a6,6,0,0,1-12,0V174H172a6,6,0,0,1,0-12h36A6,6,0,0,1,214,168Zm0-80a6,6,0,0,0-1.8-4.3l-56-55.9A5.6,5.6,0,0,0,152,26H56A14,14,0,0,0,42,40v88a6,6,0,0,0,12,0V40a2,2,0,0,1,2-2h90V88a6,6,0,0,0,6,6h50v34a6,6,0,0,0,12,0V88ZM158,46.5,193.5,82H158Z"/></svg>