<svg id="Flat" xmlns="http://www.w3.org/2000/svg" viewBox="0 0 256 256">
  <path d="M216,42H40A14.01572,14.01572,0,0,0,26,56V200a14.01572,14.01572,0,0,0,14,14H216a14.01572,14.01572,0,0,0,14-14V56A14.01572,14.01572,0,0,0,216,42Zm0,160H40a2.0026,2.0026,0,0,1-2-2V182H52a6,6,0,0,0,0-12H38V86H52a6,6,0,0,0,0-12H38V56a2.0026,2.0026,0,0,1,2-2H216a2.0026,2.0026,0,0,1,2,2V74H204a6,6,0,0,0,0,12h14v84H204a6,6,0,0,0,0,12h14v18A2.0026,2.0026,0,0,1,216,202ZM114,80a6.00029,6.00029,0,0,1-6,6H92a6,6,0,0,1,0-12h16A6.00029,6.00029,0,0,1,114,80Zm0,96a6.00029,6.00029,0,0,1-6,6H92a6,6,0,0,1,0-12h16A6.00029,6.00029,0,0,1,114,176Zm56-96a6.00029,6.00029,0,0,1-6,6H148a6,6,0,0,1,0-12h16A6.00029,6.00029,0,0,1,170,80Zm0,96a6.00029,6.00029,0,0,1-6,6H148a6,6,0,0,1,0-12h16A6.00029,6.00029,0,0,1,170,176Z"/>
</svg>
