<svg xmlns="http://www.w3.org/2000/svg" viewBox="0 0 256 256"><path d="M216,106H85.6l25.5-6.8h0l69.5-18.7h0l31-8.3a6,6,0,0,0,4.2-7.3L207.5,34a14.2,14.2,0,0,0-6.5-8.5,13.6,13.6,0,0,0-10.6-1.4L35.8,65.5a14,14,0,0,0-9.9,17.1L34,112.8V200a14,14,0,0,0,14,14H208a14,14,0,0,0,14-14V112A6,6,0,0,0,216,106ZM129.3,52.9l34.2,19.8L110.4,86.9,76.1,67.1Zm64.2-17.2h.5a1.9,1.9,0,0,1,1.9,1.5l6.8,25.1-22.8,6.1L145.6,48.5ZM38.9,77.1l20.8-5.6L94,91.3,44.2,104.7,37.5,79.5A2,2,0,0,1,38.9,77.1ZM210,200a2,2,0,0,1-2,2H48a2,2,0,0,1-2-2V118H210Z"/></svg>