<svg id="Flat" xmlns="http://www.w3.org/2000/svg" viewBox="0 0 256 256">
  <path d="M181.99414,128.0094a244.64559,244.64559,0,0,1-18.38379,93.47851,6.00037,6.00037,0,1,1-11.09961-4.5625,232.68,232.68,0,0,0,17.4834-88.916,6,6,0,0,1,12,0Zm-54-42a42.0681,42.0681,0,0,1,31.30469,13.999,6.00023,6.00023,0,1,0,8.9414-8.0039A54.00085,54.00085,0,0,0,73.99414,128.0094,138.09172,138.09172,0,0,1,56.7666,194.83069,6.00006,6.00006,0,1,0,67.26074,200.651a150.12266,150.12266,0,0,0,18.7334-72.6416A42.04718,42.04718,0,0,1,127.99414,86.0094Zm0-60a101.75343,101.75343,0,0,0-34.001,5.80566,6.00035,6.00035,0,0,0,4,11.31446,90.06626,90.06626,0,0,1,120.001,84.87988,283.56586,283.56586,0,0,1-6.98828,62.6709,6.00039,6.00039,0,1,0,11.70312,2.65625,295.6611,295.6611,0,0,0,7.28516-65.32715A102.1153,102.1153,0,0,0,127.99414,26.0094Zm-59.99805,34.915a6.00023,6.00023,0,0,0-8.0039-8.94141,102.15662,102.15662,0,0,0-33.998,76.02637,89.267,89.267,0,0,1-8.1582,37.49707,6.0001,6.0001,0,1,0,10.90625,5.00586,101.19069,101.19069,0,0,0,9.252-42.50293A90.14394,90.14394,0,0,1,67.99609,60.92444Zm45.08008,141.63183a6.00342,6.00342,0,0,0-7.95605,2.9502c-1.94727,4.24316-4.08692,8.47266-6.35938,12.57129a5.99959,5.99959,0,1,0,10.49414,5.81836c2.41895-4.36231,4.69727-8.86524,6.77149-13.38379A6.00064,6.00064,0,0,0,113.07617,202.55627Zm14.90625-80.54785a6.00031,6.00031,0,0,0-6,6,186.73438,186.73438,0,0,1-5.85937,46.50488,5.99982,5.99982,0,1,0,11.62109,2.99024,198.69811,198.69811,0,0,0,6.23828-49.49512A6.0003,6.0003,0,0,0,127.98242,122.00842Z"/>
</svg>
