<svg xmlns="http://www.w3.org/2000/svg" viewBox="0 0 256 256"><path d="M70,128a133.4,133.4,0,0,1-13.9,59.6,6.1,6.1,0,0,1-5.4,3.3,6.6,6.6,0,0,1-2.7-.6,6.1,6.1,0,0,1-2.7-8.1A120.6,120.6,0,0,0,58,128,69.4,69.4,0,0,1,84.3,73.4a5.9,5.9,0,0,1,8.4.9,6,6,0,0,1-.9,8.4A57.6,57.6,0,0,0,70,128Zm58-6a6,6,0,0,0-6,6,186.2,186.2,0,0,1-23.2,90.1,5.9,5.9,0,0,0,2.3,8.1,5.9,5.9,0,0,0,8.2-2.3A197.9,197.9,0,0,0,134,128,6,6,0,0,0,128,122Zm0-32a38,38,0,0,0-38,38,6,6,0,0,0,12,0,26,26,0,0,1,52,0,216.2,216.2,0,0,1-20.7,92.8,6,6,0,0,0,2.9,8,5.7,5.7,0,0,0,2.5.6,6.2,6.2,0,0,0,5.5-3.4A228.1,228.1,0,0,0,166,128,38,38,0,0,0,128,90Zm0-64A102.2,102.2,0,0,0,26,128a89.6,89.6,0,0,1-5.1,30,6,6,0,1,0,11.3,4A100.4,100.4,0,0,0,38,128a90,90,0,0,1,180,0,286,286,0,0,1-5.3,54.8,6,6,0,0,0,4.7,7.1h1.2a6.1,6.1,0,0,0,5.9-4.8A303.8,303.8,0,0,0,230,128,102.1,102.1,0,0,0,128,26ZM94,154.1a6.2,6.2,0,0,0-7.1,4.7,151.7,151.7,0,0,1-17.4,46,5.9,5.9,0,0,0,2.2,8.2,5.4,5.4,0,0,0,3,.8,5.8,5.8,0,0,0,5.2-3,165.6,165.6,0,0,0,18.8-49.6A6,6,0,0,0,94,154.1ZM128,58a83,83,0,0,0-8.7.5,6,6,0,0,0,1.5,12A56.8,56.8,0,0,1,128,70a58,58,0,0,1,58,58,250.5,250.5,0,0,1-1.9,31.3,6.1,6.1,0,0,0,5.2,6.7h.7a6,6,0,0,0,6-5.3,273.4,273.4,0,0,0,2-32.7A70.1,70.1,0,0,0,128,58Zm57.4,128.2a6.1,6.1,0,0,0-7.3,4.3c-1.4,5.7-3.1,11.5-5,17.1a6,6,0,0,0,3.8,7.6,5.8,5.8,0,0,0,1.9.3,6.1,6.1,0,0,0,5.7-4.1c1.9-5.9,3.7-11.9,5.3-17.9A6,6,0,0,0,185.4,186.2Z"/></svg>