<svg id="Flat" xmlns="http://www.w3.org/2000/svg" viewBox="0 0 256 256">
  <path d="M70.00586,128.0094a132.67219,132.67219,0,0,1-13.94336,59.584,6.00027,6.00027,0,1,1-10.74609-5.34179A120.77259,120.77259,0,0,0,58.00586,128.0094,69.70867,69.70867,0,0,1,84.25293,73.36487a6.00019,6.00019,0,1,1,7.50586,9.36328A57.765,57.765,0,0,0,70.00586,128.0094Zm58-6a6.00029,6.00029,0,0,0-6,6A186.13331,186.13331,0,0,1,98.7832,218.07971,6.00006,6.00006,0,1,0,109.27734,223.9a198.16141,198.16141,0,0,0,24.72852-95.89062A6.00029,6.00029,0,0,0,128.00586,122.0094Zm0-32a38.04322,38.04322,0,0,0-38,38,6,6,0,0,0,12,0,26,26,0,0,1,52,0,216.0906,216.0906,0,0,1-20.70117,92.84765,5.99967,5.99967,0,1,0,10.85351,5.11719,227.99331,227.99331,0,0,0,21.84766-97.96484A38.04323,38.04323,0,0,0,128.00586,90.0094Zm0-64.001a102.1153,102.1153,0,0,0-102,102,89.76724,89.76724,0,0,1-5.12012,30,6.00035,6.00035,0,1,0,11.31446,4,101.74379,101.74379,0,0,0,5.80566-34,90,90,0,0,1,180,0,284.25991,284.25991,0,0,1-5.32813,54.83985,6,6,0,1,0,11.77344,2.32031,296.2781,296.2781,0,0,0,5.55469-57.16016A102.1153,102.1153,0,0,0,128.00586,26.00842ZM93.999,154.12854a6.0028,6.0028,0,0,0-7.07324,4.68652,152.75692,152.75692,0,0,1-17.43164,46.04,6,6,0,1,0,10.39453,5.9961,164.71414,164.71414,0,0,0,18.79688-49.64942A5.99937,5.99937,0,0,0,93.999,154.12854ZM128.00586,58.0094a70.82031,70.82031,0,0,0-8.74316.541A6.0003,6.0003,0,0,0,120.749,70.45862a58.81756,58.81756,0,0,1,7.25684-.44922,58.06551,58.06551,0,0,1,58,58,253.303,253.303,0,0,1-1.93457,31.25586,6.00014,6.00014,0,0,0,5.21094,6.69726,6.11593,6.11593,0,0,0,.751.04688,6.0028,6.0028,0,0,0,5.94629-5.25781,265.50754,265.50754,0,0,0,2.02637-32.74219A70.07988,70.07988,0,0,0,128.00586,58.0094Zm57.43066,128.18848a6.006,6.006,0,0,0-7.30566,4.31542c-1.47559,5.73438-3.17774,11.48243-5.05957,17.08594a6.00031,6.00031,0,1,0,11.37695,3.81836c1.97168-5.874,3.75586-11.90137,5.30371-17.91406A5.999,5.999,0,0,0,185.43652,186.19788Z"/>
</svg>
