<svg xmlns="http://www.w3.org/2000/svg" viewBox="0 0 256 256"><path d="M168,98H88a38,38,0,0,0-38,38v8a38,38,0,0,0,38,38h80a38,38,0,0,0,38-38v-8A38,38,0,0,0,168,98Zm26,46a26.1,26.1,0,0,1-26,26H88a26.1,26.1,0,0,1-26-26v-8a26.1,26.1,0,0,1,26-26h80a26.1,26.1,0,0,1,26,26Zm-20-4a10,10,0,1,1-10-10A10,10,0,0,1,174,140Zm-72,0a10,10,0,1,1-10-10A10,10,0,0,1,102,140ZM208,34a30,30,0,0,0-29.4,24H77.4A30,30,0,0,0,18,64v80a70.1,70.1,0,0,0,70,70h80a70.1,70.1,0,0,0,70-70V64A30.1,30.1,0,0,0,208,34Zm18,110a58,58,0,0,1-58,58H88a58,58,0,0,1-58-58V64a18,18,0,0,1,36,0,6,6,0,0,0,6,6H184a6,6,0,0,0,6-6,18,18,0,0,1,36,0Z"/></svg>