<svg id="Flat" xmlns="http://www.w3.org/2000/svg" viewBox="0 0 256 256">
  <path d="M168,98H88a38.04323,38.04323,0,0,0-38,38v8a38.04323,38.04323,0,0,0,38,38h80a38.04323,38.04323,0,0,0,38-38v-8A38.04323,38.04323,0,0,0,168,98Zm26,46a26.02916,26.02916,0,0,1-26,26H88a26.02916,26.02916,0,0,1-26-26v-8a26.02916,26.02916,0,0,1,26-26h80a26.02916,26.02916,0,0,1,26,26Zm-20-4a10,10,0,1,1-10-10A10.01177,10.01177,0,0,1,174,140Zm-72,0a10,10,0,1,1-10-10A10.01146,10.01146,0,0,1,102,140ZM208,34a30.053,30.053,0,0,0-29.39746,24H77.39746A30.002,30.002,0,0,0,18,64v80a70.07958,70.07958,0,0,0,70,70h80a70.07958,70.07958,0,0,0,70-70V64A30.03406,30.03406,0,0,0,208,34Zm18,110a58.06551,58.06551,0,0,1-58,58H88a58.06551,58.06551,0,0,1-58-58V64a18,18,0,0,1,36,0,6.00029,6.00029,0,0,0,6,6H184a6.00029,6.00029,0,0,0,6-6,18,18,0,0,1,36,0Z"/>
</svg>
