<svg id="Flat" xmlns="http://www.w3.org/2000/svg" viewBox="0 0 256 256">
  <path d="M128,238a86.09728,86.09728,0,0,1-86-86c0-22.83008,7.57764-46.29492,22.522-69.74219a5.99942,5.99942,0,0,1,8.72168-1.52832l27.9209,21.51172,29.19678-80.292a6,6,0,0,1,9.32226-2.68555A237.72884,237.72884,0,0,1,176.7251,57.30176C201.11035,88.46094,214,121.207,214,152A86.09728,86.09728,0,0,1,128,238ZM71.2168,94.31641C59.78809,113.89941,54,133.27832,54,152a74,74,0,0,0,148,0c0-19.585-6.02441-50.62891-34.7251-87.30176a241.46018,241.46018,0,0,0-28.585-30.53808l-29.05127,79.89062a6.00008,6.00008,0,0,1-9.30078,2.70215Z"/>
</svg>
