<svg id="Flat" xmlns="http://www.w3.org/2000/svg" viewBox="0 0 256 256">
  <path d="M150.9436,14.626a6.00075,6.00075,0,0,0-9.65625,1.666L109.4436,83.16406,75.24585,60.36523A6.0002,6.0002,0,0,0,66.91772,62.041C47.65063,91.08594,37.88159,117.31445,37.88159,140a90,90,0,0,0,180,0C217.88159,88.544,185.70971,49.333,150.9436,14.626ZM127.88159,218a78.08811,78.08811,0,0,1-78-78c0-19.0127,7.99219-41.28809,23.76709-66.27734l34.90478,23.26953a5.99941,5.99941,0,0,0,8.74512-2.41211L148.44751,29.169C179.00122,60.5332,205.88159,95.78418,205.88159,140A78.08811,78.08811,0,0,1,127.88159,218Z"/>
</svg>
