<svg id="Flat" xmlns="http://www.w3.org/2000/svg" viewBox="0 0 256 256">
  <path d="M185.31787,148.916a57.70368,57.70368,0,0,1-48.40137,48.40234,6.06267,6.06267,0,0,1-.92334.07129,6.00055,6.00055,0,0,1-.90869-11.93067,46.3346,46.3346,0,0,0,38.374-38.375,6,6,0,0,1,11.85937,1.832ZM218,140a90,90,0,0,1-180,0c0-22.68555,9.769-48.91406,29.03613-77.959a6.0002,6.0002,0,0,1,8.32813-1.67579L109.562,83.16406,141.40576,16.292a6.00075,6.00075,0,0,1,9.65625-1.666C185.82812,49.333,218,88.544,218,140Zm-12,0c0-44.21582-26.88037-79.4668-57.43408-110.831L117.417,94.58008a5.9994,5.9994,0,0,1-8.74511,2.41211L73.76709,73.72266C57.99219,98.71191,50,120.9873,50,140a78,78,0,0,0,156,0Z"/>
</svg>
