<svg id="Flat" xmlns="http://www.w3.org/2000/svg" viewBox="0 0 256 256">
  <path d="M162,144a6.00029,6.00029,0,0,1-6,6H134v22a6,6,0,0,1-12,0V150H100a6,6,0,0,1,0-12h22V116a6,6,0,0,1,12,0v22h22A6.00029,6.00029,0,0,1,162,144Zm68.00781-64V208a14.01572,14.01572,0,0,1-14,14h-176a14.01573,14.01573,0,0,1-14-14V80a14.01573,14.01573,0,0,1,14-14H82V56a22.02489,22.02489,0,0,1,22-22h48a22.02489,22.02489,0,0,1,22,22V66h42.00781A14.01572,14.01572,0,0,1,230.00781,80ZM94,66h68V56a10.01146,10.01146,0,0,0-10-10H104A10.01146,10.01146,0,0,0,94,56ZM218.00781,80a2.0026,2.0026,0,0,0-2-2h-176a2.0026,2.0026,0,0,0-2,2V208a2.0026,2.0026,0,0,0,2,2h176a2.0026,2.0026,0,0,0,2-2Z"/>
</svg>
