<svg xmlns="http://www.w3.org/2000/svg" viewBox="0 0 256 256"><path d="M166,76a10,10,0,1,1-10-10A10,10,0,0,1,166,76Zm38.1,82.3c-20.2,25.7-52.9,39.6-97.3,41.4L85.5,250.3A5.8,5.8,0,0,1,80,254h-.4a6.1,6.1,0,0,1-5.4-4.4L59.1,196.9,6.3,181.7A6,6,0,0,1,2,176.3a6.1,6.1,0,0,1,3.7-5.9l50.6-21.3c1.8-44.3,15.7-77,41.4-97.2C138.2,20,195.7,29.3,212.3,33A13.7,13.7,0,0,1,223,43.7C226.7,60.3,236,117.8,204.1,158.3ZM169.6,172a54,54,0,0,1-39.3-46.3A54.2,54.2,0,0,1,83.9,86.3c-9.8,17.5-15.1,39.9-15.7,67a6,6,0,0,1-3.7,5.4L26,174.9l39.7,11.3a6.4,6.4,0,0,1,4.1,4.2L81.1,230l16.2-38.5a6,6,0,0,1,5.4-3.7C129.8,187.2,152.2,181.9,169.6,172ZM211.3,46.2a1.7,1.7,0,0,0-1.5-1.5c-15.4-3.3-68.3-12-104.6,16.6A75.5,75.5,0,0,0,94,72h0a42,42,0,0,0,42,42,6,6,0,0,1,6,6,42,42,0,0,0,42,42h0a81,81,0,0,0,10.7-11.2C223.3,114.5,214.6,61.6,211.3,46.2Z"/></svg>