<svg xmlns="http://www.w3.org/2000/svg" viewBox="0 0 256 256"><path d="M166,76a10,10,0,1,1-10-10A10,10,0,0,1,166,76Zm30.8,90.6c-26.5,26.3-68.7,37.1-126,32.1,1.6,12.6,4,25.9,7.1,40a6.1,6.1,0,0,1-4.6,7.2H72a6.1,6.1,0,0,1-5.9-4.7c-3.3-15.5-5.9-30.1-7.5-43.9-13.8-1.7-28.5-4.2-43.9-7.6a6,6,0,1,1,2.6-11.7c14,3.1,27.4,5.4,40,7.1-5-57.3,5.8-99.5,32.1-126A93.8,93.8,0,0,1,100.2,50l.6-.4c40-29,94.5-20.3,111.5-16.7a14.2,14.2,0,0,1,10.8,10.8C227.1,62.3,237.1,126.3,196.8,166.6Zm-8.5-8.5.6-.7a101,101,0,0,1-61-29.3,101,101,0,0,1-29.3-61l-.7.6C73.8,91.9,64.2,131.8,69.4,186.5,124.2,191.7,164.1,182.2,188.3,158.1Zm23-111.9a1.9,1.9,0,0,0-1.5-1.5c-15.4-3.3-63.9-11.1-99.8,13.1a89.2,89.2,0,0,0,26.4,61.8A88.7,88.7,0,0,0,198.2,146C222.4,110.1,214.6,61.6,211.3,46.2Z"/></svg>