<svg id="Flat" xmlns="http://www.w3.org/2000/svg" viewBox="0 0 256 256">
  <path d="M166,76a10,10,0,1,1-10-10A9.99995,9.99995,0,0,1,166,76Zm30.75293,90.562c-26.42676,26.36572-68.668,37.10352-125.9502,32.11133q2.4419,18.93237,7.0586,40.04443a5.99994,5.99994,0,1,1-11.72266,2.56446q-5.064-23.15259-7.56933-43.88623-20.71143-2.50855-43.85254-7.57129a6.00015,6.00015,0,0,1,2.5664-11.72266q21.08936,4.61646,40.01172,7.06055C52.31836,127.89648,63.0625,85.67188,89.42773,59.249a92.7973,92.7973,0,0,1,10.73487-9.22021,5.93908,5.93908,0,0,1,.63745-.467c40.02661-28.9209,94.53955-20.28589,111.50952-16.613a14.05629,14.05629,0,0,1,10.74121,10.7417C227.08691,62.333,237.11719,126.29,196.75293,166.562Zm-8.47559-8.49512c.21827-.21777.42688-.43994.64185-.65942A102.05565,102.05565,0,0,1,98.58936,67.07568c-.222.21729-.44715.42871-.66748.64942C73.75977,91.93994,64.23633,131.79,69.43848,186.52979,124.2002,191.74707,164.05664,182.23145,188.27734,158.06689Zm23.04493-111.8374a2.0311,2.0311,0,0,0-1.55176-1.55224c-15.32959-3.31861-63.91138-11.10547-99.74878,13.07739A89.98524,89.98524,0,0,0,198.24,145.97925C222.42859,110.147,214.64124,61.55933,211.32227,46.22949Z"/>
</svg>
