<svg id="Flat" xmlns="http://www.w3.org/2000/svg" viewBox="0 0 256 256">
  <path d="M166,76a10,10,0,1,1-10-10A9.99995,9.99995,0,0,1,166,76Zm38.13672,82.25586c-20.24414,25.71777-52.9668,39.64258-97.29785,41.41846l-21.3086,50.65234A6.00006,6.00006,0,0,1,80.00195,254c-.12011,0-.24023-.00342-.36133-.01074a6.00059,6.00059,0,0,1-5.41015-4.34082l-15.085-52.79737L6.34863,181.73145a5.99992,5.99992,0,0,1-.6748-11.29883l50.62988-21.293c1.78613-44.322,15.7168-77.03833,41.43652-97.279,40.42969-31.81763,97.92969-22.51587,114.59082-18.907a14.02738,14.02738,0,0,1,10.71583,10.71485C226.65527,60.32959,235.958,117.83081,204.13672,158.25586Zm-34.49719,13.7937a54.127,54.127,0,0,1-39.3407-46.34839A54.12782,54.12782,0,0,1,83.94629,86.345c-9.82886,17.4773-15.12085,39.87158-15.77149,66.9773a6.00012,6.00012,0,0,1-3.67187,5.387l-38.4668,16.178,39.61524,11.34472a6.00077,6.00077,0,0,1,4.11816,4.11963L81.083,229.95117l16.1875-38.47851a5.99927,5.99927,0,0,1,5.38769-3.67188C129.76465,187.15747,152.16016,181.87207,169.63953,172.04956ZM211.31836,46.20972A1.97451,1.97451,0,0,0,209.79,44.68164c-15.36426-3.32837-68.31836-11.96728-104.62891,16.60913a80.78763,80.78763,0,0,0-11.1604,10.68042L94,72a42.04733,42.04733,0,0,0,42,42,6.00014,6.00014,0,0,1,6,6,42.04733,42.04733,0,0,0,42,42l.01672-.00049a80.76077,80.76077,0,0,0,10.69031-11.166C223.28516,114.52832,214.64746,61.57471,211.31836,46.20972Z"/>
</svg>
