<svg xmlns="http://www.w3.org/2000/svg" viewBox="0 0 256 256"><path d="M218.7,42.6a6,6,0,0,0-6.3.6c-29.2,21.9-54.9,10.9-82-.7s-59.2-25.4-94,.7A6,6,0,0,0,34,48h0V216a6,6,0,0,0,12,0V171.1c28.2-19.6,53.2-8.9,79.6,2.4,16.1,6.9,33.3,14.3,51.7,14.3,13.5,0,27.6-4,42.3-15A6,6,0,0,0,222,168V48A6.2,6.2,0,0,0,218.7,42.6ZM210,59.1v44c-16.8,11.6-32.5,12.5-48,9V66.2C177.2,69.2,193.2,68.5,210,59.1ZM150,63v45.5c-6.5-2.2-13-5-19.6-7.9s-16-6.8-24.4-9.5V45.6c6.5,2.3,13,5.1,19.6,7.9A246.7,246.7,0,0,0,150,63ZM94,42.1V88c-15.2-3.1-31.2-2.3-48,7.1v-44C62.8,39.4,78.5,38.5,94,42.1ZM46,156.9V109.2c16.8-11.6,32.5-12.6,48-9v49.6C78.8,146.8,62.8,147.5,46,156.9Zm60-3.9V103.7c6.5,2.3,13,5.1,19.6,8s16,6.8,24.4,9.5v49.2c-6.5-2.3-13-5.1-19.6-7.9S114.4,155.7,106,153Zm56,21V124.3a77.9,77.9,0,0,0,15.3,1.6,65.8,65.8,0,0,0,32.7-8.7v47.7C193.2,176.6,177.5,177.5,162,174Z"/></svg>