<svg id="Flat" xmlns="http://www.w3.org/2000/svg" viewBox="0 0 256 256">
  <path d="M218.68311,42.6383a5.99975,5.99975,0,0,0-6.28321.56641c-29.22363,21.917-54.87695,10.92383-82.03711-.71484-27.74316-11.89063-59.18945-25.36621-93.96289.71484-.03564.02686-.06689.05713-.10156.08447-.082.06446-.16113.13086-.23926.19922-.07617.06641-.15088.1333-.22314.20264-.063.06079-.12354.124-.18408.18774-.07764.08179-.1543.16407-.22706.24951-.04931.05835-.09619.11866-.14306.179-.07373.09375-.146.188-.21338.28516-.043.062-.08252.12573-.123.18921-.063.09838-.12451.197-.18115.29834-.04053.0725-.07715.14672-.11475.22094-.04834.096-.09668.1919-.13964.2898-.0376.0852-.07032.17212-.104.25927-.03515.09205-.0708.18384-.10156.27735-.03027.09253-.05615.18677-.08252.28125-.02588.094-.05127.18774-.07275.28247-.02.09155-.03663.18408-.05274.2771-.01855.10474-.03564.20972-.04834.31543-.00976.08276-.01709.166-.02344.24975-.00976.12061-.01611.24073-.01855.36158-.00049.03686-.00537.07251-.00537.10962v168a6,6,0,0,0,12,0V171.08044c28.23193-19.57812,53.22217-8.87988,79.63574,2.43872,16.02246,6.86719,33.27832,14.2627,51.69824,14.2627,13.47559,0,27.57324-3.958,42.26465-14.97754a5.99963,5.99963,0,0,0,2.40039-4.7998v-120A5.99944,5.99944,0,0,0,218.68311,42.6383Zm-8.6836,122.29883c-28.23437,19.58008-53.22168,8.87207-79.63672-2.44726-25.167-10.78662-53.38134-22.87647-84.3623-5.55908V51.08044c28.23193-19.57812,53.22217-8.87988,79.63574,2.43872,25.169,10.78711,53.37988,22.87891,84.36328,5.55957Z"/>
</svg>
