<svg xmlns="http://www.w3.org/2000/svg" viewBox="0 0 256 256"><path d="M218.7,42.6a6,6,0,0,0-6.3.6c-29.2,21.9-54.9,10.9-82-.7s-59.2-25.4-94,.7h-.1a.2.2,0,0,0-.2.2l-.3.2a.3.3,0,0,0-.1.2l-.3.2c0,.1-.1.1-.1.2s-.2.2-.2.3-.1.1-.2.2-.1.2-.1.3l-.2.2a.4.4,0,0,1-.1.3.3.3,0,0,1-.1.2c0,.1-.1.2-.1.3s-.1.2-.1.3a.4.4,0,0,1-.1.3V47a.4.4,0,0,1-.1.3v.6h0V216a6,6,0,0,0,12,0V171.1c28.2-19.6,53.2-8.9,79.6,2.4,16.1,6.9,33.3,14.3,51.7,14.3,13.5,0,27.6-4,42.3-15A6,6,0,0,0,222,168V48A6,6,0,0,0,218.7,42.6ZM210,164.9c-28.2,19.6-53.2,8.9-79.6-2.4S77,139.6,46,156.9V51.1c28.2-19.6,53.2-8.9,79.6,2.4S179,76.4,210,59.1Z"/></svg>