<svg id="Flat" xmlns="http://www.w3.org/2000/svg" viewBox="0 0 256 256">
  <path d="M172.34473,52.8623a218.66538,218.66538,0,0,0-41.25782-34.00683,5.99718,5.99718,0,0,0-6.17382,0A218.66538,218.66538,0,0,0,83.65527,52.8623C56.4043,81.47559,42,112.99023,42,144a86,86,0,0,0,172,0C214,112.99023,199.5957,81.47559,172.34473,52.8623ZM94,184c0-29.79785,25.10986-50.4082,34.0083-56.77539C136.92139,133.57227,162,154.09473,162,184a34.04275,34.04275,0,0,1-32.25244,33.95557c-.583.01367-1.16162.04443-1.74756.04443s-1.16455-.03076-1.74756-.04443A34.04275,34.04275,0,0,1,94,184Zm74.42383,21.936A45.71444,45.71444,0,0,0,174,184c0-42.9043-41.16113-68.09375-42.91309-69.14453a5.99718,5.99718,0,0,0-6.17382,0C123.16113,115.90625,82,141.0957,82,184a45.71444,45.71444,0,0,0,5.57617,21.936A73.983,73.983,0,0,1,54,144c0-59.832,59.62012-103.26172,74-112.8623C142.38721,40.74316,202,84.17188,202,144A73.983,73.983,0,0,1,168.42383,205.936Z"/>
</svg>
