<svg xmlns="http://www.w3.org/2000/svg" viewBox="0 0 256 256"><path d="M172.3,52.9a216.8,216.8,0,0,0-41.2-34,5.8,5.8,0,0,0-6.2,0,216.8,216.8,0,0,0-41.2,34C56.4,81.5,42,113,42,144a86,86,0,0,0,172,0C214,113,199.6,81.5,172.3,52.9ZM94,184c0-29.8,25.1-50.4,34-56.8,8.9,6.4,34,26.9,34,56.8a34.1,34.1,0,0,1-32.3,34h-3.4A34.1,34.1,0,0,1,94,184Zm74.4,21.9A45.1,45.1,0,0,0,174,184c0-42.9-41.2-68.1-42.9-69.1a5.8,5.8,0,0,0-6.2,0c-1.7,1-42.9,26.2-42.9,69.1a45.1,45.1,0,0,0,5.6,21.9A73.9,73.9,0,0,1,54,144c0-59.8,59.6-103.3,74-112.9,14.4,9.6,74,53.1,74,112.9A73.9,73.9,0,0,1,168.4,205.9Z"/></svg>