<svg xmlns="http://www.w3.org/2000/svg" viewBox="0 0 256 256"><path d="M184,18H72A14,14,0,0,0,58,32V77.3a14.1,14.1,0,0,0,2.8,8.4l20.8,27.8a1.6,1.6,0,0,1,.4,1.2V224a14,14,0,0,0,14,14h64a14,14,0,0,0,14-14V114.7a1.6,1.6,0,0,1,.4-1.2l20.8-27.8a14.1,14.1,0,0,0,2.8-8.4V32A14,14,0,0,0,184,18ZM72,30H184a2,2,0,0,1,2,2V58H70V32A2,2,0,0,1,72,30ZM185.6,78.5l-20.8,27.8a14.1,14.1,0,0,0-2.8,8.4V224a2,2,0,0,1-2,2H96a2,2,0,0,1-2-2V114.7a14.1,14.1,0,0,0-2.8-8.4L70.4,78.5a1.6,1.6,0,0,1-.4-1.2V70H186v7.3A1.6,1.6,0,0,1,185.6,78.5ZM134,120v32a6,6,0,0,1-12,0V120a6,6,0,0,1,12,0Z"/></svg>