<svg id="Flat" xmlns="http://www.w3.org/2000/svg" viewBox="0 0 256 256">
  <path d="M221.87549,200.79736,158.28467,94.8125A2.00144,2.00144,0,0,1,158,93.78418V38h10a6,6,0,0,0,0-12H88a6,6,0,0,0,0,12H98V93.78418a2.00025,2.00025,0,0,1-.28516,1.02881l-40.1792,66.96618c-.04052.06434-.0791.129-.11669.19446L34.12451,200.79736A13.99991,13.99991,0,0,0,46.12939,222H209.87012a13.99991,13.99991,0,0,0,12.00537-21.20264ZM108.00488,100.9873A14.003,14.003,0,0,0,110,93.78418V38h36V93.78418a14.00006,14.00006,0,0,0,1.99512,7.20264l39.90771,66.5133c-13.81152,8.65442-33.45459,7.01575-57.21924-4.86682-23.08838-11.5437-40.52636-13.13489-53.36914-10.49512Zm103.606,107.99805A1.93451,1.93451,0,0,1,209.87012,210H46.12939a2,2,0,0,1-1.71484-3.02881l22.69238-37.8208c13.83448-9.36853,33.92334-7.927,58.21,4.21631,16.94581,8.47266,30.87354,11.63965,42.22852,11.63965a49.22674,49.22674,0,0,0,26.53369-7.2124l17.50635,29.17724A1.93432,1.93432,0,0,1,211.61084,208.98535Z"/>
</svg>
