<svg id="Flat" xmlns="http://www.w3.org/2000/svg" viewBox="0 0 256 256">
  <path d="M184.00244,18h-112a14.01572,14.01572,0,0,0-14,14V77.333a14.096,14.096,0,0,0,2.79981,8.40137l20.7998,27.73046a2.02023,2.02023,0,0,1,.40039,1.20215V224a14.01572,14.01572,0,0,0,14,14h64a14.01572,14.01572,0,0,0,14-14V114.667a2.01563,2.01563,0,0,1,.39942-1.20019l20.80175-27.73438a14.09147,14.09147,0,0,0,2.79883-8.39941V32A14.01572,14.01572,0,0,0,184.00244,18Zm-112,12h112a2.0026,2.0026,0,0,1,2,2V58h-116V32A2.0026,2.0026,0,0,1,72.00244,30ZM185.603,78.5332l-20.80176,27.73438a14.09147,14.09147,0,0,0-2.79883,8.39941V224a2.0026,2.0026,0,0,1-2,2h-64a2.0026,2.0026,0,0,1-2-2V114.667a14.09607,14.09607,0,0,0-2.7998-8.40137L70.40283,78.53516a2.02023,2.02023,0,0,1-.40039-1.20215V70h116v7.333A2.01568,2.01568,0,0,1,185.603,78.5332ZM134.00244,120v32a6,6,0,0,1-12,0V120a6,6,0,0,1,12,0Z"/>
</svg>
