<svg id="Flat" xmlns="http://www.w3.org/2000/svg" viewBox="0 0 256 256">
  <path d="M217.89941,81.4137l-43.3125-43.31153a13.90473,13.90473,0,0,0-9.90039-4.10254H48a14.01573,14.01573,0,0,0-14,14v160a14.01572,14.01572,0,0,0,14,14H79.82617c.05823.00171.11511.00879.17383.00879s.1156-.00708.17383-.00879h95.65234c.05823.00171.11511.00879.17383.00879s.1156-.00708.17383-.00879H208a14.01572,14.01572,0,0,0,14-14V91.31409A13.90857,13.90857,0,0,0,217.89941,81.4137ZM170,209.99963H86V152.00842a2.0026,2.0026,0,0,1,2-2h80a2.0026,2.0026,0,0,1,2,2Zm40-2a2.0026,2.0026,0,0,1-2,2H182V152.00842a14.01573,14.01573,0,0,0-14-14H88a14.01573,14.01573,0,0,0-14,14v57.99121H48a2.0026,2.0026,0,0,1-2-2v-160a2.0026,2.0026,0,0,1,2-2H164.68652a2.00874,2.00874,0,0,1,1.41407.58692L209.415,89.89905a2.01819,2.01819,0,0,1,.585,1.415ZM158,72.0094a6.00029,6.00029,0,0,1-6,6H96a6,6,0,0,1,0-12h56A6.00029,6.00029,0,0,1,158,72.0094Z"/>
</svg>
