<svg id="Flat" xmlns="http://www.w3.org/2000/svg" viewBox="0 0 256 256">
  <path d="M208,33.99963H91.31348a13.90645,13.90645,0,0,0-9.89942,4.10157L38.10156,81.4137A13.90583,13.90583,0,0,0,34,91.31409V207.99963a14.01572,14.01572,0,0,0,14,14H208a14.01572,14.01572,0,0,0,14-14v-160A14.01573,14.01573,0,0,0,208,33.99963Zm2,174a2.00229,2.00229,0,0,1-2,2H48a2.00229,2.00229,0,0,1-2-2V91.31409a1.98859,1.98859,0,0,1,.58594-1.415l43.314-43.31348a1.98607,1.98607,0,0,1,1.41358-.58594H154V74.0094H96a6,6,0,0,0,0,12h64a6.00029,6.00029,0,0,0,6-6V45.99963h42a2.00229,2.00229,0,0,1,2,2ZM128.00586,114.0094a34,34,0,1,0,34,34A34.03833,34.03833,0,0,0,128.00586,114.0094Zm0,56a22,22,0,1,1,22-22A22.02489,22.02489,0,0,1,128.00586,170.0094Z"/>
</svg>
