<svg id="Flat" xmlns="http://www.w3.org/2000/svg" viewBox="0 0 256 256">
  <path d="M217.89941,81.4137l-43.3125-43.31153a13.90473,13.90473,0,0,0-9.90039-4.10254H48a14.01573,14.01573,0,0,0-14,14v160a14.01572,14.01572,0,0,0,14,14H208a14.01572,14.01572,0,0,0,14-14V91.31409A13.90857,13.90857,0,0,0,217.89941,81.4137ZM210,207.99963a2.0026,2.0026,0,0,1-2,2H48a2.0026,2.0026,0,0,1-2-2v-160a2.0026,2.0026,0,0,1,2-2H90V96.0094a6.00029,6.00029,0,0,0,6,6h64a6,6,0,0,0,0-12H102V45.99963h62.68652a2.00874,2.00874,0,0,1,1.41407.58692L209.415,89.89905a2.01819,2.01819,0,0,1,.585,1.415ZM128.00586,122.0094a34,34,0,1,0,34,34A34.038,34.038,0,0,0,128.00586,122.0094Zm0,56a22,22,0,1,1,22-22A22.02489,22.02489,0,0,1,128.00586,178.0094Z"/>
</svg>
