<svg xmlns="http://www.w3.org/2000/svg" viewBox="0 0 256 256"><path d="M248.7,122.3a13.2,13.2,0,0,0-8.6-6.5,77.6,77.6,0,0,0-29.9-1.5c3.8-18.9.9-33.7-2-42.5A13.9,13.9,0,0,0,192,62.4a80.7,80.7,0,0,0-27.4,11.7,92.7,92.7,0,0,0-28.2-35.7,14.1,14.1,0,0,0-16.8,0A92.7,92.7,0,0,0,91.4,74.1,80.7,80.7,0,0,0,64,62.4a13.9,13.9,0,0,0-16.2,9.4c-2.9,8.8-5.8,23.6-2,42.5a77.6,77.6,0,0,0-29.9,1.5,13.2,13.2,0,0,0-8.6,6.5A13.9,13.9,0,0,0,5.9,133c3.5,12.4,14.1,35.9,46.2,54.4S112.7,206,128,206h0c15.3,0,43.8,0,75.9-18.6s42.7-42,46.2-54.4A13.9,13.9,0,0,0,248.7,122.3ZM194.5,74.1a2,2,0,0,1,2.3,1.4c2.9,8.7,5.6,24.2-.3,44.2a2.9,2.9,0,0,0-.2.9,111.4,111.4,0,0,1-9.8,22,124.2,124.2,0,0,1-25.8,31.2C168.1,160.7,174,143,174,120a116.7,116.7,0,0,0-5-34.4A70.8,70.8,0,0,1,194.5,74.1ZM126.8,48a2,2,0,0,1,2.4,0c9.9,7.4,32.8,29.1,32.8,72,0,45.3-25.2,66.8-34,72.9-8.6-6.1-34-27.9-34-72.9C94,77.1,116.9,55.4,126.8,48ZM59.2,75.5a2,2,0,0,1,2.3-1.4A70.8,70.8,0,0,1,87,85.6,116.7,116.7,0,0,0,82,120c0,23,5.9,40.7,13.3,53.8a124.2,124.2,0,0,1-25.8-31.2,108.3,108.3,0,0,1-9.8-22,2.9,2.9,0,0,0-.2-.9C53.6,99.7,56.3,84.2,59.2,75.5ZM17.5,129.8a2.3,2.3,0,0,1,.1-1.5,1.9,1.9,0,0,1,1.2-.9c6.6-1.7,17-3,30.4-.4a116.4,116.4,0,0,0,9.9,21.6A135.7,135.7,0,0,0,99,192a122.8,122.8,0,0,1-40.9-14.9C29.6,160.6,20.4,140.4,17.5,129.8Zm221,0c-2.9,10.6-12.1,30.8-40.6,47.3A122.8,122.8,0,0,1,157,192a135.7,135.7,0,0,0,39.9-43.4,116.4,116.4,0,0,0,9.9-21.6c13.4-2.6,23.8-1.3,30.4.4a1.9,1.9,0,0,1,1.2.9A2.3,2.3,0,0,1,238.5,129.8Z"/></svg>