<svg id="Flat" xmlns="http://www.w3.org/2000/svg" viewBox="0 0 256 256">
  <path d="M244.99756,83.31787c.01318-.01953.02392-.04053.03662-.06006a6.01261,6.01261,0,0,0,.51465-.97754c.00976-.0249.01758-.0498.02734-.0747a5.938,5.938,0,0,0,.30908-1.04346c.00391-.019.00537-.03857.00879-.05811a5.80428,5.80428,0,0,0,0-2.208c-.00342-.01954-.00488-.03907-.00879-.05811a5.9449,5.9449,0,0,0-.30908-1.043c-.00976-.0249-.01758-.05029-.02734-.07519a6.01261,6.01261,0,0,0-.51465-.97754c-.0127-.01953-.02344-.04053-.03662-.06006a6.0103,6.0103,0,0,0-.76318-.93213L204.24219,35.75781a5.99936,5.99936,0,0,0-8.48438,8.48438L225.51465,74H176a54.06156,54.06156,0,0,0-54,54,42.04718,42.04718,0,0,1-42,42H77.459a34,34,0,1,0,0,12H80a54.06156,54.06156,0,0,0,54-54,42.04718,42.04718,0,0,1,42-42h49.51465l-29.75684,29.75781a5.99936,5.99936,0,1,0,8.48438,8.48438L244.23438,84.25A6.0103,6.0103,0,0,0,244.99756,83.31787ZM44,198a22,22,0,1,1,22-22A22.02489,22.02489,0,0,1,44,198Z"/>
</svg>
