<svg id="Flat" xmlns="http://www.w3.org/2000/svg" viewBox="0 0 256 256">
  <path d="M248.74316,122.28906a13.83805,13.83805,0,0,0-8.60791-6.53906,78.97046,78.97046,0,0,0-29.92041-1.48975c3.74512-18.82275.89258-33.68164-1.97363-42.50634a13.96516,13.96516,0,0,0-16.22559-9.36817A81.159,81.159,0,0,0,164.58691,74.0918a92.34777,92.34777,0,0,0-28.18457-35.68457,13.95724,13.95724,0,0,0-16.80468,0A92.34447,92.34447,0,0,0,91.4126,74.09277,81.13637,81.13637,0,0,0,63.98584,62.38672,13.96555,13.96555,0,0,0,47.7583,71.75391c-2.86572,8.8247-5.71826,23.68359-1.97314,42.50732A79.0041,79.0041,0,0,0,15.86475,115.75a13.95893,13.95893,0,0,0-9.96631,17.26367c3.45654,12.35938,14.05664,35.86621,46.21191,54.43164C84.2373,205.99316,112.68848,206,127.98242,206l.01172.001L128,206.00049l.00586.00049.01172-.001c15.29394,0,43.74463-.00684,75.87207-18.55469,32.15527-18.56543,42.75537-42.07226,46.21191-54.43164A13.83559,13.83559,0,0,0,248.74316,122.28906Zm-54.23095-48.166a1.9996,1.9996,0,0,1,2.31591,1.33789c2.82276,8.6914,5.59278,24.24511-.30957,44.2334a5.96886,5.96886,0,0,0-.26464.90429,106.53981,106.53981,0,0,1-9.73731,22.04785,125.20283,125.20283,0,0,1-25.81445,31.10694C168.12109,160.65039,174,143.01074,174,120a114.6511,114.6511,0,0,0-5.02588-34.38135A69.8881,69.8881,0,0,1,194.51221,74.12305ZM126.77539,48.02441a2.03327,2.03327,0,0,1,2.44922,0C139.0791,55.37988,162,77.11816,162,120c0,45.292-25.20947,66.7793-33.978,72.88281C119.36719,186.77148,94,165.01172,94,120,94,77.11816,116.9209,55.37988,126.77539,48.02441Zm-67.604,27.43653A1.99189,1.99189,0,0,1,61.48877,74.124a69.88911,69.88911,0,0,1,25.5376,11.49414A114.64051,114.64051,0,0,0,82,120c0,23.01074,5.87891,40.65039,13.29785,53.75342A125.20283,125.20283,0,0,1,69.4834,142.64648a106.50458,106.50458,0,0,1-9.74512-22.07519,5.95688,5.95688,0,0,0-.25293-.86475C53.57812,99.7124,56.34814,84.15381,59.17139,75.46094ZM17.45508,129.78125a1.95927,1.95927,0,0,1,1.39013-2.40723c6.55616-1.68017,16.97315-3.01367,30.34864-.39453a120.39571,120.39571,0,0,0,9.897,21.667A137.25669,137.25669,0,0,0,99.00439,191.9873a122.59561,122.59561,0,0,1-40.894-14.93457C29.64258,160.61719,20.419,140.38086,17.45508,129.78125Zm221.08984,0c-2.96435,10.59961-12.1875,30.83594-40.65527,47.27148a122.59342,122.59342,0,0,1-40.89356,14.93457,137.26124,137.26124,0,0,0,39.91309-43.34082,120.39218,120.39218,0,0,0,9.897-21.6665c13.375-2.61963,23.792-1.28711,30.34912.395a1.95787,1.95787,0,0,1,1.38965,2.40625Z"/>
</svg>
