<svg id="Flat" xmlns="http://www.w3.org/2000/svg" viewBox="0 0 256 256">
  <path d="M207.35352,134.55469c-4.44043-2.56348-10.43848-4.749-17.91407-6.55469,7.47559-1.80566,13.47364-3.99121,17.91407-6.55469a34.00039,34.00039,0,0,0-34-58.89062c-4.44043,2.564-9.332,6.66552-14.63331,12.23633C160.89355,67.41455,162,61.12744,162,56a34,34,0,0,0-68,0c0,5.12744,1.10645,11.41455,3.27979,18.791C91.97852,69.22021,87.08691,65.11865,82.646,62.55469a34.00039,34.00039,0,0,0-34,58.89062c4.44091,2.56348,10.439,4.749,17.91455,6.55469-7.47559,1.80566-13.47364,3.99121-17.91455,6.55469a34.00039,34.00039,0,0,0,34,58.89062c4.44091-2.564,9.33252-6.66552,14.63379-12.23633C95.10645,188.58545,94,194.87256,94,200a34,34,0,0,0,68,0c0-5.12744-1.10645-11.41455-3.27979-18.791,5.30127,5.57032,10.19288,9.67237,14.63379,12.23633a34.00027,34.00027,0,0,0,33.99952-58.89062ZM106,128a22,22,0,1,1,22,22A22.02489,22.02489,0,0,1,106,128Zm73.35352-55.05273a22.00015,22.00015,0,1,1,22,38.10546c-7.35157,4.24463-21.208,7.43018-40.23438,9.28809a33.99413,33.99413,0,0,0-9.936-17.1792C162.30859,87.60547,171.99951,77.19336,179.35352,72.94727ZM128,34a22.02489,22.02489,0,0,1,22,22c0,8.48877-4.16895,22.08057-12.07129,39.48242a33.99065,33.99065,0,0,0-19.85742,0C110.169,78.08057,106,64.48877,106,56A22.02489,22.02489,0,0,1,128,34ZM46.59375,81A22.02519,22.02519,0,0,1,76.646,72.94727c7.355,4.24609,17.04541,14.6582,28.17089,30.21435a33.99413,33.99413,0,0,0-9.936,17.1792c-19.02637-1.85791-32.88281-5.04346-40.23438-9.28809A22.02489,22.02489,0,0,1,46.59375,81ZM76.64648,183.05273A22.00027,22.00027,0,0,1,54.646,144.94727c7.352-4.24463,21.20849-7.43018,40.23486-9.28809a33.99413,33.99413,0,0,0,9.936,17.1792C93.69141,168.39453,84.00049,178.80664,76.64648,183.05273ZM128,222a22.02489,22.02489,0,0,1-22-22c0-8.48877,4.16895-22.08057,12.07129-39.48242a33.99065,33.99065,0,0,0,19.85742,0C145.83105,177.91943,150,191.51123,150,200A22.02489,22.02489,0,0,1,128,222Zm81.40625-47a22.02541,22.02541,0,0,1-30.05273,8.05273c-7.3545-4.24609-17.04541-14.65918-28.17041-30.21435a33.99413,33.99413,0,0,0,9.936-17.1792c19.02637,1.85791,32.88281,5.04346,40.23438,9.28809A22.02489,22.02489,0,0,1,209.40625,175Z"/>
</svg>
