<svg xmlns="http://www.w3.org/2000/svg" viewBox="0 0 256 256"><path d="M178.6,211.3a5.9,5.9,0,0,1-4.9,6.9h-1a6,6,0,0,1-5.9-5l-3.9-23.6a6,6,0,1,1,11.8-1.9ZM128,186a6,6,0,0,0-6,6v32a6,6,0,0,0,12,0V192A6,6,0,0,0,128,186Zm-39.8-3.2a6,6,0,0,0-6.9,5l-3.9,23.5a5.9,5.9,0,0,0,4.9,6.9h1a6,6,0,0,0,5.9-5l3.9-23.6A6,6,0,0,0,88.2,182.8ZM246,112c0,15.4-12.9,29.4-36.4,39.5C187.7,160.8,158.7,166,128,166s-59.7-5.2-81.6-14.5C22.9,141.4,10,127.4,10,112c0-21.2,25.1-39.6,65.6-48.6a61.7,61.7,0,0,1,96-11.5,64.3,64.3,0,0,1,9.2,11.6C221.1,72.5,246,90.9,246,112ZM78,96.8v3.1a10,10,0,0,0,7.7,9.7A192.1,192.1,0,0,0,128,114a192.1,192.1,0,0,0,42.3-4.4,10,10,0,0,0,7.7-9.7V96a50.3,50.3,0,0,0-6.2-24.2l-.2-.2a48,48,0,0,0-8.5-11.2A49.6,49.6,0,0,0,128,46h-.7C100.1,46.4,78,69.2,78,96.8ZM234,112c0-13.3-18.4-26.6-46.8-34.5A63.3,63.3,0,0,1,190,96v3.9a21.8,21.8,0,0,1-17,21.4,204.5,204.5,0,0,1-45,4.7,204.5,204.5,0,0,1-45-4.7A21.8,21.8,0,0,1,66,99.9h0v-3a62.7,62.7,0,0,1,3.1-19.5C40.5,85.3,22,98.6,22,112c0,10.1,10.6,20.5,29.2,28.4C71.6,149.2,98.9,154,128,154s56.4-4.8,76.8-13.6C223.4,132.5,234,122.1,234,112Z"/></svg>