<svg id="Flat" xmlns="http://www.w3.org/2000/svg" viewBox="0 0 256 256">
  <path d="M240.25781,111.814A14.03458,14.03458,0,0,0,228.90039,106H214V88a14.01572,14.01572,0,0,0-14-14H130.6665a2.01254,2.01254,0,0,1-1.1997-.3999L101.7334,52.7998A14.08743,14.08743,0,0,0,93.3335,50H40A14.01572,14.01572,0,0,0,26,64V208a6.03113,6.03113,0,0,0,.03418.63379c.002.02148.00684.042.00977.06348a5.96391,5.96391,0,0,0,.103.60937c.01221.05469.02783.1084.04151.16211.043.16895.09131.335.148.49805.0205.05859.042.1167.064.1748q.09522.24756.21045.48291c.02344.04834.04492.09717.06982.14453a5.99586,5.99586,0,0,0,.75928,1.12451c.0459.05323.09424.10352.14111.15528q.1582.17284.32911.33252c.05468.05127.10937.102.166.15088.12793.11132.26172.21582.39942.3164.0415.02979.08105.063.123.0918a5.97388,5.97388,0,0,0,.5791.35352c.01954.01025.03956.01855.0586.02832a5.959,5.959,0,0,0,.55322.25195c.05371.02148.10791.03955.1626.05957.15869.05762.31982.10889.48486.15332.06348.01709.12647.03418.19092.04932.16406.03808.33057.06836.49951.09326.061.00879.12158.02051.18311.02783A6.06334,6.06334,0,0,0,32,214H208a6.00033,6.00033,0,0,0,5.69238-4.10254l28.48975-85.47021A14.03419,14.03419,0,0,0,240.25781,111.814ZM40,62H93.3335a2.01254,2.01254,0,0,1,1.1997.3999l27.7334,20.8003A14.08743,14.08743,0,0,0,130.6665,86H200a2.00229,2.00229,0,0,1,2,2v18H146.42236a13.95424,13.95424,0,0,0-7.76611,2.35156L118.687,121.66406A1.9941,1.9941,0,0,1,117.57764,122H69.416a13.9326,13.9326,0,0,0-12.99854,8.80078L38,176.84473V64A2.00229,2.00229,0,0,1,40,62Zm190.79785,58.63232L203.67578,202H40.8623l26.69678-66.74268A1.99107,1.99107,0,0,1,69.416,134h48.16162a13.95424,13.95424,0,0,0,7.76611-2.35156l19.96924-13.3125A1.9941,1.9941,0,0,1,146.42236,118h82.478a2,2,0,0,1,1.89746,2.63232Z"/>
</svg>
