<svg id="Flat" xmlns="http://www.w3.org/2000/svg" viewBox="0 0 256 256">
  <path d="M216,74H130.48535L102.58594,46.10107A13.90685,13.90685,0,0,0,92.68652,42H40A14.01572,14.01572,0,0,0,26,56V200.61523A13.39963,13.39963,0,0,0,39.38477,214h177.5039A13.12634,13.12634,0,0,0,230,200.88867V88A14.01572,14.01572,0,0,0,216,74ZM40,54H92.68652a1.98635,1.98635,0,0,1,1.41407.58594L113.51465,74H38V56A2.0026,2.0026,0,0,1,40,54ZM218,200.88867A1.11259,1.11259,0,0,1,216.88867,202H39.38477A1.40284,1.40284,0,0,1,38,200.61523V86H216a2.0026,2.0026,0,0,1,2,2Z"/>
</svg>
