<svg xmlns="http://www.w3.org/2000/svg" viewBox="0 0 256 256"><path d="M216,74H130.7a1.6,1.6,0,0,1-1.2-.4L101.7,52.8A14.1,14.1,0,0,0,93.3,50H40A14,14,0,0,0,26,64V200a14,14,0,0,0,14,14H216.9A13.1,13.1,0,0,0,230,200.9V88A14,14,0,0,0,216,74Zm2,126.9a1.1,1.1,0,0,1-1.1,1.1H40a2,2,0,0,1-2-2V64a2,2,0,0,1,2-2H93.3a1.6,1.6,0,0,1,1.2.4l27.8,20.8a14.1,14.1,0,0,0,8.4,2.8H216a2,2,0,0,1,2,2ZM158,144a6,6,0,0,1-6,6H134v18a6,6,0,0,1-12,0V150H104a6,6,0,0,1,0-12h18V120a6,6,0,0,1,12,0v18h18A6,6,0,0,1,158,144Z"/></svg>