<svg xmlns="http://www.w3.org/2000/svg" viewBox="0 0 256 256"><path d="M124.4,84.8,94.5,62.4a1.6,1.6,0,0,0-1.2-.4H40a2,2,0,0,0-2,2V80a6,6,0,0,1-12,0V64A14,14,0,0,1,40,50H93.3a14.1,14.1,0,0,1,8.4,2.8l29.9,22.4a6,6,0,0,1-7.2,9.6ZM88,202H39.4a1.4,1.4,0,0,1-1.4-1.4V192a6,6,0,0,0-12,0v8.6A13.4,13.4,0,0,0,39.4,214H88a6,6,0,0,0,0-12Zm72,0H128a6,6,0,0,0,0,12h32a6,6,0,0,0,0-12Zm64-56a6,6,0,0,0-6,6v48.9a1.1,1.1,0,0,1-1.1,1.1H200a6,6,0,0,0,0,12h16.9A13.1,13.1,0,0,0,230,200.9V152A6,6,0,0,0,224,146Zm-8-72H168a6,6,0,0,0,0,12h48a2,2,0,0,1,2,2v24a6,6,0,0,0,12,0V88A14,14,0,0,0,216,74ZM32,158a6,6,0,0,0,6-6V120a6,6,0,0,0-12,0v32A6,6,0,0,0,32,158Z"/></svg>