<svg xmlns="http://www.w3.org/2000/svg" viewBox="0 0 256 256"><path d="M94,208a6,6,0,0,1-6,6H39.4A13.4,13.4,0,0,1,26,200.6V192a6,6,0,0,1,12,0v8.6a1.4,1.4,0,0,0,1.4,1.4H88A6,6,0,0,1,94,208Zm66-6H128a6,6,0,0,0,0,12h32a6,6,0,0,0,0-12Zm64-56a6,6,0,0,0-6,6v48.9a1.1,1.1,0,0,1-1.1,1.1H200a6,6,0,0,0,0,12h16.9A13.1,13.1,0,0,0,230,200.9V152A6,6,0,0,0,224,146Zm-8-72H168a6,6,0,0,0,0,12h48a2,2,0,0,1,2,2v24a6,6,0,0,0,12,0V88A14,14,0,0,0,216,74ZM26,80V56A14,14,0,0,1,40,42H92.7a14.3,14.3,0,0,1,9.9,4.1l29.6,29.7a5.7,5.7,0,0,1,1.3,6.5A6,6,0,0,1,128,86H32A6,6,0,0,1,26,80Zm12-6h75.5L94.1,54.6a2,2,0,0,0-1.4-.6H40a2,2,0,0,0-2,2Zm-6,84a6,6,0,0,0,6-6V120a6,6,0,0,0-12,0v32A6,6,0,0,0,32,158Z"/></svg>