<svg id="Flat" xmlns="http://www.w3.org/2000/svg" viewBox="0 0 256 256">
  <path d="M216.88892,214H40a14.01581,14.01581,0,0,1-14-14V64A14.01581,14.01581,0,0,1,40,50H93.33337a14.08792,14.08792,0,0,1,8.39991,2.80029L129.46667,73.6001a2.01357,2.01357,0,0,0,1.2.3999H216a14.01572,14.01572,0,0,1,14,14V200.88867A13.12612,13.12612,0,0,1,216.88892,214ZM40,62a2.00213,2.00213,0,0,0-2,2V200a2.00213,2.00213,0,0,0,2,2H216.88892A1.11253,1.11253,0,0,0,218,200.88867V88a2.00213,2.00213,0,0,0-2-2H130.66663a14.08792,14.08792,0,0,1-8.39991-2.80029L94.53333,62.3999a2.01357,2.01357,0,0,0-1.2-.3999Z"/>
</svg>
