<svg xmlns="http://www.w3.org/2000/svg" viewBox="0 0 256 256"><path d="M224,158H214v-6a26,26,0,0,0-52,0v6H152a6,6,0,0,0-6,6v44a6,6,0,0,0,6,6h72a6,6,0,0,0,6-6V164A6,6,0,0,0,224,158Zm-50-6a14,14,0,0,1,28,0v6H174Zm44,50H158V170h60ZM216,74H130.5L102.6,46.1A14.3,14.3,0,0,0,92.7,42H40A14,14,0,0,0,26,56V200.6A13.4,13.4,0,0,0,39.4,214h73.2a6,6,0,1,0,0-12H39.4a1.4,1.4,0,0,1-1.4-1.4V86H216a2,2,0,0,1,2,2v16a6,6,0,0,0,12,0V88A14,14,0,0,0,216,74ZM40,54H92.7a2,2,0,0,1,1.4.6L113.5,74H38V56A2,2,0,0,1,40,54Z"/></svg>