<svg xmlns="http://www.w3.org/2000/svg" viewBox="0 0 256 256"><path d="M224,66H154.7a1.6,1.6,0,0,1-1.2-.4L125.7,44.8a14.1,14.1,0,0,0-8.4-2.8H72A14,14,0,0,0,58,56V74H40A14,14,0,0,0,26,88V200a14,14,0,0,0,14,14H192.9A13.1,13.1,0,0,0,206,200.9V182h18.9A13.1,13.1,0,0,0,238,168.9V80A14,14,0,0,0,224,66ZM194,200.9a1.1,1.1,0,0,1-1.1,1.1H40a2,2,0,0,1-2-2V88a2,2,0,0,1,2-2H85.3a1.6,1.6,0,0,1,1.2.4l27.8,20.8a14.1,14.1,0,0,0,8.4,2.8H192a2,2,0,0,1,2,2Zm32-32a1.1,1.1,0,0,1-1.1,1.1H206V112a14,14,0,0,0-14-14H122.7a1.6,1.6,0,0,1-1.2-.4L93.7,76.8A14.1,14.1,0,0,0,85.3,74H70V56a2,2,0,0,1,2-2h45.3a1.6,1.6,0,0,1,1.2.4l27.8,20.8a14.1,14.1,0,0,0,8.4,2.8H224a2,2,0,0,1,2,2Z"/></svg>