<svg id="Flat" xmlns="http://www.w3.org/2000/svg" viewBox="0 0 256 256">
  <path d="M224,66H154.6665a2.01254,2.01254,0,0,1-1.1997-.3999L125.7334,44.80029A14.08792,14.08792,0,0,0,117.3335,42H72A14.01572,14.01572,0,0,0,58,56V74H40A14.01572,14.01572,0,0,0,26,88V200a14.01572,14.01572,0,0,0,14,14H192.88867A13.12634,13.12634,0,0,0,206,200.88867V182h18.88867A13.12634,13.12634,0,0,0,238,168.88867V80A14.01572,14.01572,0,0,0,224,66ZM194,200.88867A1.11259,1.11259,0,0,1,192.88867,202H40a2.00229,2.00229,0,0,1-2-2V88a2.00229,2.00229,0,0,1,2-2H85.3335a2.01254,2.01254,0,0,1,1.1997.3999l27.7334,20.79981A14.08792,14.08792,0,0,0,122.6665,110H192a2.00229,2.00229,0,0,1,2,2Zm32-32A1.11259,1.11259,0,0,1,224.88867,170H206V112a14.01572,14.01572,0,0,0-14-14H122.6665a2.01254,2.01254,0,0,1-1.1997-.3999L93.7334,76.80029A14.08792,14.08792,0,0,0,85.3335,74H70V56a2.00229,2.00229,0,0,1,2-2h45.3335a2.01254,2.01254,0,0,1,1.1997.3999l27.7334,20.79981A14.08792,14.08792,0,0,0,154.6665,78H224a2.00229,2.00229,0,0,1,2,2Z"/>
</svg>
