<svg id="Flat" xmlns="http://www.w3.org/2000/svg" viewBox="0 0 256 256">
  <path d="M158,144a6.00029,6.00029,0,0,1-6,6H104a6,6,0,0,1,0-12h48A6.00029,6.00029,0,0,1,158,144Zm72-56V200.88867A13.12634,13.12634,0,0,1,216.88867,214H40a14.01572,14.01572,0,0,1-14-14V64A14.01572,14.01572,0,0,1,40,50H93.3335a14.08792,14.08792,0,0,1,8.3999,2.80029L129.4668,73.6001A2.01254,2.01254,0,0,0,130.6665,74H216A14.01572,14.01572,0,0,1,230,88Zm-12,0a2.00229,2.00229,0,0,0-2-2H130.6665a14.08792,14.08792,0,0,1-8.3999-2.80029L94.5332,62.3999A2.01254,2.01254,0,0,0,93.3335,62H40a2.00229,2.00229,0,0,0-2,2V200a2.00229,2.00229,0,0,0,2,2H216.88867A1.11259,1.11259,0,0,0,218,200.88867Z"/>
</svg>
