<svg xmlns="http://www.w3.org/2000/svg" viewBox="0 0 256 256"><path d="M240.3,111.8a14.3,14.3,0,0,0-11.4-5.8H214V88a14,14,0,0,0-14-14H130.7a1.6,1.6,0,0,1-1.2-.4L101.7,52.8A14.1,14.1,0,0,0,93.3,50H40A14,14,0,0,0,26,64V208h0a5.9,5.9,0,0,0,1,3.4,6.1,6.1,0,0,0,5,2.6H208a6,6,0,0,0,5.7-4.1l28.5-85.5A14.2,14.2,0,0,0,240.3,111.8ZM40,62H93.3a1.6,1.6,0,0,1,1.2.4l27.8,20.8a14.1,14.1,0,0,0,8.4,2.8H200a2,2,0,0,1,2,2v18H146.4a13.2,13.2,0,0,0-7.7,2.4l-20,13.3a2,2,0,0,1-1.1.3H69.4a14.1,14.1,0,0,0-13,8.8L38,176.8V64A2,2,0,0,1,40,62Zm190.8,58.6L203.7,202H40.9l26.7-66.7a1.9,1.9,0,0,1,1.8-1.3h48.2a13.2,13.2,0,0,0,7.7-2.4l20-13.3a2,2,0,0,1,1.1-.3h82.5a1.9,1.9,0,0,1,1.6.8A2,2,0,0,1,230.8,120.6Z"/></svg>