<svg id="Flat" xmlns="http://www.w3.org/2000/svg" viewBox="0 0 256 256">
  <path d="M240.25781,111.814A14.0339,14.0339,0,0,0,228.90039,106H214V88a14.01572,14.01572,0,0,0-14-14H130.6665a2.01254,2.01254,0,0,1-1.1997-.3999L101.7334,52.7998A14.08743,14.08743,0,0,0,93.3335,50H40A14.01572,14.01572,0,0,0,26,64V208c0,.03809.00488.0752.00586.11328.00146.08447.00732.16846.01269.25244.00879.14307.021.28467.03956.42481.01025.07568.02148.15136.03466.22656.02637.1543.05909.30615.09717.45605.01514.06153.02979.12256.04688.1836.05175.17969.11181.355.1792.52734.0122.03125.022.06348.03466.09522a6.0854,6.0854,0,0,0,.293.61279c.01123.02.02442.03857.03565.05859q.145.25635.31445.4961c.01367.02.02441.0415.03906.06152.02588.03613.05713.06787.084.103.09228.12207.188.24023.28906.355.05127.05762.10205.11474.15478.16992.10694.11182.21827.21826.3335.32129.04736.043.09277.08789.1416.12939a6.17149,6.17149,0,0,0,.52246.39649l.01319.00781a5.94713,5.94713,0,0,0,.55322.3252c.04834.02539.09766.04687.147.0708.14942.07324.30176.14111.4585.20166.05908.023.11865.04443.17871.06543q.22632.07983.46.14111c.06348.0166.126.03418.18945.04883.16114.03662.32422.06494.48975.08838.05908.0083.11719.0205.17676.02685A6.0473,6.0473,0,0,0,32,214H208a6.00033,6.00033,0,0,0,5.69238-4.10254l28.48975-85.47021A14.03419,14.03419,0,0,0,240.25781,111.814ZM40,62H93.3335a2.01254,2.01254,0,0,1,1.1997.3999l27.7334,20.8003A14.08743,14.08743,0,0,0,130.6665,86H200a2.0026,2.0026,0,0,1,2,2v18H69.76611a13.98254,13.98254,0,0,0-13.28173,9.57275L38,171.02637V64A2.0026,2.0026,0,0,1,40,62Zm190.79785,58.63232L203.67578,202H40.32471l27.54394-82.63232A1.998,1.998,0,0,1,69.76611,118H228.90039a2,2,0,0,1,1.89746,2.63232Z"/>
</svg>
