<svg id="Flat" xmlns="http://www.w3.org/2000/svg" viewBox="0 0 256 256">
  <path d="M216,74H130L101.7334,52.80005A14.08761,14.08761,0,0,0,93.3335,50H40A14.01572,14.01572,0,0,0,26,64V200a14.01572,14.01572,0,0,0,14,14H216a14.01572,14.01572,0,0,0,14-14V88A14.01572,14.01572,0,0,0,216,74ZM38,64a2.00245,2.00245,0,0,1,2-2H93.3335a2.01111,2.01111,0,0,1,1.1997.40015L118,80,94.5332,97.59985A2.01111,2.01111,0,0,1,93.3335,98H38ZM218,200a2.00229,2.00229,0,0,1-2,2H40a2.027,2.027,0,0,1-2-2V110H93.3335a14.08761,14.08761,0,0,0,8.3999-2.8L130,86h86a2.00245,2.00245,0,0,1,2,2Z"/>
</svg>
