<svg xmlns="http://www.w3.org/2000/svg" viewBox="0 0 256 256"><path d="M207.1,195.1a30,30,0,1,0-38.2,0,38,38,0,0,0-17.7,23.4,6,6,0,0,0,4.3,7.3l1.5.2a6,6,0,0,0,5.8-4.5,26,26,0,0,1,50.4,0,6,6,0,1,0,11.6-3A38,38,0,0,0,207.1,195.1ZM170,172a18,18,0,1,1,18,18A18.1,18.1,0,0,1,170,172Zm46-98H130.5L102.6,46.1A14.3,14.3,0,0,0,92.7,42H40A14,14,0,0,0,26,56V200.6A13.4,13.4,0,0,0,39.4,214h81.2a6,6,0,1,0,0-12H39.4a1.4,1.4,0,0,1-1.4-1.4V86H216a2,2,0,0,1,2,2v32a6,6,0,0,0,12,0V88A14,14,0,0,0,216,74ZM40,54H92.7a2,2,0,0,1,1.4.6L113.5,74H38V56A2,2,0,0,1,40,54Z"/></svg>