<svg id="Flat" xmlns="http://www.w3.org/2000/svg" viewBox="0 0 256 256">
  <path d="M216,74H130L101.7334,52.7998A14.08743,14.08743,0,0,0,93.3335,50H40A14.01572,14.01572,0,0,0,26,64V200a14.01572,14.01572,0,0,0,14,14H216a14.01572,14.01572,0,0,0,14-14V88A14.01572,14.01572,0,0,0,216,74ZM38,64a2.0026,2.0026,0,0,1,2-2H93.3335a2.00975,2.00975,0,0,1,1.1997.40039L118,80,94.5332,97.59961A2.00975,2.00975,0,0,1,93.3335,98H38ZM218,200a2.0026,2.0026,0,0,1-2,2H40a2.027,2.027,0,0,1-2-2V110H93.3335a14.08743,14.08743,0,0,0,8.3999-2.7998L130,86h86a2.0026,2.0026,0,0,1,2,2Zm-60.00293-52a6.00029,6.00029,0,0,1-6,6h-18v18a6,6,0,0,1-12,0V154h-18a6,6,0,0,1,0-12h18V124a6,6,0,0,1,12,0v18h18A6.00029,6.00029,0,0,1,157.99707,148Z"/>
</svg>
