<svg id="Flat" xmlns="http://www.w3.org/2000/svg" viewBox="0 0 256 256">
  <path d="M216,74H130.6665a2.01254,2.01254,0,0,1-1.1997-.3999L101.7334,52.80029A14.08792,14.08792,0,0,0,93.3335,50H40A14.01572,14.01572,0,0,0,26,64V200a14.01572,14.01572,0,0,0,14,14H216.88867A13.12634,13.12634,0,0,0,230,200.88867V88A14.01572,14.01572,0,0,0,216,74Zm2,126.88867A1.11259,1.11259,0,0,1,216.88867,202H40a2.00229,2.00229,0,0,1-2-2V64a2.00229,2.00229,0,0,1,2-2H93.3335a2.01254,2.01254,0,0,1,1.1997.3999l27.7334,20.79981A14.08792,14.08792,0,0,0,130.6665,86H216a2.00229,2.00229,0,0,1,2,2ZM158,144a6.00029,6.00029,0,0,1-6,6H134v18a6,6,0,0,1-12,0V150H104a6,6,0,0,1,0-12h18V120a6,6,0,0,1,12,0v18h18A6.00029,6.00029,0,0,1,158,144Z"/>
</svg>
