<svg id="Flat" xmlns="http://www.w3.org/2000/svg" viewBox="0 0 256 256">
  <path d="M224.00781,56.64453A30.12847,30.12847,0,0,0,199.356,31.99219C168.38574,26.74756,110.03271,24.3457,67.189,67.189c-42.84277,42.84229-40.4414,101.19581-35.19677,132.16651A30.12789,30.12789,0,0,0,56.644,224.00781a198.64462,198.64462,0,0,0,32.93457,2.81153c30.68164,0,68.85743-7.63282,99.23243-38.00782C231.65381,145.96826,229.25244,87.61523,224.00781,56.64453Zm-57.8789-15.55517a186.9204,186.9204,0,0,1,31.22314,2.73437A18.11746,18.11746,0,0,1,212.17627,58.648a183.2519,183.2519,0,0,1,2.65918,35.70215L161.63672,41.15137Q163.85449,41.09058,166.12891,41.08936ZM58.648,212.17627a18.11746,18.11746,0,0,1-14.82422-14.82422,183.2519,183.2519,0,0,1-2.65918-35.70215l53.18555,53.186A183.2339,183.2339,0,0,1,58.648,212.17627Zm121.67773-31.8501c-11.85351,11.85352-34.405,28.52881-70.24609,33.26856L42.40576,145.92041c4.73975-35.84131,21.4148-58.39258,33.26856-70.24658,11.85424-11.854,34.39453-28.5376,70.2373-33.27637l67.68262,67.68213C208.85474,145.9209,192.17944,168.47217,180.32568,180.32617Zm-16.083-88.56885a5.99989,5.99989,0,0,1,0,8.48536l-16.44385,16.44384,10.38476,10.38477a5.99988,5.99988,0,0,1-8.48535,8.48486l-10.38452-10.38427L125.17163,139.314l10.38452,10.38428a6,6,0,0,1-8.48535,8.48535l-10.38452-10.38476-16.4436,16.44385a6.00006,6.00006,0,0,1-8.48536-8.48536l16.44385-16.44384L97.81641,128.92871a5.99988,5.99988,0,1,1,8.48535-8.48486l10.38452,10.38428,14.14209-14.14161-10.38452-10.38476a6,6,0,0,1,8.48535-8.48535l10.38452,10.38476,16.4436-16.44385A5.99989,5.99989,0,0,1,164.24268,91.75732Z"/>
</svg>
