<svg xmlns="http://www.w3.org/2000/svg" viewBox="0 0 256 256"><path d="M224,56.6A30,30,0,0,0,199.4,32c-31-5.3-89.4-7.7-132.2,35.2S26.7,168.4,32,199.4A30,30,0,0,0,56.6,224a203.3,203.3,0,0,0,33,2.8c30.7,0,68.8-7.6,99.2-38C231.7,146,229.3,87.6,224,56.6ZM166.1,41.1a187.4,187.4,0,0,1,31.3,2.7,18.3,18.3,0,0,1,14.8,14.8,183.5,183.5,0,0,1,2.6,35.8L161.6,41.2ZM58.6,212.2a18.3,18.3,0,0,1-14.8-14.8,183.5,183.5,0,0,1-2.6-35.8l53.2,53.2A183.5,183.5,0,0,1,58.6,212.2Zm121.7-31.9c-11.8,11.9-34.4,28.6-70.2,33.3L42.4,145.9c4.7-35.8,21.4-58.4,33.3-70.2s34.4-28.6,70.2-33.3l67.7,67.7C208.9,145.9,192.2,168.5,180.3,180.3ZM164.2,91.8a5.8,5.8,0,0,1,0,8.4l-16.4,16.5,10.4,10.4a6.1,6.1,0,0,1,0,8.5,6.2,6.2,0,0,1-8.5,0l-10.4-10.4-14.1,14.1,10.4,10.4a6,6,0,0,1-4.3,10.2,5.7,5.7,0,0,1-4.2-1.7l-10.4-10.4-16.5,16.4a5.9,5.9,0,0,1-8.4-8.4l16.4-16.5L97.8,128.9a6,6,0,0,1,8.5-8.5l10.4,10.4,14.1-14.1-10.4-10.4a6,6,0,0,1,8.5-8.5l10.4,10.4,16.5-16.4A5.8,5.8,0,0,1,164.2,91.8Z"/></svg>