<svg id="Flat" xmlns="http://www.w3.org/2000/svg" viewBox="0 0 256 256">
  <path d="M78,72V32a6,6,0,0,1,12,0V72a6,6,0,0,1-12,0Zm39.91846-40.98633a6.00008,6.00008,0,0,0-11.83692,1.97266l7.91455,47.48828a29.99984,29.99984,0,0,1-59.99218,0l7.91455-47.48828a6.00008,6.00008,0,0,0-11.83692-1.97266l-8,48A6.01441,6.01441,0,0,0,42,80a42.05889,42.05889,0,0,0,36,41.56445V224a6,6,0,0,0,12,0V121.56445A42.05889,42.05889,0,0,0,126,80a6.01441,6.01441,0,0,0-.08154-.98633ZM210,32V224a6,6,0,0,1-12,0V166H148a6,6,0,0,1-5.96582-6.63916,395.97874,395.97874,0,0,1,11.69287-58.99658c11.83594-41.77295,28.06006-66.67139,48.22217-74.00293A5.99972,5.99972,0,0,1,210,32ZM198,42.10645C172.31592,61.49854,158.94678,123.15625,154.77686,154H198Z"/>
</svg>
