<svg id="Flat" xmlns="http://www.w3.org/2000/svg" viewBox="0 0 256 256">
  <path d="M128.00122,242a5.99944,5.99944,0,0,1-4.121-1.6377l-72-68A6.00108,6.00108,0,0,1,50,168V100a6.00014,6.00014,0,0,1,6-6h56.90869L51.88025,36.3623A6.00015,6.00015,0,0,1,56,26H200a6.00014,6.00014,0,0,1,6,6v68a6.00014,6.00014,0,0,1-6,6H143.09131l61.02832,57.6377A6.00008,6.00008,0,0,1,200,174H134v62a6.00048,6.00048,0,0,1-5.99878,6ZM62,165.41357l60,56.667V168a6.00014,6.00014,0,0,1,6-6h56.90869L125.6145,106H62ZM130.3855,94H194V38H71.09131Z"/>
</svg>
