<svg id="Flat" xmlns="http://www.w3.org/2000/svg" viewBox="0 0 256 256">
  <path d="M112.00146,231.05566A14.00969,14.00969,0,0,1,98,217.05176v-77.959a1.99032,1.99032,0,0,0-.51855-1.34277L31.72559,65.418A14,14,0,0,1,42.08447,42H213.91553A14.00034,14.00034,0,0,1,224.2749,65.418L158.52,137.74805a1.99315,1.99315,0,0,0-.52,1.34472v56.626a13.9684,13.9684,0,0,1-6.23486,11.64844l-31.99952,21.333A13.98276,13.98276,0,0,1,112.00146,231.05566ZM42.08447,54A1.99979,1.99979,0,0,0,40.605,57.3457l65.75391,72.33008A13.96349,13.96349,0,0,1,110,139.09277v77.959a1.9996,1.9996,0,0,0,3.10889,1.66406l32.00049-21.333A1.99687,1.99687,0,0,0,146,195.71875v-56.626a13.96631,13.96631,0,0,1,3.64258-9.41894L215.39551,57.3457a2.00009,2.00009,0,0,0-1.48-3.3457Z"/>
</svg>
