<svg xmlns="http://www.w3.org/2000/svg" viewBox="0 0 256 256"><path d="M112,231.1a14.1,14.1,0,0,1-6.6-1.7A13.9,13.9,0,0,1,98,217.1v-78a1.9,1.9,0,0,0-.5-1.3L31.7,65.4a13.7,13.7,0,0,1-2.4-15.1A13.9,13.9,0,0,1,42.1,42H213.9a13.9,13.9,0,0,1,12.8,8.3,13.7,13.7,0,0,1-2.4,15.1l-65.8,72.3a2.4,2.4,0,0,0-.5,1.4v56.6a14,14,0,0,1-6.2,11.7l-32,21.3A14,14,0,0,1,112,231.1ZM42.1,54a1.8,1.8,0,0,0-1.8,1.2,1.7,1.7,0,0,0,.3,2.1l65.8,72.4a14.1,14.1,0,0,1,3.6,9.4v78a1.9,1.9,0,0,0,1.1,1.7,1.8,1.8,0,0,0,2-.1l32-21.3a2,2,0,0,0,.9-1.7V139.1a14.1,14.1,0,0,1,3.6-9.4l65.8-72.4a1.7,1.7,0,0,0,.3-2.1,1.8,1.8,0,0,0-1.8-1.2Z"/></svg>