<svg id="Flat" xmlns="http://www.w3.org/2000/svg" viewBox="0 0 256 256">
  <path d="M184,114H152a6,6,0,0,1,0-12h32a6,6,0,0,1,0,12Zm-80-12H94V92a6,6,0,0,0-12,0v10H72a6,6,0,0,0,0,12H82v10a6,6,0,0,0,12,0V114h10a6,6,0,0,0,0-12ZM217.90869,221.47949a34.03013,34.03013,0,0,1-29.94385-9.4375q-.1765-.17578-.33545-.36328l-41.29-45.83594-36.62745.14649L68.37109,211.68848q-.15526.18164-.32666.35351a34.00135,34.00135,0,0,1-57.523-29.95117c.00586-.03418.01221-.06836.01905-.10352L26.84375,98.13965c.00928-.06836.02051-.13672.03223-.20606A57.87135,57.87135,0,0,1,84.00439,50l87.9961-.25977h.01758A58.08259,58.08259,0,0,1,229.07422,97.3877c.01391.061.033.11962.04492.18164l16.35059,84.42285c.00634.03222.0122.06543.01806.09863A34.0393,34.0393,0,0,1,217.90869,221.47949Zm-45.91455-67.73926a46,46,0,1,0,.03955-92L84.022,62A45.89509,45.89509,0,0,0,38.74951,99.70508c-.01709.13672-.03857.27344-.06543.41113L22.33057,184.22363a22.00166,22.00166,0,0,0,37.10449,19.45606l43.1543-47.70508A6.00106,6.00106,0,0,1,107.01514,154Zm61.68408,30.48145-9.7937-50.56787a58.05406,58.05406,0,0,1-51.86645,32.08642l-9.58594.03809,34.14551,37.9043a22.00131,22.00131,0,0,0,37.10058-19.46094Z"/>
</svg>
