<svg xmlns="http://www.w3.org/2000/svg" viewBox="0 0 256 256"><path d="M184,114H152a6,6,0,0,1,0-12h32a6,6,0,0,1,0,12Zm-80-12H94V92a6,6,0,0,0-12,0v10H72a6,6,0,0,0,0,12H82v10a6,6,0,0,0,12,0V114h10a6,6,0,0,0,0-12ZM217.9,221.5a39.2,39.2,0,0,1-5.9.5,33.7,33.7,0,0,1-24-10l-.4-.3-41.3-45.9-36.6.2L68.4,211.7l-.4.3a33.7,33.7,0,0,1-24,10,39.2,39.2,0,0,1-5.9-.5,34.1,34.1,0,0,1-27.6-39.4h0L26.8,98.1c.1,0,.1-.1.1-.2A57.9,57.9,0,0,1,84,50l88-.3h0a58.1,58.1,0,0,1,57.1,47.7v.2L245.5,182h0A34.1,34.1,0,0,1,217.9,221.5ZM172,153.7a46,46,0,1,0,0-92L84,62A45.9,45.9,0,0,0,38.7,99.7v.4L22.3,184.2a22.2,22.2,0,0,0,17.9,25.5,21.9,21.9,0,0,0,19.2-6L102.6,156a5.7,5.7,0,0,1,4.4-2Zm61.7,30.5-9.8-50.5a58,58,0,0,1-51.9,32h-9.6l34.2,37.9a22,22,0,0,0,37.1-19.5Z"/></svg>