<svg id="Flat" xmlns="http://www.w3.org/2000/svg" viewBox="0 0 256 256">
  <path d="M239.55664,71.07129l-19.314-19.31348a5.99971,5.99971,0,0,0-8.48536,8.48438L231.0708,79.55566A9.93549,9.93549,0,0,1,234,86.62695V168a10,10,0,0,1-20,0V128a22.02489,22.02489,0,0,0-22-22H174V56a22.02489,22.02489,0,0,0-22-22H72A22.02489,22.02489,0,0,0,50,56V210H32a6,6,0,0,0,0,12H192a6,6,0,0,0,0-12H174V118h18a10.01177,10.01177,0,0,1,10,10v40a22,22,0,0,0,44,0V86.62695A21.85483,21.85483,0,0,0,239.55664,71.07129ZM62,210V56A10.01146,10.01146,0,0,1,72,46h80a10.01146,10.01146,0,0,1,10,10V210Zm80-98a6.00029,6.00029,0,0,1-6,6H88a6,6,0,0,1,0-12h48A6.00029,6.00029,0,0,1,142,112Z"/>
</svg>
