<svg id="Flat" xmlns="http://www.w3.org/2000/svg" viewBox="0 0 256 256">
  <path d="M205.64648,82.083A109.25787,109.25787,0,0,0,128.00293,50H128c-.12842,0-.26025.001-.38867.001-49.74024.17187-91.8418,33.96923-105.1919,79.96679a5.89425,5.89425,0,0,0-.8706,3.16065A111.7741,111.7741,0,0,0,18,161.12891V184a14.01572,14.01572,0,0,0,14,14H224a14.01572,14.01572,0,0,0,14-14V160A109.26442,109.26442,0,0,0,205.64648,82.083ZM226,184a2.0026,2.0026,0,0,1-2,2H115.6123l60.97852-79.46875a5.99978,5.99978,0,0,0-9.52-7.30469L100.48682,186H32a2.0026,2.0026,0,0,1-2-2V161.12891a100.02646,100.02646,0,0,1,2.14062-20.602l24.75977,6.63427a6.00035,6.00035,0,0,0,3.106-11.59179l-24.69043-6.61573C47.9458,91.89648,81.74414,64.665,122,62.18994V88a6,6,0,0,0,12,0V62.18652A98.17145,98.17145,0,0,1,220.97754,128.875l-24.98389,6.69434a6.00035,6.00035,0,1,0,3.106,11.59179l24.96484-6.68945A99.03417,99.03417,0,0,1,226,160Z"/>
</svg>
