<svg xmlns="http://www.w3.org/2000/svg" viewBox="0 0 256 256"><path d="M205.6,82.1A109.1,109.1,0,0,0,128,50h-.4c-49.7.2-91.8,34-105.2,80a6.9,6.9,0,0,0-.7,1.5,10,10,0,0,0-.2,1.6,113.1,113.1,0,0,0-3.5,28V184a14,14,0,0,0,14,14H224a14,14,0,0,0,14-14V160A109.1,109.1,0,0,0,205.6,82.1ZM226,184a2,2,0,0,1-2,2H115.6l61-79.5a6,6,0,1,0-9.5-7.3L100.5,186H32a2,2,0,0,1-2-2V161.1a100.7,100.7,0,0,1,2.1-20.6l24.8,6.7,1.6.2a5.9,5.9,0,0,0,5.7-4.5,5.9,5.9,0,0,0-4.2-7.3L35.3,129C47.9,91.9,81.7,64.7,122,62.2V88a6,6,0,0,0,12,0V62.2a98.2,98.2,0,0,1,87,66.7l-25,6.7a5.9,5.9,0,0,0-4.2,7.3,5.9,5.9,0,0,0,5.7,4.5l1.6-.2,25-6.7A104.8,104.8,0,0,1,226,160Z"/></svg>