<svg id="Flat" xmlns="http://www.w3.org/2000/svg" viewBox="0 0 256.00098 256.00098">
  <path d="M128.002,74a54,54,0,1,0,54,54A54.06093,54.06093,0,0,0,128.002,74Zm0,96a42,42,0,1,1,42-42A42.04781,42.04781,0,0,1,128.002,170Zm102.79883-21.60156-12.85644-17.14209c.03808-1.08545.05761-2.17383.05761-3.25537,0-1.082-.01953-2.17139-.0581-3.25782l12.852-17.14111a14.02237,14.02237,0,0,0,2.1709-12.57275,109.638,109.638,0,0,0-7.41651-17.92676,14.03011,14.03011,0,0,0-10.43457-7.36865l-21.2124-3.02979c-.73975-.79394-1.49561-1.57764-2.26074-2.34326-.76465-.76465-1.54883-1.521-2.34473-2.26221l-3.0332-21.20947a14.0247,14.0247,0,0,0-7.355-10.4248,109.65733,109.65733,0,0,0-17.92041-7.43116,14.0325,14.0325,0,0,0-12.58887,2.168L131.25781,38.05811q-3.25635-.11572-6.5122,0L107.603,25.20508a14.02438,14.02438,0,0,0-12.57227-2.17041,109.60071,109.60071,0,0,0-17.92529,7.417,14.02775,14.02775,0,0,0-7.36914,10.43457L66.70605,62.09912c-.79638.7417-1.58007,1.49756-2.34277,2.26074-.76611.76563-1.52246,1.54981-2.26269,2.34473L40.89111,69.7373a14.02471,14.02471,0,0,0-10.4248,7.355,109.69372,109.69372,0,0,0-7.43115,17.91992,14.03029,14.03029,0,0,0,2.168,12.58935l12.85694,17.14209c-.03858,1.085-.05811,2.17383-.05811,3.25537s.01953,2.1709.05811,3.25782l-12.852,17.1416a14.02151,14.02151,0,0,0-2.17139,12.57226,109.65488,109.65488,0,0,0,7.417,17.92676,14.03011,14.03011,0,0,0,10.43457,7.36865l21.21241,3.02979c.74023.79443,1.49609,1.57812,2.26074,2.34326.76465.76465,1.54883,1.521,2.34472,2.26221l3.03321,21.209a14.02309,14.02309,0,0,0,7.355,10.42529,109.657,109.657,0,0,0,17.92041,7.43116,13.89518,13.89518,0,0,0,4.165.63672,14.05073,14.05073,0,0,0,8.42383-2.80469l17.14257-12.85694q3.25635.11646,6.51221,0l17.14258,12.853a14.02459,14.02459,0,0,0,12.57226,2.17041,109.6086,109.6086,0,0,0,17.9253-7.417,14.02775,14.02775,0,0,0,7.36914-10.43457l3.03027-21.21289c.79688-.7417,1.58057-1.49805,2.34277-2.26074.76612-.76612,1.52247-1.5503,2.2627-2.34473l21.20947-3.03271a14.02561,14.02561,0,0,0,10.42481-7.355,109.635,109.635,0,0,0,7.43115-17.92041A14.031,14.031,0,0,0,230.80078,148.39844Zm-9.28125,8.99463a97.69022,97.69022,0,0,1-6.61523,15.95361,1.99769,1.99769,0,0,1-1.49024,1.03711l-23.34765,3.33887a5.99948,5.99948,0,0,0-3.64112,1.96c-1.04541,1.17968-2.1455,2.34814-3.2705,3.47314-1.1167,1.1167-2.28467,2.2168-3.47168,3.26953a5.99717,5.99717,0,0,0-1.959,3.64063L174.38867,213.417a2.00225,2.00225,0,0,1-1.04394,1.49414,97.61352,97.61352,0,0,1-15.9585,6.603,1.99515,1.99515,0,0,1-1.78711-.3208l-18.87012-14.148a6.00663,6.00663,0,0,0-3.95947-1.18848,79.854,79.854,0,0,1-9.53564,0,5.988,5.988,0,0,0-3.96045,1.18946l-18.87012,14.15283a2.00026,2.00026,0,0,1-1.79443.31836,97.5846,97.5846,0,0,1-15.95362-6.61572,1.996,1.996,0,0,1-1.03711-1.49024L78.2793,190.06445a5.9978,5.9978,0,0,0-1.95948-3.64013c-1.18408-1.04932-2.35205-2.14991-3.47216-3.27-1.12207-1.12256-2.22266-2.291-3.27051-3.47266a5.99954,5.99954,0,0,0-3.64111-1.96L42.585,174.38623a2.00025,2.00025,0,0,1-1.49414-1.043,97.606,97.606,0,0,1-6.60254-15.95947,1.99446,1.99446,0,0,1,.32031-1.78662l14.14795-18.87012a5.998,5.998,0,0,0,1.18848-3.96c-.09473-1.57764-.14307-3.18213-.14307-4.76807,0-1.58691.04785-3.19043.14307-4.7666a6.00182,6.00182,0,0,0-1.189-3.96094L34.80273,100.40137a2.00175,2.00175,0,0,1-.31836-1.79444A97.59138,97.59138,0,0,1,41.1001,82.65332a1.996,1.996,0,0,1,1.48974-1.03711L65.9375,78.27734a5.99958,5.99958,0,0,0,3.64062-1.96c1.0459-1.18017,2.14649-2.34814,3.271-3.47265,1.11719-1.11817,2.28565-2.21827,3.47168-3.27a5.9997,5.9997,0,0,0,1.959-3.64063L81.61523,42.5835a2.00224,2.00224,0,0,1,1.044-1.49463,97.631,97.631,0,0,1,15.9585-6.603,1.92124,1.92124,0,0,1,.5747-.08691,2.029,2.029,0,0,1,1.21241.40722L119.27441,48.9541a6.00648,6.00648,0,0,0,3.96,1.189,80.06033,80.06033,0,0,1,9.53565,0,5.98641,5.98641,0,0,0,3.96045-1.18946l18.87012-14.15283a2.00026,2.00026,0,0,1,1.79443-.31836,97.56663,97.56663,0,0,1,15.95361,6.61572,1.996,1.996,0,0,1,1.03711,1.49024l3.33887,23.34717a6.00034,6.00034,0,0,0,1.95947,3.64062c1.1836,1.04883,2.35205,2.14893,3.47217,3.269,1.12305,1.124,2.22363,2.29249,3.26953,3.47315a6.0033,6.0033,0,0,0,3.64209,1.96L213.419,81.61377a1.99941,1.99941,0,0,1,1.49414,1.043,97.63506,97.63506,0,0,1,6.60253,15.95947,1.99421,1.99421,0,0,1-.32031,1.78662l-14.148,18.87012a5.99961,5.99961,0,0,0-1.18847,3.96c.09521,1.57617.14306,3.18018.14306,4.76807,0,1.58642-.04785,3.18994-.14306,4.76709a6.0032,6.0032,0,0,0,1.189,3.96045l14.15332,18.86962A2.003,2.003,0,0,1,221.51953,157.39307Z"/>
</svg>
