<svg xmlns="http://www.w3.org/2000/svg" viewBox="0 0 256 256"><path d="M128,74a54,54,0,1,0,54,54A54,54,0,0,0,128,74Zm0,96a42,42,0,1,1,42-42A42,42,0,0,1,128,170Zm105.2-18.4-15.3-20.4c.1-2.2,0-4.7,0-6.4l15.3-20.4a6,6,0,0,0,1-5.2,109.1,109.1,0,0,0-10.8-25.9,6.1,6.1,0,0,0-4.3-3l-25.2-3.6c-1.5-1.6-3-3.1-4.6-4.6l-3.6-25.2a6,6,0,0,0-2.9-4.3,113.4,113.4,0,0,0-26-10.8,6,6,0,0,0-5.2,1L131.3,38.1q-3.3-.1-6.6,0L104.4,22.8a6,6,0,0,0-5.2-1A109.1,109.1,0,0,0,73.3,32.6a6.1,6.1,0,0,0-3,4.3L66.7,62.1c-1.6,1.5-3.1,3-4.6,4.6L36.9,70.3a6,6,0,0,0-4.3,2.9,113.4,113.4,0,0,0-10.8,26,6,6,0,0,0,1,5.2l15.3,20.4c-.1,2.2,0,4.7,0,6.4L22.8,151.6a6,6,0,0,0-1,5.2,109.1,109.1,0,0,0,10.8,25.9,5.8,5.8,0,0,0,4.3,3l25.2,3.6,4.6,4.6,3.6,25.2a6.1,6.1,0,0,0,3,4.3,110.9,110.9,0,0,0,25.9,10.8l1.6.2a6,6,0,0,0,3.6-1.2l20.3-15.3h6.6l20.3,15.3a6,6,0,0,0,5.2,1,111.6,111.6,0,0,0,26-10.8,6,6,0,0,0,2.9-4.3l3.6-25.2c1.6-1.5,3.3-3.3,4.5-4.6l25.3-3.6a6,6,0,0,0,4.3-2.9,113.4,113.4,0,0,0,10.8-26A6,6,0,0,0,233.2,151.6Zm-18.8,22.6-24.3,3.5a6.9,6.9,0,0,0-3.6,1.8c-1.2,1.4-4.9,5.2-6.8,6.9a6.2,6.2,0,0,0-2,3.7l-3.5,24.3a92.8,92.8,0,0,1-17.8,7.4L136.7,207a6,6,0,0,0-3.9-1.1h-9.6a6,6,0,0,0-3.9,1.1L99.6,221.8a86.8,86.8,0,0,1-17.8-7.4l-3.5-24.3a6.2,6.2,0,0,0-2-3.7,70.6,70.6,0,0,1-6.7-6.7,6.2,6.2,0,0,0-3.7-2l-24.3-3.5a92.8,92.8,0,0,1-7.4-17.8L49,136.7a6.4,6.4,0,0,0,1.2-3.8c-.1-1.8-.2-7.1-.1-9.7a6,6,0,0,0-1.1-3.9L34.2,99.6a86.8,86.8,0,0,1,7.4-17.8l24.3-3.5a6.2,6.2,0,0,0,3.7-2,70.6,70.6,0,0,1,6.7-6.7,6.2,6.2,0,0,0,2-3.7l3.5-24.3a92.8,92.8,0,0,1,17.8-7.4L119.3,49a6,6,0,0,0,3.9,1.1q4.8-.1,9.6,0a6,6,0,0,0,3.9-1.1l19.7-14.8a86.8,86.8,0,0,1,17.8,7.4l3.5,24.3a6.2,6.2,0,0,0,2,3.7,70.6,70.6,0,0,1,6.7,6.7,6.2,6.2,0,0,0,3.7,2l24.3,3.5a92.8,92.8,0,0,1,7.4,17.8L207,119.3a6.4,6.4,0,0,0-1.2,3.8c.1,1.8.2,7.1.1,9.7a6,6,0,0,0,1.1,3.9l14.8,19.7A86.8,86.8,0,0,1,214.4,174.2Z"/></svg>