<svg xmlns="http://www.w3.org/2000/svg" viewBox="0 0 256 256"><path d="M128,74a54,54,0,1,0,54,54A54,54,0,0,0,128,74Zm0,96a42,42,0,1,1,42-42A42,42,0,0,1,128,170Zm107.5-65.3a6.2,6.2,0,0,0-2.9-4L208.2,87.2a77.4,77.4,0,0,0-4.8-8.3l.5-27.8a6.1,6.1,0,0,0-2-4.6,109.3,109.3,0,0,0-40.3-23.3,6.2,6.2,0,0,0-5,.6L132.8,38.1a76.9,76.9,0,0,0-9.6,0L99.3,23.8a6.1,6.1,0,0,0-4.9-.6A108.4,108.4,0,0,0,54.1,46.6a5.9,5.9,0,0,0-2,4.5l.5,27.8c-1.8,2.7-3.4,5.5-4.9,8.3L23.4,100.7a5.9,5.9,0,0,0-2.9,4,107.7,107.7,0,0,0,0,46.6,6.2,6.2,0,0,0,2.9,4l24.4,13.5a77.4,77.4,0,0,0,4.8,8.3l-.5,27.8a6.1,6.1,0,0,0,2,4.6,109.3,109.3,0,0,0,40.3,23.3,6.2,6.2,0,0,0,5-.6l23.8-14.3a76.9,76.9,0,0,0,9.6,0l23.9,14.3a5.6,5.6,0,0,0,3.1.9l1.8-.3a108.4,108.4,0,0,0,40.3-23.4,5.9,5.9,0,0,0,2-4.5l-.5-27.8c1.8-2.7,3.4-5.5,4.9-8.3l24.3-13.5a5.9,5.9,0,0,0,2.9-4A107.7,107.7,0,0,0,235.5,104.7Zm-11.2,41.4-23.5,13.1a5.7,5.7,0,0,0-2.5,2.6,91.2,91.2,0,0,1-5.8,10.1,6.6,6.6,0,0,0-1.1,3.5l.5,26.9a97.1,97.1,0,0,1-31.4,18.2l-23.1-13.9a6.5,6.5,0,0,0-3.1-.8h-.4a76.2,76.2,0,0,1-11.7,0,6.4,6.4,0,0,0-3.6.8L95.5,220.5a100.5,100.5,0,0,1-31.4-18.1l.5-26.9a6,6,0,0,0-1-3.5,73.2,73.2,0,0,1-5.9-10.2,5.7,5.7,0,0,0-2.5-2.6L31.7,146.1a95.8,95.8,0,0,1,0-36.2L55.2,96.8a5.7,5.7,0,0,0,2.5-2.6,91.2,91.2,0,0,1,5.8-10.1,5.8,5.8,0,0,0,1.1-3.5l-.5-26.9A98.1,98.1,0,0,1,95.5,35.5l23.1,13.9a6.2,6.2,0,0,0,3.5.8,76.2,76.2,0,0,1,11.7,0,6.4,6.4,0,0,0,3.6-.8l23.1-13.9a100.5,100.5,0,0,1,31.4,18.1l-.5,26.9a6.8,6.8,0,0,0,1,3.5,73.2,73.2,0,0,1,5.9,10.2,5.7,5.7,0,0,0,2.5,2.6l23.5,13.1A95.8,95.8,0,0,1,224.3,146.1Z"/></svg>