<svg id="Flat" xmlns="http://www.w3.org/2000/svg" viewBox="0 0 256.00098 256.00098">
  <path d="M128.00293,74.00195a54,54,0,1,0,54,54A54.06093,54.06093,0,0,0,128.00293,74.00195Zm0,96a42,42,0,1,1,42-42A42.04781,42.04781,0,0,1,128.00293,170.002Zm107.502-65.31152a5.99984,5.99984,0,0,0-2.95117-3.97266L208.24512,87.22363a90.23182,90.23182,0,0,0-4.80664-8.34033l.46875-27.81982A5.9986,5.9986,0,0,0,201.94092,46.52a109.15062,109.15062,0,0,0-40.37451-23.27344,5.99731,5.99731,0,0,0-4.91651.56934L132.80908,38.12109a90.174,90.174,0,0,0-9.626-.00781L99.32422,23.79736a6.0005,6.0005,0,0,0-4.918-.56884,109.16089,109.16089,0,0,0-40.34277,23.3291,6.00178,6.00178,0,0,0-1.96485,4.54248l.46826,27.79883a90.24544,90.24544,0,0,0-4.81982,8.333l-24.32715,13.5044a6.00194,6.00194,0,0,0-2.95166,3.97461,109.1458,109.1458,0,0,0,.03223,46.60205,6.00112,6.00112,0,0,0,2.95117,3.97314l24.30908,13.49414a90.388,90.388,0,0,0,4.80615,8.34034l-.46826,27.81982a6.00031,6.00031,0,0,0,1.96631,4.54346,109.14671,109.14671,0,0,0,40.37451,23.27343A6.001,6.001,0,0,0,99.356,232.188l23.84082-14.30518a90.174,90.174,0,0,0,9.626.00782l23.85889,14.31591a6.00078,6.00078,0,0,0,4.918.56885,109.161,109.161,0,0,0,40.34277-23.3291,6.00012,6.00012,0,0,0,1.96485-4.54248l-.46778-27.79883a90.3505,90.3505,0,0,0,4.81934-8.333l24.32715-13.50439a6.00046,6.00046,0,0,0,2.95166-3.97461A109.14029,109.14029,0,0,0,235.50488,104.69043Zm-11.16113,41.42725-23.543,13.06933a5.99847,5.99847,0,0,0-2.49219,2.64063,78.24815,78.24815,0,0,1-5.854,10.1206,6.0034,6.0034,0,0,0-1.04541,3.48584l.45312,26.90821a97.0855,97.0855,0,0,1-31.37793,18.15136L137.395,206.63916a6.00019,6.00019,0,0,0-3.0874-.855q-.22266,0-.44629.0166a78.26079,78.26079,0,0,1-11.69141-.00928,6.028,6.028,0,0,0-3.541.83789L95.55176,220.47607a97.08527,97.08527,0,0,1-31.40821-18.09863l.45313-26.92285a5.99935,5.99935,0,0,0-1.04-3.479,78.17,78.17,0,0,1-5.83789-10.13038,6.0015,6.0015,0,0,0-2.49658-2.64794L31.69238,146.13574a97.08293,97.08293,0,0,1-.03027-36.24951l23.543-13.06934a5.99845,5.99845,0,0,0,2.49219-2.64062,78.24827,78.24827,0,0,1,5.854-10.12061,5.99983,5.99983,0,0,0,1.04541-3.48584l-.45313-26.9082A97.08564,97.08564,0,0,1,95.52148,35.51025l23.08936,13.8545a6.01072,6.01072,0,0,0,3.53369.83838,78.00064,78.00064,0,0,1,11.69141.00927,6.00809,6.00809,0,0,0,3.541-.83789L160.4541,35.52783a97.07641,97.07641,0,0,1,31.4082,18.09863l-.45312,26.92286a6.00288,6.00288,0,0,0,1.04,3.479,78.2302,78.2302,0,0,1,5.83789,10.12988,6.00174,6.00174,0,0,0,2.49609,2.64844l23.53028,13.062A97.08057,97.08057,0,0,1,224.34375,146.11768Z"/>
</svg>
