<svg id="Flat" xmlns="http://www.w3.org/2000/svg" viewBox="0 0 256.00098 256.00098">
  <path d="M128.002,74a54,54,0,1,0,54,54A54.06093,54.06093,0,0,0,128.002,74Zm0,96a42,42,0,1,1,42-42A42.04781,42.04781,0,0,1,128.002,170Zm108.29688-61.29346a13.97169,13.97169,0,0,0-6.99854-9.79638L208.24414,87.22168a90.24887,90.24887,0,0,0-4.80664-8.34033l.40576-24.09912a13.93823,13.93823,0,0,0-4.9707-10.94629,109.54374,109.54374,0,0,0-33.43018-19.27051A13.96465,13.96465,0,0,0,153.459,25.728L132.80811,38.11914a90.17178,90.17178,0,0,0-9.626-.00781L102.51465,25.71094a13.94345,13.94345,0,0,0-11.96582-1.169A109.55385,109.55385,0,0,0,57.145,43.8584a13.96715,13.96715,0,0,0-4.98438,10.95947l.40528,24.0791a90.201,90.201,0,0,0-4.81983,8.333L26.67432,98.92725a13.97554,13.97554,0,0,0-7.00245,9.81543,109.55021,109.55021,0,0,0,.03321,38.55078,13.97033,13.97033,0,0,0,6.99853,9.79638l21.05567,11.68848a90.41045,90.41045,0,0,0,4.80713,8.34033l-.40625,24.09912a13.94331,13.94331,0,0,0,4.97119,10.94629,109.53791,109.53791,0,0,0,33.43017,19.27051,13.96432,13.96432,0,0,0,11.9834-1.1626l20.65088-12.39111a90.17178,90.17178,0,0,0,9.626.00781l20.66748,12.40039a13.93992,13.93992,0,0,0,11.96582,1.16895,109.572,109.572,0,0,0,33.40429-19.31641,13.97128,13.97128,0,0,0,4.98389-10.95947l-.40478-24.0791a90.30554,90.30554,0,0,0,4.81933-8.333l21.07227-11.69727a13.979,13.979,0,0,0,7.00195-9.81543A109.55,109.55,0,0,0,236.29883,108.70654Zm-11.78174,36.45069a2.02412,2.02412,0,0,1-1.01221,1.42382l-22.72851,12.6167a5.95253,5.95253,0,0,0-2.63965,2.98047,78.26912,78.26912,0,0,1-5.68311,9.76807,6.00347,6.00347,0,0,0-1.04541,3.48584l.43653,25.95166a2.01626,2.01626,0,0,1-.71973,1.58252,97.59941,97.59941,0,0,1-29.75488,17.20849,1.99164,1.99164,0,0,1-1.70655-.17529l-22.29248-13.376-.0166-.00977a5.96961,5.96961,0,0,0-3.92871-.78369,78.252,78.252,0,0,1-11.25683-.04053,6.0099,6.0099,0,0,0-3.541.83789L96.37109,219.98193a2.01536,2.01536,0,0,1-1.73047.167,97.57949,97.57949,0,0,1-29.78027-17.16407,1.98987,1.98987,0,0,1-.70166-1.56494l.4375-25.99414a5.95358,5.95358,0,0,0-1.26025-3.77637,78.23029,78.23029,0,0,1-5.61817-9.80566,6.00163,6.00163,0,0,0-2.49609-2.64844L32.52783,146.59766a2.01754,2.01754,0,0,1-1.01025-1.41455,97.59453,97.59453,0,0,1-.03076-34.34082,2.025,2.025,0,0,1,1.01172-1.42334l22.729-12.6167a5.97293,5.97293,0,0,0,2.66064-3.02295,78.202,78.202,0,0,1,5.66211-9.7251,5.99885,5.99885,0,0,0,1.04541-3.48633l-.437-25.95215a2.01794,2.01794,0,0,1,.72022-1.582A97.59,97.59,0,0,1,94.63428,35.8252a1.98935,1.98935,0,0,1,1.706.17529l22.29248,13.376.0166.00977a5.96962,5.96962,0,0,0,3.92871.78369,78.18148,78.18148,0,0,1,11.25684.04053,5.99733,5.99733,0,0,0,3.541-.83789l22.25683-13.35449a2.01553,2.01553,0,0,1,1.73047-.167,97.57371,97.57371,0,0,1,29.78027,17.16407,1.98787,1.98787,0,0,1,.70118,1.56494l-.4375,25.99414a5.95961,5.95961,0,0,0,1.26074,3.77637,78.17631,78.17631,0,0,1,5.61816,9.80566,6.00171,6.00171,0,0,0,2.4961,2.64844l22.69336,12.59717a2.01865,2.01865,0,0,1,1.01074,1.415A97.58024,97.58024,0,0,1,224.51709,145.15723Z"/>
</svg>
