<svg id="Flat" xmlns="http://www.w3.org/2000/svg" viewBox="0 0 256.00098 256.00098">
  <path d="M128.001,66.00049a62,62,0,1,0,62,62A62.07009,62.07009,0,0,0,128.001,66.00049Zm0,112a50,50,0,1,1,50-50A50.05634,50.05634,0,0,1,128.001,178.00049Zm94-43.81641V121.81787l9.29931-13.94922a14.2725,14.2725,0,0,0,1.81934-11.9414,109.48394,109.48394,0,0,0-8.09717-19.5835,14.05926,14.05926,0,0,0-9.72363-7.14746l-16.457-3.292-8.74414-8.74414-3.292-16.457a14.05891,14.05891,0,0,0-7.14746-9.7246,109.48426,109.48426,0,0,0-19.584-8.09571,14.26892,14.26892,0,0,0-11.9419,1.81885L134.18457,34H121.81738l-13.94726-9.29785a14.27366,14.27366,0,0,0-11.94239-1.81934A109.51373,109.51373,0,0,0,76.34424,30.978a14.05877,14.05877,0,0,0-7.14795,9.72509l-3.291,16.45606L57.16016,65.9043l-16.45655,3.291a14.05988,14.05988,0,0,0-9.72412,7.147,109.49765,109.49765,0,0,0-8.09717,19.585,14.27408,14.27408,0,0,0,1.81885,11.9414L34,121.81689v12.36622l-9.29883,13.94824a14.27215,14.27215,0,0,0-1.81836,11.9414,109.47012,109.47012,0,0,0,8.09571,19.585,14.05986,14.05986,0,0,0,9.72412,7.147l16.45752,3.292,8.74414,8.74414,3.291,16.45752a14.06242,14.06242,0,0,0,7.147,9.72461,109.48422,109.48422,0,0,0,19.584,8.0957,14.27235,14.27235,0,0,0,11.94141-1.81885l13.94873-9.29882h12.36718l13.94873,9.2998a14.41018,14.41018,0,0,0,7.95948,2.40332,13.69259,13.69259,0,0,0,3.98242-.585,109.48323,109.48323,0,0,0,19.583-8.09521,14.06041,14.06041,0,0,0,7.14746-9.72461l3.292-16.45752,8.74414-8.74512,16.457-3.291a14.0607,14.0607,0,0,0,9.72461-7.147,109.53325,109.53325,0,0,0,8.09717-19.584,14.27253,14.27253,0,0,0-1.81934-11.94141Zm-.36231,22.39893a97.45564,97.45564,0,0,1-7.207,17.4331,2.17079,2.17079,0,0,1-1.48682,1.023l-18.23877,3.647a6.00248,6.00248,0,0,0-3.0664,1.64062l-11.31348,11.31445a6.00635,6.00635,0,0,0-1.64062,3.06592l-3.64746,18.23877a2.172,2.172,0,0,1-1.02344,1.48731,97.44425,97.44425,0,0,1-17.43213,7.20556,2.1961,2.1961,0,0,1-1.79395-.32275l-15.46045-10.30713A5.9979,5.9979,0,0,0,136,210.001H120a5.998,5.998,0,0,0-3.32813,1.00781l-15.46044,10.30664a2.18983,2.18983,0,0,1-1.79346.32275,97.4806,97.4806,0,0,1-17.43262-7.20556,2.17138,2.17138,0,0,1-1.02295-1.48731l-3.647-18.23877a6.00494,6.00494,0,0,0-1.64111-3.0664L64.36084,180.32666a5.99718,5.99718,0,0,0-3.06592-1.64062l-18.23877-3.64795a2.17289,2.17289,0,0,1-1.4873-1.023,97.46058,97.46058,0,0,1-7.20557-17.4336,2.193,2.193,0,0,1,.32276-1.79394l10.30615-15.45948A5.998,5.998,0,0,0,46,136V120a5.998,5.998,0,0,0-1.00781-3.32812L34.686,101.2124a2.19125,2.19125,0,0,1-.32276-1.79394,97.50729,97.50729,0,0,1,7.207-17.43408,2.17178,2.17178,0,0,1,1.48682-1.02247l18.23779-3.647a5.99912,5.99912,0,0,0,3.06592-1.64062L75.67529,64.35986A6.0035,6.0035,0,0,0,77.31641,61.294l3.64648-18.2378a2.1709,2.1709,0,0,1,1.02344-1.48681,97.48085,97.48085,0,0,1,17.4331-7.20606,2.19275,2.19275,0,0,1,1.79395.32276l15.45947,10.30615A5.998,5.998,0,0,0,120.001,46h16a5.998,5.998,0,0,0,3.32812-1.00781l15.46-10.30664a2.195,2.195,0,0,1,1.79346-.32227,97.45106,97.45106,0,0,1,17.4331,7.20606,2.16982,2.16982,0,0,1,1.02344,1.48681l3.64746,18.23877a6.00159,6.00159,0,0,0,1.64112,3.06592l11.31347,11.31348a5.99722,5.99722,0,0,0,3.06592,1.64062l18.23779,3.64795a2.17079,2.17079,0,0,1,1.48682,1.02295,97.43614,97.43614,0,0,1,7.207,17.43262,2.19124,2.19124,0,0,1-.32275,1.79394l-10.30713,15.46045A5.99793,5.99793,0,0,0,210.001,120.001v16a5.9979,5.9979,0,0,0,1.00781,3.32812l10.30713,15.46045A2.19046,2.19046,0,0,1,221.63867,156.583Z"/>
</svg>
