<svg id="Flat" xmlns="http://www.w3.org/2000/svg" viewBox="0 0 256.00098 256.00098">
  <path d="M128.00293,66.00049a62,62,0,1,0,62,62A62.0701,62.0701,0,0,0,128.00293,66.00049Zm0,112a50,50,0,1,1,50-50A50.05635,50.05635,0,0,1,128.00293,178.00049ZM235.07031,103.1709a14.04555,14.04555,0,0,0-7.52148-9.375L212.502,86.35547l-6.18359-10.71,1.08008-16.75244a14.04437,14.04437,0,0,0-4.35791-11.20069A106.58386,106.58386,0,0,0,160.03369,22.8623a14.04848,14.04848,0,0,0-11.87988,1.82618l-13.96729,9.311H121.81934L107.85254,24.689a14.0403,14.0403,0,0,0-11.88037-1.82763A106.58748,106.58748,0,0,0,52.96582,47.69141a14.0422,14.0422,0,0,0-4.3584,11.20117l1.08008,16.752-6.18359,10.71L28.45557,93.79492a14.046,14.046,0,0,0-7.521,9.375,106.58063,106.58063,0,0,0,0,49.65967,14.04509,14.04509,0,0,0,7.52148,9.37549l15.04688,7.44043,6.18359,10.71-1.08007,16.75195a14.04532,14.04532,0,0,0,4.35791,11.20117,106.57477,106.57477,0,0,0,43.00683,24.83008,14.04287,14.04287,0,0,0,11.87988-1.82617l13.96729-9.311h12.36719l13.96679,9.31055a14.2122,14.2122,0,0,0,7.88916,2.417,13.79269,13.79269,0,0,0,3.99121-.58935,106.58778,106.58778,0,0,0,43.00635-24.83008,14.04221,14.04221,0,0,0,4.3584-11.20117l-1.08008-16.75195,6.1836-10.71,15.04785-7.44043a14.04418,14.04418,0,0,0,7.52148-9.375,106.58266,106.58266,0,0,0,0-49.66015ZM223.3877,150.0918a2.12441,2.12441,0,0,1-1.15772,1.35742l-16.67627,8.2456a5.99647,5.99647,0,0,0-2.53613,2.37842l-8.00049,13.85645a6.00064,6.00064,0,0,0-.7915,3.38623l1.19677,18.56445a2.12147,2.12147,0,0,1-.59619,1.68018A94.603,94.603,0,0,1,156.564,221.65186a2.11787,2.11787,0,0,1-1.75488-.32373l-15.479-10.31885a5.99913,5.99913,0,0,0-3.32813-1.00782h-16a5.99791,5.99791,0,0,0-3.32812,1.00782l-15.47852,10.31836a2.12606,2.12606,0,0,1-1.7539.32373,94.60011,94.60011,0,0,1-38.26368-22.09131,2.1215,2.1215,0,0,1-.59619-1.68018l1.19678-18.56494a6.00036,6.00036,0,0,0-.791-3.38623l-8-13.85644a5.9988,5.9988,0,0,0-2.5371-2.37842l-16.67481-8.24561a2.12194,2.12194,0,0,1-1.15771-1.35693,94.59256,94.59256,0,0,1,0-44.18213,2.12218,2.12218,0,0,1,1.15722-1.35742l16.67627-8.24561a6.00036,6.00036,0,0,0,2.53662-2.37842l8-13.85644a6.00073,6.00073,0,0,0,.79151-3.38623L60.58252,58.12061a2.12147,2.12147,0,0,1,.59619-1.68018A94.60274,94.60274,0,0,1,99.44092,34.34912a2.12465,2.12465,0,0,1,1.75488.32373l15.479,10.31885a5.99912,5.99912,0,0,0,3.32813,1.00781h16a5.9979,5.9979,0,0,0,3.32812-1.00781l15.47852-10.31836a2.11339,2.11339,0,0,1,1.75391-.32373,94.59986,94.59986,0,0,1,38.26367,22.09131,2.1221,2.1221,0,0,1,.59619,1.68017l-1.19678,18.565a6.00437,6.00437,0,0,0,.791,3.38623l8,13.85644a5.99882,5.99882,0,0,0,2.53711,2.37842l16.6748,8.2456a2.122,2.122,0,0,1,1.15772,1.35694,94.60153,94.60153,0,0,1,.00049,44.18213Z"/>
</svg>
