<svg id="Flat" xmlns="http://www.w3.org/2000/svg" viewBox="0 0 256.00098 256.00098">
  <path d="M128.002,74a54,54,0,1,0,54,54A54.06093,54.06093,0,0,0,128.002,74Zm0,96a42,42,0,1,1,42-42A42.04781,42.04781,0,0,1,128.002,170ZM233.208,151.606,217.919,131.22266c.042-2.17383.01025-4.68164-.02393-6.41455l15.30615-20.40723a6.00122,6.00122,0,0,0,.99268-5.16358,109.48109,109.48109,0,0,0-10.75391-25.98584,6.001,6.001,0,0,0-4.35449-2.95117L193.90332,66.7041c-1.47852-1.58789-3.019-3.12842-4.60645-4.606l-3.59521-25.17138a6.00136,6.00136,0,0,0-2.94922-4.35352,109.46565,109.46565,0,0,0-25.97851-10.77051,5.99949,5.99949,0,0,0-5.166.99219L131.2583,38.05908c-2.168-.07812-4.34619-.07812-6.51416,0L104.40332,22.80225a6.00027,6.00027,0,0,0-5.16406-.99268A109.45424,109.45424,0,0,0,73.25342,32.563a6.00054,6.00054,0,0,0-2.95117,4.35449L66.70654,62.09961Q64.324,64.31738,62.1001,66.70605L36.92871,70.30078A6.00226,6.00226,0,0,0,32.5752,73.25,109.4454,109.4454,0,0,0,21.80469,99.22949a5.99844,5.99844,0,0,0,.99218,5.16553l15.28907,20.3833c-.04151,2.17432-.01026,4.68164.02392,6.41455L22.80371,151.6001a6.00117,6.00117,0,0,0-.99267,5.16357A109.4671,109.4671,0,0,0,32.56445,182.749a6.00111,6.00111,0,0,0,4.3545,2.95166l25.1831,3.5962q2.217,2.38184,4.606,4.606l3.59521,25.17139a5.99866,5.99866,0,0,0,2.94922,4.35351A109.46514,109.46514,0,0,0,99.231,234.19824a5.99911,5.99911,0,0,0,5.166-.99219l20.34961-15.26416c2.168.07813,4.34619.07813,6.51416,0l20.34082,15.25684a5.99743,5.99743,0,0,0,5.16406.99268A109.43415,109.43415,0,0,0,182.751,223.438a5.99919,5.99919,0,0,0,2.95117-4.35449l3.60254-25.22412c1.5664-1.50782,3.31738-3.30274,4.51855-4.55225l25.25293-3.60742a5.99855,5.99855,0,0,0,4.35352-2.94873,109.466,109.466,0,0,0,10.77051-25.9795A5.99683,5.99683,0,0,0,233.208,151.606ZM214.43066,174.2417l-24.36425,3.48a6.00643,6.00643,0,0,0-3.52149,1.82812c-1.25195,1.33106-4.9248,5.15918-6.85791,6.8711a5.99747,5.99747,0,0,0-1.9624,3.644l-3.48047,24.3711a97.46732,97.46732,0,0,1-17.82519,7.37548l-19.6875-14.76611a5.989,5.989,0,0,0-3.96387-1.189,79.12862,79.12862,0,0,1-9.52832,0,5.99627,5.99627,0,0,0-3.96387,1.189l-19.69434,14.772a97.472,97.472,0,0,1-17.81982-7.38916l-3.47949-24.36181a6,6,0,0,0-1.9624-3.644,78.88906,78.88906,0,0,1-6.73731-6.7373,6.00128,6.00128,0,0,0-3.644-1.9624l-24.3711-3.48A97.48,97.48,0,0,1,34.19141,156.417L48.958,136.72852a5.99935,5.99935,0,0,0,1.19726-3.78272c-.05517-1.82764-.165-7.13525-.00879-9.7085a5.99813,5.99813,0,0,0-1.189-3.96386l-14.772-19.69385a97.45609,97.45609,0,0,1,7.38916-17.82031l24.36181-3.479a6.00178,6.00178,0,0,0,3.64453-1.96289,78.81523,78.81523,0,0,1,6.73682-6.7373,5.9975,5.9975,0,0,0,1.9624-3.644l3.48-24.3711a97.487,97.487,0,0,1,17.82569-7.37549l19.6875,14.76612a6.00461,6.00461,0,0,0,3.96386,1.189,79.12449,79.12449,0,0,1,9.52832,0,5.99545,5.99545,0,0,0,3.96387-1.189l19.69434-14.772a97.45356,97.45356,0,0,1,17.81933,7.38916l3.48,24.36182a6,6,0,0,0,1.96241,3.644,78.81951,78.81951,0,0,1,6.7373,6.73731,6.00128,6.00128,0,0,0,3.644,1.9624l24.3711,3.48A97.4667,97.4667,0,0,1,221.81348,99.584l-14.76661,19.68848a5.99939,5.99939,0,0,0-1.19726,3.78272c.05566,1.82763.165,7.13525.00879,9.708a5.99679,5.99679,0,0,0,1.189,3.96436l14.772,19.69385A97.44,97.44,0,0,1,214.43066,174.2417Z"/>
</svg>
