<svg id="Flat" xmlns="http://www.w3.org/2000/svg" viewBox="0 0 256 256">
  <path d="M214,23.99707a6.0384,6.0384,0,0,0-.10547-1.09912c-.00391-.02-.00537-.04053-.00928-.061a5.95873,5.95873,0,0,0-.30786-1.03857c-.0105-.02686-.01831-.05371-.02929-.08008a5.9871,5.9871,0,0,0-.51172-.97217c-.01392-.02148-.02539-.04394-.0398-.06543a6.03354,6.03354,0,0,0-1.677-1.67724c-.02124-.01416-.04346-.02539-.0647-.03906a6.00307,6.00307,0,0,0-.97363-.5127c-.02539-.01025-.05151-.01807-.07715-.02832a5.97006,5.97006,0,0,0-1.0415-.30859c-.01953-.00391-.03931-.00537-.05884-.00879A6.00091,6.00091,0,0,0,208,18H168a6,6,0,0,0,0,12h25.51514L164.35132,59.16406A65.98331,65.98331,0,1,0,114,173.71484V198H88a6,6,0,0,0,0,12h26v22a6,6,0,0,0,12,0V210h26a6,6,0,0,0,0-12H126V173.71484A65.94081,65.94081,0,0,0,172.46509,68.01953L202,38.48486V64a6,6,0,0,0,12,0V23.99707ZM120,162a54,54,0,1,1,54-54A54.06124,54.06124,0,0,1,120,162Z"/>
</svg>
