<svg id="Flat" xmlns="http://www.w3.org/2000/svg" viewBox="0 0 256 256">
  <path d="M222,39.99707a6.0384,6.0384,0,0,0-.10547-1.09912c-.00391-.02-.00537-.04053-.00928-.061a5.95873,5.95873,0,0,0-.30786-1.03857c-.0105-.02686-.01831-.05371-.02929-.08008a5.9871,5.9871,0,0,0-.51172-.97217c-.01392-.02148-.02539-.04394-.0398-.06543a6.03354,6.03354,0,0,0-1.677-1.67724c-.02124-.01416-.04346-.02539-.0647-.03906a6.00307,6.00307,0,0,0-.97363-.5127c-.02539-.01025-.05151-.01807-.07715-.02832a5.97006,5.97006,0,0,0-1.0415-.30859c-.01953-.00391-.03931-.00537-.05884-.00879A6.00091,6.00091,0,0,0,216,34H168a6,6,0,0,0,0,12h33.51514L168,79.51514,148.24268,59.75781a5.99971,5.99971,0,0,0-8.48536,8.48438L159.51514,88,141.061,106.4541a69.94827,69.94827,0,1,0,8.489,8.48047L168,96.48486l19.75732,19.75733a5.99971,5.99971,0,0,0,8.48536-8.48438L176.48486,88,210,54.48486V88a6,6,0,0,0,12,0V39.99707ZM137.01221,201.01172A57.9989,57.9989,0,1,1,154,160,58.06386,58.06386,0,0,1,137.01221,201.01172Z"/>
</svg>
