<svg id="Flat" xmlns="http://www.w3.org/2000/svg" viewBox="0 0 256 256">
  <path d="M222,39.99707a6.0384,6.0384,0,0,0-.10547-1.09912c-.00391-.02-.00537-.04053-.00928-.061a5.95873,5.95873,0,0,0-.30786-1.03857c-.0105-.02686-.01831-.05371-.02929-.08008a5.9871,5.9871,0,0,0-.51172-.97217c-.01392-.02148-.02539-.04394-.0398-.06543a6.02357,6.02357,0,0,0-1.67871-1.67822c-.01929-.01269-.03955-.02344-.05908-.03613a6.01426,6.01426,0,0,0-.97949-.51514c-.02344-.00976-.04761-.0166-.07129-.02637a5.942,5.942,0,0,0-1.04688-.31c-.01806-.00391-.03613-.00489-.054-.0083A5.99563,5.99563,0,0,0,216,34H168a6,6,0,0,0,0,12h33.51514L154.73267,92.78223a77.95058,77.95058,0,1,0,4.42163,114.373v-.001a78.08858,78.08858,0,0,0,4.06323-105.8877L210,54.48486V88a6,6,0,0,0,12,0V39.99707ZM150.669,198.669a65.96828,65.96828,0,1,1,0-93.33887A66.07452,66.07452,0,0,1,150.669,198.669Z"/>
</svg>
