<svg xmlns="http://www.w3.org/2000/svg" viewBox="0 0 256 256"><path d="M110,116a10,10,0,1,1-10-10A10,10,0,0,1,110,116Zm46-10a10,10,0,1,0,10,10A10,10,0,0,0,156,106Zm66,14v96a6,6,0,0,1-3.4,5.4,5.8,5.8,0,0,1-2.6.6,5.9,5.9,0,0,1-3.8-1.4l-25.5-20.8-25.6,20.8a5.8,5.8,0,0,1-7.6,0L128,199.8l-25.5,20.8a5.8,5.8,0,0,1-7.6,0L69.3,199.8,43.8,220.6A6,6,0,0,1,34,216V120a94,94,0,0,1,188,0Zm-12,0a82,82,0,0,0-164,0v83.3l19.5-15.9a5.8,5.8,0,0,1,7.6,0l25.6,20.8,25.5-20.8a5.9,5.9,0,0,1,7.6,0l25.5,20.8,25.6-20.8a5.8,5.8,0,0,1,7.6,0L210,203.3Z"/></svg>