<svg id="Flat" xmlns="http://www.w3.org/2000/svg" viewBox="0 0 256 256">
  <path d="M110,116a10,10,0,1,1-10-10A9.99995,9.99995,0,0,1,110,116Zm46-10a10,10,0,1,0,10,10A9.99995,9.99995,0,0,0,156,106Zm66,14v96a6.0001,6.0001,0,0,1-9.7998,4.64355L186.667,199.75244l-25.53418,20.89111a6.001,6.001,0,0,1-7.59961,0L128,199.75244l-25.5332,20.89111a5.99978,5.99978,0,0,1-7.59961,0L69.333,199.75244,43.7998,220.64355A6.00018,6.00018,0,0,1,34,216V120a94,94,0,0,1,188,0Zm-12,0a82,82,0,0,0-164,0v83.33838l19.5332-15.98193a6.001,6.001,0,0,1,7.59961,0L98.667,208.24756l25.53321-20.89111a6.00038,6.00038,0,0,1,7.5996,0L157.333,208.24756l25.53418-20.89111a6.0004,6.0004,0,0,1,7.59961,0L210,203.33838Z"/>
</svg>
