<svg xmlns="http://www.w3.org/2000/svg" viewBox="0 0 256 256"><path d="M216,74H176.3l1.2-1.1h0a30,30,0,1,0-42.4-42.4A33.9,33.9,0,0,0,128,42.2a33.9,33.9,0,0,0-7.1-11.7A30,30,0,0,0,78.5,72.9h0L79.7,74H40A14,14,0,0,0,26,88v32a14,14,0,0,0,14,14h2v66a14,14,0,0,0,14,14H200a14,14,0,0,0,14-14V134h2a14,14,0,0,0,14-14V88A14,14,0,0,0,216,74ZM143.6,39A18,18,0,1,1,169,64.4c-5.9,5.9-22.5,8.7-34.8,9.4C134.9,61.5,137.7,44.9,143.6,39ZM87,39a18,18,0,0,1,25.4,0c5.9,5.9,8.7,22.5,9.4,34.8-12.3-.7-28.9-3.5-34.8-9.4h0A18,18,0,0,1,87,39ZM38,120V88a2,2,0,0,1,2-2h82v36H40A2,2,0,0,1,38,120Zm16,80V134h68v68H56A2,2,0,0,1,54,200Zm148,0a2,2,0,0,1-2,2H134V134h68Zm16-80a2,2,0,0,1-2,2H134V86h82a2,2,0,0,1,2,2Z"/></svg>