<svg id="Flat" xmlns="http://www.w3.org/2000/svg" viewBox="0 0 256 256">
  <path d="M216,74H176.33984c.40137-.34766.79-.70312,1.15821-1.071v-.00025a30.00042,30.00042,0,0,0-42.42774-42.42627A33.70277,33.70277,0,0,0,128,42.22a33.71182,33.71182,0,0,0-7.07129-11.71753A30.00008,30.00008,0,0,0,78.50195,72.92871V72.929c.36817.36792.75684.72338,1.15821,1.071H40A14.01572,14.01572,0,0,0,26,88v32a14.01572,14.01572,0,0,0,14,14h2v66a14.01572,14.01572,0,0,0,14,14H200a14.01572,14.01572,0,0,0,14-14V134h2a14.01572,14.01572,0,0,0,14-14V88A14.01572,14.01572,0,0,0,216,74ZM143.55566,38.98779A18.00006,18.00006,0,1,1,169.01172,64.4436c-5.87891,5.87915-22.48242,8.64673-34.82227,9.3628C134.89844,61.4751,137.66211,44.88184,143.55566,38.98779Zm-56.56836,0a18.0209,18.0209,0,0,1,25.45606,0c5.87988,5.87915,8.64746,22.48316,9.36328,34.82276-12.332-.70923-28.9248-3.4729-34.81836-9.367v.00025A18.0209,18.0209,0,0,1,86.9873,38.98779ZM38,120V88a2.00245,2.00245,0,0,1,2-2h82v36H40A2.00245,2.00245,0,0,1,38,120Zm16,80V134h68v68H56A2.00229,2.00229,0,0,1,54,200Zm148,0a2.00229,2.00229,0,0,1-2,2H134V134h68Zm16-80a2.00245,2.00245,0,0,1-2,2H134V86h82a2.00245,2.00245,0,0,1,2,2Z"/>
</svg>
