<svg id="Flat" xmlns="http://www.w3.org/2000/svg" viewBox="0 0 256 256">
  <path d="M222.00049,67.99756a34,34,0,1,0-40,33.45911v2.54138a18.02126,18.02126,0,0,1-18,18l-72,.00146a18.00047,18.00047,0,0,1-18-18v-2.54284a34,34,0,1,0-12,0v2.54284a30.00023,30.00023,0,0,0,30,30l30.00146-.00061-.001,20.54193a33.99985,33.99985,0,1,0,12,.00012l.001-20.54229,29.99854-.00061a30.03469,30.03469,0,0,0,30-30v-2.54138A34.0485,34.0485,0,0,0,222.00049,67.99756Zm-176,0a22,22,0,1,1,22,22A22.02489,22.02489,0,0,1,46.00049,67.99756ZM150.00049,188a22,22,0,1,1-22-22A22.02489,22.02489,0,0,1,150.00049,188Zm38-98.00244a22,22,0,1,1,22-22A22.02489,22.02489,0,0,1,188.00049,89.99756Z"/>
</svg>
