<svg id="Flat" xmlns="http://www.w3.org/2000/svg" viewBox="0 0 256 256">
  <path d="M188.00049,33.99756a33.996,33.996,0,0,0-6,67.45911v2.54138a18.02126,18.02126,0,0,1-18,18l-72.001.00146a29.84748,29.84748,0,0,0-17.999,6.01416v-26.557a34,34,0,1,0-12,0v53.08422a34,34,0,1,0,12,0v-2.54138a18.02042,18.02042,0,0,1,17.999-18l72.001-.00146a30.03469,30.03469,0,0,0,30-30v-2.54138a33.996,33.996,0,0,0-6-67.45911ZM90.00049,188a22,22,0,1,1-22-22A22.02489,22.02489,0,0,1,90.00049,188Zm-22-98.00244a22,22,0,1,1,22-22A22.02489,22.02489,0,0,1,68.00049,89.99756Zm120,0a22,22,0,1,1,22-22A22.02489,22.02489,0,0,1,188.00049,89.99756Z"/>
</svg>
