<svg id="Flat" xmlns="http://www.w3.org/2000/svg" viewBox="0 0 256 256">
  <path d="M188.00049,106A34.03969,34.03969,0,0,0,154.064,138H130.48a41.88905,41.88905,0,0,1-32.26562-15.1123l-18.99854-22.798a34.00173,34.00173,0,1,0-17.21826,1.36945v53.08178a34,34,0,1,0,12,0V112.57227l14.99805,17.99707A53.85421,53.85421,0,0,0,130.48,150h25.02344a34.00039,34.00039,0,1,0,32.49707-44ZM45.99756,68a22,22,0,1,1,22,22A22.02489,22.02489,0,0,1,45.99756,68Zm44,120a22,22,0,1,1-22-22A22.02489,22.02489,0,0,1,89.99756,188Zm98.00293-26a22,22,0,1,1,22-22A22.02489,22.02489,0,0,1,188.00049,162Z"/>
</svg>
