<svg xmlns="http://www.w3.org/2000/svg" viewBox="0 0 256 256"><path d="M202,154.5V119.9a53.7,53.7,0,0,0-15.8-38.2L158.5,54H184a6,6,0,0,0,0-12H144a6,6,0,0,0-6,6V88a6,6,0,0,0,12,0V62.5l27.7,27.7A41.8,41.8,0,0,1,190,119.9v34.6a34,34,0,1,0,12,0ZM196,210a22,22,0,1,1,22-22A22.1,22.1,0,0,1,196,210Zm-84-48a6,6,0,0,0-6,6v25.5L78.3,165.8A41.8,41.8,0,0,1,66,136.1V101.5a34,34,0,1,0-12,0v34.6a53.7,53.7,0,0,0,15.8,38.2L97.5,202H72a6,6,0,0,0,0,12h40a6,6,0,0,0,6-6V168A6,6,0,0,0,112,162ZM38,68A22,22,0,1,1,60,90,22.1,22.1,0,0,1,38,68Z"/></svg>