<svg id="Flat" xmlns="http://www.w3.org/2000/svg" viewBox="0 0 256 256">
  <path d="M216,210a18.02062,18.02062,0,0,1-18-18v-8a30.02685,30.02685,0,0,0-16.523-26.78979A53.98737,53.98737,0,0,0,206,112v-8a53.68782,53.68782,0,0,0-7.86816-28.083A57.75264,57.75264,0,0,0,193.19629,29,6.00018,6.00018,0,0,0,188,26a57.76409,57.76409,0,0,0-46.99561,24l-26.00878-.001A57.76716,57.76716,0,0,0,68,26a6.00018,6.00018,0,0,0-5.19629,3,57.75264,57.75264,0,0,0-4.93555,46.917A53.68075,53.68075,0,0,0,50,104v8A53.98737,53.98737,0,0,0,74.523,157.21023,30.02685,30.02685,0,0,0,58,184v8a18.02062,18.02062,0,0,1-18,18,6,6,0,0,0,0,12,30.03406,30.03406,0,0,0,30-30v-8a18.02063,18.02063,0,0,1,18-18h14v42a18.02062,18.02062,0,0,1-18,18,6,6,0,0,0,0,12,30.03406,30.03406,0,0,0,30-30V166h28v42a30.03406,30.03406,0,0,0,30,30,6,6,0,0,0,0-12,18.02062,18.02062,0,0,1-18-18V166h14a18.02063,18.02063,0,0,1,18,18v8a30.03406,30.03406,0,0,0,30,30,6,6,0,0,0,0-12ZM62,112v-8a41.74335,41.74335,0,0,1,7.44434-23.87988,5.9993,5.9993,0,0,0,.667-5.57031,45.82,45.82,0,0,1,1.43066-36.416,45.83222,45.83222,0,0,1,35.22949,21.10156A6.00069,6.00069,0,0,0,111.8252,62l32.35009-.001a6.00049,6.00049,0,0,0,5.05323-2.76464A45.83457,45.83457,0,0,1,184.458,38.13381a45.82017,45.82017,0,0,1,1.43066,36.416,5.9993,5.9993,0,0,0,.667,5.57031A41.74335,41.74335,0,0,1,194,104v8a42.04718,42.04718,0,0,1-42,42H104A42.0475,42.0475,0,0,1,62,112Z"/>
</svg>
