<svg id="Flat" xmlns="http://www.w3.org/2000/svg" viewBox="0 0 256 256">
  <path d="M216,218a18.02062,18.02062,0,0,1-18-18v-8a30.02685,30.02685,0,0,0-16.523-26.78979A53.98737,53.98737,0,0,0,206,120v-8a55.95511,55.95511,0,0,0-7.86816-28.085A57.75232,57.75232,0,0,0,193.19629,37,6.00018,6.00018,0,0,0,188,34a57.765,57.765,0,0,0-46.99609,24l-26.00782-.001A57.768,57.768,0,0,0,68,34a6.00018,6.00018,0,0,0-5.19629,3,57.75423,57.75423,0,0,0-4.93555,46.915A55.95177,55.95177,0,0,0,50,112v8A53.98737,53.98737,0,0,0,74.523,165.21023,30.02685,30.02685,0,0,0,58,192v8a18.02062,18.02062,0,0,1-18,18,6,6,0,0,0,0,12,30.03406,30.03406,0,0,0,30-30v-8a18.02063,18.02063,0,0,1,18-18h14v42a18.02062,18.02062,0,0,1-18,18,6,6,0,0,0,0,12,30.03406,30.03406,0,0,0,30-30V174h28v42a30.03406,30.03406,0,0,0,30,30,6,6,0,0,0,0-12,18.02062,18.02062,0,0,1-18-18V174h14a18.02063,18.02063,0,0,1,18,18v8a30.03406,30.03406,0,0,0,30,30,6,6,0,0,0,0-12ZM62,120v-8A43.753,43.753,0,0,1,69.30371,88.3135a5.99834,5.99834,0,0,0,.80762-5.76465,45.81577,45.81577,0,0,1,1.43066-36.415,45.83547,45.83547,0,0,1,35.23,21.10059A5.99986,5.99986,0,0,0,111.8252,69.999L144.1748,70h0a5.999,5.999,0,0,0,5.05274-2.76465A45.83319,45.83319,0,0,1,184.458,46.13381a45.818,45.818,0,0,1,1.43066,36.415,6.04378,6.04378,0,0,0,.792,5.74414A43.746,43.746,0,0,1,194,112v8a42.04718,42.04718,0,0,1-42,42H104A42.0475,42.0475,0,0,1,62,120Z"/>
</svg>
