<svg xmlns="http://www.w3.org/2000/svg" viewBox="0 0 256 256"><path d="M216,218a18.1,18.1,0,0,1-18-18v-8a30.1,30.1,0,0,0-16.5-26.8A54,54,0,0,0,206,120v-8a55.1,55.1,0,0,0-7.9-28.1A57.6,57.6,0,0,0,193.2,37a6,6,0,0,0-5.2-3,57.7,57.7,0,0,0-47,24H115A57.7,57.7,0,0,0,68,34a6,6,0,0,0-5.2,3,57.6,57.6,0,0,0-4.9,46.9A55.1,55.1,0,0,0,50,112v8a54,54,0,0,0,24.5,45.2A30.1,30.1,0,0,0,58,192v8a18.1,18.1,0,0,1-18,18,6,6,0,0,0,0,12,30.1,30.1,0,0,0,30-30v-8a18.1,18.1,0,0,1,18-18h14v42a18.1,18.1,0,0,1-18,18,6,6,0,0,0,0,12,30.1,30.1,0,0,0,30-30V174h28v42a30.1,30.1,0,0,0,30,30,6,6,0,0,0,0-12,18.1,18.1,0,0,1-18-18V174h14a18.1,18.1,0,0,1,18,18v8a30.1,30.1,0,0,0,30,30,6,6,0,0,0,0-12ZM62,120v-8a43.4,43.4,0,0,1,7.3-23.7,6,6,0,0,0,.8-5.8,46.1,46.1,0,0,1,1.4-36.4,46,46,0,0,1,35.3,21.1,5.8,5.8,0,0,0,5,2.8h32.4a5.8,5.8,0,0,0,5-2.8,46,46,0,0,1,35.3-21.1,46.1,46.1,0,0,1,1.4,36.4,6.3,6.3,0,0,0,.8,5.8A43.4,43.4,0,0,1,194,112v8a42,42,0,0,1-42,42H104A42,42,0,0,1,62,120Z"/></svg>