<svg id="Flat" xmlns="http://www.w3.org/2000/svg" viewBox="0 0 256 256">
  <path d="M236.34766,153.0176,209.01855,50.53225a10.00012,10.00012,0,0,0-19.02587-.93408L168.8418,106H87.1582L66.00732,49.59865a9.99991,9.99991,0,0,0-19.02587.93409L19.65234,153.0176a14.03381,14.03381,0,0,0,5.5586,15.11816l94.82031,65.64453a14.06551,14.06551,0,0,0,15.9375,0l94.82031-65.64453A14.03381,14.03381,0,0,0,236.34766,153.0176Zm-12.38868,5.252-94.82031,65.64453a2.00944,2.00944,0,0,1-2.27734,0L32.041,158.26955a2.00567,2.00567,0,0,1-.794-2.16015L56.96582,59.66408l20.416,54.44239A6.00086,6.00086,0,0,0,83,118h90a6.00086,6.00086,0,0,0,5.61816-3.89355l20.416-54.44239,25.71875,96.44532A2.00567,2.00567,0,0,1,223.959,158.26955Z"/>
</svg>
