<svg id="Flat" xmlns="http://www.w3.org/2000/svg" viewBox="0 0 256 256">
  <path d="M236.34766,153.0176,209.01855,50.53225a10.00012,10.00012,0,0,0-19.02587-.93408L168.8418,106H87.1582L66.00732,49.59865a9.99991,9.99991,0,0,0-19.02587.93409L19.65234,153.0176a14.03381,14.03381,0,0,0,5.5586,15.11816l94.82031,65.64453a13.92677,13.92677,0,0,0,6.27124,2.36377,5.83718,5.83718,0,0,0,.59985.0669l.09717.00732c.1145.00684.22705.02588.34229.02588.03491,0,.07055-.00879.10547-.00928.18432.00733.3684.02051.55273.02051s.36841-.01318.55249-.02051c.03516.00049.07056.00928.10571.00928.11524,0,.22779-.019.342-.02588l.09742-.00732a5.84064,5.84064,0,0,0,.59961-.0669,13.92772,13.92772,0,0,0,6.27148-2.36377l94.82031-65.64453A14.03381,14.03381,0,0,0,236.34766,153.0176ZM199.03418,59.66408,211.39038,106H181.6582ZM164.3418,118,128,214.91213,91.6582,118ZM56.96582,59.66408,74.3418,106H44.60962ZM31.24707,156.1094,41.40967,118H78.8418l36.80664,98.15137L32.041,158.26955A2.00567,2.00567,0,0,1,31.24707,156.1094ZM223.959,158.26955l-83.60742,57.88184L177.1582,118h37.43213l10.1626,38.10938A2.00567,2.00567,0,0,1,223.959,158.26955Z"/>
</svg>
