<svg xmlns="http://www.w3.org/2000/svg" viewBox="0 0 256 256"><path d="M236.3,153,209,50.5a10,10,0,0,0-19-.9L168.8,106H87.2L66,49.6a10,10,0,0,0-19,.9L19.7,153a13.9,13.9,0,0,0,5.5,15.1L120,233.8a13.4,13.4,0,0,0,6.3,2.3h3.4a13.4,13.4,0,0,0,6.3-2.3l94.8-65.7A13.9,13.9,0,0,0,236.3,153ZM199,59.7,211.4,106H181.7ZM164.3,118,128,214.9,91.7,118ZM57,59.7,74.3,106H44.6ZM31.2,156.1,41.4,118H78.8l36.8,98.2L32,158.3A2.1,2.1,0,0,1,31.2,156.1ZM224,158.3l-83.6,57.9L177.2,118h37.4l10.2,38.1A2.1,2.1,0,0,1,224,158.3Z"/></svg>