<svg id="Flat" xmlns="http://www.w3.org/2000/svg" viewBox="0 0 256 256">
  <path d="M221.86963,167.89355c.07519-.17089.1582-.3374.21631-.51269A101.92389,101.92389,0,0,0,186.67773,44.61621a5.99587,5.99587,0,0,0-1.20459-.83545A101.94684,101.94684,0,0,0,44.31885,186.25342c.04345.08008.08154.16211.1289.24072a5.99641,5.99641,0,0,0,.6587.876,101.85221,101.85221,0,0,0,145.083,21.41748,5.96945,5.96945,0,0,0,1.11426-.85791c.00977-.00977.01563-.02149.02539-.03174A102.55137,102.55137,0,0,0,221.86963,167.89355Zm-34.45557,27.645-6.83349-6.84716a14.02949,14.02949,0,0,0-6.356-3.65235l-21.458-5.63086a1.99771,1.99771,0,0,1-1.47168-2.22558l2.38477-16.19629a2.01049,2.01049,0,0,1,1.21094-1.55567l30.45214-12.65625a2.002,2.002,0,0,1,2.11621.3711l21.66309,19.812A90.52258,90.52258,0,0,1,187.41406,195.53857ZM127.99805,38a89.467,89.467,0,0,1,48.83154,14.43408l1.02148,21.24854a1.98739,1.98739,0,0,1-.48535,1.40429L155.2085,100.6875a1.99675,1.99675,0,0,1-1.24366.67383l-31.479,4.26269a2.0032,2.0032,0,0,1-1.44336-.36132L101.38574,91.02051a14.00081,14.00081,0,0,0-20.01513,3.80761L61.52832,125.92578a13.98289,13.98289,0,0,0-2.19775,7.45215l-.20264,36.12891a2.01384,2.01384,0,0,1-.96631,1.70117l-6.7207,4.05664A89.95835,89.95835,0,0,1,127.99805,38ZM58.44531,185.05371l5.91846-3.57226a14.08852,14.08852,0,0,0,6.76367-11.90821l.20264-36.12793a1.99661,1.99661,0,0,1,.31445-1.06445L91.48682,101.2832a2.00213,2.00213,0,0,1,2.85937-.54492l19.65625,14.24219a13.92364,13.92364,0,0,0,10.09229,2.53515l31.481-4.26367a13.99244,13.99244,0,0,0,8.70655-4.71093l22.15625-25.59961a13.94066,13.94066,0,0,0,3.39892-9.835l-.5249-10.92383A89.91913,89.91913,0,0,1,213.85156,155.021L195.55762,138.29a14.04645,14.04645,0,0,0-14.82178-2.5957l-30.45117,12.65625a14.06991,14.06991,0,0,0-8.47705,10.88769l-2.38477,16.19629a13.986,13.986,0,0,0,10.29736,15.58105l21.45557,5.62989a2.00958,2.00958,0,0,1,.91065.52246l5.73388,5.74512a89.85792,89.85792,0,0,1-119.375-17.85938Z"/>
</svg>
