<svg xmlns="http://www.w3.org/2000/svg" viewBox="0 0 256 256"><path d="M128,26A102,102,0,1,0,230,128,102.2,102.2,0,0,0,128,26Zm89.8,96H173.9c-1.3-32-13-61.4-32.9-83A90,90,0,0,1,217.8,122ZM94.1,134h67.8c-1.5,30.8-13.8,59.7-33.9,79.3C107.9,193.7,95.6,164.8,94.1,134Zm0-12c1.5-30.8,13.8-59.7,33.9-79.3,20.1,19.6,32.4,48.5,33.9,79.3ZM115,39C95.1,60.6,83.4,90,82.1,122H38.2A90,90,0,0,1,115,39ZM38.2,134H82.1c1.3,32,13,61.4,32.9,83.1A90.2,90.2,0,0,1,38.2,134ZM141,217.1c19.9-21.7,31.6-51.1,32.9-83.1h43.9A90.2,90.2,0,0,1,141,217.1Z"/></svg>