<svg id="Flat" xmlns="http://www.w3.org/2000/svg" viewBox="0 0 256 256">
  <path d="M224.32568,161.548a102.003,102.003,0,0,0-.01025-67.12329,5.92733,5.92733,0,0,0-.30273-.85888,102.00134,102.00134,0,0,0-192.02149-.011,5.94791,5.94791,0,0,0-.312.885,102.0016,102.0016,0,0,0,.01367,67.16064,5.95713,5.95713,0,0,0,.28809.81617,102.00092,102.00092,0,0,0,192.02392.03918A5.98832,5.98832,0,0,0,224.32568,161.548Zm-124.585,4.4524h56.51856C150.582,184.27954,140.88428,200.69788,128,213.26306,115.11572,200.69788,105.418,184.27954,99.74072,166.00037Zm-3.0874-12a128.71423,128.71423,0,0,1,0-52h62.69336a128.71423,128.71423,0,0,1,0,52ZM38,128.00037a89.70722,89.70722,0,0,1,3.83447-26H84.34912a145.05823,145.05823,0,0,0,0,52H41.83447A89.70727,89.70727,0,0,1,38,128.00037Zm118.25977-38H99.74023C105.41748,71.72058,115.11572,55.30212,128,42.7367,140.88428,55.30212,150.58252,71.72058,156.25977,90.00037Zm15.39111,12h42.51465a90.065,90.065,0,0,1,0,52H171.65088a145.05823,145.05823,0,0,0,0-52Zm37.9209-12H168.89746A124.67739,124.67739,0,0,0,141.043,38.94885,90.25258,90.25258,0,0,1,209.57178,90.00037ZM114.957,38.94885A124.67171,124.67171,0,0,0,87.10254,90.00037H46.42822A90.25339,90.25339,0,0,1,114.957,38.94885ZM46.42822,166.00037H87.103A124.68308,124.68308,0,0,0,114.957,217.052,90.25352,90.25352,0,0,1,46.42822,166.00037ZM141.043,217.052a124.68308,124.68308,0,0,0,27.854-51.05163h40.67481A90.25352,90.25352,0,0,1,141.043,217.052Z"/>
</svg>
