<svg id="Flat" xmlns="http://www.w3.org/2000/svg" viewBox="0 0 256 256">
  <path d="M219.793,172.4502A101.97972,101.97972,0,0,0,154.28809,29.44092c-.1709-.05469-.34375-.10108-.51905-.14063A101.9134,101.9134,0,0,0,61.624,50.6167a5.98315,5.98315,0,0,0-1.17138,1.02539A101.95117,101.95117,0,0,0,128,230c.74072,0,1.479-.01221,2.21582-.02832.01221,0,.0249.002.03711.002.01025,0,.01953-.00244.02978-.00244a102.12711,102.12711,0,0,0,88.94678-56.38867c.01465-.02295.03174-.04346.0459-.0669A6.03379,6.03379,0,0,0,219.793,172.4502ZM218,128a89.51736,89.51736,0,0,1-6.53857,33.666l-48.44092-29.79395a13.89348,13.89348,0,0,0-5.46289-1.94824l-22.81836-3.07617a14.08207,14.08207,0,0,0-13.957,6.832h-9.64014a2.012,2.012,0,0,1-1.80029-1.12891l-3.80567-7.86133a13.91054,13.91054,0,0,0-9.65918-7.58789l-8.92724-1.91894,5.51611-13.09473a1.99543,1.99543,0,0,1,1.84277-1.22363H115.6543a14.02446,14.02446,0,0,0,6.76758-1.74512L134.665,92.35938a14.11838,14.11838,0,0,0,2.62158-1.8711l26.91065-24.33789a13.93292,13.93292,0,0,0,2.83349-17.208l-1.53515-2.75A90.121,90.121,0,0,1,218,128ZM148.49365,40.356l8.05957,14.436a1.99028,1.99028,0,0,1-.40478,2.458L129.24268,81.583a2.0223,2.0223,0,0,1-.37989.27246l-12.24316,6.75976a1.99736,1.99736,0,0,1-.96533.249H94.30859a13.97182,13.97182,0,0,0-12.90185,8.56543l-6.397,15.18652-.564-.12109a1.99042,1.99042,0,0,1-1.45166-1.25293L61.50293,80.57324a1.99249,1.99249,0,0,1,.03125-1.48047l8.356-19.75879a89.92753,89.92753,0,0,1,78.60351-18.978ZM38,128A89.45135,89.45135,0,0,1,49.83691,83.42334a14.11748,14.11748,0,0,0,.4292,1.36084l11.49073,30.66894a13.94052,13.94052,0,0,0,10.168,8.77442L77.417,125.4082l.03174.00684L93.35547,128.834a1.98661,1.98661,0,0,1,1.37988,1.084l3.80518,7.86133a14.08069,14.08069,0,0,0,12.60156,7.90039H115.332l-8.95019,20.082a13.98782,13.98782,0,0,0,2.5083,15.20312l18.79931,20.333a2.0096,2.0096,0,0,1,.49561,1.73828l-2.88623,14.91992A90.10542,90.10542,0,0,1,38,128Zm99.6123,89.48584,2.354-12.17041a14.0498,14.0498,0,0,0-3.46533-12.16309l-18.79883-20.333a2,2,0,0,1-.35938-2.17286L130.10059,142.02l.00341-.00732.938-2.1045a2.00677,2.00677,0,0,1,2.09375-1.168l22.82276,3.07715a1.96131,1.96131,0,0,1,.77636.27637l49.46241,30.42187A90.15683,90.15683,0,0,1,137.6123,217.48584Z"/>
</svg>
