<svg xmlns="http://www.w3.org/2000/svg" viewBox="0 0 256 256"><path d="M224.3,161.6a101.9,101.9,0,0,0,0-67.2l-.3-.8a102,102,0,0,0-192,0l-.3.8a101.9,101.9,0,0,0,0,67.2l.3.8a102,102,0,0,0,192,.1ZM99.7,166h56.6c-5.7,18.3-15.4,34.7-28.3,47.3C115.1,200.7,105.4,184.3,99.7,166Zm-3-12a126.5,126.5,0,0,1,0-52h62.6a126.5,126.5,0,0,1,0,52ZM38,128a89.4,89.4,0,0,1,3.8-26H84.4a142,142,0,0,0,0,52H41.8A89.4,89.4,0,0,1,38,128ZM156.3,90H99.7c5.7-18.3,15.4-34.7,28.3-47.3C140.9,55.3,150.6,71.7,156.3,90Zm15.4,12h42.5a90.8,90.8,0,0,1,0,52H171.7a148.1,148.1,0,0,0,0-52Zm37.9-12H168.9A124,124,0,0,0,141,39,90.1,90.1,0,0,1,209.6,90ZM115,39A124,124,0,0,0,87.1,90H46.4A90.1,90.1,0,0,1,115,39ZM46.4,166H87.1A125,125,0,0,0,115,217.1,90.5,90.5,0,0,1,46.4,166ZM141,217.1A125,125,0,0,0,168.9,166h40.7A90.5,90.5,0,0,1,141,217.1Z"/></svg>