<svg id="Flat" xmlns="http://www.w3.org/2000/svg" viewBox="0 0 256 256">
  <path d="M128,26.00037a102,102,0,1,0,102,102A102.1153,102.1153,0,0,0,128,26.00037Zm89.79541,96H173.86816C172.56543,90.028,160.88184,60.60974,141.043,38.94885A90.16011,90.16011,0,0,1,217.79541,122.00037Zm-123.6543,12h67.71778c-1.4292,30.759-13.78369,59.68457-33.85889,79.26269C107.9248,193.68494,95.57031,164.7594,94.14111,134.00037Zm0-12C95.5708,91.24036,107.9248,62.31482,128,42.7367c20.0752,19.57812,32.4292,48.50366,33.85889,79.26367ZM114.957,38.94885C95.11816,60.60974,83.43457,90.028,82.13184,122.00037H38.20459A90.16011,90.16011,0,0,1,114.957,38.94885ZM38.20459,134.00037H82.13184c1.30273,31.97119,12.98632,61.38989,32.82519,83.05175A90.16035,90.16035,0,0,1,38.20459,134.00037ZM141.043,217.05212c19.83887-21.66186,31.52246-51.08056,32.82519-83.05175h43.92725A90.16035,90.16035,0,0,1,141.043,217.05212Z"/>
</svg>
