<svg id="Flat" xmlns="http://www.w3.org/2000/svg" viewBox="0 0 256 256">
  <path d="M128,173.99316a78,78,0,1,0-78-78A78.08811,78.08811,0,0,0,128,173.99316Zm0-144a66,66,0,1,1-66,66A66.07468,66.07468,0,0,1,128,29.99316Zm6,175.83594v20.16406h26a6,6,0,0,1,0,12H96a6,6,0,0,1,0-12h26V205.8291A109.9997,109.9997,0,0,1,50.21826,18.21191a5.99971,5.99971,0,0,1,8.48535,8.48438,98.00147,98.00147,0,0,0,69.28077,167.29785l.01562-.001.01563.001A97.36134,97.36134,0,0,0,197.29639,165.29a5.9997,5.9997,0,1,1,8.48535,8.48437A109.1919,109.1919,0,0,1,134,205.8291Z"/>
</svg>
