<svg id="Flat" xmlns="http://www.w3.org/2000/svg" viewBox="0 0 256 256">
  <path d="M221.95557,167.70215a5.9685,5.9685,0,0,0,.374-.91113A101.91263,101.91263,0,0,0,186.63672,44.58643a6.01431,6.01431,0,0,0-1.13623-.78809A101.94706,101.94706,0,0,0,44.32031,186.25342c.044.08008.082.16162.1294.24072a5.99635,5.99635,0,0,0,.65869.876,101.86038,101.86038,0,0,0,149.86865,17.49365,6.00218,6.00218,0,0,0,.69092-.563c.05664-.05664.09473-.124.14892-.18213A102.47422,102.47422,0,0,0,221.95557,167.70215ZM191.54346,191.6748l-10.43457-10.45507a12.9345,12.9345,0,0,0-9.22022-3.82618H160.45313a1.02467,1.02467,0,0,1-1.01417-1.17382l2.38038-16.16895a1.02845,1.02845,0,0,1,.54-.75976l23.86328-12.4502a1.02712,1.02712,0,0,1,1.15625.14258l21.94336,19.5498A90.4246,90.4246,0,0,1,191.54346,191.6748ZM128,38a89.472,89.472,0,0,1,49.24316,14.70508l3.62793,19.68066a1.02615,1.02615,0,0,1-.5664,1.11133l-19.86524,9.48047a13.03514,13.03514,0,0,0-6.981,15.08789,1.02559,1.02559,0,0,1-1.54688,1.125L137.49707,89.8877a13.02726,13.02726,0,0,0-18.38574,4.50781l-4.72168,8.30566a.95584.95584,0,0,1-.97608.51465.94485.94485,0,0,1-.87793-.66894l-1.374-3.74805a13.02849,13.02849,0,0,0-5.95215-6.92871L98.0166,87.915A12.98291,12.98291,0,0,0,83.562,89.1875L67.20459,102.37891a12.96975,12.96975,0,0,0-3.2793,3.94238l-10.686,19.75879a13.075,13.075,0,0,0-1.35987,8.51269l6.46,35.73828a1.02991,1.02991,0,0,1-.479,1.05957l-6.41748,3.874A89.95835,89.95835,0,0,1,128,38ZM58.44678,185.05322l5.61474-3.38916A13.09558,13.09558,0,0,0,70.148,168.19629L63.688,132.458a1.0283,1.0283,0,0,1,.10693-.66992L74.48047,112.0293a1.0201,1.0201,0,0,1,.2583-.30957l16.356-13.19043a1.01809,1.01809,0,0,1,1.13818-.09961l7.19385,3.95508a1.02807,1.02807,0,0,1,.46826.54589l1.374,3.74707a13.02518,13.02518,0,0,0,23.55225,1.95411l4.72217-8.30567a1.02558,1.02558,0,0,1,1.44677-.35547l14.415,9.30176a13.02489,13.02489,0,0,0,19.65332-14.27734,1.02578,1.02578,0,0,1,.54981-1.1875l19.86523-9.48047A13.04744,13.04744,0,0,0,192.67285,70.21l-1.07519-5.832a89.93789,89.93789,0,0,1,22.38476,90.23633l-18.62109-16.58985a13.08806,13.08806,0,0,0-14.68945-1.82226l-23.86182,12.44922a13.06082,13.06082,0,0,0-6.86279,9.65136l-2.38038,16.16895a13.02538,13.02538,0,0,0,12.88624,14.92187h11.43554a1.01726,1.01726,0,0,1,.72559.30176l9.86914,9.88819A89.8523,89.8523,0,0,1,58.44678,185.05322Z"/>
</svg>
