<svg xmlns="http://www.w3.org/2000/svg" viewBox="0 0 256 256"><path d="M134,24V48a6,6,0,0,1-12,0V24a6,6,0,0,1,12,0Zm42,38a6,6,0,0,0-6,6V92a6,6,0,0,0,12,0V68A6,6,0,0,0,176,62ZM128,202a6,6,0,0,0-6,6v24a6,6,0,0,0,12,0V208A6,6,0,0,0,128,202Zm0-128a6,6,0,0,0-6,6v96a6,6,0,0,0,12,0V80A6,6,0,0,0,128,74ZM80,62a6,6,0,0,0-6,6v64a6,6,0,0,0,12,0V68A6,6,0,0,0,80,62Zm96,56a6,6,0,0,0-6,6v64a6,6,0,0,0,12,0V124A6,6,0,0,0,176,118ZM32,110a6,6,0,0,0-6,6v24a6,6,0,0,0,12,0V116A6,6,0,0,0,32,110Zm48,48a6,6,0,0,0-6,6v24a6,6,0,0,0,12,0V164A6,6,0,0,0,80,158Zm144-48a6,6,0,0,0-6,6v24a6,6,0,0,0,12,0V116A6,6,0,0,0,224,110Z"/></svg>