<svg id="Flat" xmlns="http://www.w3.org/2000/svg" viewBox="0 0 256 256">
  <path d="M222.65283,115.9248,54.85791,19.87793a14.01061,14.01061,0,0,0-14.12647.04,13.68316,13.68316,0,0,0-6.918,11.93848v192.2871a13.68316,13.68316,0,0,0,6.918,11.93848,14.01132,14.01132,0,0,0,14.12647.04L222.65283,140.0752a13.7617,13.7617,0,0,0,0-24.1504ZM45.81348,217.70117V38.29883L135.51465,128ZM144,136.48535l22.12207,22.12207L62.65088,217.83447ZM62.65088,38.16553,166.12207,97.39307,144,119.51465Zm154.17969,91.417-.09717.0542L176.91455,152.4292,152.48535,128l24.4292-24.4292,39.81885,22.79248.09717.0542a1.76541,1.76541,0,0,1,0,3.165Z"/>
</svg>
