<svg xmlns="http://www.w3.org/2000/svg" viewBox="0 0 256 256"><path d="M250.8,90.7l-120-64a6.1,6.1,0,0,0-5.6,0l-120,64a6,6,0,0,0,0,10.6L30,114.5v51a13.6,13.6,0,0,0,2.8,8.3C40.6,184.2,70.4,218,128,218c21.9,0,39.8-4.9,54-11.5V240a6,6,0,0,0,12,0V200a106.8,106.8,0,0,0,29.2-26.2,13.6,13.6,0,0,0,2.8-8.3v-51l24.8-13.2a6,6,0,0,0,0-10.6ZM128,206c-52,0-78.7-30.1-85.6-39.4a1.5,1.5,0,0,1-.4-1.1V120.9l83.2,44.4a6,6,0,0,0,5.6,0L182,138v55.1C168.5,200.3,150.7,206,128,206Zm86-40.5a1.5,1.5,0,0,1-.4,1.1A90.7,90.7,0,0,1,194,185.5V131.6l20-10.7Zm3.2-59.9h-.1L188,121.2,130.8,90.7a6,6,0,0,0-5.6,10.6L175.3,128,128,153.2,38.9,105.7h-.1L20.8,96,128,38.8,235.3,96Z"/></svg>