<svg xmlns="http://www.w3.org/2000/svg" viewBox="0 0 256 256"><path d="M26,104a6,6,0,0,1,6-6h80a6,6,0,0,1,0,12H32A6,6,0,0,1,26,104Zm198-6H144a6,6,0,0,0,0,12h80a6,6,0,0,0,0-12ZM76,138H32a6,6,0,0,0,0,12H76a6,6,0,0,0,0-12Zm148,0H180a6,6,0,0,0,0,12h44a6,6,0,0,0,0-12ZM98,144a6,6,0,0,0,6,6h48a6,6,0,0,0,0-12H104A6,6,0,0,0,98,144ZM56,178H32a6,6,0,0,0,0,12H56a6,6,0,0,0,0-12Zm56,0H88a6,6,0,0,0,0,12h24a6,6,0,0,0,0-12Zm56,0H144a6,6,0,0,0,0,12h24a6,6,0,0,0,0-12Zm56,0H200a6,6,0,0,0,0,12h24a6,6,0,0,0,0-12ZM32,70H224a6,6,0,0,0,0-12H32a6,6,0,0,0,0,12Z"/></svg>