<svg id="Flat" xmlns="http://www.w3.org/2000/svg" viewBox="0 0 256 256">
  <path d="M250.82324,90.70605l-120-64a5.99759,5.99759,0,0,0-5.64648,0l-120,64a5.99946,5.99946,0,0,0,0,10.5879L30,114.533V165.4541a14.04763,14.04763,0,0,0,2.793,8.3916C40.57715,184.20361,70.44629,218,128,218c21.91455,0,39.8042-4.905,54-11.54517V240a6,6,0,0,0,12,0V199.968a108.58551,108.58551,0,0,0,29.20605-26.12134A14.04712,14.04712,0,0,0,226,165.4541V114.533l24.82324-13.239a5.99946,5.99946,0,0,0,0-10.5879ZM128,206c-51.99316,0-78.6748-30.12891-85.61426-39.36426A1.94981,1.94981,0,0,1,42,165.4541v-44.521L125.17676,165.294a5.99759,5.99759,0,0,0,5.64648,0L182,137.99976v55.06176C168.49609,200.27979,150.65234,206,128,206Zm86-40.5459a1.94928,1.94928,0,0,1-.38672,1.18262A93.66969,93.66969,0,0,1,194,185.54468V131.59961l20-10.6665Zm3.165-59.80859-.042.02221L188,121.2002,130.82324,90.70605a5.99972,5.99972,0,1,0-5.64648,10.5879L175.25,128,128,153.2002,38.877,105.66772l-.042-.02221L20.75,96,128,38.7998,235.25,96Z"/>
</svg>
