<svg xmlns="http://www.w3.org/2000/svg" viewBox="0 0 256 256"><path d="M48.8,102H207.2A13.7,13.7,0,0,0,218,96.8,14.3,14.3,0,0,0,220.9,85c-3.5-16.5-14.9-31.6-32.1-42.5S150.3,26,128,26,84.1,31.9,67.2,42.5,38.6,68.5,35.1,85A14.3,14.3,0,0,0,38,96.8,13.7,13.7,0,0,0,48.8,102ZM46.9,87.5C52.8,59.3,87.7,38,128,38s75.2,21.3,81.1,49.5a2.2,2.2,0,0,1-.4,1.8,2.1,2.1,0,0,1-1.5.7H48.8a2.1,2.1,0,0,1-1.5-.7A2.2,2.2,0,0,1,46.9,87.5Zm178.9,66.9L188,169.5l-37.8-15.1a6.6,6.6,0,0,0-4.4,0L108,169.5,70.2,154.4a6.6,6.6,0,0,0-4.4,0l-40,16a6.1,6.1,0,0,0-3.4,7.8A6,6,0,0,0,28,182a5.7,5.7,0,0,0,2.2-.4L42,176.9V184a38,38,0,0,0,38,38h96a38,38,0,0,0,38-38V172.1l16.2-6.5a6,6,0,1,0-4.4-11.2ZM202,184a26.1,26.1,0,0,1-26,26H80a26.1,26.1,0,0,1-26-26V172.1l14-5.6,37.8,15.1a6.6,6.6,0,0,0,4.4,0L148,166.5l37.8,15.1a6.6,6.6,0,0,0,4.4,0l11.8-4.7Zm36-56a6,6,0,0,1-6,6H24a6,6,0,0,1,0-12H232A6,6,0,0,1,238,128Z"/></svg>