<svg id="Flat" xmlns="http://www.w3.org/2000/svg" viewBox="0 0 256 256">
  <path d="M236.97559,206.4541l-14.22168-128.001A13.98492,13.98492,0,0,0,208.83984,66H173.5957a45.9871,45.9871,0,0,0-91.1914,0H47.16016A13.985,13.985,0,0,0,33.24609,78.4541l-14.22168,128A13.99974,13.99974,0,0,0,32.93848,222h190.123a13.99974,13.99974,0,0,0,13.91407-15.5459ZM128,38a34.04791,34.04791,0,0,1,33.459,28H94.541A34.04791,34.04791,0,0,1,128,38Zm96.55176,171.334a1.97893,1.97893,0,0,1-1.49024.666H32.93848a2.00074,2.00074,0,0,1-1.98828-2.22168L45.17188,79.7793A1.99869,1.99869,0,0,1,47.16016,78H82v26a6,6,0,0,0,12,0V78h68v26a6,6,0,0,0,12,0V78h34.83984a1.99864,1.99864,0,0,1,1.98828,1.77832l14.22168,128A1.9829,1.9829,0,0,1,224.55176,209.334Z"/>
</svg>
