<svg id="Flat" xmlns="http://www.w3.org/2000/svg" viewBox="0 0 256 256">
  <path d="M182,98.478V88a30.03406,30.03406,0,0,0-30-30H134V30h34a10.01177,10.01177,0,0,1,10,10,6,6,0,0,0,12,0,22.02489,22.02489,0,0,0-22-22H104a6,6,0,0,0,0,12h18V58H104A30.03406,30.03406,0,0,0,74,88V98.478A38.05753,38.05753,0,0,0,42,136v80a14.01572,14.01572,0,0,0,14,14H200a14.01572,14.01572,0,0,0,14-14V136A38.05753,38.05753,0,0,0,182,98.478ZM104,70h48a18.02031,18.02031,0,0,1,18,18V98H86V88A18.02031,18.02031,0,0,1,104,70Zm98,146a2.0026,2.0026,0,0,1-2,2H56a2.0026,2.0026,0,0,1-2-2V136a26.02947,26.02947,0,0,1,26-26h96a26.02947,26.02947,0,0,1,26,26Z"/>
</svg>
