<svg id="Flat" xmlns="http://www.w3.org/2000/svg" viewBox="0 0 256 256">
  <path d="M188,86a25.83729,25.83729,0,0,0-14,4.1084V52a25.98636,25.98636,0,0,0-40.59229-21.50684A25.99866,25.99866,0,0,0,82,36V54.1084A25.97908,25.97908,0,0,0,42,76v76a86,86,0,0,0,172,0V112A26.02916,26.02916,0,0,0,188,86Zm14,66a74,74,0,0,1-148,0V76a14,14,0,0,1,28,0v36a6,6,0,0,0,12,0V36a14,14,0,0,1,28,0v68a6,6,0,0,0,12,0V52a14,14,0,0,1,28,0v74.38965A46.06781,46.06781,0,0,0,122,172a6,6,0,0,0,12,0,34.03833,34.03833,0,0,1,34-34,6,6,0,0,0,6-6V112a14,14,0,0,1,28,0Z"/>
</svg>
