<svg id="Flat" xmlns="http://www.w3.org/2000/svg" viewBox="0 0 256 256">
  <path d="M188,42a25.83821,25.83821,0,0,0-14,4.10828V36a25.99866,25.99866,0,0,0-51.40771-5.50684A25.98636,25.98636,0,0,0,82,52v82.874l-10.73145-18.5874A26,26,0,0,0,26.10742,142.0625C58.1875,209.71094,79.46973,238,128,238a86.09728,86.09728,0,0,0,86-86V68A26.02916,26.02916,0,0,0,188,42Zm14,110a74.08385,74.08385,0,0,1-74,74c-38.78906,0-57.5293-18.35742-91.14648-89.2832q-.104-.21973-.22559-.43018a13.99971,13.99971,0,1,1,24.24805-14l21.92773,37.97949a6.00015,6.00015,0,0,0,11.19629-3V52a14,14,0,0,1,28,0v68a6,6,0,0,0,12,0V36a14,14,0,0,1,28,0v84a6,6,0,0,0,12,0V68a14,14,0,0,1,28,0Z"/>
</svg>
