<svg id="Flat" xmlns="http://www.w3.org/2000/svg" viewBox="0 0 256 256">
  <path d="M200,82H182V64a29.98958,29.98958,0,0,0-54-17.97913A29.98958,29.98958,0,0,0,74,64v.01636A29.98366,29.98366,0,0,0,26,88v40a102,102,0,0,0,204,0V112A30.03406,30.03406,0,0,0,200,82ZM152,46a18.02063,18.02063,0,0,1,18,18V82H136a14.00037,14.00037,0,0,0-2,.15967V64A18.02063,18.02063,0,0,1,152,46ZM86,64a18,18,0,0,1,36,0v40a18,18,0,0,1-36,0V64ZM38,88a18,18,0,0,1,36,0v16a18,18,0,0,1-36,0Zm180,40a90,90,0,0,1-180,0v-.01416a29.95866,29.95866,0,0,0,42-6.00671,29.95731,29.95731,0,0,0,45.11914,3.30456,30.1853,30.1853,0,0,0,14.90625,14.22266A45.95153,45.95153,0,0,0,122,176a6,6,0,0,0,12,0,34.03833,34.03833,0,0,1,34-34,6,6,0,0,0,0-12H152a18.02063,18.02063,0,0,1-18-18V96a2.00229,2.00229,0,0,1,2-2h64a18.02063,18.02063,0,0,1,18,18Z"/>
</svg>
