<svg id="Flat" xmlns="http://www.w3.org/2000/svg" viewBox="0 0 256 256">
  <path d="M218.47168,104.98828l-20-34.64062a26.00219,26.00219,0,0,0-45.59619,1.0238L133.83105,38.38574A25.987,25.987,0,0,0,87.9248,40.05225,26.00081,26.00081,0,0,0,46.15625,70.5293l9.05469,15.68316a25.97872,25.97872,0,0,0-23.69629,38.958l38,65.81787a86.00029,86.00029,0,1,0,148.957-86Zm-3,62.15283A74.00006,74.00006,0,0,1,79.90723,184.98828l-38-65.81787a14.00018,14.00018,0,0,1,24.24853-14.001l18.00049,31.17829a6.13617,6.13617,0,0,0,.41064.612c.04493.05926.0918.11523.13819.17248q.16772.20573.34961.39337c.05078.05219.1001.10547.15234.15552a6.01811,6.01811,0,0,0,.52881.45538c.019.01435.03955.02588.05859.04a6.00445,6.00445,0,0,0,.52686.34473c.06494.03772.13086.0722.19629.10742q.22193.11883.45215.2182c.06445.02789.12793.05731.19336.08295a6.08312,6.08312,0,0,0,.65039.21631c.02734.00726.05517.01117.083.018a6.00725,6.00725,0,0,0,.60059.11749c.07031.01014.14014.01746.21045.02509.17432.019.34863.03015.52393.03387.04248.00092.08447.00818.127.00818.02051,0,.041-.00378.06152-.004a5.96945,5.96945,0,0,0,.69385-.04444c.01855-.00238.03711-.00726.05615-.00982a5.94931,5.94931,0,0,0,.63184-.12372c.06689-.0166.13281-.03644.19873-.05542q.25415-.07269.50342-.16919c.06445-.02484.1289-.048.19238-.07532a5.99312,5.99312,0,0,0,2.85254-8.5191l-38-65.81885A13.99959,13.99959,0,1,1,80.79688,50.5293l34,58.89013a6.00011,6.00011,0,1,0,10.39257-6l-26-45.03369a14.00014,14.00014,0,0,1,24.249-14L153.436,96.34326l.00244.0044,7.19238,12.45752a46.01887,46.01887,0,0,0-11.834,59.5039,6.00011,6.00011,0,1,0,10.39257-6,33.99989,33.99989,0,0,1,12.44532-46.44482,6.03917,6.03917,0,0,0,.95507-.68506l.00684-.00562a5.95169,5.95169,0,0,0,.79492-.84967l.0044-.00512a5.97913,5.97913,0,0,0,.60937-.97852l.01074-.01977a6.03379,6.03379,0,0,0,.41211-1.09375l.00244-.00605c.01465-.05426.02246-.10937.03516-.16388.03223-.13519.06494-.27032.08789-.40759.01025-.06134.01367-.12305.022-.18451.01807-.13287.03662-.26562.04541-.39966.00342-.05011.00147-.10016.00342-.15027.00635-.14611.01123-.29223.00684-.439-.001-.03448-.00586-.06866-.00781-.10315-.00782-.16077-.01856-.32153-.03956-.48218-.00341-.02752-.01025-.05456-.01416-.08209-.02392-.1651-.05175-.33-.08984-.494-.00781-.03357-.01953-.06622-.02783-.09967-.03858-.15527-.08008-.31018-.13184-.46344-.022-.06463-.05078-.12713-.0747-.1911-.04493-.11944-.08741-.23938-.14063-.357q-.123-.27311-.27393-.53522l-10.001-17.32257a13.99957,13.99957,0,0,1,24.249-13.99774l20,34.64062A73.51127,73.51127,0,0,1,215.47168,167.14111ZM86.02441,243.42188a5.99893,5.99893,0,0,1-8.34961,1.51171,116.96388,116.96388,0,0,1-34.87109-37.94287,6.00012,6.00012,0,0,1,10.39258-6A105.05047,105.05047,0,0,0,84.5127,235.07227,6.00094,6.00094,0,0,1,86.02441,243.42188ZM170,30.99463A5.99978,5.99978,0,0,1,176,25h.00586a58.2053,58.2053,0,0,1,50.21582,29.00439,6.00012,6.00012,0,1,1-10.39258,6A46.17089,46.17089,0,0,0,175.99414,37,5.99988,5.99988,0,0,1,170,30.99463Z"/>
</svg>
