<svg id="Flat" xmlns="http://www.w3.org/2000/svg" viewBox="0 0 256 256">
  <path d="M249.5498,108.14893,224.957,61.05273a14.06493,14.06493,0,0,0-18.6709-6.04248L182.583,66.86133H165.294L131.9043,51.75293a14.01314,14.01314,0,0,0-9.68946-.68506L72.79053,65.4765,49.71387,53.939A14.066,14.066,0,0,0,31.043,59.98047L6.4502,107.07764a13.99969,13.99969,0,0,0,6.14843,19.00195l24.17969,12.08978L90.96484,180.541a13.921,13.921,0,0,0,5.22852,2.55371l57.957,14.48925a13.87834,13.87834,0,0,0,3.36426.41211,14.08622,14.08622,0,0,0,9.93164-4.09472L204.24316,157.104c.0293-.02923.05567-.06128.084-.09112.03857-.04035.07617-.08185.11377-.12354.03955-.04358.08154-.08471.11963-.12957l15.209-17.79255,23.63184-11.81585a14.00007,14.00007,0,0,0,6.14843-19.00244Zm-50.50634,36.59759L159.5293,116.00879a5.99951,5.99951,0,0,0-7.12891.05273l-12.7998,9.6001a26.13526,26.13526,0,0,1-31.20118-.00049l-5.42089-4.06494a2.0015,2.0015,0,0,1-.21387-3.01416l39.13476-39.13476a2.014,2.014,0,0,1,1.41407-.58594h20.65478l.02783.00146.02051-.00146h16.34766l28.44092,54.4657ZM16.957,114.17334a1.98814,1.98814,0,0,1,.12988-1.5415L41.67969,65.53467a2.01093,2.01093,0,0,1,1.78125-1.07178,1.972,1.972,0,0,1,.88574.209l19.50781,9.75341L37.41016,125.06885l-19.44434-9.72266A1.98907,1.98907,0,0,1,16.957,114.17334ZM158.96191,185.415a2.01055,2.01055,0,0,1-1.90136.52637l-57.958-14.48926a1.98081,1.98081,0,0,1-.74512-.36426L47.63037,131.42151,76.03125,77.03162l49.542-14.44324a2.00918,2.00918,0,0,1,1.38477.09766L138.273,67.80585a13.94658,13.94658,0,0,0-4.85791,3.15606L94.28027,110.09668a14.00024,14.00024,0,0,0,1.499,21.09961l5.4209,4.06494a38.19275,38.19275,0,0,0,45.5996,0l9.25489-6.94092,34.73779,25.26386ZM239.043,115.24512a1.98907,1.98907,0,0,1-1.00879,1.17285l-19.44434,9.72265L192.14551,75.49707l19.50781-9.75391a2.00841,2.00841,0,0,1,2.667.86377l24.59278,47.09619A1.98941,1.98941,0,0,1,239.043,115.24512ZM117.82129,214.31641a5.99766,5.99766,0,0,1-7.27637,4.36621l-30.13965-7.53418a14.0926,14.0926,0,0,1-5.79-3.01758L52.06348,188.52832a6.00016,6.00016,0,1,1,7.873-9.05664L82.48926,199.0752a2.01469,2.01469,0,0,0,.83105.43261L113.45508,207.04A6.00133,6.00133,0,0,1,117.82129,214.31641Z"/>
</svg>
