<svg id="Flat" xmlns="http://www.w3.org/2000/svg" viewBox="0 0 256 256">
  <path d="M236.97559,206.4541l-14.22168-128A13.98466,13.98466,0,0,0,208.83984,66H173.5957a45.9871,45.9871,0,0,0-91.1914,0H47.16016A13.98466,13.98466,0,0,0,33.24609,78.4541l-14.22168,128A13.99974,13.99974,0,0,0,32.93848,222h190.123a13.99974,13.99974,0,0,0,13.91407-15.5459ZM128,38a34.04791,34.04791,0,0,1,33.459,28H94.541A34.04791,34.04791,0,0,1,128,38Zm96.55176,171.334a1.97893,1.97893,0,0,1-1.49024.666H32.93848a2.00058,2.00058,0,0,1-1.98828-2.2207l14.22168-128A1.99869,1.99869,0,0,1,47.16016,78H208.83984a1.99869,1.99869,0,0,1,1.98828,1.7793L225.0498,207.77881A1.98523,1.98523,0,0,1,224.55176,209.334Z"/>
</svg>
