<svg xmlns="http://www.w3.org/2000/svg" viewBox="0 0 256 256"><path d="M190.3,69.7a24.1,24.1,0,0,0-14.6-11.2,23.6,23.6,0,0,0-18.2,2.4,24,24,0,0,0-8.8,8.8l-15.6-27a24,24,0,0,0-32.8-8.8,23.4,23.4,0,0,0-9,9.2,24,24,0,0,0-41.4,9.5,23.3,23.3,0,0,0,0,12.3,22.8,22.8,0,0,0-8.5,3,24,24,0,0,0-8.8,32.8l3.6,6.2a23.7,23.7,0,0,0-12,3.2,24.1,24.1,0,0,0-8.8,32.8l37,64.1a78.1,78.1,0,0,0,140.8-12.1,78.5,78.5,0,0,0,14.1-95.8ZM100.7,51.5a11.8,11.8,0,0,1,5.6-7.2,12,12,0,0,1,16.4,4.4l22.7,39.2a24.3,24.3,0,0,0-7.6,2.9,22.6,22.6,0,0,0-8.8,8.8L113.4,72.5A24.9,24.9,0,0,0,103.3,63l-1.4-2.3h0A12.3,12.3,0,0,1,100.7,51.5ZM61.5,55.7a12,12,0,0,1,22-2.9l4.7,8.1A24,24,0,0,0,71.5,73a22.9,22.9,0,0,0-7.4-5.8l-1.4-2.4A12.1,12.1,0,0,1,61.5,55.7ZM153,225.1A66.1,66.1,0,0,1,62.8,201l-37-64.1a12,12,0,1,1,20.8-12h0l24,41.6a6,6,0,0,0,5.2,3,6.4,6.4,0,0,0,3-.8,6,6,0,0,0,2.2-8.2L43,94.7a12,12,0,1,1,20.8-12l38,65.8a6,6,0,0,0,10.4-6l-30-52h0A12.1,12.1,0,0,1,81,81.4a11.8,11.8,0,0,1,5.6-7.3A12.1,12.1,0,0,1,103,78.5l42,72.8a6,6,0,0,0,5.2,3,6.7,6.7,0,0,0,3-.8,6.1,6.1,0,0,0,2.2-8.2l-16-27.8h0a11.9,11.9,0,0,1,4.4-16.3,11.8,11.8,0,0,1,16.3,4.3l17,29.5A65.9,65.9,0,0,1,153,225.1ZM198,169a76.8,76.8,0,0,0-10.5-40l-17-29.5a23.8,23.8,0,0,0-10-9.4l-1.4-2.4h0a11.6,11.6,0,0,1-1.2-9.1,11.8,11.8,0,0,1,5.6-7.3,12.1,12.1,0,0,1,16.4,4.4l17,29.4A66.6,66.6,0,0,1,198,169ZM166.9,25.2l4.2-15.5a6,6,0,0,1,11.5,3.1l-4.1,15.5a5.9,5.9,0,0,1-5.8,4.4,3.9,3.9,0,0,1-1.5-.2A6,6,0,0,1,166.9,25.2ZM193,35l9.1-13.1a6,6,0,1,1,9.9,6.9l-9.2,13.1a5.9,5.9,0,0,1-4.9,2.6,6.6,6.6,0,0,1-3.5-1.1A6.1,6.1,0,0,1,193,35Zm41.1,18.9L221,63a5.8,5.8,0,0,1-3.5,1.1,6,6,0,0,1-3.4-10.9L227.2,44a6,6,0,1,1,6.9,9.9Z"/></svg>