<svg xmlns="http://www.w3.org/2000/svg" viewBox="0 0 256 256"><path d="M218.5,105l-20-34.7a26,26,0,0,0-45.6,1.1l-19.1-33a26,26,0,0,0-35.5-9.5A25.5,25.5,0,0,0,87.9,40.1,25.8,25.8,0,0,0,55.7,35,26,26,0,0,0,43.6,50.8a25.6,25.6,0,0,0,2.6,19.7l5,8.8a25.9,25.9,0,0,0-23.7,38.9l42,72.8a86,86,0,0,0,149-86Zm-3,62.1A74,74,0,0,1,79.9,185l-42-72.8A14,14,0,0,1,43,93.1a14.2,14.2,0,0,1,19.2,5.1l22,38.1a1.6,1.6,0,0,0,.4.7h.1a.8.8,0,0,0,.4.4v.2l.5.4h.1l.5.3h.2l.5.2h.2l.6.2H91l.5-.2h.2l.7-.4a6.2,6.2,0,0,0,3-5.3,6,6,0,0,0-.6-2.3c-.1-.2-.1-.4-.3-.6l-38-65.8a14,14,0,0,1-1.3-10.6A14,14,0,0,1,72.3,44a14.2,14.2,0,0,1,8.5,6.5l34,58.9a5.9,5.9,0,0,0,8.2,2.2,6,6,0,0,0,2.2-8.2l-26-45a14,14,0,1,1,24.2-14l30,51.9h0l7.2,12.5a46,46,0,0,0-11.8,59.5,5.9,5.9,0,0,0,8.2,2.2,6,6,0,0,0,2.2-8.2,34,34,0,0,1,12.4-46.4l1-.7h0l.8-.9h0l.6-1h0a3.6,3.6,0,0,0,.4-1.1h.1a.9.9,0,0,1,.1-.5h0v-1h0v-.5h0a.9.9,0,0,1-.1-.5h0l-.2-.4c0-.1,0-.2-.1-.2s0-.3-.1-.4l-.3-.5-10-17.4a14.5,14.5,0,0,1-1.4-10.6,14,14,0,0,1,6.6-8.5,14.5,14.5,0,0,1,10.6-1.4,14.2,14.2,0,0,1,8.5,6.5l20,34.7A73.4,73.4,0,0,1,215.5,167.1ZM86,243.4a5.8,5.8,0,0,1-4.9,2.6,5.3,5.3,0,0,1-3.4-1.1A116.2,116.2,0,0,1,42.8,207a6,6,0,0,1,10.4-6,105.4,105.4,0,0,0,31.3,34.1A6,6,0,0,1,86,243.4ZM170,31a6,6,0,0,1,6-6h0a58,58,0,0,1,50.2,29,5.9,5.9,0,0,1-2.2,8.2,6.4,6.4,0,0,1-3,.8,6.1,6.1,0,0,1-5.2-3A46,46,0,0,0,176,37,6,6,0,0,1,170,31Z"/></svg>