<svg id="Flat" xmlns="http://www.w3.org/2000/svg" viewBox="0 0 256 256">
  <path d="M188,86a25.86663,25.86663,0,0,0-15.5459,5.17139A25.97174,25.97174,0,0,0,134,78.1084V36a26,26,0,0,0-52,0v98.874l-10.73145-18.5874A26,26,0,0,0,26.10742,142.0625C58.1875,209.71094,79.46973,238,128,238a86.09728,86.09728,0,0,0,86-86V112A26.02916,26.02916,0,0,0,188,86Zm14,66a74.08385,74.08385,0,0,1-74,74c-38.78906,0-57.5293-18.35742-91.14648-89.2832q-.104-.21973-.22559-.43018a13.99971,13.99971,0,1,1,24.24805-14l21.92773,37.97949a6.00015,6.00015,0,0,0,11.19629-3V36a14,14,0,0,1,28,0v68a6,6,0,0,0,12,0v-4a14,14,0,0,1,28,0v12a6,6,0,0,0,12,0,14,14,0,0,1,28,0Z"/>
</svg>
