<svg xmlns="http://www.w3.org/2000/svg" viewBox="0 0 256 256"><path d="M128,130c-27.7,0-44.5,21.2-50.4,30.3a13.9,13.9,0,0,0,0,15.4c5.9,9.1,22.7,30.3,50.4,30.3s44.5-21.2,50.4-30.3a13.9,13.9,0,0,0,0-15.4C172.5,151.2,155.7,130,128,130Zm40.4,39.1c-4.9,7.5-18.6,24.9-40.4,24.9s-35.5-17.4-40.4-24.9a2.2,2.2,0,0,1,0-2.2h0c4.9-7.5,18.6-24.9,40.4-24.9s35.5,17.4,40.4,24.9A2.2,2.2,0,0,1,168.4,169.1ZM188,86a25.6,25.6,0,0,0-14,4.1V52a26,26,0,0,0-40.6-21.5A26,26,0,0,0,82,36V46.1A25.6,25.6,0,0,0,68,42,26.1,26.1,0,0,0,42,68v84a86,86,0,0,0,172,0V112A26.1,26.1,0,0,0,188,86Zm14,66a74,74,0,0,1-148,0V68a14,14,0,0,1,28,0v44a6,6,0,0,0,12,0V36a14,14,0,0,1,28,0v68a6,6,0,0,0,12,0V52a14,14,0,0,1,28,0v64a6,6,0,0,0,12,0v-4a14,14,0,0,1,28,0Zm-64,16a10,10,0,1,1-10-10A10,10,0,0,1,138,168Z"/></svg>