<svg id="Flat" xmlns="http://www.w3.org/2000/svg" viewBox="0 0 256 256">
  <path d="M190.251,69.68652a23.9764,23.9764,0,0,0-41.56055.01514L133.07422,42.65332a23.97141,23.97141,0,0,0-41.8042.45459A24.00127,24.00127,0,0,0,49.90186,64.916a23.98408,23.98408,0,0,0-17.28663,35.7373L36.23,106.91455A23.98051,23.98051,0,0,0,15.4375,142.90234l37,64.08594a77.99184,77.99184,0,0,0,140.75391-12.09082A78.372,78.372,0,0,0,207.251,99.13184ZM100.69824,51.54688a11.99988,11.99988,0,0,1,21.9834-2.89356L145.36963,87.95A23.90829,23.90829,0,0,0,128.978,99.55859l-15.6167-27.04882A23.85686,23.85686,0,0,0,103.273,63.03711l-1.36963-2.37183-.00586-.012A11.92578,11.92578,0,0,1,100.69824,51.54688ZM61.52148,55.69141a12.00022,12.00022,0,0,1,21.9834-2.89453l4.6875,8.11987A23.9517,23.9517,0,0,0,71.54785,72.95312a23.8509,23.8509,0,0,0-7.45117-5.77221l-1.377-2.384A11.91875,11.91875,0,0,1,61.52148,55.69141Zm91.4668,169.4541a66.07673,66.07673,0,0,1-90.1582-24.15723l-37-64.08594a12.00023,12.00023,0,0,1,20.78515-12l.001.00122,23.999,41.56812a6.00012,6.00012,0,1,0,10.39258-6l-38-65.81836a11.99981,11.99981,0,1,1,20.78418-12l38,65.81836a6.00012,6.00012,0,0,0,10.39258-6l-30-51.96143v-.00048a11.99981,11.99981,0,1,1,20.78418-12l42,72.74609a6.00012,6.00012,0,0,0,10.39258-6L139.36182,117.5437l-.00049-.00073a11.99981,11.99981,0,0,1,20.78418-12l17,29.44531a65.999,65.999,0,0,1-24.15723,90.15723Zm45.021-56.15064a77.51651,77.51651,0,0,0-10.47119-40.00659l-17-29.44531A23.85282,23.85282,0,0,0,160.45068,90.071l-1.376-2.38378-.00049-.00074a11.99981,11.99981,0,0,1,20.78418-12l17,29.44532A66.39509,66.39509,0,0,1,198.00928,168.99487Zm-31.1001-143.822,4.1416-15.4541a6.00029,6.00029,0,0,1,11.5918,3.10547l-4.1416,15.4541a6.00029,6.00029,0,0,1-11.5918-3.10547Zm26.06152,9.85352,9.17774-13.10645a6.00007,6.00007,0,0,1,9.83008,6.88281l-9.17774,13.10645a6.00007,6.00007,0,0,1-9.83008-6.88281Zm41.10938,18.82519L220.97363,63.0293a6.00007,6.00007,0,0,1-6.88281-9.83008l13.10645-9.17774a6.00007,6.00007,0,0,1,6.88281,9.83008Z"/>
</svg>
