<svg id="Flat" xmlns="http://www.w3.org/2000/svg" viewBox="0 0 256 256">
  <path d="M224,90H173.00781l8.89551-48.92676a6.00009,6.00009,0,0,0-11.80664-2.14648L160.81055,90H109.00781l8.89551-48.92676a6.00009,6.00009,0,0,0-11.80664-2.14648L96.81055,90H43.63672a6,6,0,0,0,0,12H94.62891l-9.45459,52H32a6,6,0,0,0,0,12H82.99219l-8.89551,48.92676a6,6,0,0,0,4.83008,6.97656,6.0851,6.0851,0,0,0,1.08008.09766,6.00255,6.00255,0,0,0,5.89648-4.92774L95.18945,166h51.80274l-8.89551,48.92676a6,6,0,0,0,4.83008,6.97656,6.0851,6.0851,0,0,0,1.08008.09766,6.00255,6.00255,0,0,0,5.89648-4.92774L159.18945,166h53.17383a6,6,0,1,0,0-12H161.37109l9.45459-52H224a6,6,0,0,0,0-12Zm-74.82568,64H97.37109l9.45459-52h51.80323Z"/>
</svg>
