<svg id="Flat" xmlns="http://www.w3.org/2000/svg" viewBox="0 0 256 256">
  <path d="M201.31152,55.60693a101.23821,101.23821,0,0,0-72.53906-29.604c-.26172-.002-.51855-.00293-.7793-.00293A101.99959,101.99959,0,0,0,26,128v56a22.02489,22.02489,0,0,0,22,22H64a22.02489,22.02489,0,0,0,22-22V144a22.02489,22.02489,0,0,0-22-22H38.19531A90.01041,90.01041,0,0,1,128.082,38q.34423,0,.69043.00244A90.01057,90.01057,0,0,1,219.26074,122H193.45605a22.0249,22.0249,0,0,0-22,22v40a22.0249,22.0249,0,0,0,22,22h16a21.85463,21.85463,0,0,0,10-2.41406V208a26.02916,26.02916,0,0,1-26,26H136a6,6,0,0,0,0,12h57.45605a38.04323,38.04323,0,0,0,38-38V128A101.29632,101.29632,0,0,0,201.31152,55.60693ZM64,134a10.01146,10.01146,0,0,1,10,10v40a10.01177,10.01177,0,0,1-10,10H48a10.01177,10.01177,0,0,1-10-10V134Zm145.45605,60h-16a10.01177,10.01177,0,0,1-10-10V144a10.01146,10.01146,0,0,1,10-10h26v50A10.01177,10.01177,0,0,1,209.45605,194Z"/>
</svg>
