<svg xmlns="http://www.w3.org/2000/svg" viewBox="0 0 256 256"><path d="M201.3,63.6A101.1,101.1,0,0,0,128.8,34H128A101.9,101.9,0,0,0,26,136v56a22.1,22.1,0,0,0,22,22H64a22.1,22.1,0,0,0,22-22V152a22.1,22.1,0,0,0-22-22H38.2a90,90,0,0,1,89.9-84h1.4a90,90,0,0,1,89.8,84H193.5a22,22,0,0,0-22,22v40a22,22,0,0,0,22,22h16a22.1,22.1,0,0,0,22-22V136A101.1,101.1,0,0,0,201.3,63.6ZM64,142a10,10,0,0,1,10,10v40a10,10,0,0,1-10,10H48a10,10,0,0,1-10-10V142Zm155.5,50a10,10,0,0,1-10,10h-16a10,10,0,0,1-10-10V152a10,10,0,0,1,10-10h26Z"/></svg>