<svg xmlns="http://www.w3.org/2000/svg" viewBox="0 0 256 256"><path d="M201.3,55.6A101.1,101.1,0,0,0,128.8,26H128A101.9,101.9,0,0,0,26,128v56a22.1,22.1,0,0,0,22,22H64a22.1,22.1,0,0,0,22-22V144a22.1,22.1,0,0,0-22-22H38.2a90,90,0,0,1,89.9-84h.7a90,90,0,0,1,90.5,84H193.5a22,22,0,0,0-22,22v40a22,22,0,0,0,22,22h16a22.3,22.3,0,0,0,10-2.4V208a26.1,26.1,0,0,1-26,26H136a6,6,0,0,0,0,12h57.5a38,38,0,0,0,38-38V128A101.1,101.1,0,0,0,201.3,55.6ZM64,134a10,10,0,0,1,10,10v40a10,10,0,0,1-10,10H48a10,10,0,0,1-10-10V134Zm145.5,60h-16a10,10,0,0,1-10-10V144a10,10,0,0,1,10-10h26v50A10,10,0,0,1,209.5,194Z"/></svg>