<svg id="Flat" xmlns="http://www.w3.org/2000/svg" viewBox="0 0 256 256">
  <path d="M162,80a6.00029,6.00029,0,0,1,6-6h72a6,6,0,0,1,0,12H168A6.00029,6.00029,0,0,1,162,80Zm78,90H168a6,6,0,0,0,0,12h72a6,6,0,0,0,0-12Zm0-64H168a6,6,0,0,0,0,12h72a6,6,0,0,0,0-12Zm0,32H168a6,6,0,0,0,0,12h72a6,6,0,0,0,0-12ZM142,64V192a14.01572,14.01572,0,0,1-14,14H88A78.00094,78.00094,0,0,1,10.002,127.40918C10.31885,84.72559,45.71387,50,88.90381,50H128A14.01572,14.01572,0,0,1,142,64Zm-12,0a2.0026,2.0026,0,0,0-2-2H88.90381C52.28174,62,22.26953,91.38281,22.002,127.499A66.00082,66.00082,0,0,0,88,194h40a2.0026,2.0026,0,0,0,2-2Z"/>
</svg>
