<svg id="Flat" xmlns="http://www.w3.org/2000/svg" viewBox="0 0 256 256">
  <path d="M128,220.21826a13.95747,13.95747,0,0,1-9.89941-4.09289L34.98828,133.01221a58.00084,58.00084,0,0,1,2.25684-84.1659A56.04851,56.04851,0,0,1,78.82617,34.78857,62.72015,62.72015,0,0,1,119.0918,53.06824L128,61.97559l10.98828-10.9878a58.003,58.003,0,0,1,84.166,2.257,56.05045,56.05045,0,0,1,14.05761,41.5813,62.72507,62.72507,0,0,1-18.27929,40.2666L137.89941,216.125v.00049A13.9599,13.9599,0,0,1,128,220.21826Zm5.65723-8.33594h0ZM74.98535,46.73352A44.09417,44.09417,0,0,0,45.27441,57.76379a46.00286,46.00286,0,0,0-1.80175,66.76307l83.1123,83.11267a2.005,2.005,0,0,0,2.83008.00012l81.03223-81.03223c18.168-18.16858,19.86816-47.4768,3.78906-65.33276a46.00322,46.00322,0,0,0-66.76367-1.80152L132.24219,74.70349a5.99892,5.99892,0,0,1-8.48438,0l-13.15039-13.1499A50.59908,50.59908,0,0,0,74.98535,46.73352Z"/>
</svg>
