<svg xmlns="http://www.w3.org/2000/svg" viewBox="0 0 256 256"><path d="M223.2,53.2A58,58,0,0,0,139,51L128,62l-8.9-8.9A62.8,62.8,0,0,0,78.8,34.8a56.5,56.5,0,0,0-41.6,14A58,58,0,0,0,35,133l83.1,83.1a14,14,0,0,0,19.8,0l81-81a62.8,62.8,0,0,0,18.3-40.3A56.5,56.5,0,0,0,223.2,53.2Zm-12.8,73.4-81,81a1.9,1.9,0,0,1-2.8,0L43.5,124.5a45.8,45.8,0,0,1,1.8-66.7A44,44,0,0,1,75,46.7a50.3,50.3,0,0,1,35.6,14.9l9.1,9.1L107.6,84a5.8,5.8,0,0,0,.2,8.2L135.5,120l-11.7,11.8a5.9,5.9,0,1,0,8.4,8.4l16-16a5.8,5.8,0,0,0,0-8.4l-27.9-28,27.2-28.3a45.8,45.8,0,0,1,66.7,1.8C230.3,79.1,228.6,108.4,210.4,126.6Z"/></svg>