<svg xmlns="http://www.w3.org/2000/svg" viewBox="0 0 256 256"><path d="M176,34a57.3,57.3,0,0,0-41,17l-7.6,7.6A58,58,0,0,0,22,92c0,30,17.5,60.9,52,92,25.2,22.6,50,36.7,51.1,37.2a5.7,5.7,0,0,0,5.8,0c1.1-.5,25.9-14.6,51.1-37.2,34.5-31.1,52-62,52-92A58,58,0,0,0,176,34ZM128,209c-16.2-9.7-94-59.7-94-117a46,46,0,0,1,84.8-24.8L103,83a5.9,5.9,0,0,0,0,8.5l27.7,27.7L119,131a5.9,5.9,0,0,0,0,8.5,6.1,6.1,0,0,0,8.5,0l16-16a6.1,6.1,0,0,0,0-8.5L115.7,87.2l14.7-14.7h.2l12.9-12.9A46,46,0,0,1,222,92C222,149.3,144.2,199.3,128,209Z"/></svg>