<svg xmlns="http://www.w3.org/2000/svg" viewBox="0 0 256 256"><path d="M72,134H32a6,6,0,0,1,0-12H68.8L83,100.7a6,6,0,0,1,10,0l27,40.5,11-16.5a6,6,0,0,1,5-2.7h24a6,6,0,0,1,0,12H139.2L125,155.3a6,6,0,0,1-10,0L88,114.8,77,131.3A6,6,0,0,1,72,134ZM176,34a58,58,0,0,0-48,25.4A58,58,0,0,0,22,92c0,1.4,0,2.9.1,4.3a6.1,6.1,0,0,0,6.4,5.7,5.9,5.9,0,0,0,5.6-6.3C34,94.4,34,93.2,34,92a46,46,0,0,1,88.5-17.7,5.9,5.9,0,0,0,11,0A46,46,0,0,1,222,92c0,57.3-77.8,107.3-94,117-9.6-5.8-41-25.7-64.8-52.9a6,6,0,0,0-8.5-.6,6.1,6.1,0,0,0-.6,8.5c29.8,34,69.3,56.3,71,57.2a5.7,5.7,0,0,0,5.8,0A315.8,315.8,0,0,0,182,184c34.5-31.1,52-62,52-92A58,58,0,0,0,176,34Z"/></svg>