<svg id="Flat" xmlns="http://www.w3.org/2000/svg" viewBox="0 0 256 256">
  <path d="M128.01172,222a5.99681,5.99681,0,0,1-2.93164-.765,315.04431,315.04431,0,0,1-51.082-37.27527C39.502,152.91382,22.01172,121.97406,22.01172,92a58.01662,58.01662,0,0,1,106-32.59509A58.01662,58.01662,0,0,1,234.01172,92c0,29.97406-17.49024,60.91382-51.98633,91.95972a315.04479,315.04479,0,0,1-51.082,37.27527A5.99681,5.99681,0,0,1,128.01172,222Zm-48-176a46.05223,46.05223,0,0,0-46,46c0,57.3255,77.78613,107.25671,94,117.03735,16.21387-9.78064,94-59.71185,94-117.03735a46.00872,46.00872,0,0,0-88.46387-17.72156,6,6,0,0,1-11.07226,0A45.90889,45.90889,0,0,0,80.01172,46Z"/>
</svg>
