<svg id="Flat" xmlns="http://www.w3.org/2000/svg" viewBox="0 0 256 256">
  <path d="M72,134H32a6,6,0,0,1,0-12H68.78906l14.21875-21.32812a5.99969,5.99969,0,0,1,9.98438,0L120,141.18359l11.00781-16.51171A5.99962,5.99962,0,0,1,136,122h24a6,6,0,0,1,0,12H139.21094l-14.21875,21.32812a5.99969,5.99969,0,0,1-9.98438,0L88,114.81641,76.99219,131.32812A5.99962,5.99962,0,0,1,72,134ZM176,34a57.85724,57.85724,0,0,0-48,25.40479A58.01668,58.01668,0,0,0,22,92c0,1.43457.042,2.89355.124,4.33545a6,6,0,1,0,11.98047-.68408C34.03516,94.43652,34,93.208,34,92a46.00875,46.00875,0,0,1,88.46387-17.72168,6.00013,6.00013,0,0,0,11.07226,0A46.00875,46.00875,0,0,1,222,92c0,57.32959-77.79688,107.26318-94.00293,117.03906-9.6333-5.79834-41.00488-25.74121-64.82227-52.98681a6.00006,6.00006,0,1,0-9.03466,7.898c29.73779,34.01855,69.26025,56.35058,70.92822,57.28466a5.99887,5.99887,0,0,0,5.86328,0,315.06926,315.06926,0,0,0,51.082-37.2749C216.50928,152.91406,234,121.97412,234,92A58.06551,58.06551,0,0,0,176,34Z"/>
</svg>
