<svg id="Flat" xmlns="http://www.w3.org/2000/svg" viewBox="0 0 256 256">
  <path d="M128,236.7998a14.0032,14.0032,0,0,1-6.88879-1.80126l-84-47.47828A14.02227,14.02227,0,0,1,30,175.33228V80.66772A14.02188,14.02188,0,0,1,37.111,68.48l84.00025-47.47852a14.0726,14.0726,0,0,1,13.77758,0l84.00013,47.47828A14.02188,14.02188,0,0,1,226,80.66772v94.66456A14.02148,14.02148,0,0,1,218.88916,187.52l-84.00037,47.47852A14.0032,14.0032,0,0,1,128,236.7998Zm0-205.60888a1.9991,1.9991,0,0,0-.984.25732l-84,47.47827A2.00355,2.00355,0,0,0,42,80.66772v94.66456a2.00394,2.00394,0,0,0,1.01624,1.74145l83.99975,47.478a2.00927,2.00927,0,0,0,1.968,0l84.00012-47.47827A2.00339,2.00339,0,0,0,214,175.33228V80.66772a2.00379,2.00379,0,0,0-1.01611-1.74145L128.984,31.44824A1.9991,1.9991,0,0,0,128,31.19092Z"/>
</svg>
