<svg id="Flat" xmlns="http://www.w3.org/2000/svg" viewBox="0 0 256 256">
  <path d="M200.124,200.125l.001-.001-.00049.00049ZM230,128A101.99946,101.99946,0,0,1,55.875,200.124,101.99946,101.99946,0,1,1,200.124,55.875,101.33173,101.33173,0,0,1,230,128ZM128,218a89.87342,89.87342,0,0,0,34-6.62811V152a2.00229,2.00229,0,0,0-2-2H96a2.00229,2.00229,0,0,0-2,2v59.37183A89.87371,89.87371,0,0,0,128,218ZM146,81.708l-36,18V138h36Zm45.63965,109.93066a90,90,0,1,0-127.2793,0A90.57231,90.57231,0,0,0,82,205.39288V152a14.01572,14.01572,0,0,1,14-14h2V96a6.00125,6.00125,0,0,1,3.31641-5.3667l48-24A6.00024,6.00024,0,0,1,158,72v66h2a14.01572,14.01572,0,0,1,14,14v53.393a90.56792,90.56792,0,0,0,17.63867-13.75336Z"/>
</svg>
