<svg id="Flat" xmlns="http://www.w3.org/2000/svg" viewBox="0 0 256 256">
  <path d="M200.62891,56.38184A101.27105,101.27105,0,0,0,128,26h-8a6.00029,6.00029,0,0,0-6,6V60.64746L12.85547,122.89014a5.99959,5.99959,0,0,0-1.72168,8.61963L24.9209,150.626a29.83963,29.83963,0,0,0,29.38281,12.02148c14.31641-2.42432,40.86621-4.4209,64.876,7.37793l-28.49707,39.896a89.90663,89.90663,0,0,1-22.68067-14.83692,6.00023,6.00023,0,0,0-8.0039,8.94141A101.67165,101.67165,0,0,0,128.01367,230q1.02246,0,2.04688-.02051A102.00113,102.00113,0,0,0,200.62891,56.38184Zm-8.88184,134.9873a89.80755,89.80755,0,0,1-89.42871,22.90772l28.84082-40.37647A54.06443,54.06443,0,0,0,182,120a6,6,0,0,0-12,0,42.04325,42.04325,0,0,1-40.46362,41.96094c-28.33179-16.23145-60.43872-13.98877-77.23658-11.14551a17.91891,17.91891,0,0,1-17.64648-7.209L24.64258,129.72656l98.502-60.6167A5.99987,5.99987,0,0,0,126,64V38h2a89.88335,89.88335,0,0,1,63.74707,153.36914ZM134,100a10,10,0,1,1-10-10A10.01146,10.01146,0,0,1,134,100Z"/>
</svg>
