<svg id="Flat" xmlns="http://www.w3.org/2000/svg" viewBox="0 0 256 256">
  <path d="M132.99976,100a9,9,0,1,1-9-9A8.9999,8.9999,0,0,1,132.99976,100Zm96.9895,29.45068a102.29588,102.29588,0,0,1-99.92871,100.52881Q129.03662,230,128.01367,230a101.67165,101.67165,0,0,1-68.01562-25.97412,6.00023,6.00023,0,0,1,8.0039-8.94141,89.90663,89.90663,0,0,0,22.68067,14.83692l28.49707-39.896c-24.00977-11.79883-50.55957-9.80225-64.876-7.37793A29.83963,29.83963,0,0,1,24.9209,150.626L11.13379,131.50977a5.99959,5.99959,0,0,1,1.72168-8.61963L114,60.64746V32a6.00029,6.00029,0,0,1,6-6h8A101.99791,101.99791,0,0,1,229.98926,129.45068Zm-11.99805-.167A90.001,90.001,0,0,0,128,38h-2V64a5.99987,5.99987,0,0,1-2.85547,5.10986l-98.502,60.6167,10.01074,13.87989a17.91891,17.91891,0,0,0,17.64648,7.209c16.79786-2.84326,48.90479-5.08594,77.23658,11.14551A42.04325,42.04325,0,0,0,170,120a6,6,0,0,1,12,0,54.06443,54.06443,0,0,1-50.84082,53.90039l-28.84082,40.37647a90.20211,90.20211,0,0,0,115.67285-84.99317Z"/>
</svg>
