<svg id="Flat" xmlns="http://www.w3.org/2000/svg" viewBox="0 0 256 256">
  <path d="M136.48535,128l70.10059-70.10059A14.00007,14.00007,0,0,0,196.68652,34H59.31348a14.00007,14.00007,0,0,0-9.89942,23.89941L119.51465,128,49.41406,198.10059A14.00007,14.00007,0,0,0,59.31348,222h137.373a14.00007,14.00007,0,0,0,9.89942-23.89941ZM57.46582,47.23486A1.90572,1.90572,0,0,1,59.31348,46h137.373a1.99994,1.99994,0,0,1,1.41407,3.41406L173.51465,74H82.48535L57.89941,49.41406A1.905,1.905,0,0,1,57.46582,47.23486ZM94.48535,86h67.0293L128,119.51465ZM198.53418,208.76514A1.90572,1.90572,0,0,1,196.68652,210H59.31348a1.99994,1.99994,0,0,1-1.41407-3.41406L122,142.48535V168a6,6,0,0,0,12,0V142.48535l64.10059,64.10059A1.905,1.905,0,0,1,198.53418,208.76514Z"/>
</svg>
