<svg id="Flat" xmlns="http://www.w3.org/2000/svg" viewBox="0 0 256 256">
  <path d="M136.48535,128l70.10059-70.10059A14.00007,14.00007,0,0,0,196.68652,34H59.31348a14.00007,14.00007,0,0,0-9.89942,23.89941L119.51465,128,75.75781,171.75732l-.00049.00025-26.34326,26.343A14.00007,14.00007,0,0,0,59.31348,222h137.373a14.00007,14.00007,0,0,0,9.89942-23.89941ZM57.89941,49.41406A1.99994,1.99994,0,0,1,59.31348,46h137.373a1.99994,1.99994,0,0,1,1.41407,3.41406L128,119.51465ZM128,136.48535,161.51465,170H94.48535Zm70.53418,72.27979A1.90572,1.90572,0,0,1,196.68652,210H59.31348a1.99994,1.99994,0,0,1-1.41407-3.41406L82.48535,182h91.0293l24.58594,24.58594A1.905,1.905,0,0,1,198.53418,208.76514Z"/>
</svg>
