<svg xmlns="http://www.w3.org/2000/svg" viewBox="0 0 256 256"><path d="M136.5,128l70.1-70.1A14,14,0,0,0,196.7,34H59.3a14,14,0,0,0-9.9,23.9L119.5,128,49.4,198.1A14,14,0,0,0,59.3,222H196.7a14,14,0,0,0,9.9-23.9Zm-79-80.8A2,2,0,0,1,59.3,46H196.7a2,2,0,0,1,1.8,1.2,1.9,1.9,0,0,1-.4,2.2L173.5,74h-91L57.9,49.4A1.9,1.9,0,0,1,57.5,47.2ZM94.5,86h67L128,119.5Zm104,122.8a2,2,0,0,1-1.8,1.2H59.3a2,2,0,0,1-1.8-1.2,1.9,1.9,0,0,1,.4-2.2L122,142.5V168a6,6,0,0,0,12,0V142.5l64.1,64.1A1.9,1.9,0,0,1,198.5,208.8Z"/></svg>