<svg xmlns="http://www.w3.org/2000/svg" viewBox="0 0 256 256"><path d="M184,26H72A14,14,0,0,0,58,40V76a14,14,0,0,0,5.6,11.2L118,128,63.6,168.8A14,14,0,0,0,58,180v36a14,14,0,0,0,14,14H184a14,14,0,0,0,14-14V180.4a14,14,0,0,0-5.6-11.2L138,128l54.4-41.2A14,14,0,0,0,198,75.6V40A14,14,0,0,0,184,26ZM72,38H184a2,2,0,0,1,2,2V58H70V40A2,2,0,0,1,72,38ZM186,180.4V216a2,2,0,0,1-2,2H72a2,2,0,0,1-2-2V180a2.1,2.1,0,0,1,.8-1.6L128,135.5l57.2,43.3A1.8,1.8,0,0,1,186,180.4Zm-.8-103.2L128,120.5,70.8,77.6A2.1,2.1,0,0,1,70,76V70H186v5.6A1.8,1.8,0,0,1,185.2,77.2Z"/></svg>