<svg xmlns="http://www.w3.org/2000/svg" viewBox="0 0 256 256"><path d="M198,75.6V40a14,14,0,0,0-14-14H72A14,14,0,0,0,58,40V76a14,14,0,0,0,5.6,11.2L118,128,63.6,168.8A14.2,14.2,0,0,0,58,179.3v.7h0v36a14,14,0,0,0,14,14H184a14,14,0,0,0,14-14V180.4h0v-.6a14.2,14.2,0,0,0-5.6-10.5L138,128l54.4-41.2A14,14,0,0,0,198,75.6Zm-18.7,98.7L76.6,174,128,135.5ZM184,218H72a2,2,0,0,1-2-2V186l116,.3V216A2,2,0,0,1,184,218Zm2-142.4a1.8,1.8,0,0,1-.8,1.6L128,120.5,70.8,77.6A2.1,2.1,0,0,1,70,76V40a2,2,0,0,1,2-2H184a2,2,0,0,1,2,2Z"/></svg>