<svg id="Flat" xmlns="http://www.w3.org/2000/svg" viewBox="0 0 256 256">
  <path d="M198,75.64111V40a14.01572,14.01572,0,0,0-14-14H72A14.01572,14.01572,0,0,0,58,40V76a14.06728,14.06728,0,0,0,5.6001,11.2L118,128,63.6001,168.7998a14.05457,14.05457,0,0,0-5.56006,10.522,6.03851,6.03851,0,0,0-.04.66162l.00049.00928L58,180v36a14.01572,14.01572,0,0,0,14,14H184a14.01572,14.01572,0,0,0,14-14V180.35889c0-.0232-.00391-.0459-.00391-.06885-.00244-.20093-.01367-.39917-.03515-.59473a14.06042,14.06042,0,0,0-5.51856-10.50488L137.9502,128l54.49218-41.19043A14.07419,14.07419,0,0,0,198,75.64111Zm-18.66846,98.68213-102.7124-.28784,51.3667-38.5249ZM184,218H72a2.00229,2.00229,0,0,1-2-2V186.01685l116,.32519V216A2.00229,2.00229,0,0,1,184,218Zm2-142.35889a2.01133,2.01133,0,0,1-.79395,1.59571L127.98584,120.4895,70.7998,77.59985A2.009,2.009,0,0,1,70,76V40a2.00245,2.00245,0,0,1,2-2H184a2.00245,2.00245,0,0,1,2,2Z"/>
</svg>
