<svg id="Flat" xmlns="http://www.w3.org/2000/svg" viewBox="0 0 256 256">
  <path d="M198,75.64111V40a14.01572,14.01572,0,0,0-14-14H72A14.01572,14.01572,0,0,0,58,40V76a14.06777,14.06777,0,0,0,5.6001,11.2002L118,128,63.6001,168.7998A14.06777,14.06777,0,0,0,58,180v36a14.01572,14.01572,0,0,0,14,14H184a14.01572,14.01572,0,0,0,14-14V180.35889a14.07383,14.07383,0,0,0-5.55762-11.16846L137.9502,128l54.49218-41.19043A14.07383,14.07383,0,0,0,198,75.64111ZM70,40a2.0026,2.0026,0,0,1,2-2H184a2.0026,2.0026,0,0,1,2,2V75.64111a2.011,2.011,0,0,1-.79395,1.59571l-6.29541,4.75879h-102.25l-5.86084-4.396A2.0085,2.0085,0,0,1,70,76Zm57.98584,80.48926L92.66064,93.99561h70.37452ZM186,180.35889V216a2.0026,2.0026,0,0,1-2,2H72a2.0026,2.0026,0,0,1-2-2V180a2.0085,2.0085,0,0,1,.7998-1.59961L122,140v27.99561a6,6,0,0,0,12,0v-27.939l51.20605,38.70654A2.011,2.011,0,0,1,186,180.35889Z"/>
</svg>
