<svg id="Flat" xmlns="http://www.w3.org/2000/svg" viewBox="0 0 256 256">
  <path d="M239.98828,210h-18V115.53882a14.03222,14.03222,0,0,0-4.582-10.35889L137.40039,32.44458a13.94491,13.94491,0,0,0-18.83594.001L38.57031,105.17969a14.02742,14.02742,0,0,0-4.582,10.35888V210h-18a6,6,0,0,0,0,12h224a6,6,0,1,0,0-12Zm-194-94.46143a2.00429,2.00429,0,0,1,.6543-1.48l79.99414-72.73437a1.99291,1.99291,0,0,1,2.6914-.00049L209.333,114.05786a2.00817,2.00817,0,0,1,.65527,1.481V210H157.98242V151.9917a6.00014,6.00014,0,0,0-6-6h-48a6.00015,6.00015,0,0,0-6,6V210H45.98828ZM145.98242,210h-36V157.9917h36Z"/>
</svg>
