<svg id="Flat" xmlns="http://www.w3.org/2000/svg" viewBox="0 0 256 256">
  <path d="M208,221.999h-.00195l-48.00586-.00634a14.01594,14.01594,0,0,1-13.99805-14v-48.001a2.00229,2.00229,0,0,0-2-2h-32a2.00229,2.00229,0,0,0-2,2v48.001a14.01594,14.01594,0,0,1-13.99805,14L48.002,221.999A13.99944,13.99944,0,0,1,34,207.999V115.53857a14.02623,14.02623,0,0,1,4.582-10.35888l79.99414-72.73438a13.94491,13.94491,0,0,1,18.83594-.001L217.418,105.18018A14.03019,14.03019,0,0,1,222,115.53906v92.46a13.99944,13.99944,0,0,1-14,14ZM111.99414,145.9917h32a14.01572,14.01572,0,0,1,14,14v48.001a2.00261,2.00261,0,0,0,2,2L208,209.999h0a2.00051,2.00051,0,0,0,2-2v-92.46a2.00592,2.00592,0,0,0-.65527-1.48047L129.33984,41.32373a1.994,1.994,0,0,0-2.6914.00049L46.6543,114.05908A2.00362,2.00362,0,0,0,46,115.53857V207.999a2.00051,2.00051,0,0,0,2,2l47.99414-.00634a2.00261,2.00261,0,0,0,2-2v-48.001A14.01572,14.01572,0,0,1,111.99414,145.9917Z"/>
</svg>
