<svg id="Flat" xmlns="http://www.w3.org/2000/svg" viewBox="0 0 256 256">
  <path d="M208,222H48a14.01572,14.01572,0,0,1-14-14V115.53857a14.02742,14.02742,0,0,1,4.582-10.35888l79.99414-72.73413a13.94491,13.94491,0,0,1,18.83594-.001L217.418,105.17993l.001.001A14.03117,14.03117,0,0,1,222,115.53882V208A14.01572,14.01572,0,0,1,208,222ZM127.99414,40.801a1.996,1.996,0,0,0-1.3457.52319L46.6543,114.05859a2.00429,2.00429,0,0,0-.6543,1.48V208a2.00245,2.00245,0,0,0,2,2H208a2.00245,2.00245,0,0,0,2-2V115.53882a2.00817,2.00817,0,0,0-.65527-1.481L129.33984,41.32373A1.99607,1.99607,0,0,0,127.99414,40.801Z"/>
</svg>
