<svg id="Flat" xmlns="http://www.w3.org/2000/svg" viewBox="0 0 256 256">
  <path d="M198,112a6.00029,6.00029,0,0,1-6,6H152a6,6,0,0,1,0-12h40A6.00029,6.00029,0,0,1,198,112Zm-6,26H152a6,6,0,0,0,0,12h40a6,6,0,0,0,0-12Zm-63.09766,28.50146a6.00006,6.00006,0,1,1-11.62109,2.99219,26.01029,26.01029,0,0,0-50.36182.00147,5.99994,5.99994,0,1,1-11.62109-2.99121A37.91916,37.91916,0,0,1,73.021,143.13416a30.00006,30.00006,0,1,1,38.15893.00012A37.92056,37.92056,0,0,1,128.90234,166.50146ZM92.10059,138a18,18,0,1,0-18-18A18.02031,18.02031,0,0,0,92.10059,138ZM230,56V200a14.01572,14.01572,0,0,1-14,14H40a14.01572,14.01572,0,0,1-14-14V56A14.01572,14.01572,0,0,1,40,42H216A14.01572,14.01572,0,0,1,230,56Zm-12,0a2.002,2.002,0,0,0-2-2H40a2.002,2.002,0,0,0-2,2V200a2.002,2.002,0,0,0,2,2H216a2.002,2.002,0,0,0,2-2Z"/>
</svg>
