<svg xmlns="http://www.w3.org/2000/svg" viewBox="0 0 256 256"><path d="M198,112a6,6,0,0,1-6,6H152a6,6,0,0,1,0-12h40A6,6,0,0,1,198,112Zm-6,26H152a6,6,0,0,0,0,12h40a6,6,0,0,0,0-12Zm-63.1,28.5a6,6,0,0,1-11.6,3,26,26,0,0,0-50.4,0,6,6,0,0,1-5.8,4.5l-1.5-.2a6,6,0,0,1-4.3-7.3A38,38,0,0,1,73,143.1a30,30,0,1,1,38.2,0A38,38,0,0,1,128.9,166.5ZM92.1,138a18,18,0,1,0-18-18A18.1,18.1,0,0,0,92.1,138ZM230,56V200a14,14,0,0,1-14,14H40a14,14,0,0,1-14-14V56A14,14,0,0,1,40,42H216A14,14,0,0,1,230,56Zm-12,0a2,2,0,0,0-2-2H40a2,2,0,0,0-2,2V200a2,2,0,0,0,2,2H216a2,2,0,0,0,2-2Z"/></svg>