<svg xmlns="http://www.w3.org/2000/svg" viewBox="0 0 256 256"><path d="M208,34H48A14,14,0,0,0,34,48V176h0v32a14,14,0,0,0,14,14H208a14,14,0,0,0,14-14V48A14,14,0,0,0,208,34Zm2,174a2,2,0,0,1-2,2H48a2,2,0,0,1-2-2V178.5l32.6-32.6a1.9,1.9,0,0,1,2.8,0l20.7,20.7a14,14,0,0,0,19.8,0l44.7-44.7a1.9,1.9,0,0,1,2.8,0L210,162.5Zm0-62.5-32.1-32.1a14,14,0,0,0-19.8,0l-44.7,44.7a1.9,1.9,0,0,1-2.8,0L89.9,137.4a14.1,14.1,0,0,0-19.8,0L46,161.5V48a2,2,0,0,1,2-2H208a2,2,0,0,1,2,2ZM110,92h0a10,10,0,0,1-10,10A9.9,9.9,0,0,1,90,92a10,10,0,0,1,20,0Z"/></svg>