<svg id="Flat" xmlns="http://www.w3.org/2000/svg" viewBox="0 0 256 256">
  <path d="M208,34H48A14.01572,14.01572,0,0,0,34,48V208a14.01572,14.01572,0,0,0,14,14H208a14.01572,14.01572,0,0,0,14-14V48A14.01572,14.01572,0,0,0,208,34Zm2,174a2.0026,2.0026,0,0,1-2,2H48a2.0026,2.0026,0,0,1-2-2V178.48535l32.58594-32.58594a2.00281,2.00281,0,0,1,2.8291,0l20.68652,20.68653a13.99844,13.99844,0,0,0,19.79785,0l44.68653-44.68653a2.004,2.004,0,0,1,2.8291,0L210,162.48437Zm0-62.48438L177.89941,113.415a13.99842,13.99842,0,0,0-19.79785,0L113.415,158.10156a2.00281,2.00281,0,0,1-2.8291,0L89.89941,137.415a14.01378,14.01378,0,0,0-19.79785-.001L46,161.515V48a2.0026,2.0026,0,0,1,2-2H208a2.0026,2.0026,0,0,1,2,2ZM110.001,92v.00293a10.00147,10.00147,0,1,1,0-.00293Z"/>
</svg>
