<svg id="Flat" xmlns="http://www.w3.org/2000/svg" viewBox="0 0 256 256">
  <path d="M90.99951,92a9,9,0,1,1,9,9A8.9999,8.9999,0,0,1,90.99951,92Zm131.001-44.00037v160a14.01573,14.01573,0,0,1-14,14h-160a14.01572,14.01572,0,0,1-14-14v-160a14.01573,14.01573,0,0,1,14-14h160A14.01574,14.01574,0,0,1,222.00049,47.99963Zm-176,0v113.514L70.10107,137.4137a14.01379,14.01379,0,0,1,19.79786.001l20.68652,20.68653a2.00281,2.00281,0,0,0,2.8291,0l44.68652-44.68653a13.99846,13.99846,0,0,1,19.79786,0l32.10156,32.10156V47.99963a2.0026,2.0026,0,0,0-2-2h-160A2.0026,2.0026,0,0,0,46.00049,47.99963Zm164,160V162.485l-40.58594-40.58593a2.004,2.004,0,0,0-2.8291,0l-44.68652,44.68652a13.99843,13.99843,0,0,1-19.79786,0L81.41455,145.89905a2.00281,2.00281,0,0,0-2.8291,0l-32.585,32.585v29.51562a2.0026,2.0026,0,0,0,2,2h160A2.0026,2.0026,0,0,0,210.00049,207.99963Z"/>
</svg>
