<svg id="Flat" xmlns="http://www.w3.org/2000/svg" viewBox="0 0 256 256">
  <path d="M146.99951,100a9,9,0,1,1,9,9A8.9999,8.9999,0,0,1,146.99951,100Zm83.001-43.99988V199.99963a14.01573,14.01573,0,0,1-14,14h-176a14.01572,14.01572,0,0,1-14-14V56.00012a14.01572,14.01572,0,0,1,14-14h176A14.01573,14.01573,0,0,1,230.00049,56.00012Zm-192,0v97.51416l45.75683-45.75683a5.99957,5.99957,0,0,1,8.48438,0l51.75781,51.75683,27.75781-27.75683a5.9987,5.9987,0,0,1,8.48438,0l37.75879,37.75878V56.00012a2.00229,2.00229,0,0,0-2-2h-176A2.00229,2.00229,0,0,0,38.00049,56.00012Zm180,143.99951V186.48505l-42.001-41.99958L148.2417,172.24182a5.99782,5.99782,0,0,1-8.48438,0L87.99951,120.48547l-49.999,49.99762v29.51654a2.0026,2.0026,0,0,0,2,2h176A2.0026,2.0026,0,0,0,218.00049,199.99963Z"/>
</svg>
