<svg id="Flat" xmlns="http://www.w3.org/2000/svg" viewBox="0 0 256 256">
  <path d="M216,42H40A14.01574,14.01574,0,0,0,26,56V200a14.01574,14.01574,0,0,0,14,14H216a14.01574,14.01574,0,0,0,14-14V56A14.01574,14.01574,0,0,0,216,42ZM40,54H216a2.0023,2.0023,0,0,1,2,2V169.51538l-32.10059-32.101a14.01642,14.01642,0,0,0-19.79785,0L145.415,158.10092a2.00222,2.00222,0,0,1-2.8291,0L97.89941,113.41427a14.01463,14.01463,0,0,0-19.79785,0L38,153.51558V56A2.0023,2.0023,0,0,1,40,54ZM216,202H40a2.00261,2.00261,0,0,1-2-2V170.48523l48.58594-48.58559a2.00133,2.00133,0,0,1,2.8291,0l44.68652,44.68616a14.01374,14.01374,0,0,0,19.79785,0l20.68653-20.68609a2.00163,2.00163,0,0,1,2.8291,0L218,186.4843V200A2.00261,2.00261,0,0,1,216,202Zm-67.07129-94.929a10.00029,10.00029,0,1,1,17.07227-7.07083v.00245a10.00066,10.00066,0,0,1-17.07227,7.06838Z"/>
</svg>
