<svg xmlns="http://www.w3.org/2000/svg" viewBox="0 0 256 256"><path d="M216,42H40A14,14,0,0,0,26,56V168h0v32a14,14,0,0,0,14,14H216a14,14,0,0,0,14-14V56A14,14,0,0,0,216,42ZM40,54H216a2,2,0,0,1,2,2V169.5l-32.1-32.1a14.1,14.1,0,0,0-19.8,0l-20.7,20.7a1.9,1.9,0,0,1-2.8,0L97.9,113.4a14.1,14.1,0,0,0-19.8,0L38,153.5V56A2,2,0,0,1,40,54ZM216,202H40a2,2,0,0,1-2-2V170.5l48.6-48.6a1.9,1.9,0,0,1,2.8,0l44.7,44.7a14.1,14.1,0,0,0,19.8,0l20.7-20.7a1.9,1.9,0,0,1,2.8,0L218,186.5V200A2,2,0,0,1,216,202Zm-67.1-94.9A9.9,9.9,0,0,1,146,100a10,10,0,0,1,20,0h0a10,10,0,0,1-10,10A9.9,9.9,0,0,1,148.9,107.1Z"/></svg>