<svg id="Flat" xmlns="http://www.w3.org/2000/svg" viewBox="0 0 256 256">
  <path d="M128.00049,25.99963a102,102,0,1,0,102,102A102.1153,102.1153,0,0,0,128.00049,25.99963Zm0,192a90,90,0,1,1,90-90A90.10217,90.10217,0,0,1,128.00049,217.99963Zm14-42a6.0003,6.0003,0,0,1-6,6h-8a6.00029,6.00029,0,0,1-6-6v-50h-2a6,6,0,1,1,0-12h8a6.00031,6.00031,0,0,1,6,6v50h2A6.00031,6.00031,0,0,1,142.00049,175.99963ZM120.9292,91.07092a10.00041,10.00041,0,1,1,17.07226-7.07129v.00293a10.001,10.001,0,0,1-17.07226,7.06836Z"/>
</svg>
