<svg id="Flat" xmlns="http://www.w3.org/2000/svg" viewBox="0 0 256 256">
  <path d="M128,82a46,46,0,1,0,46,46A46.05239,46.05239,0,0,0,128,82Zm0,80a34,34,0,1,1,34-34A34.03864,34.03864,0,0,1,128,162ZM172,30H84A54.06156,54.06156,0,0,0,30,84v88a54.06156,54.06156,0,0,0,54,54h88a54.06156,54.06156,0,0,0,54-54V84A54.06156,54.06156,0,0,0,172,30Zm42,142a42.04718,42.04718,0,0,1-42,42H84a42.04718,42.04718,0,0,1-42-42V84A42.04718,42.04718,0,0,1,84,42h88a42.04718,42.04718,0,0,1,42,42ZM190,76a10,10,0,1,1-10-10A10.01177,10.01177,0,0,1,190,76Z"/>
</svg>
