<svg xmlns="http://www.w3.org/2000/svg" viewBox="0 0 256 256"><path d="M172.9,83.1a78,78,0,1,0-89.8,89.8,78,78,0,1,0,89.8-89.8ZM30,96A66,66,0,0,1,160.5,82H160a77.2,77.2,0,0,0-40.4,11.3l-.6.4A78.4,78.4,0,0,0,93.7,119l-.4.6A77.2,77.2,0,0,0,82,160v.5A66.1,66.1,0,0,1,30,96Zm104.2,53.7-27.9-27.9a63.4,63.4,0,0,1,15.5-15.5l27.9,27.9A63.4,63.4,0,0,1,134.2,149.7ZM94,160a66.6,66.6,0,0,1,6-27.5L123.5,156A66.6,66.6,0,0,1,96,162H94.1A13.4,13.4,0,0,1,94,160Zm68-64a66.6,66.6,0,0,1-6,27.5L132.5,100A66.6,66.6,0,0,1,160,94h2Zm-2,130a66.1,66.1,0,0,1-64.5-52H96a77.2,77.2,0,0,0,40.4-11.3l.6-.4A78.4,78.4,0,0,0,162.3,137l.4-.6A77.2,77.2,0,0,0,174,96v-.5A66,66,0,0,1,160,226Z"/></svg>