<svg id="Flat" xmlns="http://www.w3.org/2000/svg" viewBox="0 0 256.00098 256.00098">
  <path d="M172.91187,83.08838a77.99345,77.99345,0,1,0-89.82374,89.82324,77.99345,77.99345,0,1,0,89.82374-89.82324ZM30,96A65.9963,65.9963,0,0,1,160.49414,82.0127C160.32861,82.01172,160.16577,82,160,82a77.5291,77.5291,0,0,0-40.43994,11.32422,5.87828,5.87828,0,0,0-.57129.36621,78.591,78.591,0,0,0-25.29053,25.28662,5.89657,5.89657,0,0,0-.38379.59815A77.52957,77.52957,0,0,0,82,160c0,.16553.01147.32861.01245.49414A66.10477,66.10477,0,0,1,30,96Zm104.23242,53.74756-27.97986-27.98a66.52123,66.52123,0,0,1,15.51477-15.51465l27.98,27.97949A66.52823,66.52823,0,0,1,134.23242,149.74756ZM94,160a65.58746,65.58746,0,0,1,6.02222-27.49316l23.47082,23.4707A65.58073,65.58073,0,0,1,96,162c-.654,0-1.3009-.03027-1.95044-.04932C94.03052,161.30078,94,160.6543,94,160Zm68-64a65.58746,65.58746,0,0,1-6.02222,27.49316l-23.47094-23.4707A65.58124,65.58124,0,0,1,160,94c.65405,0,1.3009.03027,1.95044.04932C161.96948,94.69922,162,95.3457,162,96Zm-2,130a66.10452,66.10452,0,0,1-64.49414-52.0127c.16553.001.32837.0127.49414.0127a77.52986,77.52986,0,0,0,40.43872-11.32324,5.918,5.918,0,0,0,.57373-.36817A78.60018,78.60018,0,0,0,162.301,137.02441a5.9019,5.9019,0,0,0,.38525-.60058A77.5303,77.5303,0,0,0,174,96c0-.16553-.01147-.32861-.01245-.49414A65.99633,65.99633,0,0,1,160,226Z"/>
</svg>
