<svg xmlns="http://www.w3.org/2000/svg" viewBox="0 0 256 256"><path d="M240,90H225.2l-6.3-44a14.1,14.1,0,0,0-13.8-12H50.9A14.1,14.1,0,0,0,37.1,46L30.8,90H16a6,6,0,0,0,0,12H30V208a14,14,0,0,0,14,14H68a14,14,0,0,0,14-14V182h92v26a14,14,0,0,0,14,14h24a14,14,0,0,0,14-14V102h14a6,6,0,0,0,0-12ZM49,47.7A1.9,1.9,0,0,1,50.9,46H205.1a1.9,1.9,0,0,1,1.9,1.7L213.1,90H42.9ZM70,208a2,2,0,0,1-2,2H44a2,2,0,0,1-2-2V182H70Zm142,2H188a2,2,0,0,1-2-2V182h28v26A2,2,0,0,1,212,210Zm2-40H150V128a6,6,0,0,0-12,0v42H118V128a6,6,0,0,0-12,0v42H42V102H214ZM62,132a10,10,0,1,1,10,10A10,10,0,0,1,62,132Zm112,0a10,10,0,1,1,10,10A10,10,0,0,1,174,132Z"/></svg>