<svg id="Flat" xmlns="http://www.w3.org/2000/svg" viewBox="0 0 256 256">
  <path d="M240,90H225.20361L218.9209,46.01855A14.069,14.069,0,0,0,205.06152,34H50.93848A14.069,14.069,0,0,0,37.0791,46.01953L30.79639,90H16a6,6,0,0,0,0,12H30V208a14.01572,14.01572,0,0,0,14,14H68a14.01572,14.01572,0,0,0,14-14V182h92v26a14.01572,14.01572,0,0,0,14,14h24a14.01572,14.01572,0,0,0,14-14V102h14a6,6,0,0,0,0-12ZM48.958,47.71777A2.01076,2.01076,0,0,1,50.93848,46h154.123a2.01076,2.01076,0,0,1,1.98047,1.7168L213.082,90H42.918ZM70,208a2.0026,2.0026,0,0,1-2,2H44a2.0026,2.0026,0,0,1-2-2V182H70Zm142,2H188a2.0026,2.0026,0,0,1-2-2V182h28v26A2.0026,2.0026,0,0,1,212,210Zm2-40H150V128a6,6,0,0,0-12,0v42H118V128a6,6,0,0,0-12,0v42H42V102H214ZM63,132a9,9,0,1,1,9,9A8.9999,8.9999,0,0,1,63,132Zm112,0a9,9,0,1,1,9,9A8.9999,8.9999,0,0,1,175,132Z"/>
</svg>
