<svg id="Flat" xmlns="http://www.w3.org/2000/svg" viewBox="0 0 256 256">
  <path d="M189,76a9,9,0,1,1-9-9A8.99982,8.99982,0,0,1,189,76Zm49.00244,20A78.05477,78.05477,0,0,1,134.688,169.7998l-10.44336,10.44239A5.99668,5.99668,0,0,1,120.00244,182h-18v18a6.00029,6.00029,0,0,1-6,6h-18v18a6.00029,6.00029,0,0,1-6,6h-40a6.00029,6.00029,0,0,1-6-6V184a5.99668,5.99668,0,0,1,1.75781-4.24219l58.44239-58.44336A78.00912,78.00912,0,1,1,238.00244,96Zm-12,0a66,66,0,1,0-127.333,24.42969,6,6,0,0,1-1.25683,6.64453L38.00244,186.48535V218h28V200a6.00029,6.00029,0,0,1,6-6h18V176a6.00029,6.00029,0,0,1,6-6h21.51465l11.41113-11.41016a6.00088,6.00088,0,0,1,6.64551-1.25586A66.045,66.045,0,0,0,226.00244,96Z"/>
</svg>
