<svg id="Flat" xmlns="http://www.w3.org/2000/svg" viewBox="0 0 256 256">
  <path d="M182,104v32a6.00029,6.00029,0,0,1-6,6H94.48486l13.75733,13.75781a5.99936,5.99936,0,1,1-8.48438,8.48438L75.76562,140.25a6.0103,6.0103,0,0,1-.76318-.93213c-.01318-.01953-.02392-.04053-.03662-.06006a6.01261,6.01261,0,0,1-.51465-.97754c-.00976-.0249-.01758-.0498-.02734-.0747a5.938,5.938,0,0,1-.30908-1.04346c-.00391-.019-.00537-.03857-.00879-.05811a5.80428,5.80428,0,0,1,0-2.208c.00342-.01954.00488-.03907.00879-.05811a5.9449,5.9449,0,0,1,.30908-1.043c.00976-.0249.01758-.05029.02734-.07519a6.01261,6.01261,0,0,1,.51465-.97754c.0127-.01953.02344-.04053.03662-.06006a6.0103,6.0103,0,0,1,.76318-.93213l23.99219-23.99219a5.99936,5.99936,0,0,1,8.48438,8.48438L94.48486,130H170V104a6,6,0,0,1,12,0Zm48-48V200a14.01572,14.01572,0,0,1-14,14H40a14.01572,14.01572,0,0,1-14-14V56A14.01572,14.01572,0,0,1,40,42H216A14.01572,14.01572,0,0,1,230,56Zm-12,0a2.0026,2.0026,0,0,0-2-2H40a2.0026,2.0026,0,0,0-2,2V200a2.0026,2.0026,0,0,0,2,2H216a2.0026,2.0026,0,0,0,2-2Z"/>
</svg>
