<svg id="Flat" xmlns="http://www.w3.org/2000/svg" viewBox="0 0 256 256">
  <path d="M160.00244,18a78.05477,78.05477,0,0,0-73.7998,103.31445L27.76025,179.75781A5.99668,5.99668,0,0,0,26.00244,184v40a6.00029,6.00029,0,0,0,6,6h40a6.00029,6.00029,0,0,0,6-6V206h18a6.00029,6.00029,0,0,0,6-6V182h18a5.99668,5.99668,0,0,0,4.24219-1.75781L134.688,169.7998A78.00912,78.00912,0,1,0,160.00244,18Zm0,144a65.68843,65.68843,0,0,1-24.42871-4.666,6.00088,6.00088,0,0,0-6.64551,1.25586L117.51709,170H96.00244a6.00029,6.00029,0,0,0-6,6v18h-18a6.00029,6.00029,0,0,0-6,6v18h-28V186.48535L97.4126,127.07422a6,6,0,0,0,1.25683-6.64453A66.01238,66.01238,0,1,1,160.00244,162Zm29.99707-86a10,10,0,1,1-10-10A10.01177,10.01177,0,0,1,189.99951,76Z"/>
</svg>
