<svg xmlns="http://www.w3.org/2000/svg" viewBox="0 0 256 256"><path d="M160,18A78.1,78.1,0,0,0,82,96a77.2,77.2,0,0,0,4.2,25.3L27.8,179.8A5.6,5.6,0,0,0,26,184v40a6,6,0,0,0,6,6H72a6,6,0,0,0,6-6V206H96a6,6,0,0,0,6-6V182h18a5.6,5.6,0,0,0,4.2-1.8l10.5-10.4A77.2,77.2,0,0,0,160,174a78,78,0,0,0,0-156Zm0,144a65.4,65.4,0,0,1-24.4-4.7,6.2,6.2,0,0,0-6.7,1.3L117.5,170H96a6,6,0,0,0-6,6v18H72a6,6,0,0,0-6,6v18H38V186.5l59.4-59.4a6.2,6.2,0,0,0,1.3-6.7A65.4,65.4,0,0,1,94,96a66,66,0,1,1,66,66Zm30-86a10,10,0,1,1-10-10A10,10,0,0,1,190,76Z"/></svg>