<svg id="Flat" xmlns="http://www.w3.org/2000/svg" viewBox="0 0 256 256">
  <path d="M223.51465,50H32.48535A14.50169,14.50169,0,0,0,18,64.48535v127.0293A14.50169,14.50169,0,0,0,32.48535,206h191.0293A14.50169,14.50169,0,0,0,238,191.51465V64.48535A14.50169,14.50169,0,0,0,223.51465,50ZM226,191.51465A2.48825,2.48825,0,0,1,223.51465,194H32.48535A2.48825,2.48825,0,0,1,30,191.51465V64.48535A2.48825,2.48825,0,0,1,32.48535,62h191.0293A2.48825,2.48825,0,0,1,226,64.48535ZM206,128a6.00029,6.00029,0,0,1-6,6H56a6,6,0,0,1,0-12H200A6.00029,6.00029,0,0,1,206,128Zm0-32a6.00029,6.00029,0,0,1-6,6H56a6,6,0,0,1,0-12H200A6.00029,6.00029,0,0,1,206,96ZM70,160a6.00029,6.00029,0,0,1-6,6H56a6,6,0,0,1,0-12h8A6.00029,6.00029,0,0,1,70,160Zm96,0a6.00029,6.00029,0,0,1-6,6H96a6,6,0,0,1,0-12h64A6.00029,6.00029,0,0,1,166,160Zm40,0a6.00029,6.00029,0,0,1-6,6h-8a6,6,0,0,1,0-12h8A6.00029,6.00029,0,0,1,206,160Z"/>
</svg>
