<svg xmlns="http://www.w3.org/2000/svg" viewBox="0 0 256 256"><path d="M223.5,50H32.5A14.5,14.5,0,0,0,18,64.5v127A14.5,14.5,0,0,0,32.5,206h191A14.5,14.5,0,0,0,238,191.5V64.5A14.5,14.5,0,0,0,223.5,50ZM226,191.5a2.5,2.5,0,0,1-2.5,2.5H32.5a2.5,2.5,0,0,1-2.5-2.5V64.5A2.5,2.5,0,0,1,32.5,62h191a2.5,2.5,0,0,1,2.5,2.5ZM206,128a6,6,0,0,1-6,6H56a6,6,0,0,1,0-12H200A6,6,0,0,1,206,128Zm0-32a6,6,0,0,1-6,6H56a6,6,0,0,1,0-12H200A6,6,0,0,1,206,96ZM70,160a6,6,0,0,1-6,6H56a6,6,0,0,1,0-12h8A6,6,0,0,1,70,160Zm96,0a6,6,0,0,1-6,6H96a6,6,0,0,1,0-12h64A6,6,0,0,1,166,160Zm40,0a6,6,0,0,1-6,6h-8a6,6,0,0,1,0-12h8A6,6,0,0,1,206,160Z"/></svg>