<svg xmlns="http://www.w3.org/2000/svg" viewBox="0 0 256 256"><path d="M128,26A102,102,0,1,0,230,128,102.2,102.2,0,0,0,128,26Zm0,192a90,90,0,1,1,90-90A90.1,90.1,0,0,1,128,218Zm33.8-113.6a34,34,0,1,0-54.7,30.4L95.3,162.5a13.8,13.8,0,0,0,1.1,13.2,14.1,14.1,0,0,0,11.7,6.3h39.8a14.1,14.1,0,0,0,11.7-6.3,13.8,13.8,0,0,0,1.1-13.2l-11.8-27.7A33.9,33.9,0,0,0,161.8,104.4Zm-23.3,22.9a6.1,6.1,0,0,0-2.6,7.7l13.8,32.2a1.7,1.7,0,0,1-.2,1.9,1.9,1.9,0,0,1-1.6.9H108.1a1.9,1.9,0,0,1-1.6-.9,1.7,1.7,0,0,1-.2-1.9L120.1,135a6.1,6.1,0,0,0-2.6-7.7A21.8,21.8,0,0,1,106,108a22.2,22.2,0,0,1,7.3-16.4A21.6,21.6,0,0,1,128,86h2.6a22.2,22.2,0,0,1,19.3,19.6A22,22,0,0,1,138.5,127.3Z"/></svg>