<svg id="Flat" xmlns="http://www.w3.org/2000/svg" viewBox="0 0 256 256">
  <path d="M230.38477,33.61426a26.04721,26.04721,0,0,0-36.82129.05273L19.70605,211.80957a6.0006,6.0006,0,0,0,2.94434,10.03711,153.139,153.139,0,0,0,34.49512,3.94922c33.03027,0,66.10547-10.751,97.21972-31.82813C185.835,172.64941,204.04,148.6123,204.7998,147.59961a5.9984,5.9984,0,0,0-.55761-7.8418l-20.10742-20.1084,46.32128-49.33593A26.03109,26.03109,0,0,0,230.38477,33.61426ZM191.93066,144.416a226.65967,226.65967,0,0,1-44.60546,39.82519c-36.18262,24.41895-73.55079,33.80762-111.252,27.97852L146.542,99.02734l24.76953,24.76953c.11231.125.23145.24708.35743.36426.03027.0293.06152.05762.09277.08594Zm29.96875-82.51563c-.04394.04395-.08789.08984-.13086.13574l-46.123,49.124L154.92383,90.43848l47.17578-48.33789a14.00057,14.00057,0,1,1,19.7998,19.7998Z"/>
</svg>
