<svg xmlns="http://www.w3.org/2000/svg" viewBox="0 0 256 256"><path d="M213.6,213.9,162.4,73l9.8-27H184a6,6,0,0,0,0-12H88a6,6,0,0,0,0,12h7.4l-61,167.9a5.9,5.9,0,0,0,3.5,7.7,5.2,5.2,0,0,0,2.1.4,5.8,5.8,0,0,0,5.6-3.9L55.8,190h51.3l-8.7,23.9a5.9,5.9,0,0,0,3.5,7.7,5.2,5.2,0,0,0,2.1.4,5.8,5.8,0,0,0,5.6-3.9l19-52.1h54.8l19,52.1A5.8,5.8,0,0,0,208,222a5.2,5.2,0,0,0,2.1-.4A5.9,5.9,0,0,0,213.6,213.9ZM128.9,130H77.7l13-36H142Zm30.5-84L146.3,82H95.1l13.1-36ZM60.2,178l13.1-36h51.2l-13.1,36Zm72.7-24L156,90.6,179.1,154Z"/></svg>