<svg xmlns="http://www.w3.org/2000/svg" viewBox="0 0 256 256"><path d="M240.7,138.5l-41.1-96A14,14,0,0,0,186.7,34H69.3a14,14,0,0,0-12.9,8.5l-41.1,96a13.8,13.8,0,0,0,1.1,13.2A14.1,14.1,0,0,0,28.1,158H122v52H96a6,6,0,0,0,0,12h64a6,6,0,0,0,0-12H134V158h60v34a6,6,0,0,0,12,0V158h21.9a14.1,14.1,0,0,0,11.7-6.3A13.8,13.8,0,0,0,240.7,138.5Zm-11.2,6.6a1.9,1.9,0,0,1-1.6.9H28.1a1.9,1.9,0,0,1-1.6-.9,1.7,1.7,0,0,1-.2-1.9l41.1-96A2.2,2.2,0,0,1,69.3,46H186.7a2.2,2.2,0,0,1,1.9,1.2l41.1,96A1.7,1.7,0,0,1,229.5,145.1Z"/></svg>