<svg id="Flat" xmlns="http://www.w3.org/2000/svg" viewBox="0 0 256 256">
  <path d="M232.73535,138.48535,191.59277,42.48486A13.98449,13.98449,0,0,0,178.72461,34H77.27539a13.98416,13.98416,0,0,0-12.86816,8.48535L23.26465,138.48486A13.99977,13.99977,0,0,0,36.13232,158H122v52H96a6,6,0,0,0,0,12h64a6,6,0,0,0,0-12H134V158h52v26a6,6,0,0,0,12,0V158h21.86768a13.99955,13.99955,0,0,0,12.86767-19.51465Zm-11.19775,6.61524A1.95028,1.95028,0,0,1,219.86768,146H36.13232a2.00021,2.00021,0,0,1-1.83837-2.78809L75.43652,47.2124A1.99828,1.99828,0,0,1,77.27539,46H178.72461a1.9986,1.9986,0,0,1,1.83887,1.21191l41.14257,96.00049A1.94887,1.94887,0,0,1,221.5376,145.10059Z"/>
</svg>
