<svg id="Flat" xmlns="http://www.w3.org/2000/svg" viewBox="0 0 256 256">
  <path d="M232,170H222V72a22.02489,22.02489,0,0,0-22-22H56A22.02489,22.02489,0,0,0,34,72v98H24a6.00029,6.00029,0,0,0-6,6v16a22.02489,22.02489,0,0,0,22,22H216a22.02489,22.02489,0,0,0,22-22V176A6.00029,6.00029,0,0,0,232,170ZM46,72A10.01146,10.01146,0,0,1,56,62H200a10.01146,10.01146,0,0,1,10,10v98H46ZM226,192a10.01146,10.01146,0,0,1-10,10H40a10.01146,10.01146,0,0,1-10-10V182H226ZM150,88a6.00029,6.00029,0,0,1-6,6H112a6,6,0,0,1,0-12h32A6.00029,6.00029,0,0,1,150,88Z"/>
</svg>
