<svg id="Flat" xmlns="http://www.w3.org/2000/svg" viewBox="0 0 256 256">
  <path d="M214.89746,44.85205a5.99975,5.99975,0,0,0-3.74951-3.74951A133.77656,133.77656,0,0,0,168,34C94.1123,34,34,94.1123,34,168a133.86853,133.86853,0,0,0,5.96216,39.55292L19.75732,227.75781a5.99971,5.99971,0,1,0,8.48536,8.48438l20.20459-20.20441A133.87368,133.87368,0,0,0,88,222c73.8877,0,134-60.1123,134-134A133.77656,133.77656,0,0,0,214.89746,44.85205ZM88,210a122.19962,122.19962,0,0,1-29.82153-3.69348L164.24268,100.24268a6.00006,6.00006,0,0,0-8.48536-8.48536L49.69336,197.82159A122.07987,122.07987,0,0,1,204.4585,51.5415,122.09295,122.09295,0,0,1,88,210Z"/>
</svg>
