<svg id="Flat" xmlns="http://www.w3.org/2000/svg" viewBox="0 0 256 256">
  <path d="M221.98975,39.64746a6.0003,6.0003,0,0,0-5.63721-5.63721C140.79883,29.56543,80.37354,52.21289,54.708,94.58936c-17.47925,28.8601-16.79126,62.94311,1.80078,96.417L35.75732,211.75781a5.99971,5.99971,0,1,0,8.48536,8.48438l20.75-20.75006c17.3103,9.61511,34.78027,14.44732,51.61084,14.44732A85.57269,85.57269,0,0,0,161.41064,201.292C203.7876,175.626,226.43359,115.19824,221.98975,39.64746Zm-66.7959,151.37988c-24.13819,14.62061-52.78028,14.41309-81.34229-.394l90.39112-90.39068a6.00006,6.00006,0,0,0-8.48536-8.48536L65.36646,182.14856c-14.80762-28.56226-15.01319-57.20508-.39429-81.34241,22.728-37.52783,76.81152-57.94385,145.3081-55.08642C213.13867,114.21191,192.72119,168.29883,155.19385,191.02734Z"/>
</svg>
