<svg xmlns="http://www.w3.org/2000/svg" viewBox="0 0 256 256"><path d="M200.5,199.7a101.9,101.9,0,0,0,0-143.4c-.2-.2-.2-.3-.4-.4s-.2-.2-.4-.4a101.9,101.9,0,0,0-143.4,0l-.4.4-.4.4a101.9,101.9,0,0,0,0,143.4l.4.4c.1.2.2.2.4.4a101.9,101.9,0,0,0,143.4,0c.2-.2.3-.2.4-.4S200.3,199.9,200.5,199.7Zm-4.8-12.5L164.5,156a46,46,0,0,0,0-56l31.2-31.2a89.7,89.7,0,0,1,0,118.4ZM94,128a34,34,0,1,1,34,34A34.1,34.1,0,0,1,94,128Zm93.2-67.7L156,91.5a46,46,0,0,0-56,0L68.8,60.3a89.7,89.7,0,0,1,118.4,0ZM60.3,68.8,91.5,100a46,46,0,0,0,0,56L60.3,187.2a89.7,89.7,0,0,1,0-118.4Zm8.5,126.9L100,164.5a46,46,0,0,0,56,0l31.2,31.2a89.7,89.7,0,0,1-118.4,0Z"/></svg>