<svg id="Flat" xmlns="http://www.w3.org/2000/svg" viewBox="0 0 256 256">
  <path d="M200.457,199.7168a101.81926,101.81926,0,0,0,0-143.4336c-.11328-.13476-.20605-.28027-.333-.40722s-.273-.22022-.4082-.3335a101.81808,101.81808,0,0,0-143.43164,0c-.13525.11328-.28125.20654-.4082.3335s-.21973.27246-.333.40722a101.81926,101.81926,0,0,0,0,143.4336c.11328.13476.20605.28027.333.40722s.273.22022.40771.3335a101.81927,101.81927,0,0,0,143.43262,0c.13476-.11328.28076-.20654.40771-.3335S200.34375,199.85156,200.457,199.7168Zm-4.74853-12.49268-31.2378-31.23779a45.86078,45.86078,0,0,0,0-55.97266l31.2378-31.23779a89.81915,89.81915,0,0,1,0,118.44824ZM94,128a34,34,0,1,1,34,34A34.038,34.038,0,0,1,94,128Zm93.22412-67.7085L155.98633,91.5293a45.86078,45.86078,0,0,0-55.97266,0L68.77588,60.2915a89.81915,89.81915,0,0,1,118.44824,0ZM60.2915,68.77588l31.2378,31.23779a45.86078,45.86078,0,0,0,0,55.97266L60.2915,187.22412a89.81915,89.81915,0,0,1,0-118.44824ZM68.77588,195.7085l31.23779-31.2378a45.86078,45.86078,0,0,0,55.97266,0l31.23779,31.2378a89.81915,89.81915,0,0,1-118.44824,0Z"/>
</svg>
