<svg xmlns="http://www.w3.org/2000/svg" viewBox="0 0 256 256"><path d="M174,232a6,6,0,0,1-6,6H88a6,6,0,0,1,0-12h80A6,6,0,0,1,174,232Zm40-128a85.4,85.4,0,0,1-32.9,67.6A18.4,18.4,0,0,0,174,186v6a14,14,0,0,1-14,14H96a14,14,0,0,1-14-14v-6a18.2,18.2,0,0,0-7-14.3h0a85.4,85.4,0,0,1-33-67.2C41.7,57.9,79.4,19.1,125.9,18A86.1,86.1,0,0,1,214,104Zm-12,0a74.1,74.1,0,0,0-75.8-74c-40,1-72.4,34.3-72.2,74.4a73.7,73.7,0,0,0,28.4,57.9h0A29.9,29.9,0,0,1,94,186v6a2,2,0,0,0,2,2h26V146.5L91.8,116.2a5.9,5.9,0,0,1,8.4-8.4L128,135.5l27.8-27.7a5.9,5.9,0,0,1,8.4,8.4L134,146.5V194h26a2,2,0,0,0,2-2v-6a30.3,30.3,0,0,1,11.7-23.8A73.6,73.6,0,0,0,202,104Z"/></svg>