<svg xmlns="http://www.w3.org/2000/svg" viewBox="0 0 256 256"><path d="M52.4,36a5.9,5.9,0,0,0-8.8,8L84,88.6,43.6,131.9a5.6,5.6,0,0,0-1.4,5.4,5.8,5.8,0,0,0,3.7,4.3l59.2,22.2-15,75a6,6,0,0,0,3.2,6.5,5.2,5.2,0,0,0,2.7.7,6.3,6.3,0,0,0,4.4-1.9l63.3-67.9L203.6,220a5.9,5.9,0,0,0,4.4,2,5.7,5.7,0,0,0,4-1.6,5.8,5.8,0,0,0,.4-8.4ZM106,220.4l11.9-59.2a5.9,5.9,0,0,0-3.8-6.8L58.5,133.5l33.6-36,63.5,69.8Zm4-150.9a6,6,0,0,1-.3-8.4l45.9-49.2a6,6,0,0,1,7.1-1.3,6.2,6.2,0,0,1,3.2,6.6l-15,74.9,59.2,22.3a6,6,0,0,1,2.3,9.7L190.1,148a6.3,6.3,0,0,1-4.4,1.9,5.7,5.7,0,0,1-4.1-1.6,6,6,0,0,1-.3-8.5l16.2-17.4-55.6-20.8a5.9,5.9,0,0,1-3.8-6.8L150,35.5,118.5,69.2A5.9,5.9,0,0,1,110,69.5Z"/></svg>