<svg id="Flat" xmlns="http://www.w3.org/2000/svg" viewBox="0 0 256 256">
  <path d="M52.43945,35.96a5.99993,5.99993,0,1,0-8.8789,8.07227l40.48,44.52807L43.61377,131.875a6,6,0,0,0,2.2793,9.71191l59.22265,22.2085L90.1167,238.792a5.99974,5.99974,0,0,0,10.26953,5.27051l63.33252-67.85632,39.8418,43.82605a5.99993,5.99993,0,1,0,8.8789-8.07227Zm53.58643,184.47315,11.85742-59.2876a6.00022,6.00022,0,0,0-3.77637-6.79492L58.50977,133.502,92.13965,97.46924l63.48,69.82788Zm3.98633-150.90577a5.99917,5.99917,0,0,1-.29248-8.48l45.894-49.17236a5.99978,5.99978,0,0,1,10.26953,5.27051l-14.999,74.99658,59.22265,22.2085a6,6,0,0,1,2.2793,9.71191l-22.31494,23.90918a5.99982,5.99982,0,1,1-8.77246-8.1875l16.1914-17.34863-55.59716-20.84864A6.00022,6.00022,0,0,1,138.1167,94.792l11.85742-59.2876L118.49219,69.23486A5.99919,5.99919,0,0,1,110.01221,69.52734Z"/>
</svg>
