<svg id="Flat" xmlns="http://www.w3.org/2000/svg" viewBox="0 0 256 256">
  <path d="M174,232a6.00029,6.00029,0,0,1-6,6H88a6,6,0,0,1,0-12h80A6.00029,6.00029,0,0,1,174,232Zm40-128a85.55435,85.55435,0,0,1-32.87842,67.63574A18.22317,18.22317,0,0,0,174,185.97559V192a14.01572,14.01572,0,0,1-14,14H96a14.01572,14.01572,0,0,1-14-14v-6.03125a18.00559,18.00559,0,0,0-6.99658-14.2334v-.001a85.58252,85.58252,0,0,1-33.002-67.25c-.25732-46.57911,37.39258-85.36524,83.92823-86.46A86.001,86.001,0,0,1,214,104Zm-12,0a74.0009,74.0009,0,0,0-75.78809-73.97949c-40.03857.94238-72.43212,34.31738-72.21045,74.39746a73.64958,73.64958,0,0,0,28.40235,57.87109v-.001A29.9358,29.9358,0,0,1,94,185.96875V192a2.00229,2.00229,0,0,0,2,2h26V146.48486L91.75732,116.24219a5.99971,5.99971,0,0,1,8.48536-8.48438L128,135.51465l27.75732-27.75684a5.99971,5.99971,0,0,1,8.48536,8.48438L134,146.48486V194h26a2.00229,2.00229,0,0,0,2-2v-6.02441a30.14981,30.14981,0,0,1,11.70361-23.77246A73.6227,73.6227,0,0,0,202,104Z"/>
</svg>
