<svg id="Flat" xmlns="http://www.w3.org/2000/svg" viewBox="0 0 256 256">
  <path d="M213.21338,42.78613A30.00168,30.00168,0,0,0,166.97119,80.544L80.544,166.97119a30.05382,30.05382,0,0,0-37.75733,3.81494v.001a29.9999,29.9999,0,1,0,46.24243,4.66894l86.427-86.42724a30.00168,30.00168,0,0,0,37.75733-46.24268ZM76.728,204.72754A18.00015,18.00015,0,1,1,51.272,179.27148v.001A17.99981,17.99981,0,1,1,76.728,204.72754Zm128-128a18.01823,18.01823,0,0,1-25.45606,0v.001a18.0005,18.0005,0,1,1,25.45606-.001Z"/>
</svg>
