<svg xmlns="http://www.w3.org/2000/svg" viewBox="0 0 256 256"><path d="M237.2,34.8a30,30,0,0,0-42.4,0h0a30,30,0,0,0,0,42.4,11.2,11.2,0,0,0,2,1.8l-28.2,52.3a29.9,29.9,0,0,0-25.1,3.7L121,112.5A30,30,0,0,0,74.8,74.8h0a30,30,0,0,0,0,42.4,11.2,11.2,0,0,0,2,1.8L48.6,171.3a29.8,29.8,0,0,0-29.8,7.5h0a30,30,0,0,0,0,42.4,29.9,29.9,0,0,0,42.4,0,30,30,0,0,0,0-42.4,11.2,11.2,0,0,0-2-1.8l28.2-52.3A28,28,0,0,0,96,126a29.9,29.9,0,0,0,16.5-5L135,143.5a29.9,29.9,0,0,0,3.8,37.7,29.9,29.9,0,0,0,42.4,0,30,30,0,0,0,0-42.4,11.2,11.2,0,0,0-2-1.8l28.2-52.3A28,28,0,0,0,216,86a29.6,29.6,0,0,0,21.2-8.8A30,30,0,0,0,237.2,34.8ZM52.7,212.7a18,18,0,0,1-25.4-25.4h0a18,18,0,0,1,25.4,25.4Zm30.6-104a18,18,0,0,1,0-25.4h0a18,18,0,1,1,0,25.4Zm89.4,64a18,18,0,0,1-25.4-25.4h0a18,18,0,0,1,25.4,25.4Zm56-104a18,18,0,0,1-25.4-25.4h0a18,18,0,0,1,25.4,25.4Z"/></svg>