<svg id="Flat" xmlns="http://www.w3.org/2000/svg" viewBox="0 0 256 256">
  <path d="M237.21338,34.78613a30.03748,30.03748,0,0,0-42.42676,0v.001a30.03569,30.03569,0,0,0,0,42.42676c.64331.64306,1.3125,1.24511,1.9978,1.81738l-28.13525,52.25a30.1029,30.1029,0,0,0-25.19312,3.68994L121.02881,112.544A30.00161,30.00161,0,0,0,74.78662,74.78613v.001a30.03569,30.03569,0,0,0,0,42.42676c.64331.64306,1.3125,1.24511,1.9978,1.81738l-28.13525,52.25a30.02848,30.02848,0,0,0-29.86255,7.50488v.001a29.9999,29.9999,0,1,0,42.42676-.001c-.64331-.64306-1.3125-1.24511-1.99756-1.81738l28.135-52.25a30.11284,30.11284,0,0,0,25.19287-3.68994l22.42749,22.42724a30.00111,30.00111,0,1,0,46.24219-4.66992c-.64331-.64306-1.3125-1.24511-1.9978-1.81738l28.13525-52.25a29.99537,29.99537,0,0,0,29.86255-49.93262ZM52.728,212.72754A18.00015,18.00015,0,1,1,27.272,187.27148v.001A17.99981,17.99981,0,1,1,52.728,212.72754ZM83.272,108.72852a18.02209,18.02209,0,0,1,0-25.457v.001a17.99981,17.99981,0,1,1,0,25.45606Zm89.45606,63.999A18.00015,18.00015,0,1,1,147.272,147.27148v.001A17.99981,17.99981,0,1,1,172.728,172.72754Zm56-104A18.00015,18.00015,0,1,1,203.272,43.27148v.001A17.99981,17.99981,0,1,1,228.728,68.72754Z"/>
</svg>
