<svg xmlns="http://www.w3.org/2000/svg" viewBox="0 0 256 256"><path d="M90,72V48a6,6,0,0,1,12,0V72a6,6,0,0,1-12,0Zm70,106a6,6,0,0,0-6,6v24a6,6,0,0,0,12,0V184A6,6,0,0,0,160,178ZM48,102H72a6,6,0,0,0,0-12H48a6,6,0,0,0,0,12Zm160,52H184a6,6,0,0,0,0,12h24a6,6,0,0,0,0-12Zm-84.6,26.7L112,192a33.9,33.9,0,0,1-48-48l11.3-11.4a6,6,0,0,0-8.5-8.4L55.5,135.5a46,46,0,1,0,65,65l11.3-11.3a6,6,0,0,0-8.4-8.5ZM192,112l-11.3,11.4a6,6,0,1,0,8.5,8.4l11.3-11.3a46,46,0,0,0-65-65L124.2,66.8a6,6,0,0,0,8.4,8.5L144,64a33.9,33.9,0,0,1,48,48Z"/></svg>