<svg id="Flat" xmlns="http://www.w3.org/2000/svg" viewBox="0 0 256 256">
  <path d="M166.17822,89.80762a5.99781,5.99781,0,0,1,0,8.48437L98.29639,166.17383a5.99936,5.99936,0,1,1-8.48438-8.48438l67.88184-67.88183A5.99781,5.99781,0,0,1,166.17822,89.80762Zm-25.457,84.86035L112.437,202.95215a42.00035,42.00035,0,0,1-59.39746-59.39746l28.28418-28.28418a5.99936,5.99936,0,0,0-8.48437-8.48438L44.55518,135.07031a53.99908,53.99908,0,0,0,76.36621,76.36621l28.28418-28.28418a5.99936,5.99936,0,0,0-8.48438-8.48437ZM211.436,44.55566a54.0612,54.0612,0,0,0-76.36622,0L106.78564,72.83984A5.99936,5.99936,0,1,0,115.27,81.32422L143.5542,53.04a42.00035,42.00035,0,0,1,59.39746,59.39746l-28.28418,28.28418a5.99936,5.99936,0,1,0,8.48438,8.48437L211.436,120.92188A54.05943,54.05943,0,0,0,211.436,44.55566Z"/>
</svg>
