<svg id="Flat" xmlns="http://www.w3.org/2000/svg" viewBox="0 0 256 256">
  <path d="M200.12354,109.61523A37.9994,37.9994,0,1,0,146.38525,55.875L126.58447,75.6748a6,6,0,1,1-8.48437-8.48632l19.7998-19.79883a49.9995,49.9995,0,1,1,70.709,70.71094L188.811,137.89941a6,6,0,1,1-8.48633-8.48437Zm-70.709,70.71L109.61377,200.125a37.99939,37.99939,0,1,1-53.73828-53.74023L75.67432,126.585a6,6,0,0,0-8.48633-8.48437L47.39014,137.89941a49.99949,49.99949,0,1,0,70.709,70.71094l19.79981-19.79883a6,6,0,1,0-8.48438-8.48632ZM94.05811,77.43164a6.0003,6.0003,0,0,0,6-6V48.80371a6,6,0,1,0-12,0V71.43164A6.00029,6.00029,0,0,0,94.05811,77.43164ZM48.80322,100.05859H71.43115a6,6,0,0,0,0-12H48.80322a6,6,0,1,0,0,12ZM207.1958,155.94141H184.56787a6,6,0,0,0,0,12H207.1958a6,6,0,0,0,0-12Zm-45.25488,22.627a6.00029,6.00029,0,0,0-6,6v22.62793a6,6,0,0,0,12,0V184.56836A6.0003,6.0003,0,0,0,161.94092,178.56836Z"/>
</svg>
