<svg id="Flat" xmlns="http://www.w3.org/2000/svg" viewBox="0 0 256 256">
  <path d="M94,112.001v64a6,6,0,1,1-12,0v-64a6,6,0,0,1,12,0ZM88,70A10,10,0,1,0,98,80,9.99987,9.99987,0,0,0,88,70ZM226,44V212a14.01572,14.01572,0,0,1-14,14H44a14.01572,14.01572,0,0,1-14-14V44A14.01572,14.01572,0,0,1,44,30H212A14.01572,14.01572,0,0,1,226,44Zm-12,0a2.00245,2.00245,0,0,0-2-2H44a2.00245,2.00245,0,0,0-2,2V212a2.00229,2.00229,0,0,0,2,2H212a2.00229,2.00229,0,0,0,2-2Zm-66,62.001a33.84308,33.84308,0,0,0-22,8.10742V112.001a6,6,0,0,0-12,0v64a6,6,0,1,0,12,0v-36a22,22,0,0,1,44,0v36a6,6,0,1,0,12,0v-36A34.03864,34.03864,0,0,0,148,106.001Z"/>
</svg>
