<svg id="Flat" xmlns="http://www.w3.org/2000/svg" viewBox="0 0 256 256">
  <path d="M208.60986,118.09961l-28.2832,28.28516a50.05733,50.05733,0,0,1-70.71094,0,5.99936,5.99936,0,0,1,8.48438-8.48438,38.04576,38.04576,0,0,0,53.74121-.001l28.2832-28.28418A38.00008,38.00008,0,0,0,146.38428,55.875L126.58545,75.67383a5.99936,5.99936,0,0,1-8.48438-8.48438L137.8999,47.39062a49.99915,49.99915,0,1,1,70.71,70.709Zm-79.19531,62.22656L109.61572,200.125a38.00008,38.00008,0,1,1-53.74023-53.74023l28.2832-28.28418a38.04576,38.04576,0,0,1,53.74121-.001,5.99936,5.99936,0,0,0,8.48438-8.48438,50.055,50.055,0,0,0-70.71094,0l-28.2832,28.28516a49.99916,49.99916,0,0,0,70.71,70.709l19.79883-19.79883a5.99936,5.99936,0,1,0-8.48438-8.48438Z"/>
</svg>
