<svg xmlns="http://www.w3.org/2000/svg" viewBox="0 0 256 256"><path d="M166.2,89.8a6.1,6.1,0,0,1,0,8.5L98.3,166.2a6.2,6.2,0,0,1-8.5,0,6.1,6.1,0,0,1,0-8.5l67.9-67.9A6.1,6.1,0,0,1,166.2,89.8Zm-25.5,84.9L112.4,203A42,42,0,0,1,53,143.6l28.3-28.3a6,6,0,0,0-8.5-8.5L44.6,135.1a53.9,53.9,0,0,0,0,76.3,54,54,0,0,0,76.3,0l28.3-28.2a6.1,6.1,0,0,0,0-8.5A5.9,5.9,0,0,0,140.7,174.7ZM211.4,44.6a53.9,53.9,0,0,0-76.3,0L106.8,72.8a6,6,0,0,0,8.5,8.5L143.6,53A42,42,0,1,1,203,112.4l-28.3,28.3a5.9,5.9,0,0,0,0,8.5,5.8,5.8,0,0,0,4.2,1.8,6.1,6.1,0,0,0,4.3-1.8l28.2-28.3A53.9,53.9,0,0,0,211.4,44.6Z"/></svg>