<svg id="Flat" xmlns="http://www.w3.org/2000/svg" viewBox="0 0 256 256">
  <path d="M149.20654,174.668a5.99781,5.99781,0,0,1,0,8.48437l-28.28418,28.28418a53.99906,53.99906,0,0,1-76.36621-76.36621l28.28418-28.28418a5.99936,5.99936,0,0,1,8.48438,8.48438L53.04053,143.55469A42.00035,42.00035,0,0,0,112.438,202.95215L140.72217,174.668A5.99781,5.99781,0,0,1,149.20654,174.668ZM211.437,44.55566a54.06119,54.06119,0,0,0-76.36621,0L106.78662,72.83984a5.99936,5.99936,0,1,0,8.48438,8.48438L143.55518,53.04a42.00035,42.00035,0,0,1,59.39746,59.39746l-28.28418,28.28418a5.99936,5.99936,0,1,0,8.48437,8.48437L211.437,120.92188A54.05941,54.05941,0,0,0,211.437,44.55566Z"/>
</svg>
