<svg id="Flat" xmlns="http://www.w3.org/2000/svg" viewBox="0 0 256 256">
  <path d="M89.99951,72V48a6,6,0,1,1,12,0V72a6,6,0,0,1-12,0Zm70,106a6.0003,6.0003,0,0,0-6,6v24a6,6,0,0,0,12,0V184A6.00029,6.00029,0,0,0,159.99951,178Zm-112-76h24a6,6,0,0,0,0-12h-24a6,6,0,1,0,0,12Zm160,52h-24a6,6,0,0,0,0,12h24a6,6,0,0,0,0-12ZM123.356,180.72852,112.04248,192.042a34.00051,34.00051,0,0,1-48.085-48.083L75.272,132.64551a6,6,0,1,0-8.48437-8.48633L55.47217,135.47363a45.99993,45.99993,0,0,0,65.05469,65.05274l11.31347-11.31348a5.99936,5.99936,0,0,0-8.48437-8.48437Zm68.68652-68.6875L180.728,123.35449a6,6,0,0,0,8.48437,8.48633l11.31543-11.31445a45.99992,45.99992,0,0,0-65.05469-65.05274L124.15967,66.78711a5.99936,5.99936,0,0,0,8.48437,8.48437L143.95752,63.958a34.00051,34.00051,0,0,1,48.085,48.083Z"/>
</svg>
