<svg id="Flat" xmlns="http://www.w3.org/2000/svg" viewBox="0 0 256 256">
  <path d="M208,34H48A14.01572,14.01572,0,0,0,34,48V208a14.01572,14.01572,0,0,0,14,14H208a14.01572,14.01572,0,0,0,14-14V48A14.01572,14.01572,0,0,0,208,34Zm2,174a2.00229,2.00229,0,0,1-2,2H48a2.00229,2.00229,0,0,1-2-2V48a2.00245,2.00245,0,0,1,2-2H208a2.00245,2.00245,0,0,1,2,2ZM94,112.001v64a6,6,0,1,1-12,0v-64a6,6,0,0,1,12,0Zm88,28v36a6,6,0,1,1-12,0v-36a22,22,0,0,0-44,0v36a6,6,0,1,1-12,0v-64a6,6,0,0,1,12,0v2.10742A33.97387,33.97387,0,0,1,182,140.001ZM98,80A10,10,0,1,1,88,70,10.0113,10.0113,0,0,1,98,80Z"/>
</svg>
