<svg id="Flat" xmlns="http://www.w3.org/2000/svg" viewBox="0 0 256 256">
  <path d="M97.999,83.99316a6.00031,6.00031,0,0,1,6-6l112-.001a6,6,0,1,1,0,12l-112,.001A6.0003,6.0003,0,0,1,97.999,83.99316Zm118,81.999-112,.001a6,6,0,1,0,0,12l112-.001a6,6,0,1,0,0-12ZM42.68311,69.36621,50,65.708v46.28613a6,6,0,1,0,12,0V56a6,6,0,0,0-8.68311-5.36621l-16,8a5.99961,5.99961,0,1,0,5.36622,10.73242Zm27.89746,99.81934a20.0018,20.0018,0,1,0-35.00635-18.97168,5.99993,5.99993,0,1,0,11.05224,4.67383,8.00215,8.00215,0,1,1,14.08106,7.4746L35.19873,196.40137A6,6,0,0,0,40,206H68a6,6,0,0,0,0-12H51.99414l18.416-24.5752C70.46924,169.34668,70.52588,169.26758,70.58057,169.18555Z"/>
</svg>
