<svg id="Flat" xmlns="http://www.w3.org/2000/svg" viewBox="0 0 256 256">
  <path d="M221.999,128a6.00029,6.00029,0,0,1-6,6H104a6,6,0,0,1,0-12H215.999A6.00029,6.00029,0,0,1,221.999,128ZM104,70H215.999a6,6,0,0,0,0-12H104a6,6,0,0,0,0,12ZM215.999,186h-112a6,6,0,1,0,0,12h112a6,6,0,0,0,0-12ZM42.68311,65.36621,50,61.708v46.28613a6,6,0,1,0,12,0V52a6,6,0,0,0-8.68311-5.36621l-16,8a5.99961,5.99961,0,1,0,5.36622,10.73242ZM70.58057,169.18555a20.0018,20.0018,0,1,0-35.00635-18.97168,5.99993,5.99993,0,1,0,11.05224,4.67383,8.00215,8.00215,0,1,1,14.08106,7.4746L35.19873,196.40137A6,6,0,0,0,40,206H68a6,6,0,0,0,0-12H51.99414l18.416-24.5752C70.46924,169.34668,70.52588,169.26758,70.58057,169.18555Z"/>
</svg>
