<svg id="Flat" xmlns="http://www.w3.org/2000/svg" viewBox="0 0 256 256">
  <path d="M207.99414,82h-38V52a42,42,0,1,0-84,0V82h-38a14.01572,14.01572,0,0,0-14,14V208a14.01572,14.01572,0,0,0,14,14h160a14.01572,14.01572,0,0,0,14-14V96A14.01572,14.01572,0,0,0,207.99414,82Zm-162,44h164v20h-164Zm0,32h164v20h-164Zm52-106a30,30,0,1,1,60,0V82h-60Zm-50,42h160a2.002,2.002,0,0,1,2,2v18h-164V96A2.002,2.002,0,0,1,47.99414,94Zm160,116h-160a2.002,2.002,0,0,1-2-2V190h164v18A2.002,2.002,0,0,1,207.99414,210Z"/>
</svg>
