<svg id="Flat" xmlns="http://www.w3.org/2000/svg" viewBox="0 0 256 256">
  <path d="M127.99414,114a25.99734,25.99734,0,0,0-6,51.29346V184a6,6,0,1,0,12,0V165.29346a25.99734,25.99734,0,0,0-6-51.29346Zm0,40a14,14,0,1,1,14-14A14.01572,14.01572,0,0,1,127.99414,154Zm80-72h-110V52a30,30,0,1,1,60,0,6,6,0,0,0,12,0,42,42,0,1,0-84,0V82h-38a14.01572,14.01572,0,0,0-14,14V208a14.01572,14.01572,0,0,0,14,14h160a14.01572,14.01572,0,0,0,14-14V96A14.01572,14.01572,0,0,0,207.99414,82Zm2,126a2.002,2.002,0,0,1-2,2h-160a2.002,2.002,0,0,1-2-2V96a2.002,2.002,0,0,1,2-2h160a2.002,2.002,0,0,1,2,2Z"/>
</svg>
