<svg id="Flat" xmlns="http://www.w3.org/2000/svg" viewBox="0 0 256 256">
  <path d="M246,152a6.00029,6.00029,0,0,1-6,6H222v18a6,6,0,0,1-12,0V158H192a6,6,0,0,1,0-12h18V128a6,6,0,0,1,12,0v18h18A6.00029,6.00029,0,0,1,246,152ZM64,66H78V80a6,6,0,0,0,12,0V66h14a6,6,0,0,0,0-12H90V40a6,6,0,0,0-12,0V54H64a6,6,0,0,0,0,12ZM184,194H174V184a6,6,0,0,0-12,0v10H152a6,6,0,0,0,0,12h10v10a6,6,0,0,0,12,0V206h10a6,6,0,0,0,0-12Zm-3.7583-77.75684L73.89941,222.58594a14.01969,14.01969,0,0,1-19.79882.001l-20.68653-20.6875a13.99961,13.99961,0,0,1,.001-19.7998L182.10059,33.41406a14.01806,14.01806,0,0,1,19.79882-.00049l20.68653,20.687a13.99843,13.99843,0,0,1-.001,19.79882l-42.34228,42.34278-.00049.00049ZM152.48486,80,176,103.51514l38.10059-38.10108v-.00049a1.9981,1.9981,0,0,0,0-2.82714l-20.68653-20.687a2.00341,2.00341,0,0,0-2.8291.00049Zm15.03028,32L144,88.48486,41.89941,190.58594a1.99811,1.99811,0,0,0,0,2.82715l20.68653,20.6875a2.00222,2.00222,0,0,0,2.8291-.001Z"/>
</svg>
