<svg xmlns="http://www.w3.org/2000/svg" viewBox="0 0 256 256"><path d="M246,152a6,6,0,0,1-6,6H222v18a6,6,0,0,1-12,0V158H192a6,6,0,0,1,0-12h18V128a6,6,0,0,1,12,0v18h18A6,6,0,0,1,246,152ZM64,66H78V80a6,6,0,0,0,12,0V66h14a6,6,0,0,0,0-12H90V40a6,6,0,0,0-12,0V54H64a6,6,0,0,0,0,12ZM184,194H174V184a6,6,0,0,0-12,0v10H152a6,6,0,0,0,0,12h10v10a6,6,0,0,0,12,0V206h10a6,6,0,0,0,0-12Zm-3.8-77.8L73.9,222.6a14,14,0,0,1-19.8,0L33.4,201.9a14,14,0,0,1,0-19.8L182.1,33.4a14.1,14.1,0,0,1,19.8,0l20.7,20.7a14,14,0,0,1,0,19.8l-42.4,42.3ZM152.5,80,176,103.5l38.1-38.1h0a1.9,1.9,0,0,0,0-2.8L193.4,41.9a1.9,1.9,0,0,0-2.8,0Zm15,32L144,88.5,41.9,190.6a1.9,1.9,0,0,0,0,2.8l20.7,20.7a1.9,1.9,0,0,0,2.8,0Z"/></svg>