<svg id="Flat" xmlns="http://www.w3.org/2000/svg" viewBox="0 0 256 256">
  <path d="M200,42H160a14.01572,14.01572,0,0,0-14,14v88a18,18,0,0,1-36,0V56A14.01572,14.01572,0,0,0,96,42H56A14.01572,14.01572,0,0,0,42,56v88a86.00074,86.00074,0,0,0,85.99512,86c.21777,0,.4375-.001.65625-.00195C175.71289,229.64844,214,190.62012,214,142.99609V56A14.01572,14.01572,0,0,0,200,42ZM160,54h40a2.0026,2.0026,0,0,1,2,2V90H158V56A2.0026,2.0026,0,0,1,160,54ZM56,54H96a2.0026,2.0026,0,0,1,2,2V90H54V56A2.0026,2.0026,0,0,1,56,54Zm72.5625,163.99805c-.18945.00195-.376.00195-.56445.00195A73.9995,73.9995,0,0,1,54,144V102H98v42a30,30,0,0,0,60,0V102h44v40.99609C202,184.05176,169.05566,217.69824,128.5625,217.99805Z"/>
</svg>
