<svg xmlns="http://www.w3.org/2000/svg" viewBox="0 0 256 256"><path d="M205.5,51.7A85.2,85.2,0,0,0,144.6,26h-.3A85.5,85.5,0,0,0,83.4,51.2L17.3,118.1a14.1,14.1,0,0,0,.1,19.8L46,166.5a13.8,13.8,0,0,0,9.9,4.1H56a13.6,13.6,0,0,0,9.9-4.2l65.7-67.2a17.8,17.8,0,0,1,30.5,12.4,19.1,19.1,0,0,1-5.4,13.4l-67,65a13.7,13.7,0,0,0-4.3,10,13.9,13.9,0,0,0,4.1,10l28.7,28.6a13.6,13.6,0,0,0,9.9,4.1,14,14,0,0,0,9.8-4l66.5-65.2C238,139.8,238.6,85.2,205.5,51.7ZM57.4,158a2.1,2.1,0,0,1-1.5.6,2,2,0,0,1-1.4-.6L25.9,129.4a1.9,1.9,0,0,1,0-2.8L54,98.1l31.3,31.3Zm72.1,72.2a2.3,2.3,0,0,1-2.9,0L98,201.5a1.9,1.9,0,0,1,0-2.8l28.7-27.9L158,202.1ZM195.9,165l-29.3,28.7-31.3-31.2,29.8-28.9a30.8,30.8,0,0,0,9-22.1,29.5,29.5,0,0,0-29.8-29.4A30.3,30.3,0,0,0,123,90.8h0l-29.3,30L62.4,89.6,91.9,59.7A73.6,73.6,0,0,1,144.3,38h.2A73.6,73.6,0,0,1,197,60.1C225.4,88.9,224.9,136,195.9,165Z"/></svg>