<svg id="Flat" xmlns="http://www.w3.org/2000/svg" viewBox="0 0 256 256">
  <path d="M205.53027,51.65137A85.42137,85.42137,0,0,0,144.58008,26.001C144.46973,26,144.3623,26,144.252,26a85.42587,85.42587,0,0,0-60.8291,25.21484L17.32031,118.127a14.031,14.031,0,0,0,.06055,19.73828l28.65332,28.65332a13.89565,13.89565,0,0,0,9.89746,4.10157h.084a13.90118,13.90118,0,0,0,9.93261-4.2168L131.55469,99.249a18.089,18.089,0,0,1,25.18359-.22265,17.57439,17.57439,0,0,1,5.33789,12.61718,18.84583,18.84583,0,0,1-5.40429,13.40137L89.65527,190.03809a13.99679,13.99679,0,0,0-.15332,19.94824l28.6543,28.65429a14.04295,14.04295,0,0,0,19.70117.09668l66.50293-65.21679C238.03613,139.8457,238.56055,85.17578,205.53027,51.65137ZM57.36426,158.01758a1.98715,1.98715,0,0,1-1.418.60254,1.91274,1.91274,0,0,1-1.42774-.58594L25.86523,129.38086a2.005,2.005,0,0,1-.00878-2.82031L53.98291,98.08942l31.3252,31.325ZM129.45508,230.169a2.00691,2.00691,0,0,1-2.81445-.0127L97.98633,201.502a2.00069,2.00069,0,0,1,.02246-2.84961l28.70166-27.83545L158.03564,202.142ZM195.917,164.99414l-29.314,28.7464-31.27832-31.27808,29.76611-28.86773a30.95509,30.95509,0,0,0,8.98438-22.06446,29.47767,29.47767,0,0,0-9.01465-21.14843,30.14716,30.14716,0,0,0-42.01367.40527c-.01661.01562-.03321.03223-.04981.04883L93.69336,120.83112,62.41553,89.55341,91.93359,59.67383A73.48659,73.48659,0,0,1,144.25293,38c.09375,0,.18945,0,.2832.001a73.49925,73.49925,0,0,1,52.44532,22.07226C225.40234,88.919,224.90625,136.00488,195.917,164.99414Z"/>
</svg>
