<svg id="Flat" xmlns="http://www.w3.org/2000/svg" viewBox="0 0 256.00098 256.00098">
  <path d="M157.99805,120a6.0003,6.0003,0,0,1-6,6h-64a6,6,0,0,1,0-12h64A6.0003,6.0003,0,0,1,157.99805,120Zm70.24316,108.24316a5.999,5.999,0,0,1-8.48437,0l-37.65833-37.65881A94.95257,94.95257,0,0,1,166.99023,201.394a93.4397,93.4397,0,0,1-46.83886,12.63184,94.49917,94.49917,0,0,1-24.47852-3.24317,93.92328,93.92328,0,1,1,94.90527-28.68835l37.66309,37.66345A5.999,5.999,0,0,1,228.24121,228.24316Zm-29.05176-87.02392A81.98593,81.98593,0,0,0,141.21777,40.80811a82.46591,82.46591,0,0,0-21.35351-2.82862,82.0066,82.0066,0,1,0,79.32519,103.23975Z"/>
</svg>
