<svg id="Flat" xmlns="http://www.w3.org/2000/svg" viewBox="0 0 256.00098 256.00098">
  <path d="M157.99805,119.999a6.0003,6.0003,0,0,1-6,6h-26v26a6,6,0,0,1-12,0v-26h-26a6,6,0,0,1,0-12h26v-26a6,6,0,0,1,12,0v26h26A6.00031,6.00031,0,0,1,157.99805,119.999Zm70.24316,108.24317a5.999,5.999,0,0,1-8.48437,0l-37.65833-37.65882a94.95326,94.95326,0,0,1-15.10828,10.8097,93.43969,93.43969,0,0,1-46.83886,12.63183,94.49959,94.49959,0,0,1-24.47852-3.24316,93.92329,93.92329,0,1,1,94.90527-28.68836l37.66309,37.66346A5.999,5.999,0,0,1,228.24121,228.24219Zm-29.05176-87.02393A81.98594,81.98594,0,0,0,141.21777,40.80713a82.46589,82.46589,0,0,0-21.35351-2.82861,82.0066,82.0066,0,1,0,79.32519,103.23974Z"/>
</svg>
