<svg id="Flat" xmlns="http://www.w3.org/2000/svg" viewBox="0 0 256 256">
  <path d="M227.69214,51.27075a5.99791,5.99791,0,0,0-5.14747-1.09155L160.698,65.64087,98.68335,34.63354c-.01783-.00878-.0365-.0144-.05432-.02294a6.03435,6.03435,0,0,0-.62464-.26343c-.04956-.01758-.09985-.03028-.14966-.04639-.17321-.05664-.34875-.106-.52734-.14648-.06641-.01514-.13257-.02857-.19946-.04151q-.26367-.05054-.53272-.07715c-.0531-.00537-.10571-.01318-.15893-.01684a5.96034,5.96034,0,0,0-1.38794.061c-.073.01172-.1449.02857-.21753.043-.09534.01905-.19068.03247-.28614.0564l-64,16A6.00018,6.00018,0,0,0,25.99975,56V200a5.99969,5.99969,0,0,0,7.45508,5.8208l61.84644-15.46167,62.01489,31.00757a6.0186,6.0186,0,0,0,.693.291c.05677.02.1156.03272.173.05127a5.965,5.965,0,0,0,.67578.17237c.0907.01782.18078.03393.27246.04736a5.97293,5.97293,0,0,0,.79895.06738c.02209,0,.04333.00537.06555.00537a5.98514,5.98514,0,0,0,.78345-.05493c.0852-.011.16882-.03222.25366-.04712.141-.0249.28186-.04345.42285-.07861l64-16A5.99975,5.99975,0,0,0,229.99975,200V56A6.00066,6.00066,0,0,0,227.69214,51.27075ZM37.99975,60.68457l52-13V179.31543l-52,13Zm116,145.60742-52-26V49.70825l52,26Zm64-10.97656-52,13V76.68457l52-13Z"/>
</svg>
