<svg id="Flat" xmlns="http://www.w3.org/2000/svg" viewBox="0 0 256 256">
  <path d="M127.99975,66a38,38,0,1,0,38,38A38.04323,38.04323,0,0,0,127.99975,66Zm0,64a26,26,0,1,1,26-26A26.02916,26.02916,0,0,1,127.99975,130Zm0-112a86.09728,86.09728,0,0,0-86,86c0,30.90723,14.34082,63.73584,41.47266,94.937a252.26126,252.26126,0,0,0,41.08691,37.978,5.99732,5.99732,0,0,0,6.88086,0,252.26061,252.26061,0,0,0,41.08692-37.978c27.13183-31.20117,41.47265-64.02978,41.47265-94.937A86.09728,86.09728,0,0,0,127.99975,18Zm0,206.51221c-15.02246-11.58643-74-60.88819-74-120.51221a74,74,0,0,1,148,0C201.99975,163.624,143.02026,212.92676,127.99975,224.51221Z"/>
</svg>
