<svg id="Flat" xmlns="http://www.w3.org/2000/svg" viewBox="0 0 256 256">
  <path d="M199.99975,226H145.21606a265.61121,265.61121,0,0,0,27.311-27.063c27.13183-31.20117,41.47265-64.02978,41.47265-94.937a86,86,0,0,0-172,0c0,30.90723,14.34082,63.73584,41.47266,94.937A265.61124,265.61124,0,0,0,110.78344,226H55.99975a6,6,0,0,0,0,12h144a6,6,0,0,0,0-12Zm-146-122a74,74,0,0,1,148,0c0,59.624-58.97949,108.92676-74,120.51221C112.97729,212.92578,53.99975,163.624,53.99975,104Zm112,0a38,38,0,1,0-38,38A38.04322,38.04322,0,0,0,165.99975,104Zm-64,0a26,26,0,1,1,26,26A26.02916,26.02916,0,0,1,101.99975,104Z"/>
</svg>
