<svg id="Flat" xmlns="http://www.w3.org/2000/svg" viewBox="0 0 256 256">
  <path d="M200.124,55.875A101.99946,101.99946,0,1,0,55.876,200.125,101.99946,101.99946,0,1,0,200.124,55.875ZM86,207.63776V176a2.00229,2.00229,0,0,1,2-2h80a2.00229,2.00229,0,0,1,2,2v31.63776a90.29785,90.29785,0,0,1-84,0ZM104,142h4.11633c.02295.00018.04578.00006.06873,0h39.63672l.01123.001.019-.001H152a2.00229,2.00229,0,0,1,2,2v18H102V144A2.00229,2.00229,0,0,1,104,142Zm11.54-12L126.042,79.59229a2.00007,2.00007,0,0,1,3.916-.00049L140.46,130Zm76.09961,61.63965A91.29977,91.29977,0,0,1,182,200.00507V176a14.01572,14.01572,0,0,0-14-14h-2V144a14.00521,14.00521,0,0,0-13.27454-13.96326L141.70605,77.144a14.00049,14.00049,0,0,0-27.4121.00049l-11.01941,52.89221A14.00521,14.00521,0,0,0,90,144v18H88a14.01572,14.01572,0,0,0-14,14v24.00507a91.29977,91.29977,0,0,1-9.63965-8.36542,90,90,0,1,1,127.2793,0Z"/>
</svg>
