<svg xmlns="http://www.w3.org/2000/svg" viewBox="0 0 256 256"><path d="M186.4,124a6,6,0,0,1-.5,8.5,6.2,6.2,0,0,1-4,1.5,6.1,6.1,0,0,1-4.5-2,18,18,0,0,0-26.8,0,6,6,0,0,1-9-8,30.1,30.1,0,0,1,44.8,0Zm-81,8a6.1,6.1,0,0,0,4.5,2,6.2,6.2,0,0,0,4-1.5,6,6,0,0,0,.5-8.5,30.1,30.1,0,0,0-44.8,0,6,6,0,0,0,9,8,18,18,0,0,1,26.8,0Zm45.8,39a41.9,41.9,0,0,1-46.4,0,6,6,0,0,0-6.7,10,54.2,54.2,0,0,0,59.8,0,6,6,0,0,0-6.7-10ZM222,48.3V104c0,35.4-9.5,68.7-26.8,93.9S153.5,238,128,238s-49.4-14.2-67.2-40.1S34,139.4,34,104V48.3a14,14,0,0,1,19.1-13C67.2,40.8,95.9,50,128,50s60.8-9.2,74.9-14.7a14,14,0,0,1,19.1,13Zm-12,0a1.7,1.7,0,0,0-.9-1.6,1.8,1.8,0,0,0-1.8-.2C192.3,52.3,162.1,62,128,62S63.7,52.3,48.7,46.5l-.7-.2a1.6,1.6,0,0,0-1.1.4,1.7,1.7,0,0,0-.9,1.6V104c0,67.3,36.8,122,82,122s82-54.7,82-122Z"/></svg>