<svg id="Flat" xmlns="http://www.w3.org/2000/svg" viewBox="0 0 256 256">
  <path d="M110,184a6.00029,6.00029,0,0,1-6,6H78v26a6,6,0,0,1-12,0V190H40a6,6,0,0,1,0-12H66V152a6,6,0,0,1,12,0v26h26A6.00029,6.00029,0,0,1,110,184ZM104,66H40a6,6,0,0,0,0,12h64a6,6,0,0,0,0-12Zm48,108.06641h64a6,6,0,0,0,0-12H152a6,6,0,0,0,0,12Zm64,19.86718H152a6,6,0,0,0,0,12h64a6,6,0,0,0,0-12Zm-60.24268-93.69091a6.00019,6.00019,0,0,0,8.48536,0L184,80.48535l19.75732,19.75733a6.00006,6.00006,0,0,0,8.48536-8.48536L192.48535,72l19.75733-19.75732a6.00006,6.00006,0,0,0-8.48536-8.48536L184,63.51465,164.24268,43.75732a6.00006,6.00006,0,0,0-8.48536,8.48536L175.51465,72,155.75732,91.75732A5.99989,5.99989,0,0,0,155.75732,100.24268Z"/>
</svg>
