<svg xmlns="http://www.w3.org/2000/svg" viewBox="0 0 256 256"><path d="M110,184a6,6,0,0,1-6,6H78v26a6,6,0,0,1-12,0V190H40a6,6,0,0,1,0-12H66V152a6,6,0,0,1,12,0v26h26A6,6,0,0,1,110,184ZM104,66H40a6,6,0,0,0,0,12h64a6,6,0,0,0,0-12Zm48,108.1h64a6,6,0,0,0,0-12H152a6,6,0,0,0,0,12Zm64,19.8H152a6,6,0,0,0,0,12h64a6,6,0,0,0,0-12Zm-60.2-93.7a5.8,5.8,0,0,0,8.4,0L184,80.5l19.8,19.7a5.9,5.9,0,1,0,8.4-8.4L192.5,72l19.7-19.8a5.9,5.9,0,0,0-8.4-8.4L184,63.5,164.2,43.8a5.9,5.9,0,0,0-8.4,8.4L175.5,72,155.8,91.8A5.8,5.8,0,0,0,155.8,100.2Z"/></svg>