<svg id="Flat" xmlns="http://www.w3.org/2000/svg" viewBox="0 0 256 256">
  <path d="M72,62c-34.187,0-62,29.60742-62,66s27.813,66,62,66,62-29.60742,62-66S106.187,62,72,62Zm0,120c-27.57031,0-50-24.22461-50-54S44.42969,74,72,74s50,24.22461,50,54S99.57031,182,72,182ZM184,66c-17.10254,0-30,26.6543-30,62s12.89746,62,30,62,30-26.6543,30-62S201.10254,66,184,66Zm0,112c-7.33887,0-18-19.47754-18-50s10.66113-50,18-50,18,19.47754,18,50S191.33887,178,184,178ZM246,72V184a6,6,0,0,1-12,0V72a6,6,0,0,1,12,0Z"/>
</svg>
