<svg id="Flat" xmlns="http://www.w3.org/2000/svg" viewBox="0 0 256 256">
  <path d="M54.04687,136.00094a6.00029,6.00029,0,0,1-6,6h-24a6,6,0,0,1,0-12h10v-68h-10a6,6,0,0,1,0-12h16c.06348,0,.125.00733.1875.00928.06788.00244.13477.00586.20264.01025a6.05232,6.05232,0,0,1,.84277.1084l.01124.00293a5.87946,5.87946,0,0,1,.831.24561c.04053.01465.081.02832.12109.04394a5.98691,5.98691,0,0,1,.76758.36719c.03955.022.07715.04688.11572.06983a6.02145,6.02145,0,0,1,.68653.47509c.01318.01026.02685.01905.04.02979a6.00013,6.00013,0,0,1,.61914.59619c.0376.041.07568.08057.11181.123a6.03757,6.03757,0,0,1,.51514.69043c.01074.01709.0249.03076.03565.04785l34.9121,55.85937L114.959,52.82077c.01075-.01709.02491-.03076.03565-.04785a5.98046,5.98046,0,0,1,.51514-.69043c.03613-.04248.07421-.082.11181-.12354a6.10775,6.10775,0,0,1,.61963-.59619c.01221-.00977.02539-.01807.0376-.02783a5.95423,5.95423,0,0,1,.68994-.477c.03809-.023.07422-.04688.11279-.06885a5.96567,5.96567,0,0,1,.77051-.36816c.03857-.01514.07764-.02833.11621-.04249a5.945,5.945,0,0,1,.84033-.248l.00342-.001a6.03958,6.03958,0,0,1,.84766-.10889c.06592-.00439.13086-.00781.19678-.00976.06347-.002.126-.00977.19042-.00977h16a6,6,0,0,1,0,12h-10v68h10a6,6,0,0,1,0,12h-24a6,6,0,0,1,0-12h2V76.92184l-28.9121,46.25928a6,6,0,0,1-10.17579,0L46.04687,76.92184v53.0791h2A6.0003,6.0003,0,0,1,54.04687,136.00094Zm114-26h72a6,6,0,0,0,0-12h-72a6,6,0,0,0,0,12Zm72,20h-72a6,6,0,0,0,0,12h72a6,6,0,0,0,0-12Zm0,32h-168a6,6,0,0,0,0,12h168a6,6,0,0,0,0-12Zm0,32h-168a6,6,0,0,0,0,12h168a6,6,0,0,0,0-12Z"/>
</svg>
