<svg id="Flat" xmlns="http://www.w3.org/2000/svg" viewBox="0 0 256 256">
  <path d="M238,120a46.05239,46.05239,0,0,0-46-46H152c-.52246,0-52.84961-.48633-102.99609-42.54395A13.99839,13.99839,0,0,0,25.999,42.168V197.832a13.85788,13.85788,0,0,0,8.07422,12.67871,14.0689,14.0689,0,0,0,5.957,1.335,13.92706,13.92706,0,0,0,8.97364-3.30078C89.07617,174.93555,130.79053,167.87305,146,166.39258v37.32617a13.96941,13.96941,0,0,0,6.2334,11.64844l10.99219,7.32812a14.00069,14.00069,0,0,0,21.34863-8.25293l12.17187-48.68652A46.06565,46.06565,0,0,0,238,120ZM41.293,199.35059a1.93044,1.93044,0,0,1-2.14746.28515A1.90451,1.90451,0,0,1,37.999,197.832V42.168a1.90451,1.90451,0,0,1,1.14649-1.80371,2.10312,2.10312,0,0,1,.88086-.20313,1.9324,1.9324,0,0,1,1.2666.48926C85.1792,77.45752,130.05518,84.39307,146,85.69727v68.60546C130.05518,155.60693,85.1792,162.543,41.293,199.35059Zm131.63965,12.18164a2.00134,2.00134,0,0,1-3.05078,1.17871l-10.99219-7.32813A1.99336,1.99336,0,0,1,158,203.71875V166h26.31494ZM192,154H158V86h34a34,34,0,0,1,0,68Z"/>
</svg>
