<svg xmlns="http://www.w3.org/2000/svg" viewBox="0 0 256 256"><path d="M238,120a46,46,0,0,0-46-46H152c-.5,0-52.8-.5-103-42.5A14,14,0,0,0,26,42.2V197.8a13.9,13.9,0,0,0,8.1,12.7,13.7,13.7,0,0,0,5.9,1.3,13.9,13.9,0,0,0,9-3.3c40.1-33.6,81.8-40.6,97-42.1v37.3a14,14,0,0,0,6.2,11.7l11,7.3A14.8,14.8,0,0,0,171,225a14.3,14.3,0,0,0,5-.9,13.8,13.8,0,0,0,8.6-9.7l12.1-48.6A46.1,46.1,0,0,0,238,120ZM41.3,199.4a2,2,0,0,1-2.2.2,1.9,1.9,0,0,1-1.1-1.8V42.2a1.9,1.9,0,0,1,1.1-1.8l.9-.2a1.8,1.8,0,0,1,1.3.5c43.9,36.8,88.8,43.7,104.7,45v68.6C130.1,155.6,85.2,162.5,41.3,199.4Zm131.6,12.1a2,2,0,0,1-3,1.2l-11-7.3a2,2,0,0,1-.9-1.7V166h26.3ZM192,154H158V86h34a34,34,0,0,1,0,68Z"/></svg>