<svg id="Flat" xmlns="http://www.w3.org/2000/svg" viewBox="0 0 256 256">
  <path d="M219.91406,88.56055,137.79687,64.60937l-.04-.01171L43.91406,37.22656A13.99991,13.99991,0,0,0,25.99414,50.667V189.333a14.02076,14.02076,0,0,0,13.96094,14.01074,14.13436,14.13436,0,0,0,3.959-.57031L130,177.66455V192a14.01572,14.01572,0,0,0,14,14h32a14.01572,14.01572,0,0,0,14-14V160.16455l29.91406-8.7251A14.07151,14.07151,0,0,0,229.99414,138V102A14.07151,14.07151,0,0,0,219.91406,88.56055ZM40.55469,191.25391a2.00041,2.00041,0,0,1-2.56055-1.9209V50.667a1.96473,1.96473,0,0,1,.79981-1.60058,1.99205,1.99205,0,0,1,1.18652-.4043,2.04766,2.04766,0,0,1,.57422.084L130,74.83447v90.33106ZM178,192a2.0026,2.0026,0,0,1-2,2H144a2.0026,2.0026,0,0,1-2-2V174.16455l36-10.5Zm39.99414-54a2.01014,2.01014,0,0,1-1.43945,1.91992l-34.31787,10.00977-.03077.00879L142,161.66553V78.33447l74.55469,21.74561A2.01014,2.01014,0,0,1,217.99414,102Z"/>
</svg>
