<svg xmlns="http://www.w3.org/2000/svg" viewBox="0 0 256 256"><path d="M219.9,88.6l-82.1-24h0L43.9,37.2a14,14,0,0,0-12.3,2.3A13.6,13.6,0,0,0,26,50.7V189.3a14,14,0,0,0,14,14,13.1,13.1,0,0,0,3.9-.5L130,177.7V192a14,14,0,0,0,14,14h32a14,14,0,0,0,14-14V160.2l29.9-8.8A13.9,13.9,0,0,0,230,138V102A13.9,13.9,0,0,0,219.9,88.6ZM40.6,191.3a2.1,2.1,0,0,1-2.6-2V50.7a1.9,1.9,0,0,1,.8-1.6,1.7,1.7,0,0,1,1.2-.4h.6L130,74.8v90.4ZM178,192a2,2,0,0,1-2,2H144a2,2,0,0,1-2-2V174.2l36-10.5Zm40-54a2,2,0,0,1-1.4,1.9l-34.4,10h0L142,161.7V78.3l74.6,21.8A2,2,0,0,1,218,102Z"/></svg>