<svg id="Flat" xmlns="http://www.w3.org/2000/svg" viewBox="0 0 256 256">
  <path d="M128,26A102.0271,102.0271,0,0,0,38.96143,177.79494L30.187,208.50588A13.99961,13.99961,0,0,0,47.49365,225.813l30.7124-8.77344A102.00722,102.00722,0,1,0,128,26Zm0,192a89.87509,89.87509,0,0,1-45.93066-12.58594,5.99855,5.99855,0,0,0-4.71534-.6123l-33.15673,9.47314a1.9999,1.9999,0,0,1-2.47217-2.47265l9.47265-33.15576a6.00171,6.00171,0,0,0-.61181-4.71534A90.01073,90.01073,0,1,1,128,218Zm52.24268-110.24267a5.99988,5.99988,0,0,1,0,8.48535l-32,32a6.00019,6.00019,0,0,1-8.48536,0L112,120.48537,84.24268,148.2427a6.00005,6.00005,0,0,1-8.48536-8.48535l32-32a6.00076,6.00076,0,0,1,8.48536,0L144,135.51467l27.75732-27.75732A6.00076,6.00076,0,0,1,180.24268,107.75735Z"/>
</svg>
