<svg xmlns="http://www.w3.org/2000/svg" viewBox="0 0 256 256"><path d="M217.8,137.2a70,70,0,0,0-99-99l-.3.3-.3.3A70,70,0,0,0,98,88a77,77,0,0,0,.5,8.3L23.2,198.9a14,14,0,0,0,1.4,18.2l14.3,14.3a14,14,0,0,0,9.9,4.1,14.2,14.2,0,0,0,8.3-2.7l102.6-75.3a77,77,0,0,0,8.3.5,70,70,0,0,0,49.2-20.2l.3-.3ZM226,88a57.8,57.8,0,0,1-13,36.5L131.5,43A57.9,57.9,0,0,1,226,88ZM50,223.1a2,2,0,0,1-2.6-.2L33.1,208.6a2,2,0,0,1-.2-2.6l69.2-94.4a70.8,70.8,0,0,0,42.3,42.3ZM110,88a57.8,57.8,0,0,1,13-36.5L204.5,133A57.9,57.9,0,0,1,110,88Zm-5.8,63.8a5.8,5.8,0,0,1,0,8.4l-12,12a5.9,5.9,0,0,1-8.4-8.4l12-12A5.8,5.8,0,0,1,104.2,151.8Z"/></svg>