<svg xmlns="http://www.w3.org/2000/svg" viewBox="0 0 256 256"><path d="M200,26H72A14,14,0,0,0,58,40V66H40A14,14,0,0,0,26,80v96a14,14,0,0,0,14,14H58v26a14,14,0,0,0,14,14H200a14,14,0,0,0,14-14V40A14,14,0,0,0,200,26Zm-42,76h44v52H158Zm44-62V90H158V80a14,14,0,0,0-14-14h-2V38h58A2,2,0,0,1,202,40ZM70,40a2,2,0,0,1,2-2h58V66H70ZM38,176V80a2,2,0,0,1,2-2H144a2,2,0,0,1,2,2v96a2,2,0,0,1-2,2H40A2,2,0,0,1,38,176Zm32,40V190h60v28H72A2,2,0,0,1,70,216Zm130,2H142V190h2a14,14,0,0,0,14-14V166h44v50A2,2,0,0,1,200,218ZM69.2,148.4,84.5,128,69.2,107.6a6,6,0,1,1,9.6-7.2L92,118l13.2-17.6a6,6,0,0,1,9.6,7.2L99.5,128l15.3,20.4a6,6,0,0,1-9.6,7.2L92,138,78.8,155.6a6,6,0,1,1-9.6-7.2Z"/></svg>