<svg xmlns="http://www.w3.org/2000/svg" viewBox="0 0 256 256"><path d="M200,26H72A14,14,0,0,0,58,40V66H40A14,14,0,0,0,26,80v96a14,14,0,0,0,14,14H58v26a14,14,0,0,0,14,14H200a14,14,0,0,0,14-14V40A14,14,0,0,0,200,26Zm-42,76h44v52H158ZM70,40a2,2,0,0,1,2-2H200a2,2,0,0,1,2,2V90H158V80a14,14,0,0,0-14-14H70ZM38,176V80a2,2,0,0,1,2-2H144a2,2,0,0,1,2,2v96a2,2,0,0,1-2,2H40A2,2,0,0,1,38,176Zm162,42H72a2,2,0,0,1-2-2V190h74a14,14,0,0,0,14-14V166h44v50A2,2,0,0,1,200,218ZM70.2,153.5l-12-48a6,6,0,1,1,11.6-3l7.8,31.1,8.9-20a6,6,0,0,1,11,0l8.9,20,7.8-31.1a6,6,0,1,1,11.6,3l-12,48a6,6,0,0,1-5.3,4.5H108a6,6,0,0,1-5.5-3.6L92,130.8,81.5,154.4a6.1,6.1,0,0,1-6,3.6A6,6,0,0,1,70.2,153.5Z"/></svg>