<svg xmlns="http://www.w3.org/2000/svg" viewBox="0 0 256 256"><path d="M193.3,164.3a5.7,5.7,0,0,1-2.5-.6,6,6,0,0,1-2.9-8,65.3,65.3,0,0,0,5.7-20.4,6,6,0,1,1,11.9,1.4,78,78,0,0,1-6.7,24.1A6,6,0,0,1,193.3,164.3ZM212,220.4a5.7,5.7,0,0,1-4,1.6,5.9,5.9,0,0,1-4.4-2l-27.7-30.4A78.1,78.1,0,0,1,134,205.8V232a6,6,0,0,1-12,0V205.8a77.9,77.9,0,0,1-71.5-69.1,6,6,0,1,1,11.9-1.4,66.1,66.1,0,0,0,105.4,45.4l-13.6-14.9A46,46,0,0,1,82,128V86.3L43.6,44a5.9,5.9,0,0,1,8.8-8L159.3,153.6h0L212.4,212A5.8,5.8,0,0,1,212,220.4Zm-65.9-63.6L94,99.5V128a34,34,0,0,0,52.1,28.8ZM90.8,48.1a6,6,0,0,0,8.3-2A33.6,33.6,0,0,1,128,30a34.1,34.1,0,0,1,34,34v60.4a6,6,0,0,0,12,0V64A46,46,0,0,0,88.9,39.8,6,6,0,0,0,90.8,48.1Z"/></svg>