<svg xmlns="http://www.w3.org/2000/svg" viewBox="0 0 256 256"><path d="M94,98H78a6,6,0,0,0-6,6v48a6,6,0,0,0,12,0V142H94a22,22,0,0,0,0-44Zm0,32H84V110H94a10,10,0,0,1,0,20ZM136,26A102.4,102.4,0,0,0,55,66H40A14,14,0,0,0,26,80v96a14,14,0,0,0,14,14H55A102,102,0,1,0,136,26Zm89.8,96H158V80a14,14,0,0,0-14-14h-2V38.2A90.1,90.1,0,0,1,225.8,122ZM130,38.2V66H70.8A90.2,90.2,0,0,1,130,38.2ZM38,176V80a2,2,0,0,1,2-2H144a2,2,0,0,1,2,2v96a2,2,0,0,1-2,2H40A2,2,0,0,1,38,176Zm32.8,14H130v27.8A90.2,90.2,0,0,1,70.8,190ZM142,217.8V190h2a14,14,0,0,0,14-14V134h67.8A90.1,90.1,0,0,1,142,217.8Z"/></svg>