<svg xmlns="http://www.w3.org/2000/svg" viewBox="0 0 256 256"><path d="M74,110a6,6,0,0,1,0-12h36a6,6,0,0,1,0,12H98v42a6,6,0,0,1-12,0V110ZM230,92.7V152a38,38,0,0,1-36,37.9A62,62,0,0,1,78,190H40a14,14,0,0,1-14-14V80A14,14,0,0,1,40,66H99.3A41.5,41.5,0,0,1,98,56a38,38,0,0,1,70-20.5A32.6,32.6,0,0,1,186,30a32,32,0,0,1,25,52h8.3A10.7,10.7,0,0,1,230,92.7ZM172.9,46.9A39.1,39.1,0,0,1,174,56a37.4,37.4,0,0,1-4.3,17.5A19.8,19.8,0,0,0,186,82a20,20,0,1,0-13.1-35.1ZM112,66h32a14.1,14.1,0,0,1,11.9,6.7A25.8,25.8,0,0,0,162,56a26,26,0,1,0-50,10ZM40,178H144a2,2,0,0,0,2-2V80a2,2,0,0,0-2-2H40a2,2,0,0,0-2,2v96A2,2,0,0,0,40,178Zm146-10V96a2,2,0,0,0-2-2H158v82a14,14,0,0,1-14,14H91.1A50,50,0,0,0,186,168Zm32-74H197.8a13.6,13.6,0,0,1,.2,2v72a59.9,59.9,0,0,1-.7,9.5A26.2,26.2,0,0,0,218,152Z"/></svg>