<svg id="Flat" xmlns="http://www.w3.org/2000/svg" viewBox="0 0 256 256">
  <path d="M163.32813,115.00781l-48-32A5.99992,5.99992,0,0,0,106,88v64a5.99982,5.99982,0,0,0,9.32813,4.99219l48-32a5.9997,5.9997,0,0,0,0-9.98438ZM118,140.78882V99.21118L149.18359,120ZM208,42H48A22.02489,22.02489,0,0,0,26,64V176a22.02489,22.02489,0,0,0,22,22H208a22.02489,22.02489,0,0,0,22-22V64A22.02489,22.02489,0,0,0,208,42Zm10,134a10.01146,10.01146,0,0,1-10,10H48a10.01146,10.01146,0,0,1-10-10V64A10.01161,10.01161,0,0,1,48,54H208a10.01161,10.01161,0,0,1,10,10Zm-52,48a6.00029,6.00029,0,0,1-6,6H96a6,6,0,0,1,0-12h64A6.00029,6.00029,0,0,1,166,224Z"/>
</svg>
