<svg id="Flat" xmlns="http://www.w3.org/2000/svg" viewBox="0 0 256 256">
  <path d="M246,88a6.00029,6.00029,0,0,1-6,6H222v18a6,6,0,0,1-12,0V94H192a6,6,0,0,1,0-12h18V64a6,6,0,0,1,12,0V82h18A6.00029,6.00029,0,0,1,246,88ZM152,46h10V56a6,6,0,0,0,12,0V46h10a6,6,0,0,0,0-12H174V24a6,6,0,0,0-12,0V34H152a6,6,0,0,0,0,12Zm75.38818,102.11426a5.99429,5.99429,0,0,1,.02686,2.79785A102.00634,102.00634,0,1,1,105.08838,28.585a5.99989,5.99989,0,0,1,7.19092,7.18945A90.08467,90.08467,0,0,0,220.22412,143.71973a5.99927,5.99927,0,0,1,7.16358,4.39257Zm-14.2207,9.041A103.01558,103.01558,0,0,1,200,158,102.0663,102.0663,0,0,1,98.84424,42.833,90.56133,90.56133,0,0,0,57.89893,71.55176,88.9963,88.9963,0,0,0,38,128a90.10217,90.10217,0,0,0,90,90,88.99962,88.99962,0,0,0,56.44824-19.89844A90.57514,90.57514,0,0,0,213.16748,157.15527Z"/>
</svg>
