<svg id="Flat" xmlns="http://www.w3.org/2000/svg" viewBox="0 0 256 256">
  <path d="M225.80957,145.3252a5.99958,5.99958,0,0,0-5.585-1.60547A90.08794,90.08794,0,0,1,112.2793,35.77441a5.99989,5.99989,0,0,0-7.19092-7.18945,102.00628,102.00628,0,1,0,122.32617,122.3252A5.99983,5.99983,0,0,0,225.80957,145.3252Zm-41.36133,52.77636A88.99864,88.99864,0,0,1,128,218a90.10217,90.10217,0,0,1-90-90A88.9963,88.9963,0,0,1,57.89893,71.55176,90.56133,90.56133,0,0,1,98.84424,42.833,102.0663,102.0663,0,0,0,200,158a103.11017,103.11017,0,0,0,13.16748-.84424A90.57112,90.57112,0,0,1,184.44824,198.10156Z"/>
</svg>
