<svg id="Flat" xmlns="http://www.w3.org/2000/svg" viewBox="0 0 256 256">
  <path d="M246,88a6.00029,6.00029,0,0,1-6,6H222v18a6,6,0,0,1-12,0V94H192a6,6,0,0,1,0-12h18V64a6,6,0,0,1,12,0V82h18A6.00029,6.00029,0,0,1,246,88ZM152,46h10V56a6,6,0,0,0,12,0V46h10a6,6,0,0,0,0-12H174V24a6,6,0,0,0-12,0V34H152a6,6,0,0,0,0,12Zm70.35352,104.749a6.00457,6.00457,0,0,1,.063,3.59766,98.01383,98.01383,0,1,1-120.80761-120.75,6.00228,6.00228,0,0,1,7.48535,7.4834,86.03127,86.03127,0,0,0,105.773,105.84082,6.00059,6.00059,0,0,1,7.48633,3.82812Zm-14.813,10.01661A98.01462,98.01462,0,0,1,95.23389,48.46,86.016,86.016,0,1,0,207.54053,160.76563Z"/>
</svg>
