<svg id="Flat" xmlns="http://www.w3.org/2000/svg" viewBox="0 0 256 256">
  <path d="M103.53711,228.251a13.78735,13.78735,0,0,1-13.21191-9.41993L31.7207,49.52734A13.99987,13.99987,0,0,1,49.53027,31.71777L218.833,90.32324a14,14,0,0,1-.46192,26.61035l-76.55566,23.55567a1.99813,1.99813,0,0,0-1.32422,1.32324l-23.55566,76.55566a13.7951,13.7951,0,0,1-13.13672,9.88086C103.71191,228.25,103.624,228.251,103.53711,228.251ZM44.91113,42.93457a1.95183,1.95183,0,0,0-1.375.59863,1.91894,1.91894,0,0,0-.47558,2.06836h0L101.665,214.90527A1.85616,1.85616,0,0,0,103.543,216.251c.01562,0,.03125,0,.04687-.001a1.86211,1.86211,0,0,0,1.877-1.41016l23.55566-76.55664a13.98685,13.98685,0,0,1,9.26563-9.26367l76.55371-23.55469a2.00018,2.00018,0,0,0,.06543-3.80175L45.60449,43.05762A2.10255,2.10255,0,0,0,44.91113,42.93457Z"/>
</svg>
