<svg xmlns="http://www.w3.org/2000/svg" viewBox="0 0 256 256"><path d="M188.2,67.8a5.8,5.8,0,0,1,0,8.4l-16,16a5.9,5.9,0,0,1-8.4-8.4l16-16A5.8,5.8,0,0,1,188.2,67.8ZM222,72a38.1,38.1,0,0,1-11.1,26.9l-24,24a6.4,6.4,0,0,1-3.3,1.6c-52.1,9-138.5,94.9-139.4,95.7a4.6,4.6,0,0,1-1.8,1.3h0a6.9,6.9,0,0,1-2.4.5,6,6,0,0,1-4.2-10.2h0c1.4-1.4,86.7-87.4,95.7-139.3a6.4,6.4,0,0,1,1.6-3.3l24-24A38,38,0,0,1,222,72Zm-12,0a26,26,0,0,0-44.4-18.4L142.9,76.3c-4.1,20.8-18.6,47.6-43.1,79.9,32.3-24.5,59.1-39,79.9-43.1l22.7-22.7A26,26,0,0,0,210,72Z"/></svg>