<svg xmlns="http://www.w3.org/2000/svg" viewBox="0 0 256 256"><path d="M216,42H40A14,14,0,0,0,26,56V216a6.1,6.1,0,0,0,2.8,5.1,6.2,6.2,0,0,0,5.9.3L64,206.7l29.3,14.7a6.4,6.4,0,0,0,5.4,0L128,206.7l29.3,14.7a6.4,6.4,0,0,0,5.4,0L192,206.7l29.3,14.7a6.6,6.6,0,0,0,2.7.6,6.2,6.2,0,0,0,3.2-.9A6.1,6.1,0,0,0,230,216V56A14,14,0,0,0,216,42Zm2,164.3-23.3-11.7a6.4,6.4,0,0,0-5.4,0L160,209.3l-29.3-14.7a6.4,6.4,0,0,0-5.4,0L96,209.3,66.7,194.6a6.4,6.4,0,0,0-5.4,0L38,206.3V56a2,2,0,0,1,2-2H216a2,2,0,0,1,2,2ZM198,112a6,6,0,0,1-6,6H144a6,6,0,0,1,0-12h48A6,6,0,0,1,198,112Zm0,32a6,6,0,0,1-6,6H144a6,6,0,0,1,0-12h48A6,6,0,0,1,198,144ZM112,90H64a6,6,0,0,0-6,6v64a6,6,0,0,0,6,6h48a6,6,0,0,0,6-6V96A6,6,0,0,0,112,90Zm-6,64H70V102h36Z"/></svg>