<svg id="Flat" xmlns="http://www.w3.org/2000/svg" viewBox="0 0 256 256">
  <path d="M198,96a6.00029,6.00029,0,0,1-6,6H88a6,6,0,0,1,0-12H192A6.00029,6.00029,0,0,1,198,96Zm-6,26H88a6,6,0,0,0,0,12H192a6,6,0,0,0,0-12Zm0,32H88a6,6,0,0,0,0,12H192a6,6,0,0,0,0-12Zm46-98V192a22.02489,22.02489,0,0,1-22,22H32a22.02638,22.02638,0,0,1-22-21.90527V80a6,6,0,0,1,12,0V192a10,10,0,0,0,20,0V56A14.01572,14.01572,0,0,1,56,42H224A14.01572,14.01572,0,0,1,238,56Zm-12,0a2.0026,2.0026,0,0,0-2-2H56a2.0026,2.0026,0,0,0-2,2V192a21.8573,21.8573,0,0,1-2.40723,10H216a10.01177,10.01177,0,0,0,10-10Z"/>
</svg>
