<svg id="Flat" xmlns="http://www.w3.org/2000/svg" viewBox="0 0 256 256">
  <path d="M182,112a6.00029,6.00029,0,0,1-6,6H96a6,6,0,0,1,0-12h80A6.00029,6.00029,0,0,1,182,112Zm-6,26H96a6,6,0,0,0,0,12h80a6,6,0,0,0,0-12Zm54-74V184a22.02489,22.02489,0,0,1-22,22H32a22.02638,22.02638,0,0,1-22-21.90527V88a6,6,0,0,1,12,0v96a10,10,0,0,0,20,0V64A14.01572,14.01572,0,0,1,56,50H216A14.01572,14.01572,0,0,1,230,64Zm-12,0a2.0026,2.0026,0,0,0-2-2H56a2.0026,2.0026,0,0,0-2,2V184a21.8573,21.8573,0,0,1-2.40723,10H208a10.01177,10.01177,0,0,0,10-10Z"/>
</svg>
