<svg id="Flat" xmlns="http://www.w3.org/2000/svg" viewBox="0 0 256 256">
  <path d="M216,42H40A14.01572,14.01572,0,0,0,26,56V216a6.00023,6.00023,0,0,0,8.68359,5.36621L64,206.708l29.31641,14.6582a5.99421,5.99421,0,0,0,5.36718,0L128,206.708l29.31641,14.6582a5.99421,5.99421,0,0,0,5.36718,0L192,206.708l29.31641,14.6582A6.00023,6.00023,0,0,0,230,216V56A14.01572,14.01572,0,0,0,216,42Zm2,164.292-23.31641-11.6582a5.99421,5.99421,0,0,0-5.36718,0L160,209.292l-29.31641-14.6582a5.99832,5.99832,0,0,0-5.36718,0L96,209.292l-29.31641-14.6582a5.99421,5.99421,0,0,0-5.36718,0L38,206.292V56a2.0026,2.0026,0,0,1,2-2H216a2.0026,2.0026,0,0,1,2,2ZM198,112a6.00029,6.00029,0,0,1-6,6H144a6,6,0,0,1,0-12h48A6.00029,6.00029,0,0,1,198,112Zm0,32a6.00029,6.00029,0,0,1-6,6H144a6,6,0,0,1,0-12h48A6.00029,6.00029,0,0,1,198,144ZM112,90H64a6.00029,6.00029,0,0,0-6,6v64a6.00029,6.00029,0,0,0,6,6h48a6.00029,6.00029,0,0,0,6-6V96A6.00029,6.00029,0,0,0,112,90Zm-6,64H70V102h36Z"/>
</svg>
