<svg id="Flat" xmlns="http://www.w3.org/2000/svg" viewBox="0 0 256 256">
  <path d="M228.24219,59.75732l-32-32a5.99871,5.99871,0,0,0-8.48438,0l-96,96A5.9974,5.9974,0,0,0,90,128v32a6.00029,6.00029,0,0,0,6,6h32a5.99858,5.99858,0,0,0,4.24219-1.75732l96-96A5.999,5.999,0,0,0,228.24219,59.75732ZM125.51465,154H102V130.48535l66.00024-66.00024,23.51465,23.51465Zm74.48511-74.48511L176.48511,56.00024,192,40.48535,215.51465,64ZM222,120v88a14.01572,14.01572,0,0,1-14,14H48a14.01572,14.01572,0,0,1-14-14V48A14.01572,14.01572,0,0,1,48,34h88a6,6,0,0,1,0,12H48a2.00245,2.00245,0,0,0-2,2V208a2.00229,2.00229,0,0,0,2,2H208a2.00229,2.00229,0,0,0,2-2V120a6,6,0,0,1,12,0Z"/>
</svg>
