<svg id="Flat" xmlns="http://www.w3.org/2000/svg" viewBox="0 0 256 256">
  <path d="M166,128.00586a6.00029,6.00029,0,0,1-6,6H96a6,6,0,1,1,0-12h64A6.00029,6.00029,0,0,1,166,128.00586Zm-6,26H96a6,6,0,1,0,0,12h64a6,6,0,0,0,0-12Zm54-106v152a30.03406,30.03406,0,0,1-30,30H72a30.03406,30.03406,0,0,1-30-30v-152a14.01572,14.01572,0,0,1,14-14H74v-10a6,6,0,0,1,12,0v10h36v-10a6,6,0,1,1,12,0v10h36v-10a6,6,0,1,1,12,0v10h18A14.01572,14.01572,0,0,1,214,48.00586Zm-12,0a2.0026,2.0026,0,0,0-2-2H182v10a6,6,0,0,1-12,0v-10H134v10a6,6,0,0,1-12,0v-10H86v10a6,6,0,0,1-12,0v-10H56a2.0026,2.0026,0,0,0-2,2v152a18.02063,18.02063,0,0,0,18,18H184a18.02063,18.02063,0,0,0,18-18Z"/>
</svg>
