<svg id="Flat" xmlns="http://www.w3.org/2000/svg" viewBox="0 0 256 256">
  <path d="M208,34H48A14.01572,14.01572,0,0,0,34,48V208a14.01572,14.01572,0,0,0,14,14H156.68652a13.95045,13.95045,0,0,0,5.63575-1.189c.06-.0254.11694-.05616.176-.0835a13.98354,13.98354,0,0,0,4.08765-2.82813l51.31347-51.31347A13.908,13.908,0,0,0,222,156.68652V48A14.01572,14.01572,0,0,0,208,34ZM46,208V48a2.00229,2.00229,0,0,1,2-2H208a2.00229,2.00229,0,0,1,2,2V153.99219H160a6,6,0,0,0-6,6V210H48A2.00229,2.00229,0,0,1,46,208Zm120-6.48535V165.99219h35.52271Z"/>
</svg>
