<svg id="Flat" xmlns="http://www.w3.org/2000/svg" viewBox="0 0 256 256">
  <path d="M90,96a6.00029,6.00029,0,0,1,6-6h64a6,6,0,0,1,0,12H96A6.00029,6.00029,0,0,1,90,96Zm6,38h64a6,6,0,0,0,0-12H96a6,6,0,0,0,0,12Zm32,20H96a6,6,0,0,0,0,12h32a6,6,0,0,0,0-12ZM222,48V156.68652a13.90922,13.90922,0,0,1-4.10059,9.89942l-51.31347,51.31347A13.908,13.908,0,0,1,156.68652,222H48a14.01572,14.01572,0,0,1-14-14V48A14.01572,14.01572,0,0,1,48,34H208A14.01572,14.01572,0,0,1,222,48ZM48,210H154V159.99219a6,6,0,0,1,6-6h50V48a2.00229,2.00229,0,0,0-2-2H48a2.00229,2.00229,0,0,0-2,2V208A2.00229,2.00229,0,0,0,48,210Zm153.52271-44.00781H166v35.52246Z"/>
</svg>
