<svg xmlns="http://www.w3.org/2000/svg" viewBox="0 0 256 256"><path d="M166,128a6,6,0,0,1-6,6H96a6,6,0,0,1,0-12h64A6,6,0,0,1,166,128Zm-6,26H96a6,6,0,0,0,0,12h64a6,6,0,0,0,0-12ZM214,48V200a30.1,30.1,0,0,1-30,30H72a30.1,30.1,0,0,1-30-30V48A14,14,0,0,1,56,34H74V24a6,6,0,0,1,12,0V34h36V24a6,6,0,0,1,12,0V34h36V24a6,6,0,0,1,12,0V34h18A14,14,0,0,1,214,48Zm-12,0a2,2,0,0,0-2-2H182V56a6,6,0,0,1-12,0V46H134V56a6,6,0,0,1-12,0V46H86V56a6,6,0,0,1-12,0V46H56a2,2,0,0,0-2,2V200a18.1,18.1,0,0,0,18,18H184a18.1,18.1,0,0,0,18-18Z"/></svg>