<svg id="Flat" xmlns="http://www.w3.org/2000/svg" viewBox="0 0 256 256">
  <path d="M128,74c-12.39258,0-22.56934,6.21582-29.43066,17.9751C93.043,101.44727,90,114.24072,90,128c0,13.75781,3.043,26.55127,8.56934,36.02344C105.43066,175.78369,115.60742,182,128,182s22.56934-6.21631,29.43066-17.97656C162.957,154.55127,166,141.75781,166,128c0-13.75928-3.043-26.55273-8.56934-36.0249C150.56934,80.21582,140.39258,74,128,74Zm0,96c-17.96094,0-26-21.09424-26-42,0-29.01318,13.05859-42,26-42,17.96094,0,26,21.09424,26,42C154,157.01318,140.94141,170,128,170ZM208,34H48A14.01572,14.01572,0,0,0,34,48V208a14.01572,14.01572,0,0,0,14,14H208a14.01572,14.01572,0,0,0,14-14V48A14.01572,14.01572,0,0,0,208,34Zm2,174a2.00229,2.00229,0,0,1-2,2H48a2.00229,2.00229,0,0,1-2-2V48a2.00229,2.00229,0,0,1,2-2H208a2.00229,2.00229,0,0,1,2,2Z"/>
</svg>
