<svg xmlns="http://www.w3.org/2000/svg" viewBox="0 0 256 256"><path d="M128,26A102,102,0,1,0,230,128,102.2,102.2,0,0,0,128,26Zm0,192a90,90,0,1,1,90-90A90.1,90.1,0,0,1,128,218ZM116.9,90,112,120.1a34.3,34.3,0,0,1,11.9-2.1A34.1,34.1,0,0,1,158,152a34,34,0,0,1-34.1,34,33.6,33.6,0,0,1-24.1-10,5.9,5.9,0,0,1-.1-8.4,6,6,0,0,1,8.5-.1,22.1,22.1,0,0,0,15.7,6.5,21.7,21.7,0,0,0,15.6-6.5,21.7,21.7,0,0,0,0-31,21.7,21.7,0,0,0-15.6-6.5,22.1,22.1,0,0,0-15.7,6.5,5.9,5.9,0,0,1-6.9,1,5.8,5.8,0,0,1-3.2-6.3L105.9,83a6,6,0,0,1,5.9-5H152a6,6,0,0,1,0,12Z"/></svg>