<svg id="Flat" xmlns="http://www.w3.org/2000/svg" viewBox="0 0 256 256">
  <path d="M116.93848,86l-4.89161,30.09375a34.30123,34.30123,0,0,1,35.95118,7.85645,34.05865,34.05865,0,0,1-48.23243,48.0996,6.00006,6.00006,0,1,1,8.46875-8.50195,22.201,22.201,0,0,0,31.29688-.001,21.91574,21.91574,0,0,0-.001-31.09375,22.20338,22.20338,0,0,0-31.29687.001,5.99972,5.99972,0,0,1-10.15528-5.21484l7.835-48.20215A5.99955,5.99955,0,0,1,111.835,74H152a6,6,0,0,1,0,12ZM222,48V208a14.01572,14.01572,0,0,1-14,14H48a14.01572,14.01572,0,0,1-14-14V48A14.01572,14.01572,0,0,1,48,34H208A14.01572,14.01572,0,0,1,222,48Zm-12,0a2.0026,2.0026,0,0,0-2-2H48a2.0026,2.0026,0,0,0-2,2V208a2.0026,2.0026,0,0,0,2,2H208a2.0026,2.0026,0,0,0,2-2Z"/>
</svg>
