<svg id="Flat" xmlns="http://www.w3.org/2000/svg" viewBox="0 0 256 256">
  <path d="M187.69043,53.38867C173.66309,30.2373,153.02344,18,128,18S82.33691,30.2373,68.30957,53.38867C56.50293,72.87695,50,99.37451,50,128c0,28.62305,6.50293,55.12012,18.30957,74.60889C82.33691,225.76172,102.97754,238,128,238s45.66309-12.23828,59.69043-35.39111C199.49707,183.12012,206,156.62305,206,128,206,99.37451,199.49707,72.87695,187.69043,53.38867ZM128,226c-45.5918,0-66-49.22021-66-98s20.4082-98,66-98,66,49.22021,66,98S173.5918,226,128,226Z"/>
</svg>
