<svg id="Flat" xmlns="http://www.w3.org/2000/svg" viewBox="0 0 256 256">
  <path d="M117.00879,85.99609l-4.86914,30.08106A34.00979,34.00979,0,1,1,99.85742,172.041a6.00005,6.00005,0,0,1,8.48438-8.48633,22.00049,22.00049,0,1,0,0-31.11231,6.00018,6.00018,0,0,1-10.165-5.20215l7.80176-48.20312a6.0007,6.0007,0,0,1,5.92285-5.041h39.99707a6,6,0,0,1,0,12ZM222,48V208a14.01572,14.01572,0,0,1-14,14H48a14.01572,14.01572,0,0,1-14-14V48A14.01572,14.01572,0,0,1,48,34H208A14.01572,14.01572,0,0,1,222,48Zm-12,0a2.0026,2.0026,0,0,0-2-2H48a2.0026,2.0026,0,0,0-2,2V208a2.0026,2.0026,0,0,0,2,2H208a2.0026,2.0026,0,0,0,2-2Z"/>
</svg>
