<svg id="Flat" xmlns="http://www.w3.org/2000/svg" viewBox="0 0 256 256">
  <path d="M128,26A102,102,0,1,0,230,128,102.1153,102.1153,0,0,0,128,26Zm0,192a90,90,0,1,1,90-90A90.10217,90.10217,0,0,1,128,218Zm17-99.45508a33.75578,33.75578,0,0,0-23.09558-3.99756l18.21765-31.55322a6.00012,6.00012,0,0,0-10.39258-6l-31.1748,53.99512-.00806.01562a34.024,34.024,0,0,0,29.39771,51,34.17833,34.17833,0,0,0,8.85546-1.17383A33.99954,33.99954,0,0,0,145,118.54492Zm2.05273,40.44434A22.00057,22.00057,0,1,1,149.25,142.29492,21.86054,21.86054,0,0,1,147.05273,158.98926Z"/>
</svg>
