<svg id="Flat" xmlns="http://www.w3.org/2000/svg" viewBox="0 0 256 256">
  <path d="M128,238c-25.02246,0-45.66309-12.238-59.69043-35.391C56.50293,183.11987,50,156.62317,50,128c0-28.62543,6.50293-55.12286,18.30957-74.61133C82.33691,30.23718,102.97656,18,128,18s45.66309,12.23718,59.69043,35.38867C199.49707,72.87714,206,99.37457,206,128c0,28.62317-6.50293,55.11987-18.30957,74.609C173.66309,225.762,153.02246,238,128,238Zm0-208c-45.5918,0-66,49.22021-66,98s20.4082,98,66,98,66-49.22021,66-98S173.5918,30,128,30Z"/>
</svg>
