<svg id="Flat" xmlns="http://www.w3.org/2000/svg" viewBox="0 0 256 256">
  <path d="M148.043,127.9624a33.99706,33.99706,0,1,1-48.07813,48.08008,5.99971,5.99971,0,1,1,8.48438-8.48535,21.99731,21.99731,0,1,0,15.55469-37.55274,6.00023,6.00023,0,0,1-4.916-9.43994L140.47363,90H104a6,6,0,0,1,0-12h47.99414a6.00023,6.00023,0,0,1,4.916,9.43994l-22.51172,32.17481A33.84648,33.84648,0,0,1,148.043,127.9624ZM222,48V208a14.01572,14.01572,0,0,1-14,14H48a14.01572,14.01572,0,0,1-14-14V48A14.01572,14.01572,0,0,1,48,34H208A14.01572,14.01572,0,0,1,222,48Zm-12,0a2.00229,2.00229,0,0,0-2-2H48a2.00229,2.00229,0,0,0-2,2V208a2.00229,2.00229,0,0,0,2,2H208a2.00229,2.00229,0,0,0,2-2Z"/>
</svg>
