<svg id="Flat" xmlns="http://www.w3.org/2000/svg" viewBox="0 0 256 256">
  <path d="M148.04492,123.959a33.99965,33.99965,0,1,1-48.083,48.08252,5.99971,5.99971,0,1,1,8.48438-8.48535A22.00006,22.00006,0,1,0,124.00293,126a6.00023,6.00023,0,0,1-4.916-9.43994l21.38868-30.56787H103.99707a6,6,0,0,1,0-12h48a6.00023,6.00023,0,0,1,4.916,9.43994l-22.51563,32.17773A33.84175,33.84175,0,0,1,148.04492,123.959ZM222,48V208a14.01572,14.01572,0,0,1-14,14H48a14.01572,14.01572,0,0,1-14-14V48A14.01572,14.01572,0,0,1,48,34H208A14.01572,14.01572,0,0,1,222,48Zm-12,0a2.00229,2.00229,0,0,0-2-2H48a2.00229,2.00229,0,0,0-2,2V208a2.00229,2.00229,0,0,0,2,2H208a2.00229,2.00229,0,0,0,2-2Z"/>
</svg>
