<svg id="Flat" xmlns="http://www.w3.org/2000/svg" viewBox="0 0 256 256">
  <path d="M208,34H48A14.01572,14.01572,0,0,0,34,48V208a14.01572,14.01572,0,0,0,14,14H208a14.01572,14.01572,0,0,0,14-14V48A14.01572,14.01572,0,0,0,208,34Zm2,174a2.00229,2.00229,0,0,1-2,2H48a2.00229,2.00229,0,0,1-2-2V48a2.00229,2.00229,0,0,1,2-2H208a2.00229,2.00229,0,0,1,2,2Zm-57.29688-86.9834L115.999,169.99414H152a6,6,0,0,1,0,12H104.27246c-.09082.0044-.18164.00635-.27344.00635a6.00193,6.00193,0,0,1-4.71582-9.71094l43.72266-58.34326a18.004,18.004,0,1,0-31.59375-16.95068,6.00035,6.00035,0,0,1-11.05274-4.67481,30.00427,30.00427,0,1,1,52.51368,28.457Q152.791,120.89942,152.70312,121.0166Z"/>
</svg>
