<svg xmlns="http://www.w3.org/2000/svg" viewBox="0 0 256 256"><path d="M128,74c-12.4,0-22.6,6.2-29.4,18C93,101.4,90,114.2,90,128s3,26.6,8.6,36c6.8,11.8,17,18,29.4,18s22.6-6.2,29.4-18c5.6-9.4,8.6-22.2,8.6-36s-3-26.6-8.6-36C150.6,80.2,140.4,74,128,74Zm0,96c-18,0-26-21.1-26-42,0-29,13.1-42,26-42,18,0,26,21.1,26,42C154,157,140.9,170,128,170ZM208,34H48A14,14,0,0,0,34,48V208a14,14,0,0,0,14,14H208a14,14,0,0,0,14-14V48A14,14,0,0,0,208,34Zm2,174a2,2,0,0,1-2,2H48a2,2,0,0,1-2-2V48a2,2,0,0,1,2-2H208a2,2,0,0,1,2,2Z"/></svg>