<svg id="Flat" xmlns="http://www.w3.org/2000/svg" viewBox="0 0 256 256">
  <path d="M128,26A102,102,0,1,0,230,128,102.1153,102.1153,0,0,0,128,26Zm0,192a90,90,0,1,1,90-90A90.10217,90.10217,0,0,1,128,218Zm24.70313-96.98242L115.999,169.99414H152a6,6,0,0,1,0,12H104.27246c-.09082.00391-.18164.00586-.27344.00586a6.00193,6.00193,0,0,1-4.71582-9.71094l43.72168-58.34082a18.12362,18.12362,0,0,0,1.584-2.94433,17.92037,17.92037,0,0,0,1.0459-3.37207,18.23552,18.23552,0,0,0-.001-7.26758,17.89656,17.89656,0,0,0-1.04492-3.36817,18.07014,18.07014,0,0,0-9.585-9.585,17.92037,17.92037,0,0,0-3.37207-1.0459,18.31934,18.31934,0,0,0-7.26758.001,17.89656,17.89656,0,0,0-3.36817,1.04492,18.07014,18.07014,0,0,0-9.585,9.585,5.99964,5.99964,0,1,1-11.05078-4.67578A29.99745,29.99745,0,0,1,121.958,74.60938a30.41775,30.41775,0,0,1,12.08008-.001A29.99788,29.99788,0,0,1,157.39063,97.958a30.26255,30.26255,0,0,1,.001,12.08008,29.89953,29.89953,0,0,1-4.51758,10.73828C152.81934,120.85742,152.76172,120.93848,152.70313,121.01758Z"/>
</svg>
