<svg id="Flat" xmlns="http://www.w3.org/2000/svg" viewBox="0 0 256 256">
  <path d="M145.9386,123.49561c.6405-.53614,1.2633-1.09913,1.8612-1.69678a28,28,0,1,0-39.59863.001c.59741.59742,1.22022,1.15992,1.86023,1.69581a32.33187,32.33187,0,0,0-4.68835,3.87744,32,32,0,1,0,45.2539,0A32.33187,32.33187,0,0,0,145.9386,123.49561Zm-29.25208-10.18116A16.00124,16.00124,0,1,1,128,118,15.89661,15.89661,0,0,1,116.68652,113.31445Zm25.45606,50.82813A20.00215,20.00215,0,1,1,148,150,19.87242,19.87242,0,0,1,142.14258,164.14258ZM208,34H48A14.01572,14.01572,0,0,0,34,48V208a14.01572,14.01572,0,0,0,14,14H208a14.01572,14.01572,0,0,0,14-14V48A14.01572,14.01572,0,0,0,208,34Zm2,174a2.0026,2.0026,0,0,1-2,2H48a2.0026,2.0026,0,0,1-2-2V48a2.0026,2.0026,0,0,1,2-2H208a2.0026,2.0026,0,0,1,2,2Z"/>
</svg>
