<svg id="Flat" xmlns="http://www.w3.org/2000/svg" viewBox="0 0 256 256">
  <path d="M154,111.99414v64a6,6,0,1,1-12,0v-26H100a6,6,0,0,1-5.6582-7.99707l23.998-67.99414a6.0003,6.0003,0,0,1,11.31641,3.99414l-21.17578,59.99707H142v-26a6,6,0,0,1,12,0ZM222,48V208a14.01572,14.01572,0,0,1-14,14H48a14.01572,14.01572,0,0,1-14-14V48A14.01572,14.01572,0,0,1,48,34H208A14.01572,14.01572,0,0,1,222,48Zm-12,0a2.00229,2.00229,0,0,0-2-2H48a2.00229,2.00229,0,0,0-2,2V208a2.0026,2.0026,0,0,0,2,2H208a2.0026,2.0026,0,0,0,2-2Z"/>
</svg>
