<svg id="Flat" xmlns="http://www.w3.org/2000/svg" viewBox="0 0 256 256">
  <path d="M156.86719,80.49219a6.00006,6.00006,0,0,1,.82519,5.40527l-32,96a6.0003,6.0003,0,0,1-11.38476-3.79492L143.67578,90H104a6,6,0,0,1,0-12h48A5.998,5.998,0,0,1,156.86719,80.49219ZM222,48V208a14.01572,14.01572,0,0,1-14,14H48a14.01572,14.01572,0,0,1-14-14V48A14.01572,14.01572,0,0,1,48,34H208A14.01572,14.01572,0,0,1,222,48Zm-12,0a2.0026,2.0026,0,0,0-2-2H48a2.0026,2.0026,0,0,0-2,2V208a2.0026,2.0026,0,0,0,2,2H208a2.0026,2.0026,0,0,0,2-2Z"/>
</svg>
