<svg id="Flat" xmlns="http://www.w3.org/2000/svg" viewBox="0 0 256 256">
  <path d="M208,34H48A14.01572,14.01572,0,0,0,34,48V208a14.01572,14.01572,0,0,0,14,14H208a14.01572,14.01572,0,0,0,14-14V48A14.01572,14.01572,0,0,0,208,34Zm2,174a2.0026,2.0026,0,0,1-2,2H48a2.0026,2.0026,0,0,1-2-2V48a2.0026,2.0026,0,0,1,2-2H208a2.0026,2.0026,0,0,1,2,2Zm-65-89.45508a33.749,33.749,0,0,0-23.09558-3.99756l18.21765-31.55322a6.00012,6.00012,0,0,0-10.39258-6l-31.1748,53.99512-.00806.01587a34.02385,34.02385,0,0,0,29.39771,50.99975,34.17833,34.17833,0,0,0,8.85546-1.17383A33.99954,33.99954,0,0,0,145,118.54492Zm2.05273,40.44434A22.00057,22.00057,0,1,1,149.25,142.29492,21.86054,21.86054,0,0,1,147.05273,158.98926Z"/>
</svg>
