<svg id="Flat" xmlns="http://www.w3.org/2000/svg" viewBox="0 0 256 256">
  <path d="M128,26A102,102,0,1,0,230,128,102.1153,102.1153,0,0,0,128,26Zm0,192a90,90,0,1,1,90-90A90.10217,90.10217,0,0,1,128,218ZM160.8418,99.20508a34.1159,34.1159,0,1,0-26.74414,42.23828L115.87793,173a6.00012,6.00012,0,1,0,10.39258,6l31.1748-53.99512.00806-.01562A33.78273,33.78273,0,0,0,160.8418,99.20508Zm-27.14746,30.0498a21.99973,21.99973,0,1,1-11.38868-42.5,22.13584,22.13584,0,0,1,5.73047-.75976,22.00506,22.00506,0,0,1,5.65821,43.25976Z"/>
</svg>
