<svg id="Flat" xmlns="http://www.w3.org/2000/svg" viewBox="0 0 256 256">
  <path d="M208,34H48A14.01572,14.01572,0,0,0,34,48V208a14.01572,14.01572,0,0,0,14,14H208a14.01572,14.01572,0,0,0,14-14V48A14.01572,14.01572,0,0,0,208,34Zm2,174a2.0026,2.0026,0,0,1-2,2H48a2.0026,2.0026,0,0,1-2-2V48a2.0026,2.0026,0,0,1,2-2H208a2.0026,2.0026,0,0,1,2,2ZM128,78a34,34,0,1,0,5.59814,67.531l-18.74951,31.39282a6,6,0,1,0,10.30274,6.15234l32.249-53.99512c.09155-.15332.17188-.31005.24829-.46777A33.97724,33.97724,0,0,0,128,78Zm-22,34a22,22,0,1,1,22,22A22.02489,22.02489,0,0,1,106,112Z"/>
</svg>
