<svg xmlns="http://www.w3.org/2000/svg" viewBox="0 0 256 256"><path d="M174.5,131.5a65.8,65.8,0,0,0-19.4-12.7,54.8,54.8,0,0,0,12.9-9.1,51.5,51.5,0,0,0,0-76.1,59.1,59.1,0,0,0-80,0,51.5,51.5,0,0,0,0,76.1,54.8,54.8,0,0,0,12.9,9.1,65.8,65.8,0,0,0-19.4,12.7,59.8,59.8,0,0,0,0,88.4,68.8,68.8,0,0,0,93,0,59.8,59.8,0,0,0,0-88.4ZM96.2,101a39.6,39.6,0,0,1,0-58.7,47.3,47.3,0,0,1,63.6,0,39.6,39.6,0,0,1,0,58.7,47.3,47.3,0,0,1-63.6,0Zm70.1,110.1a56.7,56.7,0,0,1-76.6,0,47.9,47.9,0,0,1,0-70.9,56.7,56.7,0,0,1,76.6,0,47.9,47.9,0,0,1,0,70.9Z"/></svg>