<svg id="Flat" xmlns="http://www.w3.org/2000/svg" viewBox="0 0 256 256">
  <path d="M128,26A102,102,0,1,0,230,128,102.1153,102.1153,0,0,0,128,26Zm0,192a90,90,0,1,1,90-90A90.10217,90.10217,0,0,1,128,218ZM116.93848,90l-4.8916,30.09375a34.30121,34.30121,0,0,1,35.95117,7.85645,34.05865,34.05865,0,0,1-48.23242,48.0996,6.00006,6.00006,0,1,1,8.46875-8.50195,22.201,22.201,0,0,0,31.29687-.001,21.91574,21.91574,0,0,0-.001-31.09375,22.20338,22.20338,0,0,0-31.29687.001,5.99971,5.99971,0,0,1-10.15527-5.21484l7.835-48.20215A5.99955,5.99955,0,0,1,111.835,78H152a6,6,0,0,1,0,12Z"/>
</svg>
