<svg id="Flat" xmlns="http://www.w3.org/2000/svg" viewBox="0 0 256 256">
  <path d="M208,34H48A14.01572,14.01572,0,0,0,34,48V208a14.01572,14.01572,0,0,0,14,14H208a14.01572,14.01572,0,0,0,14-14V48A14.01572,14.01572,0,0,0,208,34Zm2,174a2.0026,2.0026,0,0,1-2,2H48a2.0026,2.0026,0,0,1-2-2V48a2.0026,2.0026,0,0,1,2-2H208a2.0026,2.0026,0,0,1,2,2Zm-82-94a34.07587,34.07587,0,0,0-5.59473.46826l18.7461-31.39795A6,6,0,1,0,130.84863,76.918L98.60352,130.92578c-.05713.0957-.10376.19458-.155.29224A33.98853,33.98853,0,1,0,128,114Zm0,56a21.98941,21.98941,0,0,1-18.85632-33.31958l.07031-.11768A21.99737,21.99737,0,1,1,128,170Z"/>
</svg>
