<svg id="Flat" xmlns="http://www.w3.org/2000/svg" viewBox="0 0 256 256">
  <path d="M160.8418,99.20508a34.1159,34.1159,0,1,0-26.74414,42.23828L115.87793,173a6.00012,6.00012,0,1,0,10.39258,6l31.1748-53.99512.00806-.01587A33.782,33.782,0,0,0,160.8418,99.20508Zm-27.14746,30.0498a21.99973,21.99973,0,1,1-11.38868-42.5,22.13584,22.13584,0,0,1,5.73047-.75976,22.00506,22.00506,0,0,1,5.65821,43.25976ZM208,34H48A14.01572,14.01572,0,0,0,34,48V208a14.01572,14.01572,0,0,0,14,14H208a14.01572,14.01572,0,0,0,14-14V48A14.01572,14.01572,0,0,0,208,34Zm2,174a2.0026,2.0026,0,0,1-2,2H48a2.0026,2.0026,0,0,1-2-2V48a2.0026,2.0026,0,0,1,2-2H208a2.0026,2.0026,0,0,1,2,2Z"/>
</svg>
