<svg id="Flat" xmlns="http://www.w3.org/2000/svg" viewBox="0 0 256 256">
  <path d="M128,74c-12.39258,0-22.56934,6.21582-29.43066,17.97559C93.043,101.44727,90,114.24121,90,128c0,13.75781,3.043,26.55176,8.56934,36.02344C105.43066,175.78418,115.60742,182,128,182s22.56934-6.21582,29.43066-17.97656C162.957,154.55176,166,141.75781,166,128c0-13.75879-3.043-26.55273-8.56934-36.02441C150.56934,80.21582,140.39258,74,128,74Zm0,96c-17.96094,0-26-21.09473-26-42,0-29.01367,13.05859-42,26-42,17.96094,0,26,21.09473,26,42C154,157.01367,140.94141,170,128,170Zm0-144A102,102,0,1,0,230,128,102.1153,102.1153,0,0,0,128,26Zm0,192a90,90,0,1,1,90-90A90.10217,90.10217,0,0,1,128,218Z"/>
</svg>
