<svg id="Flat" xmlns="http://www.w3.org/2000/svg" viewBox="0 0 256 256">
  <path d="M128,26A102,102,0,1,0,230,128,102.1153,102.1153,0,0,0,128,26Zm0,192a90,90,0,1,1,90-90A90.10217,90.10217,0,0,1,128,218Zm24.70313-96.98242L115.999,169.99414H152a6,6,0,0,1,0,12H104.27246c-.09082.00391-.18164.00586-.27344.00586a6.00193,6.00193,0,0,1-4.71582-9.71094l43.72266-58.34179a18.00434,18.00434,0,1,0-31.59375-16.95215,6.00016,6.00016,0,1,1-11.05273-4.67383,30.00408,30.00408,0,1,1,52.51367,28.456Q152.791,120.89893,152.70313,121.01758Z"/>
</svg>
