<svg id="Flat" xmlns="http://www.w3.org/2000/svg" viewBox="0 0 256 256">
  <path d="M79.999,230.00049a6.00438,6.00438,0,0,1-4.68652-9.75122l87.59766-116.88806A41.99665,41.99665,0,0,0,136.4707,38.85339a42.661,42.661,0,0,0-16.9414,0,41.75158,41.75158,0,0,0-15.00782,6.316A42.133,42.133,0,0,0,89.29883,63.65259,5.99992,5.99992,0,0,1,78.24609,58.98a53.98058,53.98058,0,0,1,38.877-31.88293,54.71414,54.71414,0,0,1,21.7539,0,53.72185,53.72185,0,0,1,19.31836,8.12878A54.11354,54.11354,0,0,1,177.75391,58.98a53.76379,53.76379,0,0,1,3.14941,10.14478,54.4552,54.4552,0,0,1-.001,21.75219,53.77591,53.77591,0,0,1-8.127,19.31848c-.05566.0813-.1123.16138-.1709.24L92.00293,217.98853H176a6,6,0,0,1,0,12H80.375C80.25,229.99634,80.125,230.00049,79.999,230.00049Z"/>
</svg>
