<svg id="Flat" xmlns="http://www.w3.org/2000/svg" viewBox="0 0 256 256">
  <path d="M174.5332,131.4585A66.21447,66.21447,0,0,0,155.12988,118.825a56.8311,56.8311,0,0,0,12.876-9.07886,51.63121,51.63121,0,0,0,0-76.15869,59.13224,59.13224,0,0,0-80.01172,0,51.63121,51.63121,0,0,0,0,76.15869,56.8311,56.8311,0,0,0,12.876,9.07886,66.22062,66.22062,0,0,0-19.4043,12.634,59.93137,59.93137,0,0,0,.001,88.416,68.79655,68.79655,0,0,0,93.06738-.00049,59.93136,59.93136,0,0,0-.001-88.416ZM96.207,100.99805a39.63748,39.63748,0,0,1,0-58.6626,47.13879,47.13879,0,0,1,63.58594,0,39.63748,39.63748,0,0,1,0,58.6626,47.13879,47.13879,0,0,1-63.58594,0ZM166.32031,211.126a56.79922,56.79922,0,0,1-76.63965.00048,47.93447,47.93447,0,0,1-.001-70.91894,56.79924,56.79924,0,0,1,76.63965-.00049,47.93449,47.93449,0,0,1,.001,70.919Z"/>
</svg>
