<svg id="Flat" xmlns="http://www.w3.org/2000/svg" viewBox="0 0 256 256">
  <path d="M128,26A102,102,0,1,0,230,128,102.1153,102.1153,0,0,0,128,26Zm0,192a90,90,0,1,1,90-90A90.10217,90.10217,0,0,1,128,218Zm17.9386-94.50439c.6405-.53614,1.2633-1.09913,1.8612-1.69678a28,28,0,1,0-39.59863.001c.59741.59717,1.22022,1.16016,1.86023,1.69581a32.33187,32.33187,0,0,0-4.68835,3.87744,32,32,0,1,0,45.2539,0A32.33187,32.33187,0,0,0,145.9386,123.49561Zm-29.25208-10.18116A16.00124,16.00124,0,1,1,128,118,15.89661,15.89661,0,0,1,116.68652,113.31445Zm25.45606,50.82813A20.00215,20.00215,0,1,1,148,150,19.87242,19.87242,0,0,1,142.14258,164.14258Z"/>
</svg>
