<svg xmlns="http://www.w3.org/2000/svg" viewBox="0 0 256 256"><path d="M218.9,68.5,134.9,21a14.1,14.1,0,0,0-13.8,0l-84,47.5A14,14,0,0,0,30,80.7v94.6a14,14,0,0,0,7.1,12.2l84,47.5a14.1,14.1,0,0,0,13.8,0l84-47.5a14,14,0,0,0,7.1-12.2V80.7A14,14,0,0,0,218.9,68.5ZM214,175.3a2.1,2.1,0,0,1-1,1.8l-84,47.5a2.3,2.3,0,0,1-2,0L43,177.1a2.1,2.1,0,0,1-1-1.8V80.7a2.1,2.1,0,0,1,1-1.8l84-47.5,1-.2,1,.2,84,47.5a2.1,2.1,0,0,1,1,1.8ZM128,86a42,42,0,1,0,42,42A42,42,0,0,0,128,86Zm0,72a30,30,0,1,1,30-30A30.1,30.1,0,0,1,128,158Z"/></svg>