<svg id="Flat" xmlns="http://www.w3.org/2000/svg" viewBox="0 0 256 256">
  <path d="M218.8877,68.48,134.88818,21.002a14.07058,14.07058,0,0,0-13.77783-.00049L37.10986,68.48A14.02167,14.02167,0,0,0,29.999,80.66748v94.665A14.02112,14.02112,0,0,0,37.11035,187.52l83.99951,47.478a14.0723,14.0723,0,0,0,13.77784.00049L218.88818,187.52a14.02167,14.02167,0,0,0,7.11084-12.1875v-94.665A14.02113,14.02113,0,0,0,218.8877,68.48ZM213.999,175.33252a2.00476,2.00476,0,0,1-1.01562,1.74121l-84.001,47.478a2.00879,2.00879,0,0,1-1.96777-.00049L43.01514,177.07373a2.00419,2.00419,0,0,1-1.01612-1.74121v-94.665a2.00475,2.00475,0,0,1,1.01563-1.74121l84.001-47.478a2.008,2.008,0,0,1,1.96778.00049l83.99951,47.47754a2.0042,2.0042,0,0,1,1.01611,1.74121ZM127.999,86a42,42,0,1,0,42,42A42.0475,42.0475,0,0,0,127.999,86Zm0,72a30,30,0,1,1,30-30A30.03406,30.03406,0,0,1,127.999,158Z"/>
</svg>
