<svg xmlns="http://www.w3.org/2000/svg" viewBox="0 0 256 256"><path d="M172.1,138a10,10,0,1,1-10,10A10,10,0,0,1,172.1,138Zm39.4,26.8A86.1,86.1,0,0,1,94.2,223.1l-1.3-.6a86.2,86.2,0,0,1-50.1-66.9,3.7,3.7,0,0,1-.1-1.1A72.2,72.2,0,0,1,42,144,85.8,85.8,0,0,1,57.1,95.4,33.7,33.7,0,0,1,36.1,64a34,34,0,0,1,34-34,5.8,5.8,0,0,1,2.6.6L187.4,86a22,22,0,0,0-1.3-44,6,6,0,0,1,0-12,34,34,0,0,1,0,68,5.8,5.8,0,0,1-2.6-.6L126.8,70A74.1,74.1,0,0,0,54,144v.7l39.1-20.9h.1l32-17.1a5.9,5.9,0,0,1,5.9.2A5.8,5.8,0,0,1,134,112V217.8a73.9,73.9,0,0,0,65.8-55.9,6,6,0,0,1,11.7,2.9ZM65.1,85.4a86.8,86.8,0,0,1,42.1-24.8L68.8,42A22,22,0,0,0,48.1,64,21.8,21.8,0,0,0,65.1,85.4ZM122,122l-20,10.7v80.6a73.6,73.6,0,0,0,20,4.4ZM90,207.5V139.1L55.3,157.6A74.2,74.2,0,0,0,90,207.5Z"/></svg>