<svg id="Flat" xmlns="http://www.w3.org/2000/svg" viewBox="0 0 256 256">
  <path d="M172,138a10,10,0,1,1-10,10A9.99987,9.99987,0,0,1,172,138Zm39.39453,26.80469A85.99464,85.99464,0,0,1,94.10889,223.06006a5.93828,5.93828,0,0,1-1.22974-.55713,86.20727,86.20727,0,0,1-50.144-66.89258,5.93455,5.93455,0,0,1-.13623-1.06982A85.35969,85.35969,0,0,1,56.99829,95.44238,34.0159,34.0159,0,0,1,70,30a6.00157,6.00157,0,0,1,2.6084.59668l114.686,55.36572A22.00026,22.00026,0,0,0,186,42a6,6,0,0,1,0-12,34,34,0,0,1,0,68,6.00157,6.00157,0,0,1-2.6084-.59668l-56.699-27.37207A74.07268,74.07268,0,0,0,53.92969,144c0,.2207.01465.4375.0166.65771l39.10986-20.85888.0332-.01758,32.01661-17.0752A5.99992,5.99992,0,0,1,133.92969,112V217.75391A73.819,73.819,0,0,0,199.749,161.91064a5.99986,5.99986,0,0,1,11.64551,2.894ZM65.04443,85.42236a86.04061,86.04061,0,0,1,42.04395-24.855L68.70557,42.0376a21.99325,21.99325,0,0,0-3.66114,43.38476ZM121.92969,122l-20,10.667v80.60547a73.45935,73.45935,0,0,0,20,4.46338Zm-32,85.46875V139.06689L55.2019,157.58838A74.18456,74.18456,0,0,0,89.92969,207.46875Z"/>
</svg>
