<svg xmlns="http://www.w3.org/2000/svg" viewBox="0 0 256 256"><path d="M164.5,230h-73a14.3,14.3,0,0,1-9.9-4.1L30.1,174.4a14.3,14.3,0,0,1-4.1-9.9v-73a14.3,14.3,0,0,1,4.1-9.9L81.6,30.1A14.3,14.3,0,0,1,91.5,26h73a14.3,14.3,0,0,1,9.9,4.1l51.5,51.5a14.3,14.3,0,0,1,4.1,9.9v73a14.3,14.3,0,0,1-4.1,9.9l-51.5,51.5A14.3,14.3,0,0,1,164.5,230ZM91.5,38a2,2,0,0,0-1.4.6L38.6,90.1a2,2,0,0,0-.6,1.4v73a2,2,0,0,0,.6,1.4l51.5,51.5a2,2,0,0,0,1.4.6h73a2,2,0,0,0,1.4-.6l51.5-51.5a2,2,0,0,0,.6-1.4v-73a2,2,0,0,0-.6-1.4L165.9,38.6a2,2,0,0,0-1.4-.6Z"/></svg>