<svg xmlns="http://www.w3.org/2000/svg" viewBox="0 0 256 256"><path d="M228.3,71.8h-.1a13.4,13.4,0,0,0-5.2-5.1L135,17a14.1,14.1,0,0,0-13.8,0l-88,49.5a13.8,13.8,0,0,0-4.9,4.7h0l-.3.4h-.1a14.8,14.8,0,0,0-1.8,6.9v98.6a14,14,0,0,0,7.1,12.2l88,49.5a14.8,14.8,0,0,0,6.1,1.8H129a14.8,14.8,0,0,0,6-1.8l88-49.5a14,14,0,0,0,7.1-12.2V78.7A13.4,13.4,0,0,0,228.3,71.8ZM127.1,27.4l1-.2,1,.2L211.9,74,177.2,93.7,92.4,46.9Zm1.9,93.7L44.4,74,80.1,53.9,165,100.7Zm-89.9,58a2.2,2.2,0,0,1-1-1.8V84.2L123,131.5l-.8,94.3Zm178,0-82.9,46.6.8-94.2L171.1,111v41.5a6,6,0,0,0,12,0V104.2l35-19.9v93A2.2,2.2,0,0,1,217.1,179.1Z"/></svg>