<svg id="Flat" xmlns="http://www.w3.org/2000/svg" viewBox="0 0 256 256">
  <path d="M224.08325,73.811c-.02881-.05372-.052-.10938-.08252-.1626-.03919-.06836-.08484-.13086-.12622-.19727a13.99223,13.99223,0,0,0-5.09839-4.97168l-84-47.478a14.07214,14.07214,0,0,0-13.77734,0L36.9978,68.48a13.99523,13.99523,0,0,0-5.21057,5.1543c-.01087.019-.02381.03613-.03455.05517-.01892.03369-.03271.06885-.051.103A13.98653,13.98653,0,0,0,29.88745,80.668V175.332a14.02387,14.02387,0,0,0,7.11133,12.18848l84,47.478a13.9419,13.9419,0,0,0,6.06091,1.749,5.914,5.914,0,0,0,.76623.0625c.02051.00049.042.00049.0625.00049a5.97822,5.97822,0,0,0,.8147-.062,13.94267,13.94267,0,0,0,6.073-1.75L218.7771,187.52a14.0236,14.0236,0,0,0,7.11035-12.188V80.668A13.98791,13.98791,0,0,0,224.08325,73.811Zm-97.18018-42.3628a2.01152,2.01152,0,0,1,1.96875,0l78.87549,44.582-30.759,17.58838-80.499-44.98Zm2.01172,89.65967L48.13391,75.96973,84.2594,55.55127l80.57019,45.02ZM42.90405,177.07373a2.00384,2.00384,0,0,1-1.0166-1.7417v-89.106L122.91211,131.5l-.93189,90.269Zm169.96777-.00049-78.88928,44.58985.93091-90.16211,36.10876-20.64746v37.65722a6,6,0,0,0,12,0v-44.519l30.86524-17.64893V175.332A2.00357,2.00357,0,0,1,212.87182,177.07324Z"/>
</svg>
