<svg id="Flat" xmlns="http://www.w3.org/2000/svg" viewBox="0 0 256 256">
  <path d="M228.16967,71.773c-.01977-.03613-.035-.07422-.05566-.11035-.00891-.01563-.01965-.02979-.02869-.04492a13.98814,13.98814,0,0,0-5.22229-5.14112l-88-49.5a14.08012,14.08012,0,0,0-13.72656,0l-88.001,49.5a13.98224,13.98224,0,0,0-4.94385,4.7002l-.00135.00195c-.09606.15137-.19482.30078-.285.45606-.01245.02148-.0271.041-.03931.0625-.01953.03515-.03369.07177-.05249.10693a13.98488,13.98488,0,0,0-1.81372,6.87451v98.64258a14.01856,14.01856,0,0,0,7.13672,12.20215l88,49.5a13.94979,13.94979,0,0,0,6.04077,1.73437,6.04091,6.04091,0,0,0,.78052.06348h.05371a6.01453,6.01453,0,0,0,.83862-.06543,13.94338,13.94338,0,0,0,6.01294-1.73242l88-49.5a14.01619,14.01619,0,0,0,7.13672-12.20215V78.67871A13.98879,13.98879,0,0,0,228.16967,71.773ZM127.01928,27.43555a2.0132,2.0132,0,0,1,1.96094,0l82.82727,46.59082-34.67,19.69629L92.32983,46.94824Zm1.90039,93.68066L44.28418,73.97412l35.74438-20.106L164.898,100.67627ZM39.02026,179.06445a2.00089,2.00089,0,0,1-1.02051-1.74316V84.21l84.918,47.29883-.82837,94.28271Zm177.96,0-82.889,46.62549.8274-94.18066,36.10363-20.51123v41.51269a6,6,0,0,0,12,0V104.18066l34.97754-19.87109v93.01172A2.002,2.002,0,0,1,216.98022,179.06445Z"/>
</svg>
