<svg xmlns="http://www.w3.org/2000/svg" viewBox="0 0 256 256"><path d="M225,25c-20.8,0-44.3,11.6-69.8,34.4C136.8,75.9,121,94.9,110.3,109A57.9,57.9,0,0,0,34,164c0,32.3-17,46.7-17.8,47.3a6.3,6.3,0,0,0-1.9,6.7,6.1,6.1,0,0,0,5.7,4H92a57.9,57.9,0,0,0,55-76.3c14.1-10.7,33.1-26.5,49.6-44.9C219.4,75.3,231,51.8,231,31A6,6,0,0,0,225,25ZM92,210H33c6.1-9.1,13-24.2,13-46a46,46,0,1,1,46,46Zm29.5-95.9c3.7-4.8,8-10.2,12.7-15.7a76.8,76.8,0,0,1,23.4,23.4c-5.5,4.7-10.9,9-15.7,12.7A58.6,58.6,0,0,0,121.5,114.1Zm66.1-21.3a276.3,276.3,0,0,1-20.9,21,89.3,89.3,0,0,0-24.5-24.5,276.3,276.3,0,0,1,21-20.9c20.5-18.4,39-28.7,55.3-30.9C216.3,53.8,206,72.3,187.6,92.8Z"/></svg>