<svg xmlns="http://www.w3.org/2000/svg" viewBox="0 0 256 256"><path d="M229.2,26.8a30,30,0,0,0-42.4,0c-.1.1-.2.1-.2.2L131.7,88.2a2,2,0,0,1-1.5.7,2,2,0,0,1-1.4-.6l-9.2-9.2a22,22,0,0,0-31.2,0L11.8,155.8a5.8,5.8,0,0,0,0,8.4l26.5,26.6h0l28,28h0l25.5,25.4a5.8,5.8,0,0,0,8.4,0l76.7-76.6a22,22,0,0,0,0-31.2l-9.2-9.2a2,2,0,0,1-.6-1.4,2,2,0,0,1,.7-1.5L229,69.4l.2-.2A30,30,0,0,0,229.2,26.8ZM96,231.5,79,214.6l27-27a6,6,0,0,0-8.5-8.5l-26.9,27L51,186.6l27-27a6,6,0,0,0-8.5-8.5l-26.9,27L24.5,160,72,112.5,143.5,184ZM220.8,60.6l-61,54.8a13.9,13.9,0,0,0-.6,20.3l9.2,9.2a10.1,10.1,0,0,1,0,14.2L152,175.5,80.5,104,96.9,87.6a10.1,10.1,0,0,1,14.2,0l9.2,9.2a14.4,14.4,0,0,0,10.3,4.1,13.9,13.9,0,0,0,10-4.7h0l54.8-61a18,18,0,0,1,25.4,25.4Z"/></svg>