<svg xmlns="http://www.w3.org/2000/svg" viewBox="0 0 256 256"><path d="M216,26H72A38,38,0,0,0,34,64v72a22.1,22.1,0,0,0,22,22h46.8a1.8,1.8,0,0,1,1.5.7,2,2,0,0,1,.5,1.6l-6.7,46.9a1.9,1.9,0,0,0-.1.8,30,30,0,0,0,60,0,1.9,1.9,0,0,0-.1-.8l-6.7-46.9a2,2,0,0,1,.5-1.6,1.8,1.8,0,0,1,1.5-.7H200a22.1,22.1,0,0,0,22-22V32A6,6,0,0,0,216,26ZM72,38H178V80a6,6,0,0,0,12,0V38h20v68H46V64A26.1,26.1,0,0,1,72,38ZM200,146H153.2a14.4,14.4,0,0,0-10.6,4.8,14.2,14.2,0,0,0-3.2,11.2l6.6,46.4a18,18,0,0,1-36,0l6.6-46.4a14.2,14.2,0,0,0-3.2-11.2,14.4,14.4,0,0,0-10.6-4.8H56a10,10,0,0,1-10-10V118H210v18A10,10,0,0,1,200,146Z"/></svg>