<svg id="Flat" xmlns="http://www.w3.org/2000/svg" viewBox="0 0 256 256">
  <path d="M208,26H72A38.04323,38.04323,0,0,0,34,64v80a14.01572,14.01572,0,0,0,14,14h57.08154l-7.02148,49.15137A6.017,6.017,0,0,0,98,208a30,30,0,0,0,60,0,6.017,6.017,0,0,0-.06006-.84863L150.91846,158H208a14.01572,14.01572,0,0,0,14-14V40A14.01572,14.01572,0,0,0,208,26ZM72,38h90V72a6,6,0,0,0,12,0V38h34a2.00229,2.00229,0,0,1,2,2v66H46V64A26.02916,26.02916,0,0,1,72,38Zm73.99561,170.39648a18,18,0,0,1-35.99122,0L117.2041,158h21.5918ZM208,146H48a2.00229,2.00229,0,0,1-2-2V118H210v26A2.00229,2.00229,0,0,1,208,146Z"/>
</svg>
