<svg id="Flat" xmlns="http://www.w3.org/2000/svg" viewBox="0 0 256 256">
  <path d="M218.68652,124a13.90644,13.90644,0,0,0-4.10156-9.89941l-84.68555-84.687a14.01851,14.01851,0,0,0-19.79882.00049l-30.104,30.104-25.897-25.897a5.99971,5.99971,0,0,0-8.48438,8.48536L71.51184,68.00293,17.415,122.1001a13.99784,13.99784,0,0,0,0,19.79931l84.68555,84.68653v.00049a14.01792,14.01792,0,0,0,19.79882-.00049l92.68555-92.686A13.90841,13.90841,0,0,0,218.68652,124Zm-12.58593,1.41406L113.415,218.1001a2.00341,2.00341,0,0,1-2.83008,0v.00049l-84.68555-84.687a1.99869,1.99869,0,0,1,0-2.82763L79.997,76.48828l25.87512,25.875a25.99759,25.99759,0,0,0,40.5127,32.02734l.001-.00048a26.00281,26.00281,0,0,0-32.03491-40.51783L88.48169,68.00317,118.585,37.8999a2.0043,2.0043,0,0,1,2.83008-.00049l84.68555,84.687a1.99869,1.99869,0,0,1,0,2.82763ZM128,102.00586a13.99976,13.99976,0,1,1-9.90039,4.10059A13.90621,13.90621,0,0,1,128,102.00586Zm104.24316,49.752a6.00017,6.00017,0,0,0-8.48632,0C222.86816,152.64648,202,173.77637,202,196a26,26,0,0,0,52,0C254,173.77637,233.13184,152.64648,232.24316,151.75781ZM228,210a14.01572,14.01572,0,0,1-14-14c0-11.89209,8.60937-24.3208,14-30.937,5.3916,6.61767,14,19.04492,14,30.937A14.01572,14.01572,0,0,1,228,210Z"/>
</svg>
