<svg id="Flat" xmlns="http://www.w3.org/2000/svg" viewBox="0 0 256 256">
  <path d="M229.21289,26.78613a30.03629,30.03629,0,0,0-42.42578,0c-.07617.07715-.15137.15528-.22363.23535L131.66113,88.19531a1.97991,1.97991,0,0,1-1.43457.66309,1.935,1.935,0,0,1-1.46777-.584l-9.20313-9.20312a21.999,21.999,0,0,0-31.11132,0L11.75781,155.75781a5.99782,5.99782,0,0,0,0,8.48438l26.55908,26.55908.0044.00537.00537.0044,27.99023,27.99023.0044.00537.00537.0044,25.43115,25.43115a5.99782,5.99782,0,0,0,8.48438,0l76.68652-76.68653a21.999,21.999,0,0,0,0-31.11132l-9.20312-9.20313a2.0012,2.0012,0,0,1,.0791-2.90234l61.17383-54.90235c.08007-.07226.1582-.14746.23535-.22363A30.03659,30.03659,0,0,0,229.21289,26.78613ZM96,231.51465l-16.9502-16.9502,26.94825-26.94726a6.00005,6.00005,0,0,0-8.48438-8.48633L70.56445,206.0791,51.0498,186.56445l26.94825-26.94726a6.00005,6.00005,0,0,0-8.48438-8.48633L42.56445,178.0791,24.48535,160,72,112.48438,143.51562,184ZM220.834,60.62109,159.78906,115.4082a13.9986,13.9986,0,0,0-.54785,20.31739l9.20313,9.20312a10.0129,10.0129,0,0,1,0,14.14258L152,175.51562,80.48438,104,96.92871,87.55566a10.0129,10.0129,0,0,1,14.14258,0l9.20312,9.20313a13.9986,13.9986,0,0,0,20.31739-.54785h.001L195.37891,35.166A18.00008,18.00008,0,0,1,220.834,60.62109Z"/>
</svg>
