<svg id="Flat" xmlns="http://www.w3.org/2000/svg" viewBox="0 0 256 256">
  <path d="M228.96484,123.48437a5.99777,5.99777,0,0,0-1.75781-4.24267L119.72266,11.75732a5.99871,5.99871,0,0,0-8.48438,0L69.73682,53.2583,42.09961,25.62109a5.99971,5.99971,0,0,0-8.48438,8.48536l27.6366,27.63671L15.07031,107.92383a22.02532,22.02532,0,0,0,.001,31.11279l84.85644,84.85693a21.99905,21.99905,0,0,0,31.11231,0l96.167-96.1665A5.99778,5.99778,0,0,0,228.96484,123.48437ZM122.55469,215.4082a9.99871,9.99871,0,0,1-14.1416,0L23.55664,130.55127a10.01142,10.01142,0,0,1-.001-14.14209l46.1814-46.18091,32.135,32.135a25.99759,25.99759,0,0,0,40.5127,32.02734l.001-.00048a26.00281,26.00281,0,0,0-32.03491-40.51783L78.22192,61.74341l37.25855-37.25806,98.999,98.999ZM124,102.00586a13.99976,13.99976,0,1,1-9.90039,4.10059A13.90621,13.90621,0,0,1,124,102.00586Zm108.24316,57.752a6.00017,6.00017,0,0,0-8.48632,0C222.86816,160.64648,202,181.77637,202,204a26,26,0,0,0,52,0C254,181.77637,233.13184,160.64648,232.24316,159.75781ZM228,218a14.01572,14.01572,0,0,1-14-14c0-11.89209,8.60937-24.3208,14-30.937,5.3916,6.61767,14,19.04492,14,30.937A14.01572,14.01572,0,0,1,228,218Z"/>
</svg>
