<svg xmlns="http://www.w3.org/2000/svg" viewBox="0 0 256 256"><path d="M229,123.5a6.4,6.4,0,0,0-1.8-4.3L119.7,11.8a5.9,5.9,0,0,0-8.5,0L69.7,53.3,42.1,25.6a6,6,0,0,0-8.5,8.5L61.3,61.7,15.1,107.9a22,22,0,0,0,0,31.1l84.8,84.9a22.2,22.2,0,0,0,15.6,6.4,21.8,21.8,0,0,0,15.5-6.4l96.2-96.2A6,6,0,0,0,229,123.5ZM122.6,215.4a10.1,10.1,0,0,1-14.2,0L23.6,130.5a10,10,0,0,1,0-14.1L69.7,70.2l32.2,32.2a26,26,0,0,0,40.5,32h0A26,26,0,0,0,124,90a25.7,25.7,0,0,0-13.6,3.9L78.2,61.7l37.3-37.2,99,99ZM124,102a14.1,14.1,0,0,1,9.9,4.1,13.9,13.9,0,0,1,0,19.8,14,14,0,0,1-19.8,0,13.9,13.9,0,0,1,0-19.8A14.1,14.1,0,0,1,124,102Zm108.2,57.8a5.8,5.8,0,0,0-8.4,0c-.9.8-21.8,22-21.8,44.2a26,26,0,0,0,52,0C254,181.8,233.1,160.6,232.2,159.8ZM228,218a14,14,0,0,1-14-14c0-11.9,8.6-24.3,14-30.9,5.4,6.6,14,19,14,30.9A14,14,0,0,1,228,218Z"/></svg>