<svg xmlns="http://www.w3.org/2000/svg" viewBox="0 0 256 256"><path d="M199.4,55.3A101.5,101.5,0,0,0,128,26h-1A102,102,0,0,0,94,224.2a30,30,0,0,0,40-28.3V192a18.1,18.1,0,0,1,18-18h46.2a30,30,0,0,0,29.3-23.3,103.4,103.4,0,0,0,2.5-23.6A101.3,101.3,0,0,0,199.4,55.3ZM215.8,148a17.9,17.9,0,0,1-17.6,14H152a30.1,30.1,0,0,0-30,30v3.9a18,18,0,0,1-24,17A90,90,0,0,1,64.1,64.7a88.8,88.8,0,0,1,63-26.7h.9a90.3,90.3,0,0,1,90,89.2A90.8,90.8,0,0,1,215.8,148ZM138,76a10,10,0,1,1-10-10A10,10,0,0,1,138,76ZM91.6,107A10,10,0,1,1,74.3,97a10,10,0,1,1,17.3,10Zm0,42A10,10,0,1,1,78,145.3,10.1,10.1,0,0,1,91.6,149Zm90.1-52A10,10,0,1,1,168,93.3,10,10,0,0,1,181.7,97Z"/></svg>