<svg id="Flat" xmlns="http://www.w3.org/2000/svg" viewBox="0 0 256 256">
  <path d="M199.37109,55.31641A101.29576,101.29576,0,0,0,127.99658,26q-.52148,0-1.04443.00488A102.01647,102.01647,0,0,0,94.02588,224.20312a30.186,30.186,0,0,0,10.07275,1.74708A30.08771,30.08771,0,0,0,134,195.90234V192a18.02063,18.02063,0,0,1,18-18h46.20947a29.83042,29.83042,0,0,0,29.25489-23.31543,102.54621,102.54621,0,0,0,2.53222-23.55957A101.22318,101.22318,0,0,0,199.37109,55.31641Zm16.39209,92.708A17.89225,17.89225,0,0,1,198.20947,162H152a30.03406,30.03406,0,0,0-30,30v3.90234a18.00208,18.00208,0,0,1-23.978,16.98633A90.01455,90.01455,0,0,1,127.07324,38.00488q.4607-.0044.91992-.00488a90.3301,90.3301,0,0,1,90.00342,89.22656A90.50279,90.50279,0,0,1,215.76318,148.02441ZM138,76a10,10,0,1,1-10-10A9.99987,9.99987,0,0,1,138,76ZM91.62549,106.999a9.99826,9.99826,0,1,1-3.65967-13.65771A9.998,9.998,0,0,1,91.62549,106.999Zm0,42.002a9.99826,9.99826,0,1,1-13.658-3.65967A9.99785,9.99785,0,0,1,91.62549,149.001Zm90.06665-52a9.99826,9.99826,0,1,1-13.658-3.65967A9.99785,9.99785,0,0,1,181.69214,97.001Z"/>
</svg>
