<svg id="Flat" xmlns="http://www.w3.org/2000/svg" viewBox="0 0 256 256">
  <path d="M234.68921,202.44775l-94.5918-168.915a14.00115,14.00115,0,0,0-24.43164,0L21.074,202.44775A14.00024,14.00024,0,0,0,37.9978,222.47266l89.21191-31.86133a2.00509,2.00509,0,0,1,1.34473,0l89.21094,31.86133a14.14726,14.14726,0,0,0,4.76465.832,14.01926,14.01926,0,0,0,12.15918-20.85694Zm-10.6875,8.13135a1.87127,1.87127,0,0,1-2.20118.59229l-87.91894-31.39991V120a6,6,0,1,0-12,0v59.772L33.96264,211.17139a1.99959,1.99959,0,0,1-2.418-2.86035l94.5918-168.915h0a2,2,0,0,1,3.49024,0L224.2185,208.311A1.87108,1.87108,0,0,1,224.00171,210.5791Z"/>
</svg>
