<svg id="Flat" xmlns="http://www.w3.org/2000/svg" viewBox="0 0 256 256">
  <path d="M222.4668,115.78418,53.55273,21.19238A14.00025,14.00025,0,0,0,33.52734,38.11621l31.86133,89.21094a2.01391,2.01391,0,0,1,0,1.3457L33.52734,217.88379a14.03494,14.03494,0,0,0,13.16114,18.73242,14.03,14.03,0,0,0,6.86425-1.80859l168.91407-94.5918a14.00161,14.00161,0,0,0,0-24.43164Zm-5.86328,13.96094L47.68945,224.33691a2.00013,2.00013,0,0,1-2.86133-2.418L76.228,134H136a6,6,0,0,0,0-12H76.228L44.82812,34.08105a1.87263,1.87263,0,0,1,.59278-2.20117,1.96507,1.96507,0,0,1,1.26269-.502,2.03886,2.03886,0,0,1,1.00586.28516l168.91407,94.59179a2.0005,2.0005,0,0,1,0,3.49024Z"/>
</svg>
