<svg id="Flat" xmlns="http://www.w3.org/2000/svg" viewBox="0 0 256 256">
  <path d="M222.32227,33.67773a13.83317,13.83317,0,0,0-13.7002-3.57421L22.294,82.65723a14.00013,14.00013,0,0,0-2.19239,26.127l85.61035,40.55176a2.00765,2.00765,0,0,1,.95118.95117l40.55273,85.61133a13.87429,13.87429,0,0,0,12.61328,8.00879q.60205,0,1.21094-.05078a13.88687,13.88687,0,0,0,12.30273-10.1504L225.89648,47.37793A13.83356,13.83356,0,0,0,222.32227,33.67773Zm-7.97461,10.44239L161.794,230.44824a2.00005,2.00005,0,0,1-3.73243.31348l-39.96631-84.37256L160.36035,104.124a5.99936,5.99936,0,1,0-8.48437-8.48437l-42.26465,42.26489-84.373-39.96606a2.00005,2.00005,0,0,1,.31348-3.73243L211.87988,41.65234a2.14932,2.14932,0,0,1,.57715-.083,1.95545,1.95545,0,0,1,1.37988.59375A1.93433,1.93433,0,0,1,214.34766,44.12012Z"/>
</svg>
