<svg xmlns="http://www.w3.org/2000/svg" viewBox="0 0 256 256"><path d="M222.3,33.7a13.6,13.6,0,0,0-13.7-3.6L22.3,82.7A13.9,13.9,0,0,0,12.1,95a14.1,14.1,0,0,0,8,13.8l85.6,40.5a2.4,2.4,0,0,1,1,1l40.5,85.6a13.8,13.8,0,0,0,12.6,8H161a13.9,13.9,0,0,0,12.3-10.2L225.9,47.4A13.6,13.6,0,0,0,222.3,33.7Zm-8,10.4L161.8,230.4a1.8,1.8,0,0,1-1.8,1.5,1.8,1.8,0,0,1-1.9-1.1l-40-84.4,42.3-42.3a6,6,0,0,0-8.5-8.5l-42.3,42.3-84.4-40A1.8,1.8,0,0,1,24.1,96a1.8,1.8,0,0,1,1.5-1.8L211.9,41.7h.6a1.6,1.6,0,0,1,1.3.6A1.8,1.8,0,0,1,214.3,44.1Z"/></svg>