<svg id="Flat" xmlns="http://www.w3.org/2000/svg" viewBox="0 0 256 256">
  <path d="M208.23975,123.75488a6.00033,6.00033,0,0,1-.00586,8.48535l-82.05323,81.94629a54.0001,54.0001,0,0,1-76.36425-76.37109L149.09473,37.15527a37.99975,37.99975,0,1,1,53.76953,53.71L103.58545,191.52637a21.99974,21.99974,0,1,1-31.1416-31.083l83.273-84.65625a6.00025,6.00025,0,0,1,8.55468,8.416l-83.30761,84.6914a9.99968,9.99968,0,1,0,14.10644,14.17676l99.2793-100.66211a26,26,0,1,0-36.74024-36.79883L58.33105,146.27148a42.00036,42.00036,0,1,0,59.36719,59.42774L199.75439,123.75A6.00077,6.00077,0,0,1,208.23975,123.75488Z"/>
</svg>
