<svg xmlns="http://www.w3.org/2000/svg" viewBox="0 0 256 256"><path d="M230,120a102,102,0,0,0-204,0,5.8,5.8,0,0,0,2.4,4.8h0L122,195v23H112a6,6,0,0,0,0,12h32a6,6,0,0,0,0-12H134V195l93.6-70.2h0A5.8,5.8,0,0,0,230,120Zm-12.2-6H173.9c-1.3-42.9-16.5-68.6-28.4-82.3A90.1,90.1,0,0,1,217.8,114ZM128,31.4a78.5,78.5,0,0,1,15.4,17.5C157.3,70.1,161.2,95,161.9,114H94.1c1.1-31.9,10.5-52.9,18.5-65.1A78.5,78.5,0,0,1,128,31.4ZM157.8,126,128,179.6,98.2,126Zm-73.3,0,24.6,44.3L50,126Zm87,0H206l-59.1,44.3Zm-61-94.3C98.6,45.4,83.4,71.1,82.1,114H38.2A90.1,90.1,0,0,1,110.5,31.7Z"/></svg>