<svg xmlns="http://www.w3.org/2000/svg" viewBox="0 0 256 256"><path d="M46,56V200a6,6,0,0,1-12,0V56a6,6,0,0,1,12,0Zm86.6,56.4L110,119.7V96a6,6,0,0,0-12,0v23.7l-22.6-7.3a6,6,0,0,0-3.7,11.4l22.6,7.4-14,19.2a5.9,5.9,0,0,0,1.4,8.3,5.7,5.7,0,0,0,3.5,1.2,5.9,5.9,0,0,0,4.8-2.5l14-19.2,14,19.2a5.9,5.9,0,0,0,4.8,2.5,5.7,5.7,0,0,0,3.5-1.2,5.9,5.9,0,0,0,1.4-8.3l-14-19.2,22.6-7.4a6,6,0,0,0-3.7-11.4Zm103.5,3.9a6,6,0,0,0-7.5-3.9L206,119.7V96a6,6,0,0,0-12,0v23.7l-22.6-7.3a6,6,0,0,0-3.7,11.4l22.6,7.4-14,19.2a5.9,5.9,0,0,0,1.4,8.3,5.7,5.7,0,0,0,3.5,1.2,5.9,5.9,0,0,0,4.8-2.5l14-19.2,14,19.2a5.9,5.9,0,0,0,4.8,2.5,5.7,5.7,0,0,0,3.5-1.2,5.9,5.9,0,0,0,1.4-8.3l-14-19.2,22.6-7.4A5.9,5.9,0,0,0,236.1,116.3Z"/></svg>