<svg id="Flat" xmlns="http://www.w3.org/2000/svg" viewBox="0 0 256 256">
  <path d="M200,34H164a14.01572,14.01572,0,0,0-14,14V208a14.01572,14.01572,0,0,0,14,14h36a14.01572,14.01572,0,0,0,14-14V48A14.01572,14.01572,0,0,0,200,34Zm2,174a2.00229,2.00229,0,0,1-2,2H164a2.00229,2.00229,0,0,1-2-2V48a2.00229,2.00229,0,0,1,2-2h36a2.00229,2.00229,0,0,1,2,2ZM92,34H56A14.01572,14.01572,0,0,0,42,48V208a14.01572,14.01572,0,0,0,14,14H92a14.01572,14.01572,0,0,0,14-14V48A14.01572,14.01572,0,0,0,92,34Zm2,174a2.00229,2.00229,0,0,1-2,2H56a2.00229,2.00229,0,0,1-2-2V48a2.00229,2.00229,0,0,1,2-2H92a2.00229,2.00229,0,0,1,2,2Z"/>
</svg>
