<svg id="Flat" xmlns="http://www.w3.org/2000/svg" viewBox="0 0 256 256">
  <path d="M208,34H160a14.01572,14.01572,0,0,0-14,14V208a14.01572,14.01572,0,0,0,14,14h48a14.01572,14.01572,0,0,0,14-14V48A14.01572,14.01572,0,0,0,208,34Zm2,174a2.00229,2.00229,0,0,1-2,2H160a2.00229,2.00229,0,0,1-2-2V48a2.00229,2.00229,0,0,1,2-2h48a2.00229,2.00229,0,0,1,2,2ZM96,34H48A14.01572,14.01572,0,0,0,34,48V208a14.01572,14.01572,0,0,0,14,14H96a14.01572,14.01572,0,0,0,14-14V48A14.01572,14.01572,0,0,0,96,34Zm2,174a2.00229,2.00229,0,0,1-2,2H48a2.00229,2.00229,0,0,1-2-2V48a2.00229,2.00229,0,0,1,2-2H96a2.00229,2.00229,0,0,1,2,2Z"/>
</svg>
