<svg id="Flat" xmlns="http://www.w3.org/2000/svg" viewBox="0 0 256 256">
  <path d="M212,82a26,26,0,1,0,26,26A26.02916,26.02916,0,0,0,212,82Zm0,40a14,14,0,1,1,14-14A14.01572,14.01572,0,0,1,212,122ZM70,108a26,26,0,1,0-26,26A26.02916,26.02916,0,0,0,70,108ZM44,122a14,14,0,1,1,14-14A14.01572,14.01572,0,0,1,44,122ZM92,86A26,26,0,1,0,66,60,26.02916,26.02916,0,0,0,92,86Zm0-40A14,14,0,1,1,78,60,14.01572,14.01572,0,0,1,92,46Zm72,40a26,26,0,1,0-26-26A26.02916,26.02916,0,0,0,164,86Zm0-40a14,14,0,1,1-14,14A14.01572,14.01572,0,0,1,164,46Zm22.124,104.59473a37.31736,37.31736,0,0,1-17.79394-22.31641,41.99932,41.99932,0,0,0-80.66016-.00391A37.27685,37.27685,0,0,1,69.9043,150.5791a38.00714,38.00714,0,0,0,32.85937,68.44336,66.08828,66.08828,0,0,1,50.40528-.02783,38.00675,38.00675,0,0,0,32.95507-68.3999ZM168,210a25.9246,25.9246,0,0,1-10.21094-2.08008,78.09982,78.09982,0,0,0-59.64551.02783,26.0068,26.0068,0,0,1-22.46484-46.84912,49.25433,49.25433,0,0,0,23.5166-29.47558,29.99823,29.99823,0,0,1,57.61133.00195,49.24325,49.24325,0,0,0,23.51465,29.47363l.05371.0293A26.00373,26.00373,0,0,1,168,210Z"/>
</svg>
