<svg xmlns="http://www.w3.org/2000/svg" viewBox="0 0 256 256"><path d="M212,82a26,26,0,1,0,26,26A26.1,26.1,0,0,0,212,82Zm0,40a14,14,0,1,1,14-14A14,14,0,0,1,212,122ZM70,108a26,26,0,1,0-26,26A26.1,26.1,0,0,0,70,108ZM44,122a14,14,0,1,1,14-14A14,14,0,0,1,44,122ZM92,86A26,26,0,1,0,66,60,26.1,26.1,0,0,0,92,86Zm0-40A14,14,0,1,1,78,60,14,14,0,0,1,92,46Zm72,40a26,26,0,1,0-26-26A26.1,26.1,0,0,0,164,86Zm0-40a14,14,0,1,1-14,14A14,14,0,0,1,164,46Zm22.1,104.6a37.4,37.4,0,0,1-17.8-22.3,42,42,0,0,0-80.6,0,37.4,37.4,0,0,1-17.8,22.3A38,38,0,0,0,102.8,219a65.7,65.7,0,0,1,50.4,0,38,38,0,0,0,32.9-68.4ZM168,210a25.9,25.9,0,0,1-10.2-2.1A79.1,79.1,0,0,0,128,202a80,80,0,0,0-29.9,5.9A25,25,0,0,1,88,210a26,26,0,0,1-12.3-48.9,49.5,49.5,0,0,0,23.5-29.5,30,30,0,0,1,57.6,0,49.5,49.5,0,0,0,23.5,29.5h.1A26,26,0,0,1,168,210Z"/></svg>