<svg id="Flat" xmlns="http://www.w3.org/2000/svg" viewBox="0 0 256 256">
  <path d="M211.91553,185.91357a102,102,0,1,0-167.83106,0,6.04818,6.04818,0,0,0,.36182.59131c.11719.16724.24609.3208.37646.47241a101.91618,101.91618,0,0,0,166.355-.00048c.13038-.15137.25879-.30494.376-.47193A6.04818,6.04818,0,0,0,211.91553,185.91357ZM218,128a89.45424,89.45424,0,0,1-13.0166,46.57959L134,124.87646V38.20483A90.11309,90.11309,0,0,1,218,128ZM122,38.20483v86.67163L51.0166,174.57959A89.96177,89.96177,0,0,1,122,38.20483ZM57.918,184.397,122,139.52588v78.26929A89.90964,89.90964,0,0,1,57.918,184.397ZM134,217.79517V139.52588L198.082,184.397A89.90964,89.90964,0,0,1,134,217.79517Z"/>
</svg>
