<svg id="Flat" xmlns="http://www.w3.org/2000/svg" viewBox="0 0 256 256">
  <path d="M127.88745,78a34,34,0,1,0-34-34A34.03833,34.03833,0,0,0,127.88745,78Zm0-56a22,22,0,1,1-22,22A22.02489,22.02489,0,0,1,127.88745,22ZM210.157,140.82031l-39.39063-50.646a5.96568,5.96568,0,0,0-.49414-.55909A25.82841,25.82841,0,0,0,151.88745,82h-48a25.82845,25.82845,0,0,0-18.38477,7.61523,5.96568,5.96568,0,0,0-.49414.55909l-39.39062,50.646A18.00018,18.00018,0,0,0,71.06714,166.27L90.321,151.294,68.51635,220.16309a18.0005,18.0005,0,0,0,32.61915,15.20947l26.752-42.104,26.75195,42.104a18.00047,18.00047,0,0,0,32.61914-15.20947L165.45385,151.294,184.70776,166.27A18.00018,18.00018,0,0,0,210.157,140.82031Zm-8.77148,16.67725a6.009,6.009,0,0,1-8.48633,0,5.94971,5.94971,0,0,0-.5586-.49317L157.59448,129.979a5.99936,5.99936,0,0,0-9.40332,6.54688l27.7334,87.59424a5.85518,5.85518,0,0,0,.28222.72461,6.00054,6.00054,0,0,1-10.877,5.07129,6.02894,6.02894,0,0,0-.373-.68213l-32.00488-50.3711a6.0005,6.0005,0,0,0-10.1289,0l-32.00489,50.3711a6.03045,6.03045,0,0,0-.373.68213,6.00055,6.00055,0,0,1-10.877-5.07129,5.85682,5.85682,0,0,0,.28223-.72461l27.7334-87.59424a5.99937,5.99937,0,0,0-9.40332-6.54688l-34.7461,27.02539a5.9496,5.9496,0,0,0-.55859.49317,6.0004,6.0004,0,0,1-8.48633-8.48535,5.96441,5.96441,0,0,0,.49414-.55909L94.2312,97.8623A13.90608,13.90608,0,0,1,103.88745,94h48a13.90612,13.90612,0,0,1,9.65625,3.8623l39.34765,50.59082a5.96452,5.96452,0,0,0,.49415.55909,6.00136,6.00136,0,0,1,0,8.48535Z"/>
</svg>
