<svg id="Flat" xmlns="http://www.w3.org/2000/svg" viewBox="0 0 256 256">
  <path d="M218.667,96.49512a105.5961,105.5961,0,0,1-28.666-72.49463,5.99988,5.99988,0,0,0-6-6.00049H71.999a5.99988,5.99988,0,0,0-6,6.00049A105.57659,105.57659,0,0,1,37.19727,96.63916a6.00036,6.00036,0,0,0-.72852,7.27686l86.43359,139.248c.01392.02246.03138.042.04566.064a6.00968,6.00968,0,0,0,.37085.52c.01367.01709.02563.03564.03955.05273a6.08639,6.08639,0,0,0,.4668.50342c.04711.0459.09692.08789.1455.13232.125.11328.25391.22168.38819.32422.05468.042.10913.084.1654.124.16126.11474.32776.22216.50037.3208.02514.01464.04883.03125.07422.04541a5.95205,5.95205,0,0,0,.6383.3042c.036.01464.07312.02587.10938.04q.269.10327.54968.18116c.06165.01758.12341.03271.18567.04785.17065.0415.34412.07471.52.10156.06311.00928.12549.021.18909.02881A6.0672,6.0672,0,0,0,128,246h.00391l.01367-.001a6.02389,6.02389,0,0,0,.694-.04492c.06421-.00781.12707-.01953.19079-.0293.17578-.02636.34912-.05957.51954-.10156.062-.01513.12365-.03027.18505-.04736q.28308-.07837.554-.18359c.03491-.01319.07056-.02442.1051-.03858a5.94263,5.94263,0,0,0,.63831-.30469c.02746-.01562.0531-.0332.08032-.04882q.256-.14722.49487-.31836c.05615-.04.11048-.08155.16529-.12354q.20178-.15454.389-.32617c.04822-.04346.09754-.08545.14441-.13086a6.05112,6.05112,0,0,0,.46558-.50342c.017-.02051.03149-.04346.04809-.06445a6.02812,6.02812,0,0,0,.363-.50977c.01441-.023.03247-.04248.04663-.06543l86.29-139.40039A6.00036,6.00036,0,0,0,218.667,96.49512ZM128,130a18,18,0,1,1,18-18A18.02063,18.02063,0,0,1,128,130Zm6,88.90771V141.39648a30,30,0,1,0-12,0v77.55957L49.04785,101.42725A117.43377,117.43377,0,0,0,77.84863,30H178.15137a117.4486,117.4486,0,0,0,28.666,71.272Z"/>
</svg>
