<svg id="Flat" xmlns="http://www.w3.org/2000/svg" viewBox="0 0 256 256">
  <path d="M226.68652,88a13.90956,13.90956,0,0,0-4.10058-9.89941l-44.68653-44.687a14.01851,14.01851,0,0,0-19.79882.00049L38.09961,153.41455a13.95557,13.95557,0,0,0-3.13867,4.812c-.01233.02979-.02063.06055-.03247.09033A13.982,13.982,0,0,0,34,163.31348V208a14.01572,14.01572,0,0,0,14,14H92.68652a13.9783,13.9783,0,0,0,4.988-.92578c.03369-.01318.06787-.02246.10132-.03613a13.94593,13.94593,0,0,0,4.80908-3.13868L188.749,131.73584l4.60645,18.42383-37.59766,37.59765a5.99971,5.99971,0,1,0,8.48438,8.48536l40-40a5.99916,5.99916,0,0,0,1.5791-5.69776L198.645,121.83984,222.585,97.90039A13.91038,13.91038,0,0,0,226.68652,88ZM46,208V174.48535L81.51392,210H48A2.0026,2.0026,0,0,1,46,208Zm49.99976-.48535L48.48535,159.999,136,72.48486,183.51489,120ZM214.10059,89.41406l-22.10083,22.10059L144.48486,64,166.585,41.90039a2.004,2.004,0,0,1,2.83008-.001l44.68555,44.687a1.99869,1.99869,0,0,1,0,2.82763Z"/>
</svg>
