<svg id="Flat" xmlns="http://www.w3.org/2000/svg" viewBox="0 0 256 256">
  <path d="M217.959,103.73389A105.69487,105.69487,0,0,1,190,32a6.00029,6.00029,0,0,0-6-6H72a6.00029,6.00029,0,0,0-6,6,105.69518,105.69518,0,0,1-27.959,71.73438,6.00011,6.00011,0,0,0-.6211,7.32128l85.543,132.20411c.007.01074.01575.01953.02271.03027a5.98748,5.98748,0,0,0,.41223.55713c.028.0332.05871.063.08716.0957q.18108.20727.37951.397c.05274.0503.10681.09815.16126.14649q.18364.16332.38049.31006c.05151.03857.10181.07861.15466.11572a5.98381,5.98381,0,0,0,1.201.65185c.04615.01856.09326.0337.1399.05127q.25194.09449.514.16651c.0625.01709.12488.0332.188.04834.16748.04.33765.07178.51013.09717.06238.00927.12378.02148.18653.0288a5.58789,5.58789,0,0,0,1.39892,0c.06275-.00732.12415-.01953.18653-.0288.17248-.02539.34265-.05713.51013-.09717.06311-.01514.12549-.03125.188-.04834q.2622-.07178.514-.16651c.04664-.01757.09375-.03271.1399-.05127a5.98381,5.98381,0,0,0,1.201-.65185c.05285-.03711.10315-.07715.15466-.11572q.19665-.14723.38049-.31006c.05445-.04834.10852-.09619.16126-.14649q.199-.18969.37951-.397c.02845-.03271.05921-.0625.08716-.0957a5.98748,5.98748,0,0,0,.41223-.55713c.007-.01074.01575-.01953.02271-.03027l85.543-132.20459A6.00006,6.00006,0,0,0,217.959,103.73389ZM128,138a18,18,0,1,1,18-18A18.02063,18.02063,0,0,1,128,138Zm6,81.68262V149.39648a30,30,0,1,0-12,0v70.28614L49.9668,108.3584A117.58348,117.58348,0,0,0,77.84863,38H178.15137a117.57831,117.57831,0,0,0,27.88183,70.35742Z"/>
</svg>
