<svg id="Flat" xmlns="http://www.w3.org/2000/svg" viewBox="0 0 256 256">
  <path d="M216.77148,124.77637,190.00586,70.60156V32.00293a14.01572,14.01572,0,0,0-14-14h-96a14.01572,14.01572,0,0,0-14,14V70.60156L39.24023,124.77637a13.95043,13.95043,0,0,0,1.27686,14.501l82.65674,112.28223c.02441.0332.05346.062.07861.09424q.137.17871.28687.34521c.04907.05518.09741.11035.14843.16358.11451.11865.23511.23144.35914.34082.03833.03369.07421.07031.11352.103a5.9436,5.9436,0,0,0,.52222.39062c.02881.019.05908.03516.08789.05371.15454.09912.31347.1919.47729.27686.052.02685.10547.05078.15845.07666.145.06982.293.13476.44434.19287q.08971.03442.18042.06592.22448.07836.45654.13867c.062.01611.12329.0332.186.04785.1604.03613.32349.064.48829.08691.05786.0083.115.02.17334.02686a5.70589,5.70589,0,0,0,1.3413,0c.05835-.00684.11548-.01856.17334-.02686.1648-.023.32788-.05078.48828-.08691.06275-.01465.124-.03174.186-.04785q.23181-.06079.45654-.13867.09082-.0315.18042-.06592c.15137-.05811.29932-.12305.44434-.19287.053-.02588.10644-.04981.15845-.07666.16381-.085.32275-.17774.47729-.27686.02881-.01855.05908-.03467.08789-.05371a5.94509,5.94509,0,0,0,.52222-.39062c.03931-.03272.07519-.06934.11352-.103.124-.10938.24463-.22217.35913-.34082.051-.05323.09937-.1084.14844-.16358q.14979-.167.28687-.34521c.02514-.03223.0542-.061.07861-.09424l82.65576-112.28223A13.94875,13.94875,0,0,0,216.77148,124.77637ZM80.00586,30.00293h96a2.00229,2.00229,0,0,1,2,2v34h-100v-34A2.00229,2.00229,0,0,1,80.00586,30.00293Zm48,116a14,14,0,1,1,14-14A14.01572,14.01572,0,0,1,128.00586,146.00293Zm77.82422-13.83984-71.82422,97.56836V157.29639a26,26,0,1,0-12,0v72.43506L50.18164,132.16406a1.9924,1.9924,0,0,1-.1831-2.07129L75.73389,78.00293H180.27783l25.73487,52.08789A1.99389,1.99389,0,0,1,205.83008,132.16309Z"/>
</svg>
