<svg id="Flat" xmlns="http://www.w3.org/2000/svg" viewBox="0 0 256 256">
  <path d="M234.69238,104.00391a13.90673,13.90673,0,0,0-4.10058-9.89942L161.90527,25.418a14.00077,14.00077,0,0,0-19.79882-.001L116.68164,50.84131,58.22119,72.76465a14.04133,14.04133,0,0,0-8.89306,10.80664L26.0874,223.0166a5.99252,5.99252,0,0,0-.073.89795c-.001.06982.00171.13867.00318.2085a5.99374,5.99374,0,0,0,.09717,1.01318l.00439.02344a5.9737,5.9737,0,0,0,.2876.97021c.02734.07227.05322.14453.08349.21582a5.96727,5.96727,0,0,0,.46509.88428c.03833.05957.08081.11621.12134.17481a5.972,5.972,0,0,0,.68262.83593l.00439.00537.00611.00489a5.99067,5.99067,0,0,0,.92163.75293c.01806.01171.03686.021.05493.03271a6.00545,6.00545,0,0,0,.98242.5166c.02441.01026.04956.01709.074.02637a5.99666,5.99666,0,0,0,1.04517.31006c.01538.00293.03052.0039.04565.00683a5.9969,5.9969,0,0,0,1.11182.10645h.00049l.00317-.00049a5.86315,5.86315,0,0,0,.98316-.08154L172.438,206.68066a14.03793,14.03793,0,0,0,10.80713-8.89355l21.92212-58.46,25.42456-25.42481A13.90613,13.90613,0,0,0,234.69238,104.00391Zm-62.68359,89.57031a2.00674,2.00674,0,0,1-1.54346,1.27051L49.48438,215.00781,102.36182,162.124a26.02921,26.02921,0,1,0-8.48487-8.48486L41.00244,206.52,61.165,85.544A2.00709,2.00709,0,0,1,62.436,84l56.05908-21.02246,74.53613,74.53613ZM102,140a14,14,0,1,1,14,14A14.01572,14.01572,0,0,1,102,140Zm120.10645-34.583-22.10108,22.10059L128.49121,56.00342,150.5918,33.90234a2.00282,2.00282,0,0,1,2.82812,0l68.68653,68.68653A2.00193,2.00193,0,0,1,222.10645,105.417Z"/>
</svg>
