<svg xmlns="http://www.w3.org/2000/svg" viewBox="0 0 256 256"><path d="M226.7,88a14.1,14.1,0,0,0-4.1-9.9L177.9,33.4a14.1,14.1,0,0,0-19.8,0l-120,120a13.7,13.7,0,0,0-3.1,4.8h-.1a14.3,14.3,0,0,0-.9,5V208a14,14,0,0,0,14,14H92.7a14.3,14.3,0,0,0,5-.9h.1a13.7,13.7,0,0,0,4.8-3.1l86.1-86.2,4.7,18.5-37.6,37.6a5.9,5.9,0,1,0,8.4,8.4l40-40a5.9,5.9,0,0,0,1.6-5.7l-7.2-28.7,24-23.9A14.1,14.1,0,0,0,226.7,88ZM46,208V174.5L81.5,210H48A2,2,0,0,1,46,208Zm50-.5L48.5,160,136,72.5,183.5,120ZM214.1,89.4,192,111.5,144.5,64l22.1-22.1a1.9,1.9,0,0,1,2.8,0l44.7,44.7a1.9,1.9,0,0,1,0,2.8Z"/></svg>