<svg xmlns="http://www.w3.org/2000/svg" viewBox="0 0 256 256"><path d="M200.1,55.9A102,102,0,1,0,55.9,200.1,102,102,0,1,0,200.1,55.9ZM106,134h44l14.1,30.6A28.9,28.9,0,0,0,152,162a30,30,0,0,0-24,12,30,30,0,0,0-24-12,28.9,28.9,0,0,0-12.1,2.6Zm5.5-12L128,86.3,144.5,122ZM134,192a18,18,0,0,1,36,0v15.6a89.9,89.9,0,0,1-36,10.2Zm-48,0a18,18,0,0,1,36,0v25.8a89.9,89.9,0,0,1-36-10.2Zm105.6-.4A76,76,0,0,1,182,200V176a5.4,5.4,0,0,0-.6-2.5l-48-104a5.9,5.9,0,0,0-10.8,0l-48,104A5.4,5.4,0,0,0,74,176v24a76,76,0,0,1-9.6-8.4,90,90,0,1,1,127.2,0Z"/></svg>