<svg id="Flat" xmlns="http://www.w3.org/2000/svg" viewBox="0 0 256 256">
  <path d="M222.58594,78.10059l-44.68653-44.686a13.999,13.999,0,0,0-19.79882-.00049L131.75806,59.75684l-.00074.00048-.00048.00049L38.10107,153.41406a13.95736,13.95736,0,0,0-3.13989,4.812c-.01269.03077-.02124.0625-.03345.09327A13.977,13.977,0,0,0,34,163.31348V208a14.01572,14.01572,0,0,0,14,14H92.68652a13.98221,13.98221,0,0,0,5.04639-.94629l.0188-.00683a13.95543,13.95543,0,0,0,4.83423-3.14747l120-120A14.01585,14.01585,0,0,0,222.58594,78.10059ZM48,210a2.00229,2.00229,0,0,1-2-2V174.48535L81.51465,210Zm48-2.48535L48.48535,160,136,72.48535,183.51465,120ZM214.10059,89.41406,192,111.51465,144.48535,64l22.10059-22.10059a1.99928,1.99928,0,0,1,2.82812,0l44.68653,44.68653A2.00193,2.00193,0,0,1,214.10059,89.41406Z"/>
</svg>
