<svg id="Flat" xmlns="http://www.w3.org/2000/svg" viewBox="0 0 256 256">
  <path d="M200.125,55.876A101.99946,101.99946,0,1,0,55.875,200.124,101.99946,101.99946,0,1,0,200.125,55.876ZM109.68506,126h36.62988l16.71411,36.21338A21.90084,21.90084,0,0,0,144,168.92383a21.94879,21.94879,0,0,0-32,0,21.90084,21.90084,0,0,0-19.029-6.71045Zm5.53833-12L128,86.31738,140.77661,114ZM150,184a10,10,0,0,1,20,0v23.63818a88.878,88.878,0,0,1-20,7.66895Zm-64,0a10,10,0,0,1,20,0v31.30713a88.878,88.878,0,0,1-20-7.66895Zm32,33.43457V184a10,10,0,0,1,20,0v33.43457a88.711,88.711,0,0,1-20,0Zm73.63965-25.79492A91.2357,91.2357,0,0,1,182,200.00537V176a6.005,6.005,0,0,0-.55225-2.51465l-48-104a6.00021,6.00021,0,0,0-10.8955,0l-48,104A6.005,6.005,0,0,0,74,176v24.00537a91.2357,91.2357,0,0,1-9.63965-8.36572,90,90,0,1,1,127.2793,0Z"/>
</svg>
