<svg id="Flat" xmlns="http://www.w3.org/2000/svg" viewBox="0 0 256 256">
  <path d="M200.124,55.875A101.99946,101.99946,0,1,0,55.876,200.125,101.99946,101.99946,0,1,0,200.124,55.875ZM105.99292,134h44.01416l14.10645,30.56384A29.948,29.948,0,0,0,128,174.02087a29.948,29.948,0,0,0-36.11353-9.457Zm5.53833-12L128,86.31787,144.46875,122ZM134,192a18,18,0,0,1,36,0v15.63776A89.2738,89.2738,0,0,1,134,217.78Zm-48,0a18,18,0,0,1,36,0v25.78a89.2738,89.2738,0,0,1-36-10.14221Zm105.63965-.36035A91.29977,91.29977,0,0,1,182,200.00507V176a6.00654,6.00654,0,0,0-.55176-2.51416l-48-104a6.00062,6.00062,0,0,0-10.89648,0l-48,104A6.00654,6.00654,0,0,0,74,176v24.00507a91.29977,91.29977,0,0,1-9.63965-8.36542,90,90,0,1,1,127.2793,0Z"/>
</svg>
