<svg id="Flat" xmlns="http://www.w3.org/2000/svg" viewBox="0 0 256 256">
  <path d="M226.68652,88a13.90956,13.90956,0,0,0-4.10058-9.89941l-44.68653-44.687a14.01806,14.01806,0,0,0-19.79882.00049L38.09961,153.41455a13.956,13.956,0,0,0-3.13928,4.81348c-.01172.02881-.01966.05761-.03089.08642A13.97823,13.97823,0,0,0,34,163.31348V208a14.01572,14.01572,0,0,0,14,14H216a6,6,0,0,0,0-12H110.48486L222.585,97.8999A13.90841,13.90841,0,0,0,226.68652,88ZM48.48462,160,136,72.48486,183.515,120,96,207.51465ZM46,208V174.48486L81.51514,210H48A2.0026,2.0026,0,0,1,46,208ZM214.10059,89.41406l-22.10083,22.10108L144.48486,64,166.585,41.8999a2.00459,2.00459,0,0,1,2.83008-.00049l44.68555,44.687a1.99869,1.99869,0,0,1,0,2.82763Z"/>
</svg>
