<svg id="Flat" xmlns="http://www.w3.org/2000/svg" viewBox="0 0 256 256">
  <path d="M222.58594,78.10059,177.89941,33.41406a13.99961,13.99961,0,0,0-19.79882,0L131.75806,59.75684l-.00074.00048-.00073.001L38.10107,153.41406A13.90685,13.90685,0,0,0,34,163.31348V208a14.01572,14.01572,0,0,0,14,14H96a6.00057,6.00057,0,0,0,4.24268-1.75732L222.58594,97.89941A14.01585,14.01585,0,0,0,222.58594,78.10059ZM93.51465,210H48a2.00229,2.00229,0,0,1-2-2V163.31348a1.98635,1.98635,0,0,1,.58594-1.41407L136,72.48535,183.51465,120ZM214.10059,89.41406,192,111.51465,144.48535,64l22.10059-22.10059a1.99928,1.99928,0,0,1,2.82812,0l44.68653,44.68653A2.00193,2.00193,0,0,1,214.10059,89.41406Z"/>
</svg>
