<svg id="Flat" xmlns="http://www.w3.org/2000/svg" viewBox="0 0 256 256">
  <path d="M204.24268,60.24268l-144,144a6.00006,6.00006,0,0,1-8.48536-8.48536l144-144a6.00006,6.00006,0,0,1,8.48536,8.48536ZM51.9585,100.04175A34.03836,34.03836,0,1,1,76,109.98413,33.77741,33.77741,0,0,1,51.9585,100.04175ZM54,76a21.98277,21.98277,0,1,0,6.44385-15.5564A21.85614,21.85614,0,0,0,54,76ZM214,180a34,34,0,1,1-9.9585-24.04175A33.77725,33.77725,0,0,1,214,180Zm-12,0a21.85555,21.85555,0,0,0-6.44385-15.55615v-.00049A21.99963,21.99963,0,1,0,202,180Z"/>
</svg>
