<svg id="Flat" xmlns="http://www.w3.org/2000/svg" viewBox="0 0 256 256">
  <path d="M152,78a30,30,0,1,0-30-30A30.03406,30.03406,0,0,0,152,78Zm0-48a18,18,0,1,1-18,18A18.02063,18.02063,0,0,1,152,30Zm62,114a6.00029,6.00029,0,0,1-6,6c-34.59033,0-51.18457-17.82617-65.82568-33.55371-3.16162-3.39612-6.16895-6.60571-9.24659-9.53162l-15.95361,36.69287,38.51318,27.50965A6.0011,6.0011,0,0,1,158,176v56a6,6,0,0,1-12,0V179.08789l-33.91846-24.22742-34.5791,79.53211a6.00011,6.00011,0,0,1-11.00488-4.78516L104.04,143.2594l.01758-.04016L122.67676,100.396c-10.29981-3.51392-23.53516-.71-39.51514,8.40185a167.07954,167.07954,0,0,0-30.9209,23.44727,6.00005,6.00005,0,0,1-8.4834-8.48731c2.45264-2.4541,60.48877-59.69824,96.313-26.61523,3.76465,3.47656,7.38574,7.36621,10.88721,11.12793C164.564,122.88672,178.63379,138,208,138A6.00029,6.00029,0,0,1,214,144Z"/>
</svg>
