<svg id="Flat" xmlns="http://www.w3.org/2000/svg" viewBox="0 0 256 256">
  <path d="M152,86a30,30,0,1,0-30-30A30.03406,30.03406,0,0,0,152,86Zm0-48a18,18,0,1,1-18,18A18.02063,18.02063,0,0,1,152,38Zm67.17188,100.63733c-.11817.074-.23682.14722-.36084.213l-.02491.01489c-.59765.3125-7.2915,3.66309-19.17968,3.66407-13.80176.001-34.61231-4.52393-61.03125-23.54834a162.155,162.155,0,0,1-18.0879,38.50219c9.42872,2.7793,21.93409,7.71729,33.15137,16.25025C172.458,188.04785,182,207.65234,182,232a6,6,0,0,1-12,0c0-43.98657-37.2002-59.16235-56.8833-64.1062-16.27686,20.88757-39.9834,38.54565-72.43311,38.54565q-4.52636,0-9.28076-.46875a6,6,0,0,1,1.19434-11.94043c27.563,2.75,51.33984-8.36328,70.67285-33.05175q1.25171-1.59925,2.43506-3.2251c.03076-.04468.06445-.08692.09619-.13062a151.08394,151.08394,0,0,0,22.49853-46.34521c-40.84814-29.23694-67.12158-6.31787-68.25439-5.29614-.01562.014-.03369.02258-.04932.03637A5.99286,5.99286,0,0,1,50,101.551c0-.0846.00928-.16675.0127-.25049l.00146-.02564a6.01474,6.01474,0,0,1,.1499-1.0979l.01416-.05408a5.95618,5.95618,0,0,1,.34815-1.02124c.01416-.03161.03027-.06213.04492-.09362a5.99356,5.99356,0,0,1,.52734-.9104c.02637-.03736.05469-.073.082-.10987a6.03817,6.03817,0,0,1,.70606-.79712c.01611-.015.02637-.0332.043-.04809.37793-.34863,9.43457-8.582,24.93652-11.56543,13.77979-2.65161,35.57422-1.56067,61.603,18.31079a6.024,6.024,0,0,1,.50635.38647c.24072.18592.47949.36158.72168.55079,46.24707,36.18066,73.313,23.51171,73.58105,23.3789.07471-.03931.15137-.06933.227-.105.06445-.02954.12695-.06152.19238-.08874a5.9915,5.9915,0,0,1,5.86817,10.358c-.07715.057-.15186.1167-.23194.17016C219.28174,138.57349,219.22559,138.60388,219.17188,138.63733Z"/>
</svg>
