<svg xmlns="http://www.w3.org/2000/svg" viewBox="0 0 256 256"><path d="M152,78a30,30,0,1,0-30-30A30.1,30.1,0,0,0,152,78Zm0-48a18,18,0,1,1-18,18A18.1,18.1,0,0,1,152,30Zm62,114a6,6,0,0,1-6,6c-34.6,0-51.2-17.8-65.8-33.6-3.2-3.3-6.2-6.6-9.3-9.5L117,143.6l38.5,27.5A6,6,0,0,1,158,176v56a6,6,0,0,1-12,0V179.1l-33.9-24.2L77.5,234.4A6,6,0,0,1,72,238a6.9,6.9,0,0,1-2.4-.5,6.1,6.1,0,0,1-3.1-7.9L104,143.3h.1l18.6-42.8c-10.3-3.5-23.6-.7-39.5,8.4s-30.8,23.3-31,23.4a5.9,5.9,0,1,1-8.4-8.4c2.4-2.5,60.4-59.7,96.3-26.7,3.7,3.5,7.4,7.4,10.9,11.2,13.6,14.6,27.6,29.7,57,29.7A6,6,0,0,1,214,144Z"/></svg>