<svg xmlns="http://www.w3.org/2000/svg" viewBox="0 0 256 256"><path d="M152,86a30,30,0,1,0-30-30A30.1,30.1,0,0,0,152,86Zm0-48a18,18,0,1,1-18,18A18.1,18.1,0,0,1,152,38Zm67.2,100.6-.4.3h0c-.6.3-7.3,3.6-19.2,3.6-13.8,0-34.6-4.5-61-23.5a166.5,166.5,0,0,1-18.1,38.5c9.4,2.8,21.9,7.7,33.1,16.2C172.5,188,182,207.7,182,232a6,6,0,0,1-12,0c0-44-37.2-59.2-56.9-64.1-16.3,20.9-40,38.5-72.4,38.5-3,0-6.1-.1-9.3-.4a6,6,0,1,1,1.2-12c27.6,2.8,51.3-8.3,70.7-33l2.4-3.2c0-.1.1-.1.1-.2a150.1,150.1,0,0,0,22.5-46.3C87.5,82,61.2,105,60,106h0a5.9,5.9,0,0,1-4,1.6,6,6,0,0,1-6-6v-.3h0a3.6,3.6,0,0,1,.2-1.1h0l.3-1h.1a4.1,4.1,0,0,1,.5-.9h.1a2.7,2.7,0,0,1,.7-.8h0a55.7,55.7,0,0,1,25-11.5c13.7-2.7,35.5-1.6,61.6,18.3l.5.4.7.5c46.2,36.2,73.3,23.5,73.6,23.4h.4a6,6,0,0,1,7.6,2.7,6.2,6.2,0,0,1-1.7,7.7h-.4Z"/></svg>