<svg xmlns="http://www.w3.org/2000/svg" viewBox="0 0 256 256"><path d="M128,78A34,34,0,1,0,94,44,34.1,34.1,0,0,0,128,78Zm0-56a22,22,0,1,1-22,22A22.1,22.1,0,0,1,128,22Zm82.3,118.8L170.9,90.2l-.5-.6A26,26,0,0,0,152,82H104a26,26,0,0,0-18.4,7.6l-.5.6L45.7,140.8a18,18,0,0,0,25.5,25.5l19.2-15L68.6,220.2a18,18,0,0,0-.4,13.3,17.7,17.7,0,0,0,9.3,10.2,18.3,18.3,0,0,0,13.8.6,17.7,17.7,0,0,0,9.9-8.9L128,193.3l26.8,42.1a17.7,17.7,0,0,0,9.9,8.9,18.8,18.8,0,0,0,6.2,1.1,18.3,18.3,0,0,0,7.6-1.7,17.7,17.7,0,0,0,9.3-10.2,18,18,0,0,0-.4-13.3l-21.8-68.9,19.2,15a18,18,0,0,0,25.5-25.5Zm-8.8,16.7a6.1,6.1,0,0,1-8.5,0l-.5-.5-34.8-27a6,6,0,0,0-7.1-.2,5.9,5.9,0,0,0-2.3,6.7L176,224.1l.3.7a5.7,5.7,0,0,1,.2,4.6,5.8,5.8,0,0,1-3.1,3.4,5.7,5.7,0,0,1-4.6.2,5.8,5.8,0,0,1-3.4-3.1l-.3-.7-32-50.3a6,6,0,0,0-10.2,0l-32,50.3-.3.7a5.8,5.8,0,0,1-3.4,3.1,5.7,5.7,0,0,1-4.6-.2,5.8,5.8,0,0,1-3.1-3.4,5.7,5.7,0,0,1,.2-4.6l.3-.7,27.7-87.6a5.9,5.9,0,0,0-2.3-6.7,6,6,0,0,0-7.1.2L63.5,157l-.5.5a6.1,6.1,0,0,1-8.5,0,6,6,0,0,1-1.8-4.2,6.2,6.2,0,0,1,1.8-4.3l.5-.5L94.3,97.9A14.2,14.2,0,0,1,104,94h48a14.2,14.2,0,0,1,9.7,3.9L201,148.5l.5.5a6.2,6.2,0,0,1,1.8,4.3A6,6,0,0,1,201.5,157.5Z"/></svg>