<svg id="Flat" xmlns="http://www.w3.org/2000/svg" viewBox="0 0 256 256">
  <path d="M127.8877,78a30,30,0,1,0-30-30A30.03406,30.03406,0,0,0,127.8877,78Zm0-48a18,18,0,1,1-18,18A18.02094,18.02094,0,0,1,127.8877,30ZM229.145,131.08691a5.99646,5.99646,0,0,1-8.23193,2.05762c-.36768-.21893-36.49073-21.43432-86.91309-23.03863v39.61273l62.48438,70.295a6,6,0,0,1-8.96876,7.97266L128,161.03125,68.48438,227.98633a6,6,0,0,1-8.96876-7.97266L122,149.71863V110.1059c-50.42236,1.60431-86.54541,22.81982-86.91846,23.04254a5.9999,5.9999,0,0,1-6.16845-10.293C30.60449,121.83984,70.99365,98,128,98s97.39551,23.83984,99.08691,24.85547A5.9992,5.9992,0,0,1,229.145,131.08691Z"/>
</svg>
