<svg id="Flat" xmlns="http://www.w3.org/2000/svg" viewBox="0 0 256 256">
  <path d="M176,222C97.70117,222,34,158.29883,34,80A54.06881,54.06881,0,0,1,81.1709,26.42773a14.0284,14.0284,0,0,1,14.56348,8.3877L115.8252,81.69336A13.97116,13.97116,0,0,1,114.6709,94.876L98.03516,120.29492a1.92572,1.92572,0,0,0-.167,1.88672v.001a78.53419,78.53419,0,0,0,36.26954,36.10547,1.92523,1.92523,0,0,0,1.8916-.18164l25.03515-16.69434a13.95374,13.95374,0,0,1,13.28223-1.21973l46.83691,20.07324a14.0264,14.0264,0,0,1,8.38868,14.56348A54.06881,54.06881,0,0,1,176,222ZM82.90234,38.31934a1.7927,1.7927,0,0,0-.22754.01464A42.04507,42.04507,0,0,0,46,80,130.14675,130.14675,0,0,0,176,210a42.04507,42.04507,0,0,0,41.666-36.6748,1.97274,1.97274,0,0,0-1.21-2.03028l-46.83593-20.07324a2.00153,2.00153,0,0,0-1.89844.1748L142.6875,168.09082a13.96818,13.96818,0,0,1-13.7666,1.00391A90.591,90.591,0,0,1,87.085,127.44824a13.98163,13.98163,0,0,1,.90918-13.72461l16.63574-25.41992a1.99737,1.99737,0,0,0,.165-1.88476L84.70508,39.543A1.99164,1.99164,0,0,0,82.90234,38.31934Z"/>
</svg>
