<svg id="Flat" xmlns="http://www.w3.org/2000/svg" viewBox="0 0 256 256">
  <path d="M88.28076,75.38965c-.02344-.02686-.04736-.05274-.07178-.0791L52.43945,35.96387a5.99992,5.99992,0,0,0-8.8789,8.07226l29.855,32.84033a140.68515,140.68515,0,0,0-45.82569,30.71436,54.068,54.068,0,0,0-4.52441,71.23633A14.03013,14.03013,0,0,0,39.294,183.19434l47.31347-18.92579a13.9576,13.9576,0,0,0,8.52832-10.25488l5.89746-29.50488a1.92782,1.92782,0,0,1,1.21-1.46777,78.11073,78.11073,0,0,1,10.542-2.85743l90.77539,99.85254a5.99992,5.99992,0,0,0,8.8789-8.07226ZM98.291,111.71094a13.97345,13.97345,0,0,0-9.0254,10.44433l-5.89746,29.50586a1.99367,1.99367,0,0,1-1.21875,1.46582l-47.3125,18.92578a1.9747,1.9747,0,0,1-2.29-.58105,42.045,42.045,0,0,1,3.52832-55.39551A128.71972,128.71972,0,0,1,82.03857,86.36182l21.5503,23.70556C101.80566,110.56836,100.03369,111.103,98.291,111.71094Zm134.64453,67.11621a14.02794,14.02794,0,0,1-16.2295,4.36621l-4.0498-1.62012a5.99991,5.99991,0,1,1,4.459-11.14062l4.04883,1.62011a1.97232,1.97232,0,0,0,2.29-.58105,42.04648,42.04648,0,0,0-3.53027-55.39648,130.209,130.209,0,0,0-99.07031-37.87989,6.00019,6.00019,0,1,1-.65625-11.98242,142.201,142.201,0,0,1,108.21191,41.37695A54.06955,54.06955,0,0,1,232.93555,178.82715Z"/>
</svg>
