<svg id="Flat" xmlns="http://www.w3.org/2000/svg" viewBox="0 0 256 256">
  <path d="M228.40918,91.59082c-55.36523-55.36523-145.45215-55.36523-200.81934,0a54.068,54.068,0,0,0-4.52441,71.23633A14.03013,14.03013,0,0,0,39.294,167.19434l47.31347-18.92579a13.9576,13.9576,0,0,0,8.52832-10.25488l5.89746-29.50488a1.92782,1.92782,0,0,1,1.21-1.46777,78.528,78.528,0,0,1,51.17774-.11622l.001.001a1.92632,1.92632,0,0,1,1.21484,1.45215l6.21094,29.73926a13.97025,13.97025,0,0,0,8.50488,10.13574l47.35351,18.94043a14.02946,14.02946,0,0,0,16.2295-4.36621A54.06819,54.06819,0,0,0,228.40918,91.59082Zm-4.95508,63.88086a1.97229,1.97229,0,0,1-2.291.58008l-47.3545-18.94141a1.99556,1.99556,0,0,1-1.21484-1.44726l-6.21094-29.73731a13.97711,13.97711,0,0,0-9.06152-10.34863,90.56953,90.56953,0,0,0-59.03027.13379,13.97345,13.97345,0,0,0-9.0254,10.44433l-5.89746,29.50586a1.99367,1.99367,0,0,1-1.21875,1.46582l-47.3125,18.92578a1.97185,1.97185,0,0,1-2.29-.58105A42.0463,42.0463,0,0,1,36.0752,100.0752a130.14974,130.14974,0,0,1,183.84863,0A42.04648,42.04648,0,0,1,223.4541,155.47168ZM222,200a6.00029,6.00029,0,0,1-6,6H40a6,6,0,0,1,0-12H216A6.00029,6.00029,0,0,1,222,200Z"/>
</svg>
