<svg id="Flat" xmlns="http://www.w3.org/2000/svg" viewBox="0 0 256 256">
  <path d="M221.18359,160.26562l-46.83691-20.07324a13.9511,13.9511,0,0,0-13.28223,1.21973L136.0293,158.10645a1.92282,1.92282,0,0,1-1.8916.18164,78.53419,78.53419,0,0,1-36.26954-36.10547v-.001a1.92572,1.92572,0,0,1,.167-1.88672L114.6709,94.876a13.97116,13.97116,0,0,0,1.1543-13.18262L95.73438,34.81543a14.03735,14.03735,0,0,0-14.56348-8.3877A54.06881,54.06881,0,0,0,34,80c0,78.29883,63.70117,142,142,142a54.06881,54.06881,0,0,0,53.57227-47.1709A14.0264,14.0264,0,0,0,221.18359,160.26562ZM176,210A130.14675,130.14675,0,0,1,46,80,42.04507,42.04507,0,0,1,82.6748,38.334a1.7927,1.7927,0,0,1,.22754-.01464A1.99164,1.99164,0,0,1,84.70508,39.543l20.08984,46.876a1.99737,1.99737,0,0,1-.165,1.88476L87.99414,113.72363a13.98163,13.98163,0,0,0-.90918,13.72461,90.591,90.591,0,0,0,41.83594,41.64649,13.96576,13.96576,0,0,0,13.7666-1.00391l25.03418-16.69434a1.99625,1.99625,0,0,1,1.89844-.1748l46.83593,20.07324a1.97274,1.97274,0,0,1,1.21,2.03028A42.04507,42.04507,0,0,1,176,210ZM155.75781,91.75781,175.51562,72,155.75781,52.24219a5.99936,5.99936,0,0,1,8.48438-8.48438L184,63.51562l19.75781-19.75781a5.99936,5.99936,0,0,1,8.48438,8.48438L192.48438,72l19.75781,19.75781a5.99936,5.99936,0,1,1-8.48438,8.48438L184,80.48438l-19.75781,19.75781a5.99936,5.99936,0,0,1-8.48438-8.48438Z"/>
</svg>
