<svg xmlns="http://www.w3.org/2000/svg" viewBox="0 0 256 256"><path d="M228.4,91.6a142.1,142.1,0,0,0-200.8,0,54,54,0,0,0-4.5,71.2,13.9,13.9,0,0,0,16.2,4.4l47.3-18.9A13.9,13.9,0,0,0,95.1,138l5.9-29.5a2.3,2.3,0,0,1,1.2-1.5,78.8,78.8,0,0,1,51.2-.1h0a1.9,1.9,0,0,1,1.2,1.5l6.2,29.7a14.3,14.3,0,0,0,8.6,10.2l47.3,18.9a14,14,0,0,0,16.2-4.4A54,54,0,0,0,228.4,91.6Zm-4.9,63.9a2.2,2.2,0,0,1-2.3.6l-47.4-19a1.9,1.9,0,0,1-1.2-1.4l-6.2-29.8a14,14,0,0,0-9.1-10.3,90.4,90.4,0,0,0-59,.1,13.8,13.8,0,0,0-9,10.5l-5.9,29.5a2,2,0,0,1-1.3,1.4l-47.3,19a2.2,2.2,0,0,1-2.3-.6,42,42,0,0,1,3.6-55.4,130.1,130.1,0,0,1,183.8,0A42,42,0,0,1,223.5,155.5ZM222,200a6,6,0,0,1-6,6H40a6,6,0,0,1,0-12H216A6,6,0,0,1,222,200Z"/></svg>