<svg xmlns="http://www.w3.org/2000/svg" viewBox="0 0 256 256"><path d="M221.2,160.3l-46.9-20.1a13.8,13.8,0,0,0-13.2,1.2L136,158.1a1.9,1.9,0,0,1-1.9.2,78.2,78.2,0,0,1-36.2-36.1h0a2.1,2.1,0,0,1,.1-1.9l16.7-25.4a14.1,14.1,0,0,0,1.1-13.2L95.7,34.8a14,14,0,0,0-14.5-8.4A54.1,54.1,0,0,0,34,80c0,78.3,63.7,142,142,142a54.1,54.1,0,0,0,53.6-47.2A14,14,0,0,0,221.2,160.3ZM176,210A130.1,130.1,0,0,1,46,80,42.2,42.2,0,0,1,82.7,38.3h.2a2,2,0,0,1,1.8,1.2l20.1,46.9a1.9,1.9,0,0,1-.2,1.9L88,113.7a14,14,0,0,0-.9,13.7,90.8,90.8,0,0,0,41.8,41.7,14.2,14.2,0,0,0,13.8-1l25-16.7a2.1,2.1,0,0,1,1.9-.2l46.9,20.1a2,2,0,0,1,1.2,2A42.2,42.2,0,0,1,176,210ZM155.8,91.8,175.5,72,155.8,52.2a5.9,5.9,0,0,1,8.4-8.4L184,63.5l19.8-19.7a5.9,5.9,0,0,1,8.4,8.4L192.5,72l19.7,19.8a5.9,5.9,0,1,1-8.4,8.4L184,80.5l-19.8,19.7a5.9,5.9,0,0,1-8.4-8.4Z"/></svg>