<svg id="Flat" xmlns="http://www.w3.org/2000/svg" viewBox="0 0 256 256">
  <path d="M153.62012,38.45117a6.00483,6.00483,0,0,1,7.3457-4.248,86.16039,86.16039,0,0,1,60.83106,60.83106,6.00022,6.00022,0,1,1-11.59376,3.09766,74.12757,74.12757,0,0,0-52.335-52.335A6.00032,6.00032,0,0,1,153.62012,38.45117ZM149.584,76.71387A42.0663,42.0663,0,0,1,179.28613,106.416a6.00022,6.00022,0,0,0,11.59375-3.09766,54.10244,54.10244,0,0,0-38.19824-38.19824A6.00022,6.00022,0,0,0,149.584,76.71387Zm79.98829,98.11523A54.06881,54.06881,0,0,1,176,222C97.70117,222,34,158.29883,34,80A54.06881,54.06881,0,0,1,81.1709,26.42773a14.0284,14.0284,0,0,1,14.56348,8.3877L115.8252,81.69336A13.97116,13.97116,0,0,1,114.6709,94.876L98.03516,120.29492a1.92572,1.92572,0,0,0-.167,1.88672v.001a78.53419,78.53419,0,0,0,36.26954,36.10547,1.92279,1.92279,0,0,0,1.8916-.18164l25.03515-16.69434a13.95374,13.95374,0,0,1,13.28223-1.21973l46.83691,20.07324A14.0264,14.0264,0,0,1,229.57227,174.8291ZM217.666,173.3252a1.97274,1.97274,0,0,0-1.21-2.03028l-46.83593-20.07324a2.0042,2.0042,0,0,0-1.89844.1748L142.6875,168.09082a13.96574,13.96574,0,0,1-13.7666,1.00391A90.591,90.591,0,0,1,87.085,127.44824a13.98163,13.98163,0,0,1,.90918-13.72461l16.63574-25.41992a1.99737,1.99737,0,0,0,.165-1.88476L84.70508,39.543a1.99164,1.99164,0,0,0-1.80274-1.22363,1.7927,1.7927,0,0,0-.22754.01464A42.04507,42.04507,0,0,0,46,80,130.14675,130.14675,0,0,0,176,210,42.04507,42.04507,0,0,0,217.666,173.3252Z"/>
</svg>
