<svg id="Flat" xmlns="http://www.w3.org/2000/svg" viewBox="0 0 256 256">
  <path d="M221.18359,160.26562l-46.83691-20.07324a13.95113,13.95113,0,0,0-13.28223,1.21973L136.0293,158.10645a1.92038,1.92038,0,0,1-1.8916.18164,78.53419,78.53419,0,0,1-36.26954-36.10547v-.001a1.92572,1.92572,0,0,1,.167-1.88672L114.6709,94.876a13.97116,13.97116,0,0,0,1.1543-13.18262L95.73438,34.81543a14.03606,14.03606,0,0,0-14.56348-8.3877A54.06881,54.06881,0,0,0,34,80c0,78.29883,63.70117,142,142,142a54.06881,54.06881,0,0,0,53.57227-47.1709A14.0264,14.0264,0,0,0,221.18359,160.26562ZM176,210A130.14675,130.14675,0,0,1,46,80,42.04507,42.04507,0,0,1,82.6748,38.334a1.7927,1.7927,0,0,1,.22754-.01464A1.99164,1.99164,0,0,1,84.70508,39.543l20.08984,46.876a1.99737,1.99737,0,0,1-.165,1.88476L87.99414,113.72363a13.98163,13.98163,0,0,0-.90918,13.72461,90.591,90.591,0,0,0,41.83594,41.64649,13.96818,13.96818,0,0,0,13.7666-1.00391l25.03418-16.69434a2.00153,2.00153,0,0,1,1.89844-.1748l46.83593,20.07324a1.97274,1.97274,0,0,1,1.21,2.03028A42.04507,42.04507,0,0,1,176,210ZM154.106,97.104A6.00553,6.00553,0,0,1,154,96V56a6,6,0,0,1,12,0V81.51562l37.75781-37.75781a5.99936,5.99936,0,0,1,8.48438,8.48438L174.48438,90H200a6,6,0,0,1,0,12H160a5.99738,5.99738,0,0,1-1.104-.106c-.01954-.00342-.03907-.00488-.05811-.00879a5.9449,5.9449,0,0,1-1.043-.30908c-.0249-.00976-.05029-.01758-.07519-.02783a5.9364,5.9364,0,0,1-.97608-.51367c-.02051-.01319-.042-.02393-.062-.0376a6.0223,6.0223,0,0,1-1.6792-1.6792c-.01318-.01953-.02392-.04053-.03662-.06006a6.01261,6.01261,0,0,1-.51465-.97754c-.00976-.0249-.01758-.0498-.02734-.0747a5.938,5.938,0,0,1-.30908-1.04346C154.11084,97.14307,154.10938,97.12354,154.106,97.104Z"/>
</svg>
