<svg xmlns="http://www.w3.org/2000/svg" viewBox="0 0 256 256"><path d="M176,222C97.7,222,34,158.3,34,80A54.1,54.1,0,0,1,81.2,26.4a14,14,0,0,1,14.5,8.4l20.1,46.9a14.1,14.1,0,0,1-1.1,13.2L98,120.3a2.1,2.1,0,0,0-.1,1.9h0a78.2,78.2,0,0,0,36.2,36.1,1.9,1.9,0,0,0,1.9-.2l25.1-16.7a13.8,13.8,0,0,1,13.2-1.2l46.9,20.1a14,14,0,0,1,8.4,14.5A54.1,54.1,0,0,1,176,222ZM82.9,38.3h-.2A42.2,42.2,0,0,0,46,80,130.1,130.1,0,0,0,176,210a42.2,42.2,0,0,0,41.7-36.7,2,2,0,0,0-1.2-2l-46.9-20.1a2.1,2.1,0,0,0-1.9.2l-25,16.7a14.2,14.2,0,0,1-13.8,1,90.8,90.8,0,0,1-41.8-41.7,14,14,0,0,1,.9-13.7l16.6-25.4a1.9,1.9,0,0,0,.2-1.9L84.7,39.5A2,2,0,0,0,82.9,38.3Z"/></svg>