<svg id="Flat" xmlns="http://www.w3.org/2000/svg" viewBox="0 0 256 256.00004">
  <path d="M142,26H68c-.04688,0-.09229.00592-.13916.007-.12793.00287-.25586.00824-.38428.01941-.07861.00684-.15625.01672-.23388.02655-.11377.01447-.22706.03076-.34082.05194-.09327.01727-.18555.03809-.27735.05969-.09424.02228-.188.04548-.28174.07251-.10791.031-.21338.06611-.31884.10285-.07764.0271-.15479.0542-.23145.08472-.11621.046-.22949.097-.3418.15-.04443.02081-.08984.03662-.13379.05865-.02441.01209-.04589.027-.06982.03943-.10742.05561-.21143.116-.31494.17774-.07227.04309-.145.0852-.21533.13086-.083.05438-.16211.113-.24219.17132-.084.06079-.168.12073-.248.18524-.05957.04828-.11572.10016-.17334.15064-.09131.07977-.18261.15912-.26806.24365-.04541.045-.08789.09338-.13184.13989-.08887.09345-.17725.18689-.25928.28528-.04443.05322-.085.10986-.12744.16461-.07373.09528-.14844.18994-.21631.28919-.05078.07409-.09619.15185-.14355.22827-.05176.08386-.106.1665-.15332.25262-.05469.09851-.10254.20081-.15186.30268-.0332.069-.06933.13678-.09961.207-.04883.11145-.09033.22632-.13232.34118-.02442.06672-.05127.13233-.07324.19983-.03516.10913-.064.22083-.09327.33258-.021.07923-.04345.15778-.06152.23792-.021.09637-.03613.19458-.05273.2926-.01709.1015-.03418.2027-.04639.30518-.00928.08-.01416.16107-.02.242-.00928.123-.0166.24579-.01855.36951C62.00342,31.94859,62,31.97386,62,32V164a72.08124,72.08124,0,0,0,72,72,6.00029,6.00029,0,0,0,6-6V170h2a72,72,0,0,0,0-144ZM74,57.4163,124.292,158H74Zm54,81.16748L77.708,38H128ZM74.30322,170H128v53.70215A60.10821,60.10821,0,0,1,74.30322,170ZM142,158h-2V38h2a60,60,0,0,1,0,120Z"/>
</svg>
