<svg id="Flat" xmlns="http://www.w3.org/2000/svg" viewBox="0 0 256 256">
  <path d="M212.24268,43.75732a51.25491,51.25491,0,0,0-72.48536,0l-96,96a51.25489,51.25489,0,0,0,72.48536,72.48536l96-96A51.31367,51.31367,0,0,0,212.24268,43.75732Zm-104.48536,160a39.25478,39.25478,0,0,1-55.51464-55.51464L96,104.48535,151.51465,160Zm96-96L160,151.51465,104.48535,96l43.75733-43.75732a39.25478,39.25478,0,0,1,55.51464,55.51464ZM188.80078,84.31689a5.99989,5.99989,0,0,1-.147,8.48389l-24.416,23.584a5.99991,5.99991,0,0,1-8.33691-8.63086l24.416-23.584A5.99945,5.99945,0,0,1,188.80078,84.31689Z"/>
</svg>
