<svg id="Flat" xmlns="http://www.w3.org/2000/svg" viewBox="0 0 256 256">
  <path d="M214,112c0,22.04785-7.69775,42.19434-21.67578,56.72754C179.32275,182.24612,161.709,190,144,190c-19.42188,0-31.54736-7.07422-38.62744-13.63672L93.84033,225.374a5.99978,5.99978,0,1,1-11.68066-2.748l32-136a5.99978,5.99978,0,1,1,11.68066,2.748L108.74658,162.023C111.55322,166.35549,121.21484,178,144,178c28.51025,0,58-24.6875,58-66A74,74,0,1,0,66.52539,153.208a6.00011,6.00011,0,0,1-9.96143,6.69141A86.00356,86.00356,0,1,1,214,112Z"/>
</svg>
