<svg xmlns="http://www.w3.org/2000/svg" viewBox="0 0 256 256"><path d="M228.2,219.8l-50.8-50.9a48.4,48.4,0,0,0,6.5-1.9,58.2,58.2,0,0,0,34.7-74.4,6.5,6.5,0,0,0-3.1-3.4,6.6,6.6,0,0,0-4.6-.2l-49.5,18.1a61.9,61.9,0,0,0,3.6-6.7,58,58,0,0,0-72.4-79,6.5,6.5,0,0,0-3.4,3.1,6.6,6.6,0,0,0-.2,4.6l18.1,49.5a61.9,61.9,0,0,0-6.7-3.6,58,58,0,0,0-79,72.4,6.5,6.5,0,0,0,3.1,3.4,7.5,7.5,0,0,0,2.6.5l2-.3,49.5-18.1a61.9,61.9,0,0,0-3.6,6.7,58.1,58.1,0,0,0,52.5,82.5,59.6,59.6,0,0,0,19.9-3.5,6.5,6.5,0,0,0,3.4-3.1,6.6,6.6,0,0,0,.2-4.6l-18.1-49.5a61.9,61.9,0,0,0,6.7,3.6,55,55,0,0,0,22.4,5.4l57.8,57.8a5.9,5.9,0,0,0,8.4-8.4ZM131.9,34.2a45.9,45.9,0,0,1,1.8,82.5L102.5,31A45.9,45.9,0,0,1,131.9,34.2ZM34.2,108.1a45.8,45.8,0,0,1,26-23.8,44.8,44.8,0,0,1,15.7-2.8,47.3,47.3,0,0,1,19.5,4.3,45.5,45.5,0,0,1,21.3,20.5L31,137.5A45.9,45.9,0,0,1,34.2,108.1Zm73.9,97.7a45.9,45.9,0,0,1-1.8-82.5L137.5,209A45.9,45.9,0,0,1,108.1,205.8Zm9.3-87,3.8-1.4,1.4,3.8-3.8,1.4Zm5.9,14.9L209,102.5a46,46,0,0,1-29.2,53.2,47.5,47.5,0,0,1-15.3,2.8h-.1a47.4,47.4,0,0,1-19.8-4.3A45.5,45.5,0,0,1,123.3,133.7Z"/></svg>