<svg id="Flat" xmlns="http://www.w3.org/2000/svg" viewBox="0 0 256 256">
  <path d="M237.62158,78.91357a14.03806,14.03806,0,0,0-3.69922-18.93164,182.072,182.072,0,0,0-211.84472,0,14.03641,14.03641,0,0,0-3.69873,18.93164h-.00049l97.81006,153.70166a14.0003,14.0003,0,0,0,23.623,0l58.40088-91.77294c.01709-.02686.03418-.053.05078-.07959ZM29.06934,69.73486a170.07128,170.07128,0,0,1,197.86132,0,2.03417,2.03417,0,0,1,.5669,2.73633l-9.75635,15.33106a150.01651,150.01651,0,0,0-179.48242,0L28.50244,72.47119A2.03417,2.03417,0,0,1,29.06934,69.73486Zm35.65722,59.65992a21.9983,21.9983,0,1,1,20.71533,32.55273Zm64.96094,96.77807a2.0003,2.0003,0,0,1-3.375,0L92.437,172.93945a34.00431,34.00431,0,1,0-34.7124-54.5476L44.72217,97.959a138.0035,138.0035,0,0,1,166.55566.00025l-19.39306,30.47436a33.99223,33.99223,0,1,0-36.43653,57.2583Zm32.22363-50.63721a21.991,21.991,0,1,1,23.51612-36.95385Z"/>
</svg>
