<svg xmlns="http://www.w3.org/2000/svg" viewBox="0 0 256 256"><path d="M244,61c-7.2-12.6-27.9-15.1-58.5-7.3A93.9,93.9,0,0,0,34,128a89.3,89.3,0,0,0,.9,12.7C12.8,163.2,4.7,182.4,12,195c4.5,7.8,14,11.8,27.9,11.8a118.8,118.8,0,0,0,25.2-3.2l5.4-1.3A93.9,93.9,0,0,0,222,128a89.3,89.3,0,0,0-.9-12.7l3.8-4C244.3,90.3,250.9,72.9,244,61ZM128,46a82.2,82.2,0,0,1,80.3,65.2c-16.4,15.7-38.4,31.9-63.3,46.2s-49.8,25.4-71.6,31.7A81.9,81.9,0,0,1,128,46ZM22.3,189c-4.2-7.3,4.7-21.5,15.7-34a93.5,93.5,0,0,0,21.7,37.5C36.5,197.3,25.2,193.9,22.3,189ZM128,210a81.7,81.7,0,0,1-42.7-12c20.5-6.8,43.2-17.2,65.7-30.2s42.8-27.4,58.9-41.8a12.7,12.7,0,0,1,.1,2A82.1,82.1,0,0,1,128,210ZM196.3,63.5c23.1-4.7,34.5-1.4,37.4,3.5s0,16.3-15.6,34A93.7,93.7,0,0,0,196.3,63.5Z"/></svg>