<svg id="Flat" xmlns="http://www.w3.org/2000/svg" viewBox="0 0 256 256">
  <path d="M244.04736,61c-7.2539-12.56348-27.98779-15.12793-58.53613-7.3A93.97708,93.97708,0,0,0,34.86035,140.69409C12.8374,163.22192,4.70361,182.44458,11.95264,195c4.523,7.834,14.04394,11.79785,27.9956,11.79785a116.714,116.714,0,0,0,25.124-3.19336c1.77636-.39868,3.58544-.84082,5.41211-1.3081a93.97679,93.97679,0,0,0,150.65429-86.99732c1.30469-1.3352,2.57862-2.66772,3.80078-3.99438C244.30273,90.28125,250.91016,72.88672,244.04736,61ZM128,46a82.13625,82.13625,0,0,1,80.25635,65.17212C191.90674,126.92627,169.8667,143.0874,145,157.44434c-24.84473,14.34423-49.83887,25.34375-71.64355,31.62915A81.95415,81.95415,0,0,1,128,46ZM22.34473,189c-4.21338-7.29858,4.65088-21.51416,15.6167-33.98877a94.03618,94.03618,0,0,0,21.71386,37.477C36.47168,197.25781,25.17334,193.89941,22.34473,189ZM128,210a81.49853,81.49853,0,0,1-42.73389-12.04614c20.57666-6.78394,43.26416-17.1438,65.73389-30.11695,22.46973-12.97265,42.78516-27.44067,58.94824-41.86865.0166.67749.05176,1.35034.05176,2.03174A82.093,82.093,0,0,1,128,210ZM196.31934,63.50586c23.0708-4.75122,34.51709-1.3877,37.33593,3.49414,2.82569,4.89429.09278,16.34375-15.605,34.02808A94.04055,94.04055,0,0,0,196.31934,63.50586Z"/>
</svg>
