<svg id="Flat" xmlns="http://www.w3.org/2000/svg" viewBox="0 0 256 256">
  <path d="M80.00684,230.01514a13.98436,13.98436,0,0,1-6.85547-1.81592A13.83519,13.83519,0,0,1,66,215.98877V40.01123a14.00016,14.00016,0,0,1,21.30078-11.9458L231.27734,116.0542h0a14.00026,14.00026,0,0,1,0,23.8916L87.30078,227.93457A13.95162,13.95162,0,0,1,80.00684,230.01514Zm.00293-192.01563a2.04039,2.04039,0,0,0-.98829.26758A1.93245,1.93245,0,0,0,78,40.01123V215.98877a2.00013,2.00013,0,0,0,3.043,1.70654l143.97656-87.98877a2,2,0,0,0,0-3.41308L81.043,38.30469A1.95679,1.95679,0,0,0,80.00977,37.99951Z"/>
</svg>
