<svg xmlns="http://www.w3.org/2000/svg" viewBox="0 0 256 256"><path d="M236.2,19.8a5.8,5.8,0,0,0-8.4,0L200,47.5l-6.8-6.8a30,30,0,0,0-42.4,0L124,67.5l-3.8-3.7a5.9,5.9,0,0,0-8.4,8.4l72,72a5.9,5.9,0,0,0,8.4-8.4l-3.7-3.8,26.8-26.8a30,30,0,0,0,0-42.4L208.5,56l27.7-27.8A5.8,5.8,0,0,0,236.2,19.8ZM206.8,96.7,180,123.5,132.5,76l26.8-26.8a18,18,0,0,1,25.4,0l22.1,22.1A18,18,0,0,1,206.8,96.7Zm-67,43.1L120,159.5,96.5,136l19.7-19.8a5.9,5.9,0,0,0-8.4-8.4L88,127.5,72.2,111.8a5.9,5.9,0,0,0-8.4,8.4l3.7,3.8L40.7,150.8a30,30,0,0,0,0,42.4l6.8,6.8L19.8,227.8a5.9,5.9,0,1,0,8.4,8.4L56,208.5l6.8,6.8a30.2,30.2,0,0,0,42.4,0L132,188.5l3.8,3.7a5.9,5.9,0,0,0,8.4-8.4L128.5,168l19.7-19.8a5.9,5.9,0,0,0-8.4-8.4Zm-43.1,67a18,18,0,0,1-25.4,0L49.2,184.7a18,18,0,0,1,0-25.4L76,132.5,123.5,180Z"/></svg>