<svg xmlns="http://www.w3.org/2000/svg" viewBox="0 0 256 256"><path d="M200.5,199.7a101.9,101.9,0,0,0,0-143.4c-.2-.2-.2-.3-.4-.4s-.2-.2-.4-.4a101.9,101.9,0,0,0-143.4,0l-.4.4-.4.4a101.9,101.9,0,0,0,0,143.4l.4.4c.1.2.2.2.4.4a101.9,101.9,0,0,0,143.4,0c.2-.2.3-.2.4-.4S200.3,199.9,200.5,199.7ZM38.2,134H66.3a62,62,0,0,0,13.8,33.4L60.3,187.2A89.5,89.5,0,0,1,38.2,134ZM60.3,68.8,80.1,88.6A62,62,0,0,0,66.3,122H38.2A89.5,89.5,0,0,1,60.3,68.8ZM217.8,122H189.7a62,62,0,0,0-13.8-33.4l19.8-19.8A89.5,89.5,0,0,1,217.8,122ZM128,178a50,50,0,1,1,50-50A50,50,0,0,1,128,178Zm39.4-97.9A62,62,0,0,0,134,66.3V38.2a89.5,89.5,0,0,1,53.2,22.1ZM122,66.3A62,62,0,0,0,88.6,80.1L68.8,60.3A89.5,89.5,0,0,1,122,38.2ZM88.6,175.9A62,62,0,0,0,122,189.7v28.1a89.5,89.5,0,0,1-53.2-22.1ZM134,189.7a62,62,0,0,0,33.4-13.8l19.8,19.8A89.5,89.5,0,0,1,134,217.8Zm41.9-22.3A62,62,0,0,0,189.7,134h28.1a89.5,89.5,0,0,1-22.1,53.2Z"/></svg>