<svg id="Flat" xmlns="http://www.w3.org/2000/svg" viewBox="0 0 256 256">
  <path d="M200.457,199.71655a101.81865,101.81865,0,0,0,0-143.4331c-.11328-.13489-.20605-.28076-.333-.40747-.12695-.127-.273-.22022-.4082-.3335a101.81808,101.81808,0,0,0-143.43164,0c-.13525.11328-.28125.20654-.4082.3335-.127.12671-.21973.27258-.333.40747a101.81865,101.81865,0,0,0,0,143.4331c.11328.13489.20605.28076.333.40747.127.127.273.2201.40771.33326a101.81868,101.81868,0,0,0,143.43262,0c.13476-.11316.28076-.2063.40771-.33326C200.251,199.99731,200.34375,199.85144,200.457,199.71655ZM38.20459,134H66.29541a61.71964,61.71964,0,0,0,13.84717,33.37305L60.2915,187.22412A89.62863,89.62863,0,0,1,38.20459,134ZM60.2915,68.77588,80.14258,88.62695A61.71964,61.71964,0,0,0,66.29541,122H38.20459A89.62863,89.62863,0,0,1,60.2915,68.77588ZM217.79541,122H189.70459a61.71964,61.71964,0,0,0-13.84717-33.37305L195.7085,68.77588A89.62863,89.62863,0,0,1,217.79541,122ZM128,178a50,50,0,1,1,50-50A50.05635,50.05635,0,0,1,128,178Zm39.37305-97.85742A61.72167,61.72167,0,0,0,134,66.29541V38.20483A89.62783,89.62783,0,0,1,187.22412,60.2915ZM122,66.29541A61.72167,61.72167,0,0,0,88.62695,80.14258L68.77588,60.2915A89.62783,89.62783,0,0,1,122,38.20483Zm-33.37305,109.562A61.72167,61.72167,0,0,0,122,189.70459v28.09058A89.62783,89.62783,0,0,1,68.77588,195.7085ZM134,189.70459a61.72167,61.72167,0,0,0,33.37305-13.84717l19.85107,19.85108A89.62783,89.62783,0,0,1,134,217.79517Zm41.85742-22.33154A61.71964,61.71964,0,0,0,189.70459,134h28.09082a89.62863,89.62863,0,0,1-22.08691,53.22412Z"/>
</svg>
