<svg id="Flat" xmlns="http://www.w3.org/2000/svg" viewBox="0 0 256 256">
  <path d="M229.21,50.79a30,30,0,0,0-42.42,0h0a29.36,29.36,0,0,0-5.56,7.69l-31.31-8.54A30,30,0,0,0,98.79,26.79h0a30,30,0,0,0-4.65,36.42L57.83,95.88a30,30,0,0,0-39,2.91h0a30,30,0,0,0,41.36,43.43l72.6,53.24a30,30,0,1,0,48.46-8.67,29.33,29.33,0,0,0-5.77-4.51l28.44-80.58a30,30,0,0,0,25.33-50.91ZM107.27,35.27h0a18,18,0,1,1,0,25.46A18,18,0,0,1,107.27,35.27Zm-80,97.46a18,18,0,0,1,0-25.46h0a18,18,0,1,1,0,25.46Zm145.46,88a18,18,0,0,1-25.46-25.46h0a18,18,0,0,1,25.46,25.46Zm-8.61-42.43a30,30,0,0,0-24.27,7.48l-72.6-53.24a30.11,30.11,0,0,0-1.39-27.75l36.31-32.67a30,30,0,0,0,39-2.91,29.36,29.36,0,0,0,5.56-7.69l31.31,8.54a30,30,0,0,0,14.48,27.66Zm56.61-93.57a18,18,0,0,1-25.46-25.46h0a18,18,0,1,1,25.46,25.46Z"/>
</svg>
