<svg xmlns="http://www.w3.org/2000/svg" viewBox="0 0 256 256"><path d="M222.8,81.3l-1-.8A42,42,0,0,0,180,42a41.3,41.3,0,0,0-13.1,2.1,42,42,0,0,0-77.8,0A41.3,41.3,0,0,0,76,42,42,42,0,0,0,34.2,80.5l-1,.8a13.8,13.8,0,0,0-3.9,13.3h0L56.7,211.2A13.9,13.9,0,0,0,70.3,222H185.7a13.9,13.9,0,0,0,13.6-10.8L226.7,94.6A13.8,13.8,0,0,0,222.8,81.3ZM76,54a29.4,29.4,0,0,1,14,3.5,6,6,0,0,0,5.4.1,5.7,5.7,0,0,0,3.3-4.1,30,30,0,0,1,58.6,0,5.7,5.7,0,0,0,3.3,4.1,6,6,0,0,0,5.4-.1A29.4,29.4,0,0,1,180,54a30,30,0,0,1,29.4,23.9h-.2L168.3,89.7,133.2,75.6a14.4,14.4,0,0,0-10.4,0L87.7,89.7,46.8,78h-.2A30,30,0,0,1,76,54Zm85.4,45.8L146.7,210H109.3L94.6,99.8l32.7-13a1.7,1.7,0,0,1,1.4,0Zm-93,108.7L41,91.9h0a1.8,1.8,0,0,1,.5-1.9l.5-.3.4-.2h1.1l39.1,11.2L97.1,210H70.3A1.9,1.9,0,0,1,68.4,208.5ZM215,91.9,187.6,208.5a1.9,1.9,0,0,1-1.9,1.5H158.9l14.5-109.3,39.1-11.2h1.1l.4.2.5.3A1.8,1.8,0,0,1,215,91.9Z"/></svg>