<svg id="Flat" xmlns="http://www.w3.org/2000/svg" viewBox="0 0 256 256">
  <path d="M216,42H134V24a6,6,0,0,0-12,0V42H40A14.01572,14.01572,0,0,0,26,56V176a14.01572,14.01572,0,0,0,14,14H83.51611L59.31445,220.252a6.00019,6.00019,0,0,0,9.3711,7.4961L98.88379,190h58.23242l30.19824,37.74805a6.00019,6.00019,0,0,0,9.3711-7.4961L172.48389,190H216a14.01572,14.01572,0,0,0,14-14V56A14.01572,14.01572,0,0,0,216,42Zm2,134a2.0026,2.0026,0,0,1-2,2H40a2.0026,2.0026,0,0,1-2-2V56a2.0026,2.0026,0,0,1,2-2H216a2.0026,2.0026,0,0,1,2,2ZM102,120v24a6,6,0,0,1-12,0V120a6,6,0,0,1,12,0Zm32-16v40a6,6,0,0,1-12,0V104a6,6,0,0,1,12,0Zm32-16v56a6,6,0,0,1-12,0V88a6,6,0,0,1,12,0Z"/>
</svg>
