<svg xmlns="http://www.w3.org/2000/svg" viewBox="0 0 256 256"><path d="M216,42H134V24a6,6,0,0,0-12,0V42H40A14,14,0,0,0,26,56V176a14,14,0,0,0,14,14H83.5L59.3,220.3a5.9,5.9,0,0,0,1,8.4A5.8,5.8,0,0,0,64,230a6,6,0,0,0,4.7-2.3L98.9,190h58.2l30.2,37.7A6,6,0,0,0,192,230a5.8,5.8,0,0,0,3.7-1.3,5.9,5.9,0,0,0,1-8.4L172.5,190H216a14,14,0,0,0,14-14V56A14,14,0,0,0,216,42Zm2,134a2,2,0,0,1-2,2H40a2,2,0,0,1-2-2V56a2,2,0,0,1,2-2H216a2,2,0,0,1,2,2ZM102,120v24a6,6,0,0,1-12,0V120a6,6,0,0,1,12,0Zm32-16v40a6,6,0,0,1-12,0V104a6,6,0,0,1,12,0Zm32-16v56a6,6,0,0,1-12,0V88a6,6,0,0,1,12,0Z"/></svg>