<svg id="Flat" xmlns="http://www.w3.org/2000/svg" viewBox="0 0 256 256">
  <path d="M210.6665,74H198V40a6.00029,6.00029,0,0,0-6-6H64a6.00029,6.00029,0,0,0-6,6V74H45.3335C32.46729,74,22,83.86914,22,96v80a6.00029,6.00029,0,0,0,6,6H58v38a6.00029,6.00029,0,0,0,6,6H192a6.00029,6.00029,0,0,0,6-6V182h30a6.00029,6.00029,0,0,0,6-6V96C234,83.86914,223.53271,74,210.6665,74ZM70,46H186V74H70ZM186,214H70V158H186Zm36-44H198V152a6.00029,6.00029,0,0,0-6-6H64a6.00029,6.00029,0,0,0-6,6v18H34V96c0-5.51367,5.084-10,11.3335-10h165.333C216.916,86,222,90.48633,222,96Zm-23.99414-54a10,10,0,1,1-10-10A10.01146,10.01146,0,0,1,198.00586,116Z"/>
</svg>
