<svg id="Flat" xmlns="http://www.w3.org/2000/svg" viewBox="0 0 256 256">
  <path d="M196.99414,116a9,9,0,1,1-9-9A9,9,0,0,1,196.99414,116Zm37-20v80a6.00029,6.00029,0,0,1-6,6h-30v38a6.00029,6.00029,0,0,1-6,6h-128a6.00029,6.00029,0,0,1-6-6V182h-30a6.00029,6.00029,0,0,1-6-6V96c0-12.13086,10.46729-22,23.3335-22h12.6665V40a6.00029,6.00029,0,0,1,6-6h128a6.00029,6.00029,0,0,1,6,6V74h12.6665C223.52686,74,233.99414,83.86914,233.99414,96Zm-164-22h116V46h-116Zm116,84h-116v56h116Zm36-62c0-5.51367-5.084-10-11.3335-10H45.32764c-6.24952,0-11.3335,4.48633-11.3335,10v74h24V152a6.00029,6.00029,0,0,1,6-6h128a6.00029,6.00029,0,0,1,6,6v18h24Z"/>
</svg>
