<svg id="Flat" xmlns="http://www.w3.org/2000/svg" viewBox="0 0 256 256">
  <path d="M200.46191,199.71252A101.947,101.947,0,0,0,56.2959,55.53186c-.13916.11621-.28906.2124-.41992.34326-.13037.13037-.22657.28027-.34278.41943A101.947,101.947,0,0,0,199.7124,200.462c.13672-.11426.28418-.2085.4126-.33741C200.25342,199.9967,200.34766,199.84924,200.46191,199.71252Zm17.53907-71.7124a89.62023,89.62023,0,0,1-22.29151,59.22412L68.77686,60.29163A89.95055,89.95055,0,0,1,218.001,128.00012Zm-180,0A89.62008,89.62008,0,0,1,60.292,68.77649L187.22461,195.70911A89.95061,89.95061,0,0,1,38.001,128.00012Z"/>
</svg>
