<svg id="Flat" xmlns="http://www.w3.org/2000/svg" viewBox="0 0 256 256">
  <path d="M216,78a14.01572,14.01572,0,0,0,14-14V48a14.01572,14.01572,0,0,0-14-14H40A14.01572,14.01572,0,0,0,26,48V64A14.01572,14.01572,0,0,0,40,78h2V178H32a6,6,0,0,0,0,12h90v20.83838a22,22,0,1,0,12,0V190h90a6,6,0,0,0,0-12H214V78ZM138,232a10,10,0,1,1-10-10A10.01177,10.01177,0,0,1,138,232ZM38,64V48a2.0026,2.0026,0,0,1,2-2H216a2.0026,2.0026,0,0,1,2,2V64a2.0026,2.0026,0,0,1-2,2H40A2.0026,2.0026,0,0,1,38,64ZM202,178H54V78H202Z"/>
</svg>
