<svg id="Flat" xmlns="http://www.w3.org/2000/svg" viewBox="0 0 256 256">
  <path d="M234.68652,96a13.90644,13.90644,0,0,0-4.10156-9.89941l-60.68555-60.687a14.01851,14.01851,0,0,0-19.79882,0v.00049L90.5459,84.96924C81.02441,81.72168,56.5625,76.62451,30.835,97.38037a14.01184,14.01184,0,0,0-1.124,20.81494L79.51514,168,43.75781,203.75732a5.99971,5.99971,0,1,0,8.48438,8.48536L88,176.48486l49.60645,49.60694a14.00527,14.00527,0,0,0,9.90625,4.10547c.32617,0,.65429-.01172.98242-.03467a13.97037,13.97037,0,0,0,10.18945-5.5376c19.71582-26.20508,17.15234-47.22217,12.46289-59.28711l59.4375-59.438A13.90841,13.90841,0,0,0,234.68652,96Zm-12.58593,1.41406-62.34278,62.34326a6,6,0,0,0-1.124,6.92627c9.94434,19.88868-1.708,40.31885-9.53809,50.72657a1.95279,1.95279,0,0,1-1.4414.78173,1.99433,1.99433,0,0,1-1.5625-.58544L38.19531,109.71a1.979,1.979,0,0,1-.58008-1.51758,2.01,2.01,0,0,1,.75391-1.47217c12.50684-10.08935,24.499-12.7666,33.707-12.7666A42.1242,42.1242,0,0,1,89.31641,97.3667a5.99993,5.99993,0,0,0,6.92578-1.124L158.585,33.8999a2.0043,2.0043,0,0,1,2.83008-.00049l60.68555,60.687a1.99869,1.99869,0,0,1,0,2.82763Z"/>
</svg>
