<svg id="Flat" xmlns="http://www.w3.org/2000/svg" viewBox="0 0 256 256">
  <path d="M85.24609,40a6,6,0,0,1,6-6H192a6,6,0,0,1,0,12h-8.84814l19.17236,108.64307a6.00082,6.00082,0,0,1-4.86621,6.95117,6.06272,6.06272,0,0,1-1.04981.09228,6.00155,6.00155,0,0,1-5.90234-4.95849L170.96582,46H91.24609A6,6,0,0,1,85.24609,40Zm126.79,180.43945a5.99973,5.99973,0,0,1-8.47558-.40332L168.98242,182H134v58a6,6,0,0,1-12,0V182H56.01758l-.01074.001L55.99561,182H40a6,6,0,0,1,0-12H50.96582L68.37695,71.33447,43.56055,44.03613a5.99992,5.99992,0,0,1,8.8789-8.07226l160,176A5.99926,5.99926,0,0,1,212.03613,220.43945ZM158.07324,170,78.58252,82.56006,63.15186,170Z"/>
</svg>
