<svg id="Flat" xmlns="http://www.w3.org/2000/svg" viewBox="0 0 256 256">
  <path d="M52.43945,35.96387a5.99992,5.99992,0,0,0-8.8789,8.07226l34.78808,38.2666c-12.08008-1.31347-29.4834.53174-47.51367,15.07764a14.01184,14.01184,0,0,0-1.124,20.81494L79.51514,168,43.75781,203.75732a5.99971,5.99971,0,1,0,8.48438,8.48536L88,176.48486l49.60645,49.60694a14.0047,14.0047,0,0,0,9.90527,4.10547q.49072,0,.9834-.03467a13.97037,13.97037,0,0,0,10.18945-5.5376c5.88965-7.82861,14.08887-21.25977,15.56543-36.83105l29.31055,32.24218a5.99992,5.99992,0,0,0,8.8789-8.07226ZM149.0957,217.41016a1.95279,1.95279,0,0,1-1.4414.78173,1.99252,1.99252,0,0,1-1.5625-.58544L38.19531,109.71a1.979,1.979,0,0,1-.58008-1.51758,2.01,2.01,0,0,1,.75391-1.47217c26.10547-21.06,49.97266-9.82812,50.94727-9.35351a5.9768,5.9768,0,0,0,3.26123.58838l68.64453,75.50879C166.03662,191.21582,155.76367,208.5459,149.0957,217.41016ZM234.68652,96a13.91038,13.91038,0,0,1-4.10156,9.90039l-41.4043,41.40381a5.9997,5.9997,0,1,1-8.48437-8.48535l41.4043-41.40479a1.99869,1.99869,0,0,0,0-2.82763L161.415,33.89941a2.00385,2.00385,0,0,0-2.83008.001l-37.97558,37.9751a5.99971,5.99971,0,0,1-8.48438-8.48535l37.97559-37.97608a14.01806,14.01806,0,0,1,19.79882-.00049l60.68555,60.687A13.90644,13.90644,0,0,1,234.68652,96Z"/>
</svg>
