<svg id="Flat" xmlns="http://www.w3.org/2000/svg" viewBox="0 0 256 256">
  <path d="M77.97412,32a6,6,0,0,1,6-6h88.78613a13.95588,13.95588,0,0,1,13.93018,12.60645l11.11523,111.123a6,6,0,1,1-11.94043,1.19434L174.75,39.80078A1.99353,1.99353,0,0,0,172.76025,38H83.97412A6,6,0,0,1,77.97412,32Zm148.561,204.44043a6,6,0,0,1-8.47559-.40527L183.499,198H134v42a6,6,0,0,1-12,0V198H48.8042a13.91294,13.91294,0,0,1-10.82275-5.13721,14.06344,14.06344,0,0,1-2.8794-11.76367,53.70436,53.70436,0,0,1,22.68164-33.85937,2.01265,2.01265,0,0,0,.80713-1.4751l7.67969-76.77783L29.05957,28.03516a6,6,0,0,1,8.88086-8.07032l152.376,167.69434a5.99946,5.99946,0,0,1,.583.6416l36.041,39.66406A6.00023,6.00023,0,0,1,226.53516,236.44043ZM172.59473,186l-95.46-105.05713L70.53125,146.9585a13.94343,13.94343,0,0,1-6.02539,10.22119,41.7737,41.7737,0,0,0-17.64844,26.33056,2.08408,2.08408,0,0,0,.42285,1.76758A1.90953,1.90953,0,0,0,48.8042,186Z"/>
</svg>
