<svg id="Flat" xmlns="http://www.w3.org/2000/svg" viewBox="0 0 256 256">
  <path d="M220.898,181.09863v.00049a53.70733,53.70733,0,0,0-22.68164-33.85986,2.01242,2.01242,0,0,1-.80713-1.4751L186.69043,38.60693A13.95592,13.95592,0,0,0,172.76025,26H83.23975A13.95705,13.95705,0,0,0,69.30908,38.60645L58.59082,145.76465a2.01265,2.01265,0,0,1-.80713,1.4751,53.70436,53.70436,0,0,0-22.68164,33.85937,14.06344,14.06344,0,0,0,2.8794,11.76367A13.91294,13.91294,0,0,0,48.8042,198H122v42a6,6,0,0,0,12,0V198h73.19629a13.912,13.912,0,0,0,10.82226-5.13721A14.06449,14.06449,0,0,0,220.898,181.09863Zm-12.17822,4.1792A1.90844,1.90844,0,0,1,207.19629,186H48.8042a1.90874,1.90874,0,0,1-1.52393-.72217,2.08408,2.08408,0,0,1-.42285-1.76758,41.77014,41.77014,0,0,1,17.64844-26.33007,13.9435,13.9435,0,0,0,6.02539-10.22168L81.24951,39.80078A1.99435,1.99435,0,0,1,83.23975,38h89.5205A1.99353,1.99353,0,0,1,174.75,39.80078L185.46875,146.9585a13.9435,13.9435,0,0,0,6.02539,10.22168,41.77141,41.77141,0,0,1,17.64844,26.33007h0A2.08355,2.08355,0,0,1,208.71973,185.27783Z"/>
</svg>
