<svg xmlns="http://www.w3.org/2000/svg" viewBox="0 0 256 256"><path d="M234.7,96a14.1,14.1,0,0,0-4.1-9.9L169.9,25.4a14.1,14.1,0,0,0-19.8,0h0L90.5,85C81,81.7,56.6,76.6,30.8,97.4a14,14,0,0,0-1.1,20.8L79.5,168,43.8,203.8a5.9,5.9,0,1,0,8.4,8.4L88,176.5l49.6,49.6a14.1,14.1,0,0,0,9.9,4.1h1a13.9,13.9,0,0,0,10.2-5.6c19.7-26.2,17.1-47.2,12.4-59.3l59.5-59.4A14.1,14.1,0,0,0,234.7,96Zm-12.6,1.4-62.3,62.4a5.9,5.9,0,0,0-1.2,6.9c10,19.9-1.7,40.3-9.5,50.7a2,2,0,0,1-1.4.8,2,2,0,0,1-1.6-.6L38.2,109.7a1.8,1.8,0,0,1-.6-1.5,2.2,2.2,0,0,1,.8-1.5C50.9,96.6,62.9,94,72.1,94s16.7,3.1,17.2,3.4a5.9,5.9,0,0,0,6.9-1.2l62.4-62.3a1.9,1.9,0,0,1,2.8,0l60.7,60.7a1.9,1.9,0,0,1,0,2.8Z"/></svg>