<svg xmlns="http://www.w3.org/2000/svg" viewBox="0 0 256 256"><path d="M219.2,160.2a6,6,0,0,0-5.8-.3A21.5,21.5,0,0,1,204,162a22,22,0,0,1-16-6.9,22.4,22.4,0,0,1-6-16.5,22.1,22.1,0,0,1,31.4-18.5,6,6,0,0,0,5.8-.3,6.1,6.1,0,0,0,2.8-5.1V72a14,14,0,0,0-14-14H169.5a40.5,40.5,0,0,0,.5-6,34.3,34.3,0,0,0-10.7-24.8,34,34,0,0,0-57.2,22.3,34.4,34.4,0,0,0,.4,8.5H64A14,14,0,0,0,50,72v34.5a40.5,40.5,0,0,0-6-.5,34.3,34.3,0,0,0-24.8,10.7,34,34,0,0,0,22.3,57.2,34.4,34.4,0,0,0,8.5-.4V208a14,14,0,0,0,14,14H208a14,14,0,0,0,14-14V165.3A6.1,6.1,0,0,0,219.2,160.2ZM210,208a2,2,0,0,1-2,2H64a2,2,0,0,1-2-2V165.3a6.1,6.1,0,0,0-2.8-5.1,6.2,6.2,0,0,0-3.2-.9,5.8,5.8,0,0,0-2.6.6A22.1,22.1,0,0,1,22,141.4a22.4,22.4,0,0,1,6-16.5A22,22,0,0,1,44,118a21.5,21.5,0,0,1,9.4,2.1,6,6,0,0,0,5.8-.3,6.1,6.1,0,0,0,2.8-5.1V72a2,2,0,0,1,2-2h46.7a6.1,6.1,0,0,0,5.1-2.8,6,6,0,0,0,.3-5.8A22.1,22.1,0,0,1,134.6,30a22.4,22.4,0,0,1,16.5,6A22,22,0,0,1,158,52a21.5,21.5,0,0,1-2.1,9.4,6,6,0,0,0,.3,5.8,6.1,6.1,0,0,0,5.1,2.8H208a2,2,0,0,1,2,2v34.5a34.4,34.4,0,0,0-8.5-.4A34,34,0,0,0,204,174a40.5,40.5,0,0,0,6-.5Z"/></svg>