<svg id="Flat" xmlns="http://www.w3.org/2000/svg" viewBox="0 0 256 256">
  <path d="M219.20605,160.23438a6.00578,6.00578,0,0,0-5.78027-.34864A22.00378,22.00378,0,1,1,202.375,118.05859a22.10217,22.10217,0,0,1,11.05078,2.05567A6.00051,6.00051,0,0,0,222,114.69434L221.99951,72A14.01614,14.01614,0,0,0,207.999,58l-38.52392.001a34.09987,34.09987,0,0,0-10.20362-30.78809,33.67509,33.67509,0,0,0-25.45605-9.14453A33.98881,33.98881,0,0,0,102.53467,58.001L64,58A14.01572,14.01572,0,0,0,50,72v34.52441a34.09805,34.09805,0,0,0-30.7876,10.20411,33.99978,33.99978,0,0,0,22.31153,57.18261A34.30351,34.30351,0,0,0,50,173.46484V208a14.01572,14.01572,0,0,0,14,14H207.99951a14.01572,14.01572,0,0,0,14-14L222,165.30566A5.99879,5.99879,0,0,0,219.20605,160.23438ZM209.99951,208a2.00229,2.00229,0,0,1-2,2H64a2.00229,2.00229,0,0,1-2-2l.00049-42.69434a6.00034,6.00034,0,0,0-8.57422-5.41992,22.0095,22.0095,0,0,1-31.38135-18.4541,22.01354,22.01354,0,0,1,31.38135-21.31738,6.00081,6.00081,0,0,0,8.57422-5.41992L62,72a2.00229,2.00229,0,0,1,2-2l46.69434.001h0a6,6,0,0,0,5.41992-8.57422,22.01,22.01,0,0,1,18.45361-31.38184,22.01391,22.01391,0,0,1,21.31738,31.38184,6,6,0,0,0,5.41944,8.57422L207.999,70a2.00239,2.00239,0,0,1,2.00049,2L210,106.53516a34.40228,34.40228,0,0,0-8.47656-.44727A34.00311,34.00311,0,1,0,210,173.47559Z"/>
</svg>
