<svg id="Flat" xmlns="http://www.w3.org/2000/svg" viewBox="0 0 256 256">
  <path d="M104.00244,42h-48a14.01572,14.01572,0,0,0-14,14v48a14.01572,14.01572,0,0,0,14,14h48a14.01572,14.01572,0,0,0,14-14V56A14.01572,14.01572,0,0,0,104.00244,42Zm2,62a2.0026,2.0026,0,0,1-2,2h-48a2.0026,2.0026,0,0,1-2-2V56a2.0026,2.0026,0,0,1,2-2h48a2.0026,2.0026,0,0,1,2,2Zm-2,34h-48a14.01572,14.01572,0,0,0-14,14v48a14.01572,14.01572,0,0,0,14,14h48a14.01572,14.01572,0,0,0,14-14V152A14.01572,14.01572,0,0,0,104.00244,138Zm2,62a2.0026,2.0026,0,0,1-2,2h-48a2.0026,2.0026,0,0,1-2-2V152a2.0026,2.0026,0,0,1,2-2h48a2.0026,2.0026,0,0,1,2,2Zm94-158h-48a14.01572,14.01572,0,0,0-14,14v48a14.01572,14.01572,0,0,0,14,14h48a14.01572,14.01572,0,0,0,14-14V56A14.01572,14.01572,0,0,0,200.00244,42Zm2,62a2.0026,2.0026,0,0,1-2,2h-48a2.0026,2.0026,0,0,1-2-2V56a2.0026,2.0026,0,0,1,2-2h48a2.0026,2.0026,0,0,1,2,2Zm-64,72V144a6,6,0,0,1,12,0v32a6,6,0,0,1-12,0Zm76-16a6.00029,6.00029,0,0,1-6,6h-26v42a6.00029,6.00029,0,0,1-6,6h-32a6,6,0,1,1,0-12h26V144a6,6,0,0,1,12,0v10h26A6.00029,6.00029,0,0,1,214.00244,160Zm0,32v16a6,6,0,0,1-12,0V192a6,6,0,0,1,12,0Z"/>
</svg>
