<svg id="Flat" xmlns="http://www.w3.org/2000/svg" viewBox="0 0 256 256">
  <path d="M100,58H40A14.01572,14.01572,0,0,0,26,72v64a14.01572,14.01572,0,0,0,14,14h62v10a34.03864,34.03864,0,0,1-34,34,6,6,0,0,0,0,12,46.05239,46.05239,0,0,0,46-46V72A14.01572,14.01572,0,0,0,100,58Zm2,80H40a2.002,2.002,0,0,1-2-2V72a2.002,2.002,0,0,1,2-2h60a2.002,2.002,0,0,1,2,2ZM216,58H156a14.01572,14.01572,0,0,0-14,14v64a14.01572,14.01572,0,0,0,14,14h62v10a34.03864,34.03864,0,0,1-34,34,6,6,0,0,0,0,12,46.05239,46.05239,0,0,0,46-46V72A14.01572,14.01572,0,0,0,216,58Zm2,80H156a2.002,2.002,0,0,1-2-2V72a2.002,2.002,0,0,1,2-2h60a2.002,2.002,0,0,1,2,2Z"/>
</svg>
