<svg xmlns="http://www.w3.org/2000/svg" viewBox="0 0 256 256"><path d="M216,74H72.9L193.7,37.7a5.9,5.9,0,0,0-3.4-11.4l-160,48h-.6l-.4.2H29a5.4,5.4,0,0,0-1.6,1.4h0l-.2.3-.2.2h-.1a8.7,8.7,0,0,0-.7,1.7v.3h0a4.3,4.3,0,0,0-.1.5h0V80h0V200a14,14,0,0,0,14,14H216a14,14,0,0,0,14-14V88A14,14,0,0,0,216,74Zm2,126a2,2,0,0,1-2,2H40a2,2,0,0,1-2-2V86H216a2,2,0,0,1,2,2Zm-58-94a38,38,0,1,0,38,38A38,38,0,0,0,160,106Zm0,64a26,26,0,1,1,26-26A26.1,26.1,0,0,1,160,170Zm-58-58a6,6,0,0,1-6,6H64a6,6,0,0,1,0-12H96A6,6,0,0,1,102,112Zm0,32a6,6,0,0,1-6,6H64a6,6,0,0,1,0-12H96A6,6,0,0,1,102,144Zm0,32a6,6,0,0,1-6,6H64a6,6,0,0,1,0-12H96A6,6,0,0,1,102,176Z"/></svg>