<svg id="Flat" xmlns="http://www.w3.org/2000/svg" viewBox="0 0 256 256">
  <path d="M216,74H72.88062l120.843-36.25293a6,6,0,1,0-3.44726-11.49414l-160,48-.01306.00464c-.171.05176-.338.11255-.5022.17871-.02283.009-.047.01611-.0697.02539-.13941.05835-.27393.12524-.408.19348-.04566.02307-.09387.04273-.13867.0669-.05152.028-.09937.06115-.14991.09045a5.9655,5.9655,0,0,0-1.59521,1.33862c-.00977.01172-.021.02222-.03076.03406-.07666.09314-.14551.1919-.21631.28943-.04407.06042-.09168.118-.13355.18018-.03637.05444-.06714.11218-.1018.16772a5.95925,5.95925,0,0,0-.71436,1.65332c-.0271.103-.05786.20471-.07959.30933-.00635.03125-.009.06384-.01514.09533-.03161.16614-.05908.33313-.07666.50244-.00134.0138-.00122.028-.00244.04163-.01806.18652-.02807.37427-.02844.56336L26,80V200a14.01572,14.01572,0,0,0,14,14H216a14.01572,14.01572,0,0,0,14-14V88A14.01572,14.01572,0,0,0,216,74Zm2,126a2.0026,2.0026,0,0,1-2,2H40a2.0026,2.0026,0,0,1-2-2V86H216a2.0026,2.0026,0,0,1,2,2Zm-58-94a38,38,0,1,0,38,38A38.04323,38.04323,0,0,0,160,106Zm0,64a26,26,0,1,1,26-26A26.02885,26.02885,0,0,1,160,170Zm-58-58a6.00029,6.00029,0,0,1-6,6H64a6,6,0,0,1,0-12H96A6.00029,6.00029,0,0,1,102,112Zm0,32a6.00029,6.00029,0,0,1-6,6H64a6,6,0,0,1,0-12H96A6.00029,6.00029,0,0,1,102,144Zm0,32a6.00029,6.00029,0,0,1-6,6H64a6,6,0,0,1,0-12H96A6.00029,6.00029,0,0,1,102,176Z"/>
</svg>
