<svg id="Flat" xmlns="http://www.w3.org/2000/svg" viewBox="0 0 256 256">
  <path d="M200,114a46.17829,46.17829,0,0,0-43.35156,30.59082A29.32841,29.32841,0,0,0,152,144.22266c-16.542,0-30,13.85644-30,30.88867S135.458,206,152,206h48a46,46,0,0,0,0-92Zm0,80H152c-9.92529,0-18-8.47363-18-18.88867s8.07471-18.88867,18-18.88867a17.15112,17.15112,0,0,1,6.53418,1.28222,5.99906,5.99906,0,0,0,8.15381-4.35058A34.00373,34.00373,0,1,1,200,194ZM22,160v16a6,6,0,0,1-12,0V160A101.99942,101.99942,0,0,1,183.10889,86.874a5.99959,5.99959,0,1,1-8.36621,8.60157A90.00025,90.00025,0,0,0,22,160Zm90-58a58.06551,58.06551,0,0,0-58,58v16a6,6,0,0,1-12,0V160a70.00465,70.00465,0,0,1,111.42041-56.43457,5.99969,5.99969,0,1,1-7.10742,9.668A57.53973,57.53973,0,0,0,112,102Zm6.03564,32.70313A26.02677,26.02677,0,0,0,86,160v16a6,6,0,0,1-12,0V160a38.02762,38.02762,0,0,1,46.80713-36.97266,6.00011,6.00011,0,1,1-2.77149,11.67579Z"/>
</svg>
