<svg xmlns="http://www.w3.org/2000/svg" viewBox="0 0 256 256"><path d="M186,104a6,6,0,0,1-6,6H76a6,6,0,0,1,0-12H180A6,6,0,0,1,186,104Zm-6,26H76a6,6,0,0,0,0,12H180a6,6,0,0,0,0-12Zm50-74V208a6.1,6.1,0,0,1-2.8,5.1,6.2,6.2,0,0,1-3.2.9,6.6,6.6,0,0,1-2.7-.6L192,198.7l-29.3,14.7a6.4,6.4,0,0,1-5.4,0L128,198.7,98.7,213.4a6.4,6.4,0,0,1-5.4,0L64,198.7,34.7,213.4a6.2,6.2,0,0,1-5.9-.3A6.1,6.1,0,0,1,26,208V56A14,14,0,0,1,40,42H216A14,14,0,0,1,230,56Zm-12,0a2,2,0,0,0-2-2H40a2,2,0,0,0-2,2V198.3l23.3-11.7a6.4,6.4,0,0,1,5.4,0L96,201.3l29.3-14.7a6.4,6.4,0,0,1,5.4,0L160,201.3l29.3-14.7a6.4,6.4,0,0,1,5.4,0L218,198.3Z"/></svg>