<svg id="Flat" xmlns="http://www.w3.org/2000/svg" viewBox="0 0 256 256">
  <path d="M186,104a6,6,0,0,1-6,6H76a6,6,0,0,1,0-12H180A6,6,0,0,1,186,104Zm-6,26H76a6,6,0,0,0,0,12H180a6,6,0,0,0,0-12Zm50-74V208a6.00047,6.00047,0,0,1-8.68359,5.3667L192,198.708,162.68359,213.3667a6.00037,6.00037,0,0,1-5.36718,0L128,198.708,98.68359,213.3667a6.00037,6.00037,0,0,1-5.36718,0L64,198.708,34.68359,213.3667A6.00024,6.00024,0,0,1,26,208V56A14.01572,14.01572,0,0,1,40,42H216A14.01572,14.01572,0,0,1,230,56Zm-12,0a2.00229,2.00229,0,0,0-2-2H40a2.00229,2.00229,0,0,0-2,2V198.292L61.31641,186.6333a6.00037,6.00037,0,0,1,5.36718,0L96,201.292l29.31641-14.65869a6.00247,6.00247,0,0,1,5.36718,0L160,201.292l29.31641-14.65869a6.00037,6.00037,0,0,1,5.36718,0L218,198.292Z"/>
</svg>
