<svg id="Flat" xmlns="http://www.w3.org/2000/svg" viewBox="0 0 256 256">
  <path d="M235.03516,202.98145a21.77521,21.77521,0,0,1-19.0586,11.01074H142.48242l13.76074,13.76562a6,6,0,0,1-8.48632,8.48438l-24-24.00781c-.02246-.02247-.041-.04712-.063-.06983-.11426-.11792-.22608-.238-.33057-.36475-.03076-.03759-.05664-.07812-.08691-.11645-.09082-.11646-.18164-.23389-.26416-.35718-.02-.03-.03662-.062-.05616-.09253-.08691-.13476-.17089-.27124-.24707-.41284-.00976-.01855-.01757-.03833-.02734-.05713-.08105-.15478-.15674-.31225-.22412-.47461l-.01025-.02734c-.06983-.1709-.13331-.34522-.1875-.52393l-.00782-.03174c-.05273-.17553-.09863-.354-.13476-.53588-.00635-.032-.00879-.0647-.01465-.09693-.0293-.15942-.05615-.31982-.07227-.4834-.01855-.18237-.02636-.36621-.02783-.55078,0-.01587-.00244-.031-.00244-.04687v-.001a5.95427,5.95427,0,0,1,.03027-.59888c.01465-.144.03907-.28491.06348-.42553.00928-.05176.01367-.10474.02393-.15625.03466-.17334.0791-.34278.12841-.51026.00537-.0188.00879-.03808.01465-.05664.05176-.16992.11231-.33545.17871-.49853.00684-.01758.01221-.03589.01953-.05323.06446-.155.13721-.30517.21387-.45336.01367-.02564.02393-.05249.0376-.07789.07226-.13476.15283-.26416.23486-.39233.02393-.03711.04395-.07617.06836-.11279.0791-.11792.16651-.23023.25342-.342.0332-.043.063-.08814.09766-.13037.10742-.13038.22216-.2544.34033-.37549.01806-.019.03418-.04.05273-.0586l24-23.99218a6,6,0,1,1,8.48438,8.48632l-13.75391,13.749h73.48828a9.99972,9.99972,0,0,0,8.6543-15.00977l-23.9502-41.37793a5.99967,5.99967,0,0,1,10.38477-6.01172L235.0166,180.9707A21.77351,21.77351,0,0,1,235.03516,202.98145ZM88,201.99219H40.02344a10.00057,10.00057,0,0,1-8.65528-15.00977l36.74512-63.48291,5.04785,18.82373A5.9996,5.9996,0,0,0,84.751,139.21582l-8.78809-32.77393a6.01238,6.01238,0,0,0-.41943-1.11694l-.00733-.01318a5.99035,5.99035,0,0,0-.61181-.98316l-.0044-.00464a5.93907,5.93907,0,0,0-.79394-.84838l-.01172-.00928a6.00383,6.00383,0,0,0-.94434-.67822l-.00488-.00245-.002-.00146c-.16016-.09229-.32471-.17529-.49121-.252a5.96759,5.96759,0,0,0-1.71-.49756l-.01709-.00293c-.17285-.02246-.3457-.0354-.51855-.04273-.023-.001-.04541-.00439-.06787-.00512-.15674-.00489-.313,0-.46924.00732-.04.002-.07959,0-.11963.00269-.1543.01025-.30762.03051-.46045.05249-.04053.0061-.082.00781-.12256.01465q-.29076.04833-.57568.12451h-.00049L35.833,110.97461a5.99959,5.99959,0,0,0,3.10742,11.58984l18.76123-5.03027L20.98242,180.9707a22.0009,22.0009,0,0,0,19.041,33.02149H88a6,6,0,0,0,0-12Zm48.65527-167.002L173.37451,98.428l-18.76318-5.03052a5.99959,5.99959,0,1,0-3.10742,11.58984l32.77832,8.78809.01269.00244c.1836.04883.3711.08032.5586.11157a5.97909,5.97909,0,0,0,.98632.093c.01563,0,.03028-.00366.0459-.0039a5.9415,5.9415,0,0,0,.83985-.06958c.09668-.01465.19091-.03687.28711-.0564a5.9173,5.9173,0,0,0,.58789-.148c.103-.032.20459-.06567.30566-.103.18164-.06714.35937-.146.53711-.23193.09717-.04736.19531-.09082.29-.14307.03564-.01977.07275-.0332.1084-.05371a6.01521,6.01521,0,0,0,.57959-.3855c.03662-.02734.0708-.05761.10693-.08569a5.96189,5.96189,0,0,0,.59717-.53247c.0249-.02539.05127-.04858.07568-.07446a5.958,5.958,0,0,0,.54053-.66822c.03271-.04687.06445-.09375.09619-.1416a6.02621,6.02621,0,0,0,.42578-.75293c.01758-.03735.03174-.07641.04883-.11426a6.029,6.029,0,0,0,.32227-.89868l8.78711-32.773A5.9996,5.9996,0,0,0,188.832,73.63867l-5.04687,18.82276L147.04,28.97852a21.99982,21.99982,0,0,0-38.08008,0L85.00977,70.35645a5.99966,5.99966,0,1,0,10.38476,6.01171l23.9502-41.37793a10.00115,10.00115,0,0,1,17.31054,0Z"/>
</svg>
