<svg xmlns="http://www.w3.org/2000/svg" viewBox="0 0 256 256"><path d="M88,146a14,14,0,1,1,14-14A14,14,0,0,1,88,146Zm80-28a14,14,0,1,0,14,14A14,14,0,0,0,168,118Zm-9.7,52.7a66.1,66.1,0,0,1-60.6,0,6,6,0,0,0-8.1,2.5,6.1,6.1,0,0,0,2.6,8.1,78,78,0,0,0,71.6,0,6.1,6.1,0,0,0,2.6-8.1A6,6,0,0,0,158.3,170.7Zm77.1-43.8A58.6,58.6,0,0,1,238,144c0,21.3-11.7,41.1-33,55.8S157,222,128,222s-56.3-7.9-77-22.2S18,165.3,18,144a58.6,58.6,0,0,1,2.6-17.1,30,30,0,1,1,40-44.7c17.9-9.7,39.7-15.4,62.3-16.1L130.1,23a6,6,0,0,1,6.8-4.9L168,22.9a22,22,0,1,1-1.8,11.8l-25.3-3.9-5.8,35.4c21.9,1,42.9,6.6,60.3,16a30,30,0,1,1,40,44.7ZM178,32a10,10,0,1,0,10-10A10,10,0,0,0,178,32Zm56,72a18.1,18.1,0,0,0-18-18,18.3,18.3,0,0,0-14.6,7.4,6,6,0,0,1-7.9,1.6h-.2C175.3,84,152.1,78,128,78h0c-24.1,0-47.3,6-65.3,16.9l-.3.2a6,6,0,0,1-7.8-1.7A18.3,18.3,0,0,0,40,86a18,18,0,0,0-9.1,33.5,6.1,6.1,0,0,1,2.4,7.6A45.4,45.4,0,0,0,30,144c0,36.4,44,66,98,66s98-29.6,98-66a45.5,45.5,0,0,0-3.3-17,5.9,5.9,0,0,1,2.5-7.5A18.2,18.2,0,0,0,234,104Z"/></svg>