<svg id="Flat" xmlns="http://www.w3.org/2000/svg" viewBox="0 0 256 256">
  <path d="M88,146a14,14,0,1,1,14-14A14.01572,14.01572,0,0,1,88,146Zm80-28a14,14,0,1,0,14,14A14.01572,14.01572,0,0,0,168,118Zm-9.72656,52.66992a66.09693,66.09693,0,0,1-60.54639,0,5.99979,5.99979,0,1,0-5.50537,10.66211,78.11156,78.11156,0,0,0,71.55664,0,5.99967,5.99967,0,1,0-5.50488-10.66211Zm77.09765-43.76757A57.153,57.153,0,0,1,238,144c0,21.25879-11.73584,41.0918-33.0459,55.84473C184.31738,214.13186,156.98828,222,128,222s-56.31738-7.86816-76.9541-22.15527C29.73584,185.09182,18,165.25881,18,144a57.153,57.153,0,0,1,2.62891-17.09765A29.99588,29.99588,0,1,1,60.64453,82.23928c17.8501-9.76782,39.61133-15.41016,62.25781-16.14941l7.1792-43.07618a6.00618,6.00618,0,0,1,6.83057-4.94433L168,22.85158a21.99675,21.99675,0,1,1-1.82666,11.86109l-25.229-3.88159L135.05322,66.1758c21.94141.99268,42.96729,6.5774,60.30225,16.06348a29.99585,29.99585,0,1,1,40.01562,44.66309ZM178,32a10,10,0,1,0,10-10A10.01177,10.01177,0,0,0,178,32Zm56,72a18.00131,18.00131,0,0,0-32.56006-10.58594,6.00145,6.00145,0,0,1-7.96826,1.59278c-.05469-.03321-.1084-.06739-.16162-.10254-18.01172-10.8999-41.18994-16.90137-65.29444-16.904l-.0083.00073L127.99609,78c-24.10839.00073-47.29345,6.00342-65.30761,16.90527q-.16481.10841-.33838.20508a5.99761,5.99761,0,0,1-7.79-1.69629,18.00209,18.00209,0,1,0-23.71,26.0918,6.00019,6.00019,0,0,1,2.44775,7.55176A45.67412,45.67412,0,0,0,30,144c0,36.39258,43.96289,66,98,66s98-29.60742,98-66a45.67257,45.67257,0,0,0-3.313-16.97949,5.99911,5.99911,0,0,1,2.46338-7.51465A18.10085,18.10085,0,0,0,234,104Z"/>
</svg>
