<svg id="Flat" xmlns="http://www.w3.org/2000/svg" viewBox="0 0 256 256">
  <path d="M26,128A70.07958,70.07958,0,0,1,96,58H209.51477l-13.757-13.75732a5.99971,5.99971,0,0,1,8.48438-8.48536l23.99634,23.99659a6.02241,6.02241,0,0,1,.75854.92724c.01355.02051.02441.042.03784.0625a5.95948,5.95948,0,0,1,.51355.97559c.01026.0249.01782.05078.02771.07568a5.94187,5.94187,0,0,1,.30908,1.04248c.00391.01953.00537.03906.00892.0586a5.81128,5.81128,0,0,1,0,2.208c-.00355.01954-.005.03907-.00892.0586a5.94187,5.94187,0,0,1-.30908,1.04248c-.00989.0249-.01745.05078-.02771.07568a5.95948,5.95948,0,0,1-.51355.97559c-.01343.02051-.02429.042-.03784.0625a6.05207,6.05207,0,0,1-.75781.92676L204.24219,92.24268a5.99971,5.99971,0,0,1-8.48438-8.48536L209.51477,70H96a58.06551,58.06551,0,0,0-58,58,6,6,0,0,1-12,0Zm198-6a6.00029,6.00029,0,0,0-6,6,58.06551,58.06551,0,0,1-58,58H46.48523l13.757-13.75732a5.99971,5.99971,0,0,0-8.48438-8.48536L27.76147,187.75391a6.02241,6.02241,0,0,0-.75854.92724c-.01355.02051-.02441.042-.03784.0625a5.95948,5.95948,0,0,0-.51355.97559c-.01026.0249-.01782.05078-.02771.07568a5.94187,5.94187,0,0,0-.30908,1.04248c-.00391.01953-.00537.03906-.00892.0586a5.81128,5.81128,0,0,0,0,2.208c.00355.01954.005.03907.00892.0586a5.94187,5.94187,0,0,0,.30908,1.04248c.00989.0249.01745.05078.02771.07568a5.95948,5.95948,0,0,0,.51355.97559c.01343.02051.02429.042.03784.0625a6.05207,6.05207,0,0,0,.75781.92676l23.99707,23.99707a5.99971,5.99971,0,0,0,8.48438-8.48536L46.48523,198H160a70.07958,70.07958,0,0,0,70-70A6.00029,6.00029,0,0,0,224,122Z"/>
</svg>
