<svg xmlns="http://www.w3.org/2000/svg" viewBox="0 0 256 256"><path d="M26,128A70.1,70.1,0,0,1,96,58H209.5L195.8,44.2a5.9,5.9,0,0,1,8.4-8.4l24,24a5.8,5.8,0,0,1,0,8.4l-24,24a5.9,5.9,0,0,1-8.4-8.4L209.5,70H96a58,58,0,0,0-58,58,6,6,0,0,1-12,0Zm198-6a6,6,0,0,0-6,6,58,58,0,0,1-58,58H46.5l13.7-13.8a5.9,5.9,0,0,0-8.4-8.4l-24,24a5.8,5.8,0,0,0,0,8.4l24,24a5.9,5.9,0,0,0,8.4-8.4L46.5,198H160a70.1,70.1,0,0,0,70-70A6,6,0,0,0,224,122Zm-92,36a6,6,0,0,0,6-6V104a6.1,6.1,0,0,0-2.8-5.1,6.2,6.2,0,0,0-5.9-.3l-16,8a6,6,0,0,0,5.4,10.8l7.3-3.7V152A6,6,0,0,0,132,158Z"/></svg>