<svg xmlns="http://www.w3.org/2000/svg" viewBox="0 0 256 256"><path d="M226.7,58.4a13.9,13.9,0,0,0-14.3.5l-89.2,57.3-1.2.9V70.7a14,14,0,0,0-21.6-11.8L11.2,116.2a14.1,14.1,0,0,0,0,23.6l89.2,57.3a14,14,0,0,0,7.6,2.2,13.4,13.4,0,0,0,6.7-1.7,13.9,13.9,0,0,0,7.3-12.3V138.9l1.2.9,89.2,57.3a14,14,0,0,0,7.6,2.2,13.4,13.4,0,0,0,6.7-1.7,13.9,13.9,0,0,0,7.3-12.3V70.7A13.9,13.9,0,0,0,226.7,58.4ZM110,185.3a2.1,2.1,0,0,1-1,1.8,2,2,0,0,1-2.1-.1L17.7,129.7a2.1,2.1,0,0,1,0-3.4L106.9,69a1.9,1.9,0,0,1,1.1-.4,2.9,2.9,0,0,1,1,.3,2.1,2.1,0,0,1,1,1.8Zm112,0a2.1,2.1,0,0,1-1,1.8,2,2,0,0,1-2.1-.1l-89.2-57.3a2.1,2.1,0,0,1,0-3.4L218.9,69a1.9,1.9,0,0,1,1.1-.4,2.9,2.9,0,0,1,1,.3,2.1,2.1,0,0,1,1,1.8Z"/></svg>