<svg id="Flat" xmlns="http://www.w3.org/2000/svg" viewBox="0 0 256 256">
  <path d="M226.709,58.36572a13.99186,13.99186,0,0,0-14.27929.51123l-89.20606,57.34668A14.14779,14.14779,0,0,0,122,117.12305V70.65332A13.99989,13.99989,0,0,0,100.42969,58.877L11.22363,116.22363a13.99943,13.99943,0,0,0,0,23.55274l89.20606,57.34717A14.00029,14.00029,0,0,0,122,185.34668V138.877a14.14779,14.14779,0,0,0,1.22363.89942l89.20606,57.34717A14.00029,14.00029,0,0,0,234,185.34668V70.65332A13.99362,13.99362,0,0,0,226.709,58.36572ZM110,185.34668a2.00069,2.00069,0,0,1-3.082,1.68262L17.71191,129.68262a2.0011,2.0011,0,0,1,0-3.36524L106.918,68.97119a1.9507,1.9507,0,0,1,1.06933-.33056,2.04486,2.04486,0,0,1,.97071.25732A1.93024,1.93024,0,0,1,110,70.65332Zm112,0a2.00069,2.00069,0,0,1-3.082,1.68262l-89.20606-57.34668a2.0011,2.0011,0,0,1,0-3.36524L218.918,68.97119a1.9507,1.9507,0,0,1,1.06933-.33056,2.04486,2.04486,0,0,1,.97071.25732A1.93024,1.93024,0,0,1,222,70.65332Z"/>
</svg>
