<svg id="Flat" xmlns="http://www.w3.org/2000/svg" viewBox="0 0 256 256">
  <path d="M128,26A102,102,0,1,0,230,128,102.1153,102.1153,0,0,0,128,26Zm0,192a90,90,0,1,1,90-90A90.10217,90.10217,0,0,1,128,218ZM174.83105,90.71a5.99989,5.99989,0,0,0-6.15918.29785L122,122.12231V96a5.99992,5.99992,0,0,0-9.32813-4.99219l-48,32a5.9997,5.9997,0,0,0,0,9.98438l48,32A5.99992,5.99992,0,0,0,122,160V133.87769l46.67187,31.1145A5.99992,5.99992,0,0,0,178,160V96A5.99929,5.99929,0,0,0,174.83105,90.71ZM110,148.78906,78.81641,128,110,107.21094Zm56,0L134.81641,128,166,107.21094Z"/>
</svg>
