<svg xmlns="http://www.w3.org/2000/svg" viewBox="0 0 256 256"><path d="M200,50H134V16a6,6,0,0,0-12,0V50H56A30.1,30.1,0,0,0,26,80V192a30.1,30.1,0,0,0,30,30H200a30.1,30.1,0,0,0,30-30V80A30.1,30.1,0,0,0,200,50Zm18,142a18.1,18.1,0,0,1-18,18H56a18.1,18.1,0,0,1-18-18V80A18.1,18.1,0,0,1,56,62H200a18.1,18.1,0,0,1,18,18Zm-54-54H92a26,26,0,0,0,0,52h72a26,26,0,0,0,0-52Zm-22,12v28H114V150ZM78,164a14,14,0,0,1,14-14h10v28H92A14,14,0,0,1,78,164Zm86,14H154V150h10a14,14,0,0,1,0,28ZM74,108a10,10,0,1,1,10,10A10,10,0,0,1,74,108Zm88,0a10,10,0,1,1,10,10A10,10,0,0,1,162,108Z"/></svg>