<svg id="Flat" xmlns="http://www.w3.org/2000/svg" viewBox="0 0 256 256">
  <path d="M150,224a6.00029,6.00029,0,0,1-6,6H112a6,6,0,0,1,0-12h32A6.00029,6.00029,0,0,1,150,224Zm71.00488-66.86035L208.6416,212.772a13.9193,13.9193,0,0,1-9.01465,10.16748,14.07165,14.07165,0,0,1-4.67871.80469,13.92152,13.92152,0,0,1-8.71875-3.07715L157.89551,198h-59.791l-28.334,22.667a13.99964,13.99964,0,0,1-22.41211-7.89551L34.99512,157.13867a14.09038,14.09038,0,0,1,2.91211-11.99951L67.9314,109.10938a120.64648,120.64648,0,0,1,8.009-35.78028c11.56543-29.78027,32.08008-49.27783,43.2793-58.249h-.001a14.06751,14.06751,0,0,1,17.56738.0581c11.05371,8.98047,31.3086,28.49268,42.75977,58.27149a122.40456,122.40456,0,0,1,7.89587,34.94824l30.651,36.78125A14.09167,14.09167,0,0,1,221.00488,157.13965ZM99.49805,186H156.4668c48.7334-89.6709-8.38868-146.227-27.24707-161.54785a1.97618,1.97618,0,0,0-2.498-.00684h0C107.60254,39.76172,49.709,96.30469,99.49805,186Zm-11.21973,4.49365C76.55615,169.04,69.82983,148.0415,68.108,127.64258L47.126,152.82129a2.01,2.01,0,0,0-.416,1.71387L59.07324,210.169a1.99977,1.99977,0,0,0,3.20117,1.12793ZM208.874,152.82129l-21.45666-25.74805c-1.56433,20.56787-8.14148,41.74805-19.72986,63.39307l26.03809,20.83057a1.99977,1.99977,0,0,0,3.20117-1.12793L209.29,154.53564A2.01066,2.01066,0,0,0,208.874,152.82129ZM128,106a10,10,0,1,0-10-10A10.01146,10.01146,0,0,0,128,106Z"/>
</svg>
