<svg id="Flat" xmlns="http://www.w3.org/2000/svg" viewBox="0 0 256 256">
  <path d="M97.49756,158.502A69.54639,69.54639,0,0,1,118,208a6,6,0,0,1-12,0,57.99911,57.99911,0,0,0-58-58,6,6,0,0,1,0-12A69.54514,69.54514,0,0,1,97.49756,158.502ZM48,90a6,6,0,0,0,0,12A106.00233,106.00233,0,0,1,154,208a6,6,0,0,0,12,0A118.00208,118.00208,0,0,0,48,90Zm117.37988.62109A164.91615,164.91615,0,0,0,48,42a6,6,0,0,0,0,12A152.99348,152.99348,0,0,1,156.89453,99.10547,152.9918,152.9918,0,0,1,202,208a6,6,0,0,0,12,0A164.91164,164.91164,0,0,0,165.37988,90.62109ZM52,194a10,10,0,1,0,10,10A10.01146,10.01146,0,0,0,52,194Z"/>
</svg>
