<svg id="Flat" xmlns="http://www.w3.org/2000/svg" viewBox="0 0 256 256">
  <path d="M97.49756,158.50159A69.54636,69.54636,0,0,1,118,207.99963a6,6,0,1,1-12,0,57.99912,57.99912,0,0,0-58-58,6,6,0,0,1,0-12A69.54511,69.54511,0,0,1,97.49756,158.50159ZM48,89.99963a6,6,0,0,0,0,12,106.00233,106.00233,0,0,1,106,106,6,6,0,1,0,12,0,118.00208,118.00208,0,0,0-118-118Zm117.37988.6211A164.91612,164.91612,0,0,0,48,41.99963a6,6,0,0,0,0,12A152.99352,152.99352,0,0,1,156.89453,99.1051,152.99183,152.99183,0,0,1,202,207.99963a6,6,0,1,0,12,0A164.91162,164.91162,0,0,0,165.37988,90.62073ZM51.99414,195.00012a9,9,0,1,0,9,9A9,9,0,0,0,51.99414,195.00012Z"/>
</svg>
