<svg id="Flat" xmlns="http://www.w3.org/2000/svg" viewBox="0 0 256 256">
  <path d="M230.58594,78.10059l-52.68653-52.6875a14.01894,14.01894,0,0,0-19.79882.001L25.415,158.09961a13.99961,13.99961,0,0,0-.001,19.7998l52.68653,52.6875a14.01969,14.01969,0,0,0,19.79882-.001L230.585,97.89941a13.99843,13.99843,0,0,0,.001-19.79882Zm-8.48535,11.3125v.001L89.415,222.09961a2.00222,2.00222,0,0,1-2.8291.001l-52.68653-52.6875a1.99811,1.99811,0,0,1,0-2.82715L60,140.48535l27.75781,27.75733a5.99971,5.99971,0,0,0,8.48438-8.48536L68.48486,132,96,104.48486l27.75781,27.75782a5.99971,5.99971,0,0,0,8.48438-8.48536L104.48486,96,132,68.48486l27.75781,27.75782a5.99971,5.99971,0,0,0,8.48438-8.48536L140.48486,60,166.585,33.90039a2.00281,2.00281,0,0,1,2.8291-.001l52.68653,52.6875a1.99694,1.99694,0,0,1,0,2.82618Z"/>
</svg>
