<svg xmlns="http://www.w3.org/2000/svg" viewBox="0 0 256 256"><path d="M230.6,78.1,177.9,25.4a14.1,14.1,0,0,0-19.8,0L25.4,158.1a14,14,0,0,0,0,19.8l52.7,52.7a14,14,0,0,0,19.8,0L230.6,97.9a14,14,0,0,0,0-19.8Zm-8.5,11.3h0L89.4,222.1a1.9,1.9,0,0,1-2.8,0L33.9,169.4a1.9,1.9,0,0,1,0-2.8L60,140.5l27.8,27.7a5.9,5.9,0,0,0,8.4-8.4L68.5,132,96,104.5l27.8,27.7a5.9,5.9,0,1,0,8.4-8.4L104.5,96,132,68.5l27.8,27.7a5.9,5.9,0,1,0,8.4-8.4L140.5,60l26.1-26.1a1.9,1.9,0,0,1,2.8,0l52.7,52.7a1.9,1.9,0,0,1,0,2.8Z"/></svg>