<svg id="Flat" xmlns="http://www.w3.org/2000/svg" viewBox="0 0 256 256">
  <path d="M237.5708,133.77148l-32-80c-.00928-.02343-.02344-.04394-.0332-.06738a5.90794,5.90794,0,0,0-.35987-.73389c-.01123-.019-.02441-.03662-.03564-.05566a6.00359,6.00359,0,0,0-.42627-.61426c-.03369-.043-.06641-.08593-.10107-.12793a6.0033,6.0033,0,0,0-.53174-.56494c-.03613-.0332-.07471-.06347-.11182-.0957a6.00033,6.00033,0,0,0-.5083-.40186c-.05469-.03857-.10791-.07861-.16357-.11523a6.00815,6.00815,0,0,0-.644-.37012c-.05713-.02832-.11621-.05224-.17431-.07861a6.00168,6.00168,0,0,0-.58936-.23194c-.05713-.019-.11279-.04052-.17041-.05761a5.92562,5.92562,0,0,0-.75146-.17334c-.05616-.00879-.1128-.01465-.16944-.02246a5.97763,5.97763,0,0,0-.71435-.0542C200.05664,50.00586,200.0293,50,200,50c-.01123,0-.022.00244-.0332.00244a6.01782,6.01782,0,0,0-.79541.06006c-.06592.00928-.13037.022-.1958.0332-.09229.01612-.18457.02637-.27735.04688L134,64.52V40a6,6,0,0,0-12,0V67.18652L54.69824,82.14258c-.12646.02832-.248.06689-.37109.10254-.04834.01367-.09717.0249-.145.04a5.90082,5.90082,0,0,0-.74121.2915c-.03809.01807-.07471.03809-.1128.05713a5.95034,5.95034,0,0,0-.6333.36426c-.02783.01855-.05664.03515-.084.05371a5.94865,5.94865,0,0,0-.63037.498c-.03174.02881-.06152.05958-.09277.08887a5.949,5.949,0,0,0-.48731.51758c-.02734.03271-.05713.064-.084.09766a6.03512,6.03512,0,0,0-.44532.6416c-.03027.0498-.05761.10058-.08642.15137a6.01108,6.01108,0,0,0-.34278.69873c-.00341.00878-.00927.0166-.01269.02587l-.0083.02051-.00879.02246-31.98291,79.957A5.9966,5.9966,0,0,0,18,168c0,21.85547,23.30811,30,38,30s38-8.14453,38-30a5.9966,5.9966,0,0,0-.4292-2.22852L64.19238,92.32617,122,79.48V210H104a6,6,0,0,0,0,12h48a6,6,0,0,0,0-12H134V76.81348l56.209-12.49121L162.4292,133.77148A5.9966,5.9966,0,0,0,162,136c0,21.85547,23.30811,30,38,30s38-8.14453,38-30A5.9966,5.9966,0,0,0,237.5708,133.77148ZM56,186a36.87757,36.87757,0,0,1-17.477-4.55566c-5.37061-3.13184-8.15674-7.1875-8.48926-12.37305L56,104.15527l25.96533,64.91309C81.05566,182.85449,62.57861,186,56,186Zm144-32a36.88071,36.88071,0,0,1-17.47754-4.55566c-5.37012-3.13184-8.15625-7.1875-8.48877-12.37305L200,72.15527l25.96484,64.91309C225.05566,150.85449,206.57812,154,200,154Z"/>
</svg>
