<svg xmlns="http://www.w3.org/2000/svg" viewBox="0 0 256 256"><path d="M237.6,133.8l-32-80h-.1l-.3-.7a.1.1,0,0,0-.1-.1,2.1,2.1,0,0,0-.4-.6h-.1l-.5-.6a.1.1,0,0,1-.1-.1l-.5-.4h-.2l-.6-.4c-.1,0-.2,0-.2-.1l-.6-.2h-.2l-.7-.2h-2.3L134,64.5V40a6,6,0,0,0-12,0V67.2L54.7,82.1h-.5l-.8.3h-.1l-.6.4h-.1l-.6.4h-.1l-.5.6h-.1l-.4.6h-.1a4.3,4.3,0,0,1-.4.7h0l-32,80A5.4,5.4,0,0,0,18,168c0,21.9,23.3,30,38,30s38-8.1,38-30a5.4,5.4,0,0,0-.4-2.2L64.2,92.3,122,79.5V210H104a6,6,0,0,0,0,12h48a6,6,0,0,0,0-12H134V76.8l56.2-12.5-27.8,69.5a5.4,5.4,0,0,0-.4,2.2c0,21.9,23.3,30,38,30s38-8.1,38-30A5.4,5.4,0,0,0,237.6,133.8ZM56,186a36.6,36.6,0,0,1-17.5-4.6c-5.3-3.1-8.1-7.1-8.5-12.3l26-64.9,26,64.9C81.1,182.9,62.6,186,56,186Zm144-32a36.6,36.6,0,0,1-17.5-4.6c-5.3-3.1-8.1-7.1-8.5-12.3l26-64.9,26,64.9C225.1,150.9,206.6,154,200,154Z"/></svg>