<svg xmlns="http://www.w3.org/2000/svg" viewBox="0 0 256 256"><path d="M222,40V80a6,6,0,0,1-12,0V46H176a6,6,0,0,1,0-12h40A6,6,0,0,1,222,40ZM80,210H46V176a6,6,0,0,0-12,0v40a6,6,0,0,0,6,6H80a6,6,0,0,0,0-12Zm136-40a6,6,0,0,0-6,6v34H176a6,6,0,0,0,0,12h40a6,6,0,0,0,6-6V176A6,6,0,0,0,216,170ZM40,86a6,6,0,0,0,6-6V46H80a6,6,0,0,0,0-12H40a6,6,0,0,0-6,6V80A6,6,0,0,0,40,86Zm128,96H88a14,14,0,0,1-14-14V88A14,14,0,0,1,88,74h80a14,14,0,0,1,14,14v80A14,14,0,0,1,168,182Zm2-94a2,2,0,0,0-2-2H88a2,2,0,0,0-2,2v80a2,2,0,0,0,2,2h80a2,2,0,0,0,2-2Z"/></svg>