<svg xmlns="http://www.w3.org/2000/svg" viewBox="0 0 256 256"><path d="M159.4,112a5.9,5.9,0,0,1,1.5-8.3l67.7-46.3a6.1,6.1,0,0,1,8.4,1.5,6.2,6.2,0,0,1-1.6,8.4l-67.7,46.3a5.9,5.9,0,0,1-3.4,1A5.8,5.8,0,0,1,159.4,112ZM237,197.1a6.1,6.1,0,0,1-5,2.6,6,6,0,0,1-3.4-1.1L136,135.3,91,166.1A33.6,33.6,0,0,1,94,180a34,34,0,1,1-34-34,33.8,33.8,0,0,1,24.2,10.2L125.4,128,84.2,99.8A33.8,33.8,0,0,1,60,110,34,34,0,1,1,94,76a33.6,33.6,0,0,1-3,13.9l144.4,98.8A6.2,6.2,0,0,1,237,197.1ZM82,76A22,22,0,1,0,60,98,22.1,22.1,0,0,0,82,76Zm0,104a22,22,0,1,0-22,22A22.1,22.1,0,0,0,82,180Z"/></svg>