<svg id="Flat" xmlns="http://www.w3.org/2000/svg" viewBox="0 0 256 256">
  <path d="M159.38281,112.001a5.99952,5.99952,0,0,1,1.56348-8.33985l67.66553-46.29785a6.0003,6.0003,0,0,1,6.77636,9.9043l-67.66552,46.29785a5.99757,5.99757,0,0,1-8.33985-1.56445Zm77.56885,85.07129a5.99756,5.99756,0,0,1-8.33984,1.56445l-92.61206-63.36621L90.999,166.061a34.07565,34.07565,0,1,1-6.78466-9.89869L125.374,128.00024,84.21387,99.83789a33.98591,33.98591,0,1,1,6.78491-9.89844l144.3894,98.793A5.99951,5.99951,0,0,1,236.95166,197.07227ZM82,76A22,22,0,1,0,60,98,22.02489,22.02489,0,0,0,82,76Zm0,104a22,22,0,1,0-22,22A22.02489,22.02489,0,0,0,82,180Z"/>
</svg>
