<svg id="Flat" xmlns="http://www.w3.org/2000/svg" viewBox="0 0 256 256">
  <path d="M229.99414,56V200a14.01572,14.01572,0,0,1-14,14h-72a6,6,0,0,1,0-12h72a2.00229,2.00229,0,0,0,2-2V56a2.00229,2.00229,0,0,0-2-2h-176a2.00229,2.00229,0,0,0-2,2V96a6,6,0,0,1-12,0V56a14.01572,14.01572,0,0,1,14-14h176A14.01572,14.01572,0,0,1,229.99414,56Zm-198,130a6,6,0,0,0,0,12,10.01146,10.01146,0,0,1,10,10,6,6,0,0,0,12,0A22.02489,22.02489,0,0,0,31.99414,186Zm0-32a6,6,0,0,0,0,12,42.0475,42.0475,0,0,1,42,42,6,6,0,0,0,12,0A54.06124,54.06124,0,0,0,31.99414,154Zm0-32a6,6,0,0,0,0,12,74.08385,74.08385,0,0,1,74,74,6,6,0,0,0,12,0A86.09728,86.09728,0,0,0,31.99414,122Z"/>
</svg>
