<svg id="Flat" xmlns="http://www.w3.org/2000/svg" viewBox="0 0 256 256">
  <path d="M244.60938,156.15869c-1.23731-1.48486-23.05469-27.1875-60.13868-41.207-1.89746-17.89648-8.57812-34.2085-19.2832-46.74121C150.542,51.06348,129.38379,42,104,42,53.49316,42,20.49707,87.38037,19.11719,89.31251A6,6,0,0,0,28.87793,96.293C29.18164,95.87012,59.749,54,104,54c21.76465,0,39.76758,7.60889,52.06348,22.00391,8.05761,9.4336,13.44922,21.47265,15.73144,34.82226A135.19886,135.19886,0,0,0,136,106c-25.584,0-47.0166,6.647-61.98047,19.22314-13.10644,11.01465-20.624,26.33252-20.624,42.0254a45.60651,45.60651,0,0,0,13.28222,32.6372C75.957,209.11914,88.8623,214,104,214c24.60156,0,45.53027-9.72168,60.52539-28.11377,12.5166-15.35352,19.90625-36.23437,20.46973-57.64551,31.47754,13.41553,50.13281,35.28662,50.39551,35.60059a6.00017,6.00017,0,0,0,9.21875-7.68262ZM104,202c-18.59277,0-38.60449-10.875-38.60449-34.75146C65.39551,143.5293,87.49023,118,136,118a122.19251,122.19251,0,0,1,37.01172,5.79492c.01269.60059.01855,1.20459.01855,1.80811C173.03027,175.7583,138.30371,202,104,202Z"/>
</svg>
