<svg xmlns="http://www.w3.org/2000/svg" viewBox="0 0 256 256"><path d="M98,104a6,6,0,0,1,6-6h64a6,6,0,0,1,0,12H104A6,6,0,0,1,98,104Zm70,38a6,6,0,0,0,0-12H104a6,6,0,0,0,0,12Zm62,50a30.1,30.1,0,0,1-30,30H88a30.1,30.1,0,0,1-30-30V64a18,18,0,0,0-36,0,17.8,17.8,0,0,0,4.6,12,6,6,0,1,1-9,8A30,30,0,0,1,40,34H176a30.1,30.1,0,0,1,30,30V170h11.9a6.1,6.1,0,0,1,4.5,2A30,30,0,0,1,230,192Zm-124,0a17.8,17.8,0,0,0-4.6-12,5.8,5.8,0,0,1-1-6.4,6,6,0,0,1,5.5-3.6H194V64a18.1,18.1,0,0,0-18-18H64a29.7,29.7,0,0,1,6,18V192a18,18,0,0,0,36,0Zm112,0a18.4,18.4,0,0,0-3-10H116.3a30.9,30.9,0,0,1,1.7,10,29.7,29.7,0,0,1-6,18h88A18.1,18.1,0,0,0,218,192Z"/></svg>