<svg id="Flat" xmlns="http://www.w3.org/2000/svg" viewBox="0 0 256 256">
  <path d="M106,40a6.00029,6.00029,0,0,1,6-6h32a6,6,0,0,1,0,12H112A6.00029,6.00029,0,0,1,106,40Zm38,170H112a6,6,0,0,0,0,12h32a6,6,0,0,0,0-12ZM208,34H184a6,6,0,0,0,0,12h24a2.002,2.002,0,0,1,2,2V71.99951a6,6,0,0,0,12,0V48A14.01572,14.01572,0,0,0,208,34Zm8,71.99951a6.0003,6.0003,0,0,0-6,6v32a6,6,0,0,0,12,0v-32A6.0003,6.0003,0,0,0,216,105.99951Zm-176,44a6.00029,6.00029,0,0,0,6-6v-32a6,6,0,1,0-12,0v32A6.00029,6.00029,0,0,0,40,149.99951ZM72,210H48a2.00229,2.00229,0,0,1-2-2V184a6,6,0,0,0-12,0v24a14.01572,14.01572,0,0,0,14,14H72a6,6,0,0,0,0-12ZM52.43945,35.96387a5.99992,5.99992,0,0,0-8.8789,8.07226l160,176a5.99992,5.99992,0,0,0,8.8789-8.07226Z"/>
</svg>
