<svg id="Flat" xmlns="http://www.w3.org/2000/svg" viewBox="0 0 256 256">
  <path d="M159.999,81.99414h-112a14.01573,14.01573,0,0,0-14,14v112a14.01573,14.01573,0,0,0,14,14h112a14.01572,14.01572,0,0,0,14-14v-112A14.01572,14.01572,0,0,0,159.999,81.99414Zm2,126a2.00229,2.00229,0,0,1-2,2h-112a2.0023,2.0023,0,0,1-2-2v-112a2.0023,2.0023,0,0,1,2-2h112a2.00229,2.00229,0,0,1,2,2ZM138,40a6.00029,6.00029,0,0,1,6-6h16a6,6,0,0,1,0,12H144A6.00029,6.00029,0,0,1,138,40Zm84,8v8a6,6,0,0,1-12,0V48a2.00229,2.00229,0,0,0-2-2h-8a6,6,0,0,1,0-12h8A14.01572,14.01572,0,0,1,222,48Zm0,48v16a6,6,0,0,1-12,0V96a6,6,0,0,1,12,0Zm0,56v8a14.01572,14.01572,0,0,1-14,14h-8a6,6,0,0,1,0-12h8a2.00229,2.00229,0,0,0,2-2v-8a6,6,0,0,1,12,0ZM82,56V48A14.01572,14.01572,0,0,1,96,34h8a6,6,0,0,1,0,12H96a2.00229,2.00229,0,0,0-2,2v8a6,6,0,0,1-12,0Z"/>
</svg>
