<svg id="Flat" xmlns="http://www.w3.org/2000/svg" viewBox="0 0 256 256">
  <path d="M62,216a6.00029,6.00029,0,0,1-6,6H48a14.01572,14.01572,0,0,1-14-14v-8a6,6,0,0,1,12,0v8a2.00229,2.00229,0,0,0,2,2h8A6.00029,6.00029,0,0,1,62,216Zm50-6H96a6,6,0,0,0,0,12h16a6,6,0,0,0,0-12ZM40,166a6.00029,6.00029,0,0,0,6-6V144a6,6,0,0,0-12,0v16A6.00029,6.00029,0,0,0,40,166Zm128,28a6.00029,6.00029,0,0,0-6,6v8a2.00229,2.00229,0,0,1-2,2h-8a6,6,0,0,0,0,12h8a14.01572,14.01572,0,0,0,14-14v-8A6.00029,6.00029,0,0,0,168,194Zm0-84a6.00029,6.00029,0,0,0,6-6V96a14.01572,14.01572,0,0,0-14-14h-8a6,6,0,0,0,0,12h8a2.00229,2.00229,0,0,1,2,2v8A6.00029,6.00029,0,0,0,168,110ZM56,82H48A14.01572,14.01572,0,0,0,34,96v8a6,6,0,0,0,12,0V96a2.00229,2.00229,0,0,1,2-2h8a6,6,0,0,0,0-12ZM207.999,33.99414h-112a14.01573,14.01573,0,0,0-14,14V88a6.0003,6.0003,0,0,0,6,6H112a6,6,0,0,0,0-12H93.999V47.99414a2.0023,2.0023,0,0,1,2-2h112a2.00229,2.00229,0,0,1,2,2v112a2.00229,2.00229,0,0,1-2,2H174V144a6,6,0,0,0-12,0v24a6.00029,6.00029,0,0,0,6,6c.03906,0,.0769-.00513.116-.00586H207.999a14.01572,14.01572,0,0,0,14-14v-112A14.01572,14.01572,0,0,0,207.999,33.99414Z"/>
</svg>
