<svg xmlns="http://www.w3.org/2000/svg" viewBox="0 0 256 256"><path d="M150,216a6,6,0,0,1-6,6H112a6,6,0,0,1,0-12h32A6,6,0,0,1,150,216ZM40,150a6,6,0,0,0,6-6V112a6,6,0,0,0-12,0v32A6,6,0,0,0,40,150Zm32,60H48a2,2,0,0,1-2-2V184a6,6,0,0,0-12,0v24a14,14,0,0,0,14,14H72a6,6,0,0,0,0-12Zm150-2a13.8,13.8,0,0,1-4,9.8h-.2a13.8,13.8,0,0,1-9.8,4H184a6,6,0,0,1,0-12h17.5L46,54.5V72a6,6,0,0,1-12,0V48a13.8,13.8,0,0,1,4-9.8.1.1,0,0,0,.1-.1.1.1,0,0,0,.1-.1A13.8,13.8,0,0,1,48,34H208a14,14,0,0,1,14,14ZM208,46H54.5L210,201.5V48A2,2,0,0,0,208,46Z"/></svg>