<svg id="Flat" xmlns="http://www.w3.org/2000/svg" viewBox="0 0 256 256">
  <path d="M146,48a6.00029,6.00029,0,0,1-6,6H116a6,6,0,0,1,0-12h24A6.00029,6.00029,0,0,1,146,48Zm-6,154H116a6,6,0,0,0,0,12h24a6,6,0,0,0,0-12ZM180,54h20a2.002,2.002,0,0,1,2,2V76a6,6,0,0,0,12,0V56a14.01572,14.01572,0,0,0-14-14H180a6,6,0,0,0,0,12Zm28,55.99951a6.0003,6.0003,0,0,0-6,6v24a6,6,0,0,0,12,0v-24A6.0003,6.0003,0,0,0,208,109.99951Zm-160,36a6.00029,6.00029,0,0,0,6-6v-24a6,6,0,1,0-12,0v24A6.00029,6.00029,0,0,0,48,145.99951ZM76,202H56a2.002,2.002,0,0,1-2-2V180a6,6,0,0,0-12,0v20a14.01572,14.01572,0,0,0,14,14H76a6,6,0,0,0,0-12ZM76,42H56A14.01572,14.01572,0,0,0,42,56V76a6,6,0,0,0,12,0V56a2.002,2.002,0,0,1,2-2H76a6,6,0,0,0,0-12ZM236,202H214V180a6,6,0,0,0-12,0v22H180a6,6,0,0,0,0,12h22v22a6,6,0,0,0,12,0V214h22a6,6,0,0,0,0-12Z"/>
</svg>
