<svg id="Flat" xmlns="http://www.w3.org/2000/svg" viewBox="0 0 256 256">
  <path d="M176,162a37.91017,37.91017,0,0,0-28.30029,12.675L98.7998,143.23926a37.88456,37.88456,0,0,0,0-30.47852L147.69971,81.325a37.945,37.945,0,1,0-6.49951-10.0863L92.2998,102.67444a38,38,0,1,0,0,50.65112l48.9004,31.43579A37.99342,37.99342,0,1,0,176,162Zm0-132a26,26,0,1,1-26,26A26.02885,26.02885,0,0,1,176,30ZM64,154a26,26,0,1,1,26-26A26.02885,26.02885,0,0,1,64,154Zm112,72a26,26,0,1,1,26-26A26.02885,26.02885,0,0,1,176,226Z"/>
</svg>
