<svg id="Flat" xmlns="http://www.w3.org/2000/svg" viewBox="0 0 256 256">
  <path d="M198,216a6.00029,6.00029,0,0,1-6,6H40a14.01572,14.01572,0,0,1-14-14V88a6,6,0,0,1,12,0V208a2.0026,2.0026,0,0,0,2,2H192A6.00029,6.00029,0,0,1,198,216Zm30.99756-108.68213c.01306-.01953.02368-.04053.03662-.06006a5.98265,5.98265,0,0,0,.5144-.97754c.01026-.0249.01758-.0498.02735-.0747a5.92837,5.92837,0,0,0,.30932-1.04346c.00391-.019.00537-.03857.00892-.05811a5.81128,5.81128,0,0,0,0-2.208c-.00355-.01954-.005-.03907-.00892-.05811a5.935,5.935,0,0,0-.3092-1.043c-.00989-.0249-.01721-.05029-.02747-.07519a6.00206,6.00206,0,0,0-.5144-.97754c-.01294-.01953-.02344-.04053-.03662-.06006a6.03026,6.03026,0,0,0-.76306-.93213L180.24219,51.75781a5.99936,5.99936,0,0,0-8.48438,8.48438L209.51477,98H168a101.94182,101.94182,0,0,0-98.78613,76.50488A5.99982,5.99982,0,1,0,80.835,177.49512,89.94505,89.94505,0,0,1,168,110h41.51477l-37.757,37.75781a5.99936,5.99936,0,1,0,8.48438,8.48438L228.2345,108.25A6.03026,6.03026,0,0,0,228.99756,107.31787Z"/>
</svg>
