<svg xmlns="http://www.w3.org/2000/svg" viewBox="0 0 256 256"><path d="M222,114.7V56a14,14,0,0,0-14-14H48A14,14,0,0,0,34,56v58.7q0,7,.6,13.8v.2c7.4,77.2,74.8,103.5,88.9,108.2a13.5,13.5,0,0,0,4.4.7,12.9,12.9,0,0,0,4.3-.7c14.2-4.7,81.6-31,89-108.2v-.3A121.9,121.9,0,0,0,222,114.7ZM210,56v58.7c0,2.5-.1,4.9-.2,7.3H134V54h74A2,2,0,0,1,210,56ZM46,56a2,2,0,0,1,2-2h74v68H46.2c-.1-2.4-.2-4.8-.2-7.3Zm1.4,78H122v89.6C103.2,216.1,56.2,191.9,47.4,134ZM134,223.5V134h74.6C199.8,191.9,152.8,216.1,134,223.5Z"/></svg>