<svg id="Flat" xmlns="http://www.w3.org/2000/svg" viewBox="0 0 256 256">
  <path d="M127.99951,229.64929a13.74956,13.74956,0,0,1-4.34472-.717c-14.97071-4.96362-89.6543-34.187-89.6543-122.26562V48.00012a14.01551,14.01551,0,0,1,13.999-14h160a14.01572,14.01572,0,0,1,14,14l.001,58.66651c0,88.07836-74.68457,117.30175-89.65528,122.26562A13.751,13.751,0,0,1,127.99951,229.64929Zm-80-183.64917a2.00161,2.00161,0,0,0-1.999,2v58.66651c0,79.83251,67.833,106.36694,81.43164,110.87548a1.584,1.584,0,0,0,1.13574,0c13.59863-4.50854,81.43262-31.04321,81.43262-110.87548l-.001-58.66651a2.00245,2.00245,0,0,0-2-2Z"/>
</svg>
