<svg id="Flat" xmlns="http://www.w3.org/2000/svg" viewBox="0 0 256 256">
  <path d="M207.99463,41.99512h-160a14.01572,14.01572,0,0,0-14,14v58.667c0,88.083,74.68408,117.30273,89.65527,122.26562a13.52424,13.52424,0,0,0,8.689,0c14.97168-4.96289,89.65576-34.18261,89.65576-122.26562v-58.667A14.01572,14.01572,0,0,0,207.99463,41.99512Zm2,72.667c0,79.83691-67.8335,106.36719-81.43213,110.875a1.59315,1.59315,0,0,1-1.13623,0c-13.59815-4.50781-81.43164-31.03809-81.43164-110.875v-58.667a2.00229,2.00229,0,0,1,2-2h160a2.00229,2.00229,0,0,1,2,2ZM166,128a6.00029,6.00029,0,0,1-6,6H134v26a6,6,0,0,1-12,0V134H96a6,6,0,0,1,0-12h26V96a6,6,0,0,1,12,0v26h26A6.00029,6.00029,0,0,1,166,128Z"/>
</svg>
