<svg id="Flat" xmlns="http://www.w3.org/2000/svg" viewBox="0 0 256 256">
  <path d="M221.99951,48.00012a14.01572,14.01572,0,0,0-14-14h-160a14.01551,14.01551,0,0,0-13.999,14v58.66651c0,88.07714,74.68359,117.30175,89.6543,122.26611a13.52864,13.52864,0,0,0,8.69042,0c14.97071-4.96436,89.65528-34.189,89.65528-122.26611Zm-93.43164,169.542a1.57383,1.57383,0,0,1-1.13574,0c-13.59863-4.5083-81.43164-31.04394-81.43164-110.87548V48.00012a2.00145,2.00145,0,0,1,1.999-2h160a2.00229,2.00229,0,0,1,2,2l.001,58.66651C210.00049,186.49768,142.1665,213.03332,128.56787,217.54211ZM176.34033,91.85705a6,6,0,0,1-.19726,8.4834l-58.667,56a5.99982,5.99982,0,0,1-8.28515,0l-29.333-28a6,6,0,0,1,8.28516-8.68066L113.3335,143.7052l54.52441-52.04541A5.99972,5.99972,0,0,1,176.34033,91.85705Z"/>
</svg>
