<svg xmlns="http://www.w3.org/2000/svg" viewBox="0 0 256 256"><path d="M208,42H48A14,14,0,0,0,34,56v58.7c0,88,74.7,117.3,89.7,122.2a13.6,13.6,0,0,0,8.6,0c15-4.9,89.7-34.2,89.7-122.2V56A14,14,0,0,0,208,42Zm2,72.7c0,79.8-67.8,106.3-81.4,110.8a1.3,1.3,0,0,1-1.2,0C113.8,221,46,194.5,46,114.7V56a2,2,0,0,1,2-2H208a2,2,0,0,1,2,2Zm-38.3,7.1a5.9,5.9,0,0,1-3.8,7.5l-30.2,9.9,18.7,25.6a6.1,6.1,0,0,1-1.4,8.4,5.7,5.7,0,0,1-3.5,1.2,5.9,5.9,0,0,1-4.8-2.5L128,146.2l-18.7,25.7a5.9,5.9,0,0,1-4.8,2.5,5.7,5.7,0,0,1-3.5-1.2,6.1,6.1,0,0,1-1.4-8.4l18.7-25.6-30.2-9.9a6,6,0,0,1,3.7-11.4l30.2,9.8V96a6,6,0,0,1,12,0v31.7l30.2-9.8A6,6,0,0,1,171.7,121.8Z"/></svg>