<svg id="Flat" xmlns="http://www.w3.org/2000/svg" viewBox="0 0 256 256">
  <path d="M226.93994,227.96484l-34.97949-38.49609-.04-.04395L37.93994,19.96484a6,6,0,0,0-8.88086,8.07032L42.70117,43.04834A14.0163,14.0163,0,0,0,33.99951,56v58.667c0,88.07617,74.68457,117.30176,89.65528,122.26563a13.52881,13.52881,0,0,0,8.69042,0c7.7378-2.56543,33.35938-12.30152,55.13917-34.5459l30.5747,33.64844a6,6,0,0,0,8.88086-8.07032ZM128.56787,225.542a1.59181,1.59181,0,0,1-1.13574,0c-13.59863-4.50879-81.43262-31.04394-81.43262-110.875V56a2.0026,2.0026,0,0,1,2-2h4.65283L179.39941,193.489C159.4248,214.1582,135.69141,223.17993,128.56787,225.542ZM92.54443,48a6.0003,6.0003,0,0,1,6-6H207.99951a14.01572,14.01572,0,0,1,14,14v58.667c0,19.417-3.70215,37.43262-11.00488,53.54785a5.99982,5.99982,0,0,1-10.92969-4.95312c6.5918-14.54883,9.93457-30.89844,9.93457-48.59473V56a2.0026,2.0026,0,0,0-2-2H98.54443A6.0003,6.0003,0,0,1,92.54443,48Z"/>
</svg>
