<svg id="Flat" xmlns="http://www.w3.org/2000/svg" viewBox="0 0 256 256">
  <path d="M226.98486,227.96387l-189.09082-208a5.99992,5.99992,0,0,0-8.8789,8.07226l9.12451,10.03711A13.95473,13.95473,0,0,0,33.99951,48v58.667c0,88.07617,74.68457,117.30176,89.65528,122.26563a13.52881,13.52881,0,0,0,8.69042,0,145.92308,145.92308,0,0,0,51.30909-30.79346l34.45166,37.897a5.99992,5.99992,0,0,0,8.8789-8.07226Zm-98.417-10.42188a1.59181,1.59181,0,0,1-1.13574,0c-13.59863-4.50879-81.43262-31.04394-81.43262-110.875V48a1.97946,1.97946,0,0,1,.26953-.98438L175.584,189.26172A133.13584,133.13584,0,0,1,128.56787,217.542ZM85.24658,40a6.0003,6.0003,0,0,1,6-6H207.99951a14.01572,14.01572,0,0,1,14,14v58.667c0,21.65821-4.59668,41.51856-13.66308,59.02832a6,6,0,1,1-10.65625-5.51758c8.1748-15.78808,12.31933-33.792,12.31933-53.51074V48a2.0026,2.0026,0,0,0-2-2H91.24658A6.0003,6.0003,0,0,1,85.24658,40Z"/>
</svg>
