<svg id="Flat" xmlns="http://www.w3.org/2000/svg" viewBox="0 0 256 256">
  <path d="M207.99951,34h-160a14.01573,14.01573,0,0,0-14,14v58.667c0,88.07813,74.68457,117.30176,89.65528,122.26563a13.52587,13.52587,0,0,0,8.68945,0c14.9707-4.96387,89.65527-34.1875,89.65527-122.26563V48A14.01572,14.01572,0,0,0,207.99951,34Zm2,72.667c0,79.832-67.834,106.36621-81.43262,110.875a1.57882,1.57882,0,0,1-1.13476,0c-13.59863-4.50879-81.43262-31.043-81.43262-110.875V48a2.0026,2.0026,0,0,1,2-2h160a2.0026,2.0026,0,0,1,2,2Zm-88,21.333V88a6,6,0,1,1,12,0v40a6,6,0,1,1-12,0Zm16.001,36v.00293a10.00147,10.00147,0,1,1,0-.00293Z"/>
</svg>
