<svg id="Flat" xmlns="http://www.w3.org/2000/svg" viewBox="0 0 256 256">
  <path d="M221.99463,114.66211v-58.667a14.01572,14.01572,0,0,0-14-14h-160a14.01572,14.01572,0,0,0-14,14v58.667c0,4.77466.23193,9.366.64941,13.80029.00684.08985.01465.179.02539.26758,7.41455,77.16211,74.83741,103.50928,88.98047,108.19775a13.52424,13.52424,0,0,0,8.689,0c14.14258-4.688,81.55517-31.03125,88.97949-108.17871.01269-.103.022-.20678.0293-.31152C221.76367,124.011,221.99463,119.42773,221.99463,114.66211Zm-12-58.667v58.667q0,3.7467-.1958,7.33789H134V53.99512h73.99463A2.00229,2.00229,0,0,1,209.99463,55.99512Zm-164,0a2.00229,2.00229,0,0,1,2-2H122V122H46.19043q-.19409-3.5918-.1958-7.33789ZM47.41943,134H122v89.5542C103.19336,216.11621,56.17285,191.94312,47.41943,134ZM134,223.5498V134h74.56982C199.81836,191.93188,152.81445,216.10693,134,223.5498Z"/>
</svg>
