<svg xmlns="http://www.w3.org/2000/svg" viewBox="0 0 256 256"><path d="M222,56a14,14,0,0,0-14-14H48A14,14,0,0,0,34,56v58.7c0,88,74.7,117.3,89.7,122.2a13.6,13.6,0,0,0,8.6,0c15-4.9,89.7-34.2,89.7-122.2ZM128.6,225.5a1.3,1.3,0,0,1-1.2,0C113.8,221,46,194.5,46,114.7V56a2,2,0,0,1,2-2H208a2,2,0,0,1,2,2v58.7C210,194.5,142.2,221,128.6,225.5ZM176.3,99.9a5.9,5.9,0,0,1-.2,8.4l-58.6,56a6.3,6.3,0,0,1-4.2,1.7,5.8,5.8,0,0,1-4.1-1.7l-29.3-28a5.9,5.9,0,0,1,8.2-8.6l25.2,24,54.6-52A5.9,5.9,0,0,1,176.3,99.9Z"/></svg>