<svg id="Flat" xmlns="http://www.w3.org/2000/svg" viewBox="0 0 256 256">
  <path d="M94,216a14,14,0,1,1-14-14A14.00007,14.00007,0,0,1,94,216Zm90-14a14,14,0,1,0,14,14A14.00007,14.00007,0,0,0,184,202ZM227.4834,73.64844,201.085,166.044A22.092,22.092,0,0,1,179.93164,182H84.06836A22.09183,22.09183,0,0,1,62.915,166.04346L36.54688,73.75537c-.02051-.06885-.041-.13818-.05958-.208L26.74512,39.45068A2.00816,2.00816,0,0,0,24.82227,38H8A6,6,0,0,1,8,26H24.82227A14.06065,14.06065,0,0,1,38.28418,36.15381L46.81152,66H221.71387a6.00047,6.00047,0,0,1,5.76953,7.64844ZM213.75977,78H50.24023L74.4541,162.74707A10.04067,10.04067,0,0,0,84.06836,170h95.86328a10.04081,10.04081,0,0,0,9.61426-7.25244Z"/>
</svg>
