<svg id="Flat" xmlns="http://www.w3.org/2000/svg" viewBox="0 0 256 256">
  <path d="M225.16406,63.0293A13.96548,13.96548,0,0,0,214.415,58H45.02637L39.82715,29.48877A13.99439,13.99439,0,0,0,26.05371,18H8A6,6,0,0,0,8,30H26.05371a2.00092,2.00092,0,0,1,1.96875,1.64111l6.00391,32.92871a6.0291,6.0291,0,0,0,.18554,1.01807L53.3457,170.51123A13.99413,13.99413,0,0,0,67.11816,182H196.9707a13.99347,13.99347,0,0,0,13.77442-11.49707l17.44433-95.99951A13.96642,13.96642,0,0,0,225.16406,63.0293Zm-8.78125,9.32812-17.44433,96A1.99949,1.99949,0,0,1,196.9707,170H67.11816a1.99989,1.99989,0,0,1-1.96777-1.64111L47.21484,70H214.415a1.99882,1.99882,0,0,1,1.96777,2.35742ZM86,216a14,14,0,1,1-14-14A14.01572,14.01572,0,0,1,86,216Zm120,0a14,14,0,1,1-14-14A14.01572,14.01572,0,0,1,206,216Z"/>
</svg>
