<svg xmlns="http://www.w3.org/2000/svg" viewBox="0 0 256 256"><path d="M209.7,131.9l12.2-66.8a6.1,6.1,0,0,0-1.3-4.9A5.8,5.8,0,0,0,216,58H53L47.8,29.5A13.9,13.9,0,0,0,34.1,18H16a6,6,0,0,0,0,12H34.1A2,2,0,0,1,36,31.6L63.7,183.8A26,26,0,1,0,106,204a25.6,25.6,0,0,0-4.1-14h60.2a25.6,25.6,0,0,0-4.1,14,26,26,0,1,0,26-26H74.8l-5.1-28H188.1A22,22,0,0,0,209.7,131.9ZM94,204a14,14,0,1,1-14-14A14,14,0,0,1,94,204Zm104,0a14,14,0,1,1-14-14A14,14,0,0,1,198,204ZM55.2,70H208.8l-10.9,59.8a10,10,0,0,1-9.8,8.2H67.6Z"/></svg>