<svg id="Flat" xmlns="http://www.w3.org/2000/svg" viewBox="0 0 256 256">
  <path d="M84,216a12,12,0,1,1-12-12A12,12,0,0,1,84,216Zm108-12a12,12,0,1,0,12,12A12,12,0,0,0,192,204ZM228.18945,74.50342l-17.44433,95.99951A13.99347,13.99347,0,0,1,196.9707,182H67.11816A13.99413,13.99413,0,0,1,53.3457,170.51123L34.21191,65.58789a6.0291,6.0291,0,0,1-.18554-1.01807L28.02246,31.64111A2.00092,2.00092,0,0,0,26.05371,30H8A6,6,0,0,1,8,18H26.05371A13.99439,13.99439,0,0,1,39.82715,29.48877L45.02637,58H214.415a13.99913,13.99913,0,0,1,13.77441,16.50342Zm-12.23828-3.78516A1.97692,1.97692,0,0,0,214.415,70H47.21484l17.93555,98.35889A1.99989,1.99989,0,0,0,67.11816,170H196.9707a1.99949,1.99949,0,0,0,1.96778-1.64258l17.44433-96A1.9753,1.9753,0,0,0,215.95117,70.71826Z"/>
</svg>
