<svg id="Flat" xmlns="http://www.w3.org/2000/svg" viewBox="0 0 256 256">
  <path d="M209.74609,131.93555l12.15723-66.86231A6.00048,6.00048,0,0,0,216,58H53.00781L47.8252,29.49561A13.9931,13.9931,0,0,0,34.05078,18H16a6,6,0,0,0,0,12H34.05078a1.99827,1.99827,0,0,1,1.96777,1.64209L63.67969,183.78027A26.00393,26.00393,0,1,0,101.8916,190h60.2168A25.98882,25.98882,0,1,0,184,178H74.82617l-5.09082-28H188.10156A21.98837,21.98837,0,0,0,209.74609,131.93555ZM94,204a14,14,0,1,1-14-14A14.01572,14.01572,0,0,1,94,204Zm104,0a14,14,0,1,1-14-14A14.01572,14.01572,0,0,1,198,204ZM55.18945,70h153.6211l-10.8711,59.78955A9.99356,9.99356,0,0,1,188.10156,138H67.55322Z"/>
</svg>
