<svg xmlns="http://www.w3.org/2000/svg" viewBox="0 0 256 256"><path d="M70,228a10,10,0,1,1-10-10A10,10,0,0,1,70,228Zm18-38a10,10,0,1,0,10,10A10,10,0,0,0,88,190Zm-60-4a10,10,0,1,0,10,10A10,10,0,0,0,28,186Zm38-18a10,10,0,1,0-10,10A10,10,0,0,0,66,168ZM254,40a6,6,0,0,1-6,6H219.3a2,2,0,0,0-1.4.6L189.6,74.9,168.5,201.7a14,14,0,0,1-9.6,11,15.5,15.5,0,0,1-4.3.7,13.7,13.7,0,0,1-9.8-4.2l-98.1-98a13.9,13.9,0,0,1-3.4-14.1,14,14,0,0,1,11-9.6L181.1,66.4l28.3-28.3a14.3,14.3,0,0,1,9.9-4.1H248A6,6,0,0,1,254,40ZM176.7,79.3,56.3,99.4a2,2,0,0,0-1.6,1.3,2.3,2.3,0,0,0,.5,2.1l98.1,98a2,2,0,0,0,2,.5,2,2,0,0,0,1.3-1.6Z"/></svg>