<svg id="Flat" xmlns="http://www.w3.org/2000/svg" viewBox="0 0 256 256">
  <path d="M70,228a10,10,0,1,1-10-10A9.99987,9.99987,0,0,1,70,228Zm18-38a10,10,0,1,0,10,10A9.99987,9.99987,0,0,0,88,190Zm-60-4a10,10,0,1,0,10,10A9.99987,9.99987,0,0,0,28,186Zm38-18a10,10,0,1,0-10,10A9.99987,9.99987,0,0,0,66,168ZM254,40a6,6,0,0,1-6,6H219.31348a1.98635,1.98635,0,0,0-1.41407.58594L189.60205,74.88281,168.47412,201.65234a13.9936,13.9936,0,0,1-23.709,7.59766L46.74951,111.23535a14.0003,14.0003,0,0,1,7.59815-23.70947L181.11719,66.39746l28.29687-28.29687A13.908,13.908,0,0,1,219.31348,34H248A6,6,0,0,1,254,40ZM176.70068,79.29932,56.32031,99.36279A2.00022,2.00022,0,0,0,55.23486,102.75l98.01563,98.01465a1.99958,1.99958,0,0,0,3.38672-1.085Z"/>
</svg>
