<svg xmlns="http://www.w3.org/2000/svg" viewBox="0 0 256 256"><path d="M236.2,179.8a5.8,5.8,0,0,1,0,8.4l-24,24a5.9,5.9,0,0,1-8.4-8.4L217.5,190H172.1a14,14,0,0,1-11.4-5.9L85.5,78.8a2.1,2.1,0,0,0-1.6-.8H32a6,6,0,0,1,0-12H83.9a14,14,0,0,1,11.4,5.9l75.2,105.3a2.1,2.1,0,0,0,1.6.8h45.4l-13.7-13.8a5.9,5.9,0,0,1,8.4-8.4Zm-92-74.4a6.3,6.3,0,0,0,3.5,1.1,5.9,5.9,0,0,0,4.8-2.5l18-25.2a2.1,2.1,0,0,1,1.6-.8h45.4L203.8,91.8a5.9,5.9,0,1,0,8.4,8.4l24-24a5.8,5.8,0,0,0,0-8.4l-24-24a5.9,5.9,0,0,0-8.4,8.4L217.5,66H172.1a14,14,0,0,0-11.4,5.9L142.8,97A6.1,6.1,0,0,0,144.2,105.4Zm-32.4,45.2a5.9,5.9,0,0,0-8.3,1.4l-18,25.2a2.1,2.1,0,0,1-1.6.8H32a6,6,0,0,0,0,12H83.9a14,14,0,0,0,11.4-5.9L113.2,159A6.1,6.1,0,0,0,111.8,150.6Z"/></svg>