<svg xmlns="http://www.w3.org/2000/svg" viewBox="0 0 256 256"><path d="M236.2,179.8a5.8,5.8,0,0,1,0,8.4l-24,24a5.9,5.9,0,0,1-8.4-8.4L217.5,190H200.9A70.2,70.2,0,0,1,144,160.7l-41.7-58.4A58.2,58.2,0,0,0,55.1,78H32a6,6,0,0,1,0-12H55.1A70.2,70.2,0,0,1,112,95.3l41.7,58.4A58.2,58.2,0,0,0,200.9,178h16.6l-13.7-13.8a5.9,5.9,0,0,1,8.4-8.4Zm-92-74.4a6.3,6.3,0,0,0,3.5,1.1,5.9,5.9,0,0,0,4.8-2.5l1.2-1.7A58.2,58.2,0,0,1,200.9,78h16.6L203.8,91.8a5.9,5.9,0,1,0,8.4,8.4l24-24a5.8,5.8,0,0,0,0-8.4l-24-24a5.9,5.9,0,0,0-8.4,8.4L217.5,66H200.9A70.2,70.2,0,0,0,144,95.3L142.8,97A6.1,6.1,0,0,0,144.2,105.4Zm-32.4,45.2a5.9,5.9,0,0,0-8.3,1.4l-1.2,1.7A58.2,58.2,0,0,1,55.1,178H32a6,6,0,0,0,0,12H55.1A70.2,70.2,0,0,0,112,160.7l1.2-1.7A6.1,6.1,0,0,0,111.8,150.6Z"/></svg>