<svg id="Flat" xmlns="http://www.w3.org/2000/svg" viewBox="0 0 256 256">
  <path d="M237.03418,187.25757c-.0127.01977-.02344.04053-.03662.0603a6.00978,6.00978,0,0,1-.76319.93213l-23.99218,23.99219a5.99936,5.99936,0,0,1-8.48438-8.48438L217.51514,190H200.93555a70.13877,70.13877,0,0,1-56.96192-29.31348l-41.71289-58.39843A58.11281,58.11281,0,0,0,55.06445,78H32a6,6,0,0,1,0-12H55.06445a70.13877,70.13877,0,0,1,56.96192,29.31348l41.71289,58.39843A58.11281,58.11281,0,0,0,200.93555,178h16.57959l-13.75733-13.75781a5.99936,5.99936,0,0,1,8.48438-8.48438L236.23437,179.75a6.00978,6.00978,0,0,1,.76319.93213c.01318.01977.02392.04028.03662.0603a6.00041,6.00041,0,0,1,.51465.9773c.00976.02465.01758.05.02734.075a5.9449,5.9449,0,0,1,.30908,1.043c.00391.01928.00537.03881.00879.05835a5.80428,5.80428,0,0,1,0,2.208c-.00342.01954-.00488.03907-.00879.05835a5.95391,5.95391,0,0,1-.30908,1.04322c-.00976.02465-.01758.0498-.02734.0747A6.00041,6.00041,0,0,1,237.03418,187.25757Zm-92.8584-81.90308a6.00092,6.00092,0,0,0,8.37012-1.39551l1.19336-1.67089A58.11281,58.11281,0,0,1,200.93555,78h16.57959L203.75781,91.75781a5.99936,5.99936,0,1,0,8.48438,8.48438L236.23437,76.25a6.00978,6.00978,0,0,0,.76319-.93213c.01318-.01977.02392-.04053.03662-.0603a6.00041,6.00041,0,0,0,.51465-.9773c.00976-.0249.01758-.05.02734-.0747a5.95391,5.95391,0,0,0,.30908-1.04322c.00391-.01928.00537-.03881.00879-.05835a5.80428,5.80428,0,0,0,0-2.208c-.00342-.01954-.00488-.03907-.00879-.05835a5.9449,5.9449,0,0,0-.30908-1.043c-.00976-.0249-.01758-.0503-.02734-.075a6.00041,6.00041,0,0,0-.51465-.9773c-.0127-.02-.02344-.04053-.03662-.0603a6.00978,6.00978,0,0,0-.76319-.93213L212.24219,43.75781a5.99936,5.99936,0,0,0-8.48438,8.48438L217.51514,66H200.93555a70.13877,70.13877,0,0,0-56.96192,29.31348l-1.19336,1.67089A6.00085,6.00085,0,0,0,144.17578,105.35449Zm-32.35156,45.291a5.99881,5.99881,0,0,0-8.37012,1.39551l-1.19336,1.67089A58.11281,58.11281,0,0,1,55.06445,178H32a6,6,0,0,0,0,12H55.06445a70.13877,70.13877,0,0,0,56.96192-29.31348l1.19336-1.6709A6.00084,6.00084,0,0,0,111.82422,150.64551Z"/>
</svg>
