<svg id="Flat" xmlns="http://www.w3.org/2000/svg" viewBox="0 0 256 256">
  <path d="M237.03418,187.25757c-.0127.0199-.02344.04053-.03662.0603a6.00885,6.00885,0,0,1-.76319.932l-23.99218,23.99231a5.99936,5.99936,0,0,1-8.48438-8.48438L217.51514,190h-45.398a14.02747,14.02747,0,0,1-11.39258-5.8623L85.50977,78.83691A2.00163,2.00163,0,0,0,83.88281,78H32a6,6,0,0,1,0-12H83.88281a14.02747,14.02747,0,0,1,11.39258,5.8623l75.21484,105.30079a2.00163,2.00163,0,0,0,1.627.83691h45.398l-13.75733-13.75781a5.99936,5.99936,0,0,1,8.48438-8.48438l23.99218,23.99231a6.00885,6.00885,0,0,1,.76319.932c.01318.01977.02392.04028.03662.0603a5.99549,5.99549,0,0,1,.51465.9773c.00976.02465.01758.05.02734.075a5.9449,5.9449,0,0,1,.30908,1.043c.00391.01941.00537.03881.00879.05835a5.80428,5.80428,0,0,1,0,2.208c-.00342.01954-.00488.03894-.00879.05835a5.95391,5.95391,0,0,1-.30908,1.04322c-.00976.02465-.01758.04992-.02734.07458A6.002,6.002,0,0,1,237.03418,187.25757Zm-92.85938-81.9021a6.00092,6.00092,0,0,0,8.37012-1.39551l17.94531-25.123A2.00163,2.00163,0,0,1,172.11719,78h45.398L203.75781,91.75781a5.99936,5.99936,0,1,0,8.48438,8.48438l23.99218-23.99231a6.00885,6.00885,0,0,0,.76319-.932c.01318-.01977.02392-.0404.03662-.0603a6.002,6.002,0,0,0,.51465-.97742c.00976-.02466.01758-.04993.02734-.07458a5.95391,5.95391,0,0,0,.30908-1.04322c.00391-.01941.00537-.03881.00879-.05835a5.80428,5.80428,0,0,0,0-2.208c-.00342-.01954-.00488-.03894-.00879-.05835a5.9449,5.9449,0,0,0-.30908-1.043c-.00976-.0249-.01758-.0503-.02734-.075a5.99549,5.99549,0,0,0-.51465-.9773c-.0127-.02-.02344-.04053-.03662-.0603a6.00885,6.00885,0,0,0-.76319-.932L212.24219,43.75781a5.99936,5.99936,0,0,0-8.48438,8.48438L217.51514,66h-45.398a14.02747,14.02747,0,0,0-11.39258,5.8623l-17.94531,25.123A6.001,6.001,0,0,0,144.1748,105.35547Zm-32.3496,45.28906a6.00026,6.00026,0,0,0-8.37012,1.39551L85.50977,177.16309a2.00163,2.00163,0,0,1-1.627.83691H32a6,6,0,0,0,0,12H83.88281a14.02747,14.02747,0,0,0,11.39258-5.8623l17.94531-25.12305A6.001,6.001,0,0,0,111.8252,150.64453Z"/>
</svg>
