<svg id="Flat" xmlns="http://www.w3.org/2000/svg" viewBox="0 0 256 256">
  <path d="M214,48V88a6,6,0,0,1-12,0V62.48486l-47.13086,47.13037a5.99953,5.99953,0,0,1-8.48437-8.48486L193.51514,54H168a6,6,0,0,1,0-12h40.00146a5.98609,5.98609,0,0,1,1.1023.106c.02.00342.04.00488.05994.00879a5.94591,5.94591,0,0,1,1.03894.3081c.02649.01074.05346.01856.07995.0293a5.97155,5.97155,0,0,1,.97058.51123c.02222.01416.04517.02588.06714.04053a6.02776,6.02776,0,0,1,1.67676,1.67724c.01355.02051.02441.042.03784.0625a5.9693,5.9693,0,0,1,.51367.97559c.01026.0249.01758.05078.02759.07568a5.93969,5.93969,0,0,1,.30908,1.04248c.00391.01953.00537.03906.00892.0586A6.01273,6.01273,0,0,1,214,48Zm-6,114a6.00029,6.00029,0,0,0-6,6v25.51514L52.24219,43.75732a5.99971,5.99971,0,0,0-8.48438,8.48536L193.51514,202H168a6,6,0,0,0,0,12h40a6.00623,6.00623,0,0,0,1.10425-.106c.01929-.00342.03857-.00488.058-.00879a5.93587,5.93587,0,0,0,1.04187-.30859c.02551-.01025.05152-.01807.07691-.02832a5.95972,5.95972,0,0,0,.97314-.51221c.02161-.01367.04395-.02539.06543-.03955a6.02965,6.02965,0,0,0,1.67725-1.67773c.01367-.02051.0249-.042.03833-.0625a5.98834,5.98834,0,0,0,.5133-.97559c.01026-.0249.01782-.05078.02771-.07568a5.94187,5.94187,0,0,0,.30908-1.04248c.00391-.01953.00537-.03906.00892-.0586A6.01686,6.01686,0,0,0,214,208V168A6.00029,6.00029,0,0,0,208,162ZM101.13086,146.38477l-57.373,57.37255a5.99971,5.99971,0,1,0,8.48438,8.48536l57.373-57.37305a5.99953,5.99953,0,0,0-8.48437-8.48486Z"/>
</svg>
