<svg xmlns="http://www.w3.org/2000/svg" viewBox="0 0 256 256"><path d="M214,48V88a6,6,0,0,1-12,0V62.5l-47.1,47.1a5.9,5.9,0,0,1-8.5,0,5.9,5.9,0,0,1,0-8.5L193.5,54H168a6,6,0,0,1,0-12h41.2l1,.3a.1.1,0,0,1,.1.1l1,.5h0a4.6,4.6,0,0,1,1.7,1.7h0a9.3,9.3,0,0,1,.5,1h.1l.3,1h0A4.1,4.1,0,0,1,214,48Zm-6,114a6,6,0,0,0-6,6v25.5L52.2,43.8a5.9,5.9,0,0,0-8.4,8.4L193.5,202H168a6,6,0,0,0,0,12h41.2l1-.3h.1l1-.5h0a4.6,4.6,0,0,0,1.7-1.7h0l.5-1a.1.1,0,0,0,.1-.1l.3-1h0a4.1,4.1,0,0,0,.1-1.1V168A6,6,0,0,0,208,162ZM101.1,146.4,43.8,203.8a5.9,5.9,0,1,0,8.4,8.4l57.4-57.3a6,6,0,0,0-8.5-8.5Z"/></svg>