<svg id="Flat" xmlns="http://www.w3.org/2000/svg" viewBox="0 0 256 256">
  <path d="M220.50684,131.91943c-.0918.10547-.16309.22242-.26368.32276l-41.98925,42a6.00005,6.00005,0,0,1-8.48633-8.48438L201.51758,134H104a6,6,0,0,1,0-12h97.51758l-31.75-31.75781a6.00005,6.00005,0,0,1,8.48633-8.48438l41.98925,42c.10059.10034.17188.21729.26368.32276.06787.07837.13281.15869.19628.24047a5.94057,5.94057,0,0,1,.52588.79053c.01465.02661.02832.054.04248.08081a5.96979,5.96979,0,0,1,0,5.61475c-.01416.0271-.02783.05469-.04248.08154a5.93755,5.93755,0,0,1-.52588.79029C220.63965,131.76074,220.57471,131.84106,220.50684,131.91943ZM104,210H48a2.0026,2.0026,0,0,1-2-2V48a2.0026,2.0026,0,0,1,2-2h56a6,6,0,0,0,0-12H48A14.01572,14.01572,0,0,0,34,48V208a14.01572,14.01572,0,0,0,14,14h56a6,6,0,0,0,0-12Z"/>
</svg>
