<svg id="Flat" xmlns="http://www.w3.org/2000/svg" viewBox="0 0 256 256">
  <path d="M140.24316,132.24219l-41.98925,42a6.00005,6.00005,0,0,1-8.48633-8.48438L121.51758,134H24a6,6,0,0,1,0-12h97.51758l-31.75-31.75781a6.00005,6.00005,0,0,1,8.48633-8.48438l41.98925,42c.1001.1001.1709.21631.2627.32129.06836.07935.13428.16065.19873.24365a5.95308,5.95308,0,0,1,.52344.78711c.01562.02832.02978.05738.04541.08594a5.97263,5.97263,0,0,1,0,5.60791c-.01514.02881-.02979.05811-.04541.08667a5.96646,5.96646,0,0,1-.52344.78687c-.06445.083-.13037.1643-.19873.24365C140.41406,132.02588,140.34326,132.14209,140.24316,132.24219ZM192,34H136a6,6,0,0,0,0,12h56a2.0026,2.0026,0,0,1,2,2V208a2.0026,2.0026,0,0,1-2,2H136a6,6,0,0,0,0,12h56a14.01572,14.01572,0,0,0,14-14V48A14.01572,14.01572,0,0,0,192,34Z"/>
</svg>
