<svg id="Flat" xmlns="http://www.w3.org/2000/svg" viewBox="0 0 256 256">
  <path d="M212.24219,83.75732l-56-56A5.99827,5.99827,0,0,0,152,26H55.99219a14.01572,14.01572,0,0,0-14,14V216a14.01572,14.01572,0,0,0,14,14H200a14.01572,14.01572,0,0,0,14-14V88A5.99782,5.99782,0,0,0,212.24219,83.75732ZM202,216a2.0026,2.0026,0,0,1-2,2H55.99219a2.0026,2.0026,0,0,1-2-2V40a2.0026,2.0026,0,0,1,2-2h93.52246L202,90.48535ZM74,120v72a6.00029,6.00029,0,0,0,6,6h96a6.00029,6.00029,0,0,0,6-6V120a6.00029,6.00029,0,0,0-6-6H80A6.00029,6.00029,0,0,0,74,120Zm12,6h84v60H150V152a6,6,0,0,0-12,0v34H118V152a6,6,0,0,0-12,0v34H86Z"/>
</svg>
