<svg id="Flat" xmlns="http://www.w3.org/2000/svg" viewBox="0 0 256 256">
  <path d="M245.11475,107.125a5.96778,5.96778,0,0,0,.44629-.87854c.01318-.03314.02392-.06677.03662-.10016a5.92547,5.92547,0,0,0,.28515-.96832l.00489-.03211a5.99475,5.99475,0,0,0,.10351-.97552c.001-.03595.00537-.07141.00586-.10736,0-.02124.00293-.04175.00293-.063a6.06765,6.06765,0,0,0-.07373-.89453c-.00781-.05-.01416-.09961-.02295-.14954a5.9282,5.9282,0,0,0-.23975-.92242c-.01611-.04559-.03271-.09027-.0498-.13556a5.92643,5.92643,0,0,0-.41113-.87824c-.02246-.03924-.04688-.07714-.07032-.116a6.028,6.028,0,0,0-.58642-.81269c-.01172-.01342-.019-.02893-.03028-.04223l-56-64A6.00138,6.00138,0,0,0,184,34H72a6.00138,6.00138,0,0,0-4.51562,2.04883l-56,64c-.01172.01355-.01905.02936-.03077.043a5.97323,5.97323,0,0,0-.58545.8114c-.02343.03918-.04834.07739-.07128.11694a5.96188,5.96188,0,0,0-.41065.87726c-.01709.04565-.03418.0907-.0498.13666a5.92249,5.92249,0,0,0-.23975.92181c-.00879.04993-.01514.09949-.02295.14954A6.06846,6.06846,0,0,0,10,104c0,.02142.00293.04211.00342.06348,0,.03546.00439.07043.00537.10589a5.95229,5.95229,0,0,0,.10351.97657l.00489.032a5.92547,5.92547,0,0,0,.28515.96832c.0127.03339.02344.067.03662.10016a5.95832,5.95832,0,0,0,.44581.878c.02392.03888.04589.07794.0708.11639a6.03092,6.03092,0,0,0,.61035.79114c.01806.01959.02978.04236.04785.06177l112,120c.084.09027.17578.17157.26465.256.04346.0412.08447.08478.12939.12464a5.95738,5.95738,0,0,0,.605.47357c.04932.03369.10059.063.15088.09521a5.97613,5.97613,0,0,0,.542.30914c.062.03132.123.06342.18653.09253a5.97133,5.97133,0,0,0,.71826.2804c.03662.01154.07471.01868.11182.02948a6.009,6.009,0,0,0,.66455.15186c.07129.01214.14209.02368.21386.03332a5.3437,5.3437,0,0,0,1.59864,0c.07177-.00964.14257-.02118.21386-.03332a6.009,6.009,0,0,0,.66455-.15186c.03711-.0108.0752-.01794.11182-.02948a5.97133,5.97133,0,0,0,.71826-.2804c.06348-.02911.12451-.06121.18653-.09253a5.97613,5.97613,0,0,0,.542-.30914c.05029-.03222.10156-.06152.15088-.09521a5.95738,5.95738,0,0,0,.605-.47357c.04492-.03986.08593-.08344.12939-.12464.08887-.08441.18067-.16571.26465-.256l112-120c.01758-.019.0293-.0415.04688-.06073a5.99576,5.99576,0,0,0,.61132-.7926C245.06934,107.20227,245.09131,107.16357,245.11475,107.125ZM74.88086,110l35.17334,85.9787L29.80762,110Zm93.273,0L128,208.15332,87.84619,110ZM91.07324,98,128,49.8584,164.92676,98Zm90.0459,12h45.07324L145.9458,195.97882Zm45.6582-12H180.05029L140.16406,46h41.11328ZM74.72266,46h41.11328L75.94922,98H29.22266Z"/>
</svg>
