<svg id="Flat" xmlns="http://www.w3.org/2000/svg" viewBox="0 0 256 256">
  <path d="M200,34a6.00029,6.00029,0,0,0-6,6v77.57153a14.22,14.22,0,0,0-2.041-1.51733L71.2998,42.31787A14.00048,14.00048,0,0,0,50,54.26465v147.4707a13.83576,13.83576,0,0,0,7.15137,12.21045,13.835,13.835,0,0,0,14.14941-.26416L191.959,139.9458A14.22,14.22,0,0,0,194,138.42847V216a6,6,0,0,0,12,0V40A6.00029,6.00029,0,0,0,200,34Zm-14.29883,95.70654L65.044,203.44189A2.00022,2.00022,0,0,1,62,201.73535V54.26465A1.934,1.934,0,0,1,63.02148,52.52a2.04366,2.04366,0,0,1,.98829-.26758,1.95679,1.95679,0,0,1,1.0332.30518l120.6582,73.73584a2,2,0,0,1,0,3.41308Z"/>
</svg>
