<svg id="Flat" xmlns="http://www.w3.org/2000/svg" viewBox="0 0 256 256">
  <path d="M198.84863,42.0542a13.8397,13.8397,0,0,0-14.14941.26416L64.041,116.0542A14.22,14.22,0,0,0,62,117.57153V40a6,6,0,0,0-12,0V216a6,6,0,0,0,12,0V138.42847a14.22,14.22,0,0,0,2.041,1.51733L184.7002,213.68213A14.00048,14.00048,0,0,0,206,201.73535V54.26465A13.83576,13.83576,0,0,0,198.84863,42.0542ZM194,201.73535a2.00013,2.00013,0,0,1-3.043,1.707L70.29883,129.70654a2,2,0,0,1,0-3.41308L190.95605,52.55811a1.96086,1.96086,0,0,1,1.03418-.30567,2.04366,2.04366,0,0,1,.98829.26758A1.934,1.934,0,0,1,194,54.26465Z"/>
</svg>
