<svg xmlns="http://www.w3.org/2000/svg" viewBox="0 0 256 256"><path d="M92,106a26,26,0,1,0,26,26A26.1,26.1,0,0,0,92,106Zm0,40a14,14,0,1,1,14-14A14,14,0,0,1,92,146Zm72-40a26,26,0,1,0,26,26A26.1,26.1,0,0,0,164,106Zm0,40a14,14,0,1,1,14-14A14,14,0,0,1,164,146ZM128,18A98,98,0,0,0,74,197.8V216a14,14,0,0,0,14,14h80a14,14,0,0,0,14-14V197.8A98,98,0,0,0,128,18Zm44.9,171.4a6,6,0,0,0-2.9,5.1V216a2,2,0,0,1-2,2H150V192a6,6,0,0,0-12,0v26H118V192a6,6,0,0,0-12,0v26H88a2,2,0,0,1-2-2V194.5a6,6,0,0,0-2.9-5.1,86,86,0,1,1,89.8,0Z"/></svg>