<svg id="Flat" xmlns="http://www.w3.org/2000/svg" viewBox="0 0 256 256">
  <path d="M215.99951,165.99353H193.293a25.994,25.994,0,0,0-50.58692,0H39.99951a6,6,0,0,0,0,12H142.70605a25.994,25.994,0,0,0,50.58692,0h22.70654a6,6,0,0,0,0-12Zm-48,20a14,14,0,1,1,14-14A14.01573,14.01573,0,0,1,167.99951,185.99353Zm-128-96.001,38.70654.001a25.994,25.994,0,0,0,50.58692,0l86.70654-.001a6,6,0,0,0,0-12l-86.70654.001a25.994,25.994,0,0,0-50.58692,0l-38.70654-.001h0a6,6,0,0,0,0,12Zm64-19.999a14,14,0,1,1-14,14A14.01572,14.01572,0,0,1,103.99951,69.99353Z"/>
</svg>
