<svg id="Flat" xmlns="http://www.w3.org/2000/svg" viewBox="0 0 256.00098 256.00098">
  <path d="M133.999,62.70642V39.99988a6,6,0,1,0-12,0V62.70642a25.994,25.994,0,0,0,0,50.58692V215.99988a6,6,0,0,0,12,0V113.29334a25.994,25.994,0,0,0,0-50.58692Zm-6,39.29346a14,14,0,1,1,14-14A14.01573,14.01573,0,0,1,127.999,101.99988Zm98,66a26.04057,26.04057,0,0,0-20-25.29346L206,39.99988a6,6,0,1,0-12,0l-.001,102.70654a25.994,25.994,0,0,0,0,50.58692L194,215.99988a6,6,0,0,0,12,0l-.001-22.70654A26.04058,26.04058,0,0,0,225.999,167.99988Zm-26,14a14,14,0,1,1,14-14A14.01573,14.01573,0,0,1,199.999,181.99988Zm-138-71.29346-.00048-70.70654a6,6,0,0,0-12,0l.00048,70.70654a25.994,25.994,0,0,0,0,50.58692l-.00048,54.70654a5.99987,5.99987,0,0,0,5.99951,6h.00049a6.0003,6.0003,0,0,0,6-6l.00048-54.70654a25.994,25.994,0,0,0,0-50.58692Zm-6,39.29346a14,14,0,1,1,14-14A14.01573,14.01573,0,0,1,55.999,149.99988Z"/>
</svg>
