<svg xmlns="http://www.w3.org/2000/svg" viewBox="0 0 256 256"><path d="M134,62.7V40a6,6,0,0,0-12,0V62.7a26,26,0,0,0,0,50.6V216a6,6,0,0,0,12,0V113.3a26,26,0,0,0,0-50.6ZM128,102a14,14,0,1,1,14-14A14,14,0,0,1,128,102Zm98,66a26,26,0,0,0-20-25.3V40a6,6,0,0,0-12,0V142.7a26,26,0,0,0,0,50.6V216a6,6,0,0,0,12,0V193.3A26,26,0,0,0,226,168Zm-26,14a14,14,0,1,1,14-14A14,14,0,0,1,200,182ZM62,110.7V40a6,6,0,0,0-12,0v70.7a26,26,0,0,0,0,50.6V216a6,6,0,0,0,6,6h0a6,6,0,0,0,6-6V161.3a26,26,0,0,0,0-50.6ZM56,150a14,14,0,1,1,14-14A14,14,0,0,1,56,150Z"/></svg>