<svg xmlns="http://www.w3.org/2000/svg" viewBox="0 0 256 256"><path d="M128,26A102,102,0,1,0,230,128,102.2,102.2,0,0,0,128,26Zm0,192a90,90,0,1,1,90-90A90.1,90.1,0,0,1,128,218Zm52.7-49.7a5.9,5.9,0,0,1-1,8.4A5.8,5.8,0,0,1,176,178a6,6,0,0,1-4.7-2.3L160,161.6l-11.3,14.1a6,6,0,0,1-9.4,0L128,161.6l-11.3,14.1a6,6,0,0,1-9.4,0L96,161.6,84.7,175.7a6,6,0,1,1-9.4-7.4l16-20a6,6,0,0,1,9.4,0L112,162.4l11.3-14.1a6,6,0,0,1,9.4,0L144,162.4l11.3-14.1a6,6,0,0,1,9.4,0ZM82,108a10,10,0,1,1,10,10A10,10,0,0,1,82,108Zm72,0a10,10,0,1,1,10,10A10,10,0,0,1,154,108Z"/></svg>