<svg id="Flat" xmlns="http://www.w3.org/2000/svg" viewBox="0 0 256 256">
  <path d="M83,108a9,9,0,1,1,9,9A8.99982,8.99982,0,0,1,83,108Zm81,9a9,9,0,1,0-9-9A8.99982,8.99982,0,0,0,164,117Zm66,11A102,102,0,1,1,128,26,102.1153,102.1153,0,0,1,230,128Zm-12,0a90,90,0,1,0-90,90A90.10217,90.10217,0,0,0,218,128Zm-53.75732,19.75732a5.99989,5.99989,0,0,0-8.48536,0L144,159.51465l-11.75732-11.75733a5.99989,5.99989,0,0,0-8.48536,0L112,159.51465l-11.75732-11.75733a5.99989,5.99989,0,0,0-8.48536,0l-16,16a6.00006,6.00006,0,0,0,8.48536,8.48536L96,160.48535l11.75732,11.75733a5.99989,5.99989,0,0,0,8.48536,0L128,160.48535l11.75732,11.75733a5.99989,5.99989,0,0,0,8.48536,0L160,160.48535l11.75732,11.75733a6.00006,6.00006,0,0,0,8.48536-8.48536Z"/>
</svg>
