<svg id="Flat" xmlns="http://www.w3.org/2000/svg" viewBox="0 0 256 256">
  <path d="M83,108a9,9,0,1,1,9,9A8.99982,8.99982,0,0,1,83,108Zm81,9a9,9,0,1,0-9-9A8.99982,8.99982,0,0,0,164,117Zm8.58252,29.80273a5.999,5.999,0,0,0-8.19775,2.18921,42.20608,42.20608,0,0,1-20.03809,17.7063,41.95727,41.95727,0,0,1-46.04541-9.00415,42.17859,42.17859,0,0,1-6.686-8.70141,5.99977,5.99977,0,1,0-10.38671,6.00878,54.02685,54.02685,0,0,0,93.543-.00073A5.99982,5.99982,0,0,0,172.58252,146.80273ZM230,128a102.0442,102.0442,0,0,1-4.47656,29.97412,6.01189,6.01189,0,0,1-1.49317,2.48169L160.46,224.02881a6.00069,6.00069,0,0,1-2.48144,1.49316A102.01547,102.01547,0,1,1,230,128Zm-12,0a89.89568,89.89568,0,1,0-64.95215,86.47021L214.47119,153.044A90.10249,90.10249,0,0,0,218,128Z"/>
</svg>
