<svg id="Flat" xmlns="http://www.w3.org/2000/svg" viewBox="0 0 256 256">
  <path d="M128,26a102,102,0,1,0,29.97852,199.522,6.00069,6.00069,0,0,0,2.48144-1.49316l63.57031-63.573a6.01189,6.01189,0,0,0,1.49317-2.48169A102.0765,102.0765,0,0,0,128,26Zm86.47119,127.044-61.42334,61.42626A89.89651,89.89651,0,1,1,214.47119,153.044ZM82,108a10,10,0,1,1,10,10A9.99987,9.99987,0,0,1,82,108Zm72,0a10,10,0,1,1,10,10A9.99987,9.99987,0,0,1,154,108Zm20.77393,47.00122a54.016,54.016,0,0,1-93.54737.00073,6.00008,6.00008,0,1,1,10.3877-6.0083,42.0159,42.0159,0,0,0,72.772-.00024,6,6,0,0,1,10.3877,6.00781Z"/>
</svg>
