<svg id="Flat" xmlns="http://www.w3.org/2000/svg" viewBox="0 0 256 256">
  <path d="M128,26A102,102,0,1,0,230,128,102.1153,102.1153,0,0,0,128,26Zm0,192a90,90,0,1,1,90-90A90.10217,90.10217,0,0,1,128,218ZM180.68555,168.252a6.00019,6.00019,0,0,1-9.3711,7.4961L160,161.60449l-11.31494,14.14356a5.99948,5.99948,0,0,1-9.37012,0L128,161.60449l-11.31494,14.14356a5.99948,5.99948,0,0,1-9.37012,0L96,161.60449,84.68506,175.74805a5.99981,5.99981,0,1,1-9.37012-7.4961l16-20a5.99948,5.99948,0,0,1,9.37012,0L112,162.39551,123.31494,148.252a5.99948,5.99948,0,0,1,9.37012,0L144,162.39551,155.31494,148.252a6,6,0,0,1,9.37061,0ZM82,108a10,10,0,1,1,10,10A10.01146,10.01146,0,0,1,82,108Zm72,0a10,10,0,1,1,10,10A10.01146,10.01146,0,0,1,154,108Z"/>
</svg>
