<svg id="Flat" xmlns="http://www.w3.org/2000/svg" viewBox="0 0 256 256">
  <path d="M128,26A102,102,0,1,0,230,128,102.1153,102.1153,0,0,0,128,26Zm0,192a90,90,0,1,1,90-90A90.10217,90.10217,0,0,1,128,218Zm46.77148-62.99951a54.02665,54.02665,0,0,1-93.543.001,5.99977,5.99977,0,1,1,10.38671-6.00878,42.20387,42.20387,0,0,0,20.03809,17.70556,41.95653,41.95653,0,0,0,46.04492-9.0039,42.18833,42.18833,0,0,0,6.68653-8.70264,5.99978,5.99978,0,1,1,10.38671,6.00879ZM82,108a10,10,0,1,1,10,10A9.99987,9.99987,0,0,1,82,108Zm100,0a6.00029,6.00029,0,0,1-6,6H152a6,6,0,0,1,0-12h24A6.00029,6.00029,0,0,1,182,108Z"/>
</svg>
