<svg id="Flat" xmlns="http://www.w3.org/2000/svg" viewBox="0 0 256 256">
  <path d="M83,108a9,9,0,1,1,9,9A8.99982,8.99982,0,0,1,83,108Zm81,9a9,9,0,1,0-9-9A8.99982,8.99982,0,0,0,164,117Zm66,11A102,102,0,1,1,128,26,102.1153,102.1153,0,0,1,230,128Zm-12,0a90,90,0,1,0-90,90A90.10217,90.10217,0,0,0,218,128ZM164.68555,148.252a6,6,0,0,0-9.37061,0L144,162.39551,132.68506,148.252a5.99948,5.99948,0,0,0-9.37012,0L112,162.39551,100.68506,148.252a5.99948,5.99948,0,0,0-9.37012,0l-16,20a5.99981,5.99981,0,1,0,9.37012,7.4961L96,161.60449l11.31494,14.14356a5.99948,5.99948,0,0,0,9.37012,0L128,161.60449l11.31494,14.14356a5.99948,5.99948,0,0,0,9.37012,0L160,161.60449l11.31445,14.14356a6.00019,6.00019,0,0,0,9.3711-7.4961Z"/>
</svg>
