<svg id="Flat" xmlns="http://www.w3.org/2000/svg" viewBox="0 0 256 256">
  <path d="M128,230A102,102,0,1,1,230,128,102.11554,102.11554,0,0,1,128,230Zm0-192a90,90,0,1,0,90,90A90.10194,90.10194,0,0,0,128,38Zm44.58276,143.19287a6,6,0,0,0,2.18921-8.198,54.027,54.027,0,0,0-93.54345-.00073,6,6,0,1,0,10.3872,6.00879,42.1942,42.1942,0,0,1,20.038-17.70532,41.95894,41.95894,0,0,1,46.0448,9.00342,42.19436,42.19436,0,0,1,6.68628,8.70263,5.99729,5.99729,0,0,0,8.198,2.18921ZM92,118a10,10,0,1,1,10-10A10.01138,10.01138,0,0,1,92,118Zm72,0a10,10,0,1,1,10-10A10.01138,10.01138,0,0,1,164,118Z"/>
</svg>
