<svg xmlns="http://www.w3.org/2000/svg" viewBox="0 0 256 256"><path d="M128,26A102,102,0,1,0,230,128,102.2,102.2,0,0,0,128,26Zm0,192a90,90,0,1,1,90-90A90.1,90.1,0,0,1,128,218Zm60.2-117.8L176.5,112l11.7,11.8a5.9,5.9,0,1,1-8.4,8.4L168,120.5l-11.8,11.7a5.9,5.9,0,1,1-8.4-8.4L159.5,112l-11.7-11.8a5.9,5.9,0,0,1,8.4-8.4L168,103.5l11.8-11.7a5.9,5.9,0,0,1,8.4,8.4Zm-80,0L96.5,112l11.7,11.8a5.9,5.9,0,1,1-8.4,8.4L88,120.5,76.2,132.2a5.9,5.9,0,1,1-8.4-8.4L79.5,112,67.8,100.2a5.9,5.9,0,0,1,8.4-8.4L88,103.5,99.8,91.8a5.9,5.9,0,0,1,8.4,8.4ZM138,180a10,10,0,1,1-10-10A10,10,0,0,1,138,180Z"/></svg>