<svg id="Flat" xmlns="http://www.w3.org/2000/svg" viewBox="0 0 256 256">
  <path d="M174.77148,155.00073a54.02673,54.02673,0,0,1-93.543.00073,5.99977,5.99977,0,1,1,10.38671-6.00878,42.20725,42.20725,0,0,0,20.03809,17.70556,41.95653,41.95653,0,0,0,46.04492-9.0039,42.21029,42.21029,0,0,0,6.68653-8.7024,5.99978,5.99978,0,1,1,10.38671,6.00879ZM230,128a102.0442,102.0442,0,0,1-4.47656,29.97412,6.01189,6.01189,0,0,1-1.49317,2.48169L160.46,224.02881a6.00069,6.00069,0,0,1-2.48144,1.49316A102.01547,102.01547,0,1,1,230,128Zm-12,0a89.89568,89.89568,0,1,0-64.95215,86.47021L214.47119,153.044A90.10249,90.10249,0,0,0,218,128ZM92,118a10,10,0,1,0-10-10A10.0113,10.0113,0,0,0,92,118Zm72,0a10,10,0,1,0-10-10A10.01161,10.01161,0,0,0,164,118Z"/>
</svg>
