<svg id="Flat" xmlns="http://www.w3.org/2000/svg" viewBox="0 0 256 256">
  <path d="M128,26A102,102,0,1,0,230,128,102.1153,102.1153,0,0,0,128,26Zm0,192a90,90,0,1,1,90-90A90.10217,90.10217,0,0,1,128,218Zm60.24268-117.75732L176.48535,112l11.75733,11.75732a6.00006,6.00006,0,0,1-8.48536,8.48536L168,120.48535l-11.75732,11.75733a6.00006,6.00006,0,0,1-8.48536-8.48536L159.51465,112l-11.75733-11.75732a6.00006,6.00006,0,0,1,8.48536-8.48536L168,103.51465l11.75732-11.75733a6.00006,6.00006,0,0,1,8.48536,8.48536Zm-80,0L96.48535,112l11.75733,11.75732a6.00006,6.00006,0,0,1-8.48536,8.48536L88,120.48535,76.24268,132.24268a6.00006,6.00006,0,0,1-8.48536-8.48536L79.51465,112,67.75732,100.24268a6.00006,6.00006,0,0,1,8.48536-8.48536L88,103.51465,99.75732,91.75732a6.00006,6.00006,0,0,1,8.48536,8.48536ZM138,180a10,10,0,1,1-10-10A10.01146,10.01146,0,0,1,138,180Z"/>
</svg>
