<svg id="Flat" xmlns="http://www.w3.org/2000/svg" viewBox="0 0 256 256">
  <path d="M83,108a9,9,0,1,1,9,9A8.99982,8.99982,0,0,1,83,108Zm81,9a9,9,0,1,0-9-9A8.99982,8.99982,0,0,0,164,117Zm66,11A102,102,0,1,1,128,26,102.1153,102.1153,0,0,1,230,128Zm-12,0a90,90,0,1,0-90,90A90.10217,90.10217,0,0,0,218,128Zm-45.41748,18.80273a5.99947,5.99947,0,0,0-8.19775,2.189,42.20307,42.20307,0,0,1-20.03858,17.70654,41.95759,41.95759,0,0,1-46.04492-9.0039,42.20624,42.20624,0,0,1-6.686-8.70166,5.99977,5.99977,0,1,0-10.38671,6.00878,54.02653,54.02653,0,0,0,93.543-.001A5.99948,5.99948,0,0,0,172.58252,146.80273Z"/>
</svg>
