<svg id="Flat" xmlns="http://www.w3.org/2000/svg" viewBox="0 0 256 256">
  <path d="M83,108a9,9,0,1,1,9,9A8.99982,8.99982,0,0,1,83,108Zm81,9a9,9,0,1,0-9-9A8.99982,8.99982,0,0,0,164,117Zm66,11A102,102,0,1,1,128,26,102.1153,102.1153,0,0,1,230,128Zm-12,0a90,90,0,1,0-90,90A90.10217,90.10217,0,0,0,218,128Zm-51.81641,33.81543a54.027,54.027,0,0,0-84.95507,11.17871,6,6,0,1,0,10.3872,6.00879,42.187,42.187,0,0,1,20.03809-17.70508,41.959,41.959,0,0,1,46.04443,9.00293,42.18314,42.18314,0,0,1,6.68653,8.70313,6,6,0,0,0,10.3872-6.00879A54.18322,54.18322,0,0,0,166.18359,161.81543Z"/>
</svg>
