<svg id="Flat" xmlns="http://www.w3.org/2000/svg" viewBox="0 0 256 256">
  <path d="M222.00586,149.66309a6.00024,6.00024,0,0,1-4.24268,7.34863l-26.98877,7.23144,7.23145,26.98829a5.99981,5.99981,0,1,1-11.59082,3.10546l-8.14136-30.383L134,138.39246v51.12268l22.24268,22.24267a5.99971,5.99971,0,1,1-8.48536,8.48438L128,200.48535l-19.75732,19.75684a5.99971,5.99971,0,0,1-8.48536-8.48438L122,189.51514V138.39246l-44.27368,25.5614L69.585,194.33691a5.99981,5.99981,0,1,1-11.59082-3.10546l7.23145-26.98829-26.98877-7.23144a6.00029,6.00029,0,0,1,3.10547-11.5918L71.72656,153.561,115.99976,128l-44.2732-25.561-30.38427,8.14112a6.00029,6.00029,0,0,1-3.10547-11.5918l26.98877-7.23144L57.99414,64.76855A5.99981,5.99981,0,1,1,69.585,61.66309l8.14136,30.38305L122,117.60754V66.48486L99.75732,44.24219a5.99971,5.99971,0,0,1,8.48536-8.48438L128,55.51465l19.75732-19.75684a5.99971,5.99971,0,0,1,8.48536,8.48438L134,66.48486v51.12268l44.27368-25.5614,8.14136-30.383a5.99981,5.99981,0,1,1,11.59082,3.10546l-7.23145,26.98829,26.98877,7.23144a6.00029,6.00029,0,1,1-3.10547,11.5918L184.27344,102.439,140.00024,128l44.2732,25.561,30.38427-8.14112A6.00376,6.00376,0,0,1,222.00586,149.66309Z"/>
</svg>
