<svg id="Flat" xmlns="http://www.w3.org/2000/svg" viewBox="0 0 256 256">
  <path d="M229.78027,134.60547a6.0004,6.0004,0,0,0,.06885-1.08545q.14723-2.74219.15088-5.52a101.50949,101.50949,0,0,0-22.61938-63.97363,5.99693,5.99693,0,0,0-1.20582-1.4668,102.47031,102.47031,0,0,0-40.47534-29.33594,5.99136,5.99136,0,0,0-.99-.38623,101.96425,101.96425,0,0,0-73.42163.001,5.97853,5.97853,0,0,0-.98462.38428A102.46954,102.46954,0,0,0,49.82544,62.55957a5.99247,5.99247,0,0,0-1.20606,1.4668A101.51052,101.51052,0,0,0,26,128q0,2.78173.15112,5.52637a5.991,5.991,0,0,0,.06836,1.0747,101.32077,101.32077,0,0,0,15.45264,47.665,5.9862,5.9862,0,0,0,.8977,1.397,102.36948,102.36948,0,0,0,59.28492,42.93457c.135.04589.27417.07568.41259.11181a102.26421,102.26421,0,0,0,51.46192.001c.13965-.03613.28027-.0669.41626-.11279a102.37106,102.37106,0,0,0,59.28467-42.93457,5.9862,5.9862,0,0,0,.8977-1.397A101.31713,101.31713,0,0,0,229.78027,134.60547Zm-61.1062,39.16992-9.33594-12.84961,13.36817-41.14307,15.106-4.9082,29.78051,21.66065a89.35518,89.35518,0,0,1-12.12207,37.2207Zm-81.34814,0-36.79663-.01953a89.35532,89.35532,0,0,1-12.12207-37.2207l29.78051-21.66065,15.106,4.9082,13.36817,41.14307ZM51.75,80.24414l8.33154,25.688L38.21509,121.83691A89.39486,89.39486,0,0,1,51.75,80.24414Zm55.92236,75.73438L95.10889,117.313,128,93.4165,160.89111,117.313l-12.56347,38.66553ZM204.25,80.24414a89.39,89.39,0,0,1,13.53467,41.59229l-21.86621-15.9043ZM195.44873,68.4834,184.104,103.46191l-15.106,4.90821L134,82.94287V67.05908l29.79736-21.625A90.431,90.431,0,0,1,195.44873,68.4834ZM149.89282,40.69824,128,56.58643,106.10742,40.69824a90.16448,90.16448,0,0,1,43.7854,0ZM92.20239,45.43408,122,67.05908V82.94287L87.00195,108.37012,71.896,103.46191,60.55127,68.4834A90.43235,90.43235,0,0,1,92.20239,45.43408ZM59.03857,185.76074l26.98584.01416,8.36866,25.71094A90.41986,90.41986,0,0,1,59.03857,185.76074Zm49.39576,30.09082-11.40015-35.023,9.33594-12.85009h43.25976l9.33594,12.85009-11.3999,35.023a90.16685,90.16685,0,0,1-39.13159,0Zm53.1726-4.36572,8.36866-25.71094,26.98584-.01416A90.42471,90.42471,0,0,1,161.60693,211.48584Z"/>
</svg>
