<svg xmlns="http://www.w3.org/2000/svg" viewBox="0 0 256 256"><path d="M229.8,134.6a4.1,4.1,0,0,0,0-1.1c.1-1.8.2-3.6.2-5.5a101.8,101.8,0,0,0-22.6-64,5.3,5.3,0,0,0-1.2-1.4,102.4,102.4,0,0,0-40.5-29.4l-1-.4a102.4,102.4,0,0,0-73.4,0l-1,.4A102.4,102.4,0,0,0,49.8,62.6,5.3,5.3,0,0,0,48.6,64,101.8,101.8,0,0,0,26,128c0,1.9.1,3.7.2,5.5a4.1,4.1,0,0,0,0,1.1,101.7,101.7,0,0,0,15.5,47.7,5.5,5.5,0,0,0,.9,1.4,102.1,102.1,0,0,0,59.3,42.9h.4a101.7,101.7,0,0,0,51.4,0h.4a102.1,102.1,0,0,0,59.3-42.9,5.5,5.5,0,0,0,.9-1.4A101.7,101.7,0,0,0,229.8,134.6Zm-61.1,39.2-9.4-12.9,13.4-41.1,15.1-4.9,29.8,21.6a89.7,89.7,0,0,1-12.1,37.3Zm-81.4,0H50.5a89.7,89.7,0,0,1-12.1-37.3l29.8-21.6,15.1,4.9,13.4,41.1ZM51.7,80.2l8.4,25.7L38.2,121.8A90.2,90.2,0,0,1,51.7,80.2Zm56,75.8L95.1,117.3,128,93.4l32.9,23.9L148.3,156Zm96.5-75.8a89.2,89.2,0,0,1,13.6,41.6l-21.9-15.9Zm-8.8-11.7-11.3,35L169,108.4,134,82.9V67.1l29.8-21.7A89.8,89.8,0,0,1,195.4,68.5ZM149.9,40.7,128,56.6,106.1,40.7a90.2,90.2,0,0,1,43.8,0ZM92.2,45.4,122,67.1V82.9L87,108.4l-15.1-4.9-11.3-35A89.8,89.8,0,0,1,92.2,45.4ZM59,185.8H86l8.4,25.7A91.7,91.7,0,0,1,59,185.8Zm49.4,30.1L97,180.8l9.4-12.8h43.2l9.4,12.8-11.4,35.1a92.5,92.5,0,0,1-39.2,0Zm53.2-4.4,8.4-25.7h27A91.7,91.7,0,0,1,161.6,211.5Z"/></svg>