<svg id="Flat" xmlns="http://www.w3.org/2000/svg" viewBox="0 0 256 256">
  <path d="M228.24121,172.24353l-39.999,39.99317-.00391.00341a5.99947,5.99947,0,0,1-.91846.74951c-.022.01465-.04492.02637-.06689.041a5.98257,5.98257,0,0,1-.97217.51123c-.02539.01025-.05127.01807-.07666.02832a5.93414,5.93414,0,0,1-1.042.3086c-.019.0039-.03857.00537-.05762.00878a5.80684,5.80684,0,0,1-2.20849,0c-.01954-.00341-.03907-.00488-.0586-.00878a5.953,5.953,0,0,1-1.04248-.30909c-.0249-.00976-.05078-.01758-.07568-.02783a5.987,5.987,0,0,1-.97559-.51318c-.02051-.01367-.042-.02442-.0625-.03809a6.04261,6.04261,0,0,1-.92676-.75781l-39.99707-39.99707a5.99971,5.99971,0,0,1,8.48536-8.48438L178,193.50818V111.99353a6,6,0,0,1,12,0v81.51563l29.75684-29.752a6,6,0,1,1,8.48437,8.48633Zm-108.24219-50.25H48a6,6,0,0,0,0,12h71.999a6,6,0,1,0,0-12Zm-71.999-52H183.999a6,6,0,0,0,0-12H48a6,6,0,1,0,0,12Zm56,116H48a6,6,0,0,0,0,12h56a6,6,0,0,0,0-12Z"/>
</svg>
