<svg id="Flat" xmlns="http://www.w3.org/2000/svg" viewBox="0 0 256 256">
  <path d="M228.24219,92.22888a6.00075,6.00075,0,0,1-8.48535.001L190,62.47766v81.51587a6,6,0,0,1-12,0V62.47888L148.24268,92.23572a5.99971,5.99971,0,0,1-8.48536-8.48438l39.99707-39.99707a6.00387,6.00387,0,0,1,.92725-.75781c.02-.01343.041-.02417.061-.03735a6.00668,6.00668,0,0,1,.977-.51441c.02441-.00976.04931-.01709.07373-.02685a5.94071,5.94071,0,0,1,1.04541-.30982c.01758-.00341.03613-.00488.05371-.008a5.81358,5.81358,0,0,1,2.21484,0c.01807.00341.03565.00464.05371.008a5.94787,5.94787,0,0,1,1.04492.30982c.02442.00952.04932.01684.07422.02685a6.02194,6.02194,0,0,1,.97364.51221c.02148.01416.04394.02588.06591.04a6.04123,6.04123,0,0,1,.91846.75l.00391.00342,39.999,39.99316A5.99988,5.99988,0,0,1,228.24219,92.22888ZM48,133.99353h71.999a6,6,0,1,0,0-12H48a6,6,0,0,0,0,12Zm0-64h55.999a6,6,0,0,0,0-12H48a6,6,0,1,0,0,12Zm135.999,116H48a6,6,0,0,0,0,12H183.999a6,6,0,0,0,0-12Z"/>
</svg>
