<svg id="Flat" xmlns="http://www.w3.org/2000/svg" viewBox="0 0 256 256">
  <path d="M160,238H96a6.00051,6.00051,0,0,1-5.72693-7.79l8.541-27.33105A58.038,58.038,0,0,1,22,148c0-29.97363,17.49072-60.91406,51.98621-91.96a315.11675,315.11675,0,0,1,51.08215-37.27539,6.00224,6.00224,0,0,1,5.86328,0A315.113,315.113,0,0,1,182.01367,56.04C216.50928,87.08594,234,118.02637,234,148a58.03838,58.03838,0,0,1-76.81458,54.87891L165.72681,230.21A6.00023,6.00023,0,0,1,160,238Zm-55.83887-12h47.67774l-10.26258-32.83984a5.99939,5.99939,0,0,1,9.042-6.79A46.00753,46.00753,0,0,0,222,148c0-57.3252-77.78638-107.25684-94-117.03711C111.78638,40.74316,34,90.6748,34,148a46.00848,46.00848,0,0,0,71.24951,38.458,6.00072,6.00072,0,0,1,9.33887,6.05371,6.05025,6.05025,0,0,1-.19751.75293Z"/>
</svg>
