<svg id="Flat" xmlns="http://www.w3.org/2000/svg" viewBox="0 0 256 256">
  <path d="M160,238H96a6.00048,6.00048,0,0,1-5.69214-7.89746l12.22034-36.65918A57.99469,57.99469,0,0,1,22,140C22,85.34473,120.56958,21.63184,124.76562,18.94629a6.00063,6.00063,0,0,1,6.46876,0C135.43042,21.63184,234,85.34473,234,140a57.99469,57.99469,0,0,1-80.5282,53.44336l12.22034,36.65918A6.00048,6.00048,0,0,1,160,238Zm-55.67529-12h47.35058L136.933,181.77539a6.00033,6.00033,0,0,1,9.54541-6.49707A46.00106,46.00106,0,0,0,222,140c0-19.48828-16.56323-44.709-47.89868-72.93652A437.93473,437.93473,0,0,0,128,31.19434,437.92421,437.92421,0,0,0,81.8988,67.06348C50.56311,95.291,34,120.51172,34,140a46.00106,46.00106,0,0,0,75.52161,35.27832,6.00033,6.00033,0,0,1,9.54541,6.49707Z"/>
</svg>
