<svg id="Flat" xmlns="http://www.w3.org/2000/svg" viewBox="0 0 256 256">
  <path d="M197.69922,130.86328l-52.16113-19.2168a1.99894,1.99894,0,0,1-1.18457-1.18554l-19.2168-52.16016a14.00038,14.00038,0,0,0-26.27344,0l-19.2168,52.16113a1.99894,1.99894,0,0,1-1.18554,1.18457l-52.16016,19.2168a14.00038,14.00038,0,0,0,0,26.27344l52.16113,19.2168a1.99894,1.99894,0,0,1,1.18457,1.18554l19.2168,52.16016a14.00038,14.00038,0,0,0,26.27344,0l19.2168-52.16016v-.001a1.99894,1.99894,0,0,1,1.18554-1.18457l52.16016-19.2168a14.00038,14.00038,0,0,0,0-26.27344ZM193.55078,145.877l-52.15918,19.2168a13.97274,13.97274,0,0,0-8.29785,8.29785v-.001L113.877,225.55078a2.00089,2.00089,0,0,1-3.7539,0L90.90625,173.3916a13.97371,13.97371,0,0,0-8.29687-8.29785L30.44922,145.877a2.00089,2.00089,0,0,1,0-3.7539l52.15918-19.2168a13.97371,13.97371,0,0,0,8.29785-8.29687l19.2168-52.16016a2.00089,2.00089,0,0,1,3.7539,0l19.2168,52.15918a13.97371,13.97371,0,0,0,8.29687,8.29785l52.16016,19.2168a2.00089,2.00089,0,0,1,0,3.7539ZM146,40a6.00029,6.00029,0,0,1,6-6h18V16a6,6,0,0,1,12,0V34h18a6,6,0,0,1,0,12H182V64a6,6,0,0,1-12,0V46H152A6.00029,6.00029,0,0,1,146,40ZM246,88a6.00029,6.00029,0,0,1-6,6H230v10a6,6,0,0,1-12,0V94H208a6,6,0,0,1,0-12h10V72a6,6,0,0,1,12,0V82h10A6.00029,6.00029,0,0,1,246,88Z"/>
</svg>
