<svg xmlns="http://www.w3.org/2000/svg" viewBox="0 0 256 256"><path d="M197.7,130.9l-52.2-19.3a2,2,0,0,1-1.1-1.1L125.1,58.3a13.9,13.9,0,0,0-26.2,0L79.6,110.5a2,2,0,0,1-1.1,1.1L26.3,130.9a13.9,13.9,0,0,0,0,26.2l52.2,19.3a2,2,0,0,1,1.1,1.1l19.3,52.2a13.9,13.9,0,0,0,26.2,0l19.3-52.2h0a2,2,0,0,1,1.1-1.1l52.2-19.3a13.9,13.9,0,0,0,0-26.2Zm-4.1,15-52.2,19.2a13.7,13.7,0,0,0-8.3,8.3h0l-19.2,52.2a2,2,0,0,1-3.8,0L90.9,173.4a13.7,13.7,0,0,0-8.3-8.3L30.4,145.9a2,2,0,0,1,0-3.8l52.2-19.2a13.7,13.7,0,0,0,8.3-8.3l19.2-52.2a2,2,0,0,1,3.8,0l19.2,52.2a13.7,13.7,0,0,0,8.3,8.3l52.2,19.2a2,2,0,0,1,0,3.8ZM146,40a6,6,0,0,1,6-6h18V16a6,6,0,0,1,12,0V34h18a6,6,0,0,1,0,12H182V64a6,6,0,0,1-12,0V46H152A6,6,0,0,1,146,40ZM246,88a6,6,0,0,1-6,6H230v10a6,6,0,0,1-12,0V94H208a6,6,0,0,1,0-12h10V72a6,6,0,0,1,12,0V82h10A6,6,0,0,1,246,88Z"/></svg>