<svg id="Flat" xmlns="http://www.w3.org/2000/svg" viewBox="0 0 256 256">
  <path d="M185.97656,152V104a6,6,0,0,1,12,0v48a6,6,0,1,1-12,0Zm38-70a6.0003,6.0003,0,0,0-6,6v80a6,6,0,1,0,12,0V88A6.00029,6.00029,0,0,0,223.97656,82ZM212.43945,211.96383a5.99993,5.99993,0,1,1-8.8789,8.07227L158,169.9194V224a6.00016,6.00016,0,0,1-9.68359,4.73632L77.94141,174H32a14.01573,14.01573,0,0,1-14-14V96A14.01572,14.01572,0,0,1,32,82H78.07324L43.56055,44.0361a5.99993,5.99993,0,1,1,8.8789-8.07227ZM146,156.71969,88.98242,94H32a2.0026,2.0026,0,0,0-2,2v64a2.0026,2.0026,0,0,0,2,2H80a5.99807,5.99807,0,0,1,3.68359,1.26367L146,211.73239ZM115.834,67.73044,146,44.26754v62.56153a6,6,0,0,0,12,0V32a6.00042,6.00042,0,0,0-9.68359-4.73633L108.4668,58.25778a6.00014,6.00014,0,1,0,7.36718,9.47266Z"/>
</svg>
