<svg xmlns="http://www.w3.org/2000/svg" viewBox="0 0 256 256"><path d="M246,128a77.5,77.5,0,0,1-22.9,55.2,6,6,0,0,1-8.4,0,5.9,5.9,0,0,1,0-8.5,66.1,66.1,0,0,0,0-93.4,6,6,0,1,1,8.4-8.5A77.5,77.5,0,0,1,246,128ZM158,32V224a6,6,0,0,1-3.4,5.4,5.8,5.8,0,0,1-2.6.6,5.8,5.8,0,0,1-3.7-1.3L77.9,174H32a14,14,0,0,1-14-14V96A14,14,0,0,1,32,82H77.9l70.4-54.7A6,6,0,0,1,158,32ZM32,162H74V94H32a2,2,0,0,0-2,2v64A2,2,0,0,0,32,162ZM146,44.3,86,90.9v74.2l60,46.6Zm40.4,56.8a5.9,5.9,0,0,0,0,8.5,26.1,26.1,0,0,1,0,36.8,5.9,5.9,0,0,0,0,8.5,6.1,6.1,0,0,0,4.2,1.7,6.5,6.5,0,0,0,4.3-1.7,38.1,38.1,0,0,0,0-53.8A6.1,6.1,0,0,0,186.4,101.1Z"/></svg>