<svg id="Flat" xmlns="http://www.w3.org/2000/svg" viewBox="0 0 256 256">
  <path d="M245.97656,128.01169A77.48511,77.48511,0,0,1,223.12988,183.166a6,6,0,1,1-8.48437-8.48633,65.99833,65.99833,0,0,0,0-93.33691,6,6,0,1,1,8.48437-8.48633A77.48571,77.48571,0,0,1,245.97656,128.01169Zm-59.61621,26.86914a6.00017,6.00017,0,0,0,8.48535.001,37.99792,37.99792,0,0,0,0-53.74023,5.99936,5.99936,0,0,0-8.48437,8.48437,26,26,0,0,1,0,36.76953A5.99989,5.99989,0,0,0,186.36035,154.88083Zm26.0791,57.083a5.99993,5.99993,0,1,1-8.8789,8.07227L158,169.9194v54.09229a6.00016,6.00016,0,0,1-9.68359,4.73632l-70.375-54.73632H32a14.01573,14.01573,0,0,1-14-14v-64a14.01572,14.01572,0,0,1,14-14H77.94141l.08349-.06495L43.56055,44.0361a5.99993,5.99993,0,1,1,8.8789-8.07227ZM32,162.01169H73.99414v-68H32a2.0026,2.0026,0,0,0-2,2v64A2.00261,2.00261,0,0,0,32,162.01169Zm114-5.292L86.12061,90.85251l-.12647.09814v74.12158L146,211.74411ZM115.83984,67.73727,146,44.27926v62.54981a6,6,0,0,0,12,0V32.01169a6.00042,6.00042,0,0,0-9.68359-4.73633L108.47266,58.26462a6.00013,6.00013,0,1,0,7.36718,9.47265Z"/>
</svg>
