<svg id="Flat" xmlns="http://www.w3.org/2000/svg" viewBox="0 0 256 256">
  <path d="M154.63574,26.61035a5.99842,5.99842,0,0,0-6.31933.65332L77.94141,82H32A14.01572,14.01572,0,0,0,18,96v64a14.01572,14.01572,0,0,0,14,14H77.94141l70.375,54.73633A6.00042,6.00042,0,0,0,158,224V32A5.99954,5.99954,0,0,0,154.63574,26.61035ZM146,211.73242,83.68359,163.26367A5.99813,5.99813,0,0,0,80,162H32a2.0026,2.0026,0,0,1-2-2V96a2.0026,2.0026,0,0,1,2-2H80a5.99813,5.99813,0,0,0,3.68359-1.26367L146,44.26758Zm98.24219-63.97461a5.99936,5.99936,0,1,1-8.48438,8.48438L216,136.48437l-19.75781,19.75782a5.99936,5.99936,0,0,1-8.48438-8.48438L207.51562,128l-19.75781-19.75781a5.99936,5.99936,0,0,1,8.48438-8.48438L216,119.51562l19.75781-19.75781a5.99936,5.99936,0,0,1,8.48438,8.48438L224.48437,128Z"/>
</svg>
