<svg xmlns="http://www.w3.org/2000/svg" viewBox="0 0 256 256"><path d="M186,152V104a6,6,0,0,1,12,0v48a6,6,0,0,1-12,0Zm38-70a6,6,0,0,0-6,6v80a6,6,0,0,0,12,0V88A6,6,0,0,0,224,82ZM212.4,212a5.8,5.8,0,0,1-.4,8.4,5.7,5.7,0,0,1-4,1.6,5.9,5.9,0,0,1-4.4-2L158,169.9V224a6,6,0,0,1-3.4,5.4,5.8,5.8,0,0,1-2.6.6,5.8,5.8,0,0,1-3.7-1.3L77.9,174H32a14,14,0,0,1-14-14V96A14,14,0,0,1,32,82H78.1L43.6,44a5.9,5.9,0,0,1,8.8-8ZM146,156.7,89,94H32a2,2,0,0,0-2,2v64a2,2,0,0,0,2,2H80a5.8,5.8,0,0,1,3.7,1.3L146,211.7Zm-30.2-89L146,44.3v62.5a6,6,0,1,0,12,0V32a6,6,0,0,0-9.7-4.7l-39.8,31a6,6,0,0,0-1.1,8.4A5.9,5.9,0,0,0,115.8,67.7Z"/></svg>