<svg xmlns="http://www.w3.org/2000/svg" viewBox="0 0 256 256"><path d="M154.6,26.6a6,6,0,0,0-6.3.7L77.9,82H32A14,14,0,0,0,18,96v64a14,14,0,0,0,14,14H77.9l70.4,54.7A5.8,5.8,0,0,0,152,230a5.8,5.8,0,0,0,2.6-.6A6,6,0,0,0,158,224V32A6,6,0,0,0,154.6,26.6ZM30,160V96a2,2,0,0,1,2-2H74v68H32A2,2,0,0,1,30,160Zm116,51.7L86,165.1V90.9l60-46.6Zm98.2-63.9a5.9,5.9,0,1,1-8.4,8.4L216,136.5l-19.8,19.7a5.9,5.9,0,0,1-8.4-8.4L207.5,128l-19.7-19.8a5.9,5.9,0,0,1,8.4-8.4L216,119.5l19.8-19.7a5.9,5.9,0,0,1,8.4,8.4L224.5,128Z"/></svg>