<svg id="Flat" xmlns="http://www.w3.org/2000/svg" viewBox="0 0 256 256">
  <path d="M154.63574,26.61035a5.99842,5.99842,0,0,0-6.31933.65332L77.94141,82H32A14.01572,14.01572,0,0,0,18,96v64a14.01572,14.01572,0,0,0,14,14H77.94141l70.375,54.73633A6.00042,6.00042,0,0,0,158,224V32A5.99954,5.99954,0,0,0,154.63574,26.61035ZM30,160V96a2.0026,2.0026,0,0,1,2-2H73.98828v68H32A2.0026,2.0026,0,0,1,30,160Zm116,51.73242L85.98828,165.05615V90.94385L146,44.26758ZM205.98242,128a37.749,37.749,0,0,1-11.13086,26.87012,6,6,0,1,1-8.48437-8.48633,25.9976,25.9976,0,0,0,0-36.76758,6,6,0,1,1,8.48437-8.48633A37.749,37.749,0,0,1,205.98242,128Z"/>
</svg>
