<svg id="Flat" xmlns="http://www.w3.org/2000/svg" viewBox="0 0 256 256">
  <path d="M245.98242,128a77.48683,77.48683,0,0,1-22.84668,55.1543,5.99936,5.99936,0,0,1-8.48437-8.48438,66.00187,66.00187,0,0,0,0-93.33984,5.99936,5.99936,0,1,1,8.48437-8.48438A77.48682,77.48682,0,0,1,245.98242,128ZM158,32V224a6.00017,6.00017,0,0,1-9.68359,4.73633L77.94141,174H32a14.01572,14.01572,0,0,1-14-14V96A14.01572,14.01572,0,0,1,32,82H77.94141l70.375-54.73633A6.00042,6.00042,0,0,1,158,32ZM32,162H73.98828V94H32a2.0026,2.0026,0,0,0-2,2v64A2.0026,2.0026,0,0,0,32,162ZM146,44.26758,85.98828,90.94385v74.1123L146,211.73242Zm40.36621,56.86328a5.99988,5.99988,0,0,0,.001,8.48535,25.9976,25.9976,0,0,1,0,36.76758,6,6,0,0,0,8.48437,8.48633,37.99794,37.99794,0,0,0,0-53.74024A6.00076,6.00076,0,0,0,186.36621,101.13086Z"/>
</svg>
