<svg xmlns="http://www.w3.org/2000/svg" viewBox="0 0 256 256"><path d="M134,32V64a6,6,0,0,1-12,0V32a6,6,0,0,1,12,0Zm39.3,56.7a5.8,5.8,0,0,0,4.2-1.7l22.6-22.6a6,6,0,0,0-8.5-8.5L169,78.5a6.1,6.1,0,0,0,0,8.5A5.9,5.9,0,0,0,173.3,88.7ZM224,122H192a6,6,0,0,0,0,12h32a6,6,0,0,0,0-12Zm-46.5,47a6,6,0,0,0-8.5,8.5l22.6,22.6a6,6,0,0,0,4.3,1.8,5.8,5.8,0,0,0,4.2-1.8,5.9,5.9,0,0,0,0-8.5ZM128,186a6,6,0,0,0-6,6v32a6,6,0,0,0,12,0V192A6,6,0,0,0,128,186ZM78.5,169,55.9,191.6a5.9,5.9,0,0,0,0,8.5,5.8,5.8,0,0,0,4.2,1.8,6,6,0,0,0,4.3-1.8L87,177.5a6,6,0,0,0-8.5-8.5ZM70,128a6,6,0,0,0-6-6H32a6,6,0,0,0,0,12H64A6,6,0,0,0,70,128ZM64.4,55.9a6,6,0,0,0-8.5,8.5L78.5,87a5.8,5.8,0,0,0,4.2,1.7A5.9,5.9,0,0,0,87,87a6.1,6.1,0,0,0,0-8.5Z"/></svg>