<svg id="Flat" xmlns="http://www.w3.org/2000/svg" viewBox="0 0 256 256">
  <path d="M134,32V64a6,6,0,0,1-12,0V32a6,6,0,0,1,12,0Zm39.25488,56.74512a5.97889,5.97889,0,0,0,4.24219-1.75782l22.62695-22.627a5.99936,5.99936,0,0,0-8.48437-8.48437l-22.62695,22.627a6,6,0,0,0,4.24218,10.24219ZM224,122H192a6,6,0,0,0,0,12h32a6,6,0,0,0,0-12Zm-46.50293,47.0127a5.99936,5.99936,0,0,0-8.48437,8.48437L191.63965,200.124a5.99936,5.99936,0,0,0,8.48437-8.48437ZM128,186a6.00029,6.00029,0,0,0-6,6v32a6,6,0,0,0,12,0V192A6.00029,6.00029,0,0,0,128,186ZM78.50293,169.0127,55.876,191.63965a5.99936,5.99936,0,1,0,8.48437,8.48437l22.627-22.62695a5.99936,5.99936,0,0,0-8.48437-8.48437ZM70,128a6.00029,6.00029,0,0,0-6-6H32a6,6,0,0,0,0,12H64A6.00029,6.00029,0,0,0,70,128ZM64.36035,55.876A5.99936,5.99936,0,0,0,55.876,64.36035l22.627,22.627a5.99936,5.99936,0,0,0,8.48437-8.48437Z"/>
</svg>
