<svg xmlns="http://www.w3.org/2000/svg" viewBox="0 0 256 256"><path d="M128.1,26a102,102,0,1,0,102,102A102.1,102.1,0,0,0,128.1,26Zm0,192a90,90,0,1,1,90-90A90.1,90.1,0,0,1,128.1,218Zm56.4-106.9a6.1,6.1,0,0,1-8.1,2.6,106,106,0,0,0-96.8,0,5.5,5.5,0,0,1-2.8.7A6,6,0,0,1,74.1,103a118.5,118.5,0,0,1,54-13,116.7,116.7,0,0,1,53.8,13A6,6,0,0,1,184.5,111.1Zm-14.8,28.3a6,6,0,0,1-8.1,2.7,73.7,73.7,0,0,0-67.2,0,6.8,6.8,0,0,1-2.7.7,6,6,0,0,1-2.8-11.4,86,86,0,0,1,78.2,0A6,6,0,0,1,169.7,139.4Zm-14.8,28.4a6.1,6.1,0,0,1-8.1,2.6,41.8,41.8,0,0,0-18.7-4.4,41.1,41.1,0,0,0-18.9,4.5,6.6,6.6,0,0,1-2.7.6,6.1,6.1,0,0,1-5.4-3.3,5.9,5.9,0,0,1,2.7-8,52.4,52.4,0,0,1,24.3-5.8,53.1,53.1,0,0,1,24.1,5.7A6,6,0,0,1,154.9,167.8Z"/></svg>