<svg id="Flat" xmlns="http://www.w3.org/2000/svg" viewBox="0 0 256 256">
  <path d="M204,38H52A14.01572,14.01572,0,0,0,38,52V204a14.01572,14.01572,0,0,0,14,14H204a14.01572,14.01572,0,0,0,14-14V52A14.01572,14.01572,0,0,0,204,38ZM134,158.49121,181.50879,206H134ZM134,50h3.50879L206,118.49121v39.0293l-72-72Zm72,2v49.52051L154.47949,50H204A2.00229,2.00229,0,0,1,206,52ZM50,204V52a2.00229,2.00229,0,0,1,2-2h70V206H52A2.00229,2.00229,0,0,1,50,204Zm154,2h-5.52051L134,141.52051v-39.0293l72,72V204A2.00229,2.00229,0,0,1,204,206Z"/>
</svg>
