<svg id="Flat" xmlns="http://www.w3.org/2000/svg" viewBox="0 0 256 256">
  <path d="M229.18262,172.97656a5.99985,5.99985,0,0,1-2.15918,8.20606l-96,56a6.00045,6.00045,0,0,1-6.04688,0l-96-56a6.00006,6.00006,0,0,1,6.04688-10.36524L128,225.05371l92.97656-54.23633A5.9991,5.9991,0,0,1,229.18262,172.97656Zm-8.20606-50.15918L128,177.05371,35.02344,122.81738a6.00006,6.00006,0,0,0-6.04688,10.36524l96,56a6.00045,6.00045,0,0,0,6.04688,0l96-56a6.00006,6.00006,0,0,0-6.04688-10.36524ZM26,80a6,6,0,0,1,2.97656-5.18262l96-56a6.00045,6.00045,0,0,1,6.04688,0l96,56a6.00012,6.00012,0,0,1,0,10.36524l-96,56a6.00045,6.00045,0,0,1-6.04688,0l-96-56A6,6,0,0,1,26,80Zm17.90771,0L128,129.05371,212.0918,80,128,30.94629Z"/>
</svg>
