<svg xmlns="http://www.w3.org/2000/svg" viewBox="0 0 256 256"><path d="M214,152v64a6,6,0,0,1-6,6H48a6,6,0,0,1-6-6V152a6,6,0,0,1,12,0v58H202V152a6,6,0,0,1,12,0ZM88,182h80a6,6,0,0,0,0-12H88a6,6,0,0,0,0,12Zm5.4-53,77.3,20.7,1.5.2a6,6,0,0,0,1.6-11.8L96.5,117.4a5.9,5.9,0,0,0-7.3,4.2A6,6,0,0,0,93.4,129Zm18.9-49.8,69.3,40a6.7,6.7,0,0,0,3,.8,6,6,0,0,0,3-11.2l-69.3-40a6,6,0,0,0-8.2,2.2A6.1,6.1,0,0,0,112.3,79.2Zm87.8,13.4a6.1,6.1,0,0,0,4.2,1.7,6.3,6.3,0,0,0,4.3-1.7,6.1,6.1,0,0,0,0-8.5L152,27.5a6,6,0,0,0-8.5,8.5Z"/></svg>