<svg id="Flat" xmlns="http://www.w3.org/2000/svg" viewBox="0 0 256 256">
  <path d="M13.02344,109.209l112,64a5.99582,5.99582,0,0,0,5.95312,0l112-64a5.99891,5.99891,0,0,0,0-10.418l-112-64a5.99583,5.99583,0,0,0-5.95312,0l-112,64a5.99891,5.99891,0,0,0,0,10.418ZM128,46.91016,227.90625,104,128,161.08984,28.09326,104Zm117.20947,94.11328a5.99885,5.99885,0,0,1-2.23291,8.18554l-112,64a5.99582,5.99582,0,0,1-5.95312,0l-112-64a5.99945,5.99945,0,1,1,5.95312-10.418L128,201.08984,237.02344,138.791A5.9984,5.9984,0,0,1,245.20947,141.02344Z"/>
</svg>
