<svg xmlns="http://www.w3.org/2000/svg" viewBox="0 0 256 256"><path d="M222,224a6,6,0,0,1-6,6H40a6,6,0,0,1,0-12H216A6,6,0,0,1,222,224Zm0-80v40a14,14,0,0,1-14,14H48a14,14,0,0,1-14-14V144a14,14,0,0,1,14-14h56.6L88.4,54.3a29.4,29.4,0,0,1,6-25.2A30,30,0,0,1,117.7,18h20.6a30,30,0,0,1,23.3,11.1,29.4,29.4,0,0,1,6,25.2L151.4,130H208A14,14,0,0,1,222,144ZM116.9,130h22.2l16.8-78.2A18,18,0,0,0,138.3,30H117.7a18,18,0,0,0-17.6,21.8ZM210,144a2,2,0,0,0-2-2H48a2,2,0,0,0-2,2v40a2,2,0,0,0,2,2H208a2,2,0,0,0,2-2Z"/></svg>