<svg id="Flat" xmlns="http://www.w3.org/2000/svg" viewBox="0 0 256 256">
  <path d="M229.375,114.84277,165.55859,91.63672a1.998,1.998,0,0,1-1.19531-1.19629L141.15723,26.625a14.00006,14.00006,0,0,0-26.31446,0L91.63672,90.44141a1.998,1.998,0,0,1-1.19629,1.19531L26.625,114.84277a14.00006,14.00006,0,0,0,0,26.31446l63.81641,23.20605a1.998,1.998,0,0,1,1.19531,1.19629L114.84277,229.375a14.00006,14.00006,0,0,0,26.31446,0l23.20605-63.81543v-.001a1.998,1.998,0,0,1,1.19629-1.19531L229.375,141.15723a14.00006,14.00006,0,0,0,0-26.31446Zm-4.10156,15.03711L161.459,153.08594a13.96159,13.96159,0,0,0-8.373,8.373v-.001l-23.20606,63.81543a2,2,0,0,1-3.75976,0L102.91406,161.459a13.96252,13.96252,0,0,0-8.37207-8.373L30.72656,129.87988a2,2,0,0,1,0-3.75976L94.541,102.91406a13.96252,13.96252,0,0,0,8.373-8.37207l23.20606-63.81543a2,2,0,0,1,3.75976,0L153.08594,94.541a13.96252,13.96252,0,0,0,8.37207,8.373l63.81543,23.20606a2,2,0,0,1,0,3.75976Z"/>
</svg>
