<svg id="Flat" xmlns="http://www.w3.org/2000/svg" viewBox="0 0 256 256">
  <path d="M187.26172,229.9812a14.22016,14.22016,0,0,1-7.626-2.22632L129.2002,195.801a2.22446,2.22446,0,0,0-2.4004,0L79.92969,225.49585a15.61185,15.61185,0,0,1-17.835-.561A16.38183,16.38183,0,0,1,55.8584,207.53l13.51367-53.16a2.74761,2.74761,0,0,0-.86035-2.78565L23.28418,113.94067a14.66833,14.66833,0,0,1-4.543-15.90393,14.37124,14.37124,0,0,1,12.752-9.99951L90.55762,84.204a2.40719,2.40719,0,0,0,2.05859-1.57666l22.03027-55.474a14.31713,14.31713,0,0,1,26.707.00024l22.02929,55.47278a2.40915,2.40915,0,0,0,2.05957,1.57764l59.06446,3.83325a14.37124,14.37124,0,0,1,12.75195,9.99951,14.66933,14.66933,0,0,1-4.542,15.90381l-45.22852,37.64356a2.74866,2.74866,0,0,0-.86035,2.78637l14.57227,57.3219a14.64616,14.64616,0,0,1-5.57911,15.55982A14.21725,14.21725,0,0,1,187.26172,229.9812ZM128,183.46411a14.23932,14.23932,0,0,1,7.62207,2.2002h0l50.43555,31.95385a2.10837,2.10837,0,0,0,2.51855-.08007,2.61094,2.61094,0,0,0,.99317-2.88916l-14.57227-57.32239a14.80517,14.80517,0,0,1,4.81543-14.96607L225.04,104.71729a2.65873,2.65873,0,0,0,.80762-2.96656,2.344,2.344,0,0,0-2.11817-1.73865L164.665,96.17883a14.491,14.491,0,0,1-12.43555-9.12439L130.20117,31.58228a2.32226,2.32226,0,0,0-4.40234-.00025L103.76953,87.0553A14.489,14.489,0,0,1,91.335,96.17883l-59.06445,3.83325a2.344,2.344,0,0,0-2.11817,1.73865,2.658,2.658,0,0,0,.8086,2.96668L76.1875,142.36072a14.80422,14.80422,0,0,1,4.81543,14.96545L67.48926,210.48682a4.35081,4.35081,0,0,0,1.65039,4.73388,3.7558,3.7558,0,0,0,4.36816.13868l46.87012-29.69507A14.23932,14.23932,0,0,1,128,183.46411Z"/>
</svg>
