<svg xmlns="http://www.w3.org/2000/svg" viewBox="0 0 256 256"><path d="M232.7,113.9l-8.7,7.3a6,6,0,0,1-8.5-.8,6,6,0,0,1,.8-8.4l8.7-7.3a2.5,2.5,0,0,0,.8-2.9,2.3,2.3,0,0,0-2.1-1.8l-11.5-.7a6.1,6.1,0,0,1-5.6-6.4,6,6,0,0,1,6.4-5.6l11.5.7a14.5,14.5,0,0,1,12.8,10A14.7,14.7,0,0,1,232.7,113.9ZM175,157.3l3.3,13.1a6,6,0,0,0,5.8,4.5l1.5-.2a5.9,5.9,0,0,0,4.3-7.3l-3.3-13a2.8,2.8,0,0,1,.9-2.8l10-8.4a5.9,5.9,0,0,0,.8-8.4,6,6,0,0,0-8.5-.8l-10,8.4A14.7,14.7,0,0,0,175,157.3ZM177.8,97l-13.1-.8a14.8,14.8,0,0,1-12.5-9.1L134,41.1V184.8a5.1,5.1,0,0,1,1.6.9l11.5,7.3a5.9,5.9,0,0,1,1.9,8.2,6,6,0,0,1-8.3,1.9l-11.5-7.3a2.1,2.1,0,0,0-2.4,0L79.9,225.5a15.6,15.6,0,0,1-17.8-.6,16.2,16.2,0,0,1-6.2-17.4l13.5-53.1a2.8,2.8,0,0,0-.9-2.8L23.3,113.9A14.7,14.7,0,0,1,18.7,98,14.5,14.5,0,0,1,31.5,88l59.1-3.8a2.4,2.4,0,0,0,2-1.6l22-55.4a14.4,14.4,0,0,1,26.8,0l22,55.4a2.4,2.4,0,0,0,2,1.6l13.2.9a5.9,5.9,0,0,1,5.6,6.3A6,6,0,0,1,177.8,97Zm-57.4,88.7a5.1,5.1,0,0,1,1.6-.9V41.1l-18.2,46a14.8,14.8,0,0,1-12.5,9.1l-59,3.8a2.3,2.3,0,0,0-2.1,1.8,2.5,2.5,0,0,0,.8,2.9l45.2,37.7A14.7,14.7,0,0,1,81,157.3L67.5,210.5a4.4,4.4,0,0,0,1.6,4.7,3.9,3.9,0,0,0,4.4.2Zm78,15.1a6,6,0,1,0-11.6,2.9l2.8,10.9a2.7,2.7,0,0,1-1,2.9,2.1,2.1,0,0,1-2.5.1l-9.9-6.2a6,6,0,0,0-6.4,10.1l9.8,6.3a15.2,15.2,0,0,0,7.7,2.2,14.2,14.2,0,0,0,8.3-2.7,14.7,14.7,0,0,0,5.6-15.6Z"/></svg>