<svg id="Flat" xmlns="http://www.w3.org/2000/svg" viewBox="0 0 256 256">
  <path d="M232.7168,113.94043l-8.71875,7.25586a5.99948,5.99948,0,1,1-7.67578-9.22266l8.71777-7.25586a2.65912,2.65912,0,0,0,.80762-2.96679,2.34305,2.34305,0,0,0-2.11817-1.73926l-11.54785-.749a5.99991,5.99991,0,0,1,.77734-11.97461l11.54786.749a14.37167,14.37167,0,0,1,12.75195,10A14.66821,14.66821,0,0,1,232.7168,113.94043Zm-57.71973,43.38672,3.31445,13.03515a6.00044,6.00044,0,1,0,11.63086-2.957l-3.31445-13.03418a2.75007,2.75007,0,0,1,.86035-2.78711l10.03223-8.3496a5.99948,5.99948,0,1,0-7.67578-9.22266l-10.03223,8.34863A14.80614,14.80614,0,0,0,174.99707,157.32715Zm2.80469-60.2959L164.665,96.17871a14.49106,14.49106,0,0,1-12.43555-9.125L134,41.14893v143.6372a14.05477,14.05477,0,0,1,1.62207.87793l11.5166,7.29688a5.99986,5.99986,0,0,1-6.42187,10.13672l-11.5166-7.29688a2.22446,2.22446,0,0,0-2.4004,0L79.92969,225.49609a15.61073,15.61073,0,0,1-17.835-.56152,16.38065,16.38065,0,0,1-6.23633-17.4043l13.51367-53.16015a2.74679,2.74679,0,0,0-.86035-2.78516L23.28418,113.94043a14.667,14.667,0,0,1-4.543-15.90332,14.37167,14.37167,0,0,1,12.752-10l59.06446-3.833a2.40724,2.40724,0,0,0,2.05859-1.57617l22.03027-55.47461a14.31692,14.31692,0,0,1,26.707.001L163.38281,82.626a2.40881,2.40881,0,0,0,2.06055,1.57812l13.13574.85254a5.99991,5.99991,0,0,1-.77734,11.97461Zm-57.42383,88.63281A14.05477,14.05477,0,0,1,122,184.78613V41.14819L103.76953,87.05566a14.48958,14.48958,0,0,1-12.43359,9.123l-59.06543,3.833a2.34418,2.34418,0,0,0-2.11817,1.73926,2.65824,2.65824,0,0,0,.8086,2.96679L76.1875,142.36133a14.80289,14.80289,0,0,1,4.81543,14.96484L67.48926,210.4873a4.35038,4.35038,0,0,0,1.65039,4.7334,3.75044,3.75044,0,0,0,4.36816.13868Zm78.04785,15.11621a6.00044,6.00044,0,0,0-11.63086,2.957l2.77442,10.91211a2.61013,2.61013,0,0,1-.99317,2.88868,2.10687,2.10687,0,0,1-2.51855.08007l-9.82617-6.22461a5.99987,5.99987,0,0,0-6.42188,10.13672l9.8252,6.22461a14.17263,14.17263,0,0,0,15.98632-.502,14.647,14.647,0,0,0,5.57911-15.56055Z"/>
</svg>
