<svg xmlns="http://www.w3.org/2000/svg" viewBox="0 0 256 256"><path d="M229.4,114.8,165.6,91.6a1.8,1.8,0,0,1-1.2-1.2L141.2,26.6a14.1,14.1,0,0,0-26.4,0L91.6,90.4a1.8,1.8,0,0,1-1.2,1.2L26.6,114.8a14.1,14.1,0,0,0,0,26.4l63.8,23.2a1.8,1.8,0,0,1,1.2,1.2l23.2,63.8a14.1,14.1,0,0,0,26.4,0l23.2-63.8h0a1.8,1.8,0,0,1,1.2-1.2l63.8-23.2a14.1,14.1,0,0,0,0-26.4Zm-4.1,15.1-63.8,23.2a14,14,0,0,0-8.4,8.4h0l-23.2,63.8a2,2,0,0,1-3.8,0l-23.2-63.8a14,14,0,0,0-8.4-8.4L30.7,129.9a2,2,0,0,1,0-3.8l63.8-23.2a14,14,0,0,0,8.4-8.4l23.2-63.8a2,2,0,0,1,3.8,0l23.2,63.8a14,14,0,0,0,8.4,8.4l63.8,23.2a2,2,0,0,1,0,3.8Z"/></svg>