<svg id="Flat" xmlns="http://www.w3.org/2000/svg" viewBox="0 0 256 256">
  <path d="M221.93018,136.86768A6.01746,6.01746,0,0,0,222,136V88a54.06156,54.06156,0,0,0-54-54H88A54.06156,54.06156,0,0,0,34,88v80a54.06156,54.06156,0,0,0,54,54h48a5.9772,5.9772,0,0,0,.86743-.06982c.05542-.00782.11035-.01563.16553-.02491a5.98884,5.98884,0,0,0,.83423-.20556c.00989-.00293.02026-.00391.03027-.00733,25.84277-8.61426,75.18066-57.95215,83.79492-83.79492.0033-.00976.00415-.02051.00745-.03027a5.93253,5.93253,0,0,0,.2052-.83448C221.91467,136.97754,221.92212,136.92285,221.93018,136.86768ZM46,168V88A42.04718,42.04718,0,0,1,88,46h80a42.04718,42.04718,0,0,1,42,42v42H184a54.06156,54.06156,0,0,0-54,54v26H88A42.04718,42.04718,0,0,1,46,168Zm96,38.67285V184a42.04718,42.04718,0,0,1,42-42h22.6731C194.843,163.09912,163.09912,194.84326,142,206.67285Z"/>
</svg>
