<svg xmlns="http://www.w3.org/2000/svg" viewBox="0 0 256 256"><path d="M230,95.8v-.2c0-.2,0-.3-.1-.4v-.3c0-.1-.1-.3-.1-.4h0L215.4,44.2A14,14,0,0,0,202,34H54A14,14,0,0,0,40.6,44.2L26.2,94.4h0c0,.1-.1.3-.1.4v.3c-.1.1-.1.2-.1.4V112a37.9,37.9,0,0,0,16,31v65a14,14,0,0,0,14,14H200a14,14,0,0,0,14-14V143a37.9,37.9,0,0,0,16-31V95.8ZM52.1,47.5A2,2,0,0,1,54,46H202a2,2,0,0,1,1.9,1.5L216,90H40ZM102,102h52v10a26,26,0,0,1-52,0Zm-64,0H90v10a26.1,26.1,0,0,1-26,26,26.5,26.5,0,0,1-12.2-3,5.4,5.4,0,0,0-1.6-1A26,26,0,0,1,38,112ZM202,208a2,2,0,0,1-2,2H56a2,2,0,0,1-2-2V148.7A40.9,40.9,0,0,0,64,150a38.1,38.1,0,0,0,32-17.5,38,38,0,0,0,64,0A38.1,38.1,0,0,0,192,150a40.9,40.9,0,0,0,10-1.3Zm3.8-74a5.4,5.4,0,0,0-1.6,1,26.5,26.5,0,0,1-12.2,3,26.1,26.1,0,0,1-26-26V102h52v10A26,26,0,0,1,205.8,134Z"/></svg>