<svg id="Flat" xmlns="http://www.w3.org/2000/svg" viewBox="0 0 256 256">
  <path d="M229.99243,95.84985c-.0022-.08984-.00732-.1792-.01367-.269q-.0141-.20544-.04211-.40649c-.01087-.07825-.02173-.15613-.03577-.23413-.02783-.15552-.063-.30811-.10254-.45923-.01123-.043-.0166-.08667-.02881-.1294l-14.3418-50.19775A14.06065,14.06065,0,0,0,201.96582,34H54.03418A14.06065,14.06065,0,0,0,40.57227,44.15381L26.23047,94.35156c-.01221.04273-.01758.08643-.02881.1294-.03955.15112-.07471.30371-.10254.45923-.01391.07788-.0249.15576-.03564.23388-.01856.13477-.03284.27027-.04236.40772-.00623.08923-.01135.178-.01355.26721C26.00635,95.89966,26,95.949,26,96v16a37.97006,37.97006,0,0,0,16,30.95435V208a14.01572,14.01572,0,0,0,14,14H200a14.01572,14.01572,0,0,0,14-14V142.95435A37.96956,37.96956,0,0,0,230,112V96C230,95.94922,229.99365,95.90015,229.99243,95.84985ZM52.11133,47.45068A2.00728,2.00728,0,0,1,54.03418,46H201.96582a2.00728,2.00728,0,0,1,1.92285,1.45068L216.0459,90H39.9541ZM102,102h52v10a26,26,0,0,1-52,0Zm-64,0H90v10a25.98635,25.98635,0,0,1-38.18066,22.96118,5.99246,5.99246,0,0,0-1.6543-.96362A25.99878,25.99878,0,0,1,38,112ZM202,208a2.00229,2.00229,0,0,1-2,2H56a2.00229,2.00229,0,0,1-2-2V148.65515a37.93353,37.93353,0,0,0,42-16.20093,37.9537,37.9537,0,0,0,64,0,37.93353,37.93353,0,0,0,42,16.20093Zm3.82971-73.999a5.99677,5.99677,0,0,0-1.64477.958A25.98646,25.98646,0,0,1,166,112V102h52v10A25.999,25.999,0,0,1,205.82971,134.001Z"/>
</svg>
