<svg xmlns="http://www.w3.org/2000/svg" viewBox="0 0 256 256"><path d="M170.1,152c0,16.8-18.5,30-42.1,30s-42.1-13.2-42.1-30a6,6,0,0,1,12,0c0,9.8,13.8,18,30.1,18s30.1-8.2,30.1-18-12.8-15.1-32.3-20.1c-17.8-4.6-37.9-9.7-37.9-27.9S105.2,74,128,74c16.5,0,30.5,6.8,36.8,17.7a6,6,0,0,1-10.5,5.9C150.3,90.6,140,86,128,86c-15.7,0-28.1,7.9-28.1,18,0,8.3,11.4,11.8,28.8,16.2S170.1,130.8,170.1,152ZM222,48V208a14,14,0,0,1-14,14H48a14,14,0,0,1-14-14V48A14,14,0,0,1,48,34H208A14,14,0,0,1,222,48Zm-12,0a2,2,0,0,0-2-2H48a2,2,0,0,0-2,2V208a2,2,0,0,0,2,2H208a2,2,0,0,0,2-2Z"/></svg>