<svg xmlns="http://www.w3.org/2000/svg" viewBox="0 0 256 256"><path d="M225.9,58.3l-96-32a6.2,6.2,0,0,0-3.8,0l-95.9,32H30l-.7.4h-.1l-.7.4a.1.1,0,0,1-.1.1l-.7.6h0l-.5.6a.1.1,0,0,1-.1.1l-.4.7c0,.1-.1.1-.1.2l-.3.7h0a1.9,1.9,0,0,0-.2.8h0a2.8,2.8,0,0,0-.1.9v80a6,6,0,0,0,12,0V72.3L76.7,85.2A61.4,61.4,0,0,0,66,120a62,62,0,0,0,32.7,54.6,94.2,94.2,0,0,0-49.5,38.1,6,6,0,0,0,10.1,6.6,81.9,81.9,0,0,1,137.4,0,6.3,6.3,0,0,0,5.1,2.7,5.5,5.5,0,0,0,3.2-1,6,6,0,0,0,1.8-8.3,94.2,94.2,0,0,0-49.5-38.1A62,62,0,0,0,190,120a61.4,61.4,0,0,0-10.7-34.8l46.6-15.5a6,6,0,0,0,0-11.4ZM178,120A50,50,0,1,1,88.6,89.2l37.5,12.5a6.2,6.2,0,0,0,3.8,0l37.5-12.5A50.4,50.4,0,0,1,178,120ZM167.3,76.6h0L128,89.7,88.7,76.6h0L51,64l77-25.7L205,64Z"/></svg>