<svg id="Flat" xmlns="http://www.w3.org/2000/svg" viewBox="0 0 256 256">
  <path d="M225.89746,58.30762l-96-32a6.00576,6.00576,0,0,0-3.79492,0L30.2168,58.26953l-.00293.001-.11133.03711c-.02173.00732-.041.019-.0625.02636a5.9954,5.9954,0,0,0-.75708.32129c-.02759.01416-.05664.02613-.08423.04077a5.99949,5.99949,0,0,0-.69824.43726c-.04932.0354-.09741.07178-.14575.10889a6.02984,6.02984,0,0,0-.6128.53222c-.0188.01905-.03491.0398-.05346.05884a6.07094,6.07094,0,0,0-.49244.583c-.032.043-.06494.08472-.09594.12842a6.01078,6.01078,0,0,0-.42359.69433c-.02.03882-.03735.07862-.05664.11768a5.92826,5.92826,0,0,0-.301.72534c-.00879.02539-.01929.04956-.02759.0752a5.97238,5.97238,0,0,0-.19653.8125c-.01026.05737-.01807.115-.02637.17285A5.97956,5.97956,0,0,0,26,64v80a6,6,0,0,0,12,0V72.325L76.67676,85.217a61.97946,61.97946,0,0,0,22.064,89.427,93.84547,93.84547,0,0,0-49.53467,38.07764,6,6,0,1,0,10.05176,6.55469,82.02224,82.02224,0,0,1,137.48389,0,6,6,0,1,0,10.05176-6.55469A93.84436,93.84436,0,0,0,157.25928,174.644a61.97946,61.97946,0,0,0,22.064-89.427l46.57422-15.52466a6.00043,6.00043,0,0,0,0-11.38476ZM178,120A50,50,0,1,1,88.62524,89.2l37.4773,12.49243a6.00576,6.00576,0,0,0,3.79492,0L167.37476,89.2A49.84517,49.84517,0,0,1,178,120ZM167.34375,76.561l-.02319.00781L128,89.67578,88.68018,76.56909l-.02466-.0083L50.97363,64,128,38.32422,205.02637,64Z"/>
</svg>
