<svg id="Flat" xmlns="http://www.w3.org/2000/svg" viewBox="0 0 256 256">
  <path d="M216.00781,66H174V56a22.02489,22.02489,0,0,0-22-22H104A22.02489,22.02489,0,0,0,82,56V66H40.00781a14.01573,14.01573,0,0,0-14,14v79.84521C26.00635,159.89746,26,159.94775,26,160s.00635.10254.00781.15479V208a14.01573,14.01573,0,0,0,14,14h176a14.01572,14.01572,0,0,0,14-14V80A14.01572,14.01572,0,0,0,216.00781,66ZM94,56a10.01114,10.01114,0,0,1,10-10h48a10.01114,10.01114,0,0,1,10,10V66H94ZM40.00781,78h176a2.0026,2.0026,0,0,1,2,2v74h-180V80A2.0026,2.0026,0,0,1,40.00781,78Zm176,132h-176a2.0026,2.0026,0,0,1-2-2V166h180v42A2.0026,2.0026,0,0,1,216.00781,210Z"/>
</svg>
