<svg xmlns="http://www.w3.org/2000/svg" viewBox="0 0 256 256"><path d="M128,62a66,66,0,1,0,66,66A66.1,66.1,0,0,0,128,62Zm0,120a54,54,0,1,1,54-54A54,54,0,0,1,128,182ZM122,36V16a6,6,0,0,1,12,0V36a6,6,0,0,1-12,0ZM44.6,53A5.9,5.9,0,1,1,53,44.6L67.2,58.7a6.1,6.1,0,0,1,0,8.5,5.9,5.9,0,0,1-4.3,1.7,5.8,5.8,0,0,1-4.2-1.7ZM42,128a6,6,0,0,1-6,6H16a6,6,0,0,1,0-12H36A6,6,0,0,1,42,128Zm25.2,60.8a6.1,6.1,0,0,1,0,8.5L53,211.4a5.9,5.9,0,0,1-8.4-8.4l14.1-14.2A6.1,6.1,0,0,1,67.2,188.8ZM134,220v20a6,6,0,0,1-12,0V220a6,6,0,0,1,12,0Zm77.4-17a5.9,5.9,0,1,1-8.4,8.4l-14.2-14.1a6,6,0,0,1,8.5-8.5ZM246,128a6,6,0,0,1-6,6H220a6,6,0,0,1,0-12h20A6,6,0,0,1,246,128ZM211.4,44.6a5.8,5.8,0,0,1,0,8.4L197.3,67.2a5.8,5.8,0,0,1-4.2,1.7,5.9,5.9,0,0,1-4.3-1.7,6.1,6.1,0,0,1,0-8.5L203,44.6A5.8,5.8,0,0,1,211.4,44.6Z"/></svg>