<svg xmlns="http://www.w3.org/2000/svg" viewBox="0 0 256 256"><path d="M128,62a66,66,0,1,0,66,66A66.1,66.1,0,0,0,128,62Zm0,120a54,54,0,1,1,54-54A54,54,0,0,1,128,182ZM122,36V28a6,6,0,0,1,12,0v8a6,6,0,0,1-12,0ZM53,61.5A6,6,0,0,1,61.5,53l5.7,5.7a6.1,6.1,0,0,1,0,8.5,5.9,5.9,0,0,1-4.3,1.7,5.8,5.8,0,0,1-4.2-1.7ZM42,128a6,6,0,0,1-6,6H28a6,6,0,0,1,0-12h8A6,6,0,0,1,42,128Zm25.2,60.8a6.1,6.1,0,0,1,0,8.5L61.5,203a6.1,6.1,0,0,1-4.2,1.7A6.5,6.5,0,0,1,53,203a6.1,6.1,0,0,1,0-8.5l5.7-5.7A6.1,6.1,0,0,1,67.2,188.8ZM134,220v8a6,6,0,0,1-12,0v-8a6,6,0,0,1,12,0Zm69-25.5a6.1,6.1,0,0,1,0,8.5,6.5,6.5,0,0,1-4.3,1.7,6.1,6.1,0,0,1-4.2-1.7l-5.7-5.7a6,6,0,0,1,8.5-8.5ZM234,128a6,6,0,0,1-6,6h-8a6,6,0,0,1,0-12h8A6,6,0,0,1,234,128ZM203,53a6.1,6.1,0,0,1,0,8.5l-5.7,5.7a5.8,5.8,0,0,1-4.2,1.7,5.9,5.9,0,0,1-4.3-1.7,6.1,6.1,0,0,1,0-8.5l5.7-5.7A6.1,6.1,0,0,1,203,53Z"/></svg>