<svg id="Flat" xmlns="http://www.w3.org/2000/svg" viewBox="0 0 256 256">
  <path d="M128,62a66,66,0,1,0,66,66A66.07468,66.07468,0,0,0,128,62Zm0,120a54,54,0,1,1,54-54A54.06109,54.06109,0,0,1,128,182ZM122,36V28a6,6,0,0,1,12,0v8a6,6,0,0,1-12,0ZM53.04688,61.532a6,6,0,0,1,8.48535-8.48535L67.189,58.70386a6,6,0,0,1-8.48535,8.4851ZM42,128a6.00014,6.00014,0,0,1-6,6H28a6,6,0,0,1,0-12h8A6.00014,6.00014,0,0,1,42,128Zm25.189,60.811a5.99986,5.99986,0,0,1,0,8.48535l-5.65673,5.65673a6,6,0,0,1-8.48535-8.48535l5.65673-5.65673A6.00075,6.00075,0,0,1,67.189,188.811ZM134,220v8a6,6,0,0,1-12,0v-8a6,6,0,0,1,12,0Zm68.95312-25.53223a6,6,0,0,1-8.48535,8.48535l-5.65673-5.65673a6,6,0,0,1,8.48535-8.48535ZM234,128a6.00014,6.00014,0,0,1-6,6h-8a6,6,0,0,1,0-12h8A6.00014,6.00014,0,0,1,234,128ZM202.95312,53.04663a5.99986,5.99986,0,0,1,0,8.48535l-5.65673,5.657a6,6,0,0,1-8.48535-8.4851l5.65673-5.65723A6.00032,6.00032,0,0,1,202.95312,53.04663Z"/>
</svg>
