<svg id="Flat" xmlns="http://www.w3.org/2000/svg" viewBox="0 0 256 256">
  <path d="M128,62a66,66,0,1,0,66,66A66.07468,66.07468,0,0,0,128,62Zm0,120a54,54,0,1,1,54-54A54.06124,54.06124,0,0,1,128,182ZM122,36V16a6,6,0,0,1,12,0V36a6,6,0,0,1-12,0ZM44.56152,53.04687a6,6,0,0,1,8.48535-8.48535L67.189,58.70361A6,6,0,0,1,58.70361,67.189ZM42,128a6.00029,6.00029,0,0,1-6,6H16a6,6,0,0,1,0-12H36A6.00029,6.00029,0,0,1,42,128Zm25.189,60.811a5.99986,5.99986,0,0,1,0,8.48535L53.04687,211.43848a6.00005,6.00005,0,1,1-8.48535-8.48536L58.70361,188.811A5.99986,5.99986,0,0,1,67.189,188.811ZM134,220v20a6,6,0,0,1-12,0V220a6,6,0,0,1,12,0Zm77.43848-17.04688a6.00006,6.00006,0,1,1-8.48536,8.48536L188.811,197.29639a6,6,0,0,1,8.48535-8.48535ZM246,128a6.00029,6.00029,0,0,1-6,6H220a6,6,0,0,1,0-12h20A6.00029,6.00029,0,0,1,246,128ZM211.43848,44.56152a5.99988,5.99988,0,0,1,0,8.48535L197.29639,67.189a6,6,0,0,1-8.48535-8.48535l14.14208-14.14209A5.999,5.999,0,0,1,211.43848,44.56152Z"/>
</svg>
