<svg xmlns="http://www.w3.org/2000/svg" viewBox="0 0 256 256"><path d="M79.6,42.8A6,6,0,0,1,82.8,35a6.1,6.1,0,0,1,7.9,3.2l7.6,18.5a5.8,5.8,0,0,1-3.2,7.8,4.8,4.8,0,0,1-2.3.5,6.1,6.1,0,0,1-5.6-3.7ZM22.2,106.7l18.5,7.6a6.4,6.4,0,0,0,2.3.5,6,6,0,0,0,2.3-11.5L26.8,95.6A6,6,0,0,0,19,98.8,6.1,6.1,0,0,0,22.2,106.7ZM213,114.8a6.4,6.4,0,0,0,2.3-.5l18.5-7.6a6.1,6.1,0,0,0,3.2-7.9,6,6,0,0,0-7.8-3.2l-18.5,7.7a6,6,0,0,0,2.3,11.5ZM160.9,64.5a4.8,4.8,0,0,0,2.3.5,6.1,6.1,0,0,0,5.6-3.7l7.6-18.5a6,6,0,0,0-3.2-7.8,6.1,6.1,0,0,0-7.9,3.2l-7.6,18.5A5.8,5.8,0,0,0,160.9,64.5ZM246,160a6,6,0,0,1-6,6H16a6,6,0,0,1,0-12H62.8a66,66,0,1,1,130.4,0H240A6,6,0,0,1,246,160ZM74.9,154H181.1a55.5,55.5,0,0,0,.9-10,54,54,0,0,0-108,0A55.5,55.5,0,0,0,74.9,154ZM208,194H48a6,6,0,0,0,0,12H208a6,6,0,0,0,0-12Z"/></svg>