<svg id="Flat" xmlns="http://www.w3.org/2000/svg" viewBox="0 0 256 256">
  <path d="M79.59619,42.82129a6.00009,6.00009,0,0,1,11.08692-4.5918L98.33643,56.707a6.00009,6.00009,0,1,1-11.08692,4.5918Zm-57.3667,63.86133L40.707,114.33594A5.99964,5.99964,0,1,0,45.29883,103.25L26.82129,95.59668a5.99964,5.99964,0,1,0-4.5918,11.08594Zm190.77,8.1123a5.97061,5.97061,0,0,0,2.29346-.459l18.47754-7.65332a5.99964,5.99964,0,1,0-4.5918-11.08594L210.70117,103.25a6.001,6.001,0,0,0,2.29834,11.54492Zm-52.08838-50.249a5.99267,5.99267,0,0,0,7.83936-3.24707l7.65332-18.47754a6.00009,6.00009,0,0,0-11.08692-4.5918L157.66357,56.707A5.9994,5.9994,0,0,0,160.91113,64.5459ZM246,160a6.00029,6.00029,0,0,1-6,6H185.86987l-.02368.00195L185.81714,166H16a6,6,0,0,1,0-12H62.76367a66,66,0,1,1,130.47266,0H240A6.00029,6.00029,0,0,1,246,160ZM74.9314,154H181.0686a54,54,0,1,0-106.1372,0ZM208,194H48a6,6,0,0,0,0,12H208a6,6,0,0,0,0-12Z"/>
</svg>
