<svg id="Flat" xmlns="http://www.w3.org/2000/svg" viewBox="0 0 256 256">
  <path d="M222,47.99316v104a14.01572,14.01572,0,0,1-14,14H94.47852l13.76416,13.76465a5.99971,5.99971,0,1,1-8.48536,8.48438l-24-24c-.02026-.02027-.03344-.0448-.05322-.06531a6.02507,6.02507,0,0,1-.68457-.83765c-.03-.04455-.0542-.09118-.08276-.13647a5.98756,5.98756,0,0,1-.47681-.90589c-.01782-.043-.03076-.08666-.04761-.12988a5.94834,5.94834,0,0,1-.29541-.99658c-.00561-.02893-.00781-.05786-.01318-.08691a6.00075,6.00075,0,0,1-.10278-1.07325l-.00074-.01342L74,159.99316a6.02071,6.02071,0,0,1,.10742-1.11352c.0022-.01184.00293-.02368.00537-.03565a5.94028,5.94028,0,0,1,.3208-1.08264l.01-.02722a6.00292,6.00292,0,0,1,1.39161-2.0542l23.92211-23.92212a5.99971,5.99971,0,0,1,8.48536,8.48438l-13.75049,13.751H208a2.00229,2.00229,0,0,0,2-2v-104a2.00229,2.00229,0,0,0-2-2H96a2.00229,2.00229,0,0,0-2,2v8a6,6,0,0,1-12,0v-8a14.01573,14.01573,0,0,1,14-14H208A14.01573,14.01573,0,0,1,222,47.99316ZM168,194a6.00029,6.00029,0,0,0-6,6v8a2.00229,2.00229,0,0,1-2,2H48a2.00229,2.00229,0,0,1-2-2V104a2.00229,2.00229,0,0,1,2-2H161.50781l-13.75049,13.751a5.99971,5.99971,0,1,0,8.48536,8.48437l23.92211-23.92212a6.0043,6.0043,0,0,0,1.39161-2.054l.01025-.02808a5.94941,5.94941,0,0,0,.32056-1.082c.00244-.012.00317-.0238.00537-.03564A6.02082,6.02082,0,0,0,182,96l-.00024-.00366-.00074-.01343a6.00064,6.00064,0,0,0-.10278-1.07324c-.00537-.02905-.00757-.05811-.01318-.08692a5.93947,5.93947,0,0,0-.29517-.9956c-.01685-.0437-.03-.088-.0481-.13147a5.98293,5.98293,0,0,0-.47631-.90515c-.02881-.04529-.053-.092-.083-.1366a6.02624,6.02624,0,0,0-.68457-.83765c-.01978-.0205-.033-.045-.05322-.0653l-24-24a5.99971,5.99971,0,0,0-8.48536,8.48437L161.52148,90H48a14.01572,14.01572,0,0,0-14,14V208a14.01572,14.01572,0,0,0,14,14H160a14.01572,14.01572,0,0,0,14-14v-8A6.00029,6.00029,0,0,0,168,194Z"/>
</svg>
