<svg xmlns="http://www.w3.org/2000/svg" viewBox="0 0 256 256"><path d="M72,190a10,10,0,1,1,10-10A10,10,0,0,1,72,190Zm154-26.1V208a14,14,0,0,1-14,14H71.9a47.2,47.2,0,0,1-6.4-.5,41.3,41.3,0,0,1-27.3-17A43.3,43.3,0,0,1,30.8,172L54.9,34.8A14.1,14.1,0,0,1,71.2,23.5l55.1,9.7a14.2,14.2,0,0,1,9.1,5.8,14.1,14.1,0,0,1,2.3,10.4L126,115.7l63.2-23a13.9,13.9,0,0,1,17.9,8.3l19.2,52.6A14.6,14.6,0,0,1,226,163.9ZM123.6,129.3l-10.2,58a42.7,42.7,0,0,1-3.5,10.8l103.9-37.8a2,2,0,0,0,1.2-2.6l-19.1-52.6a2.1,2.1,0,0,0-2.6-1.2ZM67.4,209.6a30,30,0,0,0,34.1-24.4L125.9,47.3a2.1,2.1,0,0,0-.4-1.5,2.2,2.2,0,0,0-1.3-.8L69.1,35.3h-.4a1.8,1.8,0,0,0-1.9,1.6L42.6,174.1a31,31,0,0,0,5.3,23.4A29.2,29.2,0,0,0,67.4,209.6ZM214,208V173L112.4,210H212A2,2,0,0,0,214,208Z"/></svg>