<svg id="Flat" xmlns="http://www.w3.org/2000/svg" viewBox="0 0 256 256">
  <path d="M72,190a10,10,0,1,1,10-10A10.01146,10.01146,0,0,1,72,190Zm154-26.10742V208a14.01572,14.01572,0,0,1-14,14H72c-.01514,0-.02979-.0022-.04517-.0022l-.0144.00025a41.30784,41.30784,0,0,1-33.77734-17.51758,43.27888,43.27888,0,0,1-7.40137-32.47363L54.94873,34.834A14.0006,14.0006,0,0,1,71.168,23.47754l55.14844,9.72363A14.0006,14.0006,0,0,1,137.67236,49.4209L125.9939,115.65271l63.198-23.00232a14.01513,14.01513,0,0,1,17.94385,8.36719l19.15332,52.623A13.93237,13.93237,0,0,1,226,163.89258ZM123.58789,129.29773,113.36182,187.293a41.42533,41.42533,0,0,1-3.50733,10.855l103.96289-37.83936a2.00257,2.00257,0,0,0,1.19532-2.56347l-19.15332-52.624a2.00179,2.00179,0,0,0-2.56348-1.19433ZM67.36963,209.64062a30.14623,30.14623,0,0,0,34.1748-24.43164L125.855,47.33594a1.99885,1.99885,0,0,0-1.623-2.31641L69.0835,35.2959A1.99513,1.99513,0,0,0,66.76611,36.918L42.5791,174.09082a31.20846,31.20846,0,0,0,5.34717,23.41309A29.38891,29.38891,0,0,0,67.36963,209.64062ZM214,208V173.0116L112.37476,210H212A2.00229,2.00229,0,0,0,214,208Z"/>
</svg>
