<svg xmlns="http://www.w3.org/2000/svg" viewBox="0 0 256 256"><path d="M220.2,35.8A5.6,5.6,0,0,0,216,34h0l-63.8.2a5.8,5.8,0,0,0-4.6,2.2L75.8,123.3l-9.9-9.9a14.1,14.1,0,0,0-19.8,0L33.4,126.1a14,14,0,0,0,0,19.8l20.9,20.9a1.9,1.9,0,0,1,0,2.8l-29.9,30a13.9,13.9,0,0,0,0,19.8l12.2,12.2a13.8,13.8,0,0,0,9.9,4.1,13.5,13.5,0,0,0,9.9-4.1l30-29.9h0a1.9,1.9,0,0,1,2.8,0l20.9,20.9a14.1,14.1,0,0,0,19.8,0l12.7-12.7a14,14,0,0,0,0-19.8l-9.9-9.9,86.9-71.8a5.8,5.8,0,0,0,2.2-4.6L222,40A5.6,5.6,0,0,0,220.2,35.8ZM134.1,198.6a1.9,1.9,0,0,1,0,2.8l-12.7,12.7a1.9,1.9,0,0,1-2.8,0L97.7,193.2a14,14,0,0,0-19.8,0L48,223.2a2.1,2.1,0,0,1-1.5.5,1.8,1.8,0,0,1-1.4-.5L32.8,210.9a2.3,2.3,0,0,1,0-2.9l30-29.9a14.1,14.1,0,0,0,0-19.8L41.9,137.4a1.9,1.9,0,0,1,0-2.8l12.7-12.7a1.9,1.9,0,0,1,2.8,0l14.5,14.5h0ZM209.8,101l-85.6,70.7L108.5,156l55.7-55.8a5.9,5.9,0,0,0-8.4-8.4L100,147.5,84.3,131.8,155,46.2l55-.2Z"/></svg>