<svg xmlns="http://www.w3.org/2000/svg" viewBox="0 0 256 256"><path d="M236.2,67.8l-48-48a5.9,5.9,0,0,0-8.4,8.4L199.5,48,168,79.5,132.2,43.8a5.9,5.9,0,0,0-8.4,8.4l7.7,7.8L46.1,145.4a14.3,14.3,0,0,0-4.1,9.9v50.2L19.8,227.8a5.9,5.9,0,1,0,8.4,8.4L50.5,214h50.2a14.3,14.3,0,0,0,9.9-4.1L196,124.5l7.8,7.7a5.9,5.9,0,1,0,8.4-8.4L176.5,88,208,56.5l19.8,19.7a5.9,5.9,0,1,0,8.4-8.4ZM102.1,201.4a2,2,0,0,1-1.4.6H54V155.3a2,2,0,0,1,.6-1.4L74,134.5l21.8,21.7a5.9,5.9,0,0,0,8.4-8.4L82.5,126,102,106.5l21.8,21.7a5.9,5.9,0,1,0,8.4-8.4L110.5,98,140,68.5,187.5,116Z"/></svg>