<svg id="Flat" xmlns="http://www.w3.org/2000/svg" viewBox="0 0 256 256">
  <path d="M244.40625,63.03564l-49.4292-28.24511c-.01587-.009-.03247-.01563-.04834-.02442-.115-.06445-.23413-.12207-.35351-.179-.061-.0293-.12134-.06128-.18311-.08814-.1123-.04907-.22852-.09057-.34424-.13281-.073-.02637-.145-.0564-.21875-.07983-.096-.03076-.19507-.05445-.29321-.08033-.09595-.02563-.19141-.05371-.28809-.07421-.07666-.01612-.15551-.02637-.23315-.03955-.12085-.02076-.24121-.04224-.36231-.05542-.0664-.00708-.134-.009-.20092-.01392-.13257-.01-.26514-.019-.39771-.02026C192.03564,34.00244,192.01807,34,192,34H160a6.00029,6.00029,0,0,0-6,6,26,26,0,0,1-52,0,6.00029,6.00029,0,0,0-6-6H64c-.01807,0-.03564.00244-.05371.00269-.13208.001-.26416.01025-.39673.02-.06738.00512-.1355.00708-.20215.0144-.12012.01294-.2395.03418-.35937.05469-.07886.01342-.15869.02368-.23633.04-.09522.0205-.18945.04809-.28394.07324-.09961.02612-.20019.05029-.2976.08154-.07227.02319-.14331.05249-.21509.07861-.117.04248-.23389.08448-.34741.13379-.06128.02661-.1211.0586-.18189.08765-.11987.05713-.23926.11475-.35449.17944-.01587.00879-.03247.01538-.04834.02442L11.59375,63.03564A14.007,14.007,0,0,0,6.01758,81.45215l18.40478,36.80859A13.92313,13.92313,0,0,0,36.94434,126H58v82a14.01572,14.01572,0,0,0,14,14H184a14.01572,14.01572,0,0,0,14-14V126h21.05566a13.92313,13.92313,0,0,0,12.522-7.73926l18.40478-36.80908A14.0066,14.0066,0,0,0,244.40625,63.03564ZM36.94434,114a1.98834,1.98834,0,0,1-1.78858-1.10547L16.751,76.08643a2.0015,2.0015,0,0,1,.79687-2.63184L58,50.33911V114ZM186,208a2.002,2.002,0,0,1-2,2H72a2.002,2.002,0,0,1-2-2V46H90.47314a38.00414,38.00414,0,0,0,75.05372,0H186ZM239.249,76.08594l-18.40478,36.80859A1.98834,1.98834,0,0,1,219.05566,114H198V50.33911l40.45215,23.11548A2.00105,2.00105,0,0,1,239.249,76.08594Z"/>
</svg>
