<svg id="Flat" xmlns="http://www.w3.org/2000/svg" viewBox="0 0 256 256">
  <path d="M187.71875,205.99963H40a14.01572,14.01572,0,0,1-14-14v-128a14.01573,14.01573,0,0,1,14-14H187.71875A13.97033,13.97033,0,0,1,199.36719,56.234l45.625,68.4375a5.99918,5.99918,0,0,1,0,6.65625l-45.625,68.43847A13.96941,13.96941,0,0,1,187.71875,205.99963ZM40,61.99963a2.0026,2.0026,0,0,0-2,2v128a2.0026,2.0026,0,0,0,2,2H187.71875a1.99336,1.99336,0,0,0,1.66406-.88965h0l43.40625-65.11035L189.38281,62.89026a1.99685,1.99685,0,0,0-1.66406-.89063Z"/>
</svg>
