<svg id="Flat" xmlns="http://www.w3.org/2000/svg" viewBox="0 0 256 256">
  <path d="M238.585,128.27734,134.13281,23.8252a13.9756,13.9756,0,0,0-12.64453-3.83008L40.833,36.126a6.00244,6.00244,0,0,0-4.707,4.707L19.99512,121.48828a13.96962,13.96962,0,0,0,3.83008,12.64453L128.27637,238.585a13.99726,13.99726,0,0,0,19.79883,0L238.585,148.07617a13.99726,13.99726,0,0,0,0-19.79883Zm-8.48437,11.31348-90.51075,90.50977a1.99928,1.99928,0,0,1-2.82812,0L32.30957,125.64844a1.99737,1.99737,0,0,1-.54687-1.80664L47.1084,47.1084l76.7334-15.3457a1.986,1.986,0,0,1,1.80664.54687L230.10059,136.7627a1.99928,1.99928,0,0,1,0,2.82812ZM94,84A10,10,0,1,1,84,74,10.01177,10.01177,0,0,1,94,84Z"/>
</svg>
