<svg id="Flat" xmlns="http://www.w3.org/2000/svg" viewBox="0 0 256 256">
  <path d="M220.0625,84.02441a102.06969,102.06969,0,1,1-24.30859-32.26318l24.0039-24.00391a5.99971,5.99971,0,0,1,8.48438,8.48536L166.18457,98.30029l-.001.00147-.00146.001-33.93994,33.94a5.99971,5.99971,0,0,1-8.48438-8.48536L153.14844,94.3667a41.99393,41.99393,0,1,0,16.7832,31.2334,5.9999,5.9999,0,1,1,11.98047-.68067A54.00486,54.00486,0,1,1,161.7002,85.81494l25.5415-25.5415a89.86863,89.86863,0,1,0,21.99267,28.92285,5.99993,5.99993,0,0,1,10.82813-5.17188Z"/>
</svg>
