<svg xmlns="http://www.w3.org/2000/svg" viewBox="0 0 256 256"><path d="M240,114H227.5l-28-48.9A13.9,13.9,0,0,0,187.4,58H164.1L151.6,26.8a14.1,14.1,0,0,0-13-8.8H117.4a14.1,14.1,0,0,0-13,8.8L91.9,58H68.6a13.9,13.9,0,0,0-12.1,7.1L28.5,114H16a6,6,0,0,0,0,12H26v82a14,14,0,0,0,14,14H64a14,14,0,0,0,14-14V190H178v18a14,14,0,0,0,14,14h24a14,14,0,0,0,14-14V126h10a6,6,0,0,0,0-12ZM115.6,31.3a1.9,1.9,0,0,1,1.8-1.3h21.2a1.9,1.9,0,0,1,1.8,1.3L151.1,58H104.9ZM66.9,71a2.1,2.1,0,0,1,1.7-1H187.4a2.1,2.1,0,0,1,1.7,1l24.6,43H42.3ZM66,208a2,2,0,0,1-2,2H40a2,2,0,0,1-2-2V190H66Zm150,2H192a2,2,0,0,1-2-2V190h28v18A2,2,0,0,1,216,210Zm2-32H38V126H218ZM58,152a6,6,0,0,1,6-6H80a6,6,0,0,1,0,12H64A6,6,0,0,1,58,152Zm112,0a6,6,0,0,1,6-6h16a6,6,0,0,1,0,12H176A6,6,0,0,1,170,152Z"/></svg>