<svg xmlns="http://www.w3.org/2000/svg" viewBox="0 0 256 256"><path d="M230,33.3a14.1,14.1,0,0,0-14.3-2.5L31.1,103.3a14,14,0,0,0,2.4,26.8L82,139.8V200a14,14,0,0,0,8.6,12.9A14.9,14.9,0,0,0,96,214a13.8,13.8,0,0,0,9.9-4.1l27.3-27.3L174,218.5a13.7,13.7,0,0,0,9.2,3.5,12.9,12.9,0,0,0,4.3-.7,13.8,13.8,0,0,0,9.3-10.2L234.5,47A14,14,0,0,0,230,33.3ZM34.3,116.5a1.8,1.8,0,0,1,1.2-2L190,53.8,86.6,128.5,35.9,118.3A1.8,1.8,0,0,1,34.3,116.5Zm63.1,84.9a1.9,1.9,0,0,1-2.2.4A2,2,0,0,1,94,200V148.1l30.1,26.6Zm87.8,7a2,2,0,0,1-3.3,1.1L97.6,135.3l125-90.2Z"/></svg>