<svg id="Flat" xmlns="http://www.w3.org/2000/svg" viewBox="0 0 256 256">
  <path d="M216,66H142.48438l37.75781-37.75781a5.99936,5.99936,0,0,0-8.48438-8.48438L128,63.51465,84.24219,19.75781a5.99936,5.99936,0,0,0-8.48438,8.48438L113.51562,66H40A14.01572,14.01572,0,0,0,26,80V200a14.01572,14.01572,0,0,0,14,14H216a14.01572,14.01572,0,0,0,14-14V80A14.01572,14.01572,0,0,0,216,66ZM38,200V80a2.0026,2.0026,0,0,1,2-2H146V202H40A2.0026,2.0026,0,0,1,38,200Zm180,0a2.0026,2.0026,0,0,1-2,2H158V78h58a2.0026,2.0026,0,0,1,2,2Zm-20-84a10,10,0,1,1-10-10A10,10,0,0,1,198,116Zm0,48a10,10,0,1,1-10-10A10,10,0,0,1,198,164Z"/>
</svg>
