<svg id="Flat" xmlns="http://www.w3.org/2000/svg" viewBox="0 0 256 256">
  <path d="M229.94067,128.96533a5.41993,5.41993,0,0,0,.00415-1.57129A101.90764,101.90764,0,0,0,128,26c-.04346,0-.08691.00146-.13062.00146L127.84375,26h-.01025c-.01563,0-.03077.00244-.04663.00244A101.90061,101.90061,0,0,0,26.05933,127.042a5.99182,5.99182,0,0,0-.05835.80176,6.07008,6.07008,0,0,0,.054.75537A101.908,101.908,0,0,0,128,230c.04858,0,.09668-.00195.14526-.00195l.0105.001h.01074l.021-.00146A101.90065,101.90065,0,0,0,229.94067,128.96533ZM64.36035,64.36035a89.57949,89.57949,0,0,1,57.21973-26.06543,89.9134,89.9134,0,0,1-83.28491,83.28516A89.59225,89.59225,0,0,1,64.36035,64.36035ZM38.23877,133.62891A101.26459,101.26459,0,0,0,103.9585,103.9585a101.26485,101.26485,0,0,0,29.67065-65.72022,89.75167,89.75167,0,0,1,84.13208,84.13281,101.98646,101.98646,0,0,0-95.39014,95.39014,89.75066,89.75066,0,0,1-84.13232-84.13232Zm96.18115,84.07568a89.91347,89.91347,0,0,1,83.28491-83.28467,89.73088,89.73088,0,0,1-83.28491,83.28467Z"/>
</svg>
