<svg xmlns="http://www.w3.org/2000/svg" viewBox="0 0 256 256"><path d="M229.9,129a2.5,2.5,0,0,0,.1-.8,1.9,1.9,0,0,0-.1-.8A101.9,101.9,0,0,0,128,26h-.2A101.9,101.9,0,0,0,26.1,127a2.5,2.5,0,0,0-.1.8,1.9,1.9,0,0,0,.1.8A101.9,101.9,0,0,0,128,230h.2A101.9,101.9,0,0,0,229.9,129ZM64.4,64.4a89.1,89.1,0,0,1,57.2-26.1,89.9,89.9,0,0,1-83.3,83.3A89.1,89.1,0,0,1,64.4,64.4ZM38.2,133.6a101.7,101.7,0,0,0,95.4-95.4,90.1,90.1,0,0,1,84.2,84.2,101.7,101.7,0,0,0-95.4,95.4,90.1,90.1,0,0,1-84.2-84.2Zm96.2,84.1a89.9,89.9,0,0,1,83.3-83.3,89.9,89.9,0,0,1-83.3,83.3Z"/></svg>