<svg id="Flat" xmlns="http://www.w3.org/2000/svg" viewBox="0 0 256 256">
  <path d="M136.103,149.14844l-.00733-.01319-50.793-95.94287a6.00026,6.00026,0,0,0-10.60546,0l-50.793,95.94287-.00733.01319L2.69727,189.19238a6.00014,6.00014,0,0,0,10.60546,5.61524L32.78906,158h94.42188l19.48633,36.80762a6.00014,6.00014,0,0,0,10.60546-5.61524ZM39.14209,146,80,68.82324,120.85791,146ZM208,96.90039A40.20792,40.20792,0,0,0,179.76953,108.125a6.0001,6.0001,0,0,0,8.45117,8.51953A28.13137,28.13137,0,0,1,208,108.90039c14.33691,0,26,9.86914,26,22v11.23779a40.3481,40.3481,0,0,0-26-9.23779c-20.95312,0-38,15.252-38,34s17.04688,34,38,34a40.3481,40.3481,0,0,0,26-9.23779V192a6,6,0,0,0,12,0V130.90039C246,112.15234,228.95312,96.90039,208,96.90039Zm0,92c-14.33691,0-26-9.86914-26-22s11.66309-22,26-22,26,9.86914,26,22S222.33691,188.90039,208,188.90039Z"/>
</svg>
