<svg xmlns="http://www.w3.org/2000/svg" viewBox="0 0 256 256"><path d="M136.1,149.1h0L85.3,53.2a6,6,0,0,0-10.6,0L23.9,149.1h0L2.7,189.2a6,6,0,1,0,10.6,5.6L32.8,158h94.4l19.5,36.8A6.1,6.1,0,0,0,152,198a5.5,5.5,0,0,0,2.8-.7,6,6,0,0,0,2.5-8.1Zm-97-3.1L80,68.8,120.9,146ZM208,96.9a40.2,40.2,0,0,0-28.2,11.2,6,6,0,0,0-.1,8.5,5.9,5.9,0,0,0,8.5,0,28.3,28.3,0,0,1,19.8-7.7c14.3,0,26,9.9,26,22v11.2a40.3,40.3,0,0,0-26-9.2c-21,0-38,15.3-38,34s17,34,38,34a40.3,40.3,0,0,0,26-9.2v.3a6,6,0,0,0,12,0V130.9C246,112.2,229,96.9,208,96.9Zm0,92c-14.3,0-26-9.9-26-22s11.7-22,26-22,26,9.9,26,22S222.3,188.9,208,188.9Z"/></svg>