<svg xmlns="http://www.w3.org/2000/svg" viewBox="0 0 256 256"><path d="M150,56V176a6,6,0,0,1-12,0V122H46v54a6,6,0,0,1-12,0V56a6,6,0,0,1,12,0v54h92V56a6,6,0,0,1,12,0Zm61.9,86a34.3,34.3,0,0,0-11.9,2.1l4.9-30.1H240a6,6,0,0,0,0-12H199.8a6,6,0,0,0-5.9,5l-7.8,48.2a5.8,5.8,0,0,0,3.2,6.3,5.9,5.9,0,0,0,6.9-1,22.1,22.1,0,0,1,15.7-6.5,21.7,21.7,0,0,1,15.6,6.5,21.7,21.7,0,0,1,0,31,21.7,21.7,0,0,1-15.6,6.5,22.1,22.1,0,0,1-15.7-6.5,6,6,0,0,0-8.5.1,5.9,5.9,0,0,0,.1,8.4,34.2,34.2,0,0,0,48.2.1A34.1,34.1,0,0,0,246,176a34.1,34.1,0,0,0-34.1-34Z"/></svg>