<svg id="Flat" xmlns="http://www.w3.org/2000/svg" viewBox="0 0 256 256">
  <path d="M150,56V176a6,6,0,0,1-12,0V122H46v54a6,6,0,0,1-12,0V56a6,6,0,0,1,12,0v54h92V56a6,6,0,0,1,12,0ZM211.88184,142.002a34.22827,34.22827,0,0,0-11.835,2.0918L204.93848,114H240a6,6,0,0,0,0-12H199.835a5.99955,5.99955,0,0,0-5.92187,5.03711l-7.835,48.20215a5.99972,5.99972,0,0,0,10.15528,5.21484,22.20339,22.20339,0,0,1,31.29687-.001,21.91575,21.91575,0,0,1,.001,31.09376,22.201,22.201,0,0,1-31.29687.001,6.00006,6.00006,0,1,0-8.46876,8.50195A34.05866,34.05866,0,1,0,211.88184,142.002Z"/>
</svg>
