<svg id="Flat" xmlns="http://www.w3.org/2000/svg" viewBox="0 0 256 256">
  <path d="M222,128a6.00029,6.00029,0,0,1-6,6H175.28247C185.15283,142.17188,190,152.09912,190,164a44.84742,44.84742,0,0,1-18.833,37.32275C160.12109,209.49805,144.79053,214,128,214c-27.43164,0-51.91455-14.79053-59.5376-35.96777a6.00015,6.00015,0,0,1,11.291-4.06446C85.69434,190.47266,105.53418,202,128,202c24.8877,0,50-11.75,50-38,0-12.74707-8.33423-22.29932-26.1897-30H40a6,6,0,0,1,0-12H152.97119c.0332-.00049.06641,0,.09985,0H216A6.00029,6.00029,0,0,1,222,128ZM86.00684,102.00391a6.00327,6.00327,0,0,0,5.58007-8.20313A26.522,26.522,0,0,1,90,84c0-16.542,17.04688-30,38-30,19.47656,0,35.7207,11.52295,37.78564,26.80322a5.99981,5.99981,0,0,0,11.89161-1.60644C174.812,57.99121,153.45557,42,128,42c-27.57031,0-50,18.84131-50,42a38.18028,38.18028,0,0,0,2.42383,14.2041A6.00228,6.00228,0,0,0,86.00684,102.00391Z"/>
</svg>
