<svg xmlns="http://www.w3.org/2000/svg" viewBox="0 0 256 256"><path d="M222,128a6,6,0,0,1-6,6H169.4c11.3,6.9,20.6,17.4,20.6,34,0,25.4-27.8,46-62,46s-62-20.6-62-46a6,6,0,0,1,12,0c0,18.7,22.4,34,50,34s50-15.3,50-34-15.5-26.6-40.5-34H40a6,6,0,0,1,0-12H216A6,6,0,0,1,222,128ZM76.3,102a5.8,5.8,0,0,0,1.9-.3A5.9,5.9,0,0,0,82,94.1a19.5,19.5,0,0,1-.9-6.1c0-19.4,20.2-34,46.9-34,20.3,0,37.6,8.7,44.1,22.1a6.1,6.1,0,0,0,8.1,2.8,6,6,0,0,0,2.7-8C174.2,53.1,153.2,42,128,42,94.4,42,69.1,61.8,69.1,88a32.1,32.1,0,0,0,1.5,9.9A6.1,6.1,0,0,0,76.3,102Z"/></svg>