<svg id="Flat" xmlns="http://www.w3.org/2000/svg" viewBox="0 0 256 256">
  <path d="M222,128a6.00029,6.00029,0,0,1-6,6H169.44653C180.73535,140.91821,190,151.376,190,168c0,25.36426-27.813,46-62,46s-62-20.63574-62-46a6,6,0,0,1,12,0c0,18.74756,22.42969,34,50,34s50-15.25244,50-34c0-18.23364-15.46387-26.58643-40.468-34H40a6,6,0,0,1,0-12h98.27539c.02734-.00049.05469.00024.08228,0H216A6.00029,6.00029,0,0,1,222,128ZM76.333,102.00439a6.00368,6.00368,0,0,0,5.70215-7.87207A19.64555,19.64555,0,0,1,81.11133,88c0-19.3833,20.15771-34,46.88867-34,20.25928,0,37.5835,8.69336,44.13428,22.147a6.00015,6.00015,0,1,0,10.78906-5.2539C174.24512,53.07129,153.19971,42,128,42,94.42773,42,69.11133,61.77588,69.11133,88a31.62122,31.62122,0,0,0,1.52148,9.87354A6.003,6.003,0,0,0,76.333,102.00439Z"/>
</svg>
