<svg xmlns="http://www.w3.org/2000/svg" viewBox="0 0 256 256"><path d="M126,162.7V48a6,6,0,0,0-12,0V162.7a26,26,0,1,0,12,0ZM120,202a14,14,0,1,1,14-14A14,14,0,0,1,120,202ZM179.5,84.2a5.8,5.8,0,0,1,0-8.4,25.8,25.8,0,0,1,36.7,0,14.1,14.1,0,0,0,19.8,0,5.9,5.9,0,0,1,8.5,0,5.8,5.8,0,0,1,0,8.4,26,26,0,0,1-36.7,0,14.1,14.1,0,0,0-19.8,0A5.9,5.9,0,0,1,179.5,84.2Zm65,31.6a5.8,5.8,0,0,1,0,8.4,26,26,0,0,1-36.7,0,14.1,14.1,0,0,0-19.8,0,5.9,5.9,0,0,1-8.5,0,5.8,5.8,0,0,1,0-8.4,25.8,25.8,0,0,1,36.7,0,14.1,14.1,0,0,0,19.8,0A5.9,5.9,0,0,1,244.5,115.8ZM158,144.2V48a38,38,0,0,0-76,0v96.2a58,58,0,1,0,76,0ZM120,234a46,46,0,0,1-28.6-82,6.1,6.1,0,0,0,2.6-5V48a26,26,0,0,1,52,0v99a6.1,6.1,0,0,0,2.5,4.9A46,46,0,0,1,120,234Z"/></svg>