<svg id="Flat" xmlns="http://www.w3.org/2000/svg" viewBox="0 0 256 256">
  <path d="M212,54a26,26,0,1,0,26,26A26.02916,26.02916,0,0,0,212,54Zm0,40a14,14,0,1,1,14-14A14.01572,14.01572,0,0,1,212,94Zm-54,50.17871V48a38,38,0,0,0-76,0v96.17871a58,58,0,1,0,76,0ZM120,234a46.002,46.002,0,0,1-28.60254-82.0293A5.99892,5.99892,0,0,0,94,147.02539V48a26,26,0,0,1,52,0v99.02539a5.9921,5.9921,0,0,0,2.53271,4.89063A46.00158,46.00158,0,0,1,120,234Zm6-71.29346V88a6,6,0,0,0-12,0v74.70654a26,26,0,1,0,12,0ZM120,202a14,14,0,1,1,14-14A14.01572,14.01572,0,0,1,120,202Z"/>
</svg>
