<svg id="Flat" xmlns="http://www.w3.org/2000/svg" viewBox="0 0 256 256">
  <path d="M126,162.70654V120a6,6,0,0,0-12,0v42.70654a26,26,0,1,0,12,0ZM120,202a14,14,0,1,1,14-14A14.01572,14.01572,0,0,1,120,202ZM244.2876,75.81738,221.70776,83.1543l13.95533,19.208a5.99972,5.99972,0,1,1-9.708,7.05274L212,90.20752,198.04492,109.415a5.99972,5.99972,0,1,1-9.708-7.05274l13.95533-19.208L179.7124,75.81738a5.9997,5.9997,0,1,1,3.708-11.41211L206,71.74219V48a6,6,0,0,1,12,0V71.74219l22.57959-7.33692a5.9997,5.9997,0,1,1,3.708,11.41211ZM158,144.17871V48a38,38,0,0,0-76,0v96.17871a58,58,0,1,0,76,0ZM120,234a46.002,46.002,0,0,1-28.60254-82.0293A5.99892,5.99892,0,0,0,94,147.02539V48a26,26,0,0,1,52,0v99.02539a5.9921,5.9921,0,0,0,2.53271,4.89063A46.00158,46.00158,0,0,1,120,234Z"/>
</svg>
