<svg id="Flat" xmlns="http://www.w3.org/2000/svg" viewBox="0 0 256 256">
  <path d="M126,162.70654V48a6,6,0,0,0-12,0V162.70654a26,26,0,1,0,12,0ZM120,202a14,14,0,1,1,14-14A14.01572,14.01572,0,0,1,120,202ZM179.47314,84.24219a5.99871,5.99871,0,0,1,0-8.48438,26.02712,26.02712,0,0,1,36.76954,0,14.01851,14.01851,0,0,0,19.79882,0,5.99971,5.99971,0,0,1,8.48536,8.48438,26.02832,26.02832,0,0,1-36.76954,0,14.01851,14.01851,0,0,0-19.79882,0A5.999,5.999,0,0,1,179.47314,84.24219Zm65.05372,31.51562a5.99871,5.99871,0,0,1,0,8.48438,26.02832,26.02832,0,0,1-36.76954,0,14.01851,14.01851,0,0,0-19.79882,0,5.99971,5.99971,0,0,1-8.48536-8.48438,26.02712,26.02712,0,0,1,36.76954,0,14.01851,14.01851,0,0,0,19.79882,0A5.999,5.999,0,0,1,244.52686,115.75781ZM158,144.17871V48a38,38,0,0,0-76,0v96.17871a58,58,0,1,0,76,0ZM120,234a46.002,46.002,0,0,1-28.60254-82.0293A5.99892,5.99892,0,0,0,94,147.02539V48a26,26,0,0,1,52,0v99.02539a5.9921,5.9921,0,0,0,2.53271,4.89063A46.00158,46.00158,0,0,1,120,234Z"/>
</svg>
