<svg xmlns="http://www.w3.org/2000/svg" viewBox="0 0 256 256"><path d="M126,162.7V120a6,6,0,0,0-12,0v42.7a26,26,0,1,0,12,0ZM120,202a14,14,0,1,1,14-14A14,14,0,0,1,120,202ZM244.3,75.8l-22.6,7.4,14,19.2a5.9,5.9,0,0,1-1.4,8.3,5.7,5.7,0,0,1-3.5,1.2,5.9,5.9,0,0,1-4.8-2.5L212,90.2l-14,19.2a5.9,5.9,0,0,1-4.8,2.5,5.7,5.7,0,0,1-3.5-1.2,5.9,5.9,0,0,1-1.4-8.3l14-19.2-22.6-7.4a6,6,0,0,1,3.7-11.4L206,71.7V48a6,6,0,0,1,12,0V71.7l22.6-7.3a6,6,0,0,1,3.7,11.4ZM158,144.2V48a38,38,0,0,0-76,0v96.2a58,58,0,1,0,76,0ZM120,234a46,46,0,0,1-28.6-82,6.1,6.1,0,0,0,2.6-5V48a26,26,0,0,1,52,0v99a6.1,6.1,0,0,0,2.5,4.9A46,46,0,0,1,120,234Z"/></svg>