<svg id="Flat" xmlns="http://www.w3.org/2000/svg" viewBox="0 0 256 256">
  <path d="M235.7002,157.27148l-12-96.00048A22.03565,22.03565,0,0,0,201.86914,42H31.99414a14.01572,14.01572,0,0,0-14,14v88a14.01572,14.01572,0,0,0,14,14h44.292l38.3418,76.68359A5.99942,5.99942,0,0,0,119.99414,238a38.04323,38.04323,0,0,0,38-38V182h55.875a22.0011,22.0011,0,0,0,21.83106-24.72852ZM73.99414,146h-42a2.0026,2.0026,0,0,1-2-2V56a2.0026,2.0026,0,0,1,2-2h42Zm147.37207,20.61816A9.87419,9.87419,0,0,1,213.86914,170h-61.875a6.00029,6.00029,0,0,0-6,6v24a26.04049,26.04049,0,0,1-22.415,25.75391L85.99414,150.584V54h115.875a10.01507,10.01507,0,0,1,9.92285,8.75977l12,95.99951A9.87269,9.87269,0,0,1,221.36621,166.61816Z"/>
</svg>
