<svg xmlns="http://www.w3.org/2000/svg" viewBox="0 0 256 256"><path d="M226.8,102.5A14,14,0,0,0,238,88.8V64a14,14,0,0,0-14-14H32A14,14,0,0,0,18,64V88.8a14,14,0,0,0,11.2,13.7,26,26,0,0,1,0,51A14,14,0,0,0,18,167.2V192a14,14,0,0,0,14,14H224a14,14,0,0,0,14-14V167.2a14,14,0,0,0-11.2-13.7,26,26,0,0,1,0-51ZM30,192V167.2a2,2,0,0,1,1.6-2,38,38,0,0,0,0-74.4,2,2,0,0,1-1.6-2V64a2,2,0,0,1,2-2H90V194H32A2,2,0,0,1,30,192Zm194.4-26.8a2,2,0,0,1,1.6,2V192a2,2,0,0,1-2,2H102V62H224a2,2,0,0,1,2,2V88.8a2,2,0,0,1-1.6,2,38,38,0,0,0,0,74.4Z"/></svg>