<svg id="Flat" xmlns="http://www.w3.org/2000/svg" viewBox="0 0 256 256">
  <path d="M226.794,102.52A14.034,14.034,0,0,0,238,88.80957V64a14.01572,14.01572,0,0,0-14-14H32A14.01572,14.01572,0,0,0,18,64V88.80957A14.034,14.034,0,0,0,29.20605,102.52a26.008,26.008,0,0,1,0,50.96A14.034,14.034,0,0,0,18,167.19043V192a14.01572,14.01572,0,0,0,14,14H224a14.01572,14.01572,0,0,0,14-14V167.19043A14.034,14.034,0,0,0,226.794,153.48a26.008,26.008,0,0,1,0-50.96ZM30,192V167.19043a1.99574,1.99574,0,0,1,1.59277-1.9502,38.008,38.008,0,0,0,0-74.48046A1.99574,1.99574,0,0,1,30,88.80957V64a2.0026,2.0026,0,0,1,2-2H90V194H32A2.0026,2.0026,0,0,1,30,192Zm194.40723-26.75977A1.99574,1.99574,0,0,1,226,167.19043V192a2.0026,2.0026,0,0,1-2,2H102V62H224a2.0026,2.0026,0,0,1,2,2V88.80957a1.99574,1.99574,0,0,1-1.59277,1.9502,38.008,38.008,0,0,0,0,74.48046Z"/>
</svg>
