<svg id="Flat" xmlns="http://www.w3.org/2000/svg" viewBox="0 0 256 256">
  <path d="M224,78a50.05635,50.05635,0,0,1-50-50,6.00029,6.00029,0,0,0-6-6H128a6.00029,6.00029,0,0,0-6,6V156a22,22,0,1,1-31.42578-19.88574,5.9991,5.9991,0,0,0,3.42529-5.41943L94,89.05569a5.99985,5.99985,0,0,0-7.05176-5.90723A74.00531,74.00531,0,1,0,174,156l-.00049-39.06933A101.29073,101.29073,0,0,0,224,130a6.00029,6.00029,0,0,0,6-6V84A6.00029,6.00029,0,0,0,224,78Zm-6,39.8042a89.23149,89.23149,0,0,1-46.49658-16.69189,5.99991,5.99991,0,0,0-9.50391,4.8706L162,156A62,62,0,1,1,82,96.645l-.00049,30.50928A34.00057,34.00057,0,1,0,134,156V34h28.28809A62.11275,62.11275,0,0,0,218,89.71194Z"/>
</svg>
