<svg xmlns="http://www.w3.org/2000/svg" viewBox="0 0 256 256"><path d="M74,120a10,10,0,1,1-10-10A10,10,0,0,1,74,120Zm164,0v88a14,14,0,0,1-14,14H112a14,14,0,0,1-14-14V178.5c-8.4,17-20.4,27.5-34,27.5-25.8,0-46-37.8-46-86S38.2,34,64,34H192C217.8,34,238,71.8,238,120ZM98,120c0-44.3-17.6-74-34-74S30,75.7,30,120s17.6,74,34,74S98,164.3,98,120Zm128,88V126H208a6,6,0,0,1,0-12h17.9c-1.5-40.9-18.2-68-33.9-68H87.8c12.5,13.9,21,38.7,22.1,68H128a6,6,0,0,1,0,12H110v82a2,2,0,0,0,2,2H224A2,2,0,0,0,226,208Zm-50-94H160a6,6,0,0,0,0,12h16a6,6,0,0,0,0-12Z"/></svg>