<svg xmlns="http://www.w3.org/2000/svg" viewBox="0 0 256 256"><path d="M118,64a6,6,0,0,1-6,6H96a6,6,0,0,1,0-12h16A6,6,0,0,1,118,64Zm51,132.6,3.6,25.4a14.2,14.2,0,0,1-3.2,11.2,14.4,14.4,0,0,1-10.6,4.8H97.2a14.4,14.4,0,0,1-10.6-4.8A14.2,14.2,0,0,1,83.4,222L87,196.6A94.3,94.3,0,0,1,34,112a6,6,0,0,1,6-6H58V40A14,14,0,0,1,72,26H184a14,14,0,0,1,14,14v66h18a6,6,0,0,1,6,6A94.3,94.3,0,0,1,169,196.6ZM70,106H186V40a2,2,0,0,0-2-2H72a2,2,0,0,0-2,2Zm87.5,95.2a93.1,93.1,0,0,1-59,0l-3.3,22.5a2,2,0,0,0,.5,1.6,1.8,1.8,0,0,0,1.5.7h61.6a1.8,1.8,0,0,0,1.5-.7,2,2,0,0,0,.5-1.6ZM209.8,118H46.2a82,82,0,0,0,163.6,0Z"/></svg>