<svg id="Flat" xmlns="http://www.w3.org/2000/svg" viewBox="0 0 256 256">
  <path d="M74,120a10,10,0,1,1-10-10A9.99987,9.99987,0,0,1,74,120Zm164,0v88a14.01572,14.01572,0,0,1-14,14H112a14.01572,14.01572,0,0,1-14-14V178.479C89.64941,195.48511,77.604,206,64,206c-25.79443,0-46-37.77588-46-86,0-48.22437,20.20557-86,46-86H192C217.79443,34,238,71.77563,238,120ZM98,120c0-44.26489-17.58008-74-34-74S30,75.73511,30,120c0,44.26514,17.58008,74,34,74S98,164.26514,98,120Zm128,88V126H208a6,6,0,0,1,0-12h17.87817C224.374,73.0752,207.665,46,192,46H87.761c12.56787,13.91748,21.08862,38.739,22.1206,68H128a6,6,0,0,1,0,12H110v82a2.002,2.002,0,0,0,2,2H224A2.002,2.002,0,0,0,226,208Zm-50-94H160a6,6,0,0,0,0,12h16a6,6,0,0,0,0-12Z"/>
</svg>
