<svg id="Flat" xmlns="http://www.w3.org/2000/svg" viewBox="0 0 256 256">
  <path d="M233.49316,70.66309A14.01373,14.01373,0,0,0,223.06152,66H173.5957a45.9871,45.9871,0,0,0-91.1914,0H32.93848A13.99974,13.99974,0,0,0,19.02441,81.5459l14.22168,128.001A13.98492,13.98492,0,0,0,47.16016,222H208.83984a13.985,13.985,0,0,0,13.91407-12.4541l14.22168-128A14.0142,14.0142,0,0,0,233.49316,70.66309ZM128,38a34.04791,34.04791,0,0,1,33.459,28H94.541A34.04791,34.04791,0,0,1,128,38Zm82.82812,170.2207A1.99869,1.99869,0,0,1,208.83984,210H47.16016a1.99864,1.99864,0,0,1-1.98828-1.77832l-14.22168-128A2.00074,2.00074,0,0,1,32.93848,78H82v26a6,6,0,0,0,12,0V78h68v26a6,6,0,0,0,12,0V78h49.06152a2.00074,2.00074,0,0,1,1.98828,2.22168Z"/>
</svg>
