<svg id="Flat" xmlns="http://www.w3.org/2000/svg" viewBox="0 0 256 256">
  <path d="M233.49316,70.6626A14.01679,14.01679,0,0,0,223.06152,66H173.5957a45.9871,45.9871,0,0,0-91.1914,0H32.93848A13.99909,13.99909,0,0,0,19.02441,81.5459l14.22168,128A13.98466,13.98466,0,0,0,47.16016,222H208.83984a13.98466,13.98466,0,0,0,13.91407-12.4541l14.22168-128A14.01588,14.01588,0,0,0,233.49316,70.6626ZM128,38a34.04791,34.04791,0,0,1,33.459,28H94.541A34.04791,34.04791,0,0,1,128,38Zm82.82812,170.2207A1.99869,1.99869,0,0,1,208.83984,210H47.16016a1.99869,1.99869,0,0,1-1.98828-1.7793L30.9502,80.22119A2.00066,2.00066,0,0,1,32.93848,78h190.123a2.00058,2.00058,0,0,1,1.98828,2.2207Z"/>
</svg>
