<svg id="Flat" xmlns="http://www.w3.org/2000/svg" viewBox="0 0 256 256">
  <path d="M242.58594,118.10059,137.90039,13.415a13.99843,13.99843,0,0,0-19.7998,0L13.41357,118.10059a14.01806,14.01806,0,0,0,.00049,19.79882L118.10059,242.585a13.99725,13.99725,0,0,0,19.79882,0l104.687-104.68555A14.019,14.019,0,0,0,242.58594,118.10059ZM234.10059,129.415l-104.687,104.68555a1.9981,1.9981,0,0,1-2.82714,0h-.00049L21.90039,129.415a2.0043,2.0043,0,0,1-.001-2.83008l104.687-104.68555a1.99869,1.99869,0,0,1,2.82763,0L234.09961,126.585A2.0043,2.0043,0,0,1,234.10059,129.415Zm-61.065-6.15967c-.01367.021-.0249.04248-.03857.06348a6.0209,6.0209,0,0,1-.7583.92724l-23.99609,23.9961a5.99971,5.99971,0,0,1-8.48536-8.48438L153.51465,126H112a18.02063,18.02063,0,0,0-18,18v8a6,6,0,0,1-12,0v-8a30.03406,30.03406,0,0,1,30-30h41.51465l-13.75733-13.75781a5.99971,5.99971,0,0,1,8.48536-8.48438l23.99609,23.9961a6.0209,6.0209,0,0,1,.7583.92724c.01367.021.0249.04248.03857.06348a6.00035,6.00035,0,0,1,.51319.9751c.01025.0249.01758.05029.02734.07519a5.9449,5.9449,0,0,1,.30908,1.043c.00391.019.00537.03857.00879.05811a5.80428,5.80428,0,0,1,0,2.208c-.00342.01954-.00488.03907-.00879.05811a5.938,5.938,0,0,1-.30908,1.04346c-.00976.0249-.01758.0498-.02734.0747A6.00035,6.00035,0,0,1,173.03564,123.25537Z"/>
</svg>
