<svg id="Flat" xmlns="http://www.w3.org/2000/svg" viewBox="0 0 256 256">
  <path d="M221.94727,120.78693a5.93431,5.93431,0,0,0,.04968-.745c.00036-.04883-.0033-.09729-.00415-.14612q-.00531-.28674-.03845-.57641c-.00806-.07166-.017-.14276-.02784-.21411-.009-.05964-.01233-.11884-.02319-.17853-.02478-.136-.0603-.267-.09375-.39911-.00891-.03516-.012-.07123-.02148-.10626l-.02466-.0907-.001-.00311-22.366-82.01117A14.03139,14.03139,0,0,0,185.88965,26H70.11035A14.03139,14.03139,0,0,0,56.60352,36.31641L34.23767,118.327l-.00134.00488-.02442.08948c-.00952.03473-.01245.07043-.02124.10528-.03357.13233-.06909.2638-.094.40009-.01086.05969-.01416.11889-.02319.17853-.01087.07135-.01978.14245-.02784.21411q-.03332.28995-.03845.57641c-.00085.04883-.00451.09729-.00415.14612a5.93431,5.93431,0,0,0,.04968.745l.00586.03473a5.9659,5.9659,0,0,0,.13892.68585c.0061.0235.00806.04767.0144.0711l22.39161,82.105A14.03139,14.03139,0,0,0,70.11035,214H84.00049L67.2002,236.40039a5.99961,5.99961,0,1,0,9.5996,7.19922L98.99951,214h58.001l22.19971,29.59961a5.99961,5.99961,0,1,0,9.5996-7.19922L171.99951,214h13.89014a14.03139,14.03139,0,0,0,13.50683-10.31641l22.39161-82.105c.00634-.02343.0083-.0476.0144-.0711a5.9659,5.9659,0,0,0,.13892-.68585ZM68.18164,39.47363A2.00309,2.00309,0,0,1,70.11035,38h115.7793a2.00512,2.00512,0,0,1,1.92969,1.47363L208.49048,115.267,128,129.90186,47.50964,115.267Zm-.001,161.05176L48.29321,127.60632,122,141.00757V202H70.11035A2.00543,2.00543,0,0,1,68.18066,200.52539Zm119.6377,0A2.00341,2.00341,0,0,1,185.88965,202H134V141.00757l73.70667-13.40125ZM90,88a6.00029,6.00029,0,0,1,6-6h64a6,6,0,0,1,0,12H96A6.00029,6.00029,0,0,1,90,88Z"/>
</svg>
