<svg xmlns="http://www.w3.org/2000/svg" viewBox="0 0 256 256"><path d="M188,26H68A30.1,30.1,0,0,0,38,56V184a30.1,30.1,0,0,0,30,30H84L67.2,236.4a6,6,0,1,0,9.6,7.2L99,214h58l22.2,29.6a6,6,0,0,0,9.6-7.2L172,214h16a30.1,30.1,0,0,0,30-30V56A30.1,30.1,0,0,0,188,26ZM50,122V78h72v44Zm84-44h72v44H134ZM68,38H188a18.1,18.1,0,0,1,18,18V66H50V56A18.1,18.1,0,0,1,68,38ZM188,202H68a18.1,18.1,0,0,1-18-18V134H206v50A18.1,18.1,0,0,1,188,202ZM94,172a10,10,0,1,1-10-10A10,10,0,0,1,94,172Zm88,0a10,10,0,1,1-10-10A10,10,0,0,1,182,172Z"/></svg>