<svg xmlns="http://www.w3.org/2000/svg" viewBox="0 0 256 256"><path d="M221.9,120.8a2.2,2.2,0,0,0,.1-.8h0v-.6c-.1-.1-.1-.1-.1-.2v-.2c0-.1-.1-.2-.1-.4h0l-22.4-82A14,14,0,0,0,185.9,26H70.1A14,14,0,0,0,56.6,36.3l-22.4,82h0c0,.2-.1.3-.1.4v.2c0,.1,0,.1-.1.2v.6h0a2.2,2.2,0,0,0,.1.8h0a1.5,1.5,0,0,0,.1.7h0l22.4,82.1A14,14,0,0,0,70.1,214H84L67.2,236.4a6,6,0,1,0,9.6,7.2L99,214h58l22.2,29.6a6,6,0,0,0,9.6-7.2L172,214h13.9a14,14,0,0,0,13.5-10.3l22.4-82.1h0a1.5,1.5,0,0,0,.1-.7ZM68.2,39.5A1.9,1.9,0,0,1,70.1,38H185.9a1.9,1.9,0,0,1,1.9,1.5l20.7,75.8L128,129.9,47.5,115.3Zm0,161L48.3,127.6,122,141v61H70.1A1.9,1.9,0,0,1,68.2,200.5Zm119.6,0a1.9,1.9,0,0,1-1.9,1.5H134V141l73.7-13.4ZM90,88a6,6,0,0,1,6-6h64a6,6,0,0,1,0,12H96A6,6,0,0,1,90,88Z"/></svg>