<svg id="Flat" xmlns="http://www.w3.org/2000/svg" viewBox="0 0 256 256">
  <path d="M188,26H68A30.03406,30.03406,0,0,0,38,56V184a30.03406,30.03406,0,0,0,30,30H84.00049L67.2002,236.40039a5.99961,5.99961,0,1,0,9.5996,7.19922L98.99951,214h58.001l22.19971,29.59961a5.99961,5.99961,0,1,0,9.5996-7.19922L171.99951,214H188a30.03406,30.03406,0,0,0,30-30V56A30.03406,30.03406,0,0,0,188,26ZM68,38H188a18.02094,18.02094,0,0,1,18,18v66H50V56A18.02094,18.02094,0,0,1,68,38ZM188,202H68a18.02094,18.02094,0,0,1-18-18V134H206v50A18.02094,18.02094,0,0,1,188,202ZM94,172a10,10,0,1,1-10-10A10.01177,10.01177,0,0,1,94,172Zm88,0a10,10,0,1,1-10-10A10.01177,10.01177,0,0,1,182,172Z"/>
</svg>
