<svg id="Flat" xmlns="http://www.w3.org/2000/svg" viewBox="0 0 256 256">
  <path d="M237.355,213.31641l-56-112a6.00047,6.00047,0,0,0-10.7334,0l-22.28735,44.5747A90.04314,90.04314,0,0,1,96.978,127.1709,101.67176,101.67176,0,0,0,125.80713,62h26.18115a6,6,0,0,0,0-12h-58V32a6,6,0,0,0-12,0V50h-58a6,6,0,0,0,0,12h89.79517a89.72725,89.72725,0,0,1-25.79932,57.21436A89.63846,89.63846,0,0,1,67.11328,85.999a6.00008,6.00008,0,0,0-11.3125,4.00391,101.595,101.595,0,0,0,23.19067,37.18164A89.5437,89.5437,0,0,1,23.98828,146a6,6,0,0,0,0,12,101.51054,101.51054,0,0,0,64.00879-22.64771,102.112,102.112,0,0,0,54.52808,22.157l-27.90357,55.80713a6.00026,6.00026,0,0,0,10.7334,5.36718L139.69678,190h72.583l14.34179,28.68359a6.00026,6.00026,0,0,0,10.7334-5.36718ZM145.69653,178l30.29175-60.584L206.28,178Z"/>
</svg>
