<svg id="Flat" xmlns="http://www.w3.org/2000/svg" viewBox="0 0 256 256">
  <path d="M215.99609,50H174V40a22.02489,22.02489,0,0,0-22-22H104A22.02489,22.02489,0,0,0,82,40V50H39.99609a6,6,0,0,0,0,12h10V208a14.01573,14.01573,0,0,0,14,14h128a14.01572,14.01572,0,0,0,14-14V62h10a6,6,0,0,0,0-12ZM94,40a10.01114,10.01114,0,0,1,10-10h48a10.01114,10.01114,0,0,1,10,10V50H94Zm99.99609,168a2.00229,2.00229,0,0,1-2,2h-128a2.00229,2.00229,0,0,1-2-2V62h132ZM110,104v64a6,6,0,0,1-12,0V104a6,6,0,0,1,12,0Zm48,0v64a6,6,0,0,1-12,0V104a6,6,0,0,1,12,0Z"/>
</svg>
