<svg xmlns="http://www.w3.org/2000/svg" viewBox="0 0 256 256"><path d="M208,34H48A14,14,0,0,0,34,48V159.9h0V208a14,14,0,0,0,14,14H208a14,14,0,0,0,14-14V48A14,14,0,0,0,208,34ZM48,46H208a2,2,0,0,1,2,2V154H179.3a14.3,14.3,0,0,0-9.9,4.1l-19.3,19.3a2,2,0,0,1-1.4.6H107.3a2,2,0,0,1-1.4-.6L86.6,158.1a14.3,14.3,0,0,0-9.9-4.1H46V48A2,2,0,0,1,48,46ZM208,210H48a2,2,0,0,1-2-2V166H76.7a2,2,0,0,1,1.4.6l19.3,19.3a14.3,14.3,0,0,0,9.9,4.1h41.4a14.3,14.3,0,0,0,9.9-4.1l19.3-19.3a2,2,0,0,1,1.4-.6H210v42A2,2,0,0,1,208,210Z"/></svg>