<svg id="Flat" xmlns="http://www.w3.org/2000/svg" viewBox="0 0 256 256">
  <path d="M208,34H48A14.01572,14.01572,0,0,0,34,48V159.88428c-.001.03857-.00586.07666-.00586.11572s.00488.07715.00586.11572V208a14.01572,14.01572,0,0,0,14,14H208a14.01572,14.01572,0,0,0,14-14V48A14.01572,14.01572,0,0,0,208,34ZM48,46H208a2.0026,2.0026,0,0,1,2,2V154H179.30762a13.91054,13.91054,0,0,0-9.89942,4.10059l-19.31347,19.31347A1.98551,1.98551,0,0,1,148.68066,178h-41.373a1.98866,1.98866,0,0,1-1.41407-.585l-19.314-19.31543A13.90917,13.90917,0,0,0,76.68066,154H46V48A2.0026,2.0026,0,0,1,48,46ZM208,210H48a2.0026,2.0026,0,0,1-2-2V166H76.68066a1.98864,1.98864,0,0,1,1.41407.585l19.314,19.31543A13.90917,13.90917,0,0,0,107.30762,190h41.373a13.908,13.908,0,0,0,9.89942-4.10059l19.3125-19.31347a1.98943,1.98943,0,0,1,1.415-.58594H210v42A2.0026,2.0026,0,0,1,208,210Z"/>
</svg>
