<svg xmlns="http://www.w3.org/2000/svg" viewBox="0 0 256 256"><path d="M197.3,64.4a1.9,1.9,0,0,1-1-1,74.1,74.1,0,0,0-136.6,0,1.9,1.9,0,0,1-1,1A70.5,70.5,0,0,0,18,127.8C17.9,165.5,48.5,197,86.2,198a69.7,69.7,0,0,0,35.8-8.8V232a6,6,0,0,0,12,0V189.2a69.5,69.5,0,0,0,34,8.8h1.8c37.7-1,68.3-32.5,68.2-70.2A70.5,70.5,0,0,0,197.3,64.4ZM169.5,186a57.6,57.6,0,0,1-33.7-9.8l-1.8-1V131.7l44.7-22.3a6,6,0,0,0-5.4-10.8L134,118.3V88a6,6,0,0,0-12,0v54.3L82.7,122.6a6,6,0,1,0-5.4,10.8L122,155.7v19.5l-1.8,1A57.6,57.6,0,0,1,86.5,186c-31.2-.8-56.6-26.9-56.5-58.2A58.1,58.1,0,0,1,63.8,75.3a14.3,14.3,0,0,0,7-7.3,62.1,62.1,0,0,1,114.4,0,14.3,14.3,0,0,0,7,7.3A58.1,58.1,0,0,1,226,127.8C226.1,159.1,200.7,185.2,169.5,186Z"/></svg>