<svg id="Flat" xmlns="http://www.w3.org/2000/svg" viewBox="0 0 256 256">
  <path d="M197.25781,64.41016a1.98831,1.98831,0,0,1-1.00146-1.04,74.02865,74.02865,0,0,0-136.5127,0,1.9874,1.9874,0,0,1-1.002,1.04A70.25428,70.25428,0,0,0,18,127.80469c-.10254,37.74023,30.48926,69.21972,68.19531,70.17285A69.43325,69.43325,0,0,0,122,189.18408V232a6,6,0,0,0,12,0V189.18018A69.50637,69.50637,0,0,0,167.99805,198c.60156,0,1.20605-.00684,1.80908-.02246,37.70654-.9541,68.29736-32.43555,68.19287-70.17578A70.25513,70.25513,0,0,0,197.25781,64.41016Zm-27.7539,121.57129a57.59061,57.59061,0,0,1-33.69092-9.74122,14.1638,14.1638,0,0,0-1.813-1.0288V131.708l44.68359-22.3418a5.99982,5.99982,0,0,0-5.36718-10.73242L134,118.292V88a6,6,0,0,0-12,0v54.292l-39.31641-19.6582a5.99982,5.99982,0,1,0-5.36718,10.73242L122,155.708v19.5039a14.15582,14.15582,0,0,0-1.8125,1.02832,57.55187,57.55187,0,0,1-33.68945,9.74122A57.9995,57.9995,0,0,1,63.7627,75.30859a13.96,13.96,0,0,0,7.04492-7.292,62.02856,62.02856,0,0,1,114.38476,0,13.96192,13.96192,0,0,0,7.04395,7.292,57.99925,57.99925,0,0,1-22.73242,110.67286Z"/>
</svg>
