<svg id="Flat" xmlns="http://www.w3.org/2000/svg" viewBox="0 0 256 256">
  <path d="M228.73633,188.31641,180.26758,126H208a6.0001,6.0001,0,0,0,4.75586-9.6582l-80-104a6.00013,6.00013,0,0,0-9.51172,0l-80,104A6.0001,6.0001,0,0,0,48,126H75.73242L27.26367,188.31641A6.00042,6.00042,0,0,0,32,198h90v42a6,6,0,0,0,12,0V198h90a6.00042,6.00042,0,0,0,4.73633-9.68359ZM44.26758,186l48.46875-62.31641A6.00042,6.00042,0,0,0,88,114H60.18506L128,25.84082,195.81494,114H168a6.00042,6.00042,0,0,0-4.73633,9.68359L211.73242,186Z"/>
</svg>
