<svg id="Flat" xmlns="http://www.w3.org/2000/svg" viewBox="0 0 256 256">
  <path d="M168,110h48a14.01572,14.01572,0,0,0,14-14V48a14.01572,14.01572,0,0,0-14-14H168a14.01572,14.01572,0,0,0-14,14V66H144a30.03406,30.03406,0,0,0-30,30v26H86V108A14.01572,14.01572,0,0,0,72,94H32a14.01572,14.01572,0,0,0-14,14v40a14.01572,14.01572,0,0,0,14,14H72a14.01572,14.01572,0,0,0,14-14V134h28v26a30.03406,30.03406,0,0,0,30,30h10v18a14.01572,14.01572,0,0,0,14,14h48a14.01572,14.01572,0,0,0,14-14V160a14.01572,14.01572,0,0,0-14-14H168a14.01572,14.01572,0,0,0-14,14v18H144a18.02063,18.02063,0,0,1-18-18V96a18.02063,18.02063,0,0,1,18-18h10V96A14.01572,14.01572,0,0,0,168,110ZM74,148a2.0026,2.0026,0,0,1-2,2H32a2.0026,2.0026,0,0,1-2-2V108a2.0026,2.0026,0,0,1,2-2H72a2.0026,2.0026,0,0,1,2,2Zm92,12a2.0026,2.0026,0,0,1,2-2h48a2.0026,2.0026,0,0,1,2,2v48a2.0026,2.0026,0,0,1-2,2H168a2.0026,2.0026,0,0,1-2-2Zm0-112a2.0026,2.0026,0,0,1,2-2h48a2.0026,2.0026,0,0,1,2,2V96a2.0026,2.0026,0,0,1-2,2H168a2.0026,2.0026,0,0,1-2-2Z"/>
</svg>
