<svg id="Flat" xmlns="http://www.w3.org/2000/svg" viewBox="0 0 256 256">
  <path d="M238.00244,56v64a6,6,0,0,1-12,0V70.48486l-85.75781,85.75782a5.99959,5.99959,0,0,1-8.48438,0L96.00244,120.48535,28.24463,188.24268a5.99971,5.99971,0,0,1-8.48438-8.48536l72-72a5.99959,5.99959,0,0,1,8.48438,0l35.75781,35.75733L217.51758,62H168.00244a6,6,0,0,1,0-12h64a6.00843,6.00843,0,0,1,1.10694.10645c.01806.00317.03662.00463.05468.0083a5.95012,5.95012,0,0,1,1.04346.30908c.02539.01.05078.01758.07568.02783a5.97765,5.97765,0,0,1,.97315.512c.02148.01416.04443.02564.06592.04a6.02616,6.02616,0,0,1,1.67675,1.67725c.01416.02075.02539.04248.03858.06347a5.96764,5.96764,0,0,1,.51318.97461c.01026.02539.01807.051.02783.07642a5.9417,5.9417,0,0,1,.30909,1.042c.0039.01953.00537.03906.00878.0586A6.00343,6.00343,0,0,1,238.00244,56Z"/>
</svg>
