<svg id="Flat" xmlns="http://www.w3.org/2000/svg" viewBox="0 0 256 256">
  <path d="M237.0376,203.25562c-.01319.021-.02442.04272-.03858.06347a6.02544,6.02544,0,0,1-1.67724,1.67749c-.021.01416-.04346.02564-.06494.03955a5.96417,5.96417,0,0,1-.97364.51221c-.02539.0105-.05127.01807-.07666.02808a5.93471,5.93471,0,0,1-1.042.30883c-.019.00379-.03857.00513-.0581.00879a5.99748,5.99748,0,0,1-1.104.106h-64a6,6,0,1,1,0-12h49.51514l-81.51514-81.51465-35.75781,35.75733a5.99959,5.99959,0,0,1-8.48438,0l-72-72a5.99971,5.99971,0,0,1,8.48438-8.48536l67.75781,67.75733,35.75781-35.75733a5.99959,5.99959,0,0,1,8.48438,0l85.75781,85.75782V136a6,6,0,0,1,12,0v64a6.00242,6.00242,0,0,1-.106,1.104c-.00341.01954-.00488.03907-.00878.05848a5.93993,5.93993,0,0,1-.30909,1.04211c-.00976.02539-.01757.051-.02783.07642A5.973,5.973,0,0,1,237.0376,203.25562Z"/>
</svg>
