<svg xmlns="http://www.w3.org/2000/svg" viewBox="0 0 256 256"><path d="M246.1,120v-.9a.7.7,0,0,0-.1-.5v-.2c-.1-.2-.1-.4-.2-.5h-.1L231.7,82.8a13.9,13.9,0,0,0-13-8.8H182.1V64a6,6,0,0,0-6-6H24.1a14,14,0,0,0-14,14V184a14,14,0,0,0,14,14H38.7a30,30,0,0,0,58.8,0h61.2a30,30,0,0,0,58.8,0h14.6a14,14,0,0,0,14-14V120ZM218.7,86a2.2,2.2,0,0,1,1.9,1.3L231.2,114H182.1V86ZM24.1,70h146v68H22.1V72A2,2,0,0,1,24.1,70Zm-2,114V150h148v18a30.3,30.3,0,0,0-11.4,18H97.5a30,30,0,0,0-58.8,0H24.1A2,2,0,0,1,22.1,184Zm46,26a18,18,0,1,1,18-18A18.1,18.1,0,0,1,68.1,210Zm120,0a18,18,0,1,1,18-18A18.1,18.1,0,0,1,188.1,210Zm46-26a2,2,0,0,1-2,2H217.5a30,30,0,0,0-29.4-24,30.5,30.5,0,0,0-6,.6V126h52Z"/></svg>