<svg xmlns="http://www.w3.org/2000/svg" viewBox="0 0 256 256"><path d="M72,246a5.4,5.4,0,0,1-2.5-.6A5.9,5.9,0,0,1,66,240V206H48a14,14,0,0,1-14-14V48A14,14,0,0,1,48,34H208a14,14,0,0,1,14,14V156.3a14,14,0,0,1-5,10.7l-42.9,35.8a14.5,14.5,0,0,1-9,3.2H122.9a2.1,2.1,0,0,0-1.3.5L75.8,244.6A5.9,5.9,0,0,1,72,246ZM48,46a2,2,0,0,0-2,2V192a2,2,0,0,0,2,2H72a6,6,0,0,1,6,6v27.2l35.9-30a14.5,14.5,0,0,1,9-3.2h42.2a2.1,2.1,0,0,0,1.3-.5l42.9-35.7a2.3,2.3,0,0,0,.7-1.5V48a2,2,0,0,0-2-2Z"/><path d="M168,142a6,6,0,0,1-6-6V88a6,6,0,0,1,12,0v48A6,6,0,0,1,168,142Z"/><path d="M120,142a6,6,0,0,1-6-6V88a6,6,0,0,1,12,0v48A6,6,0,0,1,120,142Z"/></svg>