<svg id="Flat" xmlns="http://www.w3.org/2000/svg" viewBox="0 0 256 256">
  <path d="M245.543,69.7041A5.99908,5.99908,0,0,0,240,66l-31.59277-.00049a45.82319,45.82319,0,0,0-72.64112-10.62988A45.60127,45.60127,0,0,0,122,87.99756l-.00732,8.67432c-42.39209-10.02588-77.38477-44.5503-77.75-44.91456a6.00014,6.00014,0,0,0-10.146,3.16944c-8.64795,47.56347,5.59863,79.34619,19.07324,97.63232a106.72431,106.72431,0,0,0,26.0752,25.15625C63.72168,196.48145,38.167,206.27881,37.89355,206.38184a5.99971,5.99971,0,0,0-2.88574,8.94628C36.00879,216.83008,45.77686,230,80,230c69.7417,0,127.96973-53.87793,133.56055-123.0752l30.68213-30.68212A5.99908,5.99908,0,0,0,245.543,69.7041ZM203.49512,100.02a5.99932,5.99932,0,0,0-1.74512,3.86133C197.67285,167.87305,144.19385,218,80,218c-13.94922,0-22.75781-2.40869-28.06445-4.79834,11.30761-5.68359,29.72851-16.88086,41.05664-33.87354a6.012,6.012,0,0,0-2.29492-8.688C90.5459,170.564,75.4541,162.79,62.49219,144.979,47.04883,123.75781,40.9458,97.89941,44.294,67.98975c14.57421,12.40185,46.14648,35.83349,82.70556,41.92871a6.0002,6.0002,0,0,0,6.98682-5.91309L134,88.0083v-.00586a34.3202,34.3202,0,0,1,34.43359-34,34.07377,34.07377,0,0,1,30.73975,20.39942,6.00014,6.00014,0,0,0,5.49805,3.59765L225.51465,78Z"/>
</svg>
