<svg id="Flat" xmlns="http://www.w3.org/2000/svg" viewBox="0 0 256 256">
  <path d="M71.999,246A5.99984,5.99984,0,0,1,66,240V206H48a14.01581,14.01581,0,0,1-14-14V48A14.01581,14.01581,0,0,1,48,34H208a14.01572,14.01572,0,0,1,14,14V156.253a13.95972,13.95972,0,0,1-5.0376,10.75488L174.06616,202.7549A14.02415,14.02415,0,0,1,165.10352,206H122.89636a2.00444,2.00444,0,0,0-1.28015.46387L75.84106,244.6094A5.99964,5.99964,0,0,1,71.999,246ZM48,46a2.00245,2.00245,0,0,0-2,2V192a2.00245,2.00245,0,0,0,2,2H72a6.00014,6.00014,0,0,1,6,6v27.18945l35.93384-29.94433A14.02436,14.02436,0,0,1,122.89636,194h42.20716a2.0045,2.0045,0,0,0,1.28027-.46387l42.89673-35.74707A1.99312,1.99312,0,0,0,210,156.253V48a2.00245,2.00245,0,0,0-2-2Z"/>
  <path d="M168,142a6.00014,6.00014,0,0,1-6-6V88a6,6,0,0,1,12,0v48A6.00014,6.00014,0,0,1,168,142Z"/>
  <path d="M120,142a6.00014,6.00014,0,0,1-6-6V88a6,6,0,0,1,12,0v48A6.00014,6.00014,0,0,1,120,142Z"/>
</svg>
