<svg id="Flat" xmlns="http://www.w3.org/2000/svg" viewBox="0 0 256 256">
  <path d="M80,222.001a134.11207,134.11207,0,0,1-64.93372-16.75733,6.00859,6.00859,0,0,1,2.82691-11.25732A121.42476,121.42476,0,0,0,77.346,177.48,134.20669,134.20669,0,0,1,30.85852,36.12354,5.99992,5.99992,0,0,1,41.66931,34.4541a121.67633,121.67633,0,0,0,80.324,53.56934q-.01392-.56689-.01392-1.13477a46.00322,46.00322,0,0,1,84.13586-25.73,122.49923,122.49923,0,0,0,31.97925-6.18506,5.99995,5.99995,0,0,1,6.82569,9.12891A133.59022,133.59022,0,0,1,213.7771,95.79639,134.007,134.007,0,0,1,80,222.001ZM41.10107,203.65137A122.46866,122.46866,0,0,0,80,210.001,122.0026,122.0026,0,0,0,201.92285,92.37939,6.001,6.001,0,0,1,204.51,87.65332a120.97408,120.97408,0,0,0,19.32007-16.59326,134.34165,134.34165,0,0,1-20.78882,2.24316,6.02235,6.02235,0,0,1-5.49536-3.21582,34.01353,34.01353,0,0,0-62.88574,23.60987,6.005,6.005,0,0,1-6.67224,7.35644,133.45082,133.45082,0,0,1-88.365-48.999A122.20885,122.20885,0,0,0,91.37964,172.88818a6,6,0,0,1-.00012,9.916A133.20309,133.20309,0,0,1,41.10107,203.65137Z"/>
</svg>
