<svg xmlns="http://www.w3.org/2000/svg" viewBox="0 0 256 256"><path d="M245.5,69.7A6,6,0,0,0,240,66H208.4a46,46,0,0,0-39.8-24A46.4,46.4,0,0,0,122,88v8.7C79.6,86.6,44.6,52.1,44.2,51.8a6,6,0,0,0-10.1,3.1c-8.7,47.6,5.6,79.4,19.1,97.7a105.6,105.6,0,0,0,26,25.1c-15.5,18.8-41,28.6-41.3,28.7a5.9,5.9,0,0,0-3.6,3.8,5.8,5.8,0,0,0,.7,5.1c1,1.5,10.8,14.7,45,14.7,69.7,0,128-53.9,133.6-123.1l30.6-30.7A5.7,5.7,0,0,0,245.5,69.7Zm-42,30.3a5.8,5.8,0,0,0-1.7,3.9C197.7,167.9,144.2,218,80,218c-13.9,0-22.8-2.4-28.1-4.8,11.3-5.7,29.8-16.9,41.1-33.9a6.2,6.2,0,0,0,.8-4.8,6.1,6.1,0,0,0-3.1-3.9c-.2,0-15.2-7.8-28.2-25.6C47,123.8,40.9,97.9,44.3,68c14.6,12.4,46.1,35.8,82.7,41.9a5.9,5.9,0,0,0,7-5.9V88h0a34.3,34.3,0,0,1,34.4-34,34.2,34.2,0,0,1,30.8,20.4,5.9,5.9,0,0,0,5.5,3.6h20.8Z"/></svg>