<svg id="Flat" xmlns="http://www.w3.org/2000/svg" viewBox="0 0 256 256">
  <path d="M237.62012,126.79492a110.00657,110.00657,0,0,0-219.24024,0A14.02152,14.02152,0,0,0,32.33447,142H122v58a30,30,0,0,0,60,0,6,6,0,0,0-12,0,18,18,0,0,1-36,0V142h89.66553a14.02152,14.02152,0,0,0,13.95459-15.20508ZM225.126,129.3584a1.93989,1.93989,0,0,1-1.46045.6416H32.33447a1.93989,1.93989,0,0,1-1.46045-.6416,2.04636,2.04636,0,0,1-.53515-1.57129,98.00652,98.00652,0,0,1,195.32226,0A2.04636,2.04636,0,0,1,225.126,129.3584Z"/>
</svg>
