<svg id="Flat" xmlns="http://www.w3.org/2000/svg" viewBox="0 0 256 256">
  <path d="M237.62012,126.79492a110.00657,110.00657,0,0,0-219.24024,0A14.02152,14.02152,0,0,0,32.33447,142H122v58a30,30,0,0,0,60,0,6,6,0,0,0-12,0,18,18,0,0,1-36,0V142h89.66553a14.02152,14.02152,0,0,0,13.95459-15.20508ZM94.10889,130c1.69287-51.20654,24.69922-80.15918,33.89013-89.72754C137.2002,49.85107,160.19824,78.802,161.89111,130ZM30.874,129.3584a2.04636,2.04636,0,0,1-.53515-1.57129,97.97818,97.97818,0,0,1,82.57129-88.606C100.88965,54.1394,83.49414,83.61768,82.09521,130H32.33447A1.93989,1.93989,0,0,1,30.874,129.3584Zm194.252,0a1.93989,1.93989,0,0,1-1.46045.6416H173.90479c-1.39893-46.38232-18.79444-75.8606-30.81495-90.81885a97.97818,97.97818,0,0,1,82.57129,88.606A2.04636,2.04636,0,0,1,225.126,129.3584Z"/>
</svg>
