<svg xmlns="http://www.w3.org/2000/svg" viewBox="0 0 256 256"><path d="M237.6,126.8a110,110,0,0,0-219.2,0A14.4,14.4,0,0,0,22,137.5,14,14,0,0,0,32.3,142H122v58a30,30,0,0,0,60,0,6,6,0,0,0-12,0,18,18,0,0,1-36,0V142h89.7a14,14,0,0,0,10.3-4.5A14.4,14.4,0,0,0,237.6,126.8ZM94.1,130c1.7-51.2,24.7-80.2,33.9-89.7,9.2,9.6,32.2,38.5,33.9,89.7Zm-63.2-.6a2.2,2.2,0,0,1-.6-1.6,98,98,0,0,1,82.6-88.6c-12,14.9-29.4,44.4-30.8,90.8H32.3A1.7,1.7,0,0,1,30.9,129.4Zm194.2,0a1.7,1.7,0,0,1-1.4.6H173.9c-1.4-46.4-18.8-75.9-30.8-90.8a98,98,0,0,1,82.6,88.6A2.2,2.2,0,0,1,225.1,129.4Z"/></svg>