<svg id="Flat" xmlns="http://www.w3.org/2000/svg" viewBox="0 0 256 256">
  <path d="M81.75684,86.23145a6.00032,6.00032,0,0,1,.001-8.48536l42-41.98925c.09912-.09888.21387-.16895.31787-.2594.08252-.07141.16651-.13965.25293-.20642a5.89488,5.89488,0,0,1,.77539-.51551c.0337-.0188.06836-.036.103-.05407a5.89882,5.89882,0,0,1,1.0044-.42066l.0122-.00378a5.98644,5.98644,0,0,1,3.55274,0l.0122.00378a5.89882,5.89882,0,0,1,1.0044.42066c.03467.01806.06933.03527.103.05407a5.89488,5.89488,0,0,1,.77539.51551c.08642.06689.1709.13525.25293.20654.104.09045.21875.16052.31787.25928l42,41.98925a6.00005,6.00005,0,0,1-8.48438,8.48633L134,54.48291V152a6,6,0,0,1-12,0V54.48279L90.24219,86.23242A6.00164,6.00164,0,0,1,81.75684,86.23145ZM216,146a6.00029,6.00029,0,0,0-6,6v56a2.0026,2.0026,0,0,1-2,2H48a2.0026,2.0026,0,0,1-2-2V152a6,6,0,0,0-12,0v56a14.01572,14.01572,0,0,0,14,14H208a14.01572,14.01572,0,0,0,14-14V152A6.00029,6.00029,0,0,0,216,146Z"/>
</svg>
