<svg id="Flat" xmlns="http://www.w3.org/2000/svg" viewBox="0 0 256 256">
  <path d="M238,136v64a14.01572,14.01572,0,0,1-14,14H32a14.01572,14.01572,0,0,1-14-14V136a14.01572,14.01572,0,0,1,14-14H80a6,6,0,0,1,0,12H32a2.0026,2.0026,0,0,0-2,2v64a2.0026,2.0026,0,0,0,2,2H224a2.0026,2.0026,0,0,0,2-2V136a2.0026,2.0026,0,0,0-2-2H176a6,6,0,0,1,0-12h48A14.01572,14.01572,0,0,1,238,136ZM84.24268,76.24219,122,38.48535V128a6,6,0,0,0,12,0V38.48535l37.75732,37.75684a5.99971,5.99971,0,0,0,8.48536-8.48438L132.24609,19.76172a5.99557,5.99557,0,0,0-.92724-.75879c-.02051-.01367-.042-.02441-.0625-.0376a5.93243,5.93243,0,0,0-.97559-.51367c-.0249-.01025-.05078-.01807-.07568-.02783a5.95213,5.95213,0,0,0-1.04248-.30908c-.01953-.00391-.03906-.00537-.0586-.00879a5.80428,5.80428,0,0,0-2.208,0c-.01954.00342-.03907.00488-.0586.00879a5.95213,5.95213,0,0,0-1.04248.30908c-.0249.00976-.05078.01758-.07568.02783a5.93243,5.93243,0,0,0-.97559.51367c-.02051.01319-.042.02393-.0625.0376a6.038,6.038,0,0,0-.92676.75781L75.75732,67.75781a5.99971,5.99971,0,0,0,8.48536,8.48438ZM198,168a10,10,0,1,0-10,10A10.01177,10.01177,0,0,0,198,168Z"/>
</svg>
