<svg id="Flat" xmlns="http://www.w3.org/2000/svg" viewBox="0 0 256 256">
  <path d="M81.75732,86.21289a5.99869,5.99869,0,0,1,0-8.48437l42-42a5.999,5.999,0,0,1,8.48536,0l42,42a5.99971,5.99971,0,1,1-8.48536,8.48437L134,54.45605V152a6,6,0,0,1-12,0V54.45605L90.24268,86.21289A5.999,5.999,0,0,1,81.75732,86.21289ZM224,130a6.00029,6.00029,0,0,0-6,6v72a2.0026,2.0026,0,0,1-2,2H40a2.0026,2.0026,0,0,1-2-2V136a6,6,0,0,0-12,0v72a14.01572,14.01572,0,0,0,14,14H216a14.01572,14.01572,0,0,0,14-14V136A6.00029,6.00029,0,0,0,224,130Z"/>
</svg>
