<svg id="Flat" xmlns="http://www.w3.org/2000/svg" viewBox="0 0 256 256">
  <path d="M247.605,144.793a5.99923,5.99923,0,0,1-8.40088-1.19336A53.59708,53.59708,0,0,0,196,122a6,6,0,0,1,0-12,26,26,0,1,0-25.54248-30.8877A5.99983,5.99983,0,1,1,158.66846,76.874a38,38,0,1,1,60.44384,37.25977,65.67822,65.67822,0,0,1,29.686,22.25879A5.99939,5.99939,0,0,1,247.605,144.793Zm-56.646,68.57715a5.99991,5.99991,0,1,1-10.7871,5.25683,58.026,58.026,0,0,0-104.34376,0,6.00013,6.00013,0,1,1-10.78759-5.25683,69.61183,69.61183,0,0,1,37.93115-34.80518,46,46,0,1,1,50.05664,0A69.61091,69.61091,0,0,1,190.959,213.37012ZM128,174a34,34,0,1,0-34-34A34.03833,34.03833,0,0,0,128,174ZM60,110A26,26,0,1,1,85.54248,79.1123a6,6,0,0,0,11.78906-2.24023A38.00021,38.00021,0,1,0,36.8877,114.13379,65.67606,65.67606,0,0,0,7.2002,136.39453a5.9998,5.9998,0,1,0,9.59423,7.207A53.59486,53.59486,0,0,1,60,122a6,6,0,0,0,0-12Z"/>
</svg>
