<svg id="Flat" xmlns="http://www.w3.org/2000/svg" viewBox="0 0 256 256">
  <path d="M227.24854,64.804l-5.91822-3.417a22.00141,22.00141,0,0,0,0-10.77392l5.91822-3.417a5.9999,5.9999,0,1,0-6-10.39208l-5.93213,3.425A22.00361,22.00361,0,0,0,206,34.83838V28a6,6,0,0,0-12,0v6.83838a22.00361,22.00361,0,0,0-9.31641,5.39062l-5.93213-3.425a5.9999,5.9999,0,1,0-6,10.39208l5.91822,3.417a22.00141,22.00141,0,0,0,0,10.77392l-5.91822,3.417a5.9999,5.9999,0,1,0,6,10.39208l5.93213-3.425A22.00361,22.00361,0,0,0,194,77.16162V84a6,6,0,0,0,12,0V77.16162a22.00361,22.00361,0,0,0,9.31641-5.39062l5.93213,3.425a5.9999,5.9999,0,1,0,6-10.39208ZM200,66a10,10,0,1,1,10-10A10.0113,10.0113,0,0,1,200,66Zm22.60693,44.54224a6,6,0,0,0-5.24609,6.66919A91.42616,91.42616,0,0,1,218,128a89.67086,89.67086,0,0,1-24.48633,61.64014,77.5814,77.5814,0,0,0-40.00293-31.38477,46,46,0,1,0-51.02148,0,77.58269,77.58269,0,0,0-40.00318,31.38477A89.95113,89.95113,0,0,1,128,38c2.7876,0,5.59961.12866,8.3584.38281A5.99985,5.99985,0,0,0,137.458,26.43359C134.33545,26.14551,131.15332,26,128,26A101.95309,101.95309,0,0,0,59.22656,203.25977a5.956,5.956,0,0,0,1.17725,1.05468,101.78863,101.78863,0,0,0,135.19433-.00171,5.95607,5.95607,0,0,0,1.17139-1.04956A101.753,101.753,0,0,0,230,128a103.37423,103.37423,0,0,0-.72412-12.21143A5.99947,5.99947,0,0,0,222.60693,110.54224ZM94,120a34,34,0,1,1,34,34A34.03864,34.03864,0,0,1,94,120ZM71.44336,197.95337a66.02824,66.02824,0,0,1,113.113.00024,89.80372,89.80372,0,0,1-113.113-.00024Z"/>
</svg>
