<svg id="Flat" xmlns="http://www.w3.org/2000/svg" viewBox="0 0 256 256">
  <path d="M170,56a6.00029,6.00029,0,0,1,6-6h18V32a6,6,0,0,1,12,0V50h18a6,6,0,0,1,0,12H206V80a6,6,0,0,1-12,0V62H176A6.00029,6.00029,0,0,1,170,56Zm58.73877,55.91846A103.073,103.073,0,0,1,230,128a101.753,101.753,0,0,1-33.23242,75.26514,5.96094,5.96094,0,0,1-1.16773,1.0459,101.78837,101.78837,0,0,1-135.196.00341,5.97316,5.97316,0,0,1-1.17676-1.0542A101.95311,101.95311,0,0,1,128,26a103.04636,103.04636,0,0,1,16.08154,1.26172,5.99971,5.99971,0,1,1-1.87793,11.85156A91.13248,91.13248,0,0,0,128,38,89.95132,89.95132,0,0,0,62.48584,189.64014a77.5801,77.5801,0,0,1,40.00342-31.38477,46,46,0,1,1,51.02148,0,77.58045,77.58045,0,0,1,40.00293,31.38477A89.6704,89.6704,0,0,0,218,128a90.97483,90.97483,0,0,0-1.11377-14.20313,6.00023,6.00023,0,0,1,11.85254-1.87841ZM128,154a34,34,0,1,0-34-34A34.03864,34.03864,0,0,0,128,154Zm0,64a89.56938,89.56938,0,0,0,56.5564-20.04639,66.02837,66.02837,0,0,0-113.113-.00049A89.56712,89.56712,0,0,0,128,218Z"/>
</svg>
