<svg id="Flat" xmlns="http://www.w3.org/2000/svg" viewBox="0 0 256 256">
  <path d="M170,56a6.00029,6.00029,0,0,1,6-6h48a6,6,0,0,1,0,12H176A6.00029,6.00029,0,0,1,170,56Zm54.19482,38.00049a102.01953,102.01953,0,0,1-27.42724,109.26465,5.96094,5.96094,0,0,1-1.16773,1.0459,101.78837,101.78837,0,0,1-135.196.00341,5.97316,5.97316,0,0,1-1.17676-1.0542A101.95311,101.95311,0,0,1,128,26a103.11812,103.11812,0,0,1,16.07861,1.26074,6.00019,6.00019,0,1,1-1.87793,11.85254A91.01684,91.01684,0,0,0,128,38,89.95132,89.95132,0,0,0,62.48584,189.64014a77.5801,77.5801,0,0,1,40.00342-31.38477,46,46,0,1,1,51.02148,0,77.58045,77.58045,0,0,1,40.00293,31.38477,90.01743,90.01743,0,0,0,19.3667-91.64063,6.00019,6.00019,0,1,1,11.31445-3.999ZM128,154a34,34,0,1,0-34-34A34.03864,34.03864,0,0,0,128,154Zm0,64a89.56938,89.56938,0,0,0,56.5564-20.04639,66.02837,66.02837,0,0,0-113.113-.00049A89.56712,89.56712,0,0,0,128,218Z"/>
</svg>
