<svg id="Flat" xmlns="http://www.w3.org/2000/svg" viewBox="0 0 256 256">
  <path d="M216,42H40A14.01572,14.01572,0,0,0,26,56V200a14.01572,14.01572,0,0,0,14,14H216a14.01572,14.01572,0,0,0,14-14V56A14.01572,14.01572,0,0,0,216,42ZM94,120a34,34,0,1,1,34,34A34.03864,34.03864,0,0,1,94,120ZM69.20508,202a66.0117,66.0117,0,0,1,117.58984,0ZM218,200a2.002,2.002,0,0,1-2,2H200.00537A78.14914,78.14914,0,0,0,153.45068,158.294a46,46,0,1,0-50.90136,0A78.14914,78.14914,0,0,0,55.99463,202H40a2.002,2.002,0,0,1-2-2V56a2.002,2.002,0,0,1,2-2H216a2.002,2.002,0,0,1,2,2Z"/>
</svg>
