<svg id="Flat" xmlns="http://www.w3.org/2000/svg" viewBox="0 0 256 256">
  <path d="M208,34H48A14.01572,14.01572,0,0,0,34,48V208a14.01572,14.01572,0,0,0,14,14h9.65088c.01514.00037.03027-.00024.04541,0H198.19336l.01709.00146L198.23657,222H208a14.01572,14.01572,0,0,0,14-14V48A14.01572,14.01572,0,0,0,208,34ZM94,120a34,34,0,1,1,34,34A34.03864,34.03864,0,0,1,94,120ZM65.77051,210A66.4082,66.4082,0,0,1,86.543,180.64209a66.01094,66.01094,0,0,1,82.91406,0A66.4082,66.4082,0,0,1,190.22949,210ZM210,208a2.002,2.002,0,0,1-2,2h-5.16772a77.85565,77.85565,0,0,0-49.37769-51.7085,46,46,0,1,0-50.90918,0A77.85565,77.85565,0,0,0,53.16772,210H48a2.002,2.002,0,0,1-2-2V48a2.002,2.002,0,0,1,2-2H208a2.002,2.002,0,0,1,2,2Z"/>
</svg>
