<svg id="Flat" xmlns="http://www.w3.org/2000/svg" viewBox="0 0 256 256">
  <path d="M170.55518,73a5.99775,5.99775,0,0,0,8.19628,2.19629l5.93238-3.42511A21.9993,21.9993,0,0,0,194,77.1615V84a6,6,0,0,0,12,0V77.1615a21.9993,21.9993,0,0,0,9.31616-5.39032l5.93238,3.42511a6.00012,6.00012,0,0,0,6-10.39258l-5.91822-3.41693a22,22,0,0,0,0-10.77356l5.91822-3.41693a6.00012,6.00012,0,0,0-6-10.39258l-5.93238,3.42511A21.9993,21.9993,0,0,0,206,34.8385V28a6,6,0,0,0-12,0v6.8385a21.9993,21.9993,0,0,0-9.31616,5.39032l-5.93238-3.42511a6.00012,6.00012,0,0,0-6,10.39258l5.91822,3.41693a22,22,0,0,0,0,10.77356l-5.91822,3.41693A6.00054,6.00054,0,0,0,170.55518,73ZM200,46a10,10,0,1,1-10,10A10.01114,10.01114,0,0,1,200,46Zm28.01709,175.18555a5.99744,5.99744,0,0,1-8.19824-2.18848,106.03755,106.03755,0,0,0-183.63623-.002,6,6,0,0,1-10.38672-6.00977A118.51135,118.51135,0,0,1,96.30322,158.381,69.98054,69.98054,0,0,1,128,26a70.76715,70.76715,0,0,1,9.68311.665,6.00017,6.00017,0,0,1-1.64747,11.88672A58.696,58.696,0,0,0,128,38a58,58,0,1,0,53.1333,81.29688,6.00007,6.00007,0,0,1,10.98731,4.82519,70.02139,70.02139,0,0,1-32.38623,34.26978,118.51236,118.51236,0,0,1,70.47119,54.59545A5.99991,5.99991,0,0,1,228.01709,221.18555Z"/>
</svg>
