<svg xmlns="http://www.w3.org/2000/svg" viewBox="0 0 256 256"><path d="M170,56a6,6,0,0,1,6-6h18V32a6,6,0,0,1,12,0V50h18a6,6,0,0,1,0,12H206V80a6,6,0,0,1-12,0V62H176A6,6,0,0,1,170,56Zm58.7,55.9A96.3,96.3,0,0,1,230,128a101.8,101.8,0,0,1-33.2,75.3l-1.2,1a101.8,101.8,0,0,1-135.2,0l-1.2-1A102,102,0,0,1,128,26a96.3,96.3,0,0,1,16.1,1.3,6,6,0,1,1-1.9,11.8A96,96,0,0,0,128,38,89.9,89.9,0,0,0,62.5,189.6a77.7,77.7,0,0,1,40-31.3,46,46,0,1,1,51,0,77.7,77.7,0,0,1,40,31.3A89.5,89.5,0,0,0,218,128a96,96,0,0,0-1.1-14.2,6.1,6.1,0,0,1,5-6.9A6,6,0,0,1,228.7,111.9ZM128,154a34,34,0,1,0-34-34A34.1,34.1,0,0,0,128,154Zm0,64a89.9,89.9,0,0,0,56.6-20,66.1,66.1,0,0,0-113.2,0A89.9,89.9,0,0,0,128,218Z"/></svg>