<svg xmlns="http://www.w3.org/2000/svg" viewBox="0 0 256 256"><path d="M28.4,124.8a6,6,0,0,0,8.4-1.2,54,54,0,0,1,86.3-.1l.5.6h0l.4.4h.1l.3.2h0l.7.5h.3l.7.3h.2l.6.2H130l.6-.3h.2l.4-.2.2-.2h.3c.1,0,.1-.1.2-.2l.3-.3h.2l.4-.5h0a54,54,0,0,1,86.4,0,6,6,0,0,0,8.4,1.2,6,6,0,0,0,1.2-8.4,66.4,66.4,0,0,0-29.7-22.3A37.6,37.6,0,0,0,214,64a38,38,0,0,0-76,0,37.6,37.6,0,0,0,14.9,30.1A64.9,64.9,0,0,0,128,110.7a64.9,64.9,0,0,0-24.9-16.6A37.6,37.6,0,0,0,118,64a38,38,0,0,0-76,0A37.6,37.6,0,0,0,56.9,94.1a66.4,66.4,0,0,0-29.7,22.3A6,6,0,0,0,28.4,124.8ZM150,64a26,26,0,1,1,26,26A26.1,26.1,0,0,1,150,64ZM54,64A26,26,0,1,1,80,90,26.1,26.1,0,0,1,54,64ZM199.1,198.1A37.6,37.6,0,0,0,214,168a38,38,0,0,0-76,0,37.6,37.6,0,0,0,14.9,30.1A64.9,64.9,0,0,0,128,214.7a64.9,64.9,0,0,0-24.9-16.6A37.6,37.6,0,0,0,118,168a38,38,0,0,0-76,0,37.6,37.6,0,0,0,14.9,30.1,66.4,66.4,0,0,0-29.7,22.3,6,6,0,1,0,9.6,7.2,54,54,0,0,1,86.3-.1l.5.6h0l.4.4h.1l.3.2h0l.7.5h.3l.7.3h.2l.6.2H130l.6-.3h.2l.4-.2.2-.2h.3c.1,0,.1-.1.2-.2l.3-.3h.2l.4-.5h0a54,54,0,0,1,86.4,0,6,6,0,0,0,8.4,1.2,6,6,0,0,0,1.2-8.4A66.4,66.4,0,0,0,199.1,198.1ZM54,168a26,26,0,1,1,26,26A26.1,26.1,0,0,1,54,168Zm96,0a26,26,0,1,1,26,26A26.1,26.1,0,0,1,150,168Z"/></svg>