<svg id="Flat" xmlns="http://www.w3.org/2000/svg" viewBox="0 0 256 256">
  <path d="M221.67969,106.0813a5.99986,5.99986,0,0,0-4.92481,6.90991A90.96931,90.96931,0,0,1,218,128a89.67086,89.67086,0,0,1-24.48633,61.64014,77.5814,77.5814,0,0,0-40.00293-31.38477,46,46,0,1,0-51.02148,0,77.58269,77.58269,0,0,0-40.00318,31.38477A89.95113,89.95113,0,0,1,128,38a90.96619,90.96619,0,0,1,15.0083,1.24487,6.00012,6.00012,0,1,0,1.98633-11.83471A102.08516,102.08516,0,0,0,26,128a101.75422,101.75422,0,0,0,33.22656,75.25977,5.956,5.956,0,0,0,1.17725,1.05468,101.78863,101.78863,0,0,0,135.19433-.00171,5.95607,5.95607,0,0,0,1.17139-1.04956A101.753,101.753,0,0,0,230,128a103.04146,103.04146,0,0,0-1.41016-16.99414A6.00025,6.00025,0,0,0,221.67969,106.0813ZM94,120a34,34,0,1,1,34,34A34.03864,34.03864,0,0,1,94,120ZM71.44336,197.95337a66.02824,66.02824,0,0,1,113.113.00024,89.80372,89.80372,0,0,1-113.113-.00024ZM227.24854,64.804l-5.91822-3.417a22.00141,22.00141,0,0,0,0-10.77392l5.91822-3.417a5.9999,5.9999,0,1,0-6-10.39208l-5.93213,3.425A22.00361,22.00361,0,0,0,206,34.83838V28a6,6,0,0,0-12,0v6.83838a22.00361,22.00361,0,0,0-9.31641,5.39062l-5.93213-3.425a5.9999,5.9999,0,1,0-6,10.39208l5.91822,3.417a22.00141,22.00141,0,0,0,0,10.77392l-5.91822,3.417a5.9999,5.9999,0,1,0,6,10.39208l5.93213-3.425A22.00361,22.00361,0,0,0,194,77.16162V84a6,6,0,0,0,12,0V77.16162a22.00361,22.00361,0,0,0,9.31641-5.39062l5.93213,3.425a5.9999,5.9999,0,1,0,6-10.39208ZM200,66a10,10,0,1,1,10-10A10.0113,10.0113,0,0,1,200,66Z"/>
</svg>
