<svg id="Flat" xmlns="http://www.w3.org/2000/svg" viewBox="0 0 256 256">
  <path d="M170,56a6.00029,6.00029,0,0,1,6-6h18V32a6,6,0,0,1,12,0V50h18a6,6,0,0,1,0,12H206V80a6,6,0,0,1-12,0V62H176A6.00029,6.00029,0,0,1,170,56Zm60.20557,156.98779a118.51534,118.51534,0,0,0-70.54981-54.61853,70.14421,70.14421,0,0,0,34.02344-38.107,5.99986,5.99986,0,0,0-11.25586-4.15918,57.966,57.966,0,1,1-41.0249-76.54932A5.99981,5.99981,0,1,0,144.15918,27.876a69.99113,69.99113,0,0,0-47.856,130.50512A118.51394,118.51394,0,0,0,25.7959,212.98584a6,6,0,0,0,10.38672,6.00977,106.03706,106.03706,0,0,1,183.63623.00195,6,6,0,1,0,10.38672-6.00977Z"/>
</svg>
