<svg xmlns="http://www.w3.org/2000/svg" viewBox="0 0 256 256"><path d="M222,48V76a6,6,0,0,1-12,0V48a2,2,0,0,0-2-2H180a6,6,0,0,1,0-12h28A14,14,0,0,1,222,48Zm-6,126a6,6,0,0,0-6,6v28a2,2,0,0,1-2,2H180a6,6,0,0,0,0,12h28a14,14,0,0,0,14-14V180A6,6,0,0,0,216,174ZM76,210H48a2,2,0,0,1-2-2V180a6,6,0,0,0-12,0v28a14,14,0,0,0,14,14H76a6,6,0,0,0,0-12ZM40,82a6,6,0,0,0,6-6V48a2,2,0,0,1,2-2H76a6,6,0,0,0,0-12H48A14,14,0,0,0,34,48V76A6,6,0,0,0,40,82Zm135.8,96.8a54.1,54.1,0,0,0-95.6,0,6,6,0,0,1-8.1,2.5,6.1,6.1,0,0,1-2.5-8.1,65.7,65.7,0,0,1,35.3-31,38,38,0,1,1,46.2,0,65.7,65.7,0,0,1,35.3,31,6.1,6.1,0,0,1-2.5,8.1,5.8,5.8,0,0,1-2.8.7A6,6,0,0,1,175.8,178.8ZM128,138a26,26,0,1,0-26-26A26.1,26.1,0,0,0,128,138Z"/></svg>