<svg id="Flat" xmlns="http://www.w3.org/2000/svg" viewBox="0 0 256 256">
  <path d="M170,56a6.00029,6.00029,0,0,1,6-6h48a6,6,0,0,1,0,12H176A6.00029,6.00029,0,0,1,170,56Zm60.20557,156.98779a118.51511,118.51511,0,0,0-70.50879-54.60669A70.05939,70.05939,0,0,0,198,96a6,6,0,0,0-12,0,57.9282,57.9282,0,1,1-44.60156-56.44629A5.99981,5.99981,0,1,0,144.15918,27.876a69.99113,69.99113,0,0,0-47.856,130.50512A118.51394,118.51394,0,0,0,25.7959,212.98584a6,6,0,0,0,10.38672,6.00977,106.03706,106.03706,0,0,1,183.63623.00195,6,6,0,1,0,10.38672-6.00977Z"/>
</svg>
