<svg id="Flat" xmlns="http://www.w3.org/2000/svg" viewBox="0 0 256 256">
  <path d="M139.13989,158.17316a66.00007,66.00007,0,1,0-62.27954.00006,117.85074,117.85074,0,0,0-59.24609,37.96545,5.99978,5.99978,0,1,0,9.1875,7.71875,106.008,106.008,0,0,1,162.397,0,5.99978,5.99978,0,1,0,9.1875-7.71875A117.851,117.851,0,0,0,139.13989,158.17316ZM54,100a54,54,0,1,1,54,54A54.06093,54.06093,0,0,1,54,100Zm193.24854,44.80371-5.91822-3.41693a22,22,0,0,0,0-10.77356l5.91822-3.41693a6.00012,6.00012,0,0,0-6-10.39258l-5.93238,3.42511A21.9993,21.9993,0,0,0,226,114.8385V108a6,6,0,0,0-12,0v6.8385a21.9993,21.9993,0,0,0-9.31616,5.39032l-5.93238-3.42511a6.00012,6.00012,0,0,0-6,10.39258l5.91822,3.41693a22,22,0,0,0,0,10.77356l-5.91822,3.41693a6.00012,6.00012,0,1,0,6,10.39258l5.93238-3.42511A21.9993,21.9993,0,0,0,214,157.1615V164a6,6,0,0,0,12,0v-6.8385a21.9993,21.9993,0,0,0,9.31616-5.39032l5.93238,3.42511a6.00012,6.00012,0,0,0,6-10.39258ZM220,146a10,10,0,1,1,10-10A10.01114,10.01114,0,0,1,220,146Z"/>
</svg>
