<svg id="Flat" xmlns="http://www.w3.org/2000/svg" viewBox="0 0 256 256">
  <path d="M146,80a6.00029,6.00029,0,0,1,6-6h96a6,6,0,0,1,0,12H152A6.00029,6.00029,0,0,1,146,80Zm102,42H152a6,6,0,0,0,0,12h96a6,6,0,0,0,0-12Zm0,48H176a6,6,0,0,0,0,12h72a6,6,0,0,0,0-12ZM147.79443,190.50391a6.00006,6.00006,0,1,1-11.62109,2.99218,58.02078,58.02078,0,0,0-112.34668,0,6.00006,6.00006,0,0,1-11.62109-2.99218,69.91223,69.91223,0,0,1,42.82324-47.90235,46,46,0,1,1,49.94238,0A69.91223,69.91223,0,0,1,147.79443,190.50391ZM80,138a34,34,0,1,0-34-34A34.03833,34.03833,0,0,0,80,138Z"/>
</svg>
