<svg id="Flat" xmlns="http://www.w3.org/2000/svg" viewBox="0 0 256 256">
  <path d="M116.54321,158.46045a58.0001,58.0001,0,1,0-57.08569-.00024,94.22721,94.22721,0,0,0-48.36719,35.48217,5.99978,5.99978,0,1,0,9.81153,6.90821,82.01763,82.01763,0,0,1,134.19287-.00489,6.00006,6.00006,0,1,0,9.81152-6.90918A94.22814,94.22814,0,0,0,116.54321,158.46045ZM42.00049,108a46,46,0,1,1,46,46A46.05239,46.05239,0,0,1,42.00049,108Zm202.97656,94.29688a5.999,5.999,0,0,1-8.36035-1.45118A82.17138,82.17138,0,0,0,169.522,166a6,6,0,0,1,0-12A46,46,0,1,0,157.0376,63.71289a6.00012,6.00012,0,0,1-3.25-11.55176,57.99139,57.99139,0,0,1,44.2771,106.29932,94.22968,94.22968,0,0,1,48.36352,35.47607A6.00011,6.00011,0,0,1,244.97705,202.29688Z"/>
</svg>
