<svg xmlns="http://www.w3.org/2000/svg" viewBox="0 0 256 256"><path d="M252.2,132.2l-24,24a5.8,5.8,0,0,1-8.4,0l-24-24a5.9,5.9,0,0,1,8.4-8.4L218,137.5V128A90,90,0,0,0,52.4,79.2a6,6,0,0,1-8.3,1.7,5.9,5.9,0,0,1-1.8-8.2A102,102,0,0,1,230,128v9.5l13.8-13.7a5.9,5.9,0,0,1,8.4,8.4Zm-38.5,51.1A102,102,0,0,1,26,128v-9.5L12.2,132.2a5.8,5.8,0,0,1-8.4,0,5.8,5.8,0,0,1,0-8.4l24-24a5.8,5.8,0,0,1,8.4,0l24,24a5.9,5.9,0,1,1-8.4,8.4L38,118.5V128a89.5,89.5,0,0,0,24.5,61.6,77.7,77.7,0,0,1,40-31.3,46,46,0,1,1,51,0,77,77,0,0,1,40,31.4,85.9,85.9,0,0,0,10.1-12.9,6,6,0,0,1,8.3-1.7A5.9,5.9,0,0,1,213.7,183.3ZM128,154a34,34,0,1,0-34-34A34.1,34.1,0,0,0,128,154Zm0,64a89.6,89.6,0,0,0,56.6-20,66.1,66.1,0,0,0-113.2,0A89.9,89.9,0,0,0,128,218Z"/></svg>