<svg id="Flat" xmlns="http://www.w3.org/2000/svg" viewBox="0 0 256 256">
  <path d="M28.39355,124.79492a5.99921,5.99921,0,0,0,8.40088-1.19336,54.00393,54.00393,0,0,1,86.32715-.10522,6.01245,6.01245,0,0,0,.47022.5686c.00927.01026.01953.01929.02881.0293.12255.13061.25048.25757.38623.37842.03711.033.07568.0625.11279.09423.09082.07666.17773.15577.27392.228.01709.0127.03614.021.05323.03345a5.90777,5.90777,0,0,0,.68652.43262c.07275.03979.14649.07763.2207.11425a5.98539,5.98539,0,0,0,.7085.2981c.07617.02588.15332.04443.23.06738a6.06457,6.06457,0,0,0,.60205.145c.07666.01441.15235.03272.22949.04395a6.034,6.034,0,0,0,.76026.05981c.03613.00073.07226.00855.1084.00855.05371,0,.10693-.00757.16064-.009.11816-.00293.23584-.01025.35352-.02026.08837-.00732.17627-.0144.26367-.02588.14111-.01807.28076-.04394.4209-.072.0664-.01343.13281-.02368.19873-.03931a5.92724,5.92724,0,0,0,.58691-.17065l.02734-.0083a5.99958,5.99958,0,0,0,.59522-.24951c.06787-.03272.13281-.07178.19971-.10718.12207-.0647.24414-.12988.36279-.2041.081-.0503.15918-.106.23779-.1604.06787-.04688.13819-.08838.20508-.13843.03564-.02686.0669-.05737.102-.085.06983-.05493.1377-.11255.20508-.17114q.17065-.14649.32715-.30274c.0459-.04614.09179-.0918.13672-.13965a5.99938,5.99938,0,0,0,.38964-.45874c.00879-.012.01954-.022.02881-.03418a54.00879,54.00879,0,0,1,86.40967-.002,5.99981,5.99981,0,0,0,9.59424-7.207,65.67822,65.67822,0,0,0-29.686-22.25879,38,38,0,1,0-46.2246,0A65.30865,65.30865,0,0,0,128,110.69775a65.31237,65.31237,0,0,0-24.8877-16.564,38,38,0,1,0-46.2246,0,65.67606,65.67606,0,0,0-29.6875,22.26074A5.99938,5.99938,0,0,0,28.39355,124.79492ZM150,64a26,26,0,1,1,26,26A26.02916,26.02916,0,0,1,150,64ZM54,64A26,26,0,1,1,80,90,26.02916,26.02916,0,0,1,54,64ZM199.1123,198.13379a38,38,0,1,0-46.2246,0A65.30865,65.30865,0,0,0,128,214.69775a65.31237,65.31237,0,0,0-24.8877-16.564,38,38,0,1,0-46.2246,0,65.67606,65.67606,0,0,0-29.6875,22.26074,5.9998,5.9998,0,1,0,9.59423,7.207,54.00393,54.00393,0,0,1,86.32715-.10522,5.95918,5.95918,0,0,0,.47119.56933l.02442.02539c.124.13233.2539.26075.3916.38306.0332.03.06885.05689.103.08594.09277.0791.1831.16064.28173.23486.01758.01319.03711.02173.05518.03467a5.913,5.913,0,0,0,.68066.429c.07569.04151.15186.08057.229.11841a5.92973,5.92973,0,0,0,.70068.29493c.08008.02734.16065.04687.24121.07055a6.02591,6.02591,0,0,0,.58643.1416c.08057.01514.15967.03443.24023.04615a6.07206,6.07206,0,0,0,.75342.05908c.0376.00073.07471.00879.11231.00879.05517,0,.10986-.00782.16552-.00928.11475-.00293.229-.01025.34375-.01953.09082-.00781.18116-.01514.27149-.02686.13769-.01758.27441-.043.41113-.07031.06934-.01416.13867-.0249.20752-.04126a5.89439,5.89439,0,0,0,.57861-.16821l.03418-.01026a5.88284,5.88284,0,0,0,.59473-.24926c.06787-.03272.13281-.07178.19971-.10718.12207-.0647.24414-.13013.36279-.2041.081-.0503.15918-.106.23779-.1604.06787-.04688.13819-.08838.20508-.13843.03564-.02686.0669-.05737.102-.085.06983-.05493.1377-.11255.20508-.17114q.17065-.14649.32715-.30274c.0459-.04614.09179-.0918.13672-.13965a5.99938,5.99938,0,0,0,.38964-.45874c.00879-.012.01954-.022.02881-.03418a54.00879,54.00879,0,0,1,86.40967-.00195,5.99981,5.99981,0,0,0,9.59424-7.207A65.67822,65.67822,0,0,0,199.1123,198.13379ZM54,168a26,26,0,1,1,26,26A26.02916,26.02916,0,0,1,54,168Zm96,0a26,26,0,1,1,26,26A26.02916,26.02916,0,0,1,150,168Z"/>
</svg>
