<svg xmlns="http://www.w3.org/2000/svg" viewBox="0 0 256 256"><path d="M116.5,158.5a58,58,0,1,0-57,0,93.6,93.6,0,0,0-48.4,35.4,6,6,0,0,0,1.4,8.4,6.6,6.6,0,0,0,3.5,1.1,6.1,6.1,0,0,0,4.9-2.5,82,82,0,0,1,134.2-.1,6,6,0,0,0,8.4,1.5,6.1,6.1,0,0,0,1.4-8.4A94.4,94.4,0,0,0,116.5,158.5ZM42,108a46,46,0,1,1,46,46A46,46,0,0,1,42,108Zm203,94.3a6.6,6.6,0,0,1-3.5,1.1,5.9,5.9,0,0,1-4.9-2.6A82,82,0,0,0,169.5,166a6,6,0,0,1,0-12,46,46,0,0,0,0-92A48.3,48.3,0,0,0,157,63.7a6,6,0,1,1-3.2-11.5A55.6,55.6,0,0,1,169.5,50a58,58,0,0,1,28.6,108.5,93.8,93.8,0,0,1,48.3,35.4A6.1,6.1,0,0,1,245,202.3Z"/></svg>