<svg id="Flat" xmlns="http://www.w3.org/2000/svg" viewBox="0 0 256 256">
  <path d="M222,48V76a6,6,0,0,1-12,0V48a2.00229,2.00229,0,0,0-2-2H180a6,6,0,0,1,0-12h28A14.01572,14.01572,0,0,1,222,48Zm-6,126a6.00029,6.00029,0,0,0-6,6v28a2.00229,2.00229,0,0,1-2,2H180a6,6,0,0,0,0,12h28a14.01572,14.01572,0,0,0,14-14V180A6.00029,6.00029,0,0,0,216,174ZM76,210H48a2.00229,2.00229,0,0,1-2-2V180a6,6,0,0,0-12,0v28a14.01572,14.01572,0,0,0,14,14H76a6,6,0,0,0,0-12ZM40,82a6.00029,6.00029,0,0,0,6-6V48a2.00229,2.00229,0,0,1,2-2H76a6,6,0,0,0,0-12H48A14.01572,14.01572,0,0,0,34,48V76A6.00029,6.00029,0,0,0,40,82Zm135.7749,96.80371a54.02246,54.02246,0,0,0-95.5498,0,6,6,0,1,1-10.60938-5.60742A65.92715,65.92715,0,0,1,104.917,142.15674a38,38,0,1,1,46.166,0,65.92715,65.92715,0,0,1,35.30127,31.03955,6,6,0,1,1-10.60938,5.60742ZM128,138a26,26,0,1,0-26-26A26.02916,26.02916,0,0,0,128,138Z"/>
</svg>
