<svg id="Flat" xmlns="http://www.w3.org/2000/svg" viewBox="0 0 256 256">
  <path d="M170,56a6.00029,6.00029,0,0,1,6-6h48a6,6,0,0,1,0,12H176A6.00029,6.00029,0,0,1,170,56Zm58.58984,55.00586A103.04372,103.04372,0,0,1,230,128a101.753,101.753,0,0,1-33.23242,75.26514,5.96094,5.96094,0,0,1-1.16773,1.0459,101.78837,101.78837,0,0,1-135.196.00341,5.97316,5.97316,0,0,1-1.17676-1.0542A101.95311,101.95311,0,0,1,128,26a103.02759,103.02759,0,0,1,16.99463,1.41016,6.00025,6.00025,0,0,1-1.98633,11.835A90.08241,90.08241,0,0,0,38,128a89.67111,89.67111,0,0,0,24.48584,61.64014,77.5801,77.5801,0,0,1,40.00342-31.38477,46,46,0,1,1,51.02148,0,77.58045,77.58045,0,0,1,40.00293,31.38477A89.6704,89.6704,0,0,0,218,128a90.96715,90.96715,0,0,0-1.24512-15.00879,6.00016,6.00016,0,1,1,11.835-1.98535ZM128,154a34,34,0,1,0-34-34A34.03864,34.03864,0,0,0,128,154Zm0,64a89.56938,89.56938,0,0,0,56.5564-20.04639,66.02837,66.02837,0,0,0-113.113-.00049A89.56712,89.56712,0,0,0,128,218Z"/>
</svg>
