<svg id="Flat" xmlns="http://www.w3.org/2000/svg" viewBox="0 0 256 256">
  <path d="M159.99951,34h-64a22.02489,22.02489,0,0,0-22,22V200a22.02489,22.02489,0,0,0,22,22h64a22.02489,22.02489,0,0,0,22-22V56A22.02489,22.02489,0,0,0,159.99951,34Zm10,166a10.01177,10.01177,0,0,1-10,10h-64a10.01177,10.01177,0,0,1-10-10V56a10.01177,10.01177,0,0,1,10-10h64a10.01177,10.01177,0,0,1,10,10ZM214.00244,88v80a6,6,0,0,1-12,0V88a6,6,0,1,1,12,0Zm32,16v48a6,6,0,0,1-12,0V104a6,6,0,1,1,12,0ZM53.99951,88v80a6,6,0,0,1-12,0V88a6,6,0,0,1,12,0Zm-32,16v48a6,6,0,0,1-12,0V104a6,6,0,0,1,12,0Z"/>
</svg>
