<svg id="Flat" xmlns="http://www.w3.org/2000/svg" viewBox="0 0 256 256">
  <path d="M243.01172,74.81055a6.00434,6.00434,0,0,0-5.98828-.01953L190,101.66162V92a38.04323,38.04323,0,0,0-38-38H24A14.01572,14.01572,0,0,0,10,68v96a38.04323,38.04323,0,0,0,38,38H176a14.01572,14.01572,0,0,0,14-14V154.33838l47.02344,26.8706A5.99938,5.99938,0,0,0,246,176V80A6.00025,6.00025,0,0,0,243.01172,74.81055ZM178,188a2.0026,2.0026,0,0,1-2,2H48a26.02885,26.02885,0,0,1-26-26V68a2.0026,2.0026,0,0,1,2-2H152a26.02885,26.02885,0,0,1,26,26Zm56-22.33887-44-25.14245V115.48132l44-25.14245Z"/>
</svg>
