<svg xmlns="http://www.w3.org/2000/svg" viewBox="0 0 256 256"><path d="M243,74.8a5.9,5.9,0,0,0-6,0l-47,26.9V68a14,14,0,0,0-14-14H110.9a6,6,0,0,0,0,12H176a2,2,0,0,1,2,2v76a6.1,6.1,0,0,0,3,5.2l56,32a6,6,0,0,0,6,0,6,6,0,0,0,3-5.2V80A6,6,0,0,0,243,74.8Zm-9,90.9-44-25.2v-25l44-25.2ZM39.3,20a5.9,5.9,0,1,0-8.8,8L54.1,54H24A14,14,0,0,0,10,68V188a14,14,0,0,0,14,14H176a13.8,13.8,0,0,0,9.3-3.6L219.6,236a5.9,5.9,0,0,0,4.4,2,5.7,5.7,0,0,0,4-1.6,5.8,5.8,0,0,0,.4-8.4ZM176,190H24a2,2,0,0,1-2-2V68a2,2,0,0,1,2-2H65L177.3,189.5A2.1,2.1,0,0,1,176,190Z"/></svg>