<svg id="Flat" xmlns="http://www.w3.org/2000/svg" viewBox="0 0 256 256">
  <path d="M222.09766,167.24365a102.78339,102.78339,0,0,0,7.8728-38.6582c.01855-.19287.02954-.3877.02954-.58545,0-.14551-.01172-.28809-.02173-.43115A101.99129,101.99129,0,1,0,39.665,179a103.68045,103.68045,0,0,0,6.61352,10.05273c.06763.09375.1316.18848.20411.27784a101.2278,101.2278,0,0,0,55.11792,37.19384A102.56991,102.56991,0,0,0,128.166,230.044a102.0255,102.0255,0,0,0,93.20141-61.085A5.99543,5.99543,0,0,0,222.09766,167.24365ZM88.29565,47.23A89.30251,89.30251,0,0,1,115.666,38.85645,89.97367,89.97367,0,0,1,167.34277,122H131.46436ZM131.46436,134h86.30517a90.7417,90.7417,0,0,1-6.45141,27.9248,89.974,89.974,0,0,1-97.79322,3.147Zm74.478-51a89.44463,89.44463,0,0,1,11.84326,39h-38.4414a102.113,102.113,0,0,0-40.77539-83.333A89.91851,89.91851,0,0,1,205.94238,83ZM77.90625,53.23535l19.2251,33.29883a102.11209,102.11209,0,0,0-51.79,77.06494A90.14779,90.14779,0,0,1,77.90625,53.23535ZM56.967,183.2666a89.97558,89.97558,0,0,1,46.16528-86.33838L121.07178,128,77.91089,202.75684A89.27632,89.27632,0,0,1,56.967,183.2666ZM173,205.94238a89.98526,89.98526,0,0,1-84.68848,2.8003l19.21241-33.27686a102.11488,102.11488,0,0,0,92.62524,6.32373A89.48769,89.48769,0,0,1,173,205.94238Z"/>
</svg>
