<svg id="Flat" xmlns="http://www.w3.org/2000/svg" viewBox="0 0 256 256">
  <path d="M122,144V104a6,6,0,0,1,12,0v40a6,6,0,0,1-12,0Zm113.03516,66.98193a21.77575,21.77575,0,0,1-19.0586,11.01026H40.02344a22.00041,22.00041,0,0,1-19.041-33.021L108.96,36.979a22.00019,22.00019,0,0,1,38.08106,0L235.0166,188.97119A21.77349,21.77349,0,0,1,235.03516,210.98193Zm-10.4043-15.99951L136.65527,42.99023a10.00115,10.00115,0,0,0-17.31054,0h0L31.36816,194.98242a10.00057,10.00057,0,0,0,8.65528,15.00977H215.97656a9.99972,9.99972,0,0,0,8.6543-15.00977ZM128,170a10,10,0,1,0,10,10A9.99987,9.99987,0,0,0,128,170Z"/>
</svg>
