<svg xmlns="http://www.w3.org/2000/svg" viewBox="0 0 256 256"><path d="M122,136V80a6,6,0,0,1,12,0v56a6,6,0,0,1-12,0ZM230,91.5v72.9a13.9,13.9,0,0,1-4.1,9.9l-51.6,51.6a13.9,13.9,0,0,1-9.8,4.1h-73a14.3,14.3,0,0,1-9.9-4.1L30.1,174.3a13.9,13.9,0,0,1-4.1-9.9V91.5a14.3,14.3,0,0,1,4.1-9.9L81.7,30.1A13.9,13.9,0,0,1,91.5,26h73a14.3,14.3,0,0,1,9.9,4.1l51.5,51.5A14.3,14.3,0,0,1,230,91.5Zm-12,0a2,2,0,0,0-.6-1.4L165.9,38.6a2,2,0,0,0-1.4-.6h-73a2,2,0,0,0-1.4.6L38.6,90.1a2,2,0,0,0-.6,1.4v72.9a2,2,0,0,0,.6,1.5l51.5,51.5a2,2,0,0,0,1.4.6h73a2,2,0,0,0,1.4-.6l51.5-51.5a2,2,0,0,0,.6-1.5ZM128,162a10,10,0,1,0,10,10A10,10,0,0,0,128,162Z"/></svg>