<svg xmlns="http://www.w3.org/2000/svg" viewBox="0 0 256 256"><path d="M206,128a77.9,77.9,0,0,0-32.5-63.3l-6.4-35.2A14,14,0,0,0,153.3,18H102.7A14,14,0,0,0,88.9,29.5L82.5,64.7a77.9,77.9,0,0,0,0,126.6l6.4,35.2A14,14,0,0,0,102.7,238h50.6a14,14,0,0,0,13.8-11.5l6.4-35.2A77.9,77.9,0,0,0,206,128ZM100.7,31.6a2,2,0,0,1,2-1.6h50.6a2,2,0,0,1,2,1.6l4.6,25.2a78.2,78.2,0,0,0-63.8,0Zm54.6,192.8a2,2,0,0,1-2,1.6H102.7a2,2,0,0,1-2-1.6l-4.6-25.2a78.2,78.2,0,0,0,63.8,0ZM128,194a66,66,0,1,1,66-66A66.1,66.1,0,0,1,128,194Zm46-66a6,6,0,0,1-6,6H128a6,6,0,0,1-6-6V88a6,6,0,0,1,12,0v34h34A6,6,0,0,1,174,128Z"/></svg>