<svg id="Flat" xmlns="http://www.w3.org/2000/svg" viewBox="0 0 256 256">
  <path d="M206,128a77.933,77.933,0,0,0-32.52588-63.31293L167.0957,29.50244A13.99232,13.99232,0,0,0,153.31982,18H102.68018A13.99232,13.99232,0,0,0,88.9043,29.50244L82.52588,64.68707a77.88352,77.88352,0,0,0,0,126.62586l6.37842,35.18463A13.99232,13.99232,0,0,0,102.68018,238h50.63964a13.99232,13.99232,0,0,0,13.77588-11.50244l6.37842-35.18463A77.933,77.933,0,0,0,206,128ZM100.71191,31.64307A1.9992,1.9992,0,0,1,102.68018,30h50.63964a1.9992,1.9992,0,0,1,1.96827,1.64307l4.56543,25.1853a77.71059,77.71059,0,0,0-63.707,0Zm54.57618,192.71386A1.9992,1.9992,0,0,1,153.31982,226H102.68018a1.9992,1.9992,0,0,1-1.96827-1.64307l-4.56543-25.1853a77.71059,77.71059,0,0,0,63.707,0ZM128,194a66,66,0,1,1,66-66A66.07468,66.07468,0,0,1,128,194Zm46-66a6.00029,6.00029,0,0,1-6,6H128a6.00029,6.00029,0,0,1-6-6V88a6,6,0,0,1,12,0v34h34A6.00029,6.00029,0,0,1,174,128Z"/>
</svg>
