<svg xmlns="http://www.w3.org/2000/svg" viewBox="0 0 256 256"><path d="M35.3,75.7a6,6,0,0,1,1-8.4A79,79,0,0,1,64.5,54.2c15.8-4,40.2-4.9,66.8,12.8,43.6,29.1,79.5,1.5,81,.3a6,6,0,0,1,7.4,9.4,79,79,0,0,1-28.2,13.1,78.2,78.2,0,0,1-19.3,2.4c-13.7,0-30.1-3.6-47.5-15.2-43.6-29.1-79.5-1.5-81-.3A6,6,0,0,1,35.3,75.7Zm177,47.6c-1.5,1.2-37.4,28.8-81-.3-26.6-17.7-51-16.8-66.8-12.8a79,79,0,0,0-28.2,13.1,6,6,0,0,0,7.4,9.4c1.5-1.2,37.4-28.8,81,.3,17.4,11.6,33.8,15.2,47.5,15.2a78.2,78.2,0,0,0,19.3-2.4,79,79,0,0,0,28.2-13.1,6,6,0,0,0-7.4-9.4Zm0,56c-1.5,1.2-37.4,28.8-81-.3-26.6-17.7-51-16.8-66.8-12.8a79,79,0,0,0-28.2,13.1,6,6,0,0,0,7.4,9.4c1.5-1.2,37.4-28.8,81,.3,17.4,11.6,33.8,15.2,47.5,15.2a81.6,81.6,0,0,0,47.5-15.5,6,6,0,0,0-7.4-9.4Z"/></svg>