<svg id="Flat" xmlns="http://www.w3.org/2000/svg" viewBox="0 0 256 256">
  <path d="M35.31055,75.72852a5.99232,5.99232,0,0,1,.9414-8.41407,79.59892,79.59892,0,0,1,28.293-13.13574c15.77246-3.94043,40.1626-4.91894,66.7832,12.8291,43.60938,29.07324,79.43311,1.48633,80.9375.2959a6.00014,6.00014,0,0,1,7.48243,9.38184,79.59892,79.59892,0,0,1-28.293,13.13574,79.329,79.329,0,0,1-19.21485,2.374c-13.71289,0-30.16357-3.59961-47.56835-15.20312-43.60938-29.07129-79.4336-1.48633-80.9375-.2959A6.00889,6.00889,0,0,1,35.31055,75.72852Zm176.95507,47.57519c-1.50439,1.19043-37.32812,28.77734-80.9375-.2959-26.6206-17.748-51.01074-16.77051-66.7832-12.8291a79.59892,79.59892,0,0,0-28.293,13.13574,6.00014,6.00014,0,0,0,7.48243,9.38184c1.5039-1.18945,37.32812-28.77539,80.9375.2959,17.40478,11.60351,33.85546,15.20312,47.56835,15.20312a81.47041,81.47041,0,0,0,47.50782-15.50976,6.00014,6.00014,0,0,0-7.48243-9.38184Zm0,56c-1.50439,1.19043-37.32812,28.77637-80.9375-.2959-26.6206-17.74707-51.01074-16.77051-66.7832-12.8291a79.59892,79.59892,0,0,0-28.293,13.13574,6.00014,6.00014,0,0,0,7.48243,9.38184c1.5039-1.18945,37.32812-28.77539,80.9375.2959,17.40478,11.60351,33.85546,15.20312,47.56835,15.20312a81.47041,81.47041,0,0,0,47.50782-15.50976,6.00014,6.00014,0,0,0-7.48243-9.38184Z"/>
</svg>
