<svg xmlns="http://www.w3.org/2000/svg" viewBox="0 0 256 256"><path d="M128,26A102,102,0,0,0,39,177.8l-8.8,30.7a13.9,13.9,0,0,0,17.3,17.3L78.2,217A102,102,0,1,0,128,26Zm0,192a90,90,0,0,1-45.9-12.6,6.8,6.8,0,0,0-3.1-.8,4.4,4.4,0,0,0-1.6.2l-33.2,9.5a2,2,0,0,1-2.5-2.5l9.5-33.2a6,6,0,0,0-.6-4.7A90,90,0,1,1,128,218Zm51.5-73.2L159,133.1a14,14,0,0,0-14.1.2L132.1,141A41.4,41.4,0,0,1,115,123.9l7.7-12.8a14,14,0,0,0,.2-14.1L111.2,76.5A13,13,0,0,0,100,70a34,34,0,0,0-34,33.9A86,86,0,0,0,152,190h.1A34,34,0,0,0,186,156,13,13,0,0,0,179.5,144.8ZM152.1,178H152a74.1,74.1,0,0,1-74-74.1A22,22,0,0,1,100,82a1.2,1.2,0,0,1,.8.4l11.7,20.5a2,2,0,0,1-.1,2l-9.3,15.7a5.7,5.7,0,0,0-.4,5.5,54.6,54.6,0,0,0,27.2,27.2,5.7,5.7,0,0,0,5.5-.4l15.7-9.3a2,2,0,0,1,2-.1l20.5,11.7a1.2,1.2,0,0,1,.4.8A22,22,0,0,1,152.1,178Z"/></svg>