<svg id="Flat" xmlns="http://www.w3.org/2000/svg" viewBox="0 0 256 256">
  <path d="M128.00049,26A102.02711,102.02711,0,0,0,38.96191,177.79494L30.1875,208.50588A13.99988,13.99988,0,0,0,47.49463,225.8135l30.71142-8.77442A102.00714,102.00714,0,1,0,128.00049,26Zm0,192a89.86833,89.86833,0,0,1-45.93018-12.58691,6.00579,6.00579,0,0,0-4.71582-.61231l-33.15674,9.47364a1.999,1.999,0,0,1-2.47216-2.47168l9.47265-33.15625a5.99846,5.99846,0,0,0-.6123-4.71485A90.01123,90.01123,0,1,1,128.00049,218Zm51.50342-73.19336-20.45948-11.69238a14.01928,14.01928,0,0,0-14.14892.15137l-12.84424,7.707a42.03247,42.03247,0,0,1-17.02295-17.02344l7.70654-12.84473a14.01378,14.01378,0,0,0,.14991-14.14843l-11.69092-20.46A12.92032,12.92032,0,0,0,100,70,34.01135,34.01135,0,0,0,66,103.878,85.999,85.999,0,0,0,151.999,190h.12305A34.011,34.011,0,0,0,186,156,12.91659,12.91659,0,0,0,179.50391,144.80666ZM152.10547,178h-.106A73.99921,73.99921,0,0,1,78,103.89553,21.99412,21.99412,0,0,1,100,82a.89387.89387,0,0,1,.7749.44922l11.69141,20.46094a2.00115,2.00115,0,0,1-.02149,2.02051l-9.38916,15.64843a5.99935,5.99935,0,0,0-.32714,5.54785,54.03411,54.03411,0,0,0,27.145,27.14454,5.99652,5.99652,0,0,0,5.54785-.32715l15.64746-9.38867a2.00972,2.00972,0,0,1,2.022-.02247l20.46045,11.69239A.89366.89366,0,0,1,174,156,21.99392,21.99392,0,0,1,152.10547,178Z"/>
</svg>
