<svg id="Flat" xmlns="http://www.w3.org/2000/svg" viewBox="0 0 256 256">
  <path d="M245.57983,186.10254a6.00038,6.00038,0,0,0-7.58984-3.79443l-19.06348,6.354-29.67285-59.34522A5.999,5.999,0,0,0,183.88745,126h-82V102.05072c.66528-.0227,1.32934-.05072,2-.05072h56a6,6,0,0,0,0-12h-56c-.67066,0-1.33374.03186-2,.05072V65.29346a26,26,0,1,0-12,0V91.40863a70.00272,70.00272,0,1,0,83.86523,72.96051,5.99965,5.99965,0,1,0-11.97656-.73828,58.00108,58.00108,0,1,1-71.88867-59.91229V132a6.00029,6.00029,0,0,0,6,6h84.292l30.3418,60.68311a5.99436,5.99436,0,0,0,7.26367,3.00878l24-8A6.00012,6.00012,0,0,0,245.57983,186.10254ZM81.88745,40a14,14,0,1,1,14,14A14.01572,14.01572,0,0,1,81.88745,40Z"/>
</svg>
