<svg id="Flat" xmlns="http://www.w3.org/2000/svg" viewBox="0 0 256 256">
  <path d="M136.99219,200.00287a9,9,0,1,1-9-9A8.9999,8.9999,0,0,1,136.99219,200.00287Zm-9-53.99994A56.088,56.088,0,0,0,88.74756,161.75a5.99982,5.99982,0,1,0,8.34473,8.62305,44.77821,44.77821,0,0,1,61.7998,0,5.99982,5.99982,0,1,0,8.34473-8.62305A56.088,56.088,0,0,0,127.99219,146.00293Zm0-48A103.75188,103.75188,0,0,0,54.771,127.84326a5.99991,5.99991,0,1,0,8.415,8.55469,92.75489,92.75489,0,0,1,129.6123,0,5.99991,5.99991,0,0,0,8.415-8.55469A103.75189,103.75189,0,0,0,127.99219,98.00293Zm107.148-4.08887a152.68191,152.68191,0,0,0-214.2959,0,6.00014,6.00014,0,1,0,8.43945,8.53125,140.68105,140.68105,0,0,1,197.417,0,6.00014,6.00014,0,1,0,8.43946-8.53125Z"/>
</svg>
