<svg xmlns="http://www.w3.org/2000/svg" viewBox="0 0 256 256"><path d="M167.2,161.7a6,6,0,0,1,.2,8.5,5.9,5.9,0,0,1-4.3,1.9,6.3,6.3,0,0,1-4.2-1.7,44.7,44.7,0,0,0-61.8,0,6,6,0,1,1-8.3-8.7,56.8,56.8,0,0,1,78.4,0ZM128,98a103.7,103.7,0,0,0-73.2,29.8,6,6,0,0,0,8.4,8.6,92.7,92.7,0,0,1,129.6,0,6.3,6.3,0,0,0,4.2,1.7,6,6,0,0,0,4.2-10.3A103.7,103.7,0,0,0,128,98Zm107.1-4.1a152.6,152.6,0,0,0-214.2,0,6,6,0,0,0-.1,8.5,5.9,5.9,0,0,0,8.5,0,140.8,140.8,0,0,1,197.4,0,5.9,5.9,0,0,0,8.5,0A6,6,0,0,0,235.1,93.9ZM128,190a10,10,0,1,0,10,10A10,10,0,0,0,128,190Z"/></svg>