<svg id="Flat" xmlns="http://www.w3.org/2000/svg" viewBox="0 0 256 256">
  <path d="M167.2373,161.75a6.00016,6.00016,0,0,1-8.3457,8.62305,44.777,44.777,0,0,0-61.79883,0,6.00016,6.00016,0,0,1-8.3457-8.62305,56.77721,56.77721,0,0,1,78.49023,0ZM208.48486,80l19.75782-19.75781a5.99971,5.99971,0,0,0-8.48536-8.48438L200,71.51514,180.24268,51.75781a5.99971,5.99971,0,0,0-8.48536,8.48438L191.51514,80,171.75732,99.75781a5.99971,5.99971,0,1,0,8.48536,8.48438L200,88.48486l19.75732,19.75733a5.99971,5.99971,0,0,0,8.48536-8.48438Zm-65.123-17.1709a5.9997,5.9997,0,1,0,1.2915-11.92969,155.41491,155.41491,0,0,0-16.66113-.89648A151.37265,151.37265,0,0,0,20.84424,93.91406a6.00014,6.00014,0,0,0,8.43945,8.53125,139.44181,139.44181,0,0,1,98.7085-40.44238A143.5275,143.5275,0,0,1,143.36182,62.8291Zm-.30225,48.38379a5.99957,5.99957,0,1,0,1.92481-11.84375,106.2409,106.2409,0,0,0-16.99219-1.36621A103.7494,103.7494,0,0,0,54.771,127.84375a5.99991,5.99991,0,1,0,8.415,8.55469,91.81815,91.81815,0,0,1,64.80615-26.39551A94.25223,94.25223,0,0,1,143.05957,111.21289ZM128,190a10,10,0,1,0,10,10A10.01146,10.01146,0,0,0,128,190Z"/>
</svg>
