<svg id="Flat" xmlns="http://www.w3.org/2000/svg" viewBox="0 0 256 256">
  <path d="M212.42773,211.96387a5.99992,5.99992,0,1,1-8.8789,8.07226L156.355,168.12305a44.8057,44.8057,0,0,0-59.27393,2.25,6.00016,6.00016,0,0,1-8.3457-8.62305,56.08963,56.08963,0,0,1,39.24512-15.74707,57.17369,57.17369,0,0,1,8.91162.71094l-30.98364-34.082a91.65943,91.65943,0,0,0-42.73413,23.7666,5.99991,5.99991,0,1,1-8.415-8.55469,103.5752,103.5752,0,0,1,42.1145-25.15015L70.84692,74.064A139.06417,139.06417,0,0,0,29.272,102.44531a6.00014,6.00014,0,1,1-8.43945-8.53125A150.98008,150.98008,0,0,1,62.37988,64.75049l-18.831-20.71436a5.99992,5.99992,0,1,1,8.8789-8.07226ZM235.12842,93.91406A151.37267,151.37267,0,0,0,127.98047,50.00293a154.9817,154.9817,0,0,0-21.70508,1.52734,5.99991,5.99991,0,1,0,1.68555,11.88086,142.9675,142.9675,0,0,1,20.01953-1.4082A139.44177,139.44177,0,0,1,226.689,102.44531a6.00014,6.00014,0,1,0,8.43946-8.53125Zm-42.3418,42.48438a5.99991,5.99991,0,1,0,8.415-8.55469,103.9337,103.9337,0,0,0-47.63818-26.70508,5.99956,5.99956,0,1,0-2.91114,11.64063A91.92737,91.92737,0,0,1,192.78662,136.39844ZM127.98242,190a10,10,0,1,0,10,10A10.01146,10.01146,0,0,0,127.98242,190Z"/>
</svg>
