<svg id="Flat" xmlns="http://www.w3.org/2000/svg" viewBox="0 0 256 256">
  <path d="M167.23682,161.75a5.99982,5.99982,0,1,1-8.34473,8.62305,44.77821,44.77821,0,0,0-61.7998,0A5.99982,5.99982,0,1,1,88.74756,161.75a56.776,56.776,0,0,1,78.48926,0ZM127.99219,98.00293A103.75188,103.75188,0,0,0,54.771,127.84326a5.99991,5.99991,0,1,0,8.415,8.55469,92.75489,92.75489,0,0,1,129.6123,0,5.99991,5.99991,0,0,0,8.415-8.55469A103.75189,103.75189,0,0,0,127.99219,98.00293Zm107.148-4.08887a152.68191,152.68191,0,0,0-214.2959,0,6.00014,6.00014,0,1,0,8.43945,8.53125,140.68105,140.68105,0,0,1,197.417,0,6.00014,6.00014,0,1,0,8.43946-8.53125ZM128,190a10,10,0,1,0,10,10A10.01146,10.01146,0,0,0,128,190Z"/>
</svg>
