<svg id="Flat" xmlns="http://www.w3.org/2000/svg" viewBox="0 0 256 256">
  <path d="M136.99219,200.00293a9,9,0,1,1-9-9A9,9,0,0,1,136.99219,200.00293Zm-9-54A56.08963,56.08963,0,0,0,88.74707,161.75a6.00016,6.00016,0,0,0,8.3457,8.62305,44.777,44.777,0,0,1,61.79883,0,6.00016,6.00016,0,1,0,8.3457-8.62305A56.08959,56.08959,0,0,0,127.99219,146.00293ZM208.479,80l19.75782-19.75781a5.99971,5.99971,0,1,0-8.48536-8.48438L199.99414,71.51514,180.23682,51.75781a5.99971,5.99971,0,0,0-8.48536,8.48438L191.50928,80,171.75146,99.75781a5.99971,5.99971,0,1,0,8.48536,8.48438l19.75732-19.75733,19.75732,19.75733a5.99971,5.99971,0,1,0,8.48536-8.48438ZM143.36182,62.8291a5.9997,5.9997,0,1,0,1.2915-11.92969,155.41491,155.41491,0,0,0-16.66113-.89648A151.37265,151.37265,0,0,0,20.84424,93.91406a6.00014,6.00014,0,0,0,8.43945,8.53125,139.44181,139.44181,0,0,1,98.7085-40.44238A143.5275,143.5275,0,0,1,143.36182,62.8291Zm-.30225,48.38379a5.99957,5.99957,0,1,0,1.92481-11.84375,106.2409,106.2409,0,0,0-16.99219-1.36621A103.7494,103.7494,0,0,0,54.771,127.84375a5.99991,5.99991,0,1,0,8.415,8.55469,91.81815,91.81815,0,0,1,64.80615-26.39551A94.25223,94.25223,0,0,1,143.05957,111.21289Z"/>
</svg>
