<svg id="Flat" xmlns="http://www.w3.org/2000/svg" viewBox="0 0 256 256">
  <path d="M136.99219,200.00287a9,9,0,1,1-9-9A8.9999,8.9999,0,0,1,136.99219,200.00287Zm-9-53.99994a56.08964,56.08964,0,0,0-39.24512,15.74756,6.00016,6.00016,0,0,0,8.3457,8.623,44.77572,44.77572,0,0,1,61.79883,0,6.00016,6.00016,0,1,0,8.3457-8.623A56.08963,56.08963,0,0,0,127.99219,146.00293Zm73.22119-18.15967a104.754,104.754,0,0,0-146.44238,0,5.99991,5.99991,0,1,0,8.415,8.55469,92.75489,92.75489,0,0,1,129.6123,0,5.99991,5.99991,0,0,0,8.415-8.55469Z"/>
</svg>
