<svg xmlns="http://www.w3.org/2000/svg" viewBox="0 0 256 256"><path d="M212.4,212a5.8,5.8,0,0,1-.4,8.4,5.7,5.7,0,0,1-4,1.6,6,6,0,0,1-4.4-2l-47.2-51.9A44.8,44.8,0,0,0,128,158a44,44,0,0,0-30.9,12.4,6.3,6.3,0,0,1-4.2,1.7,6,6,0,0,1-4.1-10.3A55.7,55.7,0,0,1,128,146a65.4,65.4,0,0,1,8.9.7l-31-34.1a92.5,92.5,0,0,0-42.7,23.8,6.3,6.3,0,0,1-4.2,1.7,6,6,0,0,1-4.2-10.3,104.8,104.8,0,0,1,42.1-25.1l-26-28.6a138.8,138.8,0,0,0-41.6,28.3,5.9,5.9,0,0,1-8.5,0,6,6,0,0,1,.1-8.5A148.1,148.1,0,0,1,62.4,64.8L43.6,44a5.9,5.9,0,0,1,8.8-8ZM235.1,93.9A151.2,151.2,0,0,0,128,50a156.1,156.1,0,0,0-21.7,1.5A6,6,0,1,0,108,63.4,148.3,148.3,0,0,1,128,62a139.8,139.8,0,0,1,98.7,40.4,5.9,5.9,0,0,0,8.5,0A6,6,0,0,0,235.1,93.9Zm-42.3,42.5a6.3,6.3,0,0,0,4.2,1.7,6,6,0,0,0,4.2-10.3,104.4,104.4,0,0,0-47.6-26.7,6,6,0,1,0-2.9,11.7A91.9,91.9,0,0,1,192.8,136.4ZM128,190a10,10,0,1,0,10,10A10,10,0,0,0,128,190Z"/></svg>