<svg xmlns="http://www.w3.org/2000/svg" viewBox="0 0 256 256"><path d="M167.2,161.8a6,6,0,0,1-4.1,10.3,6.3,6.3,0,0,1-4.2-1.7,44.7,44.7,0,0,0-61.8,0,6,6,0,0,1-8.4-8.6,56.7,56.7,0,0,1,78.5,0ZM208.5,80l19.7-19.8a5.9,5.9,0,0,0-8.4-8.4L200,71.5,180.2,51.8a5.9,5.9,0,0,0-8.4,8.4L191.5,80,171.8,99.8a5.9,5.9,0,1,0,8.4,8.4L200,88.5l19.8,19.7a5.9,5.9,0,1,0,8.4-8.4ZM143.4,62.8a6,6,0,0,0,6.6-5.3,6.1,6.1,0,0,0-5.3-6.6A154.3,154.3,0,0,0,128,50,151.6,151.6,0,0,0,20.8,93.9a6.1,6.1,0,0,0,0,8.5,5.9,5.9,0,0,0,8.5,0A139.6,139.6,0,0,1,128,62C133.1,62,138.3,62.3,143.4,62.8Zm-.3,48.4A6,6,0,0,0,145,99.4,107.3,107.3,0,0,0,128,98a103.7,103.7,0,0,0-73.2,29.8A6,6,0,0,0,59,138.1a6.3,6.3,0,0,0,4.2-1.7A91.9,91.9,0,0,1,128,110,96.1,96.1,0,0,1,143.1,111.2ZM128,190a10,10,0,1,0,10,10A10,10,0,0,0,128,190Z"/></svg>