<svg id="Flat" xmlns="http://www.w3.org/2000/svg" viewBox="0 0 256 256">
  <path d="M182,184a30.00394,30.00394,0,0,1-58.14258,10.41016,5.99979,5.99979,0,1,1,11.25391-4.16407A18.00293,18.00293,0,1,0,152,166H40a6,6,0,0,1,0-12H152A30.03406,30.03406,0,0,1,182,184ZM150,72A30.00394,30.00394,0,0,0,91.85742,61.58984a5.99979,5.99979,0,1,0,11.25391,4.16407A18.00293,18.00293,0,1,1,120,90H24a6,6,0,0,0,0,12h96A30.03406,30.03406,0,0,0,150,72Zm58,2a30.12256,30.12256,0,0,0-28.14258,19.58984,5.99979,5.99979,0,0,0,11.25391,4.16407A18.00293,18.00293,0,1,1,208,122H32a6,6,0,0,0,0,12H208a30,30,0,0,0,0-60Z"/>
</svg>
