<svg xmlns="http://www.w3.org/2000/svg" viewBox="0 0 256 256"><path d="M216,138H136a6,6,0,0,0-6,6v57.5a6.1,6.1,0,0,0,4.9,5.9l80,14.5H216a5.7,5.7,0,0,0,3.8-1.4A5.8,5.8,0,0,0,222,216V144A6,6,0,0,0,216,138Zm-6,70.8-68-12.4V150h68ZM104,138H40a6,6,0,0,0-6,6v40a6,6,0,0,0,4.9,5.9l64,11.6H104a5.3,5.3,0,0,0,3.8-1.4,5.8,5.8,0,0,0,2.2-4.6V144A6,6,0,0,0,104,138Zm-6,50.4L46,179V150H98Zm121.8-153a6.1,6.1,0,0,0-4.9-1.3l-80,14.5a6.1,6.1,0,0,0-4.9,5.9V112a6,6,0,0,0,6,6h80a6,6,0,0,0,6-6V40A5.8,5.8,0,0,0,219.8,35.4ZM210,106H142V59.6l68-12.4ZM107.8,55.8a5.4,5.4,0,0,0-4.9-1.3l-64,11.6A6,6,0,0,0,34,72v40a6,6,0,0,0,6,6h64a6,6,0,0,0,6-6V60.4A5.8,5.8,0,0,0,107.8,55.8ZM98,106H46V77l52-9.4Z"/></svg>