<svg id="Flat" xmlns="http://www.w3.org/2000/svg" viewBox="0 0 256 256">
  <path d="M216,138H136a6.00029,6.00029,0,0,0-6,6v57.45459a6.0002,6.0002,0,0,0,4.92676,5.90332l80,14.54541A6.00048,6.00048,0,0,0,222,216V144A6.00029,6.00029,0,0,0,216,138Zm-6,70.81055-68-12.36328V150h68ZM104,138H40a6.00029,6.00029,0,0,0-6,6v40a6.00019,6.00019,0,0,0,4.92676,5.90332l64,11.63672A6.00048,6.00048,0,0,0,110,195.63674V144A6.00029,6.00029,0,0,0,104,138Zm-6,50.44727L46,178.9927V150H98ZM219.84424,35.39358a6.00384,6.00384,0,0,0-4.91748-1.29688l-80,14.54541A6.0002,6.0002,0,0,0,130,54.54543V112a6.00029,6.00029,0,0,0,6,6h80a6.00029,6.00029,0,0,0,6-6V40A5.99844,5.99844,0,0,0,219.84424,35.39358ZM210,106H142V59.55276l68-12.36329ZM107.84424,55.75686A6.002,6.002,0,0,0,102.92676,54.46l-64,11.63672A6.00021,6.00021,0,0,0,34,72v40a6.00029,6.00029,0,0,0,6,6h64a6.00029,6.00029,0,0,0,6-6V60.3633A5.99994,5.99994,0,0,0,107.84424,55.75686ZM98,106H46V77.00735l52-9.45459Z"/>
</svg>
