<svg xmlns="http://www.w3.org/2000/svg" viewBox="0 0 256 256"><path d="M207.8,110.6l-26-88.3A6.1,6.1,0,0,0,176,18H80a6.1,6.1,0,0,0-5.8,4.3l-26,88.3a29.8,29.8,0,0,0,1.4,20.8A86.3,86.3,0,0,0,122,181.8V226H88a6,6,0,0,0,0,12h80a6,6,0,0,0,0-12H134V181.8a86.3,86.3,0,0,0,72.4-50.4A29.8,29.8,0,0,0,207.8,110.6ZM84.5,30h87l21.8,73.6c-10.7,4.9-32.3,10.2-62.6-5-27.8-13.8-49.5-12.7-64-8.5Zm111,96.5a74.1,74.1,0,0,1-135,0,18.5,18.5,0,0,1-.8-12.5l2.8-9.5c11.2-5.3,32.6-10.2,62.8,4.9,16.9,8.4,31.7,11.3,43.8,11.3a71.3,71.3,0,0,0,27.5-5.4A18.7,18.7,0,0,1,195.5,126.5Z"/></svg>