<svg id="Flat" xmlns="http://www.w3.org/2000/svg" viewBox="0 0 256 256">
  <path d="M207.8125,110.5791,181.75488,22.30127A6.00108,6.00108,0,0,0,176,18H80a6.00049,6.00049,0,0,0-5.75439,4.30127L48.1875,110.58008a29.98273,29.98273,0,0,0,1.42578,20.84472A86.22728,86.22728,0,0,0,122,181.78516V226H88a6,6,0,0,0,0,12h80a6,6,0,0,0,0-12H134V181.78516a86.2278,86.2278,0,0,0,72.38672-50.36084A29.98119,29.98119,0,0,0,207.8125,110.5791ZM84.48486,30h87.03028l21.73535,73.63379c-10.66065,4.89844-32.228,10.16943-62.5669-5.00049-27.75927-13.87939-49.51855-12.75-63.93847-8.53516ZM195.4541,126.47656a74.03322,74.03322,0,0,1-134.9082.00049,17.98174,17.98174,0,0,1-.84961-12.5l2.8042-9.49853c11.16308-5.2295,32.58984-10.2251,62.8164,4.88769,16.92041,8.46094,31.64307,11.294,43.77784,11.293a70.31468,70.31468,0,0,0,27.52441-5.40625A17.95365,17.95365,0,0,1,195.4541,126.47656Z"/>
</svg>
