<svg xmlns="http://www.w3.org/2000/svg" viewBox="0 0 256 256"><path d="M224.5,68.7a6,6,0,0,0-3.5-3.3,6.2,6.2,0,0,0-4.8.2,5.7,5.7,0,0,0-1.5,1.2L175,106.5l-21.2-4.3L149.5,81l39.7-39.7a4.8,4.8,0,0,0,1.2-1.6,5.9,5.9,0,0,0,.2-4.7,6,6,0,0,0-3.3-3.5,70,70,0,0,0-90.8,94l-61.4,53-.3.3a30,30,0,0,0,0,42.4,29.9,29.9,0,0,0,42.4,0l.3-.3,53-61.4a70,70,0,0,0,94-90.8ZM201,137a58.3,58.3,0,0,1-68.9,9.9,6,6,0,0,0-7.6,1.2L68.6,212.9a18,18,0,0,1-25.5-25.5l64.8-55.9a6.1,6.1,0,0,0,1.3-7.5,58,58,0,0,1,64.7-84.3L138.8,74.8a6.3,6.3,0,0,0-1.7,5.4l5.7,28.3a6,6,0,0,0,4.7,4.7l28.3,5.7a6.3,6.3,0,0,0,5.4-1.7l35.1-35.1A57.6,57.6,0,0,1,201,137Z"/></svg>