<svg id="Flat" xmlns="http://www.w3.org/2000/svg" viewBox="0 0 256 256">
  <path d="M224.46094,68.666a6.00365,6.00365,0,0,0-9.771-1.89942L174.99854,106.457l-21.2129-4.24219L149.54248,81.001l39.69141-39.69141a6.00074,6.00074,0,0,0-1.89991-9.77051,70.02484,70.02484,0,0,0-90.84521,93.93067L35.10742,178.48828q-.16626.14355-.3208.29883a30.00026,30.00026,0,0,0,42.42676,42.42676q.15455-.15528.29785-.32129l53.01758-61.37988A70.02674,70.02674,0,0,0,224.46094,68.666Zm-23.44873,68.3457a58.25934,58.25934,0,0,1-68.88721,9.87012,6.00081,6.00081,0,0,0-7.60889,1.23437L68.583,212.87109a17.99991,17.99991,0,0,1-25.4541-25.4541l64.75244-55.93164a6.00081,6.00081,0,0,0,1.3291-7.44433,58.03637,58.03637,0,0,1,64.69726-84.376L138.78662,74.78711a5.99883,5.99883,0,0,0-1.64062,5.41894l5.65722,28.28418a6.00128,6.00128,0,0,0,4.70655,4.707l28.28418,5.65722a6.00308,6.00308,0,0,0,5.41943-1.6416L216.33447,82.0918A57.74423,57.74423,0,0,1,201.01221,137.01172Z"/>
</svg>
