<svg id="Flat" xmlns="http://www.w3.org/2000/svg" viewBox="0 0 256 256">
  <path d="M164.2417,100.2428l-27.75732,27.75732,27.75732,27.75733a5.99971,5.99971,0,1,1-8.48438,8.48535L127.99951,136.485,100.2417,164.2428a5.99971,5.99971,0,0,1-8.48438-8.48535l27.75733-27.75733L91.75732,100.2428a5.99971,5.99971,0,1,1,8.48438-8.48535l27.75781,27.75781,27.75781-27.75781a5.99971,5.99971,0,0,1,8.48438,8.48535Zm57.75781-52.24268v160a14.01572,14.01572,0,0,1-14,14h-160a14.01573,14.01573,0,0,1-14-14v-160a14.01573,14.01573,0,0,1,14-14h160A14.01572,14.01572,0,0,1,221.99951,48.00012Zm-12,0a2.00229,2.00229,0,0,0-2-2h-160a2.00229,2.00229,0,0,0-2,2v160a2.00229,2.00229,0,0,0,2,2h160a2.00229,2.00229,0,0,0,2-2Z"/>
</svg>
