<svg id="Flat" xmlns="http://www.w3.org/2000/svg" viewBox="0 0 256 256">
  <path d="M163.32812,123.00781l-48-32A5.99992,5.99992,0,0,0,106,96v64a5.99981,5.99981,0,0,0,9.32812,4.99219l48-32a5.99969,5.99969,0,0,0,0-9.98438ZM118,148.78906V107.21094L149.18359,128ZM232.39551,70.30127A21.961,21.961,0,0,0,219.1084,55.31836c-34.14258-13.12012-88.834-12.91455-91.07031-12.91065-2.31055-.00683-57.00391-.20947-91.146,12.91065A21.95922,21.95922,0,0,0,23.605,70.30078C21.04785,80.11816,18,98.09766,18,128c0,29.90332,3.04785,47.88184,5.60449,57.69873A21.961,21.961,0,0,0,36.8916,200.68164c34.14258,13.12061,88.833,12.9209,91.07031,12.91065.11329.00048.35157.002.708.002,6.91455,0,57.96924-.43506,90.438-12.9126A21.95922,21.95922,0,0,0,232.395,185.69922C234.95215,175.88184,238,157.90283,238,128,238,98.09766,234.95215,80.11865,232.39551,70.30127ZM220.78223,182.6748a9.93508,9.93508,0,0,1-5.97852,6.80567c-32.01416,12.30224-86.22021,12.12891-86.84131,12.11182-.5459.01123-54.75244.18994-86.76611-12.11182a9.93549,9.93549,0,0,1-5.979-6.80615C32.8374,173.53613,30,156.63281,30,128c0-28.63184,2.8374-45.53564,5.21777-54.6748a9.93508,9.93508,0,0,1,5.97852-6.80567c32.01465-12.30224,86.22168-12.127,86.84131-12.11182.54248-.02,54.75293-.19042,86.76611,12.11182a9.93376,9.93376,0,0,1,5.97852,6.80615C223.16309,82.46436,226,99.36816,226,128,226,156.63232,223.1626,173.53613,220.78223,182.6748Z"/>
</svg>
