<svg xmlns="http://www.w3.org/2000/svg" viewBox="0 0 256 256"><path d="M163.3,123l-48-32a6,6,0,0,0-9.3,5v64a6,6,0,0,0,3.2,5.3,5.9,5.9,0,0,0,6.1-.3l48-32a6,6,0,0,0,0-10ZM118,148.8V107.2L149.2,128ZM232.4,70.3a22,22,0,0,0-13.3-15C185,42.2,130.3,42.4,128,42.4s-57-.2-91.1,12.9a22,22,0,0,0-13.3,15C21,80.1,18,98.1,18,128s3,47.9,5.6,57.7a22,22,0,0,0,13.3,15c34.1,13.1,88.8,12.9,91.1,12.9h.7c6.9,0,57.9-.4,90.4-12.9a22,22,0,0,0,13.3-15c2.6-9.8,5.6-27.8,5.6-57.7S235,80.1,232.4,70.3ZM220.8,182.7a10,10,0,0,1-6,6.8c-32,12.3-86.2,12.1-86.8,12.1s-54.8.2-86.8-12.1a10,10,0,0,1-6-6.8C32.8,173.5,30,156.6,30,128s2.8-45.5,5.2-54.7a10,10,0,0,1,6-6.8c32-12.3,86.2-12.1,86.8-12.1s54.8-.2,86.8,12.1a10,10,0,0,1,6,6.8c2.4,9.2,5.2,26.1,5.2,54.7S223.2,173.5,220.8,182.7Z"/></svg>