<svg id="Flat" xmlns="http://www.w3.org/2000/svg" viewBox="0 0 256 256">
  <path d="M228.69824,67.05908C226.897,55.71533,216.124,45.41943,204.65137,44.10449a707.50644,707.50644,0,0,0-153.33448.00342c-11.438,1.311-22.21093,11.606-24.0205,22.98486a402.51167,402.51167,0,0,0,.00537,121.84912C29.10547,200.28662,39.87891,210.582,51.34863,211.895A706.45765,706.45765,0,0,0,128,216.06055a706.45765,706.45765,0,0,0,76.65137-4.16553l.03076-.00342c11.43994-1.30859,22.21338-11.60449,24.02148-22.98437A402.5053,402.5053,0,0,0,228.69824,67.05908ZM216.84668,187.05859c-.96191,6.0542-7.4043,12.20508-13.52051,12.91016a695.32811,695.32811,0,0,1-150.64355.001c-6.11817-.70069-12.56641-6.855-13.52393-12.877a390.407,390.407,0,0,1-.00537-118.15039c.96289-6.05664,7.41211-12.21142,13.49805-12.90918a695.38044,695.38044,0,0,1,150.665-.00341c6.12011.70166,12.56836,6.85546,13.5249,12.87744A390.41336,390.41336,0,0,1,216.84668,187.05859Zm-53.51856-64.05078-48-32A5.99992,5.99992,0,0,0,106,96v64a5.99981,5.99981,0,0,0,9.32812,4.99219l48-32a5.99969,5.99969,0,0,0,0-9.98438ZM118,148.78906V107.21094L149.18359,128Z"/>
</svg>
