<svg id="Flat" xmlns="http://www.w3.org/2000/svg" viewBox="0 0 256 256">
  <path d="M216.27807,84.71582A32.00057,32.00057,0,0,0,169.26,41.37207a8.07615,8.07615,0,0,0-.97119,1.1748l-26.605,28.13965L58.62133,40.48145a8.00213,8.00213,0,0,0-8.39062,1.86132l-24,24A8.00026,8.00026,0,0,0,27.45,78.65625l63.88037,42.58691L76.574,136H55.88745a8.00035,8.00035,0,0,0-5.65674,2.34277l-24,24a8.00044,8.00044,0,0,0,3.09277,13.23535L67.38794,188.457l12.92334,38.11231a8.00022,8.00022,0,0,0,13.23291,3.08789l24-24A8.0008,8.0008,0,0,0,119.88745,200V179.54l14.77-13.41895L177.282,228.5127a7.99924,7.99924,0,0,0,12.26221,1.14453l24-24a8.00184,8.00184,0,0,0,1.86181-8.39161l-30.19824-83.043,29.80762-27.98829A8.03256,8.03256,0,0,0,216.27807,84.71582Zm-13.07715-9.40137q-.23583.23585-.44873.48633L170.41137,106.168a8.001,8.001,0,0,0-2.04248,8.5664l30.25879,83.21094-13.57617,13.57715L142.6853,149.50781a7.99994,7.99994,0,0,0-5.67188-3.43261,7.90249,7.90249,0,0,0-.93408-.05469,8.00191,8.00191,0,0,0-5.37939,2.0791L106.50757,170.0791A7.9996,7.9996,0,0,0,103.88745,176v20.68652L91.33081,209.24316l-10.05957-29.667a8.002,8.002,0,0,0-5.01221-5.00879L46.65112,164.5498,59.20092,152H79.88745a8.00035,8.00035,0,0,0,5.65674-2.34277l24-24a8.00026,8.00026,0,0,0-1.21924-12.31348L44.44458,70.75684,57.94165,57.25977l83.21191,30.25878a8.00017,8.00017,0,0,0,8.54688-2.02246L181.41089,51.957q.10692-.11279.208-.22851a16.0007,16.0007,0,0,1,21.582,23.58593Z"/>
</svg>
