<svg id="Flat" xmlns="http://www.w3.org/2000/svg" viewBox="0 0 256 256">
  <path d="M134.07666,154.794a8.0003,8.0003,0,0,0-12.14844-.00049l-48.00293,56A8,8,0,0,0,79.99951,224h96a8.00032,8.00032,0,0,0,6.07422-13.20605ZM97.394,208l30.6084-35.70752L158.606,208ZM231.99951,64V176a24.0275,24.0275,0,0,1-24,24h-16a8,8,0,0,1,0-16h16a8.00917,8.00917,0,0,0,8-8V64a8.00917,8.00917,0,0,0-8-8h-160a8.00917,8.00917,0,0,0-8,8V176a8.00917,8.00917,0,0,0,8,8h16a8,8,0,0,1,0,16h-16a24.0275,24.0275,0,0,1-24-24V64a24.0275,24.0275,0,0,1,24-24h160A24.0275,24.0275,0,0,1,231.99951,64Z"/>
</svg>
