<svg xmlns="http://www.w3.org/2000/svg" viewBox="0 0 256 256"><path d="M176,216a8,8,0,0,1-8,8H24a8,8,0,0,1,0-16H168A8,8,0,0,1,176,216ZM251.9,93.4a8.2,8.2,0,0,1-3.9,5.5l-151.4,88a39.6,39.6,0,0,1-47.4-5.4L11.5,146.2h0a15.9,15.9,0,0,1-4.9-14.4,16.2,16.2,0,0,1,9.5-12l16.7-7.2a8.8,8.8,0,0,1,6.4,0l24.3,10.5,14.9-8.6L55.9,94.3a16.1,16.1,0,0,1,4.4-26.6l16.5-7.1a8.6,8.6,0,0,1,5.7-.2l56.6,18.9L180.3,55a39.8,39.8,0,0,1,51.3,9.2l18.6,22.7A8,8,0,0,1,251.9,93.4Zm-20-3.6L219.2,74.3a24,24,0,0,0-30.8-5.5L144.1,94.9a8,8,0,0,1-6.6.7l-57.1-19L66.7,82.4l30.7,27.7a8.2,8.2,0,0,1,2.6,6.8,8,8,0,0,1-4,6l-28,16a8.3,8.3,0,0,1-7.2.5L36,128.7l-13.6,5.8,37.7,35.4a23.8,23.8,0,0,0,28.5,3.2Z"/></svg>