<svg id="Flat" xmlns="http://www.w3.org/2000/svg" viewBox="0 0 256 256">
  <path d="M47.99414,39.99512v176a8,8,0,0,1-16,0v-176a8,8,0,0,1,16,0ZM64,104V64A16.01833,16.01833,0,0,1,80,48h96a16.01833,16.01833,0,0,1,16,16v40a16.01833,16.01833,0,0,1-16,16H80A16.01833,16.01833,0,0,1,64,104Zm16,0h96l.01025-.00049L176,64H80Zm152,48v40a16.01833,16.01833,0,0,1-16,16H80a16.01833,16.01833,0,0,1-16-16V152a16.01833,16.01833,0,0,1,16-16H216A16.01833,16.01833,0,0,1,232,152Zm-15.98975,39.99951L216,152H80v40H216Z"/>
</svg>
