<svg id="Flat" xmlns="http://www.w3.org/2000/svg" viewBox="0 0 256 256">
  <path d="M224.00488,120H208V72a16.01833,16.01833,0,0,0-16-16H152a16.01833,16.01833,0,0,0-16,16v48H120V48a16.01833,16.01833,0,0,0-16-16H64A16.01833,16.01833,0,0,0,48,48v72H32.00488a8,8,0,0,0,0,16H48v72a16.01833,16.01833,0,0,0,16,16h40a16.01833,16.01833,0,0,0,16-16V136h16v48a16.01833,16.01833,0,0,0,16,16h40a16.01833,16.01833,0,0,0,16-16V136h16.00488a8,8,0,0,0,0-16ZM104,208l-39.99951.00977L64,208V128.09668c.00049-.03253.00488-.064.00488-.09668s-.00439-.06415-.00488-.09668V48h40Zm88-24-39.99951.00977L152,184V128.09668c.00049-.03253.00488-.064.00488-.09668s-.00439-.06415-.00488-.09668V72h40Z"/>
</svg>
