<svg id="Flat" xmlns="http://www.w3.org/2000/svg" viewBox="0 0 256 256">
  <path d="M224.00488,39.99414a7.99977,7.99977,0,0,1-8,8h-176a8,8,0,0,1,0-16h176A7.99977,7.99977,0,0,1,224.00488,39.99414ZM208,80v96a16.01833,16.01833,0,0,1-16,16H152a16.01833,16.01833,0,0,1-16-16V80a16.01833,16.01833,0,0,1,16-16h40A16.01833,16.01833,0,0,1,208,80Zm-16,0H152v96l.00049.01025L192,176Zm-72,0V216a16.01833,16.01833,0,0,1-16,16H64a16.01833,16.01833,0,0,1-16-16V80A16.01833,16.01833,0,0,1,64,64h40A16.01833,16.01833,0,0,1,120,80Zm-16,0H64V216l.00049.01025L104,216Z"/>
</svg>
