<svg id="Flat" xmlns="http://www.w3.org/2000/svg" viewBox="0 0 256 256">
  <path d="M176,156a12,12,0,1,1-12-12A12,12,0,0,1,176,156ZM92,144a12,12,0,1,0,12,12A12,12,0,0,0,92,144Zm148,24v24a16.01833,16.01833,0,0,1-16,16H32a16.01833,16.01833,0,0,1-16-16V169.12893a113.38256,113.38256,0,0,1,35.40283-82.4126L26.34326,61.65676A7.99984,7.99984,0,0,1,37.65674,50.34328L63.81836,76.50442a111.42476,111.42476,0,0,1,128.55542-.1919l25.96948-25.96924a7.99984,7.99984,0,0,1,11.31348,11.31348L204.81689,86.49709q1.132,1.0686,2.24122,2.16895A111.25215,111.25215,0,0,1,240,168Zm-16,0a95.357,95.357,0,0,0-28.23633-68.00049,97.75167,97.75167,0,0,0-7.61572-6.82812c-.05029-.03955-.10083-.07862-.15039-.12012A95.25585,95.25585,0,0,0,128.002,72c-.11425,0-.22754,0-.34179.00049C74.91309,72.18313,32,115.7549,32,169.12893V192l.00049.01026L224,192Z"/>
</svg>
