<svg xmlns="http://www.w3.org/2000/svg" viewBox="0 0 256 256"><path d="M176,156a12,12,0,1,1-12-12A12,12,0,0,1,176,156ZM92,144a12,12,0,1,0,12,12A12,12,0,0,0,92,144Zm148,24v24a16,16,0,0,1-16,16H32a16,16,0,0,1-16-16V169.1A113.4,113.4,0,0,1,51.4,86.7l-25.1-25A8.1,8.1,0,0,1,37.7,50.3L63.8,76.5a111.5,111.5,0,0,1,128.6-.2l25.9-26a8.1,8.1,0,0,1,11.4,11.4L204.8,86.5l2.3,2.2A111.2,111.2,0,0,1,240,168Zm-16,0a95.3,95.3,0,0,0-28.2-68,98.5,98.5,0,0,0-7.7-6.8.1.1,0,0,0-.1-.1A95,95,0,0,0,128,72h-.3C74.9,72.2,32,115.8,32,169.1V192H224Z"/></svg>