<svg id="Flat" xmlns="http://www.w3.org/2000/svg" viewBox="0 0 256 256">
  <path d="M88,84a12,12,0,1,1,12,12A12,12,0,0,1,88,84Zm68,12a12,12,0,1,0-12-12A12,12,0,0,0,156,96Zm60,8v48a88,88,0,0,1-176,0V104A87.69832,87.69832,0,0,1,64.84717,42.7832L50.63477,29.93408A7.99994,7.99994,0,1,1,61.36523,18.06592L77.0752,32.269a87.835,87.835,0,0,1,101.8496.00049l15.71-14.20361a7.99994,7.99994,0,0,1,10.73046,11.86816L191.15332,42.78369A87.69973,87.69973,0,0,1,216,104ZM56,104v8H200v-8a72,72,0,0,0-144,0Zm144,48V128H56v24a72,72,0,0,0,144,0Z"/>
</svg>
