<svg xmlns="http://www.w3.org/2000/svg" viewBox="0 0 256 256"><path d="M227.1,64.6l-96-40a8.3,8.3,0,0,0-6.2,0l-96,40a8.1,8.1,0,0,0-4.8,8.5l16,120a8.1,8.1,0,0,0,4.3,6.1l80,40a8.5,8.5,0,0,0,7.2,0l80-40a8.1,8.1,0,0,0,4.3-6.1l16-120A8.1,8.1,0,0,0,227.1,64.6ZM200.6,186.7,128,223.1,55.4,186.7,40.7,77,128,40.7,215.3,77ZM120.8,84.4l-36,72a8,8,0,0,0,14.4,7.2l8.4-16.9h40.8l8.4,16.9A8.1,8.1,0,0,0,164,168a9.4,9.4,0,0,0,3.6-.8,8.2,8.2,0,0,0,3.6-10.8l-36-72a8.1,8.1,0,0,0-14.4,0Zm19.6,46.3H115.6L128,105.9Z"/></svg>