<svg id="Flat" xmlns="http://www.w3.org/2000/svg" viewBox="0 0 256 256">
  <path d="M232,128A103.99994,103.99994,0,0,0,54.46094,54.46094,103.99951,103.99951,0,0,0,127.97,231.99951c.01,0,.01978.00244.03.00244.02148,0,.04321-.00244.0647-.00293A103.99851,103.99851,0,0,0,232,128ZM109.84277,149.37451l-9.43213-26.41113,18.15674-21.37451,27.58985,5.03662,9.43213,26.41113-18.15674,21.37451ZM49.17554,88.91992l51.21631,9.35059-53.741,63.26562A88.43229,88.43229,0,0,1,49.17554,88.91992Zm160.17383,5.54395a88.43231,88.43231,0,0,1-2.52491,72.61621l-51.21631-9.35059Zm-8.07886-15.2041-33.72022,39.69628L139.63037,40.78027a87.98668,87.98668,0,0,1,61.64014,38.4795ZM122.43164,40.19336l17.51148,49.03271L58.2959,74.32031a88.334,88.334,0,0,1,7.47851-8.54492A87.33409,87.33409,0,0,1,122.43164,40.19336ZM54.72949,176.74023,88.44971,137.044l27.91992,78.17578a87.98668,87.98668,0,0,1-61.64014-38.4795Zm78.83887,39.06641-17.51148-49.03271,23.08228,4.21386.04541.0083,58.51953,10.6836a88.334,88.334,0,0,1-7.47851,8.54492A87.33409,87.33409,0,0,1,133.56836,215.80664Z"/>
</svg>
