<svg id="Flat" xmlns="http://www.w3.org/2000/svg" viewBox="0 0 256.00004 255.99998">
  <path d="M130.66064,29.63136A40.24978,40.24978,0,0,1,168,4a8,8,0,0,1,0,16,24.15408,24.15408,0,0,0-22.4082,15.38037,7.99986,7.99986,0,1,1-14.93116-5.749ZM225.916,165.96486C211.92578,200.13478,186.46533,224,164,224H92c-16.36914,0-34.73486-12.71777-49.12891-34.02148C28.33643,168.46681,20,141.50294,20,116a68.00487,68.00487,0,0,1,108-54.9956,68.012,68.012,0,0,1,93.45459,12.96045,8.00039,8.00039,0,0,1-2.14111,11.7915,40.017,40.017,0,0,0,2.72509,69.99609A8.00447,8.00447,0,0,1,225.916,165.96486Zm-17.59668.23339a56.04973,56.04973,0,0,1-5.0918-88.46093,52.02,52.02,0,0,0-69.74805-.627,7.99936,7.99936,0,0,1-10.79248.14844l-.03369-.03027A52.00084,52.00084,0,0,0,36,116c0,49.89649,34.397,92,56,92h72C178.40918,208,196.74707,190.42579,208.31934,166.19825Z"/>
</svg>
