<svg id="Flat" xmlns="http://www.w3.org/2000/svg" viewBox="0 0 256 256">
  <path d="M167.59814,144.40137a8.00119,8.00119,0,0,1,0,11.31445l-33.9414,33.94141c-.04541.04541-.09522.08447-.1416.12841-.14209.13526-.28418.27-.43555.39454-.06494.05322-.13477.09912-.20068.1499-.14112.10888-.28125.21875-.42969.31787-.05469.03662-.11328.06738-.16895.10254-.165.105-.33056.20849-.5039.30176-.041.022-.085.03955-.12647.061-.19043.09766-.3833.19238-.58252.2749-.02783.01172-.05664.02-.08447.03077-.21338.08593-.4292.166-.65137.23339-.02832.00879-.0581.01416-.08642.02246-.22022.06446-.44287.12305-.6709.16846-.06445.01319-.13086.01856-.19629.02979-.19141.03369-.38281.06738-.5791.08642a7.89257,7.89257,0,0,1-1.59766,0c-.19678-.01953-.38916-.05322-.58105-.08642-.06446-.01172-.13037-.01709-.19434-.02979-.228-.04541-.45068-.104-.67139-.16846-.02832-.0083-.05761-.01367-.08593-.02246-.22217-.06738-.438-.14746-.65137-.23339-.02783-.01075-.05664-.019-.08447-.03077-.19922-.08252-.39209-.17724-.58252-.2749-.04151-.02148-.08545-.03906-.12647-.061-.17334-.09327-.33886-.19678-.5039-.30176-.05567-.03516-.11426-.06592-.16895-.10254-.14844-.09912-.28857-.209-.42969-.31787-.06591-.05078-.13574-.09668-.20068-.1499-.15137-.12452-.29346-.25928-.43555-.39454-.04638-.04394-.09619-.083-.1416-.12841l-33.9414-33.94141a8.00035,8.00035,0,0,1,11.314-11.31445L120,164.68652V104a8,8,0,0,1,16,0v60.68652l20.28418-20.28515A8.00238,8.00238,0,0,1,167.59814,144.40137ZM224,72V208a16.01833,16.01833,0,0,1-16,16H48a16.01833,16.01833,0,0,1-16-16V72a8.127,8.127,0,0,1,.05127-.88379c.0083-.07324.02344-.14551.03369-.21826.03027-.22119.06641-.43994.11475-.65527.01855-.08155.0415-.16114.0625-.24219.05322-.20557.1123-.40869.18115-.60791.02832-.082.0581-.1626.08935-.24365q.1128-.2959.24854-.57959c.023-.04834.03906-.09961.06348-.14746l16-32A7.99967,7.99967,0,0,1,56,32H200a7.99967,7.99967,0,0,1,7.15527,4.42188l16,32c.02393.04785.04053.09863.06348.147.08984.18994.17334.38232.24854.58008.03125.08105.061.16211.08935.24414.06885.19873.12793.40088.18115.60644.021.08154.044.16211.0625.24414.04785.21387.084.43164.11475.65186.01025.07373.02539.147.03369.22119A8.118,8.118,0,0,1,224,72ZM52.94434,64H203.05566l-8-16H60.94434ZM208.00977,208l-.00928-128H48V208H208.00977Z"/>
</svg>
