<svg id="Flat" xmlns="http://www.w3.org/2000/svg" viewBox="0 0 256 256">
  <path d="M232,200a8,8,0,0,1-16,0,88.09957,88.09957,0,0,0-88-88H51.31366l34.34357,34.34277a8.00053,8.00053,0,0,1-11.31446,11.31446l-48-48c-.05639-.0564-.10424-.11792-.15863-.17554-.1253-.13281-.25122-.26538-.36725-.40649-.09112-.11084-.1712-.22706-.25543-.34156-.07043-.0957-.14465-.188-.21087-.28686-.08484-.12647-.15894-.25782-.23578-.38819-.05579-.09423-.11524-.186-.16724-.283-.06915-.12915-.12811-.262-.1897-.39379-.04931-.10547-.10211-.20874-.147-.31665-.05237-.12647-.095-.25562-.14069-.38428-.04211-.11817-.08758-.23462-.1242-.35523-.03906-.1289-.06793-.25976-.10034-.39013-.03064-.12305-.06531-.24414-.09015-.36939-.03009-.15137-.04846-.30444-.06977-.457-.01471-.106-.03515-.21-.04571-.31714a8.04267,8.04267,0,0,1,0-1.584c.01056-.10718.031-.21118.04571-.31714.02131-.15259.03968-.30567.06977-.457.02484-.12525.05951-.24634.09015-.36939.03241-.13037.06128-.26123.10034-.39013.03662-.12061.08209-.23706.1242-.35523.04566-.12866.08832-.25781.14069-.38428.04486-.10791.09766-.21118.147-.31665.06159-.13183.12055-.26464.1897-.39379.052-.09693.11145-.18873.16724-.283.07684-.13037.15094-.26172.23578-.38819.06622-.09887.14044-.19116.21087-.28686.08423-.1145.16431-.23072.25543-.34156.116-.14111.24195-.27368.36725-.40649.05439-.05762.10224-.11914.15863-.17554l48-48A8.00053,8.00053,0,0,1,85.65723,61.65723L51.31366,96H128A104.11791,104.11791,0,0,1,232,200Z"/>
</svg>
