<svg id="Flat" xmlns="http://www.w3.org/2000/svg" viewBox="0 0 256 256">
  <path d="M56,156V56l.001-.02155q.00146-.38442.03906-.76776c.01172-.11975.03418-.236.05078-.35412.02051-.14.03662-.28028.064-.41925.02685-.13538.064-.26648.09765-.3993.03027-.12023.05664-.241.09277-.36.03956-.13055.08838-.25659.13428-.38422.04248-.1184.08106-.23761.1294-.35431.0498-.11932.10791-.23382.16259-.35009.05664-.12043.11036-.24189.17334-.35993.06006-.11224.12842-.21887.19385-.32788.06836-.11462.1333-.23071.208-.34247.082-.12225.17285-.23742.26074-.35486.06885-.09124.13184-.18511.20508-.274a8.05613,8.05613,0,0,1,1.11816-1.118c.08692-.07116.17823-.13281.26709-.19982.11963-.09.23731-.18256.36182-.26593.10938-.07312.22314-.1363.335-.20343s.22119-.13715.33643-.19886c.11474-.06134.23291-.1131.35009-.16845.11915-.05671.23731-.11628.35987-.16712.1123-.04651.22754-.08392.34179-.12506.13184-.04779.2627-.09821.398-.13916.1128-.03412.22754-.0589.3418-.08789.13818-.03528.27539-.07385.417-.10181.12989-.02575.26172-.04065.39258-.05993.12695-.01868.25195-.04236.38086-.055.23242-.02282.46582-.03271.69873-.03527C63.94141,48.00415,63.97021,48,64,48H164a8,8,0,0,1,0,16H83.31348l98.34326,98.34326a7.99984,7.99984,0,1,1-11.31348,11.31348L72,75.3136V156a8,8,0,0,1-16,0Zm160,51.99609H40a8,8,0,0,0,0,16H216a8,8,0,0,0,0-16Z"/>
</svg>
