<svg id="Flat" xmlns="http://www.w3.org/2000/svg" viewBox="0 0 256 256">
  <path d="M221.65723,181.65674l-48,48c-.01612.01611-.03394.0293-.05011.04541-.1717.1687-.34955.33105-.53583.48389-.09442.07763-.194.145-.291.21777-.112.08374-.22149.17041-.338.24853-.11481.07666-.23395.14331-.35174.21363-.1062.06347-.21.13012-.31934.18872-.12.06421-.24341.11865-.36591.17627-.11425.05395-.22656.11084-.34368.15942-.11823.04907-.239.08862-.359.13159-.12647.04541-.25122.09375-.38056.13306-.11975.03613-.24133.06274-.3623.093-.13184.0332-.26209.07031-.39643.09692-.14074.02783-.28289.04443-.42468.0647-.11651.0166-.23108.03882-.34906.05029-.26251.02588-.526.04-.78961.04s-.5271-.01416-.78961-.04c-.118-.01147-.23255-.03369-.34906-.05029-.14179-.02027-.28394-.03687-.42468-.0647-.13434-.02661-.26459-.06372-.39643-.09692-.121-.03028-.24255-.05689-.3623-.093-.12934-.03931-.25409-.08765-.38056-.13306-.12-.043-.24078-.08252-.359-.13159-.11712-.04858-.22943-.10547-.34368-.15942-.1225-.05762-.24592-.11206-.36591-.17627-.10931-.0586-.21313-.12525-.31934-.18872-.11779-.07032-.23693-.137-.35174-.21363-.11646-.07812-.226-.16479-.338-.24853-.097-.07276-.1966-.14014-.291-.21777-.18628-.15284-.36413-.31519-.53583-.48389-.01617-.01611-.034-.0293-.05011-.04541l-48-48a8.00018,8.00018,0,0,1,11.31446-11.31348L160,204.68652V88a48,48,0,0,0-96,0v88a8,8,0,0,1-16,0V88a64,64,0,0,1,128,0V204.68652l34.34277-34.34326a8.00018,8.00018,0,0,1,11.31446,11.31348Z"/>
</svg>
