<svg id="Flat" xmlns="http://www.w3.org/2000/svg" viewBox="0 0 256 256">
  <path d="M229.75128,173.55273c-.03271.03418-.06061.07081-.09405.104l-48,48a8.00018,8.00018,0,0,1-11.31446-11.31348L204.6864,176H88A64,64,0,0,1,88,48h88a8,8,0,0,1,0,16H88a48,48,0,0,0,0,96H204.6864l-34.34363-34.34326a8.00018,8.00018,0,1,1,11.31446-11.31348l48,48c.03058.03028.05609.064.08606.09522.15271.15771.30206.31836.44146.48828.08576.10449.16071.21386.24036.32129.07544.102.15454.20117.22522.30664.08289.12353.155.25195.23022.3789.05762.09717.11884.1919.17237.29151.0683.12744.12646.25879.18731.38916.05011.10644.10358.21142.14905.3208.05207.126.09436.25439.13977.38232.04242.11866.0882.23584.125.35694.03888.12841.06763.25879.1.38916.03076.123.06555.24511.09045.3706.03009.15137.04853.3042.06983.457.01471.106.03509.20948.04565.3169a8.04267,8.04267,0,0,1,0,1.584c-.01056.10742-.03094.21094-.04565.3169-.0213.15283-.03974.30566-.06983.457-.0249.12549-.05969.24756-.09045.3706-.03235.13037-.0611.26075-.1.38916-.0368.1211-.08258.23828-.125.35694-.04541.12793-.0877.25634-.13977.38232-.04547.10938-.09894.21436-.14905.3208-.06085.13037-.119.26172-.18731.38916-.05353.09961-.11475.19434-.17237.29151-.07519.127-.14733.25537-.23022.3789-.07068.10547-.14978.20459-.22522.30664-.07965.10743-.1546.2168-.24036.32129C230.04785,173.23975,229.901,173.398,229.75128,173.55273Z"/>
</svg>
