<svg id="Flat" xmlns="http://www.w3.org/2000/svg" viewBox="0 0 256 256">
  <path d="M232,112a64.07207,64.07207,0,0,1-64,64H51.3136l34.34363,34.34326a8.00018,8.00018,0,0,1-11.31446,11.31348l-48-48c-.0271-.02686-.04956-.05713-.07617-.08447-.15655-.16065-.309-.32569-.4516-.49952-.08423-.10254-.15783-.21045-.2362-.31591-.077-.10352-.15747-.20459-.2295-.312-.082-.12255-.15332-.24951-.22784-.375-.05835-.09863-.1203-.19433-.1745-.29541-.06793-.12695-.12579-.25732-.1864-.38671-.05042-.10743-.10425-.2129-.15-.32325-.052-.12549-.09412-.25341-.13941-.38086-.04248-.11914-.08832-.23632-.12524-.35791-.03888-.12841-.06763-.25927-.1-.38916-.03076-.123-.06555-.24511-.09045-.3706-.03009-.15088-.04846-.30371-.0697-.45655-.01478-.106-.03522-.21-.04578-.31738a8.04267,8.04267,0,0,1,0-1.584c.01056-.10742.031-.21143.04578-.31739.02124-.15283.03961-.30566.0697-.45654.0249-.12549.05969-.24756.09045-.3706.03235-.12989.0611-.26075.1-.38916.03692-.12159.08276-.23877.12524-.35791.04529-.12745.08746-.25537.13941-.38086.04571-.11035.09954-.21582.15-.32325.06061-.12939.11847-.25976.1864-.38671.0542-.10108.11615-.19678.1745-.29541.07452-.12549.14587-.25245.22784-.375.072-.10743.15247-.2085.2295-.312.07837-.10546.152-.21337.2362-.31591.14527-.17725.30042-.34522.46009-.50928.02368-.02393.04364-.05078.06768-.07471l48-48a8.00018,8.00018,0,0,1,11.31446,11.31348L51.3136,160H168a48,48,0,0,0,0-96H80a8,8,0,0,1,0-16h88A64.07207,64.07207,0,0,1,232,112Z"/>
</svg>
