<svg id="Flat" xmlns="http://www.w3.org/2000/svg" viewBox="0 0 256 256">
  <path d="M228.666,156.07861c-.2019.01953-.40454.02637-.60717.03076-.05945.001-.11719.00879-.17694.00879h-64a8,8,0,0,1,0-16h44.68554l-18.34277-18.34277A88,88,0,0,0,40,184a8,8,0,0,1-16,0,103.99994,103.99994,0,0,1,177.53906-73.53906l18.34278,18.34277V84.11816a8,8,0,1,1,16,0v63.99512c.00018.26563-.0138.53174-.04.79688-.01056.10742-.031.21093-.04572.31689-.0213.15283-.03967.30566-.06976.45752-.02484.125-.05951.24609-.09015.36914-.03241.13037-.06128.26123-.10034.39014-.03662.1206-.08209.23681-.12421.355-.04565.1289-.08832.25781-.14068.38476-.04487.10743-.09766.21094-.147.31641-.06158.13184-.12054.26465-.18969.39355-.052.09717-.11146.189-.16724.28321-.07684.13037-.15094.26172-.23578.38818-.06622.09863-.14044.19141-.21088.28662-.08422.11475-.1643.231-.25543.3418-.116.14111-.24194.27344-.36725.40625-.05438.0581-.10223.11914-.15863.17578-.0534.05322-.11157.09863-.16607.1499-.13611.12891-.27216.25782-.41706.377-.10364.085-.2127.15966-.31946.23877-.10327.07666-.20367.15673-.31066.22851-.11744.07813-.23926.14649-.35981.21826-.10412.062-.20587.12744-.31292.18506-.11823.063-.23981.1167-.36042.17334-.1167.05518-.2315.11328-.35119.16309-.11261.04638-.22772.084-.342.125-.13245.04834-.26343.09863-.39905.13965-.10889.03271-.21961.05664-.32959.085-.143.03662-.28479.07617-.43079.105-.11987.02343-.241.03711-.36157.05517C228.94122,156.03955,228.80548,156.06494,228.666,156.07861Z"/>
</svg>
