<svg id="Flat" xmlns="http://www.w3.org/2000/svg" viewBox="0 0 256 256">
  <path d="M208,32H48A16.01833,16.01833,0,0,0,32,48V208a16.01833,16.01833,0,0,0,16,16H208a16.01833,16.01833,0,0,0,16-16V48A16.01833,16.01833,0,0,0,208,32Zm0,176H48V48H208l.01025,160Zm-40.40234-79.59863a8.00032,8.00032,0,0,1,0,11.31445l-33.94092,33.94141a8.00063,8.00063,0,0,1-11.31348,0L88.40234,139.71582a8.00018,8.00018,0,1,1,11.31348-11.31445L120,148.68628V88a8,8,0,0,1,16,0v60.68628l20.28418-20.28491A8.0018,8.0018,0,0,1,167.59766,128.40137Z"/>
</svg>
