<svg id="Flat" xmlns="http://www.w3.org/2000/svg" viewBox="0 0 256 256">
  <path d="M229.65723,101.65674a8.00063,8.00063,0,0,1-11.31446,0L184,67.3136V192a8.00008,8.00008,0,0,1-8,8H32a8,8,0,0,1,0-16H168V67.3136l-34.34277,34.34314a8.00018,8.00018,0,0,1-11.31446-11.31348l48-48c.01612-.01611.03394-.0293.05011-.04529.1717-.16882.34955-.33117.53583-.48413.09393-.07715.19306-.14428.28955-.21655.11261-.08423.22266-.17151.33972-.24976.11316-.07568.23066-.14123.34662-.21057.10816-.06457.214-.13244.32532-.19214.11676-.06237.23688-.11523.3559-.17138.11779-.05591.2337-.1145.35461-.16455.11365-.04712.22974-.08484.345-.12635.131-.04736.26056-.09753.39471-.13806.11384-.03442.22956-.05932.34455-.08862.13769-.035.27392-.07336.41443-.10107.13037-.02588.26214-.04078.39343-.06006.12689-.01868.252-.04248.38074-.05494.23217-.02294.46515-.03271.69824-.0354C175.94128,40.00415,175.97015,40,176,40s.05872.00415.0885.00439c.23309.00269.46607.01246.69824.0354.12873.01246.25385.03626.38074.05494.13129.01928.26306.03418.39343.06006.14051.02771.27674.066.41443.10107.115.0293.23071.0542.34455.08862.13415.04053.26367.0907.39471.13806.11523.04151.23132.07923.345.12635.12091.05.23682.10864.35461.16455.119.05615.23914.109.3559.17138.11133.0597.21716.12757.32532.19214.116.06934.23346.13489.34662.21057.11706.07825.22711.16553.33972.24976.09649.07227.19562.1394.28955.21655.18628.153.36413.31531.53583.48413.01617.016.034.02918.05011.04529l48,48A8,8,0,0,1,229.65723,101.65674Z"/>
</svg>
