<svg id="Flat" xmlns="http://www.w3.org/2000/svg" viewBox="0 0 256 256">
  <path d="M205.65723,85.65723a8.00181,8.00181,0,0,1-11.31446,0L160,51.31348V128A104.11791,104.11791,0,0,1,56,232a8,8,0,0,1,0-16,88.09957,88.09957,0,0,0,88-88V51.31348L109.65723,85.65723A8.00053,8.00053,0,0,1,98.34277,74.34277l48-48c.05341-.05322.11158-.09863.16608-.1499.13611-.12891.27216-.25781.41705-.377.10437-.08545.214-.16065.3216-.24024.10241-.07617.202-.15527.308-.22656.11823-.0791.24085-.14795.36225-.22021.10345-.06153.20452-.12647.31091-.1836.11828-.063.23987-.1167.36047-.17334.1167-.05517.23151-.11328.3512-.16308.11261-.04639.22772-.084.342-.125.13244-.04834.26343-.09864.399-.13965.10949-.0332.22088-.05713.33142-.08545.14227-.03613.28308-.07568.42828-.10449.12138-.02393.24414-.0376.36633-.05567.136-.02051.27027-.04541.40839-.05908.2019-.01953.4046-.02637.60724-.03076.05945-.001.11719-.00879.17694-.00879s.11749.00781.17694.00879c.20264.00439.40534.01123.60724.03076.13812.01367.2724.03857.40839.05908.12219.01807.24491.03174.36633.05567.1452.02881.286.06836.42828.10449.11054.02832.22193.05225.33142.08545.13562.041.26661.09131.399.13965.11426.041.22937.07861.342.125.11969.0498.2345.10791.3512.16308.1206.05664.24219.11035.36047.17334.10639.05713.20746.12207.31091.1836.1214.07226.244.14111.36225.22021.10608.07129.20563.15039.308.22656.10755.07959.21723.15479.3216.24024.14489.11914.28094.248.41705.377.0545.05127.11267.09668.16608.1499l48,48A8.00122,8.00122,0,0,1,205.65723,85.65723Z"/>
</svg>
