<svg id="Flat" xmlns="http://www.w3.org/2000/svg" viewBox="0 0 256 256">
  <path d="M74.34326,173.65674a7.99915,7.99915,0,0,1,0-11.31348L172.68652,64H92a8,8,0,0,1,0-16H192c.02979,0,.05859.00415.08838.00446.2334.00256.46631.01245.69824.03527.12891.01264.2544.03632.38135.055.13086.01928.26269.03418.39258.05993.14111.0279.27783.06635.416.1015.11426.02912.22949.054.34326.08826.13526.04089.26563.09137.39747.1391.11425.04114.229.07855.3413.125.12354.051.2417.11072.36133.1676.1167.05524.23438.10688.34912.168.11524.06171.22461.13178.33643.19886s.22558.13031.335.20343c.12451.08331.2417.17578.36133.26574.08886.06708.18066.12885.26758.20008a8.05175,8.05175,0,0,1,1.11767,1.11755c.07373.08984.13819.18475.207.277.08789.11664.17823.231.25928.35235.07471.11176.13965.22785.208.34247.06543.109.13379.21564.19385.32788.063.118.11669.2395.17334.35993.05468.11627.11279.23077.16259.35009.04834.1167.08692.23591.1294.35431.0459.12763.09472.25367.13428.38422.03613.119.0625.23975.09277.36.03369.13282.0708.26392.09765.3993.02735.139.04346.27929.064.41925.0166.11816.03906.23437.05078.35412.02588.26245.04.52582.04.78931V156a8,8,0,0,1-16,0V75.3136L85.65674,173.65674a7.99945,7.99945,0,0,1-11.31348,0ZM216,207.99609H40a8,8,0,0,0,0,16H216a8,8,0,0,0,0-16Z"/>
</svg>
