<svg id="Flat" xmlns="http://www.w3.org/2000/svg" viewBox="0 0 256 256">
  <path d="M208,224a8.00039,8.00039,0,0,1-8,8A104.11791,104.11791,0,0,1,96,128V51.31372L61.65723,85.65723A8.00053,8.00053,0,0,1,50.34277,74.34277l48-48c.05341-.05322.11158-.09863.16608-.1499.13611-.12891.27216-.25781.41705-.377.10437-.0857.21405-.16065.3216-.24024.10241-.07617.202-.15551.308-.22656.11823-.0791.24085-.14795.36225-.22.10345-.06177.20452-.12671.31091-.18359.11828-.06324.23987-.11695.36047-.17383.1167-.05518.23151-.11328.3512-.16284.11261-.04663.22772-.084.342-.12525.13244-.04785.26343-.09839.39905-.1394.10949-.0332.22088-.05713.33142-.08521.14227-.03637.28308-.07592.42828-.10473.12139-.02393.24414-.0376.36633-.05567.136-.02051.27027-.04565.40839-.05908.2019-.01977.4046-.02612.60724-.03076C103.88251,24.00757,103.94025,24,104,24s.11749.00757.17694.00879c.20264.00464.40534.011.60724.03076.13812.01343.2724.03857.40839.05908.12219.01807.24492.03174.36633.05567.1452.02881.286.06836.42828.10473.11054.02808.22193.052.33142.08521.13562.041.26661.09155.39905.1394.11426.04126.22937.07862.342.12525.11969.04956.2345.10766.3512.16284.1206.05688.24219.11059.36047.17383.10639.05688.20746.12182.31091.18359.1214.072.244.14087.36225.22.10608.071.20563.15039.308.22656.10755.07959.21723.15454.3216.24024.14489.11914.28094.248.41705.377.0545.05127.11267.09668.16608.1499l48,48a8.00053,8.00053,0,0,1-11.31446,11.31446L112,51.31372V128a88.09957,88.09957,0,0,0,88,88A8.00039,8.00039,0,0,1,208,224Z"/>
</svg>
