<svg id="Flat" xmlns="http://www.w3.org/2000/svg" viewBox="0 0 256 256">
  <path d="M190.39062,132.79321c-.06933.09229-.13378.18714-.20751.277-.168.20471-.34473.40149-.53223.5885l-71.99756,71.99805a8,8,0,0,1-11.314-11.31348L164.68262,136H31.99609a8,8,0,0,1,0-16H164.68262L106.33936,61.65674a8,8,0,0,1,11.314-11.31348l71.99756,71.998c.1875.187.36426.38379.53223.5885.07373.08984.13818.18469.20751.277.08741.1167.17774.231.25879.35229.07471.11182.13965.22791.208.34253.06543.109.13379.21558.19385.32788.063.118.1167.2395.17334.35987.05518.11633.11328.23083.1626.35009.04834.1167.08691.236.12939.35437.0459.12757.09522.25367.13477.38416.03564.119.062.23974.09228.36011.03369.13281.0708.26391.09766.39917.02734.139.04394.27929.064.41931.0166.11816.03955.23437.05127.35412a8.12026,8.12026,0,0,1,0,1.57862c-.01172.11975-.03467.236-.05127.35412-.02.14-.03662.28028-.064.41931-.02686.13526-.064.26636-.09766.39917-.03027.12037-.05664.24109-.09228.36011-.03955.13049-.08887.25659-.13477.38416-.04248.1184-.08105.23767-.12939.35437-.04932.11926-.10742.23376-.1626.35009-.05664.12037-.11035.24183-.17334.35987-.06006.1123-.12842.21887-.19385.32788-.06836.11462-.1333.23071-.208.34253C190.56836,132.56226,190.478,132.67651,190.39062,132.79321ZM216,32a7.99977,7.99977,0,0,0-8,8V216a8,8,0,0,0,16,0V40A7.99977,7.99977,0,0,0,216,32Z"/>
</svg>
