<svg id="Flat" xmlns="http://www.w3.org/2000/svg" viewBox="0 0 256 256">
  <path d="M225.30566,107.62555c-.11651.01666-.23108.03876-.34906.05035-.26251.02588-.526.03992-.78961.03992h-48a8,8,0,0,1,0-16h28.68555L184.56836,71.43164a80.08769,80.08769,0,0,0-113.13672,0A8.00052,8.00052,0,0,1,60.11719,60.11719a96.11137,96.11137,0,0,1,135.76562,0L216.167,80.40137V51.71582a8,8,0,0,1,16,0V99.71069c.00019.26612-.01379.532-.04.79706-.01056.10724-.031.21124-.04571.31714-.0213.15271-.03968.30566-.06977.45715-.02484.12519-.0595.24634-.09014.36933-.03241.13037-.06128.26129-.10035.39019-.03662.12067-.08209.237-.1242.35517-.04566.1286-.08832.25775-.14069.38428-.04486.10791-.09765.21118-.147.31665-.06159.13195-.12055.26464-.1897.3938-.052.09686-.11145.18865-.16723.28308-.07685.13025-.15094.26147-.23578.38806-.06623.09881-.14045.19122-.21088.28686-.08423.11438-.16431.23084-.25543.34156-.116.14117-.242.27362-.36725.40649-.05438.05768-.10223.11914-.15863.17554-.05438.05432-.11365.10034-.16913.15277-.13507.12762-.27.25561-.41363.37366-.10651.08758-.21851.1643-.32831.24554-.1001.074-.19727.15173-.30091.22113-.12182.0816-.2481.15265-.37329.22681-.09942.059-.19629.12152-.2984.17627-.12414.06646-.25171.12292-.37848.18237-.11053.05194-.21893.10712-.33215.15411-.12116.05011-.24481.0907-.3678.13465-.12353.04431-.24548.09173-.37176.13006-.12171.03681-.24536.06385-.36841.09473-.13025.03284-.25885.06927-.39154.09558C225.58966,107.58868,225.44751,107.60529,225.30566,107.62555Zm-40.7373,76.94281a80.08769,80.08769,0,0,1-113.13672,0L51.14746,164.28418H79.833a8,8,0,0,0,0-16h-48c-.05976,0-.11749.00763-.17694.00891-.20264.00446-.40534.01093-.60724.0307-.13812.01343-.2724.03851-.40839.0589-.12219.01831-.24493.03186-.36633.05591-.1452.02869-.286.06811-.42828.10455-.11054.02826-.22193.05219-.33143.08521-.13562.041-.2666.09155-.399.13952-.11426.0412-.22937.07862-.342.12519-.11969.04962-.2345.10772-.3512.1629-.12061.05688-.24219.11047-.36047.17371-.10639.057-.20746.12194-.31092.18359-.1214.07214-.244.141-.36224.22009-.10608.071-.20563.15045-.308.22638-.10755.07965-.21723.15473-.3216.24048-.1449.119-.28094.248-.417.37671-.05451.05151-.11267.09668-.16608.15-.0564.0564-.10425.11786-.15863.17554-.1253.13287-.25122.26532-.36725.40649-.09112.11072-.1712.22718-.25543.34156-.07043.09564-.14465.188-.21088.28686-.08484.12659-.15893.25781-.23578.38806-.05578.09443-.11523.18622-.16723.28308-.06915.12916-.12811.26185-.1897.3938-.04932.10547-.10211.20874-.147.31665-.05237.12653-.095.25568-.14069.38428-.04211.11817-.08758.2345-.1242.35517-.03907.1289-.06794.25982-.10035.39019-.03064.123-.0653.24414-.09014.36933-.03009.15149-.04847.30444-.06977.45715-.01471.1059-.03515.2099-.04571.31714-.02625.265-.04023.53094-.04.79706v47.99487a8,8,0,0,0,16,0V175.59863l20.28418,20.28418a96.11136,96.11136,0,0,0,135.76562,0,8.00052,8.00052,0,0,0-11.31445-11.31445Z"/>
</svg>
