<svg id="Flat" xmlns="http://www.w3.org/2000/svg" viewBox="0 0 256 256">
  <path d="M232,184a8,8,0,0,1-16,0A87.99889,87.99889,0,0,0,65.77539,121.77539L47.43262,140.11816H92.11816a8,8,0,0,1,0,16h-64c-.05975,0-.11749-.00781-.17694-.00878-.20263-.0044-.40527-.01124-.60717-.03077-.13953-.01367-.27527-.03906-.41254-.05957-.12061-.01806-.2417-.03174-.36157-.05517-.146-.02881-.28778-.06836-.43079-.105-.11-.02832-.2207-.05225-.32959-.085-.13562-.041-.2666-.09131-.399-.13965-.11426-.041-.22937-.07862-.342-.125-.11969-.04981-.23449-.10791-.35119-.16309-.12061-.05664-.24219-.11035-.36042-.17334-.10705-.05762-.2088-.12305-.31292-.18506-.12055-.07177-.24237-.14013-.35981-.21826-.107-.07178-.20739-.15185-.31066-.22851-.10676-.07911-.21582-.15381-.31946-.23877-.1449-.11914-.281-.248-.41706-.377-.0545-.05127-.11267-.09668-.16607-.1499-.0564-.05664-.10425-.11768-.15863-.17578-.12531-.13281-.25122-.26514-.36725-.40625-.09113-.11084-.17121-.22705-.25543-.3418-.07044-.09521-.14466-.188-.21088-.28662-.08484-.12646-.15894-.25781-.23578-.38818-.05578-.09424-.11523-.186-.16724-.28321-.06915-.1289-.12811-.26171-.18969-.39355-.04932-.10547-.10211-.209-.147-.31641-.05236-.127-.095-.25586-.14068-.38476-.04212-.11817-.08759-.23438-.12421-.355-.03906-.12891-.06793-.25977-.10034-.39014-.03064-.12305-.06531-.24414-.09015-.36914-.03009-.15186-.04846-.30469-.06976-.45752-.01471-.106-.03516-.20947-.04572-.31689-.02624-.26514-.04022-.53125-.04-.79688V84.11816a8,8,0,0,1,16,0v44.68555l18.34278-18.34277A104,104,0,0,1,232,184Z"/>
</svg>
