<svg id="Flat" xmlns="http://www.w3.org/2000/svg" viewBox="0 0 256 256">
  <path d="M208,32a8.00039,8.00039,0,0,1-8,8,88.09957,88.09957,0,0,0-88,88v76.68652l34.34277-34.34375a8.00053,8.00053,0,0,1,11.31446,11.31446l-48,48c-.05439.0542-.11365.10058-.16913.15283-.13507.12744-.27.25537-.41364.37353-.1065.08789-.2185.16455-.32831.24561-.10009.07422-.19726.15185-.3009.22119-.12182.08154-.24811.15234-.37329.22656-.09943.05909-.19629.12159-.2984.17627-.12415.0669-.25171.123-.37848.18262-.11053.05176-.21893.10693-.33215.15381-.12116.05029-.24481.09082-.3678.13476-.12354.04444-.24548.0918-.37177.13038-.1217.03662-.24536.06347-.3684.09472-.13025.03272-.25885.06885-.39154.09522-.14075.02832-.2829.04492-.42475.06494-.11651.0166-.23108.03857-.34906.05029-.26251.02588-.526.04-.78961.04s-.5271-.01416-.78961-.04c-.118-.01172-.23255-.03369-.34906-.05029-.14185-.02-.284-.03662-.42475-.06494-.13269-.02637-.26129-.0625-.39154-.09522-.123-.03125-.2467-.0581-.3684-.09472-.12629-.03858-.24823-.08594-.37177-.13038-.123-.04394-.24664-.08447-.3678-.13476-.11322-.04688-.22162-.102-.33215-.15381-.12677-.05957-.25433-.11572-.37848-.18262-.10211-.05468-.199-.11718-.2984-.17627-.12518-.07422-.25147-.145-.37329-.22656-.10364-.06934-.20081-.147-.3009-.22119-.10981-.08106-.22181-.15772-.32831-.24561-.14368-.11816-.27857-.24609-.41364-.37353-.05548-.05225-.11474-.09863-.16913-.15283l-48-48a8.00053,8.00053,0,0,1,11.31446-11.31446L96,204.68652V128A104.11791,104.11791,0,0,1,200,24,8.00039,8.00039,0,0,1,208,32Z"/>
</svg>
