<svg id="Flat" xmlns="http://www.w3.org/2000/svg" viewBox="0 0 256 256">
  <path d="M232.00391,128a8.00009,8.00009,0,0,1-8,8H91.31738l58.34326,58.34326a8,8,0,0,1-11.314,11.31348l-71.998-71.99805c-.187-.187-.36426-.384-.53222-.58887-.07373-.0896-.13721-.18408-.20655-.276-.0874-.11657-.17773-.23108-.25927-.35254-.0752-.11254-.14063-.22949-.20948-.34484-.06494-.1084-.13281-.21436-.19238-.32593-.06348-.11865-.11719-.24048-.17432-.36145-.05468-.1156-.1123-.22937-.16113-.348-.04932-.11817-.08838-.23877-.13135-.35865-.04541-.12622-.09375-.25073-.1333-.37976-.03613-.12073-.063-.24341-.09375-.36535-.0332-.131-.06982-.2605-.09619-.39393-.02783-.14038-.04443-.2821-.06445-.42346-.0166-.11694-.03906-.23205-.05078-.35058a8.04376,8.04376,0,0,1,0-1.57862c.01172-.11853.03418-.23364.05078-.35058.02-.14136.03662-.28308.06445-.42346.02637-.13343.063-.26294.09619-.39393.03076-.12194.05762-.24462.09375-.36535.03955-.129.08789-.25354.1333-.37976.043-.11988.082-.24048.13135-.35865.04883-.11865.10645-.23242.16113-.348.05713-.121.11084-.2428.17432-.36145.05957-.11157.12744-.21753.19238-.32593.06885-.11535.13428-.2323.20948-.34484.08154-.12146.17187-.236.25927-.35254.06934-.09192.13282-.1864.20655-.276.168-.20484.34521-.40186.53222-.58887l71.998-71.998a8,8,0,0,1,11.314,11.31348L91.31738,120H224.00391A8.00009,8.00009,0,0,1,232.00391,128ZM40,32a7.99977,7.99977,0,0,0-8,8V216a8,8,0,0,0,16,0V40A7.99977,7.99977,0,0,0,40,32Z"/>
</svg>
