<svg id="Flat" xmlns="http://www.w3.org/2000/svg" viewBox="0 0 256 256">
  <path d="M208,80v88a64,64,0,0,1-128,0V51.31348L45.65723,85.65674A8.00018,8.00018,0,0,1,34.34277,74.34326l48-48c.01612-.01611.03394-.0293.05011-.04541.1717-.1687.34955-.33105.53583-.48389.09393-.07714.19306-.14453.28955-.21679.11261-.084.22266-.17139.33972-.24951.11316-.07569.23066-.14136.34662-.2107.10816-.06469.214-.13257.32532-.19214.11676-.0625.23688-.11523.3559-.17138.11779-.05591.2337-.1145.35461-.16455.11365-.04712.22974-.085.345-.12647.131-.04736.26056-.09741.39471-.13794.11384-.03442.22956-.05932.34455-.08862.13769-.03516.27392-.07324.41443-.10107.13037-.02588.26214-.04078.39343-.06006.12689-.01856.252-.04248.38074-.05494.23217-.02294.46515-.03271.69824-.0354C87.94128,24.00415,87.97015,24,88,24s.05872.00415.0885.00439c.23309.00269.46607.01246.69824.0354.12873.01246.25385.03638.38074.05494.13129.01928.26306.03418.39343.06006.14051.02783.27674.06591.41443.10107.115.0293.23071.0542.34455.08862.13415.04053.26367.09058.39471.13794.11523.04151.23132.07935.345.12647.12091.05005.23682.10864.35461.16455.119.05615.23914.10888.3559.17138.11133.05957.21716.12745.32532.19214.116.06934.23346.135.34662.2107.11706.07812.22711.16552.33972.24951.09649.07226.19562.13965.28955.21679.18628.15284.36413.31519.53583.48389.01617.01611.034.0293.05011.04541l48,48a8.00018,8.00018,0,0,1-11.31446,11.31348L96,51.31348V168a48,48,0,0,0,96,0V80a8,8,0,0,1,16,0Z"/>
</svg>
