<svg id="Flat" xmlns="http://www.w3.org/2000/svg" viewBox="0 0 256 256">
  <path d="M208,32H48A16.01833,16.01833,0,0,0,32,48V208a16.01833,16.01833,0,0,0,16,16H208a16.01833,16.01833,0,0,0,16-16V48A16.01833,16.01833,0,0,0,208,32Zm0,176H48V48H208ZM80,128a8.00008,8.00008,0,0,1,8-8h60.68652L128.40234,99.71582a8.00018,8.00018,0,1,1,11.31348-11.31445l33.94092,33.9414a8.00034,8.00034,0,0,1,0,11.31446l-33.94092,33.9414a8.00018,8.00018,0,1,1-11.31348-11.31445L148.68652,136H88A8.00008,8.00008,0,0,1,80,128Z"/>
</svg>
