<svg id="Flat" xmlns="http://www.w3.org/2000/svg" viewBox="0 0 256 256">
  <path d="M205.65674,138.34717a7.99983,7.99983,0,1,1-11.31348,11.31347L136,91.31738V224.00391a8,8,0,1,1-16,0V91.31738L61.65674,149.66064a7.99983,7.99983,0,0,1-11.31348-11.31347l71.998-71.99805c.187-.1875.38428-.36475.58935-.533.08643-.0708.17774-.13208.26612-.199.12011-.09033.23779-.18335.36328-.26709.1084-.07251.22119-.13526.33252-.20191.1123-.06762.22265-.13818.33887-.20044.11425-.06079.23144-.1123.34765-.16748.12012-.05688.23877-.1167.36231-.168.11181-.04638.22656-.08349.34033-.12451.13232-.04809.26318-.09863.39892-.13965.1128-.03393.22754-.05883.3418-.08789.13818-.03515.27539-.07373.417-.10156.12989-.02588.26123-.04077.39209-.06006.12744-.01855.25244-.04248.38184-.05493.23193-.02295.46484-.03271.69824-.0354.02979-.00024.05859-.00439.08838-.00439s.05859.00415.08838.00439c.2334.00269.46631.01245.69824.0354.1294.01245.2544.03638.38184.05493.13086.01929.2622.03418.39209.06006.1416.02783.27881.06641.417.10156.11426.02906.229.054.3418.08789.13574.041.2666.09156.39892.13965.11377.041.22852.07813.34033.12451.12354.05127.24219.11109.36231.168.11621.05518.2334.10669.34765.16748.11622.06226.22657.13282.33887.20044.11133.06665.22412.1294.33252.20191.12549.08374.24317.17676.36328.26709.08838.06689.17969.12817.26612.199.20507.16821.40234.34546.58935.533ZM216,32H40a8,8,0,0,0,0,16H216a8,8,0,0,0,0-16Z"/>
</svg>
