<svg id="Flat" xmlns="http://www.w3.org/2000/svg" viewBox="0 0 256 256">
  <path d="M50.34326,117.65283a7.99983,7.99983,0,0,1,11.31348-11.31347L120,164.68262V31.99609a8,8,0,0,1,16,0V164.68262l58.34326-58.34326a7.99983,7.99983,0,0,1,11.31348,11.31347l-71.99805,71.99805c-.187.1875-.38428.36474-.58935.533-.08643.0708-.17774.13208-.26612.199-.12011.09033-.23779.18335-.36328.26709-.10889.07276-.22217.13574-.334.20288s-.22119.13721-.33692.199c-.11572.062-.23486.1145-.353.17041s-.23487.11474-.356.165c-.11524.0476-.23291.08593-.34961.12793-.1294.04663-.25733.09619-.38965.13623-.11719.0354-.23633.06128-.35449.09131-.13428.03393-.2666.07128-.40381.09838-.13916.02759-.2793.04395-.41992.06421-.11768.01685-.23389.03931-.353.051-.26269.02588-.52588.03979-.78955.03979s-.52686-.01391-.78955-.03979c-.11914-.01172-.23535-.03418-.353-.051-.14062-.02026-.28076-.03662-.41992-.06421-.13721-.0271-.26953-.06445-.40381-.09838-.11816-.03-.2373-.05591-.35449-.09131-.13233-.04-.26025-.0896-.38965-.13623-.1167-.042-.23437-.08033-.34961-.12793-.12109-.0503-.23779-.10913-.356-.165s-.2373-.1084-.353-.17041c-.11573-.06177-.2251-.13184-.33692-.199s-.22509-.13012-.334-.20288c-.12549-.08374-.24317-.17676-.36328-.26709-.08838-.06689-.17969-.12817-.26612-.199-.20507-.16822-.40234-.34546-.58935-.533ZM216,207.99609H40a8,8,0,0,0,0,16H216a8,8,0,0,0,0-16Z"/>
</svg>
