<svg id="Flat" xmlns="http://www.w3.org/2000/svg" viewBox="0 0 256 256">
  <path d="M181.65674,82.34277a8.00034,8.00034,0,0,1,0,11.31446L83.314,192H164a8,8,0,0,1,0,16H64c-.26367,0-.52686-.014-.78955-.03986-.11914-.01171-.23486-.03405-.35254-.051-.14062-.02014-.28125-.0365-.42041-.06415-.13525-.02679-.2666-.06384-.39893-.09735-.1206-.03039-.24169-.0567-.36084-.09271-.1289-.03913-.2539-.08759-.37988-.13306-.12012-.043-.24121-.08252-.35937-.13147-.1167-.0484-.22852-.10516-.34229-.15881-.123-.05792-.24707-.11267-.36767-.17725-.10743-.05749-.20948-.123-.31348-.18512-.12012-.07141-.24121-.13934-.3584-.21759-.11182-.07477-.2168-.15826-.32422-.2384-.10156-.07587-.206-.14667-.30469-.228-.17138-.14062-.334-.2912-.49316-.44531-.02978-.02887-.062-.05334-.09131-.08276-.02734-.02741-.05029-.05756-.07715-.08521-.15625-.161-.30908-.32593-.45166-.49957-.081-.09912-.15234-.20349-.228-.30554-.08008-.10743-.16358-.212-.2378-.32343-.0791-.11774-.14746-.24-.21924-.36084-.06152-.10333-.12646-.20416-.18359-.31036-.06494-.12134-.12012-.246-.17822-.36981-.05322-.11335-.10987-.22474-.1582-.34095-.04883-.11865-.08838-.2398-.13184-.36023-.04492-.12591-.09326-.25018-.13233-.37884-.03662-.12012-.063-.24207-.09326-.3634-.0332-.13172-.07031-.26191-.09668-.39618-.02783-.13953-.04443-.28046-.06445-.421-.01709-.11762-.03906-.23328-.05078-.35248q-.03808-.383-.03906-.76789L56,200V100a8,8,0,0,1,16,0v80.68591l98.34326-98.34314A8.00182,8.00182,0,0,1,181.65674,82.34277ZM216,32.00391H40a8,8,0,0,0,0,16H216a8,8,0,0,0,0-16Z"/>
</svg>
