<svg id="Flat" xmlns="http://www.w3.org/2000/svg" viewBox="0 0 256 256">
  <path d="M208,32H48A16.01833,16.01833,0,0,0,32,48V208a16.01833,16.01833,0,0,0,16,16H208a16.01833,16.01833,0,0,0,16-16V48A16.01833,16.01833,0,0,0,208,32Zm0,176H48V48H208ZM88.40234,127.59863a8.00032,8.00032,0,0,1,0-11.31445l33.94092-33.94141a8.00063,8.00063,0,0,1,11.31348,0l33.94092,33.94141a8.00018,8.00018,0,0,1-11.31348,11.31445L136,107.314V168a8,8,0,0,1-16,0V107.314L99.71582,127.59863A8.0018,8.0018,0,0,1,88.40234,127.59863Z"/>
</svg>
