<svg id="Flat" xmlns="http://www.w3.org/2000/svg" viewBox="0 0 256 256">
  <path d="M200,100V200c0,.26349-.01416.52686-.04.78937-.01172.1192-.03369.23486-.05078.35248-.02.14056-.03662.28149-.06445.421-.02637.13427-.06348.26446-.09668.39618-.03028.12133-.05664.24328-.09326.3634-.03907.12866-.08741.25293-.13233.37884-.04346.12043-.083.24158-.13184.36023-.04833.11621-.105.2276-.1582.34095-.0581.12384-.11328.24847-.17822.36981-.05713.1062-.12207.207-.18359.31036-.07178.12085-.14014.2431-.21924.36084-.07422.1106-.15674.21454-.23584.32117-.07666.1029-.14844.20825-.23047.30823-.14209.17291-.29395.337-.44971.49737-.02734.02826-.05078.059-.07861.087-.0293.02942-.06153.05389-.09131.08276-.15918.15411-.32178.30469-.49316.44531-.09864.08136-.20313.15229-.30518.22821-.10742.08008-.2124.16339-.32373.2381-.11719.07825-.23828.14624-.3584.21765-.104.06214-.20605.12763-.31348.18512-.12011.06439-.24414.119-.36669.17676-.11426.05389-.22657.1109-.34327.15942-.11816.049-.23925.08838-.35937.13135-.126.04541-.251.09387-.37988.133-.11963.03613-.24122.06262-.36231.09308-.13184.03338-.26269.07037-.397.097-.13965.02765-.28028.044-.42041.06415-.11817.01691-.23389.03925-.353.051C192.52686,207.986,192.26367,208,192,208H92a8,8,0,0,1,0-16h80.686L74.34326,93.65674A7.99984,7.99984,0,0,1,85.65674,82.34326L184,180.686V100a8,8,0,0,1,16,0Zm16-67.99609H40a8,8,0,0,0,0,16H216a8,8,0,0,0,0-16Z"/>
</svg>
