<svg id="Flat" xmlns="http://www.w3.org/2000/svg" viewBox="0 0 256 256">
  <path d="M205.65723,181.65723l-48,48c-.05439.0542-.11365.10034-.16913.15283-.13507.12744-.27.25561-.41364.37353-.1065.08765-.2185.16431-.32831.24561-.10009.074-.19726.15185-.3009.22119-.12182.08154-.24811.15259-.37329.22681-.09943.05884-.19629.12134-.2984.17627-.12415.0664-.25171.1228-.37848.18237-.11053.05176-.21893.10693-.33215.15405-.12116.05-.24481.09058-.3678.13452-.12354.04444-.24548.0918-.37177.13013-.1217.03687-.24536.064-.3684.09473-.13025.033-.25885.06933-.39154.0957-.14075.02783-.2829.04443-.42475.0647-.11651.0166-.23108.03882-.34906.05029-.26251.02588-.526.04-.78961.04s-.5271-.01416-.78961-.04c-.118-.01147-.23255-.03369-.34906-.05029-.14185-.02027-.284-.03687-.42475-.0647-.13269-.02637-.26129-.06274-.39154-.0957-.123-.03076-.2467-.05786-.3684-.09473-.12629-.03833-.24823-.08569-.37177-.13013-.123-.04394-.24664-.08447-.3678-.13452-.11322-.04712-.22162-.10229-.33215-.15405-.12677-.05957-.25433-.116-.37848-.18237-.10211-.05493-.199-.11743-.2984-.17627-.12518-.07422-.25147-.14527-.37329-.22681-.10364-.06934-.20081-.14722-.3009-.22119-.10981-.0813-.22181-.158-.32831-.24561-.14368-.11792-.27857-.24609-.41364-.37353-.05548-.05249-.11474-.09863-.16913-.15283l-48-48a8.00053,8.00053,0,0,1,11.31446-11.31446L144,204.68628V128A88.09957,88.09957,0,0,0,56,40a8,8,0,0,1,0-16A104.11791,104.11791,0,0,1,160,128v76.68628l34.34277-34.34351a8.00053,8.00053,0,0,1,11.31446,11.31446Z"/>
</svg>
