<svg id="Flat" xmlns="http://www.w3.org/2000/svg" viewBox="0 0 256 256">
  <path d="M208,88v88a8,8,0,0,1-16,0V88a48,48,0,0,0-96,0V204.686l34.34277-34.34278a8.00018,8.00018,0,0,1,11.31446,11.31348l-48,48c-.02405.02392-.0506.04394-.07489.06787-.16407.15967-.33265.31494-.50989.46045-.09949.082-.20429.15332-.30664.22949-.10687.07959-.21112.1626-.32208.23682-.1189.07959-.24219.14843-.36426.22119-.10205.061-.20166.125-.30658.18115-.1228.06592-.249.12158-.37439.18066-.11182.05274-.22156.1084-.33612.15577-.12036.0498-.24335.09033-.3656.13379-.12415.04443-.24658.09228-.37342.13086-.12237.03662-.24676.064-.37048.09521-.12939.03223-.25708.06885-.38885.09473-.14222.02832-.28571.04492-.429.06543-.11529.0166-.22864.03857-.34546.0498-.26251.02588-.526.04-.78961.04s-.5271-.01416-.78961-.04c-.11682-.01123-.23017-.0332-.34546-.0498-.14325-.02051-.28674-.03711-.429-.06543-.13177-.02588-.25946-.0625-.38885-.09473-.12372-.03125-.24811-.05859-.37048-.09521-.12684-.03858-.24927-.08643-.37342-.13086-.12225-.04346-.24524-.084-.3656-.13379-.11456-.04737-.2243-.103-.33612-.15577-.12536-.05908-.25159-.11474-.37439-.18066-.10492-.05615-.20453-.12012-.30658-.18115-.12207-.07276-.24536-.1416-.36426-.22119-.111-.07422-.21521-.15723-.32208-.23682-.10235-.07617-.20715-.14746-.30664-.22949-.17724-.14551-.34582-.30078-.50989-.46045-.02429-.02393-.05084-.044-.07489-.06787l-48-48a8.00018,8.00018,0,0,1,11.31446-11.31348L80,204.686V88a64,64,0,0,1,128,0Z"/>
</svg>
