<svg id="Flat" xmlns="http://www.w3.org/2000/svg" viewBox="0 0 256 256">
  <path d="M232,64a8.00008,8.00008,0,0,1-8,8H88V188.6864l34.34277-34.34314a8.00018,8.00018,0,0,1,11.31446,11.31348l-48,48c-.01612.01611-.03394.0293-.05011.04529-.1717.16882-.34955.33117-.53583.48413-.09442.07751-.194.145-.291.21765-.112.08374-.22149.17053-.338.24853-.11481.07679-.23395.14331-.35174.21363-.10621.06347-.21.13012-.31934.18872-.12.06421-.24341.11865-.36591.17627-.11425.05395-.22656.11084-.34368.15942-.11823.04907-.239.0885-.359.13147-.12647.04553-.25122.09387-.38056.13318-.11975.03613-.24133.06262-.3623.093-.13184.03332-.26209.07031-.39643.09692-.14074.02783-.28289.04443-.42468.0647-.11651.01672-.23108.03882-.34906.05041C80.5271,215.986,80.26361,216,80,216s-.5271-.014-.78961-.03992c-.118-.01159-.23255-.03369-.34906-.05041-.14179-.02027-.28394-.03687-.42468-.0647-.13434-.02661-.26459-.0636-.39643-.09692-.121-.0304-.24255-.05689-.3623-.093-.12934-.03931-.25409-.08765-.38056-.13318-.12-.043-.24078-.0824-.359-.13147-.11712-.04858-.22943-.10547-.34368-.15942-.1225-.05762-.24592-.11206-.36591-.17627-.10931-.0586-.21314-.12525-.31934-.18872-.11779-.07032-.23693-.13684-.35174-.21363-.11646-.078-.226-.16479-.338-.24853-.097-.07263-.1966-.14014-.291-.21765-.18628-.153-.36413-.31531-.53583-.48413-.01617-.016-.034-.02918-.05011-.04529l-48-48a8.00018,8.00018,0,0,1,11.31446-11.31348L72,188.6864V64a8.00008,8.00008,0,0,1,8-8H224A8.00008,8.00008,0,0,1,232,64Z"/>
</svg>
