<svg id="Flat" xmlns="http://www.w3.org/2000/svg" viewBox="0 0 256 256">
  <path d="M26.76172,105.902c-.18628-.1529-.36414-.31531-.53583-.48413-.01617-.01593-.034-.02918-.05011-.04529-.02051-.02051-.03747-.04321-.05774-.06391-.16357-.16711-.32178-.33941-.47027-.52032-.08271-.10059-.15491-.20648-.23194-.31006-.07861-.10571-.16052-.20862-.234-.3183-.08087-.12072-.15124-.24591-.22479-.36993-.05938-.1-.12237-.19757-.17749-.30035-.06744-.12592-.12469-.25531-.18493-.384-.05085-.1084-.10517-.21466-.15119-.32568-.05157-.12463-.0935-.25189-.13855-.37848-.04278-.11987-.089-.238-.1261-.36047-.03869-.12775-.06726-.25757-.09942-.38678-.03089-.124-.06586-.24622-.09095-.37244-.03-.15088-.04827-.30328-.06945-.45544-.01484-.10645-.03547-.21094-.046-.31867-.02619-.265-.04017-.53094-.04-.79706V51.71582a8,8,0,0,1,16,0v28.686L60.11719,60.11768a96.10959,96.10959,0,0,1,135.76562,0,8.00018,8.00018,0,1,1-11.31445,11.31347,80.09125,80.09125,0,0,0-113.13672,0L51.147,91.71582H79.833a8,8,0,0,1,0,16h-48c-.26361,0-.5271-.014-.78961-.03992-.118-.01159-.23255-.03369-.34906-.05035-.14179-.02026-.28394-.03693-.42469-.06482-.13434-.02661-.26458-.06354-.39642-.0968-.121-.03046-.24255-.057-.3623-.09314-.12934-.03919-.25409-.08765-.38056-.13312-.12-.043-.24078-.08246-.359-.13141-.11712-.04858-.22943-.10559-.34369-.15954-.12249-.05762-.24591-.11206-.3659-.17627-.10932-.05854-.21314-.12525-.31934-.18866-.1178-.07025-.23694-.13684-.35174-.21369-.11646-.07794-.226-.16473-.338-.24847C26.95569,106.047,26.85614,105.97955,26.76172,105.902ZM232.127,155.49225c-.01055-.10773-.03118-.21222-.046-.31867-.02118-.15216-.03943-.30456-.06945-.45544-.02509-.12622-.06006-.24841-.09095-.37244-.03216-.12921-.06073-.259-.09942-.38678-.03711-.12243-.08332-.2406-.1261-.36047-.045-.12659-.087-.25385-.13855-.37848-.046-.111-.10034-.21728-.15119-.32568-.06024-.12866-.11749-.25806-.18493-.384-.05512-.10278-.11811-.20031-.17749-.30035-.07355-.124-.14392-.24921-.22479-.36993-.07343-.10968-.15534-.21259-.23395-.3183-.077-.10358-.14923-.20947-.23194-.31006-.14849-.18091-.3067-.35321-.47027-.52032-.02027-.0207-.03723-.0434-.05774-.06391-.01611-.01611-.03394-.02936-.05011-.04529-.17169-.16882-.34955-.33123-.53583-.48413-.09393-.07715-.193-.14428-.28955-.21655-.11261-.08423-.22266-.17145-.33972-.24976-.11316-.07568-.23065-.14123-.34662-.21051-.10815-.06463-.214-.1325-.32532-.1922-.11676-.06237-.23687-.11523-.35589-.17144-.1178-.05579-.23371-.11444-.35462-.16455-.11364-.047-.22973-.08478-.345-.12629-.131-.04736-.26056-.09747-.39471-.13806-.11383-.03436-.22956-.05939-.34455-.08862-.13769-.035-.27392-.07337-.41442-.10114-.13038-.02581-.26215-.04077-.39344-.06-.12689-.01862-.252-.04236-.38073-.05494-.23218-.02282-.46515-.03271-.69825-.03527-.02978-.00031-.05865-.00446-.0885-.00446h-48a8,8,0,0,0,0,16h28.686l-20.28467,20.28467a80.09125,80.09125,0,0,1-113.13672,0,8.00018,8.00018,0,0,0-11.31445,11.31347,96.11017,96.11017,0,0,0,135.76562,0L216.167,175.59814v28.686a8,8,0,0,0,16,0V156.28931C232.16718,156.02319,232.1532,155.75726,232.127,155.49225Z"/>
</svg>
