<svg xmlns="http://www.w3.org/2000/svg" viewBox="0 0 256 256"><path d="M200,80V224a8,8,0,0,1-16,0V88H67.3l34.4,34.3a8.1,8.1,0,0,1,0,11.4,8.2,8.2,0,0,1-11.4,0l-48-48h0l-.5-.5-.2-.3-.3-.4c0-.1-.1-.2-.2-.3l-.2-.3c0-.2-.1-.3-.1-.4l-.2-.3c0-.2-.1-.3-.1-.4l-.2-.4a.8.8,0,0,0-.1-.4v-.3a.9.9,0,0,1-.1-.5.4.4,0,0,0-.1-.3V79.2a.4.4,0,0,0,.1-.3.9.9,0,0,1,.1-.5v-.3a.8.8,0,0,0,.1-.4l.2-.4c0-.1.1-.2.1-.4l.2-.3c0-.1.1-.2.1-.4l.2-.3c.1-.1.2-.2.2-.3l.3-.4.2-.3.5-.5h0l48-48a8.1,8.1,0,1,1,11.4,11.4L67.3,72H192A8,8,0,0,1,200,80Z"/></svg>