<svg id="Flat" xmlns="http://www.w3.org/2000/svg" viewBox="0 0 256 256">
  <path d="M195.88281,195.88281a96.11136,96.11136,0,0,1-135.76562,0,8.00052,8.00052,0,0,1,11.31445-11.31445,79.99992,79.99992,0,1,0,0-113.13721L51.147,91.71582H79.833a8,8,0,0,1,0,16h-48c-.02985,0-.05872-.00415-.0885-.00446-.2331-.00256-.46607-.01245-.69825-.03527-.12872-.01258-.25384-.03632-.38073-.05494-.13129-.01928-.26306-.03424-.39344-.06005-.1405-.02777-.27673-.0661-.41442-.10114-.115-.02923-.23072-.05426-.34455-.08862-.13415-.04059-.26367-.0907-.39471-.13806-.11524-.04151-.23133-.07929-.345-.12629-.12091-.05011-.23682-.10876-.35462-.16455-.119-.05621-.23913-.10907-.35589-.17144-.11133-.0597-.21717-.12757-.32532-.1922-.116-.06928-.23346-.13483-.34662-.21051-.11706-.07831-.22711-.16553-.33972-.24976-.0965-.07227-.19562-.1394-.28955-.21655-.18628-.1529-.36414-.31531-.53583-.48413-.01617-.01593-.034-.02918-.05011-.04529-.02051-.02051-.03747-.04321-.05774-.06391-.16357-.16711-.32178-.33941-.47027-.52032-.08271-.10059-.15491-.20648-.23194-.31006-.07861-.10571-.16052-.20862-.234-.3183-.08087-.12072-.15124-.24591-.22479-.36993-.05938-.1-.12237-.19757-.17749-.30035-.06744-.12592-.12469-.25531-.18493-.384-.05085-.1084-.10517-.21466-.15119-.32568-.05157-.12463-.0935-.25189-.13855-.37848-.04278-.11987-.089-.238-.1261-.36047-.03869-.12775-.06726-.25757-.09942-.38678-.03089-.124-.06586-.24622-.09095-.37244-.03-.15088-.04827-.30328-.06945-.45544-.01484-.10645-.03547-.21094-.046-.31867-.02619-.265-.04017-.53094-.04-.79706V51.71582a8,8,0,0,1,16,0v28.686L60.11719,60.11768A96.00062,96.00062,0,0,1,195.88281,195.88281Z"/>
</svg>
