<svg id="Flat" xmlns="http://www.w3.org/2000/svg" viewBox="0 0 256 256">
  <path d="M229.81586,157.48145c-.05439.0581-.10224.11914-.15863.17578l-48,48a8.00053,8.00053,0,0,1-11.31446-11.31446L204.68634,160H128A104.11791,104.11791,0,0,1,24,56a8,8,0,0,1,16,0,88.09957,88.09957,0,0,0,88,88h76.68634l-34.34357-34.34277a8.00053,8.00053,0,0,1,11.31446-11.31446l48,48c.05639.05664.10424.11768.15863.17578.1253.13282.25122.26514.36725.40625.09112.11084.1712.22706.25543.3418.07043.09522.14465.188.21087.28662.08484.12647.15894.25782.23578.38819.05579.09423.11524.186.16724.2832.06915.12891.12811.26172.1897.39355.04931.10547.10211.209.147.31641.05237.12695.095.25586.14069.38477.04211.11816.08758.23437.1242.355.03906.1289.06793.25976.10034.39013.03064.12305.06531.24414.09015.36914.03009.15186.04846.30469.06977.45752.01471.106.03515.20948.04571.3169a8.04267,8.04267,0,0,1,0,1.584c-.01056.10742-.031.21094-.04571.3169-.02131.15283-.03968.30566-.06977.45752-.02484.125-.05951.24609-.09015.36914-.03241.13037-.06128.26123-.10034.39013-.03662.12061-.08209.23682-.1242.355-.04566.12891-.08832.25782-.14069.38477-.04486.10742-.09766.21094-.147.31641-.06159.13183-.12055.26464-.1897.39355-.052.09717-.11145.189-.16724.2832-.07684.13037-.15094.26172-.23578.38819-.06622.09863-.14044.1914-.21087.28662-.08423.11474-.16431.231-.25543.3418C230.06708,157.21631,229.94116,157.34863,229.81586,157.48145Z"/>
</svg>
