<svg xmlns="http://www.w3.org/2000/svg" viewBox="0 0 256 256"><path d="M152.1,104a8,8,0,0,1,8-8h80a8,8,0,1,1,0,16h-80A8,8,0,0,1,152.1,104Zm88,24h-80a8,8,0,0,0,0,16h80a8,8,0,1,0,0-16Zm0,32h-80a8,8,0,0,0,0,16h80a8,8,0,1,0,0-16Zm0,32H72.1a8,8,0,0,0,0,16h168a8,8,0,1,0,0-16ZM80,176A55.9,55.9,0,0,1,30.5,93.9,28,28,0,0,1,48,44a7.6,7.6,0,0,1,4.2,1.2L114,83.8A12,12,0,0,0,112,60a8,8,0,0,1,0-16,28,28,0,0,1,0,56,7.6,7.6,0,0,1-4.2-1.2l-30-18.7A40,40,0,0,0,72,159.2V114.5a8,8,0,0,1,8-8h0a8,8,0,0,1,8,8v44.7a39.9,39.9,0,0,0,30.8-29.5,8,8,0,0,1,9.7-5.8,7.9,7.9,0,0,1,5.8,9.6A55.8,55.8,0,0,1,80,176ZM40,80.9A56.3,56.3,0,0,1,58.8,68.2L46,60.2A11.9,11.9,0,0,0,36,72,11.8,11.8,0,0,0,40,80.9Z"/></svg>