<svg id="Flat" xmlns="http://www.w3.org/2000/svg" viewBox="0 0 256 256">
  <path d="M196.09521,128a195.65007,195.65007,0,0,0,19.2002-32.71777c11.07715-24.61524,11.21436-44.13575.38574-54.96387-17.44824-17.44482-53.14013-4.90918-87.68066,19.68481-34.541-24.59546-70.23291-37.13256-87.68164-19.68481C29.49023,51.14648,29.62744,70.667,40.70459,95.28223A195.65007,195.65007,0,0,0,59.90479,128a195.65007,195.65007,0,0,0-19.2002,32.71777c-11.07715,24.61524-11.21436,44.13575-.38574,54.96387,5.61767,5.61719,13.12549,8.127,21.8789,8.127,18.43262,0,42.38184-11.1394,65.80225-27.81616,23.42041,16.67725,47.36914,27.81616,65.80225,27.81616,8.75048,0,16.2622-2.51074,21.8789-8.127h0c10.82862-10.82812,10.69141-30.34863-.38574-54.96387A195.65007,195.65007,0,0,0,196.09521,128Zm8.27247-76.36719c5.62451,5.624,4.25537,19.48731-3.66309,37.084a172.9306,172.9306,0,0,1-14.79053,25.93188,306.72561,306.72561,0,0,0-21.14453-23.41821,300.60576,300.60576,0,0,0-23.48779-21.13526C172.06689,49.16577,196.752,44.01636,204.36768,51.63281ZM176.12012,128a288.40092,288.40092,0,0,1-22.66407,25.45508A288.62853,288.62853,0,0,1,128,176.15479,288.55874,288.55874,0,0,1,102.544,153.45508,288.40092,288.40092,0,0,1,79.87988,128,296.34949,296.34949,0,0,1,128,79.84521a288.62853,288.62853,0,0,1,25.45605,22.69971A288.40092,288.40092,0,0,1,176.12012,128ZM55.29541,88.7168c-7.91846-17.59668-9.2876-31.46-3.66309-37.084,7.61573-7.61719,32.30079-2.46728,63.08643,18.46265a300.5105,300.5105,0,0,0-23.48828,21.135,306.72561,306.72561,0,0,0-21.14453,23.41821A172.9306,172.9306,0,0,1,55.29541,88.7168ZM51.63232,204.36719c-5.62451-5.624-4.25537-19.48731,3.66309-37.084a172.9306,172.9306,0,0,1,14.79053-25.93188,306.72561,306.72561,0,0,0,21.14453,23.41821,300.46663,300.46663,0,0,0,23.4917,21.13208C83.93506,206.83252,59.24805,211.98193,51.63232,204.36719Zm89.645-18.46509a300.44143,300.44143,0,0,0,23.49219-21.13257,306.72561,306.72561,0,0,0,21.14453-23.41821,172.9306,172.9306,0,0,1,14.79053,25.93188c7.91846,17.59668,9.2876,31.46,3.66309,37.084C196.75146,211.98535,172.06494,206.83447,141.27734,185.9021ZM140,128a12,12,0,1,1-12-12A12,12,0,0,1,140,128Z"/>
</svg>
