<svg id="Flat" xmlns="http://www.w3.org/2000/svg" viewBox="0 0 256 256">
  <path d="M216,39.99963H68.5293a16.0796,16.0796,0,0,0-13.71973,7.76856L9.13965,123.88342a8.00334,8.00334,0,0,0,0,8.23242L54.80859,208.2301a16.08,16.08,0,0,0,13.72071,7.76953H216a16.01833,16.01833,0,0,0,16-16v-144A16.01833,16.01833,0,0,0,216,39.99963ZM61.66992,204.11584l6.85938-4.11621.00195.00293ZM216,199.99963H68.53027l-43.20117-72,43.2002-72H216ZM106.34277,146.34241l18.34278-18.34278-18.34278-18.34277a8.00053,8.00053,0,0,1,11.31446-11.31445L136,116.68518l18.34277-18.34277a8.00053,8.00053,0,0,1,11.31446,11.31445l-18.34278,18.34277,18.34278,18.34278a8.00053,8.00053,0,0,1-11.31446,11.31445L136,139.31409l-18.34277,18.34277a8.00053,8.00053,0,1,1-11.31446-11.31445Z"/>
</svg>
