<svg xmlns="http://www.w3.org/2000/svg" viewBox="0 0 256 256"><path d="M216,40H68.5a16.1,16.1,0,0,0-13.7,7.8L9.1,123.9a8,8,0,0,0,0,8.2l45.7,76.1A16.1,16.1,0,0,0,68.5,216H216a16,16,0,0,0,16-16V56A16,16,0,0,0,216,40ZM61.7,204.1l6.8-4.1h0ZM216,200H68.5L25.3,128,68.5,56H216ZM106.3,146.3,124.7,128l-18.4-18.3a8.1,8.1,0,0,1,11.4-11.4L136,116.7l18.3-18.4a8.1,8.1,0,0,1,11.4,11.4L147.3,128l18.4,18.3a8.1,8.1,0,0,1,0,11.4A8.3,8.3,0,0,1,160,160a8.5,8.5,0,0,1-5.7-2.3L136,139.3l-18.3,18.4A8.3,8.3,0,0,1,112,160a8.5,8.5,0,0,1-5.7-2.3A8.1,8.1,0,0,1,106.3,146.3Z"/></svg>