<svg xmlns="http://www.w3.org/2000/svg" viewBox="0 0 256 256"><path d="M116,128a12,12,0,1,1,12,12A12,12,0,0,1,116,128Zm96.3,27.7a40,40,0,0,1-56.6,56.6L128,184.6l-27.7,27.7a40,40,0,0,1-56.6-56.6L71.4,128,43.7,100.3a40,40,0,0,1,56.6-56.6L128,71.4l27.7-27.7a40,40,0,0,1,56.6,56.6L184.6,128Zm-73-73,34,34L201,89a24,24,0,0,0-34-34ZM128,94.1,94.1,128,128,161.9,161.9,128ZM82.7,116.7l34-34L89,55A24,24,0,0,0,55,89h0Zm34,56.6-34-34L55,167a24,24,0,0,0,34,34ZM208,184a24.2,24.2,0,0,0-7-17l-27.7-27.7-34,34L167,201a24,24,0,0,0,41-17Z"/></svg>