<svg id="Flat" xmlns="http://www.w3.org/2000/svg" viewBox="0 0 256 256">
  <path d="M116,128a12,12,0,1,1,12,12A12,12,0,0,1,116,128Zm96.28418,27.71582a39.99987,39.99987,0,1,1-56.56836,56.56836L128,184.56836l-27.71582,27.71582a40,40,0,1,1-56.56836-56.5686L71.43164,128,43.71582,100.28418a39.99987,39.99987,0,1,1,56.56836-56.56836L128,71.43164l27.71582-27.71582a40,40,0,1,1,56.56836,56.5686L184.56836,128ZM139.314,82.74561,173.25439,116.686,200.96973,88.9707a23.99951,23.99951,0,1,0-33.93946-33.9414ZM128,94.05957,94.05957,128,128,161.94043l33.94043-33.94019ZM82.74561,116.686,116.686,82.74561,88.96973,55.0293A23.99942,23.99942,0,1,0,55.03027,88.97046v.00024ZM116.686,173.25439,82.74561,139.314,55.03027,167.0293a23.99951,23.99951,0,1,0,33.93946,33.9414ZM208,184a23.84154,23.84154,0,0,0-7.03027-16.97021l-27.71534-27.71558L139.314,173.25439l27.71631,27.71631A24,24,0,0,0,208,184Z"/>
</svg>
