<svg id="Flat" xmlns="http://www.w3.org/2000/svg" viewBox="0 0 256 256">
  <path d="M248,120h-8V88a16.01833,16.01833,0,0,0-16-16H208V64a16.01833,16.01833,0,0,0-16-16H168a16.01833,16.01833,0,0,0-16,16v56H104V64A16.01833,16.01833,0,0,0,88,48H64A16.01833,16.01833,0,0,0,48,64v8H32A16.01833,16.01833,0,0,0,16,88v32H8a8,8,0,0,0,0,16h8v32a16.01833,16.01833,0,0,0,16,16H48v8a16.01833,16.01833,0,0,0,16,16H88a16.01833,16.01833,0,0,0,16-16V136h48v56a16.01833,16.01833,0,0,0,16,16h24a16.01833,16.01833,0,0,0,16-16v-8h16a16.01833,16.01833,0,0,0,16-16V136h8a8,8,0,0,0,0-16ZM32,168V88H48v80Zm56,24H64V64H88l.00488,63.8999c0,.03369-.00488.06641-.00488.1001,0,.03418.00488.06641.00488.10059l.00537,63.89892Zm104,0H168V64h24l.00146,15.9751L192,80l.00146.0249.00733,95.79981c-.001.05908-.00879.11621-.00879.17529,0,.05957.00781.1167.00879.17578l.00146,15.82373Zm32-24H208V88h16Z"/>
</svg>
