<svg id="Flat" xmlns="http://www.w3.org/2000/svg" viewBox="0 0 256 256">
  <path d="M232,72H216V64a16.01833,16.01833,0,0,0-16-16H176a16.01833,16.01833,0,0,0-16,16v56H96V64A16.01833,16.01833,0,0,0,80,48H56A16.01833,16.01833,0,0,0,40,64v8H24A16.01833,16.01833,0,0,0,8,88v80a16.01833,16.01833,0,0,0,16,16H40v8a16.01833,16.01833,0,0,0,16,16H80a16.01833,16.01833,0,0,0,16-16V136h64v56a16.01833,16.01833,0,0,0,16,16h24a16.01833,16.01833,0,0,0,16-16v-8h16a16.01833,16.01833,0,0,0,16-16V88A16.01833,16.01833,0,0,0,232,72ZM24,168V88H40v80Zm56,24H56V64H80l.00488,63.8999c0,.03369-.00488.06641-.00488.1001,0,.03418.00488.06641.00488.10059l.00537,63.89892Zm120,0H176V64h24l.00146,15.9751L200,80l.00146.0249.00733,95.79981c-.001.05908-.00879.11621-.00879.17529,0,.05957.00781.1167.00879.17578l.00146,15.82373Zm32-24H216V88h16Z"/>
</svg>
