<svg id="Flat" xmlns="http://www.w3.org/2000/svg" viewBox="0 0 256 256">
  <path d="M128,24A104,104,0,1,0,232,128,104.11791,104.11791,0,0,0,128,24ZM71.31421,195.25244c1.49951-1.76806,2.948-3.57764,4.321-5.4331a8.00022,8.00022,0,0,0-12.8623-9.51709c-.8833,1.19384-1.81079,2.36035-2.75708,3.51269a87.82847,87.82847,0,0,1,.00024-111.62988c.94532,1.15137,1.87183,2.3164,2.7544,3.50928a8.00007,8.00007,0,1,0,12.8623-9.51661c-1.37231-1.85449-2.82007-3.66357-4.3186-5.43017a87.81129,87.81129,0,0,1,113.37158,0c-1.49853,1.76709-2.94653,3.57617-4.3186,5.43017a8.00022,8.00022,0,1,0,12.8623,9.51709c.88257-1.19287,1.80908-2.35839,2.7544-3.50976a87.82806,87.82806,0,0,1,0,111.62988c-.94605-1.15234-1.87354-2.31885-2.75684-3.51269a8.00022,8.00022,0,0,0-12.8623,9.51709c1.373,1.85546,2.82177,3.66552,4.321,5.4331a87.81129,87.81129,0,0,1-113.37158,0Zm89.9563-83.47217a104.88164,104.88164,0,0,1,4.11914-16.83252,8,8,0,0,1,15.17285,5.07813,88.90161,88.90161,0,0,0-3.48926,14.25732,7.99986,7.99986,0,1,1-15.80273-2.50293Zm14.24365,54.31543a7.99121,7.99121,0,0,1-10.12549-5.04687,104.83474,104.83474,0,0,1-4.11865-16.833,7.99978,7.99978,0,1,1,15.80273-2.502,88.82829,88.82829,0,0,0,3.48877,14.25683A7.99959,7.99959,0,0,1,175.51416,166.0957ZM75.4375,100.02588a8,8,0,1,1,15.17285-5.07813,104.88164,104.88164,0,0,1,4.11914,16.83252,7.99986,7.99986,0,1,1-15.80273,2.50293A88.90161,88.90161,0,0,0,75.4375,100.02588ZM94.73,144.21582a104.83474,104.83474,0,0,1-4.11865,16.833,8,8,0,0,1-15.17285-5.07813,88.82829,88.82829,0,0,0,3.48877-14.25683,7.99978,7.99978,0,1,1,15.80273,2.502Z"/>
</svg>
