<svg xmlns="http://www.w3.org/2000/svg" viewBox="0 0 256 256"><path d="M202.3,200.7a103.8,103.8,0,0,0,0-145.4,2.3,2.3,0,0,0-.7-.7L201,54A103.8,103.8,0,0,0,55,54l-.6.6a2.3,2.3,0,0,0-.7.7,103.8,103.8,0,0,0,0,145.4,2.3,2.3,0,0,0,.7.7l.6.6a103.8,103.8,0,0,0,146,0l.6-.6ZM40.4,136H79.6A86.8,86.8,0,0,1,60,183.8,87,87,0,0,1,40.4,136ZM60,72.2A86.8,86.8,0,0,1,79.6,120H40.4A87,87,0,0,1,60,72.2ZM215.6,120H176.4A86.8,86.8,0,0,1,196,72.2,87,87,0,0,1,215.6,120Zm-55.3,0H136V40.4a87.3,87.3,0,0,1,48.7,20.3A103.4,103.4,0,0,0,160.3,120ZM120,120H95.7A103.4,103.4,0,0,0,71.3,60.7,87.3,87.3,0,0,1,120,40.4ZM95.7,136H120v79.6a87.3,87.3,0,0,1-48.7-20.3A103.4,103.4,0,0,0,95.7,136Zm40.3,0h24.3a103.4,103.4,0,0,0,24.4,59.3A87.3,87.3,0,0,1,136,215.6Zm40.4,0h39.2A87,87,0,0,1,196,183.8,86.8,86.8,0,0,1,176.4,136Z"/></svg>