<svg id="Flat" xmlns="http://www.w3.org/2000/svg" viewBox="0 0 256 256">
  <path d="M202.27832,200.7124a103.80405,103.80405,0,0,0,.00562-145.41894,8.0466,8.0466,0,0,0-.637-.72412,8.14007,8.14007,0,0,0-.68652-.60547,103.80936,103.80936,0,0,0-145.92139.00049,7.424,7.424,0,0,0-1.323,1.3291,103.80405,103.80405,0,0,0,.00562,145.41894,7.43815,7.43815,0,0,0,1.312,1.31787,103.8092,103.8092,0,0,0,145.93262,0,7.43815,7.43815,0,0,0,1.312-1.31787ZM40.36743,136H79.62866a87.17429,87.17429,0,0,1-19.60132,47.82861A87.59826,87.59826,0,0,1,40.36743,136ZM60.0271,72.17139A87.17459,87.17459,0,0,1,79.62866,120H40.36743A87.60125,87.60125,0,0,1,60.0271,72.17139ZM215.63257,120H176.37134A87.17459,87.17459,0,0,1,195.9729,72.17139,87.60125,87.60125,0,0,1,215.63257,120Zm-55.32837,0H136V40.36768a87.61382,87.61382,0,0,1,48.67578,20.37158A103.07348,103.07348,0,0,0,160.3042,120ZM120,120H95.6958A103.07348,103.07348,0,0,0,71.32422,60.73926,87.61382,87.61382,0,0,1,120,40.36768ZM95.6958,136H120v79.63232a87.61746,87.61746,0,0,1-48.67578-20.37109A103.07759,103.07759,0,0,0,95.6958,136ZM136,136h24.3042a103.07759,103.07759,0,0,0,24.37158,59.26123A87.61746,87.61746,0,0,1,136,215.63232Zm40.37134,0h39.26123a87.59826,87.59826,0,0,1-19.65991,47.82861A87.17429,87.17429,0,0,1,176.37134,136Z"/>
</svg>
