<svg id="Flat" xmlns="http://www.w3.org/2000/svg" viewBox="0 0 256 256">
  <path d="M88,16a8.00008,8.00008,0,0,1,8-8h64a8,8,0,0,1,0,16H96A8.00008,8.00008,0,0,1,88,16ZM208,64V216a24.0275,24.0275,0,0,1-24,24H72a24.0275,24.0275,0,0,1-24-24V64A24.02734,24.02734,0,0,1,72,40H184A24.02734,24.02734,0,0,1,208,64Zm-16,0a8.00917,8.00917,0,0,0-8-8H72a8.00917,8.00917,0,0,0-8,8V216a8.00917,8.00917,0,0,0,8,8H184a8.00917,8.00917,0,0,0,8-8Zm-48,68H123.81641l11.61132-29.02881a7.99995,7.99995,0,1,0-14.85546-5.94238l-16,40A7.99991,7.99991,0,0,0,112,148h20.18359l-11.61132,29.02881a7.99995,7.99995,0,1,0,14.85546,5.94238l16-40A7.99991,7.99991,0,0,0,144,132Z"/>
</svg>
