<svg xmlns="http://www.w3.org/2000/svg" viewBox="0 0 256 256"><path d="M88,8a8,8,0,0,1,8-8h64a8,8,0,0,1,0,16H96A8,8,0,0,1,88,8ZM208,56V208a24.1,24.1,0,0,1-24,24H72a24.1,24.1,0,0,1-24-24V56A24.1,24.1,0,0,1,72,32H184A24.1,24.1,0,0,1,208,56Zm-16,0a8,8,0,0,0-8-8H72a8,8,0,0,0-8,8V208a8,8,0,0,0,8,8H184a8,8,0,0,0,8-8Zm-48,68H123.8l11.6-29a8,8,0,1,0-14.8-6l-16,40a8,8,0,0,0,.8,7.5A7.9,7.9,0,0,0,112,140h20.2l-11.6,29a7.9,7.9,0,0,0,4.4,10.4,8,8,0,0,0,3,.6,7.9,7.9,0,0,0,7.4-5l16-40a8,8,0,0,0-.8-7.5A7.9,7.9,0,0,0,144,124Z"/></svg>