<svg id="Flat" xmlns="http://www.w3.org/2000/svg" viewBox="0 0 256 256">
  <path d="M256,96v64a8,8,0,0,1-16,0V96a8,8,0,0,1,16,0ZM224,72V184a24.0275,24.0275,0,0,1-24,24H48a24.0275,24.0275,0,0,1-24-24V72A24.0275,24.0275,0,0,1,48,48H200A24.0275,24.0275,0,0,1,224,72Zm-16,0a8.00917,8.00917,0,0,0-8-8H48a8.00917,8.00917,0,0,0-8,8V184a8.00917,8.00917,0,0,0,8,8H200a8.00917,8.00917,0,0,0,8-8Zm-68,48H119.81641l11.61132-29.02881a7.99995,7.99995,0,1,0-14.85546-5.94238l-16,40A7.99974,7.99974,0,0,0,108,136h20.18359l-11.61132,29.02881a7.99995,7.99995,0,1,0,14.85546,5.94238l16-40A7.99974,7.99974,0,0,0,140,120Z"/>
</svg>
