<svg id="Flat" xmlns="http://www.w3.org/2000/svg" viewBox="0 0 256 256">
  <path d="M248,96v64a8,8,0,0,1-16,0V96a8,8,0,0,1,16,0ZM216,72V184a24.0275,24.0275,0,0,1-24,24H40a24.0275,24.0275,0,0,1-24-24V72A24.0275,24.0275,0,0,1,40,48H192A24.0275,24.0275,0,0,1,216,72Zm-16,0a8.00917,8.00917,0,0,0-8-8H40a8.00917,8.00917,0,0,0-8,8V184a8.00917,8.00917,0,0,0,8,8H192a8.00917,8.00917,0,0,0,8-8Zm-65.6001,8.00049a7.99977,7.99977,0,0,0-8,8v80a8,8,0,0,0,16,0v-80A7.99977,7.99977,0,0,0,134.3999,80.00049Zm-36.7998,0a7.99977,7.99977,0,0,0-8,8v80a8,8,0,0,0,16,0v-80A7.99977,7.99977,0,0,0,97.6001,80.00049Zm-36.8003,0a7.99977,7.99977,0,0,0-8,8v80a8,8,0,0,0,16,0v-80A7.99977,7.99977,0,0,0,60.7998,80.00049Zm110.4004,0a7.99977,7.99977,0,0,0-8,8v80a8,8,0,0,0,16,0v-80A7.99977,7.99977,0,0,0,171.2002,80.00049Z"/>
</svg>
