<svg id="Flat" xmlns="http://www.w3.org/2000/svg" viewBox="0 0 256 256">
  <path d="M53.91992,34.61816A8.0006,8.0006,0,1,0,42.08008,45.38184l16.8515,18.53662A79.70308,79.70308,0,0,0,48.20312,104v8c0,34.33594-7.0791,53.7207-13.0166,63.93555A15.99886,15.99886,0,0,0,48.9834,200H88a40,40,0,0,0,80,0h14.642l19.43805,21.38184a8.0006,8.0006,0,1,0,11.83984-10.76368ZM128,224a24.0275,24.0275,0,0,1-24-24h48A24.0275,24.0275,0,0,1,128,224ZM49.01855,183.97656C55.94629,172.06055,64.20312,149.90039,64.20312,112v-8a63.874,63.874,0,0,1,6.1742-27.49121l97.71649,107.488ZM85.56836,45.36328a7.99916,7.99916,0,0,1,2.97852-10.91406A79.99228,79.99228,0,0,1,128.6084,24.002c43.66894.32422,79.19629,36.61719,79.19629,80.90235V112c0,21.85059,2.84179,40.14844,8.44531,54.38672a8.00007,8.00007,0,1,1-14.88867,5.85937c-6.34082-16.1123-9.55664-36.38183-9.55664-60.24609v-7.0957c0-35.52832-28.40332-64.64356-63.31543-64.90235A63.607,63.607,0,0,0,96.48242,48.3418,7.99918,7.99918,0,0,1,85.56836,45.36328Z"/>
</svg>
