<svg id="Flat" xmlns="http://www.w3.org/2000/svg" viewBox="0 0 256 256">
  <path d="M95.99316,16.012a8.0004,8.0004,0,0,1,8-8h48a8,8,0,0,1,0,16h-48A8.0004,8.0004,0,0,1,95.99316,16.012ZM221.041,200.06763a15.74644,15.74644,0,0,1-13.79688,7.94433H167.195a40.00389,40.00389,0,0,1-78.39,0H48.73633a16.14446,16.14446,0,0,1-13.98242-8.12012,15.50858,15.50858,0,0,1,.06933-15.73535C40.834,173.94653,48,154.53149,48,120.012a80.01956,80.01956,0,0,1,89.26953-79.47558c39.73926,4.48242,70.15723,40.10449,70.75391,82.85839.45117,32.24707,7.292,50.66211,12.95215,60.43067A16.27381,16.27381,0,0,1,221.041,200.06763ZM150.62378,208.012H105.37622a23.99486,23.99486,0,0,0,45.24756,0Zm56.57153-16a.39.39,0,0,0-.06347-.165c-6.61622-11.41992-14.60743-32.52636-15.10645-68.22949-.48535-34.71777-24.7959-63.59961-56.54883-67.18262A64.02239,64.02239,0,0,0,64,120.012c0,37.84668-8.24707,60.01465-15.23535,72Z"/>
</svg>
