<svg id="Flat" xmlns="http://www.w3.org/2000/svg" viewBox="0 0 256 256">
  <path d="M167.9248,232.02051a8.00039,8.00039,0,0,1-8,8h-64a8,8,0,0,1,0-16h64A8.00039,8.00039,0,0,1,167.9248,232.02051Zm45.457-10.10059a8.00207,8.00207,0,0,1-11.30176-.53808l-12.14667-13.36133H48.76074A15.998,15.998,0,0,1,34.9502,183.94824C40.90332,173.73438,48,154.35156,48,120.02051v-16A79.526,79.526,0,0,1,58.8316,63.80859L42.08008,45.38184A8.0006,8.0006,0,1,1,53.91992,34.61816l160,176A8.002,8.002,0,0,1,213.38184,221.91992Zm-37.99555-29.90137L70.26221,76.38232A63.69364,63.69364,0,0,0,64,104.02051v16c0,37.90332-8.28027,60.0664-15.22656,71.98535ZM96.44336,48.32715a64.35025,64.35025,0,0,1,32.043-8.30469C163.50781,40.28223,192,69.39746,192,104.9248v15.09571c0,17.76172,1.80762,33.66211,5.37207,47.25879a7.99969,7.99969,0,0,0,15.47656-4.05664C209.63184,150.94922,208,136.41406,208,120.02051V104.9248c0-44.28418-35.61621-80.57714-79.39551-80.90234A80.42351,80.42351,0,0,0,88.541,34.415a7.9999,7.9999,0,1,0,7.90234,13.91211Z"/>
</svg>
