<svg id="Flat" xmlns="http://www.w3.org/2000/svg" viewBox="0 0 256 256">
  <path d="M95.99316,16.0127a8.0004,8.0004,0,0,1,8-8h48a8,8,0,0,1,0,16h-48A8.00041,8.00041,0,0,1,95.99316,16.0127ZM213.38184,221.91992a8.00207,8.00207,0,0,1-11.30176-.53808L189.92633,208.0127H167.195a40.00389,40.00389,0,0,1-78.39,0H48.73633a16.14452,16.14452,0,0,1-13.98242-8.1211,15.50859,15.50859,0,0,1,.06933-15.73535C40.834,173.94629,48,154.53125,48,120.0127A79.62177,79.62177,0,0,1,65.04706,70.64551l-22.967-25.26367A8.0006,8.0006,0,1,1,53.91992,34.61816l160,176A8.002,8.002,0,0,1,213.38184,221.91992ZM150.62378,208.0127H105.37622a23.99486,23.99486,0,0,0,45.24756,0Zm24.75708-16L76.0047,82.699A63.69333,63.69333,0,0,0,64,120.0127c0,37.8457-8.248,60.01464-15.23633,72ZM105.50293,60.07617a64.03118,64.03118,0,0,1,29.97363-3.64062c31.75293,3.582,56.06348,32.46386,56.54883,67.18164.22656,16.30859,2.02734,31,5.35059,43.66894a8.00019,8.00019,0,0,0,15.47656-4.06054c-2.99512-11.416-4.62012-24.81739-4.8291-39.83106-.59668-42.75488-31.01465-78.376-70.75391-82.85742a79.87754,79.87754,0,0,0-37.3916,4.56055,7.99994,7.99994,0,1,0,5.625,14.97851Z"/>
</svg>
