<svg id="Flat" xmlns="http://www.w3.org/2000/svg" viewBox="0 0 256 256">
  <path d="M203.99975,112a47.769,47.769,0,0,0-15.79431,2.68237L175.84161,92.20264l-.01923-.03492L164.73022,72h19.26953a8,8,0,0,0,0-16H151.19993a7.99969,7.99969,0,0,0-7.00975,11.85547L155.26965,88h-53.7395L86.20971,60.14453A8.00018,8.00018,0,0,0,79.19993,56H51.99975a8,8,0,0,0,0,16H74.46948L87.39,95.49194,72.58233,116.64575a48.15222,48.15222,0,1,0,13.09528,9.19312l10.30572-14.72266L124.99,163.85547a8.00009,8.00009,0,1,0,14.01953-7.71094L110.33014,104h53.73944l10.1278,18.41406A47.96128,47.96128,0,1,0,203.99975,112Zm-120,48a32.012,32.012,0,1,1-20.78784-29.96777L45.446,155.41211a8,8,0,1,0,13.10742,9.17578l17.7547-25.364A31.85135,31.85135,0,0,1,83.99975,160Zm120,32A31.97749,31.97749,0,0,1,182.07,136.728l14.92,27.12744a8.00009,8.00009,0,1,0,14.01953-7.71094L196.0769,128.99414A32.001,32.001,0,1,1,203.99975,192Z"/>
</svg>
