<svg id="Flat" xmlns="http://www.w3.org/2000/svg" viewBox="0 0 256 256">
  <path d="M208,112a47.75109,47.75109,0,0,0-16.93359,3.09375L165.92871,72H192a8.00917,8.00917,0,0,1,8,8,8,8,0,0,0,16,0,24.02718,24.02718,0,0,0-24-24H152a7.99956,7.99956,0,0,0-6.91016,12.03076L156.73859,88H99.26141L82.91016,59.96924A7.999,7.999,0,0,0,76,56H48a8,8,0,0,0,0,16H71.40527l13.716,23.51318L69.41119,117.05811a48.13633,48.13633,0,1,0,12.918,9.44018l11.59266-15.89844,31.168,53.43091a7.99983,7.99983,0,1,0,13.82032-8.06152L108.59479,104H166.0719L177.256,123.17285A47.96935,47.96935,0,1,0,208,112ZM80,160a32.0292,32.0292,0,1,1-20.21423-29.74121L41.53613,155.28662a7.99985,7.99985,0,1,0,12.92774,9.42676L72.71,139.69043A31.85151,31.85151,0,0,1,80,160Zm128,32a31.9821,31.9821,0,0,1-22.51257-54.71631l15.60241,26.74707a7.99983,7.99983,0,1,0,13.82032-8.06152l-15.60852-26.75781A31.99718,31.99718,0,1,1,208,192Z"/>
</svg>
