<svg xmlns="http://www.w3.org/2000/svg" viewBox="0 0 256 256"><path d="M208,112a47,47,0,0,0-16.9,3.1L165.9,72H192a8,8,0,0,1,8,8,8,8,0,0,0,16,0,24.1,24.1,0,0,0-24-24H152a7.8,7.8,0,0,0-6.9,4,7.7,7.7,0,0,0,0,8l11.6,20H99.3L82.9,60A7.9,7.9,0,0,0,76,56H48a8,8,0,0,0,0,16H71.4L85.1,95.5,69.4,117.1A46.6,46.6,0,0,0,48,112a48.1,48.1,0,1,0,34.3,14.5l11.6-15.9L125.1,164a8,8,0,1,0,13.8-8l-30.3-52h57.5l11.2,19.2A47.9,47.9,0,1,0,208,112ZM80,160a32,32,0,1,1-32-32,31,31,0,0,1,11.8,2.3l-18.3,25a8,8,0,0,0,1.8,11.2A8.2,8.2,0,0,0,48,168a7.9,7.9,0,0,0,6.5-3.3l18.2-25A31.5,31.5,0,0,1,80,160Zm128,32a32.1,32.1,0,0,1-32-32,31.6,31.6,0,0,1,9.5-22.7L201.1,164a8,8,0,1,0,13.8-8l-15.6-26.8A31.5,31.5,0,0,1,208,128a32,32,0,0,1,0,64Z"/></svg>