<svg xmlns="http://www.w3.org/2000/svg" viewBox="0 0 256 256"><path d="M176,68a12,12,0,1,1-12-12A12,12,0,0,1,176,68Zm-50.9,61.9a7.8,7.8,0,0,0-11.2,1l-40,48a7.8,7.8,0,0,0,1,11.2,7.8,7.8,0,0,0,11.2-1l40-48A7.8,7.8,0,0,0,125.1,129.9ZM240,80a7.9,7.9,0,0,1-3.6,6.7L216,100.3V120A104.2,104.2,0,0,1,112,224H8a8,8,0,0,1-6.2-13L96,93.2V76A60,60,0,0,1,213.2,57.9l23.2,15.4A7.9,7.9,0,0,1,240,80Zm-22.4,0L201.9,69.5a7.8,7.8,0,0,1-3.3-4.6A44,44,0,0,0,112,76V96a7.7,7.7,0,0,1-1.8,5L24.6,208H112a88.1,88.1,0,0,0,88-88V96a7.9,7.9,0,0,1,3.6-6.7Z"/></svg>