<svg id="Flat" xmlns="http://www.w3.org/2000/svg" viewBox="0 0 256 256">
  <path d="M176,68a12,12,0,1,1-12-12A12,12,0,0,1,176,68Zm-50.87891,61.85449a7.99855,7.99855,0,0,0-11.2666,1.02393l-40,48a7.99987,7.99987,0,1,0,12.291,10.24316l40-48A7.999,7.999,0,0,0,125.12109,129.85449ZM240,80a7.9994,7.9994,0,0,1-3.56252,6.65625L216,100.28125V120A104.11791,104.11791,0,0,1,112,224H8a7.99963,7.99963,0,0,1-6.24707-12.99756L96,93.19385V76A60.00943,60.00943,0,0,1,213.207,57.85547l23.23045,15.48828A7.9994,7.9994,0,0,1,240,80Zm-22.42188,0L201.89551,69.544a8.00117,8.00117,0,0,1-3.30567-4.64454A44.0074,44.0074,0,0,0,112,76V96a8.00033,8.00033,0,0,1-1.75293,4.99756L24.64453,208H112a88.09957,88.09957,0,0,0,88-88V96a7.99946,7.99946,0,0,1,3.56248-6.65625Z"/>
</svg>
