<svg xmlns="http://www.w3.org/2000/svg" viewBox="0 0 256 256"><path d="M213.9,210.6l-31.4-34.5h0l-31.3-34.5h-.1L53.9,34.6a7.9,7.9,0,0,0-11.3-.5,8,8,0,0,0-.5,11.3l70.8,77.9L51.2,169.6A8,8,0,0,0,56,184a7.7,7.7,0,0,0,4.8-1.6L112,144v80a8.2,8.2,0,0,0,4.4,7.2,9.4,9.4,0,0,0,3.6.8,7.7,7.7,0,0,0,4.8-1.6l50.8-38.1,26.5,29.1a8,8,0,0,0,11.3.5A7.9,7.9,0,0,0,213.9,210.6ZM128,208V144l11.8,8.8,25,27.6ZM112,71.6V32a8,8,0,0,1,12.8-6.4l64,48a8,8,0,0,1,0,12.8l-33.5,25.1a7.9,7.9,0,0,1-4.8,1.6,7.8,7.8,0,0,1-6.4-3.2,7.9,7.9,0,0,1,1.6-11.2l25-18.7L128,48V71.6a8,8,0,0,1-16,0Z"/></svg>