<svg id="Flat" xmlns="http://www.w3.org/2000/svg" viewBox="0 0 256 256">
  <path d="M188.7998,169.60193,133.334,128.00232,188.7998,86.40271a8.00048,8.00048,0,0,0,0-12.80078l-64-48A8.00031,8.00031,0,0,0,112,32.00232V112.002l-51.2002-38.4a8.00019,8.00019,0,0,0-9.5996,12.80078L106.666,128.00232,51.2002,169.60193a8.00019,8.00019,0,0,0,9.5996,12.80078l51.2002-38.4v79.99963a8.00024,8.00024,0,0,0,12.7998,6.40039l64-48a8.00048,8.00048,0,0,0,0-12.80078ZM128,48.00232l42.6665,32-42.6665,32Zm0,160v-64l42.6665,32Zm80-79.99585a12,12,0,1,1-12-12A12,12,0,0,1,208,128.00647Zm-156,12a12,12,0,1,1,12-12A12,12,0,0,1,52,140.00647Z"/>
</svg>
