<svg id="Flat" xmlns="http://www.w3.org/2000/svg" viewBox="0 0 256 256">
  <path d="M213.91943,210.61865l-31.39087-34.53-.009-.01-31.35718-34.49292-.02148-.02343L53.91943,34.61865a7.99991,7.99991,0,1,0-11.83886,10.7627l70.8413,77.92553L51.19434,169.60254a7.9998,7.9998,0,1,0,9.59961,12.7998l51.20019-38.40014v80.00024a7.99976,7.99976,0,0,0,12.79981,6.3999l50.83032-38.12292,26.4563,29.10193a7.99991,7.99991,0,0,0,11.83886-10.7627Zm-85.92529-2.61621v-64l11.76025,8.82007,25.05933,27.56519Zm-16-136.38037V32.00244a8,8,0,0,1,12.79981-6.3999l64,48a7.99952,7.99952,0,0,1,0,12.7998L155.27,111.54541a7.9998,7.9998,0,1,1-9.59961-12.7998l24.99023-18.74317-42.6665-32V71.62207a8,8,0,0,1-16,0Z"/>
</svg>
