<svg xmlns="http://www.w3.org/2000/svg" viewBox="0 0 256 256"><path d="M221.1,110.6,208,106.2V56a16,16,0,0,0-16-16H136V24a8,8,0,0,0-16,0V40H64A16,16,0,0,0,48,56v50.2l-13.1,4.4A16,16,0,0,0,24,125.8V160a8.3,8.3,0,0,0,.3,2.2c15.7,55,86.1,74,100.1,77.2a16.4,16.4,0,0,0,7.2,0c14-3.2,84.4-22.2,100.1-77.2a8.3,8.3,0,0,0,.3-2.2V125.8A16,16,0,0,0,221.1,110.6ZM64,56H192v44.9L133.1,81.3a14.8,14.8,0,0,0-4.6-.8h-1a14.8,14.8,0,0,0-4.6.8L64,100.9ZM216,158.8c-5.8,19-20.5,35.2-43.9,48.1A184.7,184.7,0,0,1,128,223.8a184.7,184.7,0,0,1-44.1-16.9C60.5,194,45.8,177.8,40,158.8v-33l18.4-6.2h0L120,99.1V168a8,8,0,0,0,16,0V99.1l61.6,20.5h0l18.4,6.2Z"/></svg>