<svg id="Flat" xmlns="http://www.w3.org/2000/svg" viewBox="0 0 256 256">
  <path d="M221.06055,110.58691,208,106.2334V56a16.01833,16.01833,0,0,0-16-16H136V24a8,8,0,0,0-16,0V40H64A16.01833,16.01833,0,0,0,48,56v50.2334l-13.06055,4.35351A15.98076,15.98076,0,0,0,24,125.76611V160a8.00533,8.00533,0,0,0,.30762,2.19775c15.71972,55.01856,86.11816,73.957,100.07031,77.19483a16.1234,16.1234,0,0,0,7.24414,0c13.95215-3.23779,84.35059-22.17627,100.07031-77.19483A8.00533,8.00533,0,0,0,232,160V125.76611A15.98076,15.98076,0,0,0,221.06055,110.58691ZM64,56H192v44.90039L133.05957,81.25391a15.98656,15.98656,0,0,0-4.579-.79688c-.15985-.00928-.3183-.02441-.48053-.02441-.161,0-.3183.01513-.477.02441a15.98265,15.98265,0,0,0-4.58356.79688L64,100.90039ZM216,158.84521c-5.77441,18.95557-20.5498,35.11084-43.93652,48.03418a181.73372,181.73372,0,0,1-44.06836,16.92725,181.86608,181.86608,0,0,1-44.0586-16.92725C60.5498,193.95605,45.77441,177.80078,40,158.84521V125.76562l18.37012-6.123.02911-.00977L120,99.09961V168a8,8,0,0,0,16,0V99.09961l61.60669,20.53516.02063.00732L216,125.76611Z"/>
</svg>
