<svg xmlns="http://www.w3.org/2000/svg" viewBox="0 0 256 256"><path d="M233.6,195.6l-8.3-30.9h0L192.2,41a16,16,0,0,0-19.6-11.3L141.7,38l-1,.3A16,16,0,0,0,128,32H96a15.8,15.8,0,0,0-8,2.2A15.8,15.8,0,0,0,80,32H48A16,16,0,0,0,32,48V208a16,16,0,0,0,16,16H80a15.8,15.8,0,0,0,8-2.2,15.8,15.8,0,0,0,8,2.2h32a16,16,0,0,0,16-16V108.4l19.5,72.8h0l8.3,30.9A16,16,0,0,0,187.3,224a19.9,19.9,0,0,0,4.1-.5l30.9-8.3a15.9,15.9,0,0,0,9.7-7.5A15.6,15.6,0,0,0,233.6,195.6ZM156.2,92.1l30.9-8.3,20.7,77.3-30.9,8.3Zm20.5-46.9L183,68.3l-30.9,8.3-6.3-23.1ZM128,48V168H96V48ZM80,48V72H48V48ZM48,208V88H80V208Zm80,0H96V184h32v24Zm90.2-8.3L187.3,208,181,184.8l31-8.3,6.2,23.2Z"/></svg>