<svg id="Flat" xmlns="http://www.w3.org/2000/svg" viewBox="0 0 256 256">
  <path d="M224,48H160a39.96366,39.96366,0,0,0-32,16.02783A39.96366,39.96366,0,0,0,96,48H32A16.01833,16.01833,0,0,0,16,64V192a16.01833,16.01833,0,0,0,16,16H96a24.0275,24.0275,0,0,1,24,24,8,8,0,0,0,16,0,24.0275,24.0275,0,0,1,24-24h64a16.01833,16.01833,0,0,0,16-16V64A16.01833,16.01833,0,0,0,224,48ZM96,192l-63.99951.00977L32,192V64H96a24.0275,24.0275,0,0,1,24,24V200.01855A39.79847,39.79847,0,0,0,96,192Zm128,0H160a39.7896,39.7896,0,0,0-24,8.022V88a24.0275,24.0275,0,0,1,24-24h64Z"/>
</svg>
