<svg id="Flat" xmlns="http://www.w3.org/2000/svg" viewBox="0 0 256 256">
  <path d="M233.61523,195.5752,225.334,164.66882l-.001-.00378-.001-.00366L192.2041,41.02637a16.01877,16.01877,0,0,0-19.5957-11.31348l-30.91016,8.28223c-.33935.09094-.66357.20923-.99219.32043A15.96591,15.96591,0,0,0,128,32H96a15.8799,15.8799,0,0,0-8,2.16492A15.8799,15.8799,0,0,0,80,32H48A16.01833,16.01833,0,0,0,32,48V208a16.01833,16.01833,0,0,0,16,16H80a15.8799,15.8799,0,0,0,8-2.16492A15.8799,15.8799,0,0,0,96,224h32a16.01833,16.01833,0,0,0,16-16V108.4032l19.51318,72.82409.00049.0022.00049.00122,8.28174,30.908a15.992,15.992,0,0,0,19.5957,11.31445l30.90967-8.28222a16.00058,16.00058,0,0,0,11.314-19.5957ZM156.19238,92.08679l30.91211-8.28259,20.71045,77.27222L176.898,169.361ZM176.749,45.167l6.21338,23.18238-30.91113,8.28234L145.83984,53.4502ZM128,48l.00781,120H96V48ZM80,48V72H48V48ZM48,208V88H80V208Zm80,0H96V184h32.00879l.00146,24Zm90.16016-8.28418L187.251,207.99805l-6.21192-23.18189,30.918-8.28479,6.21289,23.18152Z"/>
</svg>
