<svg id="Flat" xmlns="http://www.w3.org/2000/svg" viewBox="0 0 256 256">
  <path d="M208,96a16.01833,16.01833,0,0,0,16-16V48a16.01833,16.01833,0,0,0-16-16H176a16.01833,16.01833,0,0,0-16,16v8H96V48A16.01833,16.01833,0,0,0,80,32H48A16.01833,16.01833,0,0,0,32,48V80A16.01833,16.01833,0,0,0,48,96h8v64H48a16.01833,16.01833,0,0,0-16,16v32a16.01833,16.01833,0,0,0,16,16H80a16.01833,16.01833,0,0,0,16-16v-8h64v8a16.01833,16.01833,0,0,0,16,16h32a16.01833,16.01833,0,0,0,16-16V176a16.01833,16.01833,0,0,0-16-16h-8V96ZM176,48h32l.01025,32H176ZM48,48H80l.00513,15.89917C80.00464,63.93311,80,63.96594,80,64c0,.03442.00488.06775.00513.10205L80.01025,80H48ZM80,208H48V176H80l.00513,15.89917C80.00464,191.93311,80,191.96594,80,192c0,.03442.00488.06775.00513.102L80.01025,208Zm128.01025,0H176V176h32ZM184,160h-8a16.01833,16.01833,0,0,0-16,16v8H96v-8a16.01833,16.01833,0,0,0-16-16H72V96h8A16.01833,16.01833,0,0,0,96,80V72h64v8a16.01833,16.01833,0,0,0,16,16h8Z"/>
</svg>
