<svg id="Flat" xmlns="http://www.w3.org/2000/svg" viewBox="0 0 256 256">
  <path d="M128,88a40,40,0,1,0,40,40A40.04552,40.04552,0,0,0,128,88Zm0,64a24,24,0,1,1,24-24A24.0275,24.0275,0,0,1,128,152ZM69.02637,103.09082a63.93958,63.93958,0,0,0,13.71875,70.16406,8.00018,8.00018,0,0,1-11.31446,11.31348,79.94026,79.94026,0,0,1,0-113.13672A8.00018,8.00018,0,1,1,82.74512,82.74512,63.7971,63.7971,0,0,0,69.02637,103.09082ZM201.71,159.14209a79.72729,79.72729,0,0,1-17.14062,25.42627,8.00018,8.00018,0,1,1-11.31446-11.31348,63.93958,63.93958,0,0,0,0-90.50976,8.00018,8.00018,0,1,1,11.31446-11.31348A80.07886,80.07886,0,0,1,201.71,159.14209Zm-147.249,42.397a8.00018,8.00018,0,0,1-11.31446,11.31348,119.906,119.906,0,0,1,0-169.70508A8.00018,8.00018,0,0,1,54.46094,54.46094a103.90534,103.90534,0,0,0,0,147.07812ZM248,128a119.65247,119.65247,0,0,1-35.14648,84.85254,8.00018,8.00018,0,1,1-11.31446-11.31348,103.90534,103.90534,0,0,0,0-147.07812,8.00018,8.00018,0,1,1,11.31446-11.31348A119.65247,119.65247,0,0,1,248,128Z"/>
</svg>
