<svg xmlns="http://www.w3.org/2000/svg" viewBox="0 0 256 256"><path d="M128,88a40,40,0,1,0,40,40A40,40,0,0,0,128,88Zm0,64a24,24,0,1,1,24-24A24.1,24.1,0,0,1,128,152ZM69,103.1a64.5,64.5,0,0,0,0,49.8,65.4,65.4,0,0,0,13.7,20.4,7.9,7.9,0,0,1,0,11.3,8,8,0,0,1-5.6,2.3,8.3,8.3,0,0,1-5.7-2.3,80,80,0,0,1-17.1-25.5,79.9,79.9,0,0,1,0-62.2A80,80,0,0,1,71.4,71.4a8,8,0,0,1,11.3,0,7.9,7.9,0,0,1,0,11.3A65.4,65.4,0,0,0,69,103.1Zm132.7,56a80,80,0,0,1-17.1,25.5,8.3,8.3,0,0,1-5.7,2.3,8,8,0,0,1-5.6-2.3,7.9,7.9,0,0,1,0-11.3A65.4,65.4,0,0,0,187,152.9a64.5,64.5,0,0,0,0-49.8,65.4,65.4,0,0,0-13.7-20.4,7.9,7.9,0,0,1,0-11.3,8,8,0,0,1,11.3,0,80,80,0,0,1,17.1,25.5,79.9,79.9,0,0,1,0,62.2ZM54.5,201.5a8.1,8.1,0,0,1,0,11.4,8.3,8.3,0,0,1-5.7,2.3,8.5,8.5,0,0,1-5.7-2.3,121.8,121.8,0,0,1-25.7-38.2,120.7,120.7,0,0,1,0-93.4A121.8,121.8,0,0,1,43.1,43.1,8.1,8.1,0,0,1,54.5,54.5,103.5,103.5,0,0,0,24,128a103.5,103.5,0,0,0,30.5,73.5ZM248,128a120.2,120.2,0,0,1-9.4,46.7,121.8,121.8,0,0,1-25.7,38.2,8.5,8.5,0,0,1-5.7,2.3,8.3,8.3,0,0,1-5.7-2.3,8.1,8.1,0,0,1,0-11.4A103.5,103.5,0,0,0,232,128a103.5,103.5,0,0,0-30.5-73.5,8.1,8.1,0,1,1,11.4-11.4,121.8,121.8,0,0,1,25.7,38.2A120.2,120.2,0,0,1,248,128Z"/></svg>