<svg id="Flat" xmlns="http://www.w3.org/2000/svg" viewBox="0 0 256 256">
  <path d="M208,144h16a8,8,0,0,0,0-16H208V112h16a8,8,0,0,0,0-16H207.599a79.69411,79.69411,0,0,0-19.96881-45.25732L205.44336,33.7959A7.99956,7.99956,0,1,0,194.416,22.2041l-18.6009,17.6958a79.84391,79.84391,0,0,0-95.70764.05908L61.44336,22.2041A7.99956,7.99956,0,0,0,50.416,33.7959L68.30664,50.81543A79.69269,79.69269,0,0,0,48.401,96H32a8,8,0,0,0,0,16H48v16H32a8,8,0,0,0,0,16H48v8c0,2.7002.13843,5.36816.401,8H32a8,8,0,0,0,0,16H51.68292a80.00265,80.00265,0,0,0,152.63416,0H224a8,8,0,0,0,0-16H207.599c.26257-2.63184.401-5.2998.401-8ZM128,40a64.08119,64.08119,0,0,1,63.48218,56H64.51782A64.08119,64.08119,0,0,1,128,40Zm8,175.48242V136a8,8,0,0,0-16,0v79.48242A64.08166,64.08166,0,0,1,64,152V112H192v40A64.08166,64.08166,0,0,1,136,215.48242Z"/>
</svg>
