<svg id="Flat" xmlns="http://www.w3.org/2000/svg" viewBox="0 0 256 256">
  <path d="M191.35742,46.99316l14.09766-13.14111a8.00009,8.00009,0,0,0-10.91016-11.70361l-15.35547,14.314a87.8174,87.8174,0,0,0-102.3789,0L61.45508,22.148a8.00027,8.00027,0,0,0-10.91016,11.7041L64.64258,46.99268A87.69471,87.69471,0,0,0,40,108v40a88,88,0,0,0,176,0V108A87.69484,87.69484,0,0,0,191.35742,46.99316ZM128,36a72.08124,72.08124,0,0,1,72,72v12H56V108A72.08124,72.08124,0,0,1,128,36Zm0,184a72.08124,72.08124,0,0,1-72-72V136H200v12A72.08124,72.08124,0,0,1,128,220ZM144,92a12,12,0,1,1,12,12A12,12,0,0,1,144,92ZM88,92a12,12,0,1,1,12,12A12,12,0,0,1,88,92Z"/>
</svg>
