<svg id="Flat" xmlns="http://www.w3.org/2000/svg" viewBox="0 0 256 256">
  <path d="M144,92a12,12,0,1,1,12,12A12,12,0,0,1,144,92ZM100,80a12,12,0,1,0,12,12A12,12,0,0,0,100,80Zm152,48a8.00039,8.00039,0,0,1-8,8H216v8a87.77926,87.77926,0,0,1-3.24445,23.69629l23.1673,13.37549a8,8,0,1,1-8,13.85644l-20.96533-12.104a87.9757,87.9757,0,0,1-157.915,0l-20.96533,12.104a8,8,0,1,1-8-13.85644l23.1673-13.37549A87.77926,87.77926,0,0,1,40,144v-8H12a8,8,0,0,1,0-16H40v-8a87.78468,87.78468,0,0,1,3.24438-23.69629L20.07715,74.92822a8,8,0,0,1,8-13.85644L49.04242,73.17627a87.97541,87.97541,0,0,1,157.91516,0l20.96527-12.10449a8,8,0,0,1,8,13.85644L212.75562,88.30371A87.78468,87.78468,0,0,1,216,112v8h28A8.00039,8.00039,0,0,1,252,128ZM56,120H200v-8a72,72,0,0,0-144,0Zm64,95.54492V136H56v8A72.095,72.095,0,0,0,120,215.54492ZM200,136H136v79.54492A72.095,72.095,0,0,0,200,144Z"/>
</svg>
