<svg xmlns="http://www.w3.org/2000/svg" viewBox="0 0 256 256"><path d="M240,208h-8V104a16,16,0,0,0-16-16H152V40a16,16,0,0,0-16-16H40A16,16,0,0,0,24,40V208H16a8,8,0,0,0,0,16H240a8,8,0,0,0,0-16ZM216,104V208H152V104ZM40,40h96V208H40ZM56,72a8,8,0,0,1,8-8H96a8,8,0,0,1,0,16H64A8,8,0,0,1,56,72Zm64,64a8,8,0,0,1-8,8H80a8,8,0,0,1,0-16h32A8,8,0,0,1,120,136Zm-16,40a8,8,0,0,1-8,8H64a8,8,0,0,1,0-16H96A8,8,0,0,1,104,176Zm96,0a8,8,0,0,1-8,8H176a8,8,0,0,1,0-16h16A8,8,0,0,1,200,176Zm-32-40a8,8,0,0,1,8-8h16a8,8,0,0,1,0,16H176A8,8,0,0,1,168,136Z"/></svg>