<svg id="Flat" xmlns="http://www.w3.org/2000/svg" viewBox="0 0 256 256">
  <path d="M231.99414,103.98316v120a8,8,0,0,1-16,0v-120h-64v120a8,8,0,0,1-16,0v-184h-96v184a8,8,0,0,1-16,0v-184a16.01833,16.01833,0,0,1,16-16h96a16.01833,16.01833,0,0,1,16,16v48h64A16.01833,16.01833,0,0,1,231.99414,103.98316Zm-168-24h32a8,8,0,1,0,0-16h-32a8,8,0,0,0,0,16Zm48,64h-32a8,8,0,0,0,0,16h32a8,8,0,1,0,0-16Zm-16,40h-32a8,8,0,0,0,0,16h32a8,8,0,1,0,0-16Zm96-16h-16a8,8,0,0,0,0,16h16a8,8,0,1,0,0-16Zm0-40h-16a8,8,0,0,0,0,16h16a8,8,0,1,0,0-16Z"/>
</svg>
