<svg xmlns="http://www.w3.org/2000/svg" viewBox="0 0 256 256"><path d="M231.4,50.4C227.7,45.6,220.7,40,208,40c-16.7,0-38.1,11.3-57.2,30.3A144.2,144.2,0,0,0,136,87.5V56a8,8,0,0,0-16,0V87.5a144.2,144.2,0,0,0-14.8-17.2C86.1,51.3,64.7,40,48,40c-12.7,0-19.7,5.6-23.4,10.4-6.8,8.7-12.2,24.1-.4,71.5,5.9,23.4,18.7,32.7,29.5,36.3A44.8,44.8,0,0,0,48,180a44,44,0,0,0,80,25.3A44,44,0,0,0,208,180a44.8,44.8,0,0,0-5.7-21.8c10.8-3.6,23.6-12.9,29.5-36.3C238.4,95.3,243.6,66,231.4,50.4ZM92,208a28,28,0,0,1-18.3-49.2l.7-.6a28.1,28.1,0,0,1,14.5-6,8.1,8.1,0,0,0,7.1-8.9,8,8,0,0,0-8.9-7,42.9,42.9,0,0,0-21,8.1c-8.4-.2-20.9-4.5-26.3-26.3-2.9-11.5-11.6-46.3-2.6-57.9C38.6,58.4,41.3,56,48,56c26.9,0,72,45.1,72,72v52A28.1,28.1,0,0,1,92,208Zm124.2-89.9c-5.4,21.8-17.9,26.1-26.3,26.3a42.9,42.9,0,0,0-21-8.1,8,8,0,0,0-8.9,7,8.1,8.1,0,0,0,7.1,8.9,28.1,28.1,0,0,1,14.5,6l.7.6A28,28,0,1,1,136,180V128c0-26.9,45.1-72,72-72,6.7,0,9.4,2.4,10.8,4.2C227.8,71.8,219.1,106.6,216.2,118.1Z"/></svg>