<svg xmlns="http://www.w3.org/2000/svg" viewBox="0 0 256 256"><path d="M216,208H168V180h4a68.1,68.1,0,0,0,68-68,28,28,0,0,0-56,0,12,12,0,0,1-12,12h-4V56a40,40,0,0,0-80,0V84H84A12,12,0,0,1,72,72a28,28,0,0,0-56,0,68.1,68.1,0,0,0,68,68h4v68H40a8,8,0,0,0,0,16H216a8,8,0,0,0,0-16ZM96,124H84A52,52,0,0,1,32,72a12,12,0,0,1,24,0,28.1,28.1,0,0,0,28,28H96a8,8,0,0,0,8-8V56a24,24,0,0,1,48,0v76a8,8,0,0,0,8,8h12a28.1,28.1,0,0,0,28-28,12,12,0,0,1,24,0,52,52,0,0,1-52,52H160a8,8,0,0,0-8,8v36H104V132A8,8,0,0,0,96,124Z"/></svg>