<svg id="Flat" xmlns="http://www.w3.org/2000/svg" viewBox="0 0 256 256">
  <path d="M206,80H136V69.439c11.49689-5.13232,18.24182-12.52441,20.07031-22.03027,4.11914-21.41113-20.06445-43.06006-22.835-45.458a7.99936,7.99936,0,0,0-10.35644-.09619c-2.85938,2.38184-27.81446,23.895-23.76661,45.34717,1.82349,9.6665,8.84125,17.15674,20.8877,22.31885V80H50a32.03635,32.03635,0,0,0-32,32v13.32812A43.21843,43.21843,0,0,0,30.90918,155.9834c.35693.35058.72449.68457,1.09082,1.02V208a16.01833,16.01833,0,0,0,16,16H208a16.01833,16.01833,0,0,0,16-16V157.00439c.36652-.33593.73383-.67041,1.09082-1.021A43.21843,43.21843,0,0,0,238,125.32812V112A32.03635,32.03635,0,0,0,206,80ZM114.83691,44.24658c-1.49707-7.87451,6.665-18.48974,13.05176-25.13818,6.17676,6.707,14.00293,17.36572,12.46778,25.29053-.85157,4.39209-5.02149,8.11474-12.40723,11.08447C122.05859,53.20068,115.84961,49.57471,114.83691,44.24658ZM34,112A16.01833,16.01833,0,0,1,50,96H206a16.01833,16.01833,0,0,1,16,16v13.32812a27.12336,27.12336,0,0,1-8.11426,19.23438,25.51868,25.51868,0,0,1-18.39551,7.43262A26.12635,26.12635,0,0,1,170,126a7.96709,7.96709,0,0,0-1.8269-5.08887c-.163-.19726-.33539-.3872-.51636-.56787a7.99335,7.99335,0,0,0-11.31348,0c-.181.18067-.35327.37061-.51636.56787A7.96709,7.96709,0,0,0,154,126a26,26,0,0,1-52,0,7.96709,7.96709,0,0,0-1.8269-5.08887c-.163-.19726-.33539-.3872-.51636-.56787a7.99335,7.99335,0,0,0-11.31348,0c-.181.18067-.35327.37061-.51636.56787A7.96709,7.96709,0,0,0,86,126a26.12635,26.12635,0,0,1-25.49023,25.99512,25.47929,25.47929,0,0,1-18.39551-7.43262A27.12336,27.12336,0,0,1,34,125.32812Zm174,96H48V166.20557a41.11669,41.11669,0,0,0,12.81641,1.78662,42.04636,42.04636,0,0,0,33.1502-17.42432,41.93839,41.93839,0,0,0,68.06678,0,42.04636,42.04636,0,0,0,33.1502,17.42432q.40137.00732.80079.00781A41.06325,41.06325,0,0,0,208,166.209Z"/>
</svg>
