<svg id="Flat" xmlns="http://www.w3.org/2000/svg" viewBox="0 0 256 256">
  <path d="M208,32H184V24a8,8,0,0,0-16,0v8H88V24a8,8,0,0,0-16,0v8H48A16.01833,16.01833,0,0,0,32,48V208a16.01833,16.01833,0,0,0,16,16H208a16.01833,16.01833,0,0,0,16-16V48A16.01833,16.01833,0,0,0,208,32ZM48,48H72v8a8,8,0,0,0,16,0V48h80v8a8,8,0,0,0,16,0V48h24l.00195,32H48ZM208,208H48V96H208.00293l.00684,112Zm-80-44.00293a23.99986,23.99986,0,0,1-40.96045,16.98047,8,8,0,0,1,11.30713-11.32031A7.99993,7.99993,0,1,0,104,155.99707,7.99969,7.99969,0,0,1,97.75293,143l5.602-7.00293H92a8,8,0,1,1,0-16h28a7.99969,7.99969,0,0,1,6.24707,12.99707l-8.86865,11.08594A23.99576,23.99576,0,0,1,128,163.99707Zm40-36v52a8,8,0,0,1-16,0v-36l-3.2002,2.40039a8.00019,8.00019,0,0,1-9.5996-12.80078l16-12A8.00031,8.00031,0,0,1,168,127.99707Z"/>
</svg>
