<svg xmlns="http://www.w3.org/2000/svg" viewBox="0 0 256 256"><path d="M208,32H184V24a8,8,0,0,0-16,0v8H88V24a8,8,0,0,0-16,0v8H48A16,16,0,0,0,32,48V208a16,16,0,0,0,16,16H208a16,16,0,0,0,16-16V48A16,16,0,0,0,208,32ZM48,48H72v8a8,8,0,0,0,16,0V48h80v8a8,8,0,0,0,16,0V48h24V80H48ZM208,208H48V96H208V208Zm-80-44a24,24,0,0,1-41,17,8,8,0,0,1,0-11.3,7.9,7.9,0,0,1,11.3,0A8.3,8.3,0,0,0,104,172a8,8,0,0,0,0-16,8,8,0,0,1-6.2-13l5.6-7H92a8,8,0,0,1,0-16h28a8,8,0,0,1,6.2,13l-8.8,11.1A23.9,23.9,0,0,1,128,164Zm40-36v52a8,8,0,0,1-16,0V144l-3.2,2.4a8.1,8.1,0,0,1-11.2-1.6,8,8,0,0,1,1.6-11.2l16-12A8,8,0,0,1,168,128Z"/></svg>