<svg xmlns="http://www.w3.org/2000/svg" viewBox="0 0 256 256"><path d="M208,32H184V24a8,8,0,0,0-16,0v8H88V24a8,8,0,0,0-16,0v8H48A16,16,0,0,0,32,48V208a16,16,0,0,0,16,16H208a16,16,0,0,0,16-16V48A16,16,0,0,0,208,32ZM72,48v8a8,8,0,0,0,16,0V48h80v8a8,8,0,0,0,16,0V48h24V80H48V48ZM208,208H48V96H208V208Zm-50.3-74.3L139.3,152l18.4,18.3a8.1,8.1,0,0,1,0,11.4,8.2,8.2,0,0,1-11.4,0L128,163.3l-18.3,18.4a8.2,8.2,0,0,1-11.4,0,8.1,8.1,0,0,1,0-11.4L116.7,152,98.3,133.7a8.1,8.1,0,0,1,11.4-11.4L128,140.7l18.3-18.4a8.1,8.1,0,0,1,11.4,11.4Z"/></svg>