<svg id="Flat" xmlns="http://www.w3.org/2000/svg" viewBox="0 0 256 256">
  <path d="M208,32H184V24a8,8,0,0,0-16,0v8H88V24a8,8,0,0,0-16,0v8H48A16.01833,16.01833,0,0,0,32,48V208a16.01833,16.01833,0,0,0,16,16H208a16.01833,16.01833,0,0,0,16-16V48A16.01833,16.01833,0,0,0,208,32ZM72,48v8a8,8,0,0,0,16,0V48h80v8a8,8,0,0,0,16,0V48h24l.00195,32H48V48ZM208,208H48V96H208.00293l.00684,112Zm-50.34326-74.34277L139.314,152l18.34278,18.34277a8.00018,8.00018,0,0,1-11.31348,11.31446L128,163.31409l-18.34326,18.34314a8.00018,8.00018,0,0,1-11.31348-11.31446L116.686,152,98.34326,133.65723a8.00018,8.00018,0,0,1,11.31348-11.31446L128,140.68591l18.34326-18.34314a8.00018,8.00018,0,1,1,11.31348,11.31446Z"/>
</svg>
