<svg id="Flat" xmlns="http://www.w3.org/2000/svg" viewBox="0 0 256 256">
  <path d="M39.37451,18.61865a8.00027,8.00027,0,0,0-11.83984,10.7627L51.7334,56H47.99951a24.0275,24.0275,0,0,0-24,24V192a24.0275,24.0275,0,0,0,24,24H197.188l19.4375,21.38135a8.00027,8.00027,0,0,0,11.83984-10.7627ZM105.57715,115.228l36.99512,40.69482A28.00747,28.00747,0,0,1,105.57715,115.228ZM47.99951,200a8.00917,8.00917,0,0,1-8-8V80a8.00917,8.00917,0,0,1,8-8h18.2793l28.41406,31.25586A43.99439,43.99439,0,0,0,127.99951,176a44.19622,44.19622,0,0,0,25.4419-8.12109L182.64258,200Zm184-120V186.02881a8,8,0,1,1-16,0V80a8.00917,8.00917,0,0,0-8-8H175.99365a7.99943,7.99943,0,0,1-6.65625-3.5625L155.7124,48H100.2417a8.0002,8.0002,0,0,1-12.91309-9.42334l2.00782-3.01318A7.99954,7.99954,0,0,1,95.99365,32h64a7.99942,7.99942,0,0,1,6.65625,3.5625L180.2749,56h27.72461A24.0275,24.0275,0,0,1,231.99951,80Z"/>
</svg>
