<svg xmlns="http://www.w3.org/2000/svg" viewBox="0 0 256 256"><path d="M223.6,226.4A8,8,0,0,1,216,232a6.7,6.7,0,0,1-2.4-.4L128,204.4,42.4,231.6a6.7,6.7,0,0,1-2.4.4,8,8,0,0,1-7.6-5.6,7.9,7.9,0,0,1,5.2-10l64-20.4-64-20.4a8,8,0,1,1,4.8-15.2L128,187.6l85.6-27.2a8,8,0,1,1,4.8,15.2l-64,20.4,64,20.4A7.9,7.9,0,0,1,223.6,226.4ZM68,108c0-20.1,9.8-40.9,28.2-60a153.5,153.5,0,0,1,27.6-22.8,7.9,7.9,0,0,1,8.4,0C134.5,26.6,188,60.1,188,108a60,60,0,0,1-120,0Zm60,44a16,16,0,0,0,16-16c0-13.6-10-24.5-16-29.8-6,5.3-16,16.2-16,29.8A16,16,0,0,0,128,152ZM84,108a43.5,43.5,0,0,0,12.1,30.2A15.5,15.5,0,0,1,96,136c0-28,26.4-45.9,27.6-46.7a8.2,8.2,0,0,1,8.8,0c1.2.8,27.6,18.7,27.6,46.7a15.5,15.5,0,0,1-.1,2.2A43.5,43.5,0,0,0,172,108c0-32-32.3-58-44-66.3C116.3,50,84,76,84,108Z"/></svg>