<svg id="Flat" xmlns="http://www.w3.org/2000/svg" viewBox="0 0 256 256">
  <path d="M240,112H229.199L201.42188,49.501A16.01649,16.01649,0,0,0,186.80078,40H69.19922a16.0158,16.0158,0,0,0-14.6211,9.502L26.801,112H16a8,8,0,0,0,0,16h8v80a16.01833,16.01833,0,0,0,16,16H64a16.01833,16.01833,0,0,0,16-16V192h96v16a16.01833,16.01833,0,0,0,16,16h24a16.01833,16.01833,0,0,0,16-16V128h8a8,8,0,0,0,0-16ZM69.19922,56H186.80078l24.88892,56H44.3103ZM64,208H40V192H64Zm128,0V192h24v16Zm24-32H40V128H216ZM56,152a8.00039,8.00039,0,0,1,8-8H80a8,8,0,0,1,0,16H64A8.00039,8.00039,0,0,1,56,152Zm112,0a8.00039,8.00039,0,0,1,8-8h16a8,8,0,0,1,0,16H176A8.00039,8.00039,0,0,1,168,152Z"/>
</svg>
