<svg xmlns="http://www.w3.org/2000/svg" viewBox="0 0 256 256"><path d="M240,112H229.2L201.4,49.5A15.9,15.9,0,0,0,186.8,40H69.2a15.9,15.9,0,0,0-14.6,9.5L26.8,112H16a8,8,0,0,0,0,16h8v80a16,16,0,0,0,16,16H64a16,16,0,0,0,16-16V192h96v16a16,16,0,0,0,16,16h24a16,16,0,0,0,16-16V128h8a8,8,0,0,0,0-16ZM69.2,56H186.8l24.9,56H44.3ZM64,208H40V192H64Zm128,0V192h24v16Zm24-32H40V128H216ZM56,152a8,8,0,0,1,8-8H80a8,8,0,0,1,0,16H64A8,8,0,0,1,56,152Zm112,0a8,8,0,0,1,8-8h16a8,8,0,0,1,0,16H176A8,8,0,0,1,168,152Z"/></svg>