<svg id="Flat" xmlns="http://www.w3.org/2000/svg" viewBox="0 0 256 256">
  <path d="M201.53906,54.46094A103.99994,103.99994,0,1,0,54.46094,201.53906,103.99994,103.99994,0,1,0,201.53906,54.46094ZM190.22559,190.22559a87.959,87.959,0,1,1,0-124.45118A88.10133,88.10133,0,0,1,190.22559,190.22559ZM165.65674,82.34326a7.99915,7.99915,0,0,1,0,11.31348l-32,32a7.99945,7.99945,0,0,1-11.31348,0l-32-32a7.99984,7.99984,0,0,1,11.31348-11.31348L128,108.686l26.34326-26.34278A8,8,0,0,1,165.65674,82.34326Zm0,56a7.99915,7.99915,0,0,1,0,11.31348l-32,32a7.99945,7.99945,0,0,1-11.31348,0l-32-32a7.99984,7.99984,0,0,1,11.31348-11.31348L128,164.686l26.34326-26.34278A8,8,0,0,1,165.65674,138.34326Z"/>
</svg>
