<svg id="Flat" xmlns="http://www.w3.org/2000/svg" viewBox="0 0 256 256">
  <path d="M201.53906,54.46094A103.99994,103.99994,0,1,0,54.46094,201.53906,103.99994,103.99994,0,1,0,201.53906,54.46094ZM190.22559,190.22559a87.959,87.959,0,1,1,0-124.45118A88.10133,88.10133,0,0,1,190.22559,190.22559Zm-24.56885-27.88233a7.99984,7.99984,0,1,1-11.31348,11.31348L128,147.314l-26.34326,26.34278a7.99984,7.99984,0,0,1-11.31348-11.31348l32-32a8,8,0,0,1,11.31348,0Zm0-56a7.99984,7.99984,0,1,1-11.31348,11.31348L128,91.314l-26.34326,26.34278a7.99984,7.99984,0,0,1-11.31348-11.31348l32-32a8,8,0,0,1,11.31348,0Z"/>
</svg>
