<svg xmlns="http://www.w3.org/2000/svg" viewBox="0 0 256 256"><path d="M201.5,54.5a103.8,103.8,0,0,0-147,0,103.8,103.8,0,0,0,0,147,103.8,103.8,0,0,0,147,0,103.8,103.8,0,0,0,0-147ZM190.2,190.2a88,88,0,1,1,0-124.4A88.1,88.1,0,0,1,190.2,190.2ZM165.7,82.3a8.1,8.1,0,0,1,0,11.4l-32,32a8.2,8.2,0,0,1-11.4,0l-32-32a8.1,8.1,0,0,1,11.4-11.4L128,108.7l26.3-26.4A8.1,8.1,0,0,1,165.7,82.3Zm0,56a8.1,8.1,0,0,1,0,11.4l-32,32a8.2,8.2,0,0,1-11.4,0l-32-32a8.1,8.1,0,0,1,11.4-11.4L128,164.7l26.3-26.4A8.1,8.1,0,0,1,165.7,138.3Z"/></svg>