<svg id="Flat" xmlns="http://www.w3.org/2000/svg" viewBox="0 0 256 256">
  <path d="M96,140a12,12,0,1,1-12-12A12,12,0,0,1,96,140Zm76-12a12,12,0,1,0,12,12A12,12,0,0,0,172,128Zm60-76.68652V136c0,52.93457-46.6543,96-104,96S24,188.93457,24,136V51.31348a16.00018,16.00018,0,0,1,27.31348-11.314L68.541,57.22656A107.45948,107.45948,0,0,1,92.77893,45.68921a7.92035,7.92035,0,0,1,1.665-.52637,111.63163,111.63163,0,0,1,67.11237,0,7.92846,7.92846,0,0,1,1.66424.52612A107.467,107.467,0,0,1,187.46,57.22656L204.68555,40A16.00046,16.00046,0,0,1,232,51.31348Zm-16,.00683L194.05859,73.25488a7.99966,7.99966,0,0,1-10.42871.76514A88.8111,88.8111,0,0,0,168,64.75317V88a8,8,0,0,1-16,0V59.06152a96.03259,96.03259,0,0,0-16-2.72021V88a8,8,0,0,1-16,0V56.34131a96.0125,96.0125,0,0,0-16,2.72046V88a8,8,0,0,1-16,0V64.75293A88.85049,88.85049,0,0,0,72.36816,74.02a7.99965,7.99965,0,0,1-10.42773-.76514L40.00488,51.31836,40,136c0,41.6604,35.21216,75.979,80,79.666V195.314l-13.65723-13.65722a8.00018,8.00018,0,0,1,11.31446-11.31348L128,180.68652l10.34277-10.34326a8.00018,8.00018,0,0,1,11.31446,11.31348L136,195.314V215.666c44.78784-3.687,80-38.00562,80-79.666Z"/>
</svg>
