<svg id="Flat" xmlns="http://www.w3.org/2000/svg" viewBox="0 0 256 256">
  <path d="M129.75146,94.24866a8.00034,8.00034,0,0,1,0-11.31446l50.93506-50.93457A15.99974,15.99974,0,0,1,208,43.31409v116.3291a8,8,0,0,1-16,0V43.32092L141.06494,94.24866A8,8,0,0,1,129.75146,94.24866ZM214.06323,221.212c-.0852.09912-.17407.19531-.26465.291-.09448.1001-.19067.19727-.29.292-.04565.04346-.08569.09082-.13256.1333-.05.04541-.104.084-.155.12793q-.13953.12085-.28443.23487-.1593.12523-.32275.2417c-.09619.06787-.19385.13427-.293.19824-.1167.07519-.23462.14648-.354.21484-.09888.05713-.19849.11231-.3.165-.12451.06445-.25049.124-.37769.18164-.10351.04688-.20752.09326-.31347.13574-.1294.05176-.26.09864-.39161.14356-.10839.03711-.2163.07422-.3269.10693-.13672.04-.27466.07324-.41284.106-.1084.02588-.21533.05322-.3252.07471-.15747.03027-.31592.05127-.47461.07226-.093.01221-.18457.02881-.27856.0376-.25586.0249-.51221.03906-.7688.03906h-.00293L27.313,223.99963A15.99962,15.99962,0,0,1,16,196.68616l85.70386-85.70411L42.0752,45.39026A8.00024,8.00024,0,1,1,53.91406,34.62659l160,176c.042.04638.07715.09668.11792.14355q.13953.16113.27027.32959c.07739.09912.15283.19873.22461.30029.07763.10938.15087.22168.22265.335.06983.11036.13867.22071.20264.3335.06347.11182.12207.22607.18017.34131.05982.11816.11866.23682.17212.35693.052.11719.09888.23682.14527.35694.04736.12207.094.24463.135.36865.04077.12256.07617.24805.11108.37353.03491.12647.06909.25245.09766.38038.02807.12451.051.25048.07324.37695.02344.13428.04492.26855.06152.40332.01514.12158.02588.24414.0354.36719.011.14453.01856.28808.02173.43261.00147.061.00928.12061.00928.18213s-.00781.12061-.00928.18164c-.00317.14063-.01074.28125-.02124.42188-.00952.1289-.021.25683-.03662.38379-.01587.12646-.03589.25195-.05762.37793-.02343.13574-.04809.2705-.07812.40429-.02661.11719-.05811.23291-.08985.34912-.03686.13428-.07446.26856-.11816.39991-.03857.11718-.083.23193-.1272.34765-.04785.124-.09546.24805-.14892.36866-.05371.12109-.113.23974-.17285.35839-.05567.11036-.11084.22071-.17139.32764-.06812.12109-.14209.23926-.217.35742-.06421.10156-.12842.20215-.197.29981-.07911.11328-.16309.22314-.24878.333C214.22314,221.01868,214.145,221.11682,214.06323,221.212ZM27.31934,207.99475l162.58935.01221L112.479,122.83459Z"/>
</svg>
