<svg id="Flat" xmlns="http://www.w3.org/2000/svg" viewBox="0 0 256 256">
  <path d="M229.65674,146.34277a8.00018,8.00018,0,0,1-11.31348,11.31446L200,139.314l-18.34326,18.34327a8.00018,8.00018,0,0,1-11.31348-11.31446L188.686,128l-18.34278-18.34277a8.00018,8.00018,0,0,1,11.31348-11.31446L200,116.686l18.34326-18.34327a8.00018,8.00018,0,1,1,11.31348,11.31446L211.314,128ZM200,165.25488a8.00008,8.00008,0,0,0-8,8V208H27.31348L192,43.32129V82.74512a8,8,0,0,0,16,0V43.31348A15.99974,15.99974,0,0,0,180.68652,32L15.99951,196.68652A16.00018,16.00018,0,0,0,27.31348,224H192a16.01833,16.01833,0,0,0,16-16V173.25488A8.00008,8.00008,0,0,0,200,165.25488Z"/>
</svg>
