<svg id="Flat" xmlns="http://www.w3.org/2000/svg" viewBox="0 0 256 256">
  <path d="M216,40H40A16.01833,16.01833,0,0,0,24,56V200.001A15.99912,15.99912,0,0,0,40.001,216l13.38965-.00146a7.99978,7.99978,0,0,0,7.2246-4.5669,48.02362,48.02362,0,0,1,86.76954,0,7.99952,7.99952,0,0,0,7.22558,4.5669L216,216a16.01833,16.01833,0,0,0,16-16V56A16.01833,16.01833,0,0,0,216,40ZM80,144a24,24,0,1,1,24,24A24.0275,24.0275,0,0,1,80,144Zm136,56-56.56641-.00146a64.38465,64.38465,0,0,0-28.83593-26.15693,39.99991,39.99991,0,1,0-53.19532.00019,64.3882,64.3882,0,0,0-28.83593,26.15771L40,200.001V56H216ZM56,96V80a8.00008,8.00008,0,0,1,8-8H192a8.00008,8.00008,0,0,1,8,8v96a8.00008,8.00008,0,0,1-8,8H176a8,8,0,0,1,0-16h8V88H72v8a8,8,0,0,1-16,0Z"/>
</svg>
