<svg id="Flat" xmlns="http://www.w3.org/2000/svg" viewBox="0 0 256 256">
  <path d="M218.27124,76.39893c-.06738-.13331-.12866-.26807-.20435-.39893-.102-.17676-.21533-.34229-.32861-.50781A103.97477,103.97477,0,0,0,37.72876,179.60107c.06738.1333.12866.26807.20435.39893.07153.124.15869.23242.23559.35107A103.97546,103.97546,0,0,0,218.27124,76.39893Zm-18.40454.87158L136,114.14355V40.36768A88.02789,88.02789,0,0,1,199.8667,77.27051ZM120,40.36768v83.01367L48.11426,164.88428A87.97534,87.97534,0,0,1,120,40.36768ZM128,216a87.95493,87.95493,0,0,1-71.8667-37.27051L207.88574,91.11572A87.9798,87.9798,0,0,1,128,216Z"/>
</svg>
