<svg xmlns="http://www.w3.org/2000/svg" viewBox="0 0 256 256"><path d="M100,116.5a8.1,8.1,0,0,0,4-7v-72a8,8,0,0,0-10.7-7.6A104.3,104.3,0,0,0,24,128a109.1,109.1,0,0,0,1.7,19,8,8,0,0,0,4.6,5.8,7.6,7.6,0,0,0,3.3.8,8,8,0,0,0,4-1.1ZM88,49.6v55.3L40.1,132.6c-.1-1.6-.1-3.1-.1-4.6A88.3,88.3,0,0,1,88,49.6ZM218.3,76.4a.8.8,0,0,1-.2-.4l-.4-.5A103.9,103.9,0,0,0,128,24a8,8,0,0,0-8,8v91.4L40.9,169.1a7.9,7.9,0,0,0-3,10.9v.2l.3.5A104,104,0,0,0,232,128,103.5,103.5,0,0,0,218.3,76.4ZM136,40.4a88.2,88.2,0,0,1,63.9,36.9L136,114.1ZM128,216a88.3,88.3,0,0,1-71.9-37.3L207.9,91.1A88,88,0,0,1,128,216Z"/></svg>