<svg id="Flat" xmlns="http://www.w3.org/2000/svg" viewBox="0 0 256.00098 256.00098">
  <path d="M216,48.00049H40a16.018,16.018,0,0,0-16,16V222.82422a15.85031,15.85031,0,0,0,9.24512,14.5039,16.0765,16.0765,0,0,0,6.79785,1.52149,15.89043,15.89043,0,0,0,10.25293-3.77783L82.499,208.00049H216a16.018,16.018,0,0,0,16-16v-128A16.018,16.018,0,0,0,216,48.00049Zm0,144H82.499a16.02,16.02,0,0,0-10.29492,3.75244L40,222.82422V64.00049H216ZM116.00049,128.001a12,12,0,1,1,12,12A12,12,0,0,1,116.00049,128.001Zm-48,0a12,12,0,1,1,12,12A12,12,0,0,1,68.00049,128.001Zm96,0a12,12,0,1,1,12,12A12,12,0,0,1,164.00049,128.001Z"/>
</svg>
