<svg id="Flat" xmlns="http://www.w3.org/2000/svg" viewBox="0 0 256.00098 256.00098">
  <path d="M127.999,232.4502a15.86929,15.86929,0,0,1-13.71875-7.76758L99.46973,200,40,199.999a16.01833,16.01833,0,0,1-16-16V56A16.01833,16.01833,0,0,1,40,40H216a16.01833,16.01833,0,0,1,16,16V184a16.01853,16.01853,0,0,1-16.001,16H156.5293l-6.86035-4.11621L156.5293,200l-14.80957,24.68262A15.87248,15.87248,0,0,1,127.999,232.4502ZM40,56V183.999H99.46973a16.07989,16.07989,0,0,1,13.71972,7.76856L128,216.4502l14.80859-24.68262h.001A16.08114,16.08114,0,0,1,156.5293,184H215.999L216,56Z"/>
</svg>
