<svg id="Flat" xmlns="http://www.w3.org/2000/svg" viewBox="0 0 256.00098 256.00098">
  <path d="M88,103.999a8.00039,8.00039,0,0,1,8-8h64a8,8,0,0,1,0,16H96A8.00039,8.00039,0,0,1,88,103.999Zm8,40h64a8,8,0,0,0,0-16H96a8,8,0,0,0,0,16ZM232,56V184a16.01853,16.01853,0,0,1-16.001,16H156.5293l-14.80957,24.68262a16.00024,16.00024,0,0,1-27.43946,0L99.46973,200,40,199.999a16.01833,16.01833,0,0,1-16-16V56A16.01833,16.01833,0,0,1,40,40H216A16.01833,16.01833,0,0,1,232,56Zm-16,0H40V183.999H99.46973a16.07989,16.07989,0,0,1,13.71972,7.76856L128,216.4502l14.80859-24.68262h.001A16.08114,16.08114,0,0,1,156.5293,184H215.999Z"/>
</svg>
