<svg id="Flat" xmlns="http://www.w3.org/2000/svg" viewBox="0 0 256.00098 256.00098">
  <path d="M216,48.00049H40a16.01833,16.01833,0,0,0-16,16V222.82422a15.85031,15.85031,0,0,0,9.24512,14.5039,16.0765,16.0765,0,0,0,6.79785,1.52149,15.89043,15.89043,0,0,0,10.25293-3.77783L82.05176,208.377l1.03222-.37646H216a16.018,16.018,0,0,0,16-16v-128A16.01833,16.01833,0,0,0,216,48.00049Zm0,144H81.67188a8.0012,8.0012,0,0,0-2.73926.4834l-3.68653,1.34375a7.99526,7.99526,0,0,0-2.4082,1.39257L40,222.82422V64.00049H216ZM88,112a8.00008,8.00008,0,0,1,8-8h64a8,8,0,0,1,0,16H96A8.00008,8.00008,0,0,1,88,112Zm0,32a8.00008,8.00008,0,0,1,8-8h64a8,8,0,0,1,0,16H96A8.00008,8.00008,0,0,1,88,144Z"/>
</svg>
