<svg id="Flat" xmlns="http://www.w3.org/2000/svg" viewBox="0 0 256 256">
  <path d="M177.78662,98.4762a7.99953,7.99953,0,0,1-.26367,11.31054l-58.666,56a7.99913,7.99913,0,0,1-11.04687.00049l-29.334-28A7.99994,7.99994,0,1,1,89.523,126.213l23.81055,22.72754L166.47607,98.2135A8.00047,8.00047,0,0,1,177.78662,98.4762Zm46.21289-50.47608v160a16.01833,16.01833,0,0,1-16,16h-160a16.01833,16.01833,0,0,1-16-16v-160a16.01834,16.01834,0,0,1,16-16h160A16.01833,16.01833,0,0,1,223.99951,48.00012ZM208.01025,207.99963l-.01074-159.99951h-160v160h160Z"/>
</svg>
