<svg id="Flat" xmlns="http://www.w3.org/2000/svg" viewBox="0 0 256 256">
  <path d="M65.77441,54.46033A7.99957,7.99957,0,0,1,65.7749,65.7738a87.96162,87.96162,0,0,0-22.79,39.43848,7.99995,7.99995,0,1,1-15.45849-4.127,103.96853,103.96853,0,0,1,26.93457-46.624A8,8,0,0,1,65.77441,54.46033Zm-22.77587,96.3164A7.99983,7.99983,0,1,0,27.544,154.91736,103.97111,103.97111,0,0,0,54.45508,201.556a7.99984,7.99984,0,0,0,11.30273-11.32422A87.96258,87.96258,0,0,1,42.99854,150.77673ZM150.773,213.01892a87.94771,87.94771,0,0,1-45.54932-.01758,8.00007,8.00007,0,1,0-4.14062,15.45508,103.98087,103.98087,0,0,0,53.8457.01367,8.00014,8.00014,0,0,0-4.15576-15.45117Zm72.03467-67.89746a7.996,7.996,0,0,0-9.79248,5.666,87.951,87.951,0,0,1-22.78955,39.4375,8.00018,8.00018,0,0,0,11.31347,11.31445,103.97037,103.97037,0,0,0,26.93457-46.625A8.0002,8.0002,0,0,0,222.80762,145.12146ZM213.00146,105.224a7.99983,7.99983,0,1,0,15.45459-4.14063A103.9556,103.9556,0,0,0,201.54492,54.4447a7.99984,7.99984,0,0,0-11.30273,11.32422A87.947,87.947,0,0,1,213.00146,105.224ZM105.22705,42.98084a87.94771,87.94771,0,0,1,45.54932.01757A8.00006,8.00006,0,1,0,154.917,27.54334a103.99855,103.99855,0,0,0-53.8457-.01368,8.00015,8.00015,0,0,0,4.15576,15.45118Z"/>
</svg>
