<svg id="Flat" xmlns="http://www.w3.org/2000/svg" viewBox="0 0 256 256">
  <path d="M212.90057,188.00049a7.96863,7.96863,0,0,0,.90876-1.30994,103.404,103.404,0,0,0,16.8844-42.23718c.01947-.09631.03241-.19336.04827-.29028a104.10474,104.10474,0,1,0-49.28424,73.01318,7.95118,7.95118,0,0,0,1.34815-.82837A104.83177,104.83177,0,0,0,212.90057,188.00049ZM178.991,199.68237,136,156.69189V123.31982l60.212,60.212A88.74318,88.74318,0,0,1,178.991,199.68237Zm26.32068-29.67871L136,100.69189V67.31982l78.23853,78.239A87.36826,87.36826,0,0,1,205.31171,170.00366ZM136,179.3197l28.66772,28.66736A87.31305,87.31305,0,0,1,136,215.63257Zm79.92883-54.69861L136,44.69189V40.36743A88.124,88.124,0,0,1,215.92883,124.62109ZM40,128a88.11715,88.11715,0,0,1,80-87.63257V215.63257A88.11715,88.11715,0,0,1,40,128Z"/>
</svg>
