<svg id="Flat" xmlns="http://www.w3.org/2000/svg" viewBox="0 0 256 256">
  <path d="M201.53906,54.46094A103.99994,103.99994,0,1,0,54.46094,201.53906,103.99994,103.99994,0,1,0,201.53906,54.46094Zm5.17279,112.93066-53.395-53.39453,16.683-16.68323,44.85229,44.85266A87.02063,87.02063,0,0,1,206.71185,167.3916ZM181.31378,85.99988l14.30554-14.30567a87.15341,87.15341,0,0,1,20.03412,48.64563ZM65.77539,65.77441a88.08484,88.08484,0,0,1,118.52374-5.38794l-75.95239,75.95289-.001.001-.001.001-47.964,47.96448A87.98444,87.98444,0,0,1,65.77539,65.77441ZM142.12372,214.804,97.317,169.99719,114.003,153.311l53.369,53.36914A87.79183,87.79183,0,0,1,142.12372,214.804ZM86.00311,181.31128l34.29822,34.29809a87.596,87.596,0,0,1-48.60046-19.99584Zm95.30683,16.67883-55.99305-55.993,16.686-16.686,56.00165,56.00122a89.29335,89.29335,0,0,1-7.78,8.91333A88.30107,88.30107,0,0,1,181.30994,197.99011Z"/>
</svg>
