<svg id="Flat" xmlns="http://www.w3.org/2000/svg" viewBox="0 0 256 256">
  <path d="M200,32H176V24a8.00039,8.00039,0,0,0-8-8H88a8.00008,8.00008,0,0,0-8,8v8H56A16.01833,16.01833,0,0,0,40,48V216a16.01833,16.01833,0,0,0,16,16H200a16.01833,16.01833,0,0,0,16-16V48A16.01833,16.01833,0,0,0,200,32ZM96,32h64V56H96ZM200,216H56V48H80V64a8.00008,8.00008,0,0,0,8,8h80a8.00039,8.00039,0,0,0,8-8V48h24Zm-32-64a8.00008,8.00008,0,0,1-8,8H96a8,8,0,0,1,0-16h64A8.00008,8.00008,0,0,1,168,152Zm0-32a8.00008,8.00008,0,0,1-8,8H96a8,8,0,0,1,0-16h64A8.00008,8.00008,0,0,1,168,120Z"/>
</svg>
