<svg id="Flat" xmlns="http://www.w3.org/2000/svg" viewBox="0 0 256 256">
  <path d="M200,32H163.73877a47.91437,47.91437,0,0,0-71.47754,0H56A16.01833,16.01833,0,0,0,40,48V216a16.01833,16.01833,0,0,0,16,16H200a16.01833,16.01833,0,0,0,16-16V48A16.01833,16.01833,0,0,0,200,32Zm-72,0a32.03635,32.03635,0,0,1,32,32H96A32.03635,32.03635,0,0,1,128,32Zm72,184H56V48H82.75195A47.77642,47.77642,0,0,0,80,64v8a8.00008,8.00008,0,0,0,8,8h80a8.00039,8.00039,0,0,0,8-8V64a47.77642,47.77642,0,0,0-2.75195-16H200Z"/>
</svg>
