<svg id="Flat" xmlns="http://www.w3.org/2000/svg" viewBox="0 0 256 256">
  <path d="M136,80v43.38116l37.56934,21.69062a8,8,0,1,1-8,13.85644l-41.56934-24c-.06348-.03674-.12061-.08008-.18311-.11828-.13623-.0838-.271-.16834-.40185-.26-.10352-.07215-.20166-.14844-.30029-.22467-.10254-.0791-.20411-.15821-.30225-.242-.11084-.0943-.2168-.19244-.32129-.29187-.07959-.07586-.15918-.15173-.23535-.23083-.10645-.10974-.208-.2226-.30713-.33753-.06982-.08062-.13818-.16168-.20459-.24511-.0918-.11536-.1792-.233-.26416-.35273-.06738-.09478-.13281-.1903-.19629-.28814-.07226-.11182-.14062-.22528-.20654-.34027-.06641-.11469-.13037-.23059-.19141-.34882-.05273-.10358-.10254-.20813-.15088-.31372-.06152-.13355-.12011-.26825-.17431-.40564-.03858-.09912-.07422-.199-.10938-.29962-.0498-.14325-.09717-.28736-.13867-.43427-.03027-.10608-.05664-.21283-.08252-.32007-.03369-.14013-.06592-.28039-.0918-.42327-.02392-.12751-.0415-.2558-.05908-.3844-.01611-.12311-.0332-.24585-.04394-.37073-.01416-.15912-.01954-.31873-.02442-.47882-.00195-.07294-.01074-.144-.01074-.21747V80a8,8,0,0,1,16,0Zm94.81982,24.15668c.07422-.11109.13868-.2265.20655-.34033.06592-.10981.13476-.21741.19531-.33057.063-.11737.11621-.23816.17285-.35791.05518-.11682.11328-.23175.16309-.35156.04785-.1167.08691-.2359.12939-.35431.0459-.12763.09473-.25367.13428-.38422.03613-.119.0625-.23975.09277-.36.03369-.13282.0708-.26392.09766-.3993.02734-.139.04394-.27929.064-.41925.01661-.11816.03907-.23437.05078-.35412.02588-.26245.04-.52582.04-.78931v-40a8,8,0,1,0-16,0V80.4021L195.88232,60.11768a95.9551,95.9551,0,1,0,0,135.76464,8,8,0,1,0-11.314-11.31347,80.00009,80.00009,0,1,1,0-113.1377L204.853,91.71582H184.1665a8,8,0,0,0,0,16h39.99756c.26465.00006.5293-.01392.793-.03992.11426-.01123.2251-.03277.3374-.0487.146-.02063.29151-.03784.436-.06653.13232-.02619.26025-.06262.39014-.09528.123-.03094.24707-.05792.36865-.09472.1289-.039.25293-.08734.3789-.13251.12012-.04309.24121-.0827.35987-.13171.11816-.049.23144-.10651.34668-.161.12109-.05719.24365-.111.3623-.17456.11182-.05975.21778-.1278.32617-.19256.11524-.069.23194-.13422.34473-.20954.12109-.08093.23486-.17089.35107-.25811.09229-.06946.1875-.13367.27735-.20764a8.05424,8.05424,0,0,0,1.11767-1.11744c.07276-.08892.13623-.1828.20508-.274C230.647,104.3941,230.73779,104.279,230.81982,104.15668Z"/>
</svg>
