<svg id="Flat" xmlns="http://www.w3.org/2000/svg" viewBox="0 0 256 256">
  <path d="M128,24A104,104,0,1,0,232,128,104.11791,104.11791,0,0,0,128,24Zm0,192a88,88,0,1,1,88-88A88.09957,88.09957,0,0,1,128,216Zm64-88a7.99977,7.99977,0,0,1-8,8H147.314l25.94092,25.94092a8,8,0,0,1-11.31347,11.314l-39.59815-39.59814c-.18652-.186-.36279-.38233-.53027-.58643-.07569-.09228-.14209-.18994-.21338-.28515-.085-.11329-.17285-.22461-.25195-.34278-.07666-.11474-.14307-.23388-.21338-.35156-.06348-.10645-.13037-.21045-.189-.31982-.064-.11963-.11816-.24219-.17578-.36426-.0542-.11475-.11133-.22754-.16016-.34522-.04931-.11914-.08886-.24072-.13183-.36132-.04541-.125-.09326-.249-.13233-.377-.03662-.12158-.06347-.24512-.09423-.36767-.03321-.13037-.06934-.25928-.09571-.39209-.02832-.14063-.04492-.28272-.06494-.42481-.0166-.11621-.03906-.231-.05029-.34912A7.90051,7.90051,0,0,1,120,128h0v-.001c0-.26318.01416-.52636.04-.78808.01172-.11914.03369-.23438.05029-.35108.02051-.14111.03711-.28271.06494-.42285.02637-.13379.063-.26367.09619-.395.03077-.12158.05713-.24414.09375-.36474.03907-.12891.08741-.25342.13282-.3794.043-.12012.08252-.24072.13134-.35889.04883-.11865.10645-.23193.16114-.34716.05713-.12159.11084-.24366.1748-.3628.05908-.10986.126-.21484.18994-.32177.06983-.11719.13623-.23536.21241-.34912.0791-.11866.16748-.23047.25341-.34473.0708-.09473.13623-.1919.21192-.28369a8.07155,8.07155,0,0,1,1.1167-1.1167c.09228-.07569.18994-.14209.28515-.21338.11328-.085.22461-.17285.34278-.25195.11474-.07666.23388-.14307.35107-.21338.10645-.06348.21045-.13037.32031-.189.11963-.06445.24317-.11865.36573-.17627.11425-.0542.22656-.11084.34375-.15967.11914-.04931.24072-.08886.36181-.13232.125-.04492.24854-.09277.37647-.13184.12207-.03662.24609-.064.36963-.09472.12939-.03272.25732-.06885.38965-.09522.14355-.02832.28857-.0459.4331-.0664.11377-.01612.22559-.0376.34082-.04883.26318-.02637.52734-.04.791-.04H184A7.99977,7.99977,0,0,1,192,128Z"/>
</svg>
