<svg id="Flat" xmlns="http://www.w3.org/2000/svg" viewBox="0 0 256 256">
  <path d="M136,80v43.38116l37.56934,21.69062a8,8,0,1,1-8,13.85644l-41.56934-24c-.06348-.03674-.12061-.08008-.18311-.11828-.13623-.0838-.271-.16834-.40185-.26-.10352-.07215-.20166-.14844-.30029-.22467-.10254-.0791-.20411-.15821-.30225-.242-.11084-.0943-.2168-.19244-.32129-.29187-.07959-.07586-.15918-.15173-.23535-.23083-.10645-.10974-.208-.2226-.30713-.33753-.06982-.08062-.13818-.16168-.20459-.24511-.0918-.11536-.1792-.233-.26416-.35273-.06738-.09478-.13281-.1903-.19629-.28814-.07226-.11182-.14062-.22528-.20654-.34027-.06641-.11469-.13037-.23059-.19141-.34882-.05273-.10358-.10254-.20813-.15088-.31372-.06152-.13355-.12011-.26825-.17431-.40564-.03858-.09912-.07422-.199-.10938-.29962-.0498-.14325-.09717-.28736-.13867-.43427-.03027-.10608-.05664-.21283-.08252-.32007-.03369-.14013-.06592-.28039-.0918-.42327-.02392-.12751-.0415-.2558-.05908-.3844-.01611-.12311-.0332-.24585-.04394-.37073-.01416-.15912-.01953-.31873-.02442-.47882-.00195-.07294-.01074-.144-.01074-.21747V80a8,8,0,0,1,16,0Zm59.88232-19.88232a96.10929,96.10929,0,0,0-135.76464,0L39.8335,80.4021V59.71582a8,8,0,1,0-16,0v40c0,.26349.01416.52686.04.78931.01171.11975.03417.236.05078.35412.02.14.03662.28028.064.41925.02686.13538.064.26648.09766.3993.03027.12023.05664.241.09277.36.03955.13055.08838.25659.13428.38422.04248.11841.08154.23761.12939.35431.04981.11932.10742.23382.1626.35009.05664.12043.11035.24189.17334.35993.06006.11224.12891.21887.19385.32788.06885.11462.1333.23071.208.34247.082.12225.17285.23742.26074.35486.06885.09124.13232.18512.20508.274a8.02944,8.02944,0,0,0,1.11816,1.11805c.08643.0708.17725.13214.26611.19879.12012.09051.2378.18341.36328.26715.1084.07257.2212.13525.332.2019.11279.06763.22314.13825.33935.20038.11377.061.23145.11249.34766.16754.12011.057.23877.11688.36181.168.11231.04633.22657.0835.34034.12451.13281.048.26367.09864.39941.13965.11279.034.227.05859.34033.08753.13916.0354.27637.07409.41846.10211.12939.02563.26074.04046.39111.05969.12744.01874.25342.0426.38282.05524.23193.02282.46435.03259.69726.03521.02979.00031.05908.00452.08936.00452h40a8,8,0,0,0,0-16H51.147L71.43164,71.43115a80.00025,80.00025,0,1,1,0,113.13721,8.00035,8.00035,0,0,0-11.314,11.31445A96.00027,96.00027,0,0,0,195.88232,60.11768Z"/>
</svg>
