<svg id="Flat" xmlns="http://www.w3.org/2000/svg" viewBox="0 0 256 256">
  <path d="M216,40H40A16.01833,16.01833,0,0,0,24,56V200a16.01833,16.01833,0,0,0,16,16H216a16.01833,16.01833,0,0,0,16-16V56A16.01833,16.01833,0,0,0,216,40Zm0,160H40V56H216l.00977,144ZM76,128a20.00028,20.00028,0,0,0,34.28613,13.99707,7.99956,7.99956,0,0,1,11.42774,11.19727,36,36,0,1,1,0-50.38868,7.99956,7.99956,0,0,1-11.42774,11.19727A20.00028,20.00028,0,0,0,76,128Zm72,0a20.00028,20.00028,0,0,0,34.28613,13.99707,7.99956,7.99956,0,0,1,11.42774,11.19727,36,36,0,1,1,0-50.38868,7.99956,7.99956,0,0,1-11.42774,11.19727A20.00028,20.00028,0,0,0,148,128Z"/>
</svg>
