<svg id="Flat" xmlns="http://www.w3.org/2000/svg" viewBox="0 0 256 256">
  <path d="M248,128a87.32736,87.32736,0,0,1-35.19434,70.40137,8,8,0,1,1-9.60937-12.793A72.00187,72.00187,0,1,0,88,128a8,8,0,0,1-16,0,87.78285,87.78285,0,0,1,3.29443-23.88086C74.19971,104.04492,73.10132,104,72,104a48,48,0,0,0,0,96h64a8,8,0,0,1,0,16H72A64,64,0,1,1,81.29,88.67871,87.98988,87.98988,0,0,1,248,128Zm-64,31.99219H163.81641l11.61132-29.02881a7.99995,7.99995,0,1,0-14.85546-5.94238l-16,40A7.99974,7.99974,0,0,0,152,175.99219h20.18359L160.57227,205.021a7.99995,7.99995,0,1,0,14.85546,5.94238l16-40A7.99974,7.99974,0,0,0,184,159.99219Z"/>
</svg>
