<svg id="Flat" xmlns="http://www.w3.org/2000/svg" viewBox="0 0 256 256">
  <path d="M248,127.98438A87.2555,87.2555,0,0,1,230.39844,180.794a7.99991,7.99991,0,1,1-12.792-9.61036A72.002,72.002,0,1,0,88,127.98438a8,8,0,0,1-16,0,87.78415,87.78415,0,0,1,3.29443-23.88086c-1.09472-.07422-2.19287-.11914-3.29443-.11914a48,48,0,0,0,0,96H96a8,8,0,0,1,0,16H72A64,64,0,1,1,81.29,88.66284,87.99,87.99,0,0,1,248,127.98438Zm-90.33936-5.65284a7.93284,7.93284,0,0,0-.592-.5354c-.08374-.06885-.17212-.12817-.258-.19311-.12256-.09253-.24317-.18726-.3711-.273-.10717-.07154-.2185-.1333-.32837-.19922-.11377-.06836-.22534-.13965-.34277-.20264-.11352-.06054-.23022-.11181-.346-.1665-.1206-.05737-.23974-.11768-.36377-.16895-.11157-.04614-.22583-.08325-.33911-.124-.13281-.04834-.26416-.09888-.40014-.14014-.1128-.03393-.22705-.05859-.34107-.08764-.13867-.0354-.27612-.074-.41772-.10181-.12964-.02588-.26075-.04053-.3916-.05981-.12745-.0188-.25293-.04273-.38233-.05518-.23193-.02295-.46484-.03271-.698-.0354-.02978-.00024-.05883-.00439-.08862-.00439s-.05884.00415-.08862.00439c-.23316.00269-.46607.01245-.698.0354-.1294.01245-.25488.03638-.38233.05518-.13085.01928-.262.03393-.3916.05981-.1416.02783-.279.06641-.41772.10181-.114.029-.22827.05371-.34107.08764-.136.04126-.26733.0918-.40014.14014-.11328.04077-.22754.07788-.33911.124-.124.05127-.24317.11158-.36377.16895-.11573.05469-.23243.106-.346.1665-.11743.063-.229.13428-.34277.20264-.10987.06592-.2212.12768-.32837.19922-.12793.08569-.24854.18042-.3711.273-.08593.06494-.17431.12426-.258.19311a7.93284,7.93284,0,0,0-.592.5354l-33.937,33.937A7.99984,7.99984,0,1,0,123.71582,167.582L144,147.29785v60.68653a8,8,0,0,0,16,0V147.29785L180.28418,167.582a7.99984,7.99984,0,1,0,11.31348-11.31348Z"/>
</svg>
