<svg id="Flat" xmlns="http://www.w3.org/2000/svg" viewBox="0 0 256 256">
  <path d="M248,128a87.32669,87.32669,0,0,1-35.19434,70.40137,8,8,0,1,1-9.60937-12.793A72.00187,72.00187,0,1,0,88,128a8,8,0,0,1-16,0,87.78551,87.78551,0,0,1,3.29443-23.88086C74.19971,104.04492,73.10132,104,72,104a48,48,0,0,0,0,96h64a8,8,0,0,1,0,16H72A64,64,0,1,1,81.29,88.67871,87.98988,87.98988,0,0,1,248,128Zm-100-8a12,12,0,1,0,12,12A12,12,0,0,0,148,120Zm-8,40a12,12,0,1,0,12,12A12,12,0,0,0,140,160Zm40-8a12,12,0,1,0,12,12A12,12,0,0,0,180,152Zm-8,40a12,12,0,1,0,12,12A12,12,0,0,0,172,192Z"/>
</svg>
