<svg id="Flat" xmlns="http://www.w3.org/2000/svg" viewBox="0 0 256 256">
  <path d="M156,72a76.16512,76.16512,0,0,0-12.356,1.012A71.97744,71.97744,0,0,0,88.16846,9.8252a7.9997,7.9997,0,0,0-9.58741,9.58691A56.33865,56.33865,0,0,1,80,32,56.06322,56.06322,0,0,1,24,88a56.39592,56.39592,0,0,1-12.59082-1.418,8.00013,8.00013,0,0,0-9.585,9.58789A72.18734,72.18734,0,0,0,34.11353,141.2312,51.96571,51.96571,0,0,0,76,224h80a76,76,0,0,0,0-152ZM21.36816,103.95215Q22.68287,104.0005,24,104A72.08124,72.08124,0,0,0,96,32q0-1.3374-.04932-2.67285a55.64963,55.64963,0,0,1,31.98267,48.05249A76.42,76.42,0,0,0,85.03711,120.7832,52.31117,52.31117,0,0,0,76,120a51.69688,51.69688,0,0,0-30.02808,9.58643A56.254,56.254,0,0,1,21.36816,103.95215ZM156,208H76a36,36,0,0,1,0-72,36.42265,36.42265,0,0,1,4.89453.3291A76.28371,76.28371,0,0,0,80,148a8,8,0,0,0,16,0,60,60,0,1,1,60,60Z"/>
</svg>
