<svg id="Flat" xmlns="http://www.w3.org/2000/svg" viewBox="0 0 256 256">
  <path d="M191.59766,168.40234a7.99915,7.99915,0,0,1,0,11.31348l-33.937,33.937a7.93065,7.93065,0,0,1-.592.5354c-.08374.06885-.17212.12818-.258.19312-.12256.09253-.24317.18725-.3711.273-.10766.07177-.21972.134-.32983.20019-.113.06812-.22412.13892-.34082.20142-.11524.06152-.23364.11377-.35132.16919-.11865.05639-.23584.11548-.35767.166-.1145.04737-.23169.08545-.3479.12744-.12988.04688-.2583.09668-.39111.13672-.11719.0354-.23584.06128-.354.09107-.13428.03393-.26709.07153-.40406.09863-.13891.02759-.27929.044-.41919.064-.11816.01684-.23437.03955-.35424.05127-.26245.02587-.52588.03979-.78931.03979s-.52686-.01392-.78931-.03979c-.11987-.01172-.23608-.03443-.35424-.05127-.1399-.02-.28028-.03638-.41919-.064-.137-.0271-.26978-.0647-.40406-.09863-.11816-.02979-.23681-.05567-.354-.09107-.13281-.04-.26123-.08984-.39111-.13672-.11621-.042-.2334-.08007-.3479-.12744-.12183-.05053-.239-.10962-.35767-.166-.11768-.05542-.23608-.10767-.35132-.16919-.1167-.0625-.22778-.1333-.34082-.20142-.11011-.06616-.22217-.12842-.32983-.20019-.12793-.0857-.24854-.18042-.3711-.273-.08593-.06494-.17431-.12427-.258-.19312a7.93065,7.93065,0,0,1-.592-.5354l-33.937-33.937a7.99984,7.99984,0,1,1,11.31348-11.31348L144,188.68652V128a8,8,0,0,1,16,0v60.68652l20.28418-20.28418A8,8,0,0,1,191.59766,168.40234ZM160,40A88.09614,88.09614,0,0,0,81.29,88.67847,63.99971,63.99971,0,1,0,72,216H96a8,8,0,0,0,0-16H72a48,48,0,0,1,0-96c1.10156,0,2.19971.04492,3.29443.11914A87.78415,87.78415,0,0,0,72,128a8,8,0,0,0,16,0,72,72,0,1,1,129.60645,43.19922,7.9999,7.9999,0,1,0,12.792,9.61035A88.00562,88.00562,0,0,0,160,40Z"/>
</svg>
