<svg id="Flat" xmlns="http://www.w3.org/2000/svg" viewBox="0 0 256 256">
  <path d="M199.81909,195.10828l-.03-.03308L97.02441,82.03418l-.05-.05518L53.91943,34.61865a7.99991,7.99991,0,1,0-11.83886,10.7627l39.24267,43.167c-.021.04175-.04.08435-.06079.12622A63.99965,63.99965,0,1,0,72,216h88a87.30264,87.30264,0,0,0,31.79883-5.92847l10.28174,11.30982a7.99991,7.99991,0,0,0,11.83886-10.7627ZM160,200H72a48,48,0,0,1,0-96c1.10376,0,2.2041.04517,3.30127.11963A88.21146,88.21146,0,0,0,72,128a8,8,0,0,0,16,0,72.10564,72.10564,0,0,1,5.063-26.53809l86.99975,95.7A71.779,71.779,0,0,1,160,200Zm88-72a87.85422,87.85422,0,0,1-22.354,58.606,7.99972,7.99972,0,1,1-11.93164-10.65918A72.004,72.004,0,0,0,117.374,69.96729a8,8,0,0,1-9.4834-12.88672A88.00689,88.00689,0,0,1,248,128Z"/>
</svg>
