<svg id="Flat" xmlns="http://www.w3.org/2000/svg" viewBox="0 0 256 256">
  <path d="M248,128a87.32736,87.32736,0,0,1-35.19434,70.40137,8,8,0,1,1-9.60937-12.793A72.00187,72.00187,0,1,0,88,128a8,8,0,0,1-16,0,87.78551,87.78551,0,0,1,3.29443-23.88086C74.19971,104.04492,73.10132,104,72,104a48,48,0,0,0,0,96h64a8,8,0,0,1,0,16H72A64,64,0,1,1,81.29,88.67871,87.98988,87.98988,0,0,1,248,128Zm-85.02881.57227a8.00012,8.00012,0,0,0-10.39892,4.45654l-16,40a7.99995,7.99995,0,1,0,14.85546,5.94238l16-40A7.99989,7.99989,0,0,0,162.97119,128.57227Zm24,32a7.99971,7.99971,0,0,0-10.39892,4.45654l-16,40a7.99995,7.99995,0,1,0,14.85546,5.94238l16-40A7.99989,7.99989,0,0,0,186.97119,160.57227Z"/>
</svg>
