<svg id="Flat" xmlns="http://www.w3.org/2000/svg" viewBox="0 0 256 256">
  <path d="M160,40A88.102,88.102,0,0,0,81.28711,88.6709,64.003,64.003,0,1,0,72,216h88a88,88,0,0,0,0-176Zm0,160H72a48,48,0,0,1,0-96q1.65161,0,3.29443.11133A87.76127,87.76127,0,0,0,72,128a8,8,0,0,0,16,0,72,72,0,1,1,72,72Zm37.65674-89.65674a7.99915,7.99915,0,0,1,0,11.31348l-48,48a7.99945,7.99945,0,0,1-11.31348,0l-24-24a7.99984,7.99984,0,0,1,11.31348-11.31348L144,152.68652l42.34326-42.34326A8,8,0,0,1,197.65674,110.34326Z"/>
</svg>
