<svg id="Flat" xmlns="http://www.w3.org/2000/svg" viewBox="0 0 256 256">
  <path d="M156,72a75.81,75.81,0,0,0-20.23584,2.73853,55.75045,55.75045,0,0,0-9.41089-11.57911l9.48413-13.54419A8.00015,8.00015,0,0,0,122.731,40.4375l-9.48438,13.54443a55.86762,55.86762,0,0,0-26.9956-5.9624L83.37451,31.70605A7.99987,7.99987,0,1,0,67.61768,34.4834l2.87475,16.30371A55.39771,55.39771,0,0,0,47.17651,65.635L33.61426,56.13867A8.00027,8.00027,0,0,0,24.4375,69.24609l13.55981,9.49463a55.39533,55.39533,0,0,0-5.98657,26.98535l-16.30517,2.87452a8.00079,8.00079,0,0,0,1.37988,15.87988,8.12832,8.12832,0,0,0,1.39844-.12207l16.31079-2.87573a55.95086,55.95086,0,0,0,5.85571,12.42749A51.96741,51.96741,0,0,0,76,224h80a76,76,0,0,0,0-152ZM48.62964,111.09448c-.00879-.05713-.01123-.11352-.02124-.17065-.011-.06226-.02954-.1211-.042-.18286A39.72837,39.72837,0,0,1,55.12793,81.186c.0354-.04834.07642-.08985.11084-.13916.03857-.05518.06909-.11329.106-.16895a39.72789,39.72789,0,0,1,25.48584-16.2395c.07422-.011.148-.01612.22216-.029.06983-.01221.136-.033.20508-.04688a39.9584,39.9584,0,0,1,29.17456,6.28906c.16114.13282.323.26514.49683.38672.12646.08862.26245.15137.39209.23145a39.78445,39.78445,0,0,1,9.26562,9.31079,76.44662,76.44662,0,0,0-35.5498,40.00268A52.31117,52.31117,0,0,0,76,120a51.67626,51.67626,0,0,0-22.07568,4.93262A40.03668,40.03668,0,0,1,48.62964,111.09448ZM156,208H76a36,36,0,0,1,0-72,36.42265,36.42265,0,0,1,4.89453.3291A76.28371,76.28371,0,0,0,80,148a8,8,0,0,0,16,0,60,60,0,1,1,60,60Z"/>
</svg>
