<svg id="Flat" xmlns="http://www.w3.org/2000/svg" viewBox="0 0 256 256">
  <path d="M160,240H96a8.00032,8.00032,0,0,1-7.63574-10.38672l9.37652-30A56.00249,56.00249,0,1,1,74.33252,92.02441a56,56,0,1,1,107.335,0,56.00044,56.00044,0,1,1-23.40771,107.58985l9.376,29.999A8.00039,8.00039,0,0,1,160,240Zm-53.11792-16h42.236l-13.26977-42.458a8.0001,8.0001,0,0,1,13.71936-7.582A39.97723,39.97723,0,1,0,170.907,109.03613a8.00343,8.00343,0,0,1-8.77234-12.1709,39.99986,39.99986,0,1,0-68.21692.08594,8.00227,8.00227,0,0,1-8.731,12.10742A40.00542,40.00542,0,1,0,106.43347,173.959a8.0001,8.0001,0,0,1,13.71936,7.582Z"/>
</svg>
