<svg id="Flat" xmlns="http://www.w3.org/2000/svg" viewBox="0 0 256 256">
  <path d="M80,56V24a8,8,0,0,1,16,0V56a8,8,0,0,1-16,0Zm40,8a7.99977,7.99977,0,0,0,8-8V24a8,8,0,0,0-16,0V56A7.99977,7.99977,0,0,0,120,64Zm32,0a7.99977,7.99977,0,0,0,8-8V24a8,8,0,0,0-16,0V56A7.99977,7.99977,0,0,0,152,64Zm96,56v8a40.04613,40.04613,0,0,1-37.50781,39.91455A96.65441,96.65441,0,0,1,183.46387,208H208a8,8,0,0,1,0,16H156.8208c-.0376.00049-.07519.00586-.11279.00586-.02832,0-.05615-.00537-.08447-.00586H83.15918c-.0459-.001-.09082.00146-.13623,0H32a8,8,0,0,1,0-16H56.53613A96.31957,96.31957,0,0,1,24,136V88a7.99977,7.99977,0,0,1,8-8H208A40.04521,40.04521,0,0,1,248,120ZM200,96H40v40a80.26929,80.26929,0,0,0,45.11279,72h69.77442a80.31731,80.31731,0,0,0,41.96191-49.86523c.05127-.21485.1084-.42774.17676-.63526A79.52632,79.52632,0,0,0,200,136Zm32,24a24.03806,24.03806,0,0,0-16-22.624V136a95.32337,95.32337,0,0,1-1.20312,15.01367A24.039,24.039,0,0,0,232,128Z"/>
</svg>
