<svg id="Flat" xmlns="http://www.w3.org/2000/svg" viewBox="0 0 256 256">
  <path d="M216,72H40a7.99977,7.99977,0,0,0-8,8v72a72.08124,72.08124,0,0,0,72,72h48a72.10018,72.10018,0,0,0,71.63428-64.73926A40.06159,40.06159,0,0,0,256,120v-8A40.04521,40.04521,0,0,0,216,72ZM152,208H104a56.06353,56.06353,0,0,1-56-56V88H208v64A56.06353,56.06353,0,0,1,152,208Zm88-88a24.03806,24.03806,0,0,1-16,22.624V89.376A24.03806,24.03806,0,0,1,240,112ZM88,48V16a8,8,0,0,1,16,0V48a8,8,0,0,1-16,0Zm32,0V16a8,8,0,0,1,16,0V48a8,8,0,0,1-16,0Zm32,0V16a8,8,0,0,1,16,0V48a8,8,0,0,1-16,0Z"/>
</svg>
