<svg id="Flat" xmlns="http://www.w3.org/2000/svg" viewBox="0 0 256 256">
  <path d="M88,48V16a8,8,0,0,1,16,0V48a8,8,0,0,1-16,0Zm40,8a8.00008,8.00008,0,0,0,8-8V16a8,8,0,0,0-16,0V48A8.00008,8.00008,0,0,0,128,56Zm32,0a8.00008,8.00008,0,0,0,8-8V16a8,8,0,0,0-16,0V48A8.00008,8.00008,0,0,0,160,56Zm92.7998,46.3999L224,124v60a32.03635,32.03635,0,0,1-32,32H64a32.03635,32.03635,0,0,1-32-32V124L3.2002,102.3999a7.9998,7.9998,0,0,1,9.5996-12.7998L32,104V88A16.01833,16.01833,0,0,1,48,72H208a16.01833,16.01833,0,0,1,16,16v16l19.2002-14.3999a7.9998,7.9998,0,0,1,9.5996,12.7998ZM208,88H48l-.01025.00049L48,184a16.01833,16.01833,0,0,0,16,16H192a16.01833,16.01833,0,0,0,16-16Z"/>
</svg>
