<svg id="Flat" xmlns="http://www.w3.org/2000/svg" viewBox="0 0 256 256">
  <path d="M225.94092,114.89844a15.92,15.92,0,0,0-13.46094-3.085,23.99389,23.99389,0,0,1-29.27832-23.14063,15.94771,15.94771,0,0,0-15.87354-15.875A23.99268,23.99268,0,0,1,144.187,43.51953a16.01308,16.01308,0,0,0-15.562-19.51367c-.21729-.001-.43018-.00195-.647-.00195A104,104,0,1,0,231.99463,127.3623v-.001A15.97461,15.97461,0,0,0,225.94092,114.89844Zm-35.77149,75.38281c-33.83642,33.77734-89.23877,34.14844-123.5.82617a87.98863,87.98863,0,0,1,61.32764-151.0957c.19287,0,.38574.001.57861.002a40.06542,40.06542,0,0,0,38.627,48.832,39.998,39.998,0,0,0,48.78955,38.58106.1617.1617,0,0,1,.00244.03418A87.36126,87.36126,0,0,1,190.16943,190.28125Zm-25.68408-26.7666a12.0001,12.0001,0,1,1-16.9707,0A12.00019,12.00019,0,0,1,164.48535,163.51465Zm-64-8a12.0001,12.0001,0,1,1-16.9707,0A12.00019,12.00019,0,0,1,100.48535,155.51465Zm-24.9707-39.0293a12.0001,12.0001,0,1,1,16.9707,0A12.00019,12.00019,0,0,1,75.51465,116.48535Zm68.9707,16a12.0001,12.0001,0,1,1,0-16.9707A12.00062,12.00062,0,0,1,144.48535,132.48535Z"/>
</svg>
