<svg id="Flat" xmlns="http://www.w3.org/2000/svg" viewBox="0 0 256 256">
  <path d="M156,92H100a8.00039,8.00039,0,0,0-8,8v56a8.00039,8.00039,0,0,0,8,8h56a8.00039,8.00039,0,0,0,8-8V100A8.00039,8.00039,0,0,0,156,92Zm-8,56H108V108h40Zm84-4H216V112h16a8,8,0,0,0,0-16H216V56a16.01833,16.01833,0,0,0-16-16H160V24a8,8,0,0,0-16,0V40H112V24a8,8,0,0,0-16,0V40H56A16.01833,16.01833,0,0,0,40,56V96H24a8,8,0,0,0,0,16H40v32H24a8,8,0,0,0,0,16H40v40a16.01833,16.01833,0,0,0,16,16H96v16a8,8,0,0,0,16,0V216h32v16a8,8,0,0,0,16,0V216h40a16.01833,16.01833,0,0,0,16-16V160h16a8,8,0,0,0,0-16Zm-32,56H56V56H200l.00323,47.93555c-.00018.022-.00323.043-.00323.06445,0,.022.00305.043.00323.06445l.0033,47.80664c-.00067.04346-.00653.08545-.00653.12891s.00586.08545.00653.12891l.00324,47.8706Z"/>
</svg>
