<svg id="Flat" xmlns="http://www.w3.org/2000/svg" viewBox="0 0 256 256">
  <path d="M224,48H32A16.01833,16.01833,0,0,0,16,64V96.73633c-.00049.03906-.00586.07715-.00586.11621s.00537.07715.00586.11621V192a16.01833,16.01833,0,0,0,16,16H224a16.01833,16.01833,0,0,0,16-16V64A16.01833,16.01833,0,0,0,224,48Zm0,16,.00195,24.85254H32V64Zm0,128H32V104.85254H224.00342L224.01025,192Zm-16.00586-24a8.00008,8.00008,0,0,1-8,8h-32a8,8,0,0,1,0-16h32A8.00008,8.00008,0,0,1,207.99414,168Zm-64,0a8.00008,8.00008,0,0,1-8,8h-16a8,8,0,0,1,0-16h16A8.00008,8.00008,0,0,1,143.99414,168Z"/>
</svg>
