<svg id="Flat" xmlns="http://www.w3.org/2000/svg" viewBox="0 0 256 256">
  <path d="M225.94141,72.83789c-.03223-.0603-.05811-.12256-.09229-.18237-.02978-.05176-.06494-.09815-.0957-.14893a15.99485,15.99485,0,0,0-5.88037-5.76806l-84-47.47828a16.08528,16.08528,0,0,0-15.7461,0L36.12646,66.73877a15.98927,15.98927,0,0,0-5.959,5.89795c-.01562.02661-.03369.05029-.04834.07715-.02637.04712-.0459.09619-.07129.14355A15.98686,15.98686,0,0,0,28,80.66772v94.6648a16.02488,16.02488,0,0,0,8.127,13.92871l83.99951,47.478a15.97879,15.97879,0,0,0,7.30127,2.041c.1626.01172.32422.02808.48975.02979.02832.00049.05615.00049.08447.00049.22119,0,.43946-.01514.65625-.033a15.97269,15.97269,0,0,0,7.21485-2.03833l84-47.478A16.02531,16.02531,0,0,0,228,175.33252V80.66772A15.98229,15.98229,0,0,0,225.94141,72.83789ZM128,33.18945l75.813,42.85108-74.79688,42.77L52.3291,75.96ZM44,89.63428l77.01318,43.03247-.88525,85.69458L44,175.33252Zm92.13037,128.58081.8833-85.54663L212,89.79v85.54248Z"/>
</svg>
