<svg id="Flat" xmlns="http://www.w3.org/2000/svg" viewBox="0 0 256 256">
  <path d="M229.92285,70.81348c-.0249-.04566-.04394-.09327-.06982-.13868-.01123-.01953-.02491-.0371-.03614-.05664a15.99109,15.99109,0,0,0-5.97265-5.88476l-88-49.5a16.09272,16.09272,0,0,0-15.68848,0l-88,49.50024a15.99423,15.99423,0,0,0-5.9873,5.91138c-.01563.02734-.03418.05176-.04932.07935-.0249.04394-.04248.08984-.06641.134A15.98322,15.98322,0,0,0,24,78.67871v98.64258a16.02048,16.02048,0,0,0,8.15576,13.94531l88.00049,49.50049a15.97845,15.97845,0,0,0,7.24463,2.02173c.1792.01367.35693.03052.53906.032.02393.00049.04785.00049.07178.00049.25244,0,.501-.01465.74707-.0376a15.97827,15.97827,0,0,0,7.08545-2.01709l88-49.5A16.02048,16.02048,0,0,0,232,177.32129V78.67871A15.98671,15.98671,0,0,0,229.92285,70.81348ZM128,29.17871l79.74365,44.856L128.91016,118.821,48.37891,73.96558ZM40,87.61328l80.90771,45.06494-.78857,89.71021L40,177.32129Zm96.12109,134.63989.78711-89.574L216,87.74585v89.57544Z"/>
</svg>
