<svg xmlns="http://www.w3.org/2000/svg" viewBox="0 0 256 256"><path d="M116.7,104a15.9,15.9,0,0,0,22.6,0L168,75.3a16.1,16.1,0,0,0,0-22.6L139.3,24a15.9,15.9,0,0,0-22.6,0L88,52.7a16.1,16.1,0,0,0,0,22.6ZM128,35.3,156.7,64,128,92.7h0L99.3,64Zm104,81.4L203.3,88a15.9,15.9,0,0,0-22.6,0L152,116.7a16.1,16.1,0,0,0,0,22.6L180.7,168a15.9,15.9,0,0,0,22.6,0L232,139.3A16.1,16.1,0,0,0,232,116.7Zm-40,40h0L163.3,128,192,99.3,220.7,128Zm-88-40L75.3,88a15.9,15.9,0,0,0-22.6,0L24,116.7a16.1,16.1,0,0,0,0,22.6L52.7,168a15.9,15.9,0,0,0,22.6,0L104,139.3A16.1,16.1,0,0,0,104,116.7Zm-40,40h0L35.3,128,64,99.3,92.7,128Zm75.3-4.7a15.9,15.9,0,0,0-22.6,0L88,180.7a16.1,16.1,0,0,0,0,22.6L116.7,232a15.9,15.9,0,0,0,22.6,0L168,203.3a16.1,16.1,0,0,0,0-22.6ZM128,220.7h0L99.3,192,128,163.3,156.7,192Z"/></svg>