<svg id="Flat" xmlns="http://www.w3.org/2000/svg" viewBox="0 0 256 256">
  <path d="M108,144a12,12,0,1,1-12-12A12,12,0,0,1,108,144Zm52-12a12,12,0,1,0,12,12A12,12,0,0,0,160,132Zm82.40918,54.53418c-16.57617,14.4082-38.8623,25.3291-64.44922,31.585a16.06317,16.06317,0,0,1-3.81641.46192,15.89354,15.89354,0,0,1-14.23-8.86426l-9.48974-18.97949A199.13637,199.13637,0,0,1,128,192a199.14289,199.14289,0,0,1-22.42383-1.26269l-9.48974,18.97949a15.89463,15.89463,0,0,1-14.23,8.86426,16.06619,16.06619,0,0,1-3.81641-.46192C52.45312,211.8633,30.167,200.9424,13.5918,186.53518a16.09137,16.09137,0,0,1-4.88672-16.72656L42.67871,56.56154A15.95664,15.95664,0,0,1,51.918,46.35647,184.04,184.04,0,0,1,82.93213,36.751,15.99421,15.99421,0,0,1,101.541,47.32522L107.4541,65.0635a199,199,0,0,1,41.0918,0L154.459,47.32522A15.99614,15.99614,0,0,1,173.06689,36.751,184.01365,184.01365,0,0,1,204.084,46.35744a15.95492,15.95492,0,0,1,9.23731,10.2041l33.97363,113.24708A16.0886,16.0886,0,0,1,242.40918,186.5342ZM231.9126,174.459,197.99609,61.1592a167.57059,167.57059,0,0,0-28.3291-8.77344l-5.0332,15.044a163.14314,163.14314,0,0,1,19.4331,4.96094,8,8,0,0,1-4.93847,15.21875C163.78711,82.63088,146.10742,80,128,80c-18.10449,0-35.78516,2.63086-51.12939,7.60938a7.99983,7.99983,0,1,1-4.9375-15.21875,163.33747,163.33747,0,0,1,19.44335-4.96289l-5.01416-15.042A167.572,167.572,0,0,0,58.02,61.14651L24.03027,174.40627c14.71729,12.79492,34.6875,22.51758,57.80957,28.16992L89.03223,188.104a161.44734,161.44734,0,0,1-17.09912-4.49463,8,8,0,0,1,4.93847-15.21875C92.21289,173.36916,109.89258,176,128,176c18.10693,0,35.78711-2.63086,51.12793-7.60937a8,8,0,0,1,4.93848,15.21875,161.45383,161.45383,0,0,1-17.07276,4.48925l7.231,14.46192C197.28223,196.92385,217.25244,187.20119,231.9126,174.459Z"/>
</svg>
