<svg id="Flat" xmlns="http://www.w3.org/2000/svg" viewBox="0 0 256 256">
  <path d="M240,136v64a16.01833,16.01833,0,0,1-16,16H32a16.01833,16.01833,0,0,1-16-16V136a16.01833,16.01833,0,0,1,16-16H80a8,8,0,0,1,0,16H32v64H224V136H176a8,8,0,0,1,0-16h48A16.01833,16.01833,0,0,1,240,136Zm-117.65674-2.34277c.0293.02929.06153.05371.09131.083.15918.15381.32178.30469.49316.44532.09815.08056.20215.15088.30323.22656.10791.08057.21386.16455.32617.23975.11621.07763.23633.145.35547.2163.105.0625.208.12842.31592.18653.12011.064.24365.11865.36621.17627.11425.05371.22656.11084.34375.15967.11816.04882.23877.08789.3584.13085.12646.0459.25146.09424.38085.13331.11915.03613.24024.0625.36084.09277.13233.03369.26368.0708.39893.09765.13916.02735.2793.04395.41992.064.11768.0166.23389.03906.353.05078.26269.02588.52588.04.78955.04s.52686-.01416.78955-.04c.11914-.01172.23535-.03418.353-.05078.14062-.02.28076-.03662.41992-.064.13525-.02685.2666-.064.39893-.09765.1206-.03027.24169-.05664.36084-.09277.12939-.03907.25439-.08741.38085-.13331.11963-.043.24024-.082.3584-.13085.11719-.04883.2295-.106.34375-.15967.12256-.05762.2461-.11231.36621-.17627.10791-.05811.21094-.124.31592-.18653.11914-.07128.23926-.13867.35547-.2163.11231-.0752.21826-.15918.32617-.23975.10108-.07568.20508-.146.30323-.22656.17138-.14063.334-.29151.49316-.44532.02978-.02929.062-.05371.09131-.083l48-48a8.00018,8.00018,0,1,0-11.31348-11.31446L136,108.68652V24a8,8,0,0,0-16,0v84.68652L85.65674,74.34277A8.00018,8.00018,0,0,0,74.34326,85.65723ZM200,168a12,12,0,1,0-12,12A12.01343,12.01343,0,0,0,200,168Z"/>
</svg>
