<svg id="Flat" xmlns="http://www.w3.org/2000/svg" viewBox="0 0 256 256">
  <path d="M231.9917,128.65527c.00146-.21923.0083-.437.0083-.65625a103.83845,103.83845,0,0,0-38.33008-80.58056c-.18408-.18262-.37744-.35938-.58252-.52686a8.06179,8.06179,0,0,0-.709-.51416,103.84114,103.84114,0,0,0-109.376-12.13086,7.9931,7.9931,0,0,0-1.27392.63233A104.35836,104.35836,0,0,0,26.0249,107.54346c-.0083.04-.021.07812-.02881.11865-.00732.03809-.00927.07617-.01562.11426A103.94986,103.94986,0,0,0,65.57227,211.125a8.035,8.035,0,0,0,1.31005.98926c.03663.022.0752.03613.11133.05713a103.84861,103.84861,0,0,0,95.25781,14.02588,8.0043,8.0043,0,0,0,1.19141-.4209,104.17823,104.17823,0,0,0,68.54492-96.83106C231.99023,128.84863,231.99316,128.75146,231.9917,128.65527Zm-16.34326-8.47851c-2.54834-.11426-5.10059-.17969-7.64258-.17969a168.47807,168.47807,0,0,0-43.93408,5.83887,166.75843,166.75843,0,0,0-13.46485-29.83545,168.20758,168.20758,0,0,0,38.20264-31.55225A87.80678,87.80678,0,0,1,215.64844,120.17676ZM176.27979,54.46387a152.15992,152.15992,0,0,1-34.31495,28.05761A169.18307,169.18307,0,0,0,103.33252,43.523a87.89956,87.89956,0,0,1,72.94727,10.94092ZM85.648,50.88232a153.04311,153.04311,0,0,1,42.03271,39.1792,151.82328,151.82328,0,0,1-63.6748,13.93555A153.98666,153.98666,0,0,1,43.72852,102.646,88.41509,88.41509,0,0,1,85.648,50.88232ZM40,127.999a88.57971,88.57971,0,0,1,.52979-9.63525,169.9698,169.9698,0,0,0,23.47607,1.6333,167.76959,167.76959,0,0,0,72.52051-16.39795,150.7848,150.7848,0,0,1,12.3164,27.13477A166.53709,166.53709,0,0,0,124.24951,142.333a169.09067,169.09067,0,0,0-55.07129,51.05908A87.79837,87.79837,0,0,1,40,127.999Zm42.00244,74.99121a153.03656,153.03656,0,0,1,50.23486-46.79345,150.44292,150.44292,0,0,1,20.94971-9.98145,152.50236,152.50236,0,0,1,3.73584,33.47608,152.94386,152.94386,0,0,1-3.49707,32.55761,87.90959,87.90959,0,0,1-71.42334-9.25879Zm89.05713,1.7295a169.50257,169.50257,0,0,0,1.86328-25.02832,168.49822,168.49822,0,0,0-4.45215-38.4751,152.48775,152.48775,0,0,1,39.53516-5.21924c2.53125,0,5.07422.063,7.61035.188A88.13982,88.13982,0,0,1,171.05957,204.71973Z"/>
</svg>
