<svg xmlns="http://www.w3.org/2000/svg" viewBox="0 0 256 256"><path d="M232,128.7V128a104.1,104.1,0,0,0-38.3-80.6l-.6-.5-.7-.5A104,104,0,0,0,83,34.2l-1.3.7A104.4,104.4,0,0,0,26,107.5v.2h0A103.7,103.7,0,0,0,65.6,211.1l1.3,1H67a104,104,0,0,0,95.3,14l1.1-.4A104.2,104.2,0,0,0,232,128.9Zm-16.4-8.5L208,120a170.1,170.1,0,0,0-43.9,5.8A166.2,166.2,0,0,0,150.6,96a167.1,167.1,0,0,0,38.2-31.6A87.6,87.6,0,0,1,215.6,120.2ZM176.3,54.5a150.4,150.4,0,0,1-34.3,28,170.5,170.5,0,0,0-38.7-39,88.1,88.1,0,0,1,73,11ZM85.6,50.9a152.8,152.8,0,0,1,42.1,39.2A153.3,153.3,0,0,1,64,104a152.7,152.7,0,0,1-20.3-1.4A88.5,88.5,0,0,1,85.6,50.9ZM40,128c0-3.3.2-6.5.5-9.6A184.3,184.3,0,0,0,64,120a167.4,167.4,0,0,0,72.5-16.4,150.3,150.3,0,0,1,12.3,27.1,177.8,177.8,0,0,0-24.6,11.6,169.1,169.1,0,0,0-55,51.1A87.9,87.9,0,0,1,40,128Zm42,75a151.2,151.2,0,0,1,71.2-56.8,156.3,156.3,0,0,1,3.7,33.5,153.3,153.3,0,0,1-3.5,32.5A85.3,85.3,0,0,1,128,216,88,88,0,0,1,82,203Zm89.1,1.7a173.1,173.1,0,0,0,1.8-25,171.6,171.6,0,0,0-4.4-38.5A154,154,0,0,1,208,136l7.6.2A88.1,88.1,0,0,1,171.1,204.7Z"/></svg>