<svg xmlns="http://www.w3.org/2000/svg" viewBox="0 0 256 256"><path d="M174,47.8A259.4,259.4,0,0,0,132.6,9.4a8.1,8.1,0,0,0-9.2,0A259.4,259.4,0,0,0,82,47.8C54.5,79.3,40,112.6,40,144a88,88,0,0,0,176,0C216,112.6,201.5,79.3,174,47.8ZM200,144a70.1,70.1,0,0,1-.5,8H136V136h63.6A70.3,70.3,0,0,1,200,144ZM183.4,88H136V72h36.9A184.1,184.1,0,0,1,183.4,88ZM136,200h37.2A71.3,71.3,0,0,1,136,215.5Zm0-16V168h59.9a70.8,70.8,0,0,1-8.1,16Zm0-64V104h55.4a111.5,111.5,0,0,1,5.4,16Zm23.9-64H136V32.6A266.2,266.2,0,0,1,159.9,56ZM56,144c0-50,42.3-92.7,64-111.4V215.5A72,72,0,0,1,56,144Z"/></svg>