<svg id="Flat" xmlns="http://www.w3.org/2000/svg" viewBox="0 0 256 256">
  <path d="M174.03662,47.75049a254.574,254.574,0,0,0-41.44873-38.3042,7.99885,7.99885,0,0,0-9.17578,0,254.574,254.574,0,0,0-41.44873,38.3042C54.51074,79.3208,40,112.60352,40,144a88,88,0,0,0,176,0C216,112.60352,201.48926,79.3208,174.03662,47.75049ZM128,216a72.08124,72.08124,0,0,1-72-72c0-57.23291,55.46924-105.01465,72-117.97949C144.5332,38.9873,200,86.76709,200,144A72.08124,72.08124,0,0,1,128,216Zm55.2124-62.60352a55.85216,55.85216,0,0,1-45.76562,45.7085,8,8,0,1,1-2.6543-15.77832,39.8386,39.8386,0,0,0,32.64453-32.604,8.00019,8.00019,0,0,1,15.77539,2.67382Z"/>
</svg>
