<svg id="Flat" xmlns="http://www.w3.org/2000/svg" viewBox="0 0 256 256">
  <path d="M204.89453,186.749a7.93353,7.93353,0,0,0,.69458-1.26489A87.45581,87.45581,0,0,0,216,144.00342v-.00708c-.00122-31.39527-14.51172-64.67627-41.96338-96.24536A254.56425,254.56425,0,0,0,132.58789,9.44629c-.01221-.00855-.02588-.01392-.03809-.02246a7.98548,7.98548,0,0,0-.95556-.56372c-.05957-.03-.11939-.05811-.17969-.08667a7.93156,7.93156,0,0,0-2.09961-.65625c-.07641-.0127-.15234-.02442-.229-.03491a7.20731,7.20731,0,0,0-2.17188,0c-.07666.01049-.15234.02221-.229.03491a7.93444,7.93444,0,0,0-2.09961.65625c-.0603.02856-.12012.05664-.17969.08667a7.98548,7.98548,0,0,0-.95556.56372c-.01221.00854-.02588.01391-.03809.02246A254.56425,254.56425,0,0,0,81.96338,47.751C54.51074,79.32129,40,112.60352,40,144a87.95263,87.95263,0,0,0,140.15771,70.83081,7.97307,7.97307,0,0,0,1.23975-.93384A88.64222,88.64222,0,0,0,204.89453,186.749Zm-9.16406-18.33252L136,108.686V83.314l63.918,63.918A71.54706,71.54706,0,0,1,195.73047,168.4165ZM136,179.314l27.36523,27.36524A71.44812,71.44812,0,0,1,136,215.54492Zm0-22.62792V131.314l52.1665,52.16651a72.55714,72.55714,0,0,1-11.67724,13.69482Zm61.34326-34.65674L136,60.686V32.603C154.47363,48.48169,187.75635,81.74023,197.34326,122.0293ZM56,144c0-49.95728,42.261-92.71143,64-111.397V215.54492A72.095,72.095,0,0,1,56,144Z" fill="#231f20"/>
</svg>
