<svg id="Flat" xmlns="http://www.w3.org/2000/svg" viewBox="0 0 256 256">
  <path d="M53.84668,145.97266h152.252a15.99994,15.99994,0,0,0,11.82129-26.78321L141.793,35.74121a15.99974,15.99974,0,0,0-23.64063,0v.00025L42.02539,119.1897a15.9998,15.9998,0,0,0,11.82129,26.783Zm76.126-99.448,76.12109,83.448-152.24414-.0044Zm80,115.448h-160a16.01833,16.01833,0,0,0-16,16v24a16.01833,16.01833,0,0,0,16,16h160a16.01834,16.01834,0,0,0,16-16v-24A16.01833,16.01833,0,0,0,209.97266,161.97266Zm0,40h-160v-24h160Z"/>
</svg>
