<svg id="Flat" xmlns="http://www.w3.org/2000/svg" viewBox="0 0 256 256">
  <path d="M231.99023,55.80933q-.00511-.22192-.02246-.44312-.01391-.18054-.03564-.35864c-.01709-.13819-.03858-.27564-.063-.41309-.022-.124-.0459-.24707-.07324-.36889-.02979-.13038-.064-.25953-.1001-.38843-.03467-.12329-.07031-.24536-.11035-.366-.042-.126-.08887-.25-.13721-.374-.0459-.11865-.09326-.23609-.14453-.35156-.05469-.12207-.11377-.24195-.17432-.36158-.05761-.11352-.11669-.22583-.17919-.33618-.06543-.114-.13428-.22607-.20508-.33765-.07178-.11254-.14551-.2229-.22266-.33154-.07226-.10229-.148-.20263-.22558-.30224-.0879-.11206-.17872-.221-.272-.32813-.04394-.05054-.082-.10425-.12744-.154-.03857-.042-.08105-.07764-.12012-.11865-.09668-.10108-.19677-.19849-.29882-.29444-.09424-.08862-.18848-.17627-.28614-.25976-.09619-.08228-.19531-.1604-.2959-.238-.10888-.08472-.21777-.16895-.33056-.24731-.09815-.06836-.19922-.1316-.3003-.19532-.11865-.07519-.23681-.1499-.35839-.218-.10694-.06005-.2168-.114-.32666-.16918-.11963-.06006-.23877-.12037-.36084-.17383-.12061-.05323-.24414-.09961-.36768-.147-.1167-.04443-.23291-.08959-.35107-.12841-.13037-.043-.26368-.07886-.39649-.11524-.11767-.03174-.23437-.06421-.353-.09082-.13232-.02954-.26708-.05273-.40185-.07568-.126-.02149-.25147-.04248-.37793-.05786-.12744-.01538-.25537-.02564-.38428-.03491-.13916-.01026-.27881-.01832-.41845-.02125C224.1123,48.00732,224.05713,48,224,48H32c-.05371,0-.10547.00708-.15918.00806-.14746.00293-.29492.01123-.44189.02221-.12159.00928-.24219.0188-.36182.03321-.13428.01611-.26758.03808-.40137.06128-.12744.022-.25488.0437-.37988.07177-.126.02808-.25.06226-.375.09644-.126.03467-.25195.0686-.37549.10913-.125.041-.248.08862-.37158.136-.1167.04492-.23389.08886-.34815.13891-.12744.05591-.252.1189-.377.18189-.105.05273-.21.10424-.312.16137-.125.07007-.24707.147-.36914.22437-.09766.062-.19629.12353-.291.1897-.11474.07959-.22558.165-.33642.25146-.09864.07642-.19629.15308-.291.23413-.09863.08423-.19385.17285-.28955.26294-.10107.09522-.20019.1919-.29639.29224-.03906.04126-.082.07715-.1206.11914-.04541.0498-.0835.10351-.12744.154-.09326.10718-.18408.21607-.272.32813-.07763.09961-.15332.2-.22558.30224-.07715.10864-.15088.219-.22266.33154-.0708.11158-.13965.22364-.20508.33765-.0625.11035-.12158.22266-.17919.33618-.06055.11963-.11963.23951-.17432.36158-.05127.11547-.09863.23291-.14453.35156-.04834.124-.09522.248-.13721.374-.04.12061-.07568.24268-.11035.366-.03613.1289-.07031.25805-.1001.38843-.02734.12182-.05127.24487-.07324.36889-.02441.13745-.0459.2749-.063.41309q-.022.17834-.03564.35864-.01758.22156-.02246.44312C24.0083,55.87329,24,55.93555,24,56V192a16.01833,16.01833,0,0,0,16,16H216a16.01833,16.01833,0,0,0,16-16V56C232,55.93555,231.9917,55.87329,231.99023,55.80933ZM40,74.18628l58.70605,53.814L40,181.814Zm100.14209,47.83081-.00586.00537L128,133.14746,52.56689,64H203.43311ZM110.5459,138.85327l12.04785,11.04395a8.00113,8.00113,0,0,0,10.8125,0L145.45459,138.853,203.43311,192H52.56738ZM157.294,128l58.70751-53.81519.00782,107.63672Z"/>
</svg>
