<svg id="Flat" xmlns="http://www.w3.org/2000/svg" viewBox="0 0 256 256">
  <path d="M231.99023,55.80933q-.00511-.22192-.02246-.44312-.01391-.18054-.03564-.35864c-.01709-.13819-.03858-.27564-.063-.41284-.022-.12427-.0459-.24756-.07324-.36963-.02979-.12989-.064-.25855-.09961-.38721-.03467-.12353-.0708-.24634-.11133-.36743-.0415-.12549-.08789-.24927-.13623-.3728-.04639-.1189-.09375-.23682-.14551-.35279-.0542-.12133-.11279-.24072-.17334-.35986-.0581-.11426-.11718-.2273-.18066-.33814-.06445-.11328-.13281-.2246-.20361-.33544-.07178-.11329-.146-.22461-.22364-.334-.07226-.10156-.147-.20117-.22461-.30029-.08838-.11255-.1792-.22193-.273-.32959-.04394-.05029-.08154-.10376-.12695-.15332-.03808-.04175-.08057-.07715-.11963-.11817-.09765-.10156-.19824-.1997-.30078-.29614-.09326-.08789-.18652-.1748-.2832-.25757-.09766-.08349-.19824-.16235-.29981-.24121-.10791-.08349-.21533-.1665-.32617-.24389-.1001-.06958-.20312-.134-.30615-.19922-.1167-.07349-.23291-.14722-.35254-.21411-.10938-.06153-.22168-.1167-.334-.1731-.11719-.05859-.23389-.11768-.353-.17017-.124-.05444-.25049-.10205-.37744-.15039-.1128-.043-.2251-.08691-.33985-.12451-.13476-.04443-.27246-.08179-.41015-.11914-.1128-.03052-.2251-.06152-.33887-.08716-.13672-.03051-.27539-.05468-.415-.07837-.12109-.0205-.24219-.04052-.36426-.05566-.13135-.01587-.26416-.02661-.39746-.03613-.13476-.00977-.26855-.01758-.40332-.02051C224.1167,48.00757,224.05908,48,224,48H32c-.05469,0-.10742.00708-.16211.0083-.14551.00293-.29.011-.43506.022-.12353.009-.24609.0188-.36767.03345-.13282.01611-.26416.03784-.396.0603-.12939.02246-.2583.04468-.38525.073-.12354.02759-.24512.061-.36719.09448-.12891.03516-.25781.07007-.38428.11158-.12256.04-.24267.08667-.36328.133-.11914.04566-.23877.09058-.355.14185-.12549.05493-.248.11694-.37109.17847-.10694.054-.21387.10644-.31836.165-.123.06885-.24317.14478-.36328.22071-.1001.06323-.19971.12573-.29639.19311-.11328.07886-.22315.16333-.33252.24878-.09961.07715-.19873.15479-.29443.23682-.09815.08349-.19288.17139-.28711.2605-.10205.09594-.20166.19336-.29834.29443-.03907.04077-.08155.07642-.12012.11841-.04541.04956-.083.103-.127.15332-.09375.10766-.18457.217-.273.32959-.07764.09912-.15235.19873-.22461.30029-.07764.10938-.15186.2207-.22364.334-.0708.11084-.13916.22216-.20361.33544-.06348.11084-.12256.22388-.18066.33814-.06055.11914-.11914.23853-.17334.35986-.05176.116-.09912.23389-.14551.35279-.04834.12353-.09473.24731-.13623.3728-.04053.12109-.07666.2439-.11133.36743-.03564.12866-.06982.25732-.09961.38721-.02734.12207-.05127.24536-.07324.36963-.02441.1372-.0459.27465-.063.41284q-.022.17834-.03564.35864-.01758.22156-.02246.44312C24.0083,55.87329,24,55.93555,24,56V192a16.01833,16.01833,0,0,0,16,16H216a16.01833,16.01833,0,0,0,16-16V56C232,55.93555,231.9917,55.87329,231.99023,55.80933ZM203.43311,64,128,133.14746,52.56689,64ZM216,192H40V74.18652l82.59375,75.71094a8.0018,8.0018,0,0,0,10.8125,0l82.59521-75.7124.00831,117.81445Z"/>
</svg>
