<svg xmlns="http://www.w3.org/2000/svg" viewBox="0 0 256 256"><path d="M216,40H40A16,16,0,0,0,24,56V216a7.9,7.9,0,0,0,3.8,6.8,8,8,0,0,0,7.8.4L64,208.9l28.4,14.3a8.3,8.3,0,0,0,7.2,0L128,208.9l28.4,14.3a8.5,8.5,0,0,0,7.2,0L192,208.9l28.4,14.3a8,8,0,0,0,7.8-.4A7.9,7.9,0,0,0,232,216V56A16,16,0,0,0,216,40Zm0,163.1-20.4-10.3a8.3,8.3,0,0,0-7.2,0L160,207.1l-28.4-14.3a8.5,8.5,0,0,0-7.2,0L96,207.1,67.6,192.8a8.3,8.3,0,0,0-7.2,0L40,203.1V56H216ZM68.4,167.2a8.2,8.2,0,0,0,10.8-3.6L84.9,152h38.2l5.7,11.6A8.1,8.1,0,0,0,136,168a9.4,9.4,0,0,0,3.6-.8,8.2,8.2,0,0,0,3.6-10.8l-32-64a8.1,8.1,0,0,0-14.4,0l-32,64A8.2,8.2,0,0,0,68.4,167.2ZM104,113.9,115.1,136H92.9ZM144,128a8,8,0,0,1,8-8h12V108a8,8,0,0,1,16,0v12h12a8,8,0,0,1,0,16H180v12a8,8,0,0,1-16,0V136H152A8,8,0,0,1,144,128Z"/></svg>