<svg xmlns="http://www.w3.org/2000/svg" viewBox="0 0 256 256"><path d="M53.9,34.6A8,8,0,0,0,42.1,45.4L61.3,66.5C25,88.8,9.4,123.2,8.7,124.8a8.2,8.2,0,0,0,0,6.5c.3.7,8.8,19.5,27.6,38.4C61.4,194.7,93.1,208,128,208a128.6,128.6,0,0,0,52.1-10.8l22,24.2A8,8,0,0,0,208,224a8.2,8.2,0,0,0,5.4-2.1,7.9,7.9,0,0,0,.5-11.3Zm47.3,75.9,41.7,45.8A31.6,31.6,0,0,1,128,160a32,32,0,0,1-26.8-49.5ZM128,192c-30.8,0-57.7-11.2-79.9-33.3A128.3,128.3,0,0,1,25,128c4.7-8.8,19.8-33.5,47.3-49.4l18,19.8a48,48,0,0,0,63.6,70l14.7,16.2A112.1,112.1,0,0,1,128,192Zm119.3-60.7c-.4.9-10.5,23.3-33.4,43.8a8.1,8.1,0,0,1-5.3,2,7.6,7.6,0,0,1-5.9-2.7,8,8,0,0,1,.6-11.3A131,131,0,0,0,231,128a130.3,130.3,0,0,0-23.1-30.8C185.7,75.2,158.8,64,128,64a112.9,112.9,0,0,0-19.4,1.6A8.1,8.1,0,0,1,99.4,59a8,8,0,0,1,6.6-9.2A132.4,132.4,0,0,1,128,48c34.9,0,66.6,13.3,91.7,38.3,18.8,18.9,27.3,37.7,27.6,38.5A8.2,8.2,0,0,1,247.3,131.3ZM134,96.6a8,8,0,0,1,3-15.8,48.3,48.3,0,0,1,38.8,42.7,8,8,0,0,1-7.2,8.7h-.8a7.9,7.9,0,0,1-7.9-7.2A32.2,32.2,0,0,0,134,96.6Z"/></svg>