<svg id="Flat" xmlns="http://www.w3.org/2000/svg" viewBox="0 0 256 256">
  <path d="M176,112a8.00039,8.00039,0,0,1-8,8H88a8,8,0,0,1,0-16h80A8.00039,8.00039,0,0,1,176,112Zm-8,24H88a8,8,0,0,0,0,16h80a8,8,0,0,0,0-16Zm88-32v24a32.036,32.036,0,0,1-32,32h-5.19678c-6.561,14.38086-19.25537,26.99854-37.63183,37.20752C160.14893,208.88623,137.647,214.168,131.251,215.50781a15.72388,15.72388,0,0,1-6.50293,0c-6.395-1.33984-28.897-6.62158-49.91944-18.30029C56.45215,186.99854,43.75781,174.38086,37.19678,160H32A32.036,32.036,0,0,1,0,128V104A32.036,32.036,0,0,1,32,72h1.03125a16.03819,16.03819,0,0,1,9.501-9.43311l80-29.0913a16.02485,16.02485,0,0,1,10.93554,0l80,29.0913A16.03948,16.03948,0,0,1,222.96875,72H224A32.036,32.036,0,0,1,256,104ZM32.55273,144A58.66962,58.66962,0,0,1,32,136V88a16.01833,16.01833,0,0,0-16,16v24a16.01833,16.01833,0,0,0,16,16ZM208,136V77.60352L128,48.5127,48,77.60352V136c0,45.75391,71.83936,62.13184,80.03125,63.84863C136.16064,198.13184,208,181.75391,208,136Zm32-32a16.01833,16.01833,0,0,0-16-16v48a58.66962,58.66962,0,0,1-.55273,8H224a16.01833,16.01833,0,0,0,16-16Z"/>
</svg>
