<svg xmlns="http://www.w3.org/2000/svg" viewBox="0 0 256 256"><path d="M176,112a8,8,0,0,1-8,8H88a8,8,0,0,1,0-16h80A8,8,0,0,1,176,112Zm-8,24H88a8,8,0,0,0,0,16h80a8,8,0,0,0,0-16Zm88-32v24a32.1,32.1,0,0,1-32,32h-5.2c-6.6,14.4-19.3,27-37.6,37.2-21.1,11.7-43.6,17-49.9,18.3l-3.3.3-3.3-.3c-6.3-1.3-28.8-6.6-49.9-18.3C56.5,187,43.8,174.4,37.2,160H32A32.1,32.1,0,0,1,0,128V104A32.1,32.1,0,0,1,32,72h1a16,16,0,0,1,9.5-9.4l80-29.1a16,16,0,0,1,11,0l80,29.1A16,16,0,0,1,223,72h1A32.1,32.1,0,0,1,256,104ZM32.6,144a52.9,52.9,0,0,1-.6-8V88a16,16,0,0,0-16,16v24a16,16,0,0,0,16,16ZM208,136V77.6L128,48.5,48,77.6V136c0,45.8,71.8,62.1,80,63.8C136.2,198.1,208,181.8,208,136Zm32-32a16,16,0,0,0-16-16v48a52.9,52.9,0,0,1-.6,8h.6a16,16,0,0,0,16-16Z"/></svg>