<svg id="Flat" xmlns="http://www.w3.org/2000/svg" viewBox="0 0 256 256">
  <path d="M116,176a8.00039,8.00039,0,0,1-8,8H80a8,8,0,0,1,0-16h28A8.00039,8.00039,0,0,1,116,176Zm60-8H148a8,8,0,0,0,0,16h28a8,8,0,0,0,0-16Zm72,47.9834a8.00039,8.00039,0,0,1-8,8H216.33344c-.11146.00439-.22089.0166-.33344.0166s-.222-.01221-.33344-.0166H40.33344C40.222,223.98779,40.11255,224,40,224s-.222-.01221-.33344-.0166H16a8,8,0,0,1,0-16H32V88a7.99978,7.99978,0,0,1,12.7998-6.3999L96,120V88a7.99978,7.99978,0,0,1,12.7998-6.3999l38.73981,29.05469,11.559-80.91749A16.08053,16.08053,0,0,1,174.93848,16h18.123a16.08054,16.08054,0,0,1,15.83985,13.73633l15.01855,105.13232c.00708.04981.00745.09864.01361.14844.01667.13574.02777.273.03754.41064.01044.14454.0191.28809.02179.43116.00085.04736.00714.09326.00714.14111v71.9834h16A8.00008,8.00008,0,0,1,248,215.9834Zm-85.86145-94.37988L170.667,128h36.10864L193.06152,32h-18.123ZM48,207.9834H208V144H168a7.9984,7.9984,0,0,1-4.7998-1.6001l-14.40253-10.80176-.03827-.0288L112,104v32a7.99978,7.99978,0,0,1-12.7998,6.3999L48,104Z"/>
</svg>
