<svg xmlns="http://www.w3.org/2000/svg" viewBox="0 0 256 256"><path d="M128,24A104,104,0,1,0,232,128,104.2,104.2,0,0,0,128,24Zm0,192a88,88,0,1,1,88-88A88.1,88.1,0,0,1,128,216Zm4.4-94.7-48-32a8.3,8.3,0,0,0-8.2-.4A8,8,0,0,0,72,96v64a8,8,0,0,0,4.2,7.1,8.5,8.5,0,0,0,3.8.9,8.4,8.4,0,0,0,4.4-1.3l48-32a8,8,0,0,0,0-13.4ZM88,145.1V110.9L113.6,128Zm108.4-23.8-48-32a8.3,8.3,0,0,0-8.2-.4A8,8,0,0,0,136,96v64a8,8,0,0,0,4.2,7.1,8.5,8.5,0,0,0,3.8.9,8.4,8.4,0,0,0,4.4-1.3l48-32a8,8,0,0,0,0-13.4ZM152,145.1V110.9L177.6,128Z"/></svg>