<svg id="Flat" xmlns="http://www.w3.org/2000/svg" viewBox="0 0 256 256">
  <path d="M216.00781,88a7.9715,7.9715,0,0,0-2.4331-5.739l-55.916-55.9159q-.27759-.27777-.582-.52734c-.04687-.0387-.09814-.07166-.146-.10925-.15771-.12378-.31689-.2461-.48339-.35791-.04395-.02906-.08985-.05323-.13428-.08142-.17578-.113-.354-.22327-.53906-.32251-.03174-.017-.065-.0304-.09717-.04688-.19922-.10352-.40186-.20178-.61035-.2887-.02246-.00927-.0459-.01574-.06836-.0249-.21826-.08838-.43994-.1698-.66748-.239-.02442-.00733-.04981-.01184-.07422-.019-.22412-.06568-.45069-.12513-.68213-.17139-.064-.01294-.12988-.01831-.19434-.02954-.19189-.03345-.38427-.06739-.58105-.08692Q152.40259,24.00055,152,24H55.99219a16.01833,16.01833,0,0,0-16,16V216a16.01833,16.01833,0,0,0,16,16H200a16.01833,16.01833,0,0,0,16-16V88.15948C216.001,88.1059,216.00781,88.05383,216.00781,88ZM160,51.31372,188.68652,80H160ZM200,216H55.99219V40H144V88a7.99977,7.99977,0,0,0,8,8h48.00049l.00976,119.99951Zm-32-80a7.99977,7.99977,0,0,1-8,8H96a8,8,0,0,1,0-16h64A7.99977,7.99977,0,0,1,168,136Zm0,32a7.99977,7.99977,0,0,1-8,8H96a8,8,0,0,1,0-16h64A7.99977,7.99977,0,0,1,168,168Z"/>
</svg>
