<svg id="Flat" xmlns="http://www.w3.org/2000/svg" viewBox="0 0 256 256">
  <path d="M80,224a8.00008,8.00008,0,0,1-8,8H55.99219a16.01833,16.01833,0,0,1-16-16V184a8,8,0,0,1,16,0v32H72A8.00008,8.00008,0,0,1,80,224ZM80,24H55.99219a16.01833,16.01833,0,0,0-16,16V64a8,8,0,0,0,16,0V40H80a8,8,0,0,0,0-16ZM216,88.15942V136a8,8,0,0,1-16,0V96H152a8.00008,8.00008,0,0,1-8-8V40H120a8,8,0,0,1,0-16h32a7.98793,7.98793,0,0,1,.79883.04034c.19238.01905.37988.05231.56787.08466.06885.012.13965.018.2085.03186.228.04553.45068.10431.67138.16882.02783.00818.05713.01325.08447.02173.22266.06757.439.14759.65235.23352.02734.01117.05615.01929.084.0307.2002.08319.39356.178.585.27655.041.02094.0835.038.124.05957.17138.09217.33593.19513.5.2992.05713.03619.11718.06763.17334.10534.14746.0987.28662.20765.42627.31568.06738.0517.13769.09808.20361.152.15137.12463.29346.25921.43555.39447.04638.04406.09619.08307.1416.12835L213.582,82.26782A7.97045,7.97045,0,0,1,216.00781,88C216.00781,88.05383,216.001,88.106,216,88.15942ZM160,80h28.68652L160,51.31372Zm48,88a8.00008,8.00008,0,0,0-8,8v40h-8a8,8,0,0,0,0,16h8a16.01833,16.01833,0,0,0,16-16V176A8.00008,8.00008,0,0,0,208,168ZM48,152a8.00008,8.00008,0,0,0,8-8V104a8,8,0,0,0-16,0v40A8.00008,8.00008,0,0,0,48,152Zm104,64H112a8,8,0,0,0,0,16h40a8,8,0,0,0,0-16Z"/>
</svg>
