<svg id="Flat" xmlns="http://www.w3.org/2000/svg" viewBox="0 0 256 256">
  <path d="M216.0083,88a7.97113,7.97113,0,0,0-2.43091-5.73657L157.65674,26.34277c-.03076-.03076-.06494-.05688-.09619-.08691-.15552-.15088-.31421-.29858-.48169-.43652-.06226-.051-.12915-.09473-.19239-.1438-.14331-.11084-.28613-.22229-.437-.32349-.05517-.03686-.114-.06775-.17016-.10327-.1648-.10474-.33033-.20825-.50293-.301-.04029-.02148-.08277-.03857-.12329-.05932-.19165-.09864-.3855-.19361-.58594-.27686-.02661-.011-.05444-.01892-.08106-.02966-.21435-.08643-.43188-.16663-.655-.2345-.0271-.0083-.05493-.01318-.082-.02124-.22143-.0647-.44531-.12353-.67407-.16931-.06836-.01379-.13818-.01965-.20679-.03162-.18847-.03247-.37671-.06579-.56933-.085Q152.40259,24.00055,152,24H55.99219a16.01833,16.01833,0,0,0-16,16V216a16.01833,16.01833,0,0,0,16,16H200a16.01833,16.01833,0,0,0,16-16V88.16431C216.001,88.10913,216.0083,88.05542,216.0083,88ZM160,51.314,188.686,80H160ZM200,216H55.99219V40H144V88a8.00008,8.00008,0,0,0,8,8h48.001l.00927,120Zm-45.52783-48.83606a36.00241,36.00241,0,1,0-11.32105,11.307l10.98511,10.9851a8.00018,8.00018,0,1,0,11.31348-11.31445Zm-44.62012-5.02234a20,20,0,1,1,28.28418,0A19.86692,19.86692,0,0,1,109.85205,162.1416Z"/>
</svg>
