<svg id="Flat" xmlns="http://www.w3.org/2000/svg" viewBox="0 0 256 256">
  <path d="M216,88a8,8,0,0,0-2.44-5.74L157.66,26.35a7.13,7.13,0,0,0-.58-.53l-.15-.11q-.24-.2-.48-.36l-.14-.08c-.17-.11-.35-.22-.54-.32l-.09-.05-.61-.29-.07,0c-.22-.09-.44-.17-.67-.24l-.07,0a5.35,5.35,0,0,0-.69-.17,1.25,1.25,0,0,0-.19,0,5.4,5.4,0,0,0-.58-.09,7.14,7.14,0,0,0-.8,0H56A16,16,0,0,0,40,40V216a16,16,0,0,0,16,16H200a16,16,0,0,0,16-16V88.16S216,88.05,216,88ZM160,51.31,188.69,80H160ZM200,216H56V40h88V88a8,8,0,0,0,8,8h48V216Zm-45.53-48.84a36,36,0,1,0-11.31,11.32l11,11a8,8,0,1,0,11.31-11.32Zm-44.62-5h0A20,20,0,1,1,124,168,19.86,19.86,0,0,1,109.85,162.14Z"/>
</svg>
