<svg id="Flat" xmlns="http://www.w3.org/2000/svg" viewBox="0 0 256 256">
  <path d="M216.00781,88a7.9715,7.9715,0,0,0-2.4331-5.739l-55.916-55.9159q-.27759-.27777-.582-.52734c-.04687-.03876-.09814-.0716-.146-.10919-.15771-.12378-.31689-.24616-.48339-.358-.04395-.029-.08985-.0531-.13428-.08135-.17578-.113-.354-.22327-.53906-.32251-.03174-.017-.065-.03034-.09717-.04688-.19922-.10352-.40186-.20184-.61035-.28863-.02246-.00928-.0459-.01581-.06836-.02491-.21826-.08838-.43994-.16986-.66748-.239-.02442-.00745-.04981-.0119-.07422-.0191-.22412-.06574-.45069-.12513-.68213-.17139-.064-.01288-.12988-.01831-.19434-.0296-.19189-.03345-.38427-.06726-.58105-.0868A7.98793,7.98793,0,0,0,152,24H55.99219a16.01833,16.01833,0,0,0-16,16V216a16.01833,16.01833,0,0,0,16,16H200a16.01833,16.01833,0,0,0,16-16V88.15948C216.001,88.1059,216.00781,88.05383,216.00781,88ZM160,51.31372,188.68652,80H160ZM200,216H55.99219V40H144V88a7.99977,7.99977,0,0,0,8,8h48.00049l.00928,120Zm-38.34326-65.65674a7.99974,7.99974,0,0,1,0,11.314l-28,28c-.0293.02942-.06153.05389-.09131.08276-.15918.15411-.32178.30469-.49316.44531-.09815.08087-.20215.15131-.30323.22681-.10791.08069-.21386.16455-.32617.23975-.11621.07769-.23633.14508-.35547.21606-.105.06268-.208.12866-.31592.18658-.12011.06421-.24365.11866-.36621.17633-.11425.054-.22656.11109-.34375.15973-.11816.04877-.23877.0882-.3584.13111-.12646.04547-.25146.09405-.38085.1333-.11915.036-.24024.06232-.36084.09271-.13233.03351-.26368.07056-.39893.09735-.13916.02759-.2793.04395-.41992.06409-.11768.01691-.23389.03931-.353.051C128.52686,191.986,128.26367,192,128,192s-.52686-.014-.78955-.03986c-.11914-.01171-.23535-.03411-.353-.051-.14062-.02014-.28076-.0365-.41992-.06409-.13525-.02679-.2666-.06384-.39893-.09735-.1206-.03039-.24169-.0567-.36084-.09271-.12939-.03925-.25439-.08783-.38085-.1333-.11963-.04291-.24024-.08234-.3584-.13111-.11719-.04864-.2295-.10577-.34375-.15973-.12256-.05767-.2461-.11212-.36621-.17633-.10791-.05792-.21094-.1239-.31592-.18658-.11914-.071-.23926-.13837-.35547-.21606-.11231-.0752-.21826-.15906-.32617-.23975-.10108-.0755-.20508-.14594-.30323-.22681-.17138-.14062-.334-.2912-.49316-.44531-.02978-.02887-.062-.05334-.09131-.08276l-28-28a8,8,0,0,1,11.31348-11.314L120,164.68646V120a8,8,0,0,1,16,0v44.68646l14.34326-14.3432A8,8,0,0,1,161.65674,150.34326Z"/>
</svg>
