<svg xmlns="http://www.w3.org/2000/svg" viewBox="0 0 256 256"><path d="M52,192c0,8.8,6.3,16,14,16a12.9,12.9,0,0,0,8.6-3.4,7.9,7.9,0,0,1,11.3.6,8,8,0,0,1-.5,11.3A29.3,29.3,0,0,1,66,224c-16.5,0-30-14.4-30-32s13.5-32,30-32a29.3,29.3,0,0,1,19.4,7.5,8,8,0,0,1,.5,11.3,7.9,7.9,0,0,1-11.3.6A12.9,12.9,0,0,0,66,176C58.3,176,52,183.2,52,192ZM216,88v40a8,8,0,0,1-16,0V96H152a8,8,0,0,1-8-8V40H56v88a8,8,0,0,1-16,0V40A16,16,0,0,1,56,24h96a8.1,8.1,0,0,1,5.7,2.3l55.9,56A7.8,7.8,0,0,1,216,88Zm-27.3-8L160,51.3V80ZM152,204c0,13.1-9.4,21-25,21a33.4,33.4,0,0,1-20.1-6.8h0A7.6,7.6,0,0,1,104,212a8,8,0,0,1,8-8,8.3,8.3,0,0,1,5.1,1.8H117a18.4,18.4,0,0,0,10,3.2c9,0,9-3,9-5s0-.9-1.2-1.6-5.8-2.2-9.2-3.1C117,197,104,193.5,104,180s9.5-21,23-21a33.4,33.4,0,0,1,20.1,6.8h0A7.6,7.6,0,0,1,150,172a8,8,0,0,1-8,8,8.3,8.3,0,0,1-5.1-1.8h.1a18.4,18.4,0,0,0-10-3.2c-4.6,0-7,1.7-7,5v.2c1.1,1.3,6.6,2.8,9.7,3.6C138,186,152,189.7,152,204Zm-15.1-25.9h0Zm-19.8,27.8h0ZM216,204c0,13.1-9.4,21-25,21a33.4,33.4,0,0,1-20.1-6.8h0A7.6,7.6,0,0,1,168,212a8,8,0,0,1,8-8,8.3,8.3,0,0,1,5.1,1.8H181a18.4,18.4,0,0,0,10,3.2c9,0,9-3,9-5s0-.9-1.2-1.6-5.8-2.2-9.2-3.1C181,197,168,193.5,168,180s9.5-21,23-21a33.4,33.4,0,0,1,20.1,6.8h0A7.6,7.6,0,0,1,214,172a8,8,0,0,1-8,8,8.3,8.3,0,0,1-5.1-1.8h.1a18.4,18.4,0,0,0-10-3.2c-4.7,0-7,1.7-7,5v.2c1.1,1.3,6.6,2.8,9.7,3.6C202,186,216,189.7,216,204Zm-15.1-25.9h0Zm-19.8,27.8h0Z"/></svg>