<svg id="Flat" xmlns="http://www.w3.org/2000/svg" viewBox="0 0 256 256">
  <path d="M216.00781,88a7.9715,7.9715,0,0,0-2.4331-5.739l-55.916-55.9159q-.27759-.27777-.582-.52734c-.04687-.03876-.09814-.0716-.146-.10919-.15771-.12378-.31689-.24616-.48339-.358-.04395-.029-.08985-.0531-.13428-.08135-.17578-.113-.354-.22327-.53906-.32251-.03174-.017-.065-.03034-.09717-.04688-.19922-.10352-.40186-.20184-.61035-.28863-.02246-.00928-.0459-.01581-.06836-.02491-.21826-.08838-.43994-.16986-.66748-.239-.02442-.00745-.04981-.0119-.07422-.0191-.22412-.06574-.45069-.12513-.68213-.17139-.064-.01288-.12988-.01831-.19434-.0296-.19189-.03345-.38427-.06726-.58105-.0868A7.98793,7.98793,0,0,0,152,24H55.99219a16.01833,16.01833,0,0,0-16,16V216a16.01833,16.01833,0,0,0,16,16H200a16.01833,16.01833,0,0,0,16-16V88.15948C216.001,88.1059,216.00781,88.05383,216.00781,88ZM160,51.31372,188.68652,80H160ZM200,216H55.99219V40H144V88a7.99977,7.99977,0,0,0,8,8h48.00049l.00976,119.99951Zm-45.52832-48.836a35.99394,35.99394,0,1,0-11.31348,11.31366l10.978,10.97791a8,8,0,1,0,11.314-11.31348Zm-44.61963-5.02191h0A19.99978,19.99978,0,1,1,123.99414,168,19.87008,19.87008,0,0,1,109.85205,162.14209Z"/>
</svg>
