<svg xmlns="http://www.w3.org/2000/svg" viewBox="0 0 256 256"><path d="M128,176a8,8,0,0,1-8,8h-8v32a8,8,0,0,1-16,0V184H88a8,8,0,0,1,0-16h32A8,8,0,0,1,128,176Zm-64-8a8,8,0,0,0-8,8v12H44V176a8,8,0,0,0-16,0v40a8,8,0,0,0,16,0V204H56v12a8,8,0,0,0,16,0V176A8,8,0,0,0,64,168Zm172,40H220V176a8,8,0,0,0-16,0v40a8,8,0,0,0,8,8h24a8,8,0,0,0,0-16Zm-49.6-39.6a7.8,7.8,0,0,0-8.9,3L164,190.2l-13.5-18.8A8,8,0,0,0,136,176v40a8,8,0,0,0,16,0V201l5.5,7.6a7.9,7.9,0,0,0,13,0L176,201v15a8,8,0,0,0,16,0V176A7.8,7.8,0,0,0,186.4,168.4ZM208,144a8,8,0,0,1-8-8V96H152a8,8,0,0,1-8-8V40H56v96a8,8,0,0,1-16,0V40A16,16,0,0,1,56,24h96a8.1,8.1,0,0,1,5.7,2.3l55.9,56A7.8,7.8,0,0,1,216,88v48A8,8,0,0,1,208,144ZM160,80h28.7L160,51.3Z"/></svg>