<svg id="Flat" xmlns="http://www.w3.org/2000/svg" viewBox="0 0 256 256">
  <path d="M216.00781,96a7.97079,7.97079,0,0,0-2.42578-5.73224l-55.92529-55.925c-.04541-.04528-.09522-.08429-.1416-.12835-.14209-.13526-.28418-.26984-.43555-.39447-.06592-.0539-.13623-.10028-.20361-.152-.13965-.108-.27881-.217-.42627-.31568-.05616-.03771-.11621-.06915-.17334-.10534-.16407-.10407-.32862-.207-.5-.2992-.04053-.0216-.083-.03863-.124-.05957-.1914-.09857-.38476-.19336-.585-.27655-.02783-.01141-.05664-.01953-.084-.0307-.21338-.08593-.42969-.166-.65235-.23352-.02734-.00848-.05664-.01355-.08447-.02173-.2207-.06451-.44336-.12329-.67138-.16882-.06885-.01385-.13965-.01984-.2085-.03186-.188-.03235-.37549-.06561-.56787-.08466A7.98793,7.98793,0,0,0,152,32H55.99219a16.01833,16.01833,0,0,0-16,16v88a8,8,0,0,0,16,0V48H144V96a8.00008,8.00008,0,0,0,8,8h48v32a8,8,0,0,0,16,0V96.15948C216.001,96.1059,216.00781,96.05383,216.00781,96ZM160,59.31366,188.68652,88H160ZM64,160H48a8.00008,8.00008,0,0,0-8,8v48a8,8,0,0,0,16,0v-8h8a24,24,0,0,0,0-48Zm0,32H56V176h8a8,8,0,0,1,0,16Zm60-32H112a8.00008,8.00008,0,0,0-8,8v48a8.00008,8.00008,0,0,0,8,8h12a32,32,0,0,0,0-64Zm0,48h-4V176h4a16,16,0,0,1,0,32Zm92-40a8.00008,8.00008,0,0,1-8,8H188v12h16a8,8,0,0,1,0,16H188v12a8,8,0,0,1-16,0V168a8.00008,8.00008,0,0,1,8-8h28A8.00008,8.00008,0,0,1,216,168Z"/>
</svg>
