<svg id="Flat" xmlns="http://www.w3.org/2000/svg" viewBox="0 0 256 256">
  <path d="M213.65674,66.34326l-40-40A7.99877,7.99877,0,0,0,168,24H88A16.01833,16.01833,0,0,0,72,40V56H56A16.01833,16.01833,0,0,0,40,72V216a16.01833,16.01833,0,0,0,16,16H168a16.01833,16.01833,0,0,0,16-16V200h16a16.01833,16.01833,0,0,0,16-16V72A7.99877,7.99877,0,0,0,213.65674,66.34326ZM168,216H56V72h76.68652L168,107.314l.00781,84.529c-.001.05279-.00781.104-.00781.157,0,.05322.00684.10468.00781.15765l.00244,23.84186Zm32-32H184V104a7.99877,7.99877,0,0,0-2.34326-5.65674l-40-40A7.99877,7.99877,0,0,0,136,56H88V40h76.68652L200,75.314Zm-56-32a7.99977,7.99977,0,0,1-8,8H88a8,8,0,0,1,0-16h48A7.99977,7.99977,0,0,1,144,152Zm0,32a7.99977,7.99977,0,0,1-8,8H88a8,8,0,0,1,0-16h48A7.99977,7.99977,0,0,1,144,184Z"/>
</svg>
