<svg xmlns="http://www.w3.org/2000/svg" viewBox="0 0 256 256"><path d="M216,88a7.8,7.8,0,0,0-2.4-5.7l-55.9-56A8.1,8.1,0,0,0,152,24H56A16,16,0,0,0,40,40v88a8,8,0,0,0,16,0V40h88V88a8,8,0,0,0,8,8h48V216H168a8,8,0,0,0,0,16h32a16,16,0,0,0,16-16V88ZM160,51.3,188.7,80H160ZM99.4,144.8a7.8,7.8,0,0,0-8.5,1.1L69.1,164H48a8,8,0,0,0-8,8v32a8,8,0,0,0,8,8H69.1l21.8,18.1A7.5,7.5,0,0,0,96,232a6.8,6.8,0,0,0,3.4-.8A7.9,7.9,0,0,0,104,224V152A7.9,7.9,0,0,0,99.4,144.8ZM88,206.9l-10.9-9A7.8,7.8,0,0,0,72,196H56V180H72a7.8,7.8,0,0,0,5.1-1.9l10.9-9ZM148,188a39.8,39.8,0,0,1-15,31.2,7.9,7.9,0,0,1-5,1.8,7.8,7.8,0,0,1-6.2-3,8.1,8.1,0,0,1,1.2-11.3,23.9,23.9,0,0,0,0-37.4,8,8,0,0,1,10-12.5A39.8,39.8,0,0,1,148,188Z"/></svg>