<svg id="Flat" xmlns="http://www.w3.org/2000/svg" viewBox="0 0 256 256">
  <path d="M216.00781,88a7.9715,7.9715,0,0,0-2.4331-5.739l-55.916-55.9159q-.27759-.27777-.582-.52734c-.04687-.03876-.09814-.0716-.146-.10919-.15771-.12378-.31689-.24616-.48339-.358-.04395-.029-.08985-.0531-.13428-.08135-.17578-.113-.354-.22327-.53906-.32251-.03174-.017-.065-.03034-.09717-.04688-.19922-.10352-.40186-.20184-.61035-.28863-.02246-.00928-.0459-.01581-.06836-.02491-.21826-.08838-.43994-.16986-.66748-.239-.02442-.00745-.04981-.0119-.07422-.0191-.22412-.06574-.45069-.12513-.68213-.17139-.064-.01288-.12988-.01831-.19434-.0296-.19189-.03345-.38427-.06726-.58105-.0868A7.98793,7.98793,0,0,0,152,24H55.99219a16.01833,16.01833,0,0,0-16,16V216a16.01833,16.01833,0,0,0,16,16H200a16.01833,16.01833,0,0,0,16-16V88.15948C216.001,88.1059,216.00781,88.05383,216.00781,88ZM160,51.31372,188.68652,80H160ZM200,216H55.99219V40H144V88a7.99977,7.99977,0,0,0,8,8h48.00049l.00928,120Zm-38.34326-73.65674a7.99984,7.99984,0,1,1-11.31348,11.31348L136,139.31354V184a8,8,0,0,1-16,0V139.31354l-14.34326,14.3432a7.99984,7.99984,0,0,1-11.31348-11.31348l27.998-27.99817c.187-.18738.38428-.36474.58935-.5329.08643-.0708.17774-.13214.26612-.19879.12011-.09051.23779-.18341.36328-.26715.1084-.07257.22119-.13525.33252-.2019.1123-.06763.22265-.13825.33887-.20038.11425-.061.23144-.11249.34765-.16754.12012-.057.23877-.11688.36231-.168.11181-.04639.22656-.08368.34033-.1247.13232-.04791.26318-.09838.39892-.1394.1128-.03412.22754-.0589.3418-.08789.13818-.03528.27539-.07385.417-.10181.12989-.02575.26123-.04065.39209-.05987.12744-.01862.25244-.04242.38184-.05506.23193-.02282.46484-.03271.69824-.03527.02979-.00031.05859-.00446.08838-.00446s.05859.00415.08838.00446c.2334.00256.46631.01245.69824.03527.1294.01264.2544.03644.38184.05506.13086.01922.2622.03412.39209.05987.1416.028.27881.06653.417.10181.11426.029.229.05377.3418.08789.13574.041.2666.09149.39892.1394.11377.041.22852.07831.34033.1247.12354.05109.24219.111.36231.168.11621.055.2334.10657.34765.16754.11622.06213.22657.13275.33887.20038.11133.06665.22412.12933.33252.2019.12549.08374.24317.17664.36328.26715.08838.06665.17969.128.26612.19879.20507.16816.40234.34552.58935.5329Z"/>
</svg>
