<svg id="Flat" xmlns="http://www.w3.org/2000/svg" viewBox="0 0 256 256">
  <path d="M184.00586,128.0094a246.6394,246.6394,0,0,1-18.53418,94.23926,8.00032,8.00032,0,1,1-14.79883-6.084,230.70455,230.70455,0,0,0,17.333-88.15527,8,8,0,0,1,16,0Zm-56-40a40.06444,40.06444,0,0,1,29.81445,13.333,8.00032,8.00032,0,1,0,11.92188-10.67188A56.00093,56.00093,0,0,0,72.00586,128.0094,136.088,136.088,0,0,1,55.0293,193.861a7.99992,7.99992,0,1,0,13.99218,7.75977A152.12924,152.12924,0,0,0,88.00586,128.0094,40.04583,40.04583,0,0,1,128.00586,88.0094Zm0-64a103.76356,103.76356,0,0,0-34.667,5.91992,8.00025,8.00025,0,1,0,5.332,15.08594,88.06652,88.06652,0,0,1,117.335,82.99414,281.58358,281.58358,0,0,1-6.93848,62.22851,8.00014,8.00014,0,1,0,15.60352,3.541,297.64323,297.64323,0,0,0,7.335-65.76953A104.11791,104.11791,0,0,0,128.00586,24.0094Zm-58.665,38.40527A7.99966,7.99966,0,1,0,58.6709,50.4928a104.15763,104.15763,0,0,0-34.665,77.5166,87.28641,87.28641,0,0,1-7.97559,36.66308,7.99971,7.99971,0,1,0,14.541,6.67383,103.15936,103.15936,0,0,0,9.43457-43.33691A88.1429,88.1429,0,0,1,69.34082,62.41467Zm44.58105,138.32422a8.00157,8.00157,0,0,0-10.60742,3.93359c-1.92675,4.19727-4.04394,8.38086-6.291,12.43555a7.99945,7.99945,0,1,0,13.99218,7.75781c2.44336-4.40625,4.74512-8.95507,6.83985-13.51953A7.999,7.999,0,0,0,113.92187,200.73889Zm14.07227-80.73047a8.00039,8.00039,0,0,0-8,8,184.6862,184.6862,0,0,1-5.79687,46.00586,8.00008,8.00008,0,1,0,15.49511,3.98828,200.70139,200.70139,0,0,0,6.30176-49.99414A8.00039,8.00039,0,0,0,127.99414,120.00842Z"/>
</svg>
