<svg xmlns="http://www.w3.org/2000/svg" viewBox="0 0 256 256"><path d="M168,96H88a40,40,0,0,0-40,40v8a40,40,0,0,0,40,40h80a40,40,0,0,0,40-40v-8A40,40,0,0,0,168,96Zm24,48a24.1,24.1,0,0,1-24,24H88a24.1,24.1,0,0,1-24-24v-8a24.1,24.1,0,0,1,24-24h80a24.1,24.1,0,0,1,24,24Zm-16-4a12,12,0,1,1-12-12A12,12,0,0,1,176,140Zm-72,0a12,12,0,1,1-12-12A12,12,0,0,1,104,140ZM208,32a32.1,32.1,0,0,0-31,24H79a32,32,0,0,0-63,8v80a72.1,72.1,0,0,0,72,72h80a72.1,72.1,0,0,0,72-72V64A32.1,32.1,0,0,0,208,32Zm16,112a56,56,0,0,1-56,56H88a56,56,0,0,1-56-56V64a16,16,0,0,1,32,0,8,8,0,0,0,8,8H184a8,8,0,0,0,8-8,16,16,0,0,1,32,0Z"/></svg>