<svg id="Flat" xmlns="http://www.w3.org/2000/svg" viewBox="0 0 256 256">
  <path d="M187.29443,149.2207a59.69692,59.69692,0,0,1-50.07275,50.07422,8.11543,8.11543,0,0,1-1.231.09473,8.00055,8.00055,0,0,1-1.21142-15.90723,44.31739,44.31739,0,0,0,36.70263-36.70312,7.99993,7.99993,0,1,1,15.8125,2.4414ZM220,140a92,92,0,0,1-184,0c0-23.085,9.88135-49.68652,29.36963-79.06445a7.99925,7.99925,0,0,1,11.104-2.23438l32.27588,21.51758L139.6001,15.43262a7.99863,7.99863,0,0,1,12.87451-2.22168c14.74365,14.71777,31.57861,32.57226,44.65332,53.39355C212.51855,91.11426,220,115.12207,220,140Zm-16,0c0-42.55176-25.44775-76.831-54.8667-107.37109L119.22266,95.43945a7.99948,7.99948,0,0,1-11.66016,3.2168L74.37061,76.5293C59.521,100.48242,52,121.80762,52,140a76,76,0,0,0,152,0Z"/>
</svg>
