<svg xmlns="http://www.w3.org/2000/svg" viewBox="0 0 256 256"><path d="M173.8,51.5a221.5,221.5,0,0,0-41.7-34.4,8,8,0,0,0-8.2,0A221.5,221.5,0,0,0,82.2,51.5C54.6,80.5,40,112.5,40,144a88,88,0,0,0,176,0C216,112.5,201.4,80.5,173.8,51.5ZM96,184c0-27.7,22.5-47.3,32-54.3,9.5,7,32,26.6,32,54.3a32,32,0,0,1-64,0Zm77.3,15.9A49.1,49.1,0,0,0,176,184c0-44-42.1-69.8-43.9-70.9a8,8,0,0,0-8.2,0C122.1,114.2,80,140,80,184a49.1,49.1,0,0,0,2.7,15.9A71.7,71.7,0,0,1,56,144c0-34.4,20.4-63.1,37.5-81.2A223.2,223.2,0,0,1,128,33.5a223.2,223.2,0,0,1,34.5,29.3C193.5,95.5,200,125,200,144A71.7,71.7,0,0,1,173.3,199.9Z"/></svg>