<svg id="Flat" xmlns="http://www.w3.org/2000/svg" viewBox="0 0 256 256">
  <path d="M223.59033,199.76855,160,93.78418V40h8a8,8,0,0,0,0-16H88a8,8,0,0,0,0,16h8V93.78418L55.82568,160.74146q-.06445.10381-.12548.20922L32.40967,199.76807A15.99968,15.99968,0,0,0,46.12939,224H209.87061a15.99944,15.99944,0,0,0,13.71972-24.23145Zm-113.8706-97.752A16.00512,16.00512,0,0,0,112,93.78418V40h32V93.78418a16.00208,16.00208,0,0,0,2.28027,8.23193l38.86328,64.77222c-13.10693,7.11182-31.44531,5.11621-53.56591-5.9436-14.25293-7.127-32.66651-13.52149-50.31006-11.40772ZM46.12939,208.00049l22.47022-37.45007c13.19385-8.65882,32.44727-7.08216,55.82275,4.60485,17.25977,8.62989,31.49805,11.8628,43.14551,11.86231a51.521,51.521,0,0,0,25.82178-6.48523L209.87061,208Z"/>
</svg>
