<svg id="Flat" xmlns="http://www.w3.org/2000/svg" viewBox="0 0 256 256">
  <path d="M219.31445,79.99963,176.001,36.68811a15.88944,15.88944,0,0,0-11.31446-4.68848H48a16.01833,16.01833,0,0,0-16,16v160a16.01833,16.01833,0,0,0,16,16h31.826c.05841.00122.11523.00879.174.00879s.11554-.00757.174-.00879h95.6521c.05841.00122.11523.00879.17395.00879s.11554-.00757.17395-.00879H208a16.01833,16.01833,0,0,0,16-16V91.31409A15.898,15.898,0,0,0,219.31445,79.99963ZM168,207.99963H88V152.00842h80ZM208,91.31409V207.99963H184V152.00842a16.01833,16.01833,0,0,0-16-16H88a16.01833,16.01833,0,0,0-16,16v55.99121H48v-160l116.68555.001L208,91.31409v-.001l8,.001ZM160,72.0094a8.00039,8.00039,0,0,1-8,8H96a8,8,0,0,1,0-16h56A8.00039,8.00039,0,0,1,160,72.0094Z"/>
</svg>
