<svg id="Flat" xmlns="http://www.w3.org/2000/svg" viewBox="0 0 256 256">
  <path d="M250.47559,121.28906a15.82032,15.82032,0,0,0-9.84375-7.47558,80.01936,80.01936,0,0,0-27.957-1.853,85.74322,85.74322,0,0,0-2.53125-40.82471,15.96765,15.96765,0,0,0-18.54443-10.706,82.54562,82.54562,0,0,0-26.15674,10.74463,94.05373,94.05373,0,0,0-27.84375-34.36963,15.9407,15.9407,0,0,0-19.19726,0A94.05373,94.05373,0,0,0,90.55762,71.17432,82.5605,82.5605,0,0,0,64.40234,60.42969a15.96159,15.96159,0,0,0-18.54589,10.707A85.73054,85.73054,0,0,0,43.3252,111.96a80.01629,80.01629,0,0,0-27.957,1.85352,15.9578,15.9578,0,0,0-11.396,19.73828c3.53857,12.65332,14.36816,36.70508,47.13818,55.626C83.67676,207.979,112.457,208,127.94678,208c.01513,0,.02978.00195.04541.00195L128,208.00146l.00781.00049c.01563,0,.03028-.00195.04541-.00195,15.49024,0,44.27-.021,76.83643-18.82324,32.77051-18.91992,43.59961-42.97168,47.13818-55.625A15.82036,15.82036,0,0,0,250.47559,121.28906ZM194.92627,76.07812c2.73926,8.43458,5.41894,23.52344-.30225,42.96729a8.027,8.027,0,0,0-.29687,1.01025,104.58684,104.58684,0,0,1-9.54248,21.59082,119.22638,119.22638,0,0,1-17.38526,23.00489C172.46582,152.71582,176,137.96094,176,120a117.25342,117.25342,0,0,0-4.6875-33.57227A67.3981,67.3981,0,0,1,194.92627,76.07812ZM128.02832,49.627C137.64111,56.80176,160,78.02344,160,120c0,42.542-22.69189,63.5918-32,70.43652C118.69189,183.5918,96,162.542,96,120,96,78.02344,118.35889,56.80176,128.02832,49.627ZM61.07275,76.08008A67.35822,67.35822,0,0,1,84.6875,86.42773,117.256,117.256,0,0,0,80,120c0,17.96094,3.53418,32.71582,8.60059,44.65137a119.22638,119.22638,0,0,1-17.38526-23.00489,104.56282,104.56282,0,0,1-9.5498-21.61474,7.88679,7.88679,0,0,0-.27393-.93213C55.64941,99.62939,58.33154,84.52148,61.07275,76.08008ZM19.3418,129.31152a66.45457,66.45457,0,0,1,28.34814-.57763,123.02667,123.02667,0,0,0,9.669,20.91259,138.34067,138.34067,0,0,0,33.27295,38.52344,121.79948,121.79948,0,0,1-31.52149-12.84863C31.25732,159.23926,22.26318,139.54883,19.3418,129.31152Zm177.54785,46.00879a121.79928,121.79928,0,0,1-31.521,12.84912,138.33687,138.33687,0,0,0,33.27246-38.523,122.98431,122.98431,0,0,0,9.66846-20.91259,67.45561,67.45561,0,0,1,28.30957.50927C233.73682,139.54883,224.74268,159.23926,196.88965,175.32031Z"/>
</svg>
