<svg id="Flat" xmlns="http://www.w3.org/2000/svg" viewBox="0 0 256 256">
  <path d="M208.354,132.82227A58.02583,58.02583,0,0,0,196.94043,128a58.02737,58.02737,0,0,0,11.41357-4.82324,35.99987,35.99987,0,0,0-36-62.35352,57.98439,57.98439,0,0,0-9.88379,7.47266A58.01937,58.01937,0,0,0,164,56a36,36,0,0,0-72,0,58.01145,58.01145,0,0,0,1.52979,12.29541A58.01465,58.01465,0,0,0,83.646,60.82227a36.00071,36.00071,0,0,0-36,62.35546A58.02583,58.02583,0,0,0,59.05957,128,58.0401,58.0401,0,0,0,47.646,132.82324a35.99987,35.99987,0,0,0,36,62.35352,57.98439,57.98439,0,0,0,9.88379-7.47266A58.01937,58.01937,0,0,0,92,200a36,36,0,0,0,72,0,58.01145,58.01145,0,0,0-1.52979-12.29541,58.03383,58.03383,0,0,0,9.88379,7.47314,36.00071,36.00071,0,0,0,36-62.35546ZM108,128a20,20,0,1,1,20,20A20.0226,20.0226,0,0,1,108,128Zm72.35352-53.32031A19.99995,19.99995,0,1,1,200.354,109.32031c-6.78857,3.91944-20.04345,7.01416-37.72656,8.85889a36.0029,36.0029,0,0,0-8.81982-15.2417C164.251,88.5376,173.5625,78.59961,180.35352,74.67969ZM128,36a20.0226,20.0226,0,0,1,20,20c0,7.83838-3.94629,20.86182-11.18848,37.09473a36.00948,36.00948,0,0,0-17.623,0C111.94629,76.86182,108,63.83838,108,56A20.0226,20.0226,0,0,1,128,36ZM48.32568,82A20.02277,20.02277,0,0,1,75.646,74.67871c6.7915,3.9209,16.103,13.85889,26.54638,28.25879a36.00463,36.00463,0,0,0-8.81982,15.24219c-17.68311-1.84522-30.938-4.93946-37.72608-8.8584A20.02387,20.02387,0,0,1,48.32568,82Zm27.3208,99.32031A20.00037,20.00037,0,0,1,55.646,146.67871c6.78857-3.91894,20.04345-7.01318,37.72656-8.85791a36.0029,36.0029,0,0,0,8.81982,15.2417C91.749,167.4624,82.4375,177.40039,75.64648,181.32031ZM128,220a20.0226,20.0226,0,0,1-20-20c0-7.83838,3.94629-20.86182,11.18848-37.09473a36.00948,36.00948,0,0,0,17.623,0C144.05371,179.13818,148,192.16162,148,200A20.0226,20.0226,0,0,1,128,220Zm79.67432-46a20.0202,20.0202,0,0,1-27.32032,7.32129c-6.7915-3.9209-16.103-13.85889-26.54638-28.25879a36.00463,36.00463,0,0,0,8.81982-15.24219c17.68311,1.84522,30.938,4.93946,37.72608,8.8584A20.02387,20.02387,0,0,1,207.67432,174Z"/>
</svg>
