<svg xmlns="http://www.w3.org/2000/svg" viewBox="0 0 256 256"><path d="M208.4,132.8a56.9,56.9,0,0,0-11.5-4.8,56.9,56.9,0,0,0,11.5-4.8,36,36,0,0,0-36-62.4,58.7,58.7,0,0,0-9.9,7.5A58.6,58.6,0,0,0,164,56a36,36,0,0,0-72,0,58.6,58.6,0,0,0,1.5,12.3,58.7,58.7,0,0,0-9.9-7.5,36,36,0,0,0-36,62.4A56.9,56.9,0,0,0,59.1,128a56.9,56.9,0,0,0-11.5,4.8,36,36,0,0,0,36,62.4,58.7,58.7,0,0,0,9.9-7.5A58.6,58.6,0,0,0,92,200a36,36,0,0,0,72,0,58.6,58.6,0,0,0-1.5-12.3,58.7,58.7,0,0,0,9.9,7.5,36,36,0,0,0,36-62.4ZM108,128a20,20,0,1,1,20,20A20.1,20.1,0,0,1,108,128Zm72.4-53.3a20,20,0,0,1,20,34.6c-6.8,3.9-20.1,7-37.8,8.9a36.2,36.2,0,0,0-8.8-15.3C164.3,88.5,173.6,78.6,180.4,74.7ZM128,36a20.1,20.1,0,0,1,20,20c0,7.8-3.9,20.9-11.2,37.1a35.8,35.8,0,0,0-17.6,0C111.9,76.9,108,63.8,108,56A20.1,20.1,0,0,1,128,36ZM48.3,82a20,20,0,0,1,27.3-7.3c6.8,3.9,16.1,13.8,26.6,28.2a36.2,36.2,0,0,0-8.8,15.3c-17.7-1.9-31-5-37.8-8.9A20,20,0,0,1,48.3,82Zm27.3,99.3a20,20,0,0,1-20-34.6c6.8-3.9,20.1-7,37.8-8.9a36.2,36.2,0,0,0,8.8,15.3C91.7,167.5,82.4,177.4,75.6,181.3ZM128,220a20.1,20.1,0,0,1-20-20c0-7.8,3.9-20.9,11.2-37.1a35.8,35.8,0,0,0,17.6,0c7.3,16.2,11.2,29.3,11.2,37.1A20.1,20.1,0,0,1,128,220Zm79.7-46a20,20,0,0,1-27.3,7.3c-6.8-3.9-16.1-13.8-26.6-28.2a36.2,36.2,0,0,0,8.8-15.3c17.7,1.9,31,5,37.8,8.9A20,20,0,0,1,207.7,174Z"/></svg>