<svg xmlns="http://www.w3.org/2000/svg" viewBox="0 0 256 256"><path d="M120.6,200H40V88H216v32a8,8,0,0,0,16,0V88a16,16,0,0,0-16-16H131.3L104,44.7A15.9,15.9,0,0,0,92.7,40H40A16,16,0,0,0,24,56V200.6A15.4,15.4,0,0,0,39.4,216h81.2a8,8,0,1,0,0-16ZM92.7,56l16,16H40V56ZM243.6,159.2a8.1,8.1,0,0,0-7-5.6l-29.8-2.3-11.5-26.5a8,8,0,0,0-14.6,0l-11.5,26.5-29.8,2.3a8.1,8.1,0,0,0-4.5,14.2l22.5,18.6-6.8,27.7a7.9,7.9,0,0,0,3,8.3,8,8,0,0,0,8.8.5L188,207.8l25.6,15.1a8.7,8.7,0,0,0,4.1,1.1,7.4,7.4,0,0,0,4.7-1.6,7.9,7.9,0,0,0,3-8.3l-6.8-27.7,22.5-18.6A8,8,0,0,0,243.6,159.2Zm-39.1,18a8.1,8.1,0,0,0-2.7,8.1l3.5,14.2-13.2-7.9a8.2,8.2,0,0,0-8.2,0l-13.2,7.9,3.5-14.2a8.1,8.1,0,0,0-2.7-8.1l-11.1-9.1,14.9-1.2a8.1,8.1,0,0,0,6.7-4.8l6-13.9,6,13.9a8.1,8.1,0,0,0,6.7,4.8l14.9,1.2Z"/></svg>