<svg id="Flat" xmlns="http://www.w3.org/2000/svg" viewBox="0 0 256 256">
  <path d="M216,72H130.6665L102.93311,51.2002A16.1004,16.1004,0,0,0,93.3335,48H40A16.01833,16.01833,0,0,0,24,64V200a16.01833,16.01833,0,0,0,16,16H216a16.01833,16.01833,0,0,0,16-16V88A16.01833,16.01833,0,0,0,216,72ZM93.3335,96H40V64H93.3335l21.333,16L93.3335,96M216,200H40V112H93.3335a16.10288,16.10288,0,0,0,9.60009-3.2002L130.6665,88H216Zm-80.00293-76v16h16a8,8,0,0,1,0,16h-16v16a8,8,0,0,1-16,0V156h-16a8,8,0,0,1,0-16h16V124a8,8,0,0,1,16,0Z"/>
</svg>
