<svg xmlns="http://www.w3.org/2000/svg" viewBox="0 0 256 256"><path d="M40,64V200h80a8,8,0,0,1,0,16H40a16,16,0,0,1-16-16V64A16,16,0,0,1,40,48H93.3a15.6,15.6,0,0,1,9.6,3.2L130.7,72H216a16,16,0,0,1,16,16v32a8,8,0,0,1-16,0V88H130.7a15.6,15.6,0,0,1-9.6-3.2L93.3,64ZM241.1,167.8l-22.5,18.6,6.8,27.7a7.9,7.9,0,0,1-3,8.3,7.4,7.4,0,0,1-4.7,1.6,8.7,8.7,0,0,1-4.1-1.1L188,207.8l-25.6,15.1a8,8,0,0,1-8.8-.5,7.9,7.9,0,0,1-3-8.3l6.8-27.7-22.5-18.6a8.1,8.1,0,0,1,4.5-14.2l29.8-2.3,11.5-26.5a8,8,0,0,1,14.6,0l11.5,26.5,29.8,2.3a8.1,8.1,0,0,1,4.5,14.2Zm-25.5.3-14.9-1.2a8.1,8.1,0,0,1-6.7-4.8l-6-13.9-6,13.9a8.1,8.1,0,0,1-6.7,4.8l-14.9,1.2,11.1,9.1a8.1,8.1,0,0,1,2.7,8.1l-3.5,14.2,13.2-7.9a8.2,8.2,0,0,1,8.2,0l13.2,7.9-3.5-14.2a8.1,8.1,0,0,1,2.7-8.1Z"/></svg>