<svg id="Flat" xmlns="http://www.w3.org/2000/svg" viewBox="0 0 256 256">
  <path d="M241.88037,110.64453A16.03934,16.03934,0,0,0,228.90039,104H216V88a16.01833,16.01833,0,0,0-16-16H130.6665L102.93311,51.19971A16.09992,16.09992,0,0,0,93.3335,48H40A16.01833,16.01833,0,0,0,24,64V208a8.05248,8.05248,0,0,0,.04541.84521c.00293.02881.00977.05713.01318.08545a7.89526,7.89526,0,0,0,.13721.811c.01611.07324.0376.14453.05566.21728.05713.2251.12208.44629.19727.66358.02734.07812.05566.15527.08545.23291.084.21973.17773.43359.28027.64355.03125.06446.05957.12989.09278.19336a8.00125,8.00125,0,0,0,1.01318,1.499c.06055.07129.12451.13769.187.20654.14112.15381.28711.30176.43946.44434.07324.06787.1455.13525.22119.20068.17138.14844.35009.28857.53418.42236.05468.04.10644.0835.16259.12158a7.91673,7.91673,0,0,0,.77246.47168c.0254.01368.05225.02442.07764.0376a7.85269,7.85269,0,0,0,.73731.33594c.07177.02881.14453.05322.21728.07959.21192.07715.42676.14551.64649.20459.08447.023.16894.04541.25439.06543.21826.05127.44092.09131.66553.124.082.01221.1626.02783.24511.0376A8.03922,8.03922,0,0,0,32,216H208a8.00011,8.00011,0,0,0,7.58936-5.47021l28.49023-85.47022A16.04014,16.04014,0,0,0,241.88037,110.64453ZM93.3335,64l27.73339,20.80029A16.09992,16.09992,0,0,0,130.6665,88H200v16H146.42236a15.94829,15.94829,0,0,0-8.87548,2.6875L117.57764,120H69.416a15.92344,15.92344,0,0,0-14.85547,10.05762L40,166.45947V64ZM202.23389,200H43.81641L69.416,136h48.16162a15.94829,15.94829,0,0,0,8.87548-2.6875L146.42236,120h82.478Z"/>
</svg>
