<svg id="Flat" xmlns="http://www.w3.org/2000/svg" viewBox="0 0 256 256">
  <path d="M224,64H154.6665L126.93311,43.2002A16.09713,16.09713,0,0,0,117.3335,40H72A16.01833,16.01833,0,0,0,56,56V72H40A16.01833,16.01833,0,0,0,24,88V200a16.01833,16.01833,0,0,0,16,16H192.88867A15.12831,15.12831,0,0,0,208,200.88867V184h16.88867A15.12831,15.12831,0,0,0,240,168.88867V80A16.01833,16.01833,0,0,0,224,64ZM192,200H40V88H85.3335l27.73339,20.7998A16.09713,16.09713,0,0,0,122.6665,112l69.333-.01025L192,112Zm32-32H208V112a16.01833,16.01833,0,0,0-16-16H122.6665L94.93311,75.2002A16.09713,16.09713,0,0,0,85.3335,72H72V56h45.3335l27.73339,20.7998A16.09713,16.09713,0,0,0,154.6665,80H224Z"/>
</svg>
