<svg id="Flat" xmlns="http://www.w3.org/2000/svg" viewBox="0 0 256 256">
  <path d="M216,72H130.6665L102.93311,51.2002A16.09713,16.09713,0,0,0,93.3335,48H40A16.01833,16.01833,0,0,0,24,64V200a16.01833,16.01833,0,0,0,16,16H216.88867A15.12831,15.12831,0,0,0,232,200.88867V88A16.01833,16.01833,0,0,0,216,72Zm0,128H40V64H93.3335l27.73339,20.7998A16.09713,16.09713,0,0,0,130.6665,88l85.333-.01025L216,88Zm-56-56a7.99977,7.99977,0,0,1-8,8H136v16a8,8,0,0,1-16,0V152H104a8,8,0,0,1,0-16h16V120a8,8,0,0,1,16,0v16h16A7.99977,7.99977,0,0,1,160,144Z"/>
</svg>
