<svg id="Flat" xmlns="http://www.w3.org/2000/svg" viewBox="0 0 256 256">
  <path d="M241.88037,110.64453A16.03934,16.03934,0,0,0,228.90039,104H216V88a16.01833,16.01833,0,0,0-16-16H130.6665L102.93311,51.19971A16.10319,16.10319,0,0,0,93.3335,48H40A16.01833,16.01833,0,0,0,24,64V208c0,.05078.00684.10059.00781.15137.002.1123.00977.22412.0166.33642.01172.19043.02832.37891.05274.56592.01367.10156.0293.20215.04639.30322.03515.20557.07861.40674.12939.60645.02051.082.03955.16455.063.2456q.10328.35963.23926.70411c.01611.0415.0288.084.04589.125a7.85475,7.85475,0,0,0,.39063.81787c.01465.02685.03223.05175.04736.07861q.19337.34131.419.66113c.019.02637.0332.05567.05224.082.03467.04834.07618.09034.11231.1377.123.1626.251.32031.38574.47314.06787.07666.13525.15235.20557.22608.14209.14892.291.291.44433.42871.064.05713.12451.11768.18994.17236a7.98411,7.98411,0,0,0,.69629.52881l.01514.00879a7.90253,7.90253,0,0,0,.74023.43555c.064.03369.12989.062.19434.09375.2002.09765.40381.18847.61231.26953.0791.03027.1582.05859.23779.08691q.30249.1062.61474.188c.084.02246.16748.04541.252.06494.21435.04883.43213.08643.65234.11817.0791.01123.15674.02685.23633.03613A8.06189,8.06189,0,0,0,32,216H208a8.00011,8.00011,0,0,0,7.58936-5.47021l28.49023-85.47022A16.04014,16.04014,0,0,0,241.88037,110.64453ZM93.3335,64l27.73339,20.80029A16.10319,16.10319,0,0,0,130.6665,88H200v16H69.76611a15.97991,15.97991,0,0,0-15.1792,10.94043L40,158.70166V64ZM202.23389,200H43.09961l26.6665-80H228.90039Z"/>
</svg>
