<svg xmlns="http://www.w3.org/2000/svg" viewBox="0 0 256 256"><path d="M210.4,194.8a32,32,0,1,0-44.8,0A40.2,40.2,0,0,0,149.3,218a7.9,7.9,0,0,0,5.7,9.7l2,.3a8.1,8.1,0,0,0,7.8-6,24,24,0,0,1,46.4,0,8,8,0,0,0,9.8,5.7,7.9,7.9,0,0,0,5.7-9.7A40.2,40.2,0,0,0,210.4,194.8ZM172,172a16,16,0,1,1,16,16A16,16,0,0,1,172,172ZM216,72H131.3L104,44.7A15.9,15.9,0,0,0,92.7,40H40A16,16,0,0,0,24,56V200.6A15.4,15.4,0,0,0,39.4,216h81.2a8,8,0,1,0,0-16H40V88H216v32a8,8,0,0,0,16,0V88A16,16,0,0,0,216,72ZM92.7,56l16,16H40V56Z"/></svg>