<svg id="Flat" xmlns="http://www.w3.org/2000/svg" viewBox="0 0 256 256">
  <path d="M225.98,56.31055a32.13113,32.13113,0,0,0-26.29-26.29053c-31.35058-5.30908-90.437-7.72363-133.915,35.75439S24.71094,168.33887,30.02,199.68945a32.13113,32.13113,0,0,0,26.29,26.29053,200.74409,200.74409,0,0,0,33.27637,2.83984c31.082,0,69.78955-7.74511,100.63867-38.59423C233.70361,146.74756,231.28906,87.66113,225.98,56.31055Zm-15.77539,2.67138a184.687,184.687,0,0,1,2.68555,30.59473L166.407,43.09375a185.00979,185.00979,0,0,1,30.61109,2.70166A16.11531,16.11531,0,0,1,210.20459,58.98193ZM58.98193,210.20459a16.11587,16.11587,0,0,1-13.18652-13.18652,184.687,184.687,0,0,1-2.68555-30.59473l46.48267,46.48291A185.002,185.002,0,0,1,58.98193,210.20459Zm119.92969-31.293c-11.54248,11.543-33.39331,27.74268-68.10791,32.57861L44.52417,145.21045c4.8374-34.7124,21.02222-56.58008,32.56421-68.12207C88.63086,65.5459,110.48169,49.34668,145.196,44.50977l66.27979,66.27978C206.63843,145.502,190.45361,167.36963,178.91162,178.91162ZM165.65674,90.34326a7.99915,7.99915,0,0,1,0,11.31348L150.6272,116.68652l8.97046,8.97022a8,8,0,0,1-11.31348,11.314L139.31372,128l-11.314,11.314,8.97045,8.97022a7.99983,7.99983,0,1,1-11.31347,11.31348l-8.97046-8.97022-15.02954,15.0293a7.99984,7.99984,0,0,1-11.31348-11.31348l15.02954-15.02978-8.97046-8.97022a8,8,0,0,1,11.31348-11.314L116.68628,128l11.314-11.314-8.97045-8.97022a7.99983,7.99983,0,1,1,11.31347-11.31348l8.97046,8.97022,15.02954-15.0293A7.99915,7.99915,0,0,1,165.65674,90.34326Z"/>
</svg>
