<svg xmlns="http://www.w3.org/2000/svg" viewBox="0 0 256 256"><path d="M76,72V32a8,8,0,0,1,16,0V72a8,8,0,0,1-16,0Zm43.9-41.3a8,8,0,1,0-15.8,2.6L112,80.6a28,28,0,0,1-56,0l7.9-47.3a8,8,0,1,0-15.8-2.6l-8,48A5.7,5.7,0,0,0,40,80a44.1,44.1,0,0,0,36,43.3V224a8,8,0,0,0,16,0V123.3A44.1,44.1,0,0,0,128,80a5.7,5.7,0,0,0-.1-1.3ZM212,32V224a8,8,0,0,1-16,0V168H148a8.2,8.2,0,0,1-6-2.7,8.1,8.1,0,0,1-2-6.2,412.8,412.8,0,0,1,11.8-59.3c12-42.4,28.7-67.8,49.5-75.3A7.9,7.9,0,0,1,212,32ZM196,46.4c-11.1,10.2-20.9,29.8-28.8,57.8A402.3,402.3,0,0,0,157.1,152H196Z"/></svg>