<svg id="Flat" xmlns="http://www.w3.org/2000/svg" viewBox="0 0 256 256">
  <path d="M76,72V32a8,8,0,0,1,16,0V72a8,8,0,0,1-16,0Zm43.89111-41.31543a8,8,0,1,0-15.78222,2.63086l7.88427,47.30566a28.00005,28.00005,0,0,1-55.98632,0l7.88427-47.30566a8,8,0,1,0-15.78222-2.63086l-8,48A7.9739,7.9739,0,0,0,40,80a44.06372,44.06372,0,0,0,36,43.25781V224a8,8,0,0,0,16,0V123.25781A44.06372,44.06372,0,0,0,128,80a7.9739,7.9739,0,0,0-.10889-1.31543ZM212,32V224a8,8,0,0,1-16,0V168H148a8.00052,8.00052,0,0,1-7.95459-8.85254,398.31988,398.31988,0,0,1,11.75732-59.32812c12.021-42.42676,28.66309-67.77393,49.46338-75.33789A7.99979,7.99979,0,0,1,212,32ZM196,46.35791c-11.06836,10.25537-20.8877,29.88623-28.80273,57.82275A389.08015,389.08015,0,0,0,157.12646,152H196Z"/>
</svg>
