<svg id="Flat" xmlns="http://www.w3.org/2000/svg" viewBox="0 0 256 256">
  <path d="M112.002,233.05664A16.01181,16.01181,0,0,1,96,217.05176v-77.959L30.24561,66.76367A16.00043,16.00043,0,0,1,42.08447,40H213.91553a16.00019,16.00019,0,0,1,11.83935,26.7627L160,139.09375v56.625a15.96822,15.96822,0,0,1-7.12549,13.31348l-31.99951,21.332A15.97927,15.97927,0,0,1,112.002,233.05664ZM42.08984,56l65.749,72.33008A15.96379,15.96379,0,0,1,112,139.09277v77.959l32-21.333v-56.626a15.96476,15.96476,0,0,1,4.16309-10.76465l65.74853-72.32421Zm171.89454.00391h0Z"/>
</svg>
