<svg id="Flat" xmlns="http://www.w3.org/2000/svg" viewBox="0 0 256 256">
  <path d="M184,116H152a8,8,0,0,1,0-16h32a8,8,0,0,1,0,16Zm-80-16H96V92a8,8,0,0,0-16,0v8H72a8,8,0,0,0,0,16h8v8a8,8,0,0,0,16,0v-8h8a8,8,0,0,0,0-16ZM218.25586,223.44922a36.03057,36.03057,0,0,1-31.7041-9.99219q-.22485-.22412-.42822-.46191l-40.67139-45.14893-34.84961.13916-40.729,45.02442q-.1985.23-.416.44726A36.00125,36.00125,0,0,1,8.55176,181.74316c.0083-.04589.0166-.09179.02539-.13769L24.87109,97.80664c.01075-.07226.02246-.14551.03516-.21777A59.86832,59.86832,0,0,1,84.00439,48l87.99024-.25977h.02344a60.08587,60.08587,0,0,1,59.01855,49.2627c.01367.0625.03369.12207.0459.18555l16.35059,84.42285c.0083.04394.0166.08789.02441.13183A36.042,36.042,0,0,1,218.25586,223.44922Zm-46.27-71.709a44,44,0,1,0,.03955-88L84.02783,64a43.90321,43.90321,0,0,0-43.30127,36.01172q-.03222.24169-.0791.48633l-16.3501,84.08789a20.00156,20.00156,0,0,0,33.69483,17.707l43.11426-47.66016A7.99986,7.99986,0,0,1,107.00684,152ZM231.71143,184.583l-8.75269-45.19239a60.00525,60.00525,0,0,1-50.94067,28.34961l-5.1084.02051,31.11181,34.53614a20.00135,20.00135,0,0,0,33.69-17.71387Z"/>
</svg>
