<svg xmlns="http://www.w3.org/2000/svg" viewBox="0 0 256 256"><path d="M184,116H152a8,8,0,0,1,0-16h32a8,8,0,0,1,0,16Zm-80-16H96V92a8,8,0,0,0-16,0v8H72a8,8,0,0,0,0,16h8v8a8,8,0,0,0,16,0v-8h8a8,8,0,0,0,0-16ZM218.3,223.4a33.6,33.6,0,0,1-6.3.6,36,36,0,0,1-25.4-10.5l-.5-.5-40.6-45.2-34.9.2L69.9,213l-.4.5A36.4,36.4,0,0,1,44,224a31.8,31.8,0,0,1-6.2-.6A35.9,35.9,0,0,1,8.6,181.7h0L24.9,97.8v-.2A59.9,59.9,0,0,1,84,48l88-.3h0A60,60,0,0,1,231,97c.1.1.1.1.1.2l16.3,84.4h.1A36.1,36.1,0,0,1,218.3,223.4ZM172,151.7a44,44,0,1,0,0-88L84,64a43.9,43.9,0,0,0-43.3,36,.9.9,0,0,1-.1.5L24.3,184.6A20,20,0,0,0,58,202.3l43.1-47.7A8.3,8.3,0,0,1,107,152Zm59.7,32.9L223,139.4a60,60,0,0,1-51,28.3h-5.1L198,202.3a20,20,0,0,0,33.7-17.7Z"/></svg>