<svg id="Flat" xmlns="http://www.w3.org/2000/svg" viewBox="0 0 256.00098 256.00098">
  <path d="M128,72a56,56,0,1,0,56,56A56.06353,56.06353,0,0,0,128,72Zm0,96a40,40,0,1,1,40-40A40.04521,40.04521,0,0,1,128,168Zm104.39893-20.80127-12.43555-16.58057c.02441-.87353.03662-1.74755.03662-2.61718,0-.87012-.01221-1.74512-.03711-2.61963L232.394,108.80176a16.02957,16.02957,0,0,0,2.48-14.37061,111.71216,111.71216,0,0,0-7.55273-18.25439,16.03339,16.03339,0,0,0-11.92481-8.42237l-20.51757-2.93066q-.90015-.95216-1.82422-1.877-.92286-.92286-1.87842-1.82617l-2.93359-20.51416a16.02954,16.02954,0,0,0-8.40821-11.91456,111.63621,111.63621,0,0,0-18.248-7.56689,16.03528,16.03528,0,0,0-14.3877,2.47607L130.61768,36.03662c-1.74756-.04883-3.48829-.04883-5.23584,0L108.80078,23.60449A16.03466,16.03466,0,0,0,94.43115,21.126a111.671,111.671,0,0,0-18.25342,7.55273,16.03285,16.03285,0,0,0-8.42334,11.92481L64.82324,61.12109q-.95361.90162-1.87646,1.82471-.92359.92358-1.82617,1.87793L40.606,67.75732a16.03148,16.03148,0,0,0-11.91407,8.40821A111.71662,111.71662,0,0,0,21.125,94.41309a16.0358,16.0358,0,0,0,2.47607,14.38867l12.43555,16.58008C36.01221,126.25537,36,127.12939,36,127.999c0,.87012.01221,1.74512.03662,2.61963L23.606,147.19824a16.02882,16.02882,0,0,0-2.48,14.37012,111.73515,111.73515,0,0,0,7.55273,18.25488,16.03339,16.03339,0,0,0,11.92481,8.42237l20.51757,2.93066q.90015.95216,1.82422,1.877.92286.92286,1.87842,1.82617l2.93359,20.51416a16.02987,16.02987,0,0,0,8.40821,11.91456,111.63621,111.63621,0,0,0,18.248,7.56689,15.89624,15.89624,0,0,0,4.76221.72852,16.05914,16.05914,0,0,0,9.62549-3.20459l16.58105-12.43555c1.74756.04883,3.48829.04883,5.23584,0l16.58106,12.43213a16.03318,16.03318,0,0,0,14.36963,2.47851,111.68883,111.68883,0,0,0,18.25342-7.55273,16.03285,16.03285,0,0,0,8.42334-11.92481l2.93115-20.51757q.95361-.90162,1.87646-1.82471.92359-.92358,1.82617-1.87793l20.51465-2.93359a16.03148,16.03148,0,0,0,11.91407-8.40821,111.71662,111.71662,0,0,0,7.56689-18.24756A16.03454,16.03454,0,0,0,232.39893,147.19873Zm-19.27,25.20508-23.34766,3.33887a8.00161,8.00161,0,0,0-4.85449,2.61328c-1.01953,1.15039-2.0918,2.28906-3.18848,3.38525-1.08887,1.08984-2.22754,2.16211-3.38379,3.1875a8.00035,8.00035,0,0,0-2.6123,4.85449l-3.3252,23.355a94.79141,94.79141,0,0,1-15.62011,6.45508l-18.87012-14.14795a7.97977,7.97977,0,0,0-5.2793-1.58447,78.09259,78.09259,0,0,1-9.29541,0,7.9725,7.9725,0,0,0-5.28027,1.58545L99.20605,219.60938a94.75649,94.75649,0,0,1-15.60986-6.481l-3.33887-23.34717a8.001,8.001,0,0,0-2.61279-4.85352c-1.1543-1.02343-2.293-2.0957-3.38476-3.1875-1.09375-1.09423-2.166-2.23291-3.1875-3.38525a7.99965,7.99965,0,0,0-4.85547-2.61279l-23.355-3.32471a94.7998,94.7998,0,0,1-6.45508-15.6206l14.148-18.87012a8.00032,8.00032,0,0,0,1.585-5.27979C52.04688,131.10938,52,129.5459,52,127.999c0-1.5459.04688-3.10937.13965-4.647a8.00179,8.00179,0,0,0-1.58594-5.28076L36.39062,99.20605a94.77957,94.77957,0,0,1,6.48047-15.60986l23.34766-3.33887a7.99906,7.99906,0,0,0,4.854-2.61328c1.02-1.15039,2.09278-2.28955,3.18848-3.38525,1.08984-1.08984,2.22852-2.16211,3.38428-3.1875a7.999,7.999,0,0,0,2.6123-4.85449l3.3252-23.355a94.77422,94.77422,0,0,1,15.62011-6.45508l18.86963,14.148a7.99374,7.99374,0,0,0,5.27979,1.58447,78.09259,78.09259,0,0,1,9.29541,0,7.99392,7.99392,0,0,0,5.28027-1.58545L156.794,36.39062a94.75649,94.75649,0,0,1,15.60986,6.481l3.33887,23.34717a8.001,8.001,0,0,0,2.61279,4.85352c1.15381,1.02294,2.293,2.0957,3.38476,3.187,1.09375,1.09472,2.16651,2.23388,3.1875,3.38574a7.99965,7.99965,0,0,0,4.85547,2.61279l23.355,3.32471a94.76505,94.76505,0,0,1,6.45508,15.6206l-14.14795,18.87012a8.00032,8.00032,0,0,0-1.585,5.27979c.09277,1.53808.13965,3.102.13965,4.64795,0,1.54687-.04688,3.11035-.13965,4.64648a8.00017,8.00017,0,0,0,1.58594,5.28076L219.60938,156.794A94.77957,94.77957,0,0,1,213.12891,172.40381Z"/>
</svg>
