<svg xmlns="http://www.w3.org/2000/svg" viewBox="0 0 256 256"><path d="M237.5,104.3a8,8,0,0,0-4-5.3L209.7,85.8a69.3,69.3,0,0,0-4.3-7.5l.5-27.2a8.3,8.3,0,0,0-2.6-6.1,112,112,0,0,0-41.1-23.7,8.1,8.1,0,0,0-6.6.8l-23.3,14c-2.9-.1-5.7-.1-8.6,0l-23.3-14a8.1,8.1,0,0,0-6.6-.8A111.1,111.1,0,0,0,52.7,45.1a7.9,7.9,0,0,0-2.6,6l.5,27.2c-1.6,2.4-3,4.9-4.4,7.5L22.4,99a7.9,7.9,0,0,0-3.9,5.3,111.4,111.4,0,0,0,0,47.4,8,8,0,0,0,4,5.3l23.8,13.2a69.3,69.3,0,0,0,4.3,7.5l-.5,27.2a8.3,8.3,0,0,0,2.6,6.1,112,112,0,0,0,41.1,23.7,8.1,8.1,0,0,0,6.6-.8l23.3-14h8.6l23.4,14a7.3,7.3,0,0,0,4.1,1.2,10,10,0,0,0,2.4-.4,111.1,111.1,0,0,0,41.1-23.8,7.9,7.9,0,0,0,2.6-6l-.5-27.2c1.6-2.4,3-4.9,4.4-7.5L233.6,157a7.9,7.9,0,0,0,3.9-5.3A111.4,111.4,0,0,0,237.5,104.3Zm-15,40.5-22.7,12.6a8.2,8.2,0,0,0-3.3,3.6,73.6,73.6,0,0,1-5.7,9.8,8.6,8.6,0,0,0-1.4,4.7l.4,25.9a94.4,94.4,0,0,1-29.1,16.9l-22.3-13.4a8.1,8.1,0,0,0-4.1-1.1h-.6a72.3,72.3,0,0,1-11.4,0,8.6,8.6,0,0,0-4.7,1.1L95.3,218.3a95,95,0,0,1-29.1-16.8l.4-26a8.6,8.6,0,0,0-1.4-4.7,86.4,86.4,0,0,1-5.7-9.8,8.8,8.8,0,0,0-3.3-3.6L33.5,144.8a94.8,94.8,0,0,1,0-33.6L56.2,98.6A8.2,8.2,0,0,0,59.5,95a73.6,73.6,0,0,1,5.7-9.8,8.6,8.6,0,0,0,1.4-4.7l-.4-25.9A94.4,94.4,0,0,1,95.3,37.7l22.3,13.4a8.4,8.4,0,0,0,4.7,1.1,72.3,72.3,0,0,1,11.4,0,8.6,8.6,0,0,0,4.7-1.1l22.3-13.4a95,95,0,0,1,29.1,16.8l-.4,26a8.6,8.6,0,0,0,1.4,4.7,86.4,86.4,0,0,1,5.7,9.8,8.8,8.8,0,0,0,3.3,3.6l22.7,12.6A94.8,94.8,0,0,1,222.5,144.8ZM128,72a56,56,0,1,0,56,56A56,56,0,0,0,128,72Zm0,96a40,40,0,1,1,40-40A40,40,0,0,1,128,168Z"/></svg>