<svg id="Flat" xmlns="http://www.w3.org/2000/svg" viewBox="0 0 256.00098 256.00098">
  <path d="M128.001,64.00049a64,64,0,1,0,64,64A64.0727,64.0727,0,0,0,128.001,64.00049Zm0,112a48,48,0,1,1,48-48A48.05437,48.05437,0,0,1,128.001,176.00049Zm96-42.42188V122.42334l8.96338-13.44482a16.07564,16.07564,0,0,0,2.06835-13.63331,111.467,111.467,0,0,0-8.24511-19.94238,16.05458,16.05458,0,0,0-11.09668-8.168L199.82812,64.062l-7.88818-7.88818-3.17285-15.86377a16.05519,16.05519,0,0,0-8.168-11.09668,111.51332,111.51332,0,0,0-19.94287-8.24414A16.0719,16.0719,0,0,0,147.023,23.0376L133.57861,32H122.42334L108.98,23.03809A16.075,16.075,0,0,0,95.3457,20.96924a111.51011,111.51011,0,0,0-19.9414,8.24365A16.05059,16.05059,0,0,0,67.23486,40.311L64.063,56.17334,56.17432,64.062l-15.8628,3.17188a16.05438,16.05438,0,0,0-11.09716,8.168,111.49826,111.49826,0,0,0-8.24561,19.94335A16.07772,16.07772,0,0,0,23.03711,108.978L32,122.42236v11.15528L23.03711,147.022a16.07534,16.07534,0,0,0-2.06787,13.63282,111.46489,111.46489,0,0,0,8.24414,19.94335,16.05238,16.05238,0,0,0,11.09717,8.168L56.17383,191.939l7.88818,7.8877,3.17188,15.86377a16.05458,16.05458,0,0,0,8.168,11.09766,111.53047,111.53047,0,0,0,19.94238,8.24414,16.07923,16.07923,0,0,0,13.63281-2.06787l13.44483-8.96338h11.15576l13.44531,8.96386a16.23755,16.23755,0,0,0,9.01123,2.75586,15.88642,15.88642,0,0,0,4.62207-.688,111.41391,111.41391,0,0,0,19.94141-8.24414,16.05125,16.05125,0,0,0,8.16845-11.09716l3.17285-15.86377,7.88819-7.88868,15.86328-3.17187a16.05442,16.05442,0,0,0,11.09717-8.168,111.50637,111.50637,0,0,0,8.24511-19.94189,16.07511,16.07511,0,0,0-2.06835-13.6333Zm-11.2876,39.43018a.37931.37931,0,0,1-.16065.06885l-18.23828,3.647a8.00176,8.00176,0,0,0-4.08886,2.188l-11.31348,11.31445a7.99809,7.99809,0,0,0-2.1875,4.08789l-3.648,18.23877c-.01611.08057-.04932.13672-.01611.12158a95.82478,95.82478,0,0,1-16.99561,7.03711h0a.36174.36174,0,0,1-.167-.06054L140.4375,209.34473A7.99591,7.99591,0,0,0,136,208.001H120a8.00054,8.00054,0,0,0-4.4375,1.34326l-15.46045,10.30664c-.06836.0459-.14355.061-.10205.07373a96.01881,96.01881,0,0,1-17.00732-7.01074.37752.37752,0,0,1-.06934-.16114l-3.647-18.23877a7.9953,7.9953,0,0,0-2.188-4.08789L65.7749,178.9126a8.00249,8.00249,0,0,0-4.08789-2.188l-18.23828-3.648c-.05566-.01123-.09912-.03027-.11621-.03027-.00781,0-.01025.0039-.00586.01465a95.85236,95.85236,0,0,1-7.03711-16.99756.36584.36584,0,0,1,.06055-.16651L46.65625,140.4375A7.99983,7.99983,0,0,0,48,136V120a7.99983,7.99983,0,0,0-1.34375-4.4375L36.3501,100.103c-.04541-.06885-.06055-.14258-.07324-.10254a96.02949,96.02949,0,0,1,7.01171-17.0083.373.373,0,0,1,.16065-.06885l18.23779-3.647a7.99526,7.99526,0,0,0,4.08789-2.188L77.08936,65.77393a7.99536,7.99536,0,0,0,2.188-4.08789l3.647-18.2378c.01611-.08008.04931-.13232.01611-.12109a95.80012,95.80012,0,0,1,16.99707-7.0376.70413.70413,0,0,1,.1665.06055l15.45948,10.30615A7.996,7.996,0,0,0,120.001,48h16a7.996,7.996,0,0,0,4.4375-1.34375l15.46-10.30664c.06836-.04541.14258-.06006.10205-.07275a96.023,96.023,0,0,1,17.0083,7.01123.37418.37418,0,0,1,.06933.16015L176.72559,61.687a7.99893,7.99893,0,0,0,2.188,4.08789l11.31348,11.31348a8.003,8.003,0,0,0,4.0874,2.188l18.2378,3.64795c.08105.01513.13574.04931.12158.01562A95.80853,95.80853,0,0,1,219.7124,99.936a.36893.36893,0,0,1-.06054.167l-10.30713,15.46045a7.99983,7.99983,0,0,0-1.34375,4.4375v16a7.99986,7.99986,0,0,0,1.34375,4.4375l10.30713,15.46093c.04541.06836.061.14209.07324.10157A96.04063,96.04063,0,0,1,212.71338,173.00879Z"/>
</svg>
