<svg xmlns="http://www.w3.org/2000/svg" viewBox="0 0 256 256"><path d="M128,72a56,56,0,1,0,56,56A56,56,0,0,0,128,72Zm0,96a40,40,0,1,1,40-40A40,40,0,0,1,128,168Zm106.8-17.6-14.9-19.8c.1-1.8,0-3.7,0-5.1l14.9-19.9a7.8,7.8,0,0,0,1.3-6.9,114.8,114.8,0,0,0-10.9-26.4,8.2,8.2,0,0,0-5.8-4l-24.5-3.5-3.7-3.7-3.5-24.5a8.2,8.2,0,0,0-4-5.8,114.8,114.8,0,0,0-26.4-10.9,7.8,7.8,0,0,0-6.9,1.3L130.6,36h-5.2L105.6,21.2a7.8,7.8,0,0,0-6.9-1.3A114.8,114.8,0,0,0,72.3,30.8a8.2,8.2,0,0,0-4,5.8L64.8,61.1l-3.7,3.7L36.6,68.3a8.2,8.2,0,0,0-5.8,4A114.8,114.8,0,0,0,19.9,98.7a7.8,7.8,0,0,0,1.3,6.9l14.9,19.8v5.1L21.2,150.4a7.8,7.8,0,0,0-1.3,6.9,114.8,114.8,0,0,0,10.9,26.4,8.2,8.2,0,0,0,5.8,4l24.5,3.5,3.7,3.7,3.5,24.5a8.2,8.2,0,0,0,4,5.8,114.8,114.8,0,0,0,26.4,10.9,7.6,7.6,0,0,0,2.1.3,7.7,7.7,0,0,0,4.8-1.6L125.4,220h5.2l19.8,14.8a7.8,7.8,0,0,0,6.9,1.3,114.8,114.8,0,0,0,26.4-10.9,8.2,8.2,0,0,0,4-5.8l3.5-24.6c1.2-1.2,2.6-2.5,3.6-3.6l24.6-3.5a8.2,8.2,0,0,0,5.8-4,114.8,114.8,0,0,0,10.9-26.4A7.8,7.8,0,0,0,234.8,150.4Zm-21.7,22-23.3,3.3a8.3,8.3,0,0,0-4.7,2.5c-1.2,1.3-4.9,5.1-6.7,6.7a8,8,0,0,0-2.7,4.9l-3.3,23.3a88.6,88.6,0,0,1-15.6,6.5l-18.9-14.2a7.7,7.7,0,0,0-5.3-1.5h-9.2a7.7,7.7,0,0,0-5.3,1.5L99.2,219.6a88.6,88.6,0,0,1-15.6-6.5l-3.3-23.3a8,8,0,0,0-2.7-4.9,66.5,66.5,0,0,1-6.5-6.5,8,8,0,0,0-4.9-2.7l-23.3-3.3a96.9,96.9,0,0,1-6.5-15.6l14.2-18.9a8.8,8.8,0,0,0,1.6-5c-.1-1.8-.2-7-.1-9.5a7.7,7.7,0,0,0-1.5-5.3L36.4,99.2a96.9,96.9,0,0,1,6.5-15.6l23.3-3.3a8,8,0,0,0,4.9-2.7,66.5,66.5,0,0,1,6.5-6.5,8,8,0,0,0,2.7-4.9l3.3-23.3a96.9,96.9,0,0,1,15.6-6.5l18.9,14.2a7.7,7.7,0,0,0,5.3,1.5c3-.1,6.2-.1,9.2,0a7.7,7.7,0,0,0,5.3-1.5l18.9-14.2a88.6,88.6,0,0,1,15.6,6.5l3.3,23.3a8,8,0,0,0,2.7,4.9,66.5,66.5,0,0,1,6.5,6.5,8,8,0,0,0,4.9,2.7l23.3,3.3a88.6,88.6,0,0,1,6.5,15.6l-14.2,18.9a8.8,8.8,0,0,0-1.6,5c.1,1.8.2,7,.1,9.5a7.7,7.7,0,0,0,1.5,5.3l14.2,18.9A88.6,88.6,0,0,1,213.1,172.4Z"/></svg>