<svg id="Flat" xmlns="http://www.w3.org/2000/svg" viewBox="0 0 256.00098 256.00098">
  <path d="M128,72a56,56,0,1,0,56,56A56.06353,56.06353,0,0,0,128,72Zm0,96a40,40,0,1,1,40-40A40.04521,40.04521,0,0,1,128,168Zm106.80615-17.59424-14.87793-19.835c.022-1.75244.00342-3.62207-.022-5.11377l14.89258-19.856a8.00087,8.00087,0,0,0,1.32422-6.88476,111.47282,111.47282,0,0,0-10.95069-26.46094,7.99971,7.99971,0,0,0-5.80615-3.93457l-24.4873-3.49707q-1.79809-1.90282-3.70313-3.70361L187.67969,36.644a7.99954,7.99954,0,0,0-3.93213-5.80468A111.46615,111.46615,0,0,0,157.294,19.87207a7.999,7.999,0,0,0-6.88819,1.32275L130.61816,36.0376c-1.74414-.04883-3.49316-.04883-5.2373,0L105.60107,21.20215a8.00351,8.00351,0,0,0-6.88476-1.32373A111.458,111.458,0,0,0,72.25537,30.82861a8.00035,8.00035,0,0,0-3.93506,5.80616L64.82373,61.12158q-1.9021,1.79809-3.70361,3.7041L36.644,68.32129a7.99954,7.99954,0,0,0-5.80468,3.93213,111.45394,111.45394,0,0,0-10.96729,26.4541,7.99981,7.99981,0,0,0,1.32275,6.88769l14.87793,19.835c-.022,1.75244-.0039,3.62207.022,5.11377l-14.89258,19.856a7.99909,7.99909,0,0,0-1.32373,6.88477,111.44279,111.44279,0,0,0,10.95019,26.46094,7.99975,7.99975,0,0,0,5.80616,3.93457l24.4873,3.49707q1.79809,1.90283,3.70313,3.70361l3.49609,24.47607a7.99954,7.99954,0,0,0,3.93213,5.80469A111.46581,111.46581,0,0,0,98.707,236.12891a7.9997,7.9997,0,0,0,6.88818-1.32276l19.7876-14.84277c1.74414.04883,3.49317.04883,5.23731,0l19.77978,14.83545a7.99558,7.99558,0,0,0,6.88477,1.32373,111.4584,111.4584,0,0,0,26.46094-10.9502,8.00027,8.00027,0,0,0,3.935-5.80615l3.50489-24.54541c1.25488-1.22363,2.564-2.55859,3.60058-3.63135l24.57129-3.50976a7.99957,7.99957,0,0,0,5.8042-3.93213,111.45436,111.45436,0,0,0,10.96729-26.4541A7.99984,7.99984,0,0,0,234.80615,150.40576Zm-21.66894,22-23.35547,3.33643a7.99837,7.99837,0,0,0-4.69483,2.437c-1.23632,1.31348-4.85449,5.08594-6.72753,6.74414a7.99806,7.99806,0,0,0-2.6167,4.85889L172.40674,213.144a95.41754,95.41754,0,0,1-15.60449,6.45606l-18.87256-14.15479a8.00257,8.00257,0,0,0-5.28516-1.58545,76.72117,76.72117,0,0,1-9.28613,0,8.02061,8.02061,0,0,0-5.28516,1.58545L99.19482,219.606a95.46206,95.46206,0,0,1-15.59961-6.46875l-3.33544-23.354a8.00081,8.00081,0,0,0-2.6167-4.8584,76.86153,76.86153,0,0,1-6.56592-6.56591,7.99941,7.99941,0,0,0-4.8584-2.61573l-23.36182-3.33642a95.48146,95.48146,0,0,1-6.45654-15.60449l14.15576-18.87354a8.00536,8.00536,0,0,0,1.59668-5.04346c-.05517-1.80322-.16357-7.02929-.01172-9.52636a8.00216,8.00216,0,0,0-1.58545-5.28565L36.395,99.19482a95.43594,95.43594,0,0,1,6.46875-15.59961l23.35352-3.33544a7.99816,7.99816,0,0,0,4.85888-2.6167,76.77924,76.77924,0,0,1,6.56543-6.56543,7.99814,7.99814,0,0,0,2.6167-4.85889l3.33594-23.36182a95.48146,95.48146,0,0,1,15.60449-6.45654l18.87256,14.15527a8.00785,8.00785,0,0,0,5.28516,1.58545,76.72117,76.72117,0,0,1,9.28613,0,7.98823,7.98823,0,0,0,5.28515-1.58545L156.80615,36.395a95.44205,95.44205,0,0,1,15.59961,6.46875l3.33545,23.354a8.0007,8.0007,0,0,0,2.6167,4.8584,76.8631,76.8631,0,0,1,6.56592,6.56592,7.998,7.998,0,0,0,4.8584,2.61572l23.3623,3.33643a95.55712,95.55712,0,0,1,6.45606,15.60449l-14.15577,18.87354a8,8,0,0,0-1.59668,5.04394c.05518,1.80078.16407,7.023.01221,9.52588a7.99686,7.99686,0,0,0,1.58545,5.28564l14.16065,18.87842A95.49963,95.49963,0,0,1,213.13721,172.40576Z"/>
</svg>
