<svg id="Flat" xmlns="http://www.w3.org/2000/svg" viewBox="0 0 256.00098 256.00098">
  <path d="M128,72a56,56,0,1,0,56,56A56.06353,56.06353,0,0,0,128,72Zm0,96a40,40,0,1,1,40-40A40.04521,40.04521,0,0,1,128,168Zm110.26562-59.64551A15.962,15.962,0,0,0,230.269,97.16162L209.74561,85.76855c-1.31543-2.55029-2.75391-5.04638-4.29981-7.46093l.39551-23.49219a15.93251,15.93251,0,0,0-5.68262-12.50928,111.53059,111.53059,0,0,0-34.03808-19.62158,15.96316,15.96316,0,0,0-13.69288,1.32861L132.29932,36.09082c-2.86768-.13721-5.74854-.13916-8.61084-.00684L103.542,23.99609a15.92808,15.92808,0,0,0-13.67578-1.33447A111.53736,111.53736,0,0,0,55.854,42.3291a15.96275,15.96275,0,0,0-5.69531,12.52246l.395,23.47022c-1.55127,2.41455-2.99365,4.90869-4.31152,7.45459L25.70166,97.17871a15.9676,15.9676,0,0,0-8.001,11.21387,111.5541,111.5541,0,0,0,.03321,39.25244A15.96346,15.96346,0,0,0,25.731,158.83838l20.52343,11.39307c1.31543,2.55029,2.75391,5.04638,4.29981,7.46093l-.39551,23.4917a15.9328,15.9328,0,0,0,5.68262,12.50977,111.53059,111.53059,0,0,0,34.03808,19.62158,15.95978,15.95978,0,0,0,13.69288-1.32861l20.12841-12.07764c2.86768.13623,5.74854.13867,8.61084.00684L152.458,232.00391a15.92909,15.92909,0,0,0,13.67578,1.33447A111.53736,111.53736,0,0,0,200.146,213.6709a15.962,15.962,0,0,0,5.69531-12.52246l-.395-23.47022c1.55127-2.415,2.99365-4.90869,4.31152-7.45459l20.54053-11.40234a15.9656,15.9656,0,0,0,8.00049-11.21387A111.52208,111.52208,0,0,0,238.26562,108.35449Zm-15.73291,36.478-22.729,12.6167a7.94645,7.94645,0,0,0-3.4956,3.91016,76.0946,76.0946,0,0,1-5.50782,9.458,8.00542,8.00542,0,0,0-1.394,4.64844L189.834,201.437a95.39923,95.39923,0,0,1-29.14355,16.84766l-22.29248-13.376-.02979-.01758a7.94882,7.94882,0,0,0-5.15234-1.05127,76.29757,76.29757,0,0,1-10.89746-.04443,8.02721,8.02721,0,0,0-4.72168,1.11719L95.31885,218.26807a95.3983,95.3983,0,0,1-29.1626-16.81446l.438-25.99414a7.94834,7.94834,0,0,0-1.6377-4.98144,76.09026,76.09026,0,0,1-5.438-9.50049,7.99931,7.99931,0,0,0-3.32861-3.53076L33.48486,144.83154a95.4073,95.4073,0,0,1-.01757-33.66406l22.729-12.6167a7.96658,7.96658,0,0,0,3.51807-3.957,76.23167,76.23167,0,0,1,5.48535-9.41162,7.9999,7.9999,0,0,0,1.39355-4.64795L66.166,54.563A95.39923,95.39923,0,0,1,95.30957,37.71533l22.29248,13.376.02979.01758a7.96093,7.96093,0,0,0,5.15234,1.05127,76.22586,76.22586,0,0,1,10.89746.04443,8.0118,8.0118,0,0,0,4.72168-1.11719l22.27783-13.35547a95.3983,95.3983,0,0,1,29.1626,16.81446l-.438,25.99414A7.94578,7.94578,0,0,0,191.044,85.522a76.18357,76.18357,0,0,1,5.4375,9.50049,7.99818,7.99818,0,0,0,3.32812,3.53076l22.70557,12.61524A95.4073,95.4073,0,0,1,222.53271,144.83252Z"/>
</svg>
