<svg id="Flat" xmlns="http://www.w3.org/2000/svg" viewBox="0 0 256.00098 256.00098">
  <path d="M237.458,104.2666a8.00048,8.00048,0,0,0-3.93506-5.29736L209.74658,85.77051c-1.31543-2.5503-2.75439-5.04688-4.2998-7.46094l.458-27.2124a8.00054,8.00054,0,0,0-2.62159-6.05811A111.13418,111.13418,0,0,0,162.17383,21.3418a7.99925,7.99925,0,0,0-6.55469.75927l-23.31885,13.9917c-2.86767-.13672-5.74853-.13867-8.61133-.00683l-23.3374-14.00342a8.0042,8.0042,0,0,0-6.55761-.75879A111.14964,111.14964,0,0,0,52.71729,45.07715a8.00093,8.00093,0,0,0-2.62012,6.05664l.45752,27.18994c-1.55127,2.41455-2.99365,4.90869-4.31153,7.4541l-23.79589,13.21a8.00175,8.00175,0,0,0-3.93555,5.29932A111.14074,111.14074,0,0,0,18.544,151.7373a8.00045,8.00045,0,0,0,3.93505,5.29737L46.25537,170.2334c1.31592,2.55078,2.7544,5.04687,4.29981,7.46094l-.458,27.2124a8.00049,8.00049,0,0,0,2.62158,6.0581,111.13428,111.13428,0,0,0,41.10937,23.69727,8.003,8.003,0,0,0,6.55469-.75928l23.31885-13.9917c2.86768.13623,5.74854.13867,8.61133.00684l23.3374,14.00342a8.00239,8.00239,0,0,0,6.55762.75879,111.15565,111.15565,0,0,0,41.07715-23.75342,8.00228,8.00228,0,0,0,2.61963-6.05664l-.45752-27.18994c1.55127-2.415,2.99365-4.90821,4.31152-7.45411l23.7959-13.21a8.00173,8.00173,0,0,0,3.93554-5.29931A111.13284,111.13284,0,0,0,237.458,104.2666Zm-14.91309,40.561-22.7168,12.61084a8.003,8.003,0,0,0-3.32324,3.5205,76.19761,76.19761,0,0,1-5.70361,9.86084,7.99991,7.99991,0,0,0-1.39356,4.648l.437,25.96485A95.04461,95.04461,0,0,1,160.70166,218.293l-22.27979-13.36865a7.99786,7.99786,0,0,0-4.11572-1.14014q-.29736,0-.5957.022a76.07764,76.07764,0,0,1-11.39111-.00879,8.01637,8.01637,0,0,0-4.72168,1.11719L95.32959,218.27588A95.05583,95.05583,0,0,1,66.15723,201.4668l.4375-25.97852a8.00162,8.00162,0,0,0-1.38721-4.63867,76.16567,76.16567,0,0,1-5.688-9.87012,8.002,8.002,0,0,0-3.32861-3.53076l-22.70459-12.604a95.03217,95.03217,0,0,1-.0293-33.66846l22.7168-12.61084a8.003,8.003,0,0,0,3.32324-3.52051,76.19828,76.19828,0,0,1,5.70361-9.86084,7.99988,7.99988,0,0,0,1.39356-4.64795l-.437-25.96484A95.04976,95.04976,0,0,1,95.30029,37.71094l22.27979,13.36865a8.023,8.023,0,0,0,4.71142,1.11816,76.01386,76.01386,0,0,1,11.39112.00879,7.99739,7.99739,0,0,0,4.72168-1.11718L160.67236,37.728a95.05028,95.05028,0,0,1,29.17237,16.80908l-.4375,25.97852a8.00268,8.00268,0,0,0,1.3872,4.63867,76.14837,76.14837,0,0,1,5.688,9.87011,8.002,8.002,0,0,0,3.32862,3.53077l22.70458,12.604A95.032,95.032,0,0,1,222.54492,144.82764ZM128.001,72.00195a56,56,0,1,0,56,56A56.06354,56.06354,0,0,0,128.001,72.00195Zm0,96a40,40,0,1,1,40-40A40.04519,40.04519,0,0,1,128.001,168.002Z"/>
</svg>
