<svg id="Flat" xmlns="http://www.w3.org/2000/svg" viewBox="0 0 256 256">
  <path d="M223.96,39.20947c-.011-.11377-.03271-.22412-.04834-.33642-.02075-.146-.03808-.29248-.06689-.4375-.02588-.13086-.062-.2583-.09449-.38721-.031-.124-.05835-.24854-.09545-.37158-.03858-.12647-.08594-.24854-.13038-.37256-.04394-.12256-.08447-.24609-.13427-.3667-.04785-.11523-.104-.22559-.157-.33838-.05835-.124-.11352-.249-.17871-.3706-.05786-.10791-.12353-.21-.186-.315-.07105-.11914-.13867-.24023-.21655-.35644-.07593-.11328-.16065-.22022-.242-.3291-.0747-.1001-.14429-.20264-.22436-.3003-.1521-.185-.31372-.36181-.48169-.53271-.0166-.01709-.03052-.03564-.04712-.05225-.019-.019-.04-.03466-.05908-.05322-.16895-.16553-.34351-.32568-.52662-.47607-.0913-.07471-.1875-.14014-.28125-.21-.11547-.08692-.22875-.17627-.34936-.25684-.10742-.07227-.21924-.13428-.32959-.2002-.114-.06884-.22607-.14013-.34375-.20312-.10889-.05811-.22119-.10742-.33228-.16016-.12573-.06006-.24975-.12207-.37915-.17578-.10327-.04248-.209-.07666-.31372-.11474-.1416-.05176-.282-.10547-.42749-.14942-.09765-.02978-.19677-.05029-.29541-.07617-.15429-.04-.30737-.08252-.46484-.11328-.10376-.02051-.20874-.03174-.31323-.04785-.15284-.02393-.30445-.05127-.46021-.06641-.15869-.01562-.31787-.01807-.477-.02441C216.20215,32.01172,216.10254,32,216,32H168a8,8,0,0,0,0,16h28.686L154.62817,90.05762a80.00154,80.00154,0,1,0,11.31372,11.314L208,59.314V88a8,8,0,0,0,16,0V40.00244C224,39.73779,223.98608,39.47314,223.96,39.20947ZM149.25488,197.25488a63.96974,63.96974,0,1,1,0-90.50976A64.07169,64.07169,0,0,1,149.25488,197.25488Z"/>
</svg>
