<svg id="Flat" xmlns="http://www.w3.org/2000/svg" viewBox="0 0 256 256">
  <path d="M215.96,23.20947c-.011-.11377-.03271-.22412-.04834-.33642-.02075-.146-.03808-.29248-.06689-.4375-.02588-.13086-.062-.2583-.09449-.38721-.031-.124-.05835-.24854-.09545-.37158-.03858-.12647-.08594-.24854-.13038-.37256-.04394-.12256-.08447-.24609-.13427-.3667-.04785-.11523-.104-.22559-.157-.33838-.05835-.124-.11352-.249-.17871-.3706-.05786-.10791-.12353-.21-.186-.31495-.07105-.11914-.13867-.24023-.21655-.35644-.07593-.11328-.16065-.22022-.242-.3291-.0747-.1001-.14429-.20264-.22436-.3003-.1521-.18505-.31372-.36181-.48169-.53271-.0166-.01709-.03052-.03564-.04712-.05225-.01929-.01953-.04077-.03515-.0603-.05468-.16846-.165-.34253-.32422-.52515-.47413-.09424-.07763-.1936-.145-.29053-.21728-.1123-.084-.22217-.1709-.33887-.249-.1123-.0752-.229-.14063-.34423-.20948-.10913-.06494-.21582-.1333-.32813-.19384-.115-.06153-.2334-.11329-.35058-.16895-.11963-.05664-.23755-.11621-.36036-.167-.11084-.0459-.22387-.08252-.33618-.123-.134-.04883-.26684-.09961-.40429-.1416-.1084-.03223-.21851-.05615-.32789-.084-.14331-.03663-.28515-.07666-.43164-.10547-.1206-.02393-.24267-.03711-.36425-.05567-.13672-.02051-.27149-.04541-.41016-.05908-.2019-.01953-.4043-.02588-.60693-.03076C208.11768,16.00781,208.05981,16,208,16H168a8,8,0,0,0,0,16h20.686L164.2522,56.43359A67.97437,67.97437,0,1,0,112,175.51367V196H88a8,8,0,0,0,0,16h24v20a8,8,0,0,0,16,0V212h24a8,8,0,0,0,0-16H128V175.51367A67.9301,67.9301,0,0,0,175.09692,68.2168L200,43.314V64a8,8,0,0,0,16,0V24.00244C216,23.73779,215.98608,23.47314,215.96,23.20947ZM120,160a52,52,0,1,1,52-52A52.059,52.059,0,0,1,120,160Z"/>
</svg>
