<svg id="Flat" xmlns="http://www.w3.org/2000/svg" viewBox="0 0 256 256">
  <path d="M223.99951,67.99756a36,36,0,1,0-44,35.09289v.9076a16.01844,16.01844,0,0,1-15.999,16l-72,.00146a16,16,0,0,1-16.001-16v-.90906a36,36,0,1,0-16,0v.90906a31.99992,31.99992,0,0,0,32.001,32l28.001-.00055L120,152.90692a36.00019,36.00019,0,1,0,16,.00031l.00146-16.90863,27.999-.00055a32.03646,32.03646,0,0,0,31.999-32v-.9076A36.05514,36.05514,0,0,0,223.99951,67.99756Zm-176,0a20,20,0,1,1,20,20A20.0226,20.0226,0,0,1,47.99951,67.99756ZM147.99951,188a20,20,0,1,1-20-20A20.02229,20.02229,0,0,1,147.99951,188Zm40-100.00244a20,20,0,1,1,20-20A20.0226,20.0226,0,0,1,187.99951,87.99756Z"/>
</svg>
