<svg id="Flat" xmlns="http://www.w3.org/2000/svg" viewBox="0 0 256 256">
  <path d="M204.002,152.907l-.00146-33.02612a55.63313,55.63313,0,0,0-16.40137-39.5957L163.314,56h20.68555a8,8,0,0,0,0-16h-40c-.05957,0-.11767.00757-.17676.00891-.20263.00452-.40527.01087-.60742.03064-.13818.01343-.27246.03857-.4082.059-.12256.01831-.24512.03186-.3667.05591-.145.02869-.28564.06811-.42822.10461-.11035.0282-.22168.05213-.33106.08521-.13574.041-.2666.09155-.39941.1394-.11426.04126-.22949.07862-.3418.12525-.11963.04956-.23437.10766-.35107.16284-.12061.05688-.24219.11059-.36084.17383-.10645.05688-.207.12182-.31055.18359-.12158.072-.24414.14087-.3623.22-.10645.071-.20557.15051-.30811.22644-.10742.07971-.21728.15466-.32178.24048-.14453.119-.28076.24792-.417.37671-.05469.05151-.11279.09668-.166.15-.05665.0564-.1045.11792-.1587.17554-.12548.13281-.251.26538-.36718.40649-.09131.11072-.17139.22718-.25537.34156-.07032.0957-.14454.188-.21094.28686-.085.12659-.15918.25782-.23584.38806-.05567.09436-.11524.18616-.167.28309-.06934.12915-.12842.26184-.19.39379-.04931.10547-.102.20874-.147.31665-.05224.12647-.09521.25562-.14062.38428-.042.11817-.08741.2345-.124.35523-.03906.1289-.06787.25976-.10058.39013-.03076.123-.06543.24414-.09033.36939-.02979.15137-.04834.30444-.06934.457-.01465.106-.03516.21-.0459.31714q-.03955.39769-.04.79712V88a8,8,0,0,0,16,0V67.31445l24.28516,24.28516a39.731,39.731,0,0,1,11.71582,28.28125l.00146,33.02637a35.99994,35.99994,0,1,0,16-.00025ZM196.00244,208a20,20,0,1,1,20-20A20.02229,20.02229,0,0,1,196.00244,208Zm-77.56152,4.73364c.07031-.0957.14453-.188.21094-.28686.085-.12659.15918-.25782.23584-.38806.05566-.09436.11523-.18616.167-.28309.06933-.12915.12842-.26184.18994-.39379.04932-.10547.10205-.20874.147-.31665.05225-.12647.09522-.25562.14063-.38428.042-.11817.0874-.2345.124-.35523.03906-.1289.06787-.25976.10059-.39013.03076-.12305.06543-.24414.09033-.36939.02978-.15137.04834-.30444.06933-.457.01465-.106.03516-.21.0459-.31714q.03956-.39769.04-.79712V168a8,8,0,0,0-16,0v20.68555L79.71729,164.40039a39.73579,39.73579,0,0,1-11.71583-28.28125L68,103.09277a35.99994,35.99994,0,1,0-16,.00025l.00146,33.0271a55.63733,55.63733,0,0,0,16.40137,39.59472L92.688,200H72.00244a8,8,0,1,0,0,16h40c.26367,0,.52735-.014.78955-.03992.11817-.01159.23242-.03369.34912-.05041.1416-.02027.28418-.03687.42481-.0647.13281-.02637.26123-.06274.3916-.0957.123-.03076.24658-.05786.36816-.09473.12647-.03833.24854-.08569.37207-.13.12305-.04395.24659-.0846.36768-.13465.11328-.047.22168-.10217.332-.15405.127-.05957.2544-.116.37842-.18237.10205-.05481.19922-.11731.29834-.17627.12549-.07422.25146-.14527.37353-.22681.10352-.06946.20069-.14722.30079-.22119.10986-.0813.22167-.158.32812-.24561.144-.11792.27881-.246.41406-.37353.05518-.05249.11475-.09851.169-.15283.05664-.0564.10449-.11792.15869-.17554.12549-.13281.251-.26538.36719-.40649C118.27686,212.96448,118.35693,212.848,118.44092,212.73364ZM39.99951,68a20,20,0,1,1,20,20A20.02229,20.02229,0,0,1,39.99951,68Z"/>
</svg>
