<svg id="Flat" xmlns="http://www.w3.org/2000/svg" viewBox="0 0 256 256">
  <path d="M223.99951,67.99756a36,36,0,1,0-44,35.09289v.9076a16.01844,16.01844,0,0,1-15.999,16l-72.001.00146a31.80291,31.80291,0,0,0-16,4.29492v-21.204a36,36,0,1,0-16,0V152.9071a36,36,0,1,0,16,0v-.90759a16.01865,16.01865,0,0,1,16-16l72.001-.00146a32.03646,32.03646,0,0,0,31.999-32v-.9076A36.05514,36.05514,0,0,0,223.99951,67.99756Zm-176,0a20,20,0,1,1,20,20A20.0226,20.0226,0,0,1,47.99951,67.99756ZM87.99951,188a20,20,0,1,1-20-20A20.0226,20.0226,0,0,1,87.99951,188Zm100-100.00244a20,20,0,1,1,20-20A20.0226,20.0226,0,0,1,187.99951,87.99756Z"/>
</svg>
