<svg id="Flat" xmlns="http://www.w3.org/2000/svg" viewBox="0 0 256 256">
  <path d="M188.00244,104A36.04765,36.04765,0,0,0,152.23,136H130.48193a39.89638,39.89638,0,0,1-30.72949-14.39258L82.521,100.93005a35.99423,35.99423,0,1,0-22.52149,2.16285v49.8142a36,36,0,1,0,16,0V118.09668l11.46192,13.75293A55.84984,55.84984,0,0,0,130.48193,152h23.585a35.99769,35.99769,0,1,0,33.93555-48ZM47.99951,68a20,20,0,1,1,20,20A20.02229,20.02229,0,0,1,47.99951,68Zm40,120a20,20,0,1,1-20-20A20.02229,20.02229,0,0,1,87.99951,188Zm100.00293-28a20,20,0,1,1,20-20A20.02229,20.02229,0,0,1,188.00244,160Z"/>
</svg>
