<svg id="Flat" xmlns="http://www.w3.org/2000/svg" viewBox="0 0 256 256">
  <path d="M216,208a16.01833,16.01833,0,0,1-16-16v-8a31.99566,31.99566,0,0,0-14.78076-26.95093A55.95047,55.95047,0,0,0,208,112v-8a55.67143,55.67143,0,0,0-7.68945-28.33789A59.73846,59.73846,0,0,0,194.92822,28,7.99908,7.99908,0,0,0,188,24a59.7461,59.7461,0,0,0-48.00684,24l-23.98632-.001A59.74932,59.74932,0,0,0,68,24a7.99908,7.99908,0,0,0-6.92822,4,59.73846,59.73846,0,0,0-5.38233,47.66211A55.67143,55.67143,0,0,0,48,104v8a55.95047,55.95047,0,0,0,22.78076,45.04907A31.99566,31.99566,0,0,0,56,184v8a16.01833,16.01833,0,0,1-16,16,8,8,0,0,0,0,16,32.03635,32.03635,0,0,0,32-32v-8a16.01833,16.01833,0,0,1,16-16h12v40a16.01833,16.01833,0,0,1-16,16,8,8,0,0,0,0,16,32.03635,32.03635,0,0,0,32-32V168h24v40a32.03635,32.03635,0,0,0,32,32,8,8,0,0,0,0-16,16.01833,16.01833,0,0,1-16-16V168h12a16.01833,16.01833,0,0,1,16,16v8a32.03635,32.03635,0,0,0,32,32,8,8,0,0,0,0-16ZM64,112v-8a39.75444,39.75444,0,0,1,7.08838-22.74121,7.99932,7.99932,0,0,0,.88965-7.42773A43.82575,43.82575,0,0,1,72.7666,40.2549a43.84256,43.84256,0,0,1,32.3208,20.0586A8.00019,8.00019,0,0,0,111.8252,64l32.35058-.001a7.99975,7.99975,0,0,0,6.73682-3.68652A43.84141,43.84141,0,0,1,183.2334,40.2549a43.82575,43.82575,0,0,1,.78857,33.57618,7.998,7.998,0,0,0,.89014,7.42773A39.75761,39.75761,0,0,1,192,104v8a40.04551,40.04551,0,0,1-40,40H104A40.04551,40.04551,0,0,1,64,112Z"/>
</svg>
