<svg id="Flat" xmlns="http://www.w3.org/2000/svg" viewBox="0 0 256 256">
  <path d="M216,216a16.01833,16.01833,0,0,1-16-16v-8a31.99566,31.99566,0,0,0-14.78076-26.95093A55.95047,55.95047,0,0,0,208,120v-8a58.04389,58.04389,0,0,0-7.69482-28.32031A59.73749,59.73749,0,0,0,194.92822,36,7.99908,7.99908,0,0,0,188,32a59.74792,59.74792,0,0,0-48.00781,24l-23.98487-.001A59.74952,59.74952,0,0,0,68,32a7.99908,7.99908,0,0,0-6.92822,4,59.73749,59.73749,0,0,0-5.377,47.67969A58.04389,58.04389,0,0,0,48,112v8a55.95047,55.95047,0,0,0,22.78076,45.04907A31.99566,31.99566,0,0,0,56,192v8a16.01833,16.01833,0,0,1-16,16,8,8,0,0,0,0,16,32.03635,32.03635,0,0,0,32-32v-8a16.01833,16.01833,0,0,1,16-16h12v40a16.01833,16.01833,0,0,1-16,16,8,8,0,0,0,0,16,32.03635,32.03635,0,0,0,32-32V176h24v40a32.03635,32.03635,0,0,0,32,32,8,8,0,0,0,0-16,16.01833,16.01833,0,0,1-16-16V176h12a16.01833,16.01833,0,0,1,16,16v8a32.03635,32.03635,0,0,0,32,32,8,8,0,0,0,0-16ZM64,120v-8A41.77977,41.77977,0,0,1,70.90088,89.5176,8.00077,8.00077,0,0,0,71.978,81.8301a43.8234,43.8234,0,0,1,.78857-33.5752,43.84053,43.84053,0,0,1,32.3208,20.05762,8.00059,8.00059,0,0,0,6.73731,3.68652L144.17432,72h.00048a8.00058,8.00058,0,0,0,6.73731-3.68652A43.84171,43.84171,0,0,1,183.2334,48.2549a43.8234,43.8234,0,0,1,.78857,33.5752,8.08434,8.08434,0,0,0,1.04932,7.65039A41.76234,41.76234,0,0,1,192,112v8a40.04551,40.04551,0,0,1-40,40H104A40.04551,40.04551,0,0,1,64,120Z"/>
</svg>
