<svg id="Flat" xmlns="http://www.w3.org/2000/svg" viewBox="0 0 256 256">
  <path d="M223.48877,169.18506a8.001,8.001,0,0,0,.50244-1.17383A103.91909,103.91909,0,0,0,187.80908,42.9668a7.96808,7.96808,0,0,0-1.20019-.83252A103.94583,103.94583,0,0,0,42.62158,187.312c.04053.07129.07324.145.11572.21533a8.0037,8.0037,0,0,0,.80616,1.08985,103.8477,103.8477,0,0,0,147.71435,21.87207,7.9946,7.9946,0,0,0,1.4292-1.11621A104.56858,104.56858,0,0,0,223.48877,169.18506ZM187.4917,192.7832l-5.49365-5.50488a16.02557,16.02557,0,0,0-7.26416-4.17383l-21.4585-5.63086,2.38477-16.19531,30.45068-12.65723L206.6626,167.417A88.50751,88.50751,0,0,1,187.4917,192.7832ZM128,40a87.47022,87.47022,0,0,1,46.88379,13.5625l.97168,20.21582L153.69824,99.37891l-31.48,4.26367L102.561,89.40039a16.00064,16.00064,0,0,0-22.87452,4.35254L59.84424,124.84961a15.98409,15.98409,0,0,0-2.51172,8.5166l-.20264,36.12988-5.00927,3.02344A87.96179,87.96179,0,0,1,128,40ZM61.48389,185.55664l3.91552-2.36328a16.09961,16.09961,0,0,0,7.73-13.6084L73.332,133.457,93.1748,102.3584l19.65625,14.24121a15.95176,15.95176,0,0,0,11.53418,2.89844l31.48145-4.26367a15.99269,15.99269,0,0,0,9.94971-5.38477L187.95312,84.25a15.93137,15.93137,0,0,0,3.88379-11.23926l-.27929-5.813a87.914,87.914,0,0,1,21.28271,84.187l-15.93115-14.57032a16.05517,16.05517,0,0,0-16.93945-2.96777L149.519,146.50391a16.07846,16.07846,0,0,0-9.688,12.44336l-2.38476,16.19628a15.98348,15.98348,0,0,0,11.76807,17.80665l21.45849,5.63085,3.98779,3.9961A87.85865,87.85865,0,0,1,61.48389,185.55664Z"/>
</svg>
