<svg id="Flat" xmlns="http://www.w3.org/2000/svg" viewBox="0 0 256 256">
  <path d="M223.77246,168.5376a7.93754,7.93754,0,0,0,.44336-1.07617,103.91093,103.91093,0,0,0-36.335-124.44532,8.03988,8.03988,0,0,0-1.35059-.93652,103.94613,103.94613,0,0,0-143.91015,145.23c.04052.07227.07422.147.11718.21875a7.99039,7.99039,0,0,0,.80811,1.09131,103.86011,103.86011,0,0,0,152.56934,17.90723,8.02049,8.02049,0,0,0,.96582-.811c.07568-.07568.14111-.15723.21289-.23535A104.47712,104.47712,0,0,0,223.77246,168.5376Zm-32.24219,20.29248-9.00537-9.02246a14.92179,14.92179,0,0,0-10.63672-4.41407H161.582l2.14356-14.55957,22.82617-11.9082L206.86035,167.019A88.40963,88.40963,0,0,1,191.53027,188.83008ZM128,40a87.48229,87.48229,0,0,1,47.43066,13.90527l3.33838,18.1084-19.1914,9.15918A15.041,15.041,0,0,0,151.105,96.28906L138.58105,88.208a15.0254,15.0254,0,0,0-21.208,5.19922l-3.68311,6.47754-.65088-1.77442a15.02212,15.02212,0,0,0-6.86621-7.99219l-7.19238-3.95507a14.97025,14.97025,0,0,0-16.67383,1.46777l-16.3584,13.19238a14.94021,14.94021,0,0,0-3.78222,4.54688L51.48,125.12891a15.08237,15.08237,0,0,0-1.56885,9.81933l6.34033,35.07715-4.13085,2.49414A87.96179,87.96179,0,0,1,128,40ZM61.48389,185.55664l3.61084-2.17969a15.10788,15.10788,0,0,0,7.02148-15.53613L65.7168,132.43848,76.147,113.15332l15.69434-12.65723,6.30176,3.46582,1.24853,3.4043a15.0249,15.0249,0,0,0,27.16846,2.25391l4.21289-7.40918,13.54785,8.74218a15.026,15.026,0,0,0,22.85889-15.67968l19.15527-9.1416a15.04446,15.04446,0,0,0,8.43018-15.39356,87.89524,87.89524,0,0,1,18.17724,80.27l-16.25049-14.477a15.10593,15.10593,0,0,0-16.94531-2.10254l-23.86084,12.44922a15.06675,15.06675,0,0,0-7.917,11.13379l-2.38037,16.168a15.02409,15.02409,0,0,0,14.86474,17.21386H171.4834l7.95019,7.96583a87.85424,87.85424,0,0,1-117.9497-13.80274Z"/>
</svg>
