<svg id="Flat" xmlns="http://www.w3.org/2000/svg" viewBox="0 0 256 256">
  <path d="M221.59766,173.31152a103.97888,103.97888,0,0,0-66.75293-145.792c-.18018-.05615-.36231-.10449-.5459-.14795A103.90816,103.90816,0,0,0,60.38135,49.0498a7.90811,7.90811,0,0,0-1.31983,1.15479A103.94968,103.94968,0,0,0,128,232c.73584,0,1.46875-.0127,2.20117-.02783.01807,0,.03613.00244.05371.00244.03516,0,.06885-.00391.10352-.0044a104.1298,104.1298,0,0,0,90.60547-57.38476l.01513-.022A8.05339,8.05339,0,0,0,221.59766,173.31152ZM216,128a87.57766,87.57766,0,0,1-5.53125,30.70654L164.06787,130.168a15.903,15.903,0,0,0-6.24316-2.22656l-22.81836-3.07618a16.11255,16.11255,0,0,0-15.32178,6.81446h-8.543l-3.80517-7.86133a15.896,15.896,0,0,0-11.03955-8.67188l-6.56739-1.41162,4.5791-10.8706H115.6543a16.02745,16.02745,0,0,0,7.73437-1.99414l12.24365-6.76074a16.09431,16.09431,0,0,0,2.99561-2.1377l26.91064-24.33789a15.90721,15.90721,0,0,0,4.4336-16.96289A88.076,88.076,0,0,1,216,128ZM147.18359,42.1123l7.623,13.6543L127.896,80.10449l-12.2417,6.75977H94.30859a15.96792,15.96792,0,0,0-14.74511,9.78906L74.32422,109.0918,63.376,79.87207l8.17138-19.32178a87.89623,87.89623,0,0,1,75.63623-18.438ZM40,128a87.46223,87.46223,0,0,1,9.46094-39.665L59.88428,116.1543a15.928,15.928,0,0,0,11.6206,10.02832l5.51319,1.18506.04443.00976,15.87256,3.41162,3.80517,7.86133a16.091,16.091,0,0,0,14.40186,9.0293H112.251l-7.69532,17.26758a15.98443,15.98443,0,0,0,2.86573,17.375l18.7998,20.334-2.56006,13.23584A88.10889,88.10889,0,0,1,40,128Zm100.09863,87.16455,1.83155-9.46924a16.05925,16.05925,0,0,0-3.96045-13.90039l-18.79981-20.334,12.772-28.65967.00538-.01123.92138-2.06738,22.81836,3.07519,47.79346,29.39551A88.16992,88.16992,0,0,1,140.09863,215.16455Z"/>
</svg>
