<svg id="Flat" xmlns="http://www.w3.org/2000/svg" viewBox="0 0 256 256">
  <path d="M251.76465,88.94141l-120-64a7.99984,7.99984,0,0,0-7.5293,0l-120,64a7.99956,7.99956,0,0,0,0,14.11718L28,115.73315v49.721a16.05975,16.05975,0,0,0,3.19434,9.59326C39.11914,185.59277,69.51953,220,128,220a128.69017,128.69017,0,0,0,52-10.45557V240a8,8,0,0,0,16,0V201.06665a110.42518,110.42518,0,0,0,28.80469-26.01831A16.05929,16.05929,0,0,0,228,165.4541v-49.721l23.76465-12.67456a7.99956,7.99956,0,0,0,0-14.11718ZM128,204c-51.06641,0-77.21582-29.51807-84-38.5459V124.26636l80.23535,42.79223a7.998,7.998,0,0,0,7.5293,0L180,141.333v50.51343C166.87305,198.66748,149.69287,204,128,204Zm84.01465-38.56494A89.67257,89.67257,0,0,1,196,181.53931V132.7998l16.00342-8.5354Zm4.20605-61.55274-.05713.03052L188,118.93359,131.76465,88.94141a7.99977,7.99977,0,0,0-7.5293,14.11718L171.00049,128,128,150.93359,39.83643,103.91284l-.05713-.03052L25,96,128,41.06641,231,96Z"/>
</svg>
