<svg id="Flat" xmlns="http://www.w3.org/2000/svg" viewBox="0 0 256 256">
  <path d="M238.96387,206.23242l-14.22168-128A15.98441,15.98441,0,0,0,208.83984,64h-33.519a47.99073,47.99073,0,0,0-94.6416,0h-33.519A15.98441,15.98441,0,0,0,31.25781,78.23242L17.03613,206.2334A16.00031,16.00031,0,0,0,32.93848,224h190.123a16.00047,16.00047,0,0,0,15.90235-17.76758ZM128,40a32.05773,32.05773,0,0,1,30.9873,24H97.0127A32.05773,32.05773,0,0,1,128,40ZM32.93848,208,47.16016,80H80v24a8,8,0,0,0,16,0V80h64v24a8,8,0,0,0,16,0V80h32.83984l14.22168,128Z"/>
</svg>
