<svg id="Flat" xmlns="http://www.w3.org/2000/svg" viewBox="0 0 256 256">
  <path d="M191.98242,68.68652a26.02851,26.02851,0,0,0-43.18359-2.79663L134.80566,41.65332a25.99,25.99,0,0,0-43.87988-1.81006A26.02036,26.02036,0,0,0,47.49951,63.33252a25.99658,25.99658,0,0,0-16.61572,38.3208L32.876,105.104a26.03157,26.03157,0,0,0-19.16993,38.79834l37,64.08594a80.00252,80.00252,0,0,0,144.2129-11.9707A79.98934,79.98934,0,0,0,208.9834,98.13184ZM107.28809,45.99316a10.01329,10.01329,0,0,1,13.66211,3.66016l21.34863,36.9773a26.15429,26.15429,0,0,0-13.21289,9.116L115.09277,71.50977a25.84084,25.84084,0,0,0-10.3789-9.97706l-1.085-1.8789v-.00049A10.01172,10.01172,0,0,1,107.28809,45.99316ZM68.1123,50.13672a10.01156,10.01156,0,0,1,13.66016,3.66016L85.125,59.60474A25.91367,25.91367,0,0,0,71.20508,69.71045a25.87255,25.87255,0,0,0-5.66846-4.03467l-1.08447-1.87793A10.01207,10.01207,0,0,1,68.1123,50.13672Zm83.876,173.27637a64.07413,64.07413,0,0,1-87.42676-23.42481l-36.999-64.085a10.00058,10.00058,0,0,1,17.32129-10.001l.001.00122,23.999,41.56812a8,8,0,0,0,13.85644-8l-38.001-65.81836a10.00034,10.00034,0,1,1,17.32129-10l38,65.81836a7.99959,7.99959,0,0,0,13.85547-8l-30-51.96143v-.00048a10.00033,10.00033,0,1,1,17.32128-10l42,72.74609a7.99959,7.99959,0,0,0,13.85547-8L141.09326,116.5437l-.00049-.00073a10.00034,10.00034,0,0,1,17.32129-10l17,29.44531a64.00108,64.00108,0,0,1-23.42578,87.42481Zm47.66016-63.03882a79.74689,79.74689,0,0,0-10.37793-32.386L172.26953,98.543A25.81873,25.81873,0,0,0,161.876,88.54028l-1.06983-1.853-.00049-.00074a9.99992,9.99992,0,1,1,17.32032-10l17,29.44532A64.27326,64.27326,0,0,1,199.64844,160.37427Zm-34.6709-135.72,4.1416-15.4541a8.00032,8.00032,0,0,1,15.45508,4.14257l-4.1416,15.45411a8.00032,8.00032,0,0,1-15.45508-4.14258ZM191.333,33.87891l9.17773-13.10645a7.99975,7.99975,0,1,1,13.10547,9.17774l-9.17773,13.10644A7.99975,7.99975,0,0,1,191.333,33.87891Zm43.89453,21.61035L222.12109,64.667a7.99975,7.99975,0,0,1-9.17773-13.10547l13.10644-9.17773a7.99975,7.99975,0,1,1,9.17774,13.10547Z"/>
</svg>
