<svg id="Flat" xmlns="http://www.w3.org/2000/svg" viewBox="0 0 256 256">
  <path d="M220.20312,103.98828l-19.999-34.64062a28.02682,28.02682,0,0,0-47.29834-1.92243l-17.34326-30.04a27.99212,27.99212,0,0,0-48.11328-.63549A28.003,28.003,0,0,0,44.4248,71.5293l7.35352,12.73663A27.99166,27.99166,0,0,0,29.7832,126.17041l38,65.81787a87.99976,87.99976,0,1,0,152.41992-88ZM213.54,166.62354A72.00058,72.00058,0,0,1,81.63867,183.98828l-37.999-65.81738a11.99994,11.99994,0,0,1,20.78418-12.00049l18,31.17725a8.07221,8.07221,0,0,0,.55469.82476c.05371.07129.11035.1388.166.20789q.23438.28958.49072.55237c.06055.06189.11914.1253.18116.18493a7.98411,7.98411,0,0,0,.72119.621l.02588.01782a8.02469,8.02469,0,0,0,.75976.49707c.07569.044.15235.08417.22949.12561q.31641.17083.646.31189c.07422.03168.14648.06555.22168.095a8.00988,8.00988,0,0,0,.88818.29559c.01953.00519.03955.00788.05909.01288a8.03416,8.03416,0,0,0,.85449.16712c.08545.01226.1709.021.25635.03051q.36034.04.7246.04682c.05274.001.1045.01019.15723.01019.02539,0,.05127-.00464.07666-.00488a7.95586,7.95586,0,0,0,.92969-.05969c.02588-.0033.05176-.01.07764-.01355a7.92362,7.92362,0,0,0,.83789-.16407c.09033-.02252.17968-.04937.26953-.07519q.33544-.09632.665-.2237c.08789-.03375.17529-.0653.2622-.10235a7.95876,7.95876,0,0,0,3.80127-11.358l-18-31.17774-.0039-.00647L58.28027,63.52881A12.00012,12.00012,0,0,1,79.06543,51.5293l7.9834,13.82818.01562.02826,26,45.03369a8,8,0,1,0,13.85645-8l-25.999-45.03369a12.00023,12.00023,0,1,1,20.78515-12l29.99756,51.95752.00244.0044,6.3291,10.96338a48.025,48.025,0,0,0-10.9707,60.998,7.99959,7.99959,0,1,0,13.85547-8,32.00043,32.00043,0,0,1,11.71387-43.71289,7.96868,7.96868,0,0,0,.66992-.43329c.18017-.12921.34961-.26849.51562-.41009.03174-.02692.06641-.05048.09766-.07788.19092-.16761.37109-.344.543-.52668l.01611-.01586q.25928-.27687.48779-.575l.01758-.02087c.14453-.1886.27783-.384.4043-.5835.01318-.021.02832-.0404.0415-.06152.11377-.18286.21533-.37158.31348-.5622.022-.04248.04736-.08258.06885-.12548.0874-.17847.16308-.36206.2373-.54621.02344-.05877.05225-.115.07471-.17444.08056-.215.14892-.43408.21094-.655.0083-.03028.0205-.059.0288-.08942.00782-.02966.01172-.05988.01954-.0896.05664-.22278.10742-.44714.145-.67419.01171-.06977.01513-.14.0249-.2099.02636-.18915.05224-.3783.06494-.56922.00391-.05823.00146-.11633.00391-.17456.00927-.20325.01611-.40661.00976-.61078-.00146-.03888-.00732-.07739-.00879-.11621-.01025-.2218-.02588-.44366-.05469-.66522-.00341-.02515-.00976-.04981-.01318-.07489-.03271-.23193-.07275-.46344-.126-.69373-.00683-.02783-.0166-.05481-.02294-.08252-.05469-.22387-.11573-.4469-.19043-.66772-.022-.06525-.05127-.12811-.0752-.19281-.06641-.18012-.13184-.36029-.21191-.53735a7.98085,7.98085,0,0,0-.36475-.7121l-10-17.3208a12.00012,12.00012,0,0,1,20.78516-11.99951l20,34.64062A71.53255,71.53255,0,0,1,213.54,166.62354ZM87.668,244.56152a7.999,7.999,0,0,1-11.13281,2.01563,118.949,118.949,0,0,1-35.46289-38.58643,7.99959,7.99959,0,1,1,13.85546-8,103.08083,103.08083,0,0,0,30.72461,33.438A8.00009,8.00009,0,0,1,87.668,244.56152ZM168,30.99268A8.00009,8.00009,0,0,1,176,23h.00781A60.21143,60.21143,0,0,1,227.9541,53.00439a8.00044,8.00044,0,1,1-13.85742,8A44.16357,44.16357,0,0,0,175.99219,39,8,8,0,0,1,168,30.99268Z"/>
</svg>
