<svg xmlns="http://www.w3.org/2000/svg" viewBox="0 0 256 256"><path d="M192,68.7a26,26,0,0,0-15.8-12.1,25.6,25.6,0,0,0-19.7,2.6,24.9,24.9,0,0,0-7.7,6.7l-14-24.2a26,26,0,0,0-35.5-9.6,27.1,27.1,0,0,0-8.4,7.7,25.2,25.2,0,0,0-11.1-6.1,25.6,25.6,0,0,0-19.7,2.6A26,26,0,0,0,48,52.1a25,25,0,0,0-.5,11.2,28.3,28.3,0,0,0-7.1,2.8,26.1,26.1,0,0,0-9.5,35.6l2,3.4a24.3,24.3,0,0,0-9.7,3.3,26,26,0,0,0-9.5,35.5l37,64.1A80.1,80.1,0,0,0,160,237.3,79,79,0,0,0,194.9,196,79.9,79.9,0,0,0,209,98.1ZM107.3,46A10,10,0,0,1,121,49.7l21.3,36.9a27,27,0,0,0-5.5,2.4,26.4,26.4,0,0,0-7.7,6.7l-14-24.2a25.6,25.6,0,0,0-10.4-10l-1.1-1.8h0A10.1,10.1,0,0,1,107.3,46ZM68.1,50.1a10.1,10.1,0,0,1,13.7,3.7l3.3,5.8A29.6,29.6,0,0,0,79.6,62a25,25,0,0,0-8.4,7.7,25.4,25.4,0,0,0-5.7-4l-1-1.9A10,10,0,0,1,68.1,50.1ZM152,223.4A64,64,0,0,1,64.6,200l-37-64.1a10,10,0,0,1,11.2-14.7,10.3,10.3,0,0,1,6.1,4.7h0l24,41.6a8.2,8.2,0,0,0,6.9,4,8,8,0,0,0,6.9-12l-38-65.8a10,10,0,0,1,17.4-10l38,65.8a8,8,0,1,0,13.8-8l-30-52h0a10.1,10.1,0,0,1,3.7-13.7,10,10,0,0,1,13.6,3.7l42,72.8a8.2,8.2,0,0,0,7,4,8.6,8.6,0,0,0,4-1.1,8,8,0,0,0,2.9-10.9l-16-27.8h0a9.9,9.9,0,0,1-1-7.5,9.6,9.6,0,0,1,4.7-6.1,9.4,9.4,0,0,1,7.5-1,9.8,9.8,0,0,1,6.1,4.6l17,29.5A63.9,63.9,0,0,1,152,223.4Zm47.6-63A78.9,78.9,0,0,0,189.3,128l-17-29.5a26.3,26.3,0,0,0-10.4-10l-1.1-1.8h0a10.1,10.1,0,0,1-1-7.6,10.3,10.3,0,0,1,4.7-6.1,9.9,9.9,0,0,1,13.6,3.7l17,29.4A64.1,64.1,0,0,1,199.6,160.4ZM165,24.7l4.1-15.5a8,8,0,1,1,15.5,4.1l-4.2,15.5a7.9,7.9,0,0,1-7.7,5.9l-2.1-.2A8,8,0,0,1,165,24.7Zm26.3,9.2,9.2-13.1a8.1,8.1,0,0,1,11.2-2A8,8,0,0,1,213.6,30l-9.2,13.1A7.9,7.9,0,0,1,193.3,45,8,8,0,0,1,191.3,33.9Zm43.9,21.6-13.1,9.2a8.6,8.6,0,0,1-4.6,1.4,8,8,0,0,1-4.6-14.5L226,42.4a8,8,0,0,1,11.2,1.9A8.1,8.1,0,0,1,235.2,55.5Z"/></svg>