<svg id="Flat" xmlns="http://www.w3.org/2000/svg" viewBox="0 0 256 256">
  <path d="M202.7207,62.1875a103.25674,103.25674,0,0,0-73.99316-30.18506q-.36768-.00219-.73535-.00244A104.00007,104.00007,0,0,0,24,136v56a24.0275,24.0275,0,0,0,24,24H64a24.0275,24.0275,0,0,0,24-24V152a24.0275,24.0275,0,0,0-24-24H40.35547A88.01928,88.01928,0,0,1,128.668,48.00244c.041.00049.07812.00049.11914,0A88.01738,88.01738,0,0,1,217.10059,128H193.45605a24.0275,24.0275,0,0,0-24,24v40a24.0275,24.0275,0,0,0,24,24h16a24.0275,24.0275,0,0,0,24-24V136A103.28343,103.28343,0,0,0,202.7207,62.1875ZM64,144a8.00917,8.00917,0,0,1,8,8v40a8.00917,8.00917,0,0,1-8,8H48a8.00917,8.00917,0,0,1-8-8V144Zm153.45605,48a8.00916,8.00916,0,0,1-8,8h-16a8.00917,8.00917,0,0,1-8-8V152a8.00917,8.00917,0,0,1,8-8h24Z"/>
</svg>
