<svg xmlns="http://www.w3.org/2000/svg" viewBox="0 0 256 256"><path d="M202.7,54.2a103.1,103.1,0,0,0-74-30.2H128A104,104,0,0,0,24,128v56a24.1,24.1,0,0,0,24,24H64a24.1,24.1,0,0,0,24-24V144a24.1,24.1,0,0,0-24-24H40.4a87.8,87.8,0,0,1,88.3-80h.1a88,88,0,0,1,88.3,80H193.5a24,24,0,0,0-24,24v40a24,24,0,0,0,24,24h16a23.6,23.6,0,0,0,8-1.4V208a24.1,24.1,0,0,1-24,24H136a8,8,0,0,0,0,16h57.5a40.1,40.1,0,0,0,40-40V128A103.5,103.5,0,0,0,202.7,54.2ZM64,136a8,8,0,0,1,8,8v40a8,8,0,0,1-8,8H48a8,8,0,0,1-8-8V136Zm145.5,56h-16a8,8,0,0,1-8-8V144a8,8,0,0,1,8-8h24v48A8,8,0,0,1,209.5,192Z"/></svg>