<svg id="Flat" xmlns="http://www.w3.org/2000/svg" viewBox="0 0 256 256">
  <path d="M160,80a8.00039,8.00039,0,0,1,8-8h72a8,8,0,0,1,0,16H168A8.00039,8.00039,0,0,1,160,80Zm80,88H168a8,8,0,0,0,0,16h72a8,8,0,0,0,0-16Zm0-64H168a8,8,0,0,0,0,16h72a8,8,0,0,0,0-16Zm0,32H168a8,8,0,0,0,0,16h72a8,8,0,0,0,0-16ZM144,64V192a16.01833,16.01833,0,0,1-16,16H88A79.99987,79.99987,0,0,1,8.00244,127.39453C8.32666,83.61621,44.61914,48,88.90381,48H128A16.01833,16.01833,0,0,1,144,64Zm-16,0H88.90381C53.37646,64,24.26123,92.49219,24.002,127.51367A63.99942,63.99942,0,0,0,88,192h40Z"/>
</svg>
