<svg id="Flat" xmlns="http://www.w3.org/2000/svg" viewBox="0 0 256 256">
  <path d="M72,136H32a8,8,0,0,1,0-16H67.71875l13.625-20.4375a7.99959,7.99959,0,0,1,13.3125,0L120,137.57764l9.34375-14.01514A7.99943,7.99943,0,0,1,136,120h24a8,8,0,0,1,0,16H140.28125l-13.625,20.4375a7.99959,7.99959,0,0,1-13.3125,0L88,118.42236,78.65625,132.4375A7.99943,7.99943,0,0,1,72,136ZM176,32a59.85646,59.85646,0,0,0-48,23.95947A60.02029,60.02029,0,0,0,20,92c0,1.47266.043,2.96973.12744,4.44922a7.99981,7.99981,0,1,0,15.97363-.91162C36.03418,94.36035,36,93.16992,36,92a44.00846,44.00846,0,0,1,84.61816-16.9502,8.0005,8.0005,0,0,0,14.76319,0A44.00875,44.00875,0,0,1,220,92c0,55.166-74.001,103.71143-92.00342,114.70068-10.58008-6.44726-40.47021-25.82959-63.31592-51.96484a8,8,0,0,0-12.04638,10.53027c29.9624,34.27588,69.77685,56.773,71.457,57.71387a7.999,7.999,0,0,0,7.81738,0,317.2846,317.2846,0,0,0,51.44287-37.53369C218.28662,154.00488,236,122.56494,236,92A60.06812,60.06812,0,0,0,176,32Z"/>
</svg>
