<svg id="Flat" xmlns="http://www.w3.org/2000/svg" viewBox="0 0 256 256">
  <path d="M128,222.21729a15.94945,15.94945,0,0,1-11.31348-4.67762L33.57324,134.42639a60.00294,60.00294,0,0,1,2.333-87.06628,58.04888,58.04888,0,0,1,43.0498-14.56726,64.723,64.723,0,0,1,41.55079,18.8612L128,59.14722l9.57324-9.57361a60.00376,60.00376,0,0,1,87.06738,2.33288A58.02943,58.02943,0,0,1,239.207,94.9563,64.72048,64.72048,0,0,1,220.34668,136.507l-81.03223,81.03222-.001.00074A15.95446,15.95446,0,0,1,128,222.21729ZM74.98828,48.72351A42.10426,42.10426,0,0,0,46.61328,59.25a44.0006,44.0006,0,0,0-1.72558,63.86255l88.76953,88.76977L128,206.22546l81.03223-81.03222c17.42871-17.42859,19.09668-45.50208,3.71777-62.5802a44.00227,44.00227,0,0,0-63.8623-1.72571L133.65723,76.11768a8.001,8.001,0,0,1-11.31446.00012L109.19238,62.9679A48.59669,48.59669,0,0,0,74.98828,48.72351Z"/>
</svg>
