<svg id="Flat" xmlns="http://www.w3.org/2000/svg" viewBox="0 0 256 256">
  <path d="M128,224a7.99773,7.99773,0,0,1-3.90918-1.0199C119.84082,220.6,20,163.86267,20,92A60.02038,60.02038,0,0,1,128,55.95929,60.02038,60.02038,0,0,1,236,92c0,30.56506-17.71387,62.005-52.64844,93.44641a317.36622,317.36622,0,0,1-51.44238,37.53369A7.99773,7.99773,0,0,1,128,224Zm-3.90918-14.9801v0ZM80,48A44.04982,44.04982,0,0,0,36,92c0,55.24493,73.98047,103.71875,91.99707,114.70068C146.00781,195.70569,220,147.16217,220,92a44.00852,44.00852,0,0,0-84.61816-16.95044,8.00056,8.00056,0,0,1-14.76368,0A43.91232,43.91232,0,0,0,80,48Z"/>
</svg>
