<svg xmlns="http://www.w3.org/2000/svg" viewBox="0 0 256 256"><path d="M128,222.2a15.6,15.6,0,0,1-11.3-4.7L33.6,134.4a59.9,59.9,0,0,1,2.3-87A57.7,57.7,0,0,1,79,32.8a64.3,64.3,0,0,1,41.5,18.9l7.5,7.4,9.6-9.5a59.9,59.9,0,0,1,87,2.3A57.7,57.7,0,0,1,239.2,95a64.3,64.3,0,0,1-18.9,41.5l-81,81h0A15.6,15.6,0,0,1,128,222.2ZM75,48.7A42.5,42.5,0,0,0,46.6,59.2a44,44,0,0,0-1.7,63.9l88.8,88.8-5.7-5.7,81-81c17.5-17.4,19.1-45.5,3.8-62.6a44,44,0,0,0-63.9-1.7L133.7,76.1a8.1,8.1,0,0,1-11.4,0L109.2,63A48.4,48.4,0,0,0,75,48.7Z"/></svg>