<svg id="Flat" xmlns="http://www.w3.org/2000/svg" viewBox="0 0 256 256">
  <path d="M128,238.79834a16.00509,16.00509,0,0,1-7.87286-2.05859L36.12708,189.26147A16.02558,16.02558,0,0,1,28,175.33228V80.66772a16.02539,16.02539,0,0,1,8.12665-13.92895l84.00043-47.47852a16.08531,16.08531,0,0,1,15.74578,0L219.8728,66.73853A16.02557,16.02557,0,0,1,228,80.66772v94.66456a16.02531,16.02531,0,0,1-8.12683,13.929l-84.00025,47.47852A16.00548,16.00548,0,0,1,128,238.79834Zm0-205.60889L44,80.66772v94.66456l84,47.47827,84-47.47827V80.66772Z"/>
</svg>
