<svg xmlns="http://www.w3.org/2000/svg" viewBox="0 0 256 256"><path d="M136,100a12,12,0,1,1-12-12A12,12,0,0,1,136,100Zm96,29.5A104.4,104.4,0,0,1,130.1,232H128a103.5,103.5,0,0,1-69.3-26.5,8,8,0,0,1-.7-11.3,8,8,0,0,1,11.3-.6A91.1,91.1,0,0,0,90,207.4l26.2-36.6c-23-10.4-47.9-8.5-61.6-6.2a31.6,31.6,0,0,1-31.3-12.8L9.5,132.7a7.8,7.8,0,0,1-1.3-6.3,8,8,0,0,1,3.6-5.2L112,59.5V32a8,8,0,0,1,8-8h8A104,104,0,0,1,232,129.5Zm-16-.2A87.9,87.9,0,0,0,128,40V64a7.8,7.8,0,0,1-3.8,6.8L27.5,130.3l8.8,12.1A15.8,15.8,0,0,0,52,148.8c16.9-2.8,49.3-5.1,78,11.1A39.9,39.9,0,0,0,168,120a8,8,0,0,1,16,0,56.1,56.1,0,0,1-51.8,55.8l-26.6,37.3a88.7,88.7,0,0,0,24.2,2.9A88.3,88.3,0,0,0,216,129.3Z"/></svg>