<svg id="Flat" xmlns="http://www.w3.org/2000/svg" viewBox="0 0 256 256">
  <path d="M135.99976,100a12,12,0,1,1-12-12A12,12,0,0,1,135.99976,100Zm95.9895,29.47852a104.29564,104.29564,0,0,1-101.88867,102.501Q129.05615,232,128.0127,232a103.66141,103.66141,0,0,1-69.34864-26.48389,8.00031,8.00031,0,0,1,10.67188-11.92187,87.94423,87.94423,0,0,0,20.68652,13.81055l26.13867-36.59473c-22.93261-10.42285-47.874-8.50147-61.52441-6.19092A31.83366,31.83366,0,0,1,23.29883,151.7959L9.51172,132.67969a8.00037,8.00037,0,0,1,2.2959-11.49317L112,59.52979V32a8.00008,8.00008,0,0,1,8-8h8A103.99863,103.99863,0,0,1,231.98926,129.47852Zm-15.99805-.22266A88.00025,88.00025,0,0,0,128,40V64a8,8,0,0,1-3.80762,6.81348L27.52344,130.30176l8.752,12.13476a15.93519,15.93519,0,0,0,15.69141,6.40723c16.97033-2.87256,49.33-5.13574,78.08209,11.10449A40.05078,40.05078,0,0,0,168,120a8,8,0,0,1,16,0,56.06184,56.06184,0,0,1-51.75677,55.82275l-26.63971,37.29541a88.41333,88.41333,0,0,0,24.18066,2.86426,88.29567,88.29567,0,0,0,86.207-86.72656Z"/>
</svg>
