<svg id="Flat" xmlns="http://www.w3.org/2000/svg" viewBox="0 0 256 256">
  <path d="M200,75.64111V40a16.01833,16.01833,0,0,0-16-16H72A16.01833,16.01833,0,0,0,56,40V76a16.07482,16.07482,0,0,0,6.3999,12.7998L114.667,128l-52.2666,39.2002A16.07388,16.07388,0,0,0,56,180v36a16.01833,16.01833,0,0,0,16,16H184a16.01833,16.01833,0,0,0,16-16V180.35889a16.08618,16.08618,0,0,0-6.35156-12.76416L141.2666,128l52.38184-39.59521A16.08457,16.08457,0,0,0,200,75.64111ZM184,216H72V180l55.981-41.98584L184,180.35889Zm0-140.3584-56.019,42.34424L72,76V40H184Z"/>
</svg>
