<svg id="Flat" xmlns="http://www.w3.org/2000/svg" viewBox="0 0 256 256">
  <path d="M200,75.64111V40a16.01833,16.01833,0,0,0-16-16H72A16.01833,16.01833,0,0,0,56,40V76a16.07553,16.07553,0,0,0,6.3999,12.7998L114.667,128l-52.2666,39.19971a16.06184,16.06184,0,0,0-6.34668,11.896A8.08815,8.08815,0,0,0,56,179.97754l.00049.012L56,180v36a16.01833,16.01833,0,0,0,16,16H184a16.01833,16.01833,0,0,0,16-16V180.35889c0-.03125-.00537-.062-.00537-.09327-.00342-.26708-.01807-.531-.04688-.79125a16.07046,16.07046,0,0,0-6.29931-11.87916L141.2666,128l52.38184-39.59521A16.08492,16.08492,0,0,0,200,75.64111Zm-26.65283,96.66553-90.75-.25464L127.981,138.01416ZM72,216V188.02246l112,.314V216ZM184,75.64136l-56.019,42.34448L72,76V40H184Z"/>
</svg>
