<svg id="Flat" xmlns="http://www.w3.org/2000/svg" viewBox="0 0 256 256">
  <path d="M200,112a7.99977,7.99977,0,0,1-8,8H152a8,8,0,0,1,0-16h40A7.99977,7.99977,0,0,1,200,112Zm-8,24H152a8,8,0,0,0,0,16h40a8,8,0,0,0,0-16Zm-61.16064,30.00293a8.0002,8.0002,0,1,1-15.49512,3.98926,24.01011,24.01011,0,0,0-46.48779.00146,8.00008,8.00008,0,1,1-15.49512-3.98828,39.89567,39.89567,0,0,1,16.36035-23.16162,32,32,0,1,1,44.75781,0A39.897,39.897,0,0,1,130.83936,166.00293ZM92.10059,136a16,16,0,1,0-16-16A16.01833,16.01833,0,0,0,92.10059,136ZM232,56V200a16.01833,16.01833,0,0,1-16,16H40a16.01833,16.01833,0,0,1-16-16V56A16.01833,16.01833,0,0,1,40,40H216A16.01833,16.01833,0,0,1,232,56ZM216.01025,199.99951,216,56H40V200H216Z"/>
</svg>
