<svg xmlns="http://www.w3.org/2000/svg" viewBox="0 0 256 256"><path d="M200,112a8,8,0,0,1-8,8H152a8,8,0,0,1,0-16h40A8,8,0,0,1,200,112Zm-8,24H152a8,8,0,0,0,0,16h40a8,8,0,0,0,0-16Zm-61.2,30a7.9,7.9,0,0,1-5.7,9.7,8,8,0,0,1-9.8-5.7,24,24,0,0,0-46.4,0,8.1,8.1,0,0,1-7.8,6l-2-.3a7.9,7.9,0,0,1-5.7-9.7,40.2,40.2,0,0,1,16.3-23.2,32,32,0,1,1,44.8,0A40.2,40.2,0,0,1,130.8,166ZM92.1,136a16,16,0,1,0-16-16A16,16,0,0,0,92.1,136ZM232,56V200a16,16,0,0,1-16,16H40a16,16,0,0,1-16-16V56A16,16,0,0,1,40,40H216A16,16,0,0,1,232,56ZM216,200V56H40V200Z"/></svg>