<svg id="Flat" xmlns="http://www.w3.org/2000/svg" viewBox="0 0 256 256">
  <path d="M223.99951,159.99451V47.99963a16.01833,16.01833,0,0,0-16-16h-160a16.01834,16.01834,0,0,0-16,16v160a16.01833,16.01833,0,0,0,16,16h160a16.01833,16.01833,0,0,0,16-16V159.99451Zm-16-111.99488.00635,92.69178L179.314,111.99963a16.019,16.019,0,0,0-22.62792,0l-44.68555,44.68653L91.314,135.99963a16.02161,16.02161,0,0,0-22.62792,0L47.99951,156.68555V47.99963Zm0,160h-160V179.31409l32-32L100.686,168.00061a16.019,16.019,0,0,0,22.62792,0l44.68555-44.68652,40.00781,40.00775.00293,44.67779ZM91.51416,100.485a12.00033,12.00033,0,1,1,20.48633-8.48535v.00391A12.00079,12.00079,0,0,1,91.51416,100.485Z"/>
</svg>
