<svg id="Flat" xmlns="http://www.w3.org/2000/svg" viewBox="0 0 256 256">
  <path d="M87.99951,92a12,12,0,1,1,12,12A12,12,0,0,1,87.99951,92Zm136,68.00476v47.99487a16.01833,16.01833,0,0,1-16,16h-160a16.01833,16.01833,0,0,1-16-16v-160a16.01834,16.01834,0,0,1,16-16h160a16.01833,16.01833,0,0,1,16,16V160.00476Zm-176-112.00513V156.68555L68.686,135.99963a16.02161,16.02161,0,0,1,22.62792,0l20.68653,20.68653L156.686,111.99963a16.019,16.019,0,0,1,22.62792,0l28.6919,28.69178-.00635-92.69178Zm160.01074,160-.00293-44.67779-40.00781-40.00775L123.314,168.00061a16.019,16.019,0,0,1-22.62792,0L79.99951,147.31409l-32,32v28.68554H208.01025Z"/>
</svg>
