<svg id="Flat" xmlns="http://www.w3.org/2000/svg" viewBox="0 0 256 256">
  <path d="M143.99951,100a12,12,0,1,1,12,12A12,12,0,0,1,143.99951,100Zm88,84.00439v15.99524a16.01833,16.01833,0,0,1-16,16h-176a16.01833,16.01833,0,0,1-16-16V56.00012a16.01834,16.01834,0,0,1,16-16h176a16.01833,16.01833,0,0,1,16,16V184.00439Zm-192-128.00427v92.6853l42.34278-42.342a8.00121,8.00121,0,0,1,11.31445,0l50.34277,50.34278,26.34278-26.34278a8.00121,8.00121,0,0,1,11.31445,0l34.35107,34.35016-.0083-108.69342ZM216.01025,199.99963l-.001-12.67578L175.99951,147.3136l-26.34277,26.34326a8.00209,8.00209,0,0,1-11.31445,0L87.99951,123.3136l-48,48.00049v28.68554H216.01025Z"/>
</svg>
