<svg id="Flat" xmlns="http://www.w3.org/2000/svg" viewBox="0 0 256 256">
  <path d="M127.99951,23.99963a104,104,0,1,0,104,104A104.11791,104.11791,0,0,0,127.99951,23.99963Zm0,192a88,88,0,1,1,88-88A88.09957,88.09957,0,0,1,127.99951,215.99963Zm16-40a8.00039,8.00039,0,0,1-8,8h-8a8.00039,8.00039,0,0,1-8-8v-48a8,8,0,0,1,0-16h8a8.00039,8.00039,0,0,1,8,8v48A8.00039,8.00039,0,0,1,143.99951,175.99963ZM119.51416,92.485a12.00033,12.00033,0,1,1,20.48633-8.48535v.00391A12.00079,12.00079,0,0,1,119.51416,92.485Z"/>
</svg>
