<svg id="Flat" xmlns="http://www.w3.org/2000/svg" viewBox="0 0 256 256">
  <path d="M128,80a48,48,0,1,0,48,48A48.05436,48.05436,0,0,0,128,80Zm0,80a32,32,0,1,1,32-32A32.03635,32.03635,0,0,1,128,160ZM172,28H84A56.06353,56.06353,0,0,0,28,84v88a56.06353,56.06353,0,0,0,56,56h88a56.06353,56.06353,0,0,0,56-56V84A56.06353,56.06353,0,0,0,172,28Zm40,144a40.04521,40.04521,0,0,1-40,40H84a40.04521,40.04521,0,0,1-40-40V84A40.04521,40.04521,0,0,1,84,44h88a40.04521,40.04521,0,0,1,40,40ZM192,76a12,12,0,1,1-12-12A12,12,0,0,1,192,76Z"/>
</svg>
