<svg xmlns="http://www.w3.org/2000/svg" viewBox="0 0 256 256"><path d="M174.6,81.4a80,80,0,1,0-93.2,93.2,80,80,0,1,0,93.2-93.2Zm-40.2,65.7-25.5-25.5a63.7,63.7,0,0,1,12.7-12.7l25.5,25.5A63.7,63.7,0,0,1,134.4,147.1ZM100.7,136,120,155.3A63.8,63.8,0,0,1,96,160,63.8,63.8,0,0,1,100.7,136Zm54.6-16L136,100.7A63.8,63.8,0,0,1,160,96,63.8,63.8,0,0,1,155.3,120ZM32,96A64,64,0,0,1,158,80.1a79.8,79.8,0,0,0-39,11.2,6,6,0,0,0-1.3.9,79.3,79.3,0,0,0-25.5,25.4,11,11,0,0,0-.9,1.4,79.8,79.8,0,0,0-11.2,39A64.2,64.2,0,0,1,32,96ZM160,224a64.2,64.2,0,0,1-62-48.1,79.8,79.8,0,0,0,39-11.2,6,6,0,0,0,1.3-.9,79.3,79.3,0,0,0,25.5-25.4,11,11,0,0,0,.9-1.4,79.8,79.8,0,0,0,11.2-39A64,64,0,0,1,160,224Z"/></svg>