<svg id="Flat" xmlns="http://www.w3.org/2000/svg" viewBox="0 0 256.00098 256.00098">
  <path d="M174.63464,81.36523a79.99162,79.99162,0,1,0-93.26928,93.26954,79.99162,79.99162,0,1,0,93.26928-93.26954Zm-40.19012,65.76465-25.57471-25.57422a64.54187,64.54187,0,0,1,12.68555-12.68554l25.57471,25.57422A64.52888,64.52888,0,0,1,134.44452,147.12988ZM100.6864,136.00049l19.31317,19.313A63.63139,63.63139,0,0,1,96,160,63.63473,63.63473,0,0,1,100.6864,136.00049Zm54.62714-16.001-19.3133-19.313A63.63237,63.63237,0,0,1,160,96,63.63476,63.63476,0,0,1,155.31354,119.99951ZM32,96A64.00389,64.00389,0,0,1,157.98785,80.05127a79.46474,79.46474,0,0,0-38.98248,11.28418,7.952,7.952,0,0,0-1.33588.82666,80.60555,80.60555,0,0,0-25.491,25.48242,7.91651,7.91651,0,0,0-.85431,1.38037,79.46942,79.46942,0,0,0-11.27307,38.96289A64.11446,64.11446,0,0,1,32,96ZM160,224a64.11433,64.11433,0,0,1-61.98785-48.05127A79.46516,79.46516,0,0,0,136.992,164.666a7.90706,7.90706,0,0,0,1.34125-.83008,80.60246,80.60246,0,0,0,25.487-25.47852,7.92481,7.92481,0,0,0,.8562-1.3833,79.46861,79.46861,0,0,0,11.27246-38.96191A64.00388,64.00388,0,0,1,160,224Z"/>
</svg>
