<svg xmlns="http://www.w3.org/2000/svg" viewBox="0 0 256 256"><path d="M240,88H226.9l-6-42.3A16,16,0,0,0,205.1,32H50.9A16,16,0,0,0,35.1,45.7L29.1,88H16a8,8,0,0,0,0,16H28V208a16,16,0,0,0,16,16H68a16,16,0,0,0,16-16V184h88v24a16,16,0,0,0,16,16h24a16,16,0,0,0,16-16V104h12a8,8,0,0,0,0-16ZM50.9,48H205.1l5.7,40H45.2ZM68,208H44V184H68Zm120,0V184h24v24Zm24-40H152V128a8,8,0,0,0-16,0v40H120V128a8,8,0,0,0-16,0v40H44V104H212ZM60,132a12,12,0,1,1,12,12A12,12,0,0,1,60,132Zm112,0a12,12,0,1,1,12,12A12,12,0,0,1,172,132Z"/></svg>