<svg id="Flat" xmlns="http://www.w3.org/2000/svg" viewBox="0 0 256 256">
  <path d="M240,88H226.93854l-6.03815-42.26465A16.07879,16.07879,0,0,0,205.06152,32H50.93848A16.08053,16.08053,0,0,0,35.09863,45.7373L29.06134,88H16a8,8,0,0,0,0,16H28V208a16.01833,16.01833,0,0,0,16,16H68a16.01833,16.01833,0,0,0,16-16V184h88v24a16.01833,16.01833,0,0,0,16,16h24a16.01833,16.01833,0,0,0,16-16V104h12a8,8,0,0,0,0-16ZM50.93848,48l154.123-.001L210.77594,88H45.22406ZM68,208H44V184H68Zm120,0V184h24v24Zm24-40H152V128a8,8,0,0,0-16,0v40H120V128a8,8,0,0,0-16,0v40H44V104H212ZM60,132a12,12,0,1,1,12,12A12,12,0,0,1,60,132Zm112,0a12,12,0,1,1,12,12A12,12,0,0,1,172,132Z"/>
</svg>
