<svg id="Flat" xmlns="http://www.w3.org/2000/svg" viewBox="0 0 256 256">
  <path d="M160,16A80.05817,80.05817,0,0,0,83.91113,120.77539L26.34277,178.34277A8.00235,8.00235,0,0,0,24,184v40a8.00039,8.00039,0,0,0,8,8H72a8.00039,8.00039,0,0,0,8-8V208H96a8.00039,8.00039,0,0,0,8-8V184h16a8.00235,8.00235,0,0,0,5.65723-2.34277l9.56738-9.56836A80.00922,80.00922,0,1,0,160,16Zm0,144a63.689,63.689,0,0,1-23.65234-4.50977,8.00391,8.00391,0,0,0-8.83692,1.68457L116.68652,168H96a8.00039,8.00039,0,0,0-8,8v16H72a8.00039,8.00039,0,0,0-8,8v16H40V187.31348l58.8252-58.82422a8.00392,8.00392,0,0,0,1.68554-8.83594A64.01228,64.01228,0,1,1,160,160Zm31.99707-84a12,12,0,1,1-12-12A12.01312,12.01312,0,0,1,191.99707,76Z"/>
</svg>
