<svg id="Flat" xmlns="http://www.w3.org/2000/svg" viewBox="0 0 256 256">
  <path d="M192,76a12,12,0,1,1-12-12A12,12,0,0,1,192,76Zm48.00244,20a80.05817,80.05817,0,0,1-104.77539,76.08887l-9.56738,9.56836A8.00235,8.00235,0,0,1,120.00244,184h-16v16a8.00039,8.00039,0,0,1-8,8h-16v16a8.00039,8.00039,0,0,1-8,8h-40a8.00039,8.00039,0,0,1-8-8V184a8.00235,8.00235,0,0,1,2.34277-5.65723l57.56836-57.56738A80.00922,80.00922,0,1,1,240.00244,96Zm-16,0a64,64,0,1,0-123.48926,23.65332,8.00392,8.00392,0,0,1-1.68554,8.83594l-58.8252,58.82422V216h24V200a8.00039,8.00039,0,0,1,8-8h16V176a8.00039,8.00039,0,0,1,8-8H116.689l10.82422-10.8252a8.00391,8.00391,0,0,1,8.83692-1.68457A64.04477,64.04477,0,0,0,224.00244,96Z"/>
</svg>
