<svg id="Flat" xmlns="http://www.w3.org/2000/svg" viewBox="0 0 256 256">
  <path d="M223.51465,47.51465H32.48535a16.99025,16.99025,0,0,0-16.9707,16.9707v127.0293a16.99025,16.99025,0,0,0,16.9707,16.9707h191.0293a16.99025,16.99025,0,0,0,16.9707-16.9707V64.48535A16.99025,16.99025,0,0,0,223.51465,47.51465Zm0,144H32.48535V64.48535h191.0293l.01074,127.0293ZM208,128a8.00008,8.00008,0,0,1-8,8H56a8,8,0,0,1,0-16H200A8.00008,8.00008,0,0,1,208,128Zm0-32a8.00008,8.00008,0,0,1-8,8H56a8,8,0,0,1,0-16H200A8.00008,8.00008,0,0,1,208,96ZM72,160a8.00008,8.00008,0,0,1-8,8H56a8,8,0,0,1,0-16h8A8.00008,8.00008,0,0,1,72,160Zm96,0a8.00008,8.00008,0,0,1-8,8H96a8,8,0,0,1,0-16h64A8.00008,8.00008,0,0,1,168,160Zm40,0a8.00008,8.00008,0,0,1-8,8h-8a8,8,0,0,1,0-16h8A8.00008,8.00008,0,0,1,208,160Z"/>
</svg>
