<svg id="Flat" xmlns="http://www.w3.org/2000/svg" viewBox="0 0 256 256">
  <path d="M216.791,44.2085A7.99794,7.99794,0,0,0,211.7915,39.209,135.76626,135.76626,0,0,0,168,32C93.00928,32,32,93.00928,32,168a135.92766,135.92766,0,0,0,5.68359,39.00244L18.34326,226.34277a8.00018,8.00018,0,0,0,11.31348,11.31446l19.34131-19.34137A135.93049,135.93049,0,0,0,88,224c74.99072,0,136-61.00977,136-136A135.76626,135.76626,0,0,0,216.791,44.2085ZM88,208a120.407,120.407,0,0,1-25.88086-2.80542l103.5376-103.53784a7.99984,7.99984,0,0,0-11.31348-11.31348L50.80518,193.881A120.09156,120.09156,0,0,1,202.8584,53.1416,120.09454,120.09454,0,0,1,88,208Z"/>
</svg>
