<svg id="Flat" xmlns="http://www.w3.org/2000/svg" viewBox="0 0 256 256">
  <path d="M223.98633,39.53027a8.00074,8.00074,0,0,0-7.5166-7.5166c-76.313-4.49267-137.416,18.51709-163.47217,61.53955A87.32048,87.32048,0,0,0,40.21191,142.687c.56861,15.95679,5.22315,32.06415,13.824,47.96326l-19.69263,19.6925a8.00018,8.00018,0,0,0,11.31348,11.31446l19.69287-19.69294c15.89893,8.60053,32.00635,13.25525,47.96338,13.8238,1.11719.04,2.22705.05957,3.33545.05957a87.1861,87.1861,0,0,0,45.79834-12.84473C205.46924,176.94629,228.47461,115.83447,223.98633,39.53027ZM154.15771,189.31738c-22.82006,13.8216-49.82714,14.00519-76.93017.76886l88.4292-88.4295a7.99984,7.99984,0,0,0-11.31348-11.31348l-88.42969,88.4292c-13.23535-27.10211-13.05224-54.10956.76954-76.93017C88.82568,65.28174,141.48047,45.252,208.35352,47.64648,210.74561,114.521,190.71582,167.17578,154.15771,189.31738Z"/>
</svg>
