<svg xmlns="http://www.w3.org/2000/svg" viewBox="0 0 256 256"><path d="M224,39.5a8.1,8.1,0,0,0-7.5-7.5C140.2,27.5,79.1,50.5,53,93.6a87.3,87.3,0,0,0-12.8,49.1c.6,15.9,5.2,32.1,13.8,48L34.3,210.3a8.1,8.1,0,0,0,0,11.4,8.2,8.2,0,0,0,11.4,0L65.3,202c15.9,8.6,32.1,13.2,48,13.8h3.3A87,87,0,0,0,162.4,203C205.5,176.9,228.5,115.8,224,39.5ZM154.2,189.3c-22.9,13.8-49.9,14-77,.8l88.5-88.4a8.1,8.1,0,0,0-11.4-11.4L65.9,178.8c-13.2-27.1-13-54.1.8-77,22.1-36.5,74.8-56.5,141.7-54.2C210.7,114.5,190.7,167.2,154.2,189.3Z"/></svg>