<svg xmlns="http://www.w3.org/2000/svg" viewBox="0 0 256 256"><path d="M176,232a8,8,0,0,1-8,8H88a8,8,0,0,1,0-16h80A8,8,0,0,1,176,232Zm40-128a87.7,87.7,0,0,1-33.6,69.2A16.1,16.1,0,0,0,176,186v6a16,16,0,0,1-16,16H96a16,16,0,0,1-16-16v-6a16.2,16.2,0,0,0-6.2-12.7A87.8,87.8,0,0,1,40,104.5C39.7,56.8,78.3,17.1,125.9,16A87.9,87.9,0,0,1,216,104Zm-16,0a72.1,72.1,0,0,0-73.7-72c-39,.9-70.5,33.4-70.3,72.4a71.7,71.7,0,0,0,27.6,56.3h0A32,32,0,0,1,96,186v6h24V147.3L90.3,117.7a8.1,8.1,0,0,1,11.4-11.4L128,132.7l26.3-26.4a8.1,8.1,0,0,1,11.4,11.4L136,147.3V192h24v-6a32.1,32.1,0,0,1,12.5-25.4A71.5,71.5,0,0,0,200,104Z"/></svg>