<svg xmlns="http://www.w3.org/2000/svg" viewBox="0 0 256 256"><path d="M238.6,33.4a31.9,31.9,0,0,0-45.2,0h0a31.9,31.9,0,0,0,0,45.2l.9.9-26.7,49.4a32.4,32.4,0,0,0-23.9,3.5l-20.1-20.1A32,32,0,0,0,73.4,73.4h0a31.9,31.9,0,0,0,0,45.2l.9.9L47.6,168.9a32.1,32.1,0,0,0-30.2,8.5h0a31.9,31.9,0,0,0,0,45.2,31.9,31.9,0,0,0,45.2,0,31.9,31.9,0,0,0,0-45.2l-.9-.9,26.7-49.4a32.2,32.2,0,0,0,7.6.9,32.7,32.7,0,0,0,16.3-4.4l20.1,20.1a32,32,0,0,0,5,38.9,31.9,31.9,0,0,0,45.2,0,31.9,31.9,0,0,0,0-45.2l-.9-.9,26.7-49.4a32.2,32.2,0,0,0,7.6.9,31.6,31.6,0,0,0,22.6-9.4A31.9,31.9,0,0,0,238.6,33.4ZM51.3,211.3a16,16,0,0,1-22.6-22.6h0a16,16,0,0,1,22.6,22.6Zm33.4-104a15.9,15.9,0,0,1,0-22.6h0a16,16,0,1,1,0,22.6Zm86.6,64a16,16,0,0,1-22.6-22.6h0a16,16,0,0,1,22.6,22.6Zm56-104a16,16,0,0,1-22.6-22.6h0a16,16,0,1,1,22.6,22.6Z"/></svg>