<svg id="Flat" xmlns="http://www.w3.org/2000/svg" viewBox="0 0 256 256">
  <path d="M214.62744,41.37207a32.00221,32.00221,0,0,0-50.1958,38.88232l-84.177,84.17725a32.05731,32.05731,0,0,0-38.88208,4.94043l-.00049.001a32,32,0,1,0,50.19629,6.37256l84.17725-84.17725a32.00221,32.00221,0,0,0,38.88183-50.19629ZM75.314,203.31348a16.00019,16.00019,0,1,1-22.62744-22.62793l-.00048.001a16.01793,16.01793,0,0,1,22.62524-.00293l.00268.00293.0022.002A16.01918,16.01918,0,0,1,75.314,203.31348Zm128-128a16.019,16.019,0,0,1-22.62792,0l-.0022-.002a16.00027,16.00027,0,1,1,22.63012.002Z"/>
</svg>
