<svg id="Flat" xmlns="http://www.w3.org/2000/svg" viewBox="0 0 256 256">
  <path d="M100,80A12,12,0,1,1,88,68,12,12,0,0,1,100,80ZM228,44V212a16.01833,16.01833,0,0,1-16,16H44a16.01833,16.01833,0,0,1-16-16V44A16.01817,16.01817,0,0,1,44,28H212A16.01817,16.01817,0,0,1,228,44ZM212.01025,211.99951,212,44H44V212H212ZM88,104.001a7.99992,7.99992,0,0,0-8,8v64a8,8,0,1,0,16,0v-64A7.99992,7.99992,0,0,0,88,104.001Zm60,0a35.7917,35.7917,0,0,0-20.20508,6.22168A7.99726,7.99726,0,0,0,112,112.001v64a8,8,0,1,0,16,0v-36a20,20,0,0,1,40,0v36a8,8,0,1,0,16,0v-36A36.04061,36.04061,0,0,0,148,104.001Z"/>
</svg>
