<svg id="Flat" xmlns="http://www.w3.org/2000/svg" viewBox="0 0 256 256">
  <path d="M167.59424,88.39258a8.00121,8.00121,0,0,1,0,11.31445L99.7124,167.58887A8.00053,8.00053,0,1,1,88.398,156.27441l67.88184-67.88183A8.003,8.003,0,0,1,167.59424,88.39258Zm-28.28711,84.86035L111.023,201.53711a39.99918,39.99918,0,0,1-56.56738-56.56738l28.28418-28.28418a8.00053,8.00053,0,0,0-11.31446-11.31446L43.14111,133.65527a56.00023,56.00023,0,0,0,79.19629,79.19629l28.28418-28.28418a8.00052,8.00052,0,1,0-11.31445-11.31445ZM212.85205,43.14062a56.002,56.002,0,0,0-79.19629,0L105.37158,71.4248A8.00053,8.00053,0,1,0,116.686,82.73926l28.28417-28.28418a39.99918,39.99918,0,0,1,56.56739,56.56738l-28.28418,28.28418a8.00052,8.00052,0,0,0,11.31445,11.31445l28.28418-28.28418A56.06457,56.06457,0,0,0,212.85205,43.14062Z"/>
</svg>
