<svg id="Flat" xmlns="http://www.w3.org/2000/svg" viewBox="0 0 256 256">
  <path d="M198.70947,108.20117a35.99961,35.99961,0,1,0-50.91015-50.91211L127.99854,77.08887A7.99984,7.99984,0,0,1,116.686,65.77441l19.7998-19.79882A51.99928,51.99928,0,1,1,210.023,119.51465L190.2251,139.31348a7.99984,7.99984,0,0,1-11.31446-11.3125Zm-70.709,70.71-19.80078,19.79981a35.99961,35.99961,0,1,1-50.91016-50.91211L77.08838,127.999a7.99983,7.99983,0,0,0-11.31445-11.3125L45.97607,136.48535a51.99928,51.99928,0,1,0,73.53711,73.53906L139.313,190.22559a7.99984,7.99984,0,0,0-11.3125-11.31446ZM94.05811,79.43164a8.0004,8.0004,0,0,0,8-8V48.80371a8,8,0,1,0-16,0V71.43164A8.00039,8.00039,0,0,0,94.05811,79.43164ZM48.80322,102.05859H71.43115a8,8,0,0,0,0-16H48.80322a8,8,0,1,0,0,16ZM207.1958,153.94141H184.56787a8,8,0,0,0,0,16H207.1958a8,8,0,0,0,0-16Zm-45.25488,22.627a8.00039,8.00039,0,0,0-8,8v22.62793a8,8,0,0,0,16,0V184.56836A8.00039,8.00039,0,0,0,161.94092,176.56836Z"/>
</svg>
