<svg id="Flat" xmlns="http://www.w3.org/2000/svg" viewBox="0 0 256 256">
  <path d="M208,32H48A16.01817,16.01817,0,0,0,32,48V208a16.01833,16.01833,0,0,0,16,16H208a16.01833,16.01833,0,0,0,16-16V48A16.01817,16.01817,0,0,0,208,32Zm0,176H48V48H208l.01025,159.99951ZM96,112.001v64a8,8,0,1,1-16,0v-64a8,8,0,0,1,16,0Zm4-32a12,12,0,1,1-12-12A12,12,0,0,1,100,80.001Zm84,60v36a8,8,0,1,1-16,0v-36a20,20,0,0,0-40,0v36a8,8,0,1,1-16,0v-64a7.99726,7.99726,0,0,1,15.79492-1.77832A35.981,35.981,0,0,1,184,140.001Z"/>
</svg>
