<svg id="Flat" xmlns="http://www.w3.org/2000/svg" viewBox="0 0 256 256">
  <path d="M223.999,128a8.00008,8.00008,0,0,1-8,8H104a8,8,0,0,1,0-16H215.999A8.00008,8.00008,0,0,1,223.999,128ZM104,72H215.999a8,8,0,0,0,0-16H104a8,8,0,0,0,0,16ZM215.999,184h-112a8,8,0,1,0,0,16h112a8,8,0,0,0,0-16ZM43.57764,67.15527,48,64.94434v43.0498a8,8,0,1,0,16,0V52a7.99928,7.99928,0,0,0-11.57764-7.15527l-16,8a7.99984,7.99984,0,1,0,7.15528,14.31054ZM72.23779,170.30566a22.00206,22.00206,0,1,0-38.50586-20.87109A8,8,0,1,0,48.46826,155.667a6.00237,6.00237,0,1,1,10.59668,5.55274l-25.4668,33.98242A8.00013,8.00013,0,0,0,40,208H68a8,8,0,0,0,0-16H55.99219l16.01855-21.375C72.08887,170.52051,72.165,170.41406,72.23779,170.30566Z"/>
</svg>
