<svg id="Flat" xmlns="http://www.w3.org/2000/svg" viewBox="0 0 256.00098 256.00098">
  <path d="M160,119.999a8.00008,8.00008,0,0,1-8,8H128v24a8,8,0,0,1-16,0v-24H88a8,8,0,0,1,0-16h24v-24a8,8,0,0,1,16,0v24h24A8.00009,8.00009,0,0,1,160,119.999Zm69.6582,109.65723a8.00062,8.00062,0,0,1-11.31445,0l-36.36591-36.36633a97.04,97.04,0,0,1-13.98565,9.83508,95.42459,95.42459,0,0,1-47.83594,12.90088,96.51611,96.51611,0,0,1-24.999-3.312A95.9853,95.9853,0,0,1,72.00781,36.87305,96.02814,96.02814,0,0,1,193.32727,182.01141l36.33093,36.33136A8,8,0,0,1,229.6582,229.65625Zm-32.39843-88.95557a79.98463,79.98463,0,0,0-56.55762-97.96142,80.45005,80.45005,0,0,0-20.833-2.76026,80.0063,80.0063,0,1,0,77.39063,100.72168Z"/>
</svg>
