<svg id="Flat" xmlns="http://www.w3.org/2000/svg" viewBox="0 0 256 256">
  <path d="M206.9541,50.24707A87.40283,87.40283,0,0,0,144.58789,24.001C144.47461,24,144.36426,24,144.252,24A87.41952,87.41952,0,0,0,82,49.80957L48.30078,83.92084l-.001.001-.00146.00147L15.89746,116.7207a16.03806,16.03806,0,0,0,.06836,22.55957l28.65332,28.65332a15.889,15.889,0,0,0,11.3125,4.68653h.0957a15.88936,15.88936,0,0,0,11.35157-4.81836l32.0205-32.77661.002-.00171.00293-.003,33.57226-34.36518a16.07987,16.07987,0,0,1,22.374-.18847,15.58821,15.58821,0,0,1,4.72558,11.19629,16.88015,16.88015,0,0,1-4.84472,11.99316l-34.10694,33.07623-.00732.00678-.00391.004L88.2627,188.60156a15.99983,15.99983,0,0,0-.17579,22.79981l28.6543,28.65429a16.052,16.052,0,0,0,22.5166.10938l32.957-32.31885.00489-.00439.00293-.0033,33.55273-32.903C240.22363,140.48633,240.75293,84.55176,206.9541,50.24707ZM55.93359,156.61914,27.2793,127.96582l26.71191-27.03827L82.49512,129.4314Zm72.12207,72.12207L99.40137,200.08789l27.28711-26.46283,28.50439,28.50421Zm38.562-37.81586-28.44141-28.44128L166.418,135.0957c.0293-.02832.05859-.05761.08789-.08593a32.97515,32.97515,0,0,0,9.56934-23.49805,31.46514,31.46514,0,0,0-9.62793-22.57129,32.15933,32.15933,0,0,0-44.81543.43164c-.02149.02246-.04395.04492-.06543.06641L93.67773,117.98511,65.23682,89.54437l28.11181-28.4555A71.49377,71.49377,0,0,1,144.25391,40c.09082,0,.18359,0,.27441.001a71.51853,71.51853,0,0,1,51.0293,21.47558c27.65234,28.06641,27.16015,73.8877-1.041,102.08985Z"/>
</svg>
