<svg id="Flat" xmlns="http://www.w3.org/2000/svg" viewBox="0 0 256 256">
  <path d="M200,40H160a16.01833,16.01833,0,0,0-16,16v88a16,16,0,0,1-32,0V56A16.01833,16.01833,0,0,0,96,40H56A16.01833,16.01833,0,0,0,40,56v88a87.99955,87.99955,0,0,0,87.99512,88c.22265,0,.44726-.001.6709-.00195,48.15625-.35743,87.334-40.28321,87.334-89.002V56A16.01833,16.01833,0,0,0,200,40Zm0,16V88H160V56ZM96,56V88H56V56Zm32.54688,159.99805c-.1836.00195-.36524.00195-.54883.00195A72.00069,72.00069,0,0,1,56,144V104H96v40a32,32,0,0,0,64,0V104h40v38.99609C200,182.957,167.94629,215.70605,128.54688,215.99805Z"/>
</svg>
