<svg id="Flat" xmlns="http://www.w3.org/2000/svg" viewBox="0 0 256.00098 256.00098">
  <path d="M160,120a8.00008,8.00008,0,0,1-8,8H88a8,8,0,0,1,0-16h64A8.00008,8.00008,0,0,1,160,120Zm69.6582,109.65723a8.00062,8.00062,0,0,1-11.31445,0l-36.36591-36.36634a97.03932,97.03932,0,0,1-13.98565,9.83509,95.42459,95.42459,0,0,1-47.83594,12.90088,96.51613,96.51613,0,0,1-24.999-3.312A95.98531,95.98531,0,0,1,72.00781,36.874,96.02815,96.02815,0,0,1,193.32727,182.01239l36.33093,36.33136A8,8,0,0,1,229.6582,229.65723Zm-32.39843-88.95557a79.98463,79.98463,0,0,0-56.55762-97.96143,80.45,80.45,0,0,0-20.833-2.76025,80.0063,80.0063,0,1,0,77.39063,100.72168Z"/>
</svg>
