<svg id="Flat" xmlns="http://www.w3.org/2000/svg" viewBox="0 0 256 256">
  <path d="M199.99975,224H150.53961a266.46807,266.46807,0,0,0,23.49725-23.75049c27.45215-31.5708,41.96289-64.853,41.96289-96.24951a88,88,0,0,0-176,0c0,31.39648,14.51075,64.67871,41.96289,96.24951A266.468,266.468,0,0,0,105.4599,224H55.99975a8,8,0,0,0,0,16h144a8,8,0,0,0,0-16Zm-144-120a72,72,0,0,1,144,0c0,57.23291-55.46972,105.01465-72,117.97949C111.46655,209.0127,55.99975,161.23291,55.99975,104Zm112,0a40,40,0,1,0-40,40A40.04551,40.04551,0,0,0,167.99975,104Zm-64,0a24,24,0,1,1,24,24A24.0275,24.0275,0,0,1,103.99975,104Z"/>
</svg>
