<svg id="Flat" xmlns="http://www.w3.org/2000/svg" viewBox="0 0 256 256">
  <path d="M127.99975,64a40,40,0,1,0,40,40A40.04551,40.04551,0,0,0,127.99975,64Zm0,64a24,24,0,1,1,24-24A24.0275,24.0275,0,0,1,127.99975,128Zm0-112a88.09957,88.09957,0,0,0-88,88c0,31.39648,14.51075,64.67871,41.96289,96.24951a254.56523,254.56523,0,0,0,41.44922,38.3042,7.99995,7.99995,0,0,0,9.17578,0,254.56477,254.56477,0,0,0,41.44922-38.3042c27.45215-31.5708,41.96289-64.853,41.96289-96.24951A88.09957,88.09957,0,0,0,127.99975,16Zm0,205.97949c-16.5332-12.96679-72-60.74707-72-117.97949a72,72,0,0,1,144,0C199.99975,161.23242,144.53,209.01465,127.99975,221.97949Z"/>
</svg>
