<svg id="Flat" xmlns="http://www.w3.org/2000/svg" viewBox="0 0 256 256">
  <path d="M228.9226,49.69434a8.0002,8.0002,0,0,0-6.86328-1.45557L160.93072,63.521,99.57788,32.84448c-.0177-.00879-.03644-.01416-.05414-.0227a7.97377,7.97377,0,0,0-.86-.3628c-.05224-.01855-.10546-.03173-.158-.04907q-.36566-.12122-.74316-.20654c-.0827-.0188-.16522-.0354-.24829-.05151q-.357-.06885-.72162-.1045c-.06988-.00708-.13928-.01733-.20929-.02246a7.97727,7.97727,0,0,0-.93994-.01684l-.02264.00219a8.0042,8.0042,0,0,0-.88477.09571c-.09991.01611-.1983.03857-.29767.05835-.1264.02514-.25262.043-.379.07446l-64,16A7.99985,7.99985,0,0,0,23.99975,56V200a8.00045,8.00045,0,0,0,9.94043,7.76123L95.06909,192.479l61.35254,30.67627c.03637.01807.07464.03.1112.04761q.32493.15673.66315.28442c.04187.01563.08289.0337.12494.04883a7.97006,7.97006,0,0,0,.81506.24146c.04267.01025.08551.01782.12824.02734q.36017.0802.72906.12671c.05091.00659.1015.01392.15247.01929a7.29318,7.29318,0,0,0,1.89233-.02222c.11188-.01465.22156-.04248.33283-.06177.18982-.0332.37945-.05835.56927-.10571l64-16A8,8,0,0,0,231.99975,200V56A7.99871,7.99871,0,0,0,228.9226,49.69434ZM39.99975,62.24609l48-11.99975V177.75366l-48,12.00025Zm112,140.80957-48-24V52.94434l48,24Zm64-9.30175-48,11.99975V78.24634l48-12.00025Z"/>
</svg>
