<svg id="Flat" xmlns="http://www.w3.org/2000/svg" viewBox="0 0 256 256">
  <path d="M201.53906,54.46094A103.99994,103.99994,0,1,0,54.46094,201.53906,103.99994,103.99994,0,1,0,201.53906,54.46094ZM88,206.37012V176h80v30.37012A88.38031,88.38031,0,0,1,88,206.37012ZM104,144h43.79742l.03363.00146L147.85962,144H152v16H104Zm13.99988-16L128,80.00049V80l10.00018,48Zm72.22473,62.22559c-2.00226,2.00225-4.08435,3.87616-6.22461,5.64471V176a16.01833,16.01833,0,0,0-16-16V144a16.011,16.011,0,0,0-13.61462-15.80219l-10.72132-51.462a16.00062,16.00062,0,0,0-31.32812.00049l-10.72132,51.46148A16.011,16.011,0,0,0,88,144v16a16.01833,16.01833,0,0,0-16,16v19.8703c-2.14026-1.76855-4.22235-3.64246-6.22461-5.64471a88,88,0,1,1,124.44922,0Z"/>
</svg>
