<svg xmlns="http://www.w3.org/2000/svg" viewBox="0 0 256 256"><path d="M112,184a8,8,0,0,1-8,8H80v24a8,8,0,0,1-16,0V192H40a8,8,0,0,1,0-16H64V152a8,8,0,0,1,16,0v24h24A8,8,0,0,1,112,184ZM104,64H40a8,8,0,0,0,0,16h64a8,8,0,0,0,0-16Zm48,112.1h64a8,8,0,0,0,0-16H152a8,8,0,0,0,0,16Zm64,15.8H152a8,8,0,0,0,0,16h64a8,8,0,0,0,0-16Zm-61.7-90.2a8.2,8.2,0,0,0,11.4,0L184,83.3l18.3,18.4a8.2,8.2,0,0,0,11.4,0,8.1,8.1,0,0,0,0-11.4L195.3,72l18.4-18.3a8.1,8.1,0,0,0-11.4-11.4L184,60.7,165.7,42.3a8.1,8.1,0,0,0-11.4,11.4L172.7,72,154.3,90.3A8.1,8.1,0,0,0,154.3,101.7Z"/></svg>