<svg id="Flat" xmlns="http://www.w3.org/2000/svg" viewBox="0 0 256 256">
  <path d="M72,60C36.71045,60,8,90.5049,8,128s28.71045,68,64,68,64-30.50488,64-68S107.28955,60,72,60Zm0,120c-26.46729,0-48-23.32715-48-52S45.53271,76,72,76s48,23.32715,48,52S98.46729,180,72,180ZM184,64c-5.68262,0-16.39941,2.76074-24.32373,21.251C154.72607,96.8008,152,111.98342,152,128s2.72607,31.19922,7.67627,42.749C167.60059,189.23928,178.31738,192,184,192s16.39941-2.76074,24.32373-21.251C213.27393,159.19924,216,144.01662,216,128s-2.72607-31.19922-7.67627-42.749C200.39941,66.76076,189.68262,64,184,64Zm0,112c-5.64062,0-16-18.22363-16-48s10.35938-48,16-48,16,18.22363,16,48S189.64062,176,184,176ZM248,72V184a8,8,0,0,1-16,0V72a8,8,0,0,1,16,0Z"/>
</svg>
