<svg id="Flat" xmlns="http://www.w3.org/2000/svg" viewBox="0 0 256.01172 256">
  <path d="M56.07031,136.00094a8.00008,8.00008,0,0,1-8,8h-24a8,8,0,0,1,0-16h8v-64h-8a8,8,0,1,1,0-16h16c.08545,0,.16846.01026.25342.0127.08838.00293.17578.00781.26416.01367a8.00143,8.00143,0,0,1,1.12793.14453l.00879.00244a7.86325,7.86325,0,0,1,1.11523.32959c.05274.01905.106.03711.15821.05762a7.87458,7.87458,0,0,1,1.02539.49023c.05176.0293.10107.06153.15234.09229a8.03973,8.03973,0,0,1,.91748.63428c.01709.01367.03467.02539.05176.03906a8.081,8.081,0,0,1,.82568.79443c.04981.05518.10059.10791.14942.16455a8.071,8.071,0,0,1,.687.9209c.01416.02246.03271.041.04736.06348l33.21582,53.146,33.21582-53.146c.01465-.02246.03321-.04053.04737-.06348a8.028,8.028,0,0,1,.687-.9209c.04883-.05664.09961-.10937.14941-.16406a7.985,7.985,0,0,1,.82569-.79492c.01709-.01416.03564-.02588.05322-.04a8.04582,8.04582,0,0,1,.91406-.63232c.05225-.03125.10254-.06446.15576-.09424a7.9189,7.9189,0,0,1,1.022-.48877c.0542-.021.10889-.03955.16358-.05957a7.89673,7.89673,0,0,1,1.104-.32617l.01856-.00489a8.00908,8.00908,0,0,1,1.12207-.144c.09082-.00586.18066-.01074.27148-.01367.084-.00244.16553-.0127.25-.0127h16a8,8,0,0,1,0,16h-8v64h8a8,8,0,0,1,0,16h-24a8,8,0,0,1,0-16V83.89547L86.85449,124.24118a8.00063,8.00063,0,0,1-13.56836,0L48.07031,83.89547v44.10547A8.00008,8.00008,0,0,1,56.07031,136.00094Zm112-24h72a8,8,0,0,0,0-16h-72a8,8,0,0,0,0,16Zm72,16h-72a8,8,0,0,0,0,16h72a8,8,0,0,0,0-16Zm0,32h-168a8,8,0,0,0,0,16h168a8,8,0,0,0,0-16Zm0,32h-168a8,8,0,0,0,0,16h168a8,8,0,0,0,0-16Z"/>
</svg>
