<svg id="Flat" xmlns="http://www.w3.org/2000/svg" viewBox="0 0 256 256">
  <path d="M240,120a48.055,48.055,0,0,0-48-48H152.0166c-.51855-.00195-52.37988-.68945-101.72558-42.07617A15.999,15.999,0,0,0,24,42.168V197.832a15.83931,15.83931,0,0,0,9.22949,14.49121,16.07273,16.07273,0,0,0,6.80664,1.52539A15.91252,15.91252,0,0,0,50.29,210.07715c37.87744-31.76856,77.2334-39.55615,93.71-41.46143v35.103a15.96716,15.96716,0,0,0,7.125,13.3125l10.99219,7.32813a16.00011,16.00011,0,0,0,24.39648-9.43165L198.354,167.56641A48.06327,48.06327,0,0,0,240,120ZM40,197.75977l.00391-155.57813.0039.001h.001C82.6958,77.98438,126.39551,85.8125,144,87.522V152.478C126.40039,154.18652,82.71533,162.00684,40,197.75977Zm130.99219,13.28711L160,203.71875V168h21.75391ZM192,152H160V88h32a32,32,0,0,1,0,64Z"/>
</svg>
