<svg xmlns="http://www.w3.org/2000/svg" viewBox="0 0 256 256"><path d="M74,112a8,8,0,0,1,0-16h36a8,8,0,0,1,0,16H100v40a8,8,0,0,1-16,0V112ZM232,92.7V152a40,40,0,0,1-36.6,39.8,64,64,0,0,1-118.7.2H40a16,16,0,0,1-16-16V80A16,16,0,0,1,40,64H96.8a42.6,42.6,0,0,1-.8-8,40,40,0,0,1,72.6-23.2A34,34,0,0,1,220,62a33.5,33.5,0,0,1-5.2,18h4.5A12.7,12.7,0,0,1,232,92.7Zm-56.9-45A37.7,37.7,0,0,1,176,56a39.2,39.2,0,0,1-4,17.3A18,18,0,1,0,186,44,17.7,17.7,0,0,0,175.1,47.7ZM113.4,64H144a15.9,15.9,0,0,1,11.9,5.4A24.3,24.3,0,0,0,160,56a24,24,0,0,0-48,0A24.5,24.5,0,0,0,113.4,64ZM40,176H144V88h0V80H40Zm144-8V96H160v80a16,16,0,0,1-16,16H94.4A48.5,48.5,0,0,0,136,216,48,48,0,0,0,184,168Zm32-72H200v72a49.2,49.2,0,0,1-.4,6.7A24,24,0,0,0,216,152Z"/></svg>