<svg xmlns="http://www.w3.org/2000/svg" viewBox="0 0 256 256"><path d="M200,24H72A16,16,0,0,0,56,40V64H40A16,16,0,0,0,24,80v96a16,16,0,0,0,16,16H56v24a16,16,0,0,0,16,16H200a16,16,0,0,0,16-16V40A16,16,0,0,0,200,24Zm-40,80h40v48H160Zm40-16H160V80a16,16,0,0,0-16-16V40h56ZM72,40h56V64H72ZM40,80H144V96h0v80H40ZM72,192h56v24H72Zm72,24V192a16,16,0,0,0,16-16v-8h40v48ZM67.6,147.2,82,128,67.6,108.8a8,8,0,1,1,12.8-9.6L92,114.7l11.6-15.5a8,8,0,0,1,12.8,9.6L102,128l14.4,19.2a8,8,0,0,1-1.6,11.2A7.7,7.7,0,0,1,110,160a8,8,0,0,1-6.4-3.2L92,141.3,80.4,156.8A8,8,0,0,1,74,160a7.7,7.7,0,0,1-4.8-1.6A8,8,0,0,1,67.6,147.2Z"/></svg>