<svg xmlns="http://www.w3.org/2000/svg" viewBox="0 0 256 256"><path d="M94,96H78a8,8,0,0,0-8,8v48a8,8,0,0,0,16,0v-8h8a24,24,0,0,0,0-48Zm0,32H86V112h8a8,8,0,0,1,0,16ZM136,24A104.5,104.5,0,0,0,54,64H40A16,16,0,0,0,24,80v96a16,16,0,0,0,16,16H54A104,104,0,1,0,136,24Zm87.6,96H160V80a16,16,0,0,0-16-16V40.4A88,88,0,0,1,223.6,120ZM128,40.4V64H75.6A88.7,88.7,0,0,1,128,40.4ZM40,80H144v47.9h0V176H40Zm88,112v23.6A88.7,88.7,0,0,1,75.6,192Zm16,23.6V192a16,16,0,0,0,16-16V136h63.6A88,88,0,0,1,144,215.6Z"/></svg>