<svg id="Flat" xmlns="http://www.w3.org/2000/svg" viewBox="0 0 256 256">
  <path d="M208,40H48A24.02734,24.02734,0,0,0,24,64V176a24.0275,24.0275,0,0,0,24,24H208a24.0275,24.0275,0,0,0,24-24V64A24.02734,24.02734,0,0,0,208,40Zm8,136a8.00917,8.00917,0,0,1-8,8H48a8.00917,8.00917,0,0,1-8-8V64a8.00917,8.00917,0,0,1,8-8H208a8.00917,8.00917,0,0,1,8,8Zm-48,48a8.00008,8.00008,0,0,1-8,8H96a8,8,0,0,1,0-16h64A8.00008,8.00008,0,0,1,168,224Zm-3.56252-110.65649-48-32A8.00014,8.00014,0,0,0,104,88v64a8,8,0,0,0,12.43748,6.65649l48-32a8,8,0,0,0,0-13.313ZM120,137.05176V102.94824L145.57813,120Z"/>
</svg>
