<svg xmlns="http://www.w3.org/2000/svg" viewBox="0 0 256 256"><path d="M232,56a8,8,0,0,1-8,8H208V80a8,8,0,0,1-16,0V64H176a8,8,0,0,1,0-16h16V32a8,8,0,0,1,16,0V48h16A8,8,0,0,1,232,56Zm-16,63.2V172a36,36,0,1,1-36-36,35.3,35.3,0,0,1,20,6.1V119.2a8,8,0,1,1,16,0ZM200,172a20,20,0,1,0-20,20A20.1,20.1,0,0,0,200,172ZM88,118.2V204a36,36,0,1,1-36-36,35.3,35.3,0,0,1,20,6.1V64a8,8,0,0,1,6.1-7.8l56.4-14.1a8,8,0,1,1,3.9,15.5L88,70.2v31.6l69.1-17.3A8,8,0,1,1,161,100ZM72,204a20,20,0,1,0-20,20A20.1,20.1,0,0,0,72,204Z"/></svg>