<svg id="Flat" xmlns="http://www.w3.org/2000/svg" viewBox="0 0 256 256">
  <path d="M103.53516,230.251a15.75666,15.75666,0,0,1-15.09961-10.76563L29.83105,50.18164A15.99955,15.99955,0,0,1,50.18457,29.82812L219.4873,88.43359A16.00021,16.00021,0,0,1,218.96,118.8457l-76.55664,23.55567-23.55566,76.55468a15.76424,15.76424,0,0,1-15.01465,11.292C103.73438,230.25,103.63379,230.251,103.53516,230.251ZM44.9502,44.94727h0L103.55469,214.251h0l23.55566-76.55567A15.98106,15.98106,0,0,1,137.7002,127.1084l76.55371-23.55567Zm0,0Z"/>
</svg>
