<svg xmlns="http://www.w3.org/2000/svg" viewBox="0 0 256 256"><path d="M189.7,66.3a8.1,8.1,0,0,1,0,11.4l-16,16a8.2,8.2,0,0,1-11.4,0,8.1,8.1,0,0,1,0-11.4l16-16A8.1,8.1,0,0,1,189.7,66.3ZM224,72a40,40,0,0,1-11.7,28.3l-24,24a8.1,8.1,0,0,1-4.3,2.2c-51.5,8.8-137.5,94.3-138.3,95.2h0a8.2,8.2,0,0,1-11.4,0,8.1,8.1,0,0,1,0-11.4h.1c1.6-1.6,86.3-87,95.1-138.3a8.1,8.1,0,0,1,2.2-4.3l24-24A40,40,0,0,1,224,72Zm-16,0a24,24,0,0,0-41-17L144.8,77.3c-4.4,21.1-18.9,46.2-35.5,69.4,23.2-16.6,48.3-31.1,69.4-35.5L201,89A24.2,24.2,0,0,0,208,72Z"/></svg>