<svg id="Flat" xmlns="http://www.w3.org/2000/svg" viewBox="0 0 256 256">
  <path d="M229.65723,58.34326l-32-32a8.00034,8.00034,0,0,0-11.31446,0l-96,96A8.00035,8.00035,0,0,0,88,128v32a8.00008,8.00008,0,0,0,8,8h32a8.00076,8.00076,0,0,0,5.65723-2.34326l96-96A8,8,0,0,0,229.65723,58.34326ZM124.68652,152H104V131.31372L167.99988,67.314l20.6864,20.68628Zm75.31372-75.31372L179.31384,56,192,43.31372,212.68652,64ZM224,120v88a16.01833,16.01833,0,0,1-16,16H48a16.01833,16.01833,0,0,1-16-16V48A16.01817,16.01817,0,0,1,48,32h88a8,8,0,0,1,0,16H48V208H208V120a8,8,0,0,1,16,0Z"/>
</svg>
