<svg id="Flat" xmlns="http://www.w3.org/2000/svg" viewBox="0 0 256 256">
  <path d="M88,96a7.99977,7.99977,0,0,1,8-8h64a8,8,0,0,1,0,16H96A7.99977,7.99977,0,0,1,88,96Zm8,40h64a8,8,0,0,0,0-16H96a8,8,0,0,0,0,16Zm32,16H96a8,8,0,0,0,0,16h32a8,8,0,0,0,0-16ZM224,48V156.68652A15.89389,15.89389,0,0,1,219.31348,168L168,219.31348A15.89354,15.89354,0,0,1,156.68652,224H48a16.01833,16.01833,0,0,1-16-16V48A16.01833,16.01833,0,0,1,48,32H208A16.01833,16.01833,0,0,1,224,48ZM48,208H152V159.99219a7.99977,7.99977,0,0,1,8-8h48V48H48Zm120-40.00781v28.69433l28.69434-28.69433Z"/>
</svg>
