<svg id="Flat" xmlns="http://www.w3.org/2000/svg" viewBox="0 0 256 256">
  <path d="M154.30273,122.21582l-34.30566,45.77832H152a8,8,0,0,1,0,16H104.31738c-.10644.0044-.21191.00635-.31836.00635a8.00251,8.00251,0,0,1-6.30078-12.93164l43.67188-58.2749a16.0191,16.0191,0,0,0-7.14356-23.53907,15.81136,15.81136,0,0,0-2.99121-.9292,16.2961,16.2961,0,0,0-6.46777-.00048,15.81458,15.81458,0,0,0-2.99219.92871,16.01454,16.01454,0,0,0-2.71777,1.47509,16.11579,16.11579,0,0,0-4.3291,4.33008,16.00506,16.00506,0,0,0-1.47559,2.7168,7.99971,7.99971,0,1,1-14.73438-6.23535,31.98923,31.98923,0,0,1,23.043-18.89063,32.36911,32.36911,0,0,1,12.87989.00049,31.88618,31.88618,0,0,1,11.4541,4.81787,32.07258,32.07258,0,0,1,11.58594,14.07227,31.90705,31.90705,0,0,1,1.86816,6.01611,32.24413,32.24413,0,0,1,.001,12.88232,31.87784,31.87784,0,0,1-4.81934,11.45655Q154.42139,122.05883,154.30273,122.21582ZM224,48V208a16.01833,16.01833,0,0,1-16,16H48a16.01833,16.01833,0,0,1-16-16V48A16.01833,16.01833,0,0,1,48,32H208A16.01833,16.01833,0,0,1,224,48ZM208.00977,207.99951,208,48H48V208H208Z"/>
</svg>
