<svg id="Flat" xmlns="http://www.w3.org/2000/svg" viewBox="0 0 256 256">
  <path d="M128,24A104,104,0,1,0,232,128,104.11791,104.11791,0,0,0,128,24Zm0,192a88,88,0,1,1,88-88A88.09957,88.09957,0,0,1,128,216Zm26.30273-93.7832-34.30566,45.77734H152a8,8,0,0,1,0,16H104.31738c-.10644.00391-.21289.00684-.31836.00684a8.00343,8.00343,0,0,1-6.30175-12.93164l43.67187-58.27442a15.9967,15.9967,0,0,0-10.13867-24.4707,16.3405,16.3405,0,0,0-6.46582.001,16.05242,16.05242,0,0,0-11.51172,9.45019A7.99952,7.99952,0,0,1,98.51855,91.541a32.006,32.006,0,1,1,56.01368,30.35449C154.458,122.00391,154.38184,122.11133,154.30273,122.2168Z"/>
</svg>
