<svg id="Flat" xmlns="http://www.w3.org/2000/svg" viewBox="0 0 256 256">
  <path d="M128,24A104,104,0,1,0,232,128,104.11791,104.11791,0,0,0,128,24Zm0,192a88,88,0,1,1,88-88A88.09957,88.09957,0,0,1,128,216ZM118.71094,87.99609l-4.0791,25.19922a36.20266,36.20266,0,0,1,9.2666-1.19726,36,36,0,1,1-25.45508,61.457,7.99983,7.99983,0,1,1,11.3125-11.31445,20.00049,20.00049,0,1,0,0-28.28418,7.99988,7.99988,0,0,1-13.55371-6.93555l7.80176-48.20313a8.0005,8.0005,0,0,1,7.89746-6.72168h39.99707a8,8,0,0,1,0,16Z"/>
</svg>
