<svg id="Flat" xmlns="http://www.w3.org/2000/svg" viewBox="0 0 256 256">
  <path d="M208,32H48A16.01833,16.01833,0,0,0,32,48V208a16.01833,16.01833,0,0,0,16,16H208a16.01833,16.01833,0,0,0,16-16V48A16.01833,16.01833,0,0,0,208,32Zm0,176H48V48H208l.00977,160Zm-62-91.18652a35.74749,35.74749,0,0,0-20.34821-4.75769l16.20173-28.06165a7.99959,7.99959,0,0,0-13.85547-8L96.83368,129.97119l-.01044.01709-.001.00195a36.02518,36.02518,0,0,0,31.11816,54.01465,36.202,36.202,0,0,0,9.377-1.24218A35.999,35.999,0,0,0,146,116.81348Zm-.67871,41.17578a20.00039,20.00039,0,1,1,1.99707-15.17676A19.86995,19.86995,0,0,1,145.32129,157.98926Z"/>
</svg>
