<svg id="Flat" xmlns="http://www.w3.org/2000/svg" viewBox="0 0 256 256">
  <path d="M149.459,122.54492a35.99961,35.99961,0,0,1-50.91113,50.91113,7.99983,7.99983,0,1,1,11.3125-11.31445A19.99994,19.99994,0,1,0,124.00293,128a7.99973,7.99973,0,0,1-6.55469-12.58643l19.1875-27.42138H103.99707a8,8,0,0,1,0-16h48a7.99972,7.99972,0,0,1,6.55469,12.58642L137.5332,114.61816A35.92893,35.92893,0,0,1,149.459,122.54492ZM224,48V208a16.01833,16.01833,0,0,1-16,16H48a16.01833,16.01833,0,0,1-16-16V48A16.01833,16.01833,0,0,1,48,32H208A16.01833,16.01833,0,0,1,224,48ZM208.00977,207.99951,208,48H48V208H208Z"/>
</svg>
