<svg id="Flat" xmlns="http://www.w3.org/2000/svg" viewBox="0 0 256 256">
  <path d="M128,24A104,104,0,1,0,232,128,104.11791,104.11791,0,0,0,128,24Zm0,192a88,88,0,1,1,88-88A88.09957,88.09957,0,0,1,128,216ZM146,76.82813a35.99945,35.99945,0,1,0-18.05762,67.19238q1.20172,0,2.40637-.083L114.14648,172a7.99959,7.99959,0,1,0,13.85547,8l31.17481-53.99512.001-.001A35.99994,35.99994,0,0,0,146,76.82813Zm-28.001,48.49609a19.9991,19.9991,0,0,1,4.82422-36.6377,20.10752,20.10752,0,0,1,5.21-.69043A20.00414,20.00414,0,1,1,117.999,125.32422Z"/>
</svg>
