<svg id="Flat" xmlns="http://www.w3.org/2000/svg" viewBox="0 0 256 256">
  <path d="M128,24A104,104,0,1,0,232,128,104.11791,104.11791,0,0,0,128,24Zm0,192a88,88,0,1,1,88-88A88.09957,88.09957,0,0,1,128,216Zm21.08649-92.666c.04181-.041.08575-.07959.12738-.12109a30,30,0,1,0-42.42676.001c.04126.041.08484.0791.12634.12011a34.65464,34.65464,0,0,0-2.95544,2.624,34,34,0,1,0,48.084,0A34.64622,34.64622,0,0,0,149.08649,123.334Zm-30.9859-11.43359A14.002,14.002,0,1,1,128,116,13.91193,13.91193,0,0,1,118.10059,111.90039Zm22.627,50.82715A17.99816,17.99816,0,1,1,146,150,17.879,17.879,0,0,1,140.72754,162.72754Z"/>
</svg>
