<svg xmlns="http://www.w3.org/2000/svg" viewBox="0 0 256 256"><path d="M184,148a12,12,0,1,1-12-12A12,12,0,0,1,184,148Zm29.4,17.3A88.1,88.1,0,0,1,93.3,224.9l-1.1-.5a88.4,88.4,0,0,1-51.5-69.3h0a80.2,80.2,0,0,1-.7-11A87.3,87.3,0,0,1,54.1,96.3,36,36,0,0,1,70.1,28a7.7,7.7,0,0,1,3.4.8L187.8,83.9A20,20,0,0,0,186.1,44a8,8,0,0,1,0-16,36,36,0,0,1,0,72,8.5,8.5,0,0,1-3.5-.8L126.3,72a72.1,72.1,0,0,0-70.2,69.3L92.2,122h0l32-17.1A8,8,0,0,1,136,112V215.5a71.8,71.8,0,0,0,61.9-54.1,8,8,0,0,1,15.5,3.9Zm-93.4-40-16,8.6v78a71.5,71.5,0,0,0,16,3.6ZM64.4,83.2a88.1,88.1,0,0,1,37.1-23.1l-33.1-16a20,20,0,0,0-4,39.1ZM88,203.8V142.4L57.5,158.7A72.1,72.1,0,0,0,88,203.8Z"/></svg>