<svg id="Flat" xmlns="http://www.w3.org/2000/svg" viewBox="0 0 256 256">
  <path d="M164.45081,232H91.54919a15.895,15.895,0,0,1-11.31408-4.68677L28.68628,175.76465A15.89563,15.89563,0,0,1,24,164.45068V91.54932a15.89524,15.89524,0,0,1,4.6864-11.314L80.23547,28.68652A15.89437,15.89437,0,0,1,91.54919,24h72.90162a15.89486,15.89486,0,0,1,11.314,4.68652l51.54895,51.54883A15.89606,15.89606,0,0,1,232,91.54932v72.90136a15.89505,15.89505,0,0,1-4.68628,11.31372l-51.54919,51.54908A15.89389,15.89389,0,0,1,164.45081,232ZM91.54919,40,40,91.54907v72.90161l51.54919,51.54908L164.45081,216,216,164.45093V91.54932L164.45081,40Z"/>
</svg>
