<svg id="Flat" xmlns="http://www.w3.org/2000/svg" viewBox="0 0 256 256">
  <path d="M225.82531,72.83154c-.03143-.0581-.05615-.11816-.08923-.17627-.02722-.04736-.05975-.08984-.08783-.13672a15.995,15.995,0,0,0-5.88775-5.78027l-84-47.47754a16.08155,16.08155,0,0,0-15.7461-.00049l-84.001,47.479a15.99155,15.99155,0,0,0-5.959,5.89844c-.01508.02636-.033.0498-.04779.07617-.026.04638-.04511.09472-.07013.1416a15.98485,15.98485,0,0,0-2.049,7.8125V175.332a16.028,16.028,0,0,0,8.127,13.92969l84,47.47754a15.97393,15.97393,0,0,0,7.30957,2.0415c.15979.01123.31818.02735.48047.02881.02832.00049.05664.001.085.001.21723,0,.43067-.01563.64362-.03272a15.971,15.971,0,0,0,7.22748-2.03808l84.001-47.479a16.02639,16.02639,0,0,0,8.126-13.92871V80.668A15.98391,15.98391,0,0,0,225.82531,72.83154ZM127.88745,33.18945l75.81341,42.85108-26.724,15.28076-76.405-42.69238Zm1.01562,85.6211L52.21631,75.96,84.26538,57.84521l76.5,42.7461ZM43.88745,89.63428,120.9,132.6665l-.88483,85.69434L43.88745,175.332Zm92.13092,128.58056.88324-85.54687,32.1206-18.36719v34.21a8,8,0,0,0,16,0V105.15186L211.88745,89.79v85.542Z"/>
</svg>
