<svg id="Flat" xmlns="http://www.w3.org/2000/svg" viewBox="0 0 256 256">
  <path d="M229.92712,70.82178c-.02624-.04883-.04651-.09864-.07385-.147-.01178-.0205-.02606-.03906-.038-.05957a15.98843,15.98843,0,0,0-5.9718-5.88183l-87.999-49.5a16.09525,16.09525,0,0,0-15.68848,0L32.155,64.73389A15.99442,15.99442,0,0,0,26.168,70.646c-.01545.02685-.03388.05127-.04908.07861-.02435.04346-.04211.08887-.06555.13281a15.9817,15.9817,0,0,0-2.05359,7.82129v98.64258A16.02109,16.02109,0,0,0,32.156,191.2666l88.001,49.50049a15.97868,15.97868,0,0,0,7.2348,2.02148c.182.01416.36316.03077.5484.03272h.07227c.25195,0,.50036-.01465.74646-.0376a15.95948,15.95948,0,0,0,7.08459-2.01709l88-49.5a16.01817,16.01817,0,0,0,8.15625-13.94531V78.67871A15.98281,15.98281,0,0,0,229.92712,70.82178ZM127.99975,29.17871l79.74366,44.856-30.62067,17.396L96.43963,46.93115Zm.91016,89.64258L48.3786,73.96582,80.03821,56.15723l80.76513,44.54492ZM39.99975,87.61279l80.90753,45.06494-.7882,89.71094L39.99975,177.32129Zm96.12177,134.64014.787-89.57373,32.1137-18.24463v38.07617a8,8,0,0,0,16,0v-47.166l30.97754-17.59864v89.5752Z"/>
</svg>
