<svg id="Flat" xmlns="http://www.w3.org/2000/svg" viewBox="0 0 256 256">
  <path d="M232,88H216V64a16.01833,16.01833,0,0,0-16-16H48A16.01833,16.01833,0,0,0,32,64V88H16a8,8,0,0,0,0,16H32v24a16.01833,16.01833,0,0,0,16,16H200a16.01833,16.01833,0,0,0,16-16V104h16l.001,49.96582L131.60352,182.64941A16.06941,16.06941,0,0,0,120,198.03418V232a8,8,0,0,0,16,0l-.001-33.96582,100.39746-28.68359A16.06941,16.06941,0,0,0,248,153.96582V104A16.01833,16.01833,0,0,0,232,88Zm-32,40H48V64H200l.00488,31.90381C200.00439,95.936,200,95.96729,200,96s.00439.06445.00488.09668L200.00977,128Z"/>
</svg>
