<svg id="Flat" xmlns="http://www.w3.org/2000/svg" viewBox="0 0 256 256">
  <path d="M230.96484,123.48437a8.00033,8.00033,0,0,0-2.34277-5.65673L121.1377,10.34326a8.00122,8.00122,0,0,0-11.31446,0L69.73694,50.4292,43.51465,24.207A8.00018,8.00018,0,0,0,32.2002,35.52051L58.423,61.74316,13.65625,106.50977a24.029,24.029,0,0,0,0,33.94091l84.85742,84.85694a23.99952,23.99952,0,0,0,33.94141,0l96.167-96.16651A8.00034,8.00034,0,0,0,230.96484,123.48437ZM121.14062,213.99414a7.99827,7.99827,0,0,1-11.3125,0L24.9707,129.13721a8.00949,8.00949,0,0,1,0-11.314L69.73682,73.05713l29.6347,29.63476a28.00091,28.00091,0,1,0,11.314-11.314L81.05078,61.74316l34.42969-34.42968,96.1709,96.17089ZM124,104.01123a11.99488,11.99488,0,1,1-8.48535,3.50928A11.96332,11.96332,0,0,1,124,104.01123Zm109.65723,54.33252a7.99945,7.99945,0,0,0-11.31446,0C221.42969,159.25635,200,180.958,200,204a28,28,0,0,0,56,0C256,180.958,234.57031,159.25635,233.65723,158.34375ZM228,216a12.01343,12.01343,0,0,1-12-12c0-9.71045,6.50586-20.55225,12.01172-27.75391C233.5127,183.42578,240,194.23779,240,204A12.01343,12.01343,0,0,1,228,216Z"/>
</svg>
