<svg id="Flat" xmlns="http://www.w3.org/2000/svg" viewBox="0 0 256 256">
  <path d="M208,24H72A40.04552,40.04552,0,0,0,32,64v80a16.01833,16.01833,0,0,0,16,16h54.77588l-6.69531,46.86816A7.97979,7.97979,0,0,0,96,208a32,32,0,0,0,64,0,7.97979,7.97979,0,0,0-.08057-1.13184L153.22412,160H208a16.01833,16.01833,0,0,0,16-16V40A16.01833,16.01833,0,0,0,208,24ZM72,40h88V72a8,8,0,0,0,16,0V40h32l.00635,64H48V64A24.0275,24.0275,0,0,1,72,40Zm71.9917,168.51172a15.99988,15.99988,0,0,1-31.9834,0L118.93823,160h18.12354ZM208,144H48V120H208.00781l.00244,24Z"/>
</svg>
