<svg xmlns="http://www.w3.org/2000/svg" viewBox="0 0 256 256"><path d="M231,123.5a8.2,8.2,0,0,0-2.4-5.7L121.1,10.3a8,8,0,0,0-11.3,0L69.7,50.4,43.5,24.2A8,8,0,0,0,32.2,35.5L58.4,61.7,13.7,106.5a23.9,23.9,0,0,0,0,33.9l84.8,84.9a24.1,24.1,0,0,0,34,0l96.1-96.2A8,8,0,0,0,231,123.5ZM121.1,214a8.1,8.1,0,0,1-11.3,0L25,129.1a8,8,0,0,1,0-11.3L69.7,73.1l29.7,29.6a28,28,0,1,0,11.3-11.3L81.1,61.7l34.4-34.4,96.2,96.2ZM124,104a12.2,12.2,0,0,1,8.5,3.5,12,12,0,1,1-17,0A12.2,12.2,0,0,1,124,104Zm109.7,54.3a8.2,8.2,0,0,0-11.4,0c-.9,1-22.3,22.7-22.3,45.7a28,28,0,0,0,56,0C256,181,234.6,159.3,233.7,158.3ZM228,216a12,12,0,0,1-12-12c0-9.7,6.5-20.6,12-27.8,5.5,7.2,12,18,12,27.8A12,12,0,0,1,228,216Z"/></svg>