<svg xmlns="http://www.w3.org/2000/svg" viewBox="0 0 256 256"><path d="M200.8,53.9A103.4,103.4,0,0,0,128,24h-1.1A104,104,0,0,0,93.4,226.1,32,32,0,0,0,136,195.9V192a16,16,0,0,1,16-16h46.2a31.7,31.7,0,0,0,31.2-24.9,101.5,101.5,0,0,0,2.6-24A102.9,102.9,0,0,0,200.8,53.9Zm13,93.7A15.9,15.9,0,0,1,198.2,160H152a32.1,32.1,0,0,0-32,32v3.9A16,16,0,0,1,98.7,211,88.2,88.2,0,0,1,40,128a88.1,88.1,0,0,1,87.1-88h.9a88.3,88.3,0,0,1,88,87.2A86.8,86.8,0,0,1,213.8,147.6ZM140,76a12,12,0,1,1-12-12A12,12,0,0,1,140,76ZM93.4,108A12,12,0,1,1,89,91.6,12.1,12.1,0,0,1,93.4,108Zm0,40A12,12,0,1,1,77,143.6,12.1,12.1,0,0,1,93.4,148Zm90-52A12,12,0,1,1,167,91.6,12,12,0,0,1,183.4,96Z"/></svg>