<svg id="Flat" xmlns="http://www.w3.org/2000/svg" viewBox="0 0 256 256">
  <path d="M200.772,53.88965A103.28,103.28,0,0,0,127.99756,24q-.53247,0-1.06543.00488a104.01647,104.01647,0,0,0-33.57227,202.084A32.00105,32.00105,0,0,0,136,195.90234V192a16.01833,16.01833,0,0,1,16-16h46.20947a31.81973,31.81973,0,0,0,31.20508-24.87207,104.49414,104.49414,0,0,0,2.58154-24.01953A103.2063,103.2063,0,0,0,200.772,53.88965Zm13.041,93.6914A15.90194,15.90194,0,0,1,198.20947,160H152a32.03635,32.03635,0,0,0-32,32v3.90234a16.00246,16.00246,0,0,1-21.312,15.10059,88.01467,88.01467,0,0,1,28.40527-170.998c.30029-.0039.59961-.00488.89942-.00488a88.33144,88.33144,0,0,1,88.00439,87.24316A88.50708,88.50708,0,0,1,213.813,147.58105ZM140,76a12,12,0,1,1-12-12A12,12,0,0,1,140,76ZM93.35889,108A11.99992,11.99992,0,1,1,88.9668,91.60742,11.99969,11.99969,0,0,1,93.35889,108Zm0,40a11.99992,11.99992,0,1,1-16.39209-4.39258A11.9997,11.9997,0,0,1,93.35889,148Zm90.06689-52a12,12,0,1,1-16.39258-4.39258A11.99983,11.99983,0,0,1,183.42578,96Z"/>
</svg>
