<svg xmlns="http://www.w3.org/2000/svg" viewBox="0 0 256 256"><path d="M212,80a28,28,0,1,0,28,28A28.1,28.1,0,0,0,212,80Zm0,40a12,12,0,1,1,12-12A12,12,0,0,1,212,120ZM72,108a28,28,0,1,0-28,28A28.1,28.1,0,0,0,72,108ZM44,120a12,12,0,1,1,12-12A12,12,0,0,1,44,120ZM92,88A28,28,0,1,0,64,60,28.1,28.1,0,0,0,92,88Zm0-40A12,12,0,1,1,80,60,12,12,0,0,1,92,48Zm72,40a28,28,0,1,0-28-28A28.1,28.1,0,0,0,164,88Zm0-40a12,12,0,1,1-12,12A12,12,0,0,1,164,48Zm23.1,100.8a35.3,35.3,0,0,1-16.9-21.1,43.9,43.9,0,0,0-84.4,0A35.5,35.5,0,0,1,69,148.8,40,40,0,0,0,88,224a40.5,40.5,0,0,0,15.5-3.1,64.2,64.2,0,0,1,48.9-.1A39.6,39.6,0,0,0,168,224a40,40,0,0,0,19.1-75.2ZM168,208a24.1,24.1,0,0,1-9.5-1.9A78.7,78.7,0,0,0,128,200a79.9,79.9,0,0,0-30.6,6.1A23.2,23.2,0,0,1,88,208a24,24,0,0,1-11.3-45.2,51.1,51.1,0,0,0,24.4-30.6,28,28,0,0,1,53.8,0,51.1,51.1,0,0,0,24.4,30.6h.1A24,24,0,0,1,168,208Z"/></svg>