<svg id="Flat" xmlns="http://www.w3.org/2000/svg" viewBox="0 0 256 256">
  <path d="M212,80a28,28,0,1,0,28,28A28.03146,28.03146,0,0,0,212,80Zm0,40a12,12,0,1,1,12-12A12.01343,12.01343,0,0,1,212,120ZM72,108a28,28,0,1,0-28,28A28.03146,28.03146,0,0,0,72,108ZM44,120a12,12,0,1,1,12-12A12.01343,12.01343,0,0,1,44,120ZM92,88A28,28,0,1,0,64,60,28.03146,28.03146,0,0,0,92,88Zm0-40A12,12,0,1,1,80,60,12.01343,12.01343,0,0,1,92,48Zm72,40a28,28,0,1,0-28-28A28.03146,28.03146,0,0,0,164,88Zm0-40a12,12,0,1,1-12,12A12.01343,12.01343,0,0,1,164,48Zm23.0918,100.84473a35.3317,35.3317,0,0,1-16.8418-21.124,43.99839,43.99839,0,0,0-84.5-.00439,35.2806,35.2806,0,0,1-16.7998,21.105,40.00718,40.00718,0,0,0,34.57226,72.05176,64.08634,64.08634,0,0,1,48.86524-.03711,40.0067,40.0067,0,0,0,34.7041-71.99121ZM168,208a23.96259,23.96259,0,0,1-9.45215-1.93066,80.10113,80.10113,0,0,0-61.18555.03711,24.00684,24.00684,0,0,1-20.71191-43.25977,51.23767,51.23767,0,0,0,24.46484-30.666,27.99916,27.99916,0,0,1,53.77149.00245,51.22912,51.22912,0,0,0,24.46289,30.66357l.07129.03906A24.00369,24.00369,0,0,1,168,208Z"/>
</svg>
