<svg id="Flat" xmlns="http://www.w3.org/2000/svg" viewBox="0 0 256 256">
  <path d="M232.00586,92.68945,163.31934,24.00293a16.01955,16.01955,0,0,0-22.627,0L115.57324,49.12158l-58.05469,21.77A16.04728,16.04728,0,0,0,47.35547,83.24219L24.11475,222.6875c-.00977.05908-.01026.11865-.0188.17773-.02954.20606-.052.41309-.06543.62061-.00659.102-.01172.20312-.01441.30518-.00537.20312-.00146.40625.00879.60986.0044.08984.00537.18017.01294.26953a8.00347,8.00347,0,0,0,.33545,1.71875c.02051.06592.0459.12988.06812.19531.073.21387.15356.42481.24511.6333.03394.07764.07032.15381.10694.23047q.13806.28931.30127.56885c.04394.07617.08715.15186.13379.22656.11669.18653.24438.36768.37817.5459.0481.06445.092.13037.14209.19336a7.72176,7.72176,0,0,0,1.19751,1.2168c.14722.1206.301.22754.45459.33593.06055.04248.11767.09082.1792.13184.20068.1333.407.25391.61621.36719.0188.01025.03638.02295.05517.03271.218.11621.44092.21973.667.314.01342.00537.02612.01269.03955.01806.218.08985.43994.167.66357.23682.02466.00732.04834.01807.073.02539.20508.06152.41284.11035.62134.15527.04663.01026.092.02491.13867.0337.19678.03906.39526.06445.59375.08837.06006.00684.11914.02.1792.02588q.38013.03663.762.03711l.01587.001h.00049a8.06341,8.06341,0,0,0,1.19653-.09863c.03931-.00586.07886-.00342.11841-.00977L172.76709,208.6543a16.04584,16.04584,0,0,0,12.35059-10.165l21.77-58.0542,25.11816-25.11768A16.019,16.019,0,0,0,232.00586,92.68945ZM170.13672,192.87109,55.312,212.0083l47.37525-47.38086A28.01482,28.01482,0,1,0,91.37354,153.314L44.00146,200.69189,63.13818,85.87207,117.9917,65.30273l72.71484,72.71485ZM104,140a12,12,0,1,1,12,12A12.01343,12.01343,0,0,1,104,140Zm96.00586-15.311-68.686-68.686,20.686-20.68555,68.68652,68.68555Z"/>
</svg>
