<svg id="Flat" xmlns="http://www.w3.org/2000/svg" viewBox="0 0 256 256">
  <path d="M220.125,95.12695a103.60446,103.60446,0,0,1-28.124-71.12646,8.00041,8.00041,0,0,0-8-8.00049H71.999a8.00041,8.00041,0,0,0-8,8.00049A103.58423,103.58423,0,0,1,35.74121,95.26855a7.99965,7.99965,0,0,0-.97168,9.70215l86.43359,139.24805c.0185.03027.04181.05566.06067.08545a8.00959,8.00959,0,0,0,.48981.68652c.02033.02539.03809.05323.05866.07862a8.04323,8.04323,0,0,0,.61871.667c.06537.06347.13415.12207.20148.1831q.24591.2234.50909.42578c.075.05762.14941.11475.22632.16944q.31686.22559.65546.42041c.03735.02148.07263.04639.11035.06689a7.95168,7.95168,0,0,0,.84716.4043c.04993.02.10145.03613.15174.05518q.35632.13695.7279.24023c.08283.023.16578.04395.24945.06445.2273.05518.4582.09912.69263.13477.08405.01269.16705.02832.25171.03808A8.05743,8.05743,0,0,0,128,248h.00488l.017-.001a8.07539,8.07539,0,0,0,.92767-.06054c.08466-.00977.16749-.02539.25153-.03809.23535-.03564.46716-.08057.69537-.13623.0821-.02.16358-.04.24488-.063a7.82471,7.82471,0,0,0,.743-.24609c.045-.01709.09118-.03125.1358-.04932a7.93275,7.93275,0,0,0,.85217-.40722c.03632-.02.07032-.04395.10627-.06446q.34185-.197.66119-.42529c.07434-.05274.14642-.1084.21893-.16358q.27045-.20727.5213-.437c.06336-.05761.12836-.11279.19-.17236a8.10135,8.10135,0,0,0,.62237-.67285c.02112-.02588.03937-.0542.06024-.08057a8.07422,8.07422,0,0,0,.48877-.68652c.0188-.02979.042-.05567.06043-.085l86.29-139.40039A7.99875,7.99875,0,0,0,220.125,95.12695ZM128,128a16,16,0,1,1,16-16A16.01833,16.01833,0,0,1,128,128Zm8,83.876V142.9873a32,32,0,1,0-16,0v68.95557L51.52051,101.61914A119.38908,119.38908,0,0,0,79.73633,32h96.52832a119.42173,119.42173,0,0,0,28.082,69.46289Z"/>
</svg>
