<svg xmlns="http://www.w3.org/2000/svg" viewBox="0 0 256 256"><path d="M232,92.7,163.3,24a16.1,16.1,0,0,0-22.6,0L115.6,49.1,57.5,70.9A15.9,15.9,0,0,0,47.4,83.2L24.1,222.7A7.9,7.9,0,0,0,32,232h1.3l139.5-23.2a16.2,16.2,0,0,0,12.3-10.2l21.8-58.1L232,115.3A16.1,16.1,0,0,0,232,92.7ZM170.1,192.9,55.3,212l47.4-47.4A27.1,27.1,0,0,0,116,168a28,28,0,1,0-28-28,27.1,27.1,0,0,0,3.4,13.3L44,200.7,63.1,85.9,118,65.3,190.7,138ZM104,140a12,12,0,1,1,12,12A12,12,0,0,1,104,140Zm96-15.3L131.3,56,152,35.3,220.7,104Z"/></svg>