<svg id="Flat" xmlns="http://www.w3.org/2000/svg" viewBox="0 0 256 256">
  <path d="M219.43164,102.37988A103.6966,103.6966,0,0,1,192,32a8.00039,8.00039,0,0,0-8-8H72a8.00039,8.00039,0,0,0-8,8,103.699,103.699,0,0,1-27.43164,70.38086,8,8,0,0,0-.82813,9.76123l85.543,132.20361c.01032.01612.0232.02979.03363.0459a8.08131,8.08131,0,0,0,.54419.73486c.0409.04883.08612.09278.12812.14063q.23611.26953.49438.51709c.0719.06885.14557.13428.21979.19971.16174.14355.32934.27929.50238.40918.06994.05273.13812.10693.20972.15673a7.95306,7.95306,0,0,0,1.59991.86866c.062.0249.12549.04541.18817.06884q.33518.126.68335.2212c.08392.023.16785.04492.25263.06494.22271.05322.449.0957.6784.12988.08338.01221.16553.02783.24951.03809a7.45189,7.45189,0,0,0,1.86524,0c.084-.01026.16613-.02588.24951-.03809.22943-.03418.45569-.07666.6784-.12988.08478-.02.16871-.042.25263-.06494q.34863-.09522.68335-.2212c.06268-.02343.12616-.04394.18817-.06884a7.95306,7.95306,0,0,0,1.59991-.86866c.0716-.0498.13978-.104.20972-.15673.173-.12989.34064-.26563.50238-.40918.07422-.06543.14789-.13086.21979-.19971q.2591-.24683.49438-.51709c.042-.04785.08722-.0918.12812-.14063a8.08131,8.08131,0,0,0,.54419-.73486c.01043-.01611.02331-.02978.03363-.0459l85.543-132.2041A8.00061,8.00061,0,0,0,219.43164,102.37988ZM128,136a16,16,0,1,1,16-16A16.01833,16.01833,0,0,1,128,136Zm8,76.90967V150.9873a32,32,0,1,0-16,0v61.92286L52.44922,108.51172A119.547,119.547,0,0,0,79.73535,40h96.5293a119.5481,119.5481,0,0,0,27.28613,68.51172Z"/>
</svg>
