<svg id="Flat" xmlns="http://www.w3.org/2000/svg" viewBox="0 0 256 256">
  <path d="M228.68652,88A15.89427,15.89427,0,0,0,224,76.68652L179.31348,31.999A16.02162,16.02162,0,0,0,156.68555,32l-120,120.00049a15.95278,15.95278,0,0,0-3.56824,5.4458,7.95894,7.95894,0,0,0-.27173.75976A16.00685,16.00685,0,0,0,32,163.31348V208a16.01833,16.01833,0,0,0,16,16H92.68652a16.006,16.006,0,0,0,5.15863-.86377c.23829-.07324.47388-.15674.70581-.25244A15.94632,15.94632,0,0,0,104,219.31348l83.666-83.666,3.4746,13.89844-36.79785,36.79736a8.00018,8.00018,0,0,0,11.31446,11.31348l40-40a8.00081,8.00081,0,0,0,2.10351-7.59717l-6.90136-27.60547L223.999,99.31445A15.895,15.895,0,0,0,228.68652,88ZM48,179.31445,76.6861,208H48ZM96.00043,204.686,51.31372,160l84.686-84.686L180.68585,120Zm95.99945-96.00049L147.31384,64,168,43.31348,212.68555,88Z"/>
</svg>
