<svg id="Flat" xmlns="http://www.w3.org/2000/svg" viewBox="0 0 256 256">
  <path d="M216,208H115.314l82.33825-82.33887.005-.00439.00451-.00488L223.999,99.31445A15.99888,15.99888,0,0,0,224,76.68652L179.31348,31.999A16.02162,16.02162,0,0,0,156.68555,32l-120,120.00049a15.95514,15.95514,0,0,0-3.57209,5.45654c-.08221.19971-.15167.40283-.2171.60742A15.99421,15.99421,0,0,0,32,163.31348V208a16.01833,16.01833,0,0,0,16,16H216a8,8,0,0,0,0-16ZM51.3139,160l84.68592-84.686L180.68585,120,96,204.68652ZM168,43.31348,212.68555,88l-20.68567,20.68555L147.3139,64ZM48,179.314,76.68591,208H48Z"/>
</svg>
