<svg id="Flat" xmlns="http://www.w3.org/2000/svg" viewBox="0 0 256 256">
  <path d="M201.53906,54.46094A103.99994,103.99994,0,1,0,54.46094,201.53906,103.99994,103.99994,0,1,0,201.53906,54.46094ZM88,192a16,16,0,0,1,32,0v23.58789a87.94075,87.94075,0,0,1-32-9.21777Zm48,0a16,16,0,0,1,32,0v14.37012a87.94075,87.94075,0,0,1-32,9.21777Zm-28.72748-56h41.455l11.58533,25.10168A31.92938,31.92938,0,0,0,128,170.86786a31.92938,31.92938,0,0,0-32.31281-9.76618Zm7.38458-16L128,91.09033,141.3429,120Zm75.56751,70.22559c-2.00226,2.00225-4.08435,3.87616-6.22461,5.64471V176a7.99689,7.99689,0,0,0-.73633-3.35254l-48-104a8,8,0,0,0-14.52734,0l-48,104A7.99689,7.99689,0,0,0,72,176v19.8703c-2.14026-1.76855-4.22235-3.64246-6.22461-5.64471a88,88,0,1,1,124.44922,0Z"/>
</svg>
