<svg id="Flat" xmlns="http://www.w3.org/2000/svg" viewBox="0 0 256 256">
  <path d="M201.53906,54.46094A103.99994,103.99994,0,1,0,54.46094,201.53906,103.99994,103.99994,0,1,0,201.53906,54.46094ZM110.96484,128h34.07032l14.77148,32.00488A23.89978,23.89978,0,0,0,144,166.13086a23.94341,23.94341,0,0,0-32,0,23.89978,23.89978,0,0,0-15.80664-6.126Zm7.38477-16L128,91.09082,137.65039,112ZM152,184a8,8,0,0,1,16,0v22.40527a86.80409,86.80409,0,0,1-16,6.27393Zm-64,0a8,8,0,0,1,16,0v28.6792a86.80409,86.80409,0,0,1-16-6.27393Zm32,31.62842V184a8,8,0,0,1,16,0v31.62842c-2.64526.23681-5.312.37158-8,.37158S122.64526,215.86523,120,215.62842Zm70.22559-25.40381Q187.23,193.22022,184,195.8833V176a8.00423,8.00423,0,0,0-.73633-3.35254l-48-104a8,8,0,0,0-14.52734,0l-48,104A8.00423,8.00423,0,0,0,72,176v19.8833q-3.22228-2.66822-6.22559-5.65869a87.99958,87.99958,0,1,1,124.45118,0Z"/>
</svg>
