<svg id="Flat" xmlns="http://www.w3.org/2000/svg" viewBox="0 0 256 256">
  <path d="M224,76.68652,179.314,32a15.99948,15.99948,0,0,0-22.62744,0L130.34473,58.3418l-.00147.00146-.00146.00147L36.687,151.99951a15.95024,15.95024,0,0,0-3.574,5.459c-.07935.19238-.14551.38818-.20923.585a15.99178,15.99178,0,0,0-.90381,5.27V208a16.01833,16.01833,0,0,0,16,16H92.68652a15.97625,15.97625,0,0,0,5.7041-1.05908c.03858-.01514.07813-.02588.11646-.04151A15.95462,15.95462,0,0,0,104,219.31348l120.00049-120A16.01823,16.01823,0,0,0,224,76.68652ZM48,179.31348,76.68652,208H48Zm48,25.373L51.31372,160,136,75.31348,180.68652,120Zm96-96L147.31372,64,168,43.31348,212.68652,88Z"/>
</svg>
