<svg id="Flat" xmlns="http://www.w3.org/2000/svg" viewBox="0 0 256 256">
  <path d="M152,88a32,32,0,1,0-32-32A32.03635,32.03635,0,0,0,152,88Zm0-48a16,16,0,1,1-16,16A16.01833,16.01833,0,0,1,152,40Zm67.71338,100.63354.00146.0022c-.624.32715-7.66113,3.85156-20.082,3.85254-13.80761.00086-34.27246-4.35864-59.99414-22.3a165.70943,165.70943,0,0,1-16.08447,34.14429,104.37686,104.37686,0,0,1,31.29541,15.8081C173.91992,186.64746,184,207.34668,184,232a8,8,0,0,1-16,0c0-41.71033-34.69873-56.72-54.14746-61.85034-16.56494,20.84045-40.5127,38.29175-73.14649,38.29175q-4.63695,0-9.50195-.48145A7.99965,7.99965,0,1,1,32.7959,192.04c26.83594,2.67871,50.0166-8.18164,68.89941-32.29395.81348-1.03869,1.60108-2.08789,2.373-3.14184.02637-.03845.05566-.07483.083-.11279a149.5336,149.5336,0,0,0,21.84131-44.386c-38.7876-26.98645-63.5337-5.60108-64.61084-4.63574a7.99968,7.99968,0,1,1-10.80909-11.7959c.99024-.915,10.13135-9.02344,25.91553-12.06055C102.585,78.5918,125.93555,91.52051,140.9292,103.25c23.77881,18.60254,42.07959,23.86719,53.24463,25.00684,11.73779,1.20312,18.16406-1.82032,18.22754-1.85059l-.11621.05957.00146.00256a7.997,7.997,0,1,1,7.42676,14.16516Z"/>
</svg>
