<svg id="Flat" xmlns="http://www.w3.org/2000/svg" viewBox="0 0 256 256">
  <path d="M152,80a32,32,0,1,0-32-32A32.03635,32.03635,0,0,0,152,80Zm0-48a16,16,0,1,1-16,16A16.01833,16.01833,0,0,1,152,32Zm64,112a8.00008,8.00008,0,0,1-8,8c-35.46094,0-53.10889-18.958-67.28955-34.19043-2.4292-2.60937-4.76416-5.1073-7.10205-7.44531L119.45312,142.921l37.19678,26.56921A7.99923,7.99923,0,0,1,160,176v56a8,8,0,0,1-16,0V180.11719l-31.06982-22.19312L79.33643,235.18945a7.99974,7.99974,0,1,1-14.67286-6.3789l37.54151-86.34619c.01025-.02247.01953-.04505.02978-.06751L119.92725,101.704c-9.44092-2.28845-21.39356.64246-35.71485,8.797a165.04885,165.04885,0,0,0-30.55908,23.15918,8,8,0,0,1-11.31006-11.31739c2.5083-2.50781,61.86475-61.043,99.084-26.66894,3.82031,3.52734,7.46728,7.44531,10.99414,11.2334C166.34912,121.86816,179.50391,136,208,136A8.00008,8.00008,0,0,1,216,144Z"/>
</svg>
