<svg id="Flat" xmlns="http://www.w3.org/2000/svg" viewBox="0 0 256 256">
  <path d="M120.88379,108.27832l-.03662-.04053L89.76367,74.0459l-.05322-.05811L53.91992,34.61816A8.0006,8.0006,0,1,0,42.08008,45.38184L70.03857,76.13623a142.75371,142.75371,0,0,0-43.86279,30.04053,56.07211,56.07211,0,0,0-4.69043,73.87695,16.03254,16.03254,0,0,0,18.55078,4.99707L87.35059,166.125a15.94917,15.94917,0,0,0,9.74609-11.71875l5.90527-29.51172a76.1958,76.1958,0,0,1,9.07422-2.51709l90.00391,99.0044a8.0006,8.0006,0,1,0,11.83984-10.76368Zm-23.252,1.544A15.983,15.983,0,0,0,87.30469,121.7627l-5.89746,29.50781L34.127,170.24609a40.04209,40.04209,0,0,1,3.36231-52.75586A126.75712,126.75712,0,0,1,81.48389,88.72607l18.48974,20.33887C99.19189,109.314,98.40527,109.55225,97.63184,109.82227Zm136.88378,70.23046a16.03429,16.03429,0,0,1-18.55273,4.99805l-4.04883-1.62012a8.00013,8.00013,0,1,1,5.94336-14.85546l4.04883,1.62011a40.01922,40.01922,0,0,0-3.39648-52.706,128.212,128.212,0,0,0-97.54786-37.29688,8.00022,8.00022,0,0,1-.874-15.97656,144.2028,144.2028,0,0,1,109.73633,41.96A56.07343,56.07343,0,0,1,234.51562,180.05273Z"/>
</svg>
