<svg xmlns="http://www.w3.org/2000/svg" viewBox="0 0 256 256"><path d="M151.7,37.9a7.9,7.9,0,0,1,9.8-5.6,88,88,0,0,1,62.2,62.2,7.9,7.9,0,0,1-5.6,9.8,7.6,7.6,0,0,1-2.1.3,8,8,0,0,1-7.7-6,72.6,72.6,0,0,0-50.9-50.9A7.9,7.9,0,0,1,151.7,37.9Zm-2.6,40.7a40.4,40.4,0,0,1,28.3,28.3,7.9,7.9,0,0,0,7.7,6,6.4,6.4,0,0,0,2-.3,7.9,7.9,0,0,0,5.7-9.8,55.8,55.8,0,0,0-39.6-39.6,8,8,0,1,0-4.1,15.4Zm82.5,96.5A56.2,56.2,0,0,1,176,224C96.6,224,32,159.4,32,80A56.2,56.2,0,0,1,80.9,24.4,16.3,16.3,0,0,1,97.6,34l20.1,46.9A15.9,15.9,0,0,1,116.3,96L99.7,121.4h0a76.5,76.5,0,0,0,35.2,35L160,139.7a15.6,15.6,0,0,1,15.1-1.3l46.9,20A16.3,16.3,0,0,1,231.6,175.1Zm-15.9-2-46.9-20-25,16.7a16,16,0,0,1-15.7,1.1,92.5,92.5,0,0,1-42.8-42.6,16,16,0,0,1,1-15.7L103,87.2,82.9,40.3A40,40,0,0,0,48,80,128.1,128.1,0,0,0,176,208,40,40,0,0,0,215.7,173.1Z"/></svg>