<svg id="Flat" xmlns="http://www.w3.org/2000/svg" viewBox="0 0 256 256">
  <path d="M176,224C96.59766,224,32,159.40234,32,80A56.07029,56.07029,0,0,1,80.91992,24.44434a16.037,16.037,0,0,1,16.65235,9.583l20.09179,46.87793a15.96924,15.96924,0,0,1-1.32031,15.06641L99.709,121.38965l-.00195.00195a76.54083,76.54083,0,0,0,35.20508,35.04981l25.043-16.69336a15.95163,15.95163,0,0,1,15.17871-1.39453l46.83789,20.07324a16.03476,16.03476,0,0,1,9.584,16.65234A56.07032,56.07032,0,0,1,176,224ZM82.86621,40.33105A40.01746,40.01746,0,0,0,48,80,128.1454,128.1454,0,0,0,176,208a40.04283,40.04283,0,0,0,39.68262-34.92578L168.832,153.06055l-25.03515,16.69433a15.98041,15.98041,0,0,1-15.74512,1.14063,92.59535,92.59535,0,0,1-42.76367-42.56934,15.993,15.993,0,0,1,1.03222-15.69824l16.63574-25.419Zm52.1416,116.15625h0Z"/>
</svg>
