<svg id="Flat" xmlns="http://www.w3.org/2000/svg" viewBox="0 0 256 256">
  <path d="M221.97168,158.42676l-46.83789-20.07324a15.949,15.949,0,0,0-15.17871,1.39453l-25.043,16.69336A76.54083,76.54083,0,0,1,99.707,121.3916l.00195-.00195,16.63477-25.418a15.96924,15.96924,0,0,0,1.32031-15.06641L97.57227,34.02734a16.03313,16.03313,0,0,0-16.65235-9.583A56.07029,56.07029,0,0,0,32,80c0,79.40234,64.59766,144,144,144a56.07032,56.07032,0,0,0,55.55566-48.9209A16.03476,16.03476,0,0,0,221.97168,158.42676ZM176,208A128.1454,128.1454,0,0,1,48,80,40.01746,40.01746,0,0,1,82.86621,40.33105L102.95605,87.209l-16.63574,25.419a15.993,15.993,0,0,0-1.03222,15.69824,92.59535,92.59535,0,0,0,42.76367,42.56934,15.98286,15.98286,0,0,0,15.74512-1.14063L168.832,153.06055l46.85059,20.01367A40.04283,40.04283,0,0,1,176,208ZM154.34277,90.34277,172.68555,72,154.34277,53.65723a8.00053,8.00053,0,0,1,11.31446-11.31446L184,60.68555l18.34277-18.34278a8.00053,8.00053,0,0,1,11.31446,11.31446L195.31445,72l18.34278,18.34277a8.00053,8.00053,0,0,1-11.31446,11.31446L184,83.31445l-18.34277,18.34278a8.00053,8.00053,0,0,1-11.31446-11.31446Z"/>
</svg>
