<svg xmlns="http://www.w3.org/2000/svg" viewBox="0 0 256 256"><path d="M120.9,108.3h-.1L89.8,74h-.1L53.9,34.6A8,8,0,0,0,42.1,45.4L70,76.1a143.9,143.9,0,0,0-43.8,30.1,56.1,56.1,0,0,0-4.7,73.9,16.2,16.2,0,0,0,12.6,6.1,17.1,17.1,0,0,0,5.9-1.1l47.4-19a16,16,0,0,0,9.7-11.7l5.9-29.5a72.1,72.1,0,0,1,9.1-2.5l90,99A8,8,0,0,0,208,224a8.2,8.2,0,0,0,5.4-2.1,7.9,7.9,0,0,0,.5-11.3Zm-23.3,1.5a16.1,16.1,0,0,0-10.3,12l-5.9,29.5L34.1,170.2a40,40,0,0,1,3.4-52.7,126.8,126.8,0,0,1,44-28.8L100,109.1Zm136.9,70.3a16.2,16.2,0,0,1-12.6,6.1,17.1,17.1,0,0,1-5.9-1.1l-4.1-1.7a8,8,0,0,1,6-14.8l4,1.6a40,40,0,0,0-3.4-52.7A128,128,0,0,0,121,80.2a8,8,0,1,1-.9-16,144.4,144.4,0,0,1,109.7,42A56.1,56.1,0,0,1,234.5,180.1Z"/></svg>