<svg id="Flat" xmlns="http://www.w3.org/2000/svg" viewBox="0 0 256 256">
  <path d="M151.68848,37.93457a7.99533,7.99533,0,0,1,9.79394-5.66309,88.16381,88.16381,0,0,1,62.2461,62.2461,7.99975,7.99975,0,1,1-15.457,4.13086,72.12078,72.12078,0,0,0-50.91992-50.91992A7.99952,7.99952,0,0,1,151.68848,37.93457Zm-2.6211,40.71094a40.06626,40.06626,0,0,1,28.28711,28.28711,7.99975,7.99975,0,0,0,15.457-4.13086,56.10589,56.10589,0,0,0-39.61328-39.61328,7.99975,7.99975,0,0,0-4.13086,15.457Zm82.48828,96.43359A56.07032,56.07032,0,0,1,176,224C96.59766,224,32,159.40234,32,80A56.07029,56.07029,0,0,1,80.91992,24.44434a16.04079,16.04079,0,0,1,16.65235,9.583l20.09179,46.87793a15.96924,15.96924,0,0,1-1.32031,15.06641L99.709,121.38965l-.00195.00195a76.54083,76.54083,0,0,0,35.20508,35.04981l25.043-16.69336a15.949,15.949,0,0,1,15.17871-1.39453l46.83789,20.07324A16.03476,16.03476,0,0,1,231.55566,175.0791Zm-15.873-2.00488L168.832,153.06055l-25.03515,16.69433a15.98286,15.98286,0,0,1-15.74512,1.14063,92.59535,92.59535,0,0,1-42.76367-42.56934,15.993,15.993,0,0,1,1.03222-15.69824l16.63574-25.419L82.86621,40.33105A40.01746,40.01746,0,0,0,48,80,128.1454,128.1454,0,0,0,176,208,40.04283,40.04283,0,0,0,215.68262,173.07422Z"/>
</svg>
