<svg id="Flat" xmlns="http://www.w3.org/2000/svg" viewBox="0 0 256 256">
  <path d="M221.97168,158.42676l-46.83789-20.07324a15.95163,15.95163,0,0,0-15.17871,1.39453l-25.043,16.69336A76.54083,76.54083,0,0,1,99.707,121.3916l.00195-.00195,16.63477-25.418a15.96924,15.96924,0,0,0,1.32031-15.06641L97.57227,34.02734a16.03058,16.03058,0,0,0-16.65235-9.583A56.07029,56.07029,0,0,0,32,80c0,79.40234,64.59766,144,144,144a56.07032,56.07032,0,0,0,55.55566-48.9209A16.03476,16.03476,0,0,0,221.97168,158.42676ZM176,208A128.1454,128.1454,0,0,1,48,80,40.01746,40.01746,0,0,1,82.86621,40.33105L102.95605,87.209l-16.63574,25.419a15.993,15.993,0,0,0-1.03222,15.69824,92.59535,92.59535,0,0,0,42.76367,42.56934,15.98528,15.98528,0,0,0,15.74512-1.14063L168.832,153.06055l46.85059,20.01367A40.04283,40.04283,0,0,1,176,208ZM154.34277,101.65723a8.00122,8.00122,0,0,1,0-11.31446L188.68555,56H168a8,8,0,0,1,0-16h40c.05957,0,.11768.00781.17676.00879.20263.00439.40527.01123.60742.03076.13818.01367.27246.03857.4082.05908.12256.01807.24512.03174.3667.05567.145.02881.28565.06836.42822.10449.11036.02832.22168.05225.33106.08545.13574.041.2666.09131.39941.13965.11426.041.2295.07861.3418.125.11963.0498.23438.10791.35107.16308.12061.05664.24219.11035.36084.17334.10645.05713.207.12207.31055.1836.12158.07226.24414.14111.36231.22021.10644.07129.20556.15039.3081.22656.10742.07959.21729.15479.32178.24024.14453.11914.28076.248.417.377.05469.05127.11279.09668.166.1499.05664.05664.10449.11768.15869.17578.12549.13282.251.26514.36719.40625.0913.11084.17138.22706.25537.3418.07031.09522.14453.188.21093.28662.085.12647.15918.25782.23584.38819.05567.09423.11524.186.167.2832.06933.12891.12841.26172.18994.39355.04931.10547.10205.209.147.31641.05225.127.09522.25586.14063.38477.042.11816.0874.23437.124.355.03906.1289.06787.25976.10058.39013.03077.123.06543.24414.09034.36914.02978.15186.04834.30469.06933.45752.01465.106.03516.20948.0459.3169.02637.26513.04.53125.04.79687V88a8,8,0,0,1-16,0V67.31445l-34.34277,34.34278a8.00181,8.00181,0,0,1-11.31446,0Z"/>
</svg>
