<svg id="Flat" xmlns="http://www.w3.org/2000/svg" viewBox="0 0 256 256.00004">
  <path d="M142,24H68c-.06055,0-.11914.00775-.17969.0091-.17334.00378-.34668.01111-.52051.0263-.103.009-.2041.02185-.30615.03467-.15332.01947-.30664.0415-.46.07019-.12305.02289-.24414.05023-.36523.07868-.12647.02984-.25244.06085-.37793.0971-.145.04163-.28711.08893-.42871.13843-.10108.03546-.20166.07074-.30176.11053-.15918.06293-.314.13257-.46777.20514-.05616.02655-.11377.04657-.16993.07459-.03076.01526-.0581.03412-.08789.04968-.14843.0766-.2915.15979-.43408.24512-.09228.05481-.18506.10828-.27393.16626-.11523.07562-.22607.1571-.3374.2384-.10693.07794-.21484.15467-.31689.23718-.084.06775-.1626.14051-.24365.21149-.11768.103-.23536.20526-.34571.31415-.06543.06445-.126.13342-.189.20007-.11377.12036-.22754.2403-.333.36682-.064.0763-.12158.15729-.18262.2359-.09375.12171-.189.24225-.27588.36872-.07129.10406-.13476.21344-.20166.321-.06591.10669-.13427.21155-.19482.321-.0752.13513-.14111.27551-.2085.41528-.04248.08838-.08838.17493-.12744.26471-.0664.15186-.123.30841-.18017.465-.03125.08538-.06543.16943-.09375.25586-.04834.14813-.08741.2998-.127.45159-.02685.10328-.05664.20563-.07959.31-.02832.13-.04931.26233-.07129.39453-.02246.134-.04541.2674-.06152.40259-.01221.10742-.01855.21619-.02637.32483-.01269.1637-.023.32733-.0249.49207C60.00488,31.93174,60,31.96531,60,32V164a74.08385,74.08385,0,0,0,74,74,7.99977,7.99977,0,0,0,8-8V172a74,74,0,0,0,0-148ZM76,65.88859,121.05566,156H76Zm50,64.2229L80.94434,40H126ZM76.55176,172H126v49.4502A58.12735,58.12735,0,0,1,76.55176,172ZM142,156V40a58,58,0,0,1,0,116Z"/>
</svg>
