<svg id="Flat" xmlns="http://www.w3.org/2000/svg" viewBox="0 0 256 256">
  <path d="M213.65674,42.34326a53.25417,53.25417,0,0,0-75.31348,0l-96.00049,96a53.25485,53.25485,0,1,0,75.314,75.31348l48-47.99976v-.00024l.00049-.00025,47.99951-47.99975A53.31469,53.31469,0,0,0,213.65674,42.34326Zm-107.314,160a37.25482,37.25482,0,1,1-52.686-52.68652L96,107.31348,148.68652,160Zm96.00049-96L160,148.68652,107.31348,96l42.34375-42.34326a37.25482,37.25482,0,0,1,52.686,52.68652Zm-12.104-23.416a7.99991,7.99991,0,0,1-.19629,11.312l-24.41553,23.584a8,8,0,0,1-11.11621-11.50781l24.416-23.584A8.00034,8.00034,0,0,1,190.23926,82.92725Z"/>
</svg>
