<svg id="Flat" xmlns="http://www.w3.org/2000/svg" viewBox="0 0 256 256">
  <path d="M239.30859,79.9873a16.03734,16.03734,0,0,0-4.22119-21.63085,184.07136,184.07136,0,0,0-214.1748,0A16.03734,16.03734,0,0,0,16.69141,79.9873h0l97.81,153.70166a15.99973,15.99973,0,0,0,26.99708,0l58.40966-91.78637c.02-.0315.04053-.06275.06006-.09448Zm-209.07421-8.627a168.06033,168.06033,0,0,1,195.57568.03711l-8.60938,13.5293a151.99626,151.99626,0,0,0-178.40136,0l-8.60938-13.5293Zm36.83593,57.9917a19.9963,19.9963,0,1,1,19.396,30.47949ZM128,225.09912,95.54053,174.09155A36.00175,36.00175,0,1,0,57.98584,115.0769L47.40723,98.45337a135.99305,135.99305,0,0,1,161.18554.00024L191.30127,125.626a35.99008,35.99008,0,0,0-38.64453,60.7268Zm33.251-52.25146a19.98866,19.98866,0,0,1,21.46289-33.7273Z"/>
</svg>
