<svg id="Flat" xmlns="http://www.w3.org/2000/svg" viewBox="0 0 256 256">
  <path d="M245.7793,60c-5.46875-9.47119-20.31641-18.43066-59.82422-8.47876A95.947,95.947,0,0,0,32,128a96.48271,96.48271,0,0,0,.748,11.99414C4.41748,169.2085,4.75488,186.5332,10.2207,196c3.69336,6.39746,11.875,12.78809,29.81348,12.78809a117.6895,117.6895,0,0,0,25.47559-3.23243c1.49121-.33447,3.0039-.69824,4.52978-1.08081A95.94721,95.94721,0,0,0,224,128a96.50758,96.50758,0,0,0-.749-12.00146c1.07959-1.11548,2.1372-2.229,3.15918-3.33838C251.69678,85.20508,250.90039,68.86914,245.7793,60ZM128,48a80.12351,80.12351,0,0,1,78.05176,62.51367c-16.146,15.39356-37.73047,31.15747-62.05176,45.19922-24.30713,14.03369-48.73682,24.84033-70.13184,31.12744A79.95539,79.95539,0,0,1,128,48ZM24.07715,188c-1.501-2.59961-.6582-7.48535,2.312-13.4043a83.03588,83.03588,0,0,1,10.74072-15.61841,96.05127,96.05127,0,0,0,18.668,32.21827C37.14258,194.51514,26.48145,192.16528,24.07715,188ZM128,208a79.50269,79.50269,0,0,1-37.91309-9.57324A369.106,369.106,0,0,0,152,169.56934a369.18863,369.18863,0,0,0,55.93945-39.18164A80.07882,80.07882,0,0,1,128,208ZM200.20215,64.80469a83.43249,83.43249,0,0,1,18.95166-1.50489c6.61377.38672,11.26807,2.09961,12.769,4.7002,2.40186,4.15967-.88476,14.54932-13.05322,29.02148A96.04352,96.04352,0,0,0,200.20215,64.80469Z"/>
</svg>
