<svg id="Flat" xmlns="http://www.w3.org/2000/svg" viewBox="0 0 256 256">
  <path d="M32,64a8.00008,8.00008,0,0,1,8-8H216a8,8,0,0,1,0,16H40A8.00008,8.00008,0,0,1,32,64Zm8,72H160a8,8,0,0,0,0-16H40a8,8,0,0,0,0,16Zm72,48H40a8,8,0,0,0,0,16h72a8,8,0,0,0,0-16Zm135.66309-57.70117a8.00071,8.00071,0,0,1-9.96192,5.36377L208,122.75244V192a32.04265,32.04265,0,1,1-16-27.69482V112a7.99991,7.99991,0,0,1,10.29883-7.6626l40,12A8.00071,8.00071,0,0,1,247.66309,126.29883ZM192,192a16,16,0,1,0-16,16A16.01833,16.01833,0,0,0,192,192Z"/>
</svg>
