<svg xmlns="http://www.w3.org/2000/svg" viewBox="0 0 256 256"><path d="M237.7,18.3a8.1,8.1,0,0,0-11.4,0L200,44.7l-5.4-5.4a31.9,31.9,0,0,0-45.2,0L124,64.7l-2.3-2.4a8.1,8.1,0,0,0-11.4,11.4l72,72a8.2,8.2,0,0,0,11.4,0,8.1,8.1,0,0,0,0-11.4l-2.4-2.3,25.4-25.4a31.9,31.9,0,0,0,0-45.2L211.3,56l26.4-26.3A8.1,8.1,0,0,0,237.7,18.3Zm-32.3,77L180,120.7,135.3,76l25.4-25.4a15.9,15.9,0,0,1,22.6,0l22.1,22.1a15.9,15.9,0,0,1,0,22.6Zm-67.1,43L120,156.7,99.3,136l18.4-18.3a8.1,8.1,0,0,0-11.4-11.4L88,124.7,73.7,110.3a8.1,8.1,0,0,0-11.4,11.4l2.4,2.3L39.3,149.4a31.9,31.9,0,0,0,0,45.2l5.4,5.4L18.3,226.3a8.1,8.1,0,0,0,0,11.4,8.2,8.2,0,0,0,11.4,0L56,211.3l5.4,5.4a32.1,32.1,0,0,0,45.2,0L132,191.3l2.3,2.4a8.2,8.2,0,0,0,11.4,0,8.1,8.1,0,0,0,0-11.4L131.3,168l18.4-18.3a8.1,8.1,0,0,0-11.4-11.4Zm-43,67.1a16.1,16.1,0,0,1-22.6,0L50.6,183.3a15.9,15.9,0,0,1,0-22.6L76,135.3,120.7,180Z"/></svg>