<svg id="Flat" xmlns="http://www.w3.org/2000/svg" viewBox="0 0 256 256">
  <path d="M210.6665,72H200V40a8.00008,8.00008,0,0,0-8-8H64a8.00008,8.00008,0,0,0-8,8V72H45.3335C31.36475,72,20,82.7666,20,96v80a8.00008,8.00008,0,0,0,8,8H56v36a8.00008,8.00008,0,0,0,8,8H192a8.00008,8.00008,0,0,0,8-8V184h28a8.00008,8.00008,0,0,0,8-8V96C236,82.7666,224.63525,72,210.6665,72ZM72,48H184V72H72ZM184,212H72V160H184Zm36-44H200V152a8.00008,8.00008,0,0,0-8-8H64a8.00008,8.00008,0,0,0-8,8v16H36V96c0-4.41113,4.187-8,9.3335-8h165.333C215.813,88,220,91.58887,220,96Zm-19.99414-52a12,12,0,1,1-12-12A12.01343,12.01343,0,0,1,200.00586,116Z"/>
</svg>
