<svg id="Flat" xmlns="http://www.w3.org/2000/svg" viewBox="0 0 256 256">
  <path d="M199.99414,116a12,12,0,1,1-12-12A12,12,0,0,1,199.99414,116Zm36-20v80a8.00008,8.00008,0,0,1-8,8h-28v36a8.00008,8.00008,0,0,1-8,8h-128a8.00008,8.00008,0,0,1-8-8V184h-28a8.00008,8.00008,0,0,1-8-8V96c0-13.2334,11.36475-24,25.3335-24h10.6665V40a8.00008,8.00008,0,0,1,8-8h128a8.00008,8.00008,0,0,1,8,8V72h10.6665C224.62939,72,235.99414,82.7666,235.99414,96Zm-164-24h112V48h-112Zm112,88h-112v52h112Zm36-64c0-4.41113-4.187-8-9.3335-8H45.32764c-5.14649,0-9.3335,3.58887-9.3335,8v72h20V152a8.00008,8.00008,0,0,1,8-8h128a8.00008,8.00008,0,0,1,8,8v16h20Z"/>
</svg>
