<svg xmlns="http://www.w3.org/2000/svg" viewBox="0 0 256 256"><path d="M236.7,96A15.9,15.9,0,0,0,232,84.7L171.3,24a16.1,16.1,0,0,0-22.6,0h0L90,82.7c-10.7-3.3-35-7.4-60.4,13.1a15.9,15.9,0,0,0-1.3,23.8L76.7,168,42.3,202.3a8.1,8.1,0,0,0,0,11.4,8.2,8.2,0,0,0,11.4,0L88,179.3l48.2,48.2a16.1,16.1,0,0,0,11.3,4.7h1.1a16.3,16.3,0,0,0,11.7-6.4c19.6-26.1,17.7-47.3,13.2-60L232,107.3A15.9,15.9,0,0,0,236.7,96Zm-78.4,62.3a8.2,8.2,0,0,0-1.5,9.3c9.5,18.9-1.8,38.6-9.3,48.6L39.6,108.3C51.7,98.5,63.3,96,72.1,96S88,98.9,88.4,99.2a8.2,8.2,0,0,0,9.3-1.5L160,35.3,220.7,96Z"/></svg>