<svg id="Flat" xmlns="http://www.w3.org/2000/svg" viewBox="0 0 256 256">
  <path d="M75.97412,32a7.99977,7.99977,0,0,1,8-8h88.78613a15.94983,15.94983,0,0,1,15.92041,14.40723l11.11475,111.123a8.00011,8.00011,0,0,1-7.16406,8.75684c-.27.02685-.53955.04-.80567.04a8.00048,8.00048,0,0,1-7.95068-7.2041L172.76025,40H83.97412A7.99977,7.99977,0,0,1,75.97412,32ZM227.87988,237.9209a8,8,0,0,1-11.30078-.541L182.61377,200H136v40a8,8,0,0,1-16,0V200H48.8042a16.02766,16.02766,0,0,1-15.66162-19.30273,55.69361,55.69361,0,0,1,23.44433-35.0625.32987.32987,0,0,0,.01416-.06934l7.59082-75.89209L27.5791,29.37988A8,8,0,0,1,39.4209,18.62012L191.749,186.26172a8.1162,8.1162,0,0,1,.67871.74658l35.99317,39.61182A8,8,0,0,1,227.87988,237.9209Zm-59.80224-53.918L78.67725,85.61475l-6.15577,61.543a15.93739,15.93739,0,0,1-6.895,11.6792,39.78372,39.78372,0,0,0-16.81,25.0752.10209.10209,0,0,0,.02.1084l78.99121-.01172c.05761-.00147.11425-.00879.17236-.00879.05762,0,.11377.00732.17139.00879Z"/>
</svg>
