<svg id="Flat" xmlns="http://www.w3.org/2000/svg" viewBox="0 0 256 256">
  <path d="M222.85742,180.69727h0a55.6965,55.6965,0,0,0-23.44433-35.063.31793.31793,0,0,1-.01416-.06885L188.68066,38.40771A15.94987,15.94987,0,0,0,172.76025,24H83.23975A15.94952,15.94952,0,0,0,67.31934,38.40771L56.60107,145.56543a.35491.35491,0,0,1-.01367.06885,55.69344,55.69344,0,0,0-23.44482,35.063A16.02766,16.02766,0,0,0,48.8042,200H120v40a8,8,0,0,0,16,0V200h71.1958a16.02766,16.02766,0,0,0,15.66162-19.30273Zm-94.65478,3.313C128.13477,184.00879,128.06836,184,128,184c-.06885,0-.13525.00879-.20361.01025l-78.96.01026a.10209.10209,0,0,1-.02-.1084A39.78489,39.78489,0,0,1,65.626,158.83691a15.93792,15.93792,0,0,0,6.8955-11.6792L83.23975,40h89.5205l10.71827,107.15771a15.93943,15.93943,0,0,0,6.8955,11.6792,39.78489,39.78489,0,0,1,16.80957,25.0752A.34719.34719,0,0,1,207.1958,184Z"/>
</svg>
