<svg id="Flat" xmlns="http://www.w3.org/2000/svg" viewBox="0 0 256 256">
  <path d="M220.27441,158.543a7.99887,7.99887,0,0,0-7.70654-.46387,20.00286,20.00286,0,1,1,.00049-36.1582A8.00058,8.00058,0,0,0,224,114.69434L223.99951,72A16.01875,16.01875,0,0,0,207.999,56l-36.21679.001A36.73253,36.73253,0,0,0,171.99951,52a36.1407,36.1407,0,0,0-11.3584-26.24512,35.99991,35.99991,0,0,0-60.54785,23.627,36.3922,36.3922,0,0,0,.13233,6.61914L64,56A16,16,0,0,0,48,72v32.21777a36.09412,36.09412,0,0,0-30.24561,11.14161,36,36,0,0,0,23.62745,60.54687A36.33472,36.33472,0,0,0,48,175.77441V208a16,16,0,0,0,16,16H207.99951a16.01864,16.01864,0,0,0,16-16L224,165.30566A8.00126,8.00126,0,0,0,220.27441,158.543ZM207.99951,208H64l.00049-42.69434a8.0005,8.0005,0,0,0-11.43213-7.22656,20,20,0,1,1,0-36.1582,7.99985,7.99985,0,0,0,11.43213-7.22656L64,72l46.69434.001h0a8.00008,8.00008,0,0,0,7.22656-11.43262,19.99976,19.99976,0,1,1,36.15771,0A8.00008,8.00008,0,0,0,161.30518,72.001L207.99951,72,208,104.22559a35.97771,35.97771,0,0,0-39.92773,33.46484,35.70712,35.70712,0,0,0,9.68164,26.95019A36.0951,36.0951,0,0,0,208,175.78223Z"/>
</svg>
