<svg xmlns="http://www.w3.org/2000/svg" viewBox="0 0 256 256"><path d="M220.3,158.5a8.1,8.1,0,0,0-7.7-.4,20.2,20.2,0,0,1-23.2-4.4,20,20,0,0,1,13.1-33.6,19.6,19.6,0,0,1,10.1,1.8,8.1,8.1,0,0,0,7.7-.4,8.2,8.2,0,0,0,3.7-6.8V72a16,16,0,0,0-16-16H171.8c.1-1.3.2-2.7.2-4a35.6,35.6,0,0,0-11.4-26.2,35.3,35.3,0,0,0-26.9-9.7,36,36,0,0,0-33.6,33.3,36.4,36.4,0,0,0,.1,6.6H64A16,16,0,0,0,48,72v32.2l-4-.2a35.6,35.6,0,0,0-26.2,11.4,35.3,35.3,0,0,0-9.7,26.9,36,36,0,0,0,33.3,33.6,36.4,36.4,0,0,0,6.6-.1V208a16,16,0,0,0,16,16H208a16,16,0,0,0,16-16V165.3A8.2,8.2,0,0,0,220.3,158.5ZM208,208H64V165.3a8.2,8.2,0,0,0-3.7-6.8,8.1,8.1,0,0,0-7.7-.4,19.6,19.6,0,0,1-10.1,1.8,20,20,0,0,1-13.1-33.6,20.2,20.2,0,0,1,23.2-4.4,8.1,8.1,0,0,0,7.7-.4,8.2,8.2,0,0,0,3.7-6.8V72h46.7a8.2,8.2,0,0,0,6.8-3.7,8.1,8.1,0,0,0,.4-7.7,19.6,19.6,0,0,1-1.8-10.1,20,20,0,0,1,33.6-13.1,20.2,20.2,0,0,1,4.4,23.2,8.1,8.1,0,0,0,.4,7.7,8.2,8.2,0,0,0,6.8,3.7H208v32.2a36.4,36.4,0,0,0-6.6-.1,36,36,0,0,0-33.3,33.6A36.1,36.1,0,0,0,204,176l4-.2Z"/></svg>