<svg id="Flat" xmlns="http://www.w3.org/2000/svg" viewBox="0 0 256 256">
  <path d="M104.00244,40h-48a16.01833,16.01833,0,0,0-16,16v48a16.01833,16.01833,0,0,0,16,16h48a16.01833,16.01833,0,0,0,16-16V56A16.01833,16.01833,0,0,0,104.00244,40Zm0,64h-48V56h48l.00977,48Zm0,32h-48a16.01833,16.01833,0,0,0-16,16v48a16.01833,16.01833,0,0,0,16,16h48a16.01833,16.01833,0,0,0,16-16V152A16.01833,16.01833,0,0,0,104.00244,136Zm0,64h-48V152h48l.00977,48Zm96-160h-48a16.01833,16.01833,0,0,0-16,16v48a16.01833,16.01833,0,0,0,16,16h48a16.01833,16.01833,0,0,0,16-16V56A16.01833,16.01833,0,0,0,200.00244,40Zm0,64h-48V56h48l.00977,48Zm-64,72V144a8,8,0,0,1,16,0v32a8,8,0,0,1-16,0Zm80-16a8.00039,8.00039,0,0,1-8,8h-24v40a8.00039,8.00039,0,0,1-8,8h-32a8,8,0,1,1,0-16h24V144a8,8,0,0,1,16,0v8h24A8.00039,8.00039,0,0,1,216.00244,160Zm0,32v16a8,8,0,0,1-16,0V192a8,8,0,0,1,16,0Z"/>
</svg>
