<svg xmlns="http://www.w3.org/2000/svg" viewBox="0 0 256 256"><path d="M216,72H86.5L194.3,39.7a8,8,0,1,0-4.6-15.4l-160,48h0l-.7.3h-.1l-.5.3H28a6.8,6.8,0,0,0-2.1,1.7.1.1,0,0,1-.1.1c-.1.1-.1.2-.2.4l-.2.2a.3.3,0,0,0-.1.2,6.7,6.7,0,0,0-1,2.3c-.1.1-.1.2-.1.4h-.1a2,2,0,0,1-.1.7h0V80h0V200a16,16,0,0,0,16,16H216a16,16,0,0,0,16-16V88A16,16,0,0,0,216,72Zm0,128H40V88H216V200Zm-56-96a40,40,0,1,0,40,40A40,40,0,0,0,160,104Zm0,64a24,24,0,1,1,24-24A24.1,24.1,0,0,1,160,168Zm-56-56a8,8,0,0,1-8,8H64a8,8,0,0,1,0-16H96A8,8,0,0,1,104,112Zm0,32a8,8,0,0,1-8,8H64a8,8,0,0,1,0-16H96A8,8,0,0,1,104,144Zm0,32a8,8,0,0,1-8,8H64a8,8,0,0,1,0-16H96A8,8,0,0,1,104,176Z"/></svg>