<svg id="Flat" xmlns="http://www.w3.org/2000/svg" viewBox="0 0 256 256">
  <path d="M216,72H86.50909L194.29883,39.66309a8.00047,8.00047,0,0,0-4.59766-15.32618l-160,48-.02209.00782c-.21741.06591-.42908.144-.63819.22729-.03985.01587-.08191.02808-.12133.04444-.17945.075-.35236.16174-.52491.249-.06671.03369-.137.06225-.20245.09765-.06421.03467-.1239.07642-.187.1128a7.95387,7.95387,0,0,0-2.10163,1.7511c-.02575.03039-.0545.05786-.07983.08862-.08978.10925-.16992.22546-.25366.33923-.071.096-.14624.18836-.213.2876-.03644.05432-.06671.11231-.10181.1676a7.9453,7.9453,0,0,0-.98889,2.27381c-.03461.1322-.07416.26269-.102.39685-.00794.03869-.01135.07885-.01874.11767-.04315.22473-.08.451-.10376.68006-.0014.01342-.0011.0271-.00244.04052q-.03755.38086-.03876.76734L24,80V200a16.01833,16.01833,0,0,0,16,16H216a16.01833,16.01833,0,0,0,16-16V88A16.01833,16.01833,0,0,0,216,72Zm0,128H40V88H216l.00977,112Zm-56-96a40,40,0,1,0,40,40A40.04584,40.04584,0,0,0,160,104Zm0,64a24,24,0,1,1,24-24A24.0275,24.0275,0,0,1,160,168Zm-56-56a8.00039,8.00039,0,0,1-8,8H64a8,8,0,0,1,0-16H96A8.00039,8.00039,0,0,1,104,112Zm0,32a8.00039,8.00039,0,0,1-8,8H64a8,8,0,0,1,0-16H96A8.00039,8.00039,0,0,1,104,144Zm0,32a8.00039,8.00039,0,0,1-8,8H64a8,8,0,0,1,0-16H96A8.00039,8.00039,0,0,1,104,176Z"/>
</svg>
