<svg xmlns="http://www.w3.org/2000/svg" viewBox="0 0 256 256"><path d="M68,104a8,8,0,0,1,8-8H180a8,8,0,0,1,0,16H76A8,8,0,0,1,68,104Zm8,40H180a8,8,0,0,0,0-16H76a8,8,0,0,0,0,16ZM232,56V208a7.9,7.9,0,0,1-3.8,6.8,8,8,0,0,1-7.8.4L192,200.9l-28.4,14.3a8.5,8.5,0,0,1-7.2,0L128,200.9,99.6,215.2a8.3,8.3,0,0,1-7.2,0L64,200.9,35.6,215.2a8,8,0,0,1-7.8-.4A7.9,7.9,0,0,1,24,208V56A16,16,0,0,1,40,40H216A16,16,0,0,1,232,56Zm-16,0H40V195.1l20.4-10.3a8.3,8.3,0,0,1,7.2,0L96,199.1l28.4-14.3a8.5,8.5,0,0,1,7.2,0L160,199.1l28.4-14.3a8.3,8.3,0,0,1,7.2,0L216,195.1Z"/></svg>