<svg id="Flat" xmlns="http://www.w3.org/2000/svg" viewBox="0 0 256 256">
  <path d="M88,148a16,16,0,1,1,16-16A16.01833,16.01833,0,0,1,88,148Zm80-32a16,16,0,1,0,16,16A16.01833,16.01833,0,0,0,168,116ZM157.356,168.8926a64.09534,64.09534,0,0,1-58.71143,0,8,8,0,0,0-7.34033,14.2168,80.122,80.122,0,0,0,73.39209,0,8,8,0,1,0-7.34033-14.2168Zm80.29883-41.34277A59.04669,59.04669,0,0,1,240,144c0,21.93457-12.042,42.35156-33.90723,57.48926C185.125,216.00588,157.39111,224,128,224s-57.125-7.99414-78.09277-22.51074C28.042,186.35158,16,165.93459,16,144a59.04669,59.04669,0,0,1,2.34521-16.45019A31.99248,31.99248,0,0,1,60.937,79.80959c17.4458-9.26806,38.41944-14.70532,60.25879-15.647l6.91309-41.478a8.00122,8.00122,0,0,1,9.10742-6.5918l29.64209,4.56006a23.99705,23.99705,0,1,1-2.43506,15.814l-21.83105-3.3584L137.39648,64.2842c20.9043,1.24634,40.91163,6.62427,57.66651,15.52539a31.99249,31.99249,0,0,1,42.5918,47.74024ZM180,32a8,8,0,1,0,8-8A8.00917,8.00917,0,0,0,180,32Zm52,72a16.00115,16.00115,0,0,0-28.94336-9.4082,8.00139,8.00139,0,0,1-10.38672,2.26269q-.21606-.12158-.42187-.25488C174.55029,85.897,151.75293,80.00442,128.02344,80.00051l-.01367.00049-.02-.00073c-23.73438.0017-46.53614,5.89477-64.23682,16.59936-.11816.07617-.23828.14941-.36133.21973a7.99806,7.99806,0,0,1-10.44824-2.22754A16.00187,16.00187,0,1,0,31.86865,117.7842,8.00079,8.00079,0,0,1,35.144,127.82815,43.6728,43.6728,0,0,0,32,144c0,16.5293,9.59375,32.27344,27.01465,44.334C77.33252,201.01565,101.832,208,128,208s50.66748-6.98437,68.98535-19.666C214.40625,176.27346,224,160.52932,224,144a43.68424,43.68424,0,0,0-3.16064-16.21387,7.99979,7.99979,0,0,1,3.292-10.002A16.08945,16.08945,0,0,0,232,104Z"/>
</svg>
