<svg id="Flat" xmlns="http://www.w3.org/2000/svg" viewBox="0 0 256 256">
  <path d="M24,128A72.08124,72.08124,0,0,1,96,56H204.68634L194.34277,45.65674a8.00018,8.00018,0,1,1,11.31446-11.31348l24,24c.024.02393.044.05078.06768.07471.15967.16406.31482.332.46009.50928.08423.10254.15783.21045.2362.31591.077.10352.15747.20459.2295.312.082.12255.15332.24951.22784.375.05835.09863.1203.19433.1745.29541.06793.127.12579.25732.1864.38671.05042.10743.10425.2129.15.32325.052.12549.09412.25341.13941.38086.04248.11914.08832.23632.12524.35791.03888.12841.06763.25927.1.38916.03076.123.06555.24511.09045.3706.03009.15088.04846.30371.0697.45654.01478.106.03522.21.04578.31739a8.04267,8.04267,0,0,1,0,1.584c-.01056.10742-.031.21143-.04578.31739-.02124.15283-.03961.30566-.0697.45654-.0249.12549-.05969.24756-.09045.3706-.03235.12989-.0611.26075-.1.38916-.03692.12159-.08276.23877-.12524.35791-.04529.12745-.08746.25537-.13941.38086-.04571.11035-.09954.21582-.15.32325-.06061.12939-.11847.25976-.1864.38671-.0542.10108-.11615.19678-.1745.29541-.07452.12549-.14587.25245-.22784.375-.072.10743-.15247.2085-.2295.312-.07837.10546-.152.21337-.2362.31591-.14264.17383-.29505.33887-.4516.49952-.02661.02734-.04907.05761-.07617.08447l-24,24a8.00018,8.00018,0,0,1-11.31446-11.31348L204.68634,72H96a56.06322,56.06322,0,0,0-56,56,8,8,0,0,1-16,0Zm200-8a8.00039,8.00039,0,0,0-8,8,56.06322,56.06322,0,0,1-56,56H51.31366l10.34357-10.34326a8.00018,8.00018,0,0,0-11.31446-11.31348l-24,24c-.024.02393-.044.05078-.06768.07471-.15967.16406-.31482.332-.46009.50928-.08423.10254-.15783.21045-.2362.31591-.077.10352-.15747.20459-.2295.312-.082.12255-.15332.24951-.22784.375-.05835.09863-.1203.19433-.1745.29541-.06793.12695-.12579.25732-.1864.38671-.05042.10743-.10425.2129-.15.32325-.052.12549-.09412.25341-.13941.38086-.04248.11914-.08832.23632-.12524.35791-.03888.12841-.06763.25927-.1.38916-.03076.123-.06555.24511-.09045.3706-.03009.15088-.04846.30371-.0697.45654-.01478.106-.03522.21-.04578.31739a8.04267,8.04267,0,0,0,0,1.584c.01056.10742.031.21143.04578.31739.02124.15283.03961.30566.0697.45654.0249.12549.05969.24756.09045.3706.03235.12989.0611.26075.1.38916.03692.12159.08276.23877.12524.35791.04529.12745.08746.25537.13941.38086.04571.11035.09954.21582.15.32325.06061.12939.11847.25976.1864.38671.0542.10108.11615.19678.1745.29541.07452.12549.14587.25245.22784.375.072.10743.15247.2085.2295.312.07837.10546.152.21337.2362.31591.14264.17383.295.33887.4516.49952.02661.02734.04907.05761.07617.08447l24,24a8.00018,8.00018,0,1,0,11.31446-11.31348L51.31366,200H160a72.08124,72.08124,0,0,0,72-72A8.00039,8.00039,0,0,0,224,120Zm-92,40a8.00039,8.00039,0,0,0,8-8V104a7.99986,7.99986,0,0,0-11.5752-7.15674l-16,7.99268a8.00006,8.00006,0,0,0,7.1504,14.31347l4.4248-2.21V152A8.00039,8.00039,0,0,0,132,160Z"/>
</svg>
