<svg xmlns="http://www.w3.org/2000/svg" viewBox="0 0 256 256"><path d="M24,128A72.1,72.1,0,0,1,96,56H204.7L194.3,45.7a8.1,8.1,0,0,1,11.4-11.4l24,24a8.1,8.1,0,0,1,0,11.4l-24,24a8.2,8.2,0,0,1-11.4,0,8.1,8.1,0,0,1,0-11.4L204.7,72H96a56,56,0,0,0-56,56,8,8,0,0,1-16,0Zm200-8a8,8,0,0,0-8,8,56,56,0,0,1-56,56H51.3l10.4-10.3a8.1,8.1,0,0,0-11.4-11.4l-24,24a8.1,8.1,0,0,0,0,11.4l24,24a8.2,8.2,0,0,0,11.4,0,8.1,8.1,0,0,0,0-11.4L51.3,200H160a72.1,72.1,0,0,0,72-72A8,8,0,0,0,224,120Zm-92,40a8,8,0,0,0,8-8V104a7.9,7.9,0,0,0-3.8-6.8,8,8,0,0,0-7.8-.4l-16,8a8.2,8.2,0,0,0-3.6,10.8,8.1,8.1,0,0,0,10.8,3.5l4.4-2.2V152A8,8,0,0,0,132,160Z"/></svg>