<svg id="Flat" xmlns="http://www.w3.org/2000/svg" viewBox="0 0 256 256">
  <path d="M227.667,56.61035a15.99453,15.99453,0,0,0-16.31933.584L124,113.34631v-42.693a16.00057,16.00057,0,0,0-24.65234-13.459L10.1416,114.541a16.0005,16.0005,0,0,0,0,26.918l89.20606,57.34668A16.00057,16.00057,0,0,0,124,185.34668v-42.693l87.34766,56.152A16.00057,16.00057,0,0,0,236,185.34668V70.65332A15.99263,15.99263,0,0,0,227.667,56.61035ZM108,185.34668,18.7666,128.01953A.196.196,0,0,1,18.794,128L108,70.65332Zm112,0-89.2334-57.32715A.196.196,0,0,1,130.794,128L220,70.65332Z"/>
</svg>
