<svg xmlns="http://www.w3.org/2000/svg" viewBox="0 0 256 256"><path d="M128,24A104,104,0,1,0,232,128,104.2,104.2,0,0,0,128,24Zm0,192a88,88,0,1,1,88-88A88.1,88.1,0,0,1,128,216ZM179.8,88.9a8.3,8.3,0,0,0-8.2.4l-48,32a8,8,0,0,0,0,13.4l48,32A8.4,8.4,0,0,0,176,168a8.5,8.5,0,0,0,3.8-.9A8,8,0,0,0,184,160V96A8,8,0,0,0,179.8,88.9ZM168,145.1,142.4,128,168,110.9ZM115.8,88.9a8.3,8.3,0,0,0-8.2.4l-48,32a8,8,0,0,0,0,13.4l48,32A8.4,8.4,0,0,0,112,168a8.5,8.5,0,0,0,3.8-.9A8,8,0,0,0,120,160V96A8,8,0,0,0,115.8,88.9ZM104,145.1,78.4,128,104,110.9Z"/></svg>