<svg xmlns="http://www.w3.org/2000/svg" viewBox="0 0 256 256"><path d="M152,224a8,8,0,0,1-8,8H112a8,8,0,0,1,0-16h32A8,8,0,0,1,152,224ZM128,108a12,12,0,1,0-12-12A12,12,0,0,0,128,108Zm95,49.6-12.4,55.6a15.9,15.9,0,0,1-10.3,11.6,17,17,0,0,1-5.4.9,16,16,0,0,1-9.9-3.5L157.2,200H98.8L71,222.2a16,16,0,0,1-9.9,3.5,17,17,0,0,1-5.4-.9,15.9,15.9,0,0,1-10.3-11.6L33,157.6a16.1,16.1,0,0,1,3.4-13.7L66,108.3a121.5,121.5,0,0,1,8.1-35.7c11.7-30.2,32.5-50,43.9-59.1a15.9,15.9,0,0,1,20,.1c11.3,9.1,31.8,28.9,43.4,59.1a125.4,125.4,0,0,1,8,34.9l30.2,36.3A16.1,16.1,0,0,1,223,157.6ZM100.7,184h54.5C169.4,157,198.3,83.1,128,26,109.2,41,52.7,96.3,100.7,184Zm-15,6q-15.6-29.4-19.1-57.4L48.7,154.1,61,209.7Zm121.6-35.9-18.3-22c-2.2,18.8-8.4,38.1-18.8,57.8L195,209.7Z"/></svg>