<svg xmlns="http://www.w3.org/2000/svg" viewBox="0 0 256 256"><path d="M101.6,187.1c-5.4,16.4-18.4,28.4-37.5,34.8a91.8,91.8,0,0,1-26.6,4.6,8,8,0,0,1-8-8,91.8,91.8,0,0,1,4.6-26.6c6.4-19.1,18.4-32.1,34.8-37.5A8,8,0,1,1,74,169.5c-19.7,6.6-25.8,27.9-27.7,40.2,12.3-1.9,33.6-8,40.2-27.7a8,8,0,0,1,15.1,5.1ZM201.5,111l-8.9,9v61.3a16.2,16.2,0,0,1-4.7,11.3l-32.4,32.3a15.6,15.6,0,0,1-11.3,4.7,14.7,14.7,0,0,1-4.6-.7,16,16,0,0,1-11.1-12.2l-7.9-39.5L78.8,135.4l-39.5-7.9a16,16,0,0,1-12.2-11.1,15.9,15.9,0,0,1,4-15.9L63.4,68.1a16.2,16.2,0,0,1,11.3-4.7H136l9-8.9c28.6-28.6,57.9-27.8,69.2-26.1a15.7,15.7,0,0,1,13.4,13.4C229.3,53.1,230.1,82.4,201.5,111Zm-159.1.8,37.7,7.5L120,79.4H74.7ZM94.1,128,128,161.9l62.2-62.2c7.8-7.8,25.6-28.8,21.6-55.5-26.7-4-47.7,13.8-55.5,21.6Zm82.5,8-39.9,39.9,7.5,37.7,32.4-32.3Z"/></svg>