<svg id="Flat" xmlns="http://www.w3.org/2000/svg" viewBox="0 0 256 256">
  <path d="M98.91748,157.08789A71.531,71.531,0,0,1,120.00586,208a8,8,0,0,1-16,0,56.00027,56.00027,0,0,0-56-56,8,8,0,1,1,0-16A71.53149,71.53149,0,0,1,98.91748,157.08789ZM48.00586,88a8,8,0,1,0,0,16,104.00181,104.00181,0,0,1,104,104,8,8,0,0,0,16,0,120.00093,120.00093,0,0,0-120-120ZM166.7998,89.20605A166.90562,166.90562,0,0,0,48.00586,40a8,8,0,0,0,0,16,151.00491,151.00491,0,0,1,107.48047,44.52051A151.00325,151.00325,0,0,1,200.00586,208a8,8,0,0,0,16,0A166.90192,166.90192,0,0,0,166.7998,89.20605ZM52.00586,192a12,12,0,1,0,12,12A12.01343,12.01343,0,0,0,52.00586,192Z"/>
</svg>
