<svg id="Flat" xmlns="http://www.w3.org/2000/svg" viewBox="0 0 256 256">
  <path d="M98.91162,157.08752A71.531,71.531,0,0,1,120,207.99963a8,8,0,1,1-16,0,56.00029,56.00029,0,0,0-56-56,8,8,0,0,1,0-16A71.53147,71.53147,0,0,1,98.91162,157.08752ZM48,87.99963a8,8,0,0,0,0,16,104.00183,104.00183,0,0,1,104,104,8,8,0,1,0,16,0,120.00093,120.00093,0,0,0-120-120Zm118.794,1.20606A166.90561,166.90561,0,0,0,48,39.99963a8,8,0,0,0,0,16,151.00491,151.00491,0,0,1,107.48047,44.52051A151.00328,151.00328,0,0,1,200,207.99963a8,8,0,1,0,16,0A166.90191,166.90191,0,0,0,166.794,89.20569ZM52,192.00012a12,12,0,1,0,12,12A12,12,0,0,0,52,192.00012Z"/>
</svg>
