<svg id="Flat" xmlns="http://www.w3.org/2000/svg" viewBox="0 0 256 256">
  <path d="M232,76.68652,179.31348,23.999A16.02162,16.02162,0,0,0,156.68555,24L90.34277,90.34326h0L54.3457,126.34082l-.00293.00244-.00244.00293L24.001,156.68555A15.99888,15.99888,0,0,0,24,179.31348L76.68652,232.001A16.02252,16.02252,0,0,0,99.31445,232L232,99.31348a15.9989,15.9989,0,0,0,0-22.627ZM220.68652,87.999l-.001.001L88,220.68652,35.31445,168,60,143.314l26.34277,26.34278a8.00018,8.00018,0,1,0,11.31446-11.31348L71.314,132,96,107.314l26.34277,26.34278a8.00018,8.00018,0,0,0,11.31446-11.31348L107.314,96,132,71.314l26.34277,26.34278a8.00018,8.00018,0,0,0,11.31446-11.31348L143.314,60,168,35.31348,220.69336,87.9917Z"/>
</svg>
