<svg id="Flat" xmlns="http://www.w3.org/2000/svg" viewBox="0 0 256 256">
  <path d="M239.42773,133.0293l-32-80c-.0122-.03076-.03027-.05762-.043-.08838a7.93794,7.93794,0,0,0-.4834-.98487c-.01172-.01953-.02491-.03759-.03662-.05761a7.96915,7.96915,0,0,0-.58594-.84424c-.03906-.04981-.07715-.10059-.11768-.14941a7.95622,7.95622,0,0,0-.72754-.773c-.03418-.03174-.07129-.06006-.10644-.09131a7.92716,7.92716,0,0,0-.7417-.58594c-.05518-.03857-.10889-.0791-.16455-.11621a8.09118,8.09118,0,0,0-.9043-.52c-.05127-.0249-.104-.0459-.15576-.07031a8.07416,8.07416,0,0,0-.89551-.352c-.04785-.01514-.09424-.0337-.14258-.04834a7.94227,7.94227,0,0,0-1.05713-.24317c-.05126-.00781-.10253-.01318-.15429-.02051a7.98718,7.98718,0,0,0-1.04053-.07861C200.04688,48.00488,200.02393,48,200,48l-.02783.002a8.046,8.046,0,0,0-1.082.082c-.08545.01221-.16944.02832-.25391.043-.124.022-.24756.03614-.37158.06348L136,62.02686V40a8,8,0,0,0-16,0V65.58252L54.26465,80.19043c-.16553.03662-.32422.0874-.48486.13379-.06934.02-.13965.03564-.208.05762a7.81473,7.81473,0,0,0-.97754.38427c-.05713.02686-.11182.05713-.16846.08545a7.88941,7.88941,0,0,0-.81836.47071c-.04394.0288-.08935.05517-.13281.085a7.96988,7.96988,0,0,0-.82764.65381c-.04834.04345-.09326.08984-.14062.13476a7.91376,7.91376,0,0,0-.62989.66943c-.041.04883-.08447.09424-.124.14405a8.05032,8.05032,0,0,0-.58935.84912c-.041.06836-.07911.13818-.11866.208a8.06193,8.06193,0,0,0-.45459.92675c-.00488.0127-.01269.02344-.01757.03614l-.01172.02832-.01075.02832L16.57227,165.0293A7.99723,7.99723,0,0,0,16,168c0,23.3125,24.53516,32,40,32s40-8.6875,40-32a7.99723,7.99723,0,0,0-.57227-2.9707L66.92334,93.76758,120,81.97314V208H104a8,8,0,0,0,0,16h48a8,8,0,0,0,0-16H136V78.41748l50.94531-11.32129-26.373,65.93311A7.99723,7.99723,0,0,0,160,136c0,23.3125,24.53516,32,40,32s40-8.6875,40-32A7.99723,7.99723,0,0,0,239.42773,133.0293ZM56,184c-7.52832,0-22.76465-3.61426-23.9292-14.63672L56,109.541l23.9292,59.82226C78.76465,180.38574,63.52832,184,56,184Zm144-32c-7.52832,0-22.76465-3.61426-23.9292-14.63672L200,77.541l23.9292,59.82226C222.76465,148.38574,207.52832,152,200,152Z"/>
</svg>
