<svg xmlns="http://www.w3.org/2000/svg" viewBox="0 0 256 256"><path d="M239.4,133l-32-80h0l-.5-.9h0l-.6-.8c-.1-.1-.1-.1-.1-.2l-.8-.8h-.1l-.7-.5-.2-.2-.9-.5h-.1l-.9-.3h-.2l-1-.2h-3L136,62V40a8,8,0,0,0-16,0V65.6L54.3,80.2h-.7l-1,.4h-.2l-.8.4a.1.1,0,0,1-.1.1l-.9.7a.1.1,0,0,1-.1.1l-.6.7h-.1a2.4,2.4,0,0,0-.6.9l-.2.2-.4.9h-.1L16.6,165a8,8,0,0,0-.6,3c0,23.3,24.5,32,40,32s40-8.7,40-32a8,8,0,0,0-.6-3L66.9,93.8,120,82V208H104a8,8,0,0,0,0,16h48a8,8,0,0,0,0-16H136V78.4l50.9-11.3L160.6,133a8,8,0,0,0-.6,3c0,23.3,24.5,32,40,32s40-8.7,40-32A8,8,0,0,0,239.4,133ZM56,184c-7.5,0-22.8-3.6-23.9-14.6L56,109.5l23.9,59.9C78.8,180.4,63.5,184,56,184Zm144-32c-7.5,0-22.8-3.6-23.9-14.6L200,77.5l23.9,59.9C222.8,148.4,207.5,152,200,152Z"/></svg>