<svg id="Flat" xmlns="http://www.w3.org/2000/svg" viewBox="0 0 256 256">
  <path d="M231.99414,56V200a16.01833,16.01833,0,0,1-16,16h-72a8,8,0,0,1,0-16h72V56h-176V96a8,8,0,0,1-16,0V56a16.01833,16.01833,0,0,1,16-16h176A16.01833,16.01833,0,0,1,231.99414,56Zm-200,128a8,8,0,0,0,0,16,8.00917,8.00917,0,0,1,8,8,8,8,0,0,0,16,0A24.02718,24.02718,0,0,0,31.99414,184Zm0-32a8,8,0,0,0,0,16,40.04552,40.04552,0,0,1,40,40,8,8,0,0,0,16,0A56.06322,56.06322,0,0,0,31.99414,152Zm0-32a8,8,0,0,0,0,16,72.08124,72.08124,0,0,1,72,72,8,8,0,0,0,16,0A88.09957,88.09957,0,0,0,31.99414,120Z"/>
</svg>
