<svg id="Flat" xmlns="http://www.w3.org/2000/svg" viewBox="0 0 256 256">
  <path d="M152,216a8.00008,8.00008,0,0,1-8,8H112a8,8,0,0,1,0-16h32A8.00008,8.00008,0,0,1,152,216ZM40,152a8.00008,8.00008,0,0,0,8-8V112a8,8,0,0,0-16,0v32A8.00008,8.00008,0,0,0,40,152Zm32,56H48V184a8,8,0,0,0-16,0v24a16.01833,16.01833,0,0,0,16,16H72a8,8,0,0,0,0-16Zm152,0a15.917,15.917,0,0,1-4.10571,10.66382,7.68852,7.68852,0,0,1-1.23145,1.2312A15.9162,15.9162,0,0,1,208,224H184a8,8,0,0,1,0-16h12.68555L48,59.31348V72a8,8,0,0,1-16,0V48a15.917,15.917,0,0,1,4.10571-10.66382,7.69153,7.69153,0,0,1,1.23047-1.23047A15.916,15.916,0,0,1,48,32H208a16.01833,16.01833,0,0,1,16,16ZM208,48H59.31445L208,196.68652Z"/>
</svg>
