<svg id="Flat" xmlns="http://www.w3.org/2000/svg" viewBox="0 0 256 256">
  <path d="M228.42041,226.62012l-38.30322-42.15357a7.95054,7.95054,0,0,0-.67823-.75073l-.01757-.01538L39.42041,18.62012a8,8,0,0,0-11.8418,10.75976l7.89746,8.69141A15.90954,15.90954,0,0,0,31.99951,48v58.667c0,89.45117,75.82617,119.124,91.02637,124.16406a15.49078,15.49078,0,0,0,9.94824,0,148.26445,148.26445,0,0,0,50.542-29.8374l33.0625,36.38623a8,8,0,0,0,11.8418-10.75976ZM127.99756,215.62305c-13.5166-4.49512-79.998-30.624-79.998-108.95606V51.85376L172.7583,189.1543A131.309,131.309,0,0,1,127.99756,215.62305ZM83.24658,40a8.00039,8.00039,0,0,1,8-8H207.99951a16.01833,16.01833,0,0,1,16,16v58.667c0,21.98145-4.67187,42.15039-13.88672,59.94824a8.00042,8.00042,0,1,1-14.209-7.35742c8.02637-15.501,12.0957-33.19531,12.0957-52.59082V48H91.24658A8.00039,8.00039,0,0,1,83.24658,40Z"/>
</svg>
