<svg id="Flat" xmlns="http://www.w3.org/2000/svg" viewBox="0 0 256 256">
  <path d="M207.99951,32.00012h-160a16.01834,16.01834,0,0,0-16,16v58.66651c0,89.45117,75.82617,119.124,91.02637,124.16406a15.4822,15.4822,0,0,0,9.94824,0c15.2002-5.03955,91.02539-34.7124,91.02539-124.16406V48.00012A16.01833,16.01833,0,0,0,207.99951,32.00012Zm0,74.66651c0,78.26074-66.35742,104.41308-80.00195,108.95605-13.5166-4.49463-79.998-30.62354-79.998-108.956V48.00012h160ZM78.47607,129.78723A7.99994,7.99994,0,1,1,89.523,118.213l23.81055,22.72754L166.47607,90.2135A7.99959,7.99959,0,1,1,177.523,101.78674l-58.666,56a7.99913,7.99913,0,0,1-11.04687.00049Z"/>
</svg>
