<svg id="Flat" xmlns="http://www.w3.org/2000/svg" viewBox="0 0 256 256">
  <path d="M207.99463,39.99512h-160a16.01833,16.01833,0,0,0-16,16v58.667c0,89.458,75.82617,119.125,91.02588,124.16406a15.488,15.488,0,0,0,9.94726,0c15.20069-5.03906,91.02686-34.70605,91.02686-124.16406v-58.667A16.01833,16.01833,0,0,0,207.99463,39.99512Zm0,74.667c0,78.26172-66.35108,104.41113-80.00244,108.95605C114.47559,219.124,47.99463,193,47.99463,114.66211v-58.667h160ZM88,128a8.00008,8.00008,0,0,1,8-8h24V96a8,8,0,0,1,16,0v24h24a8,8,0,0,1,0,16H136v24a8,8,0,0,1-16,0V136H96A8.00008,8.00008,0,0,1,88,128Z"/>
</svg>
