<svg id="Flat" xmlns="http://www.w3.org/2000/svg" viewBox="0 0 256 256">
  <path d="M207.99951,32.00012h-160a16.01818,16.01818,0,0,0-16,16v58.66651c0,89.45117,75.82617,119.124,91.02637,124.16406a15.4822,15.4822,0,0,0,9.94824,0c15.2002-5.03955,91.02539-34.7124,91.02539-124.16406V48.00012A16.01817,16.01817,0,0,0,207.99951,32.00012Zm-160,16h160v58.66651c0,17.68237-3.39453,32.69653-8.79639,45.4104l-66.61474-46.63086a8.00131,8.00131,0,0,0-9.17578,0l-66.6167,46.6311c-5.40137-12.71387-8.79639-27.728-8.79639-45.41064Zm79.998,167.62256c-9.23145-3.06982-43.16406-16.2373-63.7544-49.228l63.75733-44.62939,63.75488,44.6289C171.19043,199.34192,137.3125,212.52112,127.99756,215.62268Z"/>
</svg>
