<svg id="Flat" xmlns="http://www.w3.org/2000/svg" viewBox="0 0 256 256">
  <path d="M223.99463,114.66211v-58.667a16.01833,16.01833,0,0,0-16-16h-160a16.01833,16.01833,0,0,0-16,16v58.667c0,4.85669.23584,9.52685.66113,14.03662.00635.07056.01221.14087.02.21094,7.50879,78.39648,75.9834,105.15527,90.34473,109.9165a15.488,15.488,0,0,0,9.94726,0c14.36133-4.76074,82.82471-31.51513,90.34375-109.89526.00977-.08618.01758-.17261.02442-.25952C223.75977,124.16992,223.99463,119.509,223.99463,114.66211Zm-16,0c0,1.81006-.04736,3.583-.1167,5.33789H136V55.99512h71.99463Zm-160-58.667H120V120H48.11133c-.06934-1.75488-.1167-3.52783-.1167-5.33789ZM49.76758,136H120v84.574C100.34424,212.24268,58.82129,188.69067,49.76758,136ZM136,220.56592V136h70.22168C197.17383,188.65527,155.69775,212.21216,136,220.56592Z"/>
</svg>
