<svg id="Flat" xmlns="http://www.w3.org/2000/svg" viewBox="0 0 256 256">
  <path d="M211.71387,132.29346l12.15722-66.86231A8.00076,8.00076,0,0,0,216,56H54.67676L49.793,29.13818A15.9918,15.9918,0,0,0,34.05078,16H16a8,8,0,0,0,0,16H34.05078L61.50586,183.00293A27.99252,27.99252,0,1,0,105.293,192H158.707A27.99678,27.99678,0,1,0,184,176H76.49512l-4.36377-24H188.10156A23.98711,23.98711,0,0,0,211.71387,132.29346ZM92,204a12,12,0,1,1-12-12A12.01343,12.01343,0,0,1,92,204Zm104,0a12,12,0,1,1-12-12A12.01343,12.01343,0,0,1,196,204ZM57.58594,72H206.41406l-10.44238,57.43164A7.99484,7.99484,0,0,1,188.10156,136H69.22266Z"/>
</svg>
