<svg id="Flat" xmlns="http://www.w3.org/2000/svg" viewBox="0 0 256 256">
  <path d="M88,216a16,16,0,1,1-16-16A16.00016,16.00016,0,0,1,88,216Zm104-16a16,16,0,1,0,16,16A16.00016,16.00016,0,0,0,192,200ZM230.15723,74.86084l-17.44434,95.99951A15.99217,15.99217,0,0,1,196.9707,184H67.11816a15.994,15.994,0,0,1-15.74023-13.12988L32.26074,66.03271a8.04283,8.04283,0,0,1-.21679-1.18554L26.05469,32H8A8,8,0,0,1,8,16H26.05371A15.995,15.995,0,0,1,41.79492,29.12988L46.69531,56H214.415a15.99984,15.99984,0,0,1,15.74219,18.86084ZM214.415,72H49.6123l17.50586,96H196.9707Z"/>
</svg>
