<svg id="Flat" xmlns="http://www.w3.org/2000/svg" viewBox="0 0 256 256">
  <path d="M72,228a12,12,0,1,1-12-12A12,12,0,0,1,72,228Zm16-40a12,12,0,1,0,12,12A12,12,0,0,0,88,188Zm-60-4a12,12,0,1,0,12,12A12,12,0,0,0,28,184Zm40-16a12,12,0,1,0-12,12A12,12,0,0,0,68,168ZM256,40a8.00008,8.00008,0,0,1-8,8H219.31348L191.46973,75.84375l-21.023,126.1377a15.99278,15.99278,0,0,1-27.09619,8.68261L45.33545,112.64941a16.00028,16.00028,0,0,1,8.6831-27.09619L180.15576,64.53027,208,36.68652A15.89354,15.89354,0,0,1,219.31348,32H248A8.00008,8.00008,0,0,1,256,40ZM174.26758,81.73242l-117.61817,19.603,98.01514,98.01514Z"/>
</svg>
