<svg xmlns="http://www.w3.org/2000/svg" viewBox="0 0 256 256"><path d="M237.7,178.3a8.1,8.1,0,0,1,0,11.4l-24,24a8.2,8.2,0,0,1-11.4,0,8.1,8.1,0,0,1,0-11.4L212.7,192H172.1a16.1,16.1,0,0,1-13-6.7L83.9,80H32a8,8,0,0,1,0-16H83.9a16.1,16.1,0,0,1,13,6.7L172.1,176h40.6l-10.4-10.3a8.1,8.1,0,0,1,11.4-11.4ZM143,107a8,8,0,0,0,11.2-1.9L172.1,80h40.6L202.3,90.3a8.1,8.1,0,0,0,0,11.4,8.2,8.2,0,0,0,11.4,0l24-24a8.1,8.1,0,0,0,0-11.4l-24-24a8.1,8.1,0,0,0-11.4,11.4L212.7,64H172.1a16.1,16.1,0,0,0-13,6.7L141.2,95.8A8,8,0,0,0,143,107Zm-30,42a8,8,0,0,0-11.2,1.9L83.9,176H32a8,8,0,0,0,0,16H83.9a16.1,16.1,0,0,0,13-6.7l17.9-25.1A8,8,0,0,0,113,149Z"/></svg>