<svg id="Flat" xmlns="http://www.w3.org/2000/svg" viewBox="0 0 256 256">
  <path d="M214.18475,213.07324c-.1394.16992-.28869.33057-.44146.48828-.03.03125-.05548.06494-.08606.09522-.02741.02734-.05756.05029-.08521.07715-.161.15625-.32593.30908-.49957.45166-.10028.082-.20593.15429-.30921.231-.106.07862-.2091.16114-.319.23438-.119.07959-.24237.14892-.3645.22168-.10229.061-.20215.125-.30731.18164-.12268.06543-.24884.12109-.374.18018-.11158.05224-.22113.10839-.33545.15576-.12183.05029-.24622.09131-.36994.13525-.12262.044-.24359.09082-.369.12891-.12354.03759-.24891.06494-.37378.09619-.12854.03222-.25537.06836-.38623.09424-.14215.02832-.28571.04492-.429.06543-.11529.0166-.22864.03857-.34546.0498-.26251.02588-.526.04-.78961.04H168a8,8,0,0,1,0-16h20.68591L42.34277,53.65674A8.00018,8.00018,0,1,1,53.65723,42.34326L200,188.686V168a8,8,0,0,1,16,0v39.99512c.00018.26562-.01379.53174-.04.79687-.01056.10742-.03107.21192-.04584.31787-.02124.15235-.03955.30518-.06958.45606-.025.126-.05993.248-.09082.37207-.03216.12939-.06085.25928-.09961.38721-.037.12207-.08294.23974-.12548.35888-.04529.12744-.08735.25537-.13923.38037-.04571.11035-.09954.21582-.15.32325-.06061.12939-.11847.25976-.1864.38671-.054.10059-.11572.19629-.17383.29444-.07477.126-.14642.25342-.2287.37646-.07123.106-.15075.20606-.22686.3086C214.34448,212.86035,214.27,212.96973,214.18475,213.07324ZM150.627,113.37305a7.97784,7.97784,0,0,0,5.65723-2.34326L200,67.314V88a8,8,0,0,0,16,0V48.00488c.00018-.26562-.01379-.53174-.04-.79687-.01056-.10742-.03107-.21192-.04584-.31787-.02124-.15235-.03955-.30518-.06958-.45606-.025-.126-.05993-.248-.09082-.37207-.03216-.12939-.06085-.25928-.09961-.38721-.037-.12207-.083-.23974-.12561-.35937-.04522-.127-.08728-.25488-.1391-.37988-.04577-.11035-.09973-.21582-.15026-.32373-.06049-.1294-.11817-.25928-.18592-.38623-.05444-.10108-.11664-.19776-.17529-.29639-.07428-.12549-.14551-.252-.22723-.374-.07166-.10694-.15174-.20752-.22828-.31055-.07885-.106-.15289-.21484-.23767-.31787-.1394-.16992-.28869-.33057-.44146-.48828-.03-.03125-.05548-.06494-.08606-.09522-.02777-.02783-.05829-.05078-.08637-.07812-.16052-.15625-.325-.30811-.49811-.4502-.10119-.08349-.20788-.15576-.31213-.2334-.105-.07812-.20709-.15918-.316-.23242-.12-.08008-.24451-.1499-.36774-.22314-.10125-.06055-.2-.124-.30395-.17969-.1228-.06592-.24909-.12158-.37439-.18067-.11169-.05224-.22131-.10839-.33575-.15576-.12067-.0498-.244-.09033-.3664-.13379-.124-.04443-.24628-.09228-.373-.13037-.12122-.03711-.24439-.064-.367-.09472-.13074-.03272-.26-.06934-.39313-.09571-.13891-.02783-.27911-.04394-.419-.064-.11847-.01709-.23505-.03955-.35517-.05127q-.38872-.03882-.77948-.03955L208,40H168a8,8,0,0,0,0,16h20.68585L144.96973,99.71582a8.00025,8.00025,0,0,0,5.65722,13.65723ZM99.71582,144.97021l-57.373,57.373a8.00018,8.00018,0,0,0,11.31446,11.31348l57.373-57.37256a8.00035,8.00035,0,0,0-11.31445-11.314Z"/>
</svg>
