<svg xmlns="http://www.w3.org/2000/svg" viewBox="0 0 256 256"><path d="M214.2,213.1l-.5.5h-.1l-.5.5-.3.2-.4.3-.3.2-.3.2h-.4l-.3.2h-.4l-.4.2H168a8,8,0,0,1,0-16h20.7L42.3,53.7A8.1,8.1,0,0,1,53.7,42.3L200,188.7V168a8,8,0,0,1,16,0v40.8a.4.4,0,0,0-.1.3.9.9,0,0,1-.1.5v.3a.8.8,0,0,0-.1.4l-.2.4c0,.1-.1.2-.1.4l-.2.3c0,.1-.1.2-.1.4l-.2.3-.2.3-.3.4Zm-63.6-99.7a8,8,0,0,0,5.7-2.4L200,67.3V88a8,8,0,0,0,16,0V47.2a.4.4,0,0,1-.1-.3.9.9,0,0,0-.1-.5v-.3a.8.8,0,0,1-.1-.4c-.1-.1-.1-.3-.2-.4s-.1-.2-.1-.4l-.2-.3c0-.1-.1-.2-.1-.4s-.2-.2-.2-.3-.2-.2-.2-.3l-.3-.4-.2-.3-.5-.5h-.1c-.2-.2-.4-.3-.5-.5l-.3-.2-.4-.3-.3-.2-.3-.2h-.4l-.3-.2h-.4l-.4-.2H168a8,8,0,0,0,0,16h20.7L145,99.7a7.9,7.9,0,0,0,0,11.3A7.7,7.7,0,0,0,150.6,113.4ZM99.7,145,42.3,202.3a8.1,8.1,0,0,0,0,11.4,8.2,8.2,0,0,0,11.4,0L111,156.3A8,8,0,0,0,99.7,145Z"/></svg>