<svg id="Flat" xmlns="http://www.w3.org/2000/svg" viewBox="0 0 256 256">
  <path d="M246.48975,108.66553c.0708-.09821.1416-.196.20752-.29755.07373-.11273.1416-.22784.209-.34332.06006-.10278.12061-.20484.17578-.31043.062-.11816.11719-.23852.17285-.359.05078-.10937.103-.21759.14893-.32952.0498-.12195.0918-.24591.13525-.36969.04053-.11481.0835-.22821.11865-.34534.041-.13532.07178-.27246.10547-.4093.02637-.1084.05762-.21479.07959-.32483q.074-.3673.1128-.73932c.00634-.06189.00634-.12543.01172-.18774.01562-.19636.02832-.39283.02978-.58979,0-.02014.00293-.03955.00293-.05969,0-.07373-.00879-.14514-.01123-.21844-.00439-.16388-.01025-.32758-.02441-.49109-.00977-.11115-.0254-.22028-.03956-.33008-.01806-.14044-.03808-.2804-.064-.41992-.022-.11872-.04736-.23578-.07471-.35254-.02978-.12781-.062-.25482-.09814-.38141q-.05054-.17909-.10938-.35437c-.041-.12164-.08545-.24182-.13232-.36176-.04492-.11523-.09082-.22961-.14111-.34216-.05274-.118-.11036-.23407-.16895-.35-.05518-.10961-.11084-.21881-.1709-.32544-.06347-.11218-.13232-.22174-.20166-.33148-.0664-.10528-.13232-.21051-.20312-.31244-.07227-.10339-.15039-.20367-.228-.30444-.07861-.10193-.15625-.2038-.23975-.3017-.02539-.02966-.04638-.06146-.07226-.09082l-56-64A8.001,8.001,0,0,0,184,32H72a8.001,8.001,0,0,0-6.02051,2.73193l-56,64c-.02588.02942-.04736.06122-.07226.09088-.083.0976-.16114.19922-.23926.30079-.07813.10113-.15625.202-.22852.30584-.0708.10144-.13672.20618-.20263.311-.06983.11023-.13868.22027-.20264.333-.05957.10607-.11475.21484-.16992.32385-.05908.11633-.1167.23279-.16944.35126-.0498.11212-.0957.22613-.14062.34094-.04688.12054-.09229.24127-.1333.36346q-.05859.175-.10889.35327c-.03613.12665-.06836.25379-.09814.38172-.02735.11676-.05274.23382-.07471.35254-.02588.13977-.0459.2799-.064.42059-.01465.10931-.0293.21808-.03907.32867-.01465.16419-.02051.32856-.02539.49317C8.00879,103.85571,8,103.9267,8,104c0,.02014.00293.03955.00293.05963.00146.197.01416.39343.02978.58985.00538.06231.00538.12585.01172.18774q.03882.3717.1128.73932c.022.11.05322.21643.07959.32483.03369.13684.06445.274.10547.4093.03515.11713.07812.23053.11865.34534.04345.12371.08545.24768.13525.36962.0459.11219.09815.22059.14893.33008.05566.12024.11084.24048.17285.3584.05566.10584.11621.20807.17627.311.06738.11511.13476.22992.208.34228.06689.10211.13769.2005.209.29932.07617.10577.15283.211.23438.31372.07959.09961.16308.19519.24707.29077.0542.06177.10253.12683.15869.18726l112,120c.11377.12164.23681.23126.35693.34491.05615.0531.10889.10943.1665.16088a8.015,8.015,0,0,0,.81055.6341c.06348.04364.13037.08166.1958.12347a7.95645,7.95645,0,0,0,.72852.41571c.08154.04108.16162.08332.24463.12159a8.017,8.017,0,0,0,.96045.37481c.04736.015.09716.02417.145.03821a7.9885,7.9885,0,0,0,.89062.20337c.09424.01623.188.03143.28369.04425a7.12355,7.12355,0,0,0,2.13184,0c.0957-.01282.18945-.02808.28418-.04425a7.98765,7.98765,0,0,0,.88818-.20294c.04883-.01422.09912-.02362.14746-.03876a8.01934,8.01934,0,0,0,.96-.37469c.083-.03827.16309-.08051.24463-.12165a7.95346,7.95346,0,0,0,.72705-.41473c.06592-.04224.13379-.08075.19824-.12488a7.99864,7.99864,0,0,0,.8086-.63293c.05859-.05213.11182-.10926.16894-.16315.11963-.11316.24219-.22229.35547-.34332l112-120c.05664-.06079.105-.12622.15967-.1883.0835-.09509.1665-.19012.24561-.28912C246.33594,108.87775,246.41309,108.77191,246.48975,108.66553ZM73.53857,112l30.5337,74.63873L34.40967,112Zm91.63623,0L128,202.87158,90.8252,112ZM95.12793,96,128,53.14453,160.87207,96Zm87.334,16h39.12842l-69.6626,74.63824Zm39.90772-16H181.03711L144.21875,48h36.15137ZM75.62988,48h36.15137L74.96289,96H33.63037Z"/>
</svg>
