<svg id="Flat" xmlns="http://www.w3.org/2000/svg" viewBox="0 0 256 256">
  <path d="M80,108a12,12,0,1,1,12,12A12,12,0,0,1,80,108Zm84,12a12,12,0,1,0-12-12A12,12,0,0,0,164,120Zm68,8A104,104,0,1,1,128,24,104.11791,104.11791,0,0,1,232,128Zm-16,0a88,88,0,1,0-88,88A88.09957,88.09957,0,0,0,216,128Zm-42.416,17.07129a8.00013,8.00013,0,0,0-10.93066,2.91894A40.19383,40.19383,0,0,1,143.56689,164.856a39.95957,39.95957,0,0,1-43.85156-8.57569,40.19991,40.19991,0,0,1-6.36865-8.28906,8,8,0,0,0-13.84961,8.01172,56.02776,56.02776,0,0,0,97.00586-.001A8.00024,8.00024,0,0,0,173.584,145.07129Z"/>
</svg>
