<svg id="Flat" xmlns="http://www.w3.org/2000/svg" viewBox="0 0 256 256">
  <path d="M80,108a12,12,0,1,1,12,12A12,12,0,0,1,80,108Zm84,12a12,12,0,1,0-12-12A12,12,0,0,0,164,120Zm68,8A104,104,0,1,1,128,24,104.11791,104.11791,0,0,1,232,128Zm-16,0a88,88,0,1,0-88,88A88.09957,88.09957,0,0,0,216,128Zm-50.34326,18.34326a7.99915,7.99915,0,0,0-11.31348,0L144,156.68652l-10.34326-10.34326a7.99915,7.99915,0,0,0-11.31348,0L112,156.68652l-10.34326-10.34326a7.99915,7.99915,0,0,0-11.31348,0l-16,16a7.99984,7.99984,0,0,0,11.31348,11.31348L96,163.31348l10.34326,10.34326a7.99915,7.99915,0,0,0,11.31348,0L128,163.31348l10.34326,10.34326a7.99915,7.99915,0,0,0,11.31348,0L160,163.31348l10.34326,10.34326a7.99984,7.99984,0,0,0,11.31348-11.31348Z"/>
</svg>
