<svg id="Flat" xmlns="http://www.w3.org/2000/svg" viewBox="0 0 256 256">
  <path d="M128,24A104,104,0,1,0,232,128,104.11791,104.11791,0,0,0,128,24Zm0,192a88,88,0,1,1,88-88A88.09957,88.09957,0,0,1,128,216Zm12-36a12,12,0,1,1-12-12A12,12,0,0,1,140,180Zm49.65674-57.65674a7.99984,7.99984,0,1,1-11.31348,11.31348L168,123.31348l-10.34326,10.34326a7.99984,7.99984,0,0,1-11.31348-11.31348L156.68652,112l-10.34326-10.34326a7.99984,7.99984,0,0,1,11.31348-11.31348L168,100.68652l10.34326-10.34326a7.99984,7.99984,0,0,1,11.31348,11.31348L179.31348,112Zm-80-20.68652L99.31348,112l10.34326,10.34326a7.99984,7.99984,0,1,1-11.31348,11.31348L88,123.31348,77.65674,133.65674a7.99984,7.99984,0,0,1-11.31348-11.31348L76.68652,112,66.34326,101.65674A7.99984,7.99984,0,0,1,77.65674,90.34326L88,100.68652,98.34326,90.34326a7.99984,7.99984,0,0,1,11.31348,11.31348Z"/>
</svg>
