<svg id="Flat" xmlns="http://www.w3.org/2000/svg" viewBox="0 0 256 256">
  <path d="M128,24a104,104,0,1,0,30.56543,203.43359,7.99379,7.99379,0,0,0,3.30859-1.99072l63.57032-63.57324a7.99548,7.99548,0,0,0,1.99072-3.30859A104.07559,104.07559,0,0,0,128,24Zm84.69043,127.99609L152,212.68945a87.89678,87.89678,0,1,1,60.69043-60.69336ZM80,108a12,12,0,1,1,12,12A12,12,0,0,1,80,108Zm72,0a12,12,0,1,1,12,12A12,12,0,0,1,152,108Zm24.50488,48.00269a56.01585,56.01585,0,0,1-97.00976.00048,8,8,0,0,1,13.85009-8.01074,40.016,40.016,0,0,0,69.30958-.00049,8,8,0,1,1,13.85009,8.01075Z"/>
</svg>
