<svg id="Flat" xmlns="http://www.w3.org/2000/svg" viewBox="0 0 256 256">
  <path d="M80,108a12,12,0,1,1,12,12A12,12,0,0,1,80,108Zm84,12a12,12,0,1,0-12-12A12,12,0,0,0,164,120Zm68,8A104,104,0,1,1,128,24,104.11791,104.11791,0,0,1,232,128Zm-16,0a88,88,0,1,0-88,88A88.09957,88.09957,0,0,0,216,128Zm-48.40234,32.40137a56.02763,56.02763,0,0,0-88.1001,11.59082,8,8,0,1,0,13.84912,8.01269,40.19825,40.19825,0,0,1,19.08594-16.86523,39.96,39.96,0,0,1,43.85156,8.57519,40.20024,40.20024,0,0,1,6.36914,8.29,8.0002,8.0002,0,0,0,13.8501-8.01172A56.22577,56.22577,0,0,0,167.59766,160.40137Z"/>
</svg>
