<svg id="Flat" xmlns="http://www.w3.org/2000/svg" viewBox="0 0 256 256">
  <path d="M80,108a12,12,0,1,1,12,12A12,12,0,0,1,80,108Zm84,12a12,12,0,1,0-12-12A12,12,0,0,0,164,120Zm9.584,25.07153a7.99949,7.99949,0,0,0-10.93066,2.91895A40.19689,40.19689,0,0,1,143.56738,164.856,39.95677,39.95677,0,0,1,99.71533,156.28a40.16738,40.16738,0,0,1-6.36865-8.28906,8.00011,8.00011,0,0,0-13.84961,8.0122,56.02767,56.02767,0,0,0,97.00586-.00073A8,8,0,0,0,173.584,145.07153ZM232,128a104.04062,104.04062,0,0,1-4.56494,30.561,7.99548,7.99548,0,0,1-1.99072,3.30859L161.874,225.44287a7.99379,7.99379,0,0,1-3.30859,1.99072A104.01529,104.01529,0,1,1,232,128Zm-16,0a87.89607,87.89607,0,1,0-64,84.68945l60.69043-60.69336A88.13641,88.13641,0,0,0,216,128Z"/>
</svg>
