<svg id="Flat" xmlns="http://www.w3.org/2000/svg" viewBox="0 0 256 256">
  <path d="M231.76978,134.8335a8.01081,8.01081,0,0,0,.07861-1.23633Q231.99671,130.81689,232,128a103.49591,103.49591,0,0,0-22.96777-65.10937,7.98939,7.98939,0,0,0-1.39527-1.69776,104.48289,104.48289,0,0,0-41.09839-29.78662,8.00927,8.00927,0,0,0-1.145-.44873,103.964,103.964,0,0,0-74.78906.001,7.98709,7.98709,0,0,0-1.14258.44775A104.47868,104.47868,0,0,0,48.36353,61.19238a8.00392,8.00392,0,0,0-1.39624,1.69825A103.49932,103.49932,0,0,0,24,128q0,2.81982.1521,5.60352A7.99281,7.99281,0,0,0,24.23,134.8291a103.303,103.303,0,0,0,15.69409,48.41211,7.997,7.997,0,0,0,1.05615,1.64307,104.37857,104.37857,0,0,0,60.27588,43.62353c.10743.03565.21851.05762.3274.08887a104.21878,104.21878,0,0,0,52.82983.00049c.11011-.03125.22241-.05371.33081-.08936a104.38015,104.38015,0,0,0,60.27564-43.62353,7.997,7.997,0,0,0,1.05615-1.64307A103.30408,103.30408,0,0,0,231.76978,134.8335Zm-191.25806,2.644L68.53931,117.0918,81.707,121.37012l12.73779,39.2041L86.30713,171.7749l-34.6377-.01806A87.36716,87.36716,0,0,1,40.51172,137.47754ZM51.21045,85.06348l6.521,20.105-17.116,12.44922A87.34,87.34,0,0,1,51.21045,85.06348Zm57.915,68.915-11.665-35.90137L128,95.88867l30.53955,22.18848-11.665,35.90137Zm60.56738,17.79638-8.13769-11.20068,12.73779-39.2041,13.168-4.27832,28.02734,20.38574a87.36716,87.36716,0,0,1-11.15771,34.2793Zm45.69165-54.15722-17.116-12.44922,6.521-20.105A87.34,87.34,0,0,1,215.38452,117.61768ZM193.19385,68.95361,182.51611,101.875l-13.16748,4.27832L136,81.92383V68.07861l28.04492-20.353A88.44415,88.44415,0,0,1,193.19385,68.95361ZM145.13477,41.68018,128,54.11523l-17.13477-12.435a88.21178,88.21178,0,0,1,34.26954,0ZM91.95532,47.72559,120,68.07861V81.92383L86.65137,106.15332,73.48389,101.875,62.8064,68.95361A88.44154,88.44154,0,0,1,91.95532,47.72559ZM63.46948,187.7627l21.1023.01123,6.54687,20.11328A88.43347,88.43347,0,0,1,63.46948,187.7627Zm46.51123,26.37939-10.72925-32.9624,8.1377-11.20117h41.22168l8.1377,11.20117-10.729,32.9624a88.31186,88.31186,0,0,1-36.03882,0Zm54.90064-6.25488,6.54687-20.11328,21.1023-.01123A88.43347,88.43347,0,0,1,164.88135,207.88721Z"/>
</svg>
