<svg xmlns="http://www.w3.org/2000/svg" viewBox="0 0 256 256"><path d="M231.8,134.8a4.8,4.8,0,0,0,0-1.2c.1-1.9.2-3.7.2-5.6a103.2,103.2,0,0,0-23-65.1,5.5,5.5,0,0,0-1.4-1.7,103.9,103.9,0,0,0-41.1-29.8l-1.1-.4a103.4,103.4,0,0,0-74.8,0l-1.1.4A103.9,103.9,0,0,0,48.4,61.2,5.5,5.5,0,0,0,47,62.9,103.2,103.2,0,0,0,24,128c0,1.9.1,3.7.2,5.6a4.8,4.8,0,0,0,0,1.2,104.2,104.2,0,0,0,15.7,48.4,9.9,9.9,0,0,0,1.1,1.7,104.3,104.3,0,0,0,60.3,43.6h.3a104.2,104.2,0,0,0,52.8,0h.3A104.3,104.3,0,0,0,215,184.9a9.9,9.9,0,0,0,1.1-1.7A104.2,104.2,0,0,0,231.8,134.8ZM40.5,137.5l28-20.4,13.2,4.3,12.7,39.2-8.1,11.2H51.7A86.2,86.2,0,0,1,40.5,137.5ZM51.2,85.1l6.5,20.1L40.6,117.6A87.6,87.6,0,0,1,51.2,85.1ZM109.1,154,97.5,118.1,128,95.9l30.5,22.2L146.9,154Zm60.6,17.8-8.1-11.2,12.7-39.2,13.2-4.3,28,20.4a86.2,86.2,0,0,1-11.2,34.3Zm45.7-54.2-17.1-12.4,6.5-20.1A87.6,87.6,0,0,1,215.4,117.6ZM193.2,69l-10.7,32.9-13.2,4.3L136,81.9V68.1l28-20.4A87,87,0,0,1,193.2,69ZM145.1,41.7,128,54.1,110.9,41.7a86.9,86.9,0,0,1,34.2,0ZM92,47.7l28,20.4V81.9L86.7,106.2l-13.2-4.3L62.8,69A87,87,0,0,1,92,47.7ZM63.5,187.8H84.6l6.5,20.1A89.2,89.2,0,0,1,63.5,187.8ZM110,214.1,99.3,181.2l8.1-11.2h41.2l8.1,11.2L146,214.1a86.2,86.2,0,0,1-36,0Zm54.9-6.2,6.5-20.1h21.1A89.2,89.2,0,0,1,164.9,207.9Z"/></svg>