<svg id="Flat" xmlns="http://www.w3.org/2000/svg" viewBox="0 0 256 256">
  <path d="M229.65625,93.643a7.99827,7.99827,0,0,1-11.31348.001L192,67.30554v76.688a8,8,0,0,1-16,0V67.3075L149.65674,93.65076A8.00018,8.00018,0,0,1,138.34326,82.3363l40-40c.0293-.02929.06153-.05371.09131-.08251.15918-.1543.32178-.30494.49316-.44556.09766-.08057.20118-.15064.30176-.22583.10889-.08106.21485-.16528.32764-.24072.11475-.07691.23389-.14356.35156-.21387.10693-.06348.21094-.13037.3208-.18921.1167-.0625.23682-.11548.356-.17163.11816-.05591.23389-.1145.355-.16455.1123-.04663.22754-.084.3418-.12525.13232-.04785.26318-.09838.39892-.1394.10987-.0332.22168-.05713.33252-.08545.14209-.03638.28223-.07568.42725-.10449.12207-.02393.2456-.03784.36914-.05615.13476-.02027.26806-.04517.40527-.0586.20362-.01977.40772-.02637.61182-.03076.0581-.00122.11474-.00879.17285-.00879.06152,0,.12061.00781.18164.00928.20068.00439.40186.01074.60205.03027.14063.01367.27686.03906.41553.06006.11963.01807.23974.03125.3584.05469.14892.02929.293.06958.43847.10693.10694.02735.21485.05054.3208.08252.14014.04224.2754.09424.41163.144.10986.03955.2207.07544.32861.12012.126.05225.24707.11328.37012.17163.11377.054.229.10449.34033.16431.11621.062.227.13257.33935.20019.11182.0669.22461.12964.3335.20264.12207.08154.2373.17236.35449.26025.09131.06885.18555.13257.2749.20582.19385.15917.37989.32788.55811.50415.00928.00927.01953.0166.02832.02587l39.999,39.99317A7.99959,7.99959,0,0,1,229.65625,93.643ZM48,135.99353h71.999a8,8,0,1,0,0-16H48a8,8,0,0,0,0,16Zm0-64h55.999a8,8,0,0,0,0-16H48a8,8,0,1,0,0,16Zm135.999,112H48a8,8,0,0,0,0,16H183.999a8,8,0,0,0,0-16Z"/>
</svg>
