<svg id="Flat" xmlns="http://www.w3.org/2000/svg" viewBox="0 0 256 256">
  <path d="M229.65527,173.65759l-39.999,39.99317c-.00928.00976-.02.01758-.0293.02685q-.26659.26367-.55615.50244c-.09228.07569-.18945.14161-.28418.21241-.11426.08593-.22656.17431-.34521.2539-.11231.0752-.22852.14014-.34327.2085-.10937.06543-.21582.13379-.32861.19385-.1167.0625-.23682.11572-.356.17187-.11718.05567-.23291.11377-.35351.16406-.11572.04786-.23389.08643-.35108.12842-.1289.04639-.25586.09571-.38769.13574-.11768.03516-.23682.06153-.35547.09131-.13428.03418-.26709.07129-.40381.09864-.13818.02734-.27734.04345-.4165.06347-.11865.01709-.23584.03955-.35645.05127-.2622.02588-.52539.04-.78906.04s-.52686-.01416-.78955-.04c-.11914-.01172-.23535-.03369-.35352-.05078-.14013-.02-.28027-.03662-.41943-.064-.13525-.02686-.26611-.064-.39893-.09766-.1206-.03027-.24169-.05664-.36084-.09277-.12939-.03907-.25488-.08789-.38134-.1333-.11963-.043-.23975-.082-.35743-.13086s-.23046-.106-.34521-.16016c-.12207-.05762-.24561-.11182-.36523-.17578-.10791-.05811-.21094-.124-.31592-.18652-.11914-.07129-.23975-.13868-.35547-.21631-.11231-.0752-.21826-.15918-.32617-.23975-.10108-.07568-.20508-.146-.30323-.22656-.17138-.14063-.334-.29151-.49316-.44531-.02978-.0293-.062-.05372-.09131-.083l-40-40a8.00018,8.00018,0,0,1,11.31348-11.31446L176,188.67957v-76.686a8,8,0,0,1,16,0v76.688l26.34277-26.33838a7.99983,7.99983,0,1,1,11.3125,11.31445ZM119.999,119.99353H48a8,8,0,0,0,0,16h71.999a8,8,0,1,0,0-16Zm-71.999-48H183.999a8,8,0,0,0,0-16H48a8,8,0,1,0,0,16Zm56,112H48a8,8,0,0,0,0,16h56a8,8,0,0,0,0-16Z"/>
</svg>
