<svg id="Flat" xmlns="http://www.w3.org/2000/svg" viewBox="0 0 256 256">
  <path d="M160,240H96a8.00024,8.00024,0,0,1-7.63586-10.38574l7.40954-23.71094A60.04488,60.04488,0,0,1,20,148c0-30.56543,17.71344-62.00488,52.64825-93.44629a317.34551,317.34551,0,0,1,51.44294-37.53418,8.00284,8.00284,0,0,1,7.81762,0C136.15906,19.40039,236,76.1377,236,148a60.04526,60.04526,0,0,1-75.77411,57.90332l7.41,23.71A8.00053,8.00053,0,0,1,160,240Zm-53.11847-16h42.23694l-9.45111-30.24414a7.99952,7.99952,0,0,1,12.05615-9.05274A44.0074,44.0074,0,0,0,220,148c0-55.24512-73.98022-103.71875-91.99683-114.70117C110.001,44.28906,36,92.834,36,148a44.00836,44.00836,0,0,0,68.12787,36.80176,8.001,8.001,0,0,1,12.15967,9.09863Z"/>
</svg>
