<svg id="Flat" xmlns="http://www.w3.org/2000/svg" viewBox="0 0 256 256">
  <path d="M160,240H96a8.00009,8.00009,0,0,1-7.58942-10.53027l10.88788-32.66211A59.98969,59.98969,0,0,1,20,140c0-23.92969,17.71344-52.00488,52.64825-83.44629a438.266,438.266,0,0,1,51.03931-39.292,8.00323,8.00323,0,0,1,8.62488,0,438.26193,438.26193,0,0,1,51.03924,39.292C218.2865,87.99512,236,116.07031,236,140a59.98969,59.98969,0,0,1-79.29846,56.80762l10.88782,32.66211A7.99995,7.99995,0,0,1,160,240Zm-52.90045-16h41.8009l-13.86474-41.5918a7.99991,7.99991,0,0,1,12.727-8.66211A44.00182,44.00182,0,0,0,220,140c0-37.07812-62.76251-86.84375-92-106.43262C98.76251,53.15625,36,102.92188,36,140a44.00182,44.00182,0,0,0,72.23724,33.74609,7.99991,7.99991,0,0,1,12.72705,8.66211Z"/>
</svg>
