<svg id="Flat" xmlns="http://www.w3.org/2000/svg" viewBox="0 0 256 256">
  <path d="M198.39062,128.98633l-52.16015-19.2168-19.2168-52.16015a16.00075,16.00075,0,0,0-30.02734,0l-19.2168,52.16015-52.16015,19.2168a16.00075,16.00075,0,0,0,0,30.02734l52.16015,19.2168,19.2168,52.16015a16.00075,16.00075,0,0,0,30.02734,0l19.2168-52.16015,52.16015-19.2168a16.00075,16.00075,0,0,0,0-30.02734ZM140.7002,163.2168a15.97421,15.97421,0,0,0-9.4834,9.48242l-19.21973,52.15137L92.7832,172.7002a15.97165,15.97165,0,0,0-9.48242-9.4834L31.14941,143.99707,83.2998,124.7832a15.97165,15.97165,0,0,0,9.4834-9.48242l19.21973-52.15137L131.2168,115.2998a15.97165,15.97165,0,0,0,9.48242,9.4834l52.15137,19.21973ZM144,40a8.00039,8.00039,0,0,1,8-8h16V16a8,8,0,0,1,16,0V32h16a8,8,0,0,1,0,16H184V64a8,8,0,0,1-16,0V48H152A8.00039,8.00039,0,0,1,144,40ZM248,88a8.00039,8.00039,0,0,1-8,8h-8v8a8,8,0,0,1-16,0V96h-8a8,8,0,0,1,0-16h8V72a8,8,0,0,1,16,0v8h8A8.00039,8.00039,0,0,1,248,88Z"/>
</svg>
