<svg id="Flat" xmlns="http://www.w3.org/2000/svg" viewBox="0 0 256 256">
  <path d="M155.51465,24.81348a7.99629,7.99629,0,0,0-8.42578.87207L77.25488,80H32A16.01833,16.01833,0,0,0,16,96v64a16.01833,16.01833,0,0,0,16,16H77.25488l69.834,54.31445A7.99958,7.99958,0,0,0,160,224V32A7.9997,7.9997,0,0,0,155.51465,24.81348ZM144,207.64258l-59.08887-45.957A7.99511,7.99511,0,0,0,80,160H32V96H80a7.99511,7.99511,0,0,0,4.91113-1.68555L144,48.35742ZM199.9707,104v48a8,8,0,0,1-16,0V104a8,8,0,1,1,16,0Zm32-16v80a8,8,0,0,1-16,0V88a8,8,0,1,1,16,0Z"/>
</svg>
