<svg xmlns="http://www.w3.org/2000/svg" viewBox="0 0 256 256"><path d="M248,128a79.2,79.2,0,0,1-23.5,56.6,8,8,0,0,1-5.6,2.3,8.3,8.3,0,0,1-5.7-2.3,8,8,0,0,1,0-11.3,63.9,63.9,0,0,0,0-90.5,8.1,8.1,0,0,1,0-11.4,8,8,0,0,1,11.3,0A79.2,79.2,0,0,1,248,128Zm-56,0a23.8,23.8,0,0,1-7.1,17,8,8,0,0,0,5.7,13.6,7.8,7.8,0,0,0,5.7-2.3,40.1,40.1,0,0,0,0-56.6,8.1,8.1,0,0,0-11.4,0,8,8,0,0,0,0,11.3A23.8,23.8,0,0,1,192,128Zm21.9,82.6a7.9,7.9,0,0,1-.5,11.3A8.2,8.2,0,0,1,208,224a8,8,0,0,1-5.9-2.6L160,175.1V224a7.8,7.8,0,0,1-4.5,7.2,8.5,8.5,0,0,1-3.5.8,8.1,8.1,0,0,1-4.9-1.7L77.3,176H32a16,16,0,0,1-16-16V96A16,16,0,0,1,32,80H73.6L42.1,45.4A8,8,0,0,1,53.9,34.6ZM32,160H72V96H32Zm112-2.5L88,95.9v68.2l56,43.6ZM117.1,69.3,144,48.4v58.4a8,8,0,1,0,16,0V32a8,8,0,0,0-12.9-6.3l-39.9,31a8,8,0,1,0,9.9,12.6Z"/></svg>