<svg id="Flat" xmlns="http://www.w3.org/2000/svg" viewBox="0 0 256 256">
  <path d="M183.97656,152V104a8,8,0,0,1,16,0v48a8,8,0,1,1-16,0Zm40-72a8.00039,8.00039,0,0,0-8,8v80a8,8,0,1,0,16,0V88A8.00039,8.00039,0,0,0,223.97656,80ZM213.91992,210.61813a8.0006,8.0006,0,0,1-11.83984,10.76367L160,175.09372V224a7.99935,7.99935,0,0,1-12.91113,6.31445L77.25488,176H32a16.01833,16.01833,0,0,1-16-16V96A16.01833,16.01833,0,0,1,32,80H73.55127L42.08008,45.3818A8.0006,8.0006,0,1,1,53.91992,34.61813ZM144,157.49362,88.09668,96H32v64H80a7.99516,7.99516,0,0,1,4.91113,1.68554L144,207.64254ZM117.06152,69.30856,144,48.35739v58.47168a8,8,0,0,0,16,0V32a7.99958,7.99958,0,0,0-12.91113-6.31446L107.23926,56.67965a7.99947,7.99947,0,0,0,9.82226,12.62891Z"/>
</svg>
