<svg id="Flat" xmlns="http://www.w3.org/2000/svg" viewBox="0 0 256 256">
  <path d="M247.97656,128.01169A79.46979,79.46979,0,0,1,224.544,184.58a7.99983,7.99983,0,1,1-11.3125-11.31445,63.99908,63.99908,0,0,0,0-90.50879A7.99983,7.99983,0,1,1,224.544,71.44235,79.47039,79.47039,0,0,1,247.97656,128.01169Zm-56,0a23.83779,23.83779,0,0,1-7.02929,16.96972,7.99984,7.99984,0,1,0,11.3125,11.31446,39.99957,39.99957,0,0,0,.001-56.56934A8.00052,8.00052,0,0,0,184.94629,111.041,23.84269,23.84269,0,0,1,191.97656,128.01169Zm21.94336,82.60644a8.0006,8.0006,0,0,1-11.83984,10.76367L160,175.09372v48.918a7.99935,7.99935,0,0,1-12.91113,6.31445l-69.834-54.31445H32a16.01833,16.01833,0,0,1-16-16v-64a16.01833,16.01833,0,0,1,16-16H73.56152L42.08008,45.3818A8.0006,8.0006,0,1,1,53.91992,34.61813ZM32,160.01169H71.99414v-64H32Zm112-2.51807L87.99414,95.88717v68.208L144,207.65426ZM117.06738,69.3154,144,48.36911v58.46a8,8,0,0,0,16,0V32.01169a7.99958,7.99958,0,0,0-12.91113-6.31446L107.24512,56.68649a7.99947,7.99947,0,0,0,9.82226,12.62891Z"/>
</svg>
