<svg id="Flat" xmlns="http://www.w3.org/2000/svg" viewBox="0 0 256 256">
  <path d="M155.51465,24.81348a7.99629,7.99629,0,0,0-8.42578.87207L77.25488,80H32A16.01833,16.01833,0,0,0,16,96v64a16.01833,16.01833,0,0,0,16,16H77.25488l69.834,54.31445A7.99958,7.99958,0,0,0,160,224V32A7.9997,7.9997,0,0,0,155.51465,24.81348ZM32,96H72v64H32ZM144,207.64258,88,164.08789V91.91211l56-43.55469ZM207.9707,128a39.7337,39.7337,0,0,1-11.71679,28.28418,7.99983,7.99983,0,1,1-11.3125-11.31445,23.99835,23.99835,0,0,0,0-33.93946,7.99983,7.99983,0,1,1,11.3125-11.31445A39.7337,39.7337,0,0,1,207.9707,128Z"/>
</svg>
