<svg xmlns="http://www.w3.org/2000/svg" viewBox="0 0 256 256"><path d="M248,128a79.6,79.6,0,0,1-23.5,56.6,8,8,0,0,1-5.6,2.3,8.3,8.3,0,0,1-5.7-2.3,8,8,0,0,1,0-11.3,64,64,0,0,0,0-90.6,8,8,0,0,1,11.3-11.3A79.6,79.6,0,0,1,248,128ZM160,32V224a8,8,0,0,1-4.5,7.2,8.5,8.5,0,0,1-3.5.8,8.1,8.1,0,0,1-4.9-1.7L77.3,176H32a16,16,0,0,1-16-16V96A16,16,0,0,1,32,80H77.3l69.8-54.3A8,8,0,0,1,160,32ZM32,160H72V96H32ZM144,48.4,88,91.9v72.2l56,43.5Zm40.9,51.3a8,8,0,0,0,0,11.3,23.9,23.9,0,0,1,0,34,8,8,0,0,0,0,11.3,8.3,8.3,0,0,0,5.7,2.3,8.5,8.5,0,0,0,5.7-2.3,40.1,40.1,0,0,0,0-56.6A8.1,8.1,0,0,0,184.9,99.7Z"/></svg>