<svg xmlns="http://www.w3.org/2000/svg" viewBox="0 0 256 256"><path d="M155.5,24.8a8,8,0,0,0-8.4.9L77.3,80H32A16,16,0,0,0,16,96v64a16,16,0,0,0,16,16H77.3l69.8,54.3A8.1,8.1,0,0,0,152,232a8.5,8.5,0,0,0,3.5-.8A8,8,0,0,0,160,224V32A8,8,0,0,0,155.5,24.8ZM32,96H72v64H32ZM144,207.6,88,164.1V91.9l56-43.5Zm101.7-61.3a8.1,8.1,0,0,1,0,11.4,8.2,8.2,0,0,1-11.4,0L216,139.3l-18.3,18.4a8.2,8.2,0,0,1-11.4,0,8.1,8.1,0,0,1,0-11.4L204.7,128l-18.4-18.3a8.1,8.1,0,0,1,11.4-11.4L216,116.7l18.3-18.4a8.1,8.1,0,0,1,11.4,11.4L227.3,128Z"/></svg>