<svg xmlns="http://www.w3.org/2000/svg" viewBox="0 0 256 256"><path d="M184,152V104a8,8,0,0,1,16,0v48a8,8,0,0,1-16,0Zm40-72a8,8,0,0,0-8,8v80a8,8,0,0,0,16,0V88A8,8,0,0,0,224,80ZM213.9,210.6a7.9,7.9,0,0,1-.5,11.3A8.2,8.2,0,0,1,208,224a8,8,0,0,1-5.9-2.6L160,175.1V224a8,8,0,0,1-4.5,7.2,8.5,8.5,0,0,1-3.5.8,8.1,8.1,0,0,1-4.9-1.7L77.3,176H32a16,16,0,0,1-16-16V96A16,16,0,0,1,32,80H73.6L42.1,45.4A8,8,0,0,1,53.9,34.6ZM144,157.5,88.1,96H32v64H80a7.9,7.9,0,0,1,4.9,1.7L144,207.6ZM117.1,69.3,144,48.4v58.4a8,8,0,1,0,16,0V32a8,8,0,0,0-12.9-6.3l-39.9,31a8,8,0,1,0,9.9,12.6Z"/></svg>