<svg id="Flat" xmlns="http://www.w3.org/2000/svg" viewBox="0 0 256 256">
  <path d="M247.9707,128a79.47687,79.47687,0,0,1-23.43164,56.56934,8.00053,8.00053,0,0,1-11.31445-11.31446,63.99788,63.99788,0,0,0,0-90.50976,8.00053,8.00053,0,0,1,11.31445-11.31446A79.47687,79.47687,0,0,1,247.9707,128ZM160,32V224a7.99935,7.99935,0,0,1-12.91113,6.31445L77.25488,176H32a16.01833,16.01833,0,0,1-16-16V96A16.01833,16.01833,0,0,1,32,80H77.25488l69.834-54.31445A7.99958,7.99958,0,0,1,160,32ZM32,160H72V96H32ZM144,48.35742,88,91.91211v72.17578l56,43.55469ZM184.94043,99.7168a7.99914,7.99914,0,0,0,.001,11.31347,23.99835,23.99835,0,0,1,0,33.93946,7.99983,7.99983,0,1,0,11.3125,11.31445,39.99722,39.99722,0,0,0,0-56.56836A7.99827,7.99827,0,0,0,184.94043,99.7168Z"/>
</svg>
