<svg xmlns="http://www.w3.org/2000/svg" viewBox="0 0 256 256"><path d="M128.1,24a104,104,0,1,0,104,104A104.1,104.1,0,0,0,128.1,24Zm0,192a88,88,0,1,1,88-88A88.1,88.1,0,0,1,128.1,216Zm58.2-104a7.9,7.9,0,0,1-10.8,3.4,104.3,104.3,0,0,0-95,.1,8.1,8.1,0,0,1-3.7.9,8,8,0,0,1-3.6-15.1,119.9,119.9,0,0,1,109.6-.1A8,8,0,0,1,186.3,112Zm-14.8,28.3a8,8,0,0,1-10.8,3.5,72,72,0,0,0-65.4.1,8,8,0,0,1-3.6.9A8,8,0,0,1,88,129.6a88.1,88.1,0,0,1,80,0A8,8,0,0,1,171.5,140.3Zm-14.8,28.4a8.1,8.1,0,0,1-10.8,3.5,39.8,39.8,0,0,0-35.8.1,9.4,9.4,0,0,1-3.6.8,8,8,0,0,1-3.6-15.1,55,55,0,0,1,25.2-6,55.7,55.7,0,0,1,25,5.9A8,8,0,0,1,156.7,168.7Z"/></svg>