<svg id="Flat" xmlns="http://www.w3.org/2000/svg" viewBox="0 0 256 256">
  <path d="M112,40H48a7.99993,7.99993,0,0,0-8,8v64a7.99993,7.99993,0,0,0,8,8h64a7.99993,7.99993,0,0,0,8-8V48A7.99993,7.99993,0,0,0,112,40Zm-8,64H56V56h48ZM208,40H144a7.99993,7.99993,0,0,0-8,8v64a7.99993,7.99993,0,0,0,8,8h64a7.99993,7.99993,0,0,0,8-8V48A7.99993,7.99993,0,0,0,208,40Zm-8,64H152V56h48Zm-88,32H48a7.99993,7.99993,0,0,0-8,8v64a7.99977,7.99977,0,0,0,8,8h64a7.99977,7.99977,0,0,0,8-8V144A7.99993,7.99993,0,0,0,112,136Zm-8,64H56V152h48Zm104-64H144a7.99993,7.99993,0,0,0-8,8v64a7.99977,7.99977,0,0,0,8,8h64a7.99977,7.99977,0,0,0,8-8V144A7.99993,7.99993,0,0,0,208,136Zm-8,64H152V152h48Z"/>
</svg>
