<svg id="Flat" xmlns="http://www.w3.org/2000/svg" viewBox="0 0 256 256">
  <path d="M230.91016,171.96924a7.99926,7.99926,0,0,1-2.87891,10.94092l-96.00049,56a7.99878,7.99878,0,0,1-8.06152,0l-96-56a7.99983,7.99983,0,1,1,8.06152-13.82032L128,222.73828l91.96875-53.64844A7.99987,7.99987,0,0,1,230.91016,171.96924Zm-10.94141-50.8794L128,174.73828,36.03076,121.08984a7.99983,7.99983,0,1,0-8.06152,13.82032l96,56a7.99878,7.99878,0,0,0,8.06152,0l96.00049-56a8.00008,8.00008,0,0,0-8.0625-13.82032ZM24,80a7.99956,7.99956,0,0,1,3.96924-6.91016l96-56a7.99878,7.99878,0,0,1,8.06152,0l96.00049,56a8.00016,8.00016,0,0,1,0,13.82032l-96.00049,56a7.99878,7.99878,0,0,1-8.06152,0l-96-56A7.99956,7.99956,0,0,1,24,80Zm23.877,0L128,126.73828,208.12305,80,128,33.26172Z"/>
</svg>
