<svg id="Flat" xmlns="http://www.w3.org/2000/svg" viewBox="0 0 256 256">
  <path d="M12.03076,110.94629l112,64a8.00276,8.00276,0,0,0,7.93848,0l112-64a8.00072,8.00072,0,0,0,0-13.89258l-112-64a8.006,8.006,0,0,0-7.93848,0l-112,64a8.00072,8.00072,0,0,0,0,13.89258ZM128,49.21387,223.87549,104,128,158.78613,32.12451,104Zm118.9458,90.81738a8.00034,8.00034,0,0,1-2.97656,10.915l-112,64a8.00276,8.00276,0,0,1-7.93848,0l-112-64a8.00036,8.00036,0,0,1,7.93848-13.89258L128,198.78613l108.03076-61.73242A8.00086,8.00086,0,0,1,246.9458,140.03125Z"/>
</svg>
