<svg id="Flat" xmlns="http://www.w3.org/2000/svg" viewBox="0 0 256 256">
  <path d="M230.05859,112.96289,166.24316,89.75684l-23.206-63.81543a16.001,16.001,0,0,0-30.07422,0L89.75684,89.75684,25.94141,112.96289a16.001,16.001,0,0,0,0,30.07422l63.81543,23.206,23.20605,63.81543a16.001,16.001,0,0,0,30.07422,0l23.206-63.81543,63.81543-23.206a16.001,16.001,0,0,0,0-30.07422Zm-69.28222,38.24316a15.95685,15.95685,0,0,0-9.57032,9.57032v-.002l-23.209,63.80762L104.794,160.77637a15.95872,15.95872,0,0,0-9.56836-9.57032L31.418,127.99707,95.22363,104.794a15.95872,15.95872,0,0,0,9.57032-9.56836l23.209-63.80762,23.20312,63.80566a15.95872,15.95872,0,0,0,9.56836,9.57032l63.80762,23.209Z"/>
</svg>
