<svg xmlns="http://www.w3.org/2000/svg" viewBox="0 0 256 256"><path d="M187.3,232a16.1,16.1,0,0,1-8.7-2.6l-50.5-31.9h-.2L81,227.2a18,18,0,0,1-20.1-.6,18.6,18.6,0,0,1-7-19.6l13.5-53.1a.8.8,0,0,0-.2-.8L22,115.5a16.8,16.8,0,0,1-5.2-18.1A16.4,16.4,0,0,1,31.4,86l59-3.8a.5.5,0,0,0,.4-.3l22-55.5a16.3,16.3,0,0,1,30.4,0l22,55.5a.5.5,0,0,0,.4.3l59,3.8a16.4,16.4,0,0,1,14.6,11.4,16.8,16.8,0,0,1-5.2,18.1l-45.2,37.6a.8.8,0,0,0-.2.8l14.5,57.3a16.6,16.6,0,0,1-6.3,17.7A16.8,16.8,0,0,1,187.3,232ZM128,181.5a16,16,0,0,1,8.7,2.5h0l50.4,31.9h.2a.7.7,0,0,0,.3-.3c.1-.1.1-.2,0-.6l-14.5-57.3a16.8,16.8,0,0,1,5.4-17l45.3-37.6c.1-.1.3-.3.1-.8s-.2-.4-.3-.4l-59.1-3.8a16.4,16.4,0,0,1-14.1-10.4L128.3,32.3c-.1-.3-.2-.3-.3-.3s-.2,0-.3.3L105.6,87.8A16.4,16.4,0,0,1,91.5,98.2L32.4,102c-.1,0-.2,0-.3.4s0,.7.1.8l45.3,37.6a16.8,16.8,0,0,1,5.4,17L69.4,211a2.5,2.5,0,0,0,.9,2.6,1.6,1.6,0,0,0,2.1.1L119.3,184A16,16,0,0,1,128,181.5Z"/></svg>