<svg id="Flat" xmlns="http://www.w3.org/2000/svg" viewBox="0 0 256 256">
  <path d="M223.90662,137.15918A8.022,8.022,0,0,0,224,136V88a56.0629,56.0629,0,0,0-56-56H88A56.0629,56.0629,0,0,0,32,88v80a56.0629,56.0629,0,0,0,56,56h48a8.02921,8.02921,0,0,0,1.15924-.09326c.07263-.01074.14472-.02051.217-.0332a8.01817,8.01817,0,0,0,1.11285-.27344c.01349-.0044.02771-.00586.0412-.01026,26.23243-8.74511,76.31446-58.82714,85.05957-85.05957.00446-.01367.00574-.02783.01014-.041a7.952,7.952,0,0,0,.27349-1.11328C223.88611,137.30371,223.896,137.23193,223.90662,137.15918ZM48,168V88A40.04584,40.04584,0,0,1,88,48h80a40.04584,40.04584,0,0,1,40,40v40H184a56.0629,56.0629,0,0,0-56,56v24H88A40.04584,40.04584,0,0,1,48,168Zm96,35.1377V184a40.04584,40.04584,0,0,1,40-40h19.13794C190.97345,163.50439,163.50452,190.97363,144,203.1377Z"/>
</svg>
