<svg id="Flat" xmlns="http://www.w3.org/2000/svg" viewBox="0 0 256 256">
  <path d="M231.98987,95.79919c-.00293-.11914-.00971-.23779-.01807-.35705-.01269-.1836-.03168-.36475-.05658-.5448-.0144-.10315-.02868-.20581-.04712-.30872-.03772-.21142-.08545-.41894-.13946-.62426-.01416-.05372-.02094-.10853-.03626-.16211L217.35059,43.604A16.06985,16.06985,0,0,0,201.96582,32H54.03418A16.06971,16.06971,0,0,0,38.64941,43.60449L24.30762,93.80225c-.01532.05358-.0221.10839-.03626.16211-.054.20532-.10174.41284-.13946.62426-.01844.10291-.03272.20557-.04712.30872-.0249.18-.04389.3612-.05658.5448-.00836.11926-.01514.23791-.01807.35705C24.00848,95.86658,24,95.93213,24,96v16a39.96225,39.96225,0,0,0,16,31.978V208a16.01833,16.01833,0,0,0,16,16H200a16.01833,16.01833,0,0,0,16-16V143.978A39.96225,39.96225,0,0,0,232,112V96C232,95.93213,231.99152,95.86658,231.98987,95.79919ZM54.03027,48H201.96582l11.42871,40H42.60547ZM104,104h48v8a24,24,0,0,1-48,0Zm-16,0v8a23.98436,23.98436,0,0,1-35.12427,21.256,7.98348,7.98348,0,0,0-1.813-1.05774A23.99615,23.99615,0,0,1,40,112v-8ZM200,208H56V151.19507a39.99151,39.99151,0,0,0,40-15.223,39.95817,39.95817,0,0,0,64,0,39.99151,39.99151,0,0,0,40,15.223Zm4.932-75.79834a7.97833,7.97833,0,0,0-1.80152,1.05115A23.9845,23.9845,0,0,1,168,112v-8h48v8A23.99617,23.99617,0,0,1,204.932,132.20166Z"/>
</svg>
