<svg xmlns="http://www.w3.org/2000/svg" viewBox="0 0 256 256"><path d="M68,152a36,36,0,1,0,36,36A36,36,0,0,0,68,152Zm0,56a20,20,0,1,1,20-20A20.1,20.1,0,0,1,68,208ZM34.3,106.3,48.7,92,34.3,77.7A8.1,8.1,0,0,1,45.7,66.3L60,80.7,74.3,66.3A8.1,8.1,0,0,1,85.7,77.7L71.3,92l14.4,14.3a8.1,8.1,0,0,1,0,11.4,8.2,8.2,0,0,1-11.4,0L60,103.3,45.7,117.7a8.2,8.2,0,0,1-11.4,0A8.1,8.1,0,0,1,34.3,106.3Zm187.4,96a8.1,8.1,0,0,1,0,11.4,8.2,8.2,0,0,1-11.4,0L196,199.3l-14.3,14.4a8.2,8.2,0,0,1-11.4,0,8.1,8.1,0,0,1,0-11.4L184.7,188l-14.4-14.3a8.1,8.1,0,0,1,11.4-11.4L196,176.7l14.3-14.4a8.1,8.1,0,0,1,11.4,11.4L207.3,188Zm-45.2-89.5c-6.2,22.4-25.3,41.7-46.6,47l-1.9.2a8,8,0,0,1-7.8-6.1,8.1,8.1,0,0,1,5.9-9.7c15.6-3.9,30.3-18.9,35-35.6,3.1-11.5,3.2-29-14.8-46.9L144,59.3V80a8,8,0,0,1-16,0V40a8,8,0,0,1,8-8h40a8,8,0,0,1,0,16H155.3l2.4,2.3C175.9,68.6,182.6,90.8,176.5,112.8Z"/></svg>