<svg id="Flat" xmlns="http://www.w3.org/2000/svg" viewBox="0 0 256 256">
  <path d="M226.52979,56.41016l-96-32a8.00672,8.00672,0,0,0-5.05958,0L29.624,56.35889l-.00976.00341-.144.04786c-.02832.00927-.053.02465-.08105.03442a7.89893,7.89893,0,0,0-1.01074.42871c-.0376.019-.07642.03516-.11353.05469a7.97333,7.97333,0,0,0-.93139.58325c-.06543.04688-.12891.09522-.19288.144a8.086,8.086,0,0,0-.81884.71119c-.02368.02416-.04444.05053-.06787.0747a8.03784,8.03784,0,0,0-.66089.783c-.04175.05567-.08472.10986-.12476.16675a7.98528,7.98528,0,0,0-.56714.92993c-.02588.04981-.04809.10083-.073.15112a7.98976,7.98976,0,0,0-.40527.97608c-.0105.03149-.02368.06128-.03393.093a7.96857,7.96857,0,0,0-.26294,1.08544c-.01319.07666-.02393.15308-.03492.23A8.02888,8.02888,0,0,0,24,64v80a8,8,0,0,0,16,0V75.09985L73.58521,86.29492a63.9717,63.9717,0,0,0,20.42944,87.89746,95.88141,95.88141,0,0,0-46.48389,37.4375,7.9997,7.9997,0,1,0,13.40235,8.73828,80.023,80.023,0,0,1,134.1333,0,7.99969,7.99969,0,1,0,13.40234-8.73828,95.87941,95.87941,0,0,0-46.4834-37.43725,63.972,63.972,0,0,0,20.42944-87.89771l44.115-14.70508a8.0005,8.0005,0,0,0,0-15.17968ZM176,120A48,48,0,1,1,89.34863,91.54932l36.12158,12.04052a8.00672,8.00672,0,0,0,5.05958,0l36.12158-12.04052A47.85493,47.85493,0,0,1,176,120Zm-9.29834-45.33325c-.01978.00683-.03955.01269-.05908.01977L128,87.56738,89.35718,74.68628c-.01978-.00708-.0398-.01294-.05933-.01978L57.29834,64,128,40.43262,198.70166,64Z"/>
</svg>
