<svg id="Flat" xmlns="http://www.w3.org/2000/svg" viewBox="0 0 256 256">
  <path d="M216.00781,64H176V56a24.0275,24.0275,0,0,0-24-24H104A24.0275,24.0275,0,0,0,80,56v8H40.00781a16.01833,16.01833,0,0,0-16,16v79.84521c-.001.05225-.00781.10254-.00781.15479s.00684.10254.00781.15479V208a16.01833,16.01833,0,0,0,16,16h176a16.01833,16.01833,0,0,0,16-16V80A16.01833,16.01833,0,0,0,216.00781,64ZM96,56a8.00917,8.00917,0,0,1,8-8h48a8.00917,8.00917,0,0,1,8,8v8H96ZM216.00781,80l.00586,72H40.00781V80Zm0,128h-176V168H216.01465l.00342,39.99951Z"/>
</svg>
