<svg xmlns="http://www.w3.org/2000/svg" viewBox="0 0 256 256"><path d="M128,60a68,68,0,1,0,68,68A68.1,68.1,0,0,0,128,60Zm0,120a52,52,0,1,1,52-52A52,52,0,0,1,128,180ZM120,36V28a8,8,0,0,1,16,0v8a8,8,0,0,1-16,0ZM51.6,62.9A8,8,0,0,1,62.9,51.6l5.7,5.7a8,8,0,0,1,0,11.3,8.1,8.1,0,0,1-11.3,0ZM44,128a8,8,0,0,1-8,8H28a8,8,0,0,1,0-16h8A8,8,0,0,1,44,128Zm24.6,59.4a8,8,0,0,1,0,11.3l-5.7,5.7a8,8,0,0,1-5.6,2.3,8.3,8.3,0,0,1-5.7-2.3,8,8,0,0,1,0-11.3l5.7-5.7A8,8,0,0,1,68.6,187.4ZM136,220v8a8,8,0,0,1-16,0v-8a8,8,0,0,1,16,0Zm68.4-26.9a8,8,0,0,1,0,11.3,8.3,8.3,0,0,1-5.7,2.3,8,8,0,0,1-5.6-2.3l-5.7-5.7a8,8,0,0,1,11.3-11.3ZM236,128a8,8,0,0,1-8,8h-8a8,8,0,0,1,0-16h8A8,8,0,0,1,236,128ZM187.4,68.6a8,8,0,0,1,0-11.3l5.7-5.7a8,8,0,1,1,11.3,11.3l-5.7,5.7a8.1,8.1,0,0,1-11.3,0Z"/></svg>