<svg xmlns="http://www.w3.org/2000/svg" viewBox="0 0 256 256"><path d="M200,40a8,8,0,0,0,0,16,16,16,0,0,1,16,16v60H40V72A16,16,0,0,1,56,56a8,8,0,0,0,0-16A32.1,32.1,0,0,0,24,72v92a44,44,0,0,0,88,0V148h32v16a44,44,0,0,0,88,0V72A32.1,32.1,0,0,0,200,40Zm13.9,134.6L187.3,148H216v16A27.1,27.1,0,0,1,213.9,174.6ZM40,164V148h4.7l39.1,39.1A27.6,27.6,0,0,1,68,192,28.1,28.1,0,0,1,40,164Zm56,0a27.1,27.1,0,0,1-2.1,10.6L67.3,148H96Zm64,0V148h4.7l39.1,39.1A27.6,27.6,0,0,1,188,192,28.1,28.1,0,0,1,160,164Z"/></svg>