<svg id="Flat" xmlns="http://www.w3.org/2000/svg" viewBox="0 0 256 256">
  <path d="M224,47.99316v104a16.01833,16.01833,0,0,1-16,16H99.30688l10.34986,10.34961a8.00018,8.00018,0,0,1-11.31348,11.31446l-24-24a7.98872,7.98872,0,0,1-1.36011-1.822c-.0061-.01124-.01367-.022-.01977-.03333-.10376-.192-.19556-.38843-.28272-.58655-.01879-.04309-.041-.08435-.05908-.12768-.0747-.179-.13794-.36121-.19922-.54407-.0227-.06751-.04931-.13318-.07031-.20154-.05322-.17383-.09448-.34985-.1355-.52624-.0188-.08045-.04223-.15882-.05859-.24012-.03809-.19043-.06348-.38232-.08765-.57446-.00879-.06934-.023-.137-.02978-.20691C72.01416,160.52856,72,160.262,72,159.99524v-.00208c0-.025.00342-.04907.00366-.07409.00244-.23572.0127-.47132.03589-.70606.01514-.15759.043-.31128.06714-.46618.01587-.09986.02612-.20032.04565-.29969.03565-.18139.083-.358.13062-.53479.01953-.072.03418-.145.05566-.21655.05591-.18652.123-.3678.1919-.54834.02319-.06116.04248-.12329.06738-.184.07739-.18884.16553-.37146.25659-.55286.02539-.05041.04688-.10229.07324-.15222.1084-.20459.22706-.40222.35206-.59582.01562-.024.02856-.04907.04443-.073a8.02277,8.02277,0,0,1,1.09057-1.31836l23.92847-23.92847a8.00018,8.00018,0,0,1,11.31348,11.31446L99.32056,151.99316H208v-104H96v8a8,8,0,0,1-16,0v-8a16.01833,16.01833,0,0,1,16-16H208A16.01833,16.01833,0,0,1,224,47.99316ZM168,192a8.00008,8.00008,0,0,0-8,8v8H48V104H156.67944l-10.33618,10.33594a8.00018,8.00018,0,0,0,11.31348,11.31445l23.92847-23.92847a8.02235,8.02235,0,0,0,1.09057-1.31836c.01587-.02392.02881-.049.04443-.073.125-.19361.24366-.39124.35206-.59583.02636-.05017.04809-.10217.07373-.15283.09082-.18091.17871-.36316.25586-.55164.02539-.06176.04492-.12524.06884-.1875.06836-.17968.135-.35986.19068-.54541.02148-.07153.03613-.14453.05566-.21655.04761-.17676.095-.35339.13062-.53479.01953-.09936.02978-.19983.04565-.29968.02417-.15491.052-.3086.06714-.46619.02319-.23474.03345-.47034.03589-.70605C183.99658,96.04907,184,96.025,184,96v-.00208c0-.26672-.01416-.53332-.04053-.79907-.00683-.06994-.021-.13757-.02978-.20691-.02417-.19214-.04956-.384-.08765-.57446-.01636-.0813-.03979-.15967-.05859-.24011-.041-.17639-.08228-.35242-.1355-.52625-.02075-.06787-.04736-.13305-.06983-.20019-.06152-.1836-.12475-.36634-.2-.5459-.01782-.04248-.0393-.08252-.05786-.12463-.08716-.1991-.17944-.39637-.28369-.58912-.0061-.01135-.01367-.02209-.01977-.03332a7.9885,7.9885,0,0,0-1.36011-1.822l-24-24a8.00018,8.00018,0,0,0-11.31348,11.31445L156.69312,88H48a16.01833,16.01833,0,0,0-16,16V208a16.01833,16.01833,0,0,0,16,16H160a16.01833,16.01833,0,0,0,16-16v-8A8.00008,8.00008,0,0,0,168,192Z"/>
</svg>
