<svg id="Flat" xmlns="http://www.w3.org/2000/svg" viewBox="0 0 256 256">
  <path d="M72,192a12,12,0,1,1,12-12A12.01343,12.01343,0,0,1,72,192Zm156-27.72241V208a16.01833,16.01833,0,0,1-16,16H72c-.02,0-.03955-.00293-.05957-.00293H71.937a43.299,43.299,0,0,1-35.40137-18.35449,45.288,45.288,0,0,1-7.74365-33.9834L52.979,34.48633A15.99894,15.99894,0,0,1,71.51514,21.50879l55.14843,9.72266a16.00057,16.00057,0,0,1,12.97852,18.53613l-11.0769,62.82031,59.94262-21.81738a16.01669,16.01669,0,0,1,20.50733,9.56347l19.15332,52.62207A15.91483,15.91483,0,0,1,228,164.27759ZM125.35693,130.78271l-10.02539,56.85791a43.47971,43.47971,0,0,1-1.8789,7.06885l99.68066-36.28076L193.98,105.80566ZM67.6792,207.665a28.14065,28.14065,0,0,0,31.89551-22.80371l24.31054-137.873L68.73633,37.26562,44.54883,174.43848a29.1951,29.1951,0,0,0,5.00488,21.90234A27.40264,27.40264,0,0,0,67.6792,207.665ZM212,208V175.86841L123.71875,208Z"/>
</svg>
