<svg id="Flat" xmlns="http://www.w3.org/2000/svg" viewBox="0 0 256 256">
  <path d="M245.39844,61.29932,195.96924,33.0542c-.01953-.01123-.04-.019-.05957-.03027-.15821-.08887-.32227-.16846-.48682-.24659-.07764-.03686-.15405-.07763-.23218-.11181-.14917-.06494-.30322-.12012-.45678-.176-.09912-.03638-.19751-.07666-.29737-.10888-.11963-.03809-.24292-.06714-.36474-.09986-.13843-.03735-.27637-.07739-.41553-.10693-.08643-.01831-.17529-.0293-.26294-.04468-.17773-.03149-.35522-.06226-.53369-.08154-.07031-.00757-.14209-.00928-.21289-.0149-.19653-.01586-.39258-.02856-.58887-.02978-.01953,0-.03833-.00293-.05786-.00293H160a7.99977,7.99977,0,0,0-8,8,24,24,0,0,1-48,0,7.99977,7.99977,0,0,0-8-8H64c-.02588,0-.05054.00366-.07617.00391-.16821.00146-.33618.01318-.5044.02539-.09814.00708-.19726.01025-.29443.02075-.15137.0166-.302.0437-.45312.06909-.11353.019-.22828.03394-.34034.05786-.11718.0249-.23291.05933-.34936.08985-.14331.03735-.28736.072-.42749.11694-.08545.02759-.16944.0625-.25415.09326-.16724.05982-.334.12012-.49585.19067-.07227.03174-.14331.06983-.21533.10376-.169.08008-.33692.16163-.49927.25269-.01953.011-.0398.0188-.05933.03L10.60107,61.29932A16.00794,16.00794,0,0,0,4.229,82.34668l18.4043,36.80811A15.91231,15.91231,0,0,0,36.94434,128H56v80a16.01833,16.01833,0,0,0,16,16H184a16.01833,16.01833,0,0,0,16-16V128h19.05566a15.91146,15.91146,0,0,0,14.31055-8.84473l18.40527-36.80908A16.00784,16.00784,0,0,0,245.39844,61.29932ZM36.94434,112,18.54,75.19092,56,53.7854V112ZM184,208H72V48H88.80371a40.00546,40.00546,0,0,0,78.39258,0H184Zm35.05566-96H200V53.7854l37.46045,21.406Z"/>
</svg>
