<svg id="Flat" xmlns="http://www.w3.org/2000/svg" viewBox="0 0 256 256">
  <path d="M235.7041,119.11621l-42.667-64a15.96843,15.96843,0,0,0-13.3125-7.125H24.00586a8.00013,8.00013,0,0,0-6.65674,12.4375L62.39111,128l-45.0415,67.55273a8.00029,8.00029,0,0,0,6.65625,12.43848H179.72461a15.96626,15.96626,0,0,0,13.3125-7.124h0l42.667-64A15.96086,15.96086,0,0,0,235.7041,119.11621Zm-55.97949,72.876v-.001H38.95508L75.70361,136.875a15.95654,15.95654,0,0,0,.00049-17.75l-36.751-55.13379H179.72461l42.6665,64.001Z"/>
</svg>
