<svg id="Flat" xmlns="http://www.w3.org/2000/svg" viewBox="0 0 256 256">
  <path d="M221.86719,83.16211A104.08689,104.08689,0,1,1,195.667,49.01855l22.67578-22.67529a8.00018,8.00018,0,0,1,11.31446,11.31348L167.603,99.71094l-.0044.00488-.00488.00439-33.93652,33.93653a8.00018,8.00018,0,0,1-11.31446-11.31348L150.0625,94.62354a40.01209,40.01209,0,1,0,17.87207,31.09033,8.0002,8.0002,0,1,1,15.97461-.90821,56.00475,56.00475,0,1,1-22.37842-41.65039l22.76856-22.76855a87.88636,87.88636,0,1,0,23.13037,29.67187,8,8,0,0,1,14.4375-6.89648Z"/>
</svg>
