<svg id="Flat" xmlns="http://www.w3.org/2000/svg" viewBox="0 0 256 256">
  <path d="M231.25586,31.73635a15.96358,15.96358,0,0,0-16.29-2.76758L30.40869,101.47365a15.99988,15.99988,0,0,0,2.7124,30.58106L80,141.43069V199.9844a15.99415,15.99415,0,0,0,27.31348,11.31347L133.25684,185.355l39.376,34.65088a15.86863,15.86863,0,0,0,10.51709,4.00293,16.15443,16.15443,0,0,0,4.96338-.78711,15.86491,15.86491,0,0,0,10.68457-11.65332L236.41162,47.43557A15.96073,15.96073,0,0,0,231.25586,31.73635ZM86.146,126.34279l-49.88526-9.977L175.94238,61.4905ZM96,199.97658V152.56887l25.21973,22.1936Zm87.20215,8.01758L100.81006,135.4883l118.645-85.687Z"/>
</svg>
