<svg id="Flat" xmlns="http://www.w3.org/2000/svg" viewBox="0 0 256 256">
  <path d="M231.93774,129.11963a7.39813,7.39813,0,0,0,.00415-1.8833A103.90462,103.90462,0,0,0,128,24c-.04272,0-.085.00146-.12769.00146L127.84717,24H127.833c-.01563,0-.031.00244-.04663.00244A103.89835,103.89835,0,0,0,24.06226,126.8877a7.40751,7.40751,0,0,0-.00415,1.86914A103.90454,103.90454,0,0,0,128,232c.04761,0,.095-.00146.14258-.00195l.00976.001h.01465l.02124-.00146A103.89841,103.89841,0,0,0,231.93774,129.11963ZM65.77441,65.77441a87.57978,87.57978,0,0,1,53.63843-25.314A87.35058,87.35058,0,0,1,94.05908,94.05859a87.34884,87.34884,0,0,1-53.59814,25.354A87.59252,87.59252,0,0,1,65.77441,65.77441ZM40.37476,135.48389a103.23861,103.23861,0,0,0,64.9978-30.11133A103.23757,103.23757,0,0,0,135.48413,40.375a87.76227,87.76227,0,0,1,80.14111,80.14111A104.00747,104.00747,0,0,0,120.51611,215.625a87.76223,87.76223,0,0,1-80.14135-80.14111Zm96.21264,80.05517a88.0136,88.0136,0,0,1,78.95166-78.95166,87.82009,87.82009,0,0,1-78.95166,78.95166Z"/>
</svg>
