<svg xmlns="http://www.w3.org/2000/svg" viewBox="0 0 256 256"><path d="M128,161.2V48a8,8,0,0,0-16,0V161.2a28,28,0,1,0,16,0ZM120,200a12,12,0,1,1,12-12A12,12,0,0,1,120,200ZM178.1,85.7a8,8,0,0,1,0-11.4,28,28,0,0,1,19.8-8.2,28.4,28.4,0,0,1,19.8,8.2,11.9,11.9,0,0,0,16.9,0,8,8,0,0,1,11.3,11.4,28,28,0,0,1-19.8,8.2,28.4,28.4,0,0,1-19.8-8.2,11.9,11.9,0,0,0-16.9,0A8,8,0,0,1,178.1,85.7Zm67.8,28.6a8,8,0,0,1,0,11.4,28,28,0,0,1-19.8,8.2,28.4,28.4,0,0,1-19.8-8.2,11.9,11.9,0,0,0-16.9,0,8,8,0,0,1-11.3-11.4,28,28,0,0,1,19.8-8.2,28.4,28.4,0,0,1,19.8,8.2,11.9,11.9,0,0,0,16.9,0A8,8,0,0,1,245.9,114.3Zm-85.9,29V48a40,40,0,0,0-80,0v95.3A59.4,59.4,0,0,0,60,188a60,60,0,0,0,120,0A59.4,59.4,0,0,0,160,143.3ZM120,232a44,44,0,0,1-44-44,43.5,43.5,0,0,1,16.6-34.4A8.1,8.1,0,0,0,96,147V48a24,24,0,0,1,48,0v99a8.2,8.2,0,0,0,3.3,6.5A44,44,0,0,1,120,232Z"/></svg>