<svg xmlns="http://www.w3.org/2000/svg" viewBox="0 0 256 256"><path d="M128,161.2V120a8,8,0,0,0-16,0v41.2a28,28,0,1,0,16,0ZM120,200a12,12,0,1,1,12-12A12,12,0,0,1,120,200ZM244.9,77.7l-20,6.5,12.4,17a8,8,0,0,1-1.8,11.2,8.1,8.1,0,0,1-11.2-1.8L212,93.6l-12.3,17a8.1,8.1,0,0,1-11.2,1.8,8,8,0,0,1-1.8-11.2l12.4-17-20-6.5A7.9,7.9,0,0,1,174,67.6a7.8,7.8,0,0,1,10-5.1L204,69V48a8,8,0,0,1,16,0V69l20-6.5a7.8,7.8,0,0,1,10,5.1A7.9,7.9,0,0,1,244.9,77.7ZM160,143.3V48a40,40,0,0,0-80,0v95.3A59.4,59.4,0,0,0,60,188a60,60,0,0,0,120,0A59.4,59.4,0,0,0,160,143.3ZM120,232a44,44,0,0,1-44-44,43.5,43.5,0,0,1,16.6-34.4A8.1,8.1,0,0,0,96,147V48a24,24,0,0,1,48,0v99a8.2,8.2,0,0,0,3.3,6.5A44,44,0,0,1,120,232Z"/></svg>