<svg id="Flat" xmlns="http://www.w3.org/2000/svg" viewBox="0 0 256 256">
  <path d="M76,120a12,12,0,1,1-12-12A12,12,0,0,1,76,120Zm164,0v88a16.01833,16.01833,0,0,1-16,16H112a16.01833,16.01833,0,0,1-16-16V186.34595C87.37207,200.36914,76.18262,208,64,208c-13.87256,0-26.459-9.89209-35.43945-27.854C20.46045,163.94678,16,142.58643,16,120c0-22.58667,4.46045-43.947,12.56055-60.14624C37.541,41.89185,50.12744,32,64,32H192c13.87256,0,26.459,9.89185,35.43945,27.85376C235.53955,76.053,240,97.41333,240,120ZM96,120c0-42.43066-16.86426-72-32-72S32,77.56934,32,120s16.86426,72,32,72S96,162.43066,96,120Zm128,88V128H208a8,8,0,0,1,0-16h15.79443C221.84131,73.89966,206.16479,48,192,48H92.12109a73.19107,73.19107,0,0,1,7.31836,11.85376C106.57593,74.126,110.88281,92.40625,111.80762,112H128a8,8,0,0,1,0,16H112v80Zm-48-96H160a8,8,0,0,0,0,16h16a8,8,0,0,0,0-16Z"/>
</svg>
