<svg id="Flat" xmlns="http://www.w3.org/2000/svg" viewBox="0 0 256 256">
  <path d="M138.34326,101.65723a8.00018,8.00018,0,0,1,11.31348-11.31446l24,24c.02783.02784.05127.0586.07861.08692.15576.16015.30762.3247.44971.49756.082.10009.15381.20507.23047.3081.0791.10645.16162.21045.23584.32129.0791.11768.14746.23975.21924.36084.06152.103.12646.2041.18359.31006.06494.12158.12012.24609.17822.37012.05322.11328.10987.22461.1582.34082.04883.11865.08838.23974.13184.36035.04492.126.09326.25.13233.3789.03662.12012.063.2417.09326.36329.0332.13183.07031.26171.09668.396.02783.13965.04443.28076.06445.42139.01709.11719.03906.23291.05078.352a8.04864,8.04864,0,0,1,0,1.5791c-.01172.11914-.03369.23486-.05078.352-.02.14063-.03662.28174-.06445.42139-.02637.13428-.06348.26416-.09668.396-.03028.12159-.05664.24317-.09326.36329-.03907.1289-.08741.25293-.13233.3789-.04346.12061-.083.2417-.13184.36035-.04833.11621-.105.22754-.1582.34082-.0581.124-.11328.24854-.17822.37012-.05713.106-.12207.207-.18359.31006-.07178.12109-.14014.24316-.21924.36084-.07422.11084-.15674.21484-.23584.32129-.07666.103-.14844.208-.23047.3081-.14209.17286-.29395.33741-.44971.49756-.02734.02832-.05078.05908-.07861.08692l-24,24a8.00018,8.00018,0,0,1-11.31348-11.31446L148.686,128H112a16.01833,16.01833,0,0,0-16,16v8a8,8,0,0,1-16,0v-8a32.03635,32.03635,0,0,1,32-32h36.686ZM244.001,139.31348,139.31348,244a15.9989,15.9989,0,0,1-22.627,0L12,139.31445a16.02119,16.02119,0,0,1-.00049-22.62793L116.68652,12a15.99888,15.99888,0,0,1,22.62793.001L244,116.68555A16.02163,16.02163,0,0,1,244.001,139.31348ZM232.68652,128,128,23.31445,23.31348,128,128,232.68555l.00049.001.00781.00684Z"/>
</svg>
