<svg id="Flat" xmlns="http://www.w3.org/2000/svg" viewBox="0 0 256 256">
  <path d="M223.93011,121.04651a7.94667,7.94667,0,0,0,.0658-.98889c.00049-.06708-.00445-.13373-.00568-.20081q-.00714-.37884-.05065-.76166c-.01111-.09741-.02314-.194-.03785-.291-.0119-.07855-.01635-.15656-.03064-.23529-.03271-.18006-.07983-.35352-.1239-.52838-.01214-.0481-.01636-.09754-.02942-.14545l-.03332-.12231-.00055-.00177L201.3252,35.79A16.03362,16.03362,0,0,0,185.88965,24H70.11035A16.03362,16.03362,0,0,0,54.6748,35.79L32.31641,117.76978l-.00135.00488-.03283.12036c-.01294.04742-.01709.09625-.02912.14386-.04425.17535-.09137.34943-.1242.53-.01429.07873-.01874.15674-.03064.23529-.01471.097-.02674.1936-.03785.291q-.04394.38316-.05065.76166c-.00123.06708-.00617.13373-.00568.20081a7.94667,7.94667,0,0,0,.0658.98889c.00268.0202.00756.0401.01043.06036a7.937,7.937,0,0,0,.18109.89508c.00879.03406.01154.06909.02082.103L54.6748,204.209A16.03394,16.03394,0,0,0,70.11035,216h9.88941L65.59961,235.2002a8.00019,8.00019,0,0,0,12.80078,9.5996L100.00024,216h55.99952l21.59985,28.7998a8.00019,8.00019,0,0,0,12.80078-9.5996L176.00024,216h9.88941a16.03394,16.03394,0,0,0,15.43555-11.791l22.39257-82.104c.00928-.03394.012-.069.02082-.103a7.937,7.937,0,0,0,.18109-.89508C223.92255,121.08661,223.92743,121.06671,223.93011,121.04651ZM70.10645,40h115.7832l20.09723,73.68933L128,127.86865,50.01282,113.68927ZM51.058,130.14178,120,142.6767v57.32275L70.11035,199.999ZM185.88965,200,136,199.99957V142.6767l68.94208-12.535ZM88,88a8.00008,8.00008,0,0,1,8-8h64a8,8,0,0,1,0,16H96A8.00008,8.00008,0,0,1,88,88Z"/>
</svg>
