<svg xmlns="http://www.w3.org/2000/svg" viewBox="0 0 256 256"><path d="M223.9,121a2.8,2.8,0,0,0,.1-.9v-.2a2.2,2.2,0,0,0-.1-.8v-.5c-.1-.2-.1-.4-.2-.6h0l-22.4-82A15.9,15.9,0,0,0,185.9,24H70.1A15.9,15.9,0,0,0,54.7,35.8l-22.4,82h0c-.1.2-.1.4-.2.6v.5a2.2,2.2,0,0,0-.1.8v.2a2.8,2.8,0,0,0,.1.9h0a2.9,2.9,0,0,0,.2.9h0l22.4,82.1A15.9,15.9,0,0,0,70.1,216H80L65.6,235.2a8,8,0,0,0,1.6,11.2A7.7,7.7,0,0,0,72,248a8,8,0,0,0,6.4-3.2L100,216h56l21.6,28.8A8,8,0,0,0,184,248a7.7,7.7,0,0,0,4.8-1.6,8,8,0,0,0,1.6-11.2L176,216h9.9a15.9,15.9,0,0,0,15.4-11.8l22.4-82.1h0a2.9,2.9,0,0,0,.2-.9ZM70.1,40H185.9L206,113.7l-78,14.2L50,113.7Zm-19,90.1L120,142.7V200H70.1ZM185.9,200H136V142.7l68.9-12.6ZM88,88a8,8,0,0,1,8-8h64a8,8,0,0,1,0,16H96A8,8,0,0,1,88,88Z"/></svg>