<svg xmlns="http://www.w3.org/2000/svg" viewBox="0 0 256 256"><path d="M239.2,212.4l-56-112A8.2,8.2,0,0,0,176,96a7.9,7.9,0,0,0-7.1,4.4l-21.7,43.4A87.4,87.4,0,0,1,100,126.9,103.5,103.5,0,0,0,127.7,64H152a8,8,0,0,0,0-16H96V32a8,8,0,0,0-16,0V48H24a8,8,0,0,0,0,16h87.6A87,87,0,0,1,88,116.3a87.1,87.1,0,0,1-19-31,8,8,0,0,0-15.1,5.4A103.8,103.8,0,0,0,76,126.9,87.1,87.1,0,0,1,24,144a8,8,0,0,0,0,16,103.6,103.6,0,0,0,64-22.1,103.6,103.6,0,0,0,51.5,21.3l-26.6,53.2a8.1,8.1,0,0,0,3.5,10.8,8.2,8.2,0,0,0,10.8-3.6L141,192h70.1l13.8,27.6A7.9,7.9,0,0,0,232,224a9.4,9.4,0,0,0,3.6-.8A8.2,8.2,0,0,0,239.2,212.4ZM149,176l27-54.1L203.1,176Z"/></svg>