<svg id="Flat" xmlns="http://www.w3.org/2000/svg" viewBox="0 0 256 256">
  <path d="M239.15527,212.42188l-56-112a8.00009,8.00009,0,0,0-14.31054,0L147.14722,143.817a88.01187,88.01187,0,0,1-47.15235-16.89991A103.63859,103.63859,0,0,0,127.69531,64H152a8,8,0,0,0,0-16H96V32a8,8,0,0,0-16,0V48H24a8,8,0,0,0,0,16h87.63257a87.71326,87.71326,0,0,1-23.64038,52.34106A87.62852,87.62852,0,0,1,69.01025,85.332a7.99984,7.99984,0,1,0-15.083,5.33789A103.56313,103.56313,0,0,0,76.009,126.93945,87.52771,87.52771,0,0,1,24,144a8,8,0,0,0,0,16,103.48414,103.48414,0,0,0,64.01318-22.09045A104.14255,104.14255,0,0,0,139.45459,159.202l-26.60986,53.21985a8.00005,8.00005,0,0,0,14.31054,7.15625L140.94434,192h70.11132l13.78907,27.57813a8.00005,8.00005,0,0,0,14.31054-7.15625ZM148.94434,176,176,121.88867,203.05566,176Z"/>
</svg>
