<svg id="Flat" xmlns="http://www.w3.org/2000/svg" viewBox="0 0 256 256">
  <path d="M208,32H48A16.01833,16.01833,0,0,0,32,48V159.88379c-.00049.03906-.00586.07715-.00586.11621s.00537.07715.00586.11621V208a16.01833,16.01833,0,0,0,16,16H208a16.01833,16.01833,0,0,0,16-16V48A16.01833,16.01833,0,0,0,208,32Zm0,16,.00635,104H179.30762a15.89438,15.89438,0,0,0-11.31348,4.68652L148.68066,176l-41.37255.001L87.99365,156.68555A15.89634,15.89634,0,0,0,76.68066,152H48V48Zm0,160H48V168l28.68018-.001,19.31445,19.31543A15.89634,15.89634,0,0,0,107.30762,192h41.373a15.89522,15.89522,0,0,0,11.31348-4.68652L179.30762,168h28.6997l.00245,40Z"/>
</svg>
