<svg id="Flat" xmlns="http://www.w3.org/2000/svg" viewBox="0 0 256 256">
  <path d="M168,112h48a16.01833,16.01833,0,0,0,16-16V48a16.01833,16.01833,0,0,0-16-16H168a16.01833,16.01833,0,0,0-16,16V64h-8a32.03635,32.03635,0,0,0-32,32v24H88V108A16.01833,16.01833,0,0,0,72,92H32a16.01833,16.01833,0,0,0-16,16v40a16.01833,16.01833,0,0,0,16,16H72a16.01833,16.01833,0,0,0,16-16V136h24v24a32.03635,32.03635,0,0,0,32,32h8v16a16.01833,16.01833,0,0,0,16,16h48a16.01833,16.01833,0,0,0,16-16V160a16.01833,16.01833,0,0,0-16-16H168a16.01833,16.01833,0,0,0-16,16v16h-8a16.01833,16.01833,0,0,1-16-16V96a16.01833,16.01833,0,0,1,16-16h8V96A16.01833,16.01833,0,0,0,168,112ZM72,148H32V108H72l.00488,19.90381C72.00452,127.936,72,127.96777,72,128c0,.03271.00452.06445.00488.09717l.00489,19.90234Zm96,12h48l.00977,47.99951L216,208H168Zm0-112h48l.00977,47.99951L216,96H168Z"/>
</svg>
