<svg xmlns="http://www.w3.org/2000/svg" viewBox="0 0 256 256"><path d="M168,112h48a16,16,0,0,0,16-16V48a16,16,0,0,0-16-16H168a16,16,0,0,0-16,16V64h-8a32.1,32.1,0,0,0-32,32v24H88V108A16,16,0,0,0,72,92H32a16,16,0,0,0-16,16v40a16,16,0,0,0,16,16H72a16,16,0,0,0,16-16V136h24v24a32.1,32.1,0,0,0,32,32h8v16a16,16,0,0,0,16,16h48a16,16,0,0,0,16-16V160a16,16,0,0,0-16-16H168a16,16,0,0,0-16,16v16h-8a16,16,0,0,1-16-16V96a16,16,0,0,1,16-16h8V96A16,16,0,0,0,168,112ZM72,148H32V108H72v19.9h0V148Zm96,12h48v48H168Zm0-112h48V96H168Z"/></svg>