<svg xmlns="http://www.w3.org/2000/svg" viewBox="0 0 256 256"><path d="M248.1,119.9v-.2a1.7,1.7,0,0,0-.1-.7v-.3c0-.2-.1-.4-.1-.6v-.2c-.1-.3-.1-.5-.2-.8h-.1L233.6,82.1A15.9,15.9,0,0,0,218.7,72H184.1V64a8,8,0,0,0-8-8H24.1a16,16,0,0,0-16,16V184a16,16,0,0,0,16,16h13a32,32,0,0,0,62,0h58a32,32,0,0,0,62,0h13a16,16,0,0,0,16-16V120ZM218.7,88l9.6,24H184.1V88ZM168.1,72v64H24.1V72Zm-144,80h144v15a32.6,32.6,0,0,0-11,17h-58a32,32,0,0,0-62,0h-13Zm44,56a16,16,0,1,1,16-16A16,16,0,0,1,68.1,208Zm120,0a16,16,0,1,1,16-16A16,16,0,0,1,188.1,208Zm44-24h-13a32.1,32.1,0,0,0-31-24,26.9,26.9,0,0,0-4,.3V128h48Z"/></svg>