<svg id="Flat" xmlns="http://www.w3.org/2000/svg" viewBox="0 0 256 256">
  <path d="M247.99676,119.94092c-.00061-.084-.00946-.168-.01269-.252-.00855-.22216-.02265-.44287-.049-.66015-.01154-.09424-.02814-.188-.0431-.28223-.03411-.21631-.0758-.4292-.127-.63965-.02063-.08447-.04156-.16845-.065-.25293q-.10062-.36108-.23377-.708c-.01477-.03858-.02331-.07862-.03875-.11719l-.0495-.12354-.01074-.02734-13.928-34.82031A15.92368,15.92368,0,0,0,218.58374,72h-34.584V64a8.00039,8.00039,0,0,0-8-8h-152a16.01833,16.01833,0,0,0-16,16V184a16.01833,16.01833,0,0,0,16,16h13.0127a32.00444,32.00444,0,0,0,61.97461,0h58.02539a32.00444,32.00444,0,0,0,61.97461,0h13.01269a16.01833,16.01833,0,0,0,16-16V120C247.99975,119.98,247.99688,119.96094,247.99676,119.94092ZM218.58374,88l9.59961,24h-44.1836V88Zm-50.584-16v64h-144V72Zm-144,80h144v15.04687A32.0643,32.0643,0,0,0,157.01245,184H98.98706a32.00444,32.00444,0,0,0-61.97461,0H23.99975Zm44,56a16,16,0,1,1,16-16A16.01833,16.01833,0,0,1,67.99975,208Zm120,0a16,16,0,1,1,16-16A16.01833,16.01833,0,0,1,187.99975,208Zm44-24H218.98706a31.93034,31.93034,0,0,0-34.98731-23.74121V128h48Z"/>
</svg>
