<svg id="Flat" xmlns="http://www.w3.org/2000/svg" viewBox="0 0 256 256">
  <path d="M80,224.001a136.11973,136.11973,0,0,1-65.90417-17.0083,8.00849,8.00849,0,0,1,3.767-15.00586,119.4544,119.4544,0,0,0,55.93048-14.792A136.20935,136.20935,0,0,1,28.93127,35.58936,8.00012,8.00012,0,0,1,43.3457,33.36279a119.68611,119.68611,0,0,0,76.6507,52.24073,48.00288,48.00288,0,0,1,87.11969-26.51123,120.50956,120.50956,0,0,0,30.34131-6.01465,8,8,0,0,1,9.10107,12.17187,135.60969,135.60969,0,0,1-30.84228,31.60791A136.00871,136.00871,0,0,1,80,224.001ZM49.05566,203.95312A120.47963,120.47963,0,0,0,80,208.001,120.00273,120.00273,0,0,0,199.92419,92.30908a7.99928,7.99928,0,0,1,3.44935-6.30127,119.039,119.039,0,0,0,14.6914-11.97558,136.42119,136.42119,0,0,1-14.96435,1.27,7.99956,7.99956,0,0,1-7.2876-4.2168,32.01388,32.01388,0,0,0-59.20136,22.17236,8.00542,8.00542,0,0,1-8.905,9.77637A135.40778,135.40778,0,0,1,40.95618,56.78467,121.27932,121.27932,0,0,0,40,72.001a120.02629,120.02629,0,0,0,52.50592,99.23437,8.00038,8.00038,0,0,1,0,13.22168A135.259,135.259,0,0,1,49.05566,203.95312Z"/>
</svg>
