<svg id="Flat" xmlns="http://www.w3.org/2000/svg" viewBox="0 0 256 256">
  <path d="M247.39111,68.93848A8.00015,8.00015,0,0,0,240,64l-30.42285-.00049a47.81889,47.81889,0,0,0-75.21631-10.05322A47.58908,47.58908,0,0,0,120,87.99609l-.00537,6.11914c-40.69531-10.60107-73.98535-43.42041-74.33789-43.772a7.9999,7.9999,0,0,0-13.52783,4.22559c-8.77539,48.26562,5.72265,80.57324,19.43066,99.17676a109.574,109.574,0,0,0,24.72656,24.355c-15.24756,17.251-38.83838,26.31152-39.09521,26.40869a8,8,0,0,0-3.84717,11.92822c.74561,1.11865,3.748,5.05273,11.07861,8.71777C53.50586,229.69727,65.47559,232,80,232c70.53809,0,129.4707-54.29785,135.49268-124.17871l30.16406-30.16455A7.99982,7.99982,0,0,0,247.39111,68.93848ZM202.08057,98.606a7.99812,7.99812,0,0,0-2.32666,5.148C195.74365,166.6958,143.1416,216,80,216c-10.56152,0-18.0459-1.40039-23.22266-3.0791C68.294,206.669,84.33887,195.91357,94.65625,180.4375a8.02072,8.02072,0,0,0-3.05371-11.58057c-.148-.07519-14.937-7.72656-27.60693-25.21093C49.585,123.7583,43.52588,99.68994,45.9126,71.94385c15.78076,12.95459,46.03076,34.15771,80.7583,39.94726a8.00039,8.00039,0,0,0,9.31543-7.88427L136,88.00977v-.00733a32.3198,32.3198,0,0,1,32.40869-32,32.07,32.07,0,0,1,28.93213,19.2002,7.99986,7.99986,0,0,0,7.33057,4.79687h16.01513Z"/>
</svg>
