<svg id="Flat" xmlns="http://www.w3.org/2000/svg" viewBox="0 0 256 256">
  <path d="M247.39111,68.93848A8.00015,8.00015,0,0,0,240,64l-30.42285-.00049a47.81889,47.81889,0,0,0-75.21631-10.05322A47.58871,47.58871,0,0,0,120,88.00293v6.07812C80.81592,83.55713,54.522,51.34424,54.24707,51.00244a8.00018,8.00018,0,0,0-14.11816,3.56641c-4.86475,26.75683-5.39649,65.04736,19.6958,95.5166a92.95377,92.95377,0,0,0,25.34668,21.46631c-9.01807,12.14013-30.21143,18.876-38.75,20.60547a7.99988,7.99988,0,0,0-4.07813,13.49951C43.09229,206.40576,61.08789,224,96,224c35.90527,0,66.65723-13.01318,88.93213-37.63281,19.01855-21.02051,30.22461-49.65137,31.022-79.00781l29.70264-29.70264A7.99964,7.99964,0,0,0,247.39111,68.93848ZM202.34326,98.34326A7.99877,7.99877,0,0,0,200,104c0,26.606-9.81641,52.71533-26.93213,71.63281C153.90967,196.80762,127.25977,208,96,208a73.86722,73.86722,0,0,1-28.939-5.51172c13.57519-5.36474,30.96484-15.26807,36.52832-31.95849a8.031,8.031,0,0,0-4.749-10.00879c-2.1875-.84131-49.92236-20.04932-45.06054-86.86182,14.09179,13.20947,39.75488,32.707,72.90478,38.23193A8.00034,8.00034,0,0,0,136,104V88.00244a32.3198,32.3198,0,0,1,32.40869-32,32.07,32.07,0,0,1,28.93213,19.2002,7.99986,7.99986,0,0,0,7.33057,4.79687h16.01513Z"/>
</svg>
