<svg xmlns="http://www.w3.org/2000/svg" viewBox="0 0 256 256"><path d="M72,248a6.8,6.8,0,0,1-3.4-.8A7.9,7.9,0,0,1,64,240V208H48a16,16,0,0,1-16-16V48A16,16,0,0,1,48,32H208a16,16,0,0,1,16,16V156.3a15.7,15.7,0,0,1-5.8,12.2l-42.9,35.8a15.8,15.8,0,0,1-10.2,3.7H122.9L77.1,246.1A7.5,7.5,0,0,1,72,248ZM48,48V192H72a8,8,0,0,1,8,8v22.9l32.7-27.2a15.8,15.8,0,0,1,10.2-3.7h42.2L208,156.3V48Z"/><path d="M168,144a8,8,0,0,1-8-8V88a8,8,0,0,1,16,0v48A8,8,0,0,1,168,144Z"/><path d="M120,144a8,8,0,0,1-8-8V88a8,8,0,0,1,16,0v48A8,8,0,0,1,120,144Z"/></svg>