<svg id="Flat" xmlns="http://www.w3.org/2000/svg" viewBox="0 0 256 256">
  <path d="M71.9986,248A7.99888,7.99888,0,0,1,64,240V208H48a16.01825,16.01825,0,0,1-16-16V48A16.01826,16.01826,0,0,1,48,32H208a16.01826,16.01826,0,0,1,16,16V156.253a15.95514,15.95514,0,0,1-5.75793,12.292L175.34656,204.291A16.029,16.029,0,0,1,165.10364,208H122.89642l-45.775,38.14551A7.99829,7.99829,0,0,1,71.9986,248ZM48,48V192H72a8.0002,8.0002,0,0,1,8,8v22.91992L112.65344,195.709a16.029,16.029,0,0,1,10.243-3.709h42.20722L208,156.253V48Z"/>
  <path d="M168,144a8.00016,8.00016,0,0,1-8-8V88a8,8,0,0,1,16,0v48A8.00016,8.00016,0,0,1,168,144Z"/>
  <path d="M120,144a8.0002,8.0002,0,0,1-8-8V88a8,8,0,0,1,16,0v48A8.0002,8.0002,0,0,1,120,144Z"/>
</svg>
