<svg xmlns="http://www.w3.org/2000/svg" viewBox="0 0 256 256"><path d="M239.6,126.6A112.1,112.1,0,0,0,128,24h0A112.1,112.1,0,0,0,16.4,126.6a15.7,15.7,0,0,0,4.2,12.2A15.9,15.9,0,0,0,32.3,144H120v56a32,32,0,0,0,64,0,8,8,0,0,0-16,0,16,16,0,0,1-32,0V144h87.7a15.9,15.9,0,0,0,11.7-5.2A15.7,15.7,0,0,0,239.6,126.6ZM96.2,128c1.4-30.8,10.5-52.8,18.3-66.2A97.7,97.7,0,0,1,128,43.2a97.7,97.7,0,0,1,13.5,18.6c13.3,22.9,17.5,47.5,18.3,66.2Zm-63.9,0a95.9,95.9,0,0,1,75.9-85.9c-11.7,16-26.4,44-28,85.9Zm143.5,0c-1.6-41.9-16.3-69.9-28-85.9A95.9,95.9,0,0,1,223.7,128Z"/></svg>