<svg id="Flat" xmlns="http://www.w3.org/2000/svg" viewBox="0 0 256 256">
  <path d="M239.61328,126.62988A112.00989,112.00989,0,0,0,128.00684,24h-.01368A112.0108,112.0108,0,0,0,16.38672,126.62988,16.022,16.022,0,0,0,32.33447,144H120v56a32,32,0,0,0,64,0,8,8,0,0,0-16,0,16,16,0,0,1-32,0V144h87.66553a16.02123,16.02123,0,0,0,15.94775-17.37012ZM96.18506,128c1.38183-30.76807,10.5249-52.81494,18.29883-66.23828a106.43215,106.43215,0,0,1,13.51562-18.60449,106.364,106.364,0,0,1,13.5166,18.60449C154.80176,84.70166,158.957,109.28271,159.81494,128Zm-63.853-.04785a95.97942,95.97942,0,0,1,75.85645-85.874C96.47266,58.05713,81.84521,86.12964,80.16553,128H32.33447ZM175.83447,128c-1.67968-41.87036-16.30713-69.94287-28.023-85.92188A95.96509,95.96509,0,0,1,223.66553,128Z"/>
</svg>
