<svg id="Flat" xmlns="http://www.w3.org/2000/svg" viewBox="0 0 256 256">
  <path d="M240,136v64a16.01833,16.01833,0,0,1-16,16H32a16.01833,16.01833,0,0,1-16-16V136a16.01833,16.01833,0,0,1,16-16H80a8,8,0,0,1,0,16H32v64H224V136H176a8,8,0,0,1,0-16h48A16.01833,16.01833,0,0,1,240,136ZM85.65674,77.65723,120,43.31348V128a8,8,0,0,0,16,0V43.31348l34.34326,34.34375a8.00018,8.00018,0,0,0,11.31348-11.31446l-48-48c-.02881-.02881-.06055-.05273-.08985-.08105-.15966-.15527-.32275-.30615-.49462-.44727-.09668-.07959-.19873-.14892-.29834-.22314-.10987-.082-.21729-.167-.33155-.24365-.11377-.07569-.23144-.14161-.34814-.21143-.10791-.06445-.21338-.13232-.32422-.19141-.11572-.062-.23486-.11425-.35254-.16992-.11914-.05664-.23633-.11572-.3584-.1665-.11133-.0459-.2251-.083-.33789-.12354-.13379-.04834-.26611-.09961-.40283-.14062-.10889-.03272-.21924-.05664-.32861-.08447-.14307-.03711-.28516-.07666-.43116-.10547-.12109-.02393-.24316-.0376-.36523-.05567-.13623-.0205-.27051-.04541-.40918-.05908-.20215-.01953-.40479-.02637-.60742-.03076C128.11768,16.00781,128.05957,16,128,16s-.11768.00781-.17676.00879c-.20263.00439-.40527.01123-.60742.03076-.13867.01367-.27295.03858-.40918.05908-.12207.01807-.24414.03174-.36523.05567-.146.02881-.28809.06836-.43116.10547-.10937.02783-.21972.05175-.32861.08447-.13672.041-.269.09228-.40283.14062-.11279.04053-.22656.07764-.33789.12354-.12207.05078-.23926.10986-.3584.1665-.11768.05567-.23682.10791-.35254.16992-.11084.05909-.21631.127-.32422.19141-.1167.06982-.23437.13574-.34814.21143-.11426.07666-.22168.16162-.33155.24365-.09961.07422-.20166.14355-.29834.22314-.17187.14112-.335.292-.49462.44727-.0293.02832-.061.05224-.08985.08105l-48,48A8.00018,8.00018,0,0,0,85.65674,77.65723ZM200,168a12,12,0,1,0-12,12A12.01343,12.01343,0,0,0,200,168Z"/>
</svg>
