<svg id="Flat" xmlns="http://www.w3.org/2000/svg" viewBox="0 0 256 256">
  <path d="M208,32H48A16.01833,16.01833,0,0,0,32,48V208a16.01833,16.01833,0,0,0,16,16H198.16309c.01513,0,.03027.00195.04541.00195.01147,0,.02343-.00195.03491-.00195H208a16.01833,16.01833,0,0,0,16-16V48A16.01833,16.01833,0,0,0,208,32ZM96,120a32,32,0,1,1,32,32A32.036,32.036,0,0,1,96,120ZM68.66724,208a64.4193,64.4193,0,0,1,19.133-25.80225,64.00989,64.00989,0,0,1,80.39942,0A64.4193,64.4193,0,0,1,187.33276,208ZM208,208h-3.67334A79.92242,79.92242,0,0,0,157.645,157.70947a48,48,0,1,0-59.29,0A79.92242,79.92242,0,0,0,51.67334,208H48V48H208l.01025,159.99951Z"/>
</svg>
