<svg id="Flat" xmlns="http://www.w3.org/2000/svg" viewBox="0 0 256 256">
  <path d="M232,128A104,104,0,1,0,57.81982,204.68115a7.96285,7.96285,0,0,0,1.32569,1.18946,103.78458,103.78458,0,0,0,137.7124-.00342,7.95674,7.95674,0,0,0,1.31689-1.18115A103.74634,103.74634,0,0,0,232,128ZM40,128a88,88,0,1,1,153.75806,58.41016,79.55968,79.55968,0,0,0-36.05591-28.74561,48.00033,48.00033,0,1,0-59.4043-.00049,79.56012,79.56012,0,0,0-36.05615,28.7461A87.63816,87.63816,0,0,1,40,128Zm56-8a32,32,0,1,1,32,32A32.036,32.036,0,0,1,96,120ZM74.08325,197.499a64.02237,64.02237,0,0,1,107.83325,0,87.814,87.814,0,0,1-107.83325,0Z"/>
</svg>
