<svg id="Flat" xmlns="http://www.w3.org/2000/svg" viewBox="0 0 256 256">
  <path d="M168,56a8.00008,8.00008,0,0,1,8-8h16V32a8,8,0,0,1,16,0V48h16a8,8,0,0,1,0,16H208V80a8,8,0,0,1-16,0V64H176A8.00008,8.00008,0,0,1,168,56Zm62.562,54.6748A105.024,105.024,0,0,1,232,128a103.74715,103.74715,0,0,1-33.8252,76.686,7.9354,7.9354,0,0,1-1.31665,1.18115,103.78417,103.78417,0,0,1-137.71264.00293,7.94423,7.94423,0,0,1-1.32617-1.18946A103.95136,103.95136,0,0,1,128,24a104.99318,104.99318,0,0,1,17.3252,1.438,7.99993,7.99993,0,0,1-2.64747,15.7793A88.08417,88.08417,0,0,0,40,128a87.63721,87.63721,0,0,0,22.2417,58.41016,79.56326,79.56326,0,0,1,36.05615-28.7461,47.99971,47.99971,0,1,1,59.4043.00049,79.56155,79.56155,0,0,1,36.05615,28.74561A87.63721,87.63721,0,0,0,216,128a88.98692,88.98692,0,0,0-1.21729-14.67773,7.99993,7.99993,0,0,1,15.7793-2.64747ZM128,152a32,32,0,1,0-32-32A32.03635,32.03635,0,0,0,128,152Zm0,64a87.55939,87.55939,0,0,0,53.9165-18.501,64.02266,64.02266,0,0,0-107.83325-.00048A87.55706,87.55706,0,0,0,128,216Z"/>
</svg>
