<svg id="Flat" xmlns="http://www.w3.org/2000/svg" viewBox="0 0 256 256">
  <path d="M27.19238,126.39453a8,8,0,0,0,11.20117-1.5918,52.003,52.003,0,0,1,83.10791-.13183,8.02164,8.02164,0,0,0,.61426.74292c.02344.02514.04834.04809.07178.07275.15381.16284.313.32129.48242.47266.0586.05249.12012.09961.18018.15015.11377.09545.22217.19482.34228.28515.02149.01611.04541.02637.0669.04224a7.943,7.943,0,0,0,.9209.58032c.09619.05249.19287.10205.29052.15039a8.04333,8.04333,0,0,0,.94629.39771c.10205.03491.20557.05981.3086.09008a7.97072,7.97072,0,0,0,.79785.19239c.104.01953.20654.04443.311.05957a8.06325,8.06325,0,0,0,1.00635.0791c.05029.001.1001.01172.15039.01172.07422,0,.14844-.0105.22266-.0127.1499-.0039.29931-.01318.44922-.02539.12451-.0105.249-.02051.373-.03662.17774-.02319.35449-.05615.53125-.09106.09766-.01978.1958-.03492.293-.05787q.36915-.08789.731-.21264c.02832-.00977.0581-.01587.08642-.02613a8.00451,8.00451,0,0,0,.78565-.3291c.0957-.0459.18652-.10083.28027-.15039.15918-.08447.31787-.16943.47217-.26562.10791-.0669.21143-.14087.31641-.21314.09082-.06274.18506-.11792.27392-.18481.04834-.03613.09033-.07739.13721-.1145.09375-.07349.18408-.15039.27441-.22876q.22486-.19336.43164-.39991c.06348-.06347.12647-.126.188-.19165q.27027-.28893.5083-.59838c.01514-.02.03272-.03663.04785-.05665a52.0088,52.0088,0,0,1,83.21143-.00195,7.99981,7.99981,0,1,0,12.79248-9.60937A67.81334,67.81334,0,0,0,202.9707,93.51074a40.00014,40.00014,0,1,0-53.9414-.00024,67.2945,67.2945,0,0,0-21.02979,14.304A67.29365,67.29365,0,0,0,106.9707,93.51074a40.00014,40.00014,0,1,0-53.9414-.00024,67.80765,67.80765,0,0,0-27.42871,21.68286A8.00021,8.00021,0,0,0,27.19238,126.39453ZM152,64a24,24,0,1,1,24,24A24.0275,24.0275,0,0,1,152,64ZM56,64A24,24,0,1,1,80,88,24.0275,24.0275,0,0,1,56,64ZM202.9707,197.51074a40.00014,40.00014,0,1,0-53.9414-.00024,67.2945,67.2945,0,0,0-21.02979,14.30395,67.29365,67.29365,0,0,0-21.02881-14.30371,40.00014,40.00014,0,1,0-53.9414-.00024,67.80765,67.80765,0,0,0-27.42871,21.68286,8,8,0,1,0,12.793,9.60937,52.003,52.003,0,0,1,83.10791-.13183,8.02164,8.02164,0,0,0,.61426.74292c.02344.02514.04834.04809.07178.073.15381.16235.3125.321.48193.47216.05957.05323.12207.10083.18262.15186.11279.095.2207.19385.34033.28369.02149.01611.04492.02637.06641.042a7.90187,7.90187,0,0,0,.92285.5813c.09522.052.19092.10108.2876.14868a7.94441,7.94441,0,0,0,.94971.39942c.0996.03418.20068.05835.30126.08813a7.98174,7.98174,0,0,0,.81006.19532c.10059.01879.19971.04272.30078.05761a8.06571,8.06571,0,0,0,1.01514.07984c.04834.00073.09668.01123.145.01123.07178,0,.14307-.01026.21484-.01221.15577-.00391.31153-.01343.4668-.02637.11963-.01025.23828-.01977.35742-.03515.18457-.02393.36817-.05786.55176-.09473.0918-.01831.18359-.03247.27442-.0542a7.91759,7.91759,0,0,0,.76757-.22314c.0166-.00586.03418-.00928.05078-.01538a7.94271,7.94271,0,0,0,.791-.33155c.09131-.0437.17871-.09643.26856-.1438.16259-.08618.3247-.17334.48291-.27173.10693-.0664.20947-.13989.31347-.21142.09131-.063.186-.11865.27539-.18579.04834-.03613.09033-.07739.13721-.1145.09375-.07349.18408-.15039.27441-.22876q.22486-.19336.43164-.39991c.06348-.06347.12647-.126.188-.19165q.27027-.28893.5083-.59838c.01514-.02.03272-.03663.04785-.05665a52.0088,52.0088,0,0,1,83.21143-.00195,7.99981,7.99981,0,1,0,12.79248-9.60937A67.81334,67.81334,0,0,0,202.9707,197.51074ZM56,168a24,24,0,1,1,24,24A24.0275,24.0275,0,0,1,56,168Zm96,0a24,24,0,1,1,24,24A24.0275,24.0275,0,0,1,152,168Z"/>
</svg>
