<svg id="Flat" xmlns="http://www.w3.org/2000/svg" viewBox="0 0 256 256">
  <path d="M168,56a7.99977,7.99977,0,0,1,8-8h48a8,8,0,0,1,0,16H176A7.99977,7.99977,0,0,1,168,56Zm63.93652,155.98633a120.48743,120.48743,0,0,0-67.12011-54.1427A72.02326,72.02326,0,0,0,200,96a8,8,0,0,0-16,0,55.93006,55.93006,0,1,1-43.06152-54.49951,8,8,0,0,0,3.68115-15.5708,71.99078,71.99078,0,0,0-53.436,131.914,120.48871,120.48871,0,0,0-67.11865,54.14069,7.99981,7.99981,0,1,0,13.84863,8.01269,104.0375,104.0375,0,0,1,180.17432.00195,7.99981,7.99981,0,1,0,13.84863-8.01269Z"/>
</svg>
