<svg id="Flat" xmlns="http://www.w3.org/2000/svg" viewBox="0 0 256 256">
  <path d="M121.19873,157.94751a60,60,0,1,0-66.39648,0A96.21361,96.21361,0,0,0,9.45459,192.791a8.0001,8.0001,0,1,0,13.083,9.21093,80.01734,80.01734,0,0,1,130.92187-.00488,8,8,0,1,0,13.082-9.21191A96.21491,96.21491,0,0,0,121.19873,157.94751ZM44.00049,108a44,44,0,1,1,44,44A44.04978,44.04978,0,0,1,44.00049,108Zm202.12793,95.93213a7.99869,7.99869,0,0,1-11.147-1.93506A80.16839,80.16839,0,0,0,169.522,168a8,8,0,0,1,0-16A44,44,0,1,0,157.5791,65.63818a8.00011,8.00011,0,0,1-4.333-15.40234,59.99064,59.99064,0,0,1,49.47412,107.71167,96.21347,96.21347,0,0,1,45.34327,34.83765A7.99965,7.99965,0,0,1,246.12842,203.93213Z"/>
</svg>
