<svg id="Flat" xmlns="http://www.w3.org/2000/svg" viewBox="0 0 256 256">
  <path d="M144.14258,157.55817a68,68,0,1,0-72.28516,0A119.8892,119.8892,0,0,0,16.083,194.85156a8.00012,8.00012,0,0,0,12.25,10.293,104.007,104.007,0,0,1,159.33447,0,8.00012,8.00012,0,0,0,12.25-10.293A119.89061,119.89061,0,0,0,144.14258,157.55817ZM56,100a52,52,0,1,1,52,52A52.059,52.059,0,0,1,56,100Zm192.24854,43.07178-4.65674-2.68866a23.73636,23.73636,0,0,0,0-8.76624l4.65674-2.68866a8,8,0,1,0-8-13.85644l-4.66822,2.69519A23.99889,23.99889,0,0,0,228,113.3761V108a8,8,0,0,0-16,0v5.3761a23.99889,23.99889,0,0,0-7.58032,4.39087l-4.66822-2.69519a8,8,0,1,0-8,13.85644l4.65674,2.68866a23.73636,23.73636,0,0,0,0,8.76624l-4.65674,2.68866a8,8,0,1,0,8,13.85644l4.66822-2.69519A23.99889,23.99889,0,0,0,212,158.6239V164a8,8,0,0,0,16,0v-5.3761a23.99889,23.99889,0,0,0,7.58032-4.39087l4.66822,2.69519a8,8,0,0,0,8-13.85644ZM212,136a8,8,0,1,1,8,8A8.00917,8.00917,0,0,1,212,136Z"/>
</svg>
