<svg xmlns="http://www.w3.org/2000/svg" viewBox="0 0 256 256"><path d="M121.2,157.9a60,60,0,1,0-66.4,0A95.5,95.5,0,0,0,9.5,192.8a8,8,0,1,0,13,9.2,80.1,80.1,0,0,1,131,0,8,8,0,1,0,13-9.2A95.5,95.5,0,0,0,121.2,157.9ZM44,108a44,44,0,1,1,44,44A44,44,0,0,1,44,108Zm202.1,95.9A7.9,7.9,0,0,1,235,202a80.2,80.2,0,0,0-65.5-34,8,8,0,0,1,0-16,44,44,0,0,0,0-88,47.4,47.4,0,0,0-11.9,1.6,8,8,0,0,1-9.9-5.5,8.1,8.1,0,0,1,5.5-9.9A64,64,0,0,1,169.5,48a59.9,59.9,0,0,1,33.2,109.9,96.3,96.3,0,0,1,45.4,34.9A8,8,0,0,1,246.1,203.9Z"/></svg>