<svg xmlns="http://www.w3.org/2000/svg" viewBox="0 0 256 256"><path d="M144.1,157.6a68,68,0,1,0-72.2,0,118.4,118.4,0,0,0-55.8,37.3,8,8,0,0,0,12.2,10.2,104.2,104.2,0,0,1,159.4,0,7.8,7.8,0,0,0,11.2,1,7.9,7.9,0,0,0,1-11.2A118.4,118.4,0,0,0,144.1,157.6ZM56,100a52,52,0,1,1,52,52A52,52,0,0,1,56,100Zm192.2,43.1-4.6-2.7a24.4,24.4,0,0,0,0-8.8l4.6-2.7a7.9,7.9,0,0,0,3-10.9,8.1,8.1,0,0,0-11-2.9l-4.6,2.7a24,24,0,0,0-7.6-4.4V108a8,8,0,0,0-16,0v5.4a24,24,0,0,0-7.6,4.4l-4.6-2.7a8.1,8.1,0,0,0-11,2.9,7.9,7.9,0,0,0,3,10.9l4.6,2.7a24.4,24.4,0,0,0,0,8.8l-4.6,2.7a8,8,0,0,0,4,14.9,7.6,7.6,0,0,0,4-1.1l4.6-2.7a24,24,0,0,0,7.6,4.4V164a8,8,0,0,0,16,0v-5.4a24,24,0,0,0,7.6-4.4l4.6,2.7a7.6,7.6,0,0,0,4,1.1,8,8,0,0,0,4-14.9ZM212,136a8,8,0,1,1,8,8A8,8,0,0,1,212,136Z"/></svg>