<svg id="Flat" xmlns="http://www.w3.org/2000/svg" viewBox="0 0 256 256">
  <path d="M221.34863,104.10889a7.99984,7.99984,0,0,0-6.56592,9.21338A88.98908,88.98908,0,0,1,216,128a87.63912,87.63912,0,0,1-22.24194,58.41064,79.55886,79.55886,0,0,0-36.05591-28.74609,48.00017,48.00017,0,1,0-59.4043-.00024A79.55952,79.55952,0,0,0,62.2417,186.41016,87.9498,87.9498,0,0,1,128,40a88.94211,88.94211,0,0,1,14.67773,1.21729A7.99993,7.99993,0,1,0,145.3252,25.438,104.0834,104.0834,0,0,0,24,128a103.746,103.746,0,0,0,33.81982,76.68091,7.92911,7.92911,0,0,0,1.32544,1.18921,103.78434,103.78434,0,0,0,137.71167-.002,7.94933,7.94933,0,0,0,1.31983-1.18383A103.747,103.747,0,0,0,232,128a105.02188,105.02188,0,0,0-1.438-17.3252A7.99991,7.99991,0,0,0,221.34863,104.10889ZM96,120a32,32,0,1,1,32,32A32.03619,32.03619,0,0,1,96,120ZM74.08325,197.49854a64.0228,64.0228,0,0,1,107.83325.00024,87.81261,87.81261,0,0,1-107.83325-.00024ZM228.24854,63.07178l-4.65674-2.68872a23.73572,23.73572,0,0,0,0-8.76612l4.65674-2.68872a8,8,0,1,0-8-13.85644l-4.66822,2.69531A24.0036,24.0036,0,0,0,208,33.376V28a8,8,0,0,0-16,0v5.376a24.0036,24.0036,0,0,0-7.58032,4.39111l-4.66822-2.69531a8,8,0,0,0-8,13.85644l4.65674,2.68872a23.73572,23.73572,0,0,0,0,8.76612l-4.65674,2.68872a8,8,0,1,0,8,13.85644l4.66822-2.69531A24.0036,24.0036,0,0,0,192,78.624V84a8,8,0,0,0,16,0V78.624a24.0036,24.0036,0,0,0,7.58032-4.39111l4.66822,2.69531a8,8,0,0,0,8-13.85644ZM192,56a8,8,0,1,1,8,8A8.00917,8.00917,0,0,1,192,56Z"/>
</svg>
