<svg id="Flat" xmlns="http://www.w3.org/2000/svg" viewBox="0 0 256 256">
  <path d="M168.82324,74a7.99606,7.99606,0,0,0,10.92822,2.92822l4.66822-2.69519A23.99889,23.99889,0,0,0,192,78.6239V84a8,8,0,0,0,16,0V78.6239a23.99889,23.99889,0,0,0,7.58032-4.39087l4.66822,2.69519a8,8,0,0,0,8-13.85644l-4.65674-2.68866a23.73636,23.73636,0,0,0,0-8.76624l4.65674-2.68866a8,8,0,1,0-8-13.85644L215.58032,37.767A23.99889,23.99889,0,0,0,208,33.3761V28a8,8,0,0,0-16,0v5.3761a23.99889,23.99889,0,0,0-7.58032,4.39087l-4.66822-2.69519a8,8,0,0,0-8,13.85644l4.65674,2.68866a23.73636,23.73636,0,0,0,0,8.76624l-4.65674,2.68866A8.00032,8.00032,0,0,0,168.82324,74ZM208,56a8,8,0,1,1-8-8A8.00917,8.00917,0,0,1,208,56Zm21.01855,166.917a7.99729,7.99729,0,0,1-10.93066-2.91894,104.038,104.038,0,0,0-180.17432-.001,8.00005,8.00005,0,1,1-13.84863-8.01367,120.4882,120.4882,0,0,1,67.11841-54.13977A71.97991,71.97991,0,0,1,128,24a72.76326,72.76326,0,0,1,9.958.68408,8.00011,8.00011,0,1,1-2.19727,15.84863A56.70122,56.70122,0,0,0,128,40a56,56,0,1,0,51.30225,78.49268,7.99994,7.99994,0,0,1,14.64941,6.43359,71.98787,71.98787,0,0,1-29.10889,32.9259,120.48806,120.48806,0,0,1,67.09375,54.13416A7.99962,7.99962,0,0,1,229.01855,222.917Z"/>
</svg>
