<svg xmlns="http://www.w3.org/2000/svg" viewBox="0 0 256 256"><path d="M224,48V76a8,8,0,0,1-16,0V48H180a8,8,0,0,1,0-16h28A16,16,0,0,1,224,48Zm-8,124a8,8,0,0,0-8,8v28H180a8,8,0,0,0,0,16h28a16,16,0,0,0,16-16V180A8,8,0,0,0,216,172ZM76,208H48V180a8,8,0,0,0-16,0v28a16,16,0,0,0,16,16H76a8,8,0,0,0,0-16ZM40,84a8,8,0,0,0,8-8V48H76a8,8,0,0,0,0-16H48A16,16,0,0,0,32,48V76A8,8,0,0,0,40,84Zm134,95.7a52,52,0,0,0-92,0,8,8,0,1,1-14.2-7.4,69.1,69.1,0,0,1,33.3-30.8A39.5,39.5,0,0,1,88,112a40,40,0,0,1,80,0,39.5,39.5,0,0,1-13.1,29.5,69.1,69.1,0,0,1,33.3,30.8,8.1,8.1,0,0,1-3.4,10.8,8.4,8.4,0,0,1-3.7.9A7.8,7.8,0,0,1,174,179.7ZM128,136a24,24,0,1,0-24-24A24.1,24.1,0,0,0,128,136Z"/></svg>