<svg id="Flat" xmlns="http://www.w3.org/2000/svg" viewBox="0 0 256 256">
  <path d="M168,56a8.00008,8.00008,0,0,1,8-8h48a8,8,0,0,1,0,16H176A8.00008,8.00008,0,0,1,168,56Zm58.08008,37.334A104.01361,104.01361,0,0,1,198.1748,204.686a7.9354,7.9354,0,0,1-1.31665,1.18115,103.78417,103.78417,0,0,1-137.71264.00293,7.94423,7.94423,0,0,1-1.32617-1.18946A103.95136,103.95136,0,0,1,128,24a105.09267,105.09267,0,0,1,16.3916,1.28564,7.99994,7.99994,0,0,1-2.5039,15.80274A89.04252,89.04252,0,0,0,128,40,87.9498,87.9498,0,0,0,62.2417,186.41016a79.56326,79.56326,0,0,1,36.05615-28.7461,47.99971,47.99971,0,1,1,59.4043.00049,79.56155,79.56155,0,0,1,36.05615,28.74561A88.01622,88.01622,0,0,0,210.99463,98.666a8,8,0,1,1,15.08545-5.332ZM128,152a32,32,0,1,0-32-32A32.03635,32.03635,0,0,0,128,152Zm0,64a87.55939,87.55939,0,0,0,53.9165-18.501,64.02266,64.02266,0,0,0-107.83325-.00048A87.55706,87.55706,0,0,0,128,216Z"/>
</svg>
