<svg id="Flat" xmlns="http://www.w3.org/2000/svg" viewBox="0 0 256 256">
  <path d="M159.99951,32h-64a24.0275,24.0275,0,0,0-24,24V200a24.0275,24.0275,0,0,0,24,24h64a24.0275,24.0275,0,0,0,24-24V56A24.0275,24.0275,0,0,0,159.99951,32Zm8,168a8.00917,8.00917,0,0,1-8,8h-64a8.00917,8.00917,0,0,1-8-8V56a8.00917,8.00917,0,0,1,8-8h64a8.00917,8.00917,0,0,1,8,8ZM216.00244,88v80a8,8,0,0,1-16,0V88a8,8,0,1,1,16,0Zm32,16v48a8,8,0,0,1-16,0V104a8,8,0,1,1,16,0ZM55.99951,88v80a8,8,0,0,1-16,0V88a8,8,0,0,1,16,0Zm-32,16v48a8,8,0,0,1-16,0V104a8,8,0,0,1,16,0Z"/>
</svg>
