<svg id="Flat" xmlns="http://www.w3.org/2000/svg" viewBox="0 0 256 256">
  <path d="M244.01562,73.08105a8.001,8.001,0,0,0-7.98437-.02734L192,98.21436V92a40.04584,40.04584,0,0,0-40-40H110.88281a8,8,0,0,0,0,16H152a24.0275,24.0275,0,0,1,24,24v52a8.03271,8.03271,0,0,0,.06482.97168c.01044.08545.02557.16943.0387.25391q.0573.37206.14758.73095c.01941.07666.03741.15332.059.2295a7.94418,7.94418,0,0,0,.73523,1.7583c.03784.0664.07941.13037.11908.1958q.18978.31274.406.60547c.05256.07128.1037.14257.15863.2124a8.167,8.167,0,0,0,.61561.70019c.01184.01172.02533.022.03723.03369a8.01245,8.01245,0,0,0,.67492.58985c.06977.05517.14148.10693.21326.15967q.31175.22925.64539.42822c.0401.02392.07519.05322.11578.07666l56,32A8.0003,8.0003,0,0,0,248,176V80A7.99807,7.99807,0,0,0,244.01562,73.08105ZM232,162.21484l-40-22.85742V116.64258l40-22.85742ZM40.8291,18.61816A8.0006,8.0006,0,0,0,28.98926,29.38184L49.55121,52H24A16.01833,16.01833,0,0,0,8,68v96a40.04584,40.04584,0,0,0,40,40H176a15.89758,15.89758,0,0,0,9.12152-2.87256l32.95856,36.2544a8.0006,8.0006,0,1,0,11.83984-10.76368ZM48,188a24.0275,24.0275,0,0,1-24-24V68H64.09668l109.0908,120Z"/>
</svg>
