<svg xmlns="http://www.w3.org/2000/svg" viewBox="0 0 256 256"><path d="M224,167.9a105.7,105.7,0,0,0,8-39.3v-1A104,104,0,1,0,37.9,180c2,3.4,4.2,6.7,6.5,9.9l.5.7a103.9,103.9,0,0,0,178.2-20.7A7.2,7.2,0,0,0,224,167.9ZM91.1,48.1a89.1,89.1,0,0,1,24.3-7.2,88.1,88.1,0,0,1,50,79.1H132.6ZM132.6,136h83a89.3,89.3,0,0,1-5.9,24.6,88.2,88.2,0,0,1-93.5,3.8Zm71.6-52a87.2,87.2,0,0,1,11.4,36H181.4a105,105,0,0,0-35.7-78.2A88,88,0,0,1,204.2,84ZM77.3,56.1,94.4,85.8a104.4,104.4,0,0,0-49.9,70.1A88.2,88.2,0,0,1,77.3,56.1ZM58.9,182.5a88,88,0,0,1,43.5-82.9L118.8,128,77.3,199.9A84.2,84.2,0,0,1,58.9,182.5ZM172,204.2a87.9,87.9,0,0,1-80.9,3.6l17.1-29.6a104.4,104.4,0,0,0,85.6,8.2A88.4,88.4,0,0,1,172,204.2Z"/></svg>