<svg id="Flat" xmlns="http://www.w3.org/2000/svg" viewBox="0 0 256 256">
  <path d="M223.99292,167.8916a104.79306,104.79306,0,0,0,7.97681-39.29053c.01465-.19921.03027-.39795.03027-.60107,0-.1499-.01416-.2959-.02246-.44385A103.99094,103.99094,0,1,0,37.93311,180a105.74848,105.74848,0,0,0,6.46435,9.87012,7.97921,7.97921,0,0,0,.54566.74316,103.214,103.214,0,0,0,56.1394,37.84277,104.55745,104.55745,0,0,0,27.08643,3.58887,104.02506,104.02506,0,0,0,94.95751-62.12109A7.99436,7.99436,0,0,0,223.99292,167.8916ZM91.11353,48.11084a87.27521,87.27521,0,0,1,24.2456-7.18945A88.00759,88.00759,0,0,1,165.36621,120H132.6189ZM132.6189,136h40.43554l.012.00049L173.07666,136h42.50366a88.7146,88.7146,0,0,1-5.92529,24.64648,88.01249,88.01249,0,0,1-93.40991,3.71387Zm71.59155-52a87.44884,87.44884,0,0,1,11.39819,36H181.36572a104.19573,104.19573,0,0,0-35.687-78.15527A87.80908,87.80908,0,0,1,204.21045,84ZM77.26172,56.11914l17.1272,29.665a104.19392,104.19392,0,0,0-49.8628,70.09619A88.1828,88.1828,0,0,1,77.26172,56.11914ZM58.9082,182.4873a88.00737,88.00737,0,0,1,43.48047-82.84716L118.76245,128,77.26733,199.87158A87.253,87.253,0,0,1,58.9082,182.4873ZM172,204.21a87.93092,87.93092,0,0,1-80.86206,3.63721l17.10767-29.63135a104.1946,104.1946,0,0,0,85.5874,8.15137A87.59359,87.59359,0,0,1,172,204.21Z"/>
</svg>
