<svg id="Flat" xmlns="http://www.w3.org/2000/svg" viewBox="0 0 256 256">
  <path d="M120,136.00012v-56a8,8,0,1,1,16,0v56a8,8,0,1,1-16,0ZM232,91.54944V164.4508a15.8955,15.8955,0,0,1-4.68555,11.313l-51.5498,51.54981a15.89474,15.89474,0,0,1-11.31348,4.68652H91.54883a15.89318,15.89318,0,0,1-11.31348-4.687l-51.5498-51.54883A15.89747,15.89747,0,0,1,24,164.4508V91.54944A15.89747,15.89747,0,0,1,28.68555,80.236l51.5498-51.5498a15.89627,15.89627,0,0,1,11.31348-4.686h72.90234a15.89474,15.89474,0,0,1,11.31348,4.68652l51.5498,51.54883A15.89944,15.89944,0,0,1,232,91.54944Zm-16,0L164.4502,40.00012H91.54883L40,91.54944V164.4508l51.5498,51.54932h72.90137L216,164.4508Zm-88,68.45068a12,12,0,1,0,12,12A12.01343,12.01343,0,0,0,128,160.00012Z"/>
</svg>
