<svg id="Flat" xmlns="http://www.w3.org/2000/svg" viewBox="0 0 256 256">
  <path d="M33.74609,76.96289a7.98654,7.98654,0,0,1,1.25635-11.21A81.79682,81.79682,0,0,1,64.05957,52.23926c16.16455-4.042,41.14893-5.04688,68.37793,13.10449,42.3335,28.2207,77.12842,1.53809,78.58887.38965a8.00032,8.00032,0,0,1,9.97119,12.51367,81.79682,81.79682,0,0,1-29.05713,13.51367,81.324,81.324,0,0,1-19.71484,2.4375c-14.04053,0-30.87207-3.68164-48.66309-15.542-42.3335-28.22559-77.12891-1.54-78.58936-.38965A8.01144,8.01144,0,0,1,33.74609,76.96289ZM211.02637,121.7334c-1.46045,1.14844-36.25537,27.831-78.58887-.38965-27.229-18.15137-52.21338-17.14746-68.37793-13.10449a81.79682,81.79682,0,0,0-29.05713,13.51367,8.00017,8.00017,0,0,0,9.9707,12.51367c1.46045-1.15039,36.25586-27.83594,78.58936.38965,17.791,11.86035,34.62256,15.542,48.66309,15.542a83.50512,83.50512,0,0,0,48.772-15.95117,8.00032,8.00032,0,0,0-9.97119-12.51367Zm0,56c-1.46045,1.14844-36.25537,27.83105-78.58887-.38965-27.229-18.15234-52.21338-17.14551-68.37793-13.10449a81.79682,81.79682,0,0,0-29.05713,13.51367,8.00017,8.00017,0,0,0,9.9707,12.51367c1.46045-1.15039,36.25586-27.83594,78.58936.38965,17.791,11.86035,34.62256,15.542,48.66309,15.542a83.50512,83.50512,0,0,0,48.772-15.95117,8.00032,8.00032,0,0,0-9.97119-12.51367Z"/>
</svg>
