<svg id="Flat" xmlns="http://www.w3.org/2000/svg" viewBox="0 0 256 256">
  <path d="M128.00049,24a104.0281,104.0281,0,0,0-91.189,154.041l-8.54736,29.915A15.9999,15.9999,0,0,0,48.044,227.73635l29.916-8.54688A104.00728,104.00728,0,1,0,128.00049,24Zm0,192a87.86347,87.86347,0,0,1-44.90772-12.30566,8.00324,8.00324,0,0,0-6.28759-.81641l-33.15625,9.47363,9.47216-33.15625a7.99868,7.99868,0,0,0-.81591-6.28613A88.011,88.011,0,1,1,128.00049,216Zm52.4956-72.93066L160.03662,131.378a16.01328,16.01328,0,0,0-16.16992.17285l-11.85156,7.11133a40.03607,40.03607,0,0,1-14.67627-14.67676l7.11084-11.85254a16.01491,16.01491,0,0,0,.17187-16.16894L112.93018,75.503A14.92449,14.92449,0,0,0,100,68a36.01448,36.01448,0,0,0-36,35.876A87.99949,87.99949,0,0,0,151.999,192c.04151,0,.1045.02344.126,0A36.01427,36.01427,0,0,0,188,156,14.9238,14.9238,0,0,0,180.49609,143.06936ZM152.10254,176A71.99965,71.99965,0,0,1,80,103.89748,19.99061,19.99061,0,0,1,99.36328,84.00979l11.36621,19.8916-9.38867,15.64844a7.99972,7.99972,0,0,0-.43652,7.39746,56.03361,56.03361,0,0,0,28.14892,28.14843,7.99592,7.99592,0,0,0,7.397-.43652l15.64843-9.38867,19.8916,11.36621A19.99027,19.99027,0,0,1,152.10254,176Z"/>
</svg>
