<svg xmlns="http://www.w3.org/2000/svg" viewBox="0 0 256 256"><path d="M128,24A104,104,0,0,0,36.8,178l-8.5,30A15.9,15.9,0,0,0,48,227.7l30-8.5A104,104,0,1,0,128,24Zm0,192a88.4,88.4,0,0,1-44.9-12.3,8.7,8.7,0,0,0-4.1-1.1,8.3,8.3,0,0,0-2.2.3l-33.2,9.5,9.5-33.2a8.2,8.2,0,0,0-.8-6.3A88,88,0,1,1,128,216Zm52.5-72.9L160,131.4a15.8,15.8,0,0,0-16.1.2L132,138.7A41.4,41.4,0,0,1,117.3,124l7.1-11.9a15.8,15.8,0,0,0,.2-16.1L112.9,75.5A14.9,14.9,0,0,0,100,68a36,36,0,0,0-36,35.9A88.1,88.1,0,0,0,152,192h.1A36,36,0,0,0,188,156,14.9,14.9,0,0,0,180.5,143.1ZM152.1,176A72,72,0,0,1,80,103.9,19.9,19.9,0,0,1,99.4,84l11.3,19.9-9.4,15.6a8.1,8.1,0,0,0-.4,7.4,55.4,55.4,0,0,0,28.2,28.2,8.1,8.1,0,0,0,7.4-.4l15.6-9.4L172,156.6A19.9,19.9,0,0,1,152.1,176Z"/></svg>