<svg id="Flat" xmlns="http://www.w3.org/2000/svg" viewBox="0 0 256 256">
  <path d="M139.99219,200.00293a12,12,0,1,1-12-12A12,12,0,0,1,139.99219,200.00293Zm-12-56A58.077,58.077,0,0,0,87.35645,160.3125a8.00022,8.00022,0,0,0,11.127,11.49805,42.777,42.777,0,0,1,59.01758,0,8.00022,8.00022,0,0,0,11.12695-11.49805A58.07705,58.07705,0,0,0,127.99219,144.00293ZM211.30811,80l18.34277-18.34277A8.00018,8.00018,0,1,0,218.3374,50.34277L199.99414,68.686,181.65088,50.34277A8.00018,8.00018,0,0,0,170.3374,61.65723L188.68018,80,170.3374,98.34277a8.00018,8.00018,0,0,0,11.31348,11.31446L199.99414,91.314l18.34326,18.34327a8.00018,8.00018,0,1,0,11.31348-11.31446ZM143.14648,64.81738a7.99958,7.99958,0,1,0,1.72168-15.90625,157.37841,157.37841,0,0,0-16.876-.9082A153.36079,153.36079,0,0,0,19.4375,92.49219a8.0003,8.0003,0,0,0,11.25293,11.375,137.45364,137.45364,0,0,1,97.30176-39.86426A141.5452,141.5452,0,0,1,143.14648,64.81738Zm-.40771,48.37012a8.00007,8.00007,0,1,0,2.56641-15.793,108.2,108.2,0,0,0-17.313-1.3916,105.73772,105.73772,0,0,0-74.62354,30.415,7.99976,7.99976,0,1,0,11.21973,11.40625,89.8299,89.8299,0,0,1,63.40381-25.82129A92.18428,92.18428,0,0,1,142.73877,113.1875Z"/>
</svg>
