<svg id="Flat" xmlns="http://www.w3.org/2000/svg" viewBox="0 0 256 256">
  <path d="M139.99219,200.00287a12,12,0,1,1-12-12A12,12,0,0,1,139.99219,200.00287Zm-12-55.99994A58.08175,58.08175,0,0,0,87.35645,160.3125a8.00022,8.00022,0,0,0,11.127,11.49805,42.777,42.777,0,0,1,59.01758,0,8.00022,8.00022,0,1,0,11.12695-11.49805A58.08176,58.08176,0,0,0,127.99219,144.00293Zm0-48A105.73971,105.73971,0,0,0,53.36865,126.417a8.00011,8.00011,0,1,0,11.21973,11.40723,90.75422,90.75422,0,0,1,126.80762,0A8.00011,8.00011,0,0,0,202.61572,126.417,105.73969,105.73969,0,0,0,127.99219,96.00293Zm108.55468-3.51025a154.68122,154.68122,0,0,0-217.10937,0,8.00012,8.00012,0,0,0,11.25293,11.37451,138.68051,138.68051,0,0,1,194.60352,0,8.00012,8.00012,0,0,0,11.25292-11.37451Z"/>
</svg>
