<svg xmlns="http://www.w3.org/2000/svg" viewBox="0 0 256 256"><path d="M213.9,210.6A8,8,0,0,1,208,224a8,8,0,0,1-5.9-2.6L155,169.6a42.8,42.8,0,0,0-56.5,2.2,8.2,8.2,0,0,1-5.6,2.3,8,8,0,0,1-5.5-13.8A58,58,0,0,1,128,144h3.9l-26.6-29.2a89.3,89.3,0,0,0-40.7,22.9,8,8,0,0,1-11.3-.1,7.9,7.9,0,0,1,.1-11.3,104.7,104.7,0,0,1,39.9-24.6L70.4,76.5a135.5,135.5,0,0,0-39.7,27.4,8.2,8.2,0,0,1-5.6,2.3,7.8,7.8,0,0,1-5.7-2.4,8,8,0,0,1,0-11.3A155.9,155.9,0,0,1,59.1,64.1l-17-18.7a8,8,0,0,1,.5-11.3,7.9,7.9,0,0,1,11.3.5ZM236.6,92.5A153.4,153.4,0,0,0,128,48a160.5,160.5,0,0,0-22,1.5,8,8,0,1,0,2.3,15.9A143.9,143.9,0,0,1,128,64a137.5,137.5,0,0,1,97.3,39.9,8.2,8.2,0,0,0,5.6,2.3,8.1,8.1,0,0,0,5.7-13.7Zm-45.2,45.3a7.8,7.8,0,0,0,5.6,2.3,8,8,0,0,0,5.6-13.7,106,106,0,0,0-48.5-27.2,8,8,0,1,0-3.9,15.5A90.4,90.4,0,0,1,191.4,137.8ZM128,188a12,12,0,1,0,12,12A12,12,0,0,0,128,188Z"/></svg>