<svg xmlns="http://www.w3.org/2000/svg" viewBox="0 0 256 256"><path d="M168.6,160.3a7.9,7.9,0,0,1,.2,11.3,8.1,8.1,0,0,1-5.7,2.5,8.2,8.2,0,0,1-5.6-2.3,42.8,42.8,0,0,0-59,0,8,8,0,1,1-11.1-11.5,58.7,58.7,0,0,1,81.2,0ZM211.3,80l18.4-18.3a8.1,8.1,0,0,0-11.4-11.4L200,68.7,181.7,50.3a8.1,8.1,0,0,0-11.4,11.4L188.7,80,170.3,98.3a8.1,8.1,0,0,0,0,11.4,8.2,8.2,0,0,0,11.4,0L200,91.3l18.3,18.4a8.2,8.2,0,0,0,11.4,0,8.1,8.1,0,0,0,0-11.4ZM143.1,64.8a8,8,0,1,0,1.8-15.9A159.5,159.5,0,0,0,128,48,153.4,153.4,0,0,0,19.4,92.5a8,8,0,0,0,0,11.3,7.8,7.8,0,0,0,5.7,2.4,8.2,8.2,0,0,0,5.6-2.3A137.5,137.5,0,0,1,128,64,149.6,149.6,0,0,1,143.1,64.8Zm-.4,48.4a8,8,0,1,0,2.6-15.8A111.1,111.1,0,0,0,128,96a105.6,105.6,0,0,0-74.6,30.4,7.9,7.9,0,0,0-.1,11.3,8,8,0,0,0,11.3.1,90.8,90.8,0,0,1,78.1-24.6ZM128,188a12,12,0,1,0,12,12A12,12,0,0,0,128,188Z"/></svg>