<svg xmlns="http://www.w3.org/2000/svg" viewBox="0 0 256 256"><path d="M168.6,160.3a7.9,7.9,0,0,1,.2,11.3,8.1,8.1,0,0,1-5.7,2.5,8.2,8.2,0,0,1-5.6-2.3,42.8,42.8,0,0,0-59,0,8,8,0,1,1-11.1-11.5,58.7,58.7,0,0,1,81.2,0ZM128,96a105.6,105.6,0,0,0-74.6,30.4,8,8,0,1,0,11.2,11.4,90.8,90.8,0,0,1,126.8,0,7.8,7.8,0,0,0,5.6,2.3,8,8,0,0,0,5.6-13.7A105.6,105.6,0,0,0,128,96Zm108.6-3.5a154.8,154.8,0,0,0-217.2,0,8,8,0,0,0,11.3,11.4,138.6,138.6,0,0,1,194.6,0,8.2,8.2,0,0,0,5.6,2.3,8.1,8.1,0,0,0,5.7-13.7ZM128,188a12,12,0,1,0,12,12A12,12,0,0,0,128,188Z"/></svg>