<svg id="Flat" xmlns="http://www.w3.org/2000/svg" viewBox="0 0 256 256">
  <path d="M168.62793,160.3125A8.00022,8.00022,0,0,1,157.501,171.81055a42.777,42.777,0,0,0-59.01758,0,8.00022,8.00022,0,0,1-11.127-11.49805,58.77731,58.77731,0,0,1,81.27148,0ZM127.99219,96.00293A105.73971,105.73971,0,0,0,53.36865,126.417a8.00011,8.00011,0,1,0,11.21973,11.40723,90.75422,90.75422,0,0,1,126.80762,0A8.00011,8.00011,0,0,0,202.61572,126.417,105.73969,105.73969,0,0,0,127.99219,96.00293Zm108.55468-3.51025a154.68122,154.68122,0,0,0-217.10937,0,8.00012,8.00012,0,0,0,11.25293,11.37451,138.68051,138.68051,0,0,1,194.60352,0,8.00012,8.00012,0,0,0,11.25292-11.37451ZM128,188a12,12,0,1,0,12,12A12.01343,12.01343,0,0,0,128,188Z"/>
</svg>
