<svg id="Flat" xmlns="http://www.w3.org/2000/svg" viewBox="0 0 256 256">
  <path d="M139.99219,200.00293a12,12,0,1,1-12-12A12,12,0,0,1,139.99219,200.00293ZM53.91943,34.61816A8.00024,8.00024,0,1,0,42.08057,45.38184L59.1084,64.1123A153.01885,153.01885,0,0,0,19.4375,92.49219a8.0003,8.0003,0,0,0,11.25293,11.375,137.07021,137.07021,0,0,1,39.6665-27.38135l22.96924,25.26611a105.55492,105.55492,0,0,0-39.95752,24.666,7.99976,7.99976,0,1,0,11.21973,11.40625,89.641,89.641,0,0,1,40.666-22.95117l26.60962,29.2705c-1.28589-.08422-2.57592-.14062-3.87182-.14062A58.077,58.077,0,0,0,87.35645,160.3125a8.00022,8.00022,0,0,0,11.127,11.49805,42.8042,42.8042,0,0,1,56.50537-2.2295l47.0918,51.80079a8.00024,8.00024,0,1,0,11.83886-10.76368Zm182.62744,57.874A153.36077,153.36077,0,0,0,127.99219,48.00293a157.06309,157.06309,0,0,0-21.98633,1.54687,8.00026,8.00026,0,0,0,2.24805,15.8418,140.88233,140.88233,0,0,1,19.73828-1.38867A137.45365,137.45365,0,0,1,225.294,103.86719a8.00029,8.00029,0,0,0,11.25292-11.375Zm-45.15136,45.332a8.0001,8.0001,0,0,0,11.2207-11.40625,105.94227,105.94227,0,0,0-48.55566-27.21973,7.99977,7.99977,0,1,0-3.88184,15.52149A89.92127,89.92127,0,0,1,191.39551,137.82422Z"/>
</svg>
