<svg id="Flat" xmlns="http://www.w3.org/2000/svg" viewBox="0 0 256 256">
  <path d="M139.99219,200.00287a12,12,0,1,1-12-12A12,12,0,0,1,139.99219,200.00287Zm-12-55.99994a58.07665,58.07665,0,0,0-40.63574,16.31055,7.99987,7.99987,0,1,0,11.127,11.49707,42.777,42.777,0,0,1,59.01758,0,7.99987,7.99987,0,0,0,11.12695-11.49707A58.07669,58.07669,0,0,0,127.99219,144.00293ZM202.61572,126.417a106.75469,106.75469,0,0,0-149.24707,0,8.00011,8.00011,0,1,0,11.21973,11.40723,90.75422,90.75422,0,0,1,126.80762,0A8.00011,8.00011,0,0,0,202.61572,126.417Z"/>
</svg>
