<svg id="Flat" xmlns="http://www.w3.org/2000/svg" viewBox="0 0 256 256">
  <path d="M216,136H136a8.00008,8.00008,0,0,0-8,8v57.45459a7.99967,7.99967,0,0,0,6.56885,7.87061l80,14.5459A8.0001,8.0001,0,0,0,224,216V144A8.00008,8.00008,0,0,0,216,136Zm-8,70.41406-64-11.63574V152h64ZM104,136H40a8.00008,8.00008,0,0,0-8,8v40a8.00019,8.00019,0,0,0,6.56885,7.8711l64,11.63623A8.0001,8.0001,0,0,0,112,195.63674V144A8.00008,8.00008,0,0,0,104,136ZM96,186.0508l-48-8.72754V152H96ZM221.126,33.85793a7.99624,7.99624,0,0,0-6.55713-1.729l-80,14.5459A7.99965,7.99965,0,0,0,128,54.54543V112a8.00008,8.00008,0,0,0,8,8h80a8.00008,8.00008,0,0,0,8-8V40A8.00028,8.00028,0,0,0,221.126,33.85793ZM208,104H144V61.2217L208,49.586ZM109.126,54.2217a7.99543,7.99543,0,0,0-6.55713-1.729l-64,11.63623A8.00017,8.00017,0,0,0,32,72v40a8.00008,8.00008,0,0,0,8,8h64a8.00008,8.00008,0,0,0,8-8V60.3633A7.99853,7.99853,0,0,0,109.126,54.2217ZM96,104H48V78.67678l48-8.72754Z"/>
</svg>
