<svg id="Flat" xmlns="http://www.w3.org/2000/svg" viewBox="0 0 256 256">
  <path d="M209.731,110.01318,183.67285,21.73535A7.99985,7.99985,0,0,0,176,16H80a7.99985,7.99985,0,0,0-7.67285,5.73535L46.269,110.01367a31.98427,31.98427,0,0,0,1.52246,22.23584A88.23124,88.23124,0,0,0,120,183.62012V224H88a8,8,0,0,0,0,16h80a8,8,0,0,0,0-16H136V183.62012a88.2322,88.2322,0,0,0,72.209-51.3711A31.98394,31.98394,0,0,0,209.731,110.01318ZM85.98,32h84.04053l20.8125,70.5083c-10.77588,4.49268-31.07666,8.42578-59.25537-5.66357C105.398,83.75488,84.38428,83.7627,69.66943,87.25537Zm107.65234,93.65186a72.03326,72.03326,0,0,1-131.26416.00048,15.97592,15.97592,0,0,1-.75341-11.10937l2.54541-8.62354c11.00976-4.91259,31.48925-9.15088,60.2622,5.23584,17.23047,8.61524,32.25635,11.50489,44.66553,11.50489a73.05484,73.05484,0,0,0,25.90674-4.60108A15.90873,15.90873,0,0,1,193.63232,125.65186Z"/>
</svg>
