<svg xmlns="http://www.w3.org/2000/svg" viewBox="0 0 256 256"><path d="M209.7,110l-26-88.3A8,8,0,0,0,176,16H80a8,8,0,0,0-7.7,5.7L46.3,110a31.5,31.5,0,0,0,1.5,22.2A88.1,88.1,0,0,0,120,183.6V224H88a8,8,0,0,0,0,16h80a8,8,0,0,0,0-16H136V183.6a88.1,88.1,0,0,0,72.2-51.4A31.5,31.5,0,0,0,209.7,110ZM86,32h84l20.8,70.5c-10.7,4.5-31,8.4-59.2-5.7-26.2-13-47.2-13-61.9-9.5Zm107.6,93.7a72,72,0,0,1-131.2,0,16,16,0,0,1-.8-11.2l2.6-8.6c11-4.9,31.4-9.1,60.2,5.3,17.3,8.6,32.3,11.5,44.7,11.5a74.7,74.7,0,0,0,25.9-4.6A15.4,15.4,0,0,1,193.6,125.7Z"/></svg>