<svg id="Flat" xmlns="http://www.w3.org/2000/svg" viewBox="0 0 256 256">
  <path d="M226.30273,67.88574a8.00454,8.00454,0,0,0-13.02685-2.53418l-38.93457,38.93457-18.856-3.77148L151.71387,81.6582,190.648,42.72461a8.0014,8.0014,0,0,0-2.53369-13.02734,72.02489,72.02489,0,0,0-94.06153,95.23437l-60.25293,52.043c-.147.12793-.29.26074-.42773.39844a32.00021,32.00021,0,0,0,45.25537,45.25488q.20655-.20655.39746-.42773l52.04248-60.252a72.0259,72.0259,0,0,0,95.23535-94.0625Zm-26.70459,67.71192a56.25183,56.25183,0,0,1-66.481,9.54785,8.00213,8.00213,0,0,0-10.11475,1.66308l-55.876,64.68946a16.00011,16.00011,0,0,1-22.625-22.624l64.6875-55.876a7.999,7.999,0,0,0,1.772-9.92383A56.04429,56.04429,0,0,1,169.896,40.84863L137.37256,73.37207a8.00152,8.00152,0,0,0-2.188,7.22656l5.65723,28.28418a8.00125,8.00125,0,0,0,6.27588,6.27539l28.28418,5.65723a7.99936,7.99936,0,0,0,7.22558-2.1875l32.52393-32.52441A55.76421,55.76421,0,0,1,199.59814,135.59766Z"/>
</svg>
