<svg id="Flat" xmlns="http://www.w3.org/2000/svg" viewBox="0 0 256 256">
  <path d="M128.00049,24.00012a104,104,0,1,0,104,104A104.11791,104.11791,0,0,0,128.00049,24.00012Zm0,192a88,88,0,1,1,88-88A88.09957,88.09957,0,0,1,128.00049,216.00012Zm37.65722-61.65674a8.00018,8.00018,0,0,1-11.31445,11.31348l-26.34277-26.343-26.34278,26.343a8.00018,8.00018,0,0,1-11.31445-11.31348l26.34326-26.3435-26.34326-26.343a8.00018,8.00018,0,0,1,11.31445-11.31348L128,116.68591l26.34229-26.34253a8.00018,8.00018,0,0,1,11.31445,11.31348l-26.34278,26.343Z"/>
</svg>
