<svg id="Flat" xmlns="http://www.w3.org/2000/svg" viewBox="0 0 256 256">
  <path d="M165.65771,154.34338a8.00018,8.00018,0,0,1-11.31445,11.31348l-26.34277-26.343-26.34278,26.343a8.00018,8.00018,0,0,1-11.31445-11.31348l26.34326-26.34344L90.34326,101.65686a8.00018,8.00018,0,0,1,11.31445-11.31348L128,116.68585l26.34229-26.34247a8.00018,8.00018,0,0,1,11.31445,11.31348l-26.34278,26.343Zm58.3418-106.34326v160a16.01833,16.01833,0,0,1-16,16h-160a16.01833,16.01833,0,0,1-16-16v-160a16.01834,16.01834,0,0,1,16-16h160A16.01833,16.01833,0,0,1,223.99951,48.00012ZM208.01025,207.99963l-.01074-159.99951h-160v160h160Z"/>
</svg>
