<svg id="Flat" xmlns="http://www.w3.org/2000/svg" viewBox="0 0 256 256">
  <path d="M164.4375,121.34375l-48-32A8,8,0,0,0,104,96v64a7.99975,7.99975,0,0,0,12.4375,6.65625l48-32a7.99959,7.99959,0,0,0,0-13.3125ZM120,145.05176V110.94824L145.57764,128Zm114.33057-75.2544a23.96369,23.96369,0,0,0-14.50489-16.34619C185.55615,40.28174,130.98,40.38037,128,40.40771c-2.979-.02783-57.55566-.126-91.8252,13.04346a23.96679,23.96679,0,0,0-14.50537,16.3457C19.083,79.72754,16,97.88623,16,128c0,30.11426,3.083,48.27246,5.66943,58.20264a23.9648,23.9648,0,0,0,14.50489,16.34619c32.80615,12.60693,84.22168,13.04541,91.167,13.04541h1.31738c6.9502-.00049,58.36231-.43945,91.16651-13.04541a23.9658,23.9658,0,0,0,14.50537-16.34571C236.917,176.273,240,158.11377,240,128,240,97.88525,236.917,79.72705,234.33057,69.79736Zm-15.4834,112.37305a7.93128,7.93128,0,0,1-4.76123,5.44287c-31.6543,12.16406-85.49707,11.98486-86.03614,11.979-.0332.00048-.06787.00048-.10058,0-.53858.01757-54.33545.20263-86.03565-11.979a7.93162,7.93162,0,0,1-4.76074-5.44287C34.80225,173.14453,32,156.42041,32,128c0-28.41992,2.80225-45.14453,5.15283-54.17041a7.9324,7.9324,0,0,1,4.76123-5.44287c30.52393-11.73,81.67871-11.97949,85.86621-11.97949.15528,0,.24659,0,.26953.00048.541-.01562,54.38282-.18505,86.03663,11.979a7.93042,7.93042,0,0,1,4.76074,5.44336C221.19775,82.855,224,99.5791,224,128,224,156.41992,221.19775,173.145,218.84717,182.17041Z"/>
</svg>
