<svg id="Flat" xmlns="http://www.w3.org/2000/svg" viewBox="0 0 256 256">
  <path d="M230.67334,66.74561c-1.96533-12.37745-13.28125-23.19385-25.80518-24.6294a709.5588,709.5588,0,0,0-153.77929.00488C38.61133,43.55078,27.29492,54.3667,25.31934,66.79053a404.54889,404.54889,0,0,0,.00732,122.46533c1.96777,12.37842,13.28467,23.19385,25.80518,24.62744A708.4668,708.4668,0,0,0,128,218.06055a708.4668,708.4668,0,0,0,76.86816-4.17725l.041-.00439c12.48047-1.42823,23.79736-12.24414,25.77148-24.66944A404.53923,404.53923,0,0,0,230.67334,66.74561Zm-15.80176,119.999c-.82178,5.17187-6.53515,10.62695-11.76318,11.23584a693.33264,693.33264,0,0,1-150.19824.00195c-5.23291-.59912-10.959-6.06055-11.77442-11.19189a388.40138,388.40138,0,0,1-.00732-117.53418c.82324-5.17774,6.54931-10.63965,11.73974-11.23487a693.39485,693.39485,0,0,1,150.22071-.00488c5.23437.6001,10.96093,6.06152,11.77539,11.19287A388.40782,388.40782,0,0,1,214.87158,186.74463ZM164.4375,121.34375l-48-32A8,8,0,0,0,104,96v64a7.99975,7.99975,0,0,0,12.4375,6.65625l48-32a7.99959,7.99959,0,0,0,0-13.3125ZM120,145.05176V110.94824L145.57764,128Z"/>
</svg>
