<?xml version="1.0" standalone="no"?>
<!DOCTYPE svg PUBLIC "-//W3C//DTD SVG 1.1//EN" "http://www.w3.org/Graphics/SVG/1.1/DTD/svg11.dtd" >
<svg xmlns="http://www.w3.org/2000/svg">
<metadata>
<json>
<![CDATA[
{
	"fontFamily": "Phosphor-Light",
	"majorVersion": 2,
	"minorVersion": 0,
	"fontURL": "https://phosphoricons.com",
	"copyright": "2023",
	"designer": "Helena Zhang & Tobias Fried",
	"designerURL": "https://phosphoricons.com",
	"license": "MIT",
	"licenseURL": "https://github.com/phosphor-icons/homepage/blob/master/LICENSE",
	"version": "Version 2.0",
	"fontId": "Phosphor-Light",
	"psName": "Phosphor-Light",
	"subFamily": "Regular",
	"fullName": "Phosphor-Light",
	"description": "Font generated by IcoMoon."
}
]]>
</json>
</metadata>
<defs>
<font id="Phosphor-Light" horiz-adv-x="1024">
<font-face units-per-em="1024" ascent="960" descent="-64" />
<missing-glyph horiz-adv-x="1024" />
<glyph unicode="&#x20;" horiz-adv-x="512" d="" />
<glyph unicode="&#xe900;" glyph-name="address-book-light" data-tags="address-book-light" d="M636.44 391.48c36.365 28.058 59.56 71.65 59.56 120.66 0 83.947-68.053 152-152 152s-152-68.053-152-152c0-49.010 23.195-92.602 59.207-120.398l0.353-0.262c-48.457-18.425-88.736-49.147-118.275-88.407l-0.485-0.673c-2.997-3.961-4.8-8.97-4.8-14.4 0-13.255 10.745-24 24-24 7.825 0 14.775 3.745 19.156 9.54l0.044 0.060c39.825 52.698 102.377 86.4 172.8 86.4s132.975-33.702 172.406-85.857l0.394-0.543c4.425-5.855 11.375-9.6 19.2-9.6 13.255 0 24 10.745 24 24 0 5.43-1.803 10.439-4.844 14.46l0.044-0.060c-30.024 39.933-70.303 70.655-116.956 88.475l-1.804 0.605zM440 512c0 57.438 46.562 104 104 104s104-46.562 104-104c0-57.438-46.562-104-104-104v0c-57.438 0-104 46.562-104 104v0zM832 856h-576c-30.928 0-56-25.072-56-56v0-104h-72c-13.255 0-24-10.745-24-24s10.745-24 24-24v0h72v-176h-72c-13.255 0-24-10.745-24-24s10.745-24 24-24v0h72v-176h-72c-13.255 0-24-10.745-24-24s10.745-24 24-24v0h72v-104c0-30.928 25.072-56 56-56v0h576c30.928 0 56 25.072 56 56v0 704c0 30.928-25.072 56-56 56v0zM840 96c0-4.418-3.582-8-8-8v0h-576c-4.418 0-8 3.582-8 8v0 704c0 4.418 3.582 8 8 8v0h576c4.418 0 8-3.582 8-8v0z" />
<glyph unicode="&#xe901;" glyph-name="airplane-in-flight-light" data-tags="airplane-in-flight-light" d="M888 96c0-13.255-10.745-24-24-24v0h-576c-13.255 0-24 10.745-24 24s10.745 24 24 24v0h576c13.255 0 24-10.745 24-24v0zM984 416v-96c0-13.255-10.745-24-24-24v0h-715.72c-0.207-0.001-0.452-0.002-0.697-0.002-68.197 0-125.841 45.186-144.625 107.252l-0.278 1.070-56.28 187.68c-1.481 4.789-2.334 10.295-2.334 16 0 30.905 25.035 55.963 55.931 56h32.004c6.625-0.006 12.621-2.695 16.96-7.040v0l89-88.96h104.4l-39.44 118.28c-1.824 5.288-2.877 11.381-2.877 17.72 0 30.913 25.048 55.976 55.955 56h32.002c0.006 0 0.012 0 0.019 0 6.633 0 12.637-2.691 16.981-7.040v0l184.96-184.96h246.040c83.947 0 152-68.053 152-152v0zM936 416c0 57.438-46.562 104-104 104v0h-256c-6.625 0.006-12.621 2.695-16.96 7.040v0l-184.96 184.96h-22.080c-0.002 0-0.005 0-0.007 0-4.418 0-8-3.582-8-8 0-0.901 0.149-1.768 0.424-2.576l-0.017 0.056 50-149.88c0.783-2.268 1.235-4.881 1.235-7.6 0-13.253-10.742-23.997-23.995-24h-147.64c-6.625 0.006-12.621 2.695-16.96 7.040v0l-88.96 88.96h-22.080c-0.033 0.001-0.073 0.001-0.112 0.001-2.584 0-4.871-1.269-6.272-3.218l-0.016-0.023c-1.004-1.281-1.61-2.915-1.61-4.691 0-0.839 0.135-1.647 0.385-2.403l-0.015 0.054 56.24-187.6c13.065-43.205 52.521-74.121 99.198-74.121 0.169 0 0.339 0 0.508 0.001h691.694z" />
<glyph unicode="&#xe902;" glyph-name="airplane-landing-light" data-tags="airplane-landing-light" d="M984 96c0-13.255-10.745-24-24-24v0h-576c-13.255 0-24 10.745-24 24s10.745 24 24 24v0h576c13.255 0 24-10.745 24-24v0zM889.52 200.88l-706.52 197.84c-64.459 18.68-110.817 77.101-111 146.379v222.901c0 0.011 0 0.024 0 0.037 0 30.928 25.072 56 56 56 6.339 0 12.432-1.053 18.114-2.994l-0.394 0.117 21.88-7.32c6.982-2.383 12.413-7.696 14.906-14.434l0.054-0.166 44-121.32 133.44-37.92v128c0 0.011 0 0.024 0 0.037 0 30.928 25.072 56 56 56 6.339 0 12.432-1.053 18.114-2.994l-0.394 0.117 21.88-7.32c6.602-2.254 11.803-7.115 14.46-13.324l0.060-0.156 91.52-218.12 247.080-69.080c64.627-18.524 111.149-77.031 111.28-146.425v-142.735c0-0.003 0-0.007 0-0.011 0-13.255-10.745-24-24-24-2.307 0-4.538 0.325-6.649 0.933l0.169-0.042zM872 366.72c-0.175 47.372-31.909 87.284-75.264 99.818l-0.736 0.182-258.32 72c-7.12 2.049-12.774 7.113-15.581 13.683l-0.059 0.157-92 218.8-11.56 4c-0.742 0.251-1.596 0.395-2.484 0.395-4.332 0-7.86-3.444-7.996-7.743v-160.012c-0.003-13.252-10.747-23.994-24-23.994-2.336 0-4.594 0.334-6.73 0.956l0.17-0.042-176 50.16c-7.468 2.173-13.327 7.678-15.946 14.754l-0.054 0.166-44.080 122-10.84 3.6c-0.728 0.254-1.567 0.4-2.441 0.4-0.028 0-0.056 0-0.083 0h0.004c-1.745-0.012-3.354-0.58-4.663-1.536l0.023 0.016c-2.034-1.461-3.347-3.816-3.36-6.478v-222.882c0.203-47.362 31.924-87.261 75.263-99.817l0.737-0.183 676-189.32z" />
<glyph unicode="&#xe903;" glyph-name="airplane-light" data-tags="airplane-light" d="M938.72 437.48l-306.72 153.36v177.16c0 66.274-53.726 120-120 120s-120-53.726-120-120v0-177.16l-306.72-153.36c-7.936-4.026-13.28-12.125-13.28-21.473 0-0.003 0-0.005 0-0.008v0-128c0.006-13.25 10.749-23.989 24-23.989 1.67 0 3.301 0.171 4.875 0.495l-0.155-0.027 291.28 58.24v-88.76l-56.96-57c-4.345-4.339-7.034-10.335-7.040-16.959v-128.001c0-13.254 10.745-23.999 24-23.999 3.213 0 6.279 0.632 9.080 1.777l-0.16-0.058 151.080 60.44 151.080-60.44c2.641-1.088 5.707-1.719 8.92-1.719 13.255 0 24 10.745 24 23.999v0 128c-0.006 6.625-2.695 12.621-7.040 16.96v0l-56.96 57v88.76l291.28-58.24c1.419-0.298 3.050-0.469 4.72-0.469 13.251 0 23.994 10.739 24 23.988v128.001c0 0.002 0 0.005 0 0.007 0 9.348-5.344 17.447-13.143 21.41l-0.137 0.063zM904 317.28l-291.28 58.24c-1.419 0.298-3.050 0.469-4.72 0.469-13.251 0-23.994-10.739-24-23.988v-128.001c0.006-6.625 2.695-12.621 7.040-16.96v0l56.96-57v-82.6l-127.080 50.84c-2.641 1.088-5.707 1.719-8.92 1.719s-6.279-0.632-9.080-1.777l0.16 0.058-127.080-50.84v82.6l56.96 57c4.345 4.339 7.034 10.335 7.040 16.959v128.001c-0.006 13.25-10.749 23.989-24 23.989-1.67 0-3.301-0.171-4.875-0.495l0.155 0.027-291.28-58.24v84l306.72 153.36c7.903 4.009 13.235 12.057 13.28 21.354v192.006c0 39.765 32.235 72 72 72s72-32.235 72-72v0-192c0-0.002 0-0.005 0-0.007 0-9.348 5.344-17.447 13.143-21.41l0.137-0.063 306.72-153.36z" />
<glyph unicode="&#xe904;" glyph-name="airplane-takeoff-light" data-tags="airplane-takeoff-light" d="M696 96c0-13.255-10.745-24-24-24v0h-576c-13.255 0-24 10.745-24 24s10.745 24 24 24v0h576c13.255 0 24-10.745 24-24v0zM983.6 588.88c-1.378-6.845-5.514-12.527-11.172-15.94l-0.108-0.060-589.64-352c-22.030-13.103-48.563-20.868-76.905-20.92h-0.015c-40.19 0.051-76.698 15.774-103.749 41.385l0.069-0.065-0.4 0.36-144.2 140.92c-10.81 10.232-17.538 24.681-17.538 40.702 0 22.802 13.628 42.42 33.182 51.156l0.356 0.142 12 5.96c3.074 1.534 6.696 2.433 10.528 2.433 2.76 0 5.412-0.466 7.88-1.324l-0.168 0.051 116.6-39.32 92.68 56-94.8 92c-11.123 10.267-18.066 24.92-18.066 41.194 0 23.004 13.87 42.768 33.704 51.386l0.362 0.14 0.96 0.4 28.6 10.84c2.49 0.957 5.37 1.511 8.38 1.511s5.89-0.554 8.545-1.566l-0.165 0.055 219.36-80.72 209.52 125.080c22.070 13.317 48.722 21.196 77.215 21.196 47.248 0 89.436-21.666 117.17-55.605l0.215-0.271 0.36-0.44 74.56-95.56c3.167-4.028 5.079-9.173 5.079-14.764 0-1.54-0.145-3.046-0.422-4.506l0.024 0.15zM924.36 600l-57.68 73.88c-19.115 23.322-47.923 38.087-80.18 38.087-19.508 0-37.754-5.4-53.326-14.787l0.465 0.26-219.24-130.88c-3.516-2.134-7.765-3.397-12.31-3.397-2.976 0-5.826 0.542-8.456 1.532l0.165-0.055-221.8 81.56-19.6-7.4c-2.34-1.083-4.016-3.25-4.395-5.839l-0.005-0.041c-0.073-0.405-0.114-0.871-0.114-1.346 0-2.35 1.014-4.464 2.627-5.928l0.007-0.006 0.68-0.6 117.4-113.96c4.499-4.367 7.292-10.472 7.292-17.229 0-8.662-4.588-16.251-11.467-20.472l-0.105-0.060-128.76-77.96c-3.533-2.161-7.808-3.441-12.382-3.441-2.725 0-5.345 0.454-7.786 1.291l0.169-0.050-117.8 39.76-3.72-1.84-1.12-0.52c-2.864-1.26-4.827-4.073-4.827-7.344 0-2.289 0.962-4.354 2.503-5.813l0.004-0.004 0.4-0.36 144-141.12c18.459-17.42 43.416-28.127 70.875-28.127 19.307 0 37.377 5.294 52.839 14.508l-0.474-0.262z" />
<glyph unicode="&#xe905;" glyph-name="airplane-tilt-light" data-tags="airplane-tilt-light" d="M732 505.4l120.92 113.8c21.718 21.718 35.15 51.72 35.15 84.86 0 66.28-53.73 120.010-120.010 120.010-33.14 0-63.142-13.433-84.86-35.15l-0.52-0.52-113.28-120.4-337.2 122.6c-2.442 0.917-5.264 1.448-8.211 1.448-6.617 0-12.608-2.678-16.95-7.009v0l-96-96c-4.383-4.35-7.097-10.377-7.097-17.038 0-8.314 4.228-15.641 10.65-19.948l0.087-0.055 263.68-175.76-68.28-68.24h-86.080c-6.625-0.006-12.621-2.695-16.96-7.040v0l-96-96c-4.364-4.347-7.064-10.361-7.064-17.005 0-10.036 6.16-18.633 14.904-22.217l0.16-0.058 150.48-60 60-150.24v-0.48c3.694-8.791 12.233-14.852 22.188-14.852 3.263 0 6.374 0.651 9.211 1.831l-0.159-0.059c3.244 1.337 6.002 3.249 8.271 5.63l0.009 0.010 95.64 95.64c4.42 4.275 7.201 10.221 7.32 16.818v86.102l68.28 68.28 175.72-263.68c4.367-6.468 11.671-10.665 19.954-10.665 6.625 0 12.623 2.684 16.966 7.025l96 96c4.33 4.341 7.008 10.332 7.008 16.949 0 2.946-0.531 5.769-1.502 8.377l0.054-0.166zM739.76 101.68l-175.76 263.68c-3.934 5.834-10.237 9.811-17.498 10.552l-0.102 0.008h-2.36c-6.625-0.006-12.621-2.695-16.96-7.040v0l-96-96c-4.341-4.316-7.040-10.279-7.080-16.872v-86.088l-63.2-63.2-50.52 126.2c-2.484 6.128-7.242 10.899-13.2 13.342l-0.16 0.058-126.2 50.48 63.24 63.2h86.040c0.006 0 0.012 0 0.019 0 6.633 0 12.637 2.691 16.981 7.040v0l96 96c4.331 4.341 7.009 10.333 7.009 16.95 0 8.294-4.207 15.605-10.603 19.916l-0.085 0.054-263.64 175.8 64.48 64.52 337.84-122.8c2.437-0.913 5.253-1.442 8.193-1.442 6.888 0 13.099 2.902 17.475 7.55l0.011 0.012 124 131.6c12.687 11.408 29.557 18.385 48.056 18.385 39.765 0 72-32.235 72-72 0-18.579-7.037-35.515-18.591-48.286l0.055 0.062-131.6-124c-4.66-4.388-7.562-10.599-7.562-17.487 0-2.94 0.529-5.756 1.496-8.359l-0.054 0.166 122.8-337.64z" />
<glyph unicode="&#xe906;" glyph-name="airplay-light" data-tags="airplay-light" d="M530.24 335.6c-4.428 5.142-10.946 8.378-18.22 8.378s-13.792-3.236-18.194-8.347l-0.026-0.031-192-224c-3.581-4.168-5.762-9.629-5.762-15.6 0-13.241 10.723-23.978 23.959-24h384.002c0 0 0.001 0 0.002 0 13.255 0 24 10.745 24 24 0 5.971-2.18 11.432-5.788 15.632l0.027-0.032zM372.2 120l140 163.12 139.8-163.12zM920 704v-448c0-48.601-39.399-88-88-88v0h-64c-13.255 0-24 10.745-24 24s10.745 24 24 24v0h64c22.091 0 40 17.909 40 40v0 448c0 22.091-17.909 40-40 40v0h-640c-22.091 0-40-17.909-40-40v0-448c0-22.091 17.909-40 40-40v0h64c13.255 0 24-10.745 24-24s-10.745-24-24-24v0h-64c-48.601 0-88 39.399-88 88v0 448c0 48.601 39.399 88 88 88v0h640c48.601 0 88-39.399 88-88v0z" />
<glyph unicode="&#xe907;" glyph-name="air-traffic-control-light" data-tags="air-traffic-control-light" d="M909.88 704c-10.237 14.565-26.957 23.973-45.876 24h-328.004v144h72c13.255 0 24 10.745 24 24s-10.745 24-24 24v0h-192c-13.255 0-24-10.745-24-24s10.745-24 24-24v0h72v-144h-328c-0.002 0-0.003 0-0.005 0-30.928 0-56-25.072-56-56 0-6.86 1.234-13.433 3.491-19.507l-0.126 0.387 104.76-288c8.042-21.686 28.546-36.865 52.598-36.88h127.282v-264c0-13.255 10.745-24 24-24s24 10.745 24 24v0 264h144v-264c0-13.255 10.745-24 24-24s24 10.745 24 24v0 264h127.28c0.025 0 0.055 0 0.085 0 24.068 0 44.589 15.183 52.509 36.493l0.126 0.387 104.76 288c2.088 5.633 3.296 12.14 3.296 18.93 0 12.058-3.811 23.225-10.293 32.364l0.117-0.174zM436 376l-55.24 304h262.48l-55.24-304zM257.2 381.28l-104.72 288c-0.306 0.814-0.483 1.755-0.483 2.737 0 1.716 0.54 3.305 1.46 4.608l-0.017-0.025c1.416 2.064 3.762 3.401 6.42 3.401 0.049 0 0.098 0 0.147-0.001h171.993l55.28-304h-122.56c-3.441 0.002-6.374 2.175-7.502 5.225l-0.018 0.055zM871.52 669.28l-104.72-288c-1.146-3.105-4.079-5.278-7.52-5.28h-122.52l55.24 304h172c0.042 0.001 0.091 0.001 0.14 0.001 2.658 0 5.005-1.337 6.403-3.375l0.017-0.026c0.903-1.278 1.443-2.867 1.443-4.583 0-0.982-0.177-1.923-0.501-2.792l0.018 0.055z" />
<glyph unicode="&#xe908;" glyph-name="alarm-light" data-tags="alarm-light" d="M512 824c-207.659 0-376-168.341-376-376s168.341-376 376-376c207.659 0 376 168.341 376 376v0c-0.25 207.558-168.441 375.749-375.975 376h-0.025zM512 120c-181.149 0-328 146.851-328 328s146.851 328 328 328c181.149 0 328-146.851 328-328v0c-0.227-181.058-146.942-327.772-327.978-328h-0.022zM240.96 847.040l-128-128c-4.274-3.991-10.032-6.441-16.361-6.441-13.255 0-24 10.745-24 24 0 6.33 2.45 12.087 6.454 16.375l-0.013-0.014 128 128c4.274 3.991 10.032 6.441 16.361 6.441 13.255 0 24-10.745 24-24 0-6.33-2.45-12.087-6.454-16.375l0.013 0.014zM944.96 719.040c-4.342-4.337-10.338-7.019-16.96-7.019s-12.618 2.682-16.96 7.019v0l-128 128c-3.991 4.274-6.441 10.032-6.441 16.361 0 13.255 10.745 24 24 24 6.33 0 12.087-2.45 16.375-6.454l-0.014 0.013 128-128c4.337-4.342 7.019-10.338 7.019-16.96s-2.682-12.618-7.019-16.96v0zM736 472c13.255 0 24-10.745 24-24s-10.745-24-24-24v0h-224c-13.255 0-24 10.745-24 24v0 224c0 13.255 10.745 24 24 24s24-10.745 24-24v0-200z" />
<glyph unicode="&#xe909;" glyph-name="alien-light" data-tags="alien-light" d="M512 888c-207.558-0.25-375.749-168.441-376-375.975v-0.025c0-94.4 49.64-216.8 132.84-327.32 64.24-85.4 161.88-176.68 243.16-176.68s178.92 91.28 243.16 176.68c83.2 110.52 132.84 232.92 132.84 327.32-0.25 207.558-168.441 375.749-375.975 376h-0.025zM716.84 213.52c-70.92-94.2-153.2-157.52-204.84-157.52s-133.92 63.32-204.84 157.52c-75.96 101-123.16 215.36-123.16 298.48 0 181.149 146.851 328 328 328s328-146.851 328-328v0c0-83.12-47.2-197.48-123.16-298.48zM472 416c0 83.947-68.053 152-152 152v0c-30.928 0-56-25.072-56-56v0c0-83.947 68.053-152 152-152v0c30.928 0 56 25.072 56 56v0zM416 408c-57.438 0-104 46.562-104 104v0c0 4.418 3.582 8 8 8v0c57.438 0 104-46.562 104-104v0c0-4.418-3.582-8-8-8v0zM704 568c-83.947 0-152-68.053-152-152v0c0-30.928 25.072-56 56-56v0c83.947 0 152 68.053 152 152v0c0 30.928-25.072 56-56 56v0zM608 408c-4.418 0-8 3.582-8 8v0c0 57.438 46.562 104 104 104v0c4.418 0 8-3.582 8-8v0c0-57.438-46.562-104-104-104v0zM600 224c0-13.255-10.745-24-24-24v0h-128c-13.255 0-24 10.745-24 24s10.745 24 24 24v0h128c13.255 0 24-10.745 24-24v0z" />
<glyph unicode="&#xe90a;" glyph-name="align-bottom-light" data-tags="align-bottom-light" d="M888 96c0-13.255-10.745-24-24-24v0h-704c-13.255 0-24 10.745-24 24s10.745 24 24 24v0h704c13.255 0 24-10.745 24-24v0zM552 256v384c0 30.928 25.072 56 56 56v0h160c30.928 0 56-25.072 56-56v0-384c0-30.928-25.072-56-56-56v0h-160c-30.928 0-56 25.072-56 56v0zM600 256c0-4.418 3.582-8 8-8v0h160c4.418 0 8 3.582 8 8v0 384c0 4.418-3.582 8-8 8v0h-160c-4.418 0-8-3.582-8-8v0zM200 256v544c0 30.928 25.072 56 56 56v0h160c30.928 0 56-25.072 56-56v0-544c0-30.928-25.072-56-56-56v0h-160c-30.928 0-56 25.072-56 56v0zM248 256c0-4.418 3.582-8 8-8v0h160c4.418 0 8 3.582 8 8v0 544c0 4.418-3.582 8-8 8v0h-160c-4.418 0-8-3.582-8-8v0z" />
<glyph unicode="&#xe90b;" glyph-name="align-bottom-simple-light" data-tags="align-bottom-simple-light" d="M824 32c0-13.255-10.745-24-24-24v0h-576c-13.255 0-24 10.745-24 24s10.745 24 24 24v0h576c13.255 0 24-10.745 24-24v0zM328 192v608c0 30.928 25.072 56 56 56v0h256c30.928 0 56-25.072 56-56v0-608c0-30.928-25.072-56-56-56v0h-256c-30.928 0-56 25.072-56 56v0zM376 192c0-4.418 3.582-8 8-8v0h256c4.418 0 8 3.582 8 8v0 608c0 4.418-3.582 8-8 8v0h-256c-4.418 0-8-3.582-8-8v0z" />
<glyph unicode="&#xe90c;" glyph-name="align-center-horizontal-light" data-tags="align-center-horizontal-light" d="M832 408h-296v80h200c30.928 0 56 25.072 56 56v0 160c0 30.928-25.072 56-56 56v0h-200v72c0 13.255-10.745 24-24 24s-24-10.745-24-24v0-72h-200c-30.928 0-56-25.072-56-56v0-160c0-30.928 25.072-56 56-56v0h200v-80h-296c-30.928 0-56-25.072-56-56v0-160c0-30.928 25.072-56 56-56v0h296v-72c0-13.255 10.745-24 24-24s24 10.745 24 24v0 72h296c30.928 0 56 25.072 56 56v0 160c0 30.928-25.072 56-56 56v0zM280 544v160c0 4.418 3.582 8 8 8v0h448c4.418 0 8-3.582 8-8v0-160c0-4.418-3.582-8-8-8v0h-448c-4.418 0-8 3.582-8 8v0zM840 192c0-4.418-3.582-8-8-8v0h-640c-4.418 0-8 3.582-8 8v0 160c0 4.418 3.582 8 8 8v0h640c4.418 0 8-3.582 8-8v0z" />
<glyph unicode="&#xe90d;" glyph-name="align-center-horizontal-simple-light" data-tags="align-center-horizontal-simple-light" d="M832 632h-296v136c0 13.255-10.745 24-24 24s-24-10.745-24-24v0-136h-296c-30.928 0-56-25.072-56-56v0-256c0-30.928 25.072-56 56-56v0h296v-136c0-13.255 10.745-24 24-24s24 10.745 24 24v0 136h296c30.928 0 56 25.072 56 56v0 256c0 30.928-25.072 56-56 56v0zM840 320c0-4.418-3.582-8-8-8v0h-640c-4.418 0-8 3.582-8 8v0 256c0 4.418 3.582 8 8 8v0h640c4.418 0 8-3.582 8-8v0z" />
<glyph unicode="&#xe90e;" glyph-name="align-center-vertical-light" data-tags="align-center-vertical-light" d="M896 472h-72v200c0 30.928-25.072 56-56 56v0h-160c-30.928 0-56-25.072-56-56v0-200h-80v296c0 30.928-25.072 56-56 56v0h-160c-30.928 0-56-25.072-56-56v0-296h-72c-13.255 0-24-10.745-24-24s10.745-24 24-24v0h72v-296c0-30.928 25.072-56 56-56v0h160c30.928 0 56 25.072 56 56v0 296h80v-200c0-30.928 25.072-56 56-56v0h160c30.928 0 56 25.072 56 56v0 200h72c13.255 0 24 10.745 24 24s-10.745 24-24 24v0zM424 128c0-4.418-3.582-8-8-8v0h-160c-4.418 0-8 3.582-8 8v0 640c0 4.418 3.582 8 8 8v0h160c4.418 0 8-3.582 8-8v0zM776 224c0-4.418-3.582-8-8-8v0h-160c-4.418 0-8 3.582-8 8v0 448c0 4.418 3.582 8 8 8v0h160c4.418 0 8-3.582 8-8v0z" />
<glyph unicode="&#xe90f;" glyph-name="align-center-vertical-simple-light" data-tags="align-center-vertical-simple-light" d="M832 472h-136v296c0 30.928-25.072 56-56 56v0h-256c-30.928 0-56-25.072-56-56v0-296h-136c-13.255 0-24-10.745-24-24s10.745-24 24-24v0h136v-296c0-30.928 25.072-56 56-56v0h256c30.928 0 56 25.072 56 56v0 296h136c13.255 0 24 10.745 24 24s-10.745 24-24 24v0zM648 128c0-4.418-3.582-8-8-8v0h-256c-4.418 0-8 3.582-8 8v0 640c0 4.418 3.582 8 8 8v0h256c4.418 0 8-3.582 8-8v0z" />
<glyph unicode="&#xe910;" glyph-name="align-left-light" data-tags="align-left-light" d="M184 800v-704c0-13.255-10.745-24-24-24s-24 10.745-24 24v0 704c0 13.255 10.745 24 24 24s24-10.745 24-24v0zM264 544v160c0 30.928 25.072 56 56 56v0h384c30.928 0 56-25.072 56-56v0-160c0-30.928-25.072-56-56-56v0h-384c-30.928 0-56 25.072-56 56v0zM312 544c0-4.418 3.582-8 8-8v0h384c4.418 0 8 3.582 8 8v0 160c0 4.418-3.582 8-8 8v0h-384c-4.418 0-8-3.582-8-8v0zM920 352v-160c0-30.928-25.072-56-56-56v0h-544c-30.928 0-56 25.072-56 56v0 160c0 30.928 25.072 56 56 56v0h544c30.928 0 56-25.072 56-56v0zM872 352c0 4.418-3.582 8-8 8v0h-544c-4.418 0-8-3.582-8-8v0-160c0-4.418 3.582-8 8-8v0h544c4.418 0 8 3.582 8 8v0z" />
<glyph unicode="&#xe911;" glyph-name="align-left-simple-light" data-tags="align-left-simple-light" d="M152 736v-576c0-13.255-10.745-24-24-24s-24 10.745-24 24v0 576c0 13.255 10.745 24 24 24s24-10.745 24-24v0zM952 576v-256c0-30.928-25.072-56-56-56v0h-608c-30.928 0-56 25.072-56 56v0 256c0 30.928 25.072 56 56 56v0h608c30.928 0 56-25.072 56-56v0zM904 576c0 4.418-3.582 8-8 8v0h-608c-4.418 0-8-3.582-8-8v0-256c0-4.418 3.582-8 8-8v0h608c4.418 0 8 3.582 8 8v0z" />
<glyph unicode="&#xe912;" glyph-name="align-right-light" data-tags="align-right-light" d="M888 800v-704c0-13.255-10.745-24-24-24s-24 10.745-24 24v0 704c0 13.255 10.745 24 24 24s24-10.745 24-24v0zM760 704v-160c0-30.928-25.072-56-56-56v0h-384c-30.928 0-56 25.072-56 56v0 160c0 30.928 25.072 56 56 56v0h384c30.928 0 56-25.072 56-56v0zM712 704c0 4.418-3.582 8-8 8v0h-384c-4.418 0-8-3.582-8-8v0-160c0-4.418 3.582-8 8-8v0h384c4.418 0 8 3.582 8 8v0zM760 352v-160c0-30.928-25.072-56-56-56v0h-544c-30.928 0-56 25.072-56 56v0 160c0 30.928 25.072 56 56 56v0h544c30.928 0 56-25.072 56-56v0zM712 352c0 4.418-3.582 8-8 8v0h-544c-4.418 0-8-3.582-8-8v0-160c0-4.418 3.582-8 8-8v0h544c4.418 0 8 3.582 8 8v0z" />
<glyph unicode="&#xe913;" glyph-name="align-right-simple-light" data-tags="align-right-simple-light" d="M920 736v-576c0-13.255-10.745-24-24-24s-24 10.745-24 24v0 576c0 13.255 10.745 24 24 24s24-10.745 24-24v0zM792 576v-256c0-30.928-25.072-56-56-56v0h-608c-30.928 0-56 25.072-56 56v0 256c0 30.928 25.072 56 56 56v0h608c30.928 0 56-25.072 56-56v0zM744 576c0 4.418-3.582 8-8 8v0h-608c-4.418 0-8-3.582-8-8v0-256c0-4.418 3.582-8 8-8v0h608c4.418 0 8 3.582 8 8v0z" />
<glyph unicode="&#xe914;" glyph-name="align-top-light" data-tags="align-top-light" d="M888 800c0-13.255-10.745-24-24-24v0h-704c-13.255 0-24 10.745-24 24s10.745 24 24 24v0h704c13.255 0 24-10.745 24-24v0zM824 640v-384c0-30.928-25.072-56-56-56v0h-160c-30.928 0-56 25.072-56 56v0 384c0 30.928 25.072 56 56 56v0h160c30.928 0 56-25.072 56-56v0zM776 640c0 4.418-3.582 8-8 8v0h-160c-4.418 0-8-3.582-8-8v0-384c0-4.418 3.582-8 8-8v0h160c4.418 0 8 3.582 8 8v0zM472 640v-544c0-30.928-25.072-56-56-56v0h-160c-30.928 0-56 25.072-56 56v0 544c0 30.928 25.072 56 56 56v0h160c30.928 0 56-25.072 56-56v0zM424 640c0 4.418-3.582 8-8 8v0h-160c-4.418 0-8-3.582-8-8v0-544c0-4.418 3.582-8 8-8v0h160c4.418 0 8 3.582 8 8v0z" />
<glyph unicode="&#xe915;" glyph-name="align-top-simple-light" data-tags="align-top-simple-light" d="M824 832c0-13.255-10.745-24-24-24v0h-576c-13.255 0-24 10.745-24 24s10.745 24 24 24v0h576c13.255 0 24-10.745 24-24v0zM696 672v-608c0-30.928-25.072-56-56-56v0h-256c-30.928 0-56 25.072-56 56v0 608c0 30.928 25.072 56 56 56v0h256c30.928 0 56-25.072 56-56v0zM648 672c0 4.418-3.582 8-8 8v0h-256c-4.418 0-8-3.582-8-8v0-608c0-4.418 3.582-8 8-8v0h256c4.418 0 8 3.582 8 8v0z" />
<glyph unicode="&#xe916;" glyph-name="amazon-logo-light" data-tags="amazon-logo-light" d="M984 288v-128c0-13.255-10.745-24-24-24s-24 10.745-24 24v0 70.080l-22.64-22.64c-10.96-12.040-157.92-167.44-401.36-167.44-248 0-395.68 161.080-401.84 168-4.349 4.344-7.039 10.348-7.039 16.98 0 13.255 10.745 24 24 24 7.549 0 14.284-3.485 18.684-8.935l0.036-0.046c1.36-1.48 140.36-152 366.16-152s364.8 150.56 366.2 152l0.84 0.88 23.040 23.040h-70.080c-13.255 0-24 10.745-24 24s10.745 24 24 24v0h128c0 0 0 0 0 0 13.227 0 23.954-10.7 24-23.916v-0.004zM648 561.76v62.24c0 0.026 0 0.057 0 0.087 0 83.947-68.053 152-152 152-58.769 0-109.747-33.352-135.041-82.161l-0.399-0.847c-3.944-8.173-12.167-13.712-21.683-13.712-13.255 0-24 10.745-24 24 0 4.238 1.098 8.219 3.026 11.674l-0.062-0.122c33.824 65.281 100.872 109.121 178.16 109.121 110.457 0 200-89.543 200-200 0-0.014 0-0.029 0-0.043v0.003-368c0-13.255-10.745-24-24-24s-24 10.745-24 24v0 46.24c-36.908-43.1-91.381-70.24-152.192-70.24-110.457 0-200 89.543-200 200s89.543 200 200 200c60.811 0 115.283-27.14 151.965-69.969l0.227-0.271zM648 432c0 83.947-68.053 152-152 152s-152-68.053-152-152c0-83.947 68.053-152 152-152v0c83.947 0 152 68.053 152 152v0z" />
<glyph unicode="&#xe917;" glyph-name="anchor-light" data-tags="anchor-light" d="M864 408c-13.255 0-24-10.745-24-24v0c0-92.784-75.216-168-168-168v0c-0.005 0-0.010 0-0.016 0-53.855 0-102.29-23.208-135.849-60.168l-0.136-0.152v300.32h136c13.255 0 24 10.745 24 24s-10.745 24-24 24v0h-136v114.4c55.165 11.556 96 59.797 96 117.576 0 66.274-53.726 120-120 120s-120-53.726-120-120c0-57.779 40.835-106.020 95.219-117.438l0.781-0.137v-114.4h-136c-13.255 0-24-10.745-24-24s10.745-24 24-24v0h136v-300.32c-33.695 37.112-82.129 60.32-135.984 60.32-0.006 0-0.011 0-0.017 0h0.001c-92.784 0-168 75.216-168 168v0c0 13.255-10.745 24-24 24s-24-10.745-24-24v0c0.137-119.239 96.762-215.864 215.987-216h0.013c75.111 0 136-60.889 136-136v0c0-13.255 10.745-24 24-24s24 10.745 24 24v0c0 75.111 60.889 136 136 136v0c119.239 0.137 215.864 96.762 216 215.987v0.013c0 13.255-10.745 24-24 24v0zM440 736c0 39.765 32.235 72 72 72s72-32.235 72-72c0-39.765-32.235-72-72-72v0c-39.765 0-72 32.235-72 72v0z" />
<glyph unicode="&#xe918;" glyph-name="anchor-simple-light" data-tags="anchor-simple-light" d="M896 504h-96c-13.255 0-24-10.745-24-24s10.745-24 24-24v0h71.2c-12.652-179.791-155.401-322.511-334.061-335.056l-1.139-0.064v465.52c55.165 11.556 96 59.797 96 117.576 0 66.274-53.726 120-120 120s-120-53.726-120-120c0-57.779 40.835-106.020 95.219-117.438l0.781-0.137v-465.52c-179.799 12.609-322.548 155.329-335.135 333.977l-0.065 1.143h71.2c13.255 0 24 10.745 24 24s-10.745 24-24 24v0h-96c-13.255 0-24-10.745-24-24v0c0-225.332 182.668-408 408-408s408 182.668 408 408v0c0 13.255-10.745 24-24 24v0zM440 704c0 39.765 32.235 72 72 72s72-32.235 72-72c0-39.765-32.235-72-72-72v0c-39.765 0-72 32.235-72 72v0z" />
<glyph unicode="&#xe919;" glyph-name="android-logo-light" data-tags="android-logo-light" d="M696 336c0-22.091-17.909-40-40-40s-40 17.909-40 40c0 22.091 17.909 40 40 40v0c22.091 0 40-17.909 40-40v0zM368 376c-22.091 0-40-17.909-40-40s17.909-40 40-40c22.091 0 40 17.909 40 40v0c0 22.091-17.909 40-40 40v0zM952 288v-96c0-30.928-25.072-56-56-56v0h-768c-30.928 0-56 25.072-56 56v0 91.48c0 0.108 0 0.236 0 0.364 0 130.175 55.8 247.318 144.786 328.814l0.334 0.302-106.080 106.080c-4.706 4.393-7.639 10.634-7.639 17.559 0 13.255 10.745 24 24 24 6.925 0 13.165-2.933 17.546-7.625l0.013-0.014 109.48-109.44c70.706 52.502 159.625 84.16 255.923 84.48h1.637c0.357 0.001 0.779 0.002 1.202 0.002 96.662 0 185.988-31.407 258.332-84.572l-1.213 0.851 108.72 108.68c4.274 3.991 10.032 6.441 16.361 6.441 13.255 0 24-10.745 24-24 0-6.33-2.45-12.087-6.454-16.375l0.013 0.014-105.24-105.24c5.040-4.6 10-9.28 14.88-14.12 79.922-79.243 129.402-189.080 129.402-310.473 0-0.424-0.001-0.849-0.002-1.273v0.066zM904 288c0 216.496-175.504 392-392 392v0h-1.4c-215.36-0.76-390.6-178.64-390.6-396.52v-91.48c0-4.418 3.582-8 8-8v0h768c4.418 0 8 3.582 8 8v0z" />
<glyph unicode="&#xe91a;" glyph-name="angular-logo-light" data-tags="angular-logo-light" d="M905.24 694.16l-384 160c-2.731 1.157-5.907 1.83-9.24 1.83s-6.509-0.673-9.399-1.89l0.159 0.060-384-160c-8.747-3.713-14.77-12.23-14.77-22.154 0-1.116 0.076-2.215 0.224-3.291l-0.014 0.125 64-480c1.1-8.064 6.068-14.767 12.943-18.257l0.137-0.063 320-160c3.124-1.593 6.813-2.527 10.72-2.527s7.596 0.934 10.857 2.59l-0.137-0.063 320 160c7.012 3.553 11.98 10.256 13.066 18.195l0.014 0.125 64 480c0.134 0.951 0.21 2.050 0.21 3.166 0 9.924-6.023 18.441-14.613 22.095l-0.157 0.059zM809.88 207.76l-297.88-148.92-297.88 148.92-60 449.16 357.88 149.080 357.76-149.080zM491 619.76l-160-288c-1.894-3.355-3.010-7.367-3.010-11.64 0-13.26 10.75-24.010 24.010-24.010 8.988 0 16.822 4.938 20.938 12.25l0.062 0.12 46.44 83.52h185.12l46.44-83.64c4.177-7.426 12.006-12.36 20.988-12.36 0.004 0 0.008 0 0.012 0h-0.001c0.010 0 0.022 0 0.034 0 4.251 0 8.239 1.128 11.68 3.101l-0.115-0.061c7.424 4.177 12.357 12.006 12.357 20.987 0 4.262-1.111 8.265-3.059 11.734l0.062-0.121-160 288c-4.174 7.438-12.010 12.381-21 12.381s-16.826-4.943-20.938-12.26l-0.062-0.121zM577.88 440h-131.76l65.88 118.6z" />
<glyph unicode="&#xe91b;" glyph-name="aperture-light" data-tags="aperture-light" d="M800.48 736.48c-73.592 72.442-174.648 117.17-286.151 117.17-225.332 0-408-182.668-408-408 0-111.493 44.721-212.541 117.203-286.184l-0.052 0.053c74.060-75.247 177.010-121.87 290.849-121.87 225.332 0 408 182.668 408 408 0 113.829-46.615 216.771-121.796 290.777l-0.053 0.052zM392.48 469.8l78.6 92.56 119.44-21.84 40.84-114.32-78.6-92.56-119.44 21.84zM839.72 597.24c20.329-43.764 32.188-94.997 32.188-148.999 0-60.457-14.863-117.443-41.135-167.502l0.947 1.981-224.56 40.96zM815.080 642.36l-147.76-173.92-120.68 337.88c86.566-8.327 162.946-46.407 219.985-103.745l0.015-0.015c17.794-17.858 33.759-37.561 47.579-58.789l0.861-1.411zM257.44 702.36c61.135 61.553 144.488 100.971 237.017 105.211l0.783 0.029 76.76-214.88-353 64.44c12.124 16.844 24.741 31.669 38.447 45.407l-0.007-0.007zM192 613.28l224.56-40.96-232.28-273.56c-20.329 43.764-32.188 94.997-32.188 148.999 0 60.457 14.863 117.443 41.135 167.502l-0.947-1.981zM208.84 253.64l147.76 173.92 120.68-337.88c-86.566 8.327-162.946 46.407-219.985 103.745l-0.015 0.015c-17.762 17.857-33.702 37.559-47.497 58.784l-0.863 1.416zM766.48 193.64c-61.149-61.495-144.509-100.849-237.031-105.012l-0.769-0.028-76.68 214.68 352.96-64.44c-12.114-16.846-24.718-31.671-38.41-45.41l0.010 0.010z" />
<glyph unicode="&#xe91c;" glyph-name="apple-logo-light" data-tags="apple-logo-light" d="M877.6 288.64c-70.76 48.6-85.6 130.88-85.6 191.36 0 73.68 55.44 137.16 88.48 168.48 4.618 4.383 7.491 10.566 7.491 17.42s-2.873 13.037-7.481 17.41l-0.011 0.010c-48.48 45.88-132.2 76.68-208.48 76.68-59.872-0.058-115.347-18.837-160.899-50.798l0.899 0.598c-44.447 31.39-99.747 50.173-159.434 50.173-77.35 0-147.333-31.545-197.785-82.472l-0.021-0.021c-51.242-52.34-82.862-124.065-82.862-203.175 0-2.709 0.037-5.41 0.111-8.102l-0.009 0.397c3.41-139.538 63.422-264.423 157.853-353.072l0.267-0.248c27.049-25.565 63.64-41.28 103.902-41.28 0.133 0 0.266 0 0.398 0.001h350.779c0.15-0.001 0.327-0.001 0.505-0.001 43.451 0 82.624 18.314 110.222 47.643l0.072 0.078c26.366 28.276 49.629 60.028 68.886 94.331l1.274 2.469c26.2 48 23.080 55 20 61.92-1.909 4.203-4.837 7.657-8.477 10.146l-0.083 0.054zM760.68 152.64c-18.891-20.112-45.655-32.64-75.344-32.64-0.048 0-0.095 0-0.143 0h-350.793c-0.155-0.001-0.339-0.001-0.523-0.001-27.399 0-52.309 10.657-70.811 28.051l0.054-0.050c-85.771 80.501-140.105 193.623-143.11 319.456l-0.010 0.544c-0.060 2.016-0.095 4.387-0.095 6.767 0 65.879 26.303 125.615 68.979 169.279l-0.045-0.046c41.266 41.985 98.661 68.002 162.132 68.002 0.362 0 0.723-0.001 1.084-0.003h3.184c53.942-0.551 103.323-19.635 142.186-51.174l-0.426 0.334c4.070-3.28 9.303-5.265 15-5.265s10.93 1.985 15.046 5.301l-0.046-0.036c39.030 31.667 89.313 50.842 144.075 50.842 0.325 0 0.65-0.001 0.975-0.002h-0.050c55.56 0 115.24-18.72 156.44-48-37.76-40.56-84.4-106.36-84.4-184 0-95.12 31.24-170.4 90.64-219.080-20.101-41.616-44.834-77.371-74.217-108.714l0.217 0.234zM520.68 838.2c17.549 65.979 76.751 113.8 147.122 113.8 0.070 0 0.139 0 0.209 0h3.989c13.255 0 24-10.745 24-24s-10.745-24-24-24v0h-4c-0.007 0-0.015 0-0.022 0-48.198 0-88.738-32.787-100.534-77.274l-0.164-0.726c-2.76-10.435-12.116-18.002-23.24-18.002-13.256 0-24.002 10.746-24.002 24.002 0 2.132 0.278 4.199 0.8 6.167l-0.038-0.167z" />
<glyph unicode="&#xe91d;" glyph-name="apple-podcasts-logo-light" data-tags="apple-podcasts-logo-light" d="M604 403.2c17.344 20.666 27.88 47.553 27.88 76.902 0 66.274-53.726 120-120 120s-120-53.726-120-120c0-29.349 10.536-56.236 28.032-77.087l-0.152 0.186c-16.831-5.851-30.891-16.093-41.252-29.364l-0.148-0.196c-11.523-14.586-18.483-33.239-18.483-53.518 0-7.662 0.994-15.091 2.859-22.167l-0.135 0.604 48.72-192c10.179-38.579 44.76-66.562 85.877-66.562 0.198 0 0.395 0.001 0.593 0.002h28.45c0.131-0.001 0.287-0.001 0.443-0.001 41.117 0 75.698 27.983 85.738 65.943l0.139 0.618 48.72 192c1.73 6.471 2.723 13.901 2.723 21.562 0 20.279-6.961 38.932-18.623 53.701l0.139-0.183c-10.538 13.484-24.642 23.729-40.898 29.372l-0.622 0.188zM512 552c39.765 0 72-32.235 72-72s-32.235-72-72-72c-39.765 0-72 32.235-72 72v0c0 39.765 32.235 72 72 72v0zM614.76 310.4l-48.72-192c-4.746-17.635-20.593-30.402-39.422-30.402-0.133 0-0.266 0.001-0.398 0.002h-28.46c-0.172-0.003-0.374-0.004-0.578-0.004-18.83 0-34.677 12.768-39.357 30.119l-0.066 0.285-48.72 192c-0.772 2.9-1.216 6.229-1.216 9.662 0 9.133 3.139 17.533 8.398 24.179l-0.062-0.082c7.57 9.771 19.306 16 32.496 16 0.050 0 0.101 0 0.151 0h125.992c0.043 0 0.093 0 0.144 0 13.191 0 24.927-6.229 32.427-15.907l0.070-0.094c5.289-6.598 8.487-15.070 8.487-24.289 0-3.363-0.426-6.627-1.226-9.741l0.059 0.27zM744 448c-0.104 128.052-103.934 231.818-232 231.818-128.13 0-232-103.87-232-232 0-20.545 2.671-40.466 7.683-59.435l-0.363 1.618c0.484-1.801 0.762-3.868 0.762-6 0-13.256-10.746-24.002-24.002-24.002-11.124 0-20.48 7.567-23.202 17.835l-0.038 0.167c-5.615 20.948-8.84 44.998-8.84 69.802 0 154.64 125.36 280 280 280s280-125.36 280-280c0-24.803-3.225-48.853-9.279-71.754l0.439 1.952c-2.753-10.409-12.069-17.963-23.156-18h-0.004c-0.013 0-0.028 0-0.044 0-2.117 0-4.169 0.277-6.122 0.798l0.166-0.038c-10.454 2.746-18.040 12.111-18.040 23.248 0 2.129 0.277 4.194 0.798 6.159l-0.038-0.167c4.624 17.284 7.28 37.128 7.28 57.593 0 0.143 0 0.286 0 0.429v-0.022zM920 448c0-0.098 0-0.214 0-0.33 0-141.193-71.805-265.616-180.89-338.742l-1.47-0.928c-3.739-2.518-8.344-4.019-13.3-4.019-13.265 0-24.019 10.753-24.019 24.019 0 8.309 4.219 15.633 10.633 19.946l0.086 0.054c97.586 65.43 160.96 175.3 160.96 299.972 0 198.823-161.177 360-360 360s-360-161.177-360-360c0-124.672 63.374-234.542 159.664-299.153l1.296-0.819c6.499-4.367 10.719-11.691 10.719-20 0-13.265-10.753-24.019-24.019-24.019-4.956 0-9.561 1.501-13.386 4.073l0.086-0.054c-110.563 74.159-182.36 198.659-182.36 339.927 0 225.332 182.668 408 408 408 225.307 0 407.959-182.626 408-407.923v-0.004z" />
<glyph unicode="&#xe91e;" glyph-name="app-store-logo-light" data-tags="app-store-logo-light" d="M250.48 179.8l-37.8-64c-4.364-6.489-11.68-10.702-19.979-10.702-13.255 0-24 10.745-24 24 0 3.979 0.968 7.731 2.682 11.035l-0.063-0.134 37.84 64c4.187 7.387 11.996 12.29 20.95 12.29 13.255 0 24-10.745 24-24 0-4.701-1.352-9.087-3.688-12.789l0.058 0.099zM928 344h-195.76l-125.24 212c-4.255 7.103-11.911 11.783-20.66 11.783-13.257 0-24.003-10.747-24.003-24.003 0-4.508 1.243-8.725 3.404-12.329l-0.061 0.109 245.64-415.72c4.254-7.118 11.919-11.81 20.68-11.81 13.261 0 24.010 10.75 24.010 24.010 0 4.499-1.238 8.71-3.391 12.309l0.061-0.109-92 155.8h167.32c13.255 0 24 10.745 24 24s-10.745 24-24 24v0zM569.88 344h-222.36l281.16 475.8c1.651 3.17 2.619 6.923 2.619 10.902 0 13.255-10.745 24-24 24-8.299 0-15.615-4.212-19.924-10.616l-0.054-0.086-75.32-127.28-75.32 127.28c-4.254 7.118-11.919 11.81-20.68 11.81-13.261 0-24.010-10.75-24.010-24.010 0-4.499 1.238-8.71 3.391-12.309l-0.061 0.109 88.68-150.080-192.24-325.52h-195.76c-13.255 0-24-10.745-24-24s10.745-24 24-24v0h473.88c13.255 0 24 10.745 24 24s-10.745 24-24 24v0z" />
<glyph unicode="&#xe91f;" glyph-name="app-window-light" data-tags="app-window-light" d="M864 792h-704c-30.928 0-56-25.072-56-56v0-576c0-30.928 25.072-56 56-56v0h704c30.928 0 56 25.072 56 56v0 576c0 30.928-25.072 56-56 56v0zM872 160c0-4.418-3.582-8-8-8v0h-704c-4.418 0-8 3.582-8 8v0 576c0 4.418 3.582 8 8 8v0h704c4.418 0 8-3.582 8-8v0zM312 624c0-22.091-17.909-40-40-40s-40 17.909-40 40c0 22.091 17.909 40 40 40v0c22.091 0 40-17.909 40-40v0zM472 624c0-22.091-17.909-40-40-40s-40 17.909-40 40c0 22.091 17.909 40 40 40v0c22.091 0 40-17.909 40-40v0z" />
<glyph unicode="&#xe920;" glyph-name="archive-box-light" data-tags="archive-box-light" d="M885.48 682.72l-64 128c-4.026 7.936-12.125 13.28-21.473 13.28-0.003 0-0.005 0-0.008 0h-576c-0.002 0-0.005 0-0.007 0-9.348 0-17.447-5.344-21.41-13.143l-0.063-0.137-64-128c-1.582-3.126-2.511-6.813-2.52-10.717v-544.003c0-30.928 25.072-56 56-56v0h640c30.928 0 56 25.072 56 56v0 544c-0.009 3.907-0.938 7.594-2.584 10.859l0.064-0.139zM238.84 776h546.32l40-80h-626.32zM832 120h-640c-4.418 0-8 3.582-8 8v0 520h656v-520c0-4.418-3.582-8-8-8v0zM656.96 368.96c4.337-4.342 7.019-10.338 7.019-16.96s-2.682-12.618-7.019-16.96v0l-128-128c-4.342-4.337-10.338-7.019-16.96-7.019s-12.618 2.682-16.96 7.019v0l-128 128c-3.991 4.274-6.441 10.032-6.441 16.361 0 13.255 10.745 24 24 24 6.33 0 12.087-2.45 16.375-6.454l-0.014 0.013 87.040-87v262.040c0 13.255 10.745 24 24 24s24-10.745 24-24v0-262.040l87.040 87c4.342 4.337 10.338 7.019 16.96 7.019s12.618-2.682 16.96-7.019v0z" />
<glyph unicode="&#xe921;" glyph-name="archive-light" data-tags="archive-light" d="M896 760h-768c-30.928 0-56-25.072-56-56v0-96c0-30.928 25.072-56 56-56v0h8v-360c0-30.928 25.072-56 56-56v0h640c30.928 0 56 25.072 56 56v0 360h8c30.928 0 56 25.072 56 56v0 96c0 30.928-25.072 56-56 56v0zM840 192c0-4.418-3.582-8-8-8v0h-640c-4.418 0-8 3.582-8 8v0 360h656zM904 608c0-4.418-3.582-8-8-8v0h-768c-4.418 0-8 3.582-8 8v0 96c0 4.418 3.582 8 8 8v0h768c4.418 0 8-3.582 8-8v0zM392 416c0 13.255 10.745 24 24 24v0h192c13.255 0 24-10.745 24-24s-10.745-24-24-24v0h-192c-13.255 0-24 10.745-24 24v0z" />
<glyph unicode="&#xe922;" glyph-name="archive-tray-light" data-tags="archive-tray-light" d="M832 824h-640c-30.928 0-56-25.072-56-56v0-640c0-30.928 25.072-56 56-56v0h640c30.928 0 56 25.072 56 56v0 640c0 30.928-25.072 56-56 56v0zM192 776h640c4.418 0 8-3.582 8-8v0-424h-122.76c-0.031 0-0.067 0-0.103 0-15.432 0-29.399-6.269-39.495-16.399l-77.242-77.242c-1.442-1.45-3.435-2.35-5.638-2.36h-165.522c-0.002 0-0.004 0-0.006 0-2.198 0-4.188 0.886-5.634 2.321l-77.239 77.279c-10.097 10.131-24.065 16.4-39.497 16.4-0.036 0-0.073 0-0.109 0h-122.754v424c0 4.418 3.582 8 8 8v0zM832 120h-640c-4.418 0-8 3.582-8 8v0 168h122.76c0.002 0 0.004 0 0.006 0 2.198 0 4.188-0.886 5.634-2.321l77.239-77.279c10.097-10.131 24.065-16.4 39.497-16.4 0.036 0 0.073 0 0.109 0h165.514c0.031 0 0.067 0 0.103 0 15.432 0 29.399 6.269 39.495 16.399l77.242 77.242c1.442 1.45 3.435 2.35 5.638 2.36h122.762v-168c0-4.418-3.582-8-8-8v0zM367.040 463.040c-3.991 4.274-6.441 10.032-6.441 16.361 0 13.255 10.745 24 24 24 6.33 0 12.087-2.45 16.375-6.454l-0.014 0.013 87.040-87v262.040c0 13.255 10.745 24 24 24s24-10.745 24-24v0-262.040l87.040 87c4.274 3.991 10.032 6.441 16.361 6.441 13.255 0 24-10.745 24-24 0-6.33-2.45-12.087-6.454-16.375l0.013 0.014-128-128c-4.342-4.337-10.338-7.019-16.96-7.019s-12.618 2.682-16.96 7.019v0z" />
<glyph unicode="&#xe923;" glyph-name="armchair-light" data-tags="armchair-light" d="M856 598.080v73.92c0 83.947-68.053 152-152 152v0h-384c-83.947 0-152-68.053-152-152v0-73.92c-73.013-11.976-128.042-74.612-128.042-150.1s55.029-138.124 127.161-149.98l0.881-0.12v-137.88c0-30.928 25.072-56 56-56v0h576c30.928 0 56 25.072 56 56v0 137.88c72.715 12.241 127.424 74.732 127.424 150s-54.709 137.759-126.53 149.875l-0.893 0.125zM320 776h384c57.438 0 104-46.562 104-104v0-73.92c-72.946-12.072-127.906-74.644-128-150.070v-8.010h-336v8c-0.094 75.436-55.054 138.008-127.114 149.959l-0.886 0.121v73.92c0 57.438 46.562 104 104 104v0zM833.4 344h-1.4c-13.255 0-24-10.745-24-24v0-160c0-4.418-3.582-8-8-8v0h-576c-4.418 0-8 3.582-8 8v0 160c0 13.255-10.745 24-24 24v0h-1.4c-56.832 0.789-102.6 47.045-102.6 103.991 0 57.438 46.562 104 104 104 57.434 0 103.995-46.557 104-103.99v-160.001c0-13.255 10.745-24 24-24s24 10.745 24 24v0 104h336v-104c0-13.255 10.745-24 24-24s24 10.745 24 24v0 160c0.005 57.434 46.566 103.991 104 103.991 57.438 0 104-46.562 104-104 0-56.945-45.768-103.201-102.526-103.99l-0.074-0.001z" />
<glyph unicode="&#xe924;" glyph-name="arrow-arc-left-light" data-tags="arrow-arc-left-light" d="M920 224c0-13.255-10.745-24-24-24s-24 10.745-24 24v0c0 0.001 0 0.002 0 0.003 0 198.823-161.177 360-360 360-99.412 0-189.412-40.295-254.56-105.443v0l-103.24-102.56h197.8c13.255 0 24-10.745 24-24s-10.745-24-24-24v0h-256c-13.255 0-24 10.745-24 24v0 256c0 13.255 10.745 24 24 24s24-10.745 24-24v0-198.32l103.56 102.88c73.827 73.798 175.803 119.441 288.44 119.441 225.332 0 408-182.668 408-408 0 0 0-0.001 0-0.001v0z" />
<glyph unicode="&#xe925;" glyph-name="arrow-arc-right-light" data-tags="arrow-arc-right-light" d="M952 608v-256c0-13.255-10.745-24-24-24v0h-256c-13.255 0-24 10.745-24 24s10.745 24 24 24v0h197.8l-103.2 102.52c-65.151 65.172-155.168 105.483-254.6 105.483-198.823 0-360-161.177-360-360 0-0.001 0-0.002 0-0.003v0c0-13.255-10.745-24-24-24s-24 10.745-24 24v0c0.022 225.315 182.682 407.961 408 407.961 112.656 0 214.648-45.659 288.48-119.481v0l103.52-102.8v198.32c0 13.255 10.745 24 24 24s24-10.745 24-24v0z" />
<glyph unicode="&#xe926;" glyph-name="arrow-bend-double-up-left-light" data-tags="arrow-bend-double-up-left-light" d="M336.96 368.96c4.706-4.393 7.639-10.634 7.639-17.559 0-13.255-10.745-24-24-24-6.925 0-13.165 2.933-17.546 7.625l-0.013 0.014-192 192c-4.337 4.342-7.019 10.338-7.019 16.96s2.682 12.618 7.019 16.96v0l192 192c4.274 3.991 10.032 6.441 16.361 6.441 13.255 0 24-10.745 24-24 0-6.33-2.45-12.087-6.454-16.375l0.013 0.014-175-175.040zM512 568h-134.040l151 151.040c3.991 4.274 6.441 10.032 6.441 16.361 0 13.255-10.745 24-24 24-6.33 0-12.087-2.45-16.375-6.454l0.014 0.013-192-192c-4.337-4.342-7.019-10.338-7.019-16.96s2.682-12.618 7.019-16.96v0l192-192c4.274-3.991 10.032-6.441 16.361-6.441 13.255 0 24 10.745 24 24 0 6.33-2.45 12.087-6.454 16.375l0.013-0.014-151 151.040h134.040c198.731-0.228 359.773-161.269 360-359.979v-0.021c0-13.255 10.745-24 24-24s24 10.745 24 24v0c-0.273 225.222-182.778 407.727-407.974 408h-0.026z" />
<glyph unicode="&#xe927;" glyph-name="arrow-bend-double-up-right-light" data-tags="arrow-bend-double-up-right-light" d="M912.96 527.040l-192-192c-4.274-3.991-10.032-6.441-16.361-6.441-13.255 0-24 10.745-24 24 0 6.33 2.45 12.087 6.454 16.375l-0.013-0.014 175 175.040-175 175.040c-3.991 4.274-6.441 10.032-6.441 16.361 0 13.255 10.745 24 24 24 6.33 0 12.087-2.45 16.375-6.454l-0.014 0.013 192-192c4.337-4.342 7.019-10.338 7.019-16.96s-2.682-12.618-7.019-16.96v0zM720.96 560.96l-192 192c-4.393 4.706-10.634 7.639-17.559 7.639-13.255 0-24-10.745-24-24 0-6.925 2.933-13.165 7.625-17.546l0.014-0.013 151-151.040h-134.040c-225.222-0.273-407.727-182.778-408-407.974v-0.026c0-13.255 10.745-24 24-24s24 10.745 24 24v0c0.228 198.731 161.269 359.773 359.979 360h134.061l-151-151.040c-4.706-4.393-7.639-10.634-7.639-17.559 0-13.255 10.745-24 24-24 6.925 0 13.165 2.933 17.546 7.625l0.013 0.014 192 192c4.337 4.342 7.019 10.338 7.019 16.96s-2.682 12.618-7.019 16.96v0z" />
<glyph unicode="&#xe928;" glyph-name="arrow-bend-down-left-light" data-tags="arrow-bend-down-left-light" d="M920 736c-0.273-225.222-182.778-407.727-407.974-408h-326.066l151-151.040c4.706-4.393 7.639-10.634 7.639-17.559 0-13.255-10.745-24-24-24-6.925 0-13.165 2.933-17.546 7.625l-0.013 0.014-192 192c-4.337 4.342-7.019 10.338-7.019 16.96s2.682 12.618 7.019 16.96v0l192 192c4.274 3.991 10.032 6.441 16.361 6.441 13.255 0 24-10.745 24-24 0-6.33-2.45-12.087-6.454-16.375l0.013 0.014-151-151.040h326.040c198.731 0.228 359.773 161.269 360 359.979v0.021c0 13.255 10.745 24 24 24s24-10.745 24-24v0z" />
<glyph unicode="&#xe929;" glyph-name="arrow-bend-down-right-light" data-tags="arrow-bend-down-right-light" d="M912.96 335.040l-192-192c-4.274-3.991-10.032-6.441-16.361-6.441-13.255 0-24 10.745-24 24 0 6.33 2.45 12.087 6.454 16.375l-0.013-0.014 151 151.040h-326.040c-225.222 0.273-407.727 182.778-408 407.974v0.026c0 13.255 10.745 24 24 24s24-10.745 24-24v0c0.228-198.731 161.269-359.773 359.979-360h326.061l-151 151.040c-3.991 4.274-6.441 10.032-6.441 16.361 0 13.255 10.745 24 24 24 6.33 0 12.087-2.45 16.375-6.454l-0.014 0.013 192-192c4.337-4.342 7.019-10.338 7.019-16.96s-2.682-12.618-7.019-16.96v0z" />
<glyph unicode="&#xe92a;" glyph-name="arrow-bend-left-down-light" data-tags="arrow-bend-left-down-light" d="M824 832c0-13.255-10.745-24-24-24v0c-198.731-0.228-359.773-161.269-360-359.979v-326.061l151.040 151c4.274 3.991 10.032 6.441 16.361 6.441 13.255 0 24-10.745 24-24 0-6.33-2.45-12.087-6.454-16.375l0.013 0.014-192-192c-4.342-4.337-10.338-7.019-16.96-7.019s-12.618 2.682-16.96 7.019v0l-192 192c-3.991 4.274-6.441 10.032-6.441 16.361 0 13.255 10.745 24 24 24 6.33 0 12.087-2.45 16.375-6.454l-0.014 0.013 151.040-151v326.040c0.273 225.222 182.778 407.727 407.974 408h0.026c13.255 0 24-10.745 24-24v0z" />
<glyph unicode="&#xe92b;" glyph-name="arrow-bend-left-up-light" data-tags="arrow-bend-left-up-light" d="M824 64c0-13.255-10.745-24-24-24v0c-225.222 0.273-407.727 182.778-408 407.974v326.066l-151.040-151c-4.274-3.991-10.032-6.441-16.361-6.441-13.255 0-24 10.745-24 24 0 6.33 2.45 12.087 6.454 16.375l-0.013-0.014 192 192c4.342 4.337 10.338 7.019 16.96 7.019s12.618-2.682 16.96-7.019v0l192-192c4.706-4.393 7.639-10.634 7.639-17.559 0-13.255-10.745-24-24-24-6.925 0-13.165 2.933-17.546 7.625l-0.013 0.014-151.040 151v-326.040c0.228-198.731 161.269-359.773 359.979-360h0.021c13.255 0 24-10.745 24-24v0z" />
<glyph unicode="&#xe92c;" glyph-name="arrow-bend-right-down-light" data-tags="arrow-bend-right-down-light" d="M816.96 239.040l-192-192c-4.342-4.337-10.338-7.019-16.96-7.019s-12.618 2.682-16.96 7.019v0l-192 192c-3.991 4.274-6.441 10.032-6.441 16.361 0 13.255 10.745 24 24 24 6.33 0 12.087-2.45 16.375-6.454l-0.014 0.013 151.040-151v326.040c-0.228 198.731-161.269 359.773-359.979 360h-0.021c-13.255 0-24 10.745-24 24s10.745 24 24 24v0c225.222-0.273 407.727-182.778 408-407.974v-326.066l151.040 151c4.274 3.991 10.032 6.441 16.361 6.441 13.255 0 24-10.745 24-24 0-6.33-2.45-12.087-6.454-16.375l0.013 0.014z" />
<glyph unicode="&#xe92d;" glyph-name="arrow-bend-right-up-light" data-tags="arrow-bend-right-up-light" d="M816.96 623.040c-4.342-4.337-10.338-7.019-16.96-7.019s-12.618 2.682-16.96 7.019v0l-151.040 151v-326.040c-0.273-225.222-182.778-407.727-407.974-408h-0.026c-13.255 0-24 10.745-24 24s10.745 24 24 24v0c198.731 0.228 359.773 161.269 360 359.979v326.061l-151.040-151c-4.274-3.991-10.032-6.441-16.361-6.441-13.255 0-24 10.745-24 24 0 6.33 2.45 12.087 6.454 16.375l-0.013-0.014 192 192c4.342 4.337 10.338 7.019 16.96 7.019s12.618-2.682 16.96-7.019v0l192-192c4.337-4.342 7.019-10.338 7.019-16.96s-2.682-12.618-7.019-16.96v0z" />
<glyph unicode="&#xe92e;" glyph-name="arrow-bend-up-left-light" data-tags="arrow-bend-up-left-light" d="M920 160c0-13.255-10.745-24-24-24s-24 10.745-24 24v0c-0.228 198.731-161.269 359.773-359.979 360h-326.061l151-151.040c4.706-4.393 7.639-10.634 7.639-17.559 0-13.255-10.745-24-24-24-6.925 0-13.165 2.933-17.546 7.625l-0.013 0.014-192 192c-4.337 4.342-7.019 10.338-7.019 16.96s2.682 12.618 7.019 16.96v0l192 192c4.274 3.991 10.032 6.441 16.361 6.441 13.255 0 24-10.745 24-24 0-6.33-2.45-12.087-6.454-16.375l0.013 0.014-151-151.040h326.040c225.222-0.273 407.727-182.778 408-407.974v-0.026z" />
<glyph unicode="&#xe92f;" glyph-name="arrow-bend-up-right-light" data-tags="arrow-bend-up-right-light" d="M912.96 527.040l-192-192c-4.274-3.991-10.032-6.441-16.361-6.441-13.255 0-24 10.745-24 24 0 6.33 2.45 12.087 6.454 16.375l-0.013-0.014 151 151.040h-326.040c-198.731-0.228-359.773-161.269-360-359.979v-0.021c0-13.255-10.745-24-24-24s-24 10.745-24 24v0c0.273 225.222 182.778 407.727 407.974 408h326.066l-151 151.040c-3.991 4.274-6.441 10.032-6.441 16.361 0 13.255 10.745 24 24 24 6.33 0 12.087-2.45 16.375-6.454l-0.014 0.013 192-192c4.337-4.342 7.019-10.338 7.019-16.96s-2.682-12.618-7.019-16.96v0z" />
<glyph unicode="&#xe930;" glyph-name="arrow-circle-down-left-light" data-tags="arrow-circle-down-left-light" d="M512 856c-225.332 0-408-182.668-408-408s182.668-408 408-408c225.332 0 408 182.668 408 408v0c-0.273 225.222-182.778 407.727-407.974 408h-0.026zM512 88c-198.823 0-360 161.177-360 360s161.177 360 360 360c198.823 0 360-161.177 360-360v0c-0.228-198.731-161.269-359.773-359.979-360h-0.021zM656.96 592.96c4.337-4.342 7.019-10.338 7.019-16.96s-2.682-12.618-7.019-16.96v0l-215-215.040h134.040c13.255 0 24-10.745 24-24s-10.745-24-24-24v0h-192c-13.255 0-24 10.745-24 24v0 192c0 13.255 10.745 24 24 24s24-10.745 24-24v0-134.040l215.040 215c4.342 4.337 10.338 7.019 16.96 7.019s12.618-2.682 16.96-7.019v0z" />
<glyph unicode="&#xe931;" glyph-name="arrow-circle-down-light" data-tags="arrow-circle-down-light" d="M512 856c-225.332 0-408-182.668-408-408s182.668-408 408-408c225.332 0 408 182.668 408 408v0c-0.273 225.222-182.778 407.727-407.974 408h-0.026zM512 88c-198.823 0-360 161.177-360 360s161.177 360 360 360c198.823 0 360-161.177 360-360v0c-0.228-198.731-161.269-359.773-359.979-360h-0.021zM656.96 432.96c4.337-4.342 7.019-10.338 7.019-16.96s-2.682-12.618-7.019-16.96v0l-128-128c-4.342-4.337-10.338-7.019-16.96-7.019s-12.618 2.682-16.96 7.019v0l-128 128c-3.991 4.274-6.441 10.032-6.441 16.361 0 13.255 10.745 24 24 24 6.33 0 12.087-2.45 16.375-6.454l-0.014 0.013 87.040-87v262.040c0 13.255 10.745 24 24 24s24-10.745 24-24v0-262.040l87.040 87c4.342 4.337 10.338 7.019 16.96 7.019s12.618-2.682 16.96-7.019v0z" />
<glyph unicode="&#xe932;" glyph-name="arrow-circle-down-right-light" data-tags="arrow-circle-down-right-light" d="M512 856c-225.332 0-408-182.668-408-408s182.668-408 408-408c225.332 0 408 182.668 408 408v0c-0.273 225.222-182.778 407.727-407.974 408h-0.026zM512 88c-198.823 0-360 161.177-360 360s161.177 360 360 360c198.823 0 360-161.177 360-360v0c-0.228-198.731-161.269-359.773-359.979-360h-0.021zM664 512v-192c0-13.255-10.745-24-24-24v0h-192c-13.255 0-24 10.745-24 24s10.745 24 24 24v0h134.040l-215 215.040c-3.991 4.274-6.441 10.032-6.441 16.361 0 13.255 10.745 24 24 24 6.33 0 12.087-2.45 16.375-6.454l-0.014 0.013 215.040-215v134.040c0 13.255 10.745 24 24 24s24-10.745 24-24v0z" />
<glyph unicode="&#xe933;" glyph-name="arrow-circle-left-light" data-tags="arrow-circle-left-light" d="M512 856c-225.332 0-408-182.668-408-408s182.668-408 408-408c225.332 0 408 182.668 408 408v0c-0.273 225.222-182.778 407.727-407.974 408h-0.026zM512 88c-198.823 0-360 161.177-360 360s161.177 360 360 360c198.823 0 360-161.177 360-360v0c-0.228-198.731-161.269-359.773-359.979-360h-0.021zM696 448c0-13.255-10.745-24-24-24v0h-262.040l87-87.040c4.706-4.393 7.639-10.634 7.639-17.559 0-13.255-10.745-24-24-24-6.925 0-13.165 2.933-17.546 7.625l-0.013 0.014-128 128c-4.337 4.342-7.019 10.338-7.019 16.96s2.682 12.618 7.019 16.96v0l128 128c4.274 3.991 10.032 6.441 16.361 6.441 13.255 0 24-10.745 24-24 0-6.33-2.45-12.087-6.454-16.375l0.013 0.014-87-87.040h262.040c13.255 0 24-10.745 24-24v0z" />
<glyph unicode="&#xe934;" glyph-name="arrow-circle-right-light" data-tags="arrow-circle-right-light" d="M512 856c-225.332 0-408-182.668-408-408s182.668-408 408-408c225.332 0 408 182.668 408 408v0c-0.273 225.222-182.778 407.727-407.974 408h-0.026zM512 88c-198.823 0-360 161.177-360 360s161.177 360 360 360c198.823 0 360-161.177 360-360v0c-0.228-198.731-161.269-359.773-359.979-360h-0.021zM688.96 464.96c4.337-4.342 7.019-10.338 7.019-16.96s-2.682-12.618-7.019-16.96v0l-128-128c-4.274-3.991-10.032-6.441-16.361-6.441-13.255 0-24 10.745-24 24 0 6.33 2.45 12.087 6.454 16.375l-0.013-0.014 87 87.040h-262.040c-13.255 0-24 10.745-24 24s10.745 24 24 24v0h262.040l-87 87.040c-3.991 4.274-6.441 10.032-6.441 16.361 0 13.255 10.745 24 24 24 6.33 0 12.087-2.45 16.375-6.454l-0.014 0.013z" />
<glyph unicode="&#xe935;" glyph-name="arrow-circle-up-left-light" data-tags="arrow-circle-up-left-light" d="M512 856c-225.332 0-408-182.668-408-408s182.668-408 408-408c225.332 0 408 182.668 408 408v0c-0.273 225.222-182.778 407.727-407.974 408h-0.026zM512 88c-198.823 0-360 161.177-360 360s161.177 360 360 360c198.823 0 360-161.177 360-360v0c-0.228-198.731-161.269-359.773-359.979-360h-0.021zM656.96 336.96c4.706-4.393 7.639-10.634 7.639-17.559 0-13.255-10.745-24-24-24-6.925 0-13.165 2.933-17.546 7.625l-0.013 0.014-215.040 215v-134.040c0-13.255-10.745-24-24-24s-24 10.745-24 24v0 192c0 13.255 10.745 24 24 24v0h192c13.255 0 24-10.745 24-24s-10.745-24-24-24v0h-134.040z" />
<glyph unicode="&#xe936;" glyph-name="arrow-circle-up-light" data-tags="arrow-circle-up-light" d="M512 856c-225.332 0-408-182.668-408-408s182.668-408 408-408c225.332 0 408 182.668 408 408v0c-0.273 225.222-182.778 407.727-407.974 408h-0.026zM512 88c-198.823 0-360 161.177-360 360s161.177 360 360 360c198.823 0 360-161.177 360-360v0c-0.228-198.731-161.269-359.773-359.979-360h-0.021zM656.96 496.96c4.706-4.393 7.639-10.634 7.639-17.559 0-13.255-10.745-24-24-24-6.925 0-13.165 2.933-17.546 7.625l-0.013 0.014-87.040 87v-262.040c0-13.255-10.745-24-24-24s-24 10.745-24 24v0 262.040l-87.040-87c-4.274-3.991-10.032-6.441-16.361-6.441-13.255 0-24 10.745-24 24 0 6.33 2.45 12.087 6.454 16.375l-0.013-0.014 128 128c4.342 4.337 10.338 7.019 16.96 7.019s12.618-2.682 16.96-7.019v0z" />
<glyph unicode="&#xe937;" glyph-name="arrow-circle-up-right-light" data-tags="arrow-circle-up-right-light" d="M512 856c-225.332 0-408-182.668-408-408s182.668-408 408-408c225.332 0 408 182.668 408 408v0c-0.273 225.222-182.778 407.727-407.974 408h-0.026zM512 88c-198.823 0-360 161.177-360 360s161.177 360 360 360c198.823 0 360-161.177 360-360v0c-0.228-198.731-161.269-359.773-359.979-360h-0.021zM664 576v-192c0-13.255-10.745-24-24-24s-24 10.745-24 24v0 134.040l-215.040-215c-4.274-3.991-10.032-6.441-16.361-6.441-13.255 0-24 10.745-24 24 0 6.33 2.45 12.087 6.454 16.375l-0.013-0.014 215 215.040h-134.040c-13.255 0-24 10.745-24 24s10.745 24 24 24v0h192c13.255 0 24-10.745 24-24v0z" />
<glyph unicode="&#xe938;" glyph-name="arrow-clockwise-light" data-tags="arrow-clockwise-light" d="M952 736v-192c0-13.255-10.745-24-24-24v0h-192c-13.255 0-24 10.745-24 24s10.745 24 24 24v0h130.2l-121.52 111.2c-0.24 0.24-0.48 0.52-0.76 0.76-59.349 59.316-141.322 96.001-231.863 96.001-181.149 0-328-146.851-328-328s146.851-328 328-328c87.208 0 166.468 34.034 225.22 89.545l-0.156-0.147c4.29 4.056 10.094 6.549 16.48 6.549 13.26 0 24.009-10.749 24.009-24.009 0-6.874-2.888-13.073-7.518-17.449l-0.011-0.011c-66.855-63.431-157.42-102.441-257.097-102.441-0.345 0-0.691 0-1.036 0.001h-5.066c-205.37 2.984-370.706 170.165-370.706 375.963 0 207.659 168.341 376 376 376 103.548 0 197.32-41.858 265.319-109.575l-0.013 0.013 126.52-115.8v137.4c0 13.255 10.745 24 24 24s24-10.745 24-24v0z" />
<glyph unicode="&#xe939;" glyph-name="arrow-counter-clockwise-light" data-tags="arrow-counter-clockwise-light" d="M888 448c0-0.010 0-0.022 0-0.034 0-205.887-165.48-373.124-370.693-375.963l-0.267-0.003h-5.040c-0.232-0.001-0.507-0.001-0.782-0.001-99.743 0-190.36 39.075-257.378 102.752l0.16-0.151c-4.853 4.408-7.888 10.743-7.888 17.788 0 13.255 10.745 24 24 24 6.567 0 12.517-2.637 16.851-6.91l-0.003 0.003c58.59-55.341 137.833-89.36 225.022-89.36 181.149 0 328 146.851 328 328s-146.851 328-328 328c-90.6 0-172.621-36.733-231.981-96.119l-0.761-0.761-121.48-111.24h130.24c13.255 0 24-10.745 24-24s-10.745-24-24-24v0h-192c-13.255 0-24 10.745-24 24v0 192c0 13.255 10.745 24 24 24s24-10.745 24-24v0-137.36l126.52 115.76c68.003 67.809 161.845 109.736 265.48 109.736 207.659 0 376-168.341 376-376 0-0.048 0-0.096 0-0.143v0.007z" />
<glyph unicode="&#xe93a;" glyph-name="arrow-down-left-light" data-tags="arrow-down-left-light" d="M784.96 687.040l-471.040-471.040h358.080c13.255 0 24-10.745 24-24s-10.745-24-24-24v0h-416c-13.255 0-24 10.745-24 24v0 416c0 13.255 10.745 24 24 24s24-10.745 24-24v0-358.080l471.040 471.040c4.274 3.991 10.032 6.441 16.361 6.441 13.255 0 24-10.745 24-24 0-6.33-2.45-12.087-6.454-16.375l0.013 0.014z" />
<glyph unicode="&#xe93b;" glyph-name="arrow-down-light" data-tags="arrow-down-light" d="M816.96 367.040l-288-288c-4.342-4.337-10.338-7.019-16.96-7.019s-12.618 2.682-16.96 7.019v0l-288 288c-3.991 4.274-6.441 10.032-6.441 16.361 0 13.255 10.745 24 24 24 6.33 0 12.087-2.45 16.375-6.454l-0.014 0.013 247.040-247v646.040c0 13.255 10.745 24 24 24s24-10.745 24-24v0-646.040l247.040 247c4.274 3.991 10.032 6.441 16.361 6.441 13.255 0 24-10.745 24-24 0-6.33-2.45-12.087-6.454-16.375l0.013 0.014z" />
<glyph unicode="&#xe93c;" glyph-name="arrow-down-right-light" data-tags="arrow-down-right-light" d="M792 608v-416c0-13.255-10.745-24-24-24v0h-416c-13.255 0-24 10.745-24 24s10.745 24 24 24v0h358.080l-471.040 471.040c-3.991 4.274-6.441 10.032-6.441 16.361 0 13.255 10.745 24 24 24 6.33 0 12.087-2.45 16.375-6.454l-0.014 0.013 471.040-471.040v358.080c0 13.255 10.745 24 24 24s24-10.745 24-24v0z" />
<glyph unicode="&#xe93d;" glyph-name="arrow-elbow-down-left-light" data-tags="arrow-elbow-down-left-light" d="M792 832v-576c0-13.255-10.745-24-24-24v0h-518.040l151-151.040c4.706-4.393 7.639-10.634 7.639-17.559 0-13.255-10.745-24-24-24-6.925 0-13.165 2.933-17.546 7.625l-0.013 0.014-192 192c-4.337 4.342-7.019 10.338-7.019 16.96s2.682 12.618 7.019 16.96v0l192 192c4.393 4.706 10.634 7.639 17.559 7.639 13.255 0 24-10.745 24-24 0-6.925-2.933-13.165-7.625-17.546l-0.014-0.013-151-151.040h494.040v552c0 13.255 10.745 24 24 24s24-10.745 24-24v0z" />
<glyph unicode="&#xe93e;" glyph-name="arrow-elbow-down-right-light" data-tags="arrow-elbow-down-right-light" d="M848.96 239.040l-192-192c-4.274-3.991-10.032-6.441-16.361-6.441-13.255 0-24 10.745-24 24 0 6.33 2.45 12.087 6.454 16.375l-0.013-0.014 151 151.040h-518.040c-13.255 0-24 10.745-24 24v0 576c0 13.255 10.745 24 24 24s24-10.745 24-24v0-552h494.040l-151 151.040c-4.706 4.393-7.639 10.634-7.639 17.559 0 13.255 10.745 24 24 24 6.925 0 13.165-2.933 17.546-7.625l0.013-0.014 192-192c4.337-4.342 7.019-10.338 7.019-16.96s-2.682-12.618-7.019-16.96v0z" />
<glyph unicode="&#xe93f;" glyph-name="arrow-elbow-left-down-light" data-tags="arrow-elbow-left-down-light" d="M920 704c0-13.255-10.745-24-24-24v0h-552v-494.040l151.040 151c4.274 3.991 10.032 6.441 16.361 6.441 13.255 0 24-10.745 24-24 0-6.33-2.45-12.087-6.454-16.375l0.013 0.014-192-192c-4.342-4.337-10.338-7.019-16.96-7.019s-12.618 2.682-16.96 7.019v0l-192 192c-3.991 4.274-6.441 10.032-6.441 16.361 0 13.255 10.745 24 24 24 6.33 0 12.087-2.45 16.375-6.454l-0.014 0.013 151.040-151v518.040c0 13.255 10.745 24 24 24v0h576c13.255 0 24-10.745 24-24v0z" />
<glyph unicode="&#xe940;" glyph-name="arrow-elbow-left-light" data-tags="arrow-elbow-left-light" d="M944.96 559.040l-384-384c-4.342-4.337-10.338-7.019-16.96-7.019s-12.618 2.682-16.96 7.019v0l-407.040 407.040v-230.080c0-13.255-10.745-24-24-24s-24 10.745-24 24v0 288c0 13.255 10.745 24 24 24v0h288c13.255 0 24-10.745 24-24s-10.745-24-24-24v0h-230.080l390.080-390.040 367.040 367c4.274 3.991 10.032 6.441 16.361 6.441 13.255 0 24-10.745 24-24 0-6.33-2.45-12.087-6.454-16.375l0.013 0.014z" />
<glyph unicode="&#xe941;" glyph-name="arrow-elbow-left-up-light" data-tags="arrow-elbow-left-up-light" d="M920 192c0-13.255-10.745-24-24-24v0h-576c-13.255 0-24 10.745-24 24v0 518.040l-151.040-151c-4.274-3.991-10.032-6.441-16.361-6.441-13.255 0-24 10.745-24 24 0 6.33 2.45 12.087 6.454 16.375l-0.013-0.014 192 192c4.342 4.337 10.338 7.019 16.96 7.019s12.618-2.682 16.96-7.019v0l192-192c4.706-4.393 7.639-10.634 7.639-17.559 0-13.255-10.745-24-24-24-6.925 0-13.165 2.933-17.546 7.625l-0.013 0.014-151.040 151v-494.040h552c13.255 0 24-10.745 24-24v0z" />
<glyph unicode="&#xe942;" glyph-name="arrow-elbow-right-down-light" data-tags="arrow-elbow-right-down-light" d="M912.96 303.040l-192-192c-4.342-4.337-10.338-7.019-16.96-7.019s-12.618 2.682-16.96 7.019v0l-192 192c-4.706 4.393-7.639 10.634-7.639 17.559 0 13.255 10.745 24 24 24 6.925 0 13.165-2.933 17.546-7.625l0.013-0.014 151.040-151v494.040h-552c-13.255 0-24 10.745-24 24s10.745 24 24 24v0h576c13.255 0 24-10.745 24-24v0-518.040l151.040 151c4.274 3.991 10.032 6.441 16.361 6.441 13.255 0 24-10.745 24-24 0-6.33-2.45-12.087-6.454-16.375l0.013 0.014z" />
<glyph unicode="&#xe943;" glyph-name="arrow-elbow-right-light" data-tags="arrow-elbow-right-light" d="M952 640v-288c0-13.255-10.745-24-24-24s-24 10.745-24 24v0 230.080l-407.040-407.040c-4.342-4.337-10.338-7.019-16.96-7.019s-12.618 2.682-16.96 7.019v0l-384 384c-3.991 4.274-6.441 10.032-6.441 16.361 0 13.255 10.745 24 24 24 6.33 0 12.087-2.45 16.375-6.454l-0.014 0.013 367.040-367 390.080 390.040h-230.080c-13.255 0-24 10.745-24 24s10.745 24 24 24v0h288c13.255 0 24-10.745 24-24v0z" />
<glyph unicode="&#xe944;" glyph-name="arrow-elbow-right-up-light" data-tags="arrow-elbow-right-up-light" d="M912.96 559.040c-4.342-4.337-10.338-7.019-16.96-7.019s-12.618 2.682-16.96 7.019v0l-151.040 151v-518.040c0-13.255-10.745-24-24-24v0h-576c-13.255 0-24 10.745-24 24s10.745 24 24 24v0h552v494.040l-151.040-151c-4.393-4.706-10.634-7.639-17.559-7.639-13.255 0-24 10.745-24 24 0 6.925 2.933 13.165 7.625 17.546l0.014 0.013 192 192c4.342 4.337 10.338 7.019 16.96 7.019s12.618-2.682 16.96-7.019v0l192-192c4.337-4.342 7.019-10.338 7.019-16.96s-2.682-12.618-7.019-16.96v0z" />
<glyph unicode="&#xe945;" glyph-name="arrow-elbow-up-left-light" data-tags="arrow-elbow-up-left-light" d="M792 640v-576c0-13.255-10.745-24-24-24s-24 10.745-24 24v0 552h-494.040l151-151.040c4.706-4.393 7.639-10.634 7.639-17.559 0-13.255-10.745-24-24-24-6.925 0-13.165 2.933-17.546 7.625l-0.013 0.014-192 192c-4.337 4.342-7.019 10.338-7.019 16.96s2.682 12.618 7.019 16.96v0l192 192c4.393 4.706 10.634 7.639 17.559 7.639 13.255 0 24-10.745 24-24 0-6.925-2.933-13.165-7.625-17.546l-0.014-0.013-151-151.040h518.040c13.255 0 24-10.745 24-24v0z" />
<glyph unicode="&#xe946;" glyph-name="arrow-elbow-up-right-light" data-tags="arrow-elbow-up-right-light" d="M848.96 623.040l-192-192c-4.274-3.991-10.032-6.441-16.361-6.441-13.255 0-24 10.745-24 24 0 6.33 2.45 12.087 6.454 16.375l-0.013-0.014 151 151.040h-494.040v-552c0-13.255-10.745-24-24-24s-24 10.745-24 24v0 576c0 13.255 10.745 24 24 24v0h518.040l-151 151.040c-3.991 4.274-6.441 10.032-6.441 16.361 0 13.255 10.745 24 24 24 6.33 0 12.087-2.45 16.375-6.454l-0.014 0.013 192-192c4.337-4.342 7.019-10.338 7.019-16.96s-2.682-12.618-7.019-16.96v0z" />
<glyph unicode="&#xe947;" glyph-name="arrow-fat-down-light" data-tags="arrow-fat-down-light" d="M918.16 425.2c-3.705 8.761-12.227 14.797-22.16 14.8h-168v328c0 30.928-25.072 56-56 56v0h-320c-30.928 0-56-25.072-56-56v0-328h-168c-13.246-0.012-23.979-10.753-23.979-24 0-6.622 2.682-12.618 7.019-16.96v0l384-384c4.342-4.337 10.338-7.019 16.96-7.019s12.618 2.682 16.96 7.019v0l384 384c4.343 4.343 7.029 10.343 7.029 16.97 0 3.316-0.672 6.474-1.888 9.347l0.059-0.157zM512 65.96l-326.040 326.040h134.040c13.255 0 24 10.745 24 24v0 352c0 4.418 3.582 8 8 8v0h320c4.418 0 8-3.582 8-8v0-352c0-13.255 10.745-24 24-24v0h134.040z" />
<glyph unicode="&#xe948;" glyph-name="arrow-fat-left-light" data-tags="arrow-fat-left-light" d="M832 664h-328v168c-0.012 13.246-10.753 23.979-24 23.979-6.622 0-12.618-2.682-16.96-7.019v0l-384-384c-4.337-4.342-7.019-10.338-7.019-16.96s2.682-12.618 7.019-16.96v0l384-384c4.342-4.337 10.338-7.019 16.96-7.019 13.247 0 23.988 10.733 24 23.978v168.001h328c30.928 0 56 25.072 56 56v0 320c0 30.928-25.072 56-56 56v0zM840 288c0-4.418-3.582-8-8-8v0h-352c-13.255 0-24-10.745-24-24v0-134.040l-326.040 326.040 326.040 326.040v-134.040c0-13.255 10.745-24 24-24v0h352c4.418 0 8-3.582 8-8v0z" />
<glyph unicode="&#xe949;" glyph-name="arrow-fat-line-down-light" data-tags="arrow-fat-line-down-light" d="M918.16 425.2c-3.705 8.761-12.227 14.797-22.16 14.8h-168v232c0 13.255-10.745 24-24 24v0h-384c-13.255 0-24-10.745-24-24v0-232h-168c-13.246-0.012-23.979-10.753-23.979-24 0-6.622 2.682-12.618 7.019-16.96v0l384-384c4.342-4.337 10.338-7.019 16.96-7.019s12.618 2.682 16.96 7.019v0l384 384c4.343 4.343 7.029 10.343 7.029 16.97 0 3.316-0.672 6.474-1.888 9.347l0.059-0.157zM512 65.96l-326.040 326.040h134.040c13.255 0 24 10.745 24 24v0 232h336v-232c0-13.255 10.745-24 24-24v0h134.040zM296 800c0 13.255 10.745 24 24 24v0h384c13.255 0 24-10.745 24-24s-10.745-24-24-24v0h-384c-13.255 0-24 10.745-24 24v0z" />
<glyph unicode="&#xe94a;" glyph-name="arrow-fat-line-left-light" data-tags="arrow-fat-line-left-light" d="M736 664h-232v168c-0.012 13.246-10.753 23.979-24 23.979-6.622 0-12.618-2.682-16.96-7.019v0l-384-384c-4.337-4.342-7.019-10.338-7.019-16.96s2.682-12.618 7.019-16.96v0l384-384c4.342-4.337 10.338-7.019 16.96-7.019 13.247 0 23.988 10.733 24 23.978v168.001h232c13.255 0 24 10.745 24 24v0 384c0 13.255-10.745 24-24 24v0zM712 280h-232c-13.255 0-24-10.745-24-24v0-134.040l-326.040 326.040 326.040 326.040v-134.040c0-13.255 10.745-24 24-24v0h232zM888 640v-384c0-13.255-10.745-24-24-24s-24 10.745-24 24v0 384c0 13.255 10.745 24 24 24s24-10.745 24-24v0z" />
<glyph unicode="&#xe94b;" glyph-name="arrow-fat-line-right-light" data-tags="arrow-fat-line-right-light" d="M944.96 464.96l-384 384c-4.342 4.337-10.338 7.019-16.96 7.019-13.247 0-23.988-10.733-24-23.978v-168.001h-232c-13.255 0-24-10.745-24-24v0-384c0-13.255 10.745-24 24-24v0h232v-168c0.012-13.246 10.753-23.979 24-23.979 6.622 0 12.618 2.682 16.96 7.019v0l384 384c4.337 4.342 7.019 10.338 7.019 16.96s-2.682 12.618-7.019 16.96v0zM568 121.96v134.040c0 13.255-10.745 24-24 24v0h-232v336h232c13.255 0 24 10.745 24 24v0 134.040l326.040-326.040zM184 640v-384c0-13.255-10.745-24-24-24s-24 10.745-24 24v0 384c0 13.255 10.745 24 24 24s24-10.745 24-24v0z" />
<glyph unicode="&#xe94c;" glyph-name="arrow-fat-lines-down-light" data-tags="arrow-fat-lines-down-light" d="M918.16 425.2c-3.705 8.761-12.227 14.797-22.16 14.8h-168v104c0 13.255-10.745 24-24 24v0h-384c-13.255 0-24-10.745-24-24v0-104h-168c-13.246-0.012-23.979-10.753-23.979-24 0-6.622 2.682-12.618 7.019-16.96v0l384-384c4.342-4.337 10.338-7.019 16.96-7.019s12.618 2.682 16.96 7.019v0l384 384c4.343 4.343 7.029 10.343 7.029 16.97 0 3.316-0.672 6.474-1.888 9.347l0.059-0.157zM512 65.96l-326.040 326.040h134.040c13.255 0 24 10.745 24 24v0 104h336v-104c0-13.255 10.745-24 24-24v0h134.040zM296 800c0 13.255 10.745 24 24 24v0h384c13.255 0 24-10.745 24-24s-10.745-24-24-24v0h-384c-13.255 0-24 10.745-24 24v0zM296 672c0 13.255 10.745 24 24 24v0h384c13.255 0 24-10.745 24-24s-10.745-24-24-24v0h-384c-13.255 0-24 10.745-24 24v0z" />
<glyph unicode="&#xe94d;" glyph-name="arrow-fat-lines-left-light" data-tags="arrow-fat-lines-left-light" d="M608 664h-104v168c-0.012 13.246-10.753 23.979-24 23.979-6.622 0-12.618-2.682-16.96-7.019v0l-384-384c-4.337-4.342-7.019-10.338-7.019-16.96s2.682-12.618 7.019-16.96v0l384-384c4.342-4.337 10.338-7.019 16.96-7.019 13.247 0 23.988 10.733 24 23.978v168.001h104c13.255 0 24 10.745 24 24v0 384c0 13.255-10.745 24-24 24v0zM584 280h-104c-13.255 0-24-10.745-24-24v0-134.040l-326.040 326.040 326.040 326.040v-134.040c0-13.255 10.745-24 24-24v0h104zM888 640v-384c0-13.255-10.745-24-24-24s-24 10.745-24 24v0 384c0 13.255 10.745 24 24 24s24-10.745 24-24v0zM760 640v-384c0-13.255-10.745-24-24-24s-24 10.745-24 24v0 384c0 13.255 10.745 24 24 24s24-10.745 24-24v0z" />
<glyph unicode="&#xe94e;" glyph-name="arrow-fat-lines-right-light" data-tags="arrow-fat-lines-right-light" d="M944.96 464.96l-384 384c-4.342 4.337-10.338 7.019-16.96 7.019-13.247 0-23.988-10.733-24-23.978v-168.001h-104c-13.255 0-24-10.745-24-24v0-384c0-13.255 10.745-24 24-24v0h104v-168c0.012-13.246 10.753-23.979 24-23.979 6.622 0 12.618 2.682 16.96 7.019v0l384 384c4.337 4.342 7.019 10.338 7.019 16.96s-2.682 12.618-7.019 16.96v0zM568 121.96v134.040c0 13.255-10.745 24-24 24v0h-104v336h104c13.255 0 24 10.745 24 24v0 134.040l326.040-326.040zM184 640v-384c0-13.255-10.745-24-24-24s-24 10.745-24 24v0 384c0 13.255 10.745 24 24 24s24-10.745 24-24v0zM312 640v-384c0-13.255-10.745-24-24-24s-24 10.745-24 24v0 384c0 13.255 10.745 24 24 24s24-10.745 24-24v0z" />
<glyph unicode="&#xe94f;" glyph-name="arrow-fat-lines-up-light" data-tags="arrow-fat-lines-up-light" d="M912.96 496.96l-384 384c-4.342 4.337-10.338 7.019-16.96 7.019s-12.618-2.682-16.96-7.019v0l-384-384c-4.337-4.342-7.019-10.338-7.019-16.96 0-13.247 10.733-23.988 23.978-24h168.001v-104c0-13.255 10.745-24 24-24v0h384c13.255 0 24 10.745 24 24v0 104h168c13.246 0.012 23.979 10.753 23.979 24 0 6.622-2.682 12.618-7.019 16.96v0zM704 504c-13.255 0-24-10.745-24-24v0-104h-336v104c0 13.255-10.745 24-24 24v0h-134.040l326.040 326.040 326.040-326.040zM728 96c0-13.255-10.745-24-24-24v0h-384c-13.255 0-24 10.745-24 24s10.745 24 24 24v0h384c13.255 0 24-10.745 24-24v0zM728 224c0-13.255-10.745-24-24-24v0h-384c-13.255 0-24 10.745-24 24s10.745 24 24 24v0h384c13.255 0 24-10.745 24-24v0z" />
<glyph unicode="&#xe950;" glyph-name="arrow-fat-line-up-light" data-tags="arrow-fat-line-up-light" d="M912.96 496.96l-384 384c-4.342 4.337-10.338 7.019-16.96 7.019s-12.618-2.682-16.96-7.019v0l-384-384c-4.337-4.342-7.019-10.338-7.019-16.96 0-13.247 10.733-23.988 23.978-24h168.001v-232c0-13.255 10.745-24 24-24v0h384c13.255 0 24 10.745 24 24v0 232h168c13.246 0.012 23.979 10.753 23.979 24 0 6.622-2.682 12.618-7.019 16.96v0zM704 504c-13.255 0-24-10.745-24-24v0-232h-336v232c0 13.255-10.745 24-24 24v0h-134.040l326.040 326.040 326.040-326.040zM728 96c0-13.255-10.745-24-24-24v0h-384c-13.255 0-24 10.745-24 24s10.745 24 24 24v0h384c13.255 0 24-10.745 24-24v0z" />
<glyph unicode="&#xe951;" glyph-name="arrow-fat-right-light" data-tags="arrow-fat-right-light" d="M944.96 464.96l-384 384c-4.342 4.337-10.338 7.019-16.96 7.019-13.247 0-23.988-10.733-24-23.978v-168.001h-328c-30.928 0-56-25.072-56-56v0-320c0-30.928 25.072-56 56-56v0h328v-168c0.012-13.246 10.753-23.979 24-23.979 6.622 0 12.618 2.682 16.96 7.019v0l384 384c4.337 4.342 7.019 10.338 7.019 16.96s-2.682 12.618-7.019 16.96v0zM568 121.96v134.040c0 13.255-10.745 24-24 24v0h-352c-4.418 0-8 3.582-8 8v0 320c0 4.418 3.582 8 8 8v0h352c13.255 0 24 10.745 24 24v0 134.040l326.040-326.040z" />
<glyph unicode="&#xe952;" glyph-name="arrow-fat-up-light" data-tags="arrow-fat-up-light" d="M912.96 496.96l-384 384c-4.342 4.337-10.338 7.019-16.96 7.019s-12.618-2.682-16.96-7.019v0l-384-384c-4.337-4.342-7.019-10.338-7.019-16.96 0-13.247 10.733-23.988 23.978-24h168.001v-328c0-30.928 25.072-56 56-56v0h320c30.928 0 56 25.072 56 56v0 328h168c13.246 0.012 23.979 10.753 23.979 24 0 6.622-2.682 12.618-7.019 16.96v0zM704 504c-13.255 0-24-10.745-24-24v0-352c0-4.418-3.582-8-8-8v0h-320c-4.418 0-8 3.582-8 8v0 352c0 13.255-10.745 24-24 24v0h-134.040l326.040 326.040 326.040-326.040z" />
<glyph unicode="&#xe953;" glyph-name="arrow-left-light" data-tags="arrow-left-light" d="M888 448c0-13.255-10.745-24-24-24v0h-646.040l247-247.040c4.706-4.393 7.639-10.634 7.639-17.559 0-13.255-10.745-24-24-24-6.925 0-13.165 2.933-17.546 7.625l-0.013 0.014-288 288c-4.337 4.342-7.019 10.338-7.019 16.96s2.682 12.618 7.019 16.96v0l288 288c4.274 3.991 10.032 6.441 16.361 6.441 13.255 0 24-10.745 24-24 0-6.33-2.45-12.087-6.454-16.375l0.013 0.014-247-247.040h646.040c13.255 0 24-10.745 24-24v0z" />
<glyph unicode="&#xe954;" glyph-name="arrow-line-down-left-light" data-tags="arrow-line-down-left-light" d="M888 800c0-13.255-10.745-24-24-24v0h-704c-13.255 0-24 10.745-24 24s10.745 24 24 24v0h704c13.255 0 24-10.745 24-24v0zM687.040 624.96l-407.040-407.040v326.080c0 13.255-10.745 24-24 24s-24-10.745-24-24v0-384c0-13.255 10.745-24 24-24v0h384c13.255 0 24 10.745 24 24s-10.745 24-24 24v0h-326.080l407.040 407.040c3.991 4.274 6.441 10.032 6.441 16.361 0 13.255-10.745 24-24 24-6.33 0-12.087-2.45-16.375-6.454l0.014 0.013z" />
<glyph unicode="&#xe955;" glyph-name="arrow-line-down-light" data-tags="arrow-line-down-light" d="M207.040 495.040c-3.991 4.274-6.441 10.032-6.441 16.361 0 13.255 10.745 24 24 24 6.33 0 12.087-2.45 16.375-6.454l-0.014 0.013 247.040-247v550.040c0 13.255 10.745 24 24 24s24-10.745 24-24v0-550.040l247.040 247c4.274 3.991 10.032 6.441 16.361 6.441 13.255 0 24-10.745 24-24 0-6.33-2.45-12.087-6.454-16.375l0.013 0.014-288-288c-4.342-4.337-10.338-7.019-16.96-7.019s-12.618 2.682-16.96 7.019v0zM864 120h-704c-13.255 0-24-10.745-24-24s10.745-24 24-24v0h704c13.255 0 24 10.745 24 24s-10.745 24-24 24v0z" />
<glyph unicode="&#xe956;" glyph-name="arrow-line-down-right-light" data-tags="arrow-line-down-right-light" d="M888 800c0-13.255-10.745-24-24-24v0h-704c-13.255 0-24 10.745-24 24s10.745 24 24 24v0h704c13.255 0 24-10.745 24-24v0zM768 568c-13.255 0-24-10.745-24-24v0-326.080l-407.040 407.040c-4.274 3.991-10.032 6.441-16.361 6.441-13.255 0-24-10.745-24-24 0-6.33 2.45-12.087 6.454-16.375l-0.013 0.014 407.040-407.040h-326.080c-13.255 0-24-10.745-24-24s10.745-24 24-24v0h384c13.255 0 24 10.745 24 24v0 384c0 13.255-10.745 24-24 24v0z" />
<glyph unicode="&#xe957;" glyph-name="arrow-line-left-light" data-tags="arrow-line-left-light" d="M920 448c0-13.255-10.745-24-24-24v0h-550.040l247-247.040c4.706-4.393 7.639-10.634 7.639-17.559 0-13.255-10.745-24-24-24-6.925 0-13.165 2.933-17.546 7.625l-0.013 0.014-288 288c-4.337 4.342-7.019 10.338-7.019 16.96s2.682 12.618 7.019 16.96v0l288 288c4.274 3.991 10.032 6.441 16.361 6.441 13.255 0 24-10.745 24-24 0-6.33-2.45-12.087-6.454-16.375l0.013 0.014-247-247.040h550.040c13.255 0 24-10.745 24-24v0zM160 824c-13.255 0-24-10.745-24-24v0-704c0-13.255 10.745-24 24-24s24 10.745 24 24v0 704c0 13.255-10.745 24-24 24v0z" />
<glyph unicode="&#xe958;" glyph-name="arrow-line-right-light" data-tags="arrow-line-right-light" d="M752.96 464.96c4.337-4.342 7.019-10.338 7.019-16.96s-2.682-12.618-7.019-16.96v0l-288-288c-4.274-3.991-10.032-6.441-16.361-6.441-13.255 0-24 10.745-24 24 0 6.33 2.45 12.087 6.454 16.375l-0.013-0.014 247 247.040h-550.040c-13.255 0-24 10.745-24 24s10.745 24 24 24v0h550.040l-247 247.040c-3.991 4.274-6.441 10.032-6.441 16.361 0 13.255 10.745 24 24 24 6.33 0 12.087-2.45 16.375-6.454l-0.014 0.013zM864 824c-13.255 0-24-10.745-24-24v0-704c0-13.255 10.745-24 24-24s24 10.745 24 24v0 704c0 13.255-10.745 24-24 24v0z" />
<glyph unicode="&#xe959;" glyph-name="arrow-line-up-left-light" data-tags="arrow-line-up-left-light" d="M888 96c0-13.255-10.745-24-24-24v0h-704c-13.255 0-24 10.745-24 24s10.745 24 24 24v0h704c13.255 0 24-10.745 24-24v0zM256 328c13.255 0 24 10.745 24 24v0 326.040l407.040-407c4.274-3.991 10.032-6.441 16.361-6.441 13.255 0 24 10.745 24 24 0 6.33-2.45 12.087-6.454 16.375l0.013-0.014-407 407.040h326.040c13.255 0 24 10.745 24 24s-10.745 24-24 24v0h-384c-13.255 0-24-10.745-24-24v0-384c0-13.255 10.745-24 24-24v0z" />
<glyph unicode="&#xe95a;" glyph-name="arrow-line-up-light" data-tags="arrow-line-up-light" d="M816.96 400.96c4.706-4.393 7.639-10.634 7.639-17.559 0-13.255-10.745-24-24-24-6.925 0-13.165 2.933-17.546 7.625l-0.013 0.014-247.040 247v-550.040c0-13.255-10.745-24-24-24s-24 10.745-24 24v0 550.040l-247.040-247c-4.274-3.991-10.032-6.441-16.361-6.441-13.255 0-24 10.745-24 24 0 6.33 2.45 12.087 6.454 16.375l-0.013-0.014 288 288c4.342 4.337 10.338 7.019 16.96 7.019s12.618-2.682 16.96-7.019v0zM864 824h-704c-13.255 0-24-10.745-24-24s10.745-24 24-24v0h704c13.255 0 24 10.745 24 24s-10.745 24-24 24v0z" />
<glyph unicode="&#xe95b;" glyph-name="arrow-line-up-right-light" data-tags="arrow-line-up-right-light" d="M888 96c0-13.255-10.745-24-24-24v0h-704c-13.255 0-24 10.745-24 24s10.745 24 24 24v0h704c13.255 0 24-10.745 24-24v0zM320 264c6.625 0.006 12.621 2.695 16.96 7.040v0l407.040 407v-326.040c0-13.255 10.745-24 24-24s24 10.745 24 24v0 384c0 13.255-10.745 24-24 24v0h-384c-13.255 0-24-10.745-24-24s10.745-24 24-24v0h326.040l-407-407.040c-4.337-4.342-7.019-10.338-7.019-16.96 0-13.247 10.733-23.988 23.978-24h0.001z" />
<glyph unicode="&#xe95c;" glyph-name="arrow-right-light" data-tags="arrow-right-light" d="M880.96 431.040l-288-288c-4.274-3.991-10.032-6.441-16.361-6.441-13.255 0-24 10.745-24 24 0 6.33 2.45 12.087 6.454 16.375l-0.013-0.014 247 247.040h-646.040c-13.255 0-24 10.745-24 24s10.745 24 24 24v0h646.040l-247 247.040c-3.991 4.274-6.441 10.032-6.441 16.361 0 13.255 10.745 24 24 24 6.33 0 12.087-2.45 16.375-6.454l-0.014 0.013 288-288c4.337-4.342 7.019-10.338 7.019-16.96s-2.682-12.618-7.019-16.96v0z" />
<glyph unicode="&#xe95d;" glyph-name="arrows-clockwise-light" data-tags="arrows-clockwise-light" d="M784.96 208.96c4.337-4.342 7.019-10.338 7.019-16.96s-2.682-12.618-7.019-16.96v0c-4.2-4.2-104.96-103.040-272.96-103.040-158.64 0-270.36 103-328 173.040v-117.040c0-13.255-10.745-24-24-24s-24 10.745-24 24v0 192c0 13.255 10.745 24 24 24v0h192c13.255 0 24-10.745 24-24s-10.745-24-24-24v0h-146.6c45.64-60.44 152.92-176 306.6-176 148.36 0 238.16 88 239.040 88.96 4.342 4.337 10.338 7.019 16.96 7.019s12.618-2.682 16.96-7.019v0zM864 792c-13.255 0-24-10.745-24-24v0-117.040c-57.64 70.040-169.36 173.040-328 173.040-168 0-268.76-98.84-272.96-103.040-3.991-4.274-6.441-10.032-6.441-16.361 0-13.255 10.745-24 24-24 6.33 0 12.087 2.45 16.375 6.454l-0.014-0.013c0.88 0.96 90.68 88.96 239.040 88.96 153.68 0 260.96-115.56 306.6-176h-146.6c-13.255 0-24-10.745-24-24s10.745-24 24-24v0h192c13.255 0 24 10.745 24 24v0 192c0 13.255-10.745 24-24 24v0z" />
<glyph unicode="&#xe95e;" glyph-name="arrows-counter-clockwise-light" data-tags="arrows-counter-clockwise-light" d="M352 552h-192c-13.255 0-24 10.745-24 24v0 192c0 13.255 10.745 24 24 24s24-10.745 24-24v0-117.040c57.64 70.040 169.36 173.040 328 173.040 168 0 268.76-98.84 272.96-103.040 4.003-4.277 6.461-10.043 6.461-16.382 0-13.255-10.745-24-24-24-6.32 0-12.069 2.443-16.355 6.436l0.014-0.013c-0.92 1-91.68 89-239.080 89-153.64 0-260.96-115.52-306.6-176h146.6c13.255 0 24-10.745 24-24s-10.745-24-24-24v0zM864 344h-192c-13.255 0-24-10.745-24-24s10.745-24 24-24v0h146.6c-45.64-60.48-152.96-176-306.6-176-147.4 0-238.16 88-239.080 89-4.272 3.98-10.021 6.422-16.341 6.422-13.255 0-24-10.745-24-24 0-6.34 2.458-12.105 6.473-16.396l-0.012 0.013c4.2-4.2 104.96-103.040 272.96-103.040 158.64 0 270.36 103 328 173.040v-117.040c0-13.255 10.745-24 24-24s24 10.745 24 24v0 192c0 13.255-10.745 24-24 24v0z" />
<glyph unicode="&#xe95f;" glyph-name="arrows-down-up-light" data-tags="arrows-down-up-light" d="M464.96 272.96c4.337-4.342 7.019-10.338 7.019-16.96s-2.682-12.618-7.019-16.96v0l-128-128c-4.342-4.337-10.338-7.019-16.96-7.019s-12.618 2.682-16.96 7.019v0l-128 128c-3.991 4.274-6.441 10.032-6.441 16.361 0 13.255 10.745 24 24 24 6.33 0 12.087-2.45 16.375-6.454l-0.014 0.013 87.040-87v582.040c0 13.255 10.745 24 24 24s24-10.745 24-24v0-582.040l87.040 87c4.342 4.337 10.338 7.019 16.96 7.019s12.618-2.682 16.96-7.019v0zM848.96 656.96l-128 128c-4.342 4.337-10.338 7.019-16.96 7.019s-12.618-2.682-16.96-7.019v0l-128-128c-3.991-4.274-6.441-10.032-6.441-16.361 0-13.255 10.745-24 24-24 6.33 0 12.087 2.45 16.375 6.454l-0.014-0.013 87.040 87v-582.040c0-13.255 10.745-24 24-24s24 10.745 24 24v0 582.040l87.040-87c4.274-3.991 10.032-6.441 16.361-6.441 13.255 0 24 10.745 24 24 0 6.33-2.45 12.087-6.454 16.375l0.013-0.014z" />
<glyph unicode="&#xe960;" glyph-name="arrows-horizontal-light" data-tags="arrows-horizontal-light" d="M944.96 431.040l-128-128c-4.274-3.991-10.032-6.441-16.361-6.441-13.255 0-24 10.745-24 24 0 6.33 2.45 12.087 6.454 16.375l-0.013-0.014 87 87.040h-716l87-87.040c4.706-4.393 7.639-10.634 7.639-17.559 0-13.255-10.745-24-24-24-6.925 0-13.165 2.933-17.546 7.625l-0.013 0.014-128 128c-4.337 4.342-7.019 10.338-7.019 16.96s2.682 12.618 7.019 16.96v0l128 128c4.274 3.991 10.032 6.441 16.361 6.441 13.255 0 24-10.745 24-24 0-6.33-2.45-12.087-6.454-16.375l0.013 0.014-87.080-87.040h716l-87 87.040c-3.991 4.274-6.441 10.032-6.441 16.361 0 13.255 10.745 24 24 24 6.33 0 12.087-2.45 16.375-6.454l-0.014 0.013 128-128c4.361-4.346 7.059-10.358 7.059-17 0-6.602-2.666-12.582-6.98-16.921l0.001 0.001z" />
<glyph unicode="&#xe961;" glyph-name="arrows-in-cardinal-light" data-tags="arrows-in-cardinal-light" d="M367.040 687.040c-3.991 4.274-6.441 10.032-6.441 16.361 0 13.255 10.745 24 24 24 6.33 0 12.087-2.45 16.375-6.454l-0.014 0.013 87.040-87v230.040c0 13.255 10.745 24 24 24s24-10.745 24-24v0-230.040l87.040 87c4.274 3.991 10.032 6.441 16.361 6.441 13.255 0 24-10.745 24-24 0-6.33-2.45-12.087-6.454-16.375l0.013 0.014-128-128c-4.342-4.337-10.338-7.019-16.96-7.019s-12.618 2.682-16.96 7.019v0zM528.96 336.96c-4.342 4.337-10.338 7.019-16.96 7.019s-12.618-2.682-16.96-7.019v0l-128-128c-3.991-4.274-6.441-10.032-6.441-16.361 0-13.255 10.745-24 24-24 6.33 0 12.087 2.45 16.375 6.454l-0.014-0.013 87.040 87v-230.040c0-13.255 10.745-24 24-24s24 10.745 24 24v0 230.040l87.040-87c4.274-3.991 10.032-6.441 16.361-6.441 13.255 0 24 10.745 24 24 0 6.33-2.45 12.087-6.454 16.375l0.013-0.014zM928 472h-230.040l87 87.040c3.991 4.274 6.441 10.032 6.441 16.361 0 13.255-10.745 24-24 24-6.33 0-12.087-2.45-16.375-6.454l0.014 0.013-128-128c-4.337-4.342-7.019-10.338-7.019-16.96s2.682-12.618 7.019-16.96v0l128-128c4.274-3.991 10.032-6.441 16.361-6.441 13.255 0 24 10.745 24 24 0 6.33-2.45 12.087-6.454 16.375l0.013-0.014-87 87.040h230.040c13.255 0 24 10.745 24 24s-10.745 24-24 24v0zM400.96 464.96l-128 128c-4.274 3.991-10.032 6.441-16.361 6.441-13.255 0-24-10.745-24-24 0-6.33 2.45-12.087 6.454-16.375l-0.013 0.014 87-87.040h-230.040c-13.255 0-24-10.745-24-24s10.745-24 24-24v0h230.040l-87-87.040c-4.706-4.393-7.639-10.634-7.639-17.559 0-13.255 10.745-24 24-24 6.925 0 13.165 2.933 17.546 7.625l0.013 0.014 128 128c4.337 4.342 7.019 10.338 7.019 16.96s-2.682 12.618-7.019 16.96v0z" />
<glyph unicode="&#xe962;" glyph-name="arrows-in-light" data-tags="arrows-in-light" d="M584 544v160c0 13.255 10.745 24 24 24s24-10.745 24-24v0-102.040l183.040 183c4.274 3.991 10.032 6.441 16.361 6.441 13.255 0 24-10.745 24-24 0-6.33-2.45-12.087-6.454-16.375l0.013 0.014-183.040-183.040h102.080c13.255 0 24-10.745 24-24s-10.745-24-24-24v0h-160c-13.255 0-24 10.745-24 24v0zM416 376h-160c-13.255 0-24-10.745-24-24s10.745-24 24-24v0h102.080l-183.040-183.040c-4.706-4.393-7.639-10.634-7.639-17.559 0-13.255 10.745-24 24-24 6.925 0 13.165 2.933 17.546 7.625l0.013 0.014 183.040 183.040v-102.080c0-13.255 10.745-24 24-24s24 10.745 24 24v0 160c0 13.255-10.745 24-24 24v0zM665.92 328h102.080c13.255 0 24 10.745 24 24s-10.745 24-24 24v0h-160c-13.255 0-24-10.745-24-24v0-160c0-13.255 10.745-24 24-24s24 10.745 24 24v0 102.080l183.040-183.040c4.274-3.991 10.032-6.441 16.361-6.441 13.255 0 24 10.745 24 24 0 6.33-2.45 12.087-6.454 16.375l0.013-0.014zM416 728c-13.255 0-24-10.745-24-24v0-102.040l-183.040 183c-4.274 3.991-10.032 6.441-16.361 6.441-13.255 0-24-10.745-24-24 0-6.33 2.45-12.087 6.454-16.375l-0.013 0.014 183.040-183.040h-102.080c-13.255 0-24-10.745-24-24s10.745-24 24-24v0h160c13.255 0 24 10.745 24 24v0 160c0 13.255-10.745 24-24 24v0z" />
<glyph unicode="&#xe963;" glyph-name="arrows-in-line-horizontal-light" data-tags="arrows-in-line-horizontal-light" d="M536 800v-704c0-13.255-10.745-24-24-24s-24 10.745-24 24v0 704c0 13.255 10.745 24 24 24s24-10.745 24-24v0zM272.96 592.96c-4.274 3.991-10.032 6.441-16.361 6.441-13.255 0-24-10.745-24-24 0-6.33 2.45-12.087 6.454-16.375l-0.013 0.014 87-87.040h-262.040c-13.255 0-24-10.745-24-24s10.745-24 24-24v0h262.040l-87-87.040c-4.706-4.393-7.639-10.634-7.639-17.559 0-13.255 10.745-24 24-24 6.925 0 13.165 2.933 17.546 7.625l0.013 0.014 128 128c4.337 4.342 7.019 10.338 7.019 16.96s-2.682 12.618-7.019 16.96v0zM960 472h-262.040l87 87.040c3.991 4.274 6.441 10.032 6.441 16.361 0 13.255-10.745 24-24 24-6.33 0-12.087-2.45-16.375-6.454l0.014 0.013-128-128c-4.337-4.342-7.019-10.338-7.019-16.96s2.682-12.618 7.019-16.96v0l128-128c4.274-3.991 10.032-6.441 16.361-6.441 13.255 0 24 10.745 24 24 0 6.33-2.45 12.087-6.454 16.375l0.013-0.014-87 87.040h262.040c13.255 0 24 10.745 24 24s-10.745 24-24 24v0z" />
<glyph unicode="&#xe964;" glyph-name="arrows-in-line-vertical-light" data-tags="arrows-in-line-vertical-light" d="M888 448c0-13.255-10.745-24-24-24v0h-704c-13.255 0-24 10.745-24 24s10.745 24 24 24v0h704c13.255 0 24-10.745 24-24v0zM495.040 559.040c4.342-4.337 10.338-7.019 16.96-7.019s12.618 2.682 16.96 7.019v0l128 128c3.991 4.274 6.441 10.032 6.441 16.361 0 13.255-10.745 24-24 24-6.33 0-12.087-2.45-16.375-6.454l0.014 0.013-87.040-87v262.040c0 13.255-10.745 24-24 24s-24-10.745-24-24v0-262.040l-87.040 87c-4.274 3.991-10.032 6.441-16.361 6.441-13.255 0-24-10.745-24-24 0-6.33 2.45-12.087 6.454-16.375l-0.013 0.014zM528.96 336.96c-4.342 4.337-10.338 7.019-16.96 7.019s-12.618-2.682-16.96-7.019v0l-128-128c-3.991-4.274-6.441-10.032-6.441-16.361 0-13.255 10.745-24 24-24 6.33 0 12.087 2.45 16.375 6.454l-0.014-0.013 87.040 87v-262.040c0-13.255 10.745-24 24-24s24 10.745 24 24v0 262.040l87.040-87c4.274-3.991 10.032-6.441 16.361-6.441 13.255 0 24 10.745 24 24 0 6.33-2.45 12.087-6.454 16.375l0.013-0.014z" />
<glyph unicode="&#xe965;" glyph-name="arrows-in-simple-light" data-tags="arrows-in-simple-light" d="M848.96 751.040l-215.040-215.040h134.080c13.255 0 24-10.745 24-24s-10.745-24-24-24v0h-192c-13.255 0-24 10.745-24 24v0 192c0 13.255 10.745 24 24 24s24-10.745 24-24v0-134.080l215.040 215.040c4.274 3.991 10.032 6.441 16.361 6.441 13.255 0 24-10.745 24-24 0-6.33-2.45-12.087-6.454-16.375l0.013 0.014zM448 408h-192c-13.255 0-24-10.745-24-24s10.745-24 24-24v0h134.080l-215.040-215.040c-4.706-4.393-7.639-10.634-7.639-17.559 0-13.255 10.745-24 24-24 6.925 0 13.165 2.933 17.546 7.625l0.013 0.014 215.040 215.040v-134.080c0-13.255 10.745-24 24-24s24 10.745 24 24v0 192c0 13.255-10.745 24-24 24v0z" />
<glyph unicode="&#xe966;" glyph-name="arrows-left-right-light" data-tags="arrows-left-right-light" d="M848.96 272.96c4.337-4.342 7.019-10.338 7.019-16.96s-2.682-12.618-7.019-16.96v0l-128-128c-4.274-3.991-10.032-6.441-16.361-6.441-13.255 0-24 10.745-24 24 0 6.33 2.45 12.087 6.454 16.375l-0.013-0.014 87 87.040h-582.040c-13.255 0-24 10.745-24 24s10.745 24 24 24v0h582.040l-87 87.040c-3.991 4.274-6.441 10.032-6.441 16.361 0 13.255 10.745 24 24 24 6.33 0 12.087-2.45 16.375-6.454l-0.014 0.013zM303.040 495.040c4.274-3.991 10.032-6.441 16.361-6.441 13.255 0 24 10.745 24 24 0 6.33-2.45 12.087-6.454 16.375l0.013-0.014-87 87.040h582.040c13.255 0 24 10.745 24 24s-10.745 24-24 24v0h-582.040l87 87.040c3.991 4.274 6.441 10.032 6.441 16.361 0 13.255-10.745 24-24 24-6.33 0-12.087-2.45-16.375-6.454l0.014 0.013-128-128c-4.337-4.342-7.019-10.338-7.019-16.96s2.682-12.618 7.019-16.96v0z" />
<glyph unicode="&#xe967;" glyph-name="arrows-merge-light" data-tags="arrows-merge-light" d="M760 800v-256c-0.006-6.625-2.695-12.621-7.040-16.96v0l-216.96-217v-220l87.040 87c4.274 3.991 10.032 6.441 16.361 6.441 13.255 0 24-10.745 24-24 0-6.33-2.45-12.087-6.454-16.375l0.013 0.014-128-128c-4.342-4.337-10.338-7.019-16.96-7.019s-12.618 2.682-16.96 7.019v0l-128 128c-3.991 4.274-6.441 10.032-6.441 16.361 0 13.255 10.745 24 24 24 6.33 0 12.087-2.45 16.375-6.454l-0.014 0.013 87.040-87.080v220l-216.96 217.080c-4.345 4.339-7.034 10.335-7.040 16.959v256.001c0 13.255 10.745 24 24 24s24-10.745 24-24v0-246.040l200-200 200 200v246.040c0 13.255 10.745 24 24 24s24-10.745 24-24v0z" />
<glyph unicode="&#xe968;" glyph-name="arrows-out-cardinal-light" data-tags="arrows-out-cardinal-light" d="M367.040 719.040c-4.337 4.342-7.019 10.338-7.019 16.96s2.682 12.618 7.019 16.96v0l128 128c4.342 4.337 10.338 7.019 16.96 7.019s12.618-2.682 16.96-7.019v0l128-128c4.706-4.393 7.639-10.634 7.639-17.559 0-13.255-10.745-24-24-24-6.925 0-13.165 2.933-17.546 7.625l-0.013 0.014-87.040 87v-230.040c0-13.255-10.745-24-24-24s-24 10.745-24 24v0 230.040l-87.040-87c-4.342-4.337-10.338-7.019-16.96-7.019s-12.618 2.682-16.96 7.019v0zM623.040 176.96l-87.040-87v230.040c0 13.255-10.745 24-24 24s-24-10.745-24-24v0-230.040l-87.040 87c-4.274 3.991-10.032 6.441-16.361 6.441-13.255 0-24-10.745-24-24 0-6.33 2.45-12.087 6.454-16.375l-0.013 0.014 128-128c4.342-4.337 10.338-7.019 16.96-7.019s12.618 2.682 16.96 7.019v0l128 128c3.991 4.274 6.441 10.032 6.441 16.361 0 13.255-10.745 24-24 24-6.33 0-12.087-2.45-16.375-6.454l0.014 0.013zM944.96 464.96l-128 128c-4.274 3.991-10.032 6.441-16.361 6.441-13.255 0-24-10.745-24-24 0-6.33 2.45-12.087 6.454-16.375l-0.013 0.014 87-87.040h-230.040c-13.255 0-24-10.745-24-24s10.745-24 24-24v0h230.040l-87-87.040c-4.706-4.393-7.639-10.634-7.639-17.559 0-13.255 10.745-24 24-24 6.925 0 13.165 2.933 17.546 7.625l0.013 0.014 128 128c4.337 4.342 7.019 10.338 7.019 16.96s-2.682 12.618-7.019 16.96v0zM153.96 424h230.040c13.255 0 24 10.745 24 24s-10.745 24-24 24v0h-230.040l87 87.040c3.991 4.274 6.441 10.032 6.441 16.361 0 13.255-10.745 24-24 24-6.33 0-12.087-2.45-16.375-6.454l0.014 0.013-128-128c-4.337-4.342-7.019-10.338-7.019-16.96s2.682-12.618 7.019-16.96v0l128-128c4.274-3.991 10.032-6.441 16.361-6.441 13.255 0 24 10.745 24 24 0 6.33-2.45 12.087-6.454 16.375l0.013-0.014z" />
<glyph unicode="&#xe969;" glyph-name="arrows-out-light" data-tags="arrows-out-light" d="M856 768v-192c0-13.255-10.745-24-24-24s-24 10.745-24 24v0 134.080l-183.040-183.040c-4.274-3.991-10.032-6.441-16.361-6.441-13.255 0-24 10.745-24 24 0 6.33 2.45 12.087 6.454 16.375l-0.013-0.014 183.040 183.040h-134.080c-13.255 0-24 10.745-24 24s10.745 24 24 24v0h192c13.255 0 24-10.745 24-24v0zM399.040 368.96l-183.040-183.040v134.080c0 13.255-10.745 24-24 24s-24-10.745-24-24v0-192c0-13.255 10.745-24 24-24v0h192c13.255 0 24 10.745 24 24s-10.745 24-24 24v0h-134.080l183.040 183.040c3.991 4.274 6.441 10.032 6.441 16.361 0 13.255-10.745 24-24 24-6.33 0-12.087-2.45-16.375-6.454l0.014 0.013zM832 344c-13.255 0-24-10.745-24-24v0-134.080l-183.040 183.040c-4.274 3.991-10.032 6.441-16.361 6.441-13.255 0-24-10.745-24-24 0-6.33 2.45-12.087 6.454-16.375l-0.013 0.014 183.040-183.040h-134.080c-13.255 0-24-10.745-24-24s10.745-24 24-24v0h192c13.255 0 24 10.745 24 24v0 192c0 13.255-10.745 24-24 24v0zM249.92 744h134.080c13.255 0 24 10.745 24 24s-10.745 24-24 24v0h-192c-13.255 0-24-10.745-24-24v0-192c0-13.255 10.745-24 24-24s24 10.745 24 24v0 134.080l183.040-183.040c4.274-3.991 10.032-6.441 16.361-6.441 13.255 0 24 10.745 24 24 0 6.33-2.45 12.087-6.454 16.375l0.013-0.014z" />
<glyph unicode="&#xe96a;" glyph-name="arrows-out-line-horizontal-light" data-tags="arrows-out-line-horizontal-light" d="M536 800v-704c0-13.255-10.745-24-24-24s-24 10.745-24 24v0 704c0 13.255 10.745 24 24 24s24-10.745 24-24v0zM384 472h-262.040l87 87.040c3.991 4.274 6.441 10.032 6.441 16.361 0 13.255-10.745 24-24 24-6.33 0-12.087-2.45-16.375-6.454l0.014 0.013-128-128c-4.337-4.342-7.019-10.338-7.019-16.96s2.682-12.618 7.019-16.96v0l128-128c4.274-3.991 10.032-6.441 16.361-6.441 13.255 0 24 10.745 24 24 0 6.33-2.45 12.087-6.454 16.375l0.013-0.014-87 87.040h262.040c13.255 0 24 10.745 24 24s-10.745 24-24 24v0zM976.96 464.96l-128 128c-4.274 3.991-10.032 6.441-16.361 6.441-13.255 0-24-10.745-24-24 0-6.33 2.45-12.087 6.454-16.375l-0.013 0.014 87-87.040h-262.040c-13.255 0-24-10.745-24-24s10.745-24 24-24v0h262.040l-87-87.040c-4.706-4.393-7.639-10.634-7.639-17.559 0-13.255 10.745-24 24-24 6.925 0 13.165 2.933 17.546 7.625l0.013 0.014 128 128c4.337 4.342 7.019 10.338 7.019 16.96s-2.682 12.618-7.019 16.96v0z" />
<glyph unicode="&#xe96b;" glyph-name="arrows-out-line-vertical-light" data-tags="arrows-out-line-vertical-light" d="M888 448c0-13.255-10.745-24-24-24v0h-704c-13.255 0-24 10.745-24 24s10.745 24 24 24v0h704c13.255 0 24-10.745 24-24v0zM400.96 751.040l87.040 87v-262.040c0-13.255 10.745-24 24-24s24 10.745 24 24v0 262.040l87.040-87c4.274-3.991 10.032-6.441 16.361-6.441 13.255 0 24 10.745 24 24 0 6.33-2.45 12.087-6.454 16.375l0.013-0.014-128 128c-4.342 4.337-10.338 7.019-16.96 7.019s-12.618-2.682-16.96-7.019v0l-128-128c-3.991-4.274-6.441-10.032-6.441-16.361 0-13.255 10.745-24 24-24 6.33 0 12.087 2.45 16.375 6.454l-0.014-0.013zM623.040 144.96l-87.040-87v262.040c0 13.255-10.745 24-24 24s-24-10.745-24-24v0-262.040l-87.040 87c-4.274 3.991-10.032 6.441-16.361 6.441-13.255 0-24-10.745-24-24 0-6.33 2.45-12.087 6.454-16.375l-0.013 0.014 128-128c4.342-4.337 10.338-7.019 16.96-7.019s12.618 2.682 16.96 7.019v0l128 128c3.991 4.274 6.441 10.032 6.441 16.361 0 13.255-10.745 24-24 24-6.33 0-12.087-2.45-16.375-6.454l0.014 0.013z" />
<glyph unicode="&#xe96c;" glyph-name="arrows-out-simple-light" data-tags="arrows-out-simple-light" d="M856 768v-192c0-13.255-10.745-24-24-24s-24 10.745-24 24v0 134.080l-215.040-215.040c-4.274-3.991-10.032-6.441-16.361-6.441-13.255 0-24 10.745-24 24 0 6.33 2.45 12.087 6.454 16.375l-0.013-0.014 215.040 215.040h-134.080c-13.255 0-24 10.745-24 24s10.745 24 24 24v0h192c13.255 0 24-10.745 24-24v0zM431.040 400.96l-215.040-215.040v134.080c0 13.255-10.745 24-24 24s-24-10.745-24-24v0-192c0-13.255 10.745-24 24-24v0h192c13.255 0 24 10.745 24 24s-10.745 24-24 24v0h-134.080l215.040 215.040c3.991 4.274 6.441 10.032 6.441 16.361 0 13.255-10.745 24-24 24-6.33 0-12.087-2.45-16.375-6.454l0.014 0.013z" />
<glyph unicode="&#xe96d;" glyph-name="arrow-square-down-left-light" data-tags="arrow-square-down-left-light" d="M832 824h-640c-30.928 0-56-25.072-56-56v0-640c0-30.928 25.072-56 56-56v0h640c30.928 0 56 25.072 56 56v0 640c0 30.928-25.072 56-56 56v0zM840 128c0-4.418-3.582-8-8-8v0h-640c-4.418 0-8 3.582-8 8v0 640c0 4.418 3.582 8 8 8v0h640c4.418 0 8-3.582 8-8v0zM656.96 592.96c4.337-4.342 7.019-10.338 7.019-16.96s-2.682-12.618-7.019-16.96v0l-215.040-215.040h134.080c13.255 0 24-10.745 24-24s-10.745-24-24-24v0h-192c-13.255 0-24 10.745-24 24v0 192c0 13.255 10.745 24 24 24s24-10.745 24-24v0-134.080l215.040 215.040c4.342 4.337 10.338 7.019 16.96 7.019s12.618-2.682 16.96-7.019v0z" />
<glyph unicode="&#xe96e;" glyph-name="arrow-square-down-light" data-tags="arrow-square-down-light" d="M832 824h-640c-30.928 0-56-25.072-56-56v0-640c0-30.928 25.072-56 56-56v0h640c30.928 0 56 25.072 56 56v0 640c0 30.928-25.072 56-56 56v0zM840 128c0-4.418-3.582-8-8-8v0h-640c-4.418 0-8 3.582-8 8v0 640c0 4.418 3.582 8 8 8v0h640c4.418 0 8-3.582 8-8v0zM656.96 432.96c4.337-4.342 7.019-10.338 7.019-16.96s-2.682-12.618-7.019-16.96v0l-128-128c-4.342-4.337-10.338-7.019-16.96-7.019s-12.618 2.682-16.96 7.019v0l-128 128c-3.991 4.274-6.441 10.032-6.441 16.361 0 13.255 10.745 24 24 24 6.33 0 12.087-2.45 16.375-6.454l-0.014 0.013 87.040-87v262.040c0 13.255 10.745 24 24 24s24-10.745 24-24v0-262.040l87.040 87c4.342 4.337 10.338 7.019 16.96 7.019s12.618-2.682 16.96-7.019v0z" />
<glyph unicode="&#xe96f;" glyph-name="arrow-square-down-right-light" data-tags="arrow-square-down-right-light" d="M832 824h-640c-30.928 0-56-25.072-56-56v0-640c0-30.928 25.072-56 56-56v0h640c30.928 0 56 25.072 56 56v0 640c0 30.928-25.072 56-56 56v0zM840 128c0-4.418-3.582-8-8-8v0h-640c-4.418 0-8 3.582-8 8v0 640c0 4.418 3.582 8 8 8v0h640c4.418 0 8-3.582 8-8v0zM664 512v-192c0-13.255-10.745-24-24-24v0h-192c-13.255 0-24 10.745-24 24s10.745 24 24 24v0h134.080l-215.040 215.040c-3.991 4.274-6.441 10.032-6.441 16.361 0 13.255 10.745 24 24 24 6.33 0 12.087-2.45 16.375-6.454l-0.014 0.013 215.040-215.040v134.080c0 13.255 10.745 24 24 24s24-10.745 24-24v0z" />
<glyph unicode="&#xe970;" glyph-name="arrow-square-in-light" data-tags="arrow-square-in-light" d="M504 416v-256c0-13.255-10.745-24-24-24s-24 10.745-24 24v0 198.040l-279.040-279c-4.274-3.991-10.032-6.441-16.361-6.441-13.255 0-24 10.745-24 24 0 6.33 2.45 12.087 6.454 16.375l-0.013-0.014 279 279.040h-198.040c-13.255 0-24 10.745-24 24s10.745 24 24 24v0h256c13.255 0 24-10.745 24-24v0zM832 824h-512c-30.928 0-56-25.072-56-56v0-192c0-13.255 10.745-24 24-24s24 10.745 24 24v0 192c0 4.418 3.582 8 8 8v0h512c4.418 0 8-3.582 8-8v0-512c0-4.418-3.582-8-8-8v0h-192c-13.255 0-24-10.745-24-24s10.745-24 24-24v0h192c30.928 0 56 25.072 56 56v0 512c0 30.928-25.072 56-56 56v0z" />
<glyph unicode="&#xe971;" glyph-name="arrow-square-left-light" data-tags="arrow-square-left-light" d="M832 824h-640c-30.928 0-56-25.072-56-56v0-640c0-30.928 25.072-56 56-56v0h640c30.928 0 56 25.072 56 56v0 640c0 30.928-25.072 56-56 56v0zM840 128c0-4.418-3.582-8-8-8v0h-640c-4.418 0-8 3.582-8 8v0 640c0 4.418 3.582 8 8 8v0h640c4.418 0 8-3.582 8-8v0zM696 448c0-13.255-10.745-24-24-24v0h-262.040l87-87.040c4.706-4.393 7.639-10.634 7.639-17.559 0-13.255-10.745-24-24-24-6.925 0-13.165 2.933-17.546 7.625l-0.013 0.014-128 128c-4.337 4.342-7.019 10.338-7.019 16.96s2.682 12.618 7.019 16.96v0l128 128c4.274 3.991 10.032 6.441 16.361 6.441 13.255 0 24-10.745 24-24 0-6.33-2.45-12.087-6.454-16.375l0.013 0.014-87-87.040h262.040c13.255 0 24-10.745 24-24v0z" />
<glyph unicode="&#xe972;" glyph-name="arrow-square-out-light" data-tags="arrow-square-out-light" d="M888 544c0-13.255-10.745-24-24-24s-24 10.745-24 24v0 198.040l-279-279c-4.274-3.991-10.032-6.441-16.361-6.441-13.255 0-24 10.745-24 24 0 6.33 2.45 12.087 6.454 16.375l-0.013-0.014 278.96 279.040h-198.040c-13.255 0-24 10.745-24 24s10.745 24 24 24v0h256c13.255 0 24-10.745 24-24v0zM736 440c-13.255 0-24-10.745-24-24v0-288c0-4.418-3.582-8-8-8v0h-512c-4.418 0-8 3.582-8 8v0 512c0 4.418 3.582 8 8 8v0h288c13.255 0 24 10.745 24 24s-10.745 24-24 24v0h-288c-30.928 0-56-25.072-56-56v0-512c0-30.928 25.072-56 56-56v0h512c30.928 0 56 25.072 56 56v0 288c0 13.255-10.745 24-24 24v0z" />
<glyph unicode="&#xe973;" glyph-name="arrow-square-right-light" data-tags="arrow-square-right-light" d="M832 824h-640c-30.928 0-56-25.072-56-56v0-640c0-30.928 25.072-56 56-56v0h640c30.928 0 56 25.072 56 56v0 640c0 30.928-25.072 56-56 56v0zM840 128c0-4.418-3.582-8-8-8v0h-640c-4.418 0-8 3.582-8 8v0 640c0 4.418 3.582 8 8 8v0h640c4.418 0 8-3.582 8-8v0zM688.96 464.96c4.337-4.342 7.019-10.338 7.019-16.96s-2.682-12.618-7.019-16.96v0l-128-128c-4.274-3.991-10.032-6.441-16.361-6.441-13.255 0-24 10.745-24 24 0 6.33 2.45 12.087 6.454 16.375l-0.013-0.014 87 87.040h-262.040c-13.255 0-24 10.745-24 24s10.745 24 24 24v0h262.040l-87 87.040c-3.991 4.274-6.441 10.032-6.441 16.361 0 13.255 10.745 24 24 24 6.33 0 12.087-2.45 16.375-6.454l-0.014 0.013z" />
<glyph unicode="&#xe974;" glyph-name="arrow-square-up-left-light" data-tags="arrow-square-up-left-light" d="M832 824h-640c-30.928 0-56-25.072-56-56v0-640c0-30.928 25.072-56 56-56v0h640c30.928 0 56 25.072 56 56v0 640c0 30.928-25.072 56-56 56v0zM840 128c0-4.418-3.582-8-8-8v0h-640c-4.418 0-8 3.582-8 8v0 640c0 4.418 3.582 8 8 8v0h640c4.418 0 8-3.582 8-8v0zM656.96 336.96c4.706-4.393 7.639-10.634 7.639-17.559 0-13.255-10.745-24-24-24-6.925 0-13.165 2.933-17.546 7.625l-0.013 0.014-215.040 215.040v-134.080c0-13.255-10.745-24-24-24s-24 10.745-24 24v0 192c0 13.255 10.745 24 24 24v0h192c13.255 0 24-10.745 24-24s-10.745-24-24-24v0h-134.080z" />
<glyph unicode="&#xe975;" glyph-name="arrow-square-up-light" data-tags="arrow-square-up-light" d="M832 824h-640c-30.928 0-56-25.072-56-56v0-640c0-30.928 25.072-56 56-56v0h640c30.928 0 56 25.072 56 56v0 640c0 30.928-25.072 56-56 56v0zM840 128c0-4.418-3.582-8-8-8v0h-640c-4.418 0-8 3.582-8 8v0 640c0 4.418 3.582 8 8 8v0h640c4.418 0 8-3.582 8-8v0zM656.96 496.96c4.706-4.393 7.639-10.634 7.639-17.559 0-13.255-10.745-24-24-24-6.925 0-13.165 2.933-17.546 7.625l-0.013 0.014-87.040 87v-262.040c0-13.255-10.745-24-24-24s-24 10.745-24 24v0 262.040l-87.040-87c-4.274-3.991-10.032-6.441-16.361-6.441-13.255 0-24 10.745-24 24 0 6.33 2.45 12.087 6.454 16.375l-0.013-0.014 128 128c4.342 4.337 10.338 7.019 16.96 7.019s12.618-2.682 16.96-7.019v0z" />
<glyph unicode="&#xe976;" glyph-name="arrow-square-up-right-light" data-tags="arrow-square-up-right-light" d="M832 824h-640c-30.928 0-56-25.072-56-56v0-640c0-30.928 25.072-56 56-56v0h640c30.928 0 56 25.072 56 56v0 640c0 30.928-25.072 56-56 56v0zM840 128c0-4.418-3.582-8-8-8v0h-640c-4.418 0-8 3.582-8 8v0 640c0 4.418 3.582 8 8 8v0h640c4.418 0 8-3.582 8-8v0zM664 576v-192c0-13.255-10.745-24-24-24s-24 10.745-24 24v0 134.080l-215.040-215.040c-4.274-3.991-10.032-6.441-16.361-6.441-13.255 0-24 10.745-24 24 0 6.33 2.45 12.087 6.454 16.375l-0.013-0.014 215.040 215.040h-134.080c-13.255 0-24 10.745-24 24s10.745 24 24 24v0h192c13.255 0 24-10.745 24-24v0z" />
<glyph unicode="&#xe977;" glyph-name="arrows-split-light" data-tags="arrows-split-light" d="M912.96 207.040l-128-128c-4.342-4.337-10.338-7.019-16.96-7.019s-12.618 2.682-16.96 7.019v0l-128 128c-3.991 4.274-6.441 10.032-6.441 16.361 0 13.255 10.745 24 24 24 6.33 0 12.087-2.45 16.375-6.454l-0.014 0.013 87.040-87v252l-232 232-232-232v-252l87.040 87c4.274 3.991 10.032 6.441 16.361 6.441 13.255 0 24-10.745 24-24 0-6.33-2.45-12.087-6.454-16.375l0.013 0.014-128-128c-4.342-4.337-10.338-7.019-16.96-7.019s-12.618 2.682-16.96 7.019v0l-128 128c-3.991 4.274-6.441 10.032-6.441 16.361 0 13.255 10.745 24 24 24 6.33 0 12.087-2.45 16.375-6.454l-0.014 0.013 87.040-87v262.040c0.006 6.625 2.695 12.621 7.040 16.96v0l248.96 249v182.040c0 13.255 10.745 24 24 24s24-10.745 24-24v0-182.040l248.96-249c4.345-4.339 7.034-10.335 7.040-16.959v-262.041l87.040 87c4.274 3.991 10.032 6.441 16.361 6.441 13.255 0 24-10.745 24-24 0-6.33-2.45-12.087-6.454-16.375l0.013 0.014z" />
<glyph unicode="&#xe978;" glyph-name="arrows-vertical-light" data-tags="arrows-vertical-light" d="M656.96 176.96c4.337-4.342 7.019-10.338 7.019-16.96s-2.682-12.618-7.019-16.96v0l-128-128c-4.342-4.337-10.338-7.019-16.96-7.019s-12.618 2.682-16.96 7.019v0l-128 128c-3.991 4.274-6.441 10.032-6.441 16.361 0 13.255 10.745 24 24 24 6.33 0 12.087-2.45 16.375-6.454l-0.014 0.013 87.040-87v716l-87.040-86.92c-4.274-3.991-10.032-6.441-16.361-6.441-13.255 0-24 10.745-24 24 0 6.33 2.45 12.087 6.454 16.375l-0.013-0.014 128 128c4.342 4.337 10.338 7.019 16.96 7.019s12.618-2.682 16.96-7.019v0l128-128c4.706-4.393 7.639-10.634 7.639-17.559 0-13.255-10.745-24-24-24-6.925 0-13.165 2.933-17.546 7.625l-0.013 0.014-87.040 87v-716l87.040 87c4.338 4.313 10.318 6.979 16.92 6.979 6.642 0 12.654-2.698 16.999-7.058l0.001-0.001z" />
<glyph unicode="&#xe979;" glyph-name="arrow-u-down-left-light" data-tags="arrow-u-down-left-light" d="M920 512c-0.159-136.903-111.097-247.841-247.985-248h-486.055l151-151.040c4.706-4.393 7.639-10.634 7.639-17.559 0-13.255-10.745-24-24-24-6.925 0-13.165 2.933-17.546 7.625l-0.013 0.014-192 192c-4.337 4.342-7.019 10.338-7.019 16.96s2.682 12.618 7.019 16.96v0l192 192c4.274 3.991 10.032 6.441 16.361 6.441 13.255 0 24-10.745 24-24 0-6.33-2.45-12.087-6.454-16.375l0.013 0.014-151-151.040h486.040c110.457 0 200 89.543 200 200s-89.543 200-200 200v0h-352c-13.255 0-24 10.745-24 24s10.745 24 24 24v0h352c136.903-0.159 247.841-111.097 248-247.985v-0.015z" />
<glyph unicode="&#xe97a;" glyph-name="arrow-u-down-right-light" data-tags="arrow-u-down-right-light" d="M912.96 271.040l-192-192c-4.274-3.991-10.032-6.441-16.361-6.441-13.255 0-24 10.745-24 24 0 6.33 2.45 12.087 6.454 16.375l-0.013-0.014 151 151.040h-486.040c-136.967 0-248 111.033-248 248s111.033 248 248 248v0h352c13.255 0 24-10.745 24-24s-10.745-24-24-24v0h-352c-110.457 0-200-89.543-200-200s89.543-200 200-200v0h486.040l-151 151.040c-3.991 4.274-6.441 10.032-6.441 16.361 0 13.255 10.745 24 24 24 6.33 0 12.087-2.45 16.375-6.454l-0.014 0.013 192-192c4.337-4.342 7.019-10.338 7.019-16.96s-2.682-12.618-7.019-16.96v0z" />
</font>
</defs>
</svg>
