<?xml version="1.0" standalone="no"?>
<!DOCTYPE svg PUBLIC "-//W3C//DTD SVG 1.1//EN" "http://www.w3.org/Graphics/SVG/1.1/DTD/svg11.dtd" >
<svg xmlns="http://www.w3.org/2000/svg">
<metadata>
<json>
<![CDATA[
{
	"fontFamily": "Phosphor-Thin",
	"majorVersion": 2,
	"minorVersion": 1,
	"fontURL": "https://phosphoricons.com",
	"description": "A flexible icon family for everyone\nFont generated by IcoMoon.",
	"copyright": "Phosphor Icons",
	"designer": "Tobias Fried & Helena Zhang",
	"designerURL": "https://phosphoricons.com",
	"license": "MIT",
	"licenseURL": "https://raw.githubusercontent.com/phosphor-icons/homepage/master/LICENSE",
	"version": "Version 2.1",
	"fontId": "Phosphor-Thin",
	"psName": "Phosphor-Thin",
	"subFamily": "Regular",
	"fullName": "Phosphor-Thin"
}
]]>
</json>
</metadata>
<defs>
<font id="Phosphor-Thin" horiz-adv-x="1024">
<font-face units-per-em="1024" ascent="960" descent="-64" />
<missing-glyph horiz-adv-x="1024" />
<glyph unicode="&#x20;" horiz-adv-x="512" d="" />
<glyph unicode="&#xe000;" glyph-name="pulse-thin, activity-thin" data-tags="pulse-thin" d="M944 448c0-8.837-7.163-16-16-16v0h-118.12l-155.56-311.16c-2.686-5.283-8.082-8.84-14.309-8.84-0.004 0-0.008 0-0.012 0h-0.799c-6.475 0.336-11.905 4.474-14.123 10.211l-0.037 0.109-242.36 636-144-317.12c-2.617-5.481-8.116-9.201-14.484-9.201-0.069 0-0.138 0-0.207 0.001h-127.99c-8.837 0-16 7.163-16 16s7.163 16 16 16v0h117.68l155.76 342.6c2.579 5.581 8.13 9.384 14.568 9.384 6.789 0 12.59-4.228 14.914-10.195l0.037-0.109 243.040-637.92 143.68 287.4c2.686 5.283 8.082 8.84 14.309 8.84 0.004 0 0.008 0 0.012 0h127.999c8.837 0 16-7.163 16-16v0z" />
<glyph unicode="&#xe002;" glyph-name="airplane-thin" data-tags="airplane-thin" d="M935.16 430.32l-311.16 155.56v182.12c0 61.856-50.144 112-112 112s-112-50.144-112-112v0-182.12l-311.16-155.56c-5.283-2.686-8.84-8.082-8.84-14.309 0-0.004 0-0.008 0-0.012v0.001-128c0.007-8.831 7.168-15.987 16-15.987 1.104 0 2.182 0.112 3.223 0.325l-0.103-0.018 300.88 60v-101.84l-59.32-59.16c-2.892-2.895-4.68-6.892-4.68-11.307 0-0.004 0-0.009 0-0.013v0.001-128c0.005-8.833 7.166-15.991 16-15.991 2.147 0 4.196 0.423 6.067 1.19l-0.107-0.039 154.040 61.6 154.040-61.6c1.738-0.734 3.759-1.16 5.88-1.16 0.028 0 0.056 0 0.084 0h-0.004c0.015 0 0.033 0 0.050 0 3.329 0 6.417 1.032 8.962 2.794l-0.052-0.034c4.268 2.914 7.034 7.753 7.040 13.239v128.001c0 0.004 0 0.008 0 0.013 0 4.415-1.788 8.413-4.68 11.308v0l-59.32 59.32v101.84l300.88-60c0.938-0.195 2.017-0.307 3.121-0.307 8.776 0 15.901 7.065 15.999 15.818v128.009c0 0.003 0 0.007 0 0.011 0 6.226-3.557 11.622-8.749 14.267l-0.091 0.042zM912 307.52l-300.88 60c-0.938 0.195-2.017 0.307-3.121 0.307-8.776 0-15.901-7.065-15.999-15.818v-128.009c0-0.004 0-0.008 0-0.013 0-4.415 1.788-8.413 4.68-11.308v0l59.32-59.32v-97.72l-138.040 55.2c-1.775 0.739-3.838 1.168-6 1.168s-4.225-0.429-6.106-1.206l0.106 0.039-137.96-55.2v97.72l59.32 59.32c2.892 2.895 4.68 6.892 4.68 11.307 0 0.004 0 0.009 0 0.013v-0.001 128c-0.007 8.831-7.168 15.987-16 15.987-1.104 0-2.182-0.112-3.223-0.325l0.103 0.018-300.88-60.16v98.6l311.16 155.56c5.283 2.686 8.84 8.082 8.84 14.309 0 0.004 0 0.008 0 0.012v-0.001 192c0 44.183 35.817 80 80 80s80-35.817 80-80v0-192c0-0.003 0-0.007 0-0.011 0-6.226 3.557-11.622 8.749-14.267l0.091-0.042 311.16-155.56z" />
<glyph unicode="&#xe004;" glyph-name="airplay-thin" data-tags="airplay-thin" d="M524 330.4c-2.952 3.424-7.294 5.578-12.14 5.578s-9.188-2.154-12.123-5.557l-0.017-0.021-192-224c-2.388-2.779-3.842-6.42-3.842-10.401 0-8.781 7.074-15.91 15.833-15.999h384.008c8.768 0.090 15.842 7.218 15.842 15.999 0 3.981-1.454 7.622-3.86 10.422l0.018-0.021zM354.8 112l157.2 183.4 157.2-183.4zM912 704v-448c0-44.183-35.817-80-80-80v0h-32c-8.837 0-16 7.163-16 16s7.163 16 16 16v0h32c26.51 0 48 21.49 48 48v0 448c0 26.51-21.49 48-48 48v0h-640c-26.51 0-48-21.49-48-48v0-448c0-26.51 21.49-48 48-48v0h32c8.837 0 16-7.163 16-16s-7.163-16-16-16v0h-32c-44.183 0-80 35.817-80 80v0 448c0 44.183 35.817 80 80 80v0h640c44.183 0 80-35.817 80-80v0z" />
<glyph unicode="&#xe006;" glyph-name="alarm-thin" data-tags="alarm-thin" d="M512 784c-203.241 0-368-164.759-368-368s164.759-368 368-368c203.241 0 368 164.759 368 368v0c-0.228 203.149-164.851 367.772-367.978 368h-0.022zM512 80c-185.568 0-336 150.432-336 336s150.432 336 336 336c185.568 0 336-150.432 336-336v0c-0.205-185.485-150.515-335.795-335.98-336h-0.020zM235.32 820.68l-128-128c-2.897-2.897-6.899-4.689-11.32-4.689-8.841 0-16.009 7.167-16.009 16.009 0 4.421 1.792 8.423 4.689 11.32v0l128 128c2.897 2.897 6.899 4.689 11.32 4.689 8.841 0 16.009-7.167 16.009-16.009 0-4.421-1.792-8.423-4.689-11.32v0zM939.32 692.68c-2.896-2.899-6.899-4.693-11.32-4.693s-8.424 1.793-11.32 4.692v0l-128 128c-2.897 2.897-4.689 6.899-4.689 11.32 0 8.841 7.167 16.009 16.009 16.009 4.421 0 8.423-1.792 11.32-4.689v0l128-128c2.899-2.896 4.693-6.899 4.693-11.32s-1.793-8.424-4.692-11.32v0zM752 416c0-8.837-7.163-16-16-16v0h-224c-8.837 0-16 7.163-16 16v0 224c0 8.837 7.163 16 16 16s16-7.163 16-16v0-208h208c8.837 0 16-7.163 16-16v0z" />
<glyph unicode="&#xe008;" glyph-name="android-logo-thin" data-tags="android-logo-thin" d="M688 368c0-17.673-14.327-32-32-32s-32 14.327-32 32c0 17.673 14.327 32 32 32v0c17.673 0 32-14.327 32-32v0zM368 400c-17.673 0-32-14.327-32-32s14.327-32 32-32c17.673 0 32 14.327 32 32v0c0 17.673-14.327 32-32 32v0zM944 320v-96c0-26.51-21.49-48-48-48v0h-768c-26.51 0-48 21.49-48 48v0 91.48c0 0.121 0 0.265 0 0.408 0 130.763 57.339 248.134 148.245 328.341l0.475 0.411-112 112c-2.897 2.897-4.689 6.899-4.689 11.32 0 8.841 7.167 16.009 16.009 16.009 4.421 0 8.423-1.792 11.32-4.689l114.28-114.28c70.475 54.031 159.813 86.69 256.768 87h1.592c0.356 0.001 0.778 0.002 1.199 0.002 97.305 0 187.037-32.423 258.982-87.054l-1.061 0.773 113.56 113.6c2.897 2.897 6.899 4.689 11.32 4.689 8.841 0 16.009-7.167 16.009-16.009 0-4.421-1.792-8.423-4.689-11.32l-111.32-111.24c7.12-6.24 14.080-12.68 20.84-19.44 78.535-77.78 127.162-185.637 127.162-304.852 0-0.404-0.001-0.807-0.002-1.21v0.062zM912 320c0 220.914-179.086 400-400 400v0h-1.4c-219.8-0.76-398.6-182.24-398.6-404.52v-91.48c0-8.837 7.163-16 16-16v0h768c8.837 0 16 7.163 16 16v0z" />
<glyph unicode="&#xe00a;" glyph-name="aperture-thin" data-tags="aperture-thin" d="M794.84 730.84c-72.507 73.127-173.006 118.399-284.079 118.399-220.914 0-400-179.086-400-400 0-111.073 45.272-211.572 118.371-284.051l0.028-0.027c72.507-73.127 173.006-118.399 284.079-118.399 220.914 0 400 179.086 400 400 0 111.073-45.272 211.572-118.371 284.051l-0.028 0.027zM836.32 273.76l-244 44.56 249.28 293.68c24.217-47.793 38.402-104.199 38.402-163.917 0-63.771-16.175-123.765-44.647-176.101l0.965 1.938zM383.48 471.48l84.52 99.56 128.56-23.44 44-123.080-84.56-99.56-128.56 23.44zM824.96 641.68l-160.52-189-129.44 362.52c122.526-7.93 227.926-74.649 289.061-171.986l0.899-1.534zM252 708c63.887 64.213 151.474 104.793 248.531 107.509l0.509 0.011 82.96-233.16-378.72 69.2c14.333 21.123 29.705 39.581 46.692 56.412l0.028 0.028zM188 622.040l244-44.56-249.6-293.48c-24.217 47.793-38.402 104.199-38.402 163.917 0 63.771 16.175 123.765 44.647 176.101l-0.965-1.938zM199.36 254.040l160.52 189 129.44-362.52c-122.526 7.93-227.926 74.649-289.061 171.986l-0.899 1.534zM772.52 187.52c-63.887-64.213-151.474-104.793-248.531-107.509l-0.509-0.011-83.48 233.64 378.88-69.2c-14.318-21.206-29.679-39.73-46.663-56.624l-0.017-0.016z" />
<glyph unicode="&#xe00c;" glyph-name="archive-thin" data-tags="archive-thin" d="M896 752h-768c-26.51 0-48-21.49-48-48v0-96c0-26.51 21.49-48 48-48v0h16v-368c0-26.51 21.49-48 48-48v0h640c26.51 0 48 21.49 48 48v0 368h16c26.51 0 48 21.49 48 48v0 96c0 26.51-21.49 48-48 48v0zM848 192c0-8.837-7.163-16-16-16v0h-640c-8.837 0-16 7.163-16 16v0 368h672zM912 608c0-8.837-7.163-16-16-16v0h-768c-8.837 0-16 7.163-16 16v0 96c0 8.837 7.163 16 16 16v0h768c8.837 0 16-7.163 16-16v0zM400 416c0 8.837 7.163 16 16 16v0h192c8.837 0 16-7.163 16-16s-7.163-16-16-16v0h-192c-8.837 0-16 7.163-16 16v0z" />
<glyph unicode="&#xe00e;" glyph-name="box-arrow-down-thin, archive-box-thin" data-tags="box-arrow-down-thin" d="M878.32 679.16l-64 128c-2.686 5.283-8.082 8.84-14.309 8.84-0.004 0-0.008 0-0.012 0h-575.999c-0.003 0-0.007 0-0.011 0-6.226 0-11.622-3.557-14.267-8.749l-0.042-0.091-64-128c-1.059-2.080-1.68-4.536-1.68-7.137 0-0.008 0-0.016 0-0.024v0.001-544c0-26.51 21.49-48 48-48v0h640c26.51 0 48 21.49 48 48v0 544c0 0.007 0 0.015 0 0.023 0 2.601-0.621 5.057-1.722 7.228l0.042-0.091zM233.88 784h556.24l48-96h-652.24zM832 112h-640c-8.837 0-16 7.163-16 16v0 528h672v-528c0-8.837-7.163-16-16-16v0zM651.32 363.32c2.899-2.896 4.693-6.899 4.693-11.32s-1.793-8.424-4.692-11.32v0l-128-128c-2.896-2.899-6.899-4.693-11.32-4.693s-8.424 1.793-11.32 4.692v0l-128 128c-2.897 2.897-4.689 6.899-4.689 11.32 0 8.841 7.167 16.009 16.009 16.009 4.421 0 8.423-1.792 11.32-4.689l100.68-100.68v281.36c0 8.837 7.163 16 16 16s16-7.163 16-16v0-281.36l100.68 100.68c2.896 2.899 6.899 4.693 11.32 4.693s8.424-1.793 11.32-4.692v0z" />
<glyph unicode="&#xe010;" glyph-name="tray-arrow-down-thin, archive-tray-thin" data-tags="tray-arrow-down-thin" d="M832 816h-640c-26.51 0-48-21.49-48-48v0-640c0-26.51 21.49-48 48-48v0h640c26.51 0 48 21.49 48 48v0 640c0 26.51-21.49 48-48 48v0zM192 784h640c8.837 0 16-7.163 16-16v0-432h-130.76c-13.245-0.001-25.236-5.366-33.92-14.040v0l-77.28-77.28c-2.888-2.885-6.875-4.672-11.279-4.68h-165.521c-4.405 0.008-8.392 1.795-11.28 4.68v0l-77.28 77.28c-8.684 8.675-20.675 14.039-33.92 14.040h-130.76v432c0 8.837 7.163 16 16 16v0zM832 112h-640c-8.837 0-16 7.163-16 16v0 176h130.76c4.405-0.008 8.392-1.795 11.28-4.68v0l77.28-77.28c8.684-8.675 20.675-14.039 33.92-14.040h165.52c13.245 0.001 25.236 5.366 33.92 14.040v0l77.28 77.28c2.888 2.885 6.875 4.672 11.279 4.68h130.761v-176c0-8.837-7.163-16-16-16v0zM372.68 468.68c-2.897 2.897-4.689 6.899-4.689 11.32 0 8.841 7.167 16.009 16.009 16.009 4.421 0 8.423-1.792 11.32-4.689l100.68-100.68v281.36c0 8.837 7.163 16 16 16s16-7.163 16-16v0-281.36l100.68 100.68c2.897 2.897 6.899 4.689 11.32 4.689 8.841 0 16.009-7.167 16.009-16.009 0-4.421-1.792-8.423-4.689-11.32l-128-128c-2.896-2.899-6.899-4.693-11.32-4.693s-8.424 1.793-11.32 4.692v0z" />
<glyph unicode="&#xe012;" glyph-name="armchair-thin" data-tags="armchair-thin" d="M848 591.080v80.92c0 79.529-64.471 144-144 144v0h-384c-79.529 0-144-64.471-144-144v0-80.92c-72.31-8.359-127.925-69.235-127.925-143.1s55.616-134.741 127.256-143.037l0.669-0.063v-144.88c0-26.51 21.49-48 48-48v0h576c26.51 0 48 21.49 48 48v0 144.88c72.31 8.359 127.925 69.235 127.925 143.1s-55.616 134.741-127.256 143.037l-0.669 0.063zM320 784h384c61.856 0 112-50.144 112-112v0-80.92c-72.335-8.323-127.985-69.2-128-143.079v-16.001h-352v16c-0.015 73.88-55.665 134.758-127.333 143.018l-0.667 0.062v80.92c0 61.856 50.144 112 112 112v0zM833.2 336h-1.2c-8.837 0-16-7.163-16-16v0-160c0-8.837-7.163-16-16-16v0h-576c-8.837 0-16 7.163-16 16v0 160c0 8.837-7.163 16-16 16v0h-1.2c-61.338 0.678-110.8 50.56-110.8 111.994 0 61.856 50.144 112 112 112 61.854 0 111.996-50.14 112-111.993v0-160c0-8.837 7.163-16 16-16s16 7.163 16 16v0 112h352v-112c0-8.837 7.163-16 16-16s16 7.163 16 16v0 160c0.004 61.853 50.146 111.994 112 111.994 61.856 0 112-50.144 112-112 0-61.434-49.462-111.315-110.736-111.993l-0.064-0.001z" />
<glyph unicode="&#xe014;" glyph-name="arrow-arc-left-thin" data-tags="arrow-arc-left-thin" d="M912 224c0-8.837-7.163-16-16-16s-16 7.163-16 16v0c-0.245 203.056-164.91 367.57-368 367.57-101.514 0-193.427-41.103-260.005-107.575l0.005 0.005-117.2-116h217.2c8.837 0 16-7.163 16-16s-7.163-16-16-16v0h-256c-8.837 0-16 7.163-16 16v0 256c0 8.837 7.163 16 16 16s16-7.163 16-16v0-217.56l117.2 116.44c72.382 72.36 172.364 117.115 282.8 117.115 220.912 0 399.997-179.083 400-399.995v0z" />
<glyph unicode="&#xe016;" glyph-name="arrow-arc-right-thin" data-tags="arrow-arc-right-thin" d="M944 608v-256c0-8.837-7.163-16-16-16v0h-256c-8.837 0-16 7.163-16 16s7.163 16 16 16v0h217.2l-116.96 116c-66.597 66.61-158.607 107.809-260.24 107.809-203.174 0-367.891-164.65-368-367.799v-0.011c0-8.837-7.163-16-16-16s-16 7.163-16 16v0c0.003 220.912 179.088 399.995 400 399.995 110.456 0 210.455-44.771 282.84-117.155v0l117.16-116.4v217.56c0 8.837 7.163 16 16 16s16-7.163 16-16v0z" />
<glyph unicode="&#xe018;" glyph-name="arrow-bend-down-left-thin" data-tags="arrow-bend-down-left-thin" d="M912 736c-0.25-220.813-179.187-399.75-399.976-400h-345.384l164.68-164.68c2.897-2.897 4.689-6.899 4.689-11.32 0-8.841-7.167-16.009-16.009-16.009-4.421 0-8.423 1.792-11.32 4.689l-192 192c-2.899 2.896-4.693 6.899-4.693 11.32s1.793 8.424 4.692 11.32v0l192 192c2.897 2.897 6.899 4.689 11.32 4.689 8.841 0 16.009-7.167 16.009-16.009 0-4.421-1.792-8.423-4.689-11.32l-164.68-164.68h345.36c203.149 0.228 367.772 164.851 368 367.978v0.022c0 8.837 7.163 16 16 16s16-7.163 16-16v0z" />
<glyph unicode="&#xe01a;" glyph-name="arrow-bend-down-right-thin" data-tags="arrow-bend-down-right-thin" d="M907.32 340.68l-192-192c-2.897-2.897-6.899-4.689-11.32-4.689-8.841 0-16.009 7.167-16.009 16.009 0 4.421 1.792 8.423 4.689 11.32l164.68 164.68h-345.36c-220.813 0.25-399.75 179.187-400 399.976v0.024c0 8.837 7.163 16 16 16s16-7.163 16-16v0c0.228-203.149 164.851-367.772 367.978-368h345.382l-164.68 164.68c-2.897 2.897-4.689 6.899-4.689 11.32 0 8.841 7.167 16.009 16.009 16.009 4.421 0 8.423-1.792 11.32-4.689l192-192c2.899-2.896 4.693-6.899 4.693-11.32s-1.793-8.424-4.692-11.32v0z" />
<glyph unicode="&#xe01c;" glyph-name="arrow-bend-left-down-thin" data-tags="arrow-bend-left-down-thin" d="M816 832c0-8.837-7.163-16-16-16v0c-203.149-0.228-367.772-164.851-368-367.978v-345.382l164.68 164.68c2.897 2.897 6.899 4.689 11.32 4.689 8.841 0 16.009-7.167 16.009-16.009 0-4.421-1.792-8.423-4.689-11.32l-192-192c-2.896-2.899-6.899-4.693-11.32-4.693s-8.424 1.793-11.32 4.692v0l-192 192c-2.897 2.897-4.689 6.899-4.689 11.32 0 8.841 7.167 16.009 16.009 16.009 4.421 0 8.423-1.792 11.32-4.689l164.68-164.68v345.36c0.25 220.813 179.187 399.75 399.976 400h0.024c8.837 0 16-7.163 16-16v0z" />
<glyph unicode="&#xe01e;" glyph-name="arrow-bend-left-up-thin" data-tags="arrow-bend-left-up-thin" d="M816 64c0-8.837-7.163-16-16-16v0c-220.813 0.25-399.75 179.187-400 399.976v345.384l-164.68-164.68c-2.897-2.897-6.899-4.689-11.32-4.689-8.841 0-16.009 7.167-16.009 16.009 0 4.421 1.792 8.423 4.689 11.32l192 192c2.896 2.899 6.899 4.693 11.32 4.693s8.424-1.793 11.32-4.692v0l192-192c2.897-2.897 4.689-6.899 4.689-11.32 0-8.841-7.167-16.009-16.009-16.009-4.421 0-8.423 1.792-11.32 4.689l-164.68 164.68v-345.36c0.228-203.149 164.851-367.772 367.978-368h0.022c8.837 0 16-7.163 16-16v0z" />
<glyph unicode="&#xe020;" glyph-name="arrow-bend-right-down-thin" data-tags="arrow-bend-right-down-thin" d="M811.32 244.68l-192-192c-2.896-2.899-6.899-4.693-11.32-4.693s-8.424 1.793-11.32 4.692v0l-192 192c-2.897 2.897-4.689 6.899-4.689 11.32 0 8.841 7.167 16.009 16.009 16.009 4.421 0 8.423-1.792 11.32-4.689l164.68-164.68v345.36c-0.228 203.149-164.851 367.772-367.978 368h-0.022c-8.837 0-16 7.163-16 16s7.163 16 16 16v0c220.813-0.25 399.75-179.187 400-399.976v-345.384l164.68 164.68c2.897 2.897 6.899 4.689 11.32 4.689 8.841 0 16.009-7.167 16.009-16.009 0-4.421-1.792-8.423-4.689-11.32v0z" />
<glyph unicode="&#xe022;" glyph-name="arrow-bend-right-up-thin" data-tags="arrow-bend-right-up-thin" d="M811.32 628.68c-2.896-2.899-6.899-4.693-11.32-4.693s-8.424 1.793-11.32 4.692v0l-164.68 164.68v-345.36c-0.25-220.813-179.187-399.75-399.976-400h-0.024c-8.837 0-16 7.163-16 16s7.163 16 16 16v0c203.149 0.228 367.772 164.851 368 367.978v345.382l-164.68-164.68c-2.897-2.897-6.899-4.689-11.32-4.689-8.841 0-16.009 7.167-16.009 16.009 0 4.421 1.792 8.423 4.689 11.32l192 192c2.896 2.899 6.899 4.693 11.32 4.693s8.424-1.793 11.32-4.692v0l192-192c2.899-2.896 4.693-6.899 4.693-11.32s-1.793-8.424-4.692-11.32v0z" />
<glyph unicode="&#xe024;" glyph-name="arrow-bend-up-left-thin" data-tags="arrow-bend-up-left-thin" d="M912 160c0-8.837-7.163-16-16-16s-16 7.163-16 16v0c-0.228 203.149-164.851 367.772-367.978 368h-345.382l164.68-164.68c2.897-2.897 4.689-6.899 4.689-11.32 0-8.841-7.167-16.009-16.009-16.009-4.421 0-8.423 1.792-11.32 4.689l-192 192c-2.899 2.896-4.693 6.899-4.693 11.32s1.793 8.424 4.692 11.32v0l192 192c2.897 2.897 6.899 4.689 11.32 4.689 8.841 0 16.009-7.167 16.009-16.009 0-4.421-1.792-8.423-4.689-11.32l-164.68-164.68h345.36c220.813-0.25 399.75-179.187 400-399.976v-0.024z" />
<glyph unicode="&#xe026;" glyph-name="arrow-bend-up-right-thin" data-tags="arrow-bend-up-right-thin" d="M907.32 532.68l-192-192c-2.897-2.897-6.899-4.689-11.32-4.689-8.841 0-16.009 7.167-16.009 16.009 0 4.421 1.792 8.423 4.689 11.32l164.68 164.68h-345.36c-203.149-0.228-367.772-164.851-368-367.978v-0.022c0-8.837-7.163-16-16-16s-16 7.163-16 16v0c0.25 220.813 179.187 399.75 399.976 400h345.384l-164.68 164.68c-2.897 2.897-4.689 6.899-4.689 11.32 0 8.841 7.167 16.009 16.009 16.009 4.421 0 8.423-1.792 11.32-4.689l192-192c2.899-2.896 4.693-6.899 4.693-11.32s-1.793-8.424-4.692-11.32v0z" />
<glyph unicode="&#xe028;" glyph-name="arrow-circle-down-thin" data-tags="arrow-circle-down-thin" d="M512 848c-220.914 0-400-179.086-400-400s179.086-400 400-400c220.914 0 400 179.086 400 400v0c-0.25 220.813-179.187 399.75-399.976 400h-0.024zM512 80c-203.241 0-368 164.759-368 368s164.759 368 368 368c203.241 0 368-164.759 368-368v0c-0.228-203.149-164.851-367.772-367.978-368h-0.022zM651.32 427.32c2.899-2.896 4.693-6.899 4.693-11.32s-1.793-8.424-4.692-11.32v0l-128-128c-2.896-2.899-6.899-4.693-11.32-4.693s-8.424 1.793-11.32 4.692v0l-128 128c-2.897 2.897-4.689 6.899-4.689 11.32 0 8.841 7.167 16.009 16.009 16.009 4.421 0 8.423-1.792 11.32-4.689l100.68-100.68v281.36c0 8.837 7.163 16 16 16s16-7.163 16-16v0-281.36l100.68 100.68c2.896 2.899 6.899 4.693 11.32 4.693s8.424-1.793 11.32-4.692v0z" />
<glyph unicode="&#xe02a;" glyph-name="arrow-circle-down-left-thin" data-tags="arrow-circle-down-left-thin" d="M512 848c-220.914 0-400-179.086-400-400s179.086-400 400-400c220.914 0 400 179.086 400 400v0c-0.25 220.813-179.187 399.75-399.976 400h-0.024zM512 80c-203.241 0-368 164.759-368 368s164.759 368 368 368c203.241 0 368-164.759 368-368v0c-0.228-203.149-164.851-367.772-367.978-368h-0.022zM651.32 587.32c2.899-2.896 4.693-6.899 4.693-11.32s-1.793-8.424-4.692-11.32v0l-228.68-228.68h153.36c8.837 0 16-7.163 16-16s-7.163-16-16-16v0h-192c-8.837 0-16 7.163-16 16v0 192c0 8.837 7.163 16 16 16s16-7.163 16-16v0-153.36l228.68 228.68c2.896 2.899 6.899 4.693 11.32 4.693s8.424-1.793 11.32-4.692v0z" />
<glyph unicode="&#xe02c;" glyph-name="arrow-circle-down-right-thin" data-tags="arrow-circle-down-right-thin" d="M512 848c-220.914 0-400-179.086-400-400s179.086-400 400-400c220.914 0 400 179.086 400 400v0c-0.25 220.813-179.187 399.75-399.976 400h-0.024zM512 80c-203.241 0-368 164.759-368 368s164.759 368 368 368c203.241 0 368-164.759 368-368v0c-0.228-203.149-164.851-367.772-367.978-368h-0.022zM656 512v-192c0-8.837-7.163-16-16-16v0h-192c-8.837 0-16 7.163-16 16s7.163 16 16 16v0h153.36l-228.68 228.68c-2.897 2.897-4.689 6.899-4.689 11.32 0 8.841 7.167 16.009 16.009 16.009 4.421 0 8.423-1.792 11.32-4.689l228.68-228.68v153.36c0 8.837 7.163 16 16 16s16-7.163 16-16v0z" />
<glyph unicode="&#xe02e;" glyph-name="arrow-circle-right-thin" data-tags="arrow-circle-right-thin" d="M512 848c-220.914 0-400-179.086-400-400s179.086-400 400-400c220.914 0 400 179.086 400 400v0c-0.25 220.813-179.187 399.75-399.976 400h-0.024zM512 80c-203.241 0-368 164.759-368 368s164.759 368 368 368c203.241 0 368-164.759 368-368v0c-0.228-203.149-164.851-367.772-367.978-368h-0.022zM683.32 459.32c2.899-2.896 4.693-6.899 4.693-11.32s-1.793-8.424-4.692-11.32v0l-128-128c-2.897-2.897-6.899-4.689-11.32-4.689-8.841 0-16.009 7.167-16.009 16.009 0 4.421 1.792 8.423 4.689 11.32l100.68 100.68h-281.36c-8.837 0-16 7.163-16 16s7.163 16 16 16v0h281.36l-100.68 100.68c-2.897 2.897-4.689 6.899-4.689 11.32 0 8.841 7.167 16.009 16.009 16.009 4.421 0 8.423-1.792 11.32-4.689v0z" />
<glyph unicode="&#xe030;" glyph-name="arrow-circle-up-thin" data-tags="arrow-circle-up-thin" d="M512 848c-220.914 0-400-179.086-400-400s179.086-400 400-400c220.914 0 400 179.086 400 400v0c-0.25 220.813-179.187 399.75-399.976 400h-0.024zM512 80c-203.241 0-368 164.759-368 368s164.759 368 368 368c203.241 0 368-164.759 368-368v0c-0.228-203.149-164.851-367.772-367.978-368h-0.022zM651.32 491.32c2.897-2.897 4.689-6.899 4.689-11.32 0-8.841-7.167-16.009-16.009-16.009-4.421 0-8.423 1.792-11.32 4.689l-100.68 100.68v-281.36c0-8.837-7.163-16-16-16s-16 7.163-16 16v0 281.36l-100.68-100.68c-2.897-2.897-6.899-4.689-11.32-4.689-8.841 0-16.009 7.167-16.009 16.009 0 4.421 1.792 8.423 4.689 11.32l128 128c2.896 2.899 6.899 4.693 11.32 4.693s8.424-1.793 11.32-4.692v0z" />
<glyph unicode="&#xe032;" glyph-name="arrow-circle-up-left-thin" data-tags="arrow-circle-up-left-thin" d="M512 848c-220.914 0-400-179.086-400-400s179.086-400 400-400c220.914 0 400 179.086 400 400v0c-0.25 220.813-179.187 399.75-399.976 400h-0.024zM512 80c-203.241 0-368 164.759-368 368s164.759 368 368 368c203.241 0 368-164.759 368-368v0c-0.228-203.149-164.851-367.772-367.978-368h-0.022zM651.32 331.32c2.897-2.897 4.689-6.899 4.689-11.32 0-8.841-7.167-16.009-16.009-16.009-4.421 0-8.423 1.792-11.32 4.689l-228.68 228.68v-153.36c0-8.837-7.163-16-16-16s-16 7.163-16 16v0 192c0 8.837 7.163 16 16 16v0h192c8.837 0 16-7.163 16-16s-7.163-16-16-16v0h-153.36z" />
<glyph unicode="&#xe034;" glyph-name="arrow-circle-up-right-thin" data-tags="arrow-circle-up-right-thin" d="M512 848c-220.914 0-400-179.086-400-400s179.086-400 400-400c220.914 0 400 179.086 400 400v0c-0.25 220.813-179.187 399.75-399.976 400h-0.024zM512 80c-203.241 0-368 164.759-368 368s164.759 368 368 368c203.241 0 368-164.759 368-368v0c-0.228-203.149-164.851-367.772-367.978-368h-0.022zM656 576v-192c0-8.837-7.163-16-16-16s-16 7.163-16 16v0 153.36l-228.68-228.68c-2.897-2.897-6.899-4.689-11.32-4.689-8.841 0-16.009 7.167-16.009 16.009 0 4.421 1.792 8.423 4.689 11.32l228.68 228.68h-153.36c-8.837 0-16 7.163-16 16s7.163 16 16 16v0h192c8.837 0 16-7.163 16-16v0z" />
<glyph unicode="&#xe036;" glyph-name="arrow-clockwise-thin" data-tags="arrow-clockwise-thin" d="M944 736v-192c0-8.837-7.163-16-16-16v0h-192c-8.837 0-16 7.163-16 16s7.163 16 16 16v0h150.8l-137.2 125.72c-60.801 60.784-144.787 98.379-237.555 98.379-185.568 0-336-150.432-336-336s150.432-336 336-336c89.336 0 170.53 34.865 230.715 91.731l-0.16-0.15c2.862 2.709 6.737 4.375 11 4.375 8.845 0 16.015-7.17 16.015-16.015 0-4.582-1.924-8.714-5.008-11.633l-0.007-0.007c-65.426-62.164-154.102-100.401-251.708-100.401-0.314 0-0.627 0-0.941 0.001h-4.991c-200.953 2.98-362.712 166.581-362.712 367.962 0 203.241 164.759 368 368 368 101.39 0 193.203-41.003 259.762-107.332l-0.010 0.010 140-128.2v155.56c0 8.837 7.163 16 16 16s16-7.163 16-16v0z" />
<glyph unicode="&#xe038;" glyph-name="arrow-counter-clockwise-thin" data-tags="arrow-counter-clockwise-thin" d="M880 448c0-0.010 0-0.021 0-0.033 0-201.511-161.967-365.193-362.819-367.964l-0.261-0.003h-4.92c-0.222 0-0.485-0.001-0.748-0.001-97.627 0-186.323 38.236-251.93 100.55l0.158-0.149c-3.091 2.926-5.015 7.058-5.015 11.64 0 8.845 7.17 16.015 16.015 16.015 4.263 0 8.138-1.666 11.007-4.382l-0.007 0.007c60.020-56.692 141.197-91.542 230.513-91.542 185.568 0 336 150.432 336 336s-150.432 336-336 336c-92.787 0-176.789-37.61-237.593-98.417v0l-0.52-0.48-136.68-125.24h150.8c8.837 0 16-7.163 16-16s-7.163-16-16-16v0h-192c-8.837 0-16 7.163-16 16v0 192c0 8.837 7.163 16 16 16s16-7.163 16-16v0-155.56l140 128c66.573 66.467 158.487 107.57 260 107.57 203.241 0 368-164.759 368-368 0-0.003 0-0.007 0-0.010v0.001z" />
<glyph unicode="&#xe03a;" glyph-name="arrow-bend-double-up-left-thin" data-tags="arrow-bend-double-up-left-thin" d="M331.32 363.32c2.897-2.897 4.689-6.899 4.689-11.32 0-8.841-7.167-16.009-16.009-16.009-4.421 0-8.423 1.792-11.32 4.689l-192 192c-2.899 2.896-4.693 6.899-4.693 11.32s1.793 8.424 4.692 11.32v0l192 192c2.897 2.897 6.899 4.689 11.32 4.689 8.841 0 16.009-7.167 16.009-16.009 0-4.421-1.792-8.423-4.689-11.32l-180.68-180.68zM512 560h-153.36l164.68 164.68c2.897 2.897 4.689 6.899 4.689 11.32 0 8.841-7.167 16.009-16.009 16.009-4.421 0-8.423-1.792-11.32-4.689l-192-192c-2.899-2.896-4.693-6.899-4.693-11.32s1.793-8.424 4.692-11.32v0l192-192c2.897-2.897 6.899-4.689 11.32-4.689 8.841 0 16.009 7.167 16.009 16.009 0 4.421-1.792 8.423-4.689 11.32l-164.68 164.68h153.36c203.149-0.228 367.772-164.851 368-367.978v-0.022c0-8.837 7.163-16 16-16s16 7.163 16 16v0c-0.25 220.813-179.187 399.75-399.976 400h-0.024z" />
<glyph unicode="&#xe03c;" glyph-name="arrow-bend-double-up-right-thin" data-tags="arrow-bend-double-up-right-thin" d="M907.32 532.68l-192-192c-2.897-2.897-6.899-4.689-11.32-4.689-8.841 0-16.009 7.167-16.009 16.009 0 4.421 1.792 8.423 4.689 11.32l180.68 180.68-180.68 180.68c-2.897 2.897-4.689 6.899-4.689 11.32 0 8.841 7.167 16.009 16.009 16.009 4.421 0 8.423-1.792 11.32-4.689l192-192c2.899-2.896 4.693-6.899 4.693-11.32s-1.793-8.424-4.692-11.32v0zM715.32 555.32l-192 192c-2.897 2.897-6.899 4.689-11.32 4.689-8.841 0-16.009-7.167-16.009-16.009 0-4.421 1.792-8.423 4.689-11.32l164.68-164.68h-153.36c-220.813-0.25-399.75-179.187-400-399.976v-0.024c0-8.837 7.163-16 16-16s16 7.163 16 16v0c0.228 203.149 164.851 367.772 367.978 368h153.382l-164.68-164.68c-2.897-2.897-4.689-6.899-4.689-11.32 0-8.841 7.167-16.009 16.009-16.009 4.421 0 8.423 1.792 11.32 4.689l192 192c2.899 2.896 4.693 6.899 4.693 11.32s-1.793 8.424-4.692 11.32v0z" />
<glyph unicode="&#xe03e;" glyph-name="arrow-down-thin" data-tags="arrow-down-thin" d="M811.32 372.68l-288-288c-2.896-2.899-6.899-4.693-11.32-4.693s-8.424 1.793-11.32 4.692v0l-288 288c-2.897 2.897-4.689 6.899-4.689 11.32 0 8.841 7.167 16.009 16.009 16.009 4.421 0 8.423-1.792 11.32-4.689l260.68-260.68v665.36c0 8.837 7.163 16 16 16s16-7.163 16-16v0-665.36l260.68 260.68c2.897 2.897 6.899 4.689 11.32 4.689 8.841 0 16.009-7.167 16.009-16.009 0-4.421-1.792-8.423-4.689-11.32v0z" />
<glyph unicode="&#xe040;" glyph-name="arrow-down-left-thin" data-tags="arrow-down-left-thin" d="M779.32 692.68l-484.68-484.68h377.36c8.837 0 16-7.163 16-16s-7.163-16-16-16v0h-416c-8.837 0-16 7.163-16 16v0 416c0 8.837 7.163 16 16 16s16-7.163 16-16v0-377.36l484.68 484.68c2.897 2.897 6.899 4.689 11.32 4.689 8.841 0 16.009-7.167 16.009-16.009 0-4.421-1.792-8.423-4.689-11.32v0z" />
<glyph unicode="&#xe042;" glyph-name="arrow-down-right-thin" data-tags="arrow-down-right-thin" d="M784 608v-416c0-8.837-7.163-16-16-16v0h-416c-8.837 0-16 7.163-16 16s7.163 16 16 16v0h377.36l-484.68 484.68c-2.897 2.897-4.689 6.899-4.689 11.32 0 8.841 7.167 16.009 16.009 16.009 4.421 0 8.423-1.792 11.32-4.689l484.68-484.68v377.36c0 8.837 7.163 16 16 16s16-7.163 16-16v0z" />
<glyph unicode="&#xe044;" glyph-name="arrow-elbow-down-left-thin" data-tags="arrow-elbow-down-left-thin" d="M784 832v-576c0-8.837-7.163-16-16-16v0h-537.36l164.68-164.68c2.897-2.897 4.689-6.899 4.689-11.32 0-8.841-7.167-16.009-16.009-16.009-4.421 0-8.423 1.792-11.32 4.689l-192 192c-2.899 2.896-4.693 6.899-4.693 11.32s1.793 8.424 4.692 11.32v0l192 192c2.897 2.897 6.899 4.689 11.32 4.689 8.841 0 16.009-7.167 16.009-16.009 0-4.421-1.792-8.423-4.689-11.32l-164.68-164.68h521.36v560c0 8.837 7.163 16 16 16s16-7.163 16-16v0z" />
<glyph unicode="&#xe046;" glyph-name="arrow-elbow-down-right-thin" data-tags="arrow-elbow-down-right-thin" d="M875.32 244.68l-192-192c-2.897-2.897-6.899-4.689-11.32-4.689-8.841 0-16.009 7.167-16.009 16.009 0 4.421 1.792 8.423 4.689 11.32l164.68 164.68h-537.36c-8.837 0-16 7.163-16 16v0 576c0 8.837 7.163 16 16 16s16-7.163 16-16v0-560h521.36l-164.68 164.68c-2.897 2.897-4.689 6.899-4.689 11.32 0 8.841 7.167 16.009 16.009 16.009 4.421 0 8.423-1.792 11.32-4.689l192-192c2.899-2.896 4.693-6.899 4.693-11.32s-1.793-8.424-4.692-11.32v0z" />
<glyph unicode="&#xe048;" glyph-name="arrow-elbow-left-thin" data-tags="arrow-elbow-left-thin" d="M939.32 564.68l-384-384c-2.896-2.899-6.899-4.693-11.32-4.693s-8.424 1.793-11.32 4.692v0l-420.68 420.68v-249.36c0-8.837-7.163-16-16-16s-16 7.163-16 16v0 288c0 8.837 7.163 16 16 16v0h288c8.837 0 16-7.163 16-16s-7.163-16-16-16v0h-249.36l409.36-409.36 372.68 372.68c2.897 2.897 6.899 4.689 11.32 4.689 8.841 0 16.009-7.167 16.009-16.009 0-4.421-1.792-8.423-4.689-11.32v0z" />
<glyph unicode="&#xe04a;" glyph-name="arrow-elbow-left-down-thin" data-tags="arrow-elbow-left-down-thin" d="M944 672c0-8.837-7.163-16-16-16v0h-560v-521.36l164.68 164.68c2.897 2.897 6.899 4.689 11.32 4.689 8.841 0 16.009-7.167 16.009-16.009 0-4.421-1.792-8.423-4.689-11.32l-192-192c-2.896-2.899-6.899-4.693-11.32-4.693s-8.424 1.793-11.32 4.692v0l-192 192c-2.897 2.897-4.689 6.899-4.689 11.32 0 8.841 7.167 16.009 16.009 16.009 4.421 0 8.423-1.792 11.32-4.689l164.68-164.68v537.36c0 8.837 7.163 16 16 16v0h576c8.837 0 16-7.163 16-16v0z" />
<glyph unicode="&#xe04c;" glyph-name="arrow-elbow-left-up-thin" data-tags="arrow-elbow-left-up-thin" d="M944 192c0-8.837-7.163-16-16-16v0h-576c-8.837 0-16 7.163-16 16v0 537.36l-164.68-164.68c-2.897-2.897-6.899-4.689-11.32-4.689-8.841 0-16.009 7.167-16.009 16.009 0 4.421 1.792 8.423 4.689 11.32l192 192c2.896 2.899 6.899 4.693 11.32 4.693s8.424-1.793 11.32-4.692v0l192-192c2.897-2.897 4.689-6.899 4.689-11.32 0-8.841-7.167-16.009-16.009-16.009-4.421 0-8.423 1.792-11.32 4.689l-164.68 164.68v-521.36h560c8.837 0 16-7.163 16-16v0z" />
<glyph unicode="&#xe04e;" glyph-name="arrow-elbow-right-thin" data-tags="arrow-elbow-right-thin" d="M944 640v-288c0-8.837-7.163-16-16-16s-16 7.163-16 16v0 249.36l-420.68-420.68c-2.896-2.899-6.899-4.693-11.32-4.693s-8.424 1.793-11.32 4.692v0l-384 384c-2.897 2.897-4.689 6.899-4.689 11.32 0 8.841 7.167 16.009 16.009 16.009 4.421 0 8.423-1.792 11.32-4.689v0l372.68-372.68 409.36 409.36h-249.36c-8.837 0-16 7.163-16 16s7.163 16 16 16v0h288c8.837 0 16-7.163 16-16v0z" />
<glyph unicode="&#xe050;" glyph-name="arrow-elbow-right-down-thin" data-tags="arrow-elbow-right-down-thin" d="M907.32 308.68l-192-192c-2.896-2.899-6.899-4.693-11.32-4.693s-8.424 1.793-11.32 4.692v0l-192 192c-2.897 2.897-4.689 6.899-4.689 11.32 0 8.841 7.167 16.009 16.009 16.009 4.421 0 8.423-1.792 11.32-4.689l164.68-164.68v521.36h-560c-8.837 0-16 7.163-16 16s7.163 16 16 16v0h576c8.837 0 16-7.163 16-16v0-537.36l164.68 164.68c2.897 2.897 6.899 4.689 11.32 4.689 8.841 0 16.009-7.167 16.009-16.009 0-4.421-1.792-8.423-4.689-11.32v0z" />
<glyph unicode="&#xe052;" glyph-name="arrow-elbow-right-up-thin" data-tags="arrow-elbow-right-up-thin" d="M875.32 564.68c-2.896-2.899-6.899-4.693-11.32-4.693s-8.424 1.793-11.32 4.692v0l-164.68 164.68v-537.36c0-8.837-7.163-16-16-16v0h-576c-8.837 0-16 7.163-16 16s7.163 16 16 16v0h560v521.36l-164.68-164.68c-2.897-2.897-6.899-4.689-11.32-4.689-8.841 0-16.009 7.167-16.009 16.009 0 4.421 1.792 8.423 4.689 11.32l192 192c2.896 2.899 6.899 4.693 11.32 4.693s8.424-1.793 11.32-4.692v0l192-192c2.899-2.896 4.693-6.899 4.693-11.32s-1.793-8.424-4.692-11.32v0z" />
<glyph unicode="&#xe054;" glyph-name="arrow-elbow-up-left-thin" data-tags="arrow-elbow-up-left-thin" d="M784 640v-576c0-8.837-7.163-16-16-16s-16 7.163-16 16v0 560h-521.36l164.68-164.68c2.897-2.897 4.689-6.899 4.689-11.32 0-8.841-7.167-16.009-16.009-16.009-4.421 0-8.423 1.792-11.32 4.689l-192 192c-2.899 2.896-4.693 6.899-4.693 11.32s1.793 8.424 4.692 11.32v0l192 192c2.897 2.897 6.899 4.689 11.32 4.689 8.841 0 16.009-7.167 16.009-16.009 0-4.421-1.792-8.423-4.689-11.32l-164.68-164.68h537.36c8.837 0 16-7.163 16-16v0z" />
<glyph unicode="&#xe056;" glyph-name="arrow-elbow-up-right-thin" data-tags="arrow-elbow-up-right-thin" d="M875.32 628.68l-192-192c-2.897-2.897-6.899-4.689-11.32-4.689-8.841 0-16.009 7.167-16.009 16.009 0 4.421 1.792 8.423 4.689 11.32l164.68 164.68h-521.36v-560c0-8.837-7.163-16-16-16s-16 7.163-16 16v0 576c0 8.837 7.163 16 16 16v0h537.36l-164.68 164.68c-2.897 2.897-4.689 6.899-4.689 11.32 0 8.841 7.167 16.009 16.009 16.009 4.421 0 8.423-1.792 11.32-4.689v0l192-192c2.899-2.896 4.693-6.899 4.693-11.32s-1.793-8.424-4.692-11.32v0z" />
<glyph unicode="&#xe058;" glyph-name="arrow-left-thin" data-tags="arrow-left-thin" d="M880 448c0-8.837-7.163-16-16-16v0h-665.36l260.68-260.68c2.897-2.897 4.689-6.899 4.689-11.32 0-8.841-7.167-16.009-16.009-16.009-4.421 0-8.423 1.792-11.32 4.689l-288 288c-2.899 2.896-4.693 6.899-4.693 11.32s1.793 8.424 4.692 11.32v0l288 288c2.897 2.897 6.899 4.689 11.32 4.689 8.841 0 16.009-7.167 16.009-16.009 0-4.421-1.792-8.423-4.689-11.32l-260.68-260.68h665.36c8.837 0 16-7.163 16-16v0z" />
<glyph unicode="&#xe05a;" glyph-name="arrow-circle-left-thin" data-tags="arrow-circle-left-thin" d="M512 848c-220.914 0-400-179.086-400-400s179.086-400 400-400c220.914 0 400 179.086 400 400v0c-0.25 220.813-179.187 399.75-399.976 400h-0.024zM512 80c-203.241 0-368 164.759-368 368s164.759 368 368 368c203.241 0 368-164.759 368-368v0c-0.228-203.149-164.851-367.772-367.978-368h-0.022zM688 448c0-8.837-7.163-16-16-16v0h-281.36l100.68-100.68c2.897-2.897 4.689-6.899 4.689-11.32 0-8.841-7.167-16.009-16.009-16.009-4.421 0-8.423 1.792-11.32 4.689l-128 128c-2.899 2.896-4.693 6.899-4.693 11.32s1.793 8.424 4.692 11.32v0l128 128c2.897 2.897 6.899 4.689 11.32 4.689 8.841 0 16.009-7.167 16.009-16.009 0-4.421-1.792-8.423-4.689-11.32l-100.68-100.68h281.36c8.837 0 16-7.163 16-16v0z" />
<glyph unicode="&#xe05c;" glyph-name="arrow-line-down-thin" data-tags="arrow-line-down-thin" d="M212.68 500.68c-2.897 2.897-4.689 6.899-4.689 11.32 0 8.841 7.167 16.009 16.009 16.009 4.421 0 8.423-1.792 11.32-4.689l260.68-260.68v569.36c0 8.837 7.163 16 16 16s16-7.163 16-16v0-569.36l260.68 260.68c2.897 2.897 6.899 4.689 11.32 4.689 8.841 0 16.009-7.167 16.009-16.009 0-4.421-1.792-8.423-4.689-11.32l-288-288c-2.896-2.899-6.899-4.693-11.32-4.693s-8.424 1.793-11.32 4.692v0zM864 112h-704c-8.837 0-16-7.163-16-16s7.163-16 16-16v0h704c8.837 0 16 7.163 16 16s-7.163 16-16 16v0z" />
<glyph unicode="&#xe05e;" glyph-name="arrow-line-down-left-thin" data-tags="arrow-line-down-left-thin" d="M912 768c0-8.837-7.163-16-16-16v0h-704c-8.837 0-16 7.163-16 16s7.163 16 16 16v0h704c8.837 0 16-7.163 16-16v0zM724.68 587.32l-420.68-420.68v345.36c0 8.837-7.163 16-16 16s-16-7.163-16-16v0-384c0-8.837 7.163-16 16-16v0h384c8.837 0 16 7.163 16 16s-7.163 16-16 16v0h-345.36l420.68 420.68c2.897 2.897 4.689 6.899 4.689 11.32 0 8.841-7.167 16.009-16.009 16.009-4.421 0-8.423-1.792-11.32-4.689v0z" />
<glyph unicode="&#xe060;" glyph-name="arrow-line-down-right-thin" data-tags="arrow-line-down-right-thin" d="M880 800c0-8.837-7.163-16-16-16v0h-704c-8.837 0-16 7.163-16 16s7.163 16 16 16v0h704c8.837 0 16-7.163 16-16v0zM768 560c-8.837 0-16-7.163-16-16v0-345.36l-420.68 420.68c-2.897 2.897-6.899 4.689-11.32 4.689-8.841 0-16.009-7.167-16.009-16.009 0-4.421 1.792-8.423 4.689-11.32l420.68-420.68h-345.36c-8.837 0-16-7.163-16-16s7.163-16 16-16v0h384c8.837 0 16 7.163 16 16v0 384c0 8.837-7.163 16-16 16v0z" />
<glyph unicode="&#xe062;" glyph-name="arrow-line-left-thin" data-tags="arrow-line-left-thin" d="M912 448c0-8.837-7.163-16-16-16v0h-569.36l260.68-260.68c2.897-2.897 4.689-6.899 4.689-11.32 0-8.841-7.167-16.009-16.009-16.009-4.421 0-8.423 1.792-11.32 4.689l-288 288c-2.899 2.896-4.693 6.899-4.693 11.32s1.793 8.424 4.692 11.32v0l288 288c2.897 2.897 6.899 4.689 11.32 4.689 8.841 0 16.009-7.167 16.009-16.009 0-4.421-1.792-8.423-4.689-11.32l-260.68-260.68h569.36c8.837 0 16-7.163 16-16v0zM160 816c-8.837 0-16-7.163-16-16v0-704c0-8.837 7.163-16 16-16s16 7.163 16 16v0 704c0 8.837-7.163 16-16 16v0z" />
<glyph unicode="&#xe064;" glyph-name="arrow-line-right-thin" data-tags="arrow-line-right-thin" d="M747.32 459.32c2.899-2.896 4.693-6.899 4.693-11.32s-1.793-8.424-4.692-11.32v0l-288-288c-2.897-2.897-6.899-4.689-11.32-4.689-8.841 0-16.009 7.167-16.009 16.009 0 4.421 1.792 8.423 4.689 11.32l260.68 260.68h-569.36c-8.837 0-16 7.163-16 16s7.163 16 16 16v0h569.36l-260.68 260.68c-2.897 2.897-4.689 6.899-4.689 11.32 0 8.841 7.167 16.009 16.009 16.009 4.421 0 8.423-1.792 11.32-4.689v0zM864 816c-8.837 0-16-7.163-16-16v0-704c0-8.837 7.163-16 16-16s16 7.163 16 16v0 704c0 8.837-7.163 16-16 16v0z" />
<glyph unicode="&#xe066;" glyph-name="arrow-line-up-thin" data-tags="arrow-line-up-thin" d="M811.32 395.32c2.897-2.897 4.689-6.899 4.689-11.32 0-8.841-7.167-16.009-16.009-16.009-4.421 0-8.423 1.792-11.32 4.689l-260.68 260.68v-569.36c0-8.837-7.163-16-16-16s-16 7.163-16 16v0 569.36l-260.68-260.68c-2.897-2.897-6.899-4.689-11.32-4.689-8.841 0-16.009 7.167-16.009 16.009 0 4.421 1.792 8.423 4.689 11.32l288 288c2.896 2.899 6.899 4.693 11.32 4.693s8.424-1.793 11.32-4.692v0zM864 816h-704c-8.837 0-16-7.163-16-16s7.163-16 16-16v0h704c8.837 0 16 7.163 16 16s-7.163 16-16 16v0z" />
<glyph unicode="&#xe068;" glyph-name="arrow-line-up-left-thin" data-tags="arrow-line-up-left-thin" d="M912 128c0-8.837-7.163-16-16-16v0h-704c-8.837 0-16 7.163-16 16s7.163 16 16 16v0h704c8.837 0 16-7.163 16-16v0zM288 368c8.837 0 16 7.163 16 16v0 345.36l420.68-420.68c2.897-2.897 6.899-4.689 11.32-4.689 8.841 0 16.009 7.167 16.009 16.009 0 4.421-1.792 8.423-4.689 11.32l-420.68 420.68h345.36c8.837 0 16 7.163 16 16s-7.163 16-16 16v0h-384c-8.837 0-16-7.163-16-16v0-384c0-8.837 7.163-16 16-16v0z" />
<glyph unicode="&#xe06a;" glyph-name="arrow-line-up-right-thin" data-tags="arrow-line-up-right-thin" d="M880 96c0-8.837-7.163-16-16-16v0h-704c-8.837 0-16 7.163-16 16s7.163 16 16 16v0h704c8.837 0 16-7.163 16-16v0zM320 272c0.004 0 0.008 0 0.013 0 4.415 0 8.413 1.788 11.308 4.68v0l420.68 420.68v-345.36c0-8.837 7.163-16 16-16s16 7.163 16 16v0 384c0 8.837-7.163 16-16 16v0h-384c-8.837 0-16-7.163-16-16s7.163-16 16-16v0h345.36l-420.68-420.68c-2.899-2.896-4.693-6.899-4.693-11.32 0-8.837 7.163-16 16-16 0.004 0 0.009 0 0.013 0h-0.001z" />
<glyph unicode="&#xe06c;" glyph-name="arrow-right-thin" data-tags="arrow-right-thin" d="M875.32 436.68l-288-288c-2.897-2.897-6.899-4.689-11.32-4.689-8.841 0-16.009 7.167-16.009 16.009 0 4.421 1.792 8.423 4.689 11.32l260.68 260.68h-665.36c-8.837 0-16 7.163-16 16s7.163 16 16 16v0h665.36l-260.68 260.68c-2.897 2.897-4.689 6.899-4.689 11.32 0 8.841 7.167 16.009 16.009 16.009 4.421 0 8.423-1.792 11.32-4.689l288-288c2.899-2.896 4.693-6.899 4.693-11.32s-1.793-8.424-4.692-11.32v0z" />
<glyph unicode="&#xe06e;" glyph-name="arrow-square-down-thin" data-tags="arrow-square-down-thin" d="M832 816h-640c-26.51 0-48-21.49-48-48v0-640c0-26.51 21.49-48 48-48v0h640c26.51 0 48 21.49 48 48v0 640c0 26.51-21.49 48-48 48v0zM848 128c0-8.837-7.163-16-16-16v0h-640c-8.837 0-16 7.163-16 16v0 640c0 8.837 7.163 16 16 16v0h640c8.837 0 16-7.163 16-16v0zM651.32 427.32c2.899-2.896 4.693-6.899 4.693-11.32s-1.793-8.424-4.692-11.32v0l-128-128c-2.896-2.899-6.899-4.693-11.32-4.693s-8.424 1.793-11.32 4.692v0l-128 128c-2.897 2.897-4.689 6.899-4.689 11.32 0 8.841 7.167 16.009 16.009 16.009 4.421 0 8.423-1.792 11.32-4.689l100.68-100.68v281.36c0 8.837 7.163 16 16 16s16-7.163 16-16v0-281.36l100.68 100.68c2.896 2.899 6.899 4.693 11.32 4.693s8.424-1.793 11.32-4.692v0z" />
<glyph unicode="&#xe070;" glyph-name="arrow-square-down-left-thin" data-tags="arrow-square-down-left-thin" d="M832 816h-640c-26.51 0-48-21.49-48-48v0-640c0-26.51 21.49-48 48-48v0h640c26.51 0 48 21.49 48 48v0 640c0 26.51-21.49 48-48 48v0zM848 128c0-8.837-7.163-16-16-16v0h-640c-8.837 0-16 7.163-16 16v0 640c0 8.837 7.163 16 16 16v0h640c8.837 0 16-7.163 16-16v0zM651.32 587.32c2.899-2.896 4.693-6.899 4.693-11.32s-1.793-8.424-4.692-11.32v0l-228.68-228.68h153.36c8.837 0 16-7.163 16-16s-7.163-16-16-16v0h-192c-8.837 0-16 7.163-16 16v0 192c0 8.837 7.163 16 16 16s16-7.163 16-16v0-153.36l228.68 228.68c2.896 2.899 6.899 4.693 11.32 4.693s8.424-1.793 11.32-4.692v0z" />
<glyph unicode="&#xe072;" glyph-name="arrow-square-down-right-thin" data-tags="arrow-square-down-right-thin" d="M832 816h-640c-26.51 0-48-21.49-48-48v0-640c0-26.51 21.49-48 48-48v0h640c26.51 0 48 21.49 48 48v0 640c0 26.51-21.49 48-48 48v0zM848 128c0-8.837-7.163-16-16-16v0h-640c-8.837 0-16 7.163-16 16v0 640c0 8.837 7.163 16 16 16v0h640c8.837 0 16-7.163 16-16v0zM656 512v-192c0-8.837-7.163-16-16-16v0h-192c-8.837 0-16 7.163-16 16s7.163 16 16 16v0h153.36l-228.68 228.68c-2.897 2.897-4.689 6.899-4.689 11.32 0 8.841 7.167 16.009 16.009 16.009 4.421 0 8.423-1.792 11.32-4.689l228.68-228.68v153.36c0 8.837 7.163 16 16 16s16-7.163 16-16v0z" />
<glyph unicode="&#xe074;" glyph-name="arrow-square-left-thin" data-tags="arrow-square-left-thin" d="M832 816h-640c-26.51 0-48-21.49-48-48v0-640c0-26.51 21.49-48 48-48v0h640c26.51 0 48 21.49 48 48v0 640c0 26.51-21.49 48-48 48v0zM848 128c0-8.837-7.163-16-16-16v0h-640c-8.837 0-16 7.163-16 16v0 640c0 8.837 7.163 16 16 16v0h640c8.837 0 16-7.163 16-16v0zM688 448c0-8.837-7.163-16-16-16v0h-281.36l100.68-100.68c2.897-2.897 4.689-6.899 4.689-11.32 0-8.841-7.167-16.009-16.009-16.009-4.421 0-8.423 1.792-11.32 4.689l-128 128c-2.899 2.896-4.693 6.899-4.693 11.32s1.793 8.424 4.692 11.32v0l128 128c2.897 2.897 6.899 4.689 11.32 4.689 8.841 0 16.009-7.167 16.009-16.009 0-4.421-1.792-8.423-4.689-11.32l-100.68-100.68h281.36c8.837 0 16-7.163 16-16v0z" />
<glyph unicode="&#xe076;" glyph-name="arrow-square-right-thin" data-tags="arrow-square-right-thin" d="M832 816h-640c-26.51 0-48-21.49-48-48v0-640c0-26.51 21.49-48 48-48v0h640c26.51 0 48 21.49 48 48v0 640c0 26.51-21.49 48-48 48v0zM848 128c0-8.837-7.163-16-16-16v0h-640c-8.837 0-16 7.163-16 16v0 640c0 8.837 7.163 16 16 16v0h640c8.837 0 16-7.163 16-16v0zM683.32 459.32c2.899-2.896 4.693-6.899 4.693-11.32s-1.793-8.424-4.692-11.32v0l-128-128c-2.897-2.897-6.899-4.689-11.32-4.689-8.841 0-16.009 7.167-16.009 16.009 0 4.421 1.792 8.423 4.689 11.32l100.68 100.68h-281.36c-8.837 0-16 7.163-16 16s7.163 16 16 16v0h281.36l-100.68 100.68c-2.897 2.897-4.689 6.899-4.689 11.32 0 8.841 7.167 16.009 16.009 16.009 4.421 0 8.423-1.792 11.32-4.689v0z" />
<glyph unicode="&#xe078;" glyph-name="arrow-square-up-thin" data-tags="arrow-square-up-thin" d="M832 816h-640c-26.51 0-48-21.49-48-48v0-640c0-26.51 21.49-48 48-48v0h640c26.51 0 48 21.49 48 48v0 640c0 26.51-21.49 48-48 48v0zM848 128c0-8.837-7.163-16-16-16v0h-640c-8.837 0-16 7.163-16 16v0 640c0 8.837 7.163 16 16 16v0h640c8.837 0 16-7.163 16-16v0zM651.32 491.32c2.897-2.897 4.689-6.899 4.689-11.32 0-8.841-7.167-16.009-16.009-16.009-4.421 0-8.423 1.792-11.32 4.689l-100.68 100.68v-281.36c0-8.837-7.163-16-16-16s-16 7.163-16 16v0 281.36l-100.68-100.68c-2.897-2.897-6.899-4.689-11.32-4.689-8.841 0-16.009 7.167-16.009 16.009 0 4.421 1.792 8.423 4.689 11.32l128 128c2.896 2.899 6.899 4.693 11.32 4.693s8.424-1.793 11.32-4.692v0z" />
<glyph unicode="&#xe07a;" glyph-name="arrow-square-up-left-thin" data-tags="arrow-square-up-left-thin" d="M832 816h-640c-26.51 0-48-21.49-48-48v0-640c0-26.51 21.49-48 48-48v0h640c26.51 0 48 21.49 48 48v0 640c0 26.51-21.49 48-48 48v0zM848 128c0-8.837-7.163-16-16-16v0h-640c-8.837 0-16 7.163-16 16v0 640c0 8.837 7.163 16 16 16v0h640c8.837 0 16-7.163 16-16v0zM651.32 331.32c2.897-2.897 4.689-6.899 4.689-11.32 0-8.841-7.167-16.009-16.009-16.009-4.421 0-8.423 1.792-11.32 4.689l-228.68 228.68v-153.36c0-8.837-7.163-16-16-16s-16 7.163-16 16v0 192c0 8.837 7.163 16 16 16v0h192c8.837 0 16-7.163 16-16s-7.163-16-16-16v0h-153.36z" />
<glyph unicode="&#xe07c;" glyph-name="arrow-square-up-right-thin" data-tags="arrow-square-up-right-thin" d="M832 816h-640c-26.51 0-48-21.49-48-48v0-640c0-26.51 21.49-48 48-48v0h640c26.51 0 48 21.49 48 48v0 640c0 26.51-21.49 48-48 48v0zM848 128c0-8.837-7.163-16-16-16v0h-640c-8.837 0-16 7.163-16 16v0 640c0 8.837 7.163 16 16 16v0h640c8.837 0 16-7.163 16-16v0zM656 576v-192c0-8.837-7.163-16-16-16s-16 7.163-16 16v0 153.36l-228.68-228.68c-2.897-2.897-6.899-4.689-11.32-4.689-8.841 0-16.009 7.167-16.009 16.009 0 4.421 1.792 8.423 4.689 11.32l228.68 228.68h-153.36c-8.837 0-16 7.163-16 16s7.163 16 16 16v0h192c8.837 0 16-7.163 16-16v0z" />
<glyph unicode="&#xe07e;" glyph-name="arrow-u-down-left-thin" data-tags="arrow-u-down-left-thin" d="M912 512c-0.159-132.484-107.516-239.841-239.984-240h-505.376l164.68-164.68c2.897-2.897 4.689-6.899 4.689-11.32 0-8.841-7.167-16.009-16.009-16.009-4.421 0-8.423 1.792-11.32 4.689l-192 192c-2.899 2.896-4.693 6.899-4.693 11.32s1.793 8.424 4.692 11.32v0l192 192c2.897 2.897 6.899 4.689 11.32 4.689 8.841 0 16.009-7.167 16.009-16.009 0-4.421-1.792-8.423-4.689-11.32l-164.68-164.68h505.36c114.875 0 208 93.125 208 208s-93.125 208-208 208v0h-352c-8.837 0-16 7.163-16 16s7.163 16 16 16v0h352c132.484-0.159 239.841-107.516 240-239.984v-0.016z" />
<glyph unicode="&#xe080;" glyph-name="arrow-u-down-right-thin" data-tags="arrow-u-down-right-thin" d="M907.32 276.68l-192-192c-2.897-2.897-6.899-4.689-11.32-4.689-8.841 0-16.009 7.167-16.009 16.009 0 4.421 1.792 8.423 4.689 11.32l164.68 164.68h-505.36c-132.548 0-240 107.452-240 240s107.452 240 240 240v0h352c8.837 0 16-7.163 16-16s-7.163-16-16-16v0h-352c-114.875 0-208-93.125-208-208s93.125-208 208-208v0h505.36l-164.68 164.68c-2.897 2.897-4.689 6.899-4.689 11.32 0 8.841 7.167 16.009 16.009 16.009 4.421 0 8.423-1.792 11.32-4.689l192-192c2.899-2.896 4.693-6.899 4.693-11.32s-1.793-8.424-4.692-11.32v0z" />
<glyph unicode="&#xe082;" glyph-name="arrow-u-left-down-thin" data-tags="arrow-u-left-down-thin" d="M816 608v-352c0-8.837-7.163-16-16-16s-16 7.163-16 16v0 352c0 114.875-93.125 208-208 208s-208-93.125-208-208v0-505.36l164.68 164.68c2.897 2.897 6.899 4.689 11.32 4.689 8.841 0 16.009-7.167 16.009-16.009 0-4.421-1.792-8.423-4.689-11.32l-192-192c-2.896-2.899-6.899-4.693-11.32-4.693s-8.424 1.793-11.32 4.692v0l-192 192c-2.897 2.897-4.689 6.899-4.689 11.32 0 8.841 7.167 16.009 16.009 16.009 4.421 0 8.423-1.792 11.32-4.689l164.68-164.68v505.36c0 132.548 107.452 240 240 240s240-107.452 240-240v0z" />
<glyph unicode="&#xe084;" glyph-name="arrow-u-left-up-thin" data-tags="arrow-u-left-up-thin" d="M816 640v-352c0-132.548-107.452-240-240-240s-240 107.452-240 240v0 505.36l-164.68-164.68c-2.897-2.897-6.899-4.689-11.32-4.689-8.841 0-16.009 7.167-16.009 16.009 0 4.421 1.792 8.423 4.689 11.32l192 192c2.896 2.899 6.899 4.693 11.32 4.693s8.424-1.793 11.32-4.692v0l192-192c2.897-2.897 4.689-6.899 4.689-11.32 0-8.841-7.167-16.009-16.009-16.009-4.421 0-8.423 1.792-11.32 4.689l-164.68 164.68v-505.36c0-114.875 93.125-208 208-208s208 93.125 208 208v0 352c0 8.837 7.163 16 16 16s16-7.163 16-16v0z" />
<glyph unicode="&#xe086;" glyph-name="arrow-u-right-down-thin" data-tags="arrow-u-right-down-thin" d="M875.32 244.68l-192-192c-2.896-2.899-6.899-4.693-11.32-4.693s-8.424 1.793-11.32 4.692v0l-192 192c-2.897 2.897-4.689 6.899-4.689 11.32 0 8.841 7.167 16.009 16.009 16.009 4.421 0 8.423-1.792 11.32-4.689l164.68-164.68v505.36c0 114.875-93.125 208-208 208s-208-93.125-208-208v0-352c0-8.837-7.163-16-16-16s-16 7.163-16 16v0 352c0 132.548 107.452 240 240 240s240-107.452 240-240v0-505.36l164.68 164.68c2.897 2.897 6.899 4.689 11.32 4.689 8.841 0 16.009-7.167 16.009-16.009 0-4.421-1.792-8.423-4.689-11.32v0z" />
<glyph unicode="&#xe088;" glyph-name="arrow-u-right-up-thin" data-tags="arrow-u-right-up-thin" d="M875.32 628.68c-2.896-2.899-6.899-4.693-11.32-4.693s-8.424 1.793-11.32 4.692v0l-164.68 164.68v-505.36c0-132.548-107.452-240-240-240s-240 107.452-240 240v0 352c0 8.837 7.163 16 16 16s16-7.163 16-16v0-352c0-114.875 93.125-208 208-208s208 93.125 208 208v0 505.36l-164.68-164.68c-2.897-2.897-6.899-4.689-11.32-4.689-8.841 0-16.009 7.167-16.009 16.009 0 4.421 1.792 8.423 4.689 11.32l192 192c2.896 2.899 6.899 4.693 11.32 4.693s8.424-1.793 11.32-4.692v0l192-192c2.899-2.896 4.693-6.899 4.693-11.32s-1.793-8.424-4.692-11.32v0z" />
<glyph unicode="&#xe08a;" glyph-name="arrow-u-up-left-thin" data-tags="arrow-u-up-left-thin" d="M912 384c-0.159-132.484-107.516-239.841-239.984-240h-352.016c-8.837 0-16 7.163-16 16s7.163 16 16 16v0h352c114.875 0 208 93.125 208 208s-93.125 208-208 208v0h-505.36l164.68-164.68c2.897-2.897 4.689-6.899 4.689-11.32 0-8.841-7.167-16.009-16.009-16.009-4.421 0-8.423 1.792-11.32 4.689l-192 192c-2.899 2.896-4.693 6.899-4.693 11.32s1.793 8.424 4.692 11.32v0l192 192c2.897 2.897 6.899 4.689 11.32 4.689 8.841 0 16.009-7.167 16.009-16.009 0-4.421-1.792-8.423-4.689-11.32l-164.68-164.68h505.36c132.484-0.159 239.841-107.516 240-239.984v-0.016z" />
<glyph unicode="&#xe08c;" glyph-name="arrow-u-up-right-thin" data-tags="arrow-u-up-right-thin" d="M692.68 427.32l164.68 164.68h-505.36c-114.875 0-208-93.125-208-208s93.125-208 208-208v0h352c8.837 0 16-7.163 16-16s-7.163-16-16-16v0h-352c-132.548 0-240 107.452-240 240s107.452 240 240 240v0h505.36l-164.68 164.68c-2.897 2.897-4.689 6.899-4.689 11.32 0 8.841 7.167 16.009 16.009 16.009 4.421 0 8.423-1.792 11.32-4.689l192-192c2.899-2.896 4.693-6.899 4.693-11.32s-1.793-8.424-4.692-11.32v0l-192-192c-2.897-2.897-6.899-4.689-11.32-4.689-8.841 0-16.009 7.167-16.009 16.009 0 4.421 1.792 8.423 4.689 11.32v0z" />
<glyph unicode="&#xe08e;" glyph-name="arrow-up-thin" data-tags="arrow-up-thin" d="M811.32 500.68c-2.896-2.899-6.899-4.693-11.32-4.693s-8.424 1.793-11.32 4.692v0l-260.68 260.68v-665.36c0-8.837-7.163-16-16-16s-16 7.163-16 16v0 665.36l-260.68-260.68c-2.897-2.897-6.899-4.689-11.32-4.689-8.841 0-16.009 7.167-16.009 16.009 0 4.421 1.792 8.423 4.689 11.32l288 288c2.896 2.899 6.899 4.693 11.32 4.693s8.424-1.793 11.32-4.692v0l288-288c2.899-2.896 4.693-6.899 4.693-11.32s-1.793-8.424-4.692-11.32v0z" />
<glyph unicode="&#xe090;" glyph-name="arrow-up-left-thin" data-tags="arrow-up-left-thin" d="M779.32 180.68c-2.896-2.899-6.899-4.693-11.32-4.693s-8.424 1.793-11.32 4.692v0l-484.68 484.68v-377.36c0-8.837-7.163-16-16-16s-16 7.163-16 16v0 416c0 8.837 7.163 16 16 16v0h416c8.837 0 16-7.163 16-16s-7.163-16-16-16v0h-377.36l484.68-484.68c2.899-2.896 4.693-6.899 4.693-11.32s-1.793-8.424-4.692-11.32v0z" />
<glyph unicode="&#xe092;" glyph-name="arrow-up-right-thin" data-tags="arrow-up-right-thin" d="M784 704v-416c0-8.837-7.163-16-16-16s-16 7.163-16 16v0 377.36l-484.68-484.68c-2.897-2.897-6.899-4.689-11.32-4.689-8.841 0-16.009 7.167-16.009 16.009 0 4.421 1.792 8.423 4.689 11.32l484.68 484.68h-377.36c-8.837 0-16 7.163-16 16s7.163 16 16 16v0h416c8.837 0 16-7.163 16-16v0z" />
<glyph unicode="&#xe094;" glyph-name="arrows-clockwise-thin" data-tags="arrows-clockwise-thin" d="M880 768v-192c0-8.837-7.163-16-16-16v0h-192c-8.837 0-16 7.163-16 16s7.163 16 16 16v0h153.36l-85.8 85.84c-60.803 60.797-144.798 98.401-237.576 98.401-91.398 0-174.272-36.493-234.847-95.702l0.064 0.062c-2.885-2.826-6.839-4.57-11.2-4.57-8.842 0-16.010 7.168-16.010 16.010 0 4.481 1.841 8.531 4.807 11.437l0.003 0.003c66.274 64.78 157.041 104.747 257.142 104.747 101.622 0 193.622-41.191 260.218-107.787l85.84-85.8v153.36c0 8.837 7.163 16 16 16s16-7.163 16-16v0zM756.8 215.4c-60.179-59.135-142.761-95.641-233.87-95.641-0.299 0-0.598 0-0.897 0.001h-1.833c-92.156 0.291-175.484 37.85-235.748 98.388l-85.812 85.852h153.36c8.837 0 16 7.163 16 16s-7.163 16-16 16v0h-192c-8.837 0-16-7.163-16-16v0-192c0-8.837 7.163-16 16-16s16 7.163 16 16v0 153.36l85.84-85.8c65.991-66.331 157.239-107.479 258.099-107.8h2.101c0.256-0.001 0.559-0.001 0.862-0.001 99.824 0 190.309 39.986 256.312 104.814l-0.054-0.053c2.969 2.909 4.81 6.959 4.81 11.44 0 8.842-7.168 16.010-16.010 16.010-4.361 0-8.315-1.744-11.203-4.572l0.003 0.003z" />
<glyph unicode="&#xe096;" glyph-name="arrows-counter-clockwise-thin" data-tags="arrows-counter-clockwise-thin" d="M352 560h-192c-8.837 0-16 7.163-16 16v0 192c0 8.837 7.163 16 16 16s16-7.163 16-16v0-153.36l85.84 85.8c65.982 66.345 157.236 107.498 258.103 107.8h2.097c0.277 0.001 0.606 0.001 0.934 0.001 99.814 0 190.289-39.986 256.279-104.813l-0.053 0.052c2.969-2.909 4.81-6.959 4.81-11.44 0-8.842-7.168-16.010-16.010-16.010-4.361 0-8.315 1.744-11.203 4.572l0.003-0.003c-60.179 59.135-142.761 95.641-233.87 95.641-0.299 0-0.598 0-0.897-0.001h-1.833c-92.156-0.291-175.484-37.85-235.748-98.388l-85.812-85.852h153.36c8.837 0 16-7.163 16-16s-7.163-16-16-16v0zM864 336h-192c-8.837 0-16-7.163-16-16s7.163-16 16-16v0h153.36l-85.8-85.84c-60.23-60.504-143.477-98.053-235.494-98.4h-1.946c-0.312-0.001-0.68-0.002-1.050-0.002-91.109 0-173.692 36.506-233.918 95.689l0.048-0.047c-2.885 2.826-6.839 4.57-11.2 4.57-8.842 0-16.010-7.168-16.010-16.010 0-4.481 1.841-8.531 4.807-11.437l0.003-0.003c65.937-64.775 156.412-104.761 256.226-104.761 0.315 0 0.629 0 0.944 0.001h2.031c100.939 0.291 192.209 41.446 258.184 107.784l85.816 85.816v-153.36c0-8.837 7.163-16 16-16s16 7.163 16 16v0 192c0 8.837-7.163 16-16 16v0z" />
<glyph unicode="&#xe098;" glyph-name="arrows-down-up-thin" data-tags="arrows-down-up-thin" d="M459.32 267.32c2.899-2.896 4.693-6.899 4.693-11.32s-1.793-8.424-4.692-11.32v0l-128-128c-2.896-2.899-6.899-4.693-11.32-4.693s-8.424 1.793-11.32 4.692v0l-128 128c-2.897 2.897-4.689 6.899-4.689 11.32 0 8.841 7.167 16.009 16.009 16.009 4.421 0 8.423-1.792 11.32-4.689l100.68-100.68v601.36c0 8.837 7.163 16 16 16s16-7.163 16-16v0-601.36l100.68 100.68c2.896 2.899 6.899 4.693 11.32 4.693s8.424-1.793 11.32-4.692v0zM843.32 651.32l-128 128c-2.896 2.899-6.899 4.693-11.32 4.693s-8.424-1.793-11.32-4.692v0l-128-128c-2.897-2.897-4.689-6.899-4.689-11.32 0-8.841 7.167-16.009 16.009-16.009 4.421 0 8.423 1.792 11.32 4.689l100.68 100.68v-601.36c0-8.837 7.163-16 16-16s16 7.163 16 16v0 601.36l100.68-100.68c2.897-2.897 6.899-4.689 11.32-4.689 8.841 0 16.009 7.167 16.009 16.009 0 4.421-1.792 8.423-4.689 11.32v0z" />
<glyph unicode="&#xe09a;" glyph-name="arrows-in-thin" data-tags="arrows-in-thin" d="M592 544v160c0 8.837 7.163 16 16 16s16-7.163 16-16v0-121.36l196.68 196.68c2.897 2.897 6.899 4.689 11.32 4.689 8.841 0 16.009-7.167 16.009-16.009 0-4.421-1.792-8.423-4.689-11.32l-196.68-196.68h121.36c8.837 0 16-7.163 16-16s-7.163-16-16-16v0h-160c-8.837 0-16 7.163-16 16v0zM416 368h-160c-8.837 0-16-7.163-16-16s7.163-16 16-16v0h121.36l-196.68-196.68c-2.897-2.897-4.689-6.899-4.689-11.32 0-8.841 7.167-16.009 16.009-16.009 4.421 0 8.423 1.792 11.32 4.689l196.68 196.68v-121.36c0-8.837 7.163-16 16-16s16 7.163 16 16v0 160c0 8.837-7.163 16-16 16v0zM646.64 336h121.36c8.837 0 16 7.163 16 16s-7.163 16-16 16v0h-160c-8.837 0-16-7.163-16-16v0-160c0-8.837 7.163-16 16-16s16 7.163 16 16v0 121.36l196.68-196.68c2.897-2.897 6.899-4.689 11.32-4.689 8.841 0 16.009 7.167 16.009 16.009 0 4.421-1.792 8.423-4.689 11.32v0zM416 720c-8.837 0-16-7.163-16-16v0-121.36l-196.68 196.68c-2.897 2.897-6.899 4.689-11.32 4.689-8.841 0-16.009-7.167-16.009-16.009 0-4.421 1.792-8.423 4.689-11.32l196.68-196.68h-121.36c-8.837 0-16-7.163-16-16s7.163-16 16-16v0h160c8.837 0 16 7.163 16 16v0 160c0 8.837-7.163 16-16 16v0z" />
<glyph unicode="&#xe09c;" glyph-name="arrows-in-cardinal-thin" data-tags="arrows-in-cardinal-thin" d="M372.68 692.68c-2.897 2.897-4.689 6.899-4.689 11.32 0 8.841 7.167 16.009 16.009 16.009 4.421 0 8.423-1.792 11.32-4.689l100.68-100.68v249.36c0 8.837 7.163 16 16 16s16-7.163 16-16v0-249.36l100.68 100.68c2.897 2.897 6.899 4.689 11.32 4.689 8.841 0 16.009-7.167 16.009-16.009 0-4.421-1.792-8.423-4.689-11.32l-128-128c-2.896-2.899-6.899-4.693-11.32-4.693s-8.424 1.793-11.32 4.692v0zM523.32 331.32c-2.896 2.899-6.899 4.693-11.32 4.693s-8.424-1.793-11.32-4.692v0l-128-128c-2.897-2.897-4.689-6.899-4.689-11.32 0-8.841 7.167-16.009 16.009-16.009 4.421 0 8.423 1.792 11.32 4.689l100.68 100.68v-249.36c0-8.837 7.163-16 16-16s16 7.163 16 16v0 249.36l100.68-100.68c2.897-2.897 6.899-4.689 11.32-4.689 8.841 0 16.009 7.167 16.009 16.009 0 4.421-1.792 8.423-4.689 11.32v0zM928 464h-249.36l100.68 100.68c2.897 2.897 4.689 6.899 4.689 11.32 0 8.841-7.167 16.009-16.009 16.009-4.421 0-8.423-1.792-11.32-4.689l-128-128c-2.899-2.896-4.693-6.899-4.693-11.32s1.793-8.424 4.692-11.32v0l128-128c2.897-2.897 6.899-4.689 11.32-4.689 8.841 0 16.009 7.167 16.009 16.009 0 4.421-1.792 8.423-4.689 11.32l-100.68 100.68h249.36c8.837 0 16 7.163 16 16s-7.163 16-16 16v0zM395.32 459.32l-128 128c-2.897 2.897-6.899 4.689-11.32 4.689-8.841 0-16.009-7.167-16.009-16.009 0-4.421 1.792-8.423 4.689-11.32l100.68-100.68h-249.36c-8.837 0-16-7.163-16-16s7.163-16 16-16v0h249.36l-100.68-100.68c-2.897-2.897-4.689-6.899-4.689-11.32 0-8.841 7.167-16.009 16.009-16.009 4.421 0 8.423 1.792 11.32 4.689l128 128c2.899 2.896 4.693 6.899 4.693 11.32s-1.793 8.424-4.692 11.32v0z" />
<glyph unicode="&#xe09e;" glyph-name="arrows-in-simple-thin" data-tags="arrows-in-simple-thin" d="M843.32 756.68l-228.68-228.68h153.36c8.837 0 16-7.163 16-16s-7.163-16-16-16v0h-192c-8.837 0-16 7.163-16 16v0 192c0 8.837 7.163 16 16 16s16-7.163 16-16v0-153.36l228.68 228.68c2.897 2.897 6.899 4.689 11.32 4.689 8.841 0 16.009-7.167 16.009-16.009 0-4.421-1.792-8.423-4.689-11.32v0zM448 400h-192c-8.837 0-16-7.163-16-16s7.163-16 16-16v0h153.36l-228.68-228.68c-2.897-2.897-4.689-6.899-4.689-11.32 0-8.841 7.167-16.009 16.009-16.009 4.421 0 8.423 1.792 11.32 4.689l228.68 228.68v-153.36c0-8.837 7.163-16 16-16s16 7.163 16 16v0 192c0 8.837-7.163 16-16 16v0z" />
<glyph unicode="&#xe0a0;" glyph-name="arrows-left-right-thin" data-tags="arrows-left-right-thin" d="M843.32 267.32c2.899-2.896 4.693-6.899 4.693-11.32s-1.793-8.424-4.692-11.32v0l-128-128c-2.897-2.897-6.899-4.689-11.32-4.689-8.841 0-16.009 7.167-16.009 16.009 0 4.421 1.792 8.423 4.689 11.32l100.68 100.68h-601.36c-8.837 0-16 7.163-16 16s7.163 16 16 16v0h601.36l-100.68 100.68c-2.897 2.897-4.689 6.899-4.689 11.32 0 8.841 7.167 16.009 16.009 16.009 4.421 0 8.423-1.792 11.32-4.689v0zM308.68 500.68c2.897-2.897 6.899-4.689 11.32-4.689 8.841 0 16.009 7.167 16.009 16.009 0 4.421-1.792 8.423-4.689 11.32l-100.68 100.68h601.36c8.837 0 16 7.163 16 16s-7.163 16-16 16v0h-601.36l100.68 100.68c2.897 2.897 4.689 6.899 4.689 11.32 0 8.841-7.167 16.009-16.009 16.009-4.421 0-8.423-1.792-11.32-4.689l-128-128c-2.899-2.896-4.693-6.899-4.693-11.32s1.793-8.424 4.692-11.32v0z" />
<glyph unicode="&#xe0a2;" glyph-name="arrows-out-thin" data-tags="arrows-out-thin" d="M848 768v-192c0-8.837-7.163-16-16-16s-16 7.163-16 16v0 153.36l-196.68-196.68c-2.897-2.897-6.899-4.689-11.32-4.689-8.841 0-16.009 7.167-16.009 16.009 0 4.421 1.792 8.423 4.689 11.32l196.68 196.68h-153.36c-8.837 0-16 7.163-16 16s7.163 16 16 16v0h192c8.837 0 16-7.163 16-16v0zM404.68 363.32l-196.68-196.68v153.36c0 8.837-7.163 16-16 16s-16-7.163-16-16v0-192c0-8.837 7.163-16 16-16v0h192c8.837 0 16 7.163 16 16s-7.163 16-16 16v0h-153.36l196.68 196.68c2.897 2.897 4.689 6.899 4.689 11.32 0 8.841-7.167 16.009-16.009 16.009-4.421 0-8.423-1.792-11.32-4.689v0zM832 336c-8.837 0-16-7.163-16-16v0-153.36l-196.68 196.68c-2.897 2.897-6.899 4.689-11.32 4.689-8.841 0-16.009-7.167-16.009-16.009 0-4.421 1.792-8.423 4.689-11.32l196.68-196.68h-153.36c-8.837 0-16-7.163-16-16s7.163-16 16-16v0h192c8.837 0 16 7.163 16 16v0 192c0 8.837-7.163 16-16 16v0zM230.64 752h153.36c8.837 0 16 7.163 16 16s-7.163 16-16 16v0h-192c-8.837 0-16-7.163-16-16v0-192c0-8.837 7.163-16 16-16s16 7.163 16 16v0 153.36l196.68-196.68c2.897-2.897 6.899-4.689 11.32-4.689 8.841 0 16.009 7.167 16.009 16.009 0 4.421-1.792 8.423-4.689 11.32v0z" />
<glyph unicode="&#xe0a4;" glyph-name="arrows-out-cardinal-thin" data-tags="arrows-out-cardinal-thin" d="M372.68 724.68c-2.899 2.896-4.693 6.899-4.693 11.32s1.793 8.424 4.692 11.32v0l128 128c2.896 2.899 6.899 4.693 11.32 4.693s8.424-1.793 11.32-4.692v0l128-128c2.897-2.897 4.689-6.899 4.689-11.32 0-8.841-7.167-16.009-16.009-16.009-4.421 0-8.423 1.792-11.32 4.689l-100.68 100.68v-249.36c0-8.837-7.163-16-16-16s-16 7.163-16 16v0 249.36l-100.68-100.68c-2.896-2.899-6.899-4.693-11.32-4.693s-8.424 1.793-11.32 4.692v0zM628.68 171.32l-100.68-100.68v249.36c0 8.837-7.163 16-16 16s-16-7.163-16-16v0-249.36l-100.68 100.68c-2.897 2.897-6.899 4.689-11.32 4.689-8.841 0-16.009-7.167-16.009-16.009 0-4.421 1.792-8.423 4.689-11.32l128-128c2.896-2.899 6.899-4.693 11.32-4.693s8.424 1.793 11.32 4.692v0l128 128c2.897 2.897 4.689 6.899 4.689 11.32 0 8.841-7.167 16.009-16.009 16.009-4.421 0-8.423-1.792-11.32-4.689v0zM939.32 459.32l-128 128c-2.897 2.897-6.899 4.689-11.32 4.689-8.841 0-16.009-7.167-16.009-16.009 0-4.421 1.792-8.423 4.689-11.32l100.68-100.68h-249.36c-8.837 0-16-7.163-16-16s7.163-16 16-16v0h249.36l-100.68-100.68c-2.897-2.897-4.689-6.899-4.689-11.32 0-8.841 7.167-16.009 16.009-16.009 4.421 0 8.423 1.792 11.32 4.689l128 128c2.899 2.896 4.693 6.899 4.693 11.32s-1.793 8.424-4.692 11.32v0zM134.64 432h249.36c8.837 0 16 7.163 16 16s-7.163 16-16 16v0h-249.36l100.68 100.68c2.897 2.897 4.689 6.899 4.689 11.32 0 8.841-7.167 16.009-16.009 16.009-4.421 0-8.423-1.792-11.32-4.689l-128-128c-2.899-2.896-4.693-6.899-4.693-11.32s1.793-8.424 4.692-11.32v0l128-128c2.897-2.897 6.899-4.689 11.32-4.689 8.841 0 16.009 7.167 16.009 16.009 0 4.421-1.792 8.423-4.689 11.32v0z" />
<glyph unicode="&#xe0a6;" glyph-name="arrows-out-simple-thin" data-tags="arrows-out-simple-thin" d="M848 768v-192c0-8.837-7.163-16-16-16s-16 7.163-16 16v0 153.36l-228.68-228.68c-2.897-2.897-6.899-4.689-11.32-4.689-8.841 0-16.009 7.167-16.009 16.009 0 4.421 1.792 8.423 4.689 11.32l228.68 228.68h-153.36c-8.837 0-16 7.163-16 16s7.163 16 16 16v0h192c8.837 0 16-7.163 16-16v0zM436.68 395.32l-228.68-228.68v153.36c0 8.837-7.163 16-16 16s-16-7.163-16-16v0-192c0-8.837 7.163-16 16-16v0h192c8.837 0 16 7.163 16 16s-7.163 16-16 16v0h-153.36l228.68 228.68c2.897 2.897 4.689 6.899 4.689 11.32 0 8.841-7.167 16.009-16.009 16.009-4.421 0-8.423-1.792-11.32-4.689v0z" />
<glyph unicode="&#xe0a8;" glyph-name="article-thin" data-tags="article-thin" d="M864 784h-704c-26.51 0-48-21.49-48-48v0-576c0-26.51 21.49-48 48-48v0h704c26.51 0 48 21.49 48 48v0 576c0 26.51-21.49 48-48 48v0zM880 160c0-8.837-7.163-16-16-16v0h-704c-8.837 0-16 7.163-16 16v0 576c0 8.837 7.163 16 16 16v0h704c8.837 0 16-7.163 16-16v0zM720 576c0-8.837-7.163-16-16-16v0h-384c-8.837 0-16 7.163-16 16s7.163 16 16 16v0h384c8.837 0 16-7.163 16-16v0zM720 448c0-8.837-7.163-16-16-16v0h-384c-8.837 0-16 7.163-16 16s7.163 16 16 16v0h384c8.837 0 16-7.163 16-16v0zM720 320c0-8.837-7.163-16-16-16v0h-384c-8.837 0-16 7.163-16 16s7.163 16 16 16v0h384c8.837 0 16-7.163 16-16v0z" />
<glyph unicode="&#xe0aa;" glyph-name="asterisk-thin" data-tags="asterisk-thin" d="M845.72 247.76c-2.847-4.685-7.923-7.766-13.719-7.766-3.044 0-5.89 0.85-8.312 2.326l0.071-0.040-295.76 177.48v-323.76c0-8.837-7.163-16-16-16s-16 7.163-16 16v0 323.76l-295.76-177.48c-2.352-1.435-5.197-2.284-8.24-2.284-8.839 0-16.004 7.165-16.004 16.004 0 5.796 3.081 10.872 7.694 13.68l0.071 0.040 297.12 178.28-297.12 178.28c-4.684 2.848-7.764 7.924-7.764 13.72 0 8.839 7.165 16.004 16.004 16.004 3.043 0 5.888-0.849 8.311-2.324l-0.071 0.040 295.76-177.48v323.76c0 8.837 7.163 16 16 16s16-7.163 16-16v0-323.76l295.76 177.48c2.352 1.435 5.197 2.284 8.24 2.284 8.839 0 16.004-7.165 16.004-16.004 0-5.796-3.081-10.872-7.694-13.68l-0.071-0.040-297.12-178.28 297.12-178.28c4.685-2.847 7.766-7.923 7.766-13.719 0-3.044-0.85-5.89-2.326-8.312l0.040 0.071z" />
<glyph unicode="&#xe0ac;" glyph-name="at-thin" data-tags="at-thin" d="M512 848c-220.914 0-400-179.086-400-400s179.086-400 400-400v0c83.040 0 170.080 24.92 232.84 66.64 4.338 2.911 7.154 7.797 7.154 13.34 0 8.844-7.17 16.014-16.014 16.014-3.301 0-6.369-0.999-8.917-2.711l0.057 0.036c-57.72-38.4-138.16-61.32-215.12-61.32-203.241 0-368 164.759-368 368s164.759 368 368 368c203.241 0 368-164.759 368-368v0c0-125.28-60-144-96-144s-96 18.72-96 144v160c0 8.837-7.163 16-16 16s-16-7.163-16-16v0-59c-32.248 45.553-84.736 74.929-144.086 74.929-97.202 0-176-78.798-176-176s78.798-176 176-176c66.937 0 125.146 37.367 154.905 92.379l0.461 0.931c18.56-59.56 59.36-93.24 116.72-93.24 80 0 128 65.8 128 176-0.25 220.813-179.187 399.75-399.976 400h-0.024zM512 304c-79.529 0-144 64.471-144 144s64.471 144 144 144c79.529 0 144-64.471 144-144v0c0-79.529-64.471-144-144-144v0z" />
<glyph unicode="&#xe0ae;" glyph-name="backspace-thin" data-tags="backspace-thin" d="M864 784h-589.88c-17.379-0.054-32.589-9.29-41.040-23.109l-0.12-0.211-182.68-304.44c-1.435-2.352-2.285-5.197-2.285-8.24s0.85-5.888 2.325-8.311l-0.040 0.071 182.68-304.44c8.571-14.030 23.781-23.266 41.152-23.32h589.888c26.51 0 48 21.49 48 48v0 576c0 26.51-21.49 48-48 48v0zM880 160c0-8.837-7.163-16-16-16v0h-589.88c-0.001 0-0.003 0-0.005 0-5.793 0-10.867 3.079-13.675 7.689l-0.040 0.071-177.72 296.24 177.72 296.24c2.848 4.681 7.922 7.76 13.715 7.76 0.002 0 0.003 0 0.005 0h589.88c8.837 0 16-7.163 16-16v0zM651.32 532.68l-84.68-84.68 84.68-84.68c2.897-2.897 4.689-6.899 4.689-11.32 0-8.841-7.167-16.009-16.009-16.009-4.421 0-8.423 1.792-11.32 4.689l-84.68 84.68-84.68-84.68c-2.897-2.897-6.899-4.689-11.32-4.689-8.841 0-16.009 7.167-16.009 16.009 0 4.421 1.792 8.423 4.689 11.32l84.68 84.68-84.68 84.68c-2.897 2.897-4.689 6.899-4.689 11.32 0 8.841 7.167 16.009 16.009 16.009 4.421 0 8.423-1.792 11.32-4.689l84.68-84.68 84.68 84.68c2.897 2.897 6.899 4.689 11.32 4.689 8.841 0 16.009-7.167 16.009-16.009 0-4.421-1.792-8.423-4.689-11.32v0z" />
<glyph unicode="&#xe0b0;" glyph-name="bag-thin" data-tags="bag-thin" d="M864 688h-176v16c0 97.202-78.798 176-176 176s-176-78.798-176-176v0-16h-176c-26.51 0-48-21.49-48-48v0-480c0-26.51 21.49-48 48-48v0h704c26.51 0 48 21.49 48 48v0 480c0 26.51-21.49 48-48 48v0zM368 704c0 79.529 64.471 144 144 144s144-64.471 144-144v0-16h-288zM880 160c0-8.837-7.163-16-16-16v0h-704c-8.837 0-16 7.163-16 16v0 480c0 8.837 7.163 16 16 16v0h176v-80c0-8.837 7.163-16 16-16s16 7.163 16 16v0 80h288v-80c0-8.837 7.163-16 16-16s16 7.163 16 16v0 80h176c8.837 0 16-7.163 16-16v0z" />
<glyph unicode="&#xe0b2;" glyph-name="bandaids-thin" data-tags="bandaids-thin" d="M715.64 448l122.2 122.16c26.063 26.063 42.184 62.069 42.184 101.84 0 79.542-64.482 144.024-144.024 144.024-39.771 0-75.777-16.12-101.84-42.184l-122.16-122.2-122.16 122.2c-26.063 26.063-62.069 42.184-101.84 42.184-79.542 0-144.024-64.482-144.024-144.024 0-39.771 16.12-75.777 42.184-101.84l122.2-122.16-122.2-122.16c-26.063-26.063-42.184-62.069-42.184-101.84 0-79.542 64.482-144.024 144.024-144.024 39.771 0 75.777 16.12 101.84 42.184l122.16 122.2 122.16-122.2c26.063-26.063 62.069-42.184 101.84-42.184 79.542 0 144.024 64.482 144.024 144.024 0 39.771-16.12 75.777-42.184 101.84v0zM656.8 751.2c20.269 20.269 48.27 32.806 79.2 32.806 61.859 0 112.006-50.147 112.006-112.006 0-30.93-12.537-58.931-32.806-79.2l-122.2-122.16-158.36 158.36zM670.4 448l-158.4-158.4-158.4 158.4 158.4 158.4zM208.8 592.8c-20.269 20.269-32.806 48.27-32.806 79.2 0 61.859 50.147 112.006 112.006 112.006 30.93 0 58.931-12.537 79.2-32.806l122.16-122.2-158.36-158.36zM367.2 144.8c-20.269-20.269-48.27-32.806-79.2-32.806-61.859 0-112.006 50.147-112.006 112.006 0 30.93 12.537 58.931 32.806 79.2l122.2 122.16 158.36-158.36zM815.2 144.8c-20.268-20.27-48.27-32.808-79.2-32.808s-58.932 12.538-79.2 32.808l-122.16 122.2 158.36 158.36 122.2-122.16c20.27-20.268 32.808-48.27 32.808-79.2s-12.538-58.932-32.808-79.2v0zM480 448c0 17.673 14.327 32 32 32s32-14.327 32-32c0-17.673-14.327-32-32-32v0c-17.673 0-32 14.327-32 32v0z" />
<glyph unicode="&#xe0b4;" glyph-name="bank-thin" data-tags="bank-thin" d="M96 560h112v-288h-80c-8.837 0-16-7.163-16-16s7.163-16 16-16v0h768c8.837 0 16 7.163 16 16s-7.163 16-16 16v0h-80v288h112c0.011 0 0.024 0 0.036 0 8.837 0 16 7.163 16 16 0 5.742-3.025 10.778-7.568 13.601l-0.068 0.039-416 256c-2.389 1.495-5.291 2.382-8.4 2.382s-6.011-0.887-8.467-2.422l0.067 0.039-416-256c-4.611-2.862-7.636-7.898-7.636-13.64 0-8.837 7.163-16 16-16 0.013 0 0.026 0 0.038 0h-0.002zM240 560h160v-288h-160zM592 560v-288h-160v288zM784 272h-160v288h160zM512 813.2l359.48-221.2h-718.96zM976 128c0-8.837-7.163-16-16-16v0h-896c-8.837 0-16 7.163-16 16s7.163 16 16 16v0h896c8.837 0 16-7.163 16-16v0z" />
<glyph unicode="&#xe0b6;" glyph-name="barbell-thin" data-tags="barbell-thin" d="M992 464h-48v144c0 26.51-21.49 48-48 48v0h-80v48c0 26.51-21.49 48-48 48v0h-96c-26.51 0-48-21.49-48-48v0-240h-224v240c0 26.51-21.49 48-48 48v0h-96c-26.51 0-48-21.49-48-48v0-48h-80c-26.51 0-48-21.49-48-48v0-144h-48c-8.837 0-16-7.163-16-16s7.163-16 16-16v0h48v-144c0-26.51 21.49-48 48-48v0h80v-48c0-26.51 21.49-48 48-48v0h96c26.51 0 48 21.49 48 48v0 240h224v-240c0-26.51 21.49-48 48-48v0h96c26.51 0 48 21.49 48 48v0 48h80c26.51 0 48 21.49 48 48v0 144h48c8.837 0 16 7.163 16 16s-7.163 16-16 16v0zM128 272c-8.837 0-16 7.163-16 16v0 320c0 8.837 7.163 16 16 16v0h80v-352zM368 192c0-8.837-7.163-16-16-16v0h-96c-8.837 0-16 7.163-16 16v0 512c0 8.837 7.163 16 16 16v0h96c8.837 0 16-7.163 16-16v0zM784 192c0-8.837-7.163-16-16-16v0h-96c-8.837 0-16 7.163-16 16v0 512c0 8.837 7.163 16 16 16v0h96c8.837 0 16-7.163 16-16v0zM912 288c0-8.837-7.163-16-16-16v0h-80v352h80c8.837 0 16-7.163 16-16v0z" />
<glyph unicode="&#xe0b8;" glyph-name="barcode-thin" data-tags="barcode-thin" d="M912 768v-160c0-8.837-7.163-16-16-16s-16 7.163-16 16v0 144h-144c-8.837 0-16 7.163-16 16s7.163 16 16 16v0h160c8.837 0 16-7.163 16-16v0zM288 144h-144v144c0 8.837-7.163 16-16 16s-16-7.163-16-16v0-160c0-8.837 7.163-16 16-16v0h160c8.837 0 16 7.163 16 16s-7.163 16-16 16v0zM896 304c-8.837 0-16-7.163-16-16v0-144h-144c-8.837 0-16-7.163-16-16s7.163-16 16-16v0h160c8.837 0 16 7.163 16 16v0 160c0 8.837-7.163 16-16 16v0zM128 592c8.837 0 16 7.163 16 16v0 144h144c8.837 0 16 7.163 16 16s-7.163 16-16 16v0h-160c-8.837 0-16-7.163-16-16v0-160c0-8.837 7.163-16 16-16v0zM320 624c-8.837 0-16-7.163-16-16v0-320c0-8.837 7.163-16 16-16s16 7.163 16 16v0 320c0 8.837-7.163 16-16 16v0zM720 608c0 8.837-7.163 16-16 16s-16-7.163-16-16v0-320c0-8.837 7.163-16 16-16s16 7.163 16 16v0zM576 624c-8.837 0-16-7.163-16-16v0-320c0-8.837 7.163-16 16-16s16 7.163 16 16v0 320c0 8.837-7.163 16-16 16v0zM448 624c-8.837 0-16-7.163-16-16v0-320c0-8.837 7.163-16 16-16s16 7.163 16 16v0 320c0 8.837-7.163 16-16 16v0z" />
<glyph unicode="&#xe0ba;" glyph-name="battery-charging-thin" data-tags="battery-charging-thin" d="M800 720h-672c-44.183 0-80-35.817-80-80v0-384c0-44.183 35.817-80 80-80v0h672c44.183 0 80 35.817 80 80v0 384c0 44.183-35.817 80-80 80v0zM848 256c0-26.51-21.49-48-48-48v0h-672c-26.51 0-48 21.49-48 48v0 384c0 26.51 21.49 48 48 48v0h672c26.51 0 48-21.49 48-48v0zM1008 576v-256c0-8.837-7.163-16-16-16s-16 7.163-16 16v0 256c0 8.837 7.163 16 16 16s16-7.163 16-16v0zM541.6 456.4c1.505-2.394 2.398-5.306 2.398-8.426 0-2.6-0.62-5.055-1.72-7.225l0.042 0.091-64-128c-2.686-5.283-8.082-8.84-14.309-8.84-0.004 0-0.008 0-0.012 0h0.001c-2.609 0.015-5.070 0.633-7.256 1.723l0.096-0.043c-5.291 2.684-8.854 8.084-8.854 14.315 0 2.612 0.626 5.078 1.736 7.255l-0.042-0.091 52.44 104.84h-102.12c-0.003 0-0.007 0-0.011 0-8.837 0-16 7.163-16 16 0 2.61 0.625 5.074 1.733 7.251l-0.042-0.091 64 128c2.687 5.289 8.088 8.85 14.32 8.85 8.842 0 16.010-7.168 16.010-16.010 0-2.61-0.625-5.074-1.732-7.251l0.042 0.091-52.44-104.84h102.12c5.72-0.007 10.737-3.014 13.561-7.533l0.039-0.067z" />
<glyph unicode="&#xe0bc;" glyph-name="battery-charging-vertical-thin" data-tags="battery-charging-vertical-thin" d="M589.6 424.4c1.505-2.394 2.398-5.306 2.398-8.426 0-2.6-0.62-5.055-1.72-7.225l0.042 0.091-64-128c-2.686-5.283-8.082-8.84-14.309-8.84-0.004 0-0.008 0-0.012 0h0.001c-2.609 0.015-5.070 0.633-7.256 1.723l0.096-0.043c-5.291 2.684-8.854 8.084-8.854 14.315 0 2.612 0.626 5.078 1.736 7.255l-0.042-0.091 52.44 104.84h-102.12c-0.003 0-0.007 0-0.011 0-8.837 0-16 7.163-16 16 0 2.61 0.625 5.074 1.733 7.251l-0.042-0.091 64 128c2.687 5.289 8.088 8.85 14.32 8.85 8.842 0 16.010-7.168 16.010-16.010 0-2.61-0.625-5.074-1.732-7.251l0.042 0.091-52.44-104.84h102.12c5.72-0.007 10.737-3.014 13.561-7.533l0.039-0.067zM384 912h256c8.837 0 16 7.163 16 16s-7.163 16-16 16v0h-256c-8.837 0-16-7.163-16-16s7.163-16 16-16v0zM784 736v-672c0-44.183-35.817-80-80-80v0h-384c-44.183 0-80 35.817-80 80v0 672c0 44.183 35.817 80 80 80v0h384c44.183 0 80-35.817 80-80v0zM752 736c0 26.51-21.49 48-48 48v0h-384c-26.51 0-48-21.49-48-48v0-672c0-26.51 21.49-48 48-48v0h384c26.51 0 48 21.49 48 48v0z" />
<glyph unicode="&#xe0be;" glyph-name="battery-empty-thin" data-tags="battery-empty-thin" d="M800 720h-672c-44.183 0-80-35.817-80-80v0-384c0-44.183 35.817-80 80-80v0h672c44.183 0 80 35.817 80 80v0 384c0 44.183-35.817 80-80 80v0zM848 256c0-26.51-21.49-48-48-48v0h-672c-26.51 0-48 21.49-48 48v0 384c0 26.51 21.49 48 48 48v0h672c26.51 0 48-21.49 48-48v0zM1008 576v-256c0-8.837-7.163-16-16-16s-16 7.163-16 16v0 256c0 8.837 7.163 16 16 16s16-7.163 16-16v0z" />
<glyph unicode="&#xe0c0;" glyph-name="battery-full-thin" data-tags="battery-full-thin" d="M800 720h-672c-44.183 0-80-35.817-80-80v0-384c0-44.183 35.817-80 80-80v0h672c44.183 0 80 35.817 80 80v0 384c0 44.183-35.817 80-80 80v0zM848 256c0-26.51-21.49-48-48-48v0h-672c-26.51 0-48 21.49-48 48v0 384c0 26.51 21.49 48 48 48v0h672c26.51 0 48-21.49 48-48v0zM720 576v-256c0-8.837-7.163-16-16-16s-16 7.163-16 16v0 256c0 8.837 7.163 16 16 16s16-7.163 16-16v0zM560 576v-256c0-8.837-7.163-16-16-16s-16 7.163-16 16v0 256c0 8.837 7.163 16 16 16s16-7.163 16-16v0zM400 576v-256c0-8.837-7.163-16-16-16s-16 7.163-16 16v0 256c0 8.837 7.163 16 16 16s16-7.163 16-16v0zM240 576v-256c0-8.837-7.163-16-16-16s-16 7.163-16 16v0 256c0 8.837 7.163 16 16 16s16-7.163 16-16v0zM1008 576v-256c0-8.837-7.163-16-16-16s-16 7.163-16 16v0 256c0 8.837 7.163 16 16 16s16-7.163 16-16v0z" />
<glyph unicode="&#xe0c2;" glyph-name="battery-high-thin" data-tags="battery-high-thin" d="M800 720h-672c-44.183 0-80-35.817-80-80v0-384c0-44.183 35.817-80 80-80v0h672c44.183 0 80 35.817 80 80v0 384c0 44.183-35.817 80-80 80v0zM848 256c0-26.51-21.49-48-48-48v0h-672c-26.51 0-48 21.49-48 48v0 384c0 26.51 21.49 48 48 48v0h672c26.51 0 48-21.49 48-48v0zM560 576v-256c0-8.837-7.163-16-16-16s-16 7.163-16 16v0 256c0 8.837 7.163 16 16 16s16-7.163 16-16v0zM400 576v-256c0-8.837-7.163-16-16-16s-16 7.163-16 16v0 256c0 8.837 7.163 16 16 16s16-7.163 16-16v0zM240 576v-256c0-8.837-7.163-16-16-16s-16 7.163-16 16v0 256c0 8.837 7.163 16 16 16s16-7.163 16-16v0zM1008 576v-256c0-8.837-7.163-16-16-16s-16 7.163-16 16v0 256c0 8.837 7.163 16 16 16s16-7.163 16-16v0z" />
<glyph unicode="&#xe0c4;" glyph-name="battery-low-thin" data-tags="battery-low-thin" d="M800 720h-672c-44.183 0-80-35.817-80-80v0-384c0-44.183 35.817-80 80-80v0h672c44.183 0 80 35.817 80 80v0 384c0 44.183-35.817 80-80 80v0zM848 256c0-26.51-21.49-48-48-48v0h-672c-26.51 0-48 21.49-48 48v0 384c0 26.51 21.49 48 48 48v0h672c26.51 0 48-21.49 48-48v0zM240 576v-256c0-8.837-7.163-16-16-16s-16 7.163-16 16v0 256c0 8.837 7.163 16 16 16s16-7.163 16-16v0zM1008 576v-256c0-8.837-7.163-16-16-16s-16 7.163-16 16v0 256c0 8.837 7.163 16 16 16s16-7.163 16-16v0z" />
<glyph unicode="&#xe0c6;" glyph-name="battery-medium-thin" data-tags="battery-medium-thin" d="M800 720h-672c-44.183 0-80-35.817-80-80v0-384c0-44.183 35.817-80 80-80v0h672c44.183 0 80 35.817 80 80v0 384c0 44.183-35.817 80-80 80v0zM848 256c0-26.51-21.49-48-48-48v0h-672c-26.51 0-48 21.49-48 48v0 384c0 26.51 21.49 48 48 48v0h672c26.51 0 48-21.49 48-48v0zM400 576v-256c0-8.837-7.163-16-16-16s-16 7.163-16 16v0 256c0 8.837 7.163 16 16 16s16-7.163 16-16v0zM240 576v-256c0-8.837-7.163-16-16-16s-16 7.163-16 16v0 256c0 8.837 7.163 16 16 16s16-7.163 16-16v0zM1008 576v-256c0-8.837-7.163-16-16-16s-16 7.163-16 16v0 256c0 8.837 7.163 16 16 16s16-7.163 16-16v0z" />
<glyph unicode="&#xe0c8;" glyph-name="battery-warning-thin" data-tags="battery-warning-thin" d="M800 720h-672c-44.183 0-80-35.817-80-80v0-384c0-44.183 35.817-80 80-80v0h672c44.183 0 80 35.817 80 80v0 384c0 44.183-35.817 80-80 80v0zM848 256c0-26.51-21.49-48-48-48v0h-672c-26.51 0-48 21.49-48 48v0 384c0 26.51 21.49 48 48 48v0h672c26.51 0 48-21.49 48-48v0zM1008 576v-256c0-8.837-7.163-16-16-16s-16 7.163-16 16v0 256c0 8.837 7.163 16 16 16s16-7.163 16-16v0zM448 464v112c0 8.837 7.163 16 16 16s16-7.163 16-16v0-112c0-8.837-7.163-16-16-16s-16 7.163-16 16v0zM496 336c0-17.673-14.327-32-32-32s-32 14.327-32 32c0 17.673 14.327 32 32 32v0c17.673 0 32-14.327 32-32v0z" />
<glyph unicode="&#xe0ca;" glyph-name="battery-warning-vertical-thin" data-tags="battery-warning-vertical-thin" d="M496 416v160c0 8.837 7.163 16 16 16s16-7.163 16-16v0-160c0-8.837-7.163-16-16-16s-16 7.163-16 16v0zM512 304c-17.673 0-32-14.327-32-32s14.327-32 32-32c17.673 0 32 14.327 32 32v0c0 17.673-14.327 32-32 32v0zM384 912h256c8.837 0 16 7.163 16 16s-7.163 16-16 16v0h-256c-8.837 0-16-7.163-16-16s7.163-16 16-16v0zM784 736v-672c0-44.183-35.817-80-80-80v0h-384c-44.183 0-80 35.817-80 80v0 672c0 44.183 35.817 80 80 80v0h384c44.183 0 80-35.817 80-80v0zM752 736c0 26.51-21.49 48-48 48v0h-384c-26.51 0-48-21.49-48-48v0-672c0-26.51 21.49-48 48-48v0h384c26.51 0 48 21.49 48 48v0z" />
<glyph unicode="&#xe0cc;" glyph-name="bed-thin" data-tags="bed-thin" d="M864 656h-752v112c0 8.837-7.163 16-16 16s-16-7.163-16-16v0-640c0-8.837 7.163-16 16-16s16 7.163 16 16v0 144h864v-144c0-8.837 7.163-16 16-16s16 7.163 16 16v0 384c0 79.529-64.471 144-144 144v0zM112 624h320v-320h-320zM464 304v320h400c61.856 0 112-50.144 112-112v0-208z" />
<glyph unicode="&#xe0ce;" glyph-name="bell-thin" data-tags="bell-thin" d="M873.4 248c-23.080 40-57.4 151.48-57.4 296 0 167.895-136.105 304-304 304s-304-136.105-304-304v0c0-144.52-34.36-256-57.44-295.8-4.115-6.932-6.547-15.282-6.547-24.2 0-26.505 21.483-47.993 47.986-48h176.921c8.442-72.227 69.277-127.748 143.080-127.748s134.638 55.521 143.016 127.074l0.064 0.674h176.92c26.437 0.096 47.831 21.549 47.831 48 0 8.837-2.388 17.116-6.554 24.227l0.123-0.227zM512 80c-56.206 0.006-102.74 41.413-110.765 95.387l-0.075 0.613h221.68c-8.1-54.587-54.634-95.994-110.839-96h-0.001zM845.8 216c-2.73-4.809-7.816-8-13.647-8-0.040 0-0.079 0-0.119 0h-640.034c-0.034 0-0.073 0-0.113 0-5.831 0-10.918 3.191-13.607 7.923l-0.040 0.077c-1.348 2.295-2.144 5.054-2.144 8s0.796 5.705 2.184 8.076l-0.041-0.076c29.76 51.32 61.76 170.72 61.76 312 0 150.221 121.779 272 272 272s272-121.779 272-272v0c0-141.24 32-260.68 61.76-312 1.36-2.303 2.164-5.075 2.164-8.035 0-2.931-0.788-5.679-2.165-8.042l0.041 0.076z" />
<glyph unicode="&#xe0d0;" glyph-name="bell-simple-thin" data-tags="bell-simple-thin" d="M656 64c0-8.837-7.163-16-16-16v0h-256c-8.837 0-16 7.163-16 16s7.163 16 16 16v0h256c8.837 0 16-7.163 16-16v0zM873.52 200c-8.298-14.436-23.631-24.001-41.199-24.001-0.113 0-0.226 0-0.339 0.001h-639.983c-26.437 0.096-47.831 21.549-47.831 48 0 8.837 2.388 17.116 6.554 24.227l-0.123-0.227c23.080 40 57.4 151.48 57.4 296 0 167.895 136.105 304 304 304s304-136.105 304-304v0c0-144.52 34.36-256 57.44-295.8 4.135-6.917 6.579-15.257 6.579-24.168 0-8.856-2.414-17.147-6.62-24.253l0.121 0.221zM845.72 232c-29.72 51.32-61.72 170.76-61.72 312 0 150.221-121.779 272-272 272s-272-121.779-272-272v0c0-141.28-32-260.68-61.76-312-1.348-2.295-2.144-5.054-2.144-8s0.796-5.705 2.184-8.076l-0.041 0.076c2.73-4.809 7.816-8 13.647-8 0.040 0 0.079 0 0.119 0h639.994c0.034 0 0.073 0 0.113 0 5.831 0 10.918 3.191 13.607 7.923l0.040 0.077c1.335 2.287 2.124 5.034 2.124 7.965 0 2.96-0.804 5.731-2.204 8.109l0.041-0.075z" />
<glyph unicode="&#xe0d2;" glyph-name="bell-simple-slash-thin" data-tags="bell-simple-slash-thin" d="M287 719.28v0l-83 91.48c-2.963 3.295-7.241 5.358-12 5.358-8.902 0-16.118-7.216-16.118-16.118 0-4.142 1.563-7.92 4.131-10.775l-0.013 0.015 75.2-82.52c-29.606-45.898-47.201-101.963-47.201-162.138 0-0.205 0-0.409 0.001-0.614v0.032c0-144.52-34.32-256-57.44-295.8-4.115-6.932-6.547-15.282-6.547-24.2 0-26.505 21.483-47.993 47.986-48h545.641l82.36-90.76c2.945-3.308 7.215-5.382 11.969-5.382 8.837 0 16 7.163 16 16 0 4.217-1.631 8.053-4.298 10.911l0.009-0.009zM192 208c-0.036 0-0.078 0-0.12 0-5.818 0-10.89 3.193-13.56 7.923l-0.040 0.078c-1.348 2.295-2.144 5.054-2.144 8s0.796 5.705 2.184 8.076l-0.041-0.076c29.72 51.32 61.72 170.72 61.72 312 0 0.151 0 0.331 0 0.51 0 50.73 13.974 98.195 38.283 138.758l-0.682-1.228 430.96-474.040zM656 64c0-8.837-7.163-16-16-16v0h-256c-8.837 0-16 7.163-16 16s7.163 16 16 16v0h256c8.837 0 16-7.163 16-16v0zM850.12 257.92c-1.728-0.709-3.733-1.12-5.835-1.12-0.002 0-0.003 0-0.005 0v0c-6.728 0.007-12.483 4.166-14.842 10.052l-0.038 0.108c-28.44 72.36-45.4 175.92-45.4 277.040 0 0.020 0 0.044 0 0.068 0 150.221-121.779 272-272 272-49.328 0-95.59-13.131-135.48-36.088l1.32 0.7c-2.296-1.344-5.055-2.138-8-2.138-8.857 0-16.038 7.18-16.038 16.038 0 5.913 3.2 11.078 7.962 13.859l0.076 0.041c43.16 24.952 94.941 39.675 150.16 39.675 167.895 0 304-136.105 304-304 0-0.054 0-0.109 0-0.163v0.008c0-144.2 33.040-239.56 43.16-265.36 0.696-1.729 1.101-3.733 1.101-5.832 0-6.727-4.152-12.485-10.033-14.85l-0.108-0.038z" />
<glyph unicode="&#xe0d4;" glyph-name="bell-slash-thin" data-tags="bell-slash-thin" d="M204 810.76c-2.963 3.295-7.241 5.358-12 5.358-8.902 0-16.118-7.216-16.118-16.118 0-4.142 1.563-7.92 4.131-10.775l-0.013 0.015 75.2-82.52c-29.606-45.898-47.201-101.963-47.201-162.138 0-0.205 0-0.409 0.001-0.614v0.032c0-144.52-34.32-256-57.44-295.8-4.115-6.932-6.547-15.282-6.547-24.2 0-26.505 21.483-47.993 47.986-48h176.921c8.442-72.227 69.277-127.748 143.080-127.748s134.638 55.521 143.016 127.074l0.064 0.674h82.56l82.36-90.76c2.945-3.308 7.215-5.382 11.969-5.382 8.837 0 16 7.163 16 16 0 4.217-1.631 8.053-4.298 10.911l0.009-0.009zM512 80c-56.206 0.006-102.74 41.413-110.765 95.387l-0.075 0.613h221.68c-8.1-54.587-54.634-95.994-110.839-96h-0.001zM192 208c-0.036 0-0.078 0-0.12 0-5.818 0-10.89 3.193-13.56 7.923l-0.040 0.078c-1.348 2.295-2.144 5.054-2.144 8s0.796 5.705 2.184 8.076l-0.041-0.076c29.72 51.32 61.72 170.72 61.72 312 0 0.151 0 0.331 0 0.51 0 50.73 13.974 98.195 38.283 138.758l-0.682-1.228 430.96-474.040zM850.2 257.92c-1.728-0.709-3.733-1.12-5.835-1.12-0.002 0-0.003 0-0.005 0v0c-6.728 0.007-12.483 4.166-14.842 10.052l-0.038 0.108c-28.52 72.36-45.48 175.92-45.48 277.040 0 0.020 0 0.044 0 0.068 0 150.221-121.779 272-272 272-49.328 0-95.59-13.131-135.48-36.088l1.32 0.7c-2.296-1.344-5.055-2.138-8-2.138-8.857 0-16.038 7.18-16.038 16.038 0 5.913 3.2 11.078 7.962 13.859l0.076 0.041c43.16 24.952 94.941 39.675 150.16 39.675 167.895 0 304-136.105 304-304 0-0.054 0-0.109 0-0.163v0.008c0-144.2 33.040-239.56 43.16-265.36 0.696-1.729 1.101-3.733 1.101-5.832 0-6.727-4.152-12.485-10.033-14.85l-0.108-0.038z" />
<glyph unicode="&#xe0d6;" glyph-name="bicycle-thin" data-tags="bicycle-thin" d="M832 496c-0.049 0-0.108 0-0.166 0-26.989 0-52.548-6.122-75.364-17.054l1.051 0.453-121.52 208.6h132c26.51 0 48-21.49 48-48v0c0-8.837 7.163-16 16-16s16 7.163 16 16v0c0 44.183-35.817 80-80 80v0h-160c-8.829-0.009-15.984-7.169-15.984-16 0-2.946 0.796-5.705 2.184-8.076l-0.041 0.075 60.64-104h-266.8l-70.16 120c-2.815 4.812-7.955 7.994-13.839 8h-112.001c-8.837 0-16-7.163-16-16s7.163-16 16-16v0h102.8l64.76-111.040-77.28-105.96c-26.156 16.129-57.854 25.684-91.784 25.684-97.666 0-176.84-79.174-176.84-176.84s79.174-176.84 176.84-176.84c97.666 0 176.84 79.174 176.84 176.84 0 52.478-22.858 99.616-59.161 132.003l-0.174 0.153 69.16 94.8 137-234.8c2.815-4.812 7.955-7.994 13.839-8h0.001c2.947 0.027 5.701 0.825 8.079 2.202l-0.079-0.042c4.791 2.824 7.956 7.958 7.956 13.831 0 2.982-0.816 5.773-2.236 8.163l0.041-0.074-135.32 232h266.96l56.44-96.76c-44.93-32.308-73.846-84.437-73.846-143.32 0-97.202 78.798-176 176-176s176 78.798 176 176c0 97.2-78.794 175.996-175.993 176h-0.001zM336 320c0-0.022 0-0.049 0-0.075 0-79.529-64.471-144-144-144s-144 64.471-144 144c0 79.529 64.471 144 144 144 26.25 0 50.86-7.024 72.052-19.295l-0.692 0.37-84.28-115.56c-1.925-2.61-3.081-5.89-3.081-9.44 0-8.837 7.164-16.001 16.001-16.001 5.287 0 9.976 2.564 12.889 6.517l0.031 0.044 84.28 115.6c28.805-26.367 46.8-64.134 46.8-106.105 0-0.019 0-0.039 0-0.058v0.003zM832 176c-79.49 0.052-143.908 64.503-143.908 144 0 47.137 22.648 88.984 57.656 115.253l0.372 0.267 72-123.6c2.815-4.812 7.955-7.994 13.839-8h0.001c2.947 0.027 5.701 0.825 8.079 2.202l-0.079-0.042c4.791 2.824 7.956 7.958 7.956 13.831 0 2.982-0.816 5.773-2.236 8.163l0.041-0.074-72 123.56c17.22 7.859 37.349 12.44 58.548 12.44 79.529 0 144-64.471 144-144s-64.471-144-144-144c-0.094 0-0.189 0-0.283 0h0.015z" />
<glyph unicode="&#xe0da;" glyph-name="bluetooth-thin" data-tags="bluetooth-thin" d="M777.6 268.8l-238.92 179.2 238.92 179.2c3.904 2.95 6.4 7.583 6.4 12.8s-2.496 9.85-6.36 12.771l-0.040 0.029-256 192c-2.641 1.998-5.98 3.2-9.6 3.2-8.837 0-16-7.163-16-16v-352l-230.4 172.8c-2.641 1.998-5.98 3.2-9.6 3.2-8.837 0-16-7.163-16-16 0-5.217 2.496-9.85 6.36-12.771l0.040-0.029 238.92-179.2-238.92-179.2c-3.904-2.95-6.4-7.583-6.4-12.8 0-8.837 7.163-16 16-16 3.62 0 6.959 1.202 9.64 3.229l-0.040-0.029 230.4 172.8v-352c0-8.837 7.163-16 16-16 3.62 0 6.959 1.202 9.64 3.229l-0.040-0.029 256 192c3.904 2.95 6.4 7.583 6.4 12.8s-2.496 9.85-6.36 12.771l-0.040 0.029zM528 800l213.32-160-213.32-160zM528 96v320l213.32-160z" />
<glyph unicode="&#xe0dc;" glyph-name="bluetooth-connected-thin" data-tags="bluetooth-connected-thin" d="M777.6 268.8l-238.92 179.2 238.92 179.2c3.904 2.95 6.4 7.583 6.4 12.8s-2.496 9.85-6.36 12.771l-0.040 0.029-256 192c-2.641 1.998-5.98 3.2-9.6 3.2-8.837 0-16-7.163-16-16v-352l-230.4 172.8c-2.641 1.998-5.98 3.2-9.6 3.2-8.837 0-16-7.163-16-16 0-5.217 2.496-9.85 6.36-12.771l0.040-0.029 238.92-179.2-238.92-179.2c-3.904-2.95-6.4-7.583-6.4-12.8 0-8.837 7.163-16 16-16 3.62 0 6.959 1.202 9.64 3.229l-0.040-0.029 230.4 172.8v-352c0-8.837 7.163-16 16-16 3.62 0 6.959 1.202 9.64 3.229l-0.040-0.029 256 192c3.904 2.95 6.4 7.583 6.4 12.8s-2.496 9.85-6.36 12.771l-0.040 0.029zM528 800l213.32-160-213.32-160zM528 96v320l213.32-160zM240 416c-17.673 0-32 14.327-32 32s14.327 32 32 32c17.673 0 32-14.327 32-32v0c0-17.673-14.327-32-32-32v0zM848 448c0-17.673-14.327-32-32-32s-32 14.327-32 32c0 17.673 14.327 32 32 32v0c17.673 0 32-14.327 32-32v0z" />
<glyph unicode="&#xe0de;" glyph-name="bluetooth-slash-thin" data-tags="bluetooth-slash-thin" d="M876 106.76l-640 704c-2.963 3.295-7.241 5.358-12 5.358-8.902 0-16.118-7.216-16.118-16.118 0-4.142 1.563-7.92 4.131-10.775l-0.013 0.015 296-325.68h-0.56c-0.839-0.248-1.516-0.493-2.176-0.771l0.136 0.051-0.6-0.24h-0.2c-0.858-0.446-1.591-0.91-2.281-1.429l0.041 0.029h-0.2l-256-192c-3.904-2.95-6.4-7.583-6.4-12.8 0-8.837 7.163-16 16-16 3.62 0 6.959 1.202 9.64 3.229l-0.040-0.029 230.64 172.4v-352c0-0.003 0-0.007 0-0.011 0-6.226 3.557-11.622 8.749-14.267l0.091-0.042c2.088-1.056 4.551-1.676 7.159-1.68h0.001c3.62 0 6.959 1.202 9.64 3.229l-0.040-0.029 214.96 161.2 115.44-127.16c2.945-3.308 7.215-5.382 11.969-5.382 8.837 0 16 7.163 16 16 0 4.217-1.631 8.053-4.298 10.911l0.009-0.009zM528 96v320l73.76-55.32 113.16-124.68zM496 673.48v158.52c0 8.837 7.163 16 16 16 3.62 0 6.959-1.202 9.64-3.229l-0.040 0.029 256-192c3.904-2.95 6.4-7.583 6.4-12.8s-2.496-9.85-6.36-12.771l-0.040-0.029-134.12-100.6c-2.641-1.998-5.98-3.2-9.6-3.2v0c-8.837 0-16 7.163-16 16 0 5.217 2.496 9.85 6.36 12.771l0.040 0.029 117.040 88-213.32 159.8v-126.52c0-8.837-7.163-16-16-16s-16 7.163-16 16v0z" />
<glyph unicode="&#xe0e0;" glyph-name="bluetooth-x-thin" data-tags="bluetooth-x-thin" d="M713.6 268.8l-238.92 179.2 110.92 83.2c3.904 2.95 6.4 7.583 6.4 12.8 0 8.837-7.163 16-16 16-3.62 0-6.959-1.202-9.64-3.229l0.040 0.029-102.4-76.8v320l102.4-76.8c2.641-1.998 5.98-3.2 9.6-3.2 8.837 0 16 7.163 16 16 0 5.217-2.496 9.85-6.36 12.771l-0.040 0.029-128 96c-2.641 1.998-5.98 3.2-9.6 3.2-8.837 0-16-7.163-16-16v0-352l-230.4 172.8c-2.641 1.998-5.98 3.2-9.6 3.2-8.837 0-16-7.163-16-16 0-5.217 2.496-9.85 6.36-12.771l0.040-0.029 238.92-179.2-238.92-179.2c-3.904-2.95-6.4-7.583-6.4-12.8 0-8.837 7.163-16 16-16 3.62 0 6.959 1.202 9.64 3.229l-0.040-0.029 230.4 172.8v-352c0-0.003 0-0.007 0-0.011 0-6.226 3.557-11.622 8.749-14.267l0.091-0.042c2.088-1.056 4.551-1.676 7.159-1.68h0.001c3.62 0 6.959 1.202 9.64 3.229l-0.040-0.029 256 192c3.904 2.95 6.4 7.583 6.4 12.8s-2.496 9.85-6.36 12.771l-0.040 0.029zM464 96v320l213.32-160zM939.32 555.32c2.897-2.897 4.689-6.899 4.689-11.32 0-8.841-7.167-16.009-16.009-16.009-4.421 0-8.423 1.792-11.32 4.689l-84.68 84.68-84.68-84.68c-2.897-2.897-6.899-4.689-11.32-4.689-8.841 0-16.009 7.167-16.009 16.009 0 4.421 1.792 8.423 4.689 11.32l84.68 84.68-84.68 84.68c-2.897 2.897-4.689 6.899-4.689 11.32 0 8.841 7.167 16.009 16.009 16.009 4.421 0 8.423-1.792 11.32-4.689l84.68-84.68 84.68 84.68c2.897 2.897 6.899 4.689 11.32 4.689 8.841 0 16.009-7.167 16.009-16.009 0-4.421-1.792-8.423-4.689-11.32l-84.68-84.68z" />
<glyph unicode="&#xe0e2;" glyph-name="book-thin" data-tags="book-thin" d="M832 848h-544c-61.856 0-112-50.144-112-112v0-672c0-8.837 7.163-16 16-16v0h576c8.837 0 16 7.163 16 16s-7.163 16-16 16v0h-560v16c0 44.183 35.817 80 80 80v0h544c8.837 0 16 7.163 16 16v0 640c0 8.837-7.163 16-16 16v0zM816 208h-528c-0.012 0-0.025 0-0.039 0-31.329 0-59.648-12.891-79.94-33.659l-0.021-0.021v561.68c0 44.183 35.817 80 80 80v0h528z" />
<glyph unicode="&#xe0e4;" glyph-name="book-bookmark-thin" data-tags="book-bookmark-thin" d="M832 848h-544c-61.856 0-112-50.144-112-112v0-672c0-8.837 7.163-16 16-16v0h576c8.837 0 16 7.163 16 16s-7.163 16-16 16v0h-560v16c0 44.183 35.817 80 80 80v0h544c8.837 0 16 7.163 16 16v0 640c0 8.837-7.163 16-16 16v0zM464 816h224v-336l-102.44 76.8c-2.641 1.998-5.98 3.2-9.6 3.2s-6.959-1.202-9.64-3.229l0.040 0.029-102.36-76.8zM816 208h-528c-0.012 0-0.025 0-0.039 0-31.329 0-59.648-12.891-79.94-33.659l-0.021-0.021v561.68c0 44.183 35.817 80 80 80v0h144v-368c0-8.837 7.163-16 16-16 3.62 0 6.959 1.202 9.64 3.229l-0.040-0.029 118.4 88.8 118.44-88.8c2.641-1.998 5.98-3.2 9.6-3.2v0c8.837 0 16 7.163 16 16v0 368h96z" />
<glyph unicode="&#xe0e6;" glyph-name="book-open-thin" data-tags="book-open-thin" d="M928 752h-288c-55.461-0.027-103.587-31.402-127.622-77.366l-0.378-0.794c-24.413 46.758-72.539 78.133-127.996 78.16h-288.004c-8.837 0-16-7.163-16-16v0-576c0-8.837 7.163-16 16-16v0h288c61.856 0 112-50.144 112-112v0c0-8.837 7.163-16 16-16s16 7.163 16 16v0c0 61.856 50.144 112 112 112v0h288c8.837 0 16 7.163 16 16v0 576c0 8.837-7.163 16-16 16v0zM384 176h-272v544h272c61.856 0 112-50.144 112-112v0-485.6c-26.56 32.802-66.828 53.6-111.955 53.6-0.016 0-0.032 0-0.048 0h0.002zM912 176h-272c-45.148-0.002-85.434-20.815-111.788-53.37l-0.212-0.27v485.64c0 61.856 50.144 112 112 112v0h272z" />
<glyph unicode="&#xe0e8;" glyph-name="bookmark-thin" data-tags="bookmark-thin" d="M736 816h-448c-26.51 0-48-21.49-48-48v0-704c0.005-8.833 7.166-15.992 16-15.992 3.142 0 6.073 0.906 8.546 2.471l-0.066-0.039 247.52 154.68 247.56-154.68c2.395-1.522 5.31-2.429 8.437-2.44h0.003c2.848 0.009 5.52 0.749 7.843 2.042l-0.083-0.042c4.951 2.785 8.24 8.004 8.24 13.992 0 0.003 0 0.005 0 0.008v0 704c0 26.51-21.49 48-48 48v0zM288 784h448c8.837 0 16-7.163 16-16v0-483.12l-231.56 144.68c-2.407 1.526-5.338 2.432-8.48 2.432s-6.073-0.906-8.546-2.471l0.066 0.039-231.48-144.68v483.12c0 8.837 7.163 16 16 16v0zM520.44 237.56c-2.407 1.526-5.338 2.432-8.48 2.432s-6.073-0.906-8.546-2.471l0.066 0.039-231.48-144.68v154.24l240 150 240-150v-154.24z" />
<glyph unicode="&#xe0ea;" glyph-name="bookmark-simple-thin" data-tags="bookmark-simple-thin" d="M736 816h-448c-26.51 0-48-21.49-48-48v0-704c0.005-8.833 7.166-15.992 16-15.992 3.142 0 6.073 0.906 8.546 2.471l-0.066-0.039 247.52 154.68 247.56-154.68c2.395-1.522 5.31-2.429 8.437-2.44h0.003c2.848 0.009 5.52 0.749 7.843 2.042l-0.083-0.042c4.951 2.785 8.24 8.004 8.24 13.992 0 0.003 0 0.005 0 0.008v0 704c0 26.51-21.49 48-48 48v0zM752 92.88l-231.56 144.68c-2.407 1.526-5.338 2.432-8.48 2.432s-6.073-0.906-8.546-2.471l0.066 0.039-231.48-144.68v675.12c0 8.837 7.163 16 16 16v0h448c8.837 0 16-7.163 16-16v0z" />
<glyph unicode="&#xe0ec;" glyph-name="bookmarks-thin" data-tags="bookmarks-thin" d="M768 848h-384c-26.51 0-48-21.49-48-48v0-80h-80c-26.51 0-48-21.49-48-48v0-608c0.003-8.834 7.165-15.995 16-15.995 3.498 0 6.734 1.122 9.367 3.027l-0.047-0.032 214.68 153.32 214.76-153.32c2.559-1.873 5.768-2.998 9.239-3h0.001c2.672 0.009 5.19 0.658 7.411 1.803l-0.091-0.043c5.195 2.714 8.68 8.064 8.68 14.227 0 0.004 0 0.009 0 0.013v-0.001 188.32l102.72-73.32c2.561-1.875 5.774-3 9.25-3 0.011 0 0.021 0 0.032 0h-0.002c2.672 0.009 5.19 0.658 7.411 1.803l-0.091-0.043c5.195 2.714 8.68 8.064 8.68 14.227 0 0.004 0 0.009 0 0.013v-0.001 608c0 26.51-21.49 48-48 48v0zM656 95.080l-198.72 141.92c-2.582 1.863-5.811 2.98-9.3 2.98s-6.718-1.117-9.347-3.013l0.047 0.032-198.68-141.92v576.92c0 8.837 7.163 16 16 16v0h384c8.837 0 16-7.163 16-16v0zM784 223.080l-96 68.56v380.36c0 26.51-21.49 48-48 48v0h-272v80c0 8.837 7.163 16 16 16v0h384c8.837 0 16-7.163 16-16v0z" />
<glyph unicode="&#xe0ee;" glyph-name="briefcase-thin" data-tags="briefcase-thin" d="M432 512c0 8.837 7.163 16 16 16v0h128c8.837 0 16-7.163 16-16s-7.163-16-16-16v0h-128c-8.837 0-16 7.163-16 16v0zM912 672v-512c0-26.51-21.49-48-48-48v0h-704c-26.51 0-48 21.49-48 48v0 512c0 26.51 21.49 48 48 48v0h176v48c0 44.183 35.817 80 80 80v0h192c44.183 0 80-35.817 80-80v0-48h176c26.51 0 48-21.49 48-48v0zM368 720h288v48c0 26.51-21.49 48-48 48v0h-192c-26.51 0-48-21.49-48-48v0zM144 672v-176c105.843-60.394 232.589-96 367.652-96 0.122 0 0.245 0 0.367 0h-0.019c0.103 0 0.226 0 0.348 0 135.063 0 261.809 35.607 371.365 97.945l-3.712-1.945v176c0 8.837-7.163 16-16 16v0h-704c-8.837 0-16-7.163-16-16v0zM880 160v299.6c-106.524-57.69-233.205-91.6-367.807-91.6-0.068 0-0.136 0-0.204 0h0.011c-0.075 0-0.164 0-0.252 0-134.582 0-261.244 33.91-371.907 93.653l4.159-2.053v-299.6c0-8.837 7.163-16 16-16v0h704c8.837 0 16 7.163 16 16v0z" />
<glyph unicode="&#xe0f2;" glyph-name="broadcast-thin" data-tags="broadcast-thin" d="M512 592c-79.529 0-144-64.471-144-144s64.471-144 144-144c79.529 0 144 64.471 144 144v0c0 79.529-64.471 144-144 144v0zM512 336c-61.856 0-112 50.144-112 112s50.144 112 112 112c61.856 0 112-50.144 112-112v0c0-61.856-50.144-112-112-112v0zM816 448c0-0.126 0-0.275 0-0.424 0-77.864-29.374-148.867-77.645-202.533l0.245 0.276c-2.956-3.31-7.236-5.384-12-5.384-8.872 0-16.064 7.192-16.064 16.064 0 4.108 1.542 7.855 4.078 10.696l-0.014-0.016c43.039 47.87 69.361 111.521 69.361 181.32s-26.322 133.45-69.581 181.569l0.22-0.249c-2.523 2.825-4.064 6.572-4.064 10.68 0 8.872 7.192 16.064 16.064 16.064 4.764 0 9.044-2.074 11.986-5.369l0.014-0.016c48.027-53.39 77.4-124.393 77.4-202.256 0-0.149 0-0.298 0-0.447v0.023zM261.36 553.88c-13.556-31.22-21.443-67.583-21.443-105.789 0-69.842 26.354-133.529 69.661-181.658l-0.219 0.247c2.523-2.825 4.064-6.572 4.064-10.68 0-8.872-7.192-16.064-16.064-16.064-4.764 0-9.044 2.074-11.986 5.369l-0.014 0.016c-48.102 53.512-77.52 124.66-77.52 202.68s29.418 149.168 77.766 202.959l-0.246-0.279c2.956 3.31 7.236 5.384 12 5.384 8.872 0 16.064-7.192 16.064-16.064 0-4.108-1.542-7.855-4.078-10.696l0.014 0.016c-19.379-21.508-35.514-46.438-47.321-73.68l-0.679-1.76zM976 448c0-0.155 0-0.339 0-0.522 0-126.294-50.597-240.771-132.626-324.266l0.066 0.068c-2.909-2.969-6.959-4.81-11.44-4.81-8.842 0-16.010 7.168-16.010 16.010 0 4.361 1.744 8.315 4.572 11.203l-0.003-0.003c76.417 77.804 123.588 184.553 123.588 302.32s-47.172 224.516-123.651 302.384l0.063-0.064c-2.826 2.885-4.57 6.839-4.57 11.2 0 8.842 7.168 16.010 16.010 16.010 4.481 0 8.531-1.841 11.437-4.807l0.003-0.003c81.963-83.427 132.56-197.904 132.56-324.198 0-0.183 0-0.367 0-0.55v0.028zM203.44 145.68c2.826-2.885 4.57-6.839 4.57-11.2 0-8.842-7.168-16.010-16.010-16.010-4.481 0-8.531 1.841-11.437 4.807l-0.003 0.003c-82.054 83.579-132.703 198.235-132.703 324.72s50.649 241.141 132.773 324.791l-0.069-0.071c2.909 2.969 6.959 4.81 11.44 4.81 8.842 0 16.010-7.168 16.010-16.010 0-4.361-1.744-8.315-4.572-11.203l0.003 0.003c-76.417-77.804-123.588-184.553-123.588-302.32s47.172-224.516 123.651-302.384l-0.063 0.064z" />
<glyph unicode="&#xe0f4;" glyph-name="browser-thin" data-tags="browser-thin" d="M864 784h-704c-26.51 0-48-21.49-48-48v0-576c0-26.51 21.49-48 48-48v0h704c26.51 0 48 21.49 48 48v0 576c0 26.51-21.49 48-48 48v0zM160 752h704c8.837 0 16-7.163 16-16v0-144h-736v144c0 8.837 7.163 16 16 16v0zM864 144h-704c-8.837 0-16 7.163-16 16v0 400h736v-400c0-8.837-7.163-16-16-16v0z" />
<glyph unicode="&#xe0f6;" glyph-name="browsers-thin" data-tags="browsers-thin" d="M864 784h-576c-26.51 0-48-21.49-48-48v0-80h-80c-26.51 0-48-21.49-48-48v0-448c0-26.51 21.49-48 48-48v0h576c26.51 0 48 21.49 48 48v0 80h80c26.51 0 48 21.49 48 48v0 448c0 26.51-21.49 48-48 48v0zM160 624h576c8.837 0 16-7.163 16-16v0-80h-608v80c0 8.837 7.163 16 16 16v0zM752 160c0-8.837-7.163-16-16-16v0h-576c-8.837 0-16 7.163-16 16v0 336h608zM880 288c0-8.837-7.163-16-16-16v0h-80v336c0 26.51-21.49 48-48 48v0h-464v80c0 8.837 7.163 16 16 16v0h576c8.837 0 16-7.163 16-16v0z" />
<glyph unicode="&#xe0f8;" glyph-name="cards-thin" data-tags="cards-thin" d="M736 656h-576c-26.51 0-48-21.49-48-48v0-448c0-26.51 21.49-48 48-48v0h576c26.51 0 48 21.49 48 48v0 448c0 26.51-21.49 48-48 48v0zM752 160c0-8.837-7.163-16-16-16v0h-576c-8.837 0-16 7.163-16 16v0 448c0 8.837 7.163 16 16 16v0h576c8.837 0 16-7.163 16-16v0zM912 736v-480c0-8.837-7.163-16-16-16s-16 7.163-16 16v0 480c0 8.837-7.163 16-16 16v0h-608c-8.837 0-16 7.163-16 16s7.163 16 16 16v0h608c26.51 0 48-21.49 48-48v0z" />
<glyph unicode="&#xe0fe;" glyph-name="building-apartment-thin" data-tags="building-apartment-thin" d="M960 112h-48v560c0 8.837-7.163 16-16 16v0h-176v112c0 8.837-7.163 16-16 16v0h-384c-8.837 0-16-7.163-16-16v0-240h-176c-8.837 0-16-7.163-16-16v0-432h-48c-8.837 0-16-7.163-16-16s7.163-16 16-16v0h896c8.837 0 16 7.163 16 16s-7.163 16-16 16v0zM144 528h176c8.837 0 16 7.163 16 16v0 240h352v-112c0-8.837 7.163-16 16-16v0h176v-544h-288v176c0 8.837-7.163 16-16 16v0h-128c-8.837 0-16-7.163-16-16v0-176h-288zM560 112h-96v160h96zM464 672c0 8.837 7.163 16 16 16v0h64c8.837 0 16-7.163 16-16s-7.163-16-16-16v0h-64c-8.837 0-16 7.163-16 16v0zM464 544c0 8.837 7.163 16 16 16v0h64c8.837 0 16-7.163 16-16s-7.163-16-16-16v0h-64c-8.837 0-16 7.163-16 16v0zM688 544c0 8.837 7.163 16 16 16v0h64c8.837 0 16-7.163 16-16s-7.163-16-16-16v0h-64c-8.837 0-16 7.163-16 16v0zM336 416c0-8.837-7.163-16-16-16v0h-64c-8.837 0-16 7.163-16 16s7.163 16 16 16v0h64c8.837 0 16-7.163 16-16v0zM336 288c0-8.837-7.163-16-16-16v0h-64c-8.837 0-16 7.163-16 16s7.163 16 16 16v0h64c8.837 0 16-7.163 16-16v0zM464 416c0 8.837 7.163 16 16 16v0h64c8.837 0 16-7.163 16-16s-7.163-16-16-16v0h-64c-8.837 0-16 7.163-16 16v0zM688 416c0 8.837 7.163 16 16 16v0h64c8.837 0 16-7.163 16-16s-7.163-16-16-16v0h-64c-8.837 0-16 7.163-16 16v0zM688 288c0 8.837 7.163 16 16 16v0h64c8.837 0 16-7.163 16-16s-7.163-16-16-16v0h-64c-8.837 0-16 7.163-16 16v0z" />
<glyph unicode="&#xe0ff;" glyph-name="building-office-thin" data-tags="building-office-thin" d="M992 112h-80v480h16c8.837 0 16 7.163 16 16s-7.163 16-16 16v0h-208v160h16c8.837 0 16 7.163 16 16s-7.163 16-16 16v0h-576c-8.837 0-16-7.163-16-16s7.163-16 16-16v0h16v-672h-80c-8.837 0-16-7.163-16-16s7.163-16 16-16v0h896c8.837 0 16 7.163 16 16s-7.163 16-16 16v0zM880 592v-480h-160v480zM208 784h480v-672h-128v208c0 8.837-7.163 16-16 16v0h-192c-8.837 0-16-7.163-16-16v0-208h-128zM528 112h-160v192h160zM304 640c0 8.837 7.163 16 16 16v0h64c8.837 0 16-7.163 16-16s-7.163-16-16-16v0h-64c-8.837 0-16 7.163-16 16v0zM496 640c0 8.837 7.163 16 16 16v0h64c8.837 0 16-7.163 16-16s-7.163-16-16-16v0h-64c-8.837 0-16 7.163-16 16v0zM320 464c-8.837 0-16 7.163-16 16s7.163 16 16 16v0h64c8.837 0 16-7.163 16-16s-7.163-16-16-16v0zM496 480c0 8.837 7.163 16 16 16v0h64c8.837 0 16-7.163 16-16s-7.163-16-16-16v0h-64c-8.837 0-16 7.163-16 16v0z" />
<glyph unicode="&#xe100;" glyph-name="building-thin" data-tags="building-thin" d="M928 48h-112v800h48c8.837 0 16 7.163 16 16s-7.163 16-16 16v0h-704c-8.837 0-16-7.163-16-16s7.163-16 16-16v0h48v-800h-112c-8.837 0-16-7.163-16-16s7.163-16 16-16v0h832c8.837 0 16 7.163 16 16s-7.163 16-16 16v0zM240 848h544v-800h-160v176c0 8.837-7.163 16-16 16v0h-192c-8.837 0-16-7.163-16-16v0-176h-160zM592 48h-160v160h160zM368 704c0 8.837 7.163 16 16 16v0h64c8.837 0 16-7.163 16-16s-7.163-16-16-16v0h-64c-8.837 0-16 7.163-16 16v0zM560 704c0 8.837 7.163 16 16 16v0h64c8.837 0 16-7.163 16-16s-7.163-16-16-16v0h-64c-8.837 0-16 7.163-16 16v0zM368 544c0 8.837 7.163 16 16 16v0h64c8.837 0 16-7.163 16-16s-7.163-16-16-16v0h-64c-8.837 0-16 7.163-16 16v0zM560 544c0 8.837 7.163 16 16 16v0h64c8.837 0 16-7.163 16-16s-7.163-16-16-16v0h-64c-8.837 0-16 7.163-16 16v0zM384 368c-8.837 0-16 7.163-16 16s7.163 16 16 16v0h64c8.837 0 16-7.163 16-16s-7.163-16-16-16v0zM560 384c0 8.837 7.163 16 16 16v0h64c8.837 0 16-7.163 16-16s-7.163-16-16-16v0h-64c-8.837 0-16 7.163-16 16v0z" />
<glyph unicode="&#xe102;" glyph-name="buildings-thin" data-tags="buildings-thin" d="M960 112h-80v464c0 26.51-21.49 48-48 48v0h-272v208c0 0.021 0 0.046 0 0.071 0 26.51-21.49 48-48 48-9.93 0-19.155-3.015-26.811-8.18l0.171 0.108-320-213.32c-12.954-8.732-21.36-23.349-21.36-39.929 0-0.025 0-0.050 0-0.075v0.004-506.68h-80c-8.837 0-16-7.163-16-16s7.163-16 16-16v0h896c8.837 0 16 7.163 16 16s-7.163 16-16 16v0zM832 592c8.837 0 16-7.163 16-16v0-464h-288v480zM176 618.64c0 0.015 0 0.033 0 0.050 0 5.527 2.802 10.399 7.063 13.274l0.057 0.036 320 213.32c2.495 1.685 5.57 2.69 8.88 2.69 8.837 0 16-7.163 16-16 0-0.004 0-0.007 0-0.011v0.001-720h-352zM432 512v-64c0-8.837-7.163-16-16-16s-16 7.163-16 16v0 64c0 8.837 7.163 16 16 16s16-7.163 16-16v0zM304 512v-64c0-8.837-7.163-16-16-16s-16 7.163-16 16v0 64c0 8.837 7.163 16 16 16s16-7.163 16-16v0zM304 288v-64c0-8.837-7.163-16-16-16s-16 7.163-16 16v0 64c0 8.837 7.163 16 16 16s16-7.163 16-16v0zM432 288v-64c0-8.837-7.163-16-16-16s-16 7.163-16 16v0 64c0 8.837 7.163 16 16 16s16-7.163 16-16v0z" />
</font>
</defs>
</svg>
