<?xml version="1.0" standalone="no"?>
<!DOCTYPE svg PUBLIC "-//W3C//DTD SVG 1.1//EN" "http://www.w3.org/Graphics/SVG/1.1/DTD/svg11.dtd" >
<svg xmlns="http://www.w3.org/2000/svg">
<metadata>
<json>
<![CDATA[
{
	"fontFamily": "Phosphor-Thin",
	"majorVersion": 2,
	"minorVersion": 0,
	"fontURL": "https://phosphoricons.com",
	"copyright": "2023",
	"designer": "Helena Zhang & Tobias Fried",
	"designerURL": "https://phosphoricons.com",
	"license": "MIT",
	"licenseURL": "https://github.com/phosphor-icons/homepage/blob/master/LICENSE",
	"version": "Version 2.0",
	"fontId": "Phosphor-Thin",
	"psName": "Phosphor-Thin",
	"subFamily": "Regular",
	"fullName": "Phosphor-Thin",
	"description": "Font generated by IcoMoon."
}
]]>
</json>
</metadata>
<defs>
<font id="Phosphor-Thin" horiz-adv-x="1024">
<font-face units-per-em="1024" ascent="960" descent="-64" />
<missing-glyph horiz-adv-x="1024" />
<glyph unicode="&#x20;" horiz-adv-x="512" d="" />
<glyph unicode="&#xe000;" glyph-name="activity-thin" data-tags="activity-thin" d="M640 112h-0.8c-6.467 0.305-11.879 4.504-13.966 10.291l-0.034 0.109-242.4 636-144.4-317.2c-2.504-5.47-7.93-9.201-14.227-9.201-0.061 0-0.121 0-0.182 0.001h-127.991c-8.837 0-16 7.163-16 16s7.163 16 16 16v0h117.6l156 342.8c2.383 5.469 7.741 9.222 13.975 9.222 0.29 0 0.578-0.008 0.864-0.024l-0.040 0.002c6.589-0.252 12.137-4.451 14.363-10.29l0.037-0.11 243.2-638 143.6 287.6c2.841 5.175 8.198 8.657 14.38 8.8h128.020c8.837 0 16-7.163 16-16s-7.163-16-16-16v0h-118l-155.6-311.2c-2.841-5.175-8.198-8.657-14.38-8.8h-0.020z" />
<glyph unicode="&#xe001;" glyph-name="address-book-thin" data-tags="address-book-thin" d="M618.8 388.8c41.77 25.705 69.2 71.174 69.2 123.049 0 79.529-64.471 144-144 144s-144-64.471-144-144c0-51.875 27.43-97.343 68.578-122.692l0.622-0.357c-53.385-16.333-97.926-48.315-129.529-90.542l-0.471-0.658c-1.998-2.641-3.2-5.98-3.2-9.6 0-5.217 2.496-9.85 6.36-12.771l0.040-0.029c2.671-1.927 5.989-3.114 9.579-3.2h0.021c5.188 0.127 9.777 2.586 12.773 6.365l0.027 0.035c41.3 54.65 106.169 89.6 179.2 89.6s137.9-34.95 178.792-89.037l0.408-0.563c2.95-3.904 7.583-6.4 12.8-6.4 8.837 0 16 7.163 16 16 0 3.62-1.202 6.959-3.229 9.64l0.029-0.040c-32.074 42.885-76.615 74.867-128.215 90.728l-1.785 0.472zM432 512c0 61.856 50.144 112 112 112s112-50.144 112-112c0-61.856-50.144-112-112-112v0c-61.765 0.226-111.773 50.235-112 111.978v0.022zM832 848h-576c-26.51 0-48-21.49-48-48v0-96h-80c-8.837 0-16-7.163-16-16s7.163-16 16-16v0h80v-128h-80c-8.837 0-16-7.163-16-16s7.163-16 16-16v0h80v-128h-80c-8.837 0-16-7.163-16-16s7.163-16 16-16v0h80v-128h-80c-8.837 0-16-7.163-16-16s7.163-16 16-16v0h80v-96c0-26.51 21.49-48 48-48v0h576c26.51 0 48 21.49 48 48v0 704c0 26.51-21.49 48-48 48v0zM848 96c0-8.837-7.163-16-16-16v0h-576c-8.837 0-16 7.163-16 16v0 704c0 8.837 7.163 16 16 16v0h576c8.837 0 16-7.163 16-16v0z" />
<glyph unicode="&#xe002;" glyph-name="airplane-in-flight" data-tags="airplane-in-flight-thin" d="M880 96c0-8.837-7.163-16-16-16v0h-576c-8.837 0-16 7.163-16 16s7.163 16 16 16v0h576c8.837 0 16-7.163 16-16v0zM976 416v-96c0-8.837-7.163-16-16-16v0h-704.8c-0.183-0.001-0.4-0.001-0.617-0.001-64.688 0-119.357 42.892-137.121 101.787l-0.263 1.014-56 187.6c-1.353 4.214-2.133 9.061-2.133 14.091 0 10.66 3.504 20.501 9.423 28.435l-0.090-0.126c8.928 11.716 22.89 19.2 38.6 19.2 0.070 0 0.141 0 0.211 0h68.789c0.017 0 0.038 0 0.058 0 4.912 0 9.32-2.16 12.326-5.582l0.016-0.018 75.2-90.4h98.4l-43.2 128.8c-1.543 4.484-2.434 9.651-2.434 15.026 0 10.601 3.465 20.392 9.325 28.303l-0.091-0.129c8.487 12.153 22.407 20.004 38.161 20.004 0.225 0 0.449-0.002 0.673-0.005h67.566c4.603-0.008 8.737-2.009 11.587-5.185l0.013-0.015 171.6-186.8h216.8c79.529 0 144-64.471 144-144v0zM944 416c-0.226 61.765-50.235 111.773-111.978 112h-224.022c-4.603 0.008-8.737 2.009-11.587 5.185l-0.013 0.015-171.6 186.8h-60.4c-0.103 0.003-0.224 0.004-0.346 0.004-5.204 0-9.78-2.686-12.419-6.747l-0.035-0.057c-2.025-2.559-3.249-5.832-3.249-9.392 0-1.794 0.311-3.516 0.882-5.114l-0.033 0.106 50-149.6c0.538-1.492 0.849-3.214 0.849-5.008 0-3.56-1.224-6.833-3.273-9.424l0.024 0.032c-2.674-4.118-7.25-6.804-12.454-6.804-0.122 0-0.243 0.001-0.364 0.004h-127.982c-0.017 0-0.038 0-0.058 0-4.912 0-9.32 2.16-12.326 5.582l-0.016 0.018-75.2 90.4h-61.2c-0.002 0-0.004 0-0.006 0-5.335 0-10.090-2.487-13.167-6.365l-0.027-0.035c-1.853-2.704-2.96-6.046-2.96-9.647 0-1.547 0.204-3.047 0.587-4.473l-0.028 0.12 56.4-187.6c13.942-46.61 56.438-80.001 106.734-80.001 0.164 0 0.328 0 0.492 0.001h688.775z" />
<glyph unicode="&#xe003;" glyph-name="airplane-landing-thin" data-tags="airplane-landing-thin" d="M976 96c0-8.837-7.163-16-16-16v0h-576c-8.837 0-16 7.163-16 16s7.163 16 16 16v0h576c8.837 0 16-7.163 16-16v0zM891.6 208.4l-706.4 198c-61.142 17.653-105.117 73.080-105.2 138.79v210.41c-0.003 0.19-0.004 0.415-0.004 0.639 0 15.754 7.851 29.674 19.854 38.061l0.15 0.099c7.782 5.768 17.574 9.234 28.174 9.234 5.375 0 10.542-0.891 15.361-2.533l-0.335 0.099 54-18c3.811-1.418 6.876-4.095 8.757-7.515l0.043-0.085 61.2-114.4 100.8-31.6v126c-0.003 0.19-0.004 0.415-0.004 0.639 0 15.754 7.851 29.674 19.854 38.061l0.15 0.099c7.782 5.768 17.574 9.234 28.174 9.234 5.375 0 10.542-0.891 15.361-2.533l-0.335 0.099 54-18c3.726-1.381 6.76-3.899 8.758-7.126l0.042-0.074 124.8-218.4 187.6-52c61.311-17.509 105.464-72.98 105.6-138.784v-142.816c0-5.217-2.496-9.85-6.36-12.771l-0.040-0.029c-2.651-1.973-5.983-3.17-9.593-3.2h-0.007zM880 366.8c-0.099 51.168-34.373 94.303-81.206 107.804l-0.794 0.196-194.4 53.6c-4.131 1.246-7.495 3.96-9.558 7.521l-0.042 0.079-124.8 218.8-48 16c-1.492 0.538-3.214 0.849-5.008 0.849-3.56 0-6.833-1.224-9.424-3.273l0.032 0.024c-4.118-2.674-6.804-7.25-6.804-12.454 0-0.122 0.001-0.243 0.004-0.364v0.018-147.6c-0.036-8.809-7.185-15.937-16-15.937-1.714 0-3.365 0.27-4.913 0.769l0.113-0.032-128 40c-4.010 1.258-7.249 3.976-9.159 7.517l-0.041 0.083-61.2 114.4-47.6 16-5.2 0.8c-3.479-0.091-6.664-1.279-9.24-3.229l0.040 0.029c-4.118-2.674-6.804-7.25-6.804-12.454 0-0.122 0.001-0.243 0.004-0.364v0.018-210.4c0.099-51.168 34.373-94.303 81.206-107.804l0.794-0.196 686-192z" />
<glyph unicode="&#xe004;" glyph-name="airplane-takeoff-thin" data-tags="airplane-takeoff-thin" d="M688 96c0-8.837-7.163-16-16-16v0h-576c-8.837 0-16 7.163-16 16s7.163 16 16 16v0h576c8.837 0 16-7.163 16-16v0zM991.6 589.2c-0.79-4.786-3.61-8.79-7.528-11.16l-0.072-0.040-605.6-352c-20.716-12.329-45.678-19.617-72.343-19.617-38.17 0-72.851 14.934-98.521 39.277l0.064-0.060-150.8 141.2c-9.361 8.781-15.192 21.229-15.192 35.038 0 19.715 11.886 36.654 28.882 44.042l0.31 0.12 66.8 28.8c1.897 0.763 4.097 1.205 6.4 1.205s4.503-0.442 6.519-1.247l-0.119 0.042 104.4-44.8 86 48.8-106.4 96c-9.687 8.815-15.743 21.473-15.743 35.545 0 19.619 11.771 36.49 28.636 43.934l0.307 0.121 66 28.4c1.869 0.803 4.044 1.27 6.329 1.27 1.887 0 3.699-0.319 5.387-0.905l-0.115 0.035 232.8-77.6 171.2 100.4c20.977 12.678 46.315 20.179 73.405 20.179 44.828 0 84.858-20.541 111.192-52.724l0.203-0.255 74.4-91.2c2.141-2.744 3.434-6.242 3.434-10.042 0-0.974-0.085-1.929-0.248-2.857l0.014 0.098zM951.6 596.4l-62.4 76.4c-20.624 25.406-51.854 41.51-86.844 41.51-20.934 0-40.522-5.764-57.263-15.791l0.507 0.282-177.6-104.4c-2.353-1.5-5.222-2.39-8.298-2.39-1.753 0-3.439 0.289-5.012 0.822l0.11-0.032-234 78-60.4-25.6c-5.079-2.186-8.748-6.784-9.589-12.311l-0.011-0.089c-0.158-0.824-0.249-1.771-0.249-2.74 0-4.673 2.108-8.853 5.426-11.641l0.023-0.019 122.8-110.4c3.236-3.131 5.244-7.514 5.244-12.365 0-0.434-0.016-0.865-0.048-1.292l0.003 0.057c-0.761-5.241-3.736-9.665-7.93-12.358l-0.070-0.042-112-64c-2.308-1.317-5.072-2.093-8.017-2.093-2.305 0-4.499 0.476-6.489 1.334l0.106-0.041-105.6 45.2-60.8-26c-4.814-2.025-8.315-6.322-9.188-11.511l-0.012-0.089c-0.191-0.928-0.301-1.995-0.301-3.087 0-4.621 1.959-8.784 5.091-11.705l0.009-0.009 150.8-141.2c19.935-18.83 46.897-30.405 76.563-30.405 20.723 0 40.126 5.648 56.755 15.489l-0.518-0.284z" />
<glyph unicode="&#xe005;" glyph-name="airplane-thin" data-tags="airplane-thin" d="M936 430.4l-311.2 155.6v182c0 61.856-50.144 112-112 112s-112-50.144-112-112v0-182l-312-155.6c-5.175-2.841-8.657-8.198-8.8-14.38v-128.020c0-0.031 0-0.067 0-0.103 0-4.98 2.334-9.415 5.967-12.271l0.034-0.025c2.535-2.271 5.901-3.659 9.592-3.659 1.282 0 2.526 0.168 3.709 0.482l-0.101-0.023 300.8 60v-101.6l-59.2-59.6c-2.956-2.649-4.807-6.478-4.807-10.74 0-0.162 0.003-0.323 0.008-0.484l-0.001 0.023v-128c0.058-5.498 2.88-10.325 7.141-13.163l0.059-0.037c2.451-1.766 5.514-2.824 8.824-2.824 2.159 0 4.213 0.45 6.074 1.262l-0.098-0.038 154 61.6 154-61.6c1.773-0.749 3.834-1.189 5.996-1.2h0.004c0.156-0.006 0.338-0.010 0.521-0.010 3.129 0 6.012 1.057 8.31 2.833l-0.031-0.023c4.32 2.875 7.142 7.702 7.2 13.191v128.009c0.005 0.137 0.007 0.298 0.007 0.46 0 4.262-1.851 8.091-4.794 10.728l-0.014 0.012-58.4 59.2v102l300.8-60c1.083-0.268 2.326-0.422 3.605-0.422 3.814 0 7.309 1.369 10.019 3.642l-0.024-0.020c3.44 3.022 5.6 7.43 5.6 12.342 0 0.020 0 0.041 0 0.061v-0.003 128c0 0.033 0 0.072 0 0.111 0 6.211-3.539 11.595-8.71 14.247l-0.090 0.042zM912.8 307.6l-300.8 60c-1.083 0.292-2.326 0.459-3.608 0.459-3.691 0-7.057-1.388-9.605-3.671l0.014 0.012c-3.565-3.003-5.855-7.42-5.999-12.376l-0.001-0.024v-128c-0.005-0.137-0.007-0.298-0.007-0.46 0-4.262 1.851-8.091 4.794-10.728l0.014-0.012 58.4-59.2v-98l-138 55.2c-1.772 0.759-3.835 1.2-6 1.2s-4.228-0.441-6.102-1.239l0.102 0.039-138-55.2v97.6l59.2 59.6c2.956 2.649 4.807 6.478 4.807 10.74 0 0.162-0.003 0.323-0.008 0.484l0.001-0.023v128c0 0.031 0 0.067 0 0.103 0 4.98-2.334 9.415-5.967 12.271l-0.034 0.025c-2.535 2.271-5.901 3.659-9.592 3.659-1.282 0-2.526-0.168-3.709-0.482l0.101 0.023-300.8-60v98.4l311.2 155.6c5.175 2.841 8.657 8.198 8.8 14.38v192.020c0 44.183 35.817 80 80 80s80-35.817 80-80v0-192c0.143-6.202 3.625-11.559 8.713-14.356l0.087-0.044 311.2-155.6z" />
<glyph unicode="&#xe006;" glyph-name="airplane-tilt-thin" data-tags="airplane-tilt-thin" d="M847.2 783.2c-20.312 20.174-48.3 32.643-79.2 32.643s-58.888-12.469-79.206-32.65l0.006 0.006c-0.8-1.2-2-2-2.4-3.2l-114.8-121.2-342 124.4c-1.543 0.53-3.321 0.836-5.171 0.836-4.545 0-8.658-1.849-11.629-4.836l-96.001-96.001c-2.96-2.844-4.799-6.835-4.799-11.256 0-5.496 2.842-10.329 7.137-13.107l0.061-0.037 271.6-181.2-77.6-77.6h-89.2c-0.137 0.005-0.298 0.007-0.46 0.007-4.262 0-8.091-1.851-10.728-4.794l-0.012-0.014-96-96c-2.964-2.844-4.806-6.839-4.806-11.263 0-1.255 0.148-2.474 0.428-3.643l-0.021 0.106c1.263-5.451 5.182-9.767 10.288-11.566l0.112-0.034 160-54 54-160c1.833-5.218 6.149-9.137 11.492-10.379l0.108-0.021h3.6c0.034 0 0.074 0 0.114 0 4.368 0 8.306 1.842 11.078 4.792l0.007 0.008 96 96c2.952 2.648 4.8 6.475 4.8 10.733 0 0.023 0 0.047 0 0.070v-0.004 88.8l78 70.8 180.8-264.8c2.706-3.689 6.811-6.214 11.519-6.792l0.081-0.008c0.49-0.056 1.058-0.088 1.633-0.088 4.41 0 8.381 1.878 11.158 4.878l0.009 0.010 96 96c2.987 2.971 4.836 7.084 4.836 11.629 0 1.849-0.306 3.627-0.871 5.286l0.034-0.115-124.4 342 126.8 119.2 2.8 3.6c17.052 19.6 27.446 45.385 27.446 73.597 0 30.901-12.47 58.89-32.652 79.209l0.006-0.006zM824.4 647.6l-1.2-1.6-130-122.4c-3.228-3.004-5.24-7.276-5.24-12.018 0-1.854 0.308-3.636 0.875-5.298l-0.034 0.115 124.8-342.4-75.2-75.2-180.4 264c-2.586 3.727-6.526 6.358-11.095 7.184l-0.105 0.016h-2c-4.202-0.016-8.009-1.691-10.804-4.404l0.004 0.004-96.8-87.6c-3.135-3.054-5.108-7.288-5.2-11.983v-89.217l-73.2-73.2-48.4 142.8c-1.581 4.75-5.25 8.419-9.89 9.968l-0.11 0.032-142.8 48.4 73.2 73.2h89.2c0.137-0.005 0.298-0.007 0.46-0.007 4.262 0 8.091 1.851 10.728 4.794l0.012 0.014 96 96c2.96 2.844 4.799 6.835 4.799 11.256 0 5.496-2.842 10.329-7.137 13.107l-0.061 0.037-271.6 181.2 74.8 75.2 342.4-124.8c1.546-0.533 3.329-0.84 5.182-0.84 4.742 0 9.014 2.013 12.008 5.23l0.009 0.010 128 135.2c13.632 11.123 31.222 17.862 50.387 17.862 44.183 0 80-35.817 80-80 0-21.159-8.214-40.399-21.627-54.705l0.040 0.044z" />
<glyph unicode="&#xe007;" glyph-name="airplay-thin" data-tags="airplay-thin" d="M524 330.4c-2.882 3.452-7.186 5.632-12 5.632s-9.118-2.18-11.98-5.607l-0.020-0.025-192-224c-2.506-2.702-4.044-6.334-4.044-10.324 0-2.509 0.608-4.875 1.684-6.961l-0.040 0.085c2.504-5.47 7.93-9.201 14.227-9.201 0.061 0 0.121 0 0.182 0.001h383.991c0.051-0.001 0.112-0.001 0.173-0.001 6.297 0 11.723 3.731 14.187 9.104l0.040 0.097c1.036 2.001 1.644 4.367 1.644 6.876 0 3.991-1.538 7.622-4.053 10.334l0.009-0.010zM354.8 112l157.2 183.6 157.2-183.6zM912 704v-448c-0.226-44.092-35.908-79.774-79.978-80h-64.022c-8.837 0-16 7.163-16 16s7.163 16 16 16v0h64c26.51 0 48 21.49 48 48v0 448c0 26.51-21.49 48-48 48v0h-640c-26.51 0-48-21.49-48-48v0-448c0-26.51 21.49-48 48-48v0h64c8.837 0 16-7.163 16-16s-7.163-16-16-16v0h-64c-44.092 0.226-79.774 35.908-80 79.978v448.022c0.226 44.092 35.908 79.774 79.978 80h640.022c44.092-0.226 79.774-35.908 80-79.978v-0.022z" />
<glyph unicode="&#xe008;" glyph-name="alarm-thin" data-tags="alarm-thin" d="M752 448c0-8.837-7.163-16-16-16v0h-224c-8.837 0-16 7.163-16 16v0 224c0 8.837 7.163 16 16 16s16-7.163 16-16v0-208h208c8.837 0 16-7.163 16-16v0zM772.4 708.4c66.99-66.781 108.439-159.15 108.439-261.2 0-203.683-165.117-368.8-368.8-368.8s-368.8 165.117-368.8 368.8c0 203.669 165.095 368.778 368.759 368.8h0.002c0.208 0 0.454 0.001 0.7 0.001 101.424 0 193.245-41.121 259.699-107.6l0.001-0.001zM848 448c0 0.007 0 0.016 0 0.024 0 185.568-150.432 336-336 336-92.79 0-176.795-37.613-237.6-98.424v0c-60.797-60.803-98.4-144.798-98.4-237.576 0-185.568 150.432-336 336-336 185.559 0 335.986 150.418 336 335.974v0.002zM930.8 730.8l-136 136c-2.884 2.828-6.838 4.574-11.2 4.574s-8.316-1.746-11.203-4.576l0.003 0.003c-2.947-2.904-4.773-6.939-4.773-11.4s1.826-8.496 4.771-11.398l135.602-135.602c2.831-2.947 6.799-4.783 11.197-4.8h0.003c4.522 0.044 8.609 1.868 11.603 4.803l-0.003-0.003c2.828 2.884 4.574 6.838 4.574 11.2s-1.746 8.316-4.576 11.203l0.003-0.003zM251.6 866.8c-2.884 2.828-6.838 4.574-11.2 4.574s-8.316-1.746-11.203-4.576l-135.997-135.997c-2.828-2.884-4.574-6.838-4.574-11.2s1.746-8.316 4.576-11.203l-0.003 0.003c2.991-2.932 7.078-4.756 11.592-4.8h0.008c4.401 0.017 8.369 1.853 11.195 4.795l135.605 135.605c2.947 2.904 4.773 6.939 4.773 11.4s-1.826 8.496-4.771 11.398l-0.002 0.002z" />
<glyph unicode="&#xe009;" glyph-name="alien-thin" data-tags="alien-thin" d="M512 880c-203.149-0.228-367.772-164.851-368-367.978v-0.022c0-92.8 49.2-213.2 131.2-322.4 63.2-84 158.4-173.6 236.8-173.6s173.6 89.6 236.8 173.6c82 109.2 131.2 229.6 131.2 322.4-0.228 203.149-164.851 367.772-367.978 368h-0.022zM723.2 208.8c-73.6-97.6-156.4-160.8-211.2-160.8s-137.6 63.2-211.2 160.8-124.8 218.4-124.8 303.2c0 185.568 150.432 336 336 336s336-150.432 336-336v0c0-84.8-48-200.8-124.8-303.2zM464 400v16c0 79.529-64.471 144-144 144v0c-26.51 0-48-21.49-48-48v0-16c0-79.529 64.471-144 144-144v0c26.51 0 48 21.49 48 48v0zM432 400c0-8.837-7.163-16-16-16v0c-61.765 0.226-111.773 50.235-112 111.978v16.022c0 8.837 7.163 16 16 16v0c61.765-0.226 111.773-50.235 112-111.978v-0.022zM704 560c-79.529 0-144-64.471-144-144v0-16c0-26.51 21.49-48 48-48v0c79.529 0 144 64.471 144 144v0 16c0 26.51-21.49 48-48 48v0zM720 496c-0.226-61.765-50.235-111.773-111.978-112h-0.022c-8.837 0-16 7.163-16 16v0 16c0.226 61.765 50.235 111.773 111.978 112h0.022c8.837 0 16-7.163 16-16v0zM592 224c0-8.837-7.163-16-16-16v0h-128c-8.837 0-16 7.163-16 16s7.163 16 16 16v0h128c8.837 0 16-7.163 16-16v0z" />
<glyph unicode="&#xe00a;" glyph-name="align-bottom-simple-thin" data-tags="align-bottom-simple-thin" d="M816 32c0-8.837-7.163-16-16-16v0h-576c-8.837 0-16 7.163-16 16s7.163 16 16 16v0h576c8.837 0 16-7.163 16-16v0zM336 192v608c0 26.51 21.49 48 48 48v0h256c26.51 0 48-21.49 48-48v0-608c0-26.51-21.49-48-48-48v0h-256c-26.51 0-48 21.49-48 48v0zM368 192c0-8.837 7.163-16 16-16v0h256c8.837 0 16 7.163 16 16v0 608c0 8.837-7.163 16-16 16v0h-256c-8.837 0-16-7.163-16-16v0z" />
<glyph unicode="&#xe00b;" glyph-name="align-bottom-thin" data-tags="align-bottom-thin" d="M880 96c0-8.837-7.163-16-16-16v0h-704c-8.837 0-16 7.163-16 16s7.163 16 16 16v0h704c8.837 0 16-7.163 16-16v0zM560 256v384c0 26.51 21.49 48 48 48v0h160c26.51 0 48-21.49 48-48v0-384c0-26.51-21.49-48-48-48v0h-160c-26.51 0-48 21.49-48 48v0zM592 256c0-8.837 7.163-16 16-16v0h160c8.837 0 16 7.163 16 16v0 384c0 8.837-7.163 16-16 16v0h-160c-8.837 0-16-7.163-16-16v0zM208 256v544c0 26.51 21.49 48 48 48v0h160c26.51 0 48-21.49 48-48v0-544c0-26.51-21.49-48-48-48v0h-160c-26.51 0-48 21.49-48 48v0zM240 256c0-8.837 7.163-16 16-16v0h160c8.837 0 16 7.163 16 16v0 544c0 8.837-7.163 16-16 16v0h-160c-8.837 0-16-7.163-16-16v0z" />
<glyph unicode="&#xe00c;" glyph-name="align-center-horizontal-simple-thin" data-tags="align-center-horizontal-simple-thin" d="M832 624h-304v144c0 8.837-7.163 16-16 16s-16-7.163-16-16v0-144h-304c-26.51 0-48-21.49-48-48v0-256c0-26.51 21.49-48 48-48v0h304v-144c0-8.837 7.163-16 16-16s16 7.163 16 16v0 144h304c26.51 0 48 21.49 48 48v0 256c0 26.51-21.49 48-48 48v0zM848 320c0-8.837-7.163-16-16-16v0h-640c-8.837 0-16 7.163-16 16v0 256c0 8.837 7.163 16 16 16v0h640c8.837 0 16-7.163 16-16v0z" />
<glyph unicode="&#xe00d;" glyph-name="align-center-horizontal" data-tags="align-center-horizontal-thin" d="M832 400h-304v96h208c26.51 0 48 21.49 48 48v0 160c0 26.51-21.49 48-48 48v0h-208v80c0 8.837-7.163 16-16 16s-16-7.163-16-16v0-80h-208c-26.51 0-48-21.49-48-48v0-160c0-26.51 21.49-48 48-48v0h208v-96h-304c-26.51 0-48-21.49-48-48v0-160c0-26.51 21.49-48 48-48v0h304v-80c0-8.837 7.163-16 16-16s16 7.163 16 16v0 80h304c26.51 0 48 21.49 48 48v0 160c0 26.51-21.49 48-48 48v0zM272 544v160c0 8.837 7.163 16 16 16v0h448c8.837 0 16-7.163 16-16v0-160c0-8.837-7.163-16-16-16v0h-448c-8.837 0-16 7.163-16 16v0zM848 192c0-8.837-7.163-16-16-16v0h-640c-8.837 0-16 7.163-16 16v0 160c0 8.837 7.163 16 16 16v0h640c8.837 0 16-7.163 16-16v0z" />
<glyph unicode="&#xe00e;" glyph-name="align-center-vertical-simple-thin" data-tags="align-center-vertical-simple-thin" d="M832 464h-144v304c0 26.51-21.49 48-48 48v0h-256c-26.51 0-48-21.49-48-48v0-304h-144c-8.837 0-16-7.163-16-16s7.163-16 16-16v0h144v-304c0-26.51 21.49-48 48-48v0h256c26.51 0 48 21.49 48 48v0 304h144c8.837 0 16 7.163 16 16s-7.163 16-16 16v0zM656 128c0-8.837-7.163-16-16-16v0h-256c-8.837 0-16 7.163-16 16v0 640c0 8.837 7.163 16 16 16v0h256c8.837 0 16-7.163 16-16v0z" />
<glyph unicode="&#xe00f;" glyph-name="align-center-vertical-thin" data-tags="align-center-vertical-thin" d="M896 464h-80v208c0 26.51-21.49 48-48 48v0h-160c-26.51 0-48-21.49-48-48v0-208h-96v304c0 26.51-21.49 48-48 48v0h-160c-26.51 0-48-21.49-48-48v0-304h-80c-8.837 0-16-7.163-16-16s7.163-16 16-16v0h80v-304c0-26.51 21.49-48 48-48v0h160c26.51 0 48 21.49 48 48v0 304h96v-208c0-26.51 21.49-48 48-48v0h160c26.51 0 48 21.49 48 48v0 208h80c8.837 0 16 7.163 16 16s-7.163 16-16 16v0zM432 128c0-8.837-7.163-16-16-16v0h-160c-8.837 0-16 7.163-16 16v0 640c0 8.837 7.163 16 16 16v0h160c8.837 0 16-7.163 16-16v0zM784 224c0-8.837-7.163-16-16-16v0h-160c-8.837 0-16 7.163-16 16v0 448c0 8.837 7.163 16 16 16v0h160c8.837 0 16-7.163 16-16v0z" />
<glyph unicode="&#xe010;" glyph-name="align-left-simple-thin" data-tags="align-left-simple-thin" d="M144 736v-576c0-8.837-7.163-16-16-16s-16 7.163-16 16v0 576c0 8.837 7.163 16 16 16s16-7.163 16-16v0zM944 576v-256c0-26.51-21.49-48-48-48v0h-608c-26.51 0-48 21.49-48 48v0 256c0 26.51 21.49 48 48 48v0h608c26.51 0 48-21.49 48-48v0zM912 576c0 8.837-7.163 16-16 16v0h-608c-8.837 0-16-7.163-16-16v0-256c0-8.837 7.163-16 16-16v0h608c8.837 0 16 7.163 16 16v0z" />
<glyph unicode="&#xe011;" glyph-name="align-left-thin" data-tags="align-left-thin" d="M176 800v-704c0-8.837-7.163-16-16-16s-16 7.163-16 16v0 704c0 8.837 7.163 16 16 16s16-7.163 16-16v0zM272 544v160c0 26.51 21.49 48 48 48v0h384c26.51 0 48-21.49 48-48v0-160c0-26.51-21.49-48-48-48v0h-384c-26.51 0-48 21.49-48 48v0zM304 544c0-8.837 7.163-16 16-16v0h384c8.837 0 16 7.163 16 16v0 160c0 8.837-7.163 16-16 16v0h-384c-8.837 0-16-7.163-16-16v0zM912 352v-160c0-26.51-21.49-48-48-48v0h-544c-26.51 0-48 21.49-48 48v0 160c0 26.51 21.49 48 48 48v0h544c26.51 0 48-21.49 48-48v0zM880 352c0 8.837-7.163 16-16 16v0h-544c-8.837 0-16-7.163-16-16v0-160c0-8.837 7.163-16 16-16v0h544c8.837 0 16 7.163 16 16v0z" />
<glyph unicode="&#xe012;" glyph-name="align-right-simple-thin" data-tags="align-right-simple-thin" d="M912 736v-576c0-8.837-7.163-16-16-16s-16 7.163-16 16v0 576c0 8.837 7.163 16 16 16s16-7.163 16-16v0zM784 576v-256c0-26.51-21.49-48-48-48v0h-608c-26.51 0-48 21.49-48 48v0 256c0 26.51 21.49 48 48 48v0h608c26.51 0 48-21.49 48-48v0zM752 576c0 8.837-7.163 16-16 16v0h-608c-8.837 0-16-7.163-16-16v0-256c0-8.837 7.163-16 16-16v0h608c8.837 0 16 7.163 16 16v0z" />
<glyph unicode="&#xe013;" glyph-name="align-right-thin" data-tags="align-right-thin" d="M880 800v-704c0-8.837-7.163-16-16-16s-16 7.163-16 16v0 704c0 8.837 7.163 16 16 16s16-7.163 16-16v0zM752 704v-160c0-26.51-21.49-48-48-48v0h-384c-26.51 0-48 21.49-48 48v0 160c0 26.51 21.49 48 48 48v0h384c26.51 0 48-21.49 48-48v0zM720 704c0 8.837-7.163 16-16 16v0h-384c-8.837 0-16-7.163-16-16v0-160c0-8.837 7.163-16 16-16v0h384c8.837 0 16 7.163 16 16v0zM752 352v-160c0-26.51-21.49-48-48-48v0h-544c-26.51 0-48 21.49-48 48v0 160c0 26.51 21.49 48 48 48v0h544c26.51 0 48-21.49 48-48v0zM720 352c0 8.837-7.163 16-16 16v0h-544c-8.837 0-16-7.163-16-16v0-160c0-8.837 7.163-16 16-16v0h544c8.837 0 16 7.163 16 16v0z" />
<glyph unicode="&#xe014;" glyph-name="align-top-simple-thin" data-tags="align-top-simple-thin" d="M816 832c0-8.837-7.163-16-16-16v0h-576c-8.837 0-16 7.163-16 16s7.163 16 16 16v0h576c8.837 0 16-7.163 16-16v0zM688 672v-608c0-26.51-21.49-48-48-48v0h-256c-26.51 0-48 21.49-48 48v0 608c0 26.51 21.49 48 48 48v0h256c26.51 0 48-21.49 48-48v0zM656 672c0 8.837-7.163 16-16 16v0h-256c-8.837 0-16-7.163-16-16v0-608c0-8.837 7.163-16 16-16v0h256c8.837 0 16 7.163 16 16v0z" />
<glyph unicode="&#xe015;" glyph-name="align-top-thin" data-tags="align-top-thin" d="M880 800c0-8.837-7.163-16-16-16v0h-704c-8.837 0-16 7.163-16 16s7.163 16 16 16v0h704c8.837 0 16-7.163 16-16v0zM816 640v-384c0-26.51-21.49-48-48-48v0h-160c-26.51 0-48 21.49-48 48v0 384c0 26.51 21.49 48 48 48v0h160c26.51 0 48-21.49 48-48v0zM784 640c0 8.837-7.163 16-16 16v0h-160c-8.837 0-16-7.163-16-16v0-384c0-8.837 7.163-16 16-16v0h160c8.837 0 16 7.163 16 16v0zM464 640v-544c0-26.51-21.49-48-48-48v0h-160c-26.51 0-48 21.49-48 48v0 544c0 26.51 21.49 48 48 48v0h160c26.51 0 48-21.49 48-48v0zM432 640c0 8.837-7.163 16-16 16v0h-160c-8.837 0-16-7.163-16-16v0-544c0-8.837 7.163-16 16-16v0h160c8.837 0 16 7.163 16 16v0z" />
<glyph unicode="&#xe016;" glyph-name="anchor-simple-thin" data-tags="anchor-simple-thin" d="M896 496h-96c-8.837 0-16-7.163-16-16s7.163-16 16-16v0h79.6c-8.58-190.633-160.967-343.020-350.808-351.572l-0.792-0.028v480.8c54.59 8.101 96 54.64 96 110.851 0 61.856-50.144 112-112 112s-112-50.144-112-112c0-56.211 41.41-102.75 95.387-110.776l0.613-0.075v-480.8c-190.633 8.58-343.020 160.967-351.572 350.808l-0.028 0.792h79.6c8.837 0 16 7.163 16 16s-7.163 16-16 16v0h-96c-8.837 0-16-7.163-16-16v0c0-220.914 179.086-400 400-400s400 179.086 400 400v0c0 8.837-7.163 16-16 16v0zM432 704c0 44.183 35.817 80 80 80s80-35.817 80-80c0-44.183-35.817-80-80-80v0c-44.092 0.226-79.774 35.908-80 79.978v0.022z" />
<glyph unicode="&#xe017;" glyph-name="anchor-thin" data-tags="anchor-thin" d="M864 400c-8.837 0-16-7.163-16-16v0c0-97.202-78.798-176-176-176v0c-0.002 0-0.003 0-0.005 0-59.294 0-111.739-29.321-143.628-74.255l-0.367-0.545v362.8h144c8.837 0 16 7.163 16 16s-7.163 16-16 16v0h-144v129.2c45.694 7.935 80 47.29 80 94.657 0 53.019-42.981 96-96 96s-96-42.981-96-96c0-47.367 34.306-86.722 79.427-94.575l0.573-0.083v-129.2h-144c-8.837 0-16-7.163-16-16s7.163-16 16-16v0h144v-362.8c-32.256 45.479-84.701 74.8-143.995 74.8-0.002 0-0.003 0-0.005 0v0c-97.202 0-176 78.798-176 176v0c0 8.837-7.163 16-16 16s-16-7.163-16-16v0c0-114.875 93.125-208 208-208v0c79.529 0 144-64.471 144-144v0c0-8.837 7.163-16 16-16s16 7.163 16 16v0c0 79.529 64.471 144 144 144v0c114.875 0 208 93.125 208 208v0c0 8.837-7.163 16-16 16v0zM448 752c0 35.346 28.654 64 64 64s64-28.654 64-64c0-35.346-28.654-64-64-64v0c-35.346 0-64 28.654-64 64v0z" />
<glyph unicode="&#xe018;" glyph-name="android-logo-thin" data-tags="android-logo-thin" d="M688 336c0-17.673-14.327-32-32-32s-32 14.327-32 32c0 17.673 14.327 32 32 32v0c17.673 0 32-14.327 32-32v0zM368 368c-17.673 0-32-14.327-32-32s14.327-32 32-32c17.673 0 32 14.327 32 32v0c0 17.673-14.327 32-32 32v0zM944 288v-96c0-26.51-21.49-48-48-48v0h-768c-26.51 0-48 21.49-48 48v0 91.6c0 0.021 0 0.045 0 0.070 0 130.895 57.366 248.392 148.328 328.721l0.472 0.409-112 112c-1.998 2.641-3.2 5.98-3.2 9.6 0 8.837 7.163 16 16 16 3.62 0 6.959-1.202 9.64-3.229l-0.040 0.029 114.4-114.4c70.453 54.075 159.766 86.796 256.706 87.2h1.694c0.317 0.001 0.692 0.001 1.067 0.001 97.392 0 187.201-32.469 259.192-87.173l-1.059 0.771 113.6 113.6c2.95 3.904 7.583 6.4 12.8 6.4 8.837 0 16-7.163 16-16 0-5.217-2.496-9.85-6.36-12.771l-0.040-0.029-111.2-111.2 20.8-19.6c78.56-77.815 127.201-185.714 127.201-304.974 0-0.361 0-0.721-0.001-1.081v0.056zM912 288c0 220.914-179.086 400-400 400v0h-1.6c-219.6-0.8-398.4-182.4-398.4-404.4v-91.6c0-8.837 7.163-16 16-16v0h768c8.837 0 16 7.163 16 16v0z" />
<glyph unicode="&#xe019;" glyph-name="angular-logo-thin" data-tags="angular-logo-thin" d="M902 686.8l-384 160c-1.772 0.759-3.835 1.2-6 1.2s-4.228-0.441-6.102-1.239l0.102 0.039-384-160c-5.975-2.41-10.116-8.161-10.116-14.879 0-0.677 0.042-1.344 0.124-2l-0.008 0.078 64-480c0.826-5.413 4.137-9.912 8.71-12.356l0.090-0.044 320-160c2.107-1.023 4.584-1.621 7.2-1.621s5.093 0.598 7.3 1.665l-0.1-0.044 320 160c4.663 2.488 7.974 6.987 8.788 12.306l0.012 0.094 64 480c0.074 0.577 0.116 1.244 0.116 1.921 0 6.718-4.14 12.469-10.008 14.84l-0.107 0.038zM817.2 202.4l-305.2-152.4-305.2 152.4-61.2 459.6 366.4 152.8 366.4-152.8zM497.6 615.2l-144-288c-1.072-2.098-1.7-4.575-1.7-7.2 0-8.892 7.208-16.1 16.1-16.1 6.267 0 11.698 3.581 14.358 8.808l0.042 0.091 38 76.4h183.2l38-76.4c2.693-5.262 8.078-8.8 14.289-8.8 0.039 0 0.078 0 0.117 0h-0.006c0.093-0.002 0.202-0.003 0.312-0.003 2.508 0 4.878 0.592 6.978 1.644l-0.090-0.041c5.335 2.669 8.934 8.092 8.934 14.355 0 2.643-0.641 5.137-1.776 7.334l0.042-0.089-144 288c-2.652 5.385-8.101 9.026-14.4 9.026s-11.748-3.64-14.358-8.932l-0.042-0.094zM587.6 421.2h-151.2l75.6 151.2z" />
<glyph unicode="&#xe01a;" glyph-name="aperture-thin" data-tags="aperture-thin" d="M912 448c-0.049 220.877-179.116 399.915-400 399.915-110.436 0-210.418-44.754-282.801-117.115l0.001 0.001c-72.36-72.381-117.115-172.364-117.115-282.8 0-220.884 179.037-399.951 399.909-400h0.005c220.914 0 400 179.086 400 400v0zM836.4 273.6l-244 44.8 249.2 293.6c24.218-47.866 38.403-104.348 38.403-164.144 0-63.793-16.145-123.816-44.571-176.205l0.968 1.95zM427.6 348.4l-44 123.2 84.4 99.6 128.4-23.6 44-123.2-84.4-99.6zM824.8 641.6l-160.4-188.8-129.6 362.4c93.245-5.71 176.242-45.436 237.6-106.8v0c19.383-19.715 36.68-41.591 51.466-65.201l0.934-1.599zM251.6 708.4c64.026 64.034 151.64 104.481 248.691 107.189l0.509 0.011 83.2-233.2-378.8 69.2c14.511 21.203 29.766 39.759 46.481 56.883l-0.081-0.083zM187.6 622.4l244-44.8-249.2-293.6c-24.218 47.866-38.403 104.348-38.403 164.144 0 63.793 16.145 123.816 44.571 176.205l-0.968-1.95zM199.2 254.4l160.4 188.8 129.6-362.4c-93.245 5.71-176.242 45.436-237.6 106.8v0c-19.383 19.715-36.68 41.591-51.466 65.201l-0.934 1.599zM523.2 80.4l-83.2 233.2 378.8-68.8c-14.511-21.203-29.766-39.759-46.481-56.883l0.081 0.083c-63.975-64.181-151.589-104.767-248.671-107.588l-0.529-0.012z" />
<glyph unicode="&#xe01b;" glyph-name="apple-logo-thin" data-tags="apple-logo-thin" d="M537.6 835.6c21.52 54.353 73.514 92.145 134.368 92.4h0.032c8.837 0 16-7.163 16-16s-7.163-16-16-16v0c-47.263-0.145-87.648-29.438-104.133-70.841l-0.267-0.759c-2.541-6.055-8.363-10.26-15.183-10.4h-0.017c-2.029 0.011-3.953 0.451-5.688 1.236l0.088-0.036c-6.053 2.237-10.291 7.958-10.291 14.669 0 2.063 0.401 4.033 1.128 5.836l-0.037-0.105zM888.8 302.4c-53.6-131.2-149.2-222.4-232.8-222.4h-288c-120 0-272 196-272 416 0 0.048 0 0.104 0 0.16 0 141.385 114.615 256 256 256 60.768 0 116.59-21.173 160.492-56.544l-0.492 0.384c43.42 34.878 99.202 55.978 159.913 55.978 81.385 0 153.913-37.918 200.883-97.051l0.404-0.527c2.141-2.744 3.434-6.242 3.434-10.042 0-0.974-0.085-1.929-0.248-2.857l0.014 0.098c-0.792-4.671-3.622-8.553-7.524-10.761l-0.076-0.039c-51.228-31.382-84.889-87.051-84.889-150.582 0-68.511 39.145-127.879 96.29-156.957l0.999-0.462c5.218-2.814 8.705-8.241 8.705-14.483 0-2.129-0.406-4.162-1.144-6.029l0.039 0.111zM853.6 301.2c-61.298 36.929-101.664 103.133-101.664 178.765 0 68.544 33.155 129.344 84.302 167.237l0.562 0.398c-41.075 44.583-99.747 72.415-164.918 72.415-57.353 0-109.671-21.554-149.296-57.004l0.215 0.189c-2.863-2.723-6.745-4.399-11.019-4.399-4.065 0-7.776 1.516-10.598 4.013l0.017-0.015c-39.449 35.622-91.98 57.418-149.601 57.418-123.491 0-223.6-100.109-223.6-223.6 0-0.217 0-0.434 0.001-0.651v0.034c0-92.8 30.4-190.8 83.2-269.2 48-70.8 108-114.8 156.8-114.8h288c67.2 0 148.8 78.8 197.6 189.2z" />
<glyph unicode="&#xe01c;" glyph-name="apple-podcasts-logo-thin" data-tags="apple-podcasts-logo-thin" d="M586.4 396.4c23.115 20.609 37.6 50.472 37.6 83.718 0 61.856-50.144 112-112 112s-112-50.144-112-112c0-33.246 14.485-63.108 37.489-83.621l0.111-0.097c-15.025-5.018-27.642-13.891-37.086-25.456l-0.114-0.144c-11.462-13.542-18.43-31.207-18.43-50.499 0-5.63 0.593-11.121 1.721-16.415l-0.092 0.513 38.4-192c7.683-36.871 39.822-64.206 78.379-64.4h23.221c38.578 0.194 70.717 27.529 78.309 63.878l0.091 0.522 38.4 192c1.036 4.78 1.63 10.272 1.63 15.901 0 19.292-6.968 36.956-18.524 50.614l0.095-0.115c-9.558 11.709-22.175 20.582-36.636 25.436l-0.564 0.164zM432 480c0 44.183 35.817 80 80 80s80-35.817 80-80c0-44.183-35.817-80-80-80v0c-44.092 0.226-79.774 35.908-80 79.978v0.022zM608.8 310.4l-38.4-192c-4.606-21.99-23.784-38.286-46.788-38.4h-23.212c-23.016 0.114-42.194 16.41-46.745 38.087l-0.055 0.313-38.4 192c-0.735 3.093-1.156 6.644-1.156 10.293 0 11.335 4.064 21.72 10.815 29.779l-0.059-0.072c8.87 10.779 22.211 17.6 37.146 17.6 0.019 0 0.038 0 0.057 0h99.997c0.016 0 0.035 0 0.054 0 14.935 0 28.277-6.821 37.080-17.517l0.066-0.083c6.692-7.986 10.756-18.372 10.756-29.707 0-3.65-0.421-7.201-1.218-10.607l0.062 0.314zM752 448c0 132.548-107.452 240-240 240s-240-107.452-240-240v0c0.052-31.212 5.918-61.038 16.572-88.475l-0.572 1.675c0.734-1.771 1.161-3.827 1.161-5.983 0-6.659-4.068-12.368-9.855-14.777l-0.106-0.039-6-1.2c-6.75 0.082-12.487 4.331-14.763 10.29l-0.037 0.11c-11.646 28.765-18.403 62.128-18.403 97.069 0 0.468 0.001 0.935 0.004 1.402v-0.072c0 150.221 121.779 272 272 272s272-121.779 272-272v0c0.002-0.395 0.003-0.863 0.003-1.331 0-34.941-6.757-68.304-19.036-98.853l0.633 1.784c-1.876-6.903-8.087-11.896-15.465-11.896-8.837 0-16 7.163-16 16 0 2.743 0.69 5.325 1.907 7.582l-0.042-0.085c10.082 25.762 15.948 55.589 16 86.779v0.021zM912 448c0-0.202 0.001-0.441 0.001-0.68 0-140.831-72.999-264.612-183.222-335.569l-1.578-0.951c-2.398-1.465-5.291-2.351-8.386-2.4h-0.014c-0.199-0.009-0.432-0.015-0.667-0.015-5.439 0-10.21 2.856-12.896 7.151l-0.037 0.064c-1.66 2.441-2.65 5.454-2.65 8.698 0 5.601 2.951 10.512 7.384 13.263l0.066 0.038c102.867 66.405 170 180.459 170 310.193 0 203.241-164.759 368-368 368s-368-164.759-368-368c0-129.734 67.133-243.788 168.555-309.319l1.445-0.875c5.22-2.707 8.725-8.069 8.725-14.251 0-8.837-7.163-16-16-16-3.764 0-7.225 1.3-9.958 3.476l0.033-0.025c-111.822 72.178-184.8 196.155-184.8 337.178 0 220.914 179.086 400 400 400 220.906 0 399.987-179.073 400-399.976v-0.001z" />
<glyph unicode="&#xe01d;" glyph-name="app-store-logo-thin" data-tags="app-store-logo-thin" d="M243.6 152l-38-64c-2.619-4.8-7.629-8.001-13.387-8.001-0.075 0-0.149 0.001-0.224 0.002h0.011c-0.012 0-0.026 0-0.040 0-2.965 0-5.721 0.896-8.012 2.433l0.052-0.033c-4.803 2.618-8.008 7.63-8.008 13.391 0 3.049 0.898 5.889 2.443 8.268l-0.036-0.059 37.6 64c2.925 4.203 7.732 6.919 13.174 6.919 8.837 0 16-7.163 16-16 0-2.516-0.581-4.896-1.615-7.014l0.042 0.095zM928 304h-200.4l-127.6 216c-2.849 4.734-7.96 7.852-13.8 7.852-8.866 0-16.052-7.187-16.052-16.052 0-3.026 0.837-5.856 2.293-8.272l-0.040 0.072 246-415.6c2.619-4.8 7.629-8.001 13.387-8.001 0.075 0 0.149 0.001 0.224 0.002h-0.011c0.012 0 0.026 0 0.040 0 2.965 0 5.721 0.896 8.012 2.433l-0.052-0.033c4.803 2.618 8.008 7.63 8.008 13.391 0 3.049-0.898 5.889-2.443 8.268l0.036-0.059-99.2 168h181.6c8.837 0 16 7.163 16 16s-7.163 16-16 16v0zM570 304h-236.4l288 488c1.369 2.289 2.178 5.050 2.178 8 0 8.714-7.064 15.778-15.778 15.778-5.764 0-10.807-3.091-13.56-7.706l-0.040-0.072-82.4-139.2-82.4 139.2c-2.793 4.687-7.836 7.778-13.6 7.778-8.714 0-15.778-7.064-15.778-15.778 0-2.95 0.809-5.711 2.218-8.072l-0.040 0.072 91.2-154.4-197.2-333.6h-200.4c-8.837 0-16-7.163-16-16s7.163-16 16-16v0h474c8.837 0 16 7.163 16 16s-7.163 16-16 16v0z" />
<glyph unicode="&#xe01e;" glyph-name="app-window-thin" data-tags="app-window-thin" d="M864 784h-704c-26.51 0-48-21.49-48-48v0-576c0-26.51 21.49-48 48-48v0h704c26.51 0 48 21.49 48 48v0 576c0 26.51-21.49 48-48 48v0zM880 160c0-8.837-7.163-16-16-16v0h-704c-8.837 0-16 7.163-16 16v0 576c0 8.837 7.163 16 16 16v0h704c8.837 0 16-7.163 16-16v0zM304 624c0-17.673-14.327-32-32-32s-32 14.327-32 32c0 17.673 14.327 32 32 32v0c17.673 0 32-14.327 32-32v0zM464 624c0-17.673-14.327-32-32-32s-32 14.327-32 32c0 17.673 14.327 32 32 32v0c17.673 0 32-14.327 32-32v0z" />
<glyph unicode="&#xe01f;" glyph-name="archive-box-thin" data-tags="archive-box-thin" d="M878.4 679.2l-64 128c-2.841 5.175-8.198 8.657-14.38 8.8h-576.020c-6.202-0.143-11.559-3.625-14.356-8.713l-0.044-0.087-64-128c-1.011-2.010-1.603-4.38-1.603-6.888 0-0.11 0.001-0.219 0.003-0.328v0.016-544c0-26.51 21.49-48 48-48v0h640c26.51 0 48 21.49 48 48v0 544c0.002 0.093 0.003 0.202 0.003 0.312 0 2.508-0.592 4.878-1.644 6.978l0.041-0.090zM234 784h556l48-96h-652zM832 112h-640c-8.837 0-16 7.163-16 16v0 528h672v-528c0-8.837-7.163-16-16-16v0zM659.2 371.2c2.764-2.985 4.46-6.995 4.46-11.4s-1.696-8.415-4.47-11.411l0.010 0.011-136-135.6c-2.839-2.925-6.807-4.741-11.2-4.741s-8.361 1.815-11.196 4.737l-0.004 0.004-136 135.6c-2.918 2.918-4.722 6.948-4.722 11.4 0 8.904 7.218 16.122 16.122 16.122 4.452 0 8.482-1.805 11.4-4.722l108.4-108.4v281.2c0 8.837 7.163 16 16 16s16-7.163 16-16v0-281.2l108.4 108.4c2.985 2.764 6.995 4.46 11.4 4.46s8.415-1.696 11.411-4.47l-0.011 0.010z" />
<glyph unicode="&#xe020;" glyph-name="archive-thin" data-tags="archive-thin" d="M896 752h-768c-26.51 0-48-21.49-48-48v0-96c0-26.51 21.49-48 48-48v0h16v-368c0-26.51 21.49-48 48-48v0h640c26.51 0 48 21.49 48 48v0 368h16c26.51 0 48 21.49 48 48v0 96c0 26.51-21.49 48-48 48v0zM848 192c0-8.837-7.163-16-16-16v0h-640c-8.837 0-16 7.163-16 16v0 368h672zM912 608c0-8.837-7.163-16-16-16v0h-768c-8.837 0-16 7.163-16 16v0 96c0 8.837 7.163 16 16 16v0h768c8.837 0 16-7.163 16-16v0zM400 416c0 8.837 7.163 16 16 16v0h192c8.837 0 16-7.163 16-16s-7.163-16-16-16v0h-192c-8.837 0-16 7.163-16 16v0z" />
<glyph unicode="&#xe021;" glyph-name="archive-tray-thin" data-tags="archive-tray-thin" d="M832 816h-640c-26.51 0-48-21.49-48-48v0-640c0-26.51 21.49-48 48-48v0h640c26.51 0 48 21.49 48 48v0 640c0 26.51-21.49 48-48 48v0zM192 784h640c8.837 0 16-7.163 16-16v0-432h-130.8c-0.084 0.001-0.183 0.001-0.283 0.001-13.174 0-25.098-5.352-33.716-13.999l-77.201-77.201c-2.78-2.958-6.718-4.8-11.086-4.8-0.040 0-0.080 0-0.121 0h-165.594c-0.137-0.005-0.298-0.007-0.46-0.007-4.262 0-8.091 1.851-10.728 4.794l-0.012 0.014-77.2 77.2c-8.62 8.649-20.544 14.001-33.717 14.001-0.099 0-0.199 0-0.298-0.001h-130.785v432c0 8.837 7.163 16 16 16v0zM832 112h-640c-8.837 0-16 7.163-16 16v0 176h130.8c0.034 0 0.074 0 0.114 0 4.368 0 8.306-1.842 11.078-4.792l0.007-0.008 77.2-77.2c8.62-8.649 20.544-14.001 33.717-14.001 0.099 0 0.199 0 0.298 0.001h165.585c0.084-0.001 0.183-0.001 0.283-0.001 13.174 0 25.098 5.352 33.716 13.999l77.201 77.201c2.649 2.956 6.478 4.807 10.74 4.807 0.162 0 0.323-0.003 0.484-0.008l-0.023 0.001h130.8v-176c0-8.837-7.163-16-16-16v0zM364.8 476.4c-2.918 2.918-4.722 6.948-4.722 11.4 0 8.904 7.218 16.122 16.122 16.122 4.452 0 8.482-1.805 11.4-4.722v0l108.4-108.4v281.2c0 8.837 7.163 16 16 16s16-7.163 16-16v0-281.2l108.4 108.4c2.918 2.918 6.948 4.722 11.4 4.722 8.904 0 16.122-7.218 16.122-16.122 0-4.452-1.805-8.482-4.722-11.4v0l-136-135.6-2.4-2h-0.4l-2.4-1.2h-12l-2.4 1.2h-0.4l-2.4 2z" />
<glyph unicode="&#xe022;" glyph-name="armchair-thin" data-tags="armchair-thin" d="M848 591.2v80.8c0 79.529-64.471 144-144 144v0h-384c-79.529 0-144-64.471-144-144v0-80.8c-72.737-7.925-128.842-69.010-128.842-143.2s56.105-135.275 128.201-143.143l0.642-0.057v-144.8c0-26.51 21.49-48 48-48v0h576c26.51 0 48 21.49 48 48v0 144.8c72.737 7.925 128.842 69.010 128.842 143.2s-56.105 135.275-128.201 143.143l-0.642 0.057zM320 784h384c61.765-0.226 111.773-50.235 112-111.978v-80.822c-72.289-8.503-127.86-69.34-128-143.186v-16.014h-352v16c-0.14 73.86-55.711 134.697-127.321 143.135l-0.679 0.065v80.8c0.226 61.765 50.235 111.773 111.978 112h0.022zM833.2 336h-1.2c-8.837 0-16-7.163-16-16v0-160c0-8.837-7.163-16-16-16v0h-576c-8.837 0-16 7.163-16 16v0 160c0 8.837-7.163 16-16 16v0h-1.2c-61.338 0.678-110.8 50.56-110.8 111.994 0 61.856 50.144 112 112 112 61.854 0 111.996-50.14 112-111.993v0-160c0-8.837 7.163-16 16-16s16 7.163 16 16v0 112h352v-112c0-8.837 7.163-16 16-16s16 7.163 16 16v0 160c0.004 61.853 50.146 111.994 112 111.994 61.856 0 112-50.144 112-112 0-61.434-49.462-111.315-110.736-111.993l-0.064-0.001z" />
<glyph unicode="&#xe023;" glyph-name="arrow-arc-left-thin" data-tags="arrow-arc-left-thin" d="M912 224c0-8.837-7.163-16-16-16s-16 7.163-16 16v0c-0.339 203.206-165.147 367.805-368.4 367.805-101.484 0-193.383-41.034-260.011-107.416l0.011 0.011-100.4-100.8h217.2c8.837 0 16-7.163 16-16s-7.163-16-16-16v0h-256c-8.837 0-16 7.163-16 16v0 256c0 8.837 7.163 16 16 16s16-7.163 16-16v0-217.6l100.8 100.8c72.381 72.36 172.364 117.115 282.8 117.115 220.884 0 399.951-179.037 400-399.909v-0.005z" />
<glyph unicode="&#xe024;" glyph-name="arrow-arc-right-thin" data-tags="arrow-arc-right-thin" d="M927.6 623.6v-256c0-8.837-7.163-16-16-16v0h-256c-8.837 0-16 7.163-16 16s7.163 16 16 16v0h217.2l-100.4 100.8c-66.613 66.705-158.688 107.97-260.4 107.97-203.241 0-368-164.759-368-368 0-0.13 0-0.26 0-0.39v0.020c0-8.837-7.163-16-16-16s-16 7.163-16 16v0c0.049 220.877 179.116 399.915 400 399.915 110.436 0 210.418-44.754 282.801-117.115l100.799-100.799v217.6c0 8.837 7.163 16 16 16s16-7.163 16-16v0z" />
<glyph unicode="&#xe025;" glyph-name="arrow-bend-double-up-left-thin" data-tags="arrow-bend-double-up-left-thin" d="M331.2 363.2c2.925-2.839 4.741-6.807 4.741-11.2s-1.815-8.361-4.737-11.196l-0.004-0.004c-2.839-2.925-6.807-4.741-11.2-4.741s-8.361 1.815-11.196 4.737l-192.004 192.004c-2.925 2.839-4.741 6.807-4.741 11.2s1.815 8.361 4.737 11.196l192.004 192.004c2.641 1.998 5.98 3.2 9.6 3.2 8.837 0 16-7.163 16-16 0-3.62-1.202-6.959-3.229-9.64l0.029 0.040-180.4-180.8zM512 560h-153.2l164.4 164.8c1.998 2.641 3.2 5.98 3.2 9.6 0 8.837-7.163 16-16 16-3.62 0-6.959-1.202-9.64-3.229l0.040 0.029-192-192c-2.925-2.839-4.741-6.807-4.741-11.2s1.815-8.361 4.737-11.196l192.004-192.004c2.839-2.925 6.807-4.741 11.2-4.741s8.361 1.815 11.196 4.737l0.004 0.004c2.925 2.839 4.741 6.807 4.741 11.2s-1.815 8.361-4.737 11.196l-0.004 0.004-164.4 164.8h153.2c203.149-0.228 367.772-164.851 368-367.978v-0.022c0-8.837 7.163-16 16-16s16 7.163 16 16v0c-0.454 220.731-179.269 399.546-399.956 400h-0.044z" />
<glyph unicode="&#xe026;" glyph-name="arrow-bend-double-up-right-thin" data-tags="arrow-bend-double-up-right-thin" d="M907.2 532.8l-192-192c-2.839-2.925-6.807-4.741-11.2-4.741s-8.361 1.815-11.196 4.737l-0.004 0.004c-2.925 2.839-4.741 6.807-4.741 11.2s1.815 8.361 4.737 11.196l0.004 0.004 180.4 180.8-180.4 180.8c-1.998 2.641-3.2 5.98-3.2 9.6 0 8.837 7.163 16 16 16 3.62 0 6.959-1.202 9.64-3.229l-0.040 0.029 192-192c2.925-2.839 4.741-6.807 4.741-11.2s-1.815-8.361-4.737-11.196l-0.004-0.004zM715.2 555.2l-192 192c-2.95 3.904-7.583 6.4-12.8 6.4-8.837 0-16-7.163-16-16 0-5.217 2.496-9.85 6.36-12.771l0.040-0.029 164.4-164.8h-153.2c-220.731-0.454-399.546-179.269-400-399.956v-0.044c0-8.837 7.163-16 16-16s16 7.163 16 16v0c0.228 203.149 164.851 367.772 367.978 368h153.222l-164.4-164.8c-2.925-2.839-4.741-6.807-4.741-11.2s1.815-8.361 4.737-11.196l0.004-0.004c2.839-2.925 6.807-4.741 11.2-4.741s8.361 1.815 11.196 4.737l192.004 192.004c2.925 2.839 4.741 6.807 4.741 11.2s-1.815 8.361-4.737 11.196l-0.004 0.004z" />
<glyph unicode="&#xe027;" glyph-name="arrow-bend-down-left-thin" data-tags="arrow-bend-down-left-thin" d="M912 736c-0.454-220.731-179.269-399.546-399.956-400h-345.244l164.4-164.8c2.925-2.839 4.741-6.807 4.741-11.2s-1.815-8.361-4.737-11.196l-0.004-0.004c-2.839-2.925-6.807-4.741-11.2-4.741s-8.361 1.815-11.196 4.737l-192.004 192.004c-2.925 2.839-4.741 6.807-4.741 11.2s1.815 8.361 4.737 11.196l192.004 192.004c2.641 1.998 5.98 3.2 9.6 3.2 8.837 0 16-7.163 16-16 0-3.62-1.202-6.959-3.229-9.64l0.029 0.040-164.4-164.8h345.2c203.149 0.228 367.772 164.851 368 367.978v0.022c0 8.837 7.163 16 16 16s16-7.163 16-16v0z" />
<glyph unicode="&#xe028;" glyph-name="arrow-bend-down-right-thin" data-tags="arrow-bend-down-right-thin" d="M907.2 340.8l-192-192c-2.839-2.925-6.807-4.741-11.2-4.741s-8.361 1.815-11.196 4.737l-0.004 0.004c-2.925 2.839-4.741 6.807-4.741 11.2s1.815 8.361 4.737 11.196l0.004 0.004 164.4 164.8h-345.2c-220.731 0.454-399.546 179.269-400 399.956v0.044c0 8.837 7.163 16 16 16s16-7.163 16-16v0c0.228-203.149 164.851-367.772 367.978-368h345.222l-164.4 164.8c-1.998 2.641-3.2 5.98-3.2 9.6 0 8.837 7.163 16 16 16 3.62 0 6.959-1.202 9.64-3.229l-0.040 0.029 192-192c2.925-2.839 4.741-6.807 4.741-11.2s-1.815-8.361-4.737-11.196l-0.004-0.004z" />
<glyph unicode="&#xe029;" glyph-name="arrow-bend-left-down-thin" data-tags="arrow-bend-left-down-thin" d="M816 832c0-8.837-7.163-16-16-16v0c-203.149-0.228-367.772-164.851-368-367.978v-345.222l164.8 164.4c2.641 1.998 5.98 3.2 9.6 3.2 8.837 0 16-7.163 16-16 0-3.62-1.202-6.959-3.229-9.64l0.029 0.040-192-192c-2.839-2.925-6.807-4.741-11.2-4.741s-8.361 1.815-11.196 4.737l-192.004 192.004c-1.998 2.641-3.2 5.98-3.2 9.6 0 8.837 7.163 16 16 16 3.62 0 6.959-1.202 9.64-3.229l-0.040 0.029 164.8-164.4v345.2c0.454 220.731 179.269 399.546 399.956 400h0.044c8.837 0 16-7.163 16-16v0z" />
<glyph unicode="&#xe02a;" glyph-name="arrow-bend-left-up-thin" data-tags="arrow-bend-left-up-thin" d="M816 64c0-8.837-7.163-16-16-16v0c-220.731 0.454-399.546 179.269-400 399.956v345.244l-164.8-164.4c-2.641-1.998-5.98-3.2-9.6-3.2-8.837 0-16 7.163-16 16 0 3.62 1.202 6.959 3.229 9.64l-0.029-0.040 192 192c2.839 2.925 6.807 4.741 11.2 4.741s8.361-1.815 11.196-4.737l192.004-192.004c2.925-2.839 4.741-6.807 4.741-11.2s-1.815-8.361-4.737-11.196l-0.004-0.004c-2.839-2.925-6.807-4.741-11.2-4.741s-8.361 1.815-11.196 4.737l-0.004 0.004-164.8 164.4v-345.2c0.228-203.149 164.851-367.772 367.978-368h0.022c8.837 0 16-7.163 16-16v0z" />
<glyph unicode="&#xe02b;" glyph-name="arrow-bend-right-down-thin" data-tags="arrow-bend-right-down-thin" d="M811.2 244.8l-192-192c-2.839-2.925-6.807-4.741-11.2-4.741s-8.361 1.815-11.196 4.737l-192.004 192.004c-1.998 2.641-3.2 5.98-3.2 9.6 0 8.837 7.163 16 16 16 3.62 0 6.959-1.202 9.64-3.229l-0.040 0.029 164.8-164.4v345.2c-0.228 203.149-164.851 367.772-367.978 368h-0.022c-8.837 0-16 7.163-16 16s7.163 16 16 16v0c220.731-0.454 399.546-179.269 400-399.956v-345.244l164.8 164.4c2.641 1.998 5.98 3.2 9.6 3.2 8.837 0 16-7.163 16-16 0-3.62-1.202-6.959-3.229-9.64l0.029 0.040z" />
<glyph unicode="&#xe02c;" glyph-name="arrow-bend-right-up-thin" data-tags="arrow-bend-right-up-thin" d="M811.2 628.8c-2.839-2.925-6.807-4.741-11.2-4.741s-8.361 1.815-11.196 4.737l-0.004 0.004-164.8 164.4v-345.2c-0.454-220.731-179.269-399.546-399.956-400h-0.044c-8.837 0-16 7.163-16 16s7.163 16 16 16v0c203.149 0.228 367.772 164.851 368 367.978v345.222l-164.8-164.4c-2.641-1.998-5.98-3.2-9.6-3.2-8.837 0-16 7.163-16 16 0 3.62 1.202 6.959 3.229 9.64l-0.029-0.040 192 192c2.839 2.925 6.807 4.741 11.2 4.741s8.361-1.815 11.196-4.737l192.004-192.004c2.925-2.839 4.741-6.807 4.741-11.2s-1.815-8.361-4.737-11.196l-0.004-0.004z" />
<glyph unicode="&#xe02d;" glyph-name="arrow-bend-up-left-thin" data-tags="arrow-bend-up-left-thin" d="M912 160c0-8.837-7.163-16-16-16s-16 7.163-16 16v0c-0.228 203.149-164.851 367.772-367.978 368h-345.222l164.4-164.8c2.925-2.839 4.741-6.807 4.741-11.2s-1.815-8.361-4.737-11.196l-0.004-0.004c-2.839-2.925-6.807-4.741-11.2-4.741s-8.361 1.815-11.196 4.737l-192.004 192.004c-2.925 2.839-4.741 6.807-4.741 11.2s1.815 8.361 4.737 11.196l192.004 192.004c2.641 1.998 5.98 3.2 9.6 3.2 8.837 0 16-7.163 16-16 0-3.62-1.202-6.959-3.229-9.64l0.029 0.040-164.4-164.8h345.2c220.731-0.454 399.546-179.269 400-399.956v-0.044z" />
<glyph unicode="&#xe02e;" glyph-name="arrow-bend-up-right-thin" data-tags="arrow-bend-up-right-thin" d="M907.2 532.8l-192-192c-2.839-2.925-6.807-4.741-11.2-4.741s-8.361 1.815-11.196 4.737l-0.004 0.004c-2.925 2.839-4.741 6.807-4.741 11.2s1.815 8.361 4.737 11.196l0.004 0.004 164.4 164.8h-345.2c-203.149-0.228-367.772-164.851-368-367.978v-0.022c0-8.837-7.163-16-16-16s-16 7.163-16 16v0c0.454 220.731 179.269 399.546 399.956 400h345.244l-164.4 164.8c-1.998 2.641-3.2 5.98-3.2 9.6 0 8.837 7.163 16 16 16 3.62 0 6.959-1.202 9.64-3.229l-0.040 0.029 192-192c2.925-2.839 4.741-6.807 4.741-11.2s-1.815-8.361-4.737-11.196l-0.004-0.004z" />
<glyph unicode="&#xe02f;" glyph-name="arrow-circle-down-left-thin" data-tags="arrow-circle-down-left-thin" d="M512 848c-220.914 0-400-179.086-400-400s179.086-400 400-400c220.914 0 400 179.086 400 400v0c-0.454 220.731-179.269 399.546-399.956 400h-0.044zM512 80c-203.241 0-368 164.759-368 368s164.759 368 368 368c203.241 0 368-164.759 368-368v0c-0.228-203.149-164.851-367.772-367.978-368h-0.022zM635.2 571.2c2.925-2.839 4.741-6.807 4.741-11.2s-1.815-8.361-4.737-11.196l-0.004-0.004-196.4-196.8h153.2c8.837 0 16-7.163 16-16s-7.163-16-16-16v0h-192c-8.837 0-16 7.163-16 16v0 192c0 8.837 7.163 16 16 16s16-7.163 16-16v0-153.2l196.8 196.4c2.839 2.925 6.807 4.741 11.2 4.741s8.361-1.815 11.196-4.737l0.004-0.004z" />
<glyph unicode="&#xe030;" glyph-name="arrow-circle-down-right-thin" data-tags="arrow-circle-down-right-thin" d="M794.8 730.8c-71.858 69.473-169.872 112.285-277.885 112.285-220.914 0-400-179.086-400-400 0-108.013 42.812-206.026 112.393-277.997l-0.108 0.112c71.858-69.473 169.872-112.285 277.885-112.285 220.914 0 400 179.086 400 400 0 108.013-42.812 206.026-112.393 277.997l0.108-0.112zM772.4 187.6c-66.576-66.485-158.502-107.6-260.030-107.6-203.241 0-368 164.759-368 368s164.759 368 368 368c101.528 0 193.454-41.115 260.035-107.604l-0.004 0.004c66.899-66.524 108.303-158.627 108.303-260.4s-41.404-193.876-108.286-260.384l-0.017-0.016zM640 528v-192c0-8.837-7.163-16-16-16v0h-192c-8.837 0-16 7.163-16 16s7.163 16 16 16v0h153.2l-196.4 196.8c-1.998 2.641-3.2 5.98-3.2 9.6 0 8.837 7.163 16 16 16 3.62 0 6.959-1.202 9.64-3.229l-0.040 0.029 196.8-196.4v153.2c0 8.837 7.163 16 16 16s16-7.163 16-16v0z" />
<glyph unicode="&#xe031;" glyph-name="arrow-circle-down-thin" data-tags="arrow-circle-down-thin" d="M512 848c-220.914 0-400-179.086-400-400s179.086-400 400-400c220.914 0 400 179.086 400 400v0c-0.454 220.731-179.269 399.546-399.956 400h-0.044zM512 80c-203.241 0-368 164.759-368 368s164.759 368 368 368c203.241 0 368-164.759 368-368v0c-0.228-203.149-164.851-367.772-367.978-368h-0.022zM659.2 435.2c2.764-2.985 4.46-6.995 4.46-11.4s-1.696-8.415-4.47-11.411l0.010 0.011-136-135.6c-2.839-2.925-6.807-4.741-11.2-4.741s-8.361 1.815-11.196 4.737l-0.004 0.004-136 135.6c-2.918 2.918-4.722 6.948-4.722 11.4 0 8.904 7.218 16.122 16.122 16.122 4.452 0 8.482-1.805 11.4-4.722l108.4-108.4v281.2c0 8.837 7.163 16 16 16s16-7.163 16-16v0-281.2l108.4 108.4c2.985 2.764 6.995 4.46 11.4 4.46s8.415-1.696 11.411-4.47l-0.011 0.010z" />
<glyph unicode="&#xe032;" glyph-name="arrow-circle-left-thin" data-tags="arrow-circle-left-thin" d="M512 848c-220.914 0-400-179.086-400-400s179.086-400 400-400c220.914 0 400 179.086 400 400v0c-0.454 220.731-179.269 399.546-399.956 400h-0.044zM512 80c-203.241 0-368 164.759-368 368s164.759 368 368 368c203.241 0 368-164.759 368-368v0c-0.228-203.149-164.851-367.772-367.978-368h-0.022zM688 448c0-8.837-7.163-16-16-16v0h-281.2l108.4-108.4c2.764-2.985 4.46-6.995 4.46-11.4s-1.696-8.415-4.47-11.411l0.010 0.011c-2.807-2.732-6.645-4.417-10.876-4.417-0.255 0-0.508 0.006-0.759 0.018l0.036-0.001c-0.148-0.005-0.322-0.008-0.496-0.008-4.176 0-7.958 1.684-10.705 4.409l0.001-0.001-135.6 136c-2.925 2.839-4.741 6.807-4.741 11.2s1.815 8.361 4.737 11.196l0.004 0.004 135.6 136c2.918 2.918 6.948 4.722 11.4 4.722 8.904 0 16.122-7.218 16.122-16.122 0-4.452-1.805-8.482-4.722-11.4v0l-108.4-108.4h281.2c8.837 0 16-7.163 16-16v0z" />
<glyph unicode="&#xe033;" glyph-name="arrow-circle-right-thin" data-tags="arrow-circle-right-thin" d="M512 848c-220.914 0-400-179.086-400-400s179.086-400 400-400c220.914 0 400 179.086 400 400v0c-0.454 220.731-179.269 399.546-399.956 400h-0.044zM512 80c-203.241 0-368 164.759-368 368s164.759 368 368 368c203.241 0 368-164.759 368-368v0c-0.228-203.149-164.851-367.772-367.978-368h-0.022zM683.2 459.2c2.925-2.839 4.741-6.807 4.741-11.2s-1.815-8.361-4.737-11.196l-0.004-0.004-135.6-136c-2.746-2.724-6.528-4.408-10.704-4.408-0.174 0-0.348 0.003-0.521 0.009l0.025-0.001c-0.216-0.011-0.469-0.017-0.724-0.017-4.232 0-8.070 1.685-10.88 4.42l0.004-0.003c-2.764 2.985-4.46 6.995-4.46 11.4s1.696 8.415 4.47 11.411l-0.010-0.011 108.4 108.4h-281.2c-8.837 0-16 7.163-16 16s7.163 16 16 16v0h281.2l-108.4 108.4c-2.918 2.918-4.722 6.948-4.722 11.4 0 8.904 7.218 16.122 16.122 16.122 4.452 0 8.482-1.805 11.4-4.722v0z" />
<glyph unicode="&#xe034;" glyph-name="arrow-circle-up-left-thin" data-tags="arrow-circle-up-left-thin" d="M512 848c-220.914 0-400-179.086-400-400s179.086-400 400-400c220.914 0 400 179.086 400 400v0c-0.454 220.731-179.269 399.546-399.956 400h-0.044zM512 80c-203.241 0-368 164.759-368 368s164.759 368 368 368c203.241 0 368-164.759 368-368v0c-0.228-203.149-164.851-367.772-367.978-368h-0.022zM635.2 347.2c2.925-2.839 4.741-6.807 4.741-11.2s-1.815-8.361-4.737-11.196l-0.004-0.004c-2.839-2.925-6.807-4.741-11.2-4.741s-8.361 1.815-11.196 4.737l-0.004 0.004-196.8 196.4v-153.2c0-8.837-7.163-16-16-16s-16 7.163-16 16v0 192c0 8.837 7.163 16 16 16v0h192c8.837 0 16-7.163 16-16s-7.163-16-16-16v0h-153.2z" />
<glyph unicode="&#xe035;" glyph-name="arrow-circle-up-right-thin" data-tags="arrow-circle-up-right-thin" d="M512 848c-220.914 0-400-179.086-400-400s179.086-400 400-400c220.914 0 400 179.086 400 400v0c-0.454 220.731-179.269 399.546-399.956 400h-0.044zM512 80c-203.241 0-368 164.759-368 368s164.759 368 368 368c203.241 0 368-164.759 368-368v0c-0.228-203.149-164.851-367.772-367.978-368h-0.022zM640 560v-192c0-8.837-7.163-16-16-16s-16 7.163-16 16v0 153.2l-196.8-196.4c-2.839-2.925-6.807-4.741-11.2-4.741s-8.361 1.815-11.196 4.737l-0.004 0.004c-2.925 2.839-4.741 6.807-4.741 11.2s1.815 8.361 4.737 11.196l0.004 0.004 196.4 196.8h-153.2c-8.837 0-16 7.163-16 16s7.163 16 16 16v0h192c8.837 0 16-7.163 16-16v0z" />
<glyph unicode="&#xe036;" glyph-name="arrow-circle-up-thin" data-tags="arrow-circle-up-thin" d="M512 848c-220.914 0-400-179.086-400-400s179.086-400 400-400c220.914 0 400 179.086 400 400v0c-0.454 220.731-179.269 399.546-399.956 400h-0.044zM512 80c-203.241 0-368 164.759-368 368s164.759 368 368 368c203.241 0 368-164.759 368-368v0c-0.228-203.149-164.851-367.772-367.978-368h-0.022zM659.2 483.6c2.764-2.985 4.46-6.995 4.46-11.4s-1.696-8.415-4.47-11.411l0.010 0.011c-2.807-2.732-6.645-4.417-10.876-4.417-0.255 0-0.508 0.006-0.759 0.018l0.036-0.001c-0.148-0.005-0.322-0.008-0.496-0.008-4.176 0-7.958 1.684-10.705 4.409l-108.399 108.399v-281.2c0-8.837-7.163-16-16-16s-16 7.163-16 16v0 281.2l-108.4-108.4c-2.918-2.918-6.948-4.722-11.4-4.722-8.904 0-16.122 7.218-16.122 16.122 0 4.452 1.805 8.482 4.722 11.4v0l136 135.6c2.839 2.925 6.807 4.741 11.2 4.741s8.361-1.815 11.196-4.737l0.004-0.004z" />
<glyph unicode="&#xe037;" glyph-name="arrow-clockwise-thin" data-tags="arrow-clockwise-thin" d="M912.8 753.2v-192c0-8.837-7.163-16-16-16v0h-192c-8.837 0-16 7.163-16 16s7.163 16 16 16v0h153.2l-108.4 108.4c-60.803 60.797-144.798 98.4-237.576 98.4-185.568 0-336-150.432-336-336s150.432-336 336-336c92.778 0 176.773 37.603 237.576 98.4v0c2.904 2.947 6.939 4.773 11.4 4.773s8.496-1.826 11.398-4.771l0.002-0.002c2.764-2.985 4.46-6.995 4.46-11.4s-1.696-8.415-4.47-11.411l0.010 0.011c-66.677-66.726-158.817-108-260.596-108-203.462 0-368.4 164.938-368.4 368.4s164.938 368.4 368.4 368.4c101.78 0 193.919-41.274 260.594-107.998l0.002-0.002 108.4-108.8v153.6c0 8.837 7.163 16 16 16s16-7.163 16-16v0z" />
<glyph unicode="&#xe038;" glyph-name="arrow-counter-clockwise-thin" data-tags="arrow-counter-clockwise-thin" d="M880 448c-0.339-203.206-165.147-367.805-368.4-367.805-101.484 0-193.383 41.034-260.011 107.416l0.011-0.011c-2.764 2.985-4.46 6.995-4.46 11.4s1.696 8.415 4.47 11.411l-0.010-0.011c2.904 2.947 6.939 4.773 11.4 4.773s8.496-1.826 11.398-4.771l0.002-0.002c60.803-60.797 144.798-98.4 237.576-98.4 185.568 0 336 150.432 336 336s-150.432 336-336 336c-92.778 0-176.773-37.603-237.576-98.4l-108.4-108.4h153.2c8.837 0 16-7.163 16-16s-7.163-16-16-16v0h-192c-8.837 0-16 7.163-16 16v0 192c0 8.837 7.163 16 16 16s16-7.163 16-16v0-153.6l108.4 108.8c66.613 66.705 158.688 107.97 260.4 107.97 203.241 0 368-164.759 368-368 0-0.13 0-0.26 0-0.39v0.020z" />
<glyph unicode="&#xe039;" glyph-name="arrow-down-left-thin" data-tags="arrow-down-left-thin" d="M779.2 692.8l-484.4-484.8h377.2c8.837 0 16-7.163 16-16s-7.163-16-16-16v0h-416c-8.837 0-16 7.163-16 16v0 416c0 8.837 7.163 16 16 16s16-7.163 16-16v0-377.2l484.8 484.4c2.95 3.904 7.583 6.4 12.8 6.4 8.837 0 16-7.163 16-16 0-5.217-2.496-9.85-6.36-12.771l-0.040-0.029z" />
<glyph unicode="&#xe03a;" glyph-name="arrow-down-right-thin" data-tags="arrow-down-right-thin" d="M784 608v-416c0-8.837-7.163-16-16-16v0h-416c-8.837 0-16 7.163-16 16s7.163 16 16 16v0h377.2l-484.4 484.8c-1.998 2.641-3.2 5.98-3.2 9.6 0 8.837 7.163 16 16 16 3.62 0 6.959-1.202 9.64-3.229l-0.040 0.029 484.8-484.4v377.2c0 8.837 7.163 16 16 16s16-7.163 16-16v0z" />
<glyph unicode="&#xe03b;" glyph-name="arrow-down-thin" data-tags="arrow-down-thin" d="M811.2 372.8l-288-288c-2.839-2.925-6.807-4.741-11.2-4.741s-8.361 1.815-11.196 4.737l-288.004 288.004c-1.998 2.641-3.2 5.98-3.2 9.6 0 8.837 7.163 16 16 16 3.62 0 6.959-1.202 9.64-3.229l-0.040 0.029 260.8-260.4v665.2c0 8.837 7.163 16 16 16s16-7.163 16-16v0-665.2l260.8 260.4c2.641 1.998 5.98 3.2 9.6 3.2 8.837 0 16-7.163 16-16 0-3.62-1.202-6.959-3.229-9.64l0.029 0.040z" />
<glyph unicode="&#xe03c;" glyph-name="arrow-elbow-down-left-thin" data-tags="arrow-elbow-down-left-thin" d="M784 832v-576c0-8.837-7.163-16-16-16v0h-537.2l164.4-164.8c2.925-2.839 4.741-6.807 4.741-11.2s-1.815-8.361-4.737-11.196l-0.004-0.004c-2.839-2.925-6.807-4.741-11.2-4.741s-8.361 1.815-11.196 4.737l-192.004 192.004c-2.925 2.839-4.741 6.807-4.741 11.2s1.815 8.361 4.737 11.196l192.004 192.004c2.95 3.904 7.583 6.4 12.8 6.4 8.837 0 16-7.163 16-16 0-5.217-2.496-9.85-6.36-12.771l-0.040-0.029-164.4-164.8h521.2v560c0 8.837 7.163 16 16 16s16-7.163 16-16v0z" />
<glyph unicode="&#xe03d;" glyph-name="arrow-elbow-down-right-thin" data-tags="arrow-elbow-down-right-thin" d="M843.2 244.8l-192-192c-2.839-2.925-6.807-4.741-11.2-4.741s-8.361 1.815-11.196 4.737l-0.004 0.004c-2.925 2.839-4.741 6.807-4.741 11.2s1.815 8.361 4.737 11.196l0.004 0.004 164.4 164.8h-537.2c-8.837 0-16 7.163-16 16v0 576c0 8.837 7.163 16 16 16s16-7.163 16-16v0-560h521.2l-164.4 164.8c-3.904 2.95-6.4 7.583-6.4 12.8 0 8.837 7.163 16 16 16 5.217 0 9.85-2.496 12.771-6.36l0.029-0.040 192-192c2.925-2.839 4.741-6.807 4.741-11.2s-1.815-8.361-4.737-11.196l-0.004-0.004z" />
<glyph unicode="&#xe03e;" glyph-name="arrow-elbow-left-down-thin" data-tags="arrow-elbow-left-down-thin" d="M912 704c0-8.837-7.163-16-16-16v0h-560v-521.2l164.8 164.4c2.641 1.998 5.98 3.2 9.6 3.2 8.837 0 16-7.163 16-16 0-3.62-1.202-6.959-3.229-9.64l0.029 0.040-192-192c-2.839-2.925-6.807-4.741-11.2-4.741s-8.361 1.815-11.196 4.737l-192.004 192.004c-1.998 2.641-3.2 5.98-3.2 9.6 0 8.837 7.163 16 16 16 3.62 0 6.959-1.202 9.64-3.229l-0.040 0.029 164.8-164.4v537.2c0 8.837 7.163 16 16 16v0h576c8.837 0 16-7.163 16-16v0z" />
<glyph unicode="&#xe03f;" glyph-name="arrow-elbow-left-thin" data-tags="arrow-elbow-left-thin" d="M939.2 564.8l-384-384c-2.839-2.925-6.807-4.741-11.2-4.741s-8.361 1.815-11.196 4.737l-420.804 420.404v-249.2c0-8.837-7.163-16-16-16s-16 7.163-16 16v0 288c0 8.837 7.163 16 16 16v0h288c8.837 0 16-7.163 16-16s-7.163-16-16-16v0h-249.2l409.2-409.2 372.8 372.4c2.95 3.904 7.583 6.4 12.8 6.4 8.837 0 16-7.163 16-16 0-5.217-2.496-9.85-6.36-12.771l-0.040-0.029z" />
<glyph unicode="&#xe040;" glyph-name="arrow-elbow-left-up-thin" data-tags="arrow-elbow-left-up-thin" d="M912 192c0-8.837-7.163-16-16-16v0h-576c-8.837 0-16 7.163-16 16v0 537.2l-164.8-164.4c-2.641-1.998-5.98-3.2-9.6-3.2-8.837 0-16 7.163-16 16 0 3.62 1.202 6.959 3.229 9.64l-0.029-0.040 192 192c2.839 2.925 6.807 4.741 11.2 4.741s8.361-1.815 11.196-4.737l192.004-192.004c2.925-2.839 4.741-6.807 4.741-11.2s-1.815-8.361-4.737-11.196l-0.004-0.004c-2.839-2.925-6.807-4.741-11.2-4.741s-8.361 1.815-11.196 4.737l-0.004 0.004-164.8 164.4v-521.2h560c8.837 0 16-7.163 16-16v0z" />
<glyph unicode="&#xe041;" glyph-name="arrow-elbow-right-down-thin" data-tags="arrow-elbow-right-down-thin" d="M907.2 308.8l-192-192c-2.839-2.925-6.807-4.741-11.2-4.741s-8.361 1.815-11.196 4.737l-192.004 192.004c-3.904 2.95-6.4 7.583-6.4 12.8 0 8.837 7.163 16 16 16 5.217 0 9.85-2.496 12.771-6.36l0.029-0.040 164.8-164.4v521.2h-560c-8.837 0-16 7.163-16 16s7.163 16 16 16v0h576c8.837 0 16-7.163 16-16v0-537.2l164.8 164.4c2.641 1.998 5.98 3.2 9.6 3.2 8.837 0 16-7.163 16-16 0-3.62-1.202-6.959-3.229-9.64l0.029 0.040z" />
<glyph unicode="&#xe042;" glyph-name="arrow-elbow-right-thin" data-tags="arrow-elbow-right-thin" d="M944 640v-288c0-8.837-7.163-16-16-16s-16 7.163-16 16v0 249.2l-420.8-420.4c-2.839-2.925-6.807-4.741-11.2-4.741s-8.361 1.815-11.196 4.737l-384.004 384.004c-1.998 2.641-3.2 5.98-3.2 9.6 0 8.837 7.163 16 16 16 3.62 0 6.959-1.202 9.64-3.229l-0.040 0.029 372.8-372.4 409.2 409.2h-249.2c-8.837 0-16 7.163-16 16s7.163 16 16 16v0h288c8.837 0 16-7.163 16-16v0z" />
<glyph unicode="&#xe043;" glyph-name="arrow-elbow-right-up-thin" data-tags="arrow-elbow-right-up-thin" d="M907.2 564.8c-2.839-2.925-6.807-4.741-11.2-4.741s-8.361 1.815-11.196 4.737l-0.004 0.004-164.8 164.4v-537.2c0-8.837-7.163-16-16-16v0h-576c-8.837 0-16 7.163-16 16s7.163 16 16 16v0h560v521.2l-164.8-164.4c-2.95-3.904-7.583-6.4-12.8-6.4-8.837 0-16 7.163-16 16 0 5.217 2.496 9.85 6.36 12.771l0.040 0.029 192 192c2.839 2.925 6.807 4.741 11.2 4.741s8.361-1.815 11.196-4.737l192.004-192.004c2.925-2.839 4.741-6.807 4.741-11.2s-1.815-8.361-4.737-11.196l-0.004-0.004z" />
<glyph unicode="&#xe044;" glyph-name="arrow-elbow-up-left-thin" data-tags="arrow-elbow-up-left-thin" d="M784 640v-576c0-8.837-7.163-16-16-16s-16 7.163-16 16v0 560h-521.2l164.4-164.8c2.925-2.839 4.741-6.807 4.741-11.2s-1.815-8.361-4.737-11.196l-0.004-0.004c-2.839-2.925-6.807-4.741-11.2-4.741s-8.361 1.815-11.196 4.737l-192.004 192.004c-2.925 2.839-4.741 6.807-4.741 11.2s1.815 8.361 4.737 11.196l192.004 192.004c2.641 1.998 5.98 3.2 9.6 3.2 8.837 0 16-7.163 16-16 0-3.62-1.202-6.959-3.229-9.64l0.029 0.040-164.4-164.8h537.2c8.837 0 16-7.163 16-16v0z" />
<glyph unicode="&#xe045;" glyph-name="arrow-elbow-up-right-thin" data-tags="arrow-elbow-up-right-thin" d="M843.2 628.8l-192-192c-2.839-2.925-6.807-4.741-11.2-4.741s-8.361 1.815-11.196 4.737l-0.004 0.004c-2.925 2.839-4.741 6.807-4.741 11.2s1.815 8.361 4.737 11.196l0.004 0.004 164.4 164.8h-521.2v-560c0-8.837-7.163-16-16-16s-16 7.163-16 16v0 576c0 8.837 7.163 16 16 16v0h537.2l-164.4 164.8c-1.998 2.641-3.2 5.98-3.2 9.6 0 8.837 7.163 16 16 16 3.62 0 6.959-1.202 9.64-3.229l-0.040 0.029 192-192c2.925-2.839 4.741-6.807 4.741-11.2s-1.815-8.361-4.737-11.196l-0.004-0.004z" />
<glyph unicode="&#xe046;" glyph-name="arrow-fat-down-thin" data-tags="arrow-fat-down-thin" d="M910.8 422c-2.434 5.904-8.139 9.986-14.798 10h-176.002v336c0 26.51-21.49 48-48 48v0h-320c-26.51 0-48-21.49-48-48v0-336h-176c-6.661-0.014-12.366-4.096-14.761-9.894l-0.039-0.106c-0.796-1.785-1.26-3.868-1.26-6.059 0-4.396 1.867-8.357 4.85-11.132l384.009-384.009c2.839-2.925 6.807-4.741 11.2-4.741s8.361 1.815 11.196 4.737l384.004 384.004c2.993 2.784 4.86 6.744 4.86 11.141 0 2.191-0.464 4.274-1.298 6.156l0.038-0.097zM512 54.8l-345.2 345.2h153.2c8.837 0 16 7.163 16 16v0 352c0 8.837 7.163 16 16 16v0h320c8.837 0 16-7.163 16-16v0-352c0-8.837 7.163-16 16-16v0h153.2z" />
<glyph unicode="&#xe047;" glyph-name="arrow-fat-left-thin" data-tags="arrow-fat-left-thin" d="M832 656h-336v176c-0.014 6.661-4.096 12.366-9.894 14.761l-0.106 0.039c-1.785 0.796-3.868 1.26-6.059 1.26-4.396 0-8.357-1.867-11.132-4.85l-384.009-384.009c-2.925-2.839-4.741-6.807-4.741-11.2s1.815-8.361 4.737-11.196l384.004-384.004c2.78-2.958 6.718-4.8 11.086-4.8 0.040 0 0.080 0 0.121 0h-0.006c8.837 0 16 7.163 16 16v0 176h336c26.51 0 48 21.49 48 48v0 320c0 26.51-21.49 48-48 48v0zM848 288c0-8.837-7.163-16-16-16v0h-352c-8.837 0-16-7.163-16-16v0-153.2l-345.2 345.2 345.2 345.2v-153.2c0-8.837 7.163-16 16-16v0h352c8.837 0 16-7.163 16-16v0z" />
<glyph unicode="&#xe048;" glyph-name="arrow-fat-line-down-thin" data-tags="arrow-fat-line-down-thin" d="M910.8 422c-2.434 5.904-8.139 9.986-14.798 10h-176.002v240c0 8.837-7.163 16-16 16v0h-384c-8.837 0-16-7.163-16-16v0-240h-176c-6.661-0.014-12.366-4.096-14.761-9.894l-0.039-0.106c-0.796-1.785-1.26-3.868-1.26-6.059 0-4.396 1.867-8.357 4.85-11.132l384.009-384.009c2.839-2.925 6.807-4.741 11.2-4.741s8.361 1.815 11.196 4.737l384.004 384.004c2.993 2.784 4.86 6.744 4.86 11.141 0 2.191-0.464 4.274-1.298 6.156l0.038-0.097zM512 54.8l-345.2 345.2h153.2c8.837 0 16 7.163 16 16v0 240h352v-240c0-8.837 7.163-16 16-16v0h153.2zM304 800c0 8.837 7.163 16 16 16v0h384c8.837 0 16-7.163 16-16s-7.163-16-16-16v0h-384c-8.837 0-16 7.163-16 16v0z" />
<glyph unicode="&#xe049;" glyph-name="arrow-fat-line-left-thin" data-tags="arrow-fat-line-left-thin" d="M736 656h-240v176c-0.014 6.661-4.096 12.366-9.894 14.761l-0.106 0.039c-1.785 0.796-3.868 1.26-6.059 1.26-4.396 0-8.357-1.867-11.132-4.85l-384.009-384.009c-2.925-2.839-4.741-6.807-4.741-11.2s1.815-8.361 4.737-11.196l384.004-384.004c2.78-2.958 6.718-4.8 11.086-4.8 0.040 0 0.080 0 0.121 0h-0.006c8.837 0 16 7.163 16 16v0 176h240c8.837 0 16 7.163 16 16v0 384c0 8.837-7.163 16-16 16v0zM720 272h-240c-8.837 0-16-7.163-16-16v0-153.2l-345.2 345.2 345.2 345.2v-153.2c0-8.837 7.163-16 16-16v0h240zM880 640v-384c0-8.837-7.163-16-16-16s-16 7.163-16 16v0 384c0 8.837 7.163 16 16 16s16-7.163 16-16v0z" />
<glyph unicode="&#xe04a;" glyph-name="arrow-fat-line-right-thin" data-tags="arrow-fat-line-right-thin" d="M939.2 459.2l-384 384c-2.784 2.993-6.744 4.86-11.141 4.86-2.191 0-4.274-0.464-6.156-1.298l0.097 0.038c-5.904-2.434-9.986-8.139-10-14.798v-176.002h-240c-8.837 0-16-7.163-16-16v0-384c0-8.837 7.163-16 16-16v0h240v-176c0-8.837 7.163-16 16-16v0c0.034 0 0.074 0 0.114 0 4.368 0 8.306 1.842 11.078 4.792l0.007 0.008 384 384c2.925 2.839 4.741 6.807 4.741 11.2s-1.815 8.361-4.737 11.196l-0.004 0.004zM560 102.8v153.2c0 8.837-7.163 16-16 16v0h-240v352h240c8.837 0 16 7.163 16 16v0 153.2l345.2-345.2zM176 640v-384c0-8.837-7.163-16-16-16s-16 7.163-16 16v0 384c0 8.837 7.163 16 16 16s16-7.163 16-16v0z" />
<glyph unicode="&#xe04b;" glyph-name="arrow-fat-lines-down-thin" data-tags="arrow-fat-lines-down-thin" d="M910.8 422c-2.434 5.904-8.139 9.986-14.798 10h-176.002v112c0 8.837-7.163 16-16 16v0h-384c-8.837 0-16-7.163-16-16v0-112h-176c-6.661-0.014-12.366-4.096-14.761-9.894l-0.039-0.106c-0.796-1.785-1.26-3.868-1.26-6.059 0-4.396 1.867-8.357 4.85-11.132l384.009-384.009c2.839-2.925 6.807-4.741 11.2-4.741s8.361 1.815 11.196 4.737l384.004 384.004c2.993 2.784 4.86 6.744 4.86 11.141 0 2.191-0.464 4.274-1.298 6.156l0.038-0.097zM512 54.8l-345.2 345.2h153.2c8.837 0 16 7.163 16 16v0 112h352v-112c0-8.837 7.163-16 16-16v0h153.2zM304 800c0 8.837 7.163 16 16 16v0h384c8.837 0 16-7.163 16-16s-7.163-16-16-16v0h-384c-8.837 0-16 7.163-16 16v0zM304 672c0 8.837 7.163 16 16 16v0h384c8.837 0 16-7.163 16-16s-7.163-16-16-16v0h-384c-8.837 0-16 7.163-16 16v0z" />
<glyph unicode="&#xe04c;" glyph-name="arrow-fat-lines-left-thin" data-tags="arrow-fat-lines-left-thin" d="M608 656h-112v176c-0.014 6.661-4.096 12.366-9.894 14.761l-0.106 0.039c-1.785 0.796-3.868 1.26-6.059 1.26-4.396 0-8.357-1.867-11.132-4.85l-384.009-384.009c-2.925-2.839-4.741-6.807-4.741-11.2s1.815-8.361 4.737-11.196l384.004-384.004c2.78-2.958 6.718-4.8 11.086-4.8 0.040 0 0.080 0 0.121 0h-0.006c8.837 0 16 7.163 16 16v0 176h112c8.837 0 16 7.163 16 16v0 384c0 8.837-7.163 16-16 16v0zM592 272h-112c-8.837 0-16-7.163-16-16v0-153.2l-345.2 345.2 345.2 345.2v-153.2c0-8.837 7.163-16 16-16v0h112zM880 640v-384c0-8.837-7.163-16-16-16s-16 7.163-16 16v0 384c0 8.837 7.163 16 16 16s16-7.163 16-16v0zM752 640v-384c0-8.837-7.163-16-16-16s-16 7.163-16 16v0 384c0 8.837 7.163 16 16 16s16-7.163 16-16v0z" />
<glyph unicode="&#xe04d;" glyph-name="arrow-fat-lines-right-thin" data-tags="arrow-fat-lines-right-thin" d="M939.2 459.2l-384 384c-2.784 2.993-6.744 4.86-11.141 4.86-2.191 0-4.274-0.464-6.156-1.298l0.097 0.038c-5.904-2.434-9.986-8.139-10-14.798v-176.002h-112c-8.837 0-16-7.163-16-16v0-384c0-8.837 7.163-16 16-16v0h112v-176c0-8.837 7.163-16 16-16v0c0.034 0 0.074 0 0.114 0 4.368 0 8.306 1.842 11.078 4.792l0.007 0.008 384 384c2.925 2.839 4.741 6.807 4.741 11.2s-1.815 8.361-4.737 11.196l-0.004 0.004zM560 102.8v153.2c0 8.837-7.163 16-16 16v0h-112v352h112c8.837 0 16 7.163 16 16v0 153.2l345.2-345.2zM176 640v-384c0-8.837-7.163-16-16-16s-16 7.163-16 16v0 384c0 8.837 7.163 16 16 16s16-7.163 16-16v0zM304 640v-384c0-8.837-7.163-16-16-16s-16 7.163-16 16v0 384c0 8.837 7.163 16 16 16s16-7.163 16-16v0z" />
<glyph unicode="&#xe04e;" glyph-name="arrow-fat-lines-up-thin" data-tags="arrow-fat-lines-up-thin" d="M907.2 491.2l-384 384c-2.839 2.925-6.807 4.741-11.2 4.741s-8.361-1.815-11.196-4.737l-384.004-384.004c-2.993-2.784-4.86-6.744-4.86-11.141 0-2.191 0.464-4.274 1.298-6.156l-0.038 0.097c2.434-5.904 8.139-9.986 14.798-10h176.002v-112c0-8.837 7.163-16 16-16v0h384c8.837 0 16 7.163 16 16v0 112h176c6.661 0.014 12.366 4.096 14.761 9.894l0.039 0.106c0.796 1.785 1.26 3.868 1.26 6.059 0 4.396-1.867 8.357-4.85 11.132l-0.009 0.009zM704 496c-8.837 0-16-7.163-16-16v0-112h-352v112c0 8.837-7.163 16-16 16v0h-153.2l345.2 345.2 345.2-345.2zM720 96c0-8.837-7.163-16-16-16v0h-384c-8.837 0-16 7.163-16 16s7.163 16 16 16v0h384c8.837 0 16-7.163 16-16v0zM720 224c0-8.837-7.163-16-16-16v0h-384c-8.837 0-16 7.163-16 16s7.163 16 16 16v0h384c8.837 0 16-7.163 16-16v0z" />
<glyph unicode="&#xe04f;" glyph-name="arrow-fat-line-up-thin" data-tags="arrow-fat-line-up-thin" d="M907.2 491.2l-384 384c-2.839 2.925-6.807 4.741-11.2 4.741s-8.361-1.815-11.196-4.737l-384.004-384.004c-2.993-2.784-4.86-6.744-4.86-11.141 0-2.191 0.464-4.274 1.298-6.156l-0.038 0.097c2.434-5.904 8.139-9.986 14.798-10h176.002v-240c0-8.837 7.163-16 16-16v0h384c8.837 0 16 7.163 16 16v0 240h176c6.661 0.014 12.366 4.096 14.761 9.894l0.039 0.106c0.796 1.785 1.26 3.868 1.26 6.059 0 4.396-1.867 8.357-4.85 11.132l-0.009 0.009zM704 496c-8.837 0-16-7.163-16-16v0-240h-352v240c0 8.837-7.163 16-16 16v0h-153.2l345.2 345.2 345.2-345.2zM720 96c0-8.837-7.163-16-16-16v0h-384c-8.837 0-16 7.163-16 16s7.163 16 16 16v0h384c8.837 0 16-7.163 16-16v0z" />
<glyph unicode="&#xe050;" glyph-name="arrow-fat-right-thin" data-tags="arrow-fat-right-thin" d="M939.2 459.2l-384 384c-2.784 2.993-6.744 4.86-11.141 4.86-2.191 0-4.274-0.464-6.156-1.298l0.097 0.038c-5.904-2.434-9.986-8.139-10-14.798v-176.002h-336c-26.51 0-48-21.49-48-48v0-320c0-26.51 21.49-48 48-48v0h336v-176c0-8.837 7.163-16 16-16v0c0.034 0 0.074 0 0.114 0 4.368 0 8.306 1.842 11.078 4.792l0.007 0.008 384 384c2.925 2.839 4.741 6.807 4.741 11.2s-1.815 8.361-4.737 11.196l-0.004 0.004zM560 102.8v153.2c0 8.837-7.163 16-16 16v0h-352c-8.837 0-16 7.163-16 16v0 320c0 8.837 7.163 16 16 16v0h352c8.837 0 16 7.163 16 16v0 153.2l345.2-345.2z" />
<glyph unicode="&#xe051;" glyph-name="arrow-fat-up-thin" data-tags="arrow-fat-up-thin" d="M907.2 491.2l-384 384c-2.839 2.925-6.807 4.741-11.2 4.741s-8.361-1.815-11.196-4.737l-384.004-384.004c-2.993-2.784-4.86-6.744-4.86-11.141 0-2.191 0.464-4.274 1.298-6.156l-0.038 0.097c2.434-5.904 8.139-9.986 14.798-10h176.002v-336c0-26.51 21.49-48 48-48v0h320c26.51 0 48 21.49 48 48v0 336h176c6.661 0.014 12.366 4.096 14.761 9.894l0.039 0.106c0.796 1.785 1.26 3.868 1.26 6.059 0 4.396-1.867 8.357-4.85 11.132l-0.009 0.009zM704 496c-8.837 0-16-7.163-16-16v0-352c0-8.837-7.163-16-16-16v0h-320c-8.837 0-16 7.163-16 16v0 352c0 8.837-7.163 16-16 16v0h-153.2l345.2 345.2 345.2-345.2z" />
<glyph unicode="&#xe052;" glyph-name="arrow-left-thin" data-tags="arrow-left-thin" d="M880 448c0-8.837-7.163-16-16-16v0h-665.2l260.4-260.8c2.925-2.839 4.741-6.807 4.741-11.2s-1.815-8.361-4.737-11.196l-0.004-0.004c-2.839-2.925-6.807-4.741-11.2-4.741s-8.361 1.815-11.196 4.737l-288.004 288.004c-2.925 2.839-4.741 6.807-4.741 11.2s1.815 8.361 4.737 11.196l288.004 288.004c2.641 1.998 5.98 3.2 9.6 3.2 8.837 0 16-7.163 16-16 0-3.62-1.202-6.959-3.229-9.64l0.029 0.040-260.4-260.8h665.2c8.837 0 16-7.163 16-16v0z" />
<glyph unicode="&#xe053;" glyph-name="arrow-line-down-left-thin" data-tags="arrow-line-down-left-thin" d="M715.2 619.2c2.925-2.839 4.741-6.807 4.741-11.2s-1.815-8.361-4.737-11.196l-420.404-420.804h361.2c8.837 0 16-7.163 16-16s-7.163-16-16-16v0h-400c-8.837 0-16 7.163-16 16v0 400c0 8.837 7.163 16 16 16s16-7.163 16-16v0-361.2l420.8 420.4c2.839 2.925 6.807 4.741 11.2 4.741s8.361-1.815 11.196-4.737l0.004-0.004zM864 816h-704c-8.837 0-16-7.163-16-16s7.163-16 16-16v0h704c8.837 0 16 7.163 16 16s-7.163 16-16 16v0z" />
<glyph unicode="&#xe054;" glyph-name="arrow-line-down-right-thin" data-tags="arrow-line-down-right-thin" d="M784 560v-400c0-8.837-7.163-16-16-16v0h-400c-8.837 0-16 7.163-16 16s7.163 16 16 16v0h361.2l-420.4 420.8c-1.998 2.641-3.2 5.98-3.2 9.6 0 8.837 7.163 16 16 16 3.62 0 6.959-1.202 9.64-3.229l-0.040 0.029 420.8-420.4v361.2c0 8.837 7.163 16 16 16s16-7.163 16-16v0zM864 816h-704c-8.837 0-16-7.163-16-16s7.163-16 16-16v0h704c8.837 0 16 7.163 16 16s-7.163 16-16 16v0z" />
<glyph unicode="&#xe055;" glyph-name="arrow-line-down-thin" data-tags="arrow-line-down-thin" d="M212.8 500.8c-1.998 2.641-3.2 5.98-3.2 9.6 0 8.837 7.163 16 16 16 3.62 0 6.959-1.202 9.64-3.229l-0.040 0.029 260.8-260.4v569.2c0 8.837 7.163 16 16 16s16-7.163 16-16v0-569.2l260.8 260.4c2.95 3.904 7.583 6.4 12.8 6.4 8.837 0 16-7.163 16-16 0-5.217-2.496-9.85-6.36-12.771l-0.040-0.029-288-288c-2.839-2.925-6.807-4.741-11.2-4.741s-8.361 1.815-11.196 4.737l-0.004 0.004zM864 112h-704c-8.837 0-16-7.163-16-16s7.163-16 16-16v0h704c8.837 0 16 7.163 16 16s-7.163 16-16 16v0z" />
<glyph unicode="&#xe056;" glyph-name="arrow-line-left-thin" data-tags="arrow-line-left-thin" d="M912 448c0-8.837-7.163-16-16-16v0h-569.2l260.4-260.8c2.925-2.839 4.741-6.807 4.741-11.2s-1.815-8.361-4.737-11.196l-0.004-0.004c-2.78-2.958-6.718-4.8-11.086-4.8-0.040 0-0.080 0-0.121 0h0.006c-4.401 0.017-8.369 1.853-11.195 4.795l-288.005 288.005c-2.925 2.839-4.741 6.807-4.741 11.2s1.815 8.361 4.737 11.196l288.004 288.004c2.95 3.904 7.583 6.4 12.8 6.4 8.837 0 16-7.163 16-16 0-5.217-2.496-9.85-6.36-12.771l-0.040-0.029-260.4-260.8h569.2c8.837 0 16-7.163 16-16v0zM160 816c-8.837 0-16-7.163-16-16v0-704c0-8.837 7.163-16 16-16s16 7.163 16 16v0 704c0 8.837-7.163 16-16 16v0z" />
<glyph unicode="&#xe057;" glyph-name="arrow-line-right-thin" data-tags="arrow-line-right-thin" d="M747.2 459.2c2.925-2.839 4.741-6.807 4.741-11.2s-1.815-8.361-4.737-11.196l-288.004-288.004c-2.831-2.947-6.799-4.783-11.197-4.8h-0.003c-0.034 0-0.074 0-0.114 0-4.368 0-8.306 1.842-11.078 4.792l-0.007 0.008c-2.925 2.839-4.741 6.807-4.741 11.2s1.815 8.361 4.737 11.196l0.004 0.004 260.4 260.8h-569.2c-8.837 0-16 7.163-16 16s7.163 16 16 16v0h569.2l-260.4 260.8c-1.998 2.641-3.2 5.98-3.2 9.6 0 8.837 7.163 16 16 16 3.62 0 6.959-1.202 9.64-3.229l-0.040 0.029zM864 816c-8.837 0-16-7.163-16-16v0-704c0-8.837 7.163-16 16-16s16 7.163 16 16v0 704c0 8.837-7.163 16-16 16v0z" />
<glyph unicode="&#xe058;" glyph-name="arrow-line-up-left-thin" data-tags="arrow-line-up-left-thin" d="M240 336v400c0 8.837 7.163 16 16 16v0h400c8.837 0 16-7.163 16-16s-7.163-16-16-16v0h-361.2l420.4-420.8c2.925-2.839 4.741-6.807 4.741-11.2s-1.815-8.361-4.737-11.196l-0.004-0.004c-2.839-2.925-6.807-4.741-11.2-4.741s-8.361 1.815-11.196 4.737l-420.804 420.404v-361.2c0-8.837-7.163-16-16-16s-16 7.163-16 16v0zM864 112h-704c-8.837 0-16-7.163-16-16s7.163-16 16-16v0h704c8.837 0 16 7.163 16 16s-7.163 16-16 16v0z" />
<glyph unicode="&#xe059;" glyph-name="arrow-line-up-right-thin" data-tags="arrow-line-up-right-thin" d="M308.8 276.8c-2.925 2.839-4.741 6.807-4.741 11.2s1.815 8.361 4.737 11.196l420.404 420.804h-361.2c-8.837 0-16 7.163-16 16s7.163 16 16 16v0h400c8.837 0 16-7.163 16-16v0-400c0-8.837-7.163-16-16-16s-16 7.163-16 16v0 361.2l-420.8-420.4c-2.839-2.925-6.807-4.741-11.2-4.741s-8.361 1.815-11.196 4.737l-0.004 0.004zM864 112h-704c-8.837 0-16-7.163-16-16s7.163-16 16-16v0h704c8.837 0 16 7.163 16 16s-7.163 16-16 16v0z" />
<glyph unicode="&#xe05a;" glyph-name="arrow-line-up-thin" data-tags="arrow-line-up-thin" d="M811.2 395.2c2.925-2.839 4.741-6.807 4.741-11.2s-1.815-8.361-4.737-11.196l-0.004-0.004c-2.839-2.925-6.807-4.741-11.2-4.741s-8.361 1.815-11.196 4.737l-0.004 0.004-260.8 260.4v-569.2c0-8.837-7.163-16-16-16s-16 7.163-16 16v0 569.2l-260.8-260.4c-2.641-1.998-5.98-3.2-9.6-3.2-8.837 0-16 7.163-16 16 0 3.62 1.202 6.959 3.229 9.64l-0.029-0.040 288 288c2.839 2.925 6.807 4.741 11.2 4.741s8.361-1.815 11.196-4.737l0.004-0.004zM864 816h-704c-8.837 0-16-7.163-16-16s7.163-16 16-16v0h704c8.837 0 16 7.163 16 16s-7.163 16-16 16v0z" />
<glyph unicode="&#xe05b;" glyph-name="arrow-right-thin" data-tags="arrow-right-thin" d="M875.2 436.8l-288-288c-2.839-2.925-6.807-4.741-11.2-4.741s-8.361 1.815-11.196 4.737l-0.004 0.004c-2.925 2.839-4.741 6.807-4.741 11.2s1.815 8.361 4.737 11.196l0.004 0.004 260.4 260.8h-665.2c-8.837 0-16 7.163-16 16s7.163 16 16 16v0h665.2l-260.4 260.8c-1.998 2.641-3.2 5.98-3.2 9.6 0 8.837 7.163 16 16 16 3.62 0 6.959-1.202 9.64-3.229l-0.040 0.029 288-288c2.925-2.839 4.741-6.807 4.741-11.2s-1.815-8.361-4.737-11.196l-0.004-0.004z" />
<glyph unicode="&#xe05c;" glyph-name="arrows-clockwise-thin" data-tags="arrows-clockwise-thin" d="M912.8 753.2v-192c0-8.837-7.163-16-16-16v0h-192c-8.837 0-16 7.163-16 16s7.163 16 16 16v0h153.2l-108.4 108.4c-60.893 60.619-144.87 98.094-237.6 98.094s-176.707-37.475-237.613-98.107l0.013 0.012c-2.904-2.947-6.939-4.773-11.4-4.773s-8.496 1.826-11.398 4.771l-0.002 0.002c-2.764 2.985-4.46 6.995-4.46 11.4s1.696 8.415 4.47 11.411l-0.010-0.011c66.701 66.512 158.748 107.639 260.4 107.639s193.698-41.126 260.408-107.647l-0.008 0.008 108.4-108.8v153.6c0 8.837 7.163 16 16 16s16-7.163 16-16v0zM749.6 210.4c-60.893-60.619-144.87-98.094-237.6-98.094s-176.707 37.475-237.613 98.107l0.013-0.012-108.4 108.4h153.2c8.837 0 16 7.163 16 16s-7.163 16-16 16v0h-192c-8.837 0-16-7.163-16-16v0-192c0-8.837 7.163-16 16-16s16 7.163 16 16v0 153.6l108.4-108.8c66.701-66.512 158.748-107.639 260.4-107.639s193.698 41.126 260.408 107.647l-0.008-0.008c2.764 2.985 4.46 6.995 4.46 11.4s-1.696 8.415-4.47 11.411l0.010-0.011c-2.904 2.947-6.939 4.773-11.4 4.773s-8.496-1.826-11.398-4.771l-0.002-0.002z" />
<glyph unicode="&#xe05d;" glyph-name="arrows-counter-clockwise-thin" data-tags="arrows-counter-clockwise-thin" d="M319.2 545.2h-192c-8.837 0-16 7.163-16 16v0 192c0 8.837 7.163 16 16 16s16-7.163 16-16v0-153.6l108.4 108.8c66.745 66.417 158.778 107.474 260.4 107.474s193.655-41.057 260.415-107.489l-0.015 0.015c2.764-2.985 4.46-6.995 4.46-11.4s-1.696-8.415-4.47-11.411l0.010 0.011c-2.904-2.947-6.939-4.773-11.4-4.773s-8.496 1.826-11.398 4.771l-0.002 0.002c-60.893 60.619-144.87 98.094-237.6 98.094s-176.707-37.475-237.613-98.107l0.013 0.012-108.4-108.4h153.2c8.837 0 16-7.163 16-16s-7.163-16-16-16v0zM896.8 350.8h-192c-8.837 0-16-7.163-16-16s7.163-16 16-16v0h153.2l-108.4-108.4c-60.893-60.619-144.87-98.094-237.6-98.094s-176.707 37.475-237.613 98.107l0.013-0.012c-2.904 2.947-6.939 4.773-11.4 4.773s-8.496-1.826-11.398-4.771l-0.002-0.002c-2.764-2.985-4.46-6.995-4.46-11.4s1.696-8.415 4.47-11.411l-0.010 0.011c66.701-66.512 158.748-107.639 260.4-107.639s193.698 41.126 260.408 107.647l-0.008-0.008 108.4 108.8v-153.6c0-8.837 7.163-16 16-16s16 7.163 16 16v0 192c0 8.837-7.163 16-16 16v0z" />
<glyph unicode="&#xe05e;" glyph-name="arrows-down-up-thin" data-tags="arrows-down-up-thin" d="M459.2 267.2c2.925-2.839 4.741-6.807 4.741-11.2s-1.815-8.361-4.737-11.196l-128.004-128.004c-2.839-2.925-6.807-4.741-11.2-4.741s-8.361 1.815-11.196 4.737l-128.004 128.004c-1.998 2.641-3.2 5.98-3.2 9.6 0 8.837 7.163 16 16 16 3.62 0 6.959-1.202 9.64-3.229l-0.040 0.029 100.8-100.4v601.2c0 8.837 7.163 16 16 16s16-7.163 16-16v0-601.2l100.8 100.4c2.839 2.925 6.807 4.741 11.2 4.741s8.361-1.815 11.196-4.737l0.004-0.004zM843.2 651.2l-128 128c-2.839 2.925-6.807 4.741-11.2 4.741s-8.361-1.815-11.196-4.737l-128.004-128.004c-1.998-2.641-3.2-5.98-3.2-9.6 0-8.837 7.163-16 16-16 3.62 0 6.959 1.202 9.64 3.229l-0.040-0.029 100.8 100.4v-601.2c0-8.837 7.163-16 16-16s16 7.163 16 16v0 601.2l100.8-100.4c2.839-2.925 6.807-4.741 11.2-4.741s8.361 1.815 11.196 4.737l0.004 0.004c2.925 2.839 4.741 6.807 4.741 11.2s-1.815 8.361-4.737 11.196l-0.004 0.004z" />
<glyph unicode="&#xe05f;" glyph-name="arrows-horizontal-thin" data-tags="arrows-horizontal-thin" d="M939.2 436.8l-128-128c-2.839-2.925-6.807-4.741-11.2-4.741s-8.361 1.815-11.196 4.737l-0.004 0.004c-2.925 2.839-4.741 6.807-4.741 11.2s1.815 8.361 4.737 11.196l0.004 0.004 100.4 100.8h-754.4l100.4-100.8c2.925-2.839 4.741-6.807 4.741-11.2s-1.815-8.361-4.737-11.196l-0.004-0.004c-2.839-2.925-6.807-4.741-11.2-4.741s-8.361 1.815-11.196 4.737l-128.004 128.004c-2.925 2.839-4.741 6.807-4.741 11.2s1.815 8.361 4.737 11.196l128.004 128.004c2.641 1.998 5.98 3.2 9.6 3.2 8.837 0 16-7.163 16-16 0-3.62-1.202-6.959-3.229-9.64l0.029 0.040-100.4-100.8h754.4l-100.4 100.8c-1.998 2.641-3.2 5.98-3.2 9.6 0 8.837 7.163 16 16 16 3.62 0 6.959-1.202 9.64-3.229l-0.040 0.029 128-128c2.925-2.839 4.741-6.807 4.741-11.2s-1.815-8.361-4.737-11.196l-0.004-0.004z" />
<glyph unicode="&#xe060;" glyph-name="arrows-in-cardinal-thin" data-tags="arrows-in-cardinal-thin" d="M636.4 218c2.925-2.839 4.741-6.807 4.741-11.2s-1.815-8.361-4.737-11.196l-0.004-0.004c-2.831-2.947-6.799-4.783-11.197-4.8h-0.003c-0.034 0-0.074 0-0.114 0-4.368 0-8.306 1.842-11.078 4.792l-0.007 0.008-86 85.6v-249.2c0-8.837-7.163-16-16-16s-16 7.163-16 16v0 249.2l-86-85.6c-2.95-3.904-7.583-6.4-12.8-6.4-8.837 0-16 7.163-16 16 0 5.217 2.496 9.85 6.36 12.771l0.040 0.029 113.2 113.2c2.839 2.925 6.807 4.741 11.2 4.741s8.361-1.815 11.196-4.737l0.004-0.004zM500.8 564.8c2.839-2.925 6.807-4.741 11.2-4.741s8.361 1.815 11.196 4.737l113.204 113.204c3.904 2.95 6.4 7.583 6.4 12.8 0 8.837-7.163 16-16 16-5.217 0-9.85-2.496-12.771-6.36l-0.029-0.040-86-85.6v249.2c0 8.837-7.163 16-16 16s-16-7.163-16-16v0-249.2l-86 85.6c-2.641 1.998-5.98 3.2-9.6 3.2-8.837 0-16-7.163-16-16 0-3.62 1.202-6.959 3.229-9.64l-0.029 0.040zM395.2 459.2l-113.2 113.2c-2.641 1.998-5.98 3.2-9.6 3.2-8.837 0-16-7.163-16-16 0-3.62 1.202-6.959 3.229-9.64l-0.029 0.040 85.6-86h-249.2c-8.837 0-16-7.163-16-16s7.163-16 16-16v0h249.2l-85.6-86c-2.925-2.839-4.741-6.807-4.741-11.2s1.815-8.361 4.737-11.196l0.004-0.004c2.831-2.947 6.799-4.783 11.197-4.8h0.003c0.034 0 0.074 0 0.114 0 4.368 0 8.306 1.842 11.078 4.792l0.007 0.008 113.2 113.2c2.925 2.839 4.741 6.807 4.741 11.2s-1.815 8.361-4.737 11.196l-0.004 0.004zM928 464h-249.2l85.6 86c3.904 2.95 6.4 7.583 6.4 12.8 0 8.837-7.163 16-16 16-5.217 0-9.85-2.496-12.771-6.36l-0.029-0.040-113.2-113.2c-2.925-2.839-4.741-6.807-4.741-11.2s1.815-8.361 4.737-11.196l113.204-113.204c2.78-2.958 6.718-4.8 11.086-4.8 0.040 0 0.080 0 0.121 0h-0.006c4.401 0.017 8.369 1.853 11.195 4.795l0.005 0.005c2.925 2.839 4.741 6.807 4.741 11.2s-1.815 8.361-4.737 11.196l-0.004 0.004-85.6 86h249.2c8.837 0 16 7.163 16 16s-7.163 16-16 16v0z" />
<glyph unicode="&#xe061;" glyph-name="arrows-in-line-horizontal-thin" data-tags="arrows-in-line-horizontal-thin" d="M528 800v-704c0-8.837-7.163-16-16-16s-16 7.163-16 16v0 704c0 8.837 7.163 16 16 16s16-7.163 16-16v0zM267.2 587.2c-2.641 1.998-5.98 3.2-9.6 3.2-8.837 0-16-7.163-16-16 0-3.62 1.202-6.959 3.229-9.64l-0.029 0.040 100.4-100.8h-281.2c-8.837 0-16-7.163-16-16s7.163-16 16-16v0h281.2l-100.4-100.8c-2.925-2.839-4.741-6.807-4.741-11.2s1.815-8.361 4.737-11.196l0.004-0.004c2.839-2.925 6.807-4.741 11.2-4.741s8.361 1.815 11.196 4.737l128.004 128.004c2.925 2.839 4.741 6.807 4.741 11.2s-1.815 8.361-4.737 11.196l-0.004 0.004zM960 464h-281.2l100.4 100.8c3.904 2.95 6.4 7.583 6.4 12.8 0 8.837-7.163 16-16 16-5.217 0-9.85-2.496-12.771-6.36l-0.029-0.040-128-128c-2.925-2.839-4.741-6.807-4.741-11.2s1.815-8.361 4.737-11.196l128.004-128.004c2.839-2.925 6.807-4.741 11.2-4.741s8.361 1.815 11.196 4.737l0.004 0.004c2.925 2.839 4.741 6.807 4.741 11.2s-1.815 8.361-4.737 11.196l-0.004 0.004-100.4 100.8h281.2c8.837 0 16 7.163 16 16s-7.163 16-16 16v0z" />
<glyph unicode="&#xe062;" glyph-name="arrows-in-line-vertical-thin" data-tags="arrows-in-line-vertical-thin" d="M880 448c0-8.837-7.163-16-16-16v0h-704c-8.837 0-16 7.163-16 16s7.163 16 16 16v0h704c8.837 0 16-7.163 16-16v0zM500.8 564.8c2.839-2.925 6.807-4.741 11.2-4.741s8.361 1.815 11.196 4.737l128.004 128.004c3.904 2.95 6.4 7.583 6.4 12.8 0 8.837-7.163 16-16 16-5.217 0-9.85-2.496-12.771-6.36l-0.029-0.040-100.8-100.4v281.2c0 8.837-7.163 16-16 16s-16-7.163-16-16v0-281.2l-100.8 100.4c-2.641 1.998-5.98 3.2-9.6 3.2-8.837 0-16-7.163-16-16 0-3.62 1.202-6.959 3.229-9.64l-0.029 0.040zM523.2 331.2c-2.839 2.925-6.807 4.741-11.2 4.741s-8.361-1.815-11.196-4.737l-128.004-128.004c-1.998-2.641-3.2-5.98-3.2-9.6 0-8.837 7.163-16 16-16 3.62 0 6.959 1.202 9.64 3.229l-0.040-0.029 100.8 100.4v-281.2c0-8.837 7.163-16 16-16s16 7.163 16 16v0 281.2l100.8-100.4c2.839-2.925 6.807-4.741 11.2-4.741s8.361 1.815 11.196 4.737l0.004 0.004c2.925 2.839 4.741 6.807 4.741 11.2s-1.815 8.361-4.737 11.196l-0.004 0.004z" />
<glyph unicode="&#xe063;" glyph-name="arrows-in-simple-thin" data-tags="arrows-in-simple-thin" d="M843.2 756.8l-196.4-196.8h153.2c8.837 0 16-7.163 16-16s-7.163-16-16-16v0h-192c-8.837 0-16 7.163-16 16v0 192c0 8.837 7.163 16 16 16s16-7.163 16-16v0-153.2l196.8 196.4c2.95 3.904 7.583 6.4 12.8 6.4 8.837 0 16-7.163 16-16 0-5.217-2.496-9.85-6.36-12.771l-0.040-0.029zM416 368h-192c-8.837 0-16-7.163-16-16s7.163-16 16-16v0h153.2l-196.4-196.8c-2.925-2.839-4.741-6.807-4.741-11.2s1.815-8.361 4.737-11.196l0.004-0.004c2.839-2.925 6.807-4.741 11.2-4.741s8.361 1.815 11.196 4.737l0.004 0.004 196.8 196.4v-153.2c0-8.837 7.163-16 16-16s16 7.163 16 16v0 192c0 8.837-7.163 16-16 16v0z" />
<glyph unicode="&#xe064;" glyph-name="arrows-in-thin" data-tags="arrows-in-thin" d="M592 544v160c0 8.837 7.163 16 16 16s16-7.163 16-16v0-121.2l196.8 196.4c2.95 3.904 7.583 6.4 12.8 6.4 8.837 0 16-7.163 16-16 0-5.217-2.496-9.85-6.36-12.771l-0.040-0.029-196.4-196.8h121.2c8.837 0 16-7.163 16-16s-7.163-16-16-16v0h-160c-8.837 0-16 7.163-16 16v0zM416 368h-160c-8.837 0-16-7.163-16-16s7.163-16 16-16v0h121.2l-196.4-196.8c-2.925-2.839-4.741-6.807-4.741-11.2s1.815-8.361 4.737-11.196l0.004-0.004c2.839-2.925 6.807-4.741 11.2-4.741s8.361 1.815 11.196 4.737l0.004 0.004 196.8 196.4v-121.2c0-8.837 7.163-16 16-16s16 7.163 16 16v0 160c0 8.837-7.163 16-16 16v0zM646.8 336h121.2c8.837 0 16 7.163 16 16s-7.163 16-16 16v0h-160c-8.837 0-16-7.163-16-16v0-160c0-8.837 7.163-16 16-16s16 7.163 16 16v0 121.2l196.8-196.4c2.839-2.925 6.807-4.741 11.2-4.741s8.361 1.815 11.196 4.737l0.004 0.004c2.925 2.839 4.741 6.807 4.741 11.2s-1.815 8.361-4.737 11.196l-0.004 0.004zM416 720c-8.837 0-16-7.163-16-16v0-121.2l-196.8 196.4c-2.641 1.998-5.98 3.2-9.6 3.2-8.837 0-16-7.163-16-16 0-3.62 1.202-6.959 3.229-9.64l-0.029 0.040 196.4-196.8h-121.2c-8.837 0-16-7.163-16-16s7.163-16 16-16v0h160c8.837 0 16 7.163 16 16v0 160c0 8.837-7.163 16-16 16v0z" />
<glyph unicode="&#xe065;" glyph-name="arrows-left-right-thin" data-tags="arrows-left-right-thin" d="M843.2 267.2c2.925-2.839 4.741-6.807 4.741-11.2s-1.815-8.361-4.737-11.196l-128.004-128.004c-2.839-2.925-6.807-4.741-11.2-4.741s-8.361 1.815-11.196 4.737l-0.004 0.004c-2.925 2.839-4.741 6.807-4.741 11.2s1.815 8.361 4.737 11.196l0.004 0.004 100.4 100.8h-601.2c-8.837 0-16 7.163-16 16s7.163 16 16 16v0h601.2l-100.4 100.8c-1.998 2.641-3.2 5.98-3.2 9.6 0 8.837 7.163 16 16 16 3.62 0 6.959-1.202 9.64-3.229l-0.040 0.029zM308.8 500.8c2.839-2.925 6.807-4.741 11.2-4.741s8.361 1.815 11.196 4.737l0.004 0.004c2.925 2.839 4.741 6.807 4.741 11.2s-1.815 8.361-4.737 11.196l-0.004 0.004-100.4 100.8h601.2c8.837 0 16 7.163 16 16s-7.163 16-16 16v0h-601.2l100.4 100.8c1.998 2.641 3.2 5.98 3.2 9.6 0 8.837-7.163 16-16 16-3.62 0-6.959-1.202-9.64-3.229l0.040 0.029-128-128c-2.925-2.839-4.741-6.807-4.741-11.2s1.815-8.361 4.737-11.196l0.004-0.004z" />
<glyph unicode="&#xe066;" glyph-name="arrows-out-cardinal-thin" data-tags="arrows-out-cardinal-thin" d="M636.4 156.4c2.925-2.839 4.741-6.807 4.741-11.2s-1.815-8.361-4.737-11.196l-113.204-113.204c-2.839-2.925-6.807-4.741-11.2-4.741s-8.361 1.815-11.196 4.737l-113.204 113.204c-3.904 2.95-6.4 7.583-6.4 12.8 0 8.837 7.163 16 16 16 5.217 0 9.85-2.496 12.771-6.36l0.029-0.040 86-85.6v249.2c0 8.837 7.163 16 16 16s16-7.163 16-16v0-249.2l86 85.6c2.839 2.925 6.807 4.741 11.2 4.741s8.361-1.815 11.196-4.737l0.004-0.004zM410 739.6l86 85.6v-249.2c0-8.837 7.163-16 16-16s16 7.163 16 16v0 249.2l86-85.6c2.78-2.958 6.718-4.8 11.086-4.8 0.040 0 0.080 0 0.121 0h-0.006c4.401 0.017 8.369 1.853 11.195 4.795l0.005 0.005c2.925 2.839 4.741 6.807 4.741 11.2s-1.815 8.361-4.737 11.196l-113.204 113.204c-2.839 2.925-6.807 4.741-11.2 4.741s-8.361-1.815-11.196-4.737l-113.204-113.204c-1.998-2.641-3.2-5.98-3.2-9.6 0-8.837 7.163-16 16-16 3.62 0 6.959 1.202 9.64 3.229l-0.040-0.029zM134.8 432h249.2c8.837 0 16 7.163 16 16s-7.163 16-16 16v0h-249.2l85.6 86c1.998 2.641 3.2 5.98 3.2 9.6 0 8.837-7.163 16-16 16-3.62 0-6.959-1.202-9.64-3.229l0.040 0.029-113.2-113.2c-2.925-2.839-4.741-6.807-4.741-11.2s1.815-8.361 4.737-11.196l113.204-113.204c2.78-2.958 6.718-4.8 11.086-4.8 0.040 0 0.080 0 0.121 0h-0.006c4.401 0.017 8.369 1.853 11.195 4.795l0.005 0.005c2.925 2.839 4.741 6.807 4.741 11.2s-1.815 8.361-4.737 11.196l-0.004 0.004zM939.2 459.2l-113.2 113.2c-2.95 3.904-7.583 6.4-12.8 6.4-8.837 0-16-7.163-16-16 0-5.217 2.496-9.85 6.36-12.771l0.040-0.029 85.6-86h-249.2c-8.837 0-16-7.163-16-16s7.163-16 16-16v0h249.2l-85.6-86c-2.925-2.839-4.741-6.807-4.741-11.2s1.815-8.361 4.737-11.196l0.004-0.004c2.831-2.947 6.799-4.783 11.197-4.8h0.003c0.034 0 0.074 0 0.114 0 4.368 0 8.306 1.842 11.078 4.792l0.007 0.008 113.2 113.2c2.925 2.839 4.741 6.807 4.741 11.2s-1.815 8.361-4.737 11.196l-0.004 0.004z" />
<glyph unicode="&#xe067;" glyph-name="arrows-out-line-horizontal-thin" data-tags="arrows-out-line-horizontal-thin" d="M528 800v-704c0-8.837-7.163-16-16-16s-16 7.163-16 16v0 704c0 8.837 7.163 16 16 16s16-7.163 16-16v0zM384 464h-281.2l100.4 100.8c1.998 2.641 3.2 5.98 3.2 9.6 0 8.837-7.163 16-16 16-3.62 0-6.959-1.202-9.64-3.229l0.040 0.029-128-128c-2.925-2.839-4.741-6.807-4.741-11.2s1.815-8.361 4.737-11.196l128.004-128.004c2.839-2.925 6.807-4.741 11.2-4.741s8.361 1.815 11.196 4.737l0.004 0.004c2.925 2.839 4.741 6.807 4.741 11.2s-1.815 8.361-4.737 11.196l-0.004 0.004-100.4 100.8h281.2c8.837 0 16 7.163 16 16s-7.163 16-16 16v0zM971.2 459.2l-128 128c-2.641 1.998-5.98 3.2-9.6 3.2-8.837 0-16-7.163-16-16 0-3.62 1.202-6.959 3.229-9.64l-0.029 0.040 100.4-100.8h-281.2c-8.837 0-16-7.163-16-16s7.163-16 16-16v0h281.2l-100.4-100.8c-2.925-2.839-4.741-6.807-4.741-11.2s1.815-8.361 4.737-11.196l0.004-0.004c2.839-2.925 6.807-4.741 11.2-4.741s8.361 1.815 11.196 4.737l128.004 128.004c2.925 2.839 4.741 6.807 4.741 11.2s-1.815 8.361-4.737 11.196l-0.004 0.004z" />
<glyph unicode="&#xe068;" glyph-name="arrows-out-line-vertical-thin" data-tags="arrows-out-line-vertical-thin" d="M880 448c0-8.837-7.163-16-16-16v0h-704c-8.837 0-16 7.163-16 16s7.163 16 16 16v0h704c8.837 0 16-7.163 16-16v0zM395.2 756.8l100.8 100.4v-281.2c0-8.837 7.163-16 16-16s16 7.163 16 16v0 281.2l100.8-100.4c2.839-2.925 6.807-4.741 11.2-4.741s8.361 1.815 11.196 4.737l0.004 0.004c2.925 2.839 4.741 6.807 4.741 11.2s-1.815 8.361-4.737 11.196l-128.004 128.004c-2.839 2.925-6.807 4.741-11.2 4.741s-8.361-1.815-11.196-4.737l-128.004-128.004c-1.998-2.641-3.2-5.98-3.2-9.6 0-8.837 7.163-16 16-16 3.62 0 6.959 1.202 9.64 3.229l-0.040-0.029zM628.8 139.2l-100.8-100.4v281.2c0 8.837-7.163 16-16 16s-16-7.163-16-16v0-281.2l-100.8 100.4c-2.641 1.998-5.98 3.2-9.6 3.2-8.837 0-16-7.163-16-16 0-3.62 1.202-6.959 3.229-9.64l-0.029 0.040 128-128c2.839-2.925 6.807-4.741 11.2-4.741s8.361 1.815 11.196 4.737l128.004 128.004c1.998 2.641 3.2 5.98 3.2 9.6 0 8.837-7.163 16-16 16-3.62 0-6.959-1.202-9.64-3.229l0.040 0.029z" />
<glyph unicode="&#xe069;" glyph-name="arrows-out-simple-thin" data-tags="arrows-out-simple-thin" d="M848 768v-192c0-8.837-7.163-16-16-16s-16 7.163-16 16v0 153.2l-196.8-196.4c-2.839-2.925-6.807-4.741-11.2-4.741s-8.361 1.815-11.196 4.737l-0.004 0.004c-2.925 2.839-4.741 6.807-4.741 11.2s1.815 8.361 4.737 11.196l0.004 0.004 196.4 196.8h-153.2c-8.837 0-16 7.163-16 16s7.163 16 16 16v0h192c8.837 0 16-7.163 16-16v0zM404.8 363.2l-196.8-196.4v153.2c0 8.837-7.163 16-16 16s-16-7.163-16-16v0-192c0-8.837 7.163-16 16-16v0h192c8.837 0 16 7.163 16 16s-7.163 16-16 16v0h-153.2l196.4 196.8c1.998 2.641 3.2 5.98 3.2 9.6 0 8.837-7.163 16-16 16-3.62 0-6.959-1.202-9.64-3.229l0.040 0.029z" />
<glyph unicode="&#xe06a;" glyph-name="arrows-out-thin" data-tags="arrows-out-thin" d="M848 768v-160c0-8.837-7.163-16-16-16s-16 7.163-16 16v0 121.2l-196.8-196.4c-2.839-2.925-6.807-4.741-11.2-4.741s-8.361 1.815-11.196 4.737l-0.004 0.004c-2.925 2.839-4.741 6.807-4.741 11.2s1.815 8.361 4.737 11.196l0.004 0.004 196.4 196.8h-121.2c-8.837 0-16 7.163-16 16s7.163 16 16 16v0h160c8.837 0 16-7.163 16-16v0zM404.8 363.2l-196.8-196.4v121.2c0 8.837-7.163 16-16 16s-16-7.163-16-16v0-160c0-8.837 7.163-16 16-16v0h160c8.837 0 16 7.163 16 16s-7.163 16-16 16v0h-121.2l196.4 196.8c1.998 2.641 3.2 5.98 3.2 9.6 0 8.837-7.163 16-16 16-3.62 0-6.959-1.202-9.64-3.229l0.040 0.029zM832 304c-8.837 0-16-7.163-16-16v0-121.2l-196.8 196.4c-2.641 1.998-5.98 3.2-9.6 3.2-8.837 0-16-7.163-16-16 0-3.62 1.202-6.959 3.229-9.64l-0.029 0.040 196.4-196.8h-121.2c-8.837 0-16-7.163-16-16s7.163-16 16-16v0h160c8.837 0 16 7.163 16 16v0 160c0 8.837-7.163 16-16 16v0zM230.8 752h121.2c8.837 0 16 7.163 16 16s-7.163 16-16 16v0h-160c-8.837 0-16-7.163-16-16v0-160c0-8.837 7.163-16 16-16s16 7.163 16 16v0 121.2l196.8-196.4c2.839-2.925 6.807-4.741 11.2-4.741s8.361 1.815 11.196 4.737l0.004 0.004c2.925 2.839 4.741 6.807 4.741 11.2s-1.815 8.361-4.737 11.196l-0.004 0.004z" />
<glyph unicode="&#xe06b;" glyph-name="arrow-square-down-left-thin" data-tags="arrow-square-down-left-thin" d="M832 816h-640c-26.51 0-48-21.49-48-48v0-640c0-26.51 21.49-48 48-48v0h640c26.51 0 48 21.49 48 48v0 640c0 26.51-21.49 48-48 48v0zM848 128c0-8.837-7.163-16-16-16v0h-640c-8.837 0-16 7.163-16 16v0 640c0 8.837 7.163 16 16 16v0h640c8.837 0 16-7.163 16-16v0zM635.2 571.2c2.925-2.839 4.741-6.807 4.741-11.2s-1.815-8.361-4.737-11.196l-0.004-0.004-196.4-196.8h153.2c8.837 0 16-7.163 16-16s-7.163-16-16-16v0h-192c-8.837 0-16 7.163-16 16v0 192c0 8.837 7.163 16 16 16s16-7.163 16-16v0-153.2l196.8 196.4c2.839 2.925 6.807 4.741 11.2 4.741s8.361-1.815 11.196-4.737l0.004-0.004z" />
<glyph unicode="&#xe06c;" glyph-name="arrow-square-down-right-thin" data-tags="arrow-square-down-right-thin" d="M832 816h-640c-26.51 0-48-21.49-48-48v0-640c0-26.51 21.49-48 48-48v0h640c26.51 0 48 21.49 48 48v0 640c0 26.51-21.49 48-48 48v0zM848 128c0-8.837-7.163-16-16-16v0h-640c-8.837 0-16 7.163-16 16v0 640c0 8.837 7.163 16 16 16v0h640c8.837 0 16-7.163 16-16v0zM640 528v-192c0-8.837-7.163-16-16-16v0h-192c-8.837 0-16 7.163-16 16s7.163 16 16 16v0h153.2l-196.4 196.8c-1.998 2.641-3.2 5.98-3.2 9.6 0 8.837 7.163 16 16 16 3.62 0 6.959-1.202 9.64-3.229l-0.040 0.029 196.8-196.4v153.2c0 8.837 7.163 16 16 16s16-7.163 16-16v0z" />
<glyph unicode="&#xe06d;" glyph-name="arrow-square-down-thin" data-tags="arrow-square-down-thin" d="M832 816h-640c-26.51 0-48-21.49-48-48v0-640c0-26.51 21.49-48 48-48v0h640c26.51 0 48 21.49 48 48v0 640c0 26.51-21.49 48-48 48v0zM848 128c0-8.837-7.163-16-16-16v0h-640c-8.837 0-16 7.163-16 16v0 640c0 8.837 7.163 16 16 16v0h640c8.837 0 16-7.163 16-16v0zM659.2 435.2c2.764-2.985 4.46-6.995 4.46-11.4s-1.696-8.415-4.47-11.411l0.010 0.011-136-135.6c-2.839-2.925-6.807-4.741-11.2-4.741s-8.361 1.815-11.196 4.737l-0.004 0.004-136 135.6c-2.918 2.918-4.722 6.948-4.722 11.4 0 8.904 7.218 16.122 16.122 16.122 4.452 0 8.482-1.805 11.4-4.722l108.4-108.4v281.2c0 8.837 7.163 16 16 16s16-7.163 16-16v0-281.2l108.4 108.4c2.985 2.764 6.995 4.46 11.4 4.46s8.415-1.696 11.411-4.47l-0.011 0.010z" />
<glyph unicode="&#xe06e;" glyph-name="arrow-square-in-thin" data-tags="arrow-square-in-thin" d="M464 384v-240c0-8.837-7.163-16-16-16s-16 7.163-16 16v0 201.2l-260.8-260.8c-2.962-2.668-6.88-4.324-11.185-4.4h-0.015c-4.458 0.011-8.524 1.677-11.619 4.416l0.019-0.016c-2.764 2.985-4.46 6.995-4.46 11.4s1.696 8.415 4.47 11.411l-0.010-0.011 260.8 260.8h-201.2c-8.837 0-16 7.163-16 16s7.163 16 16 16v0h240c8.837 0 16-7.163 16-16v0zM832 816h-544c-26.51 0-48-21.49-48-48v0-192c0-8.837 7.163-16 16-16s16 7.163 16 16v0 192c0 8.837 7.163 16 16 16v0h544c8.837 0 16-7.163 16-16v0-544c0-8.837-7.163-16-16-16v0h-192c-8.837 0-16-7.163-16-16s7.163-16 16-16v0h192c26.51 0 48 21.49 48 48v0 544c0 26.51-21.49 48-48 48v0z" />
<glyph unicode="&#xe06f;" glyph-name="arrow-square-left-thin" data-tags="arrow-square-left-thin" d="M832 816h-640c-26.51 0-48-21.49-48-48v0-640c0-26.51 21.49-48 48-48v0h640c26.51 0 48 21.49 48 48v0 640c0 26.51-21.49 48-48 48v0zM848 128c0-8.837-7.163-16-16-16v0h-640c-8.837 0-16 7.163-16 16v0 640c0 8.837 7.163 16 16 16v0h640c8.837 0 16-7.163 16-16v0zM688 448c0-8.837-7.163-16-16-16v0h-281.2l108.4-108.4c2.764-2.985 4.46-6.995 4.46-11.4s-1.696-8.415-4.47-11.411l0.010 0.011c-2.807-2.732-6.645-4.417-10.876-4.417-0.255 0-0.508 0.006-0.759 0.018l0.036-0.001c-0.148-0.005-0.322-0.008-0.496-0.008-4.176 0-7.958 1.684-10.705 4.409l0.001-0.001-135.6 136c-2.925 2.839-4.741 6.807-4.741 11.2s1.815 8.361 4.737 11.196l0.004 0.004 135.6 136c2.918 2.918 6.948 4.722 11.4 4.722 8.904 0 16.122-7.218 16.122-16.122 0-4.452-1.805-8.482-4.722-11.4v0l-108.4-108.4h281.2c8.837 0 16-7.163 16-16v0z" />
<glyph unicode="&#xe070;" glyph-name="arrow-square-out-thin" data-tags="arrow-square-out-thin" d="M880 560c0-8.837-7.163-16-16-16s-16 7.163-16 16v0 201.2l-260.8-260.8c-2.962-2.668-6.88-4.324-11.185-4.4h-0.015c-4.458 0.011-8.524 1.677-11.619 4.416l0.019-0.016c-2.764 2.985-4.46 6.995-4.46 11.4s1.696 8.415 4.47 11.411l-0.010-0.011 260.8 260.8h-201.2c-8.837 0-16 7.163-16 16s7.163 16 16 16v0h240c8.837 0 16-7.163 16-16v0zM736 400c-8.837 0-16-7.163-16-16v0-256c0-8.837-7.163-16-16-16v0h-512c-8.837 0-16 7.163-16 16v0 512c0 8.837 7.163 16 16 16v0h256c8.837 0 16 7.163 16 16s-7.163 16-16 16v0h-256c-26.51 0-48-21.49-48-48v0-512c0-26.51 21.49-48 48-48v0h512c26.51 0 48 21.49 48 48v0 256c0 8.837-7.163 16-16 16v0z" />
<glyph unicode="&#xe071;" glyph-name="arrow-square-right-thin" data-tags="arrow-square-right-thin" d="M832 816h-640c-26.51 0-48-21.49-48-48v0-640c0-26.51 21.49-48 48-48v0h640c26.51 0 48 21.49 48 48v0 640c0 26.51-21.49 48-48 48v0zM848 128c0-8.837-7.163-16-16-16v0h-640c-8.837 0-16 7.163-16 16v0 640c0 8.837 7.163 16 16 16v0h640c8.837 0 16-7.163 16-16v0zM683.2 459.2c2.925-2.839 4.741-6.807 4.741-11.2s-1.815-8.361-4.737-11.196l-0.004-0.004-135.6-136c-2.746-2.724-6.528-4.408-10.704-4.408-0.174 0-0.348 0.003-0.521 0.009l0.025-0.001c-0.216-0.011-0.469-0.017-0.724-0.017-4.232 0-8.070 1.685-10.88 4.42l0.004-0.003c-2.764 2.985-4.46 6.995-4.46 11.4s1.696 8.415 4.47 11.411l-0.010-0.011 108.4 108.4h-281.2c-8.837 0-16 7.163-16 16s7.163 16 16 16v0h281.2l-108.4 108.4c-2.918 2.918-4.722 6.948-4.722 11.4 0 8.904 7.218 16.122 16.122 16.122 4.452 0 8.482-1.805 11.4-4.722v0z" />
<glyph unicode="&#xe072;" glyph-name="arrow-square-up-left-thin" data-tags="arrow-square-up-left-thin" d="M832 816h-640c-26.51 0-48-21.49-48-48v0-640c0-26.51 21.49-48 48-48v0h640c26.51 0 48 21.49 48 48v0 640c0 26.51-21.49 48-48 48v0zM848 128c0-8.837-7.163-16-16-16v0h-640c-8.837 0-16 7.163-16 16v0 640c0 8.837 7.163 16 16 16v0h640c8.837 0 16-7.163 16-16v0zM635.2 347.2c2.925-2.839 4.741-6.807 4.741-11.2s-1.815-8.361-4.737-11.196l-0.004-0.004c-2.839-2.925-6.807-4.741-11.2-4.741s-8.361 1.815-11.196 4.737l-0.004 0.004-196.8 196.4v-153.2c0-8.837-7.163-16-16-16s-16 7.163-16 16v0 192c0 8.837 7.163 16 16 16v0h192c8.837 0 16-7.163 16-16s-7.163-16-16-16v0h-153.2z" />
<glyph unicode="&#xe073;" glyph-name="arrow-square-up-right-thin" data-tags="arrow-square-up-right-thin" d="M832 816h-640c-26.51 0-48-21.49-48-48v0-640c0-26.51 21.49-48 48-48v0h640c26.51 0 48 21.49 48 48v0 640c0 26.51-21.49 48-48 48v0zM848 128c0-8.837-7.163-16-16-16v0h-640c-8.837 0-16 7.163-16 16v0 640c0 8.837 7.163 16 16 16v0h640c8.837 0 16-7.163 16-16v0zM640 560v-192c0-8.837-7.163-16-16-16s-16 7.163-16 16v0 153.2l-196.8-196.4c-2.839-2.925-6.807-4.741-11.2-4.741s-8.361 1.815-11.196 4.737l-0.004 0.004c-2.925 2.839-4.741 6.807-4.741 11.2s1.815 8.361 4.737 11.196l0.004 0.004 196.4 196.8h-153.2c-8.837 0-16 7.163-16 16s7.163 16 16 16v0h192c8.837 0 16-7.163 16-16v0z" />
<glyph unicode="&#xe074;" glyph-name="arrow-square-up-thin" data-tags="arrow-square-up-thin" d="M832 816h-640c-26.51 0-48-21.49-48-48v0-640c0-26.51 21.49-48 48-48v0h640c26.51 0 48 21.49 48 48v0 640c0 26.51-21.49 48-48 48v0zM848 128c0-8.837-7.163-16-16-16v0h-640c-8.837 0-16 7.163-16 16v0 640c0 8.837 7.163 16 16 16v0h640c8.837 0 16-7.163 16-16v0zM659.2 483.6c2.764-2.985 4.46-6.995 4.46-11.4s-1.696-8.415-4.47-11.411l0.010 0.011c-2.807-2.732-6.645-4.417-10.876-4.417-0.255 0-0.508 0.006-0.759 0.018l0.036-0.001c-0.148-0.005-0.322-0.008-0.496-0.008-4.176 0-7.958 1.684-10.705 4.409l-108.399 108.399v-281.2c0-8.837-7.163-16-16-16s-16 7.163-16 16v0 281.2l-108.4-108.4c-2.918-2.918-6.948-4.722-11.4-4.722-8.904 0-16.122 7.218-16.122 16.122 0 4.452 1.805 8.482 4.722 11.4v0l136 135.6c2.839 2.925 6.807 4.741 11.2 4.741s8.361-1.815 11.196-4.737l0.004-0.004z" />
<glyph unicode="&#xe075;" glyph-name="arrows-vertical-thin" data-tags="arrows-vertical-thin" d="M651.2 171.2c2.925-2.839 4.741-6.807 4.741-11.2s-1.815-8.361-4.737-11.196l-128.004-128.004c-2.839-2.925-6.807-4.741-11.2-4.741s-8.361 1.815-11.196 4.737l-128.004 128.004c-1.998 2.641-3.2 5.98-3.2 9.6 0 8.837 7.163 16 16 16 3.62 0 6.959-1.202 9.64-3.229l-0.040 0.029 100.8-100.4v754.4l-100.8-100.4c-2.641-1.998-5.98-3.2-9.6-3.2-8.837 0-16 7.163-16 16 0 3.62 1.202 6.959 3.229 9.64l-0.029-0.040 128 128c2.839 2.925 6.807 4.741 11.2 4.741s8.361-1.815 11.196-4.737l128.004-128.004c2.925-2.839 4.741-6.807 4.741-11.2s-1.815-8.361-4.737-11.196l-0.004-0.004c-2.839-2.925-6.807-4.741-11.2-4.741s-8.361 1.815-11.196 4.737l-0.004 0.004-100.8 100.4v-754.4l100.8 100.4c2.839 2.925 6.807 4.741 11.2 4.741s8.361-1.815 11.196-4.737l0.004-0.004z" />
<glyph unicode="&#xe076;" glyph-name="arrow-u-down-left-thin" data-tags="arrow-u-down-left-thin" d="M912 512c0-132.548-107.452-240-240-240v0h-505.2l164.4-164.8c2.925-2.839 4.741-6.807 4.741-11.2s-1.815-8.361-4.737-11.196l-0.004-0.004c-2.839-2.925-6.807-4.741-11.2-4.741s-8.361 1.815-11.196 4.737l-192.004 192.004c-2.925 2.839-4.741 6.807-4.741 11.2s1.815 8.361 4.737 11.196l192.004 192.004c2.641 1.998 5.98 3.2 9.6 3.2 8.837 0 16-7.163 16-16 0-3.62-1.202-6.959-3.229-9.64l0.029 0.040-164.4-164.8h505.2c114.875 0 208 93.125 208 208s-93.125 208-208 208v0h-352c-8.837 0-16 7.163-16 16s7.163 16 16 16v0h352c132.548 0 240-107.452 240-240v0z" />
<glyph unicode="&#xe077;" glyph-name="arrow-u-down-right-thin" data-tags="arrow-u-down-right-thin" d="M907.2 276.8l-192-192c-2.839-2.925-6.807-4.741-11.2-4.741s-8.361 1.815-11.196 4.737l-0.004 0.004c-2.925 2.839-4.741 6.807-4.741 11.2s1.815 8.361 4.737 11.196l0.004 0.004 164.4 164.8h-505.2c-132.548 0-240 107.452-240 240s107.452 240 240 240v0h352c8.837 0 16-7.163 16-16s-7.163-16-16-16v0h-352c-114.875 0-208-93.125-208-208s93.125-208 208-208v0h505.2l-164.4 164.8c-1.998 2.641-3.2 5.98-3.2 9.6 0 8.837 7.163 16 16 16 3.62 0 6.959-1.202 9.64-3.229l-0.040 0.029 192-192c2.925-2.839 4.741-6.807 4.741-11.2s-1.815-8.361-4.737-11.196l-0.004-0.004z" />
</font>
</defs>
</svg>
