<svg id="Flat" xmlns="http://www.w3.org/2000/svg" viewBox="0 0 256 256">
  <path d="M160.00537,220c-.20019,0-.39941-.00488-.60058-.01465a12.00024,12.00024,0,0,1-10.61622-7.71338L95.02686,71.14648l-28.09961,61.8191A12.00031,12.00031,0,0,1,56.00244,140h-32a12,12,0,0,1,0-24H48.27588L85.07764,35.03442a12.00028,12.00028,0,0,1,22.13867.69361l54.27246,142.46582L189.269,122.63354A12.00144,12.00144,0,0,1,200.00244,116h32a12,12,0,0,1,0,24h-24.584l-36.68262,73.3667A12.00134,12.00134,0,0,1,160.00537,220Z"/>
</svg>
