<svg xmlns="http://www.w3.org/2000/svg" viewBox="0 0 256 256"><path d="M208,20H64A20.1,20.1,0,0,0,44,40V56H32a12,12,0,0,0,0,24H44V96H32a12,12,0,0,0,0,24H44v16H32a12,12,0,0,0,0,24H44v16H32a12,12,0,0,0,0,24H44v16a20.1,20.1,0,0,0,20,20H208a20.1,20.1,0,0,0,20-20V40A20.1,20.1,0,0,0,208,20Zm-4,192H68V44H204ZM100.8,175.4a47.9,47.9,0,0,1,70.4,0A12,12,0,0,0,188.8,159a73.4,73.4,0,0,0-19.2-14.6,44,44,0,1,0-67.2,0A73.4,73.4,0,0,0,83.2,159a12,12,0,0,0,17.6,16.4ZM116,116a20,20,0,1,1,20,20A20.1,20.1,0,0,1,116,116Z"/></svg>