<svg xmlns="http://www.w3.org/2000/svg" viewBox="0 0 256 256"><path d="M237.6,125.3,164.2,88.6V48a36,36,0,0,0-72,0V88.6L18.6,125.3A12.1,12.1,0,0,0,12,136v32a12,12,0,0,0,14.4,11.8L92,166.6V179L79.5,191.5A12.3,12.3,0,0,0,76,200v32a12,12,0,0,0,16.5,11.1L128,228.9l35.5,14.2a12,12,0,0,0,4.5.9,11.6,11.6,0,0,0,6.7-2.1A11.9,11.9,0,0,0,180,232V200a11.5,11.5,0,0,0-3.5-8.4l-12.3-12.5V166.6l65.7,13.2a11.8,11.8,0,0,0,9.9-2.5,12,12,0,0,0,4.4-9.3V136A11.9,11.9,0,0,0,237.6,125.3Zm-17.4,28.1-65.6-13.2A12,12,0,0,0,140.2,152v32a11.9,11.9,0,0,0,3.5,8.4L156,204.9v9.4l-23.5-9.4a11.7,11.7,0,0,0-9,0L100,214.3V205l12.5-12.5A12.3,12.3,0,0,0,116,184V152a12,12,0,0,0-14.4-11.8L36,153.4v-10l73.4-36.7A11.9,11.9,0,0,0,116,96V48a12,12,0,0,1,24,0V96a11.9,11.9,0,0,0,6.7,10.7l73.3,36.7Z"/></svg>