<svg xmlns="http://www.w3.org/2000/svg" viewBox="0 0 256 256"><path d="M190,115.3l27.9-26.1,1.7-2.1a36,36,0,0,0-53.1-48.6L165.3,40,140.7,66,60.1,36.7a12,12,0,0,0-12.6,2.8l-24,24A12.2,12.2,0,0,0,25.3,82l59.9,39.9L75,132H56a12.3,12.3,0,0,0-8.5,3.5l-24,24a12,12,0,0,0,4.7,19.9l36.1,12.2,12.3,36.3a12.2,12.2,0,0,0,8.7,7.8,12.4,12.4,0,0,0,2.7.3,12,12,0,0,0,8.5-3.5l24-24A12.3,12.3,0,0,0,124,200V181.3l10.1-9.1,40,58.6a12.1,12.1,0,0,0,18.4,1.7l24-24a12,12,0,0,0,2.8-12.6Zm-4.3,90-39.6-58a12.1,12.1,0,0,0-8.5-5.2h-1.4a12,12,0,0,0-8.1,3.1l-24.2,22A12,12,0,0,0,100,176v19l-6.8,6.9-8-23.6a12.1,12.1,0,0,0-7.5-7.5l-23.6-8L61,156H80a12.3,12.3,0,0,0,8.5-3.5l24-24a12.2,12.2,0,0,0-1.8-18.5L50.8,70.1l8.3-8.2,80.8,29.4a12,12,0,0,0,12.8-3.1l31.7-33.5c.1,0,.1,0,.1-.1a12.2,12.2,0,0,1,16,.9,12,12,0,0,1,0,17c-.2.2-.4.3-.5.5l-32.2,30.3a12,12,0,0,0-3.1,12.8l29.4,80.8Z"/></svg>