<svg id="Flat" xmlns="http://www.w3.org/2000/svg" viewBox="0 0 256 256">
  <path d="M137.11377,152.19092a12.00023,12.00023,0,0,0-18.22266-.00049l-48.00195,56A11.99948,11.99948,0,0,0,79.99951,228h96a11.99969,11.99969,0,0,0,9.11133-19.80908ZM106.09131,204l21.91015-25.561L149.90967,204ZM235.99951,64V176a28.03146,28.03146,0,0,1-28,28,12,12,0,0,1,0-24,4.00426,4.00426,0,0,0,4-4V64a4.00426,4.00426,0,0,0-4-4h-160a4.00427,4.00427,0,0,0-4,4V176a4.00427,4.00427,0,0,0,4,4,12,12,0,0,1,0,24,28.03146,28.03146,0,0,1-28-28V64a28.03146,28.03146,0,0,1,28-28h160A28.03146,28.03146,0,0,1,235.99951,64Z"/>
</svg>
