<svg id="Flat" xmlns="http://www.w3.org/2000/svg" viewBox="0 0 256 256">
  <path d="M168,244a12.00485,12.00485,0,0,1-2.35352-.23291L128,236.23779l-37.64648,7.5293A12.00047,12.00047,0,0,1,76,232V208a12.002,12.002,0,0,1,3.51465-8.48535L92,187.0293V166.6377L26.35352,179.76709A12.00047,12.00047,0,0,1,12,168V144a11.99927,11.99927,0,0,1,6.63379-10.73291L92.01465,96.57617l.09765-48.6001a36,36,0,0,1,72,.02393l.09864,48.57617,73.38086,36.69092A11.99927,11.99927,0,0,1,244.22559,144v24a12.00047,12.00047,0,0,1-14.35352,11.76709L164.22559,166.6377v20.4414l12.31933,12.4961A11.99869,11.99869,0,0,1,180,208v24a12.00038,12.00038,0,0,1-12,12Zm-40-32a12.01346,12.01346,0,0,1,2.35352.23291L156,217.3623v-4.4414l-12.31934-12.4961A11.99873,11.99873,0,0,1,140.22559,192V152a12.00045,12.00045,0,0,1,14.35351-11.76709l65.64649,13.12939v-1.9458l-73.36621-36.68359a11.9995,11.9995,0,0,1-6.63379-10.7085l-.11329-56a12,12,0,1,0-24-.02441L116,104.02393a11.99968,11.99968,0,0,1-6.63379,10.709L36,151.4165v1.9458l65.64648-13.12939A12.00047,12.00047,0,0,1,116,152v40a12.002,12.002,0,0,1-3.51465,8.48535L100,212.9707v4.3916l25.64648-5.12939A12.01346,12.01346,0,0,1,128,212Z"/>
</svg>
