<svg id="Flat" xmlns="http://www.w3.org/2000/svg" viewBox="0 0 256 256">
  <path d="M180,216a12.00028,12.00028,0,0,1-12,12H24a12,12,0,0,1,0-24H168A12.00028,12.00028,0,0,1,180,216ZM255.80762,94.13916a11.99648,11.99648,0,0,1-5.77637,8.23486L98.624,190.40186a43.73329,43.73329,0,0,1-52.209-5.939L8.71973,149.12354l-.001-.001a19.99971,19.99971,0,0,1,5.80176-32.97266l16.75293-7.17969a11.99548,11.99548,0,0,1,9.45312,0l22.50782,9.646,8.40039-4.80029L53.27344,97.29a20.00065,20.00065,0,0,1,5.5-33.249l16.5-7.07081a11.99437,11.99437,0,0,1,8.52148-.35449l54.82324,18.2749,39.667-23.33349a43.77071,43.77071,0,0,1,56.3623,10.063l18.63965,22.78076A11.9995,11.9995,0,0,1,255.80762,94.13916Zm-30.01074-5.43652-9.72364-11.88477a19.9001,19.9001,0,0,0-25.62012-4.57422L146.084,98.34326a12.00429,12.00429,0,0,1-9.8789,1.041L80.5332,80.82715l-6.55468,2.80908,26.04882,23.44434A11.9999,11.9999,0,0,1,97.9541,126.419l-28,16a12.00354,12.00354,0,0,1-10.68066.61084L36,133.05566l-6.40234,2.74366L62.8291,166.9541a19.87473,19.87473,0,0,0,23.73242,2.69922Z"/>
</svg>
