<svg id="Flat" xmlns="http://www.w3.org/2000/svg" viewBox="0 0 256 256">
  <path d="M237.5918,125.26709,164.208,88.57471,164.1123,48a36,36,0,0,0-72-.02783l-.09472,40.60254L18.63379,125.26709A11.99927,11.99927,0,0,0,12,136v32a12.00047,12.00047,0,0,0,14.35352,11.76709L92,166.6377v12.3916L79.51465,191.51465A12.002,12.002,0,0,0,76,200v32a11.99981,11.99981,0,0,0,16.457,11.1416L128,228.92432l35.543,14.21728A11.99981,11.99981,0,0,0,180,232V200a11.99869,11.99869,0,0,0-3.45508-8.4248l-12.31933-12.4961V166.6377l65.64648,13.12939A12.00047,12.00047,0,0,0,244.22559,168V136A11.99927,11.99927,0,0,0,237.5918,125.26709ZM220.22559,153.3623,154.5791,140.23291A12.00045,12.00045,0,0,0,140.22559,152v32a11.99873,11.99873,0,0,0,3.45507,8.4248L156,204.9209v9.35449l-23.543-9.417a12.00021,12.00021,0,0,0-8.91406,0L100,214.27539V204.9707l12.48535-12.48535A12.002,12.002,0,0,0,116,184V152a12.00047,12.00047,0,0,0-14.35352-11.76709L36,153.3623v-9.9458l73.36621-36.68359A11.99971,11.99971,0,0,0,116,96.02783L116.1123,48a12,12,0,1,1,24,.02832l.11329,48a11.999,11.999,0,0,0,6.63379,10.70459l73.36621,36.68359Z"/>
</svg>
