<svg xmlns="http://www.w3.org/2000/svg" viewBox="0 0 256 256"><path d="M180,216a12,12,0,0,1-12,12H24a12,12,0,0,1,0-24H168A12,12,0,0,1,180,216ZM255.8,94.1a11.9,11.9,0,0,1-5.8,8.3l-151.4,88a44.3,44.3,0,0,1-22.2,6,43.7,43.7,0,0,1-30-11.9L8.7,149.1h0a19.9,19.9,0,0,1-6-18,20.2,20.2,0,0,1,11.8-15L31.3,109a11.8,11.8,0,0,1,9.4,0l22.5,9.6,8.4-4.8L53.3,97.3A20,20,0,0,1,58.8,64l16.5-7a11.9,11.9,0,0,1,8.5-.4l54.8,18.3,39.7-23.3a43.7,43.7,0,0,1,56.3,10l18.7,22.8A12.1,12.1,0,0,1,255.8,94.1Zm-30-5.4-9.7-11.9a19.9,19.9,0,0,0-25.6-4.6L146.1,98.3a11.9,11.9,0,0,1-9.9,1.1L80.5,80.8,74,83.6l26,23.5a12,12,0,0,1-2,19.3l-28,16a11.9,11.9,0,0,1-10.7.6L36,133.1l-6.4,2.7L62.8,167a20.2,20.2,0,0,0,23.8,2.7Z"/></svg>