<svg id="Flat" xmlns="http://www.w3.org/2000/svg" viewBox="0 0 256 256">
  <path d="M189.86841,115.333l27.88476-26.18262a12.004,12.004,0,0,0,1.73779-2.03906A36.00061,36.00061,0,0,0,166.43188,38.544a12.06,12.06,0,0,0-1.25146,1.46875L140.58178,66.0293,59.988,36.72266a11.99848,11.99848,0,0,0-12.58593,2.792l-24,24a12.00005,12.00005,0,0,0,1.8291,18.46972l59.82031,39.88086L74.91675,132H55.88745a12.002,12.002,0,0,0-8.48535,3.51465l-24,24a12.00039,12.00039,0,0,0,4.63965,19.85254L64.23413,191.6123l12.28906,36.24122a12,12,0,0,0,19.84961,4.63183l24-24A12.00078,12.00078,0,0,0,123.88745,200V181.31055L133.947,172.1709l40.03223,58.59863a11.99985,11.99985,0,0,0,18.39355,1.71582l24-24a11.99872,11.99872,0,0,0,2.792-12.58594Zm-4.23487,89.95019L145.988,147.251a12,12,0,0,0-17.97753-2.11231l-24.19239,21.97949A12.00061,12.00061,0,0,0,99.88745,176v19.0293l-6.835,6.835L85.05932,178.292a11.99954,11.99954,0,0,0-7.51855-7.51367L54.033,162.8252,60.85815,156h19.0293a12.002,12.002,0,0,0,8.48535-3.51465l24-24a12.00008,12.00008,0,0,0-1.8291-18.46973L50.72339,70.13477l8.24511-8.24512,80.81836,29.38769a11.996,11.996,0,0,0,12.82031-3.0332l31.71045-33.53906c.022-.02344.04444-.04688.06592-.07031A12.0004,12.0004,0,0,1,200.3728,72.48535c-.17676.17676-.34619.35645-.50928.541l-32.18994,30.22558a11.9989,11.9989,0,0,0-3.06348,12.84864L193.99829,196.919Z"/>
</svg>
