<svg xmlns="http://www.w3.org/2000/svg" viewBox="0 0 256 256"><path d="M252,216a12,12,0,0,1-12,12H96a12,12,0,0,1,0-24H240A12,12,0,0,1,252,216Zm-31.2-20.4L44.1,146.1A44.1,44.1,0,0,1,12,103.7V51.1a20,20,0,0,1,26.3-19l13.5,4.5a12.1,12.1,0,0,1,6.8,5.8L72.3,68,84,71.7V51.1a20,20,0,0,1,26.3-19l13.5,4.5a11.8,11.8,0,0,1,6.6,5.4L160,93.8l43.8,12.1A44.2,44.2,0,0,1,236,148.3V184a11.9,11.9,0,0,1-12,12A11.2,11.2,0,0,1,220.8,195.6ZM212,148.3a19.9,19.9,0,0,0-14.6-19.2l-48.6-13.5a12.3,12.3,0,0,1-7.2-5.6L111.9,57.9,108,56.6V88a12.1,12.1,0,0,1-4.9,9.7,12.3,12.3,0,0,1-10.7,1.8l-32-10a12.4,12.4,0,0,1-7-5.9L39.7,57.9,36,56.6v47.1A20,20,0,0,0,50.6,123L212,168.2Z"/></svg>