<svg id="Flat" xmlns="http://www.w3.org/2000/svg" viewBox="0 0 256 256">
  <path d="M176,116a12,12,0,0,1,0,24H128a12,12,0,0,1-12-12V80a12,12,0,0,1,24,0v36Zm22.71094-58.71045A100,100,0,0,1,57.28906,198.71045,100,100,0,0,1,198.71094,57.28955ZM204,128a75.99961,75.99961,0,1,0-22.25977,53.74023A75.50271,75.50271,0,0,0,204,128Zm39.96582-82.02441L210.02441,12.03467a11.99992,11.99992,0,0,0-16.9707,16.97021l33.94141,33.94141a12.0001,12.0001,0,0,0,16.9707-16.9707ZM62.94629,29.00488a11.99992,11.99992,0,0,0-16.9707-16.97021L12.03418,45.97559a12.0001,12.0001,0,0,0,16.9707,16.9707Z"/>
</svg>
