<svg xmlns="http://www.w3.org/2000/svg" viewBox="0 0 256 256"><path d="M176,116a12,12,0,0,1,0,24H128a12,12,0,0,1-12-12V80a12,12,0,0,1,24,0v36Zm22.7-58.7A100,100,0,1,1,57.3,198.7,100,100,0,1,1,198.7,57.3ZM204,128A75.9,75.9,0,0,0,74.3,74.3,75.9,75.9,0,1,0,181.7,181.7,75.2,75.2,0,0,0,204,128Zm40-82L210,12a11.9,11.9,0,0,0-16.9,0,12,12,0,0,0,0,17L227,62.9a11.7,11.7,0,0,0,8.5,3.6A12.1,12.1,0,0,0,244,46ZM62.9,29a12,12,0,0,0,0-17A11.9,11.9,0,0,0,46,12L12,46a12.1,12.1,0,0,0,8.5,20.5A11.7,11.7,0,0,0,29,62.9Z"/></svg>