<svg id="Flat" xmlns="http://www.w3.org/2000/svg" viewBox="0 0 256 256">
  <path d="M140,116h44a12,12,0,0,1,0,24H128a12,12,0,0,1-12-12V72a12,12,0,0,1,24,0Zm58.71094-58.71045A100,100,0,0,1,57.28906,198.71045,100,100,0,0,1,198.71094,57.28955ZM204,128a75.99961,75.99961,0,1,0-22.25977,53.74023A75.50271,75.50271,0,0,0,204,128Zm34.30859-76.36719-33.94091-33.9414A12.0001,12.0001,0,0,0,187.397,34.66211L221.33789,68.603a11.99993,11.99993,0,0,0,16.9707-16.97022ZM68.603,34.66211a12.0001,12.0001,0,0,0-16.97071-16.9707L17.69141,51.63281A11.99993,11.99993,0,0,0,34.66211,68.603Z"/>
</svg>
