<svg xmlns="http://www.w3.org/2000/svg" viewBox="0 0 256 256"><path d="M128,12A100.2,100.2,0,0,0,28,112c0,24.9,12.9,56.8,34.4,85.4,8.2,11,37.2,46.6,65.6,46.6s57.4-35.6,65.6-46.6C215.1,168.8,228,136.9,228,112A100.2,100.2,0,0,0,128,12Zm46.4,171c-13.8,18.4-34.2,37-46.4,37s-32.6-18.6-46.4-37C63.3,158.8,52,131.5,52,112a76,76,0,0,1,152,0C204,131.5,192.7,158.8,174.4,183ZM104,152a36,36,0,0,1-36-36v-4a12,12,0,0,1,12-12,36,36,0,0,1,36,36v4A12,12,0,0,1,104,152Zm84-40v4a36,36,0,0,1-36,36l-2-.2A11.9,11.9,0,0,1,140,140v-4a36,36,0,0,1,36-36A12,12,0,0,1,188,112Zm-36,72a12,12,0,0,1-12,12H116a12,12,0,0,1,0-24h24A12,12,0,0,1,152,184Z"/></svg>