<svg id="Flat" xmlns="http://www.w3.org/2000/svg" viewBox="0 0 256 256">
  <path d="M224.00488,116H216V72a20.02292,20.02292,0,0,0-20-20H156a20.02292,20.02292,0,0,0-20,20v44H120V48a20.02292,20.02292,0,0,0-20-20H60A20.02292,20.02292,0,0,0,40,48v68H32.00488a12,12,0,0,0,0,24H40v68a20.0226,20.0226,0,0,0,20,20h40a20.0226,20.0226,0,0,0,20-20V140h16v44a20.0226,20.0226,0,0,0,20,20h40a20.0226,20.0226,0,0,0,20-20V140h8.00488a12,12,0,0,0,0-24ZM96,204H64V128.09668c.00024-.03259.00488-.064.00488-.09668s-.00464-.06409-.00488-.09668V52H96Zm96-24H160V128.09668c.00024-.03259.00488-.064.00488-.09668s-.00464-.06409-.00488-.09668V76h32Z"/>
</svg>
