<svg id="Flat" xmlns="http://www.w3.org/2000/svg" viewBox="0 0 256 256">
  <path d="M228.00488,216.00586a12.00028,12.00028,0,0,1-12,12h-176a12,12,0,1,1,0-24h176A12.00028,12.00028,0,0,1,228.00488,216.00586ZM136,168V80a20.0226,20.0226,0,0,1,20-20h36a20.0226,20.0226,0,0,1,20,20v88a20.0226,20.0226,0,0,1-20,20H156A20.0226,20.0226,0,0,1,136,168Zm24-4h28V84H160ZM44,168V40A20.0226,20.0226,0,0,1,64,20h36a20.0226,20.0226,0,0,1,20,20V168a20.0226,20.0226,0,0,1-20,20H64A20.0226,20.0226,0,0,1,44,168Zm24-4H96V44H68Z"/>
</svg>
