<svg id="Flat" xmlns="http://www.w3.org/2000/svg" viewBox="0 0 256 256">
  <path d="M208,136H140V120h44a20.02292,20.02292,0,0,0,20-20V60a20.02292,20.02292,0,0,0-20-20H140V31.99512a12,12,0,1,0-24,0V40H72A20.02292,20.02292,0,0,0,52,60v40a20.02292,20.02292,0,0,0,20,20h44v16H48a20.02292,20.02292,0,0,0-20,20v40a20.02292,20.02292,0,0,0,20,20h68v7.99512a12,12,0,0,0,24,0V216h68a20.02292,20.02292,0,0,0,20-20V156A20.02292,20.02292,0,0,0,208,136ZM76,64H180V96H128.09668c-.03259-.00024-.064-.00488-.09668-.00488s-.06409.00464-.09668.00488H76ZM204,192H128.09668c-.03259-.00024-.064-.00488-.09668-.00488s-.06409.00464-.09668.00488H52V160H204Z"/>
</svg>
