<svg id="Flat" xmlns="http://www.w3.org/2000/svg" viewBox="0 0 256 256">
  <path d="M180,156a16,16,0,1,1-16-16A16.00008,16.00008,0,0,1,180,156ZM92,140a16,16,0,1,0,16,16A16.00009,16.00009,0,0,0,92,140Zm152,28v24a20.0226,20.0226,0,0,1-20,20H32a20.0226,20.0226,0,0,1-20-20V169.12893a117.34518,117.34518,0,0,1,33.72046-82.438L23.51465,64.48537a12.0001,12.0001,0,0,1,16.9707-16.9707L64.2959,71.32522A114.42986,114.42986,0,0,1,127.59082,52.001c.13672-.001.27686-.001.41309-.001a115.16065,115.16065,0,0,1,63.88574,19.13965l23.625-23.625a12.0001,12.0001,0,0,1,16.9707,16.9707L210.50293,86.46779A115.201,115.201,0,0,1,244,168Zm-24,0a92.0002,92.0002,0,0,0-92.32617-91.99951C77.12451,76.17531,36,117.95266,36,169.12893V188H220Z"/>
</svg>
