<svg id="Flat" xmlns="http://www.w3.org/2000/svg" viewBox="0 0 256 256">
  <path d="M83.92969,84a16,16,0,1,1,16,16A16.00016,16.00016,0,0,1,83.92969,84Zm72,16a16,16,0,1,0-16-16A16.00017,16.00017,0,0,0,155.92969,100Zm64,4v48a92,92,0,0,1-184,0V104A91.62019,91.62019,0,0,1,59.09228,43.03613L47.88184,32.90137a12.00009,12.00009,0,0,1,16.0957-17.80274l13.374,12.0918a91.79779,91.79779,0,0,1,101.15625,0l13.374-12.0918a12.00009,12.00009,0,0,1,16.0957,17.80274l-11.21,10.13525A91.62,91.62,0,0,1,219.92969,104Zm-92-68a68.07728,68.07728,0,0,0-68,68v4h136v-4A68.07729,68.07729,0,0,0,127.92969,36Zm68,116V132h-136v20a68,68,0,0,0,136,0Z"/>
</svg>
