<svg id="Flat" xmlns="http://www.w3.org/2000/svg" viewBox="0 0 256 256">
  <path d="M196.76758,43.03662l11.21-10.13525a12.00009,12.00009,0,0,0-16.0957-17.80274l-13.374,12.0918a91.79779,91.79779,0,0,0-101.15625,0l-13.374-12.0918a12.00009,12.00009,0,0,0-16.0957,17.80274L59.09228,43.03613A91.62019,91.62019,0,0,0,35.92969,104v48a92,92,0,0,0,184,0V104A91.62,91.62,0,0,0,196.76758,43.03662ZM195.92969,104v8h-136v-8a68,68,0,0,1,136,0Zm-68,116a68.07728,68.07728,0,0,1-68-68V136h136v16A68.07729,68.07729,0,0,1,127.92969,220Zm12-136a16,16,0,1,1,16,16A16.01833,16.01833,0,0,1,139.92969,84Zm-56,0a16,16,0,1,1,16,16A16.01833,16.01833,0,0,1,83.92969,84Z"/>
</svg>
