<svg xmlns="http://www.w3.org/2000/svg" viewBox="0 0 256 256"><path d="M204.4,51.6A108,108,0,1,0,127.9,236h.2A108,108,0,0,0,204.4,51.6Zm-91.6,94.3L105,123.8l15.1-17.9,23.1,4.2,7.8,22.1-15.1,17.9ZM51.5,93.4,92.9,101,48.1,153.7A84.3,84.3,0,0,1,51.5,93.4Zm156.4,8.9a84.3,84.3,0,0,1-3.4,60.3L163.1,155ZM196.2,79,169,111.1,145.7,45.9a83,83,0,0,1,41.7,22.7A85.1,85.1,0,0,1,196.2,79ZM119.7,44.4,133.8,84,65.7,71.6l2.9-3A83.5,83.5,0,0,1,119.7,44.4ZM59.8,177,87,144.9l23.3,65.2a83,83,0,0,1-41.7-22.7A85.1,85.1,0,0,1,59.8,177Zm76.5,34.6L122.2,172l16.2,2.9h.1l51.8,9.5-2.9,3A83.5,83.5,0,0,1,136.3,211.6Z"/></svg>