<svg id="Flat" xmlns="http://www.w3.org/2000/svg" viewBox="0 0 256 256">
  <path d="M204.36768,51.63281A107.99986,107.99986,0,0,0,51.63232,204.36719a107.28958,107.28958,0,0,0,76.25782,31.63135c.03686.00048.07348.00439.11035.00439.03222,0,.06494-.00391.09717-.00391a107.99906,107.99906,0,0,0,76.27-184.36621Zm-91.53443,94.22168-7.87939-22.062,15.1665-17.85449,23.04639,4.20752,7.87939,22.062L135.87964,150.062ZM51.46912,93.4043l41.38977,7.55664-44.796,52.73535A84.4606,84.4606,0,0,1,51.46912,93.4043Zm156.468,8.89941a84.46,84.46,0,0,1-3.40612,60.292l-41.3899-7.55664ZM196.22852,79.01709l-27.24109,32.06934-23.2887-65.2085a83.89375,83.89375,0,0,1,50.52979,33.13916ZM119.68774,44.4043l14.15845,39.64306L65.7417,71.61377Q67.12964,70.083,68.603,68.60352A83.36131,83.36131,0,0,1,119.68774,44.4043ZM59.77148,176.98291l27.24109-32.06934,23.2887,65.2085a83.89375,83.89375,0,0,1-50.52979-33.13916Zm76.54078,34.61279-14.15845-39.64306,16.27515,2.97119c.02832.00488.05627.01074.08447.01562l51.74487,9.44678q-1.38793,1.53077-2.86133,3.01025A83.36131,83.36131,0,0,1,136.31226,211.5957Z"/>
</svg>
