<svg xmlns="http://www.w3.org/2000/svg" viewBox="0 0 256 256"><path d="M244,168a12,12,0,0,1-12,12H200.7l17.6,29.9a11.9,11.9,0,0,1-4.2,16.4A11.3,11.3,0,0,1,208,228a11.9,11.9,0,0,1-10.3-5.9L140.9,126a12,12,0,0,1,20.7-12.2L186.5,156H232A12,12,0,0,1,244,168ZM133.2,156H97.4L162.3,46.1a12,12,0,0,0-20.6-12.2L128,57,114.3,33.9A12,12,0,1,0,93.7,46.1l20.4,34.5L69.5,156H24a12,12,0,0,0,0,24H133.2a12,12,0,0,0,0-24ZM58.8,197.7a11.9,11.9,0,0,0-16.4,4.2l-4.7,8a11.9,11.9,0,0,0,4.2,16.4A11.3,11.3,0,0,0,48,228a11.9,11.9,0,0,0,10.3-5.9l4.8-8A12,12,0,0,0,58.8,197.7Z"/></svg>