<svg xmlns="http://www.w3.org/2000/svg" viewBox="0 0 256 256"><path d="M161.6,129.6A38.9,38.9,0,0,0,168,108a40,40,0,0,0-80,0,38.9,38.9,0,0,0,6.4,21.6,28.5,28.5,0,0,0-4.7,4.5A27.6,27.6,0,0,0,83.6,157l10.2,56a28,28,0,0,0,27.6,23h13.2a28,28,0,0,0,27.6-23l10.2-56a27.6,27.6,0,0,0-6.1-22.9A28.5,28.5,0,0,0,161.6,129.6ZM128,92a16,16,0,1,1-16,16A16,16,0,0,1,128,92Zm20.8,60.7-10.2,56a4.1,4.1,0,0,1-4,3.3H121.4a4.1,4.1,0,0,1-4-3.3l-10.2-56a4.2,4.2,0,0,1,.9-3.3,3.9,3.9,0,0,1,3.1-1.4h33.6a3.9,3.9,0,0,1,3.1,1.4A4.2,4.2,0,0,1,148.8,152.7ZM236,128a108.3,108.3,0,0,1-34.5,79.1,12,12,0,1,1-16.3-17.5,84,84,0,1,0-114.4,0,12,12,0,1,1-16.3,17.5A108,108,0,1,1,236,128Z"/></svg>