<svg id="Flat" xmlns="http://www.w3.org/2000/svg" viewBox="0 0 256.00004 255.99998">
  <path d="M223.81543,152.169a36.0172,36.0172,0,0,1-2.42969-62.99121,12.001,12.001,0,0,0,3.21192-17.6875A72.0161,72.0161,0,0,0,128,56.12745,72.00694,72.00694,0,0,0,16,116c0,26.28125,8.58594,54.06153,23.55664,76.21875C54.92188,214.958,74.03613,228,92,228h72c12.55371,0,25.72217-6.37012,38.082-18.42285,11.05567-10.7793,20.835-25.73047,27.53565-42.09668A12.00456,12.00456,0,0,0,223.81543,152.169ZM164,204H92c-19.59033,0-52-41.12988-52-88a48.00107,48.00107,0,0,1,79.999-35.77929q.09522.08568.19336.16943a12.00114,12.00114,0,0,0,15.99366-.3335,48.03914,48.03914,0,0,1,61.02343-2.167,60.09153,60.09153,0,0,0,6.0376,89.56738C191.46875,190.51271,174.80859,204,164,204ZM134.37012,15.626A43.9311,43.9311,0,0,1,168,0a12,12,0,0,1,0,24,19.97969,19.97969,0,0,0-15.29248,7.10938,12,12,0,1,1-18.3374-15.4834Z"/>
</svg>
