<svg id="Flat" xmlns="http://www.w3.org/2000/svg" viewBox="0 0 256 256">
  <path d="M208.00059,28H48.00527A20.022,20.022,0,0,0,28.00586,48V155.88379C28.00537,155.92285,28,155.96094,28,156s.00537.07715.00586.11621V208a20.022,20.022,0,0,0,19.99941,20H208.00059A20.022,20.022,0,0,0,228,208V48A20.022,20.022,0,0,0,208.00059,28ZM204.0007,52v92H179.309a19.87491,19.87491,0,0,0-14.14216,5.85742L147.0263,168H108.96784L90.82531,149.85645A19.87016,19.87016,0,0,0,76.6851,144H52.00516V52ZM52.00516,204V168H75.02841l18.14253,18.14355A19.87016,19.87016,0,0,0,107.31115,192H148.683a19.87489,19.87489,0,0,0,14.14216-5.85742L180.96573,168h23.035v36Zm39.22932-79.79883a11.99992,11.99992,0,0,1,16.9702-16.9707l7.7986,7.79883V76a11.99965,11.99965,0,1,1,23.9993,0v39.0293l7.7986-7.79883a11.99992,11.99992,0,0,1,16.9702,16.9707L136.488,152.48535c-.01855.01856-.03906.03369-.05761.05225q-.394.38892-.82127.7417c-.14111.11621-.29.21728-.43553.32617-.168.12549-.33251.25586-.50731.37305-.17138.11425-.34911.21386-.52489.31836-.16015.09619-.31737.19677-.48289.28564-.17822.09521-.36132.17578-.543.26172-.17333.08154-.34325.168-.521.2417-.17675.07324-.35741.13183-.53709.19629-.18945.06836-.37694.14111-.57127.20019-.17969.0542-.36181.09375-.543.13965-.19823.04981-.394.10547-.59617.14551-.20849.041-.41942.06592-.62987.09619-.17675.02539-.35106.05908-.53074.07666-.39354.03857-.78855.05957-1.18356.05957s-.79-.021-1.18356-.05957c-.17968-.01758-.354-.05127-.53075-.07666-.21044-.03027-.42137-.05518-.62986-.09619-.20214-.04-.39794-.0957-.59617-.14551-.18115-.0459-.36327-.08545-.543-.13965-.19433-.05908-.38231-.13183-.57225-.20019-.17919-.06446-.35936-.12305-.53611-.19629-.17773-.07373-.34814-.16016-.52147-.24219-.18164-.08545-.36474-.166-.54247-.26123-.16552-.08887-.32274-.18945-.48289-.28564-.17578-.1045-.35351-.20411-.52489-.31836-.1748-.11719-.33934-.24756-.50731-.37305-.1455-.10889-.29442-.21-.43553-.32617q-.42846-.35157-.82127-.7417c-.01855-.01856-.03906-.03369-.05761-.05225Z"/>
</svg>
