<svg id="Flat" xmlns="http://www.w3.org/2000/svg" viewBox="0 0 256 256">
  <path d="M208,28H48A20.02229,20.02229,0,0,0,28,48V159.88379c-.00049.03906-.00586.07715-.00586.11621s.00537.07715.00586.11621V208a20.02229,20.02229,0,0,0,20,20H208a20.02229,20.02229,0,0,0,20-20V48A20.02229,20.02229,0,0,0,208,28Zm-4,24v96H179.30762a19.87579,19.87579,0,0,0-14.14258,5.85742L147.02393,172H108.96436L90.82129,153.85645A19.871,19.871,0,0,0,76.68066,148H52V52ZM52,204V172H75.02393L93.167,190.14355A19.871,19.871,0,0,0,107.30762,196h41.373a19.87577,19.87577,0,0,0,14.14258-5.85742L180.96436,172H204v32Zm33.57324-77.456A12.0001,12.0001,0,0,1,102.544,109.57324L116,123.0293V72a12,12,0,0,1,24,0v51.0293l13.45605-13.45606A12.0001,12.0001,0,0,1,170.42676,126.544l-33.94141,33.9414c-.02832.02832-.05957.05176-.08789.07959-.25049.24561-.50928.48389-.78076.707-.08057.06592-.167.12207-.24854.186-.22754.17773-.456.354-.69628.51513-.07032.04688-.14454.08545-.21534.13086-.25976.16651-.522.32911-.79492.47559-.04883.02637-.10058.04687-.14941.07227-.29834.15478-.60108.30175-.91309.43115-.03271.01367-.06641.02344-.09863.03613-.32861.1333-.66211.25586-1.0044.35986-.03613.01123-.07324.01758-.10937.02832-.33643.09864-.67725.188-1.02539.25733-.09278.019-.18848.02685-.28223.04346-.2915.05078-.583.102-.88135.13134a11.87672,11.87672,0,0,1-2.3955,0c-.29834-.02929-.58985-.08056-.88135-.13134-.09375-.01661-.18945-.02442-.28223-.04346-.34814-.06934-.689-.15869-1.02539-.25733-.03613-.01074-.07324-.01709-.10937-.02832-.34229-.104-.67579-.22656-1.0044-.35986-.03222-.01269-.06592-.02246-.09863-.03613-.312-.1294-.61475-.27637-.91309-.43115-.04883-.0254-.10058-.0459-.14941-.07227-.27295-.14648-.53516-.30908-.79492-.47559-.0708-.04541-.145-.084-.21534-.13086-.24023-.16113-.46874-.3374-.69628-.51513-.08155-.064-.168-.12012-.24854-.186-.27148-.22314-.53027-.46142-.78076-.707-.02832-.02783-.05957-.05127-.08789-.07959Z"/>
</svg>
