<svg id="Flat" xmlns="http://www.w3.org/2000/svg" viewBox="0 0 256 256">
  <path d="M227.93457,74.75c-.00293-.02686-.00928-.05322-.01221-.08008-.043-.38867-.10254-.77246-.18164-1.14941-.00927-.04248-.02343-.084-.03271-.127-.08008-.35986-.17285-.71484-.28418-1.06152-.02442-.07617-.05615-.14941-.082-.2251-.10645-.30957-.21973-.61523-.34961-.91259-.00977-.02246-.0166-.0459-.02637-.06836l-16-36A12.00047,12.00047,0,0,0,200,28H56a12.00047,12.00047,0,0,0-10.96582,7.126l-16,36c-.00977.02246-.0166.0459-.02637.06836-.12988.29736-.24316.603-.34961.91259-.02588.07569-.05761.14893-.082.2251-.1123.34863-.20508.70508-.28515,1.0669-.00928.04052-.02295.08056-.03125.12109-.07959.37744-.13916.76123-.18213,1.15088-.00293.02637-.00928.05273-.01221.0791A12.15078,12.15078,0,0,0,28,76V208a20.02229,20.02229,0,0,0,20,20H208a20.02229,20.02229,0,0,0,20-20V76A12.15078,12.15078,0,0,0,227.93457,74.75ZM192.20117,52l5.3335,12H58.46533l5.3335-12ZM52,204V88H204V204Zm112.76953-60.76953a11.99975,11.99975,0,0,1,0,16.9707l-28.28418,28.28418c-.01855.01856-.03906.03369-.05762.05225q-.394.38892-.82128.7417c-.14112.11621-.29.21728-.43555.32617-.168.12549-.33252.25586-.50733.37305-.17138.11425-.34912.21386-.5249.31836-.16015.09619-.31738.19677-.48291.28564-.17822.09521-.36133.17578-.543.26172-.17334.08154-.34326.168-.521.2417-.17676.07324-.35742.13183-.53711.19629-.18946.06836-.377.14111-.57129.20019-.17969.0542-.36182.09375-.543.13965-.19824.04981-.394.10547-.59619.14551-.2085.041-.41944.06592-.62988.09619-.17676.02539-.35108.05908-.53077.07666C128.79,191.979,128.395,192,128,192s-.79-.021-1.18359-.05957c-.17969-.01758-.354-.05127-.53077-.07666-.21044-.03027-.42138-.05518-.62988-.09619-.20215-.04-.39795-.0957-.59619-.14551-.18115-.0459-.36328-.08545-.543-.13965-.19433-.05908-.38232-.13183-.57226-.20019-.1792-.06446-.35938-.12305-.53614-.19629-.17773-.07373-.34814-.16016-.52148-.24219-.18164-.08545-.36475-.166-.54248-.26123-.16553-.08887-.32276-.18945-.48291-.28564-.17578-.1045-.35352-.20411-.5249-.31836-.17481-.11719-.33936-.24756-.50733-.37305-.14551-.10889-.29443-.21-.43555-.32617q-.42846-.35157-.82128-.7417c-.01856-.01856-.03907-.03369-.05762-.05225L91.23047,160.20117a12.0001,12.0001,0,0,1,16.9707-16.9707L116,151.0293V112a12,12,0,0,1,24,0v39.0293l7.79883-7.79883A12.00151,12.00151,0,0,1,164.76953,143.23047Z"/>
</svg>
