<svg id="Flat" xmlns="http://www.w3.org/2000/svg" viewBox="0 0 256 256">
  <path d="M170.42676,141.57324a12.00065,12.00065,0,0,1,0,16.97071l-33.94141,33.9414c-.02832.02832-.05957.05176-.08789.07959-.25049.24561-.50928.48389-.78076.707-.08057.06592-.167.12207-.24854.186-.22754.17773-.456.354-.69628.51513-.07032.04688-.14454.08545-.21534.13086-.25976.16651-.522.32911-.79492.47559-.04883.02637-.10058.04687-.14941.07227-.29834.15478-.60108.30175-.91309.43115-.03271.01367-.06641.02344-.09863.03613-.32861.1333-.66211.25586-1.0044.35986-.03613.01123-.07324.01758-.10937.02832-.33643.09864-.67725.188-1.02539.25733-.09278.019-.18848.02685-.28223.04346-.2915.05078-.583.102-.88135.13134a11.87672,11.87672,0,0,1-2.3955,0c-.29834-.02929-.58985-.08056-.88135-.13134-.09375-.01661-.18945-.02442-.28223-.04346-.34814-.06934-.689-.15869-1.02539-.25733-.03613-.01074-.07324-.01709-.10937-.02832-.34229-.104-.67579-.22656-1.0044-.35986-.03222-.01269-.06592-.02246-.09863-.03613-.312-.1294-.61475-.27637-.91309-.43115-.04883-.0254-.10058-.0459-.14941-.07227-.27295-.14648-.53516-.30908-.79492-.47559-.0708-.04541-.145-.084-.21534-.13086-.24023-.16113-.46874-.3374-.69628-.51513-.08155-.064-.168-.12012-.24854-.186-.27148-.22314-.53027-.46142-.78076-.707-.02832-.02783-.05957-.05127-.08789-.07959L85.57324,158.544A12.0001,12.0001,0,0,1,102.544,141.57324L116,155.0293V104a12,12,0,0,1,24,0v51.0293l13.45605-13.45606A12.00154,12.00154,0,0,1,170.42676,141.57324ZM228,72V208a20.02229,20.02229,0,0,1-20,20H48a20.02229,20.02229,0,0,1-20-20V72a12.13539,12.13539,0,0,1,.07715-1.32617c.01221-.10938.03467-.21729.0498-.32666.0459-.33154.10059-.66065.17285-.98291.02735-.12207.06153-.24121.09278-.36182.08008-.31006.16943-.61523.273-.915.042-.12109.08642-.24072.13232-.36084q.17139-.449.37744-.87939c.03321-.06983.05664-.144.09131-.21338l16-32A12.00164,12.00164,0,0,1,56,28H200a12.00164,12.00164,0,0,1,10.7334,6.63379l16,32c.03467.06934.0581.14355.09131.21338q.2058.4314.37744.87939c.0459.12012.09033.23975.13232.36084.10352.29981.19287.605.27295.915.03125.12061.06543.23975.09278.36182.07226.32226.12695.65137.17285.98291.01513.10937.03759.21728.0498.32666A12.13539,12.13539,0,0,1,228,72ZM63.4165,52l-4,8h137.167l-4-8ZM204,204V84H52V204Z"/>
</svg>
