<svg xmlns="http://www.w3.org/2000/svg" viewBox="0 0 256 256"><path d="M208,28H48A20.1,20.1,0,0,0,28,48V155.9h0V208a20.1,20.1,0,0,0,20,20H208a20.1,20.1,0,0,0,20-20V48A20.1,20.1,0,0,0,208,28Zm-4,24v92H179.3a19.7,19.7,0,0,0-14.1,5.9L147,168H109L90.8,149.9A19.8,19.8,0,0,0,76.7,144H52V52ZM52,204V168H75l18.2,18.1a19.7,19.7,0,0,0,14.1,5.9h41.4a19.8,19.8,0,0,0,14.1-5.9L181,168h23v36Zm39.2-79.8a12,12,0,0,1,17-17L116,115V76a12,12,0,0,1,24,0v39l7.8-7.8a12,12,0,0,1,17,17l-28.3,28.3h-.1l-.8.8-.4.3-.5.4-.6.3-.4.3-.6.2-.5.3-.5.2-.6.2h-.6l-.6.2h-4.6l-.6-.2h-.6l-.6-.2-.5-.2-.5-.3-.6-.2-.4-.3-.6-.3-.5-.4-.4-.3a6,6,0,0,1-.8-.8h-.1Z"/></svg>