<svg xmlns="http://www.w3.org/2000/svg" viewBox="0 0 256 256"><path d="M220,78.5V72a44,44,0,0,0-44-44H80A44,44,0,0,0,36,72v6.5a52,52,0,0,0,0,99V200a20.1,20.1,0,0,0,20,20H200a20.1,20.1,0,0,0,20-20V177.5a52,52,0,0,0,0-99ZM80,52h96a20.1,20.1,0,0,1,20,20v4.6A52.1,52.1,0,0,0,152.2,124H103.8A52.1,52.1,0,0,0,60,76.6V72A20.1,20.1,0,0,1,80,52ZM206.8,155.9A11.9,11.9,0,0,0,196,167.8V196H60V167.8a11.9,11.9,0,0,0-10.8-11.9A28,28,0,1,1,80,128v36a12,12,0,0,0,24,0V148h48v16a12,12,0,0,0,24,0V128a28,28,0,1,1,30.8,27.9Z"/></svg>