<svg id="Flat" xmlns="http://www.w3.org/2000/svg" viewBox="0 0 256 256">
  <path d="M220,78.5293V72a44.04978,44.04978,0,0,0-44-44H80A44.04978,44.04978,0,0,0,36,72v6.5293a52.01849,52.01849,0,0,0,0,98.98144V200a20.0226,20.0226,0,0,0,20,20H200a20.0226,20.0226,0,0,0,20-20V177.51074a52.01849,52.01849,0,0,0,0-98.98144ZM80,52h96a20.0226,20.0226,0,0,1,20,20v4.6167A52.08942,52.08942,0,0,0,152.16919,124H103.83081A52.08942,52.08942,0,0,0,60,76.6167V72A20.0226,20.0226,0,0,1,80,52ZM206.81445,155.86133A11.99991,11.99991,0,0,0,196,167.80273V196H60V167.80273a11.99991,11.99991,0,0,0-10.81445-11.9414A28.00149,28.00149,0,1,1,80,128v36a12,12,0,0,0,24,0V148h48v16a12,12,0,0,0,24,0V128a28,28,0,1,1,30.81445,27.86133Z"/>
</svg>
