<svg id="Flat" xmlns="http://www.w3.org/2000/svg" viewBox="0 0 256 256">
  <path d="M224.48535,88.48535a12.00033,12.00033,0,0,1-16.9707,0L180,60.9707V168a68,68,0,0,1-136,0V80a12,12,0,0,1,24,0v88a44,44,0,0,0,88,0V60.9707L128.48535,88.48535a12.0001,12.0001,0,1,1-16.9707-16.9707l48-48c.01855-.01856.0393-.03418.0581-.05274.262-.2583.53418-.50634.8191-.74023.147-.12109.302-.22607.45312-.33887.16284-.12109.32129-.24707.49023-.36035.17505-.11719.35718-.21924.53687-.32617.15625-.09326.30908-.19141.47022-.27783.18212-.09717.36914-.18018.55468-.26709.16944-.08008.33594-.16455.50977-.23682.17944-.07422.36279-.13428.54492-.19922.1875-.06738.37256-.13916.56421-.19775.17969-.0542.3623-.09375.5437-.13965.19849-.04981.39453-.10547.59668-.14551.20508-.04053.41235-.06445.6189-.09472.1809-.02588.35888-.06006.54223-.07813q.56763-.05567,1.13819-.05713C167.97046,20.002,167.98486,20,168,20s.02954.002.04443.00244q.56983.00221,1.13819.05713c.1831.01807.36084.05225.5415.07813.207.03027.41431.05419.61963.09472.20215.04.398.0957.59619.14551.18164.0459.36426.08545.54419.13965.1919.05859.37695.13037.5647.19775.18188.06494.365.125.54419.19922.17407.07227.34106.15674.511.23682.18531.0874.37207.16992.55371.26709.16065.08593.313.18408.46924.27734.18018.10693.36231.20947.53809.32666.16846.11279.32641.23828.48828.35938.15186.11279.30737.21875.45483.33984.28492.23389.55713.48193.8191.74023.01879.01856.03955.03418.0581.05274l48,48A11.99975,11.99975,0,0,1,224.48535,88.48535Z"/>
</svg>
