<svg id="Flat" xmlns="http://www.w3.org/2000/svg" viewBox="0 0 256 256">
  <path d="M140,40V216a12,12,0,0,1-24,0V40a12,12,0,0,1,24,0ZM97.625,135.14429c.11816-.15869.24121-.31324.35156-.47779.12012-.17993.2251-.3667.335-.55151.08985-.15173.18555-.29968.269-.45557.09961-.186.18408-.37719.27343-.56713.07764-.16553.16016-.32789.23047-.49732.07666-.18481.13867-.37353.20557-.56128.06494-.18176.13476-.361.19141-.54663.05712-.18945.0996-.38184.14746-.57324.04687-.18848.10009-.374.13818-.56592.044-.22131.07031-.44482.10156-.66772.02344-.16492.05518-.32691.07129-.49378a12.03958,12.03958,0,0,0,0-2.3728c-.01611-.16687-.04785-.32886-.07129-.49378-.03125-.2229-.05761-.44641-.10156-.66772-.03809-.19189-.09131-.37744-.13818-.56592-.04786-.1914-.09034-.38379-.14746-.57324-.05665-.18567-.12647-.36487-.19141-.54663-.0669-.18762-.12891-.37647-.20557-.56128-.07031-.16956-.15283-.332-.23095-.49756-.08887-.18982-.17334-.38086-.273-.56689-.0835-.15589-.1792-.30384-.269-.45557-.10986-.18481-.21484-.37158-.335-.55151-.11035-.16455-.2334-.3191-.35156-.47779-.11523-.155-.22314-.31347-.34668-.464-.22412-.27282-.46289-.53308-.71-.785-.02881-.02979-.05322-.0625-.083-.092l-32-32a12.0001,12.0001,0,0,0-16.9707,16.9707L59.0293,116H12a12,12,0,0,0,0,24H59.0293L47.51465,151.51465a12.0001,12.0001,0,0,0,16.9707,16.9707l32-32c.02979-.02954.0542-.06225.083-.092.24707-.252.48584-.51221.71-.785C97.40186,135.45776,97.50977,135.29932,97.625,135.14429ZM244,116H196.9707l11.51465-11.51465a12.0001,12.0001,0,0,0-16.9707-16.9707l-32,32c-.02979.02954-.0542.06225-.083.092-.24707.25195-.48584.51221-.71.785-.12354.15052-.23145.309-.34668.464-.11816.15869-.24121.31324-.35156.47779-.12012.17993-.2251.3667-.335.55151-.08985.15173-.18555.29968-.269.45557-.10009.18664-.18505.37841-.27392.56909-.07764.16455-.16016.32617-.23.49475-.07666.18555-.13916.37512-.20606.5636-.06494.18115-.13476.35974-.19092.54492-.05712.18945-.0996.38184-.14746.57324-.04687.18848-.10009.374-.13818.56592-.04395.22131-.07031.44482-.10156.66772-.02344.16492-.05518.32691-.07129.49378a12.03958,12.03958,0,0,0,0,2.3728c.01611.16687.04785.32886.07129.49378.03125.2229.05761.44641.10156.66772.03809.19189.09131.37744.13818.56592.04786.1914.09034.38379.14746.57324.05616.18518.126.36377.19092.54517.0669.18835.1294.3778.20606.56323.06982.16858.15234.33008.22949.49463.08936.19067.17432.38257.27441.56933.0835.15589.1792.30384.269.45557.10986.18481.21484.37158.335.55151.11035.16455.2334.3191.35156.47779.11523.155.22314.31347.34668.464.22412.27282.46289.53308.71.785.02881.02979.05322.0625.083.092l32,32a12.0001,12.0001,0,0,0,16.9707-16.9707L196.9707,140H244a12,12,0,0,0,0-24Z"/>
</svg>
