<svg id="Flat" xmlns="http://www.w3.org/2000/svg" viewBox="0 0 256 256">
  <path d="M208.48535,184.48535l-48,48c-.02978.02979-.063.05469-.093.084-.25171.24658-.51123.48486-.78369.70849-.15014.12354-.3081.231-.46264.346-.15943.11841-.31446.24219-.48.35278-.17749.11914-.36206.22241-.54444.33081-.15429.0918-.30469.18872-.46338.27368-.18286.09815-.37109.18116-.55786.2688-.16846.07935-.334.16358-.50659.23511-.18066.07471-.365.13525-.54834.20068-.18628.0669-.37012.13843-.56079.19629-.18213.05518-.36743.09571-.55151.14185-.19556.04932-.38868.104-.5879.14355-.21044.04175-.42309.06665-.635.09693-.17554.02514-.34839.05859-.52613.07593C152.79028,235.979,152.39526,236,152,236s-.79028-.021-1.18408-.05981c-.178-.01734-.35083-.05079-.52661-.07593-.21192-.03052-.42408-.05518-.63428-.09693-.19946-.03955-.39282-.09448-.58862-.14379-.18409-.04615-.36914-.08643-.551-.14161-.19043-.05761-.37427-.12915-.5603-.196-.1836-.06568-.36817-.12622-.54883-.20093-.17236-.07153-.3374-.15527-.50562-.23462-.18725-.08789-.37573-.17114-.55883-.26929-.15918-.085-.31006-.18237-.4646-.27441-.18189-.10815-.36573-.21118-.543-.32983-.166-.11109-.32178-.23536-.48194-.35425-.1538-.11475-.31127-.22168-.46093-.34473-.27246-.22363-.532-.46191-.78369-.70849-.03-.0293-.06324-.0542-.093-.084l-48-48a12.0001,12.0001,0,0,1,16.9707-16.9707L140,195.0293V128A84.09562,84.09562,0,0,0,56,44a12,12,0,0,1,0-24A108.12186,108.12186,0,0,1,164,128v67.0293l27.51465-27.51465a12.0001,12.0001,0,0,1,16.9707,16.9707Z"/>
</svg>
