<svg id="Flat" xmlns="http://www.w3.org/2000/svg" viewBox="0 0 256 256">
  <path d="M216.48535,56.48535,180.9707,92H200a12,12,0,0,1,0,24H152c-.395,0-.79-.021-1.18408-.05981-.17822-.01734-.35108-.05079-.52686-.07593-.21142-.03052-.42383-.05518-.63379-.09693-.1997-.03955-.39306-.09436-.58886-.14367-.18409-.04627-.36914-.08655-.55127-.14173-.18994-.05774-.374-.12915-.56006-.196-.1836-.06555-.36817-.1261-.54883-.20093-.17236-.07153-.3374-.15527-.50586-.23462-.187-.08789-.37549-.17114-.55859-.26916-.15918-.08521-.31006-.1825-.46485-.27454-.18164-.10815-.36572-.21118-.54248-.32983-.166-.11109-.32226-.23535-.48193-.35425-.1543-.11463-.31152-.22168-.46094-.34473-.27246-.22363-.53222-.46191-.78418-.70849-.02978-.02942-.063-.05408-.09277-.084-.02979-.02954-.0542-.06225-.083-.092-.24707-.25195-.48584-.51221-.71-.785-.12354-.15052-.23145-.309-.34668-.464-.11816-.15869-.24121-.31324-.35156-.47779-.12012-.17993-.2251-.3667-.335-.55151-.08985-.15173-.18555-.29968-.269-.45557-.10009-.18676-.18505-.37866-.27441-.56933-.07715-.16455-.15967-.32605-.22949-.49463-.07666-.18543-.13916-.37488-.20606-.56323-.06494-.1814-.13476-.36-.19092-.54517-.05712-.18945-.0996-.38184-.14746-.57324-.04687-.18848-.10009-.374-.13818-.56592-.04395-.22131-.07031-.44482-.10156-.66772-.02344-.16492-.05518-.32691-.07129-.49378-.03906-.39612-.06006-.79382-.06006-1.19153V56a12,12,0,0,1,24,0V75.0293l35.51465-35.51465a12.0001,12.0001,0,0,1,16.9707,16.9707ZM115.93994,150.8136c-.01611-.16687-.04785-.32886-.07129-.49378-.03125-.2229-.05761-.44641-.10156-.66772-.03809-.19189-.09131-.37744-.13818-.56592-.04786-.1914-.09034-.38379-.14746-.57324-.05665-.18567-.12647-.36487-.19141-.54663-.0669-.18762-.12891-.37647-.20557-.56128-.07031-.16956-.15283-.332-.23095-.49756-.08887-.18982-.17334-.38086-.273-.56689-.0835-.15589-.1792-.30384-.269-.45557-.10986-.18481-.21484-.37158-.335-.55151-.11035-.16455-.2334-.3191-.35156-.47779-.11523-.155-.22314-.31347-.34668-.464-.22412-.27282-.46289-.53308-.71-.785-.02881-.02979-.05322-.0625-.083-.092-.0293-.02954-.062-.05383-.0918-.083-.252-.24695-.5122-.4856-.78515-.70972-.14844-.12194-.30469-.22827-.45752-.342-.16113-.11987-.31787-.24487-.48535-.35669-.1753-.11743-.35694-.21923-.53662-.32629-.15723-.09363-.31055-.19226-.47217-.27893-.17822-.09509-.36084-.17578-.54248-.26123-.17383-.08228-.34522-.16907-.52344-.243-.17334-.07154-.3501-.129-.52539-.19226-.19434-.07-.38623-.14417-.58447-.20435-.17188-.05188-.34619-.0896-.51953-.13355-.20606-.05249-.41016-.10986-.62012-.15148-.19238-.03809-.38672-.05994-.58057-.08851s-.38525-.06481-.582-.084c-.33252-.03271-.6665-.04565-1.00049-.05054-.06006-.001-.11816-.009-.17822-.009H56a12,12,0,0,0,0,24H75.0293L39.51465,199.51465a12.0001,12.0001,0,0,0,16.9707,16.9707L92,180.9707V200a12,12,0,0,0,24,0V152.00513C116,151.60742,115.979,151.20972,115.93994,150.8136Z"/>
</svg>
