<svg id="Flat" xmlns="http://www.w3.org/2000/svg" viewBox="0 0 256 256">
  <path d="M54.72021,48.39374q.36622-.44651.77344-.856l.021-.02307c.00732-.00751.01562-.01361.02344-.02112q.40869-.40668.85546-.77313c.14161-.11658.291-.218.437-.327.16748-.12524.33154-.25512.50537-.37164.17383-.11633.35449-.21722.53271-.32349.15772-.09405.31153-.19317.47412-.28009.18164-.09729.36866-.17981.5542-.26709.16944-.07989.33594-.16449.50977-.23651.18115-.07513.3667-.13586.55078-.20172.18506-.06628.36768-.13733.55664-.19464.18652-.05646.376-.098.56445-.14514.19092-.04791.3794-.10156.57422-.1402.21973-.04358.44141-.06989.6626-.10114.1665-.02343.33008-.05535.498-.07189.39648-.03913.79394-.06006,1.1914-.05988H164a12,12,0,0,1,0,24H92.9707l91.51465,91.51465a12.0001,12.0001,0,0,1-16.9707,16.9707L76,84.9707V156a12,12,0,0,1-24,0V56.00128c0-.39581.021-.79144.05957-1.18567.01758-.17651.05078-.34784.07568-.52209.03028-.21326.05518-.427.09717-.63867.04-.20008.09473-.394.14453-.5904.0459-.1831.08594-.36718.14063-.5484.05859-.1925.13086-.37842.19824-.56671.06494-.18109.12451-.36334.19824-.54181.07324-.17615.15918-.345.24024-.51684.08593-.18311.16748-.36762.26367-.54706.08838-.1651.189-.322.28467-.48242.105-.17548.2041-.35315.31884-.52423.11817-.17682.25-.34321.377-.51319C54.50586,48.68042,54.60547,48.53326,54.72021,48.39374ZM216,203.99609H40a12,12,0,0,0,0,24H216a12,12,0,0,0,0-24Z"/>
</svg>
