<svg id="Flat" xmlns="http://www.w3.org/2000/svg" viewBox="0 0 256 256">
  <path d="M240.48535,104.48535l-96,96a12.00033,12.00033,0,0,1-16.9707,0L36,108.9707V152a12,12,0,0,1-24,0V80.00513c-.00024-.39771.02075-.79541.05994-1.19153.01648-.16687.04809-.32886.07116-.49378.0315-.2229.058-.44641.10205-.66772.038-.1919.09107-.37744.13819-.56592.04773-.1914.09009-.38379.14734-.57324.05627-.18518.12585-.36377.19055-.54492.06714-.18848.12939-.37805.2063-.5636.07007-.16858.15234-.3302.22973-.49475.08936-.19068.1742-.38245.27417-.56909.0835-.15589.179-.30384.26917-.45557.10974-.18481.21448-.37158.33508-.55151.11023-.16455.23328-.3191.35132-.47779.11523-.155.22314-.31347.34692-.464.22412-.27282.46265-.53308.70948-.785.02929-.02979.05371-.0625.08325-.092s.062-.05383.0918-.083c.25207-.24695.51232-.4856.7854-.70972.1477-.12158.30346-.22754.45568-.34082.16175-.12036.31946-.24585.48719-.35815.1748-.11694.35608-.21851.5354-.32532.15747-.09387.31128-.19275.47314-.27966.17822-.09522.36157-.176.54334-.26172.1737-.082.34448-.16858.52258-.24243.17334-.07166.35034-.1294.52612-.19263.19385-.06982.3855-.144.584-.2041.17138-.05176.3457-.0896.51892-.13355.2063-.05249.4104-.10986.62085-.15148.192-.038.386-.05994.57947-.08851.19409-.02856.38562-.06481.58276-.084.33276-.03271.6665-.04565,1.00061-.05054.05994-.001.118-.009.1781-.009H96a12,12,0,0,1,0,24H52.9707L136,175.0293l87.51465-87.51465a12.0001,12.0001,0,0,1,16.9707,16.9707Z"/>
</svg>
