<svg id="Flat" xmlns="http://www.w3.org/2000/svg" viewBox="0 0 256 256">
  <path d="M167.51465,127.51465,195.0293,100H88a44,44,0,0,0,0,88h88a12,12,0,0,1,0,24H88A68,68,0,0,1,88,76H195.0293L167.51465,48.48535a12.0001,12.0001,0,0,1,16.9707-16.9707l48,48c.01929.01953.03516.04053.0542.06006.25806.26123.50562.5332.739.81738.12085.147.22583.30176.33863.45264.12109.16259.24707.32129.35986.48974.11914.17774.22217.36182.33057.544.09155.15381.18847.3042.27343.46289.09864.18408.18238.374.27076.562.07861.167.16211.33105.23315.50244.07593.18311.13721.37061.20361.55664.06568.18311.13623.36377.19288.55127.05712.188.09912.3794.14648.56983.04761.189.10083.376.13916.56884.0437.22071.07031.44336.10156.666.0232.16553.05518.32764.07154.49512a12.08048,12.08048,0,0,1,0,2.373c-.01636.16748-.04834.32959-.07154.49512-.03125.22266-.05786.44531-.10156.666-.03833.19287-.09155.37988-.13916.56884-.04736.19043-.08936.38184-.14648.56983-.05665.1875-.1272.36816-.19288.55127-.0664.186-.12768.37353-.20361.55664-.071.17138-.15454.33545-.23315.50244-.08838.188-.17212.37793-.27076.562-.085.15869-.18188.30908-.27343.46289-.1084.18213-.21143.36621-.33057.544-.11279.16845-.23877.32715-.35986.48974-.1128.15088-.21778.30567-.33863.45264-.23339.28418-.481.55615-.739.81738-.019.01953-.03491.04053-.0542.06006l-48,48a12.0001,12.0001,0,0,1-16.9707-16.9707Z"/>
</svg>
