<svg id="Flat" xmlns="http://www.w3.org/2000/svg" viewBox="0 0 256 256">
  <path d="M71.51465,176.48535a11.99973,11.99973,0,0,1,0-16.9707L163.0293,68H92a12,12,0,0,1,0-24h99.99512c.39746-.00018.79492.02075,1.1914.05988.168.01654.33155.04846.49805.07189.22119.03125.44287.05756.6626.10114.19482.03864.3833.09229.57422.1402.18847.04718.37793.08868.56445.14514.189.05725.37109.12823.55566.1944.18457.06591.37061.12683.55225.20208.17334.072.33936.15638.50879.23609.18555.0874.37305.16992.55469.26739.16259.08692.3164.186.47412.28009.17822.10627.35888.20716.53271.32349.17383.11652.33789.2464.50537.37164.146.109.29541.21039.437.327q.44678.36612.85546.77313c.00782.00751.01612.01361.02344.02112l.021.02307q.40649.40905.77344.856c.11474.13952.21435.28668.32177.43005.127.17.25879.33637.377.51319.11474.17108.21386.34875.31884.52423.09571.1604.19629.31732.28467.48242.09619.17944.17774.364.26367.54706.08106.17181.167.34069.24024.51684.07373.17847.1333.36072.19824.54181.06738.18829.13965.37421.19824.56671.05469.18122.09473.3653.14063.5484.0498.19641.10449.39032.14453.5904.042.21167.06689.42541.09717.63867.0249.17425.0581.34558.07568.52209.03857.39423.05957.78986.05957,1.18567V156a12,12,0,0,1-24,0V84.9707L88.48535,176.48535a12.00033,12.00033,0,0,1-16.9707,0ZM216,203.99609H40a12,12,0,0,0,0,24H216a12,12,0,0,0,0-24Z"/>
</svg>
