<svg id="Flat" xmlns="http://www.w3.org/2000/svg" viewBox="0 0 256 256">
  <path d="M236,64a12.00028,12.00028,0,0,1-12,12H92V179.0293l27.51465-27.51465a12.0001,12.0001,0,0,1,16.9707,16.9707l-48,48c-.019.01892-.03979.03443-.05884.05322-.26172.25831-.53369.50586-.81811.73951-.1499.12317-.30762.23071-.46192.34546-.15966.11865-.31494.24243-.48046.35327-.17823.11938-.36329.22314-.54639.332-.15357.09131-.30322.18762-.46069.27221-.18433.09864-.37378.18238-.562.27063-.16723.07874-.3313.16224-.50268.23328-.18213.07544-.36817.13648-.553.20239-.18481.06629-.36694.13721-.55591.19446-.18335.05554-.36963.09619-.55493.1427-.19458.04907-.387.10352-.58521.14282-.21069.04175-.42334.06665-.63574.09705-.17529.025-.34765.05847-.52539.07581C80.79028,219.979,80.39526,220,80,220s-.79028-.021-1.18408-.05981c-.17774-.01734-.35059-.05079-.52613-.07593-.21191-.03028-.42456-.05518-.63476-.09693-.19849-.0393-.39111-.094-.58594-.14294-.1853-.04651-.37134-.08716-.55444-.14258-.18872-.05725-.37085-.12805-.55542-.19421-.18506-.06616-.37134-.1272-.55371-.20264-.1709-.071-.33472-.1543-.50147-.23279-.18847-.0885-.37817-.17236-.56274-.27112-.1582-.08471-.30811-.18139-.46192-.27294-.18261-.10865-.36718-.212-.54516-.33106-.166-.11133-.322-.23547-.48218-.35474-.15381-.1145-.31128-.22143-.46045-.34423-.28442-.23365-.55639-.4812-.81811-.73951-.01905-.01879-.0398-.0343-.05884-.05322l-48-48a12.0001,12.0001,0,0,1,16.9707-16.9707L68,179.0293V64A12.00028,12.00028,0,0,1,80,52H224A12.00028,12.00028,0,0,1,236,64Z"/>
</svg>
