<svg id="Flat" xmlns="http://www.w3.org/2000/svg" viewBox="0 0 256 256">
  <path d="M208.48535,143.51855a12.0001,12.0001,0,0,1-16.9707,16.97071L140,108.97461v115.0293a12,12,0,1,1-24,0V108.97461L64.48535,160.48926a12.0001,12.0001,0,0,1-16.9707-16.97071l72-72c.00732-.00756.01562-.01367.02344-.021q.40869-.40686.85546-.77319c.14161-.1167.291-.218.437-.32691.16748-.12549.33154-.25537.50537-.37183.17383-.11621.35449-.217.53271-.32348.15772-.094.31153-.19312.47412-.28.18164-.09741.36866-.17993.5542-.26709.16944-.07983.33594-.16455.50977-.23657.18115-.0752.3667-.13575.55078-.20166.18506-.06641.36768-.13721.55664-.19458.18652-.0564.376-.0979.56445-.14527.19092-.04785.3794-.10156.57422-.14013.21973-.04346.44141-.06983.6626-.10108.1665-.02344.33008-.05542.498-.072a12.08048,12.08048,0,0,1,2.373,0c.168.0166.33155.04858.49805.072.22119.03125.44287.05762.6626.10108.19482.03857.3833.09228.57422.14013.18847.04737.37793.08887.56445.14527.189.05713.37109.12817.55566.19433.18457.06592.37061.12671.55225.20215.17334.072.33936.15625.50879.23609.18555.0874.37305.16992.55469.26733.16259.08691.3164.186.47412.28.17822.10644.35888.20727.53271.32348.17383.11646.33789.24634.50537.37183.146.10889.29541.21021.437.32691q.44678.36584.85546.77319c.00782.00732.01612.01343.02344.021ZM216,28H40a12,12,0,0,0,0,24H216a12,12,0,0,0,0-24Z"/>
</svg>
