<svg id="Flat" xmlns="http://www.w3.org/2000/svg" viewBox="0 0 256 256">
  <path d="M232.53955,184.42529c-.019.01953-.03467.04053-.0542.06006l-32,32a12.0001,12.0001,0,0,1-16.9707-16.9707L195.0293,188H32a12,12,0,0,1,0-24H195.0293l-11.51465-11.51465a12.0001,12.0001,0,0,1,16.9707-16.9707l32,32c.01953.01953.03516.04053.0542.06006.2583.26123.50586.5332.73926.81738.12109.14746.22656.30273.33935.4541.12061.16211.2461.31983.35889.48828.11914.17823.22315.3628.332.54639.09082.15283.1875.30225.272.46.09864.18506.18311.375.27149.56445.07861.166.16162.32959.23242.5.07617.18409.1377.37159.2041.55811.06543.1831.13574.36328.19239.5498.05712.18848.09912.38037.14648.5708.04736.189.10059.37549.13916.56836.04395.22071.07031.44385.10156.66651.02344.165.05518.32763.07129.49463a12.042,12.042,0,0,1,0,2.373c-.01611.167-.04785.32959-.07129.49463-.03125.22266-.05761.4458-.10156.66651-.03857.19287-.0918.37939-.13916.56836-.04736.19043-.08936.38232-.14648.5708-.05665.18652-.127.3667-.19239.5498-.0664.18652-.12793.374-.2041.55811-.0708.17041-.15381.334-.23242.5-.08838.18945-.17285.37939-.27149.56445-.08447.15771-.18115.30713-.272.46-.10888.18359-.21289.36816-.332.54639-.11279.16845-.23828.32617-.35889.48828-.11279.15137-.21826.30664-.33935.4541C233.04541,183.89209,232.79785,184.16406,232.53955,184.42529ZM22.38184,72.84619c-.12061.16211-.2461.31983-.35889.48828-.11914.17823-.22315.3628-.332.54639-.09082.15283-.1875.30225-.272.46-.09913.18555-.1836.37647-.27247.56641-.07812.16552-.16064.32812-.23095.49756-.07666.18457-.13867.373-.20508.56054-.06543.18213-.13525.36182-.1919.54785-.05712.18848-.09912.38037-.14648.5708-.04736.189-.10059.37549-.13916.56836-.04395.22071-.07031.44385-.10156.66651-.02344.165-.05518.32763-.07129.49463a12.042,12.042,0,0,0,0,2.373c.01611.167.04785.32959.07129.49463.03125.22266.05761.4458.10156.66651.03857.19287.0918.37939.13916.56836.04736.19043.08936.38232.14648.5708.05665.186.12647.36572.1919.54785.06641.1875.12842.376.20508.56054.07031.16944.15283.332.231.49756.08887.18994.17334.38086.27247.56641.08447.15771.18115.30713.272.46.10888.18359.21289.36816.332.54639.11279.16845.23828.32617.35889.48828.11279.15137.21826.30664.33935.4541.2334.28418.481.55615.73926.81738.019.01953.03467.04053.0542.06006l32,32a12.0001,12.0001,0,0,0,16.9707-16.9707L60.9707,92H224a12,12,0,0,0,0-24H60.9707L72.48535,56.48535a12.0001,12.0001,0,0,0-16.9707-16.9707l-32,32c-.01953.01953-.03516.04053-.0542.06006-.2583.26123-.50586.5332-.73926.81738C22.6001,72.53955,22.49463,72.69482,22.38184,72.84619Z"/>
</svg>
