<svg id="Flat" xmlns="http://www.w3.org/2000/svg" viewBox="0 0 256 256">
  <path d="M208.48535,88.48535a12.00033,12.00033,0,0,1-16.9707,0L164,60.9707V128A108.12186,108.12186,0,0,1,56,236a12,12,0,0,1,0-24,84.09562,84.09562,0,0,0,84-84V60.9707L112.48535,88.48535a12.0001,12.0001,0,0,1-16.9707-16.9707l48-48c.02954-.0293.062-.05371.0918-.083.25195-.24707.5122-.48584.7854-.71.1477-.12109.30346-.227.45581-.34082.16162-.12012.31933-.24561.48706-.35791.1748-.11719.3562-.21826.5354-.3252.15747-.09423.31128-.19287.47314-.27978.17822-.09522.36157-.17578.54346-.26172.17358-.082.34424-.16846.52246-.24219.17334-.07177.35034-.12988.52612-.19287.19385-.06982.3855-.144.584-.2041.17138-.05176.3457-.08936.5188-.1333.20654-.05274.41064-.11035.62109-.15186.19189-.03808.38574-.06006.57935-.08838.19409-.0288.38549-.06494.58276-.084.33276-.03271.6665-.0459,1.00049-.05078C151.88184,20.0083,151.93994,20,152,20s.11816.0083.17822.00879c.334.00488.66773.01807,1.00049.05078.197.019.38818.05518.58228.084.1936.02832.38794.0503.58007.08838.21021.04151.41431.09912.62037.15137.17334.04443.34765.082.51928.13379.19873.06006.39038.13428.58472.20459.17529.063.35229.12061.52515.19189.17846.07422.34985.16065.52368.24317.18164.08545.3645.166.54248.26123.16162.08642.31494.18555.47192.27881.17993.10693.36182.209.53687.32617.16723.1123.32422.23682.48535.35693.15283.11377.30908.22022.45727.3418.2732.22412.53345.46289.7854.71.02979.0293.06226.05371.0918.083l48,48A11.99975,11.99975,0,0,1,208.48535,88.48535Z"/>
</svg>
