<svg xmlns="http://www.w3.org/2000/svg" viewBox="0 0 256 256"><path d="M140,104V64a12,12,0,0,1,24,0V75l35.5-35.5a12,12,0,0,1,17,17L181,92h11a12,12,0,0,1,0,24H152A12,12,0,0,1,140,104Zm-36,36H64a12,12,0,0,0,0,24H75L39.5,199.5a12,12,0,0,0,0,17,12.1,12.1,0,0,0,17,0L92,181v11a12,12,0,0,0,24,0V152A12,12,0,0,0,104,140Zm77,24h11a12,12,0,0,0,0-24H152a12,12,0,0,0-12,12v40a12,12,0,0,0,24,0V181l35.5,35.5a12.1,12.1,0,0,0,17,0,12,12,0,0,0,0-17ZM104,52A12,12,0,0,0,92,64V75L56.5,39.5a12,12,0,0,0-17,17L75,92H64a12,12,0,0,0,0,24h40a12,12,0,0,0,12-12V64A12,12,0,0,0,104,52Z"/></svg>