<svg id="Flat" xmlns="http://www.w3.org/2000/svg" viewBox="0 0 256 256">
  <path d="M244,80.00513V152a12,12,0,0,1-24,0V108.9707l-91.51465,91.51465a12.00033,12.00033,0,0,1-16.9707,0l-96-96a12.0001,12.0001,0,0,1,16.9707-16.9707L120,175.0293,203.0293,92H160a12,12,0,0,1,0-24h72c.06006,0,.11816.00806.17822.009.334.00489.66773.01783,1.00049.05054.197.01917.38818.0553.58228.084.1936.02857.38794.05042.58007.08851.21021.04162.41431.099.62037.15148.17334.044.34765.08167.51928.13355.19873.06018.39038.1344.58472.20435.17529.06323.35229.12072.52515.19226.17846.074.34985.16076.52368.243.18164.08545.3645.16614.54248.26123.16162.08667.31494.1853.47192.27893.17993.10705.36182.20886.53687.32629.16723.11182.32422.23682.48535.35669.15283.11377.30908.2201.45727.342.2732.22412.53345.46277.7854.70972.02979.02918.06226.05347.0918.083s.054.06225.08325.092c.24683.25195.48536.51221.70948.785.12378.15052.23169.309.34692.464.11816.15869.24121.31324.35132.47779.1206.17993.22534.3667.3352.55151.09009.15173.18555.29968.269.45557.09961.186.18408.37707.27319.56689.07788.16553.1604.328.231.49756.07641.18481.13842.37366.20532.56128.06518.18176.135.361.19141.54663.05712.18945.0996.38184.14721.57324.04712.18848.10034.374.13819.56592.04419.22131.07055.44482.102.66772.02319.16492.05468.32691.071.49378C243.97925,79.20972,244.00024,79.60742,244,80.00513Z"/>
</svg>
