<svg id="Flat" xmlns="http://www.w3.org/2000/svg" viewBox="0 0 256 256">
  <path d="M236.00391,128a12.00028,12.00028,0,0,1-12,12H108.97461l51.51465,51.51465a12.0001,12.0001,0,0,1-16.97071,16.9707l-72-72c-.00781-.00732-.01367-.01562-.021-.02307q-.40723-.409-.77393-.85608c-.11426-.1394-.21386-.28662-.32129-.42993-.12744-.17-.25927-.33643-.37744-.51318-.11474-.17115-.21386-.34888-.31836-.5243-.09619-.1604-.19677-.31726-.28515-.48242-.09571-.1792-.17725-.36352-.26319-.54638-.081-.17212-.167-.34119-.24023-.5177-.07373-.17823-.1333-.36011-.19824-.54078-.06739-.18872-.13965-.37475-.19825-.56762-.05468-.18116-.09472-.36524-.14111-.54834-.04932-.19641-.10449-.39038-.144-.59034-.042-.21167-.0669-.42553-.09766-.63867-.0249-.17431-.05762-.3457-.07519-.52221a12.07306,12.07306,0,0,1,0-2.36866c.01757-.17651.05029-.3479.07519-.52221.03076-.21314.05567-.427.09766-.63867.03955-.2.09472-.39393.144-.59034.04639-.1831.08643-.36718.14111-.54834.05811-.19262.13038-.37841.19825-.56677.06494-.181.12451-.3634.19824-.54187.07324-.176.15869-.345.23974-.51685.08643-.1831.16749-.36755.26368-.547.08838-.16516.189-.322.28515-.48242.1045-.17542.20362-.35315.31836-.5243.11817-.17675.25-.34314.37744-.51318.10743-.14331.207-.29053.32129-.42993q.36695-.4466.77393-.85608c.00732-.00745.01318-.01575.021-.02307l72-72a12.0001,12.0001,0,0,1,16.97071,16.9707L108.97461,116h115.0293A12.00028,12.00028,0,0,1,236.00391,128ZM40,28A12,12,0,0,0,28,40V216a12,12,0,0,0,24,0V40A12,12,0,0,0,40,28Z"/>
</svg>
