<svg id="Flat" xmlns="http://www.w3.org/2000/svg" viewBox="0 0 256 256">
  <path d="M79.833,111.71582h-48c-.39527,0-.79029-.021-1.184-.05981-.17786-.0174-.35071-.05072-.52625-.07587-.21191-.0304-.42444-.05524-.63476-.09692-.19861-.03937-.39112-.094-.58594-.143-.18518-.04651-.37134-.08716-.55444-.14258-.18872-.05719-.37085-.12805-.55542-.19421-.18506-.06616-.37134-.12726-.55371-.2027-.1709-.07092-.33472-.15424-.50147-.23273-.18848-.08844-.37817-.17236-.56287-.27111-.15808-.08472-.3081-.18146-.46179-.273-.18261-.10859-.36719-.212-.54516-.33112-.166-.11127-.32215-.23541-.4823-.35461-.15369-.11451-.31116-.22156-.46045-.34436-.2843-.23353-.55628-.48121-.818-.73945-.019-.01879-.03991-.0343-.05883-.05322s-.03467-.0401-.05347-.0592c-.25855-.2619-.50635-.53406-.74-.81873-.12012-.146-.22461-.29992-.33667-.45019-.1217-.16321-.24829-.32245-.3617-.49189-.11853-.17712-.22155-.3609-.32971-.54278-.092-.15442-.18921-.30512-.27417-.46393-.09887-.18451-.18261-.37414-.271-.5625-.07849-.16681-.16187-.33057-.23279-.50146-.076-.18372-.13757-.37128-.20422-.5578-.06543-.183-.13575-.36341-.19239-.55036-.05713-.18829-.09912-.37945-.1466-.56982-.04749-.18933-.10071-.3761-.13892-.56891-.04382-.22077-.07031-.44367-.10168-.66614-.0232-.1654-.05506-.32782-.07154-.4953-.03906-.39618-.06006-.7937-.05981-1.19147V51.71582a12,12,0,0,1,24,0v19.0293l13.456-13.45606a100.11524,100.11524,0,0,1,141.42188,0,12.0001,12.0001,0,0,1-16.97071,16.97071,76.08737,76.08737,0,0,0-107.48046,0l-13.45606,13.456H79.833a12,12,0,0,1,0,24Zm156.27417,43.382c-.01636-.16748-.04834-.3299-.07154-.4953-.03125-.22247-.05786-.44537-.10156-.66614-.03833-.19281-.09155-.37958-.13916-.56891-.04736-.19037-.08935-.38153-.14648-.56982-.05664-.18726-.1272-.368-.19287-.55121-.06641-.1861-.12769-.37329-.20362-.55658-.07129-.17145-.15478-.33582-.2334-.50317-.08837-.18787-.17187-.377-.2705-.5611-.085-.15881-.18213-.30957-.27417-.464-.10816-.18188-.21118-.36566-.32984-.54278-.11328-.16944-.23974-.32868-.36157-.49189-.11206-.15027-.21655-.3042-.33667-.45019-.23364-.28467-.48144-.55683-.74-.81873-.0188-.0191-.03442-.04016-.05347-.0592s-.03979-.03443-.05883-.05322c-.26172-.25824-.5337-.50592-.81812-.73945-.15039-.12377-.30908-.23175-.46411-.3471-.15869-.118-.31323-.24115-.47778-.35138-.18018-.12073-.36719-.22571-.55249-.33563-.15113-.08991-.29859-.18506-.45411-.26838-.18676-.1-.3789-.185-.56982-.27453-.16455-.07733-.32593-.15955-.49438-.22949-.18555-.07679-.37525-.1391-.56348-.20624-.18115-.06476-.35986-.1344-.54492-.19055-.18946-.05732-.38159-.09961-.573-.14734-.18848-.04718-.37451-.10022-.56641-.13831-.22143-.04394-.44458-.07049-.66772-.10187-.1648-.02313-.32666-.05481-.49365-.07122-.39624-.03919-.79395-.06012-1.19165-.05994H176.167a12,12,0,0,0,0,24h19.0293l-13.45606,13.45605a76.08737,76.08737,0,0,1-107.48046,0,12.0001,12.0001,0,0,0-16.97071,16.97071,100.11464,100.11464,0,0,0,141.42188,0L212.167,185.25488v19.0293a12,12,0,0,0,24,0V156.28931C236.16724,155.89154,236.14624,155.494,236.10718,155.09784Z"/>
</svg>
