<svg id="Flat" xmlns="http://www.w3.org/2000/svg" viewBox="0 0 256 256">
  <path d="M212,88v88a12,12,0,0,1-24,0V88a44,44,0,0,0-88,0V195.0293l27.51465-27.51465a12.0001,12.0001,0,0,1,16.9707,16.9707l-48,48c-.01855.01856-.03931.03418-.0581.05274-.262.2583-.53418.50634-.8191.74023-.14746.12109-.303.227-.45483.33984-.16187.1211-.31982.24659-.48828.35938-.17627.11767-.35913.22021-.54.32812-.15527.09229-.30688.19-.4668.27539-.18237.09766-.37011.18067-.55615.26807-.16919.08008-.33545.16455-.50879.23633-.17993.07422-.36352.13428-.54614.19971-.18677.06738-.37134.13867-.5625.19677-.18213.05518-.36743.09571-.55151.14209-.19556.04883-.38868.104-.5879.14356-.21069.0415-.42334.0664-.63574.09668-.17529.02539-.34765.05859-.52539.07617C88.79028,235.979,88.39526,236,88,236s-.79028-.021-1.18408-.05957c-.17774-.01758-.35059-.05078-.52613-.07617-.21191-.03028-.42431-.05518-.63476-.09668-.19946-.03955-.39282-.09473-.58862-.144-.18409-.0459-.36914-.08643-.551-.14161-.19092-.05761-.37524-.12939-.562-.19629-.18262-.06543-.3667-.126-.54663-.20019-.1731-.07178-.33887-.15625-.50781-.23584-.18653-.0874-.37452-.17041-.55713-.26856-.16016-.08544-.31226-.18359-.468-.27636-.18042-.10742-.36279-.20948-.53858-.32715-.16894-.11328-.32739-.23926-.49023-.36035-.15112-.1128-.30615-.21826-.45312-.33887-.28492-.23389-.55713-.48193-.8191-.74023-.0188-.01856-.03955-.03418-.0581-.05274l-48-48a12.0001,12.0001,0,0,1,16.9707-16.9707L76,195.0293V88a68,68,0,0,1,136,0Z"/>
</svg>
