<svg id="Flat" xmlns="http://www.w3.org/2000/svg" viewBox="0 0 256 256">
  <path d="M232.48535,104.48535a12.00033,12.00033,0,0,1-16.9707,0L188,76.9707V192a12.00028,12.00028,0,0,1-12,12H32a12,12,0,0,1,0-24H164V76.9707l-27.51465,27.51465a12.0001,12.0001,0,1,1-16.9707-16.9707l48-48c.019-.01892.03979-.03443.05884-.05322.26172-.2583.53369-.50586.81811-.73951.1499-.12329.30811-.23095.4624-.34594.15943-.11841.3147-.24195.48-.35266.17969-.12049.36622-.2251.55079-.33484.15161-.09009.29956-.18543.45532-.269.18725-.10009.37964-.1853.571-.2749.16407-.07715.32495-.15918.49317-.229.18579-.07691.37549-.13928.56421-.20655.1809-.06469.35937-.13427.54419-.1903.1892-.05725.3811-.09949.57226-.14722.189-.04724.37525-.10034.56738-.13855.22095-.04382.4441-.07031.667-.10168.165-.0232.3269-.05481.49414-.07129a12.06044,12.06044,0,0,1,2.373,0c.167.01648.32886.04809.49366.07116.22314.0315.44628.058.66772.10193.19189.03809.37793.09119.56641.13831.1914.04773.38354.09009.573.14734.18506.05615.36377.12585.54493.19055.18823.06714.37793.12939.56347.2063.16846.06982.32984.1521.49439.22949.19092.08936.383.17444.56982.27441.15552.08338.303.17847.4541.26844.18531.11.37232.215.55249.33557.16455.11035.3191.2334.47779.35144.155.11535.31372.22326.46411.347.28442.23365.55639.48121.81811.73951.019.01879.0398.0343.05884.05322l48,48A11.99975,11.99975,0,0,1,232.48535,104.48535Z"/>
</svg>
