<svg id="Flat" xmlns="http://www.w3.org/2000/svg" viewBox="0 0 256 256">
  <path d="M235.08643,131.4082A11.99986,11.99986,0,0,0,224,124H188v-8a12.00028,12.00028,0,0,0-12-12H80a12.00028,12.00028,0,0,0-12,12v8H32a12.00025,12.00025,0,0,0-8.48535,20.48535l96,96a12.00033,12.00033,0,0,0,16.9707,0l96-96A11.99916,11.99916,0,0,0,235.08643,131.4082ZM128,215.0293,60.9707,148H80a12.00028,12.00028,0,0,0,12-12v-8h72v8a12.00028,12.00028,0,0,0,12,12h19.0293ZM68,44A12.00028,12.00028,0,0,1,80,32h96a12,12,0,0,1,0,24H80A12.00028,12.00028,0,0,1,68,44Zm0,36A12.00028,12.00028,0,0,1,80,68h96a12,12,0,0,1,0,24H80A12.00028,12.00028,0,0,1,68,80Z"/>
</svg>
