<svg id="Flat" xmlns="http://www.w3.org/2000/svg" viewBox="0 0 256 256">
  <path d="M164.76953,195.23047a11.99975,11.99975,0,0,1,0,16.9707l-28.28418,28.28418c-.01562.01563-.03271.02832-.04834.04395-.26269.25927-.53564.5083-.8208.74316-.07812.064-.16211.11865-.2417.18066-.23.17969-.46045.35792-.70312.52051-.06934.04639-.14307.08448-.21289.1294-.26026.167-.52344.33008-.79737.47705-.04883.02588-.10009.04638-.14941.07178-.29785.15478-.60059.30175-.91309.43164-.03271.01318-.06689.023-.10009.03662-.32764.13281-.66065.25488-1.002.35888-.04.01221-.08154.01954-.12207.03125-.33252.09717-.66894.186-1.01318.2544-.09424.019-.19092.02734-.28565.04394-.29052.05079-.58056.10157-.87793.13086a11.87672,11.87672,0,0,1-2.3955,0c-.29786-.02929-.58887-.08056-.87989-.13134-.09424-.01661-.18994-.02442-.28369-.043-.34424-.06885-.68066-.15772-1.01367-.25489-.04-.01171-.08154-.019-.12158-.03125-.34082-.10351-.67285-.22558-.99951-.35791-.03418-.01367-.06934-.02392-.103-.03808-.312-.1294-.61426-.27637-.91211-.43067-.04932-.02588-.10107-.04638-.1499-.07226-.27491-.14746-.53907-.31153-.80078-.479-.06836-.04443-.14112-.08154-.209-.12744-.24316-.16308-.47461-.34179-.70508-.52148-.0791-.06153-.16259-.11621-.24023-.17969-.28516-.23486-.55811-.48389-.8208-.74316-.01563-.01563-.03272-.02832-.04834-.04395L91.23047,212.20117a12.0001,12.0001,0,0,1,16.9707-16.9707L116,203.0293V160a12,12,0,0,1,24,0v43.0293l7.79883-7.79883A11.99975,11.99975,0,0,1,164.76953,195.23047ZM108.20117,60.76953,116,52.9707V96a12,12,0,0,0,24,0V52.9707l7.79883,7.79883a12.0001,12.0001,0,0,0,16.9707-16.9707L136.48535,15.51465c-.01562-.01563-.03271-.02832-.04834-.04395-.26269-.25927-.53564-.5083-.8208-.74316-.07812-.064-.16211-.11865-.2417-.18066-.23-.17969-.46045-.35792-.70312-.52051-.06934-.04639-.14307-.08448-.21289-.1294-.26026-.167-.52344-.33008-.79737-.47705-.04883-.02588-.10009-.04638-.14941-.07178-.29785-.15478-.60059-.30175-.91309-.43164-.03271-.01318-.06689-.02295-.10009-.03662-.32764-.13281-.66065-.25488-1.002-.35888-.04-.01221-.08154-.01954-.12207-.03125-.33252-.09717-.66894-.186-1.01318-.2544-.09424-.019-.19092-.02734-.28565-.04394-.29052-.05079-.58056-.10157-.87793-.13086a11.87672,11.87672,0,0,0-2.3955,0c-.29786.02929-.58887.08056-.87989.13134-.09424.01661-.18994.02442-.28369.043-.34424.06885-.68066.15772-1.01367.25489-.04.01171-.08154.019-.12158.03125-.34082.10351-.67285.22558-.99951.35791-.03418.01367-.06934.02392-.103.03808-.312.1294-.61426.27637-.91211.43067-.04932.02588-.10107.04638-.1499.07226-.27491.14746-.53907.31153-.80078.479-.06836.04443-.14112.08154-.209.12744-.24316.16308-.47461.34179-.70508.52148-.0791.06153-.16259.11621-.24023.17969-.28516.23486-.55811.48389-.8208.74316-.01563.01563-.03272.02832-.04834.04395L91.23047,43.79883a12.0001,12.0001,0,0,0,16.9707,16.9707ZM52.9707,140H96a12,12,0,0,0,0-24H52.9707l7.79883-7.79883a12.0001,12.0001,0,0,0-16.9707-16.9707L15.51465,119.51465c-.01221.01221-.022.02588-.03418.03808q-.39917.40211-.75977.84034c-.11865.14453-.22216.29736-.33349.44629-.12256.16455-.25049.3247-.36475.4956-.11816.17676-.2207.35986-.32861.5415-.09229.15479-.18946.30567-.2749.46485-.09864.18457-.18262.374-.271.5625-.07861.167-.16162.33057-.23291.50146-.07617.1836-.1377.3711-.2041.55762-.06543.18311-.13574.36377-.19239.55078-.05712.188-.09912.3794-.14648.56983-.04736.189-.10059.376-.13916.56884-.04346.22071-.07031.44336-.10156.666-.02344.16553-.05518.32764-.07129.49512a12.042,12.042,0,0,0,0,2.373c.01611.16748.04785.32959.07129.49512.03125.22266.0581.44531.10156.666.03857.19287.0918.37988.13916.56884.04736.19043.08936.38184.14648.56983.05665.187.127.36767.19239.55078.0664.18652.12793.374.2041.55762.07129.17089.1543.33447.23291.50146.08838.18848.17236.37793.271.5625.08544.15918.18261.31006.2749.46485.10791.18164.21045.36474.32861.5415.11426.1709.24219.33105.36475.4956.11133.14893.21484.30176.33349.44629q.36036.43872.75977.84034c.01221.0122.022.02587.03418.03808l28.28418,28.28418a12.0001,12.0001,0,0,0,16.9707-16.9707Zm188.3086-4.39307c.11865-.14453.22216-.29736.33349-.44629.12256-.16455.25049-.3247.36475-.4956.11816-.17676.2207-.35986.32861-.5415.09229-.15479.18946-.30567.2749-.46485.09864-.18408.18213-.37305.27-.56055.07911-.16748.1626-.33252.23389-.5039.07568-.18311.13721-.37012.20361-.55567.06543-.18359.13623-.36474.19288-.55224.05712-.188.09912-.3794.14648-.56983.04736-.189.10059-.376.13916-.56884.04346-.22071.07031-.44336.10156-.666.02344-.16553.05518-.32764.07129-.49512a12.042,12.042,0,0,0,0-2.373c-.01611-.16748-.04785-.32959-.07129-.49512-.03125-.22266-.0581-.44531-.10156-.666-.03857-.19287-.0918-.37988-.13916-.56884-.04736-.19043-.08936-.38184-.14648-.56983-.05665-.1875-.12745-.36865-.19288-.55224-.0664-.18555-.12793-.37256-.20361-.55567-.07129-.17138-.15478-.33642-.23389-.5039-.08789-.1875-.17138-.37647-.27-.56055-.08544-.15918-.18261-.31006-.2749-.46485-.10791-.18164-.21045-.36474-.32861-.5415-.11426-.1709-.24219-.331-.36475-.4956-.11133-.14893-.21484-.30176-.33349-.44629q-.36036-.43872-.75977-.84034c-.01221-.0122-.022-.02587-.03418-.03808L212.20117,91.23047a12.0001,12.0001,0,0,0-16.9707,16.9707L203.0293,116H160a12,12,0,0,0,0,24h43.0293l-7.79883,7.79883a12.0001,12.0001,0,0,0,16.9707,16.9707l28.28418-28.28418c.01221-.01221.022-.02588.03418-.03808Q240.9187,136.04517,241.2793,135.60693Z"/>
</svg>
