<svg id="Flat" xmlns="http://www.w3.org/2000/svg" viewBox="0 0 256 256">
  <path d="M236,184a12,12,0,0,1-24,0A83.99931,83.99931,0,0,0,68.60352,124.60352L57.08887,136.11816H92.11816a12,12,0,0,1,0,24h-64c-.06005,0-.11816-.0083-.1781-.00878-.3341-.00489-.668-.01807-1.00061-.05079-.19848-.01953-.39135-.05566-.58667-.08447-.19189-.02832-.3844-.05029-.57495-.08789-.2113-.0415-.41626-.09961-.62329-.15234-.17261-.04346-.34631-.08106-.51709-.13282-.198-.06-.38891-.13378-.5824-.20361-.17651-.06348-.35437-.12158-.52832-.19336-.17712-.07324-.34716-.15967-.51989-.24121-.18262-.08594-.36646-.167-.54529-.26269-.16272-.08741-.31726-.18653-.47522-.28077-.17847-.10644-.359-.20752-.533-.32373-.1687-.11328-.32727-.23925-.48975-.36035-.15136-.11279-.30652-.21826-.45361-.33887-.27307-.22412-.53333-.46289-.7854-.71-.02979-.02929-.06226-.05371-.0918-.083-.02954-.02979-.054-.0625-.08325-.09229-.24683-.252-.48535-.51172-.70947-.78467-.12378-.15039-.23169-.30908-.34693-.46386-.118-.1587-.24108-.31348-.35131-.478-.12061-.18018-.22535-.3667-.33509-.55127-.09021-.15186-.18567-.29981-.26916-.45606-.1001-.18652-.18494-.37841-.27429-.56884-.07727-.16455-.15955-.32618-.22962-.49463-.07678-.18555-.139-.375-.20618-.56348-.06481-.18164-.13439-.35986-.19067-.54541-.05725-.189-.09961-.38135-.14734-.57324-.04712-.188-.10022-.374-.13818-.56543-.04407-.22168-.07056-.44483-.10205-.668-.02307-.165-.05469-.32666-.07117-.49365-.03918-.39649-.06018-.79395-.05994-1.19141V84.11816a12,12,0,0,1,24,0v35.0293l11.51465-11.51465A108,108,0,0,1,236,184Z"/>
</svg>
