<svg id="Flat" xmlns="http://www.w3.org/2000/svg" viewBox="0 0 256 256">
  <path d="M232.48535,168.48535l-48,48c-.019.01892-.04.03443-.05908.05322-.26123.25824-.5332.50592-.81787.73945-.1499.12323-.30762.23071-.46192.34552-.15966.11871-.31494.24243-.48046.35327-.17823.11944-.36329.2232-.54639.332-.15332.09125-.30322.18762-.46094.27215-.18408.09864-.37353.18238-.562.27069-.167.07868-.33106.16217-.50244.23328-.18213.07538-.36817.13641-.55322.20245-.18457.06623-.3667.13715-.55567.1944-.18359.05548-.36963.09619-.55469.1427-.19482.049-.3872.10358-.58545.14289-.21044.04174-.42334.06658-.63574.097-.17529.02509-.34765.05841-.52539.07581C176.79,219.979,176.395,220,176,220s-.79-.021-1.18408-.05981c-.17774-.0174-.35059-.05072-.52588-.07587-.21192-.0304-.42481-.05524-.63525-.09692-.19825-.03937-.39112-.094-.58594-.143-.18506-.04651-.3711-.08716-.5542-.14258-.18848-.05719-.37061-.12805-.55518-.19421-.18554-.06616-.37158-.12726-.5542-.2027-.1709-.07092-.33447-.15424-.501-.23273-.18848-.08844-.37842-.17236-.563-.27112-.1582-.08471-.30811-.18145-.46192-.27294-.18261-.10859-.36718-.212-.54492-.33112-.1665-.11127-.32226-.23541-.48242-.35461-.15381-.11451-.311-.22156-.46045-.34436-.28467-.23353-.55664-.48121-.81787-.73945-.019-.01879-.04-.0343-.05908-.05322l-48-48a12.0001,12.0001,0,1,1,16.9707-16.9707L164,179.0293V76H32a12,12,0,0,1,0-24H176a12.00028,12.00028,0,0,1,12,12V179.0293l27.51465-27.51465a12.0001,12.0001,0,0,1,16.9707,16.9707Z"/>
</svg>
