<svg id="Flat" xmlns="http://www.w3.org/2000/svg" viewBox="0 0 256 256">
  <path d="M225.8772,111.58008c-.17554.02508-.34839.05859-.52613.076-.39379.03882-.78881.05975-1.18408.05975h-48a12,12,0,0,1,0-24h19.0293l-13.45606-13.456a76.08559,76.08559,0,0,0-107.48046,0A12.0001,12.0001,0,0,1,57.28906,57.28906a100.11347,100.11347,0,0,1,141.42188,0L212.167,70.74512V51.71582a12,12,0,0,1,24,0V99.71069c.00025.39777-.02075.79535-.06006,1.19153-.01635.16693-.04785.32886-.071.49372-.0315.223-.05786.44647-.102.66784-.03784.19177-.09107.37744-.13819.5658-.0476.19146-.09008.38385-.14721.57324-.05664.18573-.12647.36493-.19141.54675-.06689.18762-.12891.37641-.20532.56122-.07031.16943-.15308.33185-.23071.49725-.08912.18995-.17383.38123-.27344.5672-.0835.15589-.179.30384-.269.45557-.10987.18488-.2146.37152-.33521.55151-.11011.16462-.23315.31916-.35132.47785-.11523.15491-.22314.31341-.34692.46393-.22412.27288-.46265.533-.70947.785-.0293.02985-.05372.0625-.08326.0921-.02978.02991-.063.05457-.093.084-.25171.24646-.51123.48474-.7837.70849-.15014.12336-.3081.2309-.46264.34583-.15943.11859-.31445.24219-.48.3529-.17749.119-.36206.22229-.54444.33075-.15429.09186-.30468.18879-.46337.27381-.18287.098-.3711.181-.55787.26873-.16845.07935-.334.16346-.50659.23517-.18066.07471-.365.13514-.54834.20063-.18628.06689-.37011.13842-.56079.19622-.18213.05518-.36743.09558-.55151.14185-.19556.04925-.38867.10406-.58789.14355C226.30176,111.5249,226.08911,111.54968,225.8772,111.58008Zm-44.137,70.16015a76.08559,76.08559,0,0,1-107.48046,0L60.80371,168.28418H79.833a12,12,0,0,0,0-24h-48c-.06006,0-.11817.00812-.1781.009-.33411.005-.66785.01789-1.00061.05054-.19715.01923-.38868.05542-.58277.084-.19348.02857-.38745.05048-.57946.08851-.21045.04162-.41456.09906-.62085.15155-.17322.04394-.34754.08166-.51893.13348-.19848.06012-.39013.13422-.584.20416-.17578.06317-.35278.12091-.52612.19257-.1781.07385-.34888.1604-.52259.24249-.18176.08563-.36511.16638-.54333.26172-.16187.08679-.31567.18573-.47315.2796-.17932.10681-.36059.20831-.5354.32526-.16772.11236-.32543.23779-.48718.35821-.15222.11335-.308.2193-.45569.34076-.27307.22412-.53332.46283-.7854.70984-.02978.02912-.06225.05347-.09179.083s-.054.06225-.08326.0921c-.24682.25195-.48535.51209-.70947.785-.12378.15052-.23169.309-.34692.46393-.118.15869-.24109.31323-.35132.47785-.12061.18-.22534.36663-.33508.55151-.09021.15173-.18567.29968-.26917.45557-.1.18664-.18481.37847-.27417.569-.07739.16461-.15967.32623-.22973.49481-.07691.18555-.13916.37512-.2063.5636-.0647.18121-.13428.35974-.19056.54492-.05725.18945-.0996.38184-.14733.5733-.04712.18836-.10022.374-.13819.5658-.04407.22137-.07055.44482-.102.66784-.02307.16486-.05469.32679-.07117.49372-.03918.39618-.06018.79376-.05993,1.19153v47.99487a12,12,0,0,0,24,0v-19.0293l13.456,13.45606a100.11467,100.11467,0,0,0,141.42188,0,12.0001,12.0001,0,0,0-16.97071-16.97071Z"/>
</svg>
