<svg id="Flat" xmlns="http://www.w3.org/2000/svg" viewBox="0 0 256 256">
  <path d="M228,128a12.0006,12.0006,0,0,1-12,12H40a12,12,0,0,1,0-24H216A12.0006,12.0006,0,0,1,228,128ZM119.51465,96.48535c.02978.02979.063.05469.09277.084.252.24658.51172.48486.78418.70849.14942.12305.30664.23.46094.34473.15967.1189.31592.24316.48193.35425.17676.11865.36084.22168.54248.32983.15479.092.30567.18945.46485.27441.1831.09815.37158.1814.55859.26929.16846.07935.3335.16309.50586.23462.18066.07471.36523.13525.54883.20093.186.06689.37012.13843.56006.196.18213.05518.36718.09546.55127.14161.1958.04931.38916.10424.58886.14379.21.04175.42237.06641.63379.09693.17578.02514.34864.05859.52686.07593C127.21,99.979,127.605,100,128,100s.79-.021,1.18408-.05981c.17774-.01734.35059-.05079.52588-.07593.2124-.03028.42481-.05518.63525-.09693.19922-.03955.39209-.09423.5879-.14355.18408-.04614.36962-.08667.55175-.14185.19043-.05786.374-.12939.56055-.19629.18311-.06543.36768-.126.54834-.20068.17285-.07153.33789-.15576.50684-.23511.18652-.08764.37451-.17065.55761-.2688.15869-.085.30909-.18188.46338-.27368.18262-.1084.3667-.21167.54444-.33081.16552-.11059.3208-.23437.48-.35278.15478-.115.3125-.22241.4624-.346.27246-.22363.53222-.46191.78418-.70849.02978-.0293.063-.0542.09277-.084l32-32a12.0001,12.0001,0,0,0-16.9707-16.9707L140,59.0293V12a12,12,0,0,0-24,0V59.0293L104.48535,47.51465a12.0001,12.0001,0,0,0-16.9707,16.9707Zm16.9707,63.0293c-.0293-.02954-.062-.05371-.0918-.083-.25195-.24707-.5122-.4856-.78515-.70972-.14844-.12182-.30469-.22827-.45752-.342-.16113-.11987-.31787-.24487-.48535-.35669-.1753-.11743-.35694-.21923-.53662-.32641-.15723-.09351-.31055-.19214-.47217-.27881-.17822-.09522-.36084-.17578-.54248-.26123-.17383-.08228-.34522-.169-.52344-.24317-.17334-.07128-.3501-.1289-.52539-.19213-.19434-.07007-.38623-.14429-.58447-.20435-.17188-.05176-.34619-.0896-.51953-.13355-.20606-.05249-.41016-.10986-.62012-.15161-.19238-.03808-.38672-.05981-.58057-.08838-.19385-.0288-.38525-.06494-.582-.084-.33252-.03271-.6665-.04565-1.00049-.05054-.06006-.001-.11816-.009-.17822-.009s-.11816.00806-.17822.009c-.334.00489-.668.01783-1.00049.05054-.19727.019-.38867.05542-.583.084-.19336.02857-.38721.05054-.5791.08838-.21045.04175-.41455.09912-.62109.15161-.17286.04395-.34766.08179-.519.13355-.19824.06006-.38965.13428-.584.2041-.17578.06323-.35254.1211-.52588.19263-.17822.074-.34912.1604-.52246.24243-.18213.08569-.36524.1665-.54346.26172-.16211.08691-.31592.18579-.47314.27978-.1792.10669-.36035.20826-.53516.3252-.168.1123-.32568.23779-.4873.35815-.15235.11328-.30811.21924-.45606.34082-.27295.22412-.5332.46265-.78515.70972-.02979.0293-.0625.05347-.0918.083l-32,32a12.0001,12.0001,0,0,0,16.9707,16.9707L116,196.9707V244a12,12,0,0,0,24,0V196.9707l11.51465,11.51465a12.0001,12.0001,0,0,0,16.9707-16.9707Z"/>
</svg>
