<svg id="Flat" xmlns="http://www.w3.org/2000/svg" viewBox="0 0 256 256">
  <path d="M140,40V216a12,12,0,0,1-24,0V40a12,12,0,0,1,24,0ZM88,116H40.9707l11.51465-11.51465a12.0001,12.0001,0,0,0-16.9707-16.9707l-32,32c-.02979.02954-.0542.06225-.083.092-.24707.25195-.48584.51221-.71.78491-.12354.15064-.23145.30908-.34668.46411-.11816.15869-.24121.31324-.35156.47779-.12012.17993-.2251.3667-.335.55151-.08985.15161-.18555.29956-.269.45557-.10009.18676-.185.37841-.27392.56909-.07764.16455-.16016.32617-.23.49463-.07666.18554-.13916.37524-.20606.56372-.06494.18115-.13476.35962-.19092.54492-.05712.18945-.0996.38184-.14746.57324-.04687.18848-.10009.374-.13818.56592-.044.22144-.07031.44482-.10156.66772-.02344.165-.05518.32691-.07129.49366a12.042,12.042,0,0,0,0,2.373c.01611.16675.04785.32862.07129.49366.03125.2229.05761.44628.10156.66772.03809.19189.09131.37744.13818.56592.04786.1914.09034.38379.14746.57324.05616.1853.126.36377.19092.54517.0669.18847.1294.37793.20606.56323.06982.1687.15234.33008.22949.49463.08936.19067.17432.38257.27441.56933.0835.156.1792.304.26905.45557.10986.18481.21484.37158.335.55151.11035.16455.2334.3191.35156.47779.11523.155.22314.31347.34668.46411.22412.2727.46289.533.71.78491.02881.02979.05322.0625.083.092l32,32a12.0001,12.0001,0,0,0,16.9707-16.9707L40.9707,140H88a12,12,0,0,0,0-24Zm165.27832,19.6084c.12354-.15064.23145-.30908.34668-.46411.11816-.15869.24121-.31324.35156-.47779.12012-.17993.2251-.3667.335-.55151.08985-.15161.18555-.29956.269-.45557.09961-.186.18408-.37719.27343-.56713.07764-.16553.16016-.32789.23047-.49732.07666-.18481.13867-.37353.20557-.56128.06494-.18164.13476-.36084.19141-.54663.05712-.18945.0996-.38184.14746-.57324.04687-.18848.10009-.374.13818-.56592.04395-.22144.07031-.44482.10156-.66772.02344-.165.05518-.32691.07129-.49366a12.042,12.042,0,0,0,0-2.373c-.01611-.16675-.04785-.32862-.07129-.49366-.03125-.2229-.05761-.44628-.10156-.66772-.03809-.19189-.09131-.37744-.13818-.56592-.04786-.1914-.09034-.38379-.14746-.57324-.05665-.18579-.12647-.365-.19141-.54663-.0669-.1875-.12891-.37647-.20557-.56128-.07031-.16968-.15283-.332-.231-.49756-.08887-.1897-.17334-.38086-.273-.56689-.0835-.156-.1792-.304-.269-.45557-.10986-.18481-.21484-.37158-.335-.55151-.11035-.16455-.2334-.3191-.35156-.47779-.11523-.155-.22314-.31347-.34668-.46411-.22412-.2727-.46289-.533-.71-.78491-.02881-.02979-.05322-.0625-.083-.092l-32-32a12.0001,12.0001,0,0,0-16.9707,16.9707L215.0293,116H168a12,12,0,0,0,0,24h47.0293l-11.51465,11.51465a12.0001,12.0001,0,0,0,16.9707,16.9707l32-32c.02979-.02954.0542-.06225.083-.092C252.81543,136.14136,253.0542,135.8811,253.27832,135.6084Z"/>
</svg>
