<svg id="Flat" xmlns="http://www.w3.org/2000/svg" viewBox="0 0 256 256">
  <path d="M184.48535,79.51465a11.99973,11.99973,0,0,1,0,16.9707L92.9707,188H164a12,12,0,0,1,0,24H64c-.395,0-.79-.02094-1.18359-.05975-.17969-.01758-.354-.05115-.53077-.0766-.21044-.03028-.42138-.05481-.62988-.09619-.20215-.04-.398-.09546-.59619-.14545-.18115-.04572-.36328-.08539-.543-.13965-.19433-.059-.38232-.13184-.57226-.20026-.1792-.06427-.35938-.12316-.53614-.19616-.17773-.07373-.34814-.16028-.52148-.24225-.18164-.08557-.36475-.16608-.54248-.26123-.16553-.08862-.32276-.18945-.48291-.28546-.17578-.1048-.35352-.20417-.5249-.31873-.17481-.117-.33936-.24725-.50733-.37305-.14551-.1087-.29443-.20965-.43555-.3258-.28564-.23425-.55859-.48279-.82128-.74194-.01856-.01838-.03907-.03357-.05762-.05213-.01807-.018-.03272-.0379-.05078-.056-.25928-.26294-.5083-.53637-.74317-.82226-.11816-.14392-.2207-.2956-.33154-.44355-.12354-.16558-.25195-.32733-.36719-.49939-.11621-.17395-.21728-.35449-.32373-.533-.09424-.15765-.19336-.3117-.28027-.474-.09668-.18146-.1792-.368-.26611-.55317-.08008-.16986-.165-.33679-.23731-.51092-.07422-.17993-.13476-.36371-.19971-.54639-.06738-.18689-.13916-.37121-.19677-.56225-.05518-.18238-.09571-.36762-.14209-.55188-.04932-.19532-.104-.38819-.14356-.58722-.042-.21228-.06689-.42658-.09765-.64044-.02442-.17365-.05762-.34449-.0752-.52045C52.021,200.79022,52,200.39453,52,199.99872V100a12,12,0,0,1,24,0v71.0293l91.51465-91.51465A12.00151,12.00151,0,0,1,184.48535,79.51465ZM216,28.00391H40a12,12,0,0,0,0,24H216a12,12,0,1,0,0-24Z"/>
</svg>
