<svg id="Flat" xmlns="http://www.w3.org/2000/svg" viewBox="0 0 256 256">
  <path d="M140,68h-8V32a11.99985,11.99985,0,0,0-20.48535-8.48535l-96,96a12.00062,12.00062,0,0,0,0,16.9707l96,96A11.99985,11.99985,0,0,0,132,224V188h8a12.00028,12.00028,0,0,0,12-12V80A12.00028,12.00028,0,0,0,140,68Zm-12,96h-8a12.00028,12.00028,0,0,0-12,12v19.0293L40.9707,128,108,60.9707V80a12.00028,12.00028,0,0,0,12,12h8Zm96-84v96a12,12,0,0,1-24,0V80a12,12,0,0,1,24,0Zm-36,0v96a12,12,0,0,1-24,0V80a12,12,0,0,1,24,0Z"/>
</svg>
