<svg id="Flat" xmlns="http://www.w3.org/2000/svg" viewBox="0 0 256 256">
  <path d="M143.51465,112.48535a11.99973,11.99973,0,0,1,0-16.9707L179.0293,60H168a12,12,0,0,1,0-24h40c.395,0,.79053.021,1.18408.05957.17774.01758.3501.05078.52539.07617.2124.03028.4253.05518.63574.09668.19922.03955.39258.09473.5879.14356.18408.04638.36914.08691.55175.14209.18994.05761.374.12939.56006.1958.1836.06543.36817.126.54883.20117.17285.07129.33789.15576.50684.23486.18652.08789.37451.1709.55761.26905.16016.08544.31153.1831.4668.27539.18115.10791.36377.21045.54.32812.16943.11328.32812.23975.49121.36133.15039.1123.30518.21728.45166.33789q.43359.356.832.752c.01465.01465.03076.02637.04541.041.01563.01562.02832.0332.04395.04883q.3933.39769.74951.8291c.12012.146.22461.2998.33691.45019.12158.16309.248.32227.36133.4917.11914.17774.22217.36182.33057.54395.09179.15381.18847.3042.27343.46289.09864.18408.18262.374.271.562.07861.167.16162.33106.23291.50244.07568.18311.13721.37061.20361.55664.06592.18311.13623.36377.19288.55127.05712.188.09912.3794.14648.56983.04736.189.10059.376.13916.56884.04346.22071.07031.44336.10156.666.02344.16553.05518.32764.07129.49512q.05932.59472.06006,1.1914V88a12,12,0,0,1-24,0V76.9707l-35.51465,35.51465a12.00033,12.00033,0,0,1-16.9707,0Zm-48,31.0293L60,179.0293V168a12,12,0,0,0-24,0v39.99512q0,.59619.06006,1.1914c.01611.16748.04785.32959.07129.49512.03125.22266.0581.44531.10156.666.03857.19287.0918.37988.13916.56884.04736.19043.08936.38184.14648.56983.05665.187.127.36767.19239.55078.0664.18652.12793.374.2041.55762.07129.17089.1543.33447.23291.50146.08838.18848.17236.37793.271.5625.08544.15918.18261.31006.2749.46485.10791.18164.21045.36474.32861.5415.11426.1709.24219.33105.36475.4956.11133.14893.21484.30176.33349.44629q.36036.43872.75977.84034c.01221.0122.022.02587.03418.03808.01074.01074.02246.01953.0332.03027q.4043.40063.84424.76319c.146.11963.2998.22412.4502.33642.16357.12207.32324.24854.49316.36231.1748.11719.35693.21924.53662.32617.15625.09326.30908.19141.47022.27783.18212.09717.36914.18018.55468.26709.16944.08008.33594.16455.50977.23682.18017.07422.36377.13476.54687.20019.18653.0669.37061.13868.56153.19629.18213.05518.36718.09571.55127.14161.1958.04931.38916.10449.58886.144.21.0415.42285.0664.63477.09668.17529.02539.34814.05859.52588.07617C47.21,219.979,47.605,220,48,220H88a12,12,0,0,0,0-24H76.9707l35.51465-35.51465a12.0001,12.0001,0,0,0-16.9707-16.9707Zm122.09814,71.646c.12256-.16455.25049-.3247.36475-.4956.11816-.17676.2207-.35986.32861-.5415.09229-.15479.18946-.30567.2749-.46485.09864-.18408.18213-.37305.27-.56055.07911-.16748.1626-.33252.23389-.5039.07568-.18311.13721-.37012.20361-.55567.06543-.18359.13623-.36474.19288-.55224.05712-.188.09912-.3794.14648-.56983.04736-.189.10059-.376.13916-.56884.04346-.22071.07031-.44336.10156-.666.02344-.16553.05518-.32764.07129-.49512q.05932-.59472.06006-1.1914V168a12,12,0,0,0-24,0v11.0293l-35.51465-35.51465a12.0001,12.0001,0,0,0-16.9707,16.9707L179.0293,196H168a12,12,0,0,0,0,24h40c.395,0,.79-.021,1.18408-.05957.17774-.01758.3501-.05078.52539-.07617.2124-.03028.42481-.05518.63574-.09668.19922-.03955.39258-.09473.5879-.14356.18408-.04638.36962-.08691.55175-.14209.19092-.0581.37549-.12939.5625-.19677.18213-.06543.36573-.12549.5459-.19971.17383-.07227.34082-.15674.51074-.23682.18506-.0874.37207-.16992.55371-.26709.16065-.08593.313-.18408.46924-.27734.18018-.10693.36231-.20947.53809-.32666.16943-.11328.32812-.23975.49121-.36133.15039-.1123.30518-.21728.45166-.3374q.44019-.36182.84424-.76319c.01074-.01074.02246-.01953.0332-.03027.01221-.01221.022-.02588.03418-.03808q.39917-.40211.75977-.84034C217.398,215.4624,217.50146,215.30957,217.61279,215.16064ZM76.9707,60H88a12,12,0,0,0,0-24H48c-.395,0-.79.021-1.18408.05957-.17774.01758-.35059.05078-.52588.07617-.21192.03028-.42481.05518-.63477.09668-.1997.03955-.39306.09473-.58886.144-.18409.0459-.36914.08643-.55127.14161-.18994.05761-.37354.1289-.55957.1958-.1836.06543-.36866.126-.54932.20117-.17236.07129-.3374.15527-.50586.23437-.187.08789-.37549.17139-.55859.26954-.16016.08544-.3125.18359-.46826.27636-.18018.10742-.36231.20948-.53809.32715-.16992.11377-.32959.24024-.49316.36231-.1504.1123-.3042.21679-.4502.33691q-.43359.356-.832.752c-.01465.01465-.03076.02637-.04541.041-.01563.01562-.02832.0332-.044.04883q-.3933.39769-.74951.8291c-.12012.146-.22461.2998-.33691.45019-.12158.16309-.248.32227-.36133.4917-.11914.17774-.22217.36182-.33057.54395-.09179.15381-.18847.3042-.27343.4624-.09913.18555-.18311.37549-.272.56445-.07812.16651-.16113.32959-.23193.5-.07617.1836-.1377.37159-.2041.5586-.06543.18261-.13574.36279-.19239.5498-.05712.188-.09912.3794-.14648.56983-.04736.189-.10059.376-.13916.56884-.04346.22071-.07031.44336-.10156.666-.02344.16553-.05518.32764-.07129.49512q-.05932.59472-.06006,1.1914V88a12,12,0,0,0,24,0V76.9707l35.51465,35.51465a12.0001,12.0001,0,0,0,16.9707-16.9707Z"/>
</svg>
