<svg id="Flat" xmlns="http://www.w3.org/2000/svg" viewBox="0 0 256 256">
  <path d="M235.08691,131.4082A12.00051,12.00051,0,0,0,224,124H188V80a12.0006,12.0006,0,0,0-12-12H80A12.0006,12.0006,0,0,0,68,80v44H32a12,12,0,0,0-8.48535,20.48535l96,96a12.00033,12.00033,0,0,0,16.9707,0l96-96A12.00019,12.00019,0,0,0,235.08691,131.4082ZM128,215.0293,60.9707,148H80a12.0006,12.0006,0,0,0,12-12V92h72v44a12.0006,12.0006,0,0,0,12,12h19.0293ZM68,40A12.0006,12.0006,0,0,1,80,28h96a12,12,0,0,1,0,24H80A12.0006,12.0006,0,0,1,68,40Z"/>
</svg>
