<svg id="Flat" xmlns="http://www.w3.org/2000/svg" viewBox="0 0 256 256">
  <path d="M236,112a68.07728,68.07728,0,0,1-68,68H60.9707l27.51465,27.51465a12.0001,12.0001,0,0,1-16.9707,16.9707l-48-48c-.01929-.01953-.03516-.04053-.0542-.06006-.25806-.26123-.50562-.5332-.739-.81738-.1211-.14746-.22657-.30273-.3396-.4541-.12073-.16211-.24622-.31983-.35877-.48828-.11938-.17823-.22327-.3628-.33191-.54639-.09131-.15283-.1875-.30225-.272-.46-.09937-.18555-.18384-.37647-.27283-.56641-.07788-.16552-.16052-.32812-.23095-.49756-.07642-.18457-.13831-.373-.20521-.56054-.06518-.18213-.13513-.36182-.19165-.54785-.05712-.18848-.09912-.38037-.14672-.5708-.04737-.189-.10059-.37549-.1388-.56836-.04382-.22071-.07043-.44385-.10168-.66651-.02332-.165-.05493-.32763-.07141-.49463a12.08048,12.08048,0,0,1,0-2.373c.01648-.167.04809-.32959.07141-.49463.03125-.22266.05786-.4458.10168-.66651.03821-.19287.09143-.37939.1388-.56836.0476-.19043.0896-.38232.14672-.5708.05652-.186.12647-.36572.19165-.54785.0669-.1875.12879-.376.20521-.56054.07043-.16944.15307-.332.231-.49756.089-.18994.17346-.38086.27283-.56641.08447-.15771.18066-.30713.272-.46.10864-.18359.21253-.36816.33191-.54639.11255-.16845.238-.32617.35877-.48828.113-.15137.2185-.30664.3396-.4541.23339-.28418.481-.55615.739-.81738.019-.01953.03491-.04053.0542-.06006l48-48a12.0001,12.0001,0,1,1,16.9707,16.9707L60.9707,156H168a44,44,0,0,0,0-88H80a12,12,0,0,1,0-24h88A68.07728,68.07728,0,0,1,236,112Z"/>
</svg>
