<svg id="Flat" xmlns="http://www.w3.org/2000/svg" viewBox="0 0 256 256">
  <path d="M225.84717,111.58466c-.1648.02313-.32666.05481-.49365.07122-.39624.03919-.79395.06012-1.19165.05994H176.167a12,12,0,0,1,0-24h19.0293l-13.45606-13.456a76.00016,76.00016,0,1,0,0,107.48046,12.0001,12.0001,0,0,1,16.97071,16.97071,100.00037,100.00037,0,1,1,0-141.42188L212.167,70.74512V51.71582a12,12,0,0,1,24,0V99.71069c.00025.39777-.02075.79529-.05981,1.19147-.01636.16748-.04834.3299-.07154.4953-.03125.22247-.05786.44537-.10156.66614-.03833.19281-.09155.37958-.13916.56891-.04736.19037-.08935.38153-.14648.56982-.05689.1875-.12744.36847-.19312.552-.06616.18573-.12744.37262-.20337.55555-.07129.17181-.15478.33648-.23388.50415-.08789.18762-.17163.37652-.27.56036-.085.15881-.18213.30957-.27417.464-.10816.18188-.21118.36566-.32984.54278-.11328.16944-.23974.32868-.36157.49189-.11206.15027-.21655.3042-.33667.45019-.23364.28467-.48144.55683-.74.81873-.0188.0191-.03442.04016-.05347.0592s-.03979.03443-.05883.05322c-.26172.25824-.5337.50592-.81812.73945-.15039.12377-.30908.23175-.46411.3471-.15869.118-.31323.24115-.47778.35138-.18018.12073-.36719.22571-.55249.33563-.15113.08991-.29859.18506-.45411.26838-.18676.1-.3789.18505-.56982.27453-.16455.07733-.32593.15955-.49438.22949-.18555.07679-.37525.1391-.56348.20624-.18115.06476-.35986.1344-.54492.19055-.18946.05732-.38159.09961-.573.14734-.18848.04718-.37451.10022-.56641.13831C226.29346,111.52673,226.07031,111.55328,225.84717,111.58466Z"/>
</svg>
