<svg xmlns="http://www.w3.org/2000/svg" viewBox="0 0 256 256"><path d="M220,48V88a12,12,0,0,1-24,0V77l-35.5,35.5a12.1,12.1,0,0,1-17,0,12,12,0,0,1,0-17L179,60H168a12,12,0,0,1,0-24h40A12,12,0,0,1,220,48ZM95.5,143.5,60,179V168a12,12,0,0,0-24,0v40a12,12,0,0,0,12,12H88a12,12,0,0,0,0-24H77l35.5-35.5a12,12,0,0,0-17-17ZM208,156a12,12,0,0,0-12,12v11l-35.5-35.5a12,12,0,0,0-17,17L179,196H168a12,12,0,0,0,0,24h40a12,12,0,0,0,12-12V168A12,12,0,0,0,208,156ZM77,60H88a12,12,0,0,0,0-24H48A12,12,0,0,0,36,48V88a12,12,0,0,0,24,0V77l35.5,35.5a12.1,12.1,0,0,0,17,0,12,12,0,0,0,0-17Z"/></svg>