<svg id="Flat" xmlns="http://www.w3.org/2000/svg" viewBox="0 0 256 256">
  <path d="M47.51465,112.48145a12.0001,12.0001,0,1,1,16.9707-16.97071L116,147.02539V31.99609a12,12,0,0,1,24,0v115.0293l51.51465-51.51465a12.0001,12.0001,0,0,1,16.9707,16.97071l-72,72c-.00732.00756-.01562.01367-.02344.021q-.40869.40686-.85546.77319c-.14112.116-.29.21705-.43506.32544-.16846.126-.333.25635-.50782.37354-.17187.115-.35058.21484-.52685.31982-.15967.09546-.31592.1958-.48047.28394-.1792.09595-.36377.17725-.54688.26343-.17187.0813-.34082.167-.51708.24-.17823.074-.36036.13354-.54151.19824-.18848.06763-.37451.13989-.56689.19824-.18067.05469-.36377.09473-.54639.14063-.19727.04956-.39209.105-.59277.14477-.20948.04151-.42041.06592-.63086.09619-.17676.02539-.35108.05884-.53028.07642-.39355.03882-.78857.05981-1.18359.05981s-.79-.021-1.18359-.05981c-.1792-.01758-.35352-.051-.53028-.07642-.21045-.03027-.42138-.05468-.63086-.09619-.20068-.03979-.3955-.09521-.59277-.14477-.18262-.0459-.36572-.08594-.54639-.14063-.19287-.05835-.3789-.13061-.56738-.19848-.18115-.0647-.36279-.124-.541-.19776-.17626-.07324-.3457-.15918-.51757-.24048-.18311-.08618-.36719-.16723-.54639-.26318-.16455-.08814-.3208-.18848-.48047-.28394-.17627-.105-.355-.20483-.52685-.31982-.17481-.11719-.33936-.24756-.50782-.37354-.145-.10839-.29394-.20947-.43506-.32544q-.44678-.36583-.85546-.77319c-.00782-.00732-.01612-.01343-.02344-.021ZM216,203.99609H40a12,12,0,0,0,0,24H216a12,12,0,0,0,0-24Z"/>
</svg>
