<svg id="Flat" xmlns="http://www.w3.org/2000/svg" viewBox="0 0 256 256">
  <path d="M198.71094,198.71094a100.11467,100.11467,0,0,1-141.42188,0,12.0001,12.0001,0,0,1,16.97071-16.97071,76.00016,76.00016,0,1,0,0-107.48046l-13.45606,13.456H79.833a12,12,0,0,1,0,24H31.83813c-.39782.00018-.79541-.02075-1.19165-.05994-.16723-.01641-.32922-.04809-.49426-.07129-.22278-.03137-.44592-.05786-.66687-.10174-.19214-.03815-.37842-.09131-.56726-.13849-.19128-.04773-.38318-.09-.57239-.14722-.18481-.05609-.36316-.12567-.54419-.19037-.18872-.06719-.37841-.12963-.56421-.20654-.16821-.06976-.3291-.15179-.49328-.22888-.19129-.0896-.38367-.1748-.57092-.275-.15577-.08356-.30372-.1789-.45533-.269-.18457-.10968-.37109-.21435-.5509-.33478-.16516-.11065-.32043-.23419-.47986-.35272-.15442-.11493-.3125-.22259-.46252-.34594-.2843-.23353-.55628-.48121-.818-.73945-.019-.01879-.03991-.0343-.05883-.05322s-.03467-.0401-.05347-.0592c-.25855-.2619-.50635-.53406-.74-.81873-.12012-.146-.22461-.29992-.33667-.45019-.1217-.16321-.24829-.32245-.3617-.49189-.11853-.17712-.22155-.3609-.32971-.54278-.092-.15442-.18921-.30512-.27417-.46393-.09887-.18451-.18261-.37414-.271-.5625-.07849-.16681-.16187-.33057-.23279-.50146-.076-.18372-.13757-.37128-.20422-.5578-.06543-.183-.13575-.36341-.19239-.55036-.05713-.18829-.09912-.37945-.1466-.56982-.04749-.18933-.10071-.3761-.13892-.56891-.04382-.22077-.07031-.44367-.10168-.66614-.0232-.1654-.05506-.32782-.07154-.4953-.03906-.39618-.06006-.7937-.05981-1.19147V51.71582a12,12,0,0,1,24,0v19.0293l13.456-13.45606A100.00037,100.00037,0,0,1,198.71094,198.71094Z"/>
</svg>
