<svg id="Flat" xmlns="http://www.w3.org/2000/svg" viewBox="0 0 256 256">
  <path d="M208,28H48A20.0226,20.0226,0,0,0,28,48V208a20.0226,20.0226,0,0,0,20,20H208a20.0226,20.0226,0,0,0,20-20V48A20.0226,20.0226,0,0,0,208,28Zm-4,176H52V52H204ZM85.57373,130.42676a12.00065,12.00065,0,0,1,0-16.97071l33.94092-33.9414a12.00033,12.00033,0,0,1,16.9707,0l33.94092,33.9414a12.0001,12.0001,0,0,1-16.9707,16.97071L140,116.9707V168a12,12,0,0,1-24,0V116.9707l-13.45557,13.45606A12.00153,12.00153,0,0,1,85.57373,130.42676Z"/>
</svg>
