<svg id="Flat" xmlns="http://www.w3.org/2000/svg" viewBox="0 0 256 256">
  <path d="M140,103.99487V64a12,12,0,0,1,24,0V75.0293l35.51465-35.51465a12.0001,12.0001,0,0,1,16.9707,16.9707L180.9707,92H192a12,12,0,0,1,0,24H152c-.395,0-.79-.021-1.18408-.05981-.17774-.0174-.35059-.05072-.52588-.07587-.21192-.0304-.42481-.05524-.63525-.09692-.19825-.03937-.39112-.094-.58594-.143-.18506-.04651-.3711-.08716-.5542-.14258-.18848-.05719-.37061-.12805-.55518-.19421-.18554-.06616-.37158-.12726-.5542-.2027-.17089-.07092-.33447-.15424-.501-.23273-.18848-.08844-.37842-.17236-.563-.27112-.1582-.08471-.30811-.18145-.46192-.27294-.18261-.10859-.36718-.212-.54492-.33112-.1665-.11127-.32226-.23541-.48242-.35461-.15381-.11451-.311-.22156-.46045-.34436-.28467-.23353-.55664-.48121-.81787-.73945-.019-.01879-.04-.0343-.05908-.05322s-.03467-.0401-.05371-.0592c-.2583-.2619-.50635-.53406-.73975-.81873-.12012-.146-.22461-.29992-.33691-.45019-.12158-.16321-.248-.32245-.36133-.49189-.11865-.17712-.22168-.3609-.33008-.54278-.0918-.15442-.189-.30512-.27392-.46393-.09864-.18451-.18262-.37415-.271-.5625-.07861-.16681-.16162-.33057-.23291-.50146-.07617-.18372-.1377-.37128-.2041-.5578-.06543-.183-.13574-.36341-.19239-.55036-.05712-.18829-.09912-.37945-.14648-.56982-.04736-.18933-.10059-.3761-.13916-.56891-.04346-.22077-.07031-.44367-.10156-.66614-.02344-.1654-.05518-.32782-.07129-.4953Q140.00074,104.59207,140,103.99487Zm-24.06006,46.81879c-.01611-.16748-.04785-.3299-.07129-.4953-.03125-.22247-.0581-.44537-.10156-.66614-.03857-.19281-.0918-.37958-.13916-.56891-.04736-.19037-.08936-.38153-.14648-.56982-.05665-.18726-.127-.368-.19288-.55121-.0664-.1861-.12793-.37329-.20361-.55658-.07129-.17145-.15478-.33581-.2334-.50317-.08838-.18787-.17187-.377-.27051-.5611-.085-.15881-.18212-.30957-.27392-.464-.1084-.18188-.21143-.36566-.33008-.54278-.11328-.16944-.23975-.32868-.36133-.49189-.1123-.15027-.21679-.3042-.33691-.45019-.2334-.28467-.48145-.55683-.73975-.81873-.019-.0191-.03467-.04016-.05371-.0592s-.04-.03443-.05908-.05322c-.26123-.25824-.5332-.50592-.81787-.73945-.15039-.12377-.30908-.23175-.46387-.3471-.15918-.118-.31348-.24115-.478-.35138-.18017-.12073-.36718-.22571-.55224-.33563-.15137-.08991-.29883-.18506-.4541-.26838-.187-.1-.3794-.185-.57032-.27453-.16406-.07733-.32568-.15955-.49414-.22949-.18554-.07679-.375-.1391-.56347-.20624-.18116-.06476-.35987-.1344-.54493-.19055-.18945-.05732-.38183-.09961-.57275-.14734-.189-.04718-.37451-.10022-.56689-.13831-.2212-.04394-.44434-.07049-.66748-.10187-.16456-.02313-.32666-.05481-.49366-.07122-.396-.03919-.79394-.06012-1.1914-.05994H64a12,12,0,0,0,0,24H75.0293L39.51465,199.51465a12.0001,12.0001,0,0,0,16.9707,16.9707L92,180.9707V192a12,12,0,0,0,24,0V152.00513Q116,151.40848,115.93994,150.81366ZM180.9707,164H192a12,12,0,0,0,0-24H152.00488c-.39746-.00018-.79541.02075-1.1914.05994-.167.01641-.3291.04809-.49414.07129-.22266.03137-.4458.05786-.667.10174-.19238.03815-.37841.09131-.56738.13849-.19092.04773-.3833.09-.57226.14722-.18506.05609-.36329.12567-.54395.19037-.189.0672-.37891.12963-.56445.20654-.168.06976-.3291.15179-.49317.22888-.1914.0896-.38379.1748-.57129.275-.15576.08356-.30322.1789-.45507.269-.18457.10968-.3711.21435-.55079.33478-.16552.11065-.32031.23419-.48.35272-.15429.11493-.3125.22259-.4624.34594-.28467.23353-.55664.48121-.81787.73945-.019.01879-.04.0343-.05908.05322s-.03467.0401-.05371.0592c-.2583.2619-.50635.53406-.73975.81873-.12012.146-.22461.29992-.33691.45019-.12158.16321-.248.32245-.36133.49189-.11865.17712-.22168.3609-.33008.54278-.0918.15442-.189.30512-.27392.46393-.09913.18475-.18262.37463-.27149.56323-.07812.16651-.16113.3299-.23242.50049-.07617.184-.1377.37195-.2041.55878-.06543.18274-.13574.36291-.19239.54962-.05712.18829-.09912.37945-.14648.56982-.04736.18933-.10059.3761-.13916.56891-.04346.22077-.07031.44367-.10156.66614-.02344.1654-.05518.32782-.07129.4953q-.05932.59427-.06006,1.19147V192a12,12,0,0,0,24,0V180.9707l35.51465,35.51465a12.0001,12.0001,0,0,0,16.9707-16.9707ZM116,64a12,12,0,0,0-24,0V75.0293L56.48535,39.51465a12.0001,12.0001,0,0,0-16.9707,16.9707L75.0293,92H64a12,12,0,0,0,0,24h40c.395,0,.79-.021,1.18408-.05981.17774-.0174.3501-.05072.52539-.07581.21241-.0304.4253-.05524.63574-.097.19825-.03931.39063-.09388.58545-.14289.18506-.04651.3711-.08722.55469-.1427.189-.05725.3711-.12817.55567-.1944.18505-.066.37109-.12707.55322-.20245.17138-.07111.33545-.1546.50244-.23328.18848-.08831.37793-.172.562-.27069.15772-.08453.30762-.1809.46094-.27215.1831-.10883.36816-.21259.54639-.332.16552-.11084.3208-.23456.48046-.35327.1543-.11481.312-.22229.46192-.34552.28467-.23353.55664-.48121.81787-.73945.019-.01879.04-.0343.05908-.05322s.03467-.0401.05371-.0592c.2583-.2619.50635-.53406.73975-.81873.12012-.146.22461-.29992.33691-.45019.12158-.16321.24805-.32245.36133-.49189.11865-.17712.22168-.3609.33008-.54278.0918-.15442.189-.30518.27392-.464.09864-.18384.18213-.37274.27-.56036.07911-.16767.1626-.33234.23389-.50415.07568-.18293.13721-.36982.20361-.55555.06543-.18353.13623-.3645.19288-.552.05712-.18829.09912-.37945.14648-.56982.04736-.18933.10059-.3761.13916-.56891.04346-.22077.07031-.44367.10156-.66614.02344-.1654.05518-.32782.07129-.4953q.05932-.59427.06006-1.19147Z"/>
</svg>
