<svg id="Flat" xmlns="http://www.w3.org/2000/svg" viewBox="0 0 256 256">
  <path d="M208,28H48A20.0226,20.0226,0,0,0,28,48V208a20.0226,20.0226,0,0,0,20,20H208a20.0226,20.0226,0,0,0,20-20V48A20.0226,20.0226,0,0,0,208,28Zm-4,176H52V52H204ZM76,128a12.00028,12.00028,0,0,1,12-12h51.02979L125.57373,102.544a12.0001,12.0001,0,1,1,16.9707-16.97071l33.94092,33.94141a12.00062,12.00062,0,0,1,0,16.9707l-33.94092,33.94141a12.0001,12.0001,0,1,1-16.9707-16.97071L139.02979,140H88A12.00028,12.00028,0,0,1,76,128Z"/>
</svg>
