<svg xmlns="http://www.w3.org/2000/svg" viewBox="0 0 256 256"><path d="M164.8,179.8a12,12,0,0,1,0,17,12.2,12.2,0,0,1-8.5,3.5,12,12,0,0,1-8.5-3.5L140,189v43a12,12,0,0,1-24,0V189l-7.8,7.8a12,12,0,0,1-17-17l28.3-28.3a12,12,0,0,1,17,0Zm-45.3-75.3a12.1,12.1,0,0,0,17,0l28.3-28.3a12,12,0,0,0-17-17L140,67V24a12,12,0,0,0-24,0V67l-7.8-7.8a12,12,0,0,0-17,17Zm-15,15L76.2,91.2a12,12,0,0,0-17,17L67,116H24a12,12,0,0,0,0,24H67l-7.8,7.8a12,12,0,0,0,0,17,12.2,12.2,0,0,0,8.5,3.5,12,12,0,0,0,8.5-3.5l28.3-28.3A12,12,0,0,0,104.5,119.5ZM232,116H189l7.8-7.8a12,12,0,0,0-17-17l-28.3,28.3a12,12,0,0,0,0,17l28.3,28.3a12,12,0,0,0,8.5,3.5,12.2,12.2,0,0,0,8.5-3.5,12,12,0,0,0,0-17L189,140h43a12,12,0,0,0,0-24Z"/></svg>