<svg id="Flat" xmlns="http://www.w3.org/2000/svg" viewBox="0 0 256 256">
  <path d="M229.06055,160.05859c-.33252.03272-.66651.0459-1.00049.05078-.06006.00049-.11817.00879-.17822.00879h-64a12,12,0,0,1,0-24h35.02929l-11.51465-11.51464A84,84,0,0,0,44,184a12,12,0,0,1-24,0,107.99952,107.99952,0,0,1,184.36719-76.36719l11.51465,11.51465V84.11816a12,12,0,1,1,24,0v63.99512c.00024.39746-.02076.79492-.06006,1.19141-.01636.167-.04785.32861-.071.49365-.03149.22314-.05786.44629-.102.668-.03784.1914-.09106.37744-.13818.56543-.04761.19189-.09009.38428-.14722.57324-.05664.186-.12646.36523-.19141.54688-.06689.1875-.1289.37646-.20532.561-.07031.16992-.15307.332-.23071.49756-.08911.18994-.17383.38135-.27344.56689-.08349.15625-.179.3042-.269.45606-.10986.18457-.2146.37109-.33521.55127-.1101.16455-.23315.31933-.35131.478-.11524.15478-.22315.31347-.34693.46386-.22412.27295-.46264.53272-.70947.78467-.0293.02979-.05371.0625-.08325.09229-.02954.02929-.062.05371-.0918.083-.25195.24707-.51221.48584-.7854.71-.1477.1211-.30322.22706-.45508.34034-.16186.1206-.31982.24609-.488.35839-.17431.1167-.35546.21827-.53442.32471-.15771.09424-.31177.19336-.47388.28028-.17871.09521-.3623.17626-.54443.2622-.1731.08155-.34351.168-.521.2417-.17382.07178-.35131.12988-.52758.19336-.19361.06983-.385.14356-.583.20361-.1709.05176-.34473.08936-.51734.1333-.207.05274-.41186.11036-.623.15186-.19068.0376-.3833.05957-.57544.08789C229.45142,160.00293,229.25879,160.03906,229.06055,160.05859Z"/>
</svg>
