<svg id="Flat" xmlns="http://www.w3.org/2000/svg" viewBox="0 0 256 256">
  <path d="M240.48535,119.51465l-96-96A11.99985,11.99985,0,0,0,124,32V68h-8a12.00028,12.00028,0,0,0-12,12v96a12.00028,12.00028,0,0,0,12,12h8v36a12.0001,12.0001,0,0,0,20.48535,8.48535l96-96A12.00062,12.00062,0,0,0,240.48535,119.51465ZM148,195.0293V176a12.00028,12.00028,0,0,0-12-12h-8V92h8a12.00028,12.00028,0,0,0,12-12V60.9707L215.0293,128ZM56,80v96a12,12,0,0,1-24,0V80a12,12,0,0,1,24,0Zm36,0v96a12,12,0,0,1-24,0V80a12,12,0,0,1,24,0Z"/>
</svg>
