<svg id="Flat" xmlns="http://www.w3.org/2000/svg" viewBox="0 0 256 256">
  <path d="M220,48.00513V96a12,12,0,0,1-24,0V76.9707l-35.51465,35.51465a12.0001,12.0001,0,0,1-16.9707-16.9707L179.0293,60H160a12,12,0,0,1,0-24h47.99512c.39746-.00024.79541.02075,1.1914.06006.167.01636.32911.04785.49366.071.22314.0315.44628.05786.66748.10181.19238.03809.37793.09131.56689.13843.19092.04761.3833.09009.57275.14721.18506.05616.36377.126.54493.19068.18847.06714.37793.12939.56347.2063.16846.06982.33008.1521.49414.22949.19092.08935.3833.17432.57032.27441.15527.0835.30273.17847.4541.26856.18506.10986.37207.21484.55224.33545.16455.11035.31885.2334.478.35156.15479.11523.31348.22314.46387.34692.28467.23365.55664.4812.81787.73951.019.01879.04.03418.05908.05322s.03467.04.05371.05908c.2583.262.50635.53418.73975.81885.12012.146.22461.2998.33691.45019.12158.16309.248.32251.36133.49195.11865.177.22168.36084.33008.54272.0918.1543.189.30518.27392.46387.09864.18408.18213.37329.27051.56128.07862.16723.16211.33178.2334.50317.07568.18311.13721.37036.20361.55664.06592.18311.13623.36377.19288.551.05712.18823.09912.37964.14648.56982.04736.18946.10059.37622.13916.56909.04346.22071.07031.44361.10156.666.02344.16553.05518.32788.07129.49536Q219.99926,47.40808,220,48.00513ZM95.51465,143.51465,60,179.0293V160a12,12,0,0,0-24,0v47.99487q0,.59657.06006,1.19141c.01611.16748.04785.32983.07129.49536.03125.22241.0581.44531.10156.666.03857.19287.0918.37963.13916.56909.04736.19018.08936.38159.14648.56982.05665.18677.127.36743.19239.5503.0664.18652.12793.374.2041.55786.07129.17089.1543.33447.23291.50146.08838.18823.17236.37793.271.5625.085.15869.18212.30957.27392.46387.1084.18188.21143.36572.33008.54272.11328.16944.23975.32886.36133.492.1123.15039.21679.3042.33691.45019.2334.28467.48145.55689.73975.81885.019.019.03467.04.05371.05908s.04.03443.05908.05322c.26123.2583.5332.50586.81787.73951.14942.1228.30664.22973.46045.34423.16016.11939.31592.24341.48242.35474.17774.11914.36231.22241.54492.33106.15381.09155.30372.18823.46192.27294.18457.09864.37451.18262.563.271.1665.07861.33008.16187.501.23291.18262.07544.36866.13648.5542.20264.18457.06616.3667.137.55518.19433.1831.05518.36914.09595.5542.14258.19482.04883.38769.10352.58594.14282.21044.04175.42334.06665.63525.09693.17529.02514.34814.05859.52588.07593C47.21,219.979,47.605,220,48,220H96a12,12,0,0,0,0-24H76.9707l35.51465-35.51465a12.0001,12.0001,0,0,0-16.9707-16.9707Z"/>
</svg>
