<svg id="Flat" xmlns="http://www.w3.org/2000/svg" viewBox="0 0 256 256">
  <path d="M212,80v88a68,68,0,0,1-136,0V60.9707L48.48535,88.48535a12.0001,12.0001,0,0,1-16.9707-16.9707l48-48c.019-.019.03979-.03443.05884-.05322.26171-.25831.53369-.50586.81811-.73951.1499-.12329.30811-.23095.4624-.34594.15943-.11841.3147-.24195.48-.35254.17969-.12061.36622-.2251.55079-.335.15161-.09009.29956-.18555.45532-.269.18725-.10009.37964-.1853.571-.2749.16407-.07715.325-.15918.49317-.229.18579-.07691.37548-.13916.56421-.20655.1809-.06469.35937-.13427.54419-.19043.1892-.05712.3811-.09936.57226-.147.189-.04736.37524-.10058.56738-.13867.221-.04395.4441-.07031.667-.10156.165-.02344.3269-.05493.49414-.07129a12.042,12.042,0,0,1,2.373,0c.167.01636.32886.04785.49366.071.22314.0315.44628.05786.66772.10181.19189.03809.37793.09131.56641.13843.1914.04761.38354.09009.573.14721.18506.05616.36377.126.54493.19068.18823.06714.37793.12939.56347.2063.16846.06982.32984.1521.49439.22949.19092.08935.383.17432.56982.27441.15552.0835.303.17847.4541.26856.18531.10986.37232.21484.55249.33545.16455.11035.3191.2334.47779.35156.155.11523.31372.22314.46411.34692.28442.23365.55639.4812.81811.73951.01905.01879.0398.03418.05884.05322l48,48a12.0001,12.0001,0,0,1-16.9707,16.9707L100,60.9707V168a44,44,0,0,0,88,0V80a12,12,0,0,1,24,0Z"/>
</svg>
