<svg id="Flat" xmlns="http://www.w3.org/2000/svg" viewBox="0 0 256 256">
  <path d="M212,32a12.0006,12.0006,0,0,1-12,12,84.09562,84.09562,0,0,0-84,84v67.0293l27.51465-27.51465a12.0001,12.0001,0,0,1,16.9707,16.9707l-48,48c-.02978.02979-.063.05469-.093.084-.25171.24658-.51123.48486-.78369.70849-.15014.12354-.3081.231-.46264.34571-.15943.11865-.31446.24218-.48.353-.17749.11914-.36206.22217-.54444.33106-.15429.09179-.30469.18847-.46338.27343-.18286.09815-.37109.18116-.55786.269-.16846.0791-.334.16308-.50659.23486-.18066.07471-.365.13525-.54834.20068-.18628.0669-.37012.13868-.56079.19629-.18213.05518-.36743.09571-.55151.14209-.19556.04883-.38868.104-.5879.14356-.21044.0415-.42309.0664-.635.09668-.17554.0249-.34839.05859-.52613.07617C104.79028,235.979,104.39526,236,104,236s-.79028-.021-1.18408-.05957c-.178-.01758-.35083-.05127-.52661-.07617-.21192-.03028-.42408-.05518-.63428-.09668-.19946-.04-.39282-.09473-.58862-.144-.18409-.04639-.36914-.08643-.551-.14161-.19043-.05761-.37427-.12939-.5603-.1958-.1836-.06592-.36817-.12646-.54883-.20117-.17236-.07129-.3374-.15527-.50562-.23437-.18725-.08789-.37573-.17139-.55883-.26954-.15918-.085-.31006-.18212-.4646-.27441-.18189-.1084-.36573-.21094-.543-.33008-.166-.11084-.32178-.23486-.48194-.354-.1538-.11475-.31127-.22168-.46093-.34473-.27246-.22363-.532-.46191-.78369-.70849-.03-.0293-.06324-.0542-.093-.084l-48-48a12.0001,12.0001,0,0,1,16.9707-16.9707L92,195.0293V128A108.12186,108.12186,0,0,1,200,20,12.0006,12.0006,0,0,1,212,32Z"/>
</svg>
