<svg id="Flat" xmlns="http://www.w3.org/2000/svg" viewBox="0 0 256 256">
  <path d="M88.48535,143.51465a12.0001,12.0001,0,0,1-16.9707,16.9707l-48-48a11.99975,11.99975,0,0,1,0-16.9707l48-48a12.0001,12.0001,0,0,1,16.9707,16.9707L48.9707,104ZM128,92H116.9707l27.51465-27.51465a12.0001,12.0001,0,0,0-16.9707-16.9707l-48,48c-.02954.02978-.054.0625-.08325.09228-.24683.252-.48536.51172-.70948.78467-.12378.15039-.23169.30908-.34692.46387-.11816.15869-.24121.31348-.35132.478-.1206.18017-.22534.3667-.3352.55127-.09009.15185-.18555.2998-.269.456-.10009.18652-.18481.37842-.27417.56885-.07739.16455-.15966.32617-.22973.49463-.07691.18554-.13916.375-.2063.56347-.0647.18164-.13428.35987-.19068.54493-.05712.18945-.0996.38183-.14721.57373-.04712.188-.10034.374-.13819.56543-.04419.22168-.07055.44482-.102.668-.02319.165-.05468.32666-.071.49366a12.042,12.042,0,0,0,0,2.373c.01636.167.04785.32862.071.49366.0315.22314.05786.44628.102.668.03785.19141.09107.37745.13819.56543.04761.1919.09009.38428.14721.57325.0564.18554.126.36377.19092.54541.0669.18847.1294.37793.20606.56347.07007.16846.15234.33008.22949.49463.08936.19043.17432.38233.27441.56885.0835.15625.179.3042.269.456.10986.18457.2146.3711.3352.55127.11011.16455.23316.31934.35132.478.11523.15479.22314.31348.34692.46387.22412.27295.46265.53271.70948.78467.02929.02978.05371.0625.08325.09228l48,48a12.0001,12.0001,0,0,0,16.9707-16.9707L116.9707,116H128a84.09562,84.09562,0,0,1,84,84,12,12,0,0,0,24,0A108.12186,108.12186,0,0,0,128,92Z"/>
</svg>
