<svg id="Flat" xmlns="http://www.w3.org/2000/svg" viewBox="0 0 256 256">
  <path d="M224.48535,184.48535l-48,48c-.019.019-.03979.03443-.05884.05322-.26172.2583-.53369.50586-.81811.73951-.1499.12329-.30762.23071-.46192.34546-.15966.11865-.31494.24243-.48046.35327-.17823.11938-.36329.22314-.54639.332-.15357.09131-.30322.18774-.46069.27221-.18433.09864-.37378.18238-.562.27051-.16723.07886-.3313.16236-.50268.2334-.18213.07544-.36817.13648-.553.20239-.18481.06617-.36694.13721-.55591.19458-.18335.05542-.36963.09619-.55493.14258-.19458.04907-.387.10352-.58521.14282-.21069.04175-.42334.06665-.63574.09693-.17529.02514-.34765.05859-.52539.07593C168.79028,235.979,168.39526,236,168,236s-.79028-.021-1.18408-.05981c-.17774-.01734-.35059-.05079-.52613-.07593-.21191-.03028-.42456-.05518-.63476-.09693-.19849-.0393-.39111-.094-.58594-.14282-.1853-.04663-.37134-.0874-.55444-.14258-.18872-.05737-.37085-.12817-.55542-.19433-.18506-.06616-.37134-.1272-.55371-.20264-.1709-.071-.33472-.1543-.50147-.23291-.18847-.08838-.37817-.17236-.56274-.271-.1582-.08471-.30811-.18139-.46192-.27294-.18261-.10865-.36718-.21192-.54516-.33106-.166-.11133-.322-.23535-.48218-.35474-.15381-.1145-.31128-.22143-.46045-.34423-.28442-.23365-.5564-.48121-.81811-.73951-.019-.01879-.0398-.03418-.05884-.05322l-48-48a12.0001,12.0001,0,1,1,16.9707-16.9707L156,195.0293V88a44,44,0,0,0-88,0v88a12,12,0,0,1-24,0V88a68,68,0,0,1,136,0V195.0293l27.51465-27.51465a12.0001,12.0001,0,0,1,16.9707,16.9707Z"/>
</svg>
