<svg id="Flat" xmlns="http://www.w3.org/2000/svg" viewBox="0 0 256 256">
  <path d="M232.48535,111.51465l-96-96a12.00151,12.00151,0,0,0-16.9707,0l-96,96A12.00025,12.00025,0,0,0,32,132H68v8a12.00028,12.00028,0,0,0,12,12h96a12.00028,12.00028,0,0,0,12-12v-8h36a12.00025,12.00025,0,0,0,8.48535-20.48535ZM176,108a12.00028,12.00028,0,0,0-12,12v8H92v-8a12.00028,12.00028,0,0,0-12-12H60.9707L128,40.9707,195.0293,108Zm12,104a12.00028,12.00028,0,0,1-12,12H80a12,12,0,0,1,0-24h96A12.00028,12.00028,0,0,1,188,212Zm0-36a12.00028,12.00028,0,0,1-12,12H80a12,12,0,0,1,0-24h96A12.00028,12.00028,0,0,1,188,176Z"/>
</svg>
