<svg id="Flat" xmlns="http://www.w3.org/2000/svg" viewBox="0 0 256 256">
  <path d="M201.2793,207.60712c-.23487.28589-.48389.55932-.74317.82226-.01806.01807-.03271.038-.05078.056-.01855.01856-.03906.03375-.05762.05213-.26269.25915-.53564.50769-.82128.74194-.14112.11615-.29.2171-.43555.3258-.168.1258-.33252.256-.50733.37305-.17138.11456-.34912.21393-.5249.31873-.16015.096-.31738.19684-.48291.28546-.17822.09527-.36133.176-.543.2616-.17334.08178-.34326.16821-.521.24182-.17676.07312-.35743.13214-.53711.19647-.18946.0683-.377.14111-.57129.2-.17969.05426-.36182.09393-.543.13965-.19824.05-.394.10541-.59619.14545-.2085.04138-.41944.06591-.62988.09619-.17676.02545-.35108.059-.53077.0766C192.79,211.97906,192.395,212,192,212H92a12,12,0,0,1,0-24h71.0293L71.51465,96.48535a12.0001,12.0001,0,0,1,16.9707-16.9707L180,171.0293V100a12,12,0,0,1,24,0v99.99872c0,.39581-.021.7915-.05957,1.18573-.01758.176-.05078.3468-.0752.52045-.03076.21386-.05566.42816-.09765.64044-.03955.199-.09424.3919-.14356.58722-.04638.18426-.08691.3695-.14209.55188-.05761.191-.12939.37536-.19677.56225-.06495.18268-.12549.36646-.19971.54639-.07227.17413-.15723.34106-.23731.51092-.08691.18518-.16943.37171-.26611.55317-.08691.16229-.186.31634-.28027.474-.10645.17853-.20752.35907-.32373.533-.11524.17206-.24366.33381-.36719.49939C201.5,207.31152,201.39746,207.4632,201.2793,207.60712ZM216,28.00391H40a12,12,0,0,0,0,24H216a12,12,0,1,0,0-24Z"/>
</svg>
