<svg id="Flat" xmlns="http://www.w3.org/2000/svg" viewBox="0 0 256 256">
  <path d="M185.27637,135.6062q-.36694.4466-.77393.85608c-.00732.00745-.01318.01575-.021.02307l-72,72a12.0001,12.0001,0,0,1-16.97071-16.9707L147.02539,140H31.99609a12,12,0,0,1,0-24h115.0293L95.51074,64.48535a12.0001,12.0001,0,0,1,16.97071-16.9707l72,72c.00781.00732.01367.01562.021.02307q.40723.409.77393.85608c.11425.1394.21386.28662.32129.42993.12744.17.25927.33643.37744.51318.11474.17115.21386.34888.31836.5243.09619.1604.19677.31726.28515.48242.09619.17944.17725.36389.26368.547.08105.17188.1665.34083.23974.51685.07373.17847.1333.36084.19824.54187.06787.18836.14014.37415.19825.56677.05468.18116.09472.36524.14111.54834.04932.19641.10449.39038.144.59034.042.21167.0669.42553.09766.63867.0249.17431.05762.3457.07519.52221a12.07306,12.07306,0,0,1,0,2.36866c-.01757.17651-.05029.3479-.07519.52221-.03076.21314-.05567.427-.09766.63867-.03955.2-.09472.39393-.144.59034-.04639.1831-.08643.36718-.14111.54834-.0586.19287-.13086.3789-.19825.56762-.06494.18067-.12451.36255-.19824.54078-.07324.17651-.15918.34558-.24023.5177-.08594.18286-.16748.36718-.26319.54638-.08838.16516-.189.322-.28515.48242-.1045.17542-.20362.35315-.31836.5243-.11817.17675-.25.34314-.37744.51318C185.49023,135.31958,185.39062,135.4668,185.27637,135.6062ZM216,28a12,12,0,0,0-12,12V216a12,12,0,0,0,24,0V40A12,12,0,0,0,216,28Z"/>
</svg>
