<svg id="Flat" xmlns="http://www.w3.org/2000/svg" viewBox="0 0 256 256">
  <path d="M216.53906,88.42615c-.019.01916-.03467.04016-.05371.0592l-48,48a12.0001,12.0001,0,0,1-16.9707-16.9707L179.0293,92H76V224a12,12,0,0,1-24,0V80A12.00028,12.00028,0,0,1,64,68H179.0293L151.51465,40.48535a12.0001,12.0001,0,0,1,16.9707-16.9707l48,48c.019.019.03467.04.05371.0592.2583.26184.50635.53406.73975.81873.12012.146.22461.29992.33691.45019.12158.16321.248.32251.36133.492.11865.177.22168.36084.33008.54272.0918.15442.189.30518.27392.464.09864.18408.18213.37317.27051.56116.07862.16723.16211.33166.2334.50317.07568.18323.13721.37036.20361.55652.06592.18323.13623.36389.19288.55115.05712.18835.09912.37951.14648.56982.04736.18946.10059.37622.13916.569.04346.22083.07031.44373.10156.66614.02344.1654.05518.32788.07129.49536a12.03715,12.03715,0,0,1,0,2.37256c-.01611.16748-.04785.33-.07129.49536-.03125.22241-.0581.44531-.10156.66614-.03857.19275-.0918.37951-.13916.569-.04736.19031-.08936.38147-.14648.56982-.05665.1875-.12745.36841-.19288.552-.0664.18567-.12793.37256-.20361.55542-.07129.17188-.15478.33655-.23389.50415-.08789.18775-.17138.37659-.27.56043-.085.15881-.18212.30957-.27392.464-.1084.18188-.21143.36572-.33008.54272-.11328.16944-.23975.32874-.36133.492-.1123.15027-.21679.3042-.33691.45019C217.04541,87.89209,216.79736,88.16431,216.53906,88.42615Z"/>
</svg>
