<svg xmlns="http://www.w3.org/2000/svg" viewBox="0 0 256 256"><path d="M164.8,195.2a12,12,0,0,1,0,17l-28.3,28.3a12.1,12.1,0,0,1-17,0L91.2,212.2a12,12,0,0,1,17-17L116,203V160a12,12,0,0,1,24,0v43l7.8-7.8A12,12,0,0,1,164.8,195.2ZM108.2,60.8,116,53V96a12,12,0,0,0,24,0V53l7.8,7.8a12,12,0,0,0,8.5,3.5,12.2,12.2,0,0,0,8.5-3.5,12,12,0,0,0,0-17L136.5,15.5a12.1,12.1,0,0,0-17,0L91.2,43.8a12,12,0,0,0,17,17ZM53,140H96a12,12,0,0,0,0-24H53l7.8-7.8a12,12,0,0,0-17-17L15.5,119.5a12,12,0,0,0,0,17l28.3,28.3a12,12,0,0,0,8.5,3.5,12.2,12.2,0,0,0,8.5-3.5,12,12,0,0,0,0-17Zm187.5-20.5L212.2,91.2a12,12,0,0,0-17,17L203,116H160a12,12,0,0,0,0,24h43l-7.8,7.8a12,12,0,0,0,0,17,12.2,12.2,0,0,0,8.5,3.5,12,12,0,0,0,8.5-3.5l28.3-28.3A12,12,0,0,0,240.5,119.5Z"/></svg>