<svg id="Flat" xmlns="http://www.w3.org/2000/svg" viewBox="0 0 256 256">
  <path d="M236,192a12.00028,12.00028,0,0,1-12,12H80a12.00028,12.00028,0,0,1-12-12V76.9707L40.48535,104.48535a12.0001,12.0001,0,0,1-16.9707-16.9707l48-48c.019-.01892.04-.03443.05908-.05322.26123-.25824.5332-.50592.81787-.73945.1499-.12335.30811-.231.4624-.34594.15967-.11853.31446-.24207.48-.35272.17969-.12043.36622-.2251.55079-.33478.15185-.09015.29931-.18549.45507-.269.1875-.10022.37989-.18542.57129-.275.16407-.07709.3252-.15912.49317-.22888.18554-.07691.37549-.13934.56445-.20654.18066-.0647.35889-.13428.54395-.19037.189-.05725.38134-.09949.57226-.14722.189-.04718.375-.10034.56738-.13849.2212-.04388.44434-.07037.667-.10174.165-.0232.32714-.05487.49414-.07129a12.06044,12.06044,0,0,1,2.373,0c.167.01642.3291.04809.49366.07122.22314.03138.44628.05793.66748.10187.19238.03809.37793.09113.56689.13831.19092.04773.3833.09.57275.14734.18506.05615.36377.12579.54493.19055.18847.06714.37793.12945.56347.20624.16846.06994.33008.15216.49414.22949.19092.08948.3833.1745.57032.27453.15527.08332.30273.17847.4541.26838.18506.10992.37207.2149.55224.33563.16455.11023.31885.23334.478.35138.15479.11535.31348.22333.46387.3471.28467.23353.55664.48121.81787.73945.019.01879.04.0343.05908.05322l48,48a12.0001,12.0001,0,0,1-16.9707,16.9707L92,76.9707V180H224A12.00028,12.00028,0,0,1,236,192Z"/>
</svg>
