<svg id="Flat" xmlns="http://www.w3.org/2000/svg" viewBox="0 0 256 256">
  <path d="M232.53955,176.42529c-.019.01953-.03491.04053-.0542.06006l-48,48a12.0001,12.0001,0,0,1-16.9707-16.9707L195.0293,180H88A68,68,0,0,1,88,44h88a12,12,0,0,1,0,24H88a44,44,0,0,0,0,88H195.0293l-27.51465-27.51465a12.0001,12.0001,0,1,1,16.9707-16.9707l48,48c.01563.01562.02857.0332.04419.04883.262.26513.5127.541.74927.8291.11963.14551.22388.29883.33545.44873.12231.16357.24927.32373.363.49365.11841.17676.2212.35986.32886.5415.09229.15479.1897.30567.2749.46485.09864.18408.18213.37353.27051.561.07862.16748.16211.332.2334.50342.07593.18311.13721.37061.20361.55664.06568.18311.13623.36377.19288.55127.05712.188.09912.3794.14648.56983.04761.189.10083.376.13916.56884.0437.22071.07031.44336.10156.666.0232.16553.05518.32764.07154.49512a12.08048,12.08048,0,0,1,0,2.373c-.01636.16748-.04834.32959-.07154.49512-.03125.22266-.05786.44531-.10156.666-.03833.19287-.09155.37988-.13916.56884-.04736.19043-.08936.38184-.14648.56983-.05665.1875-.1272.36816-.19288.55127-.0664.186-.12768.37353-.20361.55664-.071.17138-.15454.33545-.23315.50244-.08838.188-.17212.37793-.27076.562-.085.15869-.18188.30908-.27343.46289-.1084.18213-.21143.36621-.33057.54395-.11279.16845-.23877.32715-.35986.48974-.1128.15088-.21778.30567-.33863.45264C233.04517,175.89209,232.79761,176.16406,232.53955,176.42529Z"/>
</svg>
