<svg id="Flat" xmlns="http://www.w3.org/2000/svg" viewBox="0 0 256 256">
  <path d="M232.48535,112.48535l-48,48a12.0001,12.0001,0,0,1-16.9707-16.9707L207.0293,104,167.51465,64.48535a12.0001,12.0001,0,0,1,16.9707-16.9707l48,48A11.99973,11.99973,0,0,1,232.48535,112.48535Zm-55.91675-.09228c.24683-.252.48536-.51172.70948-.78467.12378-.15039.23169-.30908.34692-.46387.11816-.15869.24121-.31348.35132-.478.1206-.18017.22534-.3667.3352-.55127.09009-.15185.18555-.2998.269-.456.09961-.18555.18432-.377.27343-.56689.07764-.16553.1604-.32764.23072-.49756.07641-.18457.13842-.37354.20532-.561.06494-.18164.13476-.36084.19141-.54687.05712-.189.0996-.38135.14721-.57325.04712-.188.10034-.374.13819-.56543.04419-.22168.07055-.44482.102-.668.02319-.165.05468-.32666.071-.49366a12.042,12.042,0,0,0,0-2.373c-.01636-.167-.04785-.32862-.071-.49366-.0315-.22314-.05786-.44628-.102-.668-.03785-.19141-.09107-.37745-.13819-.56543-.04761-.1919-.09009-.38428-.14721-.57373-.0564-.18555-.12623-.36475-.19141-.54639-.0669-.1875-.12891-.37647-.20532-.56152-.07056-.16944-.15308-.33155-.231-.49708-.08911-.18994-.17358-.38134-.27319-.56689-.0835-.15625-.179-.3042-.269-.456-.10986-.18457-.2146-.3711-.3352-.55127-.11011-.16455-.23316-.31934-.35132-.478-.11523-.15479-.22314-.31348-.34692-.46387-.22412-.27295-.46265-.53271-.70948-.78467-.02929-.02978-.05371-.0625-.08325-.09228l-48-48a12.0001,12.0001,0,1,0-16.9707,16.9707L139.0293,92H128A108.12186,108.12186,0,0,0,20,200a12,12,0,0,0,24,0,84.09562,84.09562,0,0,1,84-84h11.0293l-27.51465,27.51465a12.0001,12.0001,0,0,0,16.9707,16.9707l48-48C176.51489,112.45557,176.53931,112.42285,176.5686,112.39307Z"/>
</svg>
