<svg id="Flat" xmlns="http://www.w3.org/2000/svg" viewBox="0 0 256 256">
  <path d="M204,80V224a12,12,0,0,1-24,0V92H76.9707l27.51465,27.51465a12.0001,12.0001,0,0,1-16.9707,16.9707l-48-48c-.019-.019-.03467-.04-.05371-.0592-.2583-.26184-.50635-.53406-.73975-.81873-.12012-.146-.22461-.29992-.33691-.45019-.12158-.16321-.248-.32251-.36133-.492-.11865-.177-.22168-.36084-.33008-.54272-.0918-.15442-.189-.30518-.27392-.46387-.09864-.18457-.18262-.37427-.271-.5625-.07861-.16687-.16162-.33056-.23291-.50146-.07617-.18384-.1377-.37134-.2041-.55786-.06543-.183-.13574-.36341-.19239-.5503-.05712-.18835-.09912-.37951-.14648-.56982-.04736-.18946-.10059-.37622-.13916-.569-.04346-.22083-.07031-.44373-.10156-.66614-.02344-.1654-.05518-.32788-.07129-.49536a12.03715,12.03715,0,0,1,0-2.37256c.01611-.16748.04785-.33.07129-.49536.03125-.22241.0581-.44531.10156-.66614.03857-.19275.0918-.37951.13916-.569.04736-.19031.08936-.38147.14648-.56982.05665-.18665.127-.36682.19239-.54956.0664-.18677.12793-.37476.2041-.55884.07129-.17053.1543-.334.23242-.50049.08887-.18848.17236-.37842.27149-.56323.085-.15869.18212-.30945.27392-.46387.1084-.18188.21143-.36572.33008-.54272.11328-.16944.23975-.32874.36133-.492.1123-.15027.21679-.3042.33691-.45019.2334-.28467.48145-.55689.73975-.81873.019-.01916.03467-.04016.05371-.0592l48-48a12.0001,12.0001,0,0,1,16.9707,16.9707L76.9707,68H192A12.00028,12.00028,0,0,1,204,80Z"/>
</svg>
