<svg id="Flat" xmlns="http://www.w3.org/2000/svg" viewBox="0 0 256 256">
  <path d="M204,32V176a12.00028,12.00028,0,0,1-12,12H76.9707l27.51465,27.51465a12.0001,12.0001,0,0,1-16.9707,16.9707l-48-48c-.019-.019-.03467-.04-.05347-.05908-.25854-.262-.50635-.53418-.74-.81885-.12012-.146-.22461-.2998-.33667-.45019-.12182-.16309-.24829-.32251-.36157-.492-.11865-.177-.22168-.36084-.32983-.54272-.09205-.1543-.18921-.30518-.27417-.46387-.09888-.18457-.18262-.37427-.271-.5625-.07861-.167-.16187-.33056-.23291-.50146-.07593-.18384-.13745-.37134-.2041-.55786-.06543-.18287-.13574-.36353-.19239-.5503-.05712-.18823-.09912-.37964-.14648-.56982-.04761-.18946-.10083-.37622-.13916-.56909-.0437-.22071-.07031-.44361-.10156-.666-.0232-.16553-.05518-.32788-.07154-.49536a12.0756,12.0756,0,0,1,0-2.37256c.01636-.16748.04834-.32983.07154-.49536.03125-.22241.05786-.44531.10156-.666.03833-.19287.09155-.37963.13916-.56909.04736-.19018.08936-.38159.14648-.56982.05665-.18677.127-.367.19214-.54956.06665-.18677.12842-.37476.20459-.55884.0708-.17065.15406-.334.23218-.50049.08862-.18848.17261-.37842.27149-.56323.085-.15869.18212-.30957.27417-.46387.10815-.18188.21118-.36572.32983-.54272.11328-.16944.23975-.32886.36157-.492.11206-.15039.21655-.3042.33667-.45019.23364-.28467.48145-.55689.74-.81885.0188-.019.03443-.04.05347-.05908l48-48a12.0001,12.0001,0,1,1,16.9707,16.9707L76.9707,164H180V32a12,12,0,0,1,24,0Z"/>
</svg>
