<svg id="Flat" xmlns="http://www.w3.org/2000/svg" viewBox="0 0 256 256">
  <path d="M232.5686,112.39331c-.02929.02979-.05371.0625-.08325.092l-48,48a12.0001,12.0001,0,0,1-16.9707-16.9707L195.0293,116H128a84.09562,84.09562,0,0,0-84,84,12,12,0,0,1-24,0A108.12186,108.12186,0,0,1,128,92h67.0293L167.51465,64.48535a12.0001,12.0001,0,0,1,16.9707-16.9707l48,48c.02954.02954.054.06225.08325.092.24683.25195.48536.51221.70948.78491.12378.15064.23169.30908.34692.46411.11816.15869.24121.31324.35132.47779.1206.17993.22534.3667.3352.55151.09009.15161.18555.29956.269.45557.09961.186.18408.37719.27319.56689.07788.16553.1604.32788.231.49756.07641.18481.13842.37378.20532.56128.06518.18164.135.36084.19141.54663.05712.18945.0996.38184.14721.57324.04712.18848.10034.374.13819.56592.04419.22144.07055.44482.102.66772.02319.165.05468.32691.071.49366a12.042,12.042,0,0,1,0,2.373c-.01636.16675-.04785.32862-.071.49366-.0315.2229-.05786.44628-.102.66772-.03785.19189-.09107.37744-.13819.56592-.04761.1914-.09009.38379-.14721.57324-.05665.18579-.12647.365-.19141.54663-.0669.18775-.12891.37647-.20532.56128-.07032.16943-.15308.33179-.23072.49732-.08911.18994-.17382.3811-.27343.56713-.0835.156-.179.304-.269.45557-.10986.18481-.2146.37158-.3352.55151-.11011.16455-.23316.3191-.35132.47779-.11523.155-.22314.31347-.34692.46411C233.054,111.8811,232.81543,112.14136,232.5686,112.39331Z"/>
</svg>
