<svg id="Flat" xmlns="http://www.w3.org/2000/svg" viewBox="0 0 256 256">
  <path d="M164,88a12,12,0,0,1,12-12h64a12,12,0,0,1,0,24H176A12,12,0,0,1,164,88Zm76,28H176a12,12,0,0,0,0,24h64a12,12,0,0,0,0-24Zm0,40H176a12,12,0,0,0,0,24h64a12,12,0,0,0,0-24Zm0,40H72a12,12,0,0,0,0,24H240a12,12,0,0,0,0-24ZM79.92969,180A59.96465,59.96465,0,0,1,25.48926,94.81934,32.00456,32.00456,0,0,1,47.92969,40a11.99642,11.99642,0,0,1,6.35986,1.82422L114.624,79.5332A8.00033,8.00033,0,0,0,111.92969,64a12,12,0,0,1,0-24,32,32,0,0,1,0,64,11.99643,11.99643,0,0,1-6.35987-1.82422L76.72827,84.1499a35.99247,35.99247,0,0,0-8.839,69.772l.04041-39.45752a12.00039,12.00039,0,0,1,11.99951-11.9878h.01269a12.00009,12.00009,0,0,1,11.9878,12.0127l-.04041,39.48242a35.88877,35.88877,0,0,0,22.97986-25.251,12.0002,12.0002,0,1,1,23.292,5.78809A59.88156,59.88156,0,0,1,79.92969,180Zm-40-108a7.99288,7.99288,0,0,0,.54443,2.855A60.29124,60.29124,0,0,1,50.48865,67.75l-5.2533-3.2832A8.01375,8.01375,0,0,0,39.92969,72Z"/>
</svg>
