<svg xmlns="http://www.w3.org/2000/svg" viewBox="0 0 256 256"><path d="M60,128a12,12,0,0,1-12,12H24a12,12,0,0,1,0-24h4V60H24a12,12,0,0,1,0-24H40a12.2,12.2,0,0,1,10.2,5.6L80,89.4l29.8-47.8A12.2,12.2,0,0,1,120,36h16a12,12,0,0,1,0,24h-4v56h4a12,12,0,0,1,0,24H112a12,12,0,0,1-12-12,11.9,11.9,0,0,1,8-11.3V89.8L90.2,118.4a12.1,12.1,0,0,1-20.4,0L52,89.8v26.9A11.9,11.9,0,0,1,60,128Zm116-28h64a12,12,0,0,0,0-24H176a12,12,0,0,0,0,24Zm64,16H176a12,12,0,0,0,0,24h64a12,12,0,0,0,0-24Zm0,40H72a12,12,0,0,0,0,24H240a12,12,0,0,0,0-24Zm0,40H72a12,12,0,0,0,0,24H240a12,12,0,0,0,0-24Z"/></svg>