<svg id="Flat" xmlns="http://www.w3.org/2000/svg" viewBox="0 0 256 256">
  <path d="M216,36H40A20.02229,20.02229,0,0,0,20,56V200a20.02229,20.02229,0,0,0,20,20H216a20.02229,20.02229,0,0,0,20-20V56A20.02229,20.02229,0,0,0,216,36Zm-4,160H44V60H212ZM64,96A12.0006,12.0006,0,0,1,76,84H180a12,12,0,0,1,0,24H76A12.0006,12.0006,0,0,1,64,96Zm0,32a12.0006,12.0006,0,0,1,12-12H180a12,12,0,0,1,0,24H76A12.0006,12.0006,0,0,1,64,128Zm0,32a12.0006,12.0006,0,0,1,12-12H180a12,12,0,0,1,0,24H76A12.0006,12.0006,0,0,1,64,160Z"/>
</svg>
