<svg id="Flat" xmlns="http://www.w3.org/2000/svg" viewBox="0 0 256 256">
  <path d="M127.99121,19.99512a108,108,0,1,0,59.72461,197.99511,12,12,0,1,0-13.28711-19.98632,84.00777,84.00777,0,1,1,37.5625-70.00879c0,9.28808-1.666,17.083-4.69141,21.94922-2.63671,4.24121-6.01855,6.05078-11.30859,6.05078s-8.67187-1.80957-11.30859-6.05078c-3.02539-4.86622-4.69141-12.66114-4.69141-21.94922v-40A11.9986,11.9986,0,0,0,156.502,84.53955a52.00161,52.00161,0,1,0,8.855,79.56445c6.93457,10.19556,17.44776,15.89112,30.63428,15.89112,24.67285,0,40-19.92481,40-52A108.12186,108.12186,0,0,0,127.99121,19.99512Zm0,136a28,28,0,1,1,28-28A28.03146,28.03146,0,0,1,127.99121,155.99512Z"/>
</svg>
