<svg id="Flat" xmlns="http://www.w3.org/2000/svg" viewBox="0 0 256 256">
  <path d="M200.99756,128a196.045,196.045,0,0,0,17.9458-31.07617c11.80762-26.23926,11.65332-47.34668-.43359-59.4336C206.42236,25.4043,185.31494,25.25,159.07568,37.05762A195.96512,195.96512,0,0,0,128,55.00244,195.96512,195.96512,0,0,0,96.92432,37.05762C70.68457,25.249,49.57764,25.4043,37.49023,37.49023,25.40332,49.57715,25.249,70.68457,37.05664,96.92383A196.045,196.045,0,0,0,55.00244,128a196.045,196.045,0,0,0-17.9458,31.07617c-11.80762,26.23926-11.65332,47.34668.43359,59.4336,6.11817,6.11816,14.5459,9.17871,24.78174,9.17871,9.98682,0,21.69483-2.915,34.65235-8.7461A195.96512,195.96512,0,0,0,128,200.99756a195.96512,195.96512,0,0,0,31.07568,17.94482c12.95948,5.832,24.665,8.7461,34.65235,8.7461,10.23437,0,18.66406-3.06153,24.78174-9.17871,12.08691-12.08692,12.24121-33.19434.43359-59.4336A196.045,196.045,0,0,0,200.99756,128Zm-7.16309-75.76953c3.62842,0,6.25782.7832,7.70459,2.23047,3.5,3.499,3.47071,14.9414-4.48242,32.61426A161.51429,161.51429,0,0,1,185.55713,107.949c-5.58106-6.61767-11.58057-13.16821-17.959-19.54663-6.3872-6.387-12.94677-12.394-19.57373-17.98144C168.022,57.59131,184.35254,52.23047,193.83447,52.23047ZM171.00635,128A287.09243,287.09243,0,0,1,150.62744,150.627,288.94983,288.94983,0,0,1,128.001,171.05054,288.73445,288.73445,0,0,1,105.37256,150.627,287.09243,287.09243,0,0,1,84.99365,128,294.89189,294.89189,0,0,1,128,84.949a288.78931,288.78931,0,0,1,22.62744,20.42408A287.09243,287.09243,0,0,1,171.00635,128ZM58.94336,87.0752C50.99023,69.40234,50.96094,57.96,54.46094,54.46094c1.44726-1.44727,4.07422-2.23047,7.70459-2.23047,9.48291,0,25.81347,5.36182,45.80957,18.19043-6.62647,5.5874-13.186,11.59448-19.57324,17.98144-6.37842,6.37842-12.37793,12.929-17.959,19.54663A161.51429,161.51429,0,0,1,58.94336,87.0752Zm3.22217,116.69433c-3.62842,0-6.25782-.7832-7.70459-2.23047-3.5-3.499-3.47071-14.9414,4.48242-32.61426A161.51429,161.51429,0,0,1,70.44287,148.051c5.58106,6.61767,11.58057,13.16821,17.959,19.54663,6.3872,6.3872,12.94677,12.39453,19.57373,17.98193C87.97852,198.40942,71.64746,203.77075,62.16553,203.76953Zm139.37353-2.23047c-5.22851,5.227-25.86328,1.77832-53.51367-15.96045,6.62647-5.58715,13.186-11.59423,19.57275-17.981,6.37842-6.37842,12.37793-12.929,17.959-19.54663a161.51429,161.51429,0,0,1,11.49951,20.87377C205.00977,186.59766,205.03906,198.04,201.53906,201.53906ZM144,128a16,16,0,1,1-16-16A16.00016,16.00016,0,0,1,144,128Z"/>
</svg>
