<svg id="Flat" xmlns="http://www.w3.org/2000/svg" viewBox="0 0 256 256">
  <path d="M128,20c-.04346,0-.08643.00146-.12939.00171l-.08838.001A106.79664,106.79664,0,1,0,128,20Zm0,192A83.99117,83.99117,0,0,1,105.51953,47.07959C100.09863,60.80957,100,71.34521,100,72a28.00377,28.00377,0,0,0,42.0127,24.24414,11.99994,11.99994,0,1,0-12.02247-20.77148A3.92443,3.92443,0,0,1,128,76a4.00446,4.00446,0,0,1-3.99951-3.93652c.02588-.80127.60693-13.74219,9.92383-27.8313A83.98809,83.98809,0,0,1,128,212ZM92,144a16,16,0,1,1,16-16A16.00016,16.00016,0,0,1,92,144Zm88-16a16,16,0,1,1-16-16A16.00016,16.00016,0,0,1,180,128Zm-15.46777,33.36035a12.00087,12.00087,0,0,1-3.35108,16.63672,60.03235,60.03235,0,0,1-66.36084,0,11.99974,11.99974,0,1,1,13.28614-19.98633,36.03158,36.03158,0,0,0,39.78906-.00195A11.99847,11.99847,0,0,1,164.53223,161.36035Z"/>
</svg>
