<svg xmlns="http://www.w3.org/2000/svg" viewBox="0 0 256 256"><path d="M128,20h-.2a108.1,108.1,0,1,0,.2,0Zm0,192A84,84,0,0,1,105.5,47.1C100.1,60.8,100,71.3,100,72a28.1,28.1,0,0,0,28,28,27.5,27.5,0,0,0,14-3.8,12,12,0,1,0-12-20.7,4.6,4.6,0,0,1-2,.5,4,4,0,0,1-4-3.9c0-.8.6-13.8,9.9-27.9A84,84,0,0,1,128,212ZM92,144a16,16,0,1,1,16-16A16,16,0,0,1,92,144Zm88-16a16,16,0,1,1-16-16A16,16,0,0,1,180,128Zm-15.5,33.4a11.9,11.9,0,0,1-3.3,16.6,60.1,60.1,0,0,1-66.4,0,12,12,0,0,1,13.3-20,36,36,0,0,0,39.8,0A11.9,11.9,0,0,1,164.5,161.4Z"/></svg>