<svg xmlns="http://www.w3.org/2000/svg" viewBox="0 0 256 256"><path d="M128,12a92.1,92.1,0,0,0-92,92c0,24.5,9.5,50.1,26.2,70.2C72,186,83.4,195,95.6,200.7L84.9,227.5A12,12,0,0,0,96,244h64a12,12,0,0,0,11.1-16.5l-10.7-26.8c12.2-5.7,23.6-14.7,33.4-26.5C210.5,154.1,220,128.5,220,104A92.1,92.1,0,0,0,128,12Zm14.3,208H113.7l5.1-12.6a70.8,70.8,0,0,0,18.4,0Zm33-61.1C161.9,175.1,145.1,184,128,184s-33.9-8.9-47.3-25.1S60,122.8,60,104a68,68,0,0,1,136,0C196,122.8,188.3,143.3,175.3,158.9Zm-2-70.9a12,12,0,0,1-7.3,15.3,11.6,11.6,0,0,1-4,.7,12.1,12.1,0,0,1-11.4-8A24,24,0,0,0,136,81.4a12,12,0,0,1,8-22.7A48.3,48.3,0,0,1,173.3,88Z"/></svg>