<svg id="Flat" xmlns="http://www.w3.org/2000/svg" viewBox="0 0 256 256">
  <path d="M190.2251,128l24.8872-24.88721a43.99978,43.99978,0,1,0-62.2246-62.22558L128,65.7749,103.1123,40.88745a43.9997,43.9997,0,1,0-62.2246,62.22534L65.7749,128,40.8877,152.88721a43.99978,43.99978,0,1,0,62.2246,62.22558L128,190.2251l24.8877,24.88769a43.99978,43.99978,0,1,0,62.2246-62.22558ZM169.8584,57.85791v-.00024a19.99967,19.99967,0,1,1,28.2832,28.28442L173.25439,111.0293,144.9707,82.74561ZM156.28369,128,128,156.28369,99.71631,128,128,99.71631ZM57.8584,86.14209A19.99959,19.99959,0,1,1,86.1416,57.85791l24.8877,24.8877L82.74561,111.0293Zm28.2832,112a19.99959,19.99959,0,1,1-28.2832-28.28418L82.74561,144.9707l28.28369,28.28369Zm112,0a19.9986,19.9986,0,0,1-28.2832,0l-24.8877-24.8877,28.28369-28.28369,24.88721,24.88721a19.9986,19.9986,0,0,1,0,28.28418Z"/>
</svg>
