<svg xmlns="http://www.w3.org/2000/svg" viewBox="0 0 256 256"><path d="M190.2,128l24.9-24.9a44,44,0,1,0-62.2-62.2L128,65.8,103.1,40.9a44,44,0,1,0-62.2,62.2L65.8,128,40.9,152.9a44,44,0,1,0,62.2,62.2L128,190.2l24.9,24.9a44,44,0,1,0,62.2-62.2ZM169.9,57.9h0a19.9,19.9,0,1,1,28.2,28.2L173.3,111,145,82.7ZM156.3,128,128,156.3,99.7,128,128,99.7ZM57.9,86.1A19.9,19.9,0,1,1,86.1,57.9L111,82.7,82.7,111Zm28.2,112a19.9,19.9,0,1,1-28.2-28.2L82.7,145,111,173.3Zm112,0a19.8,19.8,0,0,1-28.2,0L145,173.3,173.3,145l24.8,24.9a19.8,19.8,0,0,1,0,28.2Z"/></svg>