<svg id="Flat" xmlns="http://www.w3.org/2000/svg" viewBox="0 0 256 256">
  <path d="M232,68H216V64a20.02229,20.02229,0,0,0-20-20H172a20.02229,20.02229,0,0,0-20,20v52H104V64A20.02229,20.02229,0,0,0,84,44H60A20.02229,20.02229,0,0,0,40,64v4H24A20.02229,20.02229,0,0,0,4,88v80a20.02229,20.02229,0,0,0,20,20H40v4a20.02229,20.02229,0,0,0,20,20H84a20.02229,20.02229,0,0,0,20-20V140h48v52a20.02229,20.02229,0,0,0,20,20h24a20.02229,20.02229,0,0,0,20-20v-4h16a20.02229,20.02229,0,0,0,20-20V88A20.02229,20.02229,0,0,0,232,68ZM28,164V92H40v72Zm52,24H64V68H80Zm112,0H176V68h16Zm36-24H216V92h12Z"/>
</svg>
