<svg id="Flat" xmlns="http://www.w3.org/2000/svg" viewBox="0 0 256 256">
  <path d="M232,68H220V64a20.02229,20.02229,0,0,0-20-20H176a20.02229,20.02229,0,0,0-20,20v52H100V64A20.02229,20.02229,0,0,0,80,44H56A20.02229,20.02229,0,0,0,36,64v4H24A20.02229,20.02229,0,0,0,4,88v80a20.02229,20.02229,0,0,0,20,20H36v4a20.02229,20.02229,0,0,0,20,20H80a20.02229,20.02229,0,0,0,20-20V140h56v52a20.02229,20.02229,0,0,0,20,20h24a20.02229,20.02229,0,0,0,20-20v-4h12a20.02229,20.02229,0,0,0,20-20V88A20.02229,20.02229,0,0,0,232,68ZM28,164V92h8v72Zm48,24H60V68H76Zm120,0H180V68h16Zm32-24h-8V92h8Z"/>
</svg>
