<svg id="Flat" xmlns="http://www.w3.org/2000/svg" viewBox="0 0 256 256">
  <path d="M236,48V88a12,12,0,0,1-24,0V60H184a12,12,0,0,1,0-24h40A12.00028,12.00028,0,0,1,236,48ZM72,196H44V168a12,12,0,0,0-24,0v40a12.00028,12.00028,0,0,0,12,12H72a12,12,0,0,0,0-24Zm152-40a12.00028,12.00028,0,0,0-12,12v28H184a12,12,0,0,0,0,24h40a12.00028,12.00028,0,0,0,12-12V168A12.00028,12.00028,0,0,0,224,156ZM32,100A12.00028,12.00028,0,0,0,44,88V60H72a12,12,0,0,0,0-24H32A12.00028,12.00028,0,0,0,20,48V88A12.00028,12.00028,0,0,0,32,100ZM80,76A12.00028,12.00028,0,0,0,68,88v80a12,12,0,0,0,24,0V88A12.00028,12.00028,0,0,0,80,76Zm108,92V88a12,12,0,0,0-24,0v80a12,12,0,0,0,24,0ZM144,76a12.00028,12.00028,0,0,0-12,12v80a12,12,0,0,0,24,0V88A12.00028,12.00028,0,0,0,144,76Zm-32,0a12.00028,12.00028,0,0,0-12,12v80a12,12,0,0,0,24,0V88A12.00028,12.00028,0,0,0,112,76Z"/>
</svg>
