<svg id="Flat" xmlns="http://www.w3.org/2000/svg" viewBox="0 0 256 256">
  <path d="M128,20A108,108,0,1,0,236,128,108.12249,108.12249,0,0,0,128,20ZM76.96741,194.65674a108.25517,108.25517,0,0,0,8.184-11.9751,11.99979,11.99979,0,1,0-20.68653-12.16748q-2.05077,3.48633-4.43115,6.7627a83.73893,83.73893,0,0,1,0-98.55372q2.376,3.2732,4.43115,6.76319a12.00009,12.00009,0,0,0,20.6875-12.167,108.194,108.194,0,0,0-8.18481-11.97608,83.753,83.753,0,0,1,102.06494,0,108.194,108.194,0,0,0-8.18481,11.97608,12.00009,12.00009,0,1,0,20.6875,12.167Q193.58557,82,195.96631,78.72314a83.73893,83.73893,0,0,1,0,98.55372q-2.37561-3.27319-4.43115-6.7627a11.99979,11.99979,0,1,0-20.68653,12.16748,108.25517,108.25517,0,0,0,8.184,11.9751,83.7534,83.7534,0,0,1-102.06518,0Zm93.26013-42.749A11.99093,11.99093,0,0,1,156.835,141.48486a109.30979,109.30979,0,0,1,0-26.96972,11.99994,11.99994,0,0,1,23.81543,2.96972,85.32663,85.32663,0,0,0,0,21.03028A11.99935,11.99935,0,0,1,170.22754,151.90771ZM99.166,114.5249A109.34052,109.34052,0,0,1,100,128a109.33675,109.33675,0,0,1-.835,13.48486,11.99994,11.99994,0,0,1-23.81543-2.96972A85.284,85.284,0,0,0,76,128a85.30156,85.30156,0,0,0-.64941-10.50586A11.99991,11.99991,0,1,1,99.166,114.5249Z"/>
</svg>
