<svg xmlns="http://www.w3.org/2000/svg" viewBox="0 0 256 256"><path d="M128,20A108,108,0,1,0,236,128,108.1,108.1,0,0,0,128,20ZM77,194.7a110.4,110.4,0,0,0,8.2-12,12,12,0,0,0-20.7-12.2c-1.4,2.3-2.9,4.6-4.5,6.8a84,84,0,0,1,0-98.6c1.6,2.2,3.1,4.5,4.5,6.8a11.9,11.9,0,0,0,10.3,5.9,11.3,11.3,0,0,0,6.1-1.7,12,12,0,0,0,4.3-16.4,110.4,110.4,0,0,0-8.2-12,83.8,83.8,0,0,1,102,0,110.4,110.4,0,0,0-8.2,12,12,12,0,0,0,4.3,16.4,11.3,11.3,0,0,0,6.1,1.7,11.9,11.9,0,0,0,10.3-5.9c1.4-2.3,2.9-4.6,4.5-6.8a84,84,0,0,1,0,98.6c-1.6-2.2-3.1-4.5-4.5-6.8a12,12,0,0,0-20.7,12.2,110.4,110.4,0,0,0,8.2,12,83.8,83.8,0,0,1-102,0Zm93.2-42.8h-1.5a12.1,12.1,0,0,1-11.9-10.5,114.3,114.3,0,0,1,0-27,12,12,0,0,1,23.9,3,79.1,79.1,0,0,0,0,21A12,12,0,0,1,170.2,151.9Zm-71-37.4A122.2,122.2,0,0,1,100,128a122.2,122.2,0,0,1-.8,13.5A12.1,12.1,0,0,1,87.3,152H85.8a12,12,0,0,1-10.5-13.4A73.1,73.1,0,0,0,76,128a92.4,92.4,0,0,0-.6-10.5,11.9,11.9,0,0,1,10.4-13.4A12.1,12.1,0,0,1,99.2,114.5Z"/></svg>