<svg xmlns="http://www.w3.org/2000/svg" viewBox="0 0 256 256"><path d="M205.3,203.3a107.7,107.7,0,0,0,0-150.6l-.8-1-.9-.8a107.9,107.9,0,0,0-151.2,0l-.9.8-.8,1a107.7,107.7,0,0,0,0,150.6l.8,1,.9.8a107.9,107.9,0,0,0,151.2,0l.9-.8ZM44.9,140H75.1A82.4,82.4,0,0,1,60,177.3,84.2,84.2,0,0,1,44.9,140ZM60,78.7A82.4,82.4,0,0,1,75.1,116H44.9A84.2,84.2,0,0,1,60,78.7ZM211.1,116H180.9A82.4,82.4,0,0,1,196,78.7,84.2,84.2,0,0,1,211.1,116Zm-54.4,0H140V44.9a84,84,0,0,1,39,16.4A107.9,107.9,0,0,0,156.7,116ZM116,116H99.3A107.9,107.9,0,0,0,77,61.3a84,84,0,0,1,39-16.4ZM99.3,140H116v71.1a84,84,0,0,1-39-16.4A107.9,107.9,0,0,0,99.3,140Zm40.7,0h16.7A107.9,107.9,0,0,0,179,194.7a84,84,0,0,1-39,16.4Zm40.9,0h30.2A84.2,84.2,0,0,1,196,177.3,82.4,82.4,0,0,1,180.9,140Z"/></svg>