<svg id="Flat" xmlns="http://www.w3.org/2000/svg" viewBox="0 0 256 256">
  <path d="M205.31982,203.31982a107.79548,107.79548,0,0,0,.006-150.63378,12.15572,12.15572,0,0,0-.85511-.9502c-.28808-.28711-.58764-.55518-.89624-.80713a107.79739,107.79739,0,0,0-151.14673-.002q-.46416.37793-.89843.80908a12.15572,12.15572,0,0,0-.85511.9502,107.79548,107.79548,0,0,0,.006,150.63378,12.098,12.098,0,0,0,.85009.94385c.28223.28125.57618.54346.87806.791a107.79831,107.79831,0,0,0,151.18273.00049c.30225-.24756.5962-.51026.87867-.79151A12.098,12.098,0,0,0,205.31982,203.31982ZM44.87085,140H75.1449a83.10135,83.10135,0,0,1-15.1117,37.27637A83.53293,83.53293,0,0,1,44.87085,140ZM60.0332,78.72363A83.10135,83.10135,0,0,1,75.1449,116H44.87085A83.53523,83.53523,0,0,1,60.0332,78.72363ZM211.12915,116H180.8551a83.10135,83.10135,0,0,1,15.1117-37.27637A83.53523,83.53523,0,0,1,211.12915,116Zm-54.46582,0H140V44.87109A83.57232,83.57232,0,0,1,179.02,61.3335,106.93709,106.93709,0,0,0,156.66333,116ZM116,116H99.33667A106.93709,106.93709,0,0,0,76.98,61.3335,83.57232,83.57232,0,0,1,116,44.87109ZM99.33667,140H116v71.12891A83.5718,83.5718,0,0,1,76.98,194.6665,106.93878,106.93878,0,0,0,99.33667,140ZM140,140h16.66333A106.93878,106.93878,0,0,0,179.02,194.6665,83.5718,83.5718,0,0,1,140,211.12891Zm40.8551,0h30.27405a83.53293,83.53293,0,0,1-15.16235,37.27637A83.10135,83.10135,0,0,1,180.8551,140Z"/>
</svg>
