<svg id="Flat" xmlns="http://www.w3.org/2000/svg" viewBox="0 0 256 256">
  <path d="M184,36H72A28.03146,28.03146,0,0,0,44,64V212a28.03146,28.03146,0,0,0,28,28H184a28.03146,28.03146,0,0,0,28-28V64A28.03146,28.03146,0,0,0,184,36Zm4,176a4.00458,4.00458,0,0,1-4,4H72a4.00458,4.00458,0,0,1-4-4V64a4.00458,4.00458,0,0,1,4-4H184a4.00458,4.00458,0,0,1,4,4ZM84,12A12,12,0,0,1,96,0h64a12,12,0,0,1,0,24H96A12,12,0,0,1,84,12Zm32,124V96a12,12,0,0,1,24,0v40a12,12,0,0,1-24,0Zm28,40a16,16,0,1,1-16-16A16.01833,16.01833,0,0,1,144,176Z"/>
</svg>
