<svg id="Flat" xmlns="http://www.w3.org/2000/svg" viewBox="0 0 256 256">
  <path d="M184,292H72a28.03161,28.03161,0,0,0-28,28V468a28.03146,28.03146,0,0,0,28,28H184a28.03146,28.03146,0,0,0,28-28V320A28.03161,28.03161,0,0,0,184,292Zm4,176a4.00458,4.00458,0,0,1-4,4H72a4.00458,4.00458,0,0,1-4-4V320a4.00458,4.00458,0,0,1,4-4H184a4.00458,4.00458,0,0,1,4,4ZM84,268a12,12,0,0,1,12-12h64a12,12,0,0,1,0,24H96A12,12,0,0,1,84,268Zm69.937,119.27246a12.00079,12.00079,0,0,1,1.20459,11.18433l-16,39.99975a11.99983,11.99983,0,0,1-22.2832-8.91308L126.27539,406H112a11.99971,11.99971,0,0,1-11.1416-16.45679l16-40a11.99993,11.99993,0,0,1,22.2832,8.91358L129.72461,382H144A12.00016,12.00016,0,0,1,153.937,387.27246Z" opacity="0.1"/>
  <path d="M192,44H44A28.03146,28.03146,0,0,0,16,72V184a28.03146,28.03146,0,0,0,28,28H192a28.03146,28.03146,0,0,0,28-28V72A28.03146,28.03146,0,0,0,192,44Zm4,140a4.00458,4.00458,0,0,1-4,4H44a4.00458,4.00458,0,0,1-4-4V72a4.00458,4.00458,0,0,1,4-4H192a4.00458,4.00458,0,0,1,4,4Zm60-88v64a12,12,0,0,1-24,0V96a12,12,0,0,1,24,0ZM143.937,121.27246A12.00127,12.00127,0,0,1,145.1416,132.457l-16,40a12,12,0,0,1-22.2832-8.91406l9.417-23.543H102a11.99981,11.99981,0,0,1-11.1416-16.457l16-40A12,12,0,0,1,129.1416,92.457L119.72461,116H134A12.00016,12.00016,0,0,1,143.937,121.27246Z"/>
</svg>
