<svg id="Flat" xmlns="http://www.w3.org/2000/svg" viewBox="0 0 256 256">
  <path d="M116,148V92a12,12,0,0,1,24,0v56a12,12,0,0,1-24,0Zm12,20a16,16,0,1,0,16,16A16.00008,16.00008,0,0,0,128,168ZM96,28h64a12,12,0,0,0,0-24H96a12,12,0,0,0,0,24ZM212,64V216a28.03146,28.03146,0,0,1-28,28H72a28.03146,28.03146,0,0,1-28-28V64A28.03146,28.03146,0,0,1,72,36H184A28.03146,28.03146,0,0,1,212,64Zm-24,0a4.00458,4.00458,0,0,0-4-4H72a4.00458,4.00458,0,0,0-4,4V216a4.00458,4.00458,0,0,0,4,4H184a4.00458,4.00458,0,0,0,4-4Z"/>
</svg>
