<svg id="Flat" xmlns="http://www.w3.org/2000/svg" viewBox="0 0 256 256">
  <path d="M104,128.00012v-40a12,12,0,1,1,24,0v40a12,12,0,0,1-24,0Zm12,20a16,16,0,1,0,16,16A15.99993,15.99993,0,0,0,116,148.00012Zm124-63.9956a12,12,0,0,0-12,12v64a12,12,0,0,0,24,0v-64A12,12,0,0,0,240,84.00452Zm-20-12v112a28.03146,28.03146,0,0,1-28,28H40a28.03146,28.03146,0,0,1-28-28v-112a28.03145,28.03145,0,0,1,28-28H192A28.03145,28.03145,0,0,1,220,72.00452Zm-24,0a4.00458,4.00458,0,0,0-4-4H40a4.00458,4.00458,0,0,0-4,4v112a4.00458,4.00458,0,0,0,4,4H192a4.00458,4.00458,0,0,0,4-4Z"/>
</svg>
