<svg id="Flat" xmlns="http://www.w3.org/2000/svg" viewBox="0 0 256 256">
  <path d="M88,12A12,12,0,0,1,100,0h56a12,12,0,0,1,0,24H100A12,12,0,0,1,88,12ZM212.00586,64V212a28.03146,28.03146,0,0,1-28,28h-112a28.03146,28.03146,0,0,1-28-28V64a28.03146,28.03146,0,0,1,28-28h112A28.03146,28.03146,0,0,1,212.00586,64Zm-24,0a4.00458,4.00458,0,0,0-4-4h-112a4.00458,4.00458,0,0,0-4,4V212a4.00458,4.00458,0,0,0,4,4h112a4.00458,4.00458,0,0,0,4-4ZM128,148a12,12,0,0,0,12-12V96a12,12,0,0,0-24,0v40A12,12,0,0,0,128,148Zm0,12a16,16,0,1,0,16,16A16.00008,16.00008,0,0,0,128,160Z"/>
</svg>
