<svg id="Flat" xmlns="http://www.w3.org/2000/svg" viewBox="0 0 256 256">
  <path d="M192,44H44A28.03146,28.03146,0,0,0,16,72V184a28.03146,28.03146,0,0,0,28,28H192a28.03146,28.03146,0,0,0,28-28V72A28.03146,28.03146,0,0,0,192,44Zm4,140a4.00458,4.00458,0,0,1-4,4H44a4.00458,4.00458,0,0,1-4-4V72a4.00458,4.00458,0,0,1,4-4H192a4.00458,4.00458,0,0,1,4,4Zm60-88v64a12,12,0,0,1-24,0V96a12,12,0,0,1,24,0ZM143.937,121.27246A12.00127,12.00127,0,0,1,145.1416,132.457l-16,40a12,12,0,0,1-22.2832-8.91406l9.417-23.543H102a11.99981,11.99981,0,0,1-11.1416-16.457l16-40A12,12,0,0,1,129.1416,92.457L119.72461,116H134A12.00016,12.00016,0,0,1,143.937,121.27246Z"/>
</svg>
