<svg id="Flat" xmlns="http://www.w3.org/2000/svg" viewBox="0 0 256 256">
  <path d="M84,16A12,12,0,0,1,96,4h64a12,12,0,0,1,0,24H96A12,12,0,0,1,84,16ZM212,64V216a28.03146,28.03146,0,0,1-28,28H72a28.03146,28.03146,0,0,1-28-28V64A28.03161,28.03161,0,0,1,72,36H184A28.03161,28.03161,0,0,1,212,64Zm-24,0a4.00458,4.00458,0,0,0-4-4H72a4.00458,4.00458,0,0,0-4,4V216a4.00458,4.00458,0,0,0,4,4H184a4.00458,4.00458,0,0,0,4-4Zm-44,64H129.72461l9.417-23.54321a11.99993,11.99993,0,0,0-22.2832-8.91358l-16,40A11.99971,11.99971,0,0,0,112,152h14.27539l-9.417,23.54346a11.99983,11.99983,0,1,0,22.2832,8.91308l16-39.99975A11.99971,11.99971,0,0,0,144,128Z"/>
</svg>
