<svg id="Flat" xmlns="http://www.w3.org/2000/svg" viewBox="0 0 256 256">
  <path d="M192,44.00452H44a28.03145,28.03145,0,0,0-28,28v112a28.03146,28.03146,0,0,0,28,28H192a28.03146,28.03146,0,0,0,28-28v-112A28.03145,28.03145,0,0,0,192,44.00452Zm4,140a4.00458,4.00458,0,0,1-4,4H44a4.00458,4.00458,0,0,1-4-4v-112a4.00458,4.00458,0,0,1,4-4H192a4.00458,4.00458,0,0,1,4,4Zm60-88v64a12,12,0,0,1-24,0v-64a12,12,0,0,1,24,0Zm-152,23.9956v-28a12,12,0,1,1,24,0v28a12,12,0,0,1-24,0Zm28,40a16,16,0,1,1-16-16A16.00008,16.00008,0,0,1,132,160.00012Z"/>
</svg>
