<svg id="Flat" xmlns="http://www.w3.org/2000/svg" viewBox="0 0 256 256">
  <path d="M252,96v64a12,12,0,0,1-24,0V96a12,12,0,0,1,24,0ZM220,72V184a28.03146,28.03146,0,0,1-28,28H40a28.03146,28.03146,0,0,1-28-28V72A28.03146,28.03146,0,0,1,40,44H192A28.03146,28.03146,0,0,1,220,72Zm-24,0a4.00458,4.00458,0,0,0-4-4H40a4.00458,4.00458,0,0,0-4,4V184a4.00458,4.00458,0,0,0,4,4H192a4.00458,4.00458,0,0,0,4-4Zm-61.6001,4.00049a12,12,0,0,0-12,12v80a12,12,0,0,0,24,0v-80A12,12,0,0,0,134.3999,76.00049Zm-36.7998,0a12,12,0,0,0-12,12v80a12,12,0,0,0,24,0v-80A12,12,0,0,0,97.6001,76.00049Zm-36.8003,0a12,12,0,0,0-12,12v80a12,12,0,0,0,24,0v-80A12,12,0,0,0,60.7998,76.00049Zm110.4004,0a12,12,0,0,0-12,12v80a12,12,0,0,0,24,0v-80A12,12,0,0,0,171.2002,76.00049Z"/>
</svg>
