<svg id="Flat" xmlns="http://www.w3.org/2000/svg" viewBox="0 0 256 256">
  <path d="M88,12A12,12,0,0,1,100,0h56a12,12,0,0,1,0,24H100A12,12,0,0,1,88,12ZM212.00586,64V212a28.03146,28.03146,0,0,1-28,28h-112a28.03146,28.03146,0,0,1-28-28V64a28.03161,28.03161,0,0,1,28-28h112A28.03161,28.03161,0,0,1,212.00586,64Zm-24,0a4.00458,4.00458,0,0,0-4-4h-112a4.00458,4.00458,0,0,0-4,4V212a4.00458,4.00458,0,0,0,4,4h112a4.00458,4.00458,0,0,0,4-4ZM144,126H129.72461l9.417-23.54321a11.99993,11.99993,0,0,0-22.2832-8.91358l-16,40A11.99971,11.99971,0,0,0,112,150h14.27539l-9.417,23.54346a11.99983,11.99983,0,1,0,22.2832,8.91308l16-39.99975A11.99971,11.99971,0,0,0,144,126Z"/>
</svg>
