<svg id="Flat" xmlns="http://www.w3.org/2000/svg" viewBox="0 0 256 256">
  <path d="M192,44H44A28.03146,28.03146,0,0,0,16,72V184a28.03146,28.03146,0,0,0,28,28H192a28.03146,28.03146,0,0,0,28-28V72A28.03146,28.03146,0,0,0,192,44Zm4,140a4.00458,4.00458,0,0,1-4,4H44a4.00458,4.00458,0,0,1-4-4V72a4.00458,4.00458,0,0,1,4-4H192a4.00458,4.00458,0,0,1,4,4ZM76,92v72a12,12,0,0,1-24,0V92a12,12,0,0,1,24,0Zm36,0v72a12,12,0,0,1-24,0V92a12,12,0,0,1,24,0Zm36,0v72a12,12,0,0,1-24,0V92a12,12,0,0,1,24,0Zm108,4v64a12,12,0,0,1-24,0V96a12,12,0,0,1,24,0Z"/>
</svg>
