<svg id="Flat" xmlns="http://www.w3.org/2000/svg" viewBox="0 0 256 256">
  <path d="M252,96v64a12,12,0,0,1-24,0V96a12,12,0,0,1,24,0ZM220,72V184a28.03146,28.03146,0,0,1-28,28H40a28.03146,28.03146,0,0,1-28-28V72A28.03146,28.03146,0,0,1,40,44H192A28.03146,28.03146,0,0,1,220,72Zm-24,0a4.00458,4.00458,0,0,0-4-4H40a4.00458,4.00458,0,0,0-4,4V184a4.00458,4.00458,0,0,0,4,4H192a4.00458,4.00458,0,0,0,4-4Zm-64,44H117.72461l9.417-23.543A12,12,0,0,0,104.8584,83.543l-16,40A11.99981,11.99981,0,0,0,100,140h14.27539l-9.417,23.543a12,12,0,1,0,22.2832,8.91406l16-40A11.99981,11.99981,0,0,0,132,116Z"/>
</svg>
