<svg xmlns="http://www.w3.org/2000/svg" viewBox="0 0 256 256"><path d="M248.5,39.5l-32-32a12,12,0,0,0-18.6,15L147,60.8l-37.4,7.4a12.2,12.2,0,0,0-6.1,3.3L18.8,156.2a28,28,0,0,0,0,39.6l41.4,41.4a28,28,0,0,0,39.6,0l84.7-84.7a12.2,12.2,0,0,0,3.3-6.1l7.4-37.4,38.3-50.9A11.5,11.5,0,0,0,240,60a12.2,12.2,0,0,0,8.5-3.5A12,12,0,0,0,248.5,39.5ZM108,195,61,148l35-35,47,47ZM77.2,220.2,35.8,178.8a3.9,3.9,0,0,1,0-5.6L44,165l47,47-8.2,8.2A3.9,3.9,0,0,1,77.2,220.2ZM174.4,96.8a12.3,12.3,0,0,0-2.2,4.8l-7.3,36.5L160,143,113,96l4.9-4.9,36.5-7.3a12.3,12.3,0,0,0,4.8-2.2l55.7-41.8,1.3,1.3Z"/></svg>