<svg id="Flat" xmlns="http://www.w3.org/2000/svg" viewBox="0 0 256 256">
  <path d="M171.9248,232.02051a12.00059,12.00059,0,0,1-12,12h-64a12,12,0,0,1,0-24h64A12.00059,12.00059,0,0,1,171.9248,232.02051Zm44.14747-7.1416a11.99951,11.99951,0,0,1-16.95118-.80664L188.165,212.02051H48.76074a19.99794,19.99794,0,0,1-17.26562-30.08789C37.19922,172.14551,44,153.458,44,120.02051v-16a83.53461,83.53461,0,0,1,9.93188-39.65625l-14.81079-16.292A11.99986,11.99986,0,0,1,56.87891,31.92773l160,176A12.00033,12.00033,0,0,1,216.07227,224.87891Zm-49.72559-36.8584L71.52148,83.71289A59.92929,59.92929,0,0,0,68,104.02051v16c0,19.55273-2.28027,46.44726-12.60059,68ZM98.419,51.80566a59.97505,59.97505,0,0,1,29.59375-7.78515c.14746,0,.29589.001.44433.002C161.28906,44.26562,188,71.58691,188,104.9248v15.09571c0,18.10449,1.85156,34.3457,5.50293,48.27344a11.99966,11.99966,0,0,0,23.21484-6.08594C213.58789,150.26562,212,136.07227,212,120.02051V104.9248c0-46.47363-37.39746-84.56054-83.36523-84.90234-.208-.001-.41407-.00195-.6211-.00195a84.02515,84.02515,0,0,0-41.44824,10.916A12.00028,12.00028,0,1,0,98.419,51.80566Z"/>
</svg>
