<svg id="Flat" xmlns="http://www.w3.org/2000/svg" viewBox="0 0 256 256">
  <path d="M224.5,181.93774c-5.70215-9.78808-12.5-28.47558-12.5-61.917v-15.0957c0-46.47461-37.39746-84.56153-83.36523-84.90235-.21485-.001-.42676-.002-.64161-.002a84.00026,84.00026,0,0,0-83.99316,84v16c0,33.43848-6.80078,52.125-12.50488,61.91113a19.99843,19.99843,0,0,0,17.26562,30.08887H207.23145a19.77948,19.77948,0,0,0,17.334-10.02734A20.07044,20.07044,0,0,0,224.5,181.93774Zm-169.10059,6.083C65.71875,166.469,68,139.57348,68,120.02075v-16a59.99945,59.99945,0,0,1,59.99805-60c.15234,0,.30664.001.459.002,32.832.24317,59.543,27.56348,59.543,60.90235v15.0957c0,19.55371,2.2793,46.44824,12.59375,68Zm116.52539,44a12.00059,12.00059,0,0,1-12,12h-64a12,12,0,0,1,0-24h64A12.00059,12.00059,0,0,1,171.9248,232.02075Z"/>
</svg>
