<svg id="Flat" xmlns="http://www.w3.org/2000/svg" viewBox="0 0 256 256">
  <path d="M91.99316,16.012a12.0006,12.0006,0,0,1,12-12h48a12,12,0,0,1,0,24h-48A12.0006,12.0006,0,0,1,91.99316,16.012ZM224.50684,202.0647a19.70607,19.70607,0,0,1-17.2627,9.94726H170.323a43.98807,43.98807,0,0,1-84.646,0H48.73633A20.15607,20.15607,0,0,1,31.28125,201.8772a19.46679,19.46679,0,0,1,.09473-19.75C37.13477,172.34595,44,153.63013,44,120.012a84.02135,84.02135,0,0,1,93.71777-83.45117c41.73633,4.709,73.68067,42.01465,74.30567,86.77734.43847,31.38477,6.99218,49.126,12.41308,58.48243A20.28534,20.28534,0,0,1,224.50684,202.0647ZM143.96216,212.012H112.03784a19.92441,19.92441,0,0,0,31.92432,0Zm56.63257-24c-9.84375-20.58008-12.3125-45.93848-12.56934-64.33789-.456-32.71-23.24023-59.90723-52.99707-63.26367A60.02062,60.02062,0,0,0,68,120.012c0,19.58106-2.28516,46.46094-12.59961,68Z"/>
</svg>
