<svg xmlns="http://www.w3.org/2000/svg" viewBox="0 0 256 256"><path d="M216.9,207.9l-160-176A12,12,0,0,0,39.1,48.1L54,64.5A84.3,84.3,0,0,0,44.2,104v8c0,33.4-6.8,52.1-12.5,61.9a20.1,20.1,0,0,0,0,20.1A19.7,19.7,0,0,0,49,204H84.2a44,44,0,0,0,87.6,0h9.1l18.2,20.1a12.1,12.1,0,0,0,17,.8A12.1,12.1,0,0,0,216.9,207.9ZM68.2,112v-8a59.4,59.4,0,0,1,3.5-20.1L159.1,180H55.6C65.9,158.5,68.2,131.6,68.2,112ZM128,220a20.1,20.1,0,0,1-19.6-16h39.2A20.1,20.1,0,0,1,128,220ZM88.9,42.4a12,12,0,0,1,6.4-15.7A82.6,82.6,0,0,1,128.6,20c45.9.3,83.2,38.4,83.2,84.9V112a181.6,181.6,0,0,0,3.5,37.2,12,12,0,0,1-9.2,14.2,10.7,10.7,0,0,1-2.5.3,12.2,12.2,0,0,1-11.8-9.5,208.6,208.6,0,0,1-4-42.2v-7.1c0-33.3-26.6-60.7-59.3-60.9H128a59.9,59.9,0,0,0-23.3,4.7A12,12,0,0,1,88.9,42.4Z"/></svg>