<svg id="Flat" xmlns="http://www.w3.org/2000/svg" viewBox="0 0 256 256">
  <path d="M216.87891,207.92773l-160-176A11.99986,11.99986,0,0,0,39.12109,48.07227L54.03833,64.4812A83.71841,83.71841,0,0,0,44.20312,104v8c0,33.44531-6.78417,52.13574-12.47558,61.92578a20.09336,20.09336,0,0,0-.04883,20.06543A19.76,19.76,0,0,0,48.9834,204H84.18994a43.99152,43.99152,0,0,0,87.62012,0h9.06348l18.24755,20.07227a11.99986,11.99986,0,0,0,17.75782-16.14454ZM68.20312,112v-8a60.118,60.118,0,0,1,3.44971-20.14282L159.05542,180H55.63379C65.92676,158.4502,68.20312,131.55273,68.20312,112ZM128,220a20.03307,20.03307,0,0,1-19.59692-16h39.19384A20.03307,20.03307,0,0,1,128,220ZM88.92383,42.39648a11.99923,11.99923,0,0,1,6.34082-15.74121,83.40263,83.40263,0,0,1,33.373-6.65332c45.85839.34082,83.167,38.42774,83.167,84.90235V112a178.52494,178.52494,0,0,0,3.50879,37.15234,12.00053,12.00053,0,1,1-23.46485,5.04493A202.3998,202.3998,0,0,1,187.80469,112v-7.0957c0-33.33887-26.62207-60.66016-59.34473-60.90235-.15332-.001-.30664-.002-.459-.002A59.22633,59.22633,0,0,0,104.665,48.7373,11.9984,11.9984,0,0,1,88.92383,42.39648Z"/>
</svg>
