<svg xmlns="http://www.w3.org/2000/svg" viewBox="0 0 256 256"><path d="M172,228a12,12,0,0,1-12,12H96a12,12,0,0,1,0-24h64A12,12,0,0,1,172,228Zm44.1-3.1a12.1,12.1,0,0,1-17-.8L177.2,200H49a20.1,20.1,0,0,1-17.3-30.1c5.7-9.8,12.5-28.5,12.5-61.9v-4A84.3,84.3,0,0,1,54,64.5L39.1,48.1A12,12,0,0,1,56.9,31.9l160,176A12.1,12.1,0,0,1,216.1,224.9ZM155.4,176,71.6,83.9A61.5,61.5,0,0,0,68.2,104v4c0,19.5-2.3,46.4-12.6,68ZM104.7,48.7A59.5,59.5,0,0,1,128,44h.5c32.7.2,59.3,27.5,59.3,60.9V108c0,18,1.8,34.2,5.5,48.1a12,12,0,0,0,11.6,9,10.3,10.3,0,0,0,3-.4,12,12,0,0,0,8.6-14.6c-3.1-12-4.7-26.1-4.7-42.1v-3.1c0-46.5-37.3-84.6-83.2-84.9H128a83.6,83.6,0,0,0-32.8,6.6,12,12,0,0,0,9.5,22.1Z"/></svg>