<svg id="Flat" xmlns="http://www.w3.org/2000/svg" viewBox="0 0 256 256">
  <path d="M91.99316,16.0127a12.00059,12.00059,0,0,1,12-12h48a12,12,0,0,1,0,24h-48A12.0006,12.0006,0,0,1,91.99316,16.0127ZM216.07227,224.87891a11.99951,11.99951,0,0,1-16.95118-.80664L188.15771,212.0127H170.323a43.98807,43.98807,0,0,1-84.646,0H48.73633A20.15493,20.15493,0,0,1,31.28125,201.877a19.46681,19.46681,0,0,1,.09473-19.75C37.13477,172.3457,44,153.62988,44,120.0127A83.60044,83.60044,0,0,1,59.866,70.8916L39.12109,48.07227A11.99986,11.99986,0,0,1,56.87891,31.92773l160,176A12.00033,12.00033,0,0,1,216.07227,224.87891ZM143.96216,212.0127H112.03784a19.92441,19.92441,0,0,0,31.92432,0Zm22.37744-24L76.51538,89.20605A59.744,59.744,0,0,0,68,120.0127c0,19.58007-2.28613,46.46093-12.60059,68ZM106.91016,63.82031a60.01942,60.01942,0,0,1,28.11816-3.40918c29.75684,3.35547,52.541,30.55274,52.99707,63.26172.23145,16.63184,2.07617,31.64649,5.48145,44.62793a12.00016,12.00016,0,1,0,23.21484-6.08984c-2.91309-11.10352-4.49414-24.18164-4.69824-38.873-.625-44.76269-32.56934-82.06836-74.30469-86.77637a83.839,83.839,0,0,0-39.24805,4.792,11.9998,11.9998,0,1,0,8.43946,22.46679Z"/>
</svg>
