<svg id="Flat" xmlns="http://www.w3.org/2000/svg" viewBox="0 0 256 256">
  <path d="M172,227.97949a12.00059,12.00059,0,0,1-12,12H96a12,12,0,0,1,0-24h64A12.0006,12.0006,0,0,1,172,227.97949Zm44.07227-3.10058a11.99951,11.99951,0,0,1-16.95118-.80664l-21.90258-24.09278H48.9834A19.76,19.76,0,0,1,31.67871,189.9707a20.09336,20.09336,0,0,1,.04883-20.06543c5.69141-9.79,12.47558-28.48047,12.47558-61.92578v-4a83.71208,83.71208,0,0,1,9.82837-39.50586L39.12109,48.07227A11.99986,11.99986,0,0,1,56.87891,31.92773l160,176A12.00033,12.00033,0,0,1,216.07227,224.87891Zm-60.67188-48.89942L71.647,83.85059a60.12508,60.12508,0,0,0-3.44385,20.1289v4c0,19.55274-2.27636,46.45117-12.56933,68ZM104.65527,48.72168A59.216,59.216,0,0,1,128.001,43.97949c.15234,0,.30566.001.459.002,32.72266.24218,59.34473,27.56347,59.34473,60.90136v3.09668c0,18.04395,1.835,34.23926,5.45312,48.1377a12.0004,12.0004,0,0,0,23.22657-6.04688c-3.10547-11.9248-4.67969-26.08691-4.67969-42.09082v-3.09668c0-46.47363-37.3086-84.56054-83.167-84.90136-.21387-.001-.42676-.002-.64063-.002A83.0717,83.0717,0,0,0,95.249,26.6416a12.00008,12.00008,0,0,0,9.40625,22.08008Z"/>
</svg>
