<svg id="Flat" xmlns="http://www.w3.org/2000/svg" viewBox="0 0 256 256">
  <path d="M211.80469,112A83.70675,83.70675,0,0,0,128.6377,28.002q-.3208-.00146-.63965-.002a83.89985,83.89985,0,0,0-83.79492,84c0,33.44531-6.78418,52.13574-12.47559,61.92578a20.09336,20.09336,0,0,0-.04883,20.06543A19.76,19.76,0,0,0,48.9834,204H84.18994a43.99152,43.99152,0,0,0,87.62012,0H207.0166a19.75865,19.75865,0,0,0,17.30371-10.00781,20.09025,20.09025,0,0,0-.04687-20.0625C218.585,164.13965,211.80469,145.44727,211.80469,112ZM128,220a20.03307,20.03307,0,0,1-19.59692-16h39.19384A20.03307,20.03307,0,0,1,128,220ZM55.63379,180c10.293-21.54883,12.56934-48.44727,12.56934-68a59.90077,59.90077,0,0,1,59.7998-60c.15137,0,.30566.001.457.002A59.70558,59.70558,0,0,1,187.80469,112c0,19.55273,2.27441,46.4502,12.5625,68ZM233.835,73.33789A11.9908,11.9908,0,0,1,217.76758,67.876,100.31831,100.31831,0,0,0,181.292,27.36523,11.99968,11.99968,0,1,1,194.10156,7.07031a124.30093,124.30093,0,0,1,45.19532,50.2002A11.99963,11.99963,0,0,1,233.835,73.33789ZM27.459,74.57617A12.00551,12.00551,0,0,1,16.70313,57.27051,124.30083,124.30083,0,0,1,61.89844,7.07031,11.99968,11.99968,0,1,1,74.708,27.36523,100.31831,100.31831,0,0,0,38.23242,67.876,12.00051,12.00051,0,0,1,27.459,74.57617Z"/>
</svg>
