<svg xmlns="http://www.w3.org/2000/svg" viewBox="0 0 256 256"><path d="M211.8,112a83.6,83.6,0,0,0-83.2-84H128a83.8,83.8,0,0,0-83.8,84c0,33.4-6.8,52.1-12.5,61.9a20.1,20.1,0,0,0,0,20.1A19.7,19.7,0,0,0,49,204H84.2a44,44,0,0,0,87.6,0H207a19.7,19.7,0,0,0,17.3-10,20.1,20.1,0,0,0,0-20.1C218.6,164.1,211.8,145.4,211.8,112ZM128,220a20.1,20.1,0,0,1-19.6-16h39.2A20.1,20.1,0,0,1,128,220ZM55.6,180c10.3-21.5,12.6-48.4,12.6-68A60.1,60.1,0,0,1,85.9,69.3,59.3,59.3,0,0,1,128,52h.5a59.8,59.8,0,0,1,59.3,60c0,19.6,2.3,46.5,12.6,68ZM233.8,73.3a11.2,11.2,0,0,1-5.3,1.3,12,12,0,0,1-10.7-6.7,100.4,100.4,0,0,0-36.5-40.5A12,12,0,1,1,194.1,7.1a123.7,123.7,0,0,1,45.2,50.2A11.9,11.9,0,0,1,233.8,73.3ZM27.5,74.6a11.2,11.2,0,0,1-5.3-1.3,11.9,11.9,0,0,1-5.5-16A123.7,123.7,0,0,1,61.9,7.1,12,12,0,1,1,74.7,27.4,100.4,100.4,0,0,0,38.2,67.9,12,12,0,0,1,27.5,74.6Z"/></svg>