<svg xmlns="http://www.w3.org/2000/svg" viewBox="0 0 256 256"><path d="M172,228a12,12,0,0,1-12,12H96a12,12,0,0,1,0-24h64A12,12,0,0,1,172,228Zm52.3-58.1a20.1,20.1,0,0,1,0,20.1A19.7,19.7,0,0,1,207,200H49a19.7,19.7,0,0,1-17.3-10,20.1,20.1,0,0,1,0-20.1c4.1-6.9,12.5-21.4,12.5-57.9A83.8,83.8,0,0,1,128,28h.6a83.6,83.6,0,0,1,83.2,84C211.8,148.5,220.2,163,224.3,169.9Zm-24,6.1c-6.6-13-12.5-31.5-12.5-64a59.8,59.8,0,0,0-59.3-60H128A59.3,59.3,0,0,0,85.9,69.3,60.1,60.1,0,0,0,68.2,112c0,32.5-5.9,51-12.5,64Zm39-118.7A123.7,123.7,0,0,0,194.1,7.1a12,12,0,1,0-12.8,20.3,100.4,100.4,0,0,1,36.5,40.5,12,12,0,0,0,10.7,6.7,11.2,11.2,0,0,0,5.3-1.3A11.9,11.9,0,0,0,239.3,57.3ZM38.2,67.9A100.4,100.4,0,0,1,74.7,27.4,12,12,0,1,0,61.9,7.1,123.7,123.7,0,0,0,16.7,57.3a11.9,11.9,0,0,0,5.5,16,11.2,11.2,0,0,0,5.3,1.3A12,12,0,0,0,38.2,67.9Z"/></svg>