<svg id="Flat" xmlns="http://www.w3.org/2000/svg" viewBox="0 0 256 256">
  <path d="M172,228.00024a12.00059,12.00059,0,0,1-12,12H96a12,12,0,1,1,0-24h64A12.0006,12.0006,0,0,1,172,228.00024Zm52.32031-38.00781a19.75865,19.75865,0,0,1-17.30371,10.00781H48.9834a19.76,19.76,0,0,1-17.30469-10.00879,20.09336,20.09336,0,0,1,.04883-20.06543c5.69141-9.79,12.47558-28.48046,12.47558-61.92578v-4a83.89987,83.89987,0,0,1,83.79493-84q.31933,0,.63965.002c45.85839.34082,83.167,38.42773,83.167,84.90136v3.09668c0,33.44727,6.78027,52.13965,12.46875,61.92969A20.09025,20.09025,0,0,1,224.32031,189.99243Zm-23.95312-13.99219c-10.28809-21.5498-12.5625-48.44726-12.5625-68v-3.09668c0-33.33789-26.62207-60.65918-59.34473-60.90136-.15137-.001-.30566-.002-.457-.002a59.90079,59.90079,0,0,0-59.79981,60v4c0,19.55274-2.27636,46.45117-12.56933,68Z"/>
</svg>
