<svg id="Flat" xmlns="http://www.w3.org/2000/svg" viewBox="0 0 256 256">
  <path d="M160,144a12.0006,12.0006,0,0,1-12,12H108a12.00022,12.00022,0,0,1-9.21875-19.68262L122.37988,108H108a12,12,0,0,1,0-24h40a12.00022,12.00022,0,0,1,9.21875,19.68262L133.62012,132H148A12.0006,12.0006,0,0,1,160,144Zm0,72H96a12,12,0,0,0,0,24h64a12,12,0,0,0,0-24Zm64.32031-26.00781A19.75865,19.75865,0,0,1,207.0166,200H48.9834a19.76,19.76,0,0,1-17.30469-10.00879,20.09336,20.09336,0,0,1,.04883-20.06543C37.419,160.13574,44.20313,141.44531,44.20313,108v-4a83.89985,83.89985,0,0,1,83.79492-84q.31933,0,.63965.002c45.85839.34082,83.167,38.42774,83.167,84.90235V108c0,33.44727,6.78027,52.13965,12.46875,61.92969A20.09025,20.09025,0,0,1,224.32031,189.99219ZM200.36719,176c-10.28809-21.5498-12.5625-48.44727-12.5625-68v-3.0957c0-33.33887-26.62207-60.66016-59.34473-60.90235-.15137-.001-.30566-.002-.457-.002a59.90077,59.90077,0,0,0-59.7998,60v4c0,19.55273-2.27637,46.45117-12.56934,68Z"/>
</svg>
