<svg id="Flat" xmlns="http://www.w3.org/2000/svg" viewBox="0 0 256 256">
  <path d="M203.99975,108a51.8399,51.8399,0,0,0-13.86425,1.8916L179.36645,90.31177l-.03808-.06909L171.49487,76h12.50488a12,12,0,0,0,0-24H151.2A12.00053,12.00053,0,0,0,140.6853,69.7832L148.50464,84H103.89526L89.7146,58.2168A12.00094,12.00094,0,0,0,79.2,52H51.99975a12,12,0,0,0,0,24h20.1045L82.68506,95.23779,71.17553,111.67993a52.11848,52.11848,0,1,0,19.65039,13.77954l4.74952-6.78467,25.90966,47.1084a12.00014,12.00014,0,1,0,21.0293-11.5664L117.09521,108h44.60913l7.41016,13.47266A51.97247,51.97247,0,1,0,203.99975,108Zm-124,52a28.03011,28.03011,0,1,1-23.32641-27.60254L42.1687,153.11865a12.00011,12.00011,0,1,0,19.66211,13.7627l14.499-20.71289A27.81861,27.81861,0,0,1,79.99975,160Zm124,28a27.97791,27.97791,0,0,1-22.69726-44.36694L193.4851,165.7832a12.00014,12.00014,0,1,0,21.0293-11.5664L202.325,132.05444c.55469-.033,1.11206-.05444,1.6748-.05444a28,28,0,0,1,0,56Z"/>
</svg>
