<svg xmlns="http://www.w3.org/2000/svg" viewBox="0 0 256 256"><path d="M241,150.7h0a61.4,61.4,0,0,0-2.5-5.9L196.9,50.2a11.5,11.5,0,0,0-2.5-3.7,36.1,36.1,0,0,0-50.9,0A12.3,12.3,0,0,0,140,55V80H116V55a12.3,12.3,0,0,0-3.5-8.5,36.1,36.1,0,0,0-50.9,0,11.5,11.5,0,0,0-2.5,3.7L17.5,144.7a61.4,61.4,0,0,0-2.5,5.9h0A52,52,0,1,0,116,168V104h24v64a52,52,0,1,0,101-17.3ZM80,62.3a11.8,11.8,0,0,1,12-1.2v63.1a52,52,0,0,0-35.9-7.6ZM64,196a28.1,28.1,0,0,1-28-28,28.4,28.4,0,0,1,1.6-9.3l1.7-3.8A28,28,0,1,1,64,196ZM164,61.1a11.8,11.8,0,0,1,12,1.2l23.9,54.3a52,52,0,0,0-35.9,7.6ZM192,196a28,28,0,1,1,24.7-41.1l1.7,3.8A28.4,28.4,0,0,1,220,168,28.1,28.1,0,0,1,192,196Z"/></svg>