<svg id="Flat" xmlns="http://www.w3.org/2000/svg" viewBox="0 0 256 256">
  <path d="M176,72a16,16,0,1,1-16-16A16.00016,16.00016,0,0,1,176,72Zm68,8a11.998,11.998,0,0,1-5.34375,9.98438L220,102.42188V120A108.12217,108.12217,0,0,1,112,228H12a12,12,0,0,1-9.52344-19.30127L92,91.92969V76A64.01009,64.01009,0,0,1,216.5752,55.294l22.08105,14.72167A11.99924,11.99924,0,0,1,244,80Zm-33.63281,0-10.69043-7.12793a12.001,12.001,0,0,1-4.958-6.9668A40.00762,40.00762,0,0,0,116,76V96a11.9995,11.9995,0,0,1-2.47656,7.30127L36.32129,204H112a84.0953,84.0953,0,0,0,84-84V96a11.99859,11.99859,0,0,1,5.34375-9.98438Zm-81.7334,46.47656a11.99957,11.99957,0,0,0-16.82422,2.22266l-30.666,40a11.99989,11.99989,0,1,0,19.04688,14.60156l30.666-40A11.99975,11.99975,0,0,0,128.63379,126.47656Z"/>
</svg>
