<svg xmlns="http://www.w3.org/2000/svg" viewBox="0 0 256 256"><path d="M176,72a16,16,0,1,1-16-16A16,16,0,0,1,176,72Zm68,8a12.1,12.1,0,0,1-5.3,10L220,102.4V120A108.1,108.1,0,0,1,112,228H12a12.1,12.1,0,0,1-10.8-6.7,12,12,0,0,1,1.3-12.6L92,91.9V76A64,64,0,0,1,216.6,55.3L238.7,70A12.1,12.1,0,0,1,244,80Zm-33.6,0-10.7-7.1a12.2,12.2,0,0,1-5-7A40,40,0,0,0,116,76V96a12.2,12.2,0,0,1-2.5,7.3L36.3,204H112a84.1,84.1,0,0,0,84-84V96a12.1,12.1,0,0,1,5.3-10Zm-81.8,46.5a11.9,11.9,0,0,0-16.8,2.2l-30.7,40a12,12,0,0,0,2.3,16.8,11.5,11.5,0,0,0,7.3,2.5,11.9,11.9,0,0,0,9.5-4.7l30.7-40A12,12,0,0,0,128.6,126.5Z"/></svg>