<svg id="Flat" xmlns="http://www.w3.org/2000/svg" viewBox="0 0 256 256">
  <path d="M191.2002,166.40271l-51.20069-38.40039L191.2002,89.60193a11.99952,11.99952,0,0,0,0-19.19922l-64-48A11.99958,11.99958,0,0,0,108,32.00232v72.00043l-44.7998-33.6A11.99981,11.99981,0,1,0,48.7998,89.60193l51.20069,38.40039L48.7998,166.40271a11.99981,11.99981,0,1,0,14.4004,19.19922l44.7998-33.6v72.00043a11.99976,11.99976,0,0,0,19.2002,9.59961l64-48a11.99952,11.99952,0,0,0,0-19.19922ZM132,56.00232l32,24-32,24Zm0,144v-48l32,24Zm80-71.99585a16,16,0,1,1-16-16A16.00008,16.00008,0,0,1,212,128.00647Zm-160,16a16,16,0,1,1,16-16A16.00008,16.00008,0,0,1,52,144.00647Z"/>
</svg>
