<svg id="Flat" xmlns="http://www.w3.org/2000/svg" viewBox="0 0 256 256">
  <path d="M191.2002,166.40234l-51.19983-38.3999,11.60559-8.7041a12.0002,12.0002,0,0,0-14.40039-19.2002L132,104.00244v-48l5.20508,3.9043a12.0002,12.0002,0,0,0,14.40039-19.2002L127.2002,22.40234A12.00029,12.00029,0,0,0,108,32.00244V104.0022L63.2002,70.40234a12.0002,12.0002,0,0,0-14.4004,19.2002l51.2,38.3999-51.2,38.3999a12.0002,12.0002,0,1,0,14.4004,19.2002L108,152.00269v71.99975a12.00025,12.00025,0,0,0,19.2002,9.6001l64-48a12.0005,12.0005,0,0,0,0-19.2002ZM132,200.00244v-48l32,24ZM240.48535,95.51465a12.0001,12.0001,0,0,1-16.9707,16.9707L208,96.9707l-15.51465,15.51465a12.0001,12.0001,0,0,1-16.9707-16.9707L191.0293,80,175.51465,64.48535a12.0001,12.0001,0,0,1,16.9707-16.9707L208,63.0293l15.51465-15.51465a12.0001,12.0001,0,0,1,16.9707,16.9707L224.9707,80Z"/>
</svg>
