<svg id="Flat" xmlns="http://www.w3.org/2000/svg" viewBox="0 0 256 256">
  <path d="M216.87939,207.92773,185.469,173.37622l-.01367-.01489L56.87939,31.92773A12.00021,12.00021,0,0,0,39.12061,48.07227l67.88378,74.67224L48.79394,166.40234a12.0002,12.0002,0,1,0,14.4004,19.2002l44.7998-33.59985v71.99975a12.00025,12.00025,0,0,0,19.2002,9.6001l47.91833-35.939,24.00794,26.4087a12.00021,12.00021,0,1,0,17.75878-16.14454Zm-84.88525-7.92529V150.23315l26.9021,29.59229Zm-24-140.27295v-27.727a12.00029,12.00029,0,0,1,19.2002-9.6001l64,48a12.0005,12.0005,0,0,1,0,19.2002l-27.09571,20.32178a12.0002,12.0002,0,0,1-14.40039-19.2002l14.2959-10.72168-32-24v3.727a12,12,0,1,1-24,0Z"/>
</svg>
