<svg xmlns="http://www.w3.org/2000/svg" viewBox="0 0 256 256"><path d="M191.2,166.4,140,128l11.6-8.7a12,12,0,1,0-14.4-19.2L132,104V56l5.2,3.9a12,12,0,1,0,14.4-19.2L127.2,22.4a11.8,11.8,0,0,0-12.5-1.1A12,12,0,0,0,108,32v72L63.2,70.4A12,12,0,0,0,48.8,89.6L100,128,48.8,166.4a12,12,0,0,0-2.4,16.8A12.2,12.2,0,0,0,56,188a12,12,0,0,0,7.2-2.4L108,152v72a12,12,0,0,0,6.7,10.7A10.9,10.9,0,0,0,120,236a11.8,11.8,0,0,0,7.2-2.4l64-48a12,12,0,0,0,0-19.2ZM132,200V152l32,24ZM240.5,95.5A12,12,0,0,1,232,116a12.2,12.2,0,0,1-8.5-3.5L208,97l-15.5,15.5A12,12,0,0,1,184,116a12.2,12.2,0,0,1-8.5-3.5,12,12,0,0,1,0-17L191,80,175.5,64.5a12,12,0,0,1,17-17L208,63l15.5-15.5a12,12,0,0,1,17,17L225,80Z"/></svg>