<svg xmlns="http://www.w3.org/2000/svg" viewBox="0 0 256 256"><path d="M216.9,207.9l-31.4-34.5h0L56.9,31.9A12,12,0,0,0,39.1,48.1L107,122.7,48.8,166.4a12,12,0,0,0-2.4,16.8A12.2,12.2,0,0,0,56,188a12,12,0,0,0,7.2-2.4L108,152v72a12,12,0,0,0,6.7,10.7A10.9,10.9,0,0,0,120,236a11.8,11.8,0,0,0,7.2-2.4l47.9-35.9,24,26.4A12.1,12.1,0,0,0,208,228a12,12,0,0,0,8.9-20.1ZM132,200V150.2l26.9,29.6ZM108,59.7V32a12,12,0,0,1,6.7-10.7,11.8,11.8,0,0,1,12.5,1.1l64,48a12,12,0,0,1,0,19.2l-27.1,20.3a12,12,0,1,1-14.4-19.2L164,80,132,56v3.7a12,12,0,0,1-24,0Z"/></svg>