<svg xmlns="http://www.w3.org/2000/svg" viewBox="0 0 256 256"><path d="M222.3,106.8,212,103.4V56a20.1,20.1,0,0,0-20-20H140V24a12,12,0,0,0-24,0V36H64A20.1,20.1,0,0,0,44,56v47.4l-10.3,3.4a19.9,19.9,0,0,0-13.7,19V160a12.6,12.6,0,0,0,.5,3.3c16.3,57.2,88.6,76.7,103,80a20.5,20.5,0,0,0,9,0c14.4-3.3,86.7-22.8,103-80a12.6,12.6,0,0,0,.5-3.3V125.8A19.9,19.9,0,0,0,222.3,106.8ZM68,60H188V95.4L134.3,77.5a15.6,15.6,0,0,0-5.7-1h-1.2a15.6,15.6,0,0,0-5.7,1L68,95.4Zm144,98.2c-13.5,42.6-73.5,58.9-84,61.5-10.5-2.6-70.5-18.9-84-61.5V128.6l15.6-5.1h0L116,104.6V168a12,12,0,0,0,24,0V104.6l56.4,18.8h0l15.6,5.1Z"/></svg>