<svg id="Flat" xmlns="http://www.w3.org/2000/svg" viewBox="0 0 256 256">
  <path d="M192,20H96A20.02229,20.02229,0,0,0,76,40V60H64A20.02229,20.02229,0,0,0,44,80V224a11.99991,11.99991,0,0,0,19.31738,9.51074l44.67627-34.37109,44.69043,34.37207A11.99959,11.99959,0,0,0,172,224V177.60327l20.68408,15.90845A11.99959,11.99959,0,0,0,212,184V40A20.02229,20.02229,0,0,0,192,20ZM148,199.63184l-32.69141-25.14356a11.99865,11.99865,0,0,0-14.63281.001L68,199.62793V84h80Zm40-40-16-12.30567V80a20.02229,20.02229,0,0,0-20-20H100V44h88Z"/>
</svg>
