<svg id="Flat" xmlns="http://www.w3.org/2000/svg" viewBox="0 0 256 256">
  <path d="M212,176.0816V40a20.0226,20.0226,0,0,0-20-20H64A20.0226,20.0226,0,0,0,44,40V176.08087c.00012.02448-.00024.04889,0,.07337V224a11.99942,11.99942,0,0,0,17.82812,10.48926l66.165-36.76172,66.17969,36.76269A11.99953,11.99953,0,0,0,212,224V176.15228C212.00024,176.12866,211.99976,176.10522,212,176.0816ZM188,44V155.60681l-54.18018-30.097a11.99869,11.99869,0,0,0-11.65527.001L68,155.60522V44ZM133.81982,173.50977a11.9987,11.9987,0,0,0-11.65527.001L68,203.60449V183.06012l59.99316-33.33258L188,183.06122v20.54523Z"/>
</svg>
