<svg id="Flat" xmlns="http://www.w3.org/2000/svg" viewBox="0 0 256 256">
  <path d="M207.99951,20h-136a36.04062,36.04062,0,0,0-36,36V232a12.0006,12.0006,0,0,0,12,12h144a12,12,0,0,0,0-24H60.69971a12.00911,12.00911,0,0,1,11.2998-8h136a12.0006,12.0006,0,0,0,12-12V32A12.0006,12.0006,0,0,0,207.99951,20ZM124.00244,44h40v60.00391l-12.80859-9.6045a12.00294,12.00294,0,0,0-14.40039.001l-12.791,9.5957Zm71.99707,144h-124a35.828,35.828,0,0,0-12,2.05664V56a12.01312,12.01312,0,0,1,12-12h28.00293v84a12.00049,12.00049,0,0,0,19.20117,9.59961L143.99658,119l24.80664,18.60059A12.00029,12.00029,0,0,0,188.00244,128V44h7.99707Z"/>
</svg>
