<svg xmlns="http://www.w3.org/2000/svg" viewBox="0 0 256 256"><path d="M237.5,194.5l-8.3-30.9h0L196.1,40a20.1,20.1,0,0,0-24.5-14.2l-29.6,8A19.6,19.6,0,0,0,128,28H96a19.8,19.8,0,0,0-8,1.7A19.8,19.8,0,0,0,80,28H48A20.1,20.1,0,0,0,28,48V208a20.1,20.1,0,0,0,20,20H80a19.8,19.8,0,0,0,8-1.7,19.8,19.8,0,0,0,8,1.7h32a20.1,20.1,0,0,0,20-20V138.8l19.9,74.4A20.1,20.1,0,0,0,187.3,228a17.9,17.9,0,0,0,5.1-.7l30.9-8.3h0A20,20,0,0,0,237.5,194.5ZM161.1,94.9l23.2-6.2,18.6,69.6-23.2,6.2Zm12.8-44.8,4.2,15.4-23.2,6.2-4.2-15.4ZM124,164H100V52h24ZM76,52V68H52V52ZM52,92H76V204H52Zm48,112V188h24v16Zm90.1-.9-4.2-15.5,23.2-6.2,4.2,15.5Z"/></svg>