<svg id="Flat" xmlns="http://www.w3.org/2000/svg" viewBox="0 0 256 256">
  <path d="M237.47852,194.54l-8.28223-30.91016h0L196.06787,39.99023a20.02074,20.02074,0,0,0-24.49463-14.14062l-29.5459,7.91663A19.92737,19.92737,0,0,0,128,28H96a19.86774,19.86774,0,0,0-8,1.68152A19.86774,19.86774,0,0,0,80,28H48A20.02229,20.02229,0,0,0,28,48V208a20.02229,20.02229,0,0,0,20,20H80a19.86774,19.86774,0,0,0,8-1.68152A19.86774,19.86774,0,0,0,96,228h32a20.02229,20.02229,0,0,0,20-20V138.78638l19.93213,74.38842a19.99048,19.99048,0,0,0,24.49463,14.14161l30.91015-8.28223h0A20.02181,20.02181,0,0,0,237.47852,194.54ZM161.09131,94.91479l23.18262-6.21142,18.63476,69.54712-23.18213,6.21191ZM173.9209,50.06641l4.1416,15.45532-23.18262,6.21142-4.14111-15.45483ZM124,164H100V52h24ZM76,52V68H52V52ZM52,92H76V204H52Zm48,112V188h24v16Zm90.0791-.90039L185.938,187.64417l23.18213-6.21192,4.14111,15.45545Z"/>
</svg>
