<svg xmlns="http://www.w3.org/2000/svg" viewBox="0 0 256 256"><path d="M192,20H96A20.1,20.1,0,0,0,76,40V60H64A20.1,20.1,0,0,0,44,80V224a12.1,12.1,0,0,0,6.7,10.8A12.4,12.4,0,0,0,56,236a11.5,11.5,0,0,0,7.3-2.5L108,199.1l44.7,34.4a12,12,0,0,0,12.6,1.3A12.1,12.1,0,0,0,172,224V177.6l20.7,15.9A11.5,11.5,0,0,0,200,196a12.4,12.4,0,0,0,5.3-1.2A12.1,12.1,0,0,0,212,184V40A20.1,20.1,0,0,0,192,20ZM148,199.6l-32.7-25.1a11.9,11.9,0,0,0-14.6,0L68,199.6V84h80Zm40-40-16-12.3V80a20.1,20.1,0,0,0-20-20H100V44h88Z"/></svg>