<svg id="Flat" xmlns="http://www.w3.org/2000/svg" viewBox="0 0 256 256">
  <path d="M82.33008,222.19824A12.0415,12.0415,0,0,1,65.82617,226.29C63.95508,225.167,20,197.98926,20,128S63.95508,30.833,65.82617,29.71a11.99985,11.99985,0,0,1,12.418,20.53711C76.71484,51.20117,44,72.30273,44,128c0,55.81738,32.855,76.88867,34.25391,77.75879A11.96062,11.96062,0,0,1,82.33008,222.19824ZM190.17383,29.71a11.9998,11.9998,0,1,0-12.42774,20.53125C179.145,51.11133,212,72.18262,212,128s-32.855,76.88867-34.17383,77.71A12,12,0,1,0,190.17383,226.29C192.04492,225.167,236,197.98926,236,128S192.04492,30.833,190.17383,29.71Z"/>
</svg>
