<svg id="Flat" xmlns="http://www.w3.org/2000/svg" viewBox="0 0 256 256">
  <path d="M252,132a60.13664,60.13664,0,0,0-32-53.0791V72a51.977,51.977,0,0,0-92-33.18579,51.977,51.977,0,0,0-92,33.1853V78.9209a59.99156,59.99156,0,0,0,.02686,106.136A51.96559,51.96559,0,0,0,128,217.18579a51.96559,51.96559,0,0,0,91.97314-32.12891A60.0477,60.0477,0,0,0,252,132ZM88,212a28.04537,28.04537,0,0,1-26.8501-20.07227C62.09521,191.97217,63.04443,192,64,192h8a12,12,0,0,0,0-24H64A36.00819,36.00819,0,0,1,51.99854,98.04541,12,12,0,0,0,59.999,86.73193L60,72a28,28,0,0,1,56,0v68.17944a52.06376,52.06376,0,0,0-7.19531-3.84692,11.99977,11.99977,0,1,0-9.6084,21.99219A28.0068,28.0068,0,0,1,88,212Zm104-44h-8a12,12,0,0,0,0,24h8c.95557,0,1.90479-.02783,2.8501-.07227a27.99963,27.99963,0,1,1-38.04639-33.603,11.99977,11.99977,0,1,0-9.6084-21.99219A52.06376,52.06376,0,0,0,140,140.17944V72a28,28,0,1,1,56,.00049l.001,14.73144a12,12,0,0,0,8.00048,11.31348A36.00819,36.00819,0,0,1,192,168ZM100,96a40.04521,40.04521,0,0,1-40,40,12,12,0,0,1,0-24A16.01833,16.01833,0,0,0,76,96V88a12,12,0,0,1,24,0Zm108,28a12,12,0,0,1-12,12,40.04521,40.04521,0,0,1-40-40V88a12,12,0,0,1,24,0v8a16.01833,16.01833,0,0,0,16,16A12,12,0,0,1,208,124Z"/>
</svg>
