<svg xmlns="http://www.w3.org/2000/svg" viewBox="0 0 256 256"><path d="M252,132a60.3,60.3,0,0,0-32-53.1V72a52,52,0,0,0-92-33.2A52,52,0,0,0,36,72v6.9a60.1,60.1,0,0,0,0,106.2,52,52,0,0,0,92,32.1,52,52,0,0,0,92-32.1A60.2,60.2,0,0,0,252,132ZM88,212a28.2,28.2,0,0,1-26.9-20.1H72a12,12,0,0,0,0-24H64A36,36,0,0,1,52,98a11.9,11.9,0,0,0,8-11.3V72a28,28,0,0,1,56,0v68.2a50.1,50.1,0,0,0-7.2-3.9,12,12,0,0,0-9.6,22A28,28,0,0,1,88,212Zm104-44h-8a12,12,0,0,0,0,24h10.9a28,28,0,1,1-38.1-33.6,12,12,0,1,0-9.6-22,50.1,50.1,0,0,0-7.2,3.9V72a28,28,0,0,1,56,0V86.7A11.9,11.9,0,0,0,204,98a36,36,0,0,1-12,70ZM100,96a40,40,0,0,1-40,40,12,12,0,0,1,0-24A16,16,0,0,0,76,96V88a12,12,0,0,1,24,0Zm108,28a12,12,0,0,1-12,12,40,40,0,0,1-40-40V88a12,12,0,0,1,24,0v8a16,16,0,0,0,16,16A12,12,0,0,1,208,124Z"/></svg>