<svg id="Flat" xmlns="http://www.w3.org/2000/svg" viewBox="0 0 256 256">
  <path d="M228,88a99.62646,99.62646,0,0,0-16.18164-54.55713,11.99991,11.99991,0,0,0-10.05176-5.4458H54.2334a11.99945,11.99945,0,0,0-10.05176,5.44531A100.01585,100.01585,0,0,0,116,187.27734V212H88a12,12,0,0,0,0,24h80a12,12,0,0,0,0-24H140V187.27734A100.14332,100.14332,0,0,0,228,88ZM61.0498,51.99707H194.9502A75.51578,75.51578,0,0,1,203.05273,76H52.94727A75.51169,75.51169,0,0,1,61.0498,51.99707ZM52.95654,100H203.04346a75.99626,75.99626,0,0,1-150.08692,0Z"/>
</svg>
