<svg id="Flat" xmlns="http://www.w3.org/2000/svg" viewBox="0 0 256 256">
  <path d="M216.00781,56H180V48a28.03146,28.03146,0,0,0-28-28H104A28.03146,28.03146,0,0,0,76,48v8H40.00781a20.02229,20.02229,0,0,0-20,20V204a20.02229,20.02229,0,0,0,20,20h176a20.02229,20.02229,0,0,0,20-20V76A20.02229,20.02229,0,0,0,216.00781,56ZM100,48a4.00427,4.00427,0,0,1,4-4h48a4.00427,4.00427,0,0,1,4,4v8H100ZM212.00781,80v35.22021A180.04717,180.04717,0,0,1,128,136a180.05815,180.05815,0,0,1-83.99219-20.771V80Zm-168,120V141.94336A204.301,204.301,0,0,0,128,160a204.30167,204.30167,0,0,0,84.00781-18.063V200ZM104,112a12.00028,12.00028,0,0,1,12-12h24a12,12,0,0,1,0,24H116A12.00028,12.00028,0,0,1,104,112Z"/>
</svg>
