<svg xmlns="http://www.w3.org/2000/svg" viewBox="0 0 256 256"><path d="M216,56H180V48a28.1,28.1,0,0,0-28-28H104A28.1,28.1,0,0,0,76,48v8H40A20.1,20.1,0,0,0,20,76V204a20.1,20.1,0,0,0,20,20H216a20.1,20.1,0,0,0,20-20V76A20.1,20.1,0,0,0,216,56ZM100,48a4,4,0,0,1,4-4h48a4,4,0,0,1,4,4v8H100ZM212,80v35.2A180.1,180.1,0,0,1,128,136a180.4,180.4,0,0,1-84-20.8V80ZM44,200V141.9A203.7,203.7,0,0,0,128,160a203.7,203.7,0,0,0,84-18.1V200Zm60-88a12,12,0,0,1,12-12h24a12,12,0,0,1,0,24H116A12,12,0,0,1,104,112Z"/></svg>