<svg id="Flat" xmlns="http://www.w3.org/2000/svg" viewBox="0 0 256 256">
  <path d="M128,84a44,44,0,1,0,44,44A44.04978,44.04978,0,0,0,128,84Zm0,64a20,20,0,1,1,20-20A20.02229,20.02229,0,0,1,128,148ZM85.57324,170.42676A11.99992,11.99992,0,0,1,68.60254,187.397a83.9413,83.9413,0,0,1,0-118.79394,11.99992,11.99992,0,1,1,16.9707,16.97021,59.94065,59.94065,0,0,0,0,84.85352Zm119.82031-9.72656A83.698,83.698,0,0,1,187.39746,187.397a11.99992,11.99992,0,1,1-16.9707-16.97021,59.94065,59.94065,0,0,0,0-84.85352A11.99992,11.99992,0,1,1,187.39746,68.603a84.07684,84.07684,0,0,1,17.99609,92.09717ZM57.28906,198.71094a11.99992,11.99992,0,0,1-16.9707,16.97021,123.90643,123.90643,0,0,1,0-175.3623,11.99992,11.99992,0,0,1,16.9707,16.97021,99.90643,99.90643,0,0,0,0,141.42188ZM252,128a123.65477,123.65477,0,0,1-36.31836,87.68115,11.99992,11.99992,0,1,1-16.9707-16.97021,99.90643,99.90643,0,0,0,0-141.42188,11.99992,11.99992,0,1,1,16.9707-16.97021A123.65937,123.65937,0,0,1,252,128Z"/>
</svg>
