<svg id="Flat" xmlns="http://www.w3.org/2000/svg" viewBox="0 0 256 256">
  <path d="M140,84a16,16,0,1,1,16,16A16.00016,16.00016,0,0,1,140,84Zm-40,16A16,16,0,1,0,84,84,16.00017,16.00017,0,0,0,100,100Zm119.92969,8v40a92,92,0,0,1-184,0V108A91.61683,91.61683,0,0,1,58.93848,47.20947L47.74707,36.77783A12.00023,12.00023,0,0,1,64.1123,19.22217L77.11719,31.34473a91.80136,91.80136,0,0,1,101.625.00048l13.00488-12.123A12.00023,12.00023,0,1,1,208.1123,36.77783L196.9209,47.20947A91.61688,91.61688,0,0,1,219.92969,108Zm-92-68a68.07728,68.07728,0,0,0-68,68v8h136v-8A68.07729,68.07729,0,0,0,127.92969,40Zm68,108v-8h-136v8a68,68,0,0,0,136,0Z"/>
</svg>
