<svg id="Flat" xmlns="http://www.w3.org/2000/svg" viewBox="0 0 256 256">
  <path d="M224,156a12,12,0,0,0,0-24H212V116h12a12,12,0,0,0,0-24H211.12915a83.63887,83.63887,0,0,0-17.99634-40.9707l15.06836-14.335a12.00038,12.00038,0,0,0-16.543-17.38868L175.44507,34.73047a83.76831,83.76831,0,0,0-94.97046.05713L64.2002,19.30566a11.9997,11.9997,0,1,0-16.541,17.38868L62.80762,51.105A83.63554,83.63554,0,0,0,44.87085,92H32a12,12,0,0,0,0,24H44v16H32a12,12,0,0,0,0,24H44.10156a83.62054,83.62054,0,0,0,2.32373,16H32a12,12,0,0,0,0,24H56.48364a83.93237,83.93237,0,0,0,143.03272,0H224a12,12,0,0,0,0-24H209.57471a83.62054,83.62054,0,0,0,2.32373-16ZM128,44a60.10154,60.10154,0,0,1,58.79248,48H69.20752A60.10154,60.10154,0,0,1,128,44Zm12,166.79248V144a12,12,0,0,0-24,0v66.79248A60.10134,60.10134,0,0,1,68,152V116H188v36A60.10134,60.10134,0,0,1,140,210.79248Z"/>
</svg>
