<svg xmlns="http://www.w3.org/2000/svg" viewBox="0 0 256 256"><path d="M224,156a12,12,0,0,0,0-24H212V116h12a12,12,0,0,0,0-24H211.1a83.8,83.8,0,0,0-18-41l15.1-14.3a12,12,0,0,0,.4-17,11.9,11.9,0,0,0-16.9-.4L175.4,34.7a83.7,83.7,0,0,0-94.9.1L64.2,19.3A12,12,0,1,0,47.7,36.7L62.8,51.1A82.9,82.9,0,0,0,44.9,92H32a12,12,0,0,0,0,24H44v16H32a12,12,0,0,0,0,24H44.1a93.5,93.5,0,0,0,2.3,16H32a12,12,0,0,0,0,24H56.5a83.9,83.9,0,0,0,143,0H224a12,12,0,0,0,0-24H209.6a93.5,93.5,0,0,0,2.3-16ZM128,44a60.1,60.1,0,0,1,58.8,48H69.2A60.1,60.1,0,0,1,128,44Zm12,166.8V144a12,12,0,0,0-24,0v66.8A60.1,60.1,0,0,1,68,152V116H188v36A60.1,60.1,0,0,1,140,210.8Z"/></svg>