<svg xmlns="http://www.w3.org/2000/svg" viewBox="0 0 256 256"><path d="M140,88a16,16,0,1,1,16,16A16,16,0,0,1,140,88ZM100,72a16,16,0,1,0,16,16A16,16,0,0,0,100,72Zm156,56a12,12,0,0,1-12,12H220v4a92.3,92.3,0,0,1-2.6,21.8l20.5,11.8a12,12,0,0,1-12,20.8l-17.3-10a92,92,0,0,1-161.2,0l-17.3,10a12,12,0,1,1-12-20.8l20.5-11.8A92.3,92.3,0,0,1,36,144v-4H12a12,12,0,0,1,0-24H36v-4a92.3,92.3,0,0,1,2.6-21.8L18.1,78.4a12,12,0,0,1,12-20.8l17.3,10a92,92,0,0,1,161.2,0l17.3-10a12,12,0,0,1,12,20.8L217.4,90.2A92.3,92.3,0,0,1,220,112v4h24A12,12,0,0,1,256,128ZM60,116H196v-4a68,68,0,0,0-136,0Zm56,94.9V140H60v4A68.1,68.1,0,0,0,116,210.9ZM196,140H140v70.9A68.1,68.1,0,0,0,196,144Z"/></svg>