<svg id="Flat" xmlns="http://www.w3.org/2000/svg" viewBox="0 0 256 256">
  <path d="M140,88a16,16,0,1,1,16,16A16.00016,16.00016,0,0,1,140,88ZM100,72a16,16,0,1,0,16,16A16.00016,16.00016,0,0,0,100,72Zm156,56a12.00028,12.00028,0,0,1-12,12H220v4a91.89989,91.89989,0,0,1-2.60547,21.75586l20.52832,11.85156a12.00024,12.00024,0,1,1-12,20.78516l-17.35449-10.01953a91.9604,91.9604,0,0,1-161.13672,0L30.07715,198.39258a12.00024,12.00024,0,1,1-12-20.78516l20.52832-11.85156A91.89989,91.89989,0,0,1,36,144v-4H12a12,12,0,0,1,0-24H36v-4a91.903,91.903,0,0,1,2.60547-21.75586L18.07715,78.39258a12.00024,12.00024,0,0,1,12-20.78516l17.35449,10.02a91.95995,91.95995,0,0,1,161.13672,0l17.35449-10.02a12.00024,12.00024,0,0,1,12,20.78516L217.39453,90.24414A91.903,91.903,0,0,1,220,112v4h24A12.00028,12.00028,0,0,1,256,128ZM60,116H196v-4a68,68,0,0,0-136,0Zm56,94.918V140H60v4A68.09684,68.09684,0,0,0,116,210.918ZM196,140H140v70.918A68.09684,68.09684,0,0,0,196,144Z"/>
</svg>
