<svg xmlns="http://www.w3.org/2000/svg" viewBox="0 0 256 256"><path d="M240,204h-4V104a20.1,20.1,0,0,0-20-20H156V40a20.1,20.1,0,0,0-20-20H40A20.1,20.1,0,0,0,20,40V204H16a12,12,0,0,0,0,24H240a12,12,0,0,0,0-24Zm-28-96v96H156V108ZM44,44h88V204H44ZM56,72A12,12,0,0,1,68,60H96a12,12,0,0,1,0,24H68A12,12,0,0,1,56,72Zm64,64a12,12,0,0,1-12,12H80a12,12,0,0,1,0-24h28A12,12,0,0,1,120,136Zm-12,40a12,12,0,0,1-12,12H68a12,12,0,0,1,0-24H96A12,12,0,0,1,108,176Zm92,0a12,12,0,0,1-12,12h-8a12,12,0,0,1,0-24h8A12,12,0,0,1,200,176Zm-32-40a12,12,0,0,1,12-12h8a12,12,0,0,1,0,24h-8A12,12,0,0,1,168,136Z"/></svg>