<svg id="Flat" xmlns="http://www.w3.org/2000/svg" viewBox="0 0 256 256">
  <path d="M235.99414,103.98316v120a12,12,0,0,1-24,0v-116h-56v116a12,12,0,0,1-24,0v-180h-88v180a12,12,0,0,1-24,0v-184a20.0226,20.0226,0,0,1,20-20h96a20.0226,20.0226,0,0,1,20,20v44h60A20.0226,20.0226,0,0,1,235.99414,103.98316Zm-168-20h28a12,12,0,1,0,0-24h-28a12,12,0,0,0,0,24Zm40,56h-28a12,12,0,0,0,0,24h28a12,12,0,1,0,0-24Zm-12,40h-28a12,12,0,0,0,0,24h28a12,12,0,1,0,0-24Zm92-16h-8a12,12,0,0,0,0,24h8a12,12,0,1,0,0-24Zm0-40h-8a12,12,0,0,0,0,24h8a12,12,0,1,0,0-24Z"/>
</svg>
