<svg id="Flat" xmlns="http://www.w3.org/2000/svg" viewBox="0 0 256 256">
  <path d="M235.99414,103.98316v120a12,12,0,0,1-24,0v-116h-56v116a12,12,0,0,1-24,0v-180h-88v180a12,12,0,0,1-24,0v-184a20.0226,20.0226,0,0,1,20-20h96a20.0226,20.0226,0,0,1,20,20v44h60A20.0226,20.0226,0,0,1,235.99414,103.98316Zm-172-20h32a12,12,0,1,0,0-24h-32a12,12,0,0,0,0,24Zm48,56h-32a12,12,0,0,0,0,24h32a12,12,0,1,0,0-24Zm-16,40h-32a12,12,0,0,0,0,24h32a12,12,0,1,0,0-24Zm96-16h-16a12,12,0,0,0,0,24h16a12,12,0,1,0,0-24Zm0-40h-16a12,12,0,0,0,0,24h16a12,12,0,1,0,0-24Z"/>
</svg>
