<svg id="Flat" xmlns="http://www.w3.org/2000/svg" viewBox="0 0 256 256">
  <path d="M190,28H66A36.04061,36.04061,0,0,0,30,64V216a20.02229,20.02229,0,0,0,20,20H74a20.02229,20.02229,0,0,0,20-20V204h68v12a20.02229,20.02229,0,0,0,20,20h24a20.02229,20.02229,0,0,0,20-20V64A36.04061,36.04061,0,0,0,190,28ZM54,180V132H202v48ZM202,84v24H54V84ZM66,52H190a12.00945,12.00945,0,0,1,11.3,8H54.7A12.00945,12.00945,0,0,1,66,52Zm4,160H54v-8H70Zm116,0v-8h16v8ZM98,156a16,16,0,1,1-16-16A16.00016,16.00016,0,0,1,98,156Zm92,0a16,16,0,1,1-16-16A16.00016,16.00016,0,0,1,190,156Z"/>
</svg>
