<svg id="Flat" xmlns="http://www.w3.org/2000/svg" viewBox="0 0 256 256">
  <path d="M242,112a36.04061,36.04061,0,0,0-36-36H160.34277a37.90549,37.90549,0,0,0,3.958-11.44141c2.27637-13.124-1.9707-27.61963-12.624-43.084A121.00645,121.00645,0,0,0,136.165,3.20654a11.99887,11.99887,0,0,0-16.33008,0,121.00645,121.00645,0,0,0-15.51172,18.26807c-10.65332,15.46435-14.90039,29.96-12.624,43.084A37.90549,37.90549,0,0,0,95.65723,76H50a36.04061,36.04061,0,0,0-36,36v13.32812A47.24152,47.24152,0,0,0,28,158.728V208a20.02229,20.02229,0,0,0,20,20H208a20.02229,20.02229,0,0,0,20-20V158.728a47.24152,47.24152,0,0,0,14-33.39991ZM128.01953,29.80371C134.8877,38.4209,142.34961,50.68408,140.6543,60.457c-.94336,5.4375-5.19336,10.21631-12.6543,14.24414-7.4502-4.022-11.69824-8.791-12.64941-14.21728C113.64746,50.772,121.14258,38.45752,128.01953,29.80371ZM38,112a12.01343,12.01343,0,0,1,12-12H206a12.01343,12.01343,0,0,1,12,12v13.32812a23.10242,23.10242,0,0,1-6.915,16.37891,21.38734,21.38734,0,0,1-15.51855,6.28906A22.10631,22.10631,0,0,1,174,126a12.132,12.132,0,0,0-.062-1.22705,12.001,12.001,0,0,0-23.876,0A12.132,12.132,0,0,0,150,126a22,22,0,0,1-44,0,12.132,12.132,0,0,0-.062-1.22705,12.001,12.001,0,0,0-23.876,0A12.132,12.132,0,0,0,82,126a22.10631,22.10631,0,0,1-21.56641,21.99609A21.42358,21.42358,0,0,1,44.915,141.707,23.10242,23.10242,0,0,1,38,125.32812Zm14,92V171.28369a45.17571,45.17571,0,0,0,8.89258.70752A45.89477,45.89477,0,0,0,93.94775,156.894a45.93372,45.93372,0,0,0,68.1045,0,45.89477,45.89477,0,0,0,33.05517,15.09717c.29395.00586.58594.00879.87988.00879A45.295,45.295,0,0,0,204,171.27588V204Z"/>
</svg>
