<svg id="Flat" xmlns="http://www.w3.org/2000/svg" viewBox="0 0 256 256">
  <path d="M200,20.00781H56a20.02292,20.02292,0,0,0-20,20v176a20.02292,20.02292,0,0,0,20,20H200a20.02292,20.02292,0,0,0,20-20v-176A20.02292,20.02292,0,0,0,200,20.00781Zm-4,192H60v-168H196ZM80,76A12,12,0,0,1,92,64h72a12,12,0,0,1,0,24H92A12,12,0,0,1,80,76Zm88,52a16,16,0,1,1-16-16A16.01833,16.01833,0,0,1,168,128Zm0,48a16,16,0,1,1-16-16A16.01833,16.01833,0,0,1,168,176Zm-48-48a16,16,0,1,1-16-16A16.01833,16.01833,0,0,1,120,128Zm0,48a16,16,0,1,1-16-16A16.01833,16.01833,0,0,1,120,176Z"/>
</svg>
