<svg xmlns="http://www.w3.org/2000/svg" viewBox="0 0 256 256"><path d="M208,28H188V20a12,12,0,0,0-24,0v8H92V20a12,12,0,0,0-24,0v8H48A20.1,20.1,0,0,0,28,48V208a20.1,20.1,0,0,0,20,20H208a20.1,20.1,0,0,0,20-20V48A20.1,20.1,0,0,0,208,28Zm-4,24V76H52V52ZM52,204V100H204V204Zm76-40a28.1,28.1,0,0,1-28,28,27.8,27.8,0,0,1-19.8-8.2,12,12,0,0,1,17-17A3.7,3.7,0,0,0,100,168a4,4,0,0,0,0-8,12,12,0,0,1-9.4-19.5l.4-.5H88a12,12,0,0,1,0-24h28a12,12,0,0,1,9.4,19.5l-6.4,8A27.9,27.9,0,0,1,128,164Zm48-36v52a12,12,0,0,1-24,0V151.3a12,12,0,0,1-11.2-20.9l16-12A12,12,0,0,1,176,128Z"/></svg>