<svg id="Flat" xmlns="http://www.w3.org/2000/svg" viewBox="0 0 256 256">
  <path d="M208,28H188V20a12,12,0,0,0-24,0v8H92V20a12,12,0,0,0-24,0v8H48A20.02229,20.02229,0,0,0,28,48V208a20.02229,20.02229,0,0,0,20,20H208a20.02229,20.02229,0,0,0,20-20V48A20.02229,20.02229,0,0,0,208,28Zm-4,24V76H52V52ZM52,204V100H204V204Zm76-40.00293a27.99978,27.99978,0,0,1-47.78711,19.81055,11.99993,11.99993,0,1,1,16.96045-16.98047A4,4,0,1,0,100,159.99707,11.9998,11.9998,0,0,1,90.62988,140.501l.40235-.50391H88a12,12,0,1,1,0-24h28a11.9998,11.9998,0,0,1,9.37012,19.49609l-6.36621,7.958A27.93228,27.93228,0,0,1,128,163.99707Zm48-36v52a12,12,0,0,1-24,0V151.31445a12.00194,12.00194,0,0,1-11.2002-20.917l16-12A11.99976,11.99976,0,0,1,176,127.99707Z"/>
</svg>
