<svg id="Flat" xmlns="http://www.w3.org/2000/svg" viewBox="0 0 256 256">
  <path d="M208,28H188V24a12,12,0,0,0-24,0v4H92V24a12,12,0,0,0-24,0v4H48A20.02229,20.02229,0,0,0,28,48V208a20.02229,20.02229,0,0,0,20,20H208a20.02229,20.02229,0,0,0,20-20V48A20.02229,20.02229,0,0,0,208,28ZM68,52v4a12,12,0,0,0,24,0V52h72v4a12,12,0,0,0,24,0V52h16V76H52V52ZM52,204V100H204V204Zm108.48535-67.51465L144.9707,152l15.51465,15.51465a12.0001,12.0001,0,0,1-16.9707,16.9707L128,168.9707l-15.51465,15.51465a12.0001,12.0001,0,0,1-16.9707-16.9707L111.0293,152,95.51465,136.48535a12.0001,12.0001,0,1,1,16.9707-16.9707L128,135.0293l15.51465-15.51465a12.0001,12.0001,0,1,1,16.9707,16.9707Z"/>
</svg>
