<svg id="Flat" xmlns="http://www.w3.org/2000/svg" viewBox="0 0 256 256">
  <path d="M42.3335,15.92773A11.99986,11.99986,0,1,0,24.57568,32.07227L43.0918,52.43945A28.03986,28.03986,0,0,0,19.99951,80V192a28.03146,28.03146,0,0,0,28,28H195.41943l18.24707,20.07227a11.99986,11.99986,0,1,0,17.75782-16.14454Zm63.89355,105.96045,29.77344,32.75147a24.01644,24.01644,0,0,1-29.77344-32.75147ZM47.99951,196a4.00427,4.00427,0,0,1-4-4V80a4.00427,4.00427,0,0,1,4-4H64.51025l24.92188,27.41455A47.98011,47.98011,0,0,0,152.76855,173.084L173.60107,196Zm188-116v94.13574a12,12,0,0,1-24,0V80a4.00426,4.00426,0,0,0-4-4H175.99365a11.99793,11.99793,0,0,1-9.98437-5.34375L153.57178,52H102.05811a12,12,0,0,1,0-24h57.93554a11.998,11.998,0,0,1,9.98438,5.34375L182.41553,52h25.584A28.03146,28.03146,0,0,1,235.99951,80Z"/>
</svg>
