<svg xmlns="http://www.w3.org/2000/svg" viewBox="0 0 256 256"><path d="M42.3,15.9A12,12,0,1,0,24.6,32.1L43.1,52.4A28.1,28.1,0,0,0,20,80V192a28.1,28.1,0,0,0,28,28H195.4l18.3,20.1a11.8,11.8,0,0,0,8.8,3.9,12,12,0,0,0,8.9-20.1Zm63.9,106L136,154.6a23.6,23.6,0,0,1-8,1.4,24.1,24.1,0,0,1-24-24A24.4,24.4,0,0,1,106.2,121.9ZM48,196a4,4,0,0,1-4-4V80a4,4,0,0,1,4-4H64.5l24.9,27.4A48.1,48.1,0,0,0,128,180a49,49,0,0,0,24.8-6.9L173.6,196ZM236,80v94.1a12,12,0,1,1-24,0V80a4,4,0,0,0-4-4H176a11.9,11.9,0,0,1-10-5.4L153.6,52H102.1a12,12,0,0,1,0-24H160a12.1,12.1,0,0,1,10,5.3L182.4,52H208A28.1,28.1,0,0,1,236,80Z"/></svg>