<svg xmlns="http://www.w3.org/2000/svg" viewBox="0 0 256 256"><path d="M208,52H182.4L170,33.3A12.1,12.1,0,0,0,160,28H96a12.1,12.1,0,0,0-10,5.3L73.6,52H48A28.1,28.1,0,0,0,20,80V192a28.1,28.1,0,0,0,28,28H208a28.1,28.1,0,0,0,28-28V80A28.1,28.1,0,0,0,208,52Zm4,140a4,4,0,0,1-4,4H48a4,4,0,0,1-4-4V80a4,4,0,0,1,4-4H80a12.1,12.1,0,0,0,10-5.3L102.4,52h51.2L166,70.7A12.1,12.1,0,0,0,176,76h32a4,4,0,0,1,4,4Zm-47.2-40.2a12,12,0,0,1,0,17,52,52,0,0,1-72.9.6v.6A11.9,11.9,0,0,1,80,180l-2-.2A11.9,11.9,0,0,1,68.2,166l4-24a11.9,11.9,0,0,1,9.8-9.8l24-4a12,12,0,0,1,4,23.6l-1.5.3a28,28,0,0,0,39.3-.3A12,12,0,0,1,164.8,151.8Zm23-53.8-4,24a11.9,11.9,0,0,1-9.8,9.8l-24,4-2,.2a12,12,0,0,1-2-23.8l1.5-.3a28,28,0,0,0-39.3.3,12,12,0,0,1-17-17,52,52,0,0,1,72.9-.6V94a12,12,0,0,1,23.6,4Z"/></svg>