<svg id="Flat" xmlns="http://www.w3.org/2000/svg" viewBox="0 0 256 256">
  <path d="M208,52H182.416l-12.4375-18.65625A11.998,11.998,0,0,0,159.99414,28h-64a11.99793,11.99793,0,0,0-9.98437,5.34375L73.57227,52H48A28.03146,28.03146,0,0,0,20,80V192a28.03146,28.03146,0,0,0,28,28H208a28.03146,28.03146,0,0,0,28-28V80A28.03146,28.03146,0,0,0,208,52Zm4,140a4.004,4.004,0,0,1-4,4H48a4.004,4.004,0,0,1-4-4V80a4.004,4.004,0,0,1,4-4H79.99414a11.998,11.998,0,0,0,9.98438-5.34375L102.416,52h51.15625l12.4375,18.65625A11.99793,11.99793,0,0,0,175.99414,76H208a4.004,4.004,0,0,1,4,4ZM128,84a48,48,0,1,0,48,48A48.05375,48.05375,0,0,0,128,84Zm0,72a24,24,0,1,1,24-24A24.0275,24.0275,0,0,1,128,156Z"/>
</svg>
