<svg xmlns="http://www.w3.org/2000/svg" viewBox="0 0 256 256"><path d="M208,52H182.4L170,33.3A12.1,12.1,0,0,0,160,28H96a12.1,12.1,0,0,0-10,5.3L73.6,52H48A28.1,28.1,0,0,0,20,80V192a28.1,28.1,0,0,0,28,28H208a28.1,28.1,0,0,0,28-28V80A28.1,28.1,0,0,0,208,52Zm4,140a4,4,0,0,1-4,4H48a4,4,0,0,1-4-4V80a4,4,0,0,1,4-4H80a12.1,12.1,0,0,0,10-5.3L102.4,52h51.2L166,70.7A12.1,12.1,0,0,0,176,76h32a4,4,0,0,1,4,4ZM128,84a48,48,0,1,0,48,48A48,48,0,0,0,128,84Zm0,72a24,24,0,1,1,24-24A24.1,24.1,0,0,1,128,156Z"/></svg>