<svg xmlns="http://www.w3.org/2000/svg" viewBox="0 0 256 256"><path d="M227.4,227.6A12,12,0,0,1,216,236a11.3,11.3,0,0,1-3.6-.6L128,208.6,43.6,235.4a11.3,11.3,0,0,1-3.6.6,12,12,0,0,1-3.6-23.4l52-16.6-52-16.6a12,12,0,1,1,7.2-22.8L128,183.4l84.4-26.8a12,12,0,1,1,7.2,22.8l-52,16.6,52,16.6A11.9,11.9,0,0,1,227.4,227.6ZM64,108c0-50.1,55.4-84.8,57.7-86.2a11.9,11.9,0,0,1,12.6,0C136.6,23.2,192,57.9,192,108a64,64,0,0,1-128,0Zm64,40a12,12,0,0,0,12-12c0-10.3-6.6-19-12-24.3-5.4,5.3-12,14-12,24.3A12,12,0,0,0,128,148ZM88,108a41,41,0,0,0,4.8,19.1c4.7-24.9,27.5-40.4,28.5-41.1a12.1,12.1,0,0,1,13.4,0c1,.7,23.8,16.2,28.5,41.1A41,41,0,0,0,168,108c0-10.3-3.9-26.7-22.6-46.2A160.6,160.6,0,0,0,128,46.6C115.4,56,88,79.7,88,108Z"/></svg>