<svg id="Flat" xmlns="http://www.w3.org/2000/svg" viewBox="0 0 256 256">
  <path d="M240,108h-8.20142L205.07617,47.876A20.0185,20.0185,0,0,0,186.80078,36H69.19922A20.02024,20.02024,0,0,0,50.92285,47.877L24.20129,108H16a12,12,0,0,0,0,24h4v76a20.02229,20.02229,0,0,0,20,20H64a20.02229,20.02229,0,0,0,20-20V196h88v12a20.02229,20.02229,0,0,0,20,20h24a20.02229,20.02229,0,0,0,20-20V132h4a12,12,0,0,0,0-24ZM71.79883,60H184.20117l21.3335,48H50.46533ZM60,204H44v-8H60Zm136,0v-8h16v8Zm16-32H44V132H212ZM52,152a12.0006,12.0006,0,0,1,12-12H80a12,12,0,0,1,0,24H64A12.0006,12.0006,0,0,1,52,152Zm112,0a12.0006,12.0006,0,0,1,12-12h16a12,12,0,0,1,0,24H176A12.0006,12.0006,0,0,1,164,152Z"/>
</svg>
