<svg id="Flat" xmlns="http://www.w3.org/2000/svg" viewBox="0 0 256 256">
  <path d="M208,44H48A28.03146,28.03146,0,0,0,20,72V184a28.03146,28.03146,0,0,0,28,28H208a28.03146,28.03146,0,0,0,28-28V72A28.03146,28.03146,0,0,0,208,44ZM48,68H208a4.004,4.004,0,0,1,4,4V88H167.19043a20.05225,20.05225,0,0,0-19.58984,16.0127,20.00831,20.00831,0,0,1-39.2002,0A20.05412,20.05412,0,0,0,88.80957,88H44V72A4.004,4.004,0,0,1,48,68ZM208,188H48a4.004,4.004,0,0,1-4-4V112H85.65918a44.01164,44.01164,0,0,0,84.68164,0H212v72A4.004,4.004,0,0,1,208,188Z"/>
</svg>
