<svg id="Flat" xmlns="http://www.w3.org/2000/svg" viewBox="0 0 256 256">
  <path d="M204.36768,51.63232a107.94973,107.94973,0,1,0,0,152.73536A108.12237,108.12237,0,0,0,204.36768,51.63232ZM187.397,187.397a83.961,83.961,0,1,1,0-118.79394A84.09448,84.09448,0,0,1,187.397,187.397ZM168.48535,79.51465a12.00062,12.00062,0,0,1,0,16.9707l-32,32a12.00033,12.00033,0,0,1-16.9707,0l-32-32a12.0001,12.0001,0,0,1,16.9707-16.9707L128,103.0293l23.51465-23.51465A11.99973,11.99973,0,0,1,168.48535,79.51465Zm0,56a12.00062,12.00062,0,0,1,0,16.9707l-32,32a12.00033,12.00033,0,0,1-16.9707,0l-32-32a12.0001,12.0001,0,0,1,16.9707-16.9707L128,159.0293l23.51465-23.51465A11.99973,11.99973,0,0,1,168.48535,135.51465Z"/>
</svg>
