<svg id="Flat" xmlns="http://www.w3.org/2000/svg" viewBox="0 0 256 256">
  <path d="M204.36768,51.63232a107.94973,107.94973,0,1,0,0,152.73536A108.12237,108.12237,0,0,0,204.36768,51.63232ZM187.397,187.397a83.961,83.961,0,1,1,0-118.79394A84.09448,84.09448,0,0,1,187.397,187.397Zm-58.91162-67.88232a12.00062,12.00062,0,0,1,0,16.9707l-32,32a12.0001,12.0001,0,0,1-16.9707-16.9707L103.0293,128,79.51465,104.48535a12.0001,12.0001,0,0,1,16.9707-16.9707Zm56,16.9707-32,32a12.0001,12.0001,0,0,1-16.9707-16.9707L159.0293,128l-23.51465-23.51465a12.0001,12.0001,0,0,1,16.9707-16.9707l32,32A12.00062,12.00062,0,0,1,184.48535,136.48535Z"/>
</svg>
