<svg id="Flat" xmlns="http://www.w3.org/2000/svg" viewBox="0 0 256 256">
  <path d="M204.36768,51.63232a107.94973,107.94973,0,1,0,0,152.73536A108.12237,108.12237,0,0,0,204.36768,51.63232ZM187.397,187.397a83.961,83.961,0,1,1,0-118.79394A84.09448,84.09448,0,0,1,187.397,187.397Zm-10.91162-82.91162L152.9707,128l23.51465,23.51465a12.0001,12.0001,0,0,1-16.9707,16.9707l-32-32a12.00062,12.00062,0,0,1,0-16.9707l32-32a12.0001,12.0001,0,0,1,16.9707,16.9707Zm-56,0L96.9707,128l23.51465,23.51465a12.0001,12.0001,0,0,1-16.9707,16.9707l-32-32a12.00062,12.00062,0,0,1,0-16.9707l32-32a12.0001,12.0001,0,0,1,16.9707,16.9707Z"/>
</svg>
