<svg xmlns="http://www.w3.org/2000/svg" viewBox="0 0 256 256"><path d="M100,140a16,16,0,1,1-16-16A16,16,0,0,1,100,140Zm72-16a16,16,0,1,0,16,16A16,16,0,0,0,172,124Zm64-72.7V136c0,55.1-48.4,100-108,100S20,191.1,20,136V51.3A19.9,19.9,0,0,1,54.1,37.2l15,15A114.5,114.5,0,0,1,105,38.3a11.3,11.3,0,0,1,1.8-.3,113.4,113.4,0,0,1,42.4,0,11.3,11.3,0,0,1,1.8.3,114.5,114.5,0,0,1,35.9,13.9l15-15A19.9,19.9,0,0,1,236,51.3ZM212,61,196.9,76.1a12,12,0,0,1-15.7,1.1A86.9,86.9,0,0,0,160,65.7V88a12,12,0,0,1-24,0V60.4a80.2,80.2,0,0,0-16,0V88a12,12,0,0,1-24,0V65.7A86.9,86.9,0,0,0,74.8,77.2a12,12,0,0,1-15.7-1.1L44,61v75c0,38.2,31.3,69.9,72,75.2V197l-12.5-12.5a12,12,0,0,1,17-17L128,175l7.5-7.5a12,12,0,0,1,17,17L140,197v14.2c40.7-5.3,72-37,72-75.2Z"/></svg>