<svg id="Flat" xmlns="http://www.w3.org/2000/svg" viewBox="0 0 256 256">
  <path d="M100,140a16,16,0,1,1-16-16A16.00016,16.00016,0,0,1,100,140Zm72-16a16,16,0,1,0,16,16A16.00016,16.00016,0,0,0,172,124Zm64-72.68652V136c0,55.14014-48.44824,100-108,100S20,191.14014,20,136V51.31348A20.00067,20.00067,0,0,1,54.14258,37.1709L69.125,52.1543a113.3472,113.3472,0,0,1,35.88379-13.84766,11.92073,11.92073,0,0,1,1.74438-.32617,114.9546,114.9546,0,0,1,42.47705-.00293,11.88606,11.88606,0,0,1,1.769.33057A113.35052,113.35052,0,0,1,186.875,52.1543l14.98242-14.98242A20.00011,20.00011,0,0,1,236,51.31348Zm-24,9.65673L196.88672,76.0835a11.99834,11.99834,0,0,1-15.6416,1.147A85.95465,85.95465,0,0,0,160,65.74951V88a12,12,0,0,1-24,0V60.35962c-2.6521-.231-5.32056-.35962-8-.35962s-5.3479.12866-8,.35962V88a12,12,0,0,1-24,0V65.74951A85.95872,85.95872,0,0,0,74.75391,77.231,12.00064,12.00064,0,0,1,59.1123,76.083L44,60.97021V136c0,38.21973,31.34839,69.92627,72,75.21191V196.9707l-12.48535-12.48535a12.0001,12.0001,0,0,1,16.9707-16.9707L128,175.0293l7.51465-7.51465a12.0001,12.0001,0,0,1,16.9707,16.9707L140,196.9707v14.24121c40.65161-5.28564,72-36.99218,72-75.21191Z"/>
</svg>
