<svg id="Flat" xmlns="http://www.w3.org/2000/svg" viewBox="0 0 256 256">
  <path d="M232.48535,143.51465a12.0001,12.0001,0,0,1-16.9707,16.9707L200,144.9707l-15.51465,15.51465a12.0001,12.0001,0,0,1-16.9707-16.9707L183.0293,128l-15.51465-15.51465a12.0001,12.0001,0,0,1,16.9707-16.9707L200,111.0293l15.51465-15.51465a12.0001,12.0001,0,0,1,16.9707,16.9707L216.9707,128ZM200,171.99512a12.00028,12.00028,0,0,0-12,12V204H36.97021L188,52.9707V72.00488a12,12,0,1,0,24,0V43.31348a19.99978,19.99978,0,0,0-34.14209-14.1416L13.1709,193.85742A20.00067,20.00067,0,0,0,27.31348,228H192a20.0226,20.0226,0,0,0,20-20V183.99512A12.00028,12.00028,0,0,0,200,171.99512Z"/>
</svg>
