<svg id="Flat" xmlns="http://www.w3.org/2000/svg" viewBox="0 0 256 256">
  <path d="M126.92285,97.07678a12.00064,12.00064,0,0,1,0-16.9707l50.93506-50.93457A19.99978,19.99978,0,0,1,212,43.31409v116.3291a12,12,0,0,1-24,0V52.97034L143.89355,97.07678A11.998,11.998,0,0,1,126.92285,97.07678ZM217.092,223.82c-.12305.14306-.25134.28222-.3822.42089-.14771.15625-.29846.3086-.45422.45655-.06519.062-.12195.12939-.18873.18994-.07177.06543-.14917.12012-.222.18359q-.21845.189-.44568.36817-.23218.18237-.47046.35156c-.147.10449-.29553.20557-.44726.30371q-.26075.16773-.52771.32031c-.14856.08545-.29822.16846-.45081.24707-.18762.09766-.3772.1875-.5686.27442-.15406.06933-.30835.13818-.46582.20117-.19654.0791-.39478.14941-.59424.21777-.1604.05469-.32007.10987-.4834.1582-.20789.061-.41748.11182-.62769.16114-.15979.03808-.318.07861-.48022.10986-.23853.04639-.47839.07861-.71875.10986-.1377.01807-.273.04248-.41211.05567-.384.03711-.769.05859-1.154.05859h-.00391L27.313,227.99963A19.9995,19.9995,0,0,1,13.17187,193.858l83.00672-83.00781L39.11523,48.08069A12.00021,12.00021,0,0,1,56.874,31.93616l160,176c.06214.06836.11353.14257.17383.21191q.21277.24464.41162.501c.114.14648.22534.29394.33179.44384.11768.16651.22913.33692.33838.50977.10351.16357.20532.32666.3.49365.09631.16992.18542.34326.27368.51807.08862.17578.176.35156.25537.53027.07861.17676.14917.35694.21924.53809.0708.18359.14062.36621.20215.55224.06079.1836.11352.37012.16577.55762.053.19092.10425.38184.1477.5752.04151.18457.07569.37109.10865.55859.03564.2041.06836.4082.0935.61328.022.17969.03821.36084.05213.543.01684.21924.02844.438.0332.65772.00207.09033.01355.17822.01355.269,0,.09033-.01148.17773-.01355.26758-.00488.21435-.01611.42822-.03235.64209-.0144.19043-.03125.37939-.05432.56738-.02393.19287-.05481.38428-.088.57617-.03455.2002-.0708.39942-.11524.59619-.0404.1792-.08862.35645-.13721.53369-.05468.19873-.1101.397-.17456.59131-.05883.17774-.126.35254-.19311.52735-.07105.18506-.14209.36914-.22192.54931-.08008.18164-.16944.35938-.259.5376-.08374.166-.16723.332-.25854.49414-.10095.1792-.2107.354-.32154.5293-.09814.15429-.19629.30859-.30114.458-.11609.166-.23938.32714-.36475.48779C217.33984,223.52112,217.21875,223.67248,217.092,223.82ZM36.9707,203.99963l143.89575.00733L112.34106,128.629Z"/>
</svg>
