<svg id="Flat" xmlns="http://www.w3.org/2000/svg" viewBox="0 0 256 256">
  <path d="M217.45935,223.36731c.12537-.16065.24866-.32178.36475-.48779.10485-.14942.203-.30372.30114-.458.11084-.17529.22059-.3501.32154-.5293.09131-.16211.1748-.32812.25854-.49414.0896-.17822.179-.356.259-.5376.07983-.18017.15087-.36425.22192-.54931.06714-.17481.13428-.34961.19311-.52735.06446-.19433.11988-.39258.17456-.59131.04859-.17724.09681-.35449.13721-.53369.04444-.19677.08069-.396.11524-.59619.0332-.19189.06408-.3833.088-.57617.02307-.188.03992-.37695.05432-.56738.01624-.21387.02747-.42774.03235-.64209.00207-.08985.01355-.17725.01355-.26758,0-.09082-.01148-.17871-.01355-.269-.00476-.21973-.01636-.43848-.0332-.65772-.01392-.18213-.03016-.36328-.05213-.543-.02514-.20508-.05786-.40918-.0935-.61328-.033-.1875-.06714-.374-.10865-.55859-.04345-.19336-.09472-.38428-.1477-.5752-.05225-.1875-.105-.374-.16577-.55762-.06153-.186-.13135-.36865-.20215-.55224-.07007-.18115-.14063-.36133-.21924-.53809-.07935-.17871-.16675-.35449-.25537-.53027-.08826-.17481-.17737-.34815-.27368-.51807-.09473-.167-.19654-.33008-.3-.49365-.10925-.17285-.2207-.34326-.33838-.50977-.10645-.1499-.21777-.29736-.33179-.44384q-.19957-.25635-.41162-.501c-.0603-.06934-.11169-.14355-.17383-.21191l-160-176A12.00021,12.00021,0,0,0,39.11523,48.08069l57.06336,62.76953L13.17187,193.858A19.9995,19.9995,0,0,0,27.313,227.99963l180.68115.00879h.00391c.385,0,.77-.02148,1.154-.05859.13916-.01319.27441-.0376.41211-.05567.24036-.03125.48022-.06347.71875-.10986.16223-.03125.32043-.07178.48022-.10986.21021-.04932.4198-.1001.62769-.16114.16333-.04833.323-.10351.4834-.1582.19946-.06836.3977-.13867.59424-.21777.15747-.063.31176-.13184.46582-.20117.1914-.08692.381-.17676.5686-.27442.15259-.07861.30225-.16162.45081-.24707q.26715-.15308.52771-.32031c.15173-.09814.30029-.19922.44726-.30371q.23859-.16918.47046-.35156.22779-.17871.44568-.36817c.07287-.06347.15027-.11816.222-.18359.06678-.06055.12354-.12793.18873-.18994.15576-.148.30651-.3003.45422-.45655.13086-.13867.25915-.27783.3822-.42089C217.21875,223.67248,217.33984,223.52112,217.45935,223.36731ZM112.34106,128.629,180.86645,204.007,36.9707,203.99963ZM132.58643,91.4137a12.00063,12.00063,0,0,1,0-16.97071l45.27148-45.27148A19.99978,19.99978,0,0,1,212,43.31409V147.74963a12,12,0,1,1-24,0V52.97034L149.55713,91.4137A12.00153,12.00153,0,0,1,132.58643,91.4137Z"/>
</svg>
