<svg xmlns="http://www.w3.org/2000/svg" viewBox="0 0 256 256"><path d="M232.5,143.5A12,12,0,0,1,224,164a12.2,12.2,0,0,1-8.5-3.5L200,145l-15.5,15.5A12,12,0,0,1,176,164a12.2,12.2,0,0,1-8.5-3.5,12,12,0,0,1,0-17L183,128l-15.5-15.5a12,12,0,0,1,17-17L200,111l15.5-15.5a12,12,0,0,1,17,17L217,128ZM200,172a12,12,0,0,0-12,12v20H37L188,53V72a12,12,0,0,0,24,0V43.3a19.9,19.9,0,0,0-34.1-14.1L13.2,193.9a19.7,19.7,0,0,0-4.3,21.8A19.8,19.8,0,0,0,27.3,228H192a20.1,20.1,0,0,0,20-20V184A12,12,0,0,0,200,172Z"/></svg>