<svg id="Flat" xmlns="http://www.w3.org/2000/svg" viewBox="0 0 256 256">
  <path d="M56,84A12.00028,12.00028,0,0,1,68,72H188a12.00028,12.00028,0,0,1,12,12v88a12,12,0,0,1-24,0V96H68A12.00028,12.00028,0,0,1,56,84ZM236,56V200a20.0226,20.0226,0,0,1-20,20l-66.73535-.00146a12.00185,12.00185,0,0,1-11.40235-8.25782,36.01959,36.01959,0,0,0-67.74218.04981,12.00065,12.00065,0,0,1-11.38379,8.208L40.002,220A20.00016,20.00016,0,0,1,20,200V56A20.0226,20.0226,0,0,1,40,36H216A20.0226,20.0226,0,0,1,236,56ZM104,164a16,16,0,1,0-16-16A16.01833,16.01833,0,0,0,104,164ZM212,60H44V195.99951l6.92188-.00049a60.08035,60.08035,0,0,1,21.76269-23.15643,40.0001,40.0001,0,1,1,62.63086-.00018,60.0751,60.0751,0,0,1,21.7627,23.15613L212,196Z"/>
</svg>
