<svg id="Flat" xmlns="http://www.w3.org/2000/svg" viewBox="0 0 256 256">
  <path d="M39.60059,155.94287l62.398-36.02539a11.99992,11.99992,0,0,0,6-10.39233v-72.062a11.99963,11.99963,0,0,0-15.999-11.31372,108.15115,108.15115,0,0,0-70.19922,121.5813,12,12,0,0,0,17.8003,8.21216Zm44.398-99.51929v46.17334L44.03223,125.67139A84.22434,84.22434,0,0,1,83.99854,56.42358ZM221.74,74.40869c-.07166-.13574-.13184-.27466-.20923-.40869-.10473-.18164-.22485-.34814-.33764-.522A108.053,108.053,0,0,0,128,20a12,12,0,0,0-12,12v89.07178L38.86133,165.60791A11.99956,11.99956,0,0,0,34.46924,182c.03589.062.0813.11475.11816.17578.09619.18457.18238.37183.28906.55322A108.01113,108.01113,0,0,0,236,128,107.33828,107.33828,0,0,0,221.74,74.40869ZM140,44.87085a83.99936,83.99936,0,0,1,53.94946,31.197L140,107.21558ZM128,212a84.45129,84.45129,0,0,1-65.99268-32.043L205.98071,96.83447A83.95,83.95,0,0,1,128,212Z"/>
</svg>
