<svg id="Flat" xmlns="http://www.w3.org/2000/svg" viewBox="0 0 256 256">
  <path d="M221.74,74.40869c-.07166-.13574-.13184-.2749-.20923-.40869-.10473-.18164-.22473-.34766-.3374-.52148A107.97387,107.97387,0,0,0,34.26,181.59131c.07165.13574.13184.2749.20923.40869.07348.12744.16479.2373.24219.36084A107.97452,107.97452,0,0,0,221.74,74.40869Zm-27.79065,1.65918L140,107.21533V44.87109A83.99778,83.99778,0,0,1,193.94934,76.06787ZM116,44.87109v76.20069L50.01929,159.16553A83.9347,83.9347,0,0,1,116,44.87109ZM128,212a83.87321,83.87321,0,0,1-65.94934-32.06787L205.98071,96.83447A83.95,83.95,0,0,1,128,212Z"/>
</svg>
