<svg id="Flat" xmlns="http://www.w3.org/2000/svg" viewBox="0 0 256 256">
  <path d="M221.74,74.40869c-.07166-.13574-.13184-.27466-.20923-.40869-.10473-.18164-.22485-.34814-.33764-.522A108.053,108.053,0,0,0,128,20a12,12,0,0,0-12,12v89.07178L38.86133,165.60791A11.99956,11.99956,0,0,0,34.46924,182c.03589.062.0813.11475.11816.17578.09619.18457.18238.37183.28906.55322A108.01113,108.01113,0,0,0,236,128,107.33828,107.33828,0,0,0,221.74,74.40869ZM140,44.87085a83.99936,83.99936,0,0,1,53.94946,31.197L140,107.21558ZM128,212a84.45129,84.45129,0,0,1-65.99268-32.043L205.98071,96.83447A83.95,83.95,0,0,1,128,212ZM93.99414,116.53882a12,12,0,0,0,6-10.39234l-.00049-65.439A12.00044,12.00044,0,0,0,82.9873,29.80176,108.34662,108.34662,0,0,0,20,128a109.4722,109.4722,0,0,0,.59814,11.4248,12.00018,12.00018,0,0,0,17.93409,9.13477Zm-18.00049-54.5.00049,37.17944L44.68945,117.292A84.43759,84.43759,0,0,1,75.99365,62.03882Z"/>
</svg>
