<svg id="Flat" xmlns="http://www.w3.org/2000/svg" viewBox="0 0 256 256">
  <path d="M235.99951,208a12.00028,12.00028,0,0,1-12,12h-192a12.00028,12.00028,0,0,1-12-12V48a12,12,0,0,1,24,0v99.03223l43.51758-43.51758a12.00062,12.00062,0,0,1,16.9707,0l23.51465,23.51465L179.03174,76h-11.0293a12,12,0,0,1,0-24h40c.01514,0,.0293.002.04444.00244q.56982.0022,1.13818.05713c.1831.01807.36084.05225.5415.07813.207.03027.41455.05419.61963.09472.20215.04.39795.0957.59619.14551.18164.0459.36426.08545.54395.13965.19189.05859.37744.13037.56494.19775.18164.06494.36523.125.54443.19922.17383.07227.34082.15674.51075.23682.18505.0874.37207.16992.55371.26709.16064.08593.313.18408.46923.27734.18018.10693.36231.20947.53809.32666.16846.11279.32617.23828.48828.35938.15186.11279.30713.21875.45508.33984.28467.23389.55664.48193.81885.74023.019.01856.03955.03418.0581.05274.01953.01953.03516.04053.0542.06006.2583.26123.50586.5332.73926.81738.12109.14746.22656.30273.33936.4541.1206.16211.24609.31983.35888.48828.11914.17823.22315.3628.332.54639.09082.15283.1875.30225.272.46.09863.18506.1831.375.27148.56445.07861.166.16162.32959.23242.5.07617.18409.1377.37159.2041.55811.06543.1831.13575.36328.19239.5498.05713.18848.09912.38037.14648.5708.04736.189.10059.37549.13916.56836.04395.22071.07031.44385.10156.66651.02344.165.05518.32763.07129.49463.03907.39648.06006.79394.06006,1.1914V104a12,12,0,0,1-24,0V92.9707l-59.51465,59.51465a12.00062,12.00062,0,0,1-16.9707,0L96.00244,128.9707,43.99951,180.97363V196h180A12.00028,12.00028,0,0,1,235.99951,208Z"/>
</svg>
