<svg xmlns="http://www.w3.org/2000/svg" viewBox="0 0 256 256"><path d="M221.7,74.4a.8.8,0,0,0-.2-.4l-.3-.5A108,108,0,0,0,128,20a12,12,0,0,0-12,12v89.1L38.9,165.6A12,12,0,0,0,34.5,182v.2l.3.5A108,108,0,0,0,236,128,107.1,107.1,0,0,0,221.7,74.4ZM140,44.9a83.8,83.8,0,0,1,54,31.2l-54,31.1ZM128,212a84.4,84.4,0,0,1-66-32L206,96.8A84,84,0,0,1,128,212ZM94,116.5a12,12,0,0,0,6-10.4V40.7A12,12,0,0,0,83,29.8,108.1,108.1,0,0,0,20.6,139.4a12.1,12.1,0,0,0,6.5,9.5,13,13,0,0,0,5.4,1.3,12.5,12.5,0,0,0,6-1.6ZM76,62V99.2L44.7,117.3A84.5,84.5,0,0,1,76,62Z"/></svg>