<svg id="Flat" xmlns="http://www.w3.org/2000/svg" viewBox="0 0 256.00098 256.00098">
  <path d="M216.001,36h-176a20.02229,20.02229,0,0,0-20,20V183.999a20.02229,20.02229,0,0,0,20,20H97.20605l13.64454,22.74121a20.0002,20.0002,0,0,0,34.2998,0L158.79492,204H216a20.02313,20.02313,0,0,0,20.001-20V56A20.02229,20.02229,0,0,0,216.001,36Zm-4,144H156.53027a20.10225,20.10225,0,0,0-17.14941,9.709l-.001.001L128.001,208.67578,116.62109,189.709a20.10385,20.10385,0,0,0-17.15039-9.71H44.001V60h168ZM83.99365,120.002a16,16,0,1,1,16,16A16.00017,16.00017,0,0,1,83.99365,120.002Zm56,0a16,16,0,1,1,16,16A16.00017,16.00017,0,0,1,139.99365,120.002Z"/>
</svg>
