<svg id="Flat" xmlns="http://www.w3.org/2000/svg" viewBox="0 0 256 256">
  <path d="M216.001,36h-176a20.02229,20.02229,0,0,0-20,20V183.999a20.02229,20.02229,0,0,0,20,20H97.20605l13.64454,22.74121a20.0002,20.0002,0,0,0,34.2998,0L158.79492,204H216a20.02313,20.02313,0,0,0,20.001-20V56A20.02229,20.02229,0,0,0,216.001,36Zm-4,144H156.53027a20.10225,20.10225,0,0,0-17.14941,9.709l-.001.001L128.001,208.67578,116.62109,189.709a20.10385,20.10385,0,0,0-17.15039-9.71H44.001V60h168ZM112.00049,120.00049a16,16,0,1,1,16,16A16.00016,16.00016,0,0,1,112.00049,120.00049Zm-48,0a16,16,0,1,1,16,16A16.00016,16.00016,0,0,1,64.00049,120.00049Zm96,0a16,16,0,1,1,16,16A16.00016,16.00016,0,0,1,160.00049,120.00049Z"/>
</svg>
