<svg id="Flat" xmlns="http://www.w3.org/2000/svg" viewBox="0 0 256 256">
  <path d="M128,20A108.03119,108.03119,0,0,0,32.51758,178.50781L24.418,206.85645A19.99924,19.99924,0,0,0,49.1416,231.582l28.35156-8.09912A108.00773,108.00773,0,1,0,128,20Zm0,192a83.86908,83.86908,0,0,1-42.86328-11.74316,12.00316,12.00316,0,0,0-9.43067-1.22461l-26.23339,7.49511,7.49414-26.23291a11.99855,11.99855,0,0,0-1.22461-9.43017A84.01118,84.01118,0,1,1,128,212ZM96,127.99707a16,16,0,1,1-16-16A16.01833,16.01833,0,0,1,96,127.99707Zm48,0a16,16,0,1,1-16-16A16.01833,16.01833,0,0,1,144,127.99707Zm48,0a16,16,0,1,1-16-16A16.01833,16.01833,0,0,1,192,127.99707Z"/>
</svg>
