<svg id="Flat" xmlns="http://www.w3.org/2000/svg" viewBox="0 0 256.00098 256.00098">
  <path d="M128,236.4502a19.84078,19.84078,0,0,1-17.15039-9.71L97.20508,203.999H40a20.02229,20.02229,0,0,1-20-20V56A20.02229,20.02229,0,0,1,40,36H216a20.02229,20.02229,0,0,1,20,20V184a20.02313,20.02313,0,0,1-20.001,20H158.794l-13.64454,22.74023A19.84036,19.84036,0,0,1,128,236.4502ZM44,179.999H99.46973a20.10388,20.10388,0,0,1,17.15039,9.71L128,208.67578,139.37891,189.71l.001-.001A20.10225,20.10225,0,0,1,156.5293,180H212V60H44Z"/>
</svg>
