<svg id="Flat" xmlns="http://www.w3.org/2000/svg" viewBox="0 0 256.00098 256.00098">
  <path d="M236,96.00049a20.0226,20.0226,0,0,0-20-20H188.001v-28a20.0226,20.0226,0,0,0-20-20h-128a20.0226,20.0226,0,0,0-20,20v128a11.99989,11.99989,0,0,0,19.54394,9.332l28.45557-23.00458.00049,21.67255a20.0226,20.0226,0,0,0,20,20h92.17285l36.2832,29.332a11.99969,11.99969,0,0,0,19.54395-9.332ZM44.001,150.86816V52.00049h120V87.98114l-.001.01935.001.01935v43.98065H71.583a11.999,11.999,0,0,0-7.54395,2.668Zm147.96093,31.8003a11.99893,11.99893,0,0,0-7.54394-2.668H92.001l-.00049-24H168.001a20.0226,20.0226,0,0,0,20-20v-36H212l.001,98.86767Z"/>
</svg>
