<svg id="Flat" xmlns="http://www.w3.org/2000/svg" viewBox="0 0 256.00098 256.00098">
  <path d="M84,99.999a12.0006,12.0006,0,0,1,12-12h64a12,12,0,0,1,0,24H96A12.00059,12.00059,0,0,1,84,99.999Zm12,52h64a12,12,0,0,0,0-24H96a12,12,0,0,0,0,24ZM236,56V184a20.02313,20.02313,0,0,1-20.001,20H158.794l-13.64454,22.74023a20.0002,20.0002,0,0,1-34.2998,0L97.20508,203.999H40a20.02229,20.02229,0,0,1-20-20V56A20.02229,20.02229,0,0,1,40,36H216A20.02229,20.02229,0,0,1,236,56Zm-24,4H44V179.999H99.46973a20.10388,20.10388,0,0,1,17.15039,9.71L128,208.67578,139.37891,189.71l.001-.001A20.10225,20.10225,0,0,1,156.5293,180H212Z"/>
</svg>
