<svg id="Flat" xmlns="http://www.w3.org/2000/svg" viewBox="0 0 256.00098 256.00098">
  <path d="M216.00049,44.00049h-176a20.0226,20.0226,0,0,0-20,20V222.82422A19.81255,19.81255,0,0,0,31.55615,240.9541a20.0942,20.0942,0,0,0,8.49707,1.90186,19.86266,19.86266,0,0,0,12.81641-4.72217l31.08691-26.1333h132.044a20.0226,20.0226,0,0,0,20-20v-128A20.0226,20.0226,0,0,0,216.00049,44.00049Zm-4,144H82.49951a20.03605,20.03605,0,0,0-12.86816,4.689l-.002.002-25.6289,21.54443V68.00049h168Zm-148-60.00244a16,16,0,1,1,16,16A16.01833,16.01833,0,0,1,64.00049,127.99805Zm48,0a16,16,0,1,1,16,16A16.01833,16.01833,0,0,1,112.00049,127.99805Zm48,0a16,16,0,1,1,16,16A16.01833,16.01833,0,0,1,160.00049,127.99805Z"/>
</svg>
