<svg id="Flat" xmlns="http://www.w3.org/2000/svg" viewBox="0 0 256 256">
  <path d="M234.82471,190.20459A84.02886,84.02886,0,0,0,172.28809,68.90332a83.99343,83.99343,0,1,0-151.1128,73.30127l-5.74609,20.1123a18.00033,18.00033,0,0,0,22.252,22.25489l20.11426-5.74707a83.83474,83.83474,0,0,0,25.88135,8.26867,84.03931,84.03931,0,0,0,114.52783,39.73084l20.11523,5.74756a17.99941,17.99941,0,0,0,22.251-22.25244ZM59.25146,153.92822a11.98144,11.98144,0,0,0-3.29687.46192l-14.48242,4.13769,4.13769-14.48291a12.00084,12.00084,0,0,0-1.22363-9.42969,59.97019,59.97019,0,1,1,20.999,20.999A11.99683,11.99683,0,0,0,59.25146,153.92822Zm152.36329,28.686a11.99847,11.99847,0,0,0-1.22461,9.43017l4.13769,14.4834-14.48242-4.13721a11.98982,11.98982,0,0,0-9.43066,1.22413,60.04095,60.04095,0,0,1-79.62061-16.98169,83.984,83.984,0,0,0,68.55078-91.37342,60.03593,60.03593,0,0,1,32.06983,87.35462Z"/>
</svg>
