<svg xmlns="http://www.w3.org/2000/svg" viewBox="0 0 256 256"><path d="M234.8,190.2A84,84,0,0,0,172.3,68.9,84,84,0,1,0,21.2,142.2l-5.8,20.1a18.1,18.1,0,0,0,22.3,22.3l20.1-5.8a81.8,81.8,0,0,0,25.9,8.3,84,84,0,0,0,114.5,39.7l20.1,5.8a18.1,18.1,0,0,0,22.3-22.3ZM59.3,153.9a11.4,11.4,0,0,0-3.3.5l-14.5,4.1L45.6,144a12,12,0,0,0-1.2-9.4,60,60,0,1,1,21,21A12.2,12.2,0,0,0,59.3,153.9Zm152.3,28.7a12,12,0,0,0-1.2,9.4l4.1,14.5L200,202.4a12,12,0,0,0-9.4,1.2,60,60,0,0,1-79.6-17A84.1,84.1,0,0,0,180,104a83,83,0,0,0-.5-8.7,59.9,59.9,0,0,1,32.1,87.3Z"/></svg>