<svg id="Flat" xmlns="http://www.w3.org/2000/svg" viewBox="0 0 256 256">
  <path d="M152.48486,92.485l-87.999,88a12.00033,12.00033,0,0,1-16.9707,0l-44.001-43.998a12.0001,12.0001,0,0,1,16.9707-16.97071l35.51563,35.5127,79.51367-79.51465a12.0001,12.0001,0,0,1,16.9707,16.9707Zm100-16.9707a12.00151,12.00151,0,0,0-16.9707,0l-79.51367,79.51465-7.57422-7.57324a12.0001,12.0001,0,0,0-16.9707,16.9707L147.51514,180.485a12.00033,12.00033,0,0,0,16.9707,0l87.999-88A11.99973,11.99973,0,0,0,252.48486,75.51428Z"/>
</svg>
