<svg id="Flat" xmlns="http://www.w3.org/2000/svg" viewBox="0 0 256 256">
  <path d="M68.60254,51.6322A12.00021,12.00021,0,0,1,68.603,68.60291a83.94928,83.94928,0,0,0-21.75342,37.64062,11.99992,11.99992,0,0,1-23.188-6.18945A107.98,107.98,0,0,1,51.63232,51.6322,12.001,12.001,0,0,1,68.60254,51.6322ZM46.8623,149.74158a11.99986,11.99986,0,0,0-23.18212,6.21094,107.98344,107.98344,0,0,0,27.94873,48.43457A12.0001,12.0001,0,1,0,68.584,187.40076,83.95576,83.95576,0,0,1,46.8623,149.74158Zm102.87208,59.415a83.95461,83.95461,0,0,1-43.47559-.01856,11.99963,11.99963,0,0,0-6.21094,23.18164,107.96724,107.96724,0,0,0,55.91944.0127,11.99965,11.99965,0,1,0-6.23291-23.17578Zm74.105-67.89942a11.9972,11.9972,0,0,0-14.689,8.499,83.947,83.947,0,0,1-21.75293,37.64062,11.99975,11.99975,0,1,0,16.96973,16.9707,107.96977,107.96977,0,0,0,27.97119-48.42187A11.99942,11.99942,0,0,0,223.83936,141.2572Zm-14.70166-34.998a11.99986,11.99986,0,0,0,23.18212-6.21094,107.96882,107.96882,0,0,0-27.94921-48.43457A11.99976,11.99976,0,1,0,187.4165,68.6,83.94426,83.94426,0,0,1,209.1377,106.25916Zm-102.87208-59.416a83.95451,83.95451,0,0,1,43.47559.01856,11.99963,11.99963,0,0,0,6.21094-23.18165,107.98139,107.98139,0,0,0-55.91944-.01269,11.99965,11.99965,0,1,0,6.23291,23.17578Z"/>
</svg>
