<svg id="Flat" xmlns="http://www.w3.org/2000/svg" viewBox="0 0 256 256">
  <path d="M229.9873,163.53308a11.90779,11.90779,0,0,0,.47608-1.38367,108.22159,108.22159,0,1,0-33.96924,49.29029,12.02391,12.02391,0,0,0,1.60547-1.33423c.02344-.02344.04272-.04932.06592-.07288A108.37571,108.37571,0,0,0,229.9873,163.53308Zm-40.19482,21.29456L140,135.03516V96.97656l64.85864,64.85864A84.24472,84.24472,0,0,1,189.79248,184.82764ZM140,168.97656l31.09326,31.09326A83.40721,83.40721,0,0,1,140,211.12915ZM212,128c0,2.27124-.1167,4.5144-.29443,6.74072L140,63.03516V44.87085A84.11923,84.11923,0,0,1,212,128ZM44,128a84.11923,84.11923,0,0,1,72-83.12915v166.2583A84.11923,84.11923,0,0,1,44,128Z"/>
</svg>
