<svg id="Flat" xmlns="http://www.w3.org/2000/svg" viewBox="0 0 256 256">
  <path d="M76,28a48,48,0,1,0,48,48A48.05436,48.05436,0,0,0,76,28Zm0,72a24,24,0,1,1,24-24A24.02718,24.02718,0,0,1,76,100Zm104,24a48,48,0,1,0-48-48A48.05436,48.05436,0,0,0,180,124Zm0-72a24,24,0,1,1-24,24A24.02718,24.02718,0,0,1,180,52ZM76,132a48,48,0,1,0,48,48A48.05436,48.05436,0,0,0,76,132Zm0,72a24,24,0,1,1,24-24A24.02718,24.02718,0,0,1,76,204Zm104-72a48,48,0,1,0,48,48A48.05436,48.05436,0,0,0,180,132Zm0,72a24,24,0,1,1,24-24A24.02718,24.02718,0,0,1,180,204Z"/>
</svg>
