<svg id="Flat" xmlns="http://www.w3.org/2000/svg" viewBox="0 0 256 256">
  <path d="M76,28a48,48,0,1,0,48,48A48.05405,48.05405,0,0,0,76,28Zm0,72a24,24,0,1,1,24-24A24.0275,24.0275,0,0,1,76,100Zm104,24a48,48,0,1,0-48-48A48.05405,48.05405,0,0,0,180,124Zm0-72a24,24,0,1,1-24,24A24.0275,24.0275,0,0,1,180,52ZM76,132a48,48,0,1,0,48,48A48.05405,48.05405,0,0,0,76,132Zm0,72a24,24,0,1,1,24-24A24.0275,24.0275,0,0,1,76,204Zm144-24a12.00028,12.00028,0,0,1-12,12H192v16a12,12,0,0,1-24,0V192H152a12,12,0,0,1,0-24h16V152a12,12,0,0,1,24,0v16h16A12.00028,12.00028,0,0,1,220,180Z"/>
</svg>
