<svg xmlns="http://www.w3.org/2000/svg" viewBox="0 0 256 256"><path d="M68.6,51.6a12,12,0,0,1,0,17,84.1,84.1,0,0,0-21.7,37.6,12.1,12.1,0,0,1-11.6,9,10.6,10.6,0,0,1-3.1-.5,11.9,11.9,0,0,1-8.5-14.6A107.8,107.8,0,0,1,51.6,51.6,12.2,12.2,0,0,1,68.6,51.6ZM46.9,149.7A12,12,0,0,0,23.7,156a108.8,108.8,0,0,0,27.9,48.4,12.2,12.2,0,0,0,8.5,3.5,12,12,0,0,0,8.5-20.5A83.7,83.7,0,0,1,46.9,149.7Zm102.8,59.5a83,83,0,0,1-43.4-.1,12,12,0,0,0-14.7,8.5,11.9,11.9,0,0,0,8.4,14.7,107.4,107.4,0,0,0,28.1,3.7,105.3,105.3,0,0,0,27.9-3.7,12,12,0,0,0-6.3-23.1Zm74.1-67.9a11.9,11.9,0,0,0-14.6,8.5,84.6,84.6,0,0,1-21.8,37.6,12,12,0,0,0,8.5,20.5,12.2,12.2,0,0,0,8.5-3.5A108,108,0,0,0,232.3,156,12,12,0,0,0,223.8,141.3Zm-14.7-35a12.2,12.2,0,0,0,11.6,8.9,15.5,15.5,0,0,0,3.1-.4,12.1,12.1,0,0,0,8.5-14.7,108.6,108.6,0,0,0-27.9-48.5,12,12,0,0,0-17,17A83.7,83.7,0,0,1,209.1,106.3ZM106.3,46.8a83,83,0,0,1,43.4.1,17.5,17.5,0,0,0,3.2.4A12,12,0,0,0,156,23.7a108.5,108.5,0,0,0-56,0,12,12,0,1,0,6.3,23.1Z"/></svg>