<svg id="Flat" xmlns="http://www.w3.org/2000/svg" viewBox="0 0 256 256">
  <path d="M228.749,100.04687c-3.51562-3.666-7.15136-7.457-8.33789-10.32421-1.06152-2.56739-1.1416-7.82911-1.21191-12.47071-.15039-9.998-.33887-22.44043-9.17481-31.27636s-21.27832-9.02442-31.27636-9.17481c-4.6416-.07031-9.90332-.15039-12.47071-1.21191-2.86718-1.18653-6.6582-4.82227-10.32324-8.33789C148.86816,20.45605,140.05078,12,128,12c-12.0498,0-20.86816,8.45605-27.95312,15.251-3.666,3.51562-7.457,7.15136-10.32422,8.33789-2.56739,1.06152-7.82911,1.1416-12.47071,1.21191-9.998.15039-22.44043.33887-31.27636,9.17481s-9.02442,21.27832-9.17481,31.27636c-.07031,4.6416-.15039,9.90332-1.21191,12.47071-1.18653,2.86718-4.82227,6.6582-8.33789,10.32324C20.45605,107.13184,12,115.94922,12,128c0,12.0498,8.45605,20.86816,15.251,27.95312,3.51562,3.666,7.15136,7.457,8.33789,10.32422,1.06152,2.56739,1.1416,7.82911,1.21191,12.47071.15039,9.998.33887,22.44043,9.17481,31.27636s21.27832,9.02442,31.27636,9.17481c4.6416.07031,9.90332.15039,12.47071,1.21191,2.86718,1.18653,6.6582,4.82227,10.32324,8.33789C107.13184,235.544,115.94922,244,128,244c12.0498,0,20.86816-8.45605,27.95313-15.251,3.666-3.51562,7.457-7.15136,10.32421-8.33789,2.56739-1.06152,7.82911-1.1416,12.47071-1.21191,9.998-.15039,22.44043-.33887,31.27636-9.17481s9.02442-21.27832,9.17481-31.27636c.07031-4.6416.15039-9.90332,1.21191-12.47071,1.18653-2.86718,4.82227-6.6582,8.33789-10.32324C235.544,148.86816,244,140.05078,244,128,244,115.9502,235.544,107.13184,228.749,100.04687ZM211.42676,139.3418c-4.81738,5.02343-10.27832,10.71777-13.19141,17.75976-2.81445,6.80078-2.92578,14.16309-3.0332,21.28418-.08106,5.36426-.19141,12.71192-2.14844,14.668-1.95605,1.957-9.30371,2.06738-14.668,2.14844-7.12109.10742-14.4834.21875-21.28418,3.0332-7.042,2.91309-12.73633,8.374-17.75976,13.19141C135.78125,214.84082,130.40234,220,128,220s-7.78223-5.15918-11.3418-8.57324c-5.02343-4.81739-10.71777-10.27832-17.75976-13.19141-6.80078-2.81445-14.16309-2.92578-21.28418-3.0332-5.36426-.08106-12.71192-.19141-14.668-2.14844-1.957-1.95605-2.06738-9.30371-2.14844-14.668-.10742-7.12109-.21875-14.4834-3.0332-21.28418-2.91309-7.042-8.374-12.73633-13.19141-17.75976C41.15918,135.78125,36,130.40234,36,128s5.15918-7.78223,8.57324-11.3418c4.81739-5.02343,10.27832-10.71777,13.19141-17.75976,2.81445-6.80078,2.92578-14.16309,3.0332-21.28418.08106-5.36426.19141-12.71192,2.14844-14.668,1.956-1.957,9.30371-2.06738,14.668-2.14844,7.12109-.10742,14.4834-.21875,21.28418-3.0332,7.042-2.91309,12.73633-8.374,17.75976-13.19141C120.21875,41.15918,125.59766,36,128,36s7.78223,5.15918,11.3418,8.57324c5.02343,4.81738,10.71777,10.27832,17.75976,13.19141,6.80078,2.81445,14.16309,2.92578,21.28418,3.0332,5.36426.08106,12.71192.19141,14.668,2.14844,1.957,1.956,2.06738,9.30371,2.14844,14.668.10742,7.12109.21875,14.4834,3.0332,21.28418,2.91309,7.042,8.374,12.73633,13.19141,17.75976C214.84082,120.21875,220,125.59766,220,128S214.84082,135.78223,211.42676,139.3418Zm-30.7461-43.62793a12.0018,12.0018,0,0,1-.39453,16.96679l-58.667,56a12.00208,12.00208,0,0,1-16.57226,0l-29.333-28a12.00058,12.00058,0,0,1,16.57226-17.36132L113.333,143.41016l50.38086-48.09082A12.00355,12.00355,0,0,1,180.68066,95.71387Z"/>
</svg>
