<svg id="Flat" xmlns="http://www.w3.org/2000/svg" viewBox="0 0 256 256">
  <path d="M228.749,100.04688c-3.51562-3.666-7.15136-7.457-8.3374-10.32422-1.0625-2.56739-1.14209-7.82911-1.2124-12.47071-.15088-9.998-.33887-22.44043-9.17481-31.27636s-21.27832-9.02442-31.27636-9.17481c-4.64209-.07031-9.90332-.15039-12.47071-1.21191-2.86718-1.18653-6.6582-4.82227-10.32422-8.33789C148.86816,20.45605,140.05078,12,128.00049,12s-20.86817,8.45605-27.95361,15.251c-3.666,3.51562-7.45655,7.15136-10.32325,8.33691-2.56836,1.0625-7.82959,1.14258-12.47168,1.21289-9.99756.15039-22.44043.33887-31.27636,9.17481s-9.02393,21.27832-9.17481,31.27636c-.07031,4.6416-.1499,9.90332-1.2124,12.47071-1.186,2.86718-4.82178,6.6582-8.3374,10.32422C20.45605,107.13184,12,115.94922,12,128c0,12.0498,8.45605,20.86816,15.251,27.95312,3.51562,3.666,7.15136,7.457,8.3374,10.32422,1.0625,2.56739,1.14209,7.82911,1.2124,12.47071.15088,9.998.33887,22.44043,9.17481,31.27636s21.27832,9.02442,31.27636,9.17481c4.64209.07031,9.90332.15039,12.47071,1.21191,2.86718,1.18653,6.6582,4.82227,10.32422,8.33789C107.13184,235.544,115.94922,244,127.99951,244s20.86817-8.45605,27.95361-15.251c3.666-3.51562,7.45655-7.15136,10.32325-8.33691,2.56836-1.0625,7.82959-1.14258,12.47168-1.21289,9.99756-.15039,22.44043-.33887,31.27636-9.17481s9.02393-21.27832,9.17481-31.27636c.07031-4.6416.1499-9.90332,1.2124-12.47071,1.186-2.86718,4.82178-6.6582,8.3374-10.32422C235.544,148.86816,244,140.05078,244,128,244,115.9502,235.544,107.13184,228.749,100.04688ZM211.42725,139.3418c-4.81787,5.02343-10.27881,10.71777-13.19239,17.75976-2.814,6.80078-2.92529,14.16309-3.03271,21.28418-.08106,5.36426-.1919,12.71192-2.14844,14.668-1.95654,1.957-9.30371,2.06738-14.66846,2.14844-7.1206.10742-14.48339.21875-21.28418,3.0332-7.04248,2.91309-12.73632,8.374-17.76025,13.19141C135.78125,214.84082,130.40186,220,127.99951,220c-2.40185,0-7.78125-5.15918-11.34082-8.57227-5.02392-4.81835-10.71728-10.27929-17.76025-13.19335-6.80078-2.81348-14.16309-2.92481-21.28418-3.03223-5.36426-.08106-12.71192-.19141-14.668-2.14844-1.95654-1.95605-2.06738-9.30371-2.14844-14.668-.10742-7.12109-.21875-14.4834-3.03271-21.28418-2.91358-7.042-8.37452-12.73633-13.19239-17.75976C41.15918,135.78125,36,130.40234,36,128s5.15918-7.78223,8.57275-11.3418c4.81787-5.02343,10.27881-10.71777,13.19239-17.75976,2.814-6.80078,2.92529-14.16309,3.03271-21.28418.08106-5.36426.1919-12.71192,2.14844-14.668,1.95654-1.957,9.30371-2.06738,14.66846-2.14844,7.1206-.10742,14.48339-.21875,21.28418-3.0332,7.04248-2.91309,12.73632-8.374,17.76025-13.19141C120.21875,41.15918,125.59814,36,128.00049,36c2.40185,0,7.78125,5.15918,11.34082,8.57227,5.02392,4.81835,10.71728,10.27929,17.76025,13.19335,6.80078,2.81348,14.16309,2.92481,21.28418,3.03223,5.36426.08106,12.71192.19141,14.668,2.14844,1.95654,1.956,2.06738,9.30371,2.14844,14.668.10742,7.12109.21875,14.4834,3.03271,21.28418,2.91358,7.042,8.37452,12.73633,13.19239,17.75976C214.84082,120.21875,220,125.59766,220,128S214.84082,135.78223,211.42725,139.3418Z"/>
</svg>
