<svg id="Flat" xmlns="http://www.w3.org/2000/svg" viewBox="0 0 256 256">
  <path d="M204.36719,204.36768A107.99986,107.99986,0,1,0,51.63281,51.63232,107.94924,107.94924,0,0,0,128,235.94922a108.77191,108.77191,0,0,0,23.36182-2.53833,11.9853,11.9853,0,0,0,1.85644-.42847A107.35015,107.35015,0,0,0,204.36719,204.36768ZM92.00317,180.9679l30.8147,30.81445a83.70508,83.70508,0,0,1-45.11328-16.516Zm16.97046-16.97083L128,144.9707l50.29541,50.2959a83.325,83.325,0,0,1-25.19067,12.86109Zm86.30371-86.3042a83.20644,83.20644,0,0,1,16.5503,45.15833L180.97339,91.99683Zm-31.27441,31.27478L208.17725,153.142a83.10639,83.10639,0,0,1-12.89991,25.16516L144.9707,128ZM68.60352,68.603a84.10194,84.10194,0,0,1,109.69189-7.86939L83.52026,155.50928l-.00268.00244-.00244.00268L60.72266,178.30713A84.01329,84.01329,0,0,1,68.60352,68.603Z"/>
</svg>
