<svg id="Flat" xmlns="http://www.w3.org/2000/svg" viewBox="0 0 256 256">
  <path d="M200,28H165.46973a51.8744,51.8744,0,0,0-74.93946,0H56A20.02229,20.02229,0,0,0,36,48V216a20.02229,20.02229,0,0,0,20,20H200a20.02229,20.02229,0,0,0,20-20V48A20.02229,20.02229,0,0,0,200,28ZM155.71484,60H100.28516a28.00234,28.00234,0,0,1,55.42968,0ZM196,212H60V52H77.41309A51.91312,51.91312,0,0,0,76,64v8A12.00028,12.00028,0,0,0,88,84h80a12.00028,12.00028,0,0,0,12-12V64a51.91312,51.91312,0,0,0-1.41309-12H196Z"/>
</svg>
