<svg xmlns="http://www.w3.org/2000/svg" viewBox="0 0 256 256"><path d="M172,156a12,12,0,0,1-12,12H96a12,12,0,0,1,0-24h64A12,12,0,0,1,172,156Zm-12-52H96a12,12,0,0,0,0,24h64a12,12,0,0,0,0-24Zm60-56V216a20.1,20.1,0,0,1-20,20H56a20.1,20.1,0,0,1-20-20V48A20.1,20.1,0,0,1,56,28H90.5a51.9,51.9,0,0,1,75,0H200A20.1,20.1,0,0,1,220,48ZM128,36a27.9,27.9,0,0,0-27.7,24h55.4A27.9,27.9,0,0,0,128,36Zm68,16H178.6A53.2,53.2,0,0,1,180,64v8a12,12,0,0,1-12,12H88A12,12,0,0,1,76,72V64a53.2,53.2,0,0,1,1.4-12H60V212H196Z"/></svg>