<svg id="Flat" xmlns="http://www.w3.org/2000/svg" viewBox="0 0 256 256">
  <path d="M172,156a12.00028,12.00028,0,0,1-12,12H96a12,12,0,0,1,0-24h64A12.00028,12.00028,0,0,1,172,156Zm-12-52H96a12,12,0,0,0,0,24h64a12,12,0,0,0,0-24Zm60-56V216a20.02229,20.02229,0,0,1-20,20H56a20.02229,20.02229,0,0,1-20-20V48A20.02229,20.02229,0,0,1,56,28H90.53027a51.8744,51.8744,0,0,1,74.93946,0H200A20.02229,20.02229,0,0,1,220,48ZM128,36a28.04383,28.04383,0,0,0-27.71484,24h55.42968A28.04383,28.04383,0,0,0,128,36Zm68,16H178.58691A51.91312,51.91312,0,0,1,180,64v8a12.00028,12.00028,0,0,1-12,12H88A12.00028,12.00028,0,0,1,76,72V64a51.91312,51.91312,0,0,1,1.41309-12H60V212H196Z"/>
</svg>
