<svg xmlns="http://www.w3.org/2000/svg" viewBox="0 0 256 256"><path d="M140,80v41.1l35.6,20.5A12.1,12.1,0,0,1,180,158a12.2,12.2,0,0,1-10.4,6,11.7,11.7,0,0,1-6-1.6l-41.6-24-.3-.2-.6-.4-.4-.3-.5-.4-.5-.4-.3-.4-.5-.5-.3-.3-.4-.6-.3-.4-.3-.5-.3-.5-.2-.5-.3-.6c0-.2-.1-.3-.1-.5a1.4,1.4,0,0,1-.2-.6l-.2-.5c0-.2-.1-.4-.1-.6s-.1-.4-.1-.6V129a1.5,1.5,0,0,1-.1-.7V80a12,12,0,0,1,24,0Zm86.5,31.5.6-.2h.6l.5-.2.6-.2.5-.2.5-.3.5-.3.5-.3.5-.4.5-.3a3,3,0,0,0,.8-.8h.1l.7-.9.4-.4.3-.5.4-.5.2-.5.3-.6.3-.5a.8.8,0,0,1,.2-.5c0-.2.1-.4.1-.6s.1-.4.2-.5.1-.4.1-.6a2,2,0,0,0,.1-.7.9.9,0,0,0,.1-.5c0-.4.1-.8.1-1.2v-40a12,12,0,1,0-24,0v11L198.7,57.3a100,100,0,1,0,0,141.4,12,12,0,0,0,0-17,12.2,12.2,0,0,0-17,0,75.9,75.9,0,1,1,0-107.4l13.5,13.4h-11a12,12,0,0,0,0,24h42.3Z"/></svg>