<svg id="Flat" xmlns="http://www.w3.org/2000/svg" viewBox="0 0 256 256">
  <path d="M128,20A108,108,0,1,0,236,128,108.12217,108.12217,0,0,0,128,20Zm0,192a84,84,0,1,1,84-84A84.09562,84.09562,0,0,1,128,212Zm68-84a12,12,0,0,1-12,12H156.9707L176.083,159.11279A11.99993,11.99993,0,0,1,159.1123,176.083l-39.59765-39.59766-.001-.001c-.2793-.2793-.54346-.57325-.79394-.87842-.11328-.13819-.21192-.28418-.31836-.42627-.12842-.17139-.26123-.33887-.38037-.51709-.11426-.17041-.21289-.34766-.31739-.52246-.09619-.16114-.19726-.31836-.28613-.48389-.0957-.1792-.17676-.36328-.26318-.54639-.08106-.17187-.167-.34131-.24024-.51757-.07373-.17823-.1333-.35987-.19775-.541-.06787-.18848-.14014-.37451-.19873-.56738-.05469-.18116-.09473-.36524-.14063-.54834-.0498-.19629-.10449-.39014-.14453-.59034-.042-.21191-.06689-.42529-.09717-.63867-.0249-.17431-.0581-.3457-.07568-.522a12.15428,12.15428,0,0,1,0-2.36914c.01758-.17627.05078-.34766.07568-.522.03028-.21338.05518-.42676.09717-.63867.04-.2002.09473-.39405.14453-.59034.0459-.1831.08594-.36718.14063-.54834.05859-.19287.13086-.3789.19873-.56738.06445-.18115.124-.36279.19775-.541.07324-.17626.15918-.3457.24024-.51757.08642-.18311.16748-.36719.26318-.54639.08887-.16553.18994-.32275.28613-.48389.1045-.1748.20313-.352.31739-.52246.11914-.17822.25195-.3457.38037-.51709.10644-.14209.20508-.28808.31836-.42627.25048-.30517.51464-.59912.79394-.87841l.001-.001h0c.27978-.2793.57422-.544.87988-.79492.13623-.11182.27979-.209.41943-.314.17334-.13037.34327-.26416.52393-.38525.16846-.11231.34326-.21.51611-.31348.16309-.09765.32276-.19971.49073-.29.17675-.09424.35839-.17431.53808-.25928.17481-.08251.34717-.16943.52637-.24414.17529-.07226.354-.13086.53174-.19482.1914-.06885.38037-.14209.57666-.20117.17773-.05371.35791-.09326.5376-.13867.1997-.0503.39746-.106.60107-.14649.20654-.041.415-.06494.62256-.09521.17969-.02588.356-.05957.53808-.07764.38575-.03809.77344-.05762,1.16065-.05859L128,116h56A12,12,0,0,1,196,128Z"/>
</svg>
