<svg id="Flat" xmlns="http://www.w3.org/2000/svg" viewBox="0 0 256 256">
  <path d="M216,36H40A20.02229,20.02229,0,0,0,20,56V200a20.02229,20.02229,0,0,0,20,20H216a20.02229,20.02229,0,0,0,20-20V56A20.02229,20.02229,0,0,0,216,36Zm-4,160H44V60H212ZM60,128a40.0112,40.0112,0,0,1,58.58105-35.42969,12.00025,12.00025,0,1,1-11.15625,21.25A15.80713,15.80713,0,0,0,100,112a16,16,0,0,0,0,32,15.79655,15.79655,0,0,0,7.42285-1.82031,12.0003,12.0003,0,0,1,11.16016,21.248A40.00977,40.00977,0,0,1,60,128Zm72,0a40.0112,40.0112,0,0,1,58.58105-35.42969,12.00025,12.00025,0,1,1-11.15625,21.25A15.80713,15.80713,0,0,0,172,112a16,16,0,0,0,0,32,15.79655,15.79655,0,0,0,7.42285-1.82031,12.0003,12.0003,0,0,1,11.16016,21.248A40.00977,40.00977,0,0,1,132,128Z"/>
</svg>
