<svg id="Flat" xmlns="http://www.w3.org/2000/svg" viewBox="0 0 256 256">
  <path d="M216,36H40A20.02229,20.02229,0,0,0,20,56V200a20.02229,20.02229,0,0,0,20,20H216a20.02229,20.02229,0,0,0,20-20V56A20.02229,20.02229,0,0,0,216,36Zm-4,160H44V60H212ZM56,128a39.99988,39.99988,0,0,1,68.57129-27.99414,12,12,0,1,1-17.14258,16.79687,16,16,0,1,0,0,22.39454,12,12,0,1,1,17.14258,16.79687A39.99988,39.99988,0,0,1,56,128Zm72,0a39.99988,39.99988,0,0,1,68.57129-27.99414,12,12,0,1,1-17.14258,16.79687,16,16,0,1,0,0,22.39454,12,12,0,1,1,17.14258,16.79687A39.99988,39.99988,0,0,1,128,128Z"/>
</svg>
