<svg xmlns="http://www.w3.org/2000/svg" viewBox="0 0 256 256"><path d="M216,36H40A20.1,20.1,0,0,0,20,56V200a20.1,20.1,0,0,0,20,20H216a20.1,20.1,0,0,0,20-20V56A20.1,20.1,0,0,0,216,36Zm-4,160H44V60H212ZM60,128a40,40,0,0,1,58.6-35.4,12,12,0,1,1-11.2,21.2A15.9,15.9,0,0,0,100,112a16,16,0,0,0,0,32,15.9,15.9,0,0,0,7.4-1.8,12,12,0,0,1,11.2,21.2A40,40,0,0,1,60,128Zm72,0a40,40,0,0,1,58.6-35.4,12,12,0,1,1-11.2,21.2A15.9,15.9,0,0,0,172,112a16,16,0,0,0,0,32,15.9,15.9,0,0,0,7.4-1.8,12,12,0,0,1,11.2,21.2A40,40,0,0,1,132,128Z"/></svg>