<svg id="Flat" xmlns="http://www.w3.org/2000/svg" viewBox="0 0 256 256">
  <path d="M252,128a91.29365,91.29365,0,0,1-36.792,73.59961A12,12,0,1,1,200.794,182.41016,68.00187,68.00187,0,1,0,92,128a12,12,0,0,1-24,0,91.97554,91.97554,0,0,1,2.18579-19.9541A43.99567,43.99567,0,0,0,72,196h64a12,12,0,0,1,0,24H72A68,68,0,1,1,79.02319,84.36719,91.98866,91.98866,0,0,1,252,128Zm-88,4a16,16,0,1,0-16,16A16.00008,16.00008,0,0,0,164,132Zm-40,40a16,16,0,1,0,16-16A16.00008,16.00008,0,0,0,124,172Zm56-24a16,16,0,1,0,16,16A16.00008,16.00008,0,0,0,180,148Zm-8,40a16,16,0,1,0,16,16A16.00008,16.00008,0,0,0,172,188Z"/>
</svg>
