<svg xmlns="http://www.w3.org/2000/svg" viewBox="0 0 256 256"><path d="M156,68h-1A75.8,75.8,0,0,0,97.1,5.9,12.1,12.1,0,0,0,85.9,9.1a12.2,12.2,0,0,0-3.2,11.2A50.6,50.6,0,0,1,84,32,52,52,0,0,1,32,84a50.6,50.6,0,0,1-11.7-1.3A12.2,12.2,0,0,0,9.1,85.9,12.1,12.1,0,0,0,5.9,97.1a75.5,75.5,0,0,0,25.4,41.2A56,56,0,0,0,76,228h80a80,80,0,0,0,0-160ZM107.9,36a52,52,0,0,1,23.5,35.9,80.4,80.4,0,0,0-48.9,44.5A46.3,46.3,0,0,0,76,116a55.3,55.3,0,0,0-26,6.4,50.5,50.5,0,0,1-13.9-14.5A76.1,76.1,0,0,0,107.9,36ZM156,204H76a32,32,0,0,1,0-64h.4a70.3,70.3,0,0,0-.4,8,12,12,0,0,0,24,0,56,56,0,1,1,56,56Z"/></svg>