<svg xmlns="http://www.w3.org/2000/svg" viewBox="0 0 256 256"><path d="M202.8,192.4h-.1L100,79.4c0-.1,0-.1-.1-.1l-43-47.4A12,12,0,0,0,39.1,48.1L71.8,84A68,68,0,0,0,72,220h88a93.4,93.4,0,0,0,30.7-5.2l8.4,9.3a12.1,12.1,0,0,0,17,.8,12.1,12.1,0,0,0,.8-17ZM160,196H72a44,44,0,0,1-1.8-88A96.5,96.5,0,0,0,68,128a12,12,0,0,0,24,0,66.3,66.3,0,0,1,2.7-18.8l77.8,85.6A64.6,64.6,0,0,1,160,196Zm92-68a91.6,91.6,0,0,1-17.5,54,11.9,11.9,0,0,1-9.7,5,12.3,12.3,0,0,1-7.1-2.3,12,12,0,0,1-2.6-16.8,68,68,0,0,0-89.6-98.5,11.9,11.9,0,0,1-16.4-4.2,12.1,12.1,0,0,1,4.2-16.5A92,92,0,0,1,252,128Z"/></svg>