<svg id="Flat" xmlns="http://www.w3.org/2000/svg" viewBox="0 0 256 256">
  <path d="M164.28271,206.584l-26.25,40a12.00017,12.00017,0,0,1-20.06542-13.168l26.25-40a12.00017,12.00017,0,0,1,20.06542,13.168ZM236,92a80.09041,80.09041,0,0,1-80,80H136.72852l-27.94581,42.584a12.00017,12.00017,0,0,1-20.06542-13.168L108.02161,172H76A56,56,0,1,1,82.51709,60.376,79.99925,79.99925,0,0,1,236,92Zm-24,0a56,56,0,0,0-112,0,12,12,0,0,1-24,0q0-4.04663.39648-7.99756Q76.19874,84.00025,76,84a32,32,0,0,0,0,64h80A56.06353,56.06353,0,0,0,212,92Z"/>
</svg>
