<svg xmlns="http://www.w3.org/2000/svg" viewBox="0 0 256 256"><path d="M156,68a79.9,79.9,0,0,0-18.4,2.2,75.8,75.8,0,0,0-6-7.5l7.5-10.8a12,12,0,1,0-19.6-13.8l-7.6,10.8A60.3,60.3,0,0,0,89.6,44L87.3,31a12,12,0,1,0-23.6,4.2l2.3,13A59.1,59.1,0,0,0,46.7,60.4L35.9,52.9A12,12,0,1,0,22.1,72.5l10.8,7.6A60.8,60.8,0,0,0,28,102.4l-13,2.3a12,12,0,0,0,2.1,23.8l2.1-.2,13-2.3a68.9,68.9,0,0,0,3.4,7.3A55.9,55.9,0,0,0,76,228h80a80,80,0,0,0,0-160Zm-74.5.6h.4a36.1,36.1,0,0,1,26.2,5.6l.5.4.7.4a38.7,38.7,0,0,1,5.2,4.7,80.7,80.7,0,0,0-32,36.8A46.3,46.3,0,0,0,76,116a56.8,56.8,0,0,0-20.3,3.8,33.5,33.5,0,0,1-3.1-9.4c0-.1,0-.1-.1-.2V110a35.7,35.7,0,0,1,5.9-26.5c0-.1.1-.1.1-.2h.1A35.6,35.6,0,0,1,81.5,68.6ZM156,204H76a32,32,0,0,1,0-64h.4a70.3,70.3,0,0,0-.4,8,12,12,0,0,0,24,0,56,56,0,1,1,56,56Z"/></svg>