<svg id="Flat" xmlns="http://www.w3.org/2000/svg" viewBox="0 0 256 256">
  <path d="M160,36A92.084,92.084,0,0,0,79.02441,84.36035,68.00163,68.00163,0,1,0,72,220h88a92,92,0,0,0,0-184Zm0,160H72a44.00025,44.00025,0,0,1-1.81885-87.96289A92.00675,92.00675,0,0,0,68,128a12,12,0,0,0,24,0,68,68,0,1,1,68,68Zm40.48535-88.48535a12.00062,12.00062,0,0,1,0,16.9707l-48,48a12.00033,12.00033,0,0,1-16.9707,0l-24-24a12.0001,12.0001,0,1,1,16.9707-16.9707L144,147.0293l39.51465-39.51465A11.99973,11.99973,0,0,1,200.48535,107.51465Z"/>
</svg>
