<svg id="Flat" xmlns="http://www.w3.org/2000/svg" viewBox="0 0 256 256">
  <path d="M156,68a79.905,79.905,0,0,0-18.442,2.15356,59.73456,59.73456,0,0,0-5.99572-7.4602l7.55151-10.78418a11.99975,11.99975,0,1,0-19.65918-13.76563l-7.54968,10.7815a59.83513,59.83513,0,0,0-22.29944-4.91846L87.314,31.01074a12.00021,12.00021,0,0,0-23.63574,4.168L65.967,48.16016A59.28318,59.28318,0,0,0,46.70923,60.4248L35.90869,52.8623A12.00015,12.00015,0,0,0,22.14307,72.52246l10.79712,7.56006A59.29089,59.29089,0,0,0,27.996,102.3728l-12.98474,2.28931a11.99965,11.99965,0,1,0,4.167,23.63477l12.99292-2.29078A59.9689,59.9689,0,0,0,35.6106,133.27,55.95691,55.95691,0,0,0,76,228h80a80,80,0,0,0,0-160Zm-74.46545.57593c.07092-.01123.14148-.01538.21252-.02808.06567-.01147.12744-.03149.19263-.04394a35.96138,35.96138,0,0,1,26.20373,5.62939c.1637.12744.31946.262.49134.38232.2052.14356.41552.27393.62634.40308a35.81626,35.81626,0,0,1,5.26086,4.70752A80.513,80.513,0,0,0,82.5166,116.376,56.5186,56.5186,0,0,0,76,116a55.69078,55.69078,0,0,0-20.32983,3.83594,36.10864,36.10864,0,0,1-3.10083-9.43457c-.00928-.05762-.01123-.115-.02149-.17285-.01111-.063-.03027-.12232-.04223-.18482A35.75171,35.75171,0,0,1,58.40479,83.48c.03515-.04858.07641-.08984.11083-.13916.03858-.05518.06861-.11353.10621-.16919A35.74969,35.74969,0,0,1,81.53455,68.57593ZM156,204H76a32,32,0,0,1,0-64c.13232,0,.26465.001.39648.00195Q76.00318,143.94679,76,148a12,12,0,0,0,24,0,56,56,0,1,1,56,56Z"/>
</svg>
