<svg id="Flat" xmlns="http://www.w3.org/2000/svg" viewBox="0 0 256 256">
  <path d="M156,172A80,80,0,1,0,82.51709,60.376,56.00213,56.00213,0,1,0,76,172h32.02148L93.96729,193.416A12.00008,12.00008,0,0,0,104,212h28.022l-14.05468,21.416a12.00017,12.00017,0,1,0,20.06542,13.168l26.25-40A12.00008,12.00008,0,0,0,154.25,188H126.228l10.50024-16ZM44,116A32.03635,32.03635,0,0,1,76,84q.19848,0,.39648.00244Q76.00318,87.94726,76,92a12,12,0,0,0,24,0,56,56,0,1,1,56,56H76A32.03635,32.03635,0,0,1,44,116Z"/>
</svg>
