<svg id="Flat" xmlns="http://www.w3.org/2000/svg" viewBox="0 0 256 256">
  <path d="M194.42627,165.57373a12.00064,12.00064,0,0,1,0,16.9707l-33.94092,33.94092-.02368.02149q-.40833.40612-.85474.77246c-.142.1167-.29174.21826-.43762.32739-.1676.12524-.33154.25513-.50574.37183-.17236.11523-.35107.21508-.52783.32055-.15918.09522-.31494.19507-.479.283-.18006.09644-.36524.17822-.54907.26465-.17115.08057-.33936.166-.5149.239-.179.074-.36181.13379-.54345.19873-.18775.06763-.37305.13965-.56519.19776-.18091.05469-.36475.095-.54773.14087-.1969.04956-.39123.10473-.59167.14453-.20948.0415-.4209.06592-.632.09619-.17639.02539-.3501.05908-.52893.07642C152.79028,219.979,152.39526,220,152,220s-.79028-.021-1.18384-.05981c-.17883-.01734-.35254-.051-.52893-.07642-.21106-.03027-.42248-.05469-.632-.09619-.20044-.0398-.39477-.095-.59167-.14453-.183-.0459-.36682-.08618-.54773-.14087-.19214-.05811-.37744-.13013-.56519-.19776-.18164-.06494-.3645-.12475-.54345-.19873-.17554-.073-.34375-.15844-.5149-.239-.18383-.08643-.369-.16821-.54907-.26465-.16406-.08789-.31982-.18774-.479-.283-.17676-.10547-.35547-.20532-.52783-.32055-.1742-.1167-.33814-.24659-.50574-.37183-.14588-.10913-.29566-.21069-.43762-.32739q-.44568-.36585-.85474-.77246l-.02368-.02149-33.94092-33.94092a12.0001,12.0001,0,1,1,16.9707-16.9707L140,179.0293V128a12,12,0,0,1,24,0v51.0293l13.45557-13.45557A11.99975,11.99975,0,0,1,194.42627,165.57373ZM160,36A92.08045,92.08045,0,0,0,79.02319,84.3667,67.99856,67.99856,0,1,0,72,220H96a12,12,0,0,0,0-24H72a43.99567,43.99567,0,0,1-1.81421-87.9541A91.97389,91.97389,0,0,0,68,128a12,12,0,0,0,24,0,68,68,0,1,1,122.4082,40.79688,11.9999,11.9999,0,1,0,19.18848,14.415A92.00561,92.00561,0,0,0,160,36Z"/>
</svg>
