<svg id="Flat" xmlns="http://www.w3.org/2000/svg" viewBox="0 0 256 256">
  <path d="M156,68c-.325,0-.64636.0144-.97034.01831A75.9604,75.9604,0,0,0,97.063,5.92578,12.00028,12.00028,0,0,0,82.68262,20.30664,52.05624,52.05624,0,0,1,32,84a52.4666,52.4666,0,0,1-11.69727-1.31641A12.00009,12.00009,0,0,0,5.92578,97.06543,75.86812,75.86812,0,0,0,31.2854,138.33008,55.9673,55.9673,0,0,0,76,228h80a80,80,0,0,0,0-160ZM107.894,36.03516a51.61684,51.61684,0,0,1,23.46082,35.86157A80.41,80.41,0,0,0,82.5166,116.376,56.5186,56.5186,0,0,0,76,116a55.64122,55.64122,0,0,0-26.04517,6.44775A52.08543,52.08543,0,0,1,36.09131,107.8916,76.11136,76.11136,0,0,0,107.894,36.03516ZM156,204H76a32,32,0,0,1,0-64c.13232,0,.26465.001.39648.00195Q76.00318,143.94679,76,148a12,12,0,0,0,24,0,56,56,0,1,1,56,56Z"/>
</svg>
