<svg xmlns="http://www.w3.org/2000/svg" viewBox="0 0 256 256"><path d="M194.4,165.6a11.9,11.9,0,0,1,0,16.9l-33.9,34a12.1,12.1,0,0,1-17,0l-33.9-34a12,12,0,0,1,16.9-16.9L140,179V128a12,12,0,0,1,24,0v51l13.5-13.4A11.9,11.9,0,0,1,194.4,165.6ZM160,36A92.1,92.1,0,0,0,79,84.4a53.7,53.7,0,0,0-7-.4,68,68,0,0,0,0,136H96a12,12,0,0,0,0-24H72a44,44,0,0,1-1.8-88A94.3,94.3,0,0,0,68,128a12,12,0,0,0,24,0,68,68,0,0,1,136,0,67.2,67.2,0,0,1-13.6,40.8,12,12,0,0,0,2.4,16.8A12.2,12.2,0,0,0,224,188a11.9,11.9,0,0,0,9.6-4.8A92,92,0,0,0,160,36Z"/></svg>