<svg id="Flat" xmlns="http://www.w3.org/2000/svg" viewBox="0 0 256 256">
  <path d="M252,128a91.29433,91.29433,0,0,1-36.792,73.59961A12,12,0,1,1,200.794,182.41016,68.00187,68.00187,0,1,0,92,128a12,12,0,0,1-24,0,91.97554,91.97554,0,0,1,2.18579-19.9541A43.99567,43.99567,0,0,0,72,196h64a12,12,0,0,1,0,24H72A68,68,0,1,1,79.02319,84.36719,91.98866,91.98866,0,0,1,252,128Zm-68,27.99219H169.72461l9.417-23.543a12,12,0,0,0-22.2832-8.91406l-16,40A11.99981,11.99981,0,0,0,152,179.99219h14.27539l-9.417,23.543a12,12,0,1,0,22.2832,8.91406l16-40A11.99981,11.99981,0,0,0,184,155.99219Z"/>
</svg>
