<svg id="Flat" xmlns="http://www.w3.org/2000/svg" viewBox="0 0 256 256">
  <path d="M202.78369,192.42236l-.0498-.05468L100.0022,79.36292q-.03663-.04085-.074-.08143L56.87939,31.92773A12.00021,12.00021,0,0,0,39.12061,48.07227l32.6665,35.9331A67.99748,67.99748,0,0,0,72,220h88a91.36463,91.36463,0,0,0,30.657-5.23755l8.46363,9.30982a12.00021,12.00021,0,1,0,17.75878-16.14454ZM160,196H72a43.99551,43.99551,0,0,1-1.80371-87.95422A92.23622,92.23622,0,0,0,68,128a12,12,0,0,0,24,0,68.19969,68.19969,0,0,1,2.65918-18.83521l77.87866,85.66651A68.49757,68.49757,0,0,1,160,196Zm92-68a91.85009,91.85009,0,0,1-23.37061,61.271A12.00011,12.00011,0,1,1,210.731,173.28174,68.00387,68.00387,0,0,0,119.74463,73.189,11.99991,11.99991,0,0,1,105.52,53.85889,92.00672,92.00672,0,0,1,252,128Z"/>
</svg>
