<svg xmlns="http://www.w3.org/2000/svg" viewBox="0 0 256 256"><path d="M252,128a91.4,91.4,0,0,1-18.4,55.2A11.9,11.9,0,0,1,224,188a12.2,12.2,0,0,1-7.2-2.4,12,12,0,0,1-2.4-16.8A67.2,67.2,0,0,0,228,128a68,68,0,0,0-136,0,12,12,0,0,1-24,0,94.3,94.3,0,0,1,2.2-20A44,44,0,0,0,72,196H96a12,12,0,0,1,0,24H72A68,68,0,0,1,72,84a53.7,53.7,0,0,1,7,.4A92,92,0,0,1,252,128Zm-91.5-8.5a12,12,0,0,0-17,0l-33.9,34a12,12,0,0,0,16.9,16.9L140,157v51a12,12,0,0,0,24,0V157l13.5,13.4a12,12,0,0,0,16.9,0,11.9,11.9,0,0,0,0-16.9Z"/></svg>