<svg id="Flat" xmlns="http://www.w3.org/2000/svg" viewBox="0 0 256 256">
  <path d="M252,127.98438a91.22475,91.22475,0,0,1-18.40332,55.21191,11.99991,11.99991,0,1,1-19.18848-14.415A68.002,68.002,0,1,0,92,127.98438a12,12,0,0,1-24,0,91.974,91.974,0,0,1,2.18579-19.95411A43.99568,43.99568,0,0,0,72,195.98438H96a12,12,0,0,1,0,24H72A68,68,0,1,1,79.02319,84.35107,91.98883,91.98883,0,0,1,252,127.98438ZM160.48535,119.499l-.02344-.021q-.40869-.40686-.85522-.7732c-.14185-.1167-.2915-.218-.43726-.3269-.1676-.12549-.3313-.25537-.50549-.37183-.17371-.11621-.35413-.217-.53259-.32348-.1576-.094-.31165-.19312-.47388-.28-.18213-.09741-.36926-.17993-.55518-.26734-.16918-.07983-.3352-.16406-.50854-.23608-.18188-.07544-.36768-.13623-.55225-.20215-.18481-.06616-.36694-.13721-.55566-.19433-.18652-.0564-.376-.0979-.56445-.14527-.19117-.04785-.37964-.10156-.57422-.14013-.21973-.04346-.44141-.06983-.66272-.10108-.16626-.02344-.32971-.05542-.49817-.072a12.0756,12.0756,0,0,0-2.37256,0c-.16846.0166-.33191.04858-.49817.072-.22131.03125-.443.05762-.66272.10108-.19458.03857-.383.09228-.57422.14013-.18847.04737-.37793.08887-.56445.14527-.189.05737-.37158.12817-.5564.19458-.18432.06591-.36963.12646-.55127.20166-.17358.072-.34008.15673-.50952.23657-.18554.08716-.37256.16968-.55444.26709-.16223.08691-.31628.186-.47388.28-.17846.10644-.35888.20727-.53259.32348-.17419.11646-.33789.24634-.50549.37183-.14576.10889-.29541.2102-.43726.3269q-.446.36585-.85522.7732l-.02344.021-33.94092,33.94092a12.0001,12.0001,0,1,0,16.9707,16.9707L140,156.95508v51.0293a12,12,0,0,0,24,0v-51.0293l13.45557,13.45556a12.0001,12.0001,0,1,0,16.9707-16.9707Z"/>
</svg>
