<svg id="Flat" xmlns="http://www.w3.org/2000/svg" viewBox="0 0 256 256">
  <path d="M202.78369,192.42236l-.0498-.05468L100.0022,79.36292q-.03663-.04085-.074-.08143L56.87939,31.92773A12.00021,12.00021,0,0,0,39.12061,48.07227l32.6665,35.9331A67.99748,67.99748,0,0,0,72,220h88a91.36463,91.36463,0,0,0,30.657-5.23755l8.46363,9.30982a12.00021,12.00021,0,1,0,17.75878-16.14454ZM160,196H72a43.99551,43.99551,0,0,1-1.80371-87.95422A92.23622,92.23622,0,0,0,68,128a12,12,0,0,0,24,0,68.19969,68.19969,0,0,1,2.65918-18.83521l77.87866,85.66651A68.49757,68.49757,0,0,1,160,196Zm92-68a91.33021,91.33021,0,0,1-17.52832,54.02783,12,12,0,0,1-19.416-14.10742,68.01434,68.01434,0,0,0-89.56591-98.52734,11.99993,11.99993,0,0,1-12.20118-20.667A92.01947,92.01947,0,0,1,252,128Z"/>
</svg>
