<svg id="Flat" xmlns="http://www.w3.org/2000/svg" viewBox="0 0 256 256">
  <path d="M160,244H96a12.00044,12.00044,0,0,1-11.45361-15.58008l7.02319-22.46972A60.00435,60.00435,0,1,1,69.28345,88.37305a60,60,0,1,1,117.4331,0A60.00313,60.00313,0,1,1,164.43091,205.9502l7.0227,22.46972A12.00044,12.00044,0,0,1,160,244Zm-47.67676-24h31.354l-11.64673-37.26465a12.00021,12.00021,0,0,1,20.5791-11.37305A35.97817,35.97817,0,1,0,171.88086,112.917a12.00392,12.00392,0,0,1-13.11792-18.20508,36,36,0,1,0-61.46509.09961c.05982.09278.11817.18653.17554.28028a12.00183,12.00183,0,0,1-13.24878,17.84961,36.00545,36.00545,0,1,0,19.167,58.41992,12.00018,12.00018,0,0,1,20.5791,11.373Z"/>
</svg>
