<svg id="Flat" xmlns="http://www.w3.org/2000/svg" viewBox="0 0 256 256">
  <path d="M186.7168,88.37305a60,60,0,1,0-117.4336,0A60.00726,60.00726,0,1,0,88.53711,206.69531l-4.33154,23.09278A12.00031,12.00031,0,0,0,96,244h64a12.00031,12.00031,0,0,0,11.79443-14.21191l-4.33154-23.09278A60.0112,60.0112,0,1,0,186.7168,88.37305ZM180,184a35.697,35.697,0,0,1-21.37695-7.03027,12.00007,12.00007,0,0,0-18.92969,11.86035L145.54,220H110.46l5.84668-31.16992a12.00007,12.00007,0,0,0-18.92969-11.86035A36.00127,36.00127,0,1,1,76,112a36.20944,36.20944,0,0,1,8.22461.94141,12.00221,12.00221,0,0,0,13.249-17.84961c-.05761-.09375-.11621-.1875-.17578-.28028a36.00011,36.00011,0,1,1,61.46485-.09961A12.00433,12.00433,0,0,0,171.88086,112.917,36.00466,36.00466,0,1,1,180,184Z"/>
</svg>
