<svg xmlns="http://www.w3.org/2000/svg" viewBox="0 0 256 256"><path d="M236,78.7a19.4,19.4,0,0,0-2.6-9.8c0-.1,0-.1-.1-.2h0a20.5,20.5,0,0,0-7.5-7.4l-88-49.5a20.1,20.1,0,0,0-19.6,0l-88,49.5a20,20,0,0,0-7.5,7.5h-.1a.3.3,0,0,1-.1.2A20,20,0,0,0,20,78.7v98.6a20.2,20.2,0,0,0,10.2,17.5l88,49.5a20.6,20.6,0,0,0,9,2.5h1.7a21.2,21.2,0,0,0,8.9-2.5l88-49.5A20.2,20.2,0,0,0,236,177.3Zm-72,75.2V202l-23.8,13.4.7-80.4L212,94.6v25.3l-41.9,23.6A11.9,11.9,0,0,0,164,153.9ZM85.9,143.5,44,119.9V94.4L116.9,135l-.7,80.6L92,202V153.9A11.9,11.9,0,0,0,85.9,143.5ZM79,61.3l43.1,24.2a11.7,11.7,0,0,0,11.8,0L177,61.3l22.6,12.8-70.7,40.1L56.6,73.9Zm49-27.5,24.5,13.7L128,61.3,103.5,47.5ZM44,147.4l24,13.5v27.6L44,175Zm144,41.1V160.9l24-13.5V175Z"/></svg>