<svg id="Flat" xmlns="http://www.w3.org/2000/svg" viewBox="0 0 256 256">
  <path d="M84,48V16a12,12,0,0,1,24,0V48a12,12,0,0,1-24,0Zm44,12a12,12,0,0,0,12-12V16a12,12,0,0,0-24,0V48A12,12,0,0,0,128,60Zm32,0a12,12,0,0,0,12-12V16a12,12,0,0,0-24,0V48A12,12,0,0,0,160,60Zm96,52v8c0,21.13867-11.57031,37.45947-28.73291,42.42432A76.10234,76.10234,0,0,1,152,228H104a76.08645,76.08645,0,0,1-76-76V80A12,12,0,0,1,40,68H216C239.17773,68,256,86.50488,256,112Zm-52,40V92H52v60a52.059,52.059,0,0,0,52,52h48A52.059,52.059,0,0,0,204,152Zm28-40c0-6.78809-1.69824-11.26953-4-14.2373v36.4746c2.30176-2.96777,4-7.44921,4-14.2373Z"/>
</svg>
