<svg id="Flat" xmlns="http://www.w3.org/2000/svg" viewBox="0 0 256 256">
  <path d="M76,56V24a12,12,0,0,1,24,0V56a12,12,0,0,1-24,0Zm44,12a12,12,0,0,0,12-12V24a12,12,0,0,0-24,0V56A12,12,0,0,0,120,68Zm32,0a12,12,0,0,0,12-12V24a12,12,0,0,0-24,0V56A12,12,0,0,0,152,68Zm100,52v8a44.05538,44.05538,0,0,1-38.62109,43.65918A100.73548,100.73548,0,0,1,193.273,204H208a12,12,0,0,1,0,24H156.8418c-.04395.00049-.08789.00684-.13135.00684-.06543,0-.13037-.00586-.1958-.00684H82.98828c-.02637-.00049-.05224.001-.07861,0H32a12,12,0,0,1,0-24h14.727A100.24608,100.24608,0,0,1,20,136V88A12,12,0,0,1,32,76H208A44.04978,44.04978,0,0,1,252,120Zm-98.02441,84a76.32328,76.32328,0,0,0,39.04492-47.021c.05908-.22754.11621-.45556.188-.67724A75.54828,75.54828,0,0,0,196,136V100H44v36a76.26915,76.26915,0,0,0,42.0249,68ZM228,120a19.96082,19.96082,0,0,0-8-15.96191V136c0,2.76172-.12793,5.50391-.354,8.22656A19.96872,19.96872,0,0,0,228,128Z"/>
</svg>
