<svg id="Flat" xmlns="http://www.w3.org/2000/svg" viewBox="0 0 256 256">
  <path d="M212,76H32A12,12,0,0,0,20,88v48a100.24608,100.24608,0,0,0,26.72705,68H32a12,12,0,0,0,0,24H82.90967c.02637.001.05224-.00049.07861,0h73.52637c.06543.001.13037.00684.1958.00684.04346,0,.0874-.00635.13135-.00684H208a12,12,0,0,0,0-24H193.273a100.73307,100.73307,0,0,0,19.9834-32.03174A44.04341,44.04341,0,0,0,256,128v-8A44.04978,44.04978,0,0,0,212,76ZM86.0249,204A76.26915,76.26915,0,0,1,44,136V100H196v36a75.54828,75.54828,0,0,1-2.7915,20.30176c-.07178.22168-.12891.4497-.188.67724A76.32328,76.32328,0,0,1,153.97559,204ZM232,128a20.02018,20.02018,0,0,1-12.56689,18.55225A99.3072,99.3072,0,0,0,220,136V101.68164A20.02065,20.02065,0,0,1,232,120ZM68,48V24a12,12,0,0,1,24,0V48a12,12,0,0,1-24,0Zm40,0V24a12,12,0,0,1,24,0V48a12,12,0,0,1-24,0Zm40,0V24a12,12,0,0,1,24,0V48a12,12,0,0,1-24,0Z"/>
</svg>
