<svg xmlns="http://www.w3.org/2000/svg" viewBox="0 0 256 256"><path d="M212,76H32A12,12,0,0,0,20,88v48a100.4,100.4,0,0,0,26.7,68H32a12,12,0,0,0,0,24H208a12,12,0,0,0,0-24H193.3a101.5,101.5,0,0,0,20-32A44.1,44.1,0,0,0,256,128v-8A44,44,0,0,0,212,76ZM86,204a76.2,76.2,0,0,1-42-68V100H196v36a75.9,75.9,0,0,1-2.8,20.3c-.1.2-.1.5-.2.7a76.3,76.3,0,0,1-39,47Zm146-76a20.1,20.1,0,0,1-12.6,18.6A94.2,94.2,0,0,0,220,136V101.7A19.9,19.9,0,0,1,232,120ZM68,48V24a12,12,0,0,1,24,0V48a12,12,0,0,1-24,0Zm40,0V24a12,12,0,0,1,24,0V48a12,12,0,0,1-24,0Zm40,0V24a12,12,0,0,1,24,0V48a12,12,0,0,1-24,0Z"/></svg>