<svg id="Flat" xmlns="http://www.w3.org/2000/svg" viewBox="0 0 256 256">
  <path d="M72,56V24a12,12,0,0,1,24,0V56a12,12,0,0,1-24,0Zm48,12a12,12,0,0,0,12-12V24a12,12,0,0,0-24,0V56A12,12,0,0,0,120,68Zm36,0a12,12,0,0,0,12-12V24a12,12,0,0,0-24,0V56A12,12,0,0,0,156,68Zm100,52v8a44.04341,44.04341,0,0,1-42.74365,43.96826A100.73307,100.73307,0,0,1,193.273,204H208a12,12,0,0,1,0,24H156.8418c-.04395.00049-.08789.00684-.13135.00684-.06543,0-.13037-.00586-.1958-.00684H82.98828c-.02637-.00049-.05224.001-.07861,0H32a12,12,0,0,1,0-24h14.727A100.24608,100.24608,0,0,1,20,136V88A12,12,0,0,1,32,76H212A44.04978,44.04978,0,0,1,256,120ZM153.97559,204a76.32328,76.32328,0,0,0,39.04492-47.021c.05908-.22754.11621-.45556.188-.67724A75.54828,75.54828,0,0,0,196,136V100H44v36a76.26915,76.26915,0,0,0,42.0249,68ZM232,120a20.02065,20.02065,0,0,0-12-18.31836V136a99.3072,99.3072,0,0,1-.56689,10.55225A20.02018,20.02018,0,0,0,232,128Z"/>
</svg>
