<svg xmlns="http://www.w3.org/2000/svg" viewBox="0 0 256 256"><path d="M209.4,60.3C188.1,49.6,159.9,44,128,44S67.9,49.6,46.6,60.3,12,87.2,12,104v48c0,16.8,12.6,32.7,34.6,43.7S96.1,212,128,212s60.1-5.6,81.4-16.3S244,168.8,244,152V104C244,87.2,231.4,71.3,209.4,60.3ZM57.4,81.7C75.1,72.9,100.2,68,128,68s52.9,4.9,70.6,13.7C211.8,88.3,220,96.9,220,104s-8.2,15.7-21.4,22.3C180.9,135.1,155.8,140,128,140s-52.9-4.9-70.6-13.7C44.2,119.7,36,111.1,36,104S44.2,88.3,57.4,81.7ZM180,181.4a182.2,182.2,0,0,1-40,6.3v-24a204.3,204.3,0,0,0,40-5.5ZM76,158.2a204.3,204.3,0,0,0,40,5.5v24a182.2,182.2,0,0,1-40-6.3ZM36,152V141.5a89.5,89.5,0,0,0,10.6,6.2l5.4,2.5v21.1C42,165.2,36,158.1,36,152Zm168,19.3V150.2l5.4-2.5a89.5,89.5,0,0,0,10.6-6.2V152C220,158.1,214,165.2,204,171.3Z"/></svg>