<svg xmlns="http://www.w3.org/2000/svg" viewBox="0 0 256 256"><path d="M152,20H104C65.9,20,36,67.4,36,128s29.9,108,68,108h48c38.1,0,68-47.4,68-108S190.1,20,152,20Zm14.3,152a167,167,0,0,0,5.3-32h23.9a133.5,133.5,0,0,1-6.3,32Zm5.3-56a167,167,0,0,0-5.3-32h22.9a133.5,133.5,0,0,1,6.3,32Zm5.6-56h-20a101,101,0,0,0-10-16H152C157.4,44,167.3,46.2,177.2,60ZM74.8,189.8C65.2,173.5,60,151.6,60,128s5.2-45.5,14.8-61.8C86,46.9,97.9,44,104,44s18,2.9,29.2,22.2a99.1,99.1,0,0,1,5.2,10.3.4.4,0,0,0,.1.3c6.2,14.7,9.5,32.4,9.5,51.2s-3.3,36.5-9.5,51.2a.4.4,0,0,0-.1.3,99.1,99.1,0,0,1-5.2,10.3C122,209.1,110.1,212,104,212S86,209.1,74.8,189.8ZM152,212h-4.8a101,101,0,0,0,10-16h20C167.3,209.8,157.4,212,152,212Z"/></svg>