<svg id="Flat" xmlns="http://www.w3.org/2000/svg" viewBox="0 0 256 256">
  <path d="M209.36621,60.2666C188.083,49.625,159.94629,44,128,44S67.917,49.625,46.63379,60.2666C24.62305,71.27148,12,87.21191,12,104v48c0,16.78809,12.623,32.72852,34.63379,43.7334C67.917,206.375,96.05371,212,128,212s60.083-5.625,81.36621-16.2666C231.377,184.72852,244,168.78809,244,152V104C244,87.21191,231.377,71.27148,209.36621,60.2666Zm-152,21.4668C75.07812,72.87695,100.16309,68,128,68s52.92188,4.87695,70.63379,13.7334C211.8125,88.32324,220,96.85547,220,104s-8.1875,15.67676-21.36621,22.2666C180.92188,135.12305,155.83691,140,128,140s-52.92188-4.87695-70.63379-13.7334C44.1875,119.67676,36,111.14453,36,104S44.1875,88.32324,57.36621,81.7334ZM180,181.37891a180.45466,180.45466,0,0,1-40,6.29931V163.72607a209.99647,209.99647,0,0,0,40-5.50878ZM76,158.21729a209.99647,209.99647,0,0,0,40,5.50878v23.95215a180.45466,180.45466,0,0,1-40-6.29931ZM36,152V141.54492a94.14765,94.14765,0,0,0,10.63379,6.18848c1.73828.86914,3.53809,1.69189,5.36621,2.49365v21.07422C42.01025,165.2417,36,158.11426,36,152Zm168,19.30127V150.22705c1.82812-.80176,3.62793-1.62451,5.36621-2.49365A94.14765,94.14765,0,0,0,220,141.54492V152C220,158.11426,213.98975,165.2417,204,171.30127Z"/>
</svg>
