<svg id="Flat" xmlns="http://www.w3.org/2000/svg" viewBox="0 0 256 256">
  <path d="M127.99975,20a108,108,0,1,0,108,108A108.12186,108.12186,0,0,0,127.99975,20Zm0,192a84,84,0,1,1,84-84A84.09562,84.09562,0,0,1,127.99975,212ZM162.947,77.34277,106.56811,99.8877a11.99873,11.99873,0,0,0-6.68652,6.68554l-22.627,56.56836a11.99993,11.99993,0,0,0,15.59863,15.59815l56.56836-22.62745a11.99906,11.99906,0,0,0,6.69531-6.71191L178.55444,92.915A12,12,0,0,0,162.947,77.34277Zm-27.22949,58.40235-25.78125,10.3125,10.31836-25.7959L145.949,109.98779Z"/>
</svg>
