<svg xmlns="http://www.w3.org/2000/svg" viewBox="0 0 256 256"><path d="M109.1,60.1a20.4,20.4,0,0,0-18.5-5.4A19.9,19.9,0,0,0,76.2,67.4L26.6,203.8a19.9,19.9,0,0,0,18.7,26.8,20.9,20.9,0,0,0,6.9-1.2l136.4-49.6a19.9,19.9,0,0,0,12.7-14.4,20.4,20.4,0,0,0-5.4-18.5Zm-3.6,124.4-34-34,8-22,48,48ZM52.1,203.9l10.3-28.5,18.2,18.2Zm100.3-36.5L88.6,103.6l8-22.1,77.9,77.9ZM124,40V16a12,12,0,0,1,24,0V40a12,12,0,0,1-24,0Zm116.5,87.5a12,12,0,0,1,0,17,12.1,12.1,0,0,1-17,0l-16-16a12,12,0,0,1,17-17Zm3.3-40.1-24,8a12.6,12.6,0,0,1-3.8.6,12,12,0,0,1-3.8-23.4l24-8a12,12,0,0,1,7.6,22.8Zm-79.8.7a12,12,0,0,0,12-12h0a17,17,0,0,1,2-7.2c1.3-2.4,3.5-4.9,10-4.9,26.4,0,36-21.5,36-36a12,12,0,0,0-24,0h0a17,17,0,0,1-2,7.2c-1.3,2.4-3.5,4.9-10,4.9-14.5,0-25.7,6.6-31.7,18.6A41.2,41.2,0,0,0,152,76h0A12,12,0,0,0,164,88.1Zm12-12h0Z"/></svg>