<svg id="Flat" xmlns="http://www.w3.org/2000/svg" viewBox="0 0 256 256">
  <path d="M228.43066,111.76758a19.89757,19.89757,0,0,0-16.82714-3.85645,19.99513,19.99513,0,0,1-24.40186-19.28125,19.92083,19.92083,0,0,0-19.82959-19.83105,19.99406,19.99406,0,0,1-19.28223-24.40235,20.01326,20.01326,0,0,0-19.44091-24.39062c-.22559-.001-.44678-.00195-.67188-.00195a107.99982,107.99982,0,1,0,108.01758,107.334v-.001A19.95917,19.95917,0,0,0,228.43066,111.76758Zm-41.0874,75.68262c-32.29883,32.24121-85.18115,32.59375-117.88525.79A83.99965,83.99965,0,0,1,123.84668,44.10352a44.00257,44.00257,0,0,0,39.55078,48.499A44.00432,44.00432,0,0,0,211.897,132.15332,83.31727,83.31727,0,0,1,187.34326,187.4502Zm-20.02954-26.76368a15.99985,15.99985,0,1,1-22.62744,0A15.99941,15.99941,0,0,1,167.31372,160.68652Zm-64-8a15.99985,15.99985,0,1,1-22.62744,0A15.99941,15.99941,0,0,1,103.31372,152.68652Zm-30.62744-33.373a15.99985,15.99985,0,1,1,22.62744,0A15.99963,15.99963,0,0,1,72.68628,119.31348Zm74.62744,16a15.99985,15.99985,0,1,1,0-22.627A15.99977,15.99977,0,0,1,147.31372,135.31348Z"/>
</svg>
