<svg xmlns="http://www.w3.org/2000/svg" viewBox="0 0 256 256"><path d="M76,40V16a12,12,0,0,1,24,0V40a12,12,0,0,1-24,0Zm52,12a12,12,0,0,0,12-12V16a12,12,0,0,0-24,0V40A12,12,0,0,0,128,52Zm40,0a12,12,0,0,0,12-12V16a12,12,0,0,0-24,0V40A12,12,0,0,0,168,52Zm83.2,53.6L224,126v58a36,36,0,0,1-36,36H68a36,36,0,0,1-36-36V126L4.8,105.6A12,12,0,0,1,19.2,86.4L32,96V88A20.1,20.1,0,0,1,52,68H204a20.1,20.1,0,0,1,20,20v8l12.8-9.6a12,12,0,0,1,14.4,19.2ZM200,92H56v92a12,12,0,0,0,12,12H188a12,12,0,0,0,12-12Z"/></svg>