<svg xmlns="http://www.w3.org/2000/svg" viewBox="0 0 256 256"><path d="M228.4,111.8a19.9,19.9,0,0,0-16.8-3.9,20.1,20.1,0,0,1-24.4-19.3,19.8,19.8,0,0,0-19.8-19.8,20.1,20.1,0,0,1-19.3-24.4A20.1,20.1,0,0,0,128.6,20H128a107.9,107.9,0,1,0,76.3,184.4A107,107,0,0,0,236,127.3h0A19.7,19.7,0,0,0,228.4,111.8Zm-41.1,75.7c-32.3,32.2-85.1,32.5-117.8.7A84,84,0,0,1,123.8,44.1a44.1,44.1,0,0,0,39.6,48.5,44.1,44.1,0,0,0,48.5,39.6A83.2,83.2,0,0,1,187.3,187.5Zm-20-26.8a16,16,0,1,1-22.6,0A15.9,15.9,0,0,1,167.3,160.7Zm-64-8a16,16,0,1,1-22.6,0A15.9,15.9,0,0,1,103.3,152.7ZM72.7,119.3a16,16,0,1,1,22.6,0A15.9,15.9,0,0,1,72.7,119.3Zm74.6,16a16,16,0,1,1,0-22.6A15.9,15.9,0,0,1,147.3,135.3Z"/></svg>