<svg id="Flat" xmlns="http://www.w3.org/2000/svg" viewBox="0 0 256 256">
  <path d="M76,40V16a12,12,0,0,1,24,0V40a12,12,0,0,1-24,0Zm52,12a12,12,0,0,0,12-12V16a12,12,0,0,0-24,0V40A12,12,0,0,0,128,52Zm40,0a12,12,0,0,0,12-12V16a12,12,0,0,0-24,0V40A12,12,0,0,0,168,52Zm83.2002,53.6001L224,126v58a36.04061,36.04061,0,0,1-36,36H68a36.04061,36.04061,0,0,1-36-36V126L4.7998,105.6001A12.0002,12.0002,0,0,1,19.2002,86.3999L32,96V88A20.02229,20.02229,0,0,1,52,68H204a20.02229,20.02229,0,0,1,20,20v8l12.7998-9.6001a12.0002,12.0002,0,0,1,14.4004,19.2002ZM200,92H56v92a12.01375,12.01375,0,0,0,12,12H188a12.01375,12.01375,0,0,0,12-12Z"/>
</svg>
