<svg id="Flat" xmlns="http://www.w3.org/2000/svg" viewBox="0 0 256 256">
  <path d="M224,44H32A20.0226,20.0226,0,0,0,12,64V96.73633c-.00037.03906-.00586.07715-.00586.11621s.00549.07715.00586.11621V192a20.0226,20.0226,0,0,0,20,20H224a20.0226,20.0226,0,0,0,20-20V64A20.0226,20.0226,0,0,0,224,44Zm-4,24V84.85254H36V68ZM36,188V108.85254H220V188Zm171.99414-24a12.00028,12.00028,0,0,1-12,12h-32a12,12,0,0,1,0-24h32A12.00028,12.00028,0,0,1,207.99414,164Zm-72,0a12.00028,12.00028,0,0,1-12,12h-16a12,12,0,0,1,0-24h16A12.00028,12.00028,0,0,1,135.99414,164Z"/>
</svg>
