<svg id="Flat" xmlns="http://www.w3.org/2000/svg" viewBox="0 0 256 256">
  <path d="M241.2793,70.4541a19.88374,19.88374,0,0,0-20.88184-2.874L173.1582,88.57617,145.4834,38.76074a20,20,0,0,0-34.9668-.001L82.8418,88.57617l-47.249-21.001A20.00018,20.00018,0,0,0,8.002,90.42676l25.44434,108.333a20.06608,20.06608,0,0,0,24.86523,14.68261,261.8952,261.8952,0,0,1,139.33008-.01367A20.012,20.012,0,0,0,222.5,198.75488L247.98926,90.43652A19.88333,19.88333,0,0,0,241.2793,70.4541ZM56.81055,193.27246l-.002-.00879.00293.00977Zm143.27539-4.04a286.03693,286.03693,0,0,0-144.22071.0127L33.207,92.7793l43.23145,19.21386a19.90169,19.90169,0,0,0,25.60644-8.5625L128,56.71l25.957,46.72266a19.89748,19.89748,0,0,0,25.60547,8.56054l43.21875-19.209Z"/>
</svg>
