<svg id="Flat" xmlns="http://www.w3.org/2000/svg" viewBox="0 0 256 256">
  <path d="M229.44385,70.91211c-.04346-.08008-.07715-.16284-.12256-.24219-.021-.03662-.04639-.06909-.06738-.10547a19.99262,19.99262,0,0,0-7.4126-7.3081L137.84082,15.77783a20.10506,20.10506,0,0,0-19.68213.00049L34.1582,63.25659a19.9915,19.9915,0,0,0-7.46142,7.39527c-.022.03808-.04785.07226-.06983.11084-.03759.06787-.06543.13842-.10205.20654A19.97706,19.97706,0,0,0,24,80.66772v94.6648a20.03168,20.03168,0,0,0,10.15918,17.41113l83.999,47.478a19.96651,19.96651,0,0,0,9.06739,2.54883c.21679.01391.43066.03735.65039.03955.04248.00049.084.00049.12695.00049.28418,0,.563-.02271.84277-.04224a19.96643,19.96643,0,0,0,8.99512-2.54663l84.001-47.47852A20.03141,20.03141,0,0,0,232,175.33252V80.66772A19.978,19.978,0,0,0,229.44385,70.91211ZM128,37.78394l67.71973,38.27661-66.72608,38.155-68.5-38.27564ZM48,96.45166l68.98877,38.54883-.79053,76.54492L48,172.99854Zm92.20166,114.86743.78857-76.3164L208,96.6853v76.31324Z"/>
</svg>
