<svg id="Flat" xmlns="http://www.w3.org/2000/svg" viewBox="0 0 256 256">
  <path d="M195.39746,186.42676a11.99916,11.99916,0,0,1,0,16.97021A83.99314,83.99314,0,0,1,53.54688,160H40a12,12,0,0,1,0-24H52V120H40a12,12,0,0,1,0-24H53.54688A83.99314,83.99314,0,0,1,195.39746,52.603a12.00027,12.00027,0,0,1-16.9707,16.97119A59.99088,59.99088,0,0,0,78.18311,96H136a12,12,0,0,1,0,24H76v16h44a12,12,0,0,1,0,24H78.18311a59.99088,59.99088,0,0,0,100.24365,26.42578A11.99975,11.99975,0,0,1,195.39746,186.42676Z"/>
</svg>
