<svg id="Flat" xmlns="http://www.w3.org/2000/svg" viewBox="0 0 256 256">
  <path d="M177.0752,114.45508A47.97721,47.97721,0,0,0,152,37.51855V24a12,12,0,0,0-24,0V35.999l-16-.00146V24a12,12,0,0,0-24,0V35.99561l-8.00488-.00049h-16.001a12,12,0,0,0,0,24h4v128h-4a12,12,0,0,0,0,24h15.999L88,211.99561V224a12,12,0,0,0,24,0V211.99707l16,.00147V224a12,12,0,0,0,24,0V212a51.99383,51.99383,0,0,0,25.0752-97.54492ZM164,84a24.0275,24.0275,0,0,1-24,24H91.99414V59.99609l7.94141.00049C99.957,59.99707,99.978,60,100,60c.02148,0,.04248-.00293.06445-.00342L140,60A24.0275,24.0275,0,0,1,164,84ZM152.001,188l-60.00684-.00391V132H152a28,28,0,0,1,.001,56Z"/>
</svg>
