<svg id="Flat" xmlns="http://www.w3.org/2000/svg" viewBox="0 0 256 256">
  <path d="M195.97168,35.52441C177.61816,25.51318,153.479,20,128,20S78.38184,25.51318,60.02832,35.52441C39.37451,46.79,28,62.585,28,80v96c0,17.415,11.37451,33.21,32.02832,44.47559C78.38184,230.48682,102.521,236,128,236s49.61816-5.51318,67.97168-15.52441C216.62549,209.21,228,193.415,228,176V80C228,62.585,216.62549,46.79,195.97168,35.52441ZM204,128c0,17.02734-31.21191,36-76,36s-76-18.97266-76-36V119.544a89.62083,89.62083,0,0,0,8.02832,4.93164C78.38184,134.48682,102.521,140,128,140s49.61816-5.51318,67.97168-15.52441A89.62083,89.62083,0,0,0,204,119.544ZM128,44c44.78809,0,76,18.97266,76,36s-31.21191,36-76,36S52,97.02734,52,80,83.21191,44,128,44Zm0,168c-44.78809,0-76-18.97266-76-36V167.544a89.62083,89.62083,0,0,0,8.02832,4.93164C78.38184,182.48682,102.521,188,128,188s49.61816-5.51318,67.97168-15.52441A89.62083,89.62083,0,0,0,204,167.544V176C204,193.02734,172.78809,212,128,212Z"/>
</svg>
