<svg xmlns="http://www.w3.org/2000/svg" viewBox="0 0 256 256"><path d="M196,35.5C177.6,25.5,153.5,20,128,20S78.4,25.5,60,35.5C39.4,46.8,28,62.6,28,80v96c0,17.4,11.4,33.2,32,44.5,18.4,10,42.5,15.5,68,15.5s49.6-5.5,68-15.5c20.6-11.3,32-27.1,32-44.5V80C228,62.6,216.6,46.8,196,35.5Zm8,92.5c0,17-31.2,36-76,36s-76-19-76-36v-8.5a90.3,90.3,0,0,0,8,5c18.4,10,42.5,15.5,68,15.5s49.6-5.5,68-15.5a90.3,90.3,0,0,0,8-5ZM128,44c44.8,0,76,19,76,36s-31.2,36-76,36S52,97,52,80,83.2,44,128,44Zm0,168c-44.8,0-76-19-76-36v-8.5a90.3,90.3,0,0,0,8,5c18.4,10,42.5,15.5,68,15.5s49.6-5.5,68-15.5a90.3,90.3,0,0,0,8-5V176C204,193,172.8,212,128,212Z"/></svg>