<svg xmlns="http://www.w3.org/2000/svg" viewBox="0 0 256 256"><path d="M28,96v68a4,4,0,0,0,4,4h76a12,12,0,0,1,0,24h-8v12h8a12,12,0,0,1,0,24H68a12,12,0,0,1,0-24h8V192H32A28.1,28.1,0,0,1,4,164V96A28.1,28.1,0,0,1,32,68h76a12,12,0,0,1,0,24H32A4,4,0,0,0,28,96Zm152-8h24a12,12,0,0,0,0-24H180a12,12,0,0,0,0,24Zm0,36h24a12,12,0,0,0,0-24H180a12,12,0,0,0,0,24Zm72-76V208a20.1,20.1,0,0,1-20,20H152a20.1,20.1,0,0,1-20-20V48a20.1,20.1,0,0,1,20-20h80A20.1,20.1,0,0,1,252,48Zm-24,4H156V204h72ZM192,160a16,16,0,1,0,16,16A16,16,0,0,0,192,160Z"/></svg>