<svg xmlns="http://www.w3.org/2000/svg" viewBox="0 0 256 256"><path d="M182,144a37.9,37.9,0,0,0-36,26H110a38,38,0,1,0,0,24h36a38,38,0,1,0,36-50ZM74,196a14,14,0,1,1,14-14A14,14,0,0,1,74,196Zm108,0a14,14,0,1,1,14-14A14,14,0,0,1,182,196Zm62-88H222.2L176.5,42.7a19.8,19.8,0,0,0-16.6-8.5,20.1,20.1,0,0,0-16.4,8.9L128,66.4,112.5,43.1a20.1,20.1,0,0,0-16.4-8.9,19.7,19.7,0,0,0-16.6,8.5L33.8,108H12a12,12,0,0,0,0,24H244a12,12,0,0,0,0-24ZM95.8,61.3l15.6,23.4a19.9,19.9,0,0,0,33.2,0l15.6-23.4L193,108H63Z"/></svg>