<svg id="Flat" xmlns="http://www.w3.org/2000/svg" viewBox="0 0 256 256">
  <path d="M192,28H64A36.04061,36.04061,0,0,0,28,64V192a36.04061,36.04061,0,0,0,36,36H192a36.04061,36.04061,0,0,0,36-36V64A36.04061,36.04061,0,0,0,192,28Zm12,164a12.01312,12.01312,0,0,1-12,12H64a12.01312,12.01312,0,0,1-12-12V64A12.01312,12.01312,0,0,1,64,52H192a12.01312,12.01312,0,0,1,12,12Zm-96-64a16,16,0,1,1-16-16A16.00008,16.00008,0,0,1,108,128Zm72-44a16,16,0,1,1-16-16A16.00008,16.00008,0,0,1,180,84Zm0,88a16,16,0,1,1-16-16A16.00008,16.00008,0,0,1,180,172Zm0-44a16,16,0,1,1-16-16A16.00008,16.00008,0,0,1,180,128ZM108,84A16,16,0,1,1,92,68,16.00008,16.00008,0,0,1,108,84Zm0,88a16,16,0,1,1-16-16A16.00008,16.00008,0,0,1,108,172Z"/>
</svg>
