<svg xmlns="http://www.w3.org/2000/svg" viewBox="0 0 256 256"><path d="M112,132a16,16,0,1,1-16-16A16,16,0,0,1,112,132Zm48-16a16,16,0,1,0,16,16A16,16,0,0,0,160,116Zm85,73.6c-17,14.8-39.9,26-66.1,32.4a19.7,19.7,0,0,1-4.8.6,20,20,0,0,1-17.8-11.1l-12-24.2c-5.4.5-10.8.7-16.3.7s-10.9-.2-16.3-.7l-12,24.2a20,20,0,0,1-17.8,11.1,19.7,19.7,0,0,1-4.8-.6C50.9,215.6,28,204.4,11,189.6a20,20,0,0,1-6.1-20.9L38.8,55.4A20.1,20.1,0,0,1,50.4,42.7a195.3,195.3,0,0,1,31.7-9.9,20,20,0,0,1,23.2,13.3l7.5,22.5c5.1-.4,10.1-.6,15.2-.6s10.1.2,15.2.6l7.5-22.5a20,20,0,0,1,23.2-13.3,195.3,195.3,0,0,1,31.7,9.9,20.1,20.1,0,0,1,11.6,12.7l33.9,113.3A20,20,0,0,1,245,189.6ZM227.4,173,194.7,64.1a172.1,172.1,0,0,0-22.4-7l-5,14.8q6.3,1.3,12,3A12,12,0,0,1,176,98.4a9.5,9.5,0,0,1-3.3-.5A167.2,167.2,0,0,0,128,92a167.2,167.2,0,0,0-44.7,5.9,12,12,0,1,1-6.6-23q5.7-1.7,12-3l-5-14.8a172.1,172.1,0,0,0-22.4,7L28.6,173c13.3,11,30.9,19.6,51,24.9l7.2-14.2c-5.5-1.2-10.7-2.7-15.7-4.3a12,12,0,0,1,7.6-22.8c14.5,4.8,31.6,7.4,49.3,7.4s34.8-2.6,49.3-7.4a12,12,0,0,1,7.6,22.8c-5,1.6-10.2,3.1-15.7,4.3l7.2,14.2C196.5,192.6,214.1,184,227.4,173Z"/></svg>