<svg id="Flat" xmlns="http://www.w3.org/2000/svg" viewBox="0 0 256 256">
  <path d="M108,136a16,16,0,1,1-16-16A16.00016,16.00016,0,0,1,108,136Zm56-16a16,16,0,1,0,16,16A16.00016,16.00016,0,0,0,164,120Zm70.37793,27.602a20.3229,20.3229,0,0,1-8.4043,1.8457A19.42225,19.42225,0,0,1,220,148.501V184a44.04978,44.04978,0,0,1-44,44H80a44.04978,44.04978,0,0,1-44-44V148.501a19.42339,19.42339,0,0,1-5.97363.94677,20.3229,20.3229,0,0,1-8.4043-1.8457,19.71265,19.71265,0,0,1-11.40039-21.90088l16.418-87.5664A20.00091,20.00091,0,0,1,51.14941,22.418L105.47656,36h45.04688l54.32812-13.582a19.99959,19.99959,0,0,1,24.50782,15.71484l16.41894,87.56787A19.713,19.713,0,0,1,234.37793,147.60205Zm-61.499-92.45264,46.30175,58.93018L206.55371,46.731ZM36.81934,114.07959,83.12109,55.14941,49.44629,46.731ZM196,184V123.42236L146.16772,60H109.83228L60,123.42285V184a20.0226,20.0226,0,0,0,20,20h36v-7.0293l-12.48535-12.48535a12.0001,12.0001,0,0,1,16.9707-16.9707L128,175.0293l7.51465-7.51465a12.0001,12.0001,0,0,1,16.9707,16.9707L140,196.9707V204h36A20.0226,20.0226,0,0,0,196,184Z"/>
</svg>
