<svg xmlns="http://www.w3.org/2000/svg" viewBox="0 0 256 256"><path d="M108,136a16,16,0,1,1-16-16A16,16,0,0,1,108,136Zm56-16a16,16,0,1,0,16,16A16,16,0,0,0,164,120Zm70.4,27.6a21.2,21.2,0,0,1-8.4,1.8,19.8,19.8,0,0,1-6-.9V184a44,44,0,0,1-44,44H80a44,44,0,0,1-44-44V148.5a19.8,19.8,0,0,1-6,.9,21.2,21.2,0,0,1-8.4-1.8,19.8,19.8,0,0,1-11.4-21.9L26.6,38.1A20.2,20.2,0,0,1,35.5,25a20,20,0,0,1,15.6-2.6L105.5,36h45l54.4-13.6A20,20,0,0,1,220.5,25a20.2,20.2,0,0,1,8.9,13.1l16.4,87.6A19.8,19.8,0,0,1,234.4,147.6ZM172.9,55.1l46.3,59L206.6,46.7Zm-136.1,59,46.3-59L49.4,46.7ZM196,184V123.4L146.2,60H109.8L60,123.4V184a20.1,20.1,0,0,0,20,20h36v-7l-12.5-12.5a12,12,0,0,1,17-17L128,175l7.5-7.5a12,12,0,0,1,17,17L140,197v7h36A20.1,20.1,0,0,0,196,184Z"/></svg>