<svg id="Flat" xmlns="http://www.w3.org/2000/svg" viewBox="0 0 256 256">
  <path d="M188.00049,184a16,16,0,1,1,16-16A16.00016,16.00016,0,0,1,188.00049,184ZM224,116H176a12,12,0,0,0,0,24h44v56H36V140H80a12,12,0,0,0,0-24H32a20.02229,20.02229,0,0,0-20,20v64a20.02229,20.02229,0,0,0,20,20H224a20.02229,20.02229,0,0,0,20-20V136A20.02229,20.02229,0,0,0,224,116ZM119.51465,136.48535c.01855.01856.03906.03369.05762.05225q.394.38892.82128.7417c.14112.11621.29.21728.43555.32617.168.12549.33252.25586.50733.37305.17138.11425.34912.21386.5249.31836.16015.09619.31738.19677.48291.28564.17773.09521.36084.17578.54248.26123.17334.082.34375.16846.52148.24219.17676.07324.35694.13183.53614.19629.18994.06836.37793.14111.57226.20019.17969.0542.36182.09375.543.13965.19824.04981.394.10547.59619.14551.2085.041.41944.06592.62988.09619.17676.02539.35108.05908.53077.07666C127.21,139.979,127.605,140,128,140s.79-.021,1.18359-.05957c.17969-.01758.354-.05127.53077-.07666.21044-.03027.42138-.05518.62988-.09619.20215-.04.39795-.0957.59619-.14551.18115-.0459.36328-.08545.543-.13965.19433-.05908.38183-.13183.57129-.20019.17969-.06446.36035-.12305.53711-.19629.17773-.07373.34765-.16016.521-.2417.18164-.08594.36475-.16651.543-.26172.16553-.08887.32276-.18945.48291-.28564.17578-.1045.35352-.20411.5249-.31836.17481-.11719.33936-.24756.50733-.37305.14551-.10889.29443-.21.43555-.32617q.42846-.35157.82128-.7417c.01856-.01856.03907-.03369.05762-.05225l48-48a12.0001,12.0001,0,0,0-16.9707-16.9707L140,99.0293V24a12,12,0,0,0-24,0V99.0293L88.48535,71.51465a12.0001,12.0001,0,0,0-16.9707,16.9707Z"/>
</svg>
