<svg id="Flat" xmlns="http://www.w3.org/2000/svg" viewBox="0 0 256 256">
  <path d="M71.51465,88.48535a12.0001,12.0001,0,0,1,16.9707-16.9707L116,99.0293V24a12,12,0,0,1,24,0V99.0293l27.51465-27.51465a12.0001,12.0001,0,0,1,16.9707,16.9707l-48,48c-.01855.01856-.03906.03369-.05762.05225q-.394.38892-.82128.7417c-.14112.11621-.29.21728-.43555.32617-.168.12549-.33252.25586-.50733.37305-.17138.11425-.34912.21386-.5249.31836-.16015.09619-.31738.19677-.48291.28564-.17822.09521-.36133.17578-.543.26172-.17334.08154-.34326.168-.521.2417-.17676.07324-.35742.13183-.53711.19629-.18946.06836-.377.14111-.57129.20019-.17969.0542-.36182.09375-.543.13965-.19824.04981-.394.10547-.59619.14551-.2085.041-.41944.06592-.62988.09619-.17676.02539-.35108.05908-.53077.07666C128.79,139.979,128.395,140,128,140s-.79-.021-1.18359-.05957c-.17969-.01758-.354-.05127-.53077-.07666-.21044-.03027-.42138-.05518-.62988-.09619-.20215-.04-.39795-.0957-.59619-.14551-.18115-.0459-.36328-.08545-.543-.13965-.19433-.05908-.38232-.13183-.57226-.20019-.1792-.06446-.35938-.12305-.53614-.19629-.17773-.07373-.34814-.16016-.52148-.24219-.18164-.08545-.36475-.166-.54248-.26123-.16553-.08887-.32276-.18945-.48291-.28564-.17578-.1045-.35352-.20411-.5249-.31836-.17481-.11719-.33936-.24756-.50733-.37305-.14551-.10889-.29443-.21-.43555-.32617q-.42846-.35157-.82128-.7417c-.01856-.01856-.03907-.03369-.05762-.05225ZM204,168a16,16,0,1,0-16,16A16.01833,16.01833,0,0,0,204,168Zm20-52H184.56836a12,12,0,1,0,0,24H220v56H36V140H71.43164a12,12,0,1,0,0-24H32a20.02229,20.02229,0,0,0-20,20v64a20.02229,20.02229,0,0,0,20,20H224a20.02229,20.02229,0,0,0,20-20V136A20.02229,20.02229,0,0,0,224,116Z"/>
</svg>
