<svg id="Flat" xmlns="http://www.w3.org/2000/svg" viewBox="0 0 256 256">
  <path d="M235.9917,128.64254c.00146-.21435.0083-.42773.0083-.64257a107.83375,107.83375,0,0,0-39.77832-83.65918c-.19824-.18506-.39209-.373-.60547-.54688-.27246-.22265-.55566-.42431-.84131-.61914A107.83758,107.83758,0,0,0,81.2998,30.62838a12.0261,12.0261,0,0,0-1.55517.77149,108.37234,108.37234,0,0,0-57.6499,75.39892c-.00782.03907-.02051.07569-.02784.11475-.00732.03711-.00878.07373-.01562.11133A107.94858,107.94858,0,0,0,63.08154,214.25436a12.01182,12.01182,0,0,0,1.73,1.28272c.01465.00927.03028.0166.04492.02539a107.84491,107.84491,0,0,0,98.68946,14.42041,12.03708,12.03708,0,0,0,1.30615-.46094,108.1865,108.1865,0,0,0,71.13623-100.59131C235.98926,128.83444,235.99268,128.73825,235.9917,128.64254Zm-24.85791-12.60595c-1.04346-.01856-2.08692-.03858-3.12793-.03858a172.46492,172.46492,0,0,0-41.38184,5.0625A170.86834,170.86834,0,0,0,155.9751,97.38717a172.15234,172.15234,0,0,0,32.92871-27.147A83.76065,83.76065,0,0,1,211.13379,116.03659Zm-41.1416-60.74024a148.07043,148.07043,0,0,1-26.9751,21.88233,173.23488,173.23488,0,0,0-30.57324-31.71094,83.5603,83.5603,0,0,1,57.54834,9.82861Zm-84.46045.27393a149.05175,149.05175,0,0,1,35.90234,32.874A147.93161,147.93161,0,0,1,64.00586,99.998c-4.99024,0-9.98-.25732-14.93359-.75293A84.45373,84.45373,0,0,1,85.53174,55.57028ZM44,128c0-1.728.06934-3.43946.17236-5.1416a174.1396,174.1396,0,0,0,19.8335,1.13964,171.83148,171.83148,0,0,0,70.84668-15.21533,146.832,146.832,0,0,1,8.9209,19.648,170.34038,170.34038,0,0,0-21.52051,10.4375,173.0968,173.0968,0,0,0-53.68018,48.43994A83.73585,83.73585,0,0,1,44,128Zm43.76807,73.71679a149.0284,149.0284,0,0,1,46.4663-42.05322,146.20235,146.20235,0,0,1,16.01514-7.9458,148.50545,148.50545,0,0,1,2.67334,27.97461,149.05367,149.05367,0,0,1-2.9292,29.3667,83.79744,83.79744,0,0,1-62.22558-7.34229Zm88.29345-4.88574c.56348-5.68359.86133-11.4043.86133-17.13867a172.4881,172.4881,0,0,0-3.7207-35.542,148.49907,148.49907,0,0,1,34.80371-4.15235c1.03808,0,2.07812.01709,3.11865.03858A84.07816,84.07816,0,0,1,176.06152,196.831Z"/>
</svg>
