<svg id="Flat" xmlns="http://www.w3.org/2000/svg" viewBox="0 0 256 256">
  <path d="M236.02686,128.6425c.00146-.21435.0083-.42773.0083-.64258a107.83375,107.83375,0,0,0-39.77832-83.65918c-.19825-.185-.39209-.373-.60547-.54687-.27246-.22266-.55567-.42432-.84131-.61914A107.83753,107.83753,0,0,0,81.335,30.62834a12.0261,12.0261,0,0,0-1.55517.77149,108.37236,108.37236,0,0,0-57.64991,75.39892c-.00781.03906-.0205.07569-.02783.11475-.00732.03711-.00879.07373-.01562.11133A107.94858,107.94858,0,0,0,63.1167,214.25432a12.011,12.011,0,0,0,1.73,1.28271c.01465.00928.03027.0166.04492.02539a107.84489,107.84489,0,0,0,98.68945,14.42041,12.03933,12.03933,0,0,0,1.30616-.46093,108.18651,108.18651,0,0,0,71.13623-100.59131C236.02441,128.8344,236.02783,128.7382,236.02686,128.6425Zm-24.85791-12.606c-1.04346-.01855-2.08692-.03857-3.12793-.03857a172.46492,172.46492,0,0,0-41.38184,5.0625,170.869,170.869,0,0,0-10.64893-23.67334,172.152,172.152,0,0,0,32.92871-27.147A83.76067,83.76067,0,0,1,211.169,116.03654ZM170.02734,55.29631a148.07,148.07,0,0,1-26.97509,21.88232A173.23488,173.23488,0,0,0,112.479,45.4677a83.56011,83.56011,0,0,1,57.54834,9.82861Zm-84.46045.27393a149.05161,149.05161,0,0,1,35.90235,32.874A147.93161,147.93161,0,0,1,64.041,99.998c-4.99024,0-9.98-.25732-14.9336-.75293A84.45374,84.45374,0,0,1,85.56689,55.57024ZM44.03516,127.99992c0-1.728.06933-3.43945.17236-5.1416A174.137,174.137,0,0,0,64.041,123.998a171.83167,171.83167,0,0,0,70.84668-15.21533,146.83016,146.83016,0,0,1,8.92089,19.64795,170.34091,170.34091,0,0,0-21.5205,10.4375A173.09669,173.09669,0,0,0,68.60791,187.308,83.73587,83.73587,0,0,1,44.03516,127.99992Zm43.76806,73.7168a149.02842,149.02842,0,0,1,46.46631-42.05322,146.20146,146.20146,0,0,1,16.01514-7.9458,148.50545,148.50545,0,0,1,2.67334,27.97461,149.05382,149.05382,0,0,1-2.9292,29.3667,83.79761,83.79761,0,0,1-62.22559-7.34229Zm88.29346-4.88574c.56348-5.6836.86133-11.4043.86133-17.13867a172.48759,172.48759,0,0,0-3.72071-35.542A148.49921,148.49921,0,0,1,208.041,139.998c1.03808,0,2.07812.01709,3.11865.03857A84.07823,84.07823,0,0,1,176.09668,196.831Z"/>
</svg>
