<svg xmlns="http://www.w3.org/2000/svg" viewBox="0 0 256 256"><path d="M236,128.6V128a108.2,108.2,0,0,0-39.7-83.7l-.6-.5-.9-.6A107.9,107.9,0,0,0,81.3,30.6l-1.5.8a108.3,108.3,0,0,0-57.7,75.4h0A103.9,103.9,0,0,0,20,128a108.2,108.2,0,0,0,43.1,86.3,10.4,10.4,0,0,0,1.7,1.2h.1A108.1,108.1,0,0,0,163.6,230l1.3-.5A108.2,108.2,0,0,0,236,128.9ZM211.2,116H208a168.1,168.1,0,0,0-41.3,5.1A168.4,168.4,0,0,0,156,97.4a170.7,170.7,0,0,0,32.9-27.2A84.7,84.7,0,0,1,211.2,116ZM170,55.3a151.7,151.7,0,0,1-26.9,21.9,173.3,173.3,0,0,0-30.6-31.7A79.1,79.1,0,0,1,128,44,83,83,0,0,1,170,55.3Zm-84.4.3a149.5,149.5,0,0,1,35.9,32.8A147.3,147.3,0,0,1,64,100c-4.9,0-9.9-.3-14.9-.8A84.2,84.2,0,0,1,85.6,55.6ZM44,128c0-1.7.1-3.4.2-5.1A187.7,187.7,0,0,0,64,124a172.3,172.3,0,0,0,70.9-15.2,157,157,0,0,1,8.9,19.6,170.9,170.9,0,0,0-21.5,10.5,172.7,172.7,0,0,0-53.7,48.4A83.7,83.7,0,0,1,44,128Zm43.8,73.7a148.4,148.4,0,0,1,46.5-42,132.7,132.7,0,0,1,16-8,154.4,154.4,0,0,1,2.7,28,145.2,145.2,0,0,1-3,29.4,84,84,0,0,1-22,2.9A83.1,83.1,0,0,1,87.8,201.7Zm88.3-4.9a163.2,163.2,0,0,0,.9-17.1,170.2,170.2,0,0,0-3.8-35.6A151.2,151.2,0,0,1,208,140h3.2A84,84,0,0,1,176.1,196.8Z"/></svg>