<svg xmlns="http://www.w3.org/2000/svg" viewBox="0 0 256 256"><path d="M134.9,6.2a12,12,0,0,0-13.8,0A264.8,264.8,0,0,0,78.9,45.1C50.9,77.4,36,111.6,36,144a92,92,0,0,0,184,0C220,66.6,138.4,8.6,134.9,6.2ZM196,144a70.1,70.1,0,0,1-1.9,16H140V144Zm-56-24V104h47a108.5,108.5,0,0,1,5.7,16Zm19.3-58.7A190.1,190.1,0,0,1,173.7,80H140V41.5A246.1,246.1,0,0,1,159.3,61.3ZM60,144c0-33.3,20-63.4,36.7-82.7A246.1,246.1,0,0,1,116,41.5V210.9A68.1,68.1,0,0,1,60,144Zm80,66.9V184h42.9A67.5,67.5,0,0,1,140,210.9Z"/></svg>