<svg id="Flat" xmlns="http://www.w3.org/2000/svg" viewBox="0 0 256 256">
  <path d="M134.88135,6.16943a11.99842,11.99842,0,0,0-13.7627,0A258.98523,258.98523,0,0,0,78.94482,45.126C50.8501,77.43457,36,111.625,36,144a92,92,0,0,0,184,0C220,66.6416,138.35693,8.60205,134.88135,6.16943ZM128,212a68.07728,68.07728,0,0,1-68-68c0-33.31055,19.95654-63.36621,36.69775-82.71387A249.02214,249.02214,0,0,1,128,31.11475a249.00317,249.00317,0,0,1,31.30225,30.17138C176.04346,80.63379,196,110.68945,196,144A68.07728,68.07728,0,0,1,128,212Zm46.81055-57.34375a48.19841,48.19841,0,0,1-36.1543,36.1543,12.0002,12.0002,0,1,1-5.31152-23.40528,24.07558,24.07558,0,0,0,18.06054-18.06054,12.0002,12.0002,0,1,1,23.40528,5.31152Z"/>
</svg>
