<svg id="Flat" xmlns="http://www.w3.org/2000/svg" viewBox="0 0 256 256">
  <path d="M134.88135,14.16943a11.99842,11.99842,0,0,0-13.7627,0A258.98523,258.98523,0,0,0,78.94482,53.126C50.8501,85.43457,36,119.625,36,152a92,92,0,0,0,184,0C220,74.6416,138.35693,16.602,134.88135,14.16943ZM128,220a68.07728,68.07728,0,0,1-68-68c0-33.31055,19.95654-63.36621,36.69775-82.71387A249.02214,249.02214,0,0,1,128,39.11475a249.00317,249.00317,0,0,1,31.30225,30.17138C176.04346,88.63379,196,118.68945,196,152A68.07728,68.07728,0,0,1,128,220Zm52-68a52.059,52.059,0,0,1-52,52,12,12,0,0,1,0-24,28.03146,28.03146,0,0,0,28-28,12,12,0,0,1,24,0Z"/>
</svg>
