<svg id="Flat" xmlns="http://www.w3.org/2000/svg" viewBox="0 0 256 256">
  <path d="M195.949,205.958a91.79823,91.79823,0,0,0,22.44214-44.812c.02869-.13623.05457-.272.07849-.4087A92.14461,92.14461,0,0,0,220,144C220,66.6416,138.35693,8.60254,134.88135,6.169c-.02808-.01954-.05762-.03565-.0857-.05518-.10937-.0752-.22314-.144-.3352-.21582-.18579-.1189-.3728-.23438-.56323-.342-.12891-.073-.25952-.14258-.39124-.2107-.18909-.09765-.38-.189-.57287-.27587-.13135-.05957-.26148-.12037-.39527-.17505-.25757-.10523-.51831-.19947-.781-.28589-.12122-.04-.24268-.07837-.36548-.1145-.27759-.08179-.55713-.1543-.83875-.21558-.12268-.02661-.24695-.04785-.371-.0708q-.37207-.06847-.74683-.11377c-.11279-.01367-.22485-.02808-.33862-.03833a12.00129,12.00129,0,0,0-2.19238,0c-.11377.01025-.22608.02466-.33887.03833q-.37463.045-.74634.11377c-.12426.023-.24853.04419-.37121.0708-.28162.06128-.56116.13379-.83875.21558-.1228.03613-.24426.07446-.36548.1145-.26269.08642-.52343.18066-.781.28589-.13391.05468-.26416.11572-.39575.17505-.19239.08691-.38318.178-.572.27563-.132.06836-.26257.13794-.3916.21094-.19043.10766-.37744.22339-.56323.342-.11206.07178-.22583.14062-.3352.21582-.02808.01953-.05762.03564-.0857.05518A259.02829,259.02829,0,0,0,78.94482,45.126C50.8501,77.43457,36,111.625,36,144a91.957,91.957,0,0,0,158.67847,63.32275c.11181-.104.22973-.19726.33862-.30615A12.13492,12.13492,0,0,0,195.949,205.958ZM140,168.97046l29.13159,29.13159A67.68378,67.68378,0,0,1,140,210.918Zm0-33.94116V108.9707l53.44531,53.44483a67.6635,67.6635,0,0,1-8.06079,17.9978Zm19.30225-73.74317c14.332,16.56348,31.00879,40.97754,35.51525,68.56031L140,75.0293V41.46045A243.43092,243.43092,0,0,1,159.30225,61.28613ZM60,144c0-33.31055,19.95654-63.36621,36.69775-82.71387A243.499,243.499,0,0,1,116,41.46094V210.918A68.097,68.097,0,0,1,60,144Z"/>
</svg>
