<svg id="Flat" xmlns="http://www.w3.org/2000/svg" viewBox="0 0 256 256">
  <path d="M220,104a12,12,0,0,1-24,0,68,68,0,0,0-136,0c0,24.99609,7.5752,32.2998,16.34619,40.75781C85.10254,153.2002,96,163.708,96,188a32.00111,32.00111,0,0,0,56.688,20.36133,11.99994,11.99994,0,1,1,18.50293,15.28515A56.001,56.001,0,0,1,72,188c0-14.09375-4.63428-18.5625-12.3125-25.96582C49.13379,151.8584,36,139.19434,36,104a92,92,0,0,1,184,0Zm-36.85938,45.00391a12.00123,12.00123,0,0,0-15.80078,6.1914A8.00343,8.00343,0,0,1,152,152c0-6.21875,3.00732-9.05859,9.80957-14.88867C169.48633,130.53125,180,121.51953,180,104a52,52,0,0,0-104,0,12,12,0,0,0,24,0,28,28,0,0,1,56,0c0,6.21875-3.00732,9.05859-9.80957,14.88867C138.51367,125.46875,128,134.48047,128,152a32.00338,32.00338,0,0,0,61.332,12.80469A11.99935,11.99935,0,0,0,183.14062,149.00391Z"/>
</svg>
