<svg xmlns="http://www.w3.org/2000/svg" viewBox="0 0 256 256"><path d="M216.9,207.9a12.1,12.1,0,0,1-.8,17,12.1,12.1,0,0,1-17-.8l-36.5-40.2H160a32.1,32.1,0,0,1-32-32,35.6,35.6,0,0,1,.4-5.7L97.1,111.8A11.9,11.9,0,0,1,88,116a12,12,0,0,1-12-12,49.8,49.8,0,0,1,1.8-13.4L65.5,77.1A68.1,68.1,0,0,0,60,104c0,25,7.6,32.3,16.3,40.8S96,163.7,96,188a32,32,0,0,0,56.7,20.4,12,12,0,0,1,18.5,15.2A56,56,0,0,1,72,188c0-14.1-4.6-18.6-12.3-26C49.1,151.9,36,139.2,36,104A90.7,90.7,0,0,1,48.3,58.1l-9.2-10A12,12,0,0,1,56.9,31.9L72.2,48.8h.1l27.9,30.7h0l75.4,83h.1ZM99.3,42.3A68.1,68.1,0,0,1,196,104a12,12,0,0,0,24,0,92.1,92.1,0,0,0-92-92,91.1,91.1,0,0,0-38.8,8.6A12,12,0,0,0,99.3,42.3Zm64.2,80.6a14.1,14.1,0,0,0,3.5.5,12.2,12.2,0,0,0,11.5-8.6A38.1,38.1,0,0,0,180,104a52,52,0,0,0-52-52l-5.1.2a12.2,12.2,0,0,0-10.8,13.2,11.9,11.9,0,0,0,13.1,10.7H128a28.1,28.1,0,0,1,28,28,16.2,16.2,0,0,1-.5,4A12,12,0,0,0,163.5,122.9Z"/></svg>