<svg id="Flat" xmlns="http://www.w3.org/2000/svg" viewBox="0 0 256 256">
  <path d="M216.87939,207.92773a12.00021,12.00021,0,0,1-17.75878,16.14454l-36.52747-40.18018C161.73328,183.96094,160.8689,184,160,184a32.03635,32.03635,0,0,1-32-32,39.64806,39.64806,0,0,1,.41284-5.70605L97.08142,111.8291A11.99121,11.99121,0,0,1,76,104a51.89559,51.89559,0,0,1,1.75049-13.43506L65.52222,77.11426A67.67022,67.67022,0,0,0,60,104c0,24.99609,7.5752,32.2998,16.34619,40.75781C85.10254,153.2002,96,163.708,96,188a32.00111,32.00111,0,0,0,56.688,20.36133,11.99994,11.99994,0,1,1,18.50293,15.28515A56.001,56.001,0,0,1,72,188c0-14.09375-4.63428-18.5625-12.3125-25.96582C49.13428,151.8584,36,139.19434,36,104A91.2893,91.2893,0,0,1,48.2522,58.11719L39.12061,48.07227A12.00021,12.00021,0,0,1,56.87939,31.92773L72.19531,48.77539l.064.07031,27.912,30.70313.04285.04687,75.43335,82.97705c.01392.01465.02722.03028.041.04493ZM99.33936,42.31445A67.39549,67.39549,0,0,1,128,36a68.07728,68.07728,0,0,1,68,68,12,12,0,0,0,24,0A92.037,92.037,0,0,0,89.20947,20.55664,12.00018,12.00018,0,0,0,99.33936,42.31445Zm64.2041,80.58985a11.98655,11.98655,0,0,0,14.9292-8.06934A37.89758,37.89758,0,0,0,180,104a52.059,52.059,0,0,0-52-52c-1.70166,0-3.42285.084-5.11523.249a12.00029,12.00029,0,0,0,2.335,23.88672C126.13916,76.0459,127.07471,76,128,76a28.03146,28.03146,0,0,1,28,28,13.77372,13.77372,0,0,1-.52637,3.97559A11.99951,11.99951,0,0,0,163.54346,122.9043Z"/>
</svg>
