<svg xmlns="http://www.w3.org/2000/svg" viewBox="0 0 256 256"><path d="M190,57.3C171.1,29,147.9,12,128,12S84.9,29,66,57.3,36,120.5,36,152a92,92,0,0,0,184,0C220,120.5,209.1,86,190,57.3ZM128,220a68.1,68.1,0,0,1-68-68c0-61.1,46.2-116,68-116,7.6,0,18.1,6.6,28.6,17.9L120.9,93.7a11.9,11.9,0,0,0-2.8,10.8,12,12,0,0,0,7.4,8.4l19.4,7.5-5.3,27.3a12.1,12.1,0,0,0,9.5,14.1l2.3.2a12.1,12.1,0,0,0,11.8-9.7l7.2-37.2a12,12,0,0,0-7.5-13.4l-12.6-4.9,21.2-23.6C185.2,94.3,196,122.4,196,152A68.1,68.1,0,0,1,128,220Z"/></svg>