<svg id="Flat" xmlns="http://www.w3.org/2000/svg" viewBox="0 0 256 256">
  <path d="M53.84668,149.97266h152.252a20.00011,20.00011,0,0,0,14.77637-33.479L144.74805,33.04541a19.99966,19.99966,0,0,0-29.55078,0v.00024L39.06934,116.49414a20.00044,20.00044,0,0,0,14.77734,33.47852Zm76.126-97.5127,67.06347,73.5127H62.90918Zm80,105.5127h-160a20.0226,20.0226,0,0,0-20,20v24a20.0226,20.0226,0,0,0,20,20h160a20.0226,20.0226,0,0,0,20-20v-24A20.0226,20.0226,0,0,0,209.97266,157.97266Zm-4,40h-152v-16h152Z"/>
</svg>
