<svg id="Flat" xmlns="http://www.w3.org/2000/svg" viewBox="0 0 256 256">
  <path d="M235.98535,55.70679q-.00805-.32594-.0332-.65064-.02124-.27759-.05518-.551c-.0249-.20288-.05664-.40454-.09228-.6062-.03369-.19043-.06983-.3794-.11231-.56641-.04345-.19092-.09375-.38013-.14648-.56909-.05322-.18921-.10791-.37671-.16992-.56177-.061-.18457-.12989-.36621-.2002-.5481-.07129-.18237-.14355-.36328-.22314-.54126-.07959-.17773-.16553-.35278-.2544-.52758-.08886-.17554-.17969-.34888-.27685-.51929-.09522-.1665-.19629-.33032-.29981-.49316-.10986-.17286-.22314-.34278-.34131-.50928q-.15966-.22485-.33154-.44336-.20142-.25745-.4165-.50269c-.06446-.074-.11963-.15283-.18653-.22558-.05664-.06153-.11914-.11377-.17627-.17383-.14746-.15454-.30029-.303-.45556-.44946-.13916-.13111-.27881-.26075-.42285-.38428-.146-.12476-.29688-.24317-.44873-.36109-.1626-.126-.32471-.25122-.49219-.36791-.148-.10328-.30127-.199-.4541-.29566-.17676-.11157-.353-.2229-.53418-.32446-.16065-.09033-.32666-.17188-.49219-.25488-.1792-.08985-.35791-.18018-.54053-.26075-.18066-.0791-.36523-.14868-.5498-.21924-.17578-.06689-.3501-.135-.52832-.19335-.19483-.06421-.39356-.11817-.59278-.17237-.17724-.04834-.35351-.09692-.53222-.137-.19727-.04419-.39746-.07886-.59864-.113-.19043-.03247-.38086-.064-.57275-.0874-.188-.02271-.37744-.03809-.56836-.052-.2124-.01563-.4248-.02759-.63818-.03223C224.16455,44.01074,224.084,44,224,44H32c-.08252,0-.1626.01074-.24512.01245-.21631.0044-.43164.0166-.64746.03272-.187.01367-.373.02856-.55762.05078-.19628.02392-.3916.05615-.58691.0896-.1958.03369-.39111.06738-.584.11035-.18409.041-.36573.09131-.54834.14111-.19385.053-.38721.10523-.57666.16773-.1836.06005-.36377.13012-.54493.19921-.17919.06861-.35839.136-.5332.21314-.18848.08252-.37207.17529-.55615.26782-.16065.08057-.32129.15967-.47705.24707-.18555.10376-.36572.21778-.54639.332-.14941.09449-.29883.188-.44385.28882-.16943.11817-.334.24487-.498.37256-.15039.1167-.29932.2334-.44336.35693-.14551.12427-.28614.25489-.42627.38721-.15479.146-.30664.29395-.45362.44776-.05761.06005-.12011.1123-.17675.17407-.0669.07275-.12207.15161-.18653.22558q-.21532.24573-.4165.50269-.17139.219-.33154.44336c-.11817.1665-.23145.33642-.34131.50928-.10352.16284-.20459.32666-.29981.49316-.09716.17017-.188.34375-.27685.519-.08887.17481-.17481.35034-.2544.52857-.07959.17724-.15185.35766-.22265.53955-.0708.18237-.13965.3645-.20117.54907-.06153.18506-.11622.3728-.16944.56177-.05273.189-.103.37817-.14648.56909-.04248.187-.07862.376-.11231.56641-.03564.20166-.06738.40332-.09228.6062q-.03443.27355-.05518.551-.02563.3252-.0332.65064C20.0127,55.80518,20,55.90088,20,56V192a19.92884,19.92884,0,0,0,6.54688,14.75586l.001.001A19.89818,19.89818,0,0,0,40,212H216a19.89839,19.89839,0,0,0,13.44824-5.2395l.01416-.01294A19.93068,19.93068,0,0,0,236,192V56C236,55.90088,235.9873,55.80518,235.98535,55.70679ZM44,83.27856l48.78711,44.72168L44,172.72217Zm93.48438,35.74854-.00391.00366L128,127.72119,62.84961,68H193.15039ZM110.5459,144.27881l9.3457,8.56714a11.99952,11.99952,0,0,0,16.2168,0l9.34619-8.56714L193.15088,188H62.84961ZM163.21289,128,212,83.27856v89.44263Z"/>
</svg>
