<svg id="Flat" xmlns="http://www.w3.org/2000/svg" viewBox="0 0 256 256">
  <path d="M235.98535,55.70679q-.00805-.32594-.0332-.65064-.02124-.27759-.05518-.551c-.0249-.20288-.05664-.40454-.09228-.60645-.03369-.19018-.07031-.3789-.11231-.56592-.04345-.19116-.09375-.38061-.14648-.56982-.05322-.18872-.10791-.37622-.16944-.56128-.06152-.18457-.13037-.3667-.20117-.54883s-.14306-.3623-.22265-.54c-.07959-.17846-.166-.354-.25489-.52954-.08837-.17456-.1792-.34717-.27587-.5166-.09571-.16772-.19727-.33228-.30176-.49634-.10889-.17163-.22119-.34033-.33887-.50586-.10742-.15112-.21875-.29956-.334-.44677-.13331-.17041-.271-.33594-.4126-.49854-.06543-.07471-.12158-.1543-.189-.228-.05713-.06225-.12011-.115-.17822-.17578-.146-.15283-.29736-.2998-.45117-.44482-.14063-.13257-.28174-.26367-.42725-.38819-.14453-.12378-.29394-.241-.44433-.35766-.16358-.1272-.32715-.25318-.49561-.37061-.147-.10254-.29883-.19751-.45068-.29321-.17774-.11255-.355-.22461-.5376-.3269-.15967-.0896-.32471-.17066-.48877-.25318-.18066-.09033-.35986-.18115-.54395-.262-.17919-.07886-.36328-.14819-.54687-.21851-.17676-.06714-.352-.1355-.53076-.19409-.19434-.064-.39209-.11767-.59033-.17163-.17823-.04834-.35547-.09766-.53516-.1377-.19629-.0437-.395-.07812-.59473-.1123-.19238-.033-.38379-.0647-.57715-.08813-.187-.02271-.37548-.0376-.56494-.05152-.21338-.01587-.42675-.02807-.64111-.03247C224.16406,44.01074,224.0835,44,224,44H32c-.0835,0-.16406.01074-.24707.01245-.21484.0044-.42871.0166-.64258.03247-.18847.01392-.37646.02881-.5625.05127-.19482.02393-.38769.05567-.58154.08887-.19776.03369-.395.06787-.58936.11133-.18213.04077-.3623.09033-.543.13965-.19531.05346-.39013.1062-.58105.16894-.18262.05981-.36182.12939-.542.19824-.18018.06909-.36035.13672-.53614.21411-.187.08228-.37011.17456-.55371.26685-.16113.081-.32275.1604-.47949.24829-.18457.10352-.36426.217-.54492.33106-.14941.09472-.29932.18823-.44434.28955-.16992.11816-.33447.24511-.499.373-.14941.116-.29785.23242-.44141.35523-.14648.12524-.28808.25683-.4292.39013-.1538.14454-.30419.29126-.4497.44361-.05811.06079-.12158.11377-.17871.176-.06739.07373-.12354.15332-.189.228-.1416.1626-.27929.32813-.4126.49854-.11523.14721-.22656.29565-.334.44677-.11768.16553-.23.33423-.33887.50586-.10449.16406-.20605.32862-.30176.49634-.09667.16943-.187.342-.27539.51636-.08935.17578-.17578.3518-.25585.53076-.07911.17676-.15137.35669-.22168.53809-.07129.18261-.14014.36523-.20166.55029-.06153.18457-.11622.37207-.16944.56079-.05273.18921-.103.37866-.14648.56982-.042.187-.07862.37574-.11231.56592-.03564.20191-.06738.40357-.09228.60645q-.03443.27355-.05518.551-.02563.3252-.0332.65064C20.0127,55.80518,20,55.90088,20,56V192a20.0226,20.0226,0,0,0,20,20H216a20.0226,20.0226,0,0,0,20-20V56C236,55.90088,235.9873,55.80518,235.98535,55.70679ZM193.15088,68,128,127.72119,62.84912,68ZM44,188V83.27832l75.8916,69.56738a11.99882,11.99882,0,0,0,16.2168,0L212,83.27832V188Z"/>
</svg>
