<svg id="Flat" xmlns="http://www.w3.org/2000/svg" viewBox="0 0 256 256">
  <path d="M235.99219,95.87891a11.95977,11.95977,0,0,0-.33692-2.71021c-.02685-.10986-.06006-.2168-.08984-.32568-.08984-.32886-.19287-.65479-.312-.97779-.04688-.12817-.09522-.25488-.14649-.38134-.12207-.29883-.25879-.593-.40673-.88452-.0625-.12378-.12061-.249-.187-.37061-.17138-.31152-.3623-.61572-.56445-.916-.05518-.08227-.10254-.16919-.15967-.25-.00683-.00927-.01172-.01928-.01855-.02856a12.17537,12.17537,0,0,0-.82959-1.03247c-.06787-.07593-.14356-.14551-.21338-.22-.25-.26612-.5083-.52075-.77783-.75977-.09082-.08056-.18555-.15722-.2793-.23535q-.416-.3468-.85693-.65161c-.05469-.0376-.102-.08276-.15723-.11939l-96-64a11.99836,11.99836,0,0,0-13.3125,0l-96,64c-.05811.03882-.1084.08619-.16553.12574q-.43285.29955-.84131.63965c-.09765.08129-.19629.16088-.291.24511-.26514.2356-.519.48633-.76563.74829-.07324.07764-.15185.14991-.22265.229a12.13386,12.13386,0,0,0-.82813,1.03076c-.00683.00928-.01172.01929-.01855.02856-.05713.08081-.10449.16773-.15967.25-.20215.3003-.39307.6045-.56445.916-.06641.12158-.12452.24683-.187.37061-.14794.2915-.28466.58569-.40673.88452-.05127.12646-.09961.25317-.14649.38134-.11914.32276-.22217.64844-.31152.97706-.02979.10937-.06348.21679-.09033.3269a11.95554,11.95554,0,0,0-.33692,2.70972C20.00732,95.91943,20,95.95923,20,96V200a20.02229,20.02229,0,0,0,20,20H216a20.02229,20.02229,0,0,0,20-20V96C236,95.95923,235.99268,95.91943,235.99219,95.87891ZM44,119.29248,89.81152,151.9541,44,184.31348ZM114.35645,164h27.2871l45.30323,32H69.0542Zm51.832-12.0459L212,119.29248V184.313ZM128,46.42188l74.86475,49.90966L141.61426,140H114.38574L53.13525,96.33154Z"/>
</svg>
