<svg xmlns="http://www.w3.org/2000/svg" viewBox="0 0 256 256"><path d="M84,108a12,12,0,0,1-12,12H36a12,12,0,0,1,0-24H72A12,12,0,0,1,84,108ZM72,136H36a12,12,0,0,0,0,24H72a12,12,0,0,0,0-24Zm0,44H36a12,12,0,0,0,0,24H72a12,12,0,0,0,0-24Zm74-44H110a12,12,0,0,0,0,24h36a12,12,0,0,0,0-24Zm0,44H110a12,12,0,0,0,0,24h36a12,12,0,0,0,0-24ZM184,80h36a12,12,0,0,0,0-24H184a12,12,0,0,0,0,24Zm36,16H184a12,12,0,0,0,0,24h36a12,12,0,0,0,0-24Zm0,40H184a12,12,0,0,0,0,24h36a12,12,0,0,0,0-24Zm0,40H184a12,12,0,0,0,0,24h36a12,12,0,0,0,0-24Z"/></svg>