<svg id="Flat" xmlns="http://www.w3.org/2000/svg" viewBox="0 0 256.00098 256">
  <path d="M216.001,203.833h-76l27.91015-27.90967.00684-.00635.00635-.00683,56.563-56.5625a28.03348,28.03348,0,0,0-.001-39.59766L179.23145,34.49512a28.03347,28.03347,0,0,0-39.59766,0L83.07471,91.0542l-.01026.00928-.00927.01025L26.49609,147.63281a28.03171,28.03171,0,0,0,0,39.59766L63.585,224.31836a12.00286,12.00286,0,0,0,8.48535,3.51465H216.001a12,12,0,0,0,0-24ZM156.60449,51.46582a4.00207,4.00207,0,0,1,5.65625,0L207.51562,96.7207a4.005,4.005,0,0,1,0,5.65723l-48.083,48.083L108.521,99.54932ZM106.05957,203.833H77.041L43.4668,170.25977a4.00385,4.00385,0,0,1,0-5.65625L91.55029,116.52l50.91114,50.91113Z"/>
</svg>
