<svg xmlns="http://www.w3.org/2000/svg" viewBox="0 0 256 256"><path d="M216,36H40A20.1,20.1,0,0,0,20,56V216a12,12,0,0,0,5.7,10.2,11.9,11.9,0,0,0,11.7.5L64,213.4l26.6,13.3a12.1,12.1,0,0,0,10.8,0L128,213.4l26.6,13.3a11.9,11.9,0,0,0,10.8,0L192,213.4l26.6,13.3a11.9,11.9,0,0,0,11.7-.5A12,12,0,0,0,236,216V56A20.1,20.1,0,0,0,216,36Zm-4,160.6-14.6-7.3a12.1,12.1,0,0,0-10.8,0L160,202.6l-26.6-13.3a11.9,11.9,0,0,0-10.8,0L96,202.6,69.4,189.3a12.1,12.1,0,0,0-10.8,0L44,196.6V60H212ZM62.6,170.7a11.9,11.9,0,0,0,16.1-5.3l4.7-9.4h33.2l4.7,9.4a12,12,0,1,0,21.4-10.8l-32-64a12,12,0,0,0-21.4,0l-32,64A11.9,11.9,0,0,0,62.6,170.7Zm42-38.7H95.4l4.6-9.2Zm39.4-4a12,12,0,0,1,12-12h4v-4a12,12,0,0,1,24,0v4h4a12,12,0,0,1,0,24h-4v4a12,12,0,0,1-24,0v-4h-4A12,12,0,0,1,144,128Z"/></svg>