<svg id="Flat" xmlns="http://www.w3.org/2000/svg" viewBox="0 0 256 256">
  <path d="M109.97388,90.33166l-.00415-.00488-.00464-.00439-53.08618-58.395A11.99985,11.99985,0,0,0,39.12109,48.0719L55.1604,65.715C20.67017,88.65,5.72485,121.57288,5.03418,123.12659a12.00024,12.00024,0,0,0,0,9.74707c.36426.81836,9.12793,20.25683,28.48145,39.60742C59.36621,198.32971,92.03809,211.99182,128,211.99182a131.28482,131.28482,0,0,0,51.02271-10.02832l20.09838,22.1084a11.99985,11.99985,0,0,0,17.75782-16.14453Zm-7.85865,27.0337,34.02149,37.42382a27.97159,27.97159,0,0,1-34.02149-37.42382ZM128,187.99182c-29.58789,0-55.46582-10.72754-76.91406-31.88477a130.534,130.534,0,0,1-21.56543-28.0996c5.26709-9.30762,18.792-29.896,42.01684-44.27735L85.103,98.652a51.99159,51.99159,0,0,0,68.05664,74.8623l8.46972,9.3169A109.19209,109.19209,0,0,1,128,187.99182Zm122.96582-55.11816c-.43457.97656-10.90332,24.16308-34.35059,45.16406a11.99959,11.99959,0,1,1-16.01171-17.87695,130.27953,130.27953,0,0,0,25.8789-32.16407,130.52164,130.52164,0,0,0-21.56933-28.11328C183.46484,78.72131,157.58789,67.99182,128,67.99182a113.85421,113.85421,0,0,0-18.70508,1.52051,12,12,0,0,1-3.95508-23.67188A137.90186,137.90186,0,0,1,128,43.99182c35.96191,0,68.63477,13.665,94.48535,39.51953,19.35352,19.35449,28.11719,38.79688,28.48047,39.61524A12.00024,12.00024,0,0,1,250.96582,132.87366ZM133.28223,100.49573a12,12,0,0,1,4.49023-23.57618,52.19288,52.19288,0,0,1,42.001,46.20215,12.0004,12.0004,0,0,1-10.833,13.06348q-.56836.05274-1.12891.05273A12.00181,12.00181,0,0,1,155.877,125.35217,28.0788,28.0788,0,0,0,133.28223,100.49573Z"/>
</svg>
