<svg xmlns="http://www.w3.org/2000/svg" viewBox="0 0 256 256"><path d="M56.9,31.9A12,12,0,0,0,39.1,48.1L55.2,65.7C20.7,88.6,5.7,121.6,5,123.1a12.8,12.8,0,0,0,0,9.8,149.8,149.8,0,0,0,28.5,39.6C59.4,198.3,92,212,128,212a132.1,132.1,0,0,0,51-10l20.1,22.1a12.1,12.1,0,0,0,17,.8,12.1,12.1,0,0,0,.8-17ZM128,188c-29.6,0-55.5-10.7-76.9-31.9A131.4,131.4,0,0,1,29.5,128c5.3-9.3,18.8-29.9,42-44.3l90.1,99.1A106.9,106.9,0,0,1,128,188Zm123-55.1c-.4.8-9,19.9-28.1,39.1a11.7,11.7,0,0,1-8.5,3.6,12.1,12.1,0,0,1-8.5-20.5A128.5,128.5,0,0,0,226.5,128a131.4,131.4,0,0,0-21.6-28.1C183.5,78.7,157.6,68,128,68c-3.3,0-6.7.1-10,.4a11.8,11.8,0,0,1-12.9-10.9,12,12,0,0,1,10.9-13c3.9-.3,8-.5,12-.5,36,0,68.6,13.7,94.5,39.5A149.8,149.8,0,0,1,251,123.1,12.8,12.8,0,0,1,251,132.9Z"/></svg>