<svg xmlns="http://www.w3.org/2000/svg" viewBox="0 0 256 256"><path d="M251,123.1a149.8,149.8,0,0,0-28.5-39.6C196.6,57.7,164,44,128,44S59.4,57.7,33.5,83.5A149.8,149.8,0,0,0,5,123.1a12.8,12.8,0,0,0,0,9.8,149.8,149.8,0,0,0,28.5,39.6C59.4,198.3,92,212,128,212s68.6-13.7,94.5-39.5A149.8,149.8,0,0,0,251,132.9,12.8,12.8,0,0,0,251,123.1Zm-46.1,33C183.5,177.3,157.6,188,128,188s-55.5-10.7-76.9-31.9A131.4,131.4,0,0,1,29.5,128,128.9,128.9,0,0,1,51.1,99.9C72.5,78.7,98.4,68,128,68s55.5,10.7,76.9,31.9A131.4,131.4,0,0,1,226.5,128,131.4,131.4,0,0,1,204.9,156.1ZM128,84a44,44,0,1,0,44,44A44,44,0,0,0,128,84Zm0,64a20,20,0,1,1,20-20A20.1,20.1,0,0,1,128,148Z"/></svg>