<svg xmlns="http://www.w3.org/2000/svg" viewBox="0 0 256 256"><path d="M45.1,229.8A19.6,19.6,0,0,1,31,223.9a17.5,17.5,0,0,1-3.7-19.6L36.6,183a44.2,44.2,0,0,1,12.3-38.1l56-56a12,12,0,0,1,17,0,12.2,12.2,0,0,1,0,17l-56,56a19.7,19.7,0,0,0-5.2,19.3,11.9,11.9,0,0,1-.6,7.9l-5.3,12.1,12.1-5.3a11.9,11.9,0,0,1,7.9-.6,19.7,19.7,0,0,0,19.3-5.2l56-56a12.2,12.2,0,0,1,17,0,12,12,0,0,1,0,17l-56,56A44.2,44.2,0,0,1,73,219.4l-19.9,8.7A18.9,18.9,0,0,1,45.1,229.8Z"/><path d="M172,164.7a19.7,19.7,0,0,1-14.1-5.9L97.2,98.1a19.9,19.9,0,0,1,0-28.2l15-15.1a27.9,27.9,0,0,1,35.7-3.2l11.4-11.5c15.4-15.4,40.6-15.9,56.2-1.2a40.1,40.1,0,0,1,.8,57.4l-11.9,11.8a27.9,27.9,0,0,1-3.2,35.7l-15.1,15A19.7,19.7,0,0,1,172,164.7ZM117,84l55,55,12.2-12.2a3.9,3.9,0,0,0,0-5.6l-4.9-4.9a12,12,0,0,1,0-17l20-20a15.9,15.9,0,0,0-.3-22.9c-6.2-5.9-16.4-5.6-22.7.7L156.7,76.7a12.1,12.1,0,0,1-17,0l-4.9-4.9a3.9,3.9,0,0,0-5.6,0Z"/></svg>