<svg id="Flat" xmlns="http://www.w3.org/2000/svg" viewBox="0 0 256 256">
  <path d="M45.06982,229.81982a19.8936,19.8936,0,0,1-14.09912-5.87841,17.64109,17.64109,0,0,1-3.71484-19.64649l9.30176-21.30664A44.17157,44.17157,0,0,1,48.88721,144.8877l56-56.00049a12.0001,12.0001,0,0,1,16.9707,16.9707l-56,56a20.08645,20.08645,0,0,0-5.17871,19.33057,11.998,11.998,0,0,1-.59619,7.897L54.79,201.21l12.12451-5.293a11.99353,11.99353,0,0,1,7.89649-.59619,20.08318,20.08318,0,0,0,19.331-5.17871l56-56a12.0001,12.0001,0,0,1,16.9707,16.9707l-56,56a44.18008,44.18008,0,0,1-38.10107,12.32959l-19.897,8.686A20.07588,20.07588,0,0,1,45.06982,229.81982Z"/>
  <path d="M172,164.68652a19.8692,19.8692,0,0,1-14.14209-5.85791L97.17139,98.14209a20.02281,20.02281,0,0,1,0-28.28418l15.02978-15.02979a28.04636,28.04636,0,0,1,35.67237-3.27l11.43017-11.43067C174.70605,24.7251,199.9082,24.19238,215.48486,38.938a40.00043,40.00043,0,0,1,.79932,57.34619l-11.84229,11.84228a28.04564,28.04564,0,0,1-3.27,35.67237l-15.02979,15.02978A19.8692,19.8692,0,0,1,172,164.68652ZM116.9707,84,172,139.0293l12.20117-12.20118a4.00384,4.00384,0,0,0,0-5.65624l-4.88769-4.8877a12.00062,12.00062,0,0,1,0-16.9707l20-20a15.99929,15.99929,0,0,0-.32813-22.94629c-6.22558-5.894-16.41406-5.56641-22.71094.731L156.68652,76.68652a12.00033,12.00033,0,0,1-16.9707,0l-4.8877-4.88769a4.00384,4.00384,0,0,0-5.65624,0Z"/>
</svg>
