<svg xmlns="http://www.w3.org/2000/svg" viewBox="0 0 256 256"><path d="M180,108a12,12,0,0,1-12,12H88a12,12,0,0,1,0-24h80A12,12,0,0,1,180,108Zm-12,24H88a12,12,0,0,0,0,24h80a12,12,0,0,0,0-24Zm88-28v24a36,36,0,0,1-36,36h-6.2c-6.4,13.8-17.9,26-34.1,36.1-19.1,11.8-39.3,17.3-47.1,19.2a21.4,21.4,0,0,1-9.2,0c-12-2.8-63.5-17-81.3-55.3H36A36,36,0,0,1,0,128V104A36,36,0,0,1,36,68h2.3a20.2,20.2,0,0,1,10.3-9.2l72-28.8a19.9,19.9,0,0,1,14.8,0l72,28.8A20.2,20.2,0,0,1,217.7,68H220A36,36,0,0,1,256,104ZM36.1,140c0-1.3-.1-2.6-.1-4V92a12,12,0,0,0-12,12v24a12,12,0,0,0,12,12Zm157.5,10.2a10.8,10.8,0,0,1,1-3.5A41.8,41.8,0,0,0,196,136V80.1L128,52.9,60,80.1V136a41.8,41.8,0,0,0,1.4,10.7,10.8,10.8,0,0,1,1,3.5c4,11.1,12.9,21,26.5,29.4,15.7,9.8,32.9,14.6,39.1,16.1,6.2-1.5,23.3-6.3,39.1-16.1C180.7,171.2,189.6,161.3,193.6,150.2ZM232,104a12,12,0,0,0-12-12v44c0,1.3,0,2.7-.1,4h.1a12,12,0,0,0,12-12Z"/></svg>