<svg id="Flat" xmlns="http://www.w3.org/2000/svg" viewBox="0 0 256 256">
  <path d="M180,108a12,12,0,0,1-12,12H88a12,12,0,0,1,0-24h80A12,12,0,0,1,180,108Zm-12,24H88a12,12,0,0,0,0,24h80a12,12,0,0,0,0-24Zm88-28v24a36.04061,36.04061,0,0,1-36,36h-6.17383c-6.46972,13.83887-17.95019,26.04248-34.11133,36.05273-19.14257,11.85645-39.34277,17.39258-47.13867,19.22168a20.1168,20.1168,0,0,1-9.15185,0C111.397,216.45215,59.85889,202.29639,42.0708,164H36A36.04061,36.04061,0,0,1,0,128V104A36.04061,36.04061,0,0,1,36,68h2.34912a19.92213,19.92213,0,0,1,10.22266-9.15332l72.00049-28.7998a19.915,19.915,0,0,1,14.85546,0l72,28.7998A19.92129,19.92129,0,0,1,217.65088,68H220A36.04061,36.04061,0,0,1,256,104ZM36.12354,140C36.05029,138.68457,36,137.356,36,136V92a12.01375,12.01375,0,0,0-12,12v24a12.01375,12.01375,0,0,0,12,12Zm157.43457,10.209a11.888,11.888,0,0,1,1.07519-3.4624A42.22357,42.22357,0,0,0,196,136V80.124l-68-27.1997L60,80.124V136a42.23432,42.23432,0,0,0,1.36523,10.7417,11.89551,11.89551,0,0,1,1.07911,3.47266c3.98632,11.12695,12.84082,20.98828,26.47851,29.435,15.72656,9.74121,32.91748,14.53418,39.07715,16.042,6.15869-1.50733,23.34961-6.3003,39.07715-16.042C180.7168,171.20117,189.57275,161.33789,193.55811,150.209ZM232,104a12.01375,12.01375,0,0,0-12-12v44c0,1.34375-.04736,2.67578-.124,4H220a12.01375,12.01375,0,0,0,12-12Z"/>
</svg>
