<svg id="Flat" xmlns="http://www.w3.org/2000/svg" viewBox="0 0 256 256">
  <path d="M120,176a12.00028,12.00028,0,0,1-12,12H80a12,12,0,0,1,0-24h28A12.00028,12.00028,0,0,1,120,176Zm56-12H148a12,12,0,0,0,0,24h28a12,12,0,0,0,0-24Zm76,51.9834a12.0006,12.0006,0,0,1-12,12H216.3335c-.11182.00293-.22095.0166-.3335.0166s-.22168-.01367-.3335-.0166H40.3335c-.11182.00293-.221.0166-.3335.0166s-.22168-.01367-.3335-.0166H16a12,12,0,0,1,0-24H28V88a12.00011,12.00011,0,0,1,19.2002-9.6001L92,112V88a12.00011,12.00011,0,0,1,19.2002-9.6001l33.33471,25.00147,10.60376-74.22949A20.10107,20.10107,0,0,1,174.93848,12h18.123a20.09932,20.09932,0,0,1,19.79883,17.16992l15.01953,105.13281c.01074.07471.01123.14844.02051.22315.0249.20312.0415.4082.05615.61474.01587.21729.02881.4336.03272.64942.00146.0708.01074.13916.01074.21v67.9834h12A12,12,0,0,1,252,215.9834Zm-85.56665-96.1582L172,124h30.16357l-12.5708-88H178.40723ZM52,203.9834H204V148H168a11.99842,11.99842,0,0,1-7.2002-2.3999l-14.37646-10.78272c-.02051-.01465-.041-.03027-.06128-.0459L116,112v24a12.00011,12.00011,0,0,1-19.2002,9.6001L52,112Z"/>
</svg>
