<svg xmlns="http://www.w3.org/2000/svg" viewBox="0 0 256 256"><path d="M120,176a12,12,0,0,1-12,12H80a12,12,0,0,1,0-24h28A12,12,0,0,1,120,176Zm56-12H148a12,12,0,0,0,0,24h28a12,12,0,0,0,0-24Zm76,52a12,12,0,0,1-12,12H16a12,12,0,0,1,0-24H28V88a12,12,0,0,1,19.2-9.6L92,112V88a12,12,0,0,1,19.2-9.6l33.3,25,10.6-74.2A20.2,20.2,0,0,1,174.9,12h18.2a20.2,20.2,0,0,1,19.8,17.2l15,105.1v.2a1.3,1.3,0,0,0,.1.6V204h12A12,12,0,0,1,252,216Zm-85.6-96.2L172,124h30.2L189.6,36H178.4ZM52,204H204V148H168a11.8,11.8,0,0,1-7.2-2.4l-14.4-10.8h0L116,112v24a12,12,0,0,1-19.2,9.6L52,112Z"/></svg>