<svg id="Flat" xmlns="http://www.w3.org/2000/svg" viewBox="0 0 256 256">
  <path d="M147.999,171.99353a12.00028,12.00028,0,0,1-12,12h-96a12,12,0,0,1,0-24h96A12.00028,12.00028,0,0,1,147.999,171.99353Zm68-12h-36v-12a12,12,0,0,0-24,0v48a12,12,0,0,0,24,0v-12h36a12,12,0,0,0,0-24ZM39.99854,95.99255l32,.001H71.999a12,12,0,0,0,.00049-24l-32-.001H39.999a12,12,0,0,0-.00048,24Zm64.00048,24.001a12.00028,12.00028,0,0,0,12-12v-12l100-.001a12,12,0,1,0,0-24l-100,.001v-12a12,12,0,1,0-24,0v48A12.00028,12.00028,0,0,0,103.999,119.99353Z"/>
</svg>
