<svg id="Flat" xmlns="http://www.w3.org/2000/svg" viewBox="0 0 256.00098 256.00098">
  <path d="M140.001,119.99988v96a12,12,0,0,1-24,0v-96a12,12,0,1,1,24,0Zm59.99951,68A12.00028,12.00028,0,0,0,188.001,200.00037l.001,16a12,12,0,0,0,24-.001l-.001-16A11.99966,11.99966,0,0,0,200.00049,187.99988Zm24.00049-32h-12l.001-116a12,12,0,1,0-24,0l-.001,116h-12a12,12,0,0,0,0,24h48a12,12,0,0,0,0-24Zm-168,0a12.00059,12.00059,0,0,0-12,12l-.00049,48a12,12,0,0,0,24,0l.00049-48A12,12,0,0,0,56.001,155.99988Zm24-32h-12l-.00049-84a12,12,0,1,0-24,0l.00049,84h-12a12,12,0,0,0,0,24h48a12,12,0,1,0,0-24Zm72-48h-12v-36a12,12,0,1,0-24,0v36h-12a12,12,0,0,0,0,24h48a12,12,0,0,0,0-24Z"/>
</svg>
