<svg id="Flat" xmlns="http://www.w3.org/2000/svg" viewBox="0 0 256 256">
  <path d="M128,20A108,108,0,1,0,236,128,108.12217,108.12217,0,0,0,128,20Zm0,192a84,84,0,1,1,84-84A84.0953,84.0953,0,0,1,128,212Zm70.65625-93.98437-48-32A11.99983,11.99983,0,0,0,132,96v20.24487L86.65625,86.01563A11.99983,11.99983,0,0,0,68,96v64a11.99963,11.99963,0,0,0,18.65625,9.98438L132,139.75513V160a11.99963,11.99963,0,0,0,18.65625,9.98438l48-32a11.99938,11.99938,0,0,0,0-19.96875ZM92,137.57764V118.42236L106.36621,128Zm64,0V118.42236L170.36621,128Z"/>
</svg>
