<svg xmlns="http://www.w3.org/2000/svg" viewBox="0 0 256 256"><path d="M128,20A108,108,0,1,0,236,128,108.1,108.1,0,0,0,128,20Zm0,192a84,84,0,1,1,84-84A84.1,84.1,0,0,1,128,212Zm64-84a12.1,12.1,0,0,1-4.6,9.5l-36,28A12.7,12.7,0,0,1,144,168a12.4,12.4,0,0,1-5.3-1.2A12,12,0,0,1,132,156V136.9l-.6.6-36,28A12.7,12.7,0,0,1,88,168a12.4,12.4,0,0,1-5.3-1.2A12,12,0,0,1,76,156V100a12,12,0,0,1,6.7-10.8,12.2,12.2,0,0,1,12.7,1.3l36,28,.6.6V100a12,12,0,0,1,6.7-10.8,12.2,12.2,0,0,1,12.7,1.3l36,28A12.1,12.1,0,0,1,192,128Z"/></svg>