<svg id="Flat" xmlns="http://www.w3.org/2000/svg" viewBox="0 0 256 256">
  <path d="M128,20A108,108,0,1,0,236,128,108.12217,108.12217,0,0,0,128,20Zm0,192a84,84,0,1,1,84-84A84.0953,84.0953,0,0,1,128,212Zm64-84a12.00043,12.00043,0,0,1-4.63281,9.47217l-36,28A11.99982,11.99982,0,0,1,132,156V136.919c-.2085.18676-.41016.37988-.63281.55322l-36,28A11.99982,11.99982,0,0,1,76,156V100a11.99982,11.99982,0,0,1,19.36719-9.47217l36,28c.22265.17334.42431.36646.63281.55322V100a11.99982,11.99982,0,0,1,19.36719-9.47217l36,28A12.00044,12.00044,0,0,1,192,128Z"/>
</svg>
