<svg xmlns="http://www.w3.org/2000/svg" viewBox="0 0 256 256"><path d="M220,92V88a12.3,12.3,0,0,0-3.5-8.5l-56-56A12.3,12.3,0,0,0,152,20H120a12,12,0,0,0,0,24h16V92a12,12,0,0,0,12,12h48v32a12,12,0,0,0,24,0V92ZM160,57l23,23H160ZM84,224a12,12,0,0,1-12,12H56a20.1,20.1,0,0,1-20-20V184a12,12,0,0,1,24,0v28H72A12,12,0,0,1,84,224ZM92,32A12,12,0,0,1,80,44H60V64a12,12,0,0,1-24,0V40A20.1,20.1,0,0,1,56,20H80A12,12,0,0,1,92,32ZM220,176v40a20.1,20.1,0,0,1-20,20h-8a12,12,0,0,1,0-24h4V176a12,12,0,0,1,24,0ZM36,144V104a12,12,0,0,1,24,0v40a12,12,0,0,1-24,0Zm128,80a12,12,0,0,1-12,12H112a12,12,0,0,1,0-24h40A12,12,0,0,1,164,224Z"/></svg>