<svg xmlns="http://www.w3.org/2000/svg" viewBox="0 0 256 256"><path d="M44,136a12,12,0,0,0,12-12V48h80v52a12,12,0,0,0,12,12h52v12a12,12,0,0,0,24,0V92a12.3,12.3,0,0,0-3.5-8.5l-56-56A12.3,12.3,0,0,0,156,24H52A20.1,20.1,0,0,0,32,44v80A12,12,0,0,0,44,136ZM191,88H160V57ZM44,152H28a12,12,0,0,0-12,12v56a12,12,0,0,0,12,12H44a40,40,0,0,0,0-80Zm0,56H40V176h4a16,16,0,0,1,0,32Zm193.9.8a12,12,0,0,1-3.1,16.7A37.1,37.1,0,0,1,214,232c-21,0-38-17.9-38-40s17-40,38-40a37.1,37.1,0,0,1,20.8,6.5,12,12,0,1,1-13.6,19.8A12.8,12.8,0,0,0,214,176c-7.7,0-14,7.2-14,16s6.3,16,14,16a12.8,12.8,0,0,0,7.2-2.3A12,12,0,0,1,237.9,208.8ZM130,152c-21,0-38,17.9-38,40s17,40,38,40,38-17.9,38-40S151,152,130,152Zm0,56c-7.7,0-14-7.2-14-16s6.3-16,14-16,14,7.2,14,16S137.7,208,130,208Z"/></svg>