<svg xmlns="http://www.w3.org/2000/svg" viewBox="0 0 256 256"><path d="M180.5,147.5a12,12,0,0,1,0,17l-24,24a12.1,12.1,0,0,1-17,0,12,12,0,0,1,0-17L155,156l-15.5-15.5a12,12,0,0,1,17-17Zm-64-24a12,12,0,0,0-17,0l-24,24a12,12,0,0,0,0,17l24,24a12.1,12.1,0,0,0,17,0,12,12,0,0,0,0-17L101,156l15.5-15.5A12,12,0,0,0,116.5,123.5ZM220,88V216a20.1,20.1,0,0,1-20,20H56a20.1,20.1,0,0,1-20-20V40A20.1,20.1,0,0,1,56,20h96a12.3,12.3,0,0,1,8.5,3.5l56,56A12.3,12.3,0,0,1,220,88ZM160,57V80h23Zm36,155V104H148a12,12,0,0,1-12-12V44H60V212Z"/></svg>