<svg id="Flat" xmlns="http://www.w3.org/2000/svg" viewBox="0 0 256 256">
  <path d="M220.00781,92c0-.05389-.00683-.10583-.00781-.15955V88a11.99992,11.99992,0,0,0-3.51465-8.48535l-56-56A11.99992,11.99992,0,0,0,152,20H55.99219a20.0226,20.0226,0,0,0-20,20V216a20.0226,20.0226,0,0,0,20,20H200a20.0226,20.0226,0,0,0,20-20V92.15955C220.001,92.10583,220.00781,92.05389,220.00781,92ZM183.0293,80H160V56.97052ZM59.99219,212V44H136V92a12,12,0,0,0,12,12h48V212Zm100.47558-75.51465L144.95312,152l15.51465,15.51465a12.0001,12.0001,0,0,1-16.9707,16.9707L127.98242,168.9707l-15.51465,15.51465a12.0001,12.0001,0,1,1-16.9707-16.9707L111.01172,152,95.49707,136.48535a12.0001,12.0001,0,1,1,16.9707-16.9707l15.51465,15.51465,15.51465-15.51465a12.0001,12.0001,0,0,1,16.9707,16.9707Z"/>
</svg>
