<svg xmlns="http://www.w3.org/2000/svg" viewBox="0 0 256 256"><path d="M224,99.8V92a12.3,12.3,0,0,0-3.5-8.5l-56-56A12.3,12.3,0,0,0,156,24H52A20.1,20.1,0,0,0,32,44v80a12,12,0,0,0,24,0V48h80v52a12,12,0,0,0,12,12h52v12a12,12,0,0,0,24,0V99.8ZM160,88V57l31,31ZM56,192c0,8.8,6.3,16,14,16a12.8,12.8,0,0,0,7.2-2.3,12,12,0,0,1,13.6,19.8A37.1,37.1,0,0,1,70,232c-20.9,0-38-17.9-38-40s17.1-40,38-40a37.1,37.1,0,0,1,20.8,6.5,12,12,0,0,1-13.6,19.8A12.8,12.8,0,0,0,70,176C62.3,176,56,183.2,56,192Zm104,13.4c0,16.2-11.4,26.6-29,26.6a36.2,36.2,0,0,1-23.2-8.8h0a12,12,0,0,1,8.2-20.8,12,12,0,0,1,8.2,3.2H124a12,12,0,0,0,7,2.5c3.1,0,4.5-.6,4.8-.8a3.7,3.7,0,0,0,.2-1.4c-1.6-1-5.4-2.1-7.8-2.8-8.5-2.5-24.2-7.2-24.2-24.4,0-15.4,11.4-26.6,27-26.6a36.2,36.2,0,0,1,23.2,8.8h0a12,12,0,0,1-8.2,20.8,12,12,0,0,1-8.2-3.2h.2a12,12,0,0,0-7-2.5c-2.3,0-2.8.6-3,1.6,1.7.8,4.9,1.7,7,2.4C143.8,182.6,160,187.4,160,205.4Zm64,0c0,16.2-11.4,26.6-29,26.6a36.2,36.2,0,0,1-23.2-8.8h0a12,12,0,0,1,8.2-20.8,12,12,0,0,1,8.2,3.2H188a12,12,0,0,0,7,2.5,10.5,10.5,0,0,0,4.8-.8,3.7,3.7,0,0,0,.2-1.4c-1.6-1-5.4-2.1-7.8-2.8-8.5-2.5-24.2-7.2-24.2-24.4,0-15.4,11.4-26.6,27-26.6a36.2,36.2,0,0,1,23.2,8.8h0a12,12,0,0,1-8.2,20.8,12,12,0,0,1-8.2-3.2h.2a12,12,0,0,0-7-2.5c-2.3,0-2.8.6-3,1.6,1.7.8,4.9,1.7,7,2.4C207.8,182.6,224,187.4,224,205.4Z"/></svg>