<svg id="Flat" xmlns="http://www.w3.org/2000/svg" viewBox="0 0 256 256">
  <path d="M220.00781,92c0-.05389-.00683-.10583-.00781-.15955V88a11.99992,11.99992,0,0,0-3.51465-8.48535l-56-56A11.99992,11.99992,0,0,0,152,20H55.99219a20.0226,20.0226,0,0,0-20,20V216a20.0226,20.0226,0,0,0,20,20H200a20.0226,20.0226,0,0,0,20-20V92.15955C220.001,92.10583,220.00781,92.05389,220.00781,92ZM183.0293,80H160V56.97052ZM59.99219,212V44H136V92a12,12,0,0,0,12,12h48V212ZM172,132a12,12,0,0,1-12,12H96a12,12,0,0,1,0-24h64A12,12,0,0,1,172,132Zm0,40a12,12,0,0,1-12,12H96a12,12,0,0,1,0-24h64A12,12,0,0,1,172,172Z"/>
</svg>
