<svg id="Flat" xmlns="http://www.w3.org/2000/svg" viewBox="0 0 256 256">
  <path d="M220.00781,92c0-.05389-.00683-.10583-.00781-.15955V88a11.99992,11.99992,0,0,0-3.51465-8.48535l-56-56A11.99992,11.99992,0,0,0,152,20H55.99219a20.0226,20.0226,0,0,0-20,20V216a20.0226,20.0226,0,0,0,20,20H200a20.0226,20.0226,0,0,0,20-20V92.15955C220.001,92.10583,220.00781,92.05389,220.00781,92ZM183.0293,80H160V56.97052ZM59.99219,212V44H136V92a12,12,0,0,0,12,12h48V212Zm96.49853-48.47369a36.00871,36.00871,0,1,0-57.95263,9.92974h0a36.06359,36.06359,0,0,0,40.96728,7.02558l11.80274,11.80255a11.99992,11.99992,0,1,0,16.97021-16.9707Zm-40.98193-7.041h0a12,12,0,1,1,16.9707,0A11.92086,11.92086,0,0,1,115.50879,156.48535Z"/>
</svg>
