<svg xmlns="http://www.w3.org/2000/svg" viewBox="0 0 256 256"><path d="M231.2,168.4l-22,56a12.1,12.1,0,0,1-22.4,0l-22-56a12,12,0,0,1,22.4-8.8L198,187.2l10.8-27.6a12,12,0,1,1,22.4,8.8ZM32,124V44A20.1,20.1,0,0,1,52,24H156a12.3,12.3,0,0,1,8.5,3.5l56,56A12.3,12.3,0,0,1,224,92v32a12,12,0,0,1-24,0V112H148a12,12,0,0,1-12-12V48H56v76a12,12,0,0,1-24,0ZM160,57V88h31ZM62,176a12.8,12.8,0,0,1,7.2,2.3,12,12,0,0,0,13.6-19.8A37.1,37.1,0,0,0,62,152c-21,0-38,17.9-38,40s17,40,38,40a37.1,37.1,0,0,0,20.8-6.5,12,12,0,0,0-13.6-19.8A12.8,12.8,0,0,1,62,208c-7.7,0-14-7.2-14-16S54.3,176,62,176Zm69,4c-2.1-.7-5.3-1.6-7-2.4.2-1,.7-1.6,3-1.6a12,12,0,0,1,7,2.5h-.2a12,12,0,0,0,20.2-8.8,12.1,12.1,0,0,0-3.8-8.8h0A36.2,36.2,0,0,0,127,152c-15.6,0-27,11.2-27,26.6,0,17.2,15.7,21.9,24.2,24.4,2.4.7,6.2,1.8,7.8,2.8a3.7,3.7,0,0,1-.2,1.4c-.3.2-1.7.8-4.8.8a12,12,0,0,1-7-2.5h.2a12,12,0,0,0-20.2,8.8,12.1,12.1,0,0,0,3.8,8.8h0A36.2,36.2,0,0,0,127,232c17.6,0,29-10.4,29-26.6C156,187.4,139.8,182.6,131,180Z"/></svg>