<svg id="Flat" xmlns="http://www.w3.org/2000/svg" viewBox="0 0 256 256">
  <path d="M220.00781,92c0-.054-.00683-.10583-.00781-.15955V88a12.00282,12.00282,0,0,0-3.51465-8.48535l-56-56A12.002,12.002,0,0,0,152,20H120a12,12,0,0,0,0,24h16V92a12.00028,12.00028,0,0,0,12,12h48v32a12,12,0,0,0,24,0V92.15955C220.001,92.10583,220.00781,92.054,220.00781,92ZM160,56.9707,183.0293,80H160ZM84,224a12.00028,12.00028,0,0,1-12,12H55.99219a20.02229,20.02229,0,0,1-20-20V184a12,12,0,0,1,24,0v28H72A12.00028,12.00028,0,0,1,84,224ZM92,32A12.00028,12.00028,0,0,1,80,44H59.99219V64a12,12,0,0,1-24,0V40a20.02229,20.02229,0,0,1,20-20H80A12.00028,12.00028,0,0,1,92,32ZM220,176v40a20.02229,20.02229,0,0,1-20,20h-8a12,12,0,0,1,0-24h4V176a12,12,0,0,1,24,0ZM36,144V104a12,12,0,0,1,24,0v40a12,12,0,0,1-24,0Zm128,80a12.00028,12.00028,0,0,1-12,12H112a12,12,0,0,1,0-24h40A12.00028,12.00028,0,0,1,164,224Z"/>
</svg>
