<svg xmlns="http://www.w3.org/2000/svg" viewBox="0 0 256 256"><path d="M140,164v56a12,12,0,0,1-24,0V164a12,12,0,0,1,24,0ZM84,208H67.3l26.5-37a12.2,12.2,0,0,0,.9-12.5A12.1,12.1,0,0,0,84,152H44a12,12,0,0,0,0,24H60.7L34.2,213a12.2,12.2,0,0,0-.9,12.5A12.1,12.1,0,0,0,44,232H84a12,12,0,0,0,0-24Zm140-24a32.1,32.1,0,0,1-32,32h-4v4a12,12,0,0,1-24,0V164a12,12,0,0,1,12-12h16A32.1,32.1,0,0,1,224,184Zm-24,0a8,8,0,0,0-8-8h-4v16h4A8,8,0,0,0,200,184Zm24-92v32a12,12,0,0,1-24,0V112H148a12,12,0,0,1-12-12V48H56v76a12,12,0,0,1-24,0V44A20.1,20.1,0,0,1,52,24H156a12.3,12.3,0,0,1,8.5,3.5l56,56A12.3,12.3,0,0,1,224,92Zm-33-4L160,57V88Z"/></svg>