<svg id="Flat" xmlns="http://www.w3.org/2000/svg" viewBox="0 0 256 256">
  <path d="M220.00781,88a11.95785,11.95785,0,0,0-3.60156-8.56439l-55.9209-55.921c-.01172-.0119-.02539-.02185-.03711-.03369-.26562-.26325-.54248-.51508-.83105-.75281-.083-.068-.17237-.12622-.25684-.192-.2251-.17535-.45068-.35022-.68847-.50946-.07227-.04834-.14893-.08831-.22217-.13507-.25733-.16467-.51709-.32611-.7876-.47119-.05127-.0274-.10547-.04889-.15674-.07556-.2959-.15326-.59619-.29932-.90576-.428-.03516-.01465-.07227-.02509-.10742-.03937-.32569-.13165-.65625-.25335-.99561-.3565-.03955-.01209-.08056-.01935-.1206-.031-.333-.09759-.66944-.18616-1.01416-.25488-.09815-.01972-.19873-.02814-.29737-.04541-.28662-.04981-.57324-.10016-.8667-.12927Q152.60377,20.00088,152,20H55.99219a20.0226,20.0226,0,0,0-20,20V216a20.0226,20.0226,0,0,0,20,20H200a20.0226,20.0226,0,0,0,20-20V88.15955C220.001,88.10583,220.00781,88.05389,220.00781,88ZM164,60.97052,179.0293,76H164ZM59.99219,212V44H140V88a12,12,0,0,0,12,12h44V212Zm100.47558-75.51465L144.95312,152l15.51465,15.51465a12.0001,12.0001,0,0,1-16.9707,16.9707L127.98242,168.9707l-15.51465,15.51465a12.0001,12.0001,0,1,1-16.9707-16.9707L111.01172,152,95.49707,136.48535a12.0001,12.0001,0,1,1,16.9707-16.9707l15.51465,15.51465,15.51465-15.51465a12.0001,12.0001,0,0,1,16.9707,16.9707Z"/>
</svg>
