<svg id="Flat" xmlns="http://www.w3.org/2000/svg" viewBox="0 0 256 256">
  <path d="M220.00781,92c0-.05389-.00683-.10583-.00781-.15955V88a11.99992,11.99992,0,0,0-3.51465-8.48535l-56-56A11.99992,11.99992,0,0,0,152,20H55.99219a20.0226,20.0226,0,0,0-20,20V216a20.02229,20.02229,0,0,0,20,20H200a20.02229,20.02229,0,0,0,20-20V92.15955C220.001,92.10583,220.00781,92.05389,220.00781,92ZM183.0293,80H160V56.97052ZM59.99219,212V44H136V92a12,12,0,0,0,12,12h48V212Zm104.49316-68.48535a12.0001,12.0001,0,0,1-16.9707,16.9707L140,152.9707V184a12,12,0,0,1-24,0V152.9707l-7.51465,7.51465a12.0001,12.0001,0,0,1-16.9707-16.9707l28-28c.00732-.00751.01562-.01361.02344-.02112q.40869-.40668.85546-.77313c.14161-.11658.291-.218.437-.327.16748-.12524.33154-.25512.50537-.37164.17383-.11633.35449-.21722.53271-.32349.15772-.09405.31153-.19317.47412-.28009.18164-.09729.36866-.17981.5542-.26709.16944-.07989.33594-.16449.50977-.23651.18115-.07513.3667-.13586.55078-.20172.18506-.06628.36768-.13733.55664-.19464.18652-.05646.376-.098.56445-.14514.19092-.04791.3794-.10156.57422-.1402.21973-.04358.44141-.06989.6626-.10114.1665-.02343.33008-.05535.498-.07189a12.07893,12.07893,0,0,1,2.373,0c.168.01654.33155.04846.49805.07189.22119.03125.44287.05756.6626.10114.19482.03864.3833.09229.57422.1402.18847.04718.37793.08868.56445.14514.189.05725.37109.12823.55566.1944.18457.06591.37061.12683.55225.20208.17334.072.33936.15638.50879.23609.18555.0874.37305.16992.55469.26739.16259.08692.3164.186.47412.28009.17822.10627.35888.20716.53271.32349.17383.11652.33789.2464.50537.37164.146.109.29541.21039.437.327q.44678.36612.85546.77313c.00782.00751.01612.01361.02344.02112Z"/>
</svg>
