<svg id="Flat" xmlns="http://www.w3.org/2000/svg" viewBox="0 0 256 256">
  <path d="M220.00781,92c0-.05225-.00732-.10254-.00781-.15479V88a12.00282,12.00282,0,0,0-3.51465-8.48535l-56-56A12.00282,12.00282,0,0,0,152,20H55.99219a20.02229,20.02229,0,0,0-20,20V216a20.02229,20.02229,0,0,0,20,20H200a20.02229,20.02229,0,0,0,20-20V92.15479C220.00049,92.10254,220.00781,92.05225,220.00781,92ZM183.0293,80H160V56.9707ZM59.99219,212V44H136V92a12.0006,12.0006,0,0,0,12,12h48V212ZM164,152a12.0006,12.0006,0,0,1-12,12H104a12,12,0,0,1,0-24h48A12.0006,12.0006,0,0,1,164,152Z"/>
</svg>
