<svg id="Flat" xmlns="http://www.w3.org/2000/svg" viewBox="0 0 256 256">
  <path d="M124,148H112a12.00028,12.00028,0,0,0-12,12v56a12.00028,12.00028,0,0,0,12,12h12c20.187,0,36-17.57031,36-40S144.187,148,124,148Zm0,56V172c6.729,0,12,7.02832,12,16S130.729,204,124,204Zm72-32v12h16a12,12,0,0,1,0,24H196v8a12,12,0,0,1-24,0V160a12.00028,12.00028,0,0,1,12-12h32a12,12,0,0,1,0,24ZM47.99219,136a12.00028,12.00028,0,0,0,12-12V52H136v48a12.00028,12.00028,0,0,0,12,12h48v12a12,12,0,0,0,24,0V100.15955c.001-.05372.00781-.10566.00781-.15955s-.00683-.10583-.00781-.15955V96a12.00282,12.00282,0,0,0-3.51465-8.48535l-56-56A12.002,12.002,0,0,0,152,28H55.99219a20.02229,20.02229,0,0,0-20,20v76A12.00028,12.00028,0,0,0,47.99219,136ZM183.0293,88H160V64.9707ZM56,148H40a12.00028,12.00028,0,0,0-12,12v56a12,12,0,0,0,24,0v-4h4a32,32,0,0,0,0-64Zm0,40H52V172h4a8,8,0,0,1,0,16Z"/>
</svg>
