<svg xmlns="http://www.w3.org/2000/svg" viewBox="0 0 256 256"><path d="M224,92a12.3,12.3,0,0,0-3.5-8.5l-56-56A12.3,12.3,0,0,0,156,24H52A20.1,20.1,0,0,0,32,44v80a12,12,0,0,0,24,0V48h80v52a12,12,0,0,0,12,12h52v96H180a12,12,0,0,0,0,24h24a20.1,20.1,0,0,0,20-20ZM160,57l31,31H160ZM88,164a12,12,0,0,1-12,12H68v44a12,12,0,0,1-24,0V176H36a12,12,0,0,1,0-24H76A12,12,0,0,1,88,164Zm64,41.4c0,16.2-11.4,26.6-29,26.6a36.2,36.2,0,0,1-23.2-8.8h0a12,12,0,0,1,8.2-20.8,12,12,0,0,1,8.2,3.2H116a12,12,0,0,0,7,2.5c3.1,0,4.5-.6,4.8-.8a3.7,3.7,0,0,0,.2-1.4c-1.6-1-5.4-2.1-7.8-2.8-8.5-2.5-24.2-7.2-24.2-24.4,0-15.4,11.4-26.6,27-26.6a36.2,36.2,0,0,1,23.2,8.8h0a12,12,0,0,1-8.2,20.8,12,12,0,0,1-8.2-3.2h.2a12,12,0,0,0-7-2.5c-2.3,0-2.8.6-3,1.6,1.7.8,4.9,1.7,7,2.4C135.8,182.6,152,187.4,152,205.4Z"/></svg>