<svg id="Flat" xmlns="http://www.w3.org/2000/svg" viewBox="0 0 256 256">
  <path d="M220.00781,88a11.9587,11.9587,0,0,0-3.59521-8.55811L160.48535,23.51465c-.0415-.04151-.0874-.07666-.12939-.11719-.23877-.23193-.48242-.458-.73975-.66943-.08105-.0669-.16894-.124-.25195-.189-.22656-.17627-.45313-.352-.6919-.51172-.07275-.04882-.15039-.08935-.22412-.13623-.25732-.16455-.5166-.32568-.78711-.4707-.04834-.02588-.09912-.04639-.148-.07178-.29882-.15478-.602-.30224-.915-.43213-.02978-.01269-.06152-.02148-.0913-.03369-.33057-.13379-.66651-.25683-1.01075-.36181-.03711-.01123-.07568-.01807-.11279-.02881-.33545-.09864-.67432-.1875-1.02148-.25684-.09864-.02-.19971-.02832-.29883-.0459-.28613-.0498-.57227-.10009-.86524-.1289A11.9082,11.9082,0,0,0,152,20H55.99219a20.02229,20.02229,0,0,0-20,20V216a20.02229,20.02229,0,0,0,20,20H200a20.02229,20.02229,0,0,0,20-20V88.15479C220.00049,88.10254,220.00781,88.05225,220.00781,88ZM164,60.9707,179.0293,76H164ZM59.99219,212V44H140V88a12.0006,12.0006,0,0,0,12,12h44V212ZM164,152a12.0006,12.0006,0,0,1-12,12H140v12a12,12,0,0,1-24,0V164H104a12,12,0,0,1,0-24h12V128a12,12,0,0,1,24,0v12h12A12.0006,12.0006,0,0,1,164,152Z"/>
</svg>
