<svg xmlns="http://www.w3.org/2000/svg" viewBox="0 0 256 256"><path d="M117.3,150.3a16,16,0,0,0-26.6,0L76.5,171.5l-3-4.8a16.1,16.1,0,0,0-27,0L13.9,217.5A12,12,0,0,0,24,236H152a12,12,0,0,0,10.6-6.3,12.2,12.2,0,0,0-.6-12.4ZM46,212l14-21.8,3,4.6a16,16,0,0,0,13.3,7.4h.1A15.8,15.8,0,0,0,89.7,195L104,173.6,129.6,212ZM216.5,79.5l-56-56A12.3,12.3,0,0,0,152,20H56A20.1,20.1,0,0,0,36,40v88a12,12,0,0,0,24,0V44h76V92a12,12,0,0,0,12,12h48V212a12,12,0,0,0,0,24h4a20.1,20.1,0,0,0,20-20V88A12.3,12.3,0,0,0,216.5,79.5ZM160,57l23,23H160Z"/></svg>