<svg xmlns="http://www.w3.org/2000/svg" viewBox="0 0 256 256"><path d="M220,92V88a12.3,12.3,0,0,0-3.5-8.5l-56-56A12.3,12.3,0,0,0,152,20H56A20.1,20.1,0,0,0,36,40V216a20.1,20.1,0,0,0,20,20H200a20.1,20.1,0,0,0,20-20V92ZM183,80H160V57ZM60,212V44h76V92a12,12,0,0,0,12,12h48V212Zm104.5-68.5a12,12,0,0,1,0,17,12.1,12.1,0,0,1-17,0L140,153v31a12,12,0,0,1-24,0V153l-7.5,7.5a12,12,0,0,1-17-17l28-28h0l.9-.8.4-.3.5-.4.6-.3.4-.3.6-.2.5-.3.6-.2.5-.2h.6l.6-.2h4.6l.6.2h.6l.5.2.6.2.5.3.6.2.4.3.6.3.5.4.4.3.9.8h0Z"/></svg>