<svg id="Flat" xmlns="http://www.w3.org/2000/svg" viewBox="0 0 256 256">
  <path d="M220.00781,92c0-.05389-.00683-.10583-.00781-.15955V88a11.99992,11.99992,0,0,0-3.51465-8.48535l-56-56A11.99992,11.99992,0,0,0,152,20H55.99219a20.0226,20.0226,0,0,0-20,20V216a20.02229,20.02229,0,0,0,20,20H200a20.02229,20.02229,0,0,0,20-20V92.15955C220.001,92.10583,220.00781,92.05389,220.00781,92ZM183.0293,80H160V56.97052ZM59.99219,212V44H136V92a12,12,0,0,0,12,12h48V212Zm104.49316-64.48535a11.99973,11.99973,0,0,1,0,16.9707l-28,28c-.01855.01856-.03906.03375-.05762.05213-.26269.25915-.53564.50769-.82128.74194-.14112.11615-.29.2171-.43555.3258-.168.1258-.33252.256-.50733.37305-.17138.11456-.34912.21393-.5249.31873-.16015.096-.31738.19684-.48291.28546-.17822.09527-.36133.176-.543.2616-.17334.08178-.34326.16821-.521.24182-.17676.07312-.35742.13214-.53711.19647-.18946.0683-.377.14111-.57129.2-.17969.05426-.36182.09393-.543.13965-.19824.05-.394.10541-.59619.14545-.2085.04138-.41944.06591-.62988.09619-.17676.02545-.35108.059-.53077.0766C128.79,195.97906,128.395,196,128,196s-.79-.02094-1.18359-.05975c-.17969-.01758-.354-.05115-.53077-.0766-.21044-.03028-.42138-.05481-.62988-.09619-.20215-.04-.39795-.09546-.59619-.14545-.18115-.04572-.36328-.08539-.543-.13965-.19433-.059-.38232-.13184-.57226-.20026-.1792-.06427-.35938-.12316-.53614-.19616-.17773-.07373-.34814-.16028-.52148-.24225-.18164-.08557-.36475-.16608-.54248-.26123-.16553-.08862-.32276-.18945-.48291-.28546-.17578-.1048-.35352-.20417-.5249-.31873-.17481-.117-.33936-.24725-.50733-.37305-.14551-.1087-.29443-.20965-.43555-.3258-.28564-.23425-.55859-.48279-.82128-.74194-.01856-.01838-.03907-.03357-.05762-.05213l-28-28a12.0001,12.0001,0,0,1,16.9707-16.9707L116,155.0293V124a12,12,0,0,1,24,0v31.0293l7.51465-7.51465A11.99975,11.99975,0,0,1,164.48535,147.51465Z"/>
</svg>
