<svg id="Flat" xmlns="http://www.w3.org/2000/svg" viewBox="0 0 256 256">
  <path d="M220.48535,59.51465l-40-40A11.99992,11.99992,0,0,0,172,16H92A20.0226,20.0226,0,0,0,72,36V56H56A20.0226,20.0226,0,0,0,36,76V216a20.0226,20.0226,0,0,0,20,20H164a20.0226,20.0226,0,0,0,20-20V196h20a20.0226,20.0226,0,0,0,20-20V68A12.002,12.002,0,0,0,220.48535,59.51465ZM160,212H60V80h67.0293L160,112.9707Zm40-40H184V108a12.002,12.002,0,0,0-3.51465-8.48535l-40-40A11.99992,11.99992,0,0,0,132,56H96V40h71.0293L200,72.9707Zm-56-28a12,12,0,0,1-12,12H88a12,12,0,0,1,0-24h44A12,12,0,0,1,144,144Zm0,40a12,12,0,0,1-12,12H88a12,12,0,0,1,0-24h44A12,12,0,0,1,144,184Z"/>
</svg>
