<svg xmlns="http://www.w3.org/2000/svg" viewBox="0 0 256 256"><path d="M220,92V88a12.3,12.3,0,0,0-3.5-8.5l-56-56A12.3,12.3,0,0,0,152,20H56A20.1,20.1,0,0,0,36,40V216a20.1,20.1,0,0,0,20,20H200a20.1,20.1,0,0,0,20-20V92ZM183,80H160V57ZM60,212V44h76V92a12,12,0,0,0,12,12h48V212Zm96.5-48.5A35.6,35.6,0,0,0,160,148a36,36,0,0,0-61.5-25.5,36.2,36.2,0,0,0,0,51h0a36.2,36.2,0,0,0,41,7l11.8,11.8a12.1,12.1,0,0,0,17,0,12,12,0,0,0,0-17Zm-41-7h0a12.1,12.1,0,0,1,0-17,12,12,0,0,1,17,0,12.1,12.1,0,0,1,0,17A12,12,0,0,1,115.5,156.5Z"/></svg>