<svg id="Flat" xmlns="http://www.w3.org/2000/svg" viewBox="0 0 256 256">
  <path d="M220,91.84521V88a12.00282,12.00282,0,0,0-3.51465-8.48535l-56-56A12.00282,12.00282,0,0,0,152,20H55.99219a20.02229,20.02229,0,0,0-20,20V216a20.02229,20.02229,0,0,0,20,20H200a20.02229,20.02229,0,0,0,20-20V92.15479c.00049-.05225.00781-.10254.00781-.15479S220.00049,91.89746,220,91.84521ZM160,56.9707,183.0293,80H160ZM196,212H59.99219V44H136V92a12.0006,12.0006,0,0,0,12,12h48Zm-56-72h12a12,12,0,0,1,0,24H140v12a12,12,0,0,1-24,0V164H104a12,12,0,0,1,0-24h12V128a12,12,0,0,1,24,0Z"/>
</svg>
