<svg xmlns="http://www.w3.org/2000/svg" viewBox="0 0 256 256"><path d="M232,220a12,12,0,0,1-12,12H188a12,12,0,0,1-12-12V164a12,12,0,0,1,12-12h32a12,12,0,0,1,0,24H200v4h16a12,12,0,0,1,0,24H200v4h20A12,12,0,0,1,232,220ZM80.4,152.8a12.1,12.1,0,0,0-15.6,6.8L54,187.2,43.2,159.6a12,12,0,1,0-22.4,8.8l22,56a12.1,12.1,0,0,0,22.4,0l22-56A12.1,12.1,0,0,0,80.4,152.8ZM32,124V44A20.1,20.1,0,0,1,52,24H156a12.3,12.3,0,0,1,8.5,3.5l56,56A12.3,12.3,0,0,1,224,92v32a12,12,0,0,1-24,0V112H148a12,12,0,0,1-12-12V48H56v76a12,12,0,0,1-24,0ZM160,57V88h31Zm-12,95a12,12,0,0,0-12,12v36a8,8,0,0,1-16,0V164a12,12,0,0,0-24,0v36a32,32,0,0,0,64,0V164A12,12,0,0,0,148,152Z"/></svg>