<svg xmlns="http://www.w3.org/2000/svg" viewBox="0 0 256 256"><path d="M44,136a12,12,0,0,0,12-12V48h80v52a12,12,0,0,0,12,12h52v12a12,12,0,0,0,24,0V92a12.3,12.3,0,0,0-3.5-8.5l-56-56A12.3,12.3,0,0,0,156,24H52A20.1,20.1,0,0,0,32,44v80A12,12,0,0,0,44,136ZM191,88H160V57ZM60,152H44a12,12,0,0,0-12,12v56a12,12,0,0,0,24,0v-4h4a32,32,0,0,0,0-64Zm0,40H56V176h4a8,8,0,0,1,0,16Zm72-40H116a12,12,0,0,0-12,12v56a12,12,0,0,0,24,0v-4h4a32,32,0,0,0,0-64Zm0,40h-4V176h4a8,8,0,0,1,0,16Zm100-28a12,12,0,0,1-12,12h-8v44a12,12,0,0,1-24,0V176h-8a12,12,0,0,1,0-24h40A12,12,0,0,1,232,164Z"/></svg>