<svg xmlns="http://www.w3.org/2000/svg" viewBox="0 0 256 256"><path d="M200,124a12,12,0,0,0,24,0V92a12.3,12.3,0,0,0-3.5-8.5l-56-56A12.3,12.3,0,0,0,156,24H52A20.1,20.1,0,0,0,32,44v80a12,12,0,0,0,24,0V48h80v52a12,12,0,0,0,12,12h52ZM160,57l31,31H160Zm-44,95H100a12,12,0,0,0-12,12v56a12,12,0,0,0,24,0v-4h4a32,32,0,0,0,0-64Zm0,40h-4V176h4a8,8,0,0,1,0,16ZM72,164v36a32,32,0,0,1-64,0,12,12,0,0,1,24,0,8,8,0,0,0,16,0V164a12,12,0,0,1,24,0Zm160,34.9v8a12.9,12.9,0,0,1-1.6,6.1c-7,11.9-19.1,19-32.4,19-21,0-38-17.9-38-40s17-40,38-40a37.1,37.1,0,0,1,20.8,6.5,12,12,0,0,1-13.6,19.8A12.8,12.8,0,0,0,198,176c-7.7,0-14,7.2-14,16s6.3,16,14,16a12.6,12.6,0,0,0,5.1-1.1,11.9,11.9,0,0,1-3.1-8,12,12,0,0,1,12-12h8A12,12,0,0,1,232,198.9Z"/></svg>