<svg xmlns="http://www.w3.org/2000/svg" viewBox="0 0 256 256"><path d="M256,220a12,12,0,0,1-12,12H220a12,12,0,0,1-12-12V164a12,12,0,0,1,24,0v44h12A12,12,0,0,1,256,220Zm-64.2-67.4a12.1,12.1,0,0,0-13.4,4.2L164,176l-14.4-19.2-.2-.2-.3-.4-.5-.5-.2-.2a10.7,10.7,0,0,0-1.6-1.4l-.3-.2-.6-.3-.4-.2-.6-.3-.4-.2-.7-.3h-.4l-.9-.2H60a11.9,11.9,0,0,0-11.9,10.8A4.9,4.9,0,0,0,48,164v16H32V164a12,12,0,0,0-24,0v56a12,12,0,0,0,24,0V204H48v16a12,12,0,0,0,24,0V176H88v44a12,12,0,0,0,24,0V176h16v44a12,12,0,0,0,24,0V200l2.4,3.2a12,12,0,0,0,19.2,0L176,200v20a12,12,0,0,0,24,0V164A12,12,0,0,0,191.8,152.6ZM212,136a12,12,0,0,1-12-12V112H148a12,12,0,0,1-12-12V48H56v76a12,12,0,0,1-24,0V44A20.1,20.1,0,0,1,52,24H156a12.3,12.3,0,0,1,8.5,3.5l56,56A12.3,12.3,0,0,1,224,92v32A12,12,0,0,1,212,136ZM160,88h31L160,57Z"/></svg>