<svg id="Flat" xmlns="http://www.w3.org/2000/svg" viewBox="0 0 256 256">
  <path d="M220.0083,88a11.958,11.958,0,0,0-3.60254-8.56494L160.48535,23.51465c-.02807-.02808-.05957-.05176-.08789-.07959-.25073-.24585-.50928-.48389-.78088-.707-.08094-.06653-.16809-.12329-.25061-.1875-.22681-.17688-.45435-.353-.69385-.51367-.07178-.04786-.148-.08765-.2207-.134-.25818-.16516-.51868-.32715-.78992-.47253-.04846-.02588-.09949-.04627-.14807-.07141-.29883-.155-.602-.30249-.915-.43238-.02991-.01245-.06128-.02124-.09143-.03344-.33045-.13416-.66651-.25733-1.011-.36206-.03625-.01111-.07385-.0177-.11023-.02832-.33594-.09888-.67615-.188-1.02368-.25745-.0979-.01965-.19824-.02808-.29663-.04529-.28711-.04993-.57385-.10034-.86755-.12939A11.98773,11.98773,0,0,0,152,20H55.99219a20.0226,20.0226,0,0,0-20,20V216a20.0226,20.0226,0,0,0,20,20H200a20.0226,20.0226,0,0,0,20-20V88.16431C220.00073,88.10913,220.0083,88.05542,220.0083,88ZM164,60.9707,179.0293,76H164ZM59.99219,212V44H140V88a12.00028,12.00028,0,0,0,12,12h44V212ZM159.47,166.50513a39.96641,39.96641,0,1,0-16.97974,16.96167l8.81739,8.81738a12.0001,12.0001,0,1,0,16.9707-16.9707Zm-46.78931-7.19165h-.00048a16.00024,16.00024,0,1,1,22.62744,0A16.01779,16.01779,0,0,1,112.68066,159.31348Z"/>
</svg>
