<svg id="Flat" xmlns="http://www.w3.org/2000/svg" viewBox="0 0 256 256">
  <path d="M220.00781,88a11.95785,11.95785,0,0,0-3.60156-8.56439l-55.9209-55.921c-.01172-.012-.02539-.02185-.03711-.03369-.26562-.26319-.54248-.51514-.83105-.75281-.083-.068-.17237-.12622-.25684-.192-.2251-.17529-.45068-.35009-.68847-.5094-.07227-.04834-.14893-.08825-.22217-.13513-.25733-.16455-.51709-.326-.7876-.47119-.05127-.02734-.10547-.04883-.15674-.07544-.2959-.15332-.59619-.29932-.90576-.4281-.03516-.01465-.07227-.025-.10742-.03943-.32569-.13159-.65625-.25329-.99561-.35644-.03955-.01209-.08056-.01929-.1206-.031-.333-.09753-.66944-.186-1.01416-.25488-.09815-.01966-.19873-.02808-.29737-.04541-.28662-.04981-.57324-.1001-.8667-.12915A11.97938,11.97938,0,0,0,152,20H55.99219a20.0226,20.0226,0,0,0-20,20V216a20.0226,20.0226,0,0,0,20,20H200a20.0226,20.0226,0,0,0,20-20V88.15955C220.001,88.10583,220.00781,88.05389,220.00781,88ZM164,60.97052,179.0293,76H164ZM59.99219,212V44H140V88a12,12,0,0,0,12,12h44V212ZM172,136a12,12,0,0,1-12,12H96a12,12,0,0,1,0-24h64A12,12,0,0,1,172,136Zm0,32a12,12,0,0,1-12,12H96a12,12,0,0,1,0-24h64A12,12,0,0,1,172,168Z"/>
</svg>
