<svg id="Flat" xmlns="http://www.w3.org/2000/svg" viewBox="0 0 256 256">
  <path d="M216,36H40A20.02229,20.02229,0,0,0,20,56V200a20.02229,20.02229,0,0,0,20,20H216a20.02229,20.02229,0,0,0,20-20V56A20.02229,20.02229,0,0,0,216,36ZM44,196V180h8a12,12,0,0,0,0-24H44V100h8a12,12,0,0,0,0-24H44V60H212V76h-8a12,12,0,0,0,0,24h8v56h-8a12,12,0,0,0,0,24h8v16ZM120,88a12.0006,12.0006,0,0,1-12,12H92a12,12,0,0,1,0-24h16A12.0006,12.0006,0,0,1,120,88Zm0,80a12.0006,12.0006,0,0,1-12,12H92a12,12,0,0,1,0-24h16A12.0006,12.0006,0,0,1,120,168Zm56-80a12.0006,12.0006,0,0,1-12,12H148a12,12,0,0,1,0-24h16A12.0006,12.0006,0,0,1,176,88Zm0,80a12.0006,12.0006,0,0,1-12,12H148a12,12,0,0,1,0-24h16A12.0006,12.0006,0,0,1,176,168Z"/>
</svg>
