<svg xmlns="http://www.w3.org/2000/svg" viewBox="0 0 256 256"><path d="M160,128a223.6,223.6,0,0,1-26.4,105.5,11.9,11.9,0,0,1-10.6,6.4,12.5,12.5,0,0,1-5.6-1.4,12,12,0,0,1-4.9-16.3A200.2,200.2,0,0,0,136,128a8,8,0,0,0-16,0,12,12,0,0,1-24,0,32,32,0,0,1,64,0ZM128,56a12,12,0,0,0,0,24,48,48,0,0,1,48,48c0,7.6-.4,15.3-1.1,22.9a11.9,11.9,0,0,0,10.8,13h1.2a12,12,0,0,0,11.9-10.9c.8-8.3,1.2-16.7,1.2-25.1A72.1,72.1,0,0,0,128,56ZM96,92.2A12,12,0,0,0,80,74.3,72,72,0,0,0,56,128a120.4,120.4,0,0,1-15.1,58.4,11.9,11.9,0,0,0,4.6,16.3,12.5,12.5,0,0,0,5.8,1.5,11.9,11.9,0,0,0,10.5-6.1A144.2,144.2,0,0,0,80,128,48.1,48.1,0,0,1,96,92.2Zm10.1,64.1a12,12,0,0,0-14.4,8.9,163,163,0,0,1-18.9,45.9,12,12,0,0,0,4,16.5,11.6,11.6,0,0,0,6.2,1.7,12,12,0,0,0,10.3-5.7A184.5,184.5,0,0,0,115,170.8,12,12,0,0,0,106.1,156.3Zm76.7,24.1a11.9,11.9,0,0,0-14.6,8.6,238.8,238.8,0,0,1-8,24.8,11.9,11.9,0,0,0,6.9,15.5,10.9,10.9,0,0,0,4.3.8,11.9,11.9,0,0,0,11.2-7.7,257.1,257.1,0,0,0,8.8-27.4A11.9,11.9,0,0,0,182.8,180.4ZM128,16A112.1,112.1,0,0,0,16,127.4v.6a79.5,79.5,0,0,1-5,27.8,12.2,12.2,0,0,0,7.1,15.5,12,12,0,0,0,15.4-7.1A102.9,102.9,0,0,0,40,128.6V128a88,88,0,0,1,176-.5v.5a286.6,286.6,0,0,1-6.7,61.4,11.9,11.9,0,0,0,9,14.3,12.4,12.4,0,0,0,2.7.3,12,12,0,0,0,11.7-9.4,304.3,304.3,0,0,0,7.3-66.1V128A112.1,112.1,0,0,0,128,16Z"/></svg>