<svg id="Flat" xmlns="http://www.w3.org/2000/svg" viewBox="0 0 256 256">
  <path d="M76.00586,128.0094a138.61861,138.61861,0,0,1-14.57129,62.25586,12.00011,12.00011,0,1,1-21.49023-10.68555A114.82912,114.82912,0,0,0,52.00586,128.0094,75.67981,75.67981,0,0,1,80.5,68.68323,12.00037,12.00037,0,1,1,95.51172,87.40979,51.79242,51.79242,0,0,0,76.00586,128.0094Zm52-12a12.0006,12.0006,0,0,0-12,12,180.11243,180.11243,0,0,1-22.46973,87.16015,12.00013,12.00013,0,1,0,20.98828,11.64063,204.18509,204.18509,0,0,0,25.48145-98.80078A12.0006,12.0006,0,0,0,128.00586,116.0094Zm0-32a44.04978,44.04978,0,0,0-44,44,12,12,0,0,0,24,0,20,20,0,1,1,40,0A210.13147,210.13147,0,0,1,127.877,218.29846a12.00024,12.00024,0,1,0,21.709,10.23438A233.95568,233.95568,0,0,0,172.00586,128.0094,44.04978,44.04978,0,0,0,128.00586,84.0094Zm0-64.001a108.12186,108.12186,0,0,0-108,108,83.80837,83.80837,0,0,1-4.77637,28.001,11.99946,11.99946,0,0,0,22.627,7.99805,107.69835,107.69835,0,0,0,6.14941-35.999,84,84,0,0,1,168,0,278.25488,278.25488,0,0,1-5.21484,53.67969,11.9999,11.9999,0,1,0,23.54687,4.64062,302.28375,302.28375,0,0,0,5.668-58.32031A108.12186,108.12186,0,0,0,128.00586,20.00842ZM95.19238,148.24866a11.99385,11.99385,0,0,0-14.14648,9.373,146.81275,146.81275,0,0,1-16.74805,44.23438A11.99962,11.99962,0,1,0,85.085,213.85022a170.71013,170.71013,0,0,0,19.48047-51.45508A11.9985,11.9985,0,0,0,95.19238,148.24866ZM128.00586,52.0094a76.72519,76.72519,0,0,0-9.48633.58789,11.99963,11.99963,0,1,0,2.97266,23.81445,52.89969,52.89969,0,0,1,6.51367-.40234,52.059,52.059,0,0,1,52,52,247.61421,247.61421,0,0,1-1.8877,30.51367,12,12,0,1,0,23.81543,2.9707,271.577,271.577,0,0,0,2.07227-33.48437A76.08645,76.08645,0,0,0,128.00586,52.0094Zm58.92676,128.37793a11.99755,11.99755,0,0,0-14.61231,8.62988c-1.44043,5.5957-3.10156,11.20508-4.93652,16.67188a12,12,0,1,0,22.75195,7.63867c2.01758-6.01074,3.84375-12.17676,5.42676-18.32813A11.99955,11.99955,0,0,0,186.93262,180.38733Z"/>
</svg>
