<svg id="Flat" xmlns="http://www.w3.org/2000/svg" viewBox="0 0 256 256">
  <path d="M187.98828,128.0094a250.60339,250.60339,0,0,1-18.835,95.75976,11.99984,11.99984,0,1,1-22.19727-9.125,226.72558,226.72558,0,0,0,17.03223-86.63476,12,12,0,0,1,24,0Zm-60-36a36.05918,36.05918,0,0,1,26.834,12.001,12.00047,12.00047,0,1,0,17.88281-16.00782A60.00108,60.00108,0,0,0,67.98828,128.0094a132.08817,132.08817,0,0,1-16.47461,63.91211,11.99965,11.99965,0,1,0,20.98828,11.63867A156.137,156.137,0,0,0,91.98828,128.0094,36.04062,36.04062,0,0,1,127.98828,92.0094Zm0-72a107.73588,107.73588,0,0,0-36,6.14844,12.00037,12.00037,0,1,0,7.998,22.6289,84.06621,84.06621,0,0,1,112.002,79.22266,277.61932,277.61932,0,0,1-6.83887,61.34375,11.99962,11.99962,0,1,0,23.4043,5.31055,301.60118,301.60118,0,0,0,7.43457-66.6543A108.12186,108.12186,0,0,0,127.98828,20.0094ZM71.99121,65.39514A11.99982,11.99982,0,1,0,55.98535,47.51233,108.163,108.163,0,0,0,19.98828,128.0094,83.30534,83.30534,0,0,1,12.377,163.00452a11.9998,11.9998,0,1,0,21.8125,10.00976,107.13728,107.13728,0,0,0,9.79883-45.00488A84.1376,84.1376,0,0,1,71.99121,65.39514Zm43.582,131.708a11.99981,11.99981,0,0,0-15.91211,5.90039c-1.88476,4.10547-3.95508,8.19824-6.15429,12.16406a12.0005,12.0005,0,1,0,20.99023,11.63867c2.49219-4.49511,4.83887-9.13476,6.97656-13.791A12.00011,12.00011,0,0,0,115.57324,197.10315Zm12.40332-81.09473a12.0006,12.0006,0,0,0-12,12,180.68721,180.68721,0,0,1-5.66992,45.00879,11.99988,11.99988,0,1,0,23.24219,5.98242,204.69951,204.69951,0,0,0,6.42773-50.99121A12.00059,12.00059,0,0,0,127.97656,116.00842Z"/>
</svg>
