<svg id="Flat" xmlns="http://www.w3.org/2000/svg" viewBox="0 0 256 256">
  <path d="M159.99414,128.00842a224.41136,224.41136,0,0,1-26.375,105.54A11.99944,11.99944,0,1,1,112.459,222.2262a200.34852,200.34852,0,0,0,23.53516-94.21778,8,8,0,1,0-16,0,12,12,0,0,1-24,0,32,32,0,1,1,64,0Zm-32-72a12,12,0,0,0,0,24,48.05375,48.05375,0,0,1,48,48c0,7.626-.36133,15.32129-1.07519,22.87207a12.00107,12.00107,0,0,0,10.81933,13.0752q.57568.05419,1.1416.05371a12.002,12.002,0,0,0,11.9336-10.87305c.7832-8.29687,1.18066-16.75195,1.18066-25.12793A72.08124,72.08124,0,0,0,127.99414,56.00842ZM95.99512,92.2301A12.00047,12.00047,0,1,0,79.9873,74.34729a72.10854,72.10854,0,0,0-23.99316,53.66113,120.056,120.056,0,0,1-15.124,58.36817,11.99966,11.99966,0,1,0,20.959,11.6914,144.10737,144.10737,0,0,0,18.165-70.05957A48.07643,48.07643,0,0,1,95.99512,92.2301Zm10.10351,64.10449a12.00243,12.00243,0,0,0-14.4541,8.89356,158.791,158.791,0,0,1-18.88379,45.86426,12.00013,12.00013,0,1,0,20.5,12.48047,182.77859,182.77859,0,0,0,21.73145-52.78418A12.00094,12.00094,0,0,0,106.09863,156.33459ZM182.834,180.4a11.99065,11.99065,0,0,0-14.64746,8.56934,238.99,238.99,0,0,1-7.99121,24.86523,12.00022,12.00022,0,1,0,22.41211,8.58594,263.0061,263.0061,0,0,0,8.7959-27.37305A11.99909,11.99909,0,0,0,182.834,180.4ZM128.00586,16.00842A112.12757,112.12757,0,0,0,16.00684,127.442c-.00782.1875-.0127.37695-.0127.5664a79.73234,79.73234,0,0,1-4.96875,27.82617,12.00022,12.00022,0,1,0,22.502,8.34766,103.62962,103.62962,0,0,0,6.46485-35.60547c.00879-.1875.01367-.37793.01367-.56836a88.00023,88.00023,0,0,1,175.999-.502c-.00683.166-.01074.334-.01074.502a281.644,281.644,0,0,1-6.74707,61.38184,12.00025,12.00025,0,1,0,23.42188,5.23828,305.67152,305.67152,0,0,0,7.32421-66.07422c.00879-.18066.0127-.36328.0127-.5459A112.12707,112.12707,0,0,0,128.00586,16.00842Z"/>
</svg>
