<svg xmlns="http://www.w3.org/2000/svg" viewBox="0 0 256 256"><path d="M188,128a250.9,250.9,0,0,1-18.8,95.8,12,12,0,0,1-11.1,7.4,12.2,12.2,0,0,1-4.6-.9,12,12,0,0,1-6.5-15.7A226.6,226.6,0,0,0,164,128a12,12,0,0,1,24,0ZM128,92a36.1,36.1,0,0,1,26.8,12,12,12,0,0,0,17.9-16A60,60,0,0,0,68,128a131.6,131.6,0,0,1-16.5,63.9,12,12,0,0,0,21,11.7A155.9,155.9,0,0,0,92,128,36,36,0,0,1,128,92Zm0-72a109.3,109.3,0,0,0-36,6.1,12,12,0,0,0,8,22.7A83.2,83.2,0,0,1,128,44a84.1,84.1,0,0,1,84,84,279.5,279.5,0,0,1-6.8,61.3,12,12,0,0,0,9,14.4,12.4,12.4,0,0,0,2.7.3,12.1,12.1,0,0,0,11.7-9.3A304.4,304.4,0,0,0,236,128,108.1,108.1,0,0,0,128,20ZM72,65.4A12,12,0,0,0,56,47.5,108.1,108.1,0,0,0,20,128a84.1,84.1,0,0,1-7.6,35,12,12,0,0,0,5.9,15.9,11,11,0,0,0,5,1.1,12,12,0,0,0,10.9-7A107.2,107.2,0,0,0,44,128,84,84,0,0,1,72,65.4Zm43.6,131.7A12,12,0,0,0,99.7,203c-1.9,4.1-4,8.2-6.2,12.2a12,12,0,1,0,21,11.6c2.5-4.5,4.8-9.1,7-13.8A12.1,12.1,0,0,0,115.6,197.1ZM128,116a12,12,0,0,0-12,12,179.1,179.1,0,0,1-5.7,45,12,12,0,0,0,8.6,14.6,10.8,10.8,0,0,0,3,.4,12.1,12.1,0,0,0,11.7-9,207.8,207.8,0,0,0,6.4-51A12,12,0,0,0,128,116Z"/></svg>