<svg id="Flat" xmlns="http://www.w3.org/2000/svg" viewBox="0 0 256 256">
  <path d="M168,88H88a44.04978,44.04978,0,0,0-44,44v16a44.04978,44.04978,0,0,0,44,44h80a44.04978,44.04978,0,0,0,44-44V132A44.04978,44.04978,0,0,0,168,88Zm20,60a20.02229,20.02229,0,0,1-20,20H88a20.02229,20.02229,0,0,1-20-20V132a20.02229,20.02229,0,0,1,20-20h80a20.02229,20.02229,0,0,1,20,20Zm-12-8a16,16,0,1,1-16-16A16.01833,16.01833,0,0,1,176,140Zm-64,0a16,16,0,1,1-16-16A16.01833,16.01833,0,0,1,112,140ZM212,28a36.06153,36.06153,0,0,0-33.94336,24H77.94336A36.00131,36.00131,0,0,0,8,64v88a76.08645,76.08645,0,0,0,76,76h88a76.08645,76.08645,0,0,0,76-76V64A36.04062,36.04062,0,0,0,212,28Zm12,124a52.059,52.059,0,0,1-52,52H84a52.059,52.059,0,0,1-52-52V64a12,12,0,0,1,24,0A11.99966,11.99966,0,0,0,68,76H188a11.99966,11.99966,0,0,0,12-12,12,12,0,0,1,24,0Z"/>
</svg>
