<svg xmlns="http://www.w3.org/2000/svg" viewBox="0 0 256 256"><path d="M168,88H88a44,44,0,0,0-44,44v16a44,44,0,0,0,44,44h80a44,44,0,0,0,44-44V132A44,44,0,0,0,168,88Zm20,60a20.1,20.1,0,0,1-20,20H88a20.1,20.1,0,0,1-20-20V132a20.1,20.1,0,0,1,20-20h80a20.1,20.1,0,0,1,20,20Zm-12-8a16,16,0,1,1-16-16A16,16,0,0,1,176,140Zm-64,0a16,16,0,1,1-16-16A16,16,0,0,1,112,140ZM212,28a36,36,0,0,0-33.9,24H77.9A36,36,0,0,0,8,64v88a76.1,76.1,0,0,0,76,76h88a76.1,76.1,0,0,0,76-76V64A36,36,0,0,0,212,28Zm12,124a52,52,0,0,1-52,52H84a52,52,0,0,1-52-52V64a12,12,0,0,1,24,0A12,12,0,0,0,68,76H188a12,12,0,0,0,12-12,12,12,0,0,1,24,0Z"/></svg>