<svg id="Flat" xmlns="http://www.w3.org/2000/svg" viewBox="0 0 256 256">
  <path d="M200.39721,64.47754c-13.28711-21.16016-30.3125-39.2207-45.21484-54.09766a11.9998,11.9998,0,0,0-19.3125,3.333L107.0061,74.32715,78.574,55.37305a11.99921,11.99921,0,0,0-16.65625,3.35058C41.98706,88.76953,31.88159,116.11426,31.88159,140a96,96,0,0,0,192,0C223.88159,114.34766,216.19946,89.64355,200.39721,64.47754ZM127.88159,212a72.08124,72.08124,0,0,1-72-72c0-16.55664,6.59375-35.97168,19.62109-57.83008l29.72266,19.81445a12.00061,12.00061,0,0,0,17.49072-4.82519l27.40967-57.55957C177.22436,68.46289,199.88159,100.74512,199.88159,140A72.08124,72.08124,0,0,1,127.88159,212Z"/>
</svg>
