<svg id="Flat" xmlns="http://www.w3.org/2000/svg" viewBox="0 0 256 256">
  <path d="M128,244a92.10447,92.10447,0,0,1-92-92c0-23.99023,7.89355-48.54,23.46191-72.9668a11.99917,11.99917,0,0,1,17.44336-3.05664L98.32861,92.48242l26.39405-72.583a11.99977,11.99977,0,0,1,18.64453-5.37207C146.49609,16.96191,220,75.0166,220,152A92.10447,92.10447,0,0,1,128,244ZM73.0835,103.3291C64.39453,119.92188,60,136.24707,60,152a68,68,0,0,0,136,0c0-47.543-35.27-88.34277-54.771-107.26562l-25.95166,71.36621a11.99959,11.99959,0,0,1-18.60107,5.40527Z"/>
</svg>
