<svg id="Flat" xmlns="http://www.w3.org/2000/svg" viewBox="0 0 256 256">
  <path d="M168,144a12,12,0,0,1-12,12H140v16a12,12,0,0,1-24,0V156H100a12,12,0,0,1,0-24h16V116a12,12,0,0,1,24,0v16h16A12,12,0,0,1,168,144Zm68.00781-64V208a20.02229,20.02229,0,0,1-20,20h-176a20.02229,20.02229,0,0,1-20-20V80a20.02229,20.02229,0,0,1,20-20H76V52a28.03146,28.03146,0,0,1,28-28h48a28.03146,28.03146,0,0,1,28,28v8h36.00781A20.02229,20.02229,0,0,1,236.00781,80ZM100,60h56V52a4.00458,4.00458,0,0,0-4-4H104a4.00458,4.00458,0,0,0-4,4ZM212.00781,84h-168V204h168Z"/>
</svg>
