<svg xmlns="http://www.w3.org/2000/svg" viewBox="0 0 256 256"><path d="M172,76a16,16,0,1,1-16-16A16,16,0,0,1,172,76Zm36.9,86c-20.9,26.4-53.9,41-98.2,43.5L90.9,249A11.9,11.9,0,0,1,80,256h-.8a12.1,12.1,0,0,1-10.7-8.5L54.4,201.6,8.5,187.4A11.9,11.9,0,0,1,0,176.7,12.2,12.2,0,0,1,7,165l43.5-19.7C52.9,101,67.6,68,94,47.1c42.5-33.4,102.3-23.8,119.6-20a20,20,0,0,1,15.3,15.3C232.7,59.7,242.3,119.5,208.9,162Zm-54,10.4A59.8,59.8,0,0,1,125,131a59.8,59.8,0,0,1-41.4-29.9q-8.7,21.9-9.4,52.4a12,12,0,0,1-7.1,10.6l-21.3,9.7,21.7,6.7a12.3,12.3,0,0,1,8,8l6.7,21.7,9.7-21.4a11.9,11.9,0,0,1,10.6-7Q133,181.1,154.9,172.4ZM206,50c-17.3-3.4-64.6-9.6-97.1,16a68.4,68.4,0,0,0-8.8,8.2A36,36,0,0,0,136,108a12,12,0,0,1,12,12,36,36,0,0,0,33.8,35.9,68.4,68.4,0,0,0,8.2-8.8C215.6,114.6,209.4,67.4,206,50Z"/></svg>