<svg id="Flat" xmlns="http://www.w3.org/2000/svg" viewBox="0 0 256 256">
  <path d="M140,76a16,16,0,1,1,16,16A16.00016,16.00016,0,0,1,140,76Zm60.99121,94.80957C174.46,197.2793,133.15527,208.77588,77.78027,205.20605q2.269,15.43434,5.94239,32.2295a11.99988,11.99988,0,1,1-23.44532,5.1289Q55.71728,221.719,53.208,202.75635q-18.94337-2.51222-39.77442-7.07031a12.0003,12.0003,0,0,1,5.13282-23.44532q16.76806,3.67091,32.19824,5.94287c-3.55371-55.355,7.94922-96.648,34.416-123.17236,42.42579-42.51807,109.00391-32.125,128.39844-27.92676A20.07072,20.07072,0,0,1,228.915,42.42041C233.11328,61.81494,243.50781,128.39014,200.99121,170.80957ZM116.16553,60.93042a83.92637,83.92637,0,0,0,78.884,78.90649c7.59424-12.33593,12.17749-27.344,13.63892-44.85693A169.03534,169.03534,0,0,0,205.97754,50.019C189.52612,46.76392,147.97,41.36133,116.16553,60.93042ZM128.3584,179.51953c18.95166-3.074,34.71435-9.22485,47.04272-18.31152A108.30347,108.30347,0,0,1,94.79,80.5874C85.69556,92.918,79.53857,108.686,76.46094,127.646c-2.53321,15.60058-3.0127,33.42529-1.44922,53.31152C94.916,182.52832,112.74805,182.05176,128.3584,179.51953Z"/>
</svg>
