<svg id="Flat" xmlns="http://www.w3.org/2000/svg" viewBox="0 0 256 256">
  <path d="M172,76a16,16,0,1,1-16-16A16.00016,16.00016,0,0,1,172,76Zm36.85156,85.9668c-20.82422,26.45361-53.8291,41.08008-98.18457,43.53174L90.92578,248.9624A12,12,0,0,1,80.00391,256q-.38379,0-.77051-.02441a12.00138,12.00138,0,0,1-10.70313-8.44678L54.39746,201.59619,8.46387,187.43066a12.00031,12.00031,0,0,1-1.42578-22.39355l43.4414-19.72656c2.46289-44.34619,17.09473-77.34546,43.54981-98.165C136.52148,13.70605,196.294,23.34082,213.60059,27.08984a20.03743,20.03743,0,0,1,15.30957,15.30787C232.66016,59.70728,242.294,119.48193,208.85156,161.9668ZM154.8623,172.42188a60.17709,60.17709,0,0,1-29.85351-41.43067,60.17512,60.17512,0,0,1-41.43994-29.86963q-8.64441,21.876-9.396,52.34473a11.99834,11.99834,0,0,1-7.03418,10.63818l-21.38476,9.71094,21.78222,6.71728a12.00138,12.00138,0,0,1,7.9336,7.93848l6.69238,21.751L91.875,188.83691a12.00022,12.00022,0,0,1,10.64062-7.03418Q132.93567,181.08057,154.8623,172.42188ZM205.97949,50.02051c-17.3291-3.42212-64.61328-9.5874-97.10742,15.98511a74.41818,74.41818,0,0,0-8.7998,8.17529A36.04148,36.04148,0,0,0,136,108a12.00028,12.00028,0,0,1,12,12,36.04157,36.04157,0,0,0,33.80957,35.927,74.37442,74.37442,0,0,0,8.18359-8.80469C215.56738,114.63281,209.40137,67.35083,205.97949,50.02051Z"/>
</svg>
