<svg xmlns="http://www.w3.org/2000/svg" viewBox="0 0 256 256"><path d="M221.4,37.3a12,12,0,0,0-12.6,1.1c-26.4,19.8-48.3,10.5-76.1-1.4S70.3,10.2,32.8,38.4A12.2,12.2,0,0,0,28,48h0V216a12,12,0,0,0,24,0V174.3c24.3-15.4,45.2-6.4,71.3,4.7,16.7,7.2,34.7,14.9,54.1,14.9,14.5,0,29.8-4.3,45.8-16.3A12.1,12.1,0,0,0,228,168V48A12.1,12.1,0,0,0,221.4,37.3ZM204,68.7V99.9c-12.5,7.9-24.1,9.3-36,7.4v-34A70.6,70.6,0,0,0,204,68.7Zm-60-1.3V99.9l-11.3-4.8c-6.7-2.9-13.6-5.8-20.7-8.3V54.3L123.3,59C130,61.9,136.9,64.9,144,67.4ZM88,46.9V80.8a69.6,69.6,0,0,0-36,4.7V54.3C64.5,46.4,76.1,44.9,88,46.9ZM52,147.3V112.4c12.5-7.9,24.1-9.3,36-7.4v37.7A70.6,70.6,0,0,0,52,147.3Zm60,1.3V112.4l11.3,4.8c6.7,2.8,13.6,5.8,20.7,8.3v36.2L132.7,157C126,154.1,119.1,151.1,112,148.6Zm56,20.5V131.5c3.1.3,6.3.6,9.4.6a70,70,0,0,0,26.6-5.3v34.9C191.5,169.6,179.9,171.1,168,169.1Z"/></svg>