<svg id="Flat" xmlns="http://www.w3.org/2000/svg" viewBox="0 0 256 256">
  <path d="M221.36523,37.27112a11.99992,11.99992,0,0,0-12.5664,1.13379c-26.44824,19.83691-48.34766,10.45214-76.07227-1.42969C103.4873,24.444,70.34863,10.24182,32.79883,38.40491c-.07129.05346-.13379.11425-.20362.16919-.16308.12817-.32128.261-.47753.39746-.15284.13281-.30274.26709-.44678.40625-.126.12182-.24756.2478-.36817.37475-.15527.16358-.3081.32813-.45312.49878-.09961.11768-.19385.2395-.28906.36109-.146.18579-.28955.37255-.42285.56543-.0879.1267-.16944.25781-.25245.38793-.12255.19288-.24414.386-.355.58448-.08447.15063-.16064.30591-.23877.46045-.09326.1853-.18652.37011-.26953.55932-.07861.17774-.14746.35987-.21728.542-.06739.17578-.13477.35058-.19385.529-.064.19409-.11865.3916-.17285.58984-.04883.17847-.09717.3562-.1377.53638-.04345.19263-.07812.38769-.1123.58374-.03418.19849-.06641.39673-.09082.59643-.02149.17725-.03662.35547-.05078.53516-.01758.22827-.02979.4563-.03467.68555-.00147.07934-.01172.15649-.01172.23633v168a12,12,0,0,0,24,0V174.29187c24.34766-15.36353,45.24219-6.41187,71.27148,4.74194,16.74707,7.17774,34.77149,14.90235,54.17286,14.90235,14.47265,0,29.71191-4.29883,45.75488-16.332a11.99837,11.99837,0,0,0,4.7998-9.59961v-120A12.00163,12.00163,0,0,0,221.36523,37.27112ZM203.999,161.71936c-24.3457,15.36621-45.24218,6.41113-71.27246-4.74414C108.57471,146.62341,81.76172,135.13513,52,147.32288v-93.031C76.34766,38.92834,97.24219,47.88,123.27148,59.03381c24.15235,10.35254,50.96094,21.84278,80.72754,9.6543Z"/>
</svg>
