<svg id="Flat" xmlns="http://www.w3.org/2000/svg" viewBox="0 0 256 256">
  <path d="M176.68945,48.72363A225.39453,225.39453,0,0,0,134.17383,13.71a12.00324,12.00324,0,0,0-12.34766,0A225.39453,225.39453,0,0,0,79.31055,48.72363C50.97656,78.47461,36,111.4209,36,144a92,92,0,0,0,184,0C220,111.4209,205.02344,78.47461,176.68945,48.72363ZM100,184c0-13.32617,5.53418-26.2627,16.44824-38.4502a93.37731,93.37731,0,0,1,11.55127-10.82714,93.32566,93.32566,0,0,1,11.55225,10.82714C150.46582,157.7373,156,170.67383,156,184a28,28,0,0,1-56,0Zm79.83545,3.94189C179.93359,186.639,180,185.32751,180,184c0-46.2627-43.95508-73.167-45.82617-74.29a12.00324,12.00324,0,0,0-12.34766,0C119.95508,110.833,76,137.7373,76,184c0,1.32751.06641,2.639.16455,3.94189A67.68369,67.68369,0,0,1,60,144c0-26.5166,12.207-52.8584,36.28223-78.29492a212.83468,212.83468,0,0,1,31.72021-27.31446C145.81836,50.8584,196,90.71387,196,144A67.68369,67.68369,0,0,1,179.83545,187.94189Z"/>
</svg>
