<svg xmlns="http://www.w3.org/2000/svg" viewBox="0 0 256 256"><path d="M176.7,48.7a228.5,228.5,0,0,0-42.5-35,12,12,0,0,0-12.4,0,228.5,228.5,0,0,0-42.5,35C51,78.5,36,111.4,36,144a92,92,0,0,0,184,0C220,111.4,205,78.5,176.7,48.7ZM100,184c0-13.3,5.5-26.3,16.4-38.5A106.9,106.9,0,0,1,128,134.7a106.9,106.9,0,0,1,11.6,10.8C150.5,157.7,156,170.7,156,184a28,28,0,0,1-56,0Zm79.8,3.9c.1-1.3.2-2.6.2-3.9,0-46.3-44-73.2-45.8-74.3a12,12,0,0,0-12.4,0C120,110.8,76,137.7,76,184c0,1.3.1,2.6.2,3.9A67.4,67.4,0,0,1,60,144c0-26.5,12.2-52.9,36.3-78.3A214.3,214.3,0,0,1,128,38.4c17.8,12.5,68,52.3,68,105.6A67.4,67.4,0,0,1,179.8,187.9Z"/></svg>