<svg id="Flat" xmlns="http://www.w3.org/2000/svg" viewBox="0 0 256 256">
  <path d="M184.00244,12h-112a20.02229,20.02229,0,0,0-20,20V77.333a20.13115,20.13115,0,0,0,4,12.001l20,26.665V224a20.02229,20.02229,0,0,0,20,20h64a20.02229,20.02229,0,0,0,20-20V115.999l20.00195-26.667a20.13217,20.13217,0,0,0,3.99805-11.999V32A20.02229,20.02229,0,0,0,184.00244,12Zm-4,24V52h-104V36Zm-20.00195,66.668a20.13217,20.13217,0,0,0-3.99805,11.999V220h-56V114.667a20.13115,20.13115,0,0,0-4-12.001l-20-26.665V76h104v.001ZM140.00244,120v32a12,12,0,0,1-24,0V120a12,12,0,0,1,24,0Z"/>
</svg>
