<svg id="Flat" xmlns="http://www.w3.org/2000/svg" viewBox="0 0 256 256">
  <path d="M222.14258,77.17151,178.83105,33.861a19.86751,19.86751,0,0,0-14.14453-5.86133H48a20.02229,20.02229,0,0,0-20,20v160a20.02229,20.02229,0,0,0,20,20H208a20.02229,20.02229,0,0,0,20-20V91.31409A19.86906,19.86906,0,0,0,222.14258,77.17151ZM204,203.99963H52v-152H84V96.0094a12.0006,12.0006,0,0,0,12,12h64a12,12,0,0,0,0-24H108V51.99963h55.02832L204,92.97034ZM128.00586,116.0094a40,40,0,1,0,40,40A40.04583,40.04583,0,0,0,128.00586,116.0094Zm0,56a16,16,0,1,1,16-16A16.01833,16.01833,0,0,1,128.00586,172.0094Z"/>
</svg>
