<svg id="Flat" xmlns="http://www.w3.org/2000/svg" viewBox="0 0 256 256">
  <path d="M222.14258,77.17151,178.83105,33.861a19.86751,19.86751,0,0,0-14.14453-5.86133H48a20.02229,20.02229,0,0,0-20,20v160a20.02229,20.02229,0,0,0,20,20H208a20.02229,20.02229,0,0,0,20-20V91.31409A19.86906,19.86906,0,0,0,222.14258,77.17151ZM204,203.99963H52v-152H88V92.0094a12.0006,12.0006,0,0,0,12,12h56a12,12,0,0,0,0-24H112V51.99963h51.02832L204,92.97034Zm-76-84a36,36,0,1,0,36,36A36.04062,36.04062,0,0,0,128,119.99963Zm0,48a12,12,0,1,1,12-12A12.01312,12.01312,0,0,1,128,167.99963Z"/>
</svg>
