<svg id="Flat" xmlns="http://www.w3.org/2000/svg" viewBox="0 0 256 256">
  <path d="M222.14258,77.17151,178.83105,33.861a19.86751,19.86751,0,0,0-14.14453-5.86133H48a20.02229,20.02229,0,0,0-20,20v160a20.02229,20.02229,0,0,0,20,20H79.82593c.05859.001.11523.00879.17407.00879s.11548-.00781.17407-.00879h95.65186c.05859.001.11523.00879.17407.00879s.11548-.00781.17407-.00879H208a20.02229,20.02229,0,0,0,20-20V91.31409A19.86906,19.86906,0,0,0,222.14258,77.17151ZM164,203.99963H92V156.00842h72Zm40,0H188V152.00842a20.02229,20.02229,0,0,0-20-20H88a20.02229,20.02229,0,0,0-20,20v51.99121H52v-152H163.02832L204,92.97034ZM164,80.0094a12.0006,12.0006,0,0,1-12,12H96a12,12,0,0,1,0-24h56A12.0006,12.0006,0,0,1,164,80.0094Z"/>
</svg>
