<svg id="Flat" xmlns="http://www.w3.org/2000/svg" viewBox="0 0 256 256">
  <path d="M208,27.99963H91.31348A19.86718,19.86718,0,0,0,77.17139,33.858l-43.312,43.3125A19.86748,19.86748,0,0,0,28,91.31409V207.99963a20.0226,20.0226,0,0,0,20,20H208a20.0226,20.0226,0,0,0,20-20v-160A20.0226,20.0226,0,0,0,208,27.99963Zm-4,176H52V92.97034L92.97119,51.99963H148V68.0094H104a12,12,0,0,0,0,24h56a12.00028,12.00028,0,0,0,12-12V51.99963h32ZM128.00586,108.0094a40,40,0,1,0,40,40A40.04551,40.04551,0,0,0,128.00586,108.0094Zm0,56a16,16,0,1,1,16-16A16.01833,16.01833,0,0,1,128.00586,164.0094Z"/>
</svg>
