<svg id="Flat" xmlns="http://www.w3.org/2000/svg" viewBox="0 0 256 256">
  <path d="M210.35352,129.3584c-.80664-.46582-1.67286-.916-2.56788-1.3584.895-.44238,1.76124-.89258,2.56836-1.3584a40.00063,40.00063,0,0,0-40.00048-69.2832c-.80713.46582-1.63038.99121-2.46094,1.54541C167.95654,57.90723,168,56.93213,168,56a40,40,0,0,0-80,0c0,.93213.04346,1.90723.10742,2.90381-.83105-.55371-1.6543-1.07959-2.46142-1.54541a40.00039,40.00039,0,0,0-39.99952,69.2832c.80664.46582,1.67286.916,2.56788,1.3584-.895.44238-1.76124.89258-2.56836,1.3584a40.00063,40.00063,0,0,0,40.00048,69.2832c.80713-.46582,1.63038-.99121,2.46094-1.54541C88.04346,198.09277,88,199.06787,88,200a40,40,0,0,0,80,0c0-.93213-.04346-1.90723-.10742-2.90381.83105.55371,1.6543,1.07959,2.46142,1.54541a40.00039,40.00039,0,0,0,39.99952-69.2832ZM112,128a16,16,0,1,1,16,16A16.01833,16.01833,0,0,1,112,128Zm70.35352-49.85645a16,16,0,0,1,16,27.7129c-3.60352,2.08056-12.46387,5.63134-32.94483,7.999a40.011,40.011,0,0,0-6.46338-11.16895C171.24072,86.125,178.74854,80.22461,182.35352,78.14355ZM128,40a16.01833,16.01833,0,0,1,16,16c0,4.16162-1.35547,13.61035-9.54395,32.52832a39.7105,39.7105,0,0,0-12.9121,0C113.35547,69.61035,112,60.16162,112,56A16.01833,16.01833,0,0,1,128,40ZM51.79,84a16.01975,16.01975,0,0,1,21.85644-5.85645c3.6045,2.08106,11.1128,7.98145,23.40821,24.543a40.011,40.011,0,0,0-6.46338,11.16895c-20.481-2.36768-29.34131-5.91846-32.94483-7.999A16.018,16.018,0,0,1,51.79,84Zm21.85644,93.85645a16,16,0,0,1-16-27.7129c3.60352-2.08056,12.46387-5.63134,32.94483-7.999a40.011,40.011,0,0,0,6.46338,11.16895C84.75928,169.875,77.25146,175.77539,73.64648,177.85645ZM128,216a16.01833,16.01833,0,0,1-16-16c0-4.16162,1.35547-13.61035,9.54395-32.52832a39.7105,39.7105,0,0,0,12.9121,0C142.64453,186.38965,144,195.83838,144,200A16.01833,16.01833,0,0,1,128,216Zm76.21-44a16.016,16.016,0,0,1-21.85644,5.85645c-3.6045-2.08106-11.1128-7.98145-23.40821-24.543a40.011,40.011,0,0,0,6.46338-11.16895c20.481,2.36768,29.34131,5.91846,32.94483,7.999A16.018,16.018,0,0,1,204.21,172Z"/>
</svg>
