<svg id="Flat" xmlns="http://www.w3.org/2000/svg" viewBox="0 0 256 256">
  <path d="M249.27832,87.6084c.12354-.15039.23145-.30908.34668-.46387.11816-.15869.24121-.31348.35156-.478.12012-.18017.2251-.3667.335-.55127.08985-.15185.18555-.2998.269-.456.09961-.18555.18408-.377.27343-.56689.07764-.16553.16016-.32764.23047-.49756.07666-.18457.13867-.37354.20557-.561.06494-.18164.13476-.36084.19141-.54687.05712-.189.0996-.38135.14746-.57325.04687-.188.10009-.374.13818-.56543.04395-.22168.07031-.44482.10156-.668.02344-.165.05518-.32666.07129-.49366a12.042,12.042,0,0,0,0-2.373c-.01611-.167-.04785-.32862-.07129-.49366-.03125-.22314-.05761-.44628-.10156-.668-.03809-.19141-.09131-.37745-.13818-.56543-.04786-.1919-.09034-.38428-.14746-.57373-.05665-.18555-.12647-.36475-.19141-.54639-.0669-.1875-.12891-.37647-.20557-.56152-.07031-.16944-.15283-.33155-.231-.49708-.08887-.18994-.17334-.38134-.273-.56689-.0835-.15625-.1792-.3042-.269-.456-.10986-.18457-.21484-.3711-.335-.55127-.11035-.16455-.2334-.31934-.35156-.478-.11523-.15479-.22314-.31348-.34668-.46387-.22412-.27295-.46289-.53271-.71-.78467-.02881-.02978-.05322-.0625-.083-.09228l-40-40a12.0001,12.0001,0,0,0-16.9707,16.9707L211.0293,68H176a60.06812,60.06812,0,0,0-60,60,36.04178,36.04178,0,0,1-33.86475,35.93115,39.99529,39.99529,0,1,0,.042,24.01367A60.0622,60.0622,0,0,0,140,128a36.04061,36.04061,0,0,1,36-36h35.0293l-19.51465,19.51465a12.0001,12.0001,0,0,0,16.9707,16.9707l40-40c.02979-.02978.0542-.0625.083-.09228C248.81543,88.14111,249.0542,87.88135,249.27832,87.6084ZM44,192a16,16,0,1,1,16-16A16.01833,16.01833,0,0,1,44,192Z"/>
</svg>
