<svg xmlns="http://www.w3.org/2000/svg" viewBox="0 0 256 256"><path d="M210.4,129.4l-2.6-1.4,2.6-1.4a40,40,0,0,0-40-69.2,12.8,12.8,0,0,0-2.5,1.5c.1-1,.1-2,.1-2.9a40,40,0,0,0-80,0c0,.9,0,1.9.1,2.9a20.7,20.7,0,0,0-2.5-1.5,40,40,0,1,0-40,69.2l2.6,1.4-2.6,1.4A40,40,0,0,0,65.7,204a38.7,38.7,0,0,0,19.9-5.4,12.8,12.8,0,0,0,2.5-1.5c-.1,1-.1,2-.1,2.9a40,40,0,0,0,80,0c0-.9,0-1.9-.1-2.9a20.7,20.7,0,0,0,2.5,1.5,38.7,38.7,0,0,0,19.9,5.4,40,40,0,0,0,20.1-74.6ZM112,128a16,16,0,1,1,16,16A16,16,0,0,1,112,128Zm70.4-49.9a16,16,0,0,1,16,27.8c-3.6,2-12.5,5.6-33,8a36.9,36.9,0,0,0-6.5-11.2C171.2,86.1,178.7,80.2,182.4,78.1ZM128,40a16,16,0,0,1,16,16c0,4.2-1.4,13.6-9.5,32.5a42.5,42.5,0,0,0-13,0C113.4,69.6,112,60.2,112,56A16,16,0,0,1,128,40ZM51.8,84a16,16,0,0,1,21.8-5.9c3.7,2.1,11.2,8,23.5,24.6a36.9,36.9,0,0,0-6.5,11.2c-20.5-2.4-29.4-6-33-8A16.1,16.1,0,0,1,51.8,84Zm21.8,93.9a16,16,0,0,1-16-27.8c3.6-2,12.5-5.6,33-8a36.9,36.9,0,0,0,6.5,11.2C84.8,169.9,77.3,175.8,73.6,177.9ZM128,216a16,16,0,0,1-16-16c0-4.2,1.4-13.6,9.5-32.5a42.5,42.5,0,0,0,13,0c8.1,18.9,9.5,28.3,9.5,32.5A16,16,0,0,1,128,216Zm76.2-44a16,16,0,0,1-21.8,5.9c-3.7-2.1-11.2-8-23.5-24.6a36.9,36.9,0,0,0,6.5-11.2c20.5,2.4,29.4,6,33,8A16.1,16.1,0,0,1,204.2,172Z"/></svg>