<svg id="Flat" xmlns="http://www.w3.org/2000/svg" viewBox="0 0 256 256">
  <path d="M245.04785,112.41162A20.0339,20.0339,0,0,0,228.74707,104H220V88a20.02229,20.02229,0,0,0-20-20H132L105.333,48a20.12292,20.12292,0,0,0-12-4H40A20.02229,20.02229,0,0,0,20,64V208c0,.30371.02344.60107.04541.89893.00635.0874.00488.17529.01318.26269a11.937,11.937,0,0,0,.21289,1.36426c.01465.06885.03663.13623.05274.20508q.13257.56835.3164,1.11474c.03809.11133.08057.22071.12159.33155.12256.32959.2583.65087.4082.9663.05127.10791.10107.21582.15576.32227a11.99671,11.99671,0,0,0,.61865,1.07178c.02149.03271.03663.06787.05811.1001l.01514.02a12.13931,12.13931,0,0,0,.82324,1.08692c.08252.09717.1709.187.25635.28174.21777.2417.44384.47509.68066.69824.10938.10351.22022.2041.3335.30322.248.21729.50586.42188.77148.61817.09424.06982.18506.144.28174.21045a11.93751,11.93751,0,0,0,1.16162.71777l.00781.00342a11.85845,11.85845,0,0,0,1.22022.562c.10156.04053.20556.07519.30859.11279q.48706.17945.99219.3169c.12646.03466.25244.06738.37988.09765.33106.07813.667.14014,1.00781.19043.12354.01807.24512.04151.36914.05615A12.05041,12.05041,0,0,0,32,220H208a11.99976,11.99976,0,0,0,11.334-8.05762l28.30323-81.37158A20.03509,20.03509,0,0,0,245.04785,112.41162ZM92,68l26.667,20a20.12292,20.12292,0,0,0,12,4H196v12H146.42188a19.94076,19.94076,0,0,0-11.09376,3.35889L116.3667,120H69.31152a19.95865,19.95865,0,0,0-18.43261,12.23877L44,148.57715V68ZM199.46875,196H50.07324l21.89453-52h45.61035a19.94076,19.94076,0,0,0,11.09376-3.35889L147.6333,128h75.48779Z"/>
</svg>
