<svg id="Flat" xmlns="http://www.w3.org/2000/svg" viewBox="0 0 256 256">
  <path d="M245.12549,108.30566A20.05027,20.05027,0,0,0,228.90039,100H220V88a20.02229,20.02229,0,0,0-20-20H132L105.333,48a20.12292,20.12292,0,0,0-12-4H40A20.02229,20.02229,0,0,0,20,64V208a12.08343,12.08343,0,0,0,.06836,1.26807c.00439.04248.01416.08447.01953.12744a11.86667,11.86667,0,0,0,.20606,1.21679c.02441.10987.05615.21778.08349.32666.08545.33741.18262.66944.2959.99463.04053.11719.0835.2334.12744.34912q.18971.49586.42188.96827c.04638.0957.08886.19189.13769.28662a12.00315,12.00315,0,0,0,1.52,2.24951c.09082.10644.187.20654.28076.30957.21192.23047.43067.45312.65967.667.10938.10156.21826.20313.33106.30078.25732.22315.52539.43262.80126.63379.082.05957.16016.12451.24366.18213a12.0048,12.0048,0,0,0,1.15918.708c.03808.02.07812.03613.1167.05615a11.9718,11.9718,0,0,0,1.10644.50391c.10694.04248.21582.0791.32373.11865q.47754.17358.97217.30762c.12646.03418.25244.06738.37988.09765.32862.07666.6626.13721,1.001.187.12207.01758.24219.041.36523.05567A12.12,12.12,0,0,0,32,220H208a12.00025,12.00025,0,0,0,11.38428-8.20508L247.874,126.32471A20.05037,20.05037,0,0,0,245.12549,108.30566ZM92,68l26.667,20a20.12292,20.12292,0,0,0,12,4H196v8H146.42188a19.94076,19.94076,0,0,0-11.09376,3.35889L116.3667,116H69.416a19.90411,19.90411,0,0,0-18.56934,12.57227L44,145.689V68ZM199.35059,196H49.72461l22.3999-56h45.45361a19.94076,19.94076,0,0,0,11.09376-3.35889L147.6333,124h75.71729Z"/>
</svg>
