<svg id="Flat" xmlns="http://www.w3.org/2000/svg" viewBox="0 0 256 256">
  <path d="M245.04785,112.41162A20.0339,20.0339,0,0,0,228.74707,104H220V88a20.02229,20.02229,0,0,0-20-20H132L105.333,48a20.12292,20.12292,0,0,0-12-4H40A20.02229,20.02229,0,0,0,20,64V208c0,.05225.00732.103.00781.15527.002.15625.01563.311.02344.4668.01563.29785.03711.59375.07373.88574.01856.14844.043.29492.06738.44239q.07545.46142.18506.91015c.03174.12891.063.25684.09863.38477.09424.334.20362.66113.32471.98291.03467.09131.064.18359.10059.27392a11.94175,11.94175,0,0,0,1.27832,2.3545c.02148.03125.03808.06543.06006.09667.05175.07276.11328.13526.1665.207.18945.2539.38672.50048.59522.73828q.1516.17284.30859.33935c.20947.22119.42822.43262.65381.63721.10107.09229.19873.1875.30322.27588a12.02982,12.02982,0,0,0,2.18213,1.47266c.0874.04589.17773.08447.2666.12841.30859.15235.62305.29346.94629.41944.11621.04541.2334.08691.35107.1289q.45777.16187.93067.28662c.12646.0337.252.06836.37988.09766.32275.07422.65088.13184.98242.1792.11963.01709.23682.04053.35694.0542A12.089,12.089,0,0,0,32,220H208a11.99976,11.99976,0,0,0,11.334-8.05762l28.30323-81.37207A20.03429,20.03429,0,0,0,245.04785,112.41162ZM92,68l26.667,20a20.12292,20.12292,0,0,0,12,4H196v12H69.6875a20.01558,20.01558,0,0,0-18.88965,13.42969L44,136.97266V68ZM199.46875,196H48.87891l23.65234-68H223.12109Z"/>
</svg>
