<svg id="Flat" xmlns="http://www.w3.org/2000/svg" viewBox="0 0 256 256">
  <path d="M224,60H156L129.333,40a20.12292,20.12292,0,0,0-12-4H72A20.0226,20.0226,0,0,0,52,56V68H40A20.0226,20.0226,0,0,0,20,88V200a20.0226,20.0226,0,0,0,20,20H192.88867A19.13289,19.13289,0,0,0,212,200.88867V188h12.88867A19.13289,19.13289,0,0,0,244,168.88867V80A20.0226,20.0226,0,0,0,224,60ZM188,196H44V92H84l26.667,20a20.12292,20.12292,0,0,0,12,4H188Zm32-32h-8V112a20.0226,20.0226,0,0,0-20-20H124L97.333,72a20.12292,20.12292,0,0,0-12-4H76V60h40l26.667,20a20.12292,20.12292,0,0,0,12,4H220Z"/>
</svg>
