<svg xmlns="http://www.w3.org/2000/svg" viewBox="0 0 256 256"><path d="M216.3,194.3a36,36,0,1,0-56.6,0A43.7,43.7,0,0,0,145.4,217a11.9,11.9,0,0,0,8.6,14.6,10.3,10.3,0,0,0,3,.4,12,12,0,0,0,11.6-9,20,20,0,0,1,38.8,0,12,12,0,1,0,23.2-6A43.7,43.7,0,0,0,216.3,194.3ZM176,172a12,12,0,1,1,12,12A12,12,0,0,1,176,172Zm60-84v20a12,12,0,0,1-24,0V92H130.7a19.9,19.9,0,0,1-12-4L92,68H44V196h68a12,12,0,0,1,0,24H40a20.1,20.1,0,0,1-20-20V64A20.1,20.1,0,0,1,40,44H93.3a19.9,19.9,0,0,1,12,4L132,68h84A20.1,20.1,0,0,1,236,88Z"/></svg>