<svg xmlns="http://www.w3.org/2000/svg" viewBox="0 0 256 256"><path d="M216.3,194.3a36,36,0,1,0-56.6,0A43.7,43.7,0,0,0,145.4,217a11.9,11.9,0,0,0,8.6,14.6,10.3,10.3,0,0,0,3,.4,12,12,0,0,0,11.6-9,20,20,0,0,1,38.8,0,12,12,0,1,0,23.2-6A43.7,43.7,0,0,0,216.3,194.3ZM176,172a12,12,0,1,1,12,12A12,12,0,0,1,176,172ZM216,68H133.4l-26-29.3a20,20,0,0,0-15-6.7H40A20.1,20.1,0,0,0,20,52V200.6A19.4,19.4,0,0,0,39.4,220h73.2a12,12,0,1,0,0-24H44V92H212v16a12,12,0,0,0,24,0V88A20.1,20.1,0,0,0,216,68ZM44,68V56H90.6l10.7,12Z"/></svg>