<svg id="Flat" xmlns="http://www.w3.org/2000/svg" viewBox="0 0 256 256">
  <path d="M245.12549,108.30566A20.05027,20.05027,0,0,0,228.90039,100H220V88a20.02229,20.02229,0,0,0-20-20H132L105.333,48a20.12292,20.12292,0,0,0-12-4H40A20.02229,20.02229,0,0,0,20,64V208c0,.07617.00977.1499.01123.22607.00342.16944.01563.33741.02588.50586.01709.28614.042.56885.0791.84912.02.15186.043.30225.06885.45362q.07983.46288.19482.9126c.03076.12207.05908.24414.09375.36523.10352.36035.22412.7124.35938,1.05811.02441.062.043.12548.06836.187a11.938,11.938,0,0,0,.58642,1.22705c.021.03857.04639.07422.06787.1123q.29224.51563.63233.99756c.02783.03955.04883.08252.07715.12207.05224.07227.11377.13428.16748.20508q.27759.36694.58056.71191c.10108.11426.20215.22754.30713.33789.21387.22413.438.4375.66846.64454.09521.08544.186.17529.2832.25781a12.0621,12.0621,0,0,0,1.04492.79248l.02295.01416a11.99237,11.99237,0,0,0,1.10987.65283c.09619.05029.19482.09326.292.14063q.4497.22045.91748.4038c.11865.04639.23828.08887.35791.13135q.45264.15894.9209.28174c.12646.0332.25146.06787.3789.09717.32178.07373.64893.13037.98.17724.11767.01709.23339.04053.352.05372A12.09406,12.09406,0,0,0,32,220H208a12.00025,12.00025,0,0,0,11.38428-8.20508L247.874,126.32471A20.05037,20.05037,0,0,0,245.12549,108.30566ZM92,68l26.667,20a20.12292,20.12292,0,0,0,12,4H196v8H69.76611A19.97622,19.97622,0,0,0,50.792,113.67578L44,134.05225V68ZM199.35059,196H48.64941l23.99952-72H223.35059Z"/>
</svg>
