<svg xmlns="http://www.w3.org/2000/svg" viewBox="0 0 256 256"><path d="M245,112.4a19.8,19.8,0,0,0-16.3-8.4H220V88a20.1,20.1,0,0,0-20-20H132L105.3,48a19.9,19.9,0,0,0-12-4H40A20.1,20.1,0,0,0,20,64V208h0a12.2,12.2,0,0,0,2,6.6A11.9,11.9,0,0,0,32,220H208a11.8,11.8,0,0,0,11.3-8.1l28.3-81.3A19.7,19.7,0,0,0,245,112.4ZM92,68l26.7,20a19.9,19.9,0,0,0,12,4H196v12H146.4a20.1,20.1,0,0,0-11.1,3.4L116.4,120H69.3a19.9,19.9,0,0,0-18.4,12.2L44,148.6V68ZM199.5,196H50.1L72,144h45.6a20.1,20.1,0,0,0,11.1-3.4L147.6,128h75.5Z"/></svg>