<svg xmlns="http://www.w3.org/2000/svg" viewBox="0 0 256 256"><path d="M20,80V64A20.1,20.1,0,0,1,40,44H93.3a19.9,19.9,0,0,1,12,4l29.9,22.4a12,12,0,0,1,2.4,16.8,12,12,0,0,1-16.8,2.4L92,68H44V80a12,12,0,0,1-24,0ZM88,196H44v-4a12,12,0,0,0-24,0v8.6A19.4,19.4,0,0,0,39.4,220H88a12,12,0,0,0,0-24Zm72,0H128a12,12,0,0,0,0,24h32a12,12,0,0,0,0-24Zm64-56a12,12,0,0,0-12,12v44H200a12,12,0,0,0,0,24h16.9A19.2,19.2,0,0,0,236,200.9V152A12,12,0,0,0,224,140Zm-8-72H168a12,12,0,0,0,0,24h44v20a12,12,0,0,0,24,0V88A20.1,20.1,0,0,0,216,68ZM32,164a12,12,0,0,0,12-12V120a12,12,0,0,0-24,0v32A12,12,0,0,0,32,164Z"/></svg>