<svg id="Flat" xmlns="http://www.w3.org/2000/svg" viewBox="0 0 256 256">
  <path d="M229.92383,55.64258a36.13423,36.13423,0,0,0-29.56641-29.56641c-32.1123-5.4375-92.6626-7.8789-137.41113,36.87012-44.74854,44.74853-42.30811,105.2998-36.87012,137.41113a36.13481,36.13481,0,0,0,29.56641,29.56641,204.81979,204.81979,0,0,0,33.96094,2.897c31.88037,0,71.65576-7.97266,103.45019-39.76709C237.80225,148.30518,235.36182,87.75391,229.92383,55.64258ZM206.26074,59.6499a188.33271,188.33271,0,0,1,2.30506,19.94531L176.38721,47.4165a188.94148,188.94148,0,0,1,19.96338,2.32276A12.11223,12.11223,0,0,1,206.26074,59.6499ZM49.73926,196.35059a188.30726,188.30726,0,0,1-2.30506-19.9458L79.595,208.56543a188.29841,188.29841,0,0,1-19.94556-2.30469A12.11226,12.11226,0,0,1,49.73926,196.35059ZM176.083,176.0835c-10.91907,10.91943-31.41309,26.14209-63.8794,31.1499l-63.437-63.4375c5.00781-32.46582,20.231-52.96,31.15039-63.8794C90.83618,68.99707,111.33618,53.78076,143.802,48.773l63.4314,63.43115C202.22559,144.66992,187.00244,165.16406,176.083,176.0835Zm-7.59766-88.56885a12.00062,12.00062,0,0,1,0,16.9707l-12.20117,12.20117,6.14209,6.14209a11.99993,11.99993,0,0,1-16.9707,16.97022l-6.14185-6.1416-5.657,5.65673,6.14209,6.14209a11.99993,11.99993,0,0,1-16.97071,16.97022l-6.14184-6.14209-12.20093,12.20117a12.0001,12.0001,0,0,1-16.9707-16.9707l12.20117-12.20117-6.14209-6.14209a11.99993,11.99993,0,0,1,16.9707-16.97022l6.14185,6.1416,5.65686-5.65673-6.142-6.14209a11.99993,11.99993,0,0,1,16.9707-16.97022l6.14185,6.14209,12.20093-12.20117A12.00062,12.00062,0,0,1,168.48535,87.51465Z"/>
</svg>
