<svg id="Flat" xmlns="http://www.w3.org/2000/svg" viewBox="0 0 256 256">
  <path d="M112.00244,237.05762A20.01473,20.01473,0,0,1,92,217.05176V140.63965L27.28564,69.4541A20.00033,20.00033,0,0,1,42.08447,36H213.91553a20.00008,20.00008,0,0,1,14.79931,33.45312L164,140.63965v55.0791a19.95861,19.95861,0,0,1-8.90723,16.6416l-31.999,21.332A19.97037,19.97037,0,0,1,112.00244,237.05762ZM51.12646,60l59.67237,65.63965A19.95228,19.95228,0,0,1,116,139.09277v70.48438l24-15.999V139.09277a19.95374,19.95374,0,0,1,5.2041-13.45605L204.87354,60ZM93.043,141.78711h0ZM213.91553,60h0Z"/>
</svg>
