<svg id="Flat" xmlns="http://www.w3.org/2000/svg" viewBox="0 0 256 256">
  <path d="M184,120H152a12,12,0,0,1,0-24h32a12,12,0,0,1,0,24ZM104,96h-4V92a12,12,0,0,0-24,0v4H72a12,12,0,0,0,0,24h4v4a12,12,0,0,0,24,0v-4h4a12,12,0,0,0,0-24ZM218.95068,227.3877a40.02324,40.02324,0,0,1-35.22509-11.09961q-.31862-.31788-.60889-.6543l-39.43823-43.78027-31.29419.125L72.87305,215.65527q-.28125.3252-.58936.63282A40.00194,40.00194,0,0,1,4.6123,181.04883c.01221-.06934.02491-.1377.03858-.20606L20.92871,97.124c.01172-.07519.02393-.14941.03711-.22461A63.86162,63.86162,0,0,1,84.00439,44l87.978-.25977h.03565a64.09219,64.09219,0,0,1,62.94409,52.49561c.01379.06543.03491.127.04761.19287l16.35058,84.42285c.0127.06543.0249.13086.03662.19727A40.04585,40.04585,0,0,1,218.95068,227.3877Zm-46.98047-79.64747a40,40,0,1,0,.0625-80L84.03955,68a39.90989,39.90989,0,0,0-39.36182,32.64258c-.02929.20605-.06347.41211-.104.61816L28.23242,185.30566a16.001,16.001,0,0,0,26.88184,14.20606L98.14014,151.9502A11.99923,11.99923,0,0,1,106.99121,148Zm55.80616,37.56153-7.00464-36.167A63.88711,63.88711,0,0,1,175.771,171.62109l25.13086,27.89746a16.00117,16.00117,0,0,0,26.87451-14.21679Z"/>
</svg>
