<svg xmlns="http://www.w3.org/2000/svg" viewBox="0 0 256 256"><path d="M184,120H152a12,12,0,0,1,0-24h32a12,12,0,0,1,0,24ZM104,96h-4V92a12,12,0,0,0-24,0v4H72a12,12,0,0,0,0,24h4v4a12,12,0,0,0,24,0v-4h4a12,12,0,0,0,0-24ZM219,227.4a42.3,42.3,0,0,1-7,.6,40.4,40.4,0,0,1-28.3-11.7l-.6-.7-39.4-43.7H112.4L72.9,215.7l-.6.6A40,40,0,0,1,4.6,181v-.2L20.9,97.1v-.2A63.7,63.7,0,0,1,84,44l88-.3h0a64.2,64.2,0,0,1,63,52.5v.2l16.4,84.5h0A40.1,40.1,0,0,1,219,227.4Zm-47-79.7a40,40,0,1,0,0-80L84,68a39.9,39.9,0,0,0-39.3,32.6,1.7,1.7,0,0,0-.1.7l-16.4,84a16,16,0,0,0,26.9,14.2l43-47.5a11.8,11.8,0,0,1,8.9-4Zm55.8,37.6-7-36.2a63.5,63.5,0,0,1-45,22.5l25.1,27.9a16,16,0,0,0,26.9-14.2Z"/></svg>