<svg id="Flat" xmlns="http://www.w3.org/2000/svg" viewBox="0 0 256 256">
  <path d="M247.79883,66.82812,228.48535,47.51465a12.0001,12.0001,0,0,0-16.9707,16.9707l19.313,19.3125A3.97339,3.97339,0,0,1,232,86.62695V168a4.00427,4.00427,0,0,1-4,4h-4a4.00427,4.00427,0,0,1-4-4V128a28.03146,28.03146,0,0,0-28-28H180V56a28.03146,28.03146,0,0,0-28-28H72A28.03146,28.03146,0,0,0,44,56V204H32a12,12,0,0,0,0,24H192a12,12,0,0,0,0-24H180V124h12a4.00427,4.00427,0,0,1,4,4v40a28.03146,28.03146,0,0,0,28,28h4a28.03146,28.03146,0,0,0,28-28V86.62695A27.81778,27.81778,0,0,0,247.79883,66.82812ZM68,204V56a4.00427,4.00427,0,0,1,4-4h80a4.00427,4.00427,0,0,1,4,4V204Zm72-92a12.00028,12.00028,0,0,1-12,12H96a12,12,0,0,1,0-24h32A12.00028,12.00028,0,0,1,140,112Z"/>
</svg>
