<svg id="Flat" xmlns="http://www.w3.org/2000/svg" viewBox="0 0 256 256">
  <path d="M209.88184,77.833A115.21754,115.21754,0,0,0,128.00391,44H128c-.13525,0-.27393.001-.40918.001-52.22021.18017-96.45557,35.48681-110.73975,83.63769a11.91964,11.91964,0,0,0-1.27783,4.6377A117.77,117.77,0,0,0,12,161.12891V184a20.02229,20.02229,0,0,0,20,20h71.41211l.02441.001.01758-.001H224a20.02229,20.02229,0,0,0,20-20V160A115.22314,115.22314,0,0,0,209.88184,77.833ZM220,180H127.77881l53.57226-69.81641a11.99974,11.99974,0,1,0-19.04052-14.60937L97.52832,180H36V161.12891a94.41666,94.41666,0,0,1,.91846-13.11084l18.4292,4.938a11.99969,11.99969,0,1,0,6.21142-23.18164L43.27441,124.875C55.78369,95.0752,83.21338,73.14014,116,68.79V88a12,12,0,0,0,24,0V68.7959a92.20842,92.20842,0,0,1,73.04834,55.99267l-18.60742,4.98584a11.9997,11.9997,0,1,0,6.21142,23.18164l18.54981-4.97021A93.44487,93.44487,0,0,1,220,160Z"/>
</svg>
