<svg xmlns="http://www.w3.org/2000/svg" viewBox="0 0 256 256"><path d="M209.9,77.8A115.4,115.4,0,0,0,128,44h-.4c-52.2.2-96.5,35.5-110.7,83.6A11.7,11.7,0,0,0,16,130a5.9,5.9,0,0,0-.4,2.3A114.2,114.2,0,0,0,12,161.1V184a20.1,20.1,0,0,0,20,20H224a20.1,20.1,0,0,0,20-20V160A115.3,115.3,0,0,0,209.9,77.8ZM220,180H127.8l53.6-69.8a12,12,0,0,0-19.1-14.6L97.5,180H36V161.1a95,95,0,0,1,.9-13.1l18.4,5a17.5,17.5,0,0,0,3.2.4,12,12,0,0,0,3.1-23.6l-18.3-4.9C55.8,95.1,83.2,73.1,116,68.8V88a12,12,0,0,0,24,0V68.8a91.4,91.4,0,0,1,52.9,26,90.5,90.5,0,0,1,20.1,30l-18.6,5a12,12,0,0,0,3.1,23.6,17.5,17.5,0,0,0,3.2-.4l18.5-5a94.2,94.2,0,0,1,.8,12Z"/></svg>