<svg id="Flat" xmlns="http://www.w3.org/2000/svg" viewBox="0 0 256.00098 256.00098">
  <path d="M128,72a56,56,0,1,0,56,56A56.06353,56.06353,0,0,0,128,72Zm0,88a32,32,0,1,1,32-32A32.03635,32.03635,0,0,1,128,160Zm107.60156-15.20166-11.60742-15.477c.00586-.44043.00879-.88135.00879-1.32031q0-.66064-.00879-1.32373l11.60254-15.4751a20.03732,20.03732,0,0,0,3.09717-17.96631,115.6853,115.6853,0,0,0-7.82373-18.91016,20.04532,20.04532,0,0,0-14.90528-10.53125l-19.15136-2.73584q-.46143-.47387-.92774-.94043-.46654-.46655-.94238-.9292l-2.73828-19.14941a20.04019,20.04019,0,0,0-10.51367-14.89209,115.71063,115.71063,0,0,0-18.9043-7.83887,20.04867,20.04867,0,0,0-17.98584,3.09229l-15.477,11.60791c-.88281-.01123-1.76074-.01172-2.64356.00049l-15.478-11.60547a20.04275,20.04275,0,0,0-17.96436-3.09473,115.63046,115.63046,0,0,0-18.9082,7.82373A20.04125,20.04125,0,0,0,63.79736,40.0376L61.06152,59.18994q-.4746.46143-.94043.92725-.46655.46728-.9292.94238L40.042,63.79785A20.04009,20.04009,0,0,0,25.15039,74.312a115.70923,115.70923,0,0,0-7.83887,18.90381,20.04389,20.04389,0,0,0,3.09278,17.98584l11.60742,15.477c-.00586.44043-.00879.88135-.00879,1.32031q0,.66064.00879,1.32373l-11.60254,15.4751A20.03732,20.03732,0,0,0,17.312,162.76416a115.6853,115.6853,0,0,0,7.82373,18.91016A20.04532,20.04532,0,0,0,40.041,192.20557l19.15136,2.73584q.46143.47387.92774.94043.46655.46654.94238.9292l2.73828,19.14941a20.04017,20.04017,0,0,0,10.51367,14.89209,115.71063,115.71063,0,0,0,18.9043,7.83887,20.02762,20.02762,0,0,0,17.98584-3.09229l15.47705-11.60791c.88281.01221,1.76074.0127,2.64356-.00049l15.478,11.60547a20.04447,20.04447,0,0,0,17.96436,3.09473,115.63046,115.63046,0,0,0,18.9082-7.82373A20.04125,20.04125,0,0,0,192.2085,215.9624l2.73584-19.15234q.4746-.46143.94043-.92725.46654-.46728.92919-.94238l19.14991-2.73828a20.04009,20.04009,0,0,0,14.8916-10.51416,115.71011,115.71011,0,0,0,7.83887-18.90381A20.044,20.044,0,0,0,235.60156,144.79834Zm-25.083,23.93848-21.30078,3.04589a12.00242,12.00242,0,0,0-7.28222,3.92041c-.96582,1.09034-1.98243,2.16993-3.02344,3.21094-1.03125,1.03174-2.11133,2.04883-3.209,3.022a12.0028,12.0028,0,0,0-3.918,7.28173l-3.043,21.30176a91.67205,91.67205,0,0,1-11.19727,4.6333L140.3291,202.24512a12.02874,12.02874,0,0,0-7.91894-2.37744,73.74072,73.74072,0,0,1-8.81495,0,12.038,12.038,0,0,0-7.92089,2.37841L98.46,215.15771a91.71554,91.71554,0,0,1-11.19385-4.64209l-3.04638-21.30029a11.99668,11.99668,0,0,0-3.91895-7.28125c-1.09375-.96972-2.17383-1.98681-3.20849-3.021-1.03907-1.03955-2.05616-2.12012-3.02344-3.21094a12.00018,12.00018,0,0,0-7.28369-3.91992l-21.30176-3.043A91.57852,91.57852,0,0,1,40.85059,157.542l12.90722-17.21533a11.99868,11.99868,0,0,0,2.37744-7.9209c-.08789-1.456-.13232-2.939-.13232-4.40674,0-1.46679.04443-2.94922.13184-4.40673a12.00027,12.00027,0,0,0-2.37793-7.9209L40.8457,98.457a91.74139,91.74139,0,0,1,4.6416-11.19385l21.30079-3.04589a12.00242,12.00242,0,0,0,7.28222-3.92041c.96582-1.09034,1.98242-2.16993,3.02344-3.21094,1.03125-1.03174,2.11133-2.04883,3.209-3.022a12.00276,12.00276,0,0,0,3.918-7.28173l3.043-21.30176a91.67205,91.67205,0,0,1,11.19727-4.6333l17.21484,12.90771a12.02031,12.02031,0,0,0,7.91992,2.37744,73.74055,73.74055,0,0,1,8.81494,0,12.01757,12.01757,0,0,0,7.9209-2.37841L157.5459,40.84229a91.71554,91.71554,0,0,1,11.19385,4.64209l3.04638,21.30029a11.99668,11.99668,0,0,0,3.91895,7.28125c1.09375.96972,2.17383,1.98681,3.20849,3.021,1.03907,1.03955,2.05616,2.12012,3.02344,3.21094a12.00018,12.00018,0,0,0,7.28369,3.91992l21.30176,3.043A91.57852,91.57852,0,0,1,215.15527,98.458l-12.90722,17.21533a11.99868,11.99868,0,0,0-2.37744,7.9209c.08789,1.45605.13232,2.939.13232,4.40674,0,1.46679-.04443,2.94922-.13184,4.40673a12.00027,12.00027,0,0,0,2.37793,7.9209L215.16016,157.543A91.73987,91.73987,0,0,1,210.51855,168.73682Z"/>
</svg>
