<svg id="Flat" xmlns="http://www.w3.org/2000/svg" viewBox="0 0 256.00098 256.00098">
  <path d="M128.00293,72a56,56,0,1,0,56,56A56.06353,56.06353,0,0,0,128.00293,72Zm0,88a32,32,0,1,1,32-32A32.03635,32.03635,0,0,1,128.00293,160Zm110.00586-11.99463L223.93945,129.249c.002-.84863-.00293-1.69287-.01172-2.4834L238.002,108.001a11.99881,11.99881,0,0,0,1.98535-10.32715,115.45165,115.45165,0,0,0-11.34375-27.41065,11.99789,11.99789,0,0,0-8.709-5.90234l-23.12109-3.30225q-.92212-.947-1.87012-1.87011l-3.30078-23.11036a12.00235,12.00235,0,0,0-5.89844-8.70654,115.47523,115.47523,0,0,0-27.40332-11.36084,12.00031,12.00031,0,0,0-10.33252,1.98438L129.32471,32.00977q-1.3235-.01758-2.645,0L108.00391,18.00244A12.00515,12.00515,0,0,0,97.67676,16.0166,115.4794,115.4794,0,0,0,70.26562,27.36035a11.99959,11.99959,0,0,0-5.90185,8.709L61.062,59.19043q-.94774.92213-1.8706,1.87061L36.08105,64.36133a11.99962,11.99962,0,0,0-8.70654,5.89844A115.45879,115.45879,0,0,0,16.01367,97.66406a12.00012,12.00012,0,0,0,1.98438,10.33155L32.06738,126.752c-.002.84864.00293,1.69287.01172,2.4834L18.00488,148a11.99887,11.99887,0,0,0-1.98535,10.32715,115.452,115.452,0,0,0,11.34375,27.41064,11.99792,11.99792,0,0,0,8.709,5.90235l23.12109,3.30224q.92213.947,1.87012,1.87012l3.30078,23.11035a12.0023,12.0023,0,0,0,5.89844,8.70654A115.47482,115.47482,0,0,0,97.666,239.99023a11.99932,11.99932,0,0,0,10.33252-1.98437l18.68359-14.01465q1.32348.01758,2.645,0l18.67578,14.00733a11.99937,11.99937,0,0,0,10.32715,1.98584,115.47953,115.47953,0,0,0,27.41113-11.34376,11.99957,11.99957,0,0,0,5.90186-8.709L194.958,196.7207c.60058-.59863,1.19433-1.19922,1.74707-1.76416l23.2207-3.31689a12.00008,12.00008,0,0,0,8.70654-5.89844,115.45845,115.45845,0,0,0,11.36084-27.4043A12.00009,12.00009,0,0,0,238.00879,148.00537Zm-27.49121,20.73438-21.29834,3.04248a12.00121,12.00121,0,0,0-7.042,3.65576c-1.67139,1.77539-4.90479,5.10742-6.46631,6.49023a11.99757,11.99757,0,0,0-3.92481,7.28858l-3.04248,21.30273a91.422,91.422,0,0,1-11.20117,4.63379L140.333,202.24561a11.99588,11.99588,0,0,0-7.92822-2.37842,72.69112,72.69112,0,0,1-8.8003,0,11.99935,11.99935,0,0,0-7.92871,2.37842L98.46143,215.1582a91.55374,91.55374,0,0,1-11.19727-4.64355l-3.0415-21.29688a12.00259,12.00259,0,0,0-3.92481-7.28808,72.73156,72.73156,0,0,1-6.22314-6.22266,12.00012,12.00012,0,0,0-7.2876-3.92383l-21.30274-3.04248a91.48689,91.48689,0,0,1-4.63427-11.20117l12.90869-17.21094a11.99756,11.99756,0,0,0,2.39453-7.56543c-.07373-2.43261-.14355-7.07129-.0166-9.16113a11.99878,11.99878,0,0,0-2.37842-7.9292L40.8457,98.4585a91.50864,91.50864,0,0,1,4.64356-11.19727l21.29687-3.0415a12.00147,12.00147,0,0,0,7.28809-3.92481,72.7074,72.7074,0,0,1,6.22168-6.22217,11.99751,11.99751,0,0,0,3.9248-7.28857l3.04248-21.30273a91.419,91.419,0,0,1,11.20118-4.63379l17.20947,12.90771a12.00846,12.00846,0,0,0,7.92822,2.37842,72.88744,72.88744,0,0,1,8.80029,0,11.99933,11.99933,0,0,0,7.92871-2.37842l17.21436-12.9126a91.55288,91.55288,0,0,1,11.19727,4.64356l3.0415,21.29687a12.00258,12.00258,0,0,0,3.9248,7.28809,72.73023,72.73023,0,0,1,6.22315,6.22266,12.00011,12.00011,0,0,0,7.2876,3.92382l21.30273,3.04248a91.48866,91.48866,0,0,1,4.63428,11.20118l-12.90869,17.21093a11.9976,11.9976,0,0,0-2.39453,7.56543c.07373,2.43262.14355,7.07129.0166,9.16114a11.99875,11.99875,0,0,0,2.37842,7.92919l12.91259,17.21436A91.50923,91.50923,0,0,1,210.51758,168.73975Z"/>
</svg>
