<svg id="Flat" xmlns="http://www.w3.org/2000/svg" viewBox="0 0 256.00098 256.00098">
  <path d="M128.001,72.00195a56,56,0,1,0,56,56A56.06354,56.06354,0,0,0,128.001,72.00195Zm0,88a32,32,0,1,1,32-32A32.03635,32.03635,0,0,1,128.001,160.002Zm113.36865-56.58447a11.99852,11.99852,0,0,0-5.90283-7.94531L212.7373,82.85449q-1.53662-2.88941-3.26806-5.6709l.438-26.019a11.99962,11.99962,0,0,0-3.93262-9.08691,115.10853,115.10853,0,0,0-42.57813-24.54541A11.9934,11.9934,0,0,0,153.564,18.6709l-22.29248,13.376q-3.27246-.11427-6.54492-.00489L102.41211,18.65283a11.996,11.996,0,0,0-9.83594-1.13818,115.12112,115.12112,0,0,0-42.5459,24.60156,12.0019,12.0019,0,0,0-3.92968,9.085l.4375,25.99317q-1.73292,2.77587-3.27637,5.66552L20.50879,95.49072a11.9984,11.9984,0,0,0-5.90332,7.94873,115.10965,115.10965,0,0,0,.03271,49.147,11.9985,11.9985,0,0,0,5.90284,7.94531l22.72949,12.61767q1.53661,2.88941,3.26806,5.6709l-.438,26.019a11.99963,11.99963,0,0,0,3.93261,9.08691,115.10867,115.10867,0,0,0,42.57813,24.54541,12.00108,12.00108,0,0,0,9.83252-1.13867l22.29248-13.376c2.18066.0752,4.36621.07764,6.54492.00488l22.31445,13.38916a11.99967,11.99967,0,0,0,9.83594,1.13819,115.12118,115.12118,0,0,0,42.5459-24.60156,12.002,12.002,0,0,0,3.92969-9.085l-.4375-25.99316q1.7329-2.77589,3.27636-5.66553L235.499,160.51318a11.9984,11.9984,0,0,0,5.90332-7.94873A115.10945,115.10945,0,0,0,241.36963,103.41748Zm-22.44678,38.84766-21.0332,11.67627a12.00309,12.00309,0,0,0-4.98535,5.28076,72.12207,72.12207,0,0,1-5.40284,9.34082,11.99937,11.99937,0,0,0-2.09033,6.97217l.40479,24.042a90.989,90.989,0,0,1-24.70459,14.29492l-20.62842-12.37744a11.99774,11.99774,0,0,0-6.17432-1.71045q-.44531,0-.89257.0332a72.2378,72.2378,0,0,1-10.791-.0083,11.996,11.996,0,0,0-7.08252,1.6753L94.92383,213.856A90.97209,90.97209,0,0,1,70.19238,199.6084l.4043-24.05274a11.99619,11.99619,0,0,0-2.08008-6.95752,72.1471,72.1471,0,0,1-5.38867-9.35058,11.99833,11.99833,0,0,0-4.99219-5.2959L37.1123,142.28076a90.963,90.963,0,0,1-.02734-28.542l21.0332-11.67627a12.00306,12.00306,0,0,0,4.98536-5.28076,72.12316,72.12316,0,0,1,5.40283-9.34082,11.99937,11.99937,0,0,0,2.09033-6.97217l-.40479-24.042A90.989,90.989,0,0,1,94.89648,42.13184L115.5249,54.50928a12.0065,12.0065,0,0,0,7.0669,1.67724,72.239,72.239,0,0,1,10.791.0083,11.96817,11.96817,0,0,0,7.08252-1.67529L161.084,42.148a90.97194,90.97194,0,0,1,24.73145,14.24756l-.4043,24.05273a11.99616,11.99616,0,0,0,2.08008,6.95752,72.14788,72.14788,0,0,1,5.38867,9.35059,11.9985,11.9985,0,0,0,4.99219,5.2959l21.02344,11.67089A90.96278,90.96278,0,0,1,218.92285,142.26514Z"/>
</svg>
