<svg id="Flat" xmlns="http://www.w3.org/2000/svg" viewBox="0 0 256.00098 256.00098">
  <path d="M128,72a56,56,0,1,0,56,56A56.06353,56.06353,0,0,0,128,72Zm0,88a32,32,0,1,1,32-32A32.03635,32.03635,0,0,1,128,160Zm114.20654-52.34863a19.948,19.948,0,0,0-9.99316-13.98682l-19.477-10.812q-1.53663-2.88941-3.26807-5.6709l.37549-22.29834a19.91936,19.91936,0,0,0-7.10547-15.63721A115.53306,115.53306,0,0,0,167.4834,18.92285a19.94482,19.94482,0,0,0-17.11133,1.66065L131.27051,32.04492c-2.18067-.07568-4.36719-.07812-6.54444-.00488L105.60352,20.56592a19.91793,19.91793,0,0,0-17.0962-1.66553A115.54165,115.54165,0,0,0,53.27881,39.271a19.94574,19.94574,0,0,0-7.1167,15.648l.375,22.27343q-1.73364,2.77589-3.27686,5.666L23.7627,93.68164a19.951,19.951,0,0,0-9.99708,14.01123,115.528,115.528,0,0,0,.0337,40.65576,19.948,19.948,0,0,0,9.99316,13.98682l19.47705,10.812q1.53663,2.88941,3.26807,5.6709l-.37549,22.29834a19.91936,19.91936,0,0,0,7.10547,15.63721,115.53306,115.53306,0,0,0,35.25488,20.32324,19.94512,19.94512,0,0,0,17.11035-1.66016l19.10254-11.46191c2.18067.07471,4.36719.07763,6.54444.00488l19.12255,11.47412a19.91912,19.91912,0,0,0,17.09668,1.66553,115.545,115.545,0,0,0,35.228-20.37061,19.94574,19.94574,0,0,0,7.1167-15.648l-.375-22.27343q1.73364-2.77588,3.27686-5.666l19.49755-10.82324a19.95207,19.95207,0,0,0,9.99707-14.01123A115.52781,115.52781,0,0,0,242.20654,107.65137ZM218.919,142.26514l-21.05372,11.687a11.92789,11.92789,0,0,0-5.1958,5.749,72.17514,72.17514,0,0,1-5.16894,8.85987,11.9992,11.9992,0,0,0-2.09033,6.97216l.40429,24.03858a91.55066,91.55066,0,0,1-24.707,14.29638l-20.624-12.37451c-.03516-.021-.06934-.042-.105-.0625a11.93827,11.93827,0,0,0-7.55225-1.57422,72.16207,72.16207,0,0,1-10.20215-.0498,11.98394,11.98394,0,0,0-7.082,1.67529L94.92627,213.85205a91.51817,91.51817,0,0,1-24.73486-14.249l.40527-24.07617a11.92849,11.92849,0,0,0-2.38086-7.374,72.14864,72.14864,0,0,1-5.08838-8.90674,12.00042,12.00042,0,0,0-4.99267-5.29638l-21.02051-11.669a91.54623,91.54623,0,0,1-.02735-28.5459l21.05371-11.687a11.95069,11.95069,0,0,0,5.22168-5.80127A72.14072,72.14072,0,0,1,68.50537,87.439,11.9992,11.9992,0,0,0,70.5957,80.4668l-.40429-24.03858a91.53766,91.53766,0,0,1,24.707-14.29638l20.624,12.37451c.03516.021.06934.042.105.0625a11.94775,11.94775,0,0,0,7.55225,1.57422,72.16207,72.16207,0,0,1,10.20215.0498,11.97711,11.97711,0,0,0,7.082-1.67578L161.0791,42.14746A91.53528,91.53528,0,0,1,185.81445,56.397l-.40527,24.07617a11.92842,11.92842,0,0,0,2.38086,7.374,72.14864,72.14864,0,0,1,5.08838,8.90674,12.00042,12.00042,0,0,0,4.99267,5.29638l21.02051,11.66895A91.54654,91.54654,0,0,1,218.919,142.26514Z"/>
</svg>
