<svg xmlns="http://www.w3.org/2000/svg" viewBox="0 0 256 256"><path d="M128,72a56,56,0,1,0,56,56A56,56,0,0,0,128,72Zm0,88a32,32,0,1,1,32-32A32.1,32.1,0,0,1,128,160Zm110-12-14.1-18.8v-2.4L238,108a12.3,12.3,0,0,0,2-10.3,113.4,113.4,0,0,0-11.4-27.4,11.8,11.8,0,0,0-8.7-5.9l-23.1-3.3-1.9-1.9-3.3-23.1a11.8,11.8,0,0,0-5.9-8.7A113.4,113.4,0,0,0,158.3,16,11.9,11.9,0,0,0,148,18L129.3,32h-2.6L108,18a12.3,12.3,0,0,0-10.3-2A113.4,113.4,0,0,0,70.3,27.4a11.8,11.8,0,0,0-5.9,8.7L61.1,59.2a17,17,0,0,0-1.9,1.9L36.1,64.4a11.8,11.8,0,0,0-8.7,5.9A113.4,113.4,0,0,0,16,97.7,11.9,11.9,0,0,0,18,108l14.1,18.8v2.4L18,148a12.3,12.3,0,0,0-2,10.3,113.4,113.4,0,0,0,11.4,27.4,11.8,11.8,0,0,0,8.7,5.9l23.1,3.3,1.9,1.9,3.3,23.1a11.8,11.8,0,0,0,5.9,8.7A113.4,113.4,0,0,0,97.7,240a10.6,10.6,0,0,0,3.1.4A11.8,11.8,0,0,0,108,238l18.7-14h2.6L148,238a12.3,12.3,0,0,0,10.3,2,113.4,113.4,0,0,0,27.4-11.4,11.8,11.8,0,0,0,5.9-8.7l3.4-23.2,1.7-1.7,23.2-3.4a11.8,11.8,0,0,0,8.7-5.9A113.4,113.4,0,0,0,240,158.3,11.9,11.9,0,0,0,238,148Zm-27.5,20.7-21.3,3.1a12.2,12.2,0,0,0-7,3.6c-1.7,1.8-4.9,5.1-6.5,6.5a12.2,12.2,0,0,0-3.9,7.3l-3.1,21.3a85.3,85.3,0,0,1-11.2,4.7l-17.2-13a11.7,11.7,0,0,0-7.9-2.3h-8.8a11.9,11.9,0,0,0-7.9,2.3l-17.2,13a85.3,85.3,0,0,1-11.2-4.7l-3.1-21.3a12.2,12.2,0,0,0-3.9-7.3,60.5,60.5,0,0,1-6.2-6.2,12.2,12.2,0,0,0-7.3-3.9l-21.3-3.1a85.3,85.3,0,0,1-4.7-11.2l13-17.2a12.4,12.4,0,0,0,2.4-7.5c-.1-2.5-.2-7.1-.1-9.2a11.9,11.9,0,0,0-2.3-7.9l-13-17.2a85.3,85.3,0,0,1,4.7-11.2l21.3-3.1a12.2,12.2,0,0,0,7.3-3.9,60.5,60.5,0,0,1,6.2-6.2,12.2,12.2,0,0,0,3.9-7.3l3.1-21.3a85.3,85.3,0,0,1,11.2-4.7l17.2,13a11.7,11.7,0,0,0,7.9,2.3c2.9-.1,5.9-.1,8.8,0a11.7,11.7,0,0,0,7.9-2.3l17.2-13a85.3,85.3,0,0,1,11.2,4.7l3.1,21.3a12.2,12.2,0,0,0,3.9,7.3,60.5,60.5,0,0,1,6.2,6.2,12.2,12.2,0,0,0,7.3,3.9l21.3,3.1a85.3,85.3,0,0,1,4.7,11.2l-13,17.2a11.7,11.7,0,0,0-2.3,7.5c0,2.5.1,7.1,0,9.2a11.7,11.7,0,0,0,2.3,7.9l13,17.2A85.3,85.3,0,0,1,210.5,168.7Z"/></svg>