<svg id="Flat" xmlns="http://www.w3.org/2000/svg" viewBox="0 0 256.00098 256.00098">
  <path d="M128,68a60,60,0,1,0,60,60A60.06812,60.06812,0,0,0,128,68Zm0,96a36,36,0,1,1,36-36A36.04061,36.04061,0,0,1,128,164Zm108.293-19.19482-8.292-12.4375v-8.7334l8.2915-12.437a20.06041,20.06041,0,0,0,2.56738-17.01612,115.47264,115.47264,0,0,0-8.542-20.65869,20.03985,20.03985,0,0,0-13.84228-10.21L201.7998,60.37744l-6.1748-6.17529-2.93555-14.67529A20.03852,20.03852,0,0,0,182.48,25.68359a115.52251,115.52251,0,0,0-20.66016-8.5415A20.06153,20.06153,0,0,0,144.8042,19.709L132.36768,28h-8.7334l-12.43506-8.29a20.063,20.063,0,0,0-17.01758-2.56787,115.51421,115.51421,0,0,0-20.6582,8.54053A20.0388,20.0388,0,0,0,63.3125,39.52686L60.37793,54.20117,54.20215,60.377,39.52686,63.31152A20.03786,20.03786,0,0,0,25.68457,73.521a115.482,115.482,0,0,0-8.54248,20.66015A20.06061,20.06061,0,0,0,19.709,111.19678L28,123.6333v8.7334l-8.291,12.437a20.06042,20.06042,0,0,0-2.56689,17.01465,115.49613,115.49613,0,0,0,8.5415,20.66113,20.03962,20.03962,0,0,0,13.84229,10.209l14.67627,2.93506,6.1748,6.17529,2.93457,14.67676A20.04177,20.04177,0,0,0,73.521,230.31836a115.55224,115.55224,0,0,0,20.65966,8.541,20.06175,20.06175,0,0,0,17.01514-2.5669l12.4375-8.2915h8.7334l12.438,8.29248a20.22557,20.22557,0,0,0,11.22607,3.42822,19.88347,19.88347,0,0,0,5.78955-.8623,115.45438,115.45438,0,0,0,20.65723-8.54,20.03948,20.03948,0,0,0,10.21094-13.84327L195.624,201.7998l6.17481-6.17578,14.67627-2.93457A20.03781,20.03781,0,0,0,230.31738,182.48a115.48756,115.48756,0,0,0,8.54248-20.65918A20.06059,20.06059,0,0,0,236.293,144.80518Zm-30.27637-2.14747,9.31592,13.97364a91.52294,91.52294,0,0,1-5.31934,12.875l-16.48339,3.2959a11.99739,11.99739,0,0,0-6.13233,3.28222L176.084,187.39893a12.00114,12.00114,0,0,0-3.28173,6.13134l-3.29688,16.48389a91.48837,91.48837,0,0,1-12.87549,5.31836l-13.97363-9.31592A11.99591,11.99591,0,0,0,136,204.001H120a12.00054,12.00054,0,0,0-6.65625,2.01513L99.37012,215.332a91.54412,91.54412,0,0,1-12.875-5.31836l-3.29639-16.48388a11.99852,11.99852,0,0,0-3.28174-6.13233L68.60352,176.084a12.00073,12.00073,0,0,0-6.13184-3.28173l-16.48389-3.29688a91.5637,91.5637,0,0,1-5.31836-12.87646l9.31494-13.97266A11.997,11.997,0,0,0,52,136V120a11.997,11.997,0,0,0-2.01563-6.65625L40.66943,99.37061a91.5108,91.5108,0,0,1,5.31934-12.876l16.48242-3.2959A12.00214,12.00214,0,0,0,68.60352,79.917L79.918,68.60254a11.99859,11.99859,0,0,0,3.28174-6.13233l3.2959-16.48242a91.54706,91.54706,0,0,1,12.876-5.31836l13.97315,9.31543A12.00047,12.00047,0,0,0,120.001,52h16a12.00047,12.00047,0,0,0,6.65625-2.01514l13.97314-9.31543a91.55782,91.55782,0,0,1,12.876,5.31836l3.29736,16.48389a12,12,0,0,0,3.28125,6.13184L187.39844,79.917a12.00061,12.00061,0,0,0,6.13183,3.28174l16.48291,3.29688a91.4506,91.4506,0,0,1,5.31934,12.875l-9.31592,13.97363A11.99987,11.99987,0,0,0,204.001,120.001v16A11.99981,11.99981,0,0,0,206.0166,142.65771Z"/>
</svg>
