<svg id="Flat" xmlns="http://www.w3.org/2000/svg" viewBox="0 0 256 256">
  <path d="M227.9978,39.95557q-.00219-.56984-.05749-1.13819c-.018-.18408-.05237-.36279-.07849-.54443-.02979-.20557-.05371-.41211-.09424-.61621-.04029-.20362-.09607-.40088-.14649-.60059-.04541-.18017-.08484-.36084-.13867-.53906-.05884-.19434-.13159-.38135-.19971-.57129-.06445-.17969-.12353-.36084-.19677-.5376-.07349-.17724-.15967-.34668-.24109-.51953-.08582-.18213-.16687-.36621-.26257-.54492-.088-.16455-.18824-.32031-.2837-.48047-.10534-.17627-.2052-.355-.32031-.52685-.11572-.17334-.24475-.33545-.369-.502-.11-.14746-.21252-.29834-.3302-.4414-.23462-.28614-.4834-.55957-.74316-.82227-.01782-.01807-.03247-.03809-.05054-.05615-.01953-.01953-.041-.03565-.06067-.05469-.26123-.25781-.53271-.50537-.81653-.73828-.14794-.12158-.30383-.22754-.45605-.34082-.16138-.12061-.31885-.24561-.48645-.35791-.17725-.11865-.36108-.22168-.54309-.33008-.15442-.0918-.30518-.189-.46411-.27392-.18311-.09815-.37134-.18116-.55811-.269-.16846-.07959-.334-.16357-.50659-.23486-.18042-.0752-.36475-.13525-.54785-.20068-.18652-.0669-.37073-.13868-.56152-.19629-.18189-.05518-.3667-.09571-.55066-.14161-.19568-.04931-.389-.10449-.58851-.144-.20935-.041-.42077-.06592-.63171-.09619-.17688-.02539-.351-.05908-.53027-.07666q-.56837-.05567-1.13953-.05762c-.01465,0-.02893-.002-.0437-.002H168a12,12,0,0,0,0,24h19.02905l-32.7334,32.7334a83.9988,83.9988,0,1,0,16.971,16.97021L204,68.9707V88a12,12,0,0,0,24,0V40C228,39.98486,227.9978,39.97021,227.9978,39.95557ZM146.42627,194.42676a59.97169,59.97169,0,1,1,0-84.85352A60.06666,60.06666,0,0,1,146.42627,194.42676Z"/>
</svg>
