<svg id="Flat" xmlns="http://www.w3.org/2000/svg" viewBox="0 0 256 256">
  <path d="M219.9978,23.95557q-.00219-.56984-.05749-1.13819c-.018-.18408-.05237-.36279-.07849-.54443-.02979-.20557-.05371-.41211-.09424-.61621-.04029-.20362-.09607-.40088-.14649-.60059-.04541-.18017-.08484-.36084-.13867-.53906-.05884-.19434-.13159-.38135-.19971-.57129-.06445-.17969-.12353-.36084-.19677-.5376-.07349-.17724-.15967-.34668-.24109-.51953-.08582-.18213-.16687-.36621-.26257-.54492-.088-.16455-.18824-.32031-.2837-.48047-.10534-.17627-.2052-.355-.32031-.52685-.11572-.17334-.24475-.33545-.369-.502-.11-.14746-.21252-.29834-.3302-.4414-.23462-.28614-.4834-.55957-.74316-.82227-.01782-.01807-.03247-.03809-.05054-.05615-.01831-.01856-.03857-.0332-.05688-.05127q-.39441-.38966-.82227-.74317c-.13965-.11474-.28686-.21435-.43042-.32177-.16992-.127-.33606-.25879-.51269-.377-.16883-.11328-.34424-.21093-.51734-.31445-.16333-.09765-.32324-.20019-.49145-.29-.1731-.09277-.3512-.1709-.52759-.25439-.17871-.08448-.35462-.17383-.538-.24951-.16932-.07032-.34229-.12647-.514-.18848-.19751-.07129-.39307-.14649-.59534-.208-.16882-.05078-.34045-.08789-.51086-.13135-.20874-.05322-.41529-.11132-.62818-.15332-.19055-.03759-.383-.05957-.57507-.08789-.19544-.02881-.38831-.06494-.58679-.08447-.33252-.03271-.666-.04541-.99988-.05078C208.11853,12.0083,208.0603,12,208,12H172a12,12,0,0,0,0,24h7.0293l-15.051,15.05127A71.97526,71.97526,0,1,0,108,178.981V192H88a12,12,0,0,0,0,24h20v16a12,12,0,0,0,24,0V216h20a12,12,0,0,0,0-24H132V178.981A71.928,71.928,0,0,0,180.27783,68.69287L196,52.9707V60a12,12,0,0,0,24,0V24C220,23.98486,219.9978,23.97021,219.9978,23.95557ZM120,156a48,48,0,1,1,48-48A48.05468,48.05468,0,0,1,120,156Z"/>
</svg>
