<svg xmlns="http://www.w3.org/2000/svg" viewBox="0 0 256 256"><path d="M116,116a16,16,0,1,1-16-16A16,16,0,0,1,116,116Zm40-16a16,16,0,1,0,16,16A16,16,0,0,0,156,100Zm72,20v96a11.9,11.9,0,0,1-6.9,10.8A11.6,11.6,0,0,1,216,228a12,12,0,0,1-7.6-2.7l-21.7-17.8-21.8,17.8a12,12,0,0,1-15.2,0L128,207.5l-21.7,17.8a12,12,0,0,1-15.2,0L69.3,207.5,47.6,225.3A12.1,12.1,0,0,1,28,216V120a100,100,0,0,1,200,0Zm-24,0a76,76,0,0,0-152,0v70.7l9.7-8a12,12,0,0,1,15.2,0l21.8,17.8,21.7-17.8a12,12,0,0,1,15.2,0l21.7,17.8,21.8-17.8a12,12,0,0,1,15.2,0l9.7,8Z"/></svg>