<svg id="Flat" xmlns="http://www.w3.org/2000/svg" viewBox="0 0 256 256">
  <path d="M116,116a16,16,0,1,1-16-16A16.00016,16.00016,0,0,1,116,116Zm40-16a16,16,0,1,0,16,16A16.00016,16.00016,0,0,0,156,100Zm72,20v96a11.99994,11.99994,0,0,1-19.59863,9.2876L186.667,207.50488,164.93164,225.2876a11.99933,11.99933,0,0,1-15.19726,0L128,207.50488,106.26562,225.2876a11.99933,11.99933,0,0,1-15.19726,0L69.333,207.50488,47.59863,225.2876A12.00018,12.00018,0,0,1,28,216V120a100,100,0,0,1,200,0Zm-24,0a76,76,0,0,0-152,0v70.67676l9.73438-7.96436a11.99933,11.99933,0,0,1,15.19726,0L98.667,200.49512l21.73438-17.78272a11.99976,11.99976,0,0,1,15.19726,0L157.333,200.49512l21.73535-17.78272a11.99933,11.99933,0,0,1,15.19726,0L204,190.67676Z"/>
</svg>
