<svg id="Flat" xmlns="http://www.w3.org/2000/svg" viewBox="0 0 256 256">
  <path d="M216,68H188.38379a35.99639,35.99639,0,0,0-57.55567-41.74023A29.25479,29.25479,0,0,0,128,29.584a29.25479,29.25479,0,0,0-2.82812-3.32421A35.99639,35.99639,0,0,0,67.61621,68H40A20.02244,20.02244,0,0,0,20,88v32a20.033,20.033,0,0,0,16,19.59692V200a20.0226,20.0226,0,0,0,20,20H200a20.0226,20.0226,0,0,0,20-20V139.59692A20.033,20.033,0,0,0,236,120V88A20.02244,20.02244,0,0,0,216,68Zm-4,48H140V92h72ZM147.79883,43.23071a12,12,0,1,1,16.9707,16.97046c-3.29785,3.2981-13.42578,5.83911-24.04,7.03931C142.0625,55.436,145.00977,46.01978,147.79883,43.23071Zm-56.56836,0a12.01393,12.01393,0,0,1,16.9707-.00049c3.29785,3.29834,5.83887,13.42579,7.03906,24.04-11.80468-1.33252-21.2207-4.27978-24.00976-7.06909A12.01363,12.01363,0,0,1,91.23047,43.23071ZM44,92h72v24H44Zm16,48h56v56H60Zm80,56V140h56v56Z"/>
</svg>
