<svg xmlns="http://www.w3.org/2000/svg" viewBox="0 0 256 256"><path d="M216,68H188.4a36,36,0,0,0-57.6-41.7,30.4,30.4,0,0,0-2.8,3.3,30.4,30.4,0,0,0-2.8-3.3A36,36,0,0,0,67.6,68H40A20.1,20.1,0,0,0,20,88v32a20.1,20.1,0,0,0,16,19.6V200a20.1,20.1,0,0,0,20,20H200a20.1,20.1,0,0,0,20-20V139.6A20.1,20.1,0,0,0,236,120V88A20.1,20.1,0,0,0,216,68Zm-4,48H140V92h72ZM147.8,43.2a12,12,0,0,1,8.5-3.5,12,12,0,0,1,8.5,20.5c-3.3,3.3-13.5,5.8-24.1,7C142.1,55.4,145,46,147.8,43.2Zm-56.6,0a12.2,12.2,0,0,1,17,0c3.3,3.3,5.8,13.5,7,24.1-11.8-1.4-21.2-4.3-24-7.1A12.2,12.2,0,0,1,91.2,43.2ZM44,92h72v24H44Zm16,48h56v56H60Zm80,56V140h56v56Z"/></svg>