<svg xmlns="http://www.w3.org/2000/svg" viewBox="0 0 256 256"><path d="M208,149.8V119.9a59.3,59.3,0,0,0-17.6-42.4L173,60h11a12,12,0,0,0,0-24H144a12,12,0,0,0-12,12V88a12,12,0,0,0,24,0V77l17.5,17.4A35.9,35.9,0,0,1,184,119.9v29.9a40,40,0,1,0,24,0ZM196,204a16,16,0,1,1,16-16A16,16,0,0,1,196,204Zm-84-48a12,12,0,0,0-12,12v11L82.5,161.6A35.9,35.9,0,0,1,72,136.1V106.2a40,40,0,1,0-24,0v29.9a59.3,59.3,0,0,0,17.6,42.4L83,196H72a12,12,0,0,0,0,24h40a12,12,0,0,0,12-12V168A12,12,0,0,0,112,156ZM60,52A16,16,0,1,1,44,68,16,16,0,0,1,60,52Z"/></svg>