<svg id="Flat" xmlns="http://www.w3.org/2000/svg" viewBox="0 0 256 256">
  <path d="M228,67.99756A40,40,0,1,0,175.80518,106.09a12.01092,12.01092,0,0,1-11.8042,9.908L92,115.99951a35.836,35.836,0,0,0-12,2.05664V106.15607a40,40,0,1,0-24,0v43.68542a40.00668,40.00668,0,1,0,24.19482.066A12.01148,12.01148,0,0,1,92,139.99951l72.001-.00146a36.042,36.042,0,0,0,35.92675-33.81745A40.07133,40.07133,0,0,0,228,67.99756Zm-160-16a16,16,0,1,1-16,16A16.01833,16.01833,0,0,1,68,51.99756ZM68,204a16,16,0,1,1,16-16A16.01833,16.01833,0,0,1,68,204ZM188,83.99756a16,16,0,1,1,16-16A16.01833,16.01833,0,0,1,188,83.99756Z"/>
</svg>
