<svg id="Flat" xmlns="http://www.w3.org/2000/svg" viewBox="0 0 256 256">
  <path d="M208.00244,149.84131l-.00146-29.96143A59.6083,59.6083,0,0,0,190.42773,77.457L172.9707,60H184a12,12,0,0,0,0-24H144c-.06006,0-.11816.00806-.17822.009-.334.00489-.668.01783-1.00049.05054-.19727.01917-.38867.05542-.583.084-.19336.02857-.38721.05054-.5791.08851-.21045.04162-.41455.099-.62109.15148-.17286.04395-.34766.08179-.51905.13355-.19824.06006-.38965.13428-.584.2041-.17578.06323-.35254.121-.52588.19263-.17822.07385-.34912.1604-.52246.24243-.18213.08569-.36524.1665-.54346.26172-.16211.08691-.31592.18579-.47314.27966-.1792.10681-.36035.20838-.53516.32532-.168.1123-.32568.23779-.4873.35815-.15235.11328-.30811.21924-.45606.34082-.273.22412-.5332.46277-.78515.70972-.02979.02918-.0625.05347-.0918.083-.02979.02954-.0542.06225-.083.092-.24707.252-.48584.51221-.71.785-.12354.15052-.23145.309-.34668.464-.11816.15869-.24121.31324-.35156.47779-.12012.17993-.2251.3667-.335.55151-.08985.15173-.18555.29968-.269.45557-.10009.18664-.18506.37841-.27392.56909-.07764.16455-.16016.32617-.23.49475-.07666.18555-.13916.37512-.20606.5636-.06494.18115-.13476.35974-.19092.54492-.05712.18945-.0996.38184-.14746.57324-.04687.18848-.10009.374-.13818.56592-.04395.22131-.07031.44482-.10156.66772-.02344.16492-.05518.32691-.07129.49378-.03906.39612-.06006.79382-.06006,1.19153V88a12,12,0,0,0,24,0V76.9707l17.457,17.457A35.76537,35.76537,0,0,1,184.001,119.88184l.00146,29.96a39.99971,39.99971,0,1,0,24-.00049ZM196.00293,204a16,16,0,1,1,16-16A16.01833,16.01833,0,0,1,196.00293,204Zm-74.375,11.14429c.11816-.15869.24121-.31324.35156-.47779.12012-.17993.2251-.3667.335-.55151.08985-.15173.18555-.29968.26905-.45557.09961-.186.18408-.37719.27343-.56713.07764-.16553.16016-.32789.23047-.49732.07666-.18481.13867-.37353.20557-.56128.06494-.18176.13476-.361.1914-.54663.05713-.18945.09961-.38184.14747-.57324.04687-.18848.10009-.374.13818-.56592.04394-.22131.07031-.44482.10156-.66772.02344-.16492.05518-.32691.07129-.49378.03906-.39612.06006-.79382.06006-1.19153V168a12,12,0,0,0-24,0v11.0293l-17.457-17.457a35.75893,35.75893,0,0,1-10.544-25.45411l-.00146-29.96a39.99971,39.99971,0,1,0-24,.00049l.00146,29.96045A59.60411,59.60411,0,0,0,65.5752,178.543L83.03223,196H72.00293a12,12,0,0,0,0,24h40c.395,0,.79-.021,1.18408-.05981.17774-.01734.35059-.05079.52588-.07593.2124-.0304.42481-.05518.63525-.09693.19922-.03955.39209-.09423.58789-.14355.18409-.04627.36963-.08667.55176-.14185.19043-.05786.374-.12939.56055-.19629.18311-.06543.36768-.12585.54834-.20056.17285-.07165.33789-.15588.50684-.23523.18652-.08764.37451-.17065.55761-.26867.15869-.08509.30908-.182.46338-.27381.18262-.1084.3667-.21179.54444-.33081.16552-.11059.3208-.23425.48-.35278.15478-.115.3125-.22253.4624-.346.27246-.22363.53222-.46191.78418-.70849.02978-.02942.063-.05408.09277-.084.02979-.02954.0542-.06225.083-.092.24707-.252.48584-.51221.71-.785C121.40478,215.45776,121.5127,215.29932,121.62793,215.14429ZM60,52A16,16,0,1,1,44,68,16.01833,16.01833,0,0,1,60,52Z"/>
</svg>
