<svg id="Flat" xmlns="http://www.w3.org/2000/svg" viewBox="0 0 256 256">
  <path d="M228,67.99756A40,40,0,1,0,175.80518,106.09a12.01092,12.01092,0,0,1-11.8042,9.908l-72,.00146a11.98274,11.98274,0,0,1-11.81006-9.9082,39.99048,39.99048,0,1,0-24.11914.08911A35.98846,35.98846,0,0,0,92.001,139.99951l24.001-.00049-.001,9.84223a40,40,0,1,0,24,.00061l.001-9.84332,23.999-.00049a36.042,36.042,0,0,0,35.92675-33.81745A40.07133,40.07133,0,0,0,228,67.99756Zm-160-16a16,16,0,1,1-16,16A16.01833,16.01833,0,0,1,68,51.99756ZM128,204a16,16,0,1,1,16-16A16.01833,16.01833,0,0,1,128,204ZM188,83.99756a16,16,0,1,1,16-16A16.01833,16.01833,0,0,1,188,83.99756Z"/>
</svg>
