<svg id="Flat" xmlns="http://www.w3.org/2000/svg" viewBox="0 0 256 256">
  <path d="M108,68a40,40,0,1,0-52,38.15851v43.683a40,40,0,1,0,24,0v-43.683A40.07,40.07,0,0,0,108,68ZM68,52A16,16,0,1,1,52,68,16.01833,16.01833,0,0,1,68,52Zm0,152a16,16,0,1,1,16-16A16.01833,16.01833,0,0,1,68,204Zm132.00244-54.15869-.00146-29.96094a59.61139,59.61139,0,0,0-17.57325-42.42383L164.9707,60H176a12,12,0,0,0,0-24H136.00439c-.39794-.00018-.79541.02081-1.19189.05994-.16357.016-.32178.04724-.4834.06976-.22656.03174-.45312.05884-.67822.10352-.189.03747-.37158.08984-.55713.1361-.19482.0484-.39014.0915-.58252.14972-.18213.05536-.35791.124-.53613.18763-.19141.068-.38379.13122-.57178.20928-.166.06885-.32471.14991-.48682.22583-.19336.09052-.38818.17682-.57763.2782-.15332.0824-.29932.17646-.44873.26526-.18653.11078-.375.21668-.55713.33844-.16358.1098-.31739.23248-.47559.35-.15576.11572-.31494.22412-.46582.34832-.28467.23353-.55664.48121-.81787.73945-.019.01879-.04.0343-.05908.05322s-.03467.0401-.05371.0592c-.2583.2619-.50635.53406-.73975.81873-.11963.14551-.22412.29895-.33545.44867-.12207.16375-.249.32361-.36328.49371-.11816.1767-.2207.36-.32861.54132-.09229.15479-.18946.306-.2749.46515-.09864.1842-.18262.37366-.27051.56171-.07862.16717-.16211.33124-.2334.5025-.07568.183-.13721.36987-.20313.5556-.06591.18378-.13671.36487-.19336.55268-.05664.18737-.09863.37768-.146.56707-.04785.19025-.10108.37793-.13965.5716-.04346.21991-.06982.442-.10107.66363-.02344.16614-.05567.32935-.07178.49762q-.05932.59427-.06006,1.19147V88a12,12,0,0,0,24,0V76.97015l17.457,17.45661A35.76927,35.76927,0,0,1,176.001,119.88184l.00146,29.95983a39.99992,39.99992,0,1,0,24-.00036ZM188.00293,204a16,16,0,1,1,16-16A16.01833,16.01833,0,0,1,188.00293,204Z"/>
</svg>
