<svg xmlns="http://www.w3.org/2000/svg" viewBox="0 0 256 256"><path d="M216,212a12,12,0,0,1-12-12v-8a36.1,36.1,0,0,0-12.3-27.1A59.9,59.9,0,0,0,212,120v-8a61.1,61.1,0,0,0-7.4-28.8A63.7,63.7,0,0,0,198.4,34,12.1,12.1,0,0,0,188,28a64,64,0,0,0-50,24H118A64,64,0,0,0,68,28a12.1,12.1,0,0,0-10.4,6,63.7,63.7,0,0,0-6.2,49.2A61.1,61.1,0,0,0,44,112v8a59.9,59.9,0,0,0,20.3,44.9A36.1,36.1,0,0,0,52,192v8a12,12,0,0,1-12,12,12,12,0,0,0,0,24,36,36,0,0,0,36-36v-8a12,12,0,0,1,12-12h8v36a12,12,0,0,1-12,12,12,12,0,0,0,0,24,36,36,0,0,0,36-36V180h16v36a36,36,0,0,0,36,36,12,12,0,0,0,0-24,12,12,0,0,1-12-12V180h8a12,12,0,0,1,12,12v8a36,36,0,0,0,36,36,12,12,0,0,0,0-24ZM68,112a38.3,38.3,0,0,1,6.1-20.1,11.6,11.6,0,0,0,1.6-11.5,39.4,39.4,0,0,1-.4-27.7,39.6,39.6,0,0,1,26.4,17.8A12.1,12.1,0,0,0,111.8,76h32.4a12.1,12.1,0,0,0,10.1-5.5,39.6,39.6,0,0,1,26.4-17.8,39.4,39.4,0,0,1-.4,27.7,11.9,11.9,0,0,0,1.6,11.5A37.5,37.5,0,0,1,188,112v8a36,36,0,0,1-36,36H104a36,36,0,0,1-36-36Z"/></svg>