<svg id="Flat" xmlns="http://www.w3.org/2000/svg" viewBox="0 0 256 256">
  <path d="M216,212a12.01343,12.01343,0,0,1-12-12v-8a35.91633,35.91633,0,0,0-12.30176-27.06543A59.85908,59.85908,0,0,0,212,120v-8a61.46184,61.46184,0,0,0-7.37695-28.82617A63.70632,63.70632,0,0,0,198.39258,34,12.00034,12.00034,0,0,0,188,28a63.71748,63.71748,0,0,0-49.97021,24l-20.06006-.001A63.71863,63.71863,0,0,0,68,28a12.00034,12.00034,0,0,0-10.39258,6A63.70792,63.70792,0,0,0,51.377,83.17385,61.46184,61.46184,0,0,0,44,112v8a59.85908,59.85908,0,0,0,20.30176,44.93457A35.91633,35.91633,0,0,0,52,192v8a12.01343,12.01343,0,0,1-12,12,12,12,0,0,0,0,24,36.04061,36.04061,0,0,0,36-36v-8a12.01343,12.01343,0,0,1,12-12h8v36a12.01343,12.01343,0,0,1-12,12,12,12,0,0,0,0,24,36.04061,36.04061,0,0,0,36-36V180h16v36a36.04061,36.04061,0,0,0,36,36,12,12,0,0,0,0-24,12.01343,12.01343,0,0,1-12-12V180h8a12.01343,12.01343,0,0,1,12,12v8a36.04061,36.04061,0,0,0,36,36,12,12,0,0,0,0-24ZM68,112A37.85913,37.85913,0,0,1,74.12988,91.8799a11.64422,11.64422,0,0,0,1.58106-11.48632A39.85891,39.85891,0,0,1,75.31348,52.666a39.86431,39.86431,0,0,1,26.40527,17.80371,11.99947,11.99947,0,0,0,10.106,5.52929L144.17432,76h.00048a11.99946,11.99946,0,0,0,10.106-5.5293A39.86663,39.86663,0,0,1,180.68652,52.666a39.859,39.859,0,0,1-.39746,27.72754,11.9978,11.9978,0,0,0,1.61524,11.53027A37.84416,37.84416,0,0,1,188,112v8a36.04061,36.04061,0,0,1-36,36H104a36.04061,36.04061,0,0,1-36-36Z"/>
</svg>
