<svg id="Flat" xmlns="http://www.w3.org/2000/svg" viewBox="0 0 256 256">
  <path d="M216,204a12.01343,12.01343,0,0,1-12-12v-8a35.91633,35.91633,0,0,0-12.30176-27.06543A59.85908,59.85908,0,0,0,212,112v-8A59.67341,59.67341,0,0,0,204.627,75.16018,63.70545,63.70545,0,0,0,198.39258,26,12.00034,12.00034,0,0,0,188,20a63.71655,63.71655,0,0,0-49.96973,24l-20.06054-.001A63.72007,63.72007,0,0,0,68,20a12.00034,12.00034,0,0,0-10.39258,6,63.70545,63.70545,0,0,0-6.23437,49.16016A59.67341,59.67341,0,0,0,44,104v8a59.85908,59.85908,0,0,0,20.30176,44.93457A35.91633,35.91633,0,0,0,52,184v8a12.01343,12.01343,0,0,1-12,12,12,12,0,0,0,0,24,36.04061,36.04061,0,0,0,36-36v-8a12.01343,12.01343,0,0,1,12-12h8v36a12.01343,12.01343,0,0,1-12,12,12,12,0,0,0,0,24,36.04061,36.04061,0,0,0,36-36V172h16v36a36.04061,36.04061,0,0,0,36,36,12,12,0,0,0,0-24,12.01343,12.01343,0,0,1-12-12V172h8a12.01343,12.01343,0,0,1,12,12v8a36.04061,36.04061,0,0,0,36,36,12,12,0,0,0,0-24ZM68,104a35.76911,35.76911,0,0,1,6.37646-20.46289,11.99984,11.99984,0,0,0,1.33448-11.14258A39.86168,39.86168,0,0,1,75.31348,44.666a39.86677,39.86677,0,0,1,26.40527,17.80468A11.99968,11.99968,0,0,0,111.8252,68l32.35058-.001a11.99926,11.99926,0,0,0,10.10547-5.52929A39.86544,39.86544,0,0,1,180.68652,44.666a39.86168,39.86168,0,0,1-.39746,27.72851,11.99984,11.99984,0,0,0,1.33448,11.14258A35.76911,35.76911,0,0,1,188,104v8a36.04061,36.04061,0,0,1-36,36H104a36.04061,36.04061,0,0,1-36-36Z"/>
</svg>
