<svg id="Flat" xmlns="http://www.w3.org/2000/svg" viewBox="0 0 256 256">
  <path d="M242.145,151.4717,214.81592,48.98586A16.00007,16.00007,0,0,0,184.375,47.49123L164.68408,100H91.31592L71.62549,47.49221a16.00007,16.00007,0,0,0-30.44141,1.49414L13.855,151.4717a20.04849,20.04849,0,0,0,7.94043,21.59717l94.82031,65.645a19.90055,19.90055,0,0,0,8.64453,3.3418,11.93576,11.93576,0,0,0,2.08252.19043c.08521,0,.17127-.00977.25672-.01172.13366.00293.267.01464.40051.01464s.26685-.01171.40051-.01464c.08545.00195.17151.01172.25672.01172a11.92725,11.92725,0,0,0,2.08178-.19043,19.90281,19.90281,0,0,0,8.64527-3.3418l94.82031-65.64453A20.0495,20.0495,0,0,0,242.145,151.4717ZM155.68408,124,128,197.82473,100.31592,124ZM57.93164,79.32766l13.83252,36.88623.00085.00195,31.53272,84.0874-65.5282-45.36572Zm94.77063,120.97558,31.53272-84.0874.00085-.00195,13.83252-36.88623,20.16211,75.60986Z"/>
</svg>
