<svg id="Flat" xmlns="http://www.w3.org/2000/svg" viewBox="0 0 256 256">
  <path d="M242.145,151.4717,214.81592,48.98586A16.00007,16.00007,0,0,0,184.375,47.49123L164.68408,100H91.31592L71.62549,47.49221a16.00007,16.00007,0,0,0-30.44141,1.49414L13.855,151.4717a20.04849,20.04849,0,0,0,7.94043,21.59717l94.82031,65.645a20.098,20.098,0,0,0,22.76856,0l94.82031-65.64453A20.0495,20.0495,0,0,0,242.145,151.4717ZM128,217.40481,37.76953,154.93752,57.93164,79.32766l13.83252,36.88623A11.99974,11.99974,0,0,0,83,124h90a11.99974,11.99974,0,0,0,11.23584-7.78613l13.83252-36.88623,20.16211,75.60986Z"/>
</svg>
