<svg id="Flat" xmlns="http://www.w3.org/2000/svg" viewBox="0 0 256 256">
  <path d="M128,179.99316a84,84,0,1,0-84-84A84.0953,84.0953,0,0,0,128,179.99316Zm0-144a60,60,0,1,1-60,60A60.06812,60.06812,0,0,1,128,35.99316Zm12,175.38672v8.61328h20a12,12,0,0,1,0,24H96a12,12,0,0,1,0-24h20v-8.61328A116.01057,116.01057,0,0,1,45.97559,13.96875a12.0001,12.0001,0,0,1,16.9707,16.9707,92.00049,92.00049,0,0,0,65.04053,157.0542L128,187.99316l.01318.00049a91.396,91.396,0,0,0,65.04053-26.94677,12.0001,12.0001,0,1,1,16.9707,16.9707A115.1173,115.1173,0,0,1,140,211.37988Z"/>
</svg>
