<svg xmlns="http://www.w3.org/2000/svg" viewBox="0 0 256 256"><path d="M224.5,176.4a6.1,6.1,0,0,0,.7-1.4A107.9,107.9,0,0,0,155.9,23.7l-.5-.2A108.1,108.1,0,0,0,57.9,45.9a10.7,10.7,0,0,0-1.6,1.4A108,108,0,0,0,128,236h2.4A108.2,108.2,0,0,0,224.5,176.4ZM212,128a83.9,83.9,0,0,1-3.7,24.7l-42.1-25.9a20.4,20.4,0,0,0-7.8-2.8l-22.9-3.1a20.3,20.3,0,0,0-17.8,6.8h-4l-2.8-5.6a19.8,19.8,0,0,0-13.8-10.9l-1.8-.4,1.7-3.9h18.7a20.2,20.2,0,0,0,9.6-2.5l12.3-6.8a15.9,15.9,0,0,0,3.7-2.7l26.9-24.3a20.1,20.1,0,0,0,6.5-12.4A83.9,83.9,0,0,1,212,128ZM144.6,45.7l5.2,9.2L125.6,76.8l-11,6.1H94.3A19.9,19.9,0,0,0,75.9,95.1l-1.4,3.2L67.7,80l7.2-17a83.3,83.3,0,0,1,69.7-17.3ZM44,128a82,82,0,0,1,5.2-29l6.9,18.6a19.9,19.9,0,0,0,14.6,12.5l5.5,1.2h.1l13.9,3,2.9,6.1a20.4,20.4,0,0,0,13.3,10.7l-5.5,12.2a19.9,19.9,0,0,0,3.6,21.7l17.4,18.9-1.5,7.7A84,84,0,0,1,44,128Zm101.1,82.2.8-3.7a20.1,20.1,0,0,0-5-17.4l-17-18.4,11.4-25.6,19,2.5,43.6,26.9A83.8,83.8,0,0,1,145.1,210.2Z"/></svg>