<svg id="Flat" xmlns="http://www.w3.org/2000/svg" viewBox="0 0 256 256">
  <g>
    <path d="M128,172A76,76,0,1,0,52,96,76.08645,76.08645,0,0,0,128,172Zm0-128A52,52,0,1,1,76,96,52.059,52.059,0,0,1,128,44Z"/>
    <path d="M210.02441,178.01758a12.0001,12.0001,0,1,0-16.9707-16.9707,91.396,91.396,0,0,1-65.04053,26.94677L128,187.99316l-.01318.00049A92.00049,92.00049,0,0,1,62.94629,30.93945a12.0001,12.0001,0,0,0-16.9707-16.9707A116.01057,116.01057,0,0,0,116,211.37988v12.61328H96a12,12,0,0,0,0,24h64a12,12,0,0,0,0-24H140V211.37988A115.1173,115.1173,0,0,0,210.02441,178.01758Z"/>
  </g>
</svg>
