<svg xmlns="http://www.w3.org/2000/svg" viewBox="0 0 256 256"><path d="M128,20A108,108,0,1,0,236,128,108.1,108.1,0,0,0,128,20Zm83.1,96H179.5a138.3,138.3,0,0,0-22.9-67A84.2,84.2,0,0,1,211.1,116ZM100.6,140h54.8c-2.4,24.7-12.2,47.7-27.4,64.6C112.8,187.7,103,164.7,100.6,140Zm0-24C103,91.3,112.8,68.3,128,51.4c15.2,16.9,25,39.9,27.4,64.6ZM99.4,49a138.3,138.3,0,0,0-22.9,67H44.9A84.2,84.2,0,0,1,99.4,49ZM44.9,140H76.5a138.3,138.3,0,0,0,22.9,67A84,84,0,0,1,44.9,140Zm111.7,67a138.3,138.3,0,0,0,22.9-67h31.6A84,84,0,0,1,156.6,207Z"/></svg>