<svg id="Flat" xmlns="http://www.w3.org/2000/svg" viewBox="0 0 256 256">
  <path d="M230.04834,163.361a108.01942,108.01942,0,0,0-.00977-70.74926,11.86205,11.86205,0,0,0-.46045-1.30372,108.0033,108.0033,0,0,0-203.15234-.01147,11.98623,11.98623,0,0,0-.46973,1.33057,108.01661,108.01661,0,0,0,.01368,70.78491,11.854,11.854,0,0,0,.4458,1.26343,108.00363,108.00363,0,0,0,203.15576.038A12.02789,12.02789,0,0,0,230.04834,163.361Zm-121.87451,8.63941h39.65234A106.1625,106.1625,0,0,1,128,204.61072,106.1625,106.1625,0,0,1,108.17383,172.00037Zm-6.53613-24a122.94134,122.94134,0,0,1,0-40h52.7246a122.94134,122.94134,0,0,1,0,40Zm-57.6377-20a83.84212,83.84212,0,0,1,2.42529-20H77.3291a151.14232,151.14232,0,0,0,0,40H46.42529A83.84212,83.84212,0,0,1,44,128.00037Zm103.82666-44H108.17334A106.15784,106.15784,0,0,1,128,51.39,106.15784,106.15784,0,0,1,147.82666,84.00037Zm30.84424,24h30.90381a83.677,83.677,0,0,1,0,40H178.6709a151.14232,151.14232,0,0,0,0-40Zm20.84521-24H173.38623a133.12389,133.12389,0,0,0-16.7583-34.97071A84.44718,84.44718,0,0,1,199.51611,84.00037ZM99.37207,49.02966a133.12389,133.12389,0,0,0-16.7583,34.97071H56.48389A84.44718,84.44718,0,0,1,99.37207,49.02966ZM56.48389,172.00037H82.61426a133.11488,133.11488,0,0,0,16.75879,34.97094A84.44863,84.44863,0,0,1,56.48389,172.00037ZM156.627,206.97131a133.11488,133.11488,0,0,0,16.75879-34.97094h26.13037A84.44863,84.44863,0,0,1,156.627,206.97131Z"/>
</svg>
