<svg xmlns="http://www.w3.org/2000/svg" viewBox="0 0 256 256"><path d="M230,163.4a107.4,107.4,0,0,0,0-70.8,6.5,6.5,0,0,0-.4-1.3,108,108,0,0,0-203.2,0,6.5,6.5,0,0,0-.4,1.3,107.4,107.4,0,0,0,0,70.8,6.5,6.5,0,0,0,.4,1.3,108,108,0,0,0,203.2,0A6.5,6.5,0,0,0,230,163.4ZM108.2,172h39.6A104.8,104.8,0,0,1,128,204.6,104.8,104.8,0,0,1,108.2,172Zm-6.6-24a125.8,125.8,0,0,1,0-40h52.8a125.8,125.8,0,0,1,0,40ZM44,128a87.6,87.6,0,0,1,2.4-20H77.3A165.2,165.2,0,0,0,76,128a163.9,163.9,0,0,0,1.3,20H46.4A87.6,87.6,0,0,1,44,128ZM147.8,84H108.2A104.8,104.8,0,0,1,128,51.4,104.8,104.8,0,0,1,147.8,84Zm30.9,24h30.9a84.5,84.5,0,0,1,0,40H178.7a163.9,163.9,0,0,0,1.3-20A165.2,165.2,0,0,0,178.7,108Zm20.8-24H173.4a134.7,134.7,0,0,0-16.8-35A85.1,85.1,0,0,1,199.5,84ZM99.4,49A134.7,134.7,0,0,0,82.6,84H56.5A85.1,85.1,0,0,1,99.4,49ZM56.5,172H82.6a134.7,134.7,0,0,0,16.8,35A84.6,84.6,0,0,1,56.5,172Zm100.1,35a134.7,134.7,0,0,0,16.8-35h26.1A84.6,84.6,0,0,1,156.6,207Z"/></svg>