<svg id="Flat" xmlns="http://www.w3.org/2000/svg" viewBox="0 0 256 256">
  <path d="M227.10742,170.88574a11.85671,11.85671,0,0,0,.6416-1.50439A107.91177,107.91177,0,0,0,190.0752,39.67383a12.14938,12.14938,0,0,0-1.24073-.86035A107.944,107.944,0,0,0,39.22168,189.43018c.03174.0542.05566.11084.08838.16455a12.00151,12.00151,0,0,0,1.09912,1.51416,107.83942,107.83942,0,0,0,153.1001,22.68994,11.98137,11.98137,0,0,0,1.73144-1.35156A108.59144,108.59144,0,0,0,227.10742,170.88574ZM184.82715,184.4541a20.0368,20.0368,0,0,0-9.08106-5.21875L157.752,174.51367l1.53321-10.41211L185.29,153.294l16.39258,14.99218a84.4906,84.4906,0,0,1-14.13574,18.89356ZM127.99707,44A83.47355,83.47355,0,0,1,170.9873,55.87109l.793,16.5L151.66016,95.61816,123.7666,99.39648,109.69531,87.57812a20.00051,20.00051,0,0,0-29.72412,4.55567L60.25488,123.03516a20.09749,20.09749,0,0,0-3.04248,8.79L53.751,166.86133l-.14356.08642A83.94593,83.94593,0,0,1,127.99707,44Zm-60.249,142.44629.124-.0752a20.09325,20.09325,0,0,0,9.56543-15.15527l3.56445-36.0791,16.74854-26.249,11.938,10.02636A20.05074,20.05074,0,0,0,125.2334,123.417l31.14746-4.21875a19.99156,19.99156,0,0,0,12.437-6.73047l22.15576-25.59961a19.89764,19.89764,0,0,0,4.42823-8.93408,83.71649,83.71649,0,0,1,15.082,65.877l-10.87842-9.94874a20.07316,20.07316,0,0,0-21.17334-3.709l-30.45166,12.65625a20.1004,20.1004,0,0,0-12.10938,15.55469l-2.38476,16.19629a19.97859,19.97859,0,0,0,14.71,22.25879l19.5874,5.14013A83.82013,83.82013,0,0,1,67.74805,186.44629Z"/>
</svg>
