<svg id="Flat" xmlns="http://www.w3.org/2000/svg" viewBox="0 0 256 256">
  <path d="M128,20.00037a108,108,0,1,0,108,108A108.12186,108.12186,0,0,0,128,20.00037Zm83.12891,96H179.52246c-1.95117-24.72242-9.90478-47.80493-22.89453-66.97071A84.24178,84.24178,0,0,1,211.12891,116.00037Zm-110.5376,24h54.81738C152.999,164.68982,143.24023,187.70105,128,204.61072,112.75977,187.70105,103.001,164.68982,100.59131,140.00037Zm0-24C103.001,91.31018,112.75977,68.29871,128,51.39c15.24023,16.90869,24.999,39.92016,27.40869,64.61035ZM99.37207,49.02966C86.38232,68.19544,78.42871,91.278,76.47754,116.00037H44.87109A84.24178,84.24178,0,0,1,99.37207,49.02966Zm-54.501,90.97071H76.47754c1.95117,24.72168,9.90527,47.80468,22.89551,66.97094A84.242,84.242,0,0,1,44.87109,140.00037ZM156.627,206.97131c12.99024-19.16626,20.94434-42.24926,22.89551-66.97094h31.60645A84.242,84.242,0,0,1,156.627,206.97131Z"/>
</svg>
