<svg id="Flat" xmlns="http://www.w3.org/2000/svg" viewBox="0 0 256 256">
  <path d="M224.53076,176.39453a12.04575,12.04575,0,0,0,.67383-1.354A107.97859,107.97859,0,0,0,155.91064,23.66406c-.15918-.04785-.31982-.08886-.481-.13037A107.89274,107.89274,0,0,0,57.89209,45.919a11.92824,11.92824,0,0,0-1.60986,1.40625A107.94812,107.94812,0,0,0,128,236c.7373,0,1.47119-.01318,2.20508-.02783.01806,0,.03613.00244.05469.00244.03515,0,.06982-.0044.105-.00488A108.13212,108.13212,0,0,0,224.53076,176.39453ZM212,128a83.70284,83.70284,0,0,1-3.7041,24.67432l-42.13281-25.91358a19.86909,19.86909,0,0,0-7.80371-2.7832L135.541,120.90137a20.08788,20.08788,0,0,0-17.80079,6.77832h-4.09082l-2.71191-5.60352a19.87621,19.87621,0,0,0-13.7998-10.84082l-1.84766-.397,1.67383-3.97412H115.6543a20.04437,20.04437,0,0,0,9.668-2.49219l12.24414-6.76172a20.09,20.09,0,0,0,3.74463-2.67187l26.91064-24.33789A19.92774,19.92774,0,0,0,174.668,58.1958,83.98115,83.98115,0,0,1,212,128ZM144.57813,45.65039l5.18359,9.28613-24.2041,21.88965-10.93457,6.03809H94.30859A19.96011,19.96011,0,0,0,75.87695,95.10059L74.5415,98.27148,67.68164,79.96191l7.16943-16.95459a83.87233,83.87233,0,0,1,69.72706-17.35693ZM44,128a83.604,83.604,0,0,1,5.1748-29.02832l6.96387,18.58691a19.91414,19.91414,0,0,0,14.52539,12.53516l5.56836,1.19678.05176.01123,13.90088,2.9873,2.95508,6.10449a20.12048,20.12048,0,0,0,13.21728,10.68457l-5.45556,12.24122a19.98056,19.98056,0,0,0,3.58252,21.71875l17.4248,18.84668-1.5,7.75585A84.10323,84.10323,0,0,1,44,128Zm101.125,82.24023.73242-3.78515a20.07449,20.07449,0,0,0-4.95068-17.376l-17.01026-18.39844,11.40625-25.59375,19.01172,2.5625,43.61426,26.82471A84.20966,84.20966,0,0,1,145.125,210.24023Z"/>
</svg>
