<svg id="Flat" xmlns="http://www.w3.org/2000/svg" viewBox="0 0 256 256">
  <path d="M225.60254,110.69922,57.83887,14.6709a20.21053,20.21053,0,0,0-20.11719.05664,19.6241,19.6241,0,0,0-9.9082,17.12891v192.2871a19.6241,19.6241,0,0,0,9.9082,17.12891,20.21222,20.21222,0,0,0,20.11719.05664l167.76367-96.02832a19.76215,19.76215,0,0,0,0-34.60156ZM51.81348,203.21582V52.78418L127.0293,128ZM144,144.9707l12.32861,12.32862L98.66309,190.30713ZM98.66309,65.69238l57.66552,33.0083L144,111.0293Zm79.251,79.25147L160.9707,128l16.94385-16.94385L207.51514,128Z"/>
</svg>
