<svg xmlns="http://www.w3.org/2000/svg" viewBox="0 0 256 256"><path d="M128,20A108,108,0,1,0,236,128,108.1,108.1,0,0,0,128,20Zm0,24a84.1,84.1,0,0,1,68.9,36H128a48.3,48.3,0,0,0-41.6,24L67,70.3A83.7,83.7,0,0,1,128,44Zm24,84a24,24,0,1,1-24-24A24.1,24.1,0,0,1,152,128ZM44,128a83.7,83.7,0,0,1,8-35.7L86.4,152c.1.1.2.2.2.3A48.1,48.1,0,0,0,128,176l-19.5,33.7A84.2,84.2,0,0,1,44,128Zm91.1,83.7L169.6,152a.8.8,0,0,1,.2-.4,47.8,47.8,0,0,0-.3-47.6h39a82.9,82.9,0,0,1,3.5,24A84.1,84.1,0,0,1,135.1,211.7Z"/></svg>