<svg xmlns="http://www.w3.org/2000/svg" viewBox="0 0 256 256"><path d="M140,24V48a12,12,0,0,1-24,0V24a12,12,0,0,1,24,0Zm36,32a12,12,0,0,0-12,12V92a12,12,0,0,0,24,0V68A12,12,0,0,0,176,56ZM128,196a12,12,0,0,0-12,12v24a12,12,0,0,0,24,0V208A12,12,0,0,0,128,196Zm0-120a12,12,0,0,0-12,12v80a12,12,0,0,0,24,0V88A12,12,0,0,0,128,76ZM80,56A12,12,0,0,0,68,68v56a12,12,0,0,0,24,0V68A12,12,0,0,0,80,56Zm96,64a12,12,0,0,0-12,12v56a12,12,0,0,0,24,0V132A12,12,0,0,0,176,120ZM32,104a12,12,0,0,0-12,12v24a12,12,0,0,0,24,0V116A12,12,0,0,0,32,104Zm48,48a12,12,0,0,0-12,12v24a12,12,0,0,0,24,0V164A12,12,0,0,0,80,152Zm144-48a12,12,0,0,0-12,12v24a12,12,0,0,0,24,0V116A12,12,0,0,0,224,104Z"/></svg>