<svg xmlns="http://www.w3.org/2000/svg" viewBox="0 0 256 256"><path d="M232,120H194.4A72.1,72.1,0,0,0,132,12a12,12,0,0,0-12,12V61.6A72.1,72.1,0,0,0,12,124a12,12,0,0,0,12,12H61.6A72.1,72.1,0,0,0,124,244a12,12,0,0,0,12-12V194.4A72.1,72.1,0,0,0,244,132,12,12,0,0,0,232,120ZM180,84a47.4,47.4,0,0,1-16.3,36H144V37.5A48.2,48.2,0,0,1,180,84ZM84,76a47.4,47.4,0,0,1,36,16.3V112H37.5A48.2,48.2,0,0,1,84,76Zm-8,96a47.4,47.4,0,0,1,16.3-36H112v82.5A48.2,48.2,0,0,1,76,172Zm96,8a47.4,47.4,0,0,1-36-16.3V144h82.5A48.2,48.2,0,0,1,172,180Z"/></svg>