<svg id="Flat" xmlns="http://www.w3.org/2000/svg" viewBox="0 0 256 256">
  <path d="M249.79688,85.49316l-116-64a11.9974,11.9974,0,0,0-11.59375,0l-116,64a11.99979,11.99979,0,0,0,0,21.01368L20,114.1189v51.07251a19.98065,19.98065,0,0,0,4.7041,12.88574C33.80957,188.8501,68.169,224,128,224a140.30873,140.30873,0,0,0,46-7.56079V240a12,12,0,0,0,24,0V205.46045a129.83994,129.83994,0,0,0,33.29492-27.38281A19.97853,19.97853,0,0,0,236,165.19141V114.1189l13.79688-7.61206a11.9998,11.9998,0,0,0,0-21.01368ZM128,45.70508,219.15918,96l-.85107.46973c-.021.01123-.04151.02295-.0625.03442L186,114.29492,133.79688,85.49316a11.99989,11.99989,0,1,0-11.59375,21.01368L161.15918,128,128,146.29492,37.75439,96.50415c-.021-.01147-.0415-.02319-.0625-.03442L36.84082,96ZM128,200c-47.55859,0-75.31836-26.44043-84-36.29639V127.36035l78.20313,43.14649a11.99914,11.99914,0,0,0,11.59375,0L174,148.32568v42.43384A115.56425,115.56425,0,0,1,128,200Zm84-36.29639a100.72968,100.72968,0,0,1-14,12.9751V135.08447l14-7.72412Z"/>
</svg>
