<svg xmlns="http://www.w3.org/2000/svg" viewBox="0 0 256 256"><path d="M223.5,140.9,188,155.1l-35.5-14.2a11.7,11.7,0,0,0-9,0L108,155.1,72.5,140.9a11.7,11.7,0,0,0-9,0l-40,16a12,12,0,1,0,9,22.2l3.5-1.4V184a44,44,0,0,0,44,44h96a44,44,0,0,0,44-44V168.1l12.5-5a12,12,0,0,0-9-22.2ZM196,184a20.1,20.1,0,0,1-20,20H80a20.1,20.1,0,0,1-20-20V168.1l8-3.2,35.5,14.2a11.7,11.7,0,0,0,9,0L148,164.9l35.5,14.2a11.7,11.7,0,0,0,9,0l3.5-1.4Zm36-84H219.2a92,92,0,0,0-182.4,0H24a12,12,0,0,0,0,24H232a12,12,0,0,0,0-24ZM128,44a68.1,68.1,0,0,1,66.9,56H61.1A68.1,68.1,0,0,1,128,44Z"/></svg>