<svg xmlns="http://www.w3.org/2000/svg" viewBox="0 0 256 256"><path d="M250.9,105.4,226.3,58.3a20.2,20.2,0,0,0-26.7-8.7L177.2,60.9H166.6L134.4,46.3a20.2,20.2,0,0,0-13.9-1h-.2L77.2,59,56.4,48.6a20.1,20.1,0,0,0-26.7,8.6L5.1,104.3a20.1,20.1,0,0,0-1.3,15.4,19.9,19.9,0,0,0,10.1,11.7l23.5,11.8L86.9,185l.4.3a20.4,20.4,0,0,0,7.4,3.6l58,14.5a19.7,19.7,0,0,0,4.8.6,20.1,20.1,0,0,0,14.2-5.9l36.8-36.8h.1l.4-.4.5-.7.2-.2.2-.3.2-.3,10.2-15.9,21.8-10.9a19.9,19.9,0,0,0,8.8-27.1Zm-54.1,30.3-33.7-24.5a12,12,0,0,0-14.3.1L136,120.9a20.1,20.1,0,0,1-24,0l-1.7-1.3L145,84.9h27.7l25.4,48.6ZM49.2,71.8l10.5,5.3-20.9,40-10.5-5.3ZM156.3,179.6l-54.8-13.7L59.1,130.1,84.2,82l41.7-13.2.8.4L90,105.9A19.9,19.9,0,0,0,92.2,136l5.4,4.1a44.4,44.4,0,0,0,52.8,0l5.7-4.3,25.5,18.5Zm60.9-61.5-20.9-40,10.5-5.2,20.9,40ZM119.6,223.8a12,12,0,0,1-11.6,9.1,14.5,14.5,0,0,1-2.9-.4L75,225a20.6,20.6,0,0,1-8.3-4.3L44.1,201.1a12.1,12.1,0,0,1,15.8-18.2l21.8,19,29.2,7.3A12,12,0,0,1,119.6,223.8Z"/></svg>