<svg xmlns="http://www.w3.org/2000/svg" viewBox="0 0 256 256"><path d="M200,76H188V64a36,36,0,0,0-60-26.8A35.9,35.9,0,0,0,69.3,54.5,36.6,36.6,0,0,0,56,52,36,36,0,0,0,20,88v40a108,108,0,0,0,216,0V112A36,36,0,0,0,200,76ZM152,52a12,12,0,0,1,12,12V76H140V64A12,12,0,0,1,152,52ZM92,64a12,12,0,0,1,24,0v40a12,12,0,0,1-24,0V64ZM44,88a12,12,0,0,1,24,0v16a12,12,0,0,1-24,0Zm168,40A84,84,0,0,1,44.6,138.2,36.2,36.2,0,0,0,80,130.8a36,36,0,0,0,24,9.2,35.6,35.6,0,0,0,19.6-5.9,35.3,35.3,0,0,0,6.4,6.4A51.8,51.8,0,0,0,116,176a12,12,0,0,0,24,0,28.1,28.1,0,0,1,28-28,12,12,0,0,0,0-24H152a12,12,0,0,1-12-12V100h60a12,12,0,0,1,12,12Z"/></svg>