<svg id="Flat" xmlns="http://www.w3.org/2000/svg" viewBox="0 0 256 256">
  <path d="M188,80a31.94168,31.94168,0,0,0-8,1.0127V52a31.99176,31.99176,0,0,0-43.21484-29.9668A31.99634,31.99634,0,0,0,76,36v9.0127A32.01181,32.01181,0,0,0,36,76v76a92,92,0,0,0,184,0V112A32.03635,32.03635,0,0,0,188,80Zm8,72a68,68,0,0,1-136,0V76a8,8,0,0,1,16,0v36a12,12,0,0,0,24,0V36a8,8,0,0,1,16,0v68a12,12,0,0,0,24,0V52a8,8,0,0,1,16,0v69.39746A52.09162,52.09162,0,0,0,116,172a12,12,0,0,0,24,0,28.03146,28.03146,0,0,1,28-28,12.00028,12.00028,0,0,0,12-12V112a8,8,0,0,1,16,0Z"/>
</svg>
