<svg xmlns="http://www.w3.org/2000/svg" viewBox="0 0 256 256"><path d="M188,36a35,35,0,0,0-8,1V36a32,32,0,0,0-60.8-14A32.1,32.1,0,0,0,76,52v60.5a32,32,0,0,0-43.2-10.9,31.5,31.5,0,0,0-15,19.4,31.9,31.9,0,0,0,3,23.8c15.7,33.1,29.5,58.5,46.1,75.1S102.3,244,128,244a92.1,92.1,0,0,0,92-92V68A32.1,32.1,0,0,0,188,36Zm8,116a68.1,68.1,0,0,1-68,68c-36.2,0-53-16.8-85.7-85.9a5.6,5.6,0,0,1-.5-.8,8.6,8.6,0,0,1-.8-6.1,7.9,7.9,0,0,1,3.8-4.8,7.5,7.5,0,0,1,6-.8,7.6,7.6,0,0,1,4.9,3.7l21.9,38a12,12,0,0,0,22.4-6V52a8,8,0,0,1,16,0v68a12,12,0,0,0,24,0V36a8,8,0,0,1,16,0v84a12,12,0,0,0,24,0V68a8,8,0,0,1,16,0Z"/></svg>