<svg id="Flat" xmlns="http://www.w3.org/2000/svg" viewBox="0 0 256 256">
  <path d="M242.93945,205.791l-14.22168-128A19.97942,19.97942,0,0,0,208.83984,60H178.58691A51.98794,51.98794,0,0,0,77.41309,60H47.16016A19.97942,19.97942,0,0,0,27.28223,77.791L13.06055,205.792A20,20,0,0,0,32.93848,228h190.123a20.00016,20.00016,0,0,0,19.87793-22.209ZM128,44a28.03341,28.03341,0,0,1,25.293,16H102.707A28.03341,28.03341,0,0,1,128,44ZM37.40723,204l13.333-120H76v20a12,12,0,0,0,24,0V84h56v20a12,12,0,0,0,24,0V84h25.25977l13.333,120Z"/>
</svg>
