<svg id="Flat" xmlns="http://www.w3.org/2000/svg" viewBox="0 0 256 256">
  <path d="M200,76H188V64a35.9767,35.9767,0,0,0-60-26.804A35.96779,35.96779,0,0,0,69.26855,54.54492,35.97777,35.97777,0,0,0,20,88v40a108,108,0,0,0,216,0V112A36.04061,36.04061,0,0,0,200,76ZM152,52a12.01343,12.01343,0,0,1,12,12V76H140V64A12.01343,12.01343,0,0,1,152,52ZM92,64a12,12,0,0,1,24,0v40a12,12,0,0,1-24,0V64ZM44,88a12,12,0,0,1,24,0v16a12,12,0,0,1-24,0Zm168,40A84.003,84.003,0,0,1,44.61035,138.15381,35.95752,35.95752,0,0,0,80,130.804a35.90058,35.90058,0,0,0,43.6499,3.33715,36.31106,36.31106,0,0,0,6.3833,6.36231A51.8053,51.8053,0,0,0,116,176a12,12,0,0,0,24,0,28.03146,28.03146,0,0,1,28-28,12,12,0,0,0,0-24H152a12.01343,12.01343,0,0,1-12-12V100h60a12.01343,12.01343,0,0,1,12,12Z"/>
</svg>
