<svg id="Flat" xmlns="http://www.w3.org/2000/svg" viewBox="0 0 256 256">
  <path d="M188,80a31.79775,31.79775,0,0,0-13.043,2.79A31.9885,31.9885,0,0,0,140,69.0127V36a32,32,0,0,0-64,0v76.50684a32,32,0,0,0-55.22656,32.31005c15.67676,33.04541,29.53027,58.46094,46.08984,75.06739C83.49512,236.5625,102.34961,244,128,244a92.10447,92.10447,0,0,0,92-92V112A32.03635,32.03635,0,0,0,188,80Zm8,72a68.07728,68.07728,0,0,1-68,68c-36.19434,0-53.01855-16.84961-85.72461-85.853q-.208-.43946-.45215-.86084a7.9999,7.9999,0,1,1,13.85645-7.99951l21.92773,37.97949a12.00013,12.00013,0,0,0,22.39258-6V36a8,8,0,0,1,16,0v68a12,12,0,0,0,24,0v-4a8,8,0,0,1,16,0v12a12,12,0,0,0,24,0,8,8,0,0,1,16,0Z"/>
</svg>
