<svg id="Flat" xmlns="http://www.w3.org/2000/svg" viewBox="0 0 256 256">
  <path d="M188,97.67676V92a36.04061,36.04061,0,0,0-36-36H140V36h28a4.00458,4.00458,0,0,1,4,4,12,12,0,0,0,24,0,28.03146,28.03146,0,0,0-28-28H104a12,12,0,0,0,0,24h12V56H104A36.04061,36.04061,0,0,0,68,92v5.67676A44.0699,44.0699,0,0,0,36,140v76a20.02229,20.02229,0,0,0,20,20H200a20.02229,20.02229,0,0,0,20-20V140A44.0699,44.0699,0,0,0,188,97.67676ZM104,80h48a12.01312,12.01312,0,0,1,12,12v4H92V92A12.01312,12.01312,0,0,1,104,80Zm92,132H60V140a20.02229,20.02229,0,0,1,20-20h96a20.02229,20.02229,0,0,1,20,20Z"/>
</svg>
