<svg xmlns="http://www.w3.org/2000/svg" viewBox="0 0 256 256"><path d="M144,184a16,16,0,1,1-16-16A16,16,0,0,1,144,184Zm35.5-19.3v-.4C175.6,151.6,160.2,128,128,128s-47.6,23.6-51.4,36.3v.4h0A12.6,12.6,0,0,0,76,168a12,12,0,0,0,23.5,3.3h0c.6-2,6.6-19.4,28.5-19.4s27.9,17.4,28.5,19.4h0A12,12,0,0,0,180,168a12.6,12.6,0,0,0-.5-3.3ZM220,112v40a92,92,0,0,1-184,0V68A32.1,32.1,0,0,1,68,36a35,35,0,0,1,8,1V36a32,32,0,0,1,60.8-14A32.1,32.1,0,0,1,180,52V81a35,35,0,0,1,8-1A32.1,32.1,0,0,1,220,112Zm-24,0a8,8,0,0,0-16,0v4a12,12,0,0,1-24,0V52a8,8,0,0,0-16,0v52a12,12,0,0,1-24,0V36a8,8,0,0,0-16,0v76a12,12,0,0,1-24,0V68a8,8,0,0,0-16,0v84a68,68,0,0,0,136,0Z"/></svg>