<svg id="Flat" xmlns="http://www.w3.org/2000/svg" viewBox="0 0 256 256">
  <path d="M188,36a31.94168,31.94168,0,0,0-8,1.0127V36a31.99634,31.99634,0,0,0-60.78516-13.9668A31.99176,31.99176,0,0,0,76,52v60.50684a32,32,0,0,0-55.22656,32.31005c15.67676,33.04541,29.53027,58.46094,46.08984,75.06739C83.49512,236.5625,102.34961,244,128,244a92.10447,92.10447,0,0,0,92-92V68A32.03635,32.03635,0,0,0,188,36Zm8,116a68.07728,68.07728,0,0,1-68,68c-36.19434,0-53.01855-16.84961-85.72461-85.853q-.208-.43946-.45215-.86084a7.9999,7.9999,0,1,1,13.85645-7.99951l21.92773,37.97949a12.00013,12.00013,0,0,0,22.39258-6V52a8,8,0,0,1,16,0v68a12,12,0,0,0,24,0V36a8,8,0,0,1,16,0v84a12,12,0,0,0,24,0V68a8,8,0,0,1,16,0Z"/>
</svg>
