<svg id="Flat" xmlns="http://www.w3.org/2000/svg" viewBox="0 0 256 256">
  <path d="M195.668,75.34863a31.99732,31.99732,0,0,0-43.71192-11.71386,32.19028,32.19028,0,0,0-6.42578,4.87158l-14.5039-25.12158A32.02263,32.02263,0,0,0,78.61719,39.022,32.006,32.006,0,0,0,32.96,81.5293l.50684.87793a32.00344,32.00344,0,0,0-19.14844,46.835l42,72.74609a92.00041,92.00041,0,1,0,159.34961-92Zm-25.67481,139.5293a68.0762,68.0762,0,0,1-92.88964-24.88965l-42-72.74609a8,8,0,0,1,13.85644-8l22,38.10547.00244.0039L74.96,154.27539a12.00024,12.00024,0,0,0,20.78516-12l-42.001-72.74707a7.99977,7.99977,0,0,1,13.85645-7.999L75.6001,75.38477l.00049.001,13,22.5166,21,36.373a12.00023,12.00023,0,1,0,20.78515-12l-8-13.856V108.419l-13-22.51661-13-22.51709a7.9999,7.9999,0,1,1,13.85645-7.99951l29.99756,51.95752.00244.0044,18,31.17675a12.00023,12.00023,0,1,0,20.78515-12L171.02783,112.669l-.00049-.001-10.00048-17.3208a7.99968,7.99968,0,1,1,13.856-7.99951l20,34.64062A68.0769,68.0769,0,0,1,169.99316,214.87793ZM144,28V12a12,12,0,0,1,24,0V28a12,12,0,0,1-24,0Zm41.60742,4.71777,8-13.85644a12.00024,12.00024,0,0,1,20.78516,12l-8,13.85644a12.00024,12.00024,0,1,1-20.78516-12Zm59.53125,37.67481-13.85644,8a12.00024,12.00024,0,1,1-12-20.78516l13.85644-8a12.00024,12.00024,0,0,1,12,20.78516Z"/>
</svg>
