<svg id="Flat" xmlns="http://www.w3.org/2000/svg" viewBox="0 0 256 256">
  <path d="M250.86816,105.37207,226.27637,58.27588a20.09815,20.09815,0,0,0-26.67285-8.63233L177.167,60.86133H166.58838L134.377,46.28613a20.01373,20.01373,0,0,0-13.83984-.97851c-.08691.0249-.17383.05127-.25977.07861L77.24023,58.99341,56.39746,48.57275a20.09127,20.09127,0,0,0-26.67285,8.63037L5.13086,104.30078a20.00048,20.00048,0,0,0,8.78516,27.145l23.43652,11.71838,49.57031,41.82215q.16992.14355.3457.28027a19.85611,19.85611,0,0,0,7.46973,3.64844l57.957,14.48926a19.80917,19.80917,0,0,0,4.80469.58984,20.11943,20.11943,0,0,0,14.18848-5.84961l36.79687-36.79785c.04688-.04669.08594-.09979.13184-.14722.13672-.14117.26513-.29138.39551-.44043.18066-.20636.35644-.41583.52294-.634.0542-.07129.1167-.13281.16944-.20563.07519-.10327.13574-.21234.207-.3172.061-.08984.13184-.17279.19043-.26434l10.21826-15.93878L242.084,132.51758a19.9994,19.9994,0,0,0,8.78418-27.14551Zm-54.10253,30.29968-33.708-24.515a12.00056,12.00056,0,0,0-14.25782.10449L136,120.86133a20.10132,20.10132,0,0,1-24,0l-1.73145-1.29785L144.9707,84.86133H163.937c.01856.00006.0376.00293.05615.00293.02735,0,.0542-.00275.08155-.00293H172.729l25.41163,48.66534ZM49.17969,71.7959,59.71,77.061,38.82031,117.06543,28.29,111.80029ZM156.31934,179.57227l-54.84766-13.71192-42.3833-35.75928L84.229,81.9549l41.65381-13.16974.84229.381-36.688,36.6878a20.00026,20.00026,0,0,0,2.1416,30.14209l5.4209,4.06543a44.22818,44.22818,0,0,0,52.80078,0l5.709-4.28222,25.47509,18.527Zm60.86035-61.43506L196.29,78.13281l10.53027-5.26513L227.71,112.87207ZM119.6416,223.77148a11.98529,11.98529,0,0,1-14.55176,8.73145L74.9502,224.96875a20.1014,20.1014,0,0,1-8.27149-4.31055L44.12793,201.05664a11.99968,11.99968,0,1,1,15.74414-18.11328L81.70215,201.918l29.208,7.30176A11.99951,11.99951,0,0,1,119.6416,223.77148Z"/>
</svg>
