<svg id="Flat" xmlns="http://www.w3.org/2000/svg" viewBox="0 0 256 256">
  <path d="M208,132H48a20.0226,20.0226,0,0,0-20,20v48a20.0226,20.0226,0,0,0,20,20H208a20.0226,20.0226,0,0,0,20-20V152A20.0226,20.0226,0,0,0,208,132Zm-4,64H52V156H204Zm4-160H48A20.0226,20.0226,0,0,0,28,56v48a20.0226,20.0226,0,0,0,20,20H208a20.0226,20.0226,0,0,0,20-20V56A20.0226,20.0226,0,0,0,208,36Zm-4,64H52V60H204ZM164.00049,80a16,16,0,1,1,16,16A16.00016,16.00016,0,0,1,164.00049,80Zm0,96a16,16,0,1,1,16,16A16.00016,16.00016,0,0,1,164.00049,176Z"/>
</svg>
