<svg id="Flat" xmlns="http://www.w3.org/2000/svg" viewBox="0 0 256 256">
  <path d="M205.53809,51.34863a107.23641,107.23641,0,0,0-76.81055-31.34619A108.001,108.001,0,0,0,20,128v56a28.03146,28.03146,0,0,0,28,28H64a28.03146,28.03146,0,0,0,28-28V144a28.03146,28.03146,0,0,0-28-28H44.84473a84.03742,84.03742,0,0,1,83.15234-72c.21289,0,.42773.001.6416.00244.0586.00049.11914.00049.17774,0,.21484-.00146.42773-.00244.6416-.00244a84.03742,84.03742,0,0,1,83.15332,72H193.45605a28.03146,28.03146,0,0,0-28,28v40a28.03146,28.03146,0,0,0,28,28h16a28.07207,28.07207,0,0,0,3.63428-.24365A20.02468,20.02468,0,0,1,193.45605,228H136a12,12,0,0,0,0,24h57.45605a44.04978,44.04978,0,0,0,44-44V128A107.25463,107.25463,0,0,0,205.53809,51.34863ZM64,140a4.00427,4.00427,0,0,1,4,4v40a4.00427,4.00427,0,0,1-4,4H48a4.00427,4.00427,0,0,1-4-4V140Zm145.45605,48h-16a4.00427,4.00427,0,0,1-4-4V144a4.00427,4.00427,0,0,1,4-4h20v44A4.00426,4.00426,0,0,1,209.45605,188Z"/>
</svg>
