<svg id="Flat" xmlns="http://www.w3.org/2000/svg" viewBox="0 0 256 256">
  <path d="M205.53809,59.34863a107.2585,107.2585,0,0,0-76.81055-31.34619A108.001,108.001,0,0,0,20,136v56a28.03146,28.03146,0,0,0,28,28H64a28.03146,28.03146,0,0,0,28-28V152a28.03146,28.03146,0,0,0-28-28H44.84473a84.03742,84.03742,0,0,1,83.15234-72c.21289,0,.42773.001.6416.00244.0586.00049.11914.00049.17774,0A84.03719,84.03719,0,0,1,212.61133,124H193.45605a28.03146,28.03146,0,0,0-28,28v40a28.03146,28.03146,0,0,0,28,28h16a28.03145,28.03145,0,0,0,28-28V136A107.25463,107.25463,0,0,0,205.53809,59.34863ZM64,148a4.00427,4.00427,0,0,1,4,4v40a4.00427,4.00427,0,0,1-4,4H48a4.00427,4.00427,0,0,1-4-4V148Zm149.45605,44a4.00426,4.00426,0,0,1-4,4h-16a4.00427,4.00427,0,0,1-4-4V152a4.00427,4.00427,0,0,1,4-4h20Z"/>
</svg>
