<svg xmlns="http://www.w3.org/2000/svg" viewBox="0 0 256 256"><path d="M205.5,51.3A107.1,107.1,0,0,0,128.7,20,107.9,107.9,0,0,0,20,128v56a28.1,28.1,0,0,0,28,28H64a28.1,28.1,0,0,0,28-28V144a28.1,28.1,0,0,0-28-28H44.8A84.1,84.1,0,0,1,128,44h1.5a84.1,84.1,0,0,1,83.1,72H193.5a28,28,0,0,0-28,28v40a28,28,0,0,0,28,28h16l3.6-.2A20,20,0,0,1,193.5,228H136a12,12,0,0,0,0,24h57.5a44.1,44.1,0,0,0,44-44V128A107.5,107.5,0,0,0,205.5,51.3ZM64,140a4,4,0,0,1,4,4v40a4,4,0,0,1-4,4H48a4,4,0,0,1-4-4V140Zm145.5,48h-16a3.9,3.9,0,0,1-4-4V144a3.9,3.9,0,0,1,4-4h20v44A4,4,0,0,1,209.5,188Z"/></svg>