<svg xmlns="http://www.w3.org/2000/svg" viewBox="0 0 256 256"><path d="M205.5,59.3A107.1,107.1,0,0,0,128.7,28,107.9,107.9,0,0,0,20,136v56a28.1,28.1,0,0,0,28,28H64a28.1,28.1,0,0,0,28-28V152a28.1,28.1,0,0,0-28-28H44.8A84.1,84.1,0,0,1,128,52h.8a84.1,84.1,0,0,1,83.8,72H193.5a28,28,0,0,0-28,28v40a28,28,0,0,0,28,28h16a28.1,28.1,0,0,0,28-28V136A107.5,107.5,0,0,0,205.5,59.3ZM64,148a4,4,0,0,1,4,4v40a4,4,0,0,1-4,4H48a4,4,0,0,1-4-4V148Zm149.5,44a4,4,0,0,1-4,4h-16a3.9,3.9,0,0,1-4-4V152a3.9,3.9,0,0,1,4-4h20Z"/></svg>