<svg id="Flat" xmlns="http://www.w3.org/2000/svg" viewBox="0 0 256 256">
  <path d="M128.01758,228a11.9948,11.9948,0,0,1-5.86328-1.52991C117.82031,224.04321,16.01758,166.18054,16.01758,92a64.02786,64.02786,0,0,1,112-42.37781A64.02786,64.02786,0,0,1,240.01758,92c0,74.18054-101.80274,132.04321-106.13672,134.47009A11.9948,11.9948,0,0,1,128.01758,228Zm-48-176a40.04559,40.04559,0,0,0-40,40c0,51.2218,67.44531,97.18567,88,110.00085,20.55469-12.81518,88-58.77905,88-110.00085a40.00869,40.00869,0,0,0-76.92774-15.40814,12.00014,12.00014,0,0,1-22.14453,0A39.92252,39.92252,0,0,0,80.01758,52Z"/>
</svg>
