<svg xmlns="http://www.w3.org/2000/svg" viewBox="0 0 256 256"><path d="M128,226.2a20.1,20.1,0,0,1-14.2-5.8L30.7,137.3a64.1,64.1,0,0,1,2.5-92.9,62.1,62.1,0,0,1,46-15.6,68.8,68.8,0,0,1,44.1,20l4.7,4.7,6.7-6.8a64.1,64.1,0,0,1,92.9,2.5,62.1,62.1,0,0,1,15.6,46,68.8,68.8,0,0,1-20,44.1l-81.1,81.1h0A19.8,19.8,0,0,1,128,226.2Zm5.6-14.3ZM75,52.7a38.1,38.1,0,0,0-25.7,9.5,40,40,0,0,0-1.6,58.1L128,200.6l78.2-78.2c15.9-16,17.5-41.6,3.6-57.1a40,40,0,0,0-58.1-1.6L136.5,78.9a12,12,0,0,1-17,0L106.3,65.8A44.2,44.2,0,0,0,75,52.7Z"/></svg>