<svg id="Flat" xmlns="http://www.w3.org/2000/svg" viewBox="0 0 256 256">
  <path d="M72,140H32a12,12,0,0,1,0-24H65.57812l12.4375-18.65625a11.99939,11.99939,0,0,1,19.96876,0L120,130.3667l6.01562-9.023A11.9998,11.9998,0,0,1,136,116h24a12,12,0,0,1,0,24H142.42188l-12.4375,18.65625a11.99939,11.99939,0,0,1-19.96876,0L88,125.6333l-6.01562,9.02295A11.9998,11.9998,0,0,1,72,140ZM176,28a63.85257,63.85257,0,0,0-48,21.62207A64.03115,64.03115,0,0,0,16.167,87.3457a12.00028,12.00028,0,0,0,23.93848,1.7251,40.01029,40.01029,0,0,1,76.82226-12.479,12.00027,12.00027,0,0,0,22.14454,0A40.0087,40.0087,0,0,1,216,92c0,51.22559-67.4585,97.19434-88.00391,110.00342-10.56445-6.58008-33.5166-21.92432-53.34863-42.35938A11.99989,11.99989,0,1,0,57.4248,176.3584c29.15528,30.04248,63.27393,49.30615,64.71192,50.11181a12.00109,12.00109,0,0,0,11.72656,0C138.19727,224.043,240,166.18066,240,92A64.07239,64.07239,0,0,0,176,28Z"/>
</svg>
