<svg id="Flat" xmlns="http://www.w3.org/2000/svg" viewBox="0 0 256 256">
  <path d="M128,226.21533a19.93749,19.93749,0,0,1-14.1416-5.8468L30.74512,137.25476A64.00169,64.00169,0,0,1,33.22949,44.3877,62.00843,62.00843,0,0,1,79.2168,28.80127,68.71888,68.71888,0,0,1,123.335,48.82568L128,53.49048l6.74512-6.74536a64.00273,64.00273,0,0,1,92.86718,2.48474A62.00271,62.00271,0,0,1,243.19922,95.217a68.72656,68.72656,0,0,1-20.02442,44.11829l-81.03222,81.03222-.001.00122A19.94136,19.94136,0,0,1,128,226.21533Zm5.65723-14.333h0ZM74.99316,52.70325A38.12025,38.12025,0,0,0,49.29,62.22253a40.00169,40.00169,0,0,0-1.57422,58.06165L128,200.569l78.2041-78.2041c15.94824-15.94861,17.55176-41.55249,3.57422-57.0752a40.00334,40.00334,0,0,0-58.0625-1.57385L136.48535,78.94617a12.00064,12.00064,0,0,1-16.9707.00012l-13.15039-13.1499A44.60214,44.60214,0,0,0,74.99316,52.70325Z"/>
</svg>
