<svg xmlns="http://www.w3.org/2000/svg" viewBox="0 0 256 256"><path d="M72,140H32a12,12,0,0,1,0-24H65.6L78,97.3a12.1,12.1,0,0,1,20,0l22,33.1,6-9.1a12.1,12.1,0,0,1,10-5.3h24a12,12,0,0,1,0,24H142.4L130,158.7a12.1,12.1,0,0,1-20,0L88,125.6l-6,9.1A12.1,12.1,0,0,1,72,140ZM176,28a64,64,0,0,0-48,21.6A64,64,0,0,0,16.2,87.3a12,12,0,1,0,23.9,1.8,40,40,0,0,1,76.8-12.5,12,12,0,0,0,22.2,0A40,40,0,0,1,216,92c0,51.2-67.5,97.2-88,110-10.6-6.6-33.5-21.9-53.4-42.4a12,12,0,0,0-17.2,16.8c29.2,30,63.3,49.3,64.7,50.1a12.4,12.4,0,0,0,11.8,0C138.2,224,240,166.2,240,92A64.1,64.1,0,0,0,176,28Z"/></svg>