<svg id="Flat" xmlns="http://www.w3.org/2000/svg" viewBox="0 0 256 256">
  <path d="M72,140H32a12,12,0,0,1,0-24H65.57812l12.4375-18.65625a11.99939,11.99939,0,0,1,19.96876,0L120,130.3667l6.01562-9.023A11.9998,11.9998,0,0,1,136,116h24a12,12,0,0,1,0,24H142.42188l-12.4375,18.65625a11.99939,11.99939,0,0,1-19.96876,0L88,125.6333l-6.01562,9.02295A11.9998,11.9998,0,0,1,72,140ZM176,28a63.85257,63.85257,0,0,0-48,21.62207A64.02794,64.02794,0,0,0,16,92c0,1.54834.04492,3.12207.13379,4.67725a12,12,0,1,0,23.96094-1.36768C40.03223,94.208,40,93.09424,40,92a40.0087,40.0087,0,0,1,76.92773-15.4082,12.00027,12.00027,0,0,0,22.14454,0A40.0087,40.0087,0,0,1,216,92c0,51.22559-67.45752,97.19385-88.00293,110.00293-11.82324-7.36621-39.16211-25.71338-60.30469-49.89941a12,12,0,1,0-18.06933,15.79541c30.41162,34.78955,70.80859,57.61669,72.51367,58.57128a12.00109,12.00109,0,0,0,11.72656,0C138.19727,224.043,240,166.18066,240,92A64.07239,64.07239,0,0,0,176,28Z"/>
</svg>
