<svg xmlns="http://www.w3.org/2000/svg" viewBox="0 0 256 256"><path d="M227.6,49.2a64.1,64.1,0,0,0-92.9-2.5L128,53.5l-4.7-4.7a68.8,68.8,0,0,0-44.1-20,62.1,62.1,0,0,0-46,15.6,64.1,64.1,0,0,0-2.5,92.9l83.2,83.1a20,20,0,0,0,28.2,0l81.1-81.1a68.8,68.8,0,0,0,20-44.1A62.1,62.1,0,0,0,227.6,49.2Zm-21.4,73.2L128,200.6,47.7,120.3a40,40,0,0,1,1.6-58.1A38.1,38.1,0,0,1,75,52.7a44.6,44.6,0,0,1,31.4,13.1l5,5-8.3,9.1a12.1,12.1,0,0,0,.4,16.6L127,120l-7.5,7.5a12,12,0,0,0,0,17,12.1,12.1,0,0,0,17,0l16-16a12,12,0,0,0,0-17L128.6,87.6l23.1-23.9a40,40,0,0,1,58.1,1.6C223.8,80.8,222.2,106.4,206.2,122.4Z"/></svg>