<svg xmlns="http://www.w3.org/2000/svg" viewBox="0 0 256 256"><path d="M176,28a64,64,0,0,0-45.3,18.7l-2.8,2.9A63.4,63.4,0,0,0,80,28,64.1,64.1,0,0,0,16,92c0,74.2,101.8,132,106.1,134.5a12.4,12.4,0,0,0,11.8,0C138.2,224,240,166.2,240,92A64.1,64.1,0,0,0,176,28ZM128,202c-20.6-12.8-88-58.8-88-110a40,40,0,0,1,70.9-25.4L98.7,78.7a12.2,12.2,0,0,0,0,17l23.6,23.5-7.6,7.5a12.2,12.2,0,0,0,0,17,12,12,0,0,0,17,0l16-16a12,12,0,0,0,0-17L124.2,87.2l10.3-10.3.4-.4,12.8-12.8A40,40,0,0,1,216,92C216,143.2,148.6,189.2,128,202Z"/></svg>