<svg id="Flat" xmlns="http://www.w3.org/2000/svg" viewBox="0 0 256 256">
  <path d="M204.36719,51.63232A107.99894,107.99894,0,1,0,236,128,108.12118,108.12118,0,0,0,204.36719,51.63232ZM140,136H116V111.4165l24-12Zm-40,71.2337V160h56v47.2337a84.62724,84.62724,0,0,1-56,0Zm87.39648-19.83722A85.306,85.306,0,0,1,180,193.9541V156a20.0333,20.0333,0,0,0-16-19.59686V80a11.99955,11.99955,0,0,0-17.36621-10.73291l-48,24A11.99981,11.99981,0,0,0,92,104v32.40314A20.0333,20.0333,0,0,0,76,156v37.9541a85.306,85.306,0,0,1-7.39648-6.55762,84,84,0,1,1,118.793,0Z"/>
</svg>
