<svg xmlns="http://www.w3.org/2000/svg" viewBox="0 0 256 256"><path d="M204.9,52.2A107.2,107.2,0,0,0,128,20h-8a12,12,0,0,0-12,12V57.3L9.7,117.8a12.2,12.2,0,0,0-5.5,7.8A12.1,12.1,0,0,0,6.3,135l13.8,19.1a35.7,35.7,0,0,0,35.2,14.5c12.3-2.1,34-3.9,54.7,4L88.8,202.3A84.3,84.3,0,0,1,72,190.6a12,12,0,0,0-16,17.9A107.7,107.7,0,0,0,128,236h2.2A108,108,0,0,0,204.9,52.2ZM187.5,187.1a83.1,83.1,0,0,1-75.1,23.4l22-30.8A60.2,60.2,0,0,0,188,120a12,12,0,0,0-24,0,36,36,0,0,1-33,35.9c-29.6-16.2-62.4-13.9-79.7-11a12,12,0,0,1-11.8-4.8l-6.2-8.6,93-57.3A12,12,0,0,0,132,64V44.1a83.8,83.8,0,0,1,55.5,143ZM144,104a16,16,0,1,1-16-16A16,16,0,0,1,144,104Z" /></svg>