<svg id="Flat" xmlns="http://www.w3.org/2000/svg" viewBox="0 0 256 256">
  <path d="M143.99976,104a16,16,0,1,1-16-16A16,16,0,0,1,143.99976,104Zm91.9895,25.53418A108.29611,108.29611,0,0,1,130.17969,235.97852q-1.08546.02124-2.168.02148a107.64568,107.64568,0,0,1-72.01465-27.50342,11.99982,11.99982,0,1,1,16.00586-17.88281,84.0305,84.0305,0,0,0,16.75684,11.67676l21.22851-29.72022c-20.68262-7.8501-42.40918-6.085-54.68359-4.00732a35.803,35.803,0,0,1-35.25-14.42725L6.26758,135.01953a11.99917,11.99917,0,0,1,3.44336-17.23926L108,57.29443V32a12.00028,12.00028,0,0,1,12-12h8A108.00007,108.00007,0,0,1,235.98926,129.53418Zm-23.99805-.334A84.00334,84.00334,0,0,0,132,44.09277V64a11.99983,11.99983,0,0,1-5.71094,10.21973L33.28613,131.45264l6.2334,8.644a11.96127,11.96127,0,0,0,11.7793,4.80322c17.29028-2.92724,50.10229-5.23,79.65429,10.96924A36.04146,36.04146,0,0,0,164,120a12,12,0,0,1,24,0,60.08219,60.08219,0,0,1-53.57617,59.65186L112.36035,210.541a84.68094,84.68094,0,0,0,17.34473,1.44238,84.29525,84.29525,0,0,0,82.28613-82.7832Z"/>
</svg>
