<svg id="Flat" xmlns="http://www.w3.org/2000/svg" viewBox="0 0 256 256">
  <path d="M204.90039,52.169A107.22224,107.22224,0,0,0,128,20h-8a12.00028,12.00028,0,0,0-12,12V57.29443L9.71094,117.78027a11.99917,11.99917,0,0,0-3.44336,17.23926l13.78711,19.11621a35.803,35.803,0,0,0,35.25,14.42725c12.27441-2.07764,34.001-3.84278,54.68359,4.00732L88.75977,202.29053a84.0305,84.0305,0,0,1-16.75684-11.67676,11.99982,11.99982,0,1,0-16.00586,17.88281A107.64568,107.64568,0,0,0,128.01172,236q1.08252,0,2.168-.02148A108.00034,108.00034,0,0,0,204.90039,52.169Zm-17.4082,134.9707a83.47468,83.47468,0,0,1-57.78711,24.84375,84.68094,84.68094,0,0,1-17.34473-1.44238l22.06348-30.88916A60.08219,60.08219,0,0,0,188,120a12,12,0,0,0-24,0,36.04146,36.04146,0,0,1-33.04688,35.86914c-29.552-16.19922-62.364-13.89648-79.65429-10.96924a11.96127,11.96127,0,0,1-11.7793-4.80322l-6.2334-8.644,93.00293-57.23291A11.99983,11.99983,0,0,0,132,64V44.09277a83.88226,83.88226,0,0,1,55.49219,143.04688ZM144,104a16,16,0,1,1-16-16A16.01833,16.01833,0,0,1,144,104Z" fill="#010200"/>
</svg>
