<svg id="Flat" xmlns="http://www.w3.org/2000/svg" viewBox="0 0 256 256">
  <path d="M204,75.64111V40a20.02229,20.02229,0,0,0-20-20H72A20.02229,20.02229,0,0,0,52,40V76a20.09552,20.09552,0,0,0,8,16l48,36L60,164a20.09411,20.09411,0,0,0-7.99756,15.92383C52.002,179.938,52,179.9519,52,179.96631l.00049.01294L52,180v36a20.0226,20.0226,0,0,0,20,20H184a20.0226,20.0226,0,0,0,20-20V180.35889a20.10173,20.10173,0,0,0-7.93994-15.95459L147.90039,128l48.16016-36.404A20.10457,20.10457,0,0,0,204,75.64111ZM161.37793,168.273l-66.8252-.1875,33.419-25.06421ZM76,212V192.03369l104,.29151V212ZM180,73.65063l-52.02832,39.32813L76,74V44H180Z"/>
</svg>
