<svg id="Flat" xmlns="http://www.w3.org/2000/svg" viewBox="0 0 256 256">
  <path d="M184,20H72A20.02229,20.02229,0,0,0,52,40V76a20.09552,20.09552,0,0,0,8,16l48,36L60,164a20.09552,20.09552,0,0,0-8,16v36a20.02229,20.02229,0,0,0,20,20H184a20.02229,20.02229,0,0,0,20-20V180.35889a20.10312,20.10312,0,0,0-7.93994-15.95459L147.90039,128l48.16016-36.4043A20.10408,20.10408,0,0,0,204,75.64111V40A20.02229,20.02229,0,0,0,184,20Zm-4,24V59.99561H76V44Zm-52.02832,68.97852-38.644-28.98291h76.98681ZM180,212H76V182l51.97168-38.97852L180,182.34961Z"/>
</svg>
