<svg id="Flat" xmlns="http://www.w3.org/2000/svg" viewBox="0 0 256 256">
  <path d="M239.98242,204h-12V115.53882a20.04389,20.04389,0,0,0-6.5459-14.79859L141.43066,28.00488a19.92293,19.92293,0,0,0-26.90918.001L34.52832,100.74023a20.039,20.039,0,0,0-6.5459,14.79834V204h-12a12,12,0,1,0,0,24h224a12,12,0,0,0,0-24Zm-188-86.69214,75.99414-69.09814,76.00586,69.09814V204H163.97656V159.9917a20.02244,20.02244,0,0,0-20-20h-32a20.02244,20.02244,0,0,0-20,20V204H51.98242ZM139.97656,204h-24V163.9917h24Z"/>
</svg>
