<svg id="Flat" xmlns="http://www.w3.org/2000/svg" viewBox="0 0 256 256">
  <path d="M140,108a12,12,0,0,1,12-12h32a12,12,0,0,1,0,24H152A12,12,0,0,1,140,108Zm12,52h32a12,12,0,0,0,0-24H152a12,12,0,0,0,0,24Zm-91.89941,4a33.89249,33.89249,0,0,1,9.94067-24,34,34,0,1,1,48.11865,0,33.89249,33.89249,0,0,1,9.94068,24,12,12,0,0,1-24,0,10,10,0,0,0-20,0,12,12,0,0,1-24,0Zm24-48a10,10,0,1,0,10-10A10.01114,10.01114,0,0,0,84.10059,116ZM236,56V200a20.02292,20.02292,0,0,1-20,20H40a20.02292,20.02292,0,0,1-20-20V56A20.02292,20.02292,0,0,1,40,36H216A20.02292,20.02292,0,0,1,236,56Zm-24,4H44V196H212Z"/>
</svg>
