<svg id="Flat" xmlns="http://www.w3.org/2000/svg" viewBox="0 0 256 256">
  <path d="M140,112a12,12,0,0,1,12-12h40a12,12,0,0,1,0,24H152A12,12,0,0,1,140,112Zm12,44h40a12,12,0,0,0,0-24H152a12,12,0,0,0,0,24ZM49.48779,165.0083a43.866,43.866,0,0,1,14.35327-22.74585,36.00005,36.00005,0,1,1,56.5188.00025,43.86606,43.86606,0,0,1,14.353,22.74267,12.00013,12.00013,0,0,1-23.24219,5.98438,20.01029,20.01029,0,0,0-38.74072.001,11.99988,11.99988,0,1,1-23.24219-5.98242ZM92.10059,132a12,12,0,1,0-12-12A12.01375,12.01375,0,0,0,92.10059,132ZM236,56V200a20.02292,20.02292,0,0,1-20,20H40a20.02292,20.02292,0,0,1-20-20V56A20.02292,20.02292,0,0,1,40,36H216A20.02292,20.02292,0,0,1,236,56Zm-24,4H44V196H212Z"/>
</svg>
