<svg id="Flat" xmlns="http://www.w3.org/2000/svg" viewBox="0 0 256 256">
  <path d="M139.99951,100a16,16,0,1,1,16,16A16.00009,16.00009,0,0,1,139.99951,100Zm96.001-43.99988V199.99963a20.02229,20.02229,0,0,1-20,20h-176a20.02229,20.02229,0,0,1-20-20V56.00012a20.0226,20.0226,0,0,1,20-20h176A20.0226,20.0226,0,0,1,236.00049,56.00012Zm-192,4v79.028l35.51367-35.51337a11.99975,11.99975,0,0,1,16.9707,0l47.51465,47.51416,23.51465-23.51416a11.99975,11.99975,0,0,1,16.9707,0l27.51563,27.51532v-95.03Zm168,135.99951v-7.02826l-36.001-36.00055L152.48486,176.485a11.99974,11.99974,0,0,1-16.9707,0L87.99951,128.97082l-43.999,43.9986v23.03021Z"/>
</svg>
