<svg id="Flat" xmlns="http://www.w3.org/2000/svg" viewBox="0 0 256 256">
  <path d="M83.99951,92a16,16,0,1,1,16,16A16.00009,16.00009,0,0,1,83.99951,92Zm144.001-44.00037v160a20.02229,20.02229,0,0,1-20,20h-160a20.02229,20.02229,0,0,1-20-20v-160a20.02229,20.02229,0,0,1,20-20h160A20.02229,20.02229,0,0,1,228.00049,47.99963Zm-176,4v95.02893l13.85742-13.857a20.0228,20.0228,0,0,1,28.28418,0l17.8584,17.8584,41.85742-41.8584a20.02547,20.02547,0,0,1,28.28418,0l21.8584,21.8584V51.99963Zm152,152V164.97125l-36-36.00091-41.8584,41.85839a20.02458,20.02458,0,0,1-28.28418,0l-17.8584-17.85839-27.999,27.999v23.03027Z"/>
</svg>
