<svg id="Flat" xmlns="http://www.w3.org/2000/svg" viewBox="0 0 256 256">
  <path d="M88.68652,103.31445A16.00044,16.00044,0,1,1,116.001,92v.00488a16.00106,16.00106,0,0,1-27.31446,11.30957ZM228,48V208a20.02229,20.02229,0,0,1-20,20H48a20.02229,20.02229,0,0,1-20-20V48A20.02229,20.02229,0,0,1,48,28H208A20.02229,20.02229,0,0,1,228,48ZM204,164.97064,168.001,128.9707l-41.8584,41.8584a20.02459,20.02459,0,0,1-28.28418,0L80,152.9707l-28,28V204H204ZM204,52H52v95.02991l13.8584-13.858a20.02282,20.02282,0,0,1,28.28418,0l17.8584,17.8584,41.85742-41.8584a20.02549,20.02549,0,0,1,28.28418,0L204,131.0293Z"/>
</svg>
