<svg id="Flat" xmlns="http://www.w3.org/2000/svg" viewBox="0 0 256 256">
  <path d="M235.99951,183.99451V56.00012a20.0226,20.0226,0,0,0-20-20h-176a20.0226,20.0226,0,0,0-20,20V199.99963a20.02229,20.02229,0,0,0,20,20h176a20.02229,20.02229,0,0,0,20-20V183.99451Zm-24-123.99439v95.02881l-21.85742-21.85742a20.001,20.001,0,0,0-28.28418,0l-17.85742,17.85791-41.8584-41.85791a20.0237,20.0237,0,0,0-28.28418,0l-29.8584,29.85785V60.00012Zm-168,135.99951V172.9704l44-43.99958,41.8584,41.85791a20.00094,20.00094,0,0,0,28.28418,0l17.8584-17.85791,35.999,35.99945v7.02936Zm100.68555-84.68652a16.00029,16.00029,0,1,1,27.31543-11.313v.00537a16.00071,16.00071,0,0,1-27.31543,11.30762Z"/>
</svg>
