<svg id="Flat" xmlns="http://www.w3.org/2000/svg" viewBox="0 0 256 256">
  <path d="M128,76a52,52,0,1,0,52,52A52.059,52.059,0,0,0,128,76Zm0,80a28,28,0,1,1,28-28A28.03146,28.03146,0,0,1,128,156ZM172,24H84A60.06812,60.06812,0,0,0,24,84v88a60.06812,60.06812,0,0,0,60,60h88a60.06812,60.06812,0,0,0,60-60V84A60.06812,60.06812,0,0,0,172,24Zm36,148a36.04061,36.04061,0,0,1-36,36H84a36.04061,36.04061,0,0,1-36-36V84A36.04061,36.04061,0,0,1,84,48h88a36.04061,36.04061,0,0,1,36,36ZM196,76a16,16,0,1,1-16-16A16.00016,16.00016,0,0,1,196,76Z"/>
</svg>
