<svg id="Flat" xmlns="http://www.w3.org/2000/svg" viewBox="0 0 256 256">
  <path d="M240,84h-9.592l-5.54761-38.83008A20.09845,20.09845,0,0,0,205.06152,28H50.93848A20.1002,20.1002,0,0,0,31.13867,45.1709L25.5918,84H16a12,12,0,0,0,0,24h8V208a20.02229,20.02229,0,0,0,20,20H68a20.02229,20.02229,0,0,0,20-20V188h80v20a20.02229,20.02229,0,0,0,20,20h24a20.02229,20.02229,0,0,0,20-20V108h8a12,12,0,0,0,0-24ZM54.40723,52H201.59277l4.57129,32H49.83594ZM64,204H48V188H64Zm128,0V188h16v16Zm16-40H156V128a12,12,0,0,0-24,0v36h-8V128a12,12,0,0,0-24,0v36H48V108H208ZM56,132a16,16,0,1,1,16,16A16.00016,16.00016,0,0,1,56,132Zm112,0a16,16,0,1,1,16,16A16.00016,16.00016,0,0,1,168,132Z"/>
</svg>
