<svg id="Flat" xmlns="http://www.w3.org/2000/svg" viewBox="0 0 256 256">
  <path d="M160.00244,12A84.06494,84.06494,0,0,0,79.37939,119.65234l-55.8623,55.86231A12.00282,12.00282,0,0,0,20.00244,184v40a11.99934,11.99934,0,0,0,12,12h40a11.99934,11.99934,0,0,0,12-12V212h12a11.99934,11.99934,0,0,0,12-12V188h12a12.00282,12.00282,0,0,0,8.48535-3.51465l7.86231-7.8623A84.00932,84.00932,0,1,0,160.00244,12Zm0,144a59.70987,59.70987,0,0,1-22.10449-4.19922,12.01272,12.01272,0,0,0-13.21289,2.5459L115.03174,164H96.00244a11.99934,11.99934,0,0,0-12,12v12h-12a11.99934,11.99934,0,0,0-12,12v12h-16V188.9707l57.65332-57.65332a12.005,12.005,0,0,0,2.54688-13.21093A60.01234,60.01234,0,1,1,160.00244,156Zm35.99707-80a16,16,0,1,1-16-16A16.01833,16.01833,0,0,1,195.99951,76Z"/>
</svg>
