<svg id="Flat" xmlns="http://www.w3.org/2000/svg" viewBox="0 0 256 256">
  <path d="M196,76a16,16,0,1,1-16-16A16.00016,16.00016,0,0,1,196,76Zm48.00244,20A84.06494,84.06494,0,0,1,136.3501,176.62305l-7.86231,7.8623A12.00282,12.00282,0,0,1,120.00244,188h-12v12a11.99934,11.99934,0,0,1-12,12h-12v12a11.99934,11.99934,0,0,1-12,12h-40a11.99934,11.99934,0,0,1-12-12V184a12.00282,12.00282,0,0,1,3.51465-8.48535l55.8623-55.86231A84.00932,84.00932,0,1,1,244.00244,96Zm-24,0a60,60,0,1,0-115.7998,22.10645,12.005,12.005,0,0,1-2.54688,13.21093L44.00244,188.9707V212h16V200a11.99934,11.99934,0,0,1,12-12h12V176a11.99934,11.99934,0,0,1,12-12h19.0293l9.65332-9.65332a12.01272,12.01272,0,0,1,13.21289-2.5459A60.04441,60.04441,0,0,0,220.00244,96Z"/>
</svg>
