<svg id="Flat" xmlns="http://www.w3.org/2000/svg" viewBox="0 0 256 256">
  <path d="M223.51465,44H32.48535A20.50824,20.50824,0,0,0,12,64.48535v127.0293A20.50824,20.50824,0,0,0,32.48535,212h191.0293A20.50824,20.50824,0,0,0,244,191.51465V64.48535A20.50824,20.50824,0,0,0,223.51465,44ZM220,188H36V68H220ZM52,128a12.00028,12.00028,0,0,1,12-12H192a12,12,0,0,1,0,24H64A12.00028,12.00028,0,0,1,52,128Zm0-36A12.00028,12.00028,0,0,1,64,80H192a12,12,0,0,1,0,24H64A12.00028,12.00028,0,0,1,52,92Zm0,72a12.00028,12.00028,0,0,1,12-12h8a12,12,0,0,1,0,24H64A12.00028,12.00028,0,0,1,52,164Zm108,0a12.00028,12.00028,0,0,1-12,12H108a12,12,0,0,1,0-24h40A12.00028,12.00028,0,0,1,160,164Zm44,0a12.00028,12.00028,0,0,1-12,12h-8a12,12,0,0,1,0-24h8A12.00028,12.00028,0,0,1,204,164Z"/>
</svg>
