<svg id="Flat" xmlns="http://www.w3.org/2000/svg" viewBox="0 0 256 256">
  <path d="M223.51465,44H32.48535A20.50824,20.50824,0,0,0,12,64.48535v127.0293A20.50824,20.50824,0,0,0,32.48535,212h191.0293A20.50824,20.50824,0,0,0,244,191.51465V64.48535A20.50824,20.50824,0,0,0,223.51465,44ZM220,188H36V68H220ZM44,128a12.00028,12.00028,0,0,1,12-12H200a12,12,0,0,1,0,24H56A12.00028,12.00028,0,0,1,44,128Zm0-32A12.00028,12.00028,0,0,1,56,84H200a12,12,0,0,1,0,24H56A12.00028,12.00028,0,0,1,44,96Zm0,64a12.00028,12.00028,0,0,1,12-12h8a12,12,0,0,1,0,24H56A12.00028,12.00028,0,0,1,44,160Zm128,0a12.00028,12.00028,0,0,1-12,12H96a12,12,0,0,1,0-24h64A12.00028,12.00028,0,0,1,172,160Zm40,0a12.00028,12.00028,0,0,1-12,12h-8a12,12,0,0,1,0-24h8A12.00028,12.00028,0,0,1,212,160Z"/>
</svg>
