<svg xmlns="http://www.w3.org/2000/svg" viewBox="0 0 256 256"><path d="M128,20A108,108,0,1,0,236,128,108.1,108.1,0,0,0,128,20Zm0,192a84,84,0,1,1,84-84A84.1,84.1,0,0,1,128,212Zm31.9-79.9a39.7,39.7,0,0,0,8-27.4,40,40,0,1,0-71.8,27.4l-8.7,30.4A19.6,19.6,0,0,0,90.6,180a20,20,0,0,0,16,8h42.8a20,20,0,0,0,16-8,19.6,19.6,0,0,0,3.2-17.5Zm-48,31.9,9.1-31.7a12,12,0,0,0-3.6-12.3,16.2,16.2,0,0,1-5.4-12,16.1,16.1,0,0,1,17.1-16,16,16,0,0,1,14.8,14.7,15.6,15.6,0,0,1-5.3,13.3,12,12,0,0,0-3.6,12.3l9.1,31.7Z"/></svg>