<svg xmlns="http://www.w3.org/2000/svg" viewBox="0 0 256 256"><path d="M219.3,211.9,168.8,73l7.6-21H184a12,12,0,0,0,0-24H88A12,12,0,0,0,76,40,11.9,11.9,0,0,0,86.9,51.9l-58.2,160a12.1,12.1,0,0,0,7.2,15.4,11.8,11.8,0,0,0,4.1.7,12,12,0,0,0,11.3-7.9L60,196H98.5l-5.8,15.9a12.1,12.1,0,0,0,7.2,15.4,11.8,11.8,0,0,0,4.1.7,12,12,0,0,0,11.3-7.9L132.8,172h46.4l17.5,48.1A12,12,0,0,0,208,228a11.8,11.8,0,0,0,4.1-.7A12.1,12.1,0,0,0,219.3,211.9ZM124.7,124H86.2L95,100h38.4Zm17.4-48H103.7l8.7-24h38.5ZM68.8,172l8.7-24H116l-8.8,24Zm72.7-24L156,108.1,170.5,148Z"/></svg>