<svg id="Flat" xmlns="http://www.w3.org/2000/svg" viewBox="0 0 256 256">
  <path d="M232,156h-4V72a28.03146,28.03146,0,0,0-28-28H56A28.03146,28.03146,0,0,0,28,72v84H24a11.99966,11.99966,0,0,0-12,12v24a28.03146,28.03146,0,0,0,28,28H216a28.03146,28.03146,0,0,0,28-28V168A11.99966,11.99966,0,0,0,232,156ZM52,72a4.00427,4.00427,0,0,1,4-4H200a4.00427,4.00427,0,0,1,4,4v84H52ZM220,192a4.00427,4.00427,0,0,1-4,4H40a4.00427,4.00427,0,0,1-4-4V180H220ZM156,96a12.00028,12.00028,0,0,1-12,12H112a12,12,0,0,1,0-24h32A12.00028,12.00028,0,0,1,156,96Z"/>
</svg>
