<svg id="Flat" xmlns="http://www.w3.org/2000/svg" viewBox="0 0 256 256">
  <path d="M227.97949,39.29541a12.00073,12.00073,0,0,0-11.2749-11.2749c-39.69531-2.33106-74.771,2.34131-104.248,13.89746-28.19336,11.05322-49.937,28.19189-62.88086,49.56348-17.66882,29.1734-17.70532,64.60217-.44336,98.41552L31.51465,207.51465a12.0001,12.0001,0,0,0,16.9707,16.9707l17.6167-17.61676c16.7843,8.56879,33.96338,12.88434,50.58252,12.88434a91.50428,91.50428,0,0,0,47.834-13.3291c21.37159-12.94336,38.51026-34.6875,49.56348-62.88037C225.63867,114.06641,230.31445,78.99219,227.97949,39.29541Zm-75.894,146.6001c-20.15918,12.21112-43.86157,13.13074-67.95142,2.9411l84.35132-84.35126a12.0001,12.0001,0,0,0-16.9707-16.9707L67.16333,171.866c-10.18921-24.0893-9.269-47.79181,2.94116-67.95142,20.97022-34.624,70.7378-53.8623,134.36328-52.38232C205.95557,115.14453,186.70947,164.92578,152.08545,185.89551Z"/>
</svg>
