<svg id="Flat" xmlns="http://www.w3.org/2000/svg" viewBox="0 0 256 256">
  <path d="M220.57812,42.9209a11.99718,11.99718,0,0,0-7.499-7.499A139.764,139.764,0,0,0,168,28C90.80371,28,28,90.80371,28,168a140.00315,140.00315,0,0,0,5.18616,37.84314L15.51465,223.51465a12.0001,12.0001,0,0,0,16.9707,16.9707l17.67188-17.67193A140.00022,140.00022,0,0,0,88,228c77.19629,0,140-62.80371,140-140A139.764,139.764,0,0,0,220.57812,42.9209ZM88,204a116.91,116.91,0,0,1-17.67517-1.35413l98.16052-98.16052a12.0001,12.0001,0,0,0-16.9707-16.9707L53.35376,185.67548A116.08815,116.08815,0,0,1,199.63525,56.36475,116.10029,116.10029,0,0,1,88,204Z"/>
</svg>
