<svg id="Flat" xmlns="http://www.w3.org/2000/svg" viewBox="0 0 256 256">
  <path d="M205.20166,203.44141a107.79711,107.79711,0,0,0,0-150.88282,12.02963,12.02963,0,0,0-1.76025-1.76025,107.79711,107.79711,0,0,0-150.88282,0,12.02963,12.02963,0,0,0-1.76025,1.76025,107.79711,107.79711,0,0,0,0,150.88282,12.001,12.001,0,0,0,1.76074,1.76025,107.79591,107.79591,0,0,0,150.88184,0,12.001,12.001,0,0,0,1.76074-1.76025Zm-9.95215-25.1626-23.00244-23.00244a51.85835,51.85835,0,0,0,0-54.55274l23.00244-23.00244a83.83449,83.83449,0,0,1,0,100.55762ZM100,128a28,28,0,1,1,28,28A28.03146,28.03146,0,0,1,100,128Zm78.27881-67.24951L155.27637,83.75293a51.85835,51.85835,0,0,0-54.55274,0L77.72119,60.75049a83.83449,83.83449,0,0,1,100.55762,0ZM60.75049,77.72119l23.00244,23.00244a51.85835,51.85835,0,0,0,0,54.55274L60.75049,178.27881a83.83449,83.83449,0,0,1,0-100.55762Zm16.9707,117.52832,23.00244-23.00244a51.85835,51.85835,0,0,0,54.55274,0l23.00244,23.00244a83.83449,83.83449,0,0,1-100.55762,0Z"/>
</svg>
