<svg xmlns="http://www.w3.org/2000/svg" viewBox="0 0 256 256"><path d="M205.2,203.4a107.7,107.7,0,0,0,0-150.8l-.8-1-1-.8a107.7,107.7,0,0,0-150.8,0l-1,.8-.8,1a107.7,107.7,0,0,0,0,150.8l.8,1,1,.8a107.7,107.7,0,0,0,150.8,0l1-.8Zm-10-25.1-23-23a51.7,51.7,0,0,0,0-54.6l23-23a83.7,83.7,0,0,1,0,100.6ZM100,128a28,28,0,1,1,28,28A28.1,28.1,0,0,1,100,128Zm78.3-67.2-23,23a51.7,51.7,0,0,0-54.6,0l-23-23a83.7,83.7,0,0,1,100.6,0ZM60.8,77.7l23,23a51.7,51.7,0,0,0,0,54.6l-23,23a83.7,83.7,0,0,1,0-100.6ZM77.7,195.2l23-23a51.7,51.7,0,0,0,54.6,0l23,23a83.7,83.7,0,0,1-100.6,0Z"/></svg>