<svg id="Flat" xmlns="http://www.w3.org/2000/svg" viewBox="0 0 256 256">
  <path d="M180.00244,232a12.0006,12.0006,0,0,1-12,12h-80a12,12,0,1,1,0-24h80A12.0006,12.0006,0,0,1,180.00244,232Zm40-128a92.48672,92.48672,0,0,1-36.97168,73.73438,7.81144,7.81144,0,0,0-3.02832,6.26757,20.02187,20.02187,0,0,1-20,19.99805h-64a20.02229,20.02229,0,0,1-20-20v-.22656a7.78529,7.78529,0,0,0-3.24512-6.20215,91.34714,91.34714,0,0,1-36.7539-73.05371C35.729,54.68945,76.00732,13.19727,125.7915,12.02539A92.00178,92.00178,0,0,1,220.00244,104Zm-24,0A68,68,0,0,0,126.356,36.01953c-36.79.86524-66.55567,31.53418-66.35254,68.36524a67.5326,67.5326,0,0,0,27.17773,54.00488l.001.001A32.14673,32.14673,0,0,1,99.76807,180h56.48632a31.84262,31.84262,0,0,1,12.40918-21.49023A67.47611,67.47611,0,0,0,196.00244,104ZM138.65771,57.19043a11.99962,11.99962,0,1,0-5.31054,23.4043A24.07582,24.07582,0,0,1,151.40771,98.6543a11.99962,11.99962,0,0,0,23.4043-5.31055A48.19142,48.19142,0,0,0,138.65771,57.19043Z"/>
</svg>
