<svg id="Flat" xmlns="http://www.w3.org/2000/svg" viewBox="0 0 256 256">
  <path d="M180,232a12.00028,12.00028,0,0,1-12,12H88a12,12,0,0,1,0-24h80A12.00028,12.00028,0,0,1,180,232Zm40-128a92.48672,92.48672,0,0,1-36.97168,73.73438A7.80719,7.80719,0,0,0,180.00049,184a20.02418,20.02418,0,0,1-20,20h-64.001a20.02365,20.02365,0,0,1-20-19.999v-.22754a7.78064,7.78064,0,0,0-3.24463-6.20215,91.34672,91.34672,0,0,1-36.75342-73.05371c-.27539-49.82813,40.00293-91.32031,89.78711-92.49219A92.001,92.001,0,0,1,220,104Zm-24,0a67.99926,67.99926,0,0,0-69.647-67.98047c-36.79.86524-66.55518,31.53418-66.35157,68.36524a67.53079,67.53079,0,0,0,27.17725,54.00488h.00049A32.1478,32.1478,0,0,1,99.76562,180H116V148.9707L87.51465,120.48535a12.0001,12.0001,0,0,1,16.9707-16.9707L128,127.0293l23.51465-23.51465a12.0001,12.0001,0,0,1,16.9707,16.9707L140,148.9707V180h16.25146a31.8401,31.8401,0,0,1,12.40967-21.49023A67.47611,67.47611,0,0,0,196,104Z"/>
</svg>
