<svg xmlns="http://www.w3.org/2000/svg" viewBox="0 0 256 256"><path d="M56.9,31.9A12,12,0,0,0,39.1,48.1L75.9,88.5,39.2,127.8a12.1,12.1,0,0,0-2.9,10.9,11.9,11.9,0,0,0,7.5,8.5l54.4,20.4-14,70a12.1,12.1,0,0,0,6.3,13.1A13.4,13.4,0,0,0,96,252a12.2,12.2,0,0,0,8.8-3.8l58.9-63.1,35.4,39a12.1,12.1,0,0,0,17,.8,12.1,12.1,0,0,0,.8-17Zm59.2,169,7.7-38.6a12.2,12.2,0,0,0-7.6-13.6L69,131l23.1-24.7,55.4,61ZM111.4,68.1a12,12,0,0,1-.6-17L151.2,7.8a12.2,12.2,0,0,1,14.3-2.5,12.1,12.1,0,0,1,6.3,13l-14,70,54.4,20.4a11.9,11.9,0,0,1,7.5,8.5,12.3,12.3,0,0,1-2.9,11l-16.9,18a11.8,11.8,0,0,1-8.7,3.8,12,12,0,0,1-8.8-20.2l4.6-4.9-47.2-17.7a12.1,12.1,0,0,1-7.6-13.6L139.9,55,128.4,67.5A12.1,12.1,0,0,1,111.4,68.1Z"/></svg>