<svg id="Flat" xmlns="http://www.w3.org/2000/svg" viewBox="0 0 256 256">
  <path d="M56.87939,31.93164A12.00021,12.00021,0,1,0,39.12061,48.07617L75.88293,88.51465,39.22754,127.78857a11.99964,11.99964,0,0,0,4.55908,19.42383l54.44531,20.417-13.999,69.99366a11.99984,11.99984,0,0,0,20.53955,10.5415l58.88806-63.09448,35.46009,39.0061a12.00021,12.00021,0,1,0,17.75878-16.14453Zm59.17237,168.97363,7.71533-38.57519a11.99973,11.99973,0,0,0-7.55371-13.58936L69.01953,131.043l23.062-24.70972,55.38037,60.91834ZM111.39453,68.05322a12.00022,12.00022,0,0,1-.58447-16.96045l40.41748-43.3042a12,12,0,0,1,20.53955,10.54151l-13.999,69.99365,54.44531,20.417a11.99964,11.99964,0,0,1,4.55908,19.42383l-16.83838,18.041a12,12,0,1,1-17.54492-16.376l4.59131-4.91943L139.78662,107.2124a11.99972,11.99972,0,0,1-7.55371-13.58935l7.71533-38.5752L128.355,67.46875A11.99887,11.99887,0,0,1,111.39453,68.05322Z"/>
</svg>
