<svg id="Flat" xmlns="http://www.w3.org/2000/svg" viewBox="0 0 256 256">
  <path d="M95.99561,251.99268a12.001,12.001,0,0,1-11.7627-14.354l13.999-69.99365L43.78662,147.228a11.99964,11.99964,0,0,1-4.55908-19.42383l112-120a12,12,0,0,1,20.53955,10.5415l-13.999,69.99366,54.44531,20.417a11.99964,11.99964,0,0,1,4.55908,19.42383l-112,120A11.9949,11.9949,0,0,1,95.99561,251.99268ZM69.01953,131.05859l47.19385,17.69776a11.99972,11.99972,0,0,1,7.55371,13.58935l-7.71533,38.5752,70.92871-75.99512L139.78662,107.228a11.99973,11.99973,0,0,1-7.55371-13.58936l7.71533-38.57519Z"/>
</svg>
