<svg xmlns="http://www.w3.org/2000/svg" viewBox="0 0 256 256"><path d="M180,232a12,12,0,0,1-12,12H88a12,12,0,0,1,0-24h80A12,12,0,0,1,180,232Zm40-128a92.3,92.3,0,0,1-37,73.7,8,8,0,0,0-3,6.3,20.1,20.1,0,0,1-20,20H96a20.1,20.1,0,0,1-20-20v-.2a7.8,7.8,0,0,0-3.2-6.2A91.6,91.6,0,0,1,36,104.5C35.7,54.7,76,13.2,125.8,12A92,92,0,0,1,220,104Zm-24,0a68,68,0,0,0-69.6-68c-36.8.9-66.6,31.6-66.4,68.4a67.4,67.4,0,0,0,27.2,54h0A32.3,32.3,0,0,1,99.8,180h56.5a31.4,31.4,0,0,1,12.4-21.5A67.6,67.6,0,0,0,196,104ZM138.7,57.2a12,12,0,0,0-5.4,23.4,23.9,23.9,0,0,1,18.1,18.1,12.1,12.1,0,0,0,11.7,9.3,12.4,12.4,0,0,0,2.7-.3,12,12,0,0,0,9-14.4A48.2,48.2,0,0,0,138.7,57.2Z"/></svg>