<svg xmlns="http://www.w3.org/2000/svg" viewBox="0 0 256 256"><path d="M241.5,30.5a36.2,36.2,0,0,0-51,0h0a36.2,36.2,0,0,0-1.2,49.7l-23.8,44.2a37.2,37.2,0,0,0-21,3.1l-16-16a36,36,0,0,0-58-41h0a36.2,36.2,0,0,0-1.2,49.7L45.5,164.4a36.5,36.5,0,0,0-31,10.1h0a36.1,36.1,0,1,0,52.2,1.3l23.8-44.2a50.9,50.9,0,0,0,5.5.4,36.5,36.5,0,0,0,15.5-3.5l16,16a36,36,0,1,0,59.2-8.7l23.8-44.2a50.9,50.9,0,0,0,5.5.4,36,36,0,0,0,25.5-61.5Zm-154,57a12,12,0,0,1,17,17h0a12,12,0,0,1-17-17Zm-39,121a12,12,0,0,1-17-17h0a12,12,0,0,1,17,17Zm120-40a12,12,0,0,1-17-17h0a12,12,0,0,1,17,17Zm56-104a12,12,0,0,1-17-17h0a12,12,0,0,1,17,17Z"/></svg>