<svg id="Flat" xmlns="http://www.w3.org/2000/svg" viewBox="0 0 256 256">
  <path d="M241.45557,30.544a36.04236,36.04236,0,0,0-50.91114,0H190.544a36.04491,36.04491,0,0,0-1.19983,49.64941L165.51538,124.4458a36.16015,36.16015,0,0,0-21.02588,3.07275l-16.008-16.00781A35.99677,35.99677,0,0,0,70.54443,70.544H70.544a36.04479,36.04479,0,0,0-1.19971,49.64941L45.51538,164.4458A35.9677,35.9677,0,0,0,14.54443,174.544H14.544a36.00029,36.00029,0,1,0,52.11193,1.26269L90.48462,131.5542a36.013,36.013,0,0,0,21.026-3.07275l16.00793,16.00781a35.99753,35.99753,0,1,0,59.13733-8.68262L210.48462,91.5542A36.25377,36.25377,0,0,0,216,91.98242,35.98219,35.98219,0,0,0,241.45557,30.544ZM87.51416,87.51465A12.00036,12.00036,0,0,1,104.488,104.48291l-.00269.00244-.0022.00244a12.00018,12.00018,0,0,1-16.9685-16.97314ZM48.48584,208.48535a12.00027,12.00027,0,0,1-16.97119-16.9707h-.00049a12.00044,12.00044,0,0,1,16.97168,16.9707Zm120-40a12.00027,12.00027,0,0,1-16.97119-16.9707l.0022-.00244a12.00036,12.00036,0,0,1,16.969,16.97314Zm56-104a12.00027,12.00027,0,0,1-16.97119-16.9707h-.00049a12.00044,12.00044,0,0,1,16.97168,16.9707Z"/>
</svg>
