<svg id="Flat" xmlns="http://www.w3.org/2000/svg" viewBox="0 0 256 256">
  <path d="M113.85693,79.917a11.99975,11.99975,0,0,1,0-16.9707l19.79981-19.79883a55.99954,55.99954,0,1,1,79.19531,79.19531l-19.79883,19.79981a12.0001,12.0001,0,0,1-16.9707-16.9707l19.79883-19.79981a31.99935,31.99935,0,1,0-45.25391-45.25391L130.82764,79.917A12.00152,12.00152,0,0,1,113.85693,79.917Zm11.31446,96.166-19.79981,19.79883a31.99934,31.99934,0,1,1-45.2539-45.25391L79.9165,130.82812a12.0001,12.0001,0,1,0-16.9707-16.9707L43.147,133.65723a55.99954,55.99954,0,1,0,79.19532,79.19531l19.7998-19.79883a12.0001,12.0001,0,1,0-16.9707-16.9707ZM94.05811,83.43164a12.0006,12.0006,0,0,0,12-12V48.80371a12,12,0,1,0-24,0V71.43164A12.00059,12.00059,0,0,0,94.05811,83.43164ZM48.80322,106.05859H71.43115a12,12,0,0,0,0-24H48.80322a12,12,0,1,0,0,24ZM207.1958,149.94141H184.56787a12,12,0,0,0,0,24H207.1958a12,12,0,0,0,0-24Zm-45.25488,22.627a12.00059,12.00059,0,0,0-12,12v22.62793a12,12,0,0,0,24,0V184.56836A12.0006,12.0006,0,0,0,161.94092,172.56836Z"/>
</svg>
