<svg id="Flat" xmlns="http://www.w3.org/2000/svg" viewBox="0 0 256 256">
  <path d="M85.56787,153.44629l67.88281-67.88184a12.0001,12.0001,0,1,1,16.97071,16.97071L102.53857,170.417a12.0001,12.0001,0,1,1-16.9707-16.9707ZM136.478,170.4248,108.19385,198.709a36,36,0,0,1-50.91211-50.91113l28.28418-28.28418A12.0001,12.0001,0,0,0,68.59521,102.543L40.311,130.82715a60.00016,60.00016,0,0,0,84.85351,84.85254l28.28418-28.28418A12.0001,12.0001,0,0,0,136.478,170.4248ZM215.6792,40.3125a60.06784,60.06784,0,0,0-84.85352,0L102.5415,68.59668a12.0001,12.0001,0,0,0,16.97071,16.9707L147.79639,57.2832a36,36,0,0,1,50.91211,50.91114l-28.28418,28.28418a12.0001,12.0001,0,0,0,16.9707,16.9707L215.6792,125.165a60.00052,60.00052,0,0,0,0-84.85254Z"/>
</svg>
