<svg id="Flat" xmlns="http://www.w3.org/2000/svg" viewBox="0 0 256 256">
  <path d="M208,28H48A20.02244,20.02244,0,0,0,28,48V208a20.0226,20.0226,0,0,0,20,20H208a20.0226,20.0226,0,0,0,20-20V48A20.02244,20.02244,0,0,0,208,28Zm-4,176H52V52H204Zm-96-27.999v-64a11.99182,11.99182,0,0,1,21.42676-7.40992A39.9747,39.9747,0,0,1,188,140.001v36a12,12,0,1,1-24,0v-36a16,16,0,0,0-32,0v36a12,12,0,1,1-24,0Zm-8-64v64a12,12,0,1,1-24,0v-64a12,12,0,0,1,24,0Zm-28-32a16,16,0,1,1,16,16A16,16,0,0,1,72,80.001Z"/>
</svg>
