<svg xmlns="http://www.w3.org/2000/svg" viewBox="0 0 256 256"><path d="M85.6,153.4l67.9-67.8a12,12,0,0,1,16.9,16.9l-67.9,67.9a12,12,0,0,1-16.9,0A12,12,0,0,1,85.6,153.4Zm50.9,17-28.3,28.3a36,36,0,0,1-50.9-50.9l28.3-28.3a12,12,0,0,0,0-17,12.2,12.2,0,0,0-17,0L40.3,130.8a60,60,0,0,0,84.9,84.9l28.2-28.3a12,12,0,0,0,0-17A11.9,11.9,0,0,0,136.5,170.4ZM215.7,40.3a60.1,60.1,0,0,0-84.9,0L102.5,68.6a12.2,12.2,0,0,0,0,17,12,12,0,0,0,17,0l28.3-28.3a36,36,0,1,1,50.9,50.9l-28.3,28.3a12.1,12.1,0,0,0,8.5,20.5,11.7,11.7,0,0,0,8.5-3.6l28.3-28.2a60,60,0,0,0,0-84.9Z"/></svg>