<svg id="Flat" xmlns="http://www.w3.org/2000/svg" viewBox="0 0 256 256">
  <path d="M83.99951,68V48a12,12,0,1,1,24,0V68a12,12,0,0,1-24,0Zm76,108a12.0006,12.0006,0,0,0-12,12v20a12,12,0,0,0,24,0V188A12.0006,12.0006,0,0,0,159.99951,176Zm-112-68h20a12,12,0,0,0,0-24h-20a12,12,0,1,0,0,24Zm160,40h-20a12,12,0,0,0,0,24h20a12,12,0,0,0,0-24Zm-92.88672,32.48535-7.31347,7.31348a28.00012,28.00012,0,0,1-39.59961-39.59668l7.31445-7.31445A11.99941,11.99941,0,1,0,58.54541,123.917L51.23,131.23047a52.00033,52.00033,0,0,0,73.54,73.53906l7.31348-7.31348a12.0001,12.0001,0,0,0-16.97071-16.9707ZM187.79932,68.20117a28.03319,28.03319,0,0,1,.001,39.59668l-7.31445,7.31445A11.99941,11.99941,0,1,0,197.45459,132.083l7.31543-7.31348a52.00031,52.00031,0,1,0-73.54-73.53906L123.9165,58.544a12.0001,12.0001,0,0,0,16.97071,16.9707l7.31347-7.31348A28.03289,28.03289,0,0,1,187.79932,68.20117Z"/>
</svg>
