<svg id="Flat" xmlns="http://www.w3.org/2000/svg" viewBox="0 0 256 256">
  <path d="M153.4502,170.4248a11.99976,11.99976,0,0,1,0,16.97071L125.166,215.67969A60.00015,60.00015,0,0,1,40.3125,130.82715L68.59668,102.543a12.0001,12.0001,0,0,1,16.9707,16.9707L57.2832,147.79785A36,36,0,1,0,108.19531,198.709l28.28418-28.28418A12.00154,12.00154,0,0,1,153.4502,170.4248ZM215.68066,40.3125a60.06783,60.06783,0,0,0-84.85351,0L102.543,68.59668a12.0001,12.0001,0,0,0,16.9707,16.9707L147.79785,57.2832A36,36,0,0,1,198.71,108.19434l-28.28418,28.28418a12.0001,12.0001,0,0,0,16.9707,16.9707L215.68066,125.165a60.0005,60.0005,0,0,0,0-84.85254Z"/>
</svg>
