<svg id="Flat" xmlns="http://www.w3.org/2000/svg" viewBox="0 0 256 256">
  <path d="M212.853,122.34277l-28.28418,28.28516a56.06576,56.06576,0,0,1-79.19629,0,12.0001,12.0001,0,0,1,16.9707-16.9707,32.03673,32.03673,0,0,0,45.25488,0l28.28418-28.28516a31.99969,31.99969,0,1,0-45.25488-45.25391L138.979,71.76562a12.0001,12.0001,0,1,1-16.9707-16.9707l11.64844-11.64746A55.99989,55.99989,0,1,1,212.853,122.34277Zm-95.834,61.89356-11.64648,11.64551a31.99969,31.99969,0,0,1-45.25488-45.25391l28.28418-28.28516a32.03673,32.03673,0,0,1,45.25488,0,12.0001,12.0001,0,0,0,16.9707-16.9707,56.06459,56.06459,0,0,0-79.19629,0L43.147,133.65723a55.9999,55.9999,0,0,0,79.19629,79.19531L133.98975,201.207a12.0001,12.0001,0,1,0-16.97071-16.9707Z"/>
</svg>
