<svg id="Flat" xmlns="http://www.w3.org/2000/svg" viewBox="0 0 256 256">
  <path d="M208,28H48A20.02244,20.02244,0,0,0,28,48V208a20.0226,20.0226,0,0,0,20,20H208a20.0226,20.0226,0,0,0,20-20V48A20.02244,20.02244,0,0,0,208,28Zm-4,176H52V52H204Zm-92-27.999v-56a11.99182,11.99182,0,0,1,21.42676-7.40992A39.9747,39.9747,0,0,1,192,148.001v28a12,12,0,1,1-24,0v-28a16,16,0,0,0-32,0v28a12,12,0,1,1-24,0Zm-16-56v56a12,12,0,1,1-24,0v-56a12,12,0,0,1,24,0ZM68,80A16,16,0,1,1,84,96,16.01817,16.01817,0,0,1,68,80Z"/>
</svg>
