<svg id="Flat" xmlns="http://www.w3.org/2000/svg" viewBox="0 0 256 256">
  <path d="M212.853,122.34277l-30.28418,30.28516a56.06576,56.06576,0,0,1-79.19629,0,12.0001,12.0001,0,0,1,16.9707-16.9707,32.03673,32.03673,0,0,0,45.25488,0l30.28418-30.28516a31.99969,31.99969,0,1,0-45.25488-45.25391L140.978,69.76562a11.99941,11.99941,0,1,1-16.96875-16.9707l9.64746-9.64746A55.99989,55.99989,0,1,1,212.853,122.34277Zm-97.834,63.89356-9.64648,9.64551a31.99969,31.99969,0,0,1-45.25488-45.25391l30.28418-30.28516a32.03673,32.03673,0,0,1,45.25488,0,12.0001,12.0001,0,0,0,16.9707-16.9707,56.06459,56.06459,0,0,0-79.19629,0L43.147,133.65723a55.99956,55.99956,0,0,0,79.19532,79.19531l9.64648-9.64551a11.99975,11.99975,0,1,0-16.96973-16.9707Z"/>
</svg>
