<svg xmlns="http://www.w3.org/2000/svg" viewBox="0 0 256 256"><path d="M88,112a16,16,0,1,1,16,16A16,16,0,0,1,88,112Zm80,0a16,16,0,1,0-16,16A16,16,0,0,0,168,112Zm-16.7,29L128,150.9,104.7,141a12,12,0,1,0-9.4,22l28,12a11.5,11.5,0,0,0,9.4,0l28-12a12,12,0,0,0-9.4-22Zm9.9,61a60.1,60.1,0,0,0-66.4,0,12,12,0,0,0,6.7,22,12.2,12.2,0,0,0,6.6-2,36,36,0,0,1,39.8,0,12,12,0,0,0,13.3-20Zm69.6,5c-.3-.5-22.8-50.4-22.8-103a80,80,0,0,0-160,0c0,52.5-22.5,102.4-22.8,103a12.1,12.1,0,0,0,5.9,15.9,11.6,11.6,0,0,0,5,1.1,12.2,12.2,0,0,0,11-7c1-2.2,24.9-55,24.9-113a56,56,0,0,1,112,0c0,58,23.9,110.8,24.9,113a12,12,0,0,0,21.9-10Z"/></svg>