<svg xmlns="http://www.w3.org/2000/svg" viewBox="0 0 256 256"><path d="M228,128a12,12,0,0,1-12,12H136a12,12,0,0,1,0-24h80A12,12,0,0,1,228,128ZM136,76h80a12,12,0,0,0,0-24H136a12,12,0,0,0,0,24Zm80,104H136a12,12,0,0,0,0,24h80a12,12,0,0,0,0-24ZM83.9,39.2,57.3,63.7l-9.2-8.5A12,12,0,1,0,31.9,72.8l17.3,16a12,12,0,0,0,16.3,0l34.6-32A12,12,0,0,0,83.9,39.2Zm0,64L57.3,127.7l-9.2-8.5a12,12,0,0,0-16.2,17.6l17.3,16a12,12,0,0,0,16.3,0l34.6-32a12,12,0,1,0-16.2-17.6Zm0,64L57.3,191.7l-9.2-8.5a12,12,0,0,0-16.2,17.6l17.3,16a12,12,0,0,0,16.3,0l34.6-32a12,12,0,1,0-16.2-17.6Z"/></svg>