<svg xmlns="http://www.w3.org/2000/svg" viewBox="0 0 256 256"><path d="M228,128a12,12,0,0,1-12,12H108a12,12,0,0,1,0-24H216A12,12,0,0,1,228,128ZM108,76H216a12,12,0,0,0,0-24H108a12,12,0,0,0,0,24ZM216,180H108a12,12,0,0,0,0,24H216a12,12,0,0,0,0-24ZM44,71.3V108a12,12,0,0,0,24,0V52a12,12,0,0,0-5.7-10.2,11.9,11.9,0,0,0-11.7-.5l-16,8a12,12,0,0,0,9.4,22ZM75.6,172.5A25.8,25.8,0,0,0,80,158a26,26,0,0,0-50-10.1,12,12,0,0,0,22.2,9.3A1.9,1.9,0,0,1,54,156a2,2,0,0,1,2,2,3,3,0,0,1-.2,1L30.4,192.8A12,12,0,0,0,40,212H68a12,12,0,0,0,0-24H64l11.2-15Z"/></svg>