<svg id="Flat" xmlns="http://www.w3.org/2000/svg" viewBox="0 0 256 256">
  <path d="M91.999,83.99316a12.00028,12.00028,0,0,1,12-12l112-.001a12,12,0,1,1,0,24l-112,.001A12,12,0,0,1,91.999,83.99316Zm124,75.999-112,.001a12,12,0,1,0,0,24l112-.001a12,12,0,1,0,0-24ZM44,75.31543v36.67871a12,12,0,1,0,24,0V56A12,12,0,0,0,50.63379,45.2666l-16,8A12.00091,12.00091,0,0,0,44,75.31543Zm31.55273,97.22949A26.00233,26.00233,0,1,0,30.04785,147.876a12.00025,12.00025,0,0,0,22.10449,9.34961A2.00221,2.00221,0,0,1,56,158a1.958,1.958,0,0,1-.249.97168l-25.35352,33.832A11.99976,11.99976,0,0,0,40,212H68a12,12,0,0,0,0-24H63.98828l11.22363-14.97656C75.3291,172.86719,75.44287,172.707,75.55273,172.54492Z"/>
</svg>
