<svg id="Flat" xmlns="http://www.w3.org/2000/svg" viewBox="0 0 256 256">
  <path d="M115.99414,173.65674V180a12,12,0,1,0,24,0v-6.34326a32,32,0,1,0-24,0Zm12-37.65674a8,8,0,1,1-8,8A8.00917,8.00917,0,0,1,127.99414,136Zm80-60h-104V52a24.00175,24.00175,0,0,1,47.853-2.68164,11.99989,11.99989,0,1,0,23.85449-2.63672A48.00162,48.00162,0,0,0,79.99414,52V76h-32a20.02292,20.02292,0,0,0-20,20V208a20.02292,20.02292,0,0,0,20,20h160a20.02292,20.02292,0,0,0,20-20V96A20.02292,20.02292,0,0,0,207.99414,76Zm-4,128h-152V100h152Z"/>
</svg>
