<svg xmlns="http://www.w3.org/2000/svg" viewBox="0 0 256 256"><path d="M256,152a12,12,0,0,1-12,12H232v12a12,12,0,0,1-24,0V164H196a12,12,0,0,1,0-24h12V128a12,12,0,0,1,24,0v12h12A12,12,0,0,1,256,152ZM60,68h8v8a12,12,0,0,0,24,0V68h8a12,12,0,0,0,0-24H92V36a12,12,0,0,0-24,0v8H60a12,12,0,0,0,0,24ZM180,192h-4v-4a12,12,0,0,0-24,0v4h-4a12,12,0,0,0,0,24h4v4a12,12,0,0,0,24,0v-4h4a12,12,0,0,0,0-24Zm4.5-71.5L78.1,226.8a19.8,19.8,0,0,1-28.2,0L29.2,206.1a19.8,19.8,0,0,1,0-28.2L177.9,29.2a19.9,19.9,0,0,1,28.2,0l20.7,20.7a19.8,19.8,0,0,1,0,28.2l-42.3,42.4ZM161,80l15,15,31-31L192,49Zm-2,32L144,97,49,192l15,15Z"/></svg>