<svg id="Flat" xmlns="http://www.w3.org/2000/svg" viewBox="0 0 256 256">
  <path d="M256,152a12.00028,12.00028,0,0,1-12,12H232v12a12,12,0,0,1-24,0V164H196a12,12,0,0,1,0-24h12V128a12,12,0,0,1,24,0v12h12A12.00028,12.00028,0,0,1,256,152ZM60,68h8v8a12,12,0,0,0,24,0V68h8a12,12,0,0,0,0-24H92V36a12,12,0,0,0-24,0v8H60a12,12,0,0,0,0,24ZM180,192h-4v-4a12,12,0,0,0-24,0v4h-4a12,12,0,0,0,0,24h4v4a12,12,0,0,0,24,0v-4h4a12,12,0,0,0,0-24Zm4.48438-71.51367L78.14258,226.82861a20.02755,20.02755,0,0,1-28.28418.00147L29.17188,206.1416a19.9986,19.9986,0,0,1,.001-28.28515L177.85742,29.17187a20.02592,20.02592,0,0,1,28.28418-.00146l20.68653,20.6875a19.99862,19.99862,0,0,1,0,28.28418l-42.3418,42.34228-.001.001ZM160.9707,80,176,95.0293,207.0293,64,192,48.97021Zm-1.9414,32L144,96.9707,48.9707,192,64,207.02979Z"/>
</svg>
