<svg id="Flat" xmlns="http://www.w3.org/2000/svg" viewBox="0 0 256 256">
  <path d="M200,36H160a20.02229,20.02229,0,0,0-20,20v88a12,12,0,0,1-24,0V56A20.02229,20.02229,0,0,0,96,36H56A20.02229,20.02229,0,0,0,36,56v88a91.99885,91.99885,0,0,0,91.99316,92q.35157,0,.70215-.00195C179.041,235.624,220,193.9043,220,142.99609V56A20.02229,20.02229,0,0,0,200,36Zm-4,24V84H164V60ZM92,60V84H60V60Zm36.51758,151.99805C128.34375,212,128.17285,212,127.999,212A67.99971,67.99971,0,0,1,60,144V108H92v36a36,36,0,0,0,72,0V108h32v34.99609C196,180.76855,165.72754,211.72266,128.51758,211.99805Z"/>
</svg>
