<svg id="Flat" xmlns="http://www.w3.org/2000/svg" viewBox="0 0 256.00098 256.00098">
  <path d="M163.99707,120a12.00028,12.00028,0,0,1-12,12h-64a12,12,0,0,1,0-24h64A12.00028,12.00028,0,0,1,163.99707,120ZM232.4834,232.48584a12.00033,12.00033,0,0,1-16.9707,0L181.70386,198.6767a101.41475,101.41475,0,0,1-11.7146,7.91314,99.40047,99.40047,0,0,1-49.8291,13.43848,100.54109,100.54109,0,0,1-26.041-3.44971A99.98543,99.98543,0,0,1,70.00488,33.41016,100.01788,100.01788,0,0,1,198.6958,181.72723l33.7876,33.78791A11.99975,11.99975,0,0,1,232.4834,232.48584ZM193.39355,139.6665a75.985,75.985,0,1,0-35.40429,46.13916A75.48794,75.48794,0,0,0,193.39355,139.6665Z"/>
</svg>
