<svg xmlns="http://www.w3.org/2000/svg" viewBox="0 0 256 256"><path d="M209.8,47.4A91.3,91.3,0,0,0,144.6,20h-.3A91.5,91.5,0,0,0,79.2,47L13.1,113.9a20,20,0,0,0,0,28.2l28.7,28.7a20,20,0,0,0,14.3,5.8,19.8,19.8,0,0,0,14.1-6l65.6-67.1a12.1,12.1,0,0,1,16.8-.2,12.3,12.3,0,0,1,3.5,8.4,12.9,12.9,0,0,1-3.7,9.1L85.5,185.7a19.9,19.9,0,0,0-.2,28.5l28.6,28.7a19.9,19.9,0,0,0,14.2,5.8,20.1,20.1,0,0,0,14-5.7l66.4-65.2h.1C244.6,141.8,245.1,83.3,209.8,47.4ZM55.9,150.9l-23-23L54,106.6l22.9,22.9Zm72.2,72.2-23-23,21.5-20.9,22.9,22.9Zm63.6-62.3-25.1,24.5-22.7-22.8L169.2,138v-.2a36.6,36.6,0,0,0,10.8-26.3,35.3,35.3,0,0,0-10.9-25.4,36.2,36.2,0,0,0-50.4.4h-.1L93.6,112.3,70.9,89.5,96.2,63.9A67.6,67.6,0,0,1,144.3,44h.2a67.6,67.6,0,0,1,48.2,20.3C218.8,90.8,218.3,134,191.7,160.8Z"/></svg>