<svg id="Flat" xmlns="http://www.w3.org/2000/svg" viewBox="0 0 256.00098 256.00098">
  <path d="M163.99707,119.999a12.00028,12.00028,0,0,1-12,12h-20v20a12,12,0,0,1-24,0v-20h-20a12,12,0,1,1,0-24h20v-20a12,12,0,0,1,24,0v20h20A12.00028,12.00028,0,0,1,163.99707,119.999ZM232.4834,232.48486a12.00033,12.00033,0,0,1-16.9707,0l-33.80884-33.80914a101.4161,101.4161,0,0,1-11.7146,7.91315,99.40046,99.40046,0,0,1-49.8291,13.43847,100.54151,100.54151,0,0,1-26.041-3.4497A99.98544,99.98544,0,0,1,70.00488,33.40918,100.01788,100.01788,0,0,1,198.6958,181.72626l33.7876,33.7879A11.99975,11.99975,0,0,1,232.4834,232.48486Zm-39.08985-92.81933a75.985,75.985,0,1,0-35.40429,46.13916A75.48794,75.48794,0,0,0,193.39355,139.66553Z"/>
</svg>
