<svg id="Flat" xmlns="http://www.w3.org/2000/svg" viewBox="0 0 256 256">
  <path d="M209.80371,47.44043A91.37826,91.37826,0,0,0,144.60254,20.001c-.11816-.001-.2334-.001-.35156-.001A91.40777,91.40777,0,0,0,79.1543,46.99805L13.05176,113.90918a20.04772,20.04772,0,0,0,.08594,28.19922L41.791,170.76172a20.00008,20.00008,0,0,0,28.44921-.165l65.5752-67.12207a12.05381,12.05381,0,0,1,16.76074-.126,11.6133,11.6133,0,0,1,3.5,8.35254,12.85847,12.85847,0,0,1-3.65918,9.11231l-66.93945,64.917a20.00115,20.00115,0,0,0-.21875,28.499l28.6543,28.6543a20.06288,20.06288,0,0,0,28.1455.13672l66.46192-65.17481c.02734-.02734.05566-.05468.083-.082C244.60059,141.7666,245.13867,83.30371,209.80371,47.44043ZM55.90039,150.93066,32.919,127.94824,54.0083,106.60107l22.86328,22.86335ZM128.082,223.1123l-22.98047-22.98046,21.54395-20.89331L149.5083,202.101Zm63.58985-62.35839L166.645,185.29626,143.877,162.52808l25.32618-24.56128c.04394-.043.08691-.08594.13085-.12891a36.99918,36.99918,0,0,0,10.74122-26.36426,35.43576,35.43576,0,0,0-10.85352-25.415,36.18046,36.18046,0,0,0-50.418.48536c-.0332.0332-.06543.0664-.09863.0996L93.64453,112.29578,70.876,89.52722,96.17676,63.917A67.52281,67.52281,0,0,1,144.25391,44c.08593,0,.17382,0,.25976.001A67.544,67.544,0,0,1,192.708,64.28418C218.81055,90.77832,218.3418,134.042,191.67188,160.75391Z"/>
</svg>
