<svg id="Flat" xmlns="http://www.w3.org/2000/svg" viewBox="0 0 256 256">
  <path d="M231.38452,46.5415a12.0021,12.0021,0,0,0-10.29492-2.1831L161.396,59.28174,101.366,29.2666c-.02612-.01269-.05371-.02051-.07983-.0332a11.96234,11.96234,0,0,0-1.29565-.54688c-.07178-.02539-.14478-.04394-.2168-.06738q-.561-.18677-1.14087-.31738c-.11646-.02637-.23267-.04981-.34985-.07227q-.55482-.10839-1.12183-.1626c-.0918-.00927-.18286-.02246-.27466-.02929a11.929,11.929,0,0,0-2.78906.12207c-.14649.02344-.29077.05713-.43652.08594-.19043.03808-.38086.06494-.57129.11279l-64,16A11.99928,11.99928,0,0,0,19.99975,56V200a11.99937,11.99937,0,0,0,14.91016,11.6416L94.604,196.718l60.02954,30.01489c.05225.02612.10694.043.15943.06836q.49328.238,1.00659.43164c.06054.02271.11963.04907.18017.07056a11.96483,11.96483,0,0,0,1.22461.36328c.06348.01513.127.02612.19043.04028q.54053.12085,1.09424.19043c.07666.00977.15259.021.229.02905a10.94816,10.94816,0,0,0,2.83863-.03344c.17114-.02246.33911-.06495.50928-.09473.28149-.04932.56274-.08643.844-.15674l64-16A11.99928,11.99928,0,0,0,235.99975,200V56A11.99878,11.99878,0,0,0,231.38452,46.5415ZM43.99975,65.36938l40-10.00024V174.63086l-40,10Zm104,131.21412-40-20V59.4165l40,20Zm64-5.95264-40,10V81.36914l40-9.99976Z"/>
</svg>
