<svg id="Flat" xmlns="http://www.w3.org/2000/svg" viewBox="0 0 256 256">
  <path d="M204.36719,204.36768A107.99986,107.99986,0,1,0,51.63281,51.63232,108.02016,108.02016,0,0,0,73.69287,221.35937c.26343.16334.53076.31977.80713.46271a108.36586,108.36586,0,0,0,107.03711-.02136c.22925-.11951.45019-.25061.67017-.38416A107.781,107.781,0,0,0,204.36719,204.36768ZM108,156V140h40v16ZM44,128a84,84,0,1,1,144,58.76337V176a20.0333,20.0333,0,0,0-16-19.59686V136a20.01771,20.01771,0,0,0-14.85327-19.304L147.2666,81.22461a19.99993,19.99993,0,0,0-38.5332,0L98.85327,116.696A20.01771,20.01771,0,0,0,84,136v20.40314A20.0333,20.0333,0,0,0,68,176v10.76337A83.42263,83.42263,0,0,1,44,128Zm48,75.8847V180h72v23.885A84.4042,84.4042,0,0,1,92,203.8847Z"/>
</svg>
