<svg xmlns="http://www.w3.org/2000/svg" viewBox="0 0 256 256"><path d="M137.2,120a35.9,35.9,0,0,1,53.6,0,12,12,0,0,1-.9,16.9,12,12,0,0,1-17-.9,11.9,11.9,0,0,0-17.8,0,12,12,0,0,1-17.9-16Zm-36.3,16a12,12,0,0,0,17.9-16,35.9,35.9,0,0,0-53.6,0,12,12,0,0,0,17.9,16,11.9,11.9,0,0,1,17.8,0Zm47,30a36,36,0,0,1-39.8,0,12,12,0,0,0-13.3,20,60.1,60.1,0,0,0,66.4,0,12,12,0,0,0-13.3-20ZM228,48.3V104c0,36.6-9.9,71.2-27.9,97.3S155.6,244,128,244s-53.2-15.2-72.1-42.7S28,140.6,28,104V48.3a20.2,20.2,0,0,1,8.7-16.5,20,20,0,0,1,18.5-2.1C69,35,96.8,44,128,44s59-9,72.8-14.3a20,20,0,0,1,18.5,2.1A20.2,20.2,0,0,1,228,48.3Zm-24,5.8C187.4,60,159.3,68,128,68S68.6,60,52,54.1V104c0,31.8,8.4,61.5,23.7,83.7S108.6,220,128,220s38-11.5,52.3-32.3S204,135.8,204,104Z"/></svg>