<svg id="Flat" xmlns="http://www.w3.org/2000/svg" viewBox="0 0 256 256">
  <path d="M116,184a12,12,0,0,1-12,12H84v20a12,12,0,0,1-24,0V196H40a12,12,0,0,1,0-24H60V152a12,12,0,0,1,24,0v20h20A12,12,0,0,1,116,184ZM104,60H40a12,12,0,0,0,0,24h64a12,12,0,0,0,0-24Zm48,116.06641h64a12,12,0,0,0,0-24H152a12,12,0,0,0,0,24Zm64,15.86718H152a12,12,0,0,0,0,24h64a12,12,0,0,0,0-24Zm-64.48535-87.44824a12.00033,12.00033,0,0,0,16.9707,0L184,88.9707l15.51465,15.51465a12.0001,12.0001,0,0,0,16.9707-16.9707L200.9707,72l15.51465-15.51465a12.0001,12.0001,0,0,0-16.9707-16.9707L184,55.0293,168.48535,39.51465a12.0001,12.0001,0,0,0-16.9707,16.9707L167.0293,72,151.51465,87.51465A12.00062,12.00062,0,0,0,151.51465,104.48535Z"/>
</svg>
