<svg xmlns="http://www.w3.org/2000/svg" viewBox="0 0 256 256"><path d="M116,184a12,12,0,0,1-12,12H84v20a12,12,0,0,1-24,0V196H40a12,12,0,0,1,0-24H60V152a12,12,0,0,1,24,0v20h20A12,12,0,0,1,116,184ZM104,60H40a12,12,0,0,0,0,24h64a12,12,0,0,0,0-24Zm48,116.1h64a12,12,0,0,0,0-24H152a12,12,0,0,0,0,24Zm64,15.8H152a12,12,0,0,0,0,24h64a12,12,0,0,0,0-24Zm-64.5-87.4a12.1,12.1,0,0,0,17,0L184,89l15.5,15.5a12.1,12.1,0,0,0,17,0,12,12,0,0,0,0-17L201,72l15.5-15.5a12,12,0,0,0-17-17L184,55,168.5,39.5a12,12,0,0,0-17,17L167,72,151.5,87.5A12,12,0,0,0,151.5,104.5Z"/></svg>