<svg id="Flat" xmlns="http://www.w3.org/2000/svg" viewBox="0 0 256 256">
  <path d="M219.99414,96A92,92,0,1,0,68,165.69043V240a11.99955,11.99955,0,0,0,17.36719,10.73242l42.626-21.31592,42.64063,21.3169A11.9999,11.9999,0,0,0,188,240V165.68066A91.82235,91.82235,0,0,0,219.99414,96Zm-160,0a68,68,0,1,1,68,68A68.07728,68.07728,0,0,1,59.99414,96ZM164,220.585,133.3584,205.2666a11.99721,11.99721,0,0,0-10.7334.001L92,220.582V180.66309a91.96082,91.96082,0,0,0,72-.00489ZM128,148A52,52,0,1,0,76,96,52.059,52.059,0,0,0,128,148Zm0-80a28,28,0,1,1-28,28A28.03146,28.03146,0,0,1,128,68Z"/>
</svg>
