<svg id="Flat" xmlns="http://www.w3.org/2000/svg" viewBox="0 0 256 256">
  <path d="M70,56C33.60742,56,4,88.29885,4,128s29.60742,72,66,72,66-32.29883,66-72S106.39258,56,70,56Zm0,120c-23.15918,0-42-21.5332-42-48S46.84082,80,70,80s42,21.5332,42,48S93.15918,176,70,176ZM182,60c-23.36035,0-34,35.249-34,68s10.63965,68,34,68,34-35.249,34-68S205.36035,60,182,60Zm0,111.26367c-3.65674-4.06347-10-18.89746-10-43.26367s6.34326-39.20019,10-43.26367c3.65674,4.06348,10,18.89746,10,43.26367S185.65674,167.20022,182,171.26369ZM252,72V184a12,12,0,0,1-24,0V72a12,12,0,1,1,24,0Z"/>
</svg>
