<svg id="Flat" xmlns="http://www.w3.org/2000/svg" viewBox="0 0 256 256">
  <path d="M60.03516,128.00094a12,12,0,0,1-12,12h-24a12,12,0,0,1,0-24h4v-56h-4a12,12,0,0,1,0-24h16c.0664,0,.12988.00879.1958.00977q.40356.00658.8042.04053c.12011.01025.24023.01855.35937.03173.27246.03125.54248.07422.81152.124.09815.01806.19776.02978.29493.0498.33252.07032.66113.15576.98584.25342.15918.04785.31347.10547.46972.15918.18067.0625.36035.126.5376.19678.16016.06445.31738.1333.47363.2041.17432.07812.34619.16162.5166.24853.14307.07325.28565.146.4253.22413.19873.11181.3916.23193.58349.355.103.06591.209.127.30957.1958q.43946.30028.85352.63818c.03076.02539.05908.0542.08984.07959q.36475.30615.70655.64258c.07861.07764.15283.15967.229.23926.17041.17724.33691.35791.49707.54638.08887.1045.17383.21143.25928.31934q.20142.25414.39013.52148c.09034.12793.17969.25635.26514.38819.03809.05859.08057.11279.11768.17236L80.03516,89.35934l29.82421-47.71826c.03711-.05957.07959-.11377.11768-.17236.08594-.13184.17481-.26075.26563-.38868q.18822-.26659.38964-.5205c.08545-.10791.17041-.21485.25928-.31983.16016-.189.32715-.36963.49756-.54736.07617-.0791.1499-.16064.228-.23779q.34277-.33765.709-.64453c.03027-.0254.05762-.05274.08789-.07764.27539-.22656.56153-.439.85449-.63916.09913-.06787.20313-.12793.3042-.19287.19385-.124.38868-.24561.58936-.35791.13818-.07764.2793-.14991.4209-.22217q.2578-.13183.521-.251c.15577-.07031.312-.13867.47071-.20263.17871-.07129.35986-.13526.5415-.19776.15479-.05371.30811-.11084.46582-.1582.3252-.09766.65381-.18359.98682-.25342.09765-.02051.19775-.03271.29638-.05029.26856-.04981.53809-.09278.81055-.124.11914-.01318.23926-.02148.35986-.03173q.39991-.033.80225-.04053c.06641-.001.13086-.00977.19727-.00977h16a12,12,0,0,1,0,24h-4v56h4a12,12,0,0,1,0,24h-24a11.99357,11.99357,0,0,1-4-23.30273V89.84274L90.21094,118.36081a11.99952,11.99952,0,0,1-20.35157,0L52.03516,89.84274v26.85547A11.99457,11.99457,0,0,1,60.03516,128.00094Zm116-28h64a12,12,0,0,0,0-24h-64a12,12,0,0,0,0,24Zm64,16h-64a12,12,0,1,0,0,24h64a12,12,0,0,0,0-24Zm0,40h-168a12,12,0,0,0,0,24h168a12,12,0,1,0,0-24Zm0,40h-168a12,12,0,0,0,0,24h168a12,12,0,1,0,0-24Z"/>
</svg>
