<svg id="Flat" xmlns="http://www.w3.org/2000/svg" viewBox="0 0 256 256">
  <path d="M60.03516,136.00094a12,12,0,0,1-12,12h-24a12,12,0,0,1,0-24h4v-56h-4a12,12,0,0,1,0-24h16c.06543,0,.12793.00879.19336.00977q.40648.00658.80957.041c.11865.00977.2373.01758.35449.03125.2749.03125.54687.07471.81836.12452.09619.01806.19433.02929.28955.04931.33349.07032.6626.15625.98779.25391.15723.04736.31055.104.46484.15771.18213.063.36329.127.542.19825.15966.064.31591.13232.47168.20263.1748.0791.34765.16309.519.25.14209.07324.28418.14551.42334.22364.19922.11181.39355.23291.58643.35644.102.06494.20654.126.30664.19385q.43944.30028.854.63867c.03076.02539.05859.05371.08936.07959q.36474.30615.70751.64258c.07813.07764.15186.15918.228.23877.17041.17724.3374.35791.49756.54687.08887.1045.17383.21143.25928.31934q.20142.25414.39013.52148c.09034.12793.17969.25635.26514.38819.03809.05859.08057.11279.11768.17236L80.03516,97.35934l29.82421-47.71826c.03711-.05957.07959-.11377.11768-.17236.08545-.13184.17481-.26026.26514-.38819q.189-.26733.39062-.522c.085-.10742.16992-.21387.2583-.31836.16065-.18945.32813-.37109.499-.54883.07568-.07861.14892-.15966.22656-.23681q.34571-.33985.71484-.64942c.02783-.02343.05323-.04931.08155-.07226q.41454-.34057.856-.64014c.09815-.06689.20117-.127.30127-.19092.19483-.125.39112-.24707.59229-.35986.13769-.07715.27832-.14893.41943-.22119.17285-.08838.34668-.17285.52344-.25244.15478-.06983.30957-.1377.46777-.20069.18018-.07226.36279-.13672.54639-.20019.15381-.05323.30517-.10938.46191-.15674.32569-.09766.65479-.18359.98877-.25391.09473-.02.19287-.03125.28906-.04883.27051-.05029.54249-.09375.81739-.125.11816-.01318.23779-.02148.35742-.03125q.40063-.03441.80518-.041c.06591-.001.12988-.00977.1958-.00977h16a12,12,0,0,1,0,24h-4v56h4a12,12,0,0,1,0,24h-24a11.99357,11.99357,0,0,1-4-23.30273V97.84274L90.21094,126.36081a11.99952,11.99952,0,0,1-20.35157,0L52.03516,97.84274v26.85547A11.99457,11.99457,0,0,1,60.03516,136.00094Zm108-20h72a12,12,0,0,0,0-24h-72a12,12,0,0,0,0,24Zm72,8h-72a12,12,0,1,0,0,24h72a12,12,0,0,0,0-24Zm0,32h-168a12,12,0,0,0,0,24h168a12,12,0,1,0,0-24Zm0,32h-168a12,12,0,0,0,0,24h168a12,12,0,1,0,0-24Z"/>
</svg>
