<svg xmlns="http://www.w3.org/2000/svg" viewBox="0 0 256 256"><path d="M244,120a52,52,0,0,0-52-52H152c-.5,0-51-.8-99.1-41.1A20,20,0,0,0,20,42.2V197.8a19.7,19.7,0,0,0,11.5,18.1,20.3,20.3,0,0,0,8.5,2,19.7,19.7,0,0,0,12.9-4.8A180.1,180.1,0,0,1,132,174.6v28.5a19.7,19.7,0,0,0,11.1,17.8l18.6,9.4a20.2,20.2,0,0,0,17.3.3,19.9,19.9,0,0,0,11.1-13.4l11.5-46.1A52.1,52.1,0,0,0,244,120ZM44,189.5V50.5a200.9,200.9,0,0,0,88,39.4v60.2A200.9,200.9,0,0,0,44,189.5Zm124,17.1-12-6V172h20.6ZM192,148H156V92h36a28,28,0,0,1,0,56Z"/></svg>