<svg id="Flat" xmlns="http://www.w3.org/2000/svg" viewBox="0 0 256 256">
  <path d="M244,120a52.059,52.059,0,0,0-52-52H152.03711c-.50586-.00293-51.05176-.77832-99.17676-41.1416A19.99859,19.99859,0,0,0,19.999,42.168V197.832a19.805,19.805,0,0,0,11.53809,18.11719,20.108,20.108,0,0,0,8.50879,1.90625,19.8857,19.8857,0,0,0,12.81348-4.71387A180.07377,180.07377,0,0,1,132,174.60107v28.45459a19.88862,19.88862,0,0,0,11.05469,17.88868l18.6582,9.3291a20.00049,20.00049,0,0,0,28.34668-13.03809l11.53516-46.13769A52.07657,52.07657,0,0,0,244,120ZM43.999,189.4668V50.5332A201.47748,201.47748,0,0,0,132,89.89844v60.20361A201.47188,201.47188,0,0,0,43.999,189.4668Zm123.98633,17.11035L156,200.584V172h20.63037ZM192,148H156V92h36a28,28,0,0,1,0,56Z"/>
</svg>
