<svg id="Flat" xmlns="http://www.w3.org/2000/svg" viewBox="0 0 256 256">
  <path d="M128,20A108.03081,108.03081,0,0,0,32.51758,178.50735l-8.1001,28.35009a20.00035,20.00035,0,0,0,24.72461,24.7251l28.35107-8.09961A108.00773,108.00773,0,1,0,128,20Zm0,192a83.87208,83.87208,0,0,1-42.86328-11.74267,11.997,11.997,0,0,0-9.43067-1.22461l-26.23388,7.49511,7.49512-26.2334a12.00059,12.00059,0,0,0-1.22461-9.43017A84.01087,84.01087,0,1,1,128,212Zm56.48535-91.51465-32,32a12.00033,12.00033,0,0,1-16.9707,0L112,128.97072,88.48535,152.48537a12.0001,12.0001,0,1,1-16.9707-16.9707l32-32a11.99975,11.99975,0,0,1,16.9707,0L144,127.02932l23.51465-23.51465a12.0001,12.0001,0,0,1,16.9707,16.9707Z"/>
</svg>
