<svg id="Flat" xmlns="http://www.w3.org/2000/svg" viewBox="0 0 256 256">
  <path d="M216.87891,207.92773l-160-176A11.99986,11.99986,0,0,0,39.12109,48.07227L76,88.639V128a52.00861,52.00861,0,0,0,77.15918,45.5144l5.50244,6.05237a59.99491,59.99491,0,0,1-90.29443-44.88513,12.00037,12.00037,0,0,0-23.85547,2.63672A83.83543,83.83543,0,0,0,116,211.148V232a12,12,0,0,0,24,0V211.13684a83.68724,83.68724,0,0,0,35.0459-13.54712l24.07519,26.48255a11.99986,11.99986,0,0,0,17.75782-16.14454ZM128,156a28.03146,28.03146,0,0,1-28-28V115.03906l36.13672,39.75025A28.01842,28.01842,0,0,1,128,156ZM83.75391,36.6709A52.00433,52.00433,0,0,1,180,64v60.42871a12,12,0,1,1-24,0V64a28.00411,28.00411,0,0,0-51.83594-14.70215A12.00015,12.00015,0,0,1,83.75391,36.6709ZM183.90332,149.84375a59.61858,59.61858,0,0,0,3.72949-15.16309,12.00048,12.00048,0,0,1,23.85547,2.63868,83.71211,83.71211,0,0,1-5.2334,21.2666,12.00019,12.00019,0,0,1-22.35156-8.74219Z"/>
</svg>
