<svg xmlns="http://www.w3.org/2000/svg" viewBox="0 0 256 256"><path d="M200,20H72A20.1,20.1,0,0,0,52,40V56H40A20.1,20.1,0,0,0,20,76V180a20.1,20.1,0,0,0,20,20H52v16a20.1,20.1,0,0,0,20,20H200a20.1,20.1,0,0,0,20-20V40A20.1,20.1,0,0,0,200,20Zm-28,88h24v40H172Zm24-24H172V76a20.1,20.1,0,0,0-20-20h-4V44h48ZM76,44h48V56H76ZM44,80H148v96H44ZM76,200h48v12H76Zm72,12V200h4a20.1,20.1,0,0,0,20-20v-8h24v40ZM68.4,144.8,81,128,68.4,111.2A12,12,0,1,1,87.6,96.8L96,108l8.4-11.2a12,12,0,0,1,19.2,14.4L111,128l12.6,16.8a12,12,0,0,1-2.4,16.8,12,12,0,0,1-16.8-2.4L96,148l-8.4,11.2a12,12,0,0,1-16.8,2.4A12,12,0,0,1,68.4,144.8Z"/></svg>