<svg xmlns="http://www.w3.org/2000/svg" viewBox="0 0 256 256"><path d="M56.9,31.9A12,12,0,0,0,39.1,48.1L76,88.6V120a52,52,0,0,0,52,52,52.6,52.6,0,0,0,20.1-4l11.3,12.4A68.1,68.1,0,0,1,60,120a12,12,0,0,0-24,0,92.1,92.1,0,0,0,80,91.2V232a12,12,0,0,0,24,0V211.2a92,92,0,0,0,35.9-12.7l23.2,25.6a12.1,12.1,0,0,0,17,.8,12.1,12.1,0,0,0,.8-17ZM128,148a28.1,28.1,0,0,1-28-28v-5l29.9,32.9ZM90.7,45.3a12,12,0,0,1-.5-17A52,52,0,0,1,180,64v48.5a12,12,0,0,1-24,0V64a28.1,28.1,0,0,0-28-28,27.8,27.8,0,0,0-20.4,8.8A12,12,0,0,1,90.7,45.3ZM191,145.6a67.5,67.5,0,0,0,5-25.6,12,12,0,0,1,24,0,92.6,92.6,0,0,1-6.7,34.6,12,12,0,0,1-22.3-9Z"/></svg>