<svg xmlns="http://www.w3.org/2000/svg" viewBox="0 0 256 256"><path d="M222.6,140.8A76,76,0,0,0,115.2,33.4l-.9.9-.9.9A75.9,75.9,0,0,0,92,88q0,3.3.3,6.6L18.4,195.4a19.7,19.7,0,0,0,2,25.9l14.3,14.3a19.8,19.8,0,0,0,25.9,2l100.8-73.9q3.3.3,6.6.3a75.9,75.9,0,0,0,52.8-21.4l.9-.9ZM220,88a51.2,51.2,0,0,1-7.8,27.3L140.7,43.8A51.2,51.2,0,0,1,168,36,52,52,0,0,1,220,88ZM116,88a51.2,51.2,0,0,1,7.8-27.3l71.5,71.5A51.2,51.2,0,0,1,168,140,52,52,0,0,1,116,88ZM49.2,216.2l-9.4-9.4,61-83.3a76.9,76.9,0,0,0,31.7,31.7Z"/></svg>