<svg id="Flat" xmlns="http://www.w3.org/2000/svg" viewBox="0 0 256 256">
  <path d="M56.87891,31.92773A11.99986,11.99986,0,0,0,39.12109,48.07227L76,88.639V120a52.01259,52.01259,0,0,0,72.11035,47.96021L159.374,180.35059A67.33352,67.33352,0,0,1,128,188a68.07728,68.07728,0,0,1-68-68,12,12,0,0,0-24,0,92.13808,92.13808,0,0,0,80,91.21753V232a12,12,0,0,0,24,0V211.19922a92.52241,92.52241,0,0,0,35.90625-12.66309l23.21484,25.53614a11.99986,11.99986,0,0,0,17.75782-16.14454ZM128,148a28.03146,28.03146,0,0,1-28-28v-4.96094l29.8999,32.8899C129.26953,147.97119,128.63672,148,128,148ZM90.67383,45.26465a11.99874,11.99874,0,0,1-.48438-16.96289A52,52,0,0,1,180,64v48.53516a12,12,0,1,1-24,0V64a28.03146,28.03146,0,0,0-28-28,27.75145,27.75145,0,0,0-20.36328,8.78027A11.99884,11.99884,0,0,1,90.67383,45.26465ZM191.0293,145.57812A67.64212,67.64212,0,0,0,196,120a12,12,0,0,1,24,0,91.51346,91.51346,0,0,1-6.73633,34.61133,11.99965,11.99965,0,0,1-22.23437-9.03321Z"/>
</svg>
