<svg xmlns="http://www.w3.org/2000/svg" viewBox="0 0 256 256"><path d="M200,20H72A20.1,20.1,0,0,0,52,40V56H40A20.1,20.1,0,0,0,20,76V180a20.1,20.1,0,0,0,20,20H52v16a20.1,20.1,0,0,0,20,20H200a20.1,20.1,0,0,0,20-20V40A20.1,20.1,0,0,0,200,20Zm-28,88h24v40H172ZM76,44H196V84H172V76a20.1,20.1,0,0,0-20-20H76ZM44,80H148v96H44ZM76,212V200h76a20.1,20.1,0,0,0,20-20v-8h24v40Zm-7.6-57.1-12-48a12,12,0,0,1,23.2-5.8l3.6,14.2,1.8-4.2a12.1,12.1,0,0,1,22,0l1.8,4.2,3.6-14.2a12,12,0,0,1,23.2,5.8l-12,48A12,12,0,0,1,113,164h-1a12.2,12.2,0,0,1-11-7.1l-5-11.4-5,11.4a12,12,0,0,1-22.6-2Z"/></svg>