<svg id="Flat" xmlns="http://www.w3.org/2000/svg" viewBox="0 0 256 256">
  <path d="M232,52H24A20.02229,20.02229,0,0,0,4,72V184a20.02229,20.02229,0,0,0,20,20H232a20.02229,20.02229,0,0,0,20-20V72A20.02229,20.02229,0,0,0,232,52ZM88.53711,180,29.604,128,88.53711,76h78.92578L226.396,128l-58.93311,52ZM228,97.40833,203.7373,76H228ZM52.2627,76,28,97.40833V76ZM28,158.59167,52.2627,180H28ZM203.7373,180,228,158.59167V180ZM128,84a44,44,0,1,0,44,44A44.04978,44.04978,0,0,0,128,84Zm0,64a20,20,0,1,1,20-20A20.02229,20.02229,0,0,1,128,148Z"/>
</svg>
