<svg id="Flat" xmlns="http://www.w3.org/2000/svg" viewBox="0 0 256 256">
  <path d="M232,52H24A20.02229,20.02229,0,0,0,4,72V184a20.02229,20.02229,0,0,0,20,20H232a20.02229,20.02229,0,0,0,20-20V72A20.02229,20.02229,0,0,0,232,52ZM92.5625,180l-58.5-52,58.5-52h70.875l58.5,52-58.5,52ZM228,101.27783,199.5625,76H228ZM56.4375,76,28,101.27783V76ZM28,154.72217,56.4375,180H28ZM199.5625,180,228,154.72217V180ZM128,88a40,40,0,1,0,40,40A40.04584,40.04584,0,0,0,128,88Zm0,56a16,16,0,1,1,16-16A16.01833,16.01833,0,0,1,128,144Z"/>
</svg>
