<svg id="Flat" xmlns="http://www.w3.org/2000/svg" viewBox="0 0 256 256">
  <path d="M168,120a11.99963,11.99963,0,0,1-5.11816,9.83081l-40,28A12,12,0,0,1,104,148V92a12,12,0,0,1,18.88184-9.83081l40,28A11.99963,11.99963,0,0,1,168,120Zm68-56V176a28.03146,28.03146,0,0,1-28,28H48a28.03146,28.03146,0,0,1-28-28V64A28.03161,28.03161,0,0,1,48,36H208A28.03161,28.03161,0,0,1,236,64Zm-24,0a4.00427,4.00427,0,0,0-4-4H48a4.00427,4.00427,0,0,0-4,4V176a4.00427,4.00427,0,0,0,4,4H208a4.00427,4.00427,0,0,0,4-4ZM160,216H96a12,12,0,0,0,0,24h64a12,12,0,0,0,0-24Z"/>
</svg>
