<svg id="Flat" xmlns="http://www.w3.org/2000/svg" viewBox="0 0 256 256">
  <path d="M208,36H48A28.03161,28.03161,0,0,0,20,64V176a28.03146,28.03146,0,0,0,28,28H208a28.03146,28.03146,0,0,0,28-28V64A28.03161,28.03161,0,0,0,208,36Zm4,140a4.00427,4.00427,0,0,1-4,4H48a4.00427,4.00427,0,0,1-4-4V64a4.00427,4.00427,0,0,1,4-4H208a4.00427,4.00427,0,0,1,4,4Zm-40,52a12.00028,12.00028,0,0,1-12,12H96a12,12,0,0,1,0-24h64A12.00028,12.00028,0,0,1,172,228Zm-1.51074-118.09424-56-36A12.00034,12.00034,0,0,0,96,84v72a12.00025,12.00025,0,0,0,18.48926,10.09424l56-36a12.00038,12.00038,0,0,0,0-20.18848ZM120,134.02V105.98L141.80859,120Z"/>
</svg>
