<svg id="Flat" xmlns="http://www.w3.org/2000/svg" viewBox="0 0 256 256">
  <path d="M256,84a12.00028,12.00028,0,0,1-12,12H232v12a12,12,0,0,1-24,0V96H196a12,12,0,0,1,0-24h12V60a12,12,0,0,1,24,0V72h12A12.00028,12.00028,0,0,1,256,84ZM148,48h4v4a12,12,0,0,0,24,0V48h4a12,12,0,0,0,0-24h-4V20a12,12,0,0,0-24,0v4h-4a12,12,0,0,0,0,24Zm85.209,98.65918a11.9952,11.9952,0,0,1,.0542,5.5957A108.00662,108.00662,0,1,1,103.74609,22.7373a11.99942,11.99942,0,0,1,14.38135,14.37793A84.08525,84.08525,0,0,0,218.88135,137.87207a11.99712,11.99712,0,0,1,14.32715,8.78516Zm-29.27343,17.26953Q201.96973,164.00049,200,164A108.12217,108.12217,0,0,1,92,56q0-1.96875.0708-3.93555a84.60216,84.60216,0,0,0-29.501,23.25391A83.05632,83.05632,0,0,0,44,128a84.0953,84.0953,0,0,0,84,84,83.05912,83.05912,0,0,0,52.68213-18.56934A84.60286,84.60286,0,0,0,203.93555,163.92871Z"/>
</svg>
