<svg xmlns="http://www.w3.org/2000/svg" viewBox="0 0 256 256"><path d="M252,88a12,12,0,0,1-12,12H228v12a12,12,0,0,1-24,0V100H192a12,12,0,0,1,0-24h12V64a12,12,0,0,1,24,0V76h12A12,12,0,0,1,252,88ZM152,52h4v4a12,12,0,0,0,24,0V52h4a12,12,0,0,0,0-24h-4V24a12,12,0,0,0-24,0v4h-4a12,12,0,0,0,0,24Zm76,96.9a11.5,11.5,0,0,1,.2,7.1A104,104,0,1,1,99.9,27.8a12.6,12.6,0,0,1,7.9.4A12,12,0,0,1,115.3,40a13.5,13.5,0,0,1-.4,2.8,80,80,0,0,0,98.3,98.4,11.3,11.3,0,0,1,3.2-.5A11.6,11.6,0,0,1,228,148.9Zm-30.6,19A104.2,104.2,0,0,1,88.1,58.6,80,80,0,1,0,197.4,167.9Z"/></svg>