<svg xmlns="http://www.w3.org/2000/svg" viewBox="0 0 256 256"><path d="M236,56a12,12,0,0,1-12,12H212V80a12,12,0,0,1-24,0V68H176a12,12,0,0,1,0-24h12V32a12,12,0,0,1,24,0V44h12A12,12,0,0,1,236,56ZM92,121.4V204a40,40,0,1,1-40-40,38.9,38.9,0,0,1,16,3.4V64a11.9,11.9,0,0,1,9.1-11.6l48.2-12.1a12,12,0,0,1,5.8,23.3L92,73.4V96.6l53.1-13.2a12,12,0,1,1,5.8,23.2ZM68,204a16,16,0,1,0-16,16A16,16,0,0,0,68,204Zm152-76.7V172a40,40,0,1,1-40-40,38.9,38.9,0,0,1,16,3.4v-8.1a12,12,0,0,1,24,0ZM196,172a16,16,0,1,0-16,16A16,16,0,0,0,196,172Z"/></svg>