<svg id="Flat" xmlns="http://www.w3.org/2000/svg" viewBox="0 0 256 256">
  <path d="M103.54883,234.251a19.95529,19.95529,0,0,1-18.89356-13.457L26.05078,51.48926v.001A20,20,0,0,1,51.49316,26.04785L220.7959,84.65332a19.99949,19.99949,0,0,1-.66016,38.01465l-74.53222,22.93359L122.6709,220.13281a19.95605,19.95605,0,0,1-18.76758,14.11524Q103.72608,234.251,103.54883,234.251Zm3.78613-21.3086h0ZM51.42383,51.42188,103.33105,201.376l19.95606-64.85743a19.98071,19.98071,0,0,1,13.23828-13.23437l64.85352-19.95508Zm-2.69336-7.78321v.001l.00391.01172Z"/>
</svg>
