<svg xmlns="http://www.w3.org/2000/svg" viewBox="0 0 256 256"><path d="M216,36H40A20.1,20.1,0,0,0,20,56V216a12,12,0,0,0,5.7,10.2,11.9,11.9,0,0,0,11.7.5L64,213.4l26.6,13.3a12.1,12.1,0,0,0,10.8,0L128,213.4l26.6,13.3a11.9,11.9,0,0,0,10.8,0L192,213.4l26.6,13.3a11.9,11.9,0,0,0,11.7-.5A12,12,0,0,0,236,216V56A20.1,20.1,0,0,0,216,36Zm-4,160.6-14.6-7.3a12.1,12.1,0,0,0-10.8,0L160,202.6l-26.6-13.3a11.9,11.9,0,0,0-10.8,0L96,202.6,69.4,189.3a12.1,12.1,0,0,0-10.8,0L44,196.6V60H212ZM136,108a12,12,0,0,1,12-12h36a12,12,0,0,1,0,24H148A12,12,0,0,1,136,108Zm0,40a12,12,0,0,1,12-12h36a12,12,0,0,1,0,24H148A12,12,0,0,1,136,148ZM72,172h40a12,12,0,0,0,12-12V96a12,12,0,0,0-12-12H72A12,12,0,0,0,60,96v64A12,12,0,0,0,72,172Zm12-64h16v40H84Z"/></svg>