<svg id="Flat" xmlns="http://www.w3.org/2000/svg" viewBox="0 0 256 256">
  <path d="M216,36H40A20.02229,20.02229,0,0,0,20,56V216a12,12,0,0,0,17.36621,10.7334L64,213.416,90.63379,226.7334a11.99669,11.99669,0,0,0,10.73242,0L128,213.416l26.63379,13.31738a12.00082,12.00082,0,0,0,10.73242,0L192,213.416l26.63379,13.31738A12,12,0,0,0,236,216V56A20.02229,20.02229,0,0,0,216,36Zm-4,160.584-14.63379-7.31738a11.99669,11.99669,0,0,0-10.73242,0L160,202.584,133.36621,189.2666a12.00082,12.00082,0,0,0-10.73242,0L96,202.584,69.36621,189.2666a11.99669,11.99669,0,0,0-10.73242,0L44,196.584V60H212ZM136,108a12.0006,12.0006,0,0,1,12-12h36a12,12,0,0,1,0,24H148A12.0006,12.0006,0,0,1,136,108Zm0,40a12.0006,12.0006,0,0,1,12-12h36a12,12,0,0,1,0,24H148A12.0006,12.0006,0,0,1,136,148ZM72,172h40a12.0006,12.0006,0,0,0,12-12V96a12.0006,12.0006,0,0,0-12-12H72A12.0006,12.0006,0,0,0,60,96v64A12.0006,12.0006,0,0,0,72,172Zm12-64h16v40H84Z"/>
</svg>
