<svg id="Flat" xmlns="http://www.w3.org/2000/svg" viewBox="0 0 256 256">
  <path d="M80,92A12.0006,12.0006,0,0,1,92,80H196a12,12,0,0,1,0,24H92A12.0006,12.0006,0,0,1,80,92Zm12,48H196a12,12,0,0,0,0-24H92a12,12,0,0,0,0,24Zm0,36H196a12,12,0,0,0,0-24H92a12,12,0,0,0,0,24ZM248,56V188a32.03667,32.03667,0,0,1-32,32H32A32.03667,32.03667,0,0,1,0,188V80a12,12,0,0,1,24,0V188a8,8,0,0,0,16,0V56A20.02229,20.02229,0,0,1,60,36H228A20.02229,20.02229,0,0,1,248,56Zm-24,4H64V188a31.92726,31.92726,0,0,1-1.0127,8H216a8.00917,8.00917,0,0,0,8-8Z"/>
</svg>
