<svg id="Flat" xmlns="http://www.w3.org/2000/svg" viewBox="0 0 256 256">
  <path d="M76,96A12.0006,12.0006,0,0,1,88,84H192a12,12,0,0,1,0,24H88A12.0006,12.0006,0,0,1,76,96Zm12,44H192a12,12,0,0,0,0-24H88a12,12,0,0,0,0,24Zm0,32H192a12,12,0,0,0,0-24H88a12,12,0,0,0,0,24ZM244,56V192a28.03146,28.03146,0,0,1-28,28H32A28.03248,28.03248,0,0,1,4,192.12988V80a12,12,0,0,1,24,0V192a4,4,0,0,0,8,0V56A20.02229,20.02229,0,0,1,56,36H224A20.02229,20.02229,0,0,1,244,56Zm-24,4H60V192a28.0098,28.0098,0,0,1-.28516,4H216a4.004,4.004,0,0,0,4-4Z"/>
</svg>
