<svg id="Flat" xmlns="http://www.w3.org/2000/svg" viewBox="0 0 256 256">
  <path d="M172,124.00586a12.00028,12.00028,0,0,1-12,12H96a12,12,0,1,1,0-24h64A12.00028,12.00028,0,0,1,172,124.00586Zm-12,28H96a12,12,0,1,0,0,24h64a12,12,0,0,0,0-24Zm60-104v152a36.04061,36.04061,0,0,1-36,36H72a36.04061,36.04061,0,0,1-36-36v-152a20.02229,20.02229,0,0,1,20-20H72v-4a12,12,0,0,1,24,0v4h20v-4a12,12,0,0,1,24,0v4h20v-4a12,12,0,0,1,24,0v4h16A20.02229,20.02229,0,0,1,220,48.00586Zm-24,4H184v4a12,12,0,0,1-24,0v-4H140v4a12,12,0,0,1-24,0v-4H96v4a12,12,0,0,1-24,0v-4H60v148a12.01312,12.01312,0,0,0,12,12H184a12.01312,12.01312,0,0,0,12-12Z"/>
</svg>
