<svg id="Flat" xmlns="http://www.w3.org/2000/svg" viewBox="0 0 256 256">
  <path d="M84,96A12,12,0,0,1,96,84h64a12,12,0,0,1,0,24H96A12,12,0,0,1,84,96Zm12,44h64a12,12,0,0,0,0-24H96a12,12,0,0,0,0,24Zm32,8H96a12,12,0,0,0,0,24h32a12,12,0,0,0,0-24ZM228,48V156.68652a19.86881,19.86881,0,0,1-5.8584,14.14258l-51.313,51.313A19.86805,19.86805,0,0,1,156.68652,228H48a20.0226,20.0226,0,0,1-20-20V48A20.0226,20.0226,0,0,1,48,28H208A20.0226,20.0226,0,0,1,228,48ZM52,204h96V159.99219a11.99966,11.99966,0,0,1,12-12h44V52H52Zm120-32.00781V187.0293l15.03735-15.03711Z"/>
</svg>
