<svg xmlns="http://www.w3.org/2000/svg" viewBox="0 0 256 256"><path d="M172,124a12,12,0,0,1-12,12H96a12,12,0,0,1,0-24h64A12,12,0,0,1,172,124Zm-12,28H96a12,12,0,0,0,0,24h64a12,12,0,0,0,0-24ZM220,48V200a36,36,0,0,1-36,36H72a36,36,0,0,1-36-36V48A20.1,20.1,0,0,1,56,28H72V24a12,12,0,0,1,24,0v4h20V24a12,12,0,0,1,24,0v4h20V24a12,12,0,0,1,24,0v4h16A20.1,20.1,0,0,1,220,48Zm-24,4H184v4a12,12,0,0,1-24,0V52H140v4a12,12,0,0,1-24,0V52H96v4a12,12,0,0,1-24,0V52H60V200a12,12,0,0,0,12,12H184a12,12,0,0,0,12-12Z"/></svg>