<svg id="Flat" xmlns="http://www.w3.org/2000/svg" viewBox="0 0 256 256">
  <path d="M232.48535,55.51465l-32-32a12.00062,12.00062,0,0,0-16.9707,0l-96,96A12.002,12.002,0,0,0,84,128v32a12.00028,12.00028,0,0,0,12,12h32a11.99907,11.99907,0,0,0,8.48535-3.51465l96-96A11.99973,11.99973,0,0,0,232.48535,55.51465ZM192,48.97046,207.0293,64,196,75.0293,180.9707,60ZM123.0293,148H108V132.97046L164,76.9707,179.0293,92ZM228,128.56836V208a20.0226,20.0226,0,0,1-20,20H48a20.0226,20.0226,0,0,1-20-20V48A20.02244,20.02244,0,0,1,48,28h79.43164a12,12,0,0,1,0,24H52V204H204V128.56836a12,12,0,0,1,24,0Z"/>
</svg>
