<svg id="Flat" xmlns="http://www.w3.org/2000/svg" viewBox="0 0 256 256">
  <path d="M128,20A108,108,0,1,0,236,128,108.12186,108.12186,0,0,0,128,20Zm0,192a84,84,0,1,1,84-84A84.09562,84.09562,0,0,1,128,212Zm20-98.65137a39.89764,39.89764,0,0,0-15.52-5.11816l12.83838-22.23633a12.00024,12.00024,0,1,0-20.78516-12L93.3584,127.98926l-.0083.01611a40.027,40.027,0,0,0,34.58447,60.00147,40.2003,40.2003,0,0,0,10.418-1.38086A39.99967,39.99967,0,0,0,148,113.34863Zm-6.14355,42.64063a16.00015,16.00015,0,0,1-27.71485-15.99707l.002-.00293.00293-.00537a16.00011,16.00011,0,0,1,27.71,16.00537Z"/>
</svg>
