<svg id="Flat" xmlns="http://www.w3.org/2000/svg" viewBox="0 0 256 256">
  <path d="M128,20A108,108,0,1,0,236,128,108.12186,108.12186,0,0,0,128,20Zm0,192a84,84,0,1,1,84-84A84.09562,84.09562,0,0,1,128,212Zm29.50391-87.38477-29.51075,39.37891H152a12,12,0,0,1,0,24H104.39648c-.13281.00488-.26464.00684-.39843.00684a12.00272,12.00272,0,0,1-9.47168-19.36914l43.56543-58.13379a12.00426,12.00426,0,1,0-21.1543-11.165A11.9998,11.9998,0,0,1,94.834,89.9834a36.00408,36.00408,0,1,1,63.01172,34.15234C157.73535,124.29883,157.62207,124.458,157.50391,124.61523Z"/>
</svg>
