<svg id="Flat" xmlns="http://www.w3.org/2000/svg" viewBox="0 0 256 256">
  <path d="M91.99707,79.99219a12.00028,12.00028,0,0,1,12-12h48a11.99991,11.99991,0,0,1,9.832,18.87988l-18.32226,26.18457a40.19074,40.19074,0,0,1,8.78125,6.66016,40,40,0,0,1-56.56934,56.56787A12.0001,12.0001,0,0,1,112.68848,159.313,15.99967,15.99967,0,1,0,124.00293,132a11.9999,11.9999,0,0,1-9.832-18.87988l14.7832-21.12793h-24.957A12.00028,12.00028,0,0,1,91.99707,79.99219ZM228,48V208a20.0226,20.0226,0,0,1-20,20H48a20.0226,20.0226,0,0,1-20-20V48A20.0226,20.0226,0,0,1,48,28H208A20.0226,20.0226,0,0,1,228,48Zm-24,4H52V204H204Z"/>
</svg>
