<svg id="Flat" xmlns="http://www.w3.org/2000/svg" viewBox="0 0 256 256">
  <path d="M128,20A108,108,0,1,0,236,128,108.12186,108.12186,0,0,0,128,20Zm0,192a84,84,0,1,1,84-84A84.09562,84.09562,0,0,1,128,212Zm26.7334-89a34.00019,34.00019,0,1,0-53.4668-.00049c-.04492.04444-.092.08545-.13672.13037a38,38,0,1,0,53.74024,0C154.82544,123.08545,154.77832,123.044,154.7334,123Zm-33.80371-13.92773A10.00107,10.00107,0,1,1,128,112,9.93619,9.93619,0,0,1,120.92969,109.07227Zm16.96972,50.82714A13.99959,13.99959,0,1,1,142,150,13.908,13.908,0,0,1,137.89941,159.89941Z"/>
</svg>
