<svg id="Flat" xmlns="http://www.w3.org/2000/svg" viewBox="0 0 256 256">
  <path d="M128,20A108,108,0,1,0,236,128,108.12186,108.12186,0,0,0,128,20Zm0,192a84,84,0,1,1,84-84A84.09562,84.09562,0,0,1,128,212Zm24.28809-88.2832a39.99987,39.99987,0,0,1-56.56934,56.56738,12.0001,12.0001,0,0,1,16.9707-16.9707A15.99967,15.99967,0,1,0,124.00293,136a11.99971,11.99971,0,0,1-9.832-18.87988l14.7832-21.12793h-24.957a12,12,0,0,1,0-24h48a11.99971,11.99971,0,0,1,9.832,18.87988l-18.32226,26.18457A40.17514,40.17514,0,0,1,152.28809,123.7168Z"/>
</svg>
