<svg id="Flat" xmlns="http://www.w3.org/2000/svg" viewBox="0 0 256 256">
  <path d="M178.64062,127.08447a72.0157,72.0157,0,0,0-11.4873-8.77881,62.79451,62.79451,0,0,0,4.96-4.18505,57.63178,57.63178,0,0,0,0-84.90772,65.13331,65.13331,0,0,0-88.22656,0,57.63178,57.63178,0,0,0,0,84.90772,62.83973,62.83973,0,0,0,4.96,4.18505,72.03006,72.03006,0,0,0-11.48731,8.7793,65.92976,65.92976,0,0,0,0,97.16406,74.795,74.795,0,0,0,101.28125-.00048,65.92975,65.92975,0,0,0,0-97.16407ZM100.31445,96.62354a33.63846,33.63846,0,0,1,0-49.91358,41.13895,41.13895,0,0,1,55.3711,0,33.63846,33.63846,0,0,1,0,49.91358,41.13895,41.13895,0,0,1-55.3711,0ZM162.21289,206.752a50.80186,50.80186,0,0,1-68.42578.00049,41.93735,41.93735,0,0,1,0-62.1709,50.80188,50.80188,0,0,1,68.42578-.00049,41.93735,41.93735,0,0,1,0,62.1709Z"/>
</svg>
