<svg id="Flat" xmlns="http://www.w3.org/2000/svg" viewBox="0 0 256 256">
  <path d="M128,68c-14.43848,0-26.73047,7.44043-34.61328,20.95215C87.334,99.32715,84,113.19434,84,128c0,14.80371,3.334,28.6709,9.38672,39.04688C101.26953,180.55859,113.5625,188,128,188s26.73047-7.44141,34.61328-20.95312C168.666,156.6709,172,142.80371,172,128c0-14.80566-3.334-28.67285-9.38672-39.04785C154.73047,75.44043,142.43848,68,128,68Zm0,96c-15.82031,0-20-23.54883-20-36s4.17969-36,20-36,20,23.54883,20,36S143.82031,164,128,164Zm0-144A108,108,0,1,0,236,128,108.12186,108.12186,0,0,0,128,20Zm0,192a84,84,0,1,1,84-84A84.09562,84.09562,0,0,1,128,212Z"/>
</svg>
