<svg id="Flat" xmlns="http://www.w3.org/2000/svg" viewBox="0 0 256 256">
  <path d="M139.75684,106.42725a12.24606,12.24606,0,0,0-.001-4.86133,11.80278,11.80278,0,0,0-.69336-2.23145,12.02453,12.02453,0,0,0-1.10547-2.03711,12.1368,12.1368,0,0,0-3.25879-3.25683A11.95663,11.95663,0,0,0,132.669,92.939a11.83554,11.83554,0,0,0-2.23438-.69433,12.2713,12.2713,0,0,0-4.86523-.00049,11.828,11.828,0,0,0-2.23536.69338,12.048,12.048,0,0,0-2.03906,1.10691,12.15337,12.15337,0,0,0-3.252,3.25293,12.02382,12.02382,0,0,0-1.10547,2.03711A12.00037,12.00037,0,0,1,94.834,89.98193a36.00683,36.00683,0,1,1,63.01172,34.15235q-.16405.24462-.34179.48047l-29.51075,39.37939H152a12,12,0,0,1,0,24H104.39648c-.13281.0044-.26464.00684-.39843.00684a12.00272,12.00272,0,0,1-9.47168-19.36914l43.56445-58.1333a11.977,11.977,0,0,0,.97168-1.833A11.789,11.789,0,0,0,139.75684,106.42725ZM228,48V208a20.0226,20.0226,0,0,1-20,20H48a20.0226,20.0226,0,0,1-20-20V48A20.0226,20.0226,0,0,1,48,28H208A20.0226,20.0226,0,0,1,228,48Zm-24,4H52V204H204Z"/>
</svg>
