<svg id="Flat" xmlns="http://www.w3.org/2000/svg" viewBox="0 0 256 256">
  <path d="M208,28H48A20.02229,20.02229,0,0,0,28,48V208a20.02229,20.02229,0,0,0,20,20H208a20.02229,20.02229,0,0,0,20-20V48A20.02229,20.02229,0,0,0,208,28Zm-4,176H52V52H204Zm-76-16a39.99469,39.99469,0,0,0,5.05786-79.66895l13.24585-22.18554a12.00024,12.00024,0,1,0-20.60742-12.30274L93.45117,127.85059c-.071.119-.12622.24267-.19263.363A39.96946,39.96946,0,0,0,128,188Zm16-40a16,16,0,1,1-16-16A16.01833,16.01833,0,0,1,144,148Z"/>
</svg>
