<svg id="Flat" xmlns="http://www.w3.org/2000/svg" viewBox="0 0 256 256">
  <path d="M92.25391,126.28223l7.80175-48.20313a11.99986,11.99986,0,0,1,11.84571-10.083h39.99707a12,12,0,0,1,0,24H122.11523l-2.6289,16.24121a40.572,40.572,0,0,1,4.41211-.23925,40,40,0,1,1-28.28321,68.28613A12.0001,12.0001,0,0,1,112.584,159.31152a16.00049,16.00049,0,1,0,0-22.626,11.99985,11.99985,0,0,1-20.33007-10.40332ZM228,48V208a20.02229,20.02229,0,0,1-20,20H48a20.02229,20.02229,0,0,1-20-20V48A20.02229,20.02229,0,0,1,48,28H208A20.02229,20.02229,0,0,1,228,48Zm-24,4H52V204H204Z"/>
</svg>
