<svg id="Flat" xmlns="http://www.w3.org/2000/svg" viewBox="0 0 256 256">
  <path d="M208,28H48A20.0226,20.0226,0,0,0,28,48V208a20.0226,20.0226,0,0,0,20,20H208a20.0226,20.0226,0,0,0,20-20V48A20.0226,20.0226,0,0,0,208,28Zm-4,176H52V52H204Zm-65.9082-93.50244A12.00414,12.00414,0,1,0,116.9375,99.333,11.9998,11.9998,0,1,1,94.834,89.9834a36.004,36.004,0,1,1,63.01075,34.15332c-.10938.16211-.22364.32129-.34082.478l-29.51075,39.37939H152a12,12,0,0,1,0,24H104.39648c-.13281.0044-.26464.00684-.39843.00684a12.00272,12.00272,0,0,1-9.47168-19.36914Z"/>
</svg>
