<svg id="Flat" xmlns="http://www.w3.org/2000/svg" viewBox="0 0 256 256">
  <path d="M128,20A108,108,0,1,0,236,128,108.12186,108.12186,0,0,0,128,20Zm0,192a84,84,0,1,1,84-84A84.09562,84.09562,0,0,1,128,212Zm29.50391-87.38477-29.51075,39.37891H152a12,12,0,0,1,0,24H104.39648c-.13281.00488-.26464.00684-.39843.00684a12.00272,12.00272,0,0,1-9.47168-19.36914L138.09082,110.5a11.99224,11.99224,0,0,0,.97168-1.834,11.80939,11.80939,0,0,0,.69434-2.23926,12.24605,12.24605,0,0,0-.001-4.86133,11.836,11.836,0,0,0-.69336-2.23145A12.06472,12.06472,0,0,0,132.666,92.9375a11.80939,11.80939,0,0,0-2.23926-.69434,12.30644,12.30644,0,0,0-4.86133.001,11.836,11.836,0,0,0-2.23145.69336A12.06472,12.06472,0,0,0,116.9375,99.334,12.00018,12.00018,0,0,1,94.834,89.98242a36.00664,36.00664,0,1,1,63.01368,34.15039C157.73633,124.29688,157.62207,124.457,157.50391,124.61523Z"/>
</svg>
