<svg id="Flat" xmlns="http://www.w3.org/2000/svg" viewBox="0 0 256 256">
  <path d="M90,150a38,38,0,1,0,64.87012-26.87012c-.04468-.04467-.0918-.08569-.13672-.13012a34.0001,34.0001,0,1,0-53.4668-.00025c-.04492.04444-.092.0857-.13672.13037A37.75382,37.75382,0,0,0,90,150Zm47.89941,9.89941A13.99959,13.99959,0,1,1,142,150,13.908,13.908,0,0,1,137.89941,159.89941Zm-16.96972-50.82714A10.00107,10.00107,0,1,1,128,112,9.93619,9.93619,0,0,1,120.92969,109.07227ZM208,28H48A20.02229,20.02229,0,0,0,28,48V208a20.02229,20.02229,0,0,0,20,20H208a20.02229,20.02229,0,0,0,20-20V48A20.02229,20.02229,0,0,0,208,28Zm-4,176H52V52H204Z"/>
</svg>
