<svg id="Flat" xmlns="http://www.w3.org/2000/svg" viewBox="0 0 256 256">
  <path d="M79.99805,236.00073a12.00407,12.00407,0,0,1-9.4336-19.41968L158.01074,99.89319a35.7404,35.7404,0,0,0,5.25684-12.62256,36.46016,36.46016,0,0,0,.001-14.53784,35.78129,35.78129,0,0,0-5.41015-12.85388,36.2455,36.2455,0,0,0-9.73926-9.7378,35.73051,35.73051,0,0,0-12.85059-5.40942,36.63911,36.63911,0,0,0-14.5371,0,35.73051,35.73051,0,0,0-12.85059,5.40942,36.25546,36.25546,0,0,0-9.74121,9.74036,35.97858,35.97858,0,0,0-3.31445,6.10742,11.99984,11.99984,0,1,1-22.10547-9.34521A59.98341,59.98341,0,0,1,115.9209,21.21875a60.745,60.745,0,0,1,24.1582,0,59.74228,59.74228,0,0,1,21.47559,9.0354,60.12881,60.12881,0,0,1,21.72558,26.38953,59.64462,59.64462,0,0,1,3.501,11.27954,60.43844,60.43844,0,0,1-.001,24.1571,59.72881,59.72881,0,0,1-9.0332,21.47315q-.16406.24426-.3418.48022l-73.4082,97.95484H176a12,12,0,0,1,0,24H80.53906C80.35937,235.99658,80.17871,236.00073,79.99805,236.00073Z"/>
</svg>
