<svg id="Flat" xmlns="http://www.w3.org/2000/svg" viewBox="0 0 256 256">
  <path d="M108,142.64551a39.88913,39.88913,0,0,0,15.52393,5.11133L110.68164,170a12.00024,12.00024,0,1,0,20.78516,12l31.1748-53.99512.0083-.01587A39.99971,39.99971,0,1,0,108,142.64551Zm6.14355-42.64063a15.89607,15.89607,0,0,1,9.71485-7.45508,16.10736,16.10736,0,0,1,4.168-.55175A16.00584,16.00584,0,0,1,141.85889,116.001l-.00244.0039-.00538.00928a16,16,0,0,1-27.70752-16.00928ZM208,28H48A20.02229,20.02229,0,0,0,28,48V208a20.02229,20.02229,0,0,0,20,20H208a20.02229,20.02229,0,0,0,20-20V48A20.02229,20.02229,0,0,0,208,28Zm-4,176H52V52H204Z"/>
</svg>
