<svg id="Flat" xmlns="http://www.w3.org/2000/svg" viewBox="0 0 256 256">
  <path d="M208,28H48A20.02229,20.02229,0,0,0,28,48V208a20.02229,20.02229,0,0,0,20,20H208a20.02229,20.02229,0,0,0,20-20V48A20.02229,20.02229,0,0,0,208,28Zm-4,176H52V52H204ZM89.36328,158.3418a40.04919,40.04919,0,0,0,38.57129,29.665,40.2003,40.2003,0,0,0,10.418-1.38086,40.00964,40.00964,0,0,0-5.8728-78.39527l12.83862-22.23657a12.00024,12.00024,0,1,0-20.78516-12L93.3584,127.98926l-.0083.01587A39.741,39.741,0,0,0,89.36328,158.3418Zm34.49512-25.80762a16.00069,16.00069,0,1,1-9.7168,7.458l.002-.00293.00293-.00513A15.8992,15.8992,0,0,1,123.8584,132.53418Z"/>
</svg>
