<svg xmlns="http://www.w3.org/2000/svg" viewBox="0 0 256 256"><path d="M178.6,127.1a73.8,73.8,0,0,0-11.4-8.8,64,64,0,0,0,4.9-4.2,57.5,57.5,0,0,0,0-84.9,65.1,65.1,0,0,0-88.2,0,57.5,57.5,0,0,0,0,84.9,64,64,0,0,0,4.9,4.2,73.8,73.8,0,0,0-11.4,8.8,65.8,65.8,0,0,0,0,97.1,74.6,74.6,0,0,0,101.2,0,65.8,65.8,0,0,0,0-97.1ZM100.3,96.6a33.6,33.6,0,0,1,0-49.9,41.2,41.2,0,0,1,55.4,0,33.6,33.6,0,0,1,0,49.9,41.2,41.2,0,0,1-55.4,0Zm61.9,110.2a50.9,50.9,0,0,1-68.4,0,41.9,41.9,0,0,1,0-62.2,50.6,50.6,0,0,1,68.4,0,41.9,41.9,0,0,1,0,62.2Z"/></svg>