<svg id="Flat" xmlns="http://www.w3.org/2000/svg" viewBox="0 0 256 256">
  <path d="M192.82129,50.2793C177.64941,25.23682,155.23437,12,128,12S78.35059,25.23682,63.17871,50.2793C50.81055,70.69238,44,98.294,44,128c0,29.70361,6.81055,57.30469,19.17773,77.71777C78.35059,230.76221,100.76562,244,128,244s49.64941-13.23779,64.82227-38.28223C205.18945,185.30469,212,157.70361,212,128,212,98.294,205.18945,70.69238,192.82129,50.2793ZM128,220c-41.44727,0-60-46.20654-60-92s18.55273-92,60-92,60,46.20654,60,92S169.44727,220,128,220Z"/>
</svg>
