<svg id="Flat" xmlns="http://www.w3.org/2000/svg" viewBox="0 0 256 256">
  <path d="M128,20A108,108,0,1,0,236,128,108.12186,108.12186,0,0,0,128,20Zm0,192a84,84,0,1,1,84-84A84.09562,84.09562,0,0,1,128,212ZM166.63672,97.65234a39.99568,39.99568,0,1,0-43.11279,50.1045L110.68164,170a12.00024,12.00024,0,1,0,20.78516,12l31.1748-53.99512.0083-.01611A39.74029,39.74029,0,0,0,166.63672,97.65234ZM132.1416,123.46a16.00039,16.00039,0,0,1-8.2832-30.91016,16.10736,16.10736,0,0,1,4.168-.55175A16.00584,16.00584,0,0,1,141.85889,116.001l-.00244.0039-.00538.00928A15.89812,15.89812,0,0,1,132.1416,123.46Z"/>
</svg>
