<svg id="Flat" xmlns="http://www.w3.org/2000/svg" viewBox="0 0 256 256">
  <path d="M128,188c14.4375,0,26.73047-7.44141,34.61328-20.95312C168.666,156.67139,172,142.8042,172,128c0-14.80518-3.334-28.67285-9.38672-39.04834C154.73047,75.44092,142.43848,68,128,68s-26.73047,7.44092-34.61328,20.95166C87.334,99.32715,84,113.19482,84,128c0,14.8042,3.334,28.67139,9.38672,39.04688C101.26953,180.55859,113.5625,188,128,188Zm0-96c15.82031,0,20,23.54834,20,36s-4.17969,36-20,36-20-23.54834-20-36S112.17969,92,128,92Zm80-64H48A20.0226,20.0226,0,0,0,28,48V208a20.0226,20.0226,0,0,0,20,20H208a20.0226,20.0226,0,0,0,20-20V48A20.0226,20.0226,0,0,0,208,28Zm-4,176H52V52H204Z"/>
</svg>
