<svg id="Flat" xmlns="http://www.w3.org/2000/svg" viewBox="0 0 256 256">
  <path d="M92.15527,126.27734l7.835-48.20214A12,12,0,0,1,111.835,68H152a12,12,0,0,1,0,24H122.042l-2.64062,16.24707a40.83,40.83,0,0,1,4.48047-.24512,39.99911,39.99911,0,1,1-28.34961,68.29883,11.99943,11.99943,0,1,1,16.93554-17.0039,16.202,16.202,0,0,0,22.8291-.001,15.91672,15.91672,0,0,0,0-22.5918,16.20438,16.20438,0,0,0-22.8291.001,12.00041,12.00041,0,0,1-20.3125-10.42774ZM228,48V208a20.02229,20.02229,0,0,1-20,20H48a20.02229,20.02229,0,0,1-20-20V48A20.02229,20.02229,0,0,1,48,28H208A20.02229,20.02229,0,0,1,228,48Zm-24,4H52V204H204Z"/>
</svg>
