<svg id="Flat" xmlns="http://www.w3.org/2000/svg" viewBox="0 0 256 256">
  <path d="M128,20A108,108,0,1,0,236,128,108.12186,108.12186,0,0,0,128,20Zm0,192a84,84,0,1,1,84-84A84.09562,84.09562,0,0,1,128,212ZM122.042,96l-2.64062,16.24707a40.83,40.83,0,0,1,4.48047-.24512,39.99911,39.99911,0,1,1-28.34961,68.29883,11.99943,11.99943,0,1,1,16.93554-17.0039,16.202,16.202,0,0,0,22.82911-.001,15.91674,15.91674,0,0,0,0-22.5918,16.2044,16.2044,0,0,0-22.82911.001,12.00041,12.00041,0,0,1-20.3125-10.42774l7.835-48.20214A12,12,0,0,1,111.835,72H152a12,12,0,0,1,0,24Z"/>
</svg>
