<svg id="Flat" xmlns="http://www.w3.org/2000/svg" viewBox="0 0 256 256">
  <path d="M128,244c-27.23438,0-49.64941-13.23767-64.82227-38.2821C50.81055,185.30457,44,157.7038,44,128,44,98.294,50.81055,70.69226,63.17871,50.27954,78.35059,25.23688,100.76562,12,128,12s49.64941,13.23688,64.82129,38.27954C205.18945,70.69226,212,98.294,212,128c0,29.7038-6.81055,57.30457-19.17773,77.7179C177.64941,230.76233,155.23437,244,128,244Zm0-208c-41.44727,0-60,46.20673-60,92s18.55273,92,60,92,60-46.20667,60-92S169.44727,36,128,36Z"/>
</svg>
