<svg id="Flat" xmlns="http://www.w3.org/2000/svg" viewBox="0 0 256 256">
  <path d="M92,84a12.00028,12.00028,0,0,1,12-12h47.99414a11.99945,11.99945,0,0,1,9.832,18.87939l-18.31933,26.18213a40.18269,40.18269,0,0,1,8.77832,6.65869,39.99694,39.99694,0,1,1-56.56348,56.565,12.0001,12.0001,0,1,1,16.9707-16.97071,15.99691,15.99691,0,1,0,11.31153-27.31006,11.99945,11.99945,0,0,1-9.832-18.87939L128.95215,96H104A12.00028,12.00028,0,0,1,92,84ZM228,48V208a20.0226,20.0226,0,0,1-20,20H48a20.0226,20.0226,0,0,1-20-20V48A20.0226,20.0226,0,0,1,48,28H208A20.0226,20.0226,0,0,1,228,48Zm-24,4H52V204H204Z"/>
</svg>
