<svg id="Flat" xmlns="http://www.w3.org/2000/svg" viewBox="0 0 256 256">
  <path d="M221.83984,63.25635l-83.999-47.478a20.10474,20.10474,0,0,0-19.68262,0l-84.001,47.47852A20.0314,20.0314,0,0,0,23.999,80.66748v94.665A20.03168,20.03168,0,0,0,34.1582,192.74365l83.999,47.478a20.10556,20.10556,0,0,0,19.68261,0l84.001-47.47852a20.03139,20.03139,0,0,0,10.1582-17.41064v-94.665A20.03166,20.03166,0,0,0,221.83984,63.25635ZM207.999,172.99854l-80,45.21728-80-45.21728V83.00146l80-45.21728,80,45.21728ZM79.999,128a48,48,0,1,0,48-48A48.05437,48.05437,0,0,0,79.999,128Zm72,0a24,24,0,1,1-24-24A24.02718,24.02718,0,0,1,151.999,128Z"/>
</svg>
