<svg id="Flat" xmlns="http://www.w3.org/2000/svg" viewBox="0 0 256 256">
  <path d="M184,148a16,16,0,1,1-16-16A16.00008,16.00008,0,0,1,184,148ZM217.21728,166.252A91.98708,91.98708,0,0,1,87.33862,226.54541a11.89374,11.89374,0,0,1-1.42285-.71338,92.21646,92.21646,0,0,1-49.27685-70.4043l-.00477-.041A92.49525,92.49525,0,0,1,35.92969,144,91.43149,91.43149,0,0,1,48.43152,97.74365,40.03675,40.03675,0,0,1,70,24a12.00314,12.00314,0,0,1,5.2168,1.19336L188.37939,79.82324A16.00062,16.00062,0,0,0,186,48a12,12,0,0,1,0-24,40,40,0,0,1,0,80,12.00314,12.00314,0,0,1-5.2168-1.19336L125.38867,76.06445A68.09566,68.09566,0,0,0,60.634,134.291l25.544-13.62354c.02575-.01416.05176-.02734.07763-.0415l36.0271-19.21436A12.00005,12.00005,0,0,1,139.92969,112v98.9375a67.81468,67.81468,0,0,0,53.99658-50.47363,11.99972,11.99972,0,1,1,23.291,5.78808ZM115.92969,132l-12,6.3999v69.21289a67.40238,67.40238,0,0,0,12,3.30518ZM54,64a15.924,15.924,0,0,0,9.34033,14.55273A92.34028,92.34028,0,0,1,91.30786,59.61182L67.6206,48.17676A16.02454,16.02454,0,0,0,54,64ZM79.92969,192.11865V151.2002l-17.90723,9.55029A68.00565,68.00565,0,0,0,79.92969,192.11865Z"/>
</svg>
