<svg xmlns="http://www.w3.org/2000/svg" viewBox="0 0 256 256"><path d="M184.1,148a16,16,0,1,1-16-16A16,16,0,0,1,184.1,148Zm33.2,18.3A91.8,91.8,0,0,1,128,236a90.9,90.9,0,0,1-40.6-9.5l-1.4-.7a92.2,92.2,0,0,1-49.3-70.4h0A85.1,85.1,0,0,1,36,144,91.9,91.9,0,0,1,48.5,97.7,40,40,0,0,1,70.1,24a11.7,11.7,0,0,1,5.2,1.2L188.4,79.8A16,16,0,0,0,186.1,48a12,12,0,0,1,0-24,40,40,0,0,1,0,80,11.7,11.7,0,0,1-5.2-1.2L125.5,76.1a68,68,0,0,0-64.8,58.2l25.5-13.6a.1.1,0,0,0,.1-.1l36.1-19.2a11.8,11.8,0,0,1,11.8.3A12.1,12.1,0,0,1,140,112v98.9a67.7,67.7,0,0,0,54-50.4,12,12,0,1,1,23.3,5.8ZM116,132l-12,6.4v69.2a60.8,60.8,0,0,0,12,3.3ZM54.1,64a16.1,16.1,0,0,0,9.3,14.6,91.3,91.3,0,0,1,28-19L67.7,48.2A16,16,0,0,0,54.1,64ZM80,192.1V151.2l-17.9,9.6A68.6,68.6,0,0,0,80,192.1Z"/></svg>