<svg id="Flat" xmlns="http://www.w3.org/2000/svg" viewBox="0 0 256 256">
  <path d="M164.45068,236H91.54932a19.86876,19.86876,0,0,1-14.14307-5.85864L25.85791,178.593A19.86815,19.86815,0,0,1,20,164.45068V91.54932a19.86876,19.86876,0,0,1,5.85864-14.14307L77.407,25.85791A19.86815,19.86815,0,0,1,91.54932,20h72.90136a19.86876,19.86876,0,0,1,14.14307,5.85864L230.14209,77.407A19.86815,19.86815,0,0,1,236,91.54932v72.90136a19.86876,19.86876,0,0,1-5.85864,14.14307L178.593,230.14209A19.86815,19.86815,0,0,1,164.45068,236ZM93.20605,212H162.794L212,162.794V93.20605L162.794,44H93.20605L44,93.20605V162.794ZM164.45068,44h0Z"/>
</svg>
