<svg id="Flat" xmlns="http://www.w3.org/2000/svg" viewBox="0 0 256 256">
  <path d="M233.43432,68.9043c-.03711-.06787-.06518-.1377-.10351-.20508-.0166-.0293-.03662-.05518-.05347-.084a19.98729,19.98729,0,0,0-7.4729-7.36816l-87.999-49.49951a20.11666,20.11666,0,0,0-19.61035-.00049l-88.001,49.50049A19.98956,19.98956,0,0,0,22.69433,68.667c-.022.03809-.04809.07227-.06958.11133-.03442.06152-.05945.126-.09265.188a19.97333,19.97333,0,0,0-2.53235,9.7124v98.64258a20.0268,20.0268,0,0,0,10.19532,17.43164l88.001,49.50049a19.96923,19.96923,0,0,0,9.00684,2.52588c.23364.01562.46484.03955.70215.0415.03613.00049.07129.00049.10742.00049.31274,0,.61987-.023.92676-.04639a19.96231,19.96231,0,0,0,8.86523-2.522l88-49.5a20.0247,20.0247,0,0,0,10.19531-17.43164V78.67871A19.98082,19.98082,0,0,0,233.43432,68.9043ZM127.99975,33.76807l71.61548,40.28369L177.09375,86.84668,104.65967,46.897Zm.89063,80.46338L56.56787,73.94824l23.4895-13.2124,72.55737,40.01758Zm-84.89063-19.812,72.88672,40.59717-.708,80.56592L43.99975,174.98145Zm96.18262,120.96.70581-80.36084,24.134-13.71093v31.20312a12,12,0,0,0,24,0V107.67285l22.97754-13.05371v80.36279Z"/>
</svg>
