<svg id="Flat" xmlns="http://www.w3.org/2000/svg" viewBox="0 0 256 256">
  <path d="M229.33618,70.92139c-.04517-.0835-.08032-.16895-.12744-.25147-.02613-.04541-.05738-.08594-.084-.13086a19.99157,19.99157,0,0,0-7.39648-7.28271l-83.999-47.478a20.10349,20.10349,0,0,0-19.68262,0l-84.001,47.47852a19.99328,19.99328,0,0,0-7.45825,7.38964c-.02295.04-.05042.07569-.073.11622-.03979.07128-.069.145-.10718.21679A19.97468,19.97468,0,0,0,23.88745,80.668V175.332a20.03247,20.03247,0,0,0,10.15918,17.41162l83.999,47.478a19.97332,19.97332,0,0,0,9.10083,2.55029c.20581.0127.40845.03565.61694.0376.043.00049.084.001.127.001.27124,0,.53711-.023.80371-.04053a19.96215,19.96215,0,0,0,9.03418-2.54834l84.001-47.47852a20.0322,20.0322,0,0,0,10.1582-17.41113V80.668A19.976,19.976,0,0,0,229.33618,70.92139ZM127.88745,37.78418l67.71972,38.27637-18.65307,10.666L108.73633,48.6084Zm.99316,76.43164L60.38086,75.93994l23.8955-13.50635,68.3606,38.19776ZM47.88745,96.45166l68.989,38.54883-.79028,76.54541L47.88745,172.99854Zm92.20166,114.86768.78784-76.31641,24.14526-13.80664v27.31445a12,12,0,0,0,24,0V107.47266l18.86524-10.78711v76.313Z"/>
</svg>
