<svg xmlns="http://www.w3.org/2000/svg" viewBox="0 0 256 256"><path d="M233.5,68.9c0-.1,0-.1-.1-.2h0a20.5,20.5,0,0,0-7.5-7.4l-88-49.5a20.1,20.1,0,0,0-19.6,0l-88,49.5a20,20,0,0,0-7.5,7.5h-.1a.3.3,0,0,1-.1.2,20,20,0,0,0-2.5,9.7v98.6a20.2,20.2,0,0,0,10.2,17.5l88,49.5a20.6,20.6,0,0,0,9,2.5h1.8a21.2,21.2,0,0,0,8.8-2.5l88-49.5a20.2,20.2,0,0,0,10.2-17.5V78.7A19.4,19.4,0,0,0,233.5,68.9ZM128.1,33.8l71.6,40.3L177.2,86.8,104.8,46.9Zm.9,80.4L56.7,73.9,80.2,60.7l72.5,40.1ZM44.1,94.4,117,135l-.7,80.6L44.1,175Zm96.2,121L141,135l24.1-13.7v31.2a12,12,0,0,0,24,0V107.7l23-13.1V175Z"/></svg>