<svg id="Flat" xmlns="http://www.w3.org/2000/svg" viewBox="0 0 256 256">
  <path d="M224.68652,124a19.86718,19.86718,0,0,0-5.8584-14.14209l-84.68652-84.688a20.02769,20.02769,0,0,0-28.28418.00147L79.99658,51.03223,58.34277,29.37842a12.0001,12.0001,0,0,0-16.9707,16.9707L63.02588,68.00293l-49.853,49.85352a19.9992,19.9992,0,0,0-.001,28.28564l84.68555,84.68652.001.00147a20.02755,20.02755,0,0,0,28.28418-.00147l92.68457-92.68506A19.87,19.87,0,0,0,224.68652,124ZM114.81543,213.84521l.01172.01124.001.00146ZM112,211.02979,32.9707,132,79.99658,84.97363l18.54785,18.54785a32.00018,32.00018,0,0,0,52.0835,35.11182v-.00049A31.99525,31.99525,0,0,0,115.5144,86.55005L96.96729,68.00293,120,44.97021,199.0293,124Zm16-103.02393a8.00025,8.00025,0,1,1-5.65723,2.34326A7.94906,7.94906,0,0,1,128,108.00586Zm104.48633,51.51025a11.99917,11.99917,0,0,0-16.97266,0C213.10645,161.92334,192,183.73682,192,208a32,32,0,0,0,64,0C256,183.73682,234.89355,161.92334,232.48633,159.51611ZM224,216a8.00917,8.00917,0,0,1-8-8c0-6.92285,3.83789-14.65186,7.99219-20.88623C228.13477,193.3418,232,201.09961,232,208A8.00917,8.00917,0,0,1,224,216Z"/>
</svg>
