<svg id="Flat" xmlns="http://www.w3.org/2000/svg" viewBox="0 0 256 256">
  <path d="M234.96484,123.48437a12.002,12.002,0,0,0-3.51464-8.48535L123.96582,7.51465a11.99973,11.99973,0,0,0-16.9707,0L69.73828,44.77148,46.34277,21.37793a12.00044,12.00044,0,0,0-16.9707,16.97168l23.395,23.39307-41.939,41.939a28.03349,28.03349,0,0,0,0,39.59766l84.85743,84.85644a27.99862,27.99862,0,0,0,39.59765.00049l96.167-96.1665A12.002,12.002,0,0,0,234.96484,123.48437ZM118.3125,211.166a3.99914,3.99914,0,0,1-5.65625-.00049L27.79883,126.30908a4.005,4.005,0,0,1,0-5.65722L69.73853,78.7124l21.77954,21.77735a36.00194,36.00194,0,0,0,57.938,40.9663v-.00048A35.99656,35.99656,0,0,0,108.48926,83.5188L86.70972,61.74121,115.48047,32.9707l90.51367,90.51367ZM124,104.00586a11.99439,11.99439,0,1,1-8.48535,3.50879A11.96281,11.96281,0,0,1,124,104.00586Zm108.48633,63.51025a11.99917,11.99917,0,0,0-16.97266,0C213.10645,169.92334,192,191.73682,192,216a32,32,0,0,0,64,0C256,191.73682,234.89355,169.92334,232.48633,167.51611ZM224,224a8.00917,8.00917,0,0,1-8-8c0-6.92285,3.83789-14.65186,7.99219-20.88623C228.13477,201.3418,232,209.09961,232,216A8.00917,8.00917,0,0,1,224,224Z"/>
</svg>
