<svg id="Flat" xmlns="http://www.w3.org/2000/svg" viewBox="0 0 256 256">
  <path d="M224.9707,19.0293c-22.31836,0-47.14355,12.08593-73.78613,35.9209-17.36133,15.53125-32.36816,33.18457-43.12891,47.09082A64.01933,64.01933,0,0,0,28,164c0,28.56445-14.31641,41.60156-15.5498,42.6709a11.80639,11.80639,0,0,0-3.94532,13.25A12.07044,12.07044,0,0,0,20,228H92a64.01976,64.01976,0,0,0,61.959-80.05615c13.90577-10.76026,31.55909-25.76807,47.09082-43.1294,23.83594-26.6416,35.9209-51.46679,35.9209-73.78515A12.00059,12.00059,0,0,0,224.9707,19.0293ZM92,204H43.28516C48.03027,194.2207,52,180.96875,52,164a40,40,0,1,1,40,40Zm38.21191-91.30908c3.01807-3.79248,6.45508-7.97315,10.23633-12.34863a80.65046,80.65046,0,0,1,15.18848,15.18115c-4.42236,3.83056-8.60156,7.273-12.33594,10.25293A64.54822,64.54822,0,0,0,130.21191,112.69092ZM173.291,99.15234a104.74491,104.74491,0,0,0-16.48047-16.47265c3.34228-3.34473,6.81006-6.65235,10.376-9.84278,15.68262-14.03027,30.42676-23.30175,43.42481-27.39941C204.85352,63.93066,189.37158,83.09717,173.291,99.15234Z"/>
</svg>
