<svg id="Flat" xmlns="http://www.w3.org/2000/svg" viewBox="0 0 256 256">
  <path d="M216,20H72A44.04978,44.04978,0,0,0,28,64v72a28.03146,28.03146,0,0,0,28,28H95.1123l-3.082,43.14551q-.03.42627-.03027.85449a36,36,0,0,0,72,0q0-.42774-.03027-.85449L160.8877,164H200a28.03146,28.03146,0,0,0,28-28V32A11.99966,11.99966,0,0,0,216,20ZM72,44h92V72a12,12,0,0,0,24,0V44h16v56H52V64A20.0226,20.0226,0,0,1,72,44Zm128,96H156.5918a19.99955,19.99955,0,0,0-19.94922,21.4248l3.352,46.93067a11.99989,11.99989,0,0,1-23.98926,0l3.35156-46.92969A19.99889,19.99889,0,0,0,99.4082,140H56a4.00427,4.00427,0,0,1-4-4V124H204v12A4.00427,4.00427,0,0,1,200,140Z"/>
</svg>
