<svg id="Flat" xmlns="http://www.w3.org/2000/svg" viewBox="0 0 256 256">
  <path d="M208,20H72A44.04978,44.04978,0,0,0,28,64v80a20.0226,20.0226,0,0,0,20,20H98.16382l-6.04321,42.30273A12.04492,12.04492,0,0,0,92,208a36,36,0,0,0,72,0,12.04492,12.04492,0,0,0-.12061-1.69727L157.83618,164H208a20.0226,20.0226,0,0,0,20-20V40A20.0226,20.0226,0,0,0,208,20ZM72,44h84V72a12,12,0,0,0,24,0V44h24v56H52V64A20.0226,20.0226,0,0,1,72,44Zm67.97949,164.708a12.00042,12.00042,0,0,1-23.959,0l6.387-44.708h11.18506ZM52,140V124H204v16Z"/>
</svg>
