<svg xmlns="http://www.w3.org/2000/svg" viewBox="0 0 256 256"><path d="M235,123.5a12.1,12.1,0,0,0-3.5-8.5L124,7.5a12,12,0,0,0-17,0L69.7,44.8,46.3,21.4A12,12,0,0,0,29.4,38.3L52.8,61.7l-42,42a28.1,28.1,0,0,0,0,39.6l84.9,84.8a28,28,0,0,0,39.6,0L231.5,132A12.3,12.3,0,0,0,235,123.5ZM118.3,211.2a4.1,4.1,0,0,1-5.6,0L27.8,126.3a4,4,0,0,1,0-5.7L69.7,78.7l21.8,21.8a36,36,0,0,0,58,41h0a36,36,0,0,0-41-57.9L86.7,61.7,115.5,33,206,123.5ZM124,104a12.2,12.2,0,0,1,8.5,3.5,12,12,0,1,1-17,0A12.2,12.2,0,0,1,124,104Zm108.5,63.5a12.1,12.1,0,0,0-17,0c-2.4,2.4-23.5,24.2-23.5,48.5a32,32,0,0,0,64,0C256,191.7,234.9,169.9,232.5,167.5ZM224,224a8,8,0,0,1-8-8c0-6.9,3.8-14.7,8-20.9,4.1,6.2,8,14,8,20.9A8,8,0,0,1,224,224Z"/></svg>