<svg xmlns="http://www.w3.org/2000/svg" viewBox="0 0 256 256"><path d="M233.5,22.5a36.2,36.2,0,0,0-51,0l-.4.5L130,81l-6.2-6.2a28.1,28.1,0,0,0-39.6,0L7.5,151.5a12,12,0,0,0,0,17l80,80a12.1,12.1,0,0,0,17,0l76.7-76.7a28.1,28.1,0,0,0,0-39.6L175,126l58-52.1.5-.4A36.2,36.2,0,0,0,233.5,22.5ZM96,223l-8.6-8.6,17.3-18.1a12,12,0,1,0-17.4-16.6L70.4,197.4l-11-11,17.3-18.1a12,12,0,1,0-17.4-16.6L42.4,169.4,33,160l39-39,63,63ZM216.7,56.3l-60.9,54.6A20,20,0,0,0,155,140l9.2,9.2a3.9,3.9,0,0,1,0,5.6L152,167,89,104l12.2-12.2a3.9,3.9,0,0,1,5.6,0L116,101a20,20,0,0,0,29.1-.8l54.6-60.9a12,12,0,0,1,17,17Z"/></svg>