<svg xmlns="http://www.w3.org/2000/svg" viewBox="0 0 256 256"><path d="M203.6,51A108,108,0,1,0,92,229.9a38.2,38.2,0,0,0,12,2,36,36,0,0,0,36-36V192a12,12,0,0,1,12-12h46.2a35.8,35.8,0,0,0,35.1-28,103.9,103.9,0,0,0,2.7-24.9A107.3,107.3,0,0,0,203.6,51Zm6.3,95.7h0a11.8,11.8,0,0,1-11.7,9.3H152a36,36,0,0,0-36,36v3.9a11.9,11.9,0,0,1-5.1,9.8,11.8,11.8,0,0,1-10.9,1.5A84,84,0,0,1,127.1,44h.9a84.3,84.3,0,0,1,84,83.3A79,79,0,0,1,209.9,146.7ZM144,76a16,16,0,1,1-16-16A16,16,0,0,1,144,76ZM96.8,110A16,16,0,1,1,91,88.1,16,16,0,0,1,96.8,110Zm0,36A16,16,0,1,1,75,140.1,16.1,16.1,0,0,1,96.8,146Zm90.1-52A16,16,0,1,1,165,88.1,16,16,0,0,1,186.9,94Z"/></svg>