<svg id="Flat" xmlns="http://www.w3.org/2000/svg" viewBox="0 0 256 256">
  <path d="M203.57422,51.03516A107.94829,107.94829,0,1,0,92.02783,229.86133,36.00178,36.00178,0,0,0,140,195.90234V192a12.01343,12.01343,0,0,1,12-12h46.20947a35.799,35.799,0,0,0,35.10547-27.98535,108.514,108.514,0,0,0,2.68115-24.93945A107.179,107.179,0,0,0,203.57422,51.03516Zm6.33838,95.65918h-.00049A11.92176,11.92176,0,0,1,198.20947,156H152a36.04061,36.04061,0,0,0-36,36v3.90234a12.00172,12.00172,0,0,1-15.98,11.32813A84.01471,84.01471,0,0,1,127.13379,44.00391q.42919-.00439.85791-.00391a84.32979,84.32979,0,0,1,84.00537,83.27637A84.50809,84.50809,0,0,1,209.9126,146.69434ZM144,76a16,16,0,1,1-16-16A16.00008,16.00008,0,0,1,144,76ZM96.8208,109.99854A15.99729,15.99729,0,1,1,90.96533,88.146,15.99745,15.99745,0,0,1,96.8208,109.99854Zm0,36.00292A15.99729,15.99729,0,1,1,74.968,140.146,15.99716,15.99716,0,0,1,96.8208,146.00146Zm90.06665-52A15.99729,15.99729,0,1,1,165.03467,88.146,15.99716,15.99716,0,0,1,186.88745,94.00146Z"/>
</svg>
