<svg xmlns="http://www.w3.org/2000/svg" viewBox="0 0 256 256"><path d="M189,145.3a31,31,0,0,1-14.9-18.7,48,48,0,0,0-92.2,0A31,31,0,0,1,67,145.3,44,44,0,0,0,88,228a45.3,45.3,0,0,0,17.1-3.4,59.6,59.6,0,0,1,45.8,0A45.3,45.3,0,0,0,168,228a44,44,0,0,0,21-82.7ZM168,204a19.1,19.1,0,0,1-7.8-1.6h-.1a83.7,83.7,0,0,0-64.2,0h-.1A19.1,19.1,0,0,1,88,204a20,20,0,0,1-9.5-37.6h.1a55.4,55.4,0,0,0,26.4-33,23.9,23.9,0,0,1,46,0,55.4,55.4,0,0,0,26.4,33h.1A20,20,0,0,1,168,204Zm64-100a24,24,0,1,1-24-24A23.9,23.9,0,0,1,232,104ZM48,128a24,24,0,1,1,24-24A23.9,23.9,0,0,1,48,128ZM72,56A24,24,0,1,1,96,80,23.9,23.9,0,0,1,72,56Zm64,0a24,24,0,1,1,24,24A23.9,23.9,0,0,1,136,56Z"/></svg>