<svg id="Flat" xmlns="http://www.w3.org/2000/svg" viewBox="0 0 256 256">
  <path d="M216.957,189.16846a108,108,0,1,0-177.91406,0c.15527.262.31055.52417.48828.77783.124.177.26709.332.39844.50024a107.91163,107.91163,0,0,0,176.14062,0c.13135-.16821.27442-.32324.39844-.50024C216.64648,189.69263,216.80176,189.43042,216.957,189.16846ZM212,128a83.45668,83.45668,0,0,1-9.041,37.83789L140,121.75293V44.87085A84.11944,84.11944,0,0,1,212,128ZM116,44.87085v76.88208l-62.959,44.085A83.9265,83.9265,0,0,1,116,44.87085ZM66.83057,185.481,116,151.05176v60.07739A83.8642,83.8642,0,0,1,66.83057,185.481ZM140,211.12915V151.05176l49.16943,34.4292A83.8642,83.8642,0,0,1,140,211.12915Z"/>
</svg>
