<svg id="Flat" xmlns="http://www.w3.org/2000/svg" viewBox="0 0 256 256">
  <path d="M214.7185,136.9126,175.50268,86.49072a12.06144,12.06144,0,0,0-.9873-1.11816A31.79122,31.79122,0,0,0,151.88745,76h-.02783a40,40,0,1,0-47.94434,0h-.02783a31.79121,31.79121,0,0,0-22.62793,9.37256,12.063,12.063,0,0,0-.98731,1.11816L41.05639,136.9126a24,24,0,0,0,33.919,33.91845l3.80371-2.958L62.88647,218.06689a24.001,24.001,0,0,0,43.47363,20.27149l21.52735-33.88184,21.52734,33.88184a24.001,24.001,0,0,0,43.47363-20.27149l-15.89257-50.19384,3.80371,2.958A24,24,0,0,0,214.7185,136.9126ZM127.88745,28a16,16,0,1,1-16,16A16.01833,16.01833,0,0,1,127.88745,28Zm68.13672,124.26807-34.7461-27.02539a12.00006,12.00006,0,0,0-18.80761,13.09423l27.73339,87.59424a12.02852,12.02852,0,0,0,.56446,1.44922,11.92762,11.92762,0,0,0-.74805-1.36426L138.01635,175.645a12.001,12.001,0,0,0-20.25781,0l-32.0039,50.37109a11.77849,11.77849,0,0,0-.748,1.36426,12.19236,12.19236,0,0,0,.56445-1.44922l27.7334-87.59424a12,12,0,0,0-18.80762-13.09423L59.75073,152.26807a11.98355,11.98355,0,0,0-1.11816.98681,12.06015,12.06015,0,0,0,.9873-1.11816L98.656,101.94678A7.93924,7.93924,0,0,1,103.88745,100h48a7.9392,7.9392,0,0,1,5.23144,1.94678L196.155,152.13672a11.98078,11.98078,0,0,0,.98632,1.11767A11.96655,11.96655,0,0,0,196.02417,152.26807Z"/>
</svg>
