<svg id="Flat" xmlns="http://www.w3.org/2000/svg" viewBox="0 0 256 256">
  <path d="M224.30713,126.4834,196.00586,69.19971V32.00293a20.0226,20.0226,0,0,0-20-20h-96a20.0226,20.0226,0,0,0-20,20V69.19971L31.7041,126.48437a11.99994,11.99994,0,0,0,1.21533,12.59083l85.54346,112.20312c.03833.05029.08362.09326.12268.14307.1875.23779.38611.46484.5907.688.08911.09717.17383.19825.26587.29249a12.14379,12.14379,0,0,0,.93835.86669c.01673.01368.03516.02491.05188.03858a12.02553,12.02553,0,0,0,.98633.7207c.09961.06543.20349.12256.30493.18506.26709.16455.53858.32129.819.46533.11707.06006.236.11475.35511.1709q.41344.19555.843.35938c.12354.04687.24658.09277.37158.13574.29249.10058.59046.187.89283.26513.12378.03223.24585.06739.37085.09522.31689.07129.63952.12451.96533.16943.11328.01612.22473.03907.33887.05176a11.42825,11.42825,0,0,0,2.65136,0c.11414-.01269.22559-.03564.33887-.05176.32581-.04492.64844-.09814.96533-.16943.125-.02783.24707-.063.37085-.09522.30237-.07812.60034-.16455.89282-.26513.125-.043.24805-.08887.37159-.13574q.43011-.16407.843-.35938c.11914-.05615.238-.11084.35511-.1709.28039-.144.55188-.30078.819-.46533.10144-.0625.20532-.11963.30493-.18506a12.02553,12.02553,0,0,0,.98633-.7207c.01672-.01367.03515-.0249.05188-.03858a12.14379,12.14379,0,0,0,.93835-.86669c.092-.09424.17676-.19532.26587-.29249.20459-.22314.4032-.45019.5907-.688.03906-.04981.08435-.09278.12268-.14307l85.543-112.2041A11.99993,11.99993,0,0,0,224.30713,126.4834ZM172.00586,36.00293v24h-88v-24Zm-44,108a12,12,0,1,1,12-12A12.01343,12.01343,0,0,1,128.00586,144.00293Zm12,64.4668V165.93848a36,36,0,1,0-24,0v42.53173L56.51758,130.44238,79.46191,84.00293H176.5498l22.94385,46.43848Z"/>
</svg>
