<svg id="Flat" xmlns="http://www.w3.org/2000/svg" viewBox="0 0 256 256">
  <path d="M232.68652,88a19.86718,19.86718,0,0,0-5.8584-14.14209L182.1416,29.17041a20.0268,20.0268,0,0,0-28.28418.001l-120.001,120.001a19.93885,19.93885,0,0,0-4.45948,6.80616c-.0332.08105-.05713.165-.08838.24707A19.976,19.976,0,0,0,28,163.31348V208a20.02229,20.02229,0,0,0,20,20H92.68652a19.98226,19.98226,0,0,0,6.7981-1.20508c.18726-.06592.37622-.125.56079-.20019a19.93594,19.93594,0,0,0,6.78271-4.45264l78.6709-78.6709,1.21192,4.84766-35.19629,35.1958a12.0001,12.0001,0,0,0,16.9707,16.9707l40-40a11.99967,11.99967,0,0,0,3.15625-11.39551l-6.35205-25.40869,21.5376-21.5376A19.87,19.87,0,0,0,232.68652,88ZM96,199.0293,56.97046,160l79.0293-79.02979L175.0293,120ZM52,188.9707,67.02954,204H52Zm140-85.9414L152.97046,64,168,48.97021,207.0293,88Z"/>
</svg>
