<svg id="Flat" xmlns="http://www.w3.org/2000/svg" viewBox="0 0 256 256">
  <path d="M232.68652,88a19.86718,19.86718,0,0,0-5.8584-14.14209L182.1416,29.17041a20.0268,20.0268,0,0,0-28.28418.001l-120.001,120.001A19.87049,19.87049,0,0,0,28,163.31348V208a20.02229,20.02229,0,0,0,20,20H92.68652a19.86559,19.86559,0,0,0,14.1416-5.85791l1.65333-1.65332.0039-.00342.00342-.0039,77.79-77.79,4.16748,13.8916-34.93164,34.93164a12.0001,12.0001,0,0,0,16.9707,16.9707l40-40a12.00124,12.00124,0,0,0,3.00879-11.93359L205.55371,123.417l21.27344-21.27344A19.87,19.87,0,0,0,232.68652,88ZM100,195.0293,60.97046,156l75.0293-75.02979L175.0293,120ZM52,180.9707,75.0293,204H52Zm140-77.9414L152.97046,64,168,48.97021,207.0293,88Z"/>
</svg>
