<svg id="Flat" xmlns="http://www.w3.org/2000/svg" viewBox="0 0 256 256">
  <path d="M222.376,99.67236A99.706,99.706,0,0,1,196,32a11.99966,11.99966,0,0,0-12-12H72A11.99966,11.99966,0,0,0,60,32,99.70807,99.70807,0,0,1,33.624,99.67285a12.00094,12.00094,0,0,0-1.24218,14.64209l85.543,132.2041c.01563.02393.03516.04444.05079.06885a12.06894,12.06894,0,0,0,.81616,1.10156c.061.07325.12866.13916.19116.21045.23633.26953.48291.5293.74243.77686.10791.10254.21851.20068.32984.29931.24292.21534.49487.41944.75488.61475.10425.07813.20556.15918.312.2334a11.96219,11.96219,0,0,0,2.40137,1.30371c.09253.03711.18725.06787.28052.103q.50427.18823,1.02758.33252c.125.03418.25025.0664.377.09668.335.08007.67529.14355,1.0205.19482.124.01856.24634.042.37134.05664a11.12729,11.12729,0,0,0,2.79932,0c.125-.01465.24731-.03808.37134-.05664.34521-.05127.68554-.11475,1.0205-.19482.12671-.03028.252-.0625.377-.09668q.52441-.14356,1.02783-.333c.09326-.03467.18774-.06543.28-.10254a11.9331,11.9331,0,0,0,2.40161-1.30371c.10645-.07422.20776-.15527.312-.2334.26-.19531.512-.39941.75488-.61475.11133-.09863.22193-.19677.32984-.29931.25952-.24756.5061-.50733.74243-.77686.0625-.07129.13013-.1372.19116-.21045a12.06894,12.06894,0,0,0,.81616-1.10156c.01563-.02441.03516-.04492.05079-.06885l85.543-132.20459A12.00094,12.00094,0,0,0,222.376,99.67236ZM128,132a12,12,0,1,1,12-12A12.01343,12.01343,0,0,1,128,132Zm12,67.36523V153.93555a36,36,0,1,0-24,0v45.42968L57.38184,108.77344A123.50158,123.50158,0,0,0,83.42285,44h89.1543a123.5,123.5,0,0,0,26.041,64.773Z"/>
</svg>
