<svg id="Flat" xmlns="http://www.w3.org/2000/svg" viewBox="0 0 256 256">
  <path d="M223.043,92.39062a99.615,99.615,0,0,1-27.042-68.39013A12.0006,12.0006,0,0,0,184.001,12H71.999a12.0006,12.0006,0,0,0-12,12.00049A99.60081,99.60081,0,0,1,32.8291,92.52637a12.00029,12.00029,0,0,0-1.458,14.5542l86.4336,139.248c.02783.04493.063.0835.09131.12793a11.99334,11.99334,0,0,0,.73388,1.02881c.03076.03858.05762.08057.08887.11865a12.0162,12.0162,0,0,0,.929,1.002c.09692.09424.19873.18115.29858.27148q.371.33618.76807.64209c.11132.085.22192.16992.33593.251q.47974.342.99219.63672c.053.03027.103.06543.15649.09521a11.97132,11.97132,0,0,0,1.27393.60694c.07324.03027.14868.05322.22241.08154q.5376.20727,1.09766.3623c.12305.03418.24609.06494.37012.09522.34228.083.68994.1499,1.043.20312.12525.019.24854.042.37476.05713A12.047,12.047,0,0,0,128,252h.00781l.02735-.00195a12.06635,12.06635,0,0,0,1.38842-.08985c.12842-.01562.25415-.03906.3816-.05859q.5266-.0791,1.03759-.20264c.125-.03027.24878-.061.37207-.0957q.564-.15673,1.10352-.36523c.07153-.02784.14453-.04981.21533-.07862a12.05891,12.05891,0,0,0,1.27295-.6084c.05835-.03222.11279-.07031.17065-.104q.50611-.29151.9795-.6294c.114-.08154.22461-.166.33593-.25146q.40027-.30688.772-.647c.0979-.08887.198-.17383.293-.26612a12.016,12.016,0,0,0,.9292-1.00439c.0354-.043.06591-.09082.10058-.13477a11.99342,11.99342,0,0,0,.72241-1.01464c.02881-.0459.0647-.08545.09326-.13135l86.29-139.40039A12.00026,12.00026,0,0,0,223.043,92.39062ZM128,124a12,12,0,1,1,12-12A12.01343,12.01343,0,0,1,128,124Zm12,73.81543V145.93555a36,36,0,1,0-24,0v51.97754l-59.5625-95.957A123.325,123.325,0,0,0,83.4248,36h89.15137a123.36,123.36,0,0,0,26.8584,65.79883Z"/>
</svg>
