<svg id="Flat" xmlns="http://www.w3.org/2000/svg" viewBox="0 0 256 256">
  <path d="M234.83447,89.86133,166.148,21.1748a20.02282,20.02282,0,0,0-28.28418,0L113.35889,45.6792,56.11328,67.14648A20.06123,20.06123,0,0,0,43.40967,82.585L20.169,222.03027c-.0149.08985-.01563.17969-.02845.26953-.04394.30811-.07751.61622-.09753.92627-.01.15332-.01782.30616-.022.459-.00806.30664-.00171.6123.01342.91846.00684.13281.00806.26611.01905.39843a12.01142,12.01142,0,0,0,.504,2.582c.03027.09668.06774.19092.10046.28711.10962.32227.23157.64112.36951.95557.05066.11523.10461.22852.15881.34229q.208.435.45312.85546c.06617.11377.13074.22754.20069.33936.17419.27783.36426.54785.56335.814.07373.09864.14148.2002.21851.29688a12.08873,12.08873,0,0,0,.8739.98584c.00879.00879.01587.019.02466.02783a11.91609,11.91609,0,0,0,.89453.80811c.26465.21679.54.41406.81811.60449.04419.03027.08533.06592.12989.0957a11.91082,11.91082,0,0,0,3.14453,1.48389l.02624.00879c.32886.09912.66175.1792.99646.249.04883.01074.09644.02588.14551.03565.30908.061.62061.102.93286.13867.07666.00879.15186.02539.22852.03271q.57513.0564,1.15307.05664l.01514.001h.00342c.35522,0,.71167-.019,1.06824-.05127.12646-.01123.25183-.03174.37793-.04687.17456-.021.34924-.03614.52356-.06495l139.4458-23.24023a20.05613,20.05613,0,0,0,15.43847-12.70508l21.46631-57.24414,24.50537-24.50488A20.02281,20.02281,0,0,0,234.83447,89.86133Zm-67.63281,99.44433L66.9646,206.01123l33.52478-33.52881a36.01361,36.01361,0,1,0-16.9707-16.96972L49.99915,189.03613,66.70361,88.80762l50.28077-18.85547,69.07226,69.07226ZM104,140a12,12,0,1,1,12,12A12.01343,12.01343,0,0,1,104,140Zm96.00586-20.96777-63.0293-63.0293,15.0293-15.0293,63.0293,63.0293Z"/>
</svg>
