<svg id="Flat" xmlns="http://www.w3.org/2000/svg" viewBox="0 0 256 256">
  <path d="M226.82861,73.85791l-44.68652-44.686a19.99919,19.99919,0,0,0-28.28418-.00049l-26.342,26.34228-.00122.001-.001.001L33.8584,149.1709a19.94269,19.94269,0,0,0-4.45264,6.7832c-.07764.18945-.13843.3833-.20593.57569A19.98442,19.98442,0,0,0,28,163.31348V208a20.0226,20.0226,0,0,0,20,20H92.68652a19.97187,19.97187,0,0,0,7.18116-1.3418c.04858-.019.09851-.0332.14685-.05273a19.94224,19.94224,0,0,0,6.81408-4.46338l93.65589-93.65576.00085-.001.00073-.001,26.34253-26.34229A20.02369,20.02369,0,0,0,226.82861,73.85791ZM96.00024,199.02979,56.9707,160,136,80.9707,175.02954,120ZM52,188.9707,67.0293,204H52Zm140.00024-85.9414L152.9707,64,168,48.9707,207.02979,88Z"/>
</svg>
