<svg id="Flat" xmlns="http://www.w3.org/2000/svg" viewBox="0 0 256 256">
  <path d="M204.36768,51.63281A107.99986,107.99986,0,0,0,51.63232,204.36719,107.99986,107.99986,0,1,0,204.36768,51.63281ZM92,184a4,4,0,0,1,8,0v23.23389a82.90517,82.90517,0,0,1-8-3.29346Zm20-22.9585a27.86354,27.86354,0,0,0-9.86865-4.35693L113.52417,132h28.95166l11.39282,24.68457A27.86354,27.86354,0,0,0,144,161.0415a27.91,27.91,0,0,0-32,0ZM156,184a4,4,0,0,1,8,0v19.94043a82.90517,82.90517,0,0,1-8,3.29346Zm-31.39893-76L128,100.63574,131.39893,108ZM124,211.90283V184a4,4,0,0,1,8,0v27.90283c-1.32825.06153-2.66138.09717-4,.09717S125.32825,211.96436,124,211.90283Zm64-25.14062V176a11.99888,11.99888,0,0,0-1.10449-5.02832l-48-104a11.99972,11.99972,0,0,0-21.791,0l-48,104A11.99888,11.99888,0,0,0,68,176v10.76221a83.99084,83.99084,0,1,1,120,0Z"/>
</svg>
