<svg id="Flat" xmlns="http://www.w3.org/2000/svg" viewBox="0 0 256 256">
  <path d="M226.82861,73.85791l-44.68652-44.686a19.99919,19.99919,0,0,0-28.28418-.00049L127.5155,55.51416l-.00085.00049-.00073.001-93.655,93.65528A19.86641,19.86641,0,0,0,28,163.31348V208a20.0226,20.0226,0,0,0,20,20H96a11.99992,11.99992,0,0,0,8.48535-3.51465L226.82861,102.14209A20.02281,20.02281,0,0,0,226.82861,73.85791ZM91.0293,204H52V164.9707l84-84L175.02954,120ZM192.00012,103.0293,152.9707,64,168,48.9707,207.02979,88Z"/>
</svg>
