<svg id="Flat" xmlns="http://www.w3.org/2000/svg" viewBox="0 0 256 256">
  <path d="M204.36768,51.63281A107.99986,107.99986,0,0,0,51.63232,204.36719,107.99986,107.99986,0,1,0,204.36768,51.63281ZM92,196a12,12,0,0,1,24,0v15.14453a83.15347,83.15347,0,0,1-24-7.2041Zm48,0a12,12,0,0,1,24,0v7.94043a83.15347,83.15347,0,0,1-24,7.2041Zm-32.01428-52h40.02856l7.4635,16.1709C154.33276,160.061,153.17346,160,152,160a35.85247,35.85247,0,0,0-24,9.1958A35.85247,35.85247,0,0,0,104,160c-1.17346,0-2.33276.061-3.47778.1709Zm11.0769-24L128,100.63574,136.93738,120ZM188,186.76221V176a11.99888,11.99888,0,0,0-1.10449-5.02832l-48-104a11.99972,11.99972,0,0,0-21.791,0l-48,104A11.99888,11.99888,0,0,0,68,176v10.76221a83.99084,83.99084,0,1,1,120,0Z"/>
</svg>
