<svg id="Flat" xmlns="http://www.w3.org/2000/svg" viewBox="0 0 256 256">
  <path d="M216,204H124.97046l75.51221-75.51221.00268-.00244.00244-.00293,26.33936-26.33935a19.99861,19.99861,0,0,0,.001-28.28516L182.1416,29.17041a20.02591,20.02591,0,0,0-28.28418.001l-120.001,120.001A19.87217,19.87217,0,0,0,28,163.31348V208a20.02229,20.02229,0,0,0,20,20H216a12,12,0,0,0,0-24ZM135.99976,80.97021,175.0293,120,100,195.0293,60.97046,156Zm32.00024-32L207.0293,88,192,103.0293,152.97046,64ZM52,180.9707,75.0293,204H52Z"/>
</svg>
