<svg id="Flat" xmlns="http://www.w3.org/2000/svg" viewBox="0 0 256 256">
  <path d="M226.82861,73.85791l-44.68652-44.686a19.99919,19.99919,0,0,0-28.28418-.00049l-26.342,26.34228-.00122.001-.001.001L35.51538,147.51416l-.00073.00049-.00061.001L33.8584,149.1709A19.86881,19.86881,0,0,0,28,163.31348V208a20.0226,20.0226,0,0,0,20,20H92.68652a19.87057,19.87057,0,0,0,14.14209-5.85791l93.65589-93.65576.00085-.001.00073-.001,26.34253-26.34229A20.02369,20.02369,0,0,0,226.82861,73.85791ZM100.00024,195.02979,60.9707,156,136,80.9707,175.02954,120ZM52,180.9707,75.02942,204H52Zm140.00024-77.9414L152.9707,64,168,48.9707,207.02979,88Z"/>
</svg>
