<svg id="Flat" xmlns="http://www.w3.org/2000/svg" viewBox="0 0 256 256">
  <path d="M208.48535,64.48535l-144,144a12.0001,12.0001,0,0,1-16.9707-16.9707l144-144a12.0001,12.0001,0,0,1,16.9707,16.9707ZM47.71582,104.28442A40.04562,40.04562,0,1,1,76,115.9812,39.73782,39.73782,0,0,1,47.71582,104.28442ZM60,76a15.98746,15.98746,0,1,0,4.68652-11.31372A15.89368,15.89368,0,0,0,60,76ZM220,180a40,40,0,1,1-11.71582-28.28442A39.73488,39.73488,0,0,1,220,180Zm-24,0a15.89271,15.89271,0,0,0-4.68652-11.31348V168.686A16.00006,16.00006,0,1,0,196,180Z"/>
</svg>
