<svg id="Flat" xmlns="http://www.w3.org/2000/svg" viewBox="0 0 256 256">
  <path d="M152,92a36,36,0,1,0-36-36A36.04061,36.04061,0,0,0,152,92Zm0-48a12,12,0,1,1-12,12A12.01312,12.01312,0,0,1,152,44Zm61.56982,108.1748.00245.00391c-1.53125.80274-9.05957,4.36524-21.90821,4.36524-1.78808,0-3.67676-.06836-5.66894-.22364-15.48828-1.20385-31.79053-7.10034-48.64453-17.563a172.72308,172.72308,0,0,1-7.86426,15.41285C153.15479,162.84729,188,183.81738,188,232a12,12,0,0,1-24,0c0-18.68652-6.9541-33.05957-21.25879-43.94043-9.15625-6.96509-19.55078-11.03491-27.42432-13.34082-1.918,2.32373-3.936,4.61938-6.07177,6.8623C89.917,201.87988,66.31738,212.42969,40.51465,212.42969q-4.80615,0-9.709-.48926a12,12,0,0,1,2.38868-23.88086c22.26074,2.2334,42.001-5.52246,58.66992-23.02832a108.69735,108.69735,0,0,0,8.93457-10.73584c.00976-.0144.02051-.02808.03076-.04248A145.46815,145.46815,0,0,0,117.333,124.5376c-15.41553-11.19263-30.17432-15.73548-43.917-13.48877a37.57242,37.57242,0,0,0-17.38038,7.41406l.10547-.0957-.00927-.00977a11.98674,11.98674,0,1,1-16.26368-17.613l-.00927-.01c1.07617-.99317,11.00049-9.80274,27.87353-13.04883,27.57422-5.3086,52.01367,8.17285,67.66162,20.41406,1.16211.9093,2.3086,1.78,3.44336,2.62512l.03125.02332c40.51026,30.149,63.59473,20.14636,63.82959,20.03906-.18115.083-.27051.13574-.27051.13574l.00245.00415a11.99542,11.99542,0,1,1,11.13964,21.2478Z"/>
</svg>
