<svg xmlns="http://www.w3.org/2000/svg" viewBox="0 0 256 256"><path d="M152,84a36,36,0,1,0-36-36A36,36,0,0,0,152,84Zm0-48a12,12,0,1,1-12,12A12,12,0,0,1,152,36Zm64,112a12,12,0,0,1-12,12c-37.2,0-55.5-19.7-70.2-35.5l-1.4-1.4-8,18.4L159,166.2a12.2,12.2,0,0,1,5,9.8v56a12,12,0,0,1-24,0V182.2l-25.4-18.1L83,236.8A12.1,12.1,0,0,1,72,244a11.8,11.8,0,0,1-4.8-1A12,12,0,0,1,61,227.2l37.5-86.4h.1l13.7-31.6c-8.1-1-18.2,2-30.3,8.9a156.7,156.7,0,0,0-29.5,22.4,12,12,0,0,1-17-17A187.4,187.4,0,0,1,70,97.3c36.1-20.7,58.1-11.7,70.1-.6,4,3.7,7.7,7.6,11.2,11.5C164.7,122.5,177.2,136,204,136A12,12,0,0,1,216,148Z"/></svg>