<svg xmlns="http://www.w3.org/2000/svg" viewBox="0 0 256 256"><path d="M214.8,136.9,175.6,86.5a5.2,5.2,0,0,0-1-1.1A31.5,31.5,0,0,0,152,76h0a40,40,0,1,0-48,0h0a31.5,31.5,0,0,0-22.6,9.4,5.2,5.2,0,0,0-1,1.1L41.2,136.9a24,24,0,0,0,33.9,33.9l3.8-2.9L63,218.1a23.5,23.5,0,0,0-.4,17.5,24,24,0,0,0,43.9,2.7L128,204.5l21.5,33.8a23.9,23.9,0,0,0,13.2,11.6,23.3,23.3,0,0,0,8.2,1.5A24,24,0,0,0,193,218.1l-15.9-50.2,3.8,2.9a24,24,0,0,0,33.9-33.9ZM128,28a16,16,0,1,1-16,16A16,16,0,0,1,128,28Zm68.1,124.3-34.7-27.1a12,12,0,0,0-18.8,13.1l27.7,87.6.6,1.5a10,10,0,0,0-.8-1.4l-32-50.4a12,12,0,0,0-20.2,0L85.9,226a10,10,0,0,0-.8,1.4l.6-1.5,27.7-87.6a11.9,11.9,0,0,0-4.6-13.4,11.3,11.3,0,0,0-6.8-2.2,12.7,12.7,0,0,0-7.4,2.5L59.9,152.3l-1.2,1,1-1.2,39.1-50.2A8.1,8.1,0,0,1,104,100h48a8.1,8.1,0,0,1,5.2,1.9l39.1,50.2,1,1.2Z"/></svg>