<svg id="Flat" xmlns="http://www.w3.org/2000/svg" viewBox="0 0 256 256">
  <path d="M127.8877,84a36,36,0,1,0-36-36A36.04062,36.04062,0,0,0,127.8877,84Zm0-48a12,12,0,1,1-12,12A12.01344,12.01344,0,0,1,127.8877,36ZM234.29,138.17383A11.99491,11.99491,0,0,1,217.82617,142.29C217.5,142.09668,185.4541,123.37305,140,120.407v27.03015l60.96875,68.59015a12.00007,12.00007,0,0,1-17.9375,15.94532L128,170.0625,72.96875,231.97266a12.00007,12.00007,0,0,1-17.9375-15.94532L116,147.43719V120.40234C70.2832,123.35205,38.51611,142.0849,38.17383,142.29A12,12,0,1,1,25.82617,121.71C27.57568,120.66016,69.35059,96,128,96s100.42432,24.66016,102.17383,25.71A12.00021,12.00021,0,0,1,234.29,138.17383Z"/>
</svg>
