<svg id="Flat" xmlns="http://www.w3.org/2000/svg" viewBox="0 0 256 256">
  <path d="M223.54785,154.751,176.709,134.67676a19.93308,19.93308,0,0,0-18.97265,1.74414L134.6377,151.82324a72.57592,72.57592,0,0,1-30.31348-30.18164l15.36621-23.47949a19.95761,19.95761,0,0,0,1.64941-18.833L101.249,32.45117A20.064,20.064,0,0,0,80.419,20.47559,60.07892,60.07892,0,0,0,28,80c0,81.60742,66.39258,148,148,148a60.07892,60.07892,0,0,0,59.52441-52.41895A20.05156,20.05156,0,0,0,223.54785,154.751ZM176,204A124.1402,124.1402,0,0,1,52,80,36.05155,36.05155,0,0,1,80.42773,44.79492L98.43555,86.8125l-15.46192,23.626a20.008,20.008,0,0,0-1.28027,19.64257,96.61717,96.61717,0,0,0,44.61914,44.417,19.99075,19.99075,0,0,0,19.70312-1.416l23.23243-15.49121,41.957,17.98145A36.05416,36.05416,0,0,1,176,204ZM148,95.99512V56a12,12,0,0,1,24,0V67.0293l27.51465-27.51465a12.0001,12.0001,0,0,1,16.9707,16.9707L188.9707,84H200a12,12,0,0,1,0,24H160c-.395,0-.79-.021-1.18408-.05957-.17822-.01758-.35108-.05127-.52686-.07617-.21142-.03028-.42383-.05518-.63379-.09668-.1997-.04-.39306-.09473-.58886-.144-.18409-.04639-.36914-.08643-.55127-.14161-.18994-.05761-.374-.12939-.56006-.1958-.1836-.06592-.36817-.12646-.54883-.20117-.17236-.07129-.3374-.15527-.50586-.23437-.187-.08789-.37549-.17139-.55859-.26954-.15918-.085-.31006-.18212-.46485-.27441-.18164-.1084-.36572-.21094-.54248-.33008-.166-.11084-.32226-.23486-.48193-.354-.1543-.11475-.31152-.22168-.46094-.34473-.27246-.22363-.53222-.46191-.78418-.70849-.02978-.0293-.063-.0542-.09277-.084s-.0542-.0625-.083-.09228c-.24707-.252-.48584-.51172-.71-.78467-.12354-.15039-.23145-.30908-.34668-.46387-.11816-.15869-.24121-.31348-.35156-.478-.12012-.18017-.2251-.3667-.335-.55127-.08985-.15185-.18555-.2998-.269-.456-.10009-.18652-.18505-.37842-.27441-.56885-.07715-.16455-.15967-.32617-.22949-.49463-.07666-.18554-.13916-.375-.20606-.56347-.06494-.18164-.13476-.35987-.19092-.54541-.05712-.189-.0996-.38135-.14746-.57325-.04687-.188-.10009-.374-.13818-.56543-.04395-.22168-.07031-.44482-.10156-.668-.02344-.165-.05518-.32666-.07129-.49366C148.021,96.79,148,96.39258,148,95.99512Z"/>
</svg>
