<svg id="Flat" xmlns="http://www.w3.org/2000/svg" viewBox="0 0 256 256">
  <path d="M232.65234,87.34766c-57.7041-57.70411-151.59863-57.70411-209.30468,0a60.08051,60.08051,0,0,0-5.02344,79.1582,20.049,20.049,0,0,0,23.19824,6.25879l47.31445-18.92578a19.9393,19.9393,0,0,0,12.18262-14.64942L106.46,111.96582a72.558,72.558,0,0,1,42.77734-.09375l5.73731,27.47168A19.954,19.954,0,0,0,167.124,153.82324l47.35352,18.94141a20.044,20.044,0,0,0,23.19824-6.26074A60.07807,60.07807,0,0,0,232.65234,87.34766Zm-12.17871,61.96679-42.44531-16.97851-5.77148-27.63672a20.00705,20.00705,0,0,0-12.98633-14.79688,96.62728,96.62728,0,0,0-62.95508.14258,20.0003,20.0003,0,0,0-12.93359,14.93457l-5.47266,27.38184L35.52637,149.31445a36.0551,36.0551,0,0,1,4.792-44.99609,124.14129,124.14129,0,0,1,175.36328,0A36.0528,36.0528,0,0,1,220.47363,149.31445ZM228,200a12.0006,12.0006,0,0,1-12,12H40a12,12,0,0,1,0-24H216A12.0006,12.0006,0,0,1,228,200Z"/>
</svg>
