<svg id="Flat" xmlns="http://www.w3.org/2000/svg" viewBox="0 0 256 256">
  <path d="M176,228C94.39258,228,28,161.60742,28,80A60.07892,60.07892,0,0,1,80.419,20.47559,20.0627,20.0627,0,0,1,101.249,32.45117L121.33984,79.3291a19.95761,19.95761,0,0,1-1.64941,18.833L104.32422,121.6416a72.57592,72.57592,0,0,0,30.31348,30.18164l23.09863-15.40234a19.93572,19.93572,0,0,1,18.97265-1.74414L223.54785,154.751a20.05156,20.05156,0,0,1,11.97656,20.83007A60.07892,60.07892,0,0,1,176,228ZM80.42773,44.79492A36.05155,36.05155,0,0,0,52,80,124.1402,124.1402,0,0,0,176,204a36.05416,36.05416,0,0,0,35.20508-28.42773l-41.957-17.98145L146.01562,173.082a19.98831,19.98831,0,0,1-19.70312,1.416,96.61717,96.61717,0,0,1-44.61914-44.417,20.008,20.008,0,0,1,1.28027-19.64257l15.46192-23.626Zm56.31836,108.08985h0Z"/>
</svg>
