<svg xmlns="http://www.w3.org/2000/svg" viewBox="0 0 256 256"><path d="M176,228C94.4,228,28,161.6,28,80A60,60,0,0,1,80.4,20.5a19.9,19.9,0,0,1,20.8,12l20.1,46.8a19.9,19.9,0,0,1-1.6,18.9l-15.4,23.4a72.3,72.3,0,0,0,30.3,30.2l23.1-15.4a20.1,20.1,0,0,1,19-1.7l46.8,20.1a19.9,19.9,0,0,1,12,20.8A60,60,0,0,1,176,228ZM80.4,44.8A36,36,0,0,0,52,80,124.1,124.1,0,0,0,176,204a36,36,0,0,0,35.2-28.4l-42-18L146,173.1a20.1,20.1,0,0,1-19.7,1.4,96.5,96.5,0,0,1-44.6-44.4A19.8,19.8,0,0,1,83,110.4L98.4,86.8Zm56.3,108.1h0Z"/></svg>