<svg id="Flat" xmlns="http://www.w3.org/2000/svg" viewBox="0 0 256 256">
  <path d="M123.81689,105.55957l-.03906-.043L92.75488,71.39111c-.02539-.02881-.05176-.05664-.07763-.085L56.87891,31.92773A11.99986,11.99986,0,0,0,39.12109,48.07227L63.41162,74.792a146.94915,146.94915,0,0,0-40.064,28.55567,60.07926,60.07926,0,0,0-5.02246,79.1582,20.04754,20.04754,0,0,0,23.19726,6.25879l47.31445-18.92578a19.9393,19.9393,0,0,0,12.18262-14.64942L106.46,127.96582c1.395-.43506,2.80811-.81738,4.23-1.168l88.43115,97.27442a11.99986,11.99986,0,0,0,17.75782-16.14454ZM83.38184,120.97949l-5.47266,27.38184L35.52637,165.31445a36.05523,36.05523,0,0,1,4.792-44.99609A122.827,122.827,0,0,1,80.3916,93.46973l12.74854,14.02343A20.06092,20.06092,0,0,0,83.38184,120.97949Zm154.29394,61.52442a20.04673,20.04673,0,0,1-23.19824,6.26074l-4.04981-1.62012a12.00038,12.00038,0,1,1,8.916-22.2832l1.12988.45312a36.0528,36.0528,0,0,0-4.792-44.99609,124.19463,124.19463,0,0,0-94.501-36.13184,12.00032,12.00032,0,1,1-1.31054-23.96484,148.27632,148.27632,0,0,1,112.78222,43.126A60.07807,60.07807,0,0,1,237.67578,182.50391Z"/>
</svg>
