<svg xmlns="http://www.w3.org/2000/svg" viewBox="0 0 256 256"><path d="M147.8,36.9a12,12,0,0,1,14.7-8.5,92.3,92.3,0,0,1,65.1,65.1,12,12,0,0,1-8.5,14.7,11,11,0,0,1-3.1.4,12.1,12.1,0,0,1-11.6-8.9,68,68,0,0,0-48.1-48.1A12,12,0,0,1,147.8,36.9Zm87.7,138.7A60,60,0,0,1,176,228C94.4,228,28,161.6,28,80A60,60,0,0,1,80.4,20.5a19.9,19.9,0,0,1,20.8,12l20.1,46.8a19.9,19.9,0,0,1-1.6,18.9l-15.4,23.4a72.3,72.3,0,0,0,30.3,30.2l23.1-15.4a20.1,20.1,0,0,1,19-1.7l46.8,20.1A19.9,19.9,0,0,1,235.5,175.6Zm-24.3,0-42-18L146,173.1a20.1,20.1,0,0,1-19.7,1.4,96.5,96.5,0,0,1-44.6-44.4A19.8,19.8,0,0,1,83,110.4L98.4,86.8l-18-42A36,36,0,0,0,52,80,124.1,124.1,0,0,0,176,204,36,36,0,0,0,211.2,175.6ZM145.6,89.5a31.7,31.7,0,0,1,20.9,20.9,12.1,12.1,0,0,0,11.5,8.4,11.3,11.3,0,0,0,3.6-.6,11.9,11.9,0,0,0,7.8-15,55.8,55.8,0,0,0-36.6-36.6,12,12,0,0,0-7.2,22.9Z"/></svg>