<svg xmlns="http://www.w3.org/2000/svg" viewBox="0 0 256 256"><path d="M232.7,87.3a148.3,148.3,0,0,0-209.4,0,60.2,60.2,0,0,0-5,79.2,20,20,0,0,0,15.8,7.7,21.1,21.1,0,0,0,7.4-1.4l47.3-19A19.9,19.9,0,0,0,101,139.2l5.5-27.2a71.5,71.5,0,0,1,42.7-.1l5.8,27.4a19.8,19.8,0,0,0,12.1,14.5l47.4,19a20,20,0,0,0,23.2-6.3A60.2,60.2,0,0,0,232.7,87.3Zm-12.2,62-42.5-17-5.7-27.6a20.3,20.3,0,0,0-13-14.8,97.1,97.1,0,0,0-63,.1,20.1,20.1,0,0,0-12.9,15l-5.5,27.4L35.5,149.3a36.1,36.1,0,0,1,4.8-45,124.3,124.3,0,0,1,175.4,0A36.1,36.1,0,0,1,220.5,149.3ZM228,200a12,12,0,0,1-12,12H40a12,12,0,0,1,0-24H216A12,12,0,0,1,228,200Z"/></svg>