<svg xmlns="http://www.w3.org/2000/svg" viewBox="0 0 256 256"><path d="M123.8,105.6h0l-31-34.1a.1.1,0,0,1-.1-.1L56.9,31.9A12,12,0,0,0,39.1,48.1L63.4,74.8a147.4,147.4,0,0,0-40.1,28.5,60.2,60.2,0,0,0-5,79.2,20,20,0,0,0,15.8,7.7,21.1,21.1,0,0,0,7.4-1.4l47.3-19A19.9,19.9,0,0,0,101,155.2l5.5-27.2a33.1,33.1,0,0,1,4.2-1.2l88.4,97.3a12.1,12.1,0,0,0,17,.8,12.1,12.1,0,0,0,.8-17ZM83.4,121l-5.5,27.4L35.5,165.3a36.1,36.1,0,0,1,4.8-45A123.8,123.8,0,0,1,80.4,93.5l12.7,14A20,20,0,0,0,83.4,121Zm154.3,61.5a22.4,22.4,0,0,1-4.5,4.2,12,12,0,0,1-14.1-19.4,36.1,36.1,0,0,0-3.4-47A124.1,124.1,0,0,0,130.9,84a12,12,0,0,1,.3-24h.3a147.7,147.7,0,0,1,101.2,43.3A60.2,60.2,0,0,1,237.7,182.5Z"/></svg>