<svg xmlns="http://www.w3.org/2000/svg" viewBox="0 0 256 256"><path d="M223.5,154.8l-46.8-20.1a20.1,20.1,0,0,0-19,1.7l-23.1,15.4a72.3,72.3,0,0,1-30.3-30.2l15.4-23.4a19.9,19.9,0,0,0,1.6-18.9L101.2,32.5a19.9,19.9,0,0,0-20.8-12A60,60,0,0,0,28,80c0,81.6,66.4,148,148,148a60,60,0,0,0,59.5-52.4A19.9,19.9,0,0,0,223.5,154.8ZM176,204A124.1,124.1,0,0,1,52,80,36,36,0,0,1,80.4,44.8l18,42L83,110.4a19.8,19.8,0,0,0-1.3,19.7,96.5,96.5,0,0,0,44.6,44.4,20.1,20.1,0,0,0,19.7-1.4l23.2-15.5,42,18A36,36,0,0,1,176,204ZM148,96V56a12,12,0,0,1,24,0V67l27.5-27.5a12,12,0,0,1,17,17L189,84h11a12,12,0,0,1,0,24H157.7l-.6-.2h-.6l-.5-.2-.6-.2-.5-.2-.6-.3-.4-.3-.6-.3-.4-.4-.5-.3-.8-.7h-.2l-.7-.8-.3-.5-.4-.4-.3-.6-.3-.4-.3-.6c0-.2-.1-.3-.2-.5s-.1-.4-.2-.6-.1-.3-.2-.5-.1-.4-.1-.6-.1-.4-.2-.6a1.3,1.3,0,0,0-.1-.6v-.5A4.9,4.9,0,0,1,148,96Z"/></svg>