<svg id="Flat" xmlns="http://www.w3.org/2000/svg" viewBox="0 0 256 256">
  <path d="M223.54785,154.751,176.709,134.67676a19.93311,19.93311,0,0,0-18.97265,1.74414L134.6377,151.82324a72.57592,72.57592,0,0,1-30.31348-30.18164l15.36621-23.47949a19.95761,19.95761,0,0,0,1.64941-18.833L101.249,32.45117A20.06526,20.06526,0,0,0,80.419,20.47559,60.07892,60.07892,0,0,0,28,80c0,81.60742,66.39258,148,148,148a60.07892,60.07892,0,0,0,59.52441-52.41895A20.05156,20.05156,0,0,0,223.54785,154.751ZM176,204A124.1402,124.1402,0,0,1,52,80,36.05155,36.05155,0,0,1,80.42773,44.79492L98.43555,86.8125l-15.46192,23.626a20.008,20.008,0,0,0-1.28027,19.64257,96.61717,96.61717,0,0,0,44.61914,44.417,19.98831,19.98831,0,0,0,19.70312-1.416l23.23243-15.49121,41.957,17.98145A36.05416,36.05416,0,0,1,176,204ZM151.51465,87.51465,167.0293,72,151.51465,56.48535a12.0001,12.0001,0,0,1,16.9707-16.9707L184,55.0293l15.51465-15.51465a12.0001,12.0001,0,0,1,16.9707,16.9707L200.9707,72l15.51465,15.51465a12.0001,12.0001,0,0,1-16.9707,16.9707L184,88.9707l-15.51465,15.51465a12.0001,12.0001,0,0,1-16.9707-16.9707Z"/>
</svg>
