<svg id="Flat" xmlns="http://www.w3.org/2000/svg" viewBox="0 0 256 256">
  <path d="M223.54785,154.751,176.709,134.67676a19.93572,19.93572,0,0,0-18.97265,1.74414L134.6377,151.82324a72.57592,72.57592,0,0,1-30.31348-30.18164l15.36621-23.47949a19.95761,19.95761,0,0,0,1.64941-18.833L101.249,32.45117A20.0627,20.0627,0,0,0,80.419,20.47559,60.07892,60.07892,0,0,0,28,80c0,81.60742,66.39258,148,148,148a60.07892,60.07892,0,0,0,59.52441-52.41895A20.05156,20.05156,0,0,0,223.54785,154.751ZM176,204A124.1402,124.1402,0,0,1,52,80,36.05155,36.05155,0,0,1,80.42773,44.79492L98.43555,86.8125l-15.46192,23.626a20.008,20.008,0,0,0-1.28027,19.64257,96.61717,96.61717,0,0,0,44.61914,44.417,19.98831,19.98831,0,0,0,19.70312-1.416l23.23243-15.49121,41.957,17.98145A36.05416,36.05416,0,0,1,176,204Zm-24.48535-99.51465a11.99973,11.99973,0,0,1,0-16.9707L179.0293,60H168a12,12,0,0,1,0-24h40c.06006,0,.11816.0083.17822.00879.334.00488.668.01807,1.00049.05078.19678.019.38818.05518.582.084.19385.02833.38819.0503.58057.08838.21.04151.41406.09912.62012.15137.17334.04443.34765.082.51953.13379.19824.06006.39013.13428.58447.20459.17529.063.35205.12061.52539.19189.17822.07422.34961.16065.52344.24317.18164.08545.36426.166.54248.26123.16162.08642.31494.18555.47217.27881.17968.10693.36132.209.53662.32617.16748.1123.32422.23682.48535.35693.15283.11377.30908.22022.45752.3418.273.22412.5332.46289.78515.71.02979.0293.0625.05371.0918.083.02979.02978.0542.0625.083.09228.24707.252.48584.51172.71.78467.12354.15039.23145.30908.34668.46387.11816.15869.24121.31348.35156.478.12012.18017.2251.3667.335.55127.08985.15185.18555.2998.269.456.09961.18555.18408.377.273.56689.07812.16553.16064.32764.231.49708.07666.18505.13867.374.20557.56152.06494.18164.13476.36084.19141.54639.05712.18945.0996.38183.14746.57373.04687.188.10009.374.13818.56543.04395.22168.07031.44482.10156.668.02344.165.05518.32666.07129.49366.03906.39648.06006.79394.06006,1.1914V88a12,12,0,0,1-24,0V76.9707l-27.51465,27.51465a12.00033,12.00033,0,0,1-16.9707,0Z"/>
</svg>
