<svg id="Flat" xmlns="http://www.w3.org/2000/svg" viewBox="0 0 256 256">
  <path d="M123.81689,105.55957l-.03906-.043L92.75488,71.39111c-.02539-.02881-.05176-.05664-.07763-.085L56.87891,31.92773A11.99986,11.99986,0,0,0,39.12109,48.07227L63.41162,74.792a146.94915,146.94915,0,0,0-40.064,28.55567,60.07926,60.07926,0,0,0-5.02246,79.1582,20.04754,20.04754,0,0,0,23.19726,6.25879l47.31445-18.92578a19.9393,19.9393,0,0,0,12.18262-14.64942L106.46,127.96582c1.395-.43506,2.80811-.81738,4.23-1.168l88.43115,97.27442a11.99986,11.99986,0,0,0,17.75782-16.14454ZM83.38184,120.97949l-5.47266,27.38184L35.52637,165.31445a36.05523,36.05523,0,0,1,4.792-44.99609A122.827,122.827,0,0,1,80.3916,93.46973l12.74854,14.02343A20.06092,20.06092,0,0,0,83.38184,120.97949Zm154.29394,61.52442a19.73192,19.73192,0,0,1-4.46973,4.21093,11.9999,11.9999,0,0,1-14.15039-19.37011,36.03908,36.03908,0,0,0-3.374-47.02637,123.44449,123.44449,0,0,0-84.77637-36.28418,12.00016,12.00016,0,0,1,.27344-23.99707c.0957,0,.18945.001.28516.00293a147.34163,147.34163,0,0,1,101.18847,43.30762A60.07807,60.07807,0,0,1,237.67578,182.50391Z"/>
</svg>
