<svg id="Flat" xmlns="http://www.w3.org/2000/svg" viewBox="0 0 256 256">
  <path d="M147.82422,36.90137a12.00205,12.00205,0,0,1,14.6914-8.49414,92.17325,92.17325,0,0,1,65.07715,65.07715,11.99974,11.99974,0,1,1-23.18554,6.19726,68.11134,68.11134,0,0,0-48.08887-48.08887A11.99931,11.99931,0,0,1,147.82422,36.90137Zm87.70019,138.67968A60.07892,60.07892,0,0,1,176,228C94.39258,228,28,161.60742,28,80A60.07892,60.07892,0,0,1,80.419,20.47559,20.06526,20.06526,0,0,1,101.249,32.45117L121.33984,79.3291a19.95761,19.95761,0,0,1-1.64941,18.833L104.32422,121.6416a72.57592,72.57592,0,0,0,30.31348,30.18164l23.09863-15.40234a19.93837,19.93837,0,0,1,18.97265-1.74414L223.54785,154.751A20.05156,20.05156,0,0,1,235.52441,175.58105Zm-24.31933-.00878-41.957-17.98145L146.01562,173.082a19.98589,19.98589,0,0,1-19.70312,1.416,96.61717,96.61717,0,0,1-44.61914-44.417,20.008,20.008,0,0,1,1.28027-19.64257l15.46192-23.626L80.42773,44.79492A36.05155,36.05155,0,0,0,52,80,124.1402,124.1402,0,0,0,176,204,36.05416,36.05416,0,0,0,211.20508,175.57227ZM145.626,89.46973A32.00819,32.00819,0,0,1,166.53027,110.374a12.00012,12.00012,0,1,0,22.89258-7.207A56.0304,56.0304,0,0,0,152.833,66.57715a12.00012,12.00012,0,1,0-7.207,22.89258Z"/>
</svg>
