<svg id="Flat" xmlns="http://www.w3.org/2000/svg" viewBox="0 0 256 256.00004">
  <path d="M220,98a78.08843,78.08843,0,0,0-78-78H68c-.09277,0-.18311.01184-.27539.01392-.25732.00567-.51367.01648-.771.03894-.15771.01367-.31347.03345-.46923.05316-.22706.02893-.45362.06152-.67969.10376-.188.03479-.37256.07654-.55713.11993-.187.04432-.37354.09015-.55957.14386-.21924.06281-.43311.1341-.647.20887-.1504.05291-.30079.1054-.4502.16473-.23926.0946-.47217.19934-.70312.30853-.08448.03968-.17041.06958-.25391.11139-.0459.02283-.08691.05115-.13184.07447-.22265.115-.438.23986-.65185.368-.1377.082-.27686.16205-.40967.2489-.17383.11383-.34082.23651-.5083.359-.15967.11633-.3208.23089-.47315.35406-.12695.1026-.24658.21277-.36914.32037-.1748.15339-.35058.30579-.51464.468-.09913.09778-.19092.2024-.28663.30365-.16992.17957-.33984.3584-.49707.54706-.09668.11542-.18408.23792-.27588.35693-.14013.18134-.28222.361-.41113.54944-.1084.15808-.20556.3241-.30664.48755-.09717.15808-.19922.31342-.28857.47553-.11377.20422-.21338.41632-.31494.62762-.063.1311-.13135.25946-.18946.39264-.10009.22888-.18554.46484-.27148.70093-.0459.127-.09717.252-.13916.38043-.07276.22314-.13135.45172-.19092.68042-.04053.15393-.085.30646-.11914.46191-.04248.19532-.07373.39429-.10693.593-.0337.20075-.06836.40082-.0918.60339-.01856.16114-.02832.32441-.04053.48737-.01855.24555-.03369.49091-.03711.738C56.00732,31.89775,56,31.948,56,32V164a78.08842,78.08842,0,0,0,78,78,12,12,0,0,0,12-12v-54.1015A78.09838,78.09838,0,0,0,220,98ZM80,82.83305,114.5835,152H80Zm42,30.334L87.4165,44H122ZM81.3501,176H122v40.65625A54.17953,54.17953,0,0,1,81.3501,176ZM146,151.83616V44.16392a53.98328,53.98328,0,0,1,0,107.67224Z"/>
</svg>
