<svg id="Flat" xmlns="http://www.w3.org/2000/svg" viewBox="0 0 256 256">
  <path d="M216.48535,39.51465a57.25505,57.25505,0,0,0-80.9707,0l-96,96a57.25493,57.25493,0,0,0,80.9707,80.9707l96-96A57.32061,57.32061,0,0,0,216.48535,39.51465Zm-112.9707,160a33.25474,33.25474,0,0,1-47.0293-47.0293L96,112.9707,143.0293,160Zm96-96L160,143.0293,112.9707,96l39.51465-39.51465a33.25474,33.25474,0,1,1,47.0293,47.0293Zm-14.32617-23.291a12.0003,12.0003,0,0,1-.44141,16.96485l-16.416,15.584a12,12,0,0,1-16.52343-17.40625l16.416-15.584A12.00072,12.00072,0,0,1,185.18848,80.22363Z"/>
</svg>
