<svg id="Flat" xmlns="http://www.w3.org/2000/svg" viewBox="0 0 256 256">
  <path d="M242.68359,82.13477a20.03918,20.03918,0,0,0-5.26562-27.0293A188.07133,188.07133,0,0,0,18.58154,55.106a20.03885,20.03885,0,0,0-5.26513,27.02881h0l65.41406,102.793c.02539.04151.05176.08252.07812.12354L111.127,235.83643a19.99944,19.99944,0,0,0,33.7461,0l24.67675-38.7771c.02247-.0354.04541-.07007.06739-.10572ZM152,164a15.96339,15.96339,0,0,1,19.99268-15.48315l-16.33789,25.67407A15.977,15.977,0,0,1,152,164ZM128,44a162.82048,162.82048,0,0,1,92.3833,28.47461l-8.605,13.522a147.99367,147.99367,0,0,0-167.55664-.00024l-8.605-13.52173A162.81684,162.81684,0,0,1,128,44ZM92.54248,161.92969,76.32031,136.43726a15.99207,15.99207,0,0,1,16.22217,25.49243Zm13.18115,20.71289a39.98219,39.98219,0,0,0-42.56787-66.89234l-6.042-9.49438a124.0158,124.0158,0,0,1,141.77246.00024L185.126,127.87866a40,40,0,0,0-42.61866,66.97241L128,217.64844Z"/>
</svg>
