<svg xmlns="http://www.w3.org/2000/svg" viewBox="0 0 256 256"><path d="M242.7,82.1a20,20,0,0,0-5.3-27,188,188,0,0,0-218.8,0,20,20,0,0,0-5.3,27h0L78.7,184.9v.2l32.3,50.7a20,20,0,0,0,33.8,0l24.6-38.7h.1ZM152,164a16,16,0,0,1,16-16,17.5,17.5,0,0,1,4,.5l-16.3,25.7A15.6,15.6,0,0,1,152,164ZM128,44a162.6,162.6,0,0,1,92.4,28.5L211.8,86A148,148,0,0,0,44.2,86L35.6,72.5A162.6,162.6,0,0,1,128,44ZM92.5,161.9,76.3,136.4A22.1,22.1,0,0,1,80,136a16,16,0,0,1,16,16A15.7,15.7,0,0,1,92.5,161.9Zm13.2,20.7A40,40,0,0,0,80,112a38.6,38.6,0,0,0-16.8,3.8l-6.1-9.5a123.9,123.9,0,0,1,141.8,0l-13.8,21.6a40,40,0,0,0-42.6,67L128,217.6Z"/></svg>