<svg id="Flat" xmlns="http://www.w3.org/2000/svg" viewBox="0 0 256 256">
  <path d="M249.24365,58c-6.39551-11.07666-23.34765-21.39941-67.501-9.509A95.957,95.957,0,0,0,32,128c0,2.29175.08594,4.56348.24512,6.81543C-.10254,167.09155.36328,186.92676,6.75635,198c6.438,11.15039,19.36084,14.74023,33.33349,14.74023a123.07143,123.07143,0,0,0,26.2959-3.28125c2.56641-.57592,5.19824-1.24169,7.8628-1.95581A95.95712,95.95712,0,0,0,224,128c0-2.29517-.08643-4.57031-.24561-6.82544,1.94092-1.94141,3.82422-3.87866,5.59815-5.80444C244.21826,99.22949,259.73633,76.1748,249.24365,58ZM128,56a72.11058,72.11058,0,0,1,70.25244,56.28882c-15.25439,13.67163-34.65576,27.491-56.25244,39.95923C120.41553,164.71,98.75879,174.59888,79.30029,180.97437A71.96032,71.96032,0,0,1,128,56ZM27.541,186c-1.02149-1.769.65478-9.644,11.19433-22.67383A96.0311,96.0311,0,0,0,52.834,187.64575C34.75635,190.53247,28.21484,187.1665,27.541,186ZM128,200a71.72235,71.72235,0,0,1-21.8291-3.39233A393.35923,393.35923,0,0,0,154,173.0332a393.41345,393.41345,0,0,0,44.32373-29.6289A72.11331,72.11331,0,0,1,128,200ZM217.27051,92.68774a96.03885,96.03885,0,0,0-14.09522-24.322C219.76465,65.74,227.43652,68.23,228.459,70,229.13232,71.16626,228.77881,78.50146,217.27051,92.68774Z"/>
</svg>
