<svg id="Flat" xmlns="http://www.w3.org/2000/svg" viewBox="0 0 256 256">
  <path d="M28,64A12.00028,12.00028,0,0,1,40,52H216a12,12,0,0,1,0,24H40A12.00028,12.00028,0,0,1,28,64Zm12,76H160a12,12,0,0,0,0-24H40a12,12,0,0,0,0,24Zm72,40H40a12,12,0,0,0,0,24h72a12,12,0,0,0,0-24Zm139.49414-52.55176a12.00068,12.00068,0,0,1-14.94238,8.0459L212,128.12842V192a36.01823,36.01823,0,1,1-24-33.93579V112a12.00045,12.00045,0,0,1,15.44824-11.49414l40,12A12.00074,12.00074,0,0,1,251.49414,127.44824ZM188,192a12,12,0,1,0-12,12A12.01343,12.01343,0,0,0,188,192Z"/>
</svg>
