<svg xmlns="http://www.w3.org/2000/svg" viewBox="0 0 256 256"><path d="M240.5,15.5a12,12,0,0,0-17,0L200,39l-2.5-2.5a36,36,0,0,0-51,0L124,59.1a12,12,0,0,0-16.5,17.4l72,72a12.1,12.1,0,0,0,17,0,12,12,0,0,0,.4-16.5l22.6-22.5a36,36,0,0,0,0-51L217,56l23.5-23.5A12,12,0,0,0,240.5,15.5Zm-38,77L180,115,141,76l22.5-22.5a11.8,11.8,0,0,1,17,0l22,22a11.8,11.8,0,0,1,0,17Zm-54,47a12,12,0,0,0-17,0L120,151l-15-15,11.5-11.5a12,12,0,0,0-17-17L88,119,76.5,107.5A12,12,0,0,0,59.1,124L36.5,146.5a36,36,0,0,0,0,51L39,200,15.5,223.5a12,12,0,0,0,0,17,12.1,12.1,0,0,0,17,0L56,217l2.5,2.5a36,36,0,0,0,51,0L132,196.9a11.7,11.7,0,0,0,8,3.1,12.2,12.2,0,0,0,8.5-3.5,12,12,0,0,0,0-17L137,168l11.5-11.5A12,12,0,0,0,148.5,139.5Zm-56,63a11.8,11.8,0,0,1-17,0l-22-22a11.8,11.8,0,0,1,0-17L76,141l39,39Z"/></svg>