<svg xmlns="http://www.w3.org/2000/svg" viewBox="0 0 256 256"><path d="M240.5,63.5a12,12,0,0,0-17,0L192,95,161,64l31.5-31.5a12,12,0,0,0-17-17L144,47,120.5,23.5a12,12,0,0,0-17,17L107,44,58.1,92.9a44.1,44.1,0,0,0,0,62.2L71,168,23.5,215.5a12,12,0,0,0,0,17,12.1,12.1,0,0,0,17,0L88,185l12.9,12.9a44.2,44.2,0,0,0,62.2,0L212,149l3.5,3.5a12.1,12.1,0,0,0,17,0,12,12,0,0,0,0-17L209,112l31.5-31.5A12,12,0,0,0,240.5,63.5ZM146.1,180.9a19.9,19.9,0,0,1-28.2,0L75.1,138.1a19.9,19.9,0,0,1,0-28.2L124,61l71,71Z"/></svg>