<svg id="Flat" xmlns="http://www.w3.org/2000/svg" viewBox="0 0 256 256">
  <path d="M205.20166,203.44116a107.7965,107.7965,0,0,0,0-150.88232,12.00633,12.00633,0,0,0-1.76025-1.76038,107.79681,107.79681,0,0,0-150.88282,0,12.00633,12.00633,0,0,0-1.76025,1.76038,107.7965,107.7965,0,0,0,0,150.88232,11.995,11.995,0,0,0,1.76074,1.76062,107.79621,107.79621,0,0,0,150.88184,0,11.995,11.995,0,0,0,1.76074-1.76062ZM44.87109,140H61.082a67.61427,67.61427,0,0,0,11.13233,26.81506l-11.46387,11.4635A83.5789,83.5789,0,0,1,44.87109,140Zm15.8794-62.27856,11.46387,11.4635A67.61427,67.61427,0,0,0,61.082,116H44.87109A83.5789,83.5789,0,0,1,60.75049,77.72144ZM211.12891,116H194.918a67.61427,67.61427,0,0,0-11.13233-26.81506l11.46387-11.4635A83.5789,83.5789,0,0,1,211.12891,116ZM128,172a44,44,0,1,1,44-44A44.04978,44.04978,0,0,1,128,172Zm38.81494-99.78577A67.61707,67.61707,0,0,0,140,61.08191V44.87085a83.57839,83.57839,0,0,1,38.27881,15.87988ZM116,61.08191A67.61707,67.61707,0,0,0,89.18506,72.21423L77.72119,60.75073A83.57839,83.57839,0,0,1,116,44.87085ZM89.18506,183.78577A67.61707,67.61707,0,0,0,116,194.91809v16.21106a83.57839,83.57839,0,0,1-38.27881-15.87988ZM140,194.91809a67.61707,67.61707,0,0,0,26.81494-11.13232l11.46387,11.4635A83.57839,83.57839,0,0,1,140,211.12915Zm43.78564-28.103A67.61427,67.61427,0,0,0,194.918,140h16.21094a83.5789,83.5789,0,0,1-15.8794,38.27856Z"/>
</svg>
