<svg id="Flat" xmlns="http://www.w3.org/2000/svg" viewBox="0 0 256 256">
  <path d="M205.20166,52.55884a12.00633,12.00633,0,0,0-1.76025-1.76038,107.79681,107.79681,0,0,0-150.88282,0,12.00633,12.00633,0,0,0-1.76025,1.76038,107.7965,107.7965,0,0,0,0,150.88232,11.995,11.995,0,0,0,1.76074,1.76062,107.79621,107.79621,0,0,0,150.88184,0,11.995,11.995,0,0,0,1.76074-1.76062,107.7965,107.7965,0,0,0,0-150.88232ZM211.12891,116H186.79248a59.6638,59.6638,0,0,0-8.7583-21.06335l17.21533-17.21521A83.5789,83.5789,0,0,1,211.12891,116ZM140,44.87085a83.57839,83.57839,0,0,1,38.27881,15.87988L161.06348,77.96594A59.65994,59.65994,0,0,0,140,69.20752Zm-24,0V69.20752a59.65994,59.65994,0,0,0-21.06348,8.75842L77.72119,60.75073A83.57839,83.57839,0,0,1,116,44.87085ZM60.75049,77.72144,77.96582,94.93665A59.6638,59.6638,0,0,0,69.20752,116H44.87109A83.5789,83.5789,0,0,1,60.75049,77.72144ZM44.87109,140H69.20752a59.6638,59.6638,0,0,0,8.7583,21.06335L60.75049,178.27856A83.5789,83.5789,0,0,1,44.87109,140ZM116,211.12915a83.57839,83.57839,0,0,1-38.27881-15.87988l17.21533-17.21521A59.65994,59.65994,0,0,0,116,186.79248ZM92,128a36,36,0,1,1,36,36A36.04061,36.04061,0,0,1,92,128Zm48,83.12915V186.79248a59.65994,59.65994,0,0,0,21.06348-8.75842l17.21533,17.21521A83.57839,83.57839,0,0,1,140,211.12915Zm55.24951-32.85059-17.21533-17.21521A59.6638,59.6638,0,0,0,186.79248,140h24.33643A83.5789,83.5789,0,0,1,195.24951,178.27856Z"/>
</svg>
