<svg xmlns="http://www.w3.org/2000/svg" viewBox="0 0 256 256"><path d="M205.2,52.6l-.8-1-1-.8a107.7,107.7,0,0,0-150.8,0l-1,.8-.8,1a107.7,107.7,0,0,0,0,150.8l.8,1,1,.8a107.7,107.7,0,0,0,150.8,0l1-.8.8-1a107.7,107.7,0,0,0,0-150.8Zm5.9,63.4H186.8A60.6,60.6,0,0,0,178,94.9l17.2-17.2A82.7,82.7,0,0,1,211.1,116ZM140,44.9a82.7,82.7,0,0,1,38.3,15.9L161.1,78A60.6,60.6,0,0,0,140,69.2Zm-24,0V69.2A60.6,60.6,0,0,0,94.9,78L77.7,60.8A82.7,82.7,0,0,1,116,44.9ZM60.8,77.7,78,94.9A60.6,60.6,0,0,0,69.2,116H44.9A82.7,82.7,0,0,1,60.8,77.7ZM44.9,140H69.2A60.6,60.6,0,0,0,78,161.1L60.8,178.3A82.7,82.7,0,0,1,44.9,140ZM116,211.1a82.7,82.7,0,0,1-38.3-15.9L94.9,178a60.6,60.6,0,0,0,21.1,8.8ZM92,128a36,36,0,1,1,36,36A36,36,0,0,1,92,128Zm48,83.1V186.8a60.6,60.6,0,0,0,21.1-8.8l17.2,17.2A82.7,82.7,0,0,1,140,211.1Zm55.2-32.8L178,161.1a60.6,60.6,0,0,0,8.8-21.1h24.3A82.7,82.7,0,0,1,195.2,178.3Z"/></svg>