<svg xmlns="http://www.w3.org/2000/svg" viewBox="0 0 256 256"><path d="M233.5,97.5a36.1,36.1,0,0,0-51-51h0a47.2,47.2,0,0,0-4.1,5l-22.5-6.2A36,36,0,0,0,94.5,22.5h0a36.5,36.5,0,0,0-7.8,39.3L57.2,88.4a36.2,36.2,0,0,0-42.7,6.1h0A36,36,0,0,0,40,156a35.8,35.8,0,0,0,20.3-6.3l65.2,47.9a36.1,36.1,0,1,0,60-15.1l-2.9-2.5L208,108A36.2,36.2,0,0,0,233.5,97.5Zm-93.8,80.8L74.5,130.4a37.2,37.2,0,0,0-1.2-24.2l29.5-26.6a36.1,36.1,0,0,0,42.7-6.1,47.2,47.2,0,0,0,4.1-5l22.5,6.2a36.1,36.1,0,0,0,10.4,22.8l2.9,2.5L160,172A35.8,35.8,0,0,0,139.7,178.3ZM216.5,63.5a12,12,0,1,1-17,0h0A12,12,0,0,1,216.5,63.5Zm-105-24a12,12,0,1,1,0,17,12,12,0,0,1,0-17Zm-80,89a12,12,0,0,1,0-17h0a12,12,0,1,1,0,17Zm137,88a12,12,0,0,1-17-17h0a12,12,0,0,1,17,17Z"/></svg>