<svg id="Flat" xmlns="http://www.w3.org/2000/svg" viewBox="0 0 256 256">
  <path d="M233.46,97.46a36,36,0,0,0-50.92-50.92h0a36.18,36.18,0,0,0-4.12,5l-22.54-6.14A36,36,0,0,0,94.54,22.54h0a36.07,36.07,0,0,0-7.79,39.24L57.2,88.38a36.06,36.06,0,0,0-42.66,6.16h0a36,36,0,0,0,45.73,55.2l65.27,47.87a36,36,0,1,0,59.92-15.07,37.69,37.69,0,0,0-2.85-2.55L208,108A35.87,35.87,0,0,0,233.46,97.46Zm-93.73,80.8L74.46,130.39a36.19,36.19,0,0,0-1.21-24.17l29.55-26.6a35.92,35.92,0,0,0,46.78-11.11l22.54,6.14a35.88,35.88,0,0,0,10.42,22.81,37.69,37.69,0,0,0,2.85,2.55L160,172A35.89,35.89,0,0,0,139.73,178.26ZM216.49,63.51a12,12,0,1,1-17,0h0A12,12,0,0,1,216.49,63.51Zm-105-24a12,12,0,1,1,0,17,12,12,0,0,1,0-17Zm-80,89a12,12,0,0,1,0-17h0a12,12,0,1,1,0,17Zm137,88a12,12,0,0,1-17-17h0a12,12,0,0,1,17,17Z"/>
</svg>
