<svg xmlns="http://www.w3.org/2000/svg" viewBox="0 0 256 256"><path d="M216,36H140V24a12,12,0,0,0-24,0V36H40A20.1,20.1,0,0,0,20,56V176a20.1,20.1,0,0,0,20,20H71L54.6,216.5a12.1,12.1,0,0,0,1.9,16.9A12.4,12.4,0,0,0,64,236a12,12,0,0,0,9.4-4.5L101.8,196h52.4l28.4,35.5A12,12,0,0,0,192,236a12.4,12.4,0,0,0,7.5-2.6,12.1,12.1,0,0,0,1.9-16.9L185,196h31a20.1,20.1,0,0,0,20-20V56A20.1,20.1,0,0,0,216,36Zm-4,136H44V60H212ZM104,120v24a12,12,0,0,1-24,0V120a12,12,0,0,1,24,0Zm24-28a12,12,0,0,1,12,12v40a12,12,0,0,1-24,0V104A12,12,0,0,1,128,92Zm24,52V88a12,12,0,0,1,24,0v56a12,12,0,0,1-24,0Z"/></svg>