<svg id="Flat" xmlns="http://www.w3.org/2000/svg" viewBox="0 0 256 256">
  <path d="M216,36H140V24a12,12,0,0,0-24,0V36H40A20.02229,20.02229,0,0,0,20,56V176a20.02229,20.02229,0,0,0,20,20H71.0332L54.62988,216.50391a11.9996,11.9996,0,1,0,18.74024,14.99218L101.76709,196h52.46582l28.397,35.49609a11.9996,11.9996,0,1,0,18.74024-14.99218L184.9668,196H216a20.02229,20.02229,0,0,0,20-20V56A20.02229,20.02229,0,0,0,216,36Zm-4,136H44V60H212ZM104,120v24a12,12,0,0,1-24,0V120a12,12,0,0,1,24,0Zm24-28a12.0006,12.0006,0,0,1,12,12v40a12,12,0,0,1-24,0V104A12.0006,12.0006,0,0,1,128,92Zm24,52V88a12,12,0,0,1,24,0v56a12,12,0,0,1-24,0Z"/>
</svg>
