<svg id="Flat" xmlns="http://www.w3.org/2000/svg" viewBox="0 0 256 256">
  <path d="M210.6665,68H204V40a12.00028,12.00028,0,0,0-12-12H64A12.00028,12.00028,0,0,0,52,40V68H45.3335C29.15918,68,16,80.56055,16,96v80a11.99966,11.99966,0,0,0,12,12H52v32a12.00028,12.00028,0,0,0,12,12H192a12.00028,12.00028,0,0,0,12-12V188h24a11.99966,11.99966,0,0,0,12-12V96C240,80.56055,226.84082,68,210.6665,68ZM76,52H180V68H76ZM180,208H76V168H180Zm36-44H204v-8a12.00028,12.00028,0,0,0-12-12H64a12.00028,12.00028,0,0,0-12,12v8H40V96c0-2.168,2.44238-4,5.3335-4h165.333C213.55762,92,216,93.832,216,96Zm-11.99414-48a16,16,0,1,1-16-16A16.01833,16.01833,0,0,1,204.00586,116Z"/>
</svg>
