<svg id="Flat" xmlns="http://www.w3.org/2000/svg" viewBox="0 0 256 256">
  <path d="M205.2041,203.44006A107.94107,107.94107,0,0,0,52.56543,50.79309a11.93641,11.93641,0,0,0-1.772,1.772,107.94091,107.94091,0,0,0,152.647,152.63819,12.09058,12.09058,0,0,0,.92773-.83545A12.28919,12.28919,0,0,0,205.2041,203.44006Zm6.79688-75.43994a83.5591,83.5591,0,0,1-16.751,50.27881L77.72217,60.7511a83.95816,83.95816,0,0,1,134.27881,67.249Zm-168,0A83.5605,83.5605,0,0,1,60.75146,77.7218L178.2793,195.24963A83.95828,83.95828,0,0,1,44.001,128.00012Z"/>
</svg>
