<svg xmlns="http://www.w3.org/2000/svg" viewBox="0 0 256 256"><path d="M56.9,31.9A12,12,0,0,0,39.1,48.1L64.8,76.4c-11.2,1.2-24.3,5.5-37.7,16.3a19.8,19.8,0,0,0-1.6,29.7L71,168,39.5,199.5a12,12,0,0,0,0,17,12.1,12.1,0,0,0,17,0L88,185l45.4,45.3a19.7,19.7,0,0,0,14.1,5.9h1.4a19.8,19.8,0,0,0,14.6-7.9,91.7,91.7,0,0,0,14.3-27.6l21.3,23.5a12.1,12.1,0,0,0,17,.8,12.1,12.1,0,0,0,.8-17ZM147,210,45.7,108.7c21.1-14.6,39.5-6.6,41-5.9a12.8,12.8,0,0,0,3.1,1.1l66,72.5C158.6,189.1,152.5,201.8,147,210ZM240.7,96a19.7,19.7,0,0,1-5.9,14.1l-35.7,35.8a12.1,12.1,0,0,1-17,0,12,12,0,0,1,0-17L215,96,160,41,130.5,70.5a12,12,0,0,1-17-17l32.4-32.3a19.9,19.9,0,0,1,28.2,0l60.7,60.7A19.7,19.7,0,0,1,240.7,96Z"/></svg>