<svg id="Flat" xmlns="http://www.w3.org/2000/svg" viewBox="0 0 256 256">
  <path d="M226.77539,179.89355a59.63257,59.63257,0,0,0-23.57227-36.48632l-10.542-105.39746A19.93756,19.93756,0,0,0,172.76025,20H83.23975A19.93753,19.93753,0,0,0,63.33887,38.00928l-10.542,105.398a59.63151,59.63151,0,0,0-23.57226,36.48584A20.02717,20.02717,0,0,0,48.80371,204H116v36a12,12,0,0,0,24,0V204h67.19629a20.027,20.027,0,0,0,19.5791-24.10645ZM54.03955,180A35.84759,35.84759,0,0,1,67.8667,162.15039a19.9269,19.9269,0,0,0,8.63525-14.59473L86.85937,44h82.28125l10.35743,103.55566a19.92786,19.92786,0,0,0,8.63476,14.59473A35.84582,35.84582,0,0,1,201.96045,180Z"/>
</svg>
