<svg id="Flat" xmlns="http://www.w3.org/2000/svg" viewBox="0 0 256 256">
  <path d="M71.97412,32a12,12,0,0,1,12-12h88.78613a19.93756,19.93756,0,0,1,19.90088,18.00977l11.11426,111.12255a11.9994,11.9994,0,0,1-10.74609,13.13477c-.40528.04053-.80957.06055-1.2085.06055A12.00138,12.00138,0,0,1,179.89453,151.521L169.14062,44H83.97412A12,12,0,0,1,71.97412,32Zm158.5957,208.88135a11.99946,11.99946,0,0,1-16.95068-.81153L180.84375,204H140v36a12,12,0,0,1-24,0V204H48.80371a20.02717,20.02717,0,0,1-19.5791-24.10693,59.63148,59.63148,0,0,1,23.57227-36.48584L60.03467,71.0459,24.61914,32.06982A11.99965,11.99965,0,1,1,42.38086,15.93018l152.231,167.53418a12.02577,12.02577,0,0,1,.87548.96337l35.89356,39.50245A12.00005,12.00005,0,0,1,230.56982,240.88135ZM159.03613,180,81.7627,94.9585l-5.26075,52.59716a19.92875,19.92875,0,0,1-8.63476,14.59473A35.84582,35.84582,0,0,0,54.03955,180Z"/>
</svg>
