<svg id="Flat" xmlns="http://www.w3.org/2000/svg" viewBox="0 0 256 256">
  <path d="M240.68652,96a19.86721,19.86721,0,0,0-5.85839-14.14209L174.1416,21.17041a20.02607,20.02607,0,0,0-28.2832,0l-.001.00146L88.82031,78.209C76.39258,74.88281,52.13867,72.48535,27.06738,92.71a20.0139,20.0139,0,0,0-1.59961,29.728L71.0293,168,39.51465,199.51465a12.0001,12.0001,0,0,0,16.9707,16.9707L88,184.9707,133.36328,230.334a20.00193,20.00193,0,0,0,14.14746,5.86329c.4668,0,.93653-.01661,1.40528-.04932a19.9684,19.9684,0,0,0,14.5625-7.91553c4.68359-6.22461,10.98925-16.12695,14.43457-27.95117,3.40332-11.68066,3.45214-22.87354.16308-33.38672l56.751-56.75146A19.868,19.868,0,0,0,240.68652,96Zm-85.17187,59.51465a12.001,12.001,0,0,0-2.248,13.85205c3.43262,6.86426,6.89844,20.9668-6.27637,40.65283l-50.5039-50.50391-.001-.001-.001-.001L45.69531,108.72461c21.082-14.58984,39.52344-6.63721,40.99024-5.96436a11.67714,11.67714,0,0,0,13.7998-2.2749L160,40.97021,215.0293,96Z"/>
</svg>
