<svg id="Flat" xmlns="http://www.w3.org/2000/svg" viewBox="0 0 256 256">
  <path d="M231.38086,223.93018,195.4873,184.42773a12.02577,12.02577,0,0,0-.87548-.96337L42.38086,15.93018A11.99965,11.99965,0,1,0,24.61914,32.06982L60.03467,71.0459l-7.23779,72.36133a59.63148,59.63148,0,0,0-23.57227,36.48584A20.02717,20.02717,0,0,0,48.80371,204H116v36a12,12,0,0,0,24,0V204h40.84375l32.77539,36.06982a11.99965,11.99965,0,1,0,17.76172-16.13964ZM54.03955,180a35.84582,35.84582,0,0,1,13.82764-17.84961,19.92875,19.92875,0,0,0,8.63476-14.59473L81.7627,94.9585,159.03613,180ZM82.81592,32a12,12,0,0,1,12-12h77.94433a19.93756,19.93756,0,0,1,19.90088,18.00977l9.81592,98.13964A12.00036,12.00036,0,0,1,191.731,149.28418c-.40576.04-.80957.06006-1.2085.06006a12.001,12.001,0,0,1-11.92627-10.80615L169.14062,44H94.81592A12,12,0,0,1,82.81592,32Z"/>
</svg>
