<svg id="Flat" xmlns="http://www.w3.org/2000/svg" viewBox="0 0 256 256">
  <path d="M216.87891,207.92773l-160-176A11.99986,11.99986,0,1,0,39.12109,48.07227L61.957,73.19189,45.93213,164H40a12,12,0,0,0,0,24H55.96875c.01514,0,.03027.00195.04492.00195S56.043,188,56.05762,188H116v52a12,12,0,0,0,24,0V188h26.32813l32.793,36.07227a11.99986,11.99986,0,1,0,17.75782-16.14454ZM70.30322,164l12.063-68.35815L144.50977,164ZM90.05859,40a12.00028,12.00028,0,0,1,12-12H192a12,12,0,0,1,0,24h-1.69678l15.32471,86.84229a12,12,0,1,1-23.63477,4.17089L165.93213,52H102.05859A12.00028,12.00028,0,0,1,90.05859,40Z"/>
</svg>
