<svg id="Flat" xmlns="http://www.w3.org/2000/svg" viewBox="0 0 256 256">
  <path d="M222.41211,155.16211a12.01131,12.01131,0,0,0-11.56055-.69629,16.00814,16.00814,0,0,1-22.81885-15.52148A16.19069,16.19069,0,0,1,202.80078,124.043a15.827,15.827,0,0,1,8.05176,1.49121A11.99961,11.99961,0,0,0,228,114.69434L227.99951,72A20.02271,20.02271,0,0,0,207.999,52l-31.99951.001V52a40.15379,40.15379,0,0,0-12.6206-29.16113,39.65286,39.65286,0,0,0-29.93946-10.75879A40.07146,40.07146,0,0,0,96.103,49.09863q-.10327,1.4502-.10205,2.90235L64,52A20.00016,20.00016,0,0,0,44,72v28a40.15411,40.15411,0,0,0-29.16113,12.62012,39.66967,39.66967,0,0,0-10.7583,29.93945,40.07015,40.07015,0,0,0,37.01709,37.33691A27.359,27.359,0,0,0,44,179.99805v28.001A20.00016,20.00016,0,0,0,64,228H207.99951a20.0226,20.0226,0,0,0,20-20L228,165.30566A12.00176,12.00176,0,0,0,222.41211,155.16211ZM203.99951,204H68l.00049-38.69434a11.99983,11.99983,0,0,0-17.148-10.83984,15.8755,15.8755,0,0,1-8.05078,1.49121A16.19115,16.19115,0,0,1,28.0332,141.05566a16.01318,16.01318,0,0,1,22.81885-15.52148,12.00036,12.00036,0,0,0,17.14844-10.83984L68,76l42.69434.001h0a12.00019,12.00019,0,0,0,10.83935-17.14844,15.90661,15.90661,0,0,1-1.49121-8.04981A16.19209,16.19209,0,0,1,134.94385,36.0332a16.01436,16.01436,0,0,1,15.522,22.81934A11.99958,11.99958,0,0,0,161.30518,76.001L203.99951,76,204,100.00195c-.96973-.01465-1.93506.03321-2.90234.10157a40.06981,40.06981,0,0,0-37.01758,37.33691,39.66967,39.66967,0,0,0,10.7583,29.93945A40.15493,40.15493,0,0,0,203.99951,180H204Z"/>
</svg>
