<svg id="Flat" xmlns="http://www.w3.org/2000/svg" viewBox="0 0 256 256">
  <path d="M104.00244,36h-48a20.02229,20.02229,0,0,0-20,20v48a20.02229,20.02229,0,0,0,20,20h48a20.02229,20.02229,0,0,0,20-20V56A20.02229,20.02229,0,0,0,104.00244,36Zm-4,64h-40V60h40Zm4,32h-48a20.02229,20.02229,0,0,0-20,20v48a20.02229,20.02229,0,0,0,20,20h48a20.02229,20.02229,0,0,0,20-20V152A20.02229,20.02229,0,0,0,104.00244,132Zm-4,64h-40V156h40Zm100-160h-48a20.02229,20.02229,0,0,0-20,20v48a20.02229,20.02229,0,0,0,20,20h48a20.02229,20.02229,0,0,0,20-20V56A20.02229,20.02229,0,0,0,200.00244,36Zm-4,64h-40V60h40Zm-64,76V144a12,12,0,0,1,24,0v32a12,12,0,0,1-24,0Zm88-16a12.0006,12.0006,0,0,1-12,12h-20v36a12.0006,12.0006,0,0,1-12,12h-32a12,12,0,1,1,0-24h20V144a12,12,0,0,1,24,0v4h20A12.0006,12.0006,0,0,1,220.00244,160Zm0,32v16a12,12,0,0,1-24,0V192a12,12,0,0,1,24,0Z"/>
</svg>
