<svg id="Flat" xmlns="http://www.w3.org/2000/svg" viewBox="0 0 256 256">
  <g>
    <path d="M100.00244,36h-44a20.02229,20.02229,0,0,0-20,20v44a20.02229,20.02229,0,0,0,20,20h44a20.02229,20.02229,0,0,0,20-20V56A20.02229,20.02229,0,0,0,100.00244,36Zm-4,60h-36V60h36Z"/>
    <path d="M100.00244,136h-44a20.02229,20.02229,0,0,0-20,20v44a20.02229,20.02229,0,0,0,20,20h44a20.02229,20.02229,0,0,0,20-20V156A20.02229,20.02229,0,0,0,100.00244,136Zm-4,60h-36V160h36Z"/>
    <path d="M200.00244,36h-44a20.02229,20.02229,0,0,0-20,20v44a20.02229,20.02229,0,0,0,20,20h44a20.02229,20.02229,0,0,0,20-20V56A20.02229,20.02229,0,0,0,200.00244,36Zm-4,60h-36V60h36Z"/>
    <path d="M148.00244,184a12.0006,12.0006,0,0,0,12-12V148a12,12,0,0,0-24,0v24A12.0006,12.0006,0,0,0,148.00244,184Z"/>
    <path d="M208.00244,152h-12v-4a12,12,0,0,0-24,0v48h-24a12,12,0,1,0,0,24h36a12.0006,12.0006,0,0,0,12-12V176h12a12,12,0,0,0,0-24Z"/>
  </g>
</svg>
