<svg id="Flat" xmlns="http://www.w3.org/2000/svg" viewBox="0 0 256 256">
  <path d="M128.001,19.99963a108,108,0,1,0,108,108A108.12186,108.12186,0,0,0,128.001,19.99963Zm0,192a84,84,0,1,1,84-84A84.09561,84.09561,0,0,1,128.001,211.99963Zm31.11328-139.1123a44.03061,44.03061,0,0,1-19.35742,73.5332,12.00143,12.00143,0,0,1-23.75586-2.4209v-8a12.00059,12.00059,0,0,1,12-12,19.99925,19.99925,0,1,0-20-20,12,12,0,0,1-24,0,44.00013,44.00013,0,0,1,75.11328-31.1123ZM144.002,183.99963v.00489a16.00245,16.00245,0,1,1,0-.00489Z"/>
</svg>
