<svg id="Flat" xmlns="http://www.w3.org/2000/svg" viewBox="0 0 256 256">
  <path d="M100,52H40A20.02292,20.02292,0,0,0,20,72v64a20.02292,20.02292,0,0,0,20,20H96v4a28.03146,28.03146,0,0,1-28,28,12,12,0,0,0,0,24,52.059,52.059,0,0,0,52-52V72A20.02292,20.02292,0,0,0,100,52Zm-4,80H44V76H96ZM216,52H156a20.02292,20.02292,0,0,0-20,20v64a20.02292,20.02292,0,0,0,20,20h56v4a28.03146,28.03146,0,0,1-28,28,12,12,0,0,0,0,24,52.059,52.059,0,0,0,52-52V72A20.02292,20.02292,0,0,0,216,52Zm-4,80H160V76h52Z"/>
</svg>
