<svg xmlns="http://www.w3.org/2000/svg" viewBox="0 0 256 256"><path d="M216,68H113.8l81.6-24.5a12,12,0,1,0-6.8-23l-160,48h-.1l-1,.4h-.1l-.8.4h-.3l-.3.2a11.8,11.8,0,0,0-3.2,2.7h-.1l-.4.5-.3.4c0,.1-.1.2-.1.3a10,10,0,0,0-1.5,3.5c-.1.1-.1.3-.2.5v.2c0,.3-.1.6-.1,1h0A3.7,3.7,0,0,0,20,80h0V200a20.1,20.1,0,0,0,20,20H216a20.1,20.1,0,0,0,20-20V88A20.1,20.1,0,0,0,216,68Zm-4,128H44V92H212Zm-52-16a36,36,0,1,0-36-36A36,36,0,0,0,160,180Zm0-48a12,12,0,1,1-12,12A12,12,0,0,1,160,132ZM60,124a12,12,0,0,1,12-12H96a12,12,0,0,1,0,24H72A12,12,0,0,1,60,124Zm0,40a12,12,0,0,1,12-12H96a12,12,0,0,1,0,24H72A12,12,0,0,1,60,164Z"/></svg>