<svg id="Flat" xmlns="http://www.w3.org/2000/svg" viewBox="0 0 256 256">
  <path d="M216,68H113.762l81.68628-24.50586a12.00023,12.00023,0,1,0-6.89648-22.98828l-160,48-.02869.01025c-.33411.10108-.66.22046-.98108.34912-.053.02112-.10888.03711-.16137.05909-.27662.11547-.54346.24853-.80909.38379-.09277.04687-.19091.08667-.2821.136-.10266.05554-.198.12183-.29871.18018A11.92686,11.92686,0,0,0,22.83765,72.26c-.03272.03857-.06934.07349-.10132.11255-.13794.16772-.261.346-.38941.52063-.10351.14026-.21362.27527-.311.42029-.054.08032-.09888.16638-.15088.248a11.919,11.919,0,0,0-1.50525,3.49158c-.04382.172-.09631.34119-.13245.51538-.01538.074-.022.15076-.03588.22522-.06031.32068-.114.64307-.148.96961-.00379.037-.00318.075-.0066.11193-.03442.364-.05493.73047-.05566,1.09961L20,80V200a20.02229,20.02229,0,0,0,20,20H216a20.02229,20.02229,0,0,0,20-20V88A20.02229,20.02229,0,0,0,216,68Zm-4,128H44V92H212Zm-52-16a36,36,0,1,0-36-36A36.04061,36.04061,0,0,0,160,180Zm0-48a12,12,0,1,1-12,12A12.01312,12.01312,0,0,1,160,132ZM60,124a12.0006,12.0006,0,0,1,12-12H96a12,12,0,0,1,0,24H72A12.0006,12.0006,0,0,1,60,124Zm0,40a12.0006,12.0006,0,0,1,12-12H96a12,12,0,0,1,0,24H72A12.0006,12.0006,0,0,1,60,164Z"/>
</svg>
