<svg xmlns="http://www.w3.org/2000/svg" viewBox="0 0 256 256"><path d="M204,108a52.2,52.2,0,0,0-47.2,30.2H156c-19.9,0-36,16.6-36,36.9S136.1,212,156,212h48a52,52,0,0,0,0-104Zm0,80H156c-6.6,0-12-5.8-12-12.9s5.4-12.9,12-12.9a10.7,10.7,0,0,1,4.3.9,12.2,12.2,0,0,0,10.2-.6,11.8,11.8,0,0,0,6.1-8.1A28,28,0,1,1,204,188Zm-94.8-51.2a12.1,12.1,0,0,1-2.1,16.9A7.8,7.8,0,0,0,104,160v16a12,12,0,0,1-24,0V160a31.7,31.7,0,0,1,12.4-25.3A12,12,0,0,1,109.2,136.8Zm27.5-18A48.8,48.8,0,0,0,112,112a48,48,0,0,0-48,48v16a12,12,0,0,1-24,0V160A72,72,0,0,1,149,98.2a12,12,0,0,1-12.3,20.6ZM24,160v16a12,12,0,0,1-24,0V160A112,112,0,0,1,185.5,75.5a12,12,0,0,1-15.8,18.1A88,88,0,0,0,24,160Z"/></svg>