<svg id="Flat" xmlns="http://www.w3.org/2000/svg" viewBox="0 0 256 256">
  <path d="M204,108a52.22039,52.22039,0,0,0-47.22852,30.23047c-.25634-.00488-.51416-.00781-.77148-.00781-19.85059,0-36,16.54785-36,36.88867S136.14941,212,156,212h48a52,52,0,0,0,0-104Zm0,80H156c-6.6167,0-12-5.78223-12-12.88867s5.3833-12.88867,12-12.88867a11.17418,11.17418,0,0,1,4.25928.834,11.99978,11.99978,0,0,0,16.30761-8.70215A28.00366,28.00366,0,1,1,204,188Zm-94.78467-51.16406a11.9996,11.9996,0,0,1-2.11328,16.83789A7.96265,7.96265,0,0,0,104,160v16a12,12,0,0,1-24,0V160a31.80572,31.80572,0,0,1,12.37646-25.27734A11.99951,11.99951,0,0,1,109.21533,136.83594Zm27.44141-18.0293A48.01347,48.01347,0,0,0,64,160v16a12,12,0,0,1-24,0V160A72.01331,72.01331,0,0,1,149.00732,98.22852a12,12,0,1,1-12.35058,20.57812ZM24,160v16a12,12,0,0,1-24,0V160A112.00217,112.00217,0,0,1,185.46826,75.46094a12.00012,12.00012,0,1,1-15.75,18.10937A88.0019,88.0019,0,0,0,24,160Z"/>
</svg>
