<svg xmlns="http://www.w3.org/2000/svg" viewBox="0 0 256 256"><path d="M64,100A12,12,0,0,1,76,88H180a12,12,0,0,1,0,24H76A12,12,0,0,1,64,100Zm12,52H180a12,12,0,0,0,0-24H76a12,12,0,0,0,0,24ZM236,56V208a12,12,0,0,1-5.7,10.2,11.9,11.9,0,0,1-11.7.5L192,205.4l-26.6,13.3a11.9,11.9,0,0,1-10.8,0L128,205.4l-26.6,13.3a12.1,12.1,0,0,1-10.8,0L64,205.4,37.4,218.7a11.9,11.9,0,0,1-11.7-.5A12,12,0,0,1,20,208V56A20.1,20.1,0,0,1,40,36H216A20.1,20.1,0,0,1,236,56Zm-24,4H44V188.6l14.6-7.3a12.1,12.1,0,0,1,10.8,0L96,194.6l26.6-13.3a11.9,11.9,0,0,1,10.8,0L160,194.6l26.6-13.3a12.1,12.1,0,0,1,10.8,0l14.6,7.3Z"/></svg>