<svg id="Flat" xmlns="http://www.w3.org/2000/svg" viewBox="0 0 256 256">
  <path d="M64,100A12.00028,12.00028,0,0,1,76,88H180a12,12,0,0,1,0,24H76A12.00028,12.00028,0,0,1,64,100Zm12,52H180a12,12,0,0,0,0-24H76a12,12,0,0,0,0,24ZM236,56V208a11.99955,11.99955,0,0,1-17.36621,10.73291L192,205.4165l-26.63379,13.31641a11.99667,11.99667,0,0,1-10.73242,0L128,205.4165l-26.63379,13.31641a11.99669,11.99669,0,0,1-10.73242,0L64,205.4165,37.36621,218.73291A11.99955,11.99955,0,0,1,20,208V56A20.0226,20.0226,0,0,1,40,36H216A20.0226,20.0226,0,0,1,236,56Zm-24,4H44V188.5835l14.63379-7.31641a11.99669,11.99669,0,0,1,10.73242,0L96,194.5835l26.63379-13.31641a11.99667,11.99667,0,0,1,10.73242,0L160,194.5835l26.63379-13.31641a11.99669,11.99669,0,0,1,10.73242,0L212,188.5835Z"/>
</svg>
