<svg id="Flat" xmlns="http://www.w3.org/2000/svg" viewBox="0 0 256 256">
  <path d="M88,148a16,16,0,1,1,16-16A16.01833,16.01833,0,0,1,88,148Zm80-32a16,16,0,1,0,16,16A16.01833,16.01833,0,0,0,168,116Zm-12.47949,45.33789a60.07933,60.07933,0,0,1-55.041,0,12.00032,12.00032,0,0,0-11.01025,21.32617,84.133,84.133,0,0,0,77.062,0,12.00044,12.00044,0,0,0-11.01074-21.32617Zm86.60058-32.585A62.88015,62.88015,0,0,1,244,144c0,23.28613-12.65381,44.8711-35.63037,60.77832C186.73926,219.753,158.19629,228,128,228S69.26074,219.753,47.63037,204.77834C24.65381,188.87112,12,167.28615,12,144A62.8742,62.8742,0,0,1,13.87891,128.753,35.98564,35.98564,0,0,1,61.40137,75.06643c16.604-8.3645,36.07959-13.44483,56.37744-14.73072l6.38428-38.30834a11.99091,11.99091,0,0,1,13.66162-9.8877l31.47461,4.842a23.99063,23.99063,0,1,1-3.66016,23.719l-19.75049-3.03857L142.062,60.62063a145.68144,145.68144,0,0,1,52.53662,14.4458A35.98568,35.98568,0,0,1,242.12109,128.753ZM228,104a12.00148,12.00148,0,0,0-21.71094-7.05273,11.999,11.999,0,0,1-15.93652,3.18457c-.07373-.04492-.14649-.08985-.21875-.13574C173.063,89.68606,151.02588,84.00783,128.043,84.00075l-.02832.00122-.03858-.00146c-22.98974.00391-45.03418,5.68286-62.10986,15.99561-.07226.04589-.145.09082-.21875.13574a11.99894,11.99894,0,0,1-15.93652-3.18457,12.00226,12.00226,0,1,0-15.80469,17.3955,12.001,12.001,0,0,1,4.93506,15.0127A39.69508,39.69508,0,0,0,36,144c0,15.17774,8.98193,29.75391,25.2915,41.0459C78.94727,197.26858,102.6377,204,128,204s49.05273-6.73144,66.7085-18.9541C211.01807,173.75393,220,159.17776,220,144a39.694,39.694,0,0,0-2.85645-14.68262,11.99981,11.99981,0,0,1,4.9502-14.97461A11.91874,11.91874,0,0,0,228,104Z"/>
</svg>
