<svg xmlns="http://www.w3.org/2000/svg" viewBox="0 0 256 256"><path d="M20,128A76.1,76.1,0,0,1,96,52h99l-3.5-3.5a12,12,0,0,1,17-17l24,24a12,12,0,0,1,0,17l-24,24a12.1,12.1,0,0,1-17,0,12,12,0,0,1,0-17L195,76H96a52,52,0,0,0-52,52,12,12,0,0,1-24,0Zm204-12a12,12,0,0,0-12,12,52,52,0,0,1-52,52H61l3.5-3.5a12,12,0,0,0-17-17l-24,24a12,12,0,0,0,0,17l24,24a12.1,12.1,0,0,0,17,0,12,12,0,0,0,0-17L61,204h99a76.1,76.1,0,0,0,76-76A12,12,0,0,0,224,116Zm-92,48a12,12,0,0,0,12-12V104a12,12,0,0,0-5.7-10.2,11.9,11.9,0,0,0-11.7-.5l-16,8a12,12,0,0,0,9.4,22V152A12,12,0,0,0,132,164Z"/></svg>