<svg id="Flat" xmlns="http://www.w3.org/2000/svg" viewBox="0 0 256 256">
  <path d="M20,128A76.08645,76.08645,0,0,1,96,52h99.0293l-3.51465-3.51465a12.0001,12.0001,0,0,1,16.9707-16.9707l24,24c.01929.01953.03516.04053.0542.06006.25806.26123.50562.5332.739.81738.1211.14746.22657.30273.3396.4541.12061.16211.2461.31983.35889.48828.11914.17823.22315.3628.33179.54639.09131.15283.1875.30225.272.46.09912.18506.18311.375.27173.56445.07837.166.16162.32959.23242.5.07593.18409.1377.37159.2041.55811.06543.1831.13574.36328.19239.5498.05712.18848.09912.38037.14672.5708.04737.189.10059.37549.13892.56836.0437.22071.07031.44385.10156.66651.02344.165.05493.32763.07129.49463a12.042,12.042,0,0,1,0,2.373c-.01636.167-.04785.32959-.07129.49463-.03125.22266-.05786.4458-.10156.66651-.03833.19287-.09155.37939-.13892.56836-.0476.19043-.0896.38232-.14672.5708-.05665.18652-.127.3667-.19239.5498-.0664.18652-.12817.374-.2041.55811-.0708.17041-.154.334-.23242.5-.08862.18945-.17261.37939-.27173.56445-.08447.15771-.18066.30713-.272.46-.10864.18359-.21265.36816-.33179.54639-.11279.16845-.23828.32617-.35889.48828-.113.15137-.2185.30664-.3396.4541-.23339.28418-.481.55615-.739.81738-.019.01953-.03491.04053-.0542.06006l-24,24a12.0001,12.0001,0,0,1-16.9707-16.9707L195.0293,76H96a52.059,52.059,0,0,0-52,52,12,12,0,0,1-24,0Zm204-12a12.00028,12.00028,0,0,0-12,12,52.059,52.059,0,0,1-52,52H60.9707l3.51465-3.51465a12.0001,12.0001,0,0,0-16.9707-16.9707l-24,24c-.01929.01953-.03516.04053-.0542.06006-.25806.26123-.50562.5332-.739.81738-.1211.14746-.22657.30273-.3396.4541-.12073.16211-.24622.31983-.35877.48828-.11938.17823-.22327.3628-.33191.54639-.09131.15283-.1875.30225-.272.46-.09937.18555-.18384.37647-.27283.56641-.07788.16552-.16052.32812-.23095.49756-.07642.18457-.13831.373-.2052.56054-.06519.18213-.13514.36182-.19166.54785-.05712.18848-.09912.38037-.14672.5708-.04737.189-.10059.37549-.1388.56836-.04382.22071-.07043.44385-.10168.66651-.02332.165-.05493.32763-.07141.49463a12.08048,12.08048,0,0,0,0,2.373c.01648.167.04809.32959.07141.49463.03125.22266.05786.4458.10168.66651.03821.19287.09143.37939.1388.56836.0476.19043.0896.38232.14672.5708.05652.186.12647.36572.19166.54785.06689.1875.12878.376.2052.56054.07043.16944.15307.332.231.49756.089.18994.17346.38086.27283.56641.08447.15771.18066.30713.272.46.10864.18359.21253.36816.33191.54639.11255.16845.238.32617.35877.48828.113.15137.2185.30664.3396.4541.23339.28418.481.55615.739.81738.019.01953.03491.04053.0542.06006l24,24a12.0001,12.0001,0,0,0,16.9707-16.9707L60.9707,204H160a76.08645,76.08645,0,0,0,76-76A12.00028,12.00028,0,0,0,224,116Z"/>
</svg>
