<svg id="Flat" xmlns="http://www.w3.org/2000/svg" viewBox="0 0 256 256">
  <path d="M128,20A108,108,0,1,0,236,128,108.12217,108.12217,0,0,0,128,20Zm0,192a84,84,0,1,1,84-84A84.0953,84.0953,0,0,1,128,212Zm52-112v56a11.99987,11.99987,0,0,1-19.36719,9.47217l-36-28c-.22265-.17334-.42431-.36646-.63281-.55322V156a11.99987,11.99987,0,0,1-19.36719,9.47217l-36-28a11.99973,11.99973,0,0,1,0-18.94434l36-28A11.99982,11.99982,0,0,1,124,100v19.08105c.2085-.18676.41016-.37988.63281-.55322l36-28A11.99982,11.99982,0,0,1,180,100Z"/>
</svg>
