<svg id="Flat" xmlns="http://www.w3.org/2000/svg" viewBox="0 0 256 256">
  <path d="M128,20A108,108,0,1,0,236,128,108.12217,108.12217,0,0,0,128,20Zm0,192a84,84,0,1,1,84-84A84.0953,84.0953,0,0,1,128,212ZM181.66211,85.41992a11.99621,11.99621,0,0,0-12.31836.59571L124,116.24487V96a11.99983,11.99983,0,0,0-18.65625-9.98437l-48,32a11.99938,11.99938,0,0,0,0,19.96875l48,32A11.99983,11.99983,0,0,0,124,160V139.75513l45.34375,30.22925A11.99983,11.99983,0,0,0,188,160V96A11.99918,11.99918,0,0,0,181.66211,85.41992ZM100,137.57764,85.63379,128,100,118.42236Zm64,0L149.63379,128,164,118.42236Z"/>
</svg>
