<svg id="Flat" xmlns="http://www.w3.org/2000/svg" viewBox="0 0 256 256">
  <path d="M200,44H140V16a12,12,0,0,0-24,0V44H56A36.04061,36.04061,0,0,0,20,80V192a36.04061,36.04061,0,0,0,36,36H200a36.04061,36.04061,0,0,0,36-36V80A36.04061,36.04061,0,0,0,200,44Zm12,148a12.01343,12.01343,0,0,1-12,12H56a12.01343,12.01343,0,0,1-12-12V80A12.01343,12.01343,0,0,1,56,68H200a12.01343,12.01343,0,0,1,12,12Zm-40-60H84a28.03146,28.03146,0,0,0-28,28v4a28.03146,28.03146,0,0,0,28,28h88a28.03146,28.03146,0,0,0,28-28v-4A28.03146,28.03146,0,0,0,172,132Zm-36,24v12H120V156Zm-56,8v-4a4.00427,4.00427,0,0,1,4-4H96v12H84A4.00427,4.00427,0,0,1,80,164Zm96,0a4.00427,4.00427,0,0,1-4,4H160V156h12a4.00427,4.00427,0,0,1,4,4ZM68,104a16,16,0,1,1,16,16A16.00008,16.00008,0,0,1,68,104Zm88,0a16,16,0,1,1,16,16A16.00008,16.00008,0,0,1,156,104Z"/>
</svg>
