<svg id="Flat" xmlns="http://www.w3.org/2000/svg" viewBox="0 0 256 256">
  <path d="M105.44238,188.36328c-5.86621,17.60156-19.73828,30.49561-40.11621,37.28809a97.214,97.214,0,0,1-27.83594,4.8584,12.00028,12.00028,0,0,1-12-12,97.23607,97.23607,0,0,1,4.8584-27.83643c6.793-20.37744,19.68653-34.249,37.28809-40.11621a11.9999,11.9999,0,0,1,7.58984,22.76807c-10.14746,3.38232-17.52246,11.585-21.9209,24.37988a68.48385,68.48385,0,0,0-1.97558,6.96484,68.48385,68.48385,0,0,0,6.96484-1.97558C71.08984,198.2959,79.292,190.9209,82.6748,180.77393a11.99959,11.99959,0,1,1,22.76758,7.58935Zm98.92481-74.50537-7.79883,7.79883v59.59814a19.87133,19.87133,0,0,1-5.85645,14.14112l-32.34277,32.34277a19.99982,19.99982,0,0,1-33.75391-10.22022L116.946,179.17188,76.8291,139.05469l-38.34765-7.66992A19.99974,19.99974,0,0,1,28.26074,97.63184l32.3418-32.34229a19.87386,19.87386,0,0,1,14.14258-5.85791h59.59765l7.79883-7.79883c29.875-29.874,60.74512-28.97412,72.62695-27.20166a19.85812,19.85812,0,0,1,16.79981,16.79834C233.3418,53.11572,234.24121,83.9834,204.36719,113.85791ZM50.5166,109.31641,78.801,114.97363l31.542-31.542H76.40137ZM99.71582,128,128,156.28418l59.39648-59.397c19.81934-19.81934,21.52247-39.24854,20.7754-49.05909-9.80274-.74707-29.23926.95508-49.05958,20.7754Zm72.85254,17.65674-31.542,31.54248,5.65722,28.28418,25.88477-25.88477Z"/>
</svg>
