<svg id="Flat" xmlns="http://www.w3.org/2000/svg" viewBox="0 0 256 256">
  <path d="M231.56836,41.22949a19.85812,19.85812,0,0,0-16.79981-16.79834c-11.88183-1.77246-42.75195-2.67236-72.62695,27.20166l-7.79883,7.79883H74.74512a19.87386,19.87386,0,0,0-14.14258,5.85791L28.26074,97.63184a19.99974,19.99974,0,0,0,10.22071,33.75293l38.34765,7.66992L116.946,179.17188l7.66919,38.34667a19.99622,19.99622,0,0,0,33.75391,10.22022L190.71191,195.396a19.87133,19.87133,0,0,0,5.85645-14.14112V121.65674l7.79883-7.79883C234.24121,83.9834,233.3418,53.11572,231.56836,41.22949ZM76.40137,83.43164H110.343l-31.542,31.542L50.5166,109.31641ZM159.1123,68.60352c19.82032-19.82032,39.25684-21.52247,49.05958-20.7754.74707,9.81055-.95606,29.23975-20.7754,49.05909L128,156.28418,99.71582,128Zm13.45606,110.99511L146.68359,205.4834l-5.65722-28.28418,31.542-31.54248ZM100.957,198.37354c-18.31055,31.771-61.63183,32.13623-63.4668,32.13623a12.00028,12.00028,0,0,1-12-12c0-1.83545.36524-45.15723,32.13575-63.46729a12.00014,12.00014,0,0,1,11.98437,20.79395c-11.01074,6.3457-16.001,18.95947-18.25976,28.835,9.86035-2.24561,22.44238-7.229,28.81347-18.28174a11.9996,11.9996,0,1,1,20.793,11.98389Z"/>
</svg>
