<svg xmlns="http://www.w3.org/2000/svg" viewBox="0 0 256 256"><path d="M156,228a12,12,0,0,1-12,12H112a12,12,0,0,1,0-24h32A12,12,0,0,1,156,228Zm70.9-69.6-12.4,55.7a19.7,19.7,0,0,1-12.9,14.5,19.2,19.2,0,0,1-6.7,1.1,20.3,20.3,0,0,1-12.4-4.3L155.8,204H100.2L73.5,225.4a20.3,20.3,0,0,1-12.4,4.3,19.2,19.2,0,0,1-6.7-1.1,19.7,19.7,0,0,1-12.9-14.5L29.1,158.4a20.3,20.3,0,0,1,4.2-17.1l28.8-34.5a126.9,126.9,0,0,1,8.2-35.6c12.1-31.1,33.5-51.5,45.2-60.8a20.1,20.1,0,0,1,25.1.1c11.5,9.3,32.6,29.7,44.5,60.8a128,128,0,0,1,8.2,34.7l29.4,35.3A20.3,20.3,0,0,1,226.9,158.4ZM92.7,79.8c-12,31-8.5,64.7,10.4,100.2h49.8c18.4-35.5,21.8-69.1,9.8-100.1-9.3-24.3-25.9-41-34.8-48.7C119,38.8,102.2,55.6,92.7,79.8ZM80.6,188.9A172.7,172.7,0,0,1,64,142L53,155.2l10.5,47.4ZM203,155.2l-11.4-13.7c-2.7,15.5-8.2,31.3-16.3,47.4l17.2,13.7ZM128,112a16,16,0,1,0-16-16A16,16,0,0,0,128,112Z"/></svg>