<svg id="Flat" xmlns="http://www.w3.org/2000/svg" viewBox="0 0 256 256">
  <path d="M156,228a12.00028,12.00028,0,0,1-12,12H112a12,12,0,0,1,0-24h32A12.00028,12.00028,0,0,1,156,228Zm70.86133-69.55811-12.36328,55.63184a19.87964,19.87964,0,0,1-12.87793,14.5249,20.09332,20.09332,0,0,1-6.6836,1.14991,19.89084,19.89084,0,0,1-12.45507-4.39649L155.791,204H100.20923L73.51855,225.35254a19.8961,19.8961,0,0,1-12.45507,4.396,20.09752,20.09752,0,0,1-6.6836-1.14991A19.87951,19.87951,0,0,1,41.502,214.07324L29.13867,158.44043a20.12286,20.12286,0,0,1,4.15918-17.14209l28.77881-34.53516a127.01205,127.01205,0,0,1,8.271-35.606c12.07226-31.08838,33.45117-51.41211,45.12011-60.75977a20.10091,20.10091,0,0,1,25.10157.0835c11.51855,9.35791,32.625,29.69629,44.57617,60.7749a128.78971,128.78971,0,0,1,8.14575,34.749l29.41089,35.293A20.12659,20.12659,0,0,1,226.86133,158.44189ZM92.71973,79.84521C80.69141,110.81982,84.1748,144.48438,103.06445,180h49.79883c18.4668-35.49365,21.79492-69.1499,9.88184-100.12988-9.3418-24.292-25.957-41.01074-34.79688-48.65381C118.99805,38.84424,102.15234,55.55469,92.71973,79.84521ZM80.647,188.915a171.34958,171.34958,0,0,1-16.65722-46.958l-10.99659,13.1958,10.54493,47.44922Zm122.35987-33.76221-11.36817-13.6416a172.34606,172.34606,0,0,1-16.35254,47.3501l17.17578,13.74072ZM128,112a16,16,0,1,0-16-16A16.01833,16.01833,0,0,0,128,112Z"/>
</svg>
