<svg id="Flat" xmlns="http://www.w3.org/2000/svg" viewBox="0 0 256 256">
  <path d="M101.74023,154.2594A75.50524,75.50524,0,0,1,124,207.99963a12,12,0,1,1-24,0,52.00008,52.00008,0,0,0-52-52,12,12,0,0,1,0-24A75.50444,75.50444,0,0,1,101.74023,154.2594ZM48,83.99963a12,12,0,0,0,0,24,100.00162,100.00162,0,0,1,100,100,12,12,0,1,0,24,0,124.00115,124.00115,0,0,0-124-124Zm121.62256,2.37793A170.87773,170.87773,0,0,0,48,35.99963a12,12,0,0,0,0,24,147.0311,147.0311,0,0,1,104.65186,43.34864A147.029,147.029,0,0,1,196,207.99963a12,12,0,1,0,24,0A170.87445,170.87445,0,0,0,169.62256,86.37756ZM51.99414,188.00012a16,16,0,1,0,16,16A16.00009,16.00009,0,0,0,51.99414,188.00012Z"/>
</svg>
