<svg id="Flat" xmlns="http://www.w3.org/2000/svg" viewBox="0 0 256 256">
  <path d="M101.74023,154.25977A75.50522,75.50522,0,0,1,124,208a12,12,0,0,1-24,0,52.00008,52.00008,0,0,0-52-52,12,12,0,0,1,0-24A75.5044,75.5044,0,0,1,101.74023,154.25977ZM48,84a12,12,0,0,0,0,24A100.00162,100.00162,0,0,1,148,208a12,12,0,0,0,24,0A124.00115,124.00115,0,0,0,48,84Zm121.62256,2.37793A170.87773,170.87773,0,0,0,48,36a12,12,0,0,0,0,24,147.03113,147.03113,0,0,1,104.65186,43.34863A147.029,147.029,0,0,1,196,208a12,12,0,0,0,24,0A170.87445,170.87445,0,0,0,169.62256,86.37793ZM52,188a16,16,0,1,0,16,16A16.01833,16.01833,0,0,0,52,188Z"/>
</svg>
