<svg id="Flat" xmlns="http://www.w3.org/2000/svg" viewBox="0 0 256 256">
  <path d="M234.82813,73.8584,182.1416,21.16992a20.0277,20.0277,0,0,0-28.28418.00147L51.51563,123.51367l-.001.001-.001.001L21.17285,153.85645a19.9986,19.9986,0,0,0-.001,28.28515L73.8584,234.83008a20.02755,20.02755,0,0,0,28.28418-.00147L234.82813,102.14209a19.998,19.998,0,0,0,0-28.28369ZM88,215.02979,40.9707,168,60,148.9707l23.51465,23.51465a12.0001,12.0001,0,0,0,16.9707-16.9707L76.9707,132,96,112.9707l23.51465,23.51465a12.0001,12.0001,0,0,0,16.9707-16.9707L112.9707,96,132,76.9707l23.51465,23.51465a12.0001,12.0001,0,0,0,16.9707-16.9707L148.9707,60,168,40.97021,215.0293,88Z"/>
</svg>
