<svg xmlns="http://www.w3.org/2000/svg" viewBox="0 0 256 256"><path d="M243.1,131.5l-32-80a.3.3,0,0,0-.1-.2c0-.1-.1-.3-.1-.4l-.3-.6a.5.5,0,0,1-.2-.4l-.6-.8c0-.1-.1-.2-.2-.3l-.4-.5-.3-.3-.4-.5-.3-.3-.8-.6-.2-.2-.6-.4-.4-.3-.5-.3-.4-.2-.6-.2-.7-.3-.5-.2h-5.1l-.9.2h-.2L140,57V40a12,12,0,0,0-24,0V62.4L53.4,76.3h0l-1.1.3H52l-.7.3h-.4l-.7.4-.3.2-.7.4-.4.3-.5.4L48,79l-.6.6c0,.1-.1.1-.1.2a2.7,2.7,0,0,0-.7.8l-.2.2-.4.6-.2.3a4.3,4.3,0,0,0-.4.7v.2a3.6,3.6,0,0,0-.4.9h-.1L12.9,163.5A12,12,0,0,0,12,168c0,12.1,6.2,22.4,17.5,29a53.7,53.7,0,0,0,53,0c11.3-6.6,17.5-16.9,17.5-29a12,12,0,0,0-.9-4.5L72.4,96.7,116,87V204H104a12,12,0,0,0,0,24h48a12,12,0,0,0,0-24H140V81.6l40.4-9-23.5,58.9a12,12,0,0,0-.9,4.5c0,12.1,6.2,22.4,17.5,29a53.7,53.7,0,0,0,53,0c11.3-6.6,17.5-16.9,17.5-29A12,12,0,0,0,243.1,131.5ZM56,180c-3.7,0-18-1.9-19.8-10.2L56,120.3l19.8,49.5C74,178.1,59.7,180,56,180Zm144-32c-3.7,0-18-1.9-19.8-10.2L200,88.3l19.8,49.5C218,146.1,203.7,148,200,148Z"/></svg>