<svg id="Flat" xmlns="http://www.w3.org/2000/svg" viewBox="0 0 256 256">
  <path d="M243.1416,131.543l-32-80c-.03222-.08106-.07178-.15772-.106-.23828-.05859-.1377-.11865-.27442-.18212-.40967-.09229-.19629-.19141-.38818-.29395-.57764-.06689-.125-.12988-.25244-.20117-.374q-.24609-.42114-.52295-.81738c-.082-.11719-.1709-.22754-.25684-.3418-.12451-.16553-.25146-.3291-.38427-.48779q-.148-.17579-.30176-.34473c-.13916-.15381-.28272-.30225-.42969-.44824-.09814-.09815-.19385-.19776-.29541-.292-.23828-.2212-.4834-.43409-.73828-.63477-.0874-.06885-.18018-.13086-.26953-.19727-.18653-.13916-.37549-.27441-.56934-.40185-.12207-.08057-.24658-.15625-.37109-.23193-.17236-.105-.34766-.20459-.5249-.3003-.13184-.0708-.26221-.14258-.396-.209-.20215-.09912-.4082-.18945-.61572-.27735-.21045-.08984-.42383-.17187-.63916-.24951-.18946-.06787-.37842-.13525-.57178-.19385-.17188-.05224-.34619-.09619-.52051-.14062-.15576-.03955-.31152-.07666-.46924-.10986-.18457-.03907-.36914-.07569-.55566-.106-.15625-.02539-.314-.04346-.47168-.063-.27393-.0332-.54932-.0581-.82715-.07226C200.419,44.0127,200.21045,44,200,44c-.0166,0-.03271.002-.04883.002-.15527.001-.311.01075-.46679.01758-.2212.00977-.44043.02344-.65918.04492-.13086.01319-.26172.02735-.39356.04493q-.468.06151-.92627.1582c-.03613.00781-.07226.01025-.10889.01855l-.0708.01563-.03271.00732L140,57.041V40a12,12,0,0,0-24,0V62.374L53.39648,76.28613l-.02587.00733c-.36084.08105-.71582.18066-1.06543.29345-.0962.03125-.189.0669-.28418.1001q-.36695.12891-.72364.28076c-.11767.04981-.23437.09912-.34961.15235-.24267.11279-.48.23486-.71435.36328q-.19263.10546-.38086.21728c-.23047.1377-.457.28125-.67822.43409-.11817.082-.23243.16845-.34766.25439q-.25708.19189-.50391.39746c-.104.08643-.20752.17236-.3081.26221-.21192.18847-.416.38574-.61426.58935-.041.042-.085.08057-.12549.12354-.23779.252-.4624.5166-.67871.78955-.05762.07275-.11084.14795-.1665.22217q-.23877.31494-.45655.647c-.05859.08887-.11572.17773-.17187.26807-.13916.22509-.27.45605-.395.6914-.043.08155-.08984.16114-.13086.24366-.15039.29931-.291.60449-.417.91943l-.019.04785-.01368.03369L12.8584,163.543A11.99686,11.99686,0,0,0,12,168c0,12.13184,6.19873,22.42871,17.4541,28.99316A54.96252,54.96252,0,0,0,56,204a54.96252,54.96252,0,0,0,26.5459-7.00684C93.80127,190.42871,100,180.13184,100,168a11.99686,11.99686,0,0,0-.8584-4.457L72.38477,96.65137,116,86.959V204H104a12,12,0,0,0,0,24h48a12,12,0,0,0,0-24H140V81.626L180.418,72.644,156.8584,131.543A11.99686,11.99686,0,0,0,156,136c0,12.13184,6.19873,22.42871,17.4541,28.99316a53.78891,53.78891,0,0,0,53.0918,0C237.80127,158.42871,244,148.13184,244,136A11.99686,11.99686,0,0,0,243.1416,131.543ZM56,180c-3.71094,0-17.9707-1.86719-19.80518-10.17578L56,120.31055l19.80518,49.51367C73.9707,178.13281,59.71094,180,56,180Zm144-32c-3.71094,0-17.9707-1.86719-19.80518-10.17578L200,88.31055l19.80518,49.51367C217.9707,146.13281,203.71094,148,200,148Z"/>
</svg>
