<svg id="Flat" xmlns="http://www.w3.org/2000/svg" viewBox="0 0 256 256">
  <path d="M154.43066,115.38965A11.99983,11.99983,0,0,1,157.55811,98.71l67.66552-46.29785a11.99979,11.99979,0,1,1,13.55274,19.80664L171.11084,118.5166a11.99731,11.99731,0,0,1-16.68018-3.12695Zm87.47315,85.07129a11.99731,11.99731,0,0,1-16.68018,3.12695L135.99976,142.54,98.28455,168.34546A40.14382,40.14382,0,0,1,100,180a40.00551,40.00551,0,1,1-15.29175-31.44507l30.04126-20.55469L84.70764,107.44531A39.77175,39.77175,0,1,1,98.28442,87.655l140.49195,96.12622A11.99983,11.99983,0,0,1,241.90381,200.46094ZM76,180a16.00024,16.00024,0,1,0-4.68652,11.31348H71.314A15.89591,15.89591,0,0,0,76,180ZM71.31348,87.31348H71.314a16,16,0,1,0-22.62792,0A16.01837,16.01837,0,0,0,71.31348,87.31348Z"/>
</svg>
