<svg xmlns="http://www.w3.org/2000/svg" viewBox="0 0 256 256"><path d="M238.8,183.8,98.3,87.7A41.9,41.9,0,0,0,100,76a40.1,40.1,0,1,0-15.3,31.4l30,20.6-30,20.6A40,40,0,1,0,100,180a41.9,41.9,0,0,0-1.7-11.7L136,142.5l89.2,61.1a12.3,12.3,0,0,0,6.8,2.1,11.9,11.9,0,0,0,9.9-5.2A12.1,12.1,0,0,0,238.8,183.8ZM71.3,191.3h0A15.9,15.9,0,1,1,76,180,15.9,15.9,0,0,1,71.3,191.3ZM48.7,87.3a16,16,0,1,1,22.6,0h0A15.9,15.9,0,0,1,48.7,87.3Zm112.8,23.2a12,12,0,0,1,3.1-16.6l60.6-41.5a12,12,0,0,1,13.6,19.8l-60.6,41.5a12,12,0,0,1-16.7-3.2Z"/></svg>