<svg id="Flat" xmlns="http://www.w3.org/2000/svg" viewBox="0 0 256 256">
  <path d="M238.77637,183.78125,98.28442,87.655A40.14683,40.14683,0,0,0,100,76a39.98633,39.98633,0,1,0-15.29236,31.44531l30.04187,20.55493L84.70825,148.55493a39.77263,39.77263,0,1,0,13.5763,19.79053L135.99976,142.54l89.22387,61.04785a11.99979,11.99979,0,1,0,13.55274-19.80664ZM71.314,191.31348h-.00048a6.62732,6.62732,0,1,1,.00048,0Zm-22.62792-104a16,16,0,1,1,22.62792,0h-.00048A16.01837,16.01837,0,0,1,48.686,87.31348ZM161.51416,110.543a11.99983,11.99983,0,0,1,3.12744-16.67969l60.582-41.45117a11.99979,11.99979,0,1,1,13.55274,19.80664l-60.582,41.45117a11.99731,11.99731,0,0,1-16.68018-3.127Z"/>
</svg>
