<svg id="Flat" xmlns="http://www.w3.org/2000/svg" viewBox="0 0 256 256">
  <path d="M236,56V200a20.0226,20.0226,0,0,1-20,20H144a12,12,0,0,1,0-24h68V60H44V96a12,12,0,0,1-24,0V56A20.0226,20.0226,0,0,1,40,36H216A20.0226,20.0226,0,0,1,236,56ZM32,180a12,12,0,0,0,0,24,4.00427,4.00427,0,0,1,4,4,12,12,0,0,0,24,0A28.03146,28.03146,0,0,0,32,180Zm0-32a12,12,0,0,0,0,24,36.04061,36.04061,0,0,1,36,36,12,12,0,0,0,24,0A60.06812,60.06812,0,0,0,32,148Zm0-32a12,12,0,0,0,0,24,68.07728,68.07728,0,0,1,68,68,12,12,0,0,0,24,0A92.10447,92.10447,0,0,0,32,116Z"/>
</svg>
