<svg id="Flat" xmlns="http://www.w3.org/2000/svg" viewBox="0 0 256 256">
  <path d="M231.99414,60V196a20.0226,20.0226,0,0,1-20,20h-40a12,12,0,0,1,0-24h36V64h-160v4a12,12,0,0,1-24,0V60a20.0226,20.0226,0,0,1,20-20h168A20.0226,20.0226,0,0,1,231.99414,60Zm-196,116a12,12,0,0,0,0,24,4.00427,4.00427,0,0,1,4,4,12,12,0,0,0,24,0A28.03146,28.03146,0,0,0,35.99414,176Zm0-40a12,12,0,0,0,0,24,44.04978,44.04978,0,0,1,44,44,12,12,0,0,0,24,0A68.07728,68.07728,0,0,0,35.99414,136Zm0-40a12,12,0,0,0,0,24,84.0953,84.0953,0,0,1,84,84,12,12,0,0,0,24,0A108.12217,108.12217,0,0,0,35.99414,96Z"/>
</svg>
