<svg id="Flat" xmlns="http://www.w3.org/2000/svg" viewBox="0 0 256 256">
  <path d="M249.21875,152.31787c-1.25195-1.50195-22.68555-26.75586-59.22949-41.61865C187.48242,93.02,180.5127,76.91406,169.75,64.31348,153.92871,45.79053,131.19336,36,104,36,50.44043,36,15.68848,83.79053,14.23535,85.82471A12,12,0,0,0,33.76465,99.7749C34.04883,99.37695,62.65332,60,104,60c19.95508,0,36.38086,6.88184,47.501,19.90088a63.27413,63.27413,0,0,1,12.249,22.86474A140.31271,140.31271,0,0,0,136,100c-27.01465,0-49.78223,7.13379-65.84082,20.62988-14.4668,12.15723-22.76367,29.14942-22.76367,46.61866C47.39551,193.46289,66.83887,220,104,220c26.46582,0,49.00293-10.48535,65.17578-30.32227,11.582-14.207,19.04492-32.80566,21.2041-52.32714a140.49026,140.49026,0,0,1,40.40137,30.33154,12,12,0,1,0,18.4375-15.36426ZM104,196c-22.52246,0-32.60449-14.44043-32.60449-28.75146C71.39551,146.419,91.6123,124,136,124a115.60347,115.60347,0,0,1,30.98828,4.26367C165.9209,162.35889,144.33105,196,104,196Z"/>
</svg>
