<svg xmlns="http://www.w3.org/2000/svg" viewBox="0 0 256 256"><path d="M92,100a12,12,0,0,1,12-12h64a12,12,0,0,1,0,24H104A12,12,0,0,1,92,100Zm12,52h64a12,12,0,0,0,0-24H104a12,12,0,0,0,0,24Zm132,40a36,36,0,0,1-36,36H88a36,36,0,0,1-36-36V64a12,12,0,0,0-24,0,11.8,11.8,0,0,0,3.1,8A12,12,0,0,1,13.2,88,36,36,0,0,1,40,28H176a36,36,0,0,1,36,36V164h5.9a12,12,0,0,1,8.9,4A36,36,0,0,1,236,192ZM94.9,171.1a12.2,12.2,0,0,1,11-7.1H188V64a12,12,0,0,0-12-12H73.9A34.4,34.4,0,0,1,76,64V192a12,12,0,0,0,24,0,11.8,11.8,0,0,0-3.1-8A12.2,12.2,0,0,1,94.9,171.1ZM212,192a10.9,10.9,0,0,0-.7-4H123.8c.1,1.3.2,2.7.2,4a34.4,34.4,0,0,1-2.1,12H200A12,12,0,0,0,212,192Z"/></svg>