<svg id="Flat" xmlns="http://www.w3.org/2000/svg" viewBox="0 0 256 256">
  <path d="M156,40a12,12,0,0,1-12,12H112a12,12,0,0,1,0-24h32A12,12,0,0,1,156,40ZM144,204H112a12,12,0,0,0,0,24h32a12,12,0,0,0,0-24ZM208,28H184a12,12,0,0,0,0,24h20V71.99951a12,12,0,0,0,24,0V48A20.02292,20.02292,0,0,0,208,28Zm8,71.99951a12,12,0,0,0-12,12v32a12,12,0,0,0,24,0v-32A12,12,0,0,0,216,99.99951Zm0,72a12,12,0,0,0-12,12V204H184a12,12,0,0,0,0,24h24a20.02292,20.02292,0,0,0,20-20V183.99951A12,12,0,0,0,216,171.99951Zm-176-16a12,12,0,0,0,12-12v-32a12,12,0,1,0-24,0v32A12,12,0,0,0,40,155.99951ZM72,204H52V183.99951a12,12,0,0,0-24,0V208a20.02292,20.02292,0,0,0,20,20H72a12,12,0,0,0,0-24ZM72,28H48A20.02292,20.02292,0,0,0,28,48V71.99951a12,12,0,0,0,24,0V52H72a12,12,0,0,0,0-24Z"/>
</svg>
