<svg id="Flat" xmlns="http://www.w3.org/2000/svg" viewBox="0 0 256 256">
  <path d="M156,216a12.00028,12.00028,0,0,1-12,12H112a12,12,0,0,1,0-24h32A12.00028,12.00028,0,0,1,156,216ZM40,156a12.00028,12.00028,0,0,0,12-12V112a12,12,0,0,0-24,0v32A12.00028,12.00028,0,0,0,40,156Zm32,48H52V184a12,12,0,0,0-24,0v24a20.0226,20.0226,0,0,0,20,20H72a12,12,0,0,0,0-24Zm156,4a19.8948,19.8948,0,0,1-4.99976,13.18433,11.68865,11.68865,0,0,1-1.817,1.81689A19.8954,19.8954,0,0,1,208,228H184a12,12,0,0,1,0-24h3.02893L52,68.97034V72a12,12,0,0,1-24,0V48a19.8948,19.8948,0,0,1,4.99976-13.18433,11.68856,11.68856,0,0,1,1.8164-1.8164A19.89568,19.89568,0,0,1,48,28H208a20.0226,20.0226,0,0,1,20,20ZM204,52H68.97107L204,187.02966Z"/>
</svg>
