<svg xmlns="http://www.w3.org/2000/svg" viewBox="0 0 256 256"><path d="M152,48a12,12,0,0,1-12,12H116a12,12,0,0,1,0-24h24A12,12,0,0,1,152,48ZM140,196H116a12,12,0,0,0,0,24h24a12,12,0,0,0,0-24ZM180,60h16V76a12,12,0,0,0,24,0V56a20.1,20.1,0,0,0-20-20H180a12,12,0,0,0,0,24Zm28,44a12,12,0,0,0-12,12v24a12,12,0,0,0,24,0V116A12,12,0,0,0,208,104ZM48,152a12,12,0,0,0,12-12V116a12,12,0,0,0-24,0v24A12,12,0,0,0,48,152Zm28,44H60V180a12,12,0,0,0-24,0v20a20.1,20.1,0,0,0,20,20H76a12,12,0,0,0,0-24ZM76,36H56A20.1,20.1,0,0,0,36,56V76a12,12,0,0,0,24,0V60H76a12,12,0,0,0,0-24ZM236,196H220V180a12,12,0,0,0-24,0v16H180a12,12,0,0,0,0,24h16v16a12,12,0,0,0,24,0V220h16a12,12,0,0,0,0-24Z"/></svg>