<svg xmlns="http://www.w3.org/2000/svg" viewBox="0 0 256 256"><path d="M156,216a12,12,0,0,1-12,12H112a12,12,0,0,1,0-24h32A12,12,0,0,1,156,216ZM40,156a12,12,0,0,0,12-12V112a12,12,0,0,0-24,0v32A12,12,0,0,0,40,156Zm32,48H52V184a12,12,0,0,0-24,0v24a20.1,20.1,0,0,0,20,20H72a12,12,0,0,0,0-24Zm156,4a19.8,19.8,0,0,1-5,13.2l-.9.9-.9.9a19.8,19.8,0,0,1-13.2,5H184a12,12,0,0,1,0-24h3L52,69v3a12,12,0,0,1-24,0V48a19.8,19.8,0,0,1,5-13.2l.9-.9.9-.9A19.8,19.8,0,0,1,48,28H208a20.1,20.1,0,0,1,20,20ZM204,52H69L204,187Z"/></svg>