<svg id="Flat" xmlns="http://www.w3.org/2000/svg" viewBox="0 0 256 256">
  <path d="M68,216a12.00028,12.00028,0,0,1-12,12H48a20.0226,20.0226,0,0,1-20-20v-8a12,12,0,0,1,24,0v4h4A12.00028,12.00028,0,0,1,68,216Zm44-12H96a12,12,0,0,0,0,24h16a12,12,0,0,0,0-24ZM40,172a12.00028,12.00028,0,0,0,12-12V144a12,12,0,0,0-24,0v16A12.00028,12.00028,0,0,0,40,172Zm128,16a12.00028,12.00028,0,0,0-12,12v4h-4a12,12,0,0,0,0,24h8a20.0226,20.0226,0,0,0,20-20v-8A12.00028,12.00028,0,0,0,168,188Zm0-72a12.00028,12.00028,0,0,0,12-12V96a20.0226,20.0226,0,0,0-20-20h-8a12,12,0,0,0,0,24h4v4A12.00028,12.00028,0,0,0,168,116ZM56,76H48A20.0226,20.0226,0,0,0,28,96v8a12,12,0,0,0,24,0v-4h4a12,12,0,0,0,0-24ZM208.25,28H99.75A19.77211,19.77211,0,0,0,80,47.75V86.50586c0,.2522.02246.49878.03772.74707C80.02246,87.50122,80,87.7478,80,88a12.00028,12.00028,0,0,0,12,12h20a12,12,0,0,0,0-24h-8V52H204V152H180v-8a12,12,0,0,0-24,0v20a12.00028,12.00028,0,0,0,12,12c.25342,0,.501-.02246.75049-.03784.24951.01538.49707.03784.75049.03784H208.25A19.77212,19.77212,0,0,0,228,156.25V47.75A19.77211,19.77211,0,0,0,208.25,28Z"/>
</svg>
