<svg xmlns="http://www.w3.org/2000/svg" viewBox="0 0 256 256"><path d="M156.2,80H47.7A19.8,19.8,0,0,0,28,99.7V208.2A19.8,19.8,0,0,0,47.7,228H156.2A19.8,19.8,0,0,0,176,208.2V99.7A19.8,19.8,0,0,0,156.2,80ZM152,204H52V104H152ZM132,40a12,12,0,0,1,12-12h16a12,12,0,0,1,0,24H144A12,12,0,0,1,132,40Zm96,8v8a12,12,0,0,1-24,0V52h-4a12,12,0,0,1,0-24h8A20.1,20.1,0,0,1,228,48Zm0,48v16a12,12,0,0,1-24,0V96a12,12,0,0,1,24,0Zm0,56v8a20.1,20.1,0,0,1-20,20h-8a12,12,0,0,1,0-24h4v-4a12,12,0,0,1,24,0ZM76,56V48A20.1,20.1,0,0,1,96,28h8a12,12,0,0,1,0,24h-4v4a12,12,0,0,1-24,0Z"/></svg>