<svg id="Flat" xmlns="http://www.w3.org/2000/svg" viewBox="0 0 256 256">
  <path d="M100,40a12,12,0,0,1,12-12h32a12,12,0,0,1,0,24H112A12,12,0,0,1,100,40Zm44,164H112a12,12,0,0,0,0,24h32a12,12,0,0,0,0-24ZM208,28H184a12,12,0,0,0,0,24h20V71.99951a12,12,0,0,0,24,0V48A20.02292,20.02292,0,0,0,208,28Zm8,71.99951a12,12,0,0,0-12,12v32a12,12,0,0,0,24,0v-32A12,12,0,0,0,216,99.99951Zm-176,56a12,12,0,0,0,12-12v-32a12,12,0,1,0-24,0v32A12,12,0,0,0,40,155.99951ZM72,204H52V184a12,12,0,0,0-24,0v24a20.0226,20.0226,0,0,0,20,20H72a12,12,0,0,0,0-24ZM56.87939,31.92773A12.00021,12.00021,0,0,0,39.12061,48.07227l160,176a12.00021,12.00021,0,0,0,17.75878-16.14454Z"/>
</svg>
