<svg xmlns="http://www.w3.org/2000/svg" viewBox="0 0 256 256"><path d="M68,216a12,12,0,0,1-12,12H48a20.1,20.1,0,0,1-20-20v-8a12,12,0,0,1,24,0v4h4A12,12,0,0,1,68,216Zm44-12H96a12,12,0,0,0,0,24h16a12,12,0,0,0,0-24ZM40,172a12,12,0,0,0,12-12V144a12,12,0,0,0-24,0v16A12,12,0,0,0,40,172Zm128,16a12,12,0,0,0-12,12v4h-4a12,12,0,0,0,0,24h8a20.1,20.1,0,0,0,20-20v-8A12,12,0,0,0,168,188Zm0-72a12,12,0,0,0,12-12V96a20.1,20.1,0,0,0-20-20h-8a12,12,0,0,0,0,24h4v4A12,12,0,0,0,168,116ZM56,76H48A20.1,20.1,0,0,0,28,96v8a12,12,0,0,0,24,0v-4h4a12,12,0,0,0,0-24ZM208.2,28H99.8A19.8,19.8,0,0,0,80,47.7V88a12,12,0,0,0,12,12h20a12,12,0,0,0,0-24h-8V52H204V152H180v-8a12,12,0,0,0-24,0v20a12,12,0,0,0,12,12h40.2A19.8,19.8,0,0,0,228,156.2V47.7A19.8,19.8,0,0,0,208.2,28Z"/></svg>