<svg id="Flat" xmlns="http://www.w3.org/2000/svg" viewBox="0 0 256 256">
  <path d="M156.249,79.99414H47.749a19.77213,19.77213,0,0,0-19.75,19.75v108.5a19.77212,19.77212,0,0,0,19.75,19.75h108.5a19.77211,19.77211,0,0,0,19.75-19.75v-108.5A19.77212,19.77212,0,0,0,156.249,79.99414Zm-4.25,124h-100v-100h100ZM132,40a12.00028,12.00028,0,0,1,12-12h16a12,12,0,0,1,0,24H144A12.00028,12.00028,0,0,1,132,40Zm96,8v8a12,12,0,0,1-24,0V52h-4a12,12,0,0,1,0-24h8A20.0226,20.0226,0,0,1,228,48Zm0,48v16a12,12,0,0,1-24,0V96a12,12,0,0,1,24,0Zm0,56v8a20.0226,20.0226,0,0,1-20,20h-8a12,12,0,0,1,0-24h4v-4a12,12,0,0,1,24,0ZM76,56V48A20.0226,20.0226,0,0,1,96,28h8a12,12,0,0,1,0,24h-4v4a12,12,0,0,1-24,0Z"/>
</svg>
