<svg xmlns="http://www.w3.org/2000/svg" viewBox="0 0 256 256"><path d="M204,216a12,12,0,0,1-12,12H40a20.1,20.1,0,0,1-20-20V88a12,12,0,0,1,24,0V204H192A12,12,0,0,1,204,216Zm29.3-104.4.3-.5.4-.4.3-.6.3-.4.3-.6c0-.2.1-.3.2-.5s.1-.4.2-.6.1-.3.2-.5.1-.4.1-.6.1-.4.2-.6a1.3,1.3,0,0,1,.1-.6v-.5a9.6,9.6,0,0,0,0-2.4v-.5a1.3,1.3,0,0,1-.1-.6c-.1-.2-.1-.4-.2-.6s-.1-.4-.1-.6-.1-.4-.2-.5-.1-.4-.2-.6-.2-.3-.2-.5l-.3-.6-.3-.4-.3-.6-.4-.4-.3-.5-.7-.8h-.1l-48-48a12,12,0,0,0-17,17L195,92H168A108,108,0,0,0,63.4,173,12,12,0,0,0,72,187.6a10.3,10.3,0,0,0,3,.4,11.9,11.9,0,0,0,11.6-9A84,84,0,0,1,168,116h27l-27.5,27.5a12,12,0,0,0,0,17,12.1,12.1,0,0,0,17,0l48-48h.1Z"/></svg>