<svg id="Flat" xmlns="http://www.w3.org/2000/svg" viewBox="0 0 256 256">
  <path d="M231.42432,223.92773l-189.09082-208A11.99986,11.99986,0,0,0,24.57568,32.07227l5.834,6.41748A19.87794,19.87794,0,0,0,27.99951,48v58.667c0,92.19922,78.10938,122.76856,93.76758,127.96094a19.66947,19.66947,0,0,0,12.46582,0,149.84879,149.84879,0,0,0,49.00147-28.03125l30.43212,33.47559a11.99986,11.99986,0,0,0,17.75782-16.14454ZM127.99951,211.39648c-15.45605-5.4121-76-31.32714-76-104.72949V62.23853L167.07959,188.82666A128.03981,128.03981,0,0,1,127.99951,211.39648ZM90.05908,40a12.0006,12.0006,0,0,1,12-12H207.99951a20.02229,20.02229,0,0,1,20,20v58.667c0,19.10352-3.45019,36.96485-10.25488,53.08692a12,12,0,0,1-22.11133-9.332c5.55176-13.15333,8.36621-27.874,8.36621-43.75489V52H102.05908A12.0006,12.0006,0,0,1,90.05908,40Z"/>
</svg>
