<svg id="Flat" xmlns="http://www.w3.org/2000/svg" viewBox="0 0 256 256">
  <path d="M207.99951,28h-160a20.02229,20.02229,0,0,0-20,20v58.667c0,92.20117,78.10938,122.76953,93.76758,127.96094a19.66645,19.66645,0,0,0,12.46484,0c15.65821-5.19141,93.76758-35.75977,93.76758-127.96094V48A20.02229,20.02229,0,0,0,207.99951,28Zm-4,78.667c0,73.40332-60.54492,99.31739-76,104.72949-15.45508-5.4121-76-31.32617-76-104.72949V52h152Zm-88,17.333V84a12,12,0,1,1,24,0v40a12,12,0,0,1-24,0Zm.68555,51.3125A16.00015,16.00015,0,1,1,144.00049,164v.00488a16.00036,16.00036,0,0,1-27.31543,11.30762Z"/>
</svg>
