<svg id="Flat" xmlns="http://www.w3.org/2000/svg" viewBox="0 0 256 256">
  <path d="M231.38037,223.92969l-35.0166-38.53687c-.01465-.01587-.02881-.03222-.04395-.04809L42.38037,15.92969A12,12,0,1,0,24.61865,32.07031l9.07227,9.98438A19.92317,19.92317,0,0,0,27.99951,56v58.667c0,92.19922,78.10938,122.76856,93.76758,127.96094a19.66947,19.66947,0,0,0,12.46582,0,152.05161,152.05161,0,0,0,52.98584-31.61157l26.3999,29.054a12,12,0,1,0,17.76172-16.14062Zm-103.38086-4.53321c-15.45508-5.4121-76-31.32714-76-104.72949V62.20361l119.084,131.05518A126.97631,126.97631,0,0,1,127.99951,219.39648ZM97.353,48a12.00059,12.00059,0,0,1,12-12h98.64648a20.02229,20.02229,0,0,1,20,20v58.667a138.008,138.008,0,0,1-7.84375,46.91895,11.99977,11.99977,0,0,1-22.57812-8.13672,114.14057,114.14057,0,0,0,6.42187-38.78223V60H109.353A12.00059,12.00059,0,0,1,97.353,48Z"/>
</svg>
