<svg id="Flat" xmlns="http://www.w3.org/2000/svg" viewBox="0 0 256 256">
  <path d="M207.99463,35.99512h-160a20.0226,20.0226,0,0,0-20,20v58.667c0,92.207,78.10986,122.77051,93.76709,127.96094a19.66645,19.66645,0,0,0,12.46484,0c15.65821-5.19043,93.76807-35.75391,93.76807-127.96094v-58.667A20.0226,20.0226,0,0,0,207.99463,35.99512Zm-4,78.667c0,73.4082-60.54443,99.31836-76,104.72949-15.45557-5.41113-76-31.32129-76-104.72949v-54.667h152ZM84,128a12.00028,12.00028,0,0,1,12-12h20V96a12,12,0,0,1,24,0v20h20a12,12,0,0,1,0,24H140v20a12,12,0,0,1-24,0V140H96A12.00028,12.00028,0,0,1,84,128Z"/>
</svg>
