<svg id="Flat" xmlns="http://www.w3.org/2000/svg" viewBox="0 0 256 256">
  <path d="M227.99463,114.66211v-58.667a20.0226,20.0226,0,0,0-20-20h-160a20.0226,20.0226,0,0,0-20,20v58.667c0,5.022.24463,9.8501.68506,14.512.00342.03125.00586.06226.00879.09351,7.69629,80.86572,78.27441,108.44971,93.07324,113.35547a19.80836,19.80836,0,0,0,5.5874.98779c.2168.01147.43115.03271.65088.03271.2334,0,.46143-.02172.69189-.03491a19.79438,19.79438,0,0,0,5.53467-.98559c14.79883-4.90552,85.36573-32.48487,93.07178-113.33448.00537-.04736.00928-.09472.01367-.14209C227.751,124.49316,227.99463,119.67407,227.99463,114.66211Zm-24,0c0,.45044-.0127.89087-.01709,1.33789H140V59.99512h63.99463Zm-152-54.667H116V116H52.01172c-.0044-.447-.01709-.88745-.01709-1.33789ZM54.62305,140H116v74.37427C96.36523,204.90674,64.01025,183.15967,54.62305,140ZM140,214.36914V140h61.36621C191.98047,183.15186,159.63574,204.89893,140,214.36914Z"/>
</svg>
