<svg id="Flat" xmlns="http://www.w3.org/2000/svg" viewBox="0 0 256 256">
  <path d="M208,28.00012H48a20.02244,20.02244,0,0,0-20,20v58.66651c0,92.20214,78.10937,122.76953,93.76758,127.96093a19.65744,19.65744,0,0,0,12.46484,0C149.89062,229.43616,228,198.86877,228,106.66663V48.00012A20.02244,20.02244,0,0,0,208,28.00012Zm-156,24H204v54.66651a112.61021,112.61021,0,0,1-6.66309,39.22094l-62.45507-43.71826a12.00077,12.00077,0,0,0-13.76368,0l-62.45507,43.718A112.60985,112.60985,0,0,1,52,106.66663Zm76,159.39649c-10.0459-3.51758-39.13721-15.70386-58.27441-43.957L128,126.64783l58.27393,40.792C167.13721,195.69275,138.0459,207.879,128,211.39661Z"/>
</svg>
