<svg id="Flat" xmlns="http://www.w3.org/2000/svg" viewBox="0 0 256 256">
  <path d="M208,36.00012H48a20.0226,20.0226,0,0,0-20,20v58.66651c0,92.20214,78.10937,122.76953,93.76758,127.96093a19.65744,19.65744,0,0,0,12.46484,0C149.89062,237.43616,228,206.86877,228,114.66663V56.00012A20.0226,20.0226,0,0,0,208,36.00012Zm-4,78.66651c0,73.40429-60.54492,99.31835-76,104.73-15.45508-5.41163-76-31.32569-76-104.73V60.00012H204ZM75.71387,140.6803A12.00022,12.00022,0,1,1,92.28613,123.32L113.333,143.41077,163.71387,95.32a12.00022,12.00022,0,1,1,16.57226,17.36035l-58.667,56a12.00084,12.00084,0,0,1-16.57227,0Z"/>
</svg>
