<svg id="Flat" xmlns="http://www.w3.org/2000/svg" viewBox="0 0 256 256">
  <path d="M221.26074,142.14648,234.0918,71.57715A20.00052,20.00052,0,0,0,214.41406,48H50.01514L45.72852,24.42285A19.99033,19.99033,0,0,0,26.05078,8H12a12,12,0,0,0,0,24H22.71289L48.81738,175.57715c.11914.65478.27539,1.29394.45459,1.92261A31.9829,31.9829,0,1,0,102.9873,192h58.0254A32.00193,32.00193,0,1,0,192,168H71.833l-2.90918-16H209.4541A12.00039,12.00039,0,0,0,221.26074,142.14648ZM80,200a8,8,0,1,1-8-8A8.00917,8.00917,0,0,1,80,200Zm112,8a8,8,0,1,1,8-8A8.00917,8.00917,0,0,1,192,208ZM64.56055,128,54.37891,72H209.62109l-10.18164,56Z"/>
</svg>
