<svg id="Flat" xmlns="http://www.w3.org/2000/svg" viewBox="0 0 256 256">
  <path d="M215.64941,133.00879l12.15723-66.86231A12.00043,12.00043,0,0,0,216,52H58.01514L53.72852,28.42285A19.99033,19.99033,0,0,0,34.05078,12H16a12,12,0,0,0,0,24H30.71289l26.4707,145.59229A31.98171,31.98171,0,1,0,110.9873,196h42.0254A32.00193,32.00193,0,1,0,184,172H79.833l-2.90918-16H188.10156A27.98561,27.98561,0,0,0,215.64941,133.00879ZM88,204a8,8,0,1,1-8-8A8.00917,8.00917,0,0,1,88,204Zm96,8a8,8,0,1,1,8-8A8.00917,8.00917,0,0,1,184,212ZM62.37891,76H201.62109l-9.585,52.71631A3.99708,3.99708,0,0,1,188.10156,132H72.56055Z"/>
</svg>
