<svg id="Flat" xmlns="http://www.w3.org/2000/svg" viewBox="0 0 256 256">
  <path d="M88,216a16,16,0,1,1-16-16A16.00016,16.00016,0,0,1,88,216Zm104-16a16,16,0,1,0,16,16A16.00016,16.00016,0,0,0,192,200ZM234.09277,75.57617l-17.44433,95.99951A19.99069,19.99069,0,0,1,196.9707,188H67.11816a19.99255,19.99255,0,0,1-19.67578-16.41211L28.35254,66.89844a11.99515,11.99515,0,0,1-.26856-1.47315L22.71777,36H12a12,12,0,0,1,0-24H26.05371A19.99359,19.99359,0,0,1,45.73047,28.41211L50.03125,52H214.415a20.00083,20.00083,0,0,1,19.67773,23.57617ZM209.62305,76H54.4082l16.04688,88H193.63184Z"/>
</svg>
