<svg id="Flat" xmlns="http://www.w3.org/2000/svg" viewBox="0 0 256 256">
  <path d="M92,220a20,20,0,1,1-20-20A20.0226,20.0226,0,0,1,92,220Zm100-20a20,20,0,1,0,20,20A20.0226,20.0226,0,0,0,192,200ZM234.09277,75.57617,217.375,167.57568A19.99069,19.99069,0,0,1,197.69727,184H66.38867a19.99255,19.99255,0,0,1-19.67578-16.41211L28.35254,66.898a11.9795,11.9795,0,0,1-.26856-1.47217L22.71777,36H12a12,12,0,0,1,0-24H26.05371A19.99359,19.99359,0,0,1,45.73047,28.41211L50.03125,52H214.415a20.00083,20.00083,0,0,1,19.67773,23.57617ZM209.62305,76H54.4082l15.31739,84H194.3584Z"/>
</svg>
