<svg id="Flat" xmlns="http://www.w3.org/2000/svg" viewBox="0 0 256 256">
  <path d="M221.001,147.57764,234.0918,75.57715A20.00052,20.00052,0,0,0,214.41406,52H50.01514L45.72852,28.42285A19.99033,19.99033,0,0,0,26.05078,12H12a12,12,0,0,0,0,24H22.71289L48.81738,179.57715c.11914.65478.27539,1.29394.45459,1.92261A31.9829,31.9829,0,1,0,102.9873,196h58.0254A32.00193,32.00193,0,1,0,192,172H71.833l-1.45459-8H201.32324A19.99037,19.99037,0,0,0,221.001,147.57764ZM80,204a8,8,0,1,1-8-8A8.00917,8.00917,0,0,1,80,204Zm112,8a8,8,0,1,1,8-8A8.00917,8.00917,0,0,1,192,212ZM66.01514,140,54.37891,76H209.62109l-11.63574,64Z"/>
</svg>
