<svg id="Flat" xmlns="http://www.w3.org/2000/svg" viewBox="0 0 256 256">
  <path d="M100,216a20,20,0,1,1-20-20A19.9999,19.9999,0,0,1,100,216Zm84-20a20,20,0,1,0,20,20A19.9999,19.9999,0,0,0,184,196ZM233.252,75.29639l-24.1123,84.3955A28.12,28.12,0,0,1,182.2168,180H81.7832a28.12029,28.12029,0,0,1-26.92285-20.30713L30.81445,75.53271c-.04687-.15234-.09082-.30517-.13183-.46044L21.80566,44H12a12,12,0,0,1,0-24H24.82227A20.08558,20.08558,0,0,1,44.05273,34.50537L51.33691,60h170.377A11.99959,11.99959,0,0,1,233.252,75.29639ZM205.80566,84H58.19434l19.74218,69.09863A4.01838,4.01838,0,0,0,81.7832,156H182.2168a4.01824,4.01824,0,0,0,3.84668-2.90186Z"/>
</svg>
