<svg xmlns="http://www.w3.org/2000/svg" viewBox="0 0 256 256"><path d="M76,228a16,16,0,1,1-16-16A16,16,0,0,1,76,228Zm16-48a16,16,0,1,0,16,16A16,16,0,0,0,92,180Zm-64,0a16,16,0,1,0,16,16A16,16,0,0,0,28,180Zm32,0a16,16,0,1,0-16-16A16,16,0,0,0,60,180ZM256,40a12,12,0,0,1-12,12H221L195.4,77.5,181.8,193a20,20,0,0,1-13.3,16.6,21.2,21.2,0,0,1-6.6,1.1,20.2,20.2,0,0,1-14.1-5.9L51.2,108.2A20,20,0,0,1,63,74.2L178.5,60.6l26.7-26.7A19.7,19.7,0,0,1,219.3,28H244A12,12,0,0,1,256,40ZM170.3,85.7,74,97l85,85Z"/></svg>