<svg id="Flat" xmlns="http://www.w3.org/2000/svg" viewBox="0 0 256 256">
  <path d="M76,228a16,16,0,1,1-16-16A16.00008,16.00008,0,0,1,76,228Zm16-48a16,16,0,1,0,16,16A16.00008,16.00008,0,0,0,92,180Zm-64,0a16,16,0,1,0,16,16A16.00008,16.00008,0,0,0,28,180Zm32,0a16,16,0,1,0-16-16A16.00008,16.00008,0,0,0,60,180ZM256,40a12,12,0,0,1-12,12H220.9707L195.43115,77.53955,181.84668,193.00684a19.85631,19.85631,0,0,1-13.30322,16.55664,20.16776,20.16776,0,0,1-6.6211,1.125,19.85621,19.85621,0,0,1-14.08056-5.876L51.188,108.1582A19.99958,19.99958,0,0,1,62.99365,74.15332l115.4668-13.58447,26.71094-26.71094A19.86805,19.86805,0,0,1,219.31348,28H244A12,12,0,0,1,256,40ZM170.30615,85.69385l-96.311,11.33056,84.98,84.98047Z"/>
</svg>
