<svg xmlns="http://www.w3.org/2000/svg" viewBox="0 0 256 256"><path d="M240.5,175.5a12,12,0,0,1,0,17l-24,24a12.1,12.1,0,0,1-17,0,12,12,0,0,1,0-17L203,196H172.1a20.1,20.1,0,0,1-16.3-8.4L81.8,84H32a12,12,0,0,1,0-24H83.9a20.1,20.1,0,0,1,16.3,8.4l74,103.6H203l-3.5-3.5a12,12,0,0,1,17-17ZM110.4,152.6a12,12,0,0,0-16.7,2.8L81.8,172H32a12,12,0,0,0,0,24H83.9a20.1,20.1,0,0,0,16.3-8.4l13-18.2A12.1,12.1,0,0,0,110.4,152.6Zm35.2-49.2a12,12,0,0,0,16.7-2.8L174.2,84H203l-3.5,3.5a12,12,0,0,0,0,17,12.1,12.1,0,0,0,17,0l24-24a12,12,0,0,0,0-17l-24-24a12,12,0,0,0-17,17L203,60H172.1a20.1,20.1,0,0,0-16.3,8.4l-13,18.2A12.1,12.1,0,0,0,145.6,103.4Z"/></svg>