<svg id="Flat" xmlns="http://www.w3.org/2000/svg" viewBox="0 0 256 256">
  <path d="M217.27856,215.60791c-.23339.28418-.481.55615-.739.81738-.019.01953-.03491.04053-.0542.06006-.01855.01856-.03931.03418-.0581.05274-.262.2583-.53418.50634-.8191.74023-.14746.12109-.303.227-.45483.33984-.16186.1211-.31982.24659-.48828.35938-.17627.11767-.35913.22021-.54.32812-.15527.09229-.30688.19-.4668.27539-.18237.09766-.37011.18067-.55615.26807-.16919.08008-.33545.16455-.50879.23633-.17993.07422-.36352.13428-.54614.19971-.18677.06738-.37134.13867-.5625.19677-.18213.05518-.36743.09571-.55151.14209-.19556.04883-.38868.104-.5879.14356-.21069.0415-.42333.0664-.63574.09668-.17529.02539-.34765.05859-.52539.07617C208.79028,219.979,208.39526,220,208,220H168a12,12,0,0,1,0-24h11.0293L39.51465,56.48535a12.0001,12.0001,0,0,1,16.9707-16.9707L196,179.0293V168a12,12,0,0,1,24,0v39.99512c.00024.39746-.02075.79492-.05981,1.1914-.01636.16748-.04834.32959-.07154.49512-.03125.22266-.05786.44531-.10156.666-.03833.19287-.09155.37988-.13916.56884-.04736.19043-.08936.38184-.14648.56983-.05665.1875-.1272.36816-.19288.55127-.0664.186-.12768.37353-.20361.55664-.071.17138-.15454.33545-.23315.50244-.08838.188-.17212.37793-.27076.562-.085.15869-.18188.30908-.27343.46289-.1084.18213-.21143.36621-.33057.54395-.11279.16845-.23877.32715-.35986.48974C217.50439,215.30615,217.39941,215.46094,217.27856,215.60791ZM150.627,117.37305a11.9632,11.9632,0,0,0,8.48535-3.51514L196,76.9707V88a12,12,0,0,0,24,0V48.00488c.00024-.39746-.02075-.79492-.05981-1.1914-.01661-.16748-.04834-.33008-.07154-.49561-.03149-.22217-.05786-.44482-.10156-.66553-.03857-.19336-.0918-.38037-.1394-.57031-.04737-.18994-.08912-.38037-.14624-.56836-.05689-.188-.12745-.36914-.19336-.55273-.06617-.18555-.12745-.37207-.20313-.55518-.07129-.17138-.15478-.33642-.23389-.5039-.08789-.1875-.17163-.37647-.27-.56055-.0852-.15918-.18261-.31006-.2749-.46485-.10766-.18164-.21045-.36474-.32886-.5415-.11425-.1709-.24169-.33105-.3645-.4956-.11108-.14893-.2146-.30176-.33374-.44629q-.35961-.43872-.75952-.84034c-.01221-.0122-.022-.02587-.03418-.03808-.01025-.01026-.02148-.01856-.03174-.02881q-.40539-.4021-.84716-.76563c-.14063-.11523-.28882-.21582-.43311-.32373-.16919-.12646-.33447-.25732-.51025-.375-.17115-.11474-.34888-.21386-.52466-.31884-.1604-.09571-.31714-.19678-.48242-.28516-.17872-.09521-.36255-.17627-.54468-.26221-.17285-.08154-.34229-.168-.51953-.24121-.177-.07324-.35791-.13232-.5376-.19677-.18994-.06836-.3772-.14112-.57105-.19971-.17895-.0542-.36059-.09375-.54126-.13916-.19873-.0503-.39526-.106-.5979-.146-.20825-.041-.41845-.06543-.62817-.0957-.17749-.02539-.35205-.05957-.532-.07715C208.79028,36.021,208.395,36,208,36H168a12,12,0,0,0,0,24h11.0293L142.1416,96.8877a12.00025,12.00025,0,0,0,8.48535,20.48535Zm-53.73925,24.769-57.373,57.37256a12.0001,12.0001,0,0,0,16.9707,16.9707L113.8584,159.1123a11.99992,11.99992,0,1,0-16.9707-16.97021Z"/>
</svg>
