<svg id="Flat" xmlns="http://www.w3.org/2000/svg" viewBox="0 0 256 256">
  <path d="M241.58984,191.19238c-.10351.13721-.19873.27832-.30859.41211-.25195.30713-.51758.60279-.79834.8833l-23.99756,23.99756a12.0001,12.0001,0,0,1-16.9707-16.9707L203.0293,196h-2.09375a76.14852,76.14852,0,0,1-61.84375-31.82617L97.37891,105.77539A52.103,52.103,0,0,0,55.06445,84H32a12,12,0,0,1,0-24H55.06445A76.14852,76.14852,0,0,1,116.9082,91.82617l41.71289,58.39844A52.10306,52.10306,0,0,0,200.93555,172h2.09375l-3.51465-3.51465a12.0001,12.0001,0,0,1,16.9707-16.9707l23.99756,23.99756c.28076.28051.54639.57617.79834.8833.10986.13379.20508.2749.30859.41211.13184.17529.26758.34765.38965.53027.11328.169.21094.34424.31446.51758.09716.16235.19921.32129.28857.48877.0957.17847.17676.36206.26221.54419.08154.17261.168.34228.24121.51928.07373.17872.13379.36133.19873.543.06738.1875.13916.37281.19726.56446.05616.18432.09668.37158.14356.55761.04834.19336.10254.38379.1416.58033.04346.219.06982.43994.10107.6604.02344.167.05518.33105.07178.50024a12.03715,12.03715,0,0,1,0,2.37256c-.0166.16919-.04834.33325-.07178.50024-.03125.22046-.05761.44141-.10107.6604-.03906.19654-.09326.387-.1416.58033-.04688.186-.0874.37329-.14356.55761-.0581.1919-.13037.37744-.19775.56543-.06445.18116-.12451.36328-.19824.542-.07324.17724-.15967.34716-.24121.52-.08594.18189-.16651.36524-.26221.54346-.08936.16748-.19141.32642-.28857.48877-.10352.17334-.20118.34863-.31446.51758C241.85742,190.84473,241.72168,191.01709,241.58984,191.19238Zm-96.72265-88.30176a11.99959,11.99959,0,0,0,16.93261-1.13183A51.99007,51.99007,0,0,1,200.93555,84h2.09375l-3.51465,3.51465a12.0001,12.0001,0,0,0,16.9707,16.9707l24-24c.02979-.02954.0542-.06225.083-.092.24707-.25195.48584-.51221.71-.78491.12354-.15064.23145-.30908.34668-.46411.11816-.15869.24121-.31324.35156-.47779.12012-.17993.2251-.3667.335-.55151.08985-.15161.18555-.29956.269-.45557.09961-.186.18408-.37719.27343-.56713.07764-.16553.16016-.32789.23047-.49732.07666-.18481.13867-.37353.20557-.56128.06494-.18164.13476-.36084.19141-.54663.05712-.18945.0996-.38184.14746-.57324.04687-.18848.10009-.374.13818-.56592.04395-.22144.07031-.44482.10156-.66772.02344-.165.05518-.32691.07129-.49366a12.042,12.042,0,0,0,0-2.373c-.01611-.16675-.04785-.32862-.07129-.49366-.03125-.2229-.05761-.44628-.10156-.66772-.03809-.19189-.09131-.37744-.13818-.56592-.04786-.1914-.09034-.38379-.14746-.57324-.05665-.18579-.12647-.365-.19141-.54663-.0669-.1875-.12891-.37647-.20557-.56128-.07031-.16968-.15283-.332-.231-.49756-.08887-.1897-.17334-.38086-.273-.56689-.0835-.156-.1792-.304-.269-.45557-.10986-.18481-.21484-.37158-.335-.55151-.11035-.16455-.2334-.3191-.35156-.47779-.11523-.155-.22314-.31347-.34668-.46411-.22412-.2727-.46289-.533-.71-.78491-.02881-.02979-.05322-.0625-.083-.092l-24-24a12.0001,12.0001,0,0,0-16.9707,16.9707L203.0293,60h-2.09375a75.98995,75.98995,0,0,0-57.2002,25.958A11.99994,11.99994,0,0,0,144.86719,102.89062Zm-33.73438,50.21875a12.00083,12.00083,0,0,0-16.93261,1.13184A51.98855,51.98855,0,0,1,55.06445,172H32a12,12,0,0,0,0,24H55.06445a75.98378,75.98378,0,0,0,57.2002-25.958A12,12,0,0,0,111.13281,153.10937Z"/>
</svg>
