<svg id="Flat" xmlns="http://www.w3.org/2000/svg" viewBox="0 0 256 256">
  <path d="M217.27856,215.60791c-.23339.28418-.481.55615-.739.81738-.019.01953-.03491.04053-.0542.06006-.01855.01856-.03931.03418-.0581.05274-.262.2583-.53418.50634-.8191.74023-.14746.12109-.303.227-.45483.33984-.16186.1211-.31982.24659-.48828.35938-.17627.11767-.35913.22021-.54.32812-.15527.09229-.30688.19-.4668.27539-.18237.09766-.37011.18067-.55615.26807-.16919.08008-.33545.16455-.50879.23633-.17993.07422-.36352.13428-.54614.19971-.18677.06738-.37134.13867-.5625.19677-.18213.05518-.36743.09571-.55151.14209-.19556.04883-.38868.104-.5879.14356-.21069.0415-.42333.0664-.63574.09668-.17529.02539-.34765.05859-.52539.07617C208.79028,219.979,208.39526,220,208,220H168a12,12,0,0,1,0-24h11.0293L39.51465,56.48535a12.0001,12.0001,0,0,1,16.9707-16.9707L196,179.0293V168a12,12,0,0,1,24,0v39.99512c.00024.39746-.02075.79492-.05981,1.1914-.01636.16748-.04834.32959-.07154.49512-.03125.22266-.05786.44531-.10156.666-.03833.19287-.09155.37988-.13916.56884-.04736.19043-.08936.38184-.14648.56983-.05665.1875-.1272.36816-.19288.55127-.0664.186-.12768.37353-.20361.55664-.071.17138-.15454.33545-.23315.50244-.08838.188-.17212.37793-.27076.562-.085.15869-.18188.30908-.27343.46289-.1084.18213-.21143.36621-.33057.54395-.11279.16845-.23877.32715-.35986.48974C217.50439,215.30615,217.39941,215.46094,217.27856,215.60791ZM156.28418,111.71582a11.961,11.961,0,0,0,8.48535-3.51465L196,76.9707V88a12,12,0,0,0,24,0V48.00488c.00024-.39746-.02075-.79492-.05981-1.1914-.01636-.16748-.04834-.32959-.07154-.49512-.03125-.22266-.05786-.44531-.10156-.666-.03833-.19287-.09155-.37988-.13916-.56884-.04736-.19043-.08936-.38184-.14648-.56983-.05665-.1875-.1272-.36816-.19288-.55127-.0664-.186-.12768-.37353-.20361-.55664-.071-.17138-.15454-.33545-.23315-.50244-.08838-.188-.17212-.37793-.27076-.562-.085-.15869-.18188-.30908-.27343-.46289-.1084-.18213-.21167-.36621-.33057-.54395-.11328-.16943-.23975-.32861-.36157-.4917-.11206-.15039-.21655-.3042-.33667-.45019-.23657-.28809-.48731-.564-.74927-.8291-.01562-.01563-.02856-.03321-.04419-.04883-.01465-.01465-.03076-.02637-.04541-.041q-.39881-.39477-.83227-.752c-.14649-.12061-.30079-.22559-.45142-.33789-.16309-.12158-.322-.248-.49121-.36133-.17627-.11767-.35913-.22021-.54-.32812-.15527-.09229-.30688-.18995-.4668-.27539-.18286-.09815-.37109-.18116-.55786-.269-.16846-.0791-.334-.16357-.50659-.23486-.18066-.0752-.36523-.13574-.54883-.20117-.186-.06641-.36987-.13819-.5603-.1958-.18213-.05518-.36719-.09571-.55151-.14209-.19556-.04883-.38868-.104-.5879-.14356-.21069-.0415-.42333-.0664-.63574-.09668-.17529-.02539-.34765-.05859-.52539-.07617C208.79028,36.021,208.39526,36,208,36H168a12,12,0,0,0,0,24h11.0293L147.79883,91.23047a12,12,0,0,0,8.48535,20.48535Zm-65.05371,36.083L39.51465,199.51465a12.0001,12.0001,0,0,0,16.9707,16.9707l51.71582-51.71582a12.0001,12.0001,0,1,0-16.9707-16.9707Z"/>
</svg>
