<svg id="Flat" xmlns="http://www.w3.org/2000/svg" viewBox="0 0 256 256">
  <path d="M249.73633,110.99585c.10547-.14618.21045-.29175.30908-.44275.11133-.17035.21338-.34442.31543-.519.08936-.15283.1792-.30451.26172-.46155.09375-.17834.17724-.36011.26123-.542.07568-.163.15332-.3244.22168-.49133.07471-.184.13818-.371.2041-.55768.06006-.17127.12451-.34021.17725-.515.061-.20391.10839-.41076.15869-.61706.03955-.16174.08594-.32038.11914-.48456q.10986-.55124.16894-1.10937c.00977-.09223.00977-.187.01709-.27985.02393-.29517.04248-.59058.04493-.8866,0-.03009.00439-.05908.00439-.08917,0-.10992-.01367-.21631-.0166-.3255-.00635-.2467-.01563-.4931-.03711-.7392-.01465-.16668-.0376-.33044-.05908-.49511-.02735-.21021-.05713-.41962-.09571-.62848-.0332-.17871-.07177-.3548-.11279-.53064q-.06591-.287-.14648-.57074-.07617-.26844-.16407-.53156c-.06152-.18262-.1289-.36316-.19921-.54333-.06739-.173-.13624-.34455-.21192-.51349-.07861-.1767-.16455-.35047-.25244-.52405-.083-.16449-.166-.32837-.25635-.4884-.09521-.16809-.19824-.33222-.30176-.49658-.10009-.15845-.19921-.31672-.30615-.47-.10791-.15472-.22461-.30475-.34082-.45544-.11816-.15314-.23535-.30621-.36035-.45331-.0376-.04443-.06982-.092-.10791-.136l-56-64A12.00066,12.00066,0,0,0,184,28H72a12.00066,12.00066,0,0,0-9.03125,4.09814l-56,64c-.03809.044-.07031.09156-.10791.136-.125.1471-.24219.30017-.36035.45331-.11621.15069-.23291.30072-.34082.45544-.10694.15332-.20606.31159-.30615.47-.10352.16436-.20655.32849-.30176.49658-.09033.16-.17334.32391-.25635.4884-.08789.17358-.17383.34735-.25244.52405-.07568.16894-.14453.34051-.21192.51349-.07031.18017-.13769.36071-.19921.54333q-.0879.26331-.16407.53156-.08056.28418-.14648.57074c-.041.17584-.07959.35193-.11279.53064-.03858.20886-.06836.41827-.09571.62848-.02148.16467-.04443.32843-.05908.49511-.02148.24561-.03027.49152-.03711.73773C4.01367,103.78271,4,103.88959,4,104c0,.03033.00439.05963.00439.0899.00245.29529.021.58985.04493.88428.00732.09339.00732.18872.01709.2815q.05859.55764.16894,1.10931c.0332.16418.07959.32282.11914.48456.0503.2063.09766.41315.15869.61706.05274.17475.11719.34369.17725.515.06592.1867.12939.37372.2041.55768.06836.16693.146.3283.22168.49133.084.18188.16748.36365.26123.542.08252.157.17236.30872.26172.46155.102.17456.2041.34863.31543.519.09863.151.20361.29657.30908.44275.11572.161.23242.32129.35742.47766.1167.14642.23926.287.3628.42774.083.0946.15722.19421.24365.28674l112,120c.00928.01019.02.0188.02978.02893.25293.269.519.524.79444.76776.06885.06061.13965.11749.20947.17645q.33179.28024.68262.53534c.07763.0567.15429.11475.2334.1695.29834.20611.60351.4013.91943.57977.04394.02509.09033.04633.13525.07086q.41676.22879.85254.42322c.0918.04138.18408.08124.27735.1203q.43139.18081.876.32867c.0542.01783.10694.03913.16114.05622.34912.10992.70459.20208,1.06494.28.085.01837.1709.03216.25634.0487q.42627.08248.86084.13416c.10157.01208.20215.025.3042.03448.36866.0343.73975.05768,1.11475.05768s.74609-.02338,1.11475-.05768c.10205-.00952.20263-.0224.3042-.03448q.43433-.05174.86084-.13416c.08544-.01654.17138-.03033.25634-.0487.36035-.07789.71582-.17,1.06494-.28.0542-.01709.10694-.03839.16114-.05622q.4453-.14721.876-.32867c.09327-.03906.18555-.07892.27735-.1203q.43506-.19547.85254-.42322c.04492-.02453.09131-.04577.13525-.07086.31592-.17847.62109-.37366.91943-.57977.07911-.05475.15577-.1128.2334-.1695q.35084-.25515.68262-.53534c.06982-.059.14062-.11584.20947-.17645.27539-.24377.54151-.49872.79444-.76776.00976-.01013.0205-.01874.02978-.02893l112-120c.08643-.09253.16065-.19214.24365-.28674.12354-.14075.2461-.28132.3628-.42774C249.50391,111.31714,249.62061,111.15686,249.73633,110.99585ZM70.853,116,92.1084,167.95764,43.61475,116Zm88.36328,0L128,192.30713,96.78369,116Zm-55.979-24L128,59.7168,152.7627,92ZM185.147,116h27.23828L163.8916,167.95764Zm28.40772-24H183.00977L152.32812,52h26.22657ZM77.44531,52h26.22657L72.99023,92H42.44531Z"/>
</svg>
