<svg id="Flat" xmlns="http://www.w3.org/2000/svg" viewBox="0 0 256.00004 256.00004">
  <path d="M236,104a35.98713,35.98713,0,0,0-48-33.93579V56a35.97669,35.97669,0,0,0-60-26.80395A35.98148,35.98148,0,0,0,70.06445,68H56A35.97645,35.97645,0,0,0,29.19629,128,35.98168,35.98168,0,0,0,68,185.93583V200a35.9767,35.9767,0,0,0,60,26.804A35.98148,35.98148,0,0,0,185.93555,188H200a35.97645,35.97645,0,0,0,26.80371-59.99994A35.85087,35.85087,0,0,0,236,104ZM200,92a12,12,0,0,1,0,24H188V104A12.01312,12.01312,0,0,1,200,92ZM152,44a12.01312,12.01312,0,0,1,12,12v48a12.01312,12.01312,0,0,1-12,12H140V56A12.01312,12.01312,0,0,1,152,44ZM92,56a12,12,0,0,1,24,0V68H104A12.01312,12.01312,0,0,1,92,56ZM56,92h48a12.01312,12.01312,0,0,1,12,12v12H56a12,12,0,0,1,0-24Zm0,72a12,12,0,0,1,0-24H68v12A12.01312,12.01312,0,0,1,56,164Zm48,48a12.01312,12.01312,0,0,1-12-12V152a12.01312,12.01312,0,0,1,12-12h12v60A12.01312,12.01312,0,0,1,104,212Zm60-12a12,12,0,0,1-24,0V188h12A12.01312,12.01312,0,0,1,164,200Zm36-36H152a12.01312,12.01312,0,0,1-12-12V140h60a12,12,0,0,1,0,24Z"/>
</svg>
