<svg id="Flat" xmlns="http://www.w3.org/2000/svg" viewBox="0 0 256.00098 256.00098">
  <g>
    <path d="M139.99805,58.34326V39.99988a12,12,0,1,0-24,0V58.34314a31.98806,31.98806,0,0,0,0,59.31348v98.34326a12,12,0,0,0,24,0V117.65662a31.988,31.988,0,0,0,0-59.31336Z"/>
    <path d="M231.99805,167.99988a32.04456,32.04456,0,0,0-20-29.65674l.001-98.34326a12,12,0,1,0-24,0l-.001,98.34326a31.98806,31.98806,0,0,0,0,59.31348l.001,18.34375a12,12,0,0,0,24-.001l-.001-18.343A32.04434,32.04434,0,0,0,231.99805,167.99988Z"/>
    <path d="M67.99805,106.34314l-.00049-66.34326a12,12,0,1,0-24,0l.00049,66.34326a31.988,31.988,0,0,0,0,59.31335l-.00049,50.34339a12,12,0,1,0,24,0l.00049-50.34326a31.98806,31.98806,0,0,0,0-59.31348Z"/>
  </g>
</svg>
