<svg id="Flat" xmlns="http://www.w3.org/2000/svg" viewBox="0 0 256 256">
  <path d="M215.99951,159.99353H197.65625a31.98806,31.98806,0,0,0-59.31348,0H39.99951a12,12,0,0,0,0,24h98.34326a31.98806,31.98806,0,0,0,59.31348,0h18.34326a12,12,0,0,0,0-24Zm-48,20a8,8,0,1,1,8-8A8.00917,8.00917,0,0,1,167.99951,179.99353ZM39.999,95.99255l34.34375.00074a31.988,31.988,0,0,0,59.31348.00024L216,95.99255a12,12,0,0,0-.001-24l-82.34277.001a31.98813,31.98813,0,0,0-59.31348-.00024L40,71.99255h-.00049a12,12,0,0,0-.00049,24Zm64.00049-19.999a8,8,0,1,1-8,8A8.00917,8.00917,0,0,1,103.99951,75.99353Z"/>
</svg>
