<svg id="Flat" xmlns="http://www.w3.org/2000/svg" viewBox="0 0 256 256">
  <path d="M128,20A108,108,0,1,0,236,128,108.12186,108.12186,0,0,0,128,20Zm0,192a84,84,0,1,1,84-84A84.09562,84.09562,0,0,1,128,212ZM76,108a16,16,0,1,1,16,16A16.01833,16.01833,0,0,1,76,108Zm72,0a16,16,0,1,1,16,16A16.01833,16.01833,0,0,1,148,108Zm31.58008,49.26562a12.00014,12.00014,0,0,1-18.74121,14.99268L160,171.20947l-6.62988,8.28662a11.99895,11.99895,0,0,1-18.74024,0L128,171.20947l-6.62988,8.28662a11.99895,11.99895,0,0,1-18.74024,0L96,171.20947l-.83887,1.04834a11.9998,11.9998,0,1,1-18.74072-14.99219l10.20947-12.76171a11.99895,11.99895,0,0,1,18.74024,0L112,152.79053l6.62988-8.28662a11.99895,11.99895,0,0,1,18.74024,0L144,152.79053l6.62988-8.28662a11.99895,11.99895,0,0,1,18.74024,0Z"/>
</svg>
