<svg id="Flat" xmlns="http://www.w3.org/2000/svg" viewBox="0 0 256 256">
  <path d="M76,108a16,16,0,1,1,16,16A16.00016,16.00016,0,0,1,76,108Zm88,16a16,16,0,1,0-16-16A16.00016,16.00016,0,0,0,164,124Zm72,4A108,108,0,1,1,128,20,108.12186,108.12186,0,0,1,236,128Zm-24,0a84,84,0,1,0-84,84A84.09562,84.09562,0,0,0,212,128Zm-26.62988,36.50391-16-20a11.99895,11.99895,0,0,0-18.74024,0L144,152.79053l-6.62988-8.28662a11.99895,11.99895,0,0,0-18.74024,0L112,152.79053l-6.62988-8.28662a11.99895,11.99895,0,0,0-18.74024,0l-16,20a11.9996,11.9996,0,1,0,18.74024,14.99218L96,171.20947l6.62988,8.28662a11.99895,11.99895,0,0,0,18.74024,0L128,171.20947l6.62988,8.28662a11.99895,11.99895,0,0,0,18.74024,0L160,171.20947l6.62988,8.28662a11.9996,11.9996,0,1,0,18.74024-14.99218Z"/>
</svg>
