<svg id="Flat" xmlns="http://www.w3.org/2000/svg" viewBox="0 0 256 256">
  <path d="M128,20a108,108,0,1,0,31.73926,211.25781,11.99606,11.99606,0,0,0,4.96338-2.98681L228.273,164.69824a12.005,12.005,0,0,0,2.98584-4.96313A108.07535,108.07535,0,0,0,128,20Zm81.11572,129.91431L149.918,209.11475a83.89507,83.89507,0,1,1,59.19775-59.20044ZM76,108a16,16,0,1,1,16,16A16.00016,16.00016,0,0,1,76,108Zm72,0a16,16,0,1,1,16,16A16.00016,16.00016,0,0,1,148,108Zm31.96777,50.00537a60.016,60.016,0,0,1-103.93506.00049,12,12,0,1,1,20.7754-12.01611,36.01587,36.01587,0,0,0,62.38427-.00049,12,12,0,0,1,20.77539,12.01611Z"/>
</svg>
