<svg id="Flat" xmlns="http://www.w3.org/2000/svg" viewBox="0 0 256 256">
  <path d="M128,20A108,108,0,1,0,236,128,108.12217,108.12217,0,0,0,128,20Zm0,192a84,84,0,1,1,84-84A84.0953,84.0953,0,0,1,128,212ZM76,108a16,16,0,1,1,16,16A16.00016,16.00016,0,0,1,76,108Zm112,0a12,12,0,0,1-12,12H152a12,12,0,0,1,0-24h24A12,12,0,0,1,188,108Zm-8.03223,50.00586a60.01609,60.01609,0,0,1-103.93457.00049,11.99974,11.99974,0,1,1,20.77442-12.0166,36.01629,36.01629,0,0,0,62.38476-.00049,12.00016,12.00016,0,0,1,20.77539,12.0166Z"/>
</svg>
