<svg id="Flat" xmlns="http://www.w3.org/2000/svg" viewBox="0 0 256 256">
  <path d="M128,20A108,108,0,1,0,236,128,108.12186,108.12186,0,0,0,128,20Zm0,192a84,84,0,1,1,84-84A84.09562,84.09562,0,0,1,128,212Zm15.94092-33.42578a16.00456,16.00456,0,1,1-17.30469-14.50977A16.07389,16.07389,0,0,1,143.94092,178.57422Zm48.54443-59.05957a12.0001,12.0001,0,0,1-16.9707,16.9707L168,128.9707l-7.51465,7.51465a12.0001,12.0001,0,0,1-16.9707-16.9707L151.0293,112l-7.51465-7.51465a12.0001,12.0001,0,0,1,16.9707-16.9707L168,95.0293l7.51465-7.51465a12.0001,12.0001,0,0,1,16.9707,16.9707L184.9707,112Zm-80,16.9707a12.00033,12.00033,0,0,1-16.9707,0L88,128.9707l-7.51465,7.51465a12.0001,12.0001,0,0,1-16.9707-16.9707L71.0293,112l-7.51465-7.51465a12.0001,12.0001,0,0,1,16.9707-16.9707L88,95.0293l7.51465-7.51465a12.0001,12.0001,0,0,1,16.9707,16.9707L104.9707,112l7.51465,7.51465A11.99973,11.99973,0,0,1,112.48535,136.48535Z"/>
</svg>
