<svg id="Flat" xmlns="http://www.w3.org/2000/svg" viewBox="0 0 256 256">
  <path d="M76,108a16,16,0,1,1,16,16A16.00016,16.00016,0,0,1,76,108Zm88,16a16,16,0,1,0-16-16A16.00016,16.00016,0,0,0,164,124Zm72,4A108,108,0,1,1,128,20,108.12186,108.12186,0,0,1,236,128Zm-24,0a84,84,0,1,0-84,84A84.09562,84.09562,0,0,0,212,128Zm-27.51465,31.51465-16-16a12.00062,12.00062,0,0,0-16.9707,0L144,151.0293l-7.51465-7.51465a12.00062,12.00062,0,0,0-16.9707,0L112,151.0293l-7.51465-7.51465a12.00062,12.00062,0,0,0-16.9707,0l-16,16a12.0001,12.0001,0,0,0,16.9707,16.9707L96,168.9707l7.51465,7.51465a12.00062,12.00062,0,0,0,16.9707,0L128,168.9707l7.51465,7.51465a12.00062,12.00062,0,0,0,16.9707,0L160,168.9707l7.51465,7.51465a12.0001,12.0001,0,0,0,16.9707-16.9707Z"/>
</svg>
