<svg xmlns="http://www.w3.org/2000/svg" viewBox="0 0 256 256"><path d="M128,20A108,108,0,1,0,236,128,108.1,108.1,0,0,0,128,20Zm0,192a84,84,0,1,1,84-84A84.1,84.1,0,0,1,128,212ZM76,108a16,16,0,1,1,16,16A16,16,0,0,1,76,108Zm72,0a16,16,0,1,1,16,16A16,16,0,0,1,148,108Zm31.6,49.3a12,12,0,0,1-18.8,15l-.8-1.1-6.6,8.3a12.1,12.1,0,0,1-18.8,0l-6.6-8.3-6.6,8.3a12.1,12.1,0,0,1-18.8,0L96,171.2l-.8,1.1a12,12,0,0,1-18.8-15l10.2-12.8a12.1,12.1,0,0,1,18.8,0l6.6,8.3,6.6-8.3a12.1,12.1,0,0,1,18.8,0l6.6,8.3,6.6-8.3a12.1,12.1,0,0,1,18.8,0Z"/></svg>