<svg id="Flat" xmlns="http://www.w3.org/2000/svg" viewBox="0 0 256 256">
  <path d="M76,108a16,16,0,1,1,16,16A16.00016,16.00016,0,0,1,76,108Zm88,16a16,16,0,1,0-16-16A16.00016,16.00016,0,0,0,164,124Zm11.58691,17.60913a12.00034,12.00034,0,0,0-16.396,4.37817,36.20034,36.20034,0,0,1-17.18164,15.18458,35.95829,35.95829,0,0,1-39.46582-7.72046,36.20081,36.20081,0,0,1-5.73487-7.46363,11.9998,11.9998,0,1,0-20.77343,12.01856,60.02764,60.02764,0,0,0,103.93017-.001A12,12,0,0,0,175.58691,141.60913ZM236,128a108.024,108.024,0,0,1-4.74121,31.73511,12.005,12.005,0,0,1-2.98584,4.96313L164.70264,228.271a11.99606,11.99606,0,0,1-4.96338,2.98681A108.01548,108.01548,0,1,1,236,128Zm-24,0a83.895,83.895,0,1,0-62.082,81.11475l59.19775-59.20044A84.19013,84.19013,0,0,0,212,128Z"/>
</svg>
