<svg id="Flat" xmlns="http://www.w3.org/2000/svg" viewBox="0 0 256 256">
  <path d="M128,20A108,108,0,1,0,236,128,108.12186,108.12186,0,0,0,128,20Zm0,192a84,84,0,1,1,84-84A84.09562,84.09562,0,0,1,128,212Zm60.48535-92.48535a12.0001,12.0001,0,0,1-16.9707,16.9707L164,128.9707l-7.51465,7.51465a12.0001,12.0001,0,0,1-16.9707-16.9707L147.0293,112l-7.51465-7.51465a12.0001,12.0001,0,0,1,16.9707-16.9707L164,95.0293l7.51465-7.51465a12.0001,12.0001,0,0,1,16.9707,16.9707L180.9707,112Zm-72,16.9707a12.00033,12.00033,0,0,1-16.9707,0L92,128.9707l-7.51465,7.51465a12.0001,12.0001,0,0,1-16.9707-16.9707L75.0293,112l-7.51465-7.51465a12.0001,12.0001,0,0,1,16.9707-16.9707L92,95.0293l7.51465-7.51465a12.0001,12.0001,0,0,1,16.9707,16.9707L108.9707,112l7.51465,7.51465A11.99973,11.99973,0,0,1,116.48535,136.48535ZM144,180a16,16,0,1,1-16-16A16.01833,16.01833,0,0,1,144,180Z"/>
</svg>
