<svg id="Flat" xmlns="http://www.w3.org/2000/svg" viewBox="0 0 256 256">
  <path d="M76,108a16,16,0,1,1,16,16A16.00016,16.00016,0,0,1,76,108Zm88,16a16,16,0,1,0-16-16A16.00016,16.00016,0,0,0,164,124Zm72,4A108,108,0,1,1,128,20,108.12217,108.12217,0,0,1,236,128Zm-24,0a84,84,0,1,0-84,84A84.0953,84.0953,0,0,0,212,128Zm-36.41309,13.60889a12.00064,12.00064,0,0,0-16.396,4.37841,36.19228,36.19228,0,0,1-17.18213,15.18458,35.95849,35.95849,0,0,1-39.46484-7.72022,36.20729,36.20729,0,0,1-5.73536-7.46387,11.99968,11.99968,0,1,0-20.77343,12.01807,60.02764,60.02764,0,0,0,103.93017-.001A11.99977,11.99977,0,0,0,175.58691,141.60889Z"/>
</svg>
