<svg id="Flat" xmlns="http://www.w3.org/2000/svg" viewBox="0 0 256 256">
  <path d="M227.80176,148.11035a11.99971,11.99971,0,0,1-8.48584,14.69629l-21.19287,5.67871,5.67871,21.19336a12.0001,12.0001,0,1,1-23.18262,6.21094l-7.498-27.98242L140,148.78491V187.0293l20.48535,20.48535a12.0001,12.0001,0,0,1-16.9707,16.9707L128,208.9707l-15.51465,15.51465a12.0001,12.0001,0,0,1-16.9707-16.9707L116,187.0293V148.78491L82.87891,167.90723l-7.49805,27.98242a12.0001,12.0001,0,0,1-23.18262-6.21094L57.877,168.48535l-21.19287-5.67871A11.99963,11.99963,0,1,1,42.895,139.625l27.98291,7.49756L103.99951,128,70.87793,108.87744,42.895,116.375a11.99963,11.99963,0,1,1-6.21094-23.18164L57.877,87.51465,52.19824,66.32129a12.0001,12.0001,0,0,1,23.18262-6.21094l7.49805,27.98242L116,107.21509V68.9707L95.51465,48.48535a12.0001,12.0001,0,0,1,16.9707-16.9707L128,47.0293l15.51465-15.51465a12.0001,12.0001,0,0,1,16.9707,16.9707L140,68.9707v38.24439l33.12109-19.12232,7.498-27.98242a12.0001,12.0001,0,0,1,23.18262,6.21094l-5.67871,21.19336,21.19287,5.67871A11.99963,11.99963,0,1,1,213.105,116.375l-27.98291-7.49756L152.00049,128l33.12158,19.12256L213.105,139.625A11.9955,11.9955,0,0,1,227.80176,148.11035Z"/>
</svg>
