<svg xmlns="http://www.w3.org/2000/svg" viewBox="0 0 256 256"><path d="M227.8,148.1a12,12,0,0,1-8.5,14.7l-21.2,5.7,5.7,21.2a12,12,0,0,1-8.5,14.7,11,11,0,0,1-3.1.4,12,12,0,0,1-11.6-8.9l-7.5-28L140,148.8V187l20.5,20.5a12,12,0,0,1,0,17,12.1,12.1,0,0,1-17,0L128,209l-15.5,15.5a12,12,0,0,1-17-17L116,187V148.8L82.9,167.9l-7.5,28a12,12,0,0,1-11.6,8.9,11,11,0,0,1-3.1-.4,12,12,0,0,1-8.5-14.7l5.7-21.2-21.2-5.7a12,12,0,1,1,6.2-23.2l28,7.5L104,128,70.9,108.9l-28,7.5a11,11,0,0,1-3.1.4,12,12,0,0,1-3.1-23.6l21.2-5.7L52.2,66.3a12,12,0,0,1,23.2-6.2l7.5,28L116,107.2V69L95.5,48.5a12,12,0,0,1,17-17L128,47l15.5-15.5a12,12,0,0,1,17,17L140,69v38.2l33.1-19.1,7.5-28a12,12,0,1,1,23.2,6.2l-5.7,21.2,21.2,5.7a12,12,0,0,1-3.1,23.6,11,11,0,0,1-3.1-.4l-28-7.5L152,128l33.1,19.1,28-7.5A12,12,0,0,1,227.8,148.1Z"/></svg>