<svg xmlns="http://www.w3.org/2000/svg" viewBox="0 0 256 256"><path d="M236,128A108,108,0,1,0,63.8,214.8l.7.6.9.5a107.5,107.5,0,0,0,125.2,0l.9-.5.7-.6A107.8,107.8,0,0,0,236,128Zm-49.5,60.2L173,169.5l15.8-48.7,22-7.1a84.1,84.1,0,0,1-24.3,74.5ZM105,159.7,90.8,115.9l37.2-27,37.2,27L151,159.7Zm98.3-68.8L181.4,98,140,67.9v-23A84.2,84.2,0,0,1,203.3,90.9ZM116,44.9v23L74.6,98,52.7,90.9A84.2,84.2,0,0,1,116,44.9ZM44,128a84.5,84.5,0,0,1,1.2-14.3l22,7.1L83,169.5,69.5,188.2A83.8,83.8,0,0,1,44,128Zm44.9,74.3,13.5-18.6h51.2l13.5,18.6a83.7,83.7,0,0,1-78.2,0Z"/></svg>