<svg id="Flat" xmlns="http://www.w3.org/2000/svg" viewBox="0 0 256 256">
  <path d="M236,128A108,108,0,1,0,63.77209,214.771c.24183.207.48548.41259.74744.603.27759.20166.56152.38819.84985.563a107.78847,107.78847,0,0,0,125.26124,0c.28833-.1748.57226-.36133.84985-.563.262-.19043.50561-.396.74744-.603A107.90934,107.90934,0,0,0,236,128Zm-49.459,60.15869L173.0199,169.54834l15.82361-48.7002,21.91857-7.12158A83.653,83.653,0,0,1,186.541,188.15869Zm-81.54-28.50342L90.78662,115.90869,128,88.87158l37.21338,27.03711L150.999,159.65527Zm98.33813-68.752L181.427,98.023,140,67.9248V44.87109A84.20844,84.20844,0,0,1,203.33911,90.90332ZM116,44.87109V67.9248L74.573,98.023,52.66089,90.90332A84.20844,84.20844,0,0,1,116,44.87109ZM44,128a84.11088,84.11088,0,0,1,1.23792-14.27344l21.91857,7.12158,15.82361,48.7002L69.459,188.15869A83.73649,83.73649,0,0,1,44,128Zm44.85767,74.29,13.53857-18.63477h51.20752L167.14233,202.29a83.74933,83.74933,0,0,1-78.28466,0Z"/>
</svg>
