<svg id="Flat" xmlns="http://www.w3.org/2000/svg" viewBox="0 0 256 256">
  <path d="M232.48486,96.47107a11.99915,11.99915,0,0,1-16.97021.002L196,76.9613v67.03223a12,12,0,0,1-24,0V76.964L152.48535,96.47888a12.0001,12.0001,0,0,1-16.9707-16.9707l40-40c.019-.019.04-.03467.05908-.05347.26221-.25854.53418-.50634.81885-.74.14306-.11767.29443-.22021.4414-.33008.16651-.12451.32911-.25341.50245-.36914.17187-.11523.35058-.21533.52734-.32055.15967-.09546.31543-.19556.47949-.28345.1792-.0957.36328-.17676.54541-.26294.17285-.0813.34229-.16748.51953-.241.17676-.07324.35742-.13208.53711-.19653.18994-.06811.377-.14087.57129-.2.17969-.0542.36182-.09375.543-.13965.19824-.0498.39355-.10547.5957-.14526.209-.04151.42041-.06616.63086-.09644.17676-.02539.35059-.05884.53028-.07641.39355-.03882.78808-.05982,1.18359-.05982h0l.00928.00049c.39209.00024.78418.02075,1.1748.05933.17578.01733.34571.05.519.075.21436.03051.4292.05566.64209.0979.19678.03906.3877.09326.58106.14184.18652.04663.37451.08789.55908.14356.188.05713.36963.12793.55371.19385.18555.06616.37207.12744.55518.20312.17041.0708.334.15381.50049.23218.189.08862.37939.17285.56445.27173.15625.084.30469.17968.457.27.18408.10962.37012.21411.54981.33422.16455.11011.31884.23316.47753.35083.15528.11548.314.22388.46485.34766.26416.217.51562.44873.76025.687.0376.03662.07862.06763.11572.105l39.999,39.99317A11.99974,11.99974,0,0,1,232.48486,96.47107ZM48,139.99353h71.999a12,12,0,0,0,0-24H48a12,12,0,0,0,0,24Zm0-64h55.999a12,12,0,0,0,0-24H48a12,12,0,0,0,0,24Zm135.999,104H48a12,12,0,0,0,0,24H183.999a12,12,0,0,0,0-24Z"/>
</svg>
