<svg id="Flat" xmlns="http://www.w3.org/2000/svg" viewBox="0 0 256 256">
  <path d="M160,244H96a11.99982,11.99982,0,0,1-11.45386-15.5791L89.917,211.23438A64.04371,64.04371,0,0,1,16,148C16,73.81934,117.803,15.957,122.13672,13.53027a11.99448,11.99448,0,0,1,11.72656,0C138.197,15.957,240,73.81934,240,148a64.04394,64.04394,0,0,1-73.91724,63.23438l5.37085,17.18652A11.99953,11.99953,0,0,1,160,244Zm-47.67773-24h31.35546l-7.82836-25.05078a11.99922,11.99922,0,0,1,18.08447-13.5791A40.00837,40.00837,0,0,0,216,148c0-51.22168-67.4458-97.18555-88.00024-110.001C107.44922,50.8125,40,96.77832,40,148a40.00861,40.00861,0,0,0,61.89111,33.48535A12.0009,12.0009,0,0,1,120.096,195.124Z"/>
</svg>
