<svg id="Flat" xmlns="http://www.w3.org/2000/svg" viewBox="0 0 256 256">
  <path d="M160,244H96a12.00015,12.00015,0,0,1-11.38428-15.79492l8.52442-25.57129A63.98811,63.98811,0,0,1,16,140c0-25.11133,18.15894-54.1875,53.97241-86.41992a442.6928,442.6928,0,0,1,51.55884-39.6875,12.00123,12.00123,0,0,1,12.9375,0,442.6928,442.6928,0,0,1,51.55884,39.6875C221.84106,85.8125,240,114.88867,240,140a63.98811,63.98811,0,0,1-77.14014,62.63379l8.52442,25.57129A12.00015,12.00015,0,0,1,160,244Zm-47.35059-24h30.70118l-12.10938-36.32715a12,12,0,0,1,19.09058-12.99316A40.00143,40.00143,0,0,0,216,140c0-17.51172-16.34619-41.86719-46.02759-68.58008a429.72357,429.72357,0,0,0-41.97-32.96582A430.4283,430.4283,0,0,0,85.80078,71.624C56.26562,98.25391,40,122.53711,40,140a40.00143,40.00143,0,0,0,65.66821,30.67969,12,12,0,0,1,19.09058,12.99316ZM134.46875,34.10742Z"/>
</svg>
