<svg id="Flat" xmlns="http://www.w3.org/2000/svg" viewBox="0 0 256 256">
  <path d="M186.02734,53.58008a442.65462,442.65462,0,0,0-51.55859-39.6875,12.00123,12.00123,0,0,0-12.9375,0,442.65462,442.65462,0,0,0-51.55859,39.6875C34.15918,85.8125,16,114.88867,16,140a63.99661,63.99661,0,0,0,73.165,63.33984l-4.95947,26.44825A11.99921,11.99921,0,0,0,96,244h64a11.99921,11.99921,0,0,0,11.79443-14.21191L166.835,203.33984A63.99661,63.99661,0,0,0,240,140C240,114.88867,221.84082,85.8125,186.02734,53.58008ZM176,180a40.0476,40.0476,0,0,1-18.96582-4.77051A12.00021,12.00021,0,0,0,139.541,188.002l6,31.99805H110.459l6-31.99805a12,12,0,0,0-17.49365-12.77246A40.01687,40.01687,0,0,1,40,140c0-17.46289,16.26562-41.74609,45.80078-68.376A430.44726,430.44726,0,0,1,128.00244,38.4541a429.75058,429.75058,0,0,1,41.97022,32.96582C199.65381,98.13281,216,122.48828,216,140A40.04552,40.04552,0,0,1,176,180Z"/>
</svg>
