<svg xmlns="http://www.w3.org/2000/svg" viewBox="0 0 256 256"><path d="M199.8,125.2l-50.5-18.5L130.8,56.2a20,20,0,0,0-37.6,0L74.7,106.7,24.2,125.2a20,20,0,0,0,0,37.6l50.5,18.5,18.5,50.5a20,20,0,0,0,37.6,0l18.5-50.5,50.5-18.5a20,20,0,0,0,0-37.6Zm-60.5,34.3a19.7,19.7,0,0,0-11.8,11.8h0l-15.5,42-15.5-42a19.7,19.7,0,0,0-11.8-11.8L42.7,144l42-15.5a19.7,19.7,0,0,0,11.8-11.8l15.5-42,15.5,42a19.7,19.7,0,0,0,11.8,11.8l42,15.5ZM140,40a12,12,0,0,1,12-12h12V16a12,12,0,0,1,24,0V28h12a12,12,0,0,1,0,24H188V64a12,12,0,0,1-24,0V52H152A12,12,0,0,1,140,40ZM252,88a12,12,0,0,1-12,12h-4v4a12,12,0,0,1-24,0v-4h-4a12,12,0,0,1,0-24h4V72a12,12,0,0,1,24,0v4h4A12,12,0,0,1,252,88Z"/></svg>