<svg id="Flat" xmlns="http://www.w3.org/2000/svg" viewBox="0 0 256 256">
  <path d="M199.77344,125.2334,149.3457,106.6543,130.7666,56.22656a19.9996,19.9996,0,0,0-37.5332,0L74.6543,106.6543,24.22656,125.2334a19.9996,19.9996,0,0,0,0,37.5332L74.6543,181.3457l18.5791,50.42774a19.9996,19.9996,0,0,0,37.5332,0l18.5791-50.42774,50.42774-18.5791a19.9996,19.9996,0,0,0,0-37.5332Zm-60.45606,34.22949a19.97179,19.97179,0,0,0-11.85449,11.85449l.001-.001L112,213.28906,96.53711,171.31738a19.96863,19.96863,0,0,0-11.85352-11.85351L42.71094,144l41.97168-15.46289a19.96863,19.96863,0,0,0,11.85351-11.85352L112,74.71094l15.46289,41.97168a19.96863,19.96863,0,0,0,11.85352,11.85351L181.28906,144ZM140,40a12.0006,12.0006,0,0,1,12-12h12V16a12,12,0,0,1,24,0V28h12a12,12,0,0,1,0,24H188V64a12,12,0,0,1-24,0V52H152A12.0006,12.0006,0,0,1,140,40ZM252,88a12.0006,12.0006,0,0,1-12,12h-4v4a12,12,0,0,1-24,0v-4h-4a12,12,0,0,1,0-24h4V72a12,12,0,0,1,24,0v4h4A12.0006,12.0006,0,0,1,252,88Z"/>
</svg>
