<svg xmlns="http://www.w3.org/2000/svg" viewBox="0 0 256 256"><path d="M252,128a83.4,83.4,0,0,1-24.6,59.4,12.1,12.1,0,0,1-17,0,12,12,0,0,1,0-17,59.9,59.9,0,0,0,0-84.8,12,12,0,0,1,17-17A83.4,83.4,0,0,1,252,128ZM164,32V224a12,12,0,0,1-6.7,10.8A12.4,12.4,0,0,1,152,236a12.7,12.7,0,0,1-7.4-2.5L75.9,180H32a20.1,20.1,0,0,1-20-20V96A20.1,20.1,0,0,1,32,76H75.9l68.7-53.5a12.2,12.2,0,0,1,12.7-1.3A12,12,0,0,1,164,32ZM36,156H68V100H36ZM140,56.5,92,93.9v68.2l48,37.4Zm59.1,40.4a12,12,0,0,0-17,17,19.8,19.8,0,0,1,0,28.2,12,12,0,0,0,0,17,11.8,11.8,0,0,0,8.5,3.5,11.6,11.6,0,0,0,8.5-3.5,43.9,43.9,0,0,0,0-62.2Z"/></svg>