<svg id="Flat" xmlns="http://www.w3.org/2000/svg" viewBox="0 0 256 256">
  <path d="M157.27246,21.21973a11.99606,11.99606,0,0,0-12.63965,1.30761L75.88281,76H32A20.02229,20.02229,0,0,0,12,96v64a20.02229,20.02229,0,0,0,20,20H75.88281l68.75,53.47266A11.99983,11.99983,0,0,0,164,224V32A12.0007,12.0007,0,0,0,157.27246,21.21973ZM140,199.46484l-52.63281-40.9375A12.00231,12.00231,0,0,0,80,156H36V100H80a12.00231,12.00231,0,0,0,7.36719-2.52734L140,56.53516Zm108.48535-55.95019a12.0001,12.0001,0,0,1-16.9707,16.9707L216,144.9707l-15.51465,15.51465a12.0001,12.0001,0,0,1-16.9707-16.9707L199.0293,128l-15.51465-15.51465a12.0001,12.0001,0,0,1,16.9707-16.9707L216,111.0293l15.51465-15.51465a12.0001,12.0001,0,0,1,16.9707,16.9707L232.9707,128Z"/>
</svg>
