<svg id="Flat" xmlns="http://www.w3.org/2000/svg" viewBox="0 0 256 256">
  <path d="M251.98828,128a83.4495,83.4495,0,0,1-24.60351,59.39746,12.0001,12.0001,0,0,1-16.97071-16.9707,59.99934,59.99934,0,0,0,0-84.85352,12.0001,12.0001,0,0,1,16.97071-16.9707A83.4495,83.4495,0,0,1,251.98828,128ZM164,32V224a12.00034,12.00034,0,0,1-19.36719,9.47266L75.88281,180H32a20.02229,20.02229,0,0,1-20-20V96A20.02229,20.02229,0,0,1,32,76H75.88281l68.75-53.47266A11.99983,11.99983,0,0,1,164,32ZM36,156H67.98242V100H36ZM140,56.53516,91.98242,93.88281v68.23438L140,199.46484Zm59.09961,40.35156a12.0001,12.0001,0,1,0-16.96875,16.97265,19.99743,19.99743,0,0,1,0,28.28125,12.0001,12.0001,0,0,0,16.96875,16.97266,43.9981,43.9981,0,0,0,0-62.22656Z"/>
</svg>
