<svg id="Flat" xmlns="http://www.w3.org/2000/svg" viewBox="0 0 256 256">
  <path d="M157.27246,21.21973a11.99811,11.99811,0,0,0-12.63965,1.30761L75.88281,76H32A20.02229,20.02229,0,0,0,12,96v64a20.02229,20.02229,0,0,0,20,20H75.88281l68.75,53.47266A11.99983,11.99983,0,0,0,164,224V32A12.0007,12.0007,0,0,0,157.27246,21.21973ZM140,199.46484l-52.63281-40.9375A12.00231,12.00231,0,0,0,80,156H36V100H80a12.00231,12.00231,0,0,0,7.36719-2.52734L140,56.53516ZM203.98828,104v48a12,12,0,0,1-24,0V104a12,12,0,0,1,24,0Z"/>
</svg>
