<svg xmlns="http://www.w3.org/2000/svg" viewBox="0 0 256 256"><path d="M56.9,31.9A12,12,0,0,0,39.1,48.1L64.5,76H32A20.1,20.1,0,0,0,12,96v64a20.1,20.1,0,0,0,20,20H75.9l68.7,53.5A12,12,0,0,0,152,236a12.4,12.4,0,0,0,5.3-1.2A12,12,0,0,0,164,224V185.4l35.1,38.7a12.1,12.1,0,0,0,17,.8,12.1,12.1,0,0,0,.8-17ZM36,100H68v56H36Zm104,99.5L92,162.1V106.2L140,159ZM109,65.4a12,12,0,0,1,2.1-16.8l33.5-26.1a12.2,12.2,0,0,1,12.7-1.3A12,12,0,0,1,164,32V94.9a12,12,0,0,1-24,0V56.5l-14.1,11A12,12,0,0,1,109,65.4Zm73.1,48.5a12,12,0,0,1,17-17A43.8,43.8,0,0,1,212,128a45.1,45.1,0,0,1-5.3,21,12.1,12.1,0,0,1-10.6,6.3,11.8,11.8,0,0,1-5.7-1.5,12,12,0,0,1-4.8-16.3A19.4,19.4,0,0,0,188,128,19.7,19.7,0,0,0,182.1,113.9ZM252,128a84,84,0,0,1-19.1,53.3,12,12,0,1,1-18.6-15.2,59.9,59.9,0,0,0-3.9-80.5,12,12,0,0,1,17-17A83.9,83.9,0,0,1,252,128Z"/></svg>