<svg id="Flat" xmlns="http://www.w3.org/2000/svg" viewBox="0 0 256 256">
  <path d="M157.27246,21.21973a11.99811,11.99811,0,0,0-12.63965,1.30761L75.88281,76H32A20.02229,20.02229,0,0,0,12,96v64a20.02229,20.02229,0,0,0,20,20H75.88281l68.75,53.47266A11.99983,11.99983,0,0,0,164,224V32A12.0007,12.0007,0,0,0,157.27246,21.21973ZM36,100H67.98242v56H36Zm104,99.46484L91.98242,162.11719V93.88281L140,56.53516ZM211.98828,128a43.70862,43.70862,0,0,1-12.88867,31.11328,12.0001,12.0001,0,0,1-16.96875-16.97266,19.99743,19.99743,0,0,0,0-28.28125,12.0001,12.0001,0,1,1,16.96875-16.97265A43.70862,43.70862,0,0,1,211.98828,128Z"/>
</svg>
