<svg id="Flat" xmlns="http://www.w3.org/2000/svg" viewBox="0 0 256 256">
  <path d="M251.97656,128.01169a83.448,83.448,0,0,1-24.60351,59.39648,12.0001,12.0001,0,0,1-16.97071-16.9707,59.99816,59.99816,0,0,0,0-84.85254,12.0001,12.0001,0,0,1,16.97071-16.97071A83.44856,83.44856,0,0,1,251.97656,128.01169Zm-64,0a19.86458,19.86458,0,0,1-5.85742,14.14062A12.0001,12.0001,0,0,0,199.08789,159.125a43.9993,43.9993,0,0,0,.001-62.22657,12.0001,12.0001,0,0,0-16.97071,16.97071A19.86762,19.86762,0,0,1,187.97656,128.01169Zm28.90235,79.916a11.99985,11.99985,0,1,1-17.75782,16.14453L164,185.43893v38.57276a12.00033,12.00033,0,0,1-19.36719,9.47265l-68.75-53.47265H32a20.02229,20.02229,0,0,1-20-20v-64a20.02229,20.02229,0,0,1,20-20H64.52051L39.12109,48.07223A11.99985,11.99985,0,0,1,56.87891,31.9277ZM36,156.01169H67.99414v-56H36ZM140,159.039,91.99414,106.23239v55.90527L140,199.47555ZM119.52344,72.4736,140,56.54684v50.28223a12,12,0,0,0,24,0V32.01169A12.00051,12.00051,0,0,0,144.63281,22.539L104.78906,53.52829A12.00028,12.00028,0,1,0,119.52344,72.4736Z"/>
</svg>
