<svg id="Flat" xmlns="http://www.w3.org/2000/svg" viewBox="0 0 256 256">
  <path d="M239.97656,88v80a12,12,0,1,1-24,0V88a12,12,0,0,1,24,0ZM216.87891,207.9277a11.99985,11.99985,0,1,1-17.75782,16.14453L164,185.43893V224a12.00033,12.00033,0,0,1-19.36719,9.47265L75.88281,180H32a20.02229,20.02229,0,0,1-20-20V96A20.02229,20.02229,0,0,1,32,76H64.50977L39.12109,48.07223A11.99985,11.99985,0,0,1,56.87891,31.9277ZM140,159.039,86.32812,100H36v56H80a12.00231,12.00231,0,0,1,7.36719,2.52734L140,199.46383ZM125.85156,67.54,140,56.5361V94.93551a12,12,0,0,0,24,0V32a11.99913,11.99913,0,0,0-19.36719-9.47168L111.11719,48.59665A11.99951,11.99951,0,0,0,125.85156,67.54Zm66.125,83.36914a12.00059,12.00059,0,0,0,12-12V104a12,12,0,0,0-24,0v34.90918A12.0006,12.0006,0,0,0,191.97656,150.90915Z"/>
</svg>
