<svg id="Flat" xmlns="http://www.w3.org/2000/svg" viewBox="0 0 256 256">
  <path d="M56.87891,31.9277A11.99985,11.99985,0,0,0,39.12109,48.07223L64.52051,76.01169H32a20.02229,20.02229,0,0,0-20,20v64a20.02229,20.02229,0,0,0,20,20H75.88281l68.75,53.47265A12.00051,12.00051,0,0,0,164,224.01169V185.43893l35.12109,38.6333a11.99985,11.99985,0,0,0,17.75782-16.14453ZM36,100.01169H67.99414v56H36Zm104,99.46386L91.99414,162.13766V106.23239L140,159.039ZM109.01758,65.44137a12.00087,12.00087,0,0,1,2.10547-16.83984L144.63281,22.539A12.00051,12.00051,0,0,1,164,32.01169V94.93551a12,12,0,0,1-24,0V56.54684l-14.14258,11A11.99748,11.99748,0,0,1,109.01758,65.44137Zm73.10058,48.42774A12.0001,12.0001,0,0,1,199.08887,96.8984a44.019,44.019,0,0,1,7.57031,52.09375,12,12,0,1,1-21.08984-11.45507,20.01867,20.01867,0,0,0-3.45118-23.668Zm69.8584,14.14258a84.1446,84.1446,0,0,1-19.09277,53.32324,12.00009,12.00009,0,0,1-18.53711-15.24414,60.00315,60.00315,0,0,0-3.94434-80.50586,12.0001,12.0001,0,0,1,16.97071-16.97071A83.44856,83.44856,0,0,1,251.97656,128.01169Z"/>
</svg>
