<svg xmlns="http://www.w3.org/2000/svg" viewBox="0 0 256 256"><path d="M240,88v80a12,12,0,0,1-24,0V88a12,12,0,0,1,24,0ZM216.9,207.9a12.1,12.1,0,0,1-.8,17,12.1,12.1,0,0,1-17-.8L164,185.4V224a12,12,0,0,1-6.7,10.8A12.4,12.4,0,0,1,152,236a12.7,12.7,0,0,1-7.4-2.5L75.9,180H32a20.1,20.1,0,0,1-20-20V96A20.1,20.1,0,0,1,32,76H64.5L39.1,48.1A12,12,0,0,1,56.9,31.9ZM140,159,86.3,100H36v56H80a12.2,12.2,0,0,1,7.4,2.5l52.6,41ZM125.9,67.5l14.1-11V94.9a12,12,0,0,0,24,0V32a12,12,0,0,0-6.7-10.8,12.2,12.2,0,0,0-12.7,1.3L111.1,48.6a12,12,0,1,0,14.8,18.9ZM192,150.9a12,12,0,0,0,12-12V104a12,12,0,0,0-24,0v34.9A12,12,0,0,0,192,150.9Z"/></svg>