<svg xmlns="http://www.w3.org/2000/svg" viewBox="0 0 256 256"><path d="M140,32V64a12,12,0,0,1-24,0V32a12,12,0,0,1,24,0Zm84,84H192a12,12,0,0,0,0,24h32a12,12,0,0,0,0-24Zm-42.3,48.8a12,12,0,0,0-16.9,16.9l22.6,22.7a12,12,0,0,0,8.5,3.5,12.2,12.2,0,0,0,8.5-3.5,12,12,0,0,0,0-17ZM128,180a12,12,0,0,0-12,12v32a12,12,0,0,0,24,0V192A12,12,0,0,0,128,180ZM74.3,164.8,51.6,187.4a12,12,0,0,0,0,17,12.2,12.2,0,0,0,8.5,3.5,12,12,0,0,0,8.5-3.5l22.6-22.7a12,12,0,0,0-16.9-16.9ZM76,128a12,12,0,0,0-12-12H32a12,12,0,0,0,0,24H64A12,12,0,0,0,76,128ZM68.6,51.6a12,12,0,1,0-17,17L74.3,91.2a12,12,0,0,0,16.9,0,11.9,11.9,0,0,0,0-16.9Z"/></svg>