<svg xmlns="http://www.w3.org/2000/svg" viewBox="0 0 256 256"><path d="M250,138a12,12,0,0,1-24,0,94.1,94.1,0,0,0-94-94,84.1,84.1,0,0,0-84,84,74.1,74.1,0,0,0,74,74,64.1,64.1,0,0,0,64-64,54,54,0,0,0-54-54,44,44,0,0,0-44,44,34.1,34.1,0,0,0,34,34,24.1,24.1,0,0,0,24-24,14,14,0,0,0-14-14,3.6,3.6,0,0,0-2.8,1.2A12,12,0,0,1,124,148a20.1,20.1,0,0,1-20-20,28.1,28.1,0,0,1,28-28,38,38,0,0,1,38,38,48,48,0,0,1-48,48,58,58,0,0,1-58-58,68.1,68.1,0,0,1,68-68,78.1,78.1,0,0,1,78,78,88.1,88.1,0,0,1-88,88,98.2,98.2,0,0,1-98-98A108.1,108.1,0,0,1,132,20,118.1,118.1,0,0,1,250,138Z"/></svg>