<svg id="Flat" xmlns="http://www.w3.org/2000/svg" viewBox="0 0 256 256">
  <path d="M128,20A108,108,0,1,0,236,128,108.12186,108.12186,0,0,0,128,20Zm0,192a84,84,0,1,1,84-84A84.09562,84.09562,0,0,1,128,212Zm61.80566-90.18457a11.99833,11.99833,0,0,1-16.1582,5.18652,100.19158,100.19158,0,0,0-91.376.043,11.99988,11.99988,0,1,1-10.99316-21.334,124.19181,124.19181,0,0,1,113.34082-.05468A12.00015,12.00015,0,0,1,189.80566,121.8154ZM169.436,160.78219a11.99881,11.99881,0,0,1-16.13281,5.26563,55.94966,55.94966,0,0,0-50.68213.04A12.00045,12.00045,0,0,1,91.7207,144.705a79.95275,79.95275,0,0,1,72.44971-.05566A11.99964,11.99964,0,0,1,169.436,160.78219Z"/>
</svg>
