<svg xmlns="http://www.w3.org/2000/svg" viewBox="0 0 256 256"><path d="M108,36H48A12,12,0,0,0,36,48v60a12,12,0,0,0,12,12h60a12,12,0,0,0,12-12V48A12,12,0,0,0,108,36ZM96,96H60V60H96Z"/><path d="M208,36H148a12,12,0,0,0-12,12v60a12,12,0,0,0,12,12h60a12,12,0,0,0,12-12V48A12,12,0,0,0,208,36ZM196,96H160V60h36Z"/><path d="M108,136H48a12,12,0,0,0-12,12v60a12,12,0,0,0,12,12h60a12,12,0,0,0,12-12V148A12,12,0,0,0,108,136ZM96,196H60V160H96Z"/><path d="M208,136H148a12,12,0,0,0-12,12v60a12,12,0,0,0,12,12h60a12,12,0,0,0,12-12V148A12,12,0,0,0,208,136Zm-12,60H160V160h36Z"/></svg>