<svg id="Flat" xmlns="http://www.w3.org/2000/svg" viewBox="0 0 256 256">
  <path d="M112,36H48A12,12,0,0,0,36,48v64a12,12,0,0,0,12,12h64a12,12,0,0,0,12-12V48A12,12,0,0,0,112,36Zm-12,64H60V60h40ZM208,36H144a12,12,0,0,0-12,12v64a12,12,0,0,0,12,12h64a12,12,0,0,0,12-12V48A12,12,0,0,0,208,36Zm-12,64H156V60h40Zm-84,32H48a12,12,0,0,0-12,12v64a12,12,0,0,0,12,12h64a12,12,0,0,0,12-12V144A12,12,0,0,0,112,132Zm-12,64H60V156h40Zm108-64H144a12,12,0,0,0-12,12v64a12,12,0,0,0,12,12h64a12,12,0,0,0,12-12V144A12,12,0,0,0,208,132Zm-12,64H156V156h40Z"/>
</svg>
