<svg id="Flat" xmlns="http://www.w3.org/2000/svg" viewBox="0 0 256 256">
  <path d="M234.36523,169.95361a11.99979,11.99979,0,0,1-4.31884,16.41162l-96,56a11.999,11.999,0,0,1-12.09278,0l-96-56a11.99987,11.99987,0,0,1,12.09278-20.73046L128,218.10742l89.95361-52.47265A12.00065,12.00065,0,0,1,234.36523,169.95361Zm-16.41162-52.31884L128,170.10742,38.04639,117.63477a11.99987,11.99987,0,0,0-12.09278,20.73046l96,56a11.999,11.999,0,0,0,12.09278,0l96-56a11.99987,11.99987,0,1,0-12.09278-20.73046ZM20,80a11.99878,11.99878,0,0,1,5.95361-10.36523l96-56a11.999,11.999,0,0,1,12.09278,0l96,56a11.99973,11.99973,0,0,1,0,20.73046l-96,56a11.999,11.999,0,0,1-12.09278,0l-96-56A11.99878,11.99878,0,0,1,20,80Zm35.81543,0L128,122.10742,200.18457,80,128,37.89258Z"/>
</svg>
