<svg id="Flat" xmlns="http://www.w3.org/2000/svg" viewBox="0 0 256 256">
  <path d="M10.04639,110.419l112,64a12,12,0,0,0,11.90722,0l112-64a12,12,0,0,0,0-20.8379l-112-64a12.00319,12.00319,0,0,0-11.90722,0l-112,64a12,12,0,0,0,0,20.8379ZM128,49.82129,215.81348,100,128,150.17871,40.18652,100ZM250.419,142.0459a12.00027,12.00027,0,0,1-4.46534,16.37305l-112,64a12,12,0,0,1-11.90722,0l-112-64a12,12,0,1,1,11.90722-20.8379L128,198.17871l106.04639-60.59766A11.99839,11.99839,0,0,1,250.419,142.0459Z"/>
</svg>
