<svg id="Flat" xmlns="http://www.w3.org/2000/svg" viewBox="0 0 256 256">
  <path d="M236.55469,118.55176l-8.71778,7.25683a12.00033,12.00033,0,1,1-15.35351-18.44726l2.30371-1.917L211.794,105.25a11.99975,11.99975,0,1,1,1.55273-23.94922l11.54785.749a20.341,20.341,0,0,1,18.06934,14.13086A20.63618,20.63618,0,0,1,236.55469,118.55176Zm-32.31446,80.75a11.99992,11.99992,0,1,0-23.25976,5.91406l.63086,2.4834-2.16895-1.374a11.99973,11.99973,0,0,0-12.84375,20.27343l9.8252,6.22364a20.14016,20.14016,0,0,0,22.71972-.71289,20.615,20.615,0,0,0,7.8711-21.89551ZM175.97461,137.749a20.83426,20.83426,0,0,0-6.792,21.05762L170.376,163.499a12.00016,12.00016,0,1,0,23.25976-5.916l-.69433-2.73047,1.79882-1.499a11.99945,11.99945,0,1,0-15.35546-18.44336ZM140,72.51392V181.33423l3.07715,1.95a12.00025,12.00025,0,1,1-12.8457,20.27344L128,202.14355l-44.85938,28.4209a21.78025,21.78025,0,0,1-24.56933-.77246A22.3508,22.3508,0,0,1,50.044,206.05176l13.01464-51.19922L19.44531,118.55273a20.63817,20.63817,0,0,1-6.40918-22.37207A20.3406,20.3406,0,0,1,31.10352,82.0498l56.749-3.68261,21.21777-53.42774a20.317,20.317,0,0,1,37.86035,0l21.2168,53.42774,2.22559.14453a11.99981,11.99981,0,0,1-1.55469,23.94922l-4.542-.29492a20.51529,20.51529,0,0,1-17.623-12.89844ZM116,181.335V72.51367l-6.6543,16.75586A20.51381,20.51381,0,0,1,91.72461,102.166l-50.51172,3.27832L80.02637,137.749a20.83516,20.83516,0,0,1,6.792,21.05469L74.38867,207.69824Z"/>
</svg>
