<svg id="Flat" xmlns="http://www.w3.org/2000/svg" viewBox="0 0 256 256">
  <path d="M187.26367,235.98755a20.21544,20.21544,0,0,1-10.83984-3.16455L128,202.14355,83.14062,230.56421a21.77954,21.77954,0,0,1-24.56933-.77246,22.35,22.35,0,0,1-8.52734-23.74l13.01464-51.19934L19.44531,118.55225a20.63876,20.63876,0,0,1-6.40918-22.37256A20.34052,20.34052,0,0,1,31.10449,82.0498l56.74805-3.68286,21.21777-53.4281a20.31715,20.31715,0,0,1,37.86035.00061l21.2168,53.42749,56.74805,3.68286a20.34052,20.34052,0,0,1,18.06836,14.12989,20.63849,20.63849,0,0,1-6.40918,22.37243l-43.61328,36.3003,14.07324,55.36169a20.6147,20.6147,0,0,1-7.8711,21.895A20.19991,20.19991,0,0,1,187.26367,235.98755Zm2.00488-23.43775h0ZM128,177.46875a20.2369,20.2369,0,0,1,10.833,3.12695v.00025l42.77929,27.10278-12.42968-48.89392a20.83389,20.83389,0,0,1,6.792-21.05627l38.8125-32.3042-50.51074-3.27808a20.51669,20.51669,0,0,1-17.623-12.89832L128,42.29663,109.3457,89.26978a20.5153,20.5153,0,0,1-17.62207,12.89648l-50.51074,3.27808,38.81348,32.30481a20.833,20.833,0,0,1,6.791,21.05481L74.38867,207.698,117.167,180.59595A20.235,20.235,0,0,1,128,177.46875Zm-2.01074,23.40088.00293.00195-.00293-.0022Z"/>
</svg>
