<svg id="Flat" xmlns="http://www.w3.org/2000/svg" viewBox="0 0 256 256">
  <path d="M231.4248,109.2041,169.36426,86.63574,146.7959,24.57422a19.99984,19.99984,0,0,0-37.5918.001L86.63574,86.63574,24.57422,109.2041a19.99984,19.99984,0,0,0,.001,37.5918l62.06054,22.56836,22.56836,62.06152a19.99984,19.99984,0,0,0,37.5918-.001l22.56836-62.06054,62.06152-22.56836a19.99984,19.99984,0,0,0-.001-37.5918Zm-72.01562,38.24219a19.95591,19.95591,0,0,0-11.96289,11.96289l.001-.001L128,212.88672l-19.44629-53.47754A19.95279,19.95279,0,0,0,96.5918,147.44727L43.11328,128l53.47754-19.44629A19.95279,19.95279,0,0,0,108.55273,96.5918L128,43.11328l19.44629,53.47754a19.95279,19.95279,0,0,0,11.96191,11.96191L212.88672,128Z"/>
</svg>
