<svg id="Flat" xmlns="http://www.w3.org/2000/svg" viewBox="0 0 256 256">
  <path d="M227.69653,138.65039c.0354-.15674.06714-.314.09644-.47266.04126-.22363.07422-.44775.10278-.67334.0166-.1333.03613-.26562.04859-.40039.03393-.3667.05566-.73486.05566-1.104V88a60.06812,60.06812,0,0,0-60-60H88A60.06812,60.06812,0,0,0,28,88v80a60.06812,60.06812,0,0,0,60,60h48c.36938,0,.7373-.022,1.10425-.05566.13452-.0127.2666-.03223.3999-.04883.22559-.02832.45-.06153.67358-.10254.1587-.0293.31592-.061.47217-.09619.19336-.04395.38452-.09473.57569-.14795.16308-.0459.32666-.08887.48681-.14112.02735-.00878.05542-.01464.08252-.02392,27.627-9.209,78.37988-59.96191,87.58887-87.58887.009-.02734.01489-.05517.02392-.08252.052-.16015.09546-.32373.14112-.4873C227.60205,139.03418,227.65283,138.84326,227.69653,138.65039ZM52,168V88A36.04061,36.04061,0,0,1,88,52h80a36.04061,36.04061,0,0,1,36,36v36H184a60.06812,60.06812,0,0,0-60,60v20H88A36.04061,36.04061,0,0,1,52,168Zm96,27.62549V184a36.04061,36.04061,0,0,1,36-36h11.62573C183.96875,164.10791,164.10791,183.96875,148,195.62549Z"/>
</svg>
