<svg id="Flat" xmlns="http://www.w3.org/2000/svg" viewBox="0 0 256 256">
  <path d="M235.98437,95.69226c-.00439-.17346-.01416-.34619-.02612-.51965q-.02893-.423-.08691-.83716c-.021-.14868-.04151-.29663-.06812-.44495-.05761-.32483-.13086-.64343-.21411-.95862-.02-.07568-.02954-.15283-.051-.22827l-.07691-.269-.00122-.004L221.19629,42.50537A20.08558,20.08558,0,0,0,201.96582,28H54.03418A20.08544,20.08544,0,0,0,34.80371,42.50586L20.53992,92.43054l-.0011.004-.07691.269c-.02148.07544-.031.15259-.051.22827-.08325.31519-.1565.63379-.21423.95862-.02649.14832-.047.29627-.068.44495q-.05767.41455-.08691.83716c-.012.17346-.02173.34619-.02613.51965C20.01294,95.79553,20,95.89612,20,96v16a43.9292,43.9292,0,0,0,16,33.91577V208a20.0226,20.0226,0,0,0,20,20H200a20.0226,20.0226,0,0,0,20-20V145.91577A43.9292,43.9292,0,0,0,236,112V96C236,95.89612,235.98706,95.79553,235.98437,95.69226ZM212,112a19.98915,19.98915,0,0,1-9.04492,16.71313,11.97124,11.97124,0,0,0-1.877,1.08521A19.96427,19.96427,0,0,1,172,112v-4h40ZM54.92749,129.801a11.96308,11.96308,0,0,0-1.89429-1.095A19.98952,19.98952,0,0,1,44,112v-4H84v4a19.964,19.964,0,0,1-29.07251,17.801ZM108,108h40v4a20,20,0,0,1-40,0ZM57.05078,52H198.94922l9.14258,32H47.9082ZM196,204H60V155.80994c1.31836.1195,2.65088.19006,4,.19006a43.87253,43.87253,0,0,0,32-13.84766,43.89759,43.89759,0,0,0,64,0A43.87253,43.87253,0,0,0,192,156c1.34912,0,2.68164-.07056,4-.19006Z"/>
</svg>
