<svg xmlns="http://www.w3.org/2000/svg" viewBox="0 0 256 256"><path d="M236,95.7v-.5a2.8,2.8,0,0,1-.1-.9v-.4c-.1-.3-.1-.7-.2-1a.3.3,0,0,0-.1-.2v-.3h0L221.2,42.5A20.1,20.1,0,0,0,202,28H54A20.1,20.1,0,0,0,34.8,42.5L20.5,92.4h0v.3a.3.3,0,0,0-.1.2c-.1.3-.1.7-.2,1v.4a2.8,2.8,0,0,1-.1.9V112a43.9,43.9,0,0,0,16,33.9V208a20.1,20.1,0,0,0,20,20H200a20.1,20.1,0,0,0,20-20V145.9A43.9,43.9,0,0,0,236,112V95.7ZM212,112a20,20,0,0,1-9,16.7,11.8,11.8,0,0,0-1.9,1.1A19.7,19.7,0,0,1,192,132a20.1,20.1,0,0,1-20-20v-4h40ZM54.9,129.8a11.8,11.8,0,0,0-1.9-1.1A20,20,0,0,1,44,112v-4H84v4a20,20,0,0,1-29.1,17.8ZM108,108h40v4a20,20,0,0,1-40,0ZM57.1,52H198.9l9.2,32H47.9ZM196,204H60V155.8l4,.2a43.8,43.8,0,0,0,32-13.8,44,44,0,0,0,64,0A43.8,43.8,0,0,0,192,156l4-.2Z"/></svg>