<svg xmlns="http://www.w3.org/2000/svg" viewBox="0 0 256 256"><path d="M152.1,152c0-6.7-11.6-10.2-27.8-14.3-9-2.3-18.2-4.7-25.7-8.6-13.8-7.3-16.7-17.7-16.7-25.1,0-20.5,19.8-36,46.1-36,18.6,0,34.7,7.9,42,20.7a12.2,12.2,0,0,1-4.5,16.4,12,12,0,0,1-16.4-4.5c-2.4-4.3-9.9-8.6-21.1-8.6s-22.1,4.8-22.1,12c0,4.2,15.2,8.1,24.3,10.4s19.8,5.1,28.1,9.7c14.7,8.1,17.8,19.7,17.8,27.9,0,20.2-21.1,36-48.1,36s-48.1-15.8-48.1-36a12,12,0,0,1,24,0c0,2.2,2,4.8,5.2,7,4.8,3.2,11.7,5,18.9,5s14.1-1.8,18.9-5C150.1,156.8,152.1,154.2,152.1,152ZM228,48V208a20.1,20.1,0,0,1-20,20H48a20.1,20.1,0,0,1-20-20V48A20.1,20.1,0,0,1,48,28H208A20.1,20.1,0,0,1,228,48Zm-24,4H52V204H204Z"/></svg>