<svg id="Flat" xmlns="http://www.w3.org/2000/svg" viewBox="0 0 256 256">
  <path d="M152.06738,152c0-6.69873-11.51953-10.16186-27.793-14.32324-8.93164-2.28394-18.16748-4.64575-25.63427-8.58838C84.834,121.79836,81.936,111.42141,81.936,104c0-20.52344,19.80322-36,46.064-36,18.60107,0,34.68164,7.93726,41.9668,20.71436a11.99982,11.99982,0,1,1-20.84864,11.88769C146.67676,96.32033,139.19971,92,128,92c-10.65527,0-22.064,4.822-22.064,12,0,4.21509,15.20166,8.1023,24.28417,10.42481,9.707,2.48217,19.74463,5.04907,28.03418,9.63623,14.72266,8.14746,17.813,19.69043,17.813,27.939,0,20.187-21.11377,36-48.06738,36s-48.06738-15.813-48.06738-36a12,12,0,0,1,24,0c0,2.19922,1.94824,4.8086,5.21191,6.98023C113.93848,162.17043,120.811,164,128,164s14.06152-1.82959,18.85547-5.01977C150.11914,156.80862,152.06738,154.19924,152.06738,152ZM228,48V208a20.02292,20.02292,0,0,1-20,20H48a20.02292,20.02292,0,0,1-20-20V48A20.02276,20.02276,0,0,1,48,28H208A20.02276,20.02276,0,0,1,228,48Zm-24,4H52V204H204Z"/>
</svg>
