<svg xmlns="http://www.w3.org/2000/svg" viewBox="0 0 256 256"><path d="M227.8,52.6l-96-32a12.3,12.3,0,0,0-7.6,0L28.4,52.5h-.2l-.5.2-.6.3-.7.3-.4.2-.6.4-.3.2-.6.4a.2.2,0,0,1-.2.2l-.7.6a.1.1,0,0,1-.1.1l-.7.8-.2.3a.9.9,0,0,0-.4.6l-.3.3-.3.5c-.1.2-.2.3-.2.4l-.3.6-.2.4-.3.9a.8.8,0,0,0-.1.4,1.9,1.9,0,0,0-.2.7c0,.1-.1.3-.1.4s-.1.5-.1.7v.4A4.1,4.1,0,0,0,20,64v80a12,12,0,0,0,24,0V80.6l23.7,8a67.9,67.9,0,0,0,18.1,84.7,99.9,99.9,0,0,0-41.6,36.1,12,12,0,1,0,20.1,13.2,75.9,75.9,0,0,1,127.4,0,12.1,12.1,0,0,0,10.1,5.4,12,12,0,0,0,6.5-1.9,12.1,12.1,0,0,0,3.5-16.7,99.9,99.9,0,0,0-41.6-36.1,67.9,67.9,0,0,0,18.1-84.7l39.5-13.2a12,12,0,0,0,0-22.8Zm-99.8-8L186.1,64l-20.8,6.9h0L128,83.4,90.7,70.9h0L69.9,64ZM172,120A44,44,0,1,1,90.9,96.3l33.3,11.1a12.3,12.3,0,0,0,7.6,0l33.3-11.1A43.7,43.7,0,0,1,172,120Z"/></svg>