<svg id="Flat" xmlns="http://www.w3.org/2000/svg" viewBox="0 0 256 256">
  <path d="M128,56a72,72,0,1,0,72,72A72.08124,72.08124,0,0,0,128,56Zm0,120a48,48,0,1,1,48-48A48.05436,48.05436,0,0,1,128,176ZM116,36V16a12,12,0,0,1,24,0V36a12,12,0,0,1-24,0ZM40.31885,57.28906a11.99992,11.99992,0,1,1,16.9707-16.97021L71.43164,54.46094a12.0001,12.0001,0,0,1-16.9707,16.9707ZM36,140H16a12,12,0,0,1,0-24H36a12,12,0,0,1,0,24Zm35.43164,44.56836a12.00062,12.00062,0,0,1,0,16.9707L57.28955,215.68115a11.99992,11.99992,0,1,1-16.9707-16.97021l14.14209-14.14258A11.99975,11.99975,0,0,1,71.43164,184.56836ZM140,220v20a12,12,0,0,1-24,0V220a12,12,0,0,1,24,0Zm75.68115-21.28906a11.99992,11.99992,0,1,1-16.9707,16.97021l-14.14209-14.14209a12.0001,12.0001,0,0,1,16.9707-16.9707ZM252,128a12,12,0,0,1-12,12H220a12,12,0,0,1,0-24h20A12,12,0,0,1,252,128ZM184.56836,71.43164a12.00062,12.00062,0,0,1,0-16.9707l14.14209-14.14209a11.99992,11.99992,0,1,1,16.9707,16.97021L201.53906,71.43164a12.00033,12.00033,0,0,1-16.9707,0Z"/>
</svg>
