<svg xmlns="http://www.w3.org/2000/svg" viewBox="0 0 256 256"><path d="M128,56a72,72,0,1,0,72,72A72.1,72.1,0,0,0,128,56Zm0,120a48,48,0,1,1,48-48A48,48,0,0,1,128,176ZM116,28V20a12,12,0,0,1,24,0v8a12,12,0,0,1-24,0Zm74.2,37.8a12,12,0,0,1,0-17l5.7-5.7a12,12,0,0,1,17,17l-5.7,5.7a12,12,0,0,1-8.5,3.5A12.2,12.2,0,0,1,190.2,65.8ZM248,128a12,12,0,0,1-12,12h-8a12,12,0,0,1,0-24h8A12,12,0,0,1,248,128Zm-35.1,67.9a12.2,12.2,0,0,1,0,17,12.4,12.4,0,0,1-8.5,3.5,12,12,0,0,1-8.5-3.5l-5.7-5.7a12,12,0,0,1,17-17ZM140,228v8a12,12,0,0,1-24,0v-8a12,12,0,0,1,24,0ZM65.8,190.2a12,12,0,0,1,0,17l-5.7,5.7a12,12,0,0,1-8.5,3.5,12.4,12.4,0,0,1-8.5-3.5,12.2,12.2,0,0,1,0-17l5.7-5.7A12,12,0,0,1,65.8,190.2ZM40,128a12,12,0,0,1-12,12H20a12,12,0,0,1,0-24h8A12,12,0,0,1,40,128Zm3.1-67.9a12,12,0,0,1,17-17l5.7,5.7a12,12,0,0,1,0,17,12.2,12.2,0,0,1-8.5,3.5,12,12,0,0,1-8.5-3.5Z"/></svg>