<svg id="Flat" xmlns="http://www.w3.org/2000/svg" viewBox="0 0 256 256">
  <path d="M74.05322,45.11719a11.99973,11.99973,0,1,1,22.17285-9.1836l7.65332,18.47754a11.99973,11.99973,0,1,1-22.17285,9.1836ZM19.93311,112.22656l18.478,7.65332a12.00027,12.00027,0,0,0,9.18408-22.17383l-18.478-7.65332a12.00027,12.00027,0,0,0-9.18408,22.17383ZM213.002,120.7959a11.96028,11.96028,0,0,0,4.58692-.916l18.478-7.65332a12.00027,12.00027,0,0,0-9.18408-22.17383l-18.478,7.65332A12.00219,12.00219,0,0,0,213.002,120.7959ZM158.61523,70.08984a11.99064,11.99064,0,0,0,15.67823-6.49511l7.65332-18.47754a11.99973,11.99973,0,1,0-22.17285-9.1836l-7.65332,18.47754A12,12,0,0,0,158.61523,70.08984ZM252,160a12.00028,12.00028,0,0,1-12,12H178.68713c-.023,0-.04553.00293-.06848.00293-.01672,0-.03369-.00293-.05053-.00293H16a12,12,0,0,1,0-24H64a64,64,0,0,1,128,0h48A12.00028,12.00028,0,0,1,252,160ZM88,148h80a40,40,0,0,0-80,0Zm120,40H48a12,12,0,0,0,0,24H208a12,12,0,0,0,0-24Z"/>
</svg>
