<svg id="Flat" xmlns="http://www.w3.org/2000/svg" viewBox="0 0 256 256">
  <path d="M128,56a72,72,0,1,0,72,72A72.0814,72.0814,0,0,0,128,56Zm0,120a48,48,0,1,1,48-48A48.05436,48.05436,0,0,1,128,176ZM116,36V28a12,12,0,0,1,24,0v8a12,12,0,0,1-24,0ZM48.8042,65.77441A11.99992,11.99992,0,1,1,65.7749,48.8042l5.65674,5.657A11.99993,11.99993,0,1,1,54.46094,71.4314ZM48,128a12,12,0,0,1-12,12H28a12,12,0,0,1,0-24h8A12,12,0,0,1,48,128Zm23.43164,56.56836a12.00062,12.00062,0,0,1,0,16.9707L65.7749,207.1958a12.0001,12.0001,0,0,1-16.9707-16.9707l5.65674-5.65674A11.99975,11.99975,0,0,1,71.43164,184.56836ZM140,220v8a12,12,0,0,1-24,0v-8a12,12,0,0,1,24,0Zm67.1958-29.7749a12.0001,12.0001,0,0,1-16.9707,16.9707l-5.65674-5.65674a12.0001,12.0001,0,0,1,16.9707-16.9707ZM240,128a12,12,0,0,1-12,12h-8a12,12,0,0,1,0-24h8A12,12,0,0,1,240,128ZM184.56885,71.43164a11.99945,11.99945,0,0,1-.00049-16.97046l5.65674-5.657a11.99992,11.99992,0,1,1,16.9707,16.97021l-5.65674,5.657a11.99945,11.99945,0,0,1-16.97021.00024Z"/>
</svg>
