<svg id="Flat" xmlns="http://www.w3.org/2000/svg" viewBox="0 0 256 256">
  <path d="M128,56a72,72,0,1,0,72,72A72.0814,72.0814,0,0,0,128,56Zm0,120a48,48,0,1,1,48-48A48.05436,48.05436,0,0,1,128,176ZM116,28V20a12,12,0,0,1,24,0v8a12,12,0,0,1-24,0Zm74.22461,37.77417a11.99989,11.99989,0,0,1,.001-16.97046l5.65722-5.65674a11.99993,11.99993,0,1,1,16.96973,16.97119l-5.65723,5.65674a12,12,0,0,1-16.9707-.00073ZM248,128a12,12,0,0,1-12,12h-8a12,12,0,0,1,0-24h8A12,12,0,0,1,248,128Zm-35.147,67.88232A12.0001,12.0001,0,0,1,195.88232,212.853l-5.65722-5.65723a12.0001,12.0001,0,1,1,16.9707-16.9707ZM140,228v8a12,12,0,0,1-24,0v-8a12,12,0,0,1,24,0ZM65.7749,190.2251a12.00062,12.00062,0,0,1,0,16.9707L60.11768,212.853A12.0001,12.0001,0,0,1,43.147,195.88232l5.65723-5.65722A11.99973,11.99973,0,0,1,65.7749,190.2251ZM40,128a12,12,0,0,1-12,12H20a12,12,0,0,1,0-24h8A12,12,0,0,1,40,128Zm3.14746-67.88184A11.99993,11.99993,0,1,1,60.11719,43.147l5.65722,5.65674A11.99992,11.99992,0,1,1,48.80469,65.7749Z"/>
</svg>
