<svg xmlns="http://www.w3.org/2000/svg" viewBox="0 0 256 256"><path d="M74.1,45.1a12,12,0,1,1,22.1-9.2l7.7,18.5a12.1,12.1,0,0,1-6.5,15.7,12.5,12.5,0,0,1-4.6.9,12,12,0,0,1-11.1-7.4ZM19.9,112.2l18.5,7.7a12.5,12.5,0,0,0,4.6.9,12,12,0,0,0,4.6-23.1L29.1,90.1a12,12,0,1,0-9.2,22.1ZM213,120.8a12.5,12.5,0,0,0,4.6-.9l18.5-7.7a12,12,0,1,0-9.2-22.1l-18.5,7.6a12,12,0,0,0,4.6,23.1ZM158.6,70.1a12.5,12.5,0,0,0,4.6.9,12,12,0,0,0,11.1-7.4l7.6-18.5a12,12,0,1,0-22.1-9.2l-7.7,18.5A12.1,12.1,0,0,0,158.6,70.1ZM252,160a12,12,0,0,1-12,12H16a12,12,0,0,1,0-24H64a64,64,0,0,1,128,0h48A12,12,0,0,1,252,160ZM88,148h80a40,40,0,0,0-80,0Zm120,40H48a12,12,0,0,0,0,24H208a12,12,0,0,0,0-24Z"/></svg>