<svg xmlns="http://www.w3.org/2000/svg" viewBox="0 0 256 256"><path d="M128,56a72,72,0,1,0,72,72A72.1,72.1,0,0,0,128,56Zm0,120a48,48,0,1,1,48-48A48,48,0,0,1,128,176ZM116,28V12a12,12,0,0,1,24,0V28a12,12,0,0,1-24,0Zm74.2,37.8a12,12,0,0,1,0-17l11.3-11.3a12,12,0,0,1,17,17L207.2,65.8a12,12,0,0,1-8.5,3.5A12.2,12.2,0,0,1,190.2,65.8ZM256,128a12,12,0,0,1-12,12H228a12,12,0,0,1,0-24h16A12,12,0,0,1,256,128Zm-37.5,73.5a12,12,0,0,1,0,17A11.6,11.6,0,0,1,210,222a12,12,0,0,1-8.5-3.5l-11.3-11.3a12,12,0,0,1,17-17ZM140,228v16a12,12,0,0,1-24,0V228a12,12,0,0,1,24,0ZM65.8,190.2a12,12,0,0,1,0,17L54.5,218.5A12,12,0,0,1,46,222a11.6,11.6,0,0,1-8.5-3.5,12,12,0,0,1,0-17l11.3-11.3A12,12,0,0,1,65.8,190.2ZM28,140H12a12,12,0,0,1,0-24H28a12,12,0,0,1,0,24Zm9.5-85.5a12,12,0,0,1,17-17L65.8,48.8a12,12,0,0,1,0,17,12.2,12.2,0,0,1-8.5,3.5,12,12,0,0,1-8.5-3.5Z"/></svg>