<svg id="Flat" xmlns="http://www.w3.org/2000/svg" viewBox="0 0 256 256">
  <path d="M128,56a72,72,0,1,0,72,72A72.08124,72.08124,0,0,0,128,56Zm0,120a48,48,0,1,1,48-48A48.05436,48.05436,0,0,1,128,176ZM116,28V12a12,12,0,0,1,24,0V28a12,12,0,0,1-24,0Zm74.2251,37.77441a12.00062,12.00062,0,0,1,0-16.9707l11.314-11.31348a12.0001,12.0001,0,1,1,16.97071,16.97071l-11.314,11.31347a12.00033,12.00033,0,0,1-16.9707,0ZM256,128a12,12,0,0,1-12,12H228a12,12,0,0,1,0-24h16A12,12,0,0,1,256,128Zm-37.49023,73.53906a12.0001,12.0001,0,0,1-16.97071,16.97071l-11.314-11.31348a12.0001,12.0001,0,1,1,16.9707-16.9707ZM140,228v16a12,12,0,0,1-24,0V228a12,12,0,0,1,24,0ZM65.7749,190.22559a12.00062,12.00062,0,0,1,0,16.9707l-11.314,11.31348a12.0001,12.0001,0,1,1-16.97071-16.97071l11.314-11.31347A12.00018,12.00018,0,0,1,65.7749,190.22559ZM28,140H12a12,12,0,0,1,0-24H28a12,12,0,0,1,0,24Zm9.49023-85.53906A12.0001,12.0001,0,1,1,54.46094,37.49023l11.314,11.31348a12.0001,12.0001,0,0,1-16.9707,16.9707Z"/>
</svg>
