<svg xmlns="http://www.w3.org/2000/svg" viewBox="0 0 256 256"><path d="M228,48V152a20.1,20.1,0,0,1-20,20H109l3.5,3.5a12,12,0,0,1,0,17,12.1,12.1,0,0,1-17,0l-24-24a12,12,0,0,1,0-17l24-24a12,12,0,0,1,17,17L109,148h95V52H100v4a12,12,0,0,1-24,0V48A20.1,20.1,0,0,1,96,28H208A20.1,20.1,0,0,1,228,48ZM168,188a12,12,0,0,0-12,12v4H52V108h95l-3.5,3.5a12,12,0,0,0,0,17,12.1,12.1,0,0,0,17,0l24-24a12,12,0,0,0,0-17l-24-24a12,12,0,0,0-17,17L147,84H48a20.1,20.1,0,0,0-20,20V208a20.1,20.1,0,0,0,20,20H160a20.1,20.1,0,0,0,20-20v-8A12,12,0,0,0,168,188Z"/></svg>