<svg id="Flat" xmlns="http://www.w3.org/2000/svg" viewBox="0 0 256 256">
  <path d="M228,47.99316v104a20.0226,20.0226,0,0,1-20,20H108.96387l3.52148,3.52149a12.0001,12.0001,0,0,1-16.9707,16.9707l-24-24a12.03926,12.03926,0,0,1-1.42017-1.72278c-.01562-.02258-.03344-.04345-.04883-.06628-.17773-.26367-.33691-.53528-.49145-.80908-.03833-.06787-.08154-.13233-.11865-.20093-.13428-.24915-.2511-.5044-.36646-.7605-.04675-.10364-.09936-.20386-.14331-.30908-.0979-.23535-.17944-.4751-.26172-.71509-.04614-.13354-.09839-.26391-.13989-.39966-.06958-.22876-.12256-.46093-.1781-.69287-.0365-.15161-.0802-.30054-.111-.45434-.04969-.24952-.08118-.50147-.115-.75318-.01856-.13891-.046-.2749-.05982-.4154-.03906-.39514-.06006-.79163-.06006-1.18836L68,159.99316c0-.05529.00757-.10864.0083-.16381.00476-.33655.01807-.67286.0509-1.00806.0221-.22778.0625-.44959.097-.67346.0249-.16.042-.3208.07324-.47986.04981-.25318.117-.49951.18238-.74671.03393-.12829.06079-.25793.09912-.38537.07629-.25391.16882-.50025.26123-.74683.04419-.11816.08178-.23779.12988-.35486.103-.25036.22144-.49206.34045-.73364.05347-.10852.10035-.21936.15735-.32654.13843-.26049.29224-.511.449-.75976.051-.0813.0957-.16529.14892-.24536q.32264-.48579.68921-.9375l.00427-.00574a12.05594,12.05594,0,0,1,.89515-.98279l23.92822-23.92822a12.0001,12.0001,0,1,1,16.9707,16.9707l-3.50781,3.50781H204v-96H100v4a12,12,0,0,1-24,0v-8a20.0226,20.0226,0,0,1,20-20H208A20.0226,20.0226,0,0,1,228,47.99316ZM168,188a12.00028,12.00028,0,0,0-12,12v4H52V108h95.02246l-3.50781,3.50781a12.0001,12.0001,0,0,0,16.9707,16.97071l23.92822-23.92823a12.05428,12.05428,0,0,0,.89515-.98279l.00427-.00573q.36676-.45117.68921-.9375c.05322-.08008.0979-.16406.14892-.24536.15674-.24878.31055-.49915.449-.75977.05713-.10767.10425-.21875.158-.32764.11877-.24108.23694-.48217.3396-.73193.04858-.118.08642-.23877.1311-.35791.092-.24585.18408-.49121.26025-.74438.03833-.12745.06519-.25708.09912-.38538.06543-.24719.13257-.49353.18238-.7467.03125-.15906.04834-.31983.07324-.47986.03455-.22388.075-.44568.097-.67347.03283-.3352.04614-.6715.0509-1.008C187.99243,96.10864,188,96.0553,188,96l-.00024-.00464c0-.39673-.021-.79321-.06006-1.18835-.0138-.14051-.04126-.27649-.05982-.41541-.03381-.25171-.0653-.50366-.115-.75317-.03076-.15381-.07446-.30274-.111-.45435-.05554-.23193-.10852-.46411-.1781-.693-.04126-.135-.09326-.26477-.13916-.39783-.08252-.24072-.16431-.48144-.2627-.71753-.04357-.10425-.0957-.20361-.14221-.30639-.1156-.25684-.23279-.5127-.36731-.76246-.03711-.0686-.08032-.13305-.11865-.20092-.15454-.27381-.31372-.54541-.49145-.80909-.01539-.02282-.03321-.0437-.04883-.06628a12.03926,12.03926,0,0,0-1.42017-1.72278l-24-24a12.0001,12.0001,0,0,0-16.9707,16.97071L147.03613,84H48a20.0226,20.0226,0,0,0-20,20V208a20.0226,20.0226,0,0,0,20,20H160a20.0226,20.0226,0,0,0,20-20v-8A12.00028,12.00028,0,0,0,168,188Z"/>
</svg>
