<svg xmlns="http://www.w3.org/2000/svg" viewBox="0 0 256 256"><path d="M231.9,151.6,212.8,99a20.1,20.1,0,0,0-25.7-12l-53.4,19.5,9.9-56a20.4,20.4,0,0,0-3.3-15,19.9,19.9,0,0,0-12.9-8.2L72.2,17.6A20,20,0,0,0,49,33.8L24.9,171a49.3,49.3,0,0,0,8.4,37,47.2,47.2,0,0,0,31.3,19.4,44.9,44.9,0,0,0,7.3.6H212a20.1,20.1,0,0,0,20-20V165A19.3,19.3,0,0,0,231.9,151.6Zm-40.3-40.7L208,156l-88.7,32.3h0l9.6-54.5ZM52.8,194a24.9,24.9,0,0,1-4.3-18.9L72,41.9l47.3,8.3-23.7,134a24,24,0,0,1-27.3,19.5A23.6,23.6,0,0,1,52.8,194Zm93.6,10L208,181.6V204ZM69.9,191.8a11.9,11.9,0,0,1-9.7-13.9l2.1-11.8a12,12,0,0,1,23.6,4.2l-2.1,11.8A12,12,0,0,1,72,192Z"/></svg>