<svg id="Flat" xmlns="http://www.w3.org/2000/svg" viewBox="0 0 256 256">
  <path d="M231.92725,151.58789,212.77393,98.96582a20.02455,20.02455,0,0,0-25.63428-11.9541l-53.43213,19.44775,9.87353-55.99658A20,20,0,0,0,127.35791,27.293L72.21,17.56934A20.01871,20.01871,0,0,0,49.03955,33.792l-24.187,137.17285a49.31445,49.31445,0,0,0,8.42871,37.00391,47.29319,47.29319,0,0,0,38.64941,20.02832l.00782-.00024c.02075.00024.04077.00317.06152.00317H212a20.0226,20.0226,0,0,0,20-20V165.03A19.9019,19.9019,0,0,0,231.92725,151.58789Zm-40.33789-40.65527,16.417,45.10547L119.271,188.33521V188.335l9.62426-54.5835Zm-138.78125,83.083a25.16978,25.16978,0,0,1-4.31983-18.88281L71.98047,41.89844l47.271,8.335L95.63525,184.167a24.10812,24.10812,0,0,1-27.3374,19.5459A23.43449,23.43449,0,0,1,52.80811,194.01562ZM146.40308,204,208,181.58032V204ZM69.916,191.81738A11.99971,11.99971,0,0,1,60.18213,177.916l2.084-11.81739a12.00022,12.00022,0,0,1,23.63575,4.168l-2.084,11.81738a11.98628,11.98628,0,0,1-13.90185,9.7334Z"/>
</svg>
