<svg xmlns="http://www.w3.org/2000/svg" viewBox="0 0 256 256"><path d="M224.5,31.5A12.3,12.3,0,0,0,216,28h0l-63.8.2a12,12,0,0,0-8.9,3.9L71.8,110.8l-1.7-1.6a19.9,19.9,0,0,0-28.2,0L25.2,125.9a19.8,19.8,0,0,0,0,28.2l14,14.1L20.1,187.3a20,20,0,0,0,0,28.3l20.3,20.3a20.2,20.2,0,0,0,28.3,0l19.1-19.1,14.1,14a19.9,19.9,0,0,0,28.2,0l16.7-16.7a19.8,19.8,0,0,0,0-28.2l-1.6-1.7,78.7-71.5a12,12,0,0,0,3.9-8.9L228,40A12.3,12.3,0,0,0,224.5,31.5ZM116,211l-14.1-14a19.8,19.8,0,0,0-28.2,0L54.5,216.1,39.9,201.5,59,182.3a19.9,19.9,0,0,0,0-28.2L45,140l11-11,35.5,35.5h0L127,200ZM203.8,98.5l-75.6,68.7L117,156l51.5-51.5a12,12,0,0,0-17-17L100,139,88.8,127.8l68.7-75.6L204,52Z"/></svg>