<svg id="Flat" xmlns="http://www.w3.org/2000/svg" viewBox="0 0 256 256">
  <path d="M224.48535,31.51465A11.9987,11.9987,0,0,0,216,28h-.03809l-63.79882.20117a11.99773,11.99773,0,0,0-8.84082,3.92774l-71.53418,78.6875-1.64649-1.64649a20.02681,20.02681,0,0,0-28.28418.002L25.17285,125.85645a19.9986,19.9986,0,0,0-.001,28.28515l14.05859,14.05957L20.11719,187.31348a20.02339,20.02339,0,0,0,0,28.28466l20.28515,20.2837a19.9992,19.9992,0,0,0,28.28418.00048l19.11231-19.11279,14.05957,14.06055a20.02636,20.02636,0,0,0,28.28418-.002l16.68457-16.68457a19.9986,19.9986,0,0,0,.001-28.28515l-1.645-1.64551,78.688-71.53418a12.00066,12.00066,0,0,0,3.92774-8.8418L228,40.03809A12.00167,12.00167,0,0,0,224.48535,31.51465ZM116,211.02979,101.94141,196.9707a19.9986,19.9986,0,0,0-28.28418,0L54.544,216.083,39.916,201.45605,59.0293,182.34277a20.02222,20.02222,0,0,0,0-28.28369L44.9707,140,56,128.97021l35.51221,35.5127.00244.00244.00244.00244L127.0293,200Zm87.81543-112.5542-75.62207,68.74707L116.9707,156l51.51465-51.51465a12.0001,12.0001,0,0,0-16.9707-16.9707L100,139.0293,88.77734,127.80615l68.74707-75.62158,46.4375-.14648Z"/>
</svg>
