<svg xmlns="http://www.w3.org/2000/svg" viewBox="0 0 256 256"><path d="M240.5,63.5l-48-48a12,12,0,0,0-17,17L191,48,168,71,136.5,39.5a12,12,0,0,0-17,17L123,60,41.9,141.2A19.7,19.7,0,0,0,36,155.3V203L15.5,223.5a12,12,0,0,0,0,17,12.1,12.1,0,0,0,17,0L53,220h47.7a19.7,19.7,0,0,0,14.1-5.9L196,133l3.5,3.5a12.1,12.1,0,0,0,17,0,12,12,0,0,0,0-17L185,88l23-23,15.5,15.5a12.1,12.1,0,0,0,17,0A12,12,0,0,0,240.5,63.5ZM99,196H60V157l14-14,17.5,17.5a12.1,12.1,0,0,0,17,0,12,12,0,0,0,0-17L91,126l11-11,17.5,17.5a12.1,12.1,0,0,0,17,0,12,12,0,0,0,0-17L119,98l21-21,39,39Z"/></svg>