<svg xmlns="http://www.w3.org/2000/svg" viewBox="0 0 256 256"><path d="M244.5,58.2,198.3,29.8h-.2l-.7-.4-.4-.2-.7-.3-.4-.2h-.6l-.6-.2H160a12,12,0,0,0-12,12,20,20,0,0,1-40,0A12,12,0,0,0,96,28H61.3l-.6.2h-.5l-.6.2-.6.3-.4.2-.7.4h-.2L11.5,58.2A19.8,19.8,0,0,0,3.6,82.9l15.3,36.8A19.8,19.8,0,0,0,37.3,132H52v76a20.1,20.1,0,0,0,20,20H184a20.1,20.1,0,0,0,20-20V132h14.7a19.8,19.8,0,0,0,18.4-12.3l15.3-36.8A19.8,19.8,0,0,0,244.5,58.2ZM40,108,27,76.8,52,61.5V108Zm140,96H76V52h9.7a44,44,0,0,0,84.6,0H180Zm36-96H204V61.5l25,15.3Z"/></svg>