<svg id="Flat" xmlns="http://www.w3.org/2000/svg" viewBox="0 0 256 256">
  <path d="M244.46875,58.19873,198.28906,29.78027c-.07568-.04663-.15478-.082-.2312-.12671-.21069-.12353-.42419-.24121-.64282-.352q-.215-.10912-.43189-.20825-.31238-.14282-.63354-.26782c-.165-.06445-.3302-.12524-.49683-.18189-.19568-.0664-.39331-.127-.5935-.18359-.19141-.0542-.38282-.10376-.57556-.14795-.18006-.04126-.36121-.07764-.54407-.11084q-.32665-.05895-.654-.09961c-.16651-.02075-.33362-.03808-.50232-.052-.23523-.019-.46985-.03027-.70508-.0354C192.18481,28.012,192.094,28,192,28H160a12,12,0,0,0-12,12,20,20,0,0,1-40,0A12,12,0,0,0,96,28H64c-.08655,0-.17029.01123-.25635.01294-.248.00513-.49548.01685-.74365.0376-.15735.01294-.31323.02929-.469.04834q-.34314.0421-.6847.10449-.26073.04724-.517.10522-.30139.06885-.59986.1543c-.19336.05469-.38415.11328-.57324.17725-.17187.05835-.34229.12109-.51245.18774q-.316.12342-.62256.26343c-.14709.06738-.293.13721-.43835.21118-.21766.11035-.43042.22778-.64026.35083-.07642.04468-.15576.08032-.23169.127l-46.1792,28.418A19.90757,19.90757,0,0,0,3.55127,82.92383l15.3208,36.769A19.94751,19.94751,0,0,0,37.3335,132H52v76a20.02292,20.02292,0,0,0,20,20H184a20.02292,20.02292,0,0,0,20-20V132h14.6665a19.94838,19.94838,0,0,0,18.46192-12.30762l15.32031-36.769A19.90666,19.90666,0,0,0,244.46875,58.19873ZM40,108,27.01953,76.84766,52,61.47461V108Zm140,96H76V52h9.66309a44.00647,44.00647,0,0,0,84.67382,0H180Zm36-96H204V61.47461l24.98047,15.37305Z"/>
</svg>
