<svg id="Flat" xmlns="http://www.w3.org/2000/svg" viewBox="0 0 256 256">
  <path d="M242.82812,124.03418,138.376,19.582a19.95622,19.95622,0,0,0-18.06446-5.46973L39.65625,30.24316a11.99752,11.99752,0,0,0-9.41309,9.41309L14.1123,120.31152A19.95988,19.95988,0,0,0,19.582,138.376L124.0332,242.82715a19.99861,19.99861,0,0,0,28.28516.001l90.50879-90.50878a19.99861,19.99861,0,0,0,.001-28.28516ZM138.17676,223.0293,38.06543,122.919,52.208,52.208,122.919,38.06543,223.0293,138.17676ZM100,84A16,16,0,1,1,84,68,16.01833,16.01833,0,0,1,100,84Z"/>
</svg>
