<svg id="Flat" xmlns="http://www.w3.org/2000/svg" viewBox="0 0 256 256">
  <path d="M239.03223,116.89746l-42.667-64.001a19.96058,19.96058,0,0,0-16.64062-8.90527H24.00586a12.00018,12.00018,0,0,0-9.98535,18.65625L57.5835,127.999l-43.562,65.335a12.00035,12.00035,0,0,0,9.98438,18.65723H179.72461a19.96141,19.96141,0,0,0,16.64062-8.9043v-.001l42.667-64A19.9507,19.9507,0,0,0,239.03223,116.89746ZM177.584,187.99121H46.42969l32.60156-48.89746a19.94367,19.94367,0,0,0,.001-22.1875l-32.60547-48.915H177.584l40,60.001Z"/>
</svg>
