<svg id="Flat" xmlns="http://www.w3.org/2000/svg" viewBox="0 0 256 256">
  <path d="M229.2627,90.38672a108.03977,108.03977,0,1,1-33.8545-46.76563l20.10645-20.10644a12.0001,12.0001,0,0,1,16.9707,16.9707L170.4292,102.5415l-.00244.00245-.00244.00244-33.939,33.939a12.0001,12.0001,0,0,1-16.9707-16.9707l24.01172-24.01172a36.00613,36.00613,0,1,0,19.76269,39.645,11.99968,11.99968,0,1,1,23.52735,4.73633,59.9773,59.9773,0,1,1-25.72217-61.94922l17.20117-17.20117a83.92989,83.92989,0,1,0,28.46533,37.99658,11.99955,11.99955,0,1,1,22.502-8.34375Z"/>
</svg>
