<svg id="Flat" xmlns="http://www.w3.org/2000/svg" viewBox="0 0 256 256">
  <path d="M225.47656,81.43848A108.05633,108.05633,0,1,1,195.4082,43.62109l20.10645-20.10644a12.0001,12.0001,0,0,1,16.9707,16.9707L170.4292,102.5415l-.00244.00245-.00244.00244-33.939,33.939a12.0001,12.0001,0,0,1-16.9707-16.9707l24.01172-24.01172a36.01706,36.01706,0,1,0,20.415,30.4375,11.99979,11.99979,0,0,1,23.96093-1.36133,59.95943,59.95943,0,1,1-26.8081-46.644l17.20117-17.20117a83.915,83.915,0,1,0,25.5249,31.04834,11.99986,11.99986,0,1,1,21.65625-10.34375Z"/>
</svg>
