<svg xmlns="http://www.w3.org/2000/svg" viewBox="0 0 256 256"><path d="M244,112h-9.4L204.5,65.2A19.9,19.9,0,0,0,187.6,56H168.1L157.2,28.6A19.9,19.9,0,0,0,138.6,16H117.4A19.9,19.9,0,0,0,98.8,28.6L87.9,56H68.4a19.9,19.9,0,0,0-16.9,9.2L21.4,112H12a12,12,0,0,0,0,24h4v68a20.1,20.1,0,0,0,20,20H60a20.1,20.1,0,0,0,20-20V184h96v20a20.1,20.1,0,0,0,20,20h24a20.1,20.1,0,0,0,20-20V136h4a12,12,0,0,0,0-24ZM120.1,40h15.8l6.4,16H113.7ZM70.6,80H185.4L206,112H50ZM56,200H40V184H56Zm144,0V184h16v16Zm16-40H40V136H216Z"/></svg>