<svg id="Flat" xmlns="http://www.w3.org/2000/svg" viewBox="0 0 256 256">
  <path d="M216,60H156.9707l27.51465-27.51465a12.0001,12.0001,0,0,0-16.9707-16.9707L128,55.0293,88.48535,15.51465a12.0001,12.0001,0,0,0-16.9707,16.9707L99.0293,60H40A20.02229,20.02229,0,0,0,20,80V200a20.02229,20.02229,0,0,0,20,20H216a20.02229,20.02229,0,0,0,20-20V80A20.02229,20.02229,0,0,0,216,60ZM44,84h84V196H44ZM212,196H152V84h60Zm-44-80a16,16,0,1,1,16,16A16.00008,16.00008,0,0,1,168,116Zm32,48a16,16,0,1,1-16-16A16.00008,16.00008,0,0,1,200,164Z"/>
</svg>
