<svg xmlns="http://www.w3.org/2000/svg" viewBox="0 0 256 256"><path d="M235.9,129.4a5.3,5.3,0,0,0,.1-1.3,4.9,4.9,0,0,0-.1-1.2A107.6,107.6,0,0,0,129.1,20.1h-2.5A107.6,107.6,0,0,0,20.1,126.6a5.3,5.3,0,0,0-.1,1.3,3.7,3.7,0,0,0,.1,1.1A107.6,107.6,0,0,0,127,235.9h2.4A107.6,107.6,0,0,0,235.9,129.4ZM68.6,68.6a83.8,83.8,0,0,1,46.2-23.5,84.3,84.3,0,0,1-69.7,69.7A83.8,83.8,0,0,1,68.6,68.6ZM44.8,139.1a108.2,108.2,0,0,0,94.3-94.3,83.7,83.7,0,0,1,72.1,72.1,108.2,108.2,0,0,0-94.3,94.3,83.7,83.7,0,0,1-72.1-72.1Zm96.4,71.8a84.3,84.3,0,0,1,69.7-69.7,83.7,83.7,0,0,1-69.7,69.7Z"/></svg>