<svg id="Flat" xmlns="http://www.w3.org/2000/svg" viewBox="0 0 256 256">
  <path d="M235.93237,129.42432a11.90386,11.90386,0,0,0,.00428-2.49366A107.79642,107.79642,0,0,0,129.061,20.06348c-.39686-.04053-.79908-.0625-1.20655-.06348H127.833a12.23738,12.23738,0,0,0-1.26172.06738A107.79511,107.79511,0,0,0,20.0675,126.58252,12.11787,12.11787,0,0,0,20.001,127.854c.00073.40186.02282.79834.062,1.18995A107.79711,107.79711,0,0,0,126.96753,235.937c.38769.03858.78027.061,1.178.062h.02148a12.08877,12.08877,0,0,0,1.25391-.0664,107.79486,107.79486,0,0,0,106.51147-106.5083ZM68.603,68.603a83.52439,83.52439,0,0,1,46.18091-23.50635,84.02093,84.02093,0,0,1-69.68714,69.687A83.52513,83.52513,0,0,1,68.603,68.603Zm-23.82,70.46093a107.20272,107.20272,0,0,0,63.41809-30.86279A107.20274,107.20274,0,0,0,139.064,44.7832a83.75357,83.75357,0,0,1,72.153,72.15284A108.044,108.044,0,0,0,116.936,211.21729a83.75474,83.75474,0,0,1-72.153-72.15333Zm96.433,71.83936a84.02093,84.02093,0,0,1,69.68714-69.687,83.73861,83.73861,0,0,1-69.68714,69.687Z"/>
</svg>
