<svg id="Flat" xmlns="http://www.w3.org/2000/svg" viewBox="0 0 256 256">
  <path d="M72.50391,150.62988,100.791,128,72.50391,105.37012A11.9996,11.9996,0,0,1,87.49609,86.62988l40,32a11.99895,11.99895,0,0,1,0,18.74024l-40,32a11.9996,11.9996,0,1,1-14.99218-18.74024ZM143.99414,172h32a12,12,0,1,0,0-24h-32a12,12,0,0,0,0,24ZM236,56.48535v143.0293A20.50824,20.50824,0,0,1,215.51465,220H40.48535A20.50824,20.50824,0,0,1,20,199.51465V56.48535A20.50824,20.50824,0,0,1,40.48535,36h175.0293A20.50824,20.50824,0,0,1,236,56.48535ZM212,60H44V196H212Z"/>
</svg>
