<svg id="Flat" xmlns="http://www.w3.org/2000/svg" viewBox="0 0 256 256">
  <path d="M156,56V176a12,12,0,0,1-24,0V128H52v48a12,12,0,0,1-24,0V56a12,12,0,0,1,24,0v48h80V56a12,12,0,0,1,24,0Zm84,131.99414H215.99316l29.51075-39.37891c.11816-.15722.23144-.3164.34179-.47949A36.00408,36.00408,0,1,0,182.834,113.9834,11.9998,11.9998,0,0,0,204.9375,123.333a12.00428,12.00428,0,1,1,21.1543,11.165l-43.56543,58.13379a12.0031,12.0031,0,0,0,9.47168,19.36914c.13379,0,.26562-.002.39843-.00684H240a12,12,0,0,0,0-24Z"/>
</svg>
