<svg id="Flat" xmlns="http://www.w3.org/2000/svg" viewBox="0 0 256 256">
  <path d="M228,128a12,12,0,0,1-12,12H188.79858A41.93134,41.93134,0,0,1,196,164c0,32.97217-27.9624,56-68,56-30.38965,0-56.58447-16.04883-65.18311-39.93555a12.00006,12.00006,0,0,1,22.58155-8.1289C90.499,186.10449,108.01709,196,128,196c21.90088,0,44-9.89453,44-32,0-6.76636-2.50073-15.541-21.44434-24H40a12,12,0,0,1,0-24H152.92847c.0476-.00049.09521,0,.14282,0H216A12,12,0,0,1,228,128ZM86.00879,108.00586A12.00764,12.00764,0,0,0,97.16846,91.59912,20.7625,20.7625,0,0,1,96,84c0-13.00928,14.6543-24,32-24,16.2168,0,30.20264,9.49072,31.83936,21.60693a12.00017,12.00017,0,1,0,23.78418-3.21386C180.35791,54.2251,156.44482,36,128,36,97.12158,36,72,57.53271,72,84a44.03157,44.03157,0,0,0,2.84229,16.40576A12.00467,12.00467,0,0,0,86.00879,108.00586Z"/>
</svg>
