<svg id="Flat" xmlns="http://www.w3.org/2000/svg" viewBox="0 0 256 256">
  <path d="M228,128a12,12,0,0,1-12,12H185.86414A41.51648,41.51648,0,0,1,196,168c0,14.4541-7.81006,28.32227-21.42725,38.04883C161.97754,215.04541,145.438,220,128,220s-33.97754-4.95459-46.57275-13.95117C67.81006,196.32227,60,182.4541,60,168a12,12,0,0,1,24,0c0,15.17773,20.14941,28,44,28s44-12.82227,44-28c0-12.76221-9.29883-20.17627-35.34766-28H40a12,12,0,0,1,0-24h98.16858c.03479-.00073.0697.00049.10437,0H216A12,12,0,0,1,228,128ZM75.11133,100a12,12,0,0,0,12-12c0-15.9624,17.57812-28,40.88867-28,17.98047,0,33.18652,7.36914,38.73975,18.77344A12.00009,12.00009,0,1,0,188.31787,68.2666C178.62646,48.36377,155.51416,36,128,36,91.00732,36,63.11133,58.355,63.11133,88A12,12,0,0,0,75.11133,100Z"/>
</svg>
