<svg id="Flat" xmlns="http://www.w3.org/2000/svg" viewBox="0 0 256 256">
  <path d="M86.85742,50.89062a11.99923,11.99923,0,0,0-21.71484,0l-64,136a11.99956,11.99956,0,0,0,21.71484,10.21876L38.43848,164h75.123l15.58106,33.10938a11.99956,11.99956,0,0,0,21.71484-10.21876ZM49.73291,140,76,84.18262,102.26709,140ZM204,90.90039a46.5134,46.5134,0,0,0-26.89746,8.32129,11.99992,11.99992,0,0,0,13.78711,19.64453A22.96251,22.96251,0,0,1,204,114.90039c11.02832,0,20,7.17773,20,16v1.37891A48.30971,48.30971,0,0,0,204,128c-24.26172,0-44,17.49512-44,39s19.73828,39,44,39a47.94743,47.94743,0,0,0,23.1875-5.87549A11.98692,11.98692,0,0,0,248,192V130.90039C248,108.84473,228.26172,90.90039,204,90.90039ZM204,182c-10.84082,0-20-6.86914-20-15s9.15918-15,20-15,20,6.86914,20,15S214.84082,182,204,182Z"/>
</svg>
