<svg id="Flat" xmlns="http://www.w3.org/2000/svg" viewBox="0 0 256 256">
  <path d="M156,56V176a12,12,0,0,1-24,0V128H52v48a12,12,0,0,1-24,0V56a12,12,0,0,1,24,0v48h80V56a12,12,0,0,1,24,0ZM211.88184,136.002a40.83,40.83,0,0,0-4.48047.24512L210.042,120H240a12,12,0,0,0,0-24H199.835a12,12,0,0,0-11.84473,10.0752l-7.835,48.20214a12.00041,12.00041,0,0,0,20.3125,10.42774,16.2044,16.2044,0,0,1,22.82911-.001,15.91674,15.91674,0,0,1,0,22.5918,16.202,16.202,0,0,1-22.82911.001,11.99943,11.99943,0,1,0-16.93554,17.0039A40.05833,40.05833,0,1,0,211.88184,136.002Z"/>
</svg>
