<svg id="Flat" xmlns="http://www.w3.org/2000/svg" viewBox="0 0 256 256">
  <path d="M156,56V176a12,12,0,0,1-24,0V128H52v48a12,12,0,0,1-24,0V56a12,12,0,0,1,24,0v48h80V56a12,12,0,0,1,24,0Zm84.28809,91.7168a40.17538,40.17538,0,0,0-8.78125-6.66016l18.32226-26.18457a11.99971,11.99971,0,0,0-9.832-18.87988h-48a12,12,0,0,0,0,24h24.957l-14.7832,21.12793A11.99971,11.99971,0,0,0,212.00293,160a16,16,0,1,1-11.31348,27.31348,12.0001,12.0001,0,0,0-16.9707,16.9707,39.99987,39.99987,0,0,0,56.56934-56.56738Z"/>
</svg>
