<svg xmlns="http://www.w3.org/2000/svg" viewBox="0 0 256 256"><path d="M132,188a24,24,0,1,1-36-20.8V120a12,12,0,0,1,24,0v47.2A24,24,0,0,1,132,188ZM253.8,66.4a12,12,0,0,0-15.1-7.7L224,63.5V48a12,12,0,0,0-24,0V63.5l-14.7-4.8a12,12,0,1,0-7.4,22.8l14.7,4.8-9.1,12.5a12.1,12.1,0,0,0,2.6,16.8,12.5,12.5,0,0,0,7.1,2.3,11.8,11.8,0,0,0,9.7-5l9.1-12.5,9.1,12.5a11.8,11.8,0,0,0,9.7,5,12.5,12.5,0,0,0,7.1-2.3,12.1,12.1,0,0,0,2.6-16.8l-9.1-12.5,14.7-4.8A11.9,11.9,0,0,0,253.8,66.4ZM160,150.7a64,64,0,1,1-104,0V56a52,52,0,0,1,104,0ZM148,188a40.6,40.6,0,0,0-9.2-25.6,11.7,11.7,0,0,1-2.8-7.6V56a28,28,0,0,0-56,0v98.8a12.1,12.1,0,0,1-2.9,7.8A40,40,0,1,0,148,188Z"/></svg>