<svg id="Flat" xmlns="http://www.w3.org/2000/svg" viewBox="0 0 256 256">
  <path d="M132,188a24,24,0,1,1-36-20.771V120a12,12,0,0,1,24,0v47.229A24.00875,24.00875,0,0,1,132,188ZM253.84619,66.40332a12.00573,12.00573,0,0,0-15.12109-7.70508L224,63.48291V48a12,12,0,0,0-24,0V63.48291l-14.7251-4.78467a12.00048,12.00048,0,0,0-7.417,22.82617l14.72546,4.78467L183.48291,98.835a12,12,0,1,0,19.416,14.10742L212,100.41553l9.10107,12.52685a12,12,0,0,0,19.416-14.10742l-9.10046-12.52588,14.72546-4.78467A12.00086,12.00086,0,0,0,253.84619,66.40332ZM160,150.68945a63.9993,63.9993,0,1,1-104-.00195V56a52,52,0,0,1,104,0ZM148,188a40.03963,40.03963,0,0,0-9.22559-25.55371,12.00187,12.00187,0,0,1-2.77295-7.67285L136,56a28,28,0,0,0-56,0v98.77539a12.00265,12.00265,0,0,1-2.90625,7.83008A40.00041,40.00041,0,1,0,148,188Z"/>
</svg>
