<svg id="Flat" xmlns="http://www.w3.org/2000/svg" viewBox="0 0 256 256">
  <path d="M216,48a32,32,0,1,0,32,32A32.03635,32.03635,0,0,0,216,48Zm0,40a8,8,0,1,1,8-8A8.00917,8.00917,0,0,1,216,88ZM132,188a24,24,0,1,1-36-20.771V92a12,12,0,0,1,24,0v75.229A24.00875,24.00875,0,0,1,132,188ZM160,56A52,52,0,0,0,56,56v94.6875a64.0007,64.0007,0,1,0,104,.00195ZM108,228a40.00114,40.00114,0,0,1-30.90625-65.39453A12.00265,12.00265,0,0,0,80,154.77539V56a28,28,0,0,1,56,0l.00146,98.77344a12.00187,12.00187,0,0,0,2.77295,7.67285A40.00081,40.00081,0,0,1,108,228Z"/>
</svg>
