<svg id="Flat" xmlns="http://www.w3.org/2000/svg" viewBox="0 0 256 256">
  <path d="M234.86035,77.46924A28.01213,28.01213,0,0,0,213.86914,68h-49.875V56a44.04978,44.04978,0,0,0-44-44,12.00209,12.00209,0,0,0-10.7334,6.6333L72.57715,92h-40.583a20.02229,20.02229,0,0,0-20,20v88a20.02229,20.02229,0,0,0,20,20h169.875a28.044,28.044,0,0,0,27.78418-24.52686l12-96.00048A28.01426,28.01426,0,0,0,234.86035,77.46924ZM35.99414,116h32v80h-32ZM217.83887,96.49609l-12,96A4.0067,4.0067,0,0,1,201.86914,196H91.99414V106.8335L126.8125,37.19678A20.03319,20.03319,0,0,1,139.99414,56V80a12.00028,12.00028,0,0,0,12,12h61.875a4.00012,4.00012,0,0,1,3.96973,4.49609Z"/>
</svg>
