<svg id="Flat" xmlns="http://www.w3.org/2000/svg" viewBox="0 0 256 256">
  <path d="M241.65332,156.52686l-12-96A28.044,28.044,0,0,0,201.86914,36H31.99414a20.02229,20.02229,0,0,0-20,20v88a20.02229,20.02229,0,0,0,20,20h40.583l36.68359,73.3667A12.00209,12.00209,0,0,0,119.99414,244a44.04978,44.04978,0,0,0,44-44V188h49.875a27.99992,27.99992,0,0,0,27.78418-31.47314ZM67.99414,140h-32V60h32Zm148.874,22.64746A3.96068,3.96068,0,0,1,213.86914,164h-61.875a12.00028,12.00028,0,0,0-12,12v24a20.03319,20.03319,0,0,1-13.18164,18.80322L91.99414,149.1665V60h109.875a4.0067,4.0067,0,0,1,3.96973,3.50391l12,95.99951A3.96153,3.96153,0,0,1,216.86816,162.64746Z"/>
</svg>
