<svg id="Flat" xmlns="http://www.w3.org/2000/svg" viewBox="0 0 256 256">
  <path d="M227.9873,108.40039A20.05332,20.05332,0,0,0,244,88.80957V64a20.02229,20.02229,0,0,0-20-20H32A20.02229,20.02229,0,0,0,12,64V88.80957a20.05332,20.05332,0,0,0,16.0127,19.59082,20.00771,20.00771,0,0,1,0,39.19922A20.05332,20.05332,0,0,0,12,167.19043V192a20.02229,20.02229,0,0,0,20,20H224a20.02229,20.02229,0,0,0,20-20V167.19043a20.05332,20.05332,0,0,0-16.0127-19.59082,20.00771,20.00771,0,0,1,0-39.19922ZM36,170.34082a44.01164,44.01164,0,0,0,0-84.68164V68H84V188H36Zm184,0V188H108V68H220V85.65918a44.01164,44.01164,0,0,0,0,84.68164Z"/>
</svg>
