<svg id="Flat" xmlns="http://www.w3.org/2000/svg" viewBox="0 0 256 256">
  <path d="M224,72a44.04978,44.04978,0,0,1-44-44,12,12,0,0,0-12-12H128a12,12,0,0,0-12,12V156a16,16,0,1,1-22.85107-14.46631,12.0001,12.0001,0,0,0,6.85058-10.83886L100,89.05569a11.99969,11.99969,0,0,0-14.10352-11.814A80.00515,80.00515,0,1,0,180,156l-.00049-29.32812A107.476,107.476,0,0,0,224,136a12,12,0,0,0,12-12V84A12,12,0,0,0,224,72Zm-12,39.15381a83.22823,83.22823,0,0,1-36.99268-14.91211,12,12,0,0,0-19.00781,9.74121L156,156a56,56,0,1,1-80-50.63965l-.00049,18.64795A39.99736,39.99736,0,1,0,140,156V40h17.06006A68.19054,68.19054,0,0,0,212,94.94Z"/>
</svg>
