<svg xmlns="http://www.w3.org/2000/svg" viewBox="0 0 256 256"><path d="M224,72a44,44,0,0,1-44-44,12,12,0,0,0-12-12H128a12,12,0,0,0-12,12V156a16,16,0,0,1-32,0,16.3,16.3,0,0,1,9.1-14.5,12,12,0,0,0,6.9-10.8V89.1a11.9,11.9,0,0,0-4.3-9.2,12,12,0,0,0-9.8-2.7A80,80,0,1,0,180,156V126.7a107.9,107.9,0,0,0,44,9.3,12,12,0,0,0,12-12V84A12,12,0,0,0,224,72Zm-12,39.2a83.2,83.2,0,0,1-37-15,12.2,12.2,0,0,0-12.5-.9A12.1,12.1,0,0,0,156,106v50a56,56,0,1,1-80-50.6V124a40,40,0,1,0,64,32V40h17.1A67.9,67.9,0,0,0,212,94.9Z"/></svg>