<svg xmlns="http://www.w3.org/2000/svg" viewBox="0 0 256 256"><path d="M80,120a16,16,0,1,1-16-16A16,16,0,0,1,80,120Zm164,0v88a20.1,20.1,0,0,1-20,20H112a20.1,20.1,0,0,1-20-20v-9.6C84,207.1,74.5,212,64,212c-29.6,0-52-39.6-52-92S34.4,28,64,28H192C221.6,28,244,67.6,244,120ZM92,120c0-19.3-3.8-37.9-10.4-51.2C76.3,58.3,69.7,52,64,52S51.7,58.3,46.4,68.8C39.8,82.1,36,100.7,36,120s3.8,37.9,10.4,51.2C51.7,181.7,58.3,188,64,188s12.3-6.3,17.6-16.8C88.2,157.9,92,139.3,92,120Zm128,84V132h-8a12,12,0,0,1,0-24h7.5c-1.2-14.9-4.7-28.7-9.9-39.2S197.7,52,192,52H99.7c8.7,14.1,14.4,33.6,15.9,56H124a12,12,0,0,1,0,24h-8v72Zm-48-96h-8a12,12,0,0,0,0,24h8a12,12,0,0,0,0-24Z"/></svg>