<svg id="Flat" xmlns="http://www.w3.org/2000/svg" viewBox="0 0 256 256">
  <path d="M80,120a16,16,0,1,1-16-16A16.00008,16.00008,0,0,1,80,120Zm164,0v88a20.02292,20.02292,0,0,1-20,20H112a20.02292,20.02292,0,0,1-20-20v-9.614C84.01562,207.06787,74.46289,212,64,212c-29.645,0-52-39.55127-52-92,0-52.44849,22.355-92,52-92H192C221.645,28,244,67.55151,244,120ZM92,120c0-19.25879-3.80859-37.92114-10.44873-51.2019C76.292,58.27954,69.731,52,64,52S51.708,58.27954,46.44873,68.7981C39.80859,82.07886,36,100.74121,36,120s3.80859,37.92114,10.44873,51.20166C51.708,181.72021,58.269,188,64,188s12.292-6.27979,17.55127-16.79834C88.19141,157.92114,92,139.25879,92,120Zm128,84V132h-8a12,12,0,0,1,0-24h7.49585c-1.22925-14.85181-4.69824-28.70874-9.94458-39.2019C204.292,58.27954,197.731,52,192,52H99.7417c8.61206,14.106,14.34643,33.55957,15.85889,56H124a12,12,0,0,1,0,24h-8v72Zm-48-96h-8a12,12,0,0,0,0,24h8a12,12,0,0,0,0-24Z"/>
</svg>
