<svg id="Flat" xmlns="http://www.w3.org/2000/svg" viewBox="0 0 256 256">
  <path d="M237.96387,66.66113A20.02266,20.02266,0,0,0,223.06152,60H178.58691A51.98794,51.98794,0,0,0,77.41309,60H32.93848A20.00008,20.00008,0,0,0,13.06055,82.2085l14.22168,128A19.97945,19.97945,0,0,0,47.16016,228H208.83984a19.97945,19.97945,0,0,0,19.87793-17.7915L242.93945,82.208A20.0252,20.0252,0,0,0,237.96387,66.66113ZM128,44a28.03341,28.03341,0,0,1,25.293,16H102.707A28.03341,28.03341,0,0,1,128,44Zm77.25977,160H50.74023L37.40723,84H218.59277Z"/>
</svg>
