<svg xmlns="http://www.w3.org/2000/svg" viewBox="0 0 256 256"><path d="M135.5,104.5a12,12,0,0,1,17-17l24,24h0a6,6,0,0,1,.8.8l.3.4.4.5.3.6.3.4a1.4,1.4,0,0,1,.2.6l.3.5c.1.2.1.4.2.6s.1.3.2.5.1.4.1.6.1.4.2.6a1.3,1.3,0,0,0,.1.6v.5a9.6,9.6,0,0,1,0,2.4v.5a1.3,1.3,0,0,0-.1.6c-.1.2-.1.4-.2.6s-.1.4-.1.6-.1.4-.2.5-.1.4-.2.6l-.3.5a1.4,1.4,0,0,1-.2.6l-.3.4-.3.6-.4.5-.3.4-.8.8h0l-24,24a12.1,12.1,0,0,1-17,0,12,12,0,0,1,0-17L139,132H112a12,12,0,0,0-12,12v4a12,12,0,0,1-24,0v-4a36,36,0,0,1,36-36h27Zm111.3,37.6L142.1,246.8a19.8,19.8,0,0,1-28.2,0L9.2,142.1a19.9,19.9,0,0,1,0-28.2L113.9,9.2a19.8,19.8,0,0,1,28.2,0L246.8,113.9A19.9,19.9,0,0,1,246.8,142.1ZM227,128,128,29,29,128l99,99Z"/></svg>