<svg id="Flat" xmlns="http://www.w3.org/2000/svg" viewBox="0 0 256 256">
  <path d="M135.51465,104.48535a12.0001,12.0001,0,0,1,16.9707-16.9707l24,24c.01807.01806.03272.03808.05078.05615.25928.2627.5083.53613.74317.82227.11816.14355.2207.29541.33154.44336.12354.16552.25195.32714.36719.49951.11621.17383.21728.35449.32373.53271.09424.15772.19336.312.28027.47412.09668.18164.1792.36817.26611.55274.08008.16992.165.33691.23731.51123.07471.18017.13476.36377.20019.54687.0669.18653.13868.3711.19629.562.05518.18213.09571.36768.14209.55176.04932.19532.104.38819.14356.58741.042.2124.06689.42626.09765.64013.02442.17383.05762.34473.0752.52051a12.15428,12.15428,0,0,1,0,2.36914c-.01758.17578-.05078.34668-.0752.52051-.03076.21387-.05566.42773-.09765.64013-.03955.19922-.09424.39209-.14356.58741-.04638.18408-.08691.36963-.14209.55176-.05761.19091-.12939.37548-.19677.5625-.06495.18261-.12549.36621-.19971.54638-.07227.17383-.15723.34082-.23731.51074-.08691.18506-.16943.37159-.26611.55323-.08691.16211-.186.3164-.28027.47412-.10645.17822-.20752.35888-.32373.53271-.11524.17237-.24365.334-.36719.49951-.11084.14795-.21338.29981-.33154.44336-.23487.28614-.48389.55957-.74317.82227-.01806.01807-.03271.03809-.05078.05615l-24,24a12.0001,12.0001,0,0,1-16.9707-16.9707L139.0293,132H112a12.01312,12.01312,0,0,0-12,12v4a12,12,0,0,1-24,0v-4a36.04061,36.04061,0,0,1,36-36h27.0293ZM246.83008,142.1416l-104.688,104.68652a19.9986,19.9986,0,0,1-28.28418,0L9.17139,142.14258a20.02681,20.02681,0,0,1-.00147-28.28418L113.85791,9.17188a19.99919,19.99919,0,0,1,28.28564.001L246.82861,113.85742A20.02681,20.02681,0,0,1,246.83008,142.1416ZM227.02979,128,128,28.9707,28.97021,128,128,227.0293Z"/>
</svg>
