<svg id="Flat" xmlns="http://www.w3.org/2000/svg" viewBox="0 0 256 256">
  <path d="M188,20H68A36.04061,36.04061,0,0,0,32,56V184a36.04061,36.04061,0,0,0,36,36h4.00024l-9.59985,12.7998a11.99981,11.99981,0,1,0,19.19922,14.4004L101.99976,220h52.00048l20.40015,27.2002a11.99981,11.99981,0,0,0,19.19922-14.4004L183.99976,220H188a36.04061,36.04061,0,0,0,36-36V56A36.04061,36.04061,0,0,0,188,20ZM56,116V84h60v32Zm84-32h60v32H140ZM68,44H188a12.01312,12.01312,0,0,1,12,12v4H56V56A12.01312,12.01312,0,0,1,68,44ZM188,196H68a12.01312,12.01312,0,0,1-12-12V140H200v44A12.01312,12.01312,0,0,1,188,196Zm-84-28a16,16,0,1,1-16-16A16.01833,16.01833,0,0,1,104,168Zm80,0a16,16,0,1,1-16-16A16.01833,16.01833,0,0,1,184,168Z"/>
</svg>
