<svg xmlns="http://www.w3.org/2000/svg" viewBox="0 0 256 256"><path d="M227.9,121.6a7.6,7.6,0,0,0,.1-1.5v-.3a4.9,4.9,0,0,0-.1-1.2v-.4a.4.4,0,0,1-.1-.3,1.9,1.9,0,0,0-.2-.8v-.3L205.2,34.7A20.1,20.1,0,0,0,185.9,20H70.1A20.1,20.1,0,0,0,50.8,34.7L28.4,116.8v.3a1.9,1.9,0,0,0-.2.8.4.4,0,0,1-.1.3v.4a4.9,4.9,0,0,0-.1,1.2v.3a7.6,7.6,0,0,0,.1,1.5h0l.3,1.3v.2l22.4,82.1A20.1,20.1,0,0,0,70.1,220H72l-9.6,12.8a12,12,0,0,0,2.4,16.8,12,12,0,0,0,16.8-2.4L102,220h52l20.4,27.2a12,12,0,0,0,16.8,2.4,12,12,0,0,0,2.4-16.8L184,220h1.9a20.1,20.1,0,0,0,19.3-14.7l22.4-82.1V123l.3-1.3ZM73.2,44H182.8L201,110.5l-73,13.3L55,110.5ZM56.6,135.2,116,146v50H73.2ZM182.8,196H140V146l59.4-10.8ZM84,88A12,12,0,0,1,96,76h64a12,12,0,0,1,0,24H96A12,12,0,0,1,84,88Z"/></svg>