<svg xmlns="http://www.w3.org/2000/svg" viewBox="0 0 256 256"><path d="M188,20H68A36,36,0,0,0,32,56V184a36,36,0,0,0,36,36h4l-9.6,12.8a12,12,0,0,0,2.4,16.8,12,12,0,0,0,16.8-2.4L102,220h52l20.4,27.2a12,12,0,0,0,16.8,2.4,12,12,0,0,0,2.4-16.8L184,220h4a36,36,0,0,0,36-36V56A36,36,0,0,0,188,20ZM56,116V84h60v32Zm84-32h60v32H140ZM68,44H188a12,12,0,0,1,12,12v4H56V56A12,12,0,0,1,68,44ZM188,196H68a12,12,0,0,1-12-12V140H200v44A12,12,0,0,1,188,196Zm-84-28a16,16,0,1,1-16-16A16,16,0,0,1,104,168Zm80,0a16,16,0,1,1-16-16A16,16,0,0,1,184,168Z"/></svg>