<svg id="Flat" xmlns="http://www.w3.org/2000/svg" viewBox="0 0 256 256">
  <path d="M242.71533,210.63379l-56-112a11.99936,11.99936,0,0,0-21.46582,0l-20.50317,41.00647a84.11408,84.11408,0,0,1-38.76-13.44092A107.568,107.568,0,0,0,131.31226,68h20.67016a12,12,0,0,0,0-24h-52V32a12,12,0,0,0-24,0V44h-52a12,12,0,0,0,0,24h83.12915a83.6648,83.6648,0,0,1-19.14184,42.33228A83.5928,83.5928,0,0,1,75.60107,90.99121a12.00006,12.00006,0,0,0-21.80859,10.01953,107.46211,107.46211,0,0,0,16.19934,25.21619A83.48908,83.48908,0,0,1,23.98242,140a12,12,0,1,0,0,24,107.42278,107.42278,0,0,0,64.031-21.08521,108.42737,108.42737,0,0,0,45.3855,19.41993l-24.14942,48.29907a11.99965,11.99965,0,1,0,21.46582,10.73242L143.39856,196h65.16772l12.68323,25.36621a11.99965,11.99965,0,1,0,21.46582-10.73242ZM155.39868,172l20.58374-41.167L196.56616,172Z"/>
</svg>
