<svg id="Flat" xmlns="http://www.w3.org/2000/svg" viewBox="0 0 256 256">
  <path d="M242.71533,210.63379l-56-112a11.99936,11.99936,0,0,0-21.46582,0L144.7439,139.645A83.99623,83.99623,0,0,1,105.969,126.22,107.56856,107.56856,0,0,0,131.31226,68h20.67016a12,12,0,0,0,0-24h-52V32a12,12,0,0,0-24,0V44h-52a12,12,0,0,0,0,24h83.12915a83.66574,83.66574,0,0,1-19.14831,42.34A83.59425,83.59425,0,0,1,72.76367,83.99805a11.99984,11.99984,0,1,0-22.625,8.00586,107.50012,107.50012,0,0,0,19.84815,34.22631A83.48915,83.48915,0,0,1,23.98242,140a12,12,0,1,0,0,24,107.42327,107.42327,0,0,0,64.02-21.07715,108.17382,108.17382,0,0,0,45.39661,19.41187l-24.14954,48.29907a11.99965,11.99965,0,1,0,21.46582,10.73242L143.39856,196h65.16772l12.68323,25.36621a11.99965,11.99965,0,1,0,21.46582-10.73242ZM155.39868,172l20.58374-41.167L196.56616,172Z"/>
</svg>
