<svg xmlns="http://www.w3.org/2000/svg" viewBox="0 0 256 256"><path d="M242.7,210.6l-56-112a12,12,0,0,0-21.4,0l-20.5,41A84.2,84.2,0,0,1,106,126.2,107.3,107.3,0,0,0,131.3,68H152a12,12,0,0,0,0-24H100V32a12,12,0,0,0-24,0V44H24a12,12,0,0,0,0,24h83.1A83.3,83.3,0,0,1,88,110.3,83.8,83.8,0,0,1,75.6,91a12,12,0,1,0-21.8,10A103.4,103.4,0,0,0,70,126.2,83.3,83.3,0,0,1,24,140a12,12,0,0,0,0,24,107,107,0,0,0,64-21.1,108.3,108.3,0,0,0,45.4,19.4l-24.1,48.3a12,12,0,1,0,21.4,10.8L143.4,196h65.2l12.7,25.4a12,12,0,0,0,21.4-10.8ZM155.4,172,176,130.8,196.6,172Z"/></svg>