<svg id="Flat" xmlns="http://www.w3.org/2000/svg" viewBox="0 0 256 256">
  <path d="M208,28H48A20.02229,20.02229,0,0,0,28,48V155.88379c-.00049.03906-.00586.07715-.00586.11621s.00537.07715.00586.11621V208a20.02229,20.02229,0,0,0,20,20H208a20.02229,20.02229,0,0,0,20-20V48A20.02229,20.02229,0,0,0,208,28Zm-4,24v92H179.30762a19.87579,19.87579,0,0,0-14.14258,5.85742L147.02393,168H108.96436L90.82129,149.85645A19.871,19.871,0,0,0,76.68066,144H52V52ZM52,204V168H75.02393L93.167,186.14355A19.871,19.871,0,0,0,107.30762,192h41.373a19.87577,19.87577,0,0,0,14.14258-5.85742L180.96436,168H204v36Z"/>
</svg>
