<svg xmlns="http://www.w3.org/2000/svg" viewBox="0 0 256 256"><path d="M168,116h48a20.1,20.1,0,0,0,20-20V48a20.1,20.1,0,0,0-20-20H168a20.1,20.1,0,0,0-20,20V60h-4a36,36,0,0,0-36,36v20H92v-8A20.1,20.1,0,0,0,72,88H32a20.1,20.1,0,0,0-20,20v40a20.1,20.1,0,0,0,20,20H72a20.1,20.1,0,0,0,20-20v-8h16v20a36,36,0,0,0,36,36h4v12a20.1,20.1,0,0,0,20,20h48a20.1,20.1,0,0,0,20-20V160a20.1,20.1,0,0,0-20-20H168a20.1,20.1,0,0,0-20,20v12h-4a12,12,0,0,1-12-12V96a12,12,0,0,1,12-12h4V96A20.1,20.1,0,0,0,168,116ZM68,144H36V112H68Zm104,20h40v40H172Zm0-112h40V92H172Z"/></svg>