<svg xmlns="http://www.w3.org/2000/svg" viewBox="0 0 256 256"><path d="M233.5,184.6l-41-52.6H208a12.1,12.1,0,0,0,10.8-6.7,12,12,0,0,0-1.3-12.6l-80-104a12,12,0,0,0-19,0l-80,104a12,12,0,0,0-1.3,12.6A12.1,12.1,0,0,0,48,132H63.5l-41,52.6a12.2,12.2,0,0,0-1.3,12.7A12,12,0,0,0,32,204h84v36a12,12,0,0,0,24,0V204h84a12,12,0,0,0,10.8-6.7A12.2,12.2,0,0,0,233.5,184.6ZM56.5,180l41-52.6a12.2,12.2,0,0,0,1.3-12.7A12,12,0,0,0,88,108H72.4L128,35.7,183.6,108H168a12,12,0,0,0-10.8,6.7,12.2,12.2,0,0,0,1.3,12.7l41,52.6Z"/></svg>