<svg id="Flat" xmlns="http://www.w3.org/2000/svg" viewBox="0 0 256 256">
  <path d="M233.47217,184.63281,192.53564,132H208a12.0002,12.0002,0,0,0,9.51172-19.31641l-80-104a12.00029,12.00029,0,0,0-19.02344,0l-80,104A12.0002,12.0002,0,0,0,48,132H63.46436L22.52783,184.63281A11.99982,11.99982,0,0,0,32,204h84v36a12,12,0,0,0,24,0V204h84a11.99982,11.99982,0,0,0,9.47217-19.36719ZM56.53564,180l40.93653-52.63281A11.99982,11.99982,0,0,0,88,108H72.37012L128,35.68164,183.62988,108H168a11.99982,11.99982,0,0,0-9.47217,19.36719L199.46436,180Z"/>
</svg>
