<svg id="Flat" xmlns="http://www.w3.org/2000/svg" viewBox="0 0 256 256">
  <path d="M201.17578,59.626a80.0291,80.0291,0,0,0-146.35156,0A76.28622,76.28622,0,0,0,12,127.78809c-.11133,40.97461,33.10352,75.15234,74.044,76.1875A75.63446,75.63446,0,0,0,116,198.667V232a12,12,0,0,0,24,0V198.666A75.64568,75.64568,0,0,0,167.99609,204c.65235,0,1.30811-.00781,1.96289-.02441,40.94-1.03614,74.1543-35.21485,74.041-76.19043A76.28869,76.28869,0,0,0,201.17578,59.626ZM169.35254,179.9834A51.54975,51.54975,0,0,1,140,171.79883V135.4165l41.36621-20.6831a12.00009,12.00009,0,1,0-10.73242-21.4668L140,108.5835V88a12,12,0,0,0-24,0v44.5835L85.36621,117.2666a12.00009,12.00009,0,0,0-10.73242,21.4668L116,159.4165v12.3833a51.50735,51.50735,0,0,1-29.3501,8.1836A51.999,51.999,0,0,1,66.27344,80.75879a19.94759,19.94759,0,0,0,10.0664-10.41992,56.02853,56.02853,0,0,1,103.3208.00195,19.94455,19.94455,0,0,0,10.065,10.417,51.99941,51.99941,0,0,1-20.37305,99.22559Z"/>
</svg>
