<svg xmlns="http://www.w3.org/2000/svg" viewBox="0 0 256 256"><path d="M201.2,59.6a80.1,80.1,0,0,0-146.4,0A76.4,76.4,0,0,0,12,127.8c-.1,41,33.1,75.1,74,76.2a77.8,77.8,0,0,0,30-5.3V232a12,12,0,0,0,24,0V198.7a75.7,75.7,0,0,0,28,5.3h2c40.9-1.1,74.1-35.2,74-76.2A76.4,76.4,0,0,0,201.2,59.6ZM169.4,180a51.7,51.7,0,0,1-29.4-8.2V135.4l41.4-20.7a12,12,0,0,0-10.8-21.4L140,108.6V88a12,12,0,0,0-24,0v44.6L85.4,117.3a12,12,0,0,0-10.8,21.4L116,159.4v12.4a52,52,0,1,1-49.7-91,19.8,19.8,0,0,0,10-10.5,56.1,56.1,0,0,1,103.4,0,19.8,19.8,0,0,0,10,10.5A52,52,0,0,1,169.4,180Z"/></svg>