<svg id="Flat" xmlns="http://www.w3.org/2000/svg" viewBox="0 0 256 256">
  <path d="M233.71191,211.86438c-.17529.025-.34765.05847-.52539.07581-.394.03881-.78906.05981-1.18408.05981h-64a12,12,0,1,1,0-24h35.0293l-67.0293-67.0293-31.51465,31.51465a11.99973,11.99973,0,0,1-16.9707,0l-72-72a12.0001,12.0001,0,0,1,16.9707-16.9707L96.00244,127.0293l31.51465-31.51465a11.99973,11.99973,0,0,1,16.9707,0l75.51465,75.51465V136a12,12,0,0,1,24,0v63.99487q0,.59657-.06006,1.19141c-.01611.16748-.04785.33-.07129.49536-.03125.22241-.0581.44531-.10156.66614-.03857.19275-.0918.37951-.13916.569-.04736.19031-.08935.38147-.14648.56982-.05664.1875-.12744.36841-.19287.552-.06641.18567-.12793.37256-.20362.55542-.07129.17188-.15478.33655-.23388.50415-.08789.18775-.17139.37659-.27.56043-.085.15881-.18213.30957-.27393.464-.1084.18188-.21143.36572-.33008.54272-.11328.16944-.23974.32874-.36133.492-.1123.15027-.21679.3042-.33691.45019-.2334.28467-.48145.55689-.73975.81873-.019.01916-.03466.04016-.05371.0592s-.04.03443-.05908.05322c-.26123.25831-.5332.50586-.81787.73951-.1499.12317-.30762.23071-.46191.34546-.15967.11865-.315.24243-.48047.35327-.17823.11938-.36328.22314-.54639.332-.15332.09131-.30322.18762-.46094.27221-.18408.09864-.37353.18238-.562.27063-.167.07874-.33105.16224-.50244.23328-.18213.07544-.36816.13648-.55322.20239-.18457.06629-.3667.13721-.55567.19446-.18359.05554-.36963.09619-.55468.1427-.19483.04907-.38721.10352-.58545.14282C234.13721,211.80908,233.92432,211.834,233.71191,211.86438Z"/>
</svg>
