<svg id="Flat" xmlns="http://www.w3.org/2000/svg" viewBox="0 0 256 256">
  <path d="M244.00244,56.00513V120a12,12,0,0,1-24,0V84.9707l-75.51465,75.51465a11.99973,11.99973,0,0,1-16.9707,0L96.00244,128.9707,32.48779,192.48535a12.0001,12.0001,0,0,1-16.9707-16.9707l72-72a11.99973,11.99973,0,0,1,16.9707,0l31.51465,31.51465L203.03174,68h-35.0293a12,12,0,0,1,0-24h63.99512c.39746-.00024.79541.02075,1.1914.06006.167.01636.32911.04785.49366.071.22314.0315.44629.05786.66748.10181.19238.03809.37793.09131.56689.13843.19092.04761.3833.09009.57276.14721.18505.05616.36377.126.54492.19068.18847.06714.37793.12939.56347.2063.16846.06982.33008.1521.49415.22949.19091.08936.3833.17432.57031.27441.15527.0835.30273.17847.4541.26856.18506.10986.37207.21484.55225.33545.16455.11035.31884.2334.478.35156.15479.11523.31348.22314.46387.34692.28467.23365.55664.4812.81787.73951.019.01879.04.03418.05908.05322s.03467.04.05371.05908c.2583.262.50635.53418.73975.81885.12012.146.22461.2998.33691.45019.12159.16309.24805.32251.36133.49195.11865.177.22168.36084.33008.54272.0918.1543.189.30518.27393.46387.09863.18408.18213.37329.2705.56128.07862.16723.16211.33179.2334.50317.07569.18311.13721.37036.20362.55664.06591.18311.13623.36377.19287.551.05713.18823.09912.37964.14648.56982.04736.18946.10059.37622.13916.56909.04346.22071.07031.44361.10156.666.02344.16553.05518.32788.07129.49536Q244.00171,55.40808,244.00244,56.00513Z"/>
</svg>
