<svg id="Flat" xmlns="http://www.w3.org/2000/svg" viewBox="0 0 256 256">
  <path d="M251.99511,119.90771c-.001-.11962-.01367-.23925-.01831-.35937-.01269-.34033-.03442-.67725-.0747-1.00977-.01709-.13769-.041-.27392-.063-.41113-.05152-.32861-.115-.65234-.19263-.97168-.03027-.124-.06128-.24756-.09546-.37109q-.1516-.54566-.353-1.06934c-.02149-.05664-.03418-.11523-.05665-.17187l-.07275-.18164c-.00635-.01563-.012-.03125-.01855-.04639l-13.897-34.74316A19.90337,19.90337,0,0,0,218.58374,68h-30.584V64a12.00028,12.00028,0,0,0-12-12h-152a20.02229,20.02229,0,0,0-20,20V184a20.02229,20.02229,0,0,0,20,20H34.064a35.99246,35.99246,0,0,0,67.87158,0H154.064a35.99246,35.99246,0,0,0,67.87158,0h10.06421a20.02229,20.02229,0,0,0,20-20V120C251.99975,119.96875,251.99536,119.939,251.99511,119.90771ZM215.87573,92l6.39941,16H187.99975V92Zm-51.876-16v56h-136V76Zm-136,80h136v9.1958A36.11342,36.11342,0,0,0,154.064,180H101.93554A35.99246,35.99246,0,0,0,34.064,180H27.99975Zm40,48a12,12,0,1,1,12-12A12.01312,12.01312,0,0,1,67.99975,204Zm120,0a12,12,0,1,1,12-12A12.01312,12.01312,0,0,1,187.99975,204Zm40-24h-6.06421a36.057,36.057,0,0,0-33.93579-24V132h40Z"/>
</svg>
