<svg xmlns="http://www.w3.org/2000/svg" viewBox="0 0 256 256"><path d="M252.1,119.9v-.4a3.8,3.8,0,0,0-.1-1v-.4a2.9,2.9,0,0,1-.2-.9.8.8,0,0,1-.1-.4c-.1-.4-.3-.7-.4-1.1v-.2h-.1L237.3,80.6A19.9,19.9,0,0,0,218.7,68H188.1V64a12,12,0,0,0-12-12H24.1a20.1,20.1,0,0,0-20,20V184a20.1,20.1,0,0,0,20,20H42.2a35.9,35.9,0,0,0,67.8,0h36.2a35.9,35.9,0,0,0,67.8,0h18.1a20.1,20.1,0,0,0,20-20V120ZM216,92l6.4,16H188.1V92ZM164.1,76v56H28.1V76Zm-136,80h136v3.8A36,36,0,0,0,146.2,180H110a35.9,35.9,0,0,0-67.8,0H28.1Zm48,48a12,12,0,1,1,12-12A12,12,0,0,1,76.1,204Zm104,0a12,12,0,1,1,12-12A12,12,0,0,1,180.1,204Zm48-24H214a36,36,0,0,0-25.9-23.1V132h40Z"/></svg>