<svg xmlns="http://www.w3.org/2000/svg" viewBox="0 0 256 256"><path d="M72,252a13,13,0,0,1-5.1-1.1A12,12,0,0,1,60,240V212H48a20.1,20.1,0,0,1-20-20V48A20.1,20.1,0,0,1,48,28H208a20.1,20.1,0,0,1,20,20V156.3a19.8,19.8,0,0,1-7.2,15.3l-42.9,35.8a19.9,19.9,0,0,1-12.8,4.6H124.3L79.7,249.2A11.6,11.6,0,0,1,72,252ZM52,188H72a12,12,0,0,1,12,12v14.4l26.1-21.8a19.9,19.9,0,0,1,12.8-4.6h40.8L204,154.4V52H52Z"/><path d="M168,148a12,12,0,0,1-12-12V88a12,12,0,0,1,24,0v48A12,12,0,0,1,168,148Z"/><path d="M120,148a12,12,0,0,1-12-12V88a12,12,0,0,1,24,0v48A12,12,0,0,1,120,148Z"/></svg>