<svg id="Flat" xmlns="http://www.w3.org/2000/svg" viewBox="0 0 256 256">
  <path d="M251.08691,67.40771A12.00081,12.00081,0,0,0,240,60l-28.17627-.00049a52.1226,52.1226,0,0,0-43.16553-23.9956A52.318,52.318,0,0,0,116,88.00293v.72021C80.94727,77.311,57.61816,48.81055,57.37012,48.50342a12.00016,12.00016,0,0,0-21.17676,5.3501c-9.08789,49.98486,6.15527,81.30371,20.54346,98.7749a97.53445,97.53445,0,0,0,22.30175,19.856C69.64746,181.521,52.38965,186.8584,45.625,188.2373a11.99992,11.99992,0,0,0-6.11035,20.24805,61.05332,61.05332,0,0,0,15.11914,10.24756A92.88951,92.88951,0,0,0,96,228c37.06641,0,68.84473-13.46826,91.89844-38.94922,19.30517-21.3374,30.81933-50.2417,32.001-79.97949l28.58594-28.58594A12.00169,12.00169,0,0,0,251.08691,67.40771ZM199.51465,95.51465A11.99992,11.99992,0,0,0,196,104c0,25.62695-9.43945,50.75781-25.89844,68.94922C151.72266,193.2627,126.09863,204,96,204a74.96129,74.96129,0,0,1-17.88037-2.07422c15.36816-7.82666,25.20361-17.94775,29.26465-30.13086a11.93261,11.93261,0,0,0-7.09961-15.0039c-1.97266-.769-43.11377-17.54737-42.83155-74.52,15.25147,12.94043,39.01368,28.63916,68.57422,33.56591A11.99981,11.99981,0,0,0,140,104V88.00195a28.32087,28.32087,0,0,1,28.35938-28A28.06161,28.06161,0,0,1,193.6748,76.8042a12.00052,12.00052,0,0,0,10.9961,7.19531h6.35889Z"/>
</svg>
