<svg xmlns="http://www.w3.org/2000/svg" viewBox="0 0 256 256"><path d="M251.1,67.4A12,12,0,0,0,240,60H211.8A52,52,0,0,0,116,88v.8c-37.3-11.5-67.2-41-67.5-41.3a12,12,0,0,0-20.3,6.4c-9,49.6,6,83,20.1,102.2a112.3,112.3,0,0,0,22,22.5C55.9,193,36,200.7,35.8,200.8a11.7,11.7,0,0,0-7.2,7.5A12.3,12.3,0,0,0,30,218.7c1.9,2.9,13.4,17.3,50,17.3,72.1,0,132.5-55.1,139.3-126.4l29.2-29.1A12.2,12.2,0,0,0,251.1,67.4ZM199.3,95.8a11.3,11.3,0,0,0-3.5,7.7C191.9,164.3,141,212,80,212a89.4,89.4,0,0,1-12.5-.8c10.4-6.7,22.2-16.1,30.5-28.5a12.1,12.1,0,0,0,1.6-9.8,11.8,11.8,0,0,0-6.2-7.6c-2-1.1-45.6-24.2-43.9-85.4,17.2,13.1,45,30.7,76.5,35.9A12,12,0,0,0,140,104V88h0a28.3,28.3,0,0,1,28.4-28,28,28,0,0,1,25.3,16.8,11.9,11.9,0,0,0,11,7.2H211Z"/></svg>