<svg id="Flat" xmlns="http://www.w3.org/2000/svg" viewBox="0 0 256 256">
  <path d="M251.08691,67.40771A12.00081,12.00081,0,0,0,240,60l-28.17627-.00049a52.1226,52.1226,0,0,0-43.16553-23.9956A52.3181,52.3181,0,0,0,116,87.99268l-.001.82763C78.71729,77.28174,48.81055,47.83887,48.48535,47.51465a12.00027,12.00027,0,0,0-20.292,6.33887c-9.03027,49.66943,5.9707,83.02734,20.146,102.26464a114.47906,114.47906,0,0,0,21.95947,22.51221c-14.44824,14.40283-34.291,22.04981-34.51221,22.13379a11.99906,11.99906,0,0,0-5.771,17.89209C31.94629,221.55273,43.43018,236,80,236c72.11816,0,132.45215-55.144,139.34473-126.37354l29.14062-29.14111A12.00169,12.00169,0,0,0,251.08691,67.40771ZM199.252,95.77734a12.0024,12.0024,0,0,0-3.49023,7.72217C191.88574,164.34082,141.03711,212,80,212a91.895,91.895,0,0,1-12.48926-.78564c10.42578-6.66456,22.19776-16.14356,30.47364-28.55811a11.954,11.954,0,0,0-4.56153-17.36133c-2.05469-1.05469-45.58691-24.20068-43.9375-85.42871,17.17481,13.148,45.02735,30.71875,76.52735,35.97022a12.00038,12.00038,0,0,0,13.97363-11.82618L140,88.01318v-.01123a28.32087,28.32087,0,0,1,28.35938-28A28.06161,28.06161,0,0,1,193.6748,76.8042a12.00052,12.00052,0,0,0,10.9961,7.19531h6.35937Z"/>
</svg>
