<svg id="Flat" xmlns="http://www.w3.org/2000/svg" viewBox="0 0 256 256">
  <path d="M80,228.001a140.13163,140.13163,0,0,1-67.84521-17.51075A12.00849,12.00849,0,0,1,17.802,187.9873a115.56025,115.56025,0,0,0,48.88452-11.61376A140.21736,140.21736,0,0,1,25.07642,34.521,12,12,0,0,1,46.698,31.18115a115.74617,115.74617,0,0,0,69.64868,49.51026A52.00357,52.00357,0,0,1,209.0061,54.93652a116.55745,116.55745,0,0,0,27.17749-5.65039A11.99982,11.99982,0,0,1,249.83521,67.544,139.66656,139.66656,0,0,1,219.5769,98.96924,140.01333,140.01333,0,0,1,80,228.001ZM65.3103,203.06836A116.00452,116.00452,0,0,0,195.92676,92.168a11.99922,11.99922,0,0,1,5.17407-9.45166q2.46349-1.70142,4.82861-3.52246-1.35387.06665-2.71045.10644a11.95117,11.95117,0,0,1-10.94873-6.35205,28.014,28.014,0,0,0-51.75317,19.44141,12.00848,12.00848,0,0,1-13.36841,14.60644A139.33782,139.33782,0,0,1,44.14453,66.165Q44.00025,69.07642,44,72.001a116.03006,116.03006,0,0,0,50.75879,95.9292,12.00019,12.00019,0,0,1,0,19.832A139.51264,139.51264,0,0,1,65.3103,203.06836Z"/>
</svg>
