<svg xmlns="http://www.w3.org/2000/svg" viewBox="0 0 256 256"><path d="M243.6,126.3a116,116,0,0,0-231.2,0,19.7,19.7,0,0,0,5.2,15.2A20.2,20.2,0,0,0,32.3,148H116v52a36,36,0,0,0,72,0,12,12,0,0,0-24,0,12,12,0,0,1-24,0V148h83.7a20.2,20.2,0,0,0,14.7-6.5A19.7,19.7,0,0,0,243.6,126.3ZM100.4,124c2.7-39.3,18.1-63.5,27.6-74.9,9.5,11.4,24.9,35.6,27.6,74.9ZM65.5,68.4A92.7,92.7,0,0,1,99,48.7C88.8,65.3,78.4,90.1,76.4,124H36.8A91.7,91.7,0,0,1,65.5,68.4ZM179.6,124c-2-33.9-12.4-58.7-22.6-75.3a92.7,92.7,0,0,1,33.5,19.7A91.7,91.7,0,0,1,219.2,124Z"/></svg>