<svg id="Flat" xmlns="http://www.w3.org/2000/svg" viewBox="0 0 256 256">
  <path d="M243.59961,126.2998a116.00664,116.00664,0,0,0-231.19922-.001A20.0223,20.0223,0,0,0,32.33447,148H116v52a36,36,0,0,0,72,0,12,12,0,0,0-24,0,12,12,0,0,1-24,0V148h83.66553a20.02217,20.02217,0,0,0,19.93408-21.7002ZM100.4082,124c2.67676-39.33057,18.08643-63.5061,27.58838-74.874C137.51855,60.5166,152.9165,84.6875,155.5918,124ZM65.54785,68.44434a91.76033,91.76033,0,0,1,33.4336-19.75806C88.78125,65.28809,78.3916,90.11084,76.3623,124H36.77441A91.68833,91.68833,0,0,1,65.54785,68.44434ZM179.6377,124c-2.0293-33.88916-12.41895-58.71191-22.61915-75.31372A92.07,92.07,0,0,1,219.22559,124Z"/>
</svg>
