<svg id="Flat" xmlns="http://www.w3.org/2000/svg" viewBox="0 0 256 256">
  <path d="M244,136v64a20.02229,20.02229,0,0,1-20,20H32a20.02229,20.02229,0,0,1-20-20V136a20.02229,20.02229,0,0,1,20-20H84a12,12,0,0,1,0,24H36v56H220V140H172a12,12,0,0,1,0-24h52A20.02229,20.02229,0,0,1,244,136ZM88.48535,80.48535,116,52.9707V128a12,12,0,0,0,24,0V52.9707l27.51465,27.51465a12.0001,12.0001,0,0,0,16.9707-16.9707l-48-48c-.01855-.01856-.03857-.0332-.05713-.05127q-.394-.38966-.82177-.74317c-.13965-.11474-.28711-.21435-.43067-.32177-.16992-.127-.33594-.25879-.51269-.377-.169-.11328-.34424-.21093-.51709-.31445-.16358-.09765-.32373-.20019-.4917-.29-.17334-.09277-.35108-.1709-.52784-.25439-.17822-.08447-.35449-.17383-.53759-.24951-.16944-.07032-.34229-.12647-.51416-.18848-.19776-.07129-.39307-.14648-.59522-.208-.16894-.05078-.34033-.08789-.51123-.13135-.20849-.05322-.415-.11132-.62793-.15332-.19043-.03759-.3833-.05957-.57519-.08789-.19532-.02881-.38819-.06494-.58643-.08447-.33252-.03271-.6665-.04541-1-.05078C128.11865,12.0083,128.06055,12,128,12s-.11865.0083-.17871.00879c-.3335.00537-.66748.01807-1,.05078-.19824.01953-.39111.05566-.58643.08447-.19189.02832-.38476.0503-.57519.08789-.21289.042-.41944.1001-.62793.15332-.1709.04346-.34229.08057-.51123.13135-.20264.06153-.398.13672-.59619.2085-.17139.062-.34375.11767-.5127.188-.18359.07617-.35986.165-.53906.25-.17627.083-.354.16113-.52686.2539-.168.08985-.32812.19239-.4917.29-.17285.10352-.34814.20117-.51709.31445-.17675.11817-.34277.25-.51269.377-.14356.10742-.291.207-.43067.32177q-.42846.35231-.82177.74317c-.01856.01807-.03858.03271-.05713.05127l-48,48a12.0001,12.0001,0,0,0,16.9707,16.9707ZM204,168a16,16,0,1,0-16,16A16.01833,16.01833,0,0,0,204,168Z"/>
</svg>
