<svg id="Flat" xmlns="http://www.w3.org/2000/svg" viewBox="0 0 256 256">
  <path d="M77.51367,90.47363a12.00063,12.00063,0,0,1,.00195-16.9707l42-41.98926a11.99917,11.99917,0,0,1,16.96876,0l42,41.98926a12.0001,12.0001,0,0,1-16.96876,16.97266L140,68.96558V152a12,12,0,0,1-24,0V68.96558l-21.51562,21.51A12.00153,12.00153,0,0,1,77.51367,90.47363ZM216,140a12.00028,12.00028,0,0,0-12,12v52H52V152a12,12,0,0,0-24,0v56a20.02229,20.02229,0,0,0,20,20H208a20.02229,20.02229,0,0,0,20-20V152A12.00028,12.00028,0,0,0,216,140Z"/>
</svg>
