<svg id="Flat" xmlns="http://www.w3.org/2000/svg" viewBox="0 0 256 256">
  <path d="M77.51465,90.45605a11.99973,11.99973,0,0,1,0-16.9707l42-42a12.00151,12.00151,0,0,1,16.9707,0l42,42a12.0001,12.0001,0,0,1-16.9707,16.9707L140,68.94141V152a12,12,0,0,1-24,0V68.94141L94.48535,90.45605A12.00151,12.00151,0,0,1,77.51465,90.45605ZM224,124a12.00028,12.00028,0,0,0-12,12v68H44V136a12,12,0,0,0-24,0v72a20.02229,20.02229,0,0,0,20,20H216a20.02229,20.02229,0,0,0,20-20V136A12.00028,12.00028,0,0,0,224,124Z"/>
</svg>
