<svg id="Flat" xmlns="http://www.w3.org/2000/svg" viewBox="0 0 256 256">
  <path d="M220.687,100.16406a11.99965,11.99965,0,0,0-9.84912,13.81983A84.985,84.985,0,0,1,212,128a83.56227,83.56227,0,0,1-18.055,51.938,83.49451,83.49451,0,0,0-28.96888-23.42041,52,52,0,1,0-73.95214,0,83.4957,83.4957,0,0,0-28.96912,23.42016A83.93071,83.93071,0,0,1,128,44a84.957,84.957,0,0,1,14.01562,1.16211,11.99993,11.99993,0,1,0,3.97168-23.66895A108.08345,108.08345,0,0,0,20,128a107.733,107.733,0,0,0,35.00562,79.52319,11.89416,11.89416,0,0,0,1.62426,1.45972,107.77652,107.77652,0,0,0,142.74243-.00195,11.893,11.893,0,0,0,1.61915-1.45508A107.73326,107.73326,0,0,0,236,128a109.031,109.031,0,0,0-1.49316-17.98706A12.00071,12.00071,0,0,0,220.687,100.16406ZM100,120a28,28,0,1,1,28,28A28.03161,28.03161,0,0,1,100,120ZM79.56592,196.56616a60.02843,60.02843,0,0,1,96.86792.00025,83.71439,83.71439,0,0,1-96.86792-.00025ZM230.24854,59.60767l-2.34717-1.35523C227.96094,57.50854,228,56.759,228,56s-.03906-1.50854-.09863-2.25244l2.34717-1.35523a12.00013,12.00013,0,0,0-12-20.78491l-2.35389,1.35938A28.01986,28.01986,0,0,0,212,30.707V28a12,12,0,0,0-24,0v2.707a28.01986,28.01986,0,0,0-3.89465,2.25977l-2.35389-1.35938a12.00013,12.00013,0,0,0-12,20.78491l2.34717,1.35523C172.03906,54.49146,172,55.241,172,56s.03906,1.50854.09863,2.25244l-2.34717,1.35523a12,12,0,1,0,12,20.78466l2.35389-1.35913A28.01986,28.01986,0,0,0,188,81.293V84a12,12,0,0,0,24,0V81.293a28.01986,28.01986,0,0,0,3.89465-2.25977l2.35389,1.35913a12,12,0,0,0,12-20.78466ZM196,56a4,4,0,1,1,4,4A4.00458,4.00458,0,0,1,196,56Z"/>
</svg>
