<svg xmlns="http://www.w3.org/2000/svg" viewBox="0 0 256 256"><path d="M24.8,125.6A12,12,0,0,0,32,128a12.2,12.2,0,0,0,9.6-4.8,48,48,0,0,1,76.8,0h.1l.7.8c0,.1.1.1.2.2l.6.6.4.4.4.3a.1.1,0,0,1,.1.1l.3.2.6.4.3.2.8.3c0,.1.1.1.2.1l.9.4h.1a7.9,7.9,0,0,0,2.2.6h3.2l.9-.2h.4a11.7,11.7,0,0,0,2.4-.9l.4-.2.7-.4.5-.3.4-.3.2-.2.4-.3.7-.6.3-.3.7-.9h.1a48,48,0,0,1,76.8,0,12,12,0,0,0,19.2-14.4,72.4,72.4,0,0,0-25.3-21.2,40,40,0,1,0-64.6,0A71.5,71.5,0,0,0,128,98.3a71.5,71.5,0,0,0-15.7-10.7,40,40,0,1,0-64.6,0,72.4,72.4,0,0,0-25.3,21.2A12,12,0,0,0,24.8,125.6ZM160,64a16,16,0,1,1,16,16A16,16,0,0,1,160,64ZM64,64A16,16,0,1,1,80,80,16,16,0,0,1,64,64ZM208.3,195.6a40,40,0,1,0-64.6,0A71.5,71.5,0,0,0,128,206.3a71.5,71.5,0,0,0-15.7-10.7,40,40,0,1,0-64.6,0,72.4,72.4,0,0,0-25.3,21.2A12,12,0,0,0,32,236a12.2,12.2,0,0,0,9.6-4.8,48,48,0,0,1,76.8,0h.1l.7.8a.2.2,0,0,0,.2.2l.6.6.4.4.4.3h.1l.3.2.6.4.3.2.8.3.2.2.9.3h.1a7.9,7.9,0,0,0,2.2.6h3.2l.9-.2h.4l2.4-.9.4-.2.7-.4.5-.3.4-.3.2-.2.4-.3.7-.6.3-.3.7-.9h.1a48,48,0,0,1,76.8,0,12,12,0,0,0,19.2-14.4A72.4,72.4,0,0,0,208.3,195.6ZM64,172a16,16,0,1,1,16,16A16,16,0,0,1,64,172Zm96,0a16,16,0,1,1,16,16A16,16,0,0,1,160,172Z"/></svg>