<svg id="Flat" xmlns="http://www.w3.org/2000/svg" viewBox="0 0 256 256">
  <path d="M129.20984,156.91406a64,64,0,1,0-82.41907-.00024A100.1807,100.1807,0,0,0,6.18408,190.48828a12,12,0,1,0,19.624,13.81641,76.01736,76.01736,0,0,1,124.38085-.0044,12.00012,12.00012,0,1,0,19.623-13.81836A100.17887,100.17887,0,0,0,129.20984,156.91406ZM48.00049,108a40,40,0,1,1,40,40A40.04521,40.04521,0,0,1,48.00049,108Zm200.43115,99.20264a11.99791,11.99791,0,0,1-16.7207-2.90235A76.16428,76.16428,0,0,0,169.522,172a12,12,0,0,1,0-24,40,40,0,1,0-10.85986-78.51123,12.0001,12.0001,0,0,1-6.499-23.10352,63.97806,63.97806,0,0,1,58.56836,110.52881A100.17911,100.17911,0,0,1,251.334,190.48193,12.00029,12.00029,0,0,1,248.43164,207.20264Z"/>
</svg>
