<svg id="Flat" xmlns="http://www.w3.org/2000/svg" viewBox="0 0 256 256">
  <path d="M236,128A108,108,0,1,0,55.00464,207.52246a11.89912,11.89912,0,0,0,1.62573,1.46094,107.77685,107.77685,0,0,0,142.74268-.00293,11.88753,11.88753,0,0,0,1.61718-1.45313A107.734,107.734,0,0,0,236,128ZM44,128a84.00005,84.00005,0,1,1,149.94507,51.938,83.50491,83.50491,0,0,0-28.969-23.42041,52,52,0,1,0-73.95227,0A83.49508,83.49508,0,0,0,62.05469,179.9375,83.56325,83.56325,0,0,1,44,128Zm56-8a28,28,0,1,1,28,28A28.03146,28.03146,0,0,1,100,120ZM79.5658,196.56592a60.02872,60.02872,0,0,1,96.868.00049,83.714,83.714,0,0,1-96.868-.00049Z"/>
</svg>
