<svg id="Flat" xmlns="http://www.w3.org/2000/svg" viewBox="0 0 256 256">
  <path d="M246.729,141.23242l-3.3125,1.07623,2.04737,2.81781a12,12,0,1,1-19.416,14.10743L224,156.41534l-2.04785,2.81855a12,12,0,1,1-19.416-14.10743l2.04737-2.81781-3.3125-1.07623a11.99986,11.99986,0,0,1,7.416-22.82519L212,119.48364V116a12,12,0,0,1,24,0v3.48364l3.313-1.07641a11.99986,11.99986,0,0,1,7.416,22.82519ZM202.98047,192.2793a11.99993,11.99993,0,1,1-18.376,15.4375,100.00756,100.00756,0,0,0-153.20849,0A11.99993,11.99993,0,0,1,13.02,192.2793a123.94824,123.94824,0,0,1,50.23132-35.9361,72,72,0,1,1,89.49744-.00012A123.94833,123.94833,0,0,1,202.98047,192.2793ZM108,148a48,48,0,1,0-48-48A48.05436,48.05436,0,0,0,108,148Z"/>
</svg>
