<svg xmlns="http://www.w3.org/2000/svg" viewBox="0 0 256 256"><path d="M164,56a12,12,0,0,1,12-12h12V32a12,12,0,0,1,24,0V44h12a12,12,0,0,1,0,24H212V80a12,12,0,0,1-24,0V68H176A12,12,0,0,1,164,56Zm70.7,55A108.4,108.4,0,0,1,201,207.5a11.4,11.4,0,0,1-1.6,1.5,107.9,107.9,0,0,1-142.8,0,11.4,11.4,0,0,1-1.6-1.5A108.1,108.1,0,0,1,145,21.3a12.1,12.1,0,0,1,10,13.8A11.9,11.9,0,0,1,141.3,45,85.1,85.1,0,0,0,128,44,83.9,83.9,0,0,0,62.1,179.9,84,84,0,0,1,91,156.5a52,52,0,1,1,74,0,84,84,0,0,1,28.9,23.4A83.4,83.4,0,0,0,212,128a85.1,85.1,0,0,0-1-13.3,11.9,11.9,0,0,1,9.9-13.7A12.1,12.1,0,0,1,234.7,111ZM128,148a28,28,0,1,0-28-28A28.1,28.1,0,0,0,128,148Zm0,64a83.5,83.5,0,0,0,48.4-15.4,59.9,59.9,0,0,0-96.8,0A83.5,83.5,0,0,0,128,212Z"/></svg>