<svg id="Flat" xmlns="http://www.w3.org/2000/svg" viewBox="0 0 256 256">
  <path d="M24.78955,125.59277a11.99816,11.99816,0,0,0,16.80225-2.38769,48.00855,48.00855,0,0,1,76.81543-.001c.01806.02417.03906.04492.05713.06885.2163.2832.44335.55908.6875.82471.07177.07885.14843.15063.22216.227.1958.20215.39307.40258.60547.59277.13233.11939.27149.22778.40821.34033.13476.11084.26074.229.40185.335.03857.02906.07959.05323.11865.08179.0918.06738.187.12866.28076.19312.21436.14794.43018.29028.65088.42236.09864.05908.19825.115.29834.1709q.356.2.72071.373c.08007.03809.16015.07715.24121.11329q.45191.20288.91455.366c.02734.00952.05371.02075.081.03028a11.92377,11.92377,0,0,0,2.18994.52856c.03663.00537.07374.00806.11084.01318q.47169.063.94532.08838c.09131.00513.18261.00782.27441.01075.12354.0039.24756.01464.37158.01464.09424,0,.188-.01367.28272-.01611.26269-.00562.52539-.02148.78808-.04468.15381-.01367.30762-.02563.46045-.04541.30811-.03882.61377-.09424.919-.15747.10986-.02295.22119-.03955.33056-.06543a11.89845,11.89845,0,0,0,2.43506-.86206c.13379-.06421.26123-.1416.39258-.21094.24463-.12939.48828-.26049.72608-.4082.168-.104.32861-.21948.49169-.332.13086-.09058.26661-.17017.395-.26685.06836-.05151.12793-.1101.19532-.16284.14843-.1167.29248-.239.43652-.36352q.32226-.27868.62061-.5752c.10253-.10254.20507-.2041.30419-.31079q.38892-.41529.73047-.85986c.03028-.03931.06543-.07276.09571-.11255a48.00855,48.00855,0,0,1,76.81543-.001,12.0002,12.0002,0,0,0,19.18847-14.416,71.98631,71.98631,0,0,0-25.30664-21.21631,40,40,0,1,0-64.57812,0A71.20718,71.20718,0,0,0,128,98.303a71.20718,71.20718,0,0,0-15.71094-10.7312,40,40,0,1,0-64.57812,0A71.98478,71.98478,0,0,0,22.40234,108.791,12,12,0,0,0,24.78955,125.59277ZM160,64a16,16,0,1,1,16,16A16.01833,16.01833,0,0,1,160,64ZM64,64A16,16,0,1,1,80,80,16.01833,16.01833,0,0,1,64,64ZM208.28906,195.57178a40,40,0,1,0-64.57812,0A71.20718,71.20718,0,0,0,128,206.303a71.20718,71.20718,0,0,0-15.71094-10.7312,40,40,0,1,0-64.57812,0A71.98478,71.98478,0,0,0,22.40234,216.791,12,12,0,1,0,41.5918,231.20508a48.00855,48.00855,0,0,1,76.81543-.001c.01806.02417.03906.04492.05713.06909.2163.28272.44335.55835.68652.824.07373.08032.15185.15381.22705.23169.19385.20019.38916.39868.59961.58716.13623.1228.2793.23437.41992.35009.13184.10791.2544.22339.39209.32666.0376.02832.07764.05176.11572.07959.09571.07056.19532.13452.29346.20215.20947.144.42041.2832.63574.41236.10254.06176.20655.12036.311.17846q.34863.1952.70459.36475c.08545.04053.16992.08179.25586.12012q.44165.19739.89258.35693c.03417.01221.06787.02637.102.03833a11.95023,11.95023,0,0,0,2.17968.52612c.04346.00611.08741.00952.13086.01538q.46143.06116.92481.08667c.0957.00537.1914.00806.28711.01123.12158.00342.24316.01416.36474.01416.09278,0,.18506-.01367.27783-.01562.26661-.00586.53223-.022.79834-.04541.15137-.01367.30176-.02539.45264-.04468.31055-.03931.61963-.095.92822-.15918.10694-.02222.21485-.03833.32178-.06372a11.91632,11.91632,0,0,0,2.4375-.86255c.13281-.06421.26026-.14136.39111-.21045.24512-.12964.48926-.261.72754-.40893.16748-.104.32813-.219.49073-.33155.13134-.09082.26709-.17041.3955-.26709.06836-.05151.12793-.1101.19532-.16284.14843-.1167.29248-.239.43652-.36352q.32226-.27868.62061-.5752c.10253-.10254.20507-.2041.30419-.31079q.38892-.41529.73047-.85986c.03028-.03931.06543-.07276.09571-.11255a48.00855,48.00855,0,0,1,76.81543-.001,12.0002,12.0002,0,0,0,19.18847-14.416A71.98631,71.98631,0,0,0,208.28906,195.57178ZM64,172a16,16,0,1,1,16,16A16.01833,16.01833,0,0,1,64,172Zm96,0a16,16,0,1,1,16,16A16.01833,16.01833,0,0,1,160,172Z"/>
</svg>
