<svg id="Flat" xmlns="http://www.w3.org/2000/svg" viewBox="0 0 256 256">
  <path d="M164,56a12,12,0,0,1,12-12h12V32a12,12,0,0,1,24,0V44h12a12,12,0,0,1,0,24H212V80a12,12,0,0,1-24,0V68H176A12,12,0,0,1,164,56Zm70.66455,54.97949A109.05456,109.05456,0,0,1,236,128a107.73386,107.73386,0,0,1-35.01038,79.52783,11.88547,11.88547,0,0,1-1.6156,1.45166,107.77691,107.77691,0,0,1-142.74328.0044,11.89856,11.89856,0,0,1-1.6261-1.46143A107.94825,107.94825,0,0,1,128,20a109.15124,109.15124,0,0,1,17.02051,1.335A12.00039,12.00039,0,0,1,141.26465,45.04,84.959,84.959,0,0,0,128,44,83.93054,83.93054,0,0,0,62.05481,179.9375a83.49358,83.49358,0,0,1,28.969-23.41992,52.00008,52.00008,0,1,1,73.95227,0A83.49788,83.49788,0,0,1,193.945,179.938,83.56278,83.56278,0,0,0,212,128a84.98237,84.98237,0,0,0-1.03955-13.26367,12,12,0,0,1,23.7041-3.75684ZM128,148a28,28,0,1,0-28-28A28.03146,28.03146,0,0,0,128,148Zm0,64a83.51225,83.51225,0,0,0,48.434-15.43359,60.02884,60.02884,0,0,0-96.86816-.00049A83.50931,83.50931,0,0,0,128,212Z"/>
</svg>
