<svg id="Flat" xmlns="http://www.w3.org/2000/svg" viewBox="0 0 256 256">
  <path d="M216,36H40A20.02292,20.02292,0,0,0,20,56V200a20.02292,20.02292,0,0,0,20,20H216a20.02292,20.02292,0,0,0,20-20V56A20.02292,20.02292,0,0,0,216,36ZM100,120a28,28,0,1,1,28,28A28.03146,28.03146,0,0,1,100,120Zm28,52a60.13394,60.13394,0,0,1,48.0022,24H79.9978A60.13394,60.13394,0,0,1,128,172Zm84,24h-8.10132a84.13981,84.13981,0,0,0-38.98132-39.42065,52,52,0,1,0-73.83472,0A84.13981,84.13981,0,0,0,52.10132,196H44V60H212Z"/>
</svg>
