<svg id="Flat" xmlns="http://www.w3.org/2000/svg" viewBox="0 0 256 256">
  <path d="M164,56a12,12,0,0,1,12-12h48a12,12,0,0,1,0,24H176A12,12,0,0,1,164,56Zm71.39893,153.9834A124.42854,124.42854,0,0,0,173.59937,156.759,75.92792,75.92792,0,0,0,204,96a12,12,0,0,0-24,0,51.92968,51.92968,0,1,1-39.98193-50.60693,12.00011,12.00011,0,0,0,5.52148-23.35645A75.985,75.985,0,0,0,82.40063,156.75909,124.43034,124.43034,0,0,0,20.60254,209.981,12.00005,12.00005,0,0,0,41.376,222.00049a100.03726,100.03726,0,0,1,173.24951.00146,11.99981,11.99981,0,0,0,20.77344-12.01855Z"/>
</svg>
