<svg id="Flat" xmlns="http://www.w3.org/2000/svg" viewBox="0 0 256 256">
  <path d="M169.56641,46.11182a11.998,11.998,0,0,1,15.1206-7.70459L188,39.48364V36a12,12,0,0,1,24,0v3.48364l3.313-1.07641a11.99986,11.99986,0,1,1,7.416,22.82519l-3.3125,1.07623,2.04737,2.81781a12,12,0,1,1-19.416,14.10743L200,76.41534l-2.04785,2.81855a12,12,0,0,1-19.416-14.10743l2.04737-2.81781-3.3125-1.07623A11.99979,11.99979,0,0,1,169.56641,46.11182Zm65.83252,163.8706a124.42729,124.42729,0,0,0-61.76929-53.21155,75.94243,75.94243,0,0,0,23.98462-30.2362,12.00014,12.00014,0,1,0-21.97461-9.65039A52.007,52.007,0,1,1,128,44a52.739,52.739,0,0,1,7.21191.49463,11.99986,11.99986,0,1,0,3.29493-23.77246A76.051,76.051,0,0,0,52,96a75.928,75.928,0,0,0,30.40051,60.759,124.42767,124.42767,0,0,0-61.798,53.2215A12.00005,12.00005,0,0,0,41.376,222a100.03751,100.03751,0,0,1,173.24951.00195,12.00005,12.00005,0,0,0,20.77344-12.01953Z"/>
</svg>
