<svg xmlns="http://www.w3.org/2000/svg" viewBox="0 0 256 256"><path d="M252.5,140.5l-20,20a12.1,12.1,0,0,1-17,0l-20-20a12,12,0,0,1,16.3-17.6A84,84,0,0,0,61.5,76.7,12,12,0,0,1,42.5,62a108,108,0,0,1,193.4,61.2,12,12,0,0,1,16.6,17.3Zm-39,53.5A108,108,0,0,1,20.1,132.8,12,12,0,0,1,3.5,115.5l20-20a12,12,0,0,1,17,0l20,20a12,12,0,0,1,0,17A12.2,12.2,0,0,1,52,136a12,12,0,0,1-7.8-2.9,82.2,82.2,0,0,0,17.9,46.8A84,84,0,0,1,91,156.5a52,52,0,1,1,74,0A84.4,84.4,0,0,1,194,180l.5-.7a12,12,0,0,1,19,14.7ZM128,148a28,28,0,1,0-28-28A28.1,28.1,0,0,0,128,148Zm0,64a83,83,0,0,0,48.5-15.4,60,60,0,0,0-96.9,0A83.5,83.5,0,0,0,128,212Z"/></svg>