<svg id="Flat" xmlns="http://www.w3.org/2000/svg" viewBox="0 0 256 256">
  <path d="M208,28H48A20.02292,20.02292,0,0,0,28,48V208a20.02292,20.02292,0,0,0,20,20H198.14807c.01917,0,.03784.00244.057.00244.01452,0,.0293-.00244.04394-.00244H208a20.02292,20.02292,0,0,0,20-20V48A20.02292,20.02292,0,0,0,208,28Zm-4,24V196.24487a84.50889,84.50889,0,0,0-23.22754-29.60132,83.52258,83.52258,0,0,0-15.84961-10.07006,52,52,0,1,0-73.8457,0,83.52258,83.52258,0,0,0-15.84961,10.07006A84.50889,84.50889,0,0,0,52,196.24487V52ZM100,120a28,28,0,1,1,28,28A28.03146,28.03146,0,0,1,100,120Zm28,52a59.31807,59.31807,0,0,1,37.68506,13.30859A60.40092,60.40092,0,0,1,181.056,204H74.944a60.40092,60.40092,0,0,1,15.371-18.69141A59.31807,59.31807,0,0,1,128,172Z"/>
</svg>
