<svg id="Flat" xmlns="http://www.w3.org/2000/svg" viewBox="0 0 256 256">
  <path d="M165.35938,76a11.994,11.994,0,0,0,16.39208,4.39209l2.35364-1.35889A28.00981,28.00981,0,0,0,188,81.29291V84a12,12,0,0,0,24,0V81.29291a28.00981,28.00981,0,0,0,3.8949-2.25971l2.35364,1.35889a11.99981,11.99981,0,0,0,12-20.78418l-2.34717-1.35516C227.96094,57.50873,228,56.759,228,56s-.03906-1.50873-.09863-2.25275l2.34717-1.35516a11.99981,11.99981,0,0,0-12-20.78418L215.8949,32.9668A28.00981,28.00981,0,0,0,212,30.70709V28a12,12,0,0,0-24,0v2.70709a28.00981,28.00981,0,0,0-3.8949,2.25971l-2.35364-1.35889a11.99981,11.99981,0,0,0-12,20.78418l2.34717,1.35516C172.03906,54.49127,172,55.241,172,56s.03906,1.50873.09863,2.25275l-2.34717,1.35516A11.99926,11.99926,0,0,0,165.35938,76ZM204,56a4,4,0,1,1-4-4A4.00458,4.00458,0,0,1,204,56Zm27.02148,170.37891a11.99426,11.99426,0,0,1-16.396-4.377A100.03751,100.03751,0,0,0,41.376,222a12.00005,12.00005,0,0,1-20.77344-12.01953,124.42767,124.42767,0,0,1,61.798-53.2215A75.97239,75.97239,0,0,1,128,20a76.80026,76.80026,0,0,1,10.50684.72217,11.99986,11.99986,0,1,1-3.29493,23.77246A52.739,52.739,0,0,0,128,44a52,52,0,1,0,47.63965,72.88428,12.00014,12.00014,0,1,1,21.97461,9.65039,75.94334,75.94334,0,0,1-23.98487,30.23614,124.428,124.428,0,0,1,61.76954,53.21161A12.00017,12.00017,0,0,1,231.02148,226.37891Z"/>
</svg>
