<svg id="Flat" xmlns="http://www.w3.org/2000/svg" viewBox="0 0 256 256">
  <path d="M164.334,177.15137a52,52,0,1,0-72.668,0,75.79342,75.79342,0,0,0-32.019,33.59082,12.00006,12.00006,0,0,0,21.57471,10.51367,52.02576,52.02576,0,0,1,93.55664,0,11.99984,11.99984,0,0,0,21.57422-10.51367A75.78975,75.78975,0,0,0,164.334,177.15137ZM100,140a28,28,0,1,1,28,28A28.03146,28.03146,0,0,1,100,140Zm151.209,9.58984a11.99687,11.99687,0,0,1-16.80175-2.38574,47.65994,47.65994,0,0,0-31.585-18.72461,11.99543,11.99543,0,0,1-9.97217-9.07055,11.931,11.931,0,0,1,8.15771-16.03882A20.00425,20.00425,0,1,0,177.936,75.39844a12.0001,12.0001,0,1,1-21.65772-10.3418,44.00719,44.00719,0,1,1,73.41309,47.26025,71.94964,71.94964,0,0,1,23.90429,20.4712A11.99992,11.99992,0,0,1,251.209,149.58984ZM53.17773,128.47949A47.65989,47.65989,0,0,0,21.5918,147.20508,12,12,0,0,1,2.40234,132.791a71.95614,71.95614,0,0,1,23.90625-20.47461A44.008,44.008,0,1,1,99.7207,65.05469,12.0003,12.0003,0,0,1,78.06348,75.39844a20.00448,20.00448,0,1,0-23.07129,27.97168,11.931,11.931,0,0,1,8.15771,16.03882A11.99543,11.99543,0,0,1,53.17773,128.47949Z"/>
</svg>
