<svg xmlns="http://www.w3.org/2000/svg" viewBox="0 0 256 256"><path d="M129.2,156.9a64,64,0,1,0-82.4,0A100.1,100.1,0,0,0,6.2,190.5a12,12,0,0,0,2.9,16.7,11.8,11.8,0,0,0,6.9,2.2,11.9,11.9,0,0,0,9.8-5.1,76,76,0,0,1,124.4,0,12,12,0,1,0,19.6-13.8A100.1,100.1,0,0,0,129.2,156.9ZM48,108a40,40,0,1,1,40,40A40,40,0,0,1,48,108Zm200.4,99.2a11.8,11.8,0,0,1-6.9,2.2,12.1,12.1,0,0,1-9.8-5.1A76.2,76.2,0,0,0,169.5,172a12,12,0,0,1,0-24,40,40,0,0,0,0-80,39.1,39.1,0,0,0-10.8,1.5,12,12,0,1,1-6.5-23.1A62.8,62.8,0,0,1,169.5,44a63.9,63.9,0,0,1,41.2,112.9,100.1,100.1,0,0,1,40.6,33.6A11.9,11.9,0,0,1,248.4,207.2Z"/></svg>