<svg id="Flat" xmlns="http://www.w3.org/2000/svg" viewBox="0 0 256 256">
  <path d="M164,56a12,12,0,0,1,12-12h48a12,12,0,0,1,0,24H176A12,12,0,0,1,164,56Zm70.50684,54.0127A109.03171,109.03171,0,0,1,236,128a107.73386,107.73386,0,0,1-35.01038,79.52783,11.88547,11.88547,0,0,1-1.6156,1.45166,107.77691,107.77691,0,0,1-142.74328.0044,11.89856,11.89856,0,0,1-1.6261-1.46143A107.94825,107.94825,0,0,1,128,20a109.0096,109.0096,0,0,1,17.9873,1.49316,11.99993,11.99993,0,1,1-3.97168,23.669A84.957,84.957,0,0,0,128,44,83.93054,83.93054,0,0,0,62.05481,179.9375a83.49358,83.49358,0,0,1,28.969-23.41992,52.00008,52.00008,0,1,1,73.95227,0A83.49788,83.49788,0,0,1,193.945,179.938,83.56278,83.56278,0,0,0,212,128a84.9893,84.9893,0,0,0-1.16211-14.01611,11.99989,11.99989,0,0,1,23.669-3.97119ZM128,148a28,28,0,1,0-28-28A28.03146,28.03146,0,0,0,128,148Zm0,64a83.51225,83.51225,0,0,0,48.434-15.43359,60.02884,60.02884,0,0,0-96.86816-.00049A83.50931,83.50931,0,0,0,128,212Z"/>
</svg>
