<svg xmlns="http://www.w3.org/2000/svg" viewBox="0 0 256 256"><path d="M164.3,177.2a52,52,0,1,0-72.6,0,75.5,75.5,0,0,0-32.1,33.5,12,12,0,0,0,21.6,10.6,52,52,0,0,1,93.6,0,12,12,0,0,0,10.8,6.7,12.3,12.3,0,0,0,5.2-1.2,12,12,0,0,0,5.6-16.1A75.5,75.5,0,0,0,164.3,177.2ZM100,140a28,28,0,1,1,28,28A28.1,28.1,0,0,1,100,140Zm151.2,9.6a12,12,0,0,1-16.8-2.4,47.4,47.4,0,0,0-31.6-18.7,12,12,0,0,1-9.9-9.1,7.8,7.8,0,0,1-.5-1.4,11.9,11.9,0,0,1,8.6-14.6,20,20,0,1,0-23.1-28,12,12,0,1,1-21.6-10.3,44,44,0,1,1,73.4,47.2,71.1,71.1,0,0,1,23.9,20.5A12,12,0,0,1,251.2,149.6Zm-198-21.1a47.4,47.4,0,0,0-31.6,18.7A12.2,12.2,0,0,1,12,152a12.2,12.2,0,0,1-7.2-2.4,12,12,0,0,1-2.4-16.8,71.1,71.1,0,0,1,23.9-20.5A44,44,0,1,1,99.7,65.1,12,12,0,1,1,78.1,75.4a20,20,0,1,0-23.1,28A11.9,11.9,0,0,1,63.6,118a7.8,7.8,0,0,1-.5,1.4A12,12,0,0,1,53.2,128.5Z"/></svg>