<svg id="Flat" xmlns="http://www.w3.org/2000/svg" viewBox="0 0 256 256">
  <path d="M164,56a12,12,0,0,1,12-12h12V32a12,12,0,0,1,24,0V44h12a12,12,0,0,1,0,24H212V80a12,12,0,0,1-24,0V68H176A12,12,0,0,1,164,56Zm71.39893,153.9834A124.42913,124.42913,0,0,0,173.57166,156.748a75.87054,75.87054,0,0,0,25.736-34.40619,12.00017,12.00017,0,0,0-22.5127-8.31836,51.96677,51.96677,0,1,1-36.77685-68.63037,12.00011,12.00011,0,0,0,5.52148-23.35645A75.985,75.985,0,0,0,82.40063,156.75909,124.43034,124.43034,0,0,0,20.60254,209.981,12.00005,12.00005,0,0,0,41.376,222.00049a100.03726,100.03726,0,0,1,173.24951.00146,11.99981,11.99981,0,0,0,20.77344-12.01855Z"/>
</svg>
