<svg xmlns="http://www.w3.org/2000/svg" viewBox="0 0 256 256"><path d="M228,48V76a12,12,0,0,1-24,0V52H180a12,12,0,0,1,0-24h28A20.1,20.1,0,0,1,228,48ZM216,168a12,12,0,0,0-12,12v24H180a12,12,0,0,0,0,24h28a20.1,20.1,0,0,0,20-20V180A12,12,0,0,0,216,168ZM76,204H52V180a12,12,0,0,0-24,0v28a20.1,20.1,0,0,0,20,20H76a12,12,0,0,0,0-24ZM40,88A12,12,0,0,0,52,76V52H76a12,12,0,0,0,0-24H48A20.1,20.1,0,0,0,28,48V76A12,12,0,0,0,40,88Zm126.4,87.2a48,48,0,0,0-76.8,0,12,12,0,0,1-16.8,2.4,12,12,0,0,1-2.4-16.8,72.1,72.1,0,0,1,23.9-20.5,44,44,0,1,1,67.4,0,72.1,72.1,0,0,1,23.9,20.5,12,12,0,0,1-19.2,14.4ZM108,112a20,20,0,1,0,20-20A20.1,20.1,0,0,0,108,112Z"/></svg>