<svg id="Flat" xmlns="http://www.w3.org/2000/svg" viewBox="0 0 256 256">
  <path d="M169.56641,46.11133A11.999,11.999,0,0,1,184.6875,38.407L188,39.4834V36a12,12,0,0,1,24,0v3.4834l3.3125-1.07642a12,12,0,0,1,7.417,22.8252l-3.31323,1.07641,2.04761,2.81836a11.99987,11.99987,0,1,1-19.416,14.10694L200,76.41528l-2.04785,2.81861a11.99987,11.99987,0,1,1-19.416-14.10694l2.04761-2.81836-3.31323-1.07641A12.00008,12.00008,0,0,1,169.56641,46.11133Zm31.42505,161.41455a11.893,11.893,0,0,1-1.61915,1.45508,107.77652,107.77652,0,0,1-142.74243.00195,11.89416,11.89416,0,0,1-1.62426-1.45972A107.94814,107.94814,0,0,1,128,20c3.33643,0,6.70361.1543,10.0083.4585a12,12,0,1,1-2.20019,23.89892C133.23193,44.12036,130.605,44,128,44A83.93071,83.93071,0,0,0,62.05481,179.93774a83.4957,83.4957,0,0,1,28.96912-23.42016,52,52,0,1,1,73.95214,0A83.49451,83.49451,0,0,1,193.945,179.938,83.56227,83.56227,0,0,0,212,128a85.25224,85.25224,0,0,0-.59717-10.07739,12.00015,12.00015,0,0,1,23.83106-2.84522A109.44675,109.44675,0,0,1,236,128,107.73326,107.73326,0,0,1,200.99146,207.52588ZM128,148a28,28,0,1,0-28-28A28.03161,28.03161,0,0,0,128,148Zm0,64a83.51009,83.51009,0,0,0,48.43384-15.43359,60.02843,60.02843,0,0,0-96.86792-.00025A83.511,83.511,0,0,0,128,212Z"/>
</svg>
