<svg id="Flat" xmlns="http://www.w3.org/2000/svg" viewBox="0 0 256 256">
  <path d="M216,36H40A20.02292,20.02292,0,0,0,20,56V200a20.02292,20.02292,0,0,0,20,20H192.48181c.01428,0,.02844.00146.0426.00146L192.55029,220H216a20.02292,20.02292,0,0,0,20-20V56A20.02292,20.02292,0,0,0,216,36ZM100,128a28,28,0,1,1,28,28A28.03146,28.03146,0,0,1,100,128Zm28,52a59.69489,59.69489,0,0,1,40.85522,16H87.14478A59.69489,59.69489,0,0,1,128,180Zm84,16H199.56213a83.51141,83.51141,0,0,0-34.56823-31.501,52,52,0,1,0-73.9878,0A83.51141,83.51141,0,0,0,56.43787,196H44V60H212Z"/>
</svg>
