<svg id="Flat" xmlns="http://www.w3.org/2000/svg" viewBox="0 0 256 256">
  <path d="M159.99951,28h-64a28.03146,28.03146,0,0,0-28,28V200a28.03146,28.03146,0,0,0,28,28h64a28.03146,28.03146,0,0,0,28-28V56A28.03146,28.03146,0,0,0,159.99951,28Zm4,172a4.004,4.004,0,0,1-4,4h-64a4.004,4.004,0,0,1-4-4V56a4.004,4.004,0,0,1,4-4h64a4.004,4.004,0,0,1,4,4ZM220.00244,88v80a12,12,0,0,1-24,0V88a12,12,0,1,1,24,0Zm32,16v48a12,12,0,0,1-24,0V104a12,12,0,1,1,24,0ZM59.99951,88v80a12,12,0,0,1-24,0V88a12,12,0,0,1,24,0Zm-32,16v48a12,12,0,0,1-24,0V104a12,12,0,0,1,24,0Z"/>
</svg>
