<svg xmlns="http://www.w3.org/2000/svg" viewBox="0 0 256 256"><path d="M246,69.6a12.2,12.2,0,0,0-12,0L196,91.3V68a20.1,20.1,0,0,0-20-20H121.7a12,12,0,1,0,0,24H172v85L43.8,15.9A12,12,0,1,0,26,32.1L40.5,48H24A20.1,20.1,0,0,0,4,68V188a20.1,20.1,0,0,0,20,20H176a20.6,20.6,0,0,0,8.3-1.8l30.8,33.9a12.1,12.1,0,0,0,17,.8,12.1,12.1,0,0,0,.8-17L196,183.4V164.7l38,21.7a11.7,11.7,0,0,0,6,1.6,11.5,11.5,0,0,0,6-1.6,12.1,12.1,0,0,0,6-10.4V80A12.1,12.1,0,0,0,246,69.6ZM28,184V72H62.3L164.1,184Zm200-28.7L196,137V119l32-18.3Z"/></svg>