<svg id="Flat" xmlns="http://www.w3.org/2000/svg" viewBox="0 0 256 256">
  <path d="M246.02344,69.62109a12.001,12.001,0,0,0-11.97754-.04l-38.063,21.75A44.043,44.043,0,0,0,152,48H110.88281a12,12,0,0,0,0,24H152a20.02229,20.02229,0,0,1,20,20v52a12.0552,12.0552,0,0,0,.09717,1.45752c.01562.12842.03833.25391.0581.38135q.08607.55737.22168,1.09668c.02881.11474.05591.22949.08814.34326a11.91233,11.91233,0,0,0,1.10376,2.63916c.05591.09863.11767.19336.17676.291q.28527.46949.61059.91016c.07837.10645.155.21289.23706.3169a12.03837,12.03837,0,0,0,.92383,1.05078c.01733.01757.03711.03271.05444.0498a12.09242,12.09242,0,0,0,1.01294.88574c.105.08252.21314.16065.321.23975q.46655.3435.96557.64062c.06055.03614.11353.08106.17481.11622l56,32A12.00009,12.00009,0,0,0,252,176V80A12.00171,12.00171,0,0,0,246.02344,69.62109ZM228,155.32227l-32-18.28614V118.96387l32-18.28614ZM43.78809,15.92773A11.99986,11.99986,0,0,0,26.03027,32.07227L40.51,48H24A20.02229,20.02229,0,0,0,4,68v96a44.04978,44.04978,0,0,0,44,44H176a19.85,19.85,0,0,0,8.303-1.82764l30.81811,33.89991a11.99986,11.99986,0,0,0,17.75782-16.14454ZM48,184a20.02229,20.02229,0,0,1-20-20V72H62.32812L164.14624,184Z"/>
</svg>
