<svg id="Flat" xmlns="http://www.w3.org/2000/svg" viewBox="0 0 256 256">
  <path d="M246.02344,69.62109a12.001,12.001,0,0,0-11.97754-.04l-38.063,21.75A44.043,44.043,0,0,0,152,48H121.69531a12,12,0,0,0,0,24H152a20.02229,20.02229,0,0,1,20,20v64.96094L43.78809,15.92773A11.99986,11.99986,0,0,0,26.03027,32.07227L40.51,48H24A20.02229,20.02229,0,0,0,4,68v96a44.04978,44.04978,0,0,0,44,44H176a19.85,19.85,0,0,0,8.303-1.82764l30.81811,33.89991a11.99986,11.99986,0,0,0,17.75782-16.14454L196,183.36084V164.67822L234.0459,186.419A12.00009,12.00009,0,0,0,252,176V80A12.00171,12.00171,0,0,0,246.02344,69.62109ZM48,184a20.02229,20.02229,0,0,1-20-20V72H62.32812L164.14624,184Zm180-28.67773-32-18.28614V118.96387l32-18.28614Z"/>
</svg>
