<svg id="Flat" xmlns="http://www.w3.org/2000/svg" viewBox="0 0 256 256">
  <path d="M246.02344,69.62109a12.0034,12.0034,0,0,0-11.97754-.04l-38.063,21.75025A44.043,44.043,0,0,0,152,48H24A20.02229,20.02229,0,0,0,4,68v96a44.04978,44.04978,0,0,0,44,44H176a20.02229,20.02229,0,0,0,20-20V164.67847L234.0459,186.419A12.00009,12.00009,0,0,0,252,176V80A12.00171,12.00171,0,0,0,246.02344,69.62109ZM172,184H48a20.02229,20.02229,0,0,1-20-20V72H152a20.02229,20.02229,0,0,1,20,20Zm56-28.67773-32-18.28638V118.96411l32-18.28638Z"/>
</svg>
