<svg id="Flat" xmlns="http://www.w3.org/2000/svg" viewBox="0 0 256 256">
  <path d="M227.74634,169.27832a108.82426,108.82426,0,0,0,8.222-40.65234c.01087-.2085.03162-.41455.03162-.626,0-.15625-.01746-.30811-.02344-.46289A107.99051,107.99051,0,1,0,34.46924,182a109.82856,109.82856,0,0,0,6.77514,10.33447c.16919.24658.34351.48877.52991.72168a107.18743,107.18743,0,0,0,58.27307,39.26416,108.59732,108.59732,0,0,0,28.12842,3.72608,108.02307,108.02307,0,0,0,98.55249-64.38184A11.98564,11.98564,0,0,0,227.74634,169.27832ZM114.68164,45.022A84.06573,84.06573,0,0,1,161.25732,116H134.928L96.81982,49.99463A83.31048,83.31048,0,0,1,114.68164,45.022ZM134.928,140h38.12488l.01794.001.01538-.001h37.99365a84.72337,84.72337,0,0,1-4.68542,18.03613,84.06219,84.06219,0,0,1-84.631,4.76563Zm65.81811-54a83.52079,83.52079,0,0,1,10.37,30H185.28662a107.436,107.436,0,0,0-14.397-49.71289,108.934,108.934,0,0,0-11.4021-16.14844A83.34505,83.34505,0,0,1,200.74609,86ZM76.04321,62.00781,88.9646,84.38818a107.44792,107.44792,0,0,0-35.85474,37.32471,108.98255,108.98255,0,0,0-8.27832,17.93457A84.22722,84.22722,0,0,1,76.04321,62.00781ZM62.79468,180.96a84.06425,84.06425,0,0,1,38.18457-75.76172L114.1438,128,76.02527,194.02344A83.22074,83.22074,0,0,1,62.79468,180.96Zm43.4646,28.17774a85.298,85.298,0,0,1-9.43018-3.14844l12.91968-22.37744A107.436,107.436,0,0,0,160,196a108.93435,108.93435,0,0,0,19.683-1.7998,83.788,83.788,0,0,1-73.4237,14.9375Z"/>
</svg>
