<svg id="Flat" xmlns="http://www.w3.org/2000/svg" viewBox="0 0 256 256">
  <path d="M164,144a16,16,0,1,1,16,16A16.00016,16.00016,0,0,1,164,144Zm72-48V200a20.02229,20.02229,0,0,1-20,20H56a28.03146,28.03146,0,0,1-28-28V68.1875A32.00028,32.00028,0,0,1,60,36H192a12,12,0,0,1,0,24H60a8.00073,8.00073,0,0,0-8,7.96484v.09473c.001.08105.002.16211.00488.24414A8.32243,8.32243,0,0,0,60.47949,76H216A20.02229,20.02229,0,0,1,236,96Zm-24,4H60.47949A33.32777,33.32777,0,0,1,52,98.91309V192a4.004,4.004,0,0,0,4,4H212Z"/>
</svg>
