<svg id="Flat" xmlns="http://www.w3.org/2000/svg" viewBox="0 0 256 256">
  <path d="M116,136.00012v-56a12,12,0,1,1,24,0v56a12,12,0,1,1-24,0Zm12,20a16,16,0,1,0,16,16A16.00017,16.00017,0,0,0,128,156.00012ZM236,91.54944V164.4508a19.87049,19.87049,0,0,1-5.85645,14.14112l-51.55078,51.55029a19.86559,19.86559,0,0,1-14.1416,5.85791H91.54883a19.86641,19.86641,0,0,1-14.14258-5.85889L25.85742,178.59289A19.87129,19.87129,0,0,1,20,164.4508V91.54944a19.87242,19.87242,0,0,1,5.85645-14.1416L77.40723,25.858a19.86559,19.86559,0,0,1,14.1416-5.85791h72.90234a19.868,19.868,0,0,1,14.14258,5.8584l51.54883,51.54834A19.87327,19.87327,0,0,1,236,91.54944Zm-24,1.65625L162.794,44.00012H93.20605L44,93.20569v69.58886l49.20605,49.20557H162.794L212,162.79455Z"/>
</svg>
