<svg xmlns="http://www.w3.org/2000/svg" viewBox="0 0 256 256"><path d="M116,132V80a12,12,0,0,1,24,0v52a12,12,0,0,1-24,0ZM236,91.5v72.9a19.9,19.9,0,0,1-5.9,14.2l-51.5,51.5a19.8,19.8,0,0,1-14.1,5.9h-73a19.8,19.8,0,0,1-14.1-5.9L25.9,178.6A19.9,19.9,0,0,1,20,164.4V91.5a19.8,19.8,0,0,1,5.9-14.1L77.4,25.9A19.8,19.8,0,0,1,91.5,20h73a19.8,19.8,0,0,1,14.1,5.9l51.5,51.5A19.8,19.8,0,0,1,236,91.5Zm-24,1.7L162.8,44H93.2L44,93.2v69.6L93.2,212h69.6L212,162.8ZM128,156a16,16,0,1,0,16,16A16,16,0,0,0,128,156Z"/></svg>