<svg id="Flat" xmlns="http://www.w3.org/2000/svg" viewBox="0 0 256 256">
  <path d="M212,128a83.89362,83.89362,0,0,0-32.8916-66.59723l-6.20606-40.43646A19.89,19.89,0,0,0,153.13379,4H102.86621A19.89,19.89,0,0,0,83.09766,20.96631L76.8916,61.40277a83.86713,83.86713,0,0,0,0,133.19446l6.20606,40.43646A19.89,19.89,0,0,0,102.86621,252h50.26758a19.89,19.89,0,0,0,19.76855-16.96631l6.20606-40.43646A83.89362,83.89362,0,0,0,212,128ZM106.29883,28h43.40234l3.02637,19.71906a84.06461,84.06461,0,0,0-49.45508,0ZM68,128a60,60,0,1,1,60,60A60.06812,60.06812,0,0,1,68,128Zm81.70117,100H106.29883l-3.02637-19.71906a84.06461,84.06461,0,0,0,49.45508,0ZM116,128V96a12,12,0,0,1,24,0v20h20a12,12,0,0,1,0,24H128A12,12,0,0,1,116,128Z"/>
</svg>
