<svg id="Flat" xmlns="http://www.w3.org/2000/svg" viewBox="0 0 256 256">
  <path d="M212,128a83.89892,83.89892,0,0,0-33.04541-66.71814L172.999,28.43213A19.98838,19.98838,0,0,0,153.31982,12H102.68018A19.98838,19.98838,0,0,0,83.001,28.43213L77.04541,61.28186a83.87412,83.87412,0,0,0,0,133.43628L83.001,227.56787A19.98838,19.98838,0,0,0,102.68018,244h50.63964a19.98838,19.98838,0,0,0,19.6792-16.43213l5.95557-32.84973A83.89892,83.89892,0,0,0,212,128ZM106.02,36h43.96l2.09033,11.5321a83.78239,83.78239,0,0,0-48.14062,0ZM68,128a60,60,0,1,1,60,60A60.06812,60.06812,0,0,1,68,128Zm81.98,92H106.02l-2.09033-11.5321a83.78239,83.78239,0,0,0,48.14062,0ZM116,128V88a12,12,0,0,1,24,0v28h28a12,12,0,0,1,0,24H128A12,12,0,0,1,116,128Z"/>
</svg>
