<svg xmlns="http://www.w3.org/2000/svg" viewBox="0 0 256 256"><path d="M30.6,79.5a12.1,12.1,0,0,1,1.9-16.9c1.2-1,12.6-9.7,30.6-14.2s43.1-5.3,71.6,13.6c40.2,26.8,73.5.9,73.8.6a12,12,0,1,1,15,18.8c-1.2,1-12.6,9.7-30.6,14.2a84.1,84.1,0,0,1-20.7,2.6c-14.7,0-32.3-3.8-50.9-16.2-40.2-26.8-73.5-.9-73.8-.6A12.1,12.1,0,0,1,30.6,79.5Zm177.9,39.1c-.3.3-33.6,26.2-73.8-.6C106.2,99.1,80,100.1,63.1,104.4s-29.4,13.2-30.6,14.2a12,12,0,1,0,15,18.8c.3-.3,33.6-26.2,73.8.6,18.6,12.4,36.2,16.2,50.9,16.2a84.1,84.1,0,0,0,20.7-2.6c18-4.5,29.4-13.2,30.6-14.2a12,12,0,0,0-15-18.8Zm0,56c-.3.3-33.6,26.2-73.8-.6-28.5-18.9-54.7-17.9-71.6-13.6s-29.4,13.2-30.6,14.2a12,12,0,0,0,15,18.8c.3-.3,33.6-26.2,73.8.6,18.6,12.4,36.2,16.2,50.9,16.2a84.1,84.1,0,0,0,20.7-2.6c18-4.5,29.4-13.2,30.6-14.2a12,12,0,0,0-15-18.8Z"/></svg>