<svg xmlns="http://www.w3.org/2000/svg" viewBox="0 0 256 256"><path d="M128,20A108.1,108.1,0,0,0,32.5,178.5l-8.1,28.4a20,20,0,0,0,24.7,24.7l28.4-8.1A108,108,0,1,0,128,20Zm0,192a85.1,85.1,0,0,1-42.9-11.7,11,11,0,0,0-6.1-1.7,12.4,12.4,0,0,0-3.3.4l-26.2,7.5L57,180.3a11.9,11.9,0,0,0-1.3-9.4A85.1,85.1,0,0,1,44,128a84,84,0,1,1,84,84Zm50.3-80.6L165.9,124a19.9,19.9,0,0,0-19.2-.8l-5,2.5a24.3,24.3,0,0,1-11.4-11.4l2.5-5a19.9,19.9,0,0,0-.8-19.2l-7.4-12.4A20,20,0,0,0,107.5,68H104a35.9,35.9,0,0,0-36,35.5A84,84,0,0,0,152,188h.5A35.9,35.9,0,0,0,188,152v-3.5A20,20,0,0,0,178.3,131.4ZM164,152a11.8,11.8,0,0,1-11.6,12H152a60.1,60.1,0,0,1-60-60.4A11.8,11.8,0,0,1,104,92h1.2l5.1,8.5-3.8,7.6a11.9,11.9,0,0,0-.8,8.5,47.8,47.8,0,0,0,33.7,33.7,11.9,11.9,0,0,0,8.5-.8l7.6-3.8,8.5,5.1Z"/></svg>