<svg id="Flat" xmlns="http://www.w3.org/2000/svg" viewBox="0 0 256 256">
  <path d="M251.27124,188.20508a12,12,0,0,0-15.17871-7.58936l-14.126,4.709-27.3457-54.69141A12.0012,12.0012,0,0,0,183.88745,124h-76V108h52a12,12,0,0,0,0-24h-52V69.65662a32,32,0,1,0-24,0v17.033A75.99734,75.99734,0,1,0,174.323,188.58984a11.99965,11.99965,0,1,0-22.23438-9.0332,52.00708,52.00708,0,1,1-68.20117-67.55121V136a12.00028,12.00028,0,0,0,12,12h80.584l28.68262,57.3667a11.99225,11.99225,0,0,0,14.52832,6.01758l24-8A12.00006,12.00006,0,0,0,251.27124,188.20508ZM95.88745,32a8,8,0,1,1-8,8A8.00917,8.00917,0,0,1,95.88745,32Z"/>
</svg>
