<svg id="Flat" xmlns="http://www.w3.org/2000/svg" viewBox="0 0 256 256">
  <path d="M143.99219,200.00287a16,16,0,1,1-16-16A16,16,0,0,1,143.99219,200.00287Zm-16-59.99994a62.05744,62.05744,0,0,0-43.41748,17.436,12,12,0,1,0,16.69043,17.2461,38.77706,38.77706,0,0,1,53.4541,0,12,12,0,0,0,16.69043-17.2461A62.05745,62.05745,0,0,0,127.99219,140.00293Zm77.42871-16.4375a110.7548,110.7548,0,0,0-154.85742,0,12.00016,12.00016,0,0,0,16.83007,17.11035,86.75415,86.75415,0,0,1,121.19727,0,12.00016,12.00016,0,1,0,16.83008-17.11035Z"/>
</svg>
