<svg id="Flat" xmlns="http://www.w3.org/2000/svg" viewBox="0 0 256 256">
  <path d="M143.97461,200.00293a16,16,0,1,1-16-16A16.00008,16.00008,0,0,1,143.97461,200.00293ZM56.86182,31.92773A12.00022,12.00022,0,0,0,39.103,48.07227L52.63769,62.96045a157.0853,157.0853,0,0,0-36.03076,26.688,12.00028,12.00028,0,0,0,16.87891,17.0625A133.08957,133.08957,0,0,1,69.366,81.36133l16.9978,18.69775A109.57315,109.57315,0,0,0,50.5459,123.56641,11.99981,11.99981,0,1,0,67.376,140.67578a85.636,85.636,0,0,1,36.542-21.30713L122.874,140.22046a61.8703,61.8703,0,0,0-38.31689,17.218,12,12,0,1,0,16.69043,17.24609,38.1759,38.1759,0,0,1,26.72705-10.68164,38.56053,38.56053,0,0,1,24.24414,8.49658L199.103,224.07227a12.00022,12.00022,0,0,0,17.75879-16.14454ZM239.34228,89.64844A157.33761,157.33761,0,0,0,127.97461,44.00293a161.06985,161.06985,0,0,0-22.54834,1.58691,11.9999,11.9999,0,0,0,3.37207,23.76172,137.02247,137.02247,0,0,1,19.17627-1.34863,133.481,133.481,0,0,1,94.48877,38.708,12.00027,12.00027,0,0,0,16.8789-17.0625Zm-50.769,51.02734a11.99981,11.99981,0,1,0,16.83008-17.10937,109.94273,109.94273,0,0,0-50.38965-28.249,12.00019,12.00019,0,0,0-5.82324,23.28321A85.92962,85.92962,0,0,1,188.57324,140.67578Z"/>
</svg>
