<svg id="Flat" xmlns="http://www.w3.org/2000/svg" viewBox="0 0 256 256">
  <path d="M171.40967,157.43848a12,12,0,1,1-16.69043,17.24609,38.77834,38.77834,0,0,0-53.4541,0,12,12,0,1,1-16.69043-17.24609,62.77622,62.77622,0,0,1,86.835,0ZM216.9707,80l15.51465-15.51465a12.0001,12.0001,0,0,0-16.9707-16.9707L200,63.0293,184.48535,47.51465a12.0001,12.0001,0,0,0-16.9707,16.9707L183.0293,80,167.51465,95.51465a12.0001,12.0001,0,0,0,16.9707,16.9707L200,96.9707l15.51465,15.51465a12.0001,12.0001,0,0,0,16.9707-16.9707ZM128,184a16,16,0,1,0,16,16A16.01833,16.01833,0,0,0,128,184Zm7.35986-115.7998A11.99972,11.99972,0,1,0,136.648,44.23535c-2.86524-.1543-5.77783-.23242-8.65576-.23242A157.33766,157.33766,0,0,0,16.62451,89.64844a12.00028,12.00028,0,0,0,16.87891,17.0625,133.48091,133.48091,0,0,1,94.48877-38.708C130.44238,68.00293,132.92139,68.06934,135.35986,68.2002Zm-.3125,48.084a12.00029,12.00029,0,0,0,1.918-23.92383c-2.96045-.2373-5.97949-.35742-8.97314-.35742a109.71207,109.71207,0,0,0-77.42871,31.56348,11.99981,11.99981,0,1,0,16.83007,17.10937,85.85468,85.85468,0,0,1,60.59864-24.67285C130.34863,116.00293,132.72217,116.09766,135.04736,116.28418Z"/>
</svg>
