<svg id="Flat" xmlns="http://www.w3.org/2000/svg" viewBox="0 0 256 256">
  <path d="M171.40967,157.43848a12,12,0,1,1-16.69043,17.24609,38.77834,38.77834,0,0,0-53.4541,0,12,12,0,0,1-16.69043-17.24609,62.77622,62.77622,0,0,1,86.835,0ZM127.99219,92.00293a109.717,109.717,0,0,0-77.42871,31.5625,12.00016,12.00016,0,0,0,16.83007,17.11035,86.75415,86.75415,0,0,1,121.19727,0,12.00016,12.00016,0,1,0,16.83008-17.11035A109.717,109.717,0,0,0,127.99219,92.00293Zm111.36767-2.354a158.68112,158.68112,0,0,0-222.73535,0,11.99993,11.99993,0,1,0,16.87891,17.06152,134.68184,134.68184,0,0,1,188.97754,0,11.99992,11.99992,0,1,0,16.8789-17.06152ZM128,184a16,16,0,1,0,16,16A16.01833,16.01833,0,0,0,128,184Z"/>
</svg>
