<svg xmlns="http://www.w3.org/2000/svg" viewBox="0 0 256 256"><path d="M171.4,157.4a12,12,0,0,1,.3,17,12.2,12.2,0,0,1-8.6,3.7,12.5,12.5,0,0,1-8.4-3.4,38.7,38.7,0,0,0-53.4,0,12,12,0,1,1-16.7-17.3,62.8,62.8,0,0,1,86.8,0ZM128,92a109.6,109.6,0,0,0-77.4,31.6,11.9,11.9,0,0,0-.2,16.9,12,12,0,0,0,17,.2,86.7,86.7,0,0,1,121.2,0,11.9,11.9,0,0,0,8.4,3.4,12.1,12.1,0,0,0,8.6-3.6,11.9,11.9,0,0,0-.2-16.9A109.6,109.6,0,0,0,128,92Zm111.4-2.4a158.9,158.9,0,0,0-222.8,0,12,12,0,0,0,16.9,17.1,134.7,134.7,0,0,1,189,0,12,12,0,0,0,8.4,3.5,12,12,0,0,0,8.5-20.6ZM128,184a16,16,0,1,0,16,16A16,16,0,0,0,128,184Z"/></svg>