<svg id="Flat" xmlns="http://www.w3.org/2000/svg" viewBox="0 0 256 256">
  <path d="M216.86182,207.92773A12.00022,12.00022,0,0,1,199.103,224.07227l-46.88428-51.57276a38.56053,38.56053,0,0,0-24.24414-8.49658,38.1759,38.1759,0,0,0-26.72705,10.68164,12,12,0,1,1-16.69043-17.24609,61.8703,61.8703,0,0,1,38.31689-17.218L103.918,119.36865a85.636,85.636,0,0,0-36.542,21.30713A11.99981,11.99981,0,1,1,50.5459,123.56641a109.57315,109.57315,0,0,1,35.81787-23.50733L69.366,81.36133a133.08957,133.08957,0,0,0-35.88013,25.34961,12.00028,12.00028,0,0,1-16.87891-17.0625,157.0853,157.0853,0,0,1,36.03076-26.688L39.103,48.07227A12.00022,12.00022,0,0,1,56.86182,31.92773ZM127.97656,184a16,16,0,1,0,16,16A16.01833,16.01833,0,0,0,127.97656,184ZM239.34228,89.64844A157.33761,157.33761,0,0,0,127.97461,44.00293c-3.96729,0-7.97119.14746-11.90088.43945a11.99964,11.99964,0,1,0,1.77441,23.9336c3.3418-.24707,6.749-.373,10.12647-.373a133.481,133.481,0,0,1,94.48877,38.708,12.00027,12.00027,0,0,0,16.8789-17.0625Zm-50.769,51.02734a11.99981,11.99981,0,1,0,16.83008-17.10937,109.4145,109.4145,0,0,0-32.77-22.21778,12.0003,12.0003,0,0,0-9.66894,21.9668A85.50447,85.50447,0,0,1,188.57324,140.67578Z"/>
</svg>
