<svg xmlns="http://www.w3.org/2000/svg" viewBox="0 0 256 256"><path d="M216.9,207.9a12.1,12.1,0,0,1-.8,17,12.1,12.1,0,0,1-17-.8l-46.9-51.6a38.7,38.7,0,0,0-50.9,2.2,12.5,12.5,0,0,1-8.4,3.4,12.2,12.2,0,0,1-8.6-3.7,12,12,0,0,1,.3-17,62.3,62.3,0,0,1,38.3-17.2l-19-20.8a85.5,85.5,0,0,0-36.5,21.3,11.9,11.9,0,0,1-8.4,3.4,12.1,12.1,0,0,1-8.6-3.6,11.9,11.9,0,0,1,.2-16.9,107.5,107.5,0,0,1,35.8-23.5l-17-18.7a134.2,134.2,0,0,0-35.9,25.3,12,12,0,0,1-8.4,3.5,12,12,0,0,1-8.5-20.6A158.8,158.8,0,0,1,52.7,63L39.1,48.1A12,12,0,0,1,56.9,31.9ZM128,184a16,16,0,1,0,16,16A16,16,0,0,0,128,184ZM239.4,89.6A157.5,157.5,0,0,0,128,44c-4,0-8,.2-11.9.4a12,12,0,0,0,1.8,24c3.3-.3,6.7-.4,10.1-.4a133.7,133.7,0,0,1,94.5,38.7,12,12,0,0,0,8.4,3.5,12,12,0,0,0,8.5-20.6Zm-50.8,51.1a11.9,11.9,0,0,0,8.4,3.4,12.1,12.1,0,0,0,8.6-3.6,11.9,11.9,0,0,0-.2-16.9,109.1,109.1,0,0,0-32.7-22.3,12,12,0,1,0-9.7,22A86,86,0,0,1,188.6,140.7Z"/></svg>