<svg id="Flat" xmlns="http://www.w3.org/2000/svg" viewBox="0 0 256 256">
  <path d="M143.99219,200.00293a16,16,0,1,1-16-16A16.00008,16.00008,0,0,1,143.99219,200.00293Zm-16-60a62.05908,62.05908,0,0,0-43.41748,17.43555,12,12,0,1,0,16.69043,17.24609,38.77834,38.77834,0,0,1,53.4541,0,12,12,0,1,0,16.69043-17.24609A62.0591,62.0591,0,0,0,127.99219,140.00293ZM216.96484,80l15.51465-15.51465a12.0001,12.0001,0,1,0-16.9707-16.9707L199.99414,63.0293,184.47949,47.51465a12.0001,12.0001,0,0,0-16.9707,16.9707L183.02344,80,167.50879,95.51465a12.0001,12.0001,0,0,0,16.9707,16.9707L199.99414,96.9707l15.51465,15.51465a12.0001,12.0001,0,1,0,16.9707-16.9707Zm-74.249-11.20508a12.00036,12.00036,0,0,0,2.583-23.86133,161.60358,161.60358,0,0,0-17.30664-.93066A157.33766,157.33766,0,0,0,16.62451,89.64844a12.00028,12.00028,0,0,0,16.87891,17.0625,133.48091,133.48091,0,0,1,94.48877-38.708A137.32283,137.32283,0,0,1,142.71582,68.79492Zm-.61914,48.34082a12.00018,12.00018,0,0,0,3.85059-23.68945,112.24747,112.24747,0,0,0-17.95508-1.44336,109.71207,109.71207,0,0,0-77.42871,31.56348,11.99981,11.99981,0,1,0,16.83007,17.10937,85.85468,85.85468,0,0,1,60.59864-24.67285A88.14143,88.14143,0,0,1,142.09668,117.13574Z"/>
</svg>
