<svg id="Flat" xmlns="http://www.w3.org/2000/svg" viewBox="0 0 256 256">
  <path d="M107.689,51.878a11.99985,11.99985,0,0,0-9.83544-2.59375l-60,10.90918A12.0004,12.0004,0,0,0,28,72v36a12,12,0,0,0,12,12h60a12,12,0,0,0,12-12V61.09084A11.9988,11.9988,0,0,0,107.689,51.878ZM88,96H52V82.01467l36-6.54492ZM223.689,30.78713a11.99626,11.99626,0,0,0-9.83544-2.59375l-76,13.81836A11.99963,11.99963,0,0,0,128,53.81838V108a12,12,0,0,0,12,12h76a12,12,0,0,0,12-12V40A11.9988,11.9988,0,0,0,223.689,30.78713ZM204,96H152V63.833l52-9.45459ZM100,136H40a12,12,0,0,0-12,12v36a12.0004,12.0004,0,0,0,9.85352,11.80664l60,10.90918A12.00043,12.00043,0,0,0,112,194.9092V148A12,12,0,0,0,100,136ZM88,180.53029l-36-6.54492V160H88ZM216,136H140a12,12,0,0,0-12,12v54.18164a11.99962,11.99962,0,0,0,9.85352,11.80664l76,13.81836A12.00043,12.00043,0,0,0,228,216V148A12,12,0,0,0,216,136ZM204,201.6216,152,192.167V160h52Z"/>
</svg>
