<svg xmlns="http://www.w3.org/2000/svg" viewBox="0 0 256 256"><path d="M107.7,51.9a11.6,11.6,0,0,0-9.8-2.6l-60,10.9A11.9,11.9,0,0,0,28,72v36a12,12,0,0,0,12,12h60a12,12,0,0,0,12-12V61.1A12,12,0,0,0,107.7,51.9ZM88,96H52V82l36-6.5ZM223.7,30.8a12,12,0,0,0-9.8-2.6L137.9,42A11.9,11.9,0,0,0,128,53.8V108a12,12,0,0,0,12,12h76a12,12,0,0,0,12-12V40A12,12,0,0,0,223.7,30.8ZM204,96H152V63.8l52-9.4ZM100,136H40a12,12,0,0,0-12,12v36a11.9,11.9,0,0,0,9.9,11.8l60,10.9,2.1.2a12,12,0,0,0,12-12V148A12,12,0,0,0,100,136ZM88,180.5,52,174V160H88ZM216,136H140a12,12,0,0,0-12,12v54.2a11.9,11.9,0,0,0,9.9,11.8l76,13.8,2.1.2a12,12,0,0,0,12-12V148A12,12,0,0,0,216,136Zm-12,65.6-52-9.4V160h52Z"/></svg>