<svg id="Flat" xmlns="http://www.w3.org/2000/svg" viewBox="0 0 256 256">
  <path d="M213.56738,108.88086,187.50879,20.60254A11.99994,11.99994,0,0,0,176,12H80a11.99994,11.99994,0,0,0-11.50879,8.60254L42.43262,108.88086a35.98467,35.98467,0,0,0,1.71484,25.01807A92.24778,92.24778,0,0,0,116,187.19678V220H88a12,12,0,0,0,0,24h80a12,12,0,0,0,0-24H140V187.19678A92.24913,92.24913,0,0,0,211.85352,133.898,35.99013,35.99013,0,0,0,213.56738,108.88086ZM88.96973,36h78.06054l18.91211,64.06885c-10.65136,3.50976-28.48633,5.24267-52.57617-6.80225-23.53027-11.76514-43.14062-13.334-58.00342-11.16943ZM128,164a68.17444,68.17444,0,0,1-61.98828-39.99707,11.97564,11.97564,0,0,1-.56055-8.32715l2.00928-6.80762c10.61377-4.23828,29.23633-7.10351,55.17334,5.86524,17.85156,8.92578,33.48291,11.9292,46.43945,11.92871a78.5539,78.5539,0,0,0,20.96729-2.791c-.019.04346-.03272.08838-.05225.13135A68.17489,68.17489,0,0,1,128,164Z"/>
</svg>
