<svg id="Flat" xmlns="http://www.w3.org/2000/svg" viewBox="0 0 256 256">
  <path d="M128,20.00012a108,108,0,1,0,108,108A108.12217,108.12217,0,0,0,128,20.00012Zm0,192a84,84,0,1,1,84-84A84.0953,84.0953,0,0,1,128,212.00012Zm40.48535-107.51465L144.9707,128.00012l23.51465,23.51465a12.0001,12.0001,0,0,1-16.9707,16.9707L128,144.97082l-23.51465,23.51465a12.0001,12.0001,0,0,1-16.9707-16.9707l23.51465-23.51465L87.51465,104.48547a12.0001,12.0001,0,0,1,16.9707-16.9707L128,111.02942l23.51465-23.51465a12.0001,12.0001,0,0,1,16.9707,16.9707Z"/>
</svg>
