<svg id="Flat" xmlns="http://www.w3.org/2000/svg" viewBox="0 0 256 256">
  <path d="M87.51465,151.51477l23.51465-23.51465L87.51465,104.48547a12.0001,12.0001,0,0,1,16.9707-16.9707L128,111.02942l23.51465-23.51465a12.0001,12.0001,0,0,1,16.9707,16.9707L144.9707,128.00012l23.51465,23.51465a12.0001,12.0001,0,0,1-16.9707,16.9707L128,144.97082l-23.51465,23.51465a12.0001,12.0001,0,0,1-16.9707-16.9707ZM228,48.00012v160a20.0226,20.0226,0,0,1-20,20H48a20.0226,20.0226,0,0,1-20-20v-160a20.0226,20.0226,0,0,1,20-20H208A20.0226,20.0226,0,0,1,228,48.00012Zm-24,4H52v152H204Z"/>
</svg>
