<svg xmlns="http://www.w3.org/2000/svg" viewBox="0 0 256 256"><path d="M170.5,117.9l-56-36A12.1,12.1,0,0,0,96,92v72a11.9,11.9,0,0,0,6.3,10.5A11.3,11.3,0,0,0,108,176a11.7,11.7,0,0,0,6.5-1.9l56-36a12,12,0,0,0,0-20.2ZM120,142V114l21.8,14ZM238.2,68.8a28,28,0,0,0-16.9-19.1c-34.9-13.4-90-13.3-93.3-13.3s-58.4-.1-93.3,13.3A28,28,0,0,0,17.8,68.8C15.2,78.9,12,97.5,12,128s3.2,49.1,5.8,59.2a28,28,0,0,0,16.9,19.1c33.5,12.8,85.7,13.3,92.7,13.3h1.2c7,0,59.2-.5,92.7-13.3a28,28,0,0,0,16.9-19.1c2.6-10.1,5.8-28.7,5.8-59.2S240.8,78.9,238.2,68.8ZM215,181.2a4.4,4.4,0,0,1-2.3,2.7c-29.9,11.5-80.4,11.7-84.4,11.7h-.4c-.5,0-53.6.2-84.6-11.7a4.4,4.4,0,0,1-2.3-2.7c-1.9-7.2-5-23.7-5-53.2s3.1-46,5-53.2a4.4,4.4,0,0,1,2.3-2.7c31-11.9,84.1-11.7,84.6-11.7h.2c.5,0,53.6-.2,84.6,11.7a4.4,4.4,0,0,1,2.3,2.7c1.9,7.2,5,23.7,5,53.2S216.9,174,215,181.2Z"/></svg>