<svg id="Flat" xmlns="http://www.w3.org/2000/svg" viewBox="0 0 256 256">
  <path d="M170.48926,117.90576l-56-36A12.00015,12.00015,0,0,0,96,92v72a12.00025,12.00025,0,0,0,18.48926,10.09424l56-36a12.00038,12.00038,0,0,0,0-20.18848ZM120,142.02V113.98L141.80859,128Zm118.20166-73.231a27.97289,27.97289,0,0,0-16.94092-19.07129C186.38867,36.31641,131.28223,36.38232,128,36.40771c-3.27539-.021-58.3877-.0913-93.25977,13.30958a27.9723,27.9723,0,0,0-16.9414,19.07128C15.15332,78.94482,12,97.46191,12,128c0,30.53711,3.15332,49.05469,5.79834,59.21094a27.97289,27.97289,0,0,0,16.94092,19.07129c33.48242,12.86718,85.61914,13.31152,92.62549,13.31152h1.2705c7.01123,0,59.14454-.44531,92.62452-13.311a27.9723,27.9723,0,0,0,16.9414-19.07128C240.84668,177.05518,244,158.53809,244,128,244,97.46289,240.84668,78.94531,238.20166,68.78906ZM214.97607,181.1626a3.928,3.928,0,0,1-2.3247,2.71728c-29.85938,11.47412-80.37647,11.71289-84.332,11.71289-.33936,0-.27588-.00048-.32129-.00048h-.07129c-.53125.0122-53.64356.17529-84.57862-11.7129a3.92833,3.92833,0,0,1-2.3247-2.71728C39.14746,173.9585,36,157.47266,36,128c0-29.47314,3.14746-45.9585,5.02393-53.1626a3.928,3.928,0,0,1,2.3247-2.71728c30.93555-11.88819,84.042-11.71241,84.5752-11.71289.04883.001.10058.00048.14941.00048.53223-.00781,53.64356-.17529,84.57862,11.7129a3.92833,3.92833,0,0,1,2.3247,2.71728C216.85254,82.0415,220,98.52734,220,128,220,157.47314,216.85254,173.9585,214.97607,181.1626Z"/>
</svg>
