<svg id="Flat" xmlns="http://www.w3.org/2000/svg" viewBox="0 0 256 256">
  <path d="M234.624,66.11816C232.3916,52.05811,219.54,39.772,205.30273,38.13965A713.5714,713.5714,0,0,0,50.63379,38.147C36.46387,39.771,23.6123,52.05615,21.36523,66.186A408.57539,408.57539,0,0,0,21.376,189.88379c2.23535,14.061,15.0874,26.34619,29.32129,27.97607A712.50776,712.50776,0,0,0,128,222.06055a712.50776,712.50776,0,0,0,77.30273-4.20069c.02051-.00244.041-.00488.06153-.00683,14.17285-1.62207,27.02539-13.90772,29.27051-28.03907A408.56258,408.56258,0,0,0,234.624,66.11816Zm-23.70312,119.999c-.54492,3.4292-4.78662,7.47558-8.2627,7.88867a689.14538,689.14538,0,0,1-149.293.00293c-3.48046-.39893-7.74023-4.45557-8.27539-7.82275a384.3564,384.3564,0,0,1-.01123-116.30127c.54639-3.4375,4.80664-7.49512,8.22412-7.88672a689.28588,689.28588,0,0,1,149.33057-.00733c3.48193.39942,7.74219,4.45557,8.27686,7.82324A384.35349,384.35349,0,0,1,210.9209,186.11719Zm-40.43164-68.21143-56-36A12.00015,12.00015,0,0,0,96,92v72a12.00025,12.00025,0,0,0,18.48926,10.09424l56-36a12.00038,12.00038,0,0,0,0-20.18848ZM120,142.02V113.98L141.80859,128Z"/>
</svg>
